<svg width="36" height="36" viewBox="0 0 36 36" fill="none" xmlns="http://www.w3.org/2000/svg">
<path d="M17.9663 34.5C13.2331 34.5 8.4887 34.5 3.75554 34.5C1.48452 34.5 0.0117335 33.0076 0.0117335 30.7125C0.0117335 28.5079 0.0454615 26.3032 0.00049085 24.0986C-0.0332372 21.9279 1.67565 20.3337 3.75554 20.3337C13.2556 20.3676 22.7444 20.3676 32.2445 20.3337C34.3244 20.3224 36.0332 21.9278 35.9995 24.0873C35.9658 26.3145 35.9995 28.5305 35.9883 30.7578C35.9883 33.0076 34.493 34.5 32.2445 34.5C27.4776 34.5 22.7219 34.5 17.9663 34.5ZM17.8538 29.0506C17.9438 29.0506 18.0337 29.0619 18.1349 29.0619C18.371 29.3558 18.5846 29.6724 18.8544 29.9211C19.3829 30.396 20.0462 30.362 20.5071 29.8759C20.9343 29.4237 20.9231 28.7453 20.4621 28.2478C20.2036 27.9765 19.9 27.7504 19.5178 27.4112C19.8888 27.0946 20.1923 26.8685 20.4509 26.6085C20.9343 26.0884 20.9343 25.3988 20.4846 24.9352C20.0237 24.4717 19.3379 24.4604 18.8207 24.9465C18.5509 25.1953 18.326 25.5005 18.0112 25.851C17.7077 25.5118 17.5053 25.2744 17.2805 25.0483C16.6846 24.4604 15.9988 24.4265 15.4929 24.9465C15.0207 25.4327 15.0544 26.1336 15.6166 26.6989C15.8527 26.9364 16.1337 27.1286 16.471 27.3999C16.0663 27.7617 15.774 27.9878 15.5154 28.2591C15.0544 28.7566 15.0544 29.435 15.4816 29.8872C15.9426 30.3734 16.6059 30.4073 17.1343 29.9211C17.4041 29.6724 17.6178 29.3445 17.8538 29.0506ZM8.62362 25.9188C8.29758 25.5344 8.08397 25.2405 7.82539 24.9917C7.28574 24.4717 6.59994 24.4491 6.12774 24.9239C5.64431 25.3988 5.64431 26.0884 6.17272 26.6311C6.4313 26.8911 6.74609 27.0946 7.10586 27.3773C6.67864 27.7617 6.39757 27.9878 6.15023 28.2365C5.65555 28.7679 5.65555 29.4237 6.10526 29.8985C6.57745 30.3847 7.26325 30.396 7.8029 29.8759C8.06148 29.6272 8.28634 29.3219 8.60113 28.9488C8.94965 29.3558 9.17451 29.6611 9.44433 29.9211C9.93901 30.3847 10.6023 30.3847 11.0633 29.9437C11.5242 29.5028 11.558 28.7792 11.0858 28.2818C10.8159 27.9991 10.4899 27.7843 10.0852 27.4451C10.5236 27.0607 10.8497 26.8346 11.1082 26.5407C11.5467 26.0658 11.513 25.3422 11.0858 24.9126C10.6473 24.483 9.95025 24.4604 9.46682 24.9126C9.18575 25.1839 8.94965 25.5118 8.62362 25.9188ZM28.8379 27.4225C29.2764 27.0494 29.6137 26.8233 29.8723 26.5407C30.322 26.0545 30.2995 25.3648 29.8498 24.9239C29.4113 24.483 28.7255 24.4604 28.2308 24.9126C27.9498 25.1839 27.7137 25.5005 27.3651 25.9188C27.1178 25.6023 26.9717 25.3761 26.7918 25.1953C26.0835 24.4717 25.4426 24.3812 24.8918 24.9126C24.3409 25.4553 24.4196 26.1223 25.1279 26.8233C25.319 27.0155 25.5776 27.1399 25.8924 27.3547C25.4314 27.773 25.1279 27.9991 24.8805 28.2818C24.4083 28.7905 24.4308 29.5028 24.903 29.9437C25.364 30.3847 26.0273 30.396 26.5107 29.9211C26.7918 29.6498 26.9941 29.3106 27.3202 28.9036C27.6575 29.2993 27.8261 29.548 28.0397 29.7628C28.6693 30.396 29.3326 30.4525 29.8498 29.9098C30.3557 29.3897 30.3107 28.734 29.6924 28.1235C29.49 27.8974 29.2202 27.7278 28.8379 27.4225ZM22.6994 8.56429C23.1604 8.56429 23.5426 8.53037 23.9136 8.57559C24.577 8.64343 25.0154 9.05044 25.0267 9.70618C25.0492 12.0917 25.0492 14.4886 25.0267 16.8854C25.0154 17.6316 24.487 18.0047 23.6213 18.0047C20.1586 18.0047 16.6959 18.0047 13.2331 18.0047C12.8958 18.0047 12.5586 18.016 12.2213 18.0047C11.4568 17.9821 10.9733 17.5412 10.9621 16.7837C10.9396 14.4433 10.9396 12.1143 10.9621 9.77402C10.9733 9.06175 11.4006 8.63212 12.1201 8.57559C12.4911 8.54167 12.8621 8.57559 13.2893 8.57559C13.2893 7.77287 13.2781 7.03799 13.2893 6.31441C13.3343 4.12107 14.6497 2.30082 16.6059 1.71292C19.6976 0.785834 22.632 2.99048 22.6994 6.30311C22.7107 7.00407 22.6994 7.73896 22.6994 8.56429ZM15.6503 8.49645C17.2355 8.49645 18.7533 8.49645 20.3272 8.49645C20.3272 7.77287 20.3272 7.10583 20.3272 6.42747C20.3272 6.23527 20.3272 6.05438 20.3047 5.86218C20.1249 4.66375 19.1018 3.81581 17.9101 3.83842C16.7521 3.87234 15.7515 4.76551 15.6615 5.95263C15.6053 6.77796 15.6503 7.60329 15.6503 8.49645Z" fill="white"/>
</svg>
