<svg width="36" height="36" viewBox="0 0 36 36" fill="none" xmlns="http://www.w3.org/2000/svg">
<g clip-path="url(#clip0_132_95)">
<path fill-rule="evenodd" clip-rule="evenodd" d="M36 6.41125H7.56911V20.2591C10.0883 20.5408 12.1689 21.6112 13.7546 23.583C15.3291 25.5436 15.9252 27.8084 15.6665 30.3323C15.7441 30.3369 15.8143 30.3433 15.88 30.3493C15.9763 30.3581 16.0632 30.3661 16.1501 30.3661C18.137 30.3661 20.1238 30.3673 22.1107 30.3686C26.0844 30.3711 30.0582 30.3736 34.0319 30.3661C35.3252 30.3548 36 29.6562 36 28.3605V6.95209V6.41125ZM22.8136 17.814C22.8136 17.2703 22.8136 16.7267 22.808 16.1802V13.0366C22.8192 12.1352 23.1903 11.7521 24.1126 11.7408C24.6411 11.7295 25.1585 11.7295 25.687 11.7408C27.5427 11.7633 28.8698 12.8 29.3534 14.614C29.7695 16.169 29.657 17.6788 28.7573 19.0422C28.15 19.9549 27.284 20.5295 26.1594 20.6084C25.4396 20.6534 24.7086 20.676 23.9776 20.6647C23.2128 20.6534 22.8192 20.2253 22.8192 19.4478C22.8136 18.9013 22.8136 18.3576 22.8136 17.814ZM18.0435 19.3863C17.9524 19.3833 17.861 19.3802 17.7696 19.3802C17.7134 19.3802 17.6571 19.3815 17.6009 19.3827C17.4884 19.3852 17.376 19.3877 17.2635 19.3802C16.6112 19.3126 16.1051 19.3915 15.8802 20.1802C15.7115 20.7323 15.0142 20.9013 14.5081 20.6535C13.9908 20.3943 13.8109 19.8422 14.047 19.1999C14.4827 18.0253 14.9296 16.8562 15.3758 15.6888C15.5631 15.1989 15.7503 14.7093 15.9364 14.2197C16.1501 13.6338 16.3638 13.0591 16.5887 12.4845C16.7912 11.9662 17.151 11.6619 17.7358 11.6619C18.3094 11.6619 18.6918 11.9436 18.8942 12.4732C19.2037 13.296 19.5148 14.1173 19.8256 14.9381C20.362 16.3543 20.8978 17.7692 21.4247 19.1887C21.6833 19.876 21.4247 20.4957 20.8623 20.6873C20.255 20.8901 19.6927 20.6196 19.4678 19.9211C19.3328 19.4816 19.1192 19.3126 18.6693 19.3689C18.4649 19.4004 18.255 19.3934 18.0435 19.3863ZM13.6084 29.352C13.6422 25.4422 10.6956 22.3999 6.86058 22.3661C3.10428 22.3323 0.0340177 25.3408 0.000278456 29.0703C-0.0334607 32.8788 3.00307 35.9661 6.7931 35.9999C10.4707 36.0224 13.5747 32.9914 13.6084 29.352ZM9.44725 0H24.6299C24.686 0 24.742 0.00463056 24.8034 0.0096936C24.8773 0.0157998 24.9589 0.0225351 25.0573 0.0225351V4.22534H7.54661C7.54661 3.94334 7.54354 3.66339 7.54049 3.38487C7.53342 2.73972 7.52644 2.10225 7.55786 1.46478C7.5916 0.799997 8.17641 0.214084 8.83995 0.0676054C9.03114 0.0225351 9.24482 0 9.44725 0ZM34.6954 0.0901405C35.3927 0.169014 35.9325 0.856335 35.9663 1.61126C35.9948 2.15517 35.9916 2.70363 35.9884 3.26241C35.9865 3.58337 35.9846 3.90774 35.9888 4.2366H32.5249V0.0676054C32.7448 0.0676054 32.9647 0.061487 33.184 0.0553856C33.6937 0.0412055 34.2 0.0271175 34.6954 0.0901405ZM27.2053 0.0450703H30.3206V4.24787H27.2053V2.16337V0.0450703ZM27.464 16.2478C27.4527 17.938 26.6655 18.6591 24.9673 18.5013V13.8591C26.7667 13.7126 27.4752 14.4 27.464 16.2478ZM17.0386 17.2732C17.2635 16.6535 17.4659 16.1014 17.7358 15.3802C17.8295 15.6264 17.9163 15.8536 17.9997 16.0717C18.1567 16.4825 18.3014 16.861 18.4556 17.2732H17.0386ZM4.05471 25.5649C4.60427 25.4067 5.1033 25.5396 5.50757 25.9445C5.90088 26.3324 6.28258 26.732 6.68602 27.1542L6.73935 27.2101C6.85688 27.0907 6.97137 26.9734 7.08397 26.8582C7.40103 26.5336 7.70303 26.2244 8.01534 25.9255C8.81758 25.1662 10.0999 25.4763 10.422 26.514C10.5926 27.0519 10.4852 27.5644 10.0809 27.9757C9.81095 28.2462 9.53832 28.514 9.25789 28.7894C9.10528 28.9393 8.95036 29.0915 8.79231 29.2476C9.00459 29.4571 9.21069 29.6619 9.41443 29.8645C9.62297 30.0718 9.82904 30.2766 10.0367 30.4815C10.4663 30.9054 10.5926 31.4179 10.4094 31.9874C10.0746 33.0188 8.81758 33.3352 8.02798 32.5949C7.73048 32.3144 7.4451 32.0248 7.14246 31.7177C7.00813 31.5814 6.87041 31.4417 6.72671 31.2977C6.62813 31.3996 6.52955 31.5019 6.43087 31.6043C6.1312 31.9152 5.83065 32.227 5.52652 32.5316C5.11593 32.9429 4.62322 33.0948 4.05471 32.9303C3.00612 32.6202 2.65237 31.361 3.39776 30.5511C3.67032 30.2567 3.96011 29.9767 4.26712 29.6801C4.41549 29.5368 4.56787 29.3895 4.72429 29.2349C4.56265 29.0776 4.40101 28.9251 4.24114 28.7744C3.95744 28.5068 3.67932 28.2446 3.41671 27.9694C2.64606 27.1594 2.99348 25.8623 4.05471 25.5649Z" fill="white"/>
</g>
<defs>
<clipPath id="clip0_132_95">
<rect width="36" height="36" fill="white"/>
</clipPath>
</defs>
</svg>
