<svg width="81" height="16" viewBox="0 0 81 16" fill="none" xmlns="http://www.w3.org/2000/svg">
<g clip-path="url(#clip0_1_3192)">
<path d="M5.9051 3.05035C7.61726 3.05035 8.97153 3.70362 9.35381 4.58481V3.36579H12.1254V14.9841H9.35381V13.7671C8.97153 14.6239 7.61726 15.3016 5.9051 15.3016C2.79394 15.3016 0 12.8208 0 9.18818C0 5.55555 2.79394 3.05035 5.9051 3.05035ZM6.24265 12.2551C7.66199 12.2551 8.90239 11.5774 9.26231 10.7206V7.6293C8.90239 6.75014 7.66199 6.09484 6.24265 6.09484C4.26005 6.09484 2.88341 7.35863 2.88341 9.18614C2.88341 11.0137 4.25802 12.2551 6.24265 12.2551Z" fill="#09090B"/>
<path d="M15.3481 3.36572H18.2112V9.63583C18.2112 11.3066 19.2706 12.253 20.6676 12.253C21.8856 12.253 23.0345 11.5081 23.2379 10.4926V3.36572H26.101V14.984H23.3274V13.8118C23.0122 14.6686 21.908 15.3015 20.2406 15.3015C17.8513 15.3015 15.3502 13.7223 15.3502 10.1141V3.36572H15.3481Z" fill="#09090B"/>
<path d="M37.0552 13.9462C36.5143 14.7134 35.4772 15.2995 34.1697 15.2995C31.5995 15.2995 30.3611 13.8343 30.3611 11.3291V6.41028H28.3765V5.48635L32.3661 0.433228H33.2445V3.36579H36.9189V6.41028H33.2221V10.6962C33.2221 11.846 33.8993 12.253 34.6639 12.253C35.4284 12.253 35.9266 11.96 36.4451 11.3739L37.0531 13.9462H37.0552Z" fill="#09090B"/>
<path d="M45.1015 15.2995C41.8114 15.2995 38.9707 12.7048 38.9707 9.18614C38.9707 5.66748 41.8114 3.05035 45.1015 3.05035C48.3916 3.05035 51.2323 5.66748 51.2323 9.18614C51.2323 12.7048 48.3937 15.2995 45.1015 15.2995ZM45.1015 12.2551C46.9052 12.2551 48.3469 11.0137 48.3469 9.18614C48.3469 7.35863 46.9052 6.09484 45.1015 6.09484C43.2979 6.09484 41.8562 7.35863 41.8562 9.18614C41.8562 11.0137 43.2979 12.2551 45.1015 12.2551Z" fill="#09090B"/>
<path d="M55.0413 11.3738C56.1454 11.3738 57.0015 12.2306 57.0015 13.3357C57.0015 14.4407 56.1454 15.2975 55.0413 15.2975C53.9371 15.2975 53.0811 14.4407 53.0811 13.3357C53.0811 12.2306 53.9371 11.3738 55.0413 11.3738Z" fill="#09090B"/>
<path d="M66.8983 6.56902C66.5607 6.34313 66.0198 6.09484 65.3651 6.09484C64.0352 6.09484 63.1791 6.92923 62.9534 7.98951V14.9821H60.0903V3.36579H62.8619V4.90025C63.1995 3.81758 64.1247 3.05035 65.4322 3.05035C66.2882 3.05035 67.0101 3.45534 67.3029 3.92951L66.8962 6.56902H66.8983Z" fill="#09090B"/>
<path d="M69.2627 3.36572H72.1258V9.63583C72.1258 11.3066 73.1852 12.253 74.5822 12.253C75.8002 12.253 76.9491 11.5081 77.1524 10.4926V3.36572H80.0155V14.984H77.2419V13.8118C76.9267 14.6686 75.8226 15.3015 74.1531 15.3015C71.7638 15.3015 69.2627 13.7223 69.2627 10.1141V3.36572Z" fill="#09090B"/>
</g>
<defs>
<clipPath id="clip0_1_3192">
<rect width="80.0158" height="14.8663" fill="white" transform="translate(0 0.433167)"/>
</clipPath>
</defs>
</svg>
