<svg width="85" height="25" viewBox="0 0 85 25" fill="none" xmlns="http://www.w3.org/2000/svg">
<path d="M18.1618 24.7593C21.7108 24.7593 24.5878 21.8823 24.5878 18.3334C24.5878 14.7844 21.7108 11.9074 18.1618 11.9074C14.6128 11.9074 11.7358 14.7844 11.7358 18.3334C11.7358 21.8823 14.6128 24.7593 18.1618 24.7593Z" fill="#09090B"/>
<path d="M6.08246 21.3246C7.73443 21.3246 9.07361 19.9854 9.07361 18.3335C9.07361 16.6815 7.73443 15.3423 6.08246 15.3423C4.43049 15.3423 3.09131 16.6815 3.09131 18.3335C3.09131 19.9854 4.43049 21.3246 6.08246 21.3246Z" fill="#09090B"/>
<path d="M18.162 10.3904C20.4463 10.3904 22.2981 8.53862 22.2981 6.25432C22.2981 3.97002 20.4463 2.11823 18.162 2.11823C15.8777 2.11823 14.0259 3.97002 14.0259 6.25432C14.0259 8.53862 15.8777 10.3904 18.162 10.3904Z" fill="#09090B"/>
<path d="M6.08279 11.5353C8.99942 11.5353 11.3638 9.17087 11.3638 6.25424C11.3638 3.3376 8.99942 0.973206 6.08279 0.973206C3.16616 0.973206 0.801758 3.3376 0.801758 6.25424C0.801758 9.17087 3.16616 11.5353 6.08279 11.5353Z" fill="#09090B"/>
<path d="M41.2945 21.2896H44.6303L38.4525 4.4682H36.033L29.854 21.2902H33.1901L34.3699 18.0792H40.1147L41.2945 21.2902L35.299 15.5478L37.2426 10.2582L39.185 15.5478H35.299L41.2945 21.2896ZM52.8996 9.80533L49.8298 18.1617L46.7613 9.80533H43.627L47.8467 21.2896H51.8134L56.0325 9.80533H52.899M57.3443 9.80533H60.4785V21.2896H57.3443V9.80533Z" fill="#09090B"/>
<path d="M58.9218 8.50142C60.0362 8.50142 60.9397 7.59796 60.9397 6.48347C60.9397 5.36898 60.0362 4.46552 58.9218 4.46552C57.8073 4.46552 56.9038 5.36898 56.9038 6.48347C56.9038 7.59796 57.8073 8.50142 58.9218 8.50142Z" fill="#09090B"/>
<path d="M71.5448 12.3363V9.80544H67.7903V6.63739H64.658V9.80544H62.1792V12.3363H64.658V17.2773C64.658 19.8259 65.9323 21.527 69.1862 21.527C70.4428 21.527 71.5448 21.0656 71.5448 21.0656L71.1641 18.586C71.1641 18.586 70.5473 18.7703 69.7888 18.7703C68.8591 18.7703 67.7903 18.3696 67.7903 17.0844V12.336L71.5448 12.3363ZM78.7322 18.6647C76.9847 18.6647 75.5687 17.2793 75.5687 15.5705C75.5687 13.8631 76.9847 12.4774 78.7316 12.4774C80.4796 12.4774 81.895 13.8634 81.895 15.5708C81.895 17.2796 80.4796 18.6647 78.7322 18.6647ZM78.7322 9.51233C75.3351 9.51233 72.5801 12.2072 72.5801 15.529C72.5801 18.8522 75.3351 21.5456 78.7319 21.5456C82.1272 21.5456 84.8822 18.8522 84.8822 15.529C84.8822 12.2072 82.1272 9.51233 78.7316 9.51233" fill="#09090B"/>
</svg>
