<svg width="142" height="40" viewBox="0 0 142 40" fill="none" xmlns="http://www.w3.org/2000/svg">
<path d="M29.7525 40C35.7207 40 40.5588 35.1619 40.5588 29.1937C40.5588 23.2256 35.7207 18.3875 29.7525 18.3875C23.7844 18.3875 18.9463 23.2256 18.9463 29.1937C18.9463 35.1619 23.7844 40 29.7525 40Z" fill="#F2F2F2"/>
<path d="M9.43926 34.2238C12.2173 34.2238 14.4693 31.9718 14.4693 29.1937C14.4693 26.4157 12.2173 24.1636 9.43926 24.1636C6.66123 24.1636 4.40918 26.4157 4.40918 29.1937C4.40918 31.9718 6.66123 34.2238 9.43926 34.2238Z" fill="#F2F2F2"/>
<path d="M29.7524 15.8363C33.5938 15.8363 36.7078 12.7223 36.7078 8.88086C36.7078 5.03946 33.5938 1.92538 29.7524 1.92538C25.9109 1.92538 22.7969 5.03946 22.7969 8.88086C22.7969 12.7223 25.9109 15.8363 29.7524 15.8363Z" fill="#F2F2F2"/>
<path d="M9.43946 17.7617C14.3442 17.7617 18.3203 13.7856 18.3203 8.88087C18.3203 3.9761 14.3442 0 9.43946 0C4.53469 0 0.558594 3.9761 0.558594 8.88087C0.558594 13.7856 4.53469 17.7617 9.43946 17.7617Z" fill="#F2F2F2"/>
<path d="M68.6531 34.1651H74.2627L63.8738 5.87726H59.8049L49.4141 34.1661H55.0242L57.0083 28.7663H66.6689L68.6531 34.1661L58.5707 24.5093L61.8391 15.614L65.1055 24.5093H58.5707L68.6531 34.1651ZM88.1688 14.8525L83.0064 28.9049L77.8463 14.8525H72.5756L79.6716 34.1651H86.3421L93.4372 14.8525H88.1679M95.6432 14.8525H100.914V34.1651H95.6432V14.8525Z" fill="#F2F2F2"/>
<path d="M98.2963 12.6594C100.171 12.6594 101.69 11.1401 101.69 9.26594C101.69 7.39176 100.171 5.87244 98.2963 5.87244C96.4222 5.87244 94.9028 7.39176 94.9028 9.26594C94.9028 11.1401 96.4222 12.6594 98.2963 12.6594Z" fill="#F2F2F2"/>
<path d="M119.524 19.1085V14.8525H113.21V9.5249H107.943V14.8525H103.774V19.1085H107.943V27.4176C107.943 31.7035 110.086 34.5641 115.558 34.5641C117.671 34.5641 119.524 33.7882 119.524 33.7882L118.884 29.6183C118.884 29.6183 117.847 29.9283 116.571 29.9283C115.008 29.9283 113.21 29.2544 113.21 27.0931V19.1081L119.524 19.1085ZM131.611 29.7507C128.672 29.7507 126.291 27.4209 126.291 24.5473C126.291 21.676 128.672 19.3458 131.61 19.3458C134.549 19.3458 136.93 21.6765 136.93 24.5478C136.93 27.4214 134.549 29.7507 131.611 29.7507ZM131.611 14.3596C125.898 14.3596 121.265 18.8914 121.265 24.4775C121.265 30.0659 125.898 34.5954 131.61 34.5954C137.32 34.5954 141.953 30.0659 141.953 24.4775C141.953 18.8914 137.32 14.3596 131.61 14.3596" fill="#F2F2F2"/>
</svg>
