<svg width="42" height="42" viewBox="0 0 42 42" fill="none" xmlns="http://www.w3.org/2000/svg">
<g clip-path="url(#clip0_21_6995)">
<path d="M21.1437 4.37658C26.6401 4.37658 27.291 4.4008 29.4526 4.49771C31.4616 4.58654 32.5464 4.92571 33.2696 5.20835C34.2258 5.57982 34.9169 6.03204 35.6321 6.75075C36.3553 7.47754 36.7973 8.16395 37.1669 9.12492C37.4482 9.85171 37.7857 10.95 37.8741 12.9607C37.9705 15.1411 37.9946 15.7952 37.9946 21.3107C37.9946 26.8343 37.9705 27.4884 37.8741 29.6607C37.7857 31.6796 37.4482 32.7698 37.1669 33.4965C36.7973 34.4575 36.3473 35.152 35.6321 35.8707C34.9089 36.5975 34.2258 37.0417 33.2696 37.4131C32.5464 37.6958 31.4535 38.0349 29.4526 38.1238C27.283 38.2207 26.6321 38.2449 21.1437 38.2449C15.6473 38.2449 14.9964 38.2207 12.8348 38.1238C10.8258 38.0349 9.74102 37.6958 9.0178 37.4131C8.06155 37.0417 7.37048 36.5894 6.6553 35.8707C5.93209 35.1439 5.49012 34.4575 5.12048 33.4965C4.83923 32.7698 4.50173 31.6715 4.41334 29.6607C4.31691 27.4804 4.2928 26.8262 4.2928 21.3107C4.2928 15.7871 4.31691 15.133 4.41334 12.9607C4.50173 10.9419 4.83923 9.85171 5.12048 9.12492C5.49012 8.16395 5.94012 7.46946 6.6553 6.75075C7.37852 6.02396 8.06155 5.57982 9.0178 5.20835C9.74102 4.92571 10.8339 4.58654 12.8348 4.49771C14.9964 4.4008 15.6473 4.37658 21.1437 4.37658ZM21.1437 0.653809C15.5589 0.653809 14.8598 0.678035 12.666 0.77494C10.4803 0.871845 8.97762 1.22716 7.67584 1.73591C6.3178 2.26889 5.16869 2.97145 4.02762 4.12624C2.87852 5.27295 2.17941 6.42773 1.64905 7.78441C1.1428 9.1007 0.78923 10.6027 0.692801 12.7992C0.596373 15.0119 0.572266 15.7145 0.572266 21.3269C0.572266 26.9393 0.596373 27.6419 0.692801 29.8465C0.78923 32.043 1.1428 33.5531 1.64905 34.8613C2.17941 36.226 2.87852 37.3808 4.02762 38.5275C5.16869 39.6742 6.3178 40.3849 7.6678 40.9098C8.97762 41.4185 10.4723 41.7738 12.658 41.8708C14.8517 41.9677 15.5508 41.9919 21.1357 41.9919C26.7205 41.9919 27.4196 41.9677 29.6133 41.8708C31.7991 41.7738 33.3017 41.4185 34.6035 40.9098C35.9535 40.3849 37.1026 39.6742 38.2437 38.5275C39.3848 37.3808 40.0919 36.226 40.6142 34.8694C41.1205 33.5531 41.4741 32.051 41.5705 29.8545C41.6669 27.6499 41.691 26.9474 41.691 21.335C41.691 15.7225 41.6669 15.02 41.5705 12.8154C41.4741 10.6189 41.1205 9.10877 40.6142 7.80056C40.108 6.42773 39.4089 5.27295 38.2598 4.12624C37.1187 2.97953 35.9696 2.26889 34.6196 1.74399C33.3098 1.23524 31.8151 0.87992 29.6294 0.783015C27.4276 0.678035 26.7285 0.653809 21.1437 0.653809Z" fill="#EFF1FC"/>
<path d="M21.1431 10.7075C15.3092 10.7075 10.5762 15.4639 10.5762 21.3267C10.5762 27.1895 15.3092 31.9459 21.1431 31.9459C26.9771 31.9459 31.7101 27.1895 31.7101 21.3267C31.7101 15.4639 26.9771 10.7075 21.1431 10.7075ZM21.1431 28.215C17.3583 28.215 14.2887 25.1302 14.2887 21.3267C14.2887 17.5232 17.3583 14.4384 21.1431 14.4384C24.928 14.4384 27.9976 17.5232 27.9976 21.3267C27.9976 25.1302 24.928 28.215 21.1431 28.215Z" fill="#EFF1FC"/>
<path d="M34.596 10.2878C34.596 11.6606 33.4871 12.7669 32.1291 12.7669C30.763 12.7669 29.6621 11.6525 29.6621 10.2878C29.6621 8.91493 30.771 7.80859 32.1291 7.80859C33.4871 7.80859 34.596 8.923 34.596 10.2878Z" fill="#EFF1FC"/>
</g>
<defs>
<clipPath id="clip0_21_6995">
<rect width="41.1429" height="41.3462" fill="white" transform="translate(0.572266 0.653809)"/>
</clipPath>
</defs>
</svg>
