<svg width="31" height="30" viewBox="0 0 31 30" fill="none" xmlns="http://www.w3.org/2000/svg">
<path fill-rule="evenodd" clip-rule="evenodd" d="M30.2549 14.8663C30.2549 23.0768 23.6317 29.7326 15.4617 29.7326C7.29161 29.7326 0.668457 23.0768 0.668457 14.8663C0.668457 6.65588 7.29161 0 15.4617 0C23.6317 0 30.2549 6.65588 30.2549 14.8663ZM15.9916 10.9748C14.5527 11.5762 11.677 12.821 7.36449 14.7092C6.6642 14.9891 6.29736 15.2629 6.26396 15.5306C6.20753 15.983 6.7713 16.1611 7.53902 16.4037C7.64345 16.4367 7.75165 16.4709 7.86258 16.5072C8.6179 16.7539 9.63393 17.0426 10.1621 17.054C10.6412 17.0644 11.176 16.8659 11.7664 16.4585C15.7957 13.7252 17.8757 12.3436 18.0063 12.3138C18.0984 12.2928 18.226 12.2664 18.3125 12.3436C18.399 12.4209 18.3905 12.5672 18.3814 12.6065C18.3255 12.8457 16.1125 14.9133 14.9673 15.9833C14.6102 16.3169 14.357 16.5535 14.3052 16.6075C14.1892 16.7286 14.071 16.8431 13.9574 16.9531C13.2557 17.6329 12.7295 18.1427 13.9866 18.9752C14.5907 19.3752 15.074 19.7061 15.5563 20.0361C16.083 20.3965 16.6083 20.756 17.2879 21.2037C17.4611 21.3178 17.6265 21.4363 17.7875 21.5517C18.4004 21.9908 18.9511 22.3853 19.6314 22.3224C20.0267 22.2858 20.435 21.9123 20.6424 20.7983C21.1324 18.1654 22.0957 12.4609 22.3184 10.1101C22.3379 9.90419 22.3133 9.64061 22.2936 9.5249C22.2739 9.4092 22.2327 9.24434 22.0831 9.12231C21.9058 8.97778 21.6322 8.9473 21.5099 8.94947C20.9534 8.95932 20.0998 9.25761 15.9916 10.9748Z" fill="#09090B"/>
</svg>
