<svg width="30" height="30" viewBox="0 0 30 30" fill="none" xmlns="http://www.w3.org/2000/svg">
<path fill-rule="evenodd" clip-rule="evenodd" d="M2.117 2.08624C0.0410156 4.17248 0.0410156 7.53128 0.0410156 14.2469V15.4857C0.0410156 22.2004 0.0410156 25.5602 2.117 27.6464C4.19298 29.7326 7.53526 29.7326 14.2178 29.7326H15.4506C22.1322 29.7326 25.4755 29.7326 27.5515 27.6464C29.6275 25.5602 29.6275 22.2014 29.6275 15.4857V14.2469C29.6275 7.53227 29.6275 4.17248 27.5515 2.08624C25.4755 0 22.1332 0 15.4506 0H14.2178C7.53625 0 4.19298 0 2.117 2.08624ZM5.89863 9.29143H8.05548C8.60678 9.29143 8.81388 9.53424 9.02099 10.1348C10.0762 13.2231 11.8554 15.9228 12.5862 15.9228C12.8613 15.9228 12.9866 15.7959 12.9866 15.0952V11.9029C12.9372 10.9942 12.6212 10.6011 12.3872 10.3099C12.2428 10.1302 12.1295 9.98931 12.1295 9.78995C12.1295 9.54713 12.3357 9.29143 12.6779 9.29143H16.0685C16.5261 9.29143 16.6849 9.53722 16.6849 10.0883V14.3836C16.6849 14.8425 16.8831 15.0041 17.0202 15.0041C17.2943 15.0041 17.5231 14.8425 18.0261 14.3371C19.5804 12.5918 20.6771 9.90491 20.6771 9.90491C20.8141 9.58281 21.0676 9.29143 21.6159 9.29143H23.7728C24.4257 9.29143 24.5637 9.62939 24.4257 10.0883C24.1515 11.3519 21.5232 15.0724 21.5232 15.0724C21.2944 15.4401 21.2027 15.6235 21.5232 16.0368C21.6363 16.196 21.8777 16.4337 22.1535 16.7055C22.4358 16.9834 22.7541 17.297 23.0085 17.5987C23.9355 18.6463 24.6337 19.5304 24.828 20.1389C25.0065 20.7504 24.6979 21.0606 24.0815 21.0606H21.9236C21.3459 21.0606 21.0553 20.7355 20.4267 20.0323C20.1603 19.7344 19.8333 19.3685 19.3979 18.9307C18.1168 17.6909 17.5695 17.5303 17.249 17.5303C16.815 17.5303 16.6849 17.6542 16.6849 18.2737V20.2182C16.6849 20.7504 16.5152 21.0606 15.1434 21.0606C12.8583 21.0606 10.3465 19.6661 8.56437 17.0933C5.88976 13.3271 5.15897 10.4788 5.15897 9.90491C5.15897 9.58281 5.28225 9.29143 5.89863 9.29143Z" fill="#09090B"/>
</svg>
