<svg width="51" height="50" viewBox="0 0 51 50" fill="none" xmlns="http://www.w3.org/2000/svg">
<path fill-rule="evenodd" clip-rule="evenodd" d="M4.19811 3.50833C0.707031 7.01667 0.707031 12.665 0.707031 23.9583V26.0417C0.707031 37.3333 0.707031 42.9833 4.19811 46.4917C7.6892 50 13.3098 50 24.5476 50H26.6207C37.8568 50 43.479 50 46.9701 46.4917C50.4612 42.9833 50.4612 37.335 50.4612 26.0417V23.9583C50.4612 12.6667 50.4612 7.01667 46.9701 3.50833C43.479 0 37.8585 0 26.6207 0H24.5476C13.3114 0 7.6892 0 4.19811 3.50833ZM10.5578 15.625H14.1848C15.1119 15.625 15.4602 16.0333 15.8085 17.0434C17.5831 22.2367 20.5749 26.7767 21.8039 26.7767C22.2666 26.7767 22.4772 26.5634 22.4772 25.385V20.0167C22.3941 18.4885 21.8628 17.8274 21.4693 17.3378C21.2264 17.0355 21.036 16.7986 21.036 16.4634C21.036 16.055 21.3826 15.625 21.9581 15.625H27.6599C28.4295 15.625 28.6965 16.0384 28.6965 16.965V24.1883C28.6965 24.96 29.0298 25.2317 29.2604 25.2317C29.7214 25.2317 30.1062 24.96 30.952 24.11C33.5657 21.175 35.41 16.6567 35.41 16.6567C35.6405 16.115 36.0667 15.625 36.9888 15.625H40.6159C41.7138 15.625 41.946 16.1933 41.7138 16.965C41.2528 19.09 36.8329 25.3467 36.8329 25.3467C36.4482 25.965 36.2939 26.2733 36.8329 26.9683C37.0231 27.2361 37.429 27.6359 37.8929 28.0929C38.3675 28.5603 38.9029 29.0877 39.3306 29.595C40.8896 31.3567 42.0638 32.8433 42.3905 33.8667C42.6907 34.895 42.1716 35.4167 41.135 35.4167H37.5063C36.5348 35.4167 36.046 34.8699 34.989 33.6875C34.541 33.1864 33.991 32.5712 33.2589 31.835C31.1046 29.75 30.1841 29.48 29.6451 29.48C28.9154 29.48 28.6965 29.6884 28.6965 30.73V34C28.6965 34.895 28.4112 35.4167 26.1043 35.4167C22.2616 35.4167 18.0375 33.0717 15.0406 28.745C10.5428 22.4117 9.31392 17.6217 9.31392 16.6567C9.31392 16.115 9.52122 15.625 10.5578 15.625Z" fill="#F2F2F2"/>
</svg>
