<svg width="30" height="30" viewBox="0 0 30 30" fill="none" xmlns="http://www.w3.org/2000/svg">
<g clip-path="url(#clip0_1_3214)">
<path d="M29.7053 8.91987C29.7053 8.91987 29.4164 6.86995 28.5265 5.96984C27.3996 4.78518 26.1399 4.77937 25.562 4.70969C21.4246 4.40771 15.2126 4.40771 15.2126 4.40771H15.201C15.201 4.40771 8.98902 4.40771 4.85154 4.70969C4.27368 4.77937 3.01394 4.78518 1.88712 5.96984C0.997213 6.86995 0.714061 8.91987 0.714061 8.91987C0.714061 8.91987 0.413574 11.3298 0.413574 13.734V15.9872C0.413574 18.3913 0.708283 20.8013 0.708283 20.8013C0.708283 20.8013 0.997213 22.8512 1.88134 23.7513C3.00817 24.936 4.48749 24.8954 5.14625 25.0231C7.51547 25.2496 15.2068 25.3193 15.2068 25.3193C15.2068 25.3193 21.4246 25.3077 25.562 25.0115C26.1399 24.9418 27.3996 24.936 28.5265 23.7513C29.4164 22.8512 29.7053 20.8013 29.7053 20.8013C29.7053 20.8013 30 18.3971 30 15.9872V13.734C30 11.3298 29.7053 8.91987 29.7053 8.91987ZM12.1499 18.7223V10.3659L20.1417 14.5586L12.1499 18.7223Z" fill="#09090B"/>
</g>
<defs>
<clipPath id="clip0_1_3214">
<rect width="29.5864" height="29.7326" fill="white" transform="translate(0.413574)"/>
</clipPath>
</defs>
</svg>
