<svg width="51" height="50" viewBox="0 0 51 50" fill="none" xmlns="http://www.w3.org/2000/svg">
<g clip-path="url(#clip0_0_129)">
<path d="M49.7197 15.0001C49.7197 15.0001 49.2339 11.5528 47.7373 10.0392C45.8424 8.04697 43.724 8.0372 42.7522 7.92001C35.7944 7.4122 25.348 7.4122 25.348 7.4122H25.3285C25.3285 7.4122 14.8821 7.4122 7.9243 7.92001C6.95254 8.0372 4.83411 8.04697 2.93917 10.0392C1.44266 11.5528 0.966497 15.0001 0.966497 15.0001C0.966497 15.0001 0.461182 19.0528 0.461182 23.0958V26.8849C0.461182 30.9278 0.95678 34.9806 0.95678 34.9806C0.95678 34.9806 1.44266 38.4278 2.92945 39.9415C4.82439 41.9337 7.3121 41.8653 8.4199 42.0802C12.4041 42.461 25.3383 42.5782 25.3383 42.5782C25.3383 42.5782 35.7944 42.5587 42.7522 42.0606C43.724 41.9435 45.8424 41.9337 47.7373 39.9415C49.2339 38.4278 49.7197 34.9806 49.7197 34.9806C49.7197 34.9806 50.2153 30.9376 50.2153 26.8849V23.0958C50.2153 19.0528 49.7197 15.0001 49.7197 15.0001ZM20.1976 31.4845V17.4317L33.6371 24.4825L20.1976 31.4845Z" fill="#F2F2F2"/>
</g>
<defs>
<clipPath id="clip0_0_129">
<rect width="49.7542" height="50" fill="white" transform="translate(0.461182)"/>
</clipPath>
</defs>
</svg>
