<svg width="26" height="26" viewBox="0 0 26 26" fill="none" xmlns="http://www.w3.org/2000/svg">
<path d="M3.71429 0C1.66562 0 0 1.66562 0 3.71429V22.2857C0 24.3344 1.66562 26 3.71429 26H22.2857C24.3344 26 26 24.3344 26 22.2857V3.71429C26 1.66562 24.3344 0 22.2857 0H3.71429ZM8.29911 8.29911C8.84464 7.75357 9.72678 7.75357 10.2665 8.29911L12.9942 11.0268L15.7219 8.29911C16.2674 7.75357 17.1496 7.75357 17.6893 8.29911C18.229 8.84464 18.2348 9.72678 17.6893 10.2665L14.9616 12.9942L17.6893 15.7219C18.2348 16.2674 18.2348 17.1496 17.6893 17.6893C17.1437 18.229 16.2616 18.2348 15.7219 17.6893L12.9942 14.9616L10.2665 17.6893C9.72098 18.2348 8.83884 18.2348 8.29911 17.6893C7.75937 17.1437 7.75357 16.2616 8.29911 15.7219L11.0268 12.9942L8.29911 10.2665C7.75357 9.72098 7.75357 8.83884 8.29911 8.29911Z" fill="#F7F7F7"/>
</svg>
