<svg width="16" height="16" viewBox="0 0 16 16" fill="none" xmlns="http://www.w3.org/2000/svg">
<path d="M13.7143 0C14.975 0 16 1.025 16 2.28571V13.7143C16 14.975 14.975 16 13.7143 16H2.28571C1.025 16 0 14.975 0 13.7143V2.28571C0 1.025 1.025 0 2.28571 0H13.7143ZM5.71429 4C5.23929 4 4.85714 4.38214 4.85714 4.85714C4.85714 5.33214 5.23929 5.71429 5.71429 5.71429H9.075L4.25 10.5357C3.91429 10.8714 3.91429 11.4143 4.25 11.7464C4.58571 12.0786 5.12857 12.0821 5.46071 11.7464L10.2821 6.925L10.2857 10.5714C10.2857 11.0464 10.6679 11.4286 11.1429 11.4286C11.6179 11.4286 12 11.0464 12 10.5714V4.85714C12 4.38214 11.6179 4 11.1429 4H5.71429Z" fill="#1E1E1E"/>
</svg>
