<svg width="16" height="16" viewBox="0 0 16 16" fill="none" xmlns="http://www.w3.org/2000/svg">
<path d="M2.28571 0C1.025 0 0 1.025 0 2.28571V13.7143C0 14.975 1.025 16 2.28571 16H13.7143C14.975 16 16 14.975 16 13.7143V2.28571C16 1.025 14.975 0 13.7143 0H2.28571ZM7.78571 8.56071L2.29286 5.01429C2.35714 4.44286 2.83929 4 3.42857 4H12.5714C13.1607 4 13.6429 4.44286 13.7071 5.01429L8.21429 8.56071C8.15 8.60357 8.075 8.625 8 8.625C7.925 8.625 7.85 8.60357 7.78571 8.56071ZM8.83571 9.52143L13.7143 6.37143V10.8571C13.7143 11.4893 13.2036 12 12.5714 12H3.42857C2.79643 12 2.28571 11.4893 2.28571 10.8571V6.37143L7.16429 9.52143C7.41429 9.68214 7.70357 9.76786 8 9.76786C8.29643 9.76786 8.58571 9.68214 8.83571 9.52143Z" fill="#1E1E1E"/>
</svg>
