<svg width="16" height="16" viewBox="0 0 16 16" fill="none" xmlns="http://www.w3.org/2000/svg">
<path d="M2.28571 0C1.025 0 0 1.025 0 2.28571V13.7143C0 14.975 1.025 16 2.28571 16H13.7143C14.975 16 16 14.975 16 13.7143V2.28571C16 1.025 14.975 0 13.7143 0H2.28571ZM5.525 3.45357C5.87143 3.36071 6.23571 3.53571 6.37143 3.86786L7.08571 5.58214C7.20714 5.875 7.12143 6.21071 6.87857 6.41071L6 7.13214C6.59286 8.38929 7.61071 9.40714 8.86786 10L9.58929 9.11786C9.78929 8.875 10.125 8.78929 10.4179 8.91072L12.1321 9.625C12.4643 9.76429 12.6393 10.125 12.5464 10.4714L12.1179 12.0429C12.0321 12.3571 11.75 12.5714 11.4286 12.5714C7.01071 12.5714 3.42857 8.98929 3.42857 4.57143C3.42857 4.25 3.64286 3.96786 3.95357 3.88214L5.525 3.45357Z" fill="#1E1E1E"/>
</svg>
