<svg width="23" height="22" viewBox="0 0 23 22" fill="none" xmlns="http://www.w3.org/2000/svg">
<path d="M19.4717 3.24121C17.4258 1.19043 14.7012 0.0625 11.8057 0.0625C5.8291 0.0625 0.96582 4.92578 0.96582 10.9023C0.96582 12.8115 1.46387 14.6768 2.41113 16.3223L0.873047 21.9375L6.62012 20.4287C8.20215 21.293 9.98438 21.7471 11.8008 21.7471H11.8057C17.7773 21.7471 22.748 16.8838 22.748 10.9072C22.748 8.01172 21.5176 5.29199 19.4717 3.24121ZM11.8057 19.9209C10.1846 19.9209 8.59766 19.4863 7.21582 18.666L6.88867 18.4707L3.48047 19.3643L4.38867 16.0391L4.17383 15.6973C3.27051 14.2617 2.79688 12.6064 2.79688 10.9023C2.79688 5.93652 6.83984 1.89355 11.8105 1.89355C14.2178 1.89355 16.4785 2.83105 18.1777 4.53516C19.877 6.23926 20.9219 8.5 20.917 10.9072C20.917 15.8779 16.7715 19.9209 11.8057 19.9209ZM16.7471 13.1729C16.4785 13.0361 15.1455 12.3818 14.8965 12.2939C14.6475 12.2012 14.4668 12.1572 14.2861 12.4307C14.1055 12.7041 13.5879 13.3096 13.4268 13.4951C13.2705 13.6758 13.1094 13.7002 12.8408 13.5635C11.249 12.7676 10.2041 12.1426 9.1543 10.3408C8.87598 9.8623 9.43262 9.89648 9.9502 8.86133C10.0381 8.68066 9.99414 8.52441 9.92578 8.3877C9.85742 8.25098 9.31543 6.91797 9.09082 6.37598C8.87109 5.84863 8.64648 5.92188 8.48047 5.91211C8.32422 5.90234 8.14355 5.90234 7.96289 5.90234C7.78223 5.90234 7.48926 5.9707 7.24023 6.23926C6.99121 6.5127 6.29297 7.16699 6.29297 8.5C6.29297 9.83301 7.26465 11.1221 7.39648 11.3027C7.5332 11.4834 9.30566 14.2178 12.0254 15.3945C13.7441 16.1367 14.418 16.2002 15.2773 16.0732C15.7998 15.9951 16.8789 15.4189 17.1035 14.7842C17.3281 14.1494 17.3281 13.6074 17.2598 13.4951C17.1963 13.373 17.0156 13.3047 16.7471 13.1729Z" fill="#F7F7F7" fill-opacity="0.5"/>
</svg>
