<svg width="200" height="52" viewBox="0 0 200 52" fill="none" xmlns="http://www.w3.org/2000/svg">
<path d="M13.0394 29.35C8.79942 29.35 5.57941 28.08 3.46941 25.57C2.34941 24.23 1.50941 22.51 0.959414 20.44L0.899414 20.2L5.65941 19L5.70941 19.25C6.01941 20.77 6.52941 21.95 7.22941 22.75C7.84941 23.56 8.68941 24.17 9.74941 24.56C10.8194 24.96 11.9694 25.16 13.1694 25.16C14.0794 25.16 15.0094 25.05 15.9294 24.83C16.8294 24.61 17.5594 24.31 18.0994 23.94C19.0594 23.31 19.5194 22.42 19.5194 21.23C19.5194 20.35 19.1794 19.64 18.4794 19.03C17.8094 18.43 16.7694 17.94 15.3994 17.55L10.0494 16.1C7.57941 15.42 5.71941 14.58 4.51941 13.59C3.71941 12.95 3.10941 12.16 2.71941 11.24C2.32941 10.33 2.13941 9.39 2.13941 8.44C2.13941 7.08 2.56941 5.79 3.40941 4.62C4.24941 3.46 5.34941 2.57 6.66941 1.99C8.27941 1.26 10.2994 0.889999 12.6894 0.889999C15.1094 0.939999 17.1794 1.4 18.8394 2.26C21.2694 3.55 23.0894 5.61 24.2294 8.39L24.3394 8.66L19.5994 9.82L19.5094 9.64C19.1194 8.82 18.6894 8.11 18.2294 7.55C17.7794 7 17.1894 6.52 16.4794 6.14C15.2794 5.44 13.9894 5.09 12.6494 5.09C11.0894 5.09 9.81941 5.36 8.85941 5.88C8.30941 6.18 7.85941 6.58 7.53941 7.07C7.21941 7.55 7.05941 8.05 7.05941 8.57C7.05941 9.23 7.29941 9.79 7.78941 10.3C8.33941 10.81 9.54941 11.34 11.3894 11.88L16.4994 13.26C17.6894 13.59 18.7294 13.96 19.5794 14.36C20.4494 14.77 21.2194 15.27 21.8694 15.85C22.6994 16.59 23.3494 17.44 23.7994 18.39C24.2594 19.34 24.4894 20.35 24.4894 21.41C24.4894 22.59 24.1494 23.76 23.4894 24.87C22.8294 25.98 21.9294 26.89 20.8294 27.58C19.8194 28.24 18.6494 28.71 17.3694 28.97C16.0794 29.22 14.6294 29.35 13.0394 29.35Z" fill="url(#paint0_linear_2131_25)"/>
<path d="M12.6798 1.14999C15.0698 1.19999 17.0798 1.64999 18.7198 2.48999C21.1098 3.75999 22.8698 5.75999 23.9898 8.48999L19.7198 9.52999C19.3198 8.68999 18.8798 7.96999 18.4098 7.38999C17.9398 6.80999 17.3298 6.31999 16.5798 5.91999C15.3498 5.19999 14.0298 4.83999 12.6298 4.83999C11.0198 4.83999 9.71984 5.10999 8.72984 5.65999C8.13984 5.97999 7.66984 6.40999 7.31984 6.92999C6.96984 7.44999 6.79984 7.99999 6.79984 8.56999C6.79984 9.28999 7.06984 9.91999 7.60984 10.47C8.19984 11.02 9.42984 11.56 11.3098 12.11L16.4198 13.49C17.5998 13.81 18.6098 14.17 19.4598 14.57C20.3098 14.97 21.0498 15.45 21.6898 16.02C22.4998 16.74 23.1198 17.56 23.5598 18.48C23.9998 19.4 24.2198 20.37 24.2198 21.39C24.2198 22.53 23.8998 23.65 23.2498 24.73C22.6098 25.81 21.7498 26.69 20.6698 27.36C19.6798 28.01 18.5498 28.46 17.2898 28.72C16.0298 28.98 14.6098 29.11 13.0198 29.11C8.82984 29.11 5.70984 27.88 3.63984 25.42C2.53984 24.1 1.71984 22.43 1.17984 20.39L5.44984 19.31C5.76984 20.88 6.29984 22.08 7.01984 22.93C7.65984 23.78 8.53984 24.4 9.63984 24.81C10.7398 25.22 11.9098 25.43 13.1398 25.43C14.0798 25.43 15.0198 25.32 15.9598 25.09C16.8998 24.87 17.6498 24.56 18.2098 24.16C19.2298 23.49 19.7398 22.52 19.7398 21.25C19.7398 20.31 19.3598 19.51 18.6098 18.86C17.9098 18.24 16.8498 17.73 15.4298 17.33L10.0798 15.88C7.63984 15.21 5.82984 14.39 4.64984 13.42C3.86984 12.8 3.28984 12.05 2.91984 11.16C2.53984 10.28 2.35984 9.37999 2.35984 8.45999C2.35984 7.13999 2.76984 5.91999 3.58984 4.78999C4.40984 3.65999 5.45984 2.80999 6.74984 2.23999C8.33984 1.50999 10.3098 1.14999 12.6798 1.14999ZM12.6798 0.649994C10.2498 0.649994 8.18984 1.02999 6.54984 1.77999C5.18984 2.37999 4.05984 3.29999 3.18984 4.48999C2.30984 5.69999 1.86984 7.02999 1.86984 8.44999C1.86984 9.42999 2.06984 10.41 2.46984 11.35C2.87984 12.31 3.50984 13.13 4.34984 13.8C5.56984 14.8 7.45984 15.66 9.95984 16.35L15.3198 17.8C16.6598 18.17 17.6598 18.65 18.2998 19.22C18.9498 19.78 19.2598 20.44 19.2598 21.23C19.2598 22.33 18.8298 23.14 17.9498 23.72C17.4298 24.09 16.7298 24.38 15.8498 24.58C14.9498 24.79 14.0398 24.9 13.1498 24.9C11.9798 24.9 10.8598 24.7 9.81984 24.32C8.80984 23.95 8.00984 23.37 7.41984 22.6C6.73984 21.8 6.23984 20.66 5.93984 19.18L5.83984 18.67L5.33984 18.8L1.07984 19.9L0.589844 20.02L0.719843 20.5C1.26984 22.6 2.12984 24.36 3.26984 25.72C5.42984 28.29 8.70984 29.59 13.0298 29.59C14.6398 29.59 16.1098 29.45 17.3998 29.19C18.7198 28.92 19.9098 28.44 20.9498 27.76C22.0798 27.05 22.9998 26.11 23.6798 24.97C24.3698 23.82 24.7198 22.61 24.7198 21.38C24.7198 20.29 24.4798 19.24 24.0098 18.26C23.5398 17.29 22.8698 16.41 22.0198 15.65C21.3398 15.05 20.5498 14.53 19.6698 14.12C18.7998 13.71 17.7498 13.34 16.5498 13.01L11.4398 11.63C9.20984 10.98 8.30984 10.44 7.93984 10.1C7.50984 9.65999 7.28984 9.14999 7.28984 8.55999C7.28984 8.07999 7.42984 7.63999 7.72984 7.19999C8.02984 6.74999 8.44984 6.37999 8.95984 6.08999C9.87984 5.58999 11.1098 5.32999 12.6298 5.32999C13.9298 5.32999 15.1698 5.66999 16.3298 6.33999C17.0398 6.70999 17.5998 7.16999 18.0298 7.68999C18.4698 8.23999 18.8898 8.92999 19.2798 9.73999L19.4498 10.1L19.8398 9.99999L24.1098 8.95999L24.6698 8.81999L24.4498 8.28999C23.2798 5.45999 21.4298 3.35999 18.9498 2.03999C17.2398 1.16999 15.1398 0.699994 12.6798 0.649994Z" fill="#119A39"/>
<path d="M28.0098 28.79V1.45999H46.8998V5.64999H32.7298V24.61H46.8998V28.79H28.0098Z" fill="url(#paint1_linear_2131_25)"/>
<path d="M46.65 1.70999V5.39999H32.48V24.86H46.65V28.55H28.25V1.70999H46.65ZM47.15 1.20999H46.65H28.25H27.75V1.70999V28.55V29.05H28.25H46.65H47.15V28.55V24.86V24.36H46.65H32.98V5.88999H46.65H47.15V5.38999V1.70999V1.20999Z" fill="#119A39"/>
<path d="M50.4902 28.79V1.45999H63.3802C64.4502 1.45999 65.4902 1.60999 66.4702 1.91999C68.2302 2.50999 69.6602 3.44999 70.7302 4.71999C71.4602 5.46999 72.0402 6.36999 72.4202 7.35999C72.8002 8.34999 73.0002 9.39999 73.0002 10.47C73.0002 11.39 72.8102 12.33 72.4402 13.25C72.0702 14.17 71.5502 15.02 70.8902 15.78C70.0402 16.79 68.9302 17.62 67.6102 18.23C66.2802 18.84 64.8602 19.15 63.3802 19.15H55.2102V28.8H50.4902V28.79ZM63.3802 14.95C64.0402 14.95 64.7102 14.79 65.3902 14.47C66.0702 14.15 66.6602 13.71 67.1402 13.17C67.8402 12.33 68.2002 11.42 68.2002 10.46C68.2002 9.82999 68.0802 9.21999 67.8602 8.64999C67.6302 8.08999 67.3002 7.58999 66.8702 7.16999C66.4102 6.71999 65.8602 6.34999 65.2302 6.05999C64.6102 5.77999 63.9802 5.62999 63.3802 5.62999H55.2102V14.94H63.3802V14.95Z" fill="url(#paint2_linear_2131_25)"/>
<path d="M63.3802 1.70999C64.4302 1.70999 65.4302 1.85999 66.4002 2.15999C68.1202 2.72999 69.5002 3.63999 70.5502 4.87999C71.2702 5.62999 71.8202 6.47999 72.2002 7.44999C72.5802 8.41999 72.7602 9.42999 72.7602 10.47C72.7602 11.36 72.5802 12.26 72.2202 13.15C71.8602 14.04 71.3502 14.86 70.7102 15.61C69.8802 16.6 68.8102 17.4 67.5102 18C66.2102 18.6 64.8302 18.89 63.3802 18.89H54.9702V28.54H50.7402V1.70999H63.3802ZM54.9702 15.2H63.3802C64.0802 15.2 64.7802 15.03 65.4902 14.7C66.2002 14.36 66.8102 13.91 67.3202 13.34C68.0702 12.45 68.4502 11.49 68.4502 10.47C68.4502 9.79999 68.3302 9.16999 68.0902 8.56999C67.8502 7.96999 67.5002 7.44999 67.0402 6.99999C66.5602 6.52999 65.9902 6.13999 65.3302 5.83999C64.6702 5.53999 64.0202 5.38999 63.3802 5.38999H54.9702V15.2ZM63.3802 1.20999H50.7402H50.2402V1.70999V28.55V29.05H50.7402H54.9702H55.4702V28.55V19.39H63.3902C64.9002 19.39 66.3602 19.07 67.7202 18.45C69.0802 17.83 70.2202 16.98 71.0902 15.93C71.7602 15.15 72.3002 14.28 72.6802 13.34C73.0602 12.39 73.2602 11.42 73.2602 10.47C73.2602 9.36999 73.0602 8.28999 72.6602 7.26999C72.2602 6.23999 71.6702 5.31999 70.9002 4.52999C69.8202 3.24999 68.3502 2.27999 66.5502 1.67999C65.5402 1.36999 64.4702 1.20999 63.3802 1.20999ZM55.4602 5.88999H63.3802C63.9502 5.88999 64.5402 6.02999 65.1302 6.28999C65.7302 6.55999 66.2602 6.91999 66.7002 7.34999C67.1002 7.74999 67.4202 8.21999 67.6302 8.74999C67.8502 9.27999 67.9602 9.85999 67.9602 10.46C67.9602 11.37 67.6302 12.2 66.9502 13.01C66.5002 13.52 65.9302 13.94 65.2902 14.24C64.6502 14.54 64.0102 14.7 63.3902 14.7H55.4702V5.88999H55.4602Z" fill="#119A39"/>
<path d="M82.4894 28.79V5.64999H76.7994C74.6294 5.64999 72.8594 3.87999 72.8594 1.70999V1.45999H92.8894C95.0594 1.45999 96.8294 3.22999 96.8294 5.39999V5.64999H87.2094V28.8H82.4894V28.79Z" fill="url(#paint3_linear_2131_25)"/>
<path d="M92.8894 1.70999C94.9294 1.70999 96.5794 3.35999 96.5794 5.39999H86.9594V28.55H82.7294V5.39999H76.7994C74.7594 5.39999 73.1094 3.74999 73.1094 1.70999H92.8894ZM92.8894 1.20999H73.1094H72.6094V1.70999C72.6094 4.01999 74.4894 5.89999 76.7994 5.89999H82.2394V28.55V29.05H82.7394H86.9694H87.4694V28.55V5.88999H96.5994H97.0994V5.38999C97.0794 3.08999 95.1994 1.20999 92.8894 1.20999Z" fill="#119A39"/>
<path d="M104.579 1.43999H99.8594V28.8H104.579V1.43999Z" fill="url(#paint4_linear_2131_25)"/>
<path d="M104.33 1.67999V28.54H100.1V1.67999H104.33ZM104.83 1.18999H104.33H100.1H99.5996V1.68999V28.55V29.05H100.1H104.33H104.83V28.55V1.67999V1.18999Z" fill="#119A39"/>
<path d="M140.73 1.43999H136.01V28.8H140.73V1.43999Z" fill="url(#paint5_linear_2131_25)"/>
<path d="M140.48 1.67999V28.54H136.25V1.67999H140.48ZM140.98 1.18999H140.48H136.25H135.75V1.68999V28.55V29.05H136.25H140.48H140.98V28.55V1.67999V1.18999Z" fill="#119A39"/>
<path d="M117.1 28.79L107.5 1.45999H112.38L120.25 23.85L128.21 1.45999H133.08L123.49 28.79H117.1Z" fill="url(#paint6_linear_2131_25)"/>
<path d="M132.73 1.70999L123.31 28.55H117.27L107.85 1.70999H112.2L120.25 24.6L128.38 1.70999H132.73M133.43 1.20999H132.73H128.38H128.03L127.91 1.53999L120.25 23.11L112.66 1.54999L112.54 1.21999H112.19H107.84H107.14L107.37 1.87999L116.79 28.72L116.91 29.05H117.26H123.3H123.65L123.77 28.72L133.19 1.87999L133.43 1.20999Z" fill="#119A39"/>
<path d="M153.38 28.79V5.64999H143.76V5.39999C143.76 3.22999 145.53 1.45999 147.7 1.45999H167.73V1.70999C167.73 3.87999 165.96 5.64999 163.79 5.64999H158.11V28.8H153.38V28.79Z" fill="url(#paint7_linear_2131_25)"/>
<path d="M167.47 1.70999C167.47 3.74999 165.82 5.39999 163.78 5.39999H157.85V28.55H153.62V5.39999H144C144 3.35999 145.65 1.70999 147.69 1.70999H167.47ZM167.97 1.20999H167.47H147.69C145.38 1.20999 143.5 3.08999 143.5 5.39999V5.89999H144H153.13V28.55V29.05H153.63H157.86H158.36V28.55V5.88999H163.8C166.11 5.88999 167.99 4.00999 167.99 1.69999V1.20999H167.97Z" fill="#119A39"/>
<path d="M39.8191 17.48C39.6191 17.48 39.4091 17.47 39.1991 17.44C37.3491 17.19 35.9291 17.14 35.0691 17.14C34.1691 17.14 33.6791 17.2 33.6691 17.2L33.3291 17.24L33.3991 16.9C33.6791 15.57 35.6291 13.4 38.0391 13.05C39.9791 12.77 44.0091 12.64 44.1791 12.64L44.4991 12.63L44.4191 12.95C43.7591 15.78 42.0291 17.48 39.8191 17.48Z" fill="url(#paint8_linear_2131_25)"/>
<path d="M44.1895 12.88C43.6395 15.19 42.1895 17.23 39.8195 17.23C39.6295 17.23 39.4295 17.22 39.2295 17.19C37.4195 16.95 36.0095 16.89 35.0695 16.89C34.1395 16.89 33.6395 16.95 33.6395 16.95C33.8995 15.72 35.7595 13.63 38.0795 13.29C40.0295 13 44.1895 12.88 44.1895 12.88ZM44.8295 12.37L44.1795 12.39C44.0095 12.4 39.9695 12.52 38.0095 12.8C35.4595 13.17 33.4595 15.41 33.1595 16.85L33.0195 17.53L33.7095 17.45C33.7095 17.45 34.1895 17.4 35.0795 17.4C35.9295 17.4 37.3395 17.45 39.1795 17.7C39.3995 17.73 39.6195 17.74 39.8395 17.74C42.1695 17.74 43.9895 15.97 44.6895 13.01L44.8295 12.37Z" fill="#119A39"/>
<path d="M194.85 6.03999H176.479V24.59H194.85V6.03999Z" fill="white"/>
<path d="M171.99 28.78V11.27C171.99 5.87 176.38 1.47 181.78 1.47H199.29V18.99C199.29 24.39 194.9 28.78 189.5 28.78H171.99ZM188.25 23.23V17.74H193.74V12.53H188.25V7.04H183.04V12.53H177.55V17.74H183.04V23.23H188.25V23.23Z" fill="url(#paint9_linear_2131_25)"/>
<path d="M199.05 1.72V18.99C199.05 24.26 194.78 28.54 189.5 28.54H172.23V11.27C172.23 6 176.5 1.72 181.78 1.72H199.05M177.3 17.98H182.79V23.47H188.49V17.98H193.98V12.28H188.49V6.79H182.79V12.28H177.3V17.98ZM199.55 1.22H199.05H181.78C176.24 1.22 171.74 5.73 171.74 11.26V28.53V29.03H172.24H189.51C195.05 29.03 199.55 24.52 199.55 18.99V1.72V1.22ZM183.29 7.28H188V12.28V12.78H188.5H193.5V17.49H188.5H188V17.99V22.99H183.29V17.99V17.49H182.79H177.79V12.78H182.79H183.29V12.28V7.28Z" fill="#CC1417"/>
<path d="M8.7602 48.74C8.3702 49.22 7.8902 49.6 7.3002 49.85C6.7202 50.11 6.0802 50.24 5.4002 50.24C4.7302 50.24 4.1002 50.11 3.5102 49.86C2.9302 49.61 2.4402 49.23 2.0402 48.73C1.7002 48.31 1.4502 47.83 1.2902 47.29L2.6402 46.9C2.7502 47.28 2.9102 47.61 3.1202 47.9C3.3702 48.24 3.6902 48.5 4.0902 48.68C4.4902 48.86 4.9102 48.95 5.3502 48.95C5.8302 48.95 6.2702 48.86 6.6802 48.68C7.0902 48.5 7.4202 48.24 7.6702 47.9C8.0302 47.44 8.2602 46.82 8.3402 46.04H5.0902V44.69H8.3402C8.2402 43.91 8.0202 43.29 7.6702 42.84C7.4302 42.5 7.1002 42.24 6.7002 42.06C6.2902 41.88 5.8602 41.79 5.4002 41.79C4.9402 41.79 4.5102 41.88 4.1002 42.06C3.6902 42.24 3.3602 42.5 3.1202 42.84C2.9002 43.13 2.7302 43.49 2.6002 43.94L1.2002 43.69C1.4002 43.02 1.6802 42.46 2.0402 42C2.4302 41.51 2.9202 41.13 3.5002 40.88C4.0902 40.63 4.7202 40.5 5.3902 40.5C6.0702 40.5 6.7102 40.63 7.2902 40.88C7.8702 41.13 8.3602 41.51 8.7502 42C9.4602 42.87 9.81019 44.02 9.81019 45.43C9.82019 46.76 9.4702 47.85 8.7602 48.74Z" fill="#139A39"/>
<path d="M17.0706 50.05L13.6906 45.97H12.7206V50.05H11.3506V40.72H12.7206V44.67H13.6806L16.6906 40.72H18.3906L14.9306 45.31L18.8206 50.05H17.0706V50.05Z" fill="#139A39"/>
<path d="M21.4004 49.86C20.8104 49.6 20.3304 49.22 19.9504 48.73C19.2504 47.87 18.9004 46.73 18.9004 45.31C18.9004 44.69 18.9904 44.1 19.1604 43.53C19.3304 42.97 19.6004 42.47 19.9504 42.03C20.3404 41.54 20.8304 41.16 21.4104 40.91C21.9904 40.66 22.6304 40.53 23.3104 40.53C23.9804 40.54 24.6104 40.67 25.2004 40.92C25.7904 41.18 26.2804 41.54 26.6704 42.03C27.3504 42.88 27.7004 44 27.7204 45.39C27.7004 46.77 27.3504 47.89 26.6704 48.74C26.2804 49.24 25.7904 49.62 25.2004 49.87C24.6104 50.12 23.9804 50.25 23.3104 50.25C22.6204 50.24 21.9804 50.12 21.4004 49.86ZM24.5804 48.7C24.9904 48.52 25.3204 48.26 25.5704 47.92C26.0404 47.31 26.2704 46.43 26.2704 45.3C26.2704 44.27 26.0404 43.46 25.5704 42.86C25.3304 42.52 25.0104 42.27 24.6204 42.09C24.2304 41.91 23.8104 41.82 23.3604 41.82C22.8904 41.82 22.4404 41.91 22.0304 42.08C21.6204 42.25 21.2804 42.51 21.0204 42.86C20.5704 43.44 20.3404 44.28 20.3204 45.39C20.3204 46.47 20.5504 47.31 21.0204 47.92C21.2704 48.26 21.6004 48.52 21.9904 48.7C22.3904 48.88 22.8104 48.97 23.2504 48.97C23.7204 48.96 24.1704 48.87 24.5804 48.7Z" fill="#139A39"/>
<path d="M38.9005 44.7C38.7805 45.01 38.6205 45.3 38.4105 45.55C38.1405 45.9 37.8005 46.17 37.3805 46.38C36.9605 46.59 36.5205 46.69 36.0505 46.69H33.3405V50.05H31.9805V40.72H36.0505C36.3905 40.72 36.7105 40.77 37.0205 40.88C37.5705 41.08 38.0205 41.39 38.3505 41.83C38.5805 42.09 38.7605 42.39 38.8805 42.72C39.0005 43.06 39.0605 43.41 39.0605 43.77C39.0705 44.08 39.0205 44.39 38.9005 44.7ZM37.6905 43.76C37.6905 43.53 37.6505 43.31 37.5705 43.1C37.4905 42.89 37.3805 42.71 37.2305 42.56C37.0705 42.4 36.8905 42.26 36.6805 42.16C36.4705 42.06 36.2605 42 36.0505 42H33.3405V45.41H36.0505C36.2705 45.41 36.5005 45.35 36.7305 45.24C36.9605 45.12 37.1605 44.96 37.3205 44.77C37.5705 44.45 37.6905 44.12 37.6905 43.76Z" fill="#139A39"/>
<path d="M41.6901 42V44.73H45.4801V46.01H41.6901V48.76H46.2501V50.04H40.3301V40.71H46.2501V42H41.6901Z" fill="#139A39"/>
<path d="M58.3503 40.72V50.05H48.0703V40.72H49.4303V48.77H52.5303V40.72H53.8903V48.77H57.0003V40.72H58.3503Z" fill="#139A39"/>
<path d="M61.5299 42V44.73H65.3199V46.01H61.5299V48.76H66.0899V50.04H60.1699V40.71H66.0899V42H61.5299Z" fill="#139A39"/>
<path d="M75.2804 40.72V50.05H73.9304V46.71H69.2604V50.05H67.9004V40.72H69.2604V45.43H73.9304V40.72H75.2804Z" fill="#139A39"/>
<path d="M84.4406 40.72V50.05H83.0706V43.12L78.4706 50.05H77.1006V40.72H78.4706V47.65L83.0706 40.72H84.4406Z" fill="#139A39"/>
<path d="M93.3499 50.05H91.9899V46.69H89.2999L87.6699 50.05H86.1299L87.9199 46.37C87.5199 46.17 87.1899 45.9 86.9199 45.55C86.7099 45.29 86.5499 45.01 86.4299 44.7C86.3099 44.39 86.2499 44.08 86.2499 43.77C86.2499 43.41 86.3099 43.06 86.4299 42.72C86.5499 42.38 86.7299 42.08 86.9599 41.83C87.2999 41.4 87.7399 41.08 88.2999 40.88C88.6099 40.78 88.9399 40.72 89.2699 40.72H93.3399V50.05H93.3499ZM91.9899 42H89.2799C89.0699 42 88.8599 42.05 88.6499 42.16C88.4399 42.26 88.2599 42.4 88.0999 42.56C87.9499 42.71 87.8399 42.9 87.7599 43.1C87.6799 43.31 87.6399 43.53 87.6399 43.76C87.6399 44.11 87.7599 44.45 87.9999 44.76C88.1599 44.96 88.3599 45.12 88.5899 45.23C88.8199 45.35 89.0499 45.4 89.2699 45.4H91.9799V42H91.9899Z" fill="#139A39"/>
<path d="M106.33 48.77V51.18H105.03V50.05H98.6999V51.18H97.4199V48.77C97.8299 48.77 98.1599 48.56 98.4199 48.13C98.6799 47.7 98.8599 47.07 98.9499 46.23L99.5899 40.72H105.64V48.77H106.33V48.77ZM104.36 42H100.74L100.22 46.38C100.15 46.96 100.06 47.44 99.9399 47.83C99.8199 48.21 99.6499 48.53 99.4199 48.77H104.36V42Z" fill="#139A39"/>
<path d="M115.42 50.05H114.07V42H110.56L109.94 47.25C109.83 48.17 109.59 48.86 109.23 49.34C108.87 49.82 108.32 50.06 107.58 50.06C107.43 50.06 107.32 50.06 107.24 50.05V48.83C107.71 48.82 108.06 48.67 108.27 48.36C108.48 48.06 108.62 47.59 108.69 46.97L109.44 40.71H115.41V50.05H115.42Z" fill="#139A39"/>
<path d="M124.33 50.05H122.97V46.69H120.29L118.66 50.05H117.12L118.91 46.37C118.51 46.17 118.18 45.9 117.91 45.55C117.7 45.29 117.54 45.01 117.42 44.7C117.3 44.39 117.24 44.08 117.24 43.77C117.24 43.41 117.3 43.06 117.42 42.72C117.54 42.38 117.72 42.08 117.95 41.83C118.29 41.4 118.73 41.08 119.29 40.88C119.6 40.78 119.93 40.72 120.26 40.72H124.33V50.05ZM122.97 42H120.26C120.05 42 119.84 42.05 119.63 42.16C119.42 42.26 119.24 42.4 119.08 42.56C118.93 42.71 118.82 42.9 118.74 43.1C118.66 43.31 118.62 43.53 118.62 43.76C118.62 44.11 118.74 44.45 118.98 44.76C119.14 44.96 119.34 45.12 119.57 45.23C119.8 45.35 120.03 45.4 120.25 45.4H122.96V42H122.97Z" fill="#139A39"/>
<path d="M137.31 48.77V51.18H136.01V50.05H129.68V51.18H128.4V48.77C128.81 48.77 129.14 48.56 129.4 48.13C129.66 47.7 129.84 47.07 129.93 46.23L130.57 40.72H136.62V48.77H137.31V48.77ZM135.34 42H131.72L131.2 46.38C131.13 46.96 131.04 47.44 130.92 47.83C130.8 48.21 130.63 48.53 130.4 48.77H135.34V42V42Z" fill="#139A39"/>
<path d="M141.07 49.86C140.48 49.6 140 49.22 139.62 48.73C138.92 47.87 138.57 46.73 138.57 45.31C138.57 44.69 138.66 44.1 138.83 43.53C139 42.97 139.27 42.47 139.62 42.03C140.01 41.54 140.5 41.16 141.08 40.91C141.66 40.66 142.3 40.53 142.98 40.53C143.65 40.54 144.28 40.67 144.87 40.92C145.46 41.18 145.95 41.54 146.34 42.03C147.02 42.88 147.37 44 147.39 45.39C147.37 46.77 147.02 47.89 146.34 48.74C145.95 49.24 145.46 49.62 144.87 49.87C144.28 50.12 143.65 50.25 142.98 50.25C142.3 50.24 141.66 50.12 141.07 49.86ZM144.25 48.7C144.66 48.52 144.99 48.26 145.24 47.92C145.71 47.31 145.94 46.43 145.94 45.3C145.94 44.27 145.71 43.46 145.24 42.86C145 42.52 144.68 42.27 144.29 42.09C143.9 41.91 143.48 41.82 143.03 41.82C142.56 41.82 142.11 41.91 141.7 42.08C141.29 42.25 140.95 42.51 140.69 42.86C140.24 43.44 140.01 44.28 139.99 45.39C139.99 46.47 140.22 47.31 140.69 47.92C140.94 48.26 141.27 48.52 141.66 48.7C142.06 48.88 142.48 48.97 142.92 48.97C143.4 48.96 143.84 48.87 144.25 48.7Z" fill="#139A39"/>
<path d="M158.3 50.05H156.93V43.66L153.91 50.05H153.3L150.28 43.67V50.05H148.91V40.72H150.27L153.62 47.75L156.94 40.72H158.31V50.05H158.3Z" fill="#139A39"/>
<path d="M165.53 48.39H161.41L160.87 50.05H159.47L162.5 40.72H164.44L167.47 50.05H166.07L165.53 48.39ZM165.11 47.12L163.45 42.09L161.82 47.12H165.11Z" fill="#139A39"/>
<defs>
<linearGradient id="paint0_linear_2131_25" x1="12.6874" y1="-3.0767" x2="12.6874" y2="21.3064" gradientUnits="userSpaceOnUse">
<stop offset="0.0105" stop-color="#AED6B0"/>
<stop offset="1" stop-color="#139A39"/>
</linearGradient>
<linearGradient id="paint1_linear_2131_25" x1="37.4524" y1="-3.41391" x2="37.4524" y2="20.5969" gradientUnits="userSpaceOnUse">
<stop offset="0.0105" stop-color="#AED6B0"/>
<stop offset="1" stop-color="#139A39"/>
</linearGradient>
<linearGradient id="paint2_linear_2131_25" x1="61.7517" y1="-4.04831" x2="61.7517" y2="20.2782" gradientUnits="userSpaceOnUse">
<stop offset="0.0105" stop-color="#AED6B0"/>
<stop offset="1" stop-color="#139A39"/>
</linearGradient>
<linearGradient id="paint3_linear_2131_25" x1="84.8475" y1="-4.59051" x2="84.8475" y2="19.5207" gradientUnits="userSpaceOnUse">
<stop offset="0.0105" stop-color="#AED6B0"/>
<stop offset="1" stop-color="#139A39"/>
</linearGradient>
<linearGradient id="paint4_linear_2131_25" x1="102.218" y1="-22.0855" x2="102.218" y2="14.2086" gradientUnits="userSpaceOnUse">
<stop offset="0.0105" stop-color="#AED6B0"/>
<stop offset="1" stop-color="#139A39"/>
</linearGradient>
<linearGradient id="paint5_linear_2131_25" x1="138.368" y1="-23.482" x2="138.368" y2="12.812" gradientUnits="userSpaceOnUse">
<stop offset="0.0105" stop-color="#AED6B0"/>
<stop offset="1" stop-color="#139A39"/>
</linearGradient>
<linearGradient id="paint6_linear_2131_25" x1="120.294" y1="-5.45361" x2="120.294" y2="18.622" gradientUnits="userSpaceOnUse">
<stop offset="0.0105" stop-color="#AED6B0"/>
<stop offset="1" stop-color="#139A39"/>
</linearGradient>
<linearGradient id="paint7_linear_2131_25" x1="155.739" y1="-6.37261" x2="155.739" y2="17.7386" gradientUnits="userSpaceOnUse">
<stop offset="0.0105" stop-color="#AED6B0"/>
<stop offset="1" stop-color="#139A39"/>
</linearGradient>
<linearGradient id="paint8_linear_2131_25" x1="38.9195" y1="-7.11551" x2="38.9195" y2="21.6776" gradientUnits="userSpaceOnUse">
<stop offset="0.0105" stop-color="#AED6B0"/>
<stop offset="1" stop-color="#139A39"/>
</linearGradient>
<linearGradient id="paint9_linear_2131_25" x1="193.285" y1="6.1925" x2="172.756" y2="30.2073" gradientUnits="userSpaceOnUse">
<stop offset="0.0105" stop-color="#E94547"/>
<stop offset="1" stop-color="#CC1417"/>
</linearGradient>
</defs>
</svg>
