<svg width="187" height="38" viewBox="0 0 187 38" fill="none" xmlns="http://www.w3.org/2000/svg">
<g clip-path="url(#clip0_96_466)">
<path d="M7.36912 15.2119H6.01573C5.66606 16.3984 5.48474 17.6557 5.48474 18.9582C5.48474 20.3639 5.69843 21.7115 6.09344 22.9883L7.14895 21.9372C6.90935 20.9829 6.77984 19.9835 6.77984 18.9582C6.77984 17.6493 6.98706 16.3919 7.36912 15.2119Z" fill="#FEFEFE"/>
<path d="M10.0046 8.86704H12.1027C14.0842 7.5065 16.4866 6.70695 19.0833 6.70695C22.0297 6.70695 24.7429 7.74508 26.8604 9.46671L27.7799 8.55109C25.4228 6.59088 22.3923 5.41089 19.0833 5.41089C15.593 5.41089 12.4135 6.71984 10.0046 8.86704Z" fill="#FEFEFE"/>
<path d="M29.2564 27.9403C31.3868 25.5481 32.682 22.4015 32.682 18.9582C32.682 15.6826 31.5164 12.6778 29.5737 10.3372L28.6477 11.2592C30.3572 13.3613 31.3804 16.0437 31.3804 18.9582C31.3804 21.5052 30.5968 23.8781 29.2564 25.8383V27.9403Z" fill="#FEFEFE"/>
<path d="M22.8975 31.9574V30.6033C21.693 30.9966 20.4109 31.2094 19.0834 31.2094C18.0797 31.2094 17.1148 31.0869 16.1823 30.8612L15.1268 31.9187C16.3766 32.2991 17.7041 32.499 19.0834 32.499C20.4044 32.499 21.6865 32.312 22.8975 31.9574Z" fill="#FEFEFE"/>
<path d="M26.187 10.1373H6.68921C9.46073 6.30072 13.9742 3.80532 19.0834 3.80532C22.8392 3.80532 26.2777 5.15941 28.9391 7.40333L31.6459 4.70805C28.2851 1.78064 23.8947 0.000976562 19.0834 0.000976562C7.56341 0.000976562 0 9.46671 0 19.0034C0 22.2467 1.01018 27.4568 4.72065 31.5126C4.72713 31.5126 4.72713 31.5126 4.72713 31.5126L26.187 10.1373ZM5.04443 24.9678C4.25442 23.1366 3.82056 21.1248 3.82056 19.0034C3.82056 17.2302 4.12491 15.5214 4.68827 13.9416H16.9853L5.3164 25.561C5.21927 25.3676 5.12861 25.1677 5.04443 24.9678Z" fill="#FEFEFE"/>
<path d="M33.4331 6.48755L30.7264 9.18283C32.9799 11.833 34.3462 15.2569 34.3462 19.0032C34.3462 24.0907 31.8337 28.585 27.9872 31.3448V11.9297L6.50793 33.305C6.50793 33.305 10.2767 36.8901 16.0917 37.7735C21.175 38.5472 26.336 37.3414 30.3378 34.3496C34.9614 30.887 38.1603 25.4899 38.1603 19.0032C38.1603 14.2123 36.373 9.83408 33.4331 6.48755ZM24.1731 33.3372C23.6875 33.5049 21.0908 34.3496 18.3776 34.1884C14.8225 33.982 12.7309 32.8343 12.5172 32.7311L24.1731 21.1182V33.3372Z" fill="#FEFEFE"/>
<path d="M143.86 13.7417H138.09C137.967 13.7417 137.87 13.8384 137.87 13.9609V15.7277C137.87 15.8502 137.967 15.9469 138.09 15.9469H143.86C143.977 15.9469 144.08 15.8502 144.08 15.7277V13.9609C144.08 13.8384 143.977 13.7417 143.86 13.7417Z" fill="#FEFEFE"/>
<path d="M96.3428 8.21582H94.5686C94.4455 8.21582 94.3484 8.31254 94.3484 8.43505V13.5161H87.698V8.43505C87.698 8.31254 87.5944 8.21582 87.4714 8.21582H85.6971C85.5741 8.21582 85.4769 8.31254 85.4769 8.43505V21.2473C85.4769 21.3698 85.5741 21.4666 85.6971 21.4666H87.4714C87.5944 21.4666 87.698 21.3698 87.698 21.2473V15.7278H94.3484V21.2473C94.3484 21.3698 94.4455 21.4666 94.5686 21.4666H96.3428C96.4659 21.4666 96.563 21.3698 96.563 21.2473V8.43505C96.563 8.31254 96.4659 8.21582 96.3428 8.21582Z" fill="#FEFEFE"/>
<path d="M59.0827 8.21582H53.7598C53.6368 8.21582 53.5397 8.31254 53.5397 8.43505V21.2473C53.5397 21.3698 53.6368 21.4666 53.7598 21.4666H55.5341C55.6572 21.4666 55.7608 21.3698 55.7608 21.2473V10.6467C55.7608 10.5242 55.8579 10.4275 55.9809 10.4275H59.0827C59.2058 10.4275 59.3094 10.3243 59.3094 10.2018V8.43505C59.3094 8.31254 59.2058 8.21582 59.0827 8.21582Z" fill="#FEFEFE"/>
<path d="M52.4323 8.21582H45.3222C45.1992 8.21582 45.1474 8.30609 45.2121 8.40926L46.3194 10.2341C46.3777 10.3372 46.5267 10.4275 46.6562 10.4275H50.2112C50.3343 10.4275 50.4379 10.5242 50.4379 10.6467V21.2473C50.4379 21.3698 50.535 21.4666 50.658 21.4666H52.4323C52.5554 21.4666 52.6525 21.3698 52.6525 21.2473V8.43505C52.6525 8.31254 52.5554 8.21582 52.4323 8.21582Z" fill="#FEFEFE"/>
<path d="M130.041 8.21582H124.718C124.595 8.21582 124.498 8.31254 124.498 8.43505V10.2018C124.498 10.3243 124.595 10.4275 124.718 10.4275H127.827C127.95 10.4275 128.047 10.5242 128.047 10.6467V21.2473C128.047 21.3698 128.144 21.4666 128.267 21.4666H130.041C130.164 21.4666 130.261 21.3698 130.261 21.2473V8.43505C130.261 8.31254 130.164 8.21582 130.041 8.21582Z" fill="#FEFEFE"/>
<path d="M138.479 8.21582H131.369C131.246 8.21582 131.149 8.31254 131.149 8.43505V21.2473C131.149 21.3698 131.246 21.4666 131.369 21.4666H133.143C133.266 21.4666 133.37 21.3698 133.37 21.2473V10.6467C133.37 10.5242 133.467 10.4275 133.59 10.4275H137.151C137.274 10.4275 137.423 10.3372 137.488 10.2341L138.589 8.40926C138.654 8.30609 138.602 8.21582 138.479 8.21582Z" fill="#FEFEFE"/>
<path d="M122.497 8.21582H120.73H120.723H120.503L113.853 17.933V8.43505C113.853 8.31254 113.755 8.21582 113.632 8.21582H111.858C111.735 8.21582 111.631 8.31254 111.631 8.43505V21.2473C111.631 21.3698 111.735 21.4666 111.858 21.4666H112.965H113.853L120.503 12.1943V21.2473C120.503 21.3698 120.607 21.4666 120.73 21.4666H122.497C122.62 21.4666 122.724 21.3698 122.724 21.2473V8.43505C122.724 8.31254 122.62 8.21582 122.497 8.21582Z" fill="#FEFEFE"/>
<path d="M163.423 7.00351C163.423 7.00351 164.549 7.77728 166.79 7.77728C169.315 7.77728 170.164 7.00351 170.164 7.00351C170.274 6.95838 170.319 6.82942 170.254 6.72625L169.723 5.26899C169.665 5.15937 169.523 5.11424 169.412 5.16582C169.412 5.16582 168.195 5.65587 166.79 5.65587C165.417 5.65587 164.174 5.16582 164.174 5.16582C164.064 5.11424 163.921 5.15937 163.863 5.26899L163.325 6.72625C163.267 6.82942 163.306 6.95838 163.423 7.00351Z" fill="#FEFEFE"/>
<path d="M172.113 8.21582H170.339H170.118L163.468 17.933V8.43505C163.468 8.31254 163.364 8.21582 163.241 8.21582H161.467C161.351 8.21582 161.247 8.31254 161.247 8.43505V21.2473C161.247 21.3698 161.351 21.4666 161.467 21.4666H162.581H163.468L170.118 12.1943V21.2473C170.118 21.3698 170.222 21.4666 170.339 21.4666H172.113C172.236 21.4666 172.339 21.3698 172.339 21.2473V8.43505C172.339 8.31254 172.236 8.21582 172.113 8.21582Z" fill="#FEFEFE"/>
<path d="M109.417 11.9299C109.417 10.0858 107.947 8.1062 104.295 8.1062C101.705 8.1062 100.455 8.6156 98.946 9.28619C98.9201 9.29909 98.8618 9.34423 98.8424 9.41515C98.81 9.51832 98.8359 9.5957 98.8359 9.5957L99.3216 10.924C99.3216 10.924 99.3863 11.1303 99.5223 11.1755C99.6453 11.2206 99.8461 11.1239 99.9367 11.0916C101.245 10.6145 102.397 10.3179 104.107 10.3179C106.03 10.3179 107.215 10.8402 107.215 11.8719C107.215 13.0776 106.6 13.5161 104.334 13.5161H104.295H100.992H100.746C100.623 13.5161 100.526 13.6193 100.526 13.7418V15.5086C100.526 15.6246 100.623 15.7278 100.746 15.7278H100.992H104.295H104.334C106.574 15.7278 107.228 16.4242 107.215 17.63C107.202 18.8809 106.03 19.3709 104.107 19.3709C102.352 19.3709 100.811 18.8809 99.5741 18.2103C99.5158 18.178 99.3928 18.1136 99.2568 18.1587C99.1338 18.1974 99.0625 18.3973 99.0625 18.3973L98.4862 19.6804C98.4862 19.6804 98.402 19.861 98.4344 19.9899C98.4603 20.106 98.5898 20.1705 98.6416 20.2027C99.8461 20.9507 101.31 21.5762 104.295 21.5762C107.947 21.5762 109.417 19.5966 109.417 17.7525C109.417 16.7143 109.093 15.5215 108.109 14.6639C109.035 13.9352 109.417 12.9229 109.417 11.9299Z" fill="#FEFEFE"/>
<path d="M72.1697 12.4135C72.1632 10.7628 71.7358 8.21582 67.0476 8.21582H61.9643H61.3038C61.1808 8.21582 61.0836 8.31899 61.0836 8.4415V21.2473C61.0836 21.3698 61.1808 21.4666 61.3038 21.4666H63.0781C63.2011 21.4666 63.2982 21.3698 63.2982 21.2473V17.0496H67.0476C71.7358 17.0496 72.1762 14.1351 72.1697 12.4135ZM67.0864 14.8444C66.0309 14.8444 64.4315 14.8444 63.2982 14.8444V10.4275C64.4315 10.4275 66.0309 10.4275 67.0864 10.4275C69.7414 10.4275 69.9227 11.672 69.9551 12.6327C69.981 13.658 69.7414 14.8444 67.0864 14.8444Z" fill="#FEFEFE"/>
<path d="M78.6906 8.42216C78.6517 8.33189 78.5481 8.25451 78.4445 8.22872C78.4251 8.22227 78.4056 8.21582 78.3797 8.21582H76.6054C76.5795 8.21582 76.5601 8.22227 76.5407 8.22872C76.4371 8.25451 76.3335 8.33189 76.2946 8.42216L70.9264 21.2667C70.8746 21.3763 70.9394 21.4666 71.0624 21.4666H72.8367C72.9533 21.4666 73.0957 21.3763 73.141 21.2667L73.9829 19.2613H81.0023L81.8441 21.2667C81.8895 21.3763 82.0254 21.4666 82.1485 21.4666H83.9228C84.0458 21.4666 84.1106 21.3763 84.0588 21.2667L78.6906 8.42216ZM74.9024 17.0496L77.4926 10.866L80.0828 17.0496H74.9024Z" fill="#FEFEFE"/>
<path d="M152.952 8.1062C151.074 8.1062 149.397 8.74456 148.231 9.90521C147.001 11.1239 146.295 12.9229 146.295 14.8444C146.295 16.7595 147.001 18.5585 148.231 19.7772C149.397 20.9378 151.074 21.5762 152.952 21.5762C154.823 21.5762 156.5 20.9378 157.672 19.7772C158.903 18.5585 159.602 16.7595 159.602 14.8444C159.602 12.9229 158.903 11.1239 157.672 9.90521C156.5 8.74456 154.823 8.1062 152.952 8.1062ZM156.157 18.2812C155.393 19.0356 154.253 19.4612 152.952 19.4612C151.65 19.4612 150.51 19.0356 149.746 18.2812C148.924 17.4688 148.438 16.1856 148.438 14.8444C148.438 13.5032 148.924 12.2136 149.746 11.4076C150.51 10.6467 151.65 10.2276 152.952 10.2276C154.253 10.2276 155.393 10.6467 156.157 11.4076C156.98 12.2136 157.465 13.5032 157.465 14.8444C157.465 16.1856 156.98 17.4688 156.157 18.2812Z" fill="#FEFEFE"/>
<path d="M186.987 21.2667L181.612 8.42216C181.574 8.33189 181.47 8.25451 181.366 8.22872C181.347 8.22227 181.328 8.21582 181.302 8.21582H179.527C179.508 8.21582 179.482 8.22227 179.469 8.22872C179.365 8.25451 179.262 8.33189 179.223 8.42216L173.848 21.2667C173.803 21.3763 173.861 21.4666 173.984 21.4666H175.759C175.882 21.4666 176.018 21.3763 176.069 21.2667L180.415 10.866L184.766 21.2667C184.811 21.3763 184.954 21.4666 185.077 21.4666H186.845C186.968 21.4666 187.032 21.3763 186.987 21.2667Z" fill="#FEFEFE"/>
<path d="M50.4185 32.8537V31.4545H50.7876C50.8588 31.3061 50.9365 31.1192 51.0207 30.8999C51.1049 30.6742 51.1761 30.4099 51.2473 30.1133C51.3121 29.8102 51.3704 29.4685 51.4157 29.0945C51.461 28.714 51.4869 28.2949 51.4869 27.8371H53.844V31.4545H54.3556V32.8537H53.6433V32.0541H51.1308V32.8537H50.4185ZM53.1317 28.4368H52.1539C52.1345 28.7979 52.1021 29.1332 52.0568 29.4427C52.005 29.7522 51.9532 30.0359 51.8884 30.2874C51.8301 30.5388 51.7589 30.7645 51.6941 30.958C51.6229 31.1578 51.5581 31.319 51.4999 31.448H53.1317V28.4368ZM54.9707 32.0541V27.8371H55.6442V31.0482L57.3214 27.8371H58.2344V32.0541H57.561V28.6689L55.7867 32.0541H54.9707ZM62.6054 31.3384C62.5277 31.448 62.45 31.5576 62.3528 31.6543C62.2622 31.7511 62.1521 31.8413 62.0226 31.9123C61.8995 31.9832 61.7506 32.0412 61.5887 32.0799C61.4204 32.125 61.2261 32.1444 60.9995 32.1444C60.3519 32.1444 59.8727 31.9638 59.5619 31.5963C59.2446 31.2288 59.0892 30.6807 59.0892 29.9456C59.0892 29.2105 59.2446 28.656 59.5619 28.2949C59.8727 27.9274 60.3454 27.7468 60.9735 27.7468C61.1872 27.7468 61.375 27.7662 61.5434 27.8049C61.7053 27.8435 61.8542 27.9016 61.9773 27.9725C62.1068 28.037 62.2168 28.1208 62.3075 28.2175C62.3982 28.3078 62.4759 28.411 62.5406 28.5206L61.9708 28.9333C61.9254 28.8623 61.8736 28.7979 61.8218 28.7269C61.7636 28.6624 61.6988 28.6044 61.6211 28.5528C61.5499 28.5012 61.4592 28.4561 61.3556 28.4239C61.2455 28.3916 61.1225 28.3787 60.98 28.3787C60.585 28.3787 60.2936 28.5077 60.1058 28.7721C59.918 29.0364 59.8274 29.4233 59.8274 29.9456C59.8274 30.2229 59.8533 30.4615 59.9051 30.6613C59.9504 30.8548 60.0281 31.016 60.1253 31.1449C60.2224 31.2739 60.3454 31.3642 60.4879 31.4287C60.6368 31.4867 60.7987 31.5125 60.9865 31.5125C61.129 31.5125 61.252 31.4996 61.3621 31.4673C61.4657 31.4351 61.5563 31.3964 61.6405 31.3448C61.7182 31.2932 61.7895 31.2288 61.8542 31.1643C61.9125 31.0934 61.9708 31.016 62.0226 30.9386L62.6054 31.3384ZM64.9948 28.4819V32.0541H64.2761V28.4819H62.9227V27.8371H66.3482V28.4819H64.9948ZM69.9033 29.217C69.9033 29.4749 69.8709 29.6941 69.8191 29.8747C69.7608 30.0617 69.6637 30.21 69.5407 30.3325C69.4176 30.455 69.2622 30.5388 69.0679 30.6033C68.8737 30.6613 68.647 30.6871 68.3751 30.6871H67.6887V32.0541H66.9764V27.8371H68.401C68.6406 27.8371 68.8543 27.8629 69.042 27.908C69.2298 27.9596 69.3852 28.037 69.5148 28.1466C69.6378 28.2627 69.7349 28.4045 69.8062 28.5786C69.8709 28.7527 69.9033 28.9655 69.9033 29.217ZM69.1586 29.2234C69.1586 29.0751 69.1392 28.9462 69.0938 28.8494C69.055 28.7527 68.9902 28.6753 68.9125 28.6173C68.8348 28.5593 68.7377 28.5206 68.6211 28.4948C68.4981 28.4755 68.3686 28.4626 68.2132 28.4626H67.6887V30.0617H68.1355C68.3168 30.0617 68.4722 30.0488 68.6017 30.0294C68.7312 30.0101 68.8348 29.9714 68.919 29.9198C69.0032 29.8618 69.0615 29.778 69.1003 29.6683C69.1392 29.5587 69.1586 29.4104 69.1586 29.2234ZM70.6803 32.0541V27.8371H71.3538V31.0482L73.031 27.8371H73.944V32.0541H73.2706V28.6689L71.4963 32.0541H70.6803ZM75.673 29.5329H76.3594C76.6508 29.5329 76.9033 29.5587 77.117 29.6168C77.3307 29.6683 77.4991 29.7457 77.6415 29.8553C77.7775 29.9585 77.8746 30.0939 77.9394 30.2551C78.0042 30.4099 78.043 30.5969 78.043 30.8032C78.043 31.0418 77.9977 31.2417 77.92 31.4029C77.8423 31.5576 77.7257 31.6866 77.5832 31.7833C77.4408 31.88 77.2659 31.951 77.0587 31.9961C76.858 32.0348 76.6313 32.0541 76.3853 32.0541H74.9607V27.8371H77.7451V28.4303H75.673V29.5329ZM77.3048 30.7903C77.3048 30.642 77.2789 30.5324 77.2271 30.4421C77.1818 30.3583 77.1105 30.2938 77.0264 30.2422C76.9357 30.1971 76.8256 30.1648 76.7026 30.1519C76.5795 30.1326 76.4371 30.1262 76.2752 30.1262H75.673V31.4545H76.2493C76.3982 31.4545 76.5407 31.448 76.6702 31.4287C76.7932 31.4158 76.9098 31.3835 77.0005 31.3384C77.0976 31.2868 77.1688 31.2223 77.2206 31.132C77.2724 31.0418 77.3048 30.9322 77.3048 30.7903ZM80.303 30.1262L81.2872 27.8371H82.0319L80.4584 31.3384C80.3807 31.506 80.303 31.6414 80.2253 31.7446C80.1476 31.8478 80.0569 31.9316 79.9662 31.9896C79.8691 32.0541 79.772 32.0928 79.6619 32.1122C79.5583 32.1379 79.4417 32.1444 79.3122 32.1444C79.2669 32.1444 79.2086 32.1444 79.1374 32.1315C79.0726 32.125 79.0014 32.1122 78.9302 32.0993C78.8654 32.0864 78.7942 32.0735 78.7294 32.0541C78.6582 32.0412 78.6064 32.0219 78.5546 32.0025L78.7683 31.4287C78.8136 31.4545 78.8589 31.4673 78.9107 31.4867C78.9625 31.4996 79.0143 31.5125 79.0597 31.5254C79.1115 31.5383 79.1568 31.5447 79.2021 31.5512C79.241 31.5512 79.2798 31.5576 79.3057 31.5576C79.3575 31.5576 79.4093 31.5512 79.4611 31.5383C79.513 31.5189 79.5648 31.4931 79.6101 31.4545C79.6619 31.4222 79.7072 31.3706 79.7525 31.3061C79.7979 31.2352 79.8367 31.1578 79.8756 31.0547L79.9274 30.9128L78.4769 27.8371H79.2475L80.303 30.1262ZM82.6147 32.0541V27.8371H83.3335V31.4093H85.0301V27.8371H85.7489V31.4222H86.254V32.8537H85.5481V32.0541H82.6147ZM86.8756 32.0541V27.8371H87.5426V31.0482L89.2262 27.8371H90.1393V32.0541H89.4658V28.6689L87.6915 32.0541H86.8756ZM90.7803 32.0541L91.9265 30.3003C91.797 30.2745 91.6804 30.2358 91.5768 30.1777C91.4668 30.1197 91.3696 30.0423 91.2919 29.9392C91.2142 29.8424 91.1559 29.7199 91.1106 29.5716C91.0653 29.4298 91.0394 29.2557 91.0394 29.0558C91.0394 28.8365 91.0717 28.6431 91.1365 28.4884C91.2013 28.3336 91.2919 28.2046 91.4214 28.1079C91.5509 28.0176 91.7063 27.9467 91.9006 27.9016C92.0884 27.8564 92.3086 27.8371 92.5676 27.8371H93.9987V32.0541H93.2799V30.397H92.6906L91.6092 32.0541H90.7803ZM91.7776 29.0945C91.7776 29.2234 91.7905 29.3266 91.8164 29.4104C91.8423 29.5007 91.8877 29.5652 91.9524 29.6168C92.0172 29.6748 92.1014 29.7135 92.205 29.7328C92.315 29.7586 92.451 29.7715 92.6064 29.7715H93.2799V28.4561H92.5741C92.4316 28.4561 92.3086 28.469 92.2114 28.4884C92.1078 28.5077 92.0301 28.5399 91.9654 28.5915C91.9006 28.6431 91.8553 28.7076 91.8229 28.785C91.7905 28.8688 91.7776 28.972 91.7776 29.0945ZM96.6148 32.0541V27.8371H97.2818V31.0482L98.9654 27.8371H99.872V32.0541H99.205V28.6689L97.4242 32.0541H96.6148ZM103.913 28.4368V28.7398C103.913 29.2686 103.887 29.7457 103.835 30.1648C103.783 30.584 103.705 30.9386 103.595 31.2288C103.492 31.5189 103.356 31.7446 103.194 31.8994C103.026 32.0541 102.831 32.1315 102.611 32.1315C102.482 32.1315 102.372 32.1186 102.274 32.0928C102.177 32.067 102.093 32.0412 102.028 32.009L102.223 31.4416C102.274 31.4673 102.32 31.4802 102.359 31.4867C102.404 31.4931 102.436 31.4931 102.462 31.4931C102.592 31.4931 102.702 31.4351 102.799 31.319C102.896 31.1965 102.974 31.016 103.032 30.7774C103.09 30.5324 103.136 30.2293 103.168 29.8618C103.194 29.4942 103.213 29.0558 103.213 28.5593V27.8371H105.745V32.0541H105.026V28.4368H103.913ZM110.123 29.9456C110.123 30.2938 110.09 30.6033 110.019 30.8741C109.954 31.1449 109.851 31.3706 109.708 31.5641C109.559 31.7511 109.378 31.8994 109.151 31.9961C108.931 32.0928 108.659 32.1444 108.342 32.1444C108.031 32.1444 107.759 32.0928 107.539 31.9961C107.312 31.8994 107.131 31.7511 106.989 31.5641C106.84 31.3706 106.736 31.1449 106.671 30.8741C106.6 30.6033 106.568 30.2938 106.568 29.9456C106.568 29.6039 106.6 29.2944 106.671 29.0171C106.736 28.7463 106.84 28.5141 106.989 28.3271C107.131 28.1402 107.312 27.9983 107.539 27.8951C107.759 27.7984 108.031 27.7468 108.342 27.7468C108.659 27.7468 108.931 27.7984 109.151 27.8951C109.378 27.9919 109.559 28.1337 109.708 28.3271C109.851 28.5141 109.954 28.7398 110.019 29.0171C110.09 29.2879 110.123 29.5974 110.123 29.9456ZM109.372 29.9456C109.372 29.6812 109.352 29.4556 109.32 29.2557C109.281 29.0622 109.223 28.901 109.138 28.7721C109.061 28.6367 108.951 28.5399 108.821 28.4755C108.692 28.411 108.53 28.3787 108.342 28.3787C108.154 28.3787 107.992 28.411 107.863 28.4755C107.733 28.5399 107.623 28.6367 107.539 28.7721C107.461 28.901 107.403 29.0622 107.364 29.2557C107.325 29.4556 107.306 29.6812 107.306 29.9456C107.306 30.21 107.325 30.4357 107.364 30.6355C107.403 30.829 107.461 30.9902 107.545 31.1256C107.623 31.2546 107.733 31.3513 107.863 31.4158C107.999 31.4802 108.154 31.5125 108.342 31.5125C108.53 31.5125 108.692 31.4802 108.821 31.4158C108.951 31.3513 109.061 31.2546 109.138 31.1256C109.223 30.9966 109.281 30.8354 109.32 30.6355C109.352 30.4421 109.372 30.21 109.372 29.9456ZM111.619 28.4368V32.0541H110.906V27.8371H113.568V28.4368H111.619ZM114.202 32.0541V27.8371H114.876V31.0482L116.553 27.8371H117.466V32.0541H116.792V28.6689L115.018 32.0541H114.202ZM121.837 31.3384C121.759 31.448 121.682 31.5576 121.584 31.6543C121.494 31.7511 121.384 31.8413 121.254 31.9123C121.131 31.9832 120.982 32.0412 120.82 32.0799C120.652 32.125 120.458 32.1444 120.231 32.1444C119.583 32.1444 119.104 31.9638 118.793 31.5963C118.476 31.2288 118.321 30.6807 118.321 29.9456C118.321 29.2105 118.476 28.656 118.793 28.2949C119.104 27.9274 119.577 27.7468 120.205 27.7468C120.419 27.7468 120.607 27.7662 120.775 27.8049C120.937 27.8435 121.086 27.9016 121.209 27.9725C121.338 28.037 121.442 28.1208 121.539 28.2175C121.63 28.3078 121.707 28.411 121.772 28.5206L121.202 28.9333C121.157 28.8623 121.105 28.7979 121.053 28.7269C120.995 28.6624 120.93 28.6044 120.853 28.5528C120.781 28.5012 120.691 28.4561 120.587 28.4239C120.477 28.3916 120.354 28.3787 120.212 28.3787C119.817 28.3787 119.525 28.5077 119.337 28.7721C119.15 29.0364 119.059 29.4233 119.059 29.9456C119.059 30.2229 119.085 30.4615 119.137 30.6613C119.182 30.8548 119.26 31.016 119.357 31.1449C119.454 31.2739 119.577 31.3642 119.719 31.4287C119.868 31.4867 120.03 31.5125 120.218 31.5125C120.361 31.5125 120.484 31.4996 120.594 31.4673C120.697 31.4351 120.788 31.3964 120.872 31.3448C120.95 31.2932 121.021 31.2288 121.086 31.1643C121.144 31.0934 121.202 31.016 121.254 30.9386L121.837 31.3384ZM124.226 28.4819V32.0541H123.508V28.4819H122.154V27.8371H125.58V28.4819H124.226ZM126.208 32.0541V27.8371H126.875V31.0482L128.559 27.8371H129.465V32.0541H128.798V28.6689L127.024 32.0541H126.208ZM131.201 27.8371V29.6103H131.783C131.874 29.6103 131.952 29.591 132.029 29.5394C132.107 29.4878 132.178 29.3975 132.256 29.2686C132.334 29.1332 132.411 28.9526 132.489 28.7269C132.567 28.4948 132.651 28.1982 132.735 27.8371H133.48C133.396 28.1982 133.312 28.4948 133.227 28.7398C133.143 28.9849 133.059 29.1847 132.975 29.3395C132.884 29.4942 132.8 29.6168 132.709 29.7006C132.619 29.7844 132.534 29.8489 132.444 29.894C132.612 29.9714 132.748 30.0681 132.865 30.1842C132.975 30.3003 133.072 30.4421 133.156 30.6162C133.24 30.7903 133.312 30.9966 133.383 31.2288C133.448 31.4673 133.525 31.7446 133.603 32.0541H132.858C132.774 31.7511 132.703 31.4867 132.632 31.2546C132.567 31.0289 132.489 30.8354 132.411 30.6871C132.334 30.5324 132.237 30.4163 132.127 30.3389C132.023 30.268 131.887 30.2293 131.725 30.2293H131.201V32.0541H130.488V27.8371H131.201ZM133.849 32.0541L135.274 27.8371H136.2L137.631 32.0541H136.893L136.569 31.0805H134.885L134.561 32.0541H133.849ZM135.092 30.4486H136.355L135.72 28.5464L135.092 30.4486ZM139.47 32.0541L140.894 27.8371H141.82L143.251 32.0541H142.513L142.189 31.0805H140.506L140.182 32.0541H139.47ZM140.713 30.4486H141.976L141.348 28.5464L140.713 30.4486ZM147.001 30.829C147.001 31.0418 146.962 31.2223 146.891 31.3771C146.819 31.5318 146.709 31.6608 146.567 31.764C146.431 31.8607 146.256 31.9381 146.055 31.9832C145.855 32.0348 145.621 32.0541 145.369 32.0541H143.88V27.8371H145.252C145.531 27.8371 145.757 27.8564 145.952 27.8951C146.14 27.9338 146.295 27.9919 146.412 28.0692C146.528 28.1531 146.619 28.2562 146.671 28.3723C146.722 28.4948 146.748 28.6431 146.748 28.8108C146.748 28.9591 146.729 29.088 146.69 29.1976C146.651 29.3073 146.606 29.404 146.535 29.4749C146.47 29.5523 146.399 29.6168 146.308 29.6619C146.217 29.707 146.127 29.7457 146.023 29.7715C146.172 29.7844 146.301 29.8231 146.424 29.8682C146.541 29.9198 146.645 29.9843 146.729 30.0681C146.819 30.1519 146.884 30.2551 146.93 30.3841C146.975 30.5066 147.001 30.6549 147.001 30.829ZM146.023 28.9655C146.023 28.8688 146.004 28.7914 145.978 28.7269C145.945 28.6624 145.9 28.6109 145.835 28.5657C145.77 28.527 145.686 28.5012 145.583 28.4819C145.479 28.469 145.35 28.4561 145.201 28.4561H144.598V29.5394H145.175C145.337 29.5394 145.466 29.5265 145.576 29.5071C145.68 29.4813 145.77 29.4427 145.835 29.3975C145.9 29.3459 145.945 29.2879 145.978 29.217C146.004 29.1461 146.023 29.0622 146.023 28.9655ZM146.256 30.7774C146.256 30.6484 146.237 30.5517 146.198 30.4743C146.159 30.3905 146.101 30.326 146.017 30.2809C145.939 30.2358 145.829 30.2035 145.706 30.1906C145.576 30.1713 145.421 30.1648 145.246 30.1648H144.598V31.4222H145.103C145.291 31.4222 145.453 31.4158 145.596 31.4029C145.738 31.39 145.861 31.3577 145.958 31.3126C146.055 31.2739 146.133 31.2094 146.185 31.1192C146.23 31.0353 146.256 30.9193 146.256 30.7774ZM149.332 28.4819V32.0541H148.62V28.4819H147.266V27.8371H150.692V28.4819H149.332ZM154.499 29.9456C154.499 30.2938 154.467 30.6033 154.402 30.8741C154.331 31.1449 154.227 31.3706 154.085 31.5641C153.943 31.7511 153.755 31.8994 153.528 31.9961C153.308 32.0928 153.036 32.1444 152.725 32.1444C152.408 32.1444 152.142 32.0928 151.916 31.9961C151.689 31.8994 151.508 31.7511 151.365 31.5641C151.223 31.3706 151.113 31.1449 151.048 30.8741C150.977 30.6033 150.944 30.2938 150.944 29.9456C150.944 29.6039 150.977 29.2944 151.048 29.0171C151.113 28.7463 151.223 28.5141 151.365 28.3271C151.508 28.1402 151.689 27.9983 151.916 27.8951C152.142 27.7984 152.408 27.7468 152.725 27.7468C153.036 27.7468 153.308 27.7984 153.528 27.8951C153.755 27.9919 153.943 28.1337 154.085 28.3271C154.227 28.5141 154.331 28.7398 154.402 29.0171C154.467 29.2879 154.499 29.5974 154.499 29.9456ZM153.755 29.9456C153.755 29.6812 153.735 29.4556 153.696 29.2557C153.658 29.0622 153.599 28.901 153.522 28.7721C153.437 28.6367 153.334 28.5399 153.198 28.4755C153.068 28.411 152.913 28.3787 152.725 28.3787C152.531 28.3787 152.375 28.411 152.239 28.4755C152.11 28.5399 152 28.6367 151.922 28.7721C151.838 28.901 151.78 29.0622 151.741 29.2557C151.708 29.4556 151.689 29.6812 151.689 29.9456C151.689 30.21 151.708 30.4357 151.741 30.6355C151.78 30.829 151.838 30.9902 151.922 31.1256C152.006 31.2546 152.11 31.3513 152.246 31.4158C152.375 31.4802 152.537 31.5125 152.725 31.5125C152.913 31.5125 153.068 31.4802 153.198 31.4158C153.334 31.3513 153.437 31.2546 153.522 31.1256C153.599 30.9966 153.658 30.8354 153.696 30.6355C153.735 30.4421 153.755 30.21 153.755 29.9456ZM156.824 28.4819V32.0541H156.105V28.4819H154.752V27.8371H158.178V28.4819H156.824ZM161.985 29.9456C161.985 30.2938 161.953 30.6033 161.888 30.8741C161.823 31.1449 161.713 31.3706 161.571 31.5641C161.428 31.7511 161.24 31.8994 161.02 31.9961C160.794 32.0928 160.522 32.1444 160.211 32.1444C159.894 32.1444 159.628 32.0928 159.401 31.9961C159.181 31.8994 158.993 31.7511 158.851 31.5641C158.709 31.3706 158.598 31.1449 158.534 30.8741C158.469 30.6033 158.43 30.2938 158.43 29.9456C158.43 29.6039 158.469 29.2944 158.534 29.0171C158.598 28.7463 158.709 28.5141 158.851 28.3271C158.993 28.1402 159.181 27.9983 159.401 27.8951C159.628 27.7984 159.894 27.7468 160.211 27.7468C160.522 27.7468 160.794 27.7984 161.02 27.8951C161.24 27.9919 161.428 28.1337 161.571 28.3271C161.713 28.5141 161.823 28.7398 161.888 29.0171C161.953 29.2879 161.985 29.5974 161.985 29.9456ZM161.24 29.9456C161.24 29.6812 161.221 29.4556 161.182 29.2557C161.15 29.0622 161.085 28.901 161.007 28.7721C160.923 28.6367 160.82 28.5399 160.69 28.4755C160.554 28.411 160.399 28.3787 160.211 28.3787C160.017 28.3787 159.861 28.411 159.725 28.4755C159.596 28.5399 159.492 28.6367 159.408 28.7721C159.324 28.901 159.265 29.0622 159.227 29.2557C159.194 29.4556 159.175 29.6812 159.175 29.9456C159.175 30.21 159.194 30.4357 159.227 30.6355C159.265 30.829 159.324 30.9902 159.408 31.1256C159.492 31.2546 159.602 31.3513 159.732 31.4158C159.861 31.4802 160.023 31.5125 160.211 31.5125C160.399 31.5125 160.554 31.4802 160.69 31.4158C160.82 31.3513 160.923 31.2546 161.007 31.1256C161.085 30.9966 161.15 30.8354 161.182 30.6355C161.221 30.4421 161.24 30.21 161.24 29.9456ZM165.929 30.829C165.929 31.0418 165.89 31.2223 165.812 31.3771C165.741 31.5318 165.637 31.6608 165.495 31.764C165.352 31.8607 165.184 31.9381 164.983 31.9832C164.783 32.0348 164.549 32.0541 164.29 32.0541H162.808V27.8371H164.18C164.452 27.8371 164.685 27.8564 164.873 27.8951C165.067 27.9338 165.216 27.9919 165.339 28.0692C165.456 28.1531 165.54 28.2562 165.592 28.3723C165.65 28.4948 165.676 28.6431 165.676 28.8108C165.676 28.9591 165.657 29.088 165.618 29.1976C165.579 29.3073 165.527 29.404 165.462 29.4749C165.398 29.5523 165.32 29.6168 165.236 29.6619C165.145 29.707 165.055 29.7457 164.951 29.7715C165.093 29.7844 165.229 29.8231 165.346 29.8682C165.469 29.9198 165.573 29.9843 165.657 30.0681C165.741 30.1519 165.806 30.2551 165.857 30.3841C165.903 30.5066 165.929 30.6549 165.929 30.829ZM164.944 28.9655C164.944 28.8688 164.931 28.7914 164.899 28.7269C164.873 28.6624 164.828 28.6109 164.763 28.5657C164.698 28.527 164.614 28.5012 164.511 28.4819C164.407 28.469 164.277 28.4561 164.122 28.4561H163.52V29.5394H164.103C164.258 29.5394 164.394 29.5265 164.498 29.5071C164.608 29.4813 164.692 29.4427 164.763 29.3975C164.828 29.3459 164.873 29.2879 164.899 29.217C164.931 29.1461 164.944 29.0622 164.944 28.9655ZM165.184 30.7774C165.184 30.6484 165.165 30.5517 165.126 30.4743C165.087 30.3905 165.029 30.326 164.944 30.2809C164.86 30.2358 164.757 30.2035 164.627 30.1906C164.498 30.1713 164.349 30.1648 164.174 30.1648H163.52V31.4222H164.031C164.213 31.4222 164.381 31.4158 164.524 31.4029C164.666 31.39 164.789 31.3577 164.886 31.3126C164.983 31.2739 165.055 31.2094 165.106 31.1192C165.158 31.0353 165.184 30.9193 165.184 30.7774ZM166.35 32.0541L167.774 27.8371H168.707L170.131 32.0541H169.393L169.069 31.0805H167.386L167.068 32.0541H166.35ZM167.593 30.4486H168.856L168.228 28.5464L167.593 30.4486ZM173.693 29.217C173.693 29.4749 173.66 29.6941 173.602 29.8747C173.544 30.0617 173.453 30.21 173.33 30.3325C173.207 30.455 173.052 30.5388 172.858 30.6033C172.663 30.6613 172.43 30.6871 172.165 30.6871H171.478V32.0541H170.766V27.8371H172.191C172.43 27.8371 172.644 27.8629 172.832 27.908C173.013 27.9596 173.175 28.037 173.304 28.1466C173.427 28.2627 173.524 28.4045 173.589 28.5786C173.66 28.7527 173.693 28.9655 173.693 29.217ZM172.948 29.2234C172.948 29.0751 172.929 28.9462 172.883 28.8494C172.845 28.7527 172.78 28.6753 172.702 28.6173C172.624 28.5593 172.521 28.5206 172.404 28.4948C172.288 28.4755 172.152 28.4626 172.003 28.4626H171.478V30.0617H171.925C172.106 30.0617 172.255 30.0488 172.391 30.0294C172.521 30.0101 172.624 29.9714 172.709 29.9198C172.786 29.8618 172.851 29.778 172.89 29.6683C172.929 29.5587 172.948 29.4104 172.948 29.2234ZM177.824 29.9456C177.824 30.2938 177.792 30.6033 177.727 30.8741C177.662 31.1449 177.559 31.3706 177.41 31.5641C177.267 31.7511 177.086 31.8994 176.859 31.9961C176.633 32.0928 176.367 32.1444 176.05 32.1444C175.733 32.1444 175.467 32.0928 175.241 31.9961C175.02 31.8994 174.833 31.7511 174.69 31.5641C174.548 31.3706 174.444 31.1449 174.373 30.8741C174.308 30.6033 174.276 30.2938 174.276 29.9456C174.276 29.6039 174.308 29.2944 174.373 29.0171C174.444 28.7463 174.548 28.5141 174.69 28.3271C174.833 28.1402 175.02 27.9983 175.241 27.8951C175.467 27.7984 175.733 27.7468 176.05 27.7468C176.367 27.7468 176.633 27.7984 176.859 27.8951C177.086 27.9919 177.267 28.1337 177.41 28.3271C177.559 28.5141 177.662 28.7398 177.727 29.0171C177.792 29.2879 177.824 29.5974 177.824 29.9456ZM177.08 29.9456C177.08 29.6812 177.06 29.4556 177.028 29.2557C176.989 29.0622 176.931 28.901 176.846 28.7721C176.769 28.6367 176.659 28.5399 176.529 28.4755C176.4 28.411 176.238 28.3787 176.05 28.3787C175.862 28.3787 175.7 28.411 175.571 28.4755C175.435 28.5399 175.331 28.6367 175.247 28.7721C175.163 28.901 175.105 29.0622 175.072 29.2557C175.033 29.4556 175.014 29.6812 175.014 29.9456C175.014 30.21 175.033 30.4357 175.072 30.6355C175.105 30.829 175.169 30.9902 175.247 31.1256C175.331 31.2546 175.441 31.3513 175.571 31.4158C175.7 31.4802 175.862 31.5125 176.05 31.5125C176.238 31.5125 176.4 31.4802 176.529 31.4158C176.659 31.3513 176.769 31.2546 176.846 31.1256C176.931 30.9966 176.989 30.8354 177.028 30.6355C177.06 30.4421 177.08 30.21 177.08 29.9456ZM181.768 30.829C181.768 31.0418 181.729 31.2223 181.658 31.3771C181.58 31.5318 181.476 31.6608 181.334 31.764C181.198 31.8607 181.023 31.9381 180.822 31.9832C180.622 32.0348 180.389 32.0541 180.136 32.0541H178.647V27.8371H180.019C180.291 27.8371 180.525 27.8564 180.719 27.8951C180.907 27.9338 181.062 27.9919 181.179 28.0692C181.295 28.1531 181.386 28.2562 181.438 28.3723C181.489 28.4948 181.515 28.6431 181.515 28.8108C181.515 28.9591 181.496 29.088 181.457 29.1976C181.418 29.3073 181.366 29.404 181.302 29.4749C181.237 29.5523 181.159 29.6168 181.075 29.6619C180.984 29.707 180.894 29.7457 180.79 29.7715C180.939 29.7844 181.068 29.8231 181.191 29.8682C181.308 29.9198 181.412 29.9843 181.496 30.0681C181.58 30.1519 181.651 30.2551 181.697 30.3841C181.742 30.5066 181.768 30.6549 181.768 30.829ZM180.784 28.9655C180.784 28.8688 180.771 28.7914 180.745 28.7269C180.712 28.6624 180.667 28.6109 180.602 28.5657C180.537 28.527 180.453 28.5012 180.35 28.4819C180.246 28.469 180.117 28.4561 179.968 28.4561H179.359V29.5394H179.942C180.097 29.5394 180.233 29.5265 180.343 29.5071C180.447 29.4813 180.537 29.4427 180.602 29.3975C180.667 29.3459 180.712 29.2879 180.745 29.217C180.771 29.1461 180.784 29.0622 180.784 28.9655ZM181.023 30.7774C181.023 30.6484 181.004 30.5517 180.965 30.4743C180.926 30.3905 180.868 30.326 180.784 30.2809C180.699 30.2358 180.596 30.2035 180.466 30.1906C180.343 30.1713 180.188 30.1648 180.013 30.1648H179.359V31.4222H179.87C180.058 31.4222 180.22 31.4158 180.363 31.4029C180.505 31.39 180.628 31.3577 180.725 31.3126C180.822 31.2739 180.9 31.2094 180.952 31.1192C180.997 31.0353 181.023 30.9193 181.023 30.7774Z" fill="#FEFEFE"/>
</g>
<defs>
<clipPath id="clip0_96_466">
<rect width="187" height="38" fill="white"/>
</clipPath>
</defs>
</svg>
