<svg width="187" height="38" viewBox="0 0 187 38" fill="none" xmlns="http://www.w3.org/2000/svg">
<g clip-path="url(#clip0_77_247)">
<path d="M7.36876 15.2119H6.01537C5.6657 16.3984 5.48438 17.6557 5.48438 18.9582C5.48438 20.3639 5.69807 21.7115 6.09308 22.9883L7.14859 21.9372C6.90899 20.9829 6.77948 19.9835 6.77948 18.9582C6.77948 17.6493 6.9867 16.3919 7.36876 15.2119Z" fill="#212121"/>
<path d="M10.0049 8.86704H12.103C14.0845 7.5065 16.4869 6.70695 19.0836 6.70695C22.03 6.70695 24.7432 7.74508 26.8607 9.46671L27.7802 8.55109C25.4231 6.59088 22.3926 5.41089 19.0836 5.41089C15.5933 5.41089 12.4138 6.71984 10.0049 8.86704Z" fill="#212121"/>
<path d="M29.2562 27.9403C31.3866 25.5481 32.6818 22.4015 32.6818 18.9582C32.6818 15.6826 31.5162 12.6778 29.5735 10.3372L28.6475 11.2592C30.357 13.3613 31.3802 16.0437 31.3802 18.9582C31.3802 21.5052 30.5966 23.8781 29.2562 25.8383V27.9403Z" fill="#212121"/>
<path d="M22.8977 31.9574V30.6033C21.6932 30.9966 20.4111 31.2094 19.0836 31.2094C18.0799 31.2094 17.115 31.0869 16.1825 30.8612L15.127 31.9187C16.3768 32.2991 17.7043 32.499 19.0836 32.499C20.4046 32.499 21.6867 32.312 22.8977 31.9574Z" fill="#212121"/>
<path d="M26.187 10.1373H6.68921C9.46073 6.30072 13.9742 3.80532 19.0834 3.80532C22.8392 3.80532 26.2777 5.15941 28.9391 7.40333L31.6459 4.70805C28.2851 1.78064 23.8947 0.000976562 19.0834 0.000976562C7.56341 0.000976562 0 9.46671 0 19.0034C0 22.2467 1.01018 27.4568 4.72065 31.5126C4.72713 31.5126 4.72713 31.5126 4.72713 31.5126L26.187 10.1373ZM5.04443 24.9678C4.25442 23.1366 3.82056 21.1248 3.82056 19.0034C3.82056 17.2302 4.12491 15.5214 4.68827 13.9416H16.9853L5.3164 25.561C5.21927 25.3676 5.12861 25.1677 5.04443 24.9678Z" fill="#212121"/>
<path d="M33.433 6.48755L30.7263 9.18283C32.9798 11.833 34.3461 15.2569 34.3461 19.0032C34.3461 24.0907 31.8336 28.585 27.9871 31.3448V11.9297L6.50781 33.305C6.50781 33.305 10.2766 36.8901 16.0916 37.7735C21.1749 38.5472 26.3359 37.3414 30.3377 34.3496C34.9613 30.887 38.1602 25.4899 38.1602 19.0032C38.1602 14.2123 36.3729 9.83408 33.433 6.48755ZM24.173 33.3372C23.6874 33.5049 21.0907 34.3496 18.3775 34.1884C14.8224 33.982 12.7308 32.8343 12.5171 32.7311L24.173 21.1182V33.3372Z" fill="#212121"/>
<path d="M143.86 13.7417H138.09C137.967 13.7417 137.87 13.8384 137.87 13.9609V15.7277C137.87 15.8502 137.967 15.9469 138.09 15.9469H143.86C143.977 15.9469 144.08 15.8502 144.08 15.7277V13.9609C144.08 13.8384 143.977 13.7417 143.86 13.7417Z" fill="#212121"/>
<path d="M96.3425 8.21582H94.5683C94.4452 8.21582 94.3481 8.31254 94.3481 8.43505V13.5161H87.6977V8.43505C87.6977 8.31254 87.5941 8.21582 87.4711 8.21582H85.6968C85.5738 8.21582 85.4766 8.31254 85.4766 8.43505V21.2473C85.4766 21.3698 85.5738 21.4666 85.6968 21.4666H87.4711C87.5941 21.4666 87.6977 21.3698 87.6977 21.2473V15.7278H94.3481V21.2473C94.3481 21.3698 94.4452 21.4666 94.5683 21.4666H96.3425C96.4656 21.4666 96.5627 21.3698 96.5627 21.2473V8.43505C96.5627 8.31254 96.4656 8.21582 96.3425 8.21582Z" fill="#212121"/>
<path d="M59.083 8.21582H53.7601C53.6371 8.21582 53.54 8.31254 53.54 8.43505V21.2473C53.54 21.3698 53.6371 21.4666 53.7601 21.4666H55.5344C55.6575 21.4666 55.7611 21.3698 55.7611 21.2473V10.6467C55.7611 10.5242 55.8582 10.4275 55.9812 10.4275H59.083C59.2061 10.4275 59.3097 10.3243 59.3097 10.2018V8.43505C59.3097 8.31254 59.2061 8.21582 59.083 8.21582Z" fill="#212121"/>
<path d="M52.4328 8.21582H45.3227C45.1997 8.21582 45.1479 8.30609 45.2126 8.40926L46.3199 10.2341C46.3782 10.3372 46.5272 10.4275 46.6567 10.4275H50.2117C50.3348 10.4275 50.4384 10.5242 50.4384 10.6467V21.2473C50.4384 21.3698 50.5355 21.4666 50.6585 21.4666H52.4328C52.5559 21.4666 52.653 21.3698 52.653 21.2473V8.43505C52.653 8.31254 52.5559 8.21582 52.4328 8.21582Z" fill="#212121"/>
<path d="M130.041 8.21582H124.718C124.595 8.21582 124.498 8.31254 124.498 8.43505V10.2018C124.498 10.3243 124.595 10.4275 124.718 10.4275H127.827C127.95 10.4275 128.047 10.5242 128.047 10.6467V21.2473C128.047 21.3698 128.144 21.4666 128.267 21.4666H130.041C130.164 21.4666 130.261 21.3698 130.261 21.2473V8.43505C130.261 8.31254 130.164 8.21582 130.041 8.21582Z" fill="#212121"/>
<path d="M138.479 8.21582H131.369C131.246 8.21582 131.149 8.31254 131.149 8.43505V21.2473C131.149 21.3698 131.246 21.4666 131.369 21.4666H133.143C133.266 21.4666 133.37 21.3698 133.37 21.2473V10.6467C133.37 10.5242 133.467 10.4275 133.59 10.4275H137.151C137.274 10.4275 137.423 10.3372 137.488 10.2341L138.589 8.40926C138.654 8.30609 138.602 8.21582 138.479 8.21582Z" fill="#212121"/>
<path d="M122.497 8.21582H120.73H120.723H120.503L113.853 17.933V8.43505C113.853 8.31254 113.755 8.21582 113.632 8.21582H111.858C111.735 8.21582 111.631 8.31254 111.631 8.43505V21.2473C111.631 21.3698 111.735 21.4666 111.858 21.4666H112.965H113.853L120.503 12.1943V21.2473C120.503 21.3698 120.607 21.4666 120.73 21.4666H122.497C122.62 21.4666 122.724 21.3698 122.724 21.2473V8.43505C122.724 8.31254 122.62 8.21582 122.497 8.21582Z" fill="#212121"/>
<path d="M163.423 7.00351C163.423 7.00351 164.549 7.77728 166.79 7.77728C169.315 7.77728 170.164 7.00351 170.164 7.00351C170.274 6.95838 170.319 6.82942 170.254 6.72625L169.723 5.26899C169.665 5.15937 169.523 5.11424 169.412 5.16582C169.412 5.16582 168.195 5.65587 166.79 5.65587C165.417 5.65587 164.174 5.16582 164.174 5.16582C164.064 5.11424 163.921 5.15937 163.863 5.26899L163.325 6.72625C163.267 6.82942 163.306 6.95838 163.423 7.00351Z" fill="#212121"/>
<path d="M172.113 8.21582H170.339H170.118L163.468 17.933V8.43505C163.468 8.31254 163.364 8.21582 163.241 8.21582H161.467C161.351 8.21582 161.247 8.31254 161.247 8.43505V21.2473C161.247 21.3698 161.351 21.4666 161.467 21.4666H162.581H163.468L170.118 12.1943V21.2473C170.118 21.3698 170.222 21.4666 170.339 21.4666H172.113C172.236 21.4666 172.339 21.3698 172.339 21.2473V8.43505C172.339 8.31254 172.236 8.21582 172.113 8.21582Z" fill="#212121"/>
<path d="M109.417 11.9299C109.417 10.0858 107.947 8.1062 104.295 8.1062C101.705 8.1062 100.455 8.6156 98.9458 9.28619C98.9199 9.29909 98.8616 9.34423 98.8422 9.41515C98.8098 9.51832 98.8357 9.5957 98.8357 9.5957L99.3214 10.924C99.3214 10.924 99.3861 11.1303 99.5221 11.1755C99.6451 11.2206 99.8459 11.1239 99.9365 11.0916C101.245 10.6145 102.397 10.3179 104.107 10.3179C106.03 10.3179 107.215 10.8402 107.215 11.8719C107.215 13.0776 106.6 13.5161 104.334 13.5161H104.295H100.992H100.746C100.623 13.5161 100.526 13.6193 100.526 13.7418V15.5086C100.526 15.6246 100.623 15.7278 100.746 15.7278H100.992H104.295H104.334C106.574 15.7278 107.228 16.4242 107.215 17.63C107.202 18.8809 106.03 19.3709 104.107 19.3709C102.352 19.3709 100.811 18.8809 99.5739 18.2103C99.5156 18.178 99.3926 18.1136 99.2566 18.1587C99.1336 18.1974 99.0623 18.3973 99.0623 18.3973L98.486 19.6804C98.486 19.6804 98.4018 19.861 98.4342 19.9899C98.4601 20.106 98.5896 20.1705 98.6414 20.2027C99.8459 20.9507 101.31 21.5762 104.295 21.5762C107.947 21.5762 109.417 19.5966 109.417 17.7525C109.417 16.7143 109.093 15.5215 108.109 14.6639C109.035 13.9352 109.417 12.9229 109.417 11.9299Z" fill="#212121"/>
<path d="M72.1701 12.4135C72.1636 10.7628 71.7362 8.21582 67.048 8.21582H61.9647H61.3042C61.1812 8.21582 61.084 8.31899 61.084 8.4415V21.2473C61.084 21.3698 61.1812 21.4666 61.3042 21.4666H63.0785C63.2015 21.4666 63.2986 21.3698 63.2986 21.2473V17.0496H67.048C71.7362 17.0496 72.1766 14.1351 72.1701 12.4135ZM67.0868 14.8444C66.0313 14.8444 64.4319 14.8444 63.2986 14.8444V10.4275C64.4319 10.4275 66.0313 10.4275 67.0868 10.4275C69.7418 10.4275 69.9231 11.672 69.9555 12.6327C69.9814 13.658 69.7418 14.8444 67.0868 14.8444Z" fill="#212121"/>
<path d="M78.6904 8.42216C78.6515 8.33189 78.5479 8.25451 78.4443 8.22872C78.4249 8.22227 78.4054 8.21582 78.3795 8.21582H76.6052C76.5793 8.21582 76.5599 8.22227 76.5405 8.22872C76.4369 8.25451 76.3333 8.33189 76.2944 8.42216L70.9262 21.2667C70.8744 21.3763 70.9392 21.4666 71.0622 21.4666H72.8365C72.9531 21.4666 73.0955 21.3763 73.1408 21.2667L73.9827 19.2613H81.0021L81.8439 21.2667C81.8893 21.3763 82.0252 21.4666 82.1483 21.4666H83.9226C84.0456 21.4666 84.1104 21.3763 84.0586 21.2667L78.6904 8.42216ZM74.9022 17.0496L77.4924 10.866L80.0826 17.0496H74.9022Z" fill="#212121"/>
<path d="M152.952 8.1062C151.074 8.1062 149.397 8.74456 148.231 9.90521C147.001 11.1239 146.295 12.9229 146.295 14.8444C146.295 16.7595 147.001 18.5585 148.231 19.7772C149.397 20.9378 151.074 21.5762 152.952 21.5762C154.823 21.5762 156.5 20.9378 157.672 19.7772C158.903 18.5585 159.602 16.7595 159.602 14.8444C159.602 12.9229 158.903 11.1239 157.672 9.90521C156.5 8.74456 154.823 8.1062 152.952 8.1062ZM156.157 18.2812C155.393 19.0356 154.253 19.4612 152.952 19.4612C151.65 19.4612 150.51 19.0356 149.746 18.2812C148.924 17.4688 148.438 16.1856 148.438 14.8444C148.438 13.5032 148.924 12.2136 149.746 11.4076C150.51 10.6467 151.65 10.2276 152.952 10.2276C154.253 10.2276 155.393 10.6467 156.157 11.4076C156.98 12.2136 157.465 13.5032 157.465 14.8444C157.465 16.1856 156.98 17.4688 156.157 18.2812Z" fill="#212121"/>
<path d="M186.987 21.2667L181.612 8.42216C181.574 8.33189 181.47 8.25451 181.366 8.22872C181.347 8.22227 181.328 8.21582 181.302 8.21582H179.527C179.508 8.21582 179.482 8.22227 179.469 8.22872C179.365 8.25451 179.262 8.33189 179.223 8.42216L173.848 21.2667C173.803 21.3763 173.861 21.4666 173.984 21.4666H175.759C175.882 21.4666 176.018 21.3763 176.069 21.2667L180.415 10.866L184.766 21.2667C184.811 21.3763 184.954 21.4666 185.077 21.4666H186.845C186.968 21.4666 187.032 21.3763 186.987 21.2667Z" fill="#212121"/>
<path d="M50.4189 32.8537V31.4545H50.788C50.8592 31.3061 50.9369 31.1192 51.0211 30.8999C51.1053 30.6742 51.1765 30.4099 51.2477 30.1133C51.3125 29.8102 51.3708 29.4685 51.4161 29.0945C51.4614 28.714 51.4873 28.2949 51.4873 27.8371H53.8444V31.4545H54.356V32.8537H53.6437V32.0541H51.1312V32.8537H50.4189ZM53.1321 28.4368H52.1543C52.1349 28.7979 52.1025 29.1332 52.0572 29.4427C52.0054 29.7522 51.9536 30.0359 51.8888 30.2874C51.8305 30.5388 51.7593 30.7645 51.6945 30.958C51.6233 31.1578 51.5585 31.319 51.5003 31.448H53.1321V28.4368ZM54.9711 32.0541V27.8371H55.6446V31.0482L57.3218 27.8371H58.2348V32.0541H57.5614V28.6689L55.7871 32.0541H54.9711ZM62.6058 31.3384C62.5281 31.448 62.4504 31.5576 62.3532 31.6543C62.2626 31.7511 62.1525 31.8413 62.023 31.9123C61.8999 31.9832 61.751 32.0412 61.5891 32.0799C61.4208 32.125 61.2265 32.1444 60.9999 32.1444C60.3523 32.1444 59.8731 31.9638 59.5623 31.5963C59.245 31.2288 59.0896 30.6807 59.0896 29.9456C59.0896 29.2105 59.245 28.656 59.5623 28.2949C59.8731 27.9274 60.3458 27.7468 60.9739 27.7468C61.1876 27.7468 61.3754 27.7662 61.5438 27.8049C61.7057 27.8435 61.8546 27.9016 61.9777 27.9725C62.1072 28.037 62.2172 28.1208 62.3079 28.2175C62.3986 28.3078 62.4763 28.411 62.541 28.5206L61.9712 28.9333C61.9258 28.8623 61.874 28.7979 61.8222 28.7269C61.764 28.6624 61.6992 28.6044 61.6215 28.5528C61.5503 28.5012 61.4596 28.4561 61.356 28.4239C61.2459 28.3916 61.1229 28.3787 60.9804 28.3787C60.5854 28.3787 60.294 28.5077 60.1062 28.7721C59.9184 29.0364 59.8278 29.4233 59.8278 29.9456C59.8278 30.2229 59.8537 30.4615 59.9055 30.6613C59.9508 30.8548 60.0285 31.016 60.1257 31.1449C60.2228 31.2739 60.3458 31.3642 60.4883 31.4287C60.6372 31.4867 60.7991 31.5125 60.9869 31.5125C61.1294 31.5125 61.2524 31.4996 61.3625 31.4673C61.4661 31.4351 61.5567 31.3964 61.6409 31.3448C61.7186 31.2932 61.7899 31.2288 61.8546 31.1643C61.9129 31.0934 61.9712 31.016 62.023 30.9386L62.6058 31.3384ZM64.9952 28.4819V32.0541H64.2765V28.4819H62.9231V27.8371H66.3486V28.4819H64.9952ZM69.9037 29.217C69.9037 29.4749 69.8713 29.6941 69.8195 29.8747C69.7612 30.0617 69.6641 30.21 69.5411 30.3325C69.418 30.455 69.2626 30.5388 69.0683 30.6033C68.8741 30.6613 68.6474 30.6871 68.3755 30.6871H67.6891V32.0541H66.9768V27.8371H68.4014C68.641 27.8371 68.8547 27.8629 69.0424 27.908C69.2302 27.9596 69.3856 28.037 69.5152 28.1466C69.6382 28.2627 69.7353 28.4045 69.8066 28.5786C69.8713 28.7527 69.9037 28.9655 69.9037 29.217ZM69.159 29.2234C69.159 29.0751 69.1396 28.9462 69.0942 28.8494C69.0554 28.7527 68.9906 28.6753 68.9129 28.6173C68.8352 28.5593 68.7381 28.5206 68.6215 28.4948C68.4985 28.4755 68.369 28.4626 68.2136 28.4626H67.6891V30.0617H68.1359C68.3172 30.0617 68.4726 30.0488 68.6021 30.0294C68.7316 30.0101 68.8352 29.9714 68.9194 29.9198C69.0036 29.8618 69.0619 29.778 69.1007 29.6683C69.1396 29.5587 69.159 29.4104 69.159 29.2234ZM70.6807 32.0541V27.8371H71.3542V31.0482L73.0314 27.8371H73.9444V32.0541H73.271V28.6689L71.4967 32.0541H70.6807ZM75.6734 29.5329H76.3598C76.6512 29.5329 76.9037 29.5587 77.1174 29.6168C77.3311 29.6683 77.4995 29.7457 77.6419 29.8553C77.7779 29.9585 77.875 30.0939 77.9398 30.2551C78.0046 30.4099 78.0434 30.5969 78.0434 30.8032C78.0434 31.0418 77.9981 31.2417 77.9204 31.4029C77.8427 31.5576 77.7261 31.6866 77.5836 31.7833C77.4412 31.88 77.2663 31.951 77.0591 31.9961C76.8584 32.0348 76.6317 32.0541 76.3857 32.0541H74.9611V27.8371H77.7455V28.4303H75.6734V29.5329ZM77.3052 30.7903C77.3052 30.642 77.2793 30.5324 77.2275 30.4421C77.1822 30.3583 77.1109 30.2938 77.0268 30.2422C76.9361 30.1971 76.826 30.1648 76.703 30.1519C76.5799 30.1326 76.4375 30.1262 76.2756 30.1262H75.6734V31.4545H76.2497C76.3986 31.4545 76.5411 31.448 76.6706 31.4287C76.7936 31.4158 76.9102 31.3835 77.0009 31.3384C77.098 31.2868 77.1692 31.2223 77.221 31.132C77.2728 31.0418 77.3052 30.9322 77.3052 30.7903ZM80.3034 30.1262L81.2876 27.8371H82.0323L80.4588 31.3384C80.3811 31.506 80.3034 31.6414 80.2257 31.7446C80.148 31.8478 80.0573 31.9316 79.9666 31.9896C79.8695 32.0541 79.7724 32.0928 79.6623 32.1122C79.5587 32.1379 79.4421 32.1444 79.3126 32.1444C79.2673 32.1444 79.209 32.1444 79.1378 32.1315C79.073 32.125 79.0018 32.1122 78.9306 32.0993C78.8658 32.0864 78.7946 32.0735 78.7298 32.0541C78.6586 32.0412 78.6068 32.0219 78.555 32.0025L78.7687 31.4287C78.814 31.4545 78.8593 31.4673 78.9111 31.4867C78.9629 31.4996 79.0147 31.5125 79.0601 31.5254C79.1119 31.5383 79.1572 31.5447 79.2025 31.5512C79.2414 31.5512 79.2802 31.5576 79.3061 31.5576C79.3579 31.5576 79.4097 31.5512 79.4615 31.5383C79.5134 31.5189 79.5652 31.4931 79.6105 31.4545C79.6623 31.4222 79.7076 31.3706 79.7529 31.3061C79.7983 31.2352 79.8371 31.1578 79.876 31.0547L79.9278 30.9128L78.4773 27.8371H79.2479L80.3034 30.1262ZM82.6151 32.0541V27.8371H83.334V31.4093H85.0305V27.8371H85.7493V31.4222H86.2544V32.8537H85.5485V32.0541H82.6151ZM86.876 32.0541V27.8371H87.543V31.0482L89.2266 27.8371H90.1397V32.0541H89.4662V28.6689L87.6919 32.0541H86.876ZM90.7807 32.0541L91.9269 30.3003C91.7974 30.2745 91.6808 30.2358 91.5772 30.1777C91.4672 30.1197 91.37 30.0423 91.2923 29.9392C91.2146 29.8424 91.1563 29.7199 91.111 29.5716C91.0657 29.4298 91.0398 29.2557 91.0398 29.0558C91.0398 28.8365 91.0721 28.6431 91.1369 28.4884C91.2017 28.3336 91.2923 28.2046 91.4218 28.1079C91.5513 28.0176 91.7067 27.9467 91.901 27.9016C92.0888 27.8564 92.309 27.8371 92.568 27.8371H93.9991V32.0541H93.2803V30.397H92.691L91.6096 32.0541H90.7807ZM91.778 29.0945C91.778 29.2234 91.7909 29.3266 91.8168 29.4104C91.8427 29.5007 91.8881 29.5652 91.9528 29.6168C92.0176 29.6748 92.1018 29.7135 92.2054 29.7328C92.3154 29.7586 92.4514 29.7715 92.6068 29.7715H93.2803V28.4561H92.5745C92.432 28.4561 92.309 28.469 92.2118 28.4884C92.1082 28.5077 92.0305 28.5399 91.9658 28.5915C91.901 28.6431 91.8557 28.7076 91.8233 28.785C91.7909 28.8688 91.778 28.972 91.778 29.0945ZM96.6152 32.0541V27.8371H97.2822V31.0482L98.9658 27.8371H99.8724V32.0541H99.2054V28.6689L97.4246 32.0541H96.6152ZM103.913 28.4368V28.7398C103.913 29.2686 103.887 29.7457 103.835 30.1648C103.783 30.584 103.705 30.9386 103.595 31.2288C103.492 31.5189 103.356 31.7446 103.194 31.8994C103.026 32.0541 102.831 32.1315 102.611 32.1315C102.482 32.1315 102.372 32.1186 102.274 32.0928C102.177 32.067 102.093 32.0412 102.028 32.009L102.223 31.4416C102.274 31.4673 102.32 31.4802 102.359 31.4867C102.404 31.4931 102.436 31.4931 102.462 31.4931C102.592 31.4931 102.702 31.4351 102.799 31.319C102.896 31.1965 102.974 31.016 103.032 30.7774C103.09 30.5324 103.136 30.2293 103.168 29.8618C103.194 29.4942 103.213 29.0558 103.213 28.5593V27.8371H105.745V32.0541H105.026V28.4368H103.913ZM110.123 29.9456C110.123 30.2938 110.09 30.6033 110.019 30.8741C109.954 31.1449 109.851 31.3706 109.708 31.5641C109.559 31.7511 109.378 31.8994 109.151 31.9961C108.931 32.0928 108.659 32.1444 108.342 32.1444C108.031 32.1444 107.759 32.0928 107.539 31.9961C107.312 31.8994 107.131 31.7511 106.989 31.5641C106.84 31.3706 106.736 31.1449 106.671 30.8741C106.6 30.6033 106.568 30.2938 106.568 29.9456C106.568 29.6039 106.6 29.2944 106.671 29.0171C106.736 28.7463 106.84 28.5141 106.989 28.3271C107.131 28.1402 107.312 27.9983 107.539 27.8951C107.759 27.7984 108.031 27.7468 108.342 27.7468C108.659 27.7468 108.931 27.7984 109.151 27.8951C109.378 27.9919 109.559 28.1337 109.708 28.3271C109.851 28.5141 109.954 28.7398 110.019 29.0171C110.09 29.2879 110.123 29.5974 110.123 29.9456ZM109.372 29.9456C109.372 29.6812 109.352 29.4556 109.32 29.2557C109.281 29.0622 109.223 28.901 109.138 28.7721C109.061 28.6367 108.951 28.5399 108.821 28.4755C108.692 28.411 108.53 28.3787 108.342 28.3787C108.154 28.3787 107.992 28.411 107.863 28.4755C107.733 28.5399 107.623 28.6367 107.539 28.7721C107.461 28.901 107.403 29.0622 107.364 29.2557C107.325 29.4556 107.306 29.6812 107.306 29.9456C107.306 30.21 107.325 30.4357 107.364 30.6355C107.403 30.829 107.461 30.9902 107.545 31.1256C107.623 31.2546 107.733 31.3513 107.863 31.4158C107.999 31.4802 108.154 31.5125 108.342 31.5125C108.53 31.5125 108.692 31.4802 108.821 31.4158C108.951 31.3513 109.061 31.2546 109.138 31.1256C109.223 30.9966 109.281 30.8354 109.32 30.6355C109.352 30.4421 109.372 30.21 109.372 29.9456ZM111.619 28.4368V32.0541H110.906V27.8371H113.568V28.4368H111.619ZM114.202 32.0541V27.8371H114.876V31.0482L116.553 27.8371H117.466V32.0541H116.792V28.6689L115.018 32.0541H114.202ZM121.837 31.3384C121.759 31.448 121.682 31.5576 121.584 31.6543C121.494 31.7511 121.384 31.8413 121.254 31.9123C121.131 31.9832 120.982 32.0412 120.82 32.0799C120.652 32.125 120.458 32.1444 120.231 32.1444C119.583 32.1444 119.104 31.9638 118.793 31.5963C118.476 31.2288 118.321 30.6807 118.321 29.9456C118.321 29.2105 118.476 28.656 118.793 28.2949C119.104 27.9274 119.577 27.7468 120.205 27.7468C120.419 27.7468 120.607 27.7662 120.775 27.8049C120.937 27.8435 121.086 27.9016 121.209 27.9725C121.338 28.037 121.442 28.1208 121.539 28.2175C121.63 28.3078 121.707 28.411 121.772 28.5206L121.202 28.9333C121.157 28.8623 121.105 28.7979 121.053 28.7269C120.995 28.6624 120.93 28.6044 120.853 28.5528C120.781 28.5012 120.691 28.4561 120.587 28.4239C120.477 28.3916 120.354 28.3787 120.212 28.3787C119.817 28.3787 119.525 28.5077 119.337 28.7721C119.15 29.0364 119.059 29.4233 119.059 29.9456C119.059 30.2229 119.085 30.4615 119.137 30.6613C119.182 30.8548 119.26 31.016 119.357 31.1449C119.454 31.2739 119.577 31.3642 119.719 31.4287C119.868 31.4867 120.03 31.5125 120.218 31.5125C120.361 31.5125 120.484 31.4996 120.594 31.4673C120.697 31.4351 120.788 31.3964 120.872 31.3448C120.95 31.2932 121.021 31.2288 121.086 31.1643C121.144 31.0934 121.202 31.016 121.254 30.9386L121.837 31.3384ZM124.226 28.4819V32.0541H123.508V28.4819H122.154V27.8371H125.58V28.4819H124.226ZM126.208 32.0541V27.8371H126.875V31.0482L128.559 27.8371H129.465V32.0541H128.798V28.6689L127.024 32.0541H126.208ZM131.201 27.8371V29.6103H131.783C131.874 29.6103 131.952 29.591 132.029 29.5394C132.107 29.4878 132.178 29.3975 132.256 29.2686C132.334 29.1332 132.411 28.9526 132.489 28.7269C132.567 28.4948 132.651 28.1982 132.735 27.8371H133.48C133.396 28.1982 133.312 28.4948 133.227 28.7398C133.143 28.9849 133.059 29.1847 132.975 29.3395C132.884 29.4942 132.8 29.6168 132.709 29.7006C132.619 29.7844 132.534 29.8489 132.444 29.894C132.612 29.9714 132.748 30.0681 132.865 30.1842C132.975 30.3003 133.072 30.4421 133.156 30.6162C133.24 30.7903 133.312 30.9966 133.383 31.2288C133.448 31.4673 133.525 31.7446 133.603 32.0541H132.858C132.774 31.7511 132.703 31.4867 132.632 31.2546C132.567 31.0289 132.489 30.8354 132.411 30.6871C132.334 30.5324 132.237 30.4163 132.127 30.3389C132.023 30.268 131.887 30.2293 131.725 30.2293H131.201V32.0541H130.488V27.8371H131.201ZM133.849 32.0541L135.274 27.8371H136.2L137.631 32.0541H136.893L136.569 31.0805H134.885L134.561 32.0541H133.849ZM135.092 30.4486H136.355L135.72 28.5464L135.092 30.4486ZM139.47 32.0541L140.894 27.8371H141.82L143.251 32.0541H142.513L142.189 31.0805H140.506L140.182 32.0541H139.47ZM140.713 30.4486H141.976L141.348 28.5464L140.713 30.4486ZM147.001 30.829C147.001 31.0418 146.962 31.2223 146.891 31.3771C146.819 31.5318 146.709 31.6608 146.567 31.764C146.431 31.8607 146.256 31.9381 146.055 31.9832C145.855 32.0348 145.621 32.0541 145.369 32.0541H143.88V27.8371H145.252C145.531 27.8371 145.757 27.8564 145.952 27.8951C146.14 27.9338 146.295 27.9919 146.412 28.0692C146.528 28.1531 146.619 28.2562 146.671 28.3723C146.722 28.4948 146.748 28.6431 146.748 28.8108C146.748 28.9591 146.729 29.088 146.69 29.1976C146.651 29.3073 146.606 29.404 146.535 29.4749C146.47 29.5523 146.399 29.6168 146.308 29.6619C146.217 29.707 146.127 29.7457 146.023 29.7715C146.172 29.7844 146.301 29.8231 146.424 29.8682C146.541 29.9198 146.645 29.9843 146.729 30.0681C146.819 30.1519 146.884 30.2551 146.93 30.3841C146.975 30.5066 147.001 30.6549 147.001 30.829ZM146.023 28.9655C146.023 28.8688 146.004 28.7914 145.978 28.7269C145.945 28.6624 145.9 28.6109 145.835 28.5657C145.77 28.527 145.686 28.5012 145.583 28.4819C145.479 28.469 145.35 28.4561 145.201 28.4561H144.598V29.5394H145.175C145.337 29.5394 145.466 29.5265 145.576 29.5071C145.68 29.4813 145.77 29.4427 145.835 29.3975C145.9 29.3459 145.945 29.2879 145.978 29.217C146.004 29.1461 146.023 29.0622 146.023 28.9655ZM146.256 30.7774C146.256 30.6484 146.237 30.5517 146.198 30.4743C146.159 30.3905 146.101 30.326 146.017 30.2809C145.939 30.2358 145.829 30.2035 145.706 30.1906C145.576 30.1713 145.421 30.1648 145.246 30.1648H144.598V31.4222H145.103C145.291 31.4222 145.453 31.4158 145.596 31.4029C145.738 31.39 145.861 31.3577 145.958 31.3126C146.055 31.2739 146.133 31.2094 146.185 31.1192C146.23 31.0353 146.256 30.9193 146.256 30.7774ZM149.332 28.4819V32.0541H148.62V28.4819H147.266V27.8371H150.692V28.4819H149.332ZM154.499 29.9456C154.499 30.2938 154.467 30.6033 154.402 30.8741C154.331 31.1449 154.227 31.3706 154.085 31.5641C153.943 31.7511 153.755 31.8994 153.528 31.9961C153.308 32.0928 153.036 32.1444 152.725 32.1444C152.408 32.1444 152.142 32.0928 151.916 31.9961C151.689 31.8994 151.508 31.7511 151.365 31.5641C151.223 31.3706 151.113 31.1449 151.048 30.8741C150.977 30.6033 150.944 30.2938 150.944 29.9456C150.944 29.6039 150.977 29.2944 151.048 29.0171C151.113 28.7463 151.223 28.5141 151.365 28.3271C151.508 28.1402 151.689 27.9983 151.916 27.8951C152.142 27.7984 152.408 27.7468 152.725 27.7468C153.036 27.7468 153.308 27.7984 153.528 27.8951C153.755 27.9919 153.943 28.1337 154.085 28.3271C154.227 28.5141 154.331 28.7398 154.402 29.0171C154.467 29.2879 154.499 29.5974 154.499 29.9456ZM153.755 29.9456C153.755 29.6812 153.735 29.4556 153.696 29.2557C153.658 29.0622 153.599 28.901 153.522 28.7721C153.437 28.6367 153.334 28.5399 153.198 28.4755C153.068 28.411 152.913 28.3787 152.725 28.3787C152.531 28.3787 152.375 28.411 152.239 28.4755C152.11 28.5399 152 28.6367 151.922 28.7721C151.838 28.901 151.78 29.0622 151.741 29.2557C151.708 29.4556 151.689 29.6812 151.689 29.9456C151.689 30.21 151.708 30.4357 151.741 30.6355C151.78 30.829 151.838 30.9902 151.922 31.1256C152.006 31.2546 152.11 31.3513 152.246 31.4158C152.375 31.4802 152.537 31.5125 152.725 31.5125C152.913 31.5125 153.068 31.4802 153.198 31.4158C153.334 31.3513 153.437 31.2546 153.522 31.1256C153.599 30.9966 153.658 30.8354 153.696 30.6355C153.735 30.4421 153.755 30.21 153.755 29.9456ZM156.824 28.4819V32.0541H156.105V28.4819H154.752V27.8371H158.178V28.4819H156.824ZM161.985 29.9456C161.985 30.2938 161.953 30.6033 161.888 30.8741C161.823 31.1449 161.713 31.3706 161.571 31.5641C161.428 31.7511 161.24 31.8994 161.02 31.9961C160.794 32.0928 160.522 32.1444 160.211 32.1444C159.894 32.1444 159.628 32.0928 159.401 31.9961C159.181 31.8994 158.993 31.7511 158.851 31.5641C158.709 31.3706 158.598 31.1449 158.534 30.8741C158.469 30.6033 158.43 30.2938 158.43 29.9456C158.43 29.6039 158.469 29.2944 158.534 29.0171C158.598 28.7463 158.709 28.5141 158.851 28.3271C158.993 28.1402 159.181 27.9983 159.401 27.8951C159.628 27.7984 159.894 27.7468 160.211 27.7468C160.522 27.7468 160.794 27.7984 161.02 27.8951C161.24 27.9919 161.428 28.1337 161.571 28.3271C161.713 28.5141 161.823 28.7398 161.888 29.0171C161.953 29.2879 161.985 29.5974 161.985 29.9456ZM161.24 29.9456C161.24 29.6812 161.221 29.4556 161.182 29.2557C161.15 29.0622 161.085 28.901 161.007 28.7721C160.923 28.6367 160.82 28.5399 160.69 28.4755C160.554 28.411 160.399 28.3787 160.211 28.3787C160.017 28.3787 159.861 28.411 159.725 28.4755C159.596 28.5399 159.492 28.6367 159.408 28.7721C159.324 28.901 159.265 29.0622 159.227 29.2557C159.194 29.4556 159.175 29.6812 159.175 29.9456C159.175 30.21 159.194 30.4357 159.227 30.6355C159.265 30.829 159.324 30.9902 159.408 31.1256C159.492 31.2546 159.602 31.3513 159.732 31.4158C159.861 31.4802 160.023 31.5125 160.211 31.5125C160.399 31.5125 160.554 31.4802 160.69 31.4158C160.82 31.3513 160.923 31.2546 161.007 31.1256C161.085 30.9966 161.15 30.8354 161.182 30.6355C161.221 30.4421 161.24 30.21 161.24 29.9456ZM165.929 30.829C165.929 31.0418 165.89 31.2223 165.812 31.3771C165.741 31.5318 165.637 31.6608 165.495 31.764C165.352 31.8607 165.184 31.9381 164.983 31.9832C164.783 32.0348 164.549 32.0541 164.29 32.0541H162.808V27.8371H164.18C164.452 27.8371 164.685 27.8564 164.873 27.8951C165.067 27.9338 165.216 27.9919 165.339 28.0692C165.456 28.1531 165.54 28.2562 165.592 28.3723C165.65 28.4948 165.676 28.6431 165.676 28.8108C165.676 28.9591 165.657 29.088 165.618 29.1976C165.579 29.3073 165.527 29.404 165.462 29.4749C165.398 29.5523 165.32 29.6168 165.236 29.6619C165.145 29.707 165.055 29.7457 164.951 29.7715C165.093 29.7844 165.229 29.8231 165.346 29.8682C165.469 29.9198 165.573 29.9843 165.657 30.0681C165.741 30.1519 165.806 30.2551 165.857 30.3841C165.903 30.5066 165.929 30.6549 165.929 30.829ZM164.944 28.9655C164.944 28.8688 164.931 28.7914 164.899 28.7269C164.873 28.6624 164.828 28.6109 164.763 28.5657C164.698 28.527 164.614 28.5012 164.511 28.4819C164.407 28.469 164.277 28.4561 164.122 28.4561H163.52V29.5394H164.103C164.258 29.5394 164.394 29.5265 164.498 29.5071C164.608 29.4813 164.692 29.4427 164.763 29.3975C164.828 29.3459 164.873 29.2879 164.899 29.217C164.931 29.1461 164.944 29.0622 164.944 28.9655ZM165.184 30.7774C165.184 30.6484 165.165 30.5517 165.126 30.4743C165.087 30.3905 165.029 30.326 164.944 30.2809C164.86 30.2358 164.757 30.2035 164.627 30.1906C164.498 30.1713 164.349 30.1648 164.174 30.1648H163.52V31.4222H164.031C164.213 31.4222 164.381 31.4158 164.524 31.4029C164.666 31.39 164.789 31.3577 164.886 31.3126C164.983 31.2739 165.055 31.2094 165.106 31.1192C165.158 31.0353 165.184 30.9193 165.184 30.7774ZM166.35 32.0541L167.774 27.8371H168.707L170.131 32.0541H169.393L169.069 31.0805H167.386L167.068 32.0541H166.35ZM167.593 30.4486H168.856L168.228 28.5464L167.593 30.4486ZM173.693 29.217C173.693 29.4749 173.66 29.6941 173.602 29.8747C173.544 30.0617 173.453 30.21 173.33 30.3325C173.207 30.455 173.052 30.5388 172.858 30.6033C172.663 30.6613 172.43 30.6871 172.165 30.6871H171.478V32.0541H170.766V27.8371H172.191C172.43 27.8371 172.644 27.8629 172.832 27.908C173.013 27.9596 173.175 28.037 173.304 28.1466C173.427 28.2627 173.524 28.4045 173.589 28.5786C173.66 28.7527 173.693 28.9655 173.693 29.217ZM172.948 29.2234C172.948 29.0751 172.929 28.9462 172.883 28.8494C172.845 28.7527 172.78 28.6753 172.702 28.6173C172.624 28.5593 172.521 28.5206 172.404 28.4948C172.288 28.4755 172.152 28.4626 172.003 28.4626H171.478V30.0617H171.925C172.106 30.0617 172.255 30.0488 172.391 30.0294C172.521 30.0101 172.624 29.9714 172.709 29.9198C172.786 29.8618 172.851 29.778 172.89 29.6683C172.929 29.5587 172.948 29.4104 172.948 29.2234ZM177.824 29.9456C177.824 30.2938 177.792 30.6033 177.727 30.8741C177.662 31.1449 177.559 31.3706 177.41 31.5641C177.267 31.7511 177.086 31.8994 176.859 31.9961C176.633 32.0928 176.367 32.1444 176.05 32.1444C175.733 32.1444 175.467 32.0928 175.241 31.9961C175.02 31.8994 174.833 31.7511 174.69 31.5641C174.548 31.3706 174.444 31.1449 174.373 30.8741C174.308 30.6033 174.276 30.2938 174.276 29.9456C174.276 29.6039 174.308 29.2944 174.373 29.0171C174.444 28.7463 174.548 28.5141 174.69 28.3271C174.833 28.1402 175.02 27.9983 175.241 27.8951C175.467 27.7984 175.733 27.7468 176.05 27.7468C176.367 27.7468 176.633 27.7984 176.859 27.8951C177.086 27.9919 177.267 28.1337 177.41 28.3271C177.559 28.5141 177.662 28.7398 177.727 29.0171C177.792 29.2879 177.824 29.5974 177.824 29.9456ZM177.08 29.9456C177.08 29.6812 177.06 29.4556 177.028 29.2557C176.989 29.0622 176.931 28.901 176.846 28.7721C176.769 28.6367 176.659 28.5399 176.529 28.4755C176.4 28.411 176.238 28.3787 176.05 28.3787C175.862 28.3787 175.7 28.411 175.571 28.4755C175.435 28.5399 175.331 28.6367 175.247 28.7721C175.163 28.901 175.105 29.0622 175.072 29.2557C175.033 29.4556 175.014 29.6812 175.014 29.9456C175.014 30.21 175.033 30.4357 175.072 30.6355C175.105 30.829 175.169 30.9902 175.247 31.1256C175.331 31.2546 175.441 31.3513 175.571 31.4158C175.7 31.4802 175.862 31.5125 176.05 31.5125C176.238 31.5125 176.4 31.4802 176.529 31.4158C176.659 31.3513 176.769 31.2546 176.846 31.1256C176.931 30.9966 176.989 30.8354 177.028 30.6355C177.06 30.4421 177.08 30.21 177.08 29.9456ZM181.768 30.829C181.768 31.0418 181.729 31.2223 181.658 31.3771C181.58 31.5318 181.476 31.6608 181.334 31.764C181.198 31.8607 181.023 31.9381 180.822 31.9832C180.622 32.0348 180.389 32.0541 180.136 32.0541H178.647V27.8371H180.019C180.291 27.8371 180.525 27.8564 180.719 27.8951C180.907 27.9338 181.062 27.9919 181.179 28.0692C181.295 28.1531 181.386 28.2562 181.438 28.3723C181.489 28.4948 181.515 28.6431 181.515 28.8108C181.515 28.9591 181.496 29.088 181.457 29.1976C181.418 29.3073 181.366 29.404 181.302 29.4749C181.237 29.5523 181.159 29.6168 181.075 29.6619C180.984 29.707 180.894 29.7457 180.79 29.7715C180.939 29.7844 181.068 29.8231 181.191 29.8682C181.308 29.9198 181.412 29.9843 181.496 30.0681C181.58 30.1519 181.651 30.2551 181.697 30.3841C181.742 30.5066 181.768 30.6549 181.768 30.829ZM180.784 28.9655C180.784 28.8688 180.771 28.7914 180.745 28.7269C180.712 28.6624 180.667 28.6109 180.602 28.5657C180.537 28.527 180.453 28.5012 180.35 28.4819C180.246 28.469 180.117 28.4561 179.968 28.4561H179.359V29.5394H179.942C180.097 29.5394 180.233 29.5265 180.343 29.5071C180.447 29.4813 180.537 29.4427 180.602 29.3975C180.667 29.3459 180.712 29.2879 180.745 29.217C180.771 29.1461 180.784 29.0622 180.784 28.9655ZM181.023 30.7774C181.023 30.6484 181.004 30.5517 180.965 30.4743C180.926 30.3905 180.868 30.326 180.784 30.2809C180.699 30.2358 180.596 30.2035 180.466 30.1906C180.343 30.1713 180.188 30.1648 180.013 30.1648H179.359V31.4222H179.87C180.058 31.4222 180.22 31.4158 180.363 31.4029C180.505 31.39 180.628 31.3577 180.725 31.3126C180.822 31.2739 180.9 31.2094 180.952 31.1192C180.997 31.0353 181.023 30.9193 181.023 30.7774Z" fill="#212121"/>
</g>
<defs>
<clipPath id="clip0_77_247">
<rect width="187" height="38" fill="white"/>
</clipPath>
</defs>
</svg>
