<svg width="399" height="482" fill="none" xmlns="http://www.w3.org/2000/svg"><rect width="399" height="482" rx="16" fill="#D9D9D9"/><rect x="17" y="15" width="237" height="40" rx="8" fill="#fff"/><rect x="27" y="22" width="26.799" height="26.799" rx="6" fill="#EEA867"/><path d="M75.54 30.125V41.35h-1.665v-5.057h-5.854v5.057h-1.673V30.125h1.673v4.956h5.855v-4.956h1.664Zm5.605 3.158c.583 0 1.11.097 1.579.29.474.187.875.46 1.203.82.334.355.59.785.766 1.29.178.5.266 1.063.266 1.688 0 .626-.088 1.191-.266 1.697a3.584 3.584 0 0 1-.766 1.29c-.328.354-.73.627-1.203.82a4.22 4.22 0 0 1-1.58.281c-.588 0-1.12-.094-1.594-.281a3.412 3.412 0 0 1-1.203-.82 3.673 3.673 0 0 1-.774-1.29 5.103 5.103 0 0 1-.266-1.697c0-.625.088-1.188.266-1.688.182-.505.44-.935.774-1.29a3.28 3.28 0 0 1 1.203-.82 4.2 4.2 0 0 1 1.595-.29Zm0 6.988c.75 0 1.31-.252 1.68-.758.37-.505.555-1.217.555-2.134 0-.917-.185-1.628-.555-2.134-.37-.51-.93-.766-1.68-.766-.761 0-1.329.256-1.704.766-.37.506-.555 1.217-.555 2.134 0 .917.185 1.629.555 2.134.375.506.943.758 1.704.758Zm8.61.008c.49 0 .879-.115 1.166-.344.286-.234.43-.55.43-.946 0-.172-.027-.33-.079-.476a.904.904 0 0 0-.266-.391 1.253 1.253 0 0 0-.492-.25 2.58 2.58 0 0 0-.75-.094h-1.65v2.501h1.642Zm-1.64-5.855v2.385h1.461c.219 0 .42-.032.602-.094a1.44 1.44 0 0 0 .477-.258c.135-.115.24-.25.312-.407.079-.161.118-.336.118-.523 0-.141-.026-.276-.079-.407a.844.844 0 0 0-.25-.351 1.249 1.249 0 0 0-.46-.25 2.361 2.361 0 0 0-.72-.094h-1.462Zm1.508-1.016c.49 0 .912.05 1.266.149.355.094.646.227.876.399.229.171.396.372.5.601.11.23.164.477.164.743 0 .172-.023.352-.07.54a1.721 1.721 0 0 1-.243.539c-.114.166-.27.32-.469.46-.192.142-.44.25-.742.33.584.103 1.037.312 1.36.624.328.313.492.727.492 1.243 0 .391-.08.732-.242 1.024-.156.287-.37.526-.64.72a2.854 2.854 0 0 1-.954.43 4.63 4.63 0 0 1-1.157.14H86.66v-7.942h2.962Zm7.919 6.824c.52 0 .912-.125 1.172-.375a1.3 1.3 0 0 0 .39-.97c0-.176-.028-.343-.085-.5a1.013 1.013 0 0 0-.274-.414 1.287 1.287 0 0 0-.492-.281 2.14 2.14 0 0 0-.735-.11H95.9v2.65h1.642Zm-.024-3.76c.547 0 1.008.068 1.384.204.38.13.685.307.914.531.23.219.394.474.493.766.104.287.156.586.156.9 0 .359-.065.692-.195 1a2.088 2.088 0 0 1-.563.781c-.25.22-.558.391-.922.516-.36.12-.774.18-1.243.18h-3.096v-7.942H95.9v3.064h1.618Zm6.144-3.064v7.942h-1.524v-7.942h1.524Zm9.037 0v7.942h-1.532v-5.19a5.206 5.206 0 0 1 .062-.735c-.052.11-.104.214-.156.313a1.884 1.884 0 0 1-.149.25l-3.65 4.979a1.174 1.174 0 0 1-.227.266.466.466 0 0 1-.32.125h-.922v-7.95h1.524v5.198a4.364 4.364 0 0 1-.063.727c.104-.23.206-.414.305-.555l3.65-4.987c.058-.088.133-.174.227-.258a.497.497 0 0 1 .328-.125h.923Zm-3.354-1.954c.209 0 .383-.023.524-.07a.7.7 0 0 0 .344-.227.92.92 0 0 0 .188-.406c.041-.172.062-.38.062-.626h.899c.104 0 .185.047.242.141a.582.582 0 0 1 .086.313 1.512 1.512 0 0 1-.625 1.243c-.203.146-.451.26-.743.344a3.714 3.714 0 0 1-.977.117c-.364 0-.693-.04-.984-.117a2.393 2.393 0 0 1-.735-.344 1.589 1.589 0 0 1-.469-.54 1.555 1.555 0 0 1-.157-.703.59.59 0 0 1 .086-.313.272.272 0 0 1 .243-.14h.899c0 .244.018.453.054.625.042.167.105.302.188.406.089.105.203.18.344.227.146.047.323.07.531.07Zm6.389 10.02a.82.82 0 0 1-.344.439.896.896 0 0 1-.485.148h-.641l4.659-11.693a.893.893 0 0 1 .312-.407.824.824 0 0 1 .485-.148h.649l-4.635 11.662Zm16.825-5.736c0 .839-.135 1.61-.406 2.313a5.334 5.334 0 0 1-1.133 1.814 5.148 5.148 0 0 1-1.759 1.18c-.683.281-1.441.422-2.275.422-.828 0-1.586-.14-2.274-.422a5.148 5.148 0 0 1-1.759-1.18 5.476 5.476 0 0 1-1.133-1.814 6.384 6.384 0 0 1-.407-2.313c0-.834.136-1.603.407-2.306a5.372 5.372 0 0 1 1.133-1.814 5.094 5.094 0 0 1 1.759-1.188c.688-.286 1.446-.43 2.274-.43.834 0 1.592.144 2.275.43a5.094 5.094 0 0 1 1.759 1.189c.489.505.867 1.11 1.133 1.813.271.703.406 1.472.406 2.306Zm-1.704 0c0-.667-.091-1.267-.273-1.798a3.804 3.804 0 0 0-.782-1.352 3.324 3.324 0 0 0-1.219-.852 4.103 4.103 0 0 0-1.595-.297c-.589 0-1.123.099-1.602.297a3.41 3.41 0 0 0-1.219.852c-.339.37-.6.82-.782 1.352a5.53 5.53 0 0 0-.274 1.798c0 .672.092 1.274.274 1.805a3.8 3.8 0 0 0 .782 1.345c.338.37.745.654 1.219.852.479.192 1.013.289 1.602.289a4.2 4.2 0 0 0 1.595-.29 3.324 3.324 0 0 0 1.219-.851c.339-.37.599-.818.782-1.345.182-.531.273-1.133.273-1.805Zm14.378 5.612h-1.056c-.276 0-.487-.042-.633-.125a.911.911 0 0 1-.336-.407l-1.454-2.4a1.2 1.2 0 0 0-.453-.445 1.245 1.245 0 0 0-.618-.148h-.75v3.533h-1.485v-3.533h-.75c-.235 0-.443.05-.626.148a1.218 1.218 0 0 0-.445.446l-1.446 2.4a.94.94 0 0 1-.352.406c-.141.083-.347.125-.618.125h-1.055l2.025-3.283c.135-.23.286-.417.453-.563a1.7 1.7 0 0 1 .633-.328 1.558 1.558 0 0 1-.5-.282 2.203 2.203 0 0 1-.383-.484l-2.017-3.002h1.204c.146 0 .279.04.399.118a.77.77 0 0 1 .281.297l1.602 2.454c.105.172.235.302.391.39.157.09.344.134.563.134h.641v-3.4h1.485v3.4h.625c.433 0 .756-.175.97-.524l1.602-2.454a.83.83 0 0 1 .289-.297.715.715 0 0 1 .399-.118h1.196l-2.017 3.002c-.125.198-.255.36-.391.485a1.39 1.39 0 0 1-.492.289c.25.073.458.182.625.328.172.14.326.326.461.555l2.033 3.283Zm8.135-7.942v7.942h-1.532v-5.19a4.733 4.733 0 0 1 .063-.735 8.66 8.66 0 0 1-.157.313 1.883 1.883 0 0 1-.148.25l-3.65 4.979a1.2 1.2 0 0 1-.227.266.47.47 0 0 1-.321.125h-.922v-7.95h1.524v5.198a4.637 4.637 0 0 1-.062.727c.104-.23.206-.414.305-.555l3.65-4.987c.057-.088.133-.174.227-.258a.497.497 0 0 1 .328-.125h.922Zm7.553 6.832v-5.636h-2.376c-.052.772-.123 1.46-.211 2.064a14.992 14.992 0 0 1-.313 1.594 7.837 7.837 0 0 1-.383 1.173c-.14.323-.289.591-.445.805h3.728Zm2.931-.047v3.4c0 .146-.041.26-.125.344a.407.407 0 0 1-.312.125h-.946V41.35h-6.488v2.274a.492.492 0 0 1-.101.305c-.068.089-.175.133-.321.133h-.969V40.24h.258c.182 0 .362-.029.539-.086.177-.057.347-.172.508-.344.167-.172.323-.414.469-.727.146-.313.279-.722.399-1.227.12-.506.224-1.12.312-1.845.089-.73.159-1.597.212-2.603h5.111v6.785h1.454Zm5.637-2.368c-.62.02-1.146.07-1.579.148-.432.073-.784.172-1.055.297-.271.125-.467.274-.586.446a.94.94 0 0 0-.18.563c0 .197.031.37.094.515.067.141.156.258.265.352.115.089.248.154.399.196.151.041.315.062.492.062a2.706 2.706 0 0 0 1.196-.266 2.98 2.98 0 0 0 .493-.32c.156-.125.31-.268.461-.43v-1.563Zm-4.471-3.307a4.556 4.556 0 0 1 1.438-.945 4.568 4.568 0 0 1 1.712-.313c.453 0 .855.076 1.204.227.349.145.643.351.883.617s.419.584.539.954c.125.37.188.779.188 1.227v5.065h-.68a.678.678 0 0 1-.344-.07.536.536 0 0 1-.188-.282l-.164-.695a7.07 7.07 0 0 1-.602.5c-.198.14-.406.263-.625.367a3.24 3.24 0 0 1-.688.227 3.916 3.916 0 0 1-.813.078c-.312 0-.607-.042-.883-.125a1.913 1.913 0 0 1-1.196-1.063 2.344 2.344 0 0 1-.172-.93c0-.313.084-.613.25-.9.172-.291.448-.552.829-.78.385-.23.886-.418 1.501-.564.62-.145 1.38-.229 2.282-.25v-.578c0-.6-.128-1.048-.383-1.345-.255-.297-.631-.445-1.126-.445a2.49 2.49 0 0 0-.844.125 3.238 3.238 0 0 0-.586.281c-.162.1-.305.19-.43.274a.648.648 0 0 1-.375.125.454.454 0 0 1-.274-.086.725.725 0 0 1-.179-.203l-.274-.493Zm13.265 1.978c0-.302-.045-.581-.133-.837a1.857 1.857 0 0 0-.375-.664 1.724 1.724 0 0 0-.61-.438 2.064 2.064 0 0 0-.829-.156c-.64 0-1.146.185-1.516.555-.365.37-.597.883-.696 1.54h4.159Zm1.258 3.72a3.079 3.079 0 0 1-.649.571 3.86 3.86 0 0 1-.781.383 4.725 4.725 0 0 1-.86.219c-.292.047-.581.07-.868.07a4.168 4.168 0 0 1-1.524-.273 3.493 3.493 0 0 1-1.211-.813 3.83 3.83 0 0 1-.798-1.329c-.187-.531-.281-1.141-.281-1.829 0-.552.086-1.066.258-1.54.172-.48.417-.896.735-1.25a3.442 3.442 0 0 1 1.18-.837 3.857 3.857 0 0 1 1.563-.305c.485 0 .93.081 1.337.243.411.156.766.385 1.063.688.297.302.529.674.696 1.117.171.443.257.949.257 1.517 0 .234-.026.393-.078.476-.052.079-.148.118-.289.118h-5.206c.016.474.084.888.204 1.242.119.35.284.641.492.876.214.234.466.409.758.524.292.114.618.172.977.172.339 0 .631-.04.876-.118.25-.078.463-.161.641-.25a5.28 5.28 0 0 0 .453-.258.643.643 0 0 1 .328-.117c.125 0 .222.047.289.14l.438.564Zm8.301-5.65h-2.994v6.784h-1.532v-6.785h-2.994v-1.157h7.52v1.157Zm10.79.328a.895.895 0 0 1-.14.14.314.314 0 0 1-.188.047.486.486 0 0 1-.266-.094 2.318 2.318 0 0 0-.344-.21 2.52 2.52 0 0 0-.5-.212 2.19 2.19 0 0 0-.719-.101c-.375 0-.706.067-.993.203a1.949 1.949 0 0 0-.719.578c-.187.25-.331.555-.43.915-.099.36-.148.763-.148 1.211 0 .464.052.878.156 1.243.104.36.253.665.446.915.192.245.427.432.703.562.276.126.584.188.922.188.329 0 .6-.04.813-.117.214-.084.391-.172.532-.266.141-.094.258-.18.352-.258a.432.432 0 0 1 .289-.125c.125 0 .221.047.289.14l.438.564a2.907 2.907 0 0 1-.618.57 3.384 3.384 0 0 1-.719.383 4.073 4.073 0 0 1-.805.219c-.276.047-.557.07-.844.07a3.54 3.54 0 0 1-1.391-.273 3.185 3.185 0 0 1-1.118-.798 3.865 3.865 0 0 1-.743-1.281c-.182-.511-.273-1.09-.273-1.736 0-.589.081-1.133.242-1.633.167-.5.409-.93.727-1.29a3.332 3.332 0 0 1 1.188-.852c.469-.208 1.006-.313 1.61-.313.568 0 1.068.091 1.501.274.432.182.818.44 1.157.774l-.407.563Zm5.504 5.432c.756 0 1.321-.237 1.696-.711.381-.48.571-1.157.571-2.033 0-.87-.185-1.545-.555-2.024-.365-.485-.915-.727-1.649-.727-.36 0-.683.057-.97.172-.281.11-.523.273-.727.492-.198.22-.349.49-.453.813a3.545 3.545 0 0 0-.156 1.102c0 .923.187 1.64.563 2.15.375.51.935.766 1.68.766Zm.539-8.669c-.515.042-.961.154-1.336.337-.37.177-.678.42-.923.727a3.272 3.272 0 0 0-.547 1.102 5.857 5.857 0 0 0-.219 1.43 2.9 2.9 0 0 1 .485-.64 3.02 3.02 0 0 1 .672-.493c.25-.141.524-.248.821-.32.297-.074.61-.11.938-.11.531 0 1.008.094 1.43.281.422.188.779.45 1.071.79.297.338.524.747.68 1.227a5.03 5.03 0 0 1 .235 1.587c0 .594-.091 1.13-.274 1.61-.182.474-.443.88-.781 1.22-.334.338-.738.598-1.212.78a4.367 4.367 0 0 1-1.579.274 4.277 4.277 0 0 1-1.524-.266 2.996 2.996 0 0 1-1.212-.89c-.344-.412-.615-.951-.813-1.618-.192-.668-.289-1.488-.289-2.463 0-.828.076-1.592.227-2.29.151-.698.393-1.308.727-1.829.339-.521.779-.94 1.321-1.258.542-.318 1.201-.508 1.977-.571l2.83-.234.086.797a.665.665 0 0 1-.078.438c-.068.12-.188.184-.36.195l-2.353.188Zm8.402 1.626c.583 0 1.11.097 1.579.29.474.187.875.46 1.203.82.334.355.589.785.766 1.29.177.5.266 1.063.266 1.688 0 .626-.089 1.191-.266 1.697a3.574 3.574 0 0 1-.766 1.29 3.317 3.317 0 0 1-1.203.82 4.222 4.222 0 0 1-1.579.281 4.304 4.304 0 0 1-1.595-.281 3.417 3.417 0 0 1-1.204-.82 3.675 3.675 0 0 1-.773-1.29 5.083 5.083 0 0 1-.266-1.697c0-.625.088-1.188.266-1.688.182-.505.44-.935.773-1.29.334-.36.735-.633 1.204-.82a4.2 4.2 0 0 1 1.595-.29Zm0 6.988c.75 0 1.31-.252 1.68-.758.37-.505.555-1.217.555-2.134 0-.917-.185-1.628-.555-2.134-.37-.51-.93-.766-1.68-.766-.761 0-1.329.256-1.704.766-.37.506-.555 1.217-.555 2.134 0 .917.185 1.629.555 2.134.375.506.943.758 1.704.758Zm7.04-.875c.25.328.518.557.805.688.292.13.617.195.977.195.698 0 1.237-.25 1.618-.75.385-.506.578-1.24.578-2.205 0-.505-.044-.935-.133-1.29-.083-.359-.208-.65-.375-.875a1.42 1.42 0 0 0-.602-.5 1.932 1.932 0 0 0-.813-.164c-.443 0-.828.099-1.156.297-.324.198-.623.48-.899.844v3.76Zm-.079-4.8a4.72 4.72 0 0 1 .532-.539c.193-.167.399-.307.617-.422.219-.12.451-.211.696-.273a3.04 3.04 0 0 1 .797-.102c.454 0 .863.089 1.228.266.37.177.685.437.945.781.261.344.462.769.602 1.274.146.506.219 1.087.219 1.743 0 .59-.081 1.136-.242 1.642a3.95 3.95 0 0 1-.68 1.305c-.292.37-.652.662-1.079.876a3.186 3.186 0 0 1-1.43.312c-.475 0-.881-.078-1.22-.234a2.922 2.922 0 0 1-.906-.657v3.447h-1.525V33.408h.915c.214 0 .346.102.399.305l.132.883Zm12.132-.773a.941.941 0 0 1 .313-.297.79.79 0 0 1 .414-.118h1.196l-2.009 3.002c-.125.198-.255.36-.391.485a1.383 1.383 0 0 1-.5.289 1.7 1.7 0 0 1 .633.328c.172.14.326.326.461.555l2.025 3.283h-1.056c-.276 0-.489-.044-.641-.133a1.2 1.2 0 0 1-.375-.399l-1.454-2.4a1.193 1.193 0 0 0-.453-.445 1.244 1.244 0 0 0-.617-.148h-.821v3.533h-1.524v-7.95h1.524v3.393h.719c.219 0 .404-.045.555-.133.156-.089.289-.219.399-.391l1.602-2.454Zm10.293-.415v7.942h-1.532v-5.19a5.206 5.206 0 0 1 .062-.735c-.052.11-.104.214-.156.313a1.884 1.884 0 0 1-.149.25l-3.65 4.979a1.174 1.174 0 0 1-.227.266.466.466 0 0 1-.32.125h-.922v-7.95h1.524v5.198a4.364 4.364 0 0 1-.063.727c.105-.23.206-.414.305-.555l3.65-4.987c.058-.088.133-.174.227-.258a.497.497 0 0 1 .328-.125h.923Z" fill="#6E84A3"/><rect x="79" y="424" width="302" height="40" rx="8" fill="#fff"/><rect x="89" y="431" width="26.799" height="26.799" rx="6" fill="#48BD9F"/><path d="M137.111 450.35h-1.665v-9.919h-5.425v9.919h-1.673v-11.224h8.763v11.224Zm5.606-8.067c.584 0 1.11.097 1.579.29.474.187.876.461 1.204.82.333.355.589.785.766 1.29.177.5.266 1.063.266 1.688 0 .626-.089 1.191-.266 1.696a3.58 3.58 0 0 1-.766 1.29c-.328.355-.73.628-1.204.821a4.23 4.23 0 0 1-1.579.281 4.31 4.31 0 0 1-1.594-.281 3.411 3.411 0 0 1-1.204-.821 3.684 3.684 0 0 1-.774-1.29 5.102 5.102 0 0 1-.266-1.696c0-.625.089-1.188.266-1.688.183-.505.441-.935.774-1.29a3.283 3.283 0 0 1 1.204-.82 4.191 4.191 0 0 1 1.594-.29Zm0 6.988c.751 0 1.311-.253 1.681-.758.37-.505.555-1.217.555-2.134 0-.917-.185-1.628-.555-2.134-.37-.51-.93-.766-1.681-.766-.761 0-1.328.256-1.704.766-.37.506-.555 1.217-.555 2.134 0 .917.185 1.629.555 2.134.376.505.943.758 1.704.758Zm10.666-.031v-5.636h-2.376a27.093 27.093 0 0 1-.211 2.064 14.974 14.974 0 0 1-.313 1.594 7.928 7.928 0 0 1-.383 1.173 4.216 4.216 0 0 1-.446.805h3.729Zm2.931-.047v3.4a.466.466 0 0 1-.125.344.409.409 0 0 1-.313.125h-.946v-2.712h-6.487v2.274a.486.486 0 0 1-.102.305c-.067.089-.174.133-.32.133h-.969v-3.822h.258c.182 0 .362-.029.539-.086.177-.057.346-.172.508-.344.167-.172.323-.414.469-.727.146-.313.279-.722.399-1.227.119-.506.224-1.12.312-1.845.089-.729.159-1.597.211-2.603h5.112v6.785h1.454Zm7.67-5.628h-2.994v6.785h-1.532v-6.785h-2.994v-1.157h7.52v1.157Zm4.366 5.714c.49 0 .878-.115 1.165-.344.287-.234.43-.55.43-.946 0-.172-.026-.331-.078-.476a.898.898 0 0 0-.266-.391 1.24 1.24 0 0 0-.492-.25 2.574 2.574 0 0 0-.751-.094h-1.649v2.501h1.641Zm-1.641-5.854v2.384h1.462c.218 0 .419-.032.601-.094a1.45 1.45 0 0 0 .477-.258c.136-.115.24-.25.313-.407a1.186 1.186 0 0 0 .039-.93.852.852 0 0 0-.25-.352 1.268 1.268 0 0 0-.461-.25 2.382 2.382 0 0 0-.719-.093h-1.462Zm1.508-1.017c.49 0 .912.05 1.267.149.354.094.646.227.875.399.229.172.396.372.5.601.11.23.165.477.165.743 0 .172-.024.352-.071.539a1.714 1.714 0 0 1-.242.54c-.115.166-.271.32-.469.461-.193.14-.44.25-.743.328.584.104 1.037.313 1.36.625.329.313.493.727.493 1.243 0 .391-.081.732-.242 1.024-.157.287-.37.526-.641.719a2.853 2.853 0 0 1-.954.43 4.62 4.62 0 0 1-1.157.141h-3.103v-7.942h2.962Zm10.084 3.088c0-.302-.044-.581-.133-.836a1.842 1.842 0 0 0-.375-.665 1.738 1.738 0 0 0-.609-.438 2.067 2.067 0 0 0-.829-.156c-.641 0-1.146.185-1.516.555-.365.37-.597.883-.696 1.54h4.158Zm1.259 3.72c-.188.219-.404.41-.649.571a3.885 3.885 0 0 1-.782.383 4.724 4.724 0 0 1-.859.219 5.45 5.45 0 0 1-.868.07 4.176 4.176 0 0 1-1.524-.273 3.507 3.507 0 0 1-1.212-.813 3.852 3.852 0 0 1-.797-1.329c-.188-.531-.281-1.141-.281-1.829 0-.552.086-1.066.258-1.54a3.72 3.72 0 0 1 .734-1.25 3.436 3.436 0 0 1 1.181-.837 3.854 3.854 0 0 1 1.563-.305c.484 0 .93.081 1.336.243a2.91 2.91 0 0 1 1.063.688c.297.302.529.674.696 1.117.172.443.258.949.258 1.517 0 .234-.026.393-.078.476-.052.079-.149.118-.289.118h-5.206c.016.474.083.888.203 1.242.12.35.284.641.493.876.213.234.466.409.758.524.292.114.617.172.977.172.339 0 .63-.04.875-.118a4.277 4.277 0 0 0 1.095-.508.644.644 0 0 1 .328-.117c.125 0 .221.047.289.141l.438.562Zm3.279-.82c.251.328.519.557.806.688.291.13.617.195.977.195.698 0 1.237-.25 1.618-.75.385-.506.578-1.241.578-2.205 0-.505-.044-.935-.133-1.289-.083-.36-.208-.652-.375-.876a1.425 1.425 0 0 0-.602-.5 1.945 1.945 0 0 0-.813-.164c-.443 0-.828.099-1.157.297a3.328 3.328 0 0 0-.899.844v3.76Zm-.078-4.799c.167-.199.344-.378.532-.54.193-.167.398-.307.617-.422.219-.12.451-.211.696-.273.25-.068.516-.102.797-.102.454 0 .863.088 1.227.266.37.177.686.437.946.781.261.344.461.769.602 1.274.146.506.219 1.087.219 1.743 0 .589-.081 1.136-.242 1.642a3.95 3.95 0 0 1-.68 1.305c-.292.37-.652.662-1.079.876a3.193 3.193 0 0 1-1.43.312c-.475 0-.881-.078-1.22-.234a2.93 2.93 0 0 1-.907-.657v3.447h-1.524v-10.607h.915c.213 0 .346.102.398.305l.133.884Zm18.243 6.753h-1.055c-.276 0-.488-.042-.633-.125a.913.913 0 0 1-.337-.407l-1.453-2.399a1.197 1.197 0 0 0-.454-.446 1.244 1.244 0 0 0-.617-.148h-.751v3.533h-1.485v-3.533h-.75c-.235 0-.443.049-.625.148a1.214 1.214 0 0 0-.446.446l-1.446 2.399a.94.94 0 0 1-.352.407c-.14.083-.346.125-.617.125h-1.055l2.024-3.283c.136-.229.287-.417.453-.563.172-.146.383-.255.634-.328a1.585 1.585 0 0 1-.501-.281 2.26 2.26 0 0 1-.383-.485l-2.016-3.002h1.203a.71.71 0 0 1 .399.118c.12.073.214.172.281.297l1.603 2.454c.104.172.234.302.391.391.156.088.343.133.562.133h.641v-3.4h1.485v3.4h.626c.432 0 .755-.175.969-.524l1.602-2.454a.84.84 0 0 1 .289-.297.71.71 0 0 1 .399-.118h1.196l-2.017 3.002a2.441 2.441 0 0 1-.39.485 1.41 1.41 0 0 1-.493.289c.25.073.459.182.625.328.172.141.326.326.462.555l2.032 3.283Zm6.666-1.11v-5.636h-2.376a27.093 27.093 0 0 1-.211 2.064 14.974 14.974 0 0 1-.313 1.594 7.812 7.812 0 0 1-.383 1.173 4.272 4.272 0 0 1-.445.805h3.728Zm2.931-.047v3.4a.466.466 0 0 1-.125.344.409.409 0 0 1-.313.125h-.945v-2.712h-6.488v2.274a.486.486 0 0 1-.102.305c-.067.089-.174.133-.32.133h-.969v-3.822h.258c.182 0 .362-.029.539-.086a1.22 1.22 0 0 0 .508-.344c.167-.172.323-.414.469-.727.146-.313.279-.722.399-1.227.12-.506.224-1.12.312-1.845.089-.729.159-1.597.211-2.603h5.112v6.785h1.454Zm6.492-3.697c0-.302-.044-.581-.133-.836a1.842 1.842 0 0 0-.375-.665 1.742 1.742 0 0 0-.61-.438 2.059 2.059 0 0 0-.828-.156c-.641 0-1.147.185-1.516.555-.365.37-.597.883-.696 1.54h4.158Zm1.259 3.72c-.188.219-.404.41-.649.571a3.91 3.91 0 0 1-.782.383 4.734 4.734 0 0 1-.86.219c-.291.047-.581.07-.867.07a4.176 4.176 0 0 1-1.524-.273 3.507 3.507 0 0 1-1.212-.813 3.837 3.837 0 0 1-.797-1.329c-.188-.531-.282-1.141-.282-1.829 0-.552.086-1.066.258-1.54.172-.479.417-.896.735-1.25a3.441 3.441 0 0 1 1.18-.837 3.862 3.862 0 0 1 1.564-.305c.484 0 .93.081 1.336.243a2.91 2.91 0 0 1 1.063.688c.297.302.529.674.696 1.117.172.443.258.949.258 1.517 0 .234-.026.393-.078.476-.052.079-.149.118-.29.118h-5.205a4.3 4.3 0 0 0 .203 1.242c.12.35.284.641.492.876.214.234.467.409.759.524.291.114.617.172.977.172.338 0 .63-.04.875-.118.25-.078.464-.161.641-.25.182-.094.334-.18.453-.258a.647.647 0 0 1 .329-.117c.125 0 .221.047.289.141l.438.562Zm8.446-6.808v7.942h-1.532v-3.658h-3.635v3.658h-1.524v-7.942h1.524v3.127h3.635v-3.127h1.532Zm3.04 8.067a.821.821 0 0 1-.344.438.893.893 0 0 1-.485.148h-.641l4.659-11.693a.892.892 0 0 1 .313-.407.818.818 0 0 1 .484-.148h.649l-4.635 11.662Zm16.826-5.737a6.38 6.38 0 0 1-.407 2.313 5.319 5.319 0 0 1-1.133 1.814 5.149 5.149 0 0 1-1.759 1.18c-.683.281-1.441.422-2.275.422-.828 0-1.586-.141-2.274-.422a5.149 5.149 0 0 1-1.759-1.18 5.492 5.492 0 0 1-1.133-1.814 6.38 6.38 0 0 1-.407-2.313c0-.834.136-1.603.407-2.306a5.391 5.391 0 0 1 1.133-1.814 5.112 5.112 0 0 1 1.759-1.188 5.868 5.868 0 0 1 2.274-.43c.834 0 1.592.144 2.275.43a5.112 5.112 0 0 1 1.759 1.188c.49.506.867 1.11 1.133 1.814a6.36 6.36 0 0 1 .407 2.306Zm-1.704 0c0-.667-.092-1.267-.274-1.798a3.784 3.784 0 0 0-.782-1.352 3.324 3.324 0 0 0-1.219-.852 4.103 4.103 0 0 0-1.595-.297 4.16 4.16 0 0 0-1.602.297 3.41 3.41 0 0 0-1.219.852c-.339.37-.6.82-.782 1.352-.182.531-.273 1.131-.273 1.798 0 .672.091 1.274.273 1.805.182.527.443.975.782 1.345.338.37.745.654 1.219.852a4.275 4.275 0 0 0 1.602.289c.589 0 1.121-.097 1.595-.289a3.324 3.324 0 0 0 1.219-.852c.339-.37.6-.818.782-1.345.182-.531.274-1.133.274-1.805Zm14.377 5.612h-1.056c-.276 0-.487-.042-.633-.125a.918.918 0 0 1-.336-.407l-1.454-2.399a1.195 1.195 0 0 0-.453-.446 1.244 1.244 0 0 0-.617-.148h-.751v3.533h-1.485v-3.533h-.75c-.235 0-.443.049-.626.148a1.22 1.22 0 0 0-.445.446l-1.446 2.399a.94.94 0 0 1-.352.407c-.141.083-.346.125-.617.125h-1.056l2.025-3.283c.135-.229.286-.417.453-.563.172-.146.383-.255.633-.328a1.58 1.58 0 0 1-.5-.281 2.26 2.26 0 0 1-.383-.485l-2.017-3.002h1.204a.71.71 0 0 1 .399.118c.12.073.213.172.281.297l1.603 2.454c.104.172.234.302.39.391.157.088.344.133.563.133h.641v-3.4h1.485v3.4h.625c.433 0 .756-.175.97-.524l1.602-2.454a.831.831 0 0 1 .289-.297.71.71 0 0 1 .399-.118h1.196l-2.017 3.002a2.408 2.408 0 0 1-.391.485 1.396 1.396 0 0 1-.492.289c.25.073.458.182.625.328.172.141.326.326.461.555l2.033 3.283Zm8.135-7.942v7.942h-1.532v-5.19a4.736 4.736 0 0 1 .063-.735 7.6 7.6 0 0 1-.157.313 1.833 1.833 0 0 1-.148.25l-3.65 4.979a1.208 1.208 0 0 1-.227.266.471.471 0 0 1-.32.125h-.923v-7.95h1.524v5.198a4.623 4.623 0 0 1-.062.727c.104-.229.206-.414.305-.555l3.65-4.987c.057-.088.133-.174.227-.258a.499.499 0 0 1 .328-.125h.922Zm7.553 6.832v-5.636h-2.376a26.593 26.593 0 0 1-.211 2.064 14.974 14.974 0 0 1-.313 1.594 7.812 7.812 0 0 1-.383 1.173c-.14.323-.289.591-.445.805h3.728Zm2.931-.047v3.4a.462.462 0 0 1-.125.344.408.408 0 0 1-.312.125h-.946v-2.712h-6.488v2.274a.49.49 0 0 1-.101.305c-.068.089-.175.133-.321.133h-.969v-3.822h.258c.182 0 .362-.029.539-.086a1.22 1.22 0 0 0 .508-.344c.167-.172.323-.414.469-.727.146-.313.279-.722.399-1.227.12-.506.224-1.12.313-1.845a38.79 38.79 0 0 0 .211-2.603h5.112v6.785h1.453Zm5.637-2.368c-.62.021-1.146.07-1.579.148-.432.073-.784.172-1.055.297-.271.125-.466.274-.586.446a.938.938 0 0 0-.18.563c0 .198.031.369.094.515.067.141.156.258.266.352.114.089.247.154.398.196.151.041.315.062.493.062a2.713 2.713 0 0 0 1.195-.266c.172-.088.337-.195.493-.32.156-.125.31-.269.461-.43v-1.563Zm-4.471-3.307a4.546 4.546 0 0 1 1.438-.945 4.558 4.558 0 0 1 1.712-.313c.453 0 .855.075 1.204.227.349.145.643.351.883.617s.42.584.539.954c.125.37.188.779.188 1.227v5.065h-.68a.688.688 0 0 1-.344-.07.54.54 0 0 1-.188-.282l-.164-.696a7.03 7.03 0 0 1-.602.501 4.21 4.21 0 0 1-.625.367 3.229 3.229 0 0 1-.688.227 3.923 3.923 0 0 1-.813.078c-.312 0-.607-.042-.883-.125a2.034 2.034 0 0 1-.711-.399 1.907 1.907 0 0 1-.485-.664 2.345 2.345 0 0 1-.172-.93c0-.313.084-.613.25-.899.172-.292.449-.553.829-.782.386-.229.886-.417 1.501-.563.62-.146 1.381-.229 2.282-.25v-.578c0-.599-.128-1.048-.383-1.345-.255-.297-.63-.445-1.125-.445-.334 0-.615.042-.845.125a3.23 3.23 0 0 0-.586.281 14.76 14.76 0 0 0-.43.274.65.65 0 0 1-.375.125.456.456 0 0 1-.274-.086.754.754 0 0 1-.179-.203l-.274-.493Zm13.265 1.978c0-.302-.044-.581-.133-.836a1.842 1.842 0 0 0-.375-.665 1.742 1.742 0 0 0-.61-.438 2.066 2.066 0 0 0-.828-.156c-.641 0-1.147.185-1.517.555-.365.37-.596.883-.695 1.54h4.158Zm1.258 3.72c-.187.219-.404.41-.648.571a3.91 3.91 0 0 1-.782.383 4.734 4.734 0 0 1-.86.219 5.45 5.45 0 0 1-.868.07 4.176 4.176 0 0 1-1.524-.273 3.512 3.512 0 0 1-1.211-.813 3.839 3.839 0 0 1-.798-1.329c-.187-.531-.281-1.141-.281-1.829 0-.552.086-1.066.258-1.54.172-.479.417-.896.735-1.25a3.432 3.432 0 0 1 1.18-.837 3.86 3.86 0 0 1 1.563-.305c.485 0 .93.081 1.337.243a2.91 2.91 0 0 1 1.063.688c.297.302.529.674.696 1.117.172.443.258.949.258 1.517 0 .234-.027.393-.079.476-.052.079-.148.118-.289.118h-5.206c.016.474.084.888.204 1.242.12.35.284.641.492.876.214.234.467.409.758.524.292.114.618.172.977.172.339 0 .631-.04.876-.118.25-.078.464-.161.641-.25a5.36 5.36 0 0 0 .453-.258.647.647 0 0 1 .328-.117c.125 0 .222.047.29.141l.437.562Zm8.301-5.651h-2.994v6.785h-1.532v-6.785h-2.994v-1.157h7.52v1.157Zm8.61-1.282c.583 0 1.11.097 1.579.29a3.19 3.19 0 0 1 1.203.82c.334.355.589.785.766 1.29.177.5.266 1.063.266 1.688 0 .626-.089 1.191-.266 1.696a3.567 3.567 0 0 1-.766 1.29 3.312 3.312 0 0 1-1.203.821 4.234 4.234 0 0 1-1.579.281 4.316 4.316 0 0 1-1.595-.281 3.411 3.411 0 0 1-1.204-.821 3.667 3.667 0 0 1-.773-1.29 5.077 5.077 0 0 1-.266-1.696c0-.625.088-1.188.266-1.688.182-.505.44-.935.773-1.29a3.283 3.283 0 0 1 1.204-.82 4.197 4.197 0 0 1 1.595-.29Zm0 6.988c.75 0 1.31-.253 1.68-.758.37-.505.555-1.217.555-2.134 0-.917-.185-1.628-.555-2.134-.37-.51-.93-.766-1.68-.766-.761 0-1.329.256-1.704.766-.37.506-.555 1.217-.555 2.134 0 .917.185 1.629.555 2.134.375.505.943.758 1.704.758Zm11.877-5.706h-2.994v6.785h-1.532v-6.785h-2.993v-1.157h7.519v1.157Zm6.477 0h-3.681v6.785h-1.524v-7.942h5.205v1.157Zm2.807 4.831c.25.328.519.557.805.688.292.13.618.195.977.195.698 0 1.238-.25 1.618-.75.386-.506.579-1.241.579-2.205 0-.505-.045-.935-.133-1.289-.084-.36-.209-.652-.375-.876a1.431 1.431 0 0 0-.602-.5 1.945 1.945 0 0 0-.813-.164c-.443 0-.829.099-1.157.297a3.314 3.314 0 0 0-.899.844v3.76Zm-.078-4.799c.167-.199.344-.378.531-.54.193-.167.399-.307.618-.422.219-.12.451-.211.696-.273.25-.068.515-.102.797-.102.453 0 .862.088 1.227.266.37.177.685.437.946.781.26.344.461.769.602 1.274.146.506.218 1.087.218 1.743 0 .589-.08 1.136-.242 1.642-.156.5-.383.935-.68 1.305-.292.37-.651.662-1.079.876a3.19 3.19 0 0 1-1.43.312c-.474 0-.881-.078-1.219-.234a2.93 2.93 0 0 1-.907-.657v3.447h-1.524v-10.607h.914c.214 0 .347.102.399.305l.133.884Zm14.059-1.189-4.408 10.248a.644.644 0 0 1-.188.265c-.078.063-.193.094-.344.094h-1.133l1.454-3.165-3.26-7.442h1.329c.13 0 .232.032.305.094a.545.545 0 0 1 .156.211l2.017 4.768c.042.12.081.243.117.368.042.119.076.239.102.359.036-.125.075-.247.117-.367.042-.125.086-.248.133-.368l1.946-4.76a.519.519 0 0 1 .172-.219.44.44 0 0 1 .266-.086h1.219Zm.604.829a3.501 3.501 0 0 1 1.095-.688c.432-.177.951-.266 1.555-.266.485 0 .912.06 1.282.18.37.115.68.271.93.469.256.193.446.414.571.665.13.25.195.51.195.781 0 .156-.026.321-.078.493a1.611 1.611 0 0 1-.234.484c-.11.157-.256.302-.438.438-.177.13-.399.24-.665.328.49.151.878.391 1.165.719.287.329.43.738.43 1.227 0 .37-.086.704-.258 1.001-.167.297-.393.55-.68.758-.287.203-.617.36-.993.469-.375.11-.766.164-1.172.164a4.228 4.228 0 0 1-1.548-.289 3.637 3.637 0 0 1-.727-.383 2.868 2.868 0 0 1-.617-.571l.438-.562a.334.334 0 0 1 .289-.141c.099 0 .2.042.305.125a3.795 3.795 0 0 0 .945.524c.219.078.49.117.813.117.276 0 .521-.034.735-.102.219-.067.401-.161.547-.281.151-.12.266-.261.344-.422a1.21 1.21 0 0 0 .117-.532c0-.375-.153-.674-.461-.898-.307-.225-.781-.337-1.422-.337h-.899v-1.016h.899c.562 0 1-.104 1.313-.312.312-.214.469-.488.469-.821a.88.88 0 0 0-.102-.414.948.948 0 0 0-.313-.352 1.475 1.475 0 0 0-.515-.242 2.615 2.615 0 0 0-.712-.086c-.302 0-.557.031-.766.093a2.997 2.997 0 0 0-.531.196 4.476 4.476 0 0 0-.368.203.486.486 0 0 1-.242.086.42.42 0 0 1-.188-.039.627.627 0 0 1-.156-.18l-.352-.586Zm12.322-.414a.959.959 0 0 1 .313-.297.784.784 0 0 1 .414-.118h1.196l-2.009 3.002a2.441 2.441 0 0 1-.39.485 1.401 1.401 0 0 1-.501.289c.251.073.462.182.634.328.171.141.325.326.461.555l2.024 3.283h-1.055c-.276 0-.49-.044-.641-.133a1.204 1.204 0 0 1-.375-.399l-1.454-2.399a1.202 1.202 0 0 0-.453-.446 1.248 1.248 0 0 0-.618-.148h-.821v3.533h-1.524v-7.95h1.524v3.393h.719c.219 0 .404-.045.555-.133.157-.089.29-.219.399-.391l1.602-2.454Zm10.293-.415v7.942h-1.532v-5.19a4.736 4.736 0 0 1 .063-.735 7.6 7.6 0 0 1-.157.313 1.833 1.833 0 0 1-.148.25l-3.65 4.979a1.208 1.208 0 0 1-.227.266.471.471 0 0 1-.32.125h-.923v-7.95h1.524v5.198a4.623 4.623 0 0 1-.062.727c.104-.229.206-.414.305-.555l3.65-4.987c.057-.088.133-.174.227-.258a.499.499 0 0 1 .328-.125h.922Z" fill="#6E84A3"/><path d="M177.232 220.19c.18-1.2.516-2.256 1.008-3.168a7.576 7.576 0 0 1 1.854-2.286 7.58 7.58 0 0 1 2.556-1.404 10.19 10.19 0 0 1 3.132-.468c1.116 0 2.142.162 3.078.486.936.312 1.734.762 2.394 1.35a5.985 5.985 0 0 1 1.566 2.088c.372.816.558 1.716.558 2.7 0 .828-.102 1.56-.306 2.196a5.186 5.186 0 0 1-.882 1.674c-.372.48-.828.888-1.368 1.224a8.687 8.687 0 0 1-1.818.81c1.644.456 2.88 1.2 3.708 2.232.828 1.02 1.242 2.316 1.242 3.888 0 1.212-.228 2.304-.684 3.276a7.247 7.247 0 0 1-1.872 2.448 8.633 8.633 0 0 1-2.772 1.53 10.52 10.52 0 0 1-3.348.522c-1.356 0-2.52-.162-3.492-.486-.972-.336-1.8-.798-2.484-1.386a7.874 7.874 0 0 1-1.71-2.142 16.32 16.32 0 0 1-1.134-2.754l1.53-.648c.396-.168.78-.216 1.152-.144.372.072.642.282.81.63l.612 1.224c.24.444.558.87.954 1.278.396.396.888.732 1.476 1.008.6.276 1.35.414 2.25.414.864 0 1.62-.138 2.268-.414.648-.288 1.188-.654 1.62-1.098a4.653 4.653 0 0 0 1.296-3.15c0-.672-.084-1.29-.252-1.854a2.919 2.919 0 0 0-.972-1.44c-.468-.408-1.122-.726-1.962-.954-.84-.228-1.932-.342-3.276-.342v-2.556c1.104-.012 2.034-.126 2.79-.342.768-.216 1.386-.516 1.854-.9.468-.384.804-.84 1.008-1.368a4.619 4.619 0 0 0 .324-1.764c0-.708-.108-1.326-.324-1.854a3.463 3.463 0 0 0-.918-1.314 3.524 3.524 0 0 0-1.386-.792 5.324 5.324 0 0 0-1.728-.27c-.624 0-1.2.09-1.728.27-.528.18-.996.432-1.404.756a4.48 4.48 0 0 0-1.026 1.152 4.744 4.744 0 0 0-.594 1.44c-.168.456-.384.762-.648.918-.252.156-.618.192-1.098.108l-1.854-.324Zm44.391 5.886c0 1.932-.312 3.69-.936 5.274-.612 1.584-1.482 2.946-2.61 4.086-1.128 1.128-2.478 2.004-4.05 2.628-1.572.624-3.318.936-5.238.936h-9.72v-25.848h9.72c1.92 0 3.666.312 5.238.936 1.572.624 2.922 1.506 4.05 2.646 1.128 1.128 1.998 2.49 2.61 4.086.624 1.584.936 3.336.936 5.256Zm-3.924 0c0-1.536-.21-2.91-.63-4.122-.42-1.224-1.02-2.256-1.8-3.096a7.48 7.48 0 0 0-2.808-1.944c-1.092-.444-2.316-.666-3.672-.666h-5.868v19.656h5.868c1.356 0 2.58-.222 3.672-.666a7.577 7.577 0 0 0 2.808-1.926c.78-.852 1.38-1.884 1.8-3.096.42-1.212.63-2.592.63-4.14Z" fill="#000"/></svg>