<svg width="173" height="129" viewBox="0 0 173 129" fill="none" xmlns="http://www.w3.org/2000/svg">
<path d="M32.9392 38.7574C32.9392 43.6672 31.2451 47.429 27.8569 50.0427C24.4687 52.6564 19.6432 53.9596 13.3805 53.9525H8.23004V71.5434H0.126266V24.5397H14.4163C20.6049 24.5397 25.2428 25.7399 28.33 28.1403C31.4171 30.5407 32.9536 34.0798 32.9392 38.7574ZM8.23004 47.5013H12.531C16.6886 47.5013 19.7388 46.8153 21.6814 45.4432C23.624 44.0712 24.5965 41.9279 24.5989 39.0133C24.5989 36.3119 23.7279 34.2978 21.986 32.9708C20.2441 31.6438 17.5333 30.9791 13.8536 30.9768H8.22645L8.23004 47.5013Z" fill="white"/>
<path d="M105.037 52.7654V71.5434H96.9371V24.5397H110.915C117.312 24.5397 122.047 25.6759 125.119 27.9484C128.192 30.2209 129.729 33.6497 129.729 38.2349C129.729 44.0855 126.52 48.2548 120.102 50.7429L134.126 71.5434H124.908L113.044 52.7654H105.037ZM105.037 46.3994H110.664C114.44 46.3994 117.173 45.7347 118.865 44.4054C120.557 43.076 121.405 41.1033 121.41 38.4872C121.41 35.8333 120.495 33.9257 118.664 32.7646C116.834 31.6035 114.077 31.0253 110.392 31.0301H105.037V46.3994Z" fill="white"/>
<path d="M158.423 71.5434H150.323V31.126H135.746V24.5397H173V31.126H158.423V71.5434Z" fill="white"/>
<path d="M6.95327 84.254C6.96852 84.6692 6.88228 85.082 6.70192 85.457C6.52156 85.8321 6.25242 86.1583 5.91745 86.408C5.11589 86.9716 4.14611 87.2509 3.16479 87.2006C2.09186 87.2462 1.01952 87.0981 0 86.7634V86.0063C0.992852 86.3681 2.04661 86.5371 3.10385 86.5039C3.88461 86.5454 4.65722 86.3291 5.30094 85.889C5.5585 85.7074 5.76735 85.4661 5.90918 85.186C6.051 84.906 6.1215 84.5957 6.11455 84.2824C6.1282 83.9235 6.03468 83.5687 5.84574 83.2623C5.6165 82.9501 5.31547 82.6966 4.96764 82.523C4.39253 82.2342 3.79284 81.9963 3.17556 81.8121C2.02863 81.4318 1.23294 81.0195 0.795672 80.5752C0.55964 80.3111 0.380305 80.0021 0.268637 79.667C0.156969 79.332 0.115321 78.9779 0.146175 78.6263C0.17703 78.2748 0.279747 77.9332 0.448107 77.6223C0.616467 77.3114 0.846943 77.0378 1.12543 76.8181C1.86092 76.2826 2.75855 76.0118 3.67017 76.0504C4.69217 76.0429 5.70517 76.2399 6.64858 76.6297L6.36546 77.2838C5.51717 76.9249 4.60665 76.733 3.68452 76.7186C2.97929 76.6829 2.28172 76.8777 1.69889 77.2731C1.46111 77.4479 1.26966 77.6773 1.14105 77.9417C1.01244 78.2061 0.950495 78.4975 0.960529 78.7908C0.946926 79.1342 1.02481 79.475 1.18633 79.779C1.36899 80.0744 1.62429 80.319 1.92828 80.4898C2.49514 80.7906 3.08909 81.0381 3.70242 81.2292C4.39147 81.4391 5.055 81.724 5.68088 82.0787C6.07516 82.3065 6.40638 82.6277 6.645 83.0135C6.85487 83.3933 6.96115 83.8209 6.95327 84.254Z" fill="white"/>
<path d="M15.3108 87.0549H9.1604V76.1961H15.3108V76.907H9.93459V81.0159H14.999V81.7268H9.93459V86.3831H15.3108V87.0549Z" fill="white"/>
<path d="M18.4727 82.3204V87.0549H17.6878V76.1961H20.3652C21.763 76.1961 22.7952 76.4449 23.4619 76.9426C23.8002 77.2081 24.0682 77.5515 24.2424 77.9429C24.4167 78.3344 24.492 78.7621 24.4619 79.189C24.4829 79.8523 24.2728 80.5025 23.8669 81.0301C23.3951 81.5714 22.7586 81.9457 22.0533 82.0965L25.1106 87.0442H24.1715L21.2684 82.3097L18.4727 82.3204ZM18.4727 81.6699H20.6232C21.4091 81.7176 22.1883 81.501 22.8346 81.055C23.1007 80.8367 23.3106 80.5588 23.447 80.2443C23.5835 79.9297 23.6427 79.5875 23.6196 79.2458C23.6196 78.4212 23.3615 77.8241 22.849 77.4437C22.3365 77.0634 21.5014 76.8786 20.3401 76.8786H18.4763L18.4727 81.6699Z" fill="white"/>
<path d="M33.537 76.1961H34.3936L30.1858 87.0549H29.4905L25.2934 76.1961H26.1357L28.9672 83.5858C29.3973 84.6983 29.684 85.5372 29.8381 86.0952C29.9421 85.7398 30.1428 85.1462 30.4474 84.3642L33.537 76.1961Z" fill="white"/>
<path d="M35.8128 87.0549V76.1961H36.5978V87.0549H35.8128Z" fill="white"/>
<path d="M44.4184 76.7222C43.0063 76.7222 41.894 77.1582 41.0816 78.0302C40.2692 78.9022 39.863 80.0953 39.863 81.6095C39.863 83.1593 40.2453 84.3618 41.0099 85.2173C41.7745 86.0727 42.8677 86.5016 44.2894 86.504C45.1695 86.5101 46.0459 86.3904 46.8915 86.1485V86.8168C45.99 87.0913 45.0494 87.2186 44.1066 87.1935C42.5272 87.1935 41.2823 86.7018 40.3719 85.7184C39.4616 84.735 39.0075 83.3583 39.0099 81.5882C38.988 80.5769 39.2104 79.5751 39.6587 78.6665C40.0737 77.8475 40.725 77.1695 41.5296 76.7186C42.3987 76.2469 43.3777 76.0103 44.3682 76.0326C45.3834 76.0145 46.3903 76.2172 47.318 76.6262L47.0026 77.3087C46.1975 76.9206 45.3136 76.72 44.4184 76.7222Z" fill="white"/>
<path d="M55.3864 87.0549H49.2324V76.1961H55.3864V76.907H50.0102V81.0159H55.0746V81.7268H50.0102V86.3831H55.3864V87.0549Z" fill="white"/>
<path d="M70.306 80.9697H74.8615V86.6141C74.1801 86.8286 73.4826 86.989 72.7755 87.0939C72.1142 87.1871 71.4471 87.2334 70.7792 87.2326C69.0444 87.2326 67.7195 86.7492 66.8044 85.7824C65.8892 84.8156 65.4328 83.4305 65.4352 81.6272C65.4352 79.8666 65.9657 78.497 67.0266 77.5183C68.0875 76.5397 69.5582 76.048 71.4387 76.0432C72.608 76.0423 73.7662 76.2693 74.8472 76.7115L74.0372 78.5598C73.2219 78.1668 72.3272 77.9626 71.4208 77.9626C70.9512 77.9431 70.4828 78.0226 70.0466 78.196C69.6104 78.3695 69.2162 78.6328 68.8903 78.9685C68.2309 79.7119 67.8901 80.6811 67.9405 81.6699C67.9405 82.8547 68.1962 83.7563 68.7075 84.3748C68.9795 84.6917 69.3224 84.9412 69.7088 85.1035C70.0952 85.2658 70.5145 85.3364 70.9333 85.3096C71.453 85.3086 71.9715 85.2586 72.4817 85.1603V82.8926H70.306V80.9697Z" fill="white"/>
<path d="M79.8549 82.9069V87.0975H77.4213V76.1997H80.7689C82.3268 76.1997 83.4809 76.4686 84.2312 77.0065C84.9815 77.5444 85.3567 78.3619 85.3567 79.4591C85.365 80.0745 85.1684 80.6754 84.7975 81.1688C84.3889 81.6944 83.8437 82.0999 83.2205 82.3417C84.948 84.7872 86.0735 86.3677 86.5968 87.0833H83.8943L81.1524 82.9069H79.8549ZM79.8549 81.0301H80.6435C81.2336 81.0756 81.8244 80.9523 82.346 80.6747C82.5311 80.5487 82.6796 80.3767 82.7765 80.1758C82.8734 79.9748 82.9152 79.7522 82.8979 79.5302C82.9159 79.3129 82.8728 79.0949 82.7735 78.9004C82.6742 78.7059 82.5225 78.5425 82.3352 78.4283C81.7917 78.1752 81.1925 78.0627 80.5933 78.1013H79.8549V81.0301Z" fill="white"/>
<path d="M98.2855 81.6273C98.2855 83.4258 97.8076 84.8097 96.8518 85.7788C95.896 86.748 94.5448 87.2326 92.7981 87.2326C91.0371 87.2326 89.6859 86.748 88.7445 85.7788C87.803 84.8097 87.3323 83.4199 87.3323 81.6095C87.3323 79.8015 87.8102 78.4188 88.7659 77.4615C89.7217 76.5042 91.0778 76.0302 92.834 76.0397C94.5974 76.0397 95.9474 76.5208 96.8841 77.4828C97.8207 78.4449 98.2879 79.8264 98.2855 81.6273ZM89.9021 81.6273C89.9021 82.8429 90.1411 83.7576 90.619 84.3713C90.8832 84.6855 91.2188 84.9331 91.5983 85.0937C91.9777 85.2544 92.3901 85.3235 92.8017 85.2954C94.7443 85.2954 95.7156 84.0727 95.7156 81.6273C95.7156 79.1818 94.7503 77.9556 92.8196 77.9484C92.4061 77.92 91.9916 77.9892 91.6103 78.1505C91.229 78.3117 90.8917 78.5604 90.6261 78.8761C90.1483 79.4946 89.9093 80.4117 89.9093 81.6273H89.9021Z" fill="white"/>
<path d="M109.843 76.1997V83.241C109.859 83.9853 109.661 84.7187 109.273 85.3559C108.879 85.9734 108.305 86.458 107.628 86.7456C106.825 87.0871 105.957 87.2531 105.083 87.2326C103.607 87.2326 102.46 86.8772 101.643 86.1663C101.232 85.7957 100.909 85.3397 100.697 84.8309C100.485 84.3221 100.39 83.7731 100.417 83.2232V76.1997H102.843V82.8607C102.843 83.6995 103.021 84.3156 103.377 84.709C103.733 85.1023 104.322 85.2978 105.144 85.2954C105.942 85.2954 106.521 85.0988 106.879 84.7054C107.237 84.3109 107.417 83.6888 107.417 82.8464V76.1997H109.843Z" fill="white"/>
<path d="M120.417 79.5941C120.448 80.1008 120.359 80.6076 120.158 81.0741C119.956 81.5406 119.647 81.954 119.256 82.2813C118.485 82.8998 117.385 83.2126 115.962 83.2126H114.916V87.0975H112.482V76.1997H116.149C117.543 76.1997 118.6 76.484 119.328 77.0527C120.055 77.6214 120.417 78.4674 120.417 79.5941ZM114.916 81.3216H115.718C116.31 81.3634 116.9 81.2151 117.399 80.8986C117.586 80.7559 117.735 80.5696 117.832 80.3563C117.929 80.143 117.971 79.9093 117.955 79.6759C117.974 79.4543 117.942 79.2313 117.861 79.0238C117.78 78.8163 117.653 78.6297 117.489 78.4781C117.06 78.1849 116.542 78.048 116.023 78.0906H114.916V81.3216Z" fill="white"/>
<path d="M120.202 90.7088C117.858 90.9647 108.066 92.6744 106.865 93.2253C106.611 93.3391 107.034 93.6839 107.034 93.6839C107.034 93.6839 110.413 94.8 110.664 95.8343C110.74 96.1506 110.306 96.8473 110.03 97.0712C103.195 102.758 91.8224 116.994 63.4108 118.657C63.2567 118.657 63.0237 118.657 62.7478 118.679V50.6754H72.5684V45.7312H62.7478V15.6537C64.392 15.1474 65.8314 14.1361 66.8583 12.7657C67.8852 11.3953 68.4464 9.73673 68.4609 8.02944C68.4609 3.59352 64.7334 0 60.1349 0C55.5365 0 51.8089 3.59352 51.8089 8.02944C51.825 9.77693 52.4127 11.472 53.4837 12.8598C54.5548 14.2475 56.0512 15.2529 57.7479 15.7248V45.717H48.4291V50.6612H57.7479V118.679C57.4647 118.679 57.221 118.679 57.0633 118.657C28.6517 116.994 17.2792 102.755 10.4442 97.0712C10.1718 96.8473 9.72739 96.1506 9.80982 95.8343C10.0607 94.8 13.4406 93.6839 13.4406 93.6839C13.4406 93.6839 13.8635 93.3284 13.609 93.2253C12.4047 92.6744 2.61643 90.9647 0.272392 90.7088C0.0645106 90.6875 0.11824 91.1176 0.193507 91.2278C21.021 121.746 54.7336 123.011 54.7336 123.011C54.7336 123.011 55.687 123.303 55.8519 123.658C56.5687 125.183 59.9629 128.958 59.9629 128.958C59.9629 128.958 60.1779 129.029 60.2353 128.986C60.2962 129.029 60.5113 128.958 60.5113 128.958C60.5113 128.958 63.909 125.183 64.6187 123.658C64.7871 123.303 65.7369 123.011 65.7369 123.011C65.7369 123.011 99.4496 121.746 120.281 91.2278C120.352 91.1176 120.41 90.6875 120.202 90.7088ZM56.2855 8.04365C56.2855 7.0312 56.6911 6.06022 57.413 5.34431C58.1349 4.6284 59.114 4.22621 60.1349 4.22621C61.1559 4.22621 62.1349 4.6284 62.8568 5.34431C63.5787 6.06022 63.9843 7.0312 63.9843 8.04365C63.9843 9.0561 63.5787 10.0271 62.8568 10.743C62.1349 11.4589 61.1559 11.8611 60.1349 11.8611C59.114 11.8611 58.1349 11.4589 57.413 10.743C56.6911 10.0271 56.2855 9.0561 56.2855 8.04365Z" fill="#C9AE6A"/>
<path d="M56.3752 32.9815V24.3691C46.3395 26.0468 38.4221 34.0478 36.7555 44.185H45.0349C45.7505 41.4865 47.1784 39.026 49.1716 37.0567C51.1649 35.0875 53.6514 33.6808 56.3752 32.9815Z" fill="white"/>
<path d="M63.9844 32.9317V24.2802C73.9949 25.965 81.9052 34.0016 83.561 44.185H75.2995C74.5926 41.481 73.1714 39.0129 71.1825 37.0349C69.1936 35.0569 66.7089 33.6405 63.9844 32.9317Z" fill="white"/>
<path d="M56.3501 62.9594V71.5434C46.3144 69.8692 38.397 61.9002 36.7304 51.795H45.0098C45.7284 54.4878 47.158 56.9418 49.1513 58.9042C51.1446 60.8667 53.6296 62.2665 56.3501 62.9594Z" fill="white"/>
<path d="M63.9413 62.9274V71.4581C68.9251 70.6536 73.5315 68.3267 77.1179 64.8019C80.7044 61.277 83.0921 56.73 83.9481 51.795H75.5038C74.7488 54.5026 73.2794 56.9616 71.247 58.9184C69.2146 60.8752 66.6927 62.2591 63.9413 62.9274Z" fill="white"/>
</svg>
