<svg width="0" height="0" class="hidden">
  <symbol xmlns="http://www.w3.org/2000/svg" viewBox="0 0 384 512" id="arrow-down">
    <path d="M169.4 502.6c12.5 12.5 32.8 12.5 45.3 0l128-128c12.5-12.5 12.5-32.8 0-45.3s-32.8-12.5-45.3 0L224 402.7 224 32c0-17.7-14.3-32-32-32s-32 14.3-32 32l0 370.7L86.6 329.4c-12.5-12.5-32.8-12.5-45.3 0s-12.5 32.8 0 45.3l128 128z"></path>
  </symbol>
   <symbol version="1.1" xmlns="http://www.w3.org/2000/svg" viewBox="0 0 512 512" id="arrow-right">
    <path d="M214.673 128.191l-127.809 127.809 256.383 256.383 54.339-54.339-202.044-202.045 202.81-202.849-26.404-26.364c-14.541-14.54-27.132-26.404-27.971-26.404-0.804 0-59.006 57.514-129.301 127.809z"></path>
  </symbol>
    <symbol version="1.1" xmlns="http://www.w3.org/2000/svg" viewBox="0 0 512 512" id="arrow-right-big">
    <path d="M94.28 173.27l-70 70 5.928 5.983 5.899 5.983-5.645 5.561c-3.104 3.048-5.645 6.096-5.645 6.745s31.5 32.657 70 71.158l70 70 24.274-24.274-111.775-111.775h410.405v-33.871h-410.405l55.605-55.605c30.597-30.597 55.605-56.142 55.605-56.763 0-1.468-21.706-23.117-23.173-23.117-0.621 0-32.601 31.5-71.073 69.972z"></path>
  </symbol>
   <symbol xmlns="http://www.w3.org/2000/svg" viewBox="0 0 512 512" id="heart">
    <path d="M225.8 468.2l-2.5-2.3L48.1 303.2C17.4 274.7 0 234.7 0 192.8l0-3.3c0-70.4 50-130.8 119.2-144C158.6 37.9 198.9 47 231 69.6c9 6.4 17.4 13.8 25 22.3c4.2-4.8 8.7-9.2 13.5-13.3c3.7-3.2 7.5-6.2 11.5-9c0 0 0 0 0 0C313.1 47 353.4 37.9 392.8 45.4C462 58.6 512 119.1 512 189.5l0 3.3c0 41.9-17.4 81.9-48.1 110.4L288.7 465.9l-2.5 2.3c-8.2 7.6-19 11.9-30.2 11.9s-22-4.2-30.2-11.9zM239.1 145c-.4-.3-.7-.7-1-1.1l-17.8-20-.1-.1s0 0 0 0c-23.1-25.9-58-37.7-92-31.2C81.6 101.5 48 142.1 48 189.5l0 3.3c0 28.5 11.9 55.8 32.8 75.2L256 430.7 431.2 268c20.9-19.4 32.8-46.7 32.8-75.2l0-3.3c0-47.3-33.6-88-80.1-96.9c-34-6.5-69 5.4-92 31.2c0 0 0 0-.1 .1s0 0-.1 .1l-17.8 20c-.3 .4-.7 .7-1 1.1c-4.5 4.5-10.6 7-16.9 7s-12.4-2.5-16.9-7z"></path>
  </symbol>
   <symbol xmlns="http://www.w3.org/2000/svg" viewBox="0 0 512 512" id="phone">
    <path d="M164.9 24.6c-7.7-18.6-28-28.5-47.4-23.2l-88 24C12.1 30.2 0 46 0 64C0 311.4 200.6 512 448 512c18 0 33.8-12.1 38.6-29.5l24-88c5.3-19.4-4.6-39.7-23.2-47.4l-96-40c-16.3-6.8-35.2-2.1-46.3 11.6L304.7 368C234.3 334.7 177.3 277.7 144 207.3L193.3 167c13.7-11.2 18.4-30 11.6-46.3l-40-96z"></path>
  </symbol>
   <symbol version="1.1" xmlns="http://www.w3.org/2000/svg" viewBox="0 0 512 512" id="download">
    <path d="M233.565 176.78v-144.78h40.791v289.558l100.621-100.486 14.955 14.955 14.955 14.925-135.805 135.741-15.333-14.652-7.407 7.377-7.377 7.407-135.945-135.874 14.955-14.925 14.955-14.955 100.621 100.486v-144.78zM691.428 50.357l-9.212-18.358h46.537l8.329 18.358c13.083 28.826 31.239 86.243 37.462 118.501 29.914 155.113-12.105 319.101-112.62 439.641-140.089 167.964-367.235 233.128-573.851 164.63-19.449-6.458-43.617-15.468-53.711-20.061l-18.358-8.329v-46.537l18.837 9.484-3.11-1.389c30.122 14.866 61.859 26.961 98.596 36.813 129.482 33.213 265.863 13.287 377.908-55.21 94.606-57.861 167.69-147.7 206.137-253.425 44.229-121.731 35.522-267.495-22.946-384.13zM83.997 441.284v-20.397h339.937v40.791h-339.937v-20.397z"></path>
  </symbol>
</svg>