<svg width="43" height="44" viewBox="0 0 43 44" fill="none" xmlns="http://www.w3.org/2000/svg">
<path d="M4.83125 2.84473C2.53295 2.84473 0.669922 4.66346 0.669922 6.88636V39.2194C0.669922 41.4423 2.53295 43.2611 4.83125 43.2611H38.1218C40.421 43.2611 42.2832 41.4423 42.2832 39.2194V6.88636C42.2832 4.66346 40.421 2.84473 38.1218 2.84473H4.83125Z" fill="#30497B"/>
<path d="M4.83125 0.824219C2.53295 0.824219 0.669922 2.72412 0.669922 5.06792V39.0175C0.669922 41.3622 2.53295 43.2612 4.83125 43.2612H38.1218C40.421 43.2612 42.2832 41.3622 42.2832 39.0175V5.06792C42.2832 2.72412 40.421 0.824219 38.1218 0.824219H4.83125Z" fill="#3B5998"/>
<path d="M25.484 6.88672C20.8878 6.88672 17.1613 10.5058 17.1613 14.97V21.0324H13V27.0949H17.1613V41.2406H23.4033V27.0949H28.5093L29.6453 21.0324H23.4033V14.97C23.4033 13.8539 24.3355 12.9492 25.484 12.9492H29.6453V6.88672H25.484Z" fill="#ECF0F1"/>
</svg>
