<svg width="44" height="34" viewBox="0 0 44 34" fill="none" xmlns="http://www.w3.org/2000/svg">
<path d="M40.703 33.3082H3.24035C1.78772 33.3082 0.564453 32.1232 0.564453 30.6323V3.5675C0.564453 2.11487 1.7495 0.891602 3.24035 0.891602H40.703C42.1556 0.891602 43.3789 2.07664 43.3789 3.5675V30.6323C43.3789 32.1232 42.1938 33.3082 40.703 33.3082Z" fill="#E3E3E3"/>
<path opacity="0.1" d="M5.91464 33.3079L21.9318 20.4254L22.0465 19.7373L5.53237 7.84863L5.49414 32.7345L5.91464 33.3079Z" fill="#231F20"/>
<path d="M3.24035 33.3079C1.7495 33.3079 0.564453 32.1229 0.564453 30.632V3.52896C0.564453 2.0381 1.7495 1.77051 3.24035 1.77051C4.73121 1.77051 5.91626 2.07633 5.91626 3.52896V33.3079H3.24035Z" fill="#D54B3D"/>
<path d="M3.24035 2.15278C5.15171 2.15278 5.53398 2.72619 5.53398 3.52896V32.9256H3.24035C1.97886 32.9256 0.946725 31.8935 0.946725 30.632V3.52896C0.946725 2.68796 1.329 2.15278 3.24035 2.15278ZM3.24035 1.77051C1.7495 1.77051 0.564453 2.07633 0.564453 3.52896V30.632C0.564453 32.1229 1.7495 33.3079 3.24035 33.3079H5.91626V3.52896C5.91626 2.0381 4.73121 1.77051 3.24035 1.77051Z" fill="#D72B27"/>
<path d="M40.7032 33.3079H38.0273V3.4525C38.0273 1.96164 39.2124 1.77051 40.7032 1.77051C42.1941 1.77051 43.3791 1.96164 43.3791 3.4525V30.6702C43.3791 32.1229 42.1941 33.3079 40.7032 33.3079Z" fill="#D54B3D"/>
<path d="M40.7032 2.15278C42.4235 2.15278 42.9969 2.49682 42.9969 3.4525V30.6702C42.9969 31.9317 41.9647 32.9639 40.7032 32.9639H38.4096V3.4525C38.4096 2.4586 38.983 2.15278 40.7032 2.15278ZM40.7032 1.77051C39.2124 1.77051 38.0273 1.96164 38.0273 3.4525V33.3462H40.7032C42.1941 33.3462 43.3791 32.1611 43.3791 30.6702V3.4525C43.3791 1.96164 42.1941 1.77051 40.7032 1.77051Z" fill="#D72B27"/>
<path d="M29.2335 33.3079L0.787109 4.64054L2.28336 5.24916L22.085 19.5079L43.3776 3.89453V30.6702C43.3776 32.1229 42.1925 33.3079 40.7017 33.3079H29.2335Z" fill="url(#paint0_linear_27_6439)"/>
<path d="M21.9357 20.4255L1.71356 5.74629C0.52852 4.86706 0.184475 3.18507 1.0637 2.00002C1.94293 0.814982 3.66315 0.547392 4.88642 1.42662L21.974 13.8504L39.1762 1.27371C40.3612 0.394483 42.0432 0.662073 42.9225 1.88534C43.8017 3.07038 43.5341 4.75238 42.3108 5.63161L21.9357 20.4255Z" fill="#D54B3D"/>
<path d="M40.7027 1.12055C41.429 1.12055 42.1171 1.4646 42.5759 2.07623C43.3022 3.10837 43.0728 4.52277 42.0789 5.28731L21.9332 19.9665L1.94037 5.44022C0.908238 4.67568 0.640648 3.22305 1.36696 2.22914C1.78746 1.65573 2.51378 1.27346 3.27832 1.27346C3.77528 1.27346 4.27223 1.42637 4.6545 1.73219L21.7038 14.1178L21.9332 14.2707L22.1625 14.1178L39.3265 1.54105C39.747 1.27346 40.2058 1.12055 40.7027 1.12055ZM40.7027 0.738281C40.1675 0.738281 39.5941 0.89119 39.1354 1.23523L21.9332 13.812L4.84564 1.38814C4.38691 1.0441 3.8135 0.89119 3.2401 0.89119C2.3991 0.89119 1.5581 1.27346 1.02292 1.99978C0.181922 3.18482 0.525967 4.86681 1.71101 5.74604L21.9332 20.4635L42.27 5.63136C43.4551 4.75213 43.7227 3.10837 42.8817 1.8851C42.3465 1.12055 41.5437 0.738281 40.7027 0.738281Z" fill="#D72B27"/>
<defs>
<linearGradient id="paint0_linear_27_6439" x1="0.823558" y1="239.19" x2="938.079" y2="239.19" gradientUnits="userSpaceOnUse">
<stop stop-opacity="0.1"/>
<stop offset="1" stop-opacity="0.2"/>
</linearGradient>
</defs>
</svg>
