<svg width="44" height="44" viewBox="0 0 44 44" fill="none" xmlns="http://www.w3.org/2000/svg">
<path d="M40.021 0.824379H3.84543C3.02463 0.816026 2.23404 1.13363 1.64713 1.70749C1.06022 2.28136 0.724935 3.06461 0.714844 3.88539V40.2071C0.72676 41.0267 1.06285 41.8081 1.64956 42.3805C2.23626 42.9529 3.02582 43.2695 3.84543 43.2612H40.021C40.8419 43.2677 41.632 42.949 42.2186 42.3748C42.8052 41.8005 43.1406 41.0175 43.1516 40.1967V3.87496C43.137 3.05658 42.7999 2.27706 42.2137 1.70583C41.6275 1.1346 40.8395 0.817832 40.021 0.824379Z" fill="#0076B2"/>
<path d="M6.99699 16.731H13.2964V36.9998H6.99699V16.731ZM10.1484 6.64355C10.871 6.64356 11.5772 6.85785 12.1779 7.25933C12.7786 7.66081 13.2468 8.23143 13.5231 8.89901C13.7994 9.56659 13.8716 10.3011 13.7304 11.0097C13.5891 11.7183 13.2409 12.3691 12.7298 12.8797C12.2187 13.3904 11.5676 13.738 10.8588 13.8785C10.1501 14.019 9.41566 13.9462 8.74834 13.6692C8.08102 13.3923 7.51084 12.9236 7.10994 12.3225C6.70903 11.7214 6.49541 11.0149 6.4961 10.2924C6.49702 9.32436 6.88222 8.39627 7.56707 7.71207C8.25192 7.02788 9.18038 6.64355 10.1484 6.64355Z" fill="white"/>
<path d="M17.248 16.7307H23.2866V19.5135H23.3701C24.2119 17.9203 26.2641 16.2403 29.3286 16.2403C35.708 16.2264 36.8907 20.4248 36.8907 25.8686V36.9995H30.5913V27.1382C30.5913 24.7902 30.5495 21.7675 27.3181 21.7675C24.0866 21.7675 23.537 24.3276 23.537 26.9851V36.9995H17.248V16.7307Z" fill="white"/>
</svg>
