<svg width="23" height="19" viewBox="0 0 23 19" fill="none" xmlns="http://www.w3.org/2000/svg">
<path fill-rule="evenodd" clip-rule="evenodd" d="M2.52916 1.05755C2.05966 0.743836 1.29855 0.743836 0.829041 1.05755C0.359776 1.37126 0.359776 1.87987 0.829041 2.19357L10.4452 8.61993C10.9147 8.93365 11.6757 8.93365 12.1451 8.61993L21.7612 2.19357C22.2306 1.87987 22.2306 1.37126 21.7612 1.05755C21.2918 0.743836 20.5307 0.743836 20.0613 1.05755L11.2952 6.91589L2.52916 1.05755ZM2.52916 10.6971C2.05966 10.3834 1.29855 10.3834 0.829041 10.6971C0.359776 11.0108 0.359776 11.5194 0.829041 11.8331L10.4452 18.2595C10.9147 18.5732 11.6757 18.5732 12.1451 18.2595L21.7612 11.8331C22.2306 11.5194 22.2306 11.0108 21.7612 10.6971C21.2918 10.3834 20.5307 10.3834 20.0613 10.6971L11.2952 16.5554L2.52916 10.6971Z" fill="#767676" fill-opacity="0.6"/>
</svg>
