<svg width="12" height="15" viewBox="0 0 12 15" fill="none" xmlns="http://www.w3.org/2000/svg">
<path d="M8.05601 5.33377L11.4816 11.3639H11.4544L11.5264 11.4908C11.7008 11.7983 11.7933 12.1478 11.7944 12.5039C11.7955 12.8601 11.7051 13.2102 11.5325 13.5188C11.3599 13.8274 11.1113 14.0835 10.8119 14.2616C10.5126 14.4397 10.173 14.5335 9.8274 14.5338H2.29809C1.95247 14.5335 1.6129 14.4397 1.31357 14.2616C1.01423 14.0835 0.765621 13.8274 0.593031 13.5188C0.420434 13.2102 0.330035 12.8601 0.331103 12.5039C0.332171 12.1478 0.424669 11.7983 0.599111 11.4908L4.09686 5.33377L4.10795 5.31425V5.29179V1.96725V1.88225H4.02295H3.33845C3.18019 1.88225 3.02795 1.81771 2.91534 1.70208C2.80265 1.58637 2.73896 1.42897 2.73896 1.26439C2.73896 1.0998 2.80265 0.9424 2.91534 0.82669C3.02795 0.711057 3.18019 0.646523 3.33845 0.646523H8.81441C8.97267 0.646523 9.12492 0.711057 9.23753 0.82669C9.35022 0.942399 9.41391 1.0998 9.41391 1.26439C9.41391 1.42897 9.35022 1.58637 9.23753 1.70208C9.12492 1.81771 8.97267 1.88225 8.81441 1.88225H8.12992H8.04492V1.96725V5.29179V5.31425L8.05601 5.33377ZM5.22253 5.78341L5.22252 5.7834L5.22178 5.78474L4.63311 6.84606L4.5631 6.97229H4.70744H7.44542H7.59024L7.51964 6.84585L6.93097 5.79155L6.93098 5.79155L6.93035 5.79046C6.87628 5.69691 6.8471 5.5902 6.84593 5.48111V1.96725V1.88225H6.76093H5.39194H5.30694V1.96725V5.48068C5.30465 5.5875 5.27552 5.69179 5.22253 5.78341ZM10.2383 13.1838C10.2813 13.1581 10.3215 13.1284 10.3585 13.0951V13.1862L10.5176 12.9033C10.5849 12.7836 10.6202 12.6481 10.6202 12.5102C10.6202 12.3723 10.5849 12.2368 10.5176 12.1171L10.5175 12.1169L8.32708 8.25111L8.30266 8.20801H8.25313H3.90658H3.85686L3.83249 8.25135L1.66265 12.1101L1.73673 12.1517L1.66264 12.1101C1.59537 12.2297 1.56003 12.3653 1.56003 12.5032C1.56003 12.641 1.59537 12.7766 1.66264 12.8962C1.72953 13.0152 1.82574 13.1144 1.94192 13.1838C2.05812 13.2532 2.19015 13.2902 2.32487 13.291H2.3254L9.85485 13.291L9.85537 13.291C9.9901 13.2902 10.1221 13.2532 10.2383 13.1838ZM4.37525 9.88728C4.47378 9.81967 4.58938 9.78374 4.70744 9.78374C4.8657 9.78374 5.01795 9.84827 5.13056 9.9639C5.24325 10.0796 5.30694 10.237 5.30694 10.4016C5.30694 10.5243 5.2715 10.6441 5.20534 10.7457C5.13919 10.8474 5.04541 10.9263 4.93612 10.9727C4.82685 11.0192 4.70676 11.0313 4.59092 11.0077C4.47506 10.984 4.36832 10.9255 4.28433 10.8393C4.20031 10.753 4.14285 10.6428 4.11955 10.5226C4.09625 10.4023 4.10823 10.2776 4.15388 10.1644C4.19953 10.0513 4.27668 9.9549 4.37525 9.88728ZM7.11323 10.5901C7.21176 10.5225 7.32736 10.4866 7.44542 10.4866C7.60368 10.4866 7.75593 10.5511 7.86854 10.6668C7.98123 10.7825 8.04492 10.9399 8.04492 11.1045C8.04492 11.2272 8.00948 11.3469 7.94332 11.4486C7.87717 11.5502 7.78339 11.6291 7.6741 11.6756C7.56484 11.7221 7.44474 11.7342 7.3289 11.7105C7.21304 11.6869 7.1063 11.6284 7.02231 11.5422C6.93829 11.4559 6.88083 11.3457 6.85753 11.2254C6.83423 11.1051 6.84621 10.9805 6.89186 10.8673C6.93751 10.7541 7.01466 10.6578 7.11323 10.5901Z" fill="#FF8D06" stroke="white" stroke-width="0.17"/>
</svg>
