<svg width="17" height="12" viewBox="0 0 17 12" fill="none" xmlns="http://www.w3.org/2000/svg">
<path d="M1.96332 10.8134C2.12689 10.8938 2.31047 10.939 2.50442 10.939H14.9294C15.1234 10.939 15.3069 10.8938 15.4705 10.8134L10.5762 6.13744L8.98021 7.47164C8.82727 7.59949 8.60656 7.59949 8.45363 7.47164L6.85762 6.13744L1.96332 10.8134ZM1.38046 10.216C1.38429 10.2121 1.38822 10.2081 1.39224 10.2043L6.21304 5.59859L1.41281 1.58579C1.40234 1.57704 1.3924 1.56788 1.383 1.55834C1.30539 1.72299 1.26193 1.90739 1.26193 2.10209V9.6777C1.26193 9.87027 1.30444 10.0528 1.38046 10.216ZM16.0534 10.216C16.1294 10.0527 16.1719 9.87027 16.1719 9.6777V2.10209C16.1719 1.90739 16.1284 1.72299 16.0508 1.55834C16.0414 1.56788 16.0315 1.57704 16.021 1.58579L11.2208 5.59859L16.0416 10.2043C16.0456 10.2081 16.0495 10.212 16.0534 10.216ZM15.4632 0.962839C15.3015 0.884618 15.1205 0.840836 14.9294 0.840836H2.50442C2.31335 0.840836 2.13235 0.884618 1.97063 0.962839L8.71692 6.60248L15.4632 0.962839ZM2.50442 0H14.9294C16.0731 0 17.0002 0.941138 17.0002 2.10209V9.6777C17.0002 10.8387 16.0731 11.7798 14.9294 11.7798H2.50442C1.36074 11.7798 0.433594 10.8387 0.433594 9.6777V2.10209C0.433594 0.941138 1.36074 0 2.50442 0Z" fill="#FF8D06"/>
</svg>
