<svg width="22" height="21" viewBox="0 0 22 21" fill="none" xmlns="http://www.w3.org/2000/svg">
<path d="M2.73012 6.57357C2.25956 8.23075 2.3414 9.86748 2.75058 11.1564C3.18022 12.4658 4.0395 13.3864 5.10338 13.6933C5.26705 13.7547 5.36934 13.7547 5.51256 13.7547C5.57394 13.7752 5.63531 13.7752 5.69669 13.7752C5.75807 13.7956 5.8399 13.7956 5.92174 13.7956H12.8778L10.6069 19.4219C10.5864 19.5651 10.6683 19.6879 10.7501 19.7697C10.8319 19.872 10.9956 19.9334 11.0979 19.9334H14.1872C14.2895 19.9334 14.4532 19.872 14.535 19.7697C14.6169 19.6879 14.6987 19.5651 14.6782 19.4219L15.7012 13.7956H16.9492L16.9697 13.7752C17.4811 13.8365 18.0745 13.591 18.545 13.1409C19.0156 12.6908 19.4452 12.0361 19.6293 11.2178C19.8749 10.3994 19.8339 9.62197 19.6498 8.96728C19.4657 8.33305 19.0565 7.86249 18.5655 7.63744L18.545 7.61698L9.33841 2.09302C9.23612 2.03164 9.15428 1.99072 9.0929 1.92935C9.03153 1.88843 8.94969 1.84751 8.84739 1.80659C8.68372 1.72476 8.56097 1.68384 8.33592 1.62246C7.27204 1.31557 6.0445 1.72476 5.042 2.62496C4.0395 3.52516 3.15976 4.91638 2.73012 6.57357ZM5.36935 12.6908H5.3898C4.98062 12.5885 4.63282 12.343 4.32593 11.9748C3.73262 11.2587 3.44619 10.1744 3.44619 8.86499C3.44619 8.21029 3.54848 7.53514 3.73262 6.83953C4.08042 5.44831 4.77603 4.28215 5.55348 3.52516C6.33092 2.76817 7.27204 2.39991 8.06995 2.62496C8.90877 2.85001 9.50209 3.60699 9.80897 4.67087C10.1363 5.73474 10.0954 7.08504 9.74759 8.47626C9.35887 9.86748 8.72464 11.0337 7.90627 11.7906C7.10837 12.5476 6.24909 12.9159 5.36935 12.6908ZM7.96765 5.44831C7.7426 5.4074 7.53801 5.42786 7.33342 5.48923C6.9447 5.65291 6.55597 5.98025 6.29 6.51219C6.02404 7.04413 5.86036 7.73974 5.86036 8.33305C5.86036 8.63994 5.90128 8.9059 5.98312 9.15141C6.16725 9.64243 6.43322 10.0107 6.86286 10.113C7.21066 10.2153 7.68122 10.0516 8.02903 9.70381C8.37683 9.356 8.68372 8.82407 8.82693 8.16938C9.01107 7.53514 8.94969 6.90091 8.80648 6.40989C8.66326 5.91887 8.31546 5.55061 7.96765 5.44831Z" fill="white"/>
</svg>
