<svg width="17" height="18" viewBox="0 0 17 18" fill="none" xmlns="http://www.w3.org/2000/svg">
<path d="M6.12827 12.2566C6.12827 12.4725 6.04496 12.6795 5.89668 12.8321C5.7484 12.9848 5.54728 13.0705 5.33757 13.0705C5.12787 13.0705 4.92675 12.9848 4.77847 12.8321C4.63018 12.6795 4.54688 12.4725 4.54688 12.2566C4.54688 12.0407 4.63018 11.8337 4.77847 11.681C4.92675 11.5284 5.12787 11.4426 5.33757 11.4426C5.54728 11.4426 5.7484 11.5284 5.89668 11.681C6.04496 11.8337 6.12827 12.0407 6.12827 12.2566ZM9.29106 12.2566C9.29106 12.4725 9.20776 12.6795 9.05947 12.8321C8.91119 12.9848 8.71007 13.0705 8.50036 13.0705C8.29066 13.0705 8.08954 12.9848 7.94126 12.8321C7.79297 12.6795 7.70967 12.4725 7.70967 12.2566C7.70967 12.0407 7.79297 11.8337 7.94126 11.681C8.08954 11.5284 8.29066 11.4426 8.50036 11.4426C8.71007 11.4426 8.91119 11.5284 9.05947 11.681C9.20776 11.8337 9.29106 12.0407 9.29106 12.2566ZM11.6632 13.0705C11.8729 13.0705 12.074 12.9848 12.2223 12.8321C12.3705 12.6795 12.4539 12.4725 12.4539 12.2566C12.4539 12.0407 12.3705 11.8337 12.2223 11.681C12.074 11.5284 11.8729 11.4426 11.6632 11.4426C11.4534 11.4426 11.2523 11.5284 11.104 11.681C10.9558 11.8337 10.8725 12.0407 10.8725 12.2566C10.8725 12.4725 10.9558 12.6795 11.104 12.8321C11.2523 12.9848 11.4534 13.0705 11.6632 13.0705Z" fill="#FF8D06"/>
<path fill-rule="evenodd" clip-rule="evenodd" d="M3.16279 5.74419V6.80477C2.9833 6.81779 2.81488 6.83407 2.65516 6.85686C1.94353 6.95453 1.34419 7.16616 0.868186 7.65535C0.392186 8.14535 0.188186 8.76233 0.0925116 9.49488C-1.17823e-08 10.2006 0 11.0984 0 12.211V12.3006C0 13.4133 -1.17823e-08 14.311 0.0925116 15.0167C0.187395 15.7493 0.392977 16.3663 0.868186 16.8563C1.34419 17.3463 1.94353 17.5563 2.65516 17.6556C3.3407 17.75 4.21284 17.75 5.29372 17.75H11.7063C12.7872 17.75 13.6593 17.75 14.3448 17.6556C15.0565 17.5563 15.6558 17.3463 16.1318 16.8563C16.6078 16.3663 16.8118 15.7493 16.9083 15.0167C17 14.311 17 13.4133 17 12.3006V12.211C17 11.0984 17 10.2006 16.9083 9.49488C16.8118 8.76233 16.6078 8.14535 16.1318 7.65535C15.6558 7.16535 15.0565 6.95535 14.3448 6.85686C14.1762 6.834 14.0069 6.81663 13.8372 6.80477V5.74419C13.8372 4.28704 13.2749 2.88957 12.274 1.85921C11.2731 0.82885 9.91552 0.25 8.5 0.25C7.08448 0.25 5.72694 0.82885 4.72602 1.85921C3.7251 2.88957 3.16279 4.28704 3.16279 5.74419ZM8.5 1.47093C7.39904 1.47093 6.34318 1.92115 5.56468 2.72254C4.78619 3.52393 4.34884 4.61085 4.34884 5.74419V6.76407C4.64377 6.76163 4.95926 6.76163 5.29372 6.76163H11.7063C12.0407 6.76163 12.3562 6.76163 12.6512 6.76407V5.74419C12.6512 3.38372 10.793 1.47093 8.5 1.47093ZM2.8133 8.06639C2.23293 8.14698 1.92614 8.2943 1.70712 8.51895C1.48809 8.74442 1.34577 9.06023 1.26749 9.65849C1.18763 10.273 1.18605 11.0878 1.18605 12.2558C1.18605 13.4238 1.18763 14.2386 1.26749 14.854C1.34577 15.4514 1.48888 15.7672 1.70712 15.9927C1.92614 16.2181 2.23293 16.3647 2.81409 16.4452C3.41028 16.5274 4.20256 16.5291 5.33721 16.5291H11.6628C12.7974 16.5291 13.5889 16.5274 14.1867 16.4452C14.7671 16.3647 15.0739 16.2173 15.2929 15.9927C15.5119 15.7672 15.6542 15.4514 15.7325 14.8531C15.8124 14.2386 15.814 13.4238 15.814 12.2558C15.814 11.0878 15.8124 10.2722 15.7325 9.65767C15.6542 9.06023 15.5111 8.74442 15.2929 8.51895C15.0739 8.29349 14.7671 8.14698 14.1859 8.06639C13.5889 7.98419 12.7974 7.98256 11.6628 7.98256H5.33721C4.20256 7.98256 3.41028 7.98419 2.8133 8.06639Z" fill="#FF8D06"/>
</svg>
