<svg width="23" height="23" viewBox="0 0 23 23" fill="none" xmlns="http://www.w3.org/2000/svg">
<path d="M16.7469 1.92982C17.4051 1.27177 18.2978 0.902172 19.2286 0.902344C20.1593 0.902516 21.0519 1.27244 21.7099 1.93074C22.3679 2.58904 22.7375 3.48178 22.7373 4.41259C22.7371 5.34339 22.3672 6.236 21.709 6.89406L20.3653 8.2396L15.4014 3.27537L16.7469 1.93166V1.92982ZM14.1073 4.57142L3.18958 15.4861C2.85819 15.8178 2.60843 16.222 2.46002 16.6667L0.784608 21.6951C0.730626 21.8566 0.722673 22.0299 0.761642 22.1956C0.800611 22.3613 0.884961 22.5129 1.00524 22.6334C1.12552 22.7538 1.27697 22.8384 1.44262 22.8777C1.60827 22.9169 1.78157 22.9092 1.9431 22.8555L6.97118 21.1781C7.41662 21.0315 7.81989 20.7803 8.15167 20.4485L19.0694 9.53566L14.1054 4.56959L14.1073 4.57142Z" fill="#636363"/>
</svg>
