<svg width="13" height="17" viewBox="0 0 13 17" fill="none" xmlns="http://www.w3.org/2000/svg">
<path d="M7.47927 1.00269C7.34787 0.972406 7.21569 0.950328 7.08221 0.931192C6.89698 0.904637 6.7075 0.890625 6.51378 0.890625C4.47392 0.890625 2.82392 2.45386 2.82392 4.37728V6.36753C2.82392 7.16462 3.10857 7.90118 3.5886 8.48862C3.7619 8.70069 3.87929 8.95819 3.87929 9.23206C3.87929 9.69882 3.55817 10.1042 3.10381 10.2111L2.00089 10.4706C0.630478 10.7936 -0.224058 12.0672 0.0515986 13.3743L0.713175 16.4896C0.764368 16.7235 0.980956 16.8906 1.22905 16.8906H11.771C12.023 16.8906 12.2396 16.7235 12.2868 16.4896L12.9484 13.3743C13.2241 12.0709 12.3695 10.7936 10.9991 10.4706C10.9321 10.4553 10.3213 10.3148 9.80498 10.196C9.37931 10.098 9.07739 9.7188 9.07739 9.282C9.07739 9.01961 9.19254 8.77348 9.36467 8.57544C9.88808 7.97329 10.2036 7.20422 10.2036 6.36753V4.37728C10.2036 4.1285 10.1761 3.88714 10.1249 3.65321C9.71026 1.68315 8.05395 1.13514 7.47927 1.00269ZM8.43157 10.8957C8.43157 10.8968 8.43231 10.8978 8.43336 10.898L8.48889 10.9111C8.54242 10.9237 8.56404 10.9879 8.52724 11.0288C8.03394 11.5766 7.30223 11.9076 6.51378 11.9076C5.72552 11.9076 4.98334 11.5734 4.48895 11.016C4.45201 10.9743 4.47468 10.9095 4.52905 10.8976C4.76533 10.8419 4.93072 10.6414 4.93072 10.4149C4.93072 9.99121 5.37329 9.70359 5.78953 9.78259C6.02359 9.82702 6.26567 9.85048 6.51378 9.85048C6.75579 9.85048 6.98274 9.83019 7.19952 9.79163C7.60533 9.71945 8.0299 9.99898 8.0299 10.4112C8.0299 10.6408 8.19443 10.8409 8.42973 10.8935C8.4308 10.8937 8.43157 10.8947 8.43157 10.8957ZM9.16009 6.36382C9.16009 7.73769 7.96689 8.85164 6.51378 8.85164C5.06068 8.85164 3.87535 7.73398 3.87535 6.36382C3.87535 5.53943 4.54365 4.87113 5.36804 4.87113H6.51378C7.31502 4.87113 8.08179 4.6237 8.70973 4.18626C8.89256 4.05888 9.16009 4.14703 9.16009 4.36985V6.36011V6.36382ZM6.51378 1.88204C7.92444 1.88204 7.92444 3.87229 6.51378 3.87229C5.18249 3.87229 4.33525 2.47981 5.59118 2.03825C5.87849 1.93724 6.18939 1.88204 6.51378 1.88204ZM11.9226 13.1719C11.9213 13.1731 11.9204 13.1747 11.92 13.1764L11.7605 13.9304C11.5187 15.0738 10.5095 15.8918 9.34085 15.8918H4.44433C2.82484 15.8918 1.42637 14.7582 1.09122 13.1738C0.925825 12.3903 1.43776 11.6254 2.26079 11.4323C2.89835 11.2814 3.5429 11.582 4.04221 12.0062C4.7084 12.5722 5.58467 12.9027 6.51772 12.9027C7.45452 12.9027 8.33013 12.5714 8.995 12.0036C9.48774 11.5829 10.1233 11.2841 10.755 11.4286C11.5771 11.6214 12.0888 12.3848 11.9251 13.1674C11.9247 13.1691 11.9238 13.1707 11.9226 13.1719Z" fill="#FF8D06"/>
</svg>
