<svg width="25" height="25" viewBox="0 0 25 25" fill="none" xmlns="http://www.w3.org/2000/svg">
<path d="M21.0431 13.8309H13.9003V20.9738C13.9003 21.3527 13.7497 21.716 13.4818 21.9839C13.2139 22.2518 12.8506 22.4023 12.4717 22.4023C12.0928 22.4023 11.7294 22.2518 11.4615 21.9839C11.1936 21.716 11.0431 21.3527 11.0431 20.9738V13.8309H3.90025C3.52137 13.8309 3.15801 13.6804 2.8901 13.4125C2.62219 13.1446 2.47168 12.7812 2.47168 12.4023C2.47168 12.0235 2.62219 11.6601 2.8901 11.3922C3.15801 11.1243 3.52137 10.9738 3.90025 10.9738H11.0431V3.83092C11.0431 3.45203 11.1936 3.08867 11.4615 2.82076C11.7294 2.55285 12.0928 2.40234 12.4717 2.40234C12.8506 2.40234 13.2139 2.55285 13.4818 2.82076C13.7497 3.08867 13.9003 3.45203 13.9003 3.83092V10.9738H21.0431C21.422 10.9738 21.7854 11.1243 22.0533 11.3922C22.3212 11.6601 22.4717 12.0235 22.4717 12.4023C22.4717 12.7812 22.3212 13.1446 22.0533 13.4125C21.7854 13.6804 21.422 13.8309 21.0431 13.8309Z" fill="#39B8A2" stroke="#39B8A2"/>
</svg>
