<svg width="22" height="18" viewBox="0 0 22 18" fill="none" xmlns="http://www.w3.org/2000/svg">
<path d="M2.7477 10.4783C2.68002 9.26763 3.05596 8.07375 3.80514 7.12025C4.55431 6.16676 5.62535 5.51903 6.8177 5.29834L6.0277 6.07834C5.93512 6.17093 5.86168 6.28084 5.81158 6.4018C5.76147 6.52276 5.73568 6.65241 5.73568 6.78334C5.73568 7.04777 5.84073 7.30137 6.0277 7.48834C6.21468 7.67532 6.46828 7.78036 6.7327 7.78036C6.99713 7.78036 7.25073 7.67532 7.4377 7.48834L10.0277 4.89834C10.1204 4.80583 10.194 4.69594 10.2441 4.57497C10.2943 4.45399 10.3201 4.32431 10.3201 4.19334C10.3201 4.06238 10.2943 3.93269 10.2441 3.81172C10.194 3.69075 10.1204 3.58086 10.0277 3.48834L7.4477 0.898344C7.26073 0.711366 7.00713 0.606323 6.7427 0.606323C6.47828 0.606323 6.22468 0.711366 6.0377 0.898344C5.85073 1.08532 5.74568 1.33892 5.74568 1.60334C5.74568 1.86777 5.85073 2.12137 6.0377 2.30834L6.9177 3.18834V3.24834C5.12754 3.46106 3.48861 4.3567 2.34278 5.74847C1.19695 7.14023 0.632694 8.92065 0.767704 10.7183C1.0277 14.4183 4.2877 17.1983 7.9977 17.1983H9.7377C10.2877 17.1983 10.7377 16.7483 10.7377 16.1983C10.7377 15.6483 10.2877 15.1983 9.7377 15.1983H7.9577C5.2577 15.1983 2.8877 13.1583 2.7477 10.4783ZM12.7377 12.1983V15.1983C12.7377 16.2983 13.6377 17.1983 14.7377 17.1983H19.7377C20.8377 17.1983 21.7377 16.2983 21.7377 15.1983V12.1983C21.7377 11.0983 20.8377 10.1983 19.7377 10.1983H14.7377C13.6377 10.1983 12.7377 11.0983 12.7377 12.1983ZM19.7377 15.1983H14.7377V12.1983H19.7377V15.1983ZM19.7377 1.19834H14.7377C13.6377 1.19834 12.7377 2.09834 12.7377 3.19834V6.19834C12.7377 7.29834 13.6377 8.19834 14.7377 8.19834H19.7377C20.8377 8.19834 21.7377 7.29834 21.7377 6.19834V3.19834C21.7377 2.09834 20.8377 1.19834 19.7377 1.19834Z" fill="white"/>
</svg>
