<svg width="24" height="24" viewBox="0 0 24 24" fill="none" xmlns="http://www.w3.org/2000/svg">
<path d="M23.4642 12.446C23.4642 6.12309 18.2053 0.970703 11.7516 0.970703C5.29801 0.970703 0.0390625 6.12309 0.0390625 12.446C0.0390625 15.7738 1.50314 18.7688 3.82223 20.8688C3.82223 20.8803 3.82223 20.8803 3.81051 20.8917C3.92764 21.0065 4.06819 21.0983 4.18532 21.2016C4.25559 21.2589 4.31416 21.3163 4.38443 21.3622C4.59526 21.5344 4.82951 21.695 5.05205 21.8557C5.13404 21.913 5.20431 21.9589 5.2863 22.0163C5.50884 22.1655 5.74309 22.3032 5.98906 22.4294C6.07104 22.4753 6.16474 22.5327 6.24673 22.5786C6.48098 22.7048 6.72695 22.8196 6.98463 22.9229C7.07833 22.9688 7.17203 23.0147 7.26573 23.0491C7.52341 23.1524 7.78108 23.2442 8.03876 23.3245C8.13246 23.3589 8.22616 23.3933 8.31986 23.4163C8.60096 23.4966 8.88206 23.5655 9.16317 23.6343C9.24515 23.6573 9.32714 23.6802 9.42084 23.6917C9.7488 23.7605 10.0767 23.8065 10.4164 23.8409C10.4633 23.8409 10.5101 23.8524 10.557 23.8638C10.9552 23.8983 11.3534 23.9212 11.7516 23.9212C12.1499 23.9212 12.5481 23.8983 12.9346 23.8638C12.9815 23.8638 13.0283 23.8524 13.0752 23.8409C13.4148 23.8065 13.7428 23.7605 14.0707 23.6917C14.1527 23.6802 14.2347 23.6458 14.3284 23.6343C14.6095 23.5655 14.9023 23.5081 15.1717 23.4163C15.2654 23.3819 15.3591 23.3474 15.4528 23.3245C15.7105 23.2327 15.9799 23.1524 16.2259 23.0491C16.3196 23.0147 16.4133 22.9688 16.507 22.9229C16.7529 22.8196 16.9989 22.7048 17.2449 22.5786C17.3386 22.5327 17.4205 22.4753 17.5025 22.4294C17.7368 22.2917 17.971 22.1655 18.2053 22.0163C18.2873 21.9704 18.3575 21.913 18.4395 21.8557C18.6738 21.695 18.8963 21.5344 19.1072 21.3622C19.1774 21.3048 19.236 21.2475 19.3063 21.2016C19.4351 21.0983 19.5639 20.995 19.6811 20.8917C19.6811 20.8803 19.6811 20.8803 19.6694 20.8688C22.0002 18.7688 23.4642 15.7738 23.4642 12.446ZM17.5377 18.1492C14.3636 16.0607 9.16317 16.0607 5.96563 18.1492C5.45028 18.4819 5.02862 18.8721 4.67725 19.2967C2.89693 17.5295 1.79595 15.1082 1.79595 12.446C1.79595 7.06406 6.25845 2.69199 11.7516 2.69199C17.2449 2.69199 21.7073 7.06406 21.7073 12.446C21.7073 15.1082 20.6064 17.5295 18.8261 19.2967C18.4864 18.8721 18.053 18.4819 17.5377 18.1492Z" fill="#FF8D06"/>
<path d="M11.7516 6.62695C9.32709 6.62695 7.35938 8.5548 7.35938 10.9302C7.35938 13.2597 9.22168 15.1531 11.693 15.2219H11.7984H11.8804H11.9039C14.2698 15.1416 16.1321 13.2597 16.1438 10.9302C16.1438 8.5548 14.1761 6.62695 11.7516 6.62695Z" fill="#FF8D06"/>
</svg>
