<svg width="27" height="28" viewBox="0 0 27 28" fill="none" xmlns="http://www.w3.org/2000/svg">
<path d="M11.6071 19.2222V24.7665C11.6071 24.8624 11.6427 24.9545 11.7063 25.0229C11.7699 25.0913 11.8563 25.1304 11.9469 25.1319H14.4385C14.5291 25.1304 14.6155 25.0913 14.6791 25.0229C14.7427 24.9545 14.7783 24.8624 14.7783 24.7665V19.2222M13.1927 2.86328C12.1042 2.86328 11.0603 3.32108 10.2906 4.13597C9.52095 4.95086 9.08855 6.05609 9.08855 7.20852V12.5873C9.08855 13.7397 9.52095 14.8449 10.2906 15.6598C11.0603 16.4747 12.1042 16.9325 13.1927 16.9325V16.9325C14.2812 16.9325 15.3251 16.4747 16.0948 15.6598C16.8645 14.8449 17.2969 13.7397 17.2969 12.5873V7.20852C17.2969 6.05609 16.8645 4.95086 16.0948 4.13597C15.3251 3.32108 14.2812 2.86328 13.1927 2.86328V2.86328Z" stroke="#636363" stroke-width="0.75" stroke-linecap="round" stroke-linejoin="round"/>
<path d="M19.541 13.877C19.2492 15.4321 18.4571 16.8319 17.2996 17.8379C16.1421 18.8439 14.6909 19.3938 13.1933 19.3938C11.6958 19.3938 10.2446 18.8439 9.08707 17.8379C7.92957 16.8319 7.13741 15.4321 6.84562 13.877" stroke="#636363" stroke-width="0.75" stroke-linecap="round" stroke-linejoin="round"/>
</svg>
