<svg width="28" height="29" viewBox="0 0 28 29" fill="none" xmlns="http://www.w3.org/2000/svg">
<path fill-rule="evenodd" clip-rule="evenodd" d="M19.1775 18.1798L25.3497 24.4452C25.5667 24.6656 25.6885 24.9644 25.6884 25.2759C25.6883 25.5875 25.5663 25.8862 25.3492 26.1065C25.1321 26.3267 24.8377 26.4503 24.5308 26.4502C24.2239 26.4501 23.9296 26.3263 23.7126 26.1059L17.5404 19.8405C15.6952 21.2911 13.375 21.9738 11.0516 21.7496C8.72826 21.5254 6.57629 20.4111 5.03352 18.6335C3.49075 16.8559 2.67305 14.5484 2.74677 12.1805C2.8205 9.81262 3.78011 7.56217 5.43038 5.88698C7.08066 4.21179 9.29764 3.23769 11.6303 3.16286C13.963 3.08802 16.2362 3.91806 17.9874 5.48413C19.7385 7.05019 20.8362 9.23464 21.0571 11.5931C21.278 13.9515 20.6055 16.3068 19.1764 18.1798H19.1775ZM11.9211 19.462C13.7467 19.462 15.4976 18.7258 16.7885 17.4154C18.0794 16.105 18.8046 14.3277 18.8046 12.4745C18.8046 10.6213 18.0794 8.84404 16.7885 7.53364C15.4976 6.22323 13.7467 5.48706 11.9211 5.48706C10.0955 5.48706 8.34461 6.22323 7.0537 7.53364C5.76279 8.84404 5.03756 10.6213 5.03756 12.4745C5.03756 14.3277 5.76279 16.105 7.0537 17.4154C8.34461 18.7258 10.0955 19.462 11.9211 19.462Z" fill="white"/>
</svg>
