<svg width="25" height="6" viewBox="0 0 25 6" fill="none" xmlns="http://www.w3.org/2000/svg">
<path d="M21.9681 0.402344C22.7025 0.402344 23.4069 0.665736 23.9262 1.13458C24.4455 1.60342 24.7373 2.2393 24.7373 2.90234C24.7373 3.56538 24.4455 4.20127 23.9262 4.67011C23.4069 5.13895 22.7025 5.40234 21.9681 5.40234C21.2336 5.40234 20.5293 5.13895 20.0099 4.67011C19.4906 4.20127 19.1988 3.56538 19.1988 2.90234C19.1988 2.2393 19.4906 1.60342 20.0099 1.13458C20.5293 0.665736 21.2336 0.402344 21.9681 0.402344ZM12.7373 0.402344C13.4718 0.402344 14.1761 0.665736 14.6954 1.13458C15.2148 1.60342 15.5065 2.2393 15.5065 2.90234C15.5065 3.56538 15.2148 4.20127 14.6954 4.67011C14.1761 5.13895 13.4718 5.40234 12.7373 5.40234C12.0029 5.40234 11.2985 5.13895 10.7792 4.67011C10.2598 4.20127 9.96807 3.56538 9.96807 2.90234C9.96807 2.2393 10.2598 1.60342 10.7792 1.13458C11.2985 0.665736 12.0029 0.402344 12.7373 0.402344ZM3.50653 0.402344C4.24098 0.402344 4.94535 0.665736 5.46468 1.13458C5.98401 1.60342 6.27577 2.2393 6.27577 2.90234C6.27577 3.56538 5.98401 4.20127 5.46468 4.67011C4.94535 5.13895 4.24098 5.40234 3.50653 5.40234C2.77209 5.40234 2.06772 5.13895 1.54839 4.67011C1.02906 4.20127 0.737305 3.56538 0.737305 2.90234C0.737305 2.2393 1.02906 1.60342 1.54839 1.13458C2.06772 0.665736 2.77209 0.402344 3.50653 0.402344Z" fill="#636363"/>
</svg>
