<svg width="23" height="23" viewBox="0 0 23 23" fill="none" xmlns="http://www.w3.org/2000/svg">
<path fill-rule="evenodd" clip-rule="evenodd" d="M13.8273 2.73364C14.2121 2.73374 14.5871 2.8549 14.8992 3.07997C15.2113 3.30503 15.4446 3.62258 15.5662 3.98764L16.064 5.48364H19.0706C19.3138 5.48364 19.5469 5.58022 19.7188 5.75213C19.8907 5.92404 19.9873 6.15719 19.9873 6.40031C19.9873 6.64342 19.8907 6.87658 19.7188 7.04849C19.5469 7.2204 19.3138 7.31698 19.0706 7.31698L19.0679 7.38206L18.2731 18.5131C18.2235 19.2067 17.913 19.8557 17.4042 20.3296C16.8953 20.8034 16.2258 21.0669 15.5305 21.067H7.94414C7.24881 21.0669 6.57932 20.8034 6.07044 20.3296C5.56156 19.8557 5.25107 19.2067 5.20147 18.5131L4.40672 7.38114C4.40506 7.35979 4.40415 7.33839 4.40397 7.31698C4.16086 7.31698 3.9277 7.2204 3.75579 7.04849C3.58388 6.87658 3.4873 6.64342 3.4873 6.40031C3.4873 6.15719 3.58388 5.92404 3.75579 5.75213C3.9277 5.58022 4.16086 5.48364 4.40397 5.48364H7.41064L7.90839 3.98764C8.03003 3.62243 8.26354 3.30477 8.57581 3.0797C8.88809 2.85462 9.26329 2.73355 9.64822 2.73364H13.8273ZM8.9873 10.067C8.76278 10.067 8.54608 10.1494 8.3783 10.2986C8.21051 10.4478 8.10332 10.6534 8.07705 10.8764L8.07064 10.9836V16.4836C8.0709 16.7173 8.16036 16.942 8.32075 17.1119C8.48114 17.2818 8.70035 17.384 8.93358 17.3977C9.16682 17.4114 9.39649 17.3355 9.57565 17.1856C9.75482 17.0356 9.86996 16.8229 9.89755 16.5909L9.90397 16.4836V10.9836C9.90397 10.7405 9.80739 10.5074 9.63549 10.3355C9.46358 10.1636 9.23042 10.067 8.9873 10.067ZM14.4873 10.067C14.2442 10.067 14.011 10.1636 13.8391 10.3355C13.6672 10.5074 13.5706 10.7405 13.5706 10.9836V16.4836C13.5706 16.7268 13.6672 16.9599 13.8391 17.1318C14.011 17.3037 14.2442 17.4003 14.4873 17.4003C14.7304 17.4003 14.9636 17.3037 15.1355 17.1318C15.3074 16.9599 15.404 16.7268 15.404 16.4836V10.9836C15.404 10.7405 15.3074 10.5074 15.1355 10.3355C14.9636 10.1636 14.7304 10.067 14.4873 10.067ZM13.8273 4.56698H9.64731L9.34205 5.48364H14.1326L13.8273 4.56698Z" fill="#636363"/>
</svg>
