<svg width="540" height="397" viewBox="0 0 540 397" fill="none" xmlns="http://www.w3.org/2000/svg">
<path d="M539.829 256.08C534.283 213.148 513.106 174.256 481.845 146.476C485.375 139.91 487.392 130.818 486.887 121.221C486.383 103.038 478.82 78.7939 458.148 65.1565C438.484 52.0242 414.786 53.0344 396.635 60.6107C386.046 25.7595 353.273 0 314.953 0C271.592 0 235.289 32.8308 230.247 75.2583C146.045 69.7023 62.8509 80.8142 -17.3178 108.594C-22.3598 110.615 -25.3851 116.17 -23.3683 121.221C-21.8557 125.262 -17.822 127.788 -13.7884 127.788C-12.78 127.788 -11.7716 127.788 -10.2589 127.282C67.3887 100.008 148.062 88.8957 230.247 94.9567C234.785 137.889 271.088 171.225 315.458 171.225C362.853 171.225 401.173 132.838 401.173 85.36C401.173 83.8448 401.173 82.3295 401.173 80.8142C414.282 73.743 432.938 71.2176 448.064 81.3193C462.181 90.916 467.728 108.089 467.728 121.221C467.728 126.272 467.223 130.313 466.215 133.344C451.089 122.737 433.946 114.15 415.794 108.594C410.248 107.079 404.702 110.109 403.189 115.16C401.677 120.716 404.702 126.272 409.744 127.788C428.4 133.344 445.038 142.435 460.165 153.547C461.173 155.062 462.686 156.073 464.198 157.083C494.451 182.337 515.123 218.198 520.669 258.1C520.669 258.1 520.669 258.606 520.165 258.606C495.459 273.758 467.728 283.355 438.988 285.88C437.98 285.88 436.971 285.88 435.963 285.88C434.45 285.88 432.938 285.88 431.425 285.88C369.408 288.406 323.525 258.1 305.878 244.463C301.34 240.927 295.29 241.938 291.76 245.978C288.231 250.524 289.239 256.585 293.273 260.121C308.399 272.243 344.197 295.982 392.097 303.559C380.5 311.64 369.912 321.237 361.34 332.349C349.744 348.006 341.676 366.19 338.147 385.383C337.139 390.939 340.668 395.99 346.214 397C346.718 397 347.727 397 348.231 397C352.769 397 357.307 393.464 358.315 388.919C361.34 372.756 368.399 357.603 377.979 344.471C392.097 325.782 412.769 312.145 434.954 305.579C436.971 305.579 438.988 305.579 441.005 305.074C472.77 302.043 504.03 291.941 531.258 274.768C537.308 272.243 540.837 264.667 539.829 256.08ZM314.953 151.527C278.651 151.527 249.407 122.232 249.407 85.8651C249.407 49.4987 278.651 20.2036 314.953 20.2036C347.223 20.2036 374.45 43.9427 379.492 75.2583C379.492 76.7735 379.492 77.7837 379.996 79.299C379.996 81.3193 380.5 83.8448 380.5 85.8651C380.5 122.232 351.256 151.527 314.953 151.527ZM342.181 86.3702C342.181 101.523 330.08 113.14 315.458 113.14C300.332 113.14 288.231 101.018 288.231 86.3702C288.231 71.7226 300.332 59.0954 315.458 59.0954C330.08 59.0954 342.181 71.2176 342.181 86.3702ZM288.735 231.836C283.189 231.836 278.147 234.361 275.121 238.402C272.096 242.948 272.096 249.009 275.625 254.06C278.651 258.606 277.138 265.172 272.6 268.202C271.088 269.212 269.071 269.718 267.054 269.718C263.525 269.718 260.499 268.202 258.482 265.172C250.919 253.555 250.919 238.907 258.482 227.29C265.541 217.693 276.634 212.137 288.231 212.137H288.735C294.281 212.137 298.819 216.683 298.819 222.239C298.819 227.29 294.281 231.836 288.735 231.836Z" fill="#EEEEEE"/>
</svg>
