<svg width="36" height="36" viewBox="0 0 36 36" fill="none" xmlns="http://www.w3.org/2000/svg">
<path d="M28.8 18.0089C28.8 18.9853 29.61 19.7843 30.6 19.7843H34.2C35.19 19.7843 36 18.9853 36 18.0089C36 17.0324 35.19 16.2335 34.2 16.2335H30.6C29.61 16.2335 28.8 17.0324 28.8 18.0089Z" fill="white"/>
<path d="M26.262 26.5663C25.668 27.3475 25.83 28.4305 26.622 28.9986C27.576 29.691 28.584 30.4367 29.538 31.1468C30.33 31.7327 31.446 31.5729 32.022 30.7917C32.022 30.774 32.04 30.774 32.04 30.7562C32.634 29.9751 32.472 28.8743 31.68 28.3062C30.726 27.596 29.718 26.8504 28.782 26.1579C27.99 25.5721 26.874 25.7496 26.28 26.5308C26.28 26.5485 26.262 26.5663 26.262 26.5663Z" fill="white"/>
<path d="M32.058 5.24377C32.058 5.22602 32.04 5.22602 32.04 5.20826C31.446 4.42709 30.33 4.2673 29.556 4.85318C28.602 5.56334 27.576 6.30901 26.64 7.01917C25.848 7.60505 25.704 8.7058 26.298 9.46922C26.298 9.48697 26.316 9.48697 26.316 9.50472C26.91 10.2859 28.008 10.4457 28.8 9.8598C29.754 9.1674 30.762 8.40398 31.716 7.69382C32.49 7.12569 32.634 6.02494 32.058 5.24377Z" fill="white"/>
<path d="M10.8 12.6827H3.6C1.62 12.6827 0 14.2805 0 16.2335V19.7843C0 21.7372 1.62 23.3351 3.6 23.3351H5.4V28.6613C5.4 29.6377 6.21 30.4367 7.2 30.4367C8.19 30.4367 9 29.6377 9 28.6613V23.3351H10.8L18.2907 27.7681C18.9573 28.1626 19.8 27.6821 19.8 26.9075V9.11029C19.8 8.33569 18.9573 7.85519 18.2907 8.24969L10.8 12.6827Z" fill="white"/>
<path d="M25.2 18.0702C25.2 15.7089 24.156 13.5784 22.5 12.1226V24C24.156 22.5619 25.2 20.4315 25.2 18.0702Z" fill="white"/>
</svg>
