<svg width="36" height="36" viewBox="0 0 36 36" fill="none" xmlns="http://www.w3.org/2000/svg">
<path d="M9.42857 0H26.5714C28.4571 0 30 1.47273 30 3.27273V14.0455C30 14.9455 29.2286 15.6818 28.2857 15.6818C27.3429 15.6818 26.5714 14.9455 26.5714 14.0455V4.90909H9.42857V31.0909H14.5714C14.5714 31.0909 18 30.3199 18 33.75C18 35.55 16.4571 36 14.5714 36H9.42857C7.54285 36 6 34.5273 6 32.7273V3.27273C6 1.47273 7.54285 0 9.42857 0Z" fill="white"/>
<path d="M27.0214 18C22.106 18 18.0429 22.0315 18.0003 26.9716C17.9577 31.8975 22.0492 36 27.0072 36C31.951 36 35.9999 31.9685 35.9999 27.0426C36.0283 22.0741 31.9794 18 27.0214 18ZM21.7792 30.0804C20.2734 28.0647 20.6427 24.7571 22.6174 22.7271C24.6347 20.6546 27.888 20.2429 30.0758 21.7476C27.2913 24.5442 24.5353 27.3123 21.7792 30.0804ZM32.2636 23.9196C33.741 26.205 33.3717 29.3423 31.3544 31.358C29.337 33.3738 26.1832 33.7429 23.9102 32.2666C26.6947 29.4842 29.4933 26.7019 32.2636 23.9196Z" fill="white"/>
</svg>
