<svg width="100" height="100" viewBox="0 0 100 100" fill="none" xmlns="http://www.w3.org/2000/svg">
<path d="M0 100V0H15.0238L23.2868 65.375H24.2884L21.6593 0H33.8035V100H18.7797L10.5166 34.625H9.51505L12.1442 100H0Z" fill="#54766E"/>
<path d="M37.2904 100V0H51.3126C61.9545 0 65.8356 5.5 65.8356 17.625V82.375C65.8356 94.5 61.0781 100 50.8118 100H37.2904ZM49.8102 88.125H51.0622C52.6898 88.125 53.3158 87.375 53.3158 85.125V14.875C53.3158 12.625 52.6898 11.875 51.0622 11.875H49.8102V88.125Z" fill="#54766E"/>
<path d="M67.6989 100L73.7084 0H93.9905L100 100H87.8558L86.2282 61.25H81.2203L79.5927 100H67.6989ZM81.7211 50H85.7274L84.225 12.5H83.2235L81.7211 50Z" fill="#54766E"/>
</svg>
