<svg width="200" height="60" viewBox="0 0 200 60" fill="none" xmlns="http://www.w3.org/2000/svg">
<path d="M0 60L10.5284 0H25.9891L42.3034 32.4762L47.9944 0H64.5933L54.0649 60H38.6042L22.195 27.6191L16.5989 60H0Z" fill="#54766E"/>
<path d="M53.0867 60L63.6151 0H84.4823C88.4028 0 91.9755 0.730159 95.2004 2.19048C98.4886 3.65079 101.271 5.65079 103.547 8.19048C105.887 10.6667 107.689 13.5873 108.954 16.9524C110.282 20.3175 110.946 23.873 110.946 27.6191C110.946 32.127 110.029 36.381 108.195 40.381C106.424 44.3175 103.99 47.746 100.891 50.6667C97.793 53.5238 94.1887 55.8095 90.0785 57.5238C85.9683 59.1746 81.6052 60 76.9891 60H53.0867ZM72.2466 44.7619H78.0324C80.1192 44.7619 82.1426 44.381 84.1029 43.619C86.0631 42.7937 87.7704 41.6825 89.2248 40.2857C90.6792 38.8254 91.849 37.1429 92.7343 35.2381C93.6196 33.3333 94.0622 31.2381 94.0622 28.9524C94.0622 27.1111 93.7777 25.3651 93.2085 23.7143C92.6394 22 91.8174 20.5397 90.7424 19.3333C89.6675 18.0635 88.3395 17.0794 86.7587 16.381C85.2411 15.619 83.5022 15.2381 81.5419 15.2381H77.4633L72.2466 44.7619Z" fill="#54766E"/>
<path d="M94.6513 60L125.857 0H144.732L154.881 60H137.524L136.101 48.9524H117.89L112.673 60H94.6513ZM124.434 35.1429H134.394L132.402 18.4762L124.434 35.1429Z" fill="#54766E"/>
<path d="M163.04 59.8661V37.3083H141.298V22.7549H163.04V0.197084H178.259V22.7549H200V37.3083H178.259V59.8661H163.04Z" fill="#54766E"/>
</svg>
