<svg width="219" height="73" viewBox="0 0 219 73" fill="none" xmlns="http://www.w3.org/2000/svg">
<path d="M41.7579 12.5651H61.9198V17.3736L56.099 17.9641C55.3679 18.639 55.0024 19.4545 55.0024 20.4105V72.0385H47.41L14.5098 27.4124V63.7713C14.5098 64.7274 14.8754 65.5428 15.6065 66.2177L21.8491 66.8082V71.6167H1.68719V66.8082L7.50799 66.2177C8.23911 65.5428 8.60466 64.7274 8.60466 63.7713V19.3982C8.21099 18.8358 7.87355 18.4703 7.59235 18.3016C7.36739 18.1328 7.08619 18.0204 6.74876 17.9641L0 17.3736V12.5651H20.7524L49.0972 51.033V20.4105C49.0972 19.4545 48.7316 18.639 48.0005 17.9641L41.7579 17.3736V12.5651Z" fill="#F2F2F2" fill-opacity="0.3"/>
<path d="M63.6716 71.6167V66.8082L69.4924 66.2177C70.2235 65.5991 70.5891 64.7836 70.5891 63.7713V20.4105C70.5891 19.3982 70.2235 18.5828 69.4924 17.9641L63.6716 17.3736V12.5651H90.4979C100.79 12.5651 108.776 15.124 114.456 20.2418C120.136 25.3034 122.976 32.5021 122.976 41.8378C122.976 51.3423 120.08 58.6816 114.287 63.8557C108.551 69.0297 100.452 71.6167 89.9918 71.6167H63.6716ZM90.2448 65.7116C95.6438 65.7116 99.7775 63.7432 102.646 59.8064C105.514 55.8134 106.948 50.0207 106.948 42.4284C106.948 34.5548 105.514 28.5934 102.646 24.5442C99.7775 20.4949 95.6438 18.4703 90.2448 18.4703H85.352V65.7116H90.2448Z" fill="#F2F2F2" fill-opacity="0.3"/>
<path d="M175.897 65.9646L180.959 66.8082V71.6167H151.349V66.8082L158.857 66.049C159.25 65.824 159.447 65.3741 159.447 64.6992C159.447 64.1931 159.335 63.6307 159.11 63.0121L155.904 54.7448H136.923L133.718 63.0121C133.493 63.6307 133.38 64.1931 133.38 64.6992C133.38 65.3741 133.577 65.824 133.971 66.049L141.479 66.8082V71.6167H120.895V66.8082L125.957 65.9646L147.215 12.1433H153.542L175.897 65.9646ZM146.372 30.1119L139.201 48.8397H153.626L146.372 30.1119Z" fill="#F2F2F2" fill-opacity="0.3"/>
<path d="M198.068 32.8845C196.006 32.8845 194.205 32.4262 192.663 31.5097C191.122 30.5932 189.935 29.281 189.101 27.5729C188.289 25.8441 187.883 23.8132 187.883 21.4803C187.883 19.1266 188.299 17.0957 189.133 15.3877C189.987 13.6797 191.195 12.3674 192.757 11.4509C194.319 10.5344 196.142 10.0762 198.225 10.0762C199.995 10.0762 201.547 10.4094 202.88 11.076C204.234 11.7425 205.275 12.6903 206.004 13.9192C206.734 15.1273 207.098 16.5125 207.098 18.0747H201.318C201.318 14.2629 200.162 12.357 197.85 12.357C196.496 12.357 195.454 13.0235 194.725 14.3566C194.017 15.6897 193.663 17.554 193.663 19.9494C193.663 22.8447 194.163 25.0422 195.163 26.5419C196.183 28.0208 197.683 28.7602 199.662 28.7602C202.266 28.7602 204.213 27.4271 205.505 24.761L207.192 25.4796C206.359 28 205.192 29.8642 203.692 31.0723C202.214 32.2804 200.339 32.8845 198.068 32.8845Z" fill="#F2F2F2" fill-opacity="0.3"/>
<path d="M217.98 21.0899C217.98 32.3638 208.84 41.5031 197.566 41.5031C186.293 41.5031 177.153 32.3638 177.153 21.0899C177.153 9.81595 186.293 0.676638 197.566 0.676638C208.84 0.676638 217.98 9.81595 217.98 21.0899Z" stroke="#F2F2F2" stroke-opacity="0.3" stroke-width="1.35328"/>
</svg>
