<svg width="168" height="80" viewBox="0 0 168 80" fill="none" xmlns="http://www.w3.org/2000/svg">
<path d="M0 77.6839V19.9758H14.9819V29.4089H15.5368C15.5368 29.4089 20.5307 18.3112 33.2931 18.3112C49.3847 18.3112 53.8238 28.854 53.8238 42.1712V77.6839H38.287V45.5005C38.287 35.5126 35.5126 31.0735 28.2991 31.0735C19.9758 31.0735 15.5368 36.0675 15.5368 47.7201V77.6839H0Z" fill="#54766E"/>
<path d="M113.769 0V77.6839H98.7868V69.9155H98.2319C98.2319 69.9155 93.238 79.3485 80.4756 79.3485C63.8291 79.3485 55.5058 64.9215 55.5058 48.8298C55.5058 32.7382 63.8291 18.3112 80.4756 18.3112C92.6831 18.3112 97.677 26.0796 97.677 26.0796H98.2319V0H113.769ZM98.7868 48.8298C98.7868 38.398 94.3477 29.9638 84.9147 29.9638C75.4817 29.9638 71.0426 38.398 71.0426 48.8298C71.0426 59.2617 75.4817 67.6959 84.9147 67.6959C94.3477 67.6959 98.7868 59.2617 98.7868 48.8298Z" fill="#54766E"/>
<path d="M132.115 37.7322H116.578C117.466 22.9722 129.34 18.3112 142.657 18.3112C156.529 18.3112 167.627 23.3052 167.627 38.287V77.6839H152.09V66.5862H151.536C151.536 66.5862 147.984 79.3485 133.224 79.3485C122.682 79.3485 114.913 74.4655 114.913 63.8117C114.913 53.047 123.791 48.164 133.335 45.7225C142.99 43.281 152.09 42.5042 152.09 36.0675C152.09 31.5175 148.761 28.854 142.657 28.854C135.999 28.854 132.337 31.5175 132.115 37.7322ZM152.09 48.6079C149.538 50.9384 144.322 52.1592 139.883 53.2689C134.889 54.4897 130.672 57.0421 130.672 62.1471C130.672 66.5862 133.779 69.3606 138.773 69.3606C149.316 69.3606 152.09 57.1531 152.09 48.6079Z" fill="#54766E"/>
</svg>
