<svg width="200" height="55" viewBox="0 0 200 55" fill="none" xmlns="http://www.w3.org/2000/svg">
<path d="M51.7347 0H59.3037V54.6218H45.8823L7.56902 4.05762V54.6218H0V0H13.4214L51.7347 50.5642V0Z" fill="#54766E"/>
<path d="M99.2599 0C109.716 0 117.831 2.47099 123.606 7.41296C129.38 12.3029 132.267 18.9356 132.267 27.3109C132.267 35.6863 129.38 42.3449 123.606 47.2869C117.831 52.1768 109.716 54.6218 99.2599 54.6218H72.2611V0H99.2599ZM98.5576 48.2233C106.933 48.2233 113.332 46.3245 117.753 42.527C122.227 38.7295 124.464 33.6574 124.464 27.3109C124.464 20.9644 122.227 15.8924 117.753 12.0948C113.332 8.29732 106.933 6.39856 98.5576 6.39856H80.0643V48.2233H98.5576Z" fill="#54766E"/>
<path d="M191.885 54.6218L184.784 40.5762H147.251L140.15 54.6218H132.269L160.282 0H171.987L200 54.6218H191.885ZM150.294 34.5678H181.741L165.978 3.43337L150.294 34.5678Z" fill="#54766E"/>
</svg>
