<svg width="0" height="0" class="hidden">
    <symbol version="1.1" xmlns="http://www.w3.org/2000/svg" viewBox="0 0 512 512" id="profile">
        <path d="M505.868 256.002c0-134.888-112.19-244.806-249.869-244.806-137.677 0-249.868 109.918-249.868 244.806 0 70.993 31.233 134.887 80.707 179.686 0 0.245 0 0.245-0.25 0.488 2.499 2.449 5.497 4.408 7.996 6.611 1.499 1.223 2.749 2.447 4.248 3.426 4.498 3.673 9.495 7.099 14.243 10.528 1.749 1.223 3.248 2.202 4.998 3.426 4.748 3.183 9.745 6.12 14.992 8.813 1.749 0.979 3.748 2.204 5.497 3.183 4.998 2.692 10.244 5.142 15.742 7.345 1.999 0.979 3.998 1.959 5.997 2.692 5.497 2.204 10.994 4.162 16.492 5.875 1.999 0.734 3.998 1.467 5.997 1.959 5.997 1.713 11.994 3.183 17.99 4.651 1.749 0.49 3.498 0.979 5.497 1.224 6.996 1.467 13.992 2.449 21.238 3.183 1 0 1.999 0.245 3 0.488 8.495 0.736 16.99 1.224 25.485 1.224 8.497 0 16.992-0.488 25.238-1.224 1 0 1.999-0.243 3-0.488 7.245-0.734 14.242-1.715 21.238-3.183 1.75-0.245 3.498-0.979 5.498-1.224 5.997-1.467 12.243-2.692 17.99-4.651 1.999-0.734 3.998-1.47 5.997-1.959 5.498-1.959 11.245-3.671 16.493-5.875 1.999-0.734 3.998-1.713 5.997-2.692 5.246-2.204 10.494-4.653 15.742-7.345 1.999-0.979 3.746-2.204 5.495-3.183 4.998-2.938 9.995-5.63 14.993-8.813 1.75-0.979 3.247-2.204 4.997-3.426 4.998-3.428 9.745-6.854 14.245-10.528 1.498-1.224 2.748-2.447 4.248-3.426 2.748-2.204 5.495-4.408 7.995-6.611 0-0.243 0-0.243-0.25-0.488 49.724-44.8 80.955-108.693 80.955-179.687zM379.435 377.67c-67.714-44.555-178.656-44.555-246.871 0-10.994 7.098-19.989 15.422-27.486 24.48-37.98-37.7-61.468-89.354-61.468-146.149 0-114.815 95.2-208.085 212.387-208.085 117.19 0 212.388 93.271 212.388 208.085 0 56.793-23.486 108.448-61.466 146.149-7.247-9.058-16.493-17.382-27.486-24.48z"></path>
        <path d="M255.999 131.862c-51.723 0-93.701 41.127-93.701 91.802 0 49.696 39.729 90.089 92.451 91.557h4.499c50.473-1.713 90.202-41.861 90.451-91.556 0-50.675-41.978-91.802-93.701-91.802z"></path>
    </symbol>
    <symbol version="1.1" xmlns="http://www.w3.org/2000/svg" viewBox="0 0 495 512" id="search">
        <path d="M347.37 324.108l124.534 126.413c4.378 4.447 6.836 10.476 6.834 16.76-0.002 6.288-2.464 12.314-6.844 16.759-4.38 4.442-10.32 6.937-16.512 6.935s-12.13-2.5-16.509-6.947l-124.534-126.413c-37.23 29.268-84.043 43.043-130.922 38.519-46.877-4.524-90.296-27.007-121.424-62.873s-47.626-82.423-46.139-130.2c1.487-47.776 20.849-93.182 54.146-126.981s78.028-53.453 125.093-54.964c47.066-1.51 92.931 15.237 128.264 46.836 35.331 31.597 57.478 75.672 61.935 123.258 4.457 47.584-9.111 95.106-37.945 132.897h0.022zM200.96 349.978c36.834 0 72.161-14.853 98.208-41.293s40.678-62.299 40.678-99.69c0-37.391-14.632-73.25-40.678-99.689s-61.373-41.293-98.207-41.293c-36.834 0-72.161 14.853-98.207 41.293s-40.679 62.298-40.679 99.689c0 37.391 14.633 73.25 40.679 99.69s61.373 41.293 98.207 41.293z"></path>
    </symbol>
    <symbol version="1.1" xmlns="http://www.w3.org/2000/svg" viewBox="0 0 392 512" id="person">
        <path d="M225.258 30.198c-3.958-0.912-7.939-1.577-11.958-2.154-5.578-0.8-11.286-1.222-17.12-1.222-61.436 0-111.13 47.081-111.13 105.010v59.941c0 24.006 8.573 46.19 23.031 63.882 5.219 6.387 8.755 14.142 8.755 22.39 0 14.058-9.671 26.267-23.355 29.486l-33.218 7.815c-41.273 9.728-67.010 48.086-58.708 87.452l19.925 93.826c1.542 7.045 8.065 12.077 15.537 12.077h317.498c7.589 0 14.113-5.033 15.534-12.077l19.926-93.826c8.303-39.255-17.435-77.725-58.709-87.452-2.018-0.461-20.413-4.692-35.964-8.271-12.82-2.952-21.913-14.372-21.913-27.527 0-7.902 3.468-15.315 8.652-21.28 15.764-18.136 25.267-41.298 25.267-66.497v-59.941c0-7.493-0.828-14.762-2.37-21.808-12.488-59.334-62.372-75.838-79.68-79.828zM253.939 328.153c0 0.033 0.023 0.063 0.054 0.070l1.673 0.394c1.612 0.38 2.264 2.313 1.155 3.545-14.857 16.498-36.894 26.467-60.641 26.467-23.74 0-46.094-10.065-60.983-26.853-1.113-1.256-0.43-3.207 1.208-3.566 7.116-1.678 12.097-7.716 12.097-14.538 0-12.76 13.329-21.423 25.865-19.043 7.049 1.338 14.34 2.045 21.813 2.045 7.289 0 14.124-0.611 20.653-1.772 12.222-2.174 25.009 6.245 25.009 18.66 0 6.915 4.956 12.942 12.042 14.526 0.032 0.006 0.055 0.036 0.055 0.067zM275.88 191.663c0 41.377-35.936 74.928-79.701 74.928s-79.463-33.661-79.463-74.928c0-24.828 20.128-44.957 44.956-44.957h34.507c24.131 0 47.225-7.452 66.137-20.626 5.507-3.837 13.564-1.181 13.564 5.53v60.053zM196.179 56.682c42.486 0 42.486 59.941 0 59.941-40.095 0-65.612-41.938-27.786-55.237 8.653-3.042 18.017-4.705 27.786-4.705zM359.080 396.707c-0.039 0.036-0.067 0.084-0.079 0.135l-4.804 22.709c-7.283 34.437-37.677 59.073-72.874 59.073h-147.471c-48.775 0-90.894-34.142-100.988-81.86-4.982-23.597 10.437-46.634 35.225-52.45 19.202-4.545 38.614 4.509 53.652 17.284 20.064 17.046 46.455 27 74.556 27 28.214 0 54.585-9.978 74.61-27.079 14.84-12.671 33.981-21.67 53.007-17.317 24.76 5.806 40.171 28.798 35.24 52.368-0.012 0.051-0.039 0.099-0.075 0.135z"></path>
    </symbol>
    <symbol version="1.1" xmlns="http://www.w3.org/2000/svg" viewBox="0 0 537 512" id="megaphone">
        <path d="M52.591 153.637c-12.267 43.202-10.134 85.872 0.533 119.474 11.201 34.137 33.602 58.137 61.338 66.137 4.267 1.601 6.933 1.601 10.668 1.601 1.6 0.535 3.2 0.535 4.801 0.535 1.601 0.532 3.733 0.532 5.868 0.532h181.345l-59.202 146.678c-0.535 3.733 1.601 6.935 3.733 9.067 2.133 2.666 6.401 4.267 9.067 4.267h80.538c2.666 0 6.935-1.601 9.067-4.267 2.135-2.133 4.267-5.334 3.733-9.067l26.669-146.678h32.536l0.535-0.532c13.332 1.598 28.802-4.803 41.068-16.536 12.269-11.734 23.468-28.802 28.268-50.135 6.402-21.335 5.334-41.603 0.535-58.671-4.8-16.534-15.467-28.802-28.268-34.669l-0.535-0.534-240.017-144.011c-2.667-1.6-4.8-2.666-6.401-4.267-1.601-1.067-3.733-2.134-6.401-3.2-4.267-2.134-7.466-3.2-13.334-4.8-27.736-8.001-59.738 2.666-85.873 26.135s-49.070 59.737-60.271 102.941zM121.395 313.115h0.533c-10.668-2.666-19.734-9.067-27.735-18.666-15.468-18.668-22.935-46.936-22.935-81.072 0-17.067 2.666-34.669 7.467-52.804 9.067-36.269 27.202-66.671 47.471-86.406s44.803-29.336 65.605-23.468c21.868 5.867 37.336 25.602 45.336 53.337 8.534 27.735 7.467 62.938-1.601 99.207-10.134 36.269-26.668 66.673-48.004 86.405-20.802 19.736-43.203 29.337-66.138 23.468zM189.133 124.302c-5.868-1.067-11.202-0.533-16.534 1.067-10.134 4.267-20.269 12.801-27.202 26.668s-11.202 32.002-11.202 47.47c0 8.001 1.066 14.934 3.2 21.334 4.8 12.801 11.734 22.402 22.935 25.069 9.067 2.667 21.334-1.601 30.402-10.668s17.067-22.935 20.802-40.002c4.8-16.535 3.2-33.069-0.533-45.87s-12.801-22.401-21.868-25.069z"></path>
    </symbol>
    <symbol version="1.1" xmlns="http://www.w3.org/2000/svg" viewBox="0 0 726 512" id="mail">
        <path d="M83.769 461.372c6.979 3.43 14.811 5.359 23.087 5.359h530.133c8.278 0 16.106-1.928 23.087-5.359l-208.823-199.507-68.096 56.926c-6.526 5.455-15.942 5.455-22.467 0l-68.096-56.926-208.823 199.507zM58.9 435.882c0.163-0.166 0.331-0.337 0.502-0.499l205.688-196.511-204.81-171.213c-0.447-0.374-0.871-0.764-1.272-1.171-3.312 7.025-5.166 14.893-5.166 23.2v323.226c0 8.216 1.814 16.005 5.057 22.967zM684.945 435.882c3.242-6.967 5.056-14.751 5.056-22.968v-323.226c0-8.307-1.856-16.175-5.167-23.2-0.401 0.407-0.823 0.798-1.271 1.171l-204.808 171.213 205.688 196.511c0.17 0.162 0.337 0.329 0.504 0.499zM659.763 41.081c-6.899-3.337-14.622-5.206-22.775-5.206h-530.133c-8.153 0-15.875 1.868-22.775 5.206l287.841 240.625 287.841-240.625zM106.856 0h530.133c48.798 0 88.354 40.155 88.354 89.689v323.226c0 49.536-39.557 89.69-88.354 89.69h-530.133c-48.797 0-88.355-40.154-88.355-89.69v-323.226c0-49.534 39.558-89.689 88.355-89.689z"></path>
    </symbol>
    <symbol version="1.1" xmlns="http://www.w3.org/2000/svg" viewBox="0 0 494 512" id="recorder">
        <path fill="none" stroke-linejoin="round" stroke-linecap="round" stroke-miterlimit="4" stroke-width="13.7143" stroke="#000" d="M212.56 368.616v119.507c0 2.067 0.768 4.052 2.138 5.526s3.233 2.317 5.186 2.349h53.706c1.953-0.033 3.815-0.875 5.186-2.349s2.139-3.46 2.139-5.526v-119.507M246.737 15.999c-23.463 0-45.964 9.867-62.554 27.433-16.589 17.565-25.91 41.389-25.91 66.229v115.94c0 24.84 9.32 48.663 25.91 66.228 16.591 17.565 39.093 27.433 62.554 27.433v0c23.463 0 45.964-9.868 62.554-27.433s25.911-41.388 25.911-66.228v-115.939c0-24.841-9.32-48.663-25.911-66.229s-39.093-27.433-62.554-27.433v0z"></path>
        <path fill="none" stroke-linejoin="round" stroke-linecap="round" stroke-miterlimit="4" stroke-width="13.7143" stroke="#000" d="M383.575 253.401c-6.29 33.52-23.363 63.693-48.313 85.377s-56.231 33.537-88.511 33.537c-32.279 0-63.559-11.853-88.51-33.537-24.95-21.685-42.025-51.858-48.315-85.377"></path>
    </symbol>
    <symbol version="1.1" xmlns="http://www.w3.org/2000/svg" viewBox="0 0 620 512" id="double-arrow">
        <path d="M68.154 28.498l236.221 157.867 236.223-157.867c12.649-8.454 33.159-8.454 45.808 0s12.649 22.16 0 30.612l-259.128 173.173c-12.649 8.454-33.156 8.454-45.808 0l-259.13-173.173c-12.646-8.453-12.646-22.159 0-30.613 12.652-8.454 33.162-8.454 45.814 0zM68.154 288.259l236.221 157.866 236.223-157.866c12.649-8.454 33.159-8.454 45.808 0s12.649 22.159 0 30.612l-259.128 173.175c-12.649 8.454-33.156 8.454-45.808 0l-259.13-173.174c-12.646-8.454-12.646-22.159 0-30.612 12.652-8.454 33.162-8.454 45.814 0z"></path>
    </symbol>
    <symbol xmlns="http://www.w3.org/2000/svg" viewBox="0 0 410 512" id="flask">
        <path d="M108.75 19.861c-6.188 1.231-12.734 6.612-15.74 12.939-1.555 3.274-1.785 4.639-1.785 10.592 0 5.934.225 7.277 1.708 10.206 2.196 4.335 7.189 9.333 11.391 11.402 3.117 1.535 4.128 1.637 18.163 1.844l14.863.218v113.37L77.655 285.478c-32.833 57.776-60.552 106.738-61.599 108.805-4.918 9.713-7.357 20.558-7.375 32.8-.013 9.22.676 13.699 3.417 22.209 7.788 24.175 27.758 42.619 52.001 48.027 4.875 1.087 15.351 1.173 143.293 1.173h138.033l6.15-1.585c12.885-3.321 27.386-12.175 35.701-21.8 11.368-13.159 17.159-28.023 17.772-45.616.45-12.932-1.709-24.047-6.509-33.499-.954-1.879-1.807-4.032-1.896-4.784-.089-.751-26.947-48.494-59.685-106.095l-59.525-104.729V67.062l14.863-.218c14.035-.207 15.046-.309 18.163-1.844 4.124-2.03 9.4-7.241 11.274-11.132 3.102-6.444 3.031-15.334-.172-21.64-2.21-4.351-6.814-8.805-11.328-10.959l-3.758-1.794-97.375-.103c-53.556-.056-98.714.164-100.35.489m122.233 109.46.016 62.354 1.547 3.76c1.324 3.217 17.928 33.595 20.822 38.094l.989 1.538H160.706l9.97-17.938c5.484-9.865 10.677-19.629 11.54-21.696l1.568-3.758.016-62.354.017-62.354h47.15l.016 62.354m88.63 220.546c22.423 39.532 38.239 68.139 38.894 70.349 3.43 11.583-2.766 24.282-14.107 28.909l-3.758 1.533-129.492.19c-87.82.129-130.992-.04-134.155-.526-8.622-1.325-15.086-6.176-18.658-14-1.495-3.276-1.868-5.106-1.881-9.225-.009-2.826.4-6.369.909-7.872.509-1.503 17.829-32.793 38.49-69.532l37.564-66.799 74.201.174 74.202.174 37.791 66.625m-162.981-18.321c-7.202 1.095-13.24 5.689-16.691 12.697-2.04 4.144-2.249 5.144-2.249 10.734 0 7.479 1.767 11.924 6.704 16.861 11.589 11.589 30.032 8.246 37.469-6.79 2.262-4.573 2.327-15.339.121-20.113-4.46-9.654-14.622-15.02-25.354-13.389m89.848 24.734c-6.547 2.434-11.872 7.873-14.201 14.503-1.874 5.335-1.565 13.462.692 18.182 7.137 14.925 25.885 18.465 37.305 7.045 1.742-1.742 3.987-4.918 4.991-7.059 1.554-3.315 1.825-4.806 1.825-10.043 0-5.237-.271-6.727-1.825-10.042-2.123-4.53-6.695-9.369-10.923-11.562-3.758-1.95-13.822-2.526-17.864-1.024" fill-rule="evenodd"></path>
    </symbol>
    <symbol xmlns="http://www.w3.org/2000/svg" viewBox="0 0 378 512" id="pin">
        <path d="M178.92 16.744c-24.832 2.821-40.175 7.29-60.48 17.615C102.331 42.55 87.203 53.86 73.71 67.8c-9.201 9.505-14.329 15.89-21.949 27.331-15.681 23.538-26.054 50.536-30.924 80.482-3.753 23.077-3.253 53.798 1.254 77.017 3.906 20.122 12.356 40.256 24.434 58.221 2.35 3.495 33.945 44.669 70.211 91.499 72.74 93.928 67.64 87.935 74.842 87.935 7.095 0 2.801 5.015 70.02-81.757 33.541-43.298 63.795-82.408 67.231-86.913 19.9-26.091 30.309-51.165 34.394-82.845 1.402-10.876 1.902-35.248.962-46.959-4.892-61.023-35.183-115.07-82.664-147.497-8.924-6.095-24.34-14.068-34.876-18.039-8.472-3.192-22.633-6.871-32.13-8.345-5.974-.928-30.636-1.749-35.595-1.186m29.314 27.666c29.241 3.645 57.258 17.655 79.378 39.695 20.693 20.618 35.054 45.284 43.393 74.532 7.021 24.628 8.643 55.147 4.424 83.283-2.732 18.218-9.626 35.983-20.324 52.373-4.713 7.221-122.686 159.937-123.551 159.937-.611 0-117.454-150.708-121.586-156.824-13.278-19.659-20.619-39.356-23.379-62.731-1.113-9.427-1.474-31.93-.662-41.265 2.134-24.532 7.971-45.387 18.603-66.465 23.16-45.914 63.534-76.287 109.665-82.497 8.607-1.159 24.902-1.177 34.039-.038m-23.042 84.156c-11.805 1.01-22.857 5.139-33.802 12.629-4.813 3.293-14.821 13.648-18.474 19.113-11.802 17.658-16.778 39.46-13.86 60.727 1.855 13.522 7.818 28.032 15.985 38.897 3.679 4.893 12.942 13.8 17.735 17.053 28.042 19.028 64.167 15.314 88.278-9.077 22.041-22.296 29.488-55.688 19.355-86.783-4.028-12.358-10.077-22.225-19.333-31.534-15.664-15.753-34.534-22.853-55.884-21.025m17.668 28.025c12.156 3.585 22.7 12.956 29.024 25.794 3.594 7.298 4.779 11.48 5.664 20.002 1.029 9.896-.445 20.497-4.098 29.487-3.954 9.731-13.776 20.906-22.323 25.397-11.795 6.198-26.721 6.39-38.282.493-11.314-5.771-21.779-19.103-25.424-32.389-2.571-9.372-2.706-23.267-.317-32.671 1.388-5.461 5.877-14.459 9.776-19.595 6.963-9.173 17.596-15.896 27.679-17.503 4.762-.759 14.089-.257 18.301.985" fill-rule="evenodd"></path>
    </symbol>
    <symbol xmlns="http://www.w3.org/2000/svg" viewBox="0 0 15 8" id="arrow">
        <path d="M.778.878c-.433.171-.587.732-.297 1.09.045.055 1.48 1.393 3.189 2.973 2.375 2.195 3.143 2.891 3.258 2.953a.67.67 0 0 0 .61.022c.095-.044.883-.758 3.263-2.957a313.037 313.037 0 0 0 3.216-2.994.716.716 0 0 0 .143-.466c-.009-.496-.582-.829-1.024-.596-.067.035-1.289 1.147-2.993 2.722a371.009 371.009 0 0 1-2.896 2.663c-.008 0-1.305-1.193-2.882-2.65C2.711 2.109 1.444.957 1.372.915A.708.708 0 0 0 .778.878" fill-rule="evenodd" ></path>
    </symbol>
    <symbol version="1.1" xmlns="http://www.w3.org/2000/svg" viewBox="0 0 484 512" id="password">
        <path d="M174.315 348.632c0 6.141-2.369 12.029-6.588 16.37-4.218 4.344-9.939 6.781-15.904 6.781s-11.685-2.438-15.904-6.781c-4.218-4.341-6.588-10.228-6.588-16.37s2.369-12.029 6.588-16.373c4.218-4.341 9.939-6.781 15.904-6.781s11.686 2.44 15.904 6.781c4.218 4.344 6.588 10.231 6.588 16.373zM264.279 348.632c0 6.141-2.37 12.029-6.587 16.37-4.218 4.344-9.939 6.781-15.904 6.781s-11.685-2.438-15.904-6.781c-4.218-4.341-6.588-10.228-6.588-16.37s2.369-12.029 6.588-16.373c4.218-4.341 9.939-6.781 15.904-6.781s11.686 2.44 15.904 6.781c4.218 4.344 6.587 10.231 6.587 16.373zM331.753 371.783c5.965 0 11.685-2.438 15.904-6.781 4.216-4.341 6.587-10.228 6.587-16.37s-2.373-12.029-6.587-16.373c-4.219-4.341-9.938-6.781-15.904-6.781-5.967 0-11.688 2.44-15.906 6.781-4.216 4.344-6.585 10.231-6.585 16.373s2.37 12.029 6.585 16.37c4.219 4.344 9.938 6.781 15.906 6.781z"></path>
        <path d="M89.964 163.391c0-41.448 15.995-81.198 44.465-110.506s67.085-45.773 107.349-45.773c40.264 0 78.88 16.465 107.35 45.773s44.464 69.058 44.464 110.506v30.167c4.827 0.338 9.642 0.832 14.438 1.482 20.244 2.802 37.291 8.775 50.83 22.713s19.342 31.488 22.087 52.325c2.608 20.074 2.608 45.611 2.608 77.259v2.548c0 31.65 0 57.185-2.608 77.258-2.745 20.839-8.548 38.389-22.087 52.327s-30.587 19.911-50.83 22.736c-19.498 2.685-44.305 2.685-75.050 2.685h-182.403c-30.745 0-55.553 0-75.052-2.685-20.242-2.825-37.29-8.798-50.83-22.736-13.517-13.938-19.364-31.488-22.064-52.327-2.631-20.073-2.631-45.608-2.631-77.258v-2.548c0-31.647 0-57.185 2.631-77.259 2.721-20.837 8.524-38.387 22.064-52.325 13.539-13.915 30.587-19.935 50.83-22.713 4.543-0.648 9.334-1.112 14.439-1.482v-30.167zM241.778 41.84c-31.316 0-61.35 12.806-83.494 35.602s-34.584 53.712-34.584 85.949v29.010c8.389-0.070 17.363-0.070 26.876-0.070h182.403c9.512 0 18.486 0 26.877 0.070v-29.010c0-67.142-52.856-121.55-118.079-121.55zM80.023 229.444c-16.508 2.292-25.235 6.483-31.465 12.873-6.23 6.413-10.279 15.396-12.505 32.414-2.272 17.48-2.316 40.656-2.316 73.879s0.045 56.399 2.316 73.904c2.227 16.993 6.297 25.976 12.505 32.389 6.23 6.411 14.956 10.582 31.487 12.871 16.959 2.338 39.495 2.387 71.769 2.387h179.928c32.273 0 54.787-0.048 71.791-2.387 16.509-2.29 25.236-6.483 31.465-12.871 6.229-6.414 10.277-15.397 12.504-32.416 2.272-17.479 2.318-40.656 2.318-73.879s-0.046-56.423-2.318-73.902c-2.227-16.994-6.298-25.977-12.504-32.391-6.229-6.413-14.956-10.581-31.488-12.873-16.981-2.338-39.495-2.385-71.768-2.385h-179.928c-32.275 0-54.81 0.047-71.791 2.385z"></path>
    </symbol>
    <symbol version="1.1" xmlns="http://www.w3.org/2000/svg" viewBox="0 0 512 512" id="plus">
        <path stroke-linejoin="miter" stroke-linecap="butt" stroke-miterlimit="4" stroke-width="20.48"  d="M461.713 290.286h-171.426v171.429c0 9.094-3.615 17.813-10.044 24.243s-15.149 10.041-24.243 10.041c-9.094 0-17.815-3.611-24.244-10.041s-10.042-15.149-10.042-24.243v-171.429h-171.428c-9.093 0-17.814-3.611-24.244-10.041s-10.041-15.151-10.041-24.244c0-9.091 3.612-17.813 10.041-24.243s15.15-10.042 24.244-10.042h171.428v-171.429c0-9.093 3.612-17.814 10.041-24.244s15.151-10.041 24.245-10.041c9.094 0 17.813 3.612 24.243 10.041s10.044 15.15 10.044 24.244v171.429h171.427c9.094 0 17.815 3.612 24.245 10.041s10.041 15.151 10.041 24.243c0 9.094-3.611 17.815-10.041 24.245s-15.151 10.041-24.245 10.041z"></path>
    </symbol>
    <symbol version="1.1" xmlns="http://www.w3.org/2000/svg" viewBox="0 0 512 512" id="pencil">
        <path d="M372.8 42.959c14.652-14.649 34.524-22.877 55.245-22.872 20.718 0.004 40.588 8.238 55.236 22.893s22.875 34.528 22.871 55.248c-0.005 20.721-8.238 40.59-22.891 55.239l-29.912 29.953-110.5-110.508 29.952-29.912v-0.041zM314.041 101.764l-243.038 242.97c-7.377 7.384-12.937 16.382-16.24 26.281l-37.296 111.937c-1.201 3.595-1.378 7.453-0.511 11.142s2.745 7.063 5.422 9.746c2.677 2.68 6.049 4.563 9.737 5.438 3.688 0.873 7.545 0.701 11.141-0.494l111.93-37.341c9.916-3.264 18.893-8.856 26.279-16.241l243.038-242.929-110.46-110.508z"></path>
    </symbol>
    <symbol version="1.1" xmlns="http://www.w3.org/2000/svg" viewBox="0 0 512 512" id="trash">
        <path d="M314.368 0.001c10.747 0.003 21.219 3.386 29.935 9.672s15.231 15.153 18.627 25.349l13.902 41.779h83.966c6.792 0 13.302 2.698 18.103 7.499s7.498 11.312 7.498 18.102c0 6.79-2.698 13.3-7.498 18.102s-11.31 7.499-18.103 7.499l-0.075 1.817-22.197 310.858c-1.385 19.37-10.056 37.495-24.266 50.73-14.212 13.231-32.909 20.591-52.327 20.593h-211.866c-19.418-0.002-38.115-7.361-52.327-20.594-14.212-13.235-22.883-31.359-24.268-50.73l-22.195-310.885c-0.047-0.596-0.072-1.194-0.077-1.792-6.789 0-13.3-2.698-18.102-7.499s-7.498-11.312-7.498-18.102c0-6.79 2.697-13.3 7.498-18.102s11.312-7.499 18.102-7.499h83.968l13.901-41.779c3.398-10.2 9.918-19.071 18.639-25.356s19.2-9.667 29.95-9.665h116.71zM179.2 204.801c-6.27 0-12.322 2.302-17.008 6.468s-7.679 9.909-8.413 16.137l-0.179 2.994v153.6c0.007 6.527 2.506 12.802 6.984 17.546s10.601 7.599 17.114 7.981c6.513 0.382 12.928-1.737 17.931-5.923 5.004-4.189 8.219-10.129 8.99-16.608l0.179-2.997v-153.6c0-6.789-2.697-13.299-7.498-18.1s-11.312-7.499-18.102-7.499zM332.8 204.801c-6.789 0-13.302 2.698-18.103 7.499s-7.498 11.31-7.498 18.1v153.6c0 6.792 2.698 13.302 7.498 18.103s11.313 7.498 18.103 7.498c6.789 0 13.302-2.698 18.103-7.498s7.498-11.31 7.498-18.103v-153.6c0-6.789-2.698-13.299-7.498-18.1s-11.313-7.499-18.103-7.499zM314.368 51.201h-116.735l-8.525 25.599h133.787l-8.526-25.599z"></path>
    </symbol>
    <symbol version="1.1" xmlns="http://www.w3.org/2000/svg" viewBox="0 0 626 512" id="popup-ad">
        <path d="M59.634 303.004c-2.019-36.108 9.194-71.715 31.538-100.153s54.287-47.756 89.849-54.338l-23.561 23.263c-2.762 2.762-4.952 6.040-6.446 9.647s-2.264 7.475-2.264 11.379c0 7.887 3.133 15.45 8.709 21.026s13.14 8.709 21.026 8.709c7.887 0 15.45-3.133 21.026-8.709l77.246-77.246c2.765-2.759 4.96-6.036 6.454-9.644 1.498-3.608 2.267-7.476 2.267-11.382s-0.769-7.774-2.267-11.382c-1.494-3.608-3.689-6.885-6.454-9.645l-76.947-77.246c-5.577-5.576-13.14-8.71-21.026-8.71s-15.45 3.133-21.026 8.71c-5.577 5.576-8.709 13.14-8.709 21.026s3.133 15.45 8.709 21.026l26.245 26.245v1.79c-53.391 6.344-102.272 33.056-136.446 74.566s-51.003 94.609-46.976 148.223c7.755 110.351 104.983 193.264 215.632 193.264h51.895c16.404 0 29.825-13.421 29.825-29.825s-13.421-29.825-29.825-29.825h-53.088c-80.526 0-151.212-60.842-155.387-140.773zM357.582 354.303v89.475c0 32.808 26.842 59.649 59.649 59.649h149.123c32.808 0 59.649-26.842 59.649-59.649v-89.475c0-32.808-26.842-59.649-59.649-59.649h-149.123c-32.808 0-59.649 26.842-59.649 59.649zM566.356 443.776h-149.123v-89.474h149.123v89.475zM566.356 26.232h-149.123c-32.808 0-59.649 26.842-59.649 59.65v89.475c0 32.808 26.842 59.649 59.649 59.649h149.123c32.808 0 59.649-26.842 59.649-59.649v-89.475c0-32.807-26.842-59.65-59.649-59.65z"></path>
    </symbol>
    <symbol xmlns="http://www.w3.org/2000/svg" viewBox="0 0 640 512" id="eye-slash">
        <path d="M38.8 5.1C28.4-3.1 13.3-1.2 5.1 9.2S-1.2 34.7 9.2 42.9l592 464c10.4 8.2 25.5 6.3 33.7-4.1s6.3-25.5-4.1-33.7L525.6 386.7c39.6-40.6 66.4-86.1 79.9-118.4c3.3-7.9 3.3-16.7 0-24.6c-14.9-35.7-46.2-87.7-93-131.1C465.5 68.8 400.8 32 320 32c-68.2 0-125 26.3-169.3 60.8L38.8 5.1zm151 118.3C226 97.7 269.5 80 320 80c65.2 0 118.8 29.6 159.9 67.7C518.4 183.5 545 226 558.6 256c-12.6 28-36.6 66.8-70.9 100.9l-53.8-42.2c9.1-17.6 14.2-37.5 14.2-58.7c0-70.7-57.3-128-128-128c-32.2 0-61.7 11.9-84.2 31.5l-46.1-36.1zM394.9 284.2l-81.5-63.9c4.2-8.5 6.6-18.2 6.6-28.3c0-5.5-.7-10.9-2-16c.7 0 1.3 0 2 0c44.2 0 80 35.8 80 80c0 9.9-1.8 19.4-5.1 28.2zm51.3 163.3l-41.9-33C378.8 425.4 350.7 432 320 432c-65.2 0-118.8-29.6-159.9-67.7C121.6 328.5 95 286 81.4 256c8.3-18.4 21.5-41.5 39.4-64.8L83.1 161.5C60.3 191.2 44 220.8 34.5 243.7c-3.3 7.9-3.3 16.7 0 24.6c14.9 35.7 46.2 87.7 93 131.1C174.5 443.2 239.2 480 320 480c47.8 0 89.9-12.9 126.2-32.5zm-88-69.3L302 334c-23.5-5.4-43.1-21.2-53.7-42.3l-56.1-44.2c-.2 2.8-.3 5.6-.3 8.5c0 70.7 57.3 128 128 128c13.3 0 26.1-2 38.2-5.8z"></path>
    </symbol>
    <symbol xmlns="http://www.w3.org/2000/svg" viewBox="0 0 576 512" id="eye">
        <path d="M288 80c-65.2 0-118.8 29.6-159.9 67.7C89.6 183.5 63 226 49.4 256c13.6 30 40.2 72.5 78.6 108.3C169.2 402.4 222.8 432 288 432s118.8-29.6 159.9-67.7C486.4 328.5 513 286 526.6 256c-13.6-30-40.2-72.5-78.6-108.3C406.8 109.6 353.2 80 288 80zM95.4 112.6C142.5 68.8 207.2 32 288 32s145.5 36.8 192.6 80.6c46.8 43.5 78.1 95.4 93 131.1c3.3 7.9 3.3 16.7 0 24.6c-14.9 35.7-46.2 87.7-93 131.1C433.5 443.2 368.8 480 288 480s-145.5-36.8-192.6-80.6C48.6 356 17.3 304 2.5 268.3c-3.3-7.9-3.3-16.7 0-24.6C17.3 208 48.6 156 95.4 112.6zM288 336c44.2 0 80-35.8 80-80s-35.8-80-80-80c-.7 0-1.3 0-2 0c1.3 5.1 2 10.5 2 16c0 35.3-28.7 64-64 64c-5.5 0-10.9-.7-16-2c0 .7 0 1.3 0 2c0 44.2 35.8 80 80 80zm0-208a128 128 0 1 1 0 256 128 128 0 1 1 0-256z"></path>
    </symbol>
    <symbol version="1.1" xmlns="http://www.w3.org/2000/svg" viewBox="0 0 2134 512" id="settings">
        <path d="M1874.611 34.334c62.669 0 122.777 22.476 167.091 62.484s69.214 94.269 69.214 150.849c0 56.579-24.901 110.842-69.214 150.849s-104.422 62.483-167.091 62.483c-62.678 0-122.777-22.476-167.1-62.483-44.313-40.007-69.214-94.27-69.214-150.85s24.9-110.841 69.214-150.849c44.322-40.008 104.422-62.484 167.1-62.484zM1086.917 34.334c62.678 0 122.777 22.476 167.091 62.484 44.322 40.007 69.214 94.269 69.214 150.849s-24.891 110.842-69.214 150.849c-44.313 40.007-104.414 62.483-167.091 62.483-62.669 0-122.778-22.476-167.091-62.483-44.322-40.007-69.216-94.27-69.216-150.85s24.894-110.841 69.216-150.849c44.313-40.008 104.423-62.484 167.091-62.484zM299.224 34.334c62.673 0 122.779 22.476 167.095 62.484s69.213 94.269 69.213 150.849c0 56.579-24.897 110.842-69.213 150.849s-104.423 62.483-167.096 62.483c-62.672 0-122.779-22.476-167.095-62.483s-69.213-94.27-69.213-150.85c0-56.579 24.897-110.841 69.213-150.849s104.422-62.484 167.095-62.484z"></path>
    </symbol>
</svg>