<svg width="52" height="37" viewBox="0 0 52 37" fill="none" xmlns="http://www.w3.org/2000/svg">
<path d="M7.37975 37C6.48861 36.8899 4.77131 36.8348 2.22785 36.8348H0V0.110119C1.18819 0.183532 2.49705 0.220238 3.92658 0.220238C5.35612 0.220238 6.36793 0.146825 6.96203 0L16.319 15.7195L25.3139 0C25.908 0.146825 27.0405 0.220238 28.7114 0.220238C30.3823 0.220238 31.8118 0.183532 33 0.110119V36.8348H30.7722C28.2287 36.8348 26.5114 36.8899 25.6203 37V12.3333L16.5139 28.4382L7.37975 13.6272V37Z" fill="#092326"/>
<path d="M38.6236 31.2009C37.7603 31.2009 37.0559 31.2288 36.5107 31.2847L36.5618 27.1448C36.8117 27.2119 37.5615 27.2454 38.8111 27.2454H42.2531V24.0274C42.2531 22.7983 42.2191 22.0608 42.1509 21.815L46.3598 21.7647C46.303 22.301 46.2746 22.9938 46.2746 23.843V27.2454H49.6996C50.9379 27.2454 51.6876 27.2119 51.9489 27.1448L52 31.2847C51.4547 31.2288 50.7504 31.2009 49.8871 31.2009H46.2746V34.9217C46.2746 35.7709 46.303 36.4637 46.3598 37L42.1509 36.9497C42.2191 36.6927 42.2531 35.9553 42.2531 34.7373V31.2009H38.6236Z" fill="#44B66A"/>
</svg>
