<svg width="0" height="0" class="hidden">
  <symbol xmlns="http://www.w3.org/2000/svg" viewBox="0 0 591 512" id="email">
    <path d="M312.479 330.661c-5.582 3.489-11.861 4.885-17.444 4.885s-11.862-1.396-17.444-4.885l-277.71-169.556v225.378c0 48.144 39.075 87.221 87.221 87.221h416.565c48.147 0 87.22-39.077 87.22-87.221v-225.378l-278.408 169.556z"></path>
    <path d="M503.687 38.298h-416.567c-41.169 0-76.056 29.306-84.43 68.381l293.061 178.628 292.363-178.627c-8.372-39.075-43.262-68.381-84.428-68.381z"></path>
  </symbol>
  <symbol  xmlns="http://www.w3.org/2000/svg" viewBox="0 0 512 512" id="phone">
    <path d="M498.063 375.757l-71.452-71.452c-25.518-25.518-68.898-15.31-79.104 17.863-7.657 22.967-33.175 35.726-56.142 30.62-51.036-12.757-119.935-79.105-132.695-132.694-7.655-22.968 7.655-48.486 30.621-56.141 33.174-10.207 43.381-53.589 17.863-79.106l-71.451-71.451c-20.415-17.863-51.036-17.863-68.899 0l-48.485 48.484c-48.484 51.037 5.104 186.284 125.040 306.219 119.936 119.938 255.183 176.077 306.219 125.041l48.483-48.486c17.865-20.415 17.865-51.036 0-68.898z"></path>
  </symbol>
  <symbol  xmlns="http://www.w3.org/2000/svg" viewBox="0 0 542 512" id="images">
    <path d="M141.166 401.072c-36.162 0-68.328-23.43-80.009-58.311l-0.79-2.628c-2.755-9.237-3.91-17.006-3.91-24.778v-155.847l-54.8 185.103c-7.048 27.225 9.013 55.451 35.959 62.973l349.293 94.657c4.25 1.119 8.621 1.687 13.012 1.69 22.497 0 43.051-15.108 48.815-37.375l20.351-65.485h-327.923zM203.286 161.066c24.916 0 45.175-20.505 45.175-45.717s-20.258-45.717-45.175-45.717c-24.916 0-45.179 20.505-45.179 45.717s20.263 45.717 45.179 45.717z"></path>
    <path d="M485.644 1.059h-338.832c-31.124 0-56.471 25.648-56.471 57.147v251.432c0 31.5 25.347 57.147 56.471 57.147h338.832c31.13 0 56.475-25.647 56.475-57.147v-251.432c0-31.498-25.346-57.147-56.475-57.147zM146.813 46.776h338.832c6.239 0 11.297 5.12 11.297 11.43v162.268l-71.356-84.255c-7.57-8.982-18.526-13.783-30.294-14.054-11.7 0.067-22.678 5.323-30.178 14.422l-83.897 101.897-27.332-27.589c-15.449-15.632-40.591-15.632-56.019 0l-62.344 63.067v-215.754c0-6.311 5.059-11.429 11.291-11.429z"></path>
  </symbol>
  <symbol version="1.1" xmlns="http://www.w3.org/2000/svg" viewBox="0 0 563 512" id="arrow">
    <path d="M42.92 295.539l383.425 0.302-131.203 131.507c-3.815 3.719-6.848 8.161-8.925 13.067s-3.154 10.176-3.169 15.502c0.111 7.886 2.548 15.563 7.003 22.070s10.733 11.553 18.046 14.507c7.312 2.954 15.333 3.683 23.058 2.098 7.724-1.586 14.81-5.417 20.367-11.012l200.134-199.829c3.723-3.721 6.676-8.138 8.694-13.002 2.014-4.863 3.054-10.077 3.054-15.341s-1.040-10.477-3.054-15.341c-2.019-4.863-4.972-9.281-8.694-13.001l-200.135-199.83c-37.789-39.15-95.682 19.198-56.382 56.684l131.96 131.96-384.18-0.303c-5.457-0.335-10.925 0.449-16.068 2.306s-9.85 4.748-13.833 8.493c-3.983 3.746-7.157 8.267-9.326 13.286s-3.289 10.429-3.289 15.895c0 5.467 1.119 10.877 3.289 15.896s5.344 9.539 9.327 13.286c3.983 3.745 8.691 6.635 13.833 8.493s10.611 2.642 16.068 2.307z"></path>
  </symbol>
</svg>