<?xml version="1.0" encoding="utf-8"?><svg xmlns="http://www.w3.org/2000/svg" width="23" height="22" viewBox="0 0 23 22"><path d="M10.235.023l-.518.056C8.421.215 6.893.7 5.727 1.346 3.078 2.814 1.158 5.252.389 8.127c-.946 3.535-.13 7.184 2.235 9.996 1.443 1.717 3.472 2.973 5.713 3.54 1.002.253 1.255.28 2.665.281 1.178.001 1.323-.006 1.763-.087 2.412-.443 4.344-1.436 5.981-3.073 1.765-1.765 2.8-3.85 3.166-6.383.05-.346.068-.727.07-1.534.002-1.029-.001-1.079-.081-1.226a.996.996 0 00-.825-.548c-.324-.023-.539.051-.755.261-.278.27-.284.294-.316 1.341-.032 1.021-.072 1.452-.192 2.07-.598 3.09-2.889 5.713-5.879 6.733-2.896.988-5.958.488-8.431-1.377-.428-.323-1.331-1.237-1.665-1.686-1.682-2.258-2.232-5.023-1.536-7.714.823-3.179 3.361-5.675 6.57-6.462.755-.185 1.259-.243 2.11-.244 1.258-.002 2.156.169 3.374.64.374.144.551.193.709.194.411.004.792-.255.939-.639.134-.351.021-.829-.259-1.09-.214-.2-1.504-.675-2.31-.85a9.987 9.987 0 00-2.223-.25 16.859 16.859 0 00-.977.003m11.427 1.045c-.194.069-.523.391-5.433 5.3l-5.227 5.227-1.236-1.231C8.381 8.986 8.375 8.981 7.924 9.017c-.281.023-.432.092-.625.285-.199.199-.282.406-.282.703 0 .44-.004.435 1.773 2.21.89.888 1.678 1.647 1.752 1.686.185.098.729.1.92.003.186-.095 11.33-11.275 11.43-11.467.043-.083.087-.247.097-.364.062-.71-.647-1.246-1.327-1.005" fill-rule="evenodd"/></svg>