<?xml version="1.0" encoding="utf-8"?><svg version="1.1" id="jLayer_1" xmlns="http://www.w3.org/2000/svg" x="0" y="0" viewBox="0 0 122.88 107.33" xml:space="preserve" width="122.88" height="107.33"><style>.jst0{fill-rule:evenodd;clip-rule:evenodd}</style><path class="jst0" d="M12.49 28.62l-.26.21c1.72 2.11 2.43 4.6 2.14 7.46-.29 2.86-1.5 5.15-3.61 6.87l.21.26c2.11-1.72 4.6-2.43 7.46-2.13 12.88 1.34 3.67 8.8 4.99-4.07.29-2.86 1.5-5.15 3.61-6.87l-.21-.26c-2.11 1.72-4.6 2.43-7.46 2.14-2.86-.3-5.15-1.5-6.87-3.61zm18.77 36.22l8.86-31.19a2.592 2.592 0 012.49-1.89H80.4c1.26 0 2.3.9 2.54 2.08l9.1 31.15a2.581 2.581 0 01-2.48 3.3v.01H33.7a2.59 2.59 0 01-2.44-3.46zM62 103.86l8.86-31.19a2.592 2.592 0 012.49-1.89h37.79c1.26 0 2.3.9 2.54 2.08l9.1 31.15a2.581 2.581 0 01-2.48 3.3v.01H64.44a2.59 2.59 0 01-2.44-3.46zm13.3-27.9l-7.43 26.18h48.99l-7.65-26.18H75.3zM.15 103.86l8.86-31.19a2.592 2.592 0 012.49-1.89h37.79c1.26 0 2.3.9 2.54 2.08l9.1 31.15a2.581 2.581 0 01-2.48 3.3v.01H2.59a2.59 2.59 0 01-2.44-3.46zm13.3-27.9l-7.43 26.18H55l-7.65-26.18h-33.9zm31.11-39.02l-7.43 26.18h48.99l-7.65-26.18H44.56zM44.31 0l-.26.21c1.72 2.11 2.43 4.6 2.14 7.46-.29 2.86-1.5 5.15-3.61 6.87l.21.26c2.11-1.72 4.6-2.43 7.47-2.13 2.87.3 5.16 1.5 6.87 3.6l.26-.21c-1.72-2.11-2.43-4.6-2.14-7.46.29-2.86 1.5-5.15 3.61-6.87l-.21-.26c-2.11 1.72-4.6 2.43-7.46 2.14-2.87-.3-5.16-1.5-6.88-3.61zm42.32 2.31l-.47.39c3.14 3.86 4.45 8.41 3.91 13.65s-2.74 9.43-6.6 12.57l.39.47c3.86-3.14 8.41-4.45 13.66-3.9 5.24.54 9.43 2.75 12.57 6.6l.47-.39c-3.14-3.86-4.45-8.41-3.91-13.65s2.74-9.43 6.6-12.57l-.4-.48c-3.86 3.14-8.41 4.45-13.65 3.91s-9.43-2.74-12.57-6.6z"/></svg>