<?xml version="1.0" encoding="iso-8859-1"?><svg xmlns="http://www.w3.org/2000/svg" viewBox="0 0 317.536 317.536" width="317.54" height="317.54"><path d="M103.616 221.205c37.822-7.288 112.142-24.705 143.441-53.651-2.918-4.087-40.701-23.574-40.701-23.574h63.195C300.611 139.707 311.942 0 311.942 0S182.788 70.085 148.508 113.826c-34.274 43.754-67.88 111.396-67.88 111.396l.019-.006c-42.462 45.148-75.053 81.132-75.053 81.132l35.727-18.991 62.295-66.152zm192.94-197.798c-1.42 11.645-3.432 26.247-6.144 41.087-10.077 55.271-20.669 65.226-22.635 66.64h-61.421c-5.932 0-11.099 4.055-12.487 9.814a12.855 12.855 0 006.594 14.454c8.021 4.145 16.935 8.927 24.094 12.95-28.13 17.34-73.054 29.473-105.612 36.575l162.85-172.914a1695.44 1695.44 0 0114.761-8.606zm-137.933 98.349c18.529-23.644 67.932-56.318 106.904-80.001-29.525 27.044-69.127 64.178-106.756 102.232-14.717 14.878-29.731 30.373-44.332 45.631 12.275-21.518 28.214-47.476 44.184-67.862zm20.618 148.981c39.287 4.357 77.739 13.361 114.97 25.63-19.261-3.618-38.477-7.127-57.835-9.589-19.3-2.731-38.664-4.827-57.976-6.048-16.748-.88-33.477-1.247-50.001.019 3.528.63 7.07 1.253 10.604 1.896 9.621 1.793 19.293 3.573 29.056 5.842 4.904 1.195 9.743 2.359 14.955 4.389 1.311.533 2.654 1.112 4.177 2.012.771.469 1.594.99 2.558 1.889.88.932 2.32 2.23 2.815 5.264.411 3.162-1.273 5.598-2.269 6.613-1.099 1.138-1.999 1.671-2.815 2.172l-1.285.675-1.003.456-2.095.803c-10.829 3.419-20.617 3.766-30.65 4.415-9.949.488-19.827.418-29.673.148-39.384-1.048-78.401-5.206-117.174-10.977 19.608.27 39.146 1.003 58.696 1.015 19.531.296 39.056.366 58.491-.032 9.711-.257 19.396-.675 28.972-1.375 7.417-.643 15.135-1.42 21.909-3.078a152.568 152.568 0 00-8.438-2.172c-9.312-2.069-18.901-3.74-28.522-5.437-9.64-1.819-19.21-3.445-29.184-5.945-2.629-.765-4.839-1.17-8.451-3.027-.54-.334-1.041-.611-1.857-1.33-.636-.688-2.237-1.864-2.487-5.264-.058-1.62.578-3.117 1.163-3.965a8.014 8.014 0 011.575-1.742c.938-.733 1.485-.97 2.069-1.273 2.05-.919 3.368-1.163 4.801-1.497 5.444-1.105 10.257-1.594 15.341-1.999 19.98-1.483 39.935-.731 59.563 1.512z"/></svg>