<?xml version="1.0" encoding="utf-8"?><svg height="24" width="24" xmlns="http://www.w3.org/2000/svg" viewBox="0 0 24 24"><path d="M17.76 2.025L12.3 4.014 6.9 5.98l-1.52.023c-1.393.021-1.547.03-1.84.11-1.15.312-2.043 1.182-2.407 2.347l-.113.36v4.36l.113.36c.296.949.912 1.68 1.759 2.09l.392.19 1.442 2.88c1.144 2.283 1.475 2.91 1.595 3.025.167.159.452.275.679.275.406 0 .811-.293.939-.678.137-.411.144-.392-1.134-2.951a195.285 195.285 0 01-1.165-2.352c0-.01.265-.019.59-.019h.59l5.46 1.99c5.257 1.916 5.47 1.99 5.74 1.99.234 0 .311-.018.469-.111.103-.061.236-.173.294-.25.21-.274.213-.311.215-2.129.002-1.427.011-1.69.058-1.69.031 0 .225-.055.43-.122 1.596-.522 2.754-1.588 3.237-2.979.205-.593.257-.934.257-1.699s-.052-1.106-.257-1.699c-.376-1.085-1.148-1.963-2.243-2.554a6.632 6.632 0 00-1.27-.51L19 6.185V4.52c0-1.822-.007-1.884-.236-2.163a1.093 1.093 0 00-.301-.231c-.184-.092-.581-.149-.703-.101M17 11.003c0 6.232-.004 6.561-.07 6.54-.038-.012-2.064-.748-4.501-1.634l-4.43-1.612V7.702l4.47-1.628a670.49 670.49 0 014.501-1.631c.016-.002.03 2.95.03 6.56m-11 0v3.002l-.97-.012c-.955-.013-.973-.015-1.198-.12a1.553 1.553 0 01-.705-.705l-.107-.228V9.06l.107-.228c.185-.395.573-.712.967-.79.091-.018.557-.035 1.036-.038L6 8v3.003M19.42 8.45c.586.292 1.036.717 1.275 1.206.224.457.281.729.281 1.344 0 .614-.057.887-.279 1.341-.162.33-.412.629-.736.878-.219.169-.674.419-.871.479l-.09.027v-5.45l.09.028c.05.015.198.081.33.147" fill-rule="evenodd"/></svg>