<svg width="82" height="82" viewBox="0 0 82 82" fill="none" xmlns="http://www.w3.org/2000/svg">
<rect width="82" height="82" rx="12" fill="#C7DBFF"/>
<path d="M17.8303 73.8915C16.1991 73.6587 14.5939 72.4689 13.9022 70.9946C13.576 70.2962 13.5368 70.0634 13.5368 68.9124C13.5368 67.7096 13.5629 67.5544 13.9544 66.8043C14.3981 65.9378 14.4112 65.9378 13.5629 65.8214C12.023 65.6145 10.5744 64.2177 10.1307 62.4976C9.46513 59.9369 11.4227 57.3374 14.1632 57.1176C14.8679 57.0529 15.1159 57.0917 15.7032 57.3633C16.0947 57.5444 16.5906 57.8677 16.7994 58.0875L17.2039 58.4885L20.5448 55.1647L23.8857 51.841L24.6165 46.4738C25.4778 40.0591 25.6866 39.3478 27.1874 37.4725C28.6099 35.6878 30.8806 34.4721 33.2297 34.2393C34.2998 34.1358 34.9001 34.2393 35.396 34.6661C36.1138 35.261 36.2182 35.6102 36.3095 37.8864C36.3748 39.8392 36.4009 39.9944 36.7663 40.7057C38.1757 43.4604 41.882 44.1588 44.1788 42.0766C44.5703 41.7274 45.0271 41.1325 45.249 40.7057C45.6144 39.9944 45.6405 39.8392 45.7057 37.8864C45.7971 35.6102 45.9015 35.261 46.6192 34.6661C47.1151 34.2393 47.7155 34.1358 48.7856 34.2393C52.3222 34.6014 55.2194 36.9164 56.42 40.3695C56.5766 40.8092 56.955 43.2147 57.3988 46.4738L58.1296 51.841L61.4704 55.1647L64.8244 58.5014L65.2811 58.0617C65.9467 57.428 66.5339 57.1822 67.4997 57.1176C70.7753 56.8848 73.033 60.493 71.5191 63.5193C70.9449 64.6445 69.5877 65.6662 68.4523 65.8214C67.6041 65.9378 67.6171 65.9378 68.0608 66.8043C68.4523 67.5544 68.4784 67.7096 68.4784 68.9124C68.4784 70.0634 68.4393 70.2962 68.113 70.9946C67.3953 72.5206 65.8292 73.6458 64.0674 73.9044C63.0887 74.0338 18.7961 74.0338 17.8303 73.8915ZM36.5705 71.7188C36.5705 71.5119 36.0224 71.3567 32.4075 70.5548C27.9443 69.5719 27.5267 69.4297 26.8481 68.5244C26.3913 67.9424 26.1434 67.244 26.1303 66.5586V66.0025H21.9281C18.1044 66.0025 17.6607 66.0283 17.1909 66.2482C16.1338 66.7267 15.5204 67.7484 15.5335 68.99C15.5335 69.8565 15.7945 70.4643 16.447 71.098C17.2953 71.9516 17.0995 71.9387 27.344 71.9387C36.2051 71.9516 36.5705 71.9387 36.5705 71.7188ZM64.4589 71.7576C64.9288 71.6153 65.2681 71.3955 65.6596 70.9816C66.3251 70.2703 66.4817 69.8953 66.4817 68.977C66.4948 67.7484 65.8814 66.7267 64.8244 66.2482C64.3284 66.0154 63.6759 66.0025 51.4217 66.0025H38.5281V68.977V71.9516H51.1607C62.0185 71.9516 63.8847 71.9257 64.4589 71.7576ZM36.5705 67.6837V66.0025H32.3944H28.2184V66.5068C28.2184 67.5285 28.3619 67.5932 32.4597 68.5114C34.4694 68.9641 36.2182 69.3391 36.3487 69.3521C36.5444 69.365 36.5705 69.2098 36.5705 67.6837ZM23.2071 59.3808C25.7258 56.8718 27.9051 54.6474 28.0487 54.4275C28.5446 53.6904 28.8839 52.4747 29.7061 48.3491L30.5283 44.2106L30.1498 41.042C29.941 39.309 29.7452 37.8605 29.7191 37.8217C29.6017 37.7182 28.8709 38.4942 28.3619 39.2831C27.5267 40.5635 27.3701 41.2619 26.5871 47.0687C26.1825 50.0562 25.8302 52.5781 25.8041 52.6816C25.7649 52.7851 23.8204 54.7896 21.4583 57.1176C17.7259 60.8164 17.1256 61.3466 16.7863 61.3466C16.2774 61.3466 15.8337 60.894 15.7293 60.2603C15.4943 58.8376 13.6021 58.7342 12.5058 60.0921C12.1404 60.5448 12.1013 60.687 12.1013 61.463C12.1013 62.5494 12.4928 63.2348 13.3672 63.6616C13.8761 63.9073 14.1371 63.9332 16.2774 63.9332H18.6264L23.2071 59.3808ZM30.7893 60.118C31.5331 57.1693 31.7289 56.1605 31.7289 55.3975C31.7419 54.4534 31.4157 51.2848 31.2982 51.1684C31.233 51.0908 31.1677 51.3236 30.8937 52.6169C30.7762 53.186 30.4369 54.143 30.1367 54.7509C29.6278 55.8113 29.4581 55.9924 25.6475 59.7947C23.4681 61.9803 21.6932 63.7909 21.6932 63.8427C21.6932 63.8944 23.5203 63.9203 25.7649 63.9073L29.8366 63.8685L30.7893 60.118ZM50.0123 63.7392C50.0123 63.6228 49.6208 62.0062 49.1379 60.1439C47.9895 55.6303 47.9895 56.1476 49.2815 45.4392C49.8296 40.848 50.2603 36.9811 50.2472 36.8517C50.195 36.5543 49.3076 36.2568 48.4202 36.2568H47.7938V37.7312C47.7938 39.5547 47.6502 40.3436 47.089 41.5076C46.2799 43.2018 44.5312 44.6373 42.6389 45.1288C42.2865 45.2322 41.5427 45.3098 41.0076 45.3098C40.4726 45.3098 39.7417 45.2322 39.3763 45.1288C37.484 44.6373 35.7353 43.2018 34.9262 41.5076C34.365 40.3436 34.2215 39.5547 34.2215 37.7312V36.2568H33.6081C32.7076 36.2568 31.8202 36.5543 31.768 36.8517C31.755 36.9811 32.1856 40.848 32.7337 45.4392C34.0257 56.1476 34.0257 55.6303 32.8773 60.1439C32.3944 62.0062 32.0029 63.6228 32.0029 63.7392C32.0029 63.9073 33.0209 63.9332 41.0076 63.9332C48.9944 63.9332 50.0123 63.9073 50.0123 63.7392ZM60.322 63.8427C60.322 63.7909 58.5472 61.9803 56.3678 59.7947C52.5571 55.9924 52.3874 55.8113 51.8785 54.7509C51.5783 54.143 51.239 53.186 51.1216 52.6169C50.8475 51.3236 50.7823 51.0908 50.717 51.1684C50.6126 51.2719 50.2733 54.4275 50.2733 55.3458C50.2733 56.07 50.4821 57.1176 51.1868 59.9369C51.6958 61.9545 52.1264 63.6875 52.1656 63.778C52.2047 63.8944 53.1444 63.9332 56.2764 63.9332C58.495 63.9332 60.322 63.8944 60.322 63.8427ZM68.6481 63.6616C70.3055 62.8598 70.436 60.3249 68.8569 59.4455C68.113 59.0187 67.1212 59.0316 66.6905 59.4714C66.5078 59.6524 66.3251 60.0016 66.286 60.2603C66.1816 60.894 65.7379 61.3466 65.2289 61.3466C64.8896 61.3466 64.2893 60.8164 60.5569 57.1176C58.1948 54.7896 56.2503 52.7851 56.2112 52.6816C56.1851 52.5781 55.8327 50.0433 55.4282 47.0558C54.9845 43.8355 54.5799 41.3136 54.4233 40.848C54.2928 40.4212 53.9404 39.7228 53.6533 39.2831C53.1444 38.4942 52.4136 37.7182 52.2961 37.8217C52.27 37.8605 52.0742 39.309 51.8654 41.042L51.487 44.2106L52.3092 48.3491C53.1313 52.4747 53.4706 53.6904 53.9665 54.4275C54.1101 54.6474 56.2895 56.8718 58.8082 59.3808L63.3888 63.9332H65.7248C67.852 63.9332 68.1261 63.9073 68.6481 63.6616Z" fill="white"/>
<path d="M39.3373 33.7364C37.8756 33.4131 36.6228 32.7147 35.4483 31.5508C33.7909 29.9083 33.0601 28.1106 33.047 25.6922V24.6188H32.1988C30.8024 24.6188 30.5805 24.179 30.8154 21.8511C31.1678 18.398 32.8643 15.6821 35.7615 13.9233L36.5837 13.4318L36.6098 12.2679C36.6489 10.8711 36.9491 10.1339 37.8756 9.22862C38.8283 8.27159 39.533 8 41.0077 8C42.4824 8 43.1871 8.27159 44.1398 9.22862C45.0663 10.1339 45.3665 10.8711 45.4056 12.2679L45.4317 13.4318L46.2539 13.9233C48.0157 14.9838 49.3468 16.4452 50.2212 18.2299C50.8868 19.5879 51.1869 20.9458 51.2261 22.64C51.2522 24.0109 51.2391 24.0885 50.9259 24.4248C50.6258 24.7481 50.5475 24.7739 49.7905 24.6964L48.9684 24.6317V25.6922C48.9553 28.1106 48.2245 29.9083 46.5671 31.5508C45.758 32.3526 45.2751 32.7147 44.5052 33.0769C42.7956 33.8916 41.073 34.1115 39.3373 33.7364ZM43.1219 31.4861C44.6226 30.9041 45.9146 29.6367 46.5019 28.1365C46.7498 27.5416 46.8151 27.076 46.8542 25.6404L46.9064 23.8686L46.267 23.4419C45.9277 23.2091 45.3143 22.7047 44.9097 22.3296L44.1789 21.6442L42.9522 22.2132C41.2818 22.9892 39.1807 23.6359 36.9752 24.0626L35.1351 24.4248V25.6663C35.1351 28.6409 36.5967 30.736 39.2851 31.6154C40.303 31.9517 42.0778 31.887 43.1219 31.4861ZM36.3096 22.1486C38.9588 21.6442 40.825 21.0363 43.1219 19.8853C43.7483 19.5749 44.3877 19.3163 44.5313 19.3163C44.7009 19.3163 45.2621 19.7819 46.006 20.519C46.8803 21.3985 47.4415 21.8511 48.0418 22.1356C48.4986 22.3684 48.9553 22.5495 49.0597 22.5495C49.4773 22.5495 49.0336 20.4156 48.3028 18.9283C47.2849 16.9108 45.2621 15.2812 43.0305 14.7251C42.0387 14.4794 39.9767 14.4794 38.9849 14.7251C36.7533 15.2812 34.7305 16.9108 33.7126 18.9283C33.2036 19.9758 32.7991 21.4114 32.786 22.2132V22.5883L33.8692 22.4978C34.4565 22.446 35.5527 22.2908 36.3096 22.1486ZM41.0077 12.5265C41.7646 12.5265 42.639 12.5782 42.9522 12.6429L43.5264 12.7464L43.422 12.1256C43.2654 11.0651 42.8086 10.4572 41.8951 10.0693C41.2818 9.82354 40.7337 9.82354 40.1203 10.0693C39.2068 10.4572 38.75 11.0651 38.5934 12.1256L38.489 12.7464L39.0632 12.6429C39.3764 12.5782 40.2508 12.5265 41.0077 12.5265Z" fill="white"/>
</svg>
