<svg width="82" height="82" viewBox="0 0 82 82" fill="none" xmlns="http://www.w3.org/2000/svg">
<rect width="82" height="82" rx="12" fill="#BDDFA2"/>
<path d="M32.6887 12.3477C33.4056 12.9965 33.7128 13.9191 33.7274 15.3753C33.7274 16.0817 33.6835 16.9467 33.625 17.2783C33.5226 17.8261 33.5372 17.8694 33.8006 17.7973C34.02 17.7396 34.0931 17.7973 34.0931 18.028C34.0931 18.2587 34.0054 18.3307 33.6982 18.3307C33.3324 18.3307 33.3178 18.3307 33.5811 18.6191C33.7274 18.7777 33.9468 18.9074 34.0639 18.9074C34.2248 18.9074 34.2541 19.0228 34.1809 19.3544C34.137 19.5994 34.0931 19.8589 34.0931 19.931C34.0931 20.0031 33.9907 20.0608 33.8737 20.0608C33.7567 20.0608 33.6543 20.0031 33.6543 19.931C33.6543 19.8589 33.5226 19.7724 33.3617 19.7292C33.2008 19.6859 33.0691 19.7148 33.0691 19.7869C33.0691 19.8589 33.1276 19.9166 33.2008 19.9166C33.3324 19.9166 33.8006 20.7095 33.8006 20.9546C33.8006 21.0123 33.625 21.07 33.3909 21.07C33.0545 21.0844 33.0398 21.0988 33.2447 21.2286C33.5665 21.4016 33.5811 21.7332 33.2739 21.9062C33.0837 22.0071 33.1569 22.4828 33.9468 25.7555C34.4442 27.8027 35.3074 31.1763 35.8633 33.2379C38.3209 42.3783 39.0378 45.5212 39.4181 48.8948C39.7692 52.0521 39.974 56.0312 40.0033 60.6014C40.0033 62.9658 40.0325 64.8976 40.0472 64.8976C40.0618 64.8976 40.135 64.6237 40.2081 64.2777C40.6762 62.2882 41.7441 58.5974 42.1245 57.5882C42.3878 56.9539 42.7682 55.6852 42.973 54.7913C43.3241 53.3208 43.368 52.8739 43.3533 50.6248C43.3387 46.689 43.0023 43.6182 42.2854 41.1096C40.9834 36.4962 40.6762 34.8094 40.3836 30.3689C40.135 26.7359 40.4129 23.5641 41.1151 22.1368C41.5247 21.3151 42.0075 20.9114 42.7097 20.8249C43.8507 20.6663 44.7431 21.6034 45.8549 24.1696C46.1329 24.7751 46.3816 25.2942 46.4108 25.3374C46.4547 25.3662 46.5279 24.7751 46.5864 23.9966C46.7034 22.3098 46.879 21.589 47.2739 21.1997C48.3272 20.1617 50.1559 22.0792 50.8434 24.9626C50.9897 25.5537 51.414 27.0242 51.809 28.2208C52.6721 30.9168 52.8476 31.9116 52.8476 34.1174C52.8476 36.9575 52.2917 38.7596 50.8727 40.605C49.9511 41.816 49.4976 42.9261 49.2196 44.6273C48.7807 47.381 47.4641 51.2592 44.5968 58.3379C42.5634 63.355 42.5341 63.3983 42.695 63.2397C42.8852 63.0234 44.9187 59.5633 45.972 57.6171C47.4788 54.8634 48.8685 51.7349 51.6188 44.9301C53.3889 40.5473 54.8811 36.0925 55.3785 33.6848C55.6418 32.4161 55.9929 28.9849 56.0807 26.7935C56.1392 25.4816 56.1245 25.3951 55.8758 25.4672C55.5394 25.5825 55.3492 25.1932 55.5833 24.9049C55.7149 24.7607 55.6564 24.631 55.3638 24.3426C55.0566 24.0399 55.0274 23.939 55.1883 23.8813C55.3785 23.8092 55.3931 23.6795 55.2761 23.1316C55.1736 22.6847 55.1736 22.4396 55.2761 22.3819C55.3638 22.3243 55.5247 21.8341 55.6418 21.2862C55.8758 20.205 56.6366 18.1289 56.9584 17.682C57.0754 17.5378 57.2364 17.4657 57.3241 17.5234C57.7191 17.7541 57.9239 20.378 57.6606 21.7332C57.5582 22.281 57.5728 22.3243 57.8361 22.2522C58.041 22.1945 58.0995 22.2522 58.0556 22.454C58.0263 22.5982 57.8508 22.7568 57.646 22.8144L57.2802 22.9153L57.6752 22.9298C58.2458 22.9442 58.3335 23.2325 57.8947 23.5497C57.4558 23.8669 57.3826 24.0975 57.7337 24.0975C57.8654 24.0975 57.9385 24.1985 57.9093 24.3426C57.88 24.4868 57.763 24.6021 57.646 24.6021C57.5143 24.6021 57.3973 24.7751 57.3534 25.0346C57.2949 25.3951 57.2217 25.4672 56.8853 25.4383C56.5927 25.4239 56.5195 25.4672 56.578 25.6257C56.6219 25.7411 56.7536 25.8132 56.856 25.7699C57.1047 25.669 57.1047 25.7122 56.8853 26.4187C56.7975 26.7359 56.6366 26.9809 56.5488 26.9809C56.4171 26.9809 56.3586 27.3846 56.344 28.3794C56.3147 30.8159 55.949 33.6272 55.3638 35.9195C55.3053 36.1213 55.5979 35.7609 55.9929 35.1265C59.4015 29.6913 60.4694 28.365 62.2541 27.327C62.8393 26.9954 63.1611 26.9089 63.8926 26.9089C64.6533 26.9089 64.8581 26.9665 65.1799 27.2693C65.8383 27.8604 66.0138 28.4659 65.9992 30.0229C65.9699 32.3296 65.3409 35.2275 63.995 39.1777C61.8445 45.4635 59.8257 48.419 56.6073 49.9472L55.3492 50.5527L54.5007 52.5711C52.7745 56.6799 49.8925 62.4179 48.6783 64.1624C47.9176 65.2436 45.9866 67.2332 45.0503 67.882C44.5529 68.2135 43.3826 68.8623 42.461 69.3092C41.1444 69.9292 40.7055 70.0878 40.5299 69.958C40.4129 69.8859 40.0325 69.6697 39.6961 69.4967C38.3356 68.7902 36.8873 67.3341 35.8047 65.532C35.1025 64.3786 34.5466 63.1532 33.4056 60.2121C32.4401 57.718 31.8403 56.5069 30.8747 55.0941C30.3773 54.3876 30.2311 54.2723 29.3387 53.9551C26.998 53.1478 24.2624 51.6196 22.2728 50.0049C19.4641 47.7558 18.206 45.3338 16.8308 39.5958C15.7483 35.0977 15.7336 33.6416 16.7284 33.0217C17.0941 32.791 17.3575 32.7477 17.9134 32.8054C18.6302 32.8775 20.4296 33.6272 21.2195 34.1894C21.6438 34.4922 21.8779 34.5643 21.7462 34.3624C21.5853 34.1029 21.3512 31.58 21.3512 30.0806C21.3512 26.7359 22.3899 24.0975 23.6919 24.0975C24.1307 24.0975 24.6427 24.6454 24.9061 25.3951C25.0377 25.7555 25.3157 26.534 25.5205 27.1251C25.7546 27.7739 26.2519 28.6966 26.7786 29.4318C30.0409 34.0597 31.1234 35.8474 32.3815 38.5866C33.8737 41.8881 34.7807 44.7138 34.927 46.5736C35.0001 47.5828 35.1464 48.1451 35.7316 49.5724C36.7264 52.0665 37.2238 54.1281 37.6626 57.6891C38.1015 61.1925 38.3356 62.3891 38.8915 64.2489C39.2572 65.4887 39.2865 65.5176 39.3889 65.0418C39.5644 64.2489 39.3889 57.2566 39.0524 52.499C38.672 47.0061 38.3648 45.4635 35.1172 33.1082C34.6929 31.5223 33.9468 28.3506 33.4495 26.0583C32.5571 21.9638 32.5278 21.8773 32.1182 21.6322C31.8695 21.4881 31.5623 21.3727 31.416 21.3727C31.2697 21.3583 31.1527 21.2286 31.1381 21.0267C31.1234 20.8537 31.1088 20.6086 31.0942 20.4789C31.0942 20.3491 30.9918 20.1329 30.8894 20.0031C30.787 19.8734 30.7284 19.6859 30.7723 19.5706C30.8162 19.4553 30.7577 19.3255 30.6407 19.2823C30.3481 19.1669 30.3773 18.8065 30.6846 18.7056C30.9186 18.6335 30.9479 18.4172 30.9625 17.0044C30.9771 14.8563 31.2258 12.4919 31.4599 12.2035C31.7379 11.8863 32.2352 11.944 32.6887 12.3477ZM31.8988 12.7802C31.8988 13.0253 31.811 13.1406 31.6355 13.1406C31.4306 13.1406 31.416 13.1695 31.6062 13.2848C31.7525 13.3713 31.8403 13.3713 31.8695 13.2848C31.9573 13.0541 32.1914 13.1118 32.1914 13.3569C32.1914 13.4722 32.1036 13.5731 31.9865 13.5731C31.811 13.5731 31.7964 13.6741 31.9134 14.0345C32.089 14.6544 32.089 15.3032 31.8988 15.3032C31.811 15.3032 31.7525 15.4185 31.7525 15.5483C31.7671 15.7645 31.7964 15.7645 32.0304 15.4762C32.3962 15.0581 32.5863 15.0725 32.5863 15.5194C32.5863 15.7357 32.5132 15.8799 32.3815 15.8799C32.2352 15.8799 32.206 15.9664 32.2791 16.197C32.323 16.3844 32.4401 16.543 32.4986 16.5719C32.7034 16.644 32.6595 17.1486 32.4401 17.2206C32.3084 17.2639 32.3084 17.3504 32.4401 17.5811C32.6449 17.9127 32.5278 18.1145 32.2499 17.8838C32.1475 17.7973 32.0451 17.7973 31.9865 17.8694C31.8695 18.0568 32.3084 18.2154 32.6449 18.1145C33.1422 17.9559 33.4202 15.2455 33.0545 13.9336C32.8936 13.328 32.2791 12.4198 32.0304 12.4198C31.9573 12.4198 31.8988 12.5784 31.8988 12.7802ZM31.5184 16.2259C31.1966 16.543 31.2697 16.7737 31.6062 16.4998C31.8841 16.2547 31.9865 16.024 31.811 16.024C31.7671 16.024 31.6355 16.1105 31.5184 16.2259ZM31.4892 17.1197C31.3868 17.062 31.3136 17.0909 31.3136 17.163C31.3136 17.2495 31.4014 17.3216 31.5184 17.3216C31.6355 17.3216 31.7671 17.4081 31.7964 17.4946C31.8403 17.6099 31.8841 17.5811 31.8841 17.4225C31.8988 17.2927 32.0012 17.1774 32.1182 17.1774C32.3815 17.1774 32.4108 16.9323 32.1475 16.8458C32.0597 16.817 31.8988 16.889 31.811 17.0044C31.7232 17.1197 31.5769 17.1774 31.4892 17.1197ZM31.3136 17.7541C31.3136 17.8261 31.416 17.8982 31.5477 17.8982C31.6647 17.8982 31.7232 17.8261 31.6793 17.7541C31.6355 17.6676 31.533 17.6099 31.4453 17.6099C31.3721 17.6099 31.3136 17.6676 31.3136 17.7541ZM56.8853 18.6912C56.7682 18.9651 56.7097 19.1958 56.7828 19.1958C56.9291 19.1958 56.7682 20.2626 56.5927 20.3203C56.4318 20.3924 56.4464 20.7816 56.6219 20.7816C56.6951 20.7816 56.7682 20.7095 56.7682 20.6375C56.7682 20.551 56.8267 20.4933 56.9145 20.4933C57.1339 20.4933 57.0901 20.9258 56.8706 20.9402C56.7243 20.9402 56.7243 20.9691 56.8706 21.0267C56.973 21.0556 57.0608 21.1565 57.0608 21.243C57.0608 21.3295 56.973 21.3583 56.8706 21.3151C56.7536 21.2718 56.6219 21.4304 56.5342 21.7332C56.3879 22.1512 56.4171 22.2522 56.6951 22.5117L57.0315 22.8144L57.1925 22.3387C57.5436 21.3727 57.5728 18.1866 57.2217 18.1866C57.1632 18.1866 57.0169 18.4172 56.8853 18.6912ZM47.3471 21.7908C47.0691 22.2522 47.0399 22.5405 47.0252 25.0346C47.0106 26.6205 46.9082 28.4659 46.7766 29.4318C46.3962 32.1855 46.3669 32.791 46.5279 34.1462C46.6888 35.5446 47.4641 38.4425 47.9761 39.5237C48.2833 40.1581 48.2833 40.1581 48.2102 39.6679C47.8006 37.0873 47.6982 35.3284 47.625 29.576C47.5958 26.1303 47.5226 23.0163 47.4934 22.6558L47.4202 22.0071L47.5519 22.6558C47.625 23.0163 47.7567 25.4816 47.8445 28.1343C48.0932 36.1357 48.3858 39.6246 48.8831 40.3887C49.0733 40.6627 48.9417 36.5106 48.6491 32.5315C48.532 30.9456 48.4443 28.4803 48.4589 27.053L48.4735 24.458L48.5906 26.7647C48.6491 28.0334 48.8685 30.8591 49.0733 33.0361C49.2928 35.213 49.5122 37.7504 49.5707 38.6587L49.6731 40.3167L50.0096 39.1345C50.3314 37.9955 50.3461 37.7793 50.2583 34.1606C50.2144 32.0701 50.1559 29.5904 50.1266 28.6389C50.0827 27.399 50.0974 27.0674 50.1998 27.4855C50.3461 28.1199 50.6679 34.3769 50.6825 36.7845C50.6971 37.6207 50.6533 38.5578 50.5801 38.875L50.4777 39.4516L50.7118 39.0335C51.1945 38.1829 51.809 35.3428 51.8967 33.5118C51.9845 31.652 51.7797 29.5472 51.3993 28.4947C51.2823 28.1776 50.9605 26.9809 50.6825 25.8276C50.4046 24.6742 50.0096 23.4055 49.8194 23.0163C49.4829 22.3098 48.7807 21.3583 48.9124 21.7908C49.2928 23.0163 49.6 24.285 49.5415 24.4291C49.5122 24.5301 49.4683 24.4868 49.4683 24.357C49.439 23.8669 48.5613 21.3727 48.3858 21.3006C47.9908 21.1421 47.6397 21.3151 47.3471 21.7908ZM42.0514 21.7043C41.6564 22.0936 41.554 22.3098 41.554 22.7423C41.554 23.1028 41.5101 23.2325 41.4223 23.1172C40.881 22.2666 40.6762 30.3978 41.159 34.0164C41.4808 36.4529 41.7003 37.4621 42.5049 40.3167L43.1632 42.6234L43.09 41.5421C43.0461 40.951 42.9437 38.9182 42.8706 37.044C42.7389 33.8434 42.578 32.1999 42.066 28.8263C41.7588 26.8079 41.8173 26.4619 42.1538 28.3506C42.7097 31.5511 43.0169 33.8723 43.09 35.487C43.3095 39.8409 43.9385 49.457 44.0263 49.976C44.1141 50.4662 44.1579 50.3076 44.3481 48.8227C44.4798 47.6693 44.5529 45.6942 44.5383 42.9117C44.5383 38.7164 44.2896 35.5446 43.5143 29.4607C43.1339 26.4475 43.368 27.1972 43.8654 30.5275C44.787 36.8133 45.1527 41.3835 45.0064 45.0743C44.9625 46.5016 44.8601 48.1163 44.787 48.6785C44.7139 49.2264 44.67 49.7021 44.6992 49.731C44.7724 49.8175 45.4892 46.6169 45.7379 45.0743C45.8549 44.2813 46.0012 42.335 46.0451 40.7492C46.1182 37.9234 46.1182 37.8369 45.7233 36.5682C45.2551 35.0545 45.065 32.1134 45.3429 30.6861C45.577 29.4318 45.2551 28.0045 43.8361 24.0255C43.4704 22.9874 43.1632 21.935 43.1632 21.6755C43.1632 21.0411 42.7097 21.0556 42.0514 21.7043ZM55.9344 21.6755C55.9782 21.7908 56.0221 21.7476 56.0221 21.589C56.0368 21.4304 55.9929 21.3439 55.949 21.4016C55.9051 21.4448 55.8905 21.5746 55.9344 21.6755ZM43.3533 22.0071C43.4119 22.3675 43.7922 23.5353 44.2018 24.6166C44.6115 25.6834 45.0942 27.1539 45.2698 27.8748L45.6062 29.2012L45.8403 28.2352L46.089 27.2693L45.3283 24.8761C44.7285 23.0163 44.4505 22.3531 44.0702 21.9206C43.4265 21.1709 43.2509 21.1997 43.3533 22.0071ZM57.0608 23.3911C57.0608 23.4776 57.1193 23.492 57.2071 23.4488C57.2802 23.4055 57.3534 23.2902 57.3534 23.2181C57.3534 23.1316 57.2802 23.1172 57.2071 23.1604C57.1193 23.2037 57.0608 23.319 57.0608 23.3911ZM23.5017 27.2693C23.5017 29.7058 23.5456 30.268 23.8382 31.4502C24.672 34.7661 26.0764 37.5486 28.578 40.7636C30.2311 42.8829 32.7473 45.6654 32.8789 45.5212C32.9667 45.4347 31.3575 42.9117 28.5487 38.7452C25.1401 33.6993 24.4087 32.2143 23.9259 29.2732C23.7211 28.0045 23.6187 26.2745 23.765 26.4187C23.8089 26.4619 23.9406 27.1972 24.0722 28.0622C24.3502 29.9364 24.95 31.7818 25.7838 33.3677C26.1203 33.9876 27.5393 36.1357 28.9583 38.1253C30.3773 40.1292 31.928 42.3927 32.3962 43.1712C32.8643 43.9353 33.2885 44.5553 33.3178 44.512C33.4348 44.3967 32.2938 41.816 31.5916 40.605C31.1819 39.913 30.1725 38.3559 29.3387 37.1449C27.7149 34.795 26.764 33.0649 26.1349 31.306C25.6375 29.9653 25.0231 27.5 25.0231 26.88C25.0231 25.8132 24.2331 24.3138 23.7065 24.4147C23.5163 24.458 23.4871 24.8472 23.5017 27.2693ZM22.2436 26.4187C21.8925 27.4711 21.9071 27.8748 22.346 30.0806C22.858 32.7189 24.6574 37.2026 26.0325 39.3075C26.5006 40.0139 27.0565 40.9222 27.2614 41.3259C27.6417 42.0611 30.1725 44.7283 31.2405 45.5068C31.5623 45.7375 32.3376 46.343 32.9521 46.8476C33.5811 47.3522 34.0931 47.6982 34.0931 47.6117C34.0931 47.5252 33.1861 46.5304 32.0743 45.3914C30.2749 43.5749 28.4024 41.297 26.9249 39.1777C26.2227 38.1541 24.8329 35.3284 24.2917 33.829C23.4432 31.4358 23.2237 30.0806 23.2091 27.226L23.1945 24.6598L22.8726 25.0491C22.6971 25.2653 22.4191 25.8853 22.2436 26.4187ZM46.0012 26.2024C46.1182 26.5052 46.2206 26.6926 46.2206 26.6061C46.2353 26.3898 45.9281 25.5104 45.8549 25.5825C45.8257 25.6113 45.8842 25.8853 46.0012 26.2024ZM45.7818 30.6573C45.299 33.3533 45.577 35.4149 46.7912 38.1974C47.4641 39.7544 48.7222 42.0179 48.8393 41.9169C48.8831 41.8737 48.5467 41.1096 48.0932 40.2157C47.5373 39.1201 47.113 38.0099 46.7912 36.8566C46.3816 35.2851 46.3377 34.9247 46.3377 32.964C46.3377 31.7385 46.4401 30.0662 46.5717 29.1002C46.718 28.1631 46.8204 27.0963 46.8058 26.7214C46.7912 26.1015 46.7619 26.1736 46.4401 27.4855C46.2499 28.2785 45.9573 29.7058 45.7818 30.6573ZM62.7661 28.7398C61.0399 31.2195 59.5185 34.4057 58.2604 38.1541C57.1193 41.5133 55.042 48.8371 55.1883 48.9813C55.2468 49.0245 57.1486 43.7479 59.5624 36.8998C60.7034 33.6128 61.4349 31.9836 62.0347 31.306C62.415 30.8591 62.4004 30.9024 61.5666 32.6036C61.1716 33.4109 60.484 35.2563 59.9281 37.0728C58.8894 40.432 56.1392 48.5776 55.8612 49.0822C55.554 49.6589 56.1538 49.0678 56.856 48.0874C58.3189 46.069 59.4746 43.2289 60.9375 38.082C61.4056 36.4529 62.0201 34.5787 62.3126 33.9011C62.8393 32.7189 65.0922 28.6245 64.902 29.2156C64.8435 29.3742 64.3022 30.3978 63.7024 31.4935C62.5174 33.6272 61.8591 35.4437 60.7181 39.6679C59.6501 43.5893 58.3335 46.6169 56.8414 48.592C55.9782 49.7165 55.832 50.0049 56.3879 49.4859C56.5927 49.2984 56.8121 49.1975 56.8853 49.2408C57.1486 49.3994 58.8602 47.9865 59.7964 46.8043C61.0253 45.2905 62.3712 42.5657 63.4245 39.5237C64.2291 37.217 65.4725 32.7622 65.3555 32.6468C65.1946 32.5027 63.1319 37.7937 62.1956 40.7492C61.5519 42.7964 60.5864 44.8724 59.6648 46.2276C58.9041 47.3377 57.5582 48.8515 57.1486 49.0678C56.9877 49.1543 57.3095 48.7362 57.8947 48.1307C59.7818 46.1267 61.0107 43.9497 61.9762 40.9366C62.7808 38.3992 63.6 36.179 64.6387 33.7569C65.5749 31.5511 65.5896 31.5079 65.6042 30.1527C65.6188 28.6677 65.4872 28.0622 65.2385 28.4226C65.1214 28.5812 65.1068 28.5524 65.1799 28.3073C65.2823 27.9469 65.0629 27.5865 64.5948 27.399C63.9657 27.1539 63.7317 27.327 62.7661 28.7398ZM62.415 28.1199C62.1517 28.4803 61.4203 29.4318 60.8058 30.2248C60.1914 31.0177 59.4307 32.1855 59.1089 32.8198C58.4359 34.1606 56.6658 39.2786 56.1099 41.4412C55.7296 42.955 55.159 46.3862 55.1736 47.0206C55.1883 47.4675 55.0566 47.8279 56.4756 43.128C58.8017 35.4581 60.2499 32.0557 62.7076 28.5236C63.1465 27.9036 63.4976 27.3702 63.4976 27.3414C63.4976 27.3125 63.3659 27.327 63.205 27.3702C63.0441 27.4135 62.693 27.745 62.415 28.1199ZM60.7327 29.1723C59.7087 30.1959 56.7975 34.5066 55.7296 36.5827C54.9396 38.1253 54.6763 39.0912 54.3398 41.5565C54.0765 43.4884 54.1204 46.2997 54.4422 48.0298C54.647 49.1399 54.8664 49.4859 54.8664 48.6785C54.8664 47.6405 55.3053 44.2525 55.6857 42.4071C56.1392 40.1581 58.0117 34.5643 58.8894 32.8342C59.4892 31.6376 60.1622 30.6284 61.6982 28.6533C62.4297 27.7162 61.9323 27.9757 60.7327 29.1723ZM25.8862 29.6193C26.5592 31.9692 27.7441 34.3192 29.485 36.7701C31.8403 40.0716 32.835 41.9458 33.8152 44.9013C34.5174 46.9917 34.7368 47.3954 34.6052 46.3718C34.1955 43.0415 30.9918 35.9483 28.0221 31.8106C27.5686 31.1763 26.8517 30.1527 26.4421 29.5472C26.0325 28.9272 25.6668 28.4515 25.6375 28.4803C25.6083 28.5091 25.7253 29.0282 25.8862 29.6193ZM21.8047 31.5944C21.8925 32.3441 22.0534 33.4109 22.1704 33.9588C22.3606 34.867 22.463 35.0256 23.37 35.9771C23.9113 36.5538 24.3794 37.0152 24.4087 37.0008C24.4233 36.9863 24.1746 36.3376 23.8528 35.5591C23.0774 33.6848 22.3167 31.3205 22.0973 30.1527C22.0095 29.6337 21.8779 29.1147 21.834 28.9993C21.6584 28.5956 21.6438 30.2248 21.8047 31.5944ZM51.6627 36.871C51.2823 38.3992 50.9166 39.2931 50.3607 40.1581C49.7024 41.1817 49.7755 41.3114 50.4923 40.3743C51.8528 38.5866 52.4234 36.8422 52.438 34.3336C52.4526 33.4253 52.3941 32.2864 52.3063 31.8106C52.1747 31.0033 52.1601 31.1186 52.0723 33.3244C51.9991 34.968 51.8821 36.0636 51.6627 36.871ZM18.1621 34.4489C19.2885 36.4817 20.927 38.9182 22.5654 40.9943C24.2917 43.1712 26.4714 46.3574 27.5247 48.2028C27.8611 48.8227 28.1684 49.2984 28.1976 49.284C28.2854 49.1975 27.1882 45.3482 26.7786 44.2958C26.3397 43.1856 25.5644 41.9025 24.5403 40.5906C24.2331 40.2013 23.3846 39.1056 22.6386 38.1541C21.8925 37.217 20.8684 35.9771 20.3418 35.4149C19.8152 34.8526 19.1715 34.1462 18.9081 33.8434C18.44 33.31 17.6939 32.9496 17.5915 33.2091C17.5623 33.2668 17.811 33.829 18.1621 34.4489ZM16.6992 33.5551C16.2895 34.0597 16.2895 35.1986 16.6992 36.3952C17.1088 37.6063 18.8057 40.8213 19.9468 42.5225C21.7023 45.1608 24.555 48.4334 27.8904 51.634C29.7044 53.3929 29.5435 53.1478 25.974 48.8227C22.858 45.0454 22.3752 44.4255 21.0733 42.4648C20.02 40.8933 18.4985 37.9811 18.6302 37.8369C18.6741 37.7937 19.0544 38.4425 19.4641 39.2642C20.8831 42.0467 23.0921 45.0887 26.7786 49.3273C27.9197 50.6392 28.9144 51.7638 28.9876 51.8503C29.0754 51.9223 28.7828 51.2447 28.3439 50.3365C27.1151 47.7414 24.8476 44.2669 22.1704 40.8213C20.3418 38.4713 19.1276 36.6403 18.0011 34.5787C17.5915 33.8146 17.1819 33.1802 17.1234 33.1802C17.0503 33.1802 16.8601 33.3533 16.6992 33.5551ZM20.1662 34.867C20.8831 35.6456 22.2582 37.2603 23.2384 38.4713C26.5738 42.609 27.0419 43.4596 28.0806 47.4531C28.5633 49.2552 29.7776 52.326 29.9531 52.153C30.0555 52.0521 29.2655 47.7991 28.9144 46.5881C28.0952 43.82 26.7786 41.124 24.9646 38.5145C24.3648 37.6495 22.2143 35.4437 21.3366 34.8094C20.5905 34.2759 19.1861 33.4686 18.9813 33.4686C18.9081 33.4686 19.4348 34.1029 20.1662 34.867ZM17.1088 39.1056C17.3575 40.1581 17.6647 41.1673 17.7963 41.3691C17.928 41.5565 17.9573 41.6863 17.8841 41.6286C17.4306 41.3547 18.8643 45.2617 19.7274 46.6601C20.7807 48.3758 23.4432 50.6536 25.974 52.0088C27.2175 52.6576 27.1882 52.6288 25.6083 51.4754C23.1213 49.6733 21.7462 48.073 19.6396 44.5697C18.952 43.4163 18.2937 42.3206 18.1621 42.1188C18.045 41.9169 18.0158 41.816 18.1182 41.9025C18.206 41.9746 18.8496 42.9838 19.5372 44.1372C22.0095 48.2172 23.9552 50.2932 27.1004 52.1818C29.5289 53.638 29.4996 53.5659 26.7055 50.7546C21.8047 45.824 19.4787 42.7675 17.4891 38.6299C17.0795 37.7937 16.743 37.1305 16.7138 37.1449C16.6845 37.1738 16.8747 38.0532 17.1088 39.1056ZM46.4255 41.0808C46.4255 42.4071 46.3084 44.1372 46.1914 44.9301C46.0597 45.723 45.9866 46.3862 46.0158 46.4151C46.0744 46.4871 46.9228 44.1372 47.1715 43.1712C47.2886 42.7099 47.4349 41.9746 47.4934 41.5421C47.5812 40.8068 47.5373 40.6483 47.0545 39.6967C46.7619 39.1201 46.5132 38.6587 46.484 38.6587C46.4693 38.6587 46.4401 39.74 46.4255 41.0808ZM51.6188 46.516C49.0148 53.191 47.0984 57.199 43.9093 62.5909C41.8027 66.1519 40.7201 68.1703 40.8664 68.3C41.0273 68.4731 42.9291 67.9252 44.0409 67.3774C44.8894 66.9737 45.4453 66.5556 46.4693 65.5464C48.1371 63.9029 49.0587 62.4467 51.019 58.3379C51.8528 56.5934 52.7306 54.8202 52.9793 54.4165C53.2134 53.9984 53.6669 52.9892 54.0033 52.1818C54.6324 50.6104 54.6324 50.596 54.2228 48.8227C53.8424 47.1359 53.6669 44.2381 53.8278 42.3062C53.9155 41.3691 53.9887 40.5329 53.9741 40.4608C53.9741 40.3743 53.7107 41.0231 53.3889 41.9025C53.0671 42.7675 52.2771 44.8436 51.6188 46.516ZM47.2447 44.3967C47.0691 44.9301 46.7912 45.6509 46.6449 46.0114C46.0744 47.2801 45.7818 48.1018 45.9134 47.9577C45.9866 47.8712 46.3816 47.3233 46.7766 46.7322C48.9563 43.5028 49.1172 43.0415 48.3858 41.989L47.9323 41.3259L47.7421 42.3783C47.6543 42.9694 47.4202 43.8777 47.2447 44.3967ZM28.2269 43.2577C28.3146 43.4019 28.5633 43.6326 28.7828 43.7767C29.1631 44.0074 29.1485 43.993 28.695 43.5028C28.1245 42.9261 28.0221 42.8685 28.2269 43.2577ZM29.1046 45.4635C29.4996 46.5881 29.9385 48.7074 30.3627 51.4898C30.7138 53.7966 30.7431 53.8831 31.3575 54.8057C32.3084 56.1898 33.0837 57.6603 34.0931 59.9238C35.3074 62.6486 36.3314 64.6381 37.0921 65.7627C37.8089 66.8151 39.2865 68.4442 39.1402 67.9973C39.0817 67.8387 38.8768 67.2476 38.6867 66.6998C38.1893 65.2869 37.8236 63.355 37.3115 59.3183C36.6971 54.503 36.4045 53.1766 35.2488 50.25C34.649 48.7362 34.4881 48.5343 32.5571 47.0782C31.6062 46.3574 28.9291 44.5697 28.8706 44.6129C28.8413 44.6418 28.9583 45.031 29.1046 45.4635ZM46.996 47.1215C44.787 50.4374 44.5383 50.9708 44.0409 53.5226C43.8069 54.7481 43.3095 56.7809 42.9291 58.0496C42.1099 60.9185 41.1151 64.7391 41.1297 65.0274C41.1297 65.1571 41.4223 64.494 41.7734 63.5713C42.1391 62.6342 43.1778 59.9814 44.0994 57.6603C45.0211 55.3392 46.1329 52.4125 46.5864 51.1438C47.5665 48.4623 48.5467 45.1464 48.3711 45.1464C48.3419 45.1464 47.7274 46.0402 46.996 47.1215Z" fill="white"/>
</svg>
