<svg width="82" height="82" viewBox="0 0 82 82" fill="none" xmlns="http://www.w3.org/2000/svg">
<rect width="82" height="82" rx="12" fill="#E3C7FF"/>
<path d="M27.8519 68.4988C20.6124 67.4787 17.2908 66.9628 17.0033 66.8253C16.7691 66.7107 16.471 66.4356 16.3113 66.1719L16.0345 65.7135L16.0026 55.2483C15.9919 48.3136 16.0132 44.6227 16.0877 44.3247C16.2155 43.8318 16.8756 43.1097 17.3334 42.9951C17.493 42.9492 18.0892 42.9722 18.6428 43.0409C19.1964 43.1212 19.7607 43.1785 19.8991 43.1785H20.1333V40.2556C20.1333 37.4817 20.144 37.3212 20.3462 37.1035C20.6124 36.8169 20.6869 36.8169 23.8595 37.1493C27.0853 37.4932 27.607 37.5849 29.3423 38.0777C34.0693 39.4074 37.721 41.5165 40.1802 44.3247L41.0958 45.3678L41.9262 44.6113C44.0342 42.6971 47.441 40.6224 50.4752 39.4074C53.0516 38.3872 56.0112 37.5849 59.0454 37.1149C60.9511 36.8054 61.377 36.8054 61.6538 37.1035C61.856 37.3212 61.8667 37.4817 61.8667 40.29V43.2473L63.1229 43.0753C63.8043 42.9836 64.507 42.9492 64.6666 42.9951C65.1244 43.1097 65.7845 43.8318 65.9123 44.3247C65.9868 44.6227 66.0081 48.3136 65.9974 55.2369L65.9655 65.702L65.71 66.1376C65.2415 66.9628 65.5929 66.8941 53.9778 68.5103L43.3209 70.0004L40.8084 69.9889L38.2852 69.9774L27.8519 68.4988ZM42.5969 57.9764V47.6717H41H39.4031V57.9764V68.281H41H42.5969V57.9764ZM37.8061 57.8503V47.5342L37.5719 47.4769C37.4335 47.4425 33.6647 46.9038 29.1826 46.2733C24.7006 45.6429 20.5166 45.0469 19.8672 44.9552C19.2284 44.8635 18.4406 44.7488 18.1425 44.7144L17.5782 44.6342V54.9732C17.5782 60.6471 17.5889 65.3008 17.6102 65.3008C17.6208 65.3123 22.1348 65.9427 27.6389 66.7221C33.1431 67.5016 37.6784 68.1435 37.7316 68.1549C37.7742 68.1664 37.8061 63.5241 37.8061 57.8503ZM54.2546 66.7336C59.4713 66.0115 63.8895 65.3925 64.0811 65.3581L64.4218 65.2893L64.4005 55.0076L64.3686 44.7259L63.8362 44.7488C63.5488 44.7718 62.7823 44.8635 62.1328 44.9552C61.4941 45.0469 57.2994 45.6429 52.8174 46.2733C48.3353 46.9038 44.5665 47.4425 44.4387 47.4769L44.1939 47.5342V57.8503V68.1664L44.492 68.1091C44.6517 68.0747 49.0379 67.4557 54.2546 66.7336ZM39.2966 45.8263C39.2966 45.597 37.508 43.935 36.454 43.1785C34.1545 41.5165 30.8328 40.1066 27.607 39.4074C26.6914 39.2011 22.6884 38.7082 21.9964 38.7082H21.7303V41.1153C21.7303 43.3275 21.7409 43.5224 21.9219 43.5224C22.0177 43.5224 25.8397 44.0611 30.407 44.7144C34.9742 45.3678 38.8388 45.918 39.0091 45.918C39.1688 45.9295 39.2966 45.8836 39.2966 45.8263ZM51.9018 44.6686C56.3519 44.0382 60.0462 43.5224 60.1313 43.5224C60.2378 43.5224 60.2697 43.0524 60.2697 41.1153V38.7082H60.0142C59.6629 38.7082 57.4591 39.1094 56.2242 39.4074C51.412 40.5422 47.2387 42.4564 44.0129 45.0354C43.4699 45.4595 43.0228 45.8378 43.0228 45.8721C43.0228 45.9065 43.2038 45.9065 43.4273 45.8721C43.6403 45.8378 47.4623 45.2876 51.9018 44.6686Z" fill="white"/>
<path d="M23.3254 63.0935C20.4296 62.7152 20.206 62.6464 20.1528 61.9587C20.1315 61.6492 20.1847 61.5002 20.3976 61.2824L20.6744 61.0073L23.879 61.42C26.8386 61.7982 27.1048 61.8441 27.2858 62.0848C27.5519 62.4401 27.5306 62.9101 27.2325 63.2081C26.9132 63.529 26.647 63.529 23.3254 63.0935Z" fill="white"/>
<path d="M23.4876 59.1427C22.0291 58.9249 20.7089 58.6842 20.5599 58.6039C19.9956 58.3288 20.0169 57.3316 20.5918 57.1138C20.8047 57.0336 21.699 57.1253 23.9347 57.4462C26.6495 57.8474 27.0328 57.9276 27.2457 58.1569C27.5438 58.4778 27.5438 58.8676 27.2564 59.2687C26.9796 59.647 26.8838 59.647 23.4876 59.1427Z" fill="white"/>
<path d="M47.9582 57.5797C47.5536 57.1212 47.7346 56.3418 48.2776 56.2042C48.416 56.1698 51.0137 55.803 54.0585 55.3904C57.1033 54.9777 59.7542 54.6109 59.9459 54.5766C60.2333 54.5192 60.3504 54.5651 60.6166 54.8631C60.8828 55.1497 60.936 55.2758 60.8721 55.5279C60.7231 56.2157 60.8721 56.1813 54.6121 57.041C51.4076 57.488 48.6502 57.8433 48.4905 57.8433C48.3095 57.8433 48.0859 57.7287 47.9582 57.5797Z" fill="white"/>
<path d="M47.9926 53.2021C47.6626 52.8582 47.6519 52.4456 47.9713 52.0673C48.1949 51.7808 48.3652 51.7578 54.1568 50.9669C57.4358 50.5199 60.2252 50.176 60.3636 50.2219C60.5126 50.2563 60.683 50.4511 60.7788 50.6689C60.9385 51.0128 60.9385 51.0701 60.7788 51.4025C60.683 51.5974 60.5233 51.7808 60.4274 51.8151C60.2571 51.8725 48.5782 53.4886 48.3439 53.4886C48.2907 53.4886 48.131 53.3626 47.9926 53.2021Z" fill="white"/>
<path d="M40.7992 39.8896C40.4479 39.752 39.5216 38.7892 38.9361 37.9639C38.5954 37.4825 38.2867 37.1157 38.2547 37.1386C34.9757 39.1216 30.8449 38.1014 28.8434 34.8347C27.3317 32.3588 27.2146 29.4703 28.5347 26.9027C29.0244 25.9399 30.3233 24.5415 31.2175 24.0028C32.3673 23.3265 33.3255 23.0629 34.6776 23.0743C36.0403 23.0743 36.7004 23.2577 37.9779 23.9569C38.9574 24.5071 40.1178 25.6763 40.6395 26.6506C40.8205 26.9715 40.9802 27.2466 41.0121 27.2466C41.0441 27.2466 41.2144 26.9715 41.3847 26.6506C41.5657 26.3182 42.0448 25.6763 42.46 25.2292C43.8121 23.7621 45.952 22.8909 47.8257 23.0399C49.5611 23.1889 51.0409 23.934 52.3078 25.2865C54.7458 27.9114 55.0971 31.7055 53.1808 34.8347C52.2759 36.3133 50.7002 37.5054 49.05 37.9639C47.6767 38.3422 45.6645 38.1244 44.3976 37.4596L43.7801 37.1386L43.1627 37.9524C42.4813 38.8465 41.5125 39.7864 41.1718 39.8896C41.0547 39.924 40.8844 39.924 40.7992 39.8896ZM41.5977 37.3105C41.8638 36.9896 42.1726 36.5884 42.2897 36.4165L42.4919 36.107L42.0129 35.488C41.7467 35.1442 41.4273 34.6742 41.3102 34.445C41.1825 34.2043 41.0547 34.0094 41.0121 34.0094C40.9802 34.0094 40.8631 34.1813 40.7566 34.3876C40.6501 34.5825 40.384 34.9837 40.1604 35.2702C39.5962 36.0268 39.5855 36.0382 39.8517 36.4509C40.2562 37.0698 40.9163 37.9066 41.0121 37.9066C41.0547 37.9066 41.3209 37.643 41.5977 37.3105ZM36.1255 36.2331C38.4889 35.488 40.0539 33.2643 40.0539 30.6395C40.0539 28.9545 39.5536 27.6363 38.4996 26.4786C36.3278 24.1403 32.8038 24.1976 30.7065 26.6047C29.9613 27.4759 29.5567 28.3241 29.3225 29.5505C28.7902 32.3244 30.3552 35.2129 32.8997 36.1528C33.7833 36.4738 35.2418 36.5082 36.1255 36.2331ZM49.0287 36.1872C50.977 35.5339 52.4462 33.6541 52.7443 31.396C53.0743 28.9545 51.8926 26.5245 49.8485 25.4241C48.2303 24.553 46.5908 24.53 44.9832 25.3668C43.5779 26.0889 42.4174 27.6249 42.0874 29.1952C42.0235 29.4818 41.9703 30.1351 41.9703 30.6395C41.9703 33.2414 43.4395 35.3849 45.8029 36.1987C46.6333 36.4853 48.1345 36.4853 49.0287 36.1872Z" fill="white"/>
<path d="M33.3048 33.8024C31.6546 32.9542 30.9306 30.9139 31.6759 29.1831C33.1025 25.8361 37.7017 26.7187 37.9146 30.3866C38.0636 33.0574 35.5298 34.9372 33.3048 33.8024ZM35.6682 32.0831C36.1367 31.7277 36.3709 31.1202 36.3176 30.4325C36.2218 29.4582 35.5511 28.8048 34.6462 28.8048C33.7732 28.8048 33.1238 29.4353 32.9854 30.3981C32.9002 30.9941 33.2622 31.7736 33.7838 32.1518C34.2629 32.4957 35.1678 32.4728 35.6682 32.0831Z" fill="white"/>
<path d="M46.2907 33.9619C44.8428 33.4118 43.9805 31.9904 44.087 30.3398C44.2147 28.46 45.6307 27.0731 47.4192 27.0845C49.7295 27.096 51.3264 29.8584 50.315 32.0821C49.9531 32.8845 49.1759 33.6525 48.4732 33.9276C47.8664 34.1568 46.8443 34.1797 46.2907 33.9619ZM48.2284 32.1394C48.7394 31.7841 49.1014 30.9817 49.0162 30.3972C48.7713 28.6778 46.8124 28.2079 45.8968 29.6636C45.5774 30.1679 45.5987 31.1422 45.9607 31.6809C46.4398 32.4145 47.547 32.6323 48.2284 32.1394Z" fill="white"/>
<path d="M55.7656 35.8302C55.4888 35.5322 55.5314 35.0393 55.9253 34.0306C56.9367 31.486 56.596 27.6919 55.1694 25.3995C52.6995 21.4679 48.5794 19.8173 44.5977 21.1813C43.6821 21.5023 42.5004 22.1327 41.8297 22.6829C41.127 23.256 40.8289 23.2446 40.105 22.66C37.1027 20.207 32.6845 20.0809 29.5013 22.362C28.5644 23.0268 27.2869 24.4596 26.7333 25.4797C25.3812 27.9212 25.0618 31.1192 25.9029 33.6524C26.1477 34.3859 26.1264 34.7527 25.7964 35.0278C25.477 35.2915 25.147 35.3259 24.8915 35.1195C24.1036 34.4776 23.6139 30.9587 23.9865 28.6433C24.2953 26.7176 25.0831 24.8264 26.201 23.3248L26.7758 22.5568L26.3287 17.8229C26.0732 15.2209 25.8709 12.9743 25.8709 12.8253C25.8603 12.4814 26.3181 12 26.6481 12C27.4146 12 31.8754 16.9288 32.61 18.5908L32.8123 19.0493H34.5263C35.9423 19.0493 36.4001 19.0952 37.1879 19.313C38.178 19.5766 39.6046 20.2529 40.4669 20.8375L40.9673 21.1813L41.7977 20.6655C43.597 19.5422 45.1513 19.0723 47.1528 19.0608C47.8874 19.0493 48.7285 19.0837 49.0159 19.1296L49.5482 19.2213L49.8357 18.6138C50.3147 17.6509 51.4752 16.1952 53.317 14.2581C55.1907 12.298 55.5953 11.9885 56.0424 12.2063C56.5854 12.47 56.5854 12.5158 56.1063 18.0636L55.6698 23.2331L56.0957 23.8291C58.2356 26.8667 58.7146 31.4516 57.2774 35.0622C57.1603 35.3602 56.9687 35.7041 56.8516 35.8302C56.5641 36.1397 56.0531 36.1397 55.7656 35.8302ZM54.4561 18.6825C54.8075 14.6707 54.8926 14.9573 53.6896 16.2411C52.6356 17.3758 51.8478 18.3616 51.3687 19.1869L51.0919 19.6798L51.9649 20.1497C52.4546 20.4019 53.136 20.8375 53.4873 21.1011C53.8387 21.3762 54.1474 21.5711 54.1687 21.5596C54.19 21.5367 54.3177 20.2414 54.4561 18.6825ZM28.9583 20.7114C29.3203 20.4592 29.9804 20.0924 30.4382 19.8976L31.2792 19.5308L31.1302 19.2213C30.7363 18.396 27.8937 14.9344 27.7447 15.0948C27.6914 15.1521 28.2237 21.1699 28.277 21.1699C28.2876 21.1699 28.5964 20.9635 28.9583 20.7114Z" fill="white"/>
</svg>
