<svg width="48" height="48" viewBox="0 0 48 48" fill="none" xmlns="http://www.w3.org/2000/svg">
<path d="M38.9996 45H8.99961C7.66401 45 6.59961 43.9392 6.59961 42.654V5.346C6.59961 4.0608 7.66401 3 8.99961 3H30.2804C30.938 3 31.5644 3.264 32.0156 3.726L40.736 12.654C41.1632 13.0908 41.3996 13.6716 41.3996 14.274V42.654C41.3996 43.9392 40.3352 45 38.9996 45Z" fill="white"/>
<path d="M32.0156 3.726C31.5644 3.264 30.938 3 30.2804 3H8.99961C7.66401 3 6.59961 4.0608 6.59961 5.346V42.654C6.59961 43.9392 7.66401 45 8.99961 45H38.9996C40.3352 45 41.3996 43.9392 41.3996 42.654V14.274C41.3996 13.6716 41.1632 13.0908 40.736 12.654L32.0156 3.726ZM32.0156 3.726L32.4452 3.306" stroke="#D0D0D1"/>
<path d="M17.3533 21.3878C17.8813 21.3878 18.3453 21.4958 18.7453 21.7118C19.1453 21.9278 19.4533 22.2358 19.6693 22.6358C19.8933 23.0278 20.0053 23.4798 20.0053 23.9918C20.0053 24.4958 19.8893 24.9398 19.6573 25.3238C19.4333 25.7078 19.1133 26.0078 18.6973 26.2238C18.2893 26.4318 17.8173 26.5358 17.2813 26.5358H15.5773C15.5373 26.5358 15.5173 26.5558 15.5173 26.5958V29.6558C15.5173 29.6958 15.5013 29.7318 15.4693 29.7638C15.4453 29.7878 15.4133 29.7998 15.3733 29.7998H13.9693C13.9293 29.7998 13.8933 29.7878 13.8613 29.7638C13.8373 29.7318 13.8253 29.6958 13.8253 29.6558V21.5318C13.8253 21.4918 13.8373 21.4598 13.8613 21.4358C13.8933 21.4038 13.9293 21.3878 13.9693 21.3878H17.3533ZM17.1013 25.1798C17.4693 25.1798 17.7653 25.0758 17.9893 24.8678C18.2133 24.6518 18.3253 24.3718 18.3253 24.0278C18.3253 23.6758 18.2133 23.3918 17.9893 23.1758C17.7653 22.9598 17.4693 22.8518 17.1013 22.8518H15.5773C15.5373 22.8518 15.5173 22.8718 15.5173 22.9118V25.1198C15.5173 25.1598 15.5373 25.1798 15.5773 25.1798H17.1013ZM21.1895 29.7998C21.1495 29.7998 21.1135 29.7878 21.0815 29.7638C21.0575 29.7318 21.0455 29.6958 21.0455 29.6558V21.5438C21.0455 21.5038 21.0575 21.4718 21.0815 21.4478C21.1135 21.4158 21.1495 21.3998 21.1895 21.3998H24.1895C24.7895 21.3998 25.3135 21.5078 25.7615 21.7238C26.2175 21.9318 26.5695 22.2278 26.8175 22.6118C27.0655 22.9958 27.1895 23.4398 27.1895 23.9438V27.2558C27.1895 27.7598 27.0655 28.2038 26.8175 28.5878C26.5695 28.9718 26.2175 29.2718 25.7615 29.4878C25.3135 29.6958 24.7895 29.7998 24.1895 29.7998H21.1895ZM22.7375 28.2878C22.7375 28.3278 22.7575 28.3478 22.7975 28.3478H24.2495C24.6175 28.3478 24.9135 28.2238 25.1375 27.9758C25.3695 27.7278 25.4895 27.3958 25.4975 26.9798V24.2198C25.4975 23.8038 25.3815 23.4718 25.1495 23.2238C24.9255 22.9758 24.6215 22.8518 24.2375 22.8518H22.7975C22.7575 22.8518 22.7375 22.8718 22.7375 22.9118V28.2878ZM34.2834 22.7078C34.2834 22.7478 34.2674 22.7838 34.2354 22.8158C34.2114 22.8398 34.1794 22.8518 34.1394 22.8518H30.2154C30.1754 22.8518 30.1554 22.8718 30.1554 22.9118V24.7718C30.1554 24.8118 30.1754 24.8318 30.2154 24.8318H32.7954C32.8354 24.8318 32.8674 24.8478 32.8914 24.8798C32.9234 24.9038 32.9394 24.9358 32.9394 24.9758V26.1398C32.9394 26.1798 32.9234 26.2158 32.8914 26.2478C32.8674 26.2718 32.8354 26.2838 32.7954 26.2838H30.2154C30.1754 26.2838 30.1554 26.3038 30.1554 26.3438V29.6558C30.1554 29.6958 30.1394 29.7318 30.1074 29.7638C30.0834 29.7878 30.0514 29.7998 30.0114 29.7998H28.6074C28.5674 29.7998 28.5314 29.7878 28.4994 29.7638C28.4754 29.7318 28.4634 29.6958 28.4634 29.6558V21.5438C28.4634 21.5038 28.4754 21.4718 28.4994 21.4478C28.5314 21.4158 28.5674 21.3998 28.6074 21.3998H34.1394C34.1794 21.3998 34.2114 21.4158 34.2354 21.4478C34.2674 21.4718 34.2834 21.5038 34.2834 21.5438V22.7078Z" fill="#8E9195"/>
</svg>
