<svg width="36" height="36" viewBox="0 0 36 36" fill="none" xmlns="http://www.w3.org/2000/svg">
<path d="M4.79289 6.29289L5.5 7L4.79289 6.29289ZM4.79289 25.2071L4.08579 25.9142L4.79289 25.2071ZM16.1481 25.7284L16.5307 24.8045L16.1481 25.7284ZM17.7716 27.3519L16.8478 27.7346L17.7716 27.3519ZM13.5 26.5H6.5V24.5H13.5V26.5ZM3.5 23.5V8H5.5V23.5H3.5ZM6.5 5H12V7H6.5V5ZM19 12V30H17V12H19ZM12 5C13.3859 5 14.526 4.99788 15.4251 5.11875C16.3529 5.2435 17.1723 5.51546 17.8284 6.17157L16.4142 7.58579C16.1916 7.36322 15.8646 7.19584 15.1586 7.10092C14.4237 7.00212 13.4425 7 12 7V5ZM17 12C17 10.5575 16.9979 9.57625 16.8991 8.84143C16.8042 8.13538 16.6368 7.80836 16.4142 7.58579L17.8284 6.17157C18.4845 6.82768 18.7565 7.64711 18.8812 8.57494C19.0021 9.474 19 10.6141 19 12H17ZM3.5 8C3.5 7.55687 3.49788 7.12392 3.54553 6.76948C3.59705 6.38628 3.72257 5.949 4.08579 5.58579L5.5 7C5.57032 6.92968 5.5494 6.87455 5.52769 7.03598C5.50212 7.22617 5.5 7.50033 5.5 8H3.5ZM6.5 7C6.00033 7 5.72617 7.00212 5.53598 7.02769C5.37455 7.0494 5.42968 7.07032 5.5 7L4.08579 5.58579C4.449 5.22257 4.88628 5.09705 5.26948 5.04553C5.62392 4.99788 6.05687 5 6.5 5V7ZM6.5 26.5C6.05686 26.5 5.62392 26.5021 5.26948 26.4545C4.88628 26.403 4.449 26.2774 4.08579 25.9142L5.5 24.5C5.42968 24.4297 5.37455 24.4506 5.53598 24.4723C5.72617 24.4979 6.00033 24.5 6.5 24.5V26.5ZM5.5 23.5C5.5 23.9997 5.50212 24.2738 5.52769 24.464C5.5494 24.6255 5.57032 24.5703 5.5 24.5L4.08579 25.9142C3.72257 25.551 3.59705 25.1137 3.54553 24.7305C3.49788 24.3761 3.5 23.9431 3.5 23.5H5.5ZM13.5 24.5C14.1852 24.5 14.7492 24.4995 15.2095 24.5309C15.6788 24.5629 16.1129 24.6314 16.5307 24.8045L15.7654 26.6522C15.6319 26.5969 15.4409 26.5513 15.0734 26.5262C14.697 26.5005 14.2126 26.5 13.5 26.5V24.5ZM17 30C17 29.2874 16.9995 28.803 16.9738 28.4266C16.9487 28.0591 16.9031 27.8681 16.8478 27.7346L18.6955 26.9693C18.8686 27.3871 18.9371 27.8212 18.9691 28.2905C19.0005 28.7508 19 29.3148 19 30H17ZM16.5307 24.8045C17.5108 25.2105 18.2895 25.9892 18.6955 26.9693L16.8478 27.7346C16.6448 27.2446 16.2554 26.8552 15.7654 26.6522L16.5307 24.8045Z" fill="white"/>
<path d="M31.2071 6.29289L30.5 7L31.2071 6.29289ZM31.2071 25.2071L31.9142 25.9142L31.2071 25.2071ZM19.8519 25.7284L19.4693 24.8045L19.8519 25.7284ZM18.2284 27.3519L19.1522 27.7346L18.2284 27.3519ZM22.5 26.5H29.5V24.5H22.5V26.5ZM32.5 23.5V8H30.5V23.5H32.5ZM29.5 5H24V7H29.5V5ZM17 12V30H19V12H17ZM24 5C22.6141 5 21.474 4.99788 20.5749 5.11875C19.6471 5.2435 18.8277 5.51546 18.1716 6.17157L19.5858 7.58579C19.8084 7.36322 20.1354 7.19584 20.8414 7.10092C21.5763 7.00212 22.5575 7 24 7V5ZM19 12C19 10.5575 19.0021 9.57625 19.1009 8.84143C19.1958 8.13538 19.3632 7.80836 19.5858 7.58579L18.1716 6.17157C17.5155 6.82768 17.2435 7.64711 17.1188 8.57494C16.9979 9.474 17 10.6141 17 12H19ZM32.5 8C32.5 7.55687 32.5021 7.12392 32.4545 6.76948C32.403 6.38628 32.2774 5.949 31.9142 5.58579L30.5 7C30.4297 6.92968 30.4506 6.87455 30.4723 7.03598C30.4979 7.22617 30.5 7.50033 30.5 8H32.5ZM29.5 7C29.9997 7 30.2738 7.00212 30.464 7.02769C30.6254 7.0494 30.5703 7.07032 30.5 7L31.9142 5.58579C31.551 5.22257 31.1137 5.09705 30.7305 5.04553C30.3761 4.99788 29.9431 5 29.5 5V7ZM29.5 26.5C29.9431 26.5 30.3761 26.5021 30.7305 26.4545C31.1137 26.403 31.551 26.2774 31.9142 25.9142L30.5 24.5C30.5703 24.4297 30.6254 24.4506 30.464 24.4723C30.2738 24.4979 29.9997 24.5 29.5 24.5V26.5ZM30.5 23.5C30.5 23.9997 30.4979 24.2738 30.4723 24.464C30.4506 24.6255 30.4297 24.5703 30.5 24.5L31.9142 25.9142C32.2774 25.551 32.403 25.1137 32.4545 24.7305C32.5021 24.3761 32.5 23.9431 32.5 23.5H30.5ZM22.5 24.5C21.8148 24.5 21.2508 24.4995 20.7905 24.5309C20.3212 24.5629 19.8871 24.6314 19.4693 24.8045L20.2346 26.6522C20.3681 26.5969 20.5591 26.5513 20.9266 26.5262C21.303 26.5005 21.7874 26.5 22.5 26.5V24.5ZM19 30C19 29.2874 19.0005 28.803 19.0262 28.4266C19.0513 28.0591 19.0969 27.8681 19.1522 27.7346L17.3045 26.9693C17.1314 27.3871 17.0629 27.8212 17.0309 28.2905C16.9995 28.7508 17 29.3148 17 30H19ZM19.4693 24.8045C18.4892 25.2105 17.7105 25.9892 17.3045 26.9693L19.1522 27.7346C19.3552 27.2446 19.7446 26.8552 20.2346 26.6522L19.4693 24.8045Z" fill="white"/>
</svg>
