<svg width="36" height="36" viewBox="0 0 36 36" fill="none" xmlns="http://www.w3.org/2000/svg">
<path d="M18 27C22.9706 27 27 22.9706 27 18C27 13.0294 22.9706 9 18 9C13.0294 9 9 13.0294 9 18C9 22.9706 13.0294 27 18 27Z" stroke="white" stroke-width="2" stroke-linecap="round" stroke-linejoin="round"/>
<path d="M7.5 15C9.15685 15 10.5 13.6569 10.5 12C10.5 10.3431 9.15685 9 7.5 9C5.84315 9 4.5 10.3431 4.5 12C4.5 13.6569 5.84315 15 7.5 15Z" stroke="white" stroke-width="2" stroke-linecap="round" stroke-linejoin="round"/>
<path d="M18 9C19.6569 9 21 7.65685 21 6C21 4.34315 19.6569 3 18 3C16.3431 3 15 4.34315 15 6C15 7.65685 16.3431 9 18 9Z" stroke="white" stroke-width="2" stroke-linecap="round" stroke-linejoin="round"/>
<path d="M28.5 15C30.1569 15 31.5 13.6569 31.5 12C31.5 10.3431 30.1569 9 28.5 9C26.8431 9 25.5 10.3431 25.5 12C25.5 13.6569 26.8431 15 28.5 15Z" stroke="white" stroke-width="2" stroke-linecap="round" stroke-linejoin="round"/>
<path d="M7.5 27C9.15685 27 10.5 25.6569 10.5 24C10.5 22.3431 9.15685 21 7.5 21C5.84315 21 4.5 22.3431 4.5 24C4.5 25.6569 5.84315 27 7.5 27Z" stroke="white" stroke-width="2" stroke-linecap="round" stroke-linejoin="round"/>
<path d="M28.5 27C30.1569 27 31.5 25.6569 31.5 24C31.5 22.3431 30.1569 21 28.5 21C26.8431 21 25.5 22.3431 25.5 24C25.5 25.6569 26.8431 27 28.5 27Z" stroke="white" stroke-width="2" stroke-linecap="round" stroke-linejoin="round"/>
<path d="M12 33L18 18L24 33" stroke="white" stroke-width="2" stroke-linecap="round" stroke-linejoin="round"/>
</svg>
