<?xml version="1.0" standalone="no"?>
<!DOCTYPE svg PUBLIC "-//W3C//DTD SVG 20010904//EN"
 "http://www.w3.org/TR/2001/REC-SVG-20010904/DTD/svg10.dtd">
<svg version="1.0" xmlns="http://www.w3.org/2000/svg"
 width="83.000000pt" height="83.000000pt" viewBox="0 0 83.000000 83.000000"
 preserveAspectRatio="xMidYMid meet">
<metadata>
Created by potrace 1.14, written by Peter Selinger 2001-2017
</metadata>
<g transform="translate(0.000000,83.000000) scale(0.100000,-0.100000)"
fill="#000000" stroke="none">
<path d="M175 690 c-3 -6 -11 -8 -16 -5 -5 4 -9 1 -9 -5 0 -7 -7 -9 -16 -6 -8
3 -12 2 -9 -4 3 -6 1 -10 -5 -10 -7 0 -9 -7 -6 -16 6 -15 4 -15 -11 -3 -11 9
-14 10 -9 2 4 -7 2 -13 -3 -13 -6 0 -17 -16 -25 -35 -8 -19 -20 -35 -27 -35
-6 0 -9 -7 -5 -15 3 -8 1 -15 -5 -15 -5 0 -9 -6 -8 -12 3 -28 -1 -39 -13 -32
-8 5 -7 0 2 -11 9 -11 10 -16 2 -11 -8 5 -12 0 -12 -14 0 -13 4 -19 11 -14 8
5 8 1 0 -14 -14 -25 -15 -55 -2 -34 6 10 10 9 14 -7 3 -12 1 -19 -4 -15 -5 3
-6 -2 -3 -10 3 -9 10 -16 16 -16 5 0 6 -4 3 -10 -3 -5 -1 -10 4 -10 6 0 11 -7
11 -15 0 -9 8 -19 18 -22 9 -4 23 -15 31 -26 8 -11 19 -16 30 -12 15 6 62 16
89 17 6 1 12 6 12 11 0 5 13 21 29 36 16 15 31 36 33 46 2 11 9 19 14 18 6 -1
9 12 8 28 -1 21 2 29 10 26 9 -4 12 3 10 21 -1 15 2 32 7 38 7 8 7 14 0 18 -6
4 -8 13 -5 21 4 8 11 12 18 8 8 -5 8 -3 0 8 -15 20 -26 51 -15 45 5 -4 7 3 4
14 -6 23 -36 43 -48 32 -3 -4 -5 0 -3 8 2 8 -3 14 -10 12 -8 -1 -11 1 -8 6 10
17 -12 33 -52 38 -23 2 -43 0 -47 -6z"/>
<path d="M630 457 c0 -4 -6 -7 -12 -6 -28 3 -39 -1 -32 -13 5 -9 2 -9 -9 1
-12 9 -17 10 -17 2 0 -7 -4 -9 -10 -6 -5 3 -10 1 -10 -4 0 -6 -7 -11 -16 -11
-8 0 -13 -4 -10 -9 4 -5 -4 -7 -16 -4 -13 3 -20 2 -16 -2 5 -5 -6 -17 -23 -27
-17 -11 -29 -22 -26 -25 8 -8 -16 -32 -26 -26 -5 3 -4 -3 2 -14 8 -15 6 -26
-6 -43 -9 -13 -11 -20 -5 -16 16 9 16 -16 0 -32 -9 -9 -7 -13 5 -18 9 -3 14
-10 11 -15 -3 -5 -1 -9 5 -9 5 0 13 -9 16 -20 4 -11 11 -18 16 -15 5 4 12 0
15 -9 3 -8 12 -17 20 -20 10 -4 13 -1 9 7 -4 6 1 3 9 -7 11 -14 29 -20 61 -20
25 -1 45 3 45 8 0 5 3 6 7 3 3 -4 12 -2 19 4 8 6 21 9 29 5 9 -3 13 -2 10 4
-3 6 -1 10 5 10 6 0 8 5 4 12 -5 8 0 7 11 -2 11 -9 16 -10 11 -2 -4 6 -2 12 4
12 11 0 56 43 78 76 7 10 10 13 6 5 -4 -9 -3 -12 4 -8 5 4 8 16 5 27 -3 11 0
20 6 20 6 0 8 7 4 17 -4 11 -3 14 5 9 9 -5 12 5 12 34 0 34 -4 42 -25 50 -14
5 -25 12 -25 15 0 4 6 3 13 -1 8 -5 8 -2 -2 9 -7 9 -20 17 -27 17 -13 0 -18
12 -15 33 0 4 -11 7 -26 8 -16 0 -43 1 -61 2 -17 1 -32 -2 -32 -6z"/>
</g>
</svg>
