<?xml version="1.0" standalone="no"?>
<!DOCTYPE svg PUBLIC "-//W3C//DTD SVG 20010904//EN"
 "http://www.w3.org/TR/2001/REC-SVG-20010904/DTD/svg10.dtd">
<svg version="1.0" xmlns="http://www.w3.org/2000/svg"
 width="96.000000pt" height="96.000000pt" viewBox="0 0 96.000000 96.000000"
 preserveAspectRatio="xMidYMid meet">
<metadata>
Created by potrace 1.14, written by Peter Selinger 2001-2017
</metadata>
<g transform="translate(0.000000,96.000000) scale(0.100000,-0.100000)"
fill="#000000" stroke="none">
<path d="M175 821 c-43 -26 -109 -103 -136 -159 -49 -100 -22 -250 54 -304 49
-35 125 -31 174 8 69 56 123 185 123 295 0 86 -22 80 -67 -21 -20 -44 -38 -78
-40 -76 -2 1 15 48 37 103 22 55 40 102 40 105 0 2 -24 16 -54 32 l-54 28 -31
-23 c-32 -24 -63 -64 -105 -139 -36 -62 -32 -42 5 33 17 34 47 79 67 100 39
40 34 47 -13 18z m90 -310 c-21 -43 -29 -39 -8 4 9 19 18 33 21 31 2 -2 -4
-18 -13 -35z m-58 -13 c-3 -8 -6 -5 -6 6 -1 11 2 17 5 13 3 -3 4 -12 1 -19z
m23 -48 c-6 -11 -13 -20 -16 -20 -2 0 0 9 6 20 6 11 13 20 16 20 2 0 0 -9 -6
-20z m-49 -23 c-10 -9 -11 -8 -5 6 3 10 9 15 12 12 3 -3 0 -11 -7 -18z"/>
<path d="M680 548 c-94 -30 -163 -77 -189 -130 -50 -104 -8 -206 104 -253 92
-38 250 35 321 147 38 59 28 65 -25 15 -41 -38 -131 -96 -131 -84 0 2 24 20
54 40 29 19 70 56 91 81 31 38 36 50 29 73 -4 16 -7 31 -6 34 1 3 -12 19 -28
34 -21 20 -33 25 -42 18 -17 -13 -228 -113 -228 -108 0 2 39 25 88 51 97 53
122 71 122 91 0 20 -83 16 -160 -9z m-90 -162 c0 -2 -8 -10 -17 -17 -16 -13
-17 -12 -4 4 13 16 21 21 21 13z m29 -30 c-2 -2 -15 -9 -29 -15 -24 -11 -24
-11 -6 3 16 13 49 24 35 12z m-59 -30 c0 -2 -8 -10 -17 -17 -16 -13 -17 -12
-4 4 13 16 21 21 21 13z"/>
</g>
</svg>
