<svg width="24" height="24" viewBox="0 0 24 24" fill="none" xmlns="http://www.w3.org/2000/svg">
<path d="M9.34178 18.7814L7.41078 18.2634L8.19778 15.3244C7.01975 14.8899 5.9249 14.2567 4.96078 13.4524L2.80778 15.6064L1.39278 14.1914L3.54678 12.0384C2.33086 10.5821 1.51387 8.83514 1.17578 6.96837L3.14378 6.60938C3.90278 10.8114 7.57878 13.9994 11.9998 13.9994C16.4198 13.9994 20.0968 10.8114 20.8558 6.60938L22.8238 6.96737C22.4861 8.83439 21.6695 10.5817 20.4538 12.0384L22.6068 14.1914L21.1918 15.6064L19.0388 13.4524C18.0747 14.2567 16.9798 14.8899 15.8018 15.3244L16.5888 18.2644L14.6578 18.7814L13.8698 15.8414C12.6321 16.0535 11.3674 16.0535 10.1298 15.8414L9.34178 18.7814Z" fill="#212121"/>
</svg>
