<svg width="1523" height="986" viewBox="0 0 1523 986" fill="none" xmlns="http://www.w3.org/2000/svg">
<path d="M622.28 259.898L600.51 384.41M622.28 259.898L674.451 358.867M622.28 259.898L865.387 193.978M622.28 259.898L670.914 131.746M622.28 259.898L502.147 354.807M600.51 384.41L674.451 358.867M600.51 384.41L628.655 561.539M600.51 384.41L710.401 512.627M600.51 384.41L546.34 448.996M600.51 384.41L502.147 354.807M674.451 358.867L865.387 193.978M674.451 358.867L909.871 349.156M674.451 358.867L710.401 512.627M674.451 358.867L726.946 503.713M865.387 193.978L909.871 349.156M865.387 193.978L670.914 131.746M865.387 193.978L827.832 41.1902M865.387 193.978L905.647 155.359M909.871 349.156L905.647 155.359M909.871 349.156L977.189 134.011M909.871 349.156L1061.03 359.712M909.871 349.156L726.946 503.713M909.871 349.156L895.757 545.273M909.871 349.156L931.192 370.81M670.914 131.746L827.832 41.1902M827.832 41.1902L905.647 155.359M827.832 41.1902L963.504 86.8953M905.647 155.359L963.504 86.8953M905.647 155.359L977.189 134.011M963.504 86.8953L977.189 134.011M963.504 86.8953L1202.52 1.51327M963.504 86.8953L1179.39 150.981M977.189 134.011L1179.39 150.981M977.189 134.011L1061.03 359.712M1202.52 1.51327L1179.39 150.981M1202.52 1.51327L1389.84 134.439M1179.39 150.981L1061.03 359.712M1179.39 150.981L1236.65 232.064M1179.39 150.981L1389.84 134.439M1179.39 150.981L1362.64 181.059M1061.03 359.712L1236.65 232.064M1061.03 359.712L1071.47 489.419M1236.65 232.064L1362.64 181.059M1236.65 232.064L1071.47 489.419M1236.65 232.064L1488.51 274.931M1236.65 232.064L1415.46 507.805M1389.84 134.439L1362.64 181.059M1389.84 134.439L1521.95 175.167M1362.64 181.059L1521.95 175.167M1362.64 181.059L1488.51 274.931M628.655 561.539L710.401 512.627M628.655 561.539L396.023 448.9M628.655 561.539L546.34 448.996M628.655 561.539L463.756 670.636M628.655 561.539L578.68 720.119M628.655 561.539L686.587 650.99M710.401 512.627L726.946 503.713M710.401 512.627L686.587 650.99M710.401 512.627L710.408 651.387M726.946 503.713L895.757 545.273M726.946 503.713L849.261 595.345M726.946 503.713L710.408 651.387M895.757 545.273L931.192 370.81M895.757 545.273L1059.47 510.389M895.757 545.273L849.261 595.345M895.757 545.273L1071.33 542.702M895.757 545.273L892.678 721.551M931.192 370.81L1059.47 510.389M931.192 370.81L1071.47 489.419M1059.47 510.389L1071.47 489.419M1059.47 510.389L1071.33 542.702M849.261 595.345L710.408 651.387M849.261 595.345L892.678 721.551M1071.47 489.419L1071.33 542.702M1071.47 489.419L1322.5 663.322M1071.47 489.419L1397.53 580.63M1071.47 489.419L1415.46 507.805M396.023 448.9L249.07 399.051M396.023 448.9L305.208 481.909M396.023 448.9L463.756 670.636M396.023 448.9L355.886 659.117M396.023 448.9L546.34 448.996M396.023 448.9L403.783 325.205M249.07 399.051L305.208 481.909M249.07 399.051L260.106 470.805M249.07 399.051L178.884 439.872M249.07 399.051L403.783 325.205M305.208 481.909L355.886 659.117M305.208 481.909L260.106 470.805M463.756 670.636L355.886 659.117M463.756 670.636L578.68 720.119M463.756 670.636L367.286 755.32M355.886 659.117L260.106 470.805M355.886 659.117L270.461 623.048M355.886 659.117L173.53 761.665M355.886 659.117L367.286 755.32M260.106 470.805L178.884 439.872M260.106 470.805L127.224 485.938M260.106 470.805L270.461 623.048M178.884 439.872L127.224 485.938M178.884 439.872L136.426 448.558M127.224 485.938L23.2875 494.526M127.224 485.938L136.426 448.558M127.224 485.938L270.461 623.048M127.224 485.938L97.5536 606.454M127.224 485.938L199.961 620.73M23.2875 494.526L136.426 448.558M23.2875 494.526L97.5536 606.454M23.2875 494.526L1.29104 600.527M23.2875 494.526L38.6131 596.045M270.461 623.048L199.961 620.73M270.461 623.048L173.53 761.665M97.5536 606.454L38.6131 596.045M97.5536 606.454L199.961 620.73M97.5536 606.454L45.5832 682.673M97.5536 606.454L173.53 761.665M1.29104 600.527L38.6131 596.045M1.29104 600.527L45.5832 682.673M38.6131 596.045L45.5832 682.673M199.961 620.73L173.53 761.665M546.34 448.996L403.783 325.205M578.68 720.119L686.587 650.99M578.68 720.119L625.437 743.934M578.68 720.119L472.983 737.72M578.68 720.119L562.04 806.006M686.587 650.99L687.584 651.007M710.408 651.387L892.678 721.551M710.408 651.387L824.358 835.286M710.408 651.387L684.305 779.617M710.408 651.387L625.437 743.934M710.408 651.387L687.584 651.007M892.678 721.551L824.358 835.286M892.678 721.551L1071.33 542.702M892.678 721.551L1125.2 848.517M892.678 721.551L862.865 955.601M892.678 721.551L939.763 821.611M824.358 835.286L862.865 955.601M824.358 835.286L754.332 807.451M684.305 779.617L625.437 743.934M684.305 779.617L693.024 906.783M684.305 779.617L754.332 807.451M625.437 743.934L687.584 651.007M1071.33 542.702L1125.2 848.517M1071.33 542.702L1322.5 663.322M1521.95 175.167L1488.51 274.931M1488.51 274.931L1415.46 507.805M1415.46 507.805L1397.53 580.63M1125.2 848.517L1322.5 663.322M1125.2 848.517L1254.48 906.318M1125.2 848.517L939.763 821.611M1125.2 848.517L862.865 955.601M1125.2 848.517L1078.01 984.778M1322.5 663.322L1397.53 580.63M1322.5 663.322L1254.48 906.318M1322.5 663.322L1374.82 894.934M1322.5 663.322L1427.86 737.791M1397.53 580.63L1427.86 737.791M1254.48 906.318L1374.82 894.934M1254.48 906.318L1078.01 984.778M1374.82 894.934L1427.86 737.791M45.5832 682.673L173.53 761.665M173.53 761.665L367.286 755.32M173.53 761.665L215.632 849.301L367.286 755.32M367.286 755.32L419.214 857.299M367.286 755.32L472.983 737.72M862.865 955.601L939.763 821.611M862.865 955.601L1078.01 984.778M862.865 955.601L754.332 807.451M862.865 955.601L693.024 906.783M419.214 857.299L472.983 737.72M419.214 857.299L562.04 806.006M472.983 737.72L562.04 806.006M403.783 325.205L502.147 354.807M693.024 906.783L754.332 807.451" stroke="#EFF0F1"/>
<path d="M622.28 259.898L600.51 384.41M622.28 259.898L674.451 358.867M622.28 259.898L865.387 193.978M622.28 259.898L670.914 131.746M622.28 259.898L502.147 354.807M600.51 384.41L674.451 358.867M600.51 384.41L628.655 561.539M600.51 384.41L710.401 512.627M600.51 384.41L546.34 448.996M600.51 384.41L502.147 354.807M674.451 358.867L865.387 193.978M674.451 358.867L909.871 349.156M674.451 358.867L710.401 512.627M674.451 358.867L726.946 503.713M865.387 193.978L909.871 349.156M865.387 193.978L670.914 131.746M865.387 193.978L827.832 41.1902M865.387 193.978L905.647 155.359M909.871 349.156L905.647 155.359M909.871 349.156L977.189 134.011M909.871 349.156L1061.03 359.712M909.871 349.156L726.946 503.713M909.871 349.156L895.757 545.273M909.871 349.156L931.192 370.81M670.914 131.746L827.832 41.1902M827.832 41.1902L905.647 155.359M827.832 41.1902L963.504 86.8953M905.647 155.359L963.504 86.8953M905.647 155.359L977.189 134.011M963.504 86.8953L977.189 134.011M963.504 86.8953L1202.52 1.51327M963.504 86.8953L1179.39 150.981M977.189 134.011L1179.39 150.981M977.189 134.011L1061.03 359.712M1202.52 1.51327L1179.39 150.981M1202.52 1.51327L1389.84 134.439M1179.39 150.981L1061.03 359.712M1179.39 150.981L1236.65 232.064M1179.39 150.981L1389.84 134.439M1179.39 150.981L1362.64 181.059M1061.03 359.712L1236.65 232.064M1061.03 359.712L1071.47 489.419M1236.65 232.064L1362.64 181.059M1236.65 232.064L1071.47 489.419M1236.65 232.064L1488.51 274.931M1236.65 232.064L1415.46 507.805M1389.84 134.439L1362.64 181.059M1389.84 134.439L1521.95 175.167M1362.64 181.059L1521.95 175.167M1362.64 181.059L1488.51 274.931M628.655 561.539L710.401 512.627M628.655 561.539L396.023 448.9M628.655 561.539L546.34 448.996M628.655 561.539L463.756 670.636M628.655 561.539L578.68 720.119M628.655 561.539L686.587 650.99M710.401 512.627L726.946 503.713M710.401 512.627L686.587 650.99M710.401 512.627L710.408 651.387M726.946 503.713L895.757 545.273M726.946 503.713L849.261 595.345M726.946 503.713L710.408 651.387M895.757 545.273L931.192 370.81M895.757 545.273L1059.47 510.389M895.757 545.273L849.261 595.345M895.757 545.273L1071.33 542.702M895.757 545.273L892.678 721.551M931.192 370.81L1059.47 510.389M931.192 370.81L1071.47 489.419M1059.47 510.389L1071.47 489.419M1059.47 510.389L1071.33 542.702M849.261 595.345L710.408 651.387M849.261 595.345L892.678 721.551M1071.47 489.419L1071.33 542.702M1071.47 489.419L1322.5 663.322M1071.47 489.419L1397.53 580.63M1071.47 489.419L1415.46 507.805M396.023 448.9L249.07 399.051M396.023 448.9L305.208 481.909M396.023 448.9L463.756 670.636M396.023 448.9L355.886 659.117M396.023 448.9L546.34 448.996M396.023 448.9L403.783 325.205M249.07 399.051L305.208 481.909M249.07 399.051L260.106 470.805M249.07 399.051L178.884 439.872M249.07 399.051L403.783 325.205M305.208 481.909L355.886 659.117M305.208 481.909L260.106 470.805M463.756 670.636L355.886 659.117M463.756 670.636L578.68 720.119M463.756 670.636L367.286 755.32M355.886 659.117L260.106 470.805M355.886 659.117L270.461 623.048M355.886 659.117L173.53 761.665M355.886 659.117L367.286 755.32M260.106 470.805L178.884 439.872M260.106 470.805L127.224 485.938M260.106 470.805L270.461 623.048M178.884 439.872L127.224 485.938M178.884 439.872L136.426 448.558M127.224 485.938L23.2875 494.526M127.224 485.938L136.426 448.558M127.224 485.938L270.461 623.048M127.224 485.938L97.5536 606.454M127.224 485.938L199.961 620.73M23.2875 494.526L136.426 448.558M23.2875 494.526L97.5536 606.454M23.2875 494.526L1.29104 600.527M23.2875 494.526L38.6131 596.045M270.461 623.048L199.961 620.73M270.461 623.048L173.53 761.665M97.5536 606.454L38.6131 596.045M97.5536 606.454L199.961 620.73M97.5536 606.454L45.5832 682.673M97.5536 606.454L173.53 761.665M1.29104 600.527L38.6131 596.045M1.29104 600.527L45.5832 682.673M38.6131 596.045L45.5832 682.673M199.961 620.73L173.53 761.665M546.34 448.996L403.783 325.205M578.68 720.119L686.587 650.99M578.68 720.119L625.437 743.934M578.68 720.119L472.983 737.72M578.68 720.119L562.04 806.006M686.587 650.99L687.584 651.007M710.408 651.387L892.678 721.551M710.408 651.387L824.358 835.286M710.408 651.387L684.305 779.617M710.408 651.387L625.437 743.934M710.408 651.387L687.584 651.007M892.678 721.551L824.358 835.286M892.678 721.551L1071.33 542.702M892.678 721.551L1125.2 848.517M892.678 721.551L862.865 955.601M892.678 721.551L939.763 821.611M824.358 835.286L862.865 955.601M824.358 835.286L754.332 807.451M684.305 779.617L625.437 743.934M684.305 779.617L693.024 906.783M684.305 779.617L754.332 807.451M625.437 743.934L687.584 651.007M1071.33 542.702L1125.2 848.517M1071.33 542.702L1322.5 663.322M1521.95 175.167L1488.51 274.931M1488.51 274.931L1415.46 507.805M1415.46 507.805L1397.53 580.63M1125.2 848.517L1322.5 663.322M1125.2 848.517L1254.48 906.318M1125.2 848.517L939.763 821.611M1125.2 848.517L862.865 955.601M1125.2 848.517L1078.01 984.778M1322.5 663.322L1397.53 580.63M1322.5 663.322L1254.48 906.318M1322.5 663.322L1374.82 894.934M1322.5 663.322L1427.86 737.791M1397.53 580.63L1427.86 737.791M1254.48 906.318L1374.82 894.934M1254.48 906.318L1078.01 984.778M1374.82 894.934L1427.86 737.791M45.5832 682.673L173.53 761.665M173.53 761.665L367.286 755.32M173.53 761.665L215.632 849.301L367.286 755.32M367.286 755.32L419.214 857.299M367.286 755.32L472.983 737.72M862.865 955.601L939.763 821.611M862.865 955.601L1078.01 984.778M862.865 955.601L754.332 807.451M862.865 955.601L693.024 906.783M419.214 857.299L472.983 737.72M419.214 857.299L562.04 806.006M472.983 737.72L562.04 806.006M403.783 325.205L502.147 354.807M693.024 906.783L754.332 807.451" stroke="url(#paint0_radial_3139_873)" stroke-opacity="0.3"/>
<path d="M622.28 259.898L600.51 384.41M622.28 259.898L674.451 358.867M622.28 259.898L865.387 193.978M622.28 259.898L670.914 131.746M622.28 259.898L502.147 354.807M600.51 384.41L674.451 358.867M600.51 384.41L628.655 561.539M600.51 384.41L710.401 512.627M600.51 384.41L546.34 448.996M600.51 384.41L502.147 354.807M674.451 358.867L865.387 193.978M674.451 358.867L909.871 349.156M674.451 358.867L710.401 512.627M674.451 358.867L726.946 503.713M865.387 193.978L909.871 349.156M865.387 193.978L670.914 131.746M865.387 193.978L827.832 41.1902M865.387 193.978L905.647 155.359M909.871 349.156L905.647 155.359M909.871 349.156L977.189 134.011M909.871 349.156L1061.03 359.712M909.871 349.156L726.946 503.713M909.871 349.156L895.757 545.273M909.871 349.156L931.192 370.81M670.914 131.746L827.832 41.1902M827.832 41.1902L905.647 155.359M827.832 41.1902L963.504 86.8953M905.647 155.359L963.504 86.8953M905.647 155.359L977.189 134.011M963.504 86.8953L977.189 134.011M963.504 86.8953L1202.52 1.51327M963.504 86.8953L1179.39 150.981M977.189 134.011L1179.39 150.981M977.189 134.011L1061.03 359.712M1202.52 1.51327L1179.39 150.981M1202.52 1.51327L1389.84 134.439M1179.39 150.981L1061.03 359.712M1179.39 150.981L1236.65 232.064M1179.39 150.981L1389.84 134.439M1179.39 150.981L1362.64 181.059M1061.03 359.712L1236.65 232.064M1061.03 359.712L1071.47 489.419M1236.65 232.064L1362.64 181.059M1236.65 232.064L1071.47 489.419M1236.65 232.064L1488.51 274.931M1236.65 232.064L1415.46 507.805M1389.84 134.439L1362.64 181.059M1389.84 134.439L1521.95 175.167M1362.64 181.059L1521.95 175.167M1362.64 181.059L1488.51 274.931M628.655 561.539L710.401 512.627M628.655 561.539L396.023 448.9M628.655 561.539L546.34 448.996M628.655 561.539L463.756 670.636M628.655 561.539L578.68 720.119M628.655 561.539L686.587 650.99M710.401 512.627L726.946 503.713M710.401 512.627L686.587 650.99M710.401 512.627L710.408 651.387M726.946 503.713L895.757 545.273M726.946 503.713L849.261 595.345M726.946 503.713L710.408 651.387M895.757 545.273L931.192 370.81M895.757 545.273L1059.47 510.389M895.757 545.273L849.261 595.345M895.757 545.273L1071.33 542.702M895.757 545.273L892.678 721.551M931.192 370.81L1059.47 510.389M931.192 370.81L1071.47 489.419M1059.47 510.389L1071.47 489.419M1059.47 510.389L1071.33 542.702M849.261 595.345L710.408 651.387M849.261 595.345L892.678 721.551M1071.47 489.419L1071.33 542.702M1071.47 489.419L1322.5 663.322M1071.47 489.419L1397.53 580.63M1071.47 489.419L1415.46 507.805M396.023 448.9L249.07 399.051M396.023 448.9L305.208 481.909M396.023 448.9L463.756 670.636M396.023 448.9L355.886 659.117M396.023 448.9L546.34 448.996M396.023 448.9L403.783 325.205M249.07 399.051L305.208 481.909M249.07 399.051L260.106 470.805M249.07 399.051L178.884 439.872M249.07 399.051L403.783 325.205M305.208 481.909L355.886 659.117M305.208 481.909L260.106 470.805M463.756 670.636L355.886 659.117M463.756 670.636L578.68 720.119M463.756 670.636L367.286 755.32M355.886 659.117L260.106 470.805M355.886 659.117L270.461 623.048M355.886 659.117L173.53 761.665M355.886 659.117L367.286 755.32M260.106 470.805L178.884 439.872M260.106 470.805L127.224 485.938M260.106 470.805L270.461 623.048M178.884 439.872L127.224 485.938M178.884 439.872L136.426 448.558M127.224 485.938L23.2875 494.526M127.224 485.938L136.426 448.558M127.224 485.938L270.461 623.048M127.224 485.938L97.5536 606.454M127.224 485.938L199.961 620.73M23.2875 494.526L136.426 448.558M23.2875 494.526L97.5536 606.454M23.2875 494.526L1.29104 600.527M23.2875 494.526L38.6131 596.045M270.461 623.048L199.961 620.73M270.461 623.048L173.53 761.665M97.5536 606.454L38.6131 596.045M97.5536 606.454L199.961 620.73M97.5536 606.454L45.5832 682.673M97.5536 606.454L173.53 761.665M1.29104 600.527L38.6131 596.045M1.29104 600.527L45.5832 682.673M38.6131 596.045L45.5832 682.673M199.961 620.73L173.53 761.665M546.34 448.996L403.783 325.205M578.68 720.119L686.587 650.99M578.68 720.119L625.437 743.934M578.68 720.119L472.983 737.72M578.68 720.119L562.04 806.006M686.587 650.99L687.584 651.007M710.408 651.387L892.678 721.551M710.408 651.387L824.358 835.286M710.408 651.387L684.305 779.617M710.408 651.387L625.437 743.934M710.408 651.387L687.584 651.007M892.678 721.551L824.358 835.286M892.678 721.551L1071.33 542.702M892.678 721.551L1125.2 848.517M892.678 721.551L862.865 955.601M892.678 721.551L939.763 821.611M824.358 835.286L862.865 955.601M824.358 835.286L754.332 807.451M684.305 779.617L625.437 743.934M684.305 779.617L693.024 906.783M684.305 779.617L754.332 807.451M625.437 743.934L687.584 651.007M1071.33 542.702L1125.2 848.517M1071.33 542.702L1322.5 663.322M1521.95 175.167L1488.51 274.931M1488.51 274.931L1415.46 507.805M1415.46 507.805L1397.53 580.63M1125.2 848.517L1322.5 663.322M1125.2 848.517L1254.48 906.318M1125.2 848.517L939.763 821.611M1125.2 848.517L862.865 955.601M1125.2 848.517L1078.01 984.778M1322.5 663.322L1397.53 580.63M1322.5 663.322L1254.48 906.318M1322.5 663.322L1374.82 894.934M1322.5 663.322L1427.86 737.791M1397.53 580.63L1427.86 737.791M1254.48 906.318L1374.82 894.934M1254.48 906.318L1078.01 984.778M1374.82 894.934L1427.86 737.791M45.5832 682.673L173.53 761.665M173.53 761.665L367.286 755.32M173.53 761.665L215.632 849.301L367.286 755.32M367.286 755.32L419.214 857.299M367.286 755.32L472.983 737.72M862.865 955.601L939.763 821.611M862.865 955.601L1078.01 984.778M862.865 955.601L754.332 807.451M862.865 955.601L693.024 906.783M419.214 857.299L472.983 737.72M419.214 857.299L562.04 806.006M472.983 737.72L562.04 806.006M403.783 325.205L502.147 354.807M693.024 906.783L754.332 807.451" stroke="url(#paint1_radial_3139_873)" stroke-opacity="0.4"/>
<path d="M622.28 259.898L600.51 384.41M622.28 259.898L674.451 358.867M622.28 259.898L865.387 193.978M622.28 259.898L670.914 131.746M622.28 259.898L502.147 354.807M600.51 384.41L674.451 358.867M600.51 384.41L628.655 561.539M600.51 384.41L710.401 512.627M600.51 384.41L546.34 448.996M600.51 384.41L502.147 354.807M674.451 358.867L865.387 193.978M674.451 358.867L909.871 349.156M674.451 358.867L710.401 512.627M674.451 358.867L726.946 503.713M865.387 193.978L909.871 349.156M865.387 193.978L670.914 131.746M865.387 193.978L827.832 41.1902M865.387 193.978L905.647 155.359M909.871 349.156L905.647 155.359M909.871 349.156L977.189 134.011M909.871 349.156L1061.03 359.712M909.871 349.156L726.946 503.713M909.871 349.156L895.757 545.273M909.871 349.156L931.192 370.81M670.914 131.746L827.832 41.1902M827.832 41.1902L905.647 155.359M827.832 41.1902L963.504 86.8953M905.647 155.359L963.504 86.8953M905.647 155.359L977.189 134.011M963.504 86.8953L977.189 134.011M963.504 86.8953L1202.52 1.51327M963.504 86.8953L1179.39 150.981M977.189 134.011L1179.39 150.981M977.189 134.011L1061.03 359.712M1202.52 1.51327L1179.39 150.981M1202.52 1.51327L1389.84 134.439M1179.39 150.981L1061.03 359.712M1179.39 150.981L1236.65 232.064M1179.39 150.981L1389.84 134.439M1179.39 150.981L1362.64 181.059M1061.03 359.712L1236.65 232.064M1061.03 359.712L1071.47 489.419M1236.65 232.064L1362.64 181.059M1236.65 232.064L1071.47 489.419M1236.65 232.064L1488.51 274.931M1236.65 232.064L1415.46 507.805M1389.84 134.439L1362.64 181.059M1389.84 134.439L1521.95 175.167M1362.64 181.059L1521.95 175.167M1362.64 181.059L1488.51 274.931M628.655 561.539L710.401 512.627M628.655 561.539L396.023 448.9M628.655 561.539L546.34 448.996M628.655 561.539L463.756 670.636M628.655 561.539L578.68 720.119M628.655 561.539L686.587 650.99M710.401 512.627L726.946 503.713M710.401 512.627L686.587 650.99M710.401 512.627L710.408 651.387M726.946 503.713L895.757 545.273M726.946 503.713L849.261 595.345M726.946 503.713L710.408 651.387M895.757 545.273L931.192 370.81M895.757 545.273L1059.47 510.389M895.757 545.273L849.261 595.345M895.757 545.273L1071.33 542.702M895.757 545.273L892.678 721.551M931.192 370.81L1059.47 510.389M931.192 370.81L1071.47 489.419M1059.47 510.389L1071.47 489.419M1059.47 510.389L1071.33 542.702M849.261 595.345L710.408 651.387M849.261 595.345L892.678 721.551M1071.47 489.419L1071.33 542.702M1071.47 489.419L1322.5 663.322M1071.47 489.419L1397.53 580.63M1071.47 489.419L1415.46 507.805M396.023 448.9L249.07 399.051M396.023 448.9L305.208 481.909M396.023 448.9L463.756 670.636M396.023 448.9L355.886 659.117M396.023 448.9L546.34 448.996M396.023 448.9L403.783 325.205M249.07 399.051L305.208 481.909M249.07 399.051L260.106 470.805M249.07 399.051L178.884 439.872M249.07 399.051L403.783 325.205M305.208 481.909L355.886 659.117M305.208 481.909L260.106 470.805M463.756 670.636L355.886 659.117M463.756 670.636L578.68 720.119M463.756 670.636L367.286 755.32M355.886 659.117L260.106 470.805M355.886 659.117L270.461 623.048M355.886 659.117L173.53 761.665M355.886 659.117L367.286 755.32M260.106 470.805L178.884 439.872M260.106 470.805L127.224 485.938M260.106 470.805L270.461 623.048M178.884 439.872L127.224 485.938M178.884 439.872L136.426 448.558M127.224 485.938L23.2875 494.526M127.224 485.938L136.426 448.558M127.224 485.938L270.461 623.048M127.224 485.938L97.5536 606.454M127.224 485.938L199.961 620.73M23.2875 494.526L136.426 448.558M23.2875 494.526L97.5536 606.454M23.2875 494.526L1.29104 600.527M23.2875 494.526L38.6131 596.045M270.461 623.048L199.961 620.73M270.461 623.048L173.53 761.665M97.5536 606.454L38.6131 596.045M97.5536 606.454L199.961 620.73M97.5536 606.454L45.5832 682.673M97.5536 606.454L173.53 761.665M1.29104 600.527L38.6131 596.045M1.29104 600.527L45.5832 682.673M38.6131 596.045L45.5832 682.673M199.961 620.73L173.53 761.665M546.34 448.996L403.783 325.205M578.68 720.119L686.587 650.99M578.68 720.119L625.437 743.934M578.68 720.119L472.983 737.72M578.68 720.119L562.04 806.006M686.587 650.99L687.584 651.007M710.408 651.387L892.678 721.551M710.408 651.387L824.358 835.286M710.408 651.387L684.305 779.617M710.408 651.387L625.437 743.934M710.408 651.387L687.584 651.007M892.678 721.551L824.358 835.286M892.678 721.551L1071.33 542.702M892.678 721.551L1125.2 848.517M892.678 721.551L862.865 955.601M892.678 721.551L939.763 821.611M824.358 835.286L862.865 955.601M824.358 835.286L754.332 807.451M684.305 779.617L625.437 743.934M684.305 779.617L693.024 906.783M684.305 779.617L754.332 807.451M625.437 743.934L687.584 651.007M1071.33 542.702L1125.2 848.517M1071.33 542.702L1322.5 663.322M1521.95 175.167L1488.51 274.931M1488.51 274.931L1415.46 507.805M1415.46 507.805L1397.53 580.63M1125.2 848.517L1322.5 663.322M1125.2 848.517L1254.48 906.318M1125.2 848.517L939.763 821.611M1125.2 848.517L862.865 955.601M1125.2 848.517L1078.01 984.778M1322.5 663.322L1397.53 580.63M1322.5 663.322L1254.48 906.318M1322.5 663.322L1374.82 894.934M1322.5 663.322L1427.86 737.791M1397.53 580.63L1427.86 737.791M1254.48 906.318L1374.82 894.934M1254.48 906.318L1078.01 984.778M1374.82 894.934L1427.86 737.791M45.5832 682.673L173.53 761.665M173.53 761.665L367.286 755.32M173.53 761.665L215.632 849.301L367.286 755.32M367.286 755.32L419.214 857.299M367.286 755.32L472.983 737.72M862.865 955.601L939.763 821.611M862.865 955.601L1078.01 984.778M862.865 955.601L754.332 807.451M862.865 955.601L693.024 906.783M419.214 857.299L472.983 737.72M419.214 857.299L562.04 806.006M472.983 737.72L562.04 806.006M403.783 325.205L502.147 354.807M693.024 906.783L754.332 807.451" stroke="url(#paint2_radial_3139_873)" stroke-opacity="0.4"/>
<defs>
<radialGradient id="paint0_radial_3139_873" cx="0" cy="0" r="1" gradientUnits="userSpaceOnUse" gradientTransform="translate(1377 102.5) rotate(132.917) scale(311.333 418)">
<stop stop-color="#ED1C3B"/>
<stop offset="1" stop-color="#ED1C3B" stop-opacity="0"/>
</radialGradient>
<radialGradient id="paint1_radial_3139_873" cx="0" cy="0" r="1" gradientUnits="userSpaceOnUse" gradientTransform="translate(-48 519) rotate(26.9802) scale(277.727 372.88)">
<stop stop-color="#62B1CA"/>
<stop offset="1" stop-color="#62B1CA" stop-opacity="0"/>
</radialGradient>
<radialGradient id="paint2_radial_3139_873" cx="0" cy="0" r="1" gradientUnits="userSpaceOnUse" gradientTransform="translate(1152 1074) rotate(-122.273) scale(454.161 609.763)">
<stop stop-color="#2BDF27"/>
<stop offset="1" stop-color="#2BDF27" stop-opacity="0"/>
</radialGradient>
</defs>
</svg>
