<svg width="20" height="20" viewBox="0 0 20 20" fill="none" xmlns="http://www.w3.org/2000/svg">
<g id="fluent-mdl2:compliance-audit">
<path id="Vector" d="M10.0879 12.5C9.99675 12.6953 9.92839 12.8971 9.88281 13.1055C9.83724 13.3138 9.79492 13.5286 9.75586 13.75H3.75V12.5H10.0879ZM3.75 16.25V15H9.73633C9.76888 15.2148 9.81445 15.4264 9.87305 15.6348C9.93164 15.8431 10.0065 16.0482 10.0977 16.25H3.75ZM2.5 18.75H15.6738L16.9141 20H1.25V0H12.1387L17.5 5.36133V10.9082C17.3112 10.7389 17.1126 10.5859 16.9043 10.4492C16.696 10.3125 16.4779 10.1921 16.25 10.0879V6.25H11.25V1.25H2.5V18.75ZM12.5 2.13867V5H15.3613L12.5 2.13867ZM12.7344 10C12.0247 10.2669 11.416 10.6836 10.9082 11.25H3.75V10H12.7344ZM3.75 5H10V6.25H3.75V5ZM15 7.5V8.75H3.75V7.5H15ZM20 19.375C20 19.5443 19.9382 19.6908 19.8145 19.8145C19.6908 19.9382 19.5443 20 19.375 20C19.2057 20 19.0592 19.9382 18.9355 19.8145L16.0938 16.9824C15.8398 17.1517 15.5664 17.2786 15.2734 17.3633C14.9805 17.4479 14.681 17.4935 14.375 17.5C13.9453 17.5 13.5417 17.4186 13.1641 17.2559C12.7865 17.0931 12.4544 16.8717 12.168 16.5918C11.8815 16.3118 11.6569 15.9798 11.4941 15.5957C11.3314 15.2116 11.25 14.8047 11.25 14.375C11.25 13.9453 11.3314 13.5417 11.4941 13.1641C11.6569 12.7865 11.8783 12.4577 12.1582 12.1777C12.4382 11.8978 12.7702 11.6732 13.1543 11.5039C13.5384 11.3346 13.9453 11.25 14.375 11.25C14.8047 11.25 15.2083 11.3314 15.5859 11.4941C15.9635 11.6569 16.2923 11.8815 16.5723 12.168C16.8522 12.4544 17.0768 12.7865 17.2461 13.1641C17.4154 13.5417 17.5 13.9453 17.5 14.375C17.5 14.681 17.4577 14.9805 17.373 15.2734C17.2884 15.5664 17.1582 15.8398 16.9824 16.0938L19.8145 18.9355C19.9382 19.0592 20 19.2057 20 19.375ZM12.5 14.375C12.5 14.6354 12.5488 14.8796 12.6465 15.1074C12.7441 15.3353 12.8776 15.5339 13.0469 15.7031C13.2161 15.8724 13.4147 16.0059 13.6426 16.1035C13.8704 16.2012 14.1146 16.25 14.375 16.25C14.6354 16.25 14.8796 16.2012 15.1074 16.1035C15.3353 16.0059 15.5339 15.8724 15.7031 15.7031C15.8724 15.5339 16.0059 15.3353 16.1035 15.1074C16.2012 14.8796 16.25 14.6354 16.25 14.375C16.25 14.1146 16.2012 13.8704 16.1035 13.6426C16.0059 13.4147 15.8724 13.2161 15.7031 13.0469C15.5339 12.8776 15.3353 12.7441 15.1074 12.6465C14.8796 12.5488 14.6354 12.5 14.375 12.5C14.1146 12.5 13.8704 12.5488 13.6426 12.6465C13.4147 12.7441 13.2161 12.8776 13.0469 13.0469C12.8776 13.2161 12.7441 13.4147 12.6465 13.6426C12.5488 13.8704 12.5 14.1146 12.5 14.375Z" fill="#8D61F6"/>
</g>
</svg>
