<svg width="33" height="33" viewBox="0 0 33 33" fill="none" xmlns="http://www.w3.org/2000/svg">
<g filter="url(#filter0_i_106_40889)">
<rect x="0.5" y="0.5" width="32" height="32" rx="16" fill="black" fill-opacity="0.1"/>
<circle cx="16.5007" cy="16.4999" r="11.6667" fill="url(#paint0_linear_106_40889)"/>
<g filter="url(#filter1_i_106_40889)">
<circle cx="16.5" cy="16.5" r="10.5" fill="url(#paint1_linear_106_40889)"/>
</g>
<circle cx="16.5" cy="16.5" r="10" stroke="#2E2E4D"/>
<path d="M16.5486 8.91675L11.834 16.8303L16.5486 19.4399L21.2632 16.8303L16.5486 8.91675Z" fill="#17204D" fill-opacity="0.5"/>
<path d="M16.5486 14.4221L11.834 16.8302L16.5486 19.4398L21.2632 16.8302L16.5486 14.4221Z" fill="#17204D" fill-opacity="0.5"/>
<path d="M16.5486 24.0833L11.834 17.6465L16.5486 20.2561L21.2632 17.6465L16.5486 24.0833Z" fill="#17204D" fill-opacity="0.5"/>
<path d="M21.2634 17.6465L16.5488 20.2562V24.0834L21.2634 17.6465ZM21.2634 16.8303L16.5488 8.91675V19.4399L21.2634 16.8303Z" fill="#17204D" fill-opacity="0.5"/>
<path d="M16.5488 19.4398L21.2634 16.8302L16.5488 14.4221V19.4398Z" fill="#17204D" fill-opacity="0.5"/>
</g>
<defs>
<filter id="filter0_i_106_40889" x="0.5" y="0.5" width="32" height="32" filterUnits="userSpaceOnUse" color-interpolation-filters="sRGB">
<feFlood flood-opacity="0" result="BackgroundImageFix"/>
<feBlend mode="normal" in="SourceGraphic" in2="BackgroundImageFix" result="shape"/>
<feColorMatrix in="SourceAlpha" type="matrix" values="0 0 0 0 0 0 0 0 0 0 0 0 0 0 0 0 0 0 127 0" result="hardAlpha"/>
<feOffset dy="-1"/>
<feComposite in2="hardAlpha" operator="arithmetic" k2="-1" k3="1"/>
<feColorMatrix type="matrix" values="0 0 0 0 1 0 0 0 0 1 0 0 0 0 1 0 0 0 0.1 0"/>
<feBlend mode="normal" in2="shape" result="effect1_innerShadow_106_40889"/>
</filter>
<filter id="filter1_i_106_40889" x="6" y="6" width="21" height="21" filterUnits="userSpaceOnUse" color-interpolation-filters="sRGB">
<feFlood flood-opacity="0" result="BackgroundImageFix"/>
<feBlend mode="normal" in="SourceGraphic" in2="BackgroundImageFix" result="shape"/>
<feColorMatrix in="SourceAlpha" type="matrix" values="0 0 0 0 0 0 0 0 0 0 0 0 0 0 0 0 0 0 127 0" result="hardAlpha"/>
<feOffset dy="2"/>
<feComposite in2="hardAlpha" operator="arithmetic" k2="-1" k3="1"/>
<feColorMatrix type="matrix" values="0 0 0 0 1 0 0 0 0 1 0 0 0 0 1 0 0 0 0.6 0"/>
<feBlend mode="normal" in2="shape" result="effect1_innerShadow_106_40889"/>
</filter>
<linearGradient id="paint0_linear_106_40889" x1="16.5007" y1="4.83325" x2="16.5007" y2="28.1666" gradientUnits="userSpaceOnUse">
<stop stop-color="#E1E6F0"/>
<stop offset="1" stop-color="#939CCC"/>
</linearGradient>
<linearGradient id="paint1_linear_106_40889" x1="16.5" y1="6" x2="16.5" y2="27" gradientUnits="userSpaceOnUse">
<stop stop-color="#E1E6F0"/>
<stop offset="1" stop-color="#939CCC"/>
</linearGradient>
</defs>
</svg>
