<svg width="21" height="21" viewBox="0 0 21 21" fill="none" xmlns="http://www.w3.org/2000/svg">
<g id="raphael:paper">
<path id="Vector" d="M18.5723 5.50582L10.4704 1.67894C10.3922 1.64246 10.3068 1.62403 10.2206 1.62504C10.1343 1.62604 10.0493 1.64645 9.97202 1.68475C9.89471 1.72304 9.827 1.77825 9.77392 1.84627C9.72085 1.91429 9.68376 1.99339 9.66541 2.07769C9.66353 2.08394 9.01541 5.09644 8.05291 8.09957C7.72478 9.12894 7.35728 10.1464 6.97353 11.0402L8.01415 11.5314C9.26415 8.63019 10.2542 4.62519 10.6267 3.02332L17.6685 6.34519C17.4523 7.29082 16.8979 9.60957 16.156 11.9246C15.6767 13.4246 15.1154 14.9227 14.5404 16.0071C13.9842 17.1258 13.3167 17.6758 13.1673 17.6021C12.2798 17.6208 11.656 16.8133 11.236 15.7783C11.0594 15.323 10.922 14.8533 10.8254 14.3746C10.7454 13.9883 10.721 13.7458 10.7192 13.7458C10.7092 13.6481 10.674 13.5547 10.617 13.4747C10.56 13.3947 10.4832 13.3309 10.3942 13.2896L2.29416 9.46457C2.20187 9.42103 2.0997 9.40272 1.99804 9.4115C1.89637 9.42029 1.79886 9.45585 1.71541 9.51457C1.63244 9.57383 1.56672 9.65408 1.52499 9.7471C1.48325 9.84013 1.46701 9.94257 1.47791 10.0439C1.48291 10.0727 1.59978 11.2002 2.06978 12.3796C2.39603 13.2046 2.94915 14.1408 3.84853 14.6139L11.946 18.4452L11.9498 18.4377C12.301 18.6221 12.6998 18.7421 13.1667 18.7477C14.2898 18.6746 14.9023 17.7052 15.5529 16.5446C17.4279 12.9883 18.8779 6.16957 18.8892 6.14457C18.9169 6.01833 18.9008 5.8864 18.8436 5.77052C18.7863 5.65464 18.6913 5.56172 18.5742 5.50707L18.5723 5.50582Z" fill="#4D81FF"/>
</g>
</svg>
