<svg width="91" height="91" viewBox="0 0 91 91" fill="none" xmlns="http://www.w3.org/2000/svg">
<g id="Group 1000003496">
<path id="Vector" d="M33.1571 65.6659V25.7849C33.1584 25.3811 33.2697 24.9853 33.4792 24.6401C33.6887 24.295 33.9883 24.0134 34.3459 23.8259C34.7035 23.6383 35.1054 23.5518 35.5085 23.5757C35.9116 23.5996 36.3005 23.733 36.6334 23.9615L65.4364 43.902C66.6306 44.7284 66.6306 46.718 65.4364 47.5466L36.6334 67.4872C36.3012 67.718 35.9121 67.8533 35.5083 67.8785C35.1046 67.9037 34.7017 67.8178 34.3433 67.63C33.985 67.4423 33.685 67.16 33.4758 66.8137C33.2667 66.4674 33.1565 66.0705 33.1571 65.6659Z" fill="url(#paint0_linear_106_40918)"/>
<circle id="Ellipse 2209" cx="45.5" cy="45.5" r="43.7938" stroke="url(#paint1_linear_106_40918)" stroke-width="3.4125"/>
</g>
<defs>
<linearGradient id="paint0_linear_106_40918" x1="66.332" y1="45.7273" x2="33.1571" y2="45.7273" gradientUnits="userSpaceOnUse">
<stop stop-color="#6D36B9"/>
<stop offset="1" stop-color="#CB89FF"/>
</linearGradient>
<linearGradient id="paint1_linear_106_40918" x1="45.5" y1="0" x2="45.5" y2="91" gradientUnits="userSpaceOnUse">
<stop stop-color="#733CBD"/>
<stop offset="1" stop-color="#C886FD"/>
</linearGradient>
</defs>
</svg>
