<!-- Generated by IcoMoon.io -->
<svg version="1.1" fill='#fff' xmlns="http://www.w3.org/2000/svg" width="664" height="512" viewBox="0 0 664 512">
<path d="M302.964 211.249c0 0.1-0.081 0.181-0.182 0.181s-0.182-0.081-0.182-0.181c0-0.1 0.081-0.181 0.182-0.181s0.182 0.081 0.182 0.181z"></path>
<path d="M308.052 204.932c0 0.1-0.081 0.181-0.182 0.181s-0.182-0.081-0.182-0.181c0-0.1 0.081-0.181 0.182-0.181s0.182 0.081 0.182 0.181z"></path>
<path d="M315.998 207.621c0 0.1-0.081 0.181-0.182 0.181s-0.182-0.081-0.182-0.181c0-0.1 0.081-0.181 0.182-0.181s0.182 0.081 0.182 0.181z"></path>
<path d="M345.493 197.5c0 0.1-0.081 0.181-0.182 0.181s-0.182-0.081-0.182-0.181c0-0.1 0.081-0.181 0.182-0.181s0.182 0.081 0.182 0.181z"></path>
<path d="M346.159 201.552c0 0.1-0.081 0.181-0.182 0.181s-0.182-0.081-0.182-0.181c0-0.1 0.081-0.181 0.182-0.181s0.182 0.081 0.182 0.181z"></path>
<path d="M353.231 199.794c0 0.1-0.081 0.181-0.182 0.181s-0.182-0.081-0.182-0.181c0-0.1 0.081-0.181 0.182-0.181s0.182 0.081 0.182 0.181z"></path>
<path d="M360.603 200.568c0 0.1-0.081 0.181-0.182 0.181s-0.182-0.081-0.182-0.181c0-0.1 0.081-0.181 0.182-0.181s0.182 0.081 0.182 0.181z"></path>
<path d="M365.032 202.74c0 0.1-0.081 0.181-0.182 0.181s-0.182-0.081-0.182-0.181c0-0.1 0.081-0.181 0.182-0.181s0.182 0.081 0.182 0.181z"></path>
<path d="M367.635 206.512c0 0.1-0.081 0.181-0.182 0.181s-0.182-0.081-0.182-0.181c0-0.1 0.081-0.181 0.182-0.181s0.182 0.081 0.182 0.181z"></path>
<path d="M373.608 214.030c0 0.1-0.081 0.181-0.182 0.181s-0.182-0.081-0.182-0.181c0-0.1 0.081-0.181 0.182-0.181s0.182 0.081 0.182 0.181z"></path>
<path d="M373.637 185.105c0 0.1-0.081 0.181-0.182 0.181s-0.182-0.081-0.182-0.181c0-0.1 0.081-0.181 0.182-0.181s0.182 0.081 0.182 0.181z"></path>
<path d="M352.868 196.644c0 0.1-0.081 0.181-0.182 0.181s-0.182-0.081-0.182-0.181c0-0.1 0.081-0.181 0.182-0.181s0.182 0.081 0.182 0.181z"></path>
<path d="M303.879 201.988c0 0.1-0.081 0.181-0.182 0.181s-0.182-0.081-0.182-0.181c0-0.1 0.081-0.181 0.182-0.181s0.182 0.081 0.182 0.181z"></path>
<path d="M298.705 210.191c0 0.1-0.081 0.181-0.182 0.181s-0.182-0.081-0.182-0.181c0-0.1 0.081-0.181 0.182-0.181s0.182 0.081 0.182 0.181z"></path>
<path d="M288.817 218.537c0 0.1-0.081 0.181-0.182 0.181s-0.182-0.081-0.182-0.181c0-0.1 0.081-0.181 0.182-0.181s0.182 0.081 0.182 0.181z"></path>
<path d="M285.274 210.706c0 0.1-0.081 0.181-0.182 0.181s-0.182-0.081-0.182-0.181c0-0.1 0.081-0.181 0.182-0.181s0.182 0.081 0.182 0.181z"></path>
<path d="M294.875 189.984c0 0.1-0.081 0.181-0.182 0.181s-0.182-0.081-0.182-0.181c0-0.1 0.081-0.181 0.182-0.181s0.182 0.081 0.182 0.181z"></path>
<path d="M298.506 184.432c0 0.038-0.029 0.070-0.063 0.070s-0.063-0.031-0.063-0.070c0-0.038 0.029-0.070 0.063-0.070s0.063 0.031 0.063 0.070z"></path>
<path d="M304.147 194.452c0 0.038-0.029 0.070-0.063 0.070s-0.063-0.031-0.063-0.070c0-0.038 0.029-0.070 0.063-0.070s0.063 0.031 0.063 0.070z"></path>
<path d="M307.421 199.625c0 0.038-0.029 0.070-0.063 0.070s-0.063-0.031-0.063-0.070c0-0.038 0.029-0.070 0.063-0.070s0.063 0.031 0.063 0.070z"></path>
<path d="M336.651 196.125c0 0.038-0.029 0.070-0.063 0.070s-0.063-0.031-0.063-0.070c0-0.038 0.029-0.070 0.063-0.070s0.063 0.031 0.063 0.070z"></path>
<path d="M345.193 199.054c0 0.038-0.029 0.070-0.063 0.070s-0.063-0.031-0.063-0.070c0-0.038 0.029-0.070 0.063-0.070s0.063 0.031 0.063 0.070z"></path>
<path d="M345.375 190.167c0 0.038-0.029 0.070-0.063 0.070s-0.063-0.031-0.063-0.070c0-0.038 0.029-0.070 0.063-0.070s0.063 0.031 0.063 0.070z"></path>
<path d="M353.894 203.684c0 0.038-0.029 0.070-0.063 0.070s-0.063-0.031-0.063-0.070c0-0.038 0.029-0.070 0.063-0.070s0.063 0.031 0.063 0.070z"></path>
<path d="M353.296 198.984c0 0.038-0.029 0.070-0.063 0.070s-0.063-0.031-0.063-0.070c0-0.038 0.029-0.070 0.063-0.070s0.063 0.031 0.063 0.070z"></path>
<path d="M346.577 206.512c0 0.038-0.029 0.070-0.063 0.070s-0.063-0.031-0.063-0.070c0-0.038 0.029-0.070 0.063-0.070s0.063 0.031 0.063 0.070z"></path>
<path d="M351.144 186.008c0 0.038-0.029 0.070-0.063 0.070s-0.063-0.031-0.063-0.070c0-0.038 0.029-0.070 0.063-0.070s0.063 0.031 0.063 0.070z"></path>
<path d="M382.59 202.991c0 0.038-0.029 0.070-0.063 0.070s-0.063-0.031-0.063-0.070c0-0.038 0.029-0.070 0.063-0.070s0.063 0.031 0.063 0.070z"></path>
<path d="M369.627 204.681c0 0.038-0.029 0.070-0.063 0.070s-0.063-0.031-0.063-0.070c0-0.038 0.029-0.070 0.063-0.070s0.063 0.031 0.063 0.070z"></path>
<path d="M374.538 198.398c0 0.038-0.029 0.070-0.063 0.070s-0.063-0.031-0.063-0.070c0-0.038 0.029-0.070 0.063-0.070s0.063 0.031 0.063 0.070z"></path>
<path d="M378.938 198.984c0 0.038-0.029 0.070-0.063 0.070s-0.063-0.031-0.063-0.070c0-0.038 0.029-0.070 0.063-0.070s0.063 0.031 0.063 0.070z"></path>
<path d="M384.769 193.096c0 0.038-0.029 0.070-0.063 0.070s-0.063-0.031-0.063-0.070c0-0.038 0.029-0.070 0.063-0.070s0.063 0.031 0.063 0.070z"></path>
<path d="M381.682 190.096c0 0.038-0.029 0.070-0.063 0.070s-0.063-0.031-0.063-0.070c0-0.038 0.029-0.070 0.063-0.070s0.063 0.031 0.063 0.070z"></path>
<path d="M372.822 188.237c0 0.038-0.029 0.070-0.063 0.070s-0.063-0.031-0.063-0.070c0-0.038 0.029-0.070 0.063-0.070s0.063 0.031 0.063 0.070z"></path>
<path d="M369.564 193.781c0 0.038-0.029 0.070-0.063 0.070s-0.063-0.031-0.063-0.070c0-0.038 0.029-0.070 0.063-0.070s0.063 0.031 0.063 0.070z"></path>
<path d="M358.644 190.306c0 0.038-0.029 0.070-0.063 0.070s-0.063-0.031-0.063-0.070c0-0.038 0.029-0.070 0.063-0.070s0.063 0.031 0.063 0.070z"></path>
<path d="M361.897 196.195c0 0.038-0.029 0.070-0.063 0.070s-0.063-0.031-0.063-0.070c0-0.038 0.029-0.070 0.063-0.070s0.063 0.031 0.063 0.070z"></path>
<path d="M341.796 184.893c0 0.038-0.029 0.070-0.063 0.070s-0.063-0.031-0.063-0.070c0-0.038 0.029-0.070 0.063-0.070s0.063 0.031 0.063 0.070z"></path>
<path d="M311.571 185.579c0 0.038-0.029 0.070-0.063 0.070s-0.063-0.031-0.063-0.070c0-0.038 0.029-0.070 0.063-0.070s0.063 0.031 0.063 0.070z"></path>
<path d="M326.685 189.207c0 0.038-0.029 0.070-0.063 0.070s-0.063-0.031-0.063-0.070c0-0.038 0.029-0.070 0.063-0.070s0.063 0.031 0.063 0.070z"></path>
<path d="M337.23 188.649c0 0.038-0.029 0.070-0.063 0.070s-0.063-0.031-0.063-0.070c0-0.038 0.029-0.070 0.063-0.070s0.063 0.031 0.063 0.070z"></path>
<path d="M332.451 204.75c0 0.038-0.029 0.070-0.063 0.070s-0.063-0.031-0.063-0.070c0-0.038 0.029-0.070 0.063-0.070s0.063 0.031 0.063 0.070z"></path>
<path d="M353.514 213.847c0 0.038-0.029 0.070-0.063 0.070s-0.063-0.031-0.063-0.070c0-0.038 0.029-0.070 0.063-0.070s0.063 0.031 0.063 0.070z"></path>
<path d="M359.204 214.030c0 0.038-0.029 0.070-0.063 0.070s-0.063-0.031-0.063-0.070c0-0.038 0.029-0.070 0.063-0.070s0.063 0.031 0.063 0.070z"></path>
<path d="M323.276 197.319c0 0.038-0.029 0.070-0.063 0.070s-0.063-0.031-0.063-0.070c0-0.038 0.029-0.070 0.063-0.070s0.063 0.031 0.063 0.070z"></path>
<path d="M314.079 198.467c0 0.038-0.029 0.070-0.063 0.070s-0.063-0.031-0.063-0.070c0-0.038 0.029-0.070 0.063-0.070s0.063 0.031 0.063 0.070z"></path>
<path d="M316.545 194.522c0 0.038-0.029 0.070-0.063 0.070s-0.063-0.031-0.063-0.070c0-0.038 0.029-0.070 0.063-0.070s0.063 0.031 0.063 0.070z"></path>
<path d="M325.481 208.119c0 0.038-0.029 0.070-0.063 0.070s-0.063-0.031-0.063-0.070c0-0.038 0.029-0.070 0.063-0.070s0.063 0.031 0.063 0.070z"></path>
<path d="M321.763 216.76c0 0.038-0.029 0.070-0.063 0.070s-0.063-0.031-0.063-0.070c0-0.038 0.029-0.070 0.063-0.070s0.063 0.031 0.063 0.070z"></path>
<path d="M309.79 217.306c0 0.038-0.029 0.070-0.063 0.070s-0.063-0.031-0.063-0.070c0-0.038 0.029-0.070 0.063-0.070s0.063 0.031 0.063 0.070z"></path>
<path d="M323.983 184.963c0 0.038-0.029 0.070-0.063 0.070s-0.063-0.031-0.063-0.070c0-0.038 0.029-0.070 0.063-0.070s0.063 0.031 0.063 0.070z"></path>
<path d="M286.798 191.709c0 0.038-0.029 0.070-0.063 0.070s-0.063-0.031-0.063-0.070c0-0.038 0.029-0.070 0.063-0.070s0.063 0.031 0.063 0.070z"></path>
<path d="M298.442 184.363c0 0.038-0.029 0.070-0.063 0.070s-0.063-0.031-0.063-0.070c0-0.038 0.029-0.070 0.063-0.070s0.063 0.031 0.063 0.070z"></path>
<path d="M279.862 193.542c0 0.038-0.029 0.070-0.063 0.070s-0.063-0.031-0.063-0.070c0-0.038 0.029-0.070 0.063-0.070s0.063 0.031 0.063 0.070z"></path>
<path d="M285.013 199.881c0 0.038-0.029 0.070-0.063 0.070s-0.063-0.031-0.063-0.070c0-0.038 0.029-0.070 0.063-0.070s0.063 0.031 0.063 0.070z"></path>
<path d="M293.2 206.633c0 0.038-0.029 0.070-0.063 0.070s-0.063-0.031-0.063-0.070c0-0.038 0.029-0.070 0.063-0.070s0.063 0.031 0.063 0.070z"></path>
<path d="M294.080 205.557c0 0.038-0.029 0.070-0.063 0.070s-0.063-0.031-0.063-0.070c0-0.038 0.029-0.070 0.063-0.070s0.063 0.031 0.063 0.070z"></path>
<path d="M276.503 208.049c0 0.038-0.029 0.070-0.063 0.070s-0.063-0.031-0.063-0.070c0-0.038 0.029-0.070 0.063-0.070s0.063 0.031 0.063 0.070z"></path>
<path d="M279.928 202.798c0 0.038-0.029 0.070-0.063 0.070s-0.063-0.031-0.063-0.070c0-0.038 0.029-0.070 0.063-0.070s0.063 0.031 0.063 0.070z"></path>
<path d="M279.497 188.365c0 0.038-0.029 0.070-0.063 0.070s-0.063-0.031-0.063-0.070c0-0.038 0.029-0.070 0.063-0.070s0.063 0.031 0.063 0.070z"></path>
<path d="M361.122 249.558c0 0.1-0.081 0.181-0.182 0.181s-0.182-0.081-0.182-0.181c0-0.1 0.081-0.181 0.182-0.181s0.182 0.081 0.182 0.181z"></path>
<path d="M356.486 256.213c0 0.1-0.081 0.182-0.182 0.182s-0.182-0.081-0.182-0.182c0-0.1 0.081-0.182 0.182-0.182s0.182 0.081 0.182 0.182z"></path>
<path d="M348.371 254.087c0 0.1-0.081 0.181-0.182 0.181s-0.182-0.081-0.182-0.181c0-0.1 0.081-0.181 0.182-0.181s0.182 0.081 0.182 0.181z"></path>
<path d="M319.654 266.238c0 0.1-0.081 0.182-0.182 0.182s-0.182-0.081-0.182-0.182c0-0.1 0.081-0.182 0.182-0.182s0.182 0.081 0.182 0.182z"></path>
<path d="M318.709 262.244c0 0.1-0.081 0.182-0.182 0.182s-0.182-0.081-0.182-0.182c0-0.1 0.081-0.182 0.182-0.182s0.182 0.081 0.182 0.182z"></path>
<path d="M311.776 264.49c0 0.1-0.081 0.182-0.182 0.182s-0.182-0.081-0.182-0.182c0-0.1 0.081-0.182 0.182-0.182s0.182 0.081 0.182 0.182z"></path>
<path d="M304.367 264.233c0 0.1-0.081 0.182-0.182 0.182s-0.182-0.081-0.182-0.182c0-0.1 0.081-0.182 0.182-0.182s0.182 0.081 0.182 0.182z"></path>
<path d="M299.796 262.375c0 0.1-0.081 0.182-0.182 0.182s-0.182-0.081-0.182-0.182c0-0.1 0.081-0.182 0.182-0.182s0.182 0.081 0.182 0.182z"></path>
<path d="M296.94 258.793c0 0.1-0.081 0.182-0.182 0.182s-0.182-0.081-0.182-0.182c0-0.1 0.081-0.182 0.182-0.182s0.182 0.081 0.182 0.182z"></path>
<path d="M290.455 251.71c0 0.1-0.081 0.181-0.182 0.181s-0.182-0.081-0.182-0.181c0-0.1 0.081-0.181 0.182-0.181s0.182 0.081 0.182 0.181z"></path>
<path d="M292.445 280.568c0 0.1-0.081 0.182-0.182 0.182s-0.182-0.081-0.182-0.182c0-0.1 0.081-0.182 0.182-0.182s0.182 0.081 0.182 0.182z"></path>
<path d="M312.358 267.608c0 0.1-0.081 0.182-0.182 0.182s-0.182-0.081-0.182-0.182c0-0.1 0.081-0.182 0.182-0.182s0.182 0.081 0.182 0.182z"></path>
<path d="M360.856 258.86c0 0.1-0.081 0.182-0.182 0.182s-0.182-0.081-0.182-0.182c0-0.1 0.081-0.182 0.182-0.182s0.182 0.081 0.182 0.182z"></path>
<path d="M365.443 250.315c0 0.1-0.081 0.181-0.182 0.181s-0.182-0.081-0.182-0.181c0-0.1 0.081-0.181 0.182-0.181s0.182 0.081 0.182 0.181z"></path>
<path d="M374.726 241.3c0 0.1-0.081 0.181-0.182 0.181s-0.182-0.081-0.182-0.181c0-0.1 0.081-0.181 0.182-0.181s0.182 0.081 0.182 0.181z"></path>
<path d="M378.807 248.864c0 0.1-0.081 0.181-0.182 0.181s-0.182-0.081-0.182-0.181c0-0.1 0.081-0.181 0.182-0.181s0.182 0.081 0.182 0.181z"></path>
<path d="M370.673 270.206c0 0.1-0.081 0.182-0.182 0.182s-0.182-0.081-0.182-0.182c0-0.1 0.081-0.182 0.182-0.182s0.182 0.081 0.182 0.182z"></path>
<path d="M367.202 276.002c0.002 0.038-0.024 0.072-0.058 0.074s-0.065-0.026-0.068-0.065c-0.002-0.038 0.024-0.072 0.058-0.074s0.065 0.026 0.068 0.065z"></path>
<path d="M360.877 266.4c0.002 0.038-0.024 0.072-0.058 0.074s-0.065-0.026-0.068-0.065c-0.002-0.038 0.024-0.072 0.058-0.074s0.065 0.026 0.068 0.065z"></path>
<path d="M357.252 261.467c0.002 0.038-0.024 0.072-0.058 0.074s-0.065-0.026-0.068-0.065c-0.002-0.038 0.024-0.072 0.058-0.074s0.065 0.026 0.068 0.065z"></path>
<path d="M328.335 266.998c0.002 0.038-0.024 0.072-0.058 0.074s-0.065-0.026-0.068-0.065c-0.002-0.038 0.024-0.072 0.058-0.074s0.065 0.026 0.068 0.065z"></path>
<path d="M319.609 264.672c0.002 0.038-0.024 0.072-0.058 0.074s-0.065-0.026-0.068-0.065c-0.002-0.038 0.024-0.072 0.058-0.074s0.065 0.026 0.068 0.065z"></path>
<path d="M320.048 273.55c0.002 0.038-0.024 0.072-0.058 0.074s-0.065-0.026-0.068-0.065c-0.002-0.038 0.024-0.072 0.058-0.074s0.065 0.026 0.068 0.065z"></path>
<path d="M310.608 260.662c0.002 0.038-0.024 0.072-0.058 0.074s-0.065-0.026-0.068-0.065c-0.002-0.038 0.024-0.072 0.058-0.074s0.065 0.026 0.068 0.065z"></path>
<path d="M311.531 265.307c0.002 0.038-0.024 0.072-0.058 0.074s-0.065-0.026-0.068-0.065c-0.002-0.038 0.024-0.072 0.058-0.074s0.065 0.026 0.068 0.065z"></path>
<path d="M317.711 257.327c0.002 0.038-0.024 0.072-0.058 0.074s-0.065-0.026-0.068-0.065c-0.002-0.038 0.024-0.072 0.058-0.074s0.065 0.026 0.068 0.065z"></path>
<path d="M314.587 278.101c0.002 0.038-0.024 0.072-0.058 0.074s-0.065-0.026-0.068-0.065c-0.002-0.038 0.024-0.072 0.058-0.074s0.065 0.026 0.068 0.065z"></path>
<path d="M282.031 263.353c0.002 0.038-0.024 0.072-0.058 0.074s-0.065-0.026-0.068-0.065c-0.002-0.038 0.024-0.072 0.058-0.074s0.065 0.026 0.068 0.065z"></path>
<path d="M294.841 260.764c0.002 0.038-0.024 0.072-0.058 0.074s-0.065-0.026-0.068-0.065c-0.002-0.038 0.024-0.072 0.058-0.074s0.065 0.026 0.068 0.065z"></path>
<path d="M290.384 267.373c0.002 0.038-0.024 0.072-0.058 0.074s-0.065-0.026-0.068-0.065c-0.002-0.038 0.024-0.072 0.058-0.074s0.065 0.026 0.068 0.065z"></path>
<path d="M285.952 267.097c0.002 0.038-0.024 0.072-0.058 0.074s-0.065-0.026-0.068-0.065c-0.002-0.038 0.024-0.072 0.058-0.074s0.065 0.026 0.068 0.065z"></path>
<path d="M280.546 273.377c0.002 0.038-0.024 0.072-0.058 0.074s-0.065-0.026-0.068-0.065c-0.002-0.038 0.024-0.072 0.058-0.074s0.065 0.026 0.068 0.065z"></path>
<path d="M283.836 276.153c0.002 0.038-0.024 0.072-0.058 0.074s-0.065-0.026-0.068-0.065c-0.002-0.038 0.024-0.072 0.058-0.074s0.065 0.026 0.068 0.065z"></path>
<path d="M292.803 277.39c0.002 0.038-0.024 0.072-0.058 0.074s-0.065-0.026-0.068-0.065c-0.002-0.038 0.024-0.072 0.058-0.074s0.065 0.026 0.068 0.065z"></path>
<path d="M295.669 271.63c0.002 0.038-0.024 0.072-0.058 0.074s-0.065-0.026-0.068-0.065c-0.002-0.038 0.024-0.072 0.058-0.074s0.065 0.026 0.068 0.065z"></path>
<path d="M294.421 228.232c0.002 0.038-0.024 0.071-0.058 0.073s-0.065-0.026-0.068-0.065c-0.002-0.038 0.024-0.071 0.058-0.073s0.065 0.026 0.068 0.065z"></path>
<path d="M287.873 237.013c0.002 0.038-0.024 0.071-0.058 0.073s-0.065-0.026-0.068-0.065c-0.002-0.038 0.024-0.071 0.058-0.073s0.065 0.026 0.068 0.065z"></path>
<path d="M378.039 233.394c0 0.1-0.081 0.181-0.182 0.181s-0.182-0.081-0.182-0.181c0-0.1 0.081-0.181 0.182-0.181s0.182 0.081 0.182 0.181z"></path>
<path d="M375.979 220.199c0.002 0.038-0.024 0.071-0.058 0.073s-0.065-0.026-0.068-0.065c-0.002-0.038 0.024-0.071 0.058-0.073s0.065 0.026 0.068 0.065z"></path>
<path d="M371.545 219.924c0.002 0.038-0.024 0.071-0.058 0.073s-0.065-0.026-0.068-0.065c-0.002-0.038 0.024-0.071 0.058-0.073s0.065 0.026 0.068 0.065z"></path>
<path d="M366.139 226.203c0.002 0.038-0.024 0.071-0.058 0.073s-0.065-0.026-0.068-0.065c-0.002-0.038 0.024-0.071 0.058-0.073s0.065 0.026 0.068 0.065z"></path>
<path d="M369.429 228.978c0.002 0.038-0.024 0.071-0.058 0.073s-0.065-0.026-0.068-0.065c-0.002-0.038 0.024-0.071 0.058-0.073s0.065 0.026 0.068 0.065z"></path>
<path d="M378.399 230.215c0.002 0.038-0.024 0.071-0.058 0.073s-0.065-0.026-0.068-0.065c-0.002-0.038 0.024-0.071 0.058-0.073s0.065 0.026 0.068 0.065z"></path>
<path d="M381.26 224.458c0.002 0.038-0.024 0.071-0.058 0.073s-0.065-0.026-0.068-0.065c-0.002-0.038 0.024-0.071 0.058-0.073s0.065 0.026 0.068 0.065z"></path>
<path d="M306.802 274.337c0.002 0.038-0.024 0.072-0.058 0.074s-0.065-0.026-0.068-0.065c-0.002-0.038 0.024-0.072 0.058-0.074s0.065 0.026 0.068 0.065z"></path>
<path d="M303.147 268.689c0.002 0.038-0.024 0.072-0.058 0.074s-0.065-0.026-0.068-0.065c-0.002-0.038 0.024-0.072 0.058-0.074s0.065 0.026 0.068 0.065z"></path>
<path d="M323.988 278.561c0.002 0.038-0.024 0.072-0.058 0.074s-0.065-0.026-0.068-0.065c-0.002-0.038 0.024-0.072 0.058-0.074s0.065 0.026 0.068 0.065z"></path>
<path d="M354.090 275.769c0.002 0.038-0.024 0.072-0.058 0.074s-0.065-0.026-0.068-0.065c-0.002-0.038 0.024-0.072 0.058-0.074s0.065 0.026 0.068 0.065z"></path>
<path d="M338.761 273.202c0.002 0.038-0.024 0.072-0.058 0.074s-0.065-0.026-0.068-0.065c-0.002-0.038 0.024-0.072 0.058-0.074s0.065 0.026 0.068 0.065z"></path>
<path d="M328.279 274.496c0.002 0.038-0.024 0.072-0.058 0.074s-0.065-0.026-0.068-0.065c-0.002-0.038 0.024-0.072 0.058-0.074s0.065 0.026 0.068 0.065z"></path>
<path d="M331.925 258.101c0.002 0.038-0.024 0.072-0.058 0.074s-0.065-0.026-0.068-0.065c-0.002-0.038 0.024-0.072 0.058-0.074s0.065 0.026 0.068 0.065z"></path>
<path d="M341.596 264.874c0.002 0.038-0.024 0.072-0.058 0.074s-0.065-0.026-0.068-0.065c-0.002-0.038 0.024-0.072 0.058-0.074s0.065 0.026 0.068 0.065z"></path>
<path d="M350.688 263.087c0.002 0.038-0.024 0.072-0.058 0.074s-0.065-0.026-0.068-0.065c-0.002-0.038 0.024-0.072 0.058-0.074s0.065 0.026 0.068 0.065z"></path>
<path d="M348.505 267.195c0.002 0.038-0.024 0.072-0.058 0.074s-0.065-0.026-0.068-0.065c-0.002-0.038 0.024-0.072 0.058-0.074s0.065 0.026 0.068 0.065z"></path>
<path d="M341.752 277.25c0.002 0.038-0.024 0.072-0.058 0.074s-0.065-0.026-0.068-0.065c-0.002-0.038 0.024-0.072 0.058-0.074s0.065 0.026 0.068 0.065z"></path>
<path d="M378.377 267.925c0.002 0.038-0.024 0.072-0.058 0.074s-0.065-0.026-0.068-0.065c-0.002-0.038 0.024-0.072 0.058-0.074s0.065 0.026 0.068 0.065z"></path>
<path d="M367.272 276.067c0.002 0.038-0.024 0.072-0.058 0.074s-0.065-0.026-0.068-0.065c-0.002-0.038 0.024-0.072 0.058-0.074s0.065 0.026 0.068 0.065z"></path>
<path d="M385.166 265.615c0.002 0.038-0.024 0.072-0.058 0.074s-0.065-0.026-0.068-0.065c-0.002-0.038 0.024-0.072 0.058-0.074s0.065 0.026 0.068 0.065z"></path>
<path d="M379.587 259.648c0.002 0.038-0.024 0.072-0.058 0.074s-0.065-0.026-0.068-0.065c-0.002-0.038 0.024-0.072 0.058-0.074s0.065 0.026 0.068 0.065z"></path>
<path d="M370.947 253.482c0.002 0.038-0.024 0.071-0.058 0.073s-0.065-0.026-0.068-0.065c-0.002-0.038 0.024-0.071 0.058-0.073s0.065 0.026 0.068 0.065z"></path>
<path d="M370.145 254.619c0.002 0.038-0.024 0.071-0.058 0.073s-0.065-0.026-0.068-0.065c-0.002-0.038 0.024-0.071 0.058-0.073s0.065 0.026 0.068 0.065z"></path>
<path d="M387.506 250.907c0.002 0.038-0.024 0.071-0.058 0.073s-0.065-0.026-0.068-0.065c-0.002-0.038 0.024-0.071 0.058-0.073s0.065 0.026 0.068 0.065z"></path>
<path d="M384.455 256.384c0.002 0.038-0.024 0.072-0.058 0.074s-0.065-0.026-0.068-0.065c-0.002-0.038 0.024-0.072 0.058-0.074s0.065 0.026 0.068 0.065z"></path>
<path d="M385.89 270.75c0.002 0.038-0.024 0.072-0.058 0.074s-0.065-0.026-0.068-0.065c-0.002-0.038 0.024-0.072 0.058-0.074s0.065 0.026 0.068 0.065z"></path>
<path d="M342.049 182.471c0 0.1-0.081 0.181-0.182 0.181s-0.182-0.081-0.182-0.181c0-0.1 0.081-0.181 0.182-0.181s0.182 0.081 0.182 0.181z"></path>
<path d="M329.563 217.999c0 0.1-0.081 0.181-0.182 0.181s-0.182-0.081-0.182-0.181c0-0.1 0.081-0.181 0.182-0.181s0.182 0.081 0.182 0.181z"></path>
<path d="M324.927 224.655c0 0.1-0.081 0.181-0.182 0.181s-0.182-0.081-0.182-0.181c0-0.1 0.081-0.181 0.182-0.181s0.182 0.081 0.182 0.181z"></path>
<path d="M316.813 222.529c0 0.1-0.081 0.181-0.182 0.181s-0.182-0.081-0.182-0.181c0-0.1 0.081-0.181 0.182-0.181s0.182 0.081 0.182 0.181z"></path>
<path d="M287.151 230.685c0 0.1-0.081 0.181-0.182 0.181s-0.182-0.081-0.182-0.181c0-0.1 0.081-0.181 0.182-0.181s0.182 0.081 0.182 0.181z"></path>
<path d="M280.8 236.048c0 0.1-0.081 0.181-0.182 0.181s-0.182-0.081-0.182-0.181c0-0.1 0.081-0.181 0.182-0.181s0.182 0.081 0.182 0.181z"></path>
<path d="M329.297 227.299c0 0.1-0.081 0.181-0.182 0.181s-0.182-0.081-0.182-0.181c0-0.1 0.081-0.181 0.182-0.181s0.182 0.081 0.182 0.181z"></path>
<path d="M333.885 218.757c0 0.1-0.081 0.181-0.182 0.181s-0.182-0.081-0.182-0.181c0-0.1 0.081-0.181 0.182-0.181s0.182 0.081 0.182 0.181z"></path>
<path d="M343.168 209.742c0 0.1-0.081 0.181-0.182 0.181s-0.182-0.081-0.182-0.181c0-0.1 0.081-0.181 0.182-0.181s0.182 0.081 0.182 0.181z"></path>
<path d="M347.248 217.306c0 0.1-0.081 0.181-0.182 0.181s-0.182-0.081-0.182-0.181c0-0.1 0.081-0.181 0.182-0.181s0.182 0.081 0.182 0.181z"></path>
<path d="M339.115 238.648c0 0.1-0.081 0.181-0.182 0.181s-0.182-0.081-0.182-0.181c0-0.1 0.081-0.181 0.182-0.181s0.182 0.081 0.182 0.181z"></path>
<path d="M335.644 244.444c0.002 0.038-0.024 0.071-0.058 0.073s-0.065-0.026-0.068-0.065c-0.002-0.038 0.024-0.071 0.058-0.073s0.065 0.026 0.068 0.065z"></path>
<path d="M329.317 234.844c0.002 0.038-0.024 0.071-0.058 0.073s-0.065-0.026-0.068-0.065c-0.002-0.038 0.024-0.071 0.058-0.073s0.065 0.026 0.068 0.065z"></path>
<path d="M325.692 229.909c0.002 0.038-0.024 0.071-0.058 0.073s-0.065-0.026-0.068-0.065c-0.002-0.038 0.024-0.071 0.058-0.073s0.065 0.026 0.068 0.065z"></path>
<path d="M296.778 235.439c0.002 0.038-0.024 0.071-0.058 0.073s-0.065-0.026-0.068-0.065c-0.002-0.038 0.024-0.071 0.058-0.073s0.065 0.026 0.068 0.065z"></path>
<path d="M279.049 229.103c0.002 0.038-0.024 0.071-0.058 0.073s-0.065-0.026-0.068-0.065c-0.002-0.038 0.024-0.071 0.058-0.073s0.065 0.026 0.068 0.065z"></path>
<path d="M286.151 225.768c0.002 0.038-0.024 0.071-0.058 0.073s-0.065-0.026-0.068-0.065c-0.002-0.038 0.024-0.071 0.058-0.073s0.065 0.026 0.068 0.065z"></path>
<path d="M283.028 246.544c0.002 0.038-0.024 0.071-0.058 0.073s-0.065-0.026-0.068-0.065c-0.002-0.038 0.024-0.071 0.058-0.073s0.065 0.026 0.068 0.065z"></path>
<path d="M344.418 188.641c0.002 0.038-0.024 0.071-0.058 0.073s-0.065-0.026-0.068-0.065c-0.002-0.038 0.024-0.071 0.058-0.073s0.065 0.026 0.068 0.065z"></path>
<path d="M339.986 188.366c0.002 0.038-0.024 0.071-0.058 0.073s-0.065-0.026-0.068-0.065c-0.002-0.038 0.024-0.071 0.058-0.073s0.065 0.026 0.068 0.065z"></path>
<path d="M334.58 194.644c0.002 0.038-0.024 0.071-0.058 0.073s-0.065-0.026-0.068-0.065c-0.002-0.038 0.024-0.071 0.058-0.073s0.065 0.026 0.068 0.065z"></path>
<path d="M337.87 197.42c0.002 0.038-0.024 0.071-0.058 0.073s-0.065-0.026-0.068-0.065c-0.002-0.038 0.024-0.071 0.058-0.073s0.065 0.026 0.068 0.065z"></path>
<path d="M346.839 198.657c0.002 0.038-0.024 0.071-0.058 0.073s-0.065-0.026-0.068-0.065c-0.002-0.038 0.024-0.071 0.058-0.073s0.065 0.026 0.068 0.065z"></path>
<path d="M349.703 192.899c0.002 0.038-0.024 0.071-0.058 0.073s-0.065-0.026-0.068-0.065c-0.002-0.038 0.024-0.071 0.058-0.073s0.065 0.026 0.068 0.065z"></path>
<path d="M292.427 247.002c0.002 0.038-0.024 0.071-0.058 0.073s-0.065-0.026-0.068-0.065c-0.002-0.038 0.024-0.071 0.058-0.073s0.065 0.026 0.068 0.065z"></path>
<path d="M322.531 244.211c0.002 0.038-0.024 0.071-0.058 0.073s-0.065-0.026-0.068-0.065c-0.002-0.038 0.024-0.071 0.058-0.073s0.065 0.026 0.068 0.065z"></path>
<path d="M296.721 242.937c0.002 0.038-0.024 0.071-0.058 0.073s-0.065-0.026-0.068-0.065c-0.002-0.038 0.024-0.071 0.058-0.073s0.065 0.026 0.068 0.065z"></path>
<path d="M307.202 241.644c0.002 0.038-0.024 0.071-0.058 0.073s-0.065-0.026-0.068-0.065c-0.002-0.038 0.024-0.071 0.058-0.073s0.065 0.026 0.068 0.065z"></path>
<path d="M300.366 226.542c0.002 0.038-0.024 0.071-0.058 0.073s-0.065-0.026-0.068-0.065c-0.002-0.038 0.024-0.071 0.058-0.073s0.065 0.026 0.068 0.065z"></path>
<path d="M310.037 233.315c0.002 0.038-0.024 0.071-0.058 0.073s-0.065-0.026-0.068-0.065c-0.002-0.038 0.024-0.071 0.058-0.073s0.065 0.026 0.068 0.065z"></path>
<path d="M319.129 231.528c0.002 0.038-0.024 0.071-0.058 0.073s-0.065-0.026-0.068-0.065c-0.002-0.038 0.024-0.071 0.058-0.073s0.065 0.026 0.068 0.065z"></path>
<path d="M316.946 235.637c0.002 0.038-0.024 0.071-0.058 0.073s-0.065-0.026-0.068-0.065c-0.002-0.038 0.024-0.071 0.058-0.073s0.065 0.026 0.068 0.065z"></path>
<path d="M310.193 245.691c0.002 0.038-0.024 0.071-0.058 0.073s-0.065-0.026-0.068-0.065c-0.002-0.038 0.024-0.071 0.058-0.073s0.065 0.026 0.068 0.065z"></path>
<path d="M346.817 236.366c0.002 0.038-0.024 0.071-0.058 0.073s-0.065-0.026-0.068-0.065c-0.002-0.038 0.024-0.071 0.058-0.073s0.065 0.026 0.068 0.065z"></path>
<path d="M335.714 244.508c0.002 0.038-0.024 0.071-0.058 0.073s-0.065-0.026-0.068-0.065c-0.002-0.038 0.024-0.071 0.058-0.073s0.065 0.026 0.068 0.065z"></path>
<path d="M353.606 234.055c0.002 0.038-0.024 0.071-0.058 0.073s-0.065-0.026-0.068-0.065c-0.002-0.038 0.024-0.071 0.058-0.073s0.065 0.026 0.068 0.065z"></path>
<path d="M348.027 228.089c0.002 0.038-0.024 0.071-0.058 0.073s-0.065-0.026-0.068-0.065c-0.002-0.038 0.024-0.071 0.058-0.073s0.065 0.026 0.068 0.065z"></path>
<path d="M339.389 221.923c0.002 0.038-0.024 0.071-0.058 0.073s-0.065-0.026-0.068-0.065c-0.002-0.038 0.024-0.071 0.058-0.073s0.065 0.026 0.068 0.065z"></path>
<path d="M338.586 223.061c0.002 0.038-0.024 0.071-0.058 0.073s-0.065-0.026-0.068-0.065c-0.002-0.038 0.024-0.071 0.058-0.073s0.065 0.026 0.068 0.065z"></path>
<path d="M355.947 219.349c0.002 0.038-0.024 0.071-0.058 0.073s-0.065-0.026-0.068-0.065c-0.002-0.038 0.024-0.071 0.058-0.073s0.065 0.026 0.068 0.065z"></path>
<path d="M352.897 224.825c0.002 0.038-0.024 0.071-0.058 0.073s-0.065-0.026-0.068-0.065c-0.002-0.038 0.024-0.071 0.058-0.073s0.065 0.026 0.068 0.065z"></path>
<path d="M354.334 239.192c0.002 0.038-0.024 0.071-0.058 0.073s-0.065-0.026-0.068-0.065c-0.002-0.038 0.024-0.071 0.058-0.073s0.065 0.026 0.068 0.065z"></path>
<path d="M386.47 285.642c0 0.1-0.081 0.182-0.182 0.182s-0.182-0.081-0.182-0.182c0-0.1 0.081-0.182 0.182-0.182s0.182 0.081 0.182 0.182z"></path>
<path d="M307.711 290.521c0 0.1-0.081 0.182-0.182 0.182s-0.182-0.081-0.182-0.182c0-0.1 0.081-0.182 0.182-0.182s0.182 0.081 0.182 0.182z"></path>
<path d="M311.341 284.969c0 0.038-0.029 0.070-0.063 0.070s-0.063-0.031-0.063-0.070c0-0.038 0.029-0.070 0.063-0.070s0.063 0.031 0.063 0.070z"></path>
<path d="M358.211 290.702c0 0.038-0.029 0.070-0.063 0.070s-0.063-0.031-0.063-0.070c0-0.038 0.029-0.070 0.063-0.070s0.063 0.031 0.063 0.070z"></path>
<path d="M363.977 286.545c0 0.038-0.029 0.070-0.063 0.070s-0.063-0.031-0.063-0.070c0-0.038 0.029-0.070 0.063-0.070s0.063 0.031 0.063 0.070z"></path>
<path d="M385.656 288.773c0 0.038-0.029 0.070-0.063 0.070s-0.063-0.031-0.063-0.070c0-0.038 0.029-0.070 0.063-0.070s0.063 0.031 0.063 0.070z"></path>
<path d="M371.479 290.843c0 0.038-0.029 0.070-0.063 0.070s-0.063-0.031-0.063-0.070c0-0.038 0.029-0.070 0.063-0.070s0.063 0.031 0.063 0.070z"></path>
<path d="M354.632 285.43c0 0.038-0.029 0.070-0.063 0.070s-0.063-0.031-0.063-0.070c0-0.038 0.029-0.070 0.063-0.070s0.063 0.031 0.063 0.070z"></path>
<path d="M324.406 286.115c0 0.038-0.029 0.070-0.063 0.070s-0.063-0.031-0.063-0.070c0-0.038 0.029-0.070 0.063-0.070s0.063 0.031 0.063 0.070z"></path>
<path d="M339.52 289.743c0 0.038-0.029 0.070-0.063 0.070s-0.063-0.031-0.063-0.070c0-0.038 0.029-0.070 0.063-0.070s0.063 0.031 0.063 0.070z"></path>
<path d="M350.065 289.186c0 0.038-0.029 0.070-0.063 0.070s-0.063-0.031-0.063-0.070c0-0.038 0.029-0.070 0.063-0.070s0.063 0.031 0.063 0.070z"></path>
<path d="M336.819 285.499c0 0.038-0.029 0.070-0.063 0.070s-0.063-0.031-0.063-0.070c0-0.038 0.029-0.070 0.063-0.070s0.063 0.031 0.063 0.070z"></path>
<path d="M311.277 284.899c0 0.038-0.029 0.070-0.063 0.070s-0.063-0.031-0.063-0.070c0-0.038 0.029-0.070 0.063-0.070s0.063 0.031 0.063 0.070z"></path>
<path d="M292.332 288.902c0 0.038-0.029 0.070-0.063 0.070s-0.063-0.031-0.063-0.070c0-0.038 0.029-0.070 0.063-0.070s0.063 0.031 0.063 0.070z"></path>
<path d="M354.885 283.009c0 0.1-0.081 0.182-0.182 0.182s-0.182-0.081-0.182-0.182c0-0.1 0.081-0.182 0.182-0.182s0.182 0.081 0.182 0.182z"></path>
<path d="M357.253 289.177c0.002 0.038-0.024 0.072-0.058 0.074s-0.065-0.026-0.068-0.065c-0.002-0.038 0.024-0.072 0.058-0.074s0.065 0.026 0.068 0.065z"></path>
<path d="M352.821 288.901c0.002 0.038-0.024 0.072-0.058 0.074s-0.065-0.026-0.068-0.065c-0.002-0.038 0.024-0.072 0.058-0.074s0.065 0.026 0.068 0.065z"></path>
</svg>
