<!-- Generated by IcoMoon.io -->
<svg version="1.1" xmlns="http://www.w3.org/2000/svg" width="664" height="512" viewBox="0 0 664 512">
<title></title>
<g id="icomoon-ignore">
</g>
<path fill="#f00" d="M195.137 45.064c0 0.471-0.382 0.853-0.858 0.853s-0.858-0.382-0.858-0.853c0-0.471 0.382-0.853 0.858-0.853s0.858 0.382 0.858 0.853z"></path>
<path fill="#f00" d="M219.12 15.289c0 0.472-0.382 0.853-0.858 0.853s-0.858-0.382-0.858-0.853c0-0.472 0.382-0.853 0.858-0.853s0.858 0.382 0.858 0.853z"></path>
<path fill="#f00" d="M256.574 27.963c0 0.471-0.382 0.853-0.858 0.853s-0.858-0.382-0.858-0.853c0-0.471 0.382-0.853 0.858-0.853s0.858 0.382 0.858 0.853z"></path>
<path fill="#f00" d="M395.6-19.742c0 0.471-0.382 0.853-0.858 0.853s-0.858-0.382-0.858-0.853c0-0.471 0.382-0.853 0.858-0.853s0.858 0.382 0.858 0.853z"></path>
<path fill="#f00" d="M398.739-0.643c0 0.471-0.382 0.853-0.858 0.853s-0.858-0.382-0.858-0.853c0-0.472 0.382-0.853 0.858-0.853s0.858 0.382 0.858 0.853z"></path>
<path fill="#f00" d="M432.074-8.93c0 0.472-0.382 0.853-0.858 0.853s-0.858-0.382-0.858-0.853c0-0.472 0.382-0.853 0.858-0.853s0.858 0.382 0.858 0.853z"></path>
<path fill="#f00" d="M466.822-5.282c0 0.471-0.382 0.853-0.858 0.853s-0.858-0.382-0.858-0.853c0-0.471 0.382-0.853 0.858-0.853s0.858 0.382 0.858 0.853z"></path>
<path fill="#f00" d="M487.698 4.957c0 0.471-0.382 0.853-0.858 0.853s-0.858-0.382-0.858-0.853c0-0.471 0.382-0.853 0.858-0.853s0.858 0.382 0.858 0.853z"></path>
<path fill="#f00" d="M499.967 22.736c0 0.471-0.382 0.853-0.858 0.853s-0.858-0.382-0.858-0.853c0-0.471 0.382-0.853 0.858-0.853s0.858 0.382 0.858 0.853z"></path>
<path fill="#f00" d="M528.121 58.172c0 0.471-0.382 0.853-0.858 0.853s-0.858-0.382-0.858-0.853c0-0.471 0.382-0.853 0.858-0.853s0.858 0.382 0.858 0.853z"></path>
<path fill="#f00" d="M528.258-78.167c0 0.472-0.382 0.853-0.858 0.853s-0.858-0.382-0.858-0.853c0-0.472 0.382-0.853 0.858-0.853s0.858 0.382 0.858 0.853z"></path>
<path fill="#f00" d="M430.363-23.777c0 0.471-0.382 0.853-0.858 0.853s-0.858-0.382-0.858-0.853c0-0.471 0.382-0.853 0.858-0.853s0.858 0.382 0.858 0.853z"></path>
<path fill="#f00" d="M199.451 1.412c0 0.472-0.382 0.853-0.858 0.853s-0.858-0.382-0.858-0.853c0-0.472 0.382-0.853 0.858-0.853s0.858 0.382 0.858 0.853z"></path>
<path fill="#f00" d="M175.063 40.077c0 0.471-0.382 0.853-0.858 0.853s-0.858-0.382-0.858-0.853c0-0.471 0.382-0.853 0.858-0.853s0.858 0.382 0.858 0.853z"></path>
<path fill="#f00" d="M128.455 79.416c0 0.472-0.382 0.853-0.858 0.853s-0.858-0.382-0.858-0.853c0-0.472 0.382-0.853 0.858-0.853s0.858 0.382 0.858 0.853z"></path>
<path fill="#f00" d="M111.755 42.505c0 0.471-0.382 0.853-0.858 0.853s-0.858-0.382-0.858-0.853c0-0.471 0.382-0.853 0.858-0.853s0.858 0.382 0.858 0.853z"></path>
<path fill="#f00" d="M157.010-55.169c0 0.471-0.382 0.853-0.858 0.853s-0.858-0.382-0.858-0.853c0-0.471 0.382-0.853 0.858-0.853s0.858 0.382 0.858 0.853z"></path>
<path fill="#f00" d="M174.125-81.339c0 0.179-0.137 0.33-0.297 0.33s-0.297-0.146-0.297-0.33c0-0.179 0.137-0.33 0.297-0.33s0.297 0.146 0.297 0.33z"></path>
<path fill="#f00" d="M200.714-34.109c0 0.179-0.137 0.33-0.297 0.33s-0.297-0.146-0.297-0.33c0-0.179 0.137-0.33 0.297-0.33s0.297 0.146 0.297 0.33z"></path>
<path fill="#f00" d="M216.145-9.726c0 0.179-0.137 0.33-0.297 0.33s-0.297-0.146-0.297-0.33c0-0.179 0.137-0.33 0.297-0.33s0.297 0.146 0.297 0.33z"></path>
<path fill="#f00" d="M353.923-26.224c0 0.179-0.137 0.33-0.297 0.33s-0.297-0.146-0.297-0.33c0-0.179 0.137-0.33 0.297-0.33s0.297 0.146 0.297 0.33z"></path>
<path fill="#f00" d="M394.186-12.418c0 0.179-0.137 0.33-0.297 0.33s-0.297-0.146-0.297-0.33c0-0.179 0.137-0.33 0.297-0.33s0.297 0.146 0.297 0.33z"></path>
<path fill="#f00" d="M395.043-54.307c0 0.179-0.137 0.33-0.297 0.33s-0.297-0.146-0.297-0.33c0-0.179 0.137-0.33 0.297-0.33s0.297 0.146 0.297 0.33z"></path>
<path fill="#f00" d="M435.199 9.406c0 0.179-0.137 0.33-0.297 0.33s-0.297-0.146-0.297-0.33c0-0.179 0.137-0.33 0.297-0.33s0.297 0.146 0.297 0.33z"></path>
<path fill="#f00" d="M432.38-12.748c0 0.179-0.137 0.33-0.297 0.33s-0.297-0.146-0.297-0.33c0-0.179 0.137-0.33 0.297-0.33s0.297 0.146 0.297 0.33z"></path>
<path fill="#f00" d="M400.709 22.736c0 0.179-0.137 0.33-0.297 0.33s-0.297-0.146-0.297-0.33c0-0.179 0.137-0.33 0.297-0.33s0.297 0.146 0.297 0.33z"></path>
<path fill="#f00" d="M422.236-73.91c0 0.179-0.137 0.33-0.297 0.33s-0.297-0.146-0.297-0.33c0-0.179 0.137-0.33 0.297-0.33s0.297 0.146 0.297 0.33z"></path>
<path fill="#f00" d="M570.458 6.139c0 0.179-0.136 0.33-0.297 0.33s-0.297-0.146-0.297-0.33c0-0.179 0.136-0.33 0.297-0.33s0.297 0.146 0.297 0.33z"></path>
<path fill="#f00" d="M509.356 14.105c0 0.179-0.137 0.33-0.297 0.33s-0.297-0.146-0.297-0.33c0-0.179 0.137-0.33 0.297-0.33s0.297 0.146 0.297 0.33z"></path>
<path fill="#f00" d="M532.505-15.509c0 0.179-0.136 0.33-0.297 0.33s-0.297-0.146-0.297-0.33c0-0.179 0.136-0.33 0.297-0.33s0.297 0.146 0.297 0.33z"></path>
<path fill="#f00" d="M553.245-12.748c0 0.179-0.136 0.33-0.297 0.33s-0.297-0.146-0.297-0.33c0-0.179 0.136-0.33 0.297-0.33s0.297 0.146 0.297 0.33z"></path>
<path fill="#f00" d="M580.729-40.501c0 0.179-0.136 0.33-0.297 0.33s-0.297-0.146-0.297-0.33c0-0.179 0.136-0.33 0.297-0.33s0.297 0.146 0.297 0.33z"></path>
<path fill="#f00" d="M566.178-54.642c0 0.179-0.136 0.33-0.297 0.33s-0.297-0.146-0.297-0.33c0-0.179 0.136-0.33 0.297-0.33s0.297 0.146 0.297 0.33z"></path>
<path fill="#f00" d="M524.417-63.404c0 0.179-0.136 0.33-0.297 0.33s-0.297-0.146-0.297-0.33c0-0.179 0.136-0.33 0.297-0.33s0.297 0.146 0.297 0.33z"></path>
<path fill="#f00" d="M509.060-37.272c0 0.179-0.137 0.33-0.297 0.33s-0.297-0.146-0.297-0.33c0-0.179 0.137-0.33 0.297-0.33s0.297 0.146 0.297 0.33z"></path>
<path fill="#f00" d="M457.587-53.652c0 0.179-0.137 0.33-0.297 0.33s-0.297-0.146-0.297-0.33c0-0.179 0.137-0.33 0.297-0.33s0.297 0.146 0.297 0.33z"></path>
<path fill="#f00" d="M472.921-25.893c0 0.179-0.137 0.33-0.297 0.33s-0.297-0.146-0.297-0.33c0-0.179 0.137-0.33 0.297-0.33s0.297 0.146 0.297 0.33z"></path>
<path fill="#f00" d="M378.174-79.166c0 0.179-0.137 0.33-0.297 0.33s-0.297-0.146-0.297-0.33c0-0.179 0.137-0.33 0.297-0.33s0.297 0.146 0.297 0.33z"></path>
<path fill="#f00" d="M235.707-75.933c0 0.179-0.137 0.33-0.297 0.33s-0.297-0.146-0.297-0.33c0-0.179 0.137-0.33 0.297-0.33s0.297 0.146 0.297 0.33z"></path>
<path fill="#f00" d="M306.947-58.832c0 0.179-0.137 0.33-0.297 0.33s-0.297-0.146-0.297-0.33c0-0.179 0.137-0.33 0.297-0.33s0.297 0.146 0.297 0.33z"></path>
<path fill="#f00" d="M356.652-61.462c0 0.179-0.137 0.33-0.297 0.33s-0.297-0.146-0.297-0.33c0-0.179 0.137-0.33 0.297-0.33s0.297 0.146 0.297 0.33z"></path>
<path fill="#f00" d="M334.126 14.431c0 0.179-0.137 0.33-0.297 0.33s-0.297-0.146-0.297-0.33c0-0.179 0.137-0.33 0.297-0.33s0.297 0.146 0.297 0.33z"></path>
<path fill="#f00" d="M433.408 57.31c0 0.179-0.137 0.33-0.297 0.33s-0.297-0.146-0.297-0.33c0-0.179 0.137-0.33 0.297-0.33s0.297 0.146 0.297 0.33z"></path>
<path fill="#f00" d="M460.228 58.172c0 0.179-0.137 0.33-0.297 0.33s-0.297-0.146-0.297-0.33c0-0.179 0.137-0.33 0.297-0.33s0.297 0.146 0.297 0.33z"></path>
<path fill="#f00" d="M290.879-20.596c0 0.179-0.137 0.33-0.297 0.33s-0.297-0.146-0.297-0.33c0-0.179 0.137-0.33 0.297-0.33s0.297 0.146 0.297 0.33z"></path>
<path fill="#f00" d="M247.529-15.184c0 0.179-0.137 0.33-0.297 0.33s-0.297-0.146-0.297-0.33c0-0.179 0.137-0.33 0.297-0.33s0.297 0.146 0.297 0.33z"></path>
<path fill="#f00" d="M259.152-33.779c0 0.179-0.137 0.33-0.297 0.33s-0.297-0.146-0.297-0.33c0-0.179 0.137-0.33 0.297-0.33s0.297 0.146 0.297 0.33z"></path>
<path fill="#f00" d="M301.272 30.311c0 0.179-0.137 0.33-0.297 0.33s-0.297-0.146-0.297-0.33c0-0.179 0.137-0.33 0.297-0.33s0.297 0.146 0.297 0.33z"></path>
<path fill="#f00" d="M283.748 71.040c0 0.179-0.137 0.33-0.297 0.33s-0.297-0.146-0.297-0.33c0-0.179 0.137-0.33 0.297-0.33s0.297 0.146 0.297 0.33z"></path>
<path fill="#f00" d="M227.312 73.614c0 0.179-0.137 0.33-0.297 0.33s-0.297-0.146-0.297-0.33c0-0.179 0.137-0.33 0.297-0.33s0.297 0.146 0.297 0.33z"></path>
<path fill="#f00" d="M294.212-78.836c0 0.179-0.137 0.33-0.297 0.33s-0.297-0.146-0.297-0.33c0-0.179 0.137-0.33 0.297-0.33s0.297 0.146 0.297 0.33z"></path>
<path fill="#f00" d="M118.938-47.038c0 0.179-0.136 0.33-0.297 0.33s-0.297-0.146-0.297-0.33c0-0.179 0.136-0.33 0.297-0.33s0.297 0.146 0.297 0.33z"></path>
<path fill="#f00" d="M173.823-81.665c0 0.179-0.137 0.33-0.297 0.33s-0.297-0.146-0.297-0.33c0-0.179 0.137-0.33 0.297-0.33s0.297 0.146 0.297 0.33z"></path>
<path fill="#f00" d="M86.245-38.398c0 0.179-0.136 0.33-0.297 0.33s-0.297-0.146-0.297-0.33c0-0.179 0.136-0.33 0.297-0.33s0.297 0.146 0.297 0.33z"></path>
<path fill="#f00" d="M110.525-8.52c0 0.179-0.136 0.33-0.297 0.33s-0.297-0.146-0.297-0.33c0-0.179 0.136-0.33 0.297-0.33s0.297 0.146 0.297 0.33z"></path>
<path fill="#f00" d="M149.114 23.306c0 0.179-0.137 0.33-0.297 0.33s-0.297-0.146-0.297-0.33c0-0.179 0.137-0.33 0.297-0.33s0.297 0.146 0.297 0.33z"></path>
<path fill="#f00" d="M153.262 18.235c0 0.179-0.137 0.33-0.297 0.33s-0.297-0.146-0.297-0.33c0-0.179 0.137-0.33 0.297-0.33s0.297 0.146 0.297 0.33z"></path>
<path fill="#f00" d="M70.412 29.98c0 0.179-0.136 0.33-0.297 0.33s-0.297-0.146-0.297-0.33c0-0.179 0.136-0.33 0.297-0.33s0.297 0.146 0.297 0.33z"></path>
<path fill="#f00" d="M86.556 5.23c0 0.179-0.136 0.33-0.297 0.33s-0.297-0.146-0.297-0.33c0-0.179 0.136-0.33 0.297-0.33s0.297 0.146 0.297 0.33z"></path>
<path fill="#f00" d="M84.525-62.801c0 0.179-0.136 0.33-0.297 0.33s-0.297-0.146-0.297-0.33c0-0.179 0.136-0.33 0.297-0.33s0.297 0.146 0.297 0.33z"></path>
<path fill="#f00" d="M469.268 225.636c0 0.471-0.382 0.853-0.858 0.853s-0.858-0.382-0.858-0.853c0-0.471 0.382-0.853 0.858-0.853s0.858 0.382 0.858 0.853z"></path>
<path fill="#f00" d="M447.416 257.004c0 0.471-0.382 0.858-0.858 0.858s-0.858-0.382-0.858-0.858c0-0.471 0.382-0.858 0.858-0.858s0.858 0.382 0.858 0.858z"></path>
<path fill="#f00" d="M409.166 246.983c0 0.471-0.382 0.853-0.858 0.853s-0.858-0.382-0.858-0.853c0-0.471 0.382-0.853 0.858-0.853s0.858 0.382 0.858 0.853z"></path>
<path fill="#f00" d="M273.807 304.257c0 0.471-0.382 0.858-0.858 0.858s-0.858-0.382-0.858-0.858c0-0.471 0.382-0.858 0.858-0.858s0.858 0.382 0.858 0.858z"></path>
<path fill="#f00" d="M269.352 285.432c0 0.471-0.382 0.858-0.858 0.858s-0.858-0.382-0.858-0.858c0-0.471 0.382-0.858 0.858-0.858s0.858 0.382 0.858 0.858z"></path>
<path fill="#f00" d="M236.673 296.018c0 0.471-0.382 0.858-0.858 0.858s-0.858-0.382-0.858-0.858c0-0.471 0.382-0.858 0.858-0.858s0.858 0.382 0.858 0.858z"></path>
<path fill="#f00" d="M201.75 294.807c0 0.471-0.382 0.858-0.858 0.858s-0.858-0.382-0.858-0.858c0-0.471 0.382-0.858 0.858-0.858s0.858 0.382 0.858 0.858z"></path>
<path fill="#f00" d="M180.205 286.049c0 0.471-0.382 0.858-0.858 0.858s-0.858-0.382-0.858-0.858c0-0.471 0.382-0.858 0.858-0.858s0.858 0.382 0.858 0.858z"></path>
<path fill="#f00" d="M166.743 269.165c0 0.471-0.382 0.858-0.858 0.858s-0.858-0.382-0.858-0.858c0-0.471 0.382-0.858 0.858-0.858s0.858 0.382 0.858 0.858z"></path>
<path fill="#f00" d="M136.175 235.779c0 0.471-0.382 0.853-0.858 0.853s-0.858-0.382-0.858-0.853c0-0.471 0.382-0.853 0.858-0.853s0.858 0.382 0.858 0.853z"></path>
<path fill="#f00" d="M145.555 371.803c0 0.471-0.382 0.858-0.858 0.858s-0.858-0.382-0.858-0.858c0-0.471 0.382-0.858 0.858-0.858s0.858 0.382 0.858 0.858z"></path>
<path fill="#f00" d="M239.417 310.715c0 0.471-0.382 0.858-0.858 0.858s-0.858-0.382-0.858-0.858c0-0.471 0.382-0.858 0.858-0.858s0.858 0.382 0.858 0.858z"></path>
<path fill="#f00" d="M468.014 269.481c0 0.471-0.382 0.858-0.858 0.858s-0.858-0.382-0.858-0.858c0-0.471 0.382-0.858 0.858-0.858s0.858 0.382 0.858 0.858z"></path>
<path fill="#f00" d="M489.635 229.203c0 0.471-0.382 0.853-0.858 0.853s-0.858-0.382-0.858-0.853c0-0.471 0.382-0.853 0.858-0.853s0.858 0.382 0.858 0.853z"></path>
<path fill="#f00" d="M533.391 186.711c0 0.471-0.382 0.853-0.858 0.853s-0.858-0.382-0.858-0.853c0-0.471 0.382-0.853 0.858-0.853s0.858 0.382 0.858 0.853z"></path>
<path fill="#f00" d="M552.627 222.364c0 0.471-0.382 0.853-0.858 0.853s-0.858-0.382-0.858-0.853c0-0.471 0.382-0.853 0.858-0.853s0.858 0.382 0.858 0.853z"></path>
<path fill="#f00" d="M514.287 322.961c0 0.471-0.382 0.858-0.858 0.858s-0.858-0.382-0.858-0.858c0-0.471 0.382-0.858 0.858-0.858s0.858 0.382 0.858 0.858z"></path>
<path fill="#f00" d="M497.926 350.281c0.010 0.179-0.113 0.339-0.274 0.349s-0.307-0.123-0.32-0.307c-0.010-0.179 0.113-0.339 0.274-0.349s0.307 0.123 0.32 0.307z"></path>
<path fill="#f00" d="M468.113 305.021c0.010 0.179-0.113 0.339-0.274 0.349s-0.307-0.123-0.32-0.307c-0.010-0.179 0.113-0.339 0.274-0.349s0.307 0.123 0.32 0.307z"></path>
<path fill="#f00" d="M451.026 281.769c0.010 0.179-0.113 0.339-0.274 0.349s-0.307-0.123-0.32-0.307c-0.010-0.179 0.113-0.339 0.274-0.349s0.307 0.123 0.32 0.307z"></path>
<path fill="#f00" d="M314.725 307.839c0.010 0.179-0.113 0.339-0.274 0.349s-0.307-0.123-0.32-0.307c-0.010-0.179 0.113-0.339 0.274-0.349s0.307 0.123 0.32 0.307z"></path>
<path fill="#f00" d="M273.594 296.876c0.010 0.179-0.113 0.339-0.274 0.349s-0.307-0.123-0.32-0.307c-0.010-0.179 0.113-0.339 0.274-0.349s0.307 0.123 0.32 0.307z"></path>
<path fill="#f00" d="M275.663 338.723c0.010 0.179-0.113 0.339-0.274 0.349s-0.307-0.123-0.32-0.307c-0.010-0.179 0.113-0.339 0.274-0.349s0.307 0.123 0.32 0.307z"></path>
<path fill="#f00" d="M231.168 277.974c0.010 0.179-0.113 0.339-0.274 0.349s-0.306-0.123-0.321-0.307c-0.010-0.179 0.113-0.339 0.274-0.349s0.306 0.123 0.321 0.307z"></path>
<path fill="#f00" d="M235.518 299.869c0.010 0.179-0.113 0.339-0.274 0.349s-0.306-0.123-0.321-0.307c-0.010-0.179 0.113-0.339 0.274-0.349s0.306 0.123 0.321 0.307z"></path>
<path fill="#f00" d="M264.648 262.255c0.010 0.179-0.113 0.339-0.274 0.349s-0.307-0.123-0.32-0.307c-0.010-0.179 0.113-0.339 0.274-0.349s0.307 0.123 0.32 0.307z"></path>
<path fill="#f00" d="M249.923 360.174c0.010 0.179-0.113 0.339-0.274 0.349s-0.306-0.123-0.321-0.307c-0.010-0.179 0.113-0.339 0.274-0.349s0.306 0.123 0.321 0.307z"></path>
<path fill="#f00" d="M96.469 290.659c0.010 0.179-0.113 0.339-0.273 0.349s-0.306-0.123-0.32-0.307c-0.010-0.179 0.113-0.339 0.273-0.349s0.306 0.123 0.32 0.307z"></path>
<path fill="#f00" d="M156.85 278.455c0.010 0.179-0.113 0.339-0.274 0.349s-0.306-0.123-0.321-0.307c-0.010-0.179 0.113-0.339 0.274-0.349s0.306 0.123 0.321 0.307z"></path>
<path fill="#f00" d="M135.841 309.607c0.010 0.179-0.113 0.339-0.274 0.349s-0.306-0.123-0.321-0.307c-0.010-0.179 0.113-0.339 0.274-0.349s0.306 0.123 0.321 0.307z"></path>
<path fill="#f00" d="M114.951 308.306c0.010 0.179-0.113 0.339-0.273 0.349s-0.306-0.123-0.32-0.307c-0.010-0.179 0.113-0.339 0.273-0.349s0.306 0.123 0.32 0.307z"></path>
<path fill="#f00" d="M89.469 337.908c0.010 0.179-0.113 0.339-0.273 0.349s-0.306-0.123-0.32-0.307c-0.010-0.179 0.113-0.339 0.273-0.349s0.306 0.123 0.32 0.307z"></path>
<path fill="#f00" d="M104.977 350.992c0.010 0.179-0.113 0.339-0.273 0.349s-0.306-0.123-0.32-0.307c-0.010-0.179 0.113-0.339 0.273-0.349s0.306 0.123 0.32 0.307z"></path>
<path fill="#f00" d="M147.243 356.823c0.010 0.179-0.113 0.339-0.274 0.349s-0.306-0.123-0.321-0.307c-0.010-0.179 0.113-0.339 0.274-0.349s0.306 0.123 0.321 0.307z"></path>
<path fill="#f00" d="M160.752 329.673c0.010 0.179-0.113 0.339-0.274 0.349s-0.306-0.123-0.321-0.307c-0.010-0.179 0.113-0.339 0.274-0.349s0.306 0.123 0.321 0.307z"></path>
<path fill="#f00" d="M154.869 125.114c0.010 0.179-0.113 0.335-0.274 0.344s-0.306-0.123-0.321-0.306c-0.010-0.179 0.113-0.335 0.274-0.344s0.306 0.123 0.321 0.306z"></path>
<path fill="#f00" d="M124.005 166.504c0.010 0.179-0.113 0.334-0.273 0.344s-0.306-0.123-0.32-0.306c-0.010-0.179 0.113-0.334 0.273-0.344s0.306 0.123 0.32 0.306z"></path>
<path fill="#f00" d="M549.007 149.446c0 0.471-0.382 0.853-0.858 0.853s-0.858-0.382-0.858-0.853c0-0.471 0.382-0.853 0.858-0.853s0.858 0.382 0.858 0.853z"></path>
<path fill="#f00" d="M539.297 87.251c0.010 0.179-0.113 0.335-0.274 0.344s-0.307-0.123-0.321-0.306c-0.010-0.179 0.113-0.335 0.274-0.344s0.307 0.123 0.321 0.306z"></path>
<path fill="#f00" d="M518.397 85.954c0.010 0.179-0.113 0.335-0.274 0.344s-0.307-0.123-0.321-0.306c-0.010-0.179 0.113-0.335 0.274-0.344s0.307 0.123 0.321 0.306z"></path>
<path fill="#f00" d="M492.916 115.55c0.010 0.179-0.113 0.335-0.274 0.344s-0.307-0.123-0.32-0.306c-0.010-0.179 0.113-0.335 0.274-0.344s0.307 0.123 0.32 0.306z"></path>
<path fill="#f00" d="M508.423 128.631c0.010 0.179-0.113 0.334-0.274 0.344s-0.307-0.123-0.32-0.306c-0.010-0.179 0.113-0.334 0.274-0.344s0.307 0.123 0.32 0.306z"></path>
<path fill="#f00" d="M550.704 134.461c0.010 0.179-0.113 0.334-0.274 0.344s-0.307-0.123-0.321-0.306c-0.010-0.179 0.113-0.334 0.274-0.344s0.307 0.123 0.321 0.306z"></path>
<path fill="#f00" d="M564.189 107.326c0.010 0.179-0.113 0.335-0.274 0.344s-0.307-0.123-0.321-0.306c-0.010-0.179 0.113-0.335 0.274-0.344s0.307 0.123 0.321 0.306z"></path>
<path fill="#f00" d="M213.228 342.433c0.010 0.179-0.113 0.339-0.274 0.349s-0.306-0.123-0.321-0.307c-0.010-0.179 0.113-0.339 0.274-0.349s0.306 0.123 0.321 0.307z"></path>
<path fill="#f00" d="M196 315.81c0.010 0.179-0.113 0.339-0.274 0.349s-0.306-0.123-0.321-0.307c-0.010-0.179 0.113-0.339 0.274-0.349s0.306 0.123 0.321 0.307z"></path>
<path fill="#f00" d="M294.235 362.342c0.010 0.179-0.113 0.339-0.274 0.349s-0.307-0.123-0.32-0.307c-0.010-0.179 0.113-0.339 0.274-0.349s0.307 0.123 0.32 0.307z"></path>
<path fill="#f00" d="M436.123 349.182c0.010 0.179-0.113 0.339-0.274 0.349s-0.307-0.123-0.32-0.307c-0.010-0.179 0.113-0.339 0.274-0.349s0.307 0.123 0.32 0.307z"></path>
<path fill="#f00" d="M363.868 337.082c0.010 0.179-0.113 0.339-0.274 0.349s-0.307-0.123-0.32-0.307c-0.010-0.179 0.113-0.339 0.274-0.349s0.307 0.123 0.32 0.307z"></path>
<path fill="#f00" d="M314.461 343.182c0.010 0.179-0.113 0.339-0.274 0.349s-0.307-0.123-0.32-0.307c-0.010-0.179 0.113-0.339 0.274-0.349s0.307 0.123 0.32 0.307z"></path>
<path fill="#f00" d="M331.647 265.903c0.010 0.179-0.113 0.339-0.274 0.349s-0.307-0.123-0.32-0.307c-0.010-0.179 0.113-0.339 0.274-0.349s0.307 0.123 0.32 0.307z"></path>
<path fill="#f00" d="M377.231 297.828c0.010 0.179-0.113 0.339-0.274 0.349s-0.307-0.123-0.32-0.307c-0.010-0.179 0.113-0.339 0.274-0.349s0.307 0.123 0.32 0.307z"></path>
<path fill="#f00" d="M420.087 289.405c0.010 0.179-0.113 0.339-0.274 0.349s-0.307-0.123-0.32-0.307c-0.010-0.179 0.113-0.339 0.274-0.349s0.307 0.123 0.32 0.307z"></path>
<path fill="#f00" d="M409.797 308.768c0.010 0.179-0.113 0.339-0.274 0.349s-0.307-0.123-0.32-0.307c-0.010-0.179 0.113-0.339 0.274-0.349s0.307 0.123 0.32 0.307z"></path>
<path fill="#f00" d="M377.966 356.163c0.010 0.179-0.113 0.339-0.274 0.349s-0.307-0.123-0.32-0.307c-0.010-0.179 0.113-0.339 0.274-0.349s0.307 0.123 0.32 0.307z"></path>
<path fill="#f00" d="M550.6 312.209c0.010 0.179-0.113 0.339-0.274 0.349s-0.307-0.123-0.321-0.307c-0.010-0.179 0.113-0.339 0.274-0.349s0.307 0.123 0.321 0.307z"></path>
<path fill="#f00" d="M498.256 350.587c0.010 0.179-0.113 0.339-0.274 0.349s-0.307-0.123-0.32-0.307c-0.010-0.179 0.113-0.339 0.274-0.349s0.307 0.123 0.32 0.307z"></path>
<path fill="#f00" d="M582.601 301.321c0.010 0.179-0.113 0.339-0.274 0.349s-0.307-0.123-0.321-0.307c-0.010-0.179 0.113-0.339 0.274-0.349s0.307 0.123 0.321 0.307z"></path>
<path fill="#f00" d="M556.303 273.195c0.010 0.179-0.113 0.339-0.274 0.349s-0.307-0.123-0.321-0.307c-0.010-0.179 0.113-0.339 0.274-0.349s0.307 0.123 0.321 0.307z"></path>
<path fill="#f00" d="M515.578 244.131c0.010 0.179-0.113 0.334-0.274 0.344s-0.307-0.123-0.321-0.306c-0.010-0.179 0.113-0.334 0.274-0.344s0.307 0.123 0.321 0.306z"></path>
<path fill="#f00" d="M511.798 249.49c0.010 0.179-0.113 0.334-0.274 0.344s-0.307-0.123-0.32-0.306c-0.010-0.179 0.113-0.334 0.274-0.344s0.307 0.123 0.32 0.306z"></path>
<path fill="#f00" d="M593.63 231.994c0.010 0.179-0.113 0.334-0.274 0.344s-0.307-0.123-0.321-0.306c-0.010-0.179 0.113-0.334 0.274-0.344s0.307 0.123 0.321 0.306z"></path>
<path fill="#f00" d="M579.249 257.81c0.010 0.179-0.113 0.339-0.274 0.349s-0.307-0.123-0.321-0.307c-0.010-0.179 0.113-0.339 0.274-0.349s0.307 0.123 0.321 0.307z"></path>
<path fill="#f00" d="M586.013 325.525c0.010 0.179-0.113 0.339-0.274 0.349s-0.307-0.123-0.321-0.307c-0.010-0.179 0.113-0.339 0.274-0.349s0.307 0.123 0.321 0.307z"></path>
<path fill="#f00" d="M379.366-90.582c0 0.472-0.382 0.853-0.858 0.853s-0.858-0.382-0.858-0.853c0-0.472 0.382-0.853 0.858-0.853s0.858 0.382 0.858 0.853z"></path>
<path fill="#f00" d="M320.513 76.88c0 0.472-0.382 0.853-0.858 0.853s-0.858-0.382-0.858-0.853c0-0.472 0.382-0.853 0.858-0.853s0.858 0.382 0.858 0.853z"></path>
<path fill="#f00" d="M298.661 108.254c0 0.472-0.382 0.853-0.858 0.853s-0.858-0.382-0.858-0.853c0-0.472 0.382-0.853 0.858-0.853s0.858 0.382 0.858 0.853z"></path>
<path fill="#f00" d="M260.416 98.233c0 0.472-0.382 0.853-0.858 0.853s-0.858-0.382-0.858-0.853c0-0.472 0.382-0.853 0.858-0.853s0.858 0.382 0.858 0.853z"></path>
<path fill="#f00" d="M120.602 136.677c0 0.471-0.382 0.853-0.858 0.853s-0.858-0.382-0.858-0.853c0-0.471 0.382-0.853 0.858-0.853s0.858 0.382 0.858 0.853z"></path>
<path fill="#f00" d="M90.666 161.956c0 0.471-0.382 0.853-0.858 0.853s-0.858-0.382-0.858-0.853c0-0.471 0.382-0.853 0.858-0.853s0.858 0.382 0.858 0.853z"></path>
<path fill="#f00" d="M319.26 120.716c0 0.472-0.382 0.853-0.858 0.853s-0.858-0.382-0.858-0.853c0-0.472 0.382-0.853 0.858-0.853s0.858 0.382 0.858 0.853z"></path>
<path fill="#f00" d="M340.885 80.454c0 0.472-0.382 0.853-0.858 0.853s-0.858-0.382-0.858-0.853c0-0.472 0.382-0.853 0.858-0.853s0.858 0.382 0.858 0.853z"></path>
<path fill="#f00" d="M384.641 37.961c0 0.471-0.382 0.853-0.858 0.853s-0.858-0.382-0.858-0.853c0-0.471 0.382-0.853 0.858-0.853s0.858 0.382 0.858 0.853z"></path>
<path fill="#f00" d="M403.872 73.614c0 0.472-0.382 0.853-0.858 0.853s-0.858-0.382-0.858-0.853c0-0.472 0.382-0.853 0.858-0.853s0.858 0.382 0.858 0.853z"></path>
<path fill="#f00" d="M365.537 174.21c0 0.471-0.382 0.853-0.858 0.853s-0.858-0.382-0.858-0.853c0-0.471 0.382-0.853 0.858-0.853s0.858 0.382 0.858 0.853z"></path>
<path fill="#f00" d="M349.176 201.53c0.010 0.179-0.113 0.334-0.274 0.344s-0.307-0.123-0.32-0.306c-0.010-0.179 0.113-0.334 0.274-0.344s0.307 0.123 0.32 0.306z"></path>
<path fill="#f00" d="M319.353 156.28c0.010 0.179-0.113 0.334-0.274 0.344s-0.307-0.123-0.32-0.306c-0.010-0.179 0.113-0.334 0.274-0.344s0.307 0.123 0.32 0.306z"></path>
<path fill="#f00" d="M302.267 133.019c0.010 0.179-0.113 0.334-0.274 0.344s-0.307-0.123-0.32-0.306c-0.010-0.179 0.113-0.334 0.274-0.344s0.307 0.123 0.32 0.306z"></path>
<path fill="#f00" d="M165.98 159.085c0.010 0.179-0.113 0.334-0.274 0.344s-0.306-0.123-0.321-0.306c-0.010-0.179 0.113-0.334 0.274-0.344s0.306 0.123 0.321 0.306z"></path>
<path fill="#f00" d="M82.413 129.22c0.010 0.179-0.113 0.334-0.273 0.344s-0.306-0.123-0.32-0.306c-0.010-0.179 0.113-0.334 0.273-0.344s0.306 0.123 0.32 0.306z"></path>
<path fill="#f00" d="M115.888 113.5c0.010 0.179-0.113 0.335-0.273 0.344s-0.306-0.123-0.32-0.306c-0.010-0.179 0.113-0.335 0.273-0.344s0.306 0.123 0.32 0.306z"></path>
<path fill="#f00" d="M101.168 211.429c0.010 0.179-0.113 0.334-0.273 0.344s-0.306-0.123-0.32-0.306c-0.010-0.179 0.113-0.334 0.273-0.344s0.306 0.123 0.32 0.306z"></path>
<path fill="#f00" d="M390.533-61.5c0.010 0.179-0.113 0.334-0.274 0.344s-0.307-0.123-0.32-0.306c-0.010-0.179 0.113-0.334 0.274-0.344s0.307 0.123 0.32 0.306z"></path>
<path fill="#f00" d="M369.642-62.796c0.010 0.179-0.113 0.334-0.274 0.344s-0.307-0.123-0.32-0.306c-0.010-0.179 0.113-0.334 0.274-0.344s0.307 0.123 0.32 0.306z"></path>
<path fill="#f00" d="M344.161-33.205c0.010 0.179-0.113 0.334-0.274 0.344s-0.307-0.123-0.32-0.306c-0.010-0.179 0.113-0.334 0.274-0.344s0.307 0.123 0.32 0.306z"></path>
<path fill="#f00" d="M359.668-20.119c0.010 0.179-0.113 0.334-0.274 0.344s-0.307-0.122-0.32-0.306c-0.010-0.179 0.113-0.334 0.274-0.344s0.307 0.122 0.32 0.306z"></path>
<path fill="#f00" d="M401.945-14.289c0.010 0.179-0.113 0.335-0.274 0.344s-0.307-0.123-0.32-0.306c-0.010-0.179 0.113-0.335 0.274-0.344s0.307 0.123 0.32 0.306z"></path>
<path fill="#f00" d="M415.444-41.429c0.010 0.179-0.113 0.334-0.274 0.344s-0.307-0.123-0.32-0.306c-0.010-0.179 0.113-0.334 0.274-0.344s0.307 0.123 0.32 0.306z"></path>
<path fill="#f00" d="M145.471 213.588c0.010 0.179-0.113 0.334-0.274 0.344s-0.306-0.123-0.321-0.306c-0.010-0.179 0.113-0.334 0.274-0.344s0.306 0.123 0.321 0.306z"></path>
<path fill="#f00" d="M287.368 200.432c0.010 0.179-0.113 0.334-0.274 0.344s-0.307-0.123-0.32-0.306c-0.010-0.179 0.113-0.334 0.274-0.344s0.307 0.123 0.32 0.306z"></path>
<path fill="#f00" d="M165.711 194.427c0.010 0.179-0.113 0.334-0.274 0.344s-0.306-0.123-0.321-0.306c-0.010-0.179 0.113-0.334 0.274-0.344s0.306 0.123 0.321 0.306z"></path>
<path fill="#f00" d="M215.113 188.333c0.010 0.179-0.113 0.334-0.274 0.344s-0.306-0.123-0.321-0.306c-0.010-0.179 0.113-0.334 0.274-0.344s0.306 0.123 0.321 0.306z"></path>
<path fill="#f00" d="M182.892 117.148c0.010 0.179-0.113 0.335-0.274 0.344s-0.306-0.123-0.321-0.306c-0.010-0.179 0.113-0.335 0.274-0.344s0.306 0.123 0.321 0.306z"></path>
<path fill="#f00" d="M228.476 149.073c0.010 0.179-0.113 0.334-0.274 0.344s-0.306-0.123-0.321-0.306c-0.010-0.179 0.113-0.334 0.274-0.344s0.306 0.123 0.321 0.306z"></path>
<path fill="#f00" d="M271.332 140.65c0.010 0.179-0.113 0.334-0.274 0.344s-0.307-0.123-0.32-0.306c-0.010-0.179 0.113-0.334 0.274-0.344s0.307 0.123 0.32 0.306z"></path>
<path fill="#f00" d="M261.043 160.018c0.010 0.179-0.113 0.334-0.274 0.344s-0.307-0.123-0.32-0.306c-0.010-0.179 0.113-0.334 0.274-0.344s0.307 0.123 0.32 0.306z"></path>
<path fill="#f00" d="M229.212 207.408c0.010 0.179-0.113 0.334-0.274 0.344s-0.306-0.123-0.321-0.306c-0.010-0.179 0.113-0.334 0.274-0.344s0.306 0.123 0.321 0.306z"></path>
<path fill="#f00" d="M401.841 163.454c0.010 0.179-0.113 0.334-0.274 0.344s-0.307-0.123-0.32-0.306c-0.010-0.179 0.113-0.334 0.274-0.344s0.307 0.123 0.32 0.306z"></path>
<path fill="#f00" d="M349.506 201.832c0.010 0.179-0.113 0.334-0.274 0.344s-0.307-0.123-0.32-0.306c-0.010-0.179 0.113-0.334 0.274-0.344s0.307 0.123 0.32 0.306z"></path>
<path fill="#f00" d="M433.841 152.561c0.010 0.179-0.113 0.334-0.274 0.344s-0.307-0.123-0.32-0.306c-0.010-0.179 0.113-0.334 0.274-0.344s0.307 0.123 0.32 0.306z"></path>
<path fill="#f00" d="M407.544 124.44c0.010 0.179-0.113 0.335-0.274 0.344s-0.307-0.123-0.32-0.306c-0.010-0.179 0.113-0.335 0.274-0.344s0.307 0.123 0.32 0.306z"></path>
<path fill="#f00" d="M366.829 95.376c0.010 0.179-0.113 0.335-0.274 0.344s-0.307-0.123-0.32-0.306c-0.010-0.179 0.113-0.335 0.274-0.344s0.307 0.123 0.32 0.306z"></path>
<path fill="#f00" d="M363.043 100.74c0.010 0.179-0.113 0.335-0.274 0.344s-0.307-0.123-0.32-0.306c-0.010-0.179 0.113-0.335 0.274-0.344s0.307 0.123 0.32 0.306z"></path>
<path fill="#f00" d="M444.875 83.244c0.010 0.179-0.113 0.335-0.274 0.344s-0.307-0.123-0.32-0.306c-0.010-0.179 0.113-0.335 0.274-0.344s0.307 0.123 0.32 0.306z"></path>
<path fill="#f00" d="M430.499 109.055c0.010 0.179-0.113 0.335-0.274 0.344s-0.307-0.123-0.32-0.306c-0.010-0.179 0.113-0.335 0.274-0.344s0.307 0.123 0.32 0.306z"></path>
<path fill="#f00" d="M437.272 176.774c0.010 0.179-0.113 0.334-0.274 0.344s-0.307-0.123-0.32-0.306c-0.010-0.179 0.113-0.334 0.274-0.344s0.307 0.123 0.32 0.306z"></path>
<path fill="#f00" d="M588.747 395.719c0 0.471-0.382 0.858-0.858 0.858s-0.858-0.382-0.858-0.858c0-0.471 0.382-0.858 0.858-0.858s0.858 0.382 0.858 0.858z"></path>
<path fill="#f00" d="M217.512 418.716c0 0.471-0.382 0.858-0.858 0.858s-0.858-0.382-0.858-0.858c0-0.471 0.382-0.858 0.858-0.858s0.858 0.382 0.858 0.858z"></path>
<path fill="#f00" d="M234.623 392.546c0 0.179-0.137 0.33-0.297 0.33s-0.297-0.146-0.297-0.33c0-0.179 0.137-0.33 0.297-0.33s0.297 0.146 0.297 0.33z"></path>
<path fill="#f00" d="M455.547 419.57c0 0.179-0.137 0.33-0.297 0.33s-0.297-0.146-0.297-0.33c0-0.179 0.137-0.33 0.297-0.33s0.297 0.146 0.297 0.33z"></path>
<path fill="#f00" d="M482.725 399.976c0 0.179-0.137 0.33-0.297 0.33s-0.297-0.146-0.297-0.33c0-0.179 0.137-0.33 0.297-0.33s0.297 0.146 0.297 0.33z"></path>
<path fill="#f00" d="M584.91 410.477c0 0.179-0.136 0.33-0.297 0.33s-0.297-0.146-0.297-0.33c0-0.179 0.136-0.33 0.297-0.33s0.297 0.146 0.297 0.33z"></path>
<path fill="#f00" d="M518.086 420.234c0 0.179-0.136 0.33-0.297 0.33s-0.297-0.146-0.297-0.33c0-0.179 0.136-0.33 0.297-0.33s0.297 0.146 0.297 0.33z"></path>
<path fill="#f00" d="M438.677 394.719c0 0.179-0.137 0.33-0.297 0.33s-0.297-0.146-0.297-0.33c0-0.179 0.137-0.33 0.297-0.33s0.297 0.146 0.297 0.33z"></path>
<path fill="#f00" d="M296.205 397.949c0 0.179-0.137 0.33-0.297 0.33s-0.297-0.146-0.297-0.33c0-0.179 0.137-0.33 0.297-0.33s0.297 0.146 0.297 0.33z"></path>
<path fill="#f00" d="M367.446 415.049c0 0.179-0.137 0.33-0.297 0.33s-0.297-0.146-0.297-0.33c0-0.179 0.137-0.33 0.297-0.33s0.297 0.146 0.297 0.33z"></path>
<path fill="#f00" d="M417.15 412.424c0 0.179-0.137 0.33-0.297 0.33s-0.297-0.146-0.297-0.33c0-0.179 0.137-0.33 0.297-0.33s0.297 0.146 0.297 0.33z"></path>
<path fill="#f00" d="M354.714 395.045c0 0.179-0.137 0.33-0.297 0.33s-0.297-0.146-0.297-0.33c0-0.179 0.137-0.33 0.297-0.33s0.297 0.146 0.297 0.33z"></path>
<path fill="#f00" d="M234.321 392.217c0 0.179-0.137 0.33-0.297 0.33s-0.297-0.146-0.297-0.33c0-0.179 0.137-0.33 0.297-0.33s0.297 0.146 0.297 0.33z"></path>
<path fill="#f00" d="M145.023 411.085c0 0.179-0.137 0.33-0.297 0.33s-0.297-0.146-0.297-0.33c0-0.179 0.137-0.33 0.297-0.33s0.297 0.146 0.297 0.33z"></path>
<path fill="#f00" d="M439.87 383.308c0 0.471-0.382 0.858-0.858 0.858s-0.858-0.382-0.858-0.858c0-0.471 0.382-0.858 0.858-0.858s0.858 0.382 0.858 0.858z"></path>
<path fill="#f00" d="M451.031 412.382c0.010 0.179-0.113 0.339-0.274 0.349s-0.307-0.123-0.32-0.307c-0.010-0.179 0.113-0.339 0.274-0.349s0.307 0.123 0.32 0.307z"></path>
<path fill="#f00" d="M430.141 411.080c0.010 0.179-0.113 0.339-0.274 0.349s-0.307-0.123-0.32-0.307c-0.010-0.179 0.113-0.339 0.274-0.349s0.307 0.123 0.32 0.307z"></path>
</svg>
