<svg xmlns="http://www.w3.org/2000/svg" fill="none" viewBox="276.38 182.29 111.13 108.62">
<path d="M302.964 211.249C302.964 211.349 302.883 211.43 302.782 211.43C302.681 211.43 302.6 211.349 302.6 211.249C302.6 211.149 302.681 211.068 302.782 211.068C302.883 211.068 302.964 211.149 302.964 211.249Z" fill="#fff"/>
<path d="M308.052 204.932C308.052 205.032 307.971 205.113 307.87 205.113C307.769 205.113 307.688 205.032 307.688 204.932C307.688 204.832 307.769 204.751 307.87 204.751C307.971 204.751 308.052 204.832 308.052 204.932Z" fill="#fff"/>
<path d="M315.998 207.621C315.998 207.721 315.917 207.802 315.816 207.802C315.715 207.802 315.634 207.721 315.634 207.621C315.634 207.521 315.715 207.44 315.816 207.44C315.917 207.44 315.998 207.521 315.998 207.621Z" fill="#fff"/>
<path d="M345.493 197.5C345.493 197.6 345.412 197.681 345.311 197.681C345.21 197.681 345.129 197.6 345.129 197.5C345.129 197.4 345.21 197.319 345.311 197.319C345.412 197.319 345.493 197.4 345.493 197.5Z" fill="#fff"/>
<path d="M346.159 201.552C346.159 201.652 346.078 201.733 345.977 201.733C345.876 201.733 345.795 201.652 345.795 201.552C345.795 201.452 345.876 201.371 345.977 201.371C346.078 201.371 346.159 201.452 346.159 201.552Z" fill="#fff"/>
<path d="M353.231 199.794C353.231 199.894 353.15 199.975 353.049 199.975C352.948 199.975 352.867 199.894 352.867 199.794C352.867 199.694 352.948 199.613 353.049 199.613C353.15 199.613 353.231 199.694 353.231 199.794Z" fill="#fff"/>
<path d="M360.603 200.568C360.603 200.668 360.522 200.749 360.421 200.749C360.32 200.749 360.239 200.668 360.239 200.568C360.239 200.468 360.32 200.387 360.421 200.387C360.522 200.387 360.603 200.468 360.603 200.568Z" fill="#fff"/>
<path d="M365.032 202.74C365.032 202.84 364.951 202.921 364.85 202.921C364.749 202.921 364.668 202.84 364.668 202.74C364.668 202.64 364.749 202.559 364.85 202.559C364.951 202.559 365.032 202.64 365.032 202.74Z" fill="#fff"/>
<path d="M367.635 206.512C367.635 206.612 367.554 206.693 367.453 206.693C367.352 206.693 367.271 206.612 367.271 206.512C367.271 206.412 367.352 206.331 367.453 206.331C367.554 206.331 367.635 206.412 367.635 206.512Z" fill="#fff"/>
<path d="M373.608 214.03C373.608 214.13 373.527 214.211 373.426 214.211C373.325 214.211 373.244 214.13 373.244 214.03C373.244 213.93 373.325 213.849 373.426 213.849C373.527 213.849 373.608 213.93 373.608 214.03Z" fill="#fff"/>
<path d="M373.637 185.105C373.637 185.205 373.556 185.286 373.455 185.286C373.354 185.286 373.273 185.205 373.273 185.105C373.273 185.005 373.354 184.924 373.455 184.924C373.556 184.924 373.637 185.005 373.637 185.105Z" fill="#fff"/>
<path d="M352.868 196.644C352.868 196.744 352.787 196.825 352.686 196.825C352.585 196.825 352.504 196.744 352.504 196.644C352.504 196.544 352.585 196.463 352.686 196.463C352.787 196.463 352.868 196.544 352.868 196.644Z" fill="#fff"/>
<path d="M303.879 201.988C303.879 202.088 303.798 202.169 303.697 202.169C303.596 202.169 303.515 202.088 303.515 201.988C303.515 201.888 303.596 201.807 303.697 201.807C303.798 201.807 303.879 201.888 303.879 201.988Z" fill="#fff"/>
<path d="M298.705 210.191C298.705 210.291 298.624 210.372 298.523 210.372C298.422 210.372 298.341 210.291 298.341 210.191C298.341 210.091 298.422 210.01 298.523 210.01C298.624 210.01 298.705 210.091 298.705 210.191Z" fill="#fff"/>
<path d="M288.817 218.537C288.817 218.637 288.736 218.718 288.635 218.718C288.534 218.718 288.453 218.637 288.453 218.537C288.453 218.437 288.534 218.356 288.635 218.356C288.736 218.356 288.817 218.437 288.817 218.537Z" fill="#fff"/>
<path d="M285.274 210.706C285.274 210.806 285.193 210.887 285.092 210.887C284.991 210.887 284.91 210.806 284.91 210.706C284.91 210.606 284.991 210.525 285.092 210.525C285.193 210.525 285.274 210.606 285.274 210.706Z" fill="#fff"/>
<path d="M294.875 189.984C294.875 190.084 294.794 190.165 294.693 190.165C294.592 190.165 294.511 190.084 294.511 189.984C294.511 189.884 294.592 189.803 294.693 189.803C294.794 189.803 294.875 189.884 294.875 189.984Z" fill="#fff"/>
<path d="M298.506 184.432C298.506 184.47 298.477 184.502 298.443 184.502C298.409 184.502 298.38 184.471 298.38 184.432C298.38 184.394 298.409 184.362 298.443 184.362C298.477 184.362 298.506 184.393 298.506 184.432Z" fill="#fff"/>
<path d="M304.147 194.452C304.147 194.49 304.118 194.522 304.084 194.522C304.05 194.522 304.021 194.491 304.021 194.452C304.021 194.414 304.05 194.382 304.084 194.382C304.118 194.382 304.147 194.413 304.147 194.452Z" fill="#fff"/>
<path d="M307.421 199.625C307.421 199.663 307.392 199.695 307.358 199.695C307.324 199.695 307.295 199.664 307.295 199.625C307.295 199.587 307.324 199.555 307.358 199.555C307.392 199.555 307.421 199.586 307.421 199.625Z" fill="#fff"/>
<path d="M336.651 196.125C336.651 196.163 336.622 196.195 336.588 196.195C336.554 196.195 336.525 196.164 336.525 196.125C336.525 196.087 336.554 196.055 336.588 196.055C336.622 196.055 336.651 196.086 336.651 196.125Z" fill="#fff"/>
<path d="M345.193 199.054C345.193 199.092 345.164 199.124 345.13 199.124C345.096 199.124 345.067 199.093 345.067 199.054C345.067 199.016 345.096 198.984 345.13 198.984C345.164 198.984 345.193 199.015 345.193 199.054Z" fill="#fff"/>
<path d="M345.375 190.167C345.375 190.205 345.346 190.237 345.312 190.237C345.278 190.237 345.249 190.206 345.249 190.167C345.249 190.129 345.278 190.097 345.312 190.097C345.346 190.097 345.375 190.128 345.375 190.167Z" fill="#fff"/>
<path d="M353.894 203.684C353.894 203.722 353.865 203.754 353.831 203.754C353.797 203.754 353.768 203.723 353.768 203.684C353.768 203.646 353.797 203.614 353.831 203.614C353.865 203.614 353.894 203.645 353.894 203.684Z" fill="#fff"/>
<path d="M353.296 198.984C353.296 199.022 353.267 199.054 353.233 199.054C353.199 199.054 353.17 199.023 353.17 198.984C353.17 198.946 353.199 198.914 353.233 198.914C353.267 198.914 353.296 198.945 353.296 198.984Z" fill="#fff"/>
<path d="M346.577 206.512C346.577 206.55 346.548 206.582 346.514 206.582C346.48 206.582 346.451 206.551 346.451 206.512C346.451 206.474 346.48 206.442 346.514 206.442C346.548 206.442 346.577 206.473 346.577 206.512Z" fill="#fff"/>
<path d="M351.144 186.008C351.144 186.046 351.115 186.078 351.081 186.078C351.047 186.078 351.018 186.047 351.018 186.008C351.018 185.97 351.047 185.938 351.081 185.938C351.115 185.938 351.144 185.969 351.144 186.008Z" fill="#fff"/>
<path d="M382.59 202.991C382.59 203.029 382.561 203.061 382.527 203.061C382.493 203.061 382.464 203.03 382.464 202.991C382.464 202.953 382.493 202.921 382.527 202.921C382.561 202.921 382.59 202.952 382.59 202.991Z" fill="#fff"/>
<path d="M369.627 204.681C369.627 204.719 369.598 204.751 369.564 204.751C369.53 204.751 369.501 204.72 369.501 204.681C369.501 204.643 369.53 204.611 369.564 204.611C369.598 204.611 369.627 204.642 369.627 204.681Z" fill="#fff"/>
<path d="M374.538 198.398C374.538 198.436 374.509 198.468 374.475 198.468C374.441 198.468 374.412 198.437 374.412 198.398C374.412 198.36 374.441 198.328 374.475 198.328C374.509 198.328 374.538 198.359 374.538 198.398Z" fill="#fff"/>
<path d="M378.938 198.984C378.938 199.022 378.909 199.054 378.875 199.054C378.841 199.054 378.812 199.023 378.812 198.984C378.812 198.946 378.841 198.914 378.875 198.914C378.909 198.914 378.938 198.945 378.938 198.984Z" fill="#fff"/>
<path d="M384.769 193.096C384.769 193.134 384.74 193.166 384.706 193.166C384.672 193.166 384.643 193.135 384.643 193.096C384.643 193.058 384.672 193.026 384.706 193.026C384.74 193.026 384.769 193.057 384.769 193.096Z" fill="#fff"/>
<path d="M381.682 190.096C381.682 190.134 381.653 190.166 381.619 190.166C381.585 190.166 381.556 190.135 381.556 190.096C381.556 190.058 381.585 190.026 381.619 190.026C381.653 190.026 381.682 190.057 381.682 190.096Z" fill="#fff"/>
<path d="M372.822 188.237C372.822 188.275 372.793 188.307 372.759 188.307C372.725 188.307 372.696 188.276 372.696 188.237C372.696 188.199 372.725 188.167 372.759 188.167C372.793 188.167 372.822 188.198 372.822 188.237Z" fill="#fff"/>
<path d="M369.564 193.781C369.564 193.819 369.535 193.851 369.501 193.851C369.467 193.851 369.438 193.82 369.438 193.781C369.438 193.743 369.467 193.711 369.501 193.711C369.535 193.711 369.564 193.742 369.564 193.781Z" fill="#fff"/>
<path d="M358.644 190.306C358.644 190.344 358.615 190.376 358.581 190.376C358.547 190.376 358.518 190.345 358.518 190.306C358.518 190.268 358.547 190.236 358.581 190.236C358.615 190.236 358.644 190.267 358.644 190.306Z" fill="#fff"/>
<path d="M361.897 196.195C361.897 196.233 361.868 196.265 361.834 196.265C361.8 196.265 361.771 196.234 361.771 196.195C361.771 196.157 361.8 196.125 361.834 196.125C361.868 196.125 361.897 196.156 361.897 196.195Z" fill="#fff"/>
<path d="M341.796 184.893C341.796 184.931 341.767 184.963 341.733 184.963C341.699 184.963 341.67 184.932 341.67 184.893C341.67 184.855 341.699 184.823 341.733 184.823C341.767 184.823 341.796 184.854 341.796 184.893Z" fill="#fff"/>
<path d="M311.571 185.579C311.571 185.617 311.542 185.649 311.508 185.649C311.474 185.649 311.445 185.618 311.445 185.579C311.445 185.541 311.474 185.509 311.508 185.509C311.542 185.509 311.571 185.54 311.571 185.579Z" fill="#fff"/>
<path d="M326.685 189.207C326.685 189.245 326.656 189.277 326.622 189.277C326.588 189.277 326.559 189.246 326.559 189.207C326.559 189.169 326.588 189.137 326.622 189.137C326.656 189.137 326.685 189.168 326.685 189.207Z" fill="#fff"/>
<path d="M337.23 188.649C337.23 188.687 337.201 188.719 337.167 188.719C337.133 188.719 337.104 188.688 337.104 188.649C337.104 188.611 337.133 188.579 337.167 188.579C337.201 188.579 337.23 188.61 337.23 188.649Z" fill="#fff"/>
<path d="M332.451 204.75C332.451 204.788 332.422 204.82 332.388 204.82C332.354 204.82 332.325 204.789 332.325 204.75C332.325 204.712 332.354 204.68 332.388 204.68C332.422 204.68 332.451 204.711 332.451 204.75Z" fill="#fff"/>
<path d="M353.514 213.847C353.514 213.885 353.485 213.917 353.451 213.917C353.417 213.917 353.388 213.886 353.388 213.847C353.388 213.809 353.417 213.777 353.451 213.777C353.485 213.777 353.514 213.808 353.514 213.847Z" fill="#fff"/>
<path d="M359.204 214.03C359.204 214.068 359.175 214.1 359.141 214.1C359.107 214.1 359.078 214.069 359.078 214.03C359.078 213.992 359.107 213.96 359.141 213.96C359.175 213.96 359.204 213.991 359.204 214.03Z" fill="#fff"/>
<path d="M323.276 197.319C323.276 197.357 323.247 197.389 323.213 197.389C323.179 197.389 323.15 197.358 323.15 197.319C323.15 197.281 323.179 197.249 323.213 197.249C323.247 197.249 323.276 197.28 323.276 197.319Z" fill="#fff"/>
<path d="M314.079 198.467C314.079 198.505 314.05 198.537 314.016 198.537C313.982 198.537 313.953 198.506 313.953 198.467C313.953 198.429 313.982 198.397 314.016 198.397C314.05 198.397 314.079 198.428 314.079 198.467Z" fill="#fff"/>
<path d="M316.545 194.522C316.545 194.56 316.516 194.592 316.482 194.592C316.448 194.592 316.419 194.561 316.419 194.522C316.419 194.484 316.448 194.452 316.482 194.452C316.516 194.452 316.545 194.483 316.545 194.522Z" fill="#fff"/>
<path d="M325.481 208.119C325.481 208.157 325.452 208.189 325.418 208.189C325.384 208.189 325.355 208.158 325.355 208.119C325.355 208.081 325.384 208.049 325.418 208.049C325.452 208.049 325.481 208.08 325.481 208.119Z" fill="#fff"/>
<path d="M321.763 216.76C321.763 216.798 321.734 216.83 321.7 216.83C321.666 216.83 321.637 216.799 321.637 216.76C321.637 216.722 321.666 216.69 321.7 216.69C321.734 216.69 321.763 216.721 321.763 216.76Z" fill="#fff"/>
<path d="M309.79 217.306C309.79 217.344 309.761 217.376 309.727 217.376C309.693 217.376 309.664 217.345 309.664 217.306C309.664 217.268 309.693 217.236 309.727 217.236C309.761 217.236 309.79 217.267 309.79 217.306Z" fill="#fff"/>
<path d="M323.983 184.963C323.983 185.001 323.954 185.033 323.92 185.033C323.886 185.033 323.857 185.002 323.857 184.963C323.857 184.925 323.886 184.893 323.92 184.893C323.954 184.893 323.983 184.924 323.983 184.963Z" fill="#fff"/>
<path d="M286.798 191.709C286.798 191.747 286.769 191.779 286.735 191.779C286.701 191.779 286.672 191.748 286.672 191.709C286.672 191.671 286.701 191.639 286.735 191.639C286.769 191.639 286.798 191.67 286.798 191.709Z" fill="#fff"/>
<path d="M298.442 184.363C298.442 184.401 298.413 184.433 298.379 184.433C298.345 184.433 298.316 184.402 298.316 184.363C298.316 184.325 298.345 184.293 298.379 184.293C298.413 184.293 298.442 184.324 298.442 184.363Z" fill="#fff"/>
<path d="M279.862 193.542C279.862 193.58 279.833 193.612 279.799 193.612C279.765 193.612 279.736 193.581 279.736 193.542C279.736 193.504 279.765 193.472 279.799 193.472C279.833 193.472 279.862 193.503 279.862 193.542Z" fill="#fff"/>
<path d="M285.013 199.881C285.013 199.919 284.984 199.951 284.95 199.951C284.916 199.951 284.887 199.92 284.887 199.881C284.887 199.843 284.916 199.811 284.95 199.811C284.984 199.811 285.013 199.842 285.013 199.881Z" fill="#fff"/>
<path d="M293.2 206.633C293.2 206.671 293.171 206.703 293.137 206.703C293.103 206.703 293.074 206.672 293.074 206.633C293.074 206.595 293.103 206.563 293.137 206.563C293.171 206.563 293.2 206.594 293.2 206.633Z" fill="#fff"/>
<path d="M294.08 205.557C294.08 205.595 294.051 205.627 294.017 205.627C293.983 205.627 293.954 205.596 293.954 205.557C293.954 205.519 293.983 205.487 294.017 205.487C294.051 205.487 294.08 205.518 294.08 205.557Z" fill="#fff"/>
<path d="M276.503 208.049C276.503 208.087 276.474 208.119 276.44 208.119C276.406 208.119 276.377 208.088 276.377 208.049C276.377 208.011 276.406 207.979 276.44 207.979C276.474 207.979 276.503 208.01 276.503 208.049Z" fill="#fff"/>
<path d="M279.928 202.798C279.928 202.836 279.899 202.868 279.865 202.868C279.831 202.868 279.802 202.837 279.802 202.798C279.802 202.76 279.831 202.728 279.865 202.728C279.899 202.728 279.928 202.759 279.928 202.798Z" fill="#fff"/>
<path d="M279.497 188.365C279.497 188.403 279.468 188.435 279.434 188.435C279.4 188.435 279.371 188.404 279.371 188.365C279.371 188.327 279.4 188.295 279.434 188.295C279.468 188.295 279.497 188.326 279.497 188.365Z" fill="#fff"/>
<path d="M361.122 249.558C361.122 249.658 361.041 249.739 360.94 249.739C360.839 249.739 360.758 249.658 360.758 249.558C360.758 249.458 360.839 249.377 360.94 249.377C361.041 249.377 361.122 249.458 361.122 249.558Z" fill="#fff"/>
<path d="M356.486 256.213C356.486 256.313 356.405 256.395 356.304 256.395C356.203 256.395 356.122 256.314 356.122 256.213C356.122 256.113 356.203 256.031 356.304 256.031C356.405 256.031 356.486 256.112 356.486 256.213Z" fill="#fff"/>
<path d="M348.371 254.087C348.371 254.187 348.29 254.268 348.189 254.268C348.088 254.268 348.007 254.187 348.007 254.087C348.007 253.987 348.088 253.906 348.189 253.906C348.29 253.906 348.371 253.987 348.371 254.087Z" fill="#fff"/>
<path d="M319.654 266.238C319.654 266.338 319.573 266.42 319.472 266.42C319.371 266.42 319.29 266.339 319.29 266.238C319.29 266.138 319.371 266.056 319.472 266.056C319.573 266.056 319.654 266.137 319.654 266.238Z" fill="#fff"/>
<path d="M318.709 262.244C318.709 262.344 318.628 262.426 318.527 262.426C318.426 262.426 318.345 262.345 318.345 262.244C318.345 262.144 318.426 262.062 318.527 262.062C318.628 262.062 318.709 262.143 318.709 262.244Z" fill="#fff"/>
<path d="M311.776 264.49C311.776 264.59 311.695 264.672 311.594 264.672C311.493 264.672 311.412 264.591 311.412 264.49C311.412 264.39 311.493 264.308 311.594 264.308C311.695 264.308 311.776 264.389 311.776 264.49Z" fill="#fff"/>
<path d="M304.367 264.233C304.367 264.333 304.286 264.415 304.185 264.415C304.084 264.415 304.003 264.334 304.003 264.233C304.003 264.133 304.084 264.051 304.185 264.051C304.286 264.051 304.367 264.132 304.367 264.233Z" fill="#fff"/>
<path d="M299.796 262.375C299.796 262.475 299.715 262.557 299.614 262.557C299.513 262.557 299.432 262.476 299.432 262.375C299.432 262.275 299.513 262.193 299.614 262.193C299.715 262.193 299.796 262.274 299.796 262.375Z" fill="#fff"/>
<path d="M296.94 258.793C296.94 258.893 296.859 258.975 296.758 258.975C296.657 258.975 296.576 258.894 296.576 258.793C296.576 258.693 296.657 258.611 296.758 258.611C296.859 258.611 296.94 258.692 296.94 258.793Z" fill="#fff"/>
<path d="M290.455 251.71C290.455 251.81 290.374 251.891 290.273 251.891C290.172 251.891 290.091 251.81 290.091 251.71C290.091 251.61 290.172 251.529 290.273 251.529C290.374 251.529 290.455 251.61 290.455 251.71Z" fill="#fff"/>
<path d="M292.445 280.568C292.445 280.668 292.364 280.75 292.263 280.75C292.162 280.75 292.081 280.669 292.081 280.568C292.081 280.468 292.162 280.386 292.263 280.386C292.364 280.386 292.445 280.467 292.445 280.568Z" fill="#fff"/>
<path d="M312.358 267.608C312.358 267.708 312.277 267.79 312.176 267.79C312.075 267.79 311.994 267.709 311.994 267.608C311.994 267.508 312.075 267.426 312.176 267.426C312.277 267.426 312.358 267.507 312.358 267.608Z" fill="#fff"/>
<path d="M360.856 258.86C360.856 258.96 360.775 259.042 360.674 259.042C360.573 259.042 360.492 258.961 360.492 258.86C360.492 258.76 360.573 258.678 360.674 258.678C360.775 258.678 360.856 258.759 360.856 258.86Z" fill="#fff"/>
<path d="M365.443 250.315C365.443 250.415 365.362 250.496 365.261 250.496C365.16 250.496 365.079 250.415 365.079 250.315C365.079 250.215 365.16 250.134 365.261 250.134C365.362 250.134 365.443 250.215 365.443 250.315Z" fill="#fff"/>
<path d="M374.726 241.3C374.726 241.4 374.645 241.481 374.544 241.481C374.443 241.481 374.362 241.4 374.362 241.3C374.362 241.2 374.443 241.119 374.544 241.119C374.645 241.119 374.726 241.2 374.726 241.3Z" fill="#fff"/>
<path d="M378.807 248.864C378.807 248.964 378.726 249.045 378.625 249.045C378.524 249.045 378.443 248.964 378.443 248.864C378.443 248.764 378.524 248.683 378.625 248.683C378.726 248.683 378.807 248.764 378.807 248.864Z" fill="#fff"/>
<path d="M370.673 270.206C370.673 270.306 370.592 270.388 370.491 270.388C370.39 270.388 370.309 270.307 370.309 270.206C370.309 270.106 370.39 270.024 370.491 270.024C370.592 270.024 370.673 270.105 370.673 270.206Z" fill="#fff"/>
<path d="M367.202 276.002C367.204 276.04 367.178 276.074 367.144 276.076C367.11 276.078 367.079 276.05 367.076 276.011C367.074 275.973 367.1 275.939 367.134 275.937C367.168 275.935 367.199 275.963 367.202 276.002Z" fill="#fff"/>
<path d="M360.877 266.4C360.879 266.438 360.853 266.472 360.819 266.474C360.785 266.476 360.754 266.448 360.751 266.409C360.749 266.371 360.775 266.337 360.809 266.335C360.843 266.333 360.874 266.361 360.877 266.4Z" fill="#fff"/>
<path d="M357.252 261.467C357.254 261.505 357.228 261.539 357.194 261.541C357.16 261.543 357.129 261.515 357.126 261.476C357.124 261.438 357.15 261.404 357.184 261.402C357.218 261.4 357.249 261.428 357.252 261.467Z" fill="#fff"/>
<path d="M328.335 266.998C328.337 267.036 328.311 267.07 328.277 267.072C328.243 267.074 328.212 267.046 328.209 267.007C328.207 266.969 328.233 266.935 328.267 266.933C328.301 266.931 328.332 266.959 328.335 266.998Z" fill="#fff"/>
<path d="M319.609 264.672C319.611 264.71 319.585 264.744 319.551 264.746C319.517 264.748 319.486 264.72 319.483 264.681C319.481 264.643 319.507 264.609 319.541 264.607C319.575 264.605 319.606 264.633 319.609 264.672Z" fill="#fff"/>
<path d="M320.048 273.55C320.05 273.588 320.024 273.622 319.99 273.624C319.956 273.626 319.925 273.598 319.922 273.559C319.92 273.521 319.946 273.487 319.98 273.485C320.014 273.483 320.045 273.511 320.048 273.55Z" fill="#fff"/>
<path d="M310.608 260.662C310.61 260.7 310.584 260.734 310.55 260.736C310.516 260.738 310.485 260.71 310.482 260.671C310.48 260.633 310.506 260.599 310.54 260.597C310.574 260.595 310.605 260.623 310.608 260.662Z" fill="#fff"/>
<path d="M311.531 265.307C311.533 265.345 311.507 265.379 311.473 265.381C311.439 265.383 311.408 265.355 311.405 265.316C311.403 265.278 311.429 265.244 311.463 265.242C311.497 265.24 311.528 265.268 311.531 265.307Z" fill="#fff"/>
<path d="M317.711 257.327C317.713 257.365 317.687 257.399 317.653 257.401C317.619 257.403 317.588 257.375 317.585 257.336C317.583 257.298 317.609 257.264 317.643 257.262C317.677 257.26 317.708 257.288 317.711 257.327Z" fill="#fff"/>
<path d="M314.587 278.101C314.589 278.139 314.563 278.173 314.529 278.175C314.495 278.177 314.464 278.149 314.461 278.11C314.459 278.072 314.485 278.038 314.519 278.036C314.553 278.034 314.584 278.062 314.587 278.101Z" fill="#fff"/>
<path d="M282.031 263.353C282.033 263.391 282.007 263.425 281.973 263.427C281.939 263.429 281.908 263.401 281.905 263.362C281.903 263.324 281.929 263.29 281.963 263.288C281.997 263.286 282.028 263.314 282.031 263.353Z" fill="#fff"/>
<path d="M294.841 260.764C294.843 260.802 294.817 260.836 294.783 260.838C294.749 260.84 294.718 260.812 294.715 260.773C294.713 260.735 294.739 260.701 294.773 260.699C294.807 260.697 294.838 260.725 294.841 260.764Z" fill="#fff"/>
<path d="M290.384 267.373C290.386 267.411 290.36 267.445 290.326 267.447C290.292 267.449 290.261 267.421 290.258 267.382C290.256 267.344 290.282 267.31 290.316 267.308C290.35 267.306 290.381 267.334 290.384 267.373Z" fill="#fff"/>
<path d="M285.952 267.097C285.954 267.135 285.928 267.169 285.894 267.171C285.86 267.173 285.829 267.145 285.826 267.106C285.824 267.068 285.85 267.034 285.884 267.032C285.918 267.03 285.949 267.058 285.952 267.097Z" fill="#fff"/>
<path d="M280.546 273.377C280.548 273.415 280.522 273.449 280.488 273.451C280.454 273.453 280.423 273.425 280.42 273.386C280.418 273.348 280.444 273.314 280.478 273.312C280.512 273.31 280.543 273.338 280.546 273.377Z" fill="#fff"/>
<path d="M283.836 276.153C283.838 276.191 283.812 276.225 283.778 276.227C283.744 276.229 283.713 276.201 283.71 276.162C283.708 276.124 283.734 276.09 283.768 276.088C283.802 276.086 283.833 276.114 283.836 276.153Z" fill="#fff"/>
<path d="M292.803 277.39C292.805 277.428 292.779 277.462 292.745 277.464C292.711 277.466 292.68 277.438 292.677 277.399C292.675 277.361 292.701 277.327 292.735 277.325C292.769 277.323 292.8 277.351 292.803 277.39Z" fill="#fff"/>
<path d="M295.669 271.63C295.671 271.668 295.645 271.702 295.611 271.704C295.577 271.706 295.546 271.678 295.543 271.639C295.541 271.601 295.567 271.567 295.601 271.565C295.635 271.563 295.666 271.591 295.669 271.63Z" fill="#fff"/>
<path d="M294.421 228.232C294.423 228.27 294.397 228.303 294.363 228.305C294.329 228.307 294.298 228.279 294.295 228.24C294.293 228.202 294.319 228.169 294.353 228.167C294.387 228.165 294.418 228.193 294.421 228.232Z" fill="#fff"/>
<path d="M287.873 237.013C287.875 237.051 287.849 237.084 287.815 237.086C287.781 237.088 287.75 237.06 287.747 237.021C287.745 236.983 287.771 236.95 287.805 236.948C287.839 236.946 287.87 236.974 287.873 237.013Z" fill="#fff"/>
<path d="M378.039 233.394C378.039 233.494 377.958 233.575 377.857 233.575C377.756 233.575 377.675 233.494 377.675 233.394C377.675 233.294 377.756 233.213 377.857 233.213C377.958 233.213 378.039 233.294 378.039 233.394Z" fill="#fff"/>
<path d="M375.979 220.199C375.981 220.237 375.955 220.27 375.921 220.272C375.887 220.274 375.856 220.246 375.853 220.207C375.851 220.169 375.877 220.136 375.911 220.134C375.945 220.132 375.976 220.16 375.979 220.199Z" fill="#fff"/>
<path d="M371.545 219.924C371.547 219.962 371.521 219.995 371.487 219.997C371.453 219.999 371.422 219.971 371.419 219.932C371.417 219.894 371.443 219.861 371.477 219.859C371.511 219.857 371.542 219.885 371.545 219.924Z" fill="#fff"/>
<path d="M366.139 226.203C366.141 226.241 366.115 226.274 366.081 226.276C366.047 226.278 366.016 226.25 366.013 226.211C366.011 226.173 366.037 226.14 366.071 226.138C366.105 226.136 366.136 226.164 366.139 226.203Z" fill="#fff"/>
<path d="M369.429 228.978C369.431 229.016 369.405 229.049 369.371 229.051C369.337 229.053 369.306 229.025 369.303 228.986C369.301 228.948 369.327 228.915 369.361 228.913C369.395 228.911 369.426 228.939 369.429 228.978Z" fill="#fff"/>
<path d="M378.399 230.215C378.401 230.253 378.375 230.286 378.341 230.288C378.307 230.29 378.276 230.262 378.273 230.223C378.271 230.185 378.297 230.152 378.331 230.15C378.365 230.148 378.396 230.176 378.399 230.215Z" fill="#fff"/>
<path d="M381.26 224.458C381.262 224.496 381.236 224.529 381.202 224.531C381.168 224.533 381.137 224.505 381.134 224.466C381.132 224.428 381.158 224.395 381.192 224.393C381.226 224.391 381.257 224.419 381.26 224.458Z" fill="#fff"/>
<path d="M306.802 274.337C306.804 274.375 306.778 274.409 306.744 274.411C306.71 274.413 306.679 274.385 306.676 274.346C306.674 274.308 306.7 274.274 306.734 274.272C306.768 274.27 306.799 274.298 306.802 274.337Z" fill="#fff"/>
<path d="M303.147 268.689C303.149 268.727 303.123 268.761 303.089 268.763C303.055 268.765 303.024 268.737 303.021 268.698C303.019 268.66 303.045 268.626 303.079 268.624C303.113 268.622 303.144 268.65 303.147 268.689Z" fill="#fff"/>
<path d="M323.988 278.561C323.99 278.599 323.964 278.633 323.93 278.635C323.896 278.637 323.865 278.609 323.862 278.57C323.86 278.532 323.886 278.498 323.92 278.496C323.954 278.494 323.985 278.522 323.988 278.561Z" fill="#fff"/>
<path d="M354.09 275.769C354.092 275.807 354.066 275.841 354.032 275.843C353.998 275.845 353.967 275.817 353.964 275.778C353.962 275.74 353.988 275.706 354.022 275.704C354.056 275.702 354.087 275.73 354.09 275.769Z" fill="#fff"/>
<path d="M338.761 273.202C338.763 273.24 338.737 273.274 338.703 273.276C338.669 273.278 338.638 273.25 338.635 273.211C338.633 273.173 338.659 273.139 338.693 273.137C338.727 273.135 338.758 273.163 338.761 273.202Z" fill="#fff"/>
<path d="M328.279 274.496C328.281 274.534 328.255 274.568 328.221 274.57C328.187 274.572 328.156 274.544 328.153 274.505C328.151 274.467 328.177 274.433 328.211 274.431C328.245 274.429 328.276 274.457 328.279 274.496Z" fill="#fff"/>
<path d="M331.925 258.101C331.927 258.139 331.901 258.173 331.867 258.175C331.833 258.177 331.802 258.149 331.799 258.11C331.797 258.072 331.823 258.038 331.857 258.036C331.891 258.034 331.922 258.062 331.925 258.101Z" fill="#fff"/>
<path d="M341.596 264.874C341.598 264.912 341.572 264.946 341.538 264.948C341.504 264.95 341.473 264.922 341.47 264.883C341.468 264.845 341.494 264.811 341.528 264.809C341.562 264.807 341.593 264.835 341.596 264.874Z" fill="#fff"/>
<path d="M350.688 263.087C350.69 263.125 350.664 263.159 350.63 263.161C350.596 263.163 350.565 263.135 350.562 263.096C350.56 263.058 350.586 263.024 350.62 263.022C350.654 263.02 350.685 263.048 350.688 263.087Z" fill="#fff"/>
<path d="M348.505 267.195C348.507 267.233 348.481 267.267 348.447 267.269C348.413 267.271 348.382 267.243 348.379 267.204C348.377 267.166 348.403 267.132 348.437 267.13C348.471 267.128 348.502 267.156 348.505 267.195Z" fill="#fff"/>
<path d="M341.752 277.25C341.754 277.288 341.728 277.322 341.694 277.324C341.66 277.326 341.629 277.298 341.626 277.259C341.624 277.221 341.65 277.187 341.684 277.185C341.718 277.183 341.749 277.211 341.752 277.25Z" fill="#fff"/>
<path d="M378.377 267.925C378.379 267.963 378.353 267.997 378.319 267.999C378.285 268.001 378.254 267.973 378.251 267.934C378.249 267.896 378.275 267.862 378.309 267.86C378.343 267.858 378.374 267.886 378.377 267.925Z" fill="#fff"/>
<path d="M367.272 276.067C367.274 276.105 367.248 276.139 367.214 276.141C367.18 276.143 367.149 276.115 367.146 276.076C367.144 276.038 367.17 276.004 367.204 276.002C367.238 276 367.269 276.028 367.272 276.067Z" fill="#fff"/>
<path d="M385.166 265.615C385.168 265.653 385.142 265.687 385.108 265.689C385.074 265.691 385.043 265.663 385.04 265.624C385.038 265.586 385.064 265.552 385.098 265.55C385.132 265.548 385.163 265.576 385.166 265.615Z" fill="#fff"/>
<path d="M379.587 259.648C379.589 259.686 379.563 259.72 379.529 259.722C379.495 259.724 379.464 259.696 379.461 259.657C379.459 259.619 379.485 259.585 379.519 259.583C379.553 259.581 379.584 259.609 379.587 259.648Z" fill="#fff"/>
<path d="M370.947 253.482C370.949 253.52 370.923 253.553 370.889 253.555C370.855 253.557 370.824 253.529 370.821 253.49C370.819 253.452 370.845 253.419 370.879 253.417C370.913 253.415 370.944 253.443 370.947 253.482Z" fill="#fff"/>
<path d="M370.145 254.619C370.147 254.657 370.121 254.69 370.087 254.692C370.053 254.694 370.022 254.666 370.019 254.627C370.017 254.589 370.043 254.556 370.077 254.554C370.111 254.552 370.142 254.58 370.145 254.619Z" fill="#fff"/>
<path d="M387.506 250.907C387.508 250.945 387.482 250.978 387.448 250.98C387.414 250.982 387.383 250.954 387.38 250.915C387.378 250.877 387.404 250.844 387.438 250.842C387.472 250.84 387.503 250.868 387.506 250.907Z" fill="#fff"/>
<path d="M384.455 256.384C384.457 256.422 384.431 256.456 384.397 256.458C384.363 256.46 384.332 256.432 384.329 256.393C384.327 256.355 384.353 256.321 384.387 256.319C384.421 256.317 384.452 256.345 384.455 256.384Z" fill="#fff"/>
<path d="M385.89 270.75C385.892 270.788 385.866 270.822 385.832 270.824C385.798 270.826 385.767 270.798 385.764 270.759C385.762 270.721 385.788 270.687 385.822 270.685C385.856 270.683 385.887 270.711 385.89 270.75Z" fill="#fff"/>
<path d="M342.049 182.471C342.049 182.571 341.968 182.652 341.867 182.652C341.766 182.652 341.685 182.571 341.685 182.471C341.685 182.371 341.766 182.29 341.867 182.29C341.968 182.29 342.049 182.371 342.049 182.471Z" fill="#fff"/>
<path d="M329.563 217.999C329.563 218.099 329.482 218.18 329.381 218.18C329.28 218.18 329.199 218.099 329.199 217.999C329.199 217.899 329.28 217.818 329.381 217.818C329.482 217.818 329.563 217.899 329.563 217.999Z" fill="#fff"/>
<path d="M324.927 224.655C324.927 224.755 324.846 224.836 324.745 224.836C324.644 224.836 324.563 224.755 324.563 224.655C324.563 224.555 324.644 224.474 324.745 224.474C324.846 224.474 324.927 224.555 324.927 224.655Z" fill="#fff"/>
<path d="M316.813 222.529C316.813 222.629 316.732 222.71 316.631 222.71C316.53 222.71 316.449 222.629 316.449 222.529C316.449 222.429 316.53 222.348 316.631 222.348C316.732 222.348 316.813 222.429 316.813 222.529Z" fill="#fff"/>
<path d="M287.151 230.685C287.151 230.785 287.07 230.866 286.969 230.866C286.868 230.866 286.787 230.785 286.787 230.685C286.787 230.585 286.868 230.504 286.969 230.504C287.07 230.504 287.151 230.585 287.151 230.685Z" fill="#fff"/>
<path d="M280.8 236.048C280.8 236.148 280.719 236.229 280.618 236.229C280.517 236.229 280.436 236.148 280.436 236.048C280.436 235.948 280.517 235.867 280.618 235.867C280.719 235.867 280.8 235.948 280.8 236.048Z" fill="#fff"/>
<path d="M329.297 227.299C329.297 227.399 329.216 227.48 329.115 227.48C329.014 227.48 328.933 227.399 328.933 227.299C328.933 227.199 329.014 227.118 329.115 227.118C329.216 227.118 329.297 227.199 329.297 227.299Z" fill="#fff"/>
<path d="M333.885 218.757C333.885 218.857 333.804 218.938 333.703 218.938C333.602 218.938 333.521 218.857 333.521 218.757C333.521 218.657 333.602 218.576 333.703 218.576C333.804 218.576 333.885 218.657 333.885 218.757Z" fill="#fff"/>
<path d="M343.168 209.742C343.168 209.842 343.087 209.923 342.986 209.923C342.885 209.923 342.804 209.842 342.804 209.742C342.804 209.642 342.885 209.561 342.986 209.561C343.087 209.561 343.168 209.642 343.168 209.742Z" fill="#fff"/>
<path d="M347.248 217.306C347.248 217.406 347.167 217.487 347.066 217.487C346.965 217.487 346.884 217.406 346.884 217.306C346.884 217.206 346.965 217.125 347.066 217.125C347.167 217.125 347.248 217.206 347.248 217.306Z" fill="#fff"/>
<path d="M339.115 238.648C339.115 238.748 339.034 238.829 338.933 238.829C338.832 238.829 338.751 238.748 338.751 238.648C338.751 238.548 338.832 238.467 338.933 238.467C339.034 238.467 339.115 238.548 339.115 238.648Z" fill="#fff"/>
<path d="M335.644 244.444C335.646 244.482 335.62 244.515 335.586 244.517C335.552 244.519 335.521 244.491 335.518 244.452C335.516 244.414 335.542 244.381 335.576 244.379C335.61 244.377 335.641 244.405 335.644 244.444Z" fill="#fff"/>
<path d="M329.317 234.844C329.319 234.882 329.293 234.915 329.259 234.917C329.225 234.919 329.194 234.891 329.191 234.852C329.189 234.814 329.215 234.781 329.249 234.779C329.283 234.777 329.314 234.805 329.317 234.844Z" fill="#fff"/>
<path d="M325.692 229.909C325.694 229.947 325.668 229.98 325.634 229.982C325.6 229.984 325.569 229.956 325.566 229.917C325.564 229.879 325.59 229.846 325.624 229.844C325.658 229.842 325.689 229.87 325.692 229.909Z" fill="#fff"/>
<path d="M296.778 235.439C296.78 235.477 296.754 235.51 296.72 235.512C296.686 235.514 296.655 235.486 296.652 235.447C296.65 235.409 296.676 235.376 296.71 235.374C296.744 235.372 296.775 235.4 296.778 235.439Z" fill="#fff"/>
<path d="M279.049 229.103C279.051 229.141 279.025 229.174 278.991 229.176C278.957 229.178 278.926 229.15 278.923 229.111C278.921 229.073 278.947 229.04 278.981 229.038C279.015 229.036 279.046 229.064 279.049 229.103Z" fill="#fff"/>
<path d="M286.151 225.768C286.153 225.806 286.127 225.839 286.093 225.841C286.059 225.843 286.028 225.815 286.025 225.776C286.023 225.738 286.049 225.705 286.083 225.703C286.117 225.701 286.148 225.729 286.151 225.768Z" fill="#fff"/>
<path d="M283.028 246.544C283.03 246.582 283.004 246.615 282.97 246.617C282.936 246.619 282.905 246.591 282.902 246.552C282.9 246.514 282.926 246.481 282.96 246.479C282.994 246.477 283.025 246.505 283.028 246.544Z" fill="#fff"/>
<path d="M344.418 188.641C344.42 188.679 344.394 188.712 344.36 188.714C344.326 188.716 344.295 188.688 344.292 188.649C344.29 188.611 344.316 188.578 344.35 188.576C344.384 188.574 344.415 188.602 344.418 188.641Z" fill="#fff"/>
<path d="M339.986 188.366C339.988 188.404 339.962 188.437 339.928 188.439C339.894 188.441 339.863 188.413 339.86 188.374C339.858 188.336 339.884 188.303 339.918 188.301C339.952 188.299 339.983 188.327 339.986 188.366Z" fill="#fff"/>
<path d="M334.58 194.644C334.582 194.682 334.556 194.715 334.522 194.717C334.488 194.719 334.457 194.691 334.454 194.652C334.452 194.614 334.478 194.581 334.512 194.579C334.546 194.577 334.577 194.605 334.58 194.644Z" fill="#fff"/>
<path d="M337.87 197.42C337.872 197.458 337.846 197.491 337.812 197.493C337.778 197.495 337.747 197.467 337.744 197.428C337.742 197.39 337.768 197.357 337.802 197.355C337.836 197.353 337.867 197.381 337.87 197.42Z" fill="#fff"/>
<path d="M346.839 198.657C346.841 198.695 346.815 198.728 346.781 198.73C346.747 198.732 346.716 198.704 346.713 198.665C346.711 198.627 346.737 198.594 346.771 198.592C346.805 198.59 346.836 198.618 346.839 198.657Z" fill="#fff"/>
<path d="M349.703 192.899C349.705 192.937 349.679 192.97 349.645 192.972C349.611 192.974 349.58 192.946 349.577 192.907C349.575 192.869 349.601 192.836 349.635 192.834C349.669 192.832 349.7 192.86 349.703 192.899Z" fill="#fff"/>
<path d="M292.427 247.002C292.429 247.04 292.403 247.073 292.369 247.075C292.335 247.077 292.304 247.049 292.301 247.01C292.299 246.972 292.325 246.939 292.359 246.937C292.393 246.935 292.424 246.963 292.427 247.002Z" fill="#fff"/>
<path d="M322.531 244.211C322.533 244.249 322.507 244.282 322.473 244.284C322.439 244.286 322.408 244.258 322.405 244.219C322.403 244.181 322.429 244.148 322.463 244.146C322.497 244.144 322.528 244.172 322.531 244.211Z" fill="#fff"/>
<path d="M296.721 242.937C296.723 242.975 296.697 243.008 296.663 243.01C296.629 243.012 296.598 242.984 296.595 242.945C296.593 242.907 296.619 242.874 296.653 242.872C296.687 242.87 296.718 242.898 296.721 242.937Z" fill="#fff"/>
<path d="M307.202 241.644C307.204 241.682 307.178 241.715 307.144 241.717C307.11 241.719 307.079 241.691 307.076 241.652C307.074 241.614 307.1 241.581 307.134 241.579C307.168 241.577 307.199 241.605 307.202 241.644Z" fill="#fff"/>
<path d="M300.366 226.542C300.368 226.58 300.342 226.613 300.308 226.615C300.274 226.617 300.243 226.589 300.24 226.55C300.238 226.512 300.264 226.479 300.298 226.477C300.332 226.475 300.363 226.503 300.366 226.542Z" fill="#fff"/>
<path d="M310.037 233.315C310.039 233.353 310.013 233.386 309.979 233.388C309.945 233.39 309.914 233.362 309.911 233.323C309.909 233.285 309.935 233.252 309.969 233.25C310.003 233.248 310.034 233.276 310.037 233.315Z" fill="#fff"/>
<path d="M319.129 231.528C319.131 231.566 319.105 231.599 319.071 231.601C319.037 231.603 319.006 231.575 319.003 231.536C319.001 231.498 319.027 231.465 319.061 231.463C319.095 231.461 319.126 231.489 319.129 231.528Z" fill="#fff"/>
<path d="M316.946 235.637C316.948 235.675 316.922 235.708 316.888 235.71C316.854 235.712 316.823 235.684 316.82 235.645C316.818 235.607 316.844 235.574 316.878 235.572C316.912 235.57 316.943 235.598 316.946 235.637Z" fill="#fff"/>
<path d="M310.193 245.691C310.195 245.729 310.169 245.762 310.135 245.764C310.101 245.766 310.07 245.738 310.067 245.699C310.065 245.661 310.091 245.628 310.125 245.626C310.159 245.624 310.19 245.652 310.193 245.691Z" fill="#fff"/>
<path d="M346.817 236.366C346.819 236.404 346.793 236.437 346.759 236.439C346.725 236.441 346.694 236.413 346.691 236.374C346.689 236.336 346.715 236.303 346.749 236.301C346.783 236.299 346.814 236.327 346.817 236.366Z" fill="#fff"/>
<path d="M335.714 244.508C335.716 244.546 335.69 244.579 335.656 244.581C335.622 244.583 335.591 244.555 335.588 244.516C335.586 244.478 335.612 244.445 335.646 244.443C335.68 244.441 335.711 244.469 335.714 244.508Z" fill="#fff"/>
<path d="M353.606 234.055C353.608 234.093 353.582 234.126 353.548 234.128C353.514 234.13 353.483 234.102 353.48 234.063C353.478 234.025 353.504 233.992 353.538 233.99C353.572 233.988 353.603 234.016 353.606 234.055Z" fill="#fff"/>
<path d="M348.027 228.089C348.029 228.127 348.003 228.16 347.969 228.162C347.935 228.164 347.904 228.136 347.901 228.097C347.899 228.059 347.925 228.026 347.959 228.024C347.993 228.022 348.024 228.05 348.027 228.089Z" fill="#fff"/>
<path d="M339.389 221.923C339.391 221.961 339.365 221.994 339.331 221.996C339.297 221.998 339.266 221.97 339.263 221.931C339.261 221.893 339.287 221.86 339.321 221.858C339.355 221.856 339.386 221.884 339.389 221.923Z" fill="#fff"/>
<path d="M338.586 223.061C338.588 223.099 338.562 223.132 338.528 223.134C338.494 223.136 338.463 223.108 338.46 223.069C338.458 223.031 338.484 222.998 338.518 222.996C338.552 222.994 338.583 223.022 338.586 223.061Z" fill="#fff"/>
<path d="M355.947 219.349C355.949 219.387 355.923 219.42 355.889 219.422C355.855 219.424 355.824 219.396 355.821 219.357C355.819 219.319 355.845 219.286 355.879 219.284C355.913 219.282 355.944 219.31 355.947 219.349Z" fill="#fff"/>
<path d="M352.897 224.825C352.899 224.863 352.873 224.896 352.839 224.898C352.805 224.9 352.774 224.872 352.771 224.833C352.769 224.795 352.795 224.762 352.829 224.76C352.863 224.758 352.894 224.786 352.897 224.825Z" fill="#fff"/>
<path d="M354.334 239.192C354.336 239.23 354.31 239.263 354.276 239.265C354.242 239.267 354.211 239.239 354.208 239.2C354.206 239.162 354.232 239.129 354.266 239.127C354.3 239.125 354.331 239.153 354.334 239.192Z" fill="#fff"/>
<path d="M386.47 285.642C386.47 285.742 386.389 285.824 386.288 285.824C386.187 285.824 386.106 285.743 386.106 285.642C386.106 285.542 386.187 285.46 386.288 285.46C386.389 285.46 386.47 285.541 386.47 285.642Z" fill="#fff"/>
<path d="M307.711 290.521C307.711 290.621 307.63 290.703 307.529 290.703C307.428 290.703 307.347 290.622 307.347 290.521C307.347 290.421 307.428 290.339 307.529 290.339C307.63 290.339 307.711 290.42 307.711 290.521Z" fill="#fff"/>
<path d="M311.341 284.969C311.341 285.007 311.312 285.039 311.278 285.039C311.244 285.039 311.215 285.008 311.215 284.969C311.215 284.931 311.244 284.899 311.278 284.899C311.312 284.899 311.341 284.93 311.341 284.969Z" fill="#fff"/>
<path d="M358.211 290.702C358.211 290.74 358.182 290.772 358.148 290.772C358.114 290.772 358.085 290.741 358.085 290.702C358.085 290.664 358.114 290.632 358.148 290.632C358.182 290.632 358.211 290.663 358.211 290.702Z" fill="#fff"/>
<path d="M363.977 286.545C363.977 286.583 363.948 286.615 363.914 286.615C363.88 286.615 363.851 286.584 363.851 286.545C363.851 286.507 363.88 286.475 363.914 286.475C363.948 286.475 363.977 286.506 363.977 286.545Z" fill="#fff"/>
<path d="M385.656 288.773C385.656 288.811 385.627 288.843 385.593 288.843C385.559 288.843 385.53 288.812 385.53 288.773C385.53 288.735 385.559 288.703 385.593 288.703C385.627 288.703 385.656 288.734 385.656 288.773Z" fill="#fff"/>
<path d="M371.479 290.843C371.479 290.881 371.45 290.913 371.416 290.913C371.382 290.913 371.353 290.882 371.353 290.843C371.353 290.805 371.382 290.773 371.416 290.773C371.45 290.773 371.479 290.804 371.479 290.843Z" fill="#fff"/>
<path d="M354.632 285.43C354.632 285.468 354.603 285.5 354.569 285.5C354.535 285.5 354.506 285.469 354.506 285.43C354.506 285.392 354.535 285.36 354.569 285.36C354.603 285.36 354.632 285.391 354.632 285.43Z" fill="#fff"/>
<path d="M324.406 286.115C324.406 286.153 324.377 286.185 324.343 286.185C324.309 286.185 324.28 286.154 324.28 286.115C324.28 286.077 324.309 286.045 324.343 286.045C324.377 286.045 324.406 286.076 324.406 286.115Z" fill="#fff"/>
<path d="M339.52 289.743C339.52 289.781 339.491 289.813 339.457 289.813C339.423 289.813 339.394 289.782 339.394 289.743C339.394 289.705 339.423 289.673 339.457 289.673C339.491 289.673 339.52 289.704 339.52 289.743Z" fill="#fff"/>
<path d="M350.065 289.186C350.065 289.224 350.036 289.256 350.002 289.256C349.968 289.256 349.939 289.225 349.939 289.186C349.939 289.148 349.968 289.116 350.002 289.116C350.036 289.116 350.065 289.147 350.065 289.186Z" fill="#fff"/>
<path d="M336.819 285.499C336.819 285.537 336.79 285.569 336.756 285.569C336.722 285.569 336.693 285.538 336.693 285.499C336.693 285.461 336.722 285.429 336.756 285.429C336.79 285.429 336.819 285.46 336.819 285.499Z" fill="#fff"/>
<path d="M311.277 284.899C311.277 284.937 311.248 284.969 311.214 284.969C311.18 284.969 311.151 284.938 311.151 284.899C311.151 284.861 311.18 284.829 311.214 284.829C311.248 284.829 311.277 284.86 311.277 284.899Z" fill="#fff"/>
<path d="M292.332 288.902C292.332 288.94 292.303 288.972 292.269 288.972C292.235 288.972 292.206 288.941 292.206 288.902C292.206 288.864 292.235 288.832 292.269 288.832C292.303 288.832 292.332 288.863 292.332 288.902Z" fill="#fff"/>
<path d="M354.885 283.009C354.885 283.109 354.804 283.191 354.703 283.191C354.602 283.191 354.521 283.11 354.521 283.009C354.521 282.909 354.602 282.827 354.703 282.827C354.804 282.827 354.885 282.908 354.885 283.009Z" fill="#fff"/>
<path d="M357.253 289.177C357.255 289.215 357.229 289.249 357.195 289.251C357.161 289.253 357.13 289.225 357.127 289.186C357.125 289.148 357.151 289.114 357.185 289.112C357.219 289.11 357.25 289.138 357.253 289.177Z" fill="#fff"/>
<path d="M352.821 288.901C352.823 288.939 352.797 288.973 352.763 288.975C352.729 288.977 352.698 288.949 352.695 288.91C352.693 288.872 352.719 288.838 352.753 288.836C352.787 288.834 352.818 288.862 352.821 288.901Z" fill="#fff"/>
</svg>