<svg id="_Слой_2" data-name="Слой 2" xmlns="http://www.w3.org/2000/svg" xmlns:xlink="http://www.w3.org/1999/xlink" viewBox="0 0 3441.54 2653.89">

  <defs>
    <style>
      .cls-1 {
        fill: #1b1834;
      }

      .cls-1, .cls-2, .cls-3, .cls-4, .cls-5, .cls-6, .cls-7, .cls-8, .cls-9, .cls-10, .cls-11, .cls-12, .cls-13, .cls-14, .cls-15, .cls-16, .cls-17, .cls-18, .cls-19, .cls-20, .cls-21, .cls-22, .cls-23, .cls-24, .cls-25, .cls-26, .cls-27, .cls-28, .cls-29, .cls-30, .cls-31, .cls-32, .cls-33 {
        stroke-width: 0px;
      }

      .cls-34 {
        opacity: .13;
      }

      .cls-35 {
        fill: url(#_Безымянный_градиент_33);
      }

      .cls-35, .cls-36, .cls-37, .cls-38, .cls-39, .cls-40, .cls-41 {
        stroke: #1d1d1b;
      }

      .cls-35, .cls-36, .cls-37, .cls-38, .cls-39, .cls-41, .cls-42 {
        stroke-miterlimit: 10;
      }

      .cls-2 {
        fill: #ad977a;
      }

      .cls-3, .cls-40 {
        fill: #beb6c3;
      }

      .cls-43 {
        clip-path: url(#clippath-20);
      }

      .cls-4 {
        fill: #f2e4cc;
      }

      .cls-44 {
        clip-path: url(#clippath-11);
      }

      .cls-45 {
        clip-path: url(#clippath-16);
      }

      .cls-5 {
        fill: #e3d2b8;
      }

      .cls-6 {
        fill: #ebdcc4;
      }

      .cls-7 {
        fill: #d4c1a5;
      }

      .cls-36 {
        stroke-linecap: round;
      }

      .cls-36, .cls-37 {
        stroke-width: .75px;
      }

      .cls-36, .cls-37, .cls-14, .cls-38, .cls-41 {
        fill: none;
      }

      .cls-8 {
        fill: #dac8ad;
      }

      .cls-46 {
        opacity: .24;
      }

      .cls-9 {
        fill: #e7d7be;
      }

      .cls-47 {
        clip-path: url(#clippath-2);
      }

      .cls-48 {
        clip-path: url(#clippath-13);
      }

      .cls-49 {
        clip-path: url(#clippath-25);
      }

      .cls-50 {
        clip-path: url(#clippath-15);
      }

      .cls-10 {
        fill: #f5e7d0;
      }

      .cls-51 {
        clip-path: url(#clippath-6);
      }

      .cls-11 {
        fill: #3d3b39;
      }

      .cls-12 {
        fill: #f7e8d2;
      }

      .cls-52 {
        clip-path: url(#clippath-26);
      }

      .cls-13 {
        fill: #60564a;
      }

      .cls-15 {
        fill: #524b4f;
      }

      .cls-16 {
        fill: #aa9476;
      }

      .cls-53 {
        clip-path: url(#clippath-7);
      }

      .cls-54 {
        clip-path: url(#clippath-21);
      }

      .cls-17 {
        fill: #b8a488;
      }

      .cls-39 {
        fill: #b2aec0;
        stroke-width: .5px;
      }

      .cls-55 {
        clip-path: url(#clippath-1);
      }

      .cls-56 {
        opacity: .44;
      }

      .cls-57 {
        clip-path: url(#clippath-4);
      }

      .cls-18 {
        fill: #ab9577;
      }

      .cls-58 {
        clip-path: url(#clippath-27);
      }

      .cls-19 {
        fill: #ae997c;
      }

      .cls-20 {
        fill: #e0ceb4;
      }

      .cls-21 {
        fill: url(#_Безымянный_градиент_30);
      }

      .cls-22, .cls-42, .cls-32 {
        fill: #fff;
      }

      .cls-59 {
        clip-path: url(#clippath-24);
      }

      .cls-60 {
        clip-path: url(#clippath-30);
      }

      .cls-23 {
        fill: #bfab8e;
      }

      .cls-61 {
        clip-path: url(#clippath-22);
      }

      .cls-24 {
        fill: #ac9679;
      }

      .cls-62 {
        clip-path: url(#clippath-9);
      }

      .cls-63 {
        clip-path: url(#clippath);
      }

      .cls-25 {
        fill: #f3e5ce;
      }

      .cls-64 {
        clip-path: url(#clippath-19);
      }

      .cls-65 {
        clip-path: url(#clippath-3);
      }

      .cls-26 {
        fill: #f0e1c8;
      }

      .cls-27 {
        fill: #ccb89d;
      }

      .cls-66 {
        opacity: .21;
      }

      .cls-40 {
        stroke-linejoin: bevel;
      }

      .cls-67 {
        clip-path: url(#clippath-8);
      }

      .cls-41 {
        opacity: .76;
        stroke-width: .25px;
      }

      .cls-42 {
        stroke: #fff;
      }

      .cls-68 {
        clip-path: url(#clippath-29);
      }

      .cls-69 {
        clip-path: url(#clippath-18);
      }

      .cls-70 {
        clip-path: url(#clippath-14);
      }

      .cls-71 {
        clip-path: url(#clippath-17);
      }

      .cls-72 {
        clip-path: url(#clippath-5);
      }

      .cls-28 {
        fill: #45403b;
      }

      .cls-73 {
        clip-path: url(#clippath-10);
      }

      .cls-29 {
        fill: #1d1d1b;
      }

      .cls-30 {
        fill: #aa9375;
      }

      .cls-74 {
        clip-path: url(#clippath-23);
      }

      .cls-31 {
        fill: #c6b297;
      }

      .cls-75 {
        clip-path: url(#clippath-28);
      }

      .cls-32 {
        opacity: .12;
      }

      .cls-33 {
        fill: #b19d80;
      }
    </style>
    <clipPath id="clippath">
      <path class="cls-14" d="m1673.29,1279.06s-12.9,10.39-21.8,33.55c-8.9,23.15-35.98,115.02-30.74,125.82,0,0,37.57-40.3,75.15-101.55,0,0,16.16-22.41,14.23-40.53s-36.85-17.29-36.85-17.29Z"/>
    </clipPath>
    <clipPath id="clippath-1">
      <rect class="cls-14" x="1615.07" y="1274.06" width="100.23" height="169.38"/>
    </clipPath>
    <clipPath id="clippath-2">
      <rect class="cls-14" x="1615.07" y="1274.06" width="100.23" height="169.38"/>
    </clipPath>
    <clipPath id="clippath-3">
      <path class="cls-14" d="m1773.1,1222.07s-1.57,3.68,5.5,20.01c0,0,4.95,9.69,3.13,15.3-1.82,5.61-13.49,49.31-42.58,81.32,0,0-4.38-53.03-7.39-54.87-3-1.84,41.34-61.75,41.34-61.75Z"/>
    </clipPath>
    <clipPath id="clippath-4">
      <rect class="cls-14" x="1726.58" y="1217.07" width="60.55" height="126.63"/>
    </clipPath>
    <clipPath id="clippath-5">
      <rect class="cls-14" x="1726.58" y="1217.07" width="60.55" height="126.63"/>
    </clipPath>
    <clipPath id="clippath-6">
      <path class="cls-14" d="m1809.49,1034.87s-13.59,29.22-21.13,33.78c-7.54,4.56-49.63,27.03-74.46,63.98-18.35,27.31-26.54,49.2-29.42,57.02-2.29,6.24-8.07,25.51-8.97,29.11-2.98,12.01-5.61,23.78-7.92,35.29,0,0-.34,16.67.21,17.69.4.75,2.32,1.17,2.39,1.53.08.36-.83,4.89-.43,5.28.32.31,2.39,1.37,2.39,1.37l16.37,8.62s2.26,1.76,3.67,2.29c.93.5,2.09,1.29,3.78,1.89,0,0,14.81,6.89,16.59,6.5,1.78-.39,4.07-3.31,4.2-3.86,0,0,2.82.83,4.54-.73,1.72-1.57,12.41-11.44,12.41-11.44,0,0,28.1-37.79,37.27-56.15,6.52-13.06,29.07-57.15,30.9-88.6,2.37-40.62-3.93-56.22-4.71-65.67-.72-8.75,8.09-28.11,12.32-37.91Z"/>
    </clipPath>
    <clipPath id="clippath-7">
      <rect class="cls-14" x="1662.47" y="1029.86" width="152.01" height="274.38"/>
    </clipPath>
    <clipPath id="clippath-8">
      <rect class="cls-14" x="1662.47" y="1029.86" width="152.01" height="274.38"/>
    </clipPath>
    <clipPath id="clippath-9">
      <path class="cls-14" d="m1716.76,1295.37s2.82.83,4.54-.73c1.32-1.21,7.99-7.36,10.96-10.11-35.1-10.27-60.07-28.35-64.42-31.63-.08.38-.16.77-.24,1.16,0,0-.34,16.67.21,17.69.4.75,2.32,1.17,2.39,1.53.08.36-.83,4.89-.43,5.28.32.31,2.39,1.37,2.39,1.37l16.37,8.62s2.26,1.76,3.67,2.29c.93.5,2.09,1.29,3.77,1.89,0,0,14.81,6.89,16.59,6.5,1.78-.39,4.07-3.31,4.2-3.86Z"/>
    </clipPath>
    <clipPath id="clippath-10">
      <rect class="cls-14" x="1662.47" y="1247.89" width="74.78" height="56.35"/>
    </clipPath>
    <clipPath id="clippath-11">
      <rect class="cls-14" x="1662.47" y="1247.89" width="74.78" height="56.35"/>
    </clipPath>
    <clipPath id="clippath-13">
      <path class="cls-14" d="m1695.96,1292.73s14.81,6.89,16.59,6.5c1.78-.39,4.07-3.31,4.2-3.86,0,0-10.57-1.37-46.57-21.81-.11,1.07-.77,4.65-.42,5,.32.31,2.39,1.37,2.39,1.37l16.37,8.62s2.26,1.76,3.67,2.29c.93.5,2.09,1.29,3.77,1.89Z"/>
    </clipPath>
    <clipPath id="clippath-14">
      <rect class="cls-14" x="1664.67" y="1268.56" width="57.09" height="35.69"/>
    </clipPath>
    <clipPath id="clippath-15">
      <rect class="cls-14" x="1664.67" y="1268.56" width="57.09" height="35.69"/>
    </clipPath>
    <clipPath id="clippath-16">
      <path class="cls-14" d="m1734.84,1107.79c4.4,3.94,19.76,12.47,33.76,19.04,18.8,8.82,28.93,10.59,33.28,11.59,2.37-40.61-3.93-56.2-4.71-65.65-.72-8.75,8.09-28.11,12.32-37.91,0,0-13.59,29.22-21.13,33.78-5.66,3.43-30.83,16.96-53.52,39.15Z"/>
    </clipPath>
    <clipPath id="clippath-17">
      <rect class="cls-14" x="1729.84" y="1029.86" width="84.65" height="113.56"/>
    </clipPath>
    <clipPath id="clippath-18">
      <rect class="cls-14" x="1729.84" y="1029.86" width="84.65" height="113.56"/>
    </clipPath>
    <clipPath id="clippath-19">
      <path class="cls-14" d="m1686.76,1181.55s-1.83,3.56-18.91,8.56c0,0-10.61,2.38-13.77,7.37s-29.31,41.89-35.34,84.72c0,0,43.59-30.52,46.93-29.38s21.08-71.26,21.08-71.26Z"/>
    </clipPath>
    <clipPath id="clippath-20">
      <rect class="cls-14" x="1613.75" y="1176.55" width="78.01" height="110.64"/>
    </clipPath>
    <clipPath id="clippath-21">
      <rect class="cls-14" x="1613.75" y="1176.55" width="78.01" height="110.64"/>
    </clipPath>
    <linearGradient id="_Безымянный_градиент_30" data-name="Безымянный градиент 30" x1="1600.56" y1="1665.48" x2="1635.52" y2="1685.64" gradientTransform="translate(1001.38 -1045.69) rotate(25.14)" gradientUnits="userSpaceOnUse">
      <stop offset="0" stop-color="#e5e1d8"/>
      <stop offset="1" stop-color="#e48f52"/>
    </linearGradient>
    <linearGradient id="_Безымянный_градиент_33" data-name="Безымянный градиент 33" x1="1618.23" y1="1727.2" x2="1618.23" y2="1817.1" gradientTransform="translate(1001.38 -1045.69) rotate(25.14)" gradientUnits="userSpaceOnUse">
      <stop offset="0" stop-color="#a63317"/>
      <stop offset="1" stop-color="#c81e25"/>
    </linearGradient>
    <clipPath id="clippath-22">
      <path class="cls-14" d="m1833.77,1271.62s-7.26,1.08-8.8-1.25c0,0,9.48-37.79,10.12-38.8s2.64-1.62,8.55,1.48c5.91,3.1.41,24.41.25,24.75s-10.12,13.83-10.12,13.83Z"/>
    </clipPath>
    <clipPath id="clippath-23">
      <rect class="cls-14" x="1819.96" y="1225.75" width="31.42" height="51.12"/>
    </clipPath>
    <clipPath id="clippath-24">
      <rect class="cls-14" x="1819.96" y="1225.75" width="31.42" height="51.12"/>
    </clipPath>
    <clipPath id="clippath-25">
      <path class="cls-14" d="m1875.8,1232.63c-.2-2.57-1.02-5.08-2.5-7.19-2.31-3.3-6.75-7.47-14.75-8.39-11.07-1.28-15.47,9.11-16.74,13.1-.25.79-.76,2.6-.99,4.07-.36,2.3-.42,10.43-1.55,10.85-9.85,3.64-9.22,13.08-9.41,14.34-1.71,11.21-1.08,7.53-1.81,10.66-.22.96-.88,2.11-1.39,2.96-.27.45-.63,1-1.11,1.64-1.04,1.41.38,2.32,1.71,2.49,2.43.32,2.02-.84.7,1.89-.81,1.67-2.09,3.8-3.08,5.39-1.95,3.12-3.88,5.83-.15,8.85s4.42,3.67,5.81,3.14,2.21-2.52,3.45-7.26c1.13-4.33,3.29-7.9,6.48-10.41.48-.38,1.04-.38,1.76-.06.49.22.89.42,1,.61.21.36-3.66,5.97-3.91,11.66s-.03,5.49.21,7.14c.22,1.49.5,2.89,3.06,3.85,1.5.56,4.45-.23,4.8-.58s.83-.74.83-1.72-1.45-8.24.35-11.54c1.65-3.04,3.91-8.04,4.49-10.01.09-.29-.31.01-.07-.17.81-.62,3.21-2.63,3.68-3.58,0,0-4.11,8.97-4.78,9.44,0,0-1.55,2.43,4.66,1.76,0,0,1.15.09,2.57-2.86,1.42-2.94,10.48-17.16,5.42-27.75-.05-.1-.1-.18-.16-.27h0c-.59-.79-.24-1.94.71-2.24,4.1-1.31,11.87-4.89,10.71-19.79Z"/>
    </clipPath>
    <clipPath id="clippath-26">
      <rect class="cls-14" x="1817.62" y="1211.94" width="63.3" height="95.2"/>
    </clipPath>
    <clipPath id="clippath-27">
      <rect class="cls-14" x="1817.62" y="1211.94" width="63.3" height="95.2"/>
    </clipPath>
    <clipPath id="clippath-28">
      <path class="cls-14" d="m1856.15,1248.57c7.07,3.32,15.5.28,18.82-6.8.19-.41.36-.82.51-1.24.42-2.2.57-4.8.33-7.9-.02-.3-.06-.61-.1-.91-1.11-3.73-3.73-6.98-7.53-8.77-7.07-3.32-15.5-.28-18.82,6.8-3.32,7.07-.28,15.5,6.8,18.82Z"/>
    </clipPath>
    <clipPath id="clippath-29">
      <rect class="cls-14" x="1843" y="1216.61" width="37.91" height="38.3"/>
    </clipPath>
    <clipPath id="clippath-30">
      <rect class="cls-14" x="1843" y="1216.61" width="37.91" height="38.3"/>
    </clipPath>
  </defs>
  <g id="_Слой_3" data-name="Слой 3">
    <circle class="cls-22" cx="1569.44" cy="1094.98" r=".94"/>
    <circle class="cls-22" cx="1595.81" cy="1062.24" r=".94"/>
    <circle class="cls-22" cx="1637" cy="1076.18" r=".94"/>
    <circle class="cls-22" cx="1789.88" cy="1023.72" r=".94"/>
    <circle class="cls-22" cx="1793.33" cy="1044.72" r=".94"/>
    <circle class="cls-22" cx="1829.99" cy="1035.61" r=".94"/>
    <circle class="cls-22" cx="1868.2" cy="1039.62" r=".94"/>
    <circle class="cls-22" cx="1891.16" cy="1050.88" r=".94"/>
    <circle class="cls-22" cx="1904.65" cy="1070.43" r=".94"/>
    <circle class="cls-22" cx="1935.61" cy="1109.4" r=".94"/>
    <circle class="cls-22" cx="1935.76" cy="959.47" r=".94"/>
    <circle class="cls-22" cx="1828.11" cy="1019.28" r=".94"/>
    <circle class="cls-22" cx="1574.18" cy="1046.98" r=".94"/>
    <circle class="cls-22" cx="1547.36" cy="1089.5" r=".94"/>
    <circle class="cls-22" cx="1496.11" cy="1132.76" r=".94"/>
    <circle class="cls-22" cx="1477.74" cy="1092.17" r=".94"/>
    <circle class="cls-22" cx="1527.51" cy="984.76" r=".94"/>
    <ellipse class="cls-22" cx="1546.94" cy="955.98" rx=".33" ry=".36"/>
    <ellipse class="cls-22" cx="1486.25" cy="993.7" rx=".33" ry=".36"/>
    <ellipse class="cls-22" cx="1576.18" cy="1007.92" rx=".33" ry=".36"/>
    <ellipse class="cls-22" cx="1593.15" cy="1034.73" rx=".33" ry=".36"/>
    <ellipse class="cls-22" cx="1744.66" cy="1016.59" rx=".33" ry=".36"/>
    <ellipse class="cls-22" cx="1788.94" cy="1031.77" rx=".33" ry=".36"/>
    <ellipse class="cls-22" cx="1789.88" cy="985.71" rx=".33" ry=".36"/>
    <ellipse class="cls-22" cx="1834.04" cy="1055.77" rx=".33" ry=".36"/>
    <ellipse class="cls-22" cx="1830.94" cy="1031.41" rx=".33" ry=".36"/>
    <ellipse class="cls-22" cx="1796.11" cy="1070.43" rx=".33" ry=".36"/>
    <ellipse class="cls-22" cx="1819.78" cy="964.15" rx=".33" ry=".36"/>
    <ellipse class="cls-22" cx="1982.78" cy="1052.18" rx=".33" ry=".36"/>
    <ellipse class="cls-22" cx="1915.59" cy="1060.94" rx=".33" ry=".36"/>
    <ellipse class="cls-22" cx="1941.04" cy="1028.37" rx=".33" ry=".36"/>
    <ellipse class="cls-22" cx="1963.85" cy="1031.41" rx=".33" ry=".36"/>
    <ellipse class="cls-22" cx="1994.07" cy="1000.89" rx=".33" ry=".36"/>
    <ellipse class="cls-22" cx="1978.07" cy="985.34" rx=".33" ry=".36"/>
    <ellipse class="cls-22" cx="1932.15" cy="975.7" rx=".33" ry=".36"/>
    <ellipse class="cls-22" cx="1915.26" cy="1004.44" rx=".33" ry=".36"/>
    <ellipse class="cls-22" cx="1858.66" cy="986.43" rx=".33" ry=".36"/>
    <ellipse class="cls-22" cx="1875.52" cy="1016.95" rx=".33" ry=".36"/>
    <ellipse class="cls-22" cx="1771.33" cy="958.37" rx=".33" ry=".36"/>
    <ellipse class="cls-22" cx="1614.66" cy="961.93" rx=".33" ry=".36"/>
    <ellipse class="cls-22" cx="1747.66" cy="977.84" rx=".33" ry=".36"/>
    <ellipse class="cls-22" cx="1693" cy="980.73" rx=".33" ry=".36"/>
    <ellipse class="cls-22" cx="1747.66" cy="977.84" rx=".33" ry=".36"/>
    <ellipse class="cls-22" cx="1722.89" cy="1061.3" rx=".33" ry=".36"/>
    <ellipse class="cls-22" cx="1832.07" cy="1108.45" rx=".33" ry=".36"/>
    <ellipse class="cls-22" cx="1861.56" cy="1109.4" rx=".33" ry=".36"/>
    <ellipse class="cls-22" cx="1675.33" cy="1022.78" rx=".33" ry=".36"/>
    <ellipse class="cls-22" cx="1627.66" cy="1028.73" rx=".33" ry=".36"/>
    <ellipse class="cls-22" cx="1640.44" cy="1008.28" rx=".33" ry=".36"/>
    <ellipse class="cls-22" cx="1686.76" cy="1078.76" rx=".33" ry=".36"/>
    <ellipse class="cls-22" cx="1667.49" cy="1123.55" rx=".33" ry=".36"/>
    <ellipse class="cls-22" cx="1605.43" cy="1126.38" rx=".33" ry=".36"/>
    <ellipse class="cls-22" cx="1679" cy="958.73" rx=".33" ry=".36"/>
    <ellipse class="cls-22" cx="1486.25" cy="993.7" rx=".33" ry=".36"/>
    <ellipse class="cls-22" cx="1546.61" cy="955.62" rx=".33" ry=".36"/>
    <ellipse class="cls-22" cx="1450.3" cy="1003.2" rx=".33" ry=".36"/>
    <ellipse class="cls-22" cx="1477" cy="1036.06" rx=".33" ry=".36"/>
    <ellipse class="cls-22" cx="1519.44" cy="1071.06" rx=".33" ry=".36"/>
    <ellipse class="cls-22" cx="1524" cy="1065.48" rx=".33" ry=".36"/>
    <ellipse class="cls-22" cx="1432.89" cy="1078.4" rx=".33" ry=".36"/>
    <ellipse class="cls-22" cx="1450.64" cy="1051.18" rx=".33" ry=".36"/>
    <ellipse class="cls-22" cx="1448.41" cy="976.37" rx=".33" ry=".36"/>
    <circle class="cls-22" cx="1870.89" cy="1293.55" r=".94"/>
    <circle class="cls-22" cx="1846.86" cy="1328.05" r=".94"/>
    <circle class="cls-22" cx="1804.8" cy="1317.03" r=".94"/>
    <circle class="cls-22" cx="1655.95" cy="1380.01" r=".94"/>
    <circle class="cls-22" cx="1651.05" cy="1359.31" r=".94"/>
    <circle class="cls-22" cx="1615.11" cy="1370.95" r=".94"/>
    <circle class="cls-22" cx="1576.71" cy="1369.62" r=".94"/>
    <circle class="cls-22" cx="1553.02" cy="1359.99" r=".94"/>
    <circle class="cls-22" cx="1538.21" cy="1341.42" r=".94"/>
    <circle class="cls-22" cx="1504.6" cy="1304.71" r=".94"/>
    <circle class="cls-22" cx="1514.91" cy="1454.29" r=".94"/>
    <circle class="cls-22" cx="1618.13" cy="1387.11" r=".94"/>
    <circle class="cls-22" cx="1869.51" cy="1341.77" r=".94"/>
    <circle class="cls-22" cx="1893.29" cy="1297.48" r=".94"/>
    <circle class="cls-22" cx="1941.41" cy="1250.75" r=".94"/>
    <circle class="cls-22" cx="1962.56" cy="1289.96" r=".94"/>
    <circle class="cls-22" cx="1920.4" cy="1400.58" r=".94"/>
    <ellipse class="cls-22" cx="1903.02" cy="1430.65" rx=".33" ry=".36" transform="translate(-95.16 136.23) rotate(-4)"/>
    <ellipse class="cls-22" cx="1960.94" cy="1388.78" rx=".33" ry=".36" transform="translate(-92.1 140.17) rotate(-4)"/>
    <ellipse class="cls-22" cx="1870.23" cy="1380.88" rx=".33" ry=".36" transform="translate(-91.77 133.82) rotate(-4)"/>
    <ellipse class="cls-22" cx="1851.44" cy="1355.31" rx=".33" ry=".36" transform="translate(-90.03 132.45) rotate(-4)"/>
    <ellipse class="cls-22" cx="1701.56" cy="1383.97" rx=".33" ry=".36" transform="translate(-92.4 122.07) rotate(-4)"/>
    <ellipse class="cls-22" cx="1656.33" cy="1371.92" rx=".33" ry=".36" transform="translate(-91.67 118.88) rotate(-4)"/>
    <ellipse class="cls-22" cx="1658.6" cy="1417.94" rx=".33" ry=".36" transform="translate(-94.87 119.15) rotate(-4)"/>
    <ellipse class="cls-22" cx="1609.67" cy="1351.13" rx=".33" ry=".36" transform="translate(-90.33 115.58) rotate(-4)"/>
    <ellipse class="cls-22" cx="1614.46" cy="1375.21" rx=".33" ry=".36" transform="translate(-92 115.97) rotate(-4)"/>
    <ellipse class="cls-22" cx="1646.48" cy="1333.85" rx=".33" ry=".36" transform="translate(-89.03 118.1) rotate(-4)"/>
    <ellipse class="cls-22" cx="1630.29" cy="1441.53" rx=".33" ry=".36" transform="translate(-96.58 117.23) rotate(-4)"/>
    <ellipse class="cls-22" cx="1461.54" cy="1365.08" rx=".33" ry=".36" transform="translate(-91.66 105.28) rotate(-4)"/>
    <ellipse class="cls-22" cx="1527.95" cy="1351.66" rx=".33" ry=".36" transform="translate(-90.57 109.88) rotate(-4)"/>
    <ellipse class="cls-22" cx="1504.84" cy="1385.92" rx=".33" ry=".36" transform="translate(-93.01 108.35) rotate(-4)"/>
    <ellipse class="cls-22" cx="1481.87" cy="1384.49" rx=".33" ry=".36" transform="translate(-92.97 106.74) rotate(-4)"/>
    <ellipse class="cls-22" cx="1453.85" cy="1417.04" rx=".33" ry=".36" transform="translate(-95.31 104.87) rotate(-4)"/>
    <ellipse class="cls-22" cx="1470.9" cy="1431.43" rx=".33" ry=".36" transform="translate(-96.27 106.09) rotate(-4)"/>
    <ellipse class="cls-22" cx="1517.38" cy="1437.84" rx=".33" ry=".36" transform="translate(-96.6 109.35) rotate(-4)"/>
    <ellipse class="cls-22" cx="1532.23" cy="1407.99" rx=".33" ry=".36" transform="translate(-94.48 110.31) rotate(-4)"/>
    <ellipse class="cls-22" cx="1525.77" cy="1183.04" rx=".33" ry=".36" transform="translate(-78.81 109.31) rotate(-4)"/>
    <ellipse class="cls-22" cx="1491.83" cy="1228.55" rx=".33" ry=".36" transform="translate(-82.07 107.06) rotate(-4)"/>
    <circle class="cls-22" cx="1958.58" cy="1209.77" r=".94"/>
    <ellipse class="cls-22" cx="1948.51" cy="1141.4" rx=".33" ry=".36" transform="translate(-74.87 138.7) rotate(-4)"/>
    <ellipse class="cls-22" cx="1925.53" cy="1139.97" rx=".33" ry=".36" transform="translate(-74.83 137.1) rotate(-4)"/>
    <ellipse class="cls-22" cx="1897.51" cy="1172.52" rx=".33" ry=".36" transform="translate(-77.17 135.22) rotate(-4)"/>
    <ellipse class="cls-22" cx="1914.56" cy="1186.91" rx=".33" ry=".36" transform="translate(-78.13 136.44) rotate(-4)"/>
    <ellipse class="cls-22" cx="1961.05" cy="1193.32" rx=".33" ry=".36" transform="translate(-78.46 139.7) rotate(-4)"/>
    <ellipse class="cls-22" cx="1975.89" cy="1163.47" rx=".33" ry=".36" transform="translate(-76.35 140.67) rotate(-4)"/>
    <ellipse class="cls-22" cx="1589.94" cy="1422.02" rx=".33" ry=".36" transform="translate(-95.32 114.37) rotate(-4)"/>
    <ellipse class="cls-22" cx="1571" cy="1392.74" rx=".33" ry=".36" transform="translate(-93.33 112.98) rotate(-4)"/>
    <ellipse class="cls-22" cx="1679.02" cy="1443.91" rx=".33" ry=".36" transform="translate(-96.63 120.64) rotate(-4)"/>
    <ellipse class="cls-22" cx="1835.05" cy="1429.44" rx=".33" ry=".36" transform="translate(-95.24 131.49) rotate(-4)"/>
    <ellipse class="cls-22" cx="1701.27" cy="1422.84" rx=".33" ry=".36" transform="translate(-95.11 122.14) rotate(-4)"/>
    <ellipse class="cls-22" cx="1755.6" cy="1416.14" rx=".33" ry=".36" transform="translate(-94.51 125.91) rotate(-4)"/>
    <ellipse class="cls-22" cx="1701.27" cy="1422.84" rx=".33" ry=".36" transform="translate(-95.11 122.14) rotate(-4)"/>
    <ellipse class="cls-22" cx="1720.16" cy="1337.86" rx=".33" ry=".36" transform="translate(-89.13 123.25) rotate(-4)"/>
    <ellipse class="cls-22" cx="1770.29" cy="1372.97" rx=".33" ry=".36" transform="translate(-91.46 126.83) rotate(-4)"/>
    <ellipse class="cls-22" cx="1817.42" cy="1363.7" rx=".33" ry=".36" transform="translate(-90.7 130.1) rotate(-4)"/>
    <ellipse class="cls-22" cx="1806.1" cy="1385" rx=".33" ry=".36" transform="translate(-92.21 129.36) rotate(-4)"/>
    <ellipse class="cls-22" cx="1771.1" cy="1437.11" rx=".33" ry=".36" transform="translate(-95.93 127.05) rotate(-4)"/>
    <ellipse class="cls-22" cx="1960.94" cy="1388.78" rx=".33" ry=".36" transform="translate(-92.1 140.17) rotate(-4)"/>
    <ellipse class="cls-22" cx="1903.38" cy="1430.98" rx=".33" ry=".36" transform="translate(-95.18 136.26) rotate(-4)"/>
    <ellipse class="cls-22" cx="1996.13" cy="1376.8" rx=".33" ry=".36" transform="translate(-91.18 142.6) rotate(-4)"/>
    <ellipse class="cls-22" cx="1967.21" cy="1345.88" rx=".33" ry=".36" transform="translate(-89.09 140.5) rotate(-4)"/>
    <ellipse class="cls-22" cx="1922.43" cy="1313.92" rx=".33" ry=".36" transform="translate(-86.97 137.3) rotate(-4)"/>
    <ellipse class="cls-22" cx="1918.27" cy="1319.81" rx=".33" ry=".36" transform="translate(-87.39 137.03) rotate(-4)"/>
    <ellipse class="cls-22" cx="2008.26" cy="1300.57" rx=".33" ry=".36" transform="translate(-85.83 143.26) rotate(-4)"/>
    <ellipse class="cls-22" cx="1992.45" cy="1328.96" rx=".33" ry=".36" transform="translate(-87.85 142.22) rotate(-4)"/>
    <ellipse class="cls-22" cx="1999.89" cy="1403.43" rx=".33" ry=".36" transform="translate(-93.03 142.92) rotate(-4)"/>
    <circle class="cls-22" cx="1772.03" cy="945.82" r=".94"/>
    <circle class="cls-22" cx="1707.31" cy="1129.97" r=".94"/>
    <circle class="cls-22" cx="1683.28" cy="1164.47" r=".94"/>
    <circle class="cls-22" cx="1641.22" cy="1153.45" r=".94"/>
    <circle class="cls-22" cx="1487.47" cy="1195.73" r=".94"/>
    <circle class="cls-22" cx="1454.55" cy="1223.53" r=".94"/>
    <circle class="cls-22" cx="1705.93" cy="1178.18" r=".94"/>
    <circle class="cls-22" cx="1729.71" cy="1133.9" r=".94"/>
    <circle class="cls-22" cx="1777.83" cy="1087.17" r=".94"/>
    <circle class="cls-22" cx="1798.98" cy="1126.38" r=".94"/>
    <circle class="cls-22" cx="1756.82" cy="1237" r=".94"/>
    <ellipse class="cls-22" cx="1739.44" cy="1267.07" rx=".33" ry=".36" transform="translate(-84.15 124.42) rotate(-4)"/>
    <ellipse class="cls-22" cx="1797.36" cy="1225.2" rx=".33" ry=".36" transform="translate(-81.09 128.36) rotate(-4)"/>
    <ellipse class="cls-22" cx="1706.65" cy="1217.3" rx=".33" ry=".36" transform="translate(-80.76 122.02) rotate(-4)"/>
    <ellipse class="cls-22" cx="1687.86" cy="1191.73" rx=".33" ry=".36" transform="translate(-79.02 120.64) rotate(-4)"/>
    <ellipse class="cls-22" cx="1537.98" cy="1220.39" rx=".33" ry=".36" transform="translate(-81.38 110.26) rotate(-4)"/>
    <ellipse class="cls-22" cx="1446.09" cy="1187.55" rx=".33" ry=".36" transform="translate(-79.32 103.77) rotate(-4)"/>
    <ellipse class="cls-22" cx="1482.9" cy="1170.27" rx=".33" ry=".36" transform="translate(-78.02 106.29) rotate(-4)"/>
    <ellipse class="cls-22" cx="1466.71" cy="1277.95" rx=".33" ry=".36" transform="translate(-85.57 105.43) rotate(-4)"/>
    <ellipse class="cls-22" cx="1784.92" cy="977.82" rx=".33" ry=".36" transform="translate(-63.86 126.89) rotate(-4)"/>
    <ellipse class="cls-22" cx="1761.95" cy="976.39" rx=".33" ry=".36" transform="translate(-63.82 125.29) rotate(-4)"/>
    <ellipse class="cls-22" cx="1733.93" cy="1008.94" rx=".33" ry=".36" transform="translate(-66.16 123.41) rotate(-4)"/>
    <ellipse class="cls-22" cx="1750.98" cy="1023.33" rx=".33" ry=".36" transform="translate(-67.12 124.63) rotate(-4)"/>
    <ellipse class="cls-22" cx="1797.47" cy="1029.74" rx=".33" ry=".36" transform="translate(-67.45 127.89) rotate(-4)"/>
    <ellipse class="cls-22" cx="1812.31" cy="999.89" rx=".33" ry=".36" transform="translate(-65.33 128.86) rotate(-4)"/>
    <ellipse class="cls-22" cx="1515.43" cy="1280.33" rx=".33" ry=".36" transform="translate(-85.62 108.83) rotate(-4)"/>
    <ellipse class="cls-22" cx="1671.47" cy="1265.86" rx=".33" ry=".36" transform="translate(-84.23 119.68) rotate(-4)"/>
    <ellipse class="cls-22" cx="1537.69" cy="1259.26" rx=".33" ry=".36" transform="translate(-84.1 110.33) rotate(-4)"/>
    <ellipse class="cls-22" cx="1592.02" cy="1252.56" rx=".33" ry=".36" transform="translate(-83.5 114.1) rotate(-4)"/>
    <ellipse class="cls-22" cx="1556.58" cy="1174.28" rx=".33" ry=".36" transform="translate(-78.12 111.44) rotate(-4)"/>
    <ellipse class="cls-22" cx="1606.71" cy="1209.39" rx=".33" ry=".36" transform="translate(-80.45 115.02) rotate(-4)"/>
    <ellipse class="cls-22" cx="1653.84" cy="1200.12" rx=".33" ry=".36" transform="translate(-79.69 118.29) rotate(-4)"/>
    <ellipse class="cls-22" cx="1642.52" cy="1221.42" rx=".33" ry=".36" transform="translate(-81.2 117.55) rotate(-4)"/>
    <ellipse class="cls-22" cx="1607.52" cy="1273.53" rx=".33" ry=".36" transform="translate(-84.92 115.24) rotate(-4)"/>
    <ellipse class="cls-22" cx="1797.36" cy="1225.2" rx=".33" ry=".36" transform="translate(-81.09 128.36) rotate(-4)"/>
    <ellipse class="cls-22" cx="1739.8" cy="1267.4" rx=".33" ry=".36" transform="translate(-84.17 124.45) rotate(-4)"/>
    <ellipse class="cls-22" cx="1832.55" cy="1213.22" rx=".33" ry=".36" transform="translate(-80.17 130.79) rotate(-4)"/>
    <ellipse class="cls-22" cx="1803.63" cy="1182.3" rx=".33" ry=".36" transform="translate(-78.08 128.69) rotate(-4)"/>
    <ellipse class="cls-22" cx="1758.85" cy="1150.34" rx=".33" ry=".36" transform="translate(-75.96 125.49) rotate(-4)"/>
    <ellipse class="cls-22" cx="1754.69" cy="1156.23" rx=".33" ry=".36" transform="translate(-76.38 125.22) rotate(-4)"/>
    <ellipse class="cls-22" cx="1844.68" cy="1136.99" rx=".33" ry=".36" transform="translate(-74.82 131.45) rotate(-4)"/>
    <ellipse class="cls-22" cx="1828.87" cy="1165.38" rx=".33" ry=".36" transform="translate(-76.84 130.41) rotate(-4)"/>
    <ellipse class="cls-22" cx="1836.31" cy="1239.85" rx=".33" ry=".36" transform="translate(-82.01 131.11) rotate(-4)"/>
    <circle class="cls-22" cx="2002.28" cy="1480.59" r=".94"/>
    <circle class="cls-22" cx="1594.04" cy="1505.88" r=".94"/>
    <ellipse class="cls-22" cx="1613.47" cy="1477.1" rx=".33" ry=".36"/>
    <ellipse class="cls-22" cx="1856.41" cy="1506.82" rx=".33" ry=".36"/>
    <ellipse class="cls-22" cx="1886.3" cy="1485.27" rx=".33" ry=".36"/>
    <ellipse class="cls-22" cx="1998.67" cy="1496.82" rx=".33" ry=".36"/>
    <ellipse class="cls-22" cx="1925.19" cy="1507.55" rx=".33" ry=".36"/>
    <ellipse class="cls-22" cx="1837.86" cy="1479.49" rx=".33" ry=".36"/>
    <ellipse class="cls-22" cx="1681.19" cy="1483.04" rx=".33" ry=".36"/>
    <ellipse class="cls-22" cx="1814.19" cy="1498.96" rx=".33" ry=".36"/>
    <ellipse class="cls-22" cx="1759.53" cy="1501.85" rx=".33" ry=".36"/>
    <ellipse class="cls-22" cx="1814.19" cy="1498.96" rx=".33" ry=".36"/>
    <ellipse class="cls-22" cx="1745.53" cy="1479.85" rx=".33" ry=".36"/>
    <ellipse class="cls-22" cx="1613.14" cy="1476.74" rx=".33" ry=".36"/>
    <ellipse class="cls-22" cx="1514.94" cy="1497.49" rx=".33" ry=".36"/>
    <circle class="cls-22" cx="1838.56" cy="1466.94" r=".94"/>
    <ellipse class="cls-22" cx="1851.45" cy="1498.94" rx=".33" ry=".36" transform="translate(-100.05 132.8) rotate(-4)"/>
    <ellipse class="cls-22" cx="1828.48" cy="1497.5" rx=".33" ry=".36" transform="translate(-100.01 131.2) rotate(-4)"/>
  </g>
</svg>