<svg width="30" height="30" viewBox="0 0 30 30" fill="none" xmlns="http://www.w3.org/2000/svg">
<path fill-rule="evenodd" clip-rule="evenodd" d="M1.36784 21.2335C1.37933 21.3613 1.84867 22.2252 1.93818 22.3815C2.97322 24.1887 4.31178 25.7172 5.98229 26.9783C8.03837 28.5305 10.646 29.632 13.4072 29.9158C16.489 30.2325 19.3457 29.6493 21.9565 28.2829C24.0874 27.1677 26.119 25.3974 27.4436 23.3901C28.3884 21.9584 29.0605 20.4885 29.5587 18.5847C30.0691 16.6344 30.1239 14.5277 29.7896 12.5322C29.7848 12.5036 29.7801 12.4704 29.7747 12.4408L29.7514 12.3527C29.7502 12.3492 29.748 12.3431 29.7458 12.3385C29.6253 12.3803 27.4163 14.0344 27.2181 14.1835C27.0794 14.2878 26.9429 14.3896 26.8024 14.4945C26.6102 14.6382 26.5509 14.6437 26.5504 14.9729C26.5465 17.7361 25.5308 20.4353 23.8136 22.4377C23.3538 22.9741 22.8901 23.4403 22.3485 23.8834C22.0777 24.1049 21.8194 24.3048 21.5202 24.5097C18.1272 26.8334 13.754 27.1705 10.0551 25.4245C8.65573 24.7639 7.55836 23.9015 6.6633 22.9784C6.18482 22.485 5.75998 21.9429 5.36847 21.3637C5.08543 20.9449 4.80157 20.4394 4.57473 19.9745C4.53835 19.9 4.37141 19.5088 4.3422 19.4807C4.30376 19.3395 4.21724 19.1488 4.16174 19.0051C4.09832 18.8408 4.04527 18.6898 3.98995 18.5182C2.32433 13.3509 4.52715 7.74902 9.07979 5.05572C11.4083 3.6782 14.4604 2.96515 17.6268 3.72347C19.1057 4.07765 20.1817 4.60229 21.2843 5.30088C21.5311 5.45727 21.5474 5.40841 21.7343 5.27238L23.9984 3.59855C24.1171 3.51265 24.2704 3.40715 24.367 3.31532C24.2514 3.10205 22.8139 2.19137 22.5259 2.01697C21.89 1.63185 21.1279 1.27281 20.4021 0.999158C18.8581 0.417018 17.0034 -0.00439186 15.1271 3.45454e-05C13.1665 0.00465489 11.4291 0.316842 9.78123 0.930663C8.85695 1.27496 7.98504 1.6967 7.14594 2.21403C6.74763 2.45961 6.10087 2.89596 5.75385 3.1829L5.00622 3.80161C4.97563 3.82774 4.93492 3.8715 4.90573 3.89613C4.17989 4.50853 3.20368 5.65326 2.69171 6.40216C1.78434 7.72944 1.1222 9.06298 0.647454 10.6393C0.155567 12.2725 -0.127647 14.3688 0.0566567 16.2391C0.193758 17.6302 0.430328 18.8484 0.89732 20.1203C0.963841 20.3015 1.283 21.1638 1.36784 21.2335ZM9.29239 11.0126L9.28747 15.0262C9.28753 15.2207 9.32716 15.302 9.44675 15.3841L14.8565 18.7756C15.0685 18.8797 15.2758 18.6678 15.525 18.4767C15.9237 18.1708 16.318 17.8949 16.7189 17.595C19.0907 15.8208 21.4953 14.0841 23.8748 12.3123C23.9496 12.2566 28.5855 8.86438 28.6439 8.77915C28.5867 8.5503 27.9543 7.43438 27.8393 7.24343C27.6295 6.89512 27.1262 6.13011 26.8717 5.84404C26.7793 5.87251 25.9373 6.51393 25.7938 6.61852L22.5749 8.9896C21.9002 9.48917 21.0951 10.0581 20.4395 10.5628C19.7582 11.0873 18.9954 11.6148 18.2957 12.1438C17.9411 12.4119 17.5891 12.6704 17.2329 12.9268C17.068 13.0455 15.1876 14.4618 15.0812 14.5014C14.8922 14.5717 14.6492 14.3651 14.4473 14.2339C13.5346 13.6407 12.5284 13.0291 11.5907 12.4425L9.59247 11.1936C9.51632 11.1446 9.36866 11.04 9.29239 11.0126Z" fill="url(#paint0_linear_26_3635)"/>
<defs>
<linearGradient id="paint0_linear_26_3635" x1="15" y1="0" x2="15" y2="30" gradientUnits="userSpaceOnUse">
<stop stop-color="#FFD88C"/>
<stop offset="1" stop-color="#998254"/>
</linearGradient>
</defs>
</svg>
