<svg width="54" height="20" viewBox="0 0 54 20" fill="none" xmlns="http://www.w3.org/2000/svg">
<path fill-rule="evenodd" clip-rule="evenodd" d="M19.1211 19.2961C19.6299 19.3556 23.604 19.3102 24.476 19.3103C25.4088 19.3104 26.1087 19.3242 26.971 19.079C27.3179 18.9804 27.626 18.8448 27.9032 18.6828C29.3951 17.811 30.1244 15.8598 29.7 13.9151C29.4732 12.8759 28.865 12.1348 27.9922 11.5868C27.7067 11.4075 27.3611 11.2829 27.0966 11.1137C27.1915 10.9572 27.8942 10.7559 28.456 10.0488C28.8128 9.5998 29.0951 9.08674 29.2043 8.3583C29.4574 6.67 28.7699 5.4972 27.9128 4.82141C26.3667 3.60224 23.7681 3.84756 21.5881 3.84756C20.8858 3.84756 19.7767 3.78169 19.1233 3.86152L19.1211 19.2961ZM22.1565 10.0258C22.8129 10.0249 24.4192 10.0996 24.9524 9.93739C25.6349 9.72968 26.0918 9.10074 26.102 8.21998C26.1274 6.03133 24.0007 6.37791 22.1673 6.38188L22.1565 10.0258ZM22.1822 16.775C22.9375 16.792 24.6051 16.8512 25.267 16.6805C26.0695 16.4735 26.5513 15.7394 26.5502 14.7423C26.5492 13.775 26.0896 13.048 25.2935 12.8201C24.6382 12.6325 22.9549 12.6915 22.1839 12.7067L22.1822 16.775Z" fill="url(#paint0_linear_26_3682)"/>
<path fill-rule="evenodd" clip-rule="evenodd" d="M43.2324 19.2979C44.0197 19.3782 49.2818 19.3334 50.0759 19.2288C51.191 19.082 52.2853 18.6118 52.9587 17.7479C54.7112 15.4996 54.0878 12.1547 52.3069 10.8284C50.7029 9.63392 48.5254 9.84954 46.29 9.86595L46.2749 6.43825L52.2976 6.43849L53.1821 3.85581L43.2341 3.84766L43.2324 19.2979ZM46.2745 16.693C46.6422 16.808 49.0891 16.7284 49.4877 16.6117C51.2504 16.0959 51.278 13.0849 49.4713 12.5192C49.0978 12.4023 46.6709 12.3413 46.2797 12.4311L46.2745 16.693Z" fill="url(#paint1_linear_26_3682)"/>
<path fill-rule="evenodd" clip-rule="evenodd" d="M29.9941 6.41468L34.4048 6.43994L34.4148 19.3077L37.4856 19.3093L37.482 6.43878L41.3886 6.43843L42.2718 3.85532L29.9954 3.8479L29.9941 6.41468Z" fill="url(#paint2_linear_26_3682)"/>
<path fill-rule="evenodd" clip-rule="evenodd" d="M0 10.0923L0.178535 10.1082L12.5553 10.1062L12.7443 10.1044L13.6479 7.59231L0.915965 7.58081L0 10.0923Z" fill="url(#paint3_linear_26_3682)"/>
<path fill-rule="evenodd" clip-rule="evenodd" d="M2.75195 2.52264L15.4936 2.52782L16.4046 0.0111199L3.66524 0L2.75195 2.52264Z" fill="url(#paint4_linear_26_3682)"/>
<path fill-rule="evenodd" clip-rule="evenodd" d="M1.37695 6.30603L14.0947 6.31762L15.0257 3.79712L2.3072 3.78662L1.37695 6.30603Z" fill="url(#paint5_linear_26_3682)"/>
<defs>
<linearGradient id="paint0_linear_26_3682" x1="24.4704" y1="3.82202" x2="24.4704" y2="19.3268" gradientUnits="userSpaceOnUse">
<stop stop-color="#FFD88C"/>
<stop offset="1" stop-color="#998254"/>
</linearGradient>
<linearGradient id="paint1_linear_26_3682" x1="48.6163" y1="3.84766" x2="48.6163" y2="19.339" gradientUnits="userSpaceOnUse">
<stop stop-color="#FFD88C"/>
<stop offset="1" stop-color="#998254"/>
</linearGradient>
<linearGradient id="paint2_linear_26_3682" x1="36.1329" y1="3.8479" x2="36.1329" y2="19.3093" gradientUnits="userSpaceOnUse">
<stop stop-color="#FFD88C"/>
<stop offset="1" stop-color="#998254"/>
</linearGradient>
<linearGradient id="paint3_linear_26_3682" x1="6.82395" y1="7.58081" x2="6.82395" y2="10.1082" gradientUnits="userSpaceOnUse">
<stop stop-color="#FFD88C"/>
<stop offset="1" stop-color="#998254"/>
</linearGradient>
<linearGradient id="paint4_linear_26_3682" x1="9.57829" y1="0" x2="9.57829" y2="2.52782" gradientUnits="userSpaceOnUse">
<stop stop-color="#FFD88C"/>
<stop offset="1" stop-color="#998254"/>
</linearGradient>
<linearGradient id="paint5_linear_26_3682" x1="8.20133" y1="3.78662" x2="8.20133" y2="6.31762" gradientUnits="userSpaceOnUse">
<stop stop-color="#FFD88C"/>
<stop offset="1" stop-color="#998254"/>
</linearGradient>
</defs>
</svg>
