<svg width="144" height="45" viewBox="0 0 144 45" fill="none" xmlns="http://www.w3.org/2000/svg">
<g id="logo1 2" clip-path="url(#clip0_105_13601)">
<g id="Clip path group">
<mask id="mask0_105_13601" style="mask-type:luminance" maskUnits="userSpaceOnUse" x="2" y="-1" width="141" height="45">
<g id="clip0_80_1508">
<path id="Vector" d="M142.781 -0.00171041L2.8125 -0.00170898L2.8125 43.1983L142.781 43.1983L142.781 -0.00171041Z" fill="white"/>
</g>
</mask>
<g mask="url(#mask0_105_13601)">
<g id="Group">
<path id="Vector_2" fill-rule="evenodd" clip-rule="evenodd" d="M13.6621 43.1983L16.918 43.1983L16.918 25.9183L13.6621 25.9183L13.6621 43.1983ZM25.5974 42.9391L28.5136 42.9391L28.5136 32.0365L40.7887 43.1983L40.7887 26.1775L37.8806 26.1775L37.8806 36.8938L25.5974 25.9183L25.5974 42.9391ZM47.446 38.7541C49.0333 39.9826 50.9384 40.6927 52.9808 40.6927C54.9702 40.6927 56.3659 40.0123 56.3659 38.5097C56.3659 37.2002 55.4758 36.6872 53.9172 36.1135L51.3936 35.2427C49.0671 34.4219 47.2979 33.2231 47.2979 30.4678C47.2979 27.5207 49.9763 25.9183 53.1792 25.9183C55.1416 25.9183 56.9299 26.4083 58.3268 27.2764L58.3268 30.1991C56.8741 29.1326 55.2841 28.3982 53.2417 28.3982C51.4832 28.3982 50.1692 29.0503 50.1692 30.4097C50.1692 31.6382 50.9942 32.1296 52.4468 32.6237L55.2584 33.6038C57.983 34.5556 59.2331 36.0311 59.2331 38.4584C59.2331 41.5121 56.529 43.1983 52.9808 43.1983C50.6489 43.1983 48.6662 42.5503 47.446 41.7322L47.446 38.7541ZM66.8295 43.1983L70.0841 43.1983L70.0841 25.9183L66.8295 25.9183L66.8295 43.1983ZM85.3529 40.5833C89.0219 40.5833 90.9828 38.2451 90.9828 34.5542C90.9828 30.8363 89.0206 28.5062 85.3529 28.5062L81.7245 28.5062L81.7245 40.5833L85.3529 40.5833ZM78.7621 25.9183L85.4615 25.9183C90.6187 25.9183 93.9533 29.2933 93.9533 34.5542C93.9533 39.8192 90.6187 43.1983 85.4615 43.1983L78.7621 43.1983L78.7621 25.9183ZM110.23 25.9183L110.23 28.5062L102.353 28.5062L102.353 32.6642L109.418 32.6642L109.418 35.2225L102.351 35.2225L102.351 40.5833L110.23 40.5833L110.23 43.1983L99.3796 43.1983L99.3796 25.9183L110.23 25.9183ZM121.784 33.7429L125.014 33.7429C126.926 33.7429 128.004 32.7007 128.004 31.0982C128.004 29.4958 126.926 28.4522 125.014 28.4522L121.784 28.4522L121.784 33.7429ZM121.784 36.1864L121.784 43.1983L118.91 43.1983L118.91 25.9183L125.068 25.9183C128.58 25.9183 130.852 27.7151 130.852 31.0982C130.852 33.9913 129.591 35.6531 126.904 36.0797L133.015 43.1983L129.746 43.1983L123.829 36.1877L121.785 36.1877L121.784 36.1864ZM12.5247 8.89479C13.798 8.43174 14.79 7.04259 14.79 5.13234C14.79 1.94904 12.5247 0.29934 8.90042 0.29934L2.8125 0.299341L2.8125 18.0694L9.46573 18.0694C13.09 18.0694 15.3553 16.3036 15.3553 12.9758C15.3553 11.0939 14.1662 9.44424 12.5247 8.89479ZM5.67166 7.76619L5.67166 2.90484L8.87324 2.90484C10.8844 2.90484 11.9593 3.62844 11.9593 5.30649C11.9593 6.98454 10.8831 7.76619 8.87324 7.76619L5.67166 7.76619ZM5.67166 10.2556L9.40865 10.2556C11.3927 10.2556 12.4676 11.2384 12.4676 12.8597C12.4676 14.4514 11.3913 15.4652 9.41002 15.4652L5.67301 15.4652L5.67301 10.2542L5.67166 10.2556ZM28.6387 18.3583C32.801 18.3583 35.6044 15.8689 35.6044 11.0075L35.6044 0.29934L32.6597 0.29934L32.6597 10.6592C32.6597 14.0747 31.2437 15.6677 28.6387 15.6677C26.0336 15.6677 24.619 14.0747 24.619 10.6592L24.619 0.29934L21.6742 0.29934L21.6742 10.9778C21.6742 15.8689 24.5048 18.3583 28.6387 18.3583ZM42.5376 16.795C43.7551 17.6644 45.7378 18.3583 48.0589 18.3583C51.5988 18.3583 54.2882 16.5628 54.2882 13.3228C54.2882 10.747 53.0433 9.18369 50.3242 8.17119L47.5222 7.12899C46.0775 6.60924 45.2569 6.08814 45.2569 4.78539C45.2569 3.33819 46.5586 2.64429 48.3143 2.64429C50.3527 2.64429 51.9386 3.42459 53.3831 4.55454L53.3831 1.45629C51.9957 0.53154 50.2114 0.0104405 48.2573 0.0104406C45.0583 0.0104406 42.3963 1.71819 42.3963 4.84344C42.3963 7.76619 44.152 9.03924 46.4729 9.90729L48.9938 10.8334C50.551 11.4409 51.4289 11.9917 51.4289 13.3808C51.4289 14.9725 50.0414 15.6961 48.0589 15.6961C46.0204 15.6961 44.1234 14.9428 42.5376 13.6414L42.5376 16.795ZM64.8103 0.29934L61.8667 0.29934L61.8667 18.068L64.8103 18.068L64.8103 0.29934ZM73.211 18.0464L76.0484 18.0464L76.0484 6.48639L87.9905 18.3218L87.9905 0.27234L85.1612 0.27234L85.1612 11.6353L73.211 -0.0017097L73.211 18.0464ZM106.392 0.303389L106.392 2.96424L98.7464 2.96424L98.7464 7.24104L105.602 7.24104L105.602 9.87219L98.7464 9.87219L98.7464 15.3842L106.392 15.3842L106.392 18.0734L95.8599 18.0734L95.8599 0.30339L106.392 0.303389ZM113.247 16.7828C114.465 17.6522 116.446 18.3461 118.768 18.3461C122.307 18.3461 124.998 16.552 124.998 13.3106C124.998 10.7348 123.752 9.17289 121.034 8.15904L118.23 7.11819C116.786 6.59709 115.965 6.07599 115.965 4.77324C115.965 3.32604 117.267 2.63214 119.023 2.63214C121.061 2.63214 122.647 3.41379 124.091 4.54239L124.091 1.44549C122.704 0.519389 120.92 -0.00171019 118.966 -0.00171017C115.767 -0.00171013 113.105 1.70604 113.105 4.83129C113.105 7.75404 114.86 9.02709 117.181 9.89514L119.702 10.8212C121.259 11.4287 122.137 11.9795 122.137 13.3687C122.137 14.9603 120.751 15.6839 118.767 15.6839C116.729 15.6839 114.832 14.932 113.247 13.6292L113.247 16.7828ZM131.03 16.7828C132.248 17.6522 134.23 18.3461 136.551 18.3461C140.091 18.3461 142.781 16.552 142.781 13.3106C142.781 10.7348 141.534 9.17289 138.817 8.15904L136.013 7.11819C134.57 6.59709 133.748 6.07599 133.748 4.77324C133.748 3.32604 135.051 2.63214 136.805 2.63214C138.844 2.63214 140.431 3.41379 141.874 4.54239L141.874 1.44549C140.488 0.519389 138.704 -0.00171037 136.75 -0.00171035C133.549 -0.00171032 130.889 1.70604 130.889 4.83129C130.889 7.75404 132.644 9.02709 134.965 9.89514L137.486 10.8212C139.044 11.4287 139.921 11.9795 139.921 13.3687C139.921 14.9603 138.534 15.6839 136.551 15.6839C134.513 15.6839 132.616 14.932 131.03 13.6292L131.03 16.7828Z" fill="#737373"/>
</g>
</g>
</g>
</g>
<defs>
<clipPath id="clip0_105_13601">
<rect width="144" height="45" fill="white"/>
</clipPath>
</defs>
</svg>
