<svg width="246" height="47" viewBox="0 0 246 47" fill="none" xmlns="http://www.w3.org/2000/svg">
<g id="logo7" clip-path="url(#clip0_105_13607)">
<path id="Vector" d="M28.6244 35.1043L23.1973 37.7566L23.1973 17.8417L28.6244 15.1892L28.6244 35.1043ZM35.992 31.5043L30.5649 34.1568L30.5649 14.2419L35.992 11.5894L35.992 31.5043ZM37.9327 30.5571L37.9327 10.642L43.3598 7.9895L43.3598 27.9045L37.9327 30.5571Z" fill="#737373"/>
<path id="Vector_2" d="M21.2985 32.3884L21.2985 37.7461L1.14648 27.9045L1.14648 22.5468L21.2985 32.3884ZM21.2985 25.1046L21.2985 30.4623L1.14648 20.6205L1.14648 15.2629L21.2985 25.1046ZM21.2985 17.8312L21.2985 23.189L1.14648 13.3472L1.14648 7.9895L21.2985 17.8312Z" fill="#DBDBDB"/>
<path id="Vector_3" d="M56.1777 1.67871L56.1777 32.4345L71.9968 32.4345C79.4168 32.4345 84.1574 29.1026 84.1574 23.8229C84.1574 19.9273 81.7355 16.8516 77.9225 16.0827C81.1171 15.1601 83.1784 12.5458 83.1784 9.47022C83.1784 4.75434 78.5408 1.73002 71.3269 1.73002L56.1777 1.73002L56.1777 1.67871ZM65.298 8.54751L70.8632 8.54751C72.6666 8.54751 73.8002 9.52145 73.8002 11.1105C73.8002 12.7508 72.6666 13.776 70.8632 13.776L65.298 13.776L65.298 8.54751ZM65.298 19.9784L70.8632 19.9784C73.1819 19.9784 74.6762 21.0037 74.6762 22.6952C74.6762 24.4892 73.2335 25.6171 70.8632 25.6171L65.298 25.6171L65.298 19.9784Z" fill="#DBDBDB"/>
<path id="Vector_4" d="M98.8438 1.67871L89.6719 1.67871L89.6719 32.4345L98.8438 32.4345L98.8438 1.67871Z" fill="#DBDBDB"/>
<path id="Vector_5" d="M128.164 8.95761L128.164 1.67871L104.41 1.67871L104.41 8.95761L111.675 8.95761L111.675 32.4345L120.899 32.4345L120.899 8.95761L128.164 8.95761Z" fill="#DBDBDB"/>
<path id="Vector_6" d="M148.026 1.42114C138.442 1.42114 131.383 8.03366 131.383 17.0041C131.383 26.0771 138.288 32.8434 147.717 32.8434C152.406 32.8434 157.456 30.5368 160.805 26.8972L155.498 21.2587C153.385 23.4115 150.5 24.7956 148.129 24.7956C143.956 24.7956 140.761 21.3612 140.761 16.8504C140.761 12.3395 143.956 8.95635 148.129 8.95635C150.706 8.95635 153.54 10.5967 155.498 13.0571L160.805 6.85472C157.662 3.52285 152.664 1.42114 148.026 1.42114Z" fill="#DBDBDB"/>
<path id="Vector_7" d="M179.92 1.42114C170.233 1.42114 163.07 7.98238 163.07 17.0553C163.07 26.1283 170.233 32.8434 179.92 32.8434C189.608 32.8434 196.77 26.077 196.77 17.0553C196.77 8.03364 189.608 1.42114 179.92 1.42114ZM180.074 9.05885C184.145 9.05885 187.392 12.442 187.392 17.1066C187.392 21.7714 184.145 25.2057 180.074 25.2057C176.004 25.2057 172.5 21.72 172.5 17.1066C172.5 12.4933 175.952 9.05885 180.074 9.05885Z" fill="#DBDBDB"/>
<path id="Vector_8" d="M211.149 1.67871L201.977 1.67871L201.977 32.4345L211.149 32.4345L211.149 1.67871Z" fill="#DBDBDB"/>
<path id="Vector_9" d="M246.002 32.4345L246.002 1.67871L237.603 1.67871L237.603 18.8507L224.515 1.67871L216.682 1.67871L216.682 32.4345L225.081 32.4345L225.081 15.3138L238.171 32.4345L246.002 32.4345Z" fill="#DBDBDB"/>
<path id="Vector_10" d="M64.9227 45.491L64.9227 37.8329L62.218 37.8329L60.524 41.8246L58.8297 37.8329L56.125 37.8329L56.125 45.491L58.3542 45.491L58.3542 41.2925L59.6619 44.7518L61.3263 44.7518L62.6342 41.2925L62.6342 45.491L64.9227 45.491Z" fill="#737373"/>
<path id="Vector_11" d="M71.7014 44.4234L72.0877 45.5175L74.7926 45.5175L71.6718 37.8594L69.0562 37.8594L65.8164 45.5175L68.432 45.5175L68.8183 44.4234L71.7014 44.4234ZM71.0773 42.5902L69.4722 42.5902L70.2747 40.343L71.0773 42.5902Z" fill="#737373"/>
<path id="Vector_12" d="M80.4399 41.4706L80.4399 43.2446C80.0535 43.3925 79.6967 43.5106 79.4292 43.5106C78.4186 43.5106 77.7054 42.7419 77.7054 41.6774C77.7054 40.6426 78.4186 39.8739 79.4292 39.8739C80.0535 39.8739 80.8263 40.1992 81.3314 40.6723L82.7582 38.9277C81.9259 38.2181 80.6182 37.745 79.4292 37.745C76.9028 37.745 75.0898 39.4008 75.0898 41.648C75.0898 43.9246 76.8435 45.5805 79.2509 45.5805C80.3507 45.5805 81.7773 45.1665 82.6095 44.6047L82.6095 41.441L80.4399 41.441L80.4399 41.4706Z" fill="#737373"/>
<path id="Vector_13" d="M89.2367 44.4234L89.6231 45.5175L92.3278 45.5175L89.2069 37.8594L86.5914 37.8594L83.3516 45.5175L85.9673 45.5175L86.3537 44.4234L89.2367 44.4234ZM88.6124 42.5902L87.0075 42.5902L87.8101 40.343L88.6124 42.5902Z" fill="#737373"/>
<path id="Vector_14" d="M99.8776 39.4296L99.8776 37.8329L93.0118 37.8329L93.0118 39.7844L96.4597 39.7844L92.8633 43.9238L92.8633 45.5206L99.9372 45.5206L99.9372 43.5691L96.2812 43.5691L99.8776 39.4296Z" fill="#737373"/>
<path id="Vector_15" d="M103.712 37.8329L101.156 37.8329L101.156 45.491L103.712 45.491L103.712 37.8329Z" fill="#737373"/>
<path id="Vector_16" d="M112.718 45.491L112.718 37.8329L110.43 37.8329L110.43 41.7655L107.398 37.8329L105.258 37.8329L105.258 45.491L107.576 45.491L107.576 41.5881L110.608 45.491L112.718 45.491Z" fill="#737373"/>
<path id="Vector_17" d="M120.773 39.7549L120.773 37.8329L114.264 37.8329L114.264 45.491L120.892 45.491L120.892 43.5691L116.82 43.5691L116.82 42.623L120.416 42.623L120.416 40.7011L116.82 40.7011L116.82 39.7549L120.773 39.7549Z" fill="#737373"/>
</g>
<defs>
<clipPath id="clip0_105_13607">
<rect width="246" height="46" fill="white" transform="translate(0 0.5)"/>
</clipPath>
</defs>
</svg>
