<svg width="337" height="45" viewBox="0 0 337 45" fill="none" xmlns="http://www.w3.org/2000/svg">
<path fill-rule="evenodd" clip-rule="evenodd" d="M25.3395 43.1689L36.9148 43.1689L36.9148 12.4237L25.3395 12.4237L25.3395 43.1689ZM25.3395 9.10541L36.9148 9.10541L36.9148 0.869707L25.3395 0.869708L25.3395 9.10541ZM5.12445 43.1689L16.6998 43.1689L16.6998 20.9697L22.5446 20.9697L22.5446 12.4215L16.4643 12.4215C16.2883 9.58163 17.0959 9.16658 19.9017 9.16658L22.8351 9.16658L22.8351 0.867523C21.0812 0.80854 19.3868 0.867523 17.6328 0.867523C12.9565 0.867523 10.0341 1.2236 7.51654 3.77296C5.29828 6.02303 5.00561 9.40032 5.12445 12.4215L0.388672 12.4215L0.388672 20.9697L5.12445 20.9697L5.12445 43.1689ZM39.9319 43.1689L51.5073 43.1689L51.5073 26.9378C51.5073 22.0182 54.1369 21.0133 56.1241 21.0133C59.5153 21.0133 59.9247 23.5015 59.9247 27.0558L59.9247 43.1689L71.5 43.1689L71.5 22.0795C71.5 15.0299 66.5309 11.6526 61.0953 11.6526C56.4741 11.6526 53.3756 13.2517 51.2145 16.3318L51.0978 16.3318L51.0978 12.4215L39.9319 12.4215L39.9319 43.1689ZM93.3634 32.2091C93.1873 35.4072 91.1408 37.0063 88.513 37.0063C86.4071 37.0063 84.8865 35.5863 84.8865 34.1643C84.8865 32.089 86.2332 31.4402 88.8036 30.8459C90.3836 30.4921 91.9616 30.077 93.3634 29.3648L93.3634 32.2091ZM104.472 23.6784C104.472 17.754 104.589 11.6526 90.091 11.6526C82.8993 11.6526 74.8318 13.0725 74.4818 21.7232L85.2386 21.7232C85.2958 20.419 85.9978 18.5842 89.5651 18.5842C91.4356 18.5842 93.3634 19.3531 93.3634 21.4262C93.3634 23.3836 91.7854 23.8553 90.2077 24.1525C84.3011 25.2775 73.0779 24.9215 73.0779 34.6382C73.0779 41.0958 77.9302 43.9378 83.7773 43.9378C87.5184 43.9378 91.0834 43.1099 93.5393 40.2656L93.656 40.2656C93.5988 41.0957 93.7726 42.341 94.0652 43.171L104.472 43.171L104.472 23.6784ZM107.43 43.1689L119.005 43.1689L119.005 26.9378C119.005 22.0182 121.635 21.0133 123.622 21.0133C127.013 21.0133 127.422 23.5015 127.422 27.0558L127.422 43.1689L138.998 43.1689L138.998 22.0795C138.998 15.0299 134.029 11.6526 128.591 11.6526C123.972 11.6526 120.874 13.2517 118.71 16.3318L118.594 16.3318L118.594 12.4215L107.43 12.4215L107.43 43.1689ZM141.223 43.1689L171.503 43.1689L171.503 34.6382L156.423 34.6382L170.278 21.4262L170.278 12.4215L142.506 12.4215L142.506 20.9543L155.426 20.9543L141.221 34.1052L141.221 43.171L141.223 43.1689ZM182.788 24.3294C183.317 21.0133 185.304 19.1782 188.753 19.1782C191.732 19.1782 193.837 21.4874 193.837 24.3294L182.788 24.3294ZM204.945 30.433C204.945 18.4661 199.743 11.6526 187.7 11.6526C178.112 11.6526 171.682 18.9402 171.682 27.8838C171.682 38.1335 178.988 43.9401 188.692 43.9401C195.589 43.9401 201.962 40.8576 204.305 34.2231L193.487 34.2231C192.553 35.7044 190.504 36.4143 188.635 36.4143C185.011 36.4143 183.024 33.9283 182.731 30.4331L204.945 30.433ZM206.875 43.1689L218.45 43.1689L218.45 26.9378C218.45 22.0182 221.083 21.0133 223.067 21.0133C226.457 21.0133 226.866 23.5015 226.866 27.0558L226.866 43.1689L237.945 43.1689L237.945 22.0795C237.945 15.0299 233.476 11.6526 228.035 11.6526C223.42 11.6526 220.319 13.2517 218.156 16.3318L218.041 16.3318L218.041 12.4215L206.875 12.4215L206.875 43.1689ZM264.556 12.0698L268.313 12.0698L268.313 17.446L268.431 17.446C269.804 13.7017 273.919 11.1611 278.271 11.1611C286.917 11.1611 289.54 15.7551 289.54 23.187L289.54 43.2475L285.784 43.2475L285.784 23.7921C285.784 18.4136 284.055 14.3636 277.972 14.3636C272.008 14.3636 268.431 18.9577 268.311 25.0613L268.311 43.2475L264.556 43.2475L264.556 12.0698ZM317.029 25.4828C316.851 19.7419 313.332 14.3636 307.251 14.3636C301.107 14.3636 297.71 19.8032 297.113 25.4828L317.029 25.4828ZM297.113 28.6854C297.174 34.2451 300.034 40.9516 307.251 40.9516C312.736 40.9516 315.72 37.688 316.913 32.9737L320.667 32.9737C319.059 40.0449 315.003 44.154 307.251 44.154C297.473 44.154 293.358 36.541 293.358 27.6587C293.358 19.4405 297.473 11.1611 307.251 11.1611C317.148 11.1611 321.086 19.9254 320.786 28.6854L297.113 28.6854ZM330.087 12.0698L336.35 12.0698L336.35 15.2702L330.091 15.2702L330.091 36.2985C330.091 38.7757 330.445 40.2263 333.127 40.4055C334.202 40.4055 335.276 40.3465 336.35 40.2263L336.35 43.4878C335.216 43.4878 334.142 43.6102 333.011 43.6102C328.002 43.6102 326.273 41.9172 326.332 36.6L326.332 15.2702L320.966 15.2702L320.966 12.0698L326.332 12.0698L326.332 2.70034L330.091 2.70034L330.091 12.0676L330.087 12.0698Z" fill="#737373"/>
</svg>
