<svg width="185" height="51" viewBox="0 0 185 51" fill="none" xmlns="http://www.w3.org/2000/svg">
<g id="logo5">
<path id="Vector" fill-rule="evenodd" clip-rule="evenodd" d="M37.2208 2.2531C37.3867 1.91861 37.9679 1.50049 37.9679 1.50049L47.7629 1.50049C57.1422 1.50049 57.6055 1.50049 57.7993 1.72528C57.8092 1.73696 57.8186 1.74925 57.8285 1.76217C57.8454 1.7844 57.8639 1.80882 57.8899 1.83498C57.9231 1.90188 57.9828 1.96878 58.0426 2.03568C58.1323 2.13603 58.2219 2.23638 58.2219 2.33672L58.388 2.58759L58.388 5.84893L58.388 9.36111C58.3049 9.61199 58.0558 10.0301 57.8068 10.1973L57.7924 10.2084C57.476 10.4482 57.476 10.4482 52.0793 10.4482L47.0158 10.4482L47.0158 40.6363L52.1623 40.6363L57.3089 40.7201L57.558 40.7201C57.8899 40.8873 58.2219 41.2217 58.3049 41.5563L58.3049 45.1521C58.3049 47.6625 58.2504 48.3011 58.2297 48.5421C58.2248 48.5979 58.2219 48.6329 58.2219 48.6643C58.139 48.9151 57.558 49.5005 57.558 49.5005L47.5968 49.5005L37.8847 49.4169L37.7188 49.4169C37.4698 49.2497 37.0547 48.8315 37.0547 48.5807L37.0547 25.4169L37.0547 2.50397L37.2208 2.2531ZM77.3975 2.2531C77.5636 1.91861 78.1446 1.50049 78.1446 1.50049L87.9396 1.50049C97.3015 1.50049 97.7703 1.50049 98.0331 1.72929C98.0471 1.74135 98.0604 1.75404 98.0744 1.7674C98.0961 1.78825 98.1197 1.81074 98.1498 1.83498C98.2328 2.00223 98.4818 2.33672 98.4818 2.33672L98.6479 2.58759L98.6479 25.5005C98.6479 47.9117 98.6479 48.4133 98.5647 48.6643C98.4818 48.9151 98.1498 49.2497 97.9008 49.4169L97.7347 49.5005L88.0228 49.5005L78.3107 49.4169L78.0617 49.4169C77.8126 49.2497 77.3975 48.8315 77.3145 48.5807L77.3145 44.9849C77.3145 44.3533 77.3123 43.8347 77.3103 43.4071C77.3029 41.7955 77.3015 41.4751 77.4534 41.2615C77.4908 41.2089 77.5376 41.1627 77.5957 41.1053L77.6465 41.0545C77.8126 40.9709 78.0617 40.6363 78.0617 40.6363L78.2278 40.6363L83.4572 40.6363L88.6868 40.6363L88.6868 10.3646L83.6232 10.3646C78.3863 10.3646 78.2324 10.2858 77.9242 10.1283L77.8956 10.1137C77.6465 9.94649 77.3975 9.69561 77.3145 9.44475C77.3082 9.42567 77.3023 9.40805 77.2971 9.39029C77.2316 9.17453 77.2316 8.93955 77.2316 5.84893L77.2316 2.50397L77.3975 2.2531ZM2.9385 11.2846L1.85938 11.6191L1.85938 21.9049L1.85938 32.1905L2.60645 32.5251C3.76858 33.1105 5.01371 33.4449 6.25884 33.6121C6.78642 33.6713 7.68655 33.6469 8.40383 33.6275C8.70208 33.6193 8.96913 33.6121 9.16416 33.6121C11.6544 33.1105 13.5636 31.7725 14.5597 29.7655C15.7218 27.4241 15.5558 24.0791 14.2277 21.8213C13.5636 20.6505 12.6505 19.8142 11.4054 19.2289C10.2433 18.6435 9.24716 18.4763 7.83602 18.5599C6.42485 18.5599 5.51177 18.8944 4.43265 19.5634L4.0176 19.8143L4.0176 15.3822L4.0176 10.9501C4.0176 10.9501 3.51956 11.1174 2.9385 11.2846ZM9.49618 20.6505C10.5753 20.9849 11.5714 21.6539 12.1525 22.5739C12.8165 23.5773 13.0656 24.6645 13.0656 26.1697C13.0656 27.9257 12.6505 29.1801 11.7374 30.0999C11.1564 30.6853 10.5753 31.0199 9.66221 31.3543C8.25105 31.8561 5.9268 31.6889 4.43265 31.1035L4.1006 30.9363L4.1006 26.4205L4.1006 21.9049L4.43265 21.6539C5.01371 21.1523 5.84379 20.8177 6.67389 20.6505C7.33796 20.4832 7.50397 20.4833 8.33405 20.5669C8.91512 20.5669 9.16416 20.5669 9.49618 20.6505ZM157.169 20.3159C157.169 20.1487 157.501 19.7306 159.41 17.5563L159.576 17.7236C161.319 15.7166 161.9 15.1313 161.9 15.1313L161.983 15.1313L161.983 18.7271L166.632 18.7271L166.632 20.5669L161.983 20.5669L161.983 24.9989L161.983 29.7655C162.149 30.6017 162.481 30.7689 163.56 30.7689C164.307 30.7689 165.137 30.6017 165.968 30.2671C166.3 30.0999 166.632 30.0163 166.632 30.0163L166.632 30.9361L166.632 32.0233L166.383 32.0233C165.137 32.5251 164.058 32.7759 162.896 32.7759C161.817 32.7759 161.07 32.5251 160.572 32.0233C160.157 31.6051 159.991 31.2707 159.825 30.6853C159.576 30.0163 159.576 29.5981 159.576 24.9153L159.576 20.4832L157.169 20.4832L157.169 20.3159ZM51.3326 17.5564C51.3326 17.5564 51.1665 17.64 51.0836 17.7236L50.9175 17.8908L50.9175 19.8142C50.9175 21.6539 50.9175 21.7375 51.0006 21.8211L51.0252 21.8463C51.0588 21.8805 51.0874 21.9095 51.1194 21.9341C51.2983 22.0721 51.5869 22.0721 53.4908 22.0721L55.5661 22.0721L55.5661 28.5111L53.4079 28.5111L51.2497 28.5111L51.0836 28.6783L50.9175 28.8455L50.9175 30.7689C50.9175 32.6087 50.9175 32.6923 51.0006 32.7759C51.0071 32.7825 51.0134 32.7891 51.0191 32.7955L51.0392 32.8183C51.0486 32.8291 51.0575 32.8395 51.0669 32.8491C51.2395 33.0267 51.6008 33.0267 58.5543 33.0267C65.3985 33.0267 65.9202 33.0267 66.057 32.8011C66.0682 32.7823 66.0769 32.7623 66.0863 32.7405C66.0928 32.7251 66.0997 32.7091 66.1082 32.6923C66.1912 32.5249 66.1912 32.3577 66.1082 30.6853C66.1082 29.0129 66.1082 28.8455 66.0251 28.7619C65.8592 28.5111 65.776 28.5111 63.5349 28.5111L61.4596 28.5111L61.4596 22.0721L63.5349 22.0721C65.4117 22.0721 65.773 22.0721 65.9299 21.8959C65.9673 21.8539 65.9931 21.8019 66.0251 21.7375C66.1082 21.5703 66.1082 21.4031 66.0251 19.7306C66.0251 18.0581 66.0251 17.8908 65.9421 17.8072C65.9338 17.7945 65.9269 17.7825 65.9204 17.7711C65.9133 17.759 65.9067 17.7476 65.8992 17.7369C65.7736 17.5564 65.3802 17.5564 58.3882 17.5564L51.3326 17.5564ZM69.4287 17.6398C69.4287 17.6398 69.3951 17.5978 69.3496 17.7989L69.4287 17.6398ZM69.3482 17.8058L69.3455 17.8071L69.3496 17.7989L69.3482 17.8058ZM69.3482 17.8058C69.5124 17.7234 69.6041 17.7234 71.5037 17.7234C73.6621 17.7234 73.7451 17.7234 73.9941 17.9743C74.077 18.0579 75.2393 19.6468 76.5674 21.4865L79.0576 24.8315L79.0576 21.4029C79.0576 18.0579 79.0576 17.9743 79.1405 17.8907C79.1806 17.8504 79.2141 17.8167 79.2517 17.7883C79.4494 17.6398 79.7622 17.6398 81.7139 17.6398C83.7891 17.6398 83.8721 17.6398 84.0382 17.7234C84.0605 17.7347 84.0813 17.7425 84.1008 17.7498C84.1201 17.7571 84.1378 17.7638 84.1545 17.7728C84.3702 17.8899 84.3701 18.3917 84.3701 25.4169C84.3701 32.6065 84.3702 32.7757 84.2872 32.9429L84.2616 32.9775C84.2203 33.0337 84.1868 33.0793 84.1453 33.1165C83.9654 33.2775 83.6365 33.2775 81.88 33.2775L79.8877 33.1103L79.6386 33.1103C79.4727 33.0265 78.8915 32.3575 76.8994 29.7653L74.409 26.5875L74.409 29.6817C74.3299 32.9483 74.3263 32.9507 74.1108 33.0883L74.0978 33.0967L74.077 33.1103C73.9941 33.1939 73.828 33.1939 71.7527 33.1939C69.3455 33.1939 69.3455 33.1939 69.1796 32.8593C69.0965 32.6921 69.0965 32.5249 69.0965 25.3353L69.0965 25.3331C69.0965 19.8226 69.2498 18.2486 69.3482 17.8058ZM110.019 18.058C109.024 18.1417 107.944 18.3925 107.031 18.8943C105.62 19.5632 104.375 20.8177 103.794 22.1555C103.213 23.4099 102.964 24.9151 103.13 26.5041C103.462 30.0163 105.952 32.5249 109.605 33.0267C110.269 33.1103 111.68 33.1103 112.427 33.0267C112.913 33.0267 113.266 32.9371 113.713 32.8235C113.876 32.7819 114.053 32.7371 114.253 32.6921L114.751 32.5249L114.751 31.4379L114.751 30.3507C114.751 30.3507 114.502 30.3507 114.253 30.5179C113.672 30.7689 112.759 30.9361 112.012 31.0197C111.182 31.1033 110.019 31.0197 109.356 30.9361C108.774 30.7689 108.276 30.6015 107.778 30.2671C107.197 29.9327 106.948 29.6817 106.533 29.1799C105.703 28.1765 105.288 27.0057 105.288 25.5841C105.288 22.9919 106.782 20.9849 109.273 20.3159C109.505 20.2489 109.645 20.2087 109.787 20.1846C110 20.1486 110.219 20.1486 110.767 20.1486C111.514 20.1486 111.846 20.1486 112.261 20.2322C112.41 20.2657 112.563 20.2991 112.716 20.3326C113.327 20.4664 113.938 20.6001 114.336 20.7339L114.668 20.9013L114.668 19.8141L114.668 18.727L114.253 18.5598C113.755 18.3925 112.842 18.2253 112.261 18.1416C112.053 18.1416 111.797 18.1335 111.524 18.1248C110.926 18.1057 110.253 18.0842 109.854 18.1416L110.019 18.058ZM144.884 19.8979C145.88 18.8944 147.291 18.2254 148.702 18.0581C149.117 17.8909 150.113 17.9745 150.612 18.0581C153.185 18.6435 155.094 20.7341 155.592 23.5773C155.592 23.8389 155.6 24.1577 155.609 24.4953L155.609 24.4983C155.628 25.2395 155.649 26.0713 155.592 26.5877C155.426 27.9257 154.928 29.1801 154.181 30.1835C153.766 30.7689 153.102 31.4379 152.604 31.7725C151.857 32.3579 150.944 32.7759 150.031 32.9431C149.034 33.1941 147.457 33.1105 146.212 32.7759C145.88 32.6923 144.967 32.2741 144.718 32.1069C144.635 32.0233 144.552 32.0233 144.552 32.0233L144.552 35.2011L144.552 38.3787L142.311 38.3787L142.311 18.5599L144.552 18.5599L144.552 20.2324L144.884 19.8979ZM151.857 21.1523C151.442 20.7341 150.612 20.316 150.031 20.2324L149.947 20.1487C149.797 20.1487 149.6 20.1411 149.386 20.1327C148.892 20.1134 148.302 20.0904 147.955 20.1487C147.527 20.2207 147.221 20.3545 146.774 20.5501L146.772 20.5511L146.766 20.5541L146.763 20.5553C146.693 20.5855 146.621 20.6173 146.544 20.6505C145.88 20.9013 145.382 21.3195 144.884 21.8213L144.552 22.1557L144.552 29.9327L144.718 29.9327C145.133 30.2673 145.797 30.6017 146.461 30.7689C147.291 31.1035 147.623 31.1035 148.536 31.1035C149.283 31.1035 149.449 31.1035 149.781 31.0199C150.612 30.7689 151.275 30.4345 151.857 29.8491C152.604 29.0965 153.102 28.1767 153.351 26.8387C153.434 26.2533 153.434 24.6645 153.351 24.0791C153.102 22.8247 152.604 21.8213 151.857 21.1523ZM175.099 18.058C175.099 18.058 174.352 18.1416 174.103 18.2253C170.451 19.0615 168.21 22.0719 168.459 26.0023C168.542 28.0093 169.205 29.5145 170.368 30.7689C171.364 31.7723 172.443 32.3577 173.854 32.7759C174.684 33.0267 175.265 33.0267 176.261 33.0267C177.506 33.0267 178.419 32.7759 179.499 32.2741C180.993 31.5215 181.989 30.6015 182.736 29.0963C183.068 28.4273 183.234 27.7583 183.4 27.0057C183.483 26.3367 183.483 24.8315 183.4 24.0789C183.151 22.4901 182.487 21.1521 181.408 20.1486C180.163 18.8943 178.586 18.2253 176.676 18.058L175.099 18.058ZM177.091 20.065C178.503 20.3159 179.582 21.1521 180.329 22.2393C180.993 23.2427 181.242 24.1625 181.242 25.5841C181.242 26.5041 181.242 26.8385 180.993 27.5911C180.246 29.9327 178.17 31.3543 175.68 31.1869C173.107 31.0197 171.198 29.3473 170.783 26.7549C170.7 26.0859 170.7 24.9151 170.783 24.3299C170.866 23.8281 171.115 23.1591 171.281 22.7409C172.028 21.3193 173.356 20.3159 174.933 20.065C175.514 19.9814 176.593 19.9814 177.091 20.065ZM120.313 21.5703C121.309 19.396 122.554 18.5598 125.127 18.1417L125.21 18.2253L125.459 18.2253L125.625 18.2253L125.625 20.7341L125.21 20.7341C123.633 20.8177 122.637 21.2357 121.724 22.1557C121.06 22.8247 120.728 23.4101 120.396 24.4971C120.064 25.4169 120.064 25.5843 120.064 29.2637L120.064 32.6087L118.985 32.6087L117.906 32.6087L117.906 18.6434L118.985 18.6434L120.064 18.6434L120.064 20.3995L120.064 22.1557L120.313 21.5703ZM24.1055 18.4762L23.6074 18.4762C22.3624 18.6435 21.2002 19.1452 20.2871 19.8142C19.7891 20.1487 19.042 20.9849 18.71 21.4867C18.2119 22.3229 17.8799 23.0755 17.6309 24.1627C17.5478 24.7481 17.5478 24.8317 17.5478 25.9187C17.5478 27.1731 17.5478 27.5075 17.7969 28.3439C18.544 31.2707 20.7852 33.1941 24.0225 33.6121L26.6788 33.6121C27.7579 33.5285 29.2521 33.1103 30.3312 32.6923L30.5803 32.6923L30.5803 31.4379L30.5803 30.3507L29.9993 30.6853C28.505 31.4379 26.7618 31.7725 25.0187 31.6887C24.2716 31.6887 23.8564 31.6051 23.1925 31.3543C21.6153 30.7689 20.4531 29.5981 20.0381 27.8421C20.0049 27.6413 19.9717 27.4139 19.9385 27.1865C19.8887 26.8453 19.8389 26.5041 19.7891 26.2533L19.7891 26.0859L31.7423 26.0859L31.7423 25.7515C31.7423 25.2497 31.6594 24.3299 31.4933 23.7445C30.7462 20.8177 28.7541 18.8107 26.0146 18.3926L24.1886 18.3926L24.1055 18.4762ZM25.7658 20.3996C26.6788 20.5669 27.5089 20.9013 28.0899 21.4867C28.7541 22.1557 29.2521 23.1591 29.3351 24.1627L29.3351 24.4971L24.6036 24.4971L19.7891 24.4971C19.7891 24.3299 19.9551 23.6609 20.1211 23.3265C20.4531 22.5737 21.0343 21.8211 21.6983 21.4031C22.7773 20.6505 24.3545 20.316 25.6827 20.4832L25.7658 20.3996ZM126.277 18.8105C126.231 18.7011 126.207 18.6433 126.207 18.6433L126.207 18.8105L126.277 18.8105ZM129.112 25.5841C127.748 22.3289 126.57 19.5116 126.277 18.8105L127.369 18.8105L128.531 18.8105L130.772 24.2461C132.018 27.2565 133.097 29.7653 133.097 29.7653C133.108 29.7765 133.115 29.7909 133.124 29.7929C133.183 29.8049 133.351 29.3077 135.504 24.2461C135.784 23.5689 136.064 22.8821 136.322 22.2499C136.828 21.0091 137.248 19.9792 137.413 19.6467L137.828 18.7269L138.907 18.7269L139.986 18.7269C139.933 18.7269 139.171 20.5299 138.023 23.2465C137.371 24.7889 136.595 26.6259 135.753 28.5945L131.602 38.3785L130.523 38.3785L129.444 38.3785C129.475 38.3173 129.761 37.6509 130.124 36.8061C130.752 35.3431 131.611 33.3447 131.769 33.0265L132.018 32.4411L129.112 25.5841Z" fill="#737373"/>
</g>
</svg>
