<svg width="226" height="51" viewBox="0 0 226 51" fill="none" xmlns="http://www.w3.org/2000/svg">
<g clip-path="url(#clip0_105_13646)">
<path d="M33.5655 37.1185L24.2394 41.0844L24.2394 40.6877C22.4395 41.0844 20.3944 41.4015 18.5127 41.4809C9.67735 41.4809 2.72361 36.8807 2.56001 31.5665L2.56001 29.5835C5.4233 33.6287 11.3953 36.4047 18.5127 36.3253C20.8852 36.4047 23.4213 36.0875 25.4664 35.5322L26.2845 33.5494C23.8303 34.2632 21.1306 34.739 18.5127 34.739C9.67735 34.739 2.72361 30.2973 2.56001 24.8246L2.56001 23.2383C5.4233 27.0454 11.3953 29.7422 18.5127 29.5835C21.7033 29.7422 24.8119 29.1077 27.5117 27.9972L27.9207 26.0143C25.3029 27.2834 22.0304 28.0765 18.5945 27.9972C9.75916 28.0765 2.80543 23.6348 2.6418 18.0828L2.6418 16.4965C5.50511 20.3829 11.4771 23.0797 18.5945 23.2383C22.6031 23.159 26.4482 22.0485 29.6387 20.4622L30.0478 18.0828C27.1843 20.1449 23.0122 21.4934 18.5945 21.6521C9.75916 21.4934 2.80543 16.9724 2.6418 11.3409C2.6418 6.02677 9.75916 1.50578 18.5945 1.50578C23.8303 1.50578 28.7388 3.33004 31.6021 6.26473L31.9292 6.74062L33.9745 6.74062L33.6474 6.26473C30.784 2.53688 24.9756 -0.00122095 18.5127 -0.00122088C8.69564 -0.00122078 0.923828 5.15431 0.923828 11.4202L0.923828 11.8168L0.923828 31.9631C1.25106 38.0703 8.85927 43.0672 18.4309 43.0671C24.7302 43.0671 30.4568 40.6877 33.5655 37.1185Z" fill="#737373"/>
<path d="M29.7205 50.9972L32.9928 37.4342L23.5031 41.4L29.3115 17.8433L18.1855 17.8433L21.0489 6.26318L56.472 6.26318L53.6087 17.8433L42.0737 17.8433L39.6193 24.2679L52.3815 19.1124L29.7205 50.9972ZM35.5289 34.6581L33.8929 42.6691L47.473 22.7608L36.347 27.5198L41.2556 16.3363L52.3815 16.3363L54.4268 7.92882L22.2759 7.92883L20.2308 16.3363L31.3568 16.3363L25.9574 38.7034L35.4472 34.7375L35.5289 34.6581Z" fill="#DBDBDB"/>
<path d="M80.0327 14.1139C80.0327 15.3829 79.6238 16.414 78.8057 17.1279C77.9876 17.8417 76.8423 18.2383 75.3698 18.2383C73.8972 18.2383 72.67 17.7624 71.8519 16.8899C70.952 16.0174 70.543 14.7484 70.543 13.3207L70.543 10.9412C70.543 9.51354 71.0338 8.32381 71.8519 7.37203C72.7517 6.49956 73.8972 6.02365 75.3698 6.02365C76.8423 6.02365 78.0693 6.42024 78.8874 7.05476C79.7873 7.76861 80.1964 8.79971 80.1146 10.0688L77.7422 10.0688C77.7422 9.2756 77.5785 8.7204 77.1695 8.32381C76.7604 7.92724 76.1879 7.76861 75.3698 7.76861C74.5516 7.76861 74.0608 8.08586 73.6518 8.64108C73.2427 9.19628 72.9973 9.91013 72.9973 10.8619L72.9973 13.2414C72.9973 14.1139 73.2427 14.907 73.6518 15.4622C74.0608 16.0174 74.7153 16.3347 75.4515 16.3347C76.1877 16.3347 76.7604 16.1761 77.0877 15.7795C77.4149 15.3829 77.6603 14.8277 77.6603 14.0345L80.0327 14.0345L80.0327 14.1139ZM93.613 13.1621C93.613 14.5898 93.1223 15.8588 92.2222 16.8106C91.3223 17.7624 90.0134 18.2383 88.5409 18.2383C87.0683 18.2383 85.8413 17.7624 84.8595 16.8106C83.9596 15.8588 83.4688 14.6691 83.4688 13.1621L83.4688 11.0206C83.4688 9.59286 83.9596 8.40312 84.8595 7.37203C85.7594 6.42024 87.0683 5.94434 88.5409 5.94434C90.0134 5.94434 91.3223 6.42024 92.2222 7.37203C93.204 8.32381 93.613 9.51354 93.613 11.0206L93.613 13.1621ZM91.1587 11.0206C91.1587 10.0688 90.9133 9.35491 90.4225 8.7204C89.9317 8.16518 89.2772 7.84792 88.4591 7.84792C87.641 7.84792 86.9865 8.16518 86.4957 8.7204C86.0867 9.2756 85.7594 10.0688 85.7594 11.0206L85.7594 13.1621C85.7594 14.1139 86.0048 14.907 86.4957 15.4622C86.9048 16.0174 87.641 16.3347 88.4591 16.3347C89.2772 16.3347 89.9317 16.0174 90.4225 15.4622C90.9133 14.907 91.1587 14.1139 91.1587 13.1621L91.1587 11.0206ZM99.9942 18.0797L97.5398 18.0797L97.5398 6.1823L99.9942 6.1823L99.9942 18.0797ZM114.229 18.0797L111.775 18.0797L106.866 10.0688L106.866 18.0797L104.412 18.0797L104.412 6.1823L106.866 6.1823L111.775 14.1932L111.775 6.1823L114.229 6.1823L114.229 18.0797ZM126.664 8.00655L123.146 8.00655L123.146 18.0797L120.692 18.0797L120.692 8.00655L117.256 8.00655L117.256 6.1823L126.664 6.1823L126.664 8.00655ZM136.89 12.8448L132.309 12.8448L132.309 16.2554L137.708 16.2554L137.708 18.0797L129.854 18.0797L129.854 6.1823L137.708 6.1823L137.708 8.00655L132.309 8.00655L132.309 11.0206L136.89 11.0206L136.89 12.8448ZM143.762 16.2554L149.243 16.2554L149.243 18.0797L141.226 18.0797L141.226 6.1823L143.68 6.1823L143.68 16.2554L143.762 16.2554ZM159.796 12.8448L155.215 12.8448L155.215 16.2554L160.614 16.2554L160.614 18.0797L152.761 18.0797L152.761 6.1823L160.614 6.1823L160.614 8.00655L155.215 8.00655L155.215 11.0206L159.796 11.0206L159.796 12.8448ZM173.622 16.4933C173.213 16.9692 172.722 17.3658 171.904 17.7624C171.168 18.159 170.186 18.3176 168.959 18.3176C167.486 18.3176 166.259 17.8417 165.359 16.9692C164.459 16.0968 163.969 14.907 163.969 13.4793L163.969 10.9412C163.969 9.51354 164.459 8.32381 165.359 7.45135C166.259 6.57887 167.486 6.10298 168.877 6.10298C170.35 6.10298 171.577 6.49955 172.313 7.13407C173.049 7.76861 173.54 8.7204 173.458 9.91013L171.168 9.91013C171.168 9.2756 171.004 8.79971 170.595 8.40312C170.186 8.00655 169.695 7.84792 168.959 7.84792C168.223 7.84792 167.65 8.16518 167.159 8.7204C166.75 9.2756 166.504 9.98945 166.504 10.8619L166.504 13.4C166.504 14.2725 166.75 15.0656 167.241 15.6209C167.732 16.1761 168.386 16.4933 169.122 16.4933C169.695 16.4933 170.186 16.4933 170.513 16.3347C170.84 16.2554 171.086 16.0968 171.331 15.9381L171.331 13.638L168.959 13.638L168.959 11.9723L173.786 11.9723L173.786 16.652L173.622 16.4933ZM180.003 13.3207L180.003 18.0797L177.549 18.0797L177.549 6.10298L181.803 6.10298C183.194 6.10298 184.339 6.42024 185.075 7.05476C185.893 7.68929 186.302 8.56177 186.302 9.67219C186.302 10.3067 186.139 10.7826 185.811 11.2585C185.484 11.6551 184.993 12.0517 184.339 12.3689C185.075 12.6069 185.566 12.9241 185.893 13.4C186.22 13.8759 186.384 14.5104 186.384 15.2243L186.384 16.0968C186.384 16.0968 186.384 16.8106 186.548 17.1279C186.548 17.5244 186.793 17.7624 187.038 17.921L187.038 18.0797L184.503 18.0797C184.257 17.921 184.093 17.6037 184.012 17.2072C184.012 16.8106 183.93 16.414 183.93 16.0174L183.93 15.145C183.93 14.5898 183.766 14.1139 183.439 13.7966C183.112 13.4793 182.621 13.3207 182.048 13.3207L180.003 13.3207ZM180.003 11.4964L181.803 11.4964C182.457 11.4964 183.03 11.3378 183.357 11.0999C183.684 10.7826 183.848 10.386 183.848 9.83082C183.848 9.2756 183.684 8.87903 183.357 8.56177C183.03 8.24449 182.539 8.08586 181.884 8.08586L180.085 8.08586L180.085 11.5758L180.003 11.4964ZM196.774 15.5416L192.765 15.5416L191.947 18.0797L189.329 18.0797L193.501 6.1823L196.038 6.1823L200.129 18.0797L197.511 18.0797L196.691 15.4622L196.774 15.5416ZM193.42 13.638L196.202 13.638L194.893 9.43423L193.501 13.638L193.42 13.638ZM205.69 13.7173L205.69 18.0003L203.236 18.0003L203.236 6.1823L207.982 6.1823C209.372 6.1823 210.517 6.57887 211.336 7.21338C212.154 7.92723 212.562 8.87903 212.562 9.98945C212.562 11.0999 212.154 12.0517 211.336 12.7655C210.517 13.4793 209.455 13.7966 207.982 13.7966L205.773 13.7966L205.69 13.7173ZM205.69 11.893L207.899 11.893C208.555 11.893 209.127 11.7344 209.455 11.3378C209.781 10.9412 209.944 10.4653 209.944 9.98945C209.944 9.43423 209.781 8.95834 209.455 8.56177C209.127 8.16518 208.555 8.00655 207.899 8.00655L205.69 8.00655L205.69 11.893ZM225.979 18.0003L223.525 18.0003L223.525 13.0827L218.534 13.0827L218.534 18.0003L216.08 18.0003L216.08 6.10298L218.534 6.10298L218.534 11.2585L223.525 11.2585L223.525 6.10298L225.979 6.10298L225.979 18.0003Z" fill="#737373"/>
<path d="M74.9608 37.5115L73.4065 37.5115L73.4065 29.6592L70.625 29.6592L70.625 28.3901L77.7423 28.3901L77.7423 29.6592L74.9608 29.6592L74.9608 37.5115ZM85.2687 37.5115L83.7144 37.5115L83.7144 33.2285C83.7144 32.6732 83.6326 32.2767 83.3872 32.0387C83.1416 31.8007 82.8145 31.6422 82.3237 31.6422C81.6692 31.6422 81.2602 31.8007 80.9329 32.1973C80.6057 32.594 80.5238 33.1491 80.4421 34.0216L80.4421 37.4322L78.9695 37.4322L78.9695 27.7556L80.4421 27.7556L80.4421 30.2144C80.4421 30.6111 80.4421 31.0075 80.4421 31.4835L80.5238 31.4835C80.5238 31.4835 81.0148 30.9282 81.4237 30.6904C81.8327 30.5317 82.2418 30.3731 82.7328 30.3731C84.4507 30.3731 85.3506 31.2455 85.3506 32.9111L85.3506 37.4322L85.2687 37.5115ZM90.5045 37.5909C89.3593 37.5909 88.5411 37.2735 87.8867 36.6391C87.2322 36.0046 86.9866 35.1321 86.9866 34.0216C86.9866 32.9111 87.314 32.0387 87.8867 31.4042C88.4592 30.7697 89.2773 30.4524 90.2591 30.4524C91.159 30.4524 91.9771 30.7697 92.4679 31.3249C93.0406 31.88 93.286 32.594 93.286 33.625L93.286 34.4181L88.5411 34.4181C88.5411 35.0528 88.7866 35.6079 89.1137 35.9253C89.441 36.3217 90.0137 36.4804 90.5863 36.4804C90.9953 36.4804 91.4044 36.4804 91.7317 36.4011C92.1408 36.4011 92.4679 36.1631 92.877 36.0046L92.877 37.1942C92.877 37.1942 92.1408 37.5115 91.7317 37.5909C91.4044 37.5909 90.9136 37.6702 90.4226 37.6702L90.5045 37.5909ZM90.2591 31.5629C89.7681 31.5629 89.3593 31.7215 89.1137 31.9593C88.8683 32.1973 88.7046 32.6732 88.6229 33.2285L91.8134 33.2285C91.8134 32.6732 91.6498 32.1973 91.4044 31.9593C91.159 31.6422 90.7499 31.5629 90.2591 31.5629ZM101.958 31.6422L100.24 31.6422L100.24 37.4322L98.6853 37.4322L98.6853 31.6422L97.5401 31.6422L97.5401 30.9282L98.6853 30.5317L98.6853 30.1351C98.6853 29.3419 98.849 28.7074 99.2581 28.3109C99.6671 27.9143 100.24 27.7556 101.058 27.7556C101.549 27.7556 102.121 27.7556 102.612 27.9936L102.203 29.1041C102.203 29.1041 101.467 28.9454 101.14 28.9454C100.812 28.9454 100.567 29.0248 100.403 29.2626C100.24 29.5006 100.158 29.7386 100.158 30.135L100.158 30.5317L101.876 30.5317L101.876 31.6422L101.958 31.6422ZM108.175 37.4322L107.93 36.5597C107.93 36.5597 107.439 37.1149 107.03 37.3529C106.621 37.5115 106.212 37.6702 105.721 37.6702C104.821 37.6702 104.248 37.4322 103.758 37.0355C103.348 36.6391 103.103 36.0046 103.103 35.1321L103.103 30.611L104.657 30.611L104.657 34.8941C104.657 35.4493 104.739 35.7666 104.985 36.0837C105.23 36.3217 105.557 36.4804 106.048 36.4804C106.703 36.4804 107.112 36.3217 107.439 35.9253C107.766 35.5286 107.848 34.9734 107.93 34.101L107.93 30.611L109.484 30.611L109.484 37.5115L108.257 37.5115L108.175 37.4322ZM114.147 36.3217C114.147 36.3217 114.884 36.3217 115.293 36.1631L115.293 37.2735C115.293 37.2735 114.884 37.4322 114.638 37.4322C114.393 37.4322 114.147 37.4322 113.82 37.4322C112.429 37.4322 111.693 36.7184 111.693 35.2906L111.693 31.5629L110.711 31.5629L110.711 30.9282L111.775 30.3731L112.266 28.9454L113.166 28.9454L113.166 30.4524L115.211 30.4524L115.211 31.5629L113.166 31.5629L113.166 35.2906C113.166 35.6873 113.166 35.9253 113.411 36.0837C113.493 36.2424 113.82 36.3217 114.065 36.3217L114.147 36.3217ZM121.674 37.4322L121.428 36.5597C121.428 36.5597 120.937 37.1149 120.528 37.3529C120.119 37.5115 119.71 37.6702 119.219 37.6702C118.319 37.6702 117.747 37.4322 117.256 37.0355C116.847 36.6391 116.601 36.0046 116.601 35.1321L116.601 30.611L118.156 30.611L118.156 34.8941C118.156 35.4493 118.238 35.7666 118.483 36.0837C118.729 36.3217 119.056 36.4804 119.547 36.4804C120.201 36.4804 120.61 36.3217 120.937 35.9253C121.265 35.5286 121.346 34.9734 121.428 34.101L121.428 30.611L122.983 30.611L122.983 37.5115L121.755 37.5115L121.674 37.4322ZM128.627 30.3731C128.627 30.3731 129.2 30.3731 129.364 30.3731L129.2 31.7215C129.2 31.7215 128.791 31.7215 128.546 31.7215C127.973 31.7215 127.482 31.88 127.073 32.2767C126.664 32.6731 126.5 33.1491 126.5 33.7836L126.5 37.3529L125.028 37.3529L125.028 30.4524L126.255 30.4524L126.419 31.6422C126.664 31.2455 126.991 30.9282 127.318 30.6904C127.646 30.4524 128.055 30.2937 128.546 30.2937L128.627 30.3731ZM133.536 37.5115C132.391 37.5115 131.572 37.1942 130.918 36.5597C130.264 35.9252 130.018 35.0528 130.018 33.9423C130.018 32.8318 130.345 31.9593 130.918 31.3249C131.491 30.6904 132.309 30.3731 133.29 30.3731C134.19 30.3731 135.008 30.6904 135.499 31.2455C136.072 31.8007 136.317 32.5147 136.317 33.5456L136.317 34.3388L131.572 34.3388C131.572 34.9734 131.818 35.5286 132.145 35.8459C132.472 36.2424 133.045 36.4011 133.618 36.4011C134.027 36.4011 134.436 36.4011 134.763 36.3217C135.172 36.3217 135.499 36.0837 135.908 35.9253L135.908 37.1149C135.908 37.1149 135.172 37.4322 134.763 37.5115C134.354 37.5115 133.945 37.5909 133.454 37.5909L133.536 37.5115ZM133.29 31.4835C132.8 31.4835 132.391 31.6422 132.145 31.88C131.818 32.1973 131.736 32.594 131.654 33.1492L134.845 33.1492C134.845 32.594 134.681 32.118 134.436 31.88C134.109 31.5629 133.781 31.4835 133.29 31.4835ZM147.771 33.9423C147.771 35.0528 147.443 35.9252 146.871 36.5597C146.298 37.1942 145.48 37.5115 144.416 37.5115C143.762 37.5115 143.189 37.3529 142.617 37.0355C142.044 36.7184 141.717 36.3217 141.471 35.7666C141.226 35.2113 141.062 34.5768 141.062 33.863C141.062 32.7525 141.39 31.88 141.962 31.2455C142.535 30.611 143.353 30.2937 144.498 30.2937C145.48 30.2937 146.298 30.611 146.953 31.2455C147.525 31.88 147.852 32.7525 147.852 33.863L147.771 33.9423ZM142.617 33.9423C142.617 35.5286 143.189 36.3217 144.416 36.3217C145.644 36.3217 146.216 35.5286 146.216 33.9423C146.216 32.356 145.644 31.5629 144.416 31.5629C143.762 31.5629 143.353 31.8007 143.026 32.1973C142.698 32.594 142.617 33.1491 142.617 33.9423ZM153.088 31.6422L151.37 31.6422L151.37 37.4322L149.816 37.4322L149.816 31.6422L148.671 31.6422L148.671 30.9282L149.816 30.5317L149.816 30.135C149.816 29.3419 149.979 28.7074 150.388 28.3109C150.798 27.9143 151.37 27.7556 152.188 27.7556C152.679 27.7556 153.252 27.7556 153.743 27.9936L153.333 29.1041C153.333 29.1041 152.597 28.9454 152.27 28.9454C151.943 28.9454 151.697 29.0248 151.534 29.2626C151.37 29.4212 151.288 29.7386 151.288 30.135L151.288 30.5317L153.006 30.5317L153.006 31.6422L153.088 31.6422ZM163.723 37.4322L162.169 37.4322L162.169 33.1492C162.169 32.594 162.087 32.2767 161.842 31.9593C161.678 31.7215 161.351 31.5629 160.86 31.5629C160.287 31.5629 159.878 31.7215 159.551 32.118C159.306 32.5147 159.142 33.0698 159.142 33.9423L159.142 37.3529L157.669 37.3529L157.669 30.4524L158.896 30.4524L159.142 31.3249C159.142 31.3249 159.633 30.7697 160.042 30.5317C160.451 30.373 160.86 30.2937 161.269 30.2937C162.333 30.2937 163.069 30.6904 163.478 31.4042L163.56 31.4042C163.56 31.4042 164.051 30.7697 164.459 30.611C164.868 30.4524 165.278 30.2937 165.769 30.2937C166.668 30.2937 167.241 30.5317 167.65 30.9282C168.059 31.3249 168.223 31.9593 168.223 32.8318L168.223 37.3529L166.75 37.3529L166.75 33.0698C166.75 32.5147 166.668 32.1973 166.423 31.88C166.177 31.6422 165.932 31.4835 165.441 31.4835C164.869 31.4835 164.46 31.6422 164.132 32.0387C163.887 32.4353 163.723 32.9111 163.723 33.7043L163.723 37.3529L163.642 37.3529L163.723 37.4322ZM176.649 33.9423C176.649 35.0528 176.322 35.9252 175.749 36.5597C175.177 37.1942 174.358 37.5115 173.295 37.5115C172.64 37.5115 172.068 37.3529 171.495 37.0355C171.004 36.7184 170.595 36.3217 170.35 35.7666C170.104 35.2113 169.941 34.5768 169.941 33.863C169.941 32.7525 170.268 31.88 170.841 31.2455C171.413 30.611 172.231 30.2937 173.377 30.2937C174.358 30.2937 175.177 30.611 175.831 31.2455C176.404 31.88 176.731 32.7525 176.731 33.863L176.649 33.9423ZM171.495 33.9423C171.495 35.5286 172.068 36.3217 173.295 36.3217C174.522 36.3217 175.095 35.5286 175.095 33.9423C175.095 32.356 174.522 31.5629 173.295 31.5629C172.64 31.5629 172.231 31.8007 171.904 32.1973C171.577 32.594 171.495 33.1491 171.495 33.9423ZM184.666 37.4322L183.112 37.4322L183.112 33.1492C183.112 32.594 183.03 32.1973 182.785 31.9593C182.539 31.7215 182.212 31.5629 181.721 31.5629C181.067 31.5629 180.576 31.7215 180.33 32.118C180.085 32.5147 179.921 33.0698 179.921 33.9423L179.921 37.3529L178.449 37.3529L178.449 30.4524L179.676 30.4524L179.921 31.3249C179.921 31.3249 180.412 30.7697 180.821 30.5317C181.23 30.373 181.639 30.2937 182.13 30.2937C183.848 30.2937 184.666 31.1662 184.666 32.8318L184.666 37.2735L184.666 37.4322ZM189.902 37.5115C188.757 37.5115 187.939 37.1942 187.284 36.5597C186.63 35.9252 186.384 35.0528 186.384 33.9423C186.384 32.8318 186.711 31.9593 187.284 31.3249C187.857 30.6904 188.674 30.373 189.657 30.373C190.556 30.373 191.375 30.6904 191.865 31.2455C192.439 31.8007 192.684 32.5147 192.684 33.5456L192.684 34.3388L187.939 34.3388C187.939 34.9734 188.184 35.5286 188.51 35.8459C188.838 36.2424 189.411 36.4011 189.983 36.4011C190.394 36.4011 190.802 36.4011 191.13 36.3217C191.456 36.3217 191.865 36.0837 192.275 35.9253L192.275 37.1149C192.275 37.1149 191.539 37.4322 191.13 37.5115C190.72 37.5115 190.311 37.5909 189.819 37.5909L189.902 37.5115ZM189.574 31.4835C189.085 31.4835 188.674 31.6422 188.429 31.88C188.102 32.1973 188.021 32.594 187.939 33.1492L191.13 33.1492C191.13 32.594 190.966 32.118 190.72 31.88C190.475 31.5629 190.066 31.4835 189.574 31.4835ZM193.012 30.5317L194.646 30.5317L196.119 34.4181C196.366 34.9734 196.528 35.5286 196.528 36.0046C196.528 36.0046 196.611 35.5286 196.774 35.1321C196.855 34.8148 197.428 33.2285 198.411 30.4524L200.046 30.4524L197.019 38.2253C196.447 39.653 195.546 40.3668 194.238 40.3668C193.91 40.3668 193.584 40.3668 193.256 40.2874L193.256 39.0978C193.256 39.0978 193.748 39.0978 194.074 39.0978C194.81 39.0978 195.302 38.7012 195.629 37.8287L195.874 37.1942L192.929 30.2937L193.012 30.5317Z" fill="#737373"/>
</g>
<defs>
<clipPath id="clip0_105_13646">
<rect width="226" height="51" fill="white"/>
</clipPath>
</defs>
</svg>
