<svg width="126" height="68" viewBox="0 0 126 68" fill="none" xmlns="http://www.w3.org/2000/svg">
<mask id="mask0_1_1324" style="mask-type:alpha" maskUnits="userSpaceOnUse" x="0" y="0" width="126" height="68">
<rect width="125.422" height="68" rx="10" fill="#212121"/>
</mask>
<g mask="url(#mask0_1_1324)">
<ellipse cx="118.889" cy="64.3676" rx="35.7976" ry="35.8308" fill="#3F9D83"/>
<ellipse cx="45.9305" cy="75.3233" rx="32.4007" ry="32.4308" fill="#D9C842"/>
<g filter="url(#filter0_d_1_1324)">
<ellipse cx="-9.66844" cy="50.7676" rx="31.0943" ry="31.1231" fill="#D78C46"/>
</g>
<g filter="url(#filter1_d_1_1324)">
<ellipse cx="9.37679" cy="68.2615" rx="34.2298" ry="34.2615" fill="#3F9D83"/>
</g>
<g opacity="0.6">
<path d="M42.4792 48.8351L46.646 56.1551C47.1211 56.9903 47.0885 57.9278 46.1954 58.2356C45.5138 58.4705 44.4045 58.3023 44.0412 57.6653L39.8642 50.3509C39.3859 49.5125 40.2399 48.287 41.137 47.9779C41.8214 47.742 42.1147 48.1946 42.4792 48.8351Z" fill="#212121"/>
<path d="M48.5782 49.5953L52.7457 56.9153C53.2208 57.7503 53.1879 58.6879 52.2948 58.9957C51.6132 59.2306 50.5041 59.0623 50.1402 58.4255L45.9638 51.1109C45.485 50.2727 46.3393 49.0471 47.2361 48.7381C47.921 48.502 48.2137 48.9548 48.5782 49.5953Z" fill="#212121"/>
</g>
<g opacity="0.8">
<path d="M13.5695 57.0722L18.4341 48.5263C18.9888 47.5512 18.9507 46.4567 17.908 46.0973C17.1123 45.8231 15.8172 46.0195 15.393 46.7632L10.5166 55.3025C9.95821 56.2813 10.9551 57.712 12.0025 58.0729C12.8015 58.3483 13.1439 57.8198 13.5695 57.0722Z" fill="#212121"/>
<path d="M20.6899 56.1845L25.5553 47.6386C26.1099 46.6637 26.0715 45.5692 25.0289 45.2098C24.2332 44.9356 22.9383 45.132 22.5135 45.8755L17.6377 54.415C17.0787 55.3936 18.076 56.8244 19.123 57.1853C19.9227 57.4609 20.2644 56.9322 20.6899 56.1845Z" fill="#212121"/>
</g>
<path opacity="0.8" d="M105.778 52.7251C113.592 56.2788 117.845 55.3331 125.195 48.2957" stroke="#212121" stroke-width="3" stroke-linecap="round"/>
<g filter="url(#filter2_d_1_1324)">
<ellipse cx="78.128" cy="69.8306" rx="31.0943" ry="31.1231" fill="#3F9D83"/>
</g>
<g filter="url(#filter3_d_1_1324)">
<ellipse cx="118.628" cy="76.8922" rx="22.4715" ry="22.4923" fill="#D9C842"/>
</g>
<g opacity="0.4">
<path d="M119.14 68.8945L115.726 62.8975C115.337 62.2132 115.364 61.4451 116.095 61.193C116.654 61.0005 117.562 61.1384 117.86 61.6602L121.282 67.6527C121.674 68.3396 120.974 69.3435 120.239 69.5968C119.679 69.7901 119.438 69.4192 119.14 68.8945Z" fill="#212121"/>
<path d="M114.144 68.2718L110.729 62.2748C110.34 61.5907 110.367 60.8225 111.099 60.5704C111.657 60.3779 112.566 60.5158 112.864 61.0375L116.286 67.0301C116.678 67.7168 115.978 68.7209 115.243 68.9741C114.682 69.1675 114.442 68.7965 114.144 68.2718Z" fill="#212121"/>
</g>
<path d="M4.5332 57.8C9.82121 64.8905 14.0297 66.0717 23.7999 63.0889" stroke="#273A35" stroke-width="3" stroke-linecap="round"/>
<path opacity="0.8" d="M64.9775 58.1777C70.2655 65.2682 74.474 66.4494 84.2442 63.4666" stroke="#212121" stroke-width="3" stroke-linecap="round"/>
</g>
<defs>
<filter id="filter0_d_1_1324" x="-61.7627" y="-6.35547" width="110.188" height="110.246" filterUnits="userSpaceOnUse" color-interpolation-filters="sRGB">
<feFlood flood-opacity="0" result="BackgroundImageFix"/>
<feColorMatrix in="SourceAlpha" type="matrix" values="0 0 0 0 0 0 0 0 0 0 0 0 0 0 0 0 0 0 127 0" result="hardAlpha"/>
<feOffset dx="3" dy="-2"/>
<feGaussianBlur stdDeviation="12"/>
<feComposite in2="hardAlpha" operator="out"/>
<feColorMatrix type="matrix" values="0 0 0 0 0 0 0 0 0 0 0 0 0 0 0 0 0 0 0.25 0"/>
<feBlend mode="normal" in2="BackgroundImageFix" result="effect1_dropShadow_1_1324"/>
<feBlend mode="normal" in="SourceGraphic" in2="effect1_dropShadow_1_1324" result="shape"/>
</filter>
<filter id="filter1_d_1_1324" x="-45.853" y="8" width="116.459" height="116.523" filterUnits="userSpaceOnUse" color-interpolation-filters="sRGB">
<feFlood flood-opacity="0" result="BackgroundImageFix"/>
<feColorMatrix in="SourceAlpha" type="matrix" values="0 0 0 0 0 0 0 0 0 0 0 0 0 0 0 0 0 0 127 0" result="hardAlpha"/>
<feOffset dx="3" dy="-2"/>
<feGaussianBlur stdDeviation="12"/>
<feComposite in2="hardAlpha" operator="out"/>
<feColorMatrix type="matrix" values="0 0 0 0 0 0 0 0 0 0 0 0 0 0 0 0 0 0 0.25 0"/>
<feBlend mode="normal" in2="BackgroundImageFix" result="effect1_dropShadow_1_1324"/>
<feBlend mode="normal" in="SourceGraphic" in2="effect1_dropShadow_1_1324" result="shape"/>
</filter>
<filter id="filter2_d_1_1324" x="26.0337" y="12.7075" width="110.188" height="110.246" filterUnits="userSpaceOnUse" color-interpolation-filters="sRGB">
<feFlood flood-opacity="0" result="BackgroundImageFix"/>
<feColorMatrix in="SourceAlpha" type="matrix" values="0 0 0 0 0 0 0 0 0 0 0 0 0 0 0 0 0 0 127 0" result="hardAlpha"/>
<feOffset dx="3" dy="-2"/>
<feGaussianBlur stdDeviation="12"/>
<feComposite in2="hardAlpha" operator="out"/>
<feColorMatrix type="matrix" values="0 0 0 0 0 0 0 0 0 0 0 0 0 0 0 0 0 0 0.25 0"/>
<feBlend mode="normal" in2="BackgroundImageFix" result="effect1_dropShadow_1_1324"/>
<feBlend mode="normal" in="SourceGraphic" in2="effect1_dropShadow_1_1324" result="shape"/>
</filter>
<filter id="filter3_d_1_1324" x="75.1567" y="28.3999" width="92.9429" height="92.9846" filterUnits="userSpaceOnUse" color-interpolation-filters="sRGB">
<feFlood flood-opacity="0" result="BackgroundImageFix"/>
<feColorMatrix in="SourceAlpha" type="matrix" values="0 0 0 0 0 0 0 0 0 0 0 0 0 0 0 0 0 0 127 0" result="hardAlpha"/>
<feOffset dx="3" dy="-2"/>
<feGaussianBlur stdDeviation="12"/>
<feComposite in2="hardAlpha" operator="out"/>
<feColorMatrix type="matrix" values="0 0 0 0 0 0 0 0 0 0 0 0 0 0 0 0 0 0 0.25 0"/>
<feBlend mode="normal" in2="BackgroundImageFix" result="effect1_dropShadow_1_1324"/>
<feBlend mode="normal" in="SourceGraphic" in2="effect1_dropShadow_1_1324" result="shape"/>
</filter>
</defs>
</svg>
