<svg width="293" height="45" viewBox="0 0 293 45" fill="none" xmlns="http://www.w3.org/2000/svg">
<path d="M47.6168 20.3288C47.6168 16.6495 47.6168 13.0893 47.6168 9.46252C49.7831 9.46252 51.8225 9.46252 54.0206 9.46252C54.0206 9.91047 54.0206 10.3311 54.0206 10.7517C54.0206 15.1962 54.0081 19.6407 54.0275 24.0852C54.0345 25.6776 54.2726 27.259 55.829 28.1046C57.5317 29.0297 59.2931 28.8252 60.9294 27.8583C62.4889 26.937 62.9962 25.4279 62.9978 23.7017C63.0017 19.4158 62.9993 15.1301 62.9995 10.8443C62.9995 10.4142 62.9995 9.98398 62.9995 9.47462C65.1331 9.47462 67.1744 9.47462 69.3057 9.47462C69.3361 9.76449 69.3953 10.0673 69.3955 10.3702C69.4004 18.267 69.4285 26.1642 69.3887 34.0609C69.3604 39.6949 66.3227 43.6572 61.0688 44.6797C58.6828 45.1442 56.1996 45.1499 53.8138 44.3757C49.7862 43.0687 47.1822 39.0381 47.7436 34.9468C47.876 34.9233 48.0251 34.8742 48.1745 34.8736C49.9145 34.8683 51.6546 34.8703 53.4504 34.8703C53.5081 35.0963 53.5624 35.2751 53.5987 35.4578C54.1687 38.3104 55.6567 39.5108 58.5629 39.4589C60.8569 39.418 62.527 37.852 62.8513 35.198C63.0202 33.8144 62.881 32.3929 62.881 30.9694C60.0066 34.161 56.4793 34.5412 52.7258 33.0836C49.2877 31.7483 47.7774 28.9195 47.6289 25.3283C47.5619 23.7042 47.617 22.0748 47.6168 20.3288Z" fill="#DBDBDB"/>
<path d="M20.1192 34.2831C15.4403 35.1925 11.1048 34.7024 7.27256 31.8158C3.72515 29.1437 2.12064 25.3604 1.56397 21.0999C1.0876 17.4538 1.27324 13.8204 2.39387 10.2796C4.5484 3.47194 9.56407 -0.0475759 16.6838 0.000859277C21.0425 0.0305162 24.7484 1.33503 27.5965 4.71639C29.2485 6.67772 30.1232 8.97857 30.4191 11.7107C28.2366 11.7107 26.1186 11.7368 24.0034 11.6736C23.7707 11.6666 23.4687 11.1809 23.3418 10.8604C21.7986 6.95975 18.5857 5.17513 14.5498 6.03537C11.9073 6.5986 10.2011 8.3031 9.34379 10.768C7.82324 15.1399 7.83131 19.5846 9.36585 23.9431C10.5384 27.2733 13.0441 28.8041 16.6334 28.7086C19.8603 28.6227 22.2172 26.8511 23.2248 23.5307C23.5355 22.5064 24.0081 22.2818 24.9632 22.3174C26.7322 22.3836 28.5054 22.3364 30.2898 22.3364C29.6395 28.0375 25.5983 32.9973 20.1192 34.2831Z" fill="#DBDBDB"/>
<path d="M78.9657 11.546C82.7767 7.29819 89.8261 8.01101 93.1907 12.958C95.3948 16.199 95.8185 19.8733 95.4816 23.6707C95.254 26.2363 94.5547 28.6651 92.9399 30.7343C89.4758 35.1729 83.0816 35.4482 79.2066 31.3334C79.0515 31.1688 78.9913 30.9145 78.887 30.702C78.7728 30.7738 78.6585 30.8454 78.544 30.9172C78.544 35.5293 78.544 40.1413 78.544 44.8422C76.4157 44.8422 74.4127 44.8422 72.332 44.8422C72.332 33.0485 72.332 21.3205 72.332 9.4937C74.2787 9.4937 76.2365 9.4937 78.3502 9.4937C78.3792 10.137 78.4014 10.831 78.4614 11.5218C78.4651 11.5664 78.7573 11.5859 78.9657 11.546ZM80.7829 27.9598C83.3777 29.3996 86.4646 28.8316 87.8903 26.6516C89.6311 23.9902 89.4448 18.5194 87.5272 15.9991C85.4725 13.2983 81.6545 13.2894 79.7586 16.1126C79.0562 17.1585 78.5204 18.4766 78.3958 19.7197C78.0998 22.6685 78.1746 25.6243 80.7829 27.9598Z" fill="#DBDBDB"/>
<path d="M100.957 32.1225C98.7201 30.1975 97.8758 27.6974 97.8475 24.963C97.7735 17.7828 97.8219 10.6013 97.8254 3.42032C97.8254 3.30721 97.8731 3.19414 97.9178 2.99536C99.9458 2.99536 101.975 2.99536 104.135 2.99536C104.135 5.10461 104.135 7.1858 104.135 9.36366C108.604 9.36366 112.945 9.36366 117.381 9.36366C117.381 10.8993 117.381 12.3376 117.381 13.8831C113.034 13.8831 108.694 13.8831 104.449 13.8831C104.303 14.0445 104.206 14.1014 104.206 14.1585C104.195 17.7667 104.068 21.3804 104.229 24.9812C104.356 27.8262 106.404 29.2102 108.93 28.4945C110.312 28.1028 111.1 27.1377 111.28 25.7945C111.474 24.3491 111.472 22.8752 111.515 21.4125C111.549 20.2284 111.522 19.0424 111.522 17.7674C113.508 17.7674 115.42 17.7674 117.622 17.7674C117.463 20.9829 117.599 24.2197 117.072 27.3439C116.435 31.1151 113.838 33.3884 110.065 34.0006C106.872 34.5187 103.731 34.2958 100.957 32.1225Z" fill="#DBDBDB"/>
<path d="M129.88 8.91089C131.754 8.97945 133.564 8.84194 135.284 9.17654C139.234 9.94548 141.955 12.3557 143.351 16.136C144.599 19.5172 144.641 22.9858 143.5 26.3987C142.065 30.689 139.04 33.2865 134.585 33.9754C129.837 34.7096 125.452 33.9116 122.244 29.9277C119.726 26.7996 119.194 23.075 119.765 19.2325C120.656 13.2399 123.84 10.0588 129.88 8.91089ZM126.235 20.4857C126.4 22.0918 126.365 23.7521 126.778 25.2915C127.415 27.6603 129.325 28.8499 131.921 28.8747C134.586 28.9001 136.424 27.69 137.245 25.334C137.982 23.2186 138 21.0394 137.583 18.877C136.982 15.7641 135.084 14.2 132.075 14.1815C128.952 14.1623 127.127 15.6646 126.432 18.849C126.331 19.3108 126.305 19.789 126.235 20.4857Z" fill="#DBDBDB"/>
<path d="M37.9159 11.545C38.1718 11.5218 38.4825 11.4646 38.6378 11.2778C40.5132 9.02203 43.0223 8.65718 45.8151 8.79204C45.8151 10.9557 45.8151 13.0665 45.8151 15.2116C45.1227 15.2116 44.4603 15.1933 43.7993 15.2146C40.1202 15.333 38.3311 17.1862 38.3153 20.9245C38.2995 24.6548 38.3112 28.3851 38.311 32.1154C38.311 32.5495 38.311 32.9837 38.311 33.5149C36.1766 33.5149 34.1086 33.5149 31.9727 33.5149C31.9727 25.5164 31.9727 17.5551 31.9727 9.49483C33.8801 9.49483 35.794 9.49483 37.8987 9.49483C37.8987 10.1367 37.8987 10.7937 37.9159 11.545Z" fill="#DBDBDB"/>
<path d="M153.098 33.3209C150.847 33.4289 148.62 33.4289 146.334 33.4289C146.334 22.7027 146.334 11.9347 146.334 1.08193C146.601 1.05232 146.862 0.998495 147.122 0.998204C151.635 0.993172 156.148 0.9963 160.661 0.994508C169.694 0.990925 173.006 9.94164 170.084 16.2377C168.326 20.0248 165.082 21.5996 161.08 21.7399C158.477 21.8311 155.869 21.7571 153.121 21.7571C153.121 25.6293 153.121 29.4212 153.098 33.3209ZM164.407 14.0676C166.105 10.6234 164.653 7.16614 161.158 6.81962C158.544 6.5605 155.883 6.76851 153.218 6.76851C153.218 9.87003 153.218 13.0031 153.218 16.2008C155.284 16.2008 157.256 16.2016 159.229 16.1999C159.546 16.1997 159.863 16.2061 160.178 16.1791C161.797 16.0405 163.303 15.6514 164.407 14.0676Z" fill="#737373"/>
<path d="M232.192 18.8638C232.942 18.6802 233.608 18.5583 234.237 18.3301C235.13 18.0058 235.647 17.3755 235.673 16.3636C235.698 15.3631 235.217 14.7116 234.385 14.2677C231.408 12.676 228.197 13.9864 227.23 17.2244C225.32 17.2244 223.396 17.2244 221.478 17.2244C221.058 13.7723 223.124 10.6622 226.677 9.53007C229.84 8.52209 233.079 8.49055 236.282 9.30012C239.761 10.179 241.812 12.4306 242.025 16.0012C242.271 20.1507 242.195 24.3201 242.244 28.481C242.263 30.1384 242.247 31.7961 242.247 33.602C240.343 33.602 238.534 33.6208 236.729 33.5764C236.52 33.5713 236.231 33.2502 236.135 33.0127C235.973 32.6181 235.938 32.1724 235.819 31.5991C233.372 33.8102 230.502 34.3602 227.4 34.1725C223.642 33.9452 221.062 31.937 220.648 28.852C220.048 24.3745 221.693 21.3125 225.586 20.1554C227.693 19.5287 229.918 19.2912 232.192 18.8638ZM227.168 25.6235C226.506 28.4497 227.64 29.8003 230.524 29.6166C234.247 29.3794 236.421 26.1978 235.717 22.1875C234.01 22.6009 232.289 22.9906 230.584 23.4393C229.285 23.7811 227.963 24.1258 227.168 25.6235Z" fill="#737373"/>
<path d="M216.366 13.9351C212.653 13.9351 209.055 13.9351 205.351 13.9351C205.326 14.4035 205.289 14.7834 205.289 15.1634C205.285 17.9793 205.279 20.7951 205.293 23.611C205.295 24.2036 205.342 24.8001 205.424 25.3871C205.72 27.5293 206.947 28.6564 208.947 28.6574C210.981 28.6582 212.334 27.4641 212.547 25.3131C212.68 23.9762 212.624 22.62 212.637 21.2721C212.649 20.1283 212.641 18.9845 212.641 17.7599C214.641 17.7599 216.56 17.7599 218.739 17.7599C218.597 20.9135 218.724 24.1048 218.247 27.2025C217.64 31.1383 214.637 33.6837 210.66 34.0901C209.258 34.2333 207.791 34.227 206.408 33.9815C202.04 33.2063 199.218 30.2946 199.105 25.8772C198.907 18.2746 199.05 10.6631 199.05 2.97986C201.113 2.97986 203.15 2.97986 205.275 2.97986C205.275 5.09183 205.275 7.18452 205.275 9.38819C209.738 9.38819 214.118 9.38819 218.55 9.38819C218.55 10.9516 218.55 12.4022 218.55 13.9351C217.821 13.9351 217.151 13.9351 216.366 13.9351Z" fill="#737373"/>
<path d="M258.394 26.1078C258.548 23.2898 258.673 20.5644 258.802 17.7569C260.65 17.7569 262.564 17.7569 264.758 17.7569C264.604 20.9667 264.737 24.2028 264.223 27.3316C263.588 31.1887 260.674 33.6199 256.759 34.0799C255.359 34.2444 253.886 34.2491 252.501 34.0129C247.793 33.2106 245.113 30.1023 245.018 25.0253C244.883 17.805 244.982 10.5803 244.986 3.3575C244.986 3.24665 245.043 3.13583 245.09 2.96753C247.1 2.96753 249.108 2.96753 251.259 2.96753C251.259 5.06596 251.259 7.18004 251.259 9.37306C255.747 9.37306 260.091 9.37306 264.526 9.37306C264.526 10.8943 264.526 12.3359 264.526 13.9108C260.168 13.9108 255.796 13.9108 251.298 13.9108C251.298 16.6865 251.286 19.3329 251.303 21.979C251.311 23.1674 251.266 24.3732 251.448 25.5391C251.753 27.5014 252.804 28.4774 254.507 28.6439C256.388 28.8276 257.595 28.063 258.394 26.1078Z" fill="#737373"/>
<path d="M290.106 14.3621C292.217 18.435 292.366 22.5973 290.932 26.7729C289.674 30.4316 287.06 32.8716 283.273 33.7282C278.186 34.8784 273.434 34.277 269.871 29.9844C266.117 25.4621 266.24 17.3164 270.02 12.8142C272.34 10.0491 275.438 8.91498 278.944 8.80802C283.599 8.66604 287.514 10.1082 290.106 14.3621ZM285.054 24.6348C285.056 22.5539 285.312 20.4332 284.998 18.4014C284.57 15.6427 282.507 14.2163 279.644 14.1904C276.741 14.1641 274.864 15.5327 274.145 18.2626C273.557 20.4888 273.58 22.736 274.192 24.9498C274.67 26.6839 275.7 27.9776 277.481 28.5545C280.923 29.6697 283.826 28.2309 285.054 24.6348Z" fill="#737373"/>
<path d="M185.796 8.855C191.952 9.34532 196.255 13.6079 196.591 19.7357C196.705 21.8383 196.584 24.0615 196.015 26.073C194.66 30.8749 191.224 33.5286 186.322 34.0758C184.545 34.2742 182.656 34.1638 180.906 33.7843C175.963 32.7115 172.558 28.6648 172.203 23.4822C172.071 21.568 172.114 19.5651 172.53 17.7038C173.803 11.9995 178.411 8.69844 184.624 8.7846C184.979 8.78954 185.335 8.82536 185.796 8.855ZM190.185 19.6247C190.117 19.2744 190.058 18.9223 189.98 18.5742C189.349 15.7439 187.492 14.2374 184.581 14.1909C181.625 14.1436 179.757 15.5222 179.018 18.3485C178.465 20.4606 178.475 22.5887 179.025 24.7003C179.749 27.4753 181.602 28.8801 184.47 28.8716C187.366 28.863 189.375 27.3827 189.919 24.5673C190.215 23.0305 190.123 21.4183 190.185 19.6247Z" fill="#737373"/>
<path d="M278.658 24.9608C275.951 23.9764 275.367 19.1639 277.738 17.1004C278.771 16.2005 280.273 16.2272 281.307 17.1431C283.195 18.8189 283.237 22.6221 281.371 24.33C280.623 25.0161 279.748 25.2785 278.658 24.9608Z" fill="#737373"/>
<path d="M129.88 17.748C131.634 16.2775 133.452 16.5484 134.487 18.4521C135.487 20.2911 135.489 22.195 134.363 23.9864C133.092 26.0102 130.701 25.9554 129.425 23.9298C128.275 22.1038 128.43 19.7108 129.88 17.748Z" fill="#737373"/>
</svg>
