<svg width="13" height="13" viewBox="0 0 13 13" fill="none" xmlns="http://www.w3.org/2000/svg">
<g id="Frame" clip-path="url(#clip0_791_65)">
<path id="Vector" d="M6.49977 12.1311C6.49977 11.6454 6.10559 11.2513 5.6199 11.2513H1.7485V1.74873H5.6199C5.85326 1.74873 6.07705 1.65603 6.24206 1.49102C6.40707 1.32601 6.49977 1.10222 6.49977 0.868863C6.49977 0.635508 6.40707 0.411711 6.24206 0.246705C6.07705 0.0816982 5.85326 -0.0110016 5.6199 -0.0110016H1.57253C1.15249 -0.0110016 0.749653 0.155858 0.452641 0.45287C0.155629 0.749882 -0.0112305 1.15272 -0.0112305 1.57275V11.4272C-0.0112305 11.8473 0.155629 12.2501 0.452641 12.5471C0.749653 12.8441 1.15249 13.011 1.57253 13.011H5.6199C6.10559 13.011 6.49977 12.6168 6.49977 12.1311Z" fill="#C9AE6A"/>
<path id="Vector_2" d="M8.61132 8.77498L10.0064 7.37987H4.56395C4.33059 7.37987 4.1068 7.28717 3.94179 7.12216C3.77678 6.95715 3.68408 6.73336 3.68408 6.5C3.68408 6.26665 3.77678 6.04285 3.94179 5.87784C4.1068 5.71284 4.33059 5.62014 4.56395 5.62014H10.0064L8.61132 4.22502C8.4463 4.05999 8.35358 3.83617 8.35358 3.60278C8.35358 3.3694 8.4463 3.14557 8.61132 2.98054C8.77635 2.81551 9.00018 2.7228 9.23356 2.7228C9.46695 2.7228 9.69078 2.81551 9.8558 2.98054L12.753 5.87776C12.8348 5.95947 12.8996 6.05647 12.9438 6.16324C12.988 6.27 13.0108 6.38444 13.0108 6.5C13.0108 6.61557 12.988 6.73 12.9438 6.83676C12.8996 6.94353 12.8348 7.04053 12.753 7.12224L9.8558 10.0195C9.69078 10.1845 9.46695 10.2772 9.23356 10.2772C9.00018 10.2772 8.77635 10.1845 8.61132 10.0195C8.4463 9.85443 8.35358 9.6306 8.35358 9.39722C8.35358 9.16383 8.4463 8.94001 8.61132 8.77498Z" fill="#C9AE6A"/>
</g>
<defs>
<clipPath id="clip0_791_65">
<rect width="13" height="13" fill="white"/>
</clipPath>
</defs>
</svg>
