<svg width="13" height="13" viewBox="0 0 13 13" fill="none" xmlns="http://www.w3.org/2000/svg">
<g id="Frame" clip-path="url(#clip0_791_70)">
<g id="Group">
<path id="Vector" d="M12.646 9.54069L10.8318 7.7265C10.1838 7.07858 9.08237 7.33777 8.8232 8.18005C8.62882 8.76321 7.9809 9.08717 7.39776 8.95756C6.10191 8.6336 4.35252 6.94899 4.02856 5.58835C3.83418 5.00519 4.22293 4.35727 4.80607 4.16292C5.64837 3.90375 5.90754 2.80227 5.25961 2.15435L3.44542 0.34016C2.92708 -0.113387 2.14957 -0.113387 1.69603 0.34016L0.464971 1.57122C-0.766086 2.86707 0.594556 6.30107 3.6398 9.34631C6.68505 12.3916 10.119 13.817 11.4149 12.5211L12.646 11.2901C13.0995 10.7717 13.0995 9.99424 12.646 9.54069Z" fill="#C9AE6A"/>
</g>
</g>
<defs>
<clipPath id="clip0_791_70">
<rect width="13" height="13" fill="white"/>
</clipPath>
</defs>
</svg>
