<svg width="13" height="13" viewBox="0 0 13 13" fill="none" xmlns="http://www.w3.org/2000/svg">
<path d="M11.1944 11.2673H1.80968C1.52306 11.2673 1.29004 11.5021 1.29004 11.7869V12.4804C1.29004 12.767 1.5249 13 1.80968 13H11.1908C11.4774 13 11.7104 12.7651 11.7104 12.4804V11.7869C11.716 11.4984 11.4811 11.2673 11.1944 11.2673Z" fill="#C9AE6A"/>
<path d="M6.50489 7.62939e-06C6.37361 7.62939e-06 6.24047 0.0517855 6.13875 0.153504L2.58085 3.70586C2.3793 3.90928 2.3793 4.2403 2.58085 4.44185L3.07274 4.93374C3.27616 5.1353 3.60716 5.1353 3.80873 4.93374L5.6376 3.10486V9.97099C5.6376 10.2595 5.87062 10.4906 6.15724 10.4906H6.85071C7.13546 10.4906 7.37033 10.2576 7.37033 9.97099V3.10669L9.19735 4.93558C9.4026 5.13716 9.73176 5.13716 9.93334 4.93558L10.4252 4.44369C10.6268 4.23841 10.6268 3.90925 10.4252 3.7077L6.87104 0.153504C6.82329 0.104848 6.76631 0.0662098 6.70343 0.0398521C6.64056 0.0134945 6.57306 -5.05447e-05 6.50489 7.62939e-06Z" fill="#C9AE6A"/>
</svg>
