<svg width="98" height="98" viewBox="0 0 98 98" fill="none" xmlns="http://www.w3.org/2000/svg">
<path d="M83.6472 14.3528C74.3904 5.096 62.0872 0 49 0C21.98 0 0 21.98 0 49C0 62.0872 5.096 74.3904 14.3528 83.6472C23.6096 92.904 35.9128 98 49 98C62.0872 98 74.3904 92.904 83.6472 83.6472C92.904 74.3904 98 62.0872 98 49C98 35.9128 92.904 23.6096 83.6472 14.3528ZM49 96.3032C36.3664 96.3032 24.4832 91.3808 15.5512 82.4488C6.6192 73.5112 1.6968 61.6336 1.6968 49C1.6968 36.3664 6.6192 24.4832 15.5512 15.5512C24.4832 6.61361 36.3664 1.6968 49 1.6968C61.6336 1.6968 73.5168 6.61921 82.4488 15.5512C91.3808 24.4832 96.3032 36.3664 96.3032 49C96.3032 75.0848 75.0848 96.3032 49 96.3032Z" fill="white"/>
<path d="M49.0009 3.64551C23.9521 3.64551 3.64648 23.9511 3.64648 48.9999C3.64648 74.0487 23.9521 94.3543 49.0009 94.3543C74.0497 94.3543 94.3553 74.0487 94.3553 48.9999C94.3553 23.9511 74.0497 3.64551 49.0009 3.64551ZM42.3705 6.1207H45.9601L49.2081 14.6215L52.4561 6.1207H56.0457V18.0599H53.6545V9.7271L50.5073 18.0599H47.8977L44.7505 9.7271V18.0599H42.3593V6.1207H42.3705ZM12.2649 25.7599L18.0889 18.8159C19.2929 17.3767 20.9785 16.2343 22.5801 17.5783C23.0729 17.9927 23.2857 18.1327 23.8849 19.2247C24.0249 19.6111 24.1369 20.3167 23.8681 21.0055C25.2625 20.1431 26.7465 20.4231 27.7041 21.3583C29.1769 22.7919 28.9641 24.4495 27.5585 26.1239L21.4153 33.4431L12.2593 25.7599H12.2649ZM49.0009 77.9687C33.0017 77.9687 20.0321 64.9991 20.0321 48.9999C20.0321 33.0007 33.0017 20.0311 49.0009 20.0311C65.0001 20.0311 77.9697 33.0007 77.9697 48.9999C77.9697 64.9991 65.0001 77.9687 49.0009 77.9687ZM75.9985 33.6839L73.8313 30.9847L78.1489 24.6679L78.1209 24.6343L71.0481 27.5463L68.8585 24.8639L76.3457 15.2319L78.1937 17.5111L73.5009 23.6487L80.6689 20.5743L82.6513 23.0215L78.1489 29.3943L85.1265 26.0847L86.9745 28.3639L75.9929 33.6839H75.9985Z" fill="white"/>
<path d="M21.8965 49.0001H49.0061V21.8905C34.0373 21.8905 21.8965 34.0257 21.8965 49.0001Z" fill="white"/>
<path d="M19.365 20.5351C19.7682 20.0535 20.6866 20.0703 21.2746 20.5687C21.9242 21.1119 21.9242 21.8847 21.4874 22.3999L18.0266 26.5215L15.8594 24.7071L19.3594 20.5351H19.365Z" fill="white"/>
<path d="M25.5202 25.4018L21.8746 29.7474L19.5898 27.8266L23.269 23.4474C23.6834 22.9546 24.6074 22.809 25.2346 23.3298C25.9402 23.9234 26.013 24.8194 25.5258 25.4018H25.5202Z" fill="white"/>
<path d="M49.2129 49V76.1096C64.1817 76.1096 76.3225 63.9744 76.3225 49H49.2129Z" fill="white"/>
</svg>
