<svg width="140" height="74" viewBox="0 0 140 74" fill="none" xmlns="http://www.w3.org/2000/svg">
<path d="M62.8317 46.2727C62.2587 47.9115 61.8122 48.9647 61.1465 49.6641C60.6241 50.2118 59.9374 50.6036 58.3534 50.6036C57.1105 50.6036 56.4196 50.098 56.4196 49.1375C56.4112 48.5182 56.5797 47.5745 57.2453 45.7461C57.8183 44.1072 58.2649 43.054 58.9305 42.3547C59.4445 41.807 60.1354 41.4152 61.7195 41.4152C62.9623 41.4152 63.649 41.9207 63.649 42.8813C63.6616 43.509 63.4931 44.4485 62.8275 46.2769M62.5621 37.4382H62.0312C58.8884 37.4382 57.0937 38.285 55.6192 39.8479C53.7865 41.7859 52.0676 47.0226 52.1013 49.7989C52.135 52.6258 53.9635 54.5806 57.8057 54.5806H58.366C61.5173 54.5806 63.312 53.7338 64.7823 52.1708C66.6149 50.2286 68.3001 44.992 68.2664 42.2241C68.2285 39.3972 66.4 37.4382 62.5578 37.4382M80.9895 37.6446L74.8891 49.6304H74.7585L74.451 37.6446H69.3449L69.1469 38.0785L69.585 38.3439C70.0063 38.643 70.1243 38.9464 70.1791 39.7763L70.87 54.3194H76.5574L85.7374 37.6446H80.9895ZM47.1343 43.6944C46.8478 44.4063 46.5319 44.5791 46.119 44.7476C45.8409 44.8571 45.2511 44.8951 44.6866 44.8951H42.4916L43.6839 41.4489H46.3381C47.1301 41.4489 47.4587 41.8617 47.4671 42.3336C47.4713 42.6327 47.3323 43.1804 47.1343 43.6944ZM46.7383 37.6446H39.5384L39.3909 38.0785L39.6816 38.365C39.9892 38.6683 39.9765 39.0264 39.7069 39.7974L34.6767 54.3194H39.273L41.2404 48.5561H42.795L44.5265 54.3194H49.1439L46.97 48.4213C48.2297 48.2149 48.8658 47.8568 49.4978 47.2922C50.3656 46.5002 50.9639 45.388 51.461 43.7491C52.1856 41.373 51.7475 40.0165 51.2798 39.3213C50.6395 38.3608 49.2871 37.6446 46.7299 37.6446M35.2075 39.7932L22.6277 43.9303L21.0899 48.1474H32.1868L33.6319 44.1746H25.939L34.6682 41.2172L35.2075 39.7932ZM108.403 43.6944C108.117 44.4063 107.796 44.5791 107.388 44.7476C107.101 44.8571 106.524 44.8951 105.955 44.8951H103.76L104.944 41.4489H107.603C108.395 41.4489 108.719 41.8617 108.727 42.3336C108.736 42.6327 108.593 43.1804 108.399 43.6944M107.999 37.6446H100.799L100.66 38.0785L100.95 38.365C101.258 38.6683 101.245 39.0264 100.98 39.7974L95.9454 54.3194H100.546L102.509 48.5561H104.064L105.795 54.3194H110.408L108.243 48.4213C109.503 48.2149 110.13 47.8568 110.762 47.2922C111.63 46.5002 112.233 45.388 112.73 43.7491C113.459 41.373 113.016 40.0165 112.553 39.3213C111.912 38.3608 110.556 37.6446 107.994 37.6446M117.436 60.0195C104.805 66.5453 87.9619 70.139 69.9937 70.139C52.0255 70.139 35.1864 66.5453 22.556 60.0195C10.4102 53.7422 3.71581 45.5649 3.71581 37C3.71581 28.4351 10.4102 20.2536 22.556 13.9805C35.1864 7.45891 52.0297 3.85686 69.9937 3.85686C87.9576 3.85686 104.805 7.4547 117.436 13.9805C129.586 20.2536 136.272 28.4309 136.272 37C136.272 45.5691 129.586 53.738 117.436 60.0195ZM119.146 10.6734C105.993 3.87792 88.539 0.136841 69.9979 0.136841C51.4568 0.136841 34.0026 3.87792 20.854 10.6734C13.0643 14.7009 0 23.4723 0 37.0042C0 50.5362 13.0685 59.3033 20.854 63.3308C33.9984 70.1221 51.4526 73.8632 69.9979 73.8632C88.5432 73.8632 105.997 70.1221 119.146 63.3308C126.936 59.3033 140 50.532 140 37.0042C140 23.4765 126.936 14.7009 119.146 10.6734ZM115.666 56.5986C102.079 63.6173 85.1771 66.2841 69.9937 66.2841C54.8103 66.2841 37.9164 63.6173 24.3255 56.5986C17.134 52.8828 7.57485 46.0283 7.57485 37.0042C7.57485 27.9801 17.134 21.1257 24.3255 17.4099C37.9164 10.3911 54.8145 7.72012 69.9937 7.72012C85.1729 7.72012 102.075 10.3827 115.666 17.4099C122.866 21.1257 132.417 27.9717 132.417 37.0042C132.417 46.0368 122.858 52.8828 115.666 56.5986ZM116.37 16.0365C102.572 8.90395 85.3962 6.17397 69.9937 6.17397C54.5912 6.17397 37.4193 8.90817 23.6177 16.0365C15.8659 20.0387 6.03292 27.2639 6.03292 37C6.03292 46.7361 15.8701 53.9571 23.6177 57.9636C37.4193 65.0876 54.5954 67.8218 69.9937 67.8218C85.392 67.8218 102.572 65.0961 116.37 57.9636C124.121 53.9571 133.959 46.7319 133.959 37C133.959 27.2681 124.126 20.0387 116.37 16.0365ZM94.9469 47.6293L96.2234 44.1409H90.3632L91.2732 41.4784H97.6221L99.0166 37.6319H87.0308L86.8665 38.1207L87.153 38.4029C87.4647 38.702 87.4521 39.0601 87.1824 39.8353L82.1901 54.3067H93.3881L94.7404 50.4308H88.2062L89.1667 47.625H94.9511L94.9469 47.6293ZM108.972 23.3417H97.8791L96.434 27.3103H104.123L95.3892 30.272L94.85 31.6917L107.43 27.5546L108.968 23.3375L108.972 23.3417ZM59.3855 34.0299H63.569L67.2131 23.2448L69.3491 34.0299H73.5325L79.2369 17.3593H74.8638L71.8179 26.4255L70.0779 17.3635H64.184L64.0408 17.7933L64.3315 18.0755C64.639 18.3788 64.6264 18.7369 64.361 19.5121L59.3897 34.0299H59.3855ZM85.2572 21.3195H87.0771C88.3199 21.3195 89.0024 21.7323 89.0193 22.6971C89.0277 23.3164 88.8634 24.1632 88.2188 25.9958C87.6501 27.6305 87.1951 28.5784 86.5505 29.2735C86.0323 29.8212 85.3414 30.0613 83.7573 30.0613H82.2365L85.2572 21.3195ZM81.259 19.5121L76.2836 34.0341H83.6268C86.7738 34.0341 88.5727 33.339 90.0304 31.776C91.8588 29.8422 93.5313 24.8036 93.4765 22.0357C93.4218 19.2088 91.5976 17.3635 87.7554 17.3635H81.0821L80.9431 17.7933L81.2338 18.0755C81.5413 18.3788 81.5287 18.7369 81.259 19.5121ZM53.6138 21.9725H53.7655L53.8455 27.0069H50.7743L53.6138 21.9725ZM41.9692 34.0299H46.8099L48.908 30.3478H53.9213L53.9719 34.0299H58.366L57.4181 17.3635H50.8417L50.6942 17.7933L50.9049 18.0039C51.2503 18.3451 51.1071 18.8338 49.8306 20.8645L41.9735 34.0299H41.9692ZM29.4105 34.0383H40.7896L42.163 30.0613H35.5487L39.9175 17.3677H34.2132L34.07 17.7975L34.3565 18.0797C34.664 18.3831 34.6556 18.7412 34.386 19.5163L29.4105 34.0383Z" fill="white"/>
</svg>
