<svg width="93" height="98" viewBox="0 0 93 98" fill="none" xmlns="http://www.w3.org/2000/svg">
<path d="M26.4422 18.5723C38.3407 18.5723 44.6452 34.0521 44.6452 34.0521L46.0215 29.4054C46.0215 29.4054 40.6642 15.9824 28.1441 15.9824C17.2075 15.9824 13.8037 25.365 13.8037 25.365C13.8037 25.365 17.8439 18.5723 26.4422 18.5723Z" fill="white"/>
<path d="M23.0967 60.1286C15.0311 60.1286 11.9529 39.7946 11.9529 39.7946H9.95501C9.95501 41.1117 9.28903 64.8644 22.2383 64.8644C26.4709 64.8644 28.2024 61.9786 28.2024 59.5368C28.2024 55.689 26.3377 52.9658 26.3377 52.9658C26.3377 52.9658 28.4539 60.1286 23.0967 60.1286Z" fill="white"/>
<path d="M66.96 18.5723C75.5731 18.5723 79.6133 25.365 79.6133 25.365C79.6133 25.365 76.1947 15.9824 65.2877 15.9824C52.738 15.9824 47.3955 29.4054 47.3955 29.4054L48.7718 34.0521C48.7718 34.0521 55.0911 18.5723 66.96 18.5723Z" fill="white"/>
<path d="M81.4633 39.7949C81.4633 39.7949 78.3999 60.129 70.3196 60.129C64.9623 60.129 67.0786 52.9662 67.0786 52.9662C67.0786 52.9662 65.2139 55.6746 65.2139 59.5371C65.2139 61.979 66.9306 64.8648 71.1631 64.8648C84.1124 64.8648 83.4464 41.112 83.4464 39.7949H81.4485H81.4633Z" fill="white"/>
<path d="M65.4524 39.2475C65.4524 39.2475 66.4736 36.2583 68.6638 36.2583C72.4376 36.2583 71.9345 42.7846 70.2769 48.2307C68.5602 53.7952 69.9218 54.6387 70.9429 54.6387C71.964 54.6387 74.2431 53.5881 76.7442 49.0003C79.2452 44.4126 80.1924 38.7148 80.1924 38.7148H82.0423C82.0423 27.3046 75.3087 25.2772 71.5645 25.2772C59.7103 25.2772 55.3002 41.8374 55.3002 41.8374L57.6681 43.5097L56.5285 49.1927L52.074 50.9982L51.26 56.5775L53.4651 53.9136L55.759 52.9812L55.0338 56.5627L51.0084 58.235L49.6173 67.8693L50.5941 70.9326L46.7019 72.4718L42.7949 70.9326L43.7716 67.8693L42.3657 58.235L38.3404 56.5627L37.6152 52.9812L39.9091 53.9136L42.1141 56.5775L41.3002 50.9982L36.8456 49.1927L35.7209 43.5097L38.0888 41.8374C38.0888 41.8374 33.6934 25.2772 21.8097 25.2772C18.0655 25.2772 11.3467 27.2898 11.3467 38.7148H13.2114C13.2114 38.7148 14.1585 44.4126 16.6596 49.0003C19.1459 53.5881 21.4397 54.6387 22.446 54.6387C23.4524 54.6387 24.8139 53.81 23.112 48.2307C21.4545 42.7846 20.9513 36.2583 24.7399 36.2583C26.9006 36.2583 27.9365 39.2475 27.9365 39.2475C27.9365 39.2475 25.2135 46.4548 30.4228 48.7635L34.1522 50.4062C35.1733 54.6979 36.3425 59.5668 36.5497 60.3956C36.8901 61.7423 38.0888 63.6071 38.0888 63.6071L40.6046 67.8841L41.7738 73.6408C42.0698 75.1207 42.3953 76.6154 46.0803 76.6154H47.2938C50.9788 76.6154 51.3044 75.1207 51.6152 73.6408L52.7695 67.8841L55.2854 63.6071C55.2854 63.6071 56.4841 61.7423 56.8245 60.3956C57.0465 59.5668 58.2008 54.6979 59.222 50.4062L62.9514 48.7635C68.1607 46.4548 65.4228 39.2475 65.4228 39.2475M32.5095 47.4463C30.9408 46.81 29.4165 45.7296 29.4165 42.9918C29.4165 41.4379 29.6236 40.1355 29.8012 39.2772L32.5095 43.4949L33.5306 47.8459L32.5095 47.4315V47.4463ZM60.8351 47.4463L59.7991 47.8608L60.8351 43.5097L63.5285 39.292C63.7209 40.1355 63.9133 41.4527 63.9133 43.0066C63.9133 45.7296 62.4038 46.8248 60.8351 47.4611" fill="white"/>
<path d="M83.5957 1.49455C80.8135 1.28736 62.7585 0 46.7162 0C30.6739 0 12.6189 1.28736 9.83668 1.49455C6.31448 1.76093 0.75 3.96615 0.75 12.5497C0.75 19.8012 1.57874 46.2177 2.2891 57.4651C3.04386 69.2156 6.80284 75.2684 13.5217 79.8266C16.5999 81.9281 25.509 86.797 33.6633 91.1184C38.9614 93.9598 43.9191 96.5497 46.7162 98C49.5132 96.5497 54.4709 93.945 59.769 91.1184C67.9234 86.7822 76.8177 81.9133 79.9255 79.8266C86.6443 75.2684 90.3885 69.2008 91.1581 57.4651C91.8684 46.2177 92.6824 19.8012 92.6824 12.5497C92.6824 3.96615 87.1327 1.76093 83.5957 1.49455ZM87.0735 57.1986C86.3779 67.8984 83.1369 72.7082 77.6168 76.4671C73.0439 79.5602 55.0185 89.0761 46.7162 93.4123C38.4139 89.0761 20.3737 79.575 15.8007 76.4671C10.2955 72.723 7.03963 67.8984 6.35887 57.1986C5.63371 46.0104 4.80496 19.7568 4.80496 12.5348C4.80496 6.65958 8.09039 5.69768 10.1179 5.54969C12.8705 5.3425 30.7923 4.05496 46.7014 4.05496C62.6105 4.05496 80.5175 5.3425 83.2849 5.54969C85.3124 5.69768 88.583 6.65958 88.583 12.5348C88.583 19.742 87.7543 45.9956 87.0587 57.1986" fill="white"/>
</svg>
