<svg width="300" height="300" viewBox="0 0 300 300" fill="none" xmlns="http://www.w3.org/2000/svg">
<rect width="300" height="300" fill="#080B0F"/>
<path d="M150.683 203.068C150.659 195.369 156.847 189.158 164.575 189.145C172.115 189.157 178.307 195.368 178.459 203.068C178.309 210.681 172.116 216.893 164.575 217C156.847 216.893 150.66 210.681 150.683 203.068ZM164.576 211.868C168.748 211.803 172.202 207.872 172.245 203.068C172.202 198.173 168.748 194.241 164.576 194.269C160.223 194.24 156.761 198.172 156.899 203.068C156.761 207.871 160.223 211.803 164.576 211.868ZM194.173 195.002V216.267H188.33V195.002H179.921V190.245H202.216V195.002H194.173ZM209.156 210.395L206.968 216.268H200.029L210.99 190.245H218.296L228.898 216.268H221.958L219.766 210.395H209.156ZM214.646 206.002H218.296L214.646 196.468L210.99 206.002H214.646ZM86.7252 195.002V216.267H80.8779V195.002H72.8389V190.245H94.768V195.002H86.7252ZM96.2302 203.068C96.2418 195.369 102.426 189.158 110.112 189.145C117.698 189.157 123.892 195.368 124.003 203.068C123.892 210.681 117.698 216.893 110.112 217C102.426 216.893 96.2413 210.681 96.2302 203.068ZM110.112 211.868C114.333 211.803 117.784 207.872 117.788 203.068C117.784 198.173 114.333 194.241 110.112 194.269C105.802 194.24 102.345 198.172 102.445 203.068C102.345 207.871 105.802 211.803 110.112 211.868ZM137.161 216.267H140.081V206.368L150.318 190.245H143.741L137.161 201.235L130.946 190.245H124.004L134.24 206.368V216.267H137.161Z" fill="#34455C"/>
<path d="M192.838 103.139C192.931 103.394 193.015 103.654 193.081 103.916C193.46 105.423 193.382 106.902 192.891 108.343C199.428 113.737 203.282 120.389 203.282 127.596C203.282 145.586 179.202 160.173 149.502 160.173C119.799 160.173 95.7219 145.586 95.7219 127.596C95.7219 120.395 99.5795 113.737 106.109 108.343C105.622 106.902 105.543 105.423 105.922 103.916C106.001 103.631 106.105 103.353 106.234 103.086C97.314 109.444 91.9055 117.777 91.9055 126.903C91.9055 146.83 117.69 162.982 149.501 162.982C181.308 162.982 207.097 146.83 207.097 126.903C207.098 117.796 201.711 109.482 192.838 103.139Z" fill="#34455C"/>
<path d="M157.503 116.329C154.965 116.519 152.289 116.623 149.5 116.623C146.712 116.623 144.039 116.519 141.5 116.329H141.492L139.833 117.534C142.894 117.801 146.126 117.953 149.501 117.953C152.877 117.953 156.109 117.801 159.171 117.534L157.503 116.329ZM186.923 103.688C184.901 97.0025 168.235 92.0928 149.502 92.0928C130.772 92.0928 114.106 97.0035 112.084 103.688C110.329 109.488 119.909 114.856 135.022 116.984L133.709 115.385C121.483 113.303 114.216 108.865 115.893 104.146C117.925 98.4159 132.682 94.2668 149.5 94.2668C166.318 94.2668 181.079 98.4169 183.109 104.146C184.783 108.865 177.52 113.304 165.291 115.385L163.982 116.984C179.09 114.856 188.677 109.488 186.923 103.688Z" fill="#34455C"/>
<path d="M141.52 116.329C142.924 108.525 145.969 103.649 149.5 103.649C153.036 103.649 156.078 108.525 157.484 116.329H157.512L159.154 117.521C157.768 107.216 153.971 100.63 149.503 100.63C145.031 100.63 141.236 107.216 139.852 117.521L141.494 116.329H141.52Z" fill="#34455C"/>
<path d="M159.651 123.36L158.308 125.789C158.308 125.966 158.316 126.148 158.316 126.333C158.316 139.268 154.363 149.075 149.501 149.075C144.634 149.075 140.689 139.267 140.689 126.333C140.689 126.129 140.693 125.926 140.697 125.73L139.352 123.36C139.312 124.346 139.293 125.332 139.293 126.319C139.293 140.984 143.863 152.093 149.503 152.093C155.142 152.093 159.717 140.984 159.717 126.319C159.715 125.332 159.693 124.346 159.651 123.36Z" fill="#34455C"/>
<path d="M135.044 116.99C136.976 102.667 142.718 92.0918 149.502 92.0918C142.229 92.0918 136.029 101.461 133.729 115.413L135.024 116.99H135.044Z" fill="#34455C"/>
<path d="M163.962 116.99H163.976L165.271 115.413C162.975 101.461 156.772 92.0918 149.502 92.0918C156.287 92.0928 162.032 102.667 163.962 116.99Z" fill="#34455C"/>
<path d="M166.174 124.734L164.525 122.764H164.512C164.604 124.33 164.657 125.921 164.657 127.536C164.657 147.112 157.871 162.981 149.502 162.981C158.885 162.981 166.228 148.263 166.228 127.536C166.228 126.588 166.208 125.658 166.174 124.734Z" fill="#34455C"/>
<path d="M134.351 127.537C134.351 125.921 134.404 124.33 134.494 122.765H134.483L132.83 124.729C132.795 125.665 132.777 126.601 132.775 127.537C132.775 148.264 140.123 162.981 149.502 162.981C141.137 162.981 134.351 147.112 134.351 127.537Z" fill="#34455C"/>
<path d="M192.891 108.343C195.39 110.406 197.498 112.656 199.147 115.046C198.576 111.245 197.065 107.646 194.75 104.578C194.125 104.081 193.487 103.602 192.837 103.139C192.93 103.394 193.015 103.655 193.08 103.917C193.46 105.423 193.382 106.902 192.891 108.343ZM106.109 108.343C105.622 106.902 105.543 105.423 105.922 103.916C106.001 103.631 106.105 103.353 106.234 103.086C105.564 103.57 104.904 104.067 104.254 104.578C101.943 107.648 100.432 111.246 99.8569 115.046C101.506 112.656 103.609 110.405 106.109 108.343Z" fill="#34455C"/>
<path d="M85 127.001C85 104.911 113.877 87 149.502 87C185.123 87 214 104.911 214 127.001C214 149.095 185.123 167 149.502 167C113.877 166.999 85 149.096 85 127.001ZM149.502 162.981C181.31 162.981 207.097 146.83 207.097 126.903C207.097 106.974 181.309 90.8162 149.502 90.8162C117.69 90.8162 91.904 106.975 91.904 126.902C91.904 146.829 117.691 162.981 149.502 162.981Z" fill="#34455C"/>
<path d="M134.351 127.537C134.351 108.167 141.137 92.0928 149.502 92.0928C157.87 92.0928 164.657 108.166 164.657 127.536C164.657 147.112 157.871 162.981 149.502 162.981C141.134 162.981 134.351 147.112 134.351 127.537ZM149.502 152.093C155.142 152.093 159.716 140.984 159.716 126.325C159.716 111.112 155.141 100.631 149.502 100.631C143.862 100.631 139.292 111.112 139.292 126.325C139.292 140.984 143.862 152.093 149.502 152.093Z" fill="#34455C"/>
<path d="M105.922 103.916C107.585 97.3313 127.69 87.7466 149.502 87.7466C171.311 87.7466 190.726 94.5952 193.081 103.916C195.718 114.364 176.342 123.819 149.502 123.819C122.657 123.819 103.282 114.365 105.922 103.916ZM149.502 92.0928C130.772 92.0928 114.106 97.0035 112.084 103.688C109.818 111.177 126.453 117.953 149.501 117.953C172.554 117.953 189.187 111.176 186.923 103.688C184.901 97.0025 168.236 92.0928 149.502 92.0928Z" fill="#34455C"/>
<path d="M139.331 123.34L139.343 123.348L140.727 125.789C143.544 126.03 146.473 126.168 149.502 126.168C152.545 126.168 155.481 126.031 158.316 125.783L159.663 123.347L159.671 123.339C156.432 123.647 153.036 123.818 149.503 123.818C146.107 123.82 142.712 123.661 139.331 123.34ZM193.309 106.175C192.963 113.645 181.486 120.264 164.519 122.758L164.525 122.764L166.18 124.743C182.781 121.757 193.702 114.424 193.309 106.175ZM105.695 106.175C105.303 114.432 116.222 121.757 132.82 124.743L134.479 122.764L134.483 122.758C117.514 120.265 106.044 113.646 105.695 106.175Z" fill="#34455C"/>
</svg>
