<svg width="300" height="300" viewBox="0 0 300 300" fill="none" xmlns="http://www.w3.org/2000/svg">
<rect width="300" height="300" fill="#080B0F"/>
<path fill-rule="evenodd" clip-rule="evenodd" d="M88.0714 123.303H64.6723C61.9463 123.303 59.7356 125.519 59.7356 128.253V166.942C59.7356 169.676 61.9463 171.893 64.6723 171.893H84.1874C86.5303 171.893 88.0723 173.668 88.8713 174.814C89.6713 175.961 91.7285 178.539 92.8836 180.364C104.223 198.888 125.656 211.381 150.229 211.381C173.424 211.381 193.821 201.401 205.572 184.677C206.901 182.666 209.871 178.883 212.042 174.529C213.187 172.465 214.101 171.893 215.926 171.893H235.327C235.976 171.892 236.619 171.763 237.218 171.514C237.818 171.265 238.362 170.9 238.821 170.44C239.279 169.98 239.643 169.435 239.891 168.834C240.138 168.234 240.265 167.591 240.264 166.942V128.253C240.266 126.942 239.747 125.684 238.821 124.755C237.895 123.827 236.638 123.305 235.327 123.303H213.756C210.784 123.303 208.042 121.011 206.45 118.485C195.53 100.688 174.345 88.6196 150 88.6196C124.936 88.6196 103.221 101.411 92.6095 120.075C92.185 121.698 90.8138 123.303 88.0714 123.303Z" fill="#080B0F" stroke="#34455C" stroke-width="2" stroke-miterlimit="2.613"/>
<path fill-rule="evenodd" clip-rule="evenodd" d="M62.1248 124.012C61.3948 124.453 60.7911 125.075 60.3724 125.819C59.9536 126.562 59.7339 127.401 59.7346 128.254V166.942C59.7346 169.677 61.9453 171.894 64.6713 171.894H84.1865C86.5294 171.894 88.0714 173.669 88.8703 174.814C89.6703 175.962 91.7276 178.54 92.8826 180.365C104.222 198.889 125.655 211.381 150.228 211.381C173.423 211.381 193.82 201.402 205.571 184.677C206.9 182.666 209.87 178.884 212.041 174.53C213.186 172.466 214.1 171.894 215.925 171.894H235.326C235.975 171.893 236.618 171.764 237.217 171.515C237.817 171.265 238.361 170.9 238.82 170.441C239.278 169.981 239.642 169.435 239.89 168.835C240.137 168.235 240.264 167.592 240.263 166.942V128.253C240.264 127.603 240.137 126.959 239.888 126.358C239.64 125.757 239.276 125.212 238.816 124.752L232.289 130.838C232.835 131.322 233.181 132.029 233.181 132.818V159.168C233.181 159.867 232.904 160.537 232.41 161.032C231.916 161.527 231.246 161.805 230.547 161.806H69.4517C68.7528 161.805 68.083 161.526 67.5894 161.032C67.0958 160.537 66.8188 159.867 66.8193 159.168V132.818C66.8193 132.089 67.1146 131.429 67.5903 130.952L62.1248 124.012Z" fill="#34455C" stroke="#34455C" stroke-width="2" stroke-miterlimit="2.613"/>
<path fill-rule="evenodd" clip-rule="evenodd" d="M97.7759 128.761C105.202 107.558 125.565 94.1143 150.229 94.1143C174.576 94.1143 195.246 105.196 202.732 128.179C200.502 126.283 197.875 124.793 194.447 124.22C195.133 125.595 196.39 128.116 193.418 128.116H108.296C106.353 128.116 105.667 126.398 105.782 124.908C103.154 125.365 99.5977 127.342 97.7759 128.761Z" fill="#34455C"/>
<path fill-rule="evenodd" clip-rule="evenodd" d="M104.207 186.307C115.349 198.09 131.834 205.546 150.228 205.546C168.743 205.546 182.563 199.169 194.527 185.844C203.587 186.907 210.272 176.556 212.613 170.518L205.187 164.558L193.533 171.321L194.047 172.18L202.49 167.742C194.674 188.501 174.983 203.603 150.228 203.603C125.029 203.603 103.656 188.194 96.1875 166.85L105.838 172.236L106.352 171.376L95.0401 164.731C93.2116 165.36 90.2405 167.194 89.0989 168.798C87.9555 170.402 88.6416 172.12 89.3267 173.496C90.0127 174.873 99.1537 189.197 104.866 193.436C103.038 191.489 100.524 188.165 98.6963 184.499L104.207 186.307ZM193.42 123.53C187.478 104.507 168.632 98.3818 150 98.3818C131.991 98.3818 115.722 104.736 108.509 123.524C107.952 124.906 109.095 125.135 109.894 125.135L192.276 125.134C193.533 125.136 193.649 124.676 193.42 123.53Z" fill="#080B0F"/>
<path fill-rule="evenodd" clip-rule="evenodd" d="M230.55 161.806C231.249 161.805 231.919 161.526 232.413 161.032C232.907 160.537 233.184 159.867 233.184 159.168V132.818C233.184 132.472 233.116 132.129 232.984 131.809C232.852 131.489 232.658 131.198 232.413 130.953C232.169 130.708 231.879 130.513 231.559 130.38C231.239 130.248 230.896 130.179 230.55 130.179H69.4517C68.7527 130.18 68.0827 130.458 67.5891 130.953C67.0954 131.448 66.8186 132.119 66.8193 132.818V159.168C66.819 159.514 66.8867 159.857 67.0188 160.176C67.1509 160.496 67.3447 160.787 67.5891 161.032C67.8336 161.277 68.1239 161.471 68.4435 161.604C68.763 161.737 69.1057 161.806 69.4517 161.806H230.55ZM192.048 171.435C193.076 171.435 193.363 172.351 192.962 173.497C186.335 192.292 165.767 198.71 150 199.017C134.232 198.71 113.666 192.291 107.038 173.497C106.639 172.351 106.925 171.435 107.953 171.435H192.048Z" fill="#080B0F" stroke="#34455C" stroke-width="2" stroke-miterlimit="2.613"/>
<path fill-rule="evenodd" clip-rule="evenodd" d="M80.8411 156.764V134.059H91.1371L98.0268 151.296V134.059H104.387V156.764H94.3919L87.1248 138.767V156.764H80.8411ZM109.464 134.059H115.976V156.764H109.464V134.059ZM166.342 156.764L174.443 134.059H183.68L191.707 156.764H185.196L178.987 139.147L176.033 147.652H181.959L183.674 152.663H174.293L172.854 156.764H166.342ZM134.604 147.917V151.599H120.749V156.764H134.831C138.163 156.764 141.342 154.106 141.342 149.702C141.342 145.298 138.995 142.83 133.317 142.83H126.579V139.147H139.299V134.059H126.277C122.869 134.059 120.068 135.729 120.068 140.589C120.068 142.868 120.447 147.917 127.715 147.917H134.604ZM194.059 156.764V134.059H204.355L211.245 151.296V134.059H217.604V156.764H207.611L200.342 138.767V156.764H194.059ZM158.535 147.917V151.599H144.679V156.764H158.763C162.093 156.764 165.272 154.106 165.272 149.702C165.272 145.298 162.926 142.83 157.248 142.83H150.51V139.147H163.229V134.059H150.207C146.799 134.059 143.998 135.729 143.998 140.589C143.998 142.868 144.376 147.917 151.643 147.917H158.535Z" fill="#34455C"/>
</svg>
