<svg width="300" height="300" viewBox="0 0 300 300" fill="none" xmlns="http://www.w3.org/2000/svg">
<path d="M73.0861 192.862L76.1373 193.225C77.5176 193.371 77.6629 194.533 77.6629 195.259V198.819H63.6418V195.259C63.6418 194.533 63.7871 193.371 65.1674 193.225L68.2186 192.862V189.811H50.0566V192.862L53.1079 193.225C54.4882 193.371 54.6335 194.533 54.6335 195.259V207.028C54.6335 207.755 54.4882 208.917 53.1079 209.063L50.0566 209.426V212.477H68.2186V209.426L65.1674 209.063C63.7871 208.917 63.6418 207.755 63.6418 207.028V203.469H77.5902V207.028C77.5902 207.755 77.4449 208.917 76.0646 209.063L73.0134 209.426V212.477H91.1754V209.426L88.1242 209.063C86.7439 208.917 86.5986 207.755 86.5986 207.028V195.259C86.5986 194.533 86.7439 193.371 88.1242 193.225L91.1754 192.862V189.811H73.0134V192.862H73.0861Z" fill="#34455C"/>
<path d="M194.045 189.811H171.669V192.862L174.357 193.153C175.302 193.298 175.956 193.661 175.956 194.969V206.956C175.956 207.682 175.81 208.845 174.43 208.99L171.379 209.353V212.404H194.045C202.182 212.404 208.865 209.135 208.865 201.071C208.865 193.007 202.182 189.811 194.045 189.811ZM192.374 208.118H184.746V194.17H192.374C196.878 194.17 198.404 196.277 198.404 201.144C198.404 205.939 196.878 208.118 192.374 208.118Z" fill="#34455C"/>
<path d="M246.933 209.063C245.48 208.917 245.044 207.973 244.608 207.319L234.147 191.336C233.42 190.174 232.839 189.811 231.749 189.811H214.604V192.862L218.745 193.298C219.327 193.371 220.126 194.17 219.472 195.187L211.699 207.755C211.408 208.263 210.972 208.845 210.1 208.99L207.049 209.353V212.404H221.506V209.353L219.036 209.135C217.946 208.99 217.365 208.263 217.946 207.392L219.109 205.503H233.057L234.074 207.028C235.019 208.409 233.856 208.99 232.839 209.063L230.296 209.353V212.404H249.911V209.353L246.933 209.063ZM221.506 201.507L225.792 194.533L230.369 201.507H221.506Z" fill="#34455C"/>
<path d="M155.469 192.862L158.52 193.225C159.9 193.371 160.046 194.533 160.046 195.259V206.593L148.059 190.755C147.55 190.029 147.042 189.811 145.734 189.811H130.187V192.862L133.239 193.225C134.619 193.371 134.764 194.533 134.764 195.259V207.028C134.764 207.755 134.619 208.917 133.239 209.063L130.187 209.426V212.477H144.717V209.426L141.666 209.063C140.285 208.917 140.14 207.755 140.14 207.028V195.695L152.127 211.46C152.708 212.186 153.144 212.404 154.452 212.404H165.494V195.187C165.494 194.46 165.64 193.298 167.02 193.153L170.071 192.789V189.738H155.614L155.469 192.862Z" fill="#34455C"/>
<path d="M110.645 189.012C95.8975 189.012 92.1198 195.477 92.1198 201.071C92.1198 206.665 95.8975 213.204 110.645 213.204C125.393 213.204 129.17 206.738 129.17 201.144C129.17 195.477 125.393 189.012 110.645 189.012ZM110.645 208.917C104.906 208.917 102.581 206.52 102.581 201.144C102.581 195.768 104.979 193.371 110.645 193.371C116.384 193.371 118.709 195.768 118.709 201.144C118.709 206.52 116.384 208.917 110.645 208.917Z" fill="#34455C"/>
<path d="M173.851 94.1151C171.488 104.684 170.515 109.589 168.569 117.188C166.692 124.51 165.233 131.349 162.731 134.664C160.229 138.049 156.823 138.74 154.529 139.016C153.348 139.155 152.444 139.224 149.873 139.224C147.301 139.224 146.398 139.155 145.216 139.016C142.922 138.74 139.517 138.049 137.015 134.664C134.513 131.349 133.053 124.51 131.246 117.188C129.3 109.52 128.327 104.684 125.964 94.1151C125.964 94.1151 123.601 94.1842 122.558 94.2533C121.098 94.3224 119.986 94.4605 118.805 94.5987C118.805 94.5987 120.195 116.359 120.82 125.615C121.446 135.286 122.628 151.658 123.67 164.023C123.67 164.023 125.686 164.368 129.022 164.507C132.497 164.714 134.096 164.714 134.096 164.714C135.555 159.257 137.293 151.727 139.308 148.48C140.976 145.855 143.478 145.579 144.938 145.372C147.162 145.095 149.108 145.026 149.942 145.026C150.846 145.026 152.722 145.026 154.946 145.372C156.406 145.579 158.908 145.855 160.576 148.48C162.592 151.727 164.399 159.257 165.789 164.714C165.789 164.714 167.318 164.714 170.793 164.507C174.129 164.299 176.145 164.023 176.145 164.023C177.187 151.658 178.369 135.355 178.994 125.615C179.62 116.428 181.01 94.5987 181.01 94.5987C179.829 94.4605 178.647 94.3224 177.257 94.2533C176.214 94.1842 173.851 94.1151 173.851 94.1151Z" fill="#34455C"/>
<path d="M201.444 106.964C200.054 93.148 190.741 90.2467 182.609 88.8651C178.508 88.1743 171.21 87.6217 166.553 87.4145C162.453 87.1382 152.861 87 149.942 87C147.023 87 137.432 87.1382 133.331 87.4145C128.674 87.6217 121.376 88.1743 117.276 88.8651C109.144 90.2467 99.8306 93.148 98.4405 106.964C98.0235 110.763 97.954 115.668 98.0235 120.918C98.1625 129.691 98.927 135.562 99.344 139.707C99.6221 142.539 100.804 150.967 102.333 155.319C104.418 161.329 106.294 163.056 108.518 164.852C112.55 168.099 119.222 169.135 120.612 169.411C128.118 170.724 143.27 171 150.012 171C156.684 171 171.905 170.793 179.412 169.411C180.802 169.135 187.474 168.168 191.505 164.852C193.729 163.056 195.606 161.329 197.691 155.319C199.22 150.967 200.401 142.47 200.679 139.707C201.096 135.632 201.861 129.691 202 120.918C201.93 115.599 201.791 110.694 201.444 106.964ZM196.301 130.174C195.467 141.227 194.494 147.859 193.104 152.625C191.853 156.839 190.323 159.602 188.099 161.605C184.346 164.99 179.203 165.681 176.145 166.164C169.612 167.132 158.561 167.477 149.942 167.477C141.254 167.477 130.273 167.132 123.74 166.164C120.681 165.681 115.538 164.99 111.785 161.605C109.561 159.602 108.032 156.77 106.781 152.625C105.391 147.859 104.348 141.227 103.584 130.174C103.097 123.543 103.167 112.766 103.931 106.964C104.974 98.2599 109.283 93.9079 118.527 92.3191C122.836 91.5592 128.674 91.0066 134.165 90.7303C138.613 90.4539 145.842 90.3158 149.942 90.3158C153.973 90.2467 161.271 90.4539 165.65 90.7303C171.141 91.0066 176.979 91.5592 181.288 92.3191C190.532 93.977 194.841 98.3289 195.953 106.964C196.718 112.697 196.787 123.474 196.301 130.174Z" fill="#34455C"/>
</svg>
