<svg width="300" height="300" viewBox="0 0 300 300" fill="none" xmlns="http://www.w3.org/2000/svg">
<g clip-path="url(#clip0_169_2812)">
<path fill-rule="evenodd" clip-rule="evenodd" d="M41.0447 41.0449H258.955V258.955H41.0447V41.0449Z" fill="#080B0F"/>
<path fill-rule="evenodd" clip-rule="evenodd" d="M94.3082 97.1085C98.2864 101.974 105.263 105.71 105.559 105.868C105.633 105.907 105.715 105.93 105.799 105.937C105.882 105.943 105.966 105.933 106.046 105.905C106.125 105.878 106.198 105.835 106.26 105.778C106.323 105.721 106.372 105.653 106.407 105.576C106.481 105.41 114.411 88.8152 149.573 88.8152C184.741 88.8152 192.882 105.496 192.959 105.664C192.994 105.74 193.044 105.808 193.106 105.863C193.168 105.919 193.241 105.962 193.32 105.989C193.399 106.015 193.483 106.026 193.566 106.02C193.649 106.013 193.731 105.99 193.805 105.951C194.164 105.761 202.698 101.243 205.698 96.9073C205.71 96.8914 205.714 96.8722 205.722 96.8553C205.76 96.7884 205.785 96.7146 205.795 96.6382L205.804 96.5817C205.806 96.509 205.797 96.4365 205.775 96.3669C205.773 96.3624 205.775 96.359 205.773 96.3545C205.769 96.342 205.757 96.3341 205.753 96.3228C205.737 96.2855 205.724 96.2482 205.702 96.2131C205.232 95.5134 193.639 79.0635 149.573 79.0635C105.491 79.0635 94.6993 95.6897 94.2618 96.3974C94.263 96.3974 94.0052 96.7388 94.3082 97.1085Z" fill="#34455C"/>
<path fill-rule="evenodd" clip-rule="evenodd" d="M149.573 87.5843C116.9 87.5843 107.33 101.374 105.591 104.48C104.149 103.661 100.111 101.245 96.9648 98.1782L100.801 99.5913C100.922 99.636 101.053 99.6414 101.178 99.6069C101.302 99.5725 101.412 99.4997 101.492 99.3991C115.07 82.4688 149.202 83.8808 149.545 83.8966C149.556 83.8966 149.565 83.8921 149.574 83.8921C149.584 83.8921 149.593 83.8966 149.603 83.8966C149.947 83.8808 184.084 82.4756 197.655 99.3991C197.819 99.6026 198.092 99.6806 198.338 99.5947L203.255 97.882C200.299 100.837 195.393 103.67 193.774 104.567C192.015 101.478 182.295 87.5843 149.573 87.5843Z" fill="#080B0F"/>
<path fill-rule="evenodd" clip-rule="evenodd" d="M92.8069 97.8434C88.849 103.498 82.2085 115.855 82.2085 135.067C82.2085 151.506 90.0745 171.532 107.649 179.22C125.596 187.071 145.658 186.26 150 186.26C154.342 186.26 174.404 187.073 192.351 179.22C209.927 171.532 217.791 151.505 217.791 135.067C217.791 115.855 211.152 103.499 207.193 97.8434C207.126 97.7491 207.035 97.6757 206.928 97.6317C206.821 97.5877 206.704 97.5748 206.591 97.5947C206.493 97.5779 206.392 97.5851 206.298 97.6159C206.204 97.6466 206.118 97.6999 206.049 97.7711C206.031 97.7891 205.601 98.2312 204.786 98.9649C204.703 99.0097 204.632 99.0737 204.578 99.1514C201.858 101.57 195.437 106.701 185.932 110.74L182.67 112.107C176.112 114.836 169.098 117.759 162.957 122.258L162.945 122.267C157.668 126.134 153.038 131.168 149.899 138.249C143.11 122.922 129.33 117.184 117.133 112.107L113.872 110.74C101.027 105.281 93.83 97.8411 93.7554 97.7711C93.1743 97.2341 92.8069 97.8434 92.8069 97.8434Z" fill="#34455C"/>
<path fill-rule="evenodd" clip-rule="evenodd" d="M149.332 140.049C149.332 140.052 149.334 140.053 149.335 140.055C149.358 140.109 149.395 140.158 149.433 140.204C149.445 140.22 149.453 140.24 149.466 140.254C149.481 140.268 149.501 140.275 149.516 140.288C149.561 140.328 149.612 140.361 149.667 140.386L149.671 140.39C149.698 140.401 149.725 140.398 149.754 140.404C149.802 140.417 149.85 140.431 149.901 140.431C149.951 140.431 149.999 140.417 150.048 140.404C150.075 140.399 150.103 140.401 150.13 140.39C150.13 140.39 150.132 140.386 150.135 140.386C150.189 140.361 150.239 140.328 150.284 140.288C150.3 140.275 150.321 140.268 150.334 140.254C150.348 140.24 150.355 140.219 150.367 140.204C150.408 140.16 150.441 140.109 150.466 140.055L150.469 140.049C152.355 135.354 154.912 131.545 157.89 128.368C156.947 131.558 156.931 133.804 156.931 133.921C156.933 134.058 156.981 134.191 157.067 134.298C157.153 134.405 157.272 134.481 157.406 134.512C157.539 134.544 157.68 134.53 157.804 134.472C157.929 134.415 158.031 134.318 158.094 134.196C158.284 133.817 159.181 132.926 159.757 132.414C159.875 132.309 159.947 132.163 159.961 132.006C160.246 128.592 163.195 124.018 163.71 123.243C166.279 121.361 169.007 119.758 171.793 118.33C168.359 121.064 164.06 125 161.602 129.186C161.528 129.316 161.504 129.468 161.534 129.615C161.564 129.761 161.646 129.891 161.765 129.982C161.884 130.072 162.031 130.116 162.18 130.106C162.329 130.096 162.469 130.032 162.575 129.926C162.628 129.871 168.06 124.42 181.307 120.749C184.374 119.899 192.211 117.127 201.623 111.637C201.759 111.557 201.86 111.428 201.903 111.277L205.6 99.885L205.823 99.6826C205.615 103.737 204.818 107.666 203.867 111.058C202.674 111.832 194.547 117.031 187.596 119.579C186.152 120.108 184.505 120.614 182.758 121.147C172.517 124.285 158.574 128.566 149.898 147.041C141.225 128.565 127.283 124.283 117.04 121.146C115.295 120.612 113.647 120.107 112.204 119.578C105.254 117.03 97.1255 111.83 95.9316 111.057C94.3964 107.619 93.8425 103.808 93.5972 100.552C96.9152 113.764 111.243 118.439 117.867 120.575C127.851 123.796 133.59 127.046 133.646 127.079C133.759 127.145 133.89 127.173 134.02 127.159C134.15 127.145 134.272 127.089 134.368 127.001C134.464 126.913 134.53 126.796 134.555 126.668C134.581 126.54 134.564 126.407 134.509 126.289C133.063 123.157 130.368 120.365 127.925 118.288C136.669 122.756 144.865 128.935 149.332 140.049Z" fill="#080B0F"/>
<path fill-rule="evenodd" clip-rule="evenodd" d="M149.338 148.753C149.351 148.782 149.374 148.8 149.39 148.826C149.414 148.866 149.436 148.904 149.468 148.937C149.501 148.97 149.541 148.992 149.579 149.015C149.604 149.031 149.625 149.055 149.653 149.067C149.657 149.068 149.662 149.067 149.667 149.07C149.71 149.088 149.758 149.092 149.804 149.099C149.837 149.105 149.869 149.117 149.901 149.117C149.934 149.117 149.966 149.105 149.999 149.099C150.046 149.092 150.093 149.088 150.135 149.07C150.14 149.067 150.146 149.068 150.15 149.067C150.178 149.055 150.198 149.031 150.223 149.015C150.261 148.992 150.301 148.97 150.333 148.937C150.366 148.904 150.388 148.866 150.411 148.828C150.427 148.802 150.451 148.782 150.463 148.754C158.862 129.753 172.883 125.459 183.121 122.323C184.884 121.784 186.548 121.274 188.023 120.734C193.881 118.586 200.538 114.603 203.34 112.851C201.874 117.561 200.26 120.914 199.942 121.56C196.562 124.289 191.633 125.673 185.932 127.27C179.475 129.079 172.155 131.13 165.344 135.706C156.638 141.555 151.531 151.549 149.9 155.147C148.269 151.548 143.163 141.555 134.457 135.706C127.644 131.128 120.326 129.079 113.87 127.27C108.169 125.673 103.24 124.289 99.8611 121.56C99.5423 120.916 97.9291 117.561 96.4617 112.851C99.2653 114.602 105.921 118.586 111.78 120.734C113.255 121.275 114.919 121.784 116.681 122.323C126.918 125.457 140.94 129.752 149.338 148.753Z" fill="#080B0F"/>
<path fill-rule="evenodd" clip-rule="evenodd" d="M150.472 156.923C150.524 156.791 155.828 143.579 166.031 136.725C172.68 132.258 179.896 130.235 186.263 128.452C191.792 126.903 196.611 125.553 200.144 122.955C200.772 127.864 203.068 151.718 190.607 163.962C178.543 175.818 158.052 176.728 149.999 176.569C149.8 176.564 150.102 176.569 149.999 176.569C149.897 176.569 150.198 176.564 149.999 176.569C141.945 176.728 121.455 175.818 109.39 163.962C97.0394 151.822 99.1907 128.271 99.8385 123.082C103.354 125.594 108.104 126.928 113.538 128.45C119.906 130.234 127.123 132.257 133.772 136.723C143.982 143.583 149.276 156.79 149.33 156.922C149.33 156.923 149.795 158.285 150.472 156.923Z" fill="#080B0F"/>
<path fill-rule="evenodd" clip-rule="evenodd" d="M94.6836 111.146C96.2674 116.885 98.2899 121.148 98.7364 122.056C98.3385 124.633 95.1392 147.85 106.018 161.997C103.556 161.015 98.9015 158.548 95.0872 152.991C95.0024 152.844 84.6187 134.513 94.6836 111.146ZM201.233 121.858C201.226 121.829 201.21 121.804 201.203 121.775C201.701 120.732 202.956 117.976 204.184 114.236C210.452 132.926 204.638 149.111 204.577 149.276L204.557 149.34C202.247 156.439 197.259 159.793 194.63 161.117C205.099 146.39 201.411 122.936 201.233 121.858Z" fill="#080B0F"/>
<path fill-rule="evenodd" clip-rule="evenodd" d="M216.564 135.066C216.564 151.105 208.815 170.388 191.858 178.093C176.559 185.048 153.297 185.201 150 185.201C146.702 185.201 125.43 185.539 108.141 178.093C91.8695 171.088 84.2127 152.988 83.4971 137.446C87.1802 148.448 92.6733 153.16 93.6919 153.962C98.0274 166.837 109.136 175.805 125.835 179.899C132.746 181.592 142.48 182.111 147.971 182.246C147.484 182.268 148.318 182.296 150 182.281C151.683 182.296 152.516 182.267 152.03 182.246C157.519 182.111 167.252 181.592 174.163 179.899C190.944 175.785 202.081 166.752 206.371 153.776C206.443 153.564 213.497 131.939 205.4 110.596C205.377 110.538 205.342 110.493 205.307 110.446C206.157 107.224 206.848 103.582 207.047 99.8276C210.953 105.84 216.564 117.53 216.564 135.066Z" fill="#080B0F"/>
<path fill-rule="evenodd" clip-rule="evenodd" d="M206.732 206.372V220.936H191C191 220.936 185.91 220.881 185.188 215.698C183.92 219.465 181.361 220.876 178.586 220.876H164.084V206.064L145.647 220.935H126.905C126.905 220.935 123.666 220.9 121.988 218.257V220.935H115.275V209.382C115.275 209.382 115.679 206.739 112.484 206.739H110.314V220.935H103.799V206.739H98.9442V220.935H92.1228V200.78H114.736C114.736 200.78 121.988 200.287 121.988 208.277V210.584C123.642 208.087 126.909 208.215 127.948 208.215H136.49C136.49 208.215 136.92 206.188 133.847 206.188H123.155V200.78H136.612C136.612 200.78 142.636 200.533 142.636 206.371V215.345L161.01 200.78H179.079C179.079 200.78 186.023 200.533 186.023 209.69C186.023 210.041 186.014 210.376 186.001 210.707C187.627 208.08 190.986 208.215 192.044 208.215H200.587C200.587 208.215 201.016 206.188 197.944 206.188H187.251V200.78H200.708C200.707 200.781 206.732 200.534 206.732 206.372Z" fill="#34455C"/>
<path fill-rule="evenodd" clip-rule="evenodd" d="M147.737 220.936L154.989 214.977H162.977V220.936H147.737ZM158.922 200.781L151.67 206.74H143.68V200.781H158.922Z" fill="#34455C"/>
<path fill-rule="evenodd" clip-rule="evenodd" d="M193.395 212.733H200.433V215.376H193.274C193.274 215.376 191.799 215.497 191.799 214.053C191.799 212.825 192.995 212.733 193.395 212.733ZM129.348 212.733H136.384V215.376H129.225C129.225 215.376 127.75 215.497 127.75 214.053C127.75 212.825 128.948 212.733 129.348 212.733ZM176.742 214.977H170.628V206.434H176.804C176.804 206.434 179.753 206.679 179.753 210.459C179.753 214.208 178.37 214.977 176.742 214.977Z" fill="#080B0F"/>
<path fill-rule="evenodd" clip-rule="evenodd" d="M211.215 206.447C212.765 206.447 214.026 205.188 214.026 203.639C214.026 202.089 212.765 200.828 211.215 200.828C209.668 200.828 208.407 202.089 208.407 203.639C208.407 205.188 209.668 206.447 211.215 206.447Z" fill="#34455C"/>
<path fill-rule="evenodd" clip-rule="evenodd" d="M208.9 203.638C208.9 202.359 209.94 201.319 211.216 201.319C212.495 201.319 213.535 202.359 213.535 203.638C213.535 204.917 212.495 205.957 211.216 205.957C209.939 205.957 208.9 204.917 208.9 203.638Z" fill="#080B0F"/>
<path fill-rule="evenodd" clip-rule="evenodd" d="M210.436 203.781H211.495C212.014 203.781 212.069 204.092 212.069 204.358C212.069 204.479 212.082 204.969 212.144 205.166H212.678V205.096C212.546 205.021 212.521 204.952 212.517 204.774L212.491 204.188C212.472 203.738 212.287 203.658 212.104 203.583C212.31 203.465 212.552 203.287 212.552 202.81C212.552 202.129 212.024 201.946 211.493 201.946H210.001V205.166H210.436V203.781Z" fill="#34455C"/>
<path fill-rule="evenodd" clip-rule="evenodd" d="M210.436 202.315H211.525C211.741 202.315 212.106 202.355 212.106 202.857C212.106 203.334 211.768 203.415 211.448 203.415H210.436V202.315Z" fill="#080B0F"/>
</g>
<defs>
<clipPath id="clip0_169_2812">
<rect width="146" height="146" fill="white" transform="translate(77 77)"/>
</clipPath>
</defs>
</svg>
