<svg width="300" height="300" viewBox="0 0 300 300" fill="none" xmlns="http://www.w3.org/2000/svg">
<g clip-path="url(#clip0_169_2831)">
<path fill-rule="evenodd" clip-rule="evenodd" d="M48.8096 48.8096H251.191V251.191H48.8096V48.8096Z" fill="#080B0F"/>
<path fill-rule="evenodd" clip-rule="evenodd" d="M149.772 181.381C179.108 181.381 206.424 172.286 221.065 157.647C228.318 150.394 232.151 142.065 232.151 133.558C232.151 125.053 228.319 116.723 221.065 109.47C206.424 94.8304 179.108 85.7358 149.772 85.7358C127.989 85.7358 107.475 90.5792 92.007 99.3724C76.1341 108.398 67.3923 120.538 67.3923 133.558C67.3923 142.065 71.2267 150.394 78.4796 157.647C93.1189 172.286 120.436 181.381 149.772 181.381Z" fill="#34455C"/>
<path fill-rule="evenodd" clip-rule="evenodd" d="M71.9596 133.557C71.9596 126.289 75.3309 119.076 81.7093 112.698C95.5232 98.8838 121.604 90.3027 149.772 90.3027C177.942 90.3027 204.021 98.8838 217.835 112.698C224.213 119.076 227.584 126.289 227.584 133.557C227.584 157.407 192.678 176.811 149.772 176.811C121.604 176.811 95.5232 168.231 81.7093 154.416C75.3309 148.039 71.9596 140.826 71.9596 133.557Z" fill="#080B0F"/>
<path fill-rule="evenodd" clip-rule="evenodd" d="M120.454 97.3238C120.208 96.612 119.799 96.6088 119.544 97.3186L112.705 116.359C112.45 117.068 111.634 117.753 110.892 117.883L76.7483 123.808C76.0049 123.938 76.006 124.143 76.7493 124.266L110.89 129.91C111.633 130.032 112.455 130.712 112.717 131.419L119.531 149.859C119.792 150.565 120.212 150.563 120.465 149.853L127.009 131.425C127.261 130.715 128.075 130.031 128.819 129.906L162.35 124.27C163.095 124.145 163.095 123.936 162.353 123.805L128.818 117.887C128.075 117.756 127.267 117.066 127.022 116.354L120.454 97.3238ZM164.924 126.746C164.815 126.429 164.633 126.428 164.52 126.743L161.477 135.215C161.365 135.53 161.001 135.835 160.671 135.893L145.479 138.53C145.148 138.587 145.149 138.679 145.479 138.733L160.669 141.244C160.999 141.298 161.365 141.601 161.481 141.916L164.512 150.119C164.629 150.435 164.816 150.433 164.928 150.117L167.839 141.918C167.95 141.602 168.313 141.298 168.644 141.241L183.564 138.734C183.894 138.679 183.894 138.585 183.564 138.527L168.644 135.894C168.314 135.835 167.955 135.529 167.844 135.212L164.924 126.746ZM206.031 126.746C205.922 126.429 205.74 126.428 205.627 126.743L202.584 135.215C202.471 135.53 202.108 135.835 201.777 135.893L186.586 138.53C186.256 138.587 186.256 138.679 186.586 138.733L201.775 141.244C202.107 141.298 202.473 141.601 202.589 141.916L205.62 150.119C205.737 150.435 205.924 150.433 206.036 150.117L208.945 141.918C209.058 141.602 209.421 141.298 209.752 141.241L224.67 138.734C225.002 138.679 225.002 138.585 224.672 138.527L209.752 135.894C209.422 135.835 209.061 135.529 208.952 135.212L206.031 126.746ZM193.928 102.539C193.819 102.222 193.637 102.221 193.524 102.537L190.481 111.008C190.369 111.323 190.006 111.628 189.673 111.686L174.481 114.323C174.152 114.38 174.152 114.472 174.483 114.526L189.673 117.037C190.002 117.092 190.37 117.394 190.484 117.708L193.518 125.912C193.634 126.227 193.821 126.225 193.932 125.91L196.844 117.711C196.956 117.395 197.317 117.092 197.65 117.035L212.569 114.528C212.898 114.472 212.898 114.379 212.571 114.321L197.648 111.688C197.318 111.629 196.959 111.323 196.85 111.005L193.928 102.539ZM179.199 145.626C179.089 145.309 178.908 145.308 178.794 145.624L175.752 154.095C175.639 154.411 175.276 154.716 174.945 154.773L159.754 157.41C159.424 157.468 159.424 157.558 159.754 157.613L174.943 160.123C175.275 160.179 175.64 160.48 175.757 160.796L178.788 168.999C178.905 169.315 179.092 169.312 179.204 168.996L182.115 160.798C182.226 160.482 182.589 160.178 182.92 160.12L197.84 157.614C198.17 157.558 198.17 157.464 197.84 157.407L182.92 154.774C182.59 154.714 182.229 154.409 182.12 154.092L179.199 145.626ZM136.824 149.364C136.715 149.047 136.533 149.046 136.419 149.362L133.376 157.833C133.263 158.149 132.9 158.454 132.57 158.511L117.379 161.146C117.049 161.204 117.049 161.296 117.38 161.351L132.569 163.861C132.9 163.915 133.266 164.218 133.382 164.532L136.414 172.736C136.529 173.05 136.717 173.05 136.83 172.734L139.74 164.535C139.852 164.217 140.215 163.914 140.545 163.858L155.464 161.35C155.794 161.294 155.796 161.202 155.466 161.143L140.544 158.51C140.215 158.452 139.855 158.144 139.745 157.829L136.824 149.364ZM68.7803 208.602H75.0663C75.0946 210.784 75.9724 210.952 77.7846 210.952H85.4858C86.8172 210.952 88.1758 210.812 88.1758 209.225C88.1758 207.441 87.4398 207.327 79.3416 207.327C69.8838 207.327 68.8076 206.196 68.8076 201.155C68.8076 197.445 69.1478 194.584 77.0759 194.584H85.8544C93.1031 194.584 93.7824 197.05 93.7824 200.644V201.296H87.4965C87.4965 199.794 87.3264 199.172 84.438 199.172H77.4727C76.0564 199.172 75.0936 199.653 75.0936 200.757C75.0936 202.541 75.859 202.599 82.5975 202.57C92.3671 202.542 94.6318 203.136 94.6318 209.111C94.6318 214.634 92.7629 215.54 84.4097 215.54H76.7924C71.0724 215.54 68.7793 214.464 68.7793 210.017L68.7803 208.602ZM95.9411 194.814H102.227V206.65C102.227 209.254 103.161 210.274 105.738 210.274H111.968C114.545 210.274 115.479 209.254 115.479 206.65V194.814H121.765V208.008C121.765 213.105 119.132 215.542 113.355 215.542H104.351C98.5743 215.542 95.9411 213.106 95.9411 208.008V194.814ZM122.982 194.814H141.076C146.088 194.814 148.523 196.172 148.523 200.193C148.523 203.706 147.249 204.384 145.493 204.894V204.98C148.239 205.32 149.259 206.793 149.259 209.879C149.259 214.38 146.596 215.315 143 215.315H122.982V194.814Z" fill="#34455C"/>
<path fill-rule="evenodd" clip-rule="evenodd" d="M129.268 210.387H140.538C141.897 210.387 142.803 210.075 142.803 208.887C142.803 207.499 141.897 207.187 140.538 207.187H129.268V210.387ZM129.268 202.941H140.396C141.558 202.941 142.237 202.516 142.237 201.353C142.237 200.166 141.558 199.739 140.396 199.739H129.268V202.941Z" fill="#080B0F"/>
<path fill-rule="evenodd" clip-rule="evenodd" d="M159.341 194.814H167.523L178.795 215.314H171.8L169.847 211.691H157.105L155.263 215.314H148.241L159.341 194.814Z" fill="#34455C"/>
<path fill-rule="evenodd" clip-rule="evenodd" d="M159.455 207.271H167.495L163.418 199.571L159.455 207.271Z" fill="#080B0F"/>
<path fill-rule="evenodd" clip-rule="evenodd" d="M179.756 194.814H198.726C203.57 194.814 204.873 197.22 204.873 200.903V202.205C204.873 204.951 204.249 206.564 201.36 207.246V207.301C203.23 207.641 204.787 208.461 204.787 211.833V215.314H198.502V212.851C198.502 210.698 197.878 209.99 195.924 209.99H186.042V215.313H179.757L179.756 194.814Z" fill="#34455C"/>
<path fill-rule="evenodd" clip-rule="evenodd" d="M186.041 204.893H196.433C198.131 204.893 198.755 204.215 198.755 202.742V202.064C198.755 200.25 197.849 199.91 195.867 199.91H186.041V204.893Z" fill="#080B0F"/>
<path fill-rule="evenodd" clip-rule="evenodd" d="M206.091 194.814H212.378V206.65C212.378 209.254 213.311 210.274 215.889 210.274H222.119C224.694 210.274 225.63 209.254 225.63 206.65V194.814H231.917V208.008C231.917 213.105 229.282 215.542 223.505 215.542H214.501C208.724 215.542 206.091 213.106 206.091 208.008V194.814ZM240.429 211.47C240.43 211.973 240.333 212.471 240.141 212.937C239.949 213.402 239.667 213.825 239.311 214.18C238.956 214.536 238.533 214.818 238.068 215.01C237.602 215.202 237.104 215.299 236.601 215.298C236.096 215.301 235.596 215.204 235.129 215.013C234.662 214.822 234.237 214.541 233.879 214.185C233.521 213.829 233.238 213.406 233.044 212.94C232.851 212.474 232.751 211.974 232.752 211.47C232.753 210.965 232.854 210.467 233.048 210.001C233.242 209.536 233.526 209.114 233.883 208.758C234.241 208.403 234.665 208.121 235.131 207.93C235.597 207.738 236.097 207.64 236.601 207.641C237.103 207.641 237.601 207.74 238.066 207.932C238.53 208.125 238.953 208.407 239.308 208.762C239.664 209.118 239.946 209.54 240.138 210.004C240.33 210.469 240.429 210.967 240.429 211.47Z" fill="#34455C"/>
<path fill-rule="evenodd" clip-rule="evenodd" d="M233.374 211.449C233.372 211.874 233.453 212.296 233.614 212.689C233.775 213.083 234.012 213.441 234.312 213.743C234.612 214.044 234.968 214.284 235.361 214.447C235.753 214.611 236.174 214.695 236.6 214.695C238.377 214.695 239.805 213.249 239.805 211.449C239.804 210.599 239.466 209.784 238.865 209.183C238.264 208.582 237.449 208.244 236.6 208.243C235.747 208.242 234.929 208.578 234.324 209.179C233.72 209.78 233.378 210.596 233.374 211.449Z" fill="#080B0F"/>
<path fill-rule="evenodd" clip-rule="evenodd" d="M238.509 213.621H237.836L236.61 211.743H235.775V213.621H235.173V209.329H237.043C237.815 209.329 238.57 209.54 238.57 210.465C238.57 211.31 237.996 211.661 237.234 211.681L238.509 213.621Z" fill="#34455C"/>
<path fill-rule="evenodd" clip-rule="evenodd" d="M235.775 211.227H236.901C237.764 211.227 237.968 210.876 237.968 210.454C237.968 209.892 237.373 209.841 236.922 209.841H235.775V211.227Z" fill="#080B0F"/>
</g>
<defs>
<clipPath id="clip0_169_2831">
<rect width="184" height="184" fill="white" transform="translate(58 58)"/>
</clipPath>
</defs>
</svg>
