<svg width="24" height="25" viewBox="0 0 24 25" fill="none" xmlns="http://www.w3.org/2000/svg">
<mask id="mask0_76_10375" style="mask-type:alpha" maskUnits="userSpaceOnUse" x="0" y="0" width="24" height="25">
<rect y="0.5" width="24" height="24" fill="#D9D9D9"/>
</mask>
<g mask="url(#mask0_76_10375)">
<path d="M11.3 19.7998C11.1167 19.6165 11.0208 19.3831 11.0125 19.0998C11.0042 18.8165 11.0917 18.5831 11.275 18.3998L16.175 13.4998H5C4.71667 13.4998 4.47917 13.404 4.2875 13.2123C4.09583 13.0206 4 12.7831 4 12.4998C4 12.2165 4.09583 11.979 4.2875 11.7873C4.47917 11.5956 4.71667 11.4998 5 11.4998H16.175L11.275 6.5998C11.0917 6.41647 11.0042 6.18314 11.0125 5.8998C11.0208 5.61647 11.1167 5.38314 11.3 5.1998C11.4833 5.01647 11.7167 4.9248 12 4.9248C12.2833 4.9248 12.5167 5.01647 12.7 5.1998L19.3 11.7998C19.4 11.8831 19.4708 11.9873 19.5125 12.1123C19.5542 12.2373 19.575 12.3665 19.575 12.4998C19.575 12.6331 19.5542 12.7581 19.5125 12.8748C19.4708 12.9915 19.4 13.0998 19.3 13.1998L12.7 19.7998C12.5167 19.9831 12.2833 20.0748 12 20.0748C11.7167 20.0748 11.4833 19.9831 11.3 19.7998Z" fill="white"/>
</g>
</svg>
