<svg width="122" height="30" viewBox="0 0 122 30" fill="none" xmlns="http://www.w3.org/2000/svg">
<g clip-path="url(#clip0_2978_29868)">
<path d="M17.1116 13.4042L20.9956 9.5203L24.8817 13.4062L27.1416 11.1462L20.9956 5L14.8516 11.1442L17.1116 13.4042Z" fill="#F3BA2F"/>
<path d="M15.5158 14.9997L13.2559 12.7397L10.9958 14.9998L13.2557 17.2598L15.5158 14.9997Z" fill="#F3BA2F"/>
<path d="M17.1115 16.5959L20.9955 20.4798L24.8814 16.594L27.1427 18.8527L27.1415 18.854L20.9955 25.0001L14.8513 18.856L14.8481 18.8529L17.1115 16.5959Z" fill="#F3BA2F"/>
<path d="M28.736 17.2608L30.9961 15.0007L28.7361 12.7408L26.4761 15.0008L28.736 17.2608Z" fill="#F3BA2F"/>
<path d="M23.288 14.9989H23.2889L20.9956 12.7056L19.3008 14.4004H19.3006L19.106 14.5951L18.7043 14.9968L18.7012 15L18.7043 15.0033L20.9956 17.2946L23.2889 15.0013L23.29 15L23.288 14.9989Z" fill="#F3BA2F"/>
<path d="M34.519 9.84619H39.4344C40.6544 9.84619 41.5769 10.1593 42.2021 10.7854C42.6859 11.2704 42.9278 11.8715 42.9278 12.5884V12.6188C42.9278 12.9218 42.8904 13.1895 42.815 13.4217C42.7398 13.6542 42.6393 13.8635 42.5138 14.0504C42.3885 14.2374 42.2429 14.4016 42.0773 14.5428C41.9116 14.6843 41.7336 14.8056 41.5429 14.9064C42.1561 15.1389 42.6389 15.4544 42.9908 15.8534C43.3426 16.2526 43.5187 16.8056 43.5187 17.5125V17.5427C43.5187 18.0276 43.4255 18.4518 43.239 18.8156C43.0524 19.179 42.7852 19.4822 42.4372 19.7246C42.0892 19.9671 41.6707 20.1488 41.1817 20.2701C40.6926 20.3912 40.1506 20.4517 39.5559 20.4517H34.519V9.84619ZM38.943 14.1338C39.4583 14.1338 39.8674 14.0457 40.1702 13.8687C40.4732 13.692 40.6247 13.4065 40.6247 13.0127V12.9824C40.6247 12.629 40.4932 12.3589 40.2307 12.1719C39.968 11.985 39.5892 11.8915 39.0945 11.8915H36.7915V14.1338H38.943ZM39.5643 18.4066C40.0794 18.4066 40.4831 18.3134 40.7763 18.1264C41.0692 17.9395 41.2158 17.649 41.2158 17.255V17.2249C41.2158 16.8713 41.0793 16.5911 40.8066 16.3839C40.5338 16.1771 40.0945 16.0735 39.4884 16.0735H36.7915V18.4067L39.5643 18.4066Z" fill="#F3BA2F"/>
<path d="M46.4463 9.84619H48.7797V20.4521H46.4463V9.84619Z" fill="#F3BA2F"/>
<path d="M52.314 9.84619H54.4651L59.4348 16.3764V9.84619H61.7378V20.4521H59.7531L54.6168 13.7098V20.4521H52.314V9.84619Z" fill="#F3BA2F"/>
<path d="M68.8016 9.77051H70.9529L75.4985 20.452H73.059L72.0893 18.0734H67.6045L66.635 20.452H64.2559L68.8016 9.77051ZM71.256 16.0126L69.8468 12.5734L68.4381 16.0126H71.256Z" fill="#F3BA2F"/>
<path d="M78.0176 9.84619H80.1692L85.1386 16.3764V9.84619H87.4416V20.4521H85.4569L80.3205 13.7098V20.4521H78.0176V9.84619Z" fill="#F3BA2F"/>
<path d="M95.8388 20.6337C95.0606 20.6337 94.3387 20.4921 93.672 20.2095C93.0052 19.9269 92.4296 19.5404 91.9448 19.0504C91.4598 18.5605 91.0809 17.9822 90.8085 17.3156C90.5357 16.6489 90.3994 15.9367 90.3994 15.1792V15.149C90.3994 14.3914 90.5357 13.682 90.8085 13.0203C91.081 12.3587 91.4598 11.7779 91.9448 11.2779C92.4294 10.778 93.0104 10.3838 93.687 10.096C94.3635 9.80821 95.1115 9.66431 95.9296 9.66431C96.4242 9.66431 96.8761 9.7049 97.2852 9.78547C97.6944 9.8665 98.0654 9.97739 98.399 10.1188C98.7325 10.2603 99.0402 10.432 99.3234 10.6339C99.6057 10.8361 99.8686 11.0582 100.111 11.3007L98.6265 13.0127C98.2119 12.6391 97.7904 12.3459 97.3612 12.1339C96.9317 11.9219 96.4496 11.8158 95.9143 11.8158C95.4697 11.8158 95.0581 11.9017 94.6796 12.0734C94.3008 12.2451 93.9749 12.4824 93.7021 12.7854C93.4296 13.0883 93.2175 13.4395 93.0657 13.8384C92.9145 14.2375 92.8389 14.6642 92.8389 15.1187V15.1488C92.8389 15.6033 92.9145 16.0328 93.0657 16.4365C93.2175 16.8408 93.4266 17.1941 93.6947 17.4971C93.9621 17.8001 94.2855 18.0402 94.6641 18.217C95.0432 18.3939 95.4598 18.482 95.9143 18.482C96.5205 18.482 97.0326 18.371 97.4519 18.1487C97.8711 17.9268 98.288 17.6236 98.702 17.2396L100.187 18.7397C99.9141 19.0327 99.6308 19.2954 99.3384 19.5274C99.0454 19.76 98.7248 19.9593 98.3761 20.1261C98.0278 20.2926 97.6462 20.4191 97.2325 20.5048C96.818 20.5905 96.3536 20.6337 95.8388 20.6337Z" fill="#F3BA2F"/>
<path d="M102.933 9.84619H110.918V11.922H105.236V14.0735H110.236V16.1491H105.236V18.3764H110.994V20.4521H102.933V9.84619Z" fill="#F3BA2F"/>
</g>
<defs>
<clipPath id="clip0_2978_29868">
<rect width="99.8356" height="20" fill="white" transform="translate(11.082 5)"/>
</clipPath>
</defs>
</svg>
