<svg width="69" height="69" viewBox="0 0 69 69" fill="none" xmlns="http://www.w3.org/2000/svg">
<g id="surface2701">
<path id="Vector" d="M43.6548 0C30.0302 0 18.9824 11.0478 18.9824 24.6795C18.9824 38.3042 30.0302 49.3519 43.6548 49.3519C57.2866 49.3519 68.3344 38.3042 68.3344 24.6795C68.3344 11.0478 57.2866 0 43.6548 0Z" fill="#D28147"/>
<g id="Group 39754">
<path id="Vector_2" d="M24.6795 18.9844C11.0478 18.9844 0 30.0321 0 43.6568C0 57.2885 11.0478 68.3363 24.6795 68.3363C38.3042 68.3363 49.3519 57.2885 49.3519 43.6568C49.3519 30.0321 38.3042 18.9844 24.6795 18.9844Z" fill="#F6B059"/>
<path id="Vector_3" d="M21.8335 37.9617C19.2068 37.9617 17.0855 40.0901 17.0855 42.7097C17.0855 45.3293 19.2068 47.4577 21.8335 47.4577C24.4531 47.4577 26.5744 45.3293 26.5744 42.7097C26.5744 40.0901 24.4531 37.9617 21.8335 37.9617ZM25.6276 26.5723C24.0544 26.5723 22.7802 27.8465 22.7802 29.4196C22.7802 30.9928 24.0544 32.267 25.6276 32.267C27.2008 32.267 28.475 30.9928 28.475 29.4196C28.475 27.8465 27.2008 26.5723 25.6276 26.5723ZM32.2691 49.3512C30.1763 49.3512 28.475 51.0525 28.475 53.1524C28.475 55.2452 30.1763 56.9465 32.2691 56.9465C34.369 56.9465 36.0703 55.2452 36.0703 53.1524C36.0703 51.0525 34.369 49.3512 32.2691 49.3512ZM10.444 43.6564C8.87088 43.6564 7.59668 44.9306 7.59668 46.5038C7.59668 48.077 8.87088 49.3512 10.444 49.3512C12.0172 49.3512 13.2914 48.077 13.2914 46.5038C13.2914 44.9306 12.0172 43.6564 10.444 43.6564ZM37.0171 37.9617C35.4439 37.9617 34.1697 39.2359 34.1697 40.8091C34.1697 42.3823 35.4439 43.6564 37.0171 43.6564C38.5902 43.6564 39.8644 42.3823 39.8644 40.8091C39.8644 39.2359 38.5902 37.9617 37.0171 37.9617ZM18.9861 55.0459C17.9326 55.0459 17.0855 55.9001 17.0855 56.9465C17.0855 57.9929 17.9326 58.8471 18.9861 58.8471C20.0325 58.8471 20.8796 57.9929 20.8796 56.9465C20.8796 55.9001 20.0325 55.0459 18.9861 55.0459Z" fill="#6D420D"/>
</g>
<path id="Vector_4" d="M37.9631 7.59593C35.8702 7.59593 34.1689 9.29011 34.1689 11.39C34.1689 13.49 35.8702 15.1842 37.9631 15.1842C40.063 15.1842 41.7643 13.49 41.7643 11.39C41.7643 9.29011 40.063 7.59593 37.9631 7.59593ZM48.4058 17.0848C46.8326 17.0848 45.5584 18.359 45.5584 19.9321C45.5584 21.5053 46.8326 22.7795 48.4058 22.7795C49.9789 22.7795 51.2531 21.5053 51.2531 19.9321C51.2531 18.359 49.9789 17.0848 48.4058 17.0848ZM50.2993 5.69531C48.7261 5.69531 47.4519 6.96951 47.4519 8.54268C47.4519 10.1158 48.7261 11.39 50.2993 11.39C51.8724 11.39 53.1466 10.1158 53.1466 8.54268C53.1466 6.96951 51.8724 5.69531 50.2993 5.69531ZM56.9479 26.5736C55.9014 26.5736 55.0472 27.4278 55.0472 28.4742C55.0472 29.5206 55.9014 30.3748 56.9479 30.3748C57.9943 30.3748 58.8485 29.5206 58.8485 28.4742C58.8485 27.4278 57.9943 26.5736 56.9479 26.5736Z" fill="#7A441D"/>
</g>
</svg>
