<svg width="14" height="15" viewBox="0 0 14 15" fill="none" xmlns="http://www.w3.org/2000/svg">
<path id="Union" fill-rule="evenodd" clip-rule="evenodd" d="M13.4755 5.02212V5.0249C13.8234 5.86267 14.0003 6.75291 14.0003 7.67179C14.0003 11.5075 10.8779 14.63 7.04215 14.63C3.20643 14.63 0.0839844 11.5075 0.0839844 7.67179C0.0839844 3.83605 3.20643 0.713623 7.04215 0.713623C7.76696 0.713623 8.48312 0.826548 9.16497 1.04722C9.16778 1.04722 9.16778 1.05 9.16778 1.05H9.1765C9.18624 1.05333 9.19414 1.05926 9.2023 1.06537L9.20999 1.07103L9.21329 1.07332L9.21699 1.07568L9.21898 1.07685L9.22303 1.07903C9.23772 1.08778 9.25522 1.09056 9.26957 1.10209C9.26957 1.10209 9.26957 1.10304 9.27012 1.10383C9.27046 1.10439 9.27115 1.10487 9.27231 1.10487C9.28796 1.12081 9.29922 1.13677 9.31199 1.15484L9.31569 1.16014C9.31741 1.16239 9.31919 1.16452 9.32105 1.16661L9.3251 1.17111C9.32873 1.17511 9.33237 1.1791 9.33553 1.18355C9.338 1.18695 9.3402 1.19062 9.34191 1.19474C9.34658 1.20289 9.3496 1.21177 9.35186 1.22106L9.35303 1.22624L9.35434 1.23257L9.35626 1.24403L9.35893 1.25136L9.36182 1.25893L9.36202 1.2595C9.36683 1.27202 9.37177 1.28498 9.37376 1.2993C9.37376 1.30404 9.37314 1.30886 9.37252 1.31386V1.31616C9.37177 1.32266 9.37095 1.32954 9.37095 1.33707C9.37095 1.36331 9.3682 1.38637 9.36223 1.41262V1.4154C9.35887 1.42517 9.35296 1.43406 9.34727 1.4425C9.3428 1.44919 9.33855 1.45559 9.33594 1.46192C9.32722 1.47943 9.32125 1.49691 9.30972 1.51122C8.93832 1.96371 8.73557 2.52911 8.73557 3.10882C8.73557 4.49727 9.86596 5.62808 11.2548 5.62808C11.9101 5.62808 12.5304 5.376 13.0031 4.91795C13.007 4.9147 13.0109 4.91194 13.0148 4.90945C13.0205 4.90588 13.0261 4.90288 13.0317 4.89989C13.0367 4.89729 13.0416 4.89468 13.0465 4.89171C13.064 4.88018 13.0755 4.86865 13.093 4.8599H13.0989C13.1192 4.85154 13.1427 4.84836 13.1658 4.84558C13.18 4.84558 13.1948 4.83683 13.2091 4.83961C13.2266 4.83961 13.2409 4.84558 13.2584 4.84836C13.2787 4.85114 13.2989 4.85392 13.3164 4.8599C13.324 4.86355 13.3304 4.86858 13.3371 4.87407L13.3408 4.87712L13.3483 4.88296C13.3713 4.89449 13.3916 4.90602 13.4118 4.92352C13.4118 4.92519 13.4118 4.92586 13.4124 4.92613C13.4129 4.9263 13.4135 4.9263 13.4146 4.9263C13.4262 4.94061 13.4349 4.9581 13.4437 4.9756C13.4524 4.98991 13.4667 4.99866 13.4727 5.01615C13.4727 5.0179 13.4727 5.01869 13.4732 5.01951L13.474 5.02061L13.4755 5.02212ZM2.11338 8.54136C2.11338 9.18231 2.63269 9.70119 3.27321 9.70119C3.91374 9.70119 4.43305 9.18231 4.43305 8.54136C4.43305 7.90042 3.91374 7.38154 3.27321 7.38154C2.63228 7.38154 2.11338 7.90082 2.11338 8.54136ZM5.01234 3.6126C4.53401 3.6126 4.14278 4.00425 4.14278 4.48256C4.14278 4.9609 4.53442 5.35254 5.01234 5.35214C5.49109 5.35214 5.88232 4.9609 5.88232 4.48256C5.88232 4.00383 5.49068 3.6126 5.01234 3.6126ZM6.7523 11.4407C6.7523 11.9195 7.14353 12.3107 7.62186 12.3107C8.1002 12.3107 8.49184 11.9191 8.49184 11.4407C8.49184 10.9624 8.1002 10.5712 7.62186 10.5712C7.14353 10.5712 6.7523 10.9624 6.7523 11.4407ZM7.04215 7.52666C7.04215 8.16761 7.56146 8.68649 8.20199 8.68649C8.84251 8.68649 9.36141 8.16761 9.36182 7.52666C9.36182 6.88572 8.84251 6.36684 8.20199 6.36684C7.56105 6.36684 7.04215 6.88612 7.04215 7.52666Z" fill="#181818"/>
</svg>
