<svg width="24" height="24" viewBox="0 0 24 24" fill="none" xmlns="http://www.w3.org/2000/svg">
<g id="cs2logo">
<g clip-path="url(#clip0_122_5094)">
<g id="Group">
<path id="Vector" d="M14.5016 9.66886C14.5374 9.60204 14.5744 9.55672 14.5861 9.48033C14.5946 9.42508 14.6024 9.37208 14.6095 9.32133C14.613 9.2956 14.6275 9.28265 14.6529 9.28248L15.912 9.27135C15.9251 9.27121 15.9375 9.26583 15.9467 9.25637C15.9559 9.24692 15.961 9.23415 15.961 9.22085V9.03828C15.961 9.0274 15.9663 9.02196 15.9768 9.02196H16.4282C16.433 9.02197 16.4377 9.02098 16.4421 9.01904C16.4465 9.01711 16.4505 9.01428 16.4538 9.01072C16.4571 9.00716 16.4597 9.00294 16.4613 8.99833C16.463 8.99372 16.4637 8.98881 16.4635 8.9839L16.4592 8.88782C16.4587 8.87487 16.452 8.86831 16.4391 8.86814L15.9996 8.86581C15.991 8.86576 15.9827 8.86252 15.9763 8.85672C15.9698 8.85091 15.9657 8.84291 15.9646 8.83421L15.9445 8.67676C15.9441 8.67332 15.9428 8.67004 15.941 8.66715C15.9391 8.66426 15.9366 8.66185 15.9336 8.6601C15.9307 8.65835 15.9274 8.65731 15.924 8.65706C15.9206 8.6568 15.9172 8.65734 15.914 8.65864C15.8751 8.67487 15.8471 8.70249 15.83 8.74151C15.8263 8.75014 15.8275 8.75799 15.8338 8.76507L15.8526 8.78631C15.8628 8.79787 15.8602 8.80331 15.845 8.80262C15.7884 8.79977 15.7325 8.81479 15.6815 8.81479C15.0325 8.81514 14.3836 8.81281 13.7348 8.8078C13.671 8.80754 13.4915 8.8223 13.5316 8.74668C13.5359 8.73892 13.5422 8.73399 13.5507 8.73192L13.6588 8.70551C13.6682 8.70326 13.674 8.6974 13.6764 8.6879C13.7284 8.47529 13.6906 8.29764 13.5603 8.11999C13.3608 7.84808 13.0878 7.73439 12.7415 7.77894C12.4051 7.82192 12.239 8.14822 12.2824 8.47529C12.2834 8.48358 12.283 8.49186 12.2811 8.50015L12.2649 8.57007C12.2619 8.58319 12.2663 8.59234 12.2784 8.59752L12.3703 8.63792C12.3811 8.64258 12.386 8.65095 12.385 8.66304L12.3792 8.72338C12.3782 8.73369 12.3733 8.74321 12.3654 8.74985C12.3576 8.75649 12.3475 8.75973 12.3373 8.75886C12.2288 8.74876 12.1415 8.75601 12.043 8.80987C11.7408 8.97483 11.5047 9.283 11.3833 9.59686C11.3327 9.72825 11.2885 9.82415 11.2508 9.88457C11.2464 9.89165 11.2435 9.89916 11.2422 9.9071C11.2379 9.93179 11.2279 9.95294 11.212 9.97055C11.205 9.97797 11.1965 9.98151 11.1866 9.98117C11.1302 9.97832 10.9705 9.96149 10.9486 10.034C10.915 10.1455 10.8771 10.2555 10.8352 10.3639C10.7689 10.5354 10.7189 10.7399 10.6338 10.9212C10.6323 10.9243 10.632 10.9278 10.6329 10.931C10.6338 10.9343 10.6358 10.9371 10.6386 10.9388C10.7033 10.9801 10.7685 11.0219 10.8344 11.0644C10.9268 11.124 10.7991 11.3726 10.757 11.4495C10.7422 11.4763 10.7172 11.5047 10.6818 11.535C10.5916 11.612 10.5405 11.7128 10.5284 11.8374C10.5276 11.8455 10.5248 11.8528 10.5201 11.8592C10.4581 11.9441 10.4378 12.0285 10.404 12.1267C10.3748 12.2116 10.2628 12.1681 10.1933 12.2204C10.1862 12.2256 10.1824 12.2327 10.1819 12.2417C10.161 12.6107 10.141 12.9782 10.0704 13.342C10.0488 13.4539 9.89494 13.55 9.82968 13.6256C9.67328 13.8068 9.54573 14.0113 9.44705 14.2388C9.3311 14.5066 9.19416 14.8049 9.03623 15.1338C8.97089 15.2696 8.94262 15.4281 8.95142 15.6092C8.96031 15.797 8.74906 15.9187 8.72773 16.1116C8.72689 16.1196 8.72883 16.1268 8.73357 16.1334L8.80898 16.2346C8.81508 16.2429 8.8232 16.2471 8.83336 16.2471C9.00855 16.2472 9.18383 16.2471 9.3592 16.2468C9.43105 16.2468 9.49656 16.1916 9.5156 16.1207C9.55115 15.9868 9.55547 15.8436 9.56892 15.7061C9.57324 15.6641 9.56029 15.5611 9.59939 15.5142C10.0089 15.0215 10.4198 14.53 10.8324 14.0399C10.887 13.9749 10.9339 13.8219 10.9768 13.7364C11.0728 13.5462 11.1602 13.3519 11.2391 13.1537C11.2615 13.0975 11.3011 13.0377 11.3244 12.9766C11.3676 12.8634 11.4476 12.5928 11.5603 12.547C11.5683 12.5437 11.576 12.5441 11.5834 12.5483C11.5998 12.5569 11.614 12.5705 11.6258 12.5892C11.7868 12.8437 11.9674 13.1088 12.1677 13.3845C12.2319 13.4725 12.2966 13.5253 12.3931 13.5567C12.3972 13.558 12.401 13.5602 12.4041 13.5632C12.4073 13.5661 12.4098 13.5698 12.4114 13.5738C12.4131 13.5779 12.4139 13.5822 12.4137 13.5866C12.4135 13.591 12.4124 13.5953 12.4104 13.5992C12.3117 13.7951 12.2089 13.9841 12.1019 14.166C12.0751 14.2116 12.0565 14.2596 12.046 14.31C11.9803 14.6252 11.9224 14.9346 11.8348 15.2488C11.7882 15.4155 11.7429 15.5826 11.6987 15.7499C11.667 15.8698 11.6591 15.9925 11.6489 16.1127C11.6472 16.1327 11.6562 16.1427 11.6758 16.1427C11.9353 16.1432 12.1856 16.148 12.4266 16.1569C12.6051 16.1634 13.0901 16.1859 13.0855 15.9006C13.0854 15.8916 13.0817 15.8844 13.0746 15.8791C12.985 15.8104 12.8415 15.7861 12.7298 15.7615C12.6171 15.7366 12.5376 15.6237 12.4848 15.5261C12.4802 15.5176 12.4809 15.5097 12.4868 15.5023C12.549 15.4243 12.6201 15.3554 12.6691 15.2752C12.7453 15.1505 12.8011 15.0445 12.8364 14.9572C12.9915 14.5741 13.1478 14.1913 13.3054 13.8089C13.4461 13.4681 13.3222 13.1871 13.1556 12.8932C12.985 12.5918 12.816 12.2892 12.6488 11.9855C12.6376 11.9654 12.6117 11.9342 12.5711 11.8921C12.564 11.8848 12.56 11.876 12.5592 11.8656L12.529 11.4912C12.5286 11.4872 12.5291 11.4831 12.5303 11.4793C12.5315 11.4754 12.5335 11.4719 12.5361 11.4688C12.5387 11.4657 12.5419 11.4632 12.5454 11.4614C12.549 11.4596 12.5529 11.4586 12.5569 11.4583L12.6437 11.4526C12.6529 11.4521 12.6598 11.4479 12.6645 11.4399C12.6998 11.3824 12.7351 11.3252 12.7707 11.2682C12.8758 11.0996 12.9588 10.9119 13.053 10.7366C13.1 10.6496 13.0401 10.5884 12.9992 10.5188C12.9933 10.5088 12.9946 10.4999 13.0033 10.4921L13.1061 10.3978C13.113 10.3913 13.121 10.3896 13.13 10.3929C13.2391 10.4328 13.3406 10.4876 13.4344 10.5574C13.4422 10.5631 13.4507 10.5662 13.46 10.5667C13.7343 10.584 13.9328 10.4823 13.979 10.1826C13.9864 10.135 14.0108 10.1163 14.0567 10.1236C14.0686 10.1255 14.0751 10.1326 14.0763 10.1448L14.0849 10.2375C14.0853 10.2416 14.0865 10.2456 14.0884 10.2492C14.0903 10.2528 14.0929 10.256 14.096 10.2586C14.0992 10.2612 14.1027 10.2631 14.1066 10.2642C14.1104 10.2654 14.1144 10.2657 14.1184 10.2653C14.2821 10.2459 14.441 10.2078 14.5953 10.1508C14.6041 10.1475 14.6076 10.1411 14.6059 10.1316C14.5927 10.0646 14.5457 9.70848 14.5082 9.68983C14.4989 9.68517 14.4967 9.67818 14.5016 9.66886Z" stroke="#855701" stroke-width="2"/>
<path id="Vector_2" d="M4.54782 11.2395C4.61553 11.2418 4.68315 11.243 4.75069 11.2432C6.07303 11.2471 7.39546 11.249 8.71797 11.2489C9.18008 11.2489 9.21969 11.1313 9.40149 10.7115C9.49307 10.5002 9.58109 10.287 9.66555 10.0719C9.66894 10.0629 9.66589 10.0584 9.65641 10.0584C8.33085 10.0574 7.00512 10.0574 5.67922 10.0584C5.44868 10.0586 5.27966 10.0665 5.17217 10.0822C4.57363 10.1694 4.12202 10.4739 3.81733 10.9956C3.76553 11.0843 3.69275 11.24 3.59897 11.4628C3.27634 12.2298 2.95498 12.9973 2.63489 13.7652C2.56202 13.94 2.51276 14.0905 2.49727 14.2596C2.44979 14.7739 2.81973 15.1815 3.30825 15.247C3.4027 15.2596 3.48361 15.2669 3.55098 15.2688C3.89816 15.2786 4.26217 15.279 4.64303 15.27C5.47889 15.2501 6.31755 15.2643 7.15366 15.2592C7.52131 15.2568 7.60231 15.0458 7.72723 14.7506C7.81864 14.5341 7.90615 14.3151 7.98977 14.0936C7.99073 14.0912 7.99108 14.0886 7.9908 14.086C7.99052 14.0834 7.98961 14.0809 7.98815 14.0788C7.9867 14.0766 7.98474 14.0749 7.98246 14.0737C7.98017 14.0725 7.97762 14.0718 7.97504 14.0718H4.01588C4.0131 14.0719 4.01036 14.0712 4.00791 14.0698C4.00545 14.0685 4.00336 14.0665 4.00183 14.0641C4.00029 14.0618 3.99935 14.059 3.9991 14.0561C3.99885 14.0533 3.9993 14.0504 4.0004 14.0477L5.05919 11.5259C5.06274 11.5173 5.06046 11.5108 5.05233 11.5065C4.89364 11.4226 4.68569 11.3568 4.54426 11.2494C4.53529 11.2425 4.53648 11.2392 4.54782 11.2395Z" stroke="#855701" stroke-width="2"/>
<path id="Vector_3" d="M16.5814 11.2584C16.5804 11.2579 16.5797 11.2571 16.5792 11.2561C16.5787 11.2551 16.5786 11.254 16.5789 11.2529C16.5791 11.2518 16.5797 11.2509 16.5805 11.2502C16.5813 11.2495 16.5824 11.2491 16.5834 11.2491C18.1116 11.2492 19.6363 11.2491 21.1576 11.2488C21.5359 11.2488 21.6943 11.0095 21.8462 10.6638C21.9301 10.4727 22.0103 10.2804 22.0866 10.0871C22.0878 10.0839 22.0883 10.0805 22.0879 10.0771C22.0876 10.0737 22.0864 10.0704 22.0845 10.0676C22.0827 10.0647 22.0801 10.0624 22.0772 10.0608C22.0742 10.0592 22.0709 10.0583 22.0676 10.0583C20.622 10.0573 19.1771 10.0574 17.7329 10.0586C17.4986 10.0589 17.3297 10.0669 17.2261 10.0824C16.6035 10.1767 16.1086 10.5454 15.8326 11.1242C15.6938 11.4153 15.5713 11.7137 15.465 12.0195C15.2872 12.5304 15.5701 13.0571 16.0678 13.2045C16.147 13.228 16.2586 13.24 16.4027 13.2405C17.3555 13.2438 18.316 13.2445 19.2842 13.2426C19.2899 13.2425 19.2955 13.2439 19.3006 13.2466C19.3056 13.2493 19.3099 13.2533 19.313 13.2582C19.3161 13.263 19.318 13.2686 19.3185 13.2743C19.319 13.2801 19.318 13.2859 19.3157 13.2912L18.9961 14.0404C18.9867 14.0624 18.9704 14.0732 18.9471 14.0731C17.6247 14.0693 16.3028 14.0706 14.9813 14.0769C14.8135 14.078 14.6136 14.0971 14.5273 14.2704C14.3689 14.588 14.2238 14.9134 14.0921 15.2464C14.0889 15.2547 14.0917 15.2589 14.1005 15.2589C15.5647 15.264 17.0289 15.2644 18.4931 15.2599C18.6864 15.2592 18.8366 15.2518 18.9438 15.2376C19.608 15.1501 20.1422 14.7321 20.4123 14.1062C20.6726 13.5026 21.0951 12.7759 20.4601 12.2588C20.2575 12.0935 20.0462 12.0526 19.7875 12.0526C18.8235 12.0521 17.8587 12.0518 16.8932 12.0518C16.8819 12.0518 16.8782 12.0465 16.8823 12.0358L17.0793 11.5267C17.0825 11.5186 17.0824 11.5096 17.0792 11.5015C17.076 11.4934 17.0699 11.4868 17.0621 11.4832L16.5814 11.2584Z" stroke="#855701" stroke-width="2"/>
</g>
<path id="Vector_4" d="M-1 -1H25V25H-1V-1ZM14.5015 9.66881C14.5373 9.60199 14.5744 9.55667 14.586 9.48028C14.5945 9.42503 14.6023 9.37203 14.6094 9.32127C14.6129 9.29555 14.6274 9.2826 14.6528 9.28243L15.9119 9.2713C15.925 9.27116 15.9374 9.26578 15.9466 9.25632C15.9558 9.24687 15.9609 9.2341 15.9609 9.2208V9.03823C15.9609 9.02735 15.9662 9.02191 15.9767 9.02191H16.4281C16.4329 9.02192 16.4377 9.02093 16.4421 9.01899C16.4465 9.01706 16.4504 9.01423 16.4537 9.01067C16.457 9.0071 16.4596 9.00289 16.4613 8.99828C16.4629 8.99367 16.4637 8.98876 16.4634 8.98384L16.4591 8.88777C16.4586 8.87482 16.4519 8.86826 16.439 8.86809L15.9995 8.86576C15.9909 8.8657 15.9826 8.86247 15.9762 8.85666C15.9698 8.85086 15.9656 8.84286 15.9645 8.83416L15.9444 8.67671C15.944 8.67327 15.9428 8.66998 15.9409 8.6671C15.939 8.66421 15.9365 8.6618 15.9335 8.66005C15.9306 8.6583 15.9273 8.65726 15.9239 8.65701C15.9205 8.65675 15.9171 8.65729 15.914 8.65859C15.875 8.67481 15.847 8.70244 15.8299 8.74146C15.8262 8.75009 15.8275 8.75794 15.8337 8.76502L15.8525 8.78625C15.8627 8.79782 15.8601 8.80326 15.8449 8.80257C15.7883 8.79972 15.7324 8.81474 15.6814 8.81474C15.0324 8.81509 14.3835 8.81276 13.7347 8.80775C13.671 8.80749 13.4914 8.82225 13.5316 8.74663C13.5358 8.73886 13.5421 8.73394 13.5506 8.73187L13.6588 8.70546C13.6681 8.70321 13.6739 8.69734 13.6763 8.68785C13.7283 8.47524 13.6905 8.29759 13.5603 8.11994C13.3607 7.84803 13.0877 7.73434 12.7414 7.77888C12.405 7.82187 12.2389 8.14817 12.2823 8.47524C12.2834 8.48353 12.2829 8.49181 12.2811 8.5001L12.2648 8.57002C12.2618 8.58314 12.2663 8.59229 12.2783 8.59747L12.3702 8.63787C12.381 8.64253 12.3859 8.6509 12.3849 8.66299L12.3791 8.72333C12.3781 8.73364 12.3732 8.74316 12.3653 8.7498C12.3575 8.75644 12.3474 8.75968 12.3372 8.75881C12.2288 8.7487 12.1414 8.75596 12.0429 8.80982C11.7408 8.97478 11.5046 9.28295 11.3833 9.59681C11.3326 9.72819 11.2885 9.8241 11.2507 9.88452C11.2463 9.8916 11.2434 9.89911 11.2421 9.90705C11.2379 9.93174 11.2278 9.95289 11.2119 9.9705C11.2049 9.97792 11.1965 9.98146 11.1865 9.98112C11.1301 9.97827 10.9704 9.96143 10.9486 10.0339C10.9149 10.1455 10.8771 10.2554 10.8351 10.3639C10.7688 10.5353 10.7188 10.7399 10.6337 10.9212C10.6323 10.9242 10.6319 10.9277 10.6328 10.931C10.6337 10.9342 10.6358 10.937 10.6386 10.9388C10.7032 10.98 10.7685 11.0219 10.8343 11.0644C10.9267 11.1239 10.799 11.3725 10.7569 11.4494C10.7421 11.4762 10.7171 11.5047 10.6817 11.5349C10.5915 11.6119 10.5404 11.7127 10.5284 11.8374C10.5275 11.8455 10.5247 11.8527 10.52 11.8591C10.458 11.9441 10.4377 12.0285 10.4039 12.1266C10.3747 12.2116 10.2628 12.1681 10.1932 12.2204C10.1861 12.2256 10.1823 12.2326 10.1818 12.2416C10.161 12.6106 10.1409 12.9781 10.0703 13.342C10.0487 13.4538 9.89486 13.5499 9.82961 13.6255C9.6732 13.8068 9.54566 14.0112 9.44697 14.2387C9.33102 14.5065 9.19408 14.8048 9.03615 15.1337C8.97081 15.2696 8.94254 15.4281 8.95135 15.6092C8.96023 15.7969 8.74898 15.9186 8.72766 16.1116C8.72681 16.1195 8.72876 16.1268 8.7335 16.1333L8.80891 16.2346C8.815 16.2429 8.82312 16.247 8.83328 16.247C9.00848 16.2472 9.18376 16.2471 9.35912 16.2468C9.43098 16.2468 9.49648 16.1916 9.51553 16.1206C9.55107 15.9868 9.55539 15.8435 9.56885 15.706C9.57316 15.6641 9.56021 15.561 9.59932 15.5141C10.0088 15.0214 10.4198 14.53 10.8323 14.0399C10.8869 13.9749 10.9338 13.8218 10.9768 13.7364C11.0727 13.5461 11.1602 13.3519 11.239 13.1537C11.2614 13.0975 11.301 13.0377 11.3244 12.9766C11.3675 12.8634 11.4475 12.5928 11.5602 12.5469C11.5682 12.5437 11.5759 12.5441 11.5833 12.5482C11.5998 12.5569 11.6139 12.5705 11.6257 12.5891C11.7867 12.8436 11.9673 13.1087 12.1676 13.3844C12.2318 13.4725 12.2966 13.5253 12.393 13.5566C12.3971 13.558 12.4009 13.5602 12.4041 13.5631C12.4072 13.5661 12.4097 13.5697 12.4114 13.5738C12.413 13.5778 12.4138 13.5822 12.4136 13.5866C12.4134 13.5909 12.4123 13.5952 12.4103 13.5991C12.3116 13.7951 12.2088 13.984 12.1018 14.166C12.0751 14.2116 12.0565 14.2595 12.046 14.31C11.9802 14.6251 11.9223 14.9346 11.8347 15.2487C11.7882 15.4155 11.7428 15.5825 11.6986 15.7498C11.6669 15.8697 11.659 15.9925 11.6488 16.1126C11.6472 16.1326 11.6561 16.1426 11.6758 16.1426C11.9353 16.1432 12.1855 16.1479 12.4266 16.1569C12.6051 16.1634 13.09 16.1859 13.0854 15.9005C13.0853 15.8915 13.0816 15.8844 13.0745 15.879C12.9849 15.8104 12.8414 15.7861 12.7297 15.7615C12.617 15.7366 12.5375 15.6237 12.4847 15.5261C12.4801 15.5176 12.4808 15.5097 12.4867 15.5022C12.5489 15.4243 12.62 15.3554 12.669 15.2751C12.7452 15.1505 12.801 15.0445 12.8364 14.9571C12.9914 14.574 13.1477 14.1913 13.3053 13.8089C13.446 13.4681 13.3221 13.1871 13.1555 12.8932C12.9849 12.5917 12.816 12.2892 12.6487 11.9855C12.6376 11.9653 12.6117 11.9341 12.571 11.892C12.5639 11.8848 12.5599 11.876 12.5591 11.8656L12.5289 11.4911C12.5285 11.4871 12.529 11.4831 12.5302 11.4792C12.5314 11.4754 12.5334 11.4718 12.536 11.4688C12.5386 11.4657 12.5418 11.4632 12.5454 11.4614C12.5489 11.4596 12.5528 11.4585 12.5568 11.4582L12.6437 11.4525C12.6528 11.452 12.6597 11.4478 12.6645 11.4399C12.6997 11.3824 12.7351 11.3251 12.7706 11.2682C12.8757 11.0996 12.9587 10.9118 13.0529 10.7365C13.0999 10.6495 13.04 10.5884 12.9991 10.5187C12.9932 10.5087 12.9946 10.4998 13.0032 10.4921L13.106 10.3978C13.113 10.3912 13.1209 10.3896 13.1299 10.3929C13.2391 10.4327 13.3405 10.4876 13.4343 10.5573C13.4421 10.563 13.4507 10.5661 13.46 10.5666C13.7342 10.584 13.9327 10.4822 13.9789 10.1826C13.9863 10.1349 14.0107 10.1163 14.0566 10.1235C14.0685 10.1254 14.075 10.1325 14.0762 10.1448L14.0848 10.2375C14.0852 10.2416 14.0864 10.2455 14.0883 10.2492C14.0903 10.2528 14.0929 10.2559 14.096 10.2585C14.0991 10.2611 14.1027 10.263 14.1065 10.2642C14.1103 10.2653 14.1144 10.2657 14.1183 10.2652C14.282 10.2459 14.441 10.2077 14.5952 10.1507C14.604 10.1475 14.6075 10.1411 14.6058 10.1316C14.5926 10.0645 14.5457 9.70843 14.5081 9.68978C14.4988 9.68512 14.4966 9.67813 14.5015 9.66881ZM4.54811 11.2394C4.61581 11.2417 4.68344 11.2429 4.75098 11.243C6.07332 11.247 7.39575 11.2489 8.71826 11.2487C9.18037 11.2487 9.21998 11.1312 9.40178 10.7114C9.49335 10.5001 9.58137 10.2869 9.66584 10.0718C9.66923 10.0628 9.66618 10.0583 9.6567 10.0583C8.33114 10.0573 7.00541 10.0573 5.67951 10.0583C5.44897 10.0585 5.27995 10.0664 5.17246 10.0821C4.57392 10.1693 4.1223 10.4738 3.81762 10.9955C3.76582 11.0842 3.69303 11.2399 3.59926 11.4626C3.27663 12.2297 2.95527 12.9972 2.63518 13.7651C2.5623 13.9399 2.51305 14.0904 2.49756 14.2595C2.45008 14.7738 2.82002 15.1814 3.30854 15.2469C3.40299 15.2595 3.4839 15.2667 3.55127 15.2686C3.89844 15.2785 4.26246 15.2789 4.64332 15.2699C5.47918 15.25 6.31783 15.2642 7.15395 15.2591C7.5216 15.2567 7.6026 15.0457 7.72752 14.7505C7.81893 14.534 7.90644 14.315 7.99006 14.0935C7.99102 14.0911 7.99137 14.0885 7.99109 14.0859C7.9908 14.0833 7.98989 14.0808 7.98844 14.0787C7.98699 14.0765 7.98503 14.0748 7.98274 14.0736C7.98046 14.0723 7.97791 14.0717 7.97533 14.0717H4.01617C4.01339 14.0717 4.01065 14.0711 4.00819 14.0697C4.00574 14.0684 4.00365 14.0664 4.00211 14.064C4.00058 14.0616 3.99964 14.0589 3.99939 14.056C3.99914 14.0532 3.99959 14.0503 4.00068 14.0476L5.05947 11.5258C5.06303 11.5172 5.06074 11.5107 5.05262 11.5064C4.89393 11.4225 4.68598 11.3567 4.54455 11.2493C4.53558 11.2424 4.53676 11.2391 4.54811 11.2394ZM16.582 11.2583C16.581 11.2578 16.5803 11.257 16.5798 11.256C16.5793 11.255 16.5792 11.2539 16.5794 11.2529C16.5797 11.2518 16.5802 11.2508 16.5811 11.2501C16.5819 11.2494 16.5829 11.249 16.584 11.249C18.1122 11.2492 19.6369 11.2491 21.1581 11.2487C21.5365 11.2487 21.6949 11.0095 21.8467 10.6637C21.9307 10.4726 22.0108 10.2804 22.0872 10.087C22.0884 10.0839 22.0889 10.0804 22.0885 10.077C22.0882 10.0736 22.087 10.0704 22.0851 10.0675C22.0832 10.0647 22.0807 10.0624 22.0778 10.0608C22.0748 10.0591 22.0715 10.0583 22.0681 10.0583C20.6226 10.0573 19.1777 10.0573 17.7335 10.0585C17.4992 10.0589 17.3303 10.0668 17.2267 10.0824C16.6041 10.1766 16.1092 10.5454 15.8332 11.1242C15.6944 11.4153 15.5719 11.7137 15.4656 12.0194C15.2878 12.5304 15.5707 13.0571 16.0683 13.2044C16.1476 13.2279 16.2592 13.2399 16.4032 13.2404C17.3561 13.2437 18.3166 13.2444 19.2848 13.2425C19.2905 13.2425 19.2961 13.2438 19.3011 13.2466C19.3062 13.2493 19.3104 13.2533 19.3136 13.2581C19.3167 13.2629 19.3186 13.2685 19.3191 13.2743C19.3196 13.2801 19.3186 13.2859 19.3163 13.2912L18.9966 14.0404C18.9873 14.0623 18.971 14.0732 18.9476 14.073C17.6253 14.0692 16.3034 14.0705 14.9819 14.0769C14.814 14.0779 14.6142 14.0971 14.5279 14.2703C14.3695 14.588 14.2244 14.9133 14.0927 15.2464C14.0895 15.2547 14.0923 15.2588 14.1011 15.2588C15.5653 15.264 17.0295 15.2643 18.4937 15.2598C18.687 15.2592 18.8372 15.2517 18.9443 15.2376C19.6086 15.15 20.1428 14.7321 20.4129 14.1062C20.6732 13.5025 21.0957 12.7759 20.4607 12.2587C20.258 12.0935 20.0468 12.0526 19.7881 12.0526C18.8241 12.0521 17.8593 12.0518 16.8938 12.0518C16.8824 12.0518 16.8788 12.0464 16.8829 12.0357L17.0799 11.5266C17.0831 11.5185 17.083 11.5095 17.0798 11.5014C17.0766 11.4933 17.0705 11.4868 17.0626 11.4831L16.582 11.2583Z" fill="#FFAB01"/>
<path id="Vector_5" d="M14.5082 9.68983C14.5457 9.70848 14.5927 10.0646 14.6059 10.1316C14.6076 10.1411 14.6041 10.1475 14.5953 10.1508C14.441 10.2078 14.2821 10.2459 14.1184 10.2653C14.1144 10.2657 14.1104 10.2654 14.1066 10.2642C14.1027 10.2631 14.0992 10.2612 14.096 10.2586C14.0929 10.256 14.0903 10.2528 14.0884 10.2492C14.0865 10.2456 14.0853 10.2416 14.0849 10.2375L14.0763 10.1448C14.0751 10.1326 14.0686 10.1255 14.0567 10.1236C14.0108 10.1163 13.9864 10.135 13.979 10.1826C13.9328 10.4823 13.7343 10.584 13.46 10.5667C13.4507 10.5662 13.4422 10.5631 13.4344 10.5574C13.3406 10.4876 13.2391 10.4328 13.13 10.3929C13.121 10.3896 13.113 10.3913 13.1061 10.3978L13.0033 10.4921C12.9946 10.4999 12.9933 10.5088 12.9992 10.5188C13.0401 10.5884 13.1 10.6496 13.053 10.7366C12.9588 10.9119 12.8758 11.0996 12.7707 11.2682C12.7351 11.3252 12.6998 11.3824 12.6645 11.4399C12.6598 11.4479 12.6529 11.4521 12.6437 11.4526L12.5569 11.4583C12.5529 11.4586 12.549 11.4596 12.5454 11.4614C12.5419 11.4632 12.5387 11.4657 12.5361 11.4688C12.5335 11.4719 12.5315 11.4754 12.5303 11.4793C12.5291 11.4831 12.5286 11.4872 12.529 11.4912L12.5592 11.8656C12.56 11.876 12.564 11.8848 12.5711 11.8921C12.6117 11.9342 12.6376 11.9654 12.6488 11.9855C12.816 12.2892 12.985 12.5918 13.1556 12.8932C13.3222 13.1871 13.4461 13.4681 13.3054 13.8089C13.1478 14.1913 12.9915 14.5741 12.8364 14.9572C12.8011 15.0445 12.7453 15.1505 12.6691 15.2752C12.6201 15.3554 12.549 15.4243 12.4868 15.5023C12.4809 15.5097 12.4802 15.5176 12.4848 15.5261C12.5376 15.6237 12.6171 15.7366 12.7298 15.7615C12.8415 15.7861 12.985 15.8104 13.0746 15.8791C13.0817 15.8844 13.0854 15.8916 13.0855 15.9006C13.0901 16.1859 12.6051 16.1634 12.4266 16.1569C12.1856 16.148 11.9353 16.1432 11.6758 16.1427C11.6562 16.1427 11.6472 16.1327 11.6489 16.1127C11.6591 15.9925 11.667 15.8698 11.6987 15.7499C11.7429 15.5826 11.7882 15.4155 11.8348 15.2488C11.9224 14.9346 11.9803 14.6252 12.046 14.31C12.0565 14.2596 12.0751 14.2116 12.1019 14.166C12.2089 13.9841 12.3117 13.7951 12.4104 13.5992C12.4124 13.5953 12.4135 13.591 12.4137 13.5866C12.4139 13.5822 12.4131 13.5779 12.4114 13.5738C12.4098 13.5698 12.4073 13.5661 12.4041 13.5632C12.401 13.5602 12.3972 13.558 12.3931 13.5567C12.2966 13.5254 12.2319 13.4725 12.1677 13.3845C11.9674 13.1088 11.7868 12.8437 11.6258 12.5892C11.614 12.5705 11.5998 12.5569 11.5834 12.5483C11.576 12.5441 11.5683 12.5437 11.5603 12.547C11.4476 12.5928 11.3676 12.8634 11.3244 12.9766C11.3011 13.0377 11.2615 13.0975 11.2391 13.1537C11.1602 13.3519 11.0728 13.5462 10.9768 13.7364C10.9339 13.8219 10.887 13.9749 10.8324 14.0399C10.4198 14.53 10.0089 15.0215 9.59939 15.5142C9.56029 15.5611 9.57324 15.6641 9.56892 15.7061C9.55547 15.8436 9.55115 15.9868 9.5156 16.1207C9.49656 16.1916 9.43105 16.2468 9.3592 16.2468C9.18383 16.2471 9.00855 16.2472 8.83336 16.2471C8.8232 16.2471 8.81508 16.2429 8.80898 16.2346L8.73357 16.1334C8.72883 16.1268 8.72689 16.1196 8.72773 16.1116C8.74906 15.9187 8.96031 15.797 8.95142 15.6092C8.94262 15.4281 8.97089 15.2696 9.03623 15.1338C9.19416 14.8049 9.3311 14.5066 9.44705 14.2388C9.54573 14.0113 9.67328 13.8068 9.82968 13.6256C9.89494 13.55 10.0488 13.4539 10.0704 13.342C10.141 12.9782 10.161 12.6107 10.1819 12.2417C10.1824 12.2327 10.1862 12.2256 10.1933 12.2204C10.2628 12.1681 10.3748 12.2116 10.404 12.1267C10.4378 12.0285 10.4581 11.9441 10.5201 11.8592C10.5248 11.8528 10.5276 11.8455 10.5284 11.8374C10.5405 11.7128 10.5916 11.612 10.6818 11.535C10.7172 11.5047 10.7422 11.4763 10.757 11.4495C10.7991 11.3726 10.9268 11.124 10.8344 11.0644C10.7685 11.0219 10.7033 10.9801 10.6386 10.9388C10.6358 10.9371 10.6338 10.9343 10.6329 10.931C10.632 10.9278 10.6323 10.9243 10.6338 10.9212C10.7189 10.7399 10.7689 10.5354 10.8352 10.3639C10.8771 10.2555 10.915 10.1455 10.9486 10.034C10.9705 9.96149 11.1302 9.97832 11.1866 9.98117C11.1965 9.98151 11.205 9.97797 11.212 9.97055C11.2279 9.95294 11.2379 9.93179 11.2422 9.9071C11.2435 9.89916 11.2464 9.89165 11.2508 9.88457C11.2885 9.82415 11.3327 9.72825 11.3833 9.59686C11.5047 9.283 11.7408 8.97483 12.043 8.80987C12.1415 8.75601 12.2288 8.74876 12.3373 8.75886C12.3475 8.75973 12.3576 8.75649 12.3654 8.74985C12.3733 8.74321 12.3782 8.73369 12.3792 8.72338L12.385 8.66304C12.386 8.65095 12.3811 8.64258 12.3703 8.63792L12.2784 8.59752C12.2663 8.59234 12.2619 8.58319 12.2649 8.57007L12.2811 8.50015C12.283 8.49186 12.2834 8.48358 12.2824 8.47529C12.239 8.14822 12.4051 7.82192 12.7415 7.77894C13.0878 7.73439 13.3608 7.84808 13.5603 8.11999C13.6906 8.29764 13.7284 8.47529 13.6764 8.6879C13.674 8.6974 13.6682 8.70326 13.6588 8.70551L13.5507 8.73192C13.5422 8.73399 13.5359 8.73892 13.5316 8.74668C13.4915 8.8223 13.671 8.80754 13.7348 8.8078C14.3836 8.81281 15.0325 8.81514 15.6815 8.81479C15.7325 8.81479 15.7884 8.79977 15.845 8.80262C15.8602 8.80331 15.8628 8.79787 15.8526 8.78631L15.8338 8.76507C15.8275 8.75799 15.8263 8.75014 15.83 8.74151C15.8471 8.70249 15.8751 8.67487 15.914 8.65864C15.9172 8.65734 15.9206 8.6568 15.924 8.65706C15.9274 8.65731 15.9307 8.65835 15.9336 8.6601C15.9366 8.66185 15.9391 8.66426 15.941 8.66715C15.9428 8.67004 15.9441 8.67332 15.9445 8.67676L15.9646 8.83421C15.9657 8.84291 15.9698 8.85091 15.9763 8.85672C15.9827 8.86252 15.991 8.86576 15.9996 8.86581L16.4391 8.86814C16.452 8.86831 16.4587 8.87487 16.4592 8.88782L16.4635 8.9839C16.4637 8.98881 16.463 8.99372 16.4613 8.99833C16.4597 9.00294 16.4571 9.00716 16.4538 9.01072C16.4505 9.01428 16.4465 9.01711 16.4421 9.01904C16.4377 9.02098 16.433 9.02197 16.4282 9.02196H15.9768C15.9663 9.02196 15.961 9.0274 15.961 9.03828V9.22085C15.961 9.23415 15.9559 9.24692 15.9467 9.25637C15.9375 9.26583 15.9251 9.27121 15.912 9.27135L14.6529 9.28248C14.6275 9.28265 14.613 9.2956 14.6095 9.32133C14.6024 9.37208 14.5946 9.42508 14.5861 9.48033C14.5744 9.55672 14.5374 9.60204 14.5016 9.66886C14.4967 9.67818 14.4989 9.68517 14.5082 9.68983Z" fill="#0B0301"/>
<path id="Vector_6" d="M4.54426 11.2492C4.68569 11.3567 4.89364 11.4225 5.05233 11.5064C5.06046 11.5107 5.06274 11.5172 5.05919 11.5258L4.0004 14.0476C3.9993 14.0503 3.99885 14.0532 3.9991 14.056C3.99935 14.0589 4.00029 14.0616 4.00183 14.064C4.00336 14.0664 4.00545 14.0684 4.00791 14.0697C4.01036 14.071 4.0131 14.0717 4.01588 14.0717H7.97504C7.97762 14.0717 7.98017 14.0723 7.98246 14.0735C7.98474 14.0748 7.9867 14.0765 7.98815 14.0787C7.98961 14.0808 7.99052 14.0833 7.9908 14.0859C7.99108 14.0884 7.99073 14.0911 7.98977 14.0935C7.90615 14.315 7.81864 14.5339 7.72723 14.7504C7.60231 15.0457 7.52131 15.2567 7.15366 15.259C6.31754 15.2642 5.47889 15.25 4.64303 15.2699C4.26217 15.2789 3.89816 15.2785 3.55098 15.2686C3.48361 15.2667 3.4027 15.2595 3.30825 15.2469C2.81973 15.1814 2.44979 14.7738 2.49727 14.2594C2.51276 14.0903 2.56202 13.9399 2.63489 13.7651C2.95498 12.9972 3.27634 12.2297 3.59897 11.4626C3.69275 11.2399 3.76553 11.0842 3.81733 10.9955C4.12202 10.4737 4.57363 10.1693 5.17217 10.0821C5.27966 10.0664 5.44868 10.0584 5.67922 10.0583C7.00512 10.0572 8.33085 10.0572 9.65641 10.0583C9.66589 10.0583 9.66894 10.0628 9.66555 10.0717C9.58109 10.2869 9.49307 10.5001 9.40149 10.7114C9.21969 11.1312 9.18008 11.2487 8.71797 11.2487C7.39546 11.2489 6.07303 11.247 4.75069 11.243C4.68315 11.2429 4.61553 11.2417 4.54782 11.2394C4.53648 11.2391 4.53529 11.2423 4.54426 11.2492Z" fill="#0B0301"/>
<path id="Vector_7" d="M16.5824 11.2584L17.063 11.4832C17.0708 11.4868 17.077 11.4934 17.0802 11.5015C17.0834 11.5096 17.0835 11.5186 17.0803 11.5267L16.8833 12.0358C16.8792 12.0465 16.8828 12.0518 16.8942 12.0518C17.8597 12.0518 18.8245 12.0521 19.7885 12.0526C20.0472 12.0526 20.2584 12.0935 20.4611 12.2588C21.0961 12.7759 20.6736 13.5026 20.4133 14.1062C20.1432 14.7321 19.6089 15.1501 18.9447 15.2376C18.8376 15.2518 18.6874 15.2592 18.494 15.2599C17.0299 15.2644 15.5657 15.264 14.1015 15.2589C14.0927 15.2589 14.0899 15.2547 14.0931 15.2464C14.2248 14.9134 14.3698 14.588 14.5283 14.2704C14.6146 14.0971 14.8144 14.078 14.9823 14.0769C16.3038 14.0706 17.6257 14.0693 18.948 14.0731C18.9714 14.0732 18.9877 14.0624 18.997 14.0404L19.3167 13.2912C19.319 13.2859 19.3199 13.2801 19.3195 13.2743C19.319 13.2686 19.3171 13.263 19.314 13.2582C19.3108 13.2533 19.3066 13.2493 19.3015 13.2466C19.2965 13.2439 19.2909 13.2425 19.2852 13.2426C18.317 13.2445 17.3565 13.2438 16.4036 13.2405C16.2596 13.24 16.148 13.228 16.0687 13.2045C15.5711 13.0571 15.2882 12.5304 15.466 12.0195C15.5723 11.7137 15.6948 11.4153 15.8336 11.1242C16.1096 10.5454 16.6045 10.1767 17.2271 10.0824C17.3306 10.0669 17.4996 10.0589 17.7339 10.0586C19.1781 10.0574 20.623 10.0573 22.0685 10.0583C22.0719 10.0583 22.0752 10.0592 22.0782 10.0608C22.0811 10.0624 22.0836 10.0647 22.0855 10.0676C22.0874 10.0704 22.0886 10.0737 22.0889 10.0771C22.0893 10.0805 22.0888 10.0839 22.0876 10.0871C22.0112 10.2804 21.9311 10.4727 21.8471 10.6638C21.6953 11.0095 21.5369 11.2488 21.1585 11.2488C19.6373 11.2491 18.1126 11.2492 16.5844 11.2491C16.5833 11.2491 16.5823 11.2495 16.5815 11.2502C16.5806 11.2509 16.5801 11.2518 16.5798 11.2529C16.5796 11.254 16.5797 11.2551 16.5802 11.2561C16.5806 11.2571 16.5814 11.2579 16.5824 11.2584Z" fill="#0B0301"/>
</g>
</g>
<defs>
<clipPath id="clip0_122_5094">
<rect x="-1" y="-1" width="26" height="26" rx="4" fill="white"/>
</clipPath>
</defs>
</svg>
