<svg width="121" height="30" viewBox="0 0 121 30" fill="none" xmlns="http://www.w3.org/2000/svg">
<g clip-path="url(#clip0_2978_29886)">
<path d="M59.1269 15.455V21.965H57.0269V5.86499H62.4869C63.8169 5.86499 65.0769 6.35499 66.0569 7.26499C67.0369 8.10499 67.5269 9.36499 67.5269 10.695C67.5269 12.025 67.0369 13.215 66.0569 14.125C65.0769 15.035 63.8869 15.525 62.4869 15.525L59.1269 15.455ZM59.1269 7.82499V13.425H62.6269C63.3969 13.425 64.1669 13.145 64.6569 12.585C65.7769 11.535 65.7769 9.78499 64.7269 8.73499L64.6569 8.66499C64.0969 8.10499 63.3969 7.75499 62.6269 7.82499H59.1269Z" fill="#5F6368"/>
<path d="M72.3569 10.625C73.8969 10.625 75.0869 11.045 75.9969 11.885C76.9069 12.725 77.3269 13.845 77.3269 15.245V21.965H75.3669V20.425H75.2969C74.4569 21.685 73.2669 22.315 71.8669 22.315C70.6769 22.315 69.6269 21.965 68.7869 21.265C68.0169 20.565 67.5269 19.585 67.5269 18.535C67.5269 17.415 67.9469 16.505 68.7869 15.805C69.6269 15.105 70.8169 14.825 72.2169 14.825C73.4769 14.825 74.4569 15.035 75.2269 15.525V15.035C75.2269 14.335 74.9469 13.635 74.3869 13.215C73.8269 12.725 73.1269 12.445 72.3569 12.445C71.1669 12.445 70.2569 12.935 69.6269 13.915L67.8069 12.795C68.9269 11.325 70.3969 10.625 72.3569 10.625ZM69.6969 18.605C69.6969 19.165 69.9769 19.655 70.3969 19.935C70.8869 20.285 71.4469 20.495 72.0069 20.495C72.8469 20.495 73.6869 20.145 74.3169 19.515C75.0169 18.885 75.3669 18.115 75.3669 17.275C74.7369 16.785 73.8269 16.505 72.6369 16.505C71.7969 16.505 71.0969 16.715 70.5369 17.135C69.9769 17.485 69.6969 17.975 69.6969 18.605Z" fill="#5F6368"/>
<path d="M88.6668 10.9751L81.7368 26.8651H79.6368L82.2268 21.3351L77.6768 11.0451H79.9168L83.2068 18.9551H83.2768L86.4968 11.0451H88.6668V10.9751Z" fill="#5F6368"/>
<path d="M50.7972 14.055C50.7972 13.425 50.7272 12.795 50.6572 12.165H41.9072V15.735H46.8772C46.6672 16.855 46.0372 17.905 45.0572 18.535V20.845H48.0672C49.8172 19.235 50.7972 16.855 50.7972 14.055Z" fill="#4285F4"/>
<path d="M41.907 23.085C44.427 23.085 46.527 22.245 48.067 20.845L45.057 18.535C44.217 19.095 43.167 19.445 41.907 19.445C39.527 19.445 37.427 17.835 36.727 15.595H33.647V17.975C35.257 21.125 38.407 23.085 41.907 23.085Z" fill="#34A853"/>
<path d="M36.7269 15.595C36.3069 14.475 36.3069 13.215 36.7269 12.025V9.64502H33.6469C32.3169 12.235 32.3169 15.315 33.6469 17.975L36.7269 15.595Z" fill="#FBBC04"/>
<path d="M41.9068 8.24509C43.2368 8.24509 44.4968 8.73509 45.4768 9.64509L48.1368 6.98509C46.4568 5.44509 44.2168 4.53508 41.9768 4.60508C38.4768 4.60508 35.2568 6.56509 33.7168 9.71509L36.7968 12.0951C37.4268 9.85509 39.5268 8.24509 41.9068 8.24509Z" fill="#EA4335"/>
</g>
<defs>
<clipPath id="clip0_2978_29886">
<rect width="56" height="26.67" fill="white" transform="translate(32.667 1.66504)"/>
</clipPath>
</defs>
</svg>
