<svg width="28" height="28" viewBox="0 0 28 28" fill="none" xmlns="http://www.w3.org/2000/svg">
<g id="sentiment_satisfied">
<mask id="mask0_2457_53536" style="mask-type:alpha" maskUnits="userSpaceOnUse" x="0" y="0" width="28" height="28">
<rect id="Bounding box" width="28" height="28" fill="#D9D9D9"/>
</mask>
<g mask="url(#mask0_2457_53536)">
<path id="sentiment_satisfied_2" d="M14.0002 20.4166C15.0307 20.4166 16.0078 20.193 16.9314 19.7458C17.855 19.2986 18.5988 18.6472 19.1627 17.7916C19.3766 17.4611 19.4057 17.1354 19.2502 16.8146C19.0946 16.4937 18.8418 16.3333 18.4918 16.3333C18.3363 16.3333 18.1953 16.3673 18.0689 16.4354C17.9425 16.5035 17.8404 16.6055 17.7627 16.7416C17.3154 17.3444 16.7613 17.816 16.1002 18.1562C15.4391 18.4965 14.7391 18.6666 14.0002 18.6666C13.2613 18.6666 12.5613 18.4965 11.9002 18.1562C11.2391 17.816 10.6849 17.3444 10.2377 16.7416C10.1404 16.6055 10.0286 16.5035 9.90225 16.4354C9.77586 16.3673 9.63488 16.3333 9.47933 16.3333C9.12933 16.3333 8.87655 16.4889 8.721 16.8C8.56544 17.1111 8.59461 17.4222 8.8085 17.7333C9.37238 18.6083 10.1161 19.2743 11.0397 19.7312C11.9634 20.1882 12.9502 20.4166 14.0002 20.4166ZM18.0835 12.8333C18.5696 12.8333 18.9828 12.6632 19.3231 12.3229C19.6634 11.9826 19.8335 11.5694 19.8335 11.0833C19.8335 10.5972 19.6634 10.184 19.3231 9.84373C18.9828 9.50345 18.5696 9.33331 18.0835 9.33331C17.5974 9.33331 17.1842 9.50345 16.8439 9.84373C16.5036 10.184 16.3335 10.5972 16.3335 11.0833C16.3335 11.5694 16.5036 11.9826 16.8439 12.3229C17.1842 12.6632 17.5974 12.8333 18.0835 12.8333ZM9.91683 12.8333C10.4029 12.8333 10.8161 12.6632 11.1564 12.3229C11.4967 11.9826 11.6668 11.5694 11.6668 11.0833C11.6668 10.5972 11.4967 10.184 11.1564 9.84373C10.8161 9.50345 10.4029 9.33331 9.91683 9.33331C9.43072 9.33331 9.01752 9.50345 8.67725 9.84373C8.33697 10.184 8.16683 10.5972 8.16683 11.0833C8.16683 11.5694 8.33697 11.9826 8.67725 12.3229C9.01752 12.6632 9.43072 12.8333 9.91683 12.8333ZM14.0002 25.6666C12.3863 25.6666 10.8696 25.3604 9.45016 24.7479C8.03072 24.1354 6.796 23.3041 5.746 22.2541C4.696 21.2041 3.86475 19.9694 3.25225 18.55C2.63975 17.1305 2.3335 15.6139 2.3335 14C2.3335 12.3861 2.63975 10.8694 3.25225 9.44998C3.86475 8.03053 4.696 6.79581 5.746 5.74581C6.796 4.69581 8.03072 3.86456 9.45016 3.25206C10.8696 2.63956 12.3863 2.33331 14.0002 2.33331C15.6141 2.33331 17.1307 2.63956 18.5502 3.25206C19.9696 3.86456 21.2043 4.69581 22.2543 5.74581C23.3043 6.79581 24.1356 8.03053 24.7481 9.44998C25.3606 10.8694 25.6668 12.3861 25.6668 14C25.6668 15.6139 25.3606 17.1305 24.7481 18.55C24.1356 19.9694 23.3043 21.2041 22.2543 22.2541C21.2043 23.3041 19.9696 24.1354 18.5502 24.7479C17.1307 25.3604 15.6141 25.6666 14.0002 25.6666ZM14.0002 23.3333C16.6057 23.3333 18.8127 22.4291 20.621 20.6208C22.4293 18.8125 23.3335 16.6055 23.3335 14C23.3335 11.3944 22.4293 9.18748 20.621 7.37915C18.8127 5.57081 16.6057 4.66665 14.0002 4.66665C11.3946 4.66665 9.18766 5.57081 7.37933 7.37915C5.571 9.18748 4.66683 11.3944 4.66683 14C4.66683 16.6055 5.571 18.8125 7.37933 20.6208C9.18766 22.4291 11.3946 23.3333 14.0002 23.3333Z" fill="white"/>
</g>
</g>
</svg>
