<svg width="16" height="16" viewBox="0 0 16 16" fill="none" xmlns="http://www.w3.org/2000/svg">
<g id="icon/info">
<mask id="mask0_41_610" style="mask-type:alpha" maskUnits="userSpaceOnUse" x="0" y="0" width="16" height="16">
<rect id="Bounding box" width="16" height="16" fill="#D9D9D9"/>
</mask>
<g mask="url(#mask0_41_610)">
<path id="info" d="M7.33398 11.3333H8.66732V7.33333H7.33398V11.3333ZM8.00065 6C8.18954 6 8.34787 5.93611 8.47565 5.80833C8.60343 5.68055 8.66732 5.52222 8.66732 5.33333C8.66732 5.14444 8.60343 4.98611 8.47565 4.85833C8.34787 4.73055 8.18954 4.66666 8.00065 4.66666C7.81176 4.66666 7.65343 4.73055 7.52565 4.85833C7.39787 4.98611 7.33398 5.14444 7.33398 5.33333C7.33398 5.52222 7.39787 5.68055 7.52565 5.80833C7.65343 5.93611 7.81176 6 8.00065 6ZM8.00065 14.6667C7.07843 14.6667 6.21176 14.4917 5.40065 14.1417C4.58954 13.7917 3.88398 13.3167 3.28398 12.7167C2.68398 12.1167 2.20898 11.4111 1.85898 10.6C1.50898 9.78888 1.33398 8.92222 1.33398 8C1.33398 7.07777 1.50898 6.21111 1.85898 5.39999C2.20898 4.58888 2.68398 3.88333 3.28398 3.28333C3.88398 2.68333 4.58954 2.20833 5.40065 1.85833C6.21176 1.50833 7.07843 1.33333 8.00065 1.33333C8.92287 1.33333 9.78954 1.50833 10.6007 1.85833C11.4118 2.20833 12.1173 2.68333 12.7173 3.28333C13.3173 3.88333 13.7923 4.58888 14.1423 5.39999C14.4923 6.21111 14.6673 7.07777 14.6673 8C14.6673 8.92222 14.4923 9.78888 14.1423 10.6C13.7923 11.4111 13.3173 12.1167 12.7173 12.7167C12.1173 13.3167 11.4118 13.7917 10.6007 14.1417C9.78954 14.4917 8.92287 14.6667 8.00065 14.6667Z" fill="#FFC700"/>
</g>
</g>
</svg>
