<svg width="24" height="24" viewBox="0 0 24 24" fill="none" xmlns="http://www.w3.org/2000/svg">
<g id="icon/info_600">
<mask id="mask0_41_5119" style="mask-type:alpha" maskUnits="userSpaceOnUse" x="0" y="0" width="24" height="24">
<rect id="Bounding box" width="24" height="24" fill="#D9D9D9"/>
</mask>
<g mask="url(#mask0_41_5119)">
<path id="info" d="M10.788 17.212H13.212V11H10.788V17.212ZM12 9.28264C12.3634 9.28264 12.668 9.15972 12.9139 8.91389C13.1597 8.66805 13.2826 8.36343 13.2826 8.00001C13.2826 7.6366 13.1597 7.33197 12.9139 7.08614C12.668 6.8403 12.3634 6.71739 12 6.71739C11.6366 6.71739 11.3319 6.8403 11.0861 7.08614C10.8403 7.33197 10.7174 7.6366 10.7174 8.00001C10.7174 8.36343 10.8403 8.66805 11.0861 8.91389C11.3319 9.15972 11.6366 9.28264 12 9.28264ZM12 22.4805C10.5413 22.4805 9.1754 22.2058 7.90233 21.6565C6.62925 21.1071 5.52185 20.3616 4.58013 19.4199C3.6384 18.4781 2.89286 17.3707 2.34353 16.0977C1.7942 14.8246 1.51953 13.4587 1.51953 12C1.51953 10.5413 1.7942 9.17543 2.34353 7.90236C2.89286 6.62928 3.6384 5.52188 4.58013 4.58016C5.52185 3.63843 6.62925 2.8929 7.90233 2.34356C9.1754 1.79423 10.5413 1.51956 12 1.51956C13.4587 1.51956 14.8246 1.79423 16.0976 2.34356C17.3707 2.8929 18.4781 3.63843 19.4198 4.58016C20.3616 5.52188 21.1071 6.62928 21.6564 7.90236C22.2058 9.17543 22.4804 10.5413 22.4804 12C22.4804 13.4587 22.2058 14.8246 21.6564 16.0977C21.1071 17.3707 20.3616 18.4781 19.4198 19.4199C18.4781 20.3616 17.3707 21.1071 16.0976 21.6565C14.8246 22.2058 13.4587 22.4805 12 22.4805ZM12 19.8304C14.1956 19.8304 16.0496 19.0743 17.5619 17.562C19.0742 16.0496 19.8304 14.1957 19.8304 12C19.8304 9.80436 19.0742 7.95038 17.5619 6.43806C16.0496 4.92575 14.1956 4.16959 12 4.16959C9.80433 4.16959 7.95035 4.92575 6.43803 6.43806C4.92571 7.95038 4.16956 9.80436 4.16956 12C4.16956 14.1957 4.92571 16.0496 6.43803 17.562C7.95035 19.0743 9.80433 19.8304 12 19.8304Z" fill="#101010"/>
</g>
</g>
</svg>
