<svg width="118" height="30" viewBox="0 0 118 30" fill="none" xmlns="http://www.w3.org/2000/svg">
<path d="M30.0117 3.76685H17.5068V26.2331H30.0117V3.76685Z" fill="#FF5A00"/>
<path d="M18.3393 15C18.3393 10.4355 20.4851 6.38434 23.7778 3.76682C21.3545 1.86149 18.2977 0.709961 14.9633 0.709961C7.06453 0.709961 0.67334 7.10115 0.67334 15C0.67334 22.8988 7.06453 29.29 14.9633 29.29C18.2977 29.29 21.3545 28.1384 23.7778 26.2331C20.4805 23.6526 18.3393 19.5644 18.3393 15Z" fill="#EB001B"/>
<path d="M46.8823 15C46.8823 22.8988 40.4911 29.29 32.5923 29.29C29.258 29.29 26.2011 28.1384 23.7778 26.2331C27.1122 23.611 29.2164 19.5644 29.2164 15C29.2164 10.4355 27.0705 6.38434 23.7778 3.76682C26.1965 1.86149 29.2534 0.709961 32.5877 0.709961C40.4911 0.709961 46.8823 7.14277 46.8823 15Z" fill="#F79E1B"/>
<g clip-path="url(#clip0_2978_29857)">
<path d="M96.6772 4.03394C92.3424 4.03394 88.4686 6.52513 88.4686 11.1278C88.4686 16.4062 95.3389 16.7708 95.3389 19.4225C95.3389 20.539 94.1849 21.5385 92.2139 21.5385C89.4166 21.5385 87.326 20.1419 87.326 20.1419L86.4314 24.7865C86.4314 24.7865 88.8398 25.9662 92.0374 25.9662C96.7767 25.9662 100.506 23.3527 100.506 18.6713C100.506 13.0937 93.607 12.74 93.607 10.2788C93.607 9.40411 94.5544 8.44578 96.5197 8.44578C98.7373 8.44578 100.546 9.46145 100.546 9.46145L101.422 4.97555C101.422 4.97555 99.4534 4.03394 96.6772 4.03394ZM57.018 4.37249L56.9131 5.04961C56.9131 5.04961 58.7367 5.41967 60.3792 6.15786C62.4941 7.00435 62.6447 7.49712 63.0009 9.02767L66.8821 25.617H72.0849L80.1003 4.37249H74.9094L69.7591 18.8168L67.6574 6.57312C67.4647 5.17185 66.4884 4.37249 65.2934 4.37249H57.018ZM82.1876 4.37249L78.1155 25.617H83.0654L87.1232 4.37249H82.1876ZM109.795 4.37249C108.601 4.37249 107.969 5.08104 107.505 6.31921L100.253 25.617H105.444L106.448 22.4007H112.772L113.383 25.617H117.963L113.967 4.37249H109.795ZM110.47 10.1121L112.009 18.0841H107.887L110.47 10.1121Z" fill="#1434CB"/>
</g>
<defs>
<clipPath id="clip0_2978_29857">
<rect width="61.1111" height="22" fill="white" transform="translate(56.8823 4)"/>
</clipPath>
</defs>
</svg>
