<svg width="21" height="21" viewBox="0 0 21 21" fill="none" xmlns="http://www.w3.org/2000/svg">
<path fill-rule="evenodd" clip-rule="evenodd" d="M9.89637 1.55404C10.0591 1.39892 10.2753 1.31238 10.5001 1.31238C10.7249 1.31238 10.9411 1.39892 11.1039 1.55404L18.1039 8.22067L20.2914 10.3032C20.4596 10.4633 20.5574 10.6837 20.5631 10.9159C20.5689 11.1481 20.4821 11.373 20.322 11.5413C20.1619 11.7095 19.9415 11.8073 19.7093 11.813C19.4771 11.8188 19.2521 11.732 19.0839 11.5719L18.3751 10.8955V17.5C18.3751 17.9642 18.1907 18.4093 17.8626 18.7375C17.5344 19.0657 17.0892 19.25 16.6251 19.25H4.37512C3.91099 19.25 3.46587 19.0657 3.13768 18.7375C2.8095 18.4093 2.62512 17.9642 2.62512 17.5V10.8955L1.91637 11.571C1.74836 11.7312 1.52361 11.818 1.29158 11.8124C1.05956 11.8068 0.839245 11.7093 0.679121 11.5413C0.518997 11.3733 0.432174 11.1485 0.437753 10.9165C0.443332 10.6845 0.540856 10.4642 0.708871 10.304L2.89637 8.22067L9.89637 1.55317V1.55404ZM4.37512 9.22955V17.5H7.87512V13.125C7.87512 12.4289 8.15168 11.7612 8.64396 11.2689C9.13625 10.7766 9.80393 10.5 10.5001 10.5C11.1963 10.5 11.864 10.7766 12.3563 11.2689C12.8486 11.7612 13.1251 12.4289 13.1251 13.125V17.5H16.6251V9.22955L10.5001 3.39505L4.37512 9.22867V9.22955ZM11.3751 17.5V13.125C11.3751 12.893 11.2829 12.6704 11.1188 12.5063C10.9547 12.3422 10.7322 12.25 10.5001 12.25C10.2681 12.25 10.0455 12.3422 9.8814 12.5063C9.71731 12.6704 9.62512 12.893 9.62512 13.125V17.5H11.3751Z" fill="#AE2419"/>
</svg>
