<svg width="71" height="72" viewBox="0 0 71 72" fill="none" xmlns="http://www.w3.org/2000/svg">
<circle cx="35.5" cy="36" r="35.5" fill="white"/>
<g clip-path="url(#clip0_2204_5127)">
<path d="M35.5004 11.0029C35.007 11.0029 34.6055 11.4038 34.6055 11.8985V20.8566C34.6055 21.3514 35.007 21.7529 35.5004 21.7529C35.9964 21.7529 36.398 21.3514 36.398 20.8566V11.8985C36.398 11.4038 35.9965 11.0029 35.5004 11.0029Z" fill="black"/>
<path d="M30.4536 21.9689L25.9762 14.2109C25.7268 13.7824 25.1809 13.6354 24.7505 13.8828C24.3227 14.1302 24.1757 14.6781 24.4224 15.1065L28.9025 22.8646C29.1493 23.293 29.6978 23.44 30.1256 23.1926C30.556 22.9453 30.703 22.3974 30.4536 21.9689Z" fill="black"/>
<path d="M25.8625 25.9042L18.1045 21.4248C17.6767 21.1775 17.1282 21.3244 16.8814 21.7528C16.6347 22.1812 16.7817 22.7291 17.2095 22.9765L24.9675 27.4559C25.3953 27.7032 25.9438 27.5562 26.1906 27.1278C26.4373 26.6994 26.2904 26.1515 25.8625 25.9042Z" fill="black"/>
<path d="M23.8551 31.6064H14.8976C14.4015 31.6064 14 32.0081 14 32.5027C14 32.9974 14.4015 33.3983 14.8976 33.3983H23.8551C24.3511 33.3983 24.75 32.9975 24.75 32.5027C24.75 32.008 24.3511 31.6064 23.8551 31.6064Z" fill="black"/>
<path d="M56.1051 31.6064H47.1476C46.6515 31.6064 46.25 32.0081 46.25 32.5027C46.25 32.9975 46.6515 33.3983 47.1476 33.3983H56.1051C56.5985 33.3983 57 32.9975 57 32.5027C57 32.008 56.5985 31.6064 56.1051 31.6064Z" fill="black"/>
<path d="M54.1211 21.7529C53.8744 21.3245 53.3259 21.1774 52.8981 21.4248L45.1374 25.9042C44.7096 26.1515 44.5626 26.6995 44.812 27.1279C45.0587 27.5564 45.6072 27.7027 46.035 27.4552L53.7931 22.9765C54.2209 22.7292 54.3679 22.1813 54.1211 21.7529Z" fill="black"/>
<path d="M46.2506 13.8828C45.8228 13.6355 45.2743 13.7824 45.0275 14.2108L40.5474 21.9689C40.3007 22.3973 40.4477 22.9451 40.8755 23.1925C41.3059 23.4399 41.8518 23.2929 42.1012 22.8645L46.5786 15.1064C46.828 14.678 46.681 14.1301 46.2506 13.8828Z" fill="black"/>
<path d="M44.2662 34.3609C44.3922 33.7612 44.4604 33.1398 44.4604 32.5027C44.4604 27.5549 40.4476 23.5439 35.5003 23.5439C30.5531 23.5439 26.5429 27.5549 26.5429 32.5027C26.5429 33.1398 26.6112 33.7612 26.7371 34.3609C19.231 37.7151 14.0029 45.2461 14.0029 53.9975H57.0003C57.0003 45.2448 51.7723 37.7151 44.2662 34.3609ZM30.4325 27.4348C31.7867 26.0812 33.5872 25.3358 35.5004 25.3358C37.4163 25.3358 39.2141 26.0812 40.5684 27.4348C41.9226 28.7884 42.668 30.5881 42.668 32.5027C42.668 32.9036 42.6339 33.2992 42.5709 33.6877C40.3558 32.9174 37.9779 32.4981 35.5004 32.4981C33.0255 32.4981 30.6477 32.9174 28.4326 33.6877C28.3695 33.2999 28.3355 32.9037 28.3355 32.5027C28.3355 30.5881 29.0808 28.7884 30.4325 27.4348ZM23.0129 52.2063H15.8743C16.0553 50.1775 16.5461 48.2078 17.3413 46.3274C18.3334 43.981 19.7559 41.8723 21.5668 40.0627C23.3751 38.2517 25.4852 36.8306 27.8315 35.8385C28.5795 35.521 29.3433 35.2532 30.1175 35.0328C29.5007 35.6416 28.8289 36.3791 28.1518 37.2531C26.7555 39.0614 25.6191 41.0902 24.7766 43.2882C23.7294 46.023 23.1363 49.024 23.0129 52.2063ZM33.6474 52.2062H24.808C24.9261 49.2681 25.472 46.5018 26.4273 43.9849C27.199 41.9588 28.2383 40.0848 29.5164 38.4196C31.1594 36.2755 32.9126 34.8885 33.7341 34.3688C34.3167 34.3176 34.9072 34.29 35.5003 34.29C37.0724 34.29 38.6156 34.4738 40.1169 34.8333C39.3164 35.5734 38.3007 36.66 37.3086 38.1336C36.1039 39.9262 35.1775 41.9287 34.5581 44.0847C33.8363 46.599 33.5293 49.3285 33.6474 52.2062ZM36.2641 44.6412C36.8231 42.6715 37.6577 40.8448 38.7442 39.2111C39.9699 37.3686 41.332 36.0826 42.1561 35.4423C42.4973 35.5656 42.8359 35.6968 43.1718 35.8386C45.0352 36.6259 46.7464 37.6836 48.2764 38.9919C46.9117 40.5968 44.2609 44.7015 44.5129 52.1998L46.3054 52.1395C46.1479 47.477 47.2188 44.3053 48.1426 42.4655C48.6623 41.4327 49.1977 40.6939 49.5913 40.2189C51.3288 41.9943 52.6987 44.048 53.6619 46.3274C54.4572 48.2079 54.948 50.1776 55.1291 52.2063H35.4399C35.3245 49.5175 35.6 46.9743 36.2641 44.6412Z" fill="black"/>
</g>
<defs>
<clipPath id="clip0_2204_5127">
<rect width="43" height="43" fill="white" transform="translate(14 11)"/>
</clipPath>
</defs>
</svg>
