<svg width="71" height="72" viewBox="0 0 71 72" fill="none" xmlns="http://www.w3.org/2000/svg">
<circle cx="35.5" cy="36" r="35.5" fill="white"/>
<g clip-path="url(#clip0_2204_5813)">
<path d="M45.9504 36.75C42.2754 36.75 39.2754 33.15 39.2754 28.725V19.875C39.2754 19.05 39.9504 18.375 40.7754 18.375C41.6004 18.375 42.2754 19.05 42.2754 19.875V28.8C42.2754 31.575 44.0004 33.9 46.0254 33.9C48.0504 33.9 49.7754 31.575 49.7754 28.8V19.875C49.7754 19.05 50.4504 18.375 51.2754 18.375C52.1004 18.375 52.7754 19.05 52.7754 19.875V28.8C52.6254 33.15 49.6254 36.75 45.9504 36.75Z" fill="black"/>
<path d="M45.9502 53.6251C45.1252 53.6251 44.4502 52.9501 44.4502 52.1251V35.8501C44.4502 35.0251 45.1252 34.3501 45.9502 34.3501C46.7752 34.3501 47.4502 35.0251 47.4502 35.8501V52.2001C47.4502 52.9501 46.7752 53.6251 45.9502 53.6251Z" fill="black"/>
<path d="M45.9502 36.75C45.1252 36.75 44.4502 36.075 44.4502 35.25V19.875C44.4502 19.05 45.1252 18.375 45.9502 18.375C46.7752 18.375 47.4502 19.05 47.4502 19.875V35.25C47.4502 36.075 46.7752 36.75 45.9502 36.75Z" fill="black"/>
<path d="M27.725 37.575C22.025 37.575 17.375 32.175 17.375 25.575C17.375 23.25 17.975 21.075 19.025 19.125C19.25 18.675 19.775 18.375 20.3 18.375H35.225C35.75 18.375 36.275 18.675 36.5 19.125C37.55 21.075 38.15 23.325 38.15 25.575C38.15 32.25 33.5 37.575 27.725 37.575ZM21.2 21.3C20.6 22.65 20.3 24.075 20.3 25.575C20.3 30.6 23.675 34.65 27.725 34.65C31.775 34.65 35.15 30.6 35.15 25.575C35.15 24.075 34.85 22.575 34.25 21.3H21.2Z" fill="black"/>
<path d="M27.7246 53.6249C26.8996 53.6249 26.2246 52.9499 26.2246 52.1249V36.1499C26.2246 35.3249 26.8996 34.6499 27.7246 34.6499C28.5496 34.6499 29.2246 35.3249 29.2246 36.1499V52.1999C29.2246 52.9499 28.5496 53.6249 27.7246 53.6249Z" fill="black"/>
<path d="M32.3002 53.625H22.7002C21.8752 53.625 21.2002 52.95 21.2002 52.125C21.2002 51.3 21.8752 50.625 22.7002 50.625H32.2252C33.0502 50.625 33.7252 51.3 33.7252 52.125C33.7252 52.95 33.0502 53.625 32.3002 53.625Z" fill="black"/>
</g>
<defs>
<clipPath id="clip0_2204_5813">
<rect width="36" height="36" fill="white" transform="translate(17 18)"/>
</clipPath>
</defs>
</svg>
