<svg width="71" height="72" viewBox="0 0 71 72" fill="none" xmlns="http://www.w3.org/2000/svg">
<circle cx="35.5" cy="36" r="35.5" fill="white"/>
<g clip-path="url(#clip0_2204_5433)">
<path d="M60 35.9292C60 33.8148 58.2799 32.0946 56.1655 32.0946H19.8185V21.4012C19.8185 20.33 20.69 19.4585 21.7612 19.4585C22.8325 19.4585 23.7039 20.33 23.7039 21.4012C23.7039 21.9903 24.1815 22.4679 24.7706 22.4679C25.3597 22.4679 25.8373 21.9903 25.8373 21.4012C25.8373 19.1538 24.0087 17.3252 21.7612 17.3252C19.5138 17.3252 17.6852 19.1538 17.6852 21.4012V32.0947H15.8345C13.7201 32.0946 12 33.8148 12 35.9292C12 37.6737 13.1715 39.1489 14.7692 39.6117C14.779 42.7873 14.8911 45.9795 16.1722 48.341C17.1767 50.1925 18.7782 51.407 21.0923 52.0388L19.9898 54.1058C19.7126 54.6256 19.9093 55.2717 20.4291 55.549C20.589 55.6344 20.7607 55.6746 20.9301 55.6746C21.3114 55.6746 21.6803 55.4697 21.8723 55.1097L23.2945 52.4431C24.0181 52.5215 24.7928 52.5612 25.623 52.5612H46.3771C47.2075 52.5612 47.982 52.5214 48.7057 52.4431L50.1278 55.1097C50.3199 55.4697 50.6888 55.6746 51.07 55.6746C51.2393 55.6746 51.4112 55.6342 51.571 55.549C52.0908 55.2719 52.2875 54.6258 52.0104 54.1058L50.908 52.0388C53.2219 51.407 54.8235 50.1927 55.828 48.341C57.109 45.9795 57.2212 42.7873 57.2309 39.6117C58.8283 39.1489 60 37.6738 60 35.9292ZM46.3771 50.428H25.6229C17.6826 50.428 16.9554 46.7762 16.9045 39.7636H55.0953C55.0444 46.7762 54.3174 50.428 46.3771 50.428ZM56.1655 37.6301H15.8345C14.8965 37.6301 14.1333 36.8671 14.1333 35.9292C14.1333 34.9912 14.8965 34.2279 15.8345 34.2279H56.1655C57.1035 34.2279 57.8667 34.9912 57.8667 35.9292C57.8667 36.8673 57.1035 37.6301 56.1655 37.6301Z" fill="black"/>
<path d="M31.9999 30C28.4999 26.5 29.9999 25 31.9999 24C33.9999 23 33 20.5 31.5 19.5" stroke="black" stroke-linecap="round"/>
<path d="M39.0995 30C35.5995 26.5 37.0995 25 39.0995 24C41.0995 23 40.0996 20.5 38.5996 19.5" stroke="black" stroke-linecap="round"/>
<path d="M47.0995 30C43.5995 26.5 45.0995 25 47.0995 24C49.0995 23 48.0996 20.5 46.5996 19.5" stroke="black" stroke-linecap="round"/>
</g>
<defs>
<clipPath id="clip0_2204_5433">
<rect width="48" height="48" fill="white" transform="translate(12 12.5)"/>
</clipPath>
</defs>
</svg>
