<svg width="71" height="72" viewBox="0 0 71 72" fill="none" xmlns="http://www.w3.org/2000/svg">
<circle cx="35.5" cy="36" r="35.5" fill="white"/>
<g clip-path="url(#clip0_2204_5195)">
<path d="M44.421 34.6844C44.2093 34.0263 44.1234 33.4337 44.1658 32.9232C44.2035 32.4713 43.8677 32.0746 43.4159 32.037C42.9631 31.9995 42.5674 32.3353 42.5298 32.7869C42.4692 33.5145 42.5798 34.3221 42.8582 35.1873C42.9702 35.5353 43.2925 35.7569 43.6394 35.7569C43.7227 35.7569 43.8075 35.7441 43.8911 35.7171C44.3227 35.5784 44.5598 35.116 44.421 34.6844Z" fill="black"/>
<path d="M34.1275 27.3948C33.8209 25.6724 32.7673 24.1718 31.0803 23.0556C29.8449 22.2381 28.6944 21.9088 28.646 21.8952C28.2093 21.7723 27.7563 22.0266 27.6335 22.4629C27.5105 22.8992 27.7648 23.3526 28.2012 23.4754C28.2386 23.486 31.9567 24.5668 32.5111 27.6825C32.5818 28.0802 32.928 28.3597 33.3183 28.3597C33.366 28.3597 33.4145 28.3554 33.4631 28.3468C33.9094 28.2672 34.207 27.841 34.1275 27.3948Z" fill="black"/>
<path d="M57.1955 26.1268C56.3119 23.2135 54.1866 20.6427 50.8435 18.4954C46.6833 15.8234 39.3898 16.5441 34.5634 17.0211C34.054 17.0715 33.5736 17.119 33.1294 17.159C29.2752 17.5074 26.8565 19.1793 26.0097 19.867C24.9024 19.6743 21.7844 19.2426 19.2609 19.9574C16.8235 20.6478 16.0168 23.0218 15.8821 24.5818C15.2427 24.9889 14.4516 26.0287 13.8551 28.5628C13.8209 28.708 13.7829 28.8676 13.7417 29.0406C13.3677 30.6107 12.7835 33.0649 12.3894 35.7769C11.2853 36.4044 10.4508 36.856 10.4309 36.8667C10.113 37.0383 9.94475 37.3976 10.0163 37.7516C10.0879 38.1057 10.3825 38.3713 10.742 38.406C11.1383 38.4443 11.5305 38.4613 11.9157 38.4613C11.971 38.4613 12.026 38.4603 12.081 38.4595C11.7083 43.0204 12.1745 47.7305 15.1864 49.9272C16.7561 51.0719 18.0453 51.4405 19.0545 51.4405C20.2683 51.4405 21.0771 50.9074 21.4817 50.5512C22.7564 49.4288 23.1732 47.3889 22.4108 46.004C22.2225 45.662 21.8192 45.4997 21.4465 45.6164L19.8071 46.1295C19.4498 46.2413 19.2134 46.581 19.2325 46.955C19.2422 47.143 19.186 47.5018 19.0794 47.614C19.0743 47.6193 19.0664 47.6276 19.0289 47.6304C18.9421 47.6095 18.4638 47.4657 18.0091 46.7749C16.5455 44.5515 17.3328 40.0471 18.0304 37.2622C19.2597 36.9484 22.2143 36.0316 23.3781 34.2396L24.3234 34.134C24.7641 35.0564 25.2025 35.4268 25.5585 35.6249C25.9326 35.833 26.3804 35.9367 26.8813 35.9367C27.2973 35.9367 27.7506 35.8635 28.2282 35.7209L29.5313 47.1434C27.1434 48.9601 27.5823 50.5715 27.6434 50.7579C27.754 51.0949 28.0686 51.3227 28.4232 51.3227H34.9877C35.441 51.3227 35.8086 50.9552 35.8086 50.5018V42.6722C36.1691 41.8807 36.5285 40.9404 36.8642 39.9783C38.7764 40.5195 40.4668 40.7008 41.8717 40.7008C43.6906 40.7008 45.0306 40.3979 45.7562 40.1815C46.226 40.7714 46.6324 41.2287 46.8736 41.4915V47.3822C45.6703 48.5929 45.0319 50.1197 45.0035 50.1886C44.8991 50.4418 44.9277 50.7306 45.0801 50.9582C45.2325 51.1859 45.4883 51.3226 45.7623 51.3226H53.0081C53.2615 51.3226 53.5006 51.2056 53.656 51.0056C53.8116 50.8056 53.866 50.545 53.8037 50.2994C53.788 50.2377 52.2772 44.0265 56.0711 35.8691C56.8799 34.1299 57.3792 32.4548 57.5731 30.8531C58.0278 32.707 58.3923 35.4315 58.356 39.3767C58.3518 39.83 58.7159 40.2009 59.1692 40.2051C59.1718 40.2051 59.1743 40.2051 59.177 40.2051C59.6267 40.2051 59.9936 39.8425 59.9976 39.3919C60.0845 29.9899 57.9428 26.9125 57.1955 26.1268ZM19.0017 49.273C19.503 49.273 19.9415 49.0903 20.2698 48.7447C20.6158 48.3806 20.7665 47.9115 20.8304 47.5296L21.1477 47.4302C21.1959 48.0575 20.9618 48.8214 20.3967 49.319C19.4587 50.1449 17.9121 49.883 16.1538 48.6007C14.2459 47.2093 13.4075 44.1479 13.6619 39.5019C13.6831 39.1144 13.7116 38.7266 13.7459 38.34C14.6985 38.2174 15.5457 38.0197 16.2082 37.8314C14.8825 43.7407 15.7871 46.5936 16.8363 47.956C17.6367 48.9956 18.574 49.273 19.0017 49.273ZM17.8346 35.2771C17.8107 35.4084 17.5999 35.616 17.0804 35.8048C17.0802 35.8049 17.0799 35.805 17.0797 35.8051C17.0795 35.8052 17.0794 35.8052 17.0791 35.8053C17.0662 35.81 17.0525 35.8154 17.0399 35.8206C17.0216 35.8285 15.8709 36.3058 14.2568 36.5975C15.3811 35.9419 16.6044 35.1989 17.5278 34.5598C17.7219 34.8173 17.8677 35.0964 17.8346 35.2771ZM54.5826 35.177C51.4196 41.9777 51.7148 47.4823 52.0248 49.681H47.1362C47.4171 49.2439 47.7896 48.7522 48.2434 48.3443C48.4167 48.1887 48.5156 47.9667 48.5156 47.7338V41.1668C48.5156 40.9532 48.4322 40.7479 48.2835 40.5947C48.266 40.5766 46.513 38.7607 45.2945 36.6121C45.0707 36.2176 44.5696 36.0792 44.1754 36.303C43.7811 36.5266 43.6426 37.0277 43.8663 37.422C44.1303 37.8874 44.4146 38.3354 44.7011 38.7551C43.3533 39.0554 40.7549 39.3536 37.3848 38.4176C38.0851 36.2266 38.5929 34.2834 38.6281 34.1478C38.7422 33.709 38.4791 33.2608 38.0402 33.1468C37.6014 33.0325 37.1534 33.296 37.0392 33.7347C37.0249 33.7897 35.5943 39.2629 34.2446 42.1438C34.1935 42.2528 34.1672 42.3719 34.1672 42.4921V49.6812H29.3821C29.5758 49.3134 29.9887 48.8021 30.8631 48.2077C31.1154 48.0362 31.2518 47.739 31.2172 47.4357L29.8026 35.0371C31.5464 34.0501 33.3311 32.2898 33.9794 30.093C34.1077 29.6581 33.8592 29.2017 33.4244 29.0733C32.9894 28.9449 32.5332 29.1934 32.4047 29.6283C31.7945 31.6964 29.8119 33.3352 28.2281 33.9826C27.274 34.3726 26.6357 34.3457 26.3566 34.1904C26.2032 34.105 25.4051 33.475 24.7531 29.4405C24.389 27.187 24.2665 25.0331 24.2652 25.0117C24.2402 24.5591 23.8538 24.2135 23.4002 24.2376C22.9477 24.2627 22.601 24.65 22.6261 25.1025C22.6312 25.1933 22.7535 27.3528 23.1304 29.6898C23.3191 30.8603 23.5267 31.7952 23.7425 32.5473L22.7747 32.6555C22.4859 32.6878 22.2357 32.8703 22.1169 33.1354C21.7729 33.9027 20.6566 34.5728 19.4724 35.0605C19.372 33.9052 18.3003 32.9626 18.1621 32.8456C17.8678 32.5965 17.4399 32.5857 17.1336 32.8195C16.4304 33.3563 15.3312 34.0492 14.2249 34.7096C14.5898 32.5663 15.0396 30.6768 15.3387 29.4211C15.3802 29.2465 15.4186 29.0855 15.4531 28.939C16.0198 26.5316 16.6513 26.0471 16.7693 25.9757C16.9452 25.9567 17.1119 25.8806 17.2432 25.758C17.4136 25.5988 17.5082 25.3733 17.5035 25.1401C17.5034 25.1322 17.4909 24.3368 17.7886 23.4828C18.1486 22.4504 18.7944 21.7958 19.7083 21.537C22.3716 20.7824 26.0404 21.5424 26.0767 21.55C26.3433 21.6064 26.6225 21.5251 26.8188 21.3363C26.8413 21.3147 29.1129 19.1705 33.277 18.794C33.7255 18.7534 34.2104 18.7055 34.7246 18.6547C39.3244 18.2 46.2762 17.5132 49.956 19.8767C55.9557 23.7301 57.5121 28.8779 54.5826 35.177Z" fill="black"/>
<path d="M18.6398 28.0654C18.1142 28.0654 17.6865 28.4923 17.6865 29.017C17.6865 29.5417 18.1142 29.9686 18.6398 29.9686C19.1655 29.9686 19.5932 29.5417 19.5932 29.017C19.5932 28.4924 19.1655 28.0654 18.6398 28.0654Z" fill="black"/>
</g>
<defs>
<clipPath id="clip0_2204_5195">
<rect width="50" height="50" fill="white" transform="translate(10 9)"/>
</clipPath>
</defs>
</svg>
