<svg width="71" height="71" viewBox="0 0 71 71" fill="none" xmlns="http://www.w3.org/2000/svg">
<circle cx="35.5" cy="35.5" r="35.5" fill="white"/>
<g clip-path="url(#clip0_2204_5707)">
<path d="M57.5481 33.1567C57.3767 33.0293 57.1549 32.9903 56.9499 33.0513L44.2873 36.8423V33.6972C44.2875 33.3241 43.9845 33.0216 43.611 33.0213C43.5451 33.0213 43.4792 33.0311 43.416 33.0501L38.9623 34.3841L38.1981 22.1717C38.176 21.8151 37.8795 21.5373 37.5216 21.5378H33.4623C33.1041 21.5373 32.8079 21.8151 32.7856 22.1717L31.8893 36.5025L30.7557 36.8403V33.6972C30.7559 33.3241 30.4532 33.0216 30.0797 33.0216C30.0065 33.0216 29.9346 33.0331 29.8657 33.0561L27.5944 33.8121L26.6964 19.4696C26.6746 19.113 26.3778 18.8352 26.0199 18.8359H21.9606C21.6025 18.8352 21.3062 19.113 21.2839 19.4696L20.2312 36.2642L17.6868 37.1101C17.4106 37.2019 17.2246 37.4599 17.2246 37.7502V51.2606C17.2246 51.6335 17.5276 51.936 17.9013 51.936H57.1424C57.5158 51.936 57.8188 51.6335 57.8188 51.2606V33.6972C57.8188 33.4845 57.7186 33.2843 57.5481 33.1567ZM22.5957 20.1868H25.3846L26.2643 34.2538L21.616 35.8L22.5957 20.1868ZM33.2706 36.0893L34.0974 22.8889H36.8862L37.6306 34.7828L33.4961 36.0217L33.2706 36.0893ZM56.4657 50.585H18.5778V38.2367L29.4025 34.6341V37.7502C29.4025 38.1235 29.7053 38.4258 30.079 38.4263C30.1451 38.4263 30.2108 38.4166 30.2742 38.3976L42.9341 34.6059V37.7502C42.9341 38.1235 43.2371 38.4258 43.6105 38.4258C43.6762 38.4258 43.7419 38.4163 43.8048 38.3976L56.4657 34.6051V50.585Z" fill="black"/>
<path d="M38.5168 19.1738C37.7915 19.1313 37.0822 19.3978 36.5651 19.9073C36.2962 20.1666 36.2887 20.5942 36.5483 20.8625C36.8082 21.131 37.2363 21.1383 37.5053 20.8793C37.5108 20.8735 37.5163 20.8683 37.5218 20.8625C37.7975 20.5992 38.178 20.4751 38.5564 20.5247C39.949 20.6158 41.1518 19.5622 41.2427 18.1719C41.25 18.062 41.25 17.9519 41.2427 17.842C41.1931 17.4647 41.3174 17.0848 41.5811 16.8093C41.85 16.5503 41.8575 16.1226 41.5979 15.8543C41.338 15.5858 40.9099 15.5783 40.641 15.8376C40.6354 15.8431 40.6299 15.8486 40.6244 15.8543C40.1144 16.3706 39.8472 17.0788 39.8898 17.803C39.9913 18.4586 39.5417 19.0725 38.885 19.1738C38.7632 19.1926 38.6391 19.1926 38.5168 19.1738Z" fill="black"/>
<path d="M35.0136 19.0339C35.1928 19.0339 35.3647 18.9626 35.4916 18.836C35.7673 18.5725 36.148 18.4483 36.5262 18.4981C37.9187 18.589 39.1218 17.5359 39.213 16.1453C39.2203 16.0357 39.2203 15.9256 39.213 15.8158C39.1631 15.4381 39.2874 15.058 39.5514 14.7828C39.8198 14.5235 39.8273 14.0958 39.5677 13.8276C39.3082 13.5596 38.8799 13.5521 38.6112 13.8111C38.6055 13.8166 38.5999 13.8218 38.5944 13.8276C38.0841 14.3441 37.8172 15.0523 37.8598 15.7767C37.9613 16.4319 37.5114 17.0457 36.8548 17.1471C36.733 17.1661 36.6089 17.1661 36.4871 17.1471C35.7617 17.1048 35.0524 17.3713 34.5351 17.8808C34.2707 18.1445 34.271 18.5725 34.5351 18.8362C34.662 18.9626 34.8341 19.0339 35.0136 19.0339Z" fill="black"/>
<path d="M27.0151 16.4715C26.2896 16.4289 25.5803 16.6954 25.0629 17.2049C24.794 17.4644 24.787 17.8919 25.0464 18.1604C25.3061 18.4286 25.7344 18.4359 26.0031 18.1769C26.0088 18.1716 26.0141 18.1659 26.0196 18.1604C26.2953 17.8969 26.6758 17.7727 27.0542 17.8225C28.4468 17.9136 29.6496 16.8601 29.7406 15.4695C29.7478 15.3599 29.7478 15.2498 29.7406 15.1402C29.6909 14.7623 29.8152 14.3827 30.0789 14.1069C30.3478 13.8479 30.3554 13.4205 30.0957 13.152C29.8363 12.8837 29.4077 12.8762 29.139 13.1355C29.1335 13.1407 29.1278 13.1465 29.1222 13.152C28.6122 13.6685 28.3453 14.3767 28.3876 15.1009C28.4891 15.7565 28.0395 16.3701 27.3828 16.4715C27.261 16.4902 27.137 16.4902 27.0151 16.4715Z" fill="black"/>
<path d="M23.5115 16.3317C23.691 16.3315 23.8629 16.2604 23.99 16.1338C24.2657 15.8705 24.6461 15.7462 25.0244 15.796C26.4169 15.8871 27.6199 14.8338 27.7112 13.4432C27.7182 13.3336 27.7182 13.2232 27.7112 13.1136C27.6613 12.7357 27.7859 12.3561 28.0493 12.0808C28.3089 11.8123 28.3014 11.3849 28.0327 11.1254C27.7703 10.8729 27.355 10.8729 27.0929 11.1254C26.5823 11.6419 26.3154 12.3501 26.3577 13.0743C26.4076 13.4522 26.2833 13.8318 26.0196 14.1071C25.7437 14.3706 25.3635 14.4947 24.985 14.4449C24.2597 14.4024 23.5504 14.6694 23.0331 15.1789C22.7689 15.4426 22.7689 15.87 23.0333 16.1341C23.1604 16.2604 23.3323 16.3317 23.5115 16.3317Z" fill="black"/>
</g>
<defs>
<clipPath id="clip0_2204_5707">
<rect width="41" height="41" fill="white" transform="translate(17 11)"/>
</clipPath>
</defs>
</svg>
