<svg width="71" height="72" viewBox="0 0 71 72" fill="none" xmlns="http://www.w3.org/2000/svg">
<circle cx="35.5" cy="36" r="35.5" fill="white"/>
<path d="M32.25 16.25C32.6642 16.25 33 15.9142 33 15.5C33 15.0858 32.6642 14.75 32.25 14.75C31.8358 14.75 31.5 15.0858 31.5 15.5C31.5 15.9142 31.8358 16.25 32.25 16.25Z" fill="black"/>
<path d="M44.475 27.5C46.05 27.5 47.25 28.775 47.25 30.275C47.25 30.725 47.55 31.025 48 31.025C48.45 31.025 48.75 30.725 48.75 30.275C48.75 27.875 46.8 26 44.475 26H39.75V19.25C39.75 18.8 39.45 18.5 39 18.5C38.55 18.5 38.25 18.8 38.25 19.25V26H34.5V23.75C34.5 23.3 34.2 23 33.75 23H31.5C31.05 23 30.75 22.625 30.75 22.25V18.875C30.75 18.5 30.45 18.2 30.075 18.125L29.25 17.975L30.6 16.4C30.75 16.25 30.75 16.1 30.75 15.875V14.375C30.75 13.925 30.45 13.625 30 13.625C29.55 13.625 29.25 14 29.25 14.375V15.575L27.15 18.05C27 18.275 26.925 18.575 27 18.8C27.075 19.025 27.375 19.25 27.6 19.325L29.175 19.55V22.25C29.175 23.525 30.225 24.575 31.5 24.575H32.925V26.075H26.7C24.3 26.075 22.425 28.025 22.425 30.35C22.425 30.8 22.725 31.1 23.175 31.1C23.625 31.1 23.925 30.8 23.925 30.35C23.925 28.775 25.2 27.575 26.7 27.575H33.525C33.6 27.575 33.6 27.575 33.675 27.575C33.75 27.575 33.75 27.575 33.825 27.575H44.475V27.5Z" fill="black"/>
<path d="M39.75 11.75C39.75 11.675 39.75 11.525 39.675 11.45C38.85 9.425 36.825 8 34.575 8H34.5C32.25 8 30.15 9.35 29.325 11.45C29.175 11.825 29.325 12.275 29.7 12.425C30.075 12.575 30.525 12.425 30.675 12.05C31.35 10.55 32.85 9.5 34.5 9.5H34.575C36.15 9.5 37.575 10.475 38.25 11.9L38.175 19.5714C38.175 20.0214 38.475 20.3214 38.925 20.3214C39.375 20.3214 39.675 20.0214 39.675 19.5714L39.75 11.75Z" fill="black"/>
<path d="M20.25 41C20.6642 41 21 40.6642 21 40.25C21 39.8358 20.6642 39.5 20.25 39.5C19.8358 39.5 19.5 39.8358 19.5 40.25C19.5 40.6642 19.8358 41 20.25 41Z" fill="black"/>
<path d="M12.75 56C13.2 56 13.5 55.7 13.5 55.25C13.5 53.675 14.775 52.25 16.275 52.25H21.6C21.675 52.25 21.675 52.25 21.75 52.25C21.825 52.25 21.825 52.25 21.9 52.25H30.975C32.475 52.25 33.75 53.675 33.75 55.25C33.75 55.7 34.05 56 34.5 56C34.95 56 35.25 55.7 35.25 55.25C35.25 52.775 33.3 50.75 30.975 50.75H27.75V44C27.75 43.55 27.45 43.25 27 43.25C26.55 43.25 26.25 43.55 26.25 44V50.75H22.5V48.2C22.5 47.75 22.2 47.45 21.75 47.45H19.2C19.05 47.45 18.75 47.15 18.75 46.7V43.25C18.75 42.8 18.45 42.5 18 42.5H17.55L18.675 40.7C18.75 40.55 18.75 40.4 18.75 40.25V38.75C18.75 38.3 18.45 38 18 38C17.55 38 17.25 38.375 17.25 38.75V40.025L15.45 42.8C15.3 43.025 15.3 43.325 15.45 43.55C15.6 43.775 15.825 44 16.125 44H17.25V46.625C17.25 47.825 18.15 49.25 19.2 49.25H21V50.75H16.275C13.95 50.75 12 52.775 12 55.25C12 55.7 12.3 56 12.75 56Z" fill="black"/>
<path d="M27.75 36.5C27.75 36.425 27.75 36.275 27.675 36.2C26.775 34.175 24.825 32.75 22.575 32.75H22.5C20.25 32.75 18.15 34.1 17.325 36.2C17.175 36.575 17.325 37.025 17.7 37.175C18.075 37.325 18.525 37.175 18.675 36.8C19.35 35.3 20.85 34.25 22.5 34.25H22.575C24.15 34.25 25.575 35.225 26.25 36.65V44C26.25 44.45 26.55 44.75 27 44.75C27.45 44.75 27.75 44.45 27.75 44V36.5Z" fill="black"/>
<path d="M45 41C45.4142 41 45.75 40.6642 45.75 40.25C45.75 39.8358 45.4142 39.5 45 39.5C44.5858 39.5 44.25 39.8358 44.25 40.25C44.25 40.6642 44.5858 41 45 41Z" fill="black"/>
<path d="M55.725 50.75H52.5V44C52.5 43.55 52.2 43.25 51.75 43.25C51.3 43.25 51 43.55 51 44V50.75H47.25V48.2C47.25 47.75 46.95 47.45 46.5 47.45H43.95C43.8 47.45 43.5 47.15 43.5 46.7V43.25C43.5 42.8 43.2 42.5 42.75 42.5H42.3L43.425 40.7C43.5 40.55 43.5 40.4 43.5 40.25V38.75C43.5 38.3 43.2 38 42.75 38C42.3 38 42 38.375 42 38.75V40.025L40.2 42.8C40.05 43.025 40.05 43.325 40.2 43.55C40.35 43.775 40.575 43.925 40.875 43.925H42V46.55C42 47.75 42.9 49.175 43.95 49.175H45.75V50.675H41.025C38.7 50.675 36.75 52.7 36.75 55.175C36.75 55.625 37.05 55.925 37.5 55.925C37.95 55.925 38.25 55.625 38.25 55.175C38.25 53.6 39.525 52.175 41.025 52.175H46.35C46.425 52.175 46.425 52.175 46.5 52.175C46.575 52.175 46.575 52.175 46.65 52.175H55.725C57.225 52.175 58.5 53.6 58.5 55.175C58.5 55.625 58.8 55.925 59.25 55.925C59.7 55.925 60 55.625 60 55.175C60 52.775 58.05 50.75 55.725 50.75Z" fill="black"/>
<path d="M52.5 36.5C52.5 36.425 52.5 36.275 52.425 36.2C51.525 34.175 49.575 32.75 47.325 32.75H47.25C45 32.75 42.9 34.1 42.075 36.2C41.925 36.575 42.075 37.025 42.45 37.175C42.825 37.325 43.275 37.175 43.425 36.8C44.1 35.3 45.6 34.25 47.25 34.25H47.325C48.9 34.25 50.325 35.225 51 36.65V44.4286C51 44.8786 51.3 45.1786 51.75 45.1786C52.2 45.1786 52.5 44.8786 52.5 44.4286V36.5Z" fill="black"/>
<path d="M36.75 29C36.75 28.55 36.45 28.25 36 28.25C35.55 28.25 35.25 28.55 35.25 29V30.5C35.25 30.95 35.55 31.25 36 31.25C36.45 31.25 36.75 30.95 36.75 30.5V29Z" fill="black"/>
<path d="M36.75 32.75C36.75 32.3 36.45 32 36 32C35.55 32 35.25 32.3 35.25 32.75V41C35.25 41.45 35.55 41.75 36 41.75C36.45 41.75 36.75 41.45 36.75 41V32.75Z" fill="black"/>
<path d="M24.75 55.25V53.75C24.75 53.3 24.45 53 24 53C23.55 53 23.25 53.3 23.25 53.75V55.25C23.25 55.7 23.55 56 24 56C24.45 56 24.75 55.7 24.75 55.25Z" fill="black"/>
<path d="M49.5 55.25V53.75C49.5 53.3 49.2 53 48.75 53C48.3 53 48 53.3 48 53.75V55.25C48 55.7 48.3 56 48.75 56C49.2 56 49.5 55.7 49.5 55.25Z" fill="black"/>
</svg>
