<svg width="71" height="72" viewBox="0 0 71 72" fill="none" xmlns="http://www.w3.org/2000/svg">
<circle cx="35.5" cy="36" r="35.5" fill="white"/>
<g clip-path="url(#clip0_2204_5523)">
<path d="M61.8848 50.5473L44.7115 20.8036C44.5579 20.5377 44.2742 20.3739 43.9672 20.3739C43.6601 20.3739 43.3764 20.5378 43.223 20.8036L40.1514 26.124L35.5192 18.1005C35.3656 17.8346 35.082 17.6708 34.7749 17.6708C34.468 17.6708 34.1842 17.8346 34.0307 18.1005L26.5353 31.0817L24.1889 27.0175C24.0354 26.7517 23.7518 26.5878 23.4447 26.5878C23.1376 26.5878 22.854 26.7517 22.7004 27.0175L9.11516 50.5476C8.96161 50.8134 8.96161 51.1411 9.11516 51.407C9.26871 51.6728 9.55232 51.8367 9.85941 51.8367L61.1406 51.8365C61.4477 51.8365 61.7313 51.6726 61.8848 51.4067C62.0384 51.1408 62.0384 50.8132 61.8848 50.5473ZM43.9672 22.9522L48.8121 31.3434L47.2069 33.7771L44.4354 30.7966C44.2767 30.6259 44.0555 30.527 43.8223 30.5227C43.5887 30.5181 43.3643 30.6088 43.1991 30.7734L40.7964 33.1693L39.271 31.1521L43.9672 22.9522ZM34.7748 20.2489L37.8853 25.6365L36.9997 27.011L35.1705 24.8161C34.9868 24.5957 34.7049 24.4813 34.4201 24.5116C34.1347 24.5417 33.8833 24.7121 33.7497 24.9659L32.5723 27.2029L31.42 26.0588L34.7748 20.2489ZM30.5313 27.5985L32.186 29.2417C32.3483 29.4028 32.5665 29.4913 32.7915 29.4913C32.8348 29.4913 32.8784 29.4881 32.9219 29.4813C33.1913 29.44 33.4252 29.2733 33.5522 29.0321L34.6726 26.9033L36.4283 29.0101C36.6034 29.2201 36.8679 29.3344 37.1411 29.3178C37.414 29.301 37.6628 29.1554 37.811 28.9255L38.8518 27.3103L39.1592 27.8428L31.9125 40.395L27.5278 32.8005L30.5313 27.5985ZM23.4446 29.1659L26.9292 35.2014L25.2516 37.1039L23.4864 34.9604C23.1918 34.6026 22.6663 34.5429 22.299 34.8256L21.027 35.804L20.5145 34.2409L23.4446 29.1659ZM19.3607 36.2394L19.7719 37.4934C19.8587 37.7585 20.0688 37.9647 20.3353 38.047C20.6017 38.1292 20.8916 38.0769 21.1126 37.907L22.688 36.6951L24.5658 38.9752C24.7258 39.1695 24.963 39.2839 25.2147 39.2881C25.2195 39.2881 25.2243 39.2882 25.2292 39.2882C25.4755 39.2882 25.7104 39.1823 25.8737 38.9972L27.8358 36.7721L35.541 50.1176L11.3479 50.1179L19.3607 36.2394ZM37.5258 50.1176L32.9047 42.1139L38.3193 32.7353L40.0168 34.9923C40.1663 35.191 40.3946 35.3153 40.6427 35.333C40.8903 35.3502 41.1343 35.2599 41.3105 35.0843L43.7827 32.6191L46.6928 35.7486C46.8561 35.9241 47.0844 36.0228 47.3221 36.0228C47.3459 36.0228 47.3697 36.0219 47.3934 36.0198C47.6562 35.9979 47.8944 35.8566 48.0396 35.6365L49.7733 33.0081L59.6521 50.1179H37.5258V50.1176Z" fill="black"/>
<path d="M19.7295 24.8508C22.9519 24.8508 25.5733 22.2293 25.5733 19.007C25.5733 15.7848 22.9519 13.1632 19.7295 13.1632C16.5073 13.1632 13.8857 15.7846 13.8857 19.007C13.8857 22.2292 16.5073 24.8508 19.7295 24.8508ZM19.7295 14.882C22.0041 14.882 23.8545 16.7324 23.8545 19.007C23.8545 21.2816 22.0041 23.1319 19.7295 23.1319C17.4551 23.1319 15.6046 21.2816 15.6046 19.007C15.6046 16.7324 17.4551 14.882 19.7295 14.882Z" fill="black"/>
</g>
<defs>
<clipPath id="clip0_2204_5523">
<rect width="53" height="53" fill="white" transform="translate(9 6)"/>
</clipPath>
</defs>
</svg>
