<svg width="71" height="72" viewBox="0 0 71 72" fill="none" xmlns="http://www.w3.org/2000/svg">
<circle cx="35.5" cy="36" r="35.5" fill="white"/>
<path d="M52.8374 33.2005C52.8374 31.4979 52.3076 29.8751 51.3051 28.5058L44.8826 18.9715L41.9395 23.3405L34.2997 12L21.2887 31.3143C19.2431 34.0981 18.1621 37.3988 18.1621 40.8624C18.1621 49.7607 25.4014 57 34.2997 57C43.1981 57 50.4374 49.7607 50.4374 40.8624C50.4374 40.2375 50.4005 39.6113 50.3289 38.9928C51.8721 37.5409 52.8374 35.4814 52.8374 33.2005ZM34.2997 54.3469C26.8643 54.3469 20.8152 48.2978 20.8152 40.8624C20.8152 37.9584 21.7243 35.1917 23.4443 32.8615L23.5132 32.7675L23.526 32.7419L34.2997 16.7486L40.3399 25.7149L38.4599 28.5059C37.4574 29.8753 36.9277 31.498 36.9277 33.2006C36.9277 37.5869 40.4962 41.1554 44.8826 41.1554C45.9051 41.1554 46.8831 40.9612 47.7818 40.6084C47.7833 40.693 47.7844 40.7777 47.7844 40.8624C47.7844 48.2978 41.7352 54.3469 34.2997 54.3469ZM44.8827 38.5022C41.9592 38.5022 39.5808 36.1238 39.5808 33.2005C39.5808 32.0581 39.9381 30.9704 40.614 30.0551L40.6825 29.962L40.6954 29.9362L44.8827 23.7202L49.0698 29.9361L49.0831 29.9629L49.1513 30.0551C49.8271 30.9704 50.1844 32.058 50.1844 33.2004C50.1844 36.124 47.8061 38.5022 44.8827 38.5022Z" fill="black"/>
</svg>
