<svg width="71" height="72" viewBox="0 0 71 72" fill="none" xmlns="http://www.w3.org/2000/svg">
<circle cx="35.5" cy="36" r="35.5" fill="white"/>
<g clip-path="url(#clip0_2204_5282)">
<path d="M34.6429 26.8025L28.1587 23.0588L30.3684 22.7757C31.8104 22.6303 32.4648 21.5491 32.4625 20.6037C32.4596 19.4664 31.646 18.5655 30.5265 18.4587C23.3985 17.6597 22.9569 17.4965 21.5983 17.8596C21.5886 17.8621 20.3788 18.193 20.379 18.1929C19.6725 18.3855 18.0153 17.1589 17.538 16.945C17.4223 16.8931 16.8949 16.5366 16.2085 16.5366C15.1471 16.5366 14.6494 17.3507 14.5934 17.448C12.6286 20.9284 13.3176 19.722 11.3715 23.0929C10.6122 24.4085 11.111 25.6054 12.0205 26.1233V26.1232C12.0205 26.1232 12.2078 26.2313 12.2084 26.2317C13.4069 27.005 14.3954 27.2582 14.7289 28.0722L15.1208 29.3214C15.2951 29.8739 15.8637 30.671 16.8254 31.2249C26.9716 37.0729 26.3294 36.839 27.1215 36.839C28.1358 36.839 29.0164 36.1239 29.2227 35.1291L29.6817 35.3941C31.0339 36.1748 32.7267 35.2882 32.8859 33.7627C34.6992 33.9328 35.9011 31.8853 34.836 30.3851C36.0945 29.4692 35.9787 27.5721 34.6429 26.8025ZM33.2108 29.2226L25.9567 25.0343C25.6056 24.8315 25.1566 24.9518 24.954 25.3029C24.7512 25.654 24.8716 26.103 25.2226 26.3057C34.2214 31.5012 33.6424 31.089 33.7398 31.4526C33.895 32.0324 33.2693 32.5139 32.7489 32.2131C32.1339 31.8579 25.7706 28.1841 24.5465 27.4773C24.1954 27.2744 23.7464 27.3948 23.5437 27.7459C23.3411 28.097 23.4613 28.546 23.8124 28.7487L31.0918 32.9514C31.0918 32.9514 31.0919 32.9515 31.0921 32.9515C31.6884 33.2966 31.4409 34.213 30.7523 34.213C30.512 34.213 30.6199 34.2403 28.1943 32.8399L28.1942 32.8398C28.194 32.8397 28.1937 32.8396 28.1935 32.8394L23.1362 29.9194C22.7851 29.7166 22.3361 29.8369 22.1335 30.188C21.9308 30.5391 22.051 30.9881 22.4021 31.1908C22.4028 31.1911 27.4606 34.1115 27.4613 34.1119C27.7809 34.2971 27.8945 34.7081 27.7071 35.0328C27.5255 35.3473 27.1153 35.4704 26.7851 35.2798C16.8567 29.5476 28.6528 36.3469 17.5582 29.9526C16.4373 29.3068 16.4982 28.6849 16.1159 27.5903C16.0798 27.4876 15.7355 26.5709 14.7646 26.0113C12.0024 24.4195 13.5335 25.3011 12.7512 24.8495C12.3527 24.6228 12.4149 24.2213 12.6432 23.8258C14.593 20.449 13.9044 21.6544 15.8632 18.1846C16.4687 17.3069 18.7179 20.1684 20.7655 19.6091C23.8136 18.7759 22.3449 19.1306 30.3835 19.9199C30.8641 19.9641 30.9933 20.3729 30.9939 20.6074C30.9951 21.073 30.6496 21.2593 30.192 21.3182L25.8144 21.8789C25.1195 21.9679 24.9339 22.8925 25.5407 23.2428C34.6712 28.5143 34.1246 28.1133 34.2249 28.4827C34.3737 29.0323 33.7911 29.5571 33.2108 29.2226Z" fill="black"/>
<path d="M60.7756 23.4134C60.7669 23.3954 60.7575 23.3778 60.7472 23.3607C60.4983 22.9389 59.7339 21.6691 57.4123 17.6475C56.7971 16.5822 55.6575 16.2815 54.5087 16.8815C54.4996 16.8863 54.4906 16.8913 54.4816 16.8965L54.3662 16.9632C54.3528 16.9701 54.3401 16.977 54.3302 16.9828L53.2907 17.584C52.9397 17.7869 52.8196 18.2359 53.0226 18.5868C53.2257 18.9378 53.6748 19.0577 54.0255 18.8549C55.3077 18.1135 55.7588 17.7201 56.1408 18.3815C58.1572 21.8743 57.4737 20.7036 59.3446 23.8728C59.7406 24.5528 59.5455 24.6568 58.4055 25.2983C55.8436 26.7407 56.0023 27.0339 55.5054 28.897C55.0555 30.3789 54.1545 31.0884 50.7457 35.8583C50.4672 36.2525 50.0484 36.16 49.8451 36.0433C49.4442 35.8132 49.4511 35.4241 49.6306 34.9935L51.3337 30.9221C51.604 30.276 50.8966 29.6528 50.2895 30.0031C41.2135 35.2431 41.7892 35.0046 41.4095 34.9036C40.8376 34.7523 40.7282 33.9724 41.2482 33.6714L48.5302 29.4673C48.8813 29.2646 49.0016 28.8156 48.7989 28.4646C48.5962 28.1134 48.1471 27.9931 47.7961 28.1959C38.0244 33.8375 43.6026 30.6158 39.5933 32.9312C39.2703 33.1174 38.8563 33.0066 38.6697 32.6836C38.483 32.36 38.5936 31.9469 38.9172 31.7601C40.2752 30.9761 46.2953 27.5003 47.1196 27.0243C47.4706 26.8216 47.591 26.3727 47.3882 26.0216C47.1854 25.6704 46.7365 25.5501 46.3855 25.7529L39.1061 29.9558C38.783 30.1417 38.3691 30.0308 38.1826 29.708C37.9959 29.3848 38.1064 28.9717 38.4302 28.7847C42.2516 26.5783 40.687 27.4817 45.7096 24.582C46.0607 24.3793 46.181 23.9304 45.9783 23.5793C45.7756 23.2281 45.3268 23.1078 44.9755 23.3107L39.9161 26.2315C39.5945 26.4165 39.1816 26.3059 38.9957 25.9839C38.8098 25.6616 38.9205 25.2482 39.2429 25.062C51.7927 17.8158 35.9136 26.9963 48.4699 19.7349C49.1457 19.3439 49.6747 19.3411 49.9417 19.3781L50.0722 19.4073C50.4682 19.4958 50.8604 19.2465 50.9486 18.8509C51.037 18.4553 50.7877 18.0629 50.3921 17.9745C50.3547 17.9662 50.2258 17.9365 50.1883 17.9307C49.7376 17.8607 48.8194 17.8369 47.7347 18.4641C43.7775 20.7525 42.4667 21.5054 38.5087 23.7906C37.4854 24.3815 37.1333 25.6945 37.724 26.718C37.8419 26.9221 37.9885 27.0994 38.1557 27.2479L37.6961 27.5133C36.3624 28.2831 36.2435 30.1866 37.506 31.1034C36.4436 32.6011 37.6372 34.6496 39.4558 34.4804C39.6174 36.028 41.3204 36.8785 42.6558 36.1058L49.1398 32.3622L48.2802 34.4172C47.1076 37.0221 50.4742 38.7715 51.9401 36.7123C56.141 31.0136 56.5671 30.6335 56.9238 29.2768H56.9237C56.933 29.2417 56.9796 29.0643 57.2438 28.0575C57.3488 27.6582 57.9478 27.2602 58.515 26.9265L59.8104 26.1787C61.1381 25.4097 61.1795 24.246 60.7756 23.4134Z" fill="black"/>
<path d="M42.7554 45.4361C43.1609 45.4361 43.4895 45.1075 43.4895 44.7021V40.7153C43.4898 39.2628 42.0616 38.2191 40.672 38.6813V38.1504C40.672 36.6031 39.0717 35.5599 37.6569 36.191C36.8909 34.5265 34.5248 34.5257 33.7585 36.1907C32.3472 35.5608 30.7497 36.6024 30.7508 38.1492V45.6366L29.4009 43.8646C27.743 41.5623 24.5247 43.5688 25.5833 45.8863C28.9894 53.681 28.3281 52.7287 30.4268 54.8073C30.7198 55.0976 30.7651 55.8157 30.7707 56.4735C30.7706 56.5003 30.7659 57.4952 30.7669 57.5217C30.8031 58.4172 31.3605 59.4629 32.8121 59.4629C40.051 59.4629 39.6586 59.4656 39.7216 59.4582C40.5688 59.3626 41.4741 58.7605 41.4741 57.3544C41.4729 54.8553 41.3244 55.2861 42.6933 53.7967C43.0741 53.3821 43.4906 52.4951 43.4896 51.3687L43.4872 48.1271C43.4869 47.7219 43.1583 47.3936 42.7532 47.3936C42.3476 47.3936 42.0188 47.7225 42.0191 48.1282L42.0214 51.3699C42.0222 52.151 41.7604 52.6103 41.5946 52.8227L40.7134 53.7813C40.4432 54.0749 40.0044 54.8513 40.0051 55.7596C40.006 57.5565 40.1117 57.9228 39.594 57.9947H32.812C32.109 57.9947 32.234 57.584 32.239 56.4669C32.2308 55.5243 32.1631 54.4605 31.4599 53.764C29.6147 51.9364 30.2665 52.9369 26.926 45.2923C26.7561 44.9023 26.9141 44.5784 27.2103 44.4064C27.6115 44.1733 27.9493 44.3782 28.2266 44.7456L30.9009 48.2565C31.0917 48.507 31.421 48.6077 31.7196 48.5071C32.0181 48.4065 32.2191 48.1265 32.2191 47.8116V38.1484C32.2188 37.7768 32.5191 37.4743 32.8882 37.474C33.2596 37.4737 33.5625 37.7756 33.5628 38.1474V46.5555C33.5628 46.9609 33.8915 47.2896 34.2969 47.2896C34.7023 47.2896 35.0309 46.9609 35.0309 46.5555C35.0309 42.3072 35.0316 37.2889 35.0316 37.084C35.0316 36.7111 35.3349 36.4079 35.7076 36.4079C36.0804 36.4079 36.3836 36.7112 36.3836 37.084C36.3836 37.9665 36.3836 45.6477 36.3836 46.5555C36.3836 46.9609 36.7122 47.2896 37.1177 47.2896C37.5232 47.2896 37.8518 46.9609 37.8518 46.5555V38.1501C37.8518 37.7772 38.1551 37.474 38.5278 37.474C38.9005 37.474 39.2037 37.7773 39.2037 38.1501V40.5099V40.7153V46.5558C39.2037 46.9612 39.5324 47.2899 39.9378 47.2899C40.3433 47.2899 40.6719 46.9612 40.6719 46.5558V40.7153C40.6719 40.3433 40.9747 40.0406 41.347 40.0406C41.719 40.0406 42.0215 40.3433 42.0215 40.7153V44.7021C42.0213 45.1076 42.3498 45.4361 42.7554 45.4361Z" fill="black"/>
</g>
<defs>
<clipPath id="clip0_2204_5282">
<rect width="50" height="50" fill="white" transform="translate(11 13)"/>
</clipPath>
</defs>
</svg>
