<svg width="441" height="414" viewBox="0 0 441 414" fill="none" xmlns="http://www.w3.org/2000/svg">
<path d="M353.276 378.863H110.609C103.662 378.863 98 373.201 98 366.254V55.594C98 48.6471 103.662 42.9849 110.609 42.9849H353.276C360.223 42.9849 365.885 48.6471 365.885 55.594V366.254C365.885 373.201 360.223 378.863 353.276 378.863ZM110.609 47.743C106.279 47.743 102.758 51.2641 102.758 55.594V366.254C102.758 370.584 106.279 374.105 110.609 374.105H353.276C357.606 374.105 361.127 370.584 361.127 366.254V55.594C361.127 51.2641 357.606 47.743 353.276 47.743H110.609Z" fill="#D1D1D1"/>
<path d="M277.906 38.8934H256.542C256.542 38.8934 256.399 38.4176 256.304 38.2273C254.305 34.849 250.118 35.3248 246.692 32.5175C245.265 31.328 243.79 29.4247 242.886 26.094C246.55 23.5246 248.976 19.3374 248.976 14.5316C248.976 6.77585 242.553 0.44751 234.654 0.44751C226.756 0.44751 220.332 6.77585 220.332 14.5316C220.332 19.2898 222.759 23.477 226.423 26.0464C225.518 29.3771 224.043 31.328 222.616 32.5175C219.19 35.3248 215.003 34.849 213.004 38.2273C212.862 38.4652 212.862 38.6555 212.766 38.8934H191.402C182.172 38.8934 174.701 46.221 174.701 55.309V64.2068H294.607V55.309C294.607 46.2685 287.137 38.8934 277.906 38.8934ZM234.654 6.82346C238.699 6.82346 241.982 10.059 241.982 14.0082C241.982 17.9575 238.699 21.1931 234.654 21.1931C230.61 21.1931 227.327 17.9575 227.327 14.0082C227.327 10.059 230.61 6.82346 234.654 6.82346Z" fill="#455D59"/>
<path d="M185.076 111.554C185.076 124.877 174.085 135.725 160.477 135.725C146.868 135.725 135.877 124.924 135.877 111.554C135.877 98.1836 146.868 87.3826 160.477 87.3826C174.085 87.3826 185.076 98.1836 185.076 111.554Z" fill="#2BAB95"/>
<path d="M162.899 119.834L160.473 126.495L156.856 120.31L149.434 107.748L154.192 105.036L159.283 113.696L162.899 119.834Z" fill="#F5F5F5"/>
<path d="M171.556 95.9455L162.896 119.831L160.47 126.493L156.854 120.307L159.28 113.693L166.417 94.0898L171.556 95.9455Z" fill="#F5F5F5"/>
<path d="M185.076 182.547C185.076 195.87 174.085 206.719 160.477 206.719C146.868 206.719 135.877 195.918 135.877 182.547C135.877 169.177 146.868 158.376 160.477 158.376C174.085 158.376 185.076 169.177 185.076 182.547Z" fill="#2BAB95"/>
<path d="M162.899 190.784L160.473 197.493L156.856 191.308L149.434 178.699L154.192 176.034L159.283 184.646L162.899 190.784Z" fill="#F5F5F5"/>
<path d="M171.556 166.896L162.896 190.782L160.47 197.491L156.854 191.305L159.28 184.644L166.417 165.088L171.556 166.896Z" fill="#F5F5F5"/>
<path d="M263.159 176.021H195.212C194.371 176.021 193.689 176.703 193.689 177.544V177.924C193.689 178.765 194.371 179.447 195.212 179.447H263.159C264 179.447 264.681 178.765 264.681 177.924V177.544C264.681 176.703 264 176.021 263.159 176.021Z" fill="#D1D1D1"/>
<path d="M282.713 176.021H267.249C266.855 176.021 266.535 176.341 266.535 176.735V178.733C266.535 179.128 266.855 179.447 267.249 179.447H282.713C283.107 179.447 283.427 179.128 283.427 178.733V176.735C283.427 176.341 283.107 176.021 282.713 176.021Z" fill="#D1D1D1"/>
<path d="M321.827 176.021H286.188C285.584 176.021 285.094 176.511 285.094 177.116V178.353C285.094 178.957 285.584 179.447 286.188 179.447H321.827C322.431 179.447 322.921 178.957 322.921 178.353V177.116C322.921 176.511 322.431 176.021 321.827 176.021Z" fill="#D1D1D1"/>
<path d="M250.074 186.726H195.022C194.286 186.726 193.689 187.323 193.689 188.059V188.82C193.689 189.556 194.286 190.152 195.022 190.152H250.074C250.81 190.152 251.406 189.556 251.406 188.82V188.059C251.406 187.323 250.81 186.726 250.074 186.726Z" fill="#D1D1D1"/>
<path d="M263.159 105.026H195.212C194.371 105.026 193.689 105.708 193.689 106.548V106.929C193.689 107.77 194.371 108.452 195.212 108.452H263.159C264 108.452 264.681 107.77 264.681 106.929V106.548C264.681 105.708 264 105.026 263.159 105.026Z" fill="#D1D1D1"/>
<path d="M303.125 105.026H267.63C267.025 105.026 266.535 105.516 266.535 106.12V107.357C266.535 107.962 267.025 108.452 267.63 108.452H303.125C303.73 108.452 304.22 107.962 304.22 107.357V106.12C304.22 105.516 303.73 105.026 303.125 105.026Z" fill="#D1D1D1"/>
<path d="M322.211 105.026H307.128C306.734 105.026 306.414 105.345 306.414 105.74V107.738C306.414 108.132 306.734 108.452 307.128 108.452H322.211C322.605 108.452 322.925 108.132 322.925 107.738V105.74C322.925 105.345 322.605 105.026 322.211 105.026Z" fill="#D1D1D1"/>
<path d="M250.074 115.776H195.022C194.286 115.776 193.689 116.373 193.689 117.109V117.87C193.689 118.606 194.286 119.202 195.022 119.202H250.074C250.81 119.202 251.406 118.606 251.406 117.87V117.109C251.406 116.373 250.81 115.776 250.074 115.776Z" fill="#D1D1D1"/>
<path d="M310.505 115.776H255.453C254.718 115.776 254.121 116.373 254.121 117.109V117.87C254.121 118.606 254.718 119.202 255.453 119.202H310.505C311.241 119.202 311.838 118.606 311.838 117.87V117.109C311.838 116.373 311.241 115.776 310.505 115.776Z" fill="#D1D1D1"/>
<path d="M108.946 285.031H287.662C289.042 285.031 290.184 286.172 290.184 287.552V287.933C290.184 289.313 289.042 290.455 287.662 290.455H108.946C107.566 290.455 106.424 289.313 106.424 287.933V287.552C106.424 286.172 107.566 285.031 108.946 285.031Z" fill="#455D59"/>
<path d="M124.215 413.601C122.074 413.411 120.456 411.793 120.646 409.937L134.159 290.793C134.35 288.937 136.3 287.605 138.489 287.748C140.63 287.938 142.248 289.556 142.058 291.412L128.545 410.556C128.354 412.411 126.403 413.744 124.215 413.601Z" fill="#2BAB95"/>
<path d="M269.391 287.315H205.584C205.584 274.277 216.147 263.667 229.232 263.667H276.338V280.415C276.338 284.222 273.245 287.315 269.438 287.315H269.391Z" fill="#2BAB95"/>
<path d="M276.289 263.673C266.773 264.862 257.257 266.099 247.74 267.289C249.834 265.29 256.495 258.534 257.923 247.542C258.97 239.549 256.686 233.268 255.448 230.413C257.875 226.178 260.302 221.991 262.728 217.756C265.774 221.515 269.485 226.892 272.34 234.029C277.288 246.448 276.955 257.582 276.289 263.673Z" fill="#2BAB95"/>
<path d="M258.412 220.58L253.5 217.486L236.609 244.298L241.52 247.392L258.412 220.58Z" fill="#2BAB95"/>
<path d="M266.089 215.109L255.139 208.21L240.353 231.681L251.303 238.58L266.089 215.109Z" fill="#455D59"/>
<path d="M267.054 207.794L261.297 204.167L246.511 227.638L252.268 231.265L267.054 207.794Z" fill="#455D59"/>
<path d="M247.458 252.346H220.955V255.439H247.458V252.346Z" fill="#455D59"/>
<path d="M240.46 253.864H230.658V263.666H240.46V253.864Z" fill="#455D59"/>
<path d="M248.975 282.131C253.075 282.131 256.398 278.808 256.398 274.708C256.398 270.609 253.075 267.286 248.975 267.286C244.876 267.286 241.553 270.609 241.553 274.708C241.553 278.808 244.876 282.131 248.975 282.131Z" fill="#455D59"/>
<path d="M237.749 276.946C237.749 278.896 236.179 280.467 234.228 280.467C232.277 280.467 230.707 278.896 230.707 276.946C230.707 274.995 232.277 273.425 234.228 273.425C236.179 273.425 237.749 274.995 237.749 276.946Z" fill="#455D59"/>
<path d="M355.842 314.579C355.842 317.529 339.188 319.908 318.681 319.908C298.173 319.908 281.52 317.529 281.52 314.579C281.52 311.629 298.173 309.25 318.681 309.25C339.188 309.25 355.842 311.629 355.842 314.579Z" fill="#455D59"/>
<path d="M322.111 318.529H315.307V387.665H322.111V318.529Z" fill="#455D59"/>
<path d="M283.854 412.169L281.475 412.026C281.665 409.456 283.521 386.855 298.033 379.575C305.551 375.816 313.021 376.387 316.828 377.101C317.494 377.244 317.875 377.862 317.779 378.481C317.637 379.099 317.066 379.575 316.4 379.432C312.926 378.766 306.027 378.195 299.128 381.669C285.805 388.378 284.044 409.742 283.901 412.121L283.854 412.169Z" fill="#455D59"/>
<path d="M352.611 413.315C351.993 413.315 351.469 412.839 351.422 412.221C351.279 409.794 349.519 388.43 336.196 381.721C329.296 378.248 322.397 378.819 318.924 379.485C318.258 379.58 317.639 379.152 317.544 378.533C317.449 377.867 317.829 377.249 318.495 377.153C322.302 376.44 329.772 375.821 337.29 379.628C351.803 386.955 353.658 409.509 353.849 412.078C353.849 412.744 353.42 413.315 352.754 413.363H352.659L352.611 413.315Z" fill="#455D59"/>
<path d="M318.684 413.31C318.018 413.31 317.494 412.786 317.494 412.12V384.095C317.494 383.428 318.018 382.905 318.684 382.905C319.35 382.905 319.873 383.428 319.873 384.095V412.12C319.873 412.786 319.35 413.31 318.684 413.31Z" fill="#455D59"/>
<path d="M337.193 311.585C336.384 312.252 333.482 314.298 327.486 313.346L326.249 313.631L322.823 314.393L310.738 317.057L308.311 317.628L301.079 319.246L280.856 323.719L280.095 323.861L274.147 325.241L263.108 327.668L260.967 328.144L255.02 301.593L256.875 301.213L259.112 300.689L260.92 300.261L263.204 299.785L264.155 299.547L270.008 298.263L270.769 298.12L271.245 298.025L272.958 297.644L274.433 297.311L276.289 296.883L282.855 295.408L284.615 295.027L286.328 294.646L288.136 294.218L290.135 293.79L298.414 291.982L299.889 291.649L302.649 291.03L308.644 289.698L309.643 289.46L311.594 289.032L318.018 287.557L321.015 286.891L321.539 286.748C322.3 287.271 324.489 288.746 327.486 288.651C332.054 288.556 334.719 285.083 335.1 284.607C342.713 295.836 342.427 307.351 337.193 311.538V311.585Z" fill="#FFD19B"/>
<path d="M303.889 293.407C306.22 294.073 308.885 294.644 311.787 294.835C324.349 295.739 334.151 289.886 338.481 286.889C333.294 269.331 325.396 249.347 312.977 228.792C309.789 223.558 306.553 218.609 303.318 213.994C298.655 215.849 293.944 217.705 289.281 219.561C294.135 244.16 299.036 268.76 303.889 293.36V293.407Z" fill="#FFD19B"/>
<path d="M303.505 214.326C301.221 215.182 298.89 216.134 296.606 216.99C295.749 217.323 294.845 217.704 293.989 218.084C292.514 218.655 291.039 219.226 289.564 219.797C289.468 219.797 289.373 219.797 289.326 219.893C289.326 219.75 289.326 219.702 289.326 219.607C289.088 218.465 288.755 217.418 288.469 216.324C288.184 215.134 287.898 214.04 287.613 212.898C287.47 212.375 287.375 211.804 287.232 211.28C286.851 209.948 286.518 208.663 286.185 207.426C285.995 206.713 285.9 205.999 285.662 205.333C285.424 204.143 285.043 203.001 284.758 201.764C285.186 201.574 285.567 201.431 285.995 201.193C288.231 200.241 290.515 199.337 292.799 198.338C293.989 199.956 295.083 201.526 296.178 203.191C296.986 204.381 297.748 205.523 298.557 206.76C298.557 206.903 298.699 206.998 298.794 207.141C299.651 208.425 300.46 209.758 301.364 211.042C302.125 212.137 302.839 213.184 303.553 214.278L303.505 214.326Z" fill="#FFD19B"/>
<path d="M226.518 262.241C232.465 265.952 241.458 270.378 253.116 272.281C262.394 273.803 270.483 273.185 276.573 272.186C279.666 272.091 282.521 269.664 283.52 266.333C284.71 262.289 283.045 257.673 279.476 256.198C262.87 252.915 246.312 249.632 229.706 246.349L226.518 262.289V262.241Z" fill="#FFD19B"/>
<path d="M261.87 304.735C262.822 305.496 263.631 306.4 264.392 307.399C265.106 308.351 265.629 309.398 266.105 310.54C266.2 310.73 266.248 310.92 266.295 311.158C268.817 318.486 264.725 326.67 256.969 329.62C251.307 331.809 245.169 330.572 241.125 326.955L239.792 325.576C238.698 324.291 237.937 322.959 237.366 321.579C237.128 320.96 236.938 320.294 236.795 319.675C236.414 317.963 236.366 316.202 236.604 314.537C236.652 314.156 236.747 313.728 236.89 313.347C237.984 308.589 241.505 304.402 246.549 302.498C248.309 301.832 250.07 301.499 251.831 301.452C255.542 301.309 259.11 302.499 261.87 304.735Z" fill="#FFD19B"/>
<path d="M292.277 200.91C290.659 204.907 289.137 208.904 287.519 212.901C287.376 212.377 287.281 211.806 287.138 211.283C286.758 209.951 286.425 208.666 286.091 207.429C285.901 206.715 285.806 206.001 285.568 205.335C285.33 204.146 284.95 203.004 284.664 201.767C285.092 201.576 285.473 201.433 285.901 201.196C288.042 201.1 290.136 200.958 292.277 200.863V200.91Z" fill="#FF7A6C"/>
<path d="M293.041 193.871C293.85 201.056 289.948 207.384 284.429 207.955C279.766 208.478 275.388 204.767 273.675 199.343C273.342 198.343 273.104 197.249 272.962 196.107C272.962 196.06 272.866 194.822 272.866 194.822C272.771 191.777 273.437 189.018 274.722 186.781C276.292 184.069 278.719 182.213 281.574 181.88H282.192C286.998 181.642 291.376 185.925 292.708 191.92C292.851 192.539 292.946 193.205 293.041 193.871Z" fill="#FFD19B"/>
<path d="M276.954 203.384C276.478 203.051 276.002 202.766 275.527 202.433C274.337 201.386 273.1 200.339 271.91 199.292C271.863 199.102 271.815 198.816 271.91 198.579C272.148 198.15 272.814 198.15 273.1 198.103C273.861 198.103 274.956 197.865 276.621 197.151C276.716 199.197 276.811 201.291 276.906 203.337L276.954 203.384Z" fill="#FFD19B"/>
<path d="M287.186 196.434C287.234 197.861 286.139 199.051 284.664 199.098C283.237 199.146 282.047 198.052 282 196.577C281.952 195.101 283.046 193.959 284.521 193.912C285.949 193.864 287.138 194.959 287.186 196.434Z" fill="#FF7A6C"/>
<path d="M281.759 201.338C282.14 201.433 282.378 204.288 280.855 205.049C279.951 205.525 278.619 205.049 278.523 204.621C278.476 204.288 279.332 204.145 280.332 203.146C281.378 202.147 281.521 201.29 281.711 201.338H281.759Z" fill="#F5F5F5"/>
<path d="M226.517 262.241C225.422 262.717 224.28 263.288 223.091 263.906C220.759 265.144 218.713 266.428 216.905 267.665C215.716 267.808 214.573 267.951 213.384 268.094C212.48 268.665 211.195 263.05 214.716 254.295C215.24 253.676 215.811 253.058 216.477 252.487C220.902 248.395 226.041 246.92 229.657 246.349C228.61 251.678 227.516 256.96 226.469 262.289L226.517 262.241Z" fill="#FFD19B"/>
<path d="M287.184 193.435C287.279 194.958 288.468 196.148 289.848 196.052C291.228 195.957 292.275 194.673 292.18 193.15C292.085 191.627 290.895 190.438 289.515 190.533C288.135 190.628 287.089 191.913 287.184 193.435Z" fill="#FFD19B"/>
<path d="M303.121 228.695C302.883 235.119 300.028 240.067 296.507 245.682C295.936 246.586 295.317 247.49 294.746 248.441C294.175 249.298 293.604 250.202 293.033 251.058C291.987 252.724 290.892 254.294 289.75 256.054C289.132 256.958 288.561 257.815 287.942 258.767C285.325 262.716 282.423 266.713 279.33 270.947C274.952 267.046 270.575 263.096 266.197 259.195C268.576 254.627 271.241 249.916 274.286 244.92C274.81 243.969 275.381 243.112 275.952 242.208C276.713 241.019 277.569 239.734 278.378 238.592C282.803 232.073 287.228 226.221 291.653 221.034C293.795 221.225 297.696 221.986 300.837 225.269C301.836 226.316 302.597 227.41 303.216 228.695H303.121Z" fill="#FFD19B"/>
<path d="M259.113 396.421C255.925 398.182 234.894 409.459 229.85 403.654C228.851 402.512 227.804 399.99 230.279 393.566C230.802 388.095 231.325 382.623 231.896 377.151L232.325 372.821L232.467 371.774L232.896 367.539L232.991 366.302L233.419 361.972L233.514 360.735L233.942 356.548L234.037 355.358L234.418 351.219L234.561 349.934L234.989 345.604C235.132 345.319 235.179 345.081 235.084 344.843L235.56 339.894V339.371L236.655 328.57C236.988 325.715 237.368 322.86 237.701 319.958C247.17 321.338 256.686 322.765 266.155 324.145L266.06 325.192L265.584 329.902L259.065 396.469L259.113 396.421Z" fill="#FFD19B"/>
<path d="M266.154 408.843C266.058 410.128 265.202 411.032 264.441 411.603C244.932 411.698 225.376 411.936 205.868 412.031C202.537 412.031 199.111 412.031 195.78 412.126C195.305 410.603 195.019 409.271 194.924 408.129C194.734 406.083 195.019 404.513 195.4 403.276C197.969 394.806 209.769 388.954 225.376 388.954C226.804 388.954 228.279 389.049 229.754 389.097C230.087 389.097 230.42 389.097 230.753 389.097C232.371 389.192 234.084 389.239 235.797 389.335C236.32 389.335 236.843 389.335 237.414 389.43C243.79 389.763 250.261 390.001 256.733 390.334C257.637 390.334 258.541 390.429 259.445 390.429C259.445 390.952 259.54 391.476 259.587 391.952C259.873 394.664 260.301 396.852 260.777 398.66C261.205 400.135 261.681 401.373 262.157 402.277C262.252 402.419 262.347 402.61 262.49 402.848C262.633 403.133 262.775 403.324 262.918 403.561C263.251 404.085 263.679 404.513 264.06 404.799C264.488 405.274 265.773 406.464 266.058 407.844C266.154 408.177 266.201 408.462 266.154 408.795V408.843Z" fill="#FFD19B"/>
<path d="M266.154 408.84C266.058 410.124 265.202 411.028 264.441 411.599C244.932 411.695 225.376 411.933 205.868 412.028C202.537 412.028 199.111 412.028 195.78 412.028C195.305 410.553 195.019 409.22 194.924 408.031C194.734 405.985 195.019 404.415 195.4 403.178C197.969 394.708 209.769 388.855 225.376 388.855C226.804 388.855 228.279 388.951 229.754 388.998C230.087 388.998 230.42 388.998 230.753 388.998C229.278 393.09 228.041 397.944 229.944 399.419C231.514 400.656 233.798 397.563 238.556 397.277C244.599 396.897 246.693 401.417 252.831 401.322C255.828 401.274 258.493 400.132 260.777 398.515C261.633 400.941 262.014 401.845 262.157 402.131C262.252 402.274 262.347 402.464 262.49 402.702C262.633 402.987 262.775 403.178 262.918 403.415C263.251 403.939 263.679 404.367 264.06 404.653C264.488 405.128 265.773 406.318 266.058 407.698C266.154 408.031 266.201 408.316 266.154 408.649V408.84Z" fill="#2BAB95"/>
<path d="M230.281 400.799C227.093 396.897 223.952 392.996 220.764 389.094C220.193 386.525 219.622 383.908 219.004 381.338C222.335 381.338 225.665 381.291 228.996 381.243C230.043 383.099 231.803 386.858 231.898 391.901C231.994 395.851 230.994 398.991 230.233 400.799H230.281Z" fill="#2BAB95"/>
<path d="M246.789 301.636C247.978 301.303 249.168 301.208 250.452 301.208C251.642 301.208 252.831 301.399 254.021 301.732C254.211 301.779 254.402 301.874 254.64 301.97C262.015 304.349 266.107 312.485 263.87 320.431C262.253 326.331 257.59 330.471 252.26 331.518L250.357 331.803C248.644 331.898 247.169 331.756 245.694 331.375C245.076 331.185 244.41 330.994 243.839 330.709C242.221 329.995 240.793 328.996 239.556 327.806C239.271 327.521 238.985 327.188 238.747 326.902C235.607 323.191 234.322 317.862 235.797 312.675C236.273 310.867 237.082 309.25 238.129 307.775C240.27 304.682 243.315 302.541 246.789 301.684V301.636Z" fill="#FFD19B"/>
<path d="M322.78 348.884C322.78 352.5 322.637 376.386 315.167 378.052C313.692 378.385 310.98 378.052 306.507 372.818L292.851 363.539L289.235 361.065L288.378 360.446L284.857 358.067L283.811 357.354L280.194 354.879L279.147 354.166L275.674 351.787L274.675 351.121L271.249 348.789L270.202 348.075L266.586 345.601C266.396 345.316 266.205 345.173 265.967 345.125L261.875 342.366L261.447 342.032L252.454 335.942C250.123 334.277 247.744 332.564 245.412 330.898C251.169 323.238 256.974 315.577 262.732 307.917L263.588 308.487L267.49 311.152L322.827 348.741L322.78 348.884Z" fill="#FFD19B"/>
<path d="M337.102 348.644C338.197 349.358 338.53 350.548 338.72 351.452C329.489 368.629 320.306 385.901 311.075 403.078C309.505 406.028 307.887 409.025 306.317 411.975C304.747 411.642 303.462 411.262 302.368 410.786C300.512 409.977 299.227 408.93 298.371 408.074C292.185 401.793 292.661 388.565 300.131 374.909C300.797 373.625 301.559 372.435 302.368 371.15C302.558 370.865 302.701 370.58 302.891 370.294C303.747 368.914 304.652 367.439 305.508 366.012C305.794 365.536 306.031 365.108 306.317 364.632C309.648 359.16 312.978 353.64 316.357 348.073C316.832 347.312 317.261 346.551 317.737 345.79C318.165 346.027 318.688 346.218 319.164 346.361C321.686 347.407 323.827 348.073 325.635 348.502C327.158 348.835 328.442 348.977 329.489 349.025C329.68 349.025 329.87 349.025 330.155 349.025C330.488 349.025 330.679 349.025 330.964 349.025C331.583 348.977 332.154 348.835 332.582 348.644C333.201 348.502 334.866 347.931 336.198 348.359C336.531 348.454 336.817 348.502 337.055 348.692L337.102 348.644Z" fill="#FFD19B"/>
<path d="M337.102 348.644C338.197 349.358 338.53 350.547 338.72 351.451C329.489 368.628 320.306 385.901 311.075 403.077C309.505 406.028 307.887 409.025 306.269 411.975C304.747 411.69 303.462 411.262 302.368 410.833C300.512 410.024 299.227 408.978 298.371 408.121C292.185 401.84 292.661 388.613 300.131 374.957C300.797 373.672 301.559 372.483 302.368 371.198C302.558 370.912 302.701 370.627 302.891 370.341C305.793 373.577 309.457 377.003 311.694 376.051C313.549 375.242 311.932 371.816 313.93 367.487C316.499 361.967 321.495 362.3 324.303 356.876C325.683 354.211 325.968 351.356 325.683 348.549C328.204 348.977 329.204 349.025 329.537 349.072C329.727 349.072 329.917 349.072 330.203 349.072C330.536 349.072 330.726 349.072 331.012 349.072C331.63 349.025 332.201 348.882 332.629 348.692C333.248 348.549 334.913 347.978 336.246 348.406C336.579 348.501 336.864 348.549 337.102 348.739V348.644Z" fill="#2BAB95"/>
<path d="M312.834 376.293C307.886 377.197 302.937 378.101 297.989 379.005C295.419 378.291 292.898 377.53 290.328 376.816C291.898 373.866 293.468 370.964 295.039 368.014C297.132 368.014 301.319 368.252 305.792 370.535C309.313 372.344 311.55 374.723 312.834 376.245V376.293Z" fill="#2BAB95"/>
<path d="M312.167 318.533C299.082 321.102 285.997 323.671 272.912 326.288C262.634 318.58 252.309 310.872 242.031 303.116C242.459 302.831 243.268 302.307 244.363 301.784C248.788 299.548 252.88 299.357 254.069 299.262C264.49 298.596 300.509 291.459 303.412 290.888C311.453 289.27 322.92 286.272 336.433 280.277C343.951 292.743 346.425 304.972 341.286 310.967C339.478 313.061 337.004 314.06 333.531 315.44C324.871 318.771 317.115 318.913 312.214 318.533H312.167Z" fill="#CE8383"/>
<path d="M264.106 385.955C252.306 383.196 240.458 380.436 228.658 377.676C230.895 359.69 233.131 341.752 235.32 323.766C246.501 329.619 257.683 335.471 268.865 341.372C267.247 356.265 265.677 371.11 264.059 386.003L264.106 385.955Z" fill="#BA8A8A"/>
<path d="M338.525 315.819C323.822 319.674 309.072 323.575 294.369 327.429C293.037 298.595 291.657 269.76 290.277 240.926C290.325 234.74 290.373 228.602 290.468 222.417C294.75 219.609 299.032 216.85 303.315 214.042C311.737 223.083 317.637 231.695 321.681 238.309C324.584 243.115 324.155 242.972 339.334 281.132C343.045 290.458 346.091 298.024 343.474 306.731C342.236 310.823 340.19 313.821 338.573 315.819H338.525Z" fill="#AADDD5"/>
<path d="M285.043 267.76C279.191 263.097 273.386 258.482 267.533 253.819C273.909 244.493 280.285 235.214 286.661 225.888C289.088 222.177 292.799 219.941 296.13 220.464C302.315 221.511 303.267 231.551 303.315 232.074C303.886 239.354 299.127 244.54 298.081 245.635C293.751 253.01 289.421 260.337 285.091 267.713L285.043 267.76Z" fill="#AADDD5"/>
<path d="M276.909 275.086C270.486 275.752 261.683 275.895 251.5 273.944C244.22 272.516 238.13 270.375 233.324 268.282C233.895 261.192 234.419 254.055 234.99 246.965C246.124 248.868 257.258 250.819 268.344 252.722C273.911 257.766 279.478 262.762 285.045 267.806C284.903 268.71 284.57 270.09 283.57 271.47C281.287 274.658 277.528 275.038 276.909 275.086Z" fill="#AADDD5"/>
<path d="M304.931 215.847C300.078 217.893 295.224 219.939 290.371 221.985C291.418 219.939 292.465 217.893 293.559 215.847C296.319 214.277 299.031 212.659 301.791 211.089C302.837 212.659 303.884 214.277 304.931 215.847Z" fill="#AADDD5"/>
<path d="M281.713 181.065C282.379 180.494 281.379 179.019 281.95 178.591C282.902 177.829 286.756 181.826 290.801 185.109C291.039 185.3 291.657 185.776 292.18 186.584C292.513 187.06 292.847 187.726 293.18 189.154C293.418 190.105 293.703 191.438 293.655 193.293C293.655 195.387 293.18 197.1 292.704 198.385C291.99 197.528 291.276 196.719 290.563 195.863C290.705 195.673 291.562 194.435 291.134 192.96C290.943 192.199 290.277 190.914 289.23 190.867C288.279 190.867 287.232 191.866 287.137 193.389C286.042 192.818 284.377 192.104 282.331 191.628C280.571 191.2 279.714 191.01 278.477 191.105C275.717 191.343 274.861 192.865 272.529 192.485C271.387 192.294 270.721 191.818 270.578 191.676C269.294 190.629 268.58 188.63 269.246 187.774C269.722 187.155 270.531 187.536 270.864 186.965C271.387 185.918 269.056 184.11 269.484 183.444C269.817 182.968 271.911 184.681 273.481 184.063C273.671 184.015 273.719 183.92 274.861 183.396C275.574 183.063 275.67 183.016 275.717 182.921C275.908 182.207 272.291 181.16 272.387 180.446C272.434 179.923 275.146 179.352 277.954 180.066C279.952 180.589 281.142 181.493 281.713 181.017V181.065Z" fill="#455D59"/>
<path d="M280.237 195.527C280.333 196.336 279.381 197.002 278.524 197.431C278.239 197.526 278.001 197.621 277.763 197.716C277.097 197.907 276.478 198.002 275.907 198.002C275.765 198.002 275.622 198.002 275.527 198.002C275.051 198.002 274.623 197.764 274.48 197.478C274.099 196.765 274.718 195.385 275.812 194.576C276.288 194.195 276.621 194.1 277.002 193.957H277.335C277.335 193.957 277.668 193.957 277.811 193.957C278.953 194.1 280.19 194.814 280.237 195.575V195.527Z" fill="#F5F5F5"/>
<path d="M278.524 197.243C278.239 197.529 278.001 197.624 277.763 197.719C277.097 197.909 276.478 198.004 275.907 198.004C275.765 198.004 275.622 198.004 275.527 198.004C275.051 198.004 274.623 197.767 274.48 197.481C274.099 196.767 274.718 195.387 275.812 194.579C277.335 194.579 278.524 195.721 278.524 197.291V197.243Z" fill="#2BAB95"/>
<path d="M125.504 283.508C117.32 283.508 112.276 274.61 116.511 267.568L121.602 259.003V243.777H129.405V259.003C131.118 261.858 132.831 264.666 134.544 267.568C138.732 274.563 133.735 283.508 125.504 283.508Z" fill="#CE8383"/>
<path d="M159.906 242.066V276.801C159.906 281.178 157.527 284.652 154.624 284.652C151.722 284.652 149.295 281.178 149.295 276.801V242.066H159.858H159.906Z" fill="#CE8383"/>
<path d="M125.504 284.085C121.459 284.085 117.843 281.992 115.845 278.423C113.846 274.902 113.894 270.715 115.988 267.241L120.984 258.867V232.126H129.977V258.867C130.785 260.247 131.594 261.579 132.403 262.959C133.26 264.387 134.164 265.862 135.02 267.289C137.114 270.763 137.161 274.95 135.163 278.471C133.165 281.992 129.548 284.085 125.456 284.085H125.504ZM122.221 233.316V259.153L117.034 267.86C115.179 270.953 115.084 274.712 116.892 277.852C118.652 280.992 121.888 282.896 125.552 282.896C129.215 282.896 132.403 281.04 134.211 277.852C135.972 274.712 135.972 270.953 134.069 267.86C133.212 266.433 132.356 264.958 131.452 263.53C130.595 262.15 129.739 260.723 128.93 259.295C128.835 259.153 128.835 233.316 128.835 233.316H122.221Z" fill="#455D59"/>
<path d="M154.623 285.27C151.292 285.27 148.722 281.558 148.722 276.848V234.31C148.199 232.883 147.676 231.503 147.105 230.075L146.771 229.266H162.378L162.093 230.075C161.807 230.789 161.522 231.55 161.284 232.264C160.998 232.978 160.761 233.644 160.475 234.358V276.895C160.475 281.606 157.906 285.317 154.623 285.317V285.27ZM148.532 230.408C149.008 231.598 149.436 232.787 149.864 233.977C149.864 234.167 149.864 276.848 149.864 276.848C149.864 280.845 151.958 284.08 154.575 284.08C157.192 284.08 159.238 280.845 159.238 276.848V234.025C159.523 233.311 159.809 232.549 160.094 231.836C160.285 231.36 160.427 230.884 160.618 230.456H148.437L148.532 230.408Z" fill="#455D59"/>
<path d="M176.224 242.066V276.801C176.224 281.178 173.845 284.652 170.942 284.652C168.04 284.652 165.613 281.178 165.613 276.801V242.066H176.176H176.224Z" fill="#CE8383"/>
<path d="M170.939 285.27C167.608 285.27 165.039 281.558 165.039 276.848V234.31C164.515 232.883 163.992 231.503 163.421 230.075L163.088 229.266H178.695L178.409 230.075C178.124 230.789 177.838 231.55 177.6 232.264C177.315 232.978 177.077 233.644 176.791 234.358V276.895C176.791 281.606 174.222 285.317 170.939 285.317V285.27ZM164.848 230.408C165.324 231.598 165.752 232.787 166.181 233.977C166.181 234.167 166.181 276.848 166.181 276.848C166.181 280.845 168.274 284.08 170.891 284.08C173.508 284.08 175.554 280.845 175.554 276.848V234.025C175.84 233.311 176.125 232.549 176.411 231.836C176.601 231.36 176.744 230.884 176.934 230.456H164.753L164.848 230.408Z" fill="#455D59"/>
<path d="M192.546 242.066V276.801C192.546 281.178 190.167 284.652 187.265 284.652C184.362 284.652 181.936 281.178 181.936 276.801V242.066H192.499H192.546Z" fill="#CE8383"/>
<path d="M187.265 285.27C183.934 285.27 181.365 281.558 181.365 276.848V234.31C180.842 232.883 180.318 231.503 179.747 230.075L179.414 229.266H195.021L194.735 230.075C194.45 230.789 194.164 231.55 193.926 232.264C193.641 232.978 193.403 233.644 193.118 234.358V276.895C193.118 281.606 190.548 285.317 187.265 285.317V285.27ZM181.175 230.408C181.65 231.598 182.079 232.787 182.507 233.977C182.507 234.167 182.507 276.848 182.507 276.848C182.507 280.845 184.6 284.08 187.217 284.08C189.834 284.08 191.88 280.845 191.88 276.848V234.025C192.166 233.311 192.451 232.549 192.737 231.836C192.927 231.36 193.07 230.884 193.26 230.456H181.079L181.175 230.408Z" fill="#455D59"/>
<path d="M287.945 363.642C270.435 351.652 252.972 339.613 235.462 327.623C234.891 326.671 231.085 319.962 233.797 312.206C237.175 302.547 247.453 300.406 247.881 300.311C266.581 311.064 285.328 321.818 304.028 332.571C298.651 342.944 293.274 353.269 287.897 363.642H287.945Z" fill="#CE8383"/>
<path d="M285.71 323.624C285.71 323.624 285.234 323.576 285.043 323.434L273.862 315.63C273.338 315.25 273.196 314.536 273.576 313.965C273.957 313.394 274.718 313.299 275.242 313.68L286.423 321.483C286.947 321.864 287.089 322.577 286.709 323.148C286.471 323.481 286.09 323.672 285.71 323.672V323.624Z" fill="#F5F5F5"/>
<path d="M411.908 412.698H1.43427C1.13079 412.698 0.884766 412.828 0.884766 412.988V413.158C0.884766 413.318 1.13079 413.448 1.43427 413.448H440.335C440.639 413.448 440.885 413.318 440.885 413.158V412.988C440.885 412.828 412.212 412.698 411.908 412.698Z" fill="#93642F"/>
</svg>
