<svg width="412" height="270" viewBox="0 0 412 270" fill="none" xmlns="http://www.w3.org/2000/svg">
<g opacity="0.8">
<path d="M81.0172 213.368L63.709 168.444L80.2628 131.383C80.8162 130.144 82.2657 129.591 83.5011 130.144C84.7364 130.698 85.2932 132.147 84.7397 133.383L69.0161 168.582L83.2705 205.584L135.406 166.82C136.493 166.016 138.028 166.237 138.839 167.324C139.646 168.411 139.422 169.946 138.334 170.753L81.0204 213.371L81.0172 213.368Z" fill="#AADDD5"/>
<path d="M66.8606 170.909C66.261 171.034 65.6186 170.935 65.0619 170.586L30.0304 148.643L12.1952 180.074C11.5264 181.25 10.0308 181.665 8.85146 180.996C7.6754 180.327 7.2603 178.832 7.92904 177.652L28.2911 141.768L67.6644 166.429C68.8108 167.147 69.16 168.659 68.4418 169.809C68.0729 170.398 67.4931 170.777 66.8639 170.909H66.8606Z" fill="#AADDD5"/>
<path d="M194.019 122.51C193.334 122.651 192.593 122.503 192 122.035C190.936 121.195 190.755 119.657 191.595 118.593L225.618 75.4476C226.455 74.3869 227.997 74.2024 229.061 75.0424C230.125 75.8825 230.306 77.4209 229.466 78.4849L195.442 121.63C195.07 122.101 194.563 122.398 194.016 122.513L194.019 122.51Z" fill="#AADDD5"/>
<path d="M151.141 110.39C149.951 110.637 148.736 109.968 148.327 108.789L131.279 59.5294L144.354 13.5378C144.727 12.2366 146.081 11.4789 147.385 11.8511C148.686 12.2201 149.444 13.5774 149.072 14.8786L136.418 59.3844L152.962 107.184C153.407 108.466 152.728 109.859 151.447 110.304C151.345 110.34 151.243 110.367 151.141 110.39Z" fill="#AADDD5"/>
<path d="M134.352 61.8565C134.141 61.8993 133.92 61.9158 133.693 61.9026L71.5494 57.8375C70.1988 57.7485 69.1742 56.5824 69.2632 55.2317C69.3521 53.881 70.5183 52.8598 71.8689 52.9454L134.012 57.0106C135.363 57.0996 136.388 58.2657 136.299 59.6164C136.226 60.7397 135.406 61.6391 134.352 61.8565Z" fill="#AADDD5"/>
<path d="M163.128 190.52C187.728 190.52 207.67 170.578 207.67 145.978C207.67 121.378 187.728 101.436 163.128 101.436C138.528 101.436 118.586 121.378 118.586 145.978C118.586 170.578 138.528 190.52 163.128 190.52Z" fill="#AADDD5"/>
<path d="M90.274 216.703C94.3101 211.989 93.7606 204.895 89.0465 200.859C84.3324 196.823 77.2389 197.372 73.2027 202.086C69.1665 206.801 69.7161 213.894 74.4302 217.93C79.1443 221.966 86.2378 221.417 90.274 216.703Z" fill="#AADDD5"/>
<path d="M135.732 70.1224C141.857 69.1228 146.011 63.3472 145.012 57.2223C144.012 51.0974 138.236 46.9426 132.112 47.9423C125.987 48.942 121.832 54.7176 122.832 60.8425C123.831 66.9674 129.607 71.1221 135.732 70.1224Z" fill="#AADDD5"/>
<path d="M236.995 81.2707C239.396 76.0404 237.101 69.8547 231.871 67.4546C226.641 65.0544 220.455 67.3488 218.055 72.5791C215.655 77.8094 217.949 83.995 223.179 86.3952C228.41 88.7953 234.595 86.501 236.995 81.2707Z" fill="#AADDD5"/>
<path d="M156.896 19.2107C159.608 14.1348 157.691 7.8219 152.615 5.11048C147.539 2.39906 141.226 4.31585 138.515 9.39177C135.804 14.4677 137.72 20.7806 142.796 23.492C147.872 26.2034 154.185 24.2866 156.896 19.2107Z" fill="#AADDD5"/>
<path d="M82.1269 55.5484C82.2113 49.7943 77.615 45.0613 71.861 44.977C66.1069 44.8926 61.3738 49.4888 61.2895 55.2429C61.2051 60.997 65.8013 65.73 71.5554 65.8144C77.3095 65.8987 82.0425 61.3025 82.1269 55.5484Z" fill="#AADDD5"/>
<path d="M68.898 178.608C74.4818 177.215 77.8797 171.56 76.4875 165.976C75.0953 160.393 69.4402 156.995 63.8564 158.387C58.2726 159.779 54.8747 165.434 56.2669 171.018C57.6591 176.602 63.3142 180 68.898 178.608Z" fill="#AADDD5"/>
<path d="M90.2735 138.255C93.4984 134.187 92.8155 128.276 88.7481 125.051C84.6807 121.826 78.7692 122.509 75.5443 126.576C72.3194 130.644 73.0023 136.555 77.0697 139.78C81.1371 143.005 87.0486 142.322 90.2735 138.255Z" fill="#AADDD5"/>
<path d="M38.4677 150.181C41.11 145.713 39.6301 139.949 35.1623 137.307C30.6944 134.665 24.9305 136.145 22.2882 140.612C19.6459 145.08 21.1258 150.844 25.5937 153.486C30.0615 156.129 35.8254 154.649 38.4677 150.181Z" fill="#AADDD5"/>
<path d="M16.4082 181.795C17.9878 178.298 16.4336 174.183 12.9367 172.603C9.43985 171.024 5.32455 172.578 3.74493 176.075C2.1653 179.572 3.71952 183.687 7.21637 185.266C10.7132 186.846 14.8285 185.292 16.4082 181.795Z" fill="#AADDD5"/>
</g>
<g opacity="0.8">
<path d="M349.474 65.3648L402.249 82.3435C402.888 82.5478 403.573 82.1986 403.781 81.5562C403.985 80.9171 403.636 80.2319 402.993 80.0244L350.219 63.0456C349.58 62.8413 348.895 63.1905 348.687 63.8329C348.483 64.472 348.832 65.1572 349.474 65.3648Z" fill="#AADDD5"/>
<path d="M350.623 78.8711L397.379 93.9128C398.018 94.1171 398.703 93.7679 398.911 93.1255C399.115 92.4864 398.766 91.8012 398.123 91.5937L351.367 76.5519C350.728 76.3477 350.043 76.6969 349.836 77.3393C349.631 77.9784 349.981 78.6636 350.623 78.8711Z" fill="#AADDD5"/>
<path d="M356.883 94.024L388.053 104.052C388.692 104.256 389.378 103.907 389.585 103.264C389.789 102.625 389.44 101.94 388.798 101.733L357.627 91.7048C356.988 91.5005 356.303 91.8497 356.095 92.4921C355.891 93.1312 356.24 93.8164 356.883 94.024Z" fill="#AADDD5"/>
<path d="M346.637 117.544L376.493 127.151C377.132 127.355 377.817 127.006 378.025 126.363C378.232 125.721 377.88 125.039 377.237 124.831L347.381 115.225C346.742 115.021 346.057 115.37 345.849 116.013C345.645 116.652 345.994 117.337 346.637 117.544Z" fill="#AADDD5"/>
<path d="M330.887 129.098L380.182 144.957C380.821 145.161 381.507 144.812 381.714 144.17C381.919 143.53 381.569 142.845 380.927 142.638L331.631 126.779C330.992 126.575 330.307 126.924 330.099 127.566C329.895 128.205 330.244 128.891 330.887 129.098Z" fill="#AADDD5"/>
<path d="M324.301 143.599L376.495 160.39C377.135 160.594 377.82 160.245 378.027 159.603C378.231 158.964 377.882 158.278 377.24 158.071L325.045 141.28C324.406 141.076 323.721 141.425 323.513 142.067C323.309 142.706 323.658 143.392 324.301 143.599Z" fill="#AADDD5"/>
<path d="M326.803 161.031L361.956 172.34C362.595 172.544 363.28 172.195 363.488 171.553C363.692 170.914 363.343 170.228 362.7 170.021L327.547 158.712C326.908 158.507 326.223 158.857 326.015 159.499C325.811 160.138 326.16 160.823 326.803 161.031Z" fill="#AADDD5"/>
<path d="M315.588 187.776L340.615 195.827C341.254 196.031 341.939 195.682 342.146 195.04C342.351 194.401 342.001 193.715 341.359 193.508L316.332 185.457C315.693 185.252 315.008 185.602 314.8 186.244C314.596 186.883 314.945 187.568 315.588 187.776Z" fill="#AADDD5"/>
<path d="M297.48 197.326L343.235 212.045C343.874 212.249 344.559 211.9 344.767 211.257C344.971 210.618 344.622 209.933 343.979 209.725L298.225 195.007C297.586 194.802 296.901 195.151 296.693 195.794C296.489 196.433 296.838 197.118 297.48 197.326Z" fill="#AADDD5"/>
<path d="M287.143 209.386L340.8 226.648C341.439 226.852 342.124 226.503 342.332 225.86C342.536 225.221 342.187 224.536 341.544 224.329L287.887 207.067C287.248 206.862 286.563 207.212 286.355 207.854C286.151 208.493 286.5 209.178 287.143 209.386Z" fill="#AADDD5"/>
<path d="M329.755 242.082C330.391 242.286 331.103 242.23 331.725 241.865C332.028 241.687 339.193 237.398 343.245 226.922C348.533 213.247 346.18 196.084 336.258 175.91C326.935 156.954 324.787 143.016 329.686 133.295C335.705 121.35 352.15 116.893 367.445 114.109C381.449 111.559 392.317 105.145 398.869 95.5653C404.875 86.7894 406.845 75.9347 404.575 64.1774C404.321 62.8597 403.043 61.9933 401.722 62.2502C400.401 62.5039 399.538 63.782 399.795 65.103C401.814 75.5525 400.105 85.1356 394.85 92.8179C389.046 101.301 379.268 107.01 366.572 109.322C350.101 112.323 332.318 117.258 325.338 131.107C319.704 142.285 321.849 157.643 331.89 178.061C353.688 222.385 330.266 237.068 329.258 237.674C328.108 238.363 327.726 239.855 328.408 241.008C328.724 241.542 329.212 241.911 329.758 242.089L329.755 242.082Z" fill="#AADDD5"/>
<path d="M284.299 215.102C285.521 215.494 286.852 214.868 287.316 213.655C294.995 193.636 316.477 187.792 337.251 182.139C358.025 176.489 377.642 171.149 382.258 152.168C386.59 134.349 376.911 119.412 367.552 104.97C356.901 88.5351 346.841 73.0092 355.179 53.1479C355.699 51.9093 355.116 50.4829 353.877 49.9624C352.645 49.4386 351.212 50.0249 350.692 51.2636C341.359 73.4967 352.599 90.8445 363.467 107.619C372.671 121.824 381.365 135.238 377.53 151.021C373.597 167.213 355.323 172.184 335.976 177.445C315.051 183.137 291.335 189.587 282.773 211.913C282.292 213.168 282.918 214.578 284.173 215.059C284.216 215.075 284.259 215.092 284.302 215.105L284.299 215.102Z" fill="#AADDD5"/>
</g>
<path d="M167.542 165.227C151.489 97.358 85.643 50.6978 85.643 50.6978C85.643 50.6978 60.5933 136.441 113.615 161.59C166.636 186.739 167.542 165.227 167.542 165.227Z" fill="#55BCAA"/>
<path d="M154.919 171.716C154.606 171.716 154.299 171.554 154.131 171.264L86.2392 54.4919C85.9855 54.0571 86.1338 53.5003 86.5686 53.2499C87.0002 52.9963 87.5569 53.1445 87.8106 53.5794L155.703 170.352C155.956 170.787 155.808 171.344 155.373 171.594C155.228 171.676 155.073 171.716 154.915 171.716H154.919Z" fill="#AADDD5"/>
<path d="M96.5542 70.8782C96.3039 70.8782 96.0996 70.6739 96.0996 70.4235V61.0777C96.0996 60.8273 96.3039 60.623 96.5542 60.623C96.8046 60.623 97.0088 60.8273 97.0088 61.0777V70.4235C97.0088 70.6739 96.8046 70.8782 96.5542 70.8782Z" fill="#AADDD5"/>
<path d="M100.511 77.6824C100.261 77.6824 100.057 77.4781 100.057 77.2278V64.4097C100.057 64.1593 100.261 63.9551 100.511 63.9551C100.762 63.9551 100.966 64.1593 100.966 64.4097V77.2278C100.966 77.4781 100.762 77.6824 100.511 77.6824Z" fill="#AADDD5"/>
<path d="M120.873 112.708C120.873 112.708 120.844 112.708 120.83 112.708C120.58 112.685 120.399 112.461 120.422 112.213L122.553 89.7497C122.576 89.4994 122.814 89.3314 123.047 89.3412C123.298 89.3643 123.479 89.5883 123.456 89.8354L121.321 112.299C121.298 112.533 121.101 112.711 120.87 112.711L120.873 112.708Z" fill="#AADDD5"/>
<path d="M130.235 128.809C130.218 128.809 130.198 128.809 130.182 128.809C129.935 128.779 129.754 128.555 129.78 128.305L132.699 102.461C132.728 102.211 132.959 102.033 133.203 102.059C133.45 102.089 133.631 102.313 133.605 102.563L130.683 128.407C130.656 128.638 130.459 128.809 130.231 128.809H130.235Z" fill="#AADDD5"/>
<path d="M143.335 151.339C143.335 151.339 143.309 151.339 143.295 151.339C143.045 151.319 142.861 151.098 142.88 150.848L145.427 121.107C145.45 120.857 145.684 120.675 145.918 120.692C146.168 120.712 146.353 120.932 146.333 121.183L143.786 150.924C143.767 151.161 143.569 151.339 143.335 151.339Z" fill="#AADDD5"/>
<path d="M111.467 96.5289C111.401 96.5289 111.335 96.5158 111.269 96.4861L82.6613 82.7753C82.434 82.6666 82.3385 82.3965 82.4472 82.1692C82.5559 81.9419 82.8294 81.8463 83.0534 81.955L111.661 95.6658C111.888 95.7746 111.984 96.0447 111.875 96.272C111.796 96.4367 111.635 96.5289 111.467 96.5289Z" fill="#AADDD5"/>
<path d="M114.811 102.278C114.745 102.278 114.679 102.265 114.617 102.235L82.6653 87.0155C82.4379 86.9068 82.3424 86.6366 82.4511 86.4093C82.5598 86.1853 82.8333 86.0865 83.0573 86.1952L115.009 101.415C115.236 101.523 115.331 101.794 115.223 102.021C115.144 102.186 114.982 102.281 114.814 102.281L114.811 102.278Z" fill="#AADDD5"/>
<path d="M139.781 145.232C139.721 145.232 139.662 145.222 139.603 145.196L86.0114 122.324C85.7808 122.225 85.6721 121.958 85.7709 121.727C85.8698 121.497 86.1333 121.388 86.3672 121.487L139.959 144.359C140.189 144.458 140.298 144.725 140.199 144.955C140.127 145.127 139.959 145.232 139.781 145.232Z" fill="#AADDD5"/>
<path d="M211.301 158.087C211.301 158.087 225.239 123.546 270.384 101.125C315.529 78.7043 347.342 78.0981 347.342 78.0981C347.342 78.0981 334.01 133.241 292.805 152.029C251.6 170.813 211.301 158.087 211.301 158.087Z" fill="#DB7F14"/>
<path d="M208.272 161.114C220.392 62.0382 314.622 37.7988 314.622 37.7988C314.622 37.7988 316.137 128.695 257.357 158.386C198.577 188.078 208.272 161.114 208.272 161.114Z" fill="#55BCAA"/>
<path d="M210.472 165.74C210.271 165.74 210.067 165.674 209.896 165.532C209.507 165.213 209.451 164.639 209.767 164.254L311.953 39.6113C312.269 39.2258 312.845 39.1632 313.231 39.4828C313.62 39.8023 313.676 40.3755 313.359 40.761L211.174 165.404C210.993 165.624 210.732 165.736 210.469 165.736L210.472 165.74Z" fill="#AADDD5"/>
<path d="M284.169 75.3901C283.939 75.3901 283.741 75.2155 283.718 74.9816L281.6 53.2921C281.577 53.0417 281.758 52.821 282.008 52.7946C282.255 52.788 282.483 52.9527 282.506 53.2031L284.624 74.8927C284.647 75.143 284.466 75.3638 284.215 75.3901C284.199 75.3901 284.186 75.3901 284.169 75.3901Z" fill="#AADDD5"/>
<path d="M287.101 71.9438C286.87 71.9438 286.676 71.7693 286.649 71.5387L284.528 51.9311C284.502 51.6807 284.683 51.4567 284.93 51.4303C285.183 51.404 285.404 51.5818 285.431 51.8322L287.552 71.4398C287.578 71.6902 287.397 71.9142 287.15 71.9406C287.134 71.9406 287.117 71.9406 287.101 71.9406V71.9438Z" fill="#AADDD5"/>
<path d="M264.83 98.9852C264.606 98.9852 264.408 98.8172 264.378 98.5866L260.699 68.7568C260.669 68.5065 260.844 68.2792 261.094 68.2495C261.348 68.2166 261.568 68.3945 261.601 68.6448L265.281 98.4746C265.311 98.725 265.136 98.9523 264.886 98.9819C264.866 98.9819 264.846 98.9852 264.83 98.9852Z" fill="#AADDD5"/>
<path d="M253.956 112.248C253.768 112.248 253.59 112.13 253.527 111.942C253.445 111.705 253.57 111.448 253.811 111.366L304.325 94.0277C304.562 93.9454 304.819 94.0705 304.902 94.311C304.984 94.5482 304.859 94.8052 304.618 94.8875L254.104 112.225C254.054 112.242 254.005 112.252 253.956 112.252V112.248Z" fill="#AADDD5"/>
<path d="M235.98 134.168C235.809 134.168 235.644 134.07 235.568 133.905L225.435 111.978C225.329 111.751 225.428 111.481 225.655 111.375C225.886 111.27 226.153 111.369 226.258 111.596L236.392 133.523C236.497 133.75 236.398 134.02 236.171 134.126C236.108 134.155 236.042 134.168 235.98 134.168Z" fill="#AADDD5"/>
<path d="M231.575 139.546C231.401 139.546 231.236 139.447 231.16 139.279L221.495 117.817C221.393 117.586 221.495 117.319 221.722 117.217C221.949 117.112 222.219 117.217 222.322 117.445L231.987 138.907C232.089 139.137 231.987 139.404 231.76 139.506C231.7 139.533 231.638 139.546 231.572 139.546H231.575Z" fill="#AADDD5"/>
<path d="M193.635 142.318C193.635 142.318 187.392 126.129 200.359 119.844C213.328 113.555 217.41 121.804 217.41 121.804L193.635 142.318Z" fill="#5C750B"/>
<path d="M193.634 142.318C202.282 129.49 194.356 126.127 193.634 118.2C192.913 110.274 194.115 94.9033 178.984 83.8575C163.854 72.8085 152.805 74.7324 152.805 74.7324C152.805 74.7324 156.409 80.504 156.886 95.269C157.364 110.034 162.411 120.842 171.536 124.687C180.661 128.528 182.345 127.569 185.227 134.053C188.11 140.536 193.634 142.318 193.634 142.318Z" fill="#758F22"/>
<path d="M193.635 142.318C192.673 132.613 200.118 136.454 208.285 121.804C216.451 107.155 223.896 98.9157 239.508 97.6309C255.119 96.3461 260.644 100.191 260.644 100.191C260.644 100.191 236.961 107.876 229.421 117.963C213.091 139.818 193.635 142.321 193.635 142.321V142.318Z" fill="#758F22"/>
<path d="M192.126 139.452C191.975 139.452 191.836 139.353 191.79 139.201C191.662 138.78 178.643 96.6721 155.573 76.4386C155.428 76.3101 155.412 76.0894 155.54 75.9411C155.665 75.7962 155.889 75.7797 156.037 75.9082C179.262 96.2735 192.337 138.569 192.466 138.994C192.522 139.182 192.416 139.379 192.232 139.435C192.199 139.445 192.163 139.452 192.13 139.452H192.126Z" fill="#C2D371"/>
<path d="M191.783 207.008C191.905 208.553 192.514 210.049 193.42 211.386C194.323 212.73 195.482 213.926 196.701 215.069C197.917 216.216 199.215 217.296 200.421 218.489C201.597 219.668 202.799 221.035 203.059 222.732C202.674 221.062 201.419 219.833 200.18 218.746C198.912 217.659 197.548 216.674 196.237 215.6C194.926 214.529 193.641 213.386 192.564 212.006C191.486 210.639 190.653 208.982 190.383 207.166L191.786 207.008H191.783Z" fill="#758F22"/>
<path d="M191.429 204.971C189.897 205.712 189.235 207.461 188.783 209.322C188.302 211.167 187.775 213.177 186.53 214.781C185.921 215.601 185.189 216.24 184.557 216.945C183.911 217.65 183.295 218.382 182.748 219.166C182.205 219.95 181.72 220.783 181.431 221.689C181.131 222.575 181.065 223.623 181.622 224.443C181.012 223.662 181.006 222.569 181.259 221.643C181.503 220.691 181.948 219.808 182.452 218.975C182.959 218.141 183.542 217.357 184.155 216.599C184.768 215.832 185.456 215.143 185.95 214.376C187.005 212.831 187.377 210.973 187.749 209.082C187.943 208.133 188.141 207.145 188.582 206.176C189.011 205.208 189.782 204.312 190.724 203.745L191.422 204.971H191.429Z" fill="#758F22"/>
<path d="M193.228 212.618C190.889 215.438 189.713 219.128 188.856 222.801C187.973 226.487 187.463 230.322 186.115 233.903C187.239 230.246 187.502 226.431 188.164 222.659C188.807 218.91 189.742 215.02 192.111 211.752L193.228 212.615V212.618Z" fill="#758F22"/>
<path d="M194.613 223.351C195.954 224.063 197.107 224.896 198.217 225.845C199.311 226.794 200.302 227.858 201.145 229.03C202.009 230.19 202.638 231.508 203.089 232.858C203.577 234.209 203.669 235.655 203.695 237.055C203.55 235.655 203.343 234.252 202.76 232.98C202.209 231.705 201.508 230.5 200.592 229.462C199.696 228.414 198.671 227.482 197.565 226.675C196.461 225.878 195.245 225.156 194.043 224.642L194.619 223.354L194.613 223.351Z" fill="#758F22"/>
<path d="M194.453 136.039C196.104 140.519 197.168 145.678 196.236 150.619C195.372 155.528 193.511 159.639 193.162 164.02C192.885 166.198 192.964 168.408 193.129 170.622L194.051 177.454C194.585 182.126 194.588 186.896 193.916 191.554C193.337 196.225 191.92 200.672 191.719 205.136C191.64 207.366 191.95 209.587 192.536 211.754C193.172 213.859 194.025 216.169 194.384 218.478C195.132 223.143 194.618 227.854 193.692 232.377L192.253 239.146C191.851 241.39 191.469 243.739 192.131 245.975C191.383 243.765 191.676 241.37 191.993 239.104L193.172 232.284C193.92 227.758 194.233 223.12 193.343 218.672C192.895 216.426 192.062 214.42 191.271 212.14C190.563 209.883 190.141 207.505 190.135 205.113C190.181 200.317 191.442 195.817 191.818 191.31C192.292 186.803 192.114 182.277 191.433 177.804L190.243 170.958C189.97 168.583 189.799 166.165 190.006 163.747C190.24 158.858 192.045 154.299 192.576 150.085C193.202 145.859 192.17 141.662 190.52 137.593L194.46 136.048L194.453 136.039Z" fill="#758F22"/>
<path d="M129.388 248.832C127.204 241.028 140.197 231.587 148.301 227.755C156.408 223.924 157.667 225.703 159.109 224.059C160.549 222.415 165.052 211.376 176.042 205.605C187.029 199.833 200.36 198.865 207.819 205.605C213.801 211.014 212.968 218.996 219.273 221.183C225.578 223.374 237.286 222.689 243.048 231.037C248.813 239.384 248.991 236.647 252.595 238.976C256.199 241.302 257.279 244.859 257.279 244.859C257.279 244.859 263.222 249.788 257.279 255.671C251.336 261.555 244.491 256.765 244.491 256.765C244.491 256.765 233.142 265.386 214.229 266.071C195.317 266.757 195.495 264.839 191.894 266.071C188.294 267.303 176.042 271.135 165.955 266.892C155.868 262.649 159.109 257.997 159.109 257.997C159.109 257.997 132.992 261.693 129.388 248.826V248.832Z" fill="#93642F"/>
<path d="M203.691 258.557C203.608 258.557 203.529 258.547 203.447 258.527C202.877 258.392 202.525 257.822 202.66 257.256C203.529 253.566 205.414 250.908 208.257 249.353C212.391 247.09 217.477 247.775 220.185 248.404C219.148 244.418 217.369 235.042 221.744 229.475C224.287 226.243 228.437 224.856 234.067 225.341C234.651 225.39 235.082 225.904 235.029 226.487C234.98 227.07 234.463 227.518 233.883 227.449C229.001 227.021 225.479 228.147 223.404 230.78C218.558 236.933 222.686 249.468 222.729 249.593L223.417 251.642L221.378 250.927C221.309 250.901 214.246 248.48 209.261 251.211C206.972 252.466 205.443 254.663 204.715 257.737C204.6 258.224 204.168 258.554 203.688 258.554L203.691 258.557Z" fill="#6F573C"/>
<path d="M177.685 242.941L177.247 241.468C177.214 241.363 174.019 230.831 168.412 229.052C166.445 228.429 164.426 228.976 162.225 230.709C161.764 231.071 161.102 230.992 160.739 230.534C160.377 230.077 160.456 229.411 160.914 229.049C163.668 226.875 166.406 226.193 169.054 227.036C174.404 228.733 177.652 236.283 178.805 239.462C181.147 237.835 185.862 234.975 188.576 236.234C189.377 236.606 190.352 237.482 190.451 239.554C190.48 240.137 190.029 240.635 189.446 240.661C188.879 240.697 188.365 240.239 188.339 239.656C188.28 238.428 187.835 238.223 187.69 238.154C186.076 237.406 181.586 239.956 178.911 242.005L177.692 242.941H177.685Z" fill="#6F573C"/>
<path d="M325.417 128.441C327.963 127.134 327.62 126.584 329.202 123.968C330.786 121.352 332.848 117.913 331.61 115.366C330.371 112.82 328.236 113.508 327.894 113.301C327.551 113.093 327.894 112.682 327.413 112.131C326.932 111.581 326.105 111.789 326.105 111.789C326.105 111.789 325.624 110.481 324.659 110.343C323.697 110.204 322.251 111.443 322.251 111.443C322.251 111.443 320.613 111.235 319.579 110.481C318.548 109.723 318.466 108.416 318.466 108.416C318.466 108.416 317.665 109.644 318.077 110.83C318.489 112.016 319.497 112.237 319.497 112.237C319.497 112.237 317.537 111.153 315.109 111.98C312.684 112.807 312.114 112.599 311.495 113.116C310.876 113.634 312.167 118.588 316.193 117.916C320.218 117.244 325.413 128.445 325.413 128.445L325.417 128.441Z" fill="#4B494A"/>
<path d="M326.461 122.931C325.766 124.318 324.313 125.277 321.144 126.861C317.972 128.446 314.602 126.301 314.602 125.837C314.602 125.672 314.766 124.384 314.997 122.829C315.03 122.467 315.096 122.068 315.162 121.673C315.491 119.459 315.956 117.048 316.252 116.32C316.252 116.32 319.224 114.801 323.157 114.336C327.054 113.842 325.074 114.863 326.988 117.706C328.938 120.513 327.12 121.538 326.461 122.925V122.931Z" fill="#D2978D"/>
<path d="M317.491 124.41C317.514 124.41 317.538 124.397 317.544 124.37C317.554 124.341 317.538 124.308 317.511 124.301C316.826 124.074 316.866 123.524 316.889 123.382C317.053 123.332 317.791 123.072 318.2 122.324C318.473 121.827 318.539 121.221 318.397 120.522C318.391 120.493 318.364 120.48 318.338 120.483C318.312 120.49 318.295 120.522 318.302 120.552C318.44 121.218 318.378 121.794 318.121 122.262C317.692 123.049 316.849 123.273 316.839 123.276L316.81 123.286L316.803 123.319C316.803 123.319 316.622 124.12 317.485 124.406C317.485 124.406 317.491 124.406 317.495 124.406L317.491 124.41Z" fill="#6F573C"/>
<path d="M320.488 121.24C320.468 121.682 320.3 122.034 320.116 122.028C319.928 122.021 319.793 121.655 319.812 121.211C319.832 120.769 320 120.417 320.185 120.423C320.373 120.43 320.508 120.796 320.488 121.24Z" fill="#6F573C"/>
<path d="M316.478 121.175C316.498 121.616 316.666 121.968 316.851 121.962C317.038 121.955 317.174 121.59 317.154 121.145C317.134 120.7 316.966 120.351 316.782 120.358C316.594 120.364 316.459 120.73 316.478 121.175Z" fill="#6F573C"/>
<path d="M321.855 119.015C321.977 119.305 320.264 118.761 320.204 118.577C320.142 118.392 320.356 118.316 320.692 118.336C321.028 118.353 321.825 118.942 321.855 119.015Z" fill="#6F573C"/>
<path d="M315.857 119.073C315.762 119.373 317.419 118.678 317.462 118.49C317.505 118.303 317.287 118.247 316.955 118.293C316.622 118.339 315.881 118.998 315.857 119.073Z" fill="#6F573C"/>
<path d="M322.445 122.474C322.511 122.8 322.139 123.149 321.615 123.258C321.092 123.367 320.611 123.189 320.545 122.866C320.479 122.54 320.851 122.19 321.375 122.082C321.899 121.973 322.38 122.151 322.445 122.474Z" fill="#C16B6B"/>
<path d="M315.887 122.568C315.788 122.832 315.426 122.93 314.994 122.832C315.027 122.469 315.093 122.071 315.159 121.675C315.686 121.84 315.986 122.272 315.887 122.568Z" fill="#C16B6B"/>
<path d="M326.777 120.391C328.325 119.824 329.349 120.852 328.737 122.351C328.17 123.744 326.674 125.115 325.538 124.08C324.616 123.24 326.773 120.388 326.773 120.388L326.777 120.391Z" fill="#D2978D"/>
<path d="M326.628 124.311C326.371 125.757 325.021 132.721 327.604 133.6C329.613 134.286 323.476 138.143 320.429 137.573C317.385 137.007 316.35 133.805 316.867 133.6C317.385 133.393 319.088 132.671 319.137 129.628C319.19 126.584 326.628 124.314 326.628 124.314V124.311Z" fill="#D2978D"/>
<path d="M328.039 120.231C326.847 120.244 325.499 122.234 325.499 122.234C325.499 122.234 326.899 119.068 325.265 117.24C324.004 115.827 323.025 115.893 320.719 116.644C318.413 117.395 316.081 118.146 315.485 117.938C314.888 117.731 312.895 115.399 317.998 114.232C323.101 113.066 325.226 112.368 327.041 114.414C328.856 116.459 328.039 120.231 328.039 120.231Z" fill="#4B494A"/>
<path d="M326.59 120.933C325.618 123.809 326.435 124.432 326.435 124.432C326.435 124.432 324.337 128.629 322.782 129.64C321.227 130.651 318.727 130.767 316.714 129.887C314.253 128.813 314.503 124.511 314.698 124.432C314.892 124.353 314.895 124.817 318.236 125.015C322.861 125.288 326.59 120.933 326.59 120.933Z" fill="#4B494A"/>
<path d="M316.58 126.122C318.102 126.777 320.369 125.947 320.369 125.947C320.369 125.947 319.476 127.176 318.31 127.173C317.041 127.166 316.58 126.122 316.58 126.122Z" fill="white"/>
<path d="M316.867 133.604C318.468 135.564 321.048 136.288 323.94 135.254C326.829 134.223 327.913 133.963 327.913 133.963C327.913 133.963 332.766 135.768 328.532 138.403C324.299 141.039 317.332 140.469 317.332 140.469C317.332 140.469 314.598 135.307 314.752 134.789C314.907 134.272 316.867 133.604 316.867 133.604Z" fill="#EDF0F4"/>
<path d="M320.942 135.665C320.942 135.665 320.234 137.428 318.076 138.343C316.663 138.943 314.607 135.237 314.749 134.789C314.891 134.341 320.942 135.665 320.942 135.665Z" fill="#D6DDE9"/>
<path d="M317.175 133.295C317.801 133.796 320.914 135.588 320.944 135.67C321.05 135.967 318.467 138.095 318.002 138.046C317.538 137.993 314.804 135.311 314.751 134.794C314.698 134.277 316.919 133.091 317.175 133.299V133.295Z" fill="#EDF0F4"/>
<path d="M320.943 135.663C320.758 136.513 323.479 139.544 324.102 139.623C324.724 139.702 327.676 137.834 327.482 136.981C327.287 136.128 320.943 135.663 320.943 135.663Z" fill="#D6DDE9"/>
<path d="M320.943 135.668C320.943 135.668 326.622 132.983 327.087 132.983C327.551 132.983 329.719 134.532 329.821 134.943C329.923 135.355 324.866 138.712 323.987 138.659C323.11 138.607 320.633 135.925 320.943 135.665V135.668Z" fill="#EDF0F4"/>
<path d="M322 268.845H302.014C302.442 267.261 303.73 265.772 306.507 265.014C309.778 264.122 312.289 262.636 313.181 260.784C313.247 260.751 313.247 260.718 313.214 260.686H313.247C313.445 260.29 313.577 259.859 313.61 259.43C313.774 257.217 318.963 259.233 320.017 259.661C320.05 259.661 320.083 259.694 320.083 259.694C320.182 259.727 320.215 259.76 320.215 259.76C320.346 259.859 320.478 260.023 320.577 260.155C320.709 260.32 320.841 260.518 320.939 260.715C321.038 260.814 321.104 260.946 321.17 261.11C321.598 261.97 321.865 263.028 321.997 264.118C322.03 264.316 322.03 264.514 322.063 264.747C322.227 266.134 322.195 267.62 321.997 268.842L322 268.845Z" fill="#93642F"/>
<path d="M342.185 268.848H329.103C328.441 267.625 328.309 266.271 328.51 264.983C328.807 262.934 329.831 261.053 330.79 259.963C330.954 259.765 331.119 259.568 331.284 259.436C331.284 259.436 329.93 253.885 337.032 259.238C337.494 259.601 337.925 259.933 338.32 260.296C338.353 260.329 338.419 260.362 338.452 260.362C343.143 264.456 342.682 267.332 342.185 268.851V268.848Z" fill="#93642F"/>
<path d="M307.318 202.563C307.318 202.563 309.657 259.824 310.484 260.513C311.311 261.201 321.77 261.063 322.459 260.513C323.147 259.962 322.459 192.792 322.459 192.792C322.459 192.792 326.863 259.689 328.102 260.239C329.341 260.789 341.177 260.789 342.142 259.827C343.104 258.866 339.388 200.366 339.115 197.2C338.838 194.034 337.326 180.27 330.029 178.893C322.732 177.516 311.996 178.343 311.173 181.371C310.346 184.398 307.318 202.569 307.318 202.569V202.563Z" fill="#A7D9EA"/>
<path d="M314.749 134.786C315.886 137.935 318.775 138.864 322.596 138.759C326.414 138.657 329.824 134.941 329.824 134.941C329.824 134.941 334.986 139.484 334.986 146.089C334.986 152.694 332.818 180.774 330.341 181.703C327.864 182.632 316.712 183.252 313.514 181.601L314.752 134.786H314.749Z" fill="#3E7068"/>
<path d="M341.195 172.847C341.162 173.674 341.162 174.53 341.162 175.39C341.129 176.942 341.096 178.497 341.063 180.081C340.931 190.587 340.865 200.628 340.865 201.224C340.865 201.952 331.878 206.808 330.228 205.882C328.578 204.923 328.775 167.464 328.907 156.824C329.006 146.186 329.833 134.956 329.833 134.956C334.59 136.376 338.487 138.26 339.643 139.68C340.766 141.133 341.396 160.227 341.195 172.847Z" fill="white"/>
<path d="M359.373 139.14C358.49 137.753 358.372 135.032 360.424 134.228C362.473 133.421 363.91 134.459 364.074 135.717C364.239 136.976 364.815 139.407 364.074 139.868C363.333 140.326 359.377 139.143 359.377 139.143L359.373 139.14Z" fill="#BB7C70"/>
<path d="M364.154 139.451C364.154 139.549 364.055 140.014 363.825 140.673C362.504 145.265 357.085 161.021 352.759 162.211C347.805 163.532 338.917 157.75 337.266 154.548C335.616 151.376 339.645 139.681 339.645 139.681C343.973 142.788 349.653 152.17 349.653 152.17C349.653 152.17 355.335 141.17 357.183 139.549C357.216 139.483 357.249 139.483 357.282 139.451C359.035 138.097 364.154 138.624 364.154 139.451Z" fill="white"/>
<path d="M289.663 176.547C288.372 175.153 282.643 177.064 282.59 177.528C282.538 177.993 284.86 178.457 284.86 178.457C284.86 178.457 278.667 182.275 278.924 183.412C279.181 184.549 280.782 184.651 282.175 184.753C283.569 184.855 291.261 182.275 291.982 179.953C292.704 177.631 289.66 176.547 289.66 176.547H289.663Z" fill="#D2978D"/>
<path d="M306.905 171.063C306.674 171.492 306.144 172.154 305.386 172.948V172.981L304.859 173.508C301.324 177.075 294.584 182.429 293.296 182.129C291.646 181.701 288.638 175.52 288.737 174.697C288.836 173.873 297.391 164.985 299.275 162.508C301.127 160.031 302.678 145.694 307.435 138.559C307.435 138.559 308.163 168.586 306.908 171.063H306.905Z" fill="white"/>
<path d="M305.385 172.944V172.977L304.858 173.504C304.66 171.788 304.759 166.072 304.759 161.249C304.759 155.402 305.121 150.81 305.121 150.81C305.121 150.81 305.882 168.187 305.385 172.944Z" fill="#D0D4F2"/>
<path d="M315.558 171.298C315.69 183.684 312.254 205.028 311.328 205.16C310.403 205.258 305.053 202.88 304.855 201.526C304.723 200.831 304.888 191.482 305.02 181.276C305.053 179.392 305.086 177.511 305.086 175.626C305.217 168.03 305.283 160.726 305.25 156.829C305.152 146.719 306.077 141.237 307.431 138.562C308.752 135.887 314.764 134.797 314.764 134.797C314.764 134.797 315.492 162.713 315.558 171.301V171.298Z" fill="white"/>
<path d="M336.219 138.008C335.135 140.571 333.122 143.618 333.122 143.618C333.122 143.618 335.6 143.72 335.856 144.6C336.113 145.476 330.352 156.041 329.68 158.726C329.008 161.41 329.663 146.095 331.057 143.308C332.45 140.521 336.219 138.008 336.219 138.008Z" fill="#D0D4F2"/>
<path d="M308.694 137.938C308.507 139.539 310.259 143.565 310.259 143.565C310.259 143.565 307.68 144.546 307.68 145.63C307.68 146.714 312.325 152.703 314.647 158.741C315.573 161.149 312.891 142.843 311.962 140.728C311.033 138.613 308.694 137.941 308.694 137.941V137.938Z" fill="#D0D4F2"/>
<path d="M329.82 134.495C330.99 134.495 336.359 137.453 336.221 138.003C336.083 138.553 332.228 143.992 332.228 143.992C332.228 143.992 334.636 143.992 335.052 144.404C335.463 144.816 333.605 147.57 332.162 151.078C330.716 154.586 328.858 161.402 328.858 161.402C328.858 161.402 328.446 154.313 328.516 148.462C328.585 142.612 329.273 134.491 329.824 134.491L329.82 134.495Z" fill="white"/>
<path d="M363.892 120.526L359.734 123.438L361.517 125.983L365.675 123.07L363.892 120.526Z" fill="#93642F"/>
<path d="M344.954 134.908L342.383 136.709L343.112 137.751L345.684 135.949L344.954 134.908Z" fill="#DB7F14"/>
<path d="M347.136 132.755L343.793 135.097L345.086 136.942L348.429 134.601L347.136 132.755Z" fill="#93642F"/>
<path d="M360.048 121.484L345.41 131.737L348.808 136.588L363.446 126.335L360.048 121.484Z" fill="#DB7F14"/>
<path d="M363.177 119.238L362.621 119.627L366.019 124.479L366.575 124.089L363.177 119.238Z" fill="#DB7F14"/>
<path d="M353.304 151.322C352.523 151.322 351.722 151.249 350.912 151.104C350.474 151.025 350.184 150.607 350.263 150.169C350.342 149.73 350.76 149.441 351.199 149.52C355.975 150.383 360.307 148.261 362.238 144.12C363.812 140.744 363.862 135.308 358.815 131.111C358.472 130.828 358.426 130.32 358.71 129.978C358.993 129.635 359.5 129.589 359.843 129.872C364.573 133.809 366.085 139.67 363.694 144.799C361.777 148.913 357.843 151.318 353.304 151.318V151.322Z" fill="#DB7F14"/>
<path d="M360.418 129.897C360.418 130.744 359.729 131.433 358.883 131.433C358.036 131.433 357.348 130.744 357.348 129.897C357.348 129.051 358.036 128.362 358.883 128.362C359.729 128.362 360.418 129.051 360.418 129.897Z" fill="#93642F"/>
<path d="M348.841 151.235L335.68 141.331L335.074 142.137L348.235 152.04L348.841 151.235Z" fill="#93642F"/>
<path d="M347.877 153.309L338.051 145.915L337.437 146.731L347.263 154.125L347.877 153.309Z" fill="#93642F"/>
<path d="M355.638 151.422V154.951C355.638 155.619 355.516 156.265 355.272 156.855H345.346C345.102 156.265 344.98 155.619 344.98 154.951V151.422C344.98 148.484 347.372 146.092 350.311 146.092C351.79 146.092 353.114 146.692 354.083 147.651C355.038 148.619 355.641 149.953 355.641 151.422H355.638Z" fill="#DB7F14"/>
<path d="M351.844 150.522C351.844 151.369 351.155 152.058 350.309 152.058C349.462 152.058 348.773 151.369 348.773 150.522C348.773 149.676 349.462 148.987 350.309 148.987C351.155 148.987 351.844 149.676 351.844 150.522Z" fill="#93642F"/>
<path d="M360.422 156.853H333.441C333.441 156.184 333.708 155.585 334.143 155.15C334.588 154.705 335.187 154.438 335.846 154.438H358.007C359.341 154.438 360.422 155.519 360.422 156.853Z" fill="#DB7F14"/>
<path d="M362.489 131.572C361.886 130.995 358.684 132.662 357.959 133.496C357.234 134.329 358.74 134.655 358.74 134.655C358.74 134.655 359.003 134.906 359.29 135.271C359.576 135.637 362.103 135.093 362.103 135.093C362.103 135.093 360.627 136.059 361.108 136.665C361.586 137.274 362.35 136.741 362.35 136.741C362.35 136.741 361.965 137.505 362.489 137.749C363.009 137.996 364.561 137.627 365.154 136.965C365.747 136.299 364.709 135.146 364.709 135.146C364.709 135.146 364.63 133.96 364.248 133.473C363.866 132.985 363.101 132.6 363.101 132.6C363.101 132.6 362.752 131.822 362.489 131.572Z" fill="#D2978D"/>
<path d="M358.738 134.653L363.1 132.601C363.1 132.601 361.538 133.51 360.428 133.984C359.321 134.462 358.738 134.653 358.738 134.653Z" fill="#BB7C70"/>
<path d="M362.105 135.091C363.058 134.841 364.408 133.731 364.408 133.731C364.408 133.731 363.861 134.344 363.166 134.719C362.471 135.095 362.105 135.095 362.105 135.095V135.091Z" fill="#BB7C70"/>
<path d="M362.348 136.737C362.736 136.684 364.706 135.143 364.706 135.143C364.706 135.143 363.856 135.95 363.267 136.315C362.68 136.678 362.348 136.737 362.348 136.737Z" fill="#BB7C70"/>
<path d="M315.369 161.89C315.781 155.351 315.027 134.636 314.75 134.293C314.473 133.951 308.761 137.39 308.695 137.94C308.629 138.49 311.242 144.031 311.242 144.031C311.242 144.031 308.32 144.812 308.402 145.27C308.61 146.407 309.229 146.594 311.91 152.033C314.595 157.469 315.369 161.893 315.369 161.893V161.89Z" fill="white"/>
<path d="M341.157 175.391C341.124 176.943 341.091 178.498 341.058 180.082C337.665 184.737 331.265 180.54 330.981 178.959C330.896 178.471 338.117 177.308 341.157 175.391Z" fill="#55BCAA"/>
<path d="M312.418 178.961C312.484 179.29 309.579 183.816 305.02 181.273C305.052 179.389 305.085 177.508 305.085 175.624C308.554 179.29 312.353 178.631 312.418 178.961Z" fill="#55BCAA"/>
<path d="M326.717 122.999C326.717 122.999 326.858 121.592 327.3 121.49C327.741 121.388 327.768 121.951 327.428 122.396C327.247 122.64 326.717 122.999 326.717 122.999Z" fill="#BB7C70"/>
<path d="M309.416 222.031C309.62 224.202 314.829 224.791 315.102 223.968C315.379 223.144 309.097 218.651 309.416 222.031Z" fill="#388477"/>
<path d="M332.694 224.102C335.705 224.632 338.225 223.417 338.175 222.392C338.083 220.425 325.911 222.906 332.694 224.102Z" fill="#388477"/>
<path d="M232.228 131.045C232.584 127.81 237.904 126.884 237.901 122.977C237.901 119.456 235.334 119.113 235.334 119.113C235.334 119.113 235.555 113.931 231.085 112.6C227.326 111.48 222.108 114.6 222.388 117.518C222.605 119.785 226.993 121.452 230.301 121.738C233.608 122.028 230.251 128.788 230.35 129.727C230.449 130.666 232.228 131.048 232.228 131.048V131.045Z" fill="#4B494A"/>
<path d="M234.387 137.083C234.492 137.817 226.701 140.552 226.889 139.583C227.031 138.921 227.268 136.361 227.208 134.253C227.185 133.245 227.09 132.359 226.889 131.802C226.665 131.209 226.889 130.57 227.327 130.003C228.108 128.913 229.6 128.037 230.051 128C230.75 127.954 231.438 128.593 231.438 128.593C231.451 128.666 231.475 128.748 231.511 128.84C232.067 130.936 234.281 136.374 234.39 137.083H234.387Z" fill="#E7AFA1"/>
<path d="M231.509 128.841C230.939 129.872 230.136 129.895 230.136 129.895C230.136 129.895 228.739 133.45 227.21 134.253C227.187 133.245 227.092 132.359 226.891 131.802C226.667 131.209 226.891 130.57 227.329 130.004C228.69 129.21 231.509 128.844 231.509 128.844V128.841Z" fill="#D09082"/>
<path d="M224.034 118.386C221.221 120.294 216.978 131.204 222.947 132.733C228.92 134.261 232.718 125.897 232.174 123.367C231.631 120.837 224.031 118.386 224.031 118.386H224.034Z" fill="#E7AFA1"/>
<path d="M221.74 121.406C219.988 122.273 219.543 122.74 219.642 123.37C219.741 123.999 220.482 124.509 220.973 124.549C221.467 124.592 221.74 121.406 221.74 121.406Z" fill="#E7AFA1"/>
<path d="M231.341 125.706C232.451 125.364 233.406 127.034 232.23 128.339C231.107 129.584 229.908 129.525 229.463 128.734C229.018 127.943 231.337 125.706 231.337 125.706H231.341Z" fill="#E7AFA1"/>
<path d="M186.537 132.821L182.311 135.603L187.052 142.807L191.279 140.025L186.537 132.821Z" fill="#596BA6"/>
<path d="M192.766 100.63C185.044 88.8955 169.271 85.6506 157.537 93.3691C145.803 101.091 142.558 116.864 150.276 128.598C157.998 140.332 173.771 143.591 185.506 135.869C197.24 128.137 200.485 112.361 192.766 100.626V100.63ZM182.725 131.645C173.323 137.826 160.686 135.223 154.506 125.818C148.313 116.416 150.919 103.779 160.321 97.599C169.723 91.4057 182.359 94.0115 188.54 103.413C194.733 112.815 192.127 125.452 182.725 131.645Z" fill="#2C408A"/>
<path opacity="0.3" d="M185.932 129.026C193.891 121.068 193.891 108.165 185.932 100.207C177.974 92.2487 165.071 92.2487 157.113 100.207C149.155 108.165 149.155 121.068 157.113 129.026C165.071 136.985 177.974 136.985 185.932 129.026Z" fill="#ECEDFD"/>
<path d="M188.146 140.249L185.814 141.784C185.419 142.044 185.261 142.539 185.442 142.977C187.221 147.276 196.323 168.936 201.436 174.184C205.843 178.707 210.821 175.999 212.353 174.299C213.75 172.747 193.121 145.303 189.467 140.47C189.155 140.055 188.581 139.969 188.146 140.252V140.249Z" fill="#2C408A"/>
<path d="M188.485 140.022L190.818 138.487C191.213 138.227 191.73 138.276 192.059 138.616C195.304 141.95 211.598 158.876 214.395 165.649C216.806 171.486 212.349 174.985 210.181 175.719C208.205 176.391 191.157 146.588 188.162 141.32C187.905 140.869 188.05 140.309 188.485 140.022Z" fill="#2C408A"/>
<path d="M158.53 120.286C155.256 123.346 154.02 105.722 160.171 102.711C166.321 99.6999 161.027 117.947 158.53 120.286Z" fill="#F9FBFF"/>
<path d="M161.174 124.656C159.421 125.885 165.805 132.22 166.939 130.434C168.072 128.649 163.858 122.772 161.174 124.656Z" fill="#F9FBFF"/>
<path d="M194.654 152.965C194.384 150.464 190.717 146.643 190.45 146.59C189.792 146.458 190.072 149.338 190.072 149.338C190.072 149.338 186.352 143.945 185.166 144.63C183.98 145.315 186.461 156.644 194.651 156.298C202.843 155.956 194.651 152.965 194.651 152.965H194.654Z" fill="#E7AFA1"/>
<path d="M231.928 125.712C231.744 123.278 231.886 121.924 228.674 120.962C226.193 120.22 224.325 120.092 223.258 119.094C222.075 117.987 225.379 116.093 228.394 117.242C231.408 118.392 232.927 121.074 233.355 122.296C233.78 123.518 231.928 125.712 231.928 125.712Z" fill="#4B494A"/>
<path d="M250.734 256.432C254.065 257.839 254.51 260.283 254.213 261.245C253.917 262.207 243.628 269.906 241.553 268.723C239.985 267.827 244.735 258.876 245.697 257.915C246.659 256.953 250.731 256.435 250.731 256.435L250.734 256.432Z" fill="#93642F"/>
<path d="M283.111 225.29C286.692 224.792 288.326 226.663 288.563 227.642C288.801 228.62 283.905 240.503 281.52 240.545C279.712 240.578 279.211 230.458 279.547 229.141C279.88 227.82 283.111 225.29 283.111 225.29Z" fill="#93642F"/>
<path d="M283.458 224.619C283.6 226.645 279.904 231.191 278.721 231.784C277.799 232.245 256.88 217.961 244.609 206.424C242.108 204.069 239.967 201.829 238.425 199.862C237.882 199.164 237.407 198.502 237.029 197.873C237.029 197.873 236.366 183.813 237.549 180.449C238.735 177.086 242.369 175.913 244.81 177.428C247.251 178.934 249.985 188.243 259.318 200.986C268.65 213.705 283.303 222.59 283.455 224.616L283.458 224.619Z" fill="#A7D9EA"/>
<path d="M244.609 206.43C242.109 204.075 239.968 201.835 238.426 199.868C239.325 192.182 242.642 177.542 242.642 177.542C244.56 187.952 244.998 200.616 244.609 206.43Z" fill="#388477"/>
<path d="M252.95 255.481C252.666 256.512 244.658 259.318 243.782 258.725C242.905 258.146 229.201 231.864 223.93 184.9C223.776 183.527 223.634 182.13 223.492 180.707C223.492 180.707 229.165 179.037 234.426 177.828C238.429 176.905 242.207 176.24 243.037 176.787C243.251 176.928 243.403 177.189 243.521 177.581C243.627 177.959 243.686 178.434 243.713 179.027C243.913 183.303 242.293 193.051 242.48 205.45C242.777 224.544 253.259 254.44 252.95 255.481Z" fill="#A7D9EA"/>
<path d="M231.536 222.209C232.584 223.257 234.745 217.719 233.46 217.126C232.178 216.533 230.004 220.681 231.536 222.209Z" fill="#388477"/>
<path d="M251.906 212.21C252.901 213.096 254.14 208.876 252.928 208.448C251.715 208.016 250.671 211.11 251.906 212.21Z" fill="#388477"/>
<path d="M245.498 177.542C245.001 178.063 244.398 178.56 243.709 179.021C238.758 182.385 229.353 184.424 223.93 184.895C223.776 183.521 223.634 182.125 223.492 180.701C223.492 180.701 229.165 179.031 234.426 177.822C237.803 177.681 241.38 177.608 243.521 177.572C244.74 177.549 245.498 177.536 245.498 177.536V177.542Z" fill="#388477"/>
<path d="M246.293 177.836C245.203 179.127 224.808 183.664 223.019 181.792C221.883 180.606 221.053 170.173 221.148 160.627C221.171 157.049 221.339 153.59 221.669 150.796C221.847 149.222 222.084 147.858 222.38 146.794C225.081 136.951 233.548 134.737 234.045 135.6C242.228 149.92 247.381 176.558 246.293 177.836Z" fill="#A7D9EA"/>
<path d="M233.785 143.394C232.079 151.722 226.94 159.585 221.148 160.626C221.171 157.049 221.34 153.59 221.669 150.796C225.365 148.263 233.785 143.394 233.785 143.394Z" fill="#388477"/>
<path d="M230.812 137.322C225.726 137.111 217.668 146.737 213.705 148.207C209.745 149.679 195.84 151.369 195.517 151.517C195.194 151.666 193.498 156.297 194.061 157.401C194.628 158.505 212.278 160.932 219.944 158.356C227.61 155.783 232.532 147.406 233.757 143.499C234.884 139.912 232.891 137.408 230.809 137.322H230.812Z" fill="#A7D9EA"/>
<path d="M223.914 123.094C223.763 123.559 223.48 123.885 223.285 123.822C223.088 123.76 223.051 123.328 223.203 122.864C223.354 122.399 223.638 122.073 223.832 122.136C224.03 122.198 224.066 122.63 223.914 123.094Z" fill="#6F573C"/>
<path d="M225.615 122.139C225.658 122.537 223.761 121.256 223.754 121.009C223.744 120.762 224.034 120.748 224.439 120.89C224.845 121.032 225.606 122.036 225.619 122.139H225.615Z" fill="#6F573C"/>
<path d="M222.298 128.171C222.233 128.559 221.702 128.797 221.112 128.701C220.523 128.602 220.098 128.207 220.16 127.818C220.223 127.429 220.757 127.192 221.346 127.288C221.936 127.387 222.361 127.782 222.298 128.171Z" fill="#DB6857"/>
<path d="M221.831 128.271C221.136 128.271 220.405 128.139 219.986 127.879C219.954 127.856 219.947 127.819 219.973 127.793C220 127.767 220.049 127.76 220.082 127.783C220.856 128.261 222.826 128.281 223.324 127.813C223.353 127.79 223.399 127.783 223.436 127.806C223.469 127.829 223.472 127.869 223.445 127.892C223.169 128.146 222.52 128.271 221.835 128.271H221.831Z" fill="#6F573C"/>
<path d="M226.168 125.182C226.125 125.538 225.585 125.769 224.956 125.696C224.327 125.624 223.852 125.275 223.895 124.919C223.938 124.563 224.478 124.332 225.108 124.405C225.737 124.477 226.211 124.827 226.168 125.182Z" fill="#DC7269"/>
<path d="M230.766 128.153C230.766 128.153 231.336 126.687 231.632 126.723C231.929 126.759 231.892 127.217 231.632 127.593C231.276 128.11 230.766 128.153 230.766 128.153Z" fill="#D09082"/>
<path d="M88.2917 141.034C86.0648 148.39 77.4206 160.196 75.1969 163.029C72.97 165.863 68.9081 166.561 57.4111 166.32C54.7987 166.264 52.5553 165.586 50.6973 164.462C44.3525 160.638 42.422 151.753 45.3836 145.777C49.2083 138.052 60.758 140.757 66.6087 134.208C71.0593 129.224 65.8543 118.428 71.3723 113.371C75.9711 109.142 80.6424 113.223 81.176 115.21C81.176 115.21 80.5699 124.625 83.6962 127.237C84.5066 127.919 85.3697 128.67 86.1241 129.553C88.351 132.053 89.9488 135.568 88.295 141.03L88.2917 141.034Z" fill="#4B494A"/>
<path d="M78.2508 144.069C74.3504 143.829 71.2439 139.527 72.8614 138.716C74.4624 137.906 75.7867 135.847 74.9203 130.329C74.2219 125.898 78.1191 131.156 79.6839 133.419C79.6839 133.419 79.7036 133.439 79.7201 133.455C80.0891 134.005 80.3263 134.358 80.3263 134.358C80.3987 135.185 80.4547 135.903 80.5272 136.493C80.8039 138.608 81.3178 139.418 83.3768 139.639C86.0056 139.932 82.1645 144.29 78.2443 144.069H78.2508Z" fill="#E7AFA1"/>
<path d="M80.5316 136.491C77.8468 136.913 75.2344 132.189 75.0137 130.736C75.0137 130.736 77.939 132.189 79.1151 133.036C79.2798 133.148 79.4643 133.276 79.685 133.421C79.685 133.421 79.7048 133.441 79.7212 133.457C80.0902 134.008 80.3274 134.36 80.3274 134.36C80.3998 135.187 80.4558 135.905 80.5283 136.495L80.5316 136.491Z" fill="#D09082"/>
<path d="M85.0736 127.497C85.0539 127.866 85.0176 128.215 84.9649 128.564C84.5959 131.71 83.4759 134.046 81.4894 134.596C78.1787 135.515 74.041 132.148 73.7479 125.639C73.4349 119.11 74.5022 117.657 77.4275 117.657C80.3529 117.657 84.8595 121.574 84.8595 121.574C85.1362 123.633 85.2285 125.675 85.0802 127.497H85.0736Z" fill="#E7AFA1"/>
<path d="M73.853 126.017C73.2403 125.289 72.0807 125.365 72.0511 126.936C72.0214 128.518 74.2912 130.211 74.8677 128.89C75.4277 127.602 73.853 126.017 73.853 126.017Z" fill="#E7AFA1"/>
<path d="M72.2554 268.838H59.859C59.8392 268.838 59.8393 268.818 59.8393 268.818C58.1097 266.427 63.4432 264.588 63.4432 264.588C63.4432 264.588 64.4743 262.767 65.7788 262.012C66.2005 261.755 66.9549 261.699 67.7653 261.719C69.4388 261.775 71.4055 262.197 71.4055 262.197C71.8107 263.007 72.0479 263.926 72.1763 264.881C72.3773 266.186 72.3608 267.547 72.2488 268.835L72.2554 268.838Z" fill="#93642F"/>
<path d="M107.808 268.838H90.6116C90.4469 268.047 90.5556 266.743 90.8685 265.455C91.1617 264.203 91.6229 262.991 92.1566 262.309C92.1566 262.309 94.0146 261.518 95.1742 261.353C95.5596 261.281 95.8726 261.298 96.001 261.482H96.0208L96.0406 261.502C96.1526 261.759 96.7752 261.963 97.6581 262.184C99.2591 262.605 101.703 263.047 103.561 263.857C106.302 265.017 107.884 267.425 107.811 268.841L107.808 268.838Z" fill="#93642F"/>
<path d="M99.492 261.739C98.7212 262.493 91.0488 263.264 89.2105 261.887C87.8665 260.876 84.7237 229.461 83.1227 212.654C82.6813 208.019 82.3683 204.487 82.2201 203.018C82.1838 202.521 82.1641 202.264 82.1641 202.264C82.1641 202.264 74.2018 261.742 72.5085 262.203C70.8152 262.664 63.6238 263.271 62.8529 261.89C62.0821 260.51 67.5967 193.069 68.5191 188.322C69.4382 183.579 71.1315 176.219 73.8888 174.529C76.6461 172.836 90.4426 178.061 90.4426 178.061C95.8123 198.439 100.246 260.971 99.492 261.742V261.739Z" fill="#A7D9EA"/>
<path d="M76.0466 180.044C75.9906 181.194 87.771 181.451 88.9504 178.924C90.1792 176.285 75.2988 178.235 75.2988 178.868C75.2988 179.5 76.0466 180.047 76.0466 180.047V180.044Z" fill="#388477"/>
<path d="M72.5688 139.122C74.6376 142.397 81.0351 143.036 82.455 139.293C83.0875 137.627 88.7767 143.546 87.3964 150.731C86.6025 154.862 91.9755 176.595 90.4436 178.051C88.9118 179.507 81.0944 181.345 75.9586 178.588C70.8228 175.83 71.4389 141.422 71.5147 140.041C71.5904 138.661 72.5688 139.122 72.5688 139.122Z" fill="#A7D9EA"/>
<path d="M72.859 138.722C76.3081 147.172 77.5731 165.791 76.5387 179.242C75.5043 192.692 75.5043 200.622 74.0087 202.691C72.5131 204.759 63.5493 206.255 62.7422 205.448C61.9384 204.644 67.9143 179.239 68.3755 169.468C68.8367 159.697 68.3755 155.675 67.2258 151.652C66.0761 147.63 63.8524 141.575 65.0021 140.887C66.1518 140.198 69.2946 139.585 70.2137 139.43C71.1328 139.276 72.859 138.722 72.859 138.722Z" fill="white"/>
<path d="M68.6809 140.23C68.872 141.38 70.9804 143.564 70.9804 143.564C70.9804 143.564 67.4159 144.025 67.8771 145.136C68.3383 146.246 73.4708 148.621 73.8925 150.041C74.3142 151.457 73.6257 143.337 72.7428 142.148C71.8599 140.958 68.6809 140.23 68.6809 140.23Z" fill="#D0D4F2"/>
<path d="M72.8574 138.722C72.6268 138.261 72.6005 138.178 71.9383 138.551C71.0159 139.068 68.2717 139.255 68.3739 139.585C68.9207 141.331 72.3402 143.884 72.3402 143.884C72.3402 143.884 68.3739 144.411 68.3739 144.757C68.3739 145.103 71.879 146.71 74.0071 151.481C76.1352 156.251 76.4218 157.687 76.4218 157.687C76.4218 157.687 75.9606 149.639 74.9855 145.386C74.0071 141.133 73.032 139.064 72.8574 138.718V138.722Z" fill="white"/>
<path d="M68.9869 149.543C69.1417 147.626 65.0008 140.882 65.0008 140.882C62.9122 142.447 57.4997 150.709 54.6172 158.266C56.8738 159.255 59.3939 160.085 61.5978 161.485C64.2991 157.153 68.8815 150.848 68.9869 149.543Z" fill="white"/>
<path d="M121.423 149.699C122.171 147.459 126.997 145.446 127.287 145.907C127.574 146.368 126.022 147.63 126.022 147.63C126.022 147.63 128.723 147.169 131.194 147.801C133.665 148.434 134.814 150.157 134.584 150.387C134.353 150.618 124.757 150.674 123.317 152.226C121.881 153.777 121.42 149.696 121.42 149.696L121.423 149.699Z" fill="#E7AFA1"/>
<path d="M134.222 122.473H140.405V140.852C140.405 142.558 139.019 143.945 137.312 143.945C135.606 143.945 134.219 142.558 134.219 140.852V122.473H134.222Z" fill="white"/>
<path d="M140.266 122.826H134.359C133.918 122.826 133.559 122.467 133.559 122.025C133.559 121.584 133.918 121.225 134.359 121.225H140.266C140.707 121.225 141.066 121.584 141.066 122.025C141.066 122.467 140.707 122.826 140.266 122.826Z" fill="white"/>
<path d="M140.023 126.995V140.825C140.023 142.32 138.81 143.532 137.311 143.532C135.813 143.532 134.604 142.32 134.604 140.825V126.995H140.023Z" fill="#FECB01"/>
<path d="M136.698 133.543C137.038 133.543 137.314 133.267 137.314 132.927C137.314 132.587 137.038 132.311 136.698 132.311C136.358 132.311 136.082 132.587 136.082 132.927C136.082 133.267 136.358 133.543 136.698 133.543Z" fill="#FFE169"/>
<path d="M136.358 125.932C136.698 125.932 136.974 125.656 136.974 125.316C136.974 124.976 136.698 124.7 136.358 124.7C136.018 124.7 135.742 124.976 135.742 125.316C135.742 125.656 136.018 125.932 136.358 125.932Z" fill="#FECB01"/>
<path d="M139.181 128.751C139.181 128.988 138.99 129.182 138.75 129.182C138.509 129.182 138.318 128.991 138.318 128.751C138.318 128.51 138.509 128.319 138.75 128.319C138.99 128.319 139.181 128.51 139.181 128.751Z" fill="#FFE169"/>
<path d="M139.184 118.367C139.422 118.367 139.615 118.174 139.615 117.936C139.615 117.698 139.422 117.504 139.184 117.504C138.945 117.504 138.752 117.698 138.752 117.936C138.752 118.174 138.945 118.367 139.184 118.367Z" fill="#FECB01"/>
<path d="M138.322 124.959C138.561 124.959 138.754 124.766 138.754 124.528C138.754 124.289 138.561 124.096 138.322 124.096C138.084 124.096 137.891 124.289 137.891 124.528C137.891 124.766 138.084 124.959 138.322 124.959Z" fill="#FECB01"/>
<path d="M139.076 136.898C139.076 137.158 138.865 137.366 138.608 137.366C138.351 137.366 138.141 137.155 138.141 136.898C138.141 136.641 138.351 136.43 138.608 136.43C138.865 136.43 139.076 136.641 139.076 136.898Z" fill="#FFE169"/>
<path d="M126.716 143.945C125.01 143.945 123.623 142.562 123.623 140.852V122.473H129.806V140.852C129.806 142.558 128.423 143.945 126.713 143.945H126.716Z" fill="white"/>
<path d="M129.668 122.826H123.761C123.32 122.826 122.961 122.467 122.961 122.025C122.961 121.584 123.32 121.225 123.761 121.225H129.668C130.11 121.225 130.469 121.584 130.469 122.025C130.469 122.467 130.11 122.826 129.668 122.826Z" fill="white"/>
<path d="M129.425 131.354V140.821C129.425 142.317 128.213 143.529 126.714 143.529C125.215 143.529 124.006 142.317 124.006 140.821V131.354H129.425Z" fill="#0093CA"/>
<path d="M125.587 135.738C125.927 135.738 126.203 135.462 126.203 135.122C126.203 134.782 125.927 134.506 125.587 134.506C125.247 134.506 124.971 134.782 124.971 135.122C124.971 135.462 125.247 135.738 125.587 135.738Z" fill="#75C3E0"/>
<path d="M127.539 133.798C127.777 133.798 127.971 133.605 127.971 133.367C127.971 133.128 127.777 132.935 127.539 132.935C127.301 132.935 127.107 133.128 127.107 133.367C127.107 133.605 127.301 133.798 127.539 133.798Z" fill="#75C3E0"/>
<path d="M126.674 138.542C126.674 138.802 126.463 139.009 126.206 139.009C125.949 139.009 125.738 138.798 125.738 138.542C125.738 138.285 125.949 138.074 126.206 138.074C126.463 138.074 126.674 138.285 126.674 138.542Z" fill="#75C3E0"/>
<path d="M127.689 126.416C128.091 126.416 128.417 126.09 128.417 125.687C128.417 125.285 128.091 124.959 127.689 124.959C127.287 124.959 126.961 125.285 126.961 125.687C126.961 126.09 127.287 126.416 127.689 126.416Z" fill="#0093CA"/>
<path d="M125.586 119.815C125.586 120.053 125.395 120.247 125.154 120.247C124.914 120.247 124.723 120.056 124.723 119.815C124.723 119.575 124.914 119.384 125.154 119.384C125.395 119.384 125.586 119.575 125.586 119.815Z" fill="#0093CA"/>
<path d="M116.119 143.945C114.412 143.945 113.025 142.562 113.025 140.852V122.473H119.209V140.852C119.209 142.558 117.825 143.945 116.115 143.945H116.119Z" fill="white"/>
<path d="M119.068 122.826H113.162C112.72 122.826 112.361 122.467 112.361 122.025C112.361 121.584 112.72 121.225 113.162 121.225H119.068C119.51 121.225 119.869 121.584 119.869 122.025C119.869 122.467 119.51 122.826 119.068 122.826Z" fill="white"/>
<path d="M118.827 137.363V140.822C118.827 142.317 117.615 143.53 116.116 143.53C114.617 143.53 113.408 142.317 113.408 140.822V137.363H118.827Z" fill="#FD7F00"/>
<path d="M116.696 141.91C117.036 141.91 117.312 141.634 117.312 141.294C117.312 140.954 117.036 140.678 116.696 140.678C116.356 140.678 116.08 140.954 116.08 141.294C116.08 141.634 116.356 141.91 116.696 141.91Z" fill="#FFAA54"/>
<path d="M115.25 134.226C115.25 134.463 115.059 134.658 114.818 134.658C114.578 134.658 114.387 134.466 114.387 134.226C114.387 133.986 114.578 133.794 114.818 133.794C115.059 133.794 115.25 133.986 115.25 134.226Z" fill="#FD7F00"/>
<path d="M116.512 131.072C116.75 131.072 116.943 130.879 116.943 130.641C116.943 130.402 116.75 130.209 116.512 130.209C116.273 130.209 116.08 130.402 116.08 130.641C116.08 130.879 116.273 131.072 116.512 131.072Z" fill="#FD7F00"/>
<path d="M115.502 138.937C115.502 139.197 115.291 139.404 115.034 139.404C114.777 139.404 114.566 139.193 114.566 138.937C114.566 138.68 114.777 138.469 115.034 138.469C115.291 138.469 115.502 138.68 115.502 138.937Z" fill="#FFAA54"/>
<path d="M143.991 127.657H109.438V128.118H143.991V127.657Z" fill="#4483AB"/>
<path d="M142.727 146.419V126.215H142.127V146.419H142.727Z" fill="#1B5C85"/>
<path d="M111.299 146.419V126.215H110.699V146.419H111.299Z" fill="#1B5C85"/>
<path d="M144.628 147.906H108.806C108.305 147.906 107.896 147.501 107.896 146.997C107.896 146.496 108.302 146.087 108.806 146.087H144.628C145.129 146.087 145.537 146.493 145.537 146.997C145.537 147.497 145.132 147.906 144.628 147.906Z" fill="#00426B"/>
<path d="M82.4551 139.294C86.0755 140.385 88.7208 140.158 90.6744 141.307C92.6279 142.457 103.894 157.054 103.894 157.054C103.894 157.054 118.877 149.774 121.137 149.237C121.598 149.128 124.125 151.767 124.009 152.57C123.894 153.374 110.674 164.45 104.085 164.41C100.972 164.394 87.917 154.524 87.917 152.801C87.917 151.078 82.4584 139.294 82.4584 139.294H82.4551Z" fill="white"/>
<path d="M82.4551 139.294C82.4551 139.294 87.2252 168.432 88.3749 178.895C89.5247 189.354 89.4093 199.929 90.3284 200.16C91.2475 200.39 96.3043 197.86 96.5349 196.137C96.7655 194.414 92.3973 160.849 91.2476 153.493C90.0978 146.137 82.4551 139.298 82.4551 139.298V139.294Z" fill="white"/>
<path d="M87.3039 140.615C86.9975 141.689 85.6567 143.412 85.6567 143.412C85.6567 143.412 89.4122 143.643 88.951 144.908C88.4898 146.173 86.1146 150.923 85.8083 153.759C85.5019 156.596 83.5088 143.722 84.3126 142.381C85.1164 141.04 87.3006 140.619 87.3006 140.619L87.3039 140.615Z" fill="#D0D4F2"/>
<path d="M82.454 138.432C84.3614 139.387 86.4698 139.98 87.1484 140.118C88.644 140.425 84.7535 143.604 84.7535 143.604C84.7535 143.604 88.2586 144.177 88.3179 144.582C88.3772 144.987 87.1682 146.882 86.3051 151.652C85.442 156.422 85.9032 161.307 85.9032 161.307C85.9032 161.307 83.3732 147.399 82.856 143.202C82.3388 139.005 81.9928 138.201 82.454 138.432Z" fill="white"/>
<path d="M87.0235 173.971C87.0795 174.32 86.839 174.653 86.4898 174.706L70.048 177.631C69.6989 177.687 69.3661 177.466 69.2936 177.117L68.7237 173.843L67.8969 169.264L64.9188 152.381C64.8628 152.031 65.0836 151.699 65.4327 151.646L81.8943 148.721C82.2435 148.665 82.5762 148.885 82.6289 149.234L87.0235 173.971Z" fill="#2C408A"/>
<path d="M81.7055 159.521C81.2081 162.41 71.849 171.548 68.7194 173.847L67.8926 169.268C72.5441 165.921 81.7055 159.521 81.7055 159.521Z" fill="#1F306E"/>
<path d="M71.6282 165.218C72.3958 164.951 72.3563 164.183 72.8175 162.882C73.2951 161.531 76.764 158.053 77.1857 158.323C77.6074 158.593 75.9965 161.386 75.9965 161.386C75.9965 161.386 81.3991 157.209 82.0118 157.707C82.6246 158.204 81.5506 160.925 78.7176 163.646C76.0492 166.206 72.778 168.703 71.7831 168.36C70.7882 168.015 71.6282 165.218 71.6282 165.218Z" fill="#E7AFA1"/>
<path d="M73.8521 126.017C75.9967 125.365 75.8814 121.342 75.8814 121.342C75.8814 121.342 79.482 123.833 84.5421 122.416C89.5988 121 88.6434 116.516 87.53 115.096C86.5713 113.874 83.2013 111.532 78.8693 116.016C74.5406 120.499 76.6852 112.912 74.3857 114.253C72.0863 115.594 70.2053 121.705 71.5494 123.296C73.0384 125.055 73.8488 126.017 73.8488 126.017H73.8521Z" fill="#4B494A"/>
<path d="M71.7629 164.323C71.0744 164.248 60.3844 166.939 59.6926 165.559C59.4719 165.117 60.3284 163.516 61.5967 161.487C59.3928 160.09 56.876 159.257 54.6161 158.269C52.8438 162.92 52.0268 167.305 53.5422 169.696C57.5282 175.979 72.7676 169.486 72.9982 168.491C73.2288 167.496 72.4514 164.399 71.7629 164.323Z" fill="white"/>
<path d="M82.5557 129.324C82.5359 129.324 82.5161 129.308 82.5128 129.281C82.5095 129.255 82.5227 129.228 82.5458 129.222C83.1651 129.083 83.1816 128.593 83.175 128.467C83.0366 128.408 82.414 128.108 82.1274 127.41C81.9363 126.942 81.933 126.399 82.1241 125.796C82.134 125.769 82.157 125.76 82.1801 125.766C82.2032 125.776 82.213 125.806 82.2064 125.832C82.0253 126.409 82.0253 126.926 82.2064 127.364C82.5095 128.102 83.2244 128.382 83.231 128.382L83.2573 128.392V128.421C83.2573 128.421 83.3463 129.146 82.5655 129.321H82.559L82.5557 129.324Z" fill="#6F573C"/>
<path d="M83.3045 126.357C83.2847 126.835 83.4362 127.23 83.6372 127.237C83.8381 127.243 84.0193 126.865 84.0358 126.387C84.0523 125.909 83.904 125.514 83.7031 125.507C83.5021 125.501 83.3209 125.88 83.3045 126.357Z" fill="#6F573C"/>
<path d="M79.6013 126.34C79.5816 126.818 79.7331 127.213 79.9341 127.22C80.135 127.226 80.3162 126.848 80.3327 126.37C80.3491 125.892 80.2009 125.497 79.9999 125.49C79.799 125.484 79.6178 125.863 79.6013 126.34Z" fill="#6F573C"/>
<path d="M78.0599 124.664C77.9017 124.981 79.8618 124.5 79.9442 124.299C80.0265 124.098 79.7926 123.999 79.4138 123.992C79.035 123.986 78.0994 124.585 78.0599 124.668V124.664Z" fill="#6F573C"/>
<path d="M84.9028 124.664C85.0609 124.981 83.1008 124.5 83.0184 124.299C82.9361 124.098 83.17 123.999 83.5488 123.992C83.9277 123.986 84.8632 124.585 84.9028 124.668V124.664Z" fill="#6F573C"/>
<path d="M80.6654 131.275C80.6951 131.664 81.1958 131.944 81.7822 131.901C82.3719 131.858 82.8232 131.506 82.7935 131.117C82.7639 130.728 82.2631 130.448 81.6768 130.491C81.0904 130.534 80.6358 130.886 80.6654 131.275Z" fill="#C85876"/>
<path d="M81.1122 131.411C81.7941 131.471 82.5255 131.411 82.9603 131.191C82.9965 131.171 83.0065 131.135 82.9834 131.108C82.957 131.079 82.9109 131.069 82.878 131.089C82.0741 131.49 80.1371 131.332 79.6891 130.832C79.6627 130.805 79.6166 130.799 79.5804 130.815C79.5474 130.835 79.5376 130.871 79.5639 130.901C79.811 131.174 80.4369 131.355 81.1122 131.418V131.411Z" fill="#6F573C"/>
<path d="M77.7628 127.972C77.7035 128.255 78.0297 128.558 78.4843 128.654C78.9422 128.746 79.3573 128.594 79.4166 128.311C79.4759 128.028 79.1497 127.725 78.6951 127.629C78.2372 127.537 77.8221 127.688 77.7628 127.972Z" fill="#E06F8D"/>
<path d="M85.0736 127.498C85.0538 127.867 85.0175 128.216 84.9648 128.565C84.6519 128.621 84.3949 128.509 84.3224 128.308C84.2302 128.051 84.5069 127.702 84.9286 127.537C84.9846 127.517 85.0208 127.501 85.0769 127.501L85.0736 127.498Z" fill="#E06F8D"/>
<path d="M74.0061 127.892C73.8282 127.206 73.3999 126.419 73.1628 126.636C72.9256 126.854 74.1807 128.564 74.0061 127.892Z" fill="#D09082"/>
<path d="M83.1227 212.652C82.6813 208.017 82.3683 204.485 82.2201 203.016C82.1838 202.538 82.1641 202.262 82.1641 202.262C82.6055 199.705 85.88 189.901 86.137 189.147C85.9888 190.05 83.6893 203.016 83.1194 212.652H83.1227Z" fill="#388477"/>
<path d="M63.4453 264.59C65.1122 264.165 66.0873 265.44 66.0873 265.44C66.0873 265.44 65.0925 264.877 64.4863 264.725C63.8802 264.574 63.4453 264.59 63.4453 264.59Z" fill="#745B86"/>
<path d="M75.0432 223.148C74.7071 222.143 70.7902 219.699 69.9864 221.079C69.1826 222.46 75.735 225.217 75.0432 223.148Z" fill="#388477"/>
<path d="M93.05 222.923C92.7535 224.406 96.4991 221.543 95.6953 220.508C94.8915 219.474 93.1653 222.347 93.05 222.923Z" fill="#388477"/>
<g opacity="0.5">
<path d="M291.162 213.074C289.465 213.034 288.118 211.628 288.157 209.928L288.579 191.658L294.726 191.799L294.304 210.069C294.265 211.766 292.858 213.113 291.158 213.074H291.162Z" fill="#80CDBF"/>
<path d="M294.582 192.139L288.711 192.004C288.273 191.995 287.924 191.629 287.934 191.191C287.944 190.753 288.309 190.403 288.747 190.413L294.618 190.548C295.056 190.558 295.405 190.924 295.395 191.362C295.386 191.8 295.02 192.149 294.582 192.139Z" fill="#80CDBF"/>
</g>
<g opacity="0.5">
<path d="M225.124 63.7434C223.546 64.2737 221.839 63.4271 221.305 61.8491L215.59 44.877L221.302 42.9531L227.018 59.9253C227.548 61.5033 226.702 63.2097 225.124 63.7434Z" fill="#80CDBF"/>
<path d="M221.282 43.3189L215.827 45.1571C215.419 45.2955 214.977 45.0748 214.842 44.6663C214.704 44.2578 214.924 43.8163 215.333 43.6813L220.788 41.8431C221.197 41.7047 221.638 41.9254 221.773 42.3339C221.912 42.7424 221.691 43.1838 221.282 43.3189Z" fill="#80CDBF"/>
<path d="M222.354 47.2421L226.656 60.0107C227.12 61.391 226.379 62.8899 224.996 63.3544C223.615 63.8189 222.116 63.0777 221.652 61.6941L217.35 48.9254L222.354 47.2388V47.2421Z" fill="#80CDBF"/>
<path d="M221.699 53.5646C221.804 53.8775 221.636 54.2201 221.32 54.3256C221.007 54.431 220.664 54.263 220.559 53.9467C220.453 53.6337 220.621 53.2912 220.938 53.1857C221.251 53.0803 221.593 53.2483 221.699 53.5646Z" fill="#80CDBF"/>
<path d="M219.021 46.6432C219.126 46.9562 218.958 47.2987 218.642 47.4042C218.329 47.5096 217.986 47.3416 217.881 47.0253C217.776 46.7124 217.944 46.3698 218.26 46.2644C218.573 46.1589 218.915 46.327 219.021 46.6432Z" fill="#80CDBF"/>
<path d="M222.124 49.1294C222.197 49.3501 222.081 49.5873 221.861 49.6597C221.64 49.7322 221.403 49.6169 221.33 49.3962C221.258 49.1755 221.373 48.9383 221.594 48.8659C221.814 48.7934 222.052 48.9087 222.124 49.1294Z" fill="#80CDBF"/>
<path d="M220.413 45.3638C220.486 45.5845 220.37 45.8217 220.15 45.8942C219.929 45.9666 219.692 45.8513 219.619 45.6306C219.547 45.4099 219.662 45.1727 219.883 45.1002C220.104 45.0277 220.341 45.1431 220.413 45.3638Z" fill="#80CDBF"/>
<path d="M224.561 56.6791C224.64 56.9195 224.511 57.1765 224.274 57.2589C224.034 57.3379 223.777 57.2095 223.695 56.9723C223.612 56.7351 223.744 56.4748 223.981 56.3925C224.222 56.3134 224.479 56.4419 224.561 56.6791Z" fill="#80CDBF"/>
<path d="M215.338 67.0373C213.76 67.5677 212.054 66.7211 211.52 65.1431L205.805 48.1709L211.517 46.2471L217.233 63.2192C217.763 64.7972 216.916 66.5036 215.338 67.0373Z" fill="#80CDBF"/>
<path d="M211.499 46.6094L206.044 48.4477C205.635 48.586 205.194 48.3653 205.059 47.9568C204.921 47.5483 205.141 47.1069 205.55 46.9718L211.005 45.1336C211.414 44.9952 211.855 45.2159 211.99 45.6244C212.128 46.0329 211.908 46.4744 211.499 46.6094Z" fill="#80CDBF"/>
<path d="M213.928 54.5658L216.873 63.3088C217.337 64.6892 216.596 66.1881 215.213 66.6526C213.832 67.117 212.333 66.3758 211.869 64.9922L208.924 56.2492L213.928 54.5625V54.5658Z" fill="#80CDBF"/>
<path d="M212.122 59.0504C212.228 59.3634 212.06 59.706 211.744 59.8114C211.431 59.9168 211.088 59.7488 210.983 59.4326C210.877 59.1196 211.045 58.777 211.361 58.6716C211.674 58.5662 212.017 58.7342 212.122 59.0504Z" fill="#80CDBF"/>
<path d="M213.208 56.8726C213.281 57.0933 213.165 57.3305 212.945 57.4029C212.724 57.4754 212.487 57.3601 212.414 57.1394C212.342 56.9187 212.457 56.6815 212.678 56.609C212.898 56.5365 213.136 56.6519 213.208 56.8726Z" fill="#80CDBF"/>
<path d="M213.62 62.0604C213.699 62.3009 213.571 62.5579 213.334 62.6402C213.093 62.7193 212.836 62.5908 212.754 62.3536C212.675 62.1131 212.803 61.8562 213.04 61.7738C213.281 61.6947 213.538 61.8232 213.62 62.0604Z" fill="#80CDBF"/>
<path d="M211.236 49.6523C211.361 50.0245 211.16 50.4264 210.788 50.5516C210.416 50.6768 210.014 50.4758 209.889 50.1036C209.764 49.7313 209.965 49.3294 210.337 49.2042C210.709 49.079 211.111 49.28 211.236 49.6523Z" fill="#80CDBF"/>
<path d="M205.557 70.3317C203.979 70.8621 202.273 70.0155 201.739 68.4375L196.023 51.4654L201.736 49.5415L207.451 66.5137C207.982 68.0916 207.135 69.7981 205.557 70.3317Z" fill="#80CDBF"/>
<path d="M201.712 49.9107L196.257 51.7489C195.848 51.8873 195.407 51.6665 195.272 51.258C195.133 50.8496 195.354 50.4081 195.763 50.2731L201.218 48.4349C201.626 48.2965 202.068 48.5172 202.203 48.9257C202.341 49.3342 202.121 49.7756 201.712 49.9107Z" fill="#80CDBF"/>
<path d="M206.01 63.4115L207.084 66.6037C207.548 67.984 206.807 69.4829 205.424 69.9474C204.043 70.4119 202.544 69.6707 202.08 68.2871L201.006 65.0949L206.01 63.4082V63.4115Z" fill="#80CDBF"/>
<path d="M205.833 67.5182C205.939 67.8312 205.771 68.1737 205.455 68.2792C205.142 68.3846 204.799 68.2166 204.694 67.9003C204.588 67.5874 204.756 67.2448 205.072 67.1394C205.385 67.0339 205.728 67.202 205.833 67.5182Z" fill="#80CDBF"/>
<path d="M201.728 61.6265C201.8 61.8472 201.685 62.0844 201.464 62.1569C201.243 62.2293 201.006 62.114 200.934 61.8933C200.861 61.6726 200.977 61.4354 201.197 61.3629C201.418 61.2904 201.655 61.4058 201.728 61.6265Z" fill="#80CDBF"/>
<path d="M202.177 57.7949C202.249 58.0157 202.134 58.2528 201.913 58.3253C201.693 58.3978 201.455 58.2825 201.383 58.0618C201.31 57.841 201.426 57.6039 201.646 57.5314C201.867 57.4589 202.104 57.5742 202.177 57.7949Z" fill="#80CDBF"/>
<path d="M203.429 65.892C203.508 66.1324 203.379 66.3894 203.142 66.4718C202.902 66.5508 202.645 66.4223 202.562 66.1852C202.483 65.9447 202.612 65.6877 202.849 65.6054C203.089 65.5263 203.346 65.6548 203.429 65.892Z" fill="#80CDBF"/>
<path d="M226.212 46.6753L194.305 57.4194L194.448 57.844L226.355 47.0999L226.212 46.6753Z" fill="#80CDBF"/>
<path d="M230.839 64.3218L224.557 45.6646L224.004 45.8506L230.287 64.5079L230.839 64.3218Z" fill="#80CDBF"/>
<path d="M201.822 74.0928L195.539 55.4355L194.986 55.6216L201.269 74.2789L201.822 74.0928Z" fill="#80CDBF"/>
<path d="M233.109 65.1238L200.031 76.2651C199.567 76.4199 199.066 76.1729 198.911 75.7084C198.757 75.2439 199.004 74.7431 199.468 74.5883L232.546 63.447C233.011 63.2922 233.511 63.5393 233.666 64.0037C233.821 64.4682 233.574 64.969 233.109 65.1238Z" fill="#80CDBF"/>
</g>
<g opacity="0.5">
<path d="M51.6669 238.196C52.9579 233.69 50.3522 228.991 45.8468 227.7C41.3413 226.409 36.6424 229.015 35.3513 233.52C34.0603 238.026 36.666 242.725 41.1714 244.016C45.6768 245.307 50.3758 242.701 51.6669 238.196Z" fill="#80CDBF"/>
<path d="M36.3648 218.622L32.6426 220.686L39.2183 232.544L42.9406 230.48L36.3648 218.622Z" fill="#80CDBF"/>
<path d="M36.4092 218.821L32.8185 220.814C32.5088 220.985 32.1168 220.873 31.9455 220.563C31.7742 220.254 31.8862 219.862 32.1958 219.69L35.7866 217.697C36.0963 217.526 36.4883 217.638 36.6596 217.948C36.8309 218.257 36.7189 218.649 36.4092 218.821Z" fill="#80CDBF"/>
</g>
<g opacity="0.5">
<path d="M160.246 183.606L153.13 177.199L145.069 177.64C144.799 177.653 144.595 177.884 144.608 178.154C144.621 178.424 144.852 178.628 145.122 178.615L152.778 178.197L158.638 183.474L147.731 190.406C147.504 190.551 147.438 190.85 147.579 191.078C147.724 191.305 148.024 191.371 148.252 191.229L160.243 183.609L160.246 183.606Z" fill="#80CDBF"/>
<path d="M153.364 177.961C153.43 177.859 153.457 177.734 153.434 177.605L151.846 169.537L158.952 168.457C159.218 168.417 159.4 168.167 159.36 167.9C159.321 167.633 159.07 167.452 158.803 167.492L150.689 168.724L152.472 177.793C152.524 178.057 152.781 178.228 153.045 178.178C153.18 178.152 153.292 178.07 153.361 177.964L153.364 177.961Z" fill="#80CDBF"/>
<path d="M135.333 198.145C135.409 198.027 135.432 197.878 135.389 197.737C135.31 197.48 135.037 197.335 134.78 197.417L124.347 200.672C124.09 200.751 123.945 201.024 124.027 201.281C124.106 201.538 124.38 201.683 124.636 201.601L135.069 198.346C135.185 198.31 135.274 198.237 135.333 198.145Z" fill="#80CDBF"/>
<path d="M136.129 189.321C136.26 189.117 136.221 188.843 136.03 188.685L128.091 182.018L118.616 181.178C118.349 181.155 118.112 181.352 118.086 181.619C118.063 181.886 118.26 182.123 118.527 182.149L127.695 182.963L135.401 189.433C135.608 189.608 135.915 189.578 136.089 189.374C136.102 189.357 136.115 189.341 136.125 189.324L136.129 189.321Z" fill="#80CDBF"/>
<path d="M128.308 182.75C128.331 182.713 128.351 182.674 128.364 182.631L132.024 170.798C132.103 170.541 131.958 170.268 131.701 170.189C131.444 170.11 131.171 170.254 131.092 170.511L127.432 182.345C127.353 182.601 127.498 182.875 127.755 182.954C127.969 183.02 128.193 182.931 128.308 182.753V182.75Z" fill="#80CDBF"/>
<path d="M148.542 199.973C151.777 196.3 151.422 190.701 147.749 187.466C144.076 184.231 138.476 184.587 135.242 188.259C132.007 191.932 132.362 197.532 136.035 200.766C139.708 204.001 145.307 203.646 148.542 199.973Z" fill="#80CDBF"/>
<path d="M161.397 184.509C162.007 183.435 161.631 182.069 160.557 181.459C159.483 180.849 158.118 181.224 157.508 182.298C156.897 183.373 157.273 184.738 158.347 185.348C159.421 185.959 160.787 185.583 161.397 184.509Z" fill="#80CDBF"/>
<path d="M128.32 180.287C127.118 180.007 125.915 180.758 125.639 181.96C125.359 183.163 126.11 184.365 127.312 184.642C128.515 184.918 129.717 184.171 129.994 182.968C130.274 181.766 129.523 180.563 128.32 180.287Z" fill="#80CDBF"/>
<path d="M124.957 199.114C123.84 198.857 122.727 199.548 122.47 200.665C122.213 201.782 122.904 202.895 124.021 203.152C125.138 203.409 126.251 202.718 126.508 201.601C126.765 200.484 126.074 199.371 124.957 199.114Z" fill="#80CDBF"/>
<path d="M118.998 179.831C117.881 179.574 116.768 180.266 116.511 181.383C116.254 182.499 116.945 183.613 118.062 183.87C119.179 184.127 120.292 183.435 120.549 182.318C120.806 181.201 120.115 180.088 118.998 179.831Z" fill="#80CDBF"/>
<path d="M132.027 168.624C130.91 168.367 129.797 169.059 129.54 170.176C129.283 171.292 129.975 172.406 131.091 172.663C132.208 172.92 133.322 172.228 133.579 171.111C133.836 169.994 133.144 168.881 132.027 168.624Z" fill="#80CDBF"/>
<path d="M153.424 175.673C152.307 175.416 151.193 176.108 150.936 177.225C150.679 178.342 151.371 179.455 152.488 179.712C153.605 179.969 154.718 179.277 154.975 178.16C155.232 177.044 154.54 175.93 153.424 175.673Z" fill="#80CDBF"/>
<path d="M145.497 176.38C144.493 176.146 143.488 176.772 143.254 177.78C143.02 178.788 143.646 179.79 144.654 180.024C145.659 180.257 146.664 179.632 146.898 178.623C147.131 177.619 146.506 176.614 145.497 176.38Z" fill="#80CDBF"/>
<path d="M151.634 167.541C150.629 167.307 149.625 167.933 149.391 168.941C149.157 169.946 149.783 170.95 150.791 171.184C151.799 171.418 152.8 170.792 153.034 169.784C153.268 168.776 152.642 167.775 151.634 167.541Z" fill="#80CDBF"/>
<path d="M159.191 166.623C158.446 166.451 157.705 166.913 157.534 167.657C157.362 168.402 157.824 169.143 158.568 169.314C159.313 169.485 160.054 169.024 160.225 168.28C160.397 167.535 159.935 166.794 159.191 166.623Z" fill="#80CDBF"/>
</g>
<g opacity="0.5">
<path d="M277.476 144.262L272.861 141.805L265.036 156.504L269.65 158.961L277.476 144.262Z" fill="#80CDBF"/>
<path d="M277.312 144.432L272.858 142.06C272.473 141.856 272.328 141.378 272.532 140.993C272.736 140.607 273.214 140.462 273.599 140.667L278.053 143.039C278.439 143.243 278.584 143.721 278.379 144.106C278.175 144.491 277.697 144.636 277.312 144.432Z" fill="#80CDBF"/>
<path d="M272.722 147.685L253.496 159.735C251.539 160.961 251.641 163.843 253.681 164.93L269.048 173.11C271.088 174.194 273.535 172.668 273.459 170.362L272.722 147.685Z" fill="#80CDBF"/>
</g>
<g opacity="0.5">
<path d="M349.489 233.024L355.076 246.515C355.145 246.679 355.066 246.867 354.902 246.933C354.737 246.999 354.549 246.923 354.483 246.758L348.896 233.268C348.827 233.103 348.906 232.916 349.071 232.85C349.235 232.784 349.423 232.86 349.489 233.024Z" fill="#80CDBF"/>
<path d="M353.059 233.038L358.007 244.99C358.077 245.155 357.998 245.342 357.833 245.408C357.668 245.474 357.48 245.398 357.415 245.234L352.466 233.282C352.397 233.117 352.476 232.929 352.641 232.864C352.806 232.798 352.994 232.873 353.059 233.038Z" fill="#80CDBF"/>
<path d="M357.172 234.354L360.47 242.32C360.539 242.484 360.46 242.672 360.295 242.738C360.13 242.807 359.943 242.728 359.877 242.563L356.576 234.598C356.507 234.433 356.586 234.245 356.75 234.179C356.915 234.11 357.103 234.189 357.169 234.354H357.172Z" fill="#80CDBF"/>
<path d="M363.128 231.163L366.287 238.792C366.356 238.957 366.277 239.145 366.112 239.211C365.948 239.276 365.76 239.201 365.694 239.036L362.535 231.406C362.466 231.242 362.545 231.054 362.709 230.988C362.874 230.922 363.062 230.998 363.128 231.163Z" fill="#80CDBF"/>
<path d="M365.823 226.783L371.041 239.383C371.11 239.548 371.031 239.736 370.867 239.802C370.702 239.868 370.514 239.792 370.448 239.627L365.23 227.027C365.161 226.862 365.24 226.674 365.405 226.608C365.569 226.542 365.757 226.618 365.823 226.783Z" fill="#80CDBF"/>
<path d="M369.491 224.744L375.016 238.086C375.085 238.25 375.006 238.438 374.841 238.504C374.676 238.57 374.489 238.494 374.423 238.329L368.898 224.987C368.829 224.823 368.908 224.635 369.073 224.569C369.237 224.503 369.425 224.579 369.491 224.744Z" fill="#80CDBF"/>
<path d="M374.114 225.025L377.833 234.008C377.903 234.173 377.824 234.361 377.659 234.427C377.494 234.493 377.306 234.417 377.24 234.252L373.521 225.269C373.452 225.104 373.531 224.916 373.696 224.85C373.86 224.784 374.048 224.86 374.114 225.025Z" fill="#80CDBF"/>
<path d="M380.897 221.507L383.546 227.904C383.615 228.069 383.536 228.257 383.371 228.323C383.207 228.392 383.019 228.313 382.953 228.148L380.304 221.751C380.235 221.586 380.314 221.398 380.479 221.332C380.644 221.263 380.831 221.342 380.897 221.507Z" fill="#80CDBF"/>
<path d="M383.016 216.555L387.859 228.25C387.928 228.415 387.849 228.602 387.684 228.668C387.52 228.734 387.332 228.658 387.266 228.494L382.424 216.799C382.354 216.634 382.433 216.446 382.598 216.381C382.763 216.311 382.951 216.39 383.016 216.555Z" fill="#80CDBF"/>
<path d="M385.96 213.582L391.639 227.296C391.708 227.461 391.629 227.649 391.465 227.715C391.3 227.78 391.112 227.705 391.046 227.54L385.367 213.826C385.298 213.661 385.377 213.473 385.541 213.407C385.706 213.342 385.894 213.417 385.96 213.582Z" fill="#80CDBF"/>
<path d="M395.457 224.073C395.523 224.234 395.526 224.426 395.443 224.594C395.404 224.676 394.432 226.649 391.767 227.937C388.292 229.617 383.736 229.367 378.227 227.196C373.052 225.154 369.346 224.89 366.902 226.382C363.894 228.217 363.077 232.632 362.672 236.703C362.303 240.432 360.85 243.424 358.475 245.348C356.301 247.11 353.494 247.861 350.358 247.518C350.005 247.479 349.752 247.163 349.791 246.81C349.831 246.458 350.147 246.204 350.499 246.244C353.286 246.55 355.764 245.894 357.668 244.353C359.77 242.646 361.061 239.958 361.394 236.578C361.828 232.19 362.744 227.417 366.23 225.289C369.043 223.572 373.121 223.806 378.695 226.003C390.798 230.777 394.149 224.314 394.287 224.037C394.442 223.721 394.827 223.589 395.144 223.744C395.292 223.816 395.397 223.935 395.457 224.076V224.073Z" fill="#80CDBF"/>
<path d="M387.398 212.716C387.527 213.029 387.391 213.392 387.082 213.54C381.992 215.984 380.918 221.749 379.877 227.323C378.84 232.897 377.858 238.162 372.972 239.779C368.387 241.298 364.259 239.077 360.27 236.93C355.727 234.485 351.438 232.176 346.401 234.792C346.088 234.956 345.699 234.831 345.538 234.518C345.373 234.205 345.498 233.816 345.811 233.655C351.447 230.73 356.241 233.309 360.876 235.803C364.803 237.914 368.509 239.911 372.571 238.567C376.735 237.186 377.65 232.285 378.619 227.093C379.666 221.479 380.852 215.115 386.528 212.39C386.848 212.236 387.23 212.371 387.385 212.69C387.392 212.7 387.395 212.713 387.398 212.723V212.716Z" fill="#80CDBF"/>
</g>
<path d="M411.375 268.533H3.09125C2.80894 268.533 2.58008 268.654 2.58008 268.803V268.96C2.58008 269.109 2.80894 269.23 3.09125 269.23H411.375C411.657 269.23 411.886 269.109 411.886 268.96V268.803C411.886 268.654 411.657 268.533 411.375 268.533Z" fill="#93642F"/>
</svg>
