<svg width="461" height="300" viewBox="0 0 461 300" fill="none" xmlns="http://www.w3.org/2000/svg">
<g opacity="0.8">
<path d="M92.4965 237.172L72.8457 187.392L91.6401 146.325C92.2684 144.952 93.9141 144.339 95.3166 144.952C96.7192 145.565 97.3513 147.171 96.7229 148.54L78.8711 187.545L95.0548 228.547L154.247 185.592C155.481 184.701 157.224 184.946 158.144 186.151C159.06 187.355 158.806 189.056 157.572 189.951L92.5003 237.176L92.4965 237.172Z" fill="#AADDD5"/>
<path d="M76.4251 190.126C75.7444 190.264 75.0151 190.155 74.383 189.768L34.61 165.452L14.3608 200.281C13.6015 201.588 11.9035 202.044 10.5645 201.303C9.22926 200.562 8.75798 198.905 9.51723 197.598L32.6352 157.834L77.3377 185.161C78.6393 185.957 79.0358 187.632 78.2204 188.906C77.8015 189.56 77.1432 189.98 76.4289 190.126H76.4251Z" fill="#AADDD5"/>
<path d="M220.796 136.487C220.018 136.644 219.176 136.48 218.503 135.962C217.295 135.031 217.089 133.326 218.043 132.147L256.672 84.3375C257.622 83.1621 259.372 82.9576 260.58 83.8885C261.788 84.8193 261.994 86.5241 261.04 87.7032L222.412 135.513C221.989 136.035 221.413 136.363 220.792 136.491L220.796 136.487Z" fill="#AADDD5"/>
<path d="M172.112 123.06C170.762 123.333 169.382 122.592 168.918 121.285L149.562 66.7007L164.407 15.7372C164.83 14.2953 166.367 13.4557 167.848 13.8682C169.326 14.2771 170.186 15.781 169.763 17.2229L155.397 66.5401L174.18 119.508C174.685 120.928 173.915 122.472 172.46 122.965C172.344 123.005 172.228 123.034 172.112 123.06Z" fill="#AADDD5"/>
<path d="M153.051 69.2845C152.811 69.3319 152.561 69.3502 152.303 69.3356L81.7482 64.831C80.2148 64.7324 79.0516 63.4402 79.1526 61.9435C79.2536 60.4468 80.5776 59.3152 82.111 59.4101L152.666 63.9147C154.199 64.0133 155.362 65.3055 155.261 66.8022C155.179 68.047 154.248 69.0436 153.051 69.2845Z" fill="#AADDD5"/>
<path d="M221.48 197.399C241.229 178.124 241.229 146.873 221.48 127.598C201.731 108.322 169.711 108.322 149.962 127.598C130.213 146.873 130.213 178.124 149.962 197.399C169.711 216.675 201.731 216.675 221.48 197.399Z" fill="#AADDD5"/>
<path d="M102.339 241.603C107.321 236.741 107.321 228.857 102.339 223.994C97.3564 219.132 89.2787 219.132 84.2965 223.994C79.3143 228.857 79.3143 236.741 84.2965 241.603C89.2787 246.466 97.3564 246.466 102.339 241.603Z" fill="#AADDD5"/>
<path d="M160.237 76.0884C165.855 71.9383 166.963 64.1288 162.71 58.6455C158.458 53.1621 150.457 52.0812 144.839 56.2313C139.22 60.3813 138.113 68.1908 142.365 73.6742C146.617 79.1576 154.619 80.2384 160.237 76.0884Z" fill="#AADDD5"/>
<path d="M259.92 97.5033C266.427 96.9331 271.229 91.3221 270.645 84.9708C270.061 78.6195 264.312 73.933 257.804 74.5032C251.297 75.0734 246.495 80.6844 247.079 87.0357C247.663 93.387 253.412 98.0735 259.92 97.5033Z" fill="#AADDD5"/>
<path d="M175.37 25.8365C180.58 21.9881 181.607 14.7465 177.664 9.66177C173.721 4.57705 166.301 3.57477 161.091 7.42309C155.882 11.2714 154.855 18.5131 158.798 23.5978C162.74 28.6825 170.16 29.6848 175.37 25.8365Z" fill="#AADDD5"/>
<path d="M89.0613 71.3216C94.2711 67.4733 95.298 60.2316 91.355 55.1469C87.4121 50.0622 79.9924 49.0599 74.7827 52.9082C69.5729 56.7565 68.546 63.9982 72.4889 69.0829C76.4319 74.1676 83.8516 75.1699 89.0613 71.3216Z" fill="#AADDD5"/>
<path d="M83.0008 196.663C88.2105 192.814 89.2374 185.573 85.2945 180.488C81.3516 175.403 73.9318 174.401 68.7221 178.249C63.5124 182.098 62.4855 189.339 66.4284 194.424C70.3713 199.509 77.7911 200.511 83.0008 196.663Z" fill="#AADDD5"/>
<path d="M101.766 155.201C106.147 151.353 106.502 144.768 102.561 140.493C98.6188 136.217 91.8719 135.869 87.4909 139.717C83.11 143.564 82.7541 150.149 86.6959 154.425C90.6378 158.7 97.3847 159.048 101.766 155.201Z" fill="#AADDD5"/>
<path d="M44.0278 167.396C47.1734 162.532 45.6835 156.1 40.6999 153.03C35.7164 149.96 29.1264 151.414 25.9808 156.278C22.8352 161.142 24.3251 167.574 29.3087 170.644C34.2922 173.714 40.8822 172.26 44.0278 167.396Z" fill="#AADDD5"/>
<path d="M16.6951 205.071C20.1688 202.505 20.8535 197.677 18.2245 194.286C15.5954 190.896 10.6482 190.228 7.17445 192.794C3.70075 195.36 3.01602 200.188 5.64507 203.578C8.27412 206.969 13.2214 207.637 16.6951 205.071Z" fill="#AADDD5"/>
</g>
<g opacity="0.8">
<path d="M397.288 73.1713L457.206 91.9856C457.931 92.2119 458.709 91.825 458.945 91.1131C459.177 90.405 458.78 89.6457 458.051 89.4157L398.133 70.6015C397.408 70.3751 396.63 70.7621 396.394 71.4739C396.162 72.1821 396.559 72.9414 397.288 73.1713Z" fill="#AADDD5"/>
<path d="M398.595 88.1333L451.679 104.801C452.405 105.027 453.183 104.64 453.418 103.929C453.65 103.22 453.254 102.461 452.524 102.231L399.44 85.5634C398.714 85.337 397.937 85.724 397.701 86.4358C397.469 87.144 397.865 87.9033 398.595 88.1333Z" fill="#AADDD5"/>
<path d="M405.7 104.923L441.09 116.034C441.815 116.261 442.593 115.874 442.829 115.162C443.061 114.454 442.664 113.695 441.935 113.465L406.546 102.353C405.82 102.126 405.042 102.513 404.806 103.225C404.575 103.933 404.971 104.693 405.7 104.923Z" fill="#AADDD5"/>
<path d="M394.067 130.991L427.965 141.636C428.69 141.862 429.468 141.475 429.704 140.764C429.936 140.055 429.539 139.296 428.81 139.066L394.913 128.422C394.187 128.195 393.409 128.582 393.174 129.294C392.942 130.002 393.338 130.761 394.067 130.991Z" fill="#AADDD5"/>
<path d="M376.185 143.795L432.153 161.368C432.878 161.595 433.656 161.208 433.892 160.496C434.124 159.788 433.727 159.028 432.998 158.798L377.03 141.225C376.304 140.999 375.526 141.386 375.291 142.098C375.059 142.806 375.455 143.565 376.185 143.795Z" fill="#AADDD5"/>
<path d="M368.71 159.865L427.969 178.471C428.695 178.698 429.473 178.311 429.708 177.599C429.94 176.891 429.544 176.131 428.815 175.901L369.555 157.295C368.83 157.069 368.052 157.456 367.816 158.168C367.584 158.876 367.981 159.635 368.71 159.865Z" fill="#AADDD5"/>
<path d="M371.548 179.176L411.459 191.708C412.185 191.934 412.963 191.547 413.198 190.836C413.43 190.127 413.034 189.368 412.305 189.138L372.393 176.606C371.668 176.38 370.89 176.767 370.654 177.479C370.422 178.187 370.819 178.946 371.548 179.176Z" fill="#AADDD5"/>
<path d="M358.817 208.809L387.232 217.731C387.957 217.957 388.735 217.57 388.971 216.858C389.206 216.147 388.806 215.391 388.077 215.161L359.663 206.239C358.937 206.013 358.159 206.4 357.924 207.112C357.692 207.82 358.088 208.579 358.817 208.809Z" fill="#AADDD5"/>
<path d="M338.257 219.4L390.204 235.71C390.93 235.937 391.708 235.55 391.943 234.838C392.175 234.13 391.779 233.37 391.049 233.14L339.102 216.83C338.377 216.604 337.599 216.991 337.363 217.703C337.131 218.411 337.528 219.17 338.257 219.4Z" fill="#AADDD5"/>
<path d="M326.521 232.763L387.44 251.892C388.166 252.118 388.944 251.731 389.18 251.019C389.412 250.311 389.015 249.552 388.286 249.322L327.366 230.193C326.64 229.967 325.862 230.354 325.627 231.066C325.395 231.774 325.791 232.533 326.521 232.763Z" fill="#AADDD5"/>
<path d="M374.899 268.987C375.621 269.213 376.429 269.151 377.136 268.746C377.48 268.549 385.615 263.796 390.215 252.188C396.218 237.035 393.548 218.016 382.282 195.661C371.698 174.656 369.259 159.211 374.821 148.439C381.654 135.203 400.325 130.264 417.691 127.179C433.59 124.354 445.929 117.246 453.368 106.631C460.186 96.9061 462.423 84.8779 459.846 71.8496C459.558 70.3894 458.107 69.4294 456.607 69.7141C455.107 69.9952 454.127 71.4115 454.419 72.8753C456.712 84.4545 454.771 95.0735 448.805 103.586C442.215 112.986 431.114 119.312 416.699 121.875C397.999 125.2 377.809 130.669 369.884 146.015C363.488 158.401 365.923 175.419 377.323 198.045C402.072 247.161 375.479 263.431 374.335 264.103C373.029 264.865 372.595 266.519 373.37 267.793C373.729 268.384 374.282 268.793 374.903 268.99L374.899 268.987Z" fill="#AADDD5"/>
<path d="M323.293 239.087C324.68 239.522 326.191 238.828 326.719 237.485C335.437 215.301 359.827 208.825 383.412 202.561C406.998 196.301 429.27 190.383 434.51 169.35C439.429 149.604 428.44 133.054 417.814 117.05C405.722 98.8382 394.3 81.6337 403.766 59.6253C404.357 58.2528 403.695 56.6722 402.289 56.0954C400.89 55.515 399.263 56.1648 398.672 57.5373C388.076 82.174 400.838 101.397 413.176 119.985C423.626 135.726 433.497 150.59 429.143 168.079C424.677 186.021 403.931 191.53 381.965 197.359C358.207 203.667 331.282 210.815 321.561 235.554C321.015 236.944 321.725 238.507 323.15 239.04C323.199 239.058 323.248 239.076 323.296 239.091L323.293 239.087Z" fill="#AADDD5"/>
</g>
<path d="M142.578 179.462C93.3875 114.328 34.9062 115.671 34.9062 115.671C34.9062 115.671 48.6663 175.096 86.1615 188.19C123.657 201.284 142.578 179.462 142.578 179.462Z" fill="#DB7F14"/>
<path d="M190.736 183.829C172.51 108.623 97.7519 56.9187 97.7519 56.9187C97.7519 56.9187 69.3117 151.932 129.51 179.799C189.708 207.666 190.736 183.829 190.736 183.829Z" fill="#55BCAA"/>
<path d="M176.403 191.022C176.048 191.022 175.7 190.844 175.509 190.522L98.4279 61.1259C98.1399 60.644 98.3082 60.0271 98.8019 59.7497C99.2918 59.4686 99.9239 59.6329 100.212 60.1147L177.293 189.511C177.581 189.993 177.413 190.61 176.919 190.887C176.755 190.979 176.579 191.022 176.399 191.022H176.403Z" fill="#AADDD5"/>
<path d="M110.139 79.2854C109.855 79.2854 109.623 79.0591 109.623 78.7816V68.4254C109.623 68.148 109.855 67.9216 110.139 67.9216C110.423 67.9216 110.655 68.148 110.655 68.4254V78.7816C110.655 79.0591 110.423 79.2854 110.139 79.2854Z" fill="#AADDD5"/>
<path d="M114.635 86.8243C114.351 86.8243 114.119 86.598 114.119 86.3206V72.1168C114.119 71.8394 114.351 71.613 114.635 71.613C114.92 71.613 115.151 71.8394 115.151 72.1168V86.3206C115.151 86.598 114.92 86.8243 114.635 86.8243Z" fill="#AADDD5"/>
<path d="M137.749 125.631C137.749 125.631 137.715 125.631 137.7 125.631C137.416 125.606 137.21 125.357 137.237 125.084L139.657 100.191C139.683 99.914 139.952 99.7278 140.218 99.7387C140.502 99.7643 140.708 100.013 140.681 100.286L138.258 125.179C138.231 125.438 138.007 125.635 137.745 125.635L137.749 125.631Z" fill="#AADDD5"/>
<path d="M148.378 143.476C148.36 143.476 148.337 143.476 148.319 143.476C148.038 143.443 147.832 143.195 147.862 142.918L151.176 114.28C151.21 114.003 151.472 113.805 151.748 113.835C152.029 113.868 152.235 114.116 152.205 114.393L148.887 143.031C148.857 143.286 148.633 143.476 148.375 143.476H148.378Z" fill="#AADDD5"/>
<path d="M163.252 168.437C163.252 168.437 163.222 168.437 163.207 168.437C162.923 168.415 162.714 168.171 162.736 167.893L165.627 134.937C165.653 134.66 165.919 134.459 166.184 134.477C166.469 134.499 166.678 134.744 166.656 135.021L163.765 167.977C163.742 168.24 163.518 168.437 163.252 168.437Z" fill="#AADDD5"/>
<path d="M127.07 107.705C126.996 107.705 126.921 107.69 126.846 107.657L94.3663 92.464C94.1083 92.3436 93.9998 92.0442 94.1232 91.7924C94.2466 91.5405 94.5571 91.4346 94.8114 91.5551L127.291 106.748C127.549 106.869 127.658 107.168 127.534 107.42C127.444 107.602 127.261 107.705 127.07 107.705Z" fill="#AADDD5"/>
<path d="M130.867 114.081C130.792 114.081 130.717 114.066 130.646 114.033L94.3702 97.1685C94.1122 97.048 94.0037 96.7487 94.1271 96.4968C94.2505 96.2486 94.561 96.1391 94.8153 96.2596L131.091 113.124C131.349 113.245 131.458 113.544 131.334 113.796C131.245 113.979 131.061 114.085 130.871 114.085L130.867 114.081Z" fill="#AADDD5"/>
<path d="M159.217 161.672C159.15 161.672 159.082 161.661 159.015 161.632L98.17 136.287C97.9082 136.177 97.7848 135.882 97.897 135.626C98.0092 135.371 98.3084 135.25 98.5739 135.36L159.419 160.704C159.681 160.814 159.804 161.11 159.692 161.365C159.61 161.555 159.419 161.672 159.217 161.672Z" fill="#AADDD5"/>
<path d="M354.697 214.155C394.736 178.268 457.623 176.99 457.623 176.99C457.623 176.99 436.289 241.676 391.082 234.882C345.874 228.089 354.697 214.155 354.697 214.155Z" fill="#55BCAA"/>
<path d="M360.006 223.623C360.208 223.758 360.473 223.784 360.709 223.674L455.578 179.117C455.93 178.953 456.079 178.537 455.911 178.194C455.743 177.851 455.32 177.704 454.965 177.869L360.095 222.426C359.744 222.59 359.594 223.006 359.763 223.349C359.819 223.463 359.901 223.554 360.002 223.623H360.006Z" fill="#AADDD5"/>
<path d="M441.759 185.037C441.92 185.143 442.141 185.103 442.253 184.946L446.341 179.062C446.45 178.905 446.408 178.689 446.248 178.58C446.087 178.474 445.866 178.514 445.754 178.671L441.666 184.556C441.557 184.712 441.599 184.928 441.759 185.037Z" fill="#AADDD5"/>
<path d="M436.23 187.634C436.391 187.74 436.612 187.7 436.724 187.543L442.33 179.472C442.439 179.315 442.398 179.1 442.237 178.99C442.076 178.884 441.855 178.924 441.743 179.081L436.137 187.153C436.028 187.309 436.069 187.525 436.23 187.634Z" fill="#AADDD5"/>
<path d="M407.779 200.995C407.779 200.995 407.798 201.006 407.809 201.014C407.981 201.105 408.195 201.043 408.292 200.879L416.741 185.821C416.834 185.653 416.756 185.445 416.602 185.35C416.43 185.258 416.217 185.321 416.12 185.488L407.671 200.546C407.581 200.703 407.634 200.9 407.783 200.999L407.779 200.995Z" fill="#AADDD5"/>
<path d="M394.696 207.14C394.696 207.14 394.719 207.155 394.73 207.162C394.902 207.25 395.119 207.184 395.209 207.016L404.627 189.498C404.716 189.326 404.645 189.118 404.477 189.031C404.305 188.943 404.088 189.009 403.998 189.177L394.58 206.699C394.494 206.856 394.547 207.049 394.696 207.144V207.14Z" fill="#AADDD5"/>
<path d="M376.392 215.741C376.392 215.741 376.41 215.752 376.418 215.756C376.59 215.847 376.803 215.788 376.9 215.624L388.263 195.81C388.357 195.642 388.286 195.43 388.128 195.339C387.956 195.247 387.743 195.306 387.646 195.47L376.283 215.285C376.194 215.442 376.242 215.639 376.392 215.737V215.741Z" fill="#AADDD5"/>
<path d="M420.923 194.827C420.965 194.856 421.017 194.874 421.069 194.881L445.523 198.459C445.717 198.488 445.897 198.356 445.926 198.167C445.956 197.977 445.822 197.802 445.627 197.772L421.174 194.195C420.98 194.166 420.8 194.297 420.77 194.487C420.748 194.622 420.811 194.754 420.923 194.827Z" fill="#AADDD5"/>
<path d="M416.25 197.021C416.291 197.05 416.34 197.069 416.396 197.076L443.665 201.128C443.86 201.157 444.039 201.026 444.069 200.839C444.099 200.65 443.964 200.474 443.774 200.445L416.504 196.393C416.31 196.364 416.13 196.495 416.1 196.682C416.078 196.817 416.141 196.948 416.25 197.021Z" fill="#AADDD5"/>
<path d="M381.353 213.402C381.39 213.428 381.435 213.446 381.484 213.457L426.063 221.926C426.254 221.963 426.441 221.838 426.478 221.652C426.516 221.466 426.392 221.284 426.198 221.247L381.619 212.778C381.428 212.742 381.241 212.866 381.203 213.052C381.177 213.191 381.237 213.329 381.353 213.402Z" fill="#AADDD5"/>
<path d="M240.416 175.907C240.416 175.907 256.241 137.633 307.496 112.788C358.751 87.9432 394.87 87.2715 394.87 87.2715C394.87 87.2715 379.734 148.376 332.952 169.191C286.17 190.005 240.416 175.904 240.416 175.904V175.907Z" fill="#DB7F14"/>
<path d="M236.978 179.265C250.738 69.4782 357.722 42.6184 357.722 42.6184C357.722 42.6184 359.442 143.341 292.707 176.242C225.971 209.143 236.978 179.265 236.978 179.265Z" fill="#55BCAA"/>
<path d="M239.474 184.403C239.246 184.403 239.014 184.33 238.82 184.173C238.378 183.819 238.315 183.183 238.674 182.756L354.69 44.639C355.049 44.2119 355.704 44.1426 356.141 44.4967C356.583 44.8507 356.646 45.4859 356.287 45.913L240.271 184.03C240.065 184.275 239.77 184.399 239.47 184.399L239.474 184.403Z" fill="#AADDD5"/>
<path d="M323.144 84.2879C322.882 84.2879 322.658 84.0945 322.632 83.8353L320.227 59.8009C320.201 59.5235 320.406 59.2789 320.691 59.2497C320.971 59.2424 321.229 59.4249 321.255 59.7024L323.66 83.7367C323.686 84.0142 323.481 84.2587 323.197 84.2879C323.178 84.2879 323.163 84.2879 323.144 84.2879Z" fill="#AADDD5"/>
<path d="M326.475 80.4684C326.213 80.4684 325.992 80.2749 325.962 80.0194L323.554 58.2921C323.524 58.0147 323.729 57.7664 324.01 57.7372C324.298 57.708 324.549 57.9052 324.578 58.1826L326.987 79.9099C327.017 80.1873 326.811 80.4355 326.531 80.4647C326.512 80.4647 326.493 80.4647 326.475 80.4647V80.4684Z" fill="#AADDD5"/>
<path d="M301.188 110.429C300.934 110.429 300.709 110.243 300.676 109.987L296.498 76.9325C296.464 76.6551 296.662 76.4032 296.947 76.3703C297.235 76.3338 297.485 76.5309 297.523 76.8084L301.7 109.863C301.734 110.14 301.536 110.392 301.252 110.425C301.229 110.425 301.207 110.429 301.188 110.429Z" fill="#AADDD5"/>
<path d="M288.845 125.124C288.632 125.124 288.43 124.993 288.359 124.785C288.265 124.522 288.407 124.237 288.68 124.146L346.032 104.934C346.301 104.842 346.593 104.981 346.687 105.247C346.78 105.51 346.638 105.795 346.365 105.886L289.013 125.098C288.957 125.117 288.901 125.128 288.845 125.128V125.124Z" fill="#AADDD5"/>
<path d="M268.434 149.426C268.24 149.426 268.053 149.316 267.967 149.134L256.462 124.837C256.342 124.585 256.454 124.285 256.713 124.169C256.974 124.052 257.277 124.161 257.397 124.413L268.902 148.71C269.021 148.962 268.909 149.262 268.651 149.378C268.58 149.411 268.505 149.426 268.434 149.426Z" fill="#AADDD5"/>
<path d="M263.433 155.381C263.235 155.381 263.048 155.271 262.962 155.085L251.988 131.303C251.872 131.047 251.988 130.751 252.246 130.638C252.504 130.521 252.811 130.638 252.927 130.89L263.901 154.673C264.017 154.928 263.901 155.224 263.643 155.337C263.575 155.366 263.504 155.381 263.43 155.381H263.433Z" fill="#AADDD5"/>
<path d="M419.186 292.972H39.5366C17.6754 227.14 39.2412 179.714 71.4814 176.655C104.316 173.552 127.068 190.588 149.86 120.833C172.653 51.0767 226.122 3.52268 274.333 36.6028C322.503 69.6829 262.641 143.575 298.652 145.644C334.662 147.711 397.706 101.69 419.949 139.979C442.192 178.188 382.368 202.996 393.469 216.477C404.57 229.874 451.722 210.772 455.41 245.918C457.399 264.856 438.504 281.436 419.186 292.975V292.972Z" fill="#FFD19B"/>
<path d="M64.0717 298.644C56.2398 298.644 48.3705 297.041 41.0285 293.814C25.2787 286.889 15.3298 273.795 14.421 258.792C14.3873 258.259 14.3686 257.726 14.3574 257.186C14.3238 255.492 14.3986 253.842 14.5893 252.276C16.9381 232.622 36.2972 231.852 53.3786 231.173C63.2863 230.779 72.6404 230.406 76.6611 226.143C80.6668 221.872 74.3572 215.889 66.3719 208.31C53.7002 196.286 36.3421 179.819 50.1246 159.022C64.6963 136.988 96.095 146.089 126.465 154.887C143.307 159.767 159.218 164.378 171.916 163.735C176.176 163.52 179.16 162.406 181.031 160.329C185.59 155.266 183.155 144.826 180.339 132.736C175.308 111.144 169.043 84.2691 195.92 68.0613C211.797 58.4935 229.391 56.0879 246.79 61.1109C277.418 69.9486 305.978 101.061 321.324 142.311C339.644 191.559 358.071 191.175 381.406 190.697C387.058 190.58 392.904 190.46 399.183 190.982C409.588 191.851 419.982 197.374 428.454 206.533C437.262 216.057 442.259 227.322 442.902 239.109C443.942 258.069 433.544 275.861 415.09 286.703C396.169 297.822 372.396 299.735 351.496 291.817L277.497 263.797C227.177 244.742 169.503 248.585 123.222 274.073L91.0645 291.784C82.7838 296.344 73.4558 298.644 64.0754 298.644H64.0717ZM79.3727 146.396C67.5875 146.396 57.6199 149.801 51.1794 159.541C37.8307 179.68 54.8485 195.822 67.2733 207.613C75.6475 215.56 82.2602 221.835 77.6037 226.8C73.2389 231.428 63.6154 231.812 53.4272 232.217C36.8358 232.878 18.034 233.626 15.7936 252.386C15.6104 253.908 15.5356 255.518 15.5692 257.171C15.5804 257.697 15.5991 258.219 15.6328 258.741C16.5192 273.372 26.2212 286.137 41.5821 292.891C57.3282 299.815 75.5802 299.074 90.4025 290.908L122.56 273.197C169.189 247.516 227.293 243.646 277.987 262.844L351.986 290.865C372.497 298.633 395.828 296.753 414.398 285.842C432.501 275.204 442.7 257.755 441.679 239.156C441.047 227.588 436.14 216.531 427.493 207.179C419.227 198.243 409.128 192.858 399.056 192.019C392.851 191.504 387.043 191.624 381.425 191.741C357.589 192.234 338.753 192.625 320.154 142.628C304.924 101.693 276.663 70.8356 246.394 62.1002C229.129 57.1173 212.381 59.4134 196.612 68.9155C170.386 84.7327 176.561 111.235 181.524 132.531C184.4 144.873 186.884 155.533 181.984 160.968C179.886 163.301 176.613 164.546 171.976 164.779C159.023 165.436 143.019 160.793 126.061 155.879C109.844 151.181 93.3273 146.396 79.3653 146.396H79.3727Z" fill="#BAD5FF"/>
<path d="M214.256 240.615H296.132C301.881 240.615 306.544 245.168 306.544 250.778V288.469C306.544 294.08 301.881 298.632 296.132 298.632H214.256V240.615Z" fill="#388477"/>
<path d="M226.759 250.632V288.626C226.759 294.138 222.174 298.643 216.496 298.643H137.324V292.039H218.426V247.223H137.324V240.619H216.496C222.174 240.619 226.759 245.095 226.759 250.636V250.632Z" fill="#2BAB95"/>
<path d="M218.422 247.221H139.867V292.037H218.422V247.221Z" fill="#FDE9D6"/>
<path d="M218.426 253.221V253.904L139.867 254.287V253.604L218.426 253.221Z" fill="#E8CDB3"/>
<path d="M218.426 261.164V261.846L139.867 262.226V261.543L218.426 261.164Z" fill="#E8CDB3"/>
<path d="M218.426 269.11V269.792L139.867 270.172V269.489L218.426 269.11Z" fill="#E8CDB3"/>
<path d="M218.426 277.052V277.735L139.867 278.118V277.435L218.426 277.052Z" fill="#E8CDB3"/>
<path d="M218.426 284.965V285.648L139.867 286.028V285.349L218.426 284.965Z" fill="#E8CDB3"/>
<path d="M218.426 247.221H216.309V292.037H218.426V247.221Z" fill="#455D59"/>
<path d="M259.395 173.577V202.047H182.991C179.161 202.047 176.057 199.017 176.057 195.279V180.349C176.057 176.611 179.161 173.581 182.991 173.581H259.395V173.577Z" fill="#893C28"/>
<path d="M248.111 178.498V197.137C248.111 199.842 252.252 202.051 257.379 202.051H328.869V198.809H255.637V176.823H328.869V173.581H257.379C252.252 173.581 248.111 175.779 248.111 178.495V178.498Z" fill="#C76F6F"/>
<path d="M326.569 176.825H255.637V198.812H326.569V176.825Z" fill="#FDE9D6"/>
<path d="M255.637 179.773V180.106L326.573 180.296V179.959L255.637 179.773Z" fill="#E8CDB3"/>
<path d="M255.637 183.668V184.004L326.573 184.191V183.858L255.637 183.668Z" fill="#E8CDB3"/>
<path d="M255.637 187.566V187.899L326.573 188.089V187.753L255.637 187.566Z" fill="#E8CDB3"/>
<path d="M255.637 191.465V191.801L326.573 191.988V191.651L255.637 191.465Z" fill="#E8CDB3"/>
<path d="M255.637 195.345V195.682L326.573 195.868V195.532L255.637 195.345Z" fill="#E8CDB3"/>
<path d="M255.638 198.811H257.549V176.824H255.638V198.811Z" fill="#C92240"/>
<path d="M280.219 240.604H206.713C202.311 240.604 198.739 237.118 198.739 232.822V209.839C198.739 205.542 202.311 202.056 206.713 202.056H280.219V240.608V240.604Z" fill="#FF9A00"/>
<path d="M269.18 208.706V233.953C269.18 237.618 273.23 240.607 278.242 240.607H348.146V236.219H276.54V206.439H348.146V202.052H278.242C273.23 202.052 269.18 205.027 269.18 208.706Z" fill="#FFB400"/>
<path d="M345.895 206.44H276.537V236.221H345.895V206.44Z" fill="#FDE9D6"/>
<path d="M276.535 210.432V210.885L345.893 211.141V210.688L276.535 210.432Z" fill="#E8CDB3"/>
<path d="M276.535 215.707V216.161L345.893 216.417V215.96L276.535 215.707Z" fill="#E8CDB3"/>
<path d="M276.535 220.99V221.443L345.893 221.696V221.242L276.535 220.99Z" fill="#E8CDB3"/>
<path d="M276.535 226.262V226.719L345.893 226.971V226.518L276.535 226.262Z" fill="#E8CDB3"/>
<path d="M276.535 231.523V231.98L345.893 232.232V231.779L276.535 231.523Z" fill="#E8CDB3"/>
<path d="M276.538 236.226H278.404V206.446H276.538V236.226Z" fill="#CC873F"/>
<path d="M257.988 128.648H308.41C312.408 128.648 315.65 131.817 315.65 135.715V166.496C315.65 170.398 312.404 173.563 308.41 173.563H257.988V128.645V128.648Z" fill="#C76F6F"/>
<path d="M265.804 136.402V165.82C265.804 170.088 262.939 173.578 259.389 173.578H209.922V168.463H260.597V133.762H209.922V128.648H259.389C262.935 128.648 265.804 132.112 265.804 136.405V136.402Z" fill="#893C28"/>
<path d="M260.598 133.76H211.512V168.461H260.598V133.76Z" fill="#FDE9D6"/>
<path d="M260.598 138.41V138.94L211.512 139.236V138.706L260.598 138.41Z" fill="#E8CDB3"/>
<path d="M260.598 144.561V145.091L211.512 145.387V144.857L260.598 144.561Z" fill="#E8CDB3"/>
<path d="M260.598 150.708V151.235L211.512 151.531V151.004L260.598 150.708Z" fill="#E8CDB3"/>
<path d="M260.598 156.859V157.39L211.512 157.686V157.156L260.598 156.859Z" fill="#E8CDB3"/>
<path d="M260.598 162.989V163.519L211.512 163.815V163.285L260.598 162.989Z" fill="#E8CDB3"/>
<path d="M260.594 133.76H259.273V168.461H260.594V133.76Z" fill="#C76F6F"/>
<path d="M315.656 220.988H299.678V230.421H315.656V220.988Z" fill="#CC873F"/>
<path d="M198.487 173.577H193.146V202.047H198.487V173.577Z" fill="#FF7FA9"/>
<path d="M207.049 173.577H201.678V202.047H207.049V173.577Z" fill="#FF7FA9"/>
<path d="M238.54 144.744H230.24V160.645H238.54V144.744Z" fill="#C76F6F"/>
<path d="M266.81 81.6206H278.611V115.851C278.611 119.03 275.966 121.611 272.709 121.611C269.451 121.611 266.807 119.03 266.807 115.851V81.6206H266.81Z" fill="white"/>
<path d="M278.35 82.2705H267.081C266.239 82.2705 265.555 81.6025 265.555 80.7811C265.555 79.9598 266.239 79.2917 267.081 79.2917H278.35C279.191 79.2917 279.876 79.9598 279.876 80.7811C279.876 81.6025 279.191 82.2705 278.35 82.2705Z" fill="white"/>
<path d="M277.884 90.0317V115.789C277.884 118.574 275.569 120.834 272.712 120.834C269.854 120.834 267.543 118.574 267.543 115.789V90.0317H277.884Z" fill="#FECB01"/>
<path d="M272.712 101.079C272.712 101.714 272.184 102.228 271.534 102.228C270.883 102.228 270.355 101.714 270.355 101.079C270.355 100.443 270.883 99.9287 271.534 99.9287C272.184 99.9287 272.712 100.443 272.712 101.079Z" fill="#FFE169"/>
<path d="M272.065 86.9089C272.065 87.5441 271.538 88.0588 270.887 88.0588C270.236 88.0588 269.709 87.5441 269.709 86.9089C269.709 86.2737 270.236 85.759 270.887 85.759C271.538 85.759 272.065 86.2737 272.065 86.9089Z" fill="#FECB01"/>
<path d="M276.277 93.309C276.277 93.7507 275.91 94.1084 275.458 94.1084C275.005 94.1084 274.639 93.7507 274.639 93.309C274.639 92.8673 275.005 92.5095 275.458 92.5095C275.91 92.5095 276.277 92.8673 276.277 93.309Z" fill="#FFE169"/>
<path d="M276.278 73.9656C276.73 73.9656 277.097 73.6077 277.097 73.1661C277.097 72.7246 276.73 72.3667 276.278 72.3667C275.826 72.3667 275.459 72.7246 275.459 73.1661C275.459 73.6077 275.826 73.9656 276.278 73.9656Z" fill="#FECB01"/>
<path d="M275.453 85.443C275.453 85.8847 275.086 86.2424 274.634 86.2424C274.181 86.2424 273.814 85.8847 273.814 85.443C273.814 85.0013 274.181 84.6436 274.634 84.6436C275.086 84.6436 275.453 85.0013 275.453 85.443Z" fill="#FECB01"/>
<path d="M276.079 108.475C276.079 108.957 275.679 109.347 275.185 109.347C274.691 109.347 274.291 108.957 274.291 108.475C274.291 107.993 274.691 107.602 275.185 107.602C275.679 107.602 276.079 107.993 276.079 108.475Z" fill="#FFE169"/>
<path d="M252.488 121.611C249.23 121.611 246.586 119.034 246.586 115.851V81.6206H258.386V115.851C258.386 119.03 255.746 121.611 252.484 121.611H252.488Z" fill="white"/>
<path d="M258.125 82.2705H246.856C246.015 82.2705 245.33 81.6025 245.33 80.7811C245.33 79.9598 246.015 79.2917 246.856 79.2917H258.125C258.967 79.2917 259.651 79.9598 259.651 80.7811C259.651 81.6025 258.967 82.2705 258.125 82.2705Z" fill="white"/>
<path d="M257.662 98.1521V115.784C257.662 118.569 255.347 120.829 252.489 120.829C249.632 120.829 247.32 118.569 247.32 115.784V98.1521H257.662Z" fill="#2BAB95"/>
<path d="M250.334 106.323C250.985 106.323 251.513 105.808 251.513 105.173C251.513 104.538 250.985 104.023 250.334 104.023C249.684 104.023 249.156 104.538 249.156 105.173C249.156 105.808 249.684 106.323 250.334 106.323Z" fill="#FFBB6A"/>
<path d="M254.063 102.694C254.516 102.694 254.882 102.336 254.882 101.894C254.882 101.453 254.516 101.095 254.063 101.095C253.611 101.095 253.244 101.453 253.244 101.894C253.244 102.336 253.611 102.694 254.063 102.694Z" fill="#FFBB6A"/>
<path d="M252.407 111.541C252.407 112.023 252.007 112.414 251.513 112.414C251.019 112.414 250.619 112.023 250.619 111.541C250.619 111.059 251.019 110.669 251.513 110.669C252.007 110.669 252.407 111.059 252.407 111.541Z" fill="#FFBB6A"/>
<path d="M254.348 88.9654C255.117 88.9654 255.74 88.3574 255.74 87.6075C255.74 86.8575 255.117 86.2495 254.348 86.2495C253.58 86.2495 252.957 86.8575 252.957 87.6075C252.957 88.3574 253.58 88.9654 254.348 88.9654Z" fill="#2BAB95"/>
<path d="M250.335 76.6613C250.335 77.103 249.969 77.4607 249.516 77.4607C249.064 77.4607 248.697 77.103 248.697 76.6613C248.697 76.2196 249.064 75.8618 249.516 75.8618C249.969 75.8618 250.335 76.2196 250.335 76.6613Z" fill="#2BAB95"/>
<path d="M226.369 81.6206H238.169V115.851C238.169 119.03 235.525 121.611 232.267 121.611C229.01 121.611 226.365 119.03 226.365 115.851V81.6206H226.369Z" fill="white"/>
<path d="M237.906 82.2705H226.637C225.796 82.2705 225.111 81.6025 225.111 80.7811C225.111 79.9598 225.796 79.2917 226.637 79.2917H237.906C238.748 79.2917 239.432 79.9598 239.432 80.7811C239.432 81.6025 238.748 82.2705 237.906 82.2705Z" fill="white"/>
<path d="M237.439 109.346V115.786C237.439 118.571 235.124 120.83 232.267 120.83C229.409 120.83 227.098 118.571 227.098 115.786V109.346H237.439Z" fill="#FD7F00"/>
<path d="M233.372 117.822C234.022 117.822 234.55 117.308 234.55 116.673C234.55 116.038 234.022 115.523 233.372 115.523C232.721 115.523 232.193 116.038 232.193 116.673C232.193 117.308 232.721 117.822 233.372 117.822Z" fill="#FFAA54"/>
<path d="M230.613 103.497C230.613 103.938 230.246 104.296 229.794 104.296C229.341 104.296 228.975 103.938 228.975 103.497C228.975 103.055 229.341 102.697 229.794 102.697C230.246 102.697 230.613 103.055 230.613 103.497Z" fill="#FD7F00"/>
<path d="M233.012 97.6292C233.465 97.6292 233.832 97.2712 233.832 96.8297C233.832 96.3882 233.465 96.0303 233.012 96.0303C232.56 96.0303 232.193 96.3882 232.193 96.8297C232.193 97.2712 232.56 97.6292 233.012 97.6292Z" fill="#FD7F00"/>
<path d="M231.092 112.275C231.092 112.757 230.692 113.147 230.199 113.147C229.705 113.147 229.305 112.757 229.305 112.275C229.305 111.793 229.705 111.403 230.199 111.403C230.692 111.403 231.092 111.793 231.092 112.275Z" fill="#FFAA54"/>
<path d="M285.459 91.2708H219.523V92.1286H285.459V91.2708Z" fill="#4483AB"/>
<path d="M283.049 126.208V88.5791H281.904V126.208H283.049Z" fill="#1B5C85"/>
<path d="M223.076 126.211V88.5828H221.932V126.211H223.076Z" fill="#1B5C85"/>
<path d="M286.667 128.978H218.312C217.354 128.978 216.58 128.223 216.58 127.288C216.58 126.354 217.354 125.598 218.312 125.598H286.667C287.625 125.598 288.399 126.354 288.399 127.288C288.399 128.223 287.625 128.978 286.667 128.978Z" fill="#455D59"/>
<path d="M305.09 203.092H287.721V257.104H305.09V203.092Z" fill="white"/>
<path d="M304.787 198.812H288.024C286.574 198.812 285.398 199.959 285.398 201.375C285.398 202.79 286.574 203.937 288.024 203.937H304.787C306.237 203.937 307.413 202.79 307.413 201.375C307.413 199.959 306.237 198.812 304.787 198.812Z" fill="white"/>
<path d="M296.404 220.252L258.822 284.054C255 290.544 259.798 298.644 267.473 298.644H325.337C333.009 298.644 337.811 290.544 333.989 284.054L296.407 220.252H296.404Z" fill="white"/>
<path d="M323.046 296.577H269.756C262.695 296.577 258.27 289.127 261.789 283.14L274.106 262.241H318.703L331.009 283.14C334.528 289.123 330.115 296.577 323.042 296.577H323.046Z" fill="#2BAB95"/>
<path d="M288.603 275.669C290.406 273.91 290.406 271.057 288.603 269.298C286.801 267.539 283.878 267.539 282.076 269.298C280.274 271.057 280.274 273.909 282.076 275.669C283.878 277.428 286.801 277.428 288.603 275.669Z" fill="#FFBB6A"/>
<path d="M299.672 253.205C301.345 252.528 302.14 250.656 301.447 249.022C300.754 247.389 298.835 246.613 297.161 247.29C295.488 247.966 294.693 249.839 295.386 251.472C296.079 253.106 297.998 253.882 299.672 253.205Z" fill="#2BAB95"/>
<path d="M289.954 187.84C291.766 187.84 293.234 186.407 293.234 184.638C293.234 182.87 291.766 181.437 289.954 181.437C288.142 181.437 286.674 182.87 286.674 184.638C286.674 186.407 288.142 187.84 289.954 187.84Z" fill="#2BAB95"/>
<path d="M297.343 193.924C297.343 195.114 296.355 196.081 295.132 196.081C293.909 196.081 292.922 195.117 292.922 193.924C292.922 192.73 293.909 191.766 295.132 191.766C296.355 191.766 297.343 192.73 297.343 193.924Z" fill="#2BAB95"/>
<path d="M298.611 181.188C298.611 181.783 298.117 182.265 297.508 182.265C296.898 182.265 296.404 181.783 296.404 181.188C296.404 180.593 296.898 180.111 297.508 180.111C298.117 180.111 298.611 180.593 298.611 181.188Z" fill="#2BAB95"/>
<path d="M295.272 233.402C295.272 234.501 294.359 235.395 293.23 235.395C292.1 235.395 291.188 234.505 291.188 233.402C291.188 232.3 292.1 231.409 293.23 231.409C294.359 231.409 295.272 232.3 295.272 233.402Z" fill="#2BAB95"/>
<path d="M297.822 222.237C298.605 222.237 299.239 221.618 299.239 220.854C299.239 220.09 298.605 219.47 297.822 219.47C297.039 219.47 296.404 220.09 296.404 220.854C296.404 221.618 297.039 222.237 297.822 222.237Z" fill="#2BAB95"/>
<path d="M295.023 288.78C296.828 288.78 298.292 287.351 298.292 285.589C298.292 283.827 296.828 282.399 295.023 282.399C293.217 282.399 291.754 283.827 291.754 285.589C291.754 287.351 293.217 288.78 295.023 288.78Z" fill="#FFBB6A"/>
<path d="M299.748 276.609C301.155 276.609 302.295 275.496 302.295 274.123C302.295 272.75 301.155 271.637 299.748 271.637C298.342 271.637 297.201 272.75 297.201 274.123C297.201 275.496 298.342 276.609 299.748 276.609Z" fill="#FFBB6A"/>
<path d="M157.582 240.618C170.992 240.618 181.863 230.008 181.863 216.92C181.863 203.832 170.992 193.221 157.582 193.221C144.172 193.221 133.301 203.832 133.301 216.92C133.301 230.008 144.172 240.618 157.582 240.618Z" fill="white"/>
<path d="M163.67 165.158H151.492V203.02H163.67V165.158Z" fill="white"/>
<path d="M163.457 162.157H151.705C150.689 162.157 149.865 162.961 149.865 163.953C149.865 164.945 150.689 165.749 151.705 165.749H163.457C164.473 165.749 165.297 164.945 165.297 163.953C165.297 162.961 164.473 162.157 163.457 162.157Z" fill="white"/>
<path d="M162.414 187.575H152.746V199.125H162.414V187.575Z" fill="#319786"/>
<path d="M157.582 239.276C170.236 239.276 180.494 229.264 180.494 216.913C180.494 204.563 170.236 194.551 157.582 194.551C144.928 194.551 134.67 204.563 134.67 216.913C134.67 229.264 144.928 239.276 157.582 239.276Z" fill="#319786"/>
<path d="M167.117 225.181C167.5 223.597 166.496 222.011 164.873 221.637C163.251 221.263 161.625 222.244 161.242 223.827C160.859 225.411 161.864 226.998 163.486 227.371C165.109 227.745 166.734 226.764 167.117 225.181Z" fill="#FFBB6A"/>
<path d="M161.722 207.838C161.722 209.123 160.656 210.163 159.34 210.163C158.023 210.163 156.957 209.123 156.957 207.838C156.957 206.553 158.023 205.512 159.34 205.512C160.656 205.512 161.722 206.553 161.722 207.838Z" fill="#FFBB6A"/>
<path d="M158.088 196.958C158.627 196.958 159.064 196.531 159.064 196.005C159.064 195.479 158.627 195.052 158.088 195.052C157.548 195.052 157.111 195.479 157.111 196.005C157.111 196.531 157.548 196.958 158.088 196.958Z" fill="#FFBB6A"/>
<path d="M155.811 176.36C156.528 176.36 157.109 175.793 157.109 175.093C157.109 174.394 156.528 173.827 155.811 173.827C155.095 173.827 154.514 174.394 154.514 175.093C154.514 175.793 155.095 176.36 155.811 176.36Z" fill="#2BAB95"/>
<path d="M155.034 227.47C155.034 228.094 154.514 228.602 153.874 228.602C153.235 228.602 152.715 228.094 152.715 227.47C152.715 226.846 153.235 226.338 153.874 226.338C154.514 226.338 155.034 226.846 155.034 227.47Z" fill="#FFBB6A"/>
<path d="M159.897 233.679C159.897 234.304 159.377 234.811 158.738 234.811C158.098 234.811 157.578 234.304 157.578 233.679C157.578 233.055 158.098 232.548 158.738 232.548C159.377 232.548 159.897 233.055 159.897 233.679Z" fill="#FFBB6A"/>
<path d="M103.442 126.03C105.208 123.916 108.899 123.682 111.226 126.03C113.552 128.377 112.909 134.798 113.23 139.89C113.552 144.979 114.435 148.111 114.435 148.111C114.435 148.111 113.874 148.162 113.391 147.746C112.909 147.33 111.626 145.45 111.626 145.45C111.626 145.45 111.948 148.009 111.787 148.06C111.626 148.111 108.417 148.79 104.46 148.739C100.503 148.688 97.9331 148.111 97.6675 147.903C97.3982 147.695 97.185 146.859 96.811 146.859C96.437 146.859 96.2762 147.797 95.7937 147.746C95.3112 147.695 94.0807 147.33 94.0807 147.33C94.0807 147.33 95.098 144.563 94.6155 144.771C94.1331 144.979 93.0634 146.91 92.5846 147.016C92.1021 147.122 91.6758 147.067 91.6758 147.067C91.6758 147.067 92.9063 144.665 93.9236 139.5C94.941 134.331 95.5805 128.015 98.2547 126.136C100.929 124.256 103.442 126.03 103.442 126.03Z" fill="#4B494A"/>
<path d="M106.429 151.57C106.867 152.446 98.7805 152.347 99.1657 151.621C99.5247 150.869 100.168 145.758 100.116 143.729C100.116 143.729 105.842 145.557 105.891 146.66V146.886C105.917 147.386 105.943 148.138 105.991 148.916C106.07 149.993 106.197 151.07 106.429 151.573V151.57Z" fill="#E7AE90"/>
<path d="M105.996 148.913C102.634 149.764 100.528 146.533 100.143 144.252C100.143 144.252 103.943 145.606 105.891 146.884C105.917 147.384 105.944 148.136 105.992 148.913H105.996Z" fill="#CB906F"/>
<path d="M110.981 134.381C111.355 137.67 109.836 147.515 105.15 147.69C99.5884 147.898 97.7145 139.024 98.571 135.005C99.4275 130.986 105.576 129.679 107.768 130.621C109.96 131.559 110.977 134.381 110.977 134.381H110.981Z" fill="#E7AE90"/>
<path d="M105.894 142.216C105.868 142.212 105.846 142.187 105.846 142.154C105.846 142.118 105.872 142.088 105.902 142.085C106.751 142.03 106.871 141.398 106.885 141.234C106.713 141.132 105.954 140.625 105.715 139.661C105.554 139.022 105.662 138.321 106.033 137.576C106.051 137.547 106.085 137.536 106.111 137.551C106.137 137.569 106.149 137.609 106.13 137.642C105.775 138.35 105.67 139.015 105.823 139.621C106.074 140.632 106.964 141.132 106.972 141.136L107.001 141.154V141.194C107.001 141.194 106.964 142.147 105.898 142.216C105.894 142.216 105.891 142.216 105.887 142.216H105.894Z" fill="#5A213E"/>
<path d="M103.815 138.908C103.837 139.463 103.658 139.923 103.418 139.93C103.179 139.937 102.966 139.496 102.943 138.941C102.921 138.386 103.1 137.926 103.34 137.919C103.579 137.911 103.792 138.353 103.815 138.908Z" fill="#5A213E"/>
<path d="M107.172 138.908C107.149 139.463 107.329 139.923 107.568 139.93C107.808 139.937 108.021 139.496 108.043 138.941C108.066 138.386 107.886 137.926 107.647 137.919C107.407 137.911 107.194 138.353 107.172 138.908Z" fill="#5A213E"/>
<path d="M101.568 136.572C101.4 136.904 103.498 136.4 103.588 136.188C103.678 135.976 103.427 135.873 103.019 135.866C102.615 135.859 101.609 136.488 101.564 136.572H101.568Z" fill="#5A213E"/>
<path d="M109.452 136.724C109.62 137.057 107.522 136.552 107.432 136.34C107.342 136.128 107.593 136.026 108.001 136.019C108.405 136.011 109.411 136.64 109.456 136.724H109.452Z" fill="#5A213E"/>
<path d="M100.547 140.23C100.48 140.544 100.981 140.909 101.662 141.048C102.342 141.183 102.948 141.037 103.016 140.723C103.083 140.409 102.582 140.044 101.901 139.906C101.22 139.771 100.614 139.917 100.547 140.23Z" fill="#DC7269"/>
<path d="M110.365 140.154C110.451 140.464 109.98 140.862 109.311 141.041C108.641 141.22 108.028 141.114 107.938 140.804C107.852 140.494 108.323 140.096 108.993 139.917C109.662 139.738 110.275 139.844 110.365 140.154Z" fill="#DC7269"/>
<path d="M103.041 143.191C105.031 144.132 107.103 143.574 107.103 143.574C107.103 143.574 106.822 145.264 104.844 145.06C103.25 144.895 103.037 143.194 103.037 143.194L103.041 143.191Z" fill="white"/>
<path d="M98.7499 135.854C98.0692 135.307 96.6629 135.814 96.704 137.147C96.7601 139.063 98.3871 140.943 99.2324 140.081C100.074 139.22 98.7499 135.854 98.7499 135.854Z" fill="#E7AE90"/>
<path d="M64.6104 152.442C65.4669 151.763 64.9844 143.309 64.502 142.995C64.0195 142.681 62.9498 145.605 62.9498 145.605C62.9498 145.605 61.8801 142.838 60.7019 141.221C59.5238 139.604 57.9903 139.111 57.6537 139.239C56.5317 139.655 57.145 149.599 62.6281 154.012C69.151 159.261 64.6067 152.446 64.6067 152.446L64.6104 152.442Z" fill="#E7AE90"/>
<path d="M128.71 213.179C128.871 216.939 129.006 219.418 128.149 222.495C127.293 225.576 125.957 226.722 125.527 226.62C125.097 226.518 125.419 217.589 125.419 217.589C125.419 217.589 124.776 220.929 124.241 221.035C123.706 221.141 122.797 215.658 124.506 213.57C126.219 211.482 128.706 213.179 128.706 213.179H128.71Z" fill="#E7AE90"/>
<path d="M98.3918 135.685C103.404 136.806 106.635 132.031 106.635 132.031C106.635 132.031 107.753 135.922 111.437 134.947C114.976 134.013 106.093 127.431 102.981 128.581C99.8691 129.731 97.5764 134.152 97.756 134.652C97.9355 135.152 98.3918 135.685 98.3918 135.685Z" fill="#4B494A"/>
<path d="M97.877 237.997C100.125 237.475 104.617 237.161 106.008 237.789C107.399 238.417 107.067 212.302 104.392 213.244C101.718 214.185 97.877 238.001 97.877 238.001V237.997Z" fill="#D1D1D1"/>
<path d="M120.449 298.644H104.352C104.378 297.816 104.61 296.921 104.969 296.093C105.455 294.928 106.177 293.877 106.921 293.274H106.947C107.048 293.161 107.179 293.074 107.28 293.004C107.28 293.004 108.129 292.468 109.206 291.887C110.901 291.037 113.107 290.142 113.313 291.329C113.392 291.8 113.493 292.179 113.62 292.493C114.031 293.523 114.596 293.859 114.596 293.859C114.596 293.859 118.216 294.552 119.578 296.162C120.296 296.991 120.655 297.64 120.449 298.644Z" fill="#388477"/>
<path d="M83.3521 296.449C83.3259 297.208 83.1726 297.993 83.0192 298.643H62.8672C62.9457 297.142 64.3296 295.218 68.6944 294.346C71.2601 293.831 73.1863 293.251 74.5477 292.758C74.5477 292.758 74.5739 292.758 74.6263 292.736C75.9877 292.243 76.7582 291.886 77.0387 291.82C77.2444 291.776 77.884 291.886 78.6806 292.065C78.7068 292.043 78.7068 292.065 78.7068 292.065C80.1954 292.378 82.0954 292.871 82.0954 292.871C82.1964 292.959 82.3011 293.05 82.3759 293.141C83.1464 294.014 83.3783 295.244 83.3521 296.452V296.449Z" fill="#388477"/>
<path d="M94.1359 200.995C99.2711 200.156 112.265 197.64 114.03 201.134C115.795 204.631 117.721 214.838 118.039 235.393C118.361 255.949 115.474 291.467 114.509 292.168C113.544 292.869 104.081 293.705 103.599 293.146C103.116 292.588 103.759 271.05 104.399 250.495C105.042 229.939 103.868 215.527 103.868 215.527C103.868 215.527 100.389 234.272 94.9326 256.368C89.4756 278.464 84.505 292.445 83.0613 293.008C81.6176 293.566 72.4729 293.008 72.312 291.891C72.1512 290.774 77.6867 274.343 80.2262 261.917C83.2745 247.001 84.3441 239.31 87.0707 229.801C89.7973 220.291 94.1322 200.995 94.1322 200.995H94.1359Z" fill="#AFAFAF"/>
<path d="M92.4238 153.432C94.5632 152.804 97.8807 152.388 98.9504 152.388C100.02 152.388 109.112 152.282 112.748 154.06C116.002 155.648 115.422 198.847 113.07 200.727C110.717 202.606 102.803 204.067 97.8807 203.128C92.9587 202.19 92.4238 153.435 92.4238 153.435V153.432Z" fill="#93642F"/>
<path d="M108.947 153.023C108.869 153.173 108.588 153.775 107.305 154.275C107.253 154.301 107.227 154.301 107.178 154.326C106.28 154.651 104.919 154.954 102.866 155.002H102.507C97.6032 155.053 96.1932 152.895 96.8066 152.545C99.0657 151.392 98.5271 149.789 99.1667 149.212C99.6304 148.811 100.244 149.114 101.119 149.486H101.145C101.163 149.469 101.18 149.469 101.198 149.486C101.25 149.512 101.299 149.537 101.377 149.563H101.403C101.429 149.563 101.429 149.588 101.456 149.563C101.762 149.687 102.02 149.815 102.379 149.888C102.585 149.939 102.791 149.964 102.97 149.964C103.049 149.99 103.098 149.99 103.15 149.99C103.947 150.015 104.586 149.789 105.128 149.614H105.155C105.233 149.588 105.334 149.537 105.413 149.537C105.54 149.486 105.645 149.46 105.746 149.439C106.49 149.289 107.208 149.439 107.26 150.391C107.361 152.322 109.16 152.596 108.955 153.023H108.947Z" fill="#93642F"/>
<path d="M101.527 174.57C101.834 202.759 91.4136 237.536 90.284 238.938C89.1545 240.34 81.6068 240.968 82.2763 239.566C82.7626 238.438 85.9492 225.786 87.3592 211.929C87.6921 208.698 87.9502 205.391 88.025 202.131C88.0773 200.379 88.1259 198.725 88.1521 197.119C88.485 183.138 88.3317 174.895 88.025 169.409C87.7183 163.294 87.2807 154.927 89.4874 154.073C92.5431 152.872 101.527 174.57 101.527 174.57Z" fill="white"/>
<path d="M119.164 236.429C118.831 238.006 114.825 239.71 114.028 239.086C113.232 238.458 114.672 229.391 112.746 213.256C110.819 197.121 108.893 188.349 109.537 175.671C109.537 175.671 110.18 170.035 110.333 167.052C110.513 164.095 112.746 154.05 115.801 155.152C118.831 156.254 115.955 180.833 115.801 189.754C115.775 191.258 115.854 193.514 116.033 196.27C116.239 199.654 116.546 203.787 116.905 208.098C117.956 221.002 119.369 235.458 119.164 236.436V236.429Z" fill="white"/>
<path d="M112.747 154.062C118.844 154.843 121.892 163.144 124.14 169.879C126.388 176.614 127.67 191.803 128.471 200.415C129.271 209.026 130.236 214.352 129.754 214.352C129.271 214.352 124.618 214.98 123.175 213.724C121.731 212.472 115.474 184.126 114.83 175.986C114.187 167.842 112.104 168.784 111.782 162.206C111.461 155.628 112.743 154.062 112.743 154.062H112.747Z" fill="white"/>
<path d="M89.4792 154.059C84.0223 156.253 74.8776 167.683 74.8776 167.683C74.8776 167.683 67.3374 150.77 66.3725 150.927C65.4112 151.084 60.5977 153.431 60.5977 154.216C60.5977 155.001 65.4112 177.707 71.9902 177.707C76.0146 177.707 88.0355 171.913 88.6751 170.504C89.3184 169.095 89.4755 154.063 89.4755 154.063L89.4792 154.059Z" fill="white"/>
<path d="M115.582 156.623C115.53 158.66 112.586 164.402 112.586 164.402C112.586 164.402 115.421 164.508 115.795 165.705C116.169 166.906 111.838 170.86 110.499 173.364C109.164 175.868 109.538 165.599 111.46 162.259C113.387 158.919 115.578 156.623 115.578 156.623H115.582Z" fill="#D1D1D1"/>
<path d="M89.2381 155.547C90.2293 158.968 95.6151 164.944 95.6151 164.944C95.6151 164.944 92.047 165.962 93.5954 167.999C94.5866 169.298 100.87 173.726 100.87 173.204C100.87 172.682 95.574 158.548 93.9694 157.351C92.3649 156.153 89.2344 155.551 89.2344 155.551L89.2381 155.547Z" fill="#D1D1D1"/>
<path d="M109.537 175.672C108.894 165.024 109.776 152.966 110.259 152.886C110.741 152.809 115.151 155.233 115.716 156.175C116.277 157.113 111.142 165.024 111.142 165.024C111.142 165.024 114.672 165.257 114.912 165.728C115.151 166.199 113.715 167.586 112.507 169.488C110.663 172.387 109.537 175.672 109.537 175.672Z" fill="white"/>
<path d="M89.4785 154.063C90.4958 153.54 93.3309 153.07 93.9181 153.07C94.5053 153.07 96.0575 156.516 94.0266 156.983C91.9957 157.454 89.4823 154.059 89.4823 154.059L89.4785 154.063Z" fill="#FFE8CD"/>
<path d="M101.515 174.579C100.15 163.54 96.3802 152.811 95.2582 152.107C94.1361 151.402 89.2402 154.848 89.2402 155.553C89.2402 156.257 97.1282 165.547 97.1282 165.547C97.1282 165.547 94.6672 165.653 93.0103 167.373C92.5914 167.807 94.6148 168.311 97.2629 170.271C99.9109 172.228 101.515 174.579 101.515 174.579Z" fill="white"/>
<path d="M116.907 208.089C116.084 208.165 115.265 208.063 114.88 207.713C114.135 206.986 113.93 197.492 113.93 196.765C113.93 196.188 114.775 196.188 116.035 196.265C116.241 199.649 116.548 203.781 116.907 208.092V208.089Z" fill="#D1D1D1"/>
<path d="M95.3146 196.969C95.4155 197.597 93.1565 210.848 92.4122 211.377C91.8474 211.779 88.945 212.027 87.3555 211.929C87.6883 208.698 87.9464 205.391 88.0212 202.131C88.0736 200.379 88.1222 198.725 88.1484 197.119C91.2303 196.944 95.2098 196.392 95.3108 196.969H95.3146Z" fill="#D1D1D1"/>
<g style="mix-blend-mode:multiply">
<path d="M90.9307 166.183C91.5029 165.624 97.9921 165.504 98.2053 165.818C98.4185 166.132 99.8622 170.465 99.649 170.775C99.4358 171.085 91.2524 171.819 90.9831 171.505C90.7138 171.191 90.8222 166.285 90.9307 166.179V166.183Z" fill="#E6E6E6"/>
</g>
<path d="M90.337 165.754C90.9092 165.196 97.3984 165.075 97.6116 165.389C97.8248 165.703 99.2685 170.036 99.0553 170.347C98.8421 170.66 90.6586 171.391 90.3893 171.077C90.12 170.763 90.2285 165.856 90.337 165.751V165.754Z" fill="white"/>
<path d="M94.1354 166.475C94.6553 166.399 94.7376 163.774 94.6553 163.541C94.5731 163.307 93.4922 163.15 93.3725 163.384C93.2528 163.617 94.1354 166.475 94.1354 166.475Z" fill="#455D59"/>
<path d="M107.307 154.273C107.254 154.298 107.228 154.298 107.179 154.324C107.153 154.149 107.026 153.999 106.846 153.824C106.461 153.397 105.949 152.845 105.997 151.444C106.024 150.567 105.896 150.016 105.586 149.764C105.459 149.666 105.328 149.615 105.148 149.615C105.227 149.589 105.328 149.538 105.406 149.538C105.507 149.564 105.586 149.615 105.665 149.662C105.997 149.936 106.151 150.513 106.128 151.44C106.076 152.794 106.566 153.345 106.951 153.743C107.131 153.919 107.258 154.068 107.31 154.269L107.307 154.273Z" fill="#B77221"/>
<path d="M101.374 149.566C100.731 149.591 100.578 150.416 100.477 151.971C100.424 152.8 100.039 153.223 99.7062 153.574C99.4481 153.873 99.22 154.1 99.2948 154.476C99.321 154.527 99.2948 154.552 99.2424 154.552C99.2163 154.552 99.1901 154.527 99.1639 154.501C99.0854 154.074 99.3172 153.8 99.6015 153.497C99.9344 153.147 100.293 152.745 100.346 151.942C100.447 150.716 100.552 149.712 101.116 149.485H101.142C101.16 149.468 101.177 149.468 101.195 149.485C101.247 149.511 101.296 149.537 101.374 149.562V149.566Z" fill="#B77221"/>
<path d="M103.016 151.693C103.042 151.945 103.069 152.194 103.069 152.445C103.121 153.172 102.942 153.749 102.811 154.198C102.71 154.497 102.631 154.774 102.631 155.001H102.504C102.504 154.749 102.582 154.475 102.683 154.15C102.811 153.723 102.99 153.172 102.942 152.471C102.942 152.197 102.915 151.945 102.889 151.719C102.811 151.018 102.736 150.416 102.968 149.967C103.046 149.992 103.095 149.992 103.147 149.992C102.889 150.419 102.942 150.996 103.02 151.697L103.016 151.693Z" fill="#B77221"/>
<path d="M98.4735 138.895C98.1818 137.862 98.5072 137.022 98.107 136.788C97.7031 136.551 97.5759 137.267 97.7442 137.836C97.9724 138.603 98.4735 138.898 98.4735 138.898V138.895Z" fill="#CB906F"/>
<path d="M114.594 293.856C112.904 293.695 110.955 294.404 110.955 294.404C110.955 294.404 111.621 293.878 112.747 293.72C113.872 293.563 114.591 293.856 114.591 293.856H114.594Z" fill="#745B86"/>
<path d="M110.737 252.877C111.485 254.494 116.433 253.191 116.272 251.078C116.171 249.749 110.254 251.837 110.737 252.877Z" fill="#8E8D8D"/>
<path d="M83.4881 251.337C82.482 251.87 85.1973 254.849 87.1796 254.389C89.7267 253.797 85.5377 250.253 83.4881 251.337Z" fill="#8E8D8D"/>
<path d="M97.3286 167.349L91.2957 167.672C91.2957 167.672 91.2695 167.686 91.2695 167.701V167.767C91.2695 167.767 91.2882 167.793 91.3032 167.793L97.3361 167.47C97.3361 167.47 97.3622 167.456 97.3622 167.441V167.375C97.3622 167.375 97.3435 167.349 97.3286 167.349Z" fill="#8E8D8D"/>
<path d="M94.7738 168.134L91.3328 168.317C91.3328 168.317 91.3066 168.332 91.3066 168.346V168.412C91.3066 168.412 91.3253 168.438 91.3403 168.438L94.7812 168.255C94.7812 168.255 94.8074 168.24 94.8074 168.225V168.16C94.8074 168.16 94.7887 168.134 94.7738 168.134Z" fill="#8E8D8D"/>
<path d="M386.667 127.13C385.526 125.367 381.053 123.691 377.72 125.83C374.388 127.969 373.913 131.963 373.722 136.884C373.531 141.808 367.917 142.177 367.061 146.824C366.204 151.467 371.725 153.234 372.106 156.205C372.488 159.177 393.567 159.016 394.33 156.322C395.093 153.628 389.24 150.167 389.618 148.218C389.999 146.269 393.347 145.126 391.712 141.622C390.474 138.975 388.286 140.041 388.571 135.77C388.855 131.496 389.689 130.776 389.117 128.732C388.544 126.688 386.667 127.13 386.667 127.13Z" fill="#4B494A"/>
<path d="M373.272 160.848C373.844 163.279 376.492 165.105 385.539 163.568C394.609 162.031 393.33 154.716 388.76 154.362C384.193 154.026 384.488 143.706 384.832 139.939C384.832 139.939 378.893 139.114 379.189 145.779V145.867C379.233 146.67 379.256 147.382 379.256 148.028C379.233 152.799 377.909 153.467 375.83 154.091C373.477 154.781 372.699 158.417 373.272 160.848Z" fill="#EEC0B3"/>
<path d="M379.189 145.781V145.869C379.234 146.672 379.257 147.384 379.257 148.03C382.043 148.654 384.373 143.372 384.717 141.142C384.717 141.142 380.858 143.752 379.189 145.778V145.781Z" fill="#DCA396"/>
<path d="M374.274 138.62C374.252 139.022 374.274 139.423 374.319 139.803C374.525 142.811 375.46 145.399 377.54 146.224C381.695 147.83 385.992 141.343 385.992 135.39C385.992 129.436 382.2 129.637 379.802 130.108C377.427 130.575 374.959 132.137 374.959 132.137C374.525 134.097 374.23 136.419 374.274 138.624V138.62Z" fill="#EEC0B3"/>
<path d="M377.601 141.608C377.627 141.608 377.649 141.586 377.653 141.557C377.661 141.524 377.638 141.491 377.608 141.484C376.819 141.312 376.8 140.706 376.808 140.549C376.984 140.476 377.773 140.107 378.139 139.239C378.383 138.658 378.386 137.986 378.147 137.238C378.136 137.205 378.102 137.194 378.076 137.202C378.05 137.213 378.035 137.249 378.042 137.282C378.274 137.997 378.27 138.636 378.042 139.18C377.657 140.093 376.748 140.44 376.741 140.443L376.707 140.458V140.494C376.707 140.494 376.595 141.392 377.586 141.608C377.586 141.608 377.593 141.608 377.597 141.608H377.601Z" fill="#5A213E"/>
<path d="M380.006 137.847C379.983 138.38 380.155 138.818 380.387 138.829C380.619 138.837 380.821 138.413 380.844 137.88C380.866 137.347 380.694 136.909 380.462 136.898C380.23 136.887 380.028 137.314 380.006 137.847Z" fill="#5A213E"/>
<path d="M375.908 137.847C375.886 138.38 376.058 138.818 376.29 138.829C376.522 138.837 376.724 138.413 376.746 137.88C376.768 137.347 376.596 136.909 376.365 136.898C376.133 136.887 375.931 137.314 375.908 137.847Z" fill="#5A213E"/>
<path d="M382.426 135.626C382.576 135.923 380.706 135.473 380.627 135.283C380.548 135.093 380.773 135.001 381.132 134.998C381.491 134.994 382.385 135.55 382.426 135.626Z" fill="#5A213E"/>
<path d="M374.981 135.626C374.832 135.923 376.702 135.473 376.78 135.283C376.859 135.093 376.634 135.001 376.275 134.998C375.912 134.994 375.022 135.55 374.981 135.626Z" fill="#5A213E"/>
<path d="M383.062 139.442C383.114 139.763 382.59 140.113 381.895 140.219C381.199 140.325 380.593 140.153 380.541 139.829C380.488 139.504 381.012 139.157 381.708 139.051C382.403 138.945 383.009 139.117 383.062 139.442Z" fill="#E38585"/>
<path d="M374.274 138.618C374.252 139.02 374.274 139.421 374.319 139.801C375.004 139.936 375.598 139.779 375.666 139.465C375.733 139.151 375.209 138.775 374.525 138.64C374.435 138.618 374.342 138.596 374.274 138.618Z" fill="#E38585"/>
<path d="M385.62 137.158C387.056 136.223 387.976 137.366 387.546 138.76C387.116 140.155 385.118 140.991 384.834 139.943C384.55 138.899 385.189 137.435 385.62 137.158Z" fill="#EEC0B3"/>
<path d="M386.187 286.377C386.472 289.352 386.472 291.487 388.828 293.948C391.184 296.408 396.536 294.984 396.536 294.984C396.536 294.984 391.97 290.841 391.038 288.643C390.515 287.399 390.683 286.121 390.608 285.278C390.537 284.438 386.184 286.377 386.184 286.377H386.187Z" fill="#EEC0B3"/>
<path d="M366.988 285.664C365.701 291.552 363.132 294.725 360.921 295.502C358.707 296.28 364.632 296.798 366.131 296.086C367.631 295.374 373.84 290.844 373.414 290.005C372.983 289.165 370.915 288.709 371.487 285.861C372.06 283.014 366.992 285.668 366.992 285.668L366.988 285.664Z" fill="#EEC0B3"/>
<path d="M385.619 241.39C382.051 239.857 373.486 239.021 373.486 239.021C373.486 239.021 376.486 204.604 379.482 206.974C382.481 209.343 385.619 241.39 385.619 241.39Z" fill="#D1D1D1"/>
<path d="M370.772 199.532C366.348 215.065 363.778 231.24 365.203 244.184C366.632 257.125 366.059 284.554 366.916 285.901C367.559 286.916 371.105 286.591 371.673 286.073C372.246 285.554 376.337 264.63 376.053 253.89C375.769 243.151 374.624 242.242 375.481 236.288C376.337 230.334 379.621 208.687 379.621 208.687C379.621 208.687 383.62 234.346 382.763 240.169C381.907 245.991 380.908 251.43 381.334 258.417C381.764 265.408 385.333 286.244 386.047 287.022C386.761 287.799 390.187 287.409 390.76 287.149C391.332 286.89 391.616 257.252 392.615 245.086C393.613 232.919 389.473 200.821 388.474 197.973C387.476 195.126 370.772 199.525 370.772 199.525V199.532Z" fill="#AFAFAF"/>
<path d="M388.761 160.987C384.479 160.428 374.769 159.873 372.488 161.264C370.203 162.658 366.635 198.327 370.775 199.721C374.915 201.116 387.763 200.557 389.192 199.582C390.62 198.608 388.761 160.987 388.761 160.987Z" fill="#93642F"/>
<path d="M385.951 136.974C383.363 137.23 383.715 132.284 383.715 132.284C383.715 132.284 375.576 136.047 374.862 132.422C374.148 128.797 384.998 127.545 386.094 129.217C387.189 130.889 386.569 135.532 386.426 135.905C386.284 136.277 385.951 136.974 385.951 136.974Z" fill="#4B494A"/>
<path d="M361.051 241.241C363.931 245.143 369.639 244.318 369.639 243.603C369.639 242.887 367.765 234.418 370.05 216.849C371.307 207.149 372.881 195.913 373.798 185.747C373.798 185.568 373.82 185.389 373.843 185.21C374.527 177.205 374.826 169.915 374.209 164.611C372.474 149.739 367.492 170.317 367.492 170.317C367.836 176.96 368.064 180.972 367.813 184.988C367.769 185.389 367.746 185.769 367.698 186.17C367.492 188.689 367.058 191.321 366.351 194.709C364.343 204.05 358.22 237.335 361.051 241.237V241.241Z" fill="white"/>
<path d="M367.701 186.176C368.685 186.49 372.174 186.227 373.801 185.752C373.801 185.573 373.824 185.395 373.846 185.216C373.046 185.015 370.899 184.705 369.347 184.705C368.618 184.705 368.113 184.818 367.817 184.993C367.772 185.395 367.75 185.774 367.701 186.176Z" fill="#D1D1D1"/>
<path d="M361.828 183.97C363.952 186.645 376.676 186.2 383.3 183.703C383.483 183.616 383.689 183.546 383.872 183.48C384.194 183.345 384.49 183.192 384.763 183.057C390.586 180.071 382.455 178.308 378.251 177.797C378.135 177.775 378.023 177.775 377.907 177.753C376.811 177.618 375.622 177.618 374.458 177.64C371.283 177.727 368.291 178.22 368.018 177.954C367.629 177.574 373.067 154.814 373.067 154.814C364.958 156.486 363.245 163.264 362.194 168.368C361.166 173.497 359.546 181.097 361.828 183.973V183.97Z" fill="white"/>
<path d="M369.82 156.114C370.77 158.994 372.199 162.105 372.199 162.105C372.199 162.105 369.772 163.079 369.723 163.868C369.674 164.656 373.673 172.508 374.006 172.647C374.338 172.786 373.531 162.707 373.149 160.338C372.768 157.969 369.817 156.111 369.817 156.111L369.82 156.114Z" fill="#D1D1D1"/>
<path d="M374.628 174.297C375.342 168.515 374.77 153.325 373.984 153.953C373.199 154.581 369.489 155.278 369.631 155.694C369.773 156.114 373.27 162.663 373.27 162.663C373.27 162.663 370.76 163.035 370.27 163.777C370.057 164.101 374.624 174.297 374.624 174.297H374.628Z" fill="white"/>
<path d="M369.046 177.773C369.547 177.751 369.73 177.105 369.775 176.59H369.798C369.843 176.232 369.82 175.944 369.82 175.944C369.82 175.944 369.865 175.966 369.91 175.988C370.411 176.254 373.175 177.594 374.204 176.59C375.344 175.477 376.395 173.246 376.395 173.246C371.69 172.198 368.059 173.381 367.258 174.783C366.48 176.188 368.193 177.838 369.038 177.769L369.046 177.773Z" fill="#EEC0B3"/>
<path d="M383.666 182.251V183.744C383.643 192.684 383.961 202.584 384.762 210.031C386.475 226.195 387.047 242.49 387.32 243.206C387.615 243.896 396.046 242.647 397.325 238.325C398.604 233.999 394.606 210.881 392.186 197.371C391.546 193.827 391.363 190.147 391.43 186.515V185.777C391.681 175.856 393.761 166.405 393.761 160.987C393.761 160.987 389.123 148.39 384.896 161.769C384.189 164.043 383.733 172.446 383.662 182.258L383.666 182.251Z" fill="white"/>
<path d="M387.724 170.042H391.748C391.773 170.042 391.793 170.022 391.793 169.998V168.71C391.793 168.685 391.773 168.666 391.748 168.666H387.724C387.699 168.666 387.679 168.685 387.679 168.71V169.998C387.679 170.022 387.699 170.042 387.724 170.042Z" fill="#D1D1D1"/>
<path d="M390.439 167.386V171.318C390.439 171.34 390.421 171.362 390.395 171.362H389.071C389.048 171.362 389.026 171.343 389.026 171.318V167.386C389.026 167.364 389.044 167.343 389.071 167.343H390.395C390.417 167.343 390.439 167.361 390.439 167.386Z" fill="#D1D1D1"/>
<path d="M385.549 175.655C386.906 174.68 390.901 173.914 393.186 175.027C395.471 176.14 395.898 178.024 392.292 177.812C388.687 177.604 385.545 175.651 385.545 175.651L385.549 175.655Z" fill="#EEC0B3"/>
<path d="M390.283 155.184C394.184 155.648 396.185 155.929 397.326 157.601C397.756 158.229 398.945 161.627 399.933 165.887C397.535 166.161 394.951 167.106 392.546 167.822C391.809 161.926 390.283 155.184 390.283 155.184Z" fill="white"/>
<path d="M391.649 155.344C390.519 156.947 386.996 162.382 386.996 162.382C386.996 162.382 390.089 162.707 390.089 163.682C390.089 164.656 384.284 173.388 384.187 174.224C384.094 175.06 384.187 163.912 385.807 160.429C387.426 156.947 391.649 155.344 391.649 155.344Z" fill="#D1D1D1"/>
<path d="M383.907 176.107C383.477 168.583 384.262 162.662 385.336 158.691C386.409 154.719 387.049 153.153 387.621 153.639C388.193 154.128 391.903 155.059 391.653 155.347C387.011 160.713 385.979 162.87 385.979 162.87C385.979 162.87 389.476 163.079 389.547 163.568C389.618 164.057 387.621 166.981 386.192 170.047C384.764 173.114 383.907 176.107 383.907 176.107Z" fill="white"/>
<path d="M374.459 177.638C375.076 178.886 381.15 182.832 383.301 183.701C383.507 183.789 383.69 183.858 383.802 183.88C383.802 183.88 383.847 183.723 383.869 183.478C383.985 182.496 383.869 179.868 379.965 178.419C379.325 178.196 378.753 177.974 378.252 177.795C378.136 177.773 378.023 177.773 377.907 177.751C376.812 177.616 375.622 177.616 374.459 177.638Z" fill="#D1D1D1"/>
<path d="M383.667 183.746C383.757 183.833 383.805 183.881 383.805 183.881C387.026 185.33 390.111 186.421 391.435 186.513V185.775C389.973 184.662 386.136 182.588 384.217 182.296C384.011 182.253 383.828 182.253 383.667 182.253C382.272 182.231 383.278 183.366 383.667 183.746Z" fill="#D1D1D1"/>
<path d="M376.293 172.273C377.433 172.273 388.572 176.73 391.807 176.452C393.209 176.332 393.108 172.324 392.547 167.819C394.952 167.104 397.537 166.158 399.934 165.884C401.576 172.984 402.646 182.483 398.662 185.556C392.285 190.481 373.82 177.474 373.82 177.011C373.82 176.547 375.152 172.273 376.296 172.273H376.293Z" fill="white"/>
<path d="M377.766 153.085C376.479 154.282 378.716 158.718 376.67 161.226C374.624 163.733 371.198 163.222 371.198 162.945C371.198 162.667 374.194 159.926 371.411 154.549C368.58 149.081 377.766 153.085 377.766 153.085Z" fill="#4B494A"/>
<path d="M386.658 290.135C386.658 290.135 387.548 297.673 388.304 298.896H397.737C397.781 298.856 397.826 298.834 397.853 298.794C399.543 297.053 395.317 293.68 393.192 291.61C393.604 292.128 395.272 294.238 395.227 294.614C395.182 295.049 392.758 295.443 390.956 294.841C389.153 294.238 386.662 290.139 386.662 290.139L386.658 290.135Z" fill="#388477"/>
<path d="M354.654 298.899H367.128C367.678 298.008 368.268 296.745 369.114 295.916C370.438 294.569 371.672 293.97 371.923 294.095C372.106 294.219 371.807 297.595 371.717 298.899H372.745C373.34 297.365 374.23 293.474 374.391 292.335C374.574 290.948 373.819 289.747 372.244 288.878C372.244 288.878 371.444 289.188 370.142 290.349C368.863 291.51 366.215 294.014 364.91 295.007C363.631 296 361.645 295.171 361.645 295.171C361.645 295.171 357.968 296.643 356.644 297.201C355.526 297.657 354.886 298.194 354.658 298.899H354.654Z" fill="#388477"/>
<g style="mix-blend-mode:multiply">
<path d="M374.018 168.43C373.161 168.014 369.163 167.919 368.879 168.197C368.595 168.474 367.592 171.727 367.832 171.96C368.071 172.194 372.828 172.238 373.401 171.869C373.973 171.5 374.399 168.616 374.018 168.43Z" fill="#E6E6E6"/>
</g>
<path d="M373.723 168.139C372.866 167.723 368.868 167.628 368.584 167.906C368.3 168.183 367.297 171.436 367.537 171.669C367.776 171.903 372.534 171.947 373.106 171.578C373.678 171.206 374.104 168.326 373.723 168.139Z" fill="white"/>
<path d="M371.74 166.738C371.37 166.537 370.379 166.599 370.379 166.844C370.379 167.089 370.671 169.005 370.802 169.074C370.932 169.144 371.998 166.88 371.74 166.742V166.738Z" fill="#455D59"/>
<path d="M380.191 142.737C378.194 143.503 376.23 142.806 376.23 142.806C376.23 142.806 376.373 144.46 378.299 144.408C379.855 144.365 380.191 142.737 380.191 142.737Z" fill="white"/>
<path d="M368.483 169.407L373.013 169.63C373.013 169.63 373.031 169.641 373.031 169.652V169.7C373.031 169.7 373.02 169.718 373.005 169.718L368.476 169.495C368.476 169.495 368.457 169.484 368.457 169.473V169.425C368.457 169.425 368.468 169.407 368.483 169.407Z" fill="#8E8D8D"/>
<path d="M370.401 169.985L372.986 170.113C372.986 170.113 373.004 170.124 373.004 170.135V170.183C373.004 170.183 372.993 170.201 372.978 170.201L370.394 170.073C370.394 170.073 370.375 170.062 370.375 170.051V170.003C370.375 170.003 370.386 169.985 370.401 169.985Z" fill="#8E8D8D"/>
<path d="M385.555 139.304C385.555 139.304 385.992 137.683 386.434 137.818C386.8 137.931 386.565 138.391 386.351 138.683C386.03 139.128 385.555 139.304 385.555 139.304Z" fill="#DCA396"/>
<path d="M368.635 175.383C368.546 175.496 369.185 176.588 369.776 176.588H369.799C369.844 176.23 369.821 175.941 369.821 175.941C369.821 175.941 368.748 175.273 368.632 175.383H368.635Z" fill="#DCA396"/>
<path d="M369.934 248.851C368.573 250.183 365.977 248.157 365.775 247.066C365.573 245.975 371.15 247.661 369.934 248.851Z" fill="#8E8D8D"/>
<path d="M386.312 249.354C387.449 251.194 391.047 249.916 391.619 248.839C392.195 247.762 385.294 247.711 386.312 249.354Z" fill="#8E8D8D"/>
<path d="M367.841 172.341C366.771 174.221 365.84 177.813 366.311 178.404C366.674 178.864 366.771 178.44 366.771 177.389C366.771 174.732 367.841 172.337 367.841 172.337V172.341Z" fill="#D1D1D1"/>
<path d="M366.248 178.259C367.752 178.415 374.364 177.645 374.364 177.645C374.364 177.645 367.681 178.956 366.985 178.854C366.289 178.751 366.252 178.259 366.252 178.259H366.248Z" fill="#D1D1D1"/>
<path d="M173.631 299.953C173.545 299.953 173.463 299.949 173.373 299.935C172.445 299.814 171.809 299.077 171.952 298.285L197.991 151.939C198.133 151.151 198.985 150.603 199.92 150.724C200.844 150.844 201.48 151.582 201.342 152.374L175.303 298.719C175.176 299.435 174.454 299.949 173.627 299.949L173.631 299.953Z" fill="#388477"/>
<path d="M213.554 299.953C213.468 299.953 213.382 299.949 213.296 299.935C212.372 299.814 211.736 299.077 211.874 298.285L237.913 151.939C238.056 151.151 238.908 150.603 239.843 150.724C240.767 150.844 241.403 151.582 241.265 152.374L215.226 298.719C215.098 299.435 214.377 299.949 213.554 299.949V299.953Z" fill="#388477"/>
<path d="M237.169 164.588H197.366C196.741 164.588 196.236 164.158 196.236 163.625C196.236 163.092 196.741 162.661 197.366 162.661H237.169C237.793 162.661 238.298 163.092 238.298 163.625C238.298 164.158 237.793 164.588 237.169 164.588Z" fill="#388477"/>
<path d="M234.405 185.16H194.602C193.978 185.16 193.473 184.729 193.473 184.196C193.473 183.663 193.978 183.232 194.602 183.232H234.405C235.03 183.232 235.535 183.663 235.535 184.196C235.535 184.729 235.03 185.16 234.405 185.16Z" fill="#388477"/>
<path d="M229.505 205.732H189.702C189.077 205.732 188.572 205.301 188.572 204.768C188.572 204.235 189.077 203.804 189.702 203.804H229.505C230.129 203.804 230.634 204.235 230.634 204.768C230.634 205.301 230.129 205.732 229.505 205.732Z" fill="#388477"/>
<path d="M226.598 226.303H186.796C186.171 226.303 185.666 225.872 185.666 225.339C185.666 224.806 186.171 224.376 186.796 224.376H226.598C227.223 224.376 227.728 224.806 227.728 225.339C227.728 225.872 227.223 226.303 226.598 226.303Z" fill="#388477"/>
<path d="M223.485 246.868H183.682C183.058 246.868 182.553 246.437 182.553 245.904C182.553 245.371 183.058 244.94 183.682 244.94H223.485C224.11 244.94 224.615 245.371 224.615 245.904C224.615 246.437 224.11 246.868 223.485 246.868Z" fill="#388477"/>
<path d="M218.938 267.439H179.135C178.511 267.439 178.006 267.009 178.006 266.476C178.006 265.943 178.511 265.512 179.135 265.512H218.938C219.563 265.512 220.068 265.943 220.068 266.476C220.068 267.009 219.563 267.439 218.938 267.439Z" fill="#388477"/>
<path d="M215.386 288.011H175.583C174.958 288.011 174.453 287.58 174.453 287.047C174.453 286.514 174.958 286.083 175.583 286.083H215.386C216.01 286.083 216.515 286.514 216.515 287.047C216.515 287.58 216.01 288.011 215.386 288.011Z" fill="#388477"/>
<path d="M223.116 97.6403V97.6695C222.118 99.3012 220.476 100.645 218.191 101.247C218.191 101.247 199.953 104.222 195.817 105.368C193.09 106.142 189.309 104.937 187.166 102.506C186.021 101.247 185.348 99.6736 185.464 97.8703C185.816 92.5772 193.793 91.8617 193.793 91.8617C193.793 91.8617 193.352 90.0584 194.437 88.569C195.405 87.2804 197.193 87.0504 197.193 87.0504C197.193 87.0504 194.351 84.82 195.637 81.5857C196.928 78.3515 200.036 77.7492 200.036 77.7492C200.036 77.7492 200.036 71.2514 204.786 70.5943C208.421 70.0796 209.652 72.5692 212.322 73.3687C215.928 74.3981 217.454 71.7369 218.83 74.0549C220.18 76.4022 217.158 78.461 217.158 78.461C217.158 78.461 219.447 79.2641 220.091 81.9508C220.738 84.6119 218.916 86.93 218.916 86.93C218.916 86.93 223.401 87.5578 224.223 91.5076C224.665 93.5664 224.313 95.8005 223.109 97.633L223.116 97.6403Z" fill="#4B494A"/>
<path d="M200.687 98.814C203.941 97.5838 203.911 94.178 204.207 89.228C204.207 89.0857 204.237 88.9433 204.237 88.7973C204.237 88.7973 210.187 87.881 210.483 92.2323L210.307 95.8681C210.397 98.6716 212.065 98.2738 212.974 98.7593C214.058 99.3616 197.317 100.077 200.687 98.8177V98.814Z" fill="#E4A1A1"/>
<path d="M210.479 92.2296L210.303 95.8655C208.044 95.9239 205.288 93.5766 204.203 89.2253C204.203 89.2253 207.371 89.7985 208.863 90.6855C209.331 90.9702 209.948 91.5434 210.475 92.2296H210.479Z" fill="#D38989"/>
<path d="M212.355 93.6344C205.847 95.3501 202.328 87.7682 202.795 81.7596C203.237 75.7766 210.392 75.4918 212.209 76.0357C214.057 76.5797 215.347 78.4669 215.347 78.4669C215.553 80.2118 216.02 82.4751 216.256 84.6763C216.286 85.1618 216.346 85.6509 216.346 86.1365C216.492 89.5715 215.819 92.7181 212.359 93.6344H212.355Z" fill="#E4A1A1"/>
<path d="M213.362 87.4497C213.336 87.4497 213.313 87.4278 213.31 87.3986C213.302 87.3658 213.325 87.3329 213.354 87.3256C214.144 87.154 214.162 86.5481 214.155 86.3911C213.979 86.3181 213.19 85.9494 212.823 85.0806C212.58 84.5038 212.577 83.8285 212.816 83.0802C212.827 83.0473 212.861 83.0364 212.887 83.0437C212.913 83.0546 212.928 83.0911 212.921 83.124C212.689 83.8395 212.692 84.4783 212.921 85.0222C213.306 85.9348 214.215 86.2816 214.222 86.2852L214.256 86.2998V86.3363C214.256 86.3363 214.368 87.2343 213.377 87.4497C213.377 87.4497 213.369 87.4497 213.366 87.4497H213.362Z" fill="#5A213E"/>
<path d="M210.303 83.9323C210.321 84.4324 210.164 84.8413 209.947 84.8486C209.73 84.8559 209.54 84.458 209.521 83.9615C209.502 83.4614 209.659 83.0526 209.876 83.0453C210.093 83.038 210.284 83.4359 210.303 83.9323Z" fill="#5A213E"/>
<path d="M214.242 83.678C214.242 84.1781 214.418 84.5833 214.635 84.5833C214.852 84.5833 215.028 84.1781 215.028 83.678C215.028 83.1779 214.852 82.7727 214.635 82.7727C214.418 82.7727 214.242 83.1779 214.242 83.678Z" fill="#5A213E"/>
<path d="M208.115 80.9501C207.965 81.3298 210.202 80.5668 210.276 80.3295C210.351 80.0886 210.067 80.001 209.626 80.0375C209.184 80.0704 208.156 80.8552 208.115 80.9538V80.9501Z" fill="#5A213E"/>
<path d="M215.662 80.9501C215.812 81.3298 213.575 80.5668 213.5 80.3295C213.425 80.0886 213.71 80.001 214.151 80.0375C214.592 80.074 215.621 80.8552 215.662 80.9538V80.9501Z" fill="#5A213E"/>
<path d="M211.024 89.5649C211.039 89.9737 211.566 90.2876 212.202 90.2621C212.834 90.2365 213.335 89.8861 213.32 89.4773C213.305 89.0684 212.778 88.7545 212.142 88.78C211.51 88.8056 211.009 89.156 211.024 89.5649Z" fill="#DA5A78"/>
<path d="M211.5 89.7256C212.229 89.8133 213.018 89.7768 213.497 89.5611C213.535 89.5428 213.55 89.5026 213.523 89.4733C213.497 89.4404 213.449 89.4294 213.411 89.4477C212.532 89.8389 210.456 89.6013 209.996 89.0565C209.97 89.0273 209.918 89.0163 209.88 89.0346C209.843 89.0529 209.832 89.0931 209.858 89.1223C210.112 89.4185 210.782 89.6342 211.504 89.7219L211.5 89.7256Z" fill="#5A213E"/>
<path d="M206.925 85.4944C206.873 85.8996 207.397 86.3012 208.1 86.3851C208.799 86.4691 209.409 86.2099 209.461 85.8047C209.514 85.3995 208.99 84.9979 208.287 84.914C207.587 84.83 206.978 85.0892 206.925 85.4944Z" fill="#E06C86"/>
<path d="M216.343 86.1367C215.876 86.1951 215.494 86.0783 215.375 85.7935C215.229 85.4212 215.61 84.9357 216.254 84.6765C216.284 85.162 216.343 85.6512 216.343 86.1367Z" fill="#E06C86"/>
<path d="M203.061 83.2518C202.085 82.7735 200.619 83.0145 200.556 84.6827C200.496 86.351 203.428 88.439 203.978 87.008C204.528 85.5771 203.061 83.2518 203.061 83.2518Z" fill="#E4A1A1"/>
<path d="M199.881 98.6377C203.363 98.0427 211 97.3272 214.052 99.1743C217.108 101.021 213.869 114.857 211.243 114.915C208.618 114.973 199.881 98.6377 199.881 98.6377Z" fill="#AFAFAF"/>
<path d="M180.607 232.276C180.791 234.065 182.074 239.61 183.263 239.698C184.452 239.785 189.95 239.431 189.127 238.716C188.305 238 188.578 231.831 188.394 231.203C188.211 230.579 180.607 232.276 180.607 232.276Z" fill="#E4A1A1"/>
<path d="M206.361 230.399C206.178 231.472 206.728 237.105 208.744 238.448C210.76 239.788 214.881 237.824 214.331 237.287C213.782 236.751 214.331 230.582 214.238 230.045C214.148 229.508 206.357 230.403 206.357 230.403L206.361 230.399Z" fill="#E4A1A1"/>
<path d="M219.185 186.398C215.886 202.376 214.726 233.408 214.236 233.528C213.746 233.649 207.272 234.094 206.416 233.616C205.559 233.138 198.169 204.044 201.711 189.734C205.253 175.424 219.181 186.394 219.181 186.394L219.185 186.398Z" fill="#AFAFAF"/>
<path d="M196.341 189.856C191.209 201.661 189.134 233.738 188.644 234.216C188.154 234.694 181.328 235.15 180.703 234.694C179.237 233.621 172.883 203.333 176.428 188.188C179.97 173.042 196.341 189.856 196.341 189.856Z" fill="#AFAFAF"/>
<path d="M197.901 244.939H179.574C179.252 243.939 179.193 242.993 179.308 242.165C179.63 239.332 181.829 237.587 181.829 237.587C183.18 238.073 187.372 237.558 188.838 237.616C190.159 237.675 197.43 240.022 197.897 244.943L197.901 244.939Z" fill="#388477"/>
<path d="M223.673 244.938H205.522C205.055 243.792 204.965 242.733 205.055 241.791C205.346 238.871 207.575 237.097 207.575 237.097C208.776 237.527 212.266 237.155 214.027 237.126H214.584C215.961 237.184 223.673 239.703 223.673 244.938Z" fill="#388477"/>
<path d="M227.281 152.761V152.79C227.251 153.735 227.191 154.677 227.135 155.623V155.652C226.05 171.965 222.471 184.987 222.471 184.987C222.471 184.987 217.545 189.794 203.059 191.397C188.574 193.028 174.088 188.363 174.088 188.363C174.088 188.363 174.178 172.995 176.93 155.911C177.076 154.995 177.252 154.078 177.398 153.162C178.397 147.668 179.627 142.087 181.269 136.848C181.71 135.388 182.178 133.987 182.675 132.585L182.705 132.556C191.151 109.489 196.574 99.3586 196.574 99.3586C196.574 99.3586 202.498 105.367 203.407 108.058C204.23 110.434 208.98 117.045 210.151 118.618C210.24 118.447 210.386 118.187 210.562 117.903C212.204 115.212 213.319 104.48 214.052 103.593C214.785 102.677 216.367 99.3586 216.367 99.3586C218.45 100.731 225.339 115.212 227.127 138.451C227.509 143.317 227.509 148.125 227.273 152.761H227.281Z" fill="white"/>
<path d="M207.946 136.084C208.419 136.084 208.803 135.71 208.803 135.249C208.803 134.787 208.419 134.413 207.946 134.413C207.473 134.413 207.09 134.787 207.09 135.249C207.09 135.71 207.473 136.084 207.946 136.084Z" fill="#D1D1D1"/>
<path d="M205.41 156.263C205.41 156.723 205.029 157.099 204.554 157.099C204.079 157.099 203.697 156.727 203.697 156.263C203.697 155.8 204.079 155.427 204.554 155.427C205.029 155.427 205.41 155.8 205.41 156.263Z" fill="#D1D1D1"/>
<path d="M201.442 178.114C201.915 178.114 202.299 177.74 202.299 177.278C202.299 176.817 201.915 176.442 201.442 176.442C200.969 176.442 200.586 176.817 200.586 177.278C200.586 177.74 200.969 178.114 201.442 178.114Z" fill="#D1D1D1"/>
<path d="M216.377 99.3513C218.086 100.067 220.166 100.662 221.875 102.808C223.584 104.955 230.795 116.997 231.405 126.536C232.015 136.075 225.05 133.811 221.875 130.592C218.7 127.372 216.377 99.3513 216.377 99.3513Z" fill="white"/>
<path d="M196.584 99.3513C191.576 99.8295 181.799 106.028 175.572 115.928C169.341 125.824 169.95 132.384 172.273 134.173C174.596 135.961 193.042 116.048 193.042 114.022C193.042 111.996 196.584 99.355 196.584 99.355V99.3513Z" fill="white"/>
<path d="M218.914 100.634C218.042 103.003 215.753 106.314 215.753 106.314C215.753 106.314 218.136 106.537 218.547 107.344C218.959 108.147 215.204 112.487 214.609 112.396C214.014 112.308 213.693 107.522 214.426 105.511C215.159 103.5 218.914 100.638 218.914 100.638V100.634Z" fill="#D1D1D1"/>
<path d="M194.326 100.187C195.044 102.6 200.542 106.805 200.542 106.805C200.542 106.805 197.472 107.342 197.154 108.638C196.892 109.696 206.957 115.614 207.05 114.405C207.106 113.686 202.88 105.82 200.913 103.717C198.942 101.614 194.33 100.183 194.33 100.183L194.326 100.187Z" fill="#D1D1D1"/>
<path d="M210.572 113.425C204.891 108.179 201.592 98.0418 201.102 97.863C200.612 97.6841 194.748 99.5312 194.321 100.188C193.895 100.845 201.835 107.044 201.835 107.044C201.835 107.044 197.987 107.88 197.987 108.475C197.987 109.07 204.341 113.72 206.907 114.436C209.473 115.151 210.572 113.421 210.572 113.421V113.425Z" fill="white"/>
<path d="M210.023 112.351C213.228 107.879 213.292 98.49 213.931 98.3987C214.571 98.3111 218.909 100.187 218.909 100.633C218.909 101.078 214.788 106.714 214.788 106.714C214.788 106.714 217.858 106.937 217.948 107.295C218.038 107.653 211.855 118.071 210.389 117.983C208.923 117.896 209.2 113.69 209.29 113.424C209.379 113.157 209.338 113.307 210.023 112.351Z" fill="white"/>
<path d="M201.483 108.643L201.093 108.984C201.004 109.062 200.996 109.196 201.076 109.283L209.215 118.144C209.294 118.231 209.432 118.239 209.521 118.161L209.911 117.82C210 117.742 210.008 117.608 209.928 117.521L201.789 108.659C201.709 108.572 201.572 108.565 201.483 108.643Z" fill="#455D59"/>
<path d="M201.699 108.48L200.897 109.182C200.809 109.259 200.802 109.39 200.881 109.476L203.706 112.553C203.785 112.639 203.92 112.646 204.008 112.569L204.81 111.867C204.897 111.791 204.905 111.659 204.826 111.574L202 108.497C201.922 108.411 201.787 108.404 201.699 108.48Z" fill="#455D59"/>
<path d="M204.713 111.287H204.672C204.309 111.258 203.752 110.791 203.382 109.575C203.191 108.955 202.903 108.568 202.57 108.491C202.267 108.429 202.02 108.611 201.859 108.779C201.811 108.827 201.732 108.83 201.687 108.787C201.639 108.743 201.635 108.666 201.68 108.619C201.972 108.316 202.308 108.195 202.626 108.265C202.925 108.33 203.337 108.604 203.614 109.509C203.95 110.601 204.444 111.028 204.694 111.054H204.713C204.792 111.054 204.852 111.013 204.893 110.929C204.923 110.867 204.997 110.846 205.057 110.875C205.117 110.904 205.143 110.977 205.113 111.035C205.027 111.2 204.885 111.291 204.717 111.291L204.713 111.287Z" fill="#455D59"/>
<path d="M203.294 124.51C202.972 124.966 188.748 136.614 181.271 136.844C181.713 135.384 182.18 133.982 182.678 132.581L182.708 132.552C189.541 128.372 203.114 122.648 203.114 122.648C203.671 123.25 203.701 123.937 203.29 124.51H203.294Z" fill="#D1D1D1"/>
<path d="M200.129 119.384C201.352 118.906 205.017 117.953 205.017 117.953C205.017 117.953 205.324 111.635 208.926 112.467C212.531 113.303 211.207 119.607 208.866 121.531C207.34 122.783 205.81 121.83 205.81 121.83C205.81 121.83 200.985 125.108 200.739 124.513C200.495 123.918 200.129 119.384 200.129 119.384Z" fill="#E4A1A1"/>
<path d="M211.979 127.851C211.612 151.819 200.982 191.646 200.982 191.646C200.982 191.646 208.137 168.027 210.389 152.535C213.078 134.053 211.979 127.851 211.979 127.851Z" fill="#D1D1D1"/>
<path d="M225.232 128.399C223.171 131.44 222.513 138.504 227.125 138.46C231.736 138.416 228.482 127.771 227.154 127.414C225.827 127.056 225.232 128.396 225.232 128.396V128.399Z" fill="#D1D1D1"/>
<path d="M246.339 102.909L237.953 115.043L228.569 128.608C228.539 128.637 228.51 128.667 228.453 128.667H203.854C203.738 128.667 203.679 128.553 203.738 128.466L221.538 102.767C221.568 102.738 221.598 102.708 221.654 102.708H246.253C246.343 102.708 246.399 102.822 246.343 102.909H246.339Z" fill="#455D59"/>
<path d="M238.208 104.817C238.167 104.864 238.103 104.893 238.032 104.893H228.506L231.311 101.63C231.352 101.582 231.416 101.553 231.487 101.553H241.013L238.208 104.817Z" fill="#8E8D8D"/>
<path d="M247.776 115.296C250.065 112.347 250.166 104.896 246.31 103.761C243.071 102.808 241.362 107.339 242.705 109.664C243.737 111.449 245.117 112.256 245.117 112.256C245.117 112.256 240.719 113.774 240.719 114.669C240.719 115.563 247.773 115.293 247.773 115.293L247.776 115.296Z" fill="#E4A1A1"/>
<path opacity="0.3" d="M212.268 83.9931C212.268 84.2523 212.238 84.5078 212.178 84.7378C212.032 85.654 211.561 86.3987 210.917 86.771C210.652 86.9134 210.39 87.001 210.068 87.001C209.922 87.001 209.803 86.9718 209.657 86.9426C209.421 86.8842 209.189 86.771 208.984 86.5995C208.367 86.1432 207.959 85.2817 207.899 84.2815C207.869 84.1938 207.869 84.0807 207.869 83.9967C207.869 82.4234 208.778 81.1348 209.893 81.0216C209.952 80.9924 210.009 80.9924 210.068 80.9924C210.772 80.9924 211.389 81.4232 211.77 82.1095C211.946 82.3686 212.062 82.6534 212.122 82.9673C212.208 83.2812 212.268 83.6244 212.268 83.9967V83.9931Z" fill="white"/>
<path opacity="0.3" d="M217.517 83.9022C217.517 84.1614 217.487 84.4462 217.457 84.6761C217.281 85.5924 216.84 86.3079 216.227 86.6802C215.991 86.7934 215.729 86.881 215.464 86.881C215.288 86.881 215.142 86.8518 214.996 86.797C214.761 86.7094 214.529 86.5963 214.353 86.3955C213.796 85.8808 213.414 84.9645 213.414 83.9059V83.8183C213.444 83.0188 213.65 82.3034 214.001 81.785C214.323 81.3287 214.734 81.0111 215.202 80.9271C215.292 80.8979 215.378 80.8979 215.467 80.8979C216.114 80.8979 216.698 81.3287 217.049 82.015C217.195 82.2742 217.315 82.5589 217.401 82.8728C217.487 83.1868 217.517 83.5299 217.517 83.9022Z" fill="white"/>
<path d="M202.879 118.61C202.879 117.985 202.509 117.821 201.323 117.938C200.639 118.007 185.607 120.398 182.951 122.454C180.296 124.509 202.883 118.61 202.883 118.61H202.879Z" fill="#D1D1D1"/>
<path d="M182.948 122.455C185.469 121.188 189.643 115.632 189.643 115.632C189.643 115.632 187.81 118.523 186.677 119.808C184.71 122.031 182.881 122.568 182.881 122.568" fill="#D1D1D1"/>
<path d="M172.272 134.172C180.093 142.043 202.814 125.108 203.181 123.918C203.547 122.725 203.424 118.79 202.691 118.315C201.958 117.837 183.021 122.013 177.523 123.918C172.025 125.828 169.374 131.259 172.268 134.172H172.272Z" fill="white"/>
<path d="M237.953 115.043L228.568 128.608C228.539 128.638 228.509 128.667 228.453 128.667H223.381C225.696 123.746 234.672 117.183 237.953 115.043Z" fill="#455D59"/>
<path d="M242.768 112.826C235.913 116.546 225.519 126.746 224.55 131.845C223.955 134.974 224.457 137.883 227.131 138.463C230.056 139.099 238.37 132.977 242.892 126.421C247.414 119.861 249 115.331 248.633 114.852C248.267 114.374 243.868 112.228 242.768 112.826Z" fill="white"/>
<path d="M227.281 152.761V152.79C227.251 153.736 227.192 154.677 227.135 155.623L221.387 151.531L222.385 148.84L227.281 152.761Z" fill="#D1D1D1"/>
<path d="M191.801 150.901L176.934 155.909C177.079 154.993 177.255 154.077 177.401 153.16L191.24 147.78L191.797 150.901H191.801Z" fill="#D1D1D1"/>
<path d="M202.669 83.1068C207.808 83.9025 210.408 77.3172 210.408 77.3172C210.408 77.3172 216.025 81.0917 215.756 78.2261C215.509 75.6088 210.894 72.3672 206.305 74.5903C201.715 76.8134 200.923 79.3359 201.199 80.6172C201.476 81.8948 202.673 83.1104 202.673 83.1104L202.669 83.1068Z" fill="#4B494A"/>
<path d="M237.094 101.87C237.76 101.283 240.55 98.9646 240.864 99.1472C241.182 99.3333 237.569 101.838 237.378 101.9C237.187 101.962 237.094 101.87 237.094 101.87Z" fill="#8E8D8D"/>
<path d="M235.477 101.993C234.307 100.942 232.399 98.7953 232.302 99.1055C232.208 99.4158 234.273 101.438 234.812 101.686C235.35 101.935 235.477 101.997 235.477 101.997V101.993Z" fill="#8E8D8D"/>
<path opacity="0.2" d="M211.77 82.0985L208.983 86.5921C208.366 86.1358 207.958 85.2743 207.898 84.2741L209.892 81.0107C209.952 80.9815 210.008 80.9814 210.068 80.9814C210.771 80.9814 211.388 81.4122 211.77 82.0985Z" fill="white"/>
<path opacity="0.2" d="M212.267 83.9948C212.267 84.2539 212.237 84.5095 212.177 84.7394L210.917 86.7727C210.651 86.9151 210.389 87.0027 210.068 87.0027C209.922 87.0027 209.802 86.9735 209.656 86.9443L212.121 82.9653C212.207 83.2793 212.267 83.6224 212.267 83.9948Z" fill="white"/>
<path opacity="0.2" d="M217.048 82.015L214.351 86.3918C213.794 85.8771 213.412 84.9608 213.412 83.9022V83.8146L215.2 80.9235C215.29 80.8943 215.376 80.8943 215.465 80.8943C216.113 80.8943 216.696 81.325 217.048 82.0113V82.015Z" fill="white"/>
<path opacity="0.2" d="M217.517 83.9003C217.517 84.1595 217.487 84.4442 217.457 84.6742L216.227 86.6783C215.991 86.7914 215.729 86.879 215.464 86.879C215.288 86.879 215.142 86.8498 214.996 86.7951L217.401 82.8745C217.487 83.1884 217.517 83.5316 217.517 83.9039V83.9003Z" fill="white"/>
<path d="M202.904 85.8518C202.84 85.5999 202.661 83.95 202.388 83.95C202.115 83.95 201.965 84.4574 202.145 84.91C202.436 85.6328 202.904 85.8518 202.904 85.8518Z" fill="#D38989"/>
<path d="M211.306 201.367C211.867 203.2 216.314 200.652 216.314 199.579C216.314 198.505 210.756 199.579 211.306 201.367Z" fill="#8E8D8D"/>
<path d="M185.835 201.992C186.396 203.825 190.843 201.277 190.843 200.204C190.843 199.13 185.285 200.204 185.835 201.992Z" fill="#8E8D8D"/>
<g opacity="0.5">
<path d="M348.65 273.028C347.009 274.014 344.858 273.51 343.848 271.907L332.994 254.648L338.945 251.085L349.799 268.345C350.809 269.947 350.292 272.046 348.65 273.032V273.028Z" fill="#55BCAA"/>
<path d="M339.02 251.492L333.335 254.894C332.908 255.15 332.355 255.018 332.093 254.606C331.831 254.19 331.966 253.649 332.388 253.394L338.073 249.992C338.5 249.736 339.053 249.868 339.315 250.28C339.577 250.696 339.442 251.237 339.02 251.492Z" fill="#55BCAA"/>
</g>
<g opacity="0.5">
<path d="M252.001 62.4179C250.157 62.02 248.99 60.2386 249.398 58.4389L253.77 39.0588L260.45 40.4935L256.078 59.8735C255.67 61.6732 253.845 62.8121 252.001 62.4142V62.4179Z" fill="#55BCAA"/>
<path d="M260.217 40.8337L253.836 39.4611C253.361 39.3589 253.059 38.8989 253.163 38.4317C253.268 37.9681 253.739 37.6724 254.218 37.7746L260.599 39.1472C261.074 39.2494 261.377 39.7093 261.272 40.1766C261.167 40.6402 260.696 40.9359 260.217 40.8337Z" fill="#55BCAA"/>
<path d="M258.965 45.1686L255.674 59.752C255.319 61.329 253.718 62.3255 252.102 61.9788C250.486 61.632 249.465 60.0696 249.821 58.4926L253.112 43.9092L258.965 45.1686Z" fill="#55BCAA"/>
<path d="M254.621 50.7994C254.539 51.1571 254.176 51.3871 253.81 51.3068C253.443 51.2265 253.208 50.8724 253.29 50.5146C253.372 50.1569 253.735 49.9269 254.101 50.0072C254.468 50.0875 254.704 50.4416 254.621 50.7994Z" fill="#55BCAA"/>
<path d="M256.069 42.6937C255.986 43.0514 255.624 43.2814 255.257 43.2011C254.89 43.1207 254.655 42.7667 254.737 42.4089C254.819 42.0512 255.182 41.8212 255.549 41.9015C255.915 41.9818 256.151 42.3359 256.069 42.6937Z" fill="#55BCAA"/>
<path d="M257.632 46.8292C257.576 47.0811 257.321 47.238 257.063 47.1833C256.805 47.1285 256.645 46.8803 256.701 46.6284C256.757 46.3765 257.011 46.2196 257.269 46.2743C257.527 46.3291 257.688 46.5773 257.632 46.8292Z" fill="#55BCAA"/>
<path d="M258.177 42.273C258.121 42.5249 257.866 42.6819 257.608 42.6271C257.35 42.5724 257.189 42.3241 257.246 42.0723C257.302 41.8204 257.556 41.6634 257.814 41.7182C258.072 41.7729 258.233 42.0211 258.177 42.273Z" fill="#55BCAA"/>
<path d="M255.584 55.3901C255.524 55.6639 255.243 55.8354 254.967 55.777C254.686 55.7186 254.51 55.4485 254.57 55.1747C254.63 54.9009 254.907 54.7294 255.187 54.7878C255.468 54.8462 255.644 55.1163 255.584 55.3901Z" fill="#55BCAA"/>
<path d="M240.552 59.9545C238.708 59.5566 237.541 57.7752 237.948 55.9755L242.321 36.5955L249.001 38.0301L244.628 57.4101C244.221 59.2098 242.395 60.3487 240.552 59.9508V59.9545Z" fill="#55BCAA"/>
<path d="M248.768 38.3629L242.387 36.9904C241.912 36.8882 241.609 36.4282 241.714 35.961C241.819 35.4974 242.29 35.2017 242.769 35.3039L249.15 36.6765C249.625 36.7787 249.927 37.2386 249.823 37.7059C249.718 38.1695 249.247 38.4652 248.768 38.3629Z" fill="#55BCAA"/>
<path d="M246.474 47.3048L244.223 57.2887C243.867 58.8657 242.267 59.8622 240.651 59.5155C239.035 59.1687 238.014 57.6063 238.369 56.0293L240.621 46.0454L246.474 47.3048Z" fill="#55BCAA"/>
<path d="M242.102 50.5306C242.02 50.8883 241.657 51.1183 241.29 51.038C240.924 50.9577 240.688 50.6036 240.77 50.2458C240.853 49.8881 241.215 49.6581 241.582 49.7384C241.948 49.8187 242.184 50.1728 242.102 50.5306Z" fill="#55BCAA"/>
<path d="M244.425 49.0892C244.369 49.3411 244.114 49.498 243.856 49.4433C243.598 49.3885 243.437 49.1403 243.494 48.8884C243.55 48.6365 243.804 48.4796 244.062 48.5343C244.32 48.5891 244.481 48.8373 244.425 49.0892Z" fill="#55BCAA"/>
<path d="M241.789 54.2492C241.729 54.523 241.452 54.6946 241.172 54.6362C240.891 54.5778 240.716 54.3076 240.775 54.0338C240.835 53.7601 241.116 53.5885 241.392 53.6469C241.673 53.7053 241.849 53.9754 241.789 54.2492Z" fill="#55BCAA"/>
<path d="M246.733 41.1022C246.635 41.5256 246.205 41.7958 245.772 41.7008C245.338 41.6059 245.061 41.1861 245.158 40.7627C245.255 40.3392 245.685 40.0691 246.119 40.164C246.553 40.2589 246.83 40.6787 246.733 41.1022Z" fill="#55BCAA"/>
<path d="M229.102 57.4945C227.258 57.0966 226.092 55.3152 226.499 53.5156L230.871 34.1355L237.551 35.5701L233.179 54.9502C232.771 56.7498 230.946 57.8888 229.102 57.4909V57.4945Z" fill="#55BCAA"/>
<path d="M237.321 35.9069L230.94 34.5343C230.465 34.4321 230.162 33.9722 230.267 33.5049C230.372 33.0413 230.843 32.7456 231.322 32.8478L237.702 34.2204C238.177 34.3226 238.48 34.7826 238.376 35.2498C238.271 35.7134 237.8 36.0091 237.321 35.9069Z" fill="#55BCAA"/>
<path d="M233.598 51.1818L232.776 54.8285C232.42 56.4055 230.819 57.4021 229.204 57.0553C227.588 56.7085 226.567 55.1461 226.922 53.5691L227.745 49.9224L233.598 51.1818Z" fill="#55BCAA"/>
<path d="M231.028 54.9778C230.945 55.3356 230.583 55.5655 230.216 55.4852C229.849 55.4049 229.614 55.0508 229.696 54.6931C229.778 54.3353 230.141 54.1054 230.508 54.1857C230.874 54.266 231.11 54.6201 231.028 54.9778Z" fill="#55BCAA"/>
<path d="M230.48 47.0401C230.423 47.292 230.169 47.449 229.911 47.3942C229.653 47.3395 229.492 47.0912 229.548 46.8393C229.604 46.5875 229.859 46.4305 230.117 46.4853C230.375 46.54 230.536 46.7882 230.48 47.0401Z" fill="#55BCAA"/>
<path d="M233.157 43.6573C233.101 43.9092 232.847 44.0661 232.589 44.0114C232.331 43.9566 232.17 43.7084 232.226 43.4565C232.282 43.2047 232.536 43.0477 232.794 43.1024C233.053 43.1572 233.213 43.4054 233.157 43.6573Z" fill="#55BCAA"/>
<path d="M229.631 52.0656C229.571 52.3394 229.294 52.511 229.014 52.4526C228.733 52.3942 228.557 52.124 228.617 51.8502C228.677 51.5765 228.958 51.4049 229.234 51.4633C229.515 51.5217 229.691 51.7918 229.631 52.0656Z" fill="#55BCAA"/>
<path d="M263.099 46.7739L225.77 38.75L225.66 39.2348L262.99 47.2587L263.099 46.7739Z" fill="#55BCAA"/>
<path d="M257.277 66.2841L262.084 44.9797L261.437 44.8408L256.63 66.1451L257.277 66.2841Z" fill="#55BCAA"/>
<path d="M223.328 58.9885L228.135 37.6841L227.488 37.5451L222.681 58.8495L223.328 58.9885Z" fill="#55BCAA"/>
<path d="M258.961 68.2909L220.262 59.9716C219.719 59.8548 219.379 59.3328 219.499 58.8035C219.618 58.2742 220.153 57.942 220.695 58.0588L259.395 66.3781C259.937 66.4949 260.278 67.0169 260.158 67.5462C260.038 68.0755 259.503 68.4077 258.961 68.2909Z" fill="#55BCAA"/>
</g>
<g opacity="0.5">
<path d="M72.8553 214.539C75.6703 210.132 74.2918 204.332 69.7763 201.585C65.2609 198.837 59.3183 200.183 56.5033 204.59C53.6883 208.997 55.0668 214.797 59.5823 217.545C64.0977 220.292 70.0403 218.947 72.8553 214.539Z" fill="#55BCAA"/>
<path d="M62.2815 189.036L57.5742 190.102L61.0529 204.738L65.7603 203.672L62.2815 189.036Z" fill="#55BCAA"/>
<path d="M62.2545 189.28L57.7102 190.309C57.3175 190.397 56.9248 190.159 56.835 189.776C56.7453 189.393 56.9884 189.009 57.3811 188.922L61.9254 187.892C62.3181 187.805 62.7108 188.042 62.8006 188.425C62.8904 188.809 62.6473 189.192 62.2545 189.28Z" fill="#55BCAA"/>
</g>
<g opacity="0.5">
<path d="M69.7104 254.626L61.6316 247.526L52.4794 248.015C52.1727 248.03 51.9408 248.285 51.9558 248.585C51.9707 248.884 52.2326 249.11 52.5393 249.096L61.2314 248.632L67.8852 254.48L55.5015 262.161C55.2434 262.321 55.1686 262.653 55.3294 262.905C55.494 263.157 55.8343 263.23 56.0924 263.073L69.7066 254.63L69.7104 254.626Z" fill="#55BCAA"/>
<path d="M61.8964 248.368C61.9712 248.255 62.0011 248.116 61.9749 247.974L60.1722 239.034L68.2397 237.836C68.5427 237.793 68.7484 237.515 68.7035 237.219C68.6586 236.924 68.3744 236.723 68.0714 236.767L58.8594 238.132L60.8828 248.182C60.9427 248.474 61.2344 248.663 61.5336 248.609C61.687 248.579 61.8141 248.488 61.8926 248.371L61.8964 248.368Z" fill="#55BCAA"/>
<path d="M41.427 270.732C41.513 270.601 41.5392 270.437 41.4905 270.28C41.4008 269.995 41.0904 269.834 40.7986 269.926L28.9535 273.532C28.6618 273.62 28.4972 273.923 28.5907 274.207C28.6805 274.492 28.9909 274.653 29.2826 274.562L41.1278 270.955C41.2587 270.915 41.3597 270.834 41.427 270.732Z" fill="#55BCAA"/>
<path d="M42.3287 260.952C42.4783 260.726 42.4335 260.423 42.2166 260.247L33.2028 252.859L22.446 251.928C22.1431 251.902 21.8738 252.122 21.8439 252.417C21.8177 252.713 22.0421 252.976 22.345 253.005L32.7539 253.903L41.5022 261.072C41.7378 261.266 42.0856 261.233 42.2839 261.007C42.2988 260.988 42.3138 260.97 42.325 260.952H42.3287Z" fill="#55BCAA"/>
<path d="M33.4451 253.672C33.4713 253.632 33.4938 253.588 33.5087 253.541L37.6641 240.428C37.7538 240.144 37.5893 239.841 37.2975 239.753C37.0058 239.666 36.6954 239.826 36.6056 240.111L32.4503 253.223C32.3605 253.508 32.5251 253.811 32.8168 253.899C33.0599 253.972 33.3142 253.873 33.4451 253.676V253.672Z" fill="#55BCAA"/>
<path d="M52.6287 275.378C57.7813 273.348 60.2725 267.625 58.1928 262.596C56.113 257.567 50.25 255.136 45.0973 257.166C39.9446 259.196 37.4535 264.918 39.5333 269.947C41.613 274.976 47.476 277.407 52.6287 275.378Z" fill="#55BCAA"/>
<path d="M69.393 252.052C68.0279 251.741 66.6627 252.574 66.3485 253.906C66.0344 255.239 66.8834 256.571 68.2485 256.878C69.6137 257.188 70.9789 256.356 71.293 255.023C71.6109 253.691 70.7582 252.358 69.393 252.052Z" fill="#55BCAA"/>
<path d="M33.4645 250.951C32.0994 250.641 30.7342 251.473 30.42 252.805C30.1021 254.138 30.9548 255.47 32.32 255.777C33.6852 256.083 35.0503 255.255 35.3645 253.922C35.6787 252.59 34.8297 251.258 33.4645 250.951Z" fill="#55BCAA"/>
<path d="M29.6464 271.811C28.3785 271.527 27.1143 272.293 26.8225 273.531C26.5308 274.768 27.3162 276.002 28.5841 276.287C29.8521 276.571 31.1163 275.805 31.408 274.567C31.6997 273.33 30.9143 272.096 29.6464 271.811Z" fill="#55BCAA"/>
<path d="M22.8768 250.451C21.6089 250.166 20.3447 250.933 20.053 252.171C19.7613 253.408 20.5467 254.642 21.8146 254.927C23.0825 255.211 24.3467 254.445 24.6385 253.207C24.9302 251.97 24.1447 250.736 22.8768 250.451Z" fill="#55BCAA"/>
<path d="M37.6679 238.033C36.4 237.748 35.1358 238.514 34.844 239.752C34.5523 240.989 35.3378 242.223 36.6057 242.508C37.8736 242.793 39.1377 242.026 39.4295 240.789C39.7212 239.551 38.9358 238.317 37.6679 238.033Z" fill="#55BCAA"/>
<path d="M61.9608 245.841C60.6929 245.556 59.4287 246.322 59.137 247.56C58.8453 248.797 59.6307 250.031 60.8986 250.316C62.1665 250.601 63.4307 249.834 63.7224 248.597C64.0142 247.359 63.2287 246.125 61.9608 245.841Z" fill="#55BCAA"/>
<path d="M52.966 246.624C51.8252 246.365 50.6845 247.058 50.4189 248.175C50.1534 249.289 50.864 250.402 52.0085 250.661C53.1492 250.92 54.29 250.227 54.5556 249.11C54.8211 247.996 54.1105 246.883 52.966 246.624Z" fill="#55BCAA"/>
<path d="M59.9347 236.825C58.794 236.566 57.6532 237.259 57.3877 238.376C57.1221 239.49 57.8327 240.603 58.9772 240.862C60.1217 241.121 61.2588 240.428 61.5243 239.311C61.7899 238.194 61.0792 237.084 59.9347 236.825Z" fill="#55BCAA"/>
<path d="M68.5136 235.807C67.6683 235.618 66.8268 236.129 66.6323 236.954C66.4379 237.779 66.9614 238.6 67.8067 238.79C68.652 238.98 69.4935 238.469 69.688 237.644C69.8825 236.819 69.3589 235.997 68.5136 235.807Z" fill="#55BCAA"/>
</g>
<g opacity="0.5">
<path d="M354.16 143.564L348.816 141.041L340.585 157.653L345.928 160.176L354.16 143.564Z" fill="#55BCAA"/>
<path d="M353.974 143.732L348.816 141.297C348.371 141.085 348.184 140.563 348.401 140.129C348.618 139.694 349.153 139.512 349.598 139.724L354.756 142.158C355.201 142.37 355.388 142.892 355.171 143.326C354.954 143.761 354.419 143.943 353.974 143.732Z" fill="#55BCAA"/>
<path d="M348.914 147.529L327.632 161.697C325.467 163.138 325.71 166.325 328.07 167.439L345.866 175.838C348.226 176.952 350.937 175.159 350.75 172.608L348.914 147.529Z" fill="#55BCAA"/>
</g>
<g opacity="0.5">
<path d="M400.641 268.758L412.59 279.968C412.736 280.104 412.74 280.33 412.602 280.472C412.463 280.615 412.231 280.618 412.086 280.483L400.136 269.273C399.99 269.138 399.986 268.911 400.124 268.769C400.263 268.627 400.495 268.623 400.641 268.758Z" fill="#55BCAA"/>
<path d="M404.361 267.181L414.95 277.114C415.096 277.249 415.099 277.475 414.961 277.618C414.823 277.76 414.591 277.764 414.445 277.629L403.856 267.696C403.711 267.561 403.707 267.334 403.845 267.192C403.984 267.05 404.215 267.046 404.361 267.181Z" fill="#55BCAA"/>
<path d="M409.234 266.691L416.292 273.313C416.438 273.448 416.442 273.674 416.303 273.816C416.165 273.959 415.933 273.962 415.787 273.827L408.729 267.205C408.584 267.07 408.58 266.844 408.718 266.702C408.857 266.559 409.088 266.556 409.234 266.691Z" fill="#55BCAA"/>
<path d="M413.981 260.805L420.743 267.149C420.889 267.284 420.892 267.511 420.754 267.653C420.616 267.795 420.384 267.799 420.238 267.664L413.476 261.319C413.33 261.184 413.326 260.958 413.464 260.816C413.603 260.673 413.835 260.67 413.981 260.805Z" fill="#55BCAA"/>
<path d="M414.787 255.162L425.952 265.635C426.097 265.77 426.101 265.997 425.963 266.139C425.824 266.281 425.593 266.285 425.447 266.15L414.282 255.677C414.136 255.542 414.133 255.315 414.271 255.173C414.409 255.031 414.641 255.027 414.787 255.162Z" fill="#55BCAA"/>
<path d="M417.674 251.463L429.493 262.553C429.639 262.688 429.642 262.915 429.504 263.057C429.366 263.199 429.134 263.203 428.988 263.068L417.169 251.978C417.023 251.843 417.019 251.617 417.158 251.474C417.296 251.332 417.528 251.328 417.674 251.463Z" fill="#55BCAA"/>
<path d="M422.613 249.694L430.572 257.163C430.718 257.298 430.722 257.524 430.584 257.667C430.445 257.809 430.213 257.813 430.067 257.678L422.108 250.209C421.963 250.074 421.959 249.847 422.097 249.705C422.236 249.563 422.467 249.559 422.613 249.694Z" fill="#55BCAA"/>
<path d="M428.068 243.111L433.735 248.429C433.881 248.564 433.884 248.791 433.746 248.933C433.608 249.075 433.376 249.079 433.23 248.944L427.563 243.625C427.418 243.49 427.414 243.264 427.552 243.122C427.691 242.979 427.923 242.976 428.068 243.111Z" fill="#55BCAA"/>
<path d="M428.014 237.141L438.374 246.862C438.52 246.997 438.524 247.224 438.385 247.366C438.247 247.508 438.015 247.512 437.869 247.377L427.509 237.656C427.363 237.521 427.359 237.294 427.498 237.152C427.636 237.01 427.868 237.006 428.014 237.141Z" fill="#55BCAA"/>
<path d="M429.723 232.814L441.874 244.214C442.02 244.349 442.024 244.575 441.886 244.718C441.747 244.86 441.515 244.864 441.37 244.729L429.218 233.328C429.072 233.193 429.068 232.967 429.207 232.825C429.345 232.682 429.577 232.679 429.723 232.814Z" fill="#55BCAA"/>
<path d="M444.372 239.238C444.514 239.373 444.6 239.563 444.593 239.775C444.593 239.877 444.477 242.312 442.293 244.802C439.443 248.05 434.591 249.821 427.87 250.062C421.561 250.288 417.585 251.664 415.719 254.267C413.426 257.465 414.585 262.309 416.018 266.624C417.331 270.574 417.185 274.253 415.591 277.265C414.133 280.021 411.552 282.029 408.137 283.073C407.752 283.189 407.344 282.981 407.225 282.605C407.105 282.229 407.318 281.831 407.703 281.715C410.74 280.787 413.022 279.024 414.297 276.611C415.707 273.947 415.823 270.643 414.634 267.062C413.089 262.415 411.866 257.162 414.525 253.453C416.669 250.46 421.018 248.886 427.818 248.642C442.577 248.113 443.123 240.06 443.138 239.72C443.156 239.33 443.493 239.027 443.893 239.041C444.08 239.049 444.245 239.122 444.368 239.238H444.372Z" fill="#55BCAA"/>
<path d="M430.824 231.294C431.1 231.554 431.123 231.981 430.872 232.269C426.691 237.011 428.198 243.341 429.653 249.459C431.108 255.577 432.484 261.359 428.142 265.17C424.065 268.748 418.762 268.328 413.63 267.919C407.792 267.456 402.279 267.017 398.232 271.909C397.978 272.216 397.521 272.263 397.207 272.015C396.893 271.77 396.844 271.321 397.099 271.015C401.628 265.539 407.788 266.028 413.746 266.503C418.792 266.904 423.553 267.28 427.166 264.112C430.872 260.859 429.589 255.478 428.232 249.78C426.766 243.615 425.101 236.631 429.765 231.342C430.027 231.046 430.487 231.01 430.79 231.265C430.801 231.273 430.809 231.284 430.82 231.291L430.824 231.294Z" fill="#55BCAA"/>
</g>
</svg>
