<svg width="443" height="422" viewBox="0 0 443 422" fill="none" xmlns="http://www.w3.org/2000/svg">
<g style="mix-blend-mode:multiply">
<path d="M319.476 389.933C319.476 390.884 307.161 391.642 291.985 391.642C276.808 391.642 264.494 390.873 264.494 389.933C264.494 388.994 276.808 388.225 291.985 388.225C307.161 388.225 319.476 388.994 319.476 389.933Z" fill="#ACBFBF"/>
</g>
<g style="mix-blend-mode:multiply">
<path d="M300.251 312.79V297.966C300.251 296.065 301.244 294.313 302.825 293.256C304.299 292.274 305.26 290.597 305.26 288.696C305.26 285.663 302.804 283.206 299.77 283.206H281.945C278.912 283.206 276.456 285.663 276.456 288.696C276.456 290.597 277.427 292.274 278.891 293.256C280.471 294.313 281.465 296.054 281.465 297.966V312.79C281.465 315.14 279.991 317.233 277.78 318.045C263.458 323.364 253.258 337.173 253.301 353.364C253.354 373.603 269.716 390.328 289.945 390.809C311.102 391.311 328.404 374.308 328.404 353.268C328.404 337.13 318.215 323.364 303.925 318.056C301.714 317.233 300.24 315.15 300.24 312.801L300.251 312.79Z" fill="#D8F0F0"/>
</g>
<path d="M318.417 341.123C319.934 344.712 320.778 348.642 320.778 352.786C320.778 369.308 307.385 382.701 290.862 382.701C274.34 382.701 260.947 369.308 260.947 352.786C260.947 348.653 261.78 344.722 263.297 341.144" fill="#D47474"/>
<g style="mix-blend-mode:multiply" opacity="0.17">
<path d="M290.862 382.702C298.243 382.702 304.992 380.021 310.215 375.589C265.102 381.228 263.297 341.134 263.297 341.134C261.78 344.712 260.947 348.653 260.947 352.776C260.947 369.298 274.34 382.691 290.862 382.691V382.702Z" fill="#410270"/>
</g>
<path d="M318.418 341.145C318.418 343.431 306.083 345.278 290.853 345.278C275.623 345.278 263.287 343.431 263.287 341.145C263.287 338.859 275.623 337.012 290.853 337.012C306.083 337.012 318.418 338.859 318.418 341.145Z" fill="#FFA1A5"/>
<path d="M319.454 364.834C319.315 364.834 319.177 364.823 319.038 364.802C317.671 364.567 316.741 363.275 316.976 361.908C320.928 338.39 304.972 330.892 304.812 330.818C303.541 330.241 302.985 328.756 303.551 327.485C304.128 326.215 305.613 325.659 306.884 326.225C307.087 326.321 311.999 328.586 316.282 334.267C320.17 339.437 324.314 348.579 321.943 362.741C321.74 363.969 320.672 364.845 319.465 364.845L319.454 364.834Z" fill="white"/>
<path d="M294.493 313.174C293.105 313.174 291.973 312.053 291.973 310.654V297.699C291.973 296.31 293.105 295.178 294.493 295.178C295.882 295.178 297.014 296.3 297.014 297.699V310.654C297.014 312.042 295.892 313.174 294.493 313.174Z" fill="white"/>
<path d="M300.207 290.638H290.231C288.843 290.638 287.711 289.517 287.711 288.118C287.711 286.719 288.832 285.597 290.231 285.597H300.207C301.595 285.597 302.727 286.719 302.727 288.118C302.727 289.517 301.595 290.638 300.207 290.638Z" fill="white"/>
<g style="mix-blend-mode:multiply">
<g style="mix-blend-mode:multiply">
<path d="M256.815 356.331C256.996 326 279.895 321.524 283.184 318.342C286.474 315.159 283.846 297.697 284.722 295.187C285.064 294.215 290.329 293.5 296.652 292.987C280.696 292.944 280.92 291.737 279.788 289.356C278.955 287.615 280.001 284.881 280.728 283.354C278.282 283.909 276.456 286.088 276.456 288.704C276.456 290.605 277.427 292.282 278.891 293.265C280.471 294.322 281.465 296.063 281.465 297.975V312.799C281.465 315.148 279.991 317.242 277.78 318.053C263.458 323.372 253.258 337.182 253.301 353.373C253.354 373.612 269.716 390.337 289.945 390.818C257.509 383.117 256.804 356.342 256.804 356.342L256.815 356.331Z" fill="#D8F0F0"/>
</g>
</g>
<path d="M75.1975 403.442C116.239 403.442 149.51 401.467 149.51 399.031C149.51 396.595 116.239 394.62 75.1975 394.62C34.1557 394.62 0.884766 396.595 0.884766 399.031C0.884766 401.467 34.1557 403.442 75.1975 403.442Z" fill="#ADA6A6"/>
<g style="mix-blend-mode:multiply">
<path d="M71.6948 297.091C71.4064 294.357 68.95 292.37 66.2052 292.37H48.4974C45.7312 292.37 43.2748 294.378 42.9971 297.133C42.7621 299.537 44.1185 301.641 46.1371 302.527C47.3546 303.061 48.1877 304.214 48.1877 305.549V371.991C48.1877 377.043 52.0753 381.443 57.127 381.592C62.3496 381.753 66.6324 377.566 66.6324 372.375V305.624C66.6324 304.311 67.3373 303.04 68.5334 302.516C70.5734 301.63 71.9404 299.504 71.6841 297.08L71.6948 297.091Z" fill="#D8F0F0"/>
</g>
<path d="M57.1681 376.978C53.932 376.978 51.3047 374.35 51.3047 371.114V335.432H63.0209V371.114C63.0209 374.35 60.3935 376.978 57.1574 376.978H57.1681Z" fill="#D47474"/>
<path d="M57.1681 336.681C60.4064 336.681 63.0315 336.127 63.0315 335.443C63.0315 334.758 60.4064 334.204 57.1681 334.204C53.9298 334.204 51.3047 334.758 51.3047 335.443C51.3047 336.127 53.9298 336.681 57.1681 336.681Z" fill="#FFA1A5"/>
<path d="M62.7549 306.487H62.4024C61.7595 306.487 61.2383 307.009 61.2383 307.651V371.188C61.2383 371.831 61.7595 372.352 62.4024 372.352H62.7549C63.3978 372.352 63.919 371.831 63.919 371.188V307.651C63.919 307.009 63.3978 306.487 62.7549 306.487Z" fill="white"/>
<path d="M67.3796 298.639H56.614C55.845 298.639 55.2148 298.008 55.2148 297.239C55.2148 296.47 55.845 295.84 56.614 295.84H67.3796C68.1486 295.84 68.7787 296.47 68.7787 297.239C68.7787 298.008 68.1486 298.639 67.3796 298.639Z" fill="white"/>
<g style="mix-blend-mode:multiply">
<path d="M57.3504 302.686C53.8152 302.686 48.4324 304.01 45.3352 299.962C43.8506 298.018 44.2671 295.562 45.1002 293.522C43.9681 294.376 43.1564 295.637 43.0069 297.132C42.7719 299.535 44.1283 301.639 46.1469 302.525C47.3644 303.059 48.1974 304.213 48.1974 305.548V371.989C48.1974 376.539 51.3588 380.555 55.6736 381.42C55.3105 381.132 54.9473 380.833 54.6269 380.533C51.519 377.607 49.9063 373.42 49.9063 369.148V305.42L67.6674 303.123C67.8383 302.963 68.0306 302.814 68.2335 302.696H57.3504V302.686Z" fill="#D8F0F0"/>
</g>
<g style="mix-blend-mode:multiply">
<path d="M39.813 297.091C39.5246 294.357 37.0682 292.37 34.3234 292.37H16.6263C13.8601 292.37 11.4037 294.378 11.126 297.133C10.8911 299.537 12.2474 301.641 14.266 302.527C15.4835 303.061 16.3166 304.214 16.3166 305.549V371.991C16.3166 377.043 20.2042 381.443 25.2559 381.592C30.4785 381.753 34.7613 377.566 34.7613 372.375V305.624C34.7613 304.311 35.4662 303.04 36.6624 302.516C38.7023 301.63 40.0693 299.504 39.813 297.08V297.091Z" fill="#D8F0F0"/>
</g>
<path d="M25.2892 376.978C22.0531 376.978 19.4258 374.35 19.4258 371.114V335.432H31.142V371.114C31.142 374.35 28.5146 376.978 25.2785 376.978H25.2892Z" fill="#D47474"/>
<path d="M31.1409 335.443C31.1409 336.126 28.5136 336.681 25.2775 336.681C22.0414 336.681 19.4141 336.126 19.4141 335.443C19.4141 334.759 22.0414 334.204 25.2775 334.204C28.5136 334.204 31.1409 334.759 31.1409 335.443Z" fill="#FFA1A5"/>
<path d="M30.6944 372.363C29.9575 372.363 29.3594 371.765 29.3594 371.028V307.833C29.3594 307.096 29.9575 306.498 30.6944 306.498C31.4313 306.498 32.0294 307.096 32.0294 307.833V371.028C32.0294 371.765 31.4313 372.363 30.6944 372.363Z" fill="white"/>
<path d="M35.4987 298.639H24.7331C23.9641 298.639 23.334 298.008 23.334 297.239C23.334 296.47 23.9641 295.84 24.7331 295.84H35.4987C36.2677 295.84 36.8978 296.47 36.8978 297.239C36.8978 298.008 36.2677 298.639 35.4987 298.639Z" fill="white"/>
<g style="mix-blend-mode:multiply">
<path d="M25.4695 302.686C21.9344 302.686 16.5516 304.01 13.4543 299.962C11.9698 298.018 12.3863 295.562 13.2193 293.522C12.0872 294.376 11.2755 295.637 11.126 297.132C10.8911 299.535 12.2474 301.639 14.266 302.525C15.4835 303.059 16.3166 304.213 16.3166 305.548V371.989C16.3166 376.539 19.4779 380.555 23.7927 381.42C23.4296 381.132 23.0665 380.833 22.7461 380.533C19.6381 377.607 18.0254 373.42 18.0254 369.148V305.42L35.7866 303.123C35.9575 302.963 36.1497 302.814 36.3526 302.696H25.4695V302.686Z" fill="#D8F0F0"/>
</g>
<path d="M12.6657 349.197H9.4082V387.229H12.6657V349.197Z" fill="#D6CBCB"/>
<path d="M12.6657 349.197H9.4082V356.203H12.6657V349.197Z" fill="#ADA6A6"/>
<g style="mix-blend-mode:multiply">
<path d="M135.519 297.091C135.231 294.357 132.774 292.37 130.029 292.37H112.322C109.555 292.37 107.099 294.378 106.821 297.133C106.586 299.537 107.943 301.641 109.961 302.527C111.179 303.061 112.012 304.214 112.012 305.549V371.991C112.012 377.043 115.899 381.443 120.951 381.592C126.174 381.753 130.457 377.566 130.457 372.375V305.624C130.457 304.311 131.161 303.04 132.358 302.516C134.398 301.63 135.765 299.504 135.508 297.08L135.519 297.091Z" fill="#D8F0F0"/>
</g>
<path d="M120.994 376.978C117.758 376.978 115.131 374.35 115.131 371.114V335.432H126.847V371.114C126.847 374.35 124.22 376.978 120.984 376.978H120.994Z" fill="#D47474"/>
<path d="M126.858 335.443C126.858 336.126 124.23 336.681 120.994 336.681C117.758 336.681 115.131 336.126 115.131 335.443C115.131 334.759 117.758 334.204 120.994 334.204C124.23 334.204 126.858 334.759 126.858 335.443Z" fill="#FFA1A5"/>
<path d="M126.579 306.487H126.227C125.584 306.487 125.062 307.009 125.062 307.651V371.188C125.062 371.831 125.584 372.352 126.227 372.352H126.579C127.222 372.352 127.743 371.831 127.743 371.188V307.651C127.743 307.009 127.222 306.487 126.579 306.487Z" fill="white"/>
<path d="M131.204 298.639H120.438C119.669 298.639 119.039 298.008 119.039 297.239C119.039 296.47 119.669 295.84 120.438 295.84H131.204C131.973 295.84 132.603 296.47 132.603 297.239C132.603 298.008 131.973 298.639 131.204 298.639Z" fill="white"/>
<g style="mix-blend-mode:multiply">
<path d="M121.186 302.686C117.651 302.686 112.268 304.01 109.171 299.962C107.687 298.018 108.103 295.562 108.936 293.522C107.804 294.376 106.992 295.637 106.843 297.132C106.608 299.535 107.964 301.639 109.983 302.525C111.2 303.059 112.033 304.213 112.033 305.548V371.989C112.033 376.539 115.195 380.555 119.51 381.42C119.146 381.132 118.783 380.833 118.463 380.533C115.355 377.607 113.742 373.42 113.742 369.148V305.42L131.503 303.123C131.674 302.963 131.867 302.814 132.069 302.696H121.186V302.686Z" fill="#D8F0F0"/>
</g>
<g style="mix-blend-mode:multiply">
<path d="M103.64 297.091C103.352 294.357 100.895 292.37 98.1505 292.37H80.4427C77.6766 292.37 75.2201 294.378 74.9424 297.133C74.7075 299.537 76.0638 301.641 78.0824 302.527C79.2999 303.061 80.133 304.214 80.133 305.549V371.991C80.133 377.043 84.0206 381.443 89.0723 381.592C94.2949 381.753 98.5777 377.566 98.5777 372.375V305.624C98.5777 304.311 99.2826 303.04 100.479 302.516C102.519 301.63 103.886 299.504 103.629 297.08L103.64 297.091Z" fill="#D8F0F0"/>
</g>
<path d="M89.1134 376.978C85.8773 376.978 83.25 374.35 83.25 371.114V335.432H94.9662V371.114C94.9662 374.35 92.3388 376.978 89.1027 376.978H89.1134Z" fill="#D47474"/>
<path d="M94.9768 335.443C94.9768 336.126 92.3495 336.681 89.1134 336.681C85.8773 336.681 83.25 336.126 83.25 335.443C83.25 334.759 85.8773 334.204 89.1134 334.204C92.3495 334.204 94.9768 334.759 94.9768 335.443Z" fill="#FFA1A5"/>
<path d="M94.5186 372.363C93.7817 372.363 93.1836 371.765 93.1836 371.028V307.833C93.1836 307.096 93.7817 306.498 94.5186 306.498C95.2556 306.498 95.8536 307.096 95.8536 307.833V371.028C95.8536 371.765 95.2556 372.363 94.5186 372.363Z" fill="white"/>
<path d="M99.3229 298.639H88.5573C87.7883 298.639 87.1582 298.008 87.1582 297.239C87.1582 296.47 87.7883 295.84 88.5573 295.84H99.3229C100.092 295.84 100.722 296.47 100.722 297.239C100.722 298.008 100.092 298.639 99.3229 298.639Z" fill="white"/>
<g style="mix-blend-mode:multiply">
<path d="M89.2957 302.686C85.7605 302.686 80.3777 304.01 77.2805 299.962C75.7959 298.018 76.2124 295.562 77.0455 293.522C75.9134 294.376 75.1017 295.637 74.9522 297.132C74.7172 299.535 76.0736 301.639 78.0922 302.525C79.3097 303.059 80.1428 304.213 80.1428 305.548V371.989C80.1428 376.539 83.3041 380.555 87.6189 381.42C87.2558 381.132 86.8926 380.833 86.5722 380.533C83.4643 377.607 81.8516 373.42 81.8516 369.148V305.42L99.6128 303.123C99.7836 302.963 99.9759 302.814 100.179 302.696H89.2957V302.686Z" fill="#D8F0F0"/>
</g>
<path d="M137.121 349.197H133.863V387.229H137.121V349.197Z" fill="#D6CBCB"/>
<path d="M137.121 349.197H133.863V356.203H137.121V349.197Z" fill="#ADA6A6"/>
<path d="M140.314 385.789H6.20271C5.51258 385.789 4.95312 386.349 4.95312 387.039V390.734C4.95312 391.424 5.51258 391.984 6.20271 391.984H140.314C141.004 391.984 141.563 391.424 141.563 390.734V387.039C141.563 386.349 141.004 385.789 140.314 385.789Z" fill="#D6CBCB"/>
<path d="M138.093 345.664H8.41406C7.67085 345.664 7.06836 346.266 7.06836 347.009V348.739C7.06836 349.483 7.67085 350.085 8.41406 350.085H138.093C138.836 350.085 139.439 349.483 139.439 348.739V347.009C139.439 346.266 138.836 345.664 138.093 345.664Z" fill="#D6CBCB"/>
<path d="M144.384 391.983H2.13435C1.44422 391.983 0.884766 392.543 0.884766 393.233V397.783C0.884766 398.473 1.44422 399.032 2.13435 399.032H144.384C145.074 399.032 145.633 398.473 145.633 397.783V393.233C145.633 392.543 145.074 391.983 144.384 391.983Z" fill="#D6CBCB"/>
<path d="M4.96484 390.808C5.00756 391.46 5.53089 391.994 6.20375 391.994H140.315C140.977 391.994 141.511 391.47 141.554 390.808H4.96484Z" fill="#ADA6A6"/>
<path d="M102.891 296.31C102.891 296.31 135.145 309.66 158.641 358.853" stroke="#67B58E" stroke-width="1.06802" stroke-miterlimit="10"/>
<path d="M109.896 260.317C109.896 260.317 123.941 291.685 135.593 322.903" stroke="#67B58E" stroke-width="1.06802" stroke-miterlimit="10"/>
<path d="M122.927 309.349C122.927 309.349 113.635 259.334 54.9902 262.848C54.9902 262.848 57.7991 314.38 122.927 309.349Z" fill="#67B58E"/>
<path d="M54.9805 262.849C89.7872 282.404 122.917 309.35 122.917 309.35C57.7894 314.381 54.9805 262.849 54.9805 262.849Z" fill="#4A9492"/>
<path d="M113.774 270.623C113.774 270.623 124.615 242.716 94.1656 226.322C94.1656 226.322 79.6192 252.98 113.774 270.623Z" fill="#67B58E"/>
<path d="M94.1656 226.312C105.529 246.871 113.774 270.613 113.774 270.613C79.6192 252.969 94.1656 226.312 94.1656 226.312Z" fill="#4A9492"/>
<path d="M153.943 362.784C153.943 362.784 142.109 320.042 91.4316 327.508C91.4316 327.508 97.7543 372.055 153.943 362.784Z" fill="#67B58E"/>
<path d="M91.4316 327.506C123.13 341.871 153.943 362.783 153.943 362.783C97.7543 372.053 91.4316 327.506 91.4316 327.506Z" fill="#4A9492"/>
<path d="M394.985 253.15C394.985 253.15 362.731 266.501 339.234 315.694" stroke="#67B58E" stroke-width="1.06802" stroke-miterlimit="10"/>
<path d="M387.978 217.158C387.978 217.158 373.933 248.525 362.281 279.744" stroke="#67B58E" stroke-width="1.06802" stroke-miterlimit="10"/>
<path d="M374.947 266.192C374.947 266.192 384.239 216.177 442.884 219.691C442.884 219.691 440.075 271.222 374.947 266.192Z" fill="#67B58E"/>
<path d="M442.884 219.691C408.077 239.247 374.947 266.193 374.947 266.193C440.075 271.223 442.884 219.691 442.884 219.691Z" fill="#4A9492"/>
<path d="M384.09 227.465C384.09 227.465 373.25 199.557 403.699 183.163C403.699 183.163 418.245 209.821 384.09 227.465Z" fill="#67B58E"/>
<path d="M403.699 183.163C392.335 203.722 384.09 227.465 384.09 227.465C418.245 209.821 403.699 183.163 403.699 183.163Z" fill="#4A9492"/>
<path d="M343.934 319.625C343.934 319.625 355.767 276.883 406.445 284.348C406.445 284.348 400.122 328.895 343.934 319.625Z" fill="#67B58E"/>
<path d="M406.445 284.358C374.746 298.723 343.934 319.635 343.934 319.635C400.122 328.905 406.445 284.358 406.445 284.358Z" fill="#4A9492"/>
<path d="M66.119 161.014C71.7108 161.014 76.2438 149.863 76.2438 136.107C76.2438 122.352 71.7108 111.201 66.119 111.201C60.5272 111.201 55.9941 122.352 55.9941 136.107C55.9941 149.863 60.5272 161.014 66.119 161.014Z" stroke="#67B58E" stroke-width="1.06802" stroke-miterlimit="10"/>
<path d="M66.1191 146.233C79.8744 146.233 91.0253 141.7 91.0253 136.108C91.0253 130.516 79.8744 125.983 66.1191 125.983C52.3638 125.983 41.2129 130.516 41.2129 136.108C41.2129 141.7 52.3638 146.233 66.1191 146.233Z" stroke="#67B58E" stroke-width="1.06802" stroke-miterlimit="10"/>
<path d="M73.2757 143.265C83.0022 133.538 87.6817 122.448 83.7277 118.494C79.7737 114.54 68.6835 119.22 58.9571 128.946C49.2306 138.673 44.551 149.763 48.505 153.717C52.459 157.671 63.5492 152.991 73.2757 143.265Z" stroke="#67B58E" stroke-width="1.06802" stroke-miterlimit="10"/>
<path d="M58.9524 143.272C49.2227 133.542 44.5448 122.456 48.5072 118.505C52.4588 114.553 63.5556 119.231 73.2745 128.95C82.9935 138.669 87.6821 149.766 83.7198 153.717C79.7681 157.669 68.6714 152.991 58.9524 143.272Z" stroke="#67B58E" stroke-width="1.06802" stroke-miterlimit="10"/>
<path d="M71.8649 136.108C71.8649 139.28 69.291 141.854 66.119 141.854C62.947 141.854 60.373 139.28 60.373 136.108C60.373 132.936 62.947 130.362 66.119 130.362C69.291 130.362 71.8649 132.936 71.8649 136.108Z" fill="#D47474"/>
<path d="M359.816 74.4288C365 74.4288 369.203 64.0956 369.203 51.3489C369.203 38.6023 365 28.269 359.816 28.269C354.631 28.269 350.428 38.6023 350.428 51.3489C350.428 64.0956 354.631 74.4288 359.816 74.4288Z" stroke="#67B58E" stroke-width="1.06802" stroke-miterlimit="10"/>
<path d="M359.814 60.7377C372.561 60.7377 382.894 56.5346 382.894 51.3498C382.894 46.165 372.561 41.9619 359.814 41.9619C347.068 41.9619 336.734 46.165 336.734 51.3498C336.734 56.5346 347.068 60.7377 359.814 60.7377Z" stroke="#67B58E" stroke-width="1.06802" stroke-miterlimit="10"/>
<path d="M366.445 57.9926C357.431 67.0067 347.157 71.3429 343.483 67.6796C339.82 64.0163 344.156 53.7312 353.17 44.7171C362.184 35.7031 372.458 31.3669 376.132 35.0302C379.796 38.6935 375.459 48.9785 366.445 57.9926Z" stroke="#67B58E" stroke-width="1.06802" stroke-miterlimit="10"/>
<path d="M376.134 67.675C379.8 64.0088 375.465 53.7301 366.452 44.7168C357.439 35.7036 347.16 31.3689 343.494 35.0351C339.828 38.7013 344.162 48.98 353.175 57.9933C362.189 67.0065 372.467 71.3412 376.134 67.675Z" stroke="#67B58E" stroke-width="1.06802" stroke-miterlimit="10"/>
<path d="M365.143 51.3494C365.143 54.2972 362.762 56.6789 359.814 56.6789C356.866 56.6789 354.484 54.2972 354.484 51.3494C354.484 48.4017 356.866 46.02 359.814 46.02C362.762 46.02 365.143 48.4017 365.143 51.3494Z" fill="#D47474"/>
<path d="M210.74 420.018C256.023 420.018 292.732 416.547 292.732 412.265C292.732 407.982 256.023 404.511 210.74 404.511C165.457 404.511 128.748 407.982 128.748 412.265C128.748 416.547 165.457 420.018 210.74 420.018Z" fill="#ADA6A6"/>
<path d="M210.74 0.853027C175.731 0.853027 147.354 3.29879 147.354 6.31061V324.014C147.354 327.026 175.731 329.472 210.74 329.472C245.75 329.472 274.127 327.026 274.127 324.014V6.31061C274.127 3.29879 245.75 0.853027 210.74 0.853027Z" fill="#D8F0F0"/>
<path d="M129.496 380.011V411.358C129.496 414.369 165.873 416.815 210.74 416.815C255.608 416.815 291.985 414.369 291.985 411.358V380.011H129.496Z" fill="#D6CBCB"/>
<path d="M210.74 388.747C255.61 388.747 291.985 384.836 291.985 380.011C291.985 375.186 255.61 371.274 210.74 371.274C165.87 371.274 129.496 375.186 129.496 380.011C129.496 384.836 165.87 388.747 210.74 388.747Z" fill="#F5E9E9"/>
<path d="M147.354 324.004V377.256C147.354 380.268 175.731 382.713 210.74 382.713C245.75 382.713 274.127 380.268 274.127 377.256V324.004H147.354Z" fill="#D6CBCB"/>
<path d="M265.103 63.3131C266.015 57.6945 262.2 52.4005 256.581 51.4885C250.963 50.5765 245.669 54.3919 244.757 60.0104C243.845 65.6289 247.66 70.9229 253.279 71.8349C258.897 72.747 264.191 68.9316 265.103 63.3131Z" fill="#FFA1A5"/>
<path d="M259.195 176.372C264.887 176.372 269.501 171.758 269.501 166.066C269.501 160.374 264.887 155.759 259.195 155.759C253.503 155.759 248.889 160.374 248.889 166.066C248.889 171.758 253.503 176.372 259.195 176.372Z" fill="#D47474"/>
<path d="M255.267 146.397C260.526 144.219 263.023 138.19 260.845 132.932C258.667 127.673 252.638 125.176 247.379 127.354C242.121 129.532 239.623 135.561 241.802 140.82C243.98 146.078 250.009 148.576 255.267 146.397Z" fill="#D47474"/>
<path d="M257.124 276.432C258.039 270.814 254.227 265.518 248.609 264.603C242.991 263.688 237.695 267.501 236.78 273.119C235.865 278.737 239.677 284.033 245.295 284.948C250.913 285.863 256.209 282.051 257.124 276.432Z" fill="#FFA1A5"/>
<path d="M164.419 298.403C163.383 298.766 162.218 298.82 161.086 298.489C158.192 297.645 156.526 294.601 157.37 291.707C163.692 270.09 182.959 247.384 213.056 226.024C240.825 206.319 254.1 185.578 252.509 164.356C249.86 129.037 206.061 97.9361 183.269 86.4229C178.677 84.1053 174.661 80.9653 171.361 77.0991C165.583 70.3385 158.448 58.3553 157.274 39.5689C157.081 36.5571 159.378 33.9618 162.389 33.7695C165.401 33.5773 167.996 35.8735 168.189 38.8854C169.182 54.6493 174.981 64.4965 179.67 69.9861C182.03 72.7522 184.903 74.9951 188.203 76.6612C191.119 78.1351 259.665 113.305 263.424 163.545C265.314 188.857 250.501 212.876 219.389 234.952C191.311 254.871 173.497 275.569 167.868 294.793C167.356 296.556 166.031 297.859 164.419 298.425V298.403Z" fill="#FFA1A5"/>
<g style="mix-blend-mode:multiply" opacity="0.17">
<path d="M166.043 291.706C172.365 270.09 191.633 247.383 221.729 226.023C249.498 206.318 262.773 185.577 261.182 164.356C258.533 129.036 214.734 97.9355 191.942 86.4223C187.35 84.1047 183.334 80.9647 180.034 77.0985C174.256 70.3379 167.121 58.3547 165.947 39.5683C165.861 38.1905 166.31 36.9196 167.079 35.9157C166.011 34.5165 164.281 33.6515 162.39 33.7689C159.378 33.9612 157.082 36.5565 157.274 39.5683C158.46 58.3441 165.584 70.3379 171.361 77.0985C174.672 80.9647 178.677 84.1047 183.27 86.4223C206.061 97.9355 249.872 129.036 252.51 164.356C254.101 185.577 240.825 206.329 213.057 226.023C182.95 247.383 163.693 270.1 157.37 291.706C156.527 294.601 158.182 297.644 161.087 298.488C162.23 298.819 163.383 298.766 164.419 298.403C165.423 298.05 166.31 297.42 166.961 296.555C165.936 295.22 165.53 293.436 166.043 291.696V291.706Z" fill="#410270"/>
</g>
<g style="mix-blend-mode:multiply" opacity="0.17">
<path d="M216.411 237.088C213.612 235.711 209.266 233.254 205.88 231.3C203.082 233.425 200.401 235.572 197.816 237.719L203.872 246.893C207.77 243.614 211.946 240.335 216.411 237.078V237.088Z" fill="#410270"/>
</g>
<g style="mix-blend-mode:multiply" opacity="0.17">
<path d="M201.875 97.4869C206.948 100.926 212.224 104.846 217.361 109.182C218.963 105.967 220.843 101.78 222.082 98.9821C219.188 96.6324 216.315 94.4537 213.548 92.4458L201.875 97.4869Z" fill="#410270"/>
</g>
<path d="M253.91 298.799C253.643 298.895 253.365 298.97 253.077 299.023C250.108 299.568 247.256 297.592 246.722 294.623C243.486 276.841 229.634 257.435 205.539 236.929C172.313 208.648 157.489 180.324 161.451 152.758C167.934 107.752 222.435 81.3396 233.297 76.4908C241.2 72.9664 247.598 65.6718 250.855 56.4761C252.692 51.2642 253.899 45.6678 254.423 39.8471C254.69 36.8353 257.349 34.6245 260.361 34.8915C263.373 35.1585 265.583 37.8178 265.316 40.8297C264.708 47.5582 263.308 54.0517 261.162 60.1181C256.911 72.1333 248.378 81.7455 237.751 86.4768C227.807 90.9091 177.942 114.993 172.281 154.307C168.885 177.91 182.459 202.912 212.631 228.587C238.701 250.77 253.782 272.333 257.477 292.658C257.968 295.339 256.398 297.923 253.91 298.799Z" fill="#D47474"/>
<g style="mix-blend-mode:multiply" opacity="0.17">
<path d="M250.042 294.622C246.806 276.839 232.954 257.433 208.86 236.927C175.634 208.646 160.809 180.322 164.772 152.757C171.255 107.75 225.756 81.3384 236.617 76.4895C244.521 72.9651 250.918 65.6705 254.176 56.4749C256.013 51.2629 257.22 45.6665 257.743 39.8458C257.946 37.5923 259.494 35.7873 261.513 35.1358C261.139 35.0184 260.755 34.9329 260.36 34.9009C257.348 34.6232 254.688 36.8447 254.421 39.8565C253.898 45.6772 252.691 51.2736 250.854 56.4856C247.607 65.6812 241.21 72.9758 233.296 76.5002C222.434 81.3384 167.933 107.761 161.45 152.767C157.477 180.344 172.312 208.657 205.538 236.938C229.633 257.444 243.485 276.861 246.721 294.632C247.266 297.602 250.107 299.577 253.076 299.033C253.321 298.99 253.556 298.915 253.781 298.84C251.911 298.253 250.406 296.694 250.032 294.622H250.042Z" fill="#410270"/>
</g>
<path d="M246.049 143.807C245.504 143.978 244.927 144.074 244.319 144.064L177.044 143.391C174.022 143.359 171.597 140.892 171.629 137.869C171.661 134.847 174.128 132.422 177.151 132.454L244.425 133.127C247.448 133.159 249.872 135.626 249.84 138.649C249.819 141.063 248.228 143.103 246.049 143.797V143.807Z" fill="#D47474"/>
<g style="mix-blend-mode:multiply" opacity="0.17">
<path d="M246.049 140.731C245.504 140.902 244.927 140.998 244.319 140.987L177.044 140.314C174.577 140.293 172.537 138.627 171.875 136.384C171.736 136.854 171.629 137.345 171.629 137.868C171.597 140.891 174.022 143.358 177.044 143.39L244.319 144.063C244.917 144.063 245.504 143.977 246.049 143.807C248.228 143.102 249.819 141.072 249.84 138.659C249.84 138.114 249.744 137.591 249.605 137.089C249.093 138.819 247.758 140.186 246.049 140.731Z" fill="#410270"/>
</g>
<path d="M255.244 172.121C254.732 172.271 254.187 172.345 253.621 172.335L169.386 170.722C166.364 170.669 163.961 168.169 164.025 165.147C164.078 162.124 166.577 159.721 169.6 159.785L253.834 161.398C256.857 161.452 259.26 163.951 259.196 166.973C259.153 169.43 257.487 171.48 255.244 172.121Z" fill="#D47474"/>
<g style="mix-blend-mode:multiply" opacity="0.17">
<path d="M255.244 168.574C254.731 168.724 254.186 168.799 253.62 168.788L169.386 167.175C167.036 167.133 165.071 165.595 164.345 163.491C164.163 164.014 164.035 164.569 164.024 165.146C163.971 168.169 166.363 170.657 169.386 170.721L253.62 172.334C254.186 172.345 254.731 172.27 255.244 172.12C257.487 171.48 259.153 169.429 259.195 166.972C259.206 166.321 259.089 165.702 258.886 165.114C258.298 166.78 256.942 168.083 255.244 168.564V168.574Z" fill="#410270"/>
</g>
<path d="M241.295 281.229C240.761 281.4 240.195 281.496 239.597 281.496L175.495 281.432C172.472 281.432 170.026 278.975 170.037 275.953C170.037 272.93 172.494 270.484 175.516 270.484L239.619 270.548C242.641 270.548 245.087 273.005 245.087 276.027C245.087 278.452 243.495 280.513 241.306 281.229H241.295Z" fill="#FFA1A5"/>
<path d="M251.163 66.7282C250.629 66.899 250.063 66.9952 249.476 67.0058L173.091 67.2515C170.069 67.2515 167.612 64.8164 167.602 61.8046C167.602 58.7821 170.037 56.3257 173.048 56.315L249.433 56.0693C252.456 56.0693 254.912 58.5044 254.923 61.5162C254.923 63.9406 253.353 66.0126 251.163 66.7282Z" fill="#FFA1A5"/>
<g style="mix-blend-mode:multiply" opacity="0.17">
<path d="M251.163 63.6513C250.629 63.8222 250.063 63.9183 249.476 63.929L173.091 64.1746C170.603 64.1746 168.52 62.5192 167.847 60.2443C167.698 60.7356 167.602 61.2589 167.602 61.8036C167.602 64.8261 170.069 67.2612 173.091 67.2505L249.476 67.0049C250.063 67.0049 250.64 66.9087 251.163 66.7272C253.353 66.0116 254.933 63.9396 254.923 61.5152C254.923 60.9919 254.827 60.5006 254.688 60.02C254.175 61.7289 252.862 63.0959 251.163 63.6513Z" fill="#410270"/>
</g>
<g style="mix-blend-mode:multiply" opacity="0.17">
<path d="M241.296 277.961C240.762 278.132 240.196 278.228 239.598 278.228L175.496 278.164C173.05 278.164 171.01 276.541 170.305 274.33C170.145 274.843 170.027 275.387 170.027 275.953C170.027 278.976 172.473 281.422 175.485 281.432L239.587 281.496C240.175 281.496 240.752 281.4 241.286 281.229C243.475 280.514 245.066 278.463 245.066 276.028C245.066 275.462 244.96 274.939 244.799 274.426C244.265 276.092 242.952 277.417 241.286 277.961H241.296Z" fill="#410270"/>
</g>
<path d="M167.603 176.372C173.295 176.372 177.91 171.758 177.91 166.066C177.91 160.374 173.295 155.759 167.603 155.759C161.911 155.759 157.297 160.374 157.297 166.066C157.297 171.758 161.911 176.372 167.603 176.372Z" fill="#FFA1A5"/>
<path d="M177.324 144.159C181.349 140.134 181.349 133.608 177.324 129.583C173.299 125.558 166.774 125.558 162.749 129.583C158.724 133.608 158.724 140.134 162.749 144.159C166.774 148.184 173.299 148.184 177.324 144.159Z" fill="#FFA1A5"/>
<path d="M175.605 285.512C180.859 283.321 183.341 277.286 181.15 272.033C178.959 266.779 172.924 264.297 167.67 266.488C162.417 268.679 159.934 274.714 162.126 279.967C164.317 285.221 170.352 287.703 175.605 285.512Z" fill="#D47474"/>
<path d="M180.062 64.0426C181.375 58.5041 177.95 52.9496 172.411 51.6363C166.873 50.323 161.318 53.7482 160.005 59.2866C158.692 64.8251 162.117 70.3796 167.655 71.6929C173.194 73.0062 178.748 69.5811 180.062 64.0426Z" fill="#D47474"/>
<path d="M274.127 324.005C274.127 327.796 245.75 330.872 210.74 330.872C175.731 330.872 147.354 327.796 147.354 324.005C147.354 320.213 175.731 317.137 210.74 317.137C245.75 317.137 274.127 320.213 274.127 324.005Z" fill="#F5E9E9"/>
<path d="M210.742 327.688C176.277 327.688 154.884 325.637 151.104 324.014C154.895 322.38 176.277 320.34 210.742 320.34C245.207 320.34 266.599 322.39 270.38 324.014C266.588 325.648 245.207 327.688 210.742 327.688Z" fill="#7ABFBF"/>
<g style="mix-blend-mode:multiply">
<path d="M274.127 6.31061C274.127 9.32242 245.75 11.7682 210.74 11.7682C175.731 11.7682 147.354 9.32242 147.354 6.31061C147.354 3.29879 175.731 0.853027 210.74 0.853027C245.75 0.853027 274.127 3.29879 274.127 6.31061Z" fill="#D8F0F0"/>
</g>
<path d="M268.007 375.279C268.007 375.279 268.039 375.279 268.06 375.279C269.107 375.076 269.855 374.158 269.855 373.09V333.712C269.855 332.313 268.584 331.255 267.206 331.522C267.195 331.522 267.174 331.522 267.163 331.522C266.117 331.725 265.348 332.644 265.348 333.712V373.09C265.348 374.5 266.629 375.546 268.018 375.279H268.007Z" fill="#F5E9E9"/>
<path d="M236.629 336.767V375.718C236.629 376.989 237.515 377.993 238.573 377.95C246.914 377.544 253.685 376.946 258.577 376.284C259.517 376.156 260.221 375.205 260.221 374.062V334.791C260.221 333.446 259.228 332.41 258.107 332.58C256.953 332.762 255.725 332.933 254.401 333.104C249.701 333.713 244.287 334.193 238.412 334.535C237.419 334.588 236.629 335.571 236.629 336.767Z" fill="#F5E9E9"/>
<path d="M267.441 390.968C267.441 390.968 267.409 390.968 267.398 390.968C266.245 391.064 265.348 392.025 265.348 393.189V409.006C265.348 410.288 266.426 411.303 267.697 411.239C267.708 411.239 267.729 411.239 267.74 411.239C268.926 411.175 269.844 410.192 269.844 409.006V393.189C269.844 391.886 268.733 390.861 267.43 390.968H267.441Z" fill="#F5E9E9"/>
<path d="M238.913 412.265C245.92 412.115 252.317 411.923 258.084 411.688C259.281 411.635 260.22 410.652 260.22 409.456V393.884C260.22 392.592 259.142 391.577 257.849 391.663C251.869 392.037 245.471 392.346 238.785 392.571C237.578 392.613 236.617 393.596 236.617 394.803V410.033C236.617 411.282 237.653 412.286 238.903 412.265H238.913Z" fill="#F5E9E9"/>
<path d="M172.687 137.42C174.74 137.42 176.404 135.756 176.404 133.703C176.404 131.65 174.74 129.986 172.687 129.986C170.635 129.986 168.971 131.65 168.971 133.703C168.971 135.756 170.635 137.42 172.687 137.42Z" fill="#FFD6D6"/>
<path d="M171.021 167.913C173.074 167.913 174.738 166.249 174.738 164.196C174.738 162.144 173.074 160.479 171.021 160.479C168.969 160.479 167.305 162.144 167.305 164.196C167.305 166.249 168.969 167.913 171.021 167.913Z" fill="#FFD6D6"/>
<path d="M172.687 61.6546C174.74 61.6546 176.404 59.9906 176.404 57.9379C176.404 55.8852 174.74 54.2212 172.687 54.2212C170.635 54.2212 168.971 55.8852 168.971 57.9379C168.971 59.9906 170.635 61.6546 172.687 61.6546Z" fill="#FFA1A5"/>
<path d="M174.736 277.416C176.789 277.416 178.453 275.752 178.453 273.7C178.453 271.647 176.789 269.983 174.736 269.983C172.684 269.983 171.02 271.647 171.02 273.7C171.02 275.752 172.684 277.416 174.736 277.416Z" fill="#FFA1A5"/>
<path d="M385.35 411.656C385.35 414.091 371.509 416.066 354.442 416.066C337.375 416.066 323.533 414.091 323.533 411.656C323.533 409.22 337.375 407.245 354.442 407.245C371.509 407.245 385.35 409.22 385.35 411.656Z" fill="#ADADAD"/>
<path d="M412.189 303.422C412.189 303.422 408.174 301.125 405.098 300.955L404.756 296.992L408.43 298.829L412.189 303.432V303.422Z" fill="#FFB6A6"/>
<path d="M403.409 290.307C403.409 290.307 406.805 294.141 410.672 297.345C412.551 298.904 414.036 304.543 415.659 307.171C417.283 309.809 413.48 307.854 412.893 306.337C412.306 304.821 409.988 300.944 409.262 300.41C408.536 299.865 407.062 298.712 406.293 299.022C405.534 299.331 405.812 301.168 406.293 302.215C406.773 303.272 408.172 304.063 408.375 304.874C408.578 305.697 409.272 307.203 408.995 307.619C408.322 308.655 406.464 305.376 405.449 304.789C404.434 304.201 402.362 301.489 401.946 300.933C401.529 300.378 401.444 297.558 400.557 296.17C400.194 295.593 397.834 291.043 397.834 291.043L403.42 290.285L403.409 290.307Z" fill="#FFB6A6"/>
<path d="M411.281 298.266C411.281 298.266 414.197 302.559 415.414 303.488C419.761 306.81 418.202 306.97 415.884 306.457C414.656 306.18 412.595 303.179 411.89 302.869C411.185 302.559 411.292 298.276 411.292 298.276L411.281 298.266Z" fill="#FFB6A6"/>
<path d="M330.529 404.523L332.377 402.205L340.473 401.19L340.932 402.205L339.17 408.068L330.529 404.523Z" fill="#FFB6A6"/>
<path d="M340.93 402.204C340.93 402.204 342.382 410.235 341.774 410.865C341.165 411.495 337.833 414.625 337.523 416.675C337.213 418.715 333.272 421.535 328.893 421.054C324.514 420.574 321.716 418.245 323.265 414.945C324.632 412.04 326.202 410.758 328.21 407.512L330.527 404.532L332.973 405.077C335.782 405.696 338.698 404.735 340.652 402.535L340.941 402.204H340.93Z" fill="#342E4F"/>
<path d="M377.234 405.376L379.477 401.029L385.447 398.936L386.953 400.933L386.398 406.914L377.234 405.376Z" fill="#FFB6A6"/>
<path d="M386.952 400.933C386.952 400.933 389.985 408.291 389.515 409.018C389.045 409.744 386.418 413.45 386.525 415.468C386.631 417.487 383.342 421.022 378.963 421.492C374.573 421.962 371.38 420.349 372.235 416.867C372.993 413.802 374.264 412.243 375.577 408.718L377.244 405.376H379.743C382.616 405.365 385.275 403.816 386.738 401.306L386.952 400.933Z" fill="#342E4F"/>
<path d="M325.222 279.841C325.222 279.841 342.663 282.991 361.887 279.958C361.887 279.958 365.411 287.317 362.891 300.261L346.198 310.226L335.282 309.382C335.282 309.382 324.367 302.995 325.232 279.83L325.222 279.841Z" fill="#342E4F"/>
<path d="M361.629 268.145C361.629 268.145 364.513 285.725 365.164 304.821C365.816 323.917 368.176 337.299 376.047 347.712C386.076 360.967 389.579 379.283 387.059 400.419C387.059 400.419 384.463 403.986 378.066 403.271C378.066 403.271 372.608 373.11 362.804 357.143C362.804 357.143 358.19 352.956 356.396 347.841C354.602 342.735 334.363 306.733 335.345 291.652C336.328 276.572 361.64 268.145 361.64 268.145H361.629Z" fill="#342E4F"/>
<path d="M324.175 267.741C324.175 267.741 316.496 284.381 321.943 312.31C327.39 340.238 326.524 341.285 326.151 350.94C325.777 360.595 326.268 385.052 330.54 402.173C330.54 402.173 335.314 404.234 340.302 401.126C340.302 401.126 340.505 361.225 341.68 346.753C342.438 337.44 341.049 285.94 341.049 285.94L324.164 267.741H324.175Z" fill="#342E4F"/>
<path d="M352.091 215.696C352.091 215.696 345.694 211.734 334.17 215.034C334.17 215.034 334.309 219.295 334.501 219.37C334.683 219.445 345.149 221.656 345.149 221.656L352.102 215.696H352.091Z" fill="#D47474"/>
<path d="M349.477 215.065L346.881 197.955L337.333 194.409V213.569C337.333 214.83 336.628 215.983 335.496 216.571C331.235 218.781 326.141 223.246 321.078 223.94C321.078 223.94 344.083 230.668 363.81 222.69C363.81 222.69 356.152 220.832 351.154 217.97C350.107 217.372 349.487 216.25 349.487 215.065H349.477Z" fill="#FFB6A6"/>
<path d="M356.739 220.267L361.107 279.446L357.935 281.08C347.287 286.559 333.669 288.193 323.662 281.635L330.519 219.552L341.274 220.876L351.548 218.163L356.739 220.278V220.267Z" fill="#D47474"/>
<path d="M343.251 183.463C336.287 182.234 331.983 186.293 330.862 192.68C330.862 192.68 330.563 196.823 330.52 197.155C330.52 197.197 327.957 204.545 333.905 210.879C334.247 211.231 334.739 211.349 335.241 211.434C345.664 213.164 347.971 203.969 347.971 203.969C348.142 203.456 353.739 197.785 353.835 197.24C354.956 190.853 350.225 184.68 343.251 183.452V183.463Z" fill="#FFB6A6"/>
<path d="M336.777 185.173C336.777 185.173 334.79 189.851 343.121 194.838C343.121 194.838 345.182 200.905 345.289 203.425C345.289 203.425 355.756 206.982 355.617 193.525C355.521 184.393 343.431 182.481 338.55 183.282C333.669 184.083 331.01 187.074 330.988 191.987C330.988 191.987 333.455 186.07 336.766 185.173H336.777Z" fill="#342E4F"/>
<g style="mix-blend-mode:multiply" opacity="0.25">
<path d="M337.342 211.659C337.342 211.659 341.646 211.082 344.017 206.97C344.017 206.97 341.657 212.652 337.342 213.474V211.659Z" fill="#342E4F"/>
</g>
<path d="M349.314 190.694C348.246 189.167 349.73 186.059 351.279 184.371C351.877 183.72 353.586 181.862 355.967 181.99C359.129 182.161 361.863 185.738 361.339 188.035C360.506 191.687 351.129 193.279 349.324 190.694H349.314Z" fill="#342E4F"/>
<path d="M351.387 201.725C350.939 203.776 349.08 205.111 347.222 204.705C345.364 204.299 344.232 202.313 344.68 200.262C345.129 198.211 346.987 196.876 348.845 197.282C350.704 197.688 351.836 199.675 351.387 201.725Z" fill="#FFB6A6"/>
<path d="M349.017 204.62C349.017 205.282 348.483 205.827 347.81 205.827C347.137 205.827 346.604 205.293 346.604 204.62C346.604 203.947 347.137 203.413 347.81 203.413C348.483 203.413 349.017 203.947 349.017 204.62Z" fill="white"/>
<path d="M333.55 258.693L330.517 219.54L317.626 223.384C313.172 226.77 304.745 240.067 300.057 247.682C290.989 241.509 278.483 233.093 278.483 233.093L273.645 239.554L283.449 250.352C284.731 251.762 286.14 253.054 287.668 254.218C291.918 257.433 296.265 260.594 301.039 262.987L301.765 263.457C302.962 264.236 304.574 263.958 305.418 262.805C305.418 262.805 312.809 252.659 318.149 244.67L318.651 265.272L313.012 303.635C313.012 303.635 312.787 313.952 333.934 310.204L333.56 258.672L333.55 258.693Z" fill="#E8DBDB"/>
<path d="M399.213 275.259C397.12 269.545 393.392 264.258 390.145 259.175L386.802 253.407C383.064 246.892 381.356 239.641 376.827 233.628L373.602 228.8C371.626 225.372 368.71 223.834 366.222 223.161L352.038 218.686L346.891 268.904L349.561 312.127C370.697 315.865 372.737 299.621 372.737 299.621L363.434 260.926L364.652 244.457C368.358 250.759 372.427 256.836 376.87 262.667L380.822 268.424C382.765 272.973 385.168 277.278 388.02 281.304L399.523 297.549L407.063 292.881L399.234 275.27L399.213 275.259Z" fill="#E8DBDB"/>
<path d="M352.092 215.696C352.092 215.696 346.709 220.107 342.031 221.388C342.031 221.388 349.486 226.931 350.063 228.683C350.639 230.434 355.381 220.513 355.381 220.513C355.381 220.513 354.89 217.949 352.092 215.696Z" fill="#D47474"/>
<path d="M277.864 241.137C276.946 241.137 276.006 240.902 275.151 240.411L208.678 202.25C206.061 200.744 205.153 197.401 206.659 194.785C208.165 192.168 211.508 191.26 214.125 192.766L280.598 230.937C283.215 232.443 284.123 235.786 282.617 238.403C281.602 240.165 279.765 241.147 277.875 241.147L277.864 241.137Z" fill="#D47474"/>
<path d="M334.16 215.034C334.16 215.034 338.048 219.787 342.021 221.389C342.021 221.389 335.175 226.409 334.556 228.117C333.936 229.826 330.508 219.605 330.508 219.605C330.508 219.605 331.586 217.085 334.16 215.034Z" fill="#D47474"/>
<g style="mix-blend-mode:multiply" opacity="0.17">
<path d="M336.649 221.281C336.831 220.95 337.173 220.79 337.504 220.854C338.305 221.025 339.159 221.163 340.046 221.27C341.071 221.388 342.096 221.324 343.058 221.185C343.399 221.131 343.73 221.313 343.891 221.655L345.29 223.46C345.621 224.154 347.96 226.803 347.928 227.593L340.174 222.466L333.285 227.326L336.639 221.292L336.649 221.281Z" fill="#410270"/>
</g>
<path d="M263.842 235.573C262.592 235.551 261.717 234.473 261.984 233.415C262.229 232.465 262.486 231.311 262.507 230.756C262.56 229.698 262.913 229.698 263.639 230.04C264.365 230.382 264.558 231.931 264.376 232.71C264.194 233.49 264.718 235.455 264.034 235.562C263.981 235.562 263.917 235.573 263.842 235.573Z" fill="#FFB6A6"/>
<path d="M265.41 236.821C264.161 236.799 263.285 235.486 263.552 234.204C263.798 233.04 264.054 231.652 264.086 230.968C264.139 229.676 264.492 229.676 265.218 230.092C265.944 230.509 266.137 232.388 265.955 233.339C265.773 234.279 266.297 236.671 265.613 236.81C265.56 236.821 265.496 236.821 265.421 236.821H265.41Z" fill="#FFB6A6"/>
<path d="M267.356 237.634C266.106 237.612 265.23 236.448 265.497 235.305C265.743 234.269 265.999 233.041 266.021 232.432C266.074 231.29 266.426 231.29 267.153 231.663C267.879 232.037 268.071 233.703 267.89 234.547C267.708 235.391 268.231 237.506 267.548 237.634C267.495 237.634 267.43 237.644 267.356 237.644V237.634Z" fill="#FFB6A6"/>
<path d="M269.107 238.21C267.996 238.189 267.227 237.153 267.462 236.149C267.676 235.23 267.911 234.141 267.932 233.607C267.975 232.592 268.285 232.592 268.925 232.924C269.566 233.255 269.737 234.728 269.577 235.476C269.417 236.213 269.876 238.093 269.278 238.2C269.225 238.2 269.171 238.21 269.107 238.21Z" fill="#FFB6A6"/>
<path d="M268.732 238.167C268.732 238.167 270.399 238.37 271.467 238.274L269.149 236.949L268.732 238.167Z" fill="#FFB6A6"/>
<path d="M268.914 223.268C269 222.862 269.48 222.681 269.822 222.916C270.751 223.567 272.545 224.731 273.592 224.699C274.179 224.678 275.568 227.7 276.54 228.587L273.026 226.579C273.026 226.579 271.787 226.921 270.068 225.885C268.69 225.052 268.786 223.973 268.925 223.279L268.914 223.268Z" fill="#FFB6A6"/>
<path d="M208.935 206.041C214.627 206.041 219.242 201.427 219.242 195.735C219.242 190.043 214.627 185.429 208.935 185.429C203.243 185.429 198.629 190.043 198.629 195.735C198.629 201.427 203.243 206.041 208.935 206.041Z" fill="#FFA1A5"/>
<path d="M213.293 197.199C215.346 197.199 217.01 195.535 217.01 193.482C217.01 191.429 215.346 189.765 213.293 189.765C211.24 189.765 209.576 191.429 209.576 193.482C209.576 195.535 211.24 197.199 213.293 197.199Z" fill="#FFD6D6"/>
</svg>
