<svg width="17" height="18" viewBox="0 0 17 18" fill="none" xmlns="http://www.w3.org/2000/svg">
<path fill-rule="evenodd" clip-rule="evenodd" d="M8.48195 17.7764C3.80613 17.7764 0.015625 13.9859 0.015625 9.31008C0.015625 4.63425 3.80613 0.84375 8.48195 0.84375C13.1578 0.84375 16.9483 4.63425 16.9483 9.31008C16.9483 13.9859 13.1578 17.7764 8.48195 17.7764ZM8.60012 8.83509C9.29334 8.83509 12.664 6.93968 12.664 6.93968L12.6694 6.60103C12.6694 6.22715 12.3659 5.92372 11.9911 5.92372H5.20919C4.83464 5.92372 4.5312 6.22715 4.5312 6.60103V6.90277C4.5312 6.90277 7.93873 8.83509 8.60012 8.83509ZM4.53662 7.95588C4.53628 7.95588 7.93873 9.76663 8.60012 9.76663C9.32518 9.76663 12.664 7.95588 12.664 7.95588L12.6694 12.0197C12.6694 12.3936 12.3659 12.697 11.9911 12.697H5.20919C4.83497 12.697 4.5312 12.3936 4.5312 12.0197L4.53662 7.95588Z" fill="#BEBEBE"/>
</svg>
