<svg width="18" height="18" viewBox="0 0 18 18" fill="none" xmlns="http://www.w3.org/2000/svg">
<path fill-rule="evenodd" clip-rule="evenodd" d="M0.507812 9.31008C0.507812 13.9859 4.39807 17.7764 9.19694 17.7764C13.9958 17.7764 17.8861 13.9859 17.8861 9.31008C17.8861 4.63425 13.9958 0.84375 9.19694 0.84375C4.39807 0.84375 0.507812 4.63425 0.507812 9.31008ZM7.6039 13.1901L7.75173 11.032L7.75161 11.0319L11.7808 7.48911C11.9576 7.33619 11.7422 7.26162 11.5074 7.40032L6.53487 10.457L4.38699 9.80382C3.92315 9.66544 3.91982 9.35487 4.49113 9.13159L12.8609 5.98699C13.2432 5.81789 13.6122 6.07645 13.4662 6.64653L12.0409 13.1912C11.9413 13.6563 11.6529 13.7675 11.2533 13.5527L9.08203 11.9896L8.03835 12.9785C8.03506 12.9816 8.03179 12.9847 8.02853 12.9878C7.9118 13.0985 7.81523 13.1901 7.6039 13.1901Z" fill="#BEBEBE"/>
</svg>
