<svg width="18" height="18" viewBox="0 0 18 18" fill="none" xmlns="http://www.w3.org/2000/svg">
<path fill-rule="evenodd" clip-rule="evenodd" d="M8.68913 0.84375C3.89025 0.84375 0 4.63425 0 9.31008C0 13.9859 3.89025 17.7764 8.68913 17.7764C13.488 17.7764 17.3783 13.9859 17.3783 9.31008C17.3783 4.63425 13.488 0.84375 8.68913 0.84375ZM9.39644 11.9828C9.31076 12.0708 9.14349 12.0886 9.14349 12.0886H8.58953C8.58953 12.0886 7.36739 12.1588 6.29076 11.0871C5.11667 9.91773 4.07993 7.59772 4.07993 7.59772C4.07993 7.59772 4.02009 7.44553 4.08491 7.37226C4.1579 7.28945 4.3569 7.28425 4.3569 7.28425L5.68105 7.27601C5.68105 7.27601 5.80571 7.29552 5.89501 7.35839C5.9689 7.41042 6.01016 7.5071 6.01016 7.5071C6.01016 7.5071 6.22412 8.02478 6.50744 8.49303C7.06095 9.40742 7.31843 9.60729 7.5061 9.50931C7.77991 9.36666 7.69786 8.21685 7.69786 8.21685C7.69786 8.21685 7.70284 7.79976 7.56005 7.61376C7.44944 7.46981 7.24091 7.42776 7.14889 7.41605C7.07409 7.40651 7.19649 7.24089 7.35515 7.16675C7.59359 7.05533 8.01427 7.04882 8.51156 7.05359C8.89915 7.05749 9.01067 7.08047 9.16207 7.11559C9.51347 7.19669 9.5025 7.45661 9.47883 8.01756C9.47175 8.18532 9.46353 8.38001 9.46353 8.60489C9.46353 8.65542 9.46199 8.70929 9.46041 8.76471C9.45219 9.05209 9.44278 9.38118 9.64078 9.50367C9.74232 9.5661 9.99029 9.51278 10.6109 8.50517C10.9051 8.02738 11.1254 7.46591 11.1254 7.46591C11.1254 7.46591 11.1739 7.36576 11.2487 7.32284C11.3253 7.27905 11.4287 7.29249 11.4287 7.29249L12.8222 7.28425C12.8222 7.28425 13.241 7.23612 13.3086 7.41735C13.3797 7.60682 13.1522 8.04993 12.5828 8.77571C12.0435 9.46344 11.7806 9.71724 11.8039 9.94126C11.821 10.1055 11.9919 10.2537 12.3203 10.5451C13.0048 11.1528 13.1882 11.4726 13.2323 11.5494C13.2359 11.5558 13.2386 11.5605 13.2406 11.5635C13.5475 12.0504 12.9001 12.0886 12.9001 12.0886L11.6621 12.1051C11.6621 12.1051 11.3965 12.1554 11.0465 11.9256C10.8632 11.8053 10.6841 11.6089 10.5134 11.4218C10.2529 11.136 10.0121 10.8721 9.80669 10.9344C9.46172 11.0394 9.47214 11.75 9.47214 11.75C9.47214 11.75 9.47486 11.9022 9.39644 11.9828Z" fill="#BEBEBE"/>
</svg>
