<svg width="603" height="120" viewBox="0 0 603 120" fill="none" xmlns="http://www.w3.org/2000/svg">
<path d="M92.2942 68.0963C92.4782 76.5812 99.1781 82.6064 109.565 82.6064C118.845 82.6064 125.482 77.1333 125.482 69.5102C125.544 61.0269 118.598 58.7511 111.469 57.4599C104.709 56.2929 100.284 55.3698 100.284 50.944C100.284 46.8864 103.664 44.7947 108.52 44.7947C113.682 44.7947 117.309 47.7467 117.799 52.111H124.745C124.377 44.3653 117.922 38.8324 108.52 38.8324C99.4848 38.8324 93.2158 43.9957 93.2158 51.4348C93.2158 59.981 99.9771 62.2552 107.106 63.4851C113.927 64.715 118.414 65.6995 118.414 70.2478C118.414 74.3669 114.726 76.6426 109.626 76.6426C103.602 76.6426 99.6075 73.2612 99.2394 68.219L92.2942 68.0963Z" fill="black"/>
<path d="M132.441 73.69C132.441 79.4085 135.024 82.2362 141.046 82.2362H147.437V76.3951H142.398C140.001 76.3951 139.14 75.4735 139.14 73.0137V56.599H146.7V50.7579H139.14V41.9663H132.441V50.7579H126.971V56.599H132.441V73.69Z" fill="black"/>
<path d="M174.493 50.7581L173.694 55.3693C171.667 52.4802 168.347 50.39 163.431 50.39C154.887 50.39 148.557 56.7832 148.557 66.498C148.557 76.5808 154.887 82.606 163.431 82.606C168.347 82.606 171.667 80.2689 173.694 77.4411L174.43 82.2364H180.27V50.7581H174.493ZM164.536 77.0102C159.006 77.0102 155.38 72.7072 155.38 66.498C155.38 60.3502 159.006 56.0456 164.536 56.0456C170.068 56.0456 173.694 60.4115 173.694 66.6207C173.694 72.7072 170.068 77.0102 164.536 77.0102Z" fill="black"/>
<path d="M215.149 70.9237H208.39C207.592 74.6133 204.765 76.9488 200.646 76.9488C195.3 76.9488 191.796 72.6458 191.796 66.4366C191.796 60.2873 195.3 56.0456 200.646 56.0456C204.642 56.0456 207.468 58.3827 208.328 61.9481H215.149C213.921 54.8771 208.759 50.39 200.83 50.39C191.242 50.39 184.975 56.7832 184.975 66.4366C184.975 76.1499 191.181 82.606 200.646 82.606C208.696 82.606 213.921 78.1174 215.149 70.9237Z" fill="black"/>
<path d="M219.857 39.2002V82.2366H226.496V74.1826L232.087 68.2801L241.431 82.2366H249.296L236.82 63.4235L248.56 50.7582H240.877L226.496 66.1286V39.2002H219.857Z" fill="black"/>
<path d="M249.948 71.847C250.132 78.6711 255.846 82.6061 264.205 82.6061C271.765 82.6061 277.419 78.7938 277.419 72.7686C277.419 65.7605 271.581 64.161 264.513 63.3621C260.026 62.8085 257.014 62.5631 257.014 59.6111C257.014 57.0916 259.597 55.4921 263.467 55.4921C267.341 55.4921 270.106 57.5823 270.414 60.4116H276.866C276.436 53.9555 271.028 50.3901 263.345 50.3901C255.909 50.3288 250.563 54.2009 250.563 60.1647C250.563 66.6821 256.215 68.1574 263.283 69.0177C268.079 69.6326 270.905 69.9408 270.905 73.2609C270.905 75.8433 268.138 77.4412 264.144 77.4412C259.597 77.4412 256.585 75.1041 256.338 71.847H249.948Z" fill="black"/>
<path d="M297.976 39.2002V82.2366H305.044V64.0384H321.883V57.9519H305.044V45.4722H325.449V39.2002H297.976Z" fill="black"/>
<path d="M342.167 82.606C351.755 82.606 358.208 76.1499 358.208 66.498C358.208 56.9059 351.755 50.39 342.167 50.39C332.58 50.39 326.125 56.9059 326.125 66.498C326.125 76.1499 332.58 82.606 342.167 82.606ZM342.167 76.9488C336.574 76.9488 332.949 72.5845 332.949 66.498C332.949 60.4115 336.574 56.0456 342.167 56.0456C347.76 56.0456 351.448 60.4115 351.448 66.498C351.448 72.5845 347.76 76.9488 342.167 76.9488Z" fill="black"/>
<path d="M384.503 50.7579V66.3752C384.503 72.8911 381.429 76.826 376.389 76.826C371.534 76.826 369.076 73.5673 369.076 67.4195V50.7579H362.438V68.0958C362.438 78.9776 368.155 82.6058 374.854 82.6058C379.709 82.6058 382.598 80.6383 384.564 78.2399L385.302 82.2363H391.141V50.7579H384.503Z" fill="black"/>
<path d="M413.661 50.39C408.56 50.39 405.548 52.4188 403.583 54.8771L402.843 50.7581H397.067V82.2364H403.705V66.3753C403.705 59.9806 406.838 56.1069 412.124 56.1069C417.102 56.1069 419.621 59.3043 419.621 65.2681V82.2364H426.323V64.8985C426.323 54.0168 420.422 50.39 413.661 50.39Z" fill="black"/>
<path d="M455.651 39.2002V55.1241C453.623 52.3577 450.243 50.3902 445.449 50.3902C436.906 50.3902 430.575 56.7834 430.575 66.4982C430.575 76.581 436.906 82.6061 445.449 82.6061C450.427 82.6061 453.684 80.2691 455.713 77.5026L456.512 82.2366H462.29V39.2002H455.651ZM446.555 77.0104C441.023 77.0104 437.398 72.7074 437.398 66.4982C437.398 60.3503 441.023 56.0458 446.555 56.0458C452.087 56.0458 455.713 60.3503 455.713 66.6209C455.713 72.7074 452.087 77.0104 446.555 77.0104Z" fill="black"/>
<path d="M492.929 50.7581L492.129 55.3693C490.102 52.4802 486.782 50.39 481.865 50.39C473.324 50.39 466.992 56.7832 466.992 66.498C466.992 76.5808 473.324 82.606 481.865 82.606C486.782 82.606 490.102 80.2689 492.129 77.4411L492.868 82.2364H498.705V50.7581H492.929ZM482.972 77.0102C477.441 77.0102 473.814 72.7072 473.814 66.498C473.814 60.3502 477.441 56.0456 482.972 56.0456C488.502 56.0456 492.129 60.4115 492.129 66.6207C492.129 72.7072 488.502 77.0102 482.972 77.0102Z" fill="black"/>
<path d="M506.785 73.69C506.785 79.4085 509.366 82.2362 515.389 82.2362H521.781V76.3951H516.742C514.345 76.3951 513.485 75.4735 513.485 73.0137V56.599H521.045V50.7579H513.485V41.9663H506.785V50.7579H501.316V56.599H506.785V73.69Z" fill="black"/>
<path d="M528.048 38.2168C525.774 38.2168 523.991 39.8761 523.991 42.2131C523.991 44.5487 525.774 46.2094 528.048 46.2094C530.323 46.2094 532.105 44.5487 532.105 42.2131C532.105 39.8761 530.323 38.2168 528.048 38.2168ZM524.73 50.7578V82.2362H531.367V50.7578H524.73Z" fill="black"/>
<path d="M552.131 82.606C561.72 82.606 568.173 76.1499 568.173 66.498C568.173 56.9059 561.72 50.39 552.131 50.39C542.543 50.39 536.092 56.9059 536.092 66.498C536.092 76.1499 542.543 82.606 552.131 82.606ZM552.131 76.9488C546.539 76.9488 542.913 72.5845 542.913 66.498C542.913 60.4115 546.539 56.0456 552.131 56.0456C557.725 56.0456 561.413 60.4115 561.413 66.498C561.413 72.5845 557.725 76.9488 552.131 76.9488Z" fill="black"/>
<path d="M589.49 50.39C584.388 50.39 581.376 52.4188 579.41 54.8771L578.672 50.7581H572.896V82.2364H579.533V66.3753C579.533 59.9806 582.669 56.1069 587.952 56.1069C592.933 56.1069 595.451 59.3043 595.451 65.2681V82.2364H602.15V64.8985C602.15 54.0168 596.25 50.39 589.49 50.39Z" fill="black"/>
<path d="M67.1142 59.7C67.1142 60.2413 67.102 60.7842 67.0743 61.3255C67.0483 61.8668 67.0084 62.4082 66.9547 62.948C66.9011 63.4878 66.8351 64.026 66.7554 64.5628C66.6756 65.0995 66.5836 65.6331 66.4778 66.1653C66.372 66.6974 66.2539 67.2265 66.122 67.7524C65.9902 68.2784 65.8445 68.8014 65.6881 69.3197C65.5301 69.8396 65.3599 70.3548 65.1774 70.8655C64.9949 71.3761 64.8002 71.8822 64.5931 72.3821C64.3846 72.8836 64.1653 73.3789 63.9337 73.8696C63.7022 74.3603 63.4583 74.8449 63.2022 75.3234C62.9461 75.8018 62.6793 76.2726 62.4002 76.7388C62.1227 77.2035 61.8313 77.662 61.5307 78.1128C61.2301 78.5637 60.9173 79.0069 60.5937 79.4424C60.2717 79.8779 59.9374 80.3057 59.5939 80.7244C59.2504 81.1446 58.8961 81.5556 58.5312 81.9573C58.1677 82.3591 57.7936 82.7517 57.4102 83.1351C57.0268 83.5184 56.6342 83.8926 56.2324 84.2561C55.8307 84.621 55.4212 84.9753 55.001 85.3188C54.5824 85.6638 54.1545 85.9966 53.719 86.3202C53.2835 86.6437 52.8403 86.955 52.3895 87.2571C51.9386 87.5577 51.4816 87.8475 51.0154 88.1266C50.5508 88.4057 50.0785 88.6726 49.6016 88.9287C49.1231 89.1848 48.6385 89.4286 48.1478 89.6602C47.6586 89.8917 47.1633 90.1125 46.6618 90.3196C46.1604 90.5266 45.6558 90.7213 45.1452 90.9054C44.6345 91.0878 44.1193 91.2581 43.6009 91.4145C43.0811 91.5724 42.5597 91.7166 42.0337 91.8485C41.5077 91.9803 40.9786 92.1 40.4465 92.2058C39.9144 92.3116 39.3807 92.4036 38.844 92.4833C38.3073 92.5631 37.7705 92.629 37.2307 92.6827C36.6909 92.7364 36.1496 92.7762 35.6083 92.8023C35.067 92.8284 34.5256 92.8422 33.9828 92.8422C33.4414 92.8422 32.8986 92.8284 32.3573 92.8023C31.8159 92.7762 31.2746 92.7364 30.7348 92.6827C30.1965 92.629 29.6583 92.5631 29.1215 92.4833C28.5848 92.4036 28.0512 92.3116 27.519 92.2058C26.9869 92.1 26.4578 91.9803 25.9319 91.8485C25.4074 91.7166 24.8845 91.5724 24.3646 91.4145C23.8463 91.2581 23.331 91.0878 22.8219 90.9054C22.3112 90.7213 21.8052 90.5266 21.3037 90.3196C20.8038 90.1125 20.3069 89.8917 19.8178 89.6602C19.327 89.4286 18.8424 89.1848 18.3655 88.9287C17.8871 88.6726 17.4147 88.4057 16.9501 88.1266C16.4854 87.8475 16.0269 87.5577 15.5761 87.2571C15.1252 86.955 14.682 86.6437 14.2465 86.3202C13.811 85.9966 13.3832 85.6638 12.9645 85.3188C12.5459 84.9753 12.1349 84.621 11.7331 84.2561C11.3313 83.8926 10.9387 83.5184 10.5554 83.1351C10.172 82.7517 9.79781 82.3591 9.43437 81.9573C9.06939 81.5556 8.71515 81.1446 8.37164 80.7244C8.02814 80.3057 7.69383 79.8779 7.3718 79.4424C7.04823 79.0069 6.73692 78.5637 6.43482 78.1128C6.13426 77.662 5.84442 77.2035 5.56532 76.7388C5.28623 76.2726 5.01939 75.8018 4.7633 75.3234C4.5072 74.8449 4.26491 74.3603 4.03182 73.8696C3.80026 73.3789 3.58096 72.8836 3.37394 72.3821C3.16538 71.8822 2.97063 71.3761 2.78814 70.8655C2.60565 70.3548 2.43543 69.8396 2.27748 69.3197C2.12106 68.8014 1.97538 68.2784 1.8435 67.7524C1.71315 67.2265 1.59354 66.6974 1.48772 66.1653C1.38191 65.6331 1.2899 65.0995 1.21016 64.5628C1.13042 64.026 1.06448 63.4878 1.0108 62.948C0.95713 62.4082 0.917259 61.8668 0.891189 61.3255C0.86512 60.7842 0.851318 60.2413 0.851318 59.7C0.851318 59.1571 0.86512 58.6143 0.891189 58.0729C0.917259 57.5316 0.95713 56.9903 1.0108 56.4505C1.06448 55.9107 1.13042 55.3724 1.21016 54.8357C1.2899 54.299 1.38191 53.7653 1.48772 53.2332C1.59354 52.7011 1.71315 52.172 1.8435 51.646C1.97538 51.12 2.12106 50.5971 2.27748 50.0788C2.43543 49.5589 2.60565 49.0452 2.78814 48.5345C2.97063 48.0223 3.16538 47.5178 3.37394 47.0163C3.58096 46.5149 3.80026 46.0196 4.03182 45.5288C4.26491 45.0381 4.5072 44.5535 4.7633 44.0751C5.01939 43.5982 5.28623 43.1258 5.56532 42.6596C5.84442 42.195 6.13426 41.7365 6.43482 41.2856C6.73692 40.8348 7.04823 40.3916 7.3718 39.9561C7.69383 39.5206 8.02814 39.0927 8.37164 38.6741C8.71515 38.2539 9.06939 37.8444 9.43437 37.4411C9.79781 37.0393 10.172 36.6468 10.5554 36.2634C10.9387 35.88 11.3313 35.5058 11.7331 35.1424C12.1349 34.7774 12.5459 34.4232 12.9645 34.0797C13.3832 33.7346 13.811 33.4019 14.2465 33.0783C14.682 32.7562 15.1252 32.4434 15.5761 32.1413C16.0269 31.8407 16.4854 31.5509 16.9501 31.2718C17.4147 30.9927 17.8871 30.7259 18.3655 30.4698C18.8424 30.2137 19.327 29.9699 19.8178 29.7383C20.3069 29.5067 20.8038 29.2875 21.3037 29.0789C21.8052 28.8719 22.3112 28.6771 22.8219 28.4931C23.331 28.3106 23.8463 28.1404 24.3646 27.984C24.8845 27.826 25.4059 27.6819 25.9319 27.55C26.4578 27.4181 26.9869 27.2985 27.519 27.1927C28.0512 27.0869 28.5848 26.9949 29.1215 26.9151C29.6583 26.8354 30.1965 26.7694 30.7348 26.7158C31.2746 26.6621 31.8159 26.6222 32.3573 26.5961C32.8986 26.5701 33.4414 26.5563 33.9828 26.5563C34.5256 26.5563 35.067 26.5701 35.6083 26.5961C36.1496 26.6222 36.6909 26.6621 37.2307 26.7158C37.7705 26.7694 38.3073 26.8354 38.844 26.9151C39.3807 26.9949 39.9144 27.0869 40.4465 27.1927C40.9786 27.2985 41.5077 27.4181 42.0337 27.55C42.5597 27.6819 43.0811 27.826 43.6009 27.984C44.1193 28.1404 44.6345 28.3106 45.1452 28.4931C45.6558 28.6771 46.1604 28.8719 46.6618 29.0789C47.1633 29.2875 47.6586 29.5067 48.1478 29.7383C48.6385 29.9699 49.1231 30.2137 49.6016 30.4698C50.0785 30.7259 50.5508 30.9927 51.0154 31.2718C51.4816 31.5509 51.9386 31.8407 52.3895 32.1413C52.8403 32.4434 53.2835 32.7562 53.719 33.0783C54.1545 33.4019 54.5824 33.7346 55.001 34.0797C55.4212 34.4232 55.8307 34.7774 56.2324 35.1424C56.6342 35.5058 57.0268 35.88 57.4102 36.2634C57.7936 36.6468 58.1677 37.0393 58.5312 37.4411C58.8961 37.8444 59.2504 38.2539 59.5939 38.6741C59.9374 39.0927 60.2717 39.5206 60.5937 39.9561C60.9173 40.3916 61.2301 40.8348 61.5307 41.2856C61.8313 41.7365 62.1227 42.195 62.4002 42.6596C62.6793 43.1258 62.9461 43.5982 63.2022 44.0751C63.4583 44.5535 63.7022 45.0381 63.9337 45.5288C64.1653 46.0196 64.3846 46.5149 64.5931 47.0163C64.8002 47.5178 64.9949 48.0223 65.1774 48.5345C65.3599 49.0452 65.5301 49.5589 65.6881 50.0788C65.846 50.5971 65.9902 51.12 66.122 51.646C66.2539 52.172 66.372 52.7011 66.4778 53.2332C66.5836 53.7653 66.6756 54.299 66.7554 54.8357C66.8351 55.3724 66.9011 55.9107 66.9547 56.4505C67.0084 56.9903 67.0483 57.5316 67.0743 58.0729C67.102 58.6143 67.1142 59.1571 67.1142 59.7Z" fill="black"/>
<path d="M47.4883 76.2708L40.451 65.6129H50.5492V61.6058H17.4177V65.6405H27.5159L20.4771 76.2708H25.7063L33.9689 63.7481L42.2314 76.2708H47.4883Z" fill="white"/>
<path d="M40.6458 53.6472H50.5492V57.7094H17.4177V53.6472H27.3196L20.3651 43.1273H25.6235L33.9689 55.8171L42.3418 43.1273H47.6002L40.6458 53.6472Z" fill="white"/>
</svg>
