<?xml version="1.0" ?><svg viewBox="0 0 640 512" xmlns="http://www.w3.org/2000/svg" xmlns:xlink="http://www.w3.org/1999/xlink"><style>:root>svg{display:none}:root>svg:target{display:block}</style><svg viewBox="0 0 24 24" id="analytics" xmlns="http://www.w3.org/2000/svg"><defs><style>.aa{fill:none;stroke:#000;stroke-linecap:round;stroke-miterlimit:10}</style></defs><path class="aa" d="M.5 23.5h23M4.5 19a.5.5 0 00-.5-.5H2a.5.5 0 00-.5.5v4.5h3zM10.5 14a.5.5 0 00-.5-.5H8a.5.5 0 00-.5.5v9.5h3zM16.5 16a.5.5 0 00-.5-.5h-2a.5.5 0 00-.5.5v7.5h3zM22.5 9a.5.5 0 00-.5-.5h-2a.5.5 0 00-.5.5v14.5h3z"/><circle class="aa" cx="3" cy="11.5" r="1.5"/><circle class="aa" cx="9" cy="6.5" r="1.5"/><circle class="aa" cx="15" cy="8.5" r="1.5"/><circle class="aa" cx="21" cy="2" r="1.5"/><path class="aa" d="M4.261 10.45l3.587-2.99M10.424 6.974l3.153 1.051M19.8 2.9l-3.759 4.385"/></svg><svg viewBox="0 0 512 512" id="arrow-right-long" xmlns="http://www.w3.org/2000/svg"><!--!Font Awesome Free 6.5.1 by @fontawesome - https://fontawesome.com License - https://fontawesome.com/license/free Copyright 2024 Fonticons, Inc.--><path d="M502.6 278.6c12.5-12.5 12.5-32.8 0-45.3l-128-128c-12.5-12.5-32.8-12.5-45.3 0s-12.5 32.8 0 45.3l73.4 73.4H32c-17.7 0-32 14.3-32 32s14.3 32 32 32h370.7l-73.4 73.4c-12.5 12.5-12.5 32.8 0 45.3s32.8 12.5 45.3 0l128-128z"/></svg><svg viewBox="0 0 448 512" id="bell" xmlns="http://www.w3.org/2000/svg"><!--!Font Awesome Free 6.5.1 by @fontawesome - https://fontawesome.com License - https://fontawesome.com/license/free Copyright 2024 Fonticons, Inc.--><path d="M224 0c-17.7 0-32 14.3-32 32v19.2C119 66 64 130.6 64 208v18.8c0 47-17.3 92.4-48.5 127.6l-7.4 8.3c-8.4 9.4-10.4 22.9-5.3 34.4S19.4 416 32 416h384c12.6 0 24-7.4 29.2-18.9s3.1-25-5.3-34.4l-7.4-8.3c-31.2-35.2-48.5-80.5-48.5-127.6V208c0-77.4-55-142-128-156.8V32c0-17.7-14.3-32-32-32zm45.3 493.3c12-12 18.7-28.3 18.7-45.3H160c0 17 6.7 33.3 18.7 45.3S207 512 224 512s33.3-6.7 45.3-18.7z"/></svg><svg viewBox="0 0 23 22" id="check" xmlns="http://www.w3.org/2000/svg"><path d="M10.235.023l-.518.056C8.421.215 6.893.7 5.727 1.346 3.078 2.814 1.158 5.252.389 8.127c-.946 3.535-.13 7.184 2.235 9.996 1.443 1.717 3.472 2.973 5.713 3.54 1.002.253 1.255.28 2.665.281 1.178.001 1.323-.006 1.763-.087 2.412-.443 4.344-1.436 5.981-3.073 1.765-1.765 2.8-3.85 3.166-6.383.05-.346.068-.727.07-1.534.002-1.029-.001-1.079-.081-1.226a.996.996 0 00-.825-.548c-.324-.023-.539.051-.755.261-.278.27-.284.294-.316 1.341-.032 1.021-.072 1.452-.192 2.07-.598 3.09-2.889 5.713-5.879 6.733-2.896.988-5.958.488-8.431-1.377-.428-.323-1.331-1.237-1.665-1.686-1.682-2.258-2.232-5.023-1.536-7.714.823-3.179 3.361-5.675 6.57-6.462.755-.185 1.259-.243 2.11-.244 1.258-.002 2.156.169 3.374.64.374.144.551.193.709.194.411.004.792-.255.939-.639.134-.351.021-.829-.259-1.09-.214-.2-1.504-.675-2.31-.85a9.987 9.987 0 00-2.223-.25 16.859 16.859 0 00-.977.003m11.427 1.045c-.194.069-.523.391-5.433 5.3l-5.227 5.227-1.236-1.231C8.381 8.986 8.375 8.981 7.924 9.017c-.281.023-.432.092-.625.285-.199.199-.282.406-.282.703 0 .44-.004.435 1.773 2.21.89.888 1.678 1.647 1.752 1.686.185.098.729.1.92.003.186-.095 11.33-11.275 11.43-11.467.043-.083.087-.247.097-.364.062-.71-.647-1.246-1.327-1.005" fill-rule="evenodd"/></svg><svg viewBox="0 0 448 512" id="check-solid" xmlns="http://www.w3.org/2000/svg"><!--!Font Awesome Free 6.5.1 by @fontawesome - https://fontawesome.com License - https://fontawesome.com/license/free Copyright 2024 Fonticons, Inc.--><path d="M438.6 105.4c12.5 12.5 12.5 32.8 0 45.3l-256 256c-12.5 12.5-32.8 12.5-45.3 0l-128-128c-12.5-12.5-12.5-32.8 0-45.3s32.8-12.5 45.3 0L160 338.7l233.4-233.3c12.5-12.5 32.8-12.5 45.3 0z"/></svg><svg viewBox="0 0 512 512" id="chevron-down" xmlns="http://www.w3.org/2000/svg"><!--!Font Awesome Free 6.5.1 by @fontawesome - https://fontawesome.com License - https://fontawesome.com/license/free Copyright 2024 Fonticons, Inc.--><path d="M233.4 406.6c12.5 12.5 32.8 12.5 45.3 0l192-192c12.5-12.5 12.5-32.8 0-45.3s-32.8-12.5-45.3 0L256 338.7 86.6 169.4c-12.5-12.5-32.8-12.5-45.3 0s-12.5 32.8 0 45.3l192 192z"/></svg><svg viewBox="0 0 512 512" id="circle-question" xmlns="http://www.w3.org/2000/svg"><!--!Font Awesome Free 6.5.1 by @fontawesome - https://fontawesome.com License - https://fontawesome.com/license/free Copyright 2024 Fonticons, Inc.--><path d="M464 256a208 208 0 10-416 0 208 208 0 10416 0zM0 256a256 256 0 11512 0 256 256 0 11-512 0zm169.8-90.7c7.9-22.3 29.1-37.3 52.8-37.3h58.3c34.9 0 63.1 28.3 63.1 63.1 0 22.6-12.1 43.5-31.7 54.8L280 264.4c-.2 13-10.9 23.6-24 23.6-13.3 0-24-10.7-24-24v-13.5c0-8.6 4.6-16.5 12.1-20.8l44.3-25.4c4.7-2.7 7.6-7.7 7.6-13.1 0-8.4-6.8-15.1-15.1-15.1h-58.3c-3.4 0-6.4 2.1-7.5 5.3l-.4 1.2c-4.4 12.5-18.2 19-30.6 14.6s-19-18.2-14.6-30.6l.4-1.2zM224 352a32 32 0 1164 0 32 32 0 11-64 0z"/></svg><svg version="1.1" id="gold-bars" x="0" y="0" viewBox="0 0 122.88 107.33" xml:space="preserve" xmlns="http://www.w3.org/2000/svg"><style>.hst0{fill-rule:evenodd;clip-rule:evenodd}</style><path class="hst0" d="M12.49 28.62l-.26.21c1.72 2.11 2.43 4.6 2.14 7.46-.29 2.86-1.5 5.15-3.61 6.87l.21.26c2.11-1.72 4.6-2.43 7.46-2.13 12.88 1.34 3.67 8.8 4.99-4.07.29-2.86 1.5-5.15 3.61-6.87l-.21-.26c-2.11 1.72-4.6 2.43-7.46 2.14-2.86-.3-5.15-1.5-6.87-3.61zm18.77 36.22l8.86-31.19a2.592 2.592 0 012.49-1.89H80.4c1.26 0 2.3.9 2.54 2.08l9.1 31.15a2.581 2.581 0 01-2.48 3.3v.01H33.7a2.59 2.59 0 01-2.44-3.46zM62 103.86l8.86-31.19a2.592 2.592 0 012.49-1.89h37.79c1.26 0 2.3.9 2.54 2.08l9.1 31.15a2.581 2.581 0 01-2.48 3.3v.01H64.44a2.59 2.59 0 01-2.44-3.46zm13.3-27.9l-7.43 26.18h48.99l-7.65-26.18H75.3zM.15 103.86l8.86-31.19a2.592 2.592 0 012.49-1.89h37.79c1.26 0 2.3.9 2.54 2.08l9.1 31.15a2.581 2.581 0 01-2.48 3.3v.01H2.59a2.59 2.59 0 01-2.44-3.46zm13.3-27.9l-7.43 26.18H55l-7.65-26.18h-33.9zm31.11-39.02l-7.43 26.18h48.99l-7.65-26.18H44.56zM44.31 0l-.26.21c1.72 2.11 2.43 4.6 2.14 7.46-.29 2.86-1.5 5.15-3.61 6.87l.21.26c2.11-1.72 4.6-2.43 7.47-2.13 2.87.3 5.16 1.5 6.87 3.6l.26-.21c-1.72-2.11-2.43-4.6-2.14-7.46.29-2.86 1.5-5.15 3.61-6.87l-.21-.26c-2.11 1.72-4.6 2.43-7.46 2.14-2.87-.3-5.16-1.5-6.88-3.61zm42.32 2.31l-.47.39c3.14 3.86 4.45 8.41 3.91 13.65s-2.74 9.43-6.6 12.57l.39.47c3.86-3.14 8.41-4.45 13.66-3.9 5.24.54 9.43 2.75 12.57 6.6l.47-.39c-3.14-3.86-4.45-8.41-3.91-13.65s2.74-9.43 6.6-12.57l-.4-.48c-3.86 3.14-8.41 4.45-13.65 3.91s-9.43-2.74-12.57-6.6z"/></svg><svg viewBox="0 0 512 512" id="history" xmlns="http://www.w3.org/2000/svg"><!--!Font Awesome Free 6.5.1 by @fontawesome - https://fontawesome.com License - https://fontawesome.com/license/free Copyright 2024 Fonticons, Inc.--><path d="M75 75L41 41C25.9 25.9 0 36.6 0 57.9V168c0 13.3 10.7 24 24 24h110.1c21.4 0 32.1-25.9 17-41l-30.8-30.8C155 85.5 203 64 256 64c106 0 192 86 192 192s-86 192-192 192c-40.8 0-78.6-12.7-109.7-34.4-14.5-10.1-34.4-6.6-44.6 7.9s-6.6 34.4 7.9 44.6C151.2 495 201.7 512 256 512c141.4 0 256-114.6 256-256S397.4 0 256 0C185.3 0 121.3 28.7 75 75zm181 53c-13.3 0-24 10.7-24 24v104c0 6.4 2.5 12.5 7 17l72 72c9.4 9.4 24.6 9.4 33.9 0s9.4-24.6 0-33.9l-65-65V152c0-13.3-10.7-24-24-24z"/></svg><svg viewBox="0 0 576 512" id="home" xmlns="http://www.w3.org/2000/svg"><!--!Font Awesome Free 6.5.1 by @fontawesome - https://fontawesome.com License - https://fontawesome.com/license/free Copyright 2024 Fonticons, Inc.--><path d="M543.8 287.6c17 0 32-14 32-32.1 1-9-3-17-11-24L512 185V64c0-17.7-14.3-32-32-32h-32c-17.7 0-32 14.3-32 32v36.7L309.5 7c-6-5-14-7-21-7s-15 1-22 8L10 231.5c-7 7-10 15-10 24 0 18 14 32.1 32 32.1h32v69.7c-.1.9-.1 1.8-.1 2.8V472c0 22.1 17.9 40 40 40h16c1.2 0 2.4-.1 3.6-.2 1.5.1 3 .2 4.5.2h56c22.1 0 40-17.9 40-40v-88c0-17.7 14.3-32 32-32h64c17.7 0 32 14.3 32 32v88c0 22.1 17.9 40 40 40h56.5c1.4 0 2.8 0 4.2-.1 1.1.1 2.2.1 3.3.1h16c22.1 0 40-17.9 40-40v-16.2c.3-2.6.5-5.3.5-8.1l-.7-160.2h32z"/></svg><svg viewBox="0 0 640 512" id="partners" xmlns="http://www.w3.org/2000/svg"><!--!Font Awesome Free 6.5.1 by @fontawesome - https://fontawesome.com License - https://fontawesome.com/license/free Copyright 2024 Fonticons, Inc.--><path d="M96 128a128 128 0 11256 0 128 128 0 11-256 0zM0 482.3C0 383.8 79.8 304 178.3 304h91.4c98.5 0 178.3 79.8 178.3 178.3 0 16.4-13.3 29.7-29.7 29.7H29.7C13.3 512 0 498.7 0 482.3zM609.3 512H471.4c5.4-9.4 8.6-20.3 8.6-32v-8c0-60.7-27.1-115.2-69.8-151.8 2.4-.1 4.7-.2 7.1-.2h61.4c89.1 0 161.3 72.2 161.3 161.3 0 17-13.8 30.7-30.7 30.7zM432 256c-31 0-59-12.6-79.3-32.9 19.7-26.6 31.3-59.5 31.3-95.1 0-26.8-6.6-52.1-18.3-74.3C384.3 40.1 407.2 32 432 32c61.9 0 112 50.1 112 112s-50.1 112-112 112z"/></svg><svg viewBox="0 0 317.536 317.536" id="pen" xmlns="http://www.w3.org/2000/svg"><path d="M103.616 221.205c37.822-7.288 112.142-24.705 143.441-53.651-2.918-4.087-40.701-23.574-40.701-23.574h63.195C300.611 139.707 311.942 0 311.942 0S182.788 70.085 148.508 113.826c-34.274 43.754-67.88 111.396-67.88 111.396l.019-.006c-42.462 45.148-75.053 81.132-75.053 81.132l35.727-18.991 62.295-66.152zm192.94-197.798c-1.42 11.645-3.432 26.247-6.144 41.087-10.077 55.271-20.669 65.226-22.635 66.64h-61.421c-5.932 0-11.099 4.055-12.487 9.814a12.855 12.855 0 006.594 14.454c8.021 4.145 16.935 8.927 24.094 12.95-28.13 17.34-73.054 29.473-105.612 36.575l162.85-172.914a1695.44 1695.44 0 0114.761-8.606zm-137.933 98.349c18.529-23.644 67.932-56.318 106.904-80.001-29.525 27.044-69.127 64.178-106.756 102.232-14.717 14.878-29.731 30.373-44.332 45.631 12.275-21.518 28.214-47.476 44.184-67.862zm20.618 148.981c39.287 4.357 77.739 13.361 114.97 25.63-19.261-3.618-38.477-7.127-57.835-9.589-19.3-2.731-38.664-4.827-57.976-6.048-16.748-.88-33.477-1.247-50.001.019 3.528.63 7.07 1.253 10.604 1.896 9.621 1.793 19.293 3.573 29.056 5.842 4.904 1.195 9.743 2.359 14.955 4.389 1.311.533 2.654 1.112 4.177 2.012.771.469 1.594.99 2.558 1.889.88.932 2.32 2.23 2.815 5.264.411 3.162-1.273 5.598-2.269 6.613-1.099 1.138-1.999 1.671-2.815 2.172l-1.285.675-1.003.456-2.095.803c-10.829 3.419-20.617 3.766-30.65 4.415-9.949.488-19.827.418-29.673.148-39.384-1.048-78.401-5.206-117.174-10.977 19.608.27 39.146 1.003 58.696 1.015 19.531.296 39.056.366 58.491-.032 9.711-.257 19.396-.675 28.972-1.375 7.417-.643 15.135-1.42 21.909-3.078a152.568 152.568 0 00-8.438-2.172c-9.312-2.069-18.901-3.74-28.522-5.437-9.64-1.819-19.21-3.445-29.184-5.945-2.629-.765-4.839-1.17-8.451-3.027-.54-.334-1.041-.611-1.857-1.33-.636-.688-2.237-1.864-2.487-5.264-.058-1.62.578-3.117 1.163-3.965a8.014 8.014 0 011.575-1.742c.938-.733 1.485-.97 2.069-1.273 2.05-.919 3.368-1.163 4.801-1.497 5.444-1.105 10.257-1.594 15.341-1.999 19.98-1.483 39.935-.731 59.563 1.512z"/></svg><svg viewBox="0 0 448 512" id="profile" xmlns="http://www.w3.org/2000/svg"><!--!Font Awesome Free 6.5.1 by @fontawesome - https://fontawesome.com License - https://fontawesome.com/license/free Copyright 2024 Fonticons, Inc.--><path d="M304 128a80 80 0 10-160 0 80 80 0 10160 0zm-208 0a128 128 0 11256 0 128 128 0 11-256 0zM49.3 464h349.4c-8.9-63.3-63.3-112-129-112h-91.4c-65.7 0-120.1 48.7-129 112zM0 482.3C0 383.8 79.8 304 178.3 304h91.4c98.5 0 178.3 79.8 178.3 178.3 0 16.4-13.3 29.7-29.7 29.7H29.7C13.3 512 0 498.7 0 482.3z"/></svg><svg viewBox="0 0 512 512" id="quit" xmlns="http://www.w3.org/2000/svg"><!--!Font Awesome Free 6.5.1 by @fontawesome - https://fontawesome.com License - https://fontawesome.com/license/free Copyright 2024 Fonticons, Inc.--><path d="M288 32c0-17.7-14.3-32-32-32s-32 14.3-32 32v224c0 17.7 14.3 32 32 32s32-14.3 32-32V32zm-144.5 88.6c13.6-11.3 15.4-31.5 4.1-45.1s-31.5-15.4-45.1-4.1C49.7 115.4 16 181.8 16 256c0 132.5 107.5 240 240 240s240-107.5 240-240c0-74.2-33.8-140.6-86.6-184.6-13.6-11.3-33.8-9.4-45.1 4.1s-9.4 33.8 4.1 45.1c38.9 32.3 63.5 81 63.5 135.4 0 97.2-78.8 176-176 176s-176-78.8-176-176c0-54.4 24.7-103.1 63.5-135.4z"/></svg><svg class="obi obi-shield-check" viewBox="0 0 16 16" id="shield-check" xmlns="http://www.w3.org/2000/svg"><path d="M5.338 1.59a61 61 0 00-2.837.856.48.48 0 00-.328.39c-.554 4.157.726 7.19 2.253 9.188a10.7 10.7 0 002.287 2.233c.346.244.652.42.893.533q.18.085.293.118a1 1 0 00.101.025 1 1 0 00.1-.025q.114-.034.294-.118c.24-.113.547-.29.893-.533a10.7 10.7 0 002.287-2.233c1.527-1.997 2.807-5.031 2.253-9.188a.48.48 0 00-.328-.39c-.651-.213-1.75-.56-2.837-.855C9.552 1.29 8.531 1.067 8 1.067c-.53 0-1.552.223-2.662.524zM5.072.56C6.157.265 7.31 0 8 0s1.843.265 2.928.56c1.11.3 2.229.655 2.887.87a1.54 1.54 0 011.044 1.262c.596 4.477-.787 7.795-2.465 9.99a11.8 11.8 0 01-2.517 2.453 7 7 0 01-1.048.625c-.28.132-.581.24-.829.24s-.548-.108-.829-.24a7 7 0 01-1.048-.625 11.8 11.8 0 01-2.517-2.453C1.928 10.487.545 7.169 1.141 2.692A1.54 1.54 0 012.185 1.43 63 63 0 015.072.56"/><path d="M10.854 5.146a.5.5 0 010 .708l-3 3a.5.5 0 01-.708 0l-1.5-1.5a.5.5 0 11.708-.708L7.5 7.793l2.646-2.647a.5.5 0 01.708 0"/></svg><svg viewBox="0 0 24 24" id="speaker" xmlns="http://www.w3.org/2000/svg"><path d="M17.76 2.025L12.3 4.014 6.9 5.98l-1.52.023c-1.393.021-1.547.03-1.84.11-1.15.312-2.043 1.182-2.407 2.347l-.113.36v4.36l.113.36c.296.949.912 1.68 1.759 2.09l.392.19 1.442 2.88c1.144 2.283 1.475 2.91 1.595 3.025.167.159.452.275.679.275.406 0 .811-.293.939-.678.137-.411.144-.392-1.134-2.951a195.285 195.285 0 01-1.165-2.352c0-.01.265-.019.59-.019h.59l5.46 1.99c5.257 1.916 5.47 1.99 5.74 1.99.234 0 .311-.018.469-.111.103-.061.236-.173.294-.25.21-.274.213-.311.215-2.129.002-1.427.011-1.69.058-1.69.031 0 .225-.055.43-.122 1.596-.522 2.754-1.588 3.237-2.979.205-.593.257-.934.257-1.699s-.052-1.106-.257-1.699c-.376-1.085-1.148-1.963-2.243-2.554a6.632 6.632 0 00-1.27-.51L19 6.185V4.52c0-1.822-.007-1.884-.236-2.163a1.093 1.093 0 00-.301-.231c-.184-.092-.581-.149-.703-.101M17 11.003c0 6.232-.004 6.561-.07 6.54-.038-.012-2.064-.748-4.501-1.634l-4.43-1.612V7.702l4.47-1.628a670.49 670.49 0 014.501-1.631c.016-.002.03 2.95.03 6.56m-11 0v3.002l-.97-.012c-.955-.013-.973-.015-1.198-.12a1.553 1.553 0 01-.705-.705l-.107-.228V9.06l.107-.228c.185-.395.573-.712.967-.79.091-.018.557-.035 1.036-.038L6 8v3.003M19.42 8.45c.586.292 1.036.717 1.275 1.206.224.457.281.729.281 1.344 0 .614-.057.887-.279 1.341-.162.33-.412.629-.736.878-.219.169-.674.419-.871.479l-.09.027v-5.45l.09.028c.05.015.198.081.33.147" fill-rule="evenodd"/></svg><svg viewBox="0 0 256 256" id="upload" xmlns="http://www.w3.org/2000/svg"><path d="M77.515 90.456a12 12 0 010-16.97l42-42a12.002 12.002 0 0116.97 0l42 42a12 12 0 01-16.97 16.97L140 68.941V152a12 12 0 01-24 0V68.941L94.485 90.456a12.002 12.002 0 01-16.97 0zM224 124a12 12 0 00-12 12v68H44v-68a12 12 0 00-24 0v72a20.022 20.022 0 0020 20h176a20.022 20.022 0 0020-20v-72a12 12 0 00-12-12z"/></svg></svg>