<svg width="24" height="23" viewBox="0 0 24 23" fill="none" xmlns="http://www.w3.org/2000/svg">
<path d="M23.6947 11.5525C23.6658 17.9032 18.4933 23.0286 12.1411 22.9999C5.79153 22.9709 0.665768 17.7988 0.695441 11.4483C0.723461 5.09709 5.89592 -0.0286813 12.2462 0.000120792C18.5979 0.0285814 23.7235 5.20144 23.6947 11.5525Z" fill="white"/>
<path d="M16.7346 8.70337C16.5935 7.16224 15.266 6.63982 13.5876 6.48516L13.5973 4.34838L12.2965 4.34266L12.2871 6.42311C11.9452 6.42162 11.5956 6.4268 11.2483 6.43216L11.258 4.33793L9.95795 4.33203L9.94772 6.46819C9.66607 6.47267 9.38949 6.47666 9.11981 6.47563L9.11967 6.469L7.32559 6.46029L7.3196 7.84942C7.3196 7.84942 8.28025 7.83544 8.26421 7.85305C8.79109 7.85559 8.96117 8.16221 9.00984 8.42635L8.99886 10.8606C9.03521 10.861 9.08264 10.8627 9.13631 10.8703C9.09298 10.8701 9.04659 10.8696 8.9989 10.8698L8.98301 14.28C8.95913 14.4457 8.86046 14.7096 8.49235 14.7085C8.50893 14.7234 7.54679 14.704 7.54679 14.704L7.28125 16.2562L8.97402 16.2637C9.28903 16.2655 9.59895 16.2723 9.90323 16.2756L9.89394 18.4367L11.1933 18.4427L11.203 16.3045C11.5598 16.3135 11.905 16.3179 12.2421 16.3191L12.2318 18.4475L13.5326 18.4532L13.5428 16.2959C15.7303 16.1803 17.2634 15.6363 17.4628 13.5838C17.6238 11.931 16.8493 11.1898 15.6093 10.8861C16.3652 10.5055 16.8398 9.83109 16.7346 8.70337ZM14.8937 13.3161C14.8871 14.9311 12.1223 14.735 11.2407 14.7318L11.2541 11.8685C12.136 11.8727 14.9015 11.6316 14.8937 13.3161ZM14.3072 9.27362C14.3001 10.7429 11.9944 10.5611 11.2601 10.5578L11.272 7.96093C12.0063 7.96418 14.314 7.74108 14.3072 9.27362Z" fill="#02060A"/>
</svg>
