<svg width="35" height="35" viewBox="0 0 35 35" fill="none" xmlns="http://www.w3.org/2000/svg">
<path fill-rule="evenodd" clip-rule="evenodd" d="M27.6068 9.10433C25.7478 8.26503 23.7544 7.64666 21.6701 7.2925C21.6321 7.28567 21.5942 7.30275 21.5746 7.33691C21.3183 7.78559 21.0343 8.37093 20.8354 8.83101C18.5936 8.50076 16.3633 8.50076 14.1674 8.83101C13.9685 8.3607 13.6742 7.78559 13.4167 7.33691C13.3972 7.30389 13.3592 7.28681 13.3213 7.2925C11.2381 7.64553 9.24465 8.2639 7.38451 9.10433C7.36841 9.11117 7.35461 9.12256 7.34545 9.13736C3.56423 14.6958 2.5284 20.1177 3.03655 25.4723C3.03885 25.4985 3.05379 25.5236 3.07449 25.5395C5.56922 27.3422 7.9858 28.4366 10.3575 29.162C10.3955 29.1734 10.4357 29.1598 10.4598 29.129C11.0209 28.3752 11.521 27.5803 11.9498 26.7444C11.9751 26.6954 11.9509 26.6373 11.8992 26.618C11.1059 26.3219 10.3506 25.9609 9.62402 25.5509C9.56655 25.5179 9.56195 25.437 9.61482 25.3983C9.76772 25.2856 9.92066 25.1683 10.0667 25.0498C10.0931 25.0282 10.1299 25.0236 10.1609 25.0373C14.9342 27.1817 20.1019 27.1817 24.8189 25.0373C24.85 25.0225 24.8868 25.0271 24.9143 25.0487C25.0604 25.1671 25.2133 25.2856 25.3673 25.3983C25.4202 25.437 25.4167 25.5179 25.3593 25.5509C24.6327 25.9688 23.8774 26.3219 23.083 26.6168C23.0312 26.6362 23.0082 26.6954 23.0335 26.7444C23.4715 27.5791 23.9716 28.374 24.5223 29.1279C24.5453 29.1598 24.5867 29.1734 24.6246 29.162C27.0078 28.4366 29.4244 27.3422 31.9191 25.5395C31.941 25.5236 31.9548 25.4997 31.9571 25.4735C32.5652 19.2829 30.9385 13.9055 27.6447 9.13849C27.6367 9.12256 27.6229 9.11117 27.6068 9.10433ZM15.341 19.3223C15.341 20.9331 14.1494 22.2389 12.6795 22.2389C11.2097 22.2389 10.0181 20.9331 10.0181 19.3223C10.0181 17.7114 11.2097 16.4056 12.6795 16.4056C14.1494 16.4056 15.341 17.7114 15.341 19.3223ZM22.2899 22.2389C23.7598 22.2389 24.9514 20.9331 24.9514 19.3223C24.9514 17.7114 23.7598 16.4056 22.2899 16.4056C20.82 16.4056 19.6285 17.7114 19.6285 19.3223C19.6285 20.9331 20.82 22.2389 22.2899 22.2389Z" fill="white"/>
</svg>
