<svg width="24" height="23" viewBox="0 0 24 23" fill="none" xmlns="http://www.w3.org/2000/svg">
<path d="M12.1953 0C9.92083 0 7.69742 0.674463 5.80626 1.9381C3.91509 3.20173 2.44111 4.99779 1.5707 7.09914C0.700295 9.20049 0.472557 11.5128 0.916287 13.7435C1.36002 15.9743 2.45529 18.0234 4.06359 19.6317C5.67189 21.24 7.721 22.3353 9.95178 22.779C12.1826 23.2228 14.4948 22.995 16.5962 22.1246C18.6975 21.2542 20.4936 19.7802 21.7572 17.8891C23.0208 15.9979 23.6953 13.7745 23.6953 11.5C23.6953 9.98979 23.3979 8.49438 22.8199 7.09914C22.242 5.70389 21.3949 4.43614 20.327 3.36827C19.2592 2.3004 17.9914 1.45331 16.5962 0.875385C15.2009 0.297456 13.7055 0 12.1953 0ZM15.5717 14.03L12.7128 18.1355C12.6541 18.2181 12.5765 18.2854 12.4865 18.3319C12.3965 18.3784 12.2966 18.4026 12.1953 18.4026C12.094 18.4026 11.9941 18.3784 11.9041 18.3319C11.8141 18.2854 11.7365 18.2181 11.6778 18.1355L8.81891 14.03C8.79295 13.9903 8.77992 13.9435 8.78161 13.896C8.78329 13.8486 8.79962 13.8028 8.82834 13.765C8.85707 13.7272 8.89678 13.6993 8.94204 13.6849C8.98729 13.6706 9.03587 13.6706 9.08111 13.685L11.9193 14.628C12.0982 14.6893 12.2924 14.6893 12.4713 14.628L15.3107 13.685C15.3558 13.671 15.4042 13.6712 15.4492 13.6857C15.4943 13.7002 15.5337 13.7282 15.5623 13.7659C15.5908 13.8036 15.607 13.8492 15.6087 13.8964C15.6104 13.9437 15.5975 13.9903 15.5717 14.03ZM15.9788 11.6265L12.1953 12.903L8.41297 11.6311C8.36502 11.6151 8.32117 11.5888 8.28453 11.5539C8.24789 11.5191 8.21934 11.4767 8.20091 11.4296C8.18248 11.3826 8.17462 11.332 8.17787 11.2816C8.18113 11.2312 8.19543 11.182 8.21977 11.1377L11.6433 4.92775C11.6992 4.83078 11.7796 4.75024 11.8765 4.69424C11.9734 4.63824 12.0834 4.60876 12.1953 4.60876C12.3072 4.60876 12.4172 4.63824 12.5141 4.69424C12.611 4.75024 12.6914 4.83078 12.7473 4.92775L16.1709 11.1435C16.1942 11.1875 16.2077 11.236 16.2105 11.2857C16.2133 11.3354 16.2053 11.3852 16.187 11.4315C16.1688 11.4778 16.1407 11.5196 16.1048 11.5541C16.0688 11.5885 16.0259 11.6148 15.9788 11.6311V11.6265Z" fill="white"/>
</svg>
