<svg width="35" height="35" viewBox="0 0 35 35" fill="none" xmlns="http://www.w3.org/2000/svg">
<path fill-rule="evenodd" clip-rule="evenodd" d="M4.08829 7.29102C2.91602 9.32146 2.91602 12.0474 2.91602 17.4993C2.91602 22.9513 2.91602 25.6772 4.08829 27.7077C4.85627 29.0378 5.96085 30.1424 7.29102 30.9104C9.32146 32.0827 12.0474 32.0827 17.4993 32.0827C22.9513 32.0827 25.6772 32.0827 27.7077 30.9104C29.0378 30.1424 30.1424 29.0378 30.9104 27.7077C32.0827 25.6772 32.0827 22.9513 32.0827 17.4993C32.0827 12.0474 32.0827 9.32146 30.9104 7.29102C30.1424 5.96085 29.0378 4.85627 27.7077 4.08829C25.6772 2.91602 22.9513 2.91602 17.4993 2.91602C12.0474 2.91602 9.32146 2.91602 7.29102 4.08829C5.96085 4.85627 4.85627 5.96085 4.08829 7.29102ZM19.3698 14.5642C19.3698 13.4937 20.264 12.6259 21.3671 12.6259H24.791V8.74935H21.3671C18.0579 8.74935 15.3753 11.3528 15.3753 14.5642V17.6101H11.666V21.4867H15.3753V30.6243H19.3698V21.4867H23.6497L24.2204 17.6101H19.3698V14.5642Z" fill="white"/>
</svg>
