<svg width="35" height="35" viewBox="0 0 35 35" fill="none" xmlns="http://www.w3.org/2000/svg">
<path d="M17.4993 23.3327C20.3183 23.3327 22.6035 21.0475 22.6035 18.2285C22.6035 15.4096 20.3183 13.1243 17.4993 13.1243C14.6804 13.1243 12.3952 15.4096 12.3952 18.2285C12.3952 21.0475 14.6804 23.3327 17.4993 23.3327Z" fill="white"/>
<path fill-rule="evenodd" clip-rule="evenodd" d="M2.91602 17.4993C2.91602 12.0474 2.91602 9.32146 4.08829 7.29102C4.85627 5.96085 5.96085 4.85627 7.29102 4.08829C9.32146 2.91602 12.0474 2.91602 17.4993 2.91602C22.9513 2.91602 25.6772 2.91602 27.7077 4.08829C29.0378 4.85627 30.1424 5.96085 30.9104 7.29102C32.0827 9.32146 32.0827 12.0474 32.0827 17.4993C32.0827 22.9513 32.0827 25.6772 30.9104 27.7077C30.1424 29.0378 29.0378 30.1424 27.7077 30.9104C25.6772 32.0827 22.9513 32.0827 17.4993 32.0827C12.0474 32.0827 9.32146 32.0827 7.29102 30.9104C5.96085 30.1424 4.85627 29.0378 4.08829 27.7077C2.91602 25.6772 2.91602 22.9513 2.91602 17.4993ZM17.4993 25.5202C21.5264 25.5202 24.791 22.2556 24.791 18.2285C24.791 14.2014 21.5264 10.9368 17.4993 10.9368C13.4723 10.9368 10.2077 14.2014 10.2077 18.2285C10.2077 22.2556 13.4723 25.5202 17.4993 25.5202ZM24.0618 11.666C25.27 11.666 26.2493 10.6866 26.2493 9.47852C26.2493 8.27039 25.27 7.29102 24.0618 7.29102C22.8537 7.29102 21.8743 8.27039 21.8743 9.47852C21.8743 10.6866 22.8537 11.666 24.0618 11.666Z" fill="white"/>
</svg>
