<svg width="38" height="23" viewBox="0 0 38 23" fill="none" xmlns="http://www.w3.org/2000/svg">
<path fill-rule="evenodd" clip-rule="evenodd" d="M19.1956 20.5411C17.5088 21.8746 15.4831 22.704 13.3499 22.9343C11.2167 23.1646 9.06201 22.7866 7.13226 21.8435C5.20251 20.9004 3.57552 19.4303 2.43724 17.6012C1.29895 15.7721 0.695312 13.6578 0.695312 11.5C0.695312 9.34217 1.29895 7.22788 2.43724 5.39877C3.57552 3.56967 5.20251 2.09957 7.13226 1.15649C9.06201 0.213405 11.2167 -0.1646 13.3499 0.0656787C15.4831 0.295951 17.5089 1.12541 19.1956 2.45881C20.8824 1.1254 22.9081 0.295945 25.0412 0.0656765C27.1744 -0.164599 29.329 0.213412 31.2587 1.1565C33.1885 2.09959 34.8154 3.5697 35.9536 5.39879C37.0918 7.22789 37.6954 9.34217 37.6953 11.5C37.6954 13.6577 37.0918 15.772 35.9536 17.6011C34.8154 19.4302 33.1885 20.9003 31.2587 21.8434C29.329 22.7865 27.1744 23.1645 25.0412 22.9342C22.9081 22.704 20.8823 21.8745 19.1956 20.5411ZM14.8285 11.5C14.8269 9.75851 15.2193 8.0395 15.976 6.47308C16.7326 4.90671 17.8336 3.53398 19.1956 2.45881C20.5565 3.53506 21.6566 4.908 22.4131 6.47412C23.1696 8.04029 23.5627 9.75875 23.5627 11.5C23.5627 13.2412 23.1696 14.9596 22.4131 16.5258C21.6566 18.0919 20.5565 19.4649 19.1956 20.5411C17.8336 19.466 16.7326 18.0933 15.976 16.5269C15.2193 14.9605 14.8269 13.2415 14.8285 11.5ZM21.0663 20.4192C22.3169 21.1561 23.7131 21.6213 25.1646 21.778C27.0821 21.985 29.0188 21.6452 30.7534 20.7975C32.488 19.9498 33.9504 18.6283 34.9735 16.9842C35.9966 15.3401 36.5391 13.4396 36.5391 11.5C36.5391 9.56042 35.9966 7.65986 34.9735 6.01573C33.9504 4.37161 32.488 3.05017 30.7534 2.20245C29.0188 1.35473 27.0821 1.01495 25.1646 1.22193C23.7131 1.37862 22.3169 1.84386 21.0663 2.58067C22.0391 3.56692 22.8465 4.71003 23.4531 5.96597C24.2861 7.69049 24.719 9.58271 24.719 11.5C24.719 13.4172 24.2861 15.3094 23.4531 17.034C22.8465 18.2899 22.0391 19.433 21.0663 20.4192Z" fill="white"/>
</svg>
