<svg width="44" height="43" viewBox="0 0 44 43" fill="none" xmlns="http://www.w3.org/2000/svg">
<path d="M26.1808 15.9612C25.559 16.5829 25.559 17.591 26.1808 18.2127L27.7085 19.7405H12.4469C11.5676 19.7405 10.8548 20.4533 10.8548 21.3326C10.8548 22.2119 11.5676 22.9247 12.4469 22.9247L27.7085 22.9247L26.1808 24.4524C25.559 25.0741 25.559 26.0822 26.1808 26.704C26.8025 27.3257 27.8106 27.3257 28.4324 26.704L32.678 22.4583C32.8306 22.3057 32.9458 22.1298 33.0235 21.942C33.1008 21.7557 33.1437 21.5515 33.1443 21.3373L33.1443 21.3326L33.1443 21.3278C33.1431 20.9219 32.9876 20.5164 32.678 20.2068L28.4324 15.9612C27.8106 15.3394 26.8025 15.3394 26.1808 15.9612Z" fill="white"/>
<path fill-rule="evenodd" clip-rule="evenodd" d="M0.771484 21.3326C0.771484 33.0565 10.2756 42.5606 21.9996 42.5606C33.7235 42.5606 43.2276 33.0565 43.2276 21.3326C43.2276 9.60862 33.7235 0.104492 21.9996 0.104492C10.2756 0.104492 0.771484 9.60862 0.771484 21.3326ZM3.95569 21.3326C3.95569 31.2979 12.0342 39.3764 21.9996 39.3764C31.9649 39.3764 40.0434 31.2979 40.0434 21.3326C40.0434 11.3672 31.9649 3.2887 21.9996 3.2887C12.0342 3.2887 3.95569 11.3672 3.95569 21.3326Z" fill="white"/>
</svg>
