<svg width="35" height="35" viewBox="0 0 35 35" fill="none" xmlns="http://www.w3.org/2000/svg">
<path fill-rule="evenodd" clip-rule="evenodd" d="M4.76715 16.7058C11.8037 13.5928 16.5072 11.5808 18.8402 10.5938C25.5381 7.78453 26.9303 7.29102 27.8334 7.29102C28.0216 7.29102 28.4731 7.32898 28.7741 7.55676C28.9999 7.74657 29.0752 8.01231 29.1128 8.20212C29.1504 8.39194 29.1881 8.80953 29.1504 9.15119C28.7741 12.9854 27.2314 22.3622 26.4035 26.652C26.0649 28.4743 25.3876 29.0817 24.7479 29.1576C23.3556 29.2715 22.2644 28.2085 20.9098 27.3354C18.8026 25.9308 17.5985 25.0576 15.5289 23.6909C13.1583 22.0965 14.7011 21.2234 16.0557 19.8187C16.3944 19.4391 22.6031 13.7827 22.716 13.2512C22.716 13.1753 22.7536 12.9475 22.6031 12.8336C22.4526 12.7197 22.2644 12.7577 22.1139 12.7956C21.8881 12.8336 18.5016 15.1114 11.9166 19.591C10.9382 20.2743 10.0728 20.578 9.28257 20.578C8.41712 20.578 6.76146 20.0845 5.51972 19.6669C4.01458 19.1734 2.81047 18.9076 2.92335 18.0725C3.03624 17.6169 3.6383 17.1613 4.76715 16.7058Z" fill="white"/>
</svg>
