<svg width="24" height="23" viewBox="0 0 24 23" fill="none" xmlns="http://www.w3.org/2000/svg">
<path fill-rule="evenodd" clip-rule="evenodd" d="M12.1953 23C18.5466 23 23.6953 17.8513 23.6953 11.5C23.6953 5.14873 18.5466 0 12.1953 0C5.84404 0 0.695312 5.14873 0.695312 11.5C0.695312 17.8513 5.84404 23 12.1953 23ZM13.7381 15.8913C14.2742 15.8509 14.7958 15.7853 15.2832 15.6995C16.5555 15.4724 18.6953 14.8921 18.6953 13.5901C18.6953 12.288 16.5555 11.7077 15.2832 11.4806C15.0151 11.4352 14.7666 11.6168 14.7178 11.8944C14.6739 12.1669 14.8494 12.4293 15.1175 12.4748C17.1014 12.8331 17.7204 13.4185 17.7204 13.5901C17.7204 13.7616 17.1014 14.347 15.1175 14.7054C14.6837 14.7811 14.2206 14.8416 13.7381 14.8769V9.18944H16.9357C17.2037 9.18944 17.4231 8.96234 17.4231 8.68478V6.50466C17.4231 6.22205 17.2037 6 16.9357 6H7.45497C7.18688 6 6.96753 6.22205 6.96753 6.50466V8.68478C6.96753 8.96234 7.18688 9.18944 7.45497 9.18944H10.6574V14.8769C10.1749 14.8416 9.71181 14.7811 9.27799 14.7054C7.28924 14.3521 6.67019 13.7616 6.67019 13.5901C6.67019 13.4134 7.28924 12.8331 9.27799 12.4748C9.54121 12.4293 9.72156 12.1669 9.67282 11.8944C9.62895 11.6168 9.38035 11.4352 9.11226 11.4806C7.83517 11.7077 5.69531 12.288 5.69531 13.5901C5.69531 14.8921 7.83517 15.4724 9.11226 15.6995C9.5997 15.7853 10.1164 15.8509 10.6574 15.8913V18.4953C10.6574 18.778 10.8719 19 11.1449 19H13.2506C13.314 19 13.3822 18.9849 13.4407 18.9596C13.6162 18.8839 13.7381 18.7073 13.7381 18.4953V15.8913Z" fill="white"/>
</svg>
