<svg width="175" height="58" viewBox="0 0 175 58" fill="none" xmlns="http://www.w3.org/2000/svg">
<rect width="30.7812" height="29.6875" transform="translate(0.546875 0.503906)" fill="#02B57B"/>
<path d="M15.9375 20.8044L20.4525 19.5954L22.3389 25.7383L15.9375 20.8044ZM26.3281 12.8644H18.3805L15.9375 4.95703L13.4945 12.8644H5.54688L11.9792 17.7656L9.53613 25.6729L15.9684 20.7717L19.9268 17.7656L26.3281 12.8644Z" fill="white"/>
<rect width="30.7812" height="29.6875" transform="translate(36.3281 0.503906)" fill="#02B57B"/>
<path d="M51.7188 20.8044L56.2337 19.5954L58.1201 25.7383L51.7188 20.8044ZM62.1094 12.8644H54.1618L51.7188 4.95703L49.2757 12.8644H41.3281L47.7604 17.7656L45.3174 25.6729L51.7497 20.7717L55.708 17.7656L62.1094 12.8644Z" fill="white"/>
<rect width="30.7812" height="29.6875" transform="translate(72.1094 0.503906)" fill="#02B57B"/>
<path d="M87.5 20.8044L92.015 19.5954L93.9014 25.7383L87.5 20.8044ZM97.8906 12.8644H89.943L87.5 4.95703L85.057 12.8644H77.1094L83.5417 17.7656L81.0986 25.6729L87.5309 20.7717L91.4893 17.7656L97.8906 12.8644Z" fill="white"/>
<rect width="30.7812" height="29.6875" transform="translate(107.891 0.503906)" fill="#02B57B"/>
<path d="M123.281 20.8044L127.796 19.5954L129.683 25.7383L123.281 20.8044ZM133.672 12.8644H125.724L123.281 4.95703L120.838 12.8644H112.891L119.323 17.7656L116.88 25.6729L123.312 20.7717L127.271 17.7656L133.672 12.8644Z" fill="white"/>
<rect width="30.7812" height="29.6875" transform="translate(143.672 0.503906)" fill="#02B57B"/>
<path d="M159.062 20.8044L163.577 19.5954L165.464 25.7383L159.062 20.8044ZM169.453 12.8644H161.506L159.062 4.95703L156.619 12.8644H148.672L155.104 17.7656L152.661 25.6729L159.093 20.7717L163.052 17.7656L169.453 12.8644Z" fill="white"/>
<path d="M40.4909 52.4074C39.7069 52.4074 39.0309 52.2674 38.4629 51.9874C37.8949 51.7074 37.4269 51.3394 37.0589 50.8834C36.6909 50.4274 36.4149 49.9394 36.2309 49.4194C36.0549 48.8994 35.9669 48.3994 35.9669 47.9194V47.6554C35.9669 47.1354 36.0589 46.6114 36.2429 46.0834C36.4269 45.5554 36.7069 45.0754 37.0829 44.6434C37.4589 44.2034 37.9269 43.8514 38.4869 43.5874C39.0549 43.3234 39.7229 43.1914 40.4909 43.1914C41.2589 43.1914 41.9229 43.3234 42.4829 43.5874C43.0509 43.8514 43.5229 44.2034 43.8989 44.6434C44.2749 45.0754 44.5549 45.5554 44.7389 46.0834C44.9229 46.6114 45.0149 47.1354 45.0149 47.6554V47.9194C45.0149 48.3994 44.9229 48.8994 44.7389 49.4194C44.5629 49.9394 44.2909 50.4274 43.9229 50.8834C43.5549 51.3394 43.0869 51.7074 42.5189 51.9874C41.9509 52.2674 41.2749 52.4074 40.4909 52.4074ZM40.4909 51.3274C41.0029 51.3274 41.4629 51.2314 41.8709 51.0394C42.2869 50.8474 42.6389 50.5874 42.9269 50.2594C43.2149 49.9234 43.4349 49.5474 43.5869 49.1314C43.7389 48.7074 43.8149 48.2634 43.8149 47.7994C43.8149 47.3114 43.7389 46.8554 43.5869 46.4314C43.4349 46.0074 43.2149 45.6354 42.9269 45.3154C42.6389 44.9874 42.2869 44.7314 41.8709 44.5474C41.4629 44.3634 41.0029 44.2714 40.4909 44.2714C39.9789 44.2714 39.5149 44.3634 39.0989 44.5474C38.6909 44.7314 38.3429 44.9874 38.0549 45.3154C37.7669 45.6354 37.5469 46.0074 37.3949 46.4314C37.2429 46.8554 37.1669 47.3114 37.1669 47.7994C37.1669 48.2634 37.2429 48.7074 37.3949 49.1314C37.5469 49.5474 37.7669 49.9234 38.0549 50.2594C38.3429 50.5874 38.6909 50.8474 39.0989 51.0394C39.5149 51.2314 39.9789 51.3274 40.4909 51.3274ZM46.7817 52.1914V45.7834H47.6937V48.5314H47.5497C47.5497 47.8994 47.6337 47.3674 47.8017 46.9354C47.9777 46.4954 48.2417 46.1634 48.5937 45.9394C48.9457 45.7074 49.3897 45.5914 49.9257 45.5914H49.9737C50.7817 45.5914 51.3777 45.8434 51.7617 46.3474C52.1537 46.8514 52.3497 47.5794 52.3497 48.5314V52.1914H51.1977V48.2914C51.1977 47.7954 51.0577 47.3994 50.7777 47.1034C50.4977 46.7994 50.1137 46.6474 49.6257 46.6474C49.1217 46.6474 48.7137 46.8034 48.4017 47.1154C48.0897 47.4274 47.9337 47.8434 47.9337 48.3634V52.1914H46.7817Z" fill="white"/>
<path d="M68.2252 52.1301L71.6711 51.2574L73.1108 55.6914L68.2252 52.1301ZM76.1555 46.399H70.0897L68.2252 40.6914L66.3606 46.399H60.2949L65.2041 49.9367L63.3396 55.6442L68.2488 52.1065L71.2698 49.9367L76.1555 46.399Z" fill="#02B57B"/>
<path d="M85.8712 42.7279V52.3859H83.8864V42.7279H85.8712ZM88.845 42.7279V44.2867H80.959V42.7279H88.845Z" fill="white"/>
<path d="M91.3077 46.7742V52.3859H89.396V45.2088H91.1949L91.3077 46.7742ZM93.4717 45.1623L93.4385 46.9334C93.3456 46.9201 93.2328 46.9091 93.1 46.9002C92.9717 46.887 92.8544 46.8803 92.7482 46.8803C92.4782 46.8803 92.2437 46.9157 92.0445 46.9865C91.8498 47.0528 91.6861 47.1523 91.5533 47.285C91.425 47.4176 91.3276 47.579 91.2613 47.7692C91.1993 47.9594 91.1639 48.176 91.155 48.4193L90.77 48.2999C90.77 47.8355 90.8165 47.4088 90.9094 47.0196C91.0024 46.6261 91.1373 46.2834 91.3144 45.9915C91.4958 45.6996 91.7171 45.4741 91.9782 45.3149C92.2393 45.1557 92.538 45.0761 92.8743 45.0761C92.9805 45.0761 93.0889 45.0849 93.1996 45.1026C93.3102 45.1159 93.4009 45.1358 93.4717 45.1623Z" fill="white"/>
<path d="M98.6229 50.6679V45.2088H100.535V52.3859H98.7357L98.6229 50.6679ZM98.8353 49.1953L99.3995 49.1821C99.3995 49.6597 99.3442 50.1041 99.2336 50.5154C99.1229 50.9222 98.957 51.276 98.7357 51.5767C98.5144 51.873 98.2356 52.1051 97.8993 52.2732C97.563 52.4368 97.1669 52.5186 96.7111 52.5186C96.3615 52.5186 96.0385 52.47 95.742 52.3727C95.4499 52.271 95.1976 52.114 94.9852 51.9017C94.7772 51.685 94.6135 51.4086 94.494 51.0726C94.3789 50.7321 94.3214 50.323 94.3214 49.8454V45.2088H96.2332V49.8587C96.2332 50.0709 96.2575 50.25 96.3062 50.396C96.3593 50.5419 96.4323 50.6613 96.5252 50.7542C96.6182 50.847 96.7266 50.9134 96.8505 50.9532C96.9788 50.993 97.1205 51.0129 97.2753 51.0129C97.6692 51.0129 97.979 50.9333 98.2047 50.7741C98.4348 50.6149 98.5963 50.3982 98.6892 50.124C98.7866 49.8454 98.8353 49.5359 98.8353 49.1953Z" fill="white"/>
<path d="M105.878 50.4026C105.878 50.2655 105.838 50.1417 105.759 50.0311C105.679 49.9206 105.531 49.8189 105.314 49.726C105.102 49.6287 104.794 49.5403 104.391 49.4607C104.028 49.3811 103.69 49.2816 103.376 49.1622C103.066 49.0384 102.796 48.8902 102.566 48.7178C102.34 48.5453 102.163 48.3419 102.035 48.1075C101.906 47.8687 101.842 47.5967 101.842 47.2916C101.842 46.9909 101.906 46.7079 102.035 46.4425C102.168 46.1772 102.356 45.9428 102.599 45.7394C102.847 45.5316 103.148 45.3702 103.502 45.2552C103.86 45.1358 104.263 45.0761 104.71 45.0761C105.334 45.0761 105.869 45.1756 106.316 45.3746C106.768 45.5736 107.113 45.8478 107.352 46.1971C107.595 46.542 107.717 46.9356 107.717 47.3778H105.805C105.805 47.1921 105.765 47.0263 105.686 46.8803C105.611 46.73 105.491 46.6128 105.327 46.5288C105.168 46.4403 104.96 46.3961 104.703 46.3961C104.491 46.3961 104.307 46.4337 104.152 46.5089C103.997 46.5796 103.878 46.6769 103.794 46.8007C103.714 46.9201 103.674 47.0528 103.674 47.1987C103.674 47.3093 103.697 47.4088 103.741 47.4972C103.789 47.5813 103.867 47.6586 103.973 47.7294C104.079 47.8002 104.217 47.8665 104.385 47.9284C104.557 47.9859 104.77 48.039 105.022 48.0876C105.54 48.1937 106.002 48.333 106.409 48.5055C106.816 48.6735 107.14 48.9035 107.378 49.1953C107.617 49.4828 107.737 49.8609 107.737 50.3296C107.737 50.648 107.666 50.9399 107.525 51.2052C107.383 51.4706 107.179 51.7027 106.914 51.9017C106.648 52.0963 106.33 52.2489 105.958 52.3594C105.591 52.4655 105.177 52.5186 104.717 52.5186C104.048 52.5186 103.482 52.3992 103.017 52.1604C102.557 51.9216 102.207 51.6187 101.968 51.2517C101.734 50.8802 101.617 50.4999 101.617 50.1107H103.429C103.438 50.3716 103.504 50.5817 103.628 50.7409C103.756 50.9001 103.918 51.0151 104.113 51.0858C104.312 51.1566 104.526 51.192 104.756 51.192C105.004 51.192 105.21 51.1588 105.374 51.0925C105.538 51.0217 105.661 50.9288 105.746 50.8139C105.834 50.6945 105.878 50.5574 105.878 50.4026Z" fill="white"/>
<path d="M112.496 45.2088V46.5619H108.314V45.2088H112.496ZM109.35 43.4377H111.262V50.2235C111.262 50.4313 111.288 50.5905 111.341 50.7011C111.399 50.8117 111.483 50.889 111.594 50.9333C111.704 50.9731 111.844 50.993 112.012 50.993C112.131 50.993 112.238 50.9885 112.33 50.9797C112.428 50.9664 112.51 50.9532 112.576 50.9399L112.583 52.3461C112.419 52.3992 112.242 52.4412 112.052 52.4722C111.861 52.5031 111.651 52.5186 111.421 52.5186C111.001 52.5186 110.633 52.4501 110.319 52.313C110.009 52.1715 109.77 51.9459 109.602 51.6364C109.434 51.3268 109.35 50.92 109.35 50.4159V43.4377Z" fill="white"/>
<path d="M115.497 46.5885V55.1454H113.585V45.2088H115.357L115.497 46.5885ZM120.044 48.7178V48.8571C120.044 49.3789 119.982 49.8631 119.858 50.3097C119.739 50.7564 119.562 51.1455 119.327 51.4772C119.092 51.8044 118.8 52.0609 118.451 52.2466C118.106 52.428 117.707 52.5186 117.256 52.5186C116.818 52.5186 116.437 52.4302 116.114 52.2533C115.791 52.0764 115.519 51.8288 115.298 51.5104C115.081 51.1875 114.906 50.8139 114.773 50.3893C114.641 49.9648 114.539 49.5093 114.468 49.0229V48.6581C114.539 48.1362 114.641 47.6586 114.773 47.2253C114.906 46.7875 115.081 46.4094 115.298 46.091C115.519 45.7682 115.789 45.5183 116.108 45.3414C116.431 45.1645 116.809 45.0761 117.243 45.0761C117.698 45.0761 118.099 45.1623 118.444 45.3348C118.794 45.5073 119.086 45.7549 119.32 46.0777C119.559 46.4005 119.739 46.7853 119.858 47.2319C119.982 47.6785 120.044 48.1738 120.044 48.7178ZM118.125 48.8571V48.7178C118.125 48.4126 118.099 48.1318 118.046 47.8753C117.997 47.6144 117.918 47.3867 117.807 47.1921C117.701 46.9975 117.559 46.8472 117.382 46.741C117.209 46.6305 116.999 46.5752 116.751 46.5752C116.49 46.5752 116.267 46.6172 116.081 46.7012C115.9 46.7853 115.751 46.9069 115.636 47.0661C115.521 47.2253 115.435 47.4154 115.377 47.6365C115.32 47.8576 115.284 48.1075 115.271 48.3861V49.3081C115.293 49.6354 115.355 49.9294 115.457 50.1903C115.559 50.4468 115.716 50.6502 115.928 50.8006C116.141 50.951 116.42 51.0261 116.765 51.0261C117.017 51.0261 117.229 50.9708 117.402 50.8603C117.575 50.7453 117.714 50.5883 117.82 50.3893C117.931 50.1903 118.008 49.9604 118.052 49.6995C118.101 49.4386 118.125 49.1578 118.125 48.8571Z" fill="white"/>
<path d="M123.25 45.2088V52.3859H121.332V45.2088H123.25ZM121.212 43.3382C121.212 43.0596 121.31 42.8296 121.504 42.6483C121.699 42.467 121.96 42.3764 122.288 42.3764C122.611 42.3764 122.869 42.467 123.064 42.6483C123.263 42.8296 123.363 43.0596 123.363 43.3382C123.363 43.6168 123.263 43.8467 123.064 44.028C122.869 44.2094 122.611 44.3 122.288 44.3C121.96 44.3 121.699 44.2094 121.504 44.028C121.31 43.8467 121.212 43.6168 121.212 43.3382Z" fill="white"/>
<path d="M126.848 42.1973V52.3859H124.93V42.1973H126.848Z" fill="white"/>
<path d="M128.122 48.8703V48.731C128.122 48.2048 128.198 47.7206 128.348 47.2783C128.499 46.8317 128.718 46.4448 129.005 46.1175C129.293 45.7903 129.647 45.536 130.067 45.3547C130.488 45.169 130.97 45.0761 131.514 45.0761C132.059 45.0761 132.543 45.169 132.968 45.3547C133.393 45.536 133.749 45.7903 134.037 46.1175C134.329 46.4448 134.55 46.8317 134.701 47.2783C134.851 47.7206 134.926 48.2048 134.926 48.731V48.8703C134.926 49.3921 134.851 49.8764 134.701 50.323C134.55 50.7652 134.329 51.1522 134.037 51.4838C133.749 51.8111 133.395 52.0653 132.975 52.2466C132.554 52.428 132.072 52.5186 131.528 52.5186C130.983 52.5186 130.499 52.428 130.074 52.2466C129.654 52.0653 129.297 51.8111 129.005 51.4838C128.718 51.1522 128.499 50.7652 128.348 50.323C128.198 49.8764 128.122 49.3921 128.122 48.8703ZM130.034 48.731V48.8703C130.034 49.171 130.061 49.4518 130.114 49.7127C130.167 49.9737 130.251 50.2036 130.366 50.4026C130.486 50.5972 130.64 50.7497 130.831 50.8603C131.021 50.9708 131.253 51.0261 131.528 51.0261C131.793 51.0261 132.021 50.9708 132.211 50.8603C132.402 50.7497 132.554 50.5972 132.669 50.4026C132.785 50.2036 132.869 49.9737 132.922 49.7127C132.979 49.4518 133.008 49.171 133.008 48.8703V48.731C133.008 48.4392 132.979 48.165 132.922 47.9085C132.869 47.6476 132.782 47.4176 132.663 47.2186C132.548 47.0152 132.395 46.856 132.205 46.741C132.015 46.6261 131.784 46.5686 131.514 46.5686C131.245 46.5686 131.014 46.6261 130.824 46.741C130.638 46.856 130.486 47.0152 130.366 47.2186C130.251 47.4176 130.167 47.6476 130.114 47.9085C130.061 48.165 130.034 48.4392 130.034 48.731Z" fill="white"/>
<path d="M139.62 45.2088V46.5619H135.438V45.2088H139.62ZM136.473 43.4377H138.385V50.2235C138.385 50.4313 138.411 50.5905 138.465 50.7011C138.522 50.8117 138.606 50.889 138.717 50.9333C138.827 50.9731 138.967 50.993 139.135 50.993C139.254 50.993 139.361 50.9885 139.454 50.9797C139.551 50.9664 139.633 50.9532 139.699 50.9399L139.706 52.3461C139.542 52.3992 139.365 52.4412 139.175 52.4722C138.985 52.5031 138.774 52.5186 138.544 52.5186C138.124 52.5186 137.756 52.4501 137.442 52.313C137.132 52.1715 136.894 51.9459 136.725 51.6364C136.557 51.3268 136.473 50.92 136.473 50.4159V43.4377Z" fill="white"/>
</svg>
