<svg width="49" height="17" viewBox="0 0 49 17" fill="none" xmlns="http://www.w3.org/2000/svg">
<path d="M24.1109 0.782613L20.8576 16.2571H16.9226L20.1762 0.782613H24.1109ZM40.6654 10.7747L42.7364 4.96368L43.9283 10.7747H40.6654ZM45.0572 16.2571H48.6957L45.5169 0.782613H42.1607C41.4043 0.782613 40.7667 1.22881 40.4844 1.91689L34.5803 16.2571H38.7127L39.5331 13.946H44.5806L45.0572 16.2571ZM34.7852 11.2052C34.8023 7.12122 29.2361 6.89499 29.2734 5.07019C29.2854 4.51575 29.8054 3.92512 30.9418 3.77406C31.5052 3.70028 33.06 3.64041 34.8225 4.46667L35.5118 1.18391C34.5652 0.835516 33.3471 0.5 31.8312 0.5C27.9413 0.5 25.2049 2.6022 25.183 5.61488C25.1581 7.84272 27.1378 9.08489 28.6262 9.82692C30.1608 10.5853 30.675 11.0715 30.6675 11.7492C30.6568 12.7874 29.4438 13.2472 28.3142 13.2646C26.3349 13.2959 25.1875 12.7202 24.2731 12.2866L23.5588 15.679C24.4797 16.1078 26.1765 16.4809 27.9335 16.5C32.069 16.5 34.7729 14.4225 34.7852 11.2052ZM18.4883 0.782613L12.1128 16.2571H7.95396L4.8163 3.90737C4.6261 3.14793 4.46019 2.8688 3.88171 2.5479C2.93549 2.02514 1.3735 1.53613 0 1.23194L0.0930499 0.782613H6.78846C7.64129 0.782613 8.4086 1.36002 8.60394 2.35961L10.2614 11.3148L14.3545 0.782613H18.4883Z" fill="white"/>
</svg>
