<svg width="35" height="35" viewBox="0 0 35 35" fill="none" xmlns="http://www.w3.org/2000/svg">
<path d="M34.6514 10.501C34.6514 10.501 34.3096 8.08788 33.2569 7.02832C31.9238 5.63379 30.4335 5.62695 29.75 5.54491C24.8555 5.18945 17.5069 5.18945 17.5069 5.18945H17.4931C17.4931 5.18945 10.1445 5.18945 5.25 5.54491C4.5664 5.62695 3.07617 5.63379 1.74316 7.02832C0.69043 8.08788 0.355468 10.501 0.355468 10.501C0.355468 10.501 0 13.3378 0 16.1679V18.8204C0 21.6503 0.348633 24.4873 0.348633 24.4873C0.348633 24.4873 0.69043 26.9003 1.73633 27.9599C3.06934 29.3545 4.81934 29.3066 5.59863 29.457C8.40136 29.7237 17.5 29.8057 17.5 29.8057C17.5 29.8057 24.8555 29.792 29.75 29.4433C30.4335 29.3613 31.9238 29.3545 33.2569 27.9599C34.3096 26.9003 34.6514 24.4873 34.6514 24.4873C34.6514 24.4873 35 21.6572 35 18.8204V16.1679C35 13.3378 34.6514 10.501 34.6514 10.501ZM13.8838 22.04V12.2031L23.3379 17.1387L13.8838 22.04Z" fill="white"/>
</svg>
