<svg width="21" height="31" viewBox="0 0 21 31" fill="none" xmlns="http://www.w3.org/2000/svg">
<path d="M14.5645 7.39773C14.1906 7.39773 13.8871 7.08209 13.8871 6.69318V2.11364C13.8871 1.20653 15.2419 1.20477 15.2419 2.11364V5.98864H20.603L15.0435 0.206432C14.9164 0.0743295 14.744 0 14.5645 0H0.677419C0.303484 0 0 0.315636 0 0.704545V30.2955C0 30.6844 0.303484 31 0.677419 31H20.3226C20.6965 31 21 30.6844 21 30.2955V7.39773H14.5645ZM4.74194 5.98864H11.1774C12.0496 5.98864 12.0513 7.39773 11.1774 7.39773H4.74194C3.86976 7.39773 3.86806 5.98864 4.74194 5.98864ZM16.2581 23.9545H4.74194C3.86976 23.9545 3.86806 22.5455 4.74194 22.5455H16.2581C17.1302 22.5455 17.1319 23.9545 16.2581 23.9545ZM16.2581 18.3182H4.74194C3.86976 18.3182 3.86806 16.9091 4.74194 16.9091H16.2581C17.1302 16.9091 17.1319 18.3182 16.2581 18.3182ZM16.2581 13.0341H4.74194C3.86976 13.0341 3.86806 11.625 4.74194 11.625H16.2581C17.1302 11.625 17.1319 13.0341 16.2581 13.0341Z" fill="white"/>
</svg>
