<svg width="36" height="28" viewBox="0 0 36 28" fill="none" xmlns="http://www.w3.org/2000/svg">
<path d="M30.134 27.9988H29.7612C29.7103 27.9689 29.6714 27.9211 29.6513 27.8639C29.6424 27.8357 29.6252 27.8111 29.6021 27.7935C29.5298 27.749 29.5037 27.6775 29.4933 27.5995C29.4904 27.5439 29.4667 27.4917 29.4272 27.4541C29.4072 27.4316 29.3939 27.4035 29.3891 27.3732C29.3787 27.3183 29.371 27.263 29.3661 27.2073C29.3652 27.1644 29.3616 27.1215 29.3552 27.0791C29.3097 26.9041 29.2869 26.7236 29.2873 26.5423C29.2873 26.419 29.2246 26.3405 29.1192 26.2957C29.0647 26.2749 29.0067 26.2657 28.9487 26.2687C28.8701 26.2711 28.7913 26.2688 28.7129 26.262C28.6233 26.2525 28.5443 26.2183 28.5013 26.1271C28.4964 26.1168 28.4847 26.1101 28.4712 26.0966C28.4523 26.1149 28.4339 26.1311 28.4173 26.1506C28.3999 26.1691 28.3788 26.1835 28.3555 26.1928C28.3322 26.2021 28.3073 26.2061 28.2824 26.2045C28.2536 26.2045 28.2248 26.1986 28.1958 26.1967C28.109 26.191 28.0222 26.1848 27.9367 26.1813C27.9139 26.1789 27.8909 26.1819 27.8694 26.1902C27.8479 26.1984 27.8284 26.2118 27.8126 26.2291C27.7414 26.3127 27.6468 26.337 27.5455 26.3472C27.463 26.3513 27.3823 26.3747 27.3095 26.4155C27.2546 26.4487 27.1839 26.4546 27.1196 26.4694C27.0875 26.4764 27.053 26.4713 27.0209 26.4781C26.9965 26.4807 26.9735 26.4915 26.9554 26.5088C26.9178 26.5587 26.8662 26.5695 26.8126 26.5757C26.7305 26.5854 26.6481 26.5965 26.5654 26.5992C26.3088 26.6103 26.0518 26.6022 25.7962 26.5749C25.7185 26.5657 25.6408 26.5479 25.5631 26.5323C25.5009 26.5196 25.4732 26.4754 25.4685 26.4128C25.4669 26.3915 25.4685 26.3699 25.4685 26.3483V25.8821C25.4685 25.74 25.4706 25.5975 25.4685 25.4551C25.4685 25.3855 25.4887 25.3396 25.5568 25.3202C25.7615 25.2635 25.8706 25.1238 25.8872 24.9042C25.8882 24.8801 25.8972 24.8571 25.9125 24.839C25.9279 24.8209 25.9488 24.8089 25.9716 24.8049C26.0122 24.7966 26.0532 24.7911 26.0944 24.7884C26.1602 24.7825 26.2263 24.7793 26.2924 24.7733C26.3153 24.7728 26.3373 24.7635 26.3541 24.7471C26.3708 24.7307 26.3811 24.7084 26.383 24.6846C26.4063 24.5441 26.4114 24.401 26.3983 24.2591C26.3975 24.2506 26.3957 24.2422 26.3932 24.234C26.3918 24.2266 26.389 24.2195 26.385 24.2132C26.381 24.2069 26.3758 24.2014 26.3698 24.1972C26.3637 24.193 26.3569 24.1901 26.3498 24.1886C26.3426 24.1872 26.3353 24.1872 26.3281 24.1887C26.2812 24.1928 26.2577 24.2119 26.2543 24.2586C26.2494 24.3317 26.2509 24.4054 26.2463 24.4785C26.2346 24.6633 26.2235 24.6722 26.045 24.6673C25.9962 24.6673 25.9462 24.65 25.9006 24.6746C25.8946 24.6818 25.8893 24.6895 25.8848 24.6978C25.8589 24.7696 25.8094 24.7949 25.7387 24.7903C25.7056 24.7894 25.6724 24.7919 25.6398 24.7979C25.6126 24.7998 25.5869 24.8109 25.5663 24.8294C25.5458 24.848 25.5317 24.873 25.526 24.9007C25.5125 24.9592 25.4978 25.0178 25.4864 25.0768C25.4765 25.1276 25.4719 25.1791 25.4625 25.2301C25.4532 25.2811 25.4348 25.2975 25.3877 25.2997C25.3299 25.3024 25.2719 25.3024 25.2138 25.3026C25.127 25.3026 25.04 25.3026 24.9532 25.3026C24.9404 25.2999 24.9282 25.295 24.9169 25.2881C24.9019 25.2546 24.8866 25.2206 24.87 25.1845C24.7589 25.1675 24.6514 25.178 24.5441 25.1767C24.4905 25.1767 24.4363 25.1791 24.3827 25.1748C24.3702 25.175 24.3577 25.1726 24.3461 25.1677C24.3345 25.1629 24.3239 25.1556 24.315 25.1465C24.3061 25.1373 24.299 25.1264 24.2943 25.1143C24.2895 25.1023 24.287 25.0893 24.2871 25.0763C24.2845 25.0464 24.2871 25.0159 24.2871 24.9857C24.2871 24.9209 24.29 24.8562 24.2871 24.7917C24.283 24.7569 24.2764 24.7226 24.2672 24.6889C24.1329 24.6803 23.9982 24.6825 23.8643 24.6954C23.8477 24.6971 23.8317 24.7023 23.8171 24.7107C23.6697 24.7949 23.5114 24.7712 23.3552 24.7601C23.3321 24.7602 23.3094 24.7534 23.2898 24.7405C23.2702 24.7277 23.2545 24.7093 23.2446 24.6875C23.2117 24.6082 23.1487 24.5856 23.0749 24.5796C23.0334 24.5767 22.992 24.5772 22.9508 24.5737C22.8762 24.5675 22.8554 24.5467 22.851 24.4709C22.8492 24.4407 22.851 24.4105 22.851 24.3803C22.8481 24.3556 22.8439 24.3311 22.8386 24.3069C22.8259 24.3012 22.8124 24.2973 22.7987 24.2953C22.6282 24.3028 22.5137 24.4229 22.5062 24.5982C22.5062 24.6112 22.5062 24.6252 22.5062 24.6371C22.5075 24.7523 22.4443 24.8216 22.3508 24.8621C22.3078 24.8778 22.2628 24.8869 22.2173 24.8891C22.1764 24.8931 22.1347 24.8891 22.0932 24.8891C21.9849 24.8891 21.9461 24.9144 21.9044 25.0191C21.8746 25.0906 21.8595 25.1678 21.8603 25.2457C21.8619 25.3191 21.8619 25.3925 21.8676 25.4656C21.8731 25.5105 21.869 25.5561 21.8556 25.5992C21.8421 25.6422 21.8197 25.6817 21.7898 25.7146C21.7603 25.7507 21.7327 25.7885 21.7072 25.8279C21.6709 25.8756 21.6515 25.9349 21.6523 25.9957C21.6521 26.0474 21.6465 26.0988 21.6354 26.1492C21.6031 26.3011 21.4872 26.4041 21.3455 26.4017C21.2588 26.4029 21.1722 26.3965 21.0864 26.3828C20.8952 26.3459 20.7048 26.3019 20.5165 26.2563C20.4003 26.2247 20.2805 26.2102 20.1605 26.2131C20.0737 26.2172 19.9867 26.2131 19.8996 26.2091C19.7677 26.2042 19.6465 26.1748 19.5571 26.0594C19.536 26.0324 19.5087 26.0114 19.4778 25.9981C19.447 25.9849 19.4134 25.9798 19.3802 25.9833C19.3059 25.9876 19.2314 25.9886 19.1566 25.9863C19.0943 25.9844 19.0329 26.0024 18.9807 26.0378C18.7844 26.1583 18.5955 26.2914 18.4151 26.4362C18.3836 26.4636 18.3488 26.4865 18.3115 26.5042C18.2223 26.5447 18.1501 26.5201 18.0975 26.4344C18.0604 26.3817 18.0388 26.319 18.0353 26.2539C18.0345 26.1936 18.0164 26.1349 17.9835 26.0853C17.9561 26.0371 17.9314 25.9873 17.9096 25.9361C17.8319 25.765 17.7542 25.5929 17.6741 25.4235C17.6345 25.3383 17.5923 25.2538 17.5469 25.1715C17.4648 25.0218 17.3298 24.9525 17.1744 24.9187C17.1496 24.9181 17.1249 24.9214 17.101 24.9285C17.0972 24.9684 17.0917 25.0021 17.0907 25.0364C17.0889 25.0968 17.0907 25.1572 17.0891 25.2177C17.0883 25.3213 17.0726 25.4242 17.0425 25.523C17.0029 25.6466 16.9212 25.717 16.7958 25.7246C16.7097 25.7325 16.6231 25.7338 16.5368 25.7283C16.3471 25.7103 16.1585 25.6838 15.9696 25.6596C15.8919 25.6496 15.8142 25.6364 15.7365 25.6242C15.6853 25.6137 15.6322 25.6189 15.5838 25.6392C15.5354 25.6594 15.4937 25.6939 15.4637 25.7383C15.446 25.7623 15.4269 25.785 15.408 25.8079C15.3885 25.8334 15.3633 25.8533 15.3344 25.8659C15.3056 25.8784 15.2742 25.8832 15.2432 25.8797C15.2103 25.8767 15.1771 25.8727 15.144 25.8724C15.0517 25.8724 15.0144 25.9015 15.003 25.9976C14.9924 26.0785 14.9916 26.1595 14.9823 26.2423C14.9765 26.3065 14.9659 26.3702 14.9504 26.4327C14.9392 26.479 14.9159 26.5211 14.8831 26.5544C14.8503 26.5878 14.8093 26.611 14.7647 26.6216C14.7047 26.6381 14.6434 26.6487 14.5815 26.6532C14.3784 26.6658 14.1748 26.6399 13.9807 26.5765C13.9293 26.5604 13.8764 26.55 13.8229 26.5455C13.7613 26.5396 13.6988 26.5439 13.6369 26.5412C13.5418 26.5369 13.4465 26.5334 13.3519 26.5245C13.3062 26.5207 13.2621 26.5055 13.2233 26.4802C13.1845 26.4548 13.1522 26.42 13.1291 26.3788C13.0885 26.3181 13.0679 26.2455 13.0703 26.1716C13.0714 26.1199 13.0776 26.0684 13.089 26.0181C13.119 25.9069 13.111 25.8096 13.0327 25.7194C12.983 25.662 12.9744 25.5878 12.9908 25.5114C13.0006 25.4653 13.0092 25.4186 13.019 25.3725C13.0352 25.3051 13.0344 25.2345 13.0167 25.1675C12.9991 25.1005 12.9651 25.0394 12.9182 24.99C12.856 24.9206 12.7941 24.8508 12.7325 24.7812C12.6734 24.7199 12.6274 24.6464 12.5975 24.5653C12.5735 24.5006 12.5358 24.4424 12.4871 24.3951C12.4141 24.3185 12.3332 24.3385 12.2729 24.3811C12.2322 24.4116 12.2037 24.4566 12.1928 24.5076C12.1754 24.5695 12.1546 24.6303 12.1304 24.6897C12.0837 24.8103 11.9905 24.8651 11.8713 24.8839C11.7966 24.8948 11.7206 24.8779 11.6568 24.8362C11.6068 24.806 11.5601 24.7698 11.5125 24.7356C11.4394 24.683 11.371 24.6638 11.2837 24.7175C11.1702 24.7871 11.0505 24.7461 10.9863 24.6279C10.9639 24.5866 10.947 24.5423 10.936 24.4963C10.9222 24.4415 10.8887 24.3944 10.8425 24.3646C10.8254 24.3528 10.8085 24.3401 10.7907 24.329C10.7281 24.2903 10.6741 24.2382 10.6323 24.1762C10.5905 24.1142 10.5618 24.0436 10.5482 23.9691C10.5366 23.9187 10.5279 23.8677 10.5223 23.8162C10.5034 23.6514 10.5478 23.4856 10.6458 23.3548C10.6686 23.3244 10.694 23.2958 10.7197 23.2677C10.7371 23.2493 10.7507 23.2273 10.7596 23.2032C10.7685 23.179 10.7725 23.1533 10.7715 23.1274C10.7715 23.0756 10.7741 23.0238 10.7754 22.972C10.7758 22.9267 10.7849 22.8818 10.8021 22.8402C10.8193 22.7985 10.8443 22.7608 10.8756 22.7292C11.1287 22.4561 11.4063 22.2088 11.7047 21.9908C11.8168 21.9098 11.9388 21.8447 12.0674 21.7974C12.1216 21.7767 12.1784 21.7644 12.2361 21.761C12.2609 21.7608 12.2853 21.7549 12.3077 21.7437C12.3301 21.7326 12.3499 21.7165 12.3656 21.6965C12.4813 21.5669 12.5799 21.4217 12.6586 21.2649C12.6768 21.2262 12.6909 21.1856 12.7006 21.1437C12.7067 21.119 12.7067 21.093 12.7006 21.0682C12.6747 20.977 12.6459 20.8875 12.62 20.7965C12.6128 20.7648 12.5966 20.7361 12.5735 20.7142C12.5504 20.6923 12.5215 20.6781 12.4905 20.6735C12.3907 20.6514 12.3868 20.6417 12.3995 20.5319C12.3995 20.5276 12.4016 20.5235 12.4021 20.5192C12.4063 20.4706 12.3801 20.4453 12.3361 20.4539C12.3092 20.4589 12.2837 20.4699 12.2614 20.4862C12.239 20.5024 12.2203 20.5235 12.2065 20.5481C12.1672 20.6089 12.1332 20.6733 12.105 20.7404C12.0568 20.8661 11.9651 20.9023 11.8459 20.8942C11.8335 20.8939 11.8211 20.8926 11.8088 20.8902C11.7389 20.8745 11.691 20.9061 11.6487 20.9619C11.6102 21.0128 11.5677 21.0601 11.5215 21.1035C11.3762 21.2384 11.2106 21.2751 11.0262 21.202C10.9727 21.1798 10.9208 21.1537 10.8707 21.1241C10.8021 21.0844 10.737 21.0375 10.6676 20.9991C10.5738 20.9445 10.4772 20.8952 10.3782 20.8516C10.0523 20.7167 9.71212 20.649 9.3634 20.6185C9.13226 20.5979 8.90018 20.5911 8.66829 20.598C8.58074 20.6027 8.4947 20.5728 8.42735 20.5143C8.38227 20.4763 8.33823 20.4372 8.296 20.3956C8.23734 20.3349 8.1633 20.2928 8.08252 20.2742C7.85427 20.2219 7.72758 20.0649 7.69597 19.8259C7.67594 19.6936 7.67168 19.5592 7.68328 19.4258C7.69468 19.3144 7.70167 19.2024 7.71048 19.0907C7.71164 19.0778 7.71216 19.0648 7.71204 19.0519C7.71204 19.0165 7.68613 18.992 7.65581 19.0049C7.6016 19.0258 7.54953 19.0523 7.50037 19.084C7.45637 19.116 7.40472 19.1347 7.35114 19.1379L7.28663 19.1401C7.272 19.1388 7.2573 19.1413 7.24377 19.1472C7.23024 19.1531 7.21828 19.1623 7.2089 19.1741C7.15372 19.2529 7.07548 19.2693 6.98869 19.265C6.90592 19.2599 6.82309 19.274 6.74619 19.3063C6.69256 19.3306 6.63342 19.3387 6.57559 19.3295C6.51775 19.3204 6.46356 19.2945 6.41923 19.2548C6.37923 19.2241 6.3414 19.1904 6.30602 19.1541C6.28379 19.1286 6.2561 19.1088 6.22518 19.0964C6.19426 19.084 6.16098 19.0794 6.12803 19.0829C6.04538 19.0878 5.96248 19.0907 5.87983 19.088C5.75444 19.084 5.70029 19.0362 5.6692 18.9113C5.66013 18.8746 5.6521 18.8379 5.64537 18.8077C5.59718 18.7783 5.55572 18.7975 5.51583 18.7978C5.45365 18.7978 5.39147 18.8018 5.32981 18.7978C5.30456 18.7973 5.28021 18.7879 5.26076 18.7712C5.24131 18.7544 5.22793 18.7312 5.22281 18.7055C5.20804 18.6429 5.19146 18.5803 5.18187 18.5166C5.16515 18.3929 5.13917 18.2706 5.10415 18.1511C5.0835 18.0766 5.06715 18.0008 5.05518 17.9242C5.04404 17.8659 5.03679 17.8066 5.02565 17.7329C4.99093 17.7677 4.96269 17.7915 4.93938 17.8198C4.81476 17.9717 4.50827 17.9167 4.47925 17.673C4.47355 17.6261 4.4663 17.5792 4.45619 17.533C4.42821 17.4081 4.38495 17.2902 4.2694 17.2263C4.19867 17.1872 4.16939 17.1303 4.15644 17.0534C4.13053 16.9028 4.14116 16.7534 4.15333 16.6023C4.15598 16.5504 4.17191 16.5001 4.19947 16.4568C4.22702 16.4134 4.26521 16.3785 4.31007 16.3557C4.37574 16.3196 4.44532 16.2918 4.51734 16.2729C4.60905 16.2478 4.70413 16.2357 4.7974 16.2165C4.86243 16.2033 4.92979 16.1912 4.9829 16.1475C5.09353 16.0568 5.20182 15.9632 5.3096 15.869C5.36289 15.8198 5.39607 15.7511 5.40235 15.6772C5.41686 15.5693 5.43707 15.4649 5.45235 15.3581C5.46743 15.2199 5.524 15.0902 5.61402 14.9874C5.66161 14.9328 5.69104 14.8636 5.69796 14.7902C5.72277 14.6063 5.76539 14.4256 5.82517 14.2506C5.83722 14.2184 5.84591 14.185 5.85107 14.1508C5.86597 14.0222 5.86597 13.8921 5.85107 13.7634C5.84523 13.7357 5.837 13.7086 5.82646 13.6825C5.73838 13.6809 5.6521 13.6763 5.56557 13.6784C5.13084 13.689 4.6961 13.6992 4.26163 13.7143C4.17069 13.7176 4.10748 13.6817 4.06887 13.6032C4.04233 13.5496 4.02398 13.4921 4.01447 13.4327C4.00022 13.3393 3.99814 13.2438 3.98856 13.1497C3.98415 13.1035 3.99737 13.0539 3.96265 13.0089C3.94345 13.0054 3.92407 13.0032 3.90462 13.0021C3.86731 13.0021 3.83 13.0067 3.79295 13.0053C3.71523 13.0021 3.68751 12.9762 3.67533 12.9001C3.66954 12.8661 3.66685 12.8316 3.6673 12.7971C3.67006 12.5471 3.67361 12.2969 3.67792 12.0466C3.68155 11.8224 3.68544 11.5979 3.69165 11.3737C3.69407 11.348 3.68877 11.322 3.67648 11.2995C3.66418 11.277 3.6455 11.259 3.623 11.248C3.55719 11.2116 3.49165 11.1746 3.42791 11.1342C3.34806 11.0876 3.27982 11.0222 3.22868 10.9432C3.21884 10.9267 3.21702 10.8995 3.18179 10.9019C3.14163 10.9761 3.07531 11.0098 2.99059 11.0147C2.96184 11.0183 2.93441 11.0293 2.91079 11.0468C2.85737 11.0805 2.79548 11.0969 2.73306 11.0937C2.42683 11.0913 2.12034 11.0937 1.81385 11.0867C1.71861 11.0836 1.62375 11.0727 1.53016 11.054C1.3343 11.0182 1.28585 10.9753 1.23481 10.7748C1.20012 10.6372 1.17313 10.4976 1.15398 10.3567C1.1089 10.0281 1.07289 9.69814 1.02755 9.36928C1.01019 9.24167 0.97962 9.11596 0.951121 8.99024C0.944171 8.95622 0.928433 8.92482 0.905604 8.89944C0.882776 8.87405 0.853724 8.85563 0.821582 8.84618C0.75474 8.82379 0.689711 8.79546 0.623905 8.76983C0.562762 8.74609 0.529341 8.70428 0.534523 8.63251C0.539704 8.56075 0.541518 8.49466 0.544627 8.42586C0.549549 8.30959 0.555249 8.19331 0.559135 8.07677C0.560002 8.04233 0.558269 8.00787 0.553954 7.97372C0.547218 7.91976 0.525714 7.89278 0.47623 7.88847C0.410683 7.88361 0.3441 7.88847 0.278035 7.88847C0.232696 7.88847 0.187098 7.89737 0.14176 7.89575C0.0762129 7.89359 0.0505641 7.87282 0.0399418 7.80591C0.0257033 7.72094 0.016102 7.63519 0.0111841 7.54908C-0.00254706 7.26905 -0.00306523 6.98876 0.00652068 6.70846C0.014034 6.49263 0.0251743 6.27681 0.0368328 6.06099C0.0397052 6.00499 0.0468962 5.94933 0.0583364 5.89454C0.0883895 5.75371 0.182694 5.67197 0.320265 5.66657C0.390734 5.66388 0.461204 5.66657 0.531414 5.66657H0.969775C0.98902 5.63791 1.01089 5.61126 1.03506 5.58699C1.0806 5.54324 1.13137 5.5058 1.18611 5.47557C1.39596 5.37548 1.57628 5.42836 1.70841 5.59994C1.75913 5.66833 1.79846 5.74512 1.82473 5.82709C1.83457 5.85265 1.84564 5.87769 1.8579 5.90209C2.1377 5.92124 2.26491 5.91693 2.36491 5.88321C2.36932 5.84921 2.37657 5.81144 2.37864 5.77368C2.38668 5.6315 2.39471 5.48933 2.39937 5.34716C2.40066 5.28665 2.41356 5.22703 2.43732 5.1718C2.46108 5.11658 2.49522 5.06686 2.53772 5.02558C2.56289 4.99679 2.59474 4.97522 2.63021 4.96294C2.66569 4.95065 2.70361 4.94807 2.74032 4.95544C2.81364 4.96974 2.88721 4.98242 2.96079 4.99321C3.01633 5.00489 3.07358 5.00443 3.12894 4.99186C3.14992 4.94384 3.17505 4.89447 3.19371 4.84294C3.2292 4.74474 3.21832 4.70374 3.14189 4.63899C3.10976 4.61201 3.07453 4.58854 3.04266 4.56102C2.9582 4.48791 2.94136 4.42802 2.97867 4.32146C2.99551 4.2729 3.02012 4.22758 3.03981 4.1801C3.05588 4.14098 3.07893 4.1024 3.05613 4.05033C3.01183 4.03361 2.96235 4.04548 2.91338 4.04629C2.83903 4.04764 2.76415 4.05303 2.69032 4.04764C2.64224 4.04529 2.59593 4.02807 2.55731 3.99818C2.51868 3.96829 2.48949 3.92709 2.47347 3.87983C2.46196 3.85216 2.45235 3.82367 2.44471 3.79458C2.39753 3.60577 2.3986 3.40739 2.44782 3.21915C2.46077 3.17369 2.47877 3.12996 2.50145 3.08884C2.51543 3.05967 2.53633 3.03469 2.56217 3.01628C2.58801 2.99787 2.61794 2.98663 2.64912 2.98363C2.72703 2.97215 2.80547 2.96494 2.88411 2.96205C3.11572 2.96205 3.3476 2.9696 3.57947 2.97311C3.71627 2.97527 3.8528 2.97689 3.98959 2.97716C4.04656 2.98156 4.10355 2.96892 4.15385 2.94074C4.16266 2.89568 4.17302 2.84577 4.18235 2.79559C4.18883 2.7616 4.19271 2.72734 4.19945 2.69389C4.2056 2.65536 4.2224 2.61952 4.2478 2.59078C4.2732 2.56203 4.30609 2.54161 4.34246 2.53202C4.39427 2.51664 4.44609 2.50073 4.49791 2.48994C4.64351 2.45999 4.79222 2.443 4.92176 2.35505C4.94304 2.34108 4.96763 2.33354 4.99279 2.33325C5.01794 2.33297 5.04268 2.33995 5.06425 2.35343C5.11218 2.37879 5.16063 2.40307 5.20882 2.42789C5.31642 2.48346 5.42394 2.53904 5.53137 2.59461C5.65465 2.65681 5.78949 2.69023 5.92647 2.69254C6.39281 2.70765 6.86174 2.72572 7.32938 2.74407C7.83441 2.76403 8.33918 2.78498 8.84369 2.80693C8.95535 2.81178 9.06676 2.8223 9.17816 2.83202C9.27583 2.84038 9.33983 2.89272 9.36366 2.99388C9.37066 3.02302 9.37454 3.05323 9.3805 3.08264C9.38542 3.10638 9.3919 3.13012 9.39708 3.1517C9.53569 3.1571 9.59009 3.12149 9.62663 2.99928C9.64005 2.95398 9.64874 2.90731 9.65253 2.86007C9.65711 2.79562 9.65832 2.73096 9.65616 2.66637C9.65279 2.54119 9.67818 2.42654 9.75979 2.32996C9.78327 2.30249 9.80116 2.27035 9.81238 2.23548C9.8236 2.20061 9.82792 2.16374 9.82508 2.12708C9.82508 2.1055 9.82508 2.08392 9.82508 2.06234C9.82923 1.8681 9.83441 1.67413 9.83674 1.47989C9.83669 1.44978 9.8424 1.41997 9.85352 1.39218C9.86464 1.3644 9.88095 1.33919 9.90151 1.31802C9.94109 1.27039 9.99257 1.2351 10.0502 1.21605C10.1079 1.197 10.1695 1.19495 10.2282 1.21011C10.2581 1.21915 10.2898 1.21996 10.3201 1.21244C10.3503 1.20492 10.3782 1.18934 10.401 1.16721C10.4348 1.13491 10.4783 1.11584 10.5241 1.11326C10.6601 1.09842 10.7956 1.08196 10.922 1.02072C10.9445 1.00938 10.9693 1.00357 10.9943 1.00373C11.0394 1.00356 11.0843 1.00945 11.128 1.02126C11.155 1.02804 11.1792 1.04393 11.1967 1.06647C11.2141 1.08901 11.224 1.11694 11.2246 1.1459C11.2347 1.28079 11.2329 1.41217 11.1896 1.54194C11.1691 1.60294 11.1558 1.66638 11.1503 1.73078C11.1264 1.99285 11.1187 2.25625 11.1275 2.51934C11.1298 2.57114 11.1358 2.6224 11.1417 2.67393C11.1433 2.70025 11.1535 2.72524 11.1705 2.74482C11.1874 2.76441 11.2103 2.77745 11.2352 2.78184C11.271 2.79175 11.3082 2.79423 11.3448 2.78912C11.4094 2.77455 11.473 2.75581 11.5353 2.73301C11.649 2.69389 11.7607 2.64722 11.8757 2.61269C12.0109 2.56932 12.1542 2.56071 12.2933 2.5876C12.3382 2.59385 12.3838 2.5912 12.4278 2.57977C12.5085 2.55986 12.5846 2.52315 12.6514 2.47186C12.8022 2.36484 12.9372 2.23531 13.0519 2.08743C13.1099 2.01432 13.1667 1.93986 13.2278 1.86972C13.2796 1.80902 13.3374 1.75209 13.3947 1.69571C13.4853 1.60695 13.5892 1.55408 13.719 1.56082C13.8275 1.56279 13.9337 1.52908 14.0227 1.46451C14.0711 1.43187 14.1167 1.3941 14.1628 1.35795C14.2486 1.2905 14.3338 1.22306 14.4198 1.1548C14.4761 1.11083 14.5336 1.06875 14.5895 1.02423C14.6185 1.00306 14.6413 0.973909 14.6553 0.940036C14.6693 0.906162 14.674 0.868903 14.6688 0.83242C14.6638 0.772316 14.6619 0.711985 14.6629 0.651668C14.6629 0.574242 14.6963 0.521366 14.7714 0.499514C14.8232 0.484137 14.8735 0.464173 14.924 0.445558C14.9514 0.435493 14.9765 0.419829 14.9979 0.399489C15.0194 0.379149 15.0367 0.354544 15.0489 0.327125C15.076 0.2689 15.1065 0.212416 15.1401 0.157975C15.1754 0.0989112 15.2272 0.0525021 15.2885 0.0249744C15.3963 -0.0230461 15.4914 -0.00200359 15.5689 0.089721C15.5927 0.1196 15.6145 0.151148 15.6341 0.184143C15.66 0.223801 15.6818 0.265076 15.7059 0.305003C15.8013 0.468078 15.9397 0.599174 16.1046 0.682693C16.2645 0.763626 16.4212 0.852114 16.5811 0.933857C16.7 0.994557 16.8207 1.05121 16.9417 1.10732C17.0327 1.14917 17.1297 1.17506 17.2288 1.18394C17.3894 1.19959 17.5492 1.2236 17.7091 1.24518C17.9228 1.27432 18.0993 1.38007 18.2547 1.53115C18.3211 1.59021 18.3725 1.66547 18.4042 1.7502C18.4309 1.81813 18.4688 1.88067 18.5161 1.935C18.5734 2.00811 18.6252 2.08635 18.6773 2.16377C18.7032 2.20262 18.7244 2.24471 18.7488 2.28491C18.8156 2.39576 18.9194 2.47703 19.0402 2.51314C19.0836 2.52787 19.1279 2.53905 19.1729 2.54659C19.3408 2.57357 19.5081 2.60648 19.6771 2.61862C20.0162 2.64263 20.3507 2.69955 20.6875 2.74002C20.8971 2.76565 21.1077 2.78804 21.3183 2.79398C21.4429 2.79802 21.5559 2.82095 21.6598 2.89056C21.771 2.96659 21.898 3.01385 22.0303 3.02841C22.0562 3.03084 22.0798 3.03489 22.1041 3.03947C22.2431 3.06245 22.3805 3.09508 22.5153 3.13713C22.6492 3.18165 22.7194 3.27634 22.7448 3.41447C22.7495 3.43983 22.7515 3.46572 22.7552 3.49135C22.7606 3.52966 22.7679 3.56797 22.772 3.60655C22.7737 3.6282 22.7818 3.64878 22.7952 3.66549C22.8085 3.68219 22.8265 3.6942 22.8466 3.69989C22.9052 3.7212 22.9643 3.74117 23.022 3.76464C23.1223 3.8051 23.2225 3.84557 23.3213 3.88981C23.4332 3.9392 23.5242 4.02908 23.5775 4.14287C23.6108 4.2074 23.6407 4.27377 23.6671 4.34169C23.7046 4.44707 23.7638 4.54265 23.8405 4.62172C23.9013 4.6862 23.9555 4.75661 24.0135 4.82514C24.0749 4.89633 24.112 4.98659 24.1192 5.08196C24.1262 5.15912 24.1366 5.23628 24.1428 5.31343C24.1427 5.37012 24.164 5.42459 24.2021 5.46505C24.2166 5.4805 24.228 5.49878 24.2356 5.51883C24.2432 5.53887 24.247 5.5603 24.2467 5.58186C24.2532 5.66792 24.263 5.75371 24.2682 5.83977C24.2734 5.94776 24.3106 6.05143 24.3747 6.13653C24.5452 6.3705 24.7417 6.58259 24.9602 6.76835C25.0498 6.84515 25.1477 6.91087 25.2519 6.96421C25.4957 7.08453 25.7442 7.19163 26.0133 7.23398C26.0628 7.24143 26.1103 7.25938 26.1528 7.28671C26.1953 7.31404 26.232 7.35018 26.2605 7.39288C26.297 7.44495 26.3325 7.4981 26.3683 7.55097C26.4926 7.73604 26.5395 7.76545 26.7569 7.77651C26.9678 7.78703 27.1789 7.79215 27.3901 7.80025C27.5455 7.80618 27.5867 7.7846 27.672 7.97291C27.6901 8.01676 27.7209 8.05363 27.7601 8.07839C27.9523 8.1952 28.1502 8.28882 28.3818 8.26723C28.4943 8.25878 28.6066 8.28436 28.7054 8.34088C28.7751 8.37811 28.8422 8.42182 28.9091 8.46417C28.9644 8.50211 29.0278 8.52536 29.0938 8.53189C29.1678 8.54047 29.2413 8.5539 29.3137 8.57208C29.4955 8.61668 29.6688 8.69244 29.8267 8.79627C30.1065 8.97297 30.3835 9.15426 30.6625 9.33205C30.7361 9.38011 30.8122 9.4238 30.8905 9.46289C31.1042 9.5673 31.3203 9.66603 31.5346 9.76909C31.7677 9.88105 32.0009 9.9922 32.2317 10.1093C32.3468 10.1678 32.4525 10.2469 32.5686 10.3024C32.8743 10.4484 33.1626 10.6262 33.4515 10.8037C33.7064 10.9649 33.9708 11.109 34.2432 11.2353C34.323 11.2713 34.4016 11.31 34.479 11.3513C34.6222 11.429 34.7644 11.5084 34.9057 11.5896C34.9824 11.6331 35.0494 11.6931 35.1023 11.7654C35.3614 12.1234 35.6205 12.4816 35.8796 12.8402C35.9357 12.9159 35.9692 13.0071 35.976 13.1025C35.9803 13.1317 35.9874 13.1605 35.9972 13.1883V13.4478C35.9887 13.4625 35.9827 13.4785 35.9793 13.4953C35.9741 13.6175 35.9205 13.7194 35.8537 13.8136C35.792 13.8999 35.7223 13.9801 35.657 14.0637C35.6026 14.1287 35.5514 14.1965 35.5037 14.2668C35.4042 14.4257 35.4024 14.5946 35.5262 14.7441C35.5342 14.7538 35.5412 14.7646 35.5495 14.7743C35.6645 14.9059 35.679 15.0565 35.6319 15.2213C35.5909 15.3572 35.5338 15.4872 35.4619 15.6084C35.3623 15.7826 35.249 15.948 35.1233 16.1029C34.8674 16.4199 34.6256 16.7488 34.3811 17.0741C34.2536 17.2438 34.1204 17.4095 33.9805 17.5684C33.8445 17.7224 33.8313 17.741 33.5727 17.7103C33.5564 17.7081 33.5404 17.7027 33.524 17.7C33.479 17.6927 33.4339 17.6865 33.3891 17.6787C33.3687 17.6742 33.3475 17.6756 33.3278 17.6826C33.3081 17.6897 33.2906 17.7021 33.2771 17.7186C33.266 17.7316 33.2564 17.7456 33.2453 17.7583C33.1629 17.8541 33.0668 17.8951 32.9458 17.8411C32.9192 17.8292 32.8912 17.821 32.8626 17.8168C32.7934 17.8077 32.7419 17.8438 32.7072 17.918C32.6789 17.9768 32.6937 18.0259 32.7331 18.0715C32.7557 18.0969 32.78 18.1205 32.8059 18.1422C32.8968 18.2169 32.9095 18.3124 32.8779 18.4211C32.8585 18.4874 32.8254 18.5484 32.781 18.6C32.7551 18.6324 32.7235 18.6621 32.6955 18.6939C32.6749 18.7151 32.656 18.738 32.639 18.7624C32.5872 18.8433 32.6224 18.9205 32.7131 18.9321C32.742 18.935 32.771 18.9357 32.7999 18.934C32.8908 18.9308 32.9813 18.9264 33.073 18.9227C33.2343 18.9134 33.396 18.9163 33.5569 18.9313C33.6149 18.9351 33.6701 18.9587 33.7139 18.9985C33.9842 19.2477 34.1002 19.5504 34.0168 19.9257C33.9727 20.1143 33.9042 20.2958 33.8132 20.4653C33.782 20.5259 33.7539 20.5882 33.729 20.6519C33.6898 20.7614 33.6302 20.8617 33.5536 20.9471C33.3981 21.1089 33.2168 21.226 32.9976 21.2676C32.8103 21.3029 32.6219 21.3315 32.4351 21.3701C32.3177 21.395 32.2017 21.4267 32.0877 21.465C32.0373 21.484 31.9907 21.5124 31.9501 21.549C31.9397 21.558 31.9311 21.5692 31.925 21.5819C31.9188 21.5945 31.9153 21.6084 31.9145 21.6225C31.9138 21.6367 31.9158 21.6508 31.9206 21.6641C31.9253 21.6774 31.9327 21.6895 31.9421 21.6998C31.9636 21.7259 31.9901 21.7472 32.0198 21.7623C32.0649 21.7838 32.1119 21.8004 32.1602 21.8117C32.3186 21.8455 32.48 21.8608 32.6416 21.8573C32.8362 21.8573 33.0302 21.8573 33.2253 21.8573C33.6398 21.8603 34.0544 21.8573 34.4671 21.8867C34.5412 21.8921 34.615 21.9032 34.6889 21.9137C34.7035 21.9153 34.7173 21.9217 34.7282 21.932C34.7392 21.9422 34.7467 21.9559 34.7497 21.9709C34.7615 22.0122 34.7697 22.0545 34.7741 22.0974C34.7898 22.2567 34.7786 22.4176 34.7409 22.5728C34.7084 22.702 34.6938 22.8355 34.6977 22.9691C34.6992 23.1849 34.7034 23.4007 34.7023 23.6165C34.7023 23.6975 34.6904 23.7784 34.6831 23.8612C34.6816 23.8784 34.6787 23.8953 34.6743 23.9119C34.6628 23.965 34.6339 24.0121 34.5926 24.0454C34.5512 24.0786 34.5001 24.0958 34.4479 24.094C34.4002 24.0919 34.3497 24.0749 34.2989 24.1048C34.2928 24.1339 34.2884 24.1634 34.2857 24.193C34.2842 24.2578 34.2834 24.3225 34.2857 24.387C34.2971 24.6241 34.3116 24.8607 34.3223 25.0976C34.3264 25.1839 34.3311 25.2703 34.3287 25.3563C34.3246 25.5085 34.2528 25.5824 34.1059 25.594L34.08 25.5956C33.5791 25.6212 33.0782 25.6287 32.5774 25.6183C32.5403 25.6183 32.5027 25.6161 32.466 25.6118C32.3665 25.6002 32.338 25.5759 32.3178 25.4702C32.3034 25.3985 32.2948 25.3256 32.2919 25.2525C32.2877 25.1273 32.2919 25.0021 32.2893 24.8772C32.2893 24.8265 32.2994 24.7733 32.2652 24.7234C32.2466 24.717 32.2277 24.7118 32.2084 24.708C31.9825 24.6759 31.7535 24.6759 31.5276 24.708C31.441 24.7202 31.4289 24.7399 31.4462 24.827C31.4511 24.8524 31.4592 24.8769 31.4664 24.9017C31.4878 24.976 31.5095 25.0502 31.5315 25.1243C31.574 25.2644 31.5916 25.4114 31.5833 25.5581C31.5768 25.6612 31.5776 25.765 31.5781 25.8684C31.5799 26.2479 31.5841 26.6275 31.5851 27.0074C31.5851 27.3311 31.3395 27.5137 31.0452 27.4096C31.0372 27.4074 31.0293 27.4047 31.0216 27.4015C30.9913 27.3875 30.9612 27.3727 30.9309 27.3592C30.8682 27.3322 30.8446 27.3387 30.8058 27.398C30.7918 27.4193 30.7799 27.4428 30.7685 27.4652C30.7351 27.5245 30.7042 27.586 30.6674 27.6432C30.6285 27.7073 30.5773 27.7623 30.517 27.8047C30.4566 27.8472 30.3885 27.8761 30.3169 27.8898C30.2454 27.9024 30.1806 27.941 30.134 27.9988Z" fill="white"/>
</svg>
