<svg width="34" height="34" viewBox="0 0 34 34" fill="none" xmlns="http://www.w3.org/2000/svg">
<path d="M16.9965 15.2805C13.4943 15.2805 10.6289 12.4151 10.6289 8.91289V6.62929C10.6289 3.12709 13.4943 0.261719 16.9965 0.261719C20.4987 0.261719 23.3641 3.12709 23.3641 6.62929V8.91289C23.3641 12.4151 20.4987 15.2805 16.9965 15.2805Z" fill="white"/>
<path d="M18.0681 20.2273L17.8304 18.8826L18.2459 18.1628L19.0178 16.8255C19.229 16.4595 18.9649 16.002 18.5424 16.002H16.9986H15.4545C15.032 16.002 14.7675 16.4595 14.9792 16.8255L15.751 18.1628L16.1665 18.8826L15.9288 20.2273L14.8594 26.2772L16.9986 28.0203L19.1379 26.2772L18.0681 20.2273Z" fill="white"/>
<path d="M20.8903 16.209L19.0657 21.548L16.9982 27.5983L14.9308 21.5484L13.1062 16.2094C8.44193 17.056 4.875 21.1593 4.875 26.0583V32.645C4.875 33.248 5.36825 33.7408 5.97086 33.7408H28.0256C28.6286 33.7408 29.1215 33.2476 29.1215 32.645V26.0579C29.1215 21.1593 25.5546 17.056 20.8903 16.209Z" fill="white"/>
</svg>
