<svg width="132" height="87" viewBox="0 0 132 87" fill="none" xmlns="http://www.w3.org/2000/svg">
<path d="M0.279297 86.6161V1.89368H29.1365V17.9998H30.0177C31.7799 12.7046 34.7905 8.51262 39.0493 5.42378C43.3082 2.33494 48.3747 0.790527 54.2489 0.790527C60.1966 0.790527 65.3182 2.37172 69.6138 5.5341C73.9093 8.65971 76.4977 12.8149 77.3788 17.9998H78.2599C79.6918 12.8149 82.739 8.65971 87.4017 5.5341C92.0644 2.37172 97.5348 0.790527 103.813 0.790527C111.927 0.790527 118.499 3.40133 123.528 8.62294C128.595 13.8445 131.128 20.7944 131.128 29.4726V86.6161H100.729V37.1947C100.729 33.4807 99.7927 30.5758 97.9203 28.4798C96.0479 26.347 93.533 25.2806 90.3756 25.2806C87.2549 25.2806 84.7767 26.347 82.941 28.4798C81.142 30.5758 80.2425 33.4807 80.2425 37.1947V86.6161H51.165V37.1947C51.165 33.4807 50.2288 30.5758 48.3563 28.4798C46.4839 26.347 43.969 25.2806 40.8116 25.2806C38.7189 25.2806 36.9199 25.7586 35.4146 26.7147C33.9094 27.6708 32.7345 29.0497 31.8901 30.8515C31.0824 32.6166 30.6785 34.731 30.6785 37.1947V86.6161H0.279297Z" fill="#1A1A1A"/>
</svg>
