<svg width="148" height="14" viewBox="0 0 148 14" fill="none" xmlns="http://www.w3.org/2000/svg">
<g id="Frame 1858">
<g id="Logo">
<circle id="sun" cx="75.5156" cy="7.5" r="3.5" fill="#FFBC24"/>
<g id="make solar">
<path d="M0.015625 13.7525V0.176767H4.90808V2.75758H5.05747C5.35624 1.90909 5.86665 1.23737 6.58869 0.742423C7.31073 0.247475 8.16971 0 9.16563 0C10.174 0 11.0423 0.253367 11.7706 0.760101C12.4989 1.26094 12.9377 1.92677 13.0871 2.75758H13.2365C13.4792 1.92677 13.9958 1.26094 14.7864 0.760101C15.5769 0.253367 16.5043 0 17.5687 0C18.9443 0 20.0585 0.41835 20.9113 1.25505C21.7702 2.09175 22.1997 3.20539 22.1997 4.59596V13.7525H17.0458V5.83333C17.0458 5.23822 16.8871 4.77273 16.5697 4.43687C16.2522 4.09512 15.8258 3.92424 15.2905 3.92424C14.7615 3.92424 14.3413 4.09512 14.0301 4.43687C13.7251 4.77273 13.5726 5.23822 13.5726 5.83333V13.7525H8.64277V5.83333C8.64277 5.23822 8.48405 4.77273 8.1666 4.43687C7.84915 4.09512 7.42277 3.92424 6.88747 3.92424C6.53267 3.92424 6.22767 4.00084 5.97247 4.15404C5.71726 4.30724 5.51808 4.5282 5.37492 4.81692C5.23798 5.09975 5.16951 5.43855 5.16951 5.83333V13.7525H0.015625Z" fill="#1A1A1A"/>
<path d="M28.7378 13.9646C27.8228 13.9646 27.0136 13.8232 26.3102 13.5404C25.6131 13.2517 25.0653 12.8157 24.667 12.2323C24.2686 11.649 24.0694 10.9066 24.0694 10.005C24.0694 9.26263 24.2032 8.62921 24.4709 8.1048C24.7385 7.5745 25.112 7.14141 25.5913 6.80556C26.0706 6.4697 26.6277 6.21338 27.2626 6.03662C27.9037 5.85985 28.5946 5.74495 29.3353 5.69192C30.1383 5.633 30.7825 5.56229 31.268 5.4798C31.7598 5.39141 32.1146 5.27062 32.3324 5.11742C32.5503 4.95833 32.6592 4.74916 32.6592 4.4899V4.45455C32.6592 4.10101 32.516 3.82997 32.2297 3.64141C31.9434 3.45286 31.5761 3.35859 31.128 3.35859C30.6362 3.35859 30.2348 3.4617 29.9235 3.66793C29.6185 3.86827 29.4349 4.17761 29.3727 4.59596H24.6296C24.6919 3.77104 24.9688 3.01094 25.4606 2.31566C25.9585 1.61448 26.6837 1.05471 27.636 0.636364C28.5884 0.212121 29.7773 0 31.2027 0C32.2297 0 33.1509 0.114899 33.9664 0.344697C34.7818 0.568603 35.4758 0.883838 36.0485 1.2904C36.6211 1.69108 37.0568 2.16246 37.3556 2.70455C37.6606 3.24074 37.8131 3.82407 37.8131 4.45455V13.7525H32.9953V11.8434H32.8833C32.597 12.3502 32.2484 12.7597 31.8376 13.072C31.433 13.3843 30.9693 13.6111 30.4464 13.7525C29.9298 13.8939 29.3602 13.9646 28.7378 13.9646ZM30.4184 10.8889C30.8105 10.8889 31.1778 10.8123 31.5201 10.6591C31.8687 10.5059 32.1519 10.2849 32.3698 9.99621C32.5876 9.70749 32.6966 9.3569 32.6966 8.94444V7.81313C32.5596 7.86616 32.4133 7.91625 32.2577 7.96338C32.1083 8.01052 31.9465 8.05471 31.7722 8.09596C31.6042 8.13721 31.4236 8.1755 31.2307 8.21086C31.044 8.24621 30.8479 8.27862 30.6425 8.30808C30.2441 8.367 29.9173 8.46422 29.6621 8.59975C29.4131 8.72938 29.2264 8.89141 29.1019 9.08586C28.9836 9.27441 28.9245 9.48653 28.9245 9.72222C28.9245 10.0993 29.0646 10.388 29.3447 10.5884C29.6248 10.7887 29.9827 10.8889 30.4184 10.8889Z" fill="#1A1A1A"/>
<path d="M44.9067 10.5354L44.944 4.73737H45.6163L49.0895 0.176767H54.8783L49.0522 7.28283H47.5957L44.9067 10.5354ZM40.2757 13.7525V0H42.748H45.4295V13.7525H40.2757ZM49.1269 13.7525L45.8404 8.37879L49.2016 4.91414L55.0277 13.7525H49.1269Z" fill="#1A1A1A"/>
<path d="M62.5018 14C60.9705 14 59.651 13.7231 58.543 13.1692C57.4413 12.6094 56.5916 11.8081 55.9941 10.7652C55.4027 9.71633 55.1071 8.46128 55.1071 7C55.1071 5.59764 55.4058 4.37205 56.0034 3.32323C56.601 2.27441 57.4444 1.45833 58.5337 0.875C59.6229 0.291667 60.9083 0 62.3897 0C63.4728 0 64.4532 0.159091 65.3308 0.477272C66.2085 0.795454 66.9585 1.258 67.581 1.8649C68.2034 2.46591 68.6827 3.19655 69.0188 4.05682C69.3549 4.91709 69.523 5.88636 69.523 6.96465V8.09596H56.713V5.40909H64.7799C64.7737 5.0202 64.6679 4.67845 64.4625 4.38384C64.2633 4.08333 63.9925 3.85059 63.6502 3.68561C63.3141 3.51473 62.9313 3.42929 62.5018 3.42929C62.0847 3.42929 61.7019 3.51473 61.3534 3.68561C61.0048 3.85059 60.7247 4.08039 60.5131 4.375C60.3076 4.66961 60.1987 5.01431 60.1863 5.40909V8.30808C60.1863 8.74411 60.2827 9.133 60.4757 9.47475C60.6687 9.8165 60.9456 10.0846 61.3067 10.279C61.6677 10.4735 62.1034 10.5707 62.6138 10.5707C62.9686 10.5707 63.2923 10.5236 63.5848 10.4293C63.8836 10.335 64.1388 10.1995 64.3504 10.0227C64.5621 9.84007 64.7177 9.62205 64.8173 9.36869H69.523C69.3612 10.3114 68.9784 11.1305 68.3746 11.8258C67.7708 12.5152 66.971 13.0513 65.975 13.4343C64.9854 13.8114 63.8276 14 62.5018 14Z" fill="#1A1A1A"/>
<path d="M95.2107 4.59596H90.4677C90.4428 4.31902 90.3401 4.08039 90.1595 3.88005C89.979 3.67971 89.7456 3.52651 89.4593 3.42045C89.1792 3.3085 88.868 3.25253 88.5256 3.25253C88.0837 3.25253 87.704 3.32912 87.3865 3.48232C87.0691 3.63552 86.9135 3.85354 86.9197 4.13636C86.9135 4.3367 87.0037 4.52231 87.1905 4.69318C87.3834 4.86406 87.7538 4.99663 88.3015 5.09091L91.2146 5.58586C92.6836 5.83923 93.776 6.26641 94.4918 6.86742C95.2138 7.46254 95.578 8.26094 95.5842 9.26263C95.578 10.229 95.273 11.0686 94.6692 11.7816C94.0716 12.4886 93.2531 13.0366 92.2136 13.4255C91.1804 13.8085 90.0008 14 88.675 14C86.484 14 84.7691 13.5758 83.5304 12.7273C82.298 11.8788 81.6102 10.7593 81.467 9.36869H86.5836C86.652 9.79882 86.8761 10.1317 87.2558 10.3674C87.6417 10.5972 88.1272 10.7121 88.7123 10.7121C89.1854 10.7121 89.5744 10.6355 89.8794 10.4823C90.1907 10.3291 90.3494 10.1111 90.3556 9.82828C90.3494 9.56902 90.2124 9.36279 89.9448 9.2096C89.6834 9.0564 89.2726 8.93266 88.7123 8.83838L86.1727 8.41414C84.71 8.17256 83.6145 7.71296 82.8862 7.03535C82.158 6.35774 81.7969 5.48569 81.8032 4.41919C81.7969 3.47643 82.0584 2.67803 82.5874 2.02399C83.1227 1.36406 83.8852 0.863215 84.8749 0.521464C85.8709 0.173821 87.0504 0 88.4136 0C90.4863 0 92.1203 0.406566 93.3154 1.2197C94.5167 2.03283 95.1485 3.15825 95.2107 4.59596Z" fill="#1A1A1A"/>
<path d="M104.468 14C102.912 14 101.58 13.7083 100.472 13.125C99.364 12.5358 98.5144 11.7168 97.923 10.6679C97.3317 9.61322 97.036 8.39057 97.036 7C97.036 5.60943 97.3317 4.38973 97.923 3.34091C98.5144 2.28619 99.364 1.46717 100.472 0.883837C101.58 0.294612 102.912 0 104.468 0C106.024 0 107.356 0.294612 108.464 0.883837C109.572 1.46717 110.422 2.28619 111.013 3.34091C111.604 4.38973 111.9 5.60943 111.9 7C111.9 8.39057 111.604 9.61322 111.013 10.6679C110.422 11.7168 109.572 12.5358 108.464 13.125C107.356 13.7083 106.024 14 104.468 14ZM104.505 10.3939C104.941 10.3939 105.318 10.2555 105.635 9.97853C105.953 9.7016 106.199 9.30682 106.373 8.79419C106.547 8.28157 106.634 7.67172 106.634 6.96465C106.634 6.25168 106.547 5.64183 106.373 5.1351C106.199 4.62247 105.953 4.22769 105.635 3.95076C105.318 3.67382 104.941 3.53535 104.505 3.53535C104.045 3.53535 103.65 3.67382 103.32 3.95076C102.99 4.22769 102.738 4.62247 102.563 5.1351C102.389 5.64183 102.302 6.25168 102.302 6.96465C102.302 7.67172 102.389 8.28157 102.563 8.79419C102.738 9.30682 102.99 9.7016 103.32 9.97853C103.65 10.2555 104.045 10.3939 104.505 10.3939Z" fill="#1A1A1A"/>
<path d="M119.145 0V13.7525H113.992V0H119.145Z" fill="#1A1A1A"/>
<path d="M125.768 13.9646C124.853 13.9646 124.043 13.8232 123.34 13.5404C122.643 13.2517 122.095 12.8157 121.697 12.2323C121.298 11.649 121.099 10.9066 121.099 10.005C121.099 9.26263 121.233 8.62921 121.501 8.1048C121.768 7.5745 122.142 7.14141 122.621 6.80556C123.1 6.4697 123.657 6.21338 124.292 6.03662C124.933 5.85985 125.624 5.74495 126.365 5.69192C127.168 5.633 127.812 5.56229 128.298 5.4798C128.79 5.39141 129.144 5.27062 129.362 5.11742C129.58 4.95833 129.689 4.74916 129.689 4.4899V4.45455C129.689 4.10101 129.546 3.82997 129.259 3.64141C128.973 3.45286 128.606 3.35859 128.158 3.35859C127.666 3.35859 127.265 3.4617 126.953 3.66793C126.648 3.86827 126.465 4.17761 126.402 4.59596H121.659C121.722 3.77104 121.999 3.01094 122.49 2.31566C122.988 1.61448 123.713 1.05471 124.666 0.636364C125.618 0.212121 126.807 0 128.232 0C129.259 0 130.181 0.114899 130.996 0.344697C131.812 0.568603 132.506 0.883838 133.078 1.2904C133.651 1.69108 134.087 2.16246 134.385 2.70455C134.69 3.24074 134.843 3.82407 134.843 4.45455V13.7525H130.025V11.8434H129.913C129.627 12.3502 129.278 12.7597 128.867 13.072C128.463 13.3843 127.999 13.6111 127.476 13.7525C126.96 13.8939 126.39 13.9646 125.768 13.9646ZM127.448 10.8889C127.84 10.8889 128.208 10.8123 128.55 10.6591C128.898 10.5059 129.182 10.2849 129.4 9.99621C129.617 9.70749 129.726 9.3569 129.726 8.94444V7.81313C129.589 7.86616 129.443 7.91625 129.287 7.96338C129.138 8.01052 128.976 8.05471 128.802 8.09596C128.634 8.13721 128.453 8.1755 128.26 8.21086C128.074 8.24621 127.878 8.27862 127.672 8.30808C127.274 8.367 126.947 8.46422 126.692 8.59975C126.443 8.72938 126.256 8.89141 126.132 9.08586C126.013 9.27441 125.954 9.48653 125.954 9.72222C125.954 10.0993 126.094 10.388 126.374 10.5884C126.655 10.7887 127.012 10.8889 127.448 10.8889Z" fill="#1A1A1A"/>
<path d="M137.305 13.7525V0.176767H142.31V2.75758H142.459C142.721 1.80303 143.135 1.1048 143.701 0.662879C144.274 0.22096 144.943 0 145.708 0C145.933 0 146.154 0.0176768 146.371 0.0530304C146.595 0.0824916 146.81 0.126683 147.016 0.185606V4.34848C146.76 4.26599 146.446 4.20412 146.073 4.16288C145.699 4.12163 145.379 4.10101 145.111 4.10101C144.607 4.10101 144.152 4.21002 143.748 4.42803C143.349 4.64015 143.035 4.94066 142.805 5.32955C142.574 5.71254 142.459 6.1633 142.459 6.68182V13.7525H137.305Z" fill="#1A1A1A"/>
</g>
</g>
</g>
</svg>
