<svg width="24" height="24" viewBox="0 0 24 24" fill="none" xmlns="http://www.w3.org/2000/svg">
<g id="Group 1000001558">
<circle id="Ellipse 27" cx="12" cy="12" r="12" fill="#FFBC24"/>
<path id="m" d="M6 16.3261V7.92386H8.86188V9.52115H8.94926C9.12403 8.99602 9.4226 8.58028 9.84496 8.27395C10.2673 7.96762 10.7698 7.81445 11.3524 7.81445C11.9422 7.81445 12.4501 7.97127 12.8761 8.28489C13.3022 8.59487 13.5588 9.00696 13.6462 9.52115H13.7336C13.8756 9.00696 14.1778 8.59487 14.6402 8.28489C15.1027 7.97127 15.6452 7.81445 16.2678 7.81445C17.0725 7.81445 17.7242 8.07338 18.223 8.59122C18.7255 9.10907 18.9767 9.79831 18.9767 10.659V16.3261H15.9619V11.4248C15.9619 11.0565 15.8691 10.7684 15.6834 10.5605C15.4977 10.349 15.2483 10.2432 14.9352 10.2432C14.6257 10.2432 14.3799 10.349 14.1979 10.5605C14.0194 10.7684 13.9302 11.0565 13.9302 11.4248V16.3261H11.0465V11.4248C11.0465 11.0565 10.9537 10.7684 10.768 10.5605C10.5823 10.349 10.3329 10.2432 10.0197 10.2432C9.81219 10.2432 9.63378 10.2906 9.4845 10.3854C9.33521 10.4803 9.2187 10.617 9.13495 10.7957C9.05485 10.9708 9.0148 11.1804 9.0148 11.4248V16.3261H6Z" fill="#1A1A1A"/>
</g>
</svg>
