<svg width="42" height="47" viewBox="0 0 42 47" fill="none" xmlns="http://www.w3.org/2000/svg">
<path d="M7.85227 46.5V18.7046V6.09868L3.83265 0.5V43.4807L7.85227 46.5Z" fill="url(#paint0_linear_1354_229)"/>
<path d="M7.85227 46.5V18.7046V6.09868L3.83265 0.5V43.4807L7.85227 46.5Z" fill="url(#paint1_linear_1354_229)"/>
<path d="M23.4633 46.5H30.8482L7.85227 6.09868V18.7046L8.97402 20.7019L23.4633 46.5Z" fill="url(#paint2_linear_1354_229)"/>
<path d="M23.4633 46.5H30.8482L7.85227 6.09868V18.7046L8.97402 20.7019L23.4633 46.5Z" fill="url(#paint3_linear_1354_229)"/>
<path d="M23.4633 46.5H30.8482L7.85227 6.09868V18.7046L8.97402 20.7019L23.4633 46.5Z" fill="black" fill-opacity="0.2"/>
<path d="M8.38029 0.5L34.648 46.5V32.0251L33.3393 29.8616L15.5782 0.5H8.38029Z" fill="url(#paint4_linear_1354_229)"/>
<path d="M34.648 46.5L38.5741 43.4807V3.87452L34.648 0.5V32.0251V46.5Z" fill="url(#paint5_linear_1354_229)"/>
<path d="M42 46.5V0.5L38.5741 3.87452V43.4807L42 46.5Z" fill="url(#paint6_linear_1354_229)"/>
<path d="M42 0.5H34.648L38.5741 3.87452L42 0.5Z" fill="#37FE9E"/>
<path d="M34.648 46.5H42L38.5741 43.4807L34.648 46.5Z" fill="#001A22"/>
<path d="M0 0.5V46.5L3.83265 43.4807V0.5H0Z" fill="url(#paint7_linear_1354_229)"/>
<path d="M0 0.5V46.5L3.83265 43.4807V0.5H0Z" fill="url(#paint8_linear_1354_229)"/>
<path d="M0 46.5H7.85227L3.83265 43.4807L0 46.5Z" fill="#001A22"/>
<defs>
<linearGradient id="paint0_linear_1354_229" x1="20.472" y1="0.5" x2="20.472" y2="46.5" gradientUnits="userSpaceOnUse">
<stop stop-color="#38FEB8"/>
<stop offset="1" stop-color="#1C7281"/>
</linearGradient>
<linearGradient id="paint1_linear_1354_229" x1="21" y1="0.5" x2="21" y2="46.5" gradientUnits="userSpaceOnUse">
<stop stop-color="#37FE9E"/>
<stop offset="0.305" stop-color="#37FEB6"/>
<stop offset="1" stop-color="#19757B"/>
</linearGradient>
<linearGradient id="paint2_linear_1354_229" x1="4.64345" y1="4.93032" x2="28.4411" y2="46.3344" gradientUnits="userSpaceOnUse">
<stop stop-color="#2CCF9A"/>
<stop offset="1" stop-color="#04262D"/>
</linearGradient>
<linearGradient id="paint3_linear_1354_229" x1="4.64345" y1="10.5412" x2="35.216" y2="46.1683" gradientUnits="userSpaceOnUse">
<stop stop-color="#37FE9E"/>
<stop offset="0.272973" stop-color="#37FEB8"/>
<stop offset="1" stop-color="#001422"/>
</linearGradient>
<linearGradient id="paint4_linear_1354_229" x1="4.64345" y1="10.5412" x2="35.216" y2="46.1683" gradientUnits="userSpaceOnUse">
<stop stop-color="#37FE9E"/>
<stop offset="0.272973" stop-color="#37FEB8"/>
<stop offset="1" stop-color="#001422"/>
</linearGradient>
<linearGradient id="paint5_linear_1354_229" x1="21" y1="0.5" x2="21" y2="46.5" gradientUnits="userSpaceOnUse">
<stop stop-color="#38CC7C"/>
<stop offset="0.345" stop-color="#38CC97"/>
<stop offset="1" stop-color="#003744"/>
</linearGradient>
<linearGradient id="paint6_linear_1354_229" x1="21" y1="0.5" x2="21" y2="46.5" gradientUnits="userSpaceOnUse">
<stop stop-color="#37FE9E"/>
<stop offset="0.305" stop-color="#37FEB6"/>
<stop offset="1" stop-color="#19757B"/>
</linearGradient>
<linearGradient id="paint7_linear_1354_229" x1="21" y1="0.5" x2="21" y2="46.5" gradientUnits="userSpaceOnUse">
<stop stop-color="#34C392"/>
<stop offset="1" stop-color="#034049"/>
</linearGradient>
<linearGradient id="paint8_linear_1354_229" x1="21" y1="0.5" x2="21" y2="46.5" gradientUnits="userSpaceOnUse">
<stop stop-color="#38CC7C"/>
<stop offset="0.345" stop-color="#38CC97"/>
<stop offset="1" stop-color="#003744"/>
</linearGradient>
</defs>
</svg>
