<svg width="0" height="0" class="hidden">
  <symbol xmlns="http://www.w3.org/2000/svg" viewBox="0 0 320 512" id="chevron-left">
    <path d="M9.4 233.4c-12.5 12.5-12.5 32.8 0 45.3l192 192c12.5 12.5 32.8 12.5 45.3 0s12.5-32.8 0-45.3L77.3 256 246.6 86.6c12.5-12.5 12.5-32.8 0-45.3s-32.8-12.5-45.3 0l-192 192z"></path>
  </symbol>
   <symbol version="1.1" xmlns="http://www.w3.org/2000/svg" viewBox="0 0 512 512" id="discord">

    <path d="M403.848 133.184c0.236 0.1 0.438 0.267 0.555 0.5 48.183 69.734 71.98 148.398 63.084 238.958-0.034 0.384-0.236 0.733-0.556 0.966-36.494 26.371-71.846 42.38-106.708 52.992-0.555 0.167-1.16-0.032-1.497-0.499-8.056-11.029-15.372-22.656-21.779-34.867-0.37-0.717-0.034-1.583 0.724-1.866 11.621-4.314 22.67-9.479 33.299-15.592 0.839-0.483 0.891-1.666 0.117-2.233-2.253-1.649-4.49-3.382-6.627-5.114-0.402-0.316-0.94-0.384-1.396-0.167-69.003 31.37-144.599 31.37-214.425 0-0.453-0.2-0.992-0.133-1.378 0.183-2.137 1.733-4.374 3.45-6.611 5.098-0.774 0.566-0.706 1.75 0.135 2.233 10.629 5.998 21.678 11.279 33.282 15.61 0.756 0.283 1.111 1.132 0.74 1.849-6.273 12.228-13.589 23.856-21.797 34.883-0.352 0.45-0.94 0.649-1.496 0.483-34.695-10.611-70.046-26.621-106.54-52.992-0.303-0.233-0.522-0.6-0.555-0.983-7.434-78.33 7.719-157.645 63.033-238.957 0.134-0.216 0.336-0.383 0.572-0.483 27.211-12.294 56.372-21.34 86.847-26.505 0.554-0.083 1.111 0.166 1.395 0.65 3.767 6.564 8.072 14.977 10.982 21.856 32.123-4.831 64.749-4.831 97.544 0 2.909-6.731 7.064-15.293 10.813-21.856 0.286-0.499 0.841-0.749 1.397-0.65 30.49 5.181 59.651 14.227 86.846 26.505zM224.417 282.658c0-23.565-17.431-42.667-38.934-42.667-21.501 0-38.933 19.102-38.933 42.667 0 23.563 17.431 42.666 38.933 42.666 21.502 0 38.934-19.102 38.934-42.666zM326.070 325.324c21.502 0 38.934-19.102 38.934-42.666 0-23.565-17.432-42.667-38.934-42.667s-38.933 19.102-38.933 42.667c0 23.563 17.43 42.666 38.933 42.666z"></path>
  </symbol>
  <symbol version="1.1" xmlns="http://www.w3.org/2000/svg" viewBox="0 0 512 512" id="facebook">

    <path d="M59.806 106.657c11.234-19.459 27.393-35.617 46.852-46.852 29.703-17.148 69.579-17.148 149.333-17.148 79.755 0 119.631 0 149.334 17.148 19.457 11.234 35.616 27.393 46.851 46.852 17.149 29.703 17.149 69.579 17.149 149.333 0 79.755 0 119.631-17.149 149.334-11.235 19.457-27.394 35.616-46.851 46.851-29.704 17.149-69.579 17.149-149.334 17.149-79.754 0-119.63 0-149.333-17.149-19.459-11.235-35.617-27.394-46.852-46.851-17.148-29.704-17.148-69.579-17.148-149.334 0-79.754 0-119.63 17.148-149.333zM283.353 213.054c0-15.66 13.081-28.355 29.218-28.355h50.087v-56.709h-50.087c-48.409 0-87.651 38.085-87.651 85.063v44.557h-54.262v56.709h54.262v133.67h58.434v-133.67h62.609l8.349-56.709h-70.957v-44.557z"></path>
  </symbol>
  <symbol version="1.1" xmlns="http://www.w3.org/2000/svg" viewBox="0 0 512 512" id="instagram">

    <path d="M255.99 341.324c41.238 0 74.667-33.429 74.667-74.667 0-41.237-33.429-74.667-74.667-74.667-41.237 0-74.665 33.43-74.665 74.667 0 41.238 33.429 74.667 74.666 74.667z"></path>
    <path d="M42.657 255.99c0-79.754 0-119.63 17.148-149.333 11.234-19.459 27.393-35.617 46.852-46.852 29.703-17.148 69.579-17.148 149.333-17.148 79.755 0 119.631 0 149.334 17.148 19.457 11.234 35.616 27.393 46.851 46.852 17.149 29.703 17.149 69.579 17.149 149.333 0 79.755 0 119.631-17.149 149.334-11.235 19.457-27.394 35.616-46.851 46.851-29.704 17.149-69.579 17.149-149.334 17.149-79.754 0-119.63 0-149.333-17.149-19.459-11.235-35.617-27.394-46.852-46.851-17.148-29.704-17.148-69.579-17.148-149.334zM255.99 373.324c58.911 0 106.667-47.757 106.667-106.667s-47.757-106.667-106.667-106.667c-58.91 0-106.665 47.756-106.665 106.667s47.757 106.667 106.666 106.667zM351.99 170.657c17.674 0 32-14.327 32-32s-14.326-32-32-32c-17.673 0-32 14.327-32 32s14.327 32 32 32z"></path>
  </symbol>
  <symbol version="1.1" xmlns="http://www.w3.org/2000/svg" viewBox="0 0 512 512" id="telegram">

    <path d="M69.737 244.382c102.934-45.538 171.74-74.971 205.869-89.41 97.981-41.096 118.346-48.315 131.558-48.315 2.753 0 9.358 0.555 13.761 3.888 3.303 2.776 4.404 6.664 4.954 9.441s1.101 8.886 0.55 13.883c-5.505 56.089-28.072 193.258-40.183 256.012-4.953 26.658-14.861 35.543-24.219 36.654-20.368 1.666-36.33-13.884-56.146-26.656-30.825-20.548-48.44-33.321-78.715-53.314-34.679-23.324-12.109-36.096 7.707-56.645 4.954-5.553 95.779-88.298 97.43-96.073 0-1.111 0.55-4.442-1.651-6.109s-4.954-1.111-7.156-0.556c-3.303 0.556-52.843 33.877-149.172 99.407-14.313 9.995-26.972 14.438-38.532 14.438-12.66 0-36.88-7.219-55.045-13.328-22.018-7.219-39.633-11.108-37.981-23.324 1.651-6.665 10.459-13.329 26.972-19.993z"></path>
  </symbol>
  <symbol version="1.1" xmlns="http://www.w3.org/2000/svg" viewBox="0 0 512 512" id="twitter">

    <path d="M369.591 74.228h60.563l-132.311 151.222 155.654 205.779h-121.876l-95.456-124.805-109.223 124.805h-60.599l141.519-161.75-149.317-195.251h124.968l86.285 114.075 99.794-114.075zM348.336 394.98h33.558l-216.617-286.406h-36.011l219.070 286.406z"></path>
  </symbol>
  <symbol version="1.1" xmlns="http://www.w3.org/2000/svg" viewBox="0 0 512 512" id="youtube">

    <path d="M506.901 153.614c0 0-5-35.3-20.399-50.8-19.502-20.4-41.303-20.5-51.301-21.7-71.6-5.2-179.099-5.2-179.099-5.2h-0.202c0 0-107.5 0-179.099 5.2-10 1.2-31.8 1.3-51.3 21.7-15.4 15.5-20.3 50.8-20.3 50.8s-5.2 41.499-5.2 82.898v38.803c0 41.397 5.1 82.899 5.1 82.899s5 35.298 20.3 50.799c19.5 20.401 45.1 19.7 56.5 21.901 41 3.901 174.1 5.101 174.1 5.101s107.601-0.2 179.2-5.301c9.998-1.2 31.8-1.299 51.301-21.7 15.399-15.5 20.399-50.799 20.399-50.799s5.099-41.401 5.099-82.899v-38.803c0-41.4-5.099-82.899-5.099-82.899zM203.1 322.413v-143.9l138.3 72.201-138.3 71.699z"></path>
  </symbol>
    <symbol version="1.1" xmlns="http://www.w3.org/2000/svg" viewBox="0 0 535 512" id="bitcoin">

    <path fill="#fff" d="M527.465 257.168c-0.644 141.372-115.788 255.468-257.193 254.829-141.347-0.646-255.451-115.781-254.791-257.149 0.623-141.383 115.767-255.488 257.13-254.846 141.394 0.633 255.494 115.786 254.853 257.166z"></path>
    <path fill="#02060a" d="M372.526 193.744c-3.141-34.307-32.692-45.936-70.055-49.38l0.216-47.566-28.957-0.127-0.209 46.313c-7.611-0.033-15.394 0.082-23.125 0.202l0.216-46.62-28.94-0.132-0.227 47.553c-6.27 0.1-12.427 0.189-18.43 0.166l-0.003-0.148-39.938-0.194-0.133 30.923c0 0 21.385-0.311 21.028 0.081 11.729 0.056 15.515 6.882 16.599 12.762l-0.244 54.189c0.809 0.009 1.865 0.047 3.060 0.216-0.964-0.005-1.997-0.016-3.059-0.011l-0.353 75.914c-0.531 3.688-2.728 9.563-10.923 9.539 0.369 0.332-21.049-0.1-21.049-0.1l-5.911 34.553 37.683 0.167c7.012 0.040 13.911 0.192 20.685 0.265l-0.207 48.108 28.925 0.134 0.216-47.598c7.943 0.2 15.627 0.298 23.131 0.325l-0.229 47.38 28.957 0.127 0.227-48.024c48.695-2.574 82.824-14.683 87.262-60.373 3.584-36.793-13.657-53.292-41.26-60.053 16.827-8.472 27.392-23.486 25.050-48.589zM331.546 296.428c-0.147 35.952-61.694 31.586-81.319 31.514l0.298-63.74c19.632 0.094 81.195-5.274 81.020 32.225zM318.49 206.439c-0.158 32.708-51.485 28.66-67.831 28.587l0.265-57.809c16.346 0.072 67.717-4.894 67.566 29.221z"></path>
  </symbol>
  <symbol version="1.1" xmlns="http://www.w3.org/2000/svg" viewBox="0 0 535 512" id="etherium">

    <path d="M271.478 0c-50.632 0-100.126 15.014-142.226 43.144s-74.911 68.112-94.287 114.889c-19.376 46.778-24.445 98.252-14.568 147.909 9.878 49.659 34.26 95.274 70.061 131.077s81.417 60.185 131.076 70.062c49.66 9.88 101.132 4.808 147.911-14.567 46.777-19.376 86.76-52.188 114.888-94.286 28.129-42.1 43.144-91.594 43.144-142.227 0-33.619-6.62-66.907-19.487-97.967-12.865-31.059-31.721-59.281-55.494-83.052-23.77-23.772-51.993-42.629-83.051-55.494-31.060-12.865-64.349-19.487-97.968-19.487zM346.639 312.32l-63.642 91.392c-1.307 1.839-3.034 3.337-5.038 4.372s-4.228 1.574-6.483 1.574c-2.255 0-4.479-0.538-6.483-1.574s-3.731-2.534-5.038-4.372l-63.642-91.392c-0.578-0.884-0.868-1.925-0.831-2.983 0.037-1.055 0.401-2.075 1.041-2.916s1.524-1.462 2.531-1.783c1.007-0.318 2.089-0.318 3.096 0.002l63.181 20.992c3.983 1.365 8.305 1.365 12.288 0l63.207-20.992c1.004-0.312 2.082-0.307 3.083 0.015 1.004 0.323 1.881 0.946 2.517 1.786 0.635 0.839 0.995 1.854 1.033 2.905 0.038 1.053-0.25 2.091-0.824 2.974zM355.702 258.816l-84.224 28.416-84.198-28.313c-1.067-0.356-2.043-0.942-2.859-1.719-0.815-0.774-1.451-1.719-1.862-2.767-0.411-1.047-0.585-2.173-0.513-3.294s0.391-2.217 0.933-3.203l76.211-138.239c1.245-2.159 3.034-3.951 5.191-5.198s4.606-1.903 7.097-1.903c2.491 0 4.94 0.656 7.097 1.903s3.947 3.040 5.191 5.198l76.213 138.368c0.519 0.98 0.819 2.059 0.882 3.166s-0.116 2.215-0.523 3.245c-0.405 1.030-1.031 1.961-1.83 2.729-0.801 0.766-1.757 1.351-2.805 1.714v-0.103z"></path>
  </symbol>
  <symbol version="1.1" xmlns="http://www.w3.org/2000/svg" viewBox="0 0 846 512" id="master-card">

    <path d="M427.31 457.262c-37.55 29.685-82.644 48.148-130.131 53.274s-95.452-3.288-138.41-24.282c-42.958-20.994-79.176-53.72-104.515-94.438s-38.777-87.784-38.777-135.818c0-48.035 13.438-95.101 38.777-135.819s61.557-73.443 104.515-94.437c42.958-20.994 90.923-29.409 138.41-24.282s92.583 23.59 130.13 53.273c37.55-29.683 82.644-48.148 130.128-53.273 47.487-5.126 95.45 3.288 138.407 24.282 42.959 20.994 79.175 53.72 104.513 94.437s38.774 87.783 38.772 135.818c0.002 48.032-13.434 95.098-38.772 135.816s-61.553 73.443-104.513 94.438c-42.957 20.994-90.92 29.409-138.407 24.282-47.485-5.125-92.581-23.59-130.128-53.272zM330.096 256c-0.036 38.767 8.7 77.034 25.544 111.903 16.842 34.87 41.352 65.427 71.671 89.36 30.295-23.957 54.784-54.522 71.625-89.384 16.84-34.865 25.591-73.118 25.591-111.879s-8.75-77.016-25.591-111.88c-16.841-34.863-41.329-65.426-71.625-89.385-30.32 23.934-54.829 54.493-71.671 89.361-16.845 34.87-25.58 73.137-25.545 111.904zM468.954 454.549c27.839 16.404 58.92 26.76 91.232 30.248 42.685 4.608 85.798-2.956 124.412-21.827s71.168-48.288 93.943-84.887c22.775-36.599 34.851-78.906 34.851-122.083s-12.077-85.485-34.851-122.085c-22.775-36.6-55.33-66.016-93.943-84.887s-81.726-26.435-124.412-21.827c-32.312 3.488-63.392 13.845-91.231 30.247 21.656 21.955 39.629 47.401 53.132 75.359 18.543 38.389 28.18 80.512 28.18 123.192 0 42.678-9.636 84.8-28.18 123.192-13.503 27.957-31.477 53.404-53.132 75.358z"></path>
  </symbol>
  <symbol version="1.1" xmlns="http://www.w3.org/2000/svg" viewBox="0 0 535 512" id="tether">

    <path d="M271.478 512c-141.385 0-256-114.615-256-256s114.615-256 256-256c141.386 0 256 114.615 256 256s-114.615 256-256 256zM305.822 353.754c11.934-0.899 23.546-2.36 34.395-4.269 28.322-5.055 75.957-17.974 75.957-46.957 0-28.986-47.634-41.904-75.957-46.959-5.968-1.011-11.5 3.032-12.587 9.212-0.978 6.066 2.93 11.908 8.897 12.92 44.163 7.976 57.943 21.007 57.943 24.827 0 3.817-13.779 16.849-57.943 24.827-9.657 1.685-19.966 3.032-30.707 3.817v-126.608h71.181c5.966 0 10.85-5.055 10.85-11.234v-48.531c0-6.291-4.884-11.234-10.85-11.234h-211.049c-5.968 0-10.851 4.943-10.851 11.234v48.531c0 6.179 4.883 11.234 10.851 11.234h71.289v126.608c-10.741-0.786-21.049-2.132-30.707-3.817-44.272-7.865-58.052-21.010-58.052-24.827 0-3.933 13.78-16.851 58.052-24.827 5.859-1.013 9.875-6.854 8.79-12.92-0.976-6.18-6.511-10.222-12.478-9.212-28.429 5.055-76.064 17.974-76.064 46.959 0 28.983 47.635 41.901 76.064 46.957 10.851 1.91 22.353 3.37 34.396 4.269v57.967c0 6.293 4.775 11.235 10.852 11.235h46.874c1.411 0 2.93-0.336 4.232-0.899 3.907-1.685 6.62-5.616 6.62-10.336v-57.967z"></path>
  </symbol>
  <symbol version="1.1" xmlns="http://www.w3.org/2000/svg" viewBox="0 0 1476 512" id="visa">

    <path d="M726.163 23.57l-97.981 466.055h-118.513l97.991-466.055h118.504zM1224.746 324.509l62.373-175.014 35.897 175.014h-98.271zM1357.017 489.625h109.583l-95.738-466.055h-101.081c-22.781 0-41.984 13.438-50.486 34.162l-177.818 431.894h124.458l24.708-69.605h152.019l14.354 69.605zM1047.649 337.474c0.515-123-167.126-129.814-166.003-184.772 0.361-16.698 16.023-34.487 50.249-39.036 16.968-2.222 63.795-4.025 116.877 20.86l20.76-98.869c-28.509-10.493-65.196-20.598-110.851-20.598-117.154 0-199.568 63.313-200.228 154.048-0.75 67.097 58.874 104.508 103.701 126.856 46.218 22.841 61.705 37.484 61.479 57.894-0.322 31.268-36.855 45.116-70.876 45.641-59.612 0.942-94.169-16.396-121.708-29.455l-21.513 102.171c27.736 12.914 78.839 24.151 131.755 24.726 124.552 0 205.987-62.57 206.357-159.467zM556.824 23.57l-192.015 466.055h-125.255l-94.499-371.945c-5.728-22.873-10.725-31.279-28.148-40.944-28.498-15.745-75.541-30.472-116.908-39.633l2.803-13.532h201.65c25.685 0 48.795 17.39 54.678 47.496l49.919 269.709 123.274-317.204h124.5z"></path>
  </symbol>

    <symbol version="1.1" xmlns="http://www.w3.org/2000/svg" viewBox="0 0 498 512" id="circle-graph">
    <title></title>
    <g id="icomoon-ignore"></g>
    <path d="M291.5 51.499v120.501c0 23.564 19.102 42.666 42.666 42.666h120.483c23.643 0 43.231-19.435 38.285-42.553-16.99-79.394-79.486-141.899-158.878-158.897-23.121-4.95-42.557 14.639-42.557 38.283zM229.115 49.888c-1.444-0.014-2.888-0.014-4.332 0-125.211 1.196-225.746 103.669-224.551 228.882s103.67 225.746 228.881 224.55c125.153-0.137 226.578-101.553 226.727-226.705 0-11.415-9.253-20.667-20.666-20.667h-142.663c-23.589 0-42.701-19.141-42.666-42.728l0.206-142.664c-0.148-11.456-9.477-20.668-20.935-20.668z"></path>
  </symbol>
  <symbol version="1.1" xmlns="http://www.w3.org/2000/svg" viewBox="0 0 512 512" id="coin">
    <title></title>
    <g id="icomoon-ignore"></g>
    <path d="M256 0c-141.162 0-256 114.838-256 256s114.838 256 256 256c141.163 0 256-114.837 256-256s-114.837-256-256-256zM227.072 229.547l64.875 10.815c28.63 4.758 49.386 29.291 49.386 58.305 0 35.286-28.714 64-64 64v42.666h-42.666v-42.666c-35.286 0-64-28.714-64-64h42.666c0 11.776 9.559 21.333 21.334 21.333h42.666c11.776 0 21.334-9.557 21.334-21.333 0-8.065-5.781-14.89-13.739-16.214l-64.875-10.815c-28.63-4.759-49.386-29.291-49.386-58.305 0-35.284 28.715-64 64-64v-42.666h42.665v42.666c35.286 0 64 28.716 64 64h-42.666c0-11.754-9.558-21.333-21.334-21.333h-42.666c-11.776 0-21.334 9.579-21.334 21.333 0 8.065 5.781 14.892 13.739 16.214z"></path>
  </symbol>
  <symbol version="1.1" xmlns="http://www.w3.org/2000/svg" viewBox="0 0 512 512" id="graph">
    <title></title>
    <g id="icomoon-ignore"></g>
    <path d="M256 512c-35.2 0-64-28.8-64-64v-384c0-35.2 28.8-64 64-64s64 28.8 64 64v384c0 35.2-28.8 64-64 64zM448 512c-35.2 0-64-28.8-64-64v-256c0-35.2 28.8-64 64-64s64 28.8 64 64v256c0 35.2-28.8 64-64 64zM64 512c-35.2 0-64-28.8-64-64v-128c0-35.2 28.8-64 64-64s64 28.8 64 64v128c0 35.2-28.8 64-64 64z"></path>
  </symbol>
  <symbol version="1.1" xmlns="http://www.w3.org/2000/svg" viewBox="0 0 498 512" id="pig">
    <title></title>
    <g id="icomoon-ignore"></g>
    <path d="M465.279 236.219c-7.010-17.546-17.091-33.931-29.7-48.263v-77.052c0-12.818-5.767-24.723-15.846-32.688-9.914-7.819-22.587-10.64-34.866-7.757-37.851 9.022-66.245 30.468-81.448 61.102h-111.233c-53.531 0-101.588 24.018-133.135 61.578-24.889-3.63-21.882-40.879 3.173-40.838 27.108-0.104 27.129-41.378 0-41.481-66.059-0.207-85.638 91.383-26.299 118.408-36.483 75.082-4.75 171.776 67.781 211.804v1.64c0.041 69.501 98.311 85.41 120.898 20.74h48.596c22.587 64.711 120.856 48.719 120.897-20.74v-1.909c32.356-18.729 57.472-47.704 71.182-82.010 17.029-3.63 32.522-17.587 32.522-40.526v-41.482c0-22.939-15.515-36.898-32.522-40.528zM373.356 276.746c-27.129-0.125-27.129-41.357 0-41.482 27.129 0.125 27.129 41.357 0 41.482zM125.545 100.698c-11.656-115.962 160.534-127.182 164.847-10.62h-98.186c-23.25 0-45.631 3.837-66.661 10.62z"></path>
  </symbol>
    <symbol version="1.1" xmlns="http://www.w3.org/2000/svg" viewBox="0 0 364 512" id="pin">
    <title></title>
    <g id="icomoon-ignore"></g>
    <path d="M181.678 243.2c-17.209 0-33.712-6.744-45.88-18.746s-19.005-28.28-19.005-45.254c0-16.974 6.836-33.252 19.005-45.255s28.672-18.745 45.88-18.745c17.208 0 33.713 6.743 45.88 18.745 12.169 12.002 19.005 28.281 19.005 45.255 0 8.405-1.678 16.727-4.94 24.492-3.261 7.764-8.040 14.82-14.065 20.762-6.025 5.944-13.178 10.658-21.050 13.874-7.871 3.218-16.31 4.873-24.831 4.873zM181.678 0c-48.184 0-94.394 18.88-128.465 52.486s-53.212 79.186-53.212 126.713c0 134.4 181.678 332.8 181.678 332.8s181.678-198.4 181.678-332.8c0-47.527-19.14-93.107-53.212-126.713s-80.281-52.486-128.466-52.486z"></path>
  </symbol>
    <symbol xmlns="http://www.w3.org/2000/svg" viewBox="0 0 512 512" id="chevron-down">
    <path d="M233.4 406.6c12.5 12.5 32.8 12.5 45.3 0l192-192c12.5-12.5 12.5-32.8 0-45.3s-32.8-12.5-45.3 0L256 338.7 86.6 169.4c-12.5-12.5-32.8-12.5-45.3 0s-12.5 32.8 0 45.3l192 192z"></path>
  </symbol>
</svg>