<svg width="48" height="48" viewBox="0 0 48 48" fill="none" xmlns="http://www.w3.org/2000/svg">
<g opacity="0.5">
<path fill-rule="evenodd" clip-rule="evenodd" d="M27 22C25.8954 22 25 22.8954 25 24C25 25.1046 25.8954 26 27 26C28.1046 26 29 25.1046 29 24C29 22.8954 28.1046 22 27 22ZM23 24C23 21.7909 24.7909 20 27 20C29.2091 20 31 21.7909 31 24C31 26.2091 29.2091 28 27 28C24.7909 28 23 26.2091 23 24Z" fill="#71758D"/>
<path fill-rule="evenodd" clip-rule="evenodd" d="M40 22C38.8954 22 38 22.8954 38 24C38 25.1046 38.8954 26 40 26C41.1046 26 42 25.1046 42 24C42 22.8954 41.1046 22 40 22ZM36 24C36 21.7909 37.7909 20 40 20C42.2091 20 44 21.7909 44 24C44 26.2091 42.2091 28 40 28C37.7909 28 36 26.2091 36 24Z" fill="#71758D"/>
<path fill-rule="evenodd" clip-rule="evenodd" d="M17.7071 11.2929C18.0976 11.6834 18.0976 12.3166 17.7071 12.7071L6.41421 24L17.7071 35.2929C18.0976 35.6834 18.0976 36.3166 17.7071 36.7071C17.3166 37.0976 16.6834 37.0976 16.2929 36.7071L4.29289 24.7071C3.90237 24.3166 3.90237 23.6834 4.29289 23.2929L16.2929 11.2929C16.6834 10.9024 17.3166 10.9024 17.7071 11.2929Z" fill="#71758D"/>
</g>
</svg>
