<svg width="561" height="10" viewBox="0 0 561 10" fill="none" xmlns="http://www.w3.org/2000/svg">
<path opacity="0.15" d="M1 1H85.322C85.6869 1 86.0489 1.0666 86.3899 1.19654L116.858 8.80347C117.199 8.9334 117.561 9 117.926 9H159.822C160.187 9 160.549 8.9334 160.89 8.80346L191.358 1.19653C191.699 1.0666 192.061 1 192.426 1H367.322C367.687 1 368.049 1.0666 368.39 1.19653L398.858 8.80346C399.199 8.9334 399.561 9 399.926 9H442.822C443.187 9 443.549 8.9334 443.89 8.80347L474.358 1.19654C474.699 1.0666 475.061 1 475.426 1H560" stroke="url(#paint0_linear_2_1368)" stroke-width="2" stroke-linecap="round" stroke-linejoin="round"/>
<defs>
<linearGradient id="paint0_linear_2_1368" x1="560" y1="1" x2="559.933" y2="12.3295" gradientUnits="userSpaceOnUse">
<stop stop-color="#1FDEA3"/>
<stop offset="1" stop-color="#7755EA"/>
</linearGradient>
</defs>
</svg>
