<svg width="44" height="46" viewBox="0 0 44 46" fill="none" xmlns="http://www.w3.org/2000/svg">
<path d="M36.3867 16.1719H25.262C23.5077 13.6595 20.6097 12.1289 17.5195 12.1289C14.4294 12.1289 11.5314 13.6595 9.77707 16.1719H0V26.9531H9.77707C11.5314 29.4655 14.4294 30.9961 17.5195 30.9961C20.6097 30.9961 23.5076 29.4655 25.262 26.9531H32.3438V32.3438H43.125V22.9102C43.125 19.1948 40.102 16.1719 36.3867 16.1719Z" fill="white"/>
<path d="M40.1704 38.1552C39.5466 37.1207 38.7543 35.6237 37.7344 33.7891C36.7078 35.6342 35.9142 37.1339 35.2891 38.1709C33.9441 40.4056 33.6914 40.861 33.6914 41.9573C33.6914 44.1867 35.505 46.0003 37.7344 46.0003C39.9638 46.0003 41.7773 44.1867 41.7773 41.9573C41.7773 40.8623 41.522 40.4043 40.1704 38.1552Z" fill="white"/>
<path d="M28.3008 0C26.5461 0 25.0642 1.13005 24.5061 2.69531H10.533C9.97481 1.13005 8.49293 0 6.73828 0C4.5089 0 2.69531 1.81359 2.69531 4.04297C2.69531 6.27235 4.5089 8.08594 6.73828 8.08594C8.49293 8.08594 9.97481 6.95588 10.533 5.39062H13.4766V10.1953C14.7655 9.73583 16.1164 9.43359 17.5195 9.43359C18.9226 9.43359 20.2736 9.73583 21.5625 10.1953V5.39062H24.5061C25.0642 6.95588 26.5461 8.08594 28.3008 8.08594C30.5302 8.08594 32.3438 6.27235 32.3438 4.04297C32.3438 1.81359 30.5302 0 28.3008 0Z" fill="white"/>
</svg>
