<svg width="55" height="25" viewBox="0 0 55 25" fill="none" xmlns="http://www.w3.org/2000/svg">
<path d="M1.71875 3.90625H12.0312C12.9817 3.90625 13.75 3.13625 13.75 2.1875C13.75 1.23875 12.9817 0.46875 12.0312 0.46875H1.71875C0.768281 0.46875 0 1.23875 0 2.1875C0 3.13625 0.768281 3.90625 1.71875 3.90625Z" fill="white"/>
<path d="M18.9062 3.90625H29.2188C30.1692 3.90625 30.9375 3.13625 30.9375 2.1875C30.9375 1.23875 30.1692 0.46875 29.2188 0.46875H18.9062C17.9558 0.46875 17.1875 1.23875 17.1875 2.1875C17.1875 3.13625 17.9558 3.90625 18.9062 3.90625Z" fill="white"/>
<path d="M36.0938 3.90625H46.4062C47.3567 3.90625 48.125 3.13625 48.125 2.1875C48.125 1.23875 47.3567 0.46875 46.4062 0.46875H36.0938C35.1433 0.46875 34.375 1.23875 34.375 2.1875C34.375 3.13625 35.1433 3.90625 36.0938 3.90625Z" fill="white"/>
<path d="M20.625 9.0625C20.625 8.11375 19.8567 7.34375 18.9062 7.34375H8.59375C7.64328 7.34375 6.875 8.11375 6.875 9.0625C6.875 10.0112 7.64328 10.7812 8.59375 10.7812H18.9062C19.8567 10.7812 20.625 10.0112 20.625 9.0625Z" fill="white"/>
<path d="M37.8125 9.0625C37.8125 8.11375 37.0442 7.34375 36.0938 7.34375H25.7812C24.8308 7.34375 24.0625 8.11375 24.0625 9.0625C24.0625 10.0112 24.8308 10.7812 25.7812 10.7812H36.0938C37.0442 10.7812 37.8125 10.0112 37.8125 9.0625Z" fill="white"/>
<path d="M41.25 9.0625C41.25 10.0112 42.0183 10.7812 42.9688 10.7812H53.2812C54.2317 10.7812 55 10.0112 55 9.0625C55 8.11375 54.2317 7.34375 53.2812 7.34375H42.9688C42.0183 7.34375 41.25 8.11375 41.25 9.0625Z" fill="white"/>
<path d="M13.75 15.9375C13.75 14.9888 12.9817 14.2188 12.0312 14.2188H1.71875C0.768281 14.2188 0 14.9888 0 15.9375C0 16.8862 0.768281 17.6562 1.71875 17.6562H12.0312C12.9817 17.6562 13.75 16.8862 13.75 15.9375Z" fill="white"/>
<path d="M18.9062 17.6562H29.2188C30.1692 17.6562 30.9375 16.8862 30.9375 15.9375C30.9375 14.9888 30.1692 14.2188 29.2188 14.2188H18.9062C17.9558 14.2188 17.1875 14.9888 17.1875 15.9375C17.1875 16.8862 17.9558 17.6562 18.9062 17.6562Z" fill="white"/>
<path d="M36.0938 17.6562H46.4062C47.3567 17.6562 48.125 16.8862 48.125 15.9375C48.125 14.9888 47.3567 14.2188 46.4062 14.2188H36.0938C35.1433 14.2188 34.375 14.9888 34.375 15.9375C34.375 16.8862 35.1433 17.6562 36.0938 17.6562Z" fill="white"/>
<path d="M18.9062 21.0938H8.59375C7.64328 21.0938 6.875 21.8638 6.875 22.8125C6.875 23.7612 7.64328 24.5312 8.59375 24.5312H18.9062C19.8567 24.5312 20.625 23.7612 20.625 22.8125C20.625 21.8638 19.8567 21.0938 18.9062 21.0938Z" fill="white"/>
<path d="M36.0938 21.0938H25.7812C24.8308 21.0938 24.0625 21.8638 24.0625 22.8125C24.0625 23.7612 24.8308 24.5312 25.7812 24.5312H36.0938C37.0442 24.5312 37.8125 23.7612 37.8125 22.8125C37.8125 21.8638 37.0442 21.0938 36.0938 21.0938Z" fill="white"/>
<path d="M53.2812 21.0938H42.9688C42.0183 21.0938 41.25 21.8638 41.25 22.8125C41.25 23.7612 42.0183 24.5312 42.9688 24.5312H53.2812C54.2317 24.5312 55 23.7612 55 22.8125C55 21.8638 54.2317 21.0938 53.2812 21.0938Z" fill="white"/>
</svg>
