<svg width="46" height="46" viewBox="0 0 46 46" fill="none" xmlns="http://www.w3.org/2000/svg">
<path d="M27.485 45.7281C26.91 46.0344 26.3258 46.0819 25.7324 45.8705C25.1375 45.6607 24.6867 45.2685 24.38 44.694L20.93 37.8003C20.6233 37.2259 20.5758 36.6422 20.7874 36.0493C20.9975 35.4549 21.39 35.0046 21.965 34.6982C22.54 34.3918 23.1242 34.3443 23.7176 34.5557C24.3125 34.7656 24.7633 35.1578 25.07 35.7322L28.52 42.6259C28.8267 43.2004 28.875 43.784 28.6649 44.3769C28.4533 44.9713 28.06 45.4217 27.485 45.7281ZM41.285 45.7281C40.71 46.0344 40.1258 46.0819 39.5324 45.8705C38.9375 45.6607 38.4867 45.2685 38.18 44.694L34.73 37.8003C34.4233 37.2259 34.3758 36.6422 34.5874 36.0493C34.7975 35.4549 35.19 35.0046 35.765 34.6982C36.34 34.3918 36.9242 34.3443 37.5176 34.5557C38.1125 34.7656 38.5633 35.1578 38.87 35.7322L42.32 42.6259C42.6267 43.2004 42.675 43.784 42.4649 44.3769C42.2533 44.9713 41.86 45.4217 41.285 45.7281ZM13.685 45.7281C13.11 46.0344 12.5258 46.0819 11.9324 45.8705C11.3375 45.6607 10.8867 45.2685 10.58 44.694L7.13 37.8003C6.82333 37.2259 6.7758 36.6422 6.9874 36.0493C7.19747 35.4549 7.59 35.0046 8.165 34.6982C8.74 34.3918 9.3242 34.3443 9.9176 34.5557C10.5125 34.7656 10.9633 35.1578 11.27 35.7322L14.72 42.6259C15.0267 43.2004 15.075 43.784 14.8649 44.3769C14.6533 44.9713 14.26 45.4217 13.685 45.7281ZM12.65 32.1705C9.16167 32.1705 6.18163 30.935 3.7099 28.464C1.23663 25.9945 0 23.0172 0 19.5321C0 16.3533 1.05417 13.5767 3.1625 11.2022C5.27083 8.82774 7.8775 7.42985 10.9825 7.00857C12.2092 4.82557 13.8866 3.11135 16.0149 1.86589C18.1416 0.621963 20.47 0 23 0C26.45 0 29.4492 1.10146 31.9976 3.30437C34.5475 5.50575 36.0908 8.25326 36.6275 11.5469C39.2725 11.7767 41.4958 12.8682 43.2975 14.8214C45.0992 16.7746 46 19.1108 46 21.83C46 24.7023 44.9941 27.1442 42.9824 29.1557C40.9691 31.1656 38.525 32.1705 35.65 32.1705H12.65Z" fill="white"/>
</svg>
