<svg width="33" height="68" viewBox="0 0 33 68" fill="none" xmlns="http://www.w3.org/2000/svg">
<path d="M24.4276 38.9525C23.8042 38.6219 23.417 37.9798 23.417 37.2772L23.0924 7.42564C23.0924 3.68764 19.8746 0.646484 15.9197 0.646484C11.9646 0.646484 8.74682 3.68764 8.74682 7.42564L9.07146 37.5586C9.07146 38.2363 8.70453 38.867 8.11395 39.2047C3.15745 42.0393 0.198242 47.0088 0.198242 52.4983C0.198242 61.0462 7.51122 68.0004 16.5002 68.0004C25.4892 68.0004 32.8022 61.0462 32.8022 52.4983C32.8022 46.8839 29.5933 41.6933 24.4276 38.9525ZM16.5002 62.2582C11.2364 62.2582 6.95396 57.9955 6.95396 52.7561C6.95396 48.4896 9.8432 44.7214 13.98 43.5926L14.3047 43.5042L13.98 12.0006C13.98 10.9536 14.8365 10.1018 15.8892 10.1018C16.942 10.1018 17.7984 10.9536 17.7984 12.0006L18.123 43.3859L18.473 43.4594C22.8612 44.381 26.0463 48.2908 26.0463 52.7561C26.0465 57.9955 21.7641 62.2582 16.5002 62.2582Z" fill="white"/>
<path d="M16.5 47.4921C13.5847 47.4921 11.2129 49.8535 11.2129 52.7558C11.2129 55.6581 13.5847 58.0195 16.5 58.0195C19.4153 58.0195 21.7871 55.6581 21.7871 52.7558C21.7871 49.8535 19.4153 47.4921 16.5 47.4921Z" fill="white"/>
</svg>
