<svg width="241" height="240" viewBox="0 0 241 240" fill="none" xmlns="http://www.w3.org/2000/svg">
<path d="M120.5 230.27C181.4 230.27 230.77 180.901 230.77 120C230.77 59.0994 181.4 9.72974 120.5 9.72974C59.5992 9.72974 10.2295 59.0994 10.2295 120C10.2295 180.901 59.5992 230.27 120.5 230.27Z" fill="#EAEAEA"/>
<path opacity="0.9" d="M149.328 81.1865C149.591 80.3763 150.011 79.6259 150.564 78.978C151.117 78.3302 151.793 77.7977 152.551 77.4108C153.31 77.024 154.138 76.7904 154.987 76.7234C155.837 76.6565 156.691 76.7574 157.501 77.0206L206.853 93.0568C208.489 93.5885 209.847 94.7481 210.628 96.2808C211.41 97.8134 211.55 99.5935 211.019 101.23L207.038 113.479L188.97 169.09C188.438 170.726 187.279 172.084 185.746 172.864C184.213 173.645 182.433 173.786 180.797 173.254L131.445 157.218C129.809 156.686 128.451 155.526 127.67 153.994C126.889 152.461 126.749 150.681 127.28 149.045L149.328 81.1865Z" fill="white"/>
<path d="M143.751 135.36L180.764 147.386L176.756 159.725L139.742 147.699L143.751 135.36Z" fill="#FDFDFD"/>
<path fill-rule="evenodd" clip-rule="evenodd" d="M161.494 133.132L172.743 124.943C172.95 124.792 173.19 124.692 173.443 124.652C173.696 124.612 173.955 124.632 174.199 124.711C174.443 124.79 174.664 124.926 174.845 125.107C175.026 125.288 175.162 125.51 175.241 125.753L182.219 147.289C182.311 147.573 182.323 147.877 182.253 148.168C182.183 148.459 182.034 148.725 181.823 148.936C181.611 149.148 181.346 149.297 181.055 149.366C180.764 149.436 180.46 149.424 180.175 149.332L154.894 141.117C154.89 141.116 154.887 141.114 154.883 141.113L148.745 139.119C148.464 139.028 148.214 138.862 148.02 138.639C147.827 138.416 147.698 138.144 147.648 137.853C147.597 137.562 147.627 137.263 147.734 136.988C147.841 136.713 148.022 136.473 148.255 136.292L157.927 128.823C158.135 128.662 158.38 128.555 158.64 128.51C158.9 128.465 159.167 128.484 159.418 128.565C159.669 128.647 159.896 128.788 160.08 128.977C160.263 129.166 160.398 129.397 160.473 129.65L161.494 133.132Z" fill="#E5E5E5"/>
<path opacity="0.8" d="M163.87 110.251C163.87 110.89 163.744 111.522 163.5 112.112C163.255 112.703 162.897 113.239 162.445 113.691C161.993 114.142 161.457 114.5 160.866 114.745C160.276 114.989 159.644 115.115 159.005 115.115C158.366 115.115 157.733 114.989 157.143 114.744C156.553 114.5 156.017 114.141 155.565 113.689C155.113 113.238 154.755 112.701 154.511 112.111C154.266 111.521 154.141 110.888 154.141 110.249C154.141 108.959 154.653 107.721 155.566 106.809C156.478 105.897 157.715 105.384 159.005 105.384C160.296 105.384 161.533 105.897 162.445 106.809C163.358 107.721 163.87 108.961 163.87 110.251Z" fill="#B7B7B7"/>
<path opacity="0.9" d="M30.0594 100.566C29.7963 99.7562 29.6953 98.9022 29.7623 98.053C29.8292 97.2038 30.0628 96.3761 30.4496 95.6171C30.8365 94.8582 31.369 94.1829 32.0169 93.6298C32.6647 93.0766 33.4151 92.6566 34.2253 92.3935L83.5761 76.3556C84.3864 76.0925 85.2406 75.9916 86.0899 76.0587C86.9392 76.1258 87.7669 76.3595 88.5259 76.7465C89.2848 77.1335 89.9601 77.6662 90.5132 78.3142C91.0662 78.9622 91.4862 79.7128 91.7491 80.5232L113.798 148.382C114.33 150.018 114.19 151.798 113.409 153.33C112.628 154.863 111.27 156.023 109.634 156.555L60.2816 172.589C58.6455 173.121 56.8654 172.98 55.3327 172.2C53.8 171.419 52.6402 170.061 52.1086 168.425L30.0594 100.566Z" fill="white"/>
<path fill-rule="evenodd" clip-rule="evenodd" d="M71.3717 115.913C71.167 115.978 70.9771 116.082 70.8129 116.219C70.6487 116.357 70.5135 116.526 70.4151 116.717C70.3167 116.908 70.2571 117.116 70.2397 117.329C70.2223 117.543 70.2475 117.758 70.3137 117.962C70.38 118.166 70.4861 118.355 70.6258 118.518C70.7655 118.68 70.9361 118.814 71.1277 118.91C71.3192 119.006 71.528 119.064 71.7419 119.079C71.9558 119.094 72.1706 119.066 72.3738 118.998L87.7971 113.987C88.0017 113.923 88.1916 113.819 88.3558 113.681C88.52 113.543 88.6552 113.374 88.7536 113.183C88.852 112.993 88.9116 112.785 88.929 112.571C88.9464 112.357 88.9213 112.142 88.855 111.938C88.7887 111.734 88.6827 111.546 88.543 111.383C88.4033 111.22 88.2327 111.087 88.0411 110.991C87.8495 110.894 87.6407 110.837 87.4268 110.822C87.2129 110.807 86.9981 110.834 86.7949 110.903L71.3733 115.913H71.3717ZM78.3884 137.505C78.1838 137.569 77.9939 137.673 77.8297 137.811C77.6655 137.949 77.5303 138.118 77.4319 138.309C77.3335 138.499 77.2739 138.708 77.2565 138.921C77.2391 139.135 77.2642 139.35 77.3305 139.554C77.3968 139.758 77.5028 139.947 77.6425 140.109C77.7822 140.272 77.9528 140.405 78.1444 140.502C78.336 140.598 78.5448 140.655 78.7587 140.671C78.9726 140.686 79.1874 140.658 79.3906 140.59L94.8122 135.579C95.0169 135.515 95.2068 135.411 95.371 135.273C95.5351 135.135 95.6703 134.966 95.7687 134.775C95.8671 134.585 95.9267 134.377 95.9442 134.163C95.9616 133.949 95.9364 133.734 95.8701 133.53C95.8039 133.326 95.6978 133.137 95.5581 132.975C95.4184 132.812 95.2478 132.679 95.0562 132.582C94.8646 132.486 94.6558 132.429 94.4419 132.414C94.228 132.399 94.0133 132.426 93.81 132.495L78.3884 137.505ZM72.3349 124.127C72.202 123.718 72.2371 123.273 72.4323 122.89C72.6276 122.507 72.967 122.217 73.376 122.084L88.7992 117.073C89.2068 116.945 89.6482 116.984 90.0276 117.18C90.407 117.376 90.6939 117.713 90.8258 118.119C90.9578 118.526 90.9242 118.967 90.7324 119.349C90.5406 119.73 90.2061 120.021 89.8014 120.157L74.3798 125.168C73.9708 125.301 73.5257 125.266 73.1426 125.071C72.7594 124.875 72.4678 124.536 72.3349 124.127ZM80.3927 143.674C79.9881 143.81 79.6535 144.101 79.4617 144.482C79.2699 144.864 79.2364 145.306 79.3683 145.712C79.5003 146.118 79.7871 146.456 80.1665 146.652C80.546 146.848 80.9874 146.886 81.3949 146.758L93.7322 142.75C94.1369 142.613 94.4714 142.323 94.6632 141.941C94.855 141.56 94.8886 141.118 94.7566 140.712C94.6247 140.306 94.3378 139.968 93.9584 139.772C93.579 139.576 93.1376 139.538 92.73 139.665L80.3927 143.674Z" fill="#E5E5E5"/>
<g opacity="0.8">
<path d="M61.1173 115.835L50.3216 119.343C49.4698 119.62 49.0037 120.535 49.2804 121.387L52.7882 132.182C53.0649 133.034 53.9798 133.5 54.8315 133.224L65.6273 129.716C66.4791 129.439 66.9452 128.524 66.6685 127.672L63.1607 116.877C62.8839 116.025 61.9691 115.559 61.1173 115.835Z" fill="#E5E5E5" stroke="#E5E5E5" stroke-width="1.5"/>
<path d="M68.132 137.427L57.3362 140.935C56.4844 141.212 56.0183 142.127 56.2951 142.979L59.8028 153.774C60.0796 154.626 60.9944 155.092 61.8462 154.815L72.642 151.308C73.4937 151.031 73.9599 150.116 73.6831 149.264L70.1753 138.469C69.8986 137.617 68.9837 137.151 68.132 137.427Z" fill="#E5E5E5" stroke="#E5E5E5" stroke-width="1.5"/>
<path fill-rule="evenodd" clip-rule="evenodd" d="M64.506 112.558C64.6131 112.146 64.5537 111.708 64.3406 111.339C64.1274 110.971 63.7777 110.7 63.3671 110.587C62.9564 110.474 62.5177 110.527 62.1458 110.735C61.7739 110.943 61.4986 111.288 61.3795 111.697L58.292 122.891L55.1963 121.315C55.0065 121.218 54.7994 121.159 54.5869 121.142C54.3744 121.125 54.1606 121.15 53.9578 121.216C53.755 121.282 53.5671 121.387 53.405 121.525C53.2428 121.664 53.1095 121.833 53.0127 122.022C52.9159 122.212 52.8575 122.42 52.8409 122.632C52.8242 122.845 52.8497 123.058 52.9157 123.261C52.9818 123.464 53.0872 123.652 53.2258 123.813C53.3645 123.975 53.5337 124.108 53.7238 124.205L58.5887 126.683C58.8031 126.792 59.0392 126.853 59.2799 126.86C59.5205 126.866 59.7597 126.82 59.98 126.723C60.2004 126.626 60.3963 126.481 60.5537 126.298C60.7111 126.116 60.8259 125.901 60.8898 125.669L64.506 112.558ZM71.3217 134.162C71.4361 133.747 71.3811 133.304 71.1688 132.93C70.9566 132.556 70.6044 132.281 70.1898 132.167C69.7752 132.053 69.3321 132.108 68.9581 132.32C68.584 132.532 68.3096 132.884 68.1952 133.299L65.1076 144.493L62.012 142.917C61.8217 142.815 61.613 142.752 61.3981 142.731C61.1832 142.711 60.9664 142.734 60.7604 142.799C60.5544 142.863 60.3634 142.968 60.1986 143.108C60.0337 143.247 59.8984 143.418 59.8005 143.61C59.7025 143.803 59.644 144.013 59.6283 144.228C59.6126 144.443 59.6401 144.66 59.7091 144.864C59.7781 145.069 59.8872 145.257 60.0301 145.419C60.173 145.581 60.3467 145.713 60.5411 145.806L65.406 148.286C65.6205 148.395 65.8565 148.455 66.0971 148.462C66.3376 148.469 66.5766 148.422 66.7968 148.324C67.0169 148.227 67.2127 148.082 67.3699 147.9C67.527 147.718 67.6417 147.503 67.7055 147.271L71.3217 134.162Z" fill="#A6A6A6"/>
</g>
<path d="M88.0674 60C88.0674 58.2797 88.7508 56.6299 89.9672 55.4134C91.1837 54.1969 92.8335 53.5135 94.5539 53.5135H130.23L152.932 76.2163V131.351C152.932 133.072 152.249 134.722 151.032 135.938C149.816 137.154 148.166 137.838 146.446 137.838H94.5539C92.8335 137.838 91.1837 137.154 89.9672 135.938C88.7508 134.722 88.0674 133.072 88.0674 131.351V60Z" fill="white"/>
<mask id="mask0_1_2427" style="mask-type:alpha" maskUnits="userSpaceOnUse" x="88" y="51" width="65" height="86">
<path d="M88.0674 58.3783C88.0674 56.658 88.7508 55.0081 89.9672 53.7917C91.1837 52.5752 92.8335 51.8918 94.5539 51.8918H130.23L152.932 74.5945V129.73C152.932 131.45 152.249 133.1 151.032 134.316C149.816 135.533 148.166 136.216 146.446 136.216H94.5539C92.8335 136.216 91.1837 135.533 89.9672 134.316C88.7508 133.1 88.0674 131.45 88.0674 129.73V58.3783Z" fill="white"/>
</mask>
<g mask="url(#mask0_1_2427)">
<path d="M130.229 72.9729V53.5134L152.932 76.2161H133.473C132.613 76.2161 131.788 75.8744 131.179 75.2662C130.571 74.658 130.229 73.833 130.229 72.9729Z" fill="white"/>
</g>
<path fill-rule="evenodd" clip-rule="evenodd" d="M114.273 82.427C114.122 82.051 113.863 81.7286 113.527 81.5016C113.192 81.2745 112.796 81.1532 112.391 81.1532C111.986 81.1532 111.59 81.2745 111.255 81.5016C110.919 81.7286 110.66 82.051 110.509 82.427L102.069 103.529C101.961 103.778 101.905 104.045 101.902 104.316C101.9 104.587 101.952 104.855 102.055 105.106C102.159 105.356 102.311 105.583 102.503 105.774C102.696 105.964 102.924 106.114 103.176 106.215C103.427 106.316 103.696 106.365 103.967 106.36C104.238 106.355 104.505 106.296 104.752 106.186C105 106.076 105.223 105.917 105.408 105.72C105.593 105.522 105.737 105.29 105.831 105.036L107.574 100.682H117.21L118.95 105.036C119.149 105.535 119.539 105.934 120.034 106.146C120.528 106.357 121.086 106.364 121.585 106.164C122.084 105.965 122.483 105.575 122.695 105.08C122.907 104.586 122.913 104.028 122.714 103.529L114.273 82.427ZM115.586 96.6276L112.392 88.6378L109.196 96.6276H115.586Z" fill="#C7C7C7"/>
<path fill-rule="evenodd" clip-rule="evenodd" d="M102.663 111.892C102.233 111.892 101.82 112.063 101.516 112.367C101.212 112.671 101.041 113.083 101.041 113.513C101.041 113.944 101.212 114.356 101.516 114.66C101.82 114.964 102.233 115.135 102.663 115.135H138.338C138.768 115.135 139.181 114.964 139.485 114.66C139.789 114.356 139.96 113.944 139.96 113.513C139.96 113.083 139.789 112.671 139.485 112.367C139.181 112.063 138.768 111.892 138.338 111.892H102.663ZM102.663 118.378C102.233 118.378 101.82 118.549 101.516 118.853C101.212 119.157 101.041 119.57 101.041 120C101.041 120.43 101.212 120.843 101.516 121.147C101.82 121.451 102.233 121.622 102.663 121.622H127.798C128.228 121.622 128.64 121.451 128.944 121.147C129.249 120.843 129.419 120.43 129.419 120C129.419 119.57 129.249 119.157 128.944 118.853C128.64 118.549 128.228 118.378 127.798 118.378H102.663Z" fill="#E0E0E0"/>
</svg>
