<svg width="363" height="502" viewBox="0 0 363 502" fill="none" xmlns="http://www.w3.org/2000/svg">
<path d="M13.3081 502C9.77856 502 6.39359 500.596 3.89784 498.096C1.4021 495.596 0 492.205 0 488.67V181.796C0 133.581 19.1223 87.3403 53.1601 53.2469C87.198 19.1535 133.363 0 181.5 0C229.637 0 275.802 19.1535 309.84 53.2469C343.878 87.3403 363 133.581 363 181.796V488.67C363 492.205 361.598 495.596 359.102 498.096C356.606 500.596 353.221 502 349.692 502H13.3081Z" fill="white"/>
<path d="M180.5 14C202.628 14 224.539 18.3544 244.982 26.8146C265.426 35.2747 284.001 47.675 299.648 63.3073C315.294 78.9397 327.706 97.4979 336.174 117.923C344.642 138.347 349 160.238 349 182.346V489H12V182.346C12 137.698 29.7526 94.8783 61.3525 63.3073C92.9524 31.7364 135.811 14 180.5 14Z" fill="#8AB1F6"/>
<path d="M206.446 70.5601C213.277 71.5645 220.529 73.5956 224.832 79.0417C227.973 83.3915 229.538 88.6929 229.267 94.063C229.267 101.339 227.294 108.482 226.429 115.713C225.564 122.945 225.852 130.735 229.778 136.873C235.566 145.979 247.41 148.903 255.35 156.157C258.424 158.967 260.873 162.401 262.536 166.231C264.199 170.061 265.038 174.202 264.999 178.382C264.959 182.562 264.041 186.686 262.305 190.484C260.57 194.282 258.056 197.667 254.928 200.417C248.807 205.276 241.582 208.528 233.903 209.881C208.797 215.506 182.692 212.269 157.098 209.881C144.457 208.676 131.637 207.649 119.75 203.185C107.862 198.721 96.7504 190.418 92.0707 178.633C90.3453 174.396 89.6826 169.797 90.1412 165.241C91.8046 151.626 105.134 142.162 118.463 139.283C124.274 138.011 130.639 137.498 135.208 133.681C141.573 128.369 142.039 118.95 143.37 110.736C144.87 99.8835 149.496 89.7109 156.677 81.4745C169.807 67.0335 188.703 67.904 206.446 70.5601Z" fill="#2D1026"/>
<path d="M329.096 414.598C325.741 417.272 322.152 419.637 318.372 421.663C305.854 428.328 290.699 432.283 276.563 434.549C264.312 436.453 251.937 437.448 239.54 437.526C234.377 437.526 231.298 437.526 231.298 437.526L230.478 437.703C223.188 439.303 168.595 451.033 142.827 453.255C115.22 455.477 23.3814 456.232 16.2913 401.957C9.20126 347.681 133.876 338.706 133.876 338.706L130.818 320.199L128.602 306.869L109.614 191.453C115.951 183.211 156.63 171.236 159.998 165.238C160.462 164.357 160.797 163.414 160.995 162.438C162.834 154.351 160.995 138 160.995 138L172.45 138.822L197.974 140.622C197.974 140.622 198.351 155.973 198.728 160.817C198.717 160.868 198.717 160.921 198.728 160.972C198.705 161.216 198.705 161.461 198.728 161.705C199.237 165.882 201.542 167.482 217.295 172.058C226.679 174.588 235.639 178.496 243.883 183.655L234.843 306.225L234.156 315.4L233.07 330.397C233.07 330.397 304.347 344.593 324.51 351.347C344.672 358.101 360.824 388.76 329.096 414.598Z" fill="#FFA3A3"/>
<path d="M329.622 416.555C324.662 420.115 319.397 423.226 313.889 425.852C302.778 431.626 290.689 433.7 278.334 435.84C265.334 438.069 252.401 437.534 239.29 437.601C239.975 429.831 239.075 422.002 236.645 414.593C230.468 394.884 227.09 384.717 227.09 384.717C227.09 384.717 199.579 405.585 192.29 402.196C185.002 398.808 181.602 388.663 175.424 391.495C170.959 393.633 166.645 396.077 162.513 398.808C162.513 398.808 90.0692 428.103 94.558 433.187C98.558 437.646 207.312 437.757 230.112 437.646C222.801 439.251 168.046 451.023 142.202 453.252C114.513 455.482 22.4032 456.24 15.2922 401.773C8.18116 347.306 133.224 338.298 133.224 338.298L130.158 319.727L233.912 315L232.823 330.049C232.823 330.049 304.311 344.296 324.533 351.074C331.12 353.401 336.821 357.727 340.847 363.452C344.873 369.177 347.023 376.017 347 383.023C346.727 389.548 345.03 395.933 342.027 401.727C339.024 407.521 334.79 412.583 329.622 416.555Z" fill="#FFCB7D"/>
<path d="M94 432C105.635 424.289 117.895 417.573 130.65 411.925C152.426 401.932 177.044 390.578 179.086 391.448C183.016 393.143 188.521 403.85 193.293 403.27C198.066 402.69 218.999 388.526 237.801 379.782C256.603 371.038 301 361 301 361" stroke="#2D1026" stroke-width="0.49" stroke-linecap="round" stroke-linejoin="round"/>
<path d="M95 366C107.79 368.423 120.394 371.767 132.719 376.008C145.042 380.276 156.371 387.081 166 396" stroke="#2D1026" stroke-width="0.49" stroke-linecap="round" stroke-linejoin="round"/>
<path d="M244 183.727L234.963 306.533C199.524 306.028 164.085 306.184 128.646 307L109 191.095C115.335 182.837 156.665 171.351 159.943 165.341C160.407 164.458 160.742 163.514 160.94 162.536C173.392 166.145 186.672 165.607 198.793 161C198.77 161.244 198.77 161.49 198.793 161.735C199.303 165.919 201.606 167.522 217.354 172.107C226.759 174.636 235.738 178.552 244 183.727Z" fill="#FFCB7D"/>
<path d="M199 162C188.594 161.375 175.917 157.802 171.422 149.54C170.367 147.939 169.876 146.036 170.027 144.129C170.177 142.221 170.96 140.418 172.254 139L198.146 140.809C198.146 140.809 198.528 156.239 198.91 161.107C198.933 161.419 198.955 161.71 199 162Z" fill="#FF7373"/>
<path d="M222.876 124.248C221.993 131.568 220.36 140.619 214.447 145.61C201.826 156.302 161.956 144.101 161.956 144.101C161.956 144.101 161.316 140.929 160.521 136.227C160.521 137.269 151.696 136.227 150.945 135.961C148.312 135.054 146.007 133.378 144.326 131.147C142.628 128.898 141.813 126.098 142.036 123.283C142.26 120.468 143.507 117.835 145.54 115.886C146.543 114.902 147.755 114.161 149.086 113.719C150.416 113.277 151.83 113.145 153.218 113.335C154.768 113.613 156.224 114.276 157.455 115.264C157.703 115.497 157.86 115.812 157.896 116.152C157.341 111.239 157.275 106.282 157.697 101.356C158.793 94.132 162.302 87.4982 167.648 82.547C172.994 77.5958 179.858 74.6223 187.109 74.1161C189.416 73.9613 191.731 73.9613 194.037 74.1161C194.701 74.1266 195.364 74.171 196.023 74.2492L196.972 74.3601H197.347H197.656L198.759 74.5376C203.18 75.23 207.38 76.9422 211.032 79.5399C214.684 82.1377 217.688 85.5504 219.809 89.5107C222.449 94.7647 223.874 100.55 223.979 106.436C224.096 112.394 223.727 118.351 222.876 124.248Z" fill="#FFA3A3"/>
<path d="M176 116C178.146 117.864 180.749 118.912 183.443 118.996C186.142 119.067 188.791 118.146 191 116.368" stroke="#2D1026" stroke-width="0.88" stroke-linecap="round" stroke-linejoin="round"/>
<path d="M207 115.818C207.739 116.574 208.629 117.159 209.61 117.532C210.591 117.905 211.64 118.058 212.684 117.98C213.729 117.903 214.744 117.596 215.662 117.082C216.579 116.567 217.377 115.857 218 115" stroke="#2D1026" stroke-width="0.88" stroke-linecap="round" stroke-linejoin="round"/>
<path d="M207.763 101.327C207.585 101.418 207.428 101.546 207.304 101.703C207.181 101.859 207.093 102.041 207.047 102.234C206.984 102.428 206.984 102.637 207.047 102.832C207.311 103.224 207.657 103.556 208.063 103.805C208.468 104.053 208.923 104.212 209.396 104.27C211.095 104.689 212.834 104.934 214.584 105C216.083 105 217.827 104.757 217.984 102.986C218.046 102.479 217.928 101.965 217.651 101.534C217.374 101.102 216.954 100.779 216.463 100.619C215.047 100.112 213.536 99.9128 212.035 100.035C210.534 100.157 209.077 100.598 207.763 101.327Z" fill="#2D1026"/>
<path d="M202.507 116C203.222 116.974 203.846 118.017 204.369 119.115C204.622 119.595 204.812 120.108 204.934 120.641C205.041 121.26 205.018 121.896 204.866 122.506C204.714 123.115 204.438 123.683 204.055 124.17C203.28 125.141 202.196 125.791 201 126" stroke="#2D1026" stroke-width="0.29" stroke-linecap="round" stroke-linejoin="round"/>
<path d="M196 125.515C196.184 125.32 196.449 125.168 196.761 125.081C197.072 124.995 197.414 124.977 197.741 125.03C198.067 125.084 198.362 125.206 198.586 125.379C198.811 125.552 198.955 125.769 199 126" stroke="#2D1026" stroke-width="0.29" stroke-linecap="round" stroke-linejoin="round"/>
<path d="M192 128C193.123 128.939 194.59 129.572 196.192 129.81C197.779 130.063 199.413 130.063 201 129.81" stroke="#2D1026" stroke-width="0.29" stroke-linecap="round" stroke-linejoin="round"/>
<path d="M197 73.326C196.337 78.2376 193.996 91.4096 187.128 101.389C178.492 113.914 163.407 114.427 163.407 114.427L160.735 123C160.47 122.397 160.183 121.817 159.918 121.214L159.079 119.428C158.814 118.825 158.526 118.245 158.261 117.642L157.842 116.771C157.709 116.481 157.599 116.191 157.444 115.901C157.335 115.699 157.239 115.49 157.157 115.275L157.025 114.941C157.002 114.845 157.002 114.746 157.025 114.65C156.992 114.406 156.992 114.158 157.025 113.914C157.036 113.802 157.036 113.69 157.025 113.579C157.025 113.021 157.025 112.462 157.025 111.904C157.025 110.877 157.025 109.828 157.025 108.801C157.025 106.97 157.157 105.14 157.334 103.309C157.334 102.55 157.488 101.791 157.577 101.076C158.595 93.7336 162.06 86.9615 167.401 81.8793C172.742 76.7971 179.639 73.7089 186.951 73.1251C189.252 72.9583 191.562 72.9583 193.864 73.1251C194.526 73.1251 195.189 73.1697 195.852 73.259C196.161 73.259 196.47 73.259 196.779 73.393L197 73.326Z" fill="#2D1026"/>
<path d="M145 118.807C146.095 118.242 147.302 117.967 148.519 118.003C149.736 118.04 150.926 118.387 151.989 119.016C154.101 120.318 155.782 122.28 156.802 124.634C157.842 126.974 158.581 129.451 159 132" stroke="#2D1026" stroke-width="0.29" stroke-linecap="round" stroke-linejoin="round"/>
<path d="M150 313.84L149.535 348C149.535 348 62.6285 324.775 56.2959 315.885C51.004 308.395 62.9384 273.657 73.6772 244.542C75.8914 238.652 77.9063 233.029 79.7884 227.895C90.9921 197.113 120.02 184 120.02 184L135.32 240.519L106.89 279.302L96.904 292.948L118.603 303.905C121.691 305.47 124.925 306.728 128.257 307.661L150 313.84Z" fill="#FFA3A3"/>
<path d="M135 240.34L106.866 279L74 244.261C76.1911 238.39 78.185 232.785 80.0474 227.667C91.0905 197.071 119.816 184 119.816 184L135 240.34Z" fill="#FFCB7D"/>
<path d="M286.878 308.306C278.082 317.612 262.69 325.814 235.403 297.252L196 248.905L216.009 226.555L237.602 244.992V243.688L243.781 184C243.781 184 256.754 194.81 270.452 226.467C275.583 238.367 279.989 250.571 283.645 263.009C289.978 283.811 292.507 302.425 286.878 308.306Z" fill="#FFA3A3"/>
<path d="M284 262.794L256.782 265L233 240.221L244.158 184C244.158 184 257.067 194.79 270.698 226.387C275.86 238.239 280.302 250.397 284 262.794Z" fill="#FFCB7D"/>
<path d="M141 311.276C148.096 311.681 155.21 311.681 162.306 311.276C167.938 310.514 187.886 307.578 188.242 309.841C188.598 312.105 167.805 318.805 167.805 318.805C167.805 318.805 200.442 318.984 200.442 321.449C200.442 323.914 175.686 327.298 175.686 327.298C175.686 327.298 201.199 328.799 200.999 331.444C200.798 334.088 175.508 334.85 175.508 334.85C175.508 334.85 199.685 338.615 199.685 341.572C199.685 344.53 175.864 343.276 175.864 343.276C175.864 343.276 194.431 348.945 193.318 351.567C192.851 352.687 184.546 351.388 175.508 350.446C163.152 349.147 149.148 347.802 149.148 347.802L141 311.276Z" fill="#FFA3A3"/>
<path d="M158.814 319C158.814 319 179.589 319.424 185.55 319.424C191.511 319.424 200.54 319.602 200.452 321.498C200.364 323.394 176.083 327.319 176.083 327.319C176.083 327.319 201.087 328.969 201 331.445C200.912 333.92 175.908 334.835 175.908 334.835C175.908 334.835 200.014 339.518 199.707 341.525C199.4 343.533 177.091 343.31 177.091 343.31C177.091 343.31 193.856 349.799 193.439 351.472C193.023 353.145 178.625 350.357 169.903 349.799C161.181 349.242 144 345.852 144 345.852" stroke="#2D1026" stroke-width="0.49" stroke-linecap="round" stroke-linejoin="round"/>
<path d="M89 289C89 289 106.457 298.397 118.639 303.576C130.821 308.754 138.332 311.388 151.52 311.946C164.707 312.504 188.245 306.679 188.982 310.071C189.72 313.464 167.345 319 167.345 319" stroke="#2D1026" stroke-width="0.49" stroke-linecap="round" stroke-linejoin="round"/>
<path d="M120.29 222L120 261.307L128 308" stroke="#2D1026" stroke-width="0.49" stroke-linecap="round" stroke-linejoin="round"/>
<path d="M216.906 227.727C214.453 224.992 212.517 221.849 211.189 218.447C209.693 213.764 202.637 185.617 200.627 189.338C198.618 193.059 198.126 210.546 198.126 210.546C198.126 210.546 154.606 196.998 153.333 200.194C152.06 203.389 177.248 216.215 177.248 216.215C177.248 216.215 148.554 210.065 147.058 214.026C145.562 217.988 173.474 225.123 173.474 225.123C173.474 225.123 147.549 223.635 147.549 227.837C147.549 232.039 176.98 234.731 176.98 234.731C176.98 234.731 155.856 242.37 157.106 245.346C158.357 248.323 190.065 245.587 190.065 245.587L198.863 252L218 227.574" fill="#FFA3A3"/>
<path d="M216 227C216 227 241.259 248.818 255.14 263.909L269 279" stroke="#2D1026" stroke-width="0.49" stroke-linecap="round" stroke-linejoin="round"/>
<path d="M232 214L241 249" stroke="#2D1026" stroke-width="0.49" stroke-linecap="round" stroke-linejoin="round"/>
<path d="M71 221C71 221 11.0243 192.999 16.3327 183.307C21.6411 173.615 71 221 71 221Z" fill="#D9F5FF"/>
<path d="M79 218C79 218 81.1908 152.101 92.145 153.009C103.099 153.917 79 218 79 218Z" fill="#D9F5FF"/>
<path d="M72 220C72 220 35.306 148.942 47.4721 143.279C59.6381 137.616 72 220 72 220Z" fill="#D9F5FF"/>
<path d="M284 215C284 215 245.137 161.641 254.438 155.415C263.738 149.19 284 215 284 215Z" fill="#D9F5FF"/>
<path d="M293 216C293 216 326.414 158.285 335.859 164.463C345.304 170.641 293 216 293 216Z" fill="#D9F5FF"/>
<path d="M286 214C286 214 287.296 134.173 301.229 135.006C315.162 135.84 286 214 286 214Z" fill="#D9F5FF"/>
<path d="M121 92.5L107.156 95.9776L118.637 104.571L104.551 102.372L111.925 114.779L99.7151 107.285L101.857 121.622L93.4224 109.955L90 124L86.5776 109.955L78.1211 121.622L80.2849 107.285L68.0748 114.779L75.4494 102.372L61.3405 104.571L72.8219 95.9776L59 92.5L72.8219 89.0224L61.3405 80.4295L75.4494 82.6282L68.0748 70.2212L80.2849 77.7147L78.1211 63.4006L86.5776 75.0673L90 61L93.4224 75.0673L101.857 63.4006L99.7151 77.7147L111.925 70.2212L104.551 82.6282L118.637 80.4519L107.156 89.0224L121 92.5Z" fill="white"/>
<path d="M337 286.5L332.907 288.076C332.038 288.415 331.249 288.93 330.59 289.59C329.93 290.249 329.415 291.038 329.076 291.907L327.5 296L325.924 291.907C325.581 291.037 325.062 290.247 324.399 289.588C323.736 288.928 322.944 288.414 322.071 288.076L318 286.5L322.071 284.902C322.946 284.568 323.74 284.055 324.403 283.395C325.067 282.735 325.585 281.944 325.924 281.071L327.5 277L329.076 281.071C329.405 281.946 329.917 282.74 330.578 283.4C331.239 284.061 332.032 284.573 332.907 284.902L337 286.5Z" fill="#FEDEDE"/>
<path d="M320 244.5L313.29 247.072C311.874 247.617 310.588 248.451 309.513 249.522C308.439 250.593 307.6 251.876 307.05 253.29L304.5 260L301.928 253.29C301.387 251.875 300.553 250.59 299.482 249.518C298.41 248.447 297.125 247.613 295.71 247.072L289 244.5L295.71 241.95C297.124 241.4 298.407 240.561 299.478 239.487C300.549 238.412 301.383 237.126 301.928 235.71L304.5 229L307.05 235.71C307.602 237.125 308.441 238.41 309.516 239.485C310.59 240.559 311.875 241.398 313.29 241.95L320 244.5Z" fill="#FEDEDE"/>
<path d="M323 126.512L319.122 128.093C318.301 128.431 317.554 128.944 316.928 129.6C316.303 130.256 315.812 131.042 315.487 131.907L313.989 136L312.513 131.907C312.191 131.037 311.701 130.247 311.076 129.587C310.45 128.927 309.702 128.41 308.878 128.07L305 126.488L308.878 124.907C309.702 124.567 310.45 124.05 311.076 123.39C311.701 122.729 312.191 121.94 312.513 121.07L313.989 117L315.487 121.07C315.807 121.944 316.295 122.738 316.921 123.403C317.547 124.067 318.296 124.587 319.122 124.93L323 126.512Z" fill="#FEDEDE"/>
<path d="M47 118.989L43.1444 120.399C42.317 120.715 41.5656 121.203 40.9392 121.829C40.3128 122.455 39.8256 123.207 39.5092 124.034L38.0551 128L36.5569 124.122C36.2463 123.274 35.757 122.503 35.1222 121.861C34.4874 121.218 33.7219 120.72 32.8776 120.399L29 118.901L32.8776 117.403C33.7029 117.089 34.453 116.605 35.0792 115.982C35.7055 115.36 36.1939 114.613 36.5129 113.789L38.0551 110L39.5092 113.789C39.8256 114.617 40.3128 115.368 40.9392 115.995C41.5656 116.621 42.317 117.108 43.1444 117.425L47 118.989Z" fill="#FEDEDE"/>
<path d="M108 176.989L104.13 178.487C103.311 178.815 102.569 179.306 101.949 179.932C101.329 180.557 100.844 181.303 100.526 182.122L99.0221 186L97.5184 182.122C97.1974 181.301 96.7096 180.554 96.0856 179.928C95.4616 179.303 94.7148 178.812 93.8919 178.487L90 176.989L93.8919 175.513C94.7189 175.191 95.47 174.701 96.098 174.076C96.7259 173.45 97.2171 172.702 97.5405 171.878L99.0442 168L100.548 171.878C100.871 172.702 101.363 173.45 101.991 174.076C102.618 174.701 103.37 175.191 104.197 175.513L108 176.989Z" fill="#FEDEDE"/>
<path d="M279 174.989L275.135 176.487C274.307 176.806 273.555 177.294 272.927 177.92C272.3 178.546 271.81 179.296 271.491 180.122L269.989 184L268.531 180.122C268.212 179.296 267.722 178.546 267.095 177.92C266.467 177.294 265.715 176.806 264.887 176.487L261 174.989L264.887 173.491C265.717 173.174 266.47 172.687 267.098 172.061C267.726 171.434 268.214 170.683 268.531 169.856L270.033 166L271.535 169.856C271.85 170.681 272.335 171.431 272.959 172.057C273.583 172.683 274.332 173.172 275.157 173.491L279 174.989Z" fill="#FEDEDE"/>
<path d="M51 305L44.2852 307.482C42.8941 308.019 41.6306 308.828 40.5722 309.857C39.5137 310.887 38.6827 312.116 38.13 313.469L35.6679 320L33.0939 313.469C32.5211 312.092 31.6572 310.847 30.5583 309.816C29.4594 308.785 28.1499 307.989 26.7148 307.482L20 305L26.7148 302.583C28.131 302.057 29.4171 301.245 30.4892 300.202C31.5614 299.16 32.3955 297.909 32.9372 296.531L35.5112 290L38.0628 296.531C38.6204 297.914 39.4704 299.167 40.5578 300.209C41.6451 301.252 42.9455 302.061 44.3747 302.583L51 305Z" fill="#FEDEDE"/>
<path d="M300 84.5112L285.938 87.9875L297.6 96.555L283.291 94.3795L290.76 106.782L278.357 99.2912L280.555 113.6L271.965 101.938L268.489 116L265.012 101.938L256.445 113.6L258.621 99.2912L246.218 106.782L253.709 94.3795L239.4 96.555L251.062 87.9875L237 84.5112L251.062 81.0349L239.4 72.445L253.709 74.6429L246.218 62.2403L258.621 69.7312L256.445 55.3998L265.012 67.0623L268.489 53L271.965 67.0623L280.555 55.3998L278.357 69.7312L290.76 62.2403L283.291 74.6429L297.6 72.445L285.938 81.0349L300 84.5112Z" fill="white"/>
<path d="M290.009 458.733C289.913 462.006 290.609 465.252 292.032 468.177C293.454 471.101 295.559 473.612 298.156 475.481C300.753 477.35 303.759 478.518 306.902 478.88C310.045 479.241 313.225 478.785 316.155 477.552C319.085 476.318 321.671 474.347 323.678 471.818C325.686 469.288 327.053 466.279 327.654 463.064C328.255 459.849 328.071 456.529 327.12 453.406C326.169 450.283 324.48 447.455 322.206 445.179C320.41 443.367 318.281 441.946 315.945 441C315.844 444.148 315.014 447.226 313.527 449.974C312.039 452.722 309.937 455.06 307.396 456.793C304.855 458.525 301.95 459.602 298.925 459.931C295.9 460.261 292.842 459.834 290.009 458.687V458.733Z" fill="#DFDEFE"/>
<path d="M58.9891 463.667C59.1086 467.273 58.2433 470.842 56.4878 473.985C54.7324 477.128 52.1543 479.723 49.0354 481.487C45.9166 483.251 42.3771 484.116 38.8039 483.987C35.2307 483.859 31.7613 482.741 28.7752 480.757C25.789 478.773 23.4011 475.998 21.8723 472.737C20.3436 469.476 19.7329 465.853 20.1071 462.266C20.4813 458.678 21.8259 455.263 23.994 452.394C26.1621 449.526 29.0702 447.313 32.4002 446C32.5045 449.145 33.3548 452.219 34.8798 454.963C36.4047 457.708 38.56 460.044 41.1645 461.774C43.7691 463.505 46.7471 464.58 49.8485 464.909C52.95 465.239 56.0845 464.813 58.9891 463.667Z" fill="#DFDEFE"/>
</svg>
