<svg width="676" height="960" viewBox="0 0 676 960" fill="none" xmlns="http://www.w3.org/2000/svg">
<g clip-path="url(#clip0_37_36372)">
<rect width="676" height="960" fill="#D7EDFF"/>
<path d="M-28.5012 977.008C-44.7814 906.005 6.56863 757.098 144.499 738.5C208.051 738.5 253.999 718.5 397.999 852C541.999 985.5 607.242 1018.75 657.771 977.008C808.726 852.301 474.266 642.99 489.566 526.214C499.94 447.028 549.498 392.191 657.771 383" stroke="url(#paint0_linear_37_36372)" stroke-width="128" stroke-linecap="round"/>
<path d="M-6 343C37.1667 323.219 110.741 257.759 147.396 187.317C206.75 73.2524 293.854 43.1949 447.25 126.431C569.967 193.02 664.882 203.502 697 200.419" stroke="url(#paint1_linear_37_36372)" stroke-width="128" stroke-linecap="round"/>
</g>
<defs>
<linearGradient id="paint0_linear_37_36372" x1="383.914" y1="383" x2="383.914" y2="927.827" gradientUnits="userSpaceOnUse">
<stop stop-color="white"/>
<stop offset="1" stop-color="#ECFAFF"/>
</linearGradient>
<linearGradient id="paint1_linear_37_36372" x1="332.396" y1="-144.858" x2="345.496" y2="343" gradientUnits="userSpaceOnUse">
<stop stop-color="#DFEAFF"/>
<stop offset="1" stop-color="white"/>
</linearGradient>
<clipPath id="clip0_37_36372">
<rect width="676" height="960" rx="20" fill="white"/>
</clipPath>
</defs>
</svg>
