<svg width="26" height="27" viewBox="0 0 26 27" fill="none" xmlns="http://www.w3.org/2000/svg">
<path d="M5.22889 11.685C7.30889 15.93 10.66 19.41 14.7478 21.57L17.9256 18.27C18.33 17.85 18.8933 17.73 19.3989 17.895C21.0167 18.45 22.75 18.75 24.5556 18.75C24.9386 18.75 25.306 18.908 25.5769 19.1893C25.8478 19.4706 26 19.8522 26 20.25V25.5C26 25.8978 25.8478 26.2794 25.5769 26.5607C25.306 26.842 24.9386 27 24.5556 27C18.043 27 11.7972 24.3134 7.19216 19.5312C2.5871 14.749 0 8.26302 0 1.5C0 1.10218 0.152182 0.720644 0.423068 0.43934C0.693954 0.158035 1.06135 0 1.44444 0H6.5C6.88309 0 7.25049 0.158035 7.52138 0.43934C7.79226 0.720644 7.94444 1.10218 7.94444 1.5C7.94444 3.375 8.23333 5.175 8.76778 6.855C8.92667 7.38 8.81111 7.965 8.40667 8.385L5.22889 11.685Z" fill="url(#paint0_linear_81_189)"/>
<defs>
<linearGradient id="paint0_linear_81_189" x1="13" y1="0" x2="13" y2="27" gradientUnits="userSpaceOnUse">
<stop stop-color="#F6C564"/>
<stop offset="1" stop-color="#90733B"/>
</linearGradient>
</defs>
</svg>
