<svg width="0" height="0" class="hidden">
    <symbol version="1.1" xmlns="http://www.w3.org/2000/svg" viewBox="0 0 470 512" id="trash">
        <path d="M217.707 12.448h37.212c11.74-0.001 21.813-0.001 30.099 0.677 8.731 0.713 17.339 2.283 25.602 6.493 12.377 6.306 22.438 16.369 28.747 28.746 4.209 8.262 5.779 16.871 6.491 25.601 0.625 7.638 0.672 16.794 0.676 27.373h89.777c11.783 0 21.334 9.552 21.334 21.334s-9.551 21.334-21.334 21.334h-23.111v228.442c0 17.916 0 32.647-0.979 44.638-1.015 12.435-3.192 23.786-8.613 34.425-8.438 16.559-21.899 30.022-38.457 38.457-10.639 5.421-21.99 7.597-34.428 8.613-11.99 0.981-26.722 0.979-44.635 0.979h-99.552c-17.915 0-32.648 0.002-44.637-0.979-12.436-1.015-23.788-3.192-34.428-8.613-16.558-8.435-30.020-21.899-38.458-38.457-5.421-10.639-7.596-21.99-8.612-34.425-0.98-11.991-0.98-26.722-0.979-44.638v-228.442h-23.111c-11.782 0-21.334-9.551-21.334-21.334s9.551-21.334 21.334-21.334h89.778c0.004-10.578 0.052-19.734 0.677-27.373 0.713-8.731 2.283-17.338 6.493-25.601 6.306-12.377 16.369-22.439 28.746-28.746 8.262-4.21 16.87-5.779 25.601-6.493 8.287-0.677 18.361-0.677 30.101-0.677zM102.090 144.004v227.555c0 19.021 0.016 32.005 0.838 42.050 0.8 9.798 2.258 14.91 4.103 18.532 4.346 8.529 11.281 15.464 19.811 19.81 3.622 1.846 8.734 3.305 18.531 4.104 10.047 0.822 23.029 0.837 42.049 0.837h97.778c19.021 0 32.002-0.015 42.050-0.837 9.796-0.8 14.91-2.259 18.53-4.104 8.531-4.346 15.466-11.281 19.813-19.81 1.846-3.623 3.303-8.734 4.104-18.533 0.819-10.046 0.837-23.029 0.837-42.050v-227.555h-268.444zM303.868 101.337c-0.007-10.817-0.066-18.165-0.534-23.898-0.499-6.092-1.351-8.46-1.986-9.705-2.214-4.349-5.752-7.884-10.099-10.1-1.246-0.634-3.614-1.486-9.704-1.984-6.342-0.518-14.656-0.535-27.454-0.535h-35.556c-12.797 0-21.113 0.017-27.453 0.535-6.092 0.498-8.46 1.35-9.705 1.984-4.349 2.216-7.884 5.752-10.1 10.1-0.635 1.245-1.487 3.613-1.984 9.705-0.469 5.734-0.526 13.082-0.534 23.898h135.11zM191.868 223.559c-11.782 0-21.334 9.551-21.334 21.333v111.113c0 11.781 9.552 21.334 21.334 21.334s21.334-9.553 21.334-21.334v-111.113c0-11.782-9.551-21.334-21.334-21.334zM280.757 223.559c-11.783 0-21.334 9.551-21.334 21.333v111.113c0 11.781 9.551 21.334 21.334 21.334s21.334-9.553 21.334-21.334v-111.113c0-11.782-9.551-21.334-21.334-21.334z"></path>
    </symbol>
    <symbol xmlns="http://www.w3.org/2000/svg" viewBox="0 0 512 512" id="clock">
        <path d="M464 256A208 208 0 1 1 48 256a208 208 0 1 1 416 0zM0 256a256 256 0 1 0 512 0A256 256 0 1 0 0 256zM232 120V256c0 8 4 15.5 10.7 20l96 64c11 7.4 25.9 4.4 33.3-6.7s4.4-25.9-6.7-33.3L280 243.2V120c0-13.3-10.7-24-24-24s-24 10.7-24 24z"></path>
    </symbol>
    <symbol xmlns="http://www.w3.org/2000/svg" viewBox="0 0 512 512" id="search">
        <path d="M416 208c0 45.9-14.9 88.3-40 122.7L502.6 457.4c12.5 12.5 12.5 32.8 0 45.3s-32.8 12.5-45.3 0L330.7 376c-34.4 25.2-76.8 40-122.7 40C93.1 416 0 322.9 0 208S93.1 0 208 0S416 93.1 416 208zM208 352a144 144 0 1 0 0-288 144 144 0 1 0 0 288z"></path>
    </symbol>
    <symbol xmlns="http://www.w3.org/2000/svg" viewBox="0 0 384 512" id="cross">
        <path d="M342.6 150.6c12.5-12.5 12.5-32.8 0-45.3s-32.8-12.5-45.3 0L192 210.7 86.6 105.4c-12.5-12.5-32.8-12.5-45.3 0s-12.5 32.8 0 45.3L146.7 256 41.4 361.4c-12.5 12.5-12.5 32.8 0 45.3s32.8 12.5 45.3 0L192 301.3 297.4 406.6c12.5 12.5 32.8 12.5 45.3 0s12.5-32.8 0-45.3L237.3 256 342.6 150.6z"></path>
    </symbol>
    <symbol version="1.1" xmlns="http://www.w3.org/2000/svg" viewBox="0 0 512 512" id="sort">
        <path d="M149.333 0h-64c-22.632 0-44.337 8.991-60.34 24.994s-24.994 37.708-24.994 60.34v64c0 22.631 8.991 44.337 24.994 60.34s37.708 24.994 60.34 24.994h64c22.631 0 44.337-8.99 60.34-24.994s24.994-37.708 24.994-60.34v-64c0-22.632-8.99-44.337-24.994-60.34s-37.708-24.994-60.34-24.994v0zM192 149.333c0 11.316-4.495 22.168-12.496 30.17s-18.854 12.496-30.17 12.496h-64c-11.316 0-22.169-4.495-30.17-12.496s-12.497-18.854-12.497-30.17v-64c0-11.316 4.495-22.169 12.497-30.17s18.854-12.497 30.17-12.497h64c11.316 0 22.168 4.495 30.17 12.497s12.496 18.854 12.496 30.17v64z"></path>
        <path d="M149.333 277.328h-64c-22.632 0-44.337 8.99-60.34 24.993s-24.994 37.707-24.994 60.341v64c0 22.63 8.991 44.336 24.994 60.339s37.708 24.992 60.34 24.992h64c22.631 0 44.337-8.989 60.34-24.992s24.994-37.709 24.994-60.339v-64c0-22.634-8.99-44.337-24.994-60.341s-37.708-24.993-60.34-24.993zM192 426.663c0 11.315-4.495 22.166-12.496 30.169-8.001 8-18.854 12.496-30.17 12.496h-64c-11.316 0-22.169-4.496-30.17-12.496-8.002-8.003-12.497-18.855-12.497-30.169v-64c0-11.315 4.495-22.169 12.497-30.169 8.002-8.003 18.854-12.498 30.17-12.498h64c11.316 0 22.168 4.495 30.17 12.498 8.001 8 12.496 18.855 12.496 30.169v64z"></path>
        <path d="M475.594 406.377l-48.918 48.854v-399.062l48.918 48.853c1.981 1.981 4.336 3.552 6.925 4.623s5.363 1.623 8.166 1.621c2.8-0.001 5.575-0.554 8.163-1.627s4.941-2.646 6.921-4.628c1.981-1.982 3.552-4.335 4.624-6.924 1.069-2.589 1.622-5.364 1.619-8.166 0-2.802-0.553-5.576-1.625-8.165-1.075-2.588-2.647-4.94-4.627-6.921l-55.19-55.104c-12-11.985-28.265-18.717-45.226-18.717s-33.229 6.732-45.229 18.717l-55.188 55.104c-1.982 1.981-3.555 4.332-4.628 6.921s-1.626 5.363-1.627 8.165c-0.001 2.802 0.55 5.577 1.621 8.166s2.642 4.942 4.623 6.924c1.981 1.982 4.332 3.555 6.921 4.628s5.363 1.626 8.166 1.627c2.8 0.001 5.575-0.55 8.166-1.621 2.589-1.072 4.941-2.642 6.921-4.623l48.918-48.853v399.062l-48.918-48.855c-1.981-1.981-4.333-3.552-6.921-4.621-2.592-1.072-5.366-1.623-8.166-1.623-2.803 0-5.578 0.553-8.166 1.625-2.589 1.075-4.94 2.647-6.921 4.63-1.981 1.981-3.551 4.333-4.623 6.921s-1.622 5.366-1.621 8.166c0.001 2.803 0.553 5.577 1.627 8.166s2.646 4.941 4.628 6.921l55.188 55.104c12 11.984 28.269 18.717 45.229 18.717s33.226-6.733 45.226-18.717l55.19-55.104c1.981-1.981 3.552-4.333 4.627-6.921 1.072-2.589 1.625-5.363 1.625-8.166 0.003-2.8-0.55-5.577-1.619-8.166-1.072-2.589-2.643-4.941-4.624-6.921-1.981-1.984-4.333-3.555-6.921-4.63-2.589-1.072-5.363-1.625-8.163-1.625-2.803 0-5.577 0.55-8.166 1.623-2.589 1.069-4.944 2.64-6.925 4.621z"></path>
    </symbol>
    <symbol xmlns="http://www.w3.org/2000/svg" viewBox="0 0 542 512" id="filter">
        <path d="M86.571 23.914c-20.884 3.423-38.803 12.98-53.599 28.587-44.687 47.136-27.94 124.433 32.357 149.347 9.632 3.979 16.266 5.63 26.977 6.713 28.301 2.861 56.645-7.607 76.344-28.194 8.27-8.644 12.638-14.988 17.582-25.538 24.7-52.707-5.107-114.668-62.118-129.131-11.281-2.861-26.546-3.587-37.543-1.784m24.147 44.808c18.739 3.397 35.175 20.057 38.348 38.871 4.116 24.402-10.644 47.573-34.794 54.622-7.573 2.211-19.891 2.023-27.617-.421-15.273-4.83-29.179-19.437-32.5-34.138-.541-2.393-.979-8.053-.974-12.578.016-13.557 4.269-23.563 14.171-33.337 11.279-11.132 27.278-15.936 43.366-13.019m189.64 26.973c-17.173 4.181-23.192 24.789-10.925 37.41 7.2 7.409-.106 6.974 112.604 6.701l99.765-.241 3.699-1.979c18.048-9.658 14.95-36.754-4.777-41.772-4.347-1.106-195.844-1.22-200.366-.119m123.835 220.961c-26.132 4.938-49.291 20.732-63.527 43.325-10.123 16.065-15.216 38.82-12.985 58.013 4.462 38.391 30.536 69.069 68.304 80.365 7.554 2.26 9.314 2.432 24.842 2.432 15.548 0 17.277-.17 24.841-2.44 51.999-15.606 80.423-67.711 64.396-118.048-4.786-15.03-11.59-26.229-22.675-37.318-12.044-12.049-26.777-20.515-43.065-24.748-11.054-2.873-29.457-3.597-40.131-1.581m26.673 44.691c18.92 3.566 35.283 20.824 37.885 39.959 2.154 15.841-2.506 29.498-13.97 40.945-9.833 9.817-19.824 13.911-33.954 13.911-14.079 0-23.946-4.046-33.907-13.904-15.077-14.92-18.853-36.11-9.754-54.728 6.17-12.625 19.964-23.584 32.872-26.115 5.676-1.113 15.119-1.144 20.828-.068M27.004 387.543c-12.108 2.047-20.471 14.055-18.08 25.96 1.414 7.04 5.735 12.672 12.301 16.032l5.296 2.71h99.43c99.315 0 99.435-.002 103.559-1.91 9.151-4.233 13.971-12.311 13.332-22.345-.677-10.628-7.771-18.379-18.713-20.445-5.767-1.088-190.688-1.091-197.125-.002" fill-rule="evenodd"></path>
    </symbol>
    <symbol xmlns="http://www.w3.org/2000/svg" viewBox="0 0 448 512" id="plus">
        <path d="M256 80c0-17.7-14.3-32-32-32s-32 14.3-32 32V224H48c-17.7 0-32 14.3-32 32s14.3 32 32 32H192V432c0 17.7 14.3 32 32 32s32-14.3 32-32V288H400c17.7 0 32-14.3 32-32s-14.3-32-32-32H256V80z"></path>
    </symbol>
    <symbol xmlns="http://www.w3.org/2000/svg" viewBox="0 0 512 512" id="chevron-down">
        <path d="M233.4 406.6c12.5 12.5 32.8 12.5 45.3 0l192-192c12.5-12.5 12.5-32.8 0-45.3s-32.8-12.5-45.3 0L256 338.7 86.6 169.4c-12.5-12.5-32.8-12.5-45.3 0s-12.5 32.8 0 45.3l192 192z"></path>
    </symbol>
    <symbol xmlns="http://www.w3.org/2000/svg" viewBox="0 0 489 512" id="user">
        <path d="M226.57 10.179c-60.475 9.042-105.105 60.61-105.105 121.444 0 20.239 5.797 42.429 15.56 59.563 37.342 65.535 121.838 83.109 181.64 37.78 24.847-18.834 41.805-47.253 46.885-78.574 1.369-8.444 1.572-27.681.373-35.477-7.196-46.805-36.92-83.036-81.488-99.327-16.18-5.914-39.75-8.117-57.865-5.409m37.082 47.638c26.223 6.897 47.309 28.05 54.32 54.491 2.366 8.924 2.899 23.788 1.179 32.912-9.268 49.186-61.952 76.346-107.123 55.224-21.243-9.933-36.868-29.416-42.192-52.61-2.126-9.261-1.956-24.49.379-34.041 3.331-13.626 10.184-25.881 20.035-35.828 11.693-11.808 25.294-18.679 43.655-22.057 5.078-.934 23.412.243 29.747 1.909M131.471 308.174c-45.402 4.416-86.729 36.789-102.122 79.996-9.783 27.462-9.744 54.614.107 74.177 3.635 7.218 6.775 11.605 12.874 17.983 9.036 9.449 18.332 15.225 31.835 19.78l6.928 2.337 160.147.227c177.616.252 165.727.589 179.85-5.105 20.044-8.083 35.522-24.892 42.08-45.699 7.494-23.779 1.808-58.577-13.816-84.55-15.151-25.186-38.923-44.19-67.011-53.571-18.956-6.332-11.819-6.004-134.176-6.162-60.065-.078-112.578.187-116.696.587m230.389 47.841c26.978 7.153 47.178 26.497 55.084 52.748 1.886 6.259 2.21 8.856 2.286 18.297.085 10.749.032 11.103-2.33 15.367-3.086 5.572-8.358 10.206-14.019 12.324-4.433 1.659-5.084 1.665-159.86 1.454l-155.409-.213-3.826-1.884c-5.178-2.551-10.249-7.776-12.804-13.193-1.922-4.074-2.105-5.336-2.006-13.855.34-29.365 19.096-56.112 47.433-67.644 5.71-2.324 15.029-4.623 20.918-5.162 1.793-.164 51.488-.248 110.433-.187l107.173.111 6.927 1.837" fill-rule="evenodd"></path>
    </symbol>

    <symbol xmlns="http://www.w3.org/2000/svg" viewBox="0 0 512 512" id="calendar">
        <path d="M169.351 1.551c-4.69 2.203-7.736 6.081-8.848 11.266-.511 2.384-.93 12.511-.93 22.506v18.173l-15.146.528c-19.046.663-31.432 2.976-48 8.961-27.968 10.104-55.381 32.386-72.889 59.247C10.727 141.886 2.712 165.741.842 189.78-.182 202.946-.191 328.161.83 352.427c1.31 31.117 5.197 54.127 11.795 69.832 9.913 23.592 28.484 46.672 49.708 61.775 10.227 7.278 28.018 16.212 37.829 18.997 27.77 7.882 46.116 8.933 155.838 8.933s128.068-1.051 155.838-8.933c9.75-2.767 27.53-11.679 37.869-18.981 10.394-7.342 27.001-23.949 34.343-34.343 7.302-10.339 16.214-28.119 18.981-37.869 4.97-17.512 6.965-32.275 8.128-60.155 1.044-25.027 1.043-148.48-.001-161.903-1.87-24.039-9.885-47.894-22.696-67.548-17.508-26.861-44.921-49.143-72.889-59.247-16.568-5.985-28.954-8.298-48-8.961l-15.146-.528V35.323c0-21.741-.706-25.984-5.043-30.324-6.117-6.122-14.92-6.517-21.41-.962C320.218 8.964 320 10.032 320 33.253V53.76H192.082l-.254-21.7c-.284-24.186-.109-23.445-6.799-28.859-4.042-3.272-10.726-3.975-15.678-1.65M159.699 99.2c.262 12.04.536 14.316 2.084 17.28 3.523 6.746 11.868 10.36 18.709 8.103 4.452-1.47 9.591-6.354 10.633-10.107.476-1.714.868-8.972.87-16.129L192 85.333h128l.005 13.014c.002 7.157.394 14.415.87 16.129 1.042 3.753 6.181 8.637 10.633 10.107 6.841 2.257 15.186-1.357 18.709-8.103 1.549-2.966 1.822-5.24 2.085-17.364l.304-13.951 12.497.592c32.815 1.554 56.794 11.45 78.515 32.402 17.671 17.045 28.251 35.79 33.544 59.431l1.985 8.863v87.04c0 91.266-.217 97.75-3.905 116.984-4.289 22.366-14.888 41.358-32.14 57.585-18.734 17.622-36.955 25.718-66.154 29.393-30.598 3.852-211.389 3.833-242.121-.024-28.757-3.61-47.006-11.676-65.508-28.955-17.559-16.398-28.228-35.403-32.561-57.999-3.688-19.234-3.905-25.718-3.905-116.984v-87.04l1.991-8.89c2.586-11.555 5.309-19.083 10.564-29.208 13.388-25.794 38.589-47.463 65.838-56.61 12.216-4.101 24.152-5.866 42.48-6.283l5.672-.129.301 13.867m-30.419 89.098c-3.818 2.013-6.48 4.654-7.79 7.728-.968 2.272-1.17 19.532-1.17 100.087 0 95.199.037 97.414 1.683 100.64 5.54 10.86 20.294 11.42 27.407 1.04l2.057-3.001.253-96.916c.171-65.658-.035-97.911-.64-100-.491-1.697-1.727-4.145-2.746-5.441-3.899-4.957-13.531-7.049-19.054-4.137m120.32-.209c-3.366 1.503-6.843 5.278-8.488 9.217-1.172 2.804-1.325 14.298-1.325 99.019v95.847l1.92 3.758c1.056 2.067 3.395 4.932 5.199 6.367 2.933 2.334 3.892 2.61 9.094 2.61s6.161-.276 9.094-2.61c1.804-1.435 4.143-4.3 5.199-6.367l1.92-3.758-.018-96.033c-.018-91.653-.091-96.188-1.599-99.446-1.84-3.973-5.476-7.615-8.892-8.905-3.257-1.231-8.991-1.088-12.104.301m119.4.409c-4.066 1.847-6.828 5.053-8.08 9.378-.605 2.089-.811 34.342-.64 100l.253 96.916 2.057 3.001c2.835 4.137 7.04 6.816 11.486 7.317 6.908.779 12.797-2.362 16.134-8.604l1.897-3.546v-95.573c0-52.566-.304-97.002-.674-98.749-1.956-9.214-13.241-14.315-22.433-10.14" fill-rule="evenodd"></path>
    </symbol>
    <symbol xmlns="http://www.w3.org/2000/svg" viewBox="0 0 512 512" id="home">
        <path d="M243.315 1.75c-37.855 3.097-67.597 20.597-119.582 70.364-43.342 41.494-84.267 83.613-94.559 97.321-15.197 20.239-23.33 40.033-27.154 66.085C.762 244.095.536 256.412.233 333.137c-.305 76.948-.181 88.855.998 96.302 2.202 13.9 7.274 27.016 15.098 39.041 4.51 6.933 19.114 21.614 25.911 26.049 25.427 16.59 56.493 20.764 84.44 11.343 26.604-8.969 49.187-30.631 58.927-56.526 5.118-13.605 5.684-17.704 6.37-46.146.72-29.884 1.485-34.237 8.094-46.091 3.999-7.171 16.547-19.988 23.649-24.156 19.081-11.197 45.051-11.184 64.28.034 7.48 4.363 19.355 16.244 23.703 23.716 6.734 11.571 8.282 20.273 8.291 46.599.007 22.011.967 29.848 5.216 42.561 7.927 23.723 26.415 44.642 48.977 55.416 22.751 10.866 49.164 12.531 72.493 4.572 14.465-4.936 25.34-11.806 36.791-23.244 11.992-11.977 18.757-22.896 23.82-38.447 4.84-14.866 4.855-15.245 4.476-111.023-.305-77.126-.524-88.997-1.802-97.617-4.434-29.917-14.058-50.977-34.285-75.03-15.072-17.923-89.474-91.506-113.177-111.931-25.422-21.907-45.071-34.352-64.526-40.87-10.391-3.481-17.75-4.918-30.495-5.952-11.784-.957-12.305-.957-24.167.013m28.067 32.431c22.184 2.766 45.514 16.234 76.702 44.282 25.422 22.861 92.677 90.033 105.135 105.004 13.066 15.7 20.215 30.674 24.039 50.346 1.672 8.597 1.756 12.601 2.075 98.85.378 101.947.669 96.861-6.36 111.068-3.394 6.858-5.26 9.358-12.145 16.268-7.01 7.035-9.256 8.708-16.241 12.097-9.849 4.78-17.781 6.624-28.486 6.624-10.915 0-18.996-1.844-28.674-6.543-6.962-3.38-9.236-5.074-16.288-12.133-6.979-6.986-8.79-9.408-12.193-16.311-5.521-11.199-6.487-16.642-6.505-36.693-.028-29.519-2.379-43.811-9.776-59.426-4.993-10.542-9.015-16.458-16.69-24.552-18.9-19.93-42.951-30.369-69.975-30.369-27.024 0-51.075 10.439-69.975 30.369-7.671 8.09-11.697 14.011-16.681 24.533-7.477 15.784-9.738 29.531-9.778 59.445-.027 20.051-.994 25.502-6.512 36.693-3.403 6.903-5.214 9.325-12.193 16.311-7.052 7.059-9.326 8.753-16.288 12.133-9.678 4.699-17.759 6.543-28.674 6.543-10.712 0-18.642-1.846-28.486-6.63-6.967-3.386-9.25-5.085-16.249-12.095-6.882-6.893-8.766-9.409-12.172-16.262-6.987-14.055-6.703-9.073-6.325-111.07.319-86.249.403-90.253 2.075-98.85 4.575-23.536 13.644-39.902 34.158-61.645 23.183-24.571 75.333-76.002 95.016-93.704 30.439-27.378 54.616-41.528 75.544-44.214 8.437-1.083 23.523-1.116 31.922-.069" fill-rule="evenodd"></path>
    </symbol>
    <symbol xmlns="http://www.w3.org/2000/svg" viewBox="0 0 512 512" id="audio">
        <path d="M417.707 63.703c-56.644 8.966-208.099 34.89-211.693 36.235-9.606 3.594-18.505 13.295-21.434 23.369-1.371 4.711-1.511 12.857-1.762 102.134l-.273 97.015-3.714-2.506c-5.764-3.89-15.593-8.273-23.098-10.299-5.518-1.49-9.197-1.843-19.2-1.843-14.085 0-21.435 1.511-32.232 6.626-17.38 8.234-29.629 20.321-37.699 37.2-5.57 11.652-7.155 18.865-7.208 32.793-.053 14.233 1.664 21.961 7.613 34.264 10.706 22.137 30.214 37.04 55.154 42.133 10.425 2.129 18.319 2.129 28.745 0 30.081-6.143 52.308-26.868 60.881-56.771l1.957-6.826.435-133.291c.332-101.886.675-133.532 1.456-134.313.848-.847 160.785-28.094 200.259-34.115 11.586-1.768 11.875-1.772 13.444-.203 1.551 1.552 1.596 4.556 1.386 93.393l-.217 91.791-7.254-4.163c-3.989-2.289-10.901-5.378-15.36-6.865-7.811-2.604-8.634-2.703-22.613-2.729-17.312-.031-21.21.82-34.987 7.636-20.051 9.92-34.717 27.768-40.655 49.472-2.572 9.402-2.76 27.795-.378 37.101 3.361 13.135 8.731 23.701 16.615 32.689 15.134 17.253 33.076 25.909 55.628 26.837 22.119.911 40.818-6.034 56.445-20.964 10.867-10.382 18.276-22.995 22.244-37.868l1.888-7.075V224c0-123.754-.081-130.827-1.551-135.68-3.049-10.063-9.877-17.762-19.768-22.29-4.039-1.849-6.458-2.325-12.74-2.508-4.265-.123-8.906-.042-10.314.181m-21.84 234.571c15.791 3.722 29.663 17.323 33.908 33.246 1.531 5.739 1.456 17.698-.148 23.858-5.224 20.057-24.203 34.632-45.029 34.583-19.703-.047-38.369-13.741-44.173-32.406-2.379-7.65-2.376-20.523.007-28.238 4.528-14.661 18.123-27.391 33.142-31.032 6.525-1.582 15.61-1.586 22.293-.011m-246.534 41.923c14.906 4.091 27.452 16.589 31.919 31.798 1.974 6.719 1.811 19.756-.333 26.697-2.93 9.488-10.589 19.432-19.658 25.522-13.707 9.207-35.748 9.207-49.456 0-9.068-6.09-16.727-16.034-19.658-25.522-2.143-6.941-2.306-19.978-.332-26.697 7.219-24.58 32.632-38.629 57.518-31.798" fill-rule="evenodd"></path>
    </symbol>
    <symbol xmlns="http://www.w3.org/2000/svg" viewBox="0 0 512 512" id="video">
        <path d="M127.674 57.269c-5.63 1.322-13.223 5.951-17.579 10.717-4.325 4.732-7.02 10.549-8.83 19.054-1.434 6.743-1.434 340.563 0 347.307 2.878 13.525 8.722 21.645 19.365 26.905 11.062 5.467 20.527 4.964 33.972-1.807 7.31-3.681 249.288-164.911 256.445-170.869 9.359-7.791 13.913-16.917 13.913-27.883 0-10.965-4.554-20.091-13.913-27.882-7.126-5.933-249.119-167.18-256.396-170.845-10.531-5.303-18.491-6.689-26.977-4.697m139.232 115.872c67.452 44.978 123.697 82.772 124.987 83.985 1.291 1.213 2.347 2.819 2.347 3.567 0 .749-1.056 2.355-2.347 3.568-3.133 2.945-246.489 165.192-251.707 167.814-5.46 2.744-7.507 1.88-8.241-3.478-.695-5.063-.695-330.744 0-335.807.734-5.358 2.781-6.222 8.241-3.478 2.244 1.127 59.268 38.85 126.72 83.829" fill-rule="evenodd"></path>
    </symbol>
    <symbol version="1.1" xmlns="http://www.w3.org/2000/svg" viewBox="0 0 512 512" id="document">
        <path d="M330 150c-19.298 0-35-15.701-35-35v-115h-178.999c-30.327 0-55 24.673-55 55v402.001c0 30.326 24.673 54.999 55 54.999h280.002c30.326 0 54.999-24.673 54.999-54.999v-307.001h-121.001zM143 360h72.72c8.284 0 15 6.715 15 14.999s-6.716 15.002-15 15.002h-72.72c-8.284 0-15-6.717-15-15.002s6.716-14.999 15-14.999zM128 294.999c0-8.284 6.716-14.999 15-14.999h220c8.284 0 14.999 6.715 14.999 14.999s-6.715 15.002-14.999 15.002h-220c-8.284 0-15-6.717-15-15.002zM363 200c8.284 0 14.999 6.716 14.999 15s-6.715 15-14.999 15h-220c-8.284 0-15-6.716-15-15s6.716-15 15-15h220z"></path>
        <path d="M325 115c0 2.757 2.243 5 5 5h114.314c-2.757-5.105-6.305-9.739-10.514-13.732l-96.423-91.222c-3.699-3.499-7.865-6.468-12.375-8.825l-0.002 108.779z"></path>
    </symbol>
    <symbol xmlns="http://www.w3.org/2000/svg" viewBox="0 0 512 512" id="edit">
        <path d="M403.058 5.53c-12.016 2.18-22.533 6.479-33.991 13.895-4.617 2.988-37.711 35.564-145.75 143.474C146.439 239.683 81.481 305.195 78.966 308.48c-2.516 3.285-5.976 8.545-7.69 11.688-1.714 3.143-15.604 38.087-30.868 77.653-30.452 78.938-30.437 78.892-27.176 87.433 3.405 8.915 11.926 14.776 21.506 14.791 4.916.008 10.521-1.999 77.653-27.801 39.796-15.294 75.236-29.339 78.756-31.21 3.52-1.871 9.088-5.466 12.373-7.988 9.199-7.062 284.475-283.012 288.804-289.51 4.892-7.346 9.773-17.862 12.556-27.056 2.171-7.17 2.325-8.729 2.325-23.467 0-14.668-.163-16.33-2.297-23.466-11.833-39.562-46.373-65.546-86.673-65.203-4.984.042-11.813.576-15.177 1.186m22.755 45.708c30.095 4.768 45.329 39.666 28.48 65.242-1.546 2.347-62.538 63.978-135.538 136.959L186.027 386.131l-30.079-30.079-30.079-30.079 132.692-132.728c72.981-73 134.612-133.999 136.959-135.552 9.207-6.096 19.164-8.218 30.293-6.455M143.952 410.146c-.645.644-67.405 25.939-67.695 25.649-.195-.196 5.496-15.589 12.647-34.209l13.003-33.854 21.121 21.109c11.616 11.609 21.032 21.197 20.924 21.305m130.233 32.765C264.257 444.898 256 455.152 256 465.493c0 7.794 4.757 15.834 11.947 20.188 5.282 3.2 7.817 3.279 104.756 3.279 103.726 0 99.382.207 106.674-5.076 4.288-3.106 7.615-8.6 8.882-14.668 1.944-9.311-3.32-19.498-12.502-24.194l-5.022-2.569-96.488-.128c-53.068-.071-98.096.193-100.062.586" fill-rule="evenodd"></path>
    </symbol>
    <symbol xmlns="http://www.w3.org/2000/svg" viewBox="0 0 491 512" id="refresh">
        <path d="M230.77 51.217c-1.575.186-6.363.72-10.638 1.186-23.112 2.518-46.35 9.763-69.251 21.591-25.409 13.123-39.648 24.681-70.786 57.456l-17.493 18.413-.409-31.764c-.395-30.657-.471-31.881-2.191-35.094-6.956-12.995-24.481-15.614-34.337-5.13-6.017 6.399-5.59.936-5.846 74.744-.209 60.325-.107 66.609 1.139 69.889 1.705 4.491 6.126 9.462 10.492 11.799l3.329 1.782h67.513c64.249 0 67.651-.073 70.376-1.522 7.144-3.797 12.275-11.883 12.275-19.345 0-8.284-5.866-16.659-13.773-19.663-4.032-1.532-6.433-1.614-47.302-1.614H80.814l5.586-6.342c16.946-19.241 44.847-48.064 53.781-55.56 18.762-15.742 40.058-26.886 63.175-33.057 23.856-6.368 48.863-7.152 73.978-2.318 24.249 4.668 51.322 17.44 70.781 33.392 8.521 6.986 21.466 20.622 28.019 29.515 13.115 17.799 19.041 30.469 27.672 59.166 3.377 11.229 9.363 16.641 19.412 17.552 5.875.533 11.012-1.239 15.594-5.378 7.178-6.485 8.611-13.969 5.12-26.741-10.607-38.813-28.622-69.359-56.875-96.431-31.051-29.755-69.14-48.284-112.915-54.931-8.185-1.242-37.305-2.314-43.372-1.595M59.329 276.783c-7.407 2.64-12.801 8.984-14.283 16.801-1.227 6.471 3.229 23.268 11.558 43.569 15.231 37.123 46.069 72.598 82.223 94.588 11.273 6.857 15.922 9.206 28.177 14.244 54.596 22.442 115.214 20.525 168.104-5.315 23.361-11.414 36.216-20.797 58.498-42.702 8.783-8.635 20.021-20.102 24.971-25.483l9.002-9.783.409 30.802c.388 29.201.5 30.997 2.147 34.557 3.81 8.239 10.592 12.612 19.561 12.612 7.148 0 12.622-2.539 16.535-7.669 5.31-6.962 5.201-5.281 4.948-76.707l-.228-64.561-2.039-3.993c-1.122-2.196-3.475-5.221-5.23-6.723-6.399-5.478-3.754-5.304-76.674-5.056l-65.812.224-3.384 1.809c-4.01 2.145-7.988 5.962-9.931 9.529-1.929 3.543-1.959 15.474-.046 18.94 1.941 3.517 6.201 7.623 10.044 9.681 3.256 1.743 4.126 1.783 47.408 2.185l44.09.409-9.311 10.629c-12.069 13.777-44.452 46.71-52.039 52.923-45.235 37.043-108.057 46.759-162.593 25.147-39.578-15.684-72.012-47.032-89.15-86.165-3.388-7.735-5.007-12.519-9.462-27.952-2.289-7.929-5.331-11.86-11.602-14.994-5.469-2.733-11.041-3.275-15.891-1.546" fill-rule="evenodd"></path>
    </symbol>
    <symbol version="1.1" xmlns="http://www.w3.org/2000/svg" viewBox="0 0 320 512" id="move">
        <path d="M125.867 51.2c0 28.277-22.923 51.2-51.2 51.2s-51.2-22.923-51.2-51.2c0-28.277 22.923-51.2 51.2-51.2s51.2 22.923 51.2 51.2z"></path>
        <path d="M125.867 256c0 28.277-22.923 51.2-51.2 51.2s-51.2-22.923-51.2-51.2c0-28.277 22.923-51.2 51.2-51.2s51.2 22.923 51.2 51.2z"></path>
        <path d="M125.867 460.8c0 28.277-22.923 51.2-51.2 51.2s-51.2-22.923-51.2-51.2c0-28.277 22.923-51.2 51.2-51.2s51.2 22.923 51.2 51.2z"></path>
        <path d="M296.533 51.2c0 28.277-22.923 51.2-51.2 51.2s-51.2-22.923-51.2-51.2c0-28.277 22.923-51.2 51.2-51.2s51.2 22.923 51.2 51.2z"></path>
        <path d="M296.533 256c0 28.277-22.923 51.2-51.2 51.2s-51.2-22.923-51.2-51.2c0-28.277 22.923-51.2 51.2-51.2s51.2 22.923 51.2 51.2z"></path>
        <path d="M296.533 460.8c0 28.277-22.923 51.2-51.2 51.2s-51.2-22.923-51.2-51.2c0-28.277 22.923-51.2 51.2-51.2s51.2 22.923 51.2 51.2z"></path>
    </symbol>
    <symbol xmlns="http://www.w3.org/2000/svg" viewBox="0 0 512 512" id="image-icon">
        <path d="M394.172 20.571c-7.8 1.156-14.407 5.791-18.318 12.852l-2.521 4.55-.244 40.747c-.135 22.411-.524 40.747-.864 40.747-.341 0-6.375-5.779-13.409-12.842-16.6-16.667-18.625-17.911-29.236-17.96-5.887-.027-12.198 2.319-16.873 6.275-7.231 6.118-9.996 18.489-6.34 28.367 1.796 4.852 3.865 7.09 39.551 42.775 35.685 35.686 37.923 37.755 42.775 39.551 6.549 2.424 15.16 2.101 20.907-.785 2.634-1.322 15.053-13.093 39.533-37.468 19.632-19.547 36.818-37.148 38.191-39.113 6.762-9.675 6.01-22.414-1.853-31.369-5.097-5.805-10.711-8.193-19.358-8.233-9.143-.043-13.007 2.363-28.502 17.749l-13.41 13.317-.261-40.026c-.258-39.698-.276-40.06-2.224-44.292-4.91-10.667-15.867-16.572-27.544-14.842M101.12 43.563c-13.716.814-26.797 3.425-36.104 7.208-9.901 4.023-22.423 12.61-30.09 20.635-14.393 15.065-21.795 30.978-24.898 53.524-1.547 11.245-1.547 285.029 0 296.273 3.219 23.388 10.817 39.238 26.174 54.595s31.207 22.955 54.595 26.174c11.877 1.634 292.765 1.542 301.659-.099 33.136-6.114 60.982-30.101 71.678-61.745 4.433-13.114 4.773-16.96 4.773-53.995 0-32.899-.07-34.373-1.927-40.779-4.207-14.515-10.524-24.866-20.911-34.267-12.424-11.243-86.947-70.159-92.621-73.224-18.554-10.021-38.491-7.264-56.061 7.754-12.921 11.044-206.514 187.319-212.593 193.575l-6.085 6.264-4.512-4.057c-9.297-8.358-12.336-15.765-13.609-33.164-1.067-14.588-1.076-254.031-.01-269.568.451-6.571 1.438-14.022 2.193-16.558 3.432-11.527 13.661-21.767 25.163-25.192 8.187-2.439 26.991-3.025 97.421-3.038 68.221-.012 68.92-.03 73.744-1.834 5.902-2.208 11.177-6.886 14.001-12.415 2.973-5.819 3.025-16.833.107-22.457-2.796-5.388-7.322-9.798-12.422-12.107l-4.358-1.973-72.107-.094c-39.659-.052-77.099.202-83.2.564m50.361 79.458c-12.689 1.242-25.361 6.389-36.131 14.677-28.424 21.874-35.468 63.508-15.916 94.073 6.268 9.798 17.742 20.094 28.304 25.397 2.437 1.223 7.813 3.259 11.946 4.523 6.611 2.022 8.955 2.302 19.463 2.32 14.011.024 19.088-1.087 30.815-6.744 14.852-7.164 26.008-18.319 33.172-33.171 5.657-11.728 6.768-16.804 6.743-30.816-.018-10.508-.297-12.852-2.319-19.462-3.964-12.959-9.865-22.681-19.031-31.356-15.699-14.857-35.37-21.561-57.046-19.441m16.747 52.858c1.71.855 4.499 3.18 6.199 5.166 12.428 14.52-2.006 36.503-20.668 31.478-4.399-1.185-9.874-5.908-12.253-10.571-3.35-6.568-1.797-16.724 3.393-22.188 5.834-6.142 15.577-7.765 23.329-3.885m202.961 140.2c21.923 17.555 41.045 33.357 42.494 35.115 4.37 5.301 4.75 8.782 4.19 38.291-.349 18.341-.87 27.962-1.693 31.208-3.604 14.223-14.392 25.489-28.34 29.596-4.767 1.403-13.299 1.526-123.594 1.774l-118.475.266 92.448-84.071c50.846-46.238 92.597-84.076 92.779-84.084.182-.008 18.268 14.35 40.191 31.905" fill-rule="evenodd"></path>
    </symbol>

    <symbol xmlns="http://www.w3.org/2000/svg" viewBox="0 0 448 512" id="bell">
        <path d="M224 0c-17.7 0-32 14.3-32 32V51.2C119 66 64 130.6 64 208v25.4c0 45.4-15.5 89.5-43.8 124.9L5.3 377c-5.8 7.2-6.9 17.1-2.9 25.4S14.8 416 24 416H424c9.2 0 17.6-5.3 21.6-13.6s2.9-18.2-2.9-25.4l-14.9-18.6C399.5 322.9 384 278.8 384 233.4V208c0-77.4-55-142-128-156.8V32c0-17.7-14.3-32-32-32zm0 96c61.9 0 112 50.1 112 112v25.4c0 47.9 13.9 94.6 39.7 134.6H72.3C98.1 328 112 281.3 112 233.4V208c0-61.9 50.1-112 112-112zm64 352H224 160c0 17 6.7 33.3 18.7 45.3s28.3 18.7 45.3 18.7s33.3-6.7 45.3-18.7s18.7-28.3 18.7-45.3z"></path>
    </symbol>

    <symbol xmlns="http://www.w3.org/2000/svg" viewBox="0 0 448 512" id="check">
        <path d="M438.6 105.4c12.5 12.5 12.5 32.8 0 45.3l-256 256c-12.5 12.5-32.8 12.5-45.3 0l-128-128c-12.5-12.5-12.5-32.8 0-45.3s32.8-12.5 45.3 0L160 338.7 393.4 105.4c12.5-12.5 32.8-12.5 45.3 0z"></path>
    </symbol>

    <symbol xmlns="http://www.w3.org/2000/svg" viewBox="0 0 867 512" id="link">
        <path d="M201.578 22.504C124.516 34.321 58.725 82.288 24.623 151.518c-63.093 128.084.778 281.533 136.495 327.927 30.32 10.365 65.358 13.977 126.437 13.036 33.089-.51 35.875-.76 42.628-3.827 14.235-6.467 22.278-17.737 23.497-32.928 1.301-16.203-5.887-29.577-20.14-37.472l-7.692-4.261-56.355-.868c-60.34-.928-63.14-1.243-88.028-9.898-49.541-17.228-89.518-64.694-99.702-118.378-4.508-23.767-2.304-56.821 5.264-78.919 18.275-53.368 60.915-91.204 117.453-104.221 7.879-1.814 22.346-2.529 65.735-3.249 62.808-1.042 61.524-.817 73.224-12.831 7.825-8.035 11.2-17.884 10.237-29.876-1.192-14.858-9.292-26.425-22.771-32.52-6.188-2.797-9.158-2.934-61.412-2.831-38.95.076-58.691.688-67.915 2.102m333.795 1.134c-12.458 5.826-19.633 14.859-22.529 28.363-3.734 17.413 7.243 36.985 24.33 43.378 7.084 2.651 11.303 2.882 52.801 2.893 65.083.017 79.302 2.178 108.683 16.521 42.969 20.977 71.565 56.03 84.155 103.157 3.299 12.346 3.733 16.747 3.733 37.815 0 21.068-.434 25.469-3.733 37.815-13.401 50.162-48.206 90.093-94.124 107.987-25.877 10.084-29.787 10.576-91.904 11.562-60.417.96-60.377.955-70.578 9.556-13.885 11.707-18.045 32.243-9.744 48.096 3.439 6.567 11.285 13.558 19.632 17.494l7.948 3.748 52.02-.052c54.919-.055 64.239-.809 90.576-7.325 42.767-10.582 79.063-31.057 110.134-62.128 26.285-26.285 43.3-53.1 55.838-88 9.438-26.27 13.339-49.305 13.339-78.753 0-65.032-24.096-122.288-70.833-168.307-29.274-28.825-66.503-49.956-105.595-59.937-24.428-6.237-38.02-7.292-93.811-7.277-52.64.014-53.178.044-60.338 3.394M225.411 218.1c-7.036 2.14-12.489 5.725-18.299 12.027-6.97 7.562-9.721 14.816-9.721 25.638 0 4.371.865 10.494 1.923 13.606 2.643 7.775 12.369 17.941 21.049 22.001l7.225 3.38 204.571.014c225.085.015 211.522.551 222.87-8.803 2.936-2.42 7.126-7.442 9.311-11.158 3.492-5.94 3.973-8.244 3.973-19.04s-.481-13.1-3.973-19.04c-2.185-3.716-6.375-8.738-9.311-11.158-11.355-9.359 2.189-8.829-222.148-8.693-112.117.069-205.478.62-207.47 1.226" fill-rule="evenodd"></path>
    </symbol>

    <symbol xmlns="http://www.w3.org/2000/svg" viewBox="0 0 542 512" id="edit-second">
        <path d="M446.698 2.18c-8.7 2.018-15.448 4.905-22.406 9.587-4.844 3.259-37.932 35.871-129.834 127.964-133.641 133.92-127.393 127.198-132.5 142.561-2.398 7.215-2.402 7.277-2.718 40.65l-.316 33.423 2.077 3.587c2.996 5.171 6.89 7.449 14.052 8.222 9.638 1.041 57.449-.347 64.703-1.877 7.331-1.547 16.057-5.451 22.547-10.089 5.973-4.268 241.924-239.753 249.204-248.711 9.891-12.173 14.384-25.019 14.376-41.102-.007-11.545-1.97-20.073-6.75-29.31-8.221-15.889-22.683-28.184-39.463-33.549-7.66-2.45-25.154-3.169-32.972-1.356m24.842 30.544c7.58 2.312 16.936 10.334 20.733 17.776 4.85 9.507 4.417 23.894-1.009 33.566-2.079 3.706-30.745 32.948-116.704 119.048-62.672 62.774-118.134 117.946-123.249 122.604-12.858 11.708-14.296 12.129-41.437 12.129h-20.285l.281-23.261.282-23.261 2.572-4.968c2.096-4.048 25.201-27.606 124.66-127.11C426.993 49.59 440.005 36.864 444.693 34.734c8.612-3.911 18.249-4.633 26.847-2.01M99.22 52.444c-25.796 1.853-42.248 8.84-58.218 24.726-13.74 13.666-20.619 28.496-23.916 51.555-1.431 10.013-2.21 246.297-.927 281.388 1.003 27.436 2.229 36.253 6.66 47.877 9.02 23.666 30.685 42.9 55.429 49.208 13.395 3.416 14.343 3.439 157.974 3.826 142.619.385 158.648.118 172.942-2.889 28.643-6.026 52.764-27.991 61.369-55.886 4.182-13.557 4.642-21.97 5.235-95.884.307-38.256.268-71.874-.088-74.705-.738-5.886-3.226-10.111-7.775-13.203-6.26-4.254-16.726-1.427-20.543 5.55-1.44 2.632-1.609 9.021-2.082 78.745-.544 80.137-.792 84.866-4.967 94.859-6.07 14.527-21.088 27.328-36.071 30.747-11.422 2.606-35.57 3.074-158.535 3.074-122.982 0-147.119-.468-158.535-3.076-16.042-3.663-31.758-17.805-36.929-33.229-3.518-10.496-3.533-11.069-3.918-154.254-.382-141.824-.093-158.59 2.937-170.278 3.65-14.08 17.644-29.441 31.403-34.47 10.164-3.715 16.3-4.009 94.13-4.52 74.112-.486 75.016-.514 78.409-2.397 10.879-6.037 9.443-22.309-2.362-26.759-2.967-1.119-136.061-1.124-151.622-.005" fill-rule="evenodd"></path>
    </symbol>
</svg>