<svg width="0" height="0" class="hidden">
    <symbol version="1.1" xmlns="http://www.w3.org/2000/svg" viewBox="0 0 470 512" id="trash">
        <path d="M217.707 12.448h37.212c11.74-0.001 21.813-0.001 30.099 0.677 8.731 0.713 17.339 2.283 25.602 6.493 12.377 6.306 22.438 16.369 28.747 28.746 4.209 8.262 5.779 16.871 6.491 25.601 0.625 7.638 0.672 16.794 0.676 27.373h89.777c11.783 0 21.334 9.552 21.334 21.334s-9.551 21.334-21.334 21.334h-23.111v228.442c0 17.916 0 32.647-0.979 44.638-1.015 12.435-3.192 23.786-8.613 34.425-8.438 16.559-21.899 30.022-38.457 38.457-10.639 5.421-21.99 7.597-34.428 8.613-11.99 0.981-26.722 0.979-44.635 0.979h-99.552c-17.915 0-32.648 0.002-44.637-0.979-12.436-1.015-23.788-3.192-34.428-8.613-16.558-8.435-30.020-21.899-38.458-38.457-5.421-10.639-7.596-21.99-8.612-34.425-0.98-11.991-0.98-26.722-0.979-44.638v-228.442h-23.111c-11.782 0-21.334-9.551-21.334-21.334s9.551-21.334 21.334-21.334h89.778c0.004-10.578 0.052-19.734 0.677-27.373 0.713-8.731 2.283-17.338 6.493-25.601 6.306-12.377 16.369-22.439 28.746-28.746 8.262-4.21 16.87-5.779 25.601-6.493 8.287-0.677 18.361-0.677 30.101-0.677zM102.090 144.004v227.555c0 19.021 0.016 32.005 0.838 42.050 0.8 9.798 2.258 14.91 4.103 18.532 4.346 8.529 11.281 15.464 19.811 19.81 3.622 1.846 8.734 3.305 18.531 4.104 10.047 0.822 23.029 0.837 42.049 0.837h97.778c19.021 0 32.002-0.015 42.050-0.837 9.796-0.8 14.91-2.259 18.53-4.104 8.531-4.346 15.466-11.281 19.813-19.81 1.846-3.623 3.303-8.734 4.104-18.533 0.819-10.046 0.837-23.029 0.837-42.050v-227.555h-268.444zM303.868 101.337c-0.007-10.817-0.066-18.165-0.534-23.898-0.499-6.092-1.351-8.46-1.986-9.705-2.214-4.349-5.752-7.884-10.099-10.1-1.246-0.634-3.614-1.486-9.704-1.984-6.342-0.518-14.656-0.535-27.454-0.535h-35.556c-12.797 0-21.113 0.017-27.453 0.535-6.092 0.498-8.46 1.35-9.705 1.984-4.349 2.216-7.884 5.752-10.1 10.1-0.635 1.245-1.487 3.613-1.984 9.705-0.469 5.734-0.526 13.082-0.534 23.898h135.11zM191.868 223.559c-11.782 0-21.334 9.551-21.334 21.333v111.113c0 11.781 9.552 21.334 21.334 21.334s21.334-9.553 21.334-21.334v-111.113c0-11.782-9.551-21.334-21.334-21.334zM280.757 223.559c-11.783 0-21.334 9.551-21.334 21.333v111.113c0 11.781 9.551 21.334 21.334 21.334s21.334-9.553 21.334-21.334v-111.113c0-11.782-9.551-21.334-21.334-21.334z"></path>
    </symbol>
    <symbol xmlns="http://www.w3.org/2000/svg" viewBox="0 0 512 512" id="clock">
        <path d="M464 256A208 208 0 1 1 48 256a208 208 0 1 1 416 0zM0 256a256 256 0 1 0 512 0A256 256 0 1 0 0 256zM232 120V256c0 8 4 15.5 10.7 20l96 64c11 7.4 25.9 4.4 33.3-6.7s4.4-25.9-6.7-33.3L280 243.2V120c0-13.3-10.7-24-24-24s-24 10.7-24 24z"></path>
    </symbol>
    <symbol xmlns="http://www.w3.org/2000/svg" viewBox="0 0 512 512" id="search">
        <path d="M416 208c0 45.9-14.9 88.3-40 122.7L502.6 457.4c12.5 12.5 12.5 32.8 0 45.3s-32.8 12.5-45.3 0L330.7 376c-34.4 25.2-76.8 40-122.7 40C93.1 416 0 322.9 0 208S93.1 0 208 0S416 93.1 416 208zM208 352a144 144 0 1 0 0-288 144 144 0 1 0 0 288z"></path>
    </symbol>
    <symbol xmlns="http://www.w3.org/2000/svg" viewBox="0 0 384 512" id="cross">
        <path d="M342.6 150.6c12.5-12.5 12.5-32.8 0-45.3s-32.8-12.5-45.3 0L192 210.7 86.6 105.4c-12.5-12.5-32.8-12.5-45.3 0s-12.5 32.8 0 45.3L146.7 256 41.4 361.4c-12.5 12.5-12.5 32.8 0 45.3s32.8 12.5 45.3 0L192 301.3 297.4 406.6c12.5 12.5 32.8 12.5 45.3 0s12.5-32.8 0-45.3L237.3 256 342.6 150.6z"></path>
    </symbol>
    <symbol version="1.1" xmlns="http://www.w3.org/2000/svg" viewBox="0 0 512 512" id="sort">
        <path d="M149.333 0h-64c-22.632 0-44.337 8.991-60.34 24.994s-24.994 37.708-24.994 60.34v64c0 22.631 8.991 44.337 24.994 60.34s37.708 24.994 60.34 24.994h64c22.631 0 44.337-8.99 60.34-24.994s24.994-37.708 24.994-60.34v-64c0-22.632-8.99-44.337-24.994-60.34s-37.708-24.994-60.34-24.994v0zM192 149.333c0 11.316-4.495 22.168-12.496 30.17s-18.854 12.496-30.17 12.496h-64c-11.316 0-22.169-4.495-30.17-12.496s-12.497-18.854-12.497-30.17v-64c0-11.316 4.495-22.169 12.497-30.17s18.854-12.497 30.17-12.497h64c11.316 0 22.168 4.495 30.17 12.497s12.496 18.854 12.496 30.17v64z"></path>
        <path d="M149.333 277.328h-64c-22.632 0-44.337 8.99-60.34 24.993s-24.994 37.707-24.994 60.341v64c0 22.63 8.991 44.336 24.994 60.339s37.708 24.992 60.34 24.992h64c22.631 0 44.337-8.989 60.34-24.992s24.994-37.709 24.994-60.339v-64c0-22.634-8.99-44.337-24.994-60.341s-37.708-24.993-60.34-24.993zM192 426.663c0 11.315-4.495 22.166-12.496 30.169-8.001 8-18.854 12.496-30.17 12.496h-64c-11.316 0-22.169-4.496-30.17-12.496-8.002-8.003-12.497-18.855-12.497-30.169v-64c0-11.315 4.495-22.169 12.497-30.169 8.002-8.003 18.854-12.498 30.17-12.498h64c11.316 0 22.168 4.495 30.17 12.498 8.001 8 12.496 18.855 12.496 30.169v64z"></path>
        <path d="M475.594 406.377l-48.918 48.854v-399.062l48.918 48.853c1.981 1.981 4.336 3.552 6.925 4.623s5.363 1.623 8.166 1.621c2.8-0.001 5.575-0.554 8.163-1.627s4.941-2.646 6.921-4.628c1.981-1.982 3.552-4.335 4.624-6.924 1.069-2.589 1.622-5.364 1.619-8.166 0-2.802-0.553-5.576-1.625-8.165-1.075-2.588-2.647-4.94-4.627-6.921l-55.19-55.104c-12-11.985-28.265-18.717-45.226-18.717s-33.229 6.732-45.229 18.717l-55.188 55.104c-1.982 1.981-3.555 4.332-4.628 6.921s-1.626 5.363-1.627 8.165c-0.001 2.802 0.55 5.577 1.621 8.166s2.642 4.942 4.623 6.924c1.981 1.982 4.332 3.555 6.921 4.628s5.363 1.626 8.166 1.627c2.8 0.001 5.575-0.55 8.166-1.621 2.589-1.072 4.941-2.642 6.921-4.623l48.918-48.853v399.062l-48.918-48.855c-1.981-1.981-4.333-3.552-6.921-4.621-2.592-1.072-5.366-1.623-8.166-1.623-2.803 0-5.578 0.553-8.166 1.625-2.589 1.075-4.94 2.647-6.921 4.63-1.981 1.981-3.551 4.333-4.623 6.921s-1.622 5.366-1.621 8.166c0.001 2.803 0.553 5.577 1.627 8.166s2.646 4.941 4.628 6.921l55.188 55.104c12 11.984 28.269 18.717 45.229 18.717s33.226-6.733 45.226-18.717l55.19-55.104c1.981-1.981 3.552-4.333 4.627-6.921 1.072-2.589 1.625-5.363 1.625-8.166 0.003-2.8-0.55-5.577-1.619-8.166-1.072-2.589-2.643-4.941-4.624-6.921-1.981-1.984-4.333-3.555-6.921-4.63-2.589-1.072-5.363-1.625-8.163-1.625-2.803 0-5.577 0.55-8.166 1.623-2.589 1.069-4.944 2.64-6.925 4.621z"></path>
    </symbol>
    <symbol xmlns="http://www.w3.org/2000/svg" viewBox="0 0 542 512" id="filter">
        <path d="M86.571 23.914c-20.884 3.423-38.803 12.98-53.599 28.587-44.687 47.136-27.94 124.433 32.357 149.347 9.632 3.979 16.266 5.63 26.977 6.713 28.301 2.861 56.645-7.607 76.344-28.194 8.27-8.644 12.638-14.988 17.582-25.538 24.7-52.707-5.107-114.668-62.118-129.131-11.281-2.861-26.546-3.587-37.543-1.784m24.147 44.808c18.739 3.397 35.175 20.057 38.348 38.871 4.116 24.402-10.644 47.573-34.794 54.622-7.573 2.211-19.891 2.023-27.617-.421-15.273-4.83-29.179-19.437-32.5-34.138-.541-2.393-.979-8.053-.974-12.578.016-13.557 4.269-23.563 14.171-33.337 11.279-11.132 27.278-15.936 43.366-13.019m189.64 26.973c-17.173 4.181-23.192 24.789-10.925 37.41 7.2 7.409-.106 6.974 112.604 6.701l99.765-.241 3.699-1.979c18.048-9.658 14.95-36.754-4.777-41.772-4.347-1.106-195.844-1.22-200.366-.119m123.835 220.961c-26.132 4.938-49.291 20.732-63.527 43.325-10.123 16.065-15.216 38.82-12.985 58.013 4.462 38.391 30.536 69.069 68.304 80.365 7.554 2.26 9.314 2.432 24.842 2.432 15.548 0 17.277-.17 24.841-2.44 51.999-15.606 80.423-67.711 64.396-118.048-4.786-15.03-11.59-26.229-22.675-37.318-12.044-12.049-26.777-20.515-43.065-24.748-11.054-2.873-29.457-3.597-40.131-1.581m26.673 44.691c18.92 3.566 35.283 20.824 37.885 39.959 2.154 15.841-2.506 29.498-13.97 40.945-9.833 9.817-19.824 13.911-33.954 13.911-14.079 0-23.946-4.046-33.907-13.904-15.077-14.92-18.853-36.11-9.754-54.728 6.17-12.625 19.964-23.584 32.872-26.115 5.676-1.113 15.119-1.144 20.828-.068M27.004 387.543c-12.108 2.047-20.471 14.055-18.08 25.96 1.414 7.04 5.735 12.672 12.301 16.032l5.296 2.71h99.43c99.315 0 99.435-.002 103.559-1.91 9.151-4.233 13.971-12.311 13.332-22.345-.677-10.628-7.771-18.379-18.713-20.445-5.767-1.088-190.688-1.091-197.125-.002" fill-rule="evenodd"></path>
    </symbol>
    <symbol xmlns="http://www.w3.org/2000/svg" viewBox="0 0 448 512" id="plus">
        <path d="M256 80c0-17.7-14.3-32-32-32s-32 14.3-32 32V224H48c-17.7 0-32 14.3-32 32s14.3 32 32 32H192V432c0 17.7 14.3 32 32 32s32-14.3 32-32V288H400c17.7 0 32-14.3 32-32s-14.3-32-32-32H256V80z"></path>
    </symbol>
    <symbol xmlns="http://www.w3.org/2000/svg" viewBox="0 0 512 512" id="chevron-down">
        <path d="M233.4 406.6c12.5 12.5 32.8 12.5 45.3 0l192-192c12.5-12.5 12.5-32.8 0-45.3s-32.8-12.5-45.3 0L256 338.7 86.6 169.4c-12.5-12.5-32.8-12.5-45.3 0s-12.5 32.8 0 45.3l192 192z"></path>
    </symbol>
    <symbol xmlns="http://www.w3.org/2000/svg" viewBox="0 0 489 512" id="user">
        <path d="M226.57 10.179c-60.475 9.042-105.105 60.61-105.105 121.444 0 20.239 5.797 42.429 15.56 59.563 37.342 65.535 121.838 83.109 181.64 37.78 24.847-18.834 41.805-47.253 46.885-78.574 1.369-8.444 1.572-27.681.373-35.477-7.196-46.805-36.92-83.036-81.488-99.327-16.18-5.914-39.75-8.117-57.865-5.409m37.082 47.638c26.223 6.897 47.309 28.05 54.32 54.491 2.366 8.924 2.899 23.788 1.179 32.912-9.268 49.186-61.952 76.346-107.123 55.224-21.243-9.933-36.868-29.416-42.192-52.61-2.126-9.261-1.956-24.49.379-34.041 3.331-13.626 10.184-25.881 20.035-35.828 11.693-11.808 25.294-18.679 43.655-22.057 5.078-.934 23.412.243 29.747 1.909M131.471 308.174c-45.402 4.416-86.729 36.789-102.122 79.996-9.783 27.462-9.744 54.614.107 74.177 3.635 7.218 6.775 11.605 12.874 17.983 9.036 9.449 18.332 15.225 31.835 19.78l6.928 2.337 160.147.227c177.616.252 165.727.589 179.85-5.105 20.044-8.083 35.522-24.892 42.08-45.699 7.494-23.779 1.808-58.577-13.816-84.55-15.151-25.186-38.923-44.19-67.011-53.571-18.956-6.332-11.819-6.004-134.176-6.162-60.065-.078-112.578.187-116.696.587m230.389 47.841c26.978 7.153 47.178 26.497 55.084 52.748 1.886 6.259 2.21 8.856 2.286 18.297.085 10.749.032 11.103-2.33 15.367-3.086 5.572-8.358 10.206-14.019 12.324-4.433 1.659-5.084 1.665-159.86 1.454l-155.409-.213-3.826-1.884c-5.178-2.551-10.249-7.776-12.804-13.193-1.922-4.074-2.105-5.336-2.006-13.855.34-29.365 19.096-56.112 47.433-67.644 5.71-2.324 15.029-4.623 20.918-5.162 1.793-.164 51.488-.248 110.433-.187l107.173.111 6.927 1.837" fill-rule="evenodd"></path>
    </symbol>

    <symbol xmlns="http://www.w3.org/2000/svg" viewBox="0 0 512 512" id="calendar">
        <path d="M169.351 1.551c-4.69 2.203-7.736 6.081-8.848 11.266-.511 2.384-.93 12.511-.93 22.506v18.173l-15.146.528c-19.046.663-31.432 2.976-48 8.961-27.968 10.104-55.381 32.386-72.889 59.247C10.727 141.886 2.712 165.741.842 189.78-.182 202.946-.191 328.161.83 352.427c1.31 31.117 5.197 54.127 11.795 69.832 9.913 23.592 28.484 46.672 49.708 61.775 10.227 7.278 28.018 16.212 37.829 18.997 27.77 7.882 46.116 8.933 155.838 8.933s128.068-1.051 155.838-8.933c9.75-2.767 27.53-11.679 37.869-18.981 10.394-7.342 27.001-23.949 34.343-34.343 7.302-10.339 16.214-28.119 18.981-37.869 4.97-17.512 6.965-32.275 8.128-60.155 1.044-25.027 1.043-148.48-.001-161.903-1.87-24.039-9.885-47.894-22.696-67.548-17.508-26.861-44.921-49.143-72.889-59.247-16.568-5.985-28.954-8.298-48-8.961l-15.146-.528V35.323c0-21.741-.706-25.984-5.043-30.324-6.117-6.122-14.92-6.517-21.41-.962C320.218 8.964 320 10.032 320 33.253V53.76H192.082l-.254-21.7c-.284-24.186-.109-23.445-6.799-28.859-4.042-3.272-10.726-3.975-15.678-1.65M159.699 99.2c.262 12.04.536 14.316 2.084 17.28 3.523 6.746 11.868 10.36 18.709 8.103 4.452-1.47 9.591-6.354 10.633-10.107.476-1.714.868-8.972.87-16.129L192 85.333h128l.005 13.014c.002 7.157.394 14.415.87 16.129 1.042 3.753 6.181 8.637 10.633 10.107 6.841 2.257 15.186-1.357 18.709-8.103 1.549-2.966 1.822-5.24 2.085-17.364l.304-13.951 12.497.592c32.815 1.554 56.794 11.45 78.515 32.402 17.671 17.045 28.251 35.79 33.544 59.431l1.985 8.863v87.04c0 91.266-.217 97.75-3.905 116.984-4.289 22.366-14.888 41.358-32.14 57.585-18.734 17.622-36.955 25.718-66.154 29.393-30.598 3.852-211.389 3.833-242.121-.024-28.757-3.61-47.006-11.676-65.508-28.955-17.559-16.398-28.228-35.403-32.561-57.999-3.688-19.234-3.905-25.718-3.905-116.984v-87.04l1.991-8.89c2.586-11.555 5.309-19.083 10.564-29.208 13.388-25.794 38.589-47.463 65.838-56.61 12.216-4.101 24.152-5.866 42.48-6.283l5.672-.129.301 13.867m-30.419 89.098c-3.818 2.013-6.48 4.654-7.79 7.728-.968 2.272-1.17 19.532-1.17 100.087 0 95.199.037 97.414 1.683 100.64 5.54 10.86 20.294 11.42 27.407 1.04l2.057-3.001.253-96.916c.171-65.658-.035-97.911-.64-100-.491-1.697-1.727-4.145-2.746-5.441-3.899-4.957-13.531-7.049-19.054-4.137m120.32-.209c-3.366 1.503-6.843 5.278-8.488 9.217-1.172 2.804-1.325 14.298-1.325 99.019v95.847l1.92 3.758c1.056 2.067 3.395 4.932 5.199 6.367 2.933 2.334 3.892 2.61 9.094 2.61s6.161-.276 9.094-2.61c1.804-1.435 4.143-4.3 5.199-6.367l1.92-3.758-.018-96.033c-.018-91.653-.091-96.188-1.599-99.446-1.84-3.973-5.476-7.615-8.892-8.905-3.257-1.231-8.991-1.088-12.104.301m119.4.409c-4.066 1.847-6.828 5.053-8.08 9.378-.605 2.089-.811 34.342-.64 100l.253 96.916 2.057 3.001c2.835 4.137 7.04 6.816 11.486 7.317 6.908.779 12.797-2.362 16.134-8.604l1.897-3.546v-95.573c0-52.566-.304-97.002-.674-98.749-1.956-9.214-13.241-14.315-22.433-10.14" fill-rule="evenodd"></path>
    </symbol>
    <symbol xmlns="http://www.w3.org/2000/svg" viewBox="0 0 512 512" id="home">
        <path d="M243.315 1.75c-37.855 3.097-67.597 20.597-119.582 70.364-43.342 41.494-84.267 83.613-94.559 97.321-15.197 20.239-23.33 40.033-27.154 66.085C.762 244.095.536 256.412.233 333.137c-.305 76.948-.181 88.855.998 96.302 2.202 13.9 7.274 27.016 15.098 39.041 4.51 6.933 19.114 21.614 25.911 26.049 25.427 16.59 56.493 20.764 84.44 11.343 26.604-8.969 49.187-30.631 58.927-56.526 5.118-13.605 5.684-17.704 6.37-46.146.72-29.884 1.485-34.237 8.094-46.091 3.999-7.171 16.547-19.988 23.649-24.156 19.081-11.197 45.051-11.184 64.28.034 7.48 4.363 19.355 16.244 23.703 23.716 6.734 11.571 8.282 20.273 8.291 46.599.007 22.011.967 29.848 5.216 42.561 7.927 23.723 26.415 44.642 48.977 55.416 22.751 10.866 49.164 12.531 72.493 4.572 14.465-4.936 25.34-11.806 36.791-23.244 11.992-11.977 18.757-22.896 23.82-38.447 4.84-14.866 4.855-15.245 4.476-111.023-.305-77.126-.524-88.997-1.802-97.617-4.434-29.917-14.058-50.977-34.285-75.03-15.072-17.923-89.474-91.506-113.177-111.931-25.422-21.907-45.071-34.352-64.526-40.87-10.391-3.481-17.75-4.918-30.495-5.952-11.784-.957-12.305-.957-24.167.013m28.067 32.431c22.184 2.766 45.514 16.234 76.702 44.282 25.422 22.861 92.677 90.033 105.135 105.004 13.066 15.7 20.215 30.674 24.039 50.346 1.672 8.597 1.756 12.601 2.075 98.85.378 101.947.669 96.861-6.36 111.068-3.394 6.858-5.26 9.358-12.145 16.268-7.01 7.035-9.256 8.708-16.241 12.097-9.849 4.78-17.781 6.624-28.486 6.624-10.915 0-18.996-1.844-28.674-6.543-6.962-3.38-9.236-5.074-16.288-12.133-6.979-6.986-8.79-9.408-12.193-16.311-5.521-11.199-6.487-16.642-6.505-36.693-.028-29.519-2.379-43.811-9.776-59.426-4.993-10.542-9.015-16.458-16.69-24.552-18.9-19.93-42.951-30.369-69.975-30.369-27.024 0-51.075 10.439-69.975 30.369-7.671 8.09-11.697 14.011-16.681 24.533-7.477 15.784-9.738 29.531-9.778 59.445-.027 20.051-.994 25.502-6.512 36.693-3.403 6.903-5.214 9.325-12.193 16.311-7.052 7.059-9.326 8.753-16.288 12.133-9.678 4.699-17.759 6.543-28.674 6.543-10.712 0-18.642-1.846-28.486-6.63-6.967-3.386-9.25-5.085-16.249-12.095-6.882-6.893-8.766-9.409-12.172-16.262-6.987-14.055-6.703-9.073-6.325-111.07.319-86.249.403-90.253 2.075-98.85 4.575-23.536 13.644-39.902 34.158-61.645 23.183-24.571 75.333-76.002 95.016-93.704 30.439-27.378 54.616-41.528 75.544-44.214 8.437-1.083 23.523-1.116 31.922-.069" fill-rule="evenodd"></path>
    </symbol>
</svg>