<svg width="86" height="27" viewBox="0 0 86 27" fill="none" xmlns="http://www.w3.org/2000/svg">
<rect width="86" height="27" fill="#EAEAEA"/>
<rect width="600" height="1237" transform="translate(-257 -23)" fill="white"/>
<g clip-path="url(#clip0_524_2575)">
<path fill-rule="evenodd" clip-rule="evenodd" d="M35.0306 9.32465C35.0306 8.22738 34.6875 7.27726 34.0015 6.47428C33.9607 6.42804 33.9811 6.35657 34.0383 6.33975L37.0804 5.49053C37.1335 5.47791 37.1825 5.51575 37.1825 5.5704V18.3298C37.1825 19.8433 36.962 21.1045 36.5169 22.1093C36.0718 23.114 35.5001 23.9296 34.7978 24.5602C34.0955 25.1908 33.2992 25.6617 32.409 25.977C31.5189 26.2923 30.6368 26.5067 29.7589 26.6244C28.881 26.7421 28.0398 26.801 27.2354 26.801H25.3815C25.3244 26.801 25.2835 26.7379 25.308 26.6833L26.0308 24.9848C26.0471 24.9428 26.092 24.926 26.1329 24.9386C26.6065 25.1236 27.0884 25.2791 27.5825 25.4137C28.0235 25.5314 28.5176 25.6407 29.0729 25.7374C29.6282 25.8341 30.1795 25.8845 30.7348 25.8845C31.8047 25.8845 32.6336 25.6743 33.2135 25.2497C33.7974 24.8251 34.222 24.2575 34.4875 23.5386C34.7529 22.8197 34.9121 21.9831 34.9611 21.0288C35.0101 20.0745 35.0346 19.0571 35.0346 17.9724V9.32465H35.0306ZM35.8921 3.48098L34.8182 1.87082C34.6222 1.57653 34.5569 1.19816 34.6835 0.870244C34.7406 0.714693 34.8264 0.575959 34.9326 0.441428C35.1694 0.147143 35.492 0 35.8921 0C36.2923 0 36.6149 0.147143 36.8517 0.441428C36.9579 0.571755 37.0396 0.714693 37.1008 0.870244C37.2274 1.20237 37.1621 1.58073 36.9661 1.87082L35.8921 3.48098ZM16.2517 18.5652C16.464 19.0781 16.7866 19.4901 17.2276 19.8054H17.2317C17.6727 20.1207 18.1586 20.2763 18.6935 20.2763V20.3057H12.0417V20.2763C12.3275 20.2763 12.5807 20.209 12.8012 20.0829C13.0176 19.9526 13.2014 19.7844 13.3443 19.5658C13.4872 19.3514 13.5811 19.1075 13.6179 18.8427C13.6546 18.5778 13.6261 18.3088 13.5321 18.0313L12.5562 15.6097L12.5031 15.4626H3.75653L2.69077 17.943C2.51927 18.3928 2.50702 18.8427 2.66218 19.2841C2.81735 19.7255 3.10319 20.0577 3.52378 20.2721V20.3015H0.00390625V20.2721C0.575579 20.0156 1.05742 19.6331 1.44942 19.1202C1.84143 18.6073 2.15993 18.0481 2.40902 17.4385L3.06644 15.8157L4.55687 12.2171L7.97057 3.92241L7.14165 1.3369C7.14165 1.32849 7.14982 1.32008 7.14982 1.32008L9.26909 0.273268C9.28134 0.269064 9.29767 0.28588 9.29767 0.28588L15.9944 17.8547L16.2517 18.5652ZM11.7722 13.4278L8.285 4.4269L4.96113 12.4819L4.56504 13.4278H11.7722ZM4.38129 13.8693L3.89945 15.0212H12.3806L12.3235 14.874L11.9396 13.8693H4.38129ZM28.0573 20.3057H33.627L33.6352 20.3015V20.2721C33.1574 20.2132 32.7736 20.0199 32.4877 19.6835L32.402 19.5658C32.0957 19.1916 31.9365 18.7586 31.9161 18.2668V12.0111C31.8997 11.124 31.8303 10.279 31.716 9.47182C31.6016 8.66884 31.3689 7.94994 31.0259 7.31933C30.6788 6.68872 30.1847 6.18843 29.5436 5.81427C28.9025 5.44431 28.0328 5.25513 26.9425 5.25513C26.3096 5.25513 25.7583 5.37284 25.2887 5.60827C24.8191 5.8437 24.4149 6.14219 24.0801 6.50794C23.7411 6.8737 23.4594 7.26468 23.2307 7.68929C23.002 8.1097 22.8183 8.50908 22.6795 8.88325V5.57043C22.6795 5.51578 22.6305 5.47794 22.5774 5.49056L19.5148 6.33978C19.4536 6.35239 19.4373 6.42806 19.4781 6.47431C19.8129 6.84427 20.062 7.26468 20.2294 7.73133C20.4132 8.24423 20.503 8.77394 20.503 9.32468V18.2373C20.503 18.7502 20.3519 19.1916 20.0457 19.5658L19.9599 19.6835C19.6741 20.0156 19.2903 20.2132 18.8125 20.2721V20.3015H24.3822V20.2721C23.9208 20.2132 23.5492 20.0199 23.2593 19.6835L23.145 19.5658C22.8387 19.1916 22.6835 18.7586 22.6835 18.2668V11.6537C22.6835 11.1829 22.757 10.6027 22.9 9.91325C23.0429 9.22798 23.2797 8.55533 23.6146 7.9079C23.9453 7.26047 24.3741 6.70974 24.8886 6.2557C25.4031 5.80586 26.0319 5.57884 26.7792 5.57884C27.4856 5.57884 28.0368 5.78484 28.4289 6.19684C28.8209 6.61304 29.1108 7.15957 29.3027 7.83643C29.4905 8.51749 29.6089 9.29525 29.6457 10.1697C29.6824 11.0441 29.711 11.9354 29.7314 12.8393V18.2415C29.7314 18.7544 29.5804 19.1959 29.2782 19.57L29.1639 19.6877C28.878 20.0199 28.5105 20.2174 28.0573 20.2763V20.3057ZM52.8034 11.1577V11.4814L52.7993 11.4898L49.8184 12.3769L41.1617 15.0927C41.3168 15.5047 41.4924 15.9041 41.6925 16.2867C41.8926 16.6693 42.1376 17.0266 42.4234 17.3629L42.9951 17.9515C43.53 18.4434 44.1507 18.8302 44.8571 19.116C45.5635 19.4019 46.3761 19.5448 47.2949 19.5448C48.0952 19.5448 48.8017 19.4229 49.4142 19.1749C50.0267 18.931 50.5412 18.6578 50.9618 18.3635C51.4599 18.0104 51.8805 17.6152 52.2235 17.1821L52.4522 17.3882C52.0316 17.9767 51.5049 18.5106 50.876 18.9815C50.3411 19.3725 49.6837 19.734 48.8997 20.0577C48.1157 20.3815 47.1806 20.5454 46.0903 20.5454C45.0572 20.5454 44.0935 20.3436 43.1952 19.94C42.2968 19.5364 41.5128 18.9899 40.8432 18.3004C40.1735 17.611 39.6508 16.8038 39.267 15.8789C38.8872 14.954 38.6953 13.9618 38.6953 12.8982C38.6953 11.8346 38.8831 10.8424 39.267 9.9175C39.6467 8.99261 40.1735 8.18542 40.8432 7.49595C41.5128 6.80649 42.2968 6.25996 43.1952 5.85636C44.0935 5.45277 45.0572 5.25098 46.0903 5.25098C46.8947 5.25098 47.6134 5.36449 48.2422 5.59151C48.8711 5.81853 49.4183 6.12542 49.8756 6.52061L49.9328 6.57947C50.239 6.83591 50.5085 7.11338 50.7372 7.40767C51.1578 7.93738 51.4559 8.45028 51.6274 8.94216C51.7989 9.43403 51.9214 9.85865 51.999 10.2118C52.0765 10.5691 52.1582 10.834 52.244 11.0106C52.3297 11.1871 52.5175 11.2376 52.8034 11.1577ZM41.4393 8.66048C41.0065 9.55595 40.7574 10.5481 40.6921 11.6286V11.6202C40.6512 12.2928 40.688 12.9486 40.7901 13.5877L50.0185 10.7205C50.0144 10.5145 50.0022 10.3001 49.9818 10.0731C49.9164 9.33734 49.7327 8.63946 49.4387 7.97942C49.1406 7.31938 48.72 6.76024 48.1769 6.29779C47.6338 5.83534 46.9396 5.60412 46.0985 5.60412C44.9674 5.60412 44.02 5.89 43.2442 6.46175C42.4724 7.03351 41.8681 7.76502 41.4393 8.66048ZM40.8391 13.8862C40.8963 14.1804 40.9657 14.4705 41.0514 14.7564H41.0555L49.9695 11.9817C50.0103 11.6958 50.0267 11.3763 50.0267 11.0316L40.8391 13.8862ZM85.9987 11.4814V11.1577C85.7129 11.2376 85.525 11.1871 85.4393 11.0106C85.3535 10.834 85.2719 10.5691 85.1943 10.2118C85.1167 9.85865 84.9942 9.43403 84.8227 8.94216C84.6512 8.45028 84.3531 7.93738 83.9325 7.40767C83.7038 7.11338 83.4343 6.83591 83.1281 6.57947L83.0709 6.52061C82.6136 6.12542 82.0664 5.81853 81.4376 5.59151C80.8087 5.36449 80.09 5.25098 79.2856 5.25098C78.2525 5.25098 77.2888 5.45277 76.3905 5.85636C75.4922 6.25996 74.7082 6.80649 74.0385 7.49595C73.3688 8.18542 72.8421 8.99261 72.4623 9.9175C72.0785 10.8424 71.8906 11.8346 71.8906 12.8982C71.8906 13.9618 72.0826 14.954 72.4623 15.8789C72.8461 16.8038 73.3688 17.611 74.0385 18.3004C74.7082 18.9899 75.4922 19.5364 76.3905 19.94C77.2888 20.3436 78.2525 20.5454 79.2856 20.5454C80.3759 20.5454 81.311 20.3815 82.095 20.0577C82.879 19.734 83.5364 19.3725 84.0713 18.9815C84.7002 18.5106 85.2269 17.9767 85.6475 17.3882L85.4189 17.1821C85.0759 17.6152 84.6553 18.0104 84.1571 18.3635C83.7365 18.6578 83.222 18.931 82.6095 19.1749C81.997 19.4229 81.2906 19.5448 80.4902 19.5448C79.5715 19.5448 78.7589 19.4019 78.0524 19.116C77.346 18.8302 76.7253 18.4434 76.1904 17.9515L75.6188 17.3629C75.3329 17.0266 75.0879 16.6693 74.8878 16.2867C74.6877 15.9041 74.5122 15.5047 74.357 15.0927L83.0137 12.3769L85.9946 11.4898L85.9987 11.4814ZM73.8874 11.6286C73.9527 10.5481 74.2018 9.55595 74.6347 8.66048C75.0634 7.76502 75.6677 7.03351 76.4395 6.46175C77.2153 5.89 78.1627 5.60412 79.2938 5.60412C80.135 5.60412 80.8291 5.83534 81.3722 6.29779C81.9153 6.76024 82.3359 7.31938 82.634 7.97942C82.928 8.63946 83.1117 9.33734 83.1771 10.0731C83.1975 10.3001 83.2097 10.5145 83.2138 10.7205L73.9854 13.5877C73.8833 12.9486 73.8466 12.2928 73.8874 11.6202V11.6286ZM74.2467 14.7564C74.161 14.4705 74.0916 14.1804 74.0344 13.8862L83.222 11.0316C83.222 11.3763 83.2057 11.6958 83.1648 11.9817L74.2508 14.7564H74.2467ZM62.8911 5.41914C62.3765 5.30983 61.7763 5.25518 61.0862 5.25518L61.078 5.25098C60.5064 5.25098 60.0082 5.35608 59.5876 5.56208C59.167 5.76808 58.8118 6.02873 58.5137 6.34404C58.2156 6.65934 57.9665 7.00828 57.7664 7.39085C57.5663 7.77342 57.4071 8.14338 57.2927 8.49652V5.56628C57.2927 5.51163 57.2437 5.47379 57.1907 5.48641L54.124 6.33983C54.0669 6.35665 54.0465 6.42812 54.0873 6.47436C54.7733 7.27734 55.1163 8.22746 55.1163 9.32473V18.2458C55.1163 18.7587 54.9652 19.2001 54.659 19.5743L54.5732 19.6626C54.267 20.0157 53.8831 20.2217 53.4258 20.2806V20.31H58.9873V20.2806C58.5259 20.2217 58.1543 20.0283 57.8685 19.692L57.7542 19.5743C57.4479 19.2001 57.2968 18.7671 57.2968 18.2752V11.6622C57.2968 10.8971 57.3703 10.1529 57.5132 9.43404C57.6602 8.71514 57.8767 8.07191 58.1748 7.50016C58.4728 6.93261 58.8444 6.47436 59.2936 6.12963C59.7428 5.78489 60.2859 5.61253 60.9147 5.61253C61.5844 5.61253 62.1642 5.74706 62.6501 6.01191C63.1361 6.27677 63.5403 6.57526 63.867 6.91159C64.1773 7.2311 64.4468 7.59685 64.6755 8.00465C64.7122 8.07191 64.8102 8.0551 64.8225 7.97942L65.1165 6.28938C65.1206 6.25575 65.1083 6.21791 65.0797 6.2011C64.8225 6.03714 64.5122 5.89 64.1528 5.75967C63.8261 5.64196 63.4056 5.52845 62.8911 5.41914ZM71.2634 20.3056H65.7305V20.2762C66.1878 20.2174 66.5716 20.0114 66.8779 19.6582L66.9637 19.5699C67.2699 19.1958 67.421 18.7543 67.421 18.2414V9.32459C67.421 8.22733 67.078 7.27721 66.392 6.47423C66.3511 6.42798 66.3716 6.35651 66.4287 6.3397L69.4708 5.49047C69.5239 5.47786 69.5729 5.5157 69.5729 5.57035V18.2709C69.5729 18.7627 69.724 19.1958 70.0303 19.5699L70.1446 19.6876C70.4304 20.024 70.802 20.2174 71.2634 20.2762V20.3056ZM69.5742 1.61016L68.5003 0L67.4263 1.61016C67.2303 1.90024 67.165 2.27861 67.2916 2.61073C67.3528 2.76628 67.4345 2.90922 67.5407 3.03955C67.7775 3.33383 68.1001 3.48098 68.5003 3.48098C68.9004 3.48098 69.223 3.33383 69.4599 3.03955C69.566 2.90502 69.6518 2.76628 69.7089 2.61073C69.8355 2.28281 69.7702 1.90445 69.5742 1.61016Z" fill="black"/>
</g>
<defs>
<clipPath id="clip0_524_2575">
<rect width="86" height="27" fill="white"/>
</clipPath>
</defs>
</svg>
