<svg width="32" height="40" viewBox="0 0 32 40" fill="none" xmlns="http://www.w3.org/2000/svg">
<path d="M0 13L13 0H32V40H0V13Z" fill="#EBF0F9"/>
<path d="M13 13L0 13L6.5 6.5L13 0L13 13Z" fill="#44A1F8"/>
<path d="M9.55195 30.12C8.94529 30.12 8.40195 30 7.92195 29.76C7.44862 29.5133 7.07529 29.13 6.80195 28.61C6.53529 28.0833 6.40195 27.3967 6.40195 26.55V26.35C6.40195 25.7367 6.48195 25.2133 6.64195 24.78C6.80195 24.34 7.02529 23.98 7.31195 23.7C7.60529 23.42 7.94195 23.2133 8.32195 23.08C8.70195 22.9467 9.11195 22.88 9.55195 22.88C9.94529 22.88 10.312 22.93 10.652 23.03C10.9986 23.1233 11.3053 23.2667 11.572 23.46C11.8386 23.6533 12.052 23.9033 12.212 24.21C12.3786 24.5167 12.4753 24.8767 12.502 25.29H10.942C10.8686 24.8967 10.7086 24.6067 10.462 24.42C10.2153 24.2333 9.91195 24.14 9.55195 24.14C9.27195 24.14 9.01195 24.21 8.77195 24.35C8.53195 24.4833 8.33529 24.71 8.18195 25.03C8.03529 25.35 7.96195 25.79 7.96195 26.35V26.55C7.96195 26.99 8.00862 27.36 8.10195 27.66C8.19529 27.9533 8.31862 28.19 8.47195 28.37C8.62529 28.5433 8.79529 28.67 8.98195 28.75C9.16862 28.8233 9.35862 28.86 9.55195 28.86C9.93195 28.86 10.2453 28.7633 10.492 28.57C10.7386 28.37 10.8886 28.0833 10.942 27.71H12.502C12.4686 28.1433 12.372 28.5167 12.212 28.83C12.052 29.1367 11.842 29.3867 11.582 29.58C11.322 29.7667 11.0186 29.9033 10.672 29.99C10.3253 30.0767 9.95195 30.12 9.55195 30.12ZM13.3041 30V23H15.7341C16.4408 23 17.0441 23.1267 17.5441 23.38C18.0441 23.6333 18.4241 24.01 18.6841 24.51C18.9508 25.0033 19.0841 25.6167 19.0841 26.35V26.55C19.0841 27.2967 18.9475 27.9267 18.6741 28.44C18.4008 28.9533 18.0041 29.3433 17.4841 29.61C16.9708 29.87 16.3541 30 15.6341 30H13.3041ZM14.7941 28.76H15.5341C15.9008 28.76 16.2341 28.69 16.5341 28.55C16.8341 28.41 17.0741 28.18 17.2541 27.86C17.4408 27.5333 17.5341 27.0967 17.5341 26.55V26.35C17.5341 25.83 17.4508 25.4167 17.2841 25.11C17.1175 24.7967 16.8875 24.5733 16.5941 24.44C16.3075 24.3067 15.9875 24.24 15.6341 24.24H14.7941V28.76ZM20.0037 30V23H22.8337C23.4204 23 23.9071 23.0933 24.2937 23.28C24.6871 23.4667 24.9837 23.73 25.1837 24.07C25.3837 24.4033 25.4837 24.7967 25.4837 25.25C25.4837 25.73 25.3604 26.15 25.1137 26.51C24.8671 26.8633 24.4904 27.12 23.9837 27.28L25.6837 30H23.9537L22.4837 27.44H21.4937V30H20.0037ZM21.4937 26.26H22.5437C23.0971 26.26 23.4771 26.1767 23.6837 26.01C23.8904 25.8367 23.9937 25.5833 23.9937 25.25C23.9937 24.9167 23.8904 24.6667 23.6837 24.5C23.4771 24.3267 23.0971 24.24 22.5437 24.24H21.4937V26.26Z" fill="#44A1F8"/>
</svg>
