<svg width="32" height="40" viewBox="0 0 32 40" fill="none" xmlns="http://www.w3.org/2000/svg">
<path d="M0 0H13H32V40H0V0Z" fill="#F0F4FA"/>
<path fill-rule="evenodd" clip-rule="evenodd" d="M11 13.5H15V12H11C9.34315 12 8 13.3431 8 15V25C8 26.6569 9.34315 28 11 28H21C22.6569 28 24 26.6569 24 25V21H22.5V25C22.5 25.8284 21.8284 26.5 21 26.5H11C10.1716 26.5 9.5 25.8284 9.5 25V15C9.5 14.1716 10.1716 13.5 11 13.5ZM19 13.5L21.4394 13.5L12.9697 21.9697L14.0303 23.0303L22.5 14.5607V17H24V12.75C24 12.3358 23.6642 12 23.25 12L19 12L19 13.5Z" fill="#44A1F8"/>
</svg>
