<svg width="32" height="40" viewBox="0 0 32 40" fill="none" xmlns="http://www.w3.org/2000/svg">
<path d="M0 13L13 0H32V40H0V13Z" fill="#EBF0F9"/>
<path d="M13 13L0 13L6.5 6.5L13 0L13 13Z" fill="#44A1F8"/>
<path d="M9.13066 30.12C8.63733 30.12 8.22066 30.03 7.88066 29.85C7.54733 29.67 7.29066 29.4067 7.11066 29.06C6.93733 28.7133 6.844 28.2933 6.83066 27.8H8.25066C8.264 28.1533 8.344 28.4167 8.49066 28.59C8.63733 28.7633 8.85066 28.85 9.13066 28.85C9.344 28.85 9.514 28.81 9.64066 28.73C9.774 28.6433 9.87066 28.5 9.93066 28.3C9.99733 28.1 10.0307 27.8333 10.0307 27.5V23H11.5307V27.5C11.5307 28.1267 11.4307 28.6333 11.2307 29.02C11.0373 29.4 10.764 29.68 10.4107 29.86C10.0573 30.0333 9.63066 30.12 9.13066 30.12ZM12.7426 30V23H15.4326C16.066 23 16.5893 23.0967 17.0026 23.29C17.416 23.4767 17.7226 23.7433 17.9226 24.09C18.1226 24.43 18.2226 24.8333 18.2226 25.3C18.2226 25.7667 18.1226 26.1733 17.9226 26.52C17.7226 26.86 17.416 27.1267 17.0026 27.32C16.5893 27.5067 16.066 27.6 15.4326 27.6H14.2326V30H12.7426ZM14.2326 26.36H15.2826C15.816 26.36 16.1893 26.27 16.4026 26.09C16.6226 25.91 16.7326 25.6467 16.7326 25.3C16.7326 24.96 16.6226 24.7 16.4026 24.52C16.1893 24.3333 15.816 24.24 15.2826 24.24H14.2326V26.36ZM21.933 30.12C21.313 30.12 20.7563 30 20.263 29.76C19.7763 29.5133 19.3897 29.13 19.103 28.61C18.823 28.0833 18.683 27.3967 18.683 26.55V26.35C18.683 25.7433 18.7663 25.22 18.933 24.78C19.1063 24.34 19.3397 23.98 19.633 23.7C19.933 23.42 20.2763 23.2133 20.663 23.08C21.0497 22.9467 21.4563 22.88 21.883 22.88C22.283 22.88 22.6463 22.93 22.973 23.03C23.3063 23.1233 23.5997 23.2667 23.853 23.46C24.1063 23.6467 24.3163 23.8867 24.483 24.18C24.6497 24.4667 24.7663 24.8033 24.833 25.19H23.273C23.1797 24.91 23.0597 24.6967 22.913 24.55C22.7663 24.3967 22.603 24.2933 22.423 24.24C22.2497 24.18 22.0697 24.15 21.883 24.15C21.5897 24.15 21.3163 24.22 21.063 24.36C20.8163 24.5 20.6163 24.73 20.463 25.05C20.3163 25.37 20.243 25.8033 20.243 26.35V26.55C20.243 26.9833 20.2897 27.3467 20.383 27.64C20.4763 27.9333 20.603 28.17 20.763 28.35C20.9297 28.5233 21.113 28.65 21.313 28.73C21.513 28.81 21.7197 28.85 21.933 28.85C22.2197 28.85 22.4797 28.8 22.713 28.7C22.9463 28.6 23.1363 28.4433 23.283 28.23C23.4363 28.01 23.5263 27.73 23.553 27.39H22.133V26.35H24.983V26.75C24.983 27.33 24.9097 27.8333 24.763 28.26C24.623 28.68 24.4163 29.03 24.143 29.31C23.8763 29.5833 23.5563 29.7867 23.183 29.92C22.8097 30.0533 22.393 30.12 21.933 30.12Z" fill="#44A1F8"/>
</svg>
