<svg width="33" height="40" viewBox="0 0 33 40" fill="none" xmlns="http://www.w3.org/2000/svg">
<path d="M0.5 13L13.5 0H32.5V40H0.5V13Z" fill="#EBF0F9"/>
<path d="M13.5 13L0.5 13L7 6.5L13.5 0L13.5 13Z" fill="#44A1F8"/>
<path d="M7.86137 30V23H10.5514C11.1847 23 11.708 23.0967 12.1214 23.29C12.5347 23.4767 12.8414 23.7433 13.0414 24.09C13.2414 24.43 13.3414 24.8333 13.3414 25.3C13.3414 25.7667 13.2414 26.1733 13.0414 26.52C12.8414 26.86 12.5347 27.1267 12.1214 27.32C11.708 27.5067 11.1847 27.6 10.5514 27.6H9.35137V30H7.86137ZM9.35137 26.36H10.4014C10.9347 26.36 11.308 26.27 11.5214 26.09C11.7414 25.91 11.8514 25.6467 11.8514 25.3C11.8514 24.96 11.7414 24.7 11.5214 24.52C11.308 24.3333 10.9347 24.24 10.4014 24.24H9.35137V26.36ZM14.1118 30V23H16.5418C17.2484 23 17.8518 23.1267 18.3518 23.38C18.8518 23.6333 19.2318 24.01 19.4918 24.51C19.7584 25.0033 19.8918 25.6167 19.8918 26.35V26.55C19.8918 27.2967 19.7551 27.9267 19.4818 28.44C19.2084 28.9533 18.8118 29.3433 18.2918 29.61C17.7784 29.87 17.1618 30 16.4418 30H14.1118ZM15.6018 28.76H16.3418C16.7084 28.76 17.0418 28.69 17.3418 28.55C17.6418 28.41 17.8818 28.18 18.0618 27.86C18.2484 27.5333 18.3418 27.0967 18.3418 26.55V26.35C18.3418 25.83 18.2584 25.4167 18.0918 25.11C17.9251 24.7967 17.6951 24.5733 17.4018 24.44C17.1151 24.3067 16.7951 24.24 16.4418 24.24H15.6018V28.76ZM20.8114 30V23H25.6014V24.24H22.3014V26H25.3014V27.2H22.3014V30H20.8114Z" fill="#44A1F8"/>
</svg>
