<svg width="32" height="40" viewBox="0 0 32 40" fill="none" xmlns="http://www.w3.org/2000/svg">
<path d="M0 13L13 0H32V40H0V13Z" fill="#EBF0F9"/>
<path d="M13 13L0 13L6.5 6.5L13 0L13 13Z" fill="#44A1F8"/>
<path d="M6.46781 30V23H9.15781C9.79115 23 10.3145 23.0967 10.7278 23.29C11.1411 23.4767 11.4478 23.7433 11.6478 24.09C11.8478 24.43 11.9478 24.8333 11.9478 25.3C11.9478 25.7667 11.8478 26.1733 11.6478 26.52C11.4478 26.86 11.1411 27.1267 10.7278 27.32C10.3145 27.5067 9.79115 27.6 9.15781 27.6H7.95781V30H6.46781ZM7.95781 26.36H9.00781C9.54115 26.36 9.91448 26.27 10.1278 26.09C10.3478 25.91 10.4578 25.6467 10.4578 25.3C10.4578 24.96 10.3478 24.7 10.1278 24.52C9.91448 24.3333 9.54115 24.24 9.00781 24.24H7.95781V26.36ZM12.7182 30V23H14.1282L17.2182 27.5V23H18.6982V30H17.2882L14.1982 25.5V30H12.7182ZM22.8559 30.12C22.2359 30.12 21.6792 30 21.1859 29.76C20.6992 29.5133 20.3125 29.13 20.0259 28.61C19.7459 28.0833 19.6059 27.3967 19.6059 26.55V26.35C19.6059 25.7433 19.6892 25.22 19.8559 24.78C20.0292 24.34 20.2625 23.98 20.5559 23.7C20.8559 23.42 21.1992 23.2133 21.5859 23.08C21.9725 22.9467 22.3792 22.88 22.8059 22.88C23.2059 22.88 23.5692 22.93 23.8959 23.03C24.2292 23.1233 24.5225 23.2667 24.7759 23.46C25.0292 23.6467 25.2392 23.8867 25.4059 24.18C25.5725 24.4667 25.6892 24.8033 25.7559 25.19H24.1959C24.1025 24.91 23.9825 24.6967 23.8359 24.55C23.6892 24.3967 23.5259 24.2933 23.3459 24.24C23.1725 24.18 22.9925 24.15 22.8059 24.15C22.5125 24.15 22.2392 24.22 21.9859 24.36C21.7392 24.5 21.5392 24.73 21.3859 25.05C21.2392 25.37 21.1659 25.8033 21.1659 26.35V26.55C21.1659 26.9833 21.2125 27.3467 21.3059 27.64C21.3992 27.9333 21.5259 28.17 21.6859 28.35C21.8525 28.5233 22.0359 28.65 22.2359 28.73C22.4359 28.81 22.6425 28.85 22.8559 28.85C23.1425 28.85 23.4025 28.8 23.6359 28.7C23.8692 28.6 24.0592 28.4433 24.2059 28.23C24.3592 28.01 24.4492 27.73 24.4759 27.39H23.0559V26.35H25.9059V26.75C25.9059 27.33 25.8325 27.8333 25.6859 28.26C25.5459 28.68 25.3392 29.03 25.0659 29.31C24.7992 29.5833 24.4792 29.7867 24.1059 29.92C23.7325 30.0533 23.3159 30.12 22.8559 30.12Z" fill="#44A1F8"/>
</svg>
