<svg width="32" height="40" viewBox="0 0 32 40" fill="none" xmlns="http://www.w3.org/2000/svg">
<path d="M0 13L13 0H32V40H0V13Z" fill="#EBF0F9"/>
<path d="M13 13L0 13L6.5 6.5L13 0L13 13Z" fill="#44A1F8"/>
<path d="M4.03109 30V23H6.72109C7.35443 23 7.87776 23.0967 8.29109 23.29C8.70443 23.4767 9.01109 23.7433 9.21109 24.09C9.41109 24.43 9.51109 24.8333 9.51109 25.3C9.51109 25.7667 9.41109 26.1733 9.21109 26.52C9.01109 26.86 8.70443 27.1267 8.29109 27.32C7.87776 27.5067 7.35443 27.6 6.72109 27.6H5.52109V30H4.03109ZM5.52109 26.36H6.57109C7.10443 26.36 7.47776 26.27 7.69109 26.09C7.91109 25.91 8.02109 25.6467 8.02109 25.3C8.02109 24.96 7.91109 24.7 7.69109 24.52C7.47776 24.3333 7.10443 24.24 6.57109 24.24H5.52109V26.36ZM10.2815 30V23H12.9715C13.6048 23 14.1282 23.0967 14.5415 23.29C14.9548 23.4767 15.2615 23.7433 15.4615 24.09C15.6615 24.43 15.7615 24.8333 15.7615 25.3C15.7615 25.7667 15.6615 26.1733 15.4615 26.52C15.2615 26.86 14.9548 27.1267 14.5415 27.32C14.1282 27.5067 13.6048 27.6 12.9715 27.6H11.7715V30H10.2815ZM11.7715 26.36H12.8215C13.3548 26.36 13.7282 26.27 13.9415 26.09C14.1615 25.91 14.2715 25.6467 14.2715 25.3C14.2715 24.96 14.1615 24.7 13.9415 24.52C13.7282 24.3333 13.3548 24.24 12.8215 24.24H11.7715V26.36ZM19.0219 30.12C18.4019 30.12 17.8852 30.0333 17.4719 29.86C17.0585 29.6867 16.7419 29.4467 16.5219 29.14C16.3085 28.8267 16.1919 28.4633 16.1719 28.05H17.6719C17.7252 28.31 17.8452 28.51 18.0319 28.65C18.2252 28.79 18.5552 28.86 19.0219 28.86C19.5019 28.86 19.8452 28.7967 20.0519 28.67C20.2652 28.5367 20.3719 28.35 20.3719 28.11C20.3719 27.91 20.3085 27.7467 20.1819 27.62C20.0619 27.4933 19.8752 27.3867 19.6219 27.3C19.3685 27.2067 19.0385 27.12 18.6319 27.04C18.1585 26.9467 17.7519 26.8167 17.4119 26.65C17.0719 26.4833 16.8119 26.2567 16.6319 25.97C16.4585 25.6833 16.3719 25.32 16.3719 24.88C16.3719 24.4733 16.4785 24.1233 16.6919 23.83C16.9052 23.53 17.2119 23.2967 17.6119 23.13C18.0119 22.9633 18.4819 22.88 19.0219 22.88C19.6085 22.88 20.0885 22.9633 20.4619 23.13C20.8419 23.29 21.1285 23.5167 21.3219 23.81C21.5219 24.1033 21.6385 24.45 21.6719 24.85H20.1819C20.1285 24.61 20.0185 24.4333 19.8519 24.32C19.6852 24.2 19.4085 24.14 19.0219 24.14C18.6285 24.14 18.3385 24.2033 18.1519 24.33C17.9652 24.4567 17.8719 24.6267 17.8719 24.84C17.8719 25.1 17.9985 25.3033 18.2519 25.45C18.5119 25.5967 18.9185 25.7233 19.4719 25.83C19.8519 25.9033 20.1885 25.9933 20.4819 26.1C20.7819 26.2067 21.0352 26.3467 21.2419 26.52C21.4485 26.6867 21.6052 26.89 21.7119 27.13C21.8185 27.37 21.8719 27.66 21.8719 28C21.8719 28.4267 21.7585 28.8 21.5319 29.12C21.3119 29.44 20.9885 29.6867 20.5619 29.86C20.1419 30.0333 19.6285 30.12 19.0219 30.12ZM21.977 30L24.327 26.35L22.077 23H23.757L25.297 25.29L26.847 23H28.477L26.247 26.32L28.577 30H26.887L25.257 27.38L23.637 30H21.977Z" fill="#44A1F8"/>
</svg>
