<svg width="537" height="444" viewBox="0 0 537 444" fill="none" xmlns="http://www.w3.org/2000/svg">
<path d="M308.001 160.5C307.383 191.994 294.501 225 269.001 257C249.501 236.5 230.233 201.493 229.501 162C229 135 220.502 140 269.001 136C314.001 140.5 308.501 135 308.001 160.5Z" fill="#AA825F"/>
<circle cx="154.435" cy="154.435" r="153.72" stroke="#CCB49F" stroke-width="1.42995"/>
<circle cx="382.513" cy="154.435" r="153.72" stroke="#CCB49F" stroke-width="1.42995"/>
<g clip-path="url(#clip0_139_92)">
<path d="M268.595 156.213C268.221 155.061 266.582 155.061 266.208 156.213L260.852 172.731C260.685 173.247 260.201 173.597 259.656 173.595L242.206 173.558C240.989 173.555 240.482 175.106 241.469 175.815L255.608 185.986C256.05 186.304 256.235 186.869 256.065 187.385L250.637 203.879C250.258 205.03 251.584 205.989 252.568 205.275L266.662 195.043C267.103 194.723 267.7 194.723 268.141 195.043L280.376 203.925C280.972 202.962 281.27 201.796 281.27 200.427C281.27 199.347 280.945 198.381 280.293 197.53C279.674 196.679 278.892 195.926 277.947 195.272C277.003 194.617 275.683 193.799 273.989 192.817C271.839 191.606 270.096 190.509 268.76 189.528C267.424 188.546 266.284 187.318 265.339 185.845C264.395 184.34 263.922 182.572 263.922 180.543C263.922 178.939 264.362 177.499 265.242 176.223C266.154 174.913 267.506 173.882 269.298 173.13C270.57 172.572 272.047 172.212 273.73 172.05L268.595 156.213Z" fill="white"/>
<path d="M275.034 173.591C275.072 173.594 275.109 173.596 275.147 173.595L279.285 173.586C279.832 173.786 280.348 174.059 280.831 174.406C282.003 175.224 282.981 176.255 283.763 177.499C284.543 178.676 285.144 179.977 285.565 181.404L279.195 185.986C279.073 186.073 278.971 186.179 278.891 186.297C277.664 185.569 276.649 184.927 275.846 184.373C274.836 183.652 273.973 182.818 273.256 181.869C272.572 180.887 272.23 179.79 272.23 178.579C272.23 177.008 272.686 175.715 273.598 174.701C274.036 174.214 274.514 173.844 275.034 173.591Z" fill="white"/>
<path d="M287.623 179.923V173.568L292.596 173.558C293.814 173.555 294.32 175.106 293.334 175.815L287.623 179.923Z" fill="white"/>
</g>
<circle cx="154.435" cy="154.435" r="153.72" stroke="#CCB49F" stroke-width="1.42995"/>
<circle cx="267.404" cy="289.566" r="153.72" stroke="#CCB49F" stroke-width="1.42995"/>
<path d="M221.907 357.624C221.405 357.083 220.916 356.723 220.44 356.543C219.977 356.363 219.507 356.273 219.031 356.273C218.323 356.273 217.679 356.401 217.1 356.659C216.534 356.903 216.045 357.251 215.633 357.701C215.221 358.139 214.899 358.654 214.668 359.246C214.449 359.838 214.34 360.475 214.34 361.157C214.34 361.89 214.449 362.566 214.668 363.184C214.899 363.801 215.221 364.335 215.633 364.786C216.045 365.236 216.534 365.59 217.1 365.848C217.679 366.105 218.323 366.234 219.031 366.234C219.584 366.234 220.118 366.105 220.633 365.848C221.161 365.577 221.65 365.153 222.1 364.574L224.108 366.002C223.49 366.851 222.737 367.469 221.849 367.855C220.961 368.241 220.015 368.434 219.011 368.434C217.956 368.434 216.984 368.267 216.096 367.932C215.221 367.585 214.462 367.102 213.818 366.485C213.188 365.854 212.692 365.101 212.332 364.226C211.972 363.351 211.791 362.379 211.791 361.311C211.791 360.217 211.972 359.226 212.332 358.338C212.692 357.437 213.188 356.672 213.818 356.041C214.462 355.41 215.221 354.928 216.096 354.593C216.984 354.246 217.956 354.072 219.011 354.072C219.938 354.072 220.794 354.239 221.579 354.574C222.377 354.896 223.117 355.449 223.799 356.234L221.907 357.624ZM225.065 363.454C225.065 362.72 225.193 362.058 225.451 361.466C225.721 360.861 226.081 360.346 226.532 359.921C226.982 359.496 227.516 359.168 228.134 358.937C228.752 358.705 229.408 358.589 230.103 358.589C230.798 358.589 231.454 358.705 232.072 358.937C232.69 359.168 233.224 359.496 233.674 359.921C234.125 360.346 234.479 360.861 234.736 361.466C235.006 362.058 235.141 362.72 235.141 363.454C235.141 364.187 235.006 364.857 234.736 365.462C234.479 366.054 234.125 366.562 233.674 366.987C233.224 367.411 232.69 367.739 232.072 367.971C231.454 368.203 230.798 368.319 230.103 368.319C229.408 368.319 228.752 368.203 228.134 367.971C227.516 367.739 226.982 367.411 226.532 366.987C226.081 366.562 225.721 366.054 225.451 365.462C225.193 364.857 225.065 364.187 225.065 363.454ZM227.381 363.454C227.381 363.814 227.439 364.162 227.555 364.496C227.684 364.831 227.864 365.127 228.095 365.384C228.34 365.642 228.629 365.848 228.964 366.002C229.299 366.156 229.678 366.234 230.103 366.234C230.528 366.234 230.907 366.156 231.242 366.002C231.577 365.848 231.86 365.642 232.091 365.384C232.336 365.127 232.516 364.831 232.632 364.496C232.761 364.162 232.825 363.814 232.825 363.454C232.825 363.094 232.761 362.746 232.632 362.411C232.516 362.077 232.336 361.781 232.091 361.523C231.86 361.266 231.577 361.06 231.242 360.906C230.907 360.751 230.528 360.674 230.103 360.674C229.678 360.674 229.299 360.751 228.964 360.906C228.629 361.06 228.34 361.266 228.095 361.523C227.864 361.781 227.684 362.077 227.555 362.411C227.439 362.746 227.381 363.094 227.381 363.454ZM237.214 358.821H239.414V360.269H239.453C239.659 359.831 239.987 359.445 240.438 359.11C240.901 358.763 241.519 358.589 242.291 358.589C243.745 358.589 244.71 359.162 245.186 360.307C245.521 359.715 245.939 359.284 246.441 359.014C246.943 358.731 247.542 358.589 248.237 358.589C248.854 358.589 249.376 358.692 249.8 358.898C250.225 359.104 250.566 359.387 250.823 359.747C251.094 360.108 251.287 360.532 251.402 361.022C251.518 361.498 251.576 362.012 251.576 362.566V368.087H249.26V362.836C249.26 362.553 249.234 362.283 249.182 362.025C249.131 361.755 249.041 361.523 248.912 361.33C248.784 361.124 248.61 360.964 248.391 360.848C248.172 360.732 247.889 360.674 247.542 360.674C247.181 360.674 246.872 360.745 246.615 360.886C246.37 361.015 246.165 361.195 245.997 361.427C245.843 361.646 245.727 361.903 245.65 362.199C245.585 362.482 245.553 362.772 245.553 363.068V368.087H243.237V362.566C243.237 361.987 243.114 361.53 242.87 361.195C242.625 360.848 242.22 360.674 241.654 360.674C241.268 360.674 240.94 360.738 240.669 360.867C240.412 360.996 240.193 361.17 240.013 361.388C239.846 361.607 239.723 361.858 239.646 362.141C239.569 362.424 239.53 362.72 239.53 363.029V368.087H237.214V358.821ZM254.011 358.821H256.212V360.269H256.25C256.456 359.831 256.784 359.445 257.235 359.11C257.698 358.763 258.316 358.589 259.088 358.589C260.542 358.589 261.507 359.162 261.984 360.307C262.318 359.715 262.736 359.284 263.238 359.014C263.74 358.731 264.339 358.589 265.034 358.589C265.651 358.589 266.173 358.692 266.597 358.898C267.022 359.104 267.363 359.387 267.62 359.747C267.891 360.108 268.084 360.532 268.2 361.022C268.315 361.498 268.373 362.012 268.373 362.566V368.087H266.057V362.836C266.057 362.553 266.031 362.283 265.98 362.025C265.928 361.755 265.838 361.523 265.709 361.33C265.581 361.124 265.407 360.964 265.188 360.848C264.969 360.732 264.686 360.674 264.339 360.674C263.978 360.674 263.669 360.745 263.412 360.886C263.168 361.015 262.962 361.195 262.794 361.427C262.64 361.646 262.524 361.903 262.447 362.199C262.382 362.482 262.35 362.772 262.35 363.068V368.087H260.034V362.566C260.034 361.987 259.912 361.53 259.667 361.195C259.422 360.848 259.017 360.674 258.451 360.674C258.065 360.674 257.737 360.738 257.466 360.867C257.209 360.996 256.99 361.17 256.81 361.388C256.643 361.607 256.52 361.858 256.443 362.141C256.366 362.424 256.327 362.72 256.327 363.029V368.087H254.011V358.821ZM279.36 368.087H277.159V366.6H277.12C276.902 367.064 276.567 367.469 276.117 367.817C275.666 368.151 275.055 368.319 274.283 368.319C273.665 368.319 273.137 368.222 272.7 368.029C272.275 367.823 271.928 367.553 271.657 367.218C271.387 366.871 271.194 366.478 271.078 366.041C270.962 365.603 270.904 365.146 270.904 364.67V358.821H273.221V363.512C273.221 363.769 273.234 364.059 273.26 364.38C273.285 364.689 273.35 364.985 273.453 365.268C273.568 365.539 273.736 365.77 273.954 365.963C274.186 366.144 274.508 366.234 274.92 366.234C275.306 366.234 275.628 366.169 275.885 366.041C276.155 365.912 276.374 365.738 276.541 365.519C276.721 365.301 276.85 365.05 276.927 364.767C277.005 364.483 277.043 364.187 277.043 363.879V358.821H279.36V368.087ZM281.989 358.821H284.19V360.307H284.229C284.447 359.844 284.782 359.445 285.232 359.11C285.683 358.763 286.294 358.589 287.066 358.589C287.684 358.589 288.205 358.692 288.63 358.898C289.068 359.104 289.421 359.374 289.692 359.709C289.962 360.043 290.155 360.43 290.271 360.867C290.387 361.305 290.445 361.762 290.445 362.238V368.087H288.128V363.396C288.128 363.139 288.115 362.855 288.089 362.547C288.064 362.225 287.993 361.929 287.877 361.659C287.774 361.375 287.607 361.144 287.375 360.964C287.144 360.771 286.828 360.674 286.429 360.674C286.043 360.674 285.715 360.738 285.445 360.867C285.187 360.996 284.969 361.17 284.788 361.388C284.621 361.607 284.499 361.858 284.422 362.141C284.344 362.424 284.306 362.72 284.306 363.029V368.087H281.989V358.821ZM293.113 358.821H295.429V368.087H293.113V358.821ZM292.785 355.674C292.785 355.301 292.92 354.979 293.19 354.709C293.473 354.426 293.827 354.284 294.252 354.284C294.677 354.284 295.03 354.419 295.314 354.69C295.61 354.947 295.758 355.275 295.758 355.674C295.758 356.073 295.61 356.408 295.314 356.678C295.03 356.935 294.677 357.064 294.252 357.064C293.827 357.064 293.473 356.929 293.19 356.659C292.92 356.376 292.785 356.047 292.785 355.674ZM297.008 360.79V358.821H298.919V356.138H301.235V358.821H303.784V360.79H301.235V364.844C301.235 365.307 301.319 365.674 301.486 365.944C301.667 366.214 302.014 366.35 302.529 366.35C302.735 366.35 302.96 366.33 303.205 366.292C303.449 366.24 303.642 366.163 303.784 366.06V368.01C303.539 368.126 303.237 368.203 302.876 368.241C302.529 368.293 302.22 368.319 301.95 368.319C301.332 368.319 300.824 368.248 300.425 368.106C300.039 367.978 299.73 367.778 299.498 367.508C299.279 367.225 299.125 366.877 299.035 366.465C298.958 366.054 298.919 365.577 298.919 365.037V360.79H297.008ZM304.337 358.821H306.885L309.472 365.249H309.511L311.827 358.821H314.24L309.858 370.075C309.691 370.513 309.504 370.892 309.298 371.214C309.105 371.549 308.874 371.826 308.603 372.044C308.333 372.276 308.011 372.443 307.638 372.546C307.278 372.662 306.84 372.72 306.325 372.72C305.721 372.72 305.129 372.643 304.549 372.488L304.839 370.403C305.019 370.468 305.206 370.519 305.399 370.558C305.605 370.609 305.811 370.635 306.017 370.635C306.3 370.635 306.538 370.609 306.731 370.558C306.924 370.506 307.085 370.423 307.213 370.307C307.355 370.204 307.471 370.062 307.561 369.882C307.651 369.715 307.748 369.509 307.851 369.264L308.295 368.164L304.337 358.821Z" fill="#AA825F"/>
<path d="M384.213 107.333H393.267V109.533H386.645V112.892H392.919V115.093H386.645V118.799H393.614V121H384.213V107.333ZM398.196 116.019L394.991 111.734H397.81L399.663 114.514L401.671 111.734H404.315L401.149 116.019L404.875 121H402.057L399.644 117.68L397.211 121H394.47L398.196 116.019ZM406.171 111.734H408.371V113.124H408.41C408.744 112.558 409.195 112.146 409.761 111.888C410.327 111.631 410.939 111.502 411.595 111.502C412.303 111.502 412.94 111.631 413.506 111.888C414.072 112.133 414.555 112.474 414.954 112.911C415.353 113.349 415.655 113.864 415.861 114.456C416.067 115.048 416.17 115.685 416.17 116.367C416.17 117.049 416.061 117.686 415.842 118.278C415.623 118.87 415.314 119.385 414.915 119.822C414.529 120.26 414.06 120.607 413.506 120.865C412.953 121.109 412.348 121.232 411.692 121.232C411.254 121.232 410.868 121.187 410.533 121.097C410.199 121.006 409.903 120.891 409.645 120.749C409.388 120.607 409.169 120.459 408.989 120.305C408.809 120.138 408.661 119.977 408.545 119.822H408.487V125.401H406.171V111.734ZM413.854 116.367C413.854 116.007 413.789 115.659 413.661 115.325C413.545 114.99 413.365 114.694 413.12 114.437C412.888 114.179 412.605 113.973 412.271 113.819C411.936 113.664 411.556 113.587 411.132 113.587C410.707 113.587 410.327 113.664 409.993 113.819C409.658 113.973 409.369 114.179 409.124 114.437C408.892 114.694 408.712 114.99 408.584 115.325C408.468 115.659 408.41 116.007 408.41 116.367C408.41 116.727 408.468 117.075 408.584 117.409C408.712 117.744 408.892 118.04 409.124 118.297C409.369 118.555 409.658 118.761 409.993 118.915C410.327 119.07 410.707 119.147 411.132 119.147C411.556 119.147 411.936 119.07 412.271 118.915C412.605 118.761 412.888 118.555 413.12 118.297C413.365 118.04 413.545 117.744 413.661 117.409C413.789 117.075 413.854 116.727 413.854 116.367ZM420.183 117.178C420.26 117.873 420.531 118.413 420.994 118.799C421.457 119.185 422.017 119.378 422.674 119.378C423.253 119.378 423.735 119.263 424.121 119.031C424.52 118.786 424.868 118.484 425.164 118.124L426.824 119.378C426.283 120.048 425.679 120.524 425.009 120.807C424.34 121.09 423.639 121.232 422.905 121.232C422.21 121.232 421.554 121.116 420.936 120.884C420.318 120.653 419.784 120.324 419.334 119.9C418.883 119.475 418.523 118.967 418.253 118.375C417.995 117.77 417.867 117.101 417.867 116.367C417.867 115.633 417.995 114.971 418.253 114.379C418.523 113.774 418.883 113.259 419.334 112.834C419.784 112.41 420.318 112.081 420.936 111.85C421.554 111.618 422.21 111.502 422.905 111.502C423.549 111.502 424.134 111.618 424.662 111.85C425.202 112.069 425.659 112.39 426.032 112.815C426.419 113.24 426.715 113.767 426.92 114.398C427.139 115.016 427.249 115.73 427.249 116.541V117.178H420.183ZM424.932 115.44C424.919 114.758 424.707 114.224 424.295 113.838C423.883 113.439 423.311 113.24 422.577 113.24C421.882 113.24 421.329 113.439 420.917 113.838C420.518 114.237 420.273 114.771 420.183 115.44H424.932ZM429.415 111.734H431.731V113.201H431.77C432.027 112.661 432.394 112.242 432.87 111.946C433.347 111.65 433.894 111.502 434.511 111.502C434.653 111.502 434.788 111.515 434.917 111.541C435.058 111.567 435.2 111.599 435.341 111.637V113.877C435.148 113.825 434.955 113.787 434.762 113.761C434.582 113.722 434.402 113.703 434.222 113.703C433.681 113.703 433.244 113.806 432.909 114.012C432.587 114.205 432.336 114.43 432.156 114.687C431.989 114.945 431.873 115.202 431.809 115.46C431.757 115.717 431.731 115.91 431.731 116.039V121H429.415V111.734ZM435.837 113.703V111.734H437.748V109.051H440.065V111.734H442.613V113.703H440.065V117.757C440.065 118.22 440.148 118.587 440.316 118.857C440.496 119.127 440.843 119.263 441.358 119.263C441.564 119.263 441.789 119.243 442.034 119.205C442.278 119.153 442.471 119.076 442.613 118.973V120.923C442.368 121.039 442.066 121.116 441.705 121.154C441.358 121.206 441.049 121.232 440.779 121.232C440.161 121.232 439.653 121.161 439.254 121.019C438.868 120.891 438.559 120.691 438.327 120.421C438.108 120.138 437.954 119.79 437.864 119.378C437.787 118.967 437.748 118.49 437.748 117.95V113.703H435.837ZM444.479 111.734H446.795V121H444.479V111.734ZM444.15 108.587C444.15 108.214 444.285 107.892 444.556 107.622C444.839 107.339 445.193 107.197 445.617 107.197C446.042 107.197 446.396 107.333 446.679 107.603C446.975 107.86 447.123 108.188 447.123 108.587C447.123 108.986 446.975 109.321 446.679 109.591C446.396 109.849 446.042 109.977 445.617 109.977C445.193 109.977 444.839 109.842 444.556 109.572C444.285 109.289 444.15 108.961 444.15 108.587ZM454.396 114.301C453.946 113.671 453.341 113.355 452.582 113.355C452.273 113.355 451.971 113.433 451.675 113.587C451.379 113.742 451.231 113.993 451.231 114.34C451.231 114.623 451.353 114.829 451.597 114.958C451.842 115.086 452.151 115.196 452.524 115.286C452.897 115.376 453.296 115.473 453.721 115.575C454.158 115.666 454.564 115.814 454.937 116.019C455.31 116.213 455.619 116.483 455.864 116.83C456.108 117.178 456.23 117.654 456.23 118.259C456.23 118.812 456.108 119.282 455.864 119.668C455.632 120.041 455.323 120.344 454.937 120.575C454.564 120.807 454.139 120.974 453.663 121.077C453.187 121.18 452.711 121.232 452.234 121.232C451.514 121.232 450.851 121.129 450.246 120.923C449.641 120.717 449.101 120.344 448.624 119.803L450.169 118.355C450.465 118.69 450.78 118.967 451.115 119.185C451.462 119.391 451.88 119.494 452.369 119.494C452.537 119.494 452.711 119.475 452.891 119.436C453.071 119.398 453.238 119.333 453.393 119.243C453.547 119.153 453.669 119.044 453.759 118.915C453.862 118.774 453.914 118.613 453.914 118.433C453.914 118.111 453.792 117.873 453.547 117.718C453.303 117.564 452.994 117.442 452.62 117.351C452.247 117.249 451.842 117.158 451.404 117.081C450.98 116.991 450.581 116.856 450.207 116.676C449.834 116.483 449.525 116.219 449.281 115.884C449.036 115.55 448.914 115.086 448.914 114.494C448.914 113.98 449.017 113.536 449.223 113.162C449.442 112.776 449.725 112.461 450.072 112.217C450.42 111.972 450.819 111.792 451.269 111.676C451.72 111.56 452.176 111.502 452.64 111.502C453.257 111.502 453.869 111.612 454.474 111.83C455.079 112.036 455.568 112.397 455.941 112.911L454.396 114.301ZM459.885 117.178C459.963 117.873 460.233 118.413 460.696 118.799C461.159 119.185 461.719 119.378 462.376 119.378C462.955 119.378 463.437 119.263 463.823 119.031C464.222 118.786 464.57 118.484 464.866 118.124L466.526 119.378C465.986 120.048 465.381 120.524 464.711 120.807C464.042 121.09 463.341 121.232 462.607 121.232C461.912 121.232 461.256 121.116 460.638 120.884C460.02 120.653 459.486 120.324 459.036 119.9C458.586 119.475 458.225 118.967 457.955 118.375C457.698 117.77 457.569 117.101 457.569 116.367C457.569 115.633 457.698 114.971 457.955 114.379C458.225 113.774 458.586 113.259 459.036 112.834C459.486 112.41 460.02 112.081 460.638 111.85C461.256 111.618 461.912 111.502 462.607 111.502C463.251 111.502 463.836 111.618 464.364 111.85C464.904 112.069 465.361 112.39 465.735 112.815C466.121 113.24 466.417 113.767 466.623 114.398C466.841 115.016 466.951 115.73 466.951 116.541V117.178H459.885ZM464.634 115.44C464.621 114.758 464.409 114.224 463.997 113.838C463.585 113.439 463.013 113.24 462.279 113.24C461.584 113.24 461.031 113.439 460.619 113.838C460.22 114.237 459.975 114.771 459.885 115.44H464.634Z" fill="#AA825F"/>
<path d="M63.525 107.333H68.1195C68.7758 107.333 69.4064 107.397 70.0113 107.526C70.629 107.654 71.1696 107.873 71.6329 108.182C72.0962 108.478 72.463 108.883 72.7332 109.398C73.0163 109.9 73.1579 110.531 73.1579 111.29C73.1579 112.152 73.0099 112.847 72.7139 113.375C72.4179 113.902 72.019 114.314 71.517 114.61C71.0151 114.893 70.4296 115.086 69.7603 115.189C69.104 115.292 68.4155 115.344 67.6948 115.344H65.9574V121H63.525V107.333ZM67.4245 113.259C67.772 113.259 68.1323 113.246 68.5056 113.22C68.8788 113.195 69.2198 113.117 69.5287 112.989C69.8504 112.86 70.1078 112.667 70.3009 112.41C70.5068 112.152 70.6097 111.792 70.6097 111.329C70.6097 110.904 70.5197 110.569 70.3395 110.325C70.1593 110.067 69.9277 109.874 69.6445 109.746C69.3614 109.604 69.0461 109.514 68.6986 109.475C68.3511 109.437 68.0165 109.417 67.6948 109.417H65.9574V113.259H67.4245ZM76.9672 117.178C77.0444 117.873 77.3147 118.413 77.778 118.799C78.2413 119.185 78.8011 119.378 79.4575 119.378C80.0366 119.378 80.5192 119.263 80.9053 119.031C81.3042 118.786 81.6517 118.484 81.9477 118.124L83.6079 119.378C83.0674 120.048 82.4625 120.524 81.7933 120.807C81.1241 121.09 80.4227 121.232 79.6891 121.232C78.9942 121.232 78.3378 121.116 77.7201 120.884C77.1023 120.653 76.5682 120.324 76.1178 119.9C75.6674 119.475 75.307 118.967 75.0368 118.375C74.7794 117.77 74.6507 117.101 74.6507 116.367C74.6507 115.633 74.7794 114.971 75.0368 114.379C75.307 113.774 75.6674 113.259 76.1178 112.834C76.5682 112.41 77.1023 112.081 77.7201 111.85C78.3378 111.618 78.9942 111.502 79.6891 111.502C80.3326 111.502 80.9182 111.618 81.4458 111.85C81.9863 112.069 82.4432 112.39 82.8164 112.815C83.2025 113.24 83.4985 113.767 83.7044 114.398C83.9232 115.016 84.0326 115.73 84.0326 116.541V117.178H76.9672ZM81.7161 115.44C81.7032 114.758 81.4909 114.224 81.079 113.838C80.6672 113.439 80.0945 113.24 79.3609 113.24C78.666 113.24 78.1126 113.439 77.7008 113.838C77.3018 114.237 77.0573 114.771 76.9672 115.44H81.7161ZM86.1989 111.734H88.5154V113.201H88.554C88.8114 112.661 89.1782 112.242 89.6544 111.946C90.1306 111.65 90.6775 111.502 91.2953 111.502C91.4368 111.502 91.5719 111.515 91.7006 111.541C91.8422 111.567 91.9838 111.599 92.1253 111.637V113.877C91.9323 113.825 91.7393 113.787 91.5462 113.761C91.366 113.722 91.1859 113.703 91.0057 113.703C90.4652 113.703 90.0276 113.806 89.693 114.012C89.3713 114.205 89.1203 114.43 88.9401 114.687C88.7728 114.945 88.657 115.202 88.5926 115.46C88.5412 115.717 88.5154 115.91 88.5154 116.039V121H86.1989V111.734ZM94.532 113.703H92.6209V111.734H94.532V110.421C94.532 109.778 94.5771 109.199 94.6672 108.684C94.7573 108.156 94.9246 107.706 95.1691 107.333C95.4265 106.959 95.7804 106.676 96.2308 106.483C96.6813 106.277 97.2668 106.174 97.9875 106.174C98.5152 106.174 99.0042 106.219 99.4547 106.309L99.3002 108.278C99.1329 108.24 98.9721 108.208 98.8176 108.182C98.6632 108.156 98.5023 108.143 98.335 108.143C98.0133 108.143 97.7559 108.195 97.5628 108.298C97.3698 108.401 97.2154 108.542 97.0995 108.722C96.9966 108.89 96.9258 109.089 96.8872 109.321C96.8614 109.553 96.8486 109.797 96.8486 110.054V111.734H98.9914V113.703H96.8486V121H94.532V113.703ZM100.025 116.367C100.025 115.633 100.154 114.971 100.411 114.379C100.682 113.774 101.042 113.259 101.492 112.834C101.943 112.41 102.477 112.081 103.095 111.85C103.712 111.618 104.369 111.502 105.064 111.502C105.759 111.502 106.415 111.618 107.033 111.85C107.651 112.081 108.185 112.41 108.635 112.834C109.086 113.259 109.439 113.774 109.697 114.379C109.967 114.971 110.102 115.633 110.102 116.367C110.102 117.101 109.967 117.77 109.697 118.375C109.439 118.967 109.086 119.475 108.635 119.9C108.185 120.324 107.651 120.653 107.033 120.884C106.415 121.116 105.759 121.232 105.064 121.232C104.369 121.232 103.712 121.116 103.095 120.884C102.477 120.653 101.943 120.324 101.492 119.9C101.042 119.475 100.682 118.967 100.411 118.375C100.154 117.77 100.025 117.101 100.025 116.367ZM102.342 116.367C102.342 116.727 102.4 117.075 102.516 117.409C102.644 117.744 102.824 118.04 103.056 118.297C103.301 118.555 103.59 118.761 103.925 118.915C104.259 119.07 104.639 119.147 105.064 119.147C105.488 119.147 105.868 119.07 106.203 118.915C106.537 118.761 106.82 118.555 107.052 118.297C107.297 118.04 107.477 117.744 107.593 117.409C107.721 117.075 107.786 116.727 107.786 116.367C107.786 116.007 107.721 115.659 107.593 115.325C107.477 114.99 107.297 114.694 107.052 114.437C106.82 114.179 106.537 113.973 106.203 113.819C105.868 113.664 105.488 113.587 105.064 113.587C104.639 113.587 104.259 113.664 103.925 113.819C103.59 113.973 103.301 114.179 103.056 114.437C102.824 114.694 102.644 114.99 102.516 115.325C102.4 115.659 102.342 116.007 102.342 116.367ZM112.271 111.734H114.588V113.201H114.626C114.884 112.661 115.25 112.242 115.727 111.946C116.203 111.65 116.75 111.502 117.367 111.502C117.509 111.502 117.644 111.515 117.773 111.541C117.914 111.567 118.056 111.599 118.198 111.637V113.877C118.004 113.825 117.811 113.787 117.618 113.761C117.438 113.722 117.258 113.703 117.078 113.703C116.537 113.703 116.1 113.806 115.765 114.012C115.443 114.205 115.192 114.43 115.012 114.687C114.845 114.945 114.729 115.202 114.665 115.46C114.613 115.717 114.588 115.91 114.588 116.039V121H112.271V111.734ZM120.017 111.734H122.218V113.182H122.256C122.462 112.744 122.79 112.358 123.241 112.023C123.704 111.676 124.322 111.502 125.094 111.502C126.548 111.502 127.513 112.075 127.99 113.22C128.324 112.628 128.743 112.197 129.244 111.927C129.746 111.644 130.345 111.502 131.04 111.502C131.657 111.502 132.179 111.605 132.603 111.811C133.028 112.017 133.369 112.3 133.627 112.661C133.897 113.021 134.09 113.446 134.206 113.935C134.321 114.411 134.379 114.926 134.379 115.479V121H132.063V115.749C132.063 115.466 132.037 115.196 131.986 114.938C131.934 114.668 131.844 114.437 131.715 114.243C131.587 114.038 131.413 113.877 131.194 113.761C130.975 113.645 130.692 113.587 130.345 113.587C129.984 113.587 129.676 113.658 129.418 113.799C129.174 113.928 128.968 114.108 128.8 114.34C128.646 114.559 128.53 114.816 128.453 115.112C128.389 115.395 128.356 115.685 128.356 115.981V121H126.04V115.479C126.04 114.9 125.918 114.443 125.673 114.108C125.429 113.761 125.023 113.587 124.457 113.587C124.071 113.587 123.743 113.651 123.472 113.78C123.215 113.909 122.996 114.083 122.816 114.301C122.649 114.52 122.527 114.771 122.449 115.054C122.372 115.337 122.333 115.633 122.333 115.942V121H120.017V111.734ZM142.702 119.726H142.644C142.309 120.254 141.885 120.64 141.37 120.884C140.855 121.116 140.289 121.232 139.671 121.232C139.246 121.232 138.828 121.174 138.416 121.058C138.017 120.942 137.657 120.768 137.335 120.537C137.026 120.305 136.775 120.015 136.582 119.668C136.389 119.321 136.293 118.915 136.293 118.452C136.293 117.95 136.383 117.525 136.563 117.178C136.743 116.817 136.981 116.521 137.277 116.29C137.586 116.045 137.94 115.852 138.339 115.711C138.738 115.569 139.15 115.466 139.575 115.402C140.012 115.325 140.45 115.279 140.887 115.267C141.325 115.241 141.737 115.228 142.123 115.228H142.702V114.977C142.702 114.398 142.502 113.967 142.103 113.684C141.704 113.388 141.196 113.24 140.578 113.24C140.089 113.24 139.632 113.33 139.208 113.51C138.783 113.677 138.416 113.909 138.107 114.205L136.891 112.989C137.406 112.461 138.004 112.081 138.687 111.85C139.381 111.618 140.096 111.502 140.829 111.502C141.486 111.502 142.039 111.579 142.489 111.734C142.94 111.875 143.313 112.062 143.609 112.294C143.905 112.525 144.13 112.796 144.285 113.105C144.452 113.401 144.568 113.703 144.632 114.012C144.709 114.321 144.755 114.623 144.767 114.919C144.78 115.202 144.787 115.453 144.787 115.672V121H142.702V119.726ZM142.567 116.85H142.084C141.762 116.85 141.402 116.862 141.003 116.888C140.604 116.914 140.224 116.978 139.864 117.081C139.517 117.171 139.221 117.313 138.976 117.506C138.732 117.686 138.609 117.943 138.609 118.278C138.609 118.497 138.654 118.683 138.744 118.838C138.847 118.979 138.976 119.102 139.131 119.205C139.285 119.308 139.459 119.385 139.652 119.436C139.845 119.475 140.038 119.494 140.231 119.494C141.029 119.494 141.614 119.308 141.988 118.934C142.374 118.548 142.567 118.027 142.567 117.371V116.85ZM147.279 111.734H149.48V113.22H149.518C149.737 112.757 150.072 112.358 150.522 112.023C150.973 111.676 151.584 111.502 152.356 111.502C152.974 111.502 153.495 111.605 153.92 111.811C154.357 112.017 154.711 112.287 154.982 112.622C155.252 112.957 155.445 113.343 155.561 113.78C155.676 114.218 155.734 114.675 155.734 115.151V121H153.418V116.309C153.418 116.052 153.405 115.769 153.379 115.46C153.354 115.138 153.283 114.842 153.167 114.572C153.064 114.289 152.897 114.057 152.665 113.877C152.433 113.684 152.118 113.587 151.719 113.587C151.333 113.587 151.005 113.651 150.735 113.78C150.477 113.909 150.258 114.083 150.078 114.301C149.911 114.52 149.789 114.771 149.711 115.054C149.634 115.337 149.596 115.633 149.596 115.942V121H147.279V111.734ZM164.696 114.514C164.426 114.231 164.142 114.005 163.846 113.838C163.55 113.671 163.248 113.587 162.939 113.587C162.514 113.587 162.135 113.664 161.8 113.819C161.466 113.973 161.176 114.179 160.931 114.437C160.7 114.694 160.52 114.99 160.391 115.325C160.275 115.659 160.217 116.007 160.217 116.367C160.217 116.727 160.275 117.075 160.391 117.409C160.52 117.744 160.7 118.04 160.931 118.297C161.176 118.555 161.466 118.761 161.8 118.915C162.135 119.07 162.514 119.147 162.939 119.147C163.299 119.147 163.634 119.076 163.943 118.934C164.252 118.78 164.516 118.561 164.734 118.278L166.279 119.938C166.047 120.17 165.777 120.369 165.468 120.537C165.172 120.704 164.87 120.839 164.561 120.942C164.252 121.045 163.956 121.116 163.673 121.154C163.39 121.206 163.145 121.232 162.939 121.232C162.244 121.232 161.588 121.116 160.97 120.884C160.352 120.653 159.818 120.324 159.368 119.9C158.917 119.475 158.557 118.967 158.287 118.375C158.029 117.77 157.901 117.101 157.901 116.367C157.901 115.633 158.029 114.971 158.287 114.379C158.557 113.774 158.917 113.259 159.368 112.834C159.818 112.41 160.352 112.081 160.97 111.85C161.588 111.618 162.244 111.502 162.939 111.502C163.531 111.502 164.123 111.618 164.715 111.85C165.32 112.069 165.848 112.422 166.298 112.911L164.696 114.514ZM169.53 117.178C169.607 117.873 169.878 118.413 170.341 118.799C170.804 119.185 171.364 119.378 172.02 119.378C172.599 119.378 173.082 119.263 173.468 119.031C173.867 118.786 174.215 118.484 174.511 118.124L176.171 119.378C175.63 120.048 175.025 120.524 174.356 120.807C173.687 121.09 172.986 121.232 172.252 121.232C171.557 121.232 170.901 121.116 170.283 120.884C169.665 120.653 169.131 120.324 168.681 119.9C168.23 119.475 167.87 118.967 167.6 118.375C167.342 117.77 167.214 117.101 167.214 116.367C167.214 115.633 167.342 114.971 167.6 114.379C167.87 113.774 168.23 113.259 168.681 112.834C169.131 112.41 169.665 112.081 170.283 111.85C170.901 111.618 171.557 111.502 172.252 111.502C172.895 111.502 173.481 111.618 174.009 111.85C174.549 112.069 175.006 112.39 175.379 112.815C175.765 113.24 176.061 113.767 176.267 114.398C176.486 115.016 176.595 115.73 176.595 116.541V117.178H169.53ZM174.279 115.44C174.266 114.758 174.054 114.224 173.642 113.838C173.23 113.439 172.657 113.24 171.924 113.24C171.229 113.24 170.675 113.439 170.264 113.838C169.865 114.237 169.62 114.771 169.53 115.44H174.279Z" fill="#AA825F"/>
<defs>
<clipPath id="clip0_139_92">
<rect width="52.9082" height="52.9082" fill="white" transform="translate(240.947 154.435)"/>
</clipPath>
</defs>
</svg>
