<svg width="168" height="40" viewBox="0 0 168 40" fill="none" xmlns="http://www.w3.org/2000/svg">
<g id="logo NGE" clip-path="url(#clip0_156_1294)">
<g id="logo NGE_2">
<path d="M20.1442 0C9.09713 0 0.141602 8.91262 0.141602 19.9067C0.141602 30.9006 9.09713 39.8131 20.1442 39.8131C31.1909 39.8131 40.1463 30.9006 40.1463 19.9067C40.1463 8.91262 31.1909 0 20.1442 0Z" fill="#001A41"/>
<path d="M20.8023 5.56443L20.8077 5.56097C21.5189 5.20104 21.7965 4.33426 21.433 3.62566C21.0644 2.91864 20.1934 2.63621 19.4841 3.00227C18.7728 3.3622 18.4901 4.23057 18.8588 4.93758C19.222 5.64648 20.0911 5.92435 20.8023 5.56443Z" fill="#F6F7FD"/>
<path d="M28.7255 7.69745L28.7306 7.69395C29.4421 7.33377 29.7194 6.46724 29.3562 5.75865C28.9875 5.05163 28.1166 4.76922 27.4073 5.1353C26.6958 5.49518 26.413 6.36359 26.7817 7.0706C27.1452 7.7792 28.0143 8.05734 28.7255 7.69745Z" fill="#F6F7FD"/>
<path d="M34.3586 13.3029L34.3637 13.2995C35.075 12.9395 35.3525 12.073 34.989 11.3642C34.6204 10.6571 33.7497 10.375 33.0401 10.741C32.3289 11.101 32.0462 11.9694 32.4148 12.6763C32.7781 13.385 33.6472 13.6628 34.3586 13.3029Z" fill="#F6F7FD"/>
<path d="M36.5019 21.1885L36.507 21.185C37.2182 20.8251 37.4957 19.9583 37.1325 19.2497C36.7639 18.5427 35.8929 18.2605 35.1833 18.6266C34.4721 18.9865 34.1894 19.8549 34.5581 20.5619C34.9216 21.2705 35.7907 21.5484 36.5019 21.1885Z" fill="#F6F7FD"/>
<path d="M34.3586 29.0749L34.3637 29.0714C35.075 28.7115 35.3525 27.8447 34.989 27.1361C34.6204 26.4291 33.7497 26.1469 33.0401 26.513C32.3289 26.8729 32.0462 27.7413 32.4148 28.4483C32.7781 29.1569 33.6472 29.4348 34.3586 29.0749Z" fill="#F6F7FD"/>
<path d="M28.7255 34.6798L28.7306 34.6764C29.4421 34.3164 29.7194 33.4496 29.3562 32.741C28.9875 32.034 28.1166 31.7516 27.4073 32.1177C26.6958 32.4776 26.413 33.346 26.7817 34.053C27.1452 34.7619 28.0143 35.0397 28.7255 34.6798Z" fill="#F6F7FD"/>
<path d="M20.8023 36.813L20.8077 36.8093C21.5189 36.4495 21.7965 35.5827 21.433 34.8741C21.0644 34.1671 20.1934 33.8846 19.4841 34.2507C18.7728 34.6106 18.4901 35.479 18.8588 36.186C19.222 36.8949 20.0911 37.1729 20.8023 36.813Z" fill="#F6F7FD"/>
<path d="M12.8779 34.6798L12.883 34.6764C13.5942 34.3164 13.8718 33.4496 13.5083 32.741C13.1396 32.034 12.269 31.7516 11.5594 32.1177C10.8482 32.4776 10.5655 33.346 10.9341 34.053C11.2973 34.7619 12.1667 35.0397 12.8779 34.6798Z" fill="#F6F7FD"/>
<path d="M7.24595 29.0749L7.25132 29.0714C7.96255 28.7115 8.24014 27.8447 7.87663 27.1361C7.50797 26.4291 6.63701 26.1469 5.92771 26.513C5.21622 26.8729 4.93348 27.7413 5.30214 28.4483C5.66565 29.1569 6.53475 29.4348 7.24595 29.0749Z" fill="#F6F7FD"/>
<path d="M5.10303 21.1885L5.1081 21.185C5.81933 20.8251 6.09696 19.9583 5.73341 19.2497C5.36479 18.5427 4.49409 18.2605 3.78449 18.6266C3.07328 18.9865 2.79057 19.8549 3.15919 20.5619C3.52245 21.2705 4.3918 21.5484 5.10303 21.1885Z" fill="#F6F7FD"/>
<path d="M7.24595 13.303L7.25132 13.2995C7.96255 12.9396 8.24014 12.073 7.87663 11.3642C7.50797 10.6572 6.63701 10.375 5.92771 10.7411C5.21622 11.101 4.93348 11.9694 5.30214 12.6764C5.66565 13.385 6.53475 13.6629 7.24595 13.303Z" fill="#F6F7FD"/>
<path d="M12.8779 7.69745L12.883 7.69395C13.5942 7.33377 13.8718 6.46724 13.5083 5.75865C13.1396 5.05163 12.269 4.76922 11.5594 5.1353C10.8482 5.49518 10.5655 6.36359 10.9341 7.0706C11.2973 7.7792 12.1667 8.05734 12.8779 7.69745Z" fill="#F6F7FD"/>
<path d="M13.7816 13.9964V26.1987H11.0052V13.9964H13.7816ZM18.7024 13.9964V18.4193H15.0158V21.3008H18.7024V30.2644H21.5975V13.9964H18.7024Z" fill="#F6F7FD"/>
<path d="M54.6455 35.5871V23.2307H62.5385V24.1486L62.3965 24.2899C61.8171 24.0664 60.8415 23.9545 59.4699 23.9545H56.2242V28.9147H61.421L61.5273 29.0382V29.6561H56.2242V34.8634H59.6474C60.2624 34.8634 60.8123 34.8398 61.2969 34.7928C61.7819 34.7339 62.1127 34.6752 62.2902 34.6163L62.574 34.528L62.7159 34.6692V35.5871H54.6455Z" fill="#161B2B"/>
<path d="M65.5196 35.5871V30.2915C65.5196 29.6797 65.5018 29.1325 65.4666 28.6499C65.431 28.1673 65.3895 27.8319 65.3425 27.6437L65.2891 27.3789L65.4488 27.2201H69.404C70.3262 27.2201 71.042 27.4202 71.5504 27.8202C72.0587 28.2086 72.3129 28.7265 72.3129 29.3736C72.3129 30.3151 71.8223 30.9563 70.8408 31.2977C71.4674 31.4272 71.952 31.68 72.2951 32.0567C72.65 32.4214 72.8272 32.8687 72.8272 33.3983C72.8272 34.0574 72.5611 34.5869 72.0291 34.9869C71.497 35.387 70.7519 35.5871 69.7942 35.5871H65.5196ZM69.4929 31.7213H67.045V34.8457H69.4929C70.0365 34.8457 70.4681 34.7045 70.7875 34.4221C71.1069 34.1397 71.2666 33.763 71.2666 33.2924C71.2666 32.8098 71.1069 32.4274 70.7875 32.145C70.4681 31.8625 70.0365 31.7213 69.4929 31.7213ZM69.1558 27.9615H67.045V30.98H69.1558C69.6878 30.98 70.1017 30.8447 70.3973 30.574C70.7049 30.3032 70.8586 29.9385 70.8586 29.4795C70.8586 29.0206 70.7049 28.6559 70.3973 28.3851C70.1017 28.1027 69.6878 27.9615 69.1558 27.9615Z" fill="#161B2B"/>
<path d="M76.9524 40H75.427V32.1097C75.427 31.1212 75.4033 30.2326 75.3559 29.4443C75.3088 28.6559 75.2618 28.1144 75.214 27.8203L75.1254 27.379L75.2851 27.2201C75.5571 27.2201 75.8172 27.2084 76.0654 27.1848C76.3259 27.1612 76.5148 27.1378 76.633 27.1142L76.7927 27.0789L76.9524 27.2201L76.8813 28.085L76.9524 28.1556C77.0354 28.0734 77.1473 27.9732 77.2892 27.8556C77.4433 27.738 77.7683 27.5848 78.2648 27.3966C78.7616 27.1965 79.2818 27.0965 79.8257 27.0965C80.9372 27.0965 81.842 27.4732 82.5393 28.2263C83.2374 28.9793 83.586 30.0091 83.586 31.3154C83.586 32.6686 83.2018 33.7454 82.433 34.5457C81.6764 35.334 80.6416 35.7284 79.3292 35.7284C78.3596 35.7284 77.5675 35.5225 76.9524 35.1105V40ZM81.9009 31.5272C81.9009 30.3858 81.6468 29.5149 81.1384 28.9147C80.6297 28.3145 79.9621 28.0145 79.134 28.0145C78.7438 28.0145 78.3655 28.0791 77.9987 28.2086C77.6441 28.3382 77.3781 28.4674 77.2007 28.5969L76.9524 28.7911V33.5042C76.9524 33.9868 77.1595 34.3751 77.573 34.6692C77.9987 34.9517 78.5193 35.0929 79.134 35.0929C79.9854 35.0929 80.6594 34.7811 81.1559 34.1573C81.6527 33.5335 81.9009 32.6569 81.9009 31.5272Z" fill="#161B2B"/>
<path d="M86.7502 34.528C85.9462 33.7277 85.5442 32.6862 85.5442 31.4036C85.5442 30.121 85.9462 29.0852 86.7502 28.2969C87.566 27.4966 88.6242 27.0965 89.9251 27.0965C91.2378 27.0965 92.296 27.4966 93.1 28.2969C93.9158 29.0852 94.3238 30.121 94.3238 31.4036C94.3238 32.6982 93.9158 33.7453 93.1 34.5457C92.296 35.334 91.2378 35.7284 89.9251 35.7284C88.6242 35.7284 87.566 35.3283 86.7502 34.528ZM87.2289 31.4036C87.2289 32.557 87.4716 33.4629 87.9562 34.122C88.453 34.7811 89.1092 35.1105 89.9251 35.1105C90.7409 35.1105 91.3971 34.7811 91.894 34.122C92.3905 33.4629 92.6387 32.557 92.6387 31.4036C92.6387 30.2622 92.3905 29.362 91.894 28.7028C91.3971 28.0321 90.7409 27.6967 89.9251 27.6967C89.1211 27.6967 88.4708 28.0321 87.974 28.7028C87.4775 29.362 87.2289 30.2622 87.2289 31.4036Z" fill="#161B2B"/>
<path d="M103.023 35.5871V27.9615H98.5002V35.5871H96.9748V30.2915C96.9748 29.6797 96.9574 29.1325 96.9218 28.6499C96.8862 28.1673 96.8451 27.8319 96.7977 27.6437L96.7443 27.3789L96.904 27.2201H104.549V35.5871H103.023Z" fill="#161B2B"/>
<path d="M111.098 27.0956C113.214 27.0956 114.272 27.9076 114.272 29.5316V34.1388C114.272 34.6567 114.497 34.9154 114.947 34.9154C115.041 34.9154 115.13 34.9038 115.213 34.8802C115.307 34.8565 115.372 34.8332 115.408 34.8095L115.461 34.7743L115.745 35.0743C115.709 35.1213 115.656 35.1802 115.585 35.2508C115.514 35.3215 115.342 35.4214 115.071 35.5509C114.799 35.6685 114.497 35.7274 114.166 35.7274C113.326 35.7274 112.859 35.3684 112.765 34.6507C111.878 35.3684 110.861 35.7274 109.714 35.7274C108.922 35.7274 108.325 35.5333 107.923 35.1449C107.521 34.7566 107.32 34.221 107.32 33.5386C107.32 32.8915 107.592 32.4401 108.012 32.0382C108.441 31.626 109.195 31.271 109.984 30.9967C110.444 30.8365 111.476 30.6363 112.14 30.516C112.492 30.4476 112.746 30.1407 112.746 29.7836C112.747 29.5248 112.747 29.2845 112.747 29.2845C112.747 28.2254 112.18 27.6958 111.045 27.6958C110.441 27.6958 109.889 28.0249 109.523 28.3307C109.168 28.6368 108.77 29.2139 108.77 29.2139H108.628C108.628 29.2139 108.404 29.0852 108.229 28.8568C108.068 28.6468 108.016 28.4589 107.99 28.1194C108.207 27.9035 108.281 27.8582 108.507 27.6958C109.11 27.2722 110.01 27.0956 111.098 27.0956ZM108.898 33.3621C108.898 34.3389 109.43 34.8272 110.495 34.8272C110.873 34.8272 111.251 34.7626 111.63 34.633C112.008 34.4918 112.292 34.3506 112.481 34.2094L112.747 34.0152V31.0453C112.747 31.0453 111.096 31.3875 110.526 31.6145C110.063 31.7987 109.578 32.1205 109.306 32.3559C109.034 32.5914 108.898 32.9267 108.898 33.3621Z" fill="#161B2B"/>
<path d="M63.0349 16.0342V10.262H57.3947V16.0342H54.6455V3.6778H57.3947V9.14994H63.0349V3.6778H65.7841V16.0342H63.0349Z" fill="#161B2B"/>
<path d="M69.0698 14.9927C68.2184 14.1807 67.7927 13.1216 67.7927 11.8154C67.7927 10.5091 68.2184 9.45599 69.0698 8.65565C69.9209 7.84366 71.0324 7.43768 72.404 7.43768C73.7757 7.43768 74.8813 7.84366 75.7208 8.65565C76.5723 9.45599 76.998 10.5091 76.998 11.8154C76.998 13.1216 76.5723 14.1807 75.7208 14.9927C74.8698 15.8047 73.7638 16.2107 72.404 16.2107C71.0324 16.2107 69.9209 15.8047 69.0698 14.9927ZM70.7193 11.8154C70.7193 12.9568 70.8727 13.8336 71.1802 14.4455C71.4878 15.0574 71.8957 15.3634 72.404 15.3634C72.9124 15.3634 73.3144 15.0574 73.6104 14.4455C73.9176 13.8336 74.0713 12.9568 74.0713 11.8154C74.0713 10.6856 73.9176 9.81473 73.6104 9.20289C73.3144 8.59101 72.9124 8.28496 72.404 8.28496C71.8957 8.28496 71.4878 8.59101 71.1802 9.20289C70.8727 9.81473 70.7193 10.6856 70.7193 11.8154Z" fill="#161B2B"/>
<path d="M78.8924 16.0342V10.7386C78.8924 10.1501 78.8628 9.61484 78.8035 9.13227C78.7446 8.63802 78.6916 8.29665 78.6442 8.10845L78.5552 7.82603L78.7683 7.61419H83.1136C84.2133 7.61419 85.0529 7.81434 85.6324 8.21438C86.2118 8.61439 86.5016 9.14994 86.5016 9.8207C86.5016 10.7269 85.9932 11.3681 84.9762 11.7448C86.3359 12.0389 87.0158 12.7273 87.0158 13.81C87.0158 14.4925 86.7142 15.034 86.1114 15.434C85.5201 15.8341 84.639 16.0342 83.4686 16.0342H78.8924ZM82.9009 12.345H81.5175V14.9221H82.9009C83.3504 14.9221 83.699 14.8102 83.9473 14.5868C84.2077 14.3632 84.3374 14.0455 84.3374 13.6335C84.3374 13.2215 84.2077 12.9038 83.9473 12.6803C83.699 12.4568 83.3504 12.345 82.9009 12.345ZM82.5994 8.7263H81.5175V11.2505H82.5994C83.0488 11.2505 83.3974 11.1446 83.6457 10.9328C83.8943 10.7093 84.0184 10.3973 84.0184 9.99722C84.0184 9.59721 83.8943 9.28515 83.6457 9.06166C83.3974 8.83817 83.0488 8.7263 82.5994 8.7263Z" fill="#161B2B"/>
<path d="M98.1015 16.0342V15.7518C98.8229 15.0104 99.5972 13.9513 100.425 12.5744L100.514 12.4155C99.8751 12.2274 99.3787 11.933 99.0237 11.533C98.6691 11.121 98.4916 10.6444 98.4916 10.1031C98.4916 9.36174 98.8229 8.76159 99.485 8.30262C100.147 7.84369 101.016 7.61419 102.092 7.61419H106.313V16.0342H103.688V12.6097H102.713L100.673 16.1931C99.9874 16.0872 99.13 16.0342 98.1015 16.0342ZM102.589 11.4976H103.688V8.7263H102.589C102.152 8.7263 101.797 8.84389 101.525 9.07933C101.253 9.31476 101.117 9.65588 101.117 10.1031C101.117 10.5504 101.253 10.8975 101.525 11.1446C101.797 11.38 102.152 11.4976 102.589 11.4976Z" fill="#161B2B"/>
<path d="M116.444 8.65569H115.415V16.0342H112.79V10.7386C112.79 10.1501 112.76 9.61484 112.701 9.13227C112.642 8.63802 112.589 8.29665 112.541 8.10845L112.453 7.82603L112.666 7.61419H119.14V8.97342L118.927 9.18523C118.418 8.8322 117.591 8.65569 116.444 8.65569Z" fill="#161B2B"/>
<path d="M133.397 15.1692C133.894 15.1692 134.296 15.034 134.603 14.7632C134.91 14.4925 135.064 14.1218 135.064 13.6512C135.064 13.2275 134.934 12.8981 134.674 12.6627C134.426 12.4155 134.077 12.292 133.627 12.292H132.297L132.155 12.1331V11.2152H133.344C134.325 11.2152 134.816 10.7739 134.816 9.89128C134.816 9.43235 134.68 9.06166 134.408 8.77921C134.148 8.4968 133.799 8.35557 133.361 8.35557C132.959 8.35557 132.587 8.50845 132.244 8.81454C131.913 9.12059 131.676 9.42638 131.534 9.73243L131.321 10.1914H131.109C131.038 10.1444 130.943 10.0795 130.825 9.99722C130.707 9.90297 130.553 9.70311 130.364 9.39703C130.175 9.09098 130.08 8.76756 130.08 8.42618C130.151 8.35557 130.263 8.2673 130.417 8.1614C130.571 8.04381 130.937 7.89661 131.517 7.72009C132.096 7.53189 132.74 7.43768 133.45 7.43768C134.644 7.43768 135.585 7.65545 136.27 8.09078C136.968 8.52611 137.317 9.09695 137.317 9.80304C137.317 10.6973 136.791 11.3271 135.738 11.6918C136.4 11.833 136.903 12.0978 137.245 12.4861C137.589 12.8628 137.76 13.2981 137.76 13.7924C137.76 14.5221 137.387 15.1103 136.643 15.5576C135.909 15.9929 134.899 16.2107 133.61 16.2107C132.806 16.2107 132.096 16.1225 131.481 15.9459C130.878 15.7694 130.47 15.5929 130.257 15.4164L129.956 15.1516C129.956 14.8222 130.039 14.5161 130.204 14.2337C130.37 13.9396 130.541 13.7277 130.719 13.5982L130.967 13.4217H131.18C131.192 13.4687 131.215 13.5336 131.251 13.6159C131.286 13.6865 131.369 13.8277 131.499 14.0395C131.629 14.2397 131.771 14.4162 131.925 14.5691C132.078 14.722 132.285 14.8632 132.545 14.9927C132.818 15.1103 133.101 15.1692 133.397 15.1692Z" fill="#161B2B"/>
<path d="M146.928 14.0748L147.336 14.4808C147.313 14.5278 147.271 14.5927 147.212 14.675C147.153 14.7456 147.017 14.8808 146.804 15.081C146.603 15.2811 146.373 15.4576 146.112 15.6105C145.852 15.7634 145.498 15.9046 145.048 16.0342C144.599 16.1518 144.12 16.2107 143.612 16.2107C142.216 16.2107 141.099 15.8107 140.259 15.0104C139.432 14.1984 139.018 13.1276 139.018 11.7977C139.018 10.4561 139.443 9.39703 140.295 8.62036C141.146 7.832 142.34 7.43768 143.878 7.43768C146.207 7.43768 147.372 8.35557 147.372 10.1914C147.372 10.4149 147.354 10.6387 147.319 10.8622C147.295 11.074 147.265 11.2328 147.23 11.3387L147.177 11.5153L146.964 11.7271H141.944C141.98 12.8215 142.21 13.6159 142.636 14.1101C143.074 14.6044 143.706 14.8515 144.534 14.8515C144.983 14.8515 145.403 14.7869 145.793 14.6573C146.195 14.5278 146.485 14.3985 146.662 14.269L146.928 14.0748ZM143.807 8.28496C143.286 8.28496 142.861 8.50277 142.529 8.9381C142.21 9.37343 142.021 10.0148 141.962 10.8622L144.924 10.6856C144.983 10.4149 145.013 10.1268 145.013 9.8207C145.013 8.79687 144.611 8.28496 143.807 8.28496Z" fill="#161B2B"/>
<path d="M156.847 8.97342L156.634 9.18523C156.125 8.8322 155.298 8.65569 154.15 8.65569H153.796V16.0342H151.171V8.65569H150.834C150.325 8.65569 149.864 8.70266 149.45 8.79687C149.036 8.87917 148.752 8.96174 148.599 9.044L148.35 9.18523L148.138 8.97342V7.61419H156.847V8.97342Z" fill="#161B2B"/>
<path d="M162.033 7.43768C164.481 7.43768 165.705 8.27331 165.705 9.94427V14.2513C165.705 14.7456 165.906 14.9927 166.308 14.9927C166.391 14.9927 166.467 14.981 166.538 14.9574C166.609 14.9338 166.657 14.9161 166.68 14.9045L166.734 14.8692L167.142 15.2751C167.082 15.3458 167 15.434 166.893 15.5399C166.787 15.6458 166.538 15.7871 166.148 15.9636C165.758 16.1284 165.332 16.2107 164.871 16.2107C163.901 16.2107 163.322 15.8577 163.133 15.1516C162.317 15.8577 161.348 16.2107 160.224 16.2107C159.456 16.2107 158.87 16.0165 158.468 15.6282C158.066 15.2399 157.865 14.6867 157.865 13.9689C157.865 13.2745 158.152 12.7862 158.628 12.3802C159.726 11.443 160.537 11.3181 161.384 11.1397C161.693 11.0748 162.135 10.9124 162.491 10.7706C162.844 10.6392 163.077 10.3035 163.077 9.92878C163.08 9.68084 163.08 9.45001 163.08 9.45001C163.08 8.67331 162.701 8.28496 161.944 8.28496C161.531 8.28496 161.226 8.42456 160.969 8.63802C160.695 8.86505 160.395 9.1912 160.206 9.45001C160.043 9.67321 159.836 10.1914 159.836 10.1914H159.623C159.623 10.1914 159.431 10.0863 159.356 10.0089C159.16 9.8071 158.791 9.31937 158.68 8.97339C158.606 8.74448 158.594 8.42618 158.594 8.42618C158.594 8.42618 158.74 8.2847 158.907 8.1785C159.558 7.7611 160.827 7.43768 162.033 7.43768ZM160.579 13.6335C160.579 14.4102 160.957 14.7986 161.714 14.7986C161.95 14.7986 162.181 14.7573 162.406 14.675C162.642 14.5927 162.814 14.5161 162.92 14.4455L163.08 14.3219V11.442C163.08 11.442 162.083 11.8979 161.714 12.125C161.411 12.311 161.064 12.6037 160.863 12.8039C160.674 12.9921 160.579 13.2688 160.579 13.6335Z" fill="#161B2B"/>
<path d="M92.3427 7.43768C94.7903 7.43768 96.014 8.27331 96.014 9.94427V14.2513C96.014 14.7456 96.2152 14.9927 96.6172 14.9927C96.7002 14.9927 96.7769 14.981 96.8477 14.9574C96.9188 14.9338 96.9662 14.9161 96.9896 14.9045L97.043 14.8692L97.4509 15.2751C97.392 15.3458 97.309 15.434 97.2026 15.5399C97.0963 15.6458 96.8477 15.7871 96.4575 15.9636C96.0674 16.1284 95.6417 16.2107 95.1804 16.2107C94.2111 16.2107 93.6317 15.8577 93.4423 15.1516C92.6265 15.8577 91.6568 16.2107 90.5335 16.2107C89.765 16.2107 89.1796 16.0165 88.7776 15.6282C88.3756 15.2399 88.1744 14.6867 88.1744 13.9689C88.1744 13.2745 88.4612 12.7862 88.9373 12.3802C90.0355 11.443 90.8458 11.3181 91.6931 11.1397C92.0018 11.0748 92.4445 10.9124 92.8002 10.7706C93.153 10.6392 93.3867 10.3035 93.3867 9.92878C93.389 9.68084 93.389 9.45001 93.389 9.45001C93.389 8.67331 93.0111 8.28496 92.2541 8.28496C91.8402 8.28496 91.5353 8.42456 91.2785 8.63802C91.0051 8.86505 90.7046 9.1912 90.5157 9.45001C90.3527 9.67321 90.1452 10.1914 90.1452 10.1914H89.9325C89.9325 10.1914 89.7402 10.0863 89.6654 10.0089C89.4694 9.8071 89.1007 9.31937 88.9895 8.97339C88.9154 8.74448 88.9036 8.42618 88.9036 8.42618C88.9036 8.42618 89.0499 8.2847 89.2159 8.1785C89.8673 7.7611 91.1367 7.43768 92.3427 7.43768ZM90.888 13.6335C90.888 14.4102 91.2667 14.7986 92.0233 14.7986C92.26 14.7986 92.4905 14.7573 92.715 14.675C92.9518 14.5927 93.1229 14.5161 93.2297 14.4455L93.389 14.3219V11.442C93.389 11.442 92.3927 11.8979 92.0233 12.125C91.7209 12.311 91.373 12.6037 91.1718 12.8039C90.9829 12.9921 90.888 13.2688 90.888 13.6335Z" fill="#161B2B"/>
<path d="M124.325 7.43768C126.773 7.43768 127.996 8.27331 127.996 9.94427V14.2513C127.996 14.7456 128.198 14.9927 128.6 14.9927C128.682 14.9927 128.759 14.981 128.83 14.9574C128.901 14.9338 128.949 14.9161 128.972 14.9045L129.025 14.8692L129.433 15.2751C129.374 15.3458 129.291 15.434 129.185 15.5399C129.078 15.6458 128.83 15.7871 128.44 15.9636C128.05 16.1284 127.624 16.2107 127.163 16.2107C126.193 16.2107 125.614 15.8577 125.425 15.1516C124.609 15.8577 123.639 16.2107 122.516 16.2107C121.747 16.2107 121.162 16.0165 120.76 15.6282C120.358 15.2399 120.157 14.6867 120.157 13.9689C120.157 13.2745 120.444 12.7862 120.919 12.3802C122.018 11.443 122.828 11.3181 123.676 11.1397C123.984 11.0748 124.427 10.9124 124.783 10.7706C125.135 10.6392 125.369 10.3035 125.369 9.92878C125.371 9.68084 125.371 9.45001 125.371 9.45001C125.371 8.67331 124.993 8.28496 124.236 8.28496C123.823 8.28496 123.517 8.42456 123.261 8.63802C122.987 8.86505 122.687 9.1912 122.498 9.45001C122.335 9.67321 122.128 10.1914 122.128 10.1914H121.915C121.915 10.1914 121.723 10.0863 121.647 10.0089C121.452 9.8071 121.083 9.31937 120.972 8.97339C120.898 8.74448 120.886 8.42618 120.886 8.42618C120.886 8.42618 121.032 8.2847 121.198 8.1785C121.85 7.7611 123.119 7.43768 124.325 7.43768ZM122.87 13.6335C122.87 14.4102 123.249 14.7986 124.006 14.7986C124.242 14.7986 124.473 14.7573 124.697 14.675C124.934 14.5927 125.105 14.5161 125.212 14.4455L125.371 14.3219V11.442C125.371 11.442 124.375 11.8979 124.006 12.125C123.703 12.311 123.355 12.6037 123.154 12.8039C122.965 12.9921 122.87 13.2688 122.87 13.6335Z" fill="#161B2B"/>
</g>
</g>
<defs>
<clipPath id="clip0_156_1294">
<rect width="167" height="40" fill="white" transform="translate(0.141602)"/>
</clipPath>
</defs>
</svg>
