<svg width="48" height="48" viewBox="0 0 48 48" fill="none" xmlns="http://www.w3.org/2000/svg">
<g id="check">
<rect width="48" height="48" rx="24" fill="#1A1A1A"/>
<path id="Union" d="M19.2765 35C19.0156 35 18.7633 34.9503 18.5196 34.8508C18.2759 34.753 18.04 34.5888 17.8119 34.3584L9.56113 26.022C9.17058 25.6273 8.9839 25.1262 9.00109 24.5185C9.01671 23.9092 9.21979 23.4073 9.61034 23.0127C10.0009 22.6181 10.4891 22.4208 11.0749 22.4208C11.6607 22.4208 12.1489 22.6181 12.5395 23.0127L19.3749 29.9191L35.5343 13.5919C35.9248 13.1973 36.4044 13 36.973 13C37.5432 13 38.0236 13.1973 38.4142 13.5919C38.8047 13.9865 39 14.4719 39 15.048C39 15.6225 38.8047 16.1071 38.4142 16.5017L20.741 34.3584C20.5129 34.5888 20.277 34.753 20.0333 34.8508C19.7896 34.9503 19.5373 35 19.2765 35Z" fill="#9EDA3B"/>
</g>
</svg>
