<svg width="24" height="25" viewBox="0 0 24 25" fill="none" xmlns="http://www.w3.org/2000/svg">
<g id="check">
<path id="Union" d="M9.63823 18C9.50778 18 9.38164 17.9751 9.25978 17.9254C9.13793 17.8765 9.01999 17.7944 8.90594 17.6792L4.78057 13.511C4.58529 13.3137 4.49195 13.0631 4.50054 12.7593C4.50835 12.4546 4.6099 12.2037 4.80517 12.0063C5.00045 11.809 5.24454 11.7104 5.53745 11.7104C5.83037 11.7104 6.07446 11.809 6.26973 12.0063L9.68744 15.4595L17.7671 7.29595C17.9624 7.09865 18.2022 7 18.4865 7C18.7716 7 19.0118 7.09865 19.2071 7.29595C19.4024 7.49326 19.5 7.73594 19.5 8.024C19.5 8.31127 19.4024 8.55356 19.2071 8.75086L10.3705 17.6792C10.2565 17.7944 10.1385 17.8765 10.0167 17.9254C9.89482 17.9751 9.76867 18 9.63823 18Z" fill="#9EDA3B"/>
</g>
</svg>
