<svg width="24" height="25" viewBox="0 0 24 25" fill="none" xmlns="http://www.w3.org/2000/svg">
<g id="error">
<path id="Union" d="M12 17.5C12.26 17.5 12.4812 17.4088 12.6637 17.2262C12.8463 17.0437 12.9375 16.8225 12.9375 16.5625C12.9375 16.3025 12.8463 16.0813 12.6637 15.8988C12.4812 15.7162 12.26 15.625 12 15.625C11.74 15.625 11.5188 15.7162 11.3363 15.8988C11.1537 16.0813 11.0625 16.3025 11.0625 16.5625C11.0625 16.8225 11.1537 17.0437 11.3363 17.2262C11.5188 17.4088 11.74 17.5 12 17.5ZM12 13.75C12.26 13.75 12.4812 13.6588 12.6637 13.4762C12.8463 13.2937 12.9375 13.0725 12.9375 12.8125V8.4375C12.9375 8.1775 12.8463 7.95625 12.6637 7.77375C12.4812 7.59125 12.26 7.5 12 7.5C11.74 7.5 11.5188 7.59125 11.3363 7.77375C11.1537 7.95625 11.0625 8.1775 11.0625 8.4375V12.8125C11.0625 13.0725 11.1537 13.2937 11.3363 13.4762C11.5188 13.6588 11.74 13.75 12 13.75ZM12 22.5C10.6283 22.5 9.335 22.2396 8.12 21.7188C6.905 21.1979 5.84167 20.4817 4.93 19.57C4.01833 18.6583 3.30208 17.595 2.78125 16.38C2.26042 15.165 2 13.8717 2 12.5C2 11.1108 2.26042 9.81292 2.78125 8.60625C3.30208 7.40042 4.01833 6.34167 4.93 5.43C5.84167 4.51833 6.905 3.80208 8.12 3.28125C9.335 2.76042 10.6283 2.5 12 2.5C13.3892 2.5 14.6871 2.76042 15.8937 3.28125C17.0996 3.80208 18.1583 4.51833 19.07 5.43C19.9817 6.34167 20.6979 7.40042 21.2188 8.60625C21.7396 9.81292 22 11.1108 22 12.5C22 13.8717 21.7396 15.165 21.2188 16.38C20.6979 17.595 19.9817 18.6583 19.07 19.57C18.1583 20.4817 17.0996 21.1979 15.8937 21.7188C14.6871 22.2396 13.3892 22.5 12 22.5ZM12 20.625C14.2567 20.625 16.175 19.835 17.755 18.255C19.335 16.675 20.125 14.7567 20.125 12.5C20.125 10.2433 19.335 8.325 17.755 6.745C16.175 5.165 14.2567 4.375 12 4.375C9.74333 4.375 7.825 5.165 6.245 6.745C4.665 8.325 3.875 10.2433 3.875 12.5C3.875 14.7567 4.665 16.675 6.245 18.255C7.825 19.835 9.74333 20.625 12 20.625Z" fill="#D96C06"/>
</g>
</svg>
