<svg width="8" height="12" viewBox="0 0 8 12" fill="none" xmlns="http://www.w3.org/2000/svg">
<path id="Union" d="M1.06673 11.1792C0.855577 10.9653 0.75 10.7187 0.75 10.4393C0.75 10.1599 0.855577 9.91329 1.06673 9.69942L4.73258 6L1.06673 2.30058C0.855577 2.08671 0.75 1.84008 0.75 1.5607C0.75 1.28132 0.855577 1.03469 1.06673 0.820814C1.27867 0.606938 1.52306 0.5 1.7999 0.5C2.07753 0.5 2.32192 0.606938 2.53307 0.820814L6.9321 5.26012C7.04628 5.37534 7.128 5.49451 7.17727 5.61763C7.22576 5.74074 7.25 5.8682 7.25 6C7.25 6.1318 7.22576 6.25926 7.17727 6.38237C7.128 6.50549 7.04628 6.62466 6.9321 6.73988L2.53307 11.1792C2.32192 11.3931 2.07753 11.5 1.7999 11.5C1.52306 11.5 1.27867 11.3931 1.06673 11.1792Z" fill="#7C7C7C"/>
</svg>
