<svg width="67" height="65" viewBox="0 0 67 65" fill="none" xmlns="http://www.w3.org/2000/svg">
<rect x="3.7663" y="2.87229" width="59.598" height="59.598" rx="13.9558" fill="#E7E7E7" stroke="black" stroke-width="3.76962"/>
<path d="M9.68725 18.2912C13.4969 13.3321 20.6054 12.4003 25.5645 16.2099L36.2579 24.4247C41.217 28.2344 42.1488 35.3429 38.3392 40.302C34.5295 45.2611 27.421 46.1929 22.4619 42.3832L11.7685 34.1684C6.80941 30.3587 5.8776 23.2503 9.68725 18.2912Z" fill="black"/>
<path d="M9.68858 48.6447C5.88447 43.6814 6.82421 36.5739 11.7876 32.7698L22.4901 24.5669C27.4535 20.7628 34.5609 21.7026 38.365 26.6659C42.1691 31.6293 41.2294 38.7367 36.266 42.5408L25.5635 50.7437C20.6001 54.5478 13.4927 53.6081 9.68858 48.6447Z" fill="black"/>
<path d="M57.4366 18.2966C53.6282 13.3366 46.5199 12.403 41.5599 16.2115L30.8645 24.4237C25.9045 28.2322 24.971 35.3404 28.7794 40.3005C32.5879 45.2605 39.6961 46.194 44.6561 42.3856L55.3515 34.1733C60.3116 30.3649 61.2451 23.2566 57.4366 18.2966Z" fill="black"/>
<path d="M57.428 48.6501C61.2333 43.6877 60.2953 36.5801 55.3328 32.7747L44.6322 24.5693C39.6698 20.7639 32.5622 21.702 28.7568 26.6644C24.9515 31.6268 25.8896 38.7345 30.852 42.5398L41.5526 50.7453C46.515 54.5506 53.6227 53.6126 57.428 48.6501Z" fill="black"/>
<path d="M37.5621 29.4287L35.6916 32.6766C35.4232 33.1426 35.4232 33.7163 35.6914 34.1823L37.5611 37.4307L34.3132 35.5603C33.8472 35.2919 33.2735 35.2918 32.8075 35.5601L29.5591 37.4298L31.4296 34.1818C31.6979 33.7158 31.698 33.1422 31.4297 32.6761L29.5601 29.4277L32.808 31.2982C33.274 31.5666 33.8476 31.5667 34.3137 31.2984L37.5621 29.4287Z" fill="#E7E7E7"/>
</svg>
