<svg width="14" height="10" viewBox="0 0 14 10" fill="none" xmlns="http://www.w3.org/2000/svg">
<path d="M2.66957 6.58169H3.52128M2.66957 6.58169L3.92174 9.08604L3.2243 6.99373C3.15673 6.79103 3.30761 6.58169 3.52128 6.58169M2.66957 6.58169C1.74749 6.58169 1 5.8342 1 4.91213C1 3.99005 1.74749 3.24256 2.66957 3.24256H4.68777C4.73306 3.24256 4.77782 3.23273 4.81895 3.21375L9.73838 0.943244C9.94581 0.847508 10.1826 0.999019 10.1826 1.22748V4.07735M3.52128 6.58169H4.69063C4.73404 6.58169 4.77693 6.59112 4.81635 6.60931L9.73838 8.88101C9.94581 8.97675 10.1826 8.82524 10.1826 8.59678V5.74691M10.1826 4.07735C10.1826 4.07735 11.0174 4.45109 11.0174 4.91213C11.0174 5.37317 10.1826 5.74691 10.1826 5.74691M10.1826 4.07735V5.74691M12.4783 3.86865C12.4783 3.86865 13 4.39039 13 4.91213C13 5.43387 12.4783 5.95561 12.4783 5.95561" stroke="black" stroke-linecap="round" stroke-linejoin="round"/>
</svg>
