<svg width="180" height="30" viewBox="0 0 180 30" fill="none" xmlns="http://www.w3.org/2000/svg">
<path d="M10.2176 19.1426C10.2176 18.5195 10.0366 17.9891 9.6745 17.5512C9.31245 17.1134 8.84093 16.7724 8.25996 16.5282C7.6874 16.284 7.05169 16.0651 6.35284 15.8715C5.65399 15.6694 4.95513 15.4505 4.25628 15.2147C3.55742 14.9705 2.91751 14.6758 2.33653 14.3306C1.76398 13.9854 1.29667 13.4971 0.934613 12.8656C0.572555 12.2341 0.391527 11.4805 0.391527 10.6048C0.391527 9.24077 0.926193 8.08303 1.99552 7.13158C3.06486 6.17171 4.47098 5.69177 6.21391 5.69177C6.87067 5.69177 7.49374 5.77597 8.08314 5.94437C8.68095 6.10435 9.17773 6.29801 9.57346 6.52535C9.9692 6.74426 10.3228 6.96739 10.6344 7.19473C10.9459 7.41365 11.169 7.6031 11.3038 7.76308L11.5185 8.01567L10.2176 9.31655C10.1839 9.26603 10.1334 9.20288 10.066 9.1271C9.99867 9.04291 9.83869 8.89977 9.58609 8.69769C9.3335 8.48719 9.06406 8.30195 8.77778 8.14197C8.49992 7.97357 8.12524 7.82623 7.65372 7.69993C7.19062 7.56521 6.71069 7.49785 6.21391 7.49785C5.0267 7.49785 4.07946 7.80097 3.37218 8.4072C2.67333 9.01344 2.3239 9.74597 2.3239 10.6048C2.3239 11.2279 2.50493 11.7583 2.86699 12.1962C3.22904 12.634 3.70056 12.975 4.28154 13.2192C4.86251 13.4634 5.50243 13.6865 6.20128 13.8886C6.90014 14.0822 7.59478 14.3012 8.28521 14.5453C8.98407 14.7811 9.62398 15.0716 10.205 15.4168C10.7859 15.762 11.2575 16.2504 11.6195 16.8819C11.9816 17.5049 12.1626 18.2585 12.1626 19.1426C12.1626 20.675 11.6237 21.9212 10.546 22.8811C9.46822 23.8325 7.97789 24.3082 6.07498 24.3082C5.30035 24.3082 4.5636 24.2156 3.86475 24.0304C3.16589 23.8367 2.59334 23.6136 2.14708 23.361C1.70083 23.1 1.30509 22.8348 0.959872 22.5653C0.614655 22.2959 0.374687 22.0685 0.239968 21.8833L0 21.5928L1.18721 20.2793C1.22089 20.3298 1.27983 20.4098 1.36403 20.5193C1.45665 20.6203 1.65031 20.8013 1.945 21.0624C2.2397 21.315 2.55545 21.5381 2.89225 21.7317C3.23746 21.917 3.70056 22.0938 4.28154 22.2622C4.86251 22.4222 5.46033 22.5022 6.07498 22.5022C7.40533 22.5022 8.42835 22.1948 9.14405 21.5802C9.85974 20.9571 10.2176 20.1446 10.2176 19.1426Z" fill="#060011"/>
<path d="M19.0838 9.65756C17.6608 11.0974 16.9493 12.8782 16.9493 15C16.9493 17.1218 17.6608 18.9026 19.0838 20.3425C20.5067 21.7823 22.2539 22.5022 24.3252 22.5022C26.3965 22.5022 28.1436 21.7823 29.5666 20.3425C30.9896 18.9026 31.701 17.1218 31.701 15C31.701 12.8782 30.9896 11.0974 29.5666 9.65756C28.1436 8.21775 26.3965 7.49785 24.3252 7.49785C22.2539 7.49785 20.5067 8.21775 19.0838 9.65756ZM30.918 8.4072C32.7283 10.2175 33.6334 12.4151 33.6334 15C33.6334 17.5849 32.7283 19.7825 30.918 21.5928C29.1077 23.4031 26.9101 24.3082 24.3252 24.3082C21.7403 24.3082 19.5427 23.4031 17.7324 21.5928C15.9221 19.7825 15.017 17.5849 15.017 15C15.017 12.4151 15.9221 10.2175 17.7324 8.4072C19.5427 6.59692 21.7403 5.69177 24.3252 5.69177C26.9101 5.69177 29.1077 6.59692 30.918 8.4072Z" fill="#060011"/>
<path d="M39.4558 21.5928C37.6455 19.7825 36.7404 17.5849 36.7404 15C36.7404 12.4151 37.6455 10.2175 39.4558 8.4072C41.2661 6.59692 43.4637 5.69177 46.0486 5.69177C46.9664 5.69177 47.8463 5.82228 48.6883 6.0833C49.5303 6.3359 50.2249 6.64322 50.7722 7.00528C51.3279 7.36734 51.8121 7.73361 52.2246 8.10408C52.6456 8.47456 52.9488 8.79031 53.134 9.05133L53.4245 9.44285L52.1236 10.6048C52.0731 10.5206 51.9973 10.4111 51.8963 10.2764C51.7952 10.1333 51.5595 9.8849 51.189 9.53126C50.8185 9.17762 50.4144 8.86609 49.9765 8.59665C49.5471 8.31879 48.9788 8.06619 48.2715 7.83886C47.5642 7.61152 46.8232 7.49785 46.0486 7.49785C43.9773 7.49785 42.2302 8.21775 40.8072 9.65756C39.3842 11.0974 38.6728 12.8782 38.6728 15C38.6728 17.1218 39.3842 18.9026 40.8072 20.3425C42.2302 21.7823 43.9773 22.5022 46.0486 22.5022C46.8232 22.5022 47.5642 22.3969 48.2715 22.1864C48.9788 21.9675 49.5639 21.7065 50.027 21.4034C50.4986 21.1002 50.9111 20.8013 51.2648 20.5066C51.6184 20.2035 51.871 19.9383 52.0226 19.711L52.2625 19.3952L53.5508 20.5698C53.4834 20.6708 53.3782 20.8056 53.235 20.974C53.1003 21.1339 52.793 21.4286 52.313 21.858C51.8415 22.2875 51.3405 22.6706 50.8101 23.0074C50.2796 23.3442 49.5808 23.6473 48.7135 23.9167C47.8547 24.1777 46.9664 24.3082 46.0486 24.3082C43.4637 24.3082 41.2661 23.4031 39.4558 21.5928Z" fill="#060011"/>
<path d="M57.3019 24.0556V5.94437H59.2469V24.0556H57.3019Z" fill="#060011"/>
<path d="M74.5038 17.1976L71.0179 8.6598L67.5194 17.1976H74.5038ZM75.2868 19.0163H66.749L64.6777 24.0556H62.6064L70.1086 5.94437H71.9147L79.4168 24.0556H77.3581L75.2868 19.0163Z" fill="#060011"/>
<path d="M94.0422 24.0556H82.789V5.94437H84.734V22.2496H94.0422V24.0556Z" fill="#060011"/>
<rect x="98.3535" y="0.0841064" width="81.6468" height="29.8318" rx="14.9159" fill="url(#paint0_linear_51_3847)"/>
<path d="M115.766 21.0329L111.286 8.95871H114.048L117.146 17.9259L120.253 8.95871H123.015L118.527 21.0329H115.766Z" fill="white"/>
<path d="M125.246 21.0329V8.95871H127.839V21.0329H125.246Z" fill="white"/>
<path d="M136.545 17.4965C136.545 17.0924 136.34 16.7668 135.931 16.5198C135.526 16.2728 135.03 16.0679 134.44 15.9052C133.856 15.7368 133.273 15.5403 132.689 15.3158C132.111 15.0912 131.617 14.7208 131.207 14.2043C130.797 13.6879 130.592 13.034 130.592 12.2425C130.592 11.2658 130.982 10.4322 131.763 9.74177C132.549 9.05133 133.567 8.70612 134.819 8.70612C135.313 8.70612 135.79 8.76506 136.251 8.88293C136.711 8.9952 137.087 9.12992 137.379 9.28709C137.676 9.43865 137.935 9.59582 138.153 9.75861C138.378 9.91578 138.538 10.0533 138.633 10.1712L138.785 10.3396L137.236 11.9815C137.168 11.9029 137.073 11.8075 136.949 11.6952C136.832 11.5773 136.579 11.4229 136.192 11.2321C135.804 11.0412 135.406 10.9458 134.996 10.9458C134.502 10.9458 134.103 11.0721 133.8 11.3247C133.503 11.5773 133.354 11.8832 133.354 12.2425C133.354 12.6466 133.556 12.9722 133.96 13.2192C134.37 13.4606 134.864 13.6655 135.442 13.8339C136.026 14.0023 136.61 14.1987 137.194 14.4233C137.783 14.6478 138.283 15.0183 138.692 15.5347C139.102 16.0511 139.307 16.7051 139.307 17.4965C139.307 18.6136 138.9 19.5257 138.086 20.233C137.278 20.9403 136.161 21.2939 134.735 21.2939C134.174 21.2939 133.629 21.2238 133.102 21.0834C132.579 20.9487 132.147 20.7859 131.805 20.5951C131.468 20.4042 131.171 20.2106 130.912 20.0141C130.654 19.8176 130.469 19.652 130.357 19.5173L130.163 19.3068L131.721 17.7575C131.799 17.8474 131.909 17.9652 132.049 18.1112C132.195 18.2515 132.515 18.4424 133.009 18.6837C133.503 18.9251 134.019 19.0458 134.558 19.0458C135.181 19.0458 135.667 18.8998 136.015 18.608C136.368 18.3161 136.545 17.9456 136.545 17.4965Z" fill="white"/>
<path d="M145.083 12.1835C144.331 12.947 143.954 13.8872 143.954 15.0042C143.954 16.1157 144.331 17.0531 145.083 17.8165C145.835 18.5799 146.75 18.9616 147.828 18.9616C148.911 18.9616 149.829 18.5799 150.581 17.8165C151.333 17.0531 151.709 16.1157 151.709 15.0042C151.709 13.8872 151.333 12.947 150.581 12.1835C149.829 11.4145 148.911 11.03 147.828 11.03C146.75 11.03 145.835 11.4145 145.083 12.1835ZM143.171 19.45C141.908 18.215 141.277 16.7303 141.277 14.9958C141.277 13.2613 141.908 11.7794 143.171 10.5501C144.44 9.32077 145.992 8.70612 147.828 8.70612C149.669 8.70612 151.221 9.32077 152.484 10.5501C153.752 11.7794 154.387 13.2613 154.387 14.9958C154.387 16.7303 153.752 18.215 152.484 19.45C151.221 20.6793 149.669 21.2939 147.828 21.2939C145.992 21.2939 144.44 20.6793 143.171 19.45Z" fill="white"/>
<path d="M157.148 21.0329V8.95871H162.495C163.69 8.95871 164.678 9.34322 165.459 10.1122C166.245 10.8757 166.637 11.8131 166.637 12.9245C166.637 13.4072 166.562 13.8591 166.41 14.2801C166.259 14.7011 166.079 15.0407 165.871 15.2989C165.669 15.5571 165.461 15.7789 165.248 15.9641C165.035 16.1493 164.852 16.2756 164.701 16.343L164.482 16.4609L167.067 21.0329H164.305L161.981 16.8061H159.742V21.0329H157.148ZM164.053 12.9245C164.053 12.453 163.895 12.0629 163.581 11.7541C163.272 11.4454 162.882 11.291 162.411 11.291H159.742V14.4822H162.411C162.882 14.4822 163.272 14.3334 163.581 14.0359C163.895 13.7328 164.053 13.3623 164.053 12.9245Z" fill="white"/>
<defs>
<linearGradient id="paint0_linear_51_3847" x1="98.3535" y1="29.9159" x2="182.556" y2="12.307" gradientUnits="userSpaceOnUse">
<stop stop-color="#1C007F"/>
<stop offset="0.251139" stop-color="#A70096"/>
<stop offset="0.500169" stop-color="#FF005E"/>
<stop offset="0.751766" stop-color="#FF7800"/>
<stop offset="1" stop-color="#FFBB00"/>
</linearGradient>
</defs>
</svg>
