<svg width="0" height="0" class="hidden">
  <symbol  xmlns="http://www.w3.org/2000/svg" viewBox="0 0 13 14" id="settings-new">
    <path d="M5.771.529a1.005 1.005 0 0 0-.723.681c-.036.116-.043.202-.043.545v.407l-.233.098-.434.179-.201.082-.298-.295c-.244-.242-.324-.308-.443-.364a.999.999 0 0 0-.887.007c-.154.077-.594.488-.681.636a.495.495 0 0 0 .425.744c.173 0 .266-.054.498-.289l.205-.207.358.353c.385.379.478.442.686.463a.75.75 0 0 0 .218-.014 21.671 21.671 0 0 0 1.452-.599.746.746 0 0 0 .272-.312c.045-.092.049-.131.056-.624l.007-.525h.99l.007.504c.008.566.019.614.182.794.112.125.225.185.454.243.142.037.317.112.653.282.54.273.607.29.856.214.157-.048.161-.051.522-.408l.364-.36.356.356.357.356-.355.358a4.475 4.475 0 0 0-.387.424.884.884 0 0 0-.07.407c.017.102.527 1.363.608 1.503a.74.74 0 0 0 .312.272c.092.046.131.049.624.056l.525.007v.99l-.514.008c-.435.006-.528.013-.601.046a.736.736 0 0 0-.316.244c-.073.106-.576 1.398-.607 1.558-.024.126.005.3.072.434.024.047.191.235.371.417l.326.331-.351.351-.351.351-.33-.327c-.192-.19-.372-.348-.429-.377a.627.627 0 0 0-.281-.059l-.184-.01-.521.2c-1.023.392-1.039.401-1.156.57-.115.167-.133.276-.133.799v.473h-.996v-.473c0-.534-.019-.638-.143-.808-.124-.169-.116-.165-1.125-.553-.495-.191-.499-.192-.693-.192-.269.001-.319.031-.726.435l-.336.334-.357-.357-.356-.357.349-.353c.346-.35.35-.355.397-.511a.561.561 0 0 0 .033-.271c-.018-.139-.513-1.44-.6-1.578a.682.682 0 0 0-.317-.263c-.094-.044-.142-.048-.617-.055l-.514-.007v-.99l.525-.007c.493-.007.532-.01.624-.056a.753.753 0 0 0 .312-.272c.07-.121.567-1.328.599-1.455.062-.246-.029-.476-.299-.751-.223-.228-.314-.279-.502-.279a.484.484 0 0 0-.468.323c-.067.191-.023.367.133.526.055.056.095.114.089.13l-.178.433-.167.405-.448.008c-.403.007-.46.013-.572.057a1.067 1.067 0 0 0-.594.615c-.036.102-.04.192-.04.829 0 .698.001.718.05.84.106.263.322.476.589.584.105.042.172.049.563.06l.444.011.171.44.171.439-.284.29c-.317.322-.391.442-.439.71a.977.977 0 0 0 .093.599c.057.119.136.212.492.572.233.237.481.469.551.516.314.209.689.227 1.041.048.063-.031.221-.166.39-.331l.285-.278.433.166.433.166.012.444c.013.503.035.593.195.806.151.2.33.319.567.375.196.046 1.27.045 1.467-.001a.986.986 0 0 0 .717-.679c.036-.115.043-.201.043-.535 0-.357.004-.4.038-.418.021-.011.222-.09.446-.176l.408-.156.296.29c.308.302.39.357.627.419.222.058.489.023.707-.093.141-.075 1-.924 1.086-1.075.123-.214.166-.475.116-.711-.048-.23-.118-.336-.426-.65l-.291-.296.171-.441.17-.44.444-.011c.391-.011.458-.018.563-.06.267-.108.483-.321.589-.584.049-.122.05-.142.05-.851s-.001-.728-.05-.85a1.09 1.09 0 0 0-.584-.583c-.112-.044-.169-.05-.571-.057l-.447-.008-.177-.425-.176-.424.29-.294c.181-.184.31-.335.345-.403.179-.355.162-.729-.048-1.043-.098-.148-.859-.908-.987-.986a1.035 1.035 0 0 0-.98-.059c-.113.054-.205.128-.429.347l-.286.28-.324-.159a4.816 4.816 0 0 0-.447-.198l-.123-.038v-.375c0-.312-.007-.398-.043-.513a1.009 1.009 0 0 0-.754-.688C7.035.488 5.916.494 5.771.529m.35 3.493a3.084 3.084 0 0 0-1.793.916 2.93 2.93 0 0 0-.822 2.06c0 .82.295 1.53.88 2.114a2.9 2.9 0 0 0 2.114.88c.818 0 1.531-.297 2.114-.88.584-.584.88-1.295.88-2.114 0-.336-.04-.603-.138-.908a2.994 2.994 0 0 0-1.469-1.744c-.48-.245-.765-.316-1.311-.326a5.348 5.348 0 0 0-.455.002m.927 1.057A2 2 0 0 1 8.42 6.446c.055.179.06.224.06.552 0 .327-.006.374-.059.548-.17.555-.529.99-1.022 1.234a1.89 1.89 0 0 1-.899.212c-.339 0-.6-.063-.911-.218-.987-.493-1.374-1.741-.844-2.723a1.97 1.97 0 0 1 1.163-.959c.243-.073.344-.085.657-.077.236.006.329.018.483.064"></path>
  </symbol>
  <symbol  xmlns="http://www.w3.org/2000/svg" viewBox="0 0 12 12" id="users">
    <path d="M5.58.198A2.003 2.003 0 0 0 4.22 3.06c.364.723 1.187 1.174 1.975 1.082.819-.096 1.469-.625 1.711-1.392a1.988 1.988 0 0 0-.52-2.031 2.048 2.048 0 0 0-.88-.502A2.572 2.572 0 0 0 5.58.198M1.644 1.199A1.519 1.519 0 0 0 .558 2.24c-.04.127-.047.192-.046.42.001.237.008.289.055.43.085.256.198.44.382.62.186.183.327.273.552.353.325.115.673.115.998 0 .225-.08.366-.17.552-.353.184-.18.297-.364.382-.62.047-.141.054-.193.055-.43.001-.228-.006-.293-.046-.42a1.54 1.54 0 0 0-.492-.746 1.815 1.815 0 0 0-.624-.302 1.778 1.778 0 0 0-.682.007m4.609-.011c.252.067.505.265.625.49A.998.998 0 0 1 6 3.148a.995.995 0 0 1-.969-1.226c.081-.344.365-.639.707-.733.124-.034.389-.035.515-.001m3.391.011A1.519 1.519 0 0 0 8.558 2.24c-.04.127-.047.192-.046.42.001.237.008.289.055.43.085.256.198.44.382.62.186.183.327.273.552.353.325.115.673.115.998 0 .225-.08.366-.17.552-.353.184-.18.297-.364.382-.62.047-.141.054-.193.055-.43.001-.228-.006-.293-.046-.42a1.54 1.54 0 0 0-.492-.746 1.815 1.815 0 0 0-.624-.302 1.778 1.778 0 0 0-.682.007m-7.481.984c.1.03.227.14.282.244.061.115.061.33.001.444a.55.55 0 0 1-.308.258c-.13.038-.146.038-.276 0a.55.55 0 0 1-.308-.258.568.568 0 0 1 .001-.445.573.573 0 0 1 .268-.239.652.652 0 0 1 .34-.004m8 0c.1.03.227.14.282.244.061.115.061.33.001.444a.55.55 0 0 1-.308.258c-.13.038-.146.038-.276 0a.55.55 0 0 1-.308-.258.568.568 0 0 1 .001-.445.573.573 0 0 1 .268-.239.652.652 0 0 1 .34-.004m-7.84 2.504a.515.515 0 0 0-.317.414.441.441 0 0 0 .143.391c.178.183-.211.168 4.237.168 2.917 0 3.939.006 3.997.023.1.03.228.14.279.241.085.166.082.183-.201 1.316a30.905 30.905 0 0 1-.293 1.123.576.576 0 0 1-.258.251c-.071.031-.171.037-.88.046l-.8.011-.16.056c-.088.03-.221.091-.296.135-.268.159-.358.266-.894 1.068-.273.407-.521.764-.553.794a.473.473 0 0 1-.327.12.473.473 0 0 1-.327-.12c-.032-.03-.28-.387-.553-.794-.536-.802-.626-.909-.894-1.068a1.949 1.949 0 0 0-.296-.135l-.16-.056-.82-.01-.82-.011-.108-.061c-.198-.113-.184-.076-.634-1.652a63.754 63.754 0 0 0-.441-1.504.555.555 0 0 0-.283-.249.5.5 0 0 0-.658.424c-.009.09.042.282.413 1.582.497 1.74.49 1.72.78 2.012.165.166.218.205.381.285.318.154.344.157 1.25.171.777.012.802.013.87.056.12.075.182.157.676.898.387.581.507.745.611.84.165.151.311.238.518.309.334.115.656.115.99 0 .428-.147.557-.279 1.18-1.213.265-.397.511-.747.548-.778.129-.108.142-.11.865-.11.729 0 .897-.015 1.133-.098a1.33 1.33 0 0 0 .549-.352c.166-.167.261-.307.341-.505.026-.064.171-.606.322-1.206l.275-1.089v-.25a1.227 1.227 0 0 0-.044-.409 1.484 1.484 0 0 0-.814-.952c-.319-.149.012-.139-4.454-.137-3.093.001-4.021.007-4.073.025"></path>
  </symbol>
    <symbol fill="none" xmlns="http://www.w3.org/2000/svg" viewBox="0 0 14 12" id="admins">
    <path fill-rule="evenodd" clip-rule="evenodd" d="M5.48913 1.59628C5.12243 0.862895 5.65573 0 6.47568 0H7.52432C8.34427 0 8.87757 0.862895 8.51087 1.59628C8.50372 1.61059 8.5 1.62636 8.5 1.64235V3.35765C8.5 3.37364 8.50372 3.38941 8.51087 3.40372C8.87757 4.13711 8.34427 5 7.52432 5H6.47568C5.65573 5 5.12243 4.1371 5.48913 3.40372C5.49628 3.38941 5.5 3.37364 5.5 3.35765V1.64235C5.5 1.62636 5.49628 1.61059 5.48913 1.59628ZM6.47568 1C6.39911 1 6.34931 1.08058 6.38355 1.14907C6.46013 1.30223 6.5 1.47111 6.5 1.64235V3.35765C6.5 3.52889 6.46013 3.69777 6.38355 3.85093C6.34931 3.91942 6.39911 4 6.47568 4H7.52432C7.60089 4 7.65069 3.91942 7.61645 3.85093C7.53987 3.69777 7.5 3.52889 7.5 3.35765V1.64235C7.5 1.47111 7.53987 1.30223 7.61645 1.14907C7.65069 1.08058 7.60089 1 7.52432 1H6.47568Z" fill="black"></path>
    <path d="M2.5 3C1.67157 3 1 3.67157 1 4.5V9.5C1 10.3284 1.67157 11 2.5 11H11.5C12.3284 11 13 10.3284 13 9.5V4.5C13 3.67157 12.3284 3 11.5 3H9.5C9.22386 3 9 2.77614 9 2.5C9 2.22386 9.22386 2 9.5 2H11.5C12.8807 2 14 3.11929 14 4.5V9.5C14 10.8807 12.8807 12 11.5 12H2.5C1.11929 12 0 10.8807 0 9.5V4.5C0 3.11929 1.11929 2 2.5 2H4.5C4.77614 2 5 2.22386 5 2.5C5 2.77614 4.77614 3 4.5 3H2.5Z" fill="black"></path>
    <path d="M7.5 5.5C7.22386 5.5 7 5.72386 7 6C7 6.27614 7.22386 6.5 7.5 6.5H11.5C11.7761 6.5 12 6.27614 12 6C12 5.72386 11.7761 5.5 11.5 5.5H7.5Z" fill="black"></path>
    <path d="M7 8C7 7.72386 7.22386 7.5 7.5 7.5H11.5C11.7761 7.5 12 7.72386 12 8C12 8.27614 11.7761 8.5 11.5 8.5H7.5C7.22386 8.5 7 8.27614 7 8Z" fill="black"></path>
    <path fill-rule="evenodd" clip-rule="evenodd" d="M5.04043 8.69696L4.70132 7.90571C4.25104 8.08106 3.74896 8.08106 3.29868 7.90571L2.95957 8.69696C2.85079 8.95077 2.55686 9.06835 2.30304 8.95957C2.04923 8.85079 1.93165 8.55686 2.04043 8.30304L3.3566 5.23198C3.59903 4.6663 4.40097 4.6663 4.6434 5.23197L5.95957 8.30304C6.06835 8.55686 5.95077 8.85079 5.69696 8.95957C5.44314 9.06835 5.1492 8.95077 5.04043 8.69696ZM4 6.2693L4.30688 6.98535C4.10845 7.05451 3.89155 7.05451 3.69312 6.98535L4 6.2693Z" fill="black"></path>
  </symbol>
   <symbol version="1.1" xmlns="http://www.w3.org/2000/svg" viewBox="0 0 819 512" id="card-icon">
    <path d="M85.043 2.048c-26.317 5.734-49.971 28.672-57.088 55.296-1.689 6.349-1.997 27.085-1.997 131.328 0 84.173 0.461 125.030 1.433 127.641 3.226 8.499 14.951 16.743 23.808 16.743s20.582-8.243 23.808-16.743c0.921-2.457 1.433-22.938 1.433-57.651v-53.863h665.856l-0.512 116.377c-0.307 64.051-0.819 118.272-1.126 120.525-0.819 5.069-7.577 13.568-13.414 16.743-4.045 2.202-23.245 2.355-317.645 2.355h-313.344l-5.785-3.123c-3.859-2.233-7.047-5.211-9.46-8.758l-0.064-0.099c-3.584-5.581-3.737-6.553-4.454-30.413-0.819-27.289-1.177-28.57-10.496-35.687-4.455-3.379-6.195-3.84-14.899-3.84-8.96 0-10.343 0.358-15.155 4.199-9.267 7.424-9.984 10.24-9.984 38.81 0 28.109 1.127 34.611 8.499 49.101 5.273 10.394 18.995 24.729 29.799 31.079 4.096 2.457 12.339 5.683 18.227 7.168 10.701 2.714 14.285 2.765 326.605 2.765 223.795 0 317.901-0.461 323.021-1.485 15.069-3.538 28.012-11.139 38.015-21.579l0.026-0.027c11.827-11.827 17.869-22.682 21.043-37.683 3.021-14.336 3.021-376.115 0-390.451-2.951-13.739-9.418-25.657-18.413-35.157l0.032 0.034c-8.291-9.451-18.769-16.784-30.655-21.23l-0.525-0.173-9.114-3.584-319.488-0.205c-264.96-0.205-320.973 0.051-327.987 1.587zM725.913 53.35c5.171 1.946 9.728 6.349 12.851 12.493 2.099 4.096 2.611 7.987 2.611 20.787v15.769h-665.241l0.615-16.743c0.717-19.353 2.867-24.576 12.493-30.361l5.632-3.379h313.6c218.829-0.051 314.777 0.41 317.44 1.434zM142.695 361.011c3.328-1.485 33.485-1.843 164.199-1.894 156.774-0.051 160.256 0 165.427 2.663l0.139 0.065c7.967 4.065 13.423 12.348 13.423 21.906 0 1.664-0.166 3.291-0.454 4.705l-0.036 0.185c-2.052 8.979-8.484 16.29-17.116 19.629-3.379 0.87-59.443 1.229-164.096 1.024l-158.976-0.358-5.683-3.789c-16.231-10.752-14.439-36.301 3.174-44.135zM524.953 361.625c3.533-2.151 6.963-2.509 24.32-2.56 23.347 0 28.416 1.587 34.611 11.008 7.527 11.366 4.761 25.447-6.809 34.663-5.171 4.147-5.479 4.199-23.808 4.659-25.344 0.666-32.615-1.894-38.553-13.517l0.067 0.142c-1.866-3.57-2.921-7.63-2.921-11.938 0-9.579 5.219-17.938 13.094-22.457zM628.736 360.653c1.639-0.87 10.905-1.485 23.091-1.536 19.251-0.051 20.685 0.154 26.163 3.379l0.121 0.063c7.356 4.156 12.322 12.048 12.322 21.099 0 3.951-0.946 7.68-2.561 10.838l-0.1 0.188c-2.175 3.785-4.971 7.168-8.297 10.051-5.222 4.147-5.427 4.199-24.371 4.659-21.862 0.563-28.519-1.075-34.663-8.346l0.012 0.013c-3.919-4.183-6.319-9.808-6.319-15.993 0-0.592 0.022-1.18 0.061-1.683l0.001-0.041c0.313-9.886 6.080-18.396 14.54-22.692z"></path>
  </symbol>
     <symbol version="1.1" xmlns="http://www.w3.org/2000/svg" viewBox="0 0 366 512" id="promotion-icon">
    <path d="M273.298 11.813c-1.353 0.439-3.62 1.463-5.047 2.231-1.719 0.988-42.715 43.849-121.966 127.488-99.694 105.252-119.662 126.647-121.088 129.572-1.463 2.999-1.683 4.243-1.719 8.96 0 4.791 0.22 5.998 1.719 9.216 2.364 4.863 6.209 8.697 10.941 10.983l0.139 0.061 3.657 1.683 97.097 0.329-28.892 86.711c-31.525 94.574-30.172 89.82-27.721 96.951 2.85 8.831 10.998 15.108 20.611 15.108 4.823 0 9.277-1.58 12.873-4.25l-0.058 0.041c12.602-12.498 24.872-25.139 36.901-38.011l0.732-0.791c38.583-40.74 37.815-39.753 37.742-47.653 0-0.053 0.001-0.116 0.001-0.18 0-7.060-4.125-13.158-10.097-16.012l-0.107-0.046c-2.084-1.097-3.548-1.353-7.753-1.353-7.827 0-8.96 0.731-22.784 15.25-3.932 4.241-7.796 8.187-11.764 12.024l-0.085 0.082c-0.109-0.11 9.435-29.147 21.248-64.548l21.431-64.403-0.22-4.681c-0.395-8.321-5.353-15.397-12.412-18.813l-0.131-0.058-3.511-1.646-83.712-0.622 82.359-86.967c34.621-36.674 61.538-64.946 88.548-93.129l-6.006 6.309c0.109 0.109-9.289 28.526-20.845 63.195-1.423 1.421-8.824 23.6-15.965 45.895l-5.757 20.81c-1.609 8.667 4.132 19.017 12.8 23.077 2.816 1.316 3.292 1.316 44.91 1.609l42.094 0.329-52.297 55.149c-16.207 16.93-33.768 35.613-51.163 54.454l-2.669 2.927c-1.893 2.82-3.021 6.29-3.021 10.024 0 5.141 2.139 9.783 5.575 13.084l0.006 0.006c3.057 3.123 7.315 5.060 12.026 5.060 0.233 0 0.465-0.005 0.696-0.014l-0.033 0.001c0.195 0.008 0.423 0.013 0.653 0.013 4.87 0 9.25-2.102 12.281-5.448l0.012-0.014c7.497-7.058 129.645-136.704 131.036-139.044 1.902-3.161 3.028-6.976 3.028-11.054 0-7.643-3.954-14.363-9.928-18.226l-0.085-0.052c-5.888-3.804-5.413-3.767-56.978-3.767-25.709 0-46.775-0.073-46.775-0.147s12.91-38.839 28.708-86.089c27.538-82.395 28.745-86.126 28.745-90.514 0.003-0.133 0.005-0.291 0.005-0.448 0-8.32-4.774-15.525-11.731-19.026l-0.123-0.056c-2.324-1.409-5.131-2.242-8.134-2.242-0.214 0-0.426 0.004-0.637 0.012l0.031-0.001c-0.469-0.033-1.015-0.050-1.567-0.050-2.067 0-4.073 0.258-5.988 0.745l0.168-0.036z"></path>
  </symbol>
  <symbol version="1.1" xmlns="http://www.w3.org/2000/svg" viewBox="0 0 476 512" id="repeats-icon">
    <path d="M304.969 1.060l-0.139 0.037c1.832-0.567 3.778-0.873 5.796-0.873 3.423 0 6.639 0.879 9.337 2.372 5.815 3.804 94.099 74.825 96.476 77.531l-0.022-0.027c2.57 3.058 4.118 7.004 4.118 11.311 0 3.252-0.883 6.299-2.377 8.831-1.353 2.413-13.166 12.288-48.896 41.033-25.929 20.809-48.457 38.547-50.067 39.388l0.085-0.044c-2.493 1.413-5.375 2.22-8.445 2.22-5.245 0-9.94-2.355-13.107-6.089l-0.002-0.002c-3.176-3.137-5.145-7.493-5.145-12.31 0-0.765 0.050-1.519 0.137-2.171 1.060-6.985 2.633-8.595 30.5-30.976l26.478-21.212-159.123 0.549-9.655 2.121c-5.303 1.171-13.495 3.401-18.213 4.937-10.423 3.365-28.343 12.105-37.486 18.249l-0.561 0.357c-28.217 19.058-49.96 46.972-61.574 80.868-6.803 20.407-8.412 34.34-8.412 73.253-0.036 27.392-0.183 28.233-5.632 33.426l0.005-0.005c-3.242 3.127-7.654 5.050-12.514 5.050-5.479 0-10.386-2.443-13.713-6.325-4.681-5.449-4.791-6.583-4.389-42.569 0.293-25.161 0.659-34.231 1.719-40.704 7.021-43.666 25.344-79.835 55.844-110.117l-0.022 0.021c25.792-25.448 58.646-43.757 96.643-51.953 17.957-3.731 19.675-3.803 100.132-4.279l76.617-0.439-26.149-20.919c-29.623-23.698-30.317-24.43-30.391-33.316-0.036-4.316 0.329-5.851 2.158-8.924l0.047-0.089c2.166-3.778 5.642-6.709 9.937-8.213zM198.51 148.151c6.436-1.133 12.91-1.389 34.852-1.463 29.732-0.073 30.464 0.036 35.584 5.12l-0.004-0.004c3.193 3.281 5.161 7.762 5.161 12.702 0 7.071-4.030 13.201-10.021 16.267-3.693 1.828-4.498 1.901-31.123 2.34-30.611 0.548-33.572 0.951-47.067 6.327l-0.612 0.216c-28.73 11.493-50.214 37.245-55.781 69.050-0.804 4.498-1.133 13.056-1.171 29.331l-0.004-0.254c0.030 1.692 0.046 3.388 0.046 5.087 0 7.644-0.308 15.216-0.847 21.717l-0.025 0.124c-1.897 8.075-9.147 14.087-17.802 14.087-4.924 0-9.393-1.946-12.674-5.106-5.852-5.851-6.18-8.156-5.668-37.596 0.549-30.135 1.755-38.62 7.863-55.516 15.616-43.227 53.102-74.35 99.292-82.432zM357.596 185.052l-0.1 0.048c2.487-1.294 5.314-2.026 8.312-2.026 8.848 0 16.207 6.373 17.754 14.888 1.317 6.254 0.476 50.322-1.134 59.575-6.291 36.462-25.966 66.963-55.954 86.748l0.413-0.267c-11.749 8.024-24.997 14.017-40.057 17.638-13.824 3.438-19.675 3.95-45.934 3.986-23.772 0.036-25.161-0.036-28.525-1.609-10.094-4.717-13.897-15.397-8.887-24.978l0.046-0.1c2.433-4.853 7.081-8.402 12.718-9.336 2.34-0.439 14.409-0.768 26.807-0.768 24.978 0 31.853-0.877 44.727-5.559 25.271-9.216 46.921-31.635 54.784-56.722 3.95-12.581 4.498-17.774 4.498-42.642 0-25.271 0.476-28.964 4.279-33.975l0.020-0.024c1.724-1.952 3.795-3.591 6.233-4.877zM431.469 184.54l-0.118 0.047c2.265-0.994 4.769-1.547 7.402-1.547 5.571 0 10.565 2.471 13.964 6.401 4.279 5.011 4.498 6.619 4.498 36.499 0 37.010-1.463 50.871-7.57 72.082l-0.344 1.371c-19.736 67.519-75.204 119.786-145.833 135.187-18.505 3.95-17.115 3.877-99.584 4.352l-77.824 0.439 26.148 20.882c29.66 23.735 30.317 24.466 30.391 33.389 0.036 4.535-0.292 5.815-2.34 9.18l-0.046 0.077c-3.374 5.305-9.305 8.825-16.058 8.825-1.685 0-3.319-0.219-4.742-0.601-2.669-0.731-13.751-9.18-50.725-38.766-26.002-20.809-48.384-39.095-49.7-40.631l0.022 0.027c-2.567-3.053-4.113-6.991-4.113-11.292 0-3.246 0.881-6.286 2.373-8.813 1.353-2.413 13.020-12.215 48.531-40.668 25.709-20.627 48.275-38.4 50.139-39.534l-0.101 0.049c2.618-1.391 5.605-2.18 8.775-2.18 2.851 0 5.552 0.637 7.857 1.728 6.912 3.584 11.3 11.52 10.24 18.579-1.060 6.985-2.633 8.594-30.355 30.72-14.446 11.557-26.295 21.248-26.332 21.577-0.073 0.914 138.313 0.695 149.321-0.219l0.55-0.035c76.974-6.118 138.319-67.728 144.054-145.337 0.439-6.107 0.805-21.869 0.805-35.072 0-26.477 0.147-27.465 5.010-32.585v0c1.63-1.631 3.51-3.010 5.705-4.132z"></path>
  </symbol>
   <symbol version="1.1" xmlns="http://www.w3.org/2000/svg" viewBox="0 0 598 512" id="letter">
    <path d="M110.848 0.939c-9.598 2.892-17.051 10.176-20.121 19.456l-0.061 0.213c-0.683 2.73-1.067 27.050-1.067 70.314 0 70.826-0.043 70.272 5.034 77.398 1.152 1.621 41.344 37.93 89.344 80.768 48.042 42.794 89.77 80.042 92.8 82.773 7.594 6.87 13.781 9.6 21.888 9.6 12.331 0-0.853 10.923 160.981-133.718 34.944-31.232 42.966-38.869 45.056-42.965l2.517-4.95 0.341-66.731c0.171-45.099-0.043-68.352-0.768-71.68-2.19-7.702-7.216-13.979-13.849-17.759l-0.146-0.076-5.462-3.072-186.666-0.17c-102.698-0.086-188.118 0.17-189.824 0.598zM464.938 94.379v51.584l-82.816 73.856c-20.488 18.561-47.651 42.683-74.993 66.604l-8.463 7.252c-0.384 0-37.93-33.238-83.456-73.856l-82.816-73.856v-103.168h332.544v51.584zM204.587 87.466c3.755-1.707 9.046-1.792 94.080-1.792 85.589 0 90.282 0.085 94.080 1.835l0.13 0.054c7.221 3.332 12.233 10.635 12.233 19.111 0 5.963-2.481 11.347-6.476 15.182-6.442 6.4-1.238 6.058-96.981 6.357-59.178 0.171-88.704-0.085-92.075-0.811l-0.127-0.019c-8.976-1.627-15.957-8.984-17.024-18.242l0.011 0.103c-0.108-0.864-0.163-1.743-0.163-2.636 0-8.455 4.988-15.745 12.313-19.142zM225.066 151.978l5.291-2.645h136.619l5.291 2.645 0.121 0.054c6.83 3.357 11.531 10.382 11.531 18.506 0 5.851-2.438 11.132-6.361 14.891-7.040 6.912-4.95 6.698-78.89 6.698s-71.851 0.214-78.891-6.698l-0.007-0.007c-3.916-3.751-6.354-9.032-6.354-14.883 0-8.124 4.701-15.15 11.652-18.56zM41.77 177.494l-0.206 0.046c2.407-0.636 4.935-0.975 7.542-0.975 5.026 0 9.758 1.26 13.741 3.404 3.84 2.176 122.027 109.397 150.101 136.107 8.107 7.723 11.008 12.757 11.008 19.2l-0 0.019c-0.203 11.7-9.752 21.123-21.5 21.123-3.201 0-6.239-0.7-8.835-1.899-2.304-1.11-29.867-25.642-66.688-59.478l-62.72-57.558-0.256 109.654c-0.214 85.803 0 110.464 0.981 113.408l0.028 0.088c0.891 2.432 2.505 4.514 4.623 6.014l3.371 2.262h451.413l3.41-2.288c1.966-1.413 3.532-3.349 4.525-5.69 1.408-4.053 1.878-223.403 0.512-222.805l-12.837 11.472c-32.557 29.536-64.986 59.21-86.789 79.451-54.315 49.834-101.248 92.245-104.192 94.25-8.576 5.76-15.488 7.978-26.88 8.534-17.792 0.853-28.587-3.158-43.52-16.298-10.026-8.832-13.142-14.038-13.056-21.803 0.171-11.947 9.002-20.394 21.29-20.394 7.339 0 9.984 1.28 18.474 8.96 7.211 6.57 11.52 8.32 16.768 6.87 2.517-0.683 32.726-27.818 115.541-103.722 65.707-60.202 114.262-103.978 117.291-105.728 4.523-2.602 6.101-2.987 12.63-2.901l-0.053 0.001c0.367-0.012 0.737-0.019 1.108-0.019 3.607 0 7.073 0.6 10.082 1.639l0.197 0.095c6.13 3.254 11.22 8.207 14.736 14.411l2.304 4.694v133.888c0 127.147-0.086 134.186-1.835 139.862-5.888 19.243-21.674 34.346-40.576 38.784-5.547 1.322-34.688 1.536-234.837 1.536s-229.291-0.214-234.838-1.536c-18.901-4.438-34.688-19.541-40.576-38.784-1.75-5.675-1.834-12.714-1.834-139.861 0-125.397 0.085-134.144 1.706-137.6l0.082-0.188c3.682-7.564 10.284-13.443 18.563-16.238z"></path>
  </symbol>
  <symbol fill="none" xmlns="http://www.w3.org/2000/svg" viewBox="0 0 14 10" id="content">
    <path d="M2.66957 6.58169H3.52128M2.66957 6.58169L3.92174 9.08604L3.2243 6.99373C3.15673 6.79103 3.30761 6.58169 3.52128 6.58169M2.66957 6.58169C1.74749 6.58169 1 5.8342 1 4.91213C1 3.99005 1.74749 3.24256 2.66957 3.24256H4.68777C4.73306 3.24256 4.77782 3.23273 4.81895 3.21375L9.73838 0.943244C9.94581 0.847508 10.1826 0.999019 10.1826 1.22748V4.07735M3.52128 6.58169H4.69063C4.73404 6.58169 4.77693 6.59112 4.81635 6.60931L9.73838 8.88101C9.94581 8.97675 10.1826 8.82524 10.1826 8.59678V5.74691M10.1826 4.07735C10.1826 4.07735 11.0174 4.45109 11.0174 4.91213C11.0174 5.37317 10.1826 5.74691 10.1826 5.74691M10.1826 4.07735V5.74691M12.4783 3.86865C12.4783 3.86865 13 4.39039 13 4.91213C13 5.43387 12.4783 5.95561 12.4783 5.95561" stroke="black" stroke-linecap="round" stroke-linejoin="round"></path>
  </symbol>
  <symbol fill="none" xmlns="http://www.w3.org/2000/svg" viewBox="0 0 15 12" id="documents">
    <path d="M1 3V2C1 1.44772 1.44772 1 2 1H5M1 3V9C1 10.1046 1.89543 11 3 11H12C13.1046 11 14 10.1046 14 9V5C14 3.89543 13.1046 3 12 3H6M1 3H6M5 1C5.55228 1 6 1.44772 6 2V3M5 1H9C9.55228 1 10 1.44772 10 2V3M3 1H7C7.55228 1 8 1.44772 8 2V3" stroke="black" stroke-linecap="round"></path>
  </symbol>
   <symbol xmlns="http://www.w3.org/2000/svg" viewBox="0 0 384 512" id="xmark">
    <path d="M342.6 150.6c12.5-12.5 12.5-32.8 0-45.3s-32.8-12.5-45.3 0L192 210.7 86.6 105.4c-12.5-12.5-32.8-12.5-45.3 0s-12.5 32.8 0 45.3L146.7 256 41.4 361.4c-12.5 12.5-12.5 32.8 0 45.3s32.8 12.5 45.3 0L192 301.3 297.4 406.6c12.5 12.5 32.8 12.5 45.3 0s12.5-32.8 0-45.3L237.3 256 342.6 150.6z"></path>
  </symbol>
</svg>