<svg width="98" height="98" viewBox="0 0 98 98" fill="none" xmlns="http://www.w3.org/2000/svg">
<path d="M73.17 45.3767C72.7276 45.3039 72.2908 45.2087 71.854 45.1135C71.1092 44.9511 70.37 44.8951 69.6028 45.0071C66.5844 45.4383 64.406 48.1095 64.462 50.9151C64.49 51.2847 64.49 51.6599 64.5572 52.0239C64.8484 53.5639 65.6044 54.8295 66.8644 55.7591C68.1636 56.7167 69.6196 57.1367 71.2324 56.8959C71.9156 56.7951 72.5932 56.6327 73.2764 56.5095C76.1604 55.9999 78.4284 53.1775 77.8068 49.8623C77.37 47.5495 75.4996 45.7575 73.17 45.3767ZM64.826 50.8927C64.854 47.7623 67.486 45.3711 70.1908 45.3487C70.09 45.5335 69.9108 45.5335 69.7708 45.5783C68.8748 45.8807 68.0908 46.3567 67.4356 47.0399C64.9324 49.6383 65.5316 53.9895 68.6508 55.7983C69.0484 56.0279 69.4964 56.1735 69.9164 56.3583C70.0228 56.4031 70.1348 56.4479 70.2412 56.4927C67.4356 56.5263 64.798 54.0847 64.826 50.8927ZM69.1324 46.1831C67.5588 47.3591 66.646 48.8767 66.618 50.8759C66.59 52.8583 67.4524 54.3983 68.9756 55.6135C67.4636 54.9751 66.2372 53.1271 66.1588 51.1447C66.0692 48.8767 67.5028 46.8607 69.1324 46.1831ZM72.2796 56.2687C69.3676 56.2911 66.8812 53.7935 66.9596 50.9711C66.8476 48.2103 69.2668 45.6287 72.2348 45.6287C75.0964 45.6287 77.5716 47.9079 77.5716 50.9263C77.5716 54.1687 74.9284 56.2463 72.2796 56.2687Z" fill="white"/>
<path d="M35.5319 12.1299C35.7447 12.0571 35.9575 11.9731 36.1647 11.8891C36.0919 11.7491 36.0303 11.5979 35.9407 11.4635C35.8063 11.2675 35.6551 11.0827 35.5095 10.8923C35.4759 10.9035 35.4479 10.9147 35.4199 10.9259C35.4199 11.2899 35.4199 11.6483 35.4199 12.0123C35.4199 12.0515 35.5039 12.1355 35.5263 12.1299H35.5319Z" fill="white"/>
<path d="M32.21 47.5999C32.21 47.5495 32.1148 47.4655 32.0644 47.4655C32.014 47.4655 31.9188 47.5495 31.9188 47.5943C31.9076 47.9919 31.902 48.3951 31.9188 48.7927C31.9188 48.8487 32.0308 48.9047 32.0868 48.9607C32.1316 48.9047 32.21 48.8543 32.2156 48.7983C32.2324 48.6135 32.2212 48.4287 32.2212 48.2439C32.2212 48.0311 32.2324 47.8127 32.2156 47.5999H32.21Z" fill="white"/>
<path d="M48.5694 45.7016V16.6768C48.5694 16.5536 48.5694 16.4304 48.5694 16.3072C48.5582 15.96 48.5415 15.9376 48.1887 15.9432C47.5839 15.96 46.9847 15.9992 46.3799 16.0328C44.7391 16.1224 43.1263 16.4024 41.5247 16.7664C38.6855 17.416 35.9919 18.4408 33.4215 19.8072C30.8791 21.1624 28.5606 22.8312 26.4494 24.78C25.2454 25.8944 24.1311 27.0984 23.1063 28.3864C20.7711 31.3208 18.9735 34.5464 17.7303 38.0856C16.7167 40.964 16.1119 43.9264 15.9383 46.9672C15.8375 48.7424 15.8487 50.5288 16.0335 52.2984C16.2295 54.1912 16.5767 56.0616 17.0975 57.8984C17.9487 60.8944 19.1751 63.7224 20.8215 66.3656C22.8935 69.6976 25.4751 72.5704 28.5439 75.012C28.8687 75.2696 29.1934 75.3648 29.6023 75.3648C35.7007 75.3536 41.7991 75.3592 47.8975 75.3592C48.6423 75.3592 48.5639 75.4152 48.5639 74.676C48.5639 65.016 48.5639 55.356 48.5639 45.696L48.5694 45.7016ZM48.1551 74.3288C48.1551 74.452 48.1551 74.5752 48.1551 74.6984C48.1551 74.8888 48.0655 74.9896 47.8807 74.9952C47.7407 75.0008 47.6007 75.0008 47.4607 75.0008C44.5039 75.0008 41.5471 75.0008 38.5903 75.0008C35.6335 75.0008 32.7383 74.9952 29.8151 75.0064C29.3895 75.0064 29.0423 74.9112 28.7063 74.6368C26.8975 73.1696 25.2007 71.5904 23.7615 69.7536C22.9495 68.7232 22.1991 67.6368 21.4263 66.5728C21.3535 66.472 21.2919 66.3656 21.2303 66.2592C21.0007 65.8728 21.0119 65.856 21.4543 65.7776C21.9695 65.6824 22.4959 65.604 22.9999 65.4696C23.9351 65.2232 24.8815 65.2792 25.8167 65.3688C26.9535 65.4752 28.0846 65.6768 29.2158 65.8448C29.7478 65.9232 30.2631 65.8224 30.7839 65.7384C31.5903 65.604 32.3967 65.4528 33.2087 65.3408C33.7967 65.2568 34.3846 65.3408 34.9558 65.4752C35.723 65.6544 36.4959 65.828 37.2575 66.0296C37.9743 66.22 38.7023 66.2032 39.4247 66.1248C40.4383 66.0128 41.4463 65.8392 42.4599 65.7216C42.7455 65.688 43.0479 65.7216 43.3279 65.7888C43.7479 65.884 44.1679 66.0128 44.5711 66.1696C45.1311 66.3936 45.7022 66.4664 46.2958 66.4496C46.7774 66.4328 47.2535 66.4496 47.7351 66.4496C48.1159 66.4552 48.1551 66.5 48.1607 66.8864C48.1607 67.7712 48.1607 68.6504 48.1607 69.5352C48.1607 71.1312 48.1607 72.7216 48.1607 74.3176L48.1551 74.3288ZM47.4271 66.1304C46.0439 66.2088 44.7223 66.0128 43.4343 65.4976C43.1487 65.38 42.7959 65.3632 42.4823 65.3968C41.4687 65.5088 40.4607 65.688 39.4471 65.7944C38.6967 65.8784 37.9407 65.9008 37.1903 65.688C36.5351 65.5032 35.8631 65.3744 35.2079 65.2064C34.3119 64.9712 33.4103 64.932 32.4975 65.1112C31.7415 65.2568 30.9743 65.3744 30.2127 65.5144C29.6639 65.6152 29.1319 65.5032 28.5999 65.4304C27.6199 65.3016 26.6455 65.1 25.6599 65.0272C24.7247 64.9544 23.7783 64.904 22.8487 65.1728C22.2999 65.3296 21.7231 65.3856 21.1687 65.5144C20.9167 65.5704 20.7599 65.5144 20.6367 65.2792C20.2559 64.5512 19.8415 63.8456 19.4831 63.1064C18.5647 61.208 17.8422 59.2312 17.3158 57.1872C16.8902 55.524 16.5879 53.8384 16.4255 52.1248C16.2855 50.6408 16.2127 49.1624 16.2855 47.6784C16.4759 43.7192 17.3159 39.9 18.8783 36.2488C20.0431 33.5272 21.5439 31.0072 23.3807 28.6944C25.9511 25.4632 29.0311 22.8088 32.5983 20.7256C35.9639 18.7656 39.5647 17.444 43.3951 16.7888C44.5935 16.5816 45.8199 16.5088 47.0351 16.38C47.2983 16.352 47.5559 16.3184 47.8191 16.3184C48.0991 16.3184 48.1439 16.3688 48.1607 16.6376C48.1719 16.7944 48.1607 16.9456 48.1607 17.1024C48.1607 25.1496 48.1607 33.2024 48.1607 41.2496C48.1607 49.2968 48.1607 57.3496 48.1607 65.3968C48.1607 66.1808 48.1943 66.0912 47.4271 66.136V66.1304Z" fill="white"/>
<path d="M62.0597 10.9759C62.3397 11.0935 62.6365 11.1888 62.8381 11.2616C63.1573 11.2616 63.3029 11.1608 63.3421 10.9648C63.3869 10.752 63.3085 10.6008 63.1069 10.5168C62.8941 10.4272 62.6758 10.36 62.463 10.2648C62.2558 10.1752 62.1437 10.2423 62.0877 10.4495C62.0597 10.5503 61.9981 10.6512 61.9869 10.752C61.9813 10.8248 62.0149 10.9536 62.0653 10.9704L62.0597 10.9759Z" fill="white"/>
<path d="M68.0387 14.2629C68.1003 13.9325 68.1339 13.5965 68.1787 13.2661C67.8427 13.5629 67.5347 13.8373 67.1875 14.1453C67.4003 14.2573 67.5571 14.3469 67.7251 14.4253C67.9323 14.5205 67.9995 14.4925 68.0443 14.2629H68.0387Z" fill="white"/>
<path d="M61.4775 12.5943C61.8023 12.7231 62.1383 12.8351 62.3623 12.9191C62.7151 12.9415 62.8439 12.8015 62.9223 12.5999C63.0063 12.3983 62.9447 12.2135 62.7655 12.1239C62.4519 11.9671 62.1215 11.8495 61.7911 11.7207C61.7463 11.7039 61.6455 11.7319 61.6343 11.7655C61.5391 11.9895 61.4551 12.2191 61.3823 12.4543C61.3711 12.4879 61.4271 12.5775 61.4719 12.5943H61.4775Z" fill="white"/>
<path d="M22.1212 20.2721C21.69 20.0257 21.326 19.8129 20.9564 19.6001C20.9396 19.6169 20.9172 19.6337 20.9004 19.6505C21.074 20.0537 21.2476 20.4569 21.4436 20.9049C21.6788 20.6809 21.886 20.4905 22.1212 20.2721Z" fill="white"/>
<path d="M49.65 81.5248H44.9236L44.0332 82.7456H49.6556L49.65 81.5248Z" fill="white"/>
<path d="M49.0002 4.55786C24.4946 4.55786 4.55859 24.4939 4.55859 48.9995C4.55859 73.5051 24.4946 93.4411 49.0002 93.4411C73.5058 93.4411 93.4418 73.5051 93.4418 48.9995C93.4418 24.4939 73.5058 4.55786 49.0002 4.55786ZM75.197 21.0387C75.897 20.2771 76.597 19.5099 77.3026 18.7539C77.3866 18.6643 77.577 18.5355 77.6274 18.5691C77.801 18.6811 77.9354 18.8603 78.081 19.0115C78.0866 19.0171 78.081 19.0395 78.081 19.0787C78.0474 19.1235 78.0082 19.1907 77.9578 19.2467C77.7338 19.4987 77.5042 19.7563 77.2746 20.0027C77.1682 20.1147 77.1682 20.2099 77.2802 20.3163C77.5378 20.5627 77.7898 20.8147 78.0362 21.0667C78.1874 21.2179 78.305 21.1675 78.4226 21.0331C78.5962 20.8371 78.7642 20.6355 78.949 20.4451C79.2458 20.1371 79.2738 20.1427 79.5818 20.4171C79.8394 20.6467 79.845 20.7027 79.5594 21.0219C79.0946 21.5427 78.6186 22.0467 78.1426 22.5563C77.8794 22.8419 77.6162 23.1219 77.353 23.4075C77.2354 23.5363 77.1234 23.5475 77.0002 23.4243C76.9442 23.3683 76.8882 23.3179 76.8322 23.2619C76.597 23.0323 76.5914 23.0099 76.8042 22.7747C77.0114 22.5451 77.2354 22.3267 77.4426 22.1027C77.6722 21.8563 77.6722 21.8395 77.4538 21.6155C77.241 21.3915 77.0058 21.1843 76.7986 20.9603C76.6362 20.7867 76.5242 20.8259 76.3842 20.9827C76.1714 21.2291 75.9474 21.4587 75.7234 21.6995C75.5106 21.9235 75.4658 21.9235 75.2306 21.7163C74.9058 21.4251 74.9002 21.3579 75.1914 21.0443L75.197 21.0387ZM72.7722 15.1251C73.8306 14.9347 74.8946 15.8979 74.8778 17.0123C74.8722 17.3539 74.7658 17.4099 74.4354 17.2811C74.2058 17.1915 74.0546 17.0851 74.021 16.7939C73.937 16.1387 73.3994 15.8027 72.7722 15.9707C72.1394 16.1387 71.6298 16.9731 71.7754 17.6115C71.8986 18.1659 72.3298 18.4627 72.9066 18.3955C73.0522 18.3787 73.2146 18.2779 73.3378 18.4403C73.4554 18.5971 73.5506 18.7707 73.657 18.9331C73.4834 19.0227 73.321 19.1347 73.1362 19.1963C72.313 19.4763 70.9074 18.6587 70.9634 17.3203C70.9634 16.2115 71.7026 15.3099 72.7778 15.1139L72.7722 15.1251ZM65.4586 14.6995C66.3098 13.8483 67.1666 13.0027 68.0178 12.1515C68.1746 12.0003 68.337 11.9779 68.5218 12.0843C68.6282 12.1459 68.7402 12.2019 68.8466 12.2579C69.037 12.3531 69.1378 12.4875 69.0874 12.6275C68.9138 13.9155 68.7514 15.1195 68.5834 16.3235C68.5498 16.5531 68.4882 16.5755 68.2698 16.4859C67.8162 16.3011 67.7546 16.2227 67.8386 15.7131C67.8834 15.4611 67.805 15.3491 67.5922 15.2483C67.3402 15.1307 67.0994 14.9963 66.8586 14.8507C66.6906 14.7499 66.545 14.7275 66.4162 14.8955C66.3882 14.9291 66.349 14.9627 66.3154 14.9907C66.0298 15.2651 65.6602 15.2539 65.4082 14.9627C65.3746 14.9235 65.369 14.8507 65.3746 14.7947C65.3746 14.7555 65.425 14.7163 65.453 14.6827L65.4586 14.6995ZM60.3626 12.6835C60.5754 12.1011 60.777 11.5187 60.9842 10.9363C61.1466 10.4883 61.2978 10.0347 61.4714 9.58667C61.6226 9.18907 61.6618 9.17226 62.0482 9.31226C62.597 9.51946 63.1626 9.69306 63.6834 9.95066C64.2938 10.2475 64.4226 11.0315 63.9802 11.5187C63.8626 11.6531 63.6946 11.7427 63.5434 11.8547C63.5658 11.8995 63.577 11.9443 63.5994 11.9835C63.913 12.4931 63.913 12.8291 63.5826 13.2603C63.2746 13.6691 62.8658 13.8539 62.3618 13.7027C61.7402 13.5123 61.1354 13.2827 60.5194 13.0755C60.2954 13.0027 60.2954 12.8627 60.3626 12.6779V12.6835ZM55.149 11.5299C55.1658 11.4403 55.1714 11.3451 55.1882 11.2555C55.3674 10.3147 55.541 9.37387 55.7202 8.43307C55.7426 8.32667 55.765 8.22026 55.7874 8.11386C55.821 7.94586 55.8826 7.82827 56.0954 7.87307C56.6218 7.98507 57.1594 8.06346 57.6858 8.19786C58.2962 8.35466 58.6378 8.82505 58.6434 9.48585C58.6098 9.96745 58.4194 10.4491 57.8706 10.6843C57.6298 10.7851 57.6242 10.8971 57.7082 11.1099C57.837 11.4403 57.9434 11.7819 58.0498 12.1179C58.1002 12.2691 58.0498 12.3475 57.8706 12.3419C57.3778 12.3307 57.1986 12.2075 57.0306 11.7203C56.941 11.4571 56.8626 11.1883 56.7618 10.9307C56.717 10.8243 56.6386 10.7123 56.5434 10.6619C56.269 10.5219 56.1794 10.5723 56.1122 10.8859C56.0562 11.1435 56.0058 11.4011 55.961 11.6587C55.9274 11.8715 55.821 11.9555 55.6082 11.8995C55.5354 11.8771 55.457 11.8659 55.3786 11.8547C55.1994 11.8211 55.1042 11.7259 55.1434 11.5299H55.149ZM50.0362 8.70186C50.0586 8.34906 50.053 7.99066 50.0754 7.63786C50.0922 7.33546 50.1482 7.27386 50.4394 7.29066C51.1786 7.32986 51.9178 7.38026 52.657 7.44746C52.9594 7.47546 52.9986 7.55946 52.9762 7.87866C52.9594 8.16986 52.909 8.23145 52.6066 8.22585C52.3266 8.22585 52.0522 8.19226 51.7722 8.18106C51.5538 8.16986 51.341 8.14187 51.1226 8.15307C50.9154 8.16427 50.8538 8.28186 50.8426 8.55066C50.8426 8.73546 50.893 8.84746 51.0946 8.85866C51.4642 8.88106 51.8338 8.90345 52.2034 8.94265C52.3266 8.95945 52.5338 9.01546 52.5506 9.08826C52.5898 9.27306 52.5506 9.48026 52.517 9.67066C52.5114 9.70986 52.3602 9.73786 52.2762 9.73786C52.0914 9.73786 51.9066 9.72106 51.7218 9.71546C51.7218 9.71546 51.7218 9.71547 51.7218 9.70987C51.537 9.70987 51.3522 9.72107 51.1674 9.70987C50.9378 9.69307 50.8202 9.80507 50.7978 10.0235C50.7866 10.1131 50.7754 10.2083 50.7642 10.2979C50.7418 10.5163 50.837 10.6003 51.0554 10.6059C51.5482 10.6227 52.041 10.6563 52.5338 10.6955C52.8306 10.7235 52.8754 10.7907 52.8698 11.0707C52.8586 11.3787 52.7802 11.4851 52.4946 11.4739C51.7386 11.4459 50.9826 11.4123 50.2266 11.3619C49.9522 11.3451 49.885 11.2555 49.9018 10.9643C49.941 10.2083 49.997 9.45226 50.0418 8.70186H50.0362ZM45.013 7.46987C45.5842 7.42507 46.1498 7.39146 46.721 7.35226C46.7994 7.35226 46.8778 7.34106 46.9506 7.34106C47.0962 7.34106 47.2978 7.22346 47.365 7.41386C47.4266 7.59306 47.4154 7.80586 47.393 8.00186C47.3874 8.05226 47.225 8.10826 47.1242 8.12506C46.4634 8.21466 46.4522 8.20907 46.4858 8.85307C46.5194 9.45227 46.581 10.0515 46.6258 10.6507C46.637 10.7571 46.6482 10.8635 46.6482 10.9755C46.665 11.4011 46.3458 11.6307 45.9706 11.4459C45.8866 11.4067 45.8194 11.2555 45.8082 11.1491C45.7578 10.6115 45.7298 10.0739 45.6906 9.53627C45.6626 9.18347 45.629 8.83066 45.601 8.47786C45.5898 8.29866 45.5114 8.23146 45.3322 8.26506C45.181 8.29306 45.0242 8.30427 44.873 8.30987C44.6882 8.32107 44.5986 8.23147 44.565 8.04667C44.481 7.58187 44.5314 7.50347 45.0074 7.46987H45.013ZM39.8834 8.32106C40.1578 8.27066 40.2362 8.30426 40.2978 8.55066C40.393 8.93706 40.4602 9.33467 40.5386 9.72667C40.6338 10.2083 40.729 10.6955 40.813 11.1827C40.8466 11.3731 40.925 11.4459 41.1266 11.4011C41.5466 11.3059 41.9722 11.2163 42.3922 11.1379C42.689 11.0819 42.7282 11.1155 42.8066 11.4179C42.8906 11.7427 42.8514 11.8547 42.5826 11.9163C41.877 12.0731 41.1658 12.2075 40.4546 12.3587C40.2866 12.3923 40.1802 12.3307 40.1466 12.1683C39.9226 11.0203 39.6986 9.86666 39.4746 8.71866C39.4746 8.70186 39.4746 8.69066 39.4746 8.67386C39.4746 8.45546 39.553 8.38826 39.8778 8.33226L39.8834 8.32106ZM34.5578 12.0171C34.5578 11.4739 34.5578 10.9363 34.5578 10.3931C34.5578 9.89467 34.5802 9.86666 35.0562 9.69866C35.1122 9.67626 35.1738 9.66505 35.2298 9.64265C35.409 9.56985 35.549 9.59787 35.6778 9.76027C36.417 10.7291 37.1618 11.6979 37.8954 12.6723C38.0522 12.8795 38.0242 12.9523 37.7778 13.0475C37.2458 13.2491 37.229 13.2435 36.9826 12.8347C36.8594 12.6275 36.7026 12.5715 36.4786 12.6779C36.3554 12.7395 36.221 12.7787 36.0866 12.8123C35.6442 12.9131 35.3138 13.0811 35.3978 13.6467C35.4314 13.8763 34.8826 14.2011 34.6698 14.0947C34.6026 14.0611 34.5634 13.9211 34.5578 13.8259C34.5466 13.2995 34.5578 12.7731 34.5578 12.2523V12.0227V12.0171ZM28.8906 12.4483C29.4786 12.1403 30.0722 11.8379 30.6658 11.5411C31.0018 11.3731 31.0074 11.3787 31.1642 11.6755C31.3546 12.0339 31.3546 12.0563 31.013 12.2467C30.649 12.4483 30.2738 12.6387 29.9098 12.8347C29.6858 12.9541 29.6261 13.1259 29.7306 13.3499C29.7698 13.4339 29.809 13.5179 29.8594 13.5963C29.8874 13.6467 29.9378 13.6803 29.9826 13.7307C30.0722 13.6915 30.145 13.6635 30.2122 13.6299C30.5146 13.4731 30.8058 13.2995 31.1138 13.1539C31.2314 13.0979 31.4386 13.0363 31.489 13.0923C31.6178 13.2323 31.7018 13.4227 31.7578 13.6131C31.7746 13.6579 31.6402 13.7755 31.5506 13.8259C31.2538 13.9883 30.9458 14.1395 30.6434 14.2963C30.2962 14.4755 30.2962 14.4811 30.4586 14.8171C30.5874 15.0803 30.7274 15.3379 30.8506 15.6067C30.985 15.8979 30.9794 15.9147 30.6994 16.0771C30.6322 16.1163 30.5594 16.1499 30.4978 16.1891C30.341 16.2843 30.2346 16.2339 30.1562 16.0827C30.0554 15.8755 29.9602 15.6627 29.8594 15.4555C29.4674 14.6659 29.0754 13.8763 28.689 13.0867C28.4874 12.6835 28.493 12.6611 28.9018 12.4483H28.8906ZM24.0354 15.5395C24.601 15.1363 25.1666 14.7331 25.7434 14.3467C25.8442 14.2739 26.0458 14.1899 26.1018 14.2347C26.2474 14.3579 26.3426 14.5427 26.477 14.7275C26.3874 14.8171 26.3258 14.9011 26.2418 14.9627C25.8554 15.2427 25.469 15.5283 25.0714 15.7915C24.881 15.9147 24.8642 16.0379 25.0042 16.2003C25.0546 16.2619 25.0938 16.3235 25.1442 16.3851C25.3234 16.6203 25.3234 16.6259 25.5754 16.4579C25.8722 16.2619 26.1522 16.0491 26.449 15.8475C26.7626 15.6347 26.7682 15.6403 26.9698 15.9763C26.9866 16.0043 26.9978 16.0323 27.0202 16.0547C27.1602 16.2227 27.121 16.3515 26.9418 16.4747C26.645 16.6707 26.3594 16.8779 26.0682 17.0851C25.7658 17.2979 25.7658 17.3035 25.973 17.6227C26.1354 17.8691 26.3034 18.1099 26.4602 18.3563C26.6282 18.6251 26.6226 18.6475 26.365 18.8379C26.3146 18.8771 26.2642 18.9051 26.2138 18.9443C26.0458 19.0787 25.9114 19.0507 25.7938 18.8659C25.6034 18.5691 25.4018 18.2723 25.2002 17.9811C24.7802 17.3539 24.3602 16.7267 23.9458 16.0883C23.7386 15.7747 23.7498 15.7467 24.0466 15.5283L24.0354 15.5395ZM20.0986 18.8211C20.1378 18.7931 20.1658 18.7595 20.1994 18.7259C20.4271 18.5093 20.6773 18.4776 20.9498 18.6307C21.9186 19.1739 22.8874 19.7171 23.8562 20.2659C23.957 20.3219 24.0466 20.4003 24.1698 20.4843C24.0634 20.6019 23.9906 20.7027 23.9066 20.7867C23.6042 21.0835 23.5874 21.0835 23.229 20.8931C22.9639 20.7549 22.7212 20.7923 22.501 21.0051C22.3218 21.1787 22.1482 21.3523 21.9634 21.5147C21.829 21.6323 21.7898 21.7555 21.8794 21.9235C21.9298 22.0187 21.9522 22.1251 21.997 22.2259C22.0586 22.3715 22.0306 22.4835 21.9298 22.6067C21.5434 23.0659 21.4426 23.0547 21.2186 22.5003C20.7986 21.4867 20.3898 20.4675 19.9586 19.4595C19.841 19.1851 19.869 18.9947 20.1042 18.8211H20.0986ZM18.7714 74.9947C18.749 75.2411 18.5754 75.3194 18.385 75.157C18.2282 75.0226 18.0826 74.8379 18.0098 74.6475C17.7466 73.9587 17.3546 73.3539 16.8674 72.8051C16.2906 72.1555 15.6242 71.6403 14.7338 71.5059C14.2746 71.4387 13.8154 71.3603 13.3562 71.3211C12.8186 71.2763 12.4266 71.0074 12.1074 70.6042C11.973 70.4362 11.8554 70.2515 11.749 70.0667C10.5002 67.8547 9.425 65.5587 8.5514 63.1675C8.0642 61.8459 7.6498 60.5019 7.4034 59.1075C7.3698 58.9171 7.37539 58.7043 7.42579 58.5195C7.49299 58.2731 7.64979 58.2451 7.84019 58.4187C7.92979 58.5027 8.00259 58.6035 8.08659 58.6987C8.29379 58.9451 8.47858 59.2194 8.71378 59.4434C9.22898 59.9306 9.50341 60.541 9.71621 61.1962C10.265 62.893 10.9762 64.5227 11.7154 66.1411C12.2866 67.3955 12.925 68.6163 13.6418 69.7923C13.7706 70.0051 13.905 70.2123 14.0506 70.4139C14.2914 70.7443 14.5658 70.8394 14.8402 70.7106C15.1034 70.5874 15.277 70.2066 15.193 69.8762C15.1482 69.697 15.0642 69.5291 14.9802 69.3667C14.5434 68.5323 14.0786 67.709 13.6586 66.8634C12.1242 63.7722 10.9202 60.5691 10.2034 57.1867C10.1586 56.9739 10.0914 56.7667 10.0578 56.5539C9.9626 55.9491 9.61538 55.5235 9.09458 55.2659C8.45618 54.9523 7.78977 54.7002 7.12897 54.437C6.90497 54.3474 6.681 54.3922 6.4514 54.4762C5.9642 54.6554 5.533 54.3082 5.5778 53.8042C5.6002 53.5298 5.80739 53.3003 6.06499 53.2555C6.32819 53.2107 6.64179 53.3451 6.68659 53.6195C6.75939 54.0395 7.03938 54.157 7.37538 54.2634C7.80098 54.4034 8.22098 54.5714 8.64098 54.7226C8.74178 54.7618 8.84817 54.8011 8.94897 54.8123C9.30737 54.8571 9.45861 54.6946 9.43621 54.3306C9.38021 53.4682 9.34099 52.6003 9.28499 51.7379C9.26259 51.3963 9.2458 51.0546 9.1898 50.7242C9.0946 50.1698 8.7866 49.7219 8.3778 49.3523C7.8962 48.9155 7.409 48.4843 6.9106 48.0755C6.2834 47.5603 6.1378 46.8659 6.1714 46.1155C6.205 45.4379 6.26661 44.7603 6.32261 44.0826C6.52981 41.6578 6.8658 39.2555 7.6442 36.9371C7.829 36.3827 8.0754 35.8451 8.3106 35.3019C8.3722 35.1619 8.45618 35.0163 8.56818 34.9211C8.65778 34.8427 8.83699 34.7699 8.92659 34.8035C9.02179 34.8427 9.0946 35.0163 9.1114 35.1395C9.145 35.4419 9.1282 35.7555 9.1506 36.0579C9.1618 36.2259 9.1898 36.3995 9.2514 36.5563C9.453 37.1107 9.38019 37.6483 9.20659 38.1915C8.96019 38.9587 8.66899 39.7147 8.50659 40.4987C8.31619 41.4339 8.2378 42.3915 8.1314 43.3435C8.081 43.8027 8.04179 44.2731 8.05859 44.7323C8.09779 45.7963 8.17057 46.8603 8.24897 47.9243C8.26577 48.1259 8.36659 48.3387 8.47299 48.5179C8.56259 48.6747 8.74739 48.7139 8.92659 48.6691C9.11699 48.6187 9.20099 48.4787 9.21219 48.2939C9.24019 47.9243 9.2794 47.5547 9.2906 47.1851C9.4082 43.7467 10.0298 40.3979 11.049 37.1163C11.1554 36.7747 11.245 36.4331 11.3346 36.0915C11.5138 35.4307 11.4186 34.7755 11.3066 34.1147C11.2618 33.8403 11.2562 33.5603 11.245 33.2859C11.2282 32.9611 11.3234 32.6587 11.5306 32.4235C12.1298 31.7403 12.7458 31.0627 13.373 30.4019C13.4626 30.3067 13.6474 30.2339 13.7762 30.2563C13.9554 30.2843 13.961 30.4803 13.961 30.6371C13.961 30.8555 13.961 31.0683 13.961 31.2867C13.9722 32.8267 13.513 34.2043 12.5106 35.3915C12.1298 35.8451 11.8442 36.3603 11.6594 36.9258C11.049 38.7626 10.5954 40.6443 10.2818 42.5539C9.99058 44.3403 9.78337 46.1379 9.78897 47.9523C9.78897 48.0923 9.77778 48.2323 9.79458 48.3722C9.82818 48.6467 9.97941 48.7755 10.2426 48.6803C10.4666 48.5963 10.6906 48.4619 10.8586 48.2883C11.189 47.9467 11.3906 47.5323 11.441 47.0507C11.497 46.4683 11.5586 45.8803 11.6146 45.2979C11.805 43.2595 12.1746 41.2547 12.701 39.2779C12.925 38.4435 13.1098 37.5923 13.4962 36.8083C13.793 36.2091 14.1794 35.7163 14.8458 35.4811C15.1482 35.3747 15.417 35.1731 15.697 35.0107C15.7922 34.9547 15.8762 34.8875 15.977 34.8427C16.0386 34.8147 16.145 34.7923 16.1898 34.8203C16.229 34.8483 16.2458 34.9603 16.229 35.0219C16.201 35.1395 16.1506 35.2571 16.0946 35.3635C15.1706 37.2003 14.521 39.1267 14.073 41.1315C13.7594 42.5203 13.5242 43.9202 13.4122 45.3427C13.3898 45.6059 13.3618 45.8691 13.3226 46.1267C13.2274 46.7483 12.925 47.2467 12.4546 47.6667C11.917 48.1427 11.3346 48.5403 10.7018 48.8763C10.0578 49.2179 9.71058 49.7611 9.72178 50.4947C9.73858 51.6707 9.7834 52.8466 9.8114 54.017C9.8114 54.0786 9.81138 54.1515 9.83378 54.2019C9.88978 54.3027 9.9626 54.3979 10.0298 54.4931C10.1138 54.4315 10.2202 54.3867 10.2818 54.3083C10.7242 53.7315 11.161 53.1491 11.6034 52.5723C11.7154 52.4267 11.7266 52.2754 11.665 52.0962C11.6146 51.9562 11.5978 51.7883 11.6258 51.6483C11.6762 51.3739 11.9226 51.1666 12.169 51.1498C12.4098 51.133 12.6786 51.3067 12.757 51.5251C12.8522 51.7827 12.7794 52.1635 12.5442 52.2755C11.7098 52.6562 11.3458 53.4627 10.8194 54.1123C10.377 54.6611 10.3826 55.3723 10.5002 56.0275C11.1946 59.9699 12.3818 63.7498 14.2746 67.289C14.6442 67.9834 15.0642 68.6555 15.473 69.3275C15.5738 69.4955 15.669 69.7083 15.921 69.6747C16.2066 69.6355 16.2682 69.3947 16.313 69.1651C16.481 68.3251 16.313 67.5187 15.9154 66.7851C14.7618 64.6571 13.8546 62.4283 13.0706 60.1379C12.617 58.8163 12.6674 57.5283 13.037 56.2179C13.1098 55.9659 13.1938 55.7139 13.3058 55.4787C13.3506 55.3835 13.5074 55.2379 13.5578 55.2603C13.6642 55.3051 13.7818 55.4227 13.8154 55.5347C13.9834 56.1955 14.1122 56.8618 14.2858 57.517C14.745 59.2082 15.4058 60.8267 16.117 62.4283C16.593 63.5035 17.0914 64.5674 17.5842 65.637C17.9706 66.4658 18.0882 67.3171 17.8138 68.2075C17.6458 68.7563 17.4498 69.2938 17.125 69.7698C17.0298 69.9098 16.9402 70.0554 16.8338 70.1898C16.1842 71.0578 16.5202 71.6739 17.237 72.1947C17.3882 72.3011 17.5674 72.3683 17.7354 72.4467C18.4242 72.7715 18.8218 73.2978 18.8274 74.0762C18.8274 74.3842 18.8274 74.6979 18.805 75.0059L18.7714 74.9947ZM24.8082 85.1475L28.3978 80.2419H32.7098L29.1146 85.1475H24.8082ZM29.8034 85.1475L33.393 80.2419H35.661L32.0714 85.1475H29.8034ZM32.7882 85.1475L36.3778 80.2419H38.2146L34.625 85.1475H32.7882ZM35.549 85.1475L39.1386 80.2419H40.5498L36.9602 85.1475H35.549ZM38.0186 85.1475L41.6138 80.2642H42.7618L39.1722 85.1475H38.0242H38.0186ZM51.3746 85.1475H49.6498V84.0442H43.0698L42.2634 85.1419H40.197L43.7866 80.2587H51.369V85.1475H51.3746ZM62.625 85.1475H60.9002V82.1851L58.117 83.8762H56.7394L53.9506 82.1851V85.1531H52.2258V80.2698H53.9506L57.4282 82.5826L60.9002 80.2698H62.625V85.1531V85.1475ZM73.2818 81.5018H65.2122V83.9042H71.5626V83.1818H68.2306V82.2298H73.2874V85.1475H63.493V80.2642H73.2874V81.5075L73.2818 81.5018ZM74.049 72.3906C72.8394 73.701 71.5066 74.877 70.129 76.0026C69.7874 76.2826 69.4402 76.4059 68.9922 76.4059C62.3226 76.3947 55.6474 76.3947 48.9778 76.3947C42.3082 76.3947 35.633 76.3947 28.9634 76.4059C28.5154 76.4059 28.157 76.2994 27.8266 76.0026C26.813 75.0954 25.7434 74.2443 24.7746 73.2923C22.9322 71.4723 21.3194 69.4507 19.9362 67.2555C18.4522 64.9035 17.265 62.4058 16.3858 59.7626C15.7026 57.7186 15.2434 55.6242 14.941 53.4906C14.633 51.2898 14.5938 49.0779 14.7114 46.8658C14.8514 44.189 15.3498 41.5571 16.1394 38.9923C16.705 37.1555 17.4162 35.3747 18.2786 33.6555C19.5778 31.0739 21.1738 28.6883 23.0778 26.5043C25.5082 23.7155 28.3026 21.3579 31.4778 19.4707C34.6922 17.5555 38.1306 16.1947 41.7986 15.4163C43.2826 15.1027 44.7778 14.8843 46.2898 14.7611C47.897 14.6323 49.5098 14.6155 51.1114 14.7163C55.2218 14.9739 59.1698 15.9427 62.9386 17.6339C65.9122 18.9667 68.6394 20.6859 71.1202 22.7915C74.1554 25.3675 76.6754 28.3803 78.6802 31.8243C80.3098 34.6243 81.5082 37.6035 82.3034 40.7395C82.6786 42.2235 82.9642 43.7299 83.0874 45.2587C83.1826 46.4571 83.2946 47.6611 83.3226 48.8651C83.345 49.7891 83.2442 50.7187 83.1882 51.6427C83.121 52.8466 82.9418 54.0395 82.729 55.2267C82.3986 57.0747 81.9002 58.8778 81.2618 60.6362C80.2594 63.4026 78.921 65.9898 77.2466 68.409C76.2778 69.8091 75.2026 71.1307 74.049 72.3851V72.3906ZM81.833 34.8315C81.8946 34.7811 82.1298 34.9099 82.2698 34.9827C82.6394 35.173 82.9978 35.3915 83.3786 35.5707C83.7258 35.7331 84.017 35.9627 84.2018 36.2931C84.4202 36.6795 84.6554 37.0771 84.7898 37.4971C85.4226 39.4403 85.8874 41.4283 86.1562 43.4555C86.3018 44.5755 86.4026 45.6955 86.5258 46.8155C86.5818 47.3027 86.7106 47.7619 87.0354 48.1371C87.1978 48.3219 87.3882 48.4899 87.5954 48.6131C87.9426 48.8147 88.2058 48.6523 88.2338 48.2603C88.2394 48.1707 88.2338 48.0755 88.2338 47.9803C88.1778 46.5579 88.077 45.1411 87.8866 43.7299C87.5898 41.4843 87.0858 39.2891 86.4138 37.1275C86.2066 36.4723 85.8874 35.8787 85.4506 35.3411C84.5098 34.1875 84.0002 32.8659 84.0506 31.3595C84.0618 31.0795 84.0394 30.7995 84.0618 30.5251C84.0842 30.2059 84.2914 30.1051 84.521 30.3235C85.2434 31.0011 85.9714 31.6787 86.5258 32.5075C86.7666 32.8659 86.8282 33.2803 86.7554 33.7115C86.7106 33.9691 86.6714 34.2323 86.621 34.4899C86.4586 35.2739 86.6042 36.0243 86.845 36.7691C87.321 38.2755 87.7298 39.7987 88.0266 41.3499C88.3346 42.9627 88.5866 44.5811 88.6594 46.2219C88.6874 46.8267 88.721 47.4259 88.749 48.0307C88.7546 48.1371 88.7602 48.2491 88.7882 48.3499C88.833 48.5235 88.9282 48.6579 89.1298 48.6803C89.3146 48.6971 89.477 48.6355 89.5666 48.4731C89.645 48.3275 89.701 48.1595 89.729 47.9971C89.925 46.8155 89.925 45.6283 89.9194 44.4355C89.9194 43.0075 89.7682 41.5963 89.4434 40.2019C89.337 39.7539 89.1802 39.3115 89.0402 38.8691C88.9338 38.5275 88.8106 38.1971 88.7098 37.8555C88.5866 37.4299 88.609 37.0155 88.7322 36.5787C88.8498 36.1699 88.8498 35.7275 88.889 35.2963C88.9058 35.1003 88.8498 34.8763 89.0906 34.7755C89.2474 34.7139 89.4658 34.8259 89.5834 35.1115C89.9306 35.9347 90.3058 36.7579 90.5634 37.6147C91.0674 39.2891 91.3698 41.0139 91.5266 42.7555C91.633 43.9259 91.717 45.0963 91.801 46.2667C91.8514 47.0059 91.6162 47.6331 91.0338 48.1203C90.6418 48.4451 90.2778 48.809 89.8746 49.1227C89.1186 49.7162 88.7322 50.4611 88.721 51.4355C88.7154 52.2979 88.6314 53.1659 88.5586 54.0283C88.4914 54.7843 88.6818 54.9523 89.3874 54.7059C89.8858 54.5323 90.373 54.3362 90.8658 54.157C91.0506 54.0898 91.1794 53.989 91.2298 53.7762C91.2634 53.6362 91.3474 53.485 91.4482 53.3842C91.6442 53.1938 91.9522 53.1995 92.1762 53.3619C92.4058 53.5299 92.473 53.8155 92.361 54.1123C92.2546 54.3923 92.025 54.5547 91.7618 54.5267C91.6722 54.5155 91.577 54.4931 91.493 54.4539C91.2522 54.3475 91.0114 54.3587 90.7706 54.4539C90.2106 54.6779 89.645 54.8907 89.0906 55.1315C88.4242 55.4227 88.0266 55.9267 87.8866 56.6659C87.3546 59.4267 86.4698 62.081 85.3498 64.657C84.6442 66.2754 83.8434 67.849 82.9922 69.389C82.8802 69.5962 82.813 69.8483 82.7962 70.0891C82.7738 70.4082 82.9642 70.6491 83.2218 70.7387C83.5074 70.8339 83.7146 70.6827 83.8658 70.4811C84.1234 70.1339 84.3586 69.7699 84.577 69.3947C85.8482 67.2275 86.8618 64.937 87.769 62.5962C88.0266 61.9354 88.2562 61.2579 88.497 60.5915C88.6482 60.1771 88.8834 59.8243 89.1914 59.5051C89.4994 59.1803 89.7794 58.8274 90.0874 58.5026C90.1714 58.413 90.3114 58.3794 90.429 58.3234C90.485 58.441 90.5802 58.5587 90.5858 58.6819C90.597 58.9115 90.5746 59.1466 90.5298 59.3706C90.205 61.0506 89.6394 62.6522 89.0122 64.237C88.2114 66.2698 87.2762 68.2411 86.1842 70.1339C86.061 70.3467 85.9098 70.5483 85.753 70.7387C85.5234 71.0243 85.221 71.2146 84.857 71.2762C84.3866 71.3546 83.9106 71.4386 83.4346 71.4834C82.7626 71.5506 82.1802 71.7915 81.6762 72.2451C80.9538 72.8947 80.3602 73.6339 80.0018 74.5523C79.9178 74.7707 79.7554 74.9779 79.5762 75.1403C79.3914 75.3083 79.2234 75.2187 79.2122 74.9611C79.1954 74.5579 79.1562 74.149 79.2122 73.757C79.3074 73.1186 79.6714 72.6483 80.293 72.4187C80.713 72.2619 81.0434 71.9987 81.3122 71.6459C81.5754 71.2987 81.5978 70.9347 81.3962 70.5595C81.2954 70.3691 81.1666 70.1898 81.0434 70.0162C80.517 69.2714 80.1754 68.4427 80.0578 67.5411C79.9626 66.8299 80.1642 66.1691 80.4554 65.5195C81.2618 63.7275 82.0682 61.9355 82.8298 60.1267C83.4234 58.7099 83.8658 57.2426 84.1346 55.7306C84.1682 55.5402 84.1738 55.2771 84.4202 55.2603C84.6722 55.2379 84.7226 55.4955 84.7842 55.6803C85.305 57.1587 85.5066 58.6483 84.913 60.1659C84.661 60.8155 84.4594 61.4819 84.213 62.1315C83.6138 63.7275 82.8914 65.2674 82.0794 66.7626C81.6818 67.4906 81.581 68.2858 81.6706 69.1034C81.6818 69.193 81.7098 69.2883 81.7434 69.3723C81.9058 69.7531 82.2026 69.7922 82.4322 69.4506C82.7066 69.0418 82.9642 68.6163 83.2106 68.1851C84.661 65.6651 85.7698 62.9939 86.5258 60.1883C86.9066 58.7715 87.2202 57.3323 87.5002 55.8931C87.6458 55.1595 87.5002 54.4482 86.9906 53.849C86.761 53.5746 86.5538 53.2891 86.3242 53.0147C86.1002 52.7403 85.893 52.4659 85.5346 52.3259C85.1706 52.1859 85.0642 51.721 85.2658 51.4242C85.4226 51.1946 85.7194 51.0938 85.9546 51.1834C86.257 51.2954 86.4922 51.6371 86.3578 51.9226C86.1674 52.3202 86.3578 52.5611 86.565 52.8355C86.8954 53.2611 87.2202 53.6978 87.545 54.1291C87.5842 54.1795 87.6122 54.2411 87.657 54.2747C87.7578 54.3531 87.8754 54.4203 87.9818 54.4931C88.0266 54.3867 88.105 54.2803 88.1162 54.1683C88.1722 53.4291 88.2114 52.6898 88.2618 51.9506C88.2506 51.9506 88.2394 51.9506 88.2282 51.9506C88.2282 51.4858 88.2114 51.021 88.2282 50.5562C88.2618 49.7722 87.8922 49.2347 87.2426 48.8483C86.789 48.5795 86.3466 48.2995 85.921 47.9915C85.6466 47.7955 85.4058 47.5434 85.1706 47.3027C84.745 46.8658 84.6442 46.2891 84.5938 45.7179C84.3026 42.0891 83.4682 38.6059 81.8666 35.3243C81.7882 35.1675 81.6034 34.9883 81.7882 34.8371L81.833 34.8315Z" fill="white"/>
<path d="M48.9987 3.55627C23.9443 3.55627 3.55469 23.9403 3.55469 49.0003C3.55469 74.0603 23.9387 94.4443 48.9987 94.4443C74.0587 94.4443 94.4427 74.0603 94.4427 49.0003C94.4427 23.9403 74.0587 3.55627 48.9987 3.55627ZM48.9987 94.0635C24.1123 94.0635 3.93548 73.8867 3.93548 49.0003C3.93548 24.1139 24.1123 3.93709 48.9987 3.93709C73.8851 3.93709 94.0619 24.1139 94.0619 49.0003C94.0619 73.8867 73.8851 94.0635 48.9987 94.0635Z" fill="white"/>
<path d="M78.7144 45.7355C77.74 43.9827 76.3736 42.6163 74.5368 41.7875C73.7528 41.4347 72.9184 41.1827 72.0952 40.9195C70.908 40.5443 69.6816 40.3651 68.444 40.2979C67.0552 40.2251 65.7 40.4211 64.384 40.8803C63.9472 41.0315 63.5048 41.1827 63.0624 41.3171C62.8048 41.3955 62.7376 41.3563 62.7264 41.1099C62.7152 40.5667 62.7264 40.0291 62.7264 39.4859C62.7264 39.2843 62.8328 39.1723 63.04 39.1611C63.18 39.1611 63.32 39.1555 63.46 39.1555C64.9776 39.1555 66.4952 39.1555 68.0128 39.1555C68.1696 39.1555 68.3208 39.1555 68.4776 39.1387C68.7632 39.1051 68.976 38.9483 69.0712 38.6851C69.2448 38.2147 69.1048 37.5819 68.4272 37.4979C67.5256 37.3803 66.6184 37.2571 65.7168 37.1283C65.3976 37.0835 65.0616 37.0891 64.7592 36.9155C64.888 36.8595 65.0224 36.8371 65.1512 36.8259C66.1872 36.7587 67.2176 36.6915 68.2536 36.6243C68.808 36.5851 69.1216 36.2827 69.1384 35.8011C69.1552 35.2803 68.9032 34.9891 68.3432 34.9107C67.6264 34.8099 66.904 34.7203 66.1816 34.6195C65.7448 34.5579 65.3136 34.4907 64.8768 34.4235C64.8768 34.3899 64.8768 34.3563 64.8768 34.3227C65.084 34.2947 65.2912 34.2499 65.4984 34.2387C66.4392 34.1659 67.38 34.1099 68.3208 34.0371C68.9032 33.9923 69.2056 33.6003 69.1272 33.0235C69.0768 32.6427 68.78 32.3851 68.3152 32.3235C67.2904 32.1891 66.26 32.0659 65.2352 31.9315C65.084 31.9091 64.9384 31.8643 64.7872 31.8251C64.8936 31.7299 64.9832 31.7187 65.0728 31.7131C66.1648 31.6235 67.2624 31.5395 68.3544 31.4443C68.8304 31.4051 69.0824 31.1643 69.1272 30.7387C69.1776 30.2459 68.9704 29.9267 68.5 29.7979C68.3824 29.7643 68.2592 29.7419 68.136 29.7251C67.1112 29.5907 66.0808 29.4619 65.056 29.3275C64.9776 29.3163 64.9104 29.2659 64.748 29.1987C64.9216 29.1595 64.9944 29.1315 65.0672 29.1259C66.0696 29.0587 67.072 28.9915 68.0744 28.9243C68.1976 28.9187 68.3208 28.9075 68.4384 28.8795C68.9144 28.7563 69.1328 28.4875 69.1272 28.0227C69.1272 27.5635 68.9032 27.3003 68.4048 27.2107C67.9624 27.1323 67.52 27.0819 67.072 27.0203C66.3384 26.9195 65.6048 26.8187 64.8768 26.7179C64.8768 26.6787 64.8768 26.6451 64.8768 26.6059C65.0056 26.5835 65.14 26.5443 65.2744 26.5387C65.9352 26.4939 66.6016 26.4603 67.2624 26.4211C67.632 26.3987 68.0016 26.3651 68.3712 26.3259C68.8304 26.2755 69.1272 25.9395 69.1328 25.4859C69.1328 24.8643 68.696 24.4107 68.0744 24.4051C66.4952 24.4051 64.916 24.4051 63.3368 24.4051C62.7488 24.4051 62.6312 24.2539 62.7432 23.6771C62.7544 23.6323 62.7656 23.5875 62.7824 23.5427C62.9112 23.0947 62.8104 22.9603 62.3344 22.9435C62.0432 22.9323 61.7464 22.9435 61.4495 22.9435C60.5815 22.9435 59.7136 22.9379 58.8512 22.9435C58.3752 22.9435 58.2744 23.0947 58.3976 23.5371C58.4088 23.5819 58.4256 23.6267 58.4368 23.6715C58.5488 24.2539 58.4312 24.4051 57.8432 24.4051C56.1576 24.4051 54.4664 24.4051 52.7808 24.4051C52.6408 24.4051 52.5008 24.4051 52.3608 24.4163C52.0528 24.4499 51.8288 24.6683 51.812 24.9483C51.7952 25.2059 51.9688 25.4579 52.26 25.5251C52.4504 25.5699 52.6576 25.5531 52.8536 25.5475C53.1392 25.5363 53.4248 25.4747 53.6992 25.6427C53.436 25.7043 53.1672 25.7099 52.8984 25.7379C52.3608 25.7883 52.0528 26.1019 52.0472 26.5947C52.0416 27.0707 52.316 27.3787 52.8368 27.4515C53.5424 27.5523 54.248 27.6363 54.948 27.7371C55.424 27.8043 55.8944 27.8715 56.3648 27.9443C56.3648 27.9779 56.3648 28.0171 56.3592 28.0507C56.1016 28.0787 55.844 28.1123 55.5864 28.1347C54.6624 28.2019 53.7384 28.2635 52.8144 28.3363C52.3272 28.3755 52.0304 28.7339 52.0472 29.2099C52.064 29.6971 52.3664 29.9883 52.9208 30.0499C53.9792 30.1787 55.0376 30.3131 56.096 30.4475C56.1968 30.4587 56.292 30.5147 56.3872 30.5539C55.3736 30.7051 54.3936 30.7723 53.408 30.8451C53.1784 30.8619 52.9432 30.8843 52.7192 30.9291C52.2656 31.0187 52.0528 31.2875 52.0472 31.7411C52.0472 32.2115 52.2544 32.4971 52.7416 32.5755C53.6264 32.7155 54.5168 32.8219 55.4072 32.9451C55.7488 32.9899 56.0848 33.0459 56.4264 33.0963C56.4264 33.1299 56.4264 33.1579 56.4264 33.1915C56.3312 33.2139 56.236 33.2475 56.1408 33.2531C55.1048 33.3203 54.0744 33.3875 53.0384 33.4547C52.9152 33.4603 52.792 33.4827 52.6744 33.5219C52.2208 33.6619 52.0192 33.9531 52.0584 34.4291C52.0864 34.8099 52.3551 35.1011 52.7696 35.1683C53.2287 35.2411 53.688 35.2971 54.1472 35.3587C54.892 35.4595 55.6424 35.5603 56.3872 35.6611C56.2192 35.7787 56.0456 35.8291 55.8664 35.8403C54.8808 35.9131 53.8952 35.9747 52.904 36.0419C52.3888 36.0755 52.0696 36.3779 52.0528 36.8371C52.036 37.3411 52.316 37.6827 52.8424 37.7499C53.6096 37.8563 54.3768 37.9459 55.144 38.0467C55.564 38.1027 55.984 38.1699 56.404 38.2315C56.404 38.2707 56.404 38.3099 56.404 38.3491C55.9784 38.3827 55.5584 38.4163 55.1328 38.4555C54.948 38.4723 54.7576 38.4835 54.5896 38.5507C54.4832 38.5955 54.3488 38.7467 54.3544 38.8419C54.36 38.9483 54.5 39.0771 54.612 39.1275C54.7464 39.1835 54.9144 39.1779 55.0656 39.1779C56.04 39.1779 57.0144 39.1779 57.9888 39.1779C58.392 39.1779 58.4536 39.2395 58.4536 39.6315C58.4592 40.5779 58.4536 41.5187 58.4536 42.4651C58.4536 42.7171 58.3584 42.8795 58.1064 42.9355C58.0168 42.9579 57.9272 42.9915 57.8432 43.0251C56.432 43.5739 54.9984 44.0723 53.6096 44.6827C52.0752 45.3603 51.196 46.6203 50.8152 48.2331C50.5968 49.1515 50.7032 50.0755 50.832 50.9995C50.9552 51.8507 51.2912 52.5955 51.7952 53.2787C52.5848 54.3483 53.6208 55.0651 54.8584 55.5187C55.9056 55.8995 56.9416 56.3083 57.9832 56.7059C58.4424 56.8851 58.448 56.8906 58.448 57.3778C58.448 58.5258 58.448 59.6683 58.448 60.8163C58.448 61.1187 58.4312 61.3987 58.2072 61.6339C58.1288 61.7179 58.1008 61.8579 58.084 61.9755C58.0336 62.3339 58.2128 62.5523 58.5208 62.7147C58.784 62.8603 58.8344 63.0338 58.6384 63.2242C58.4536 63.4034 58.4536 63.5995 58.448 63.8123C58.448 64.6467 58.448 65.4867 58.448 66.3211C58.448 67.0211 58.2296 67.6315 57.6584 68.0739C57.412 68.2643 57.1824 68.477 56.908 68.617C56.1968 68.9866 55.4576 69.3115 54.7464 69.6811C53.8392 70.1515 52.9432 70.6387 52.0584 71.1427C51.7168 71.3387 51.4592 71.6187 51.3808 72.0387C51.2856 72.5483 51.504 72.8451 52.0304 72.8731C52.1256 72.8731 52.2152 72.8731 52.3104 72.8731C57.8376 72.8731 63.3648 72.8731 68.8864 72.8731C69.0096 72.8731 69.1328 72.8787 69.256 72.8619C69.6872 72.8059 69.9056 72.4867 69.8216 72.0667C69.7432 71.6971 69.5304 71.4226 69.228 71.2099C68.9872 71.0419 68.7464 70.8683 68.4832 70.7395C67.324 70.1515 66.1536 69.5859 65 68.9923C64.5464 68.7627 64.1152 68.4883 63.6952 68.2083C62.9896 67.7379 62.704 67.0547 62.7208 66.2203C62.7376 65.4139 62.732 64.6131 62.7208 63.8067C62.7208 63.6443 62.6984 63.4538 62.62 63.325C62.368 62.9162 62.3568 62.9275 62.7488 62.6698C63.18 62.3899 63.2696 62.0146 62.956 61.6114C62.7824 61.3874 62.7264 61.1522 62.7264 60.8778C62.7264 60.2562 62.7264 59.6403 62.7264 59.0187C62.7264 58.9403 62.7264 58.8619 62.732 58.7891C62.7488 58.6155 62.8272 58.5315 63.012 58.5875C63.0736 58.6043 63.1296 58.6267 63.1856 58.6491C63.9808 58.9459 64.776 59.2651 65.5768 59.5395C66.4112 59.8251 67.24 60.1387 68.0968 60.3291C69.2952 60.5979 70.5272 60.5811 71.748 60.5083C72.6944 60.4523 73.6128 60.2171 74.4192 59.6627C75.1192 59.1811 75.8472 58.7274 76.4968 58.1842C77.9752 56.941 79.168 55.4739 79.7952 53.6091C80.1816 52.4667 80.3776 51.3019 80.204 50.0923C79.9856 48.5579 79.4816 47.1187 78.7312 45.7691L78.7144 45.7355ZM51.28 51.5427C50.9664 50.3163 50.8656 49.0731 51.2688 47.8411C51.6608 46.6371 52.344 45.6403 53.5032 45.0579C54.9816 44.3131 56.544 43.7587 58.112 43.2267C58.3808 43.1371 58.4312 43.1931 58.4536 43.4787C58.4704 43.7419 58.3864 43.9155 58.1288 44.0219C57.4008 44.3187 56.6728 44.6211 55.956 44.9459C55.424 45.1867 54.8864 45.4331 54.3824 45.7355C53.4752 46.2731 52.96 47.1467 52.5792 48.0875C52.1648 49.1179 52.0584 50.1987 52.1144 51.3131C52.1592 52.1475 52.3216 52.9259 52.708 53.6763C52.0472 53.0827 51.5096 52.4051 51.2912 51.5483L51.28 51.5427ZM58.448 50.3947C58.448 52.1755 58.448 53.9506 58.448 55.7314C58.448 55.8266 58.448 55.9162 58.448 56.0114C58.4368 56.437 58.3976 56.4651 57.9888 56.3139C57.0032 55.9499 56.0008 55.6251 55.032 55.2163C53.6208 54.6171 52.764 53.5306 52.484 52.0242C52.2992 51.0274 52.316 50.0251 52.568 49.0339C52.7976 48.1155 53.2288 47.3035 53.8392 46.5867C54.2312 46.1275 54.7408 45.8419 55.284 45.6011C56.2024 45.1979 57.1264 44.8003 58.0504 44.4027C58.3696 44.2627 58.4368 44.3019 58.4424 44.6435C58.4536 45.4163 58.4424 46.1891 58.448 46.9619C58.448 48.1043 58.448 49.2523 58.448 50.3947ZM62.8384 41.7539C62.8944 41.6811 63.0232 41.6531 63.124 41.6251C63.964 41.3619 64.7984 41.0931 65.644 40.8523C66.2992 40.6675 66.9768 40.5891 67.66 40.6227C67.7608 40.6227 67.8672 40.6451 67.968 40.6563C66.3272 40.8915 64.8152 41.5355 63.2696 42.0563C63.1799 42.0843 63.096 42.1347 63.0064 42.1403C62.928 42.1459 62.7712 42.1123 62.7712 42.0843C62.7712 41.9723 62.7712 41.8379 62.8328 41.7539H62.8384ZM66.064 37.4923C66.064 37.5259 66.0639 37.5651 66.0695 37.5987C66.0191 37.6211 65.9632 37.6547 65.9128 37.6547C64.9888 37.7219 64.0648 37.7947 63.1408 37.8507C62.7712 37.8731 62.6872 37.7555 62.7208 37.3803C62.7376 37.1675 62.8328 37.0611 63.0456 37.0891C64.0536 37.2179 65.0616 37.3579 66.064 37.4923ZM65.8568 34.8659C65.9296 34.8771 65.9968 34.9051 66.1312 34.9443C66.036 35.0171 66.0136 35.0451 65.9856 35.0507C65.0168 35.1235 64.048 35.2019 63.0736 35.2635C62.7768 35.2803 62.7207 35.2019 62.7095 34.9163C62.6927 34.5579 62.788 34.4683 63.1408 34.5187C64.0424 34.6363 64.9496 34.7539 65.8512 34.8715L65.8568 34.8659ZM65.756 32.2899C65.8568 32.3011 65.952 32.3515 66.0472 32.3795C66.0472 32.4019 66.0472 32.4243 66.0472 32.4411C65.8064 32.4747 65.5712 32.5251 65.3304 32.5419C64.58 32.5923 63.824 32.6371 63.0736 32.6763C62.7768 32.6931 62.7152 32.6203 62.7208 32.2955C62.7264 31.9931 62.7824 31.9203 63.0568 31.9483C63.9584 32.0547 64.86 32.1667 65.7616 32.2843L65.756 32.2899ZM65.5992 29.6803C65.7504 29.7027 65.896 29.7419 66.0416 29.7755C66.036 29.8035 66.0304 29.8315 66.0248 29.8651C65.8624 29.8931 65.6944 29.9379 65.532 29.9491C64.72 30.0107 63.9024 30.0667 63.0904 30.1283C62.9448 30.1395 62.7824 30.1283 62.7544 29.9603C62.7264 29.7867 62.7544 29.6019 62.788 29.4227C62.7936 29.3891 62.9504 29.3611 63.0344 29.3667C63.3088 29.3891 63.5832 29.4283 63.8576 29.4619C64.44 29.5347 65.0168 29.6019 65.5992 29.6803ZM65.9352 27.1659C65.98 27.1715 66.0192 27.1995 66.1536 27.2611C66.0136 27.3171 65.9632 27.3507 65.9072 27.3507C64.9832 27.4179 64.0592 27.4907 63.1352 27.5467C62.7824 27.5691 62.7152 27.4907 62.7152 27.1659C62.7152 26.8355 62.7992 26.7515 63.1352 26.7907C64.0704 26.9083 65.0056 27.0371 65.9352 27.1659ZM58.952 23.1563C60.0496 23.1563 61.1472 23.1563 62.2448 23.1563C62.3232 23.1563 62.4016 23.1619 62.4744 23.1843C62.5024 23.1955 62.5248 23.2459 62.536 23.2851C62.536 23.3019 62.5024 23.3411 62.48 23.3467C62.4072 23.3635 62.3288 23.3747 62.2504 23.3747C61.1528 23.3747 60.0552 23.3747 58.9576 23.3747C58.8624 23.3747 58.7672 23.3299 58.6776 23.3075C58.6776 23.2795 58.6776 23.2515 58.6776 23.2291C58.7728 23.2067 58.8624 23.1619 58.9576 23.1619L58.952 23.1563ZM62.4352 23.9515C62.4464 24.2539 62.368 24.3715 62.0824 24.3771C61.08 24.3883 60.0776 24.3883 59.0752 24.3771C58.7952 24.3771 58.7112 24.2539 58.7224 23.9571C58.7336 23.6883 58.7952 23.6211 59.0976 23.6155C59.6072 23.6099 60.1168 23.6155 60.6264 23.6155C61.1024 23.6155 61.584 23.6099 62.06 23.6155C62.3624 23.6155 62.424 23.6883 62.4352 23.9515ZM52.8928 25.2227C52.7528 25.2227 52.6128 25.2227 52.4784 25.2115C52.316 25.1891 52.1648 25.1275 52.1704 24.9315C52.1704 24.7635 52.3104 24.7019 52.456 24.6795C52.5624 24.6627 52.6744 24.6627 52.7808 24.6627C56.852 24.6627 60.9232 24.6627 64.9888 24.6627C65.1232 24.6627 65.2576 24.6795 65.392 24.6907C65.392 24.7243 65.392 24.7579 65.392 24.7915C65.3192 24.8083 65.2464 24.8419 65.1736 24.8475C64.5576 24.8923 63.9416 24.9203 63.32 24.9651C62.2728 25.0435 61.2256 25.1275 60.1784 25.2059C59.9936 25.2171 59.8088 25.2283 59.624 25.2283C57.3784 25.2283 55.1384 25.2283 52.8928 25.2283V25.2227ZM53.296 27.0931C53.1056 27.0931 52.9768 27.1043 52.8536 27.0931C52.54 27.0651 52.3664 26.8747 52.3608 26.5835C52.3552 26.2979 52.5176 26.0963 52.8312 26.0515C53.1672 26.0011 53.5088 25.9787 53.8448 25.9507C55.4912 25.8275 57.1431 25.7043 58.7895 25.5867C59.8815 25.5083 60.9792 25.4523 62.0712 25.3739C63.1184 25.3011 64.1656 25.2115 65.2128 25.1275C65.7336 25.0883 66.26 25.0547 66.7864 25.0155C67.1728 24.9875 67.5536 24.9539 67.94 24.9315C68.0912 24.9203 68.2536 24.9203 68.3992 24.9539C68.668 25.0155 68.836 25.2563 68.8192 25.4915C68.7968 25.7323 68.6064 25.9339 68.332 25.9787C68.1472 26.0067 67.9624 26.0347 67.7776 26.0459C66.7136 26.1187 65.6496 26.1859 64.5856 26.2587C63.5216 26.3371 62.4632 26.4267 61.3992 26.5051C60.9344 26.5387 60.4752 26.5779 60.0104 26.6115C58.4984 26.7123 56.992 26.8075 55.48 26.9139C54.724 26.9643 53.9736 27.0371 53.2848 27.0875L53.296 27.0931ZM61.8472 26.7739C61.892 26.7739 61.9424 26.7739 61.9872 26.7739C62.1328 26.7851 62.34 26.7179 62.3848 26.9083C62.4296 27.0931 62.424 27.3115 62.3624 27.4907C62.3344 27.5691 62.1328 27.6195 62.004 27.6363C61.668 27.6755 61.3264 27.6923 60.9904 27.7147C60.3576 27.7595 59.7304 27.8043 59.0976 27.8379C58.7896 27.8491 58.7392 27.7875 58.7224 27.5075C58.6944 27.1435 58.7728 27.0147 59.0752 26.9811C59.3944 26.9475 59.7192 26.9251 60.044 26.9027C60.6432 26.8635 61.2424 26.8299 61.8472 26.7907C61.8472 26.7907 61.8472 26.7851 61.8472 26.7795V26.7739ZM55.9224 27.5243C55.7376 27.5019 55.5528 27.4851 55.3736 27.4571C55.2784 27.4403 55.1888 27.4011 55.0432 27.3507C55.1384 27.3003 55.172 27.2611 55.2112 27.2611C56.1296 27.1939 57.0536 27.1211 57.972 27.0651C58.3864 27.0427 58.476 27.1491 58.4368 27.5355C58.4088 27.7875 58.3416 27.8491 58.0728 27.8155C57.356 27.7259 56.6392 27.6251 55.9224 27.5243ZM52.9712 29.6859C52.9712 29.6859 52.82 29.6803 52.708 29.6411C52.4616 29.5627 52.3327 29.3555 52.3496 29.1091C52.3664 28.8907 52.5176 28.7059 52.7416 28.6499C52.9208 28.6051 53.1056 28.5827 53.2904 28.5659C54.3544 28.4931 55.4184 28.4315 56.4824 28.3531C57.5016 28.2803 58.5152 28.1907 59.5288 28.1123C60.0216 28.0731 60.5144 28.0339 61.0072 28.0003C62.5192 27.8995 64.0312 27.8043 65.5376 27.6979C66.3104 27.6475 67.0776 27.5803 67.8448 27.5243C67.968 27.5131 68.0912 27.5131 68.2144 27.5243C68.5672 27.5411 68.8024 27.7427 68.808 28.0395C68.808 28.3083 68.6008 28.5323 68.2648 28.5715C67.8672 28.6163 67.464 28.6443 67.0664 28.6723C65.4312 28.7955 63.8016 28.9187 62.1664 29.0307C61.1024 29.1035 60.0384 29.1651 58.9744 29.2435C57.9104 29.3219 56.852 29.4115 55.788 29.4899C55.2336 29.5347 54.6792 29.5627 54.1248 29.6019C53.772 29.6243 53.4136 29.6523 52.96 29.6859H52.9712ZM61.9984 30.1731C61.3544 30.2403 60.7104 30.2851 60.0608 30.3411C59.7696 30.3635 59.4784 30.3859 59.1872 30.4139C58.8344 30.4419 58.7448 30.3803 58.7224 30.0723C58.6944 29.7195 58.7784 29.5907 59.092 29.5683C59.904 29.4955 60.7216 29.4339 61.5336 29.3667C61.5336 29.3779 61.5336 29.3835 61.5336 29.3947C61.7016 29.3779 61.8696 29.3555 62.0376 29.3387C62.3288 29.3163 62.4016 29.3779 62.4296 29.6579C62.4688 30.0499 62.4016 30.1395 61.9984 30.1843V30.1731ZM55.452 30.0387C55.3344 30.0219 55.2224 29.9771 55.1104 29.9435C55.116 29.9043 55.1272 29.8707 55.1328 29.8315C56.1464 29.7643 57.1544 29.6971 58.168 29.6299C58.3136 29.6187 58.3976 29.6803 58.4312 29.8259C58.5264 30.2291 58.392 30.3971 57.9776 30.3523C57.1376 30.2571 56.2976 30.1507 55.4576 30.0387H55.452ZM53.4304 32.2003C53.2624 32.2115 53.0888 32.2339 52.9208 32.2339C52.624 32.2339 52.3944 32.0547 52.3552 31.7915C52.316 31.5395 52.484 31.2819 52.764 31.1923C52.8368 31.1699 52.9152 31.1587 52.9936 31.1531C54.0128 31.0859 55.0264 31.0243 56.0456 30.9515C57.0648 30.8787 58.0784 30.7891 59.092 30.7051C59.568 30.6659 60.0496 30.6323 60.5256 30.6043C62.0376 30.5035 63.5496 30.4083 65.056 30.3019C66.0416 30.2291 67.0272 30.1451 68.0128 30.0611C68.4776 30.0219 68.8024 30.2123 68.8192 30.5539C68.836 30.8731 68.5616 31.1251 68.1304 31.1643C67.6376 31.2091 67.1448 31.2315 66.652 31.2707C65.0056 31.3883 63.3536 31.5171 61.7072 31.6291C60.6152 31.7075 59.5176 31.7635 58.4256 31.8419C57.4064 31.9147 56.3928 32.0099 55.3792 32.0883C54.7296 32.1387 54.0856 32.1779 53.436 32.2171C53.436 32.2171 53.436 32.2059 53.436 32.2003H53.4304ZM62.4296 32.3179C62.4296 32.6875 62.3848 32.7379 62.0096 32.7659C61.0407 32.8387 60.0664 32.9003 59.0976 32.9843C58.9016 33.0011 58.7672 32.9843 58.7224 32.7603C58.6608 32.4299 58.7392 32.2003 58.952 32.1331C59.0248 32.1107 59.1032 32.0995 59.1816 32.0939C60.0888 32.0267 61.0016 31.9651 61.9088 31.8979C61.9424 31.8979 61.9704 31.8979 62.004 31.8979C62.3792 31.8979 62.4352 31.9483 62.4352 32.3235L62.4296 32.3179ZM56.3256 32.7099C55.9168 32.6539 55.508 32.5979 55.1048 32.5475C55.1048 32.5139 55.1048 32.4747 55.1048 32.4411C55.172 32.4187 55.2392 32.3851 55.312 32.3795C56.2136 32.3123 57.1208 32.2451 58.0224 32.1891C58.1456 32.1835 58.3528 32.2339 58.3752 32.3011C58.4256 32.4635 58.4368 32.6763 58.3752 32.8275C58.3416 32.9059 58.1064 32.9451 57.972 32.9283C57.4232 32.8723 56.8744 32.7827 56.3256 32.7099ZM53.38 34.8099C53.1504 34.8099 52.9936 34.8211 52.8424 34.8099C52.5624 34.7819 52.372 34.5915 52.3496 34.3451C52.3271 34.0819 52.4728 33.8747 52.7472 33.7907C52.82 33.7683 52.8984 33.7571 52.9768 33.7515C53.9176 33.6843 54.8584 33.6227 55.7992 33.5555C57.244 33.4435 58.6944 33.3259 60.1392 33.2139C60.632 33.1747 61.1248 33.1411 61.6176 33.1075C63.1296 33.0067 64.6416 32.9115 66.148 32.8051C66.736 32.7659 67.3184 32.6987 67.9008 32.6539C68.052 32.6427 68.2144 32.6371 68.36 32.6651C68.6288 32.7155 68.8192 32.9395 68.8136 33.1747C68.8136 33.4155 68.6288 33.6339 68.36 33.6899C68.192 33.7235 68.024 33.7515 67.856 33.7627C66.8088 33.8355 65.7616 33.8971 64.7088 33.9755C63.6784 34.0483 62.648 34.1435 61.612 34.2163C60.9624 34.2667 60.3184 34.3003 59.6688 34.3451C58.7 34.4123 57.7256 34.4795 56.7568 34.5467C55.6032 34.6307 54.4496 34.7259 53.3688 34.8099H53.38ZM59.3216 35.5491C59.2768 35.5491 59.2264 35.5603 59.1816 35.5491C59.0416 35.5155 58.8064 35.5043 58.784 35.4259C58.7224 35.2523 58.7336 35.0283 58.784 34.8491C58.8064 34.7707 59.008 34.7091 59.1312 34.6979C59.4672 34.6587 59.8088 34.6419 60.1448 34.6195C60.7776 34.5747 61.4048 34.5243 62.0376 34.4963C62.3568 34.4795 62.4072 34.5411 62.4296 34.8155C62.4632 35.1851 62.3848 35.3139 62.088 35.3475C61.7184 35.3867 61.3488 35.4091 60.9792 35.4371C60.4248 35.4763 59.8704 35.5043 59.316 35.5435C59.316 35.5435 59.316 35.5491 59.316 35.5547L59.3216 35.5491ZM55.1776 35.1459C55.1776 35.1459 55.1272 35.1179 55.0264 35.0563C55.1328 35.0115 55.1832 34.9779 55.2392 34.9723C56.1632 34.9051 57.0872 34.8323 58.0112 34.7763C58.3864 34.7539 58.476 34.8659 58.4368 35.2411C58.4144 35.4987 58.3416 35.5603 58.0728 35.5267C57.1096 35.4035 56.1408 35.2747 55.1776 35.1459ZM52.7248 37.3579C52.484 37.2907 52.3608 37.1227 52.3552 36.8819C52.3496 36.6243 52.4784 36.4227 52.7304 36.3611C52.9264 36.3107 53.128 36.2883 53.324 36.2715C53.8168 36.2323 54.3096 36.2043 54.8024 36.1707C56.3256 36.0699 57.8544 35.9747 59.3776 35.8683C60.5928 35.7843 61.8136 35.6891 63.0288 35.5939C64.4904 35.4819 65.952 35.3643 67.4192 35.2523C67.6824 35.2299 67.9456 35.2243 68.2088 35.2299C68.5672 35.2299 68.8024 35.4371 68.8192 35.7283C68.836 36.0139 68.6064 36.2435 68.248 36.2827C67.9568 36.3163 67.6656 36.3443 67.3688 36.3611C66.3048 36.4339 65.2408 36.4955 64.1768 36.5739C63.1296 36.6523 62.0824 36.7363 61.0352 36.8203C60.5704 36.8539 60.1112 36.8931 59.6464 36.9267C58.1344 37.0275 56.628 37.1227 55.116 37.2291C54.4552 37.2739 53.7944 37.3411 53.0664 37.4027C52.988 37.3971 52.848 37.3971 52.7136 37.3579H52.7248ZM62.2 37.9011C62.144 37.9235 62.0824 37.9347 62.0208 37.9347C61.0688 37.9963 60.1112 38.0635 59.1592 38.1251C58.784 38.1419 58.7336 38.0971 58.7168 37.7779C58.7 37.3915 58.7784 37.2963 59.1368 37.2683C60.1056 37.1955 61.0744 37.1339 62.0432 37.0555C62.2336 37.0387 62.3792 37.0443 62.424 37.2739C62.4856 37.5987 62.4128 37.8339 62.2056 37.9067L62.2 37.9011ZM55.4072 37.7443C55.3064 37.7331 55.2056 37.6827 55.1104 37.6547C55.116 37.6211 55.1272 37.5875 55.1328 37.5539C56.1296 37.4867 57.1264 37.4139 58.1288 37.3579C58.3976 37.3411 58.4536 37.4363 58.4368 37.7835C58.4256 38.0747 58.3752 38.1307 58.1176 38.0971C57.216 37.9851 56.3144 37.8675 55.4128 37.7443H55.4072ZM69.4464 72.2459C69.4016 72.3019 69.368 72.3859 69.3064 72.4139C69.2112 72.4587 69.0992 72.4755 68.9928 72.4867C68.8696 72.4979 68.7464 72.4978 68.6232 72.4978C63.2528 72.4978 57.888 72.4978 52.5176 72.4978C52.288 72.4978 52.0584 72.4587 51.8344 72.4195C51.784 72.4083 51.7112 72.3074 51.7168 72.2514C51.7168 72.2066 51.8176 72.1395 51.8792 72.1283C52.0136 72.1059 52.1592 72.117 52.2936 72.117C55.0488 72.117 57.804 72.117 60.5536 72.117C63.3256 72.117 66.092 72.117 68.864 72.117C69.004 72.117 69.144 72.1115 69.2784 72.1339C69.34 72.1451 69.3904 72.2122 69.4464 72.257V72.2459ZM69.088 71.5011C69.1496 71.5179 69.1888 71.6075 69.312 71.7475H51.9072C51.98 71.5067 52.1256 71.4115 52.3216 71.3891C52.4448 71.3723 52.568 71.3778 52.6912 71.3778C57.9496 71.3778 63.208 71.3778 68.4664 71.3778C68.6736 71.3778 68.8864 71.4395 69.088 71.4955V71.5011ZM62.4296 64.0139C62.4408 64.6299 62.4296 65.2515 62.4296 65.8675C62.4296 66.1139 62.4352 66.3603 62.4296 66.6123C62.4072 67.1779 62.6368 67.6259 63.012 68.0234C63.544 68.5835 64.188 68.9643 64.8768 69.2891C65.8848 69.7595 66.8816 70.2635 67.8784 70.7563C67.9792 70.8067 68.0688 70.8907 68.2032 70.9859C68.1024 71.0363 68.0464 71.0867 67.996 71.0867C63.0456 71.0867 58.1008 71.0867 53.1504 71.0867C53.1 71.0867 53.044 71.0419 52.9152 70.9859C53.0944 70.8739 53.212 70.7842 53.3408 70.717C54.2704 70.2578 55.1944 69.7987 56.1352 69.3563C56.768 69.0595 57.384 68.7458 57.9048 68.2642C58.42 67.7938 58.7448 67.2563 58.7224 66.5283C58.7 65.7723 58.7168 65.0107 58.7224 64.2547C58.7224 64.1315 58.7224 64.0082 58.728 63.885C58.7392 63.661 58.8624 63.5547 59.0864 63.5603C59.5512 63.5603 60.016 63.5603 60.4808 63.5603C60.9736 63.5603 61.472 63.5603 61.9648 63.5603C62.3736 63.5603 62.424 63.6107 62.4296 64.0139ZM59.3216 63.2187C59.1816 63.2187 59.0864 63.1459 59.0808 62.9947C59.0752 62.8491 59.1312 62.7538 59.2824 62.737C59.3888 62.7258 59.5008 62.7259 59.6072 62.7259C60.1952 62.7259 60.7832 62.7259 61.3712 62.7259C61.5112 62.7259 61.6512 62.7259 61.7912 62.7259C61.9424 62.7259 62.0712 62.7651 62.0768 62.9555C62.088 63.1627 61.9592 63.2242 61.7856 63.2242C61.3824 63.2242 60.9848 63.2242 60.5816 63.2242C60.1672 63.2242 59.7472 63.2243 59.3328 63.2187H59.3216ZM62.5472 62.3506C62.4352 62.3898 62.3064 62.3955 62.1832 62.3955C61.1136 62.3955 60.0496 62.3955 58.98 62.3955C58.8736 62.3955 58.7616 62.3955 58.6608 62.3675C58.4032 62.2891 58.2856 62.0035 58.4704 61.8299C58.7392 61.5779 58.7224 61.2867 58.7224 60.9787C58.7224 53.9675 58.7224 46.9563 58.7224 39.9395C58.7224 39.4168 58.9874 39.1573 59.5176 39.1611C60.3072 39.1611 61.0968 39.1611 61.8864 39.1611C62.396 39.1611 62.4352 39.2003 62.4352 39.7211C62.4352 43.2995 62.4352 46.8722 62.4352 50.4506C62.4352 53.9338 62.4352 57.4171 62.4352 60.9003C62.4352 61.2363 62.3904 61.5667 62.704 61.8411C62.8888 62.0035 62.788 62.2723 62.5472 62.3563V62.3506ZM57.748 38.8811C57.5968 38.8811 57.44 38.8587 57.2888 38.8363C57.2552 38.8363 57.216 38.7691 57.216 38.7355C57.216 38.7019 57.2552 38.6459 57.2888 38.6291C57.3392 38.6011 57.4064 38.5899 57.468 38.5843C58.2688 38.5227 59.0696 38.4611 59.8704 38.3995C61.0072 38.3155 62.1496 38.2259 63.2864 38.1419C64.3336 38.0691 65.3808 37.9963 66.428 37.9291C66.9824 37.8899 67.5368 37.8563 68.0912 37.8227C68.1808 37.8171 68.276 37.8059 68.3656 37.8227C68.5952 37.8619 68.7856 38.0747 68.8136 38.2987C68.8416 38.5227 68.7016 38.7579 68.4552 38.8307C68.2816 38.8811 68.0912 38.8867 67.9064 38.8867C66.2208 38.8867 64.5351 38.8867 62.8496 38.8867C61.1472 38.8867 59.4448 38.8867 57.748 38.8867V38.8811ZM78.8432 54.9699C77.936 56.4875 76.6816 57.6634 75.2536 58.6714C74.8616 58.9458 74.4527 59.2035 74.0495 59.4611C73.3104 59.9315 72.4872 60.1163 71.6248 60.1611C71.2832 60.1779 70.9416 60.1611 70.488 60.1611C69.088 60.2115 67.6208 59.9875 66.204 59.3995C65.2016 58.9851 64.1768 58.6378 63.1632 58.257C62.7152 58.0891 62.7095 58.0835 62.7095 57.6299C62.7095 52.7691 62.7095 47.9083 62.7095 43.0475C62.7095 42.6051 62.732 42.5659 63.1688 42.4203C64.2664 42.0451 65.364 41.6755 66.4728 41.3227C67.1672 41.0987 67.8896 41.0147 68.6232 40.9923C70.068 40.9419 71.5016 41.0483 72.896 41.4571C75.2704 42.1571 77.1016 43.5627 78.3616 45.7075C79.1568 47.0627 79.6552 48.5242 79.868 50.0642C80.1144 51.8002 79.7504 53.4466 78.8432 54.9642V54.9699Z" fill="white"/>
<path d="M56.5671 9.85062C56.7911 9.89542 57.0207 9.94021 57.1831 9.96821C57.5863 9.98501 57.7263 9.88421 57.7767 9.59861C57.8383 9.25141 57.7375 9.06661 57.4071 8.97141C57.1999 8.90981 56.9928 8.87062 56.78 8.82022C56.584 8.77542 56.4664 8.88741 56.4664 9.05541C56.4664 9.30741 56.192 9.57062 56.4776 9.81702C56.5 9.83382 56.5335 9.84502 56.5615 9.85062H56.5671Z" fill="white"/>
<path d="M46.8049 40.83C46.4521 40.6172 46.4577 40.6228 46.6481 40.2476C46.7657 40.0124 46.9001 39.7828 46.9785 39.5364C47.1073 39.1444 46.9897 38.9316 46.6145 38.7636C46.5697 38.7468 46.5249 38.73 46.4857 38.7188C46.3121 38.6572 46.3289 38.5844 46.4297 38.4444C46.5865 38.2204 46.7601 37.9852 46.8441 37.7332C47.0681 37.0444 46.6089 36.434 45.8865 36.4732C45.6345 36.4844 45.3825 36.5964 45.1361 36.6692C45.0185 36.7028 44.9345 36.714 44.8785 36.5684C44.7105 36.098 44.7049 36.098 44.2177 36.1204C44.0777 36.126 43.9433 36.1484 43.8033 36.1652C43.4057 36.21 43.0081 36.2604 42.6049 36.294C42.4201 36.3108 42.2073 36.294 42.1569 36.0756C42.1513 36.042 42.3809 35.9188 42.5153 35.8852C43.8481 35.5436 44.5369 34.5916 44.6769 33.242C44.7217 32.8108 44.6041 32.7212 44.1617 32.7996C43.8425 32.8556 43.5233 32.9284 43.2041 32.99C43.1201 33.0068 43.0305 32.99 42.9409 32.99C42.9521 32.906 42.9521 32.8164 42.9801 32.7324C43.1201 32.2956 43.1201 32.2788 42.6889 32.066C42.2073 31.8252 41.6921 31.7524 41.1601 31.7412C40.8577 31.7356 40.8521 31.7188 40.8577 31.4164C40.8633 31.03 40.8801 30.6436 40.8745 30.2572C40.8689 29.9884 40.7625 29.9268 40.5161 30.0276C40.3705 30.0836 40.2361 30.162 40.1017 30.2404C39.2785 30.7052 38.4609 31.1756 37.6377 31.6404C37.5145 31.7076 37.3913 31.7748 37.2625 31.814C37.0777 31.87 36.9937 31.7804 37.0497 31.5956C37.0777 31.506 37.1225 31.4276 37.1617 31.3436C37.2961 31.0468 37.4417 30.7556 37.5593 30.4532C37.6713 30.1732 37.5425 29.9996 37.2457 29.9884C37.1561 29.9884 37.0609 30.0052 36.9713 30.022C36.3049 30.1452 35.6329 30.274 34.9665 30.4028C34.5913 30.4756 34.5633 30.4644 34.3561 30.1508C34.2553 29.994 34.1601 29.8316 34.0425 29.6916C33.7737 29.3668 33.6785 29.3612 33.3705 29.6412C33.2809 29.7252 33.1913 29.8092 33.1073 29.8988C32.9841 30.0332 32.8665 30.0444 32.7041 29.938C31.8473 29.378 31.1081 29.6524 30.4809 30.1452C30.1281 30.4196 29.7585 30.6772 29.4057 30.9516C29.2321 31.0916 29.1257 31.0524 28.9857 30.89C28.6217 30.4756 28.4649 30.4588 28.0001 30.7612C27.8601 30.8508 27.7313 30.9684 27.6137 31.0916C27.3113 31.4108 27.3113 31.4164 26.9809 31.1588C26.9305 31.1196 26.8857 31.0804 26.8353 31.0412C26.4377 30.75 26.3201 30.7556 25.9673 31.114C25.4577 31.6404 25.2337 32.2844 25.1945 33.0068C25.1833 33.186 25.1273 33.3596 25.0937 33.5332C24.9425 33.4436 24.7745 33.3764 24.6401 33.2644C24.1585 32.8612 23.6209 32.57 22.9993 32.4356C22.5849 32.346 22.4449 32.4468 22.4281 32.8556C22.3945 33.6508 22.5625 34.39 23.0497 35.0396C23.1057 35.1124 23.1617 35.1852 23.2065 35.2692C23.2793 35.398 23.2401 35.5156 23.1225 35.5884C23.0329 35.6444 22.9321 35.6892 22.8313 35.7284C22.1201 35.986 21.4089 36.2492 20.6921 36.5012C19.9305 36.77 19.7513 36.7364 20.1881 37.7332C20.3225 38.0412 20.5465 38.31 20.7369 38.59C20.8377 38.7356 20.8265 38.8532 20.6585 38.9204C20.4289 39.0156 20.1993 39.0996 19.9641 39.1836C19.6057 39.3124 19.5945 39.3292 19.7177 39.6764C19.8241 39.9844 19.8297 39.9956 19.5161 40.102C19.0737 40.2532 18.6593 40.4492 18.2953 40.7572C17.9929 41.0148 17.9817 41.1492 18.3121 41.3564C18.7825 41.6532 19.2753 41.9164 19.7625 42.1852C20.1321 42.3924 20.1601 42.4708 19.9697 42.8348C19.9361 42.902 19.8913 42.9692 19.8465 43.0308C19.5721 43.434 19.5665 43.4396 19.9249 43.798C20.0649 43.938 20.0873 44.0332 19.9473 44.1788C19.7905 44.3468 19.6337 44.526 19.5105 44.722C18.9897 45.5732 19.0905 46.9788 20.5185 47.3204C20.7145 47.3652 20.9161 47.382 21.1121 47.4044C21.3921 47.4324 21.6049 47.5444 21.7561 47.7964C22.0193 48.222 22.1425 48.2388 22.5681 47.9644C22.8649 47.774 23.1673 47.578 23.4697 47.3988C23.8561 47.1692 23.8729 47.1804 24.1137 47.5556C24.4273 48.0372 24.8697 48.3172 25.4577 48.3452C25.9169 48.3676 26.3425 48.2948 26.7345 48.0204C27.0369 47.8132 27.0873 47.8412 27.2721 48.1492C27.4681 48.4796 27.6585 48.8212 27.8657 49.146C27.9161 49.2244 28.0337 49.3252 28.1065 49.314C28.1793 49.3084 28.2409 49.174 28.2913 49.09C28.3921 48.9388 28.4425 48.7372 28.5825 48.642C29.2433 48.1828 29.4841 47.5276 29.5121 46.766C29.5289 46.2788 29.5737 46.2508 30.0161 46.4916C30.1785 46.5812 30.3241 46.6988 30.4753 46.8052C30.6881 46.962 30.7721 47.1748 30.7721 47.4436C30.7833 48.726 30.8225 50.0084 30.8337 51.2964C30.8505 53.3852 30.8505 55.474 30.8617 57.5684C30.8617 57.8652 30.8729 58.1508 30.6657 58.4028C30.5873 58.498 30.5817 58.666 30.5761 58.8004C30.5649 59.03 30.5593 59.2652 30.5761 59.4948C30.6153 59.9428 30.4137 60.2116 30.0105 60.3964C29.2937 60.7268 28.6273 61.1524 28.0337 61.69C27.8769 61.8356 27.6865 61.9532 27.4961 62.054C26.9865 62.3116 26.4657 62.5524 25.9505 62.8044C25.7993 62.8772 25.6425 62.95 25.5025 63.0508C25.2785 63.2132 25.2001 63.4988 25.2953 63.7564C25.3793 63.9804 25.5641 64.0364 25.7825 64.0252C25.9281 64.0196 26.0513 64.0252 26.1465 64.1651C26.4041 64.5572 26.7961 64.6356 27.2105 64.5124C27.5745 64.406 27.9273 64.2324 28.2745 64.07C28.7785 63.8348 28.7785 63.8236 28.8121 64.3948C28.8233 64.5684 28.8121 64.7476 29.0025 64.8316C29.1929 64.9156 29.3665 64.8428 29.5233 64.7252C29.6577 64.6188 29.7697 64.49 29.9097 64.3948C30.0665 64.294 30.2345 64.2268 30.4249 64.3612C30.7721 64.6076 30.8617 64.6076 31.0857 64.2772C31.3993 63.8236 31.8473 63.5604 32.3289 63.342C32.8273 63.118 33.0625 63.2076 33.2697 63.7172C33.3201 63.8404 33.3201 63.986 33.3593 64.1204C33.3873 64.2156 33.4153 64.3332 33.4825 64.4004C33.7681 64.686 34.3225 64.5012 34.4177 64.098C34.4401 63.9916 34.4289 63.8796 34.4569 63.7788C34.4905 63.6388 34.6193 63.5996 34.6865 63.7228C34.7873 63.9076 34.8433 64.1148 34.9161 64.3164C34.9609 64.4284 34.9721 64.5908 35.0561 64.6356C35.3361 64.798 35.6329 64.9548 35.9689 64.7644C36.1033 64.686 36.2321 64.602 36.3609 64.518C36.5905 64.378 36.6913 64.4004 36.7753 64.658C36.8257 64.8092 36.8761 64.9156 37.0273 65.0108C37.4249 65.2684 37.7945 65.1676 38.1697 64.9828C38.4497 64.8446 38.6849 64.8932 38.8753 65.1284C39.1889 65.5204 39.4745 65.5652 39.7881 65.1732C40.0849 64.798 40.4489 64.6356 40.8969 64.5964C40.9305 64.5964 40.9585 64.5964 40.9865 64.5852C41.3169 64.5012 41.4065 64.266 41.1993 64.0028C41.1041 63.8852 40.9865 63.7788 40.8689 63.6724C39.4913 62.4068 38.1193 61.13 36.7305 59.8756C36.3609 59.5396 36.1873 59.1756 36.1929 58.666C36.2097 55.0428 36.2041 51.4196 36.2041 47.7964C36.2041 47.6396 36.2097 47.4828 36.1873 47.3316C36.1761 47.2756 36.0977 47.1972 36.0473 47.1916C35.9969 47.1916 35.9185 47.2644 35.8961 47.3204C35.8681 47.4044 35.8793 47.5052 35.8793 47.5948C35.8513 51.2796 35.8233 54.9588 35.7841 58.6436C35.7841 59.1588 35.9353 59.5676 36.3161 59.9204C37.4361 60.962 38.5449 62.0204 39.6593 63.0732C39.9617 63.3588 40.2697 63.65 40.5553 63.9468C40.7457 64.1484 40.7121 64.238 40.4657 64.3556C40.1745 64.4956 39.8889 64.6468 39.6089 64.8036C39.3289 64.966 39.1161 64.8708 39.1049 64.5404C39.0993 64.3892 39.1441 64.2324 39.1609 64.0812C39.1721 63.93 39.1441 63.79 38.9425 63.8124C38.7577 63.8348 38.7577 63.706 38.7297 63.5828C38.6961 63.4428 38.6513 63.3028 38.6065 63.1684C38.3825 63.2468 38.4889 63.4484 38.4553 63.594C38.4441 63.6388 38.4497 63.6892 38.4553 63.734C38.4945 64.2156 38.2089 64.4732 37.8057 64.6412C37.5313 64.7588 37.3073 64.7196 37.1673 64.546C37.0161 64.3556 37.0329 64.2044 37.2737 63.9412C37.5313 63.6612 37.6321 63.3364 37.6153 62.9612C37.5929 62.5524 37.4025 62.3284 36.9937 62.2892C36.7193 62.2668 36.4393 62.2892 36.1649 62.3172C35.7953 62.362 35.7393 62.3619 35.5881 62.0316C35.4929 61.8244 35.4481 61.5892 35.3529 61.3764C35.3193 61.298 35.2073 61.2028 35.1345 61.2028C34.9889 61.2028 34.9889 61.3316 35.0169 61.4436C35.0393 61.5332 35.0505 61.6284 35.0785 61.718C35.1961 62.1268 35.3865 62.4852 35.6833 62.7988C35.9521 63.0844 36.1537 63.4148 36.1481 63.8292C36.1481 64.1204 36.0137 64.3164 35.8065 64.378C35.5993 64.4396 35.3473 64.35 35.2353 64.0868C34.9553 63.4428 34.3113 62.9836 34.2945 62.2108C34.2945 62.194 34.2889 62.1772 34.2777 62.166C34.2273 62.1212 34.1713 62.0764 34.1153 62.0372C34.0873 62.1044 34.0313 62.1716 34.0369 62.2332C34.0705 62.4908 34.1377 62.7484 34.1601 63.0116C34.1769 63.1908 34.1825 63.3868 34.1265 63.5604C34.0929 63.6668 33.9473 63.7564 33.8297 63.8012C33.7905 63.818 33.6729 63.6892 33.6169 63.6108C33.4601 63.398 33.3481 63.1516 33.1689 62.9724C32.9449 62.7484 32.7489 62.558 32.9337 62.222C32.9505 62.1884 32.8945 62.1212 32.8777 62.0708C32.8273 62.0988 32.7545 62.1156 32.7321 62.1604C32.6593 62.3116 32.5697 62.4684 32.5529 62.6308C32.5249 62.866 32.4017 62.978 32.1945 63.062C31.7913 63.2244 31.4049 63.4148 31.1305 63.7788C31.0185 63.9244 30.8617 63.9692 30.6713 63.9076C30.3241 63.7956 29.9993 63.874 29.6913 64.0588C29.6241 64.098 29.5569 64.1315 29.4841 64.1651C29.3497 64.2323 29.2153 64.2604 29.1201 64.1036C29.0249 63.9524 29.0977 63.8012 29.2209 63.7452C29.4225 63.65 29.6521 63.566 29.8705 63.5604C30.4249 63.5436 30.8897 63.3252 31.3153 63.0004C31.3881 62.9444 31.4609 62.8772 31.5057 62.7988C31.5281 62.7596 31.5169 62.67 31.4833 62.6364C31.4497 62.6028 31.3657 62.5916 31.3209 62.6084C31.2537 62.6364 31.1921 62.6924 31.1361 62.7428C30.6713 63.1236 30.1225 63.2523 29.5401 63.2916C29.4449 63.2972 29.3441 63.2636 29.2433 63.2468C29.2601 63.1796 29.2601 63.1404 29.2769 63.1236C29.8257 62.6028 30.4809 62.2668 31.1977 62.0372C31.3769 61.9812 31.5169 62.0204 31.6681 62.1324C31.8473 62.2668 31.9537 62.2164 31.9985 62.0148C32.1497 61.3372 32.2841 60.654 32.4353 59.9764C32.5137 59.6236 32.4521 59.2932 32.2673 58.9964C32.1049 58.7388 31.9985 58.4812 32.0601 58.1676C32.0713 58.1004 31.9873 57.9548 31.9201 57.938C31.7689 57.8932 31.7017 58.0164 31.6905 58.1508C31.6625 58.4812 31.6625 58.8004 31.8865 59.0804C32.1441 59.4108 32.1833 59.7748 32.0993 60.178C32.0209 60.5588 31.8137 60.9004 31.7577 61.2924C31.7241 61.5276 31.5113 61.6396 31.2929 61.7012C30.4249 61.942 29.6745 62.39 29.0081 62.9836C28.7281 63.23 28.4481 63.4708 28.1513 63.6948C27.9273 63.8628 27.6585 63.9636 27.3673 63.9244C27.1433 63.8908 27.0705 63.7228 27.2105 63.566C27.3337 63.426 27.4737 63.3027 27.6137 63.1852C27.8601 62.978 28.1233 62.782 28.3697 62.5692C28.4145 62.53 28.4145 62.4348 28.4313 62.3676C28.3473 62.3564 28.2577 62.306 28.1905 62.334C28.0953 62.3676 28.0113 62.4516 27.9273 62.5188C27.6753 62.726 27.4289 62.9332 27.1825 63.146C26.8353 63.4428 26.4153 63.538 25.9729 63.538C25.9113 63.538 25.8161 63.4764 25.7993 63.4204C25.7825 63.37 25.8329 63.2748 25.8777 63.23C25.9449 63.1684 26.0345 63.1292 26.1129 63.0844C26.5945 62.8324 27.0761 62.586 27.5521 62.3284C27.7257 62.2332 27.9105 62.1324 28.0449 61.9868C28.6273 61.3596 29.3553 60.962 30.1281 60.6204C30.9009 60.2788 31.0129 60.4524 30.9905 59.2932C30.9905 59.0636 31.0297 58.834 31.0633 58.61C31.0913 58.414 31.1865 58.2236 31.1865 58.0332C31.1865 54.4268 31.1809 50.8204 31.1865 47.214C31.1865 46.7828 31.0185 46.514 30.6545 46.3236C29.6409 45.7916 28.6105 45.2932 27.5297 44.9124C27.0817 44.7556 26.8409 44.3972 26.9137 43.9156C26.9809 43.4732 27.0481 43.0196 27.1993 42.6052C27.3505 42.1908 27.3729 41.838 27.1153 41.4684C26.9753 41.2612 26.9641 41.0316 27.0593 40.802C27.0929 40.7236 27.1657 40.6284 27.2329 40.6172C27.3001 40.6116 27.4065 40.6788 27.4513 40.746C27.5745 40.942 27.6585 41.1604 27.7761 41.362C27.9665 41.6756 28.0169 41.9892 27.8433 42.3308C27.7817 42.454 27.7481 42.594 27.7201 42.7284C27.5185 43.686 28.1849 44.722 29.1313 44.9012C29.4001 44.9516 29.6857 44.9348 29.9657 44.9404C30.2569 44.9404 30.5537 44.9068 30.7945 45.142C30.9065 45.254 31.0241 45.198 31.1025 45.0748C31.1417 45.0132 31.1641 44.9348 31.2033 44.8676C31.2929 44.722 31.2705 44.47 31.5281 44.4812C31.7185 44.4868 31.7745 44.61 31.7745 45.002C31.7745 45.7356 31.9873 46.402 32.4073 47.0068C32.6201 47.3148 32.8441 47.3596 33.1577 47.1692C33.2361 47.1188 33.3033 47.0572 33.3761 46.9956C35.0281 45.5956 36.9321 44.6436 38.9257 43.8484C39.1161 43.77 39.2673 43.8036 39.4465 43.9044C39.7545 44.078 40.0849 44.2124 40.4097 44.3636C40.4825 44.3972 40.5497 44.4476 40.6841 44.5316C40.4937 44.5932 40.3817 44.6324 40.2697 44.6604C39.6817 44.8004 39.0937 44.9348 38.5113 45.0804C38.0577 45.1924 37.6881 45.4444 37.4641 45.8644C37.2233 46.318 36.9937 46.7716 36.7753 47.2308C36.5681 47.6676 36.5905 48.0988 36.8817 48.502C37.2009 48.9388 37.5033 49.3868 37.8337 49.8236C38.0857 50.1596 38.4105 50.1764 38.6905 49.8516C39.0657 49.4204 39.4577 48.9892 39.4801 48.3676C39.4801 48.3228 39.5025 48.278 39.5081 48.2332C39.5417 48.0876 39.6145 48.0092 39.7713 48.0876C39.8273 48.1156 39.8833 48.1436 39.9393 48.1716C40.8073 48.6644 41.6361 48.5468 42.4201 47.9924C42.6889 47.802 42.9297 47.7572 43.2377 47.8692C43.8201 48.082 44.4137 48.2612 44.9961 48.4684C45.5673 48.67 45.8473 48.4796 45.8529 47.8636C45.8529 47.5668 45.8585 47.2756 45.8529 46.9788C45.8417 46.7044 45.9033 46.458 46.0657 46.2396C46.1497 46.1276 46.2225 46.01 46.2841 45.8812C46.5977 45.2484 46.5921 44.6324 46.1497 44.05C46.0993 43.9828 46.0601 43.8988 45.9873 43.7868C46.1497 43.7644 46.2729 43.7588 46.3849 43.7308C46.5193 43.7028 46.6649 43.6804 46.7769 43.6076C47.8409 42.958 47.8353 41.418 46.7769 40.7908L46.8049 40.83ZM36.5513 62.6308C36.5905 62.6308 36.6241 62.6308 36.6129 62.6308C36.9265 62.6196 37.1337 62.6644 37.2513 62.8772C37.3801 63.1068 37.3073 63.3252 37.1785 63.5324C37.1617 63.5604 37.1449 63.5827 37.1225 63.6052C37.0049 63.7452 36.9097 63.9468 36.6913 63.9076C36.4449 63.8684 36.5009 63.622 36.4393 63.4596C36.3889 63.314 36.3553 63.1628 36.3049 63.0172C36.2097 62.7316 36.2545 62.6587 36.5457 62.6251L36.5513 62.6308ZM46.5417 39.654C46.4297 39.8724 46.3177 40.0964 46.1609 40.2868C46.0601 40.41 45.9033 40.5164 45.7465 40.5556C45.2593 40.6956 44.7609 40.8076 44.2625 40.9196C44.0273 40.97 43.7865 40.9588 43.6297 40.746C43.3217 40.3316 42.8849 40.2308 42.4089 40.2084C42.3473 40.2084 42.2913 40.1916 42.2297 40.1804C42.2185 40.1804 42.2129 40.158 42.1681 40.1076C42.2521 40.0012 42.3305 39.8724 42.4369 39.7716C43.1593 39.0716 43.9881 38.6572 45.0241 38.842C45.4609 38.9204 45.9033 38.9932 46.3289 39.1164C46.6369 39.2116 46.6817 39.3684 46.5361 39.6484L46.5417 39.654ZM43.7417 42.2356C43.6353 42.4204 43.4561 42.566 43.3777 42.762C43.2097 43.1596 42.9689 43.3836 42.5769 43.2548C42.0057 43.2996 41.5913 43.154 41.3729 42.6556C41.1377 42.1124 41.1937 41.5804 41.5633 41.1268C41.9105 40.7012 42.4033 40.6284 42.9185 40.7348C43.2153 40.7964 43.4001 41.0092 43.4617 41.306C43.5121 41.5468 43.5401 41.7876 43.7585 41.9612C43.8033 41.9948 43.7865 42.1628 43.7417 42.2356ZM44.6265 42.1348C45.0633 42.0228 45.3153 42.286 45.2201 42.7284C45.0969 43.2884 44.9849 43.3612 44.2961 43.3668C44.2009 43.3668 44.1113 43.3668 44.0161 43.3668C43.6185 43.35 43.5401 43.2268 43.7193 42.8852C43.9153 42.51 44.2121 42.2468 44.6265 42.1404V42.1348ZM44.5313 37.7388C44.7105 37.1956 45.4721 36.77 46.0377 36.9044C46.4521 36.9996 46.6481 37.498 46.3793 37.8676C46.2449 38.0524 46.0153 38.2092 45.8025 38.2932C45.5673 38.3884 45.2873 38.394 45.1417 38.4164C44.5425 38.4164 44.3857 38.198 44.5369 37.7388H44.5313ZM42.4145 37.2684C42.4593 37.1508 42.4873 37.0332 42.5209 36.91C42.5657 36.742 42.6777 36.6468 42.8513 36.63C43.2489 36.5964 43.6521 36.5516 44.0553 36.5348C44.3633 36.5236 44.5089 36.6748 44.4249 36.9604C44.2905 37.4196 44.1113 37.8676 43.9209 38.3044C43.8649 38.4276 43.7081 38.534 43.5737 38.5956C42.6721 39.0212 41.9833 39.6428 41.5465 40.5556C41.4177 40.8244 41.1825 41.0596 40.9529 41.2556C40.8185 41.3676 40.5833 41.3732 40.3985 41.4236C39.9841 41.3732 39.8497 41.306 39.7881 41.0708C39.6761 40.6732 39.7769 40.3988 40.0849 40.1972C40.6505 39.8332 40.9697 39.3292 40.8465 38.6348C40.8017 38.3884 40.8745 38.282 41.1041 38.254C41.1657 38.2484 41.2273 38.226 41.2889 38.2204C41.8937 38.17 42.2241 37.7892 42.4257 37.2628L42.4145 37.2684ZM38.8977 39.234C39.2113 38.8588 39.6089 38.59 40.0905 38.4892C40.3985 38.422 40.5329 38.5508 40.5385 38.926C40.5273 39.2956 40.2865 39.6204 39.9393 39.8388C39.6145 40.046 39.2785 39.8668 38.9817 39.6932C38.7689 39.5644 38.7353 39.4188 38.8921 39.234H38.8977ZM38.6681 38.73C38.6233 38.7132 38.6065 38.6068 38.6065 38.534C38.6009 38.2652 38.6065 37.9908 38.6065 37.6772C38.9873 37.8228 39.3233 37.9516 39.6929 38.086C39.6705 38.1196 39.6593 38.1812 39.6201 38.2092C39.3737 38.366 39.1273 38.5228 38.8809 38.6684C38.8193 38.702 38.7297 38.7468 38.6793 38.7244L38.6681 38.73ZM41.7369 37.6212C41.3281 37.8228 40.8913 37.9124 40.4377 37.8228C40.0905 37.7556 39.7433 37.6716 39.4073 37.5652C38.9537 37.4252 38.9145 37.3524 38.9201 36.826C38.8921 36.434 39.0825 36.0868 39.3345 35.7676C39.5193 35.5324 39.6481 35.5156 39.9393 35.5996C40.3481 35.7172 40.7625 35.818 41.1769 35.93C41.5353 36.0308 41.7705 36.3108 42.0057 36.5684C42.2913 36.8764 42.1401 37.4252 41.7369 37.6212ZM43.8761 33.1748C44.2401 33.074 44.3577 33.1972 44.3073 33.578C44.2177 34.2668 43.8537 34.7764 43.2937 35.1628C42.8177 35.4876 42.2801 35.594 41.6529 35.6276C41.5745 35.6164 41.4401 35.594 41.3057 35.566C41.0817 35.5212 40.9753 35.3812 40.9249 35.1572C40.8745 34.922 40.9249 34.7372 41.1209 34.586C41.4345 34.3396 41.7425 34.082 42.0617 33.8412C42.1961 33.7404 42.3473 33.6564 42.5097 33.6004C42.9633 33.4492 43.4169 33.3036 43.8761 33.1748ZM41.5521 32.1276C41.8097 32.178 42.0729 32.206 42.3249 32.2732C42.6217 32.3572 42.6721 32.5028 42.4929 32.7492C42.2633 33.0628 42.0393 33.382 41.7649 33.6508C41.3897 34.0148 40.9977 34.3396 40.4153 34.3844C39.9169 34.4236 39.4241 34.5748 38.9257 34.6812C38.9257 34.6588 38.9145 34.642 38.9145 34.6196C38.7745 34.6308 38.6345 34.6644 38.5001 34.642C38.3937 34.6252 38.2593 34.558 38.2089 34.474C38.1249 34.334 38.2257 34.2108 38.3489 34.1268C38.4217 34.0764 38.5113 34.0428 38.5953 34.0036C39.2673 33.6956 39.8553 33.2756 40.2697 32.654C40.5889 32.178 41.0145 32.0436 41.5521 32.1388V32.1276ZM34.6249 31.0692C34.6305 30.862 34.7425 30.7556 34.9273 30.7164C35.5321 30.6044 36.1369 30.4868 36.7473 30.3972C37.0497 30.3524 37.1393 30.4868 37.0497 30.7836C36.7361 31.8252 36.0529 32.4972 35.0057 32.794C34.7089 32.878 34.6137 32.7996 34.5801 32.4916C34.5801 32.4636 34.5801 32.43 34.5801 32.402C34.5801 32.262 34.5801 32.122 34.5801 31.9876C34.5801 31.9876 34.5745 31.9876 34.5689 31.9876C34.5913 31.6796 34.6193 31.3716 34.6305 31.0692H34.6249ZM34.7985 33.326C35.0337 33.1972 35.1793 33.27 35.1457 33.522C35.0673 34.1044 34.8489 34.6196 34.3841 34.9948C34.2889 35.0732 34.1097 35.146 34.0257 35.1012C33.9417 35.0564 33.9249 34.8772 33.8969 34.81C33.9697 34.1212 34.2385 33.6284 34.7985 33.326ZM32.8721 33.158C32.9113 33.1468 32.9449 32.9956 32.9281 32.9228C32.8889 32.71 32.8161 32.5084 32.7657 32.2956C32.6145 31.6292 32.7657 31.0076 33.0849 30.4196C33.1353 30.3244 33.2025 30.2348 33.2753 30.1564C33.4937 29.9212 33.6953 29.9268 33.8969 30.1732C34.1601 30.498 34.2889 30.8788 34.3001 31.2876C34.3225 31.8756 34.3337 32.4636 34.3169 33.0516C34.3169 33.186 34.2105 33.3316 34.1209 33.4436C33.6841 33.9868 33.4881 34.6084 33.4825 35.2916C33.4825 35.678 33.6113 35.7564 33.9753 35.6164C34.8153 35.2916 35.3417 34.698 35.3921 33.7852C35.4201 33.2532 35.5825 32.878 36.0865 32.6596C36.2377 32.5924 36.3553 32.4468 36.5009 32.3684C36.7753 32.2172 37.0777 32.3684 37.0553 32.682C36.9881 33.6956 36.7193 34.6364 35.9017 35.3252C35.7841 35.426 35.6441 35.4988 35.5377 35.6108C35.4873 35.6612 35.4481 35.7844 35.4761 35.846C35.5433 35.9804 35.6497 35.93 35.7449 35.8516C36.4785 35.2468 37.0721 34.5468 37.2401 33.578C37.2961 33.242 37.3241 32.906 37.3297 32.5644C37.3297 32.3012 37.4193 32.1276 37.6489 31.9988C38.4833 31.5284 39.3177 31.0524 40.1521 30.5764C40.2193 30.5372 40.2921 30.5036 40.3649 30.4868C40.5161 30.4476 40.6057 30.526 40.6169 30.6716C40.6225 30.7332 40.6169 30.7948 40.6001 30.8564C40.3481 32.1948 39.6593 33.1916 38.3657 33.718C37.9009 33.9084 37.7609 34.1212 37.7665 34.586C37.7665 34.8044 37.8561 34.9444 38.0857 34.9612C38.4105 34.9836 38.7353 35.006 39.0545 35.0284C39.1553 35.034 39.2561 35.0396 39.4185 35.0508C39.3009 35.1908 39.2281 35.2804 39.1497 35.37C38.8249 35.7396 38.6177 36.1652 38.5729 36.658C38.5673 36.7476 38.5617 36.8484 38.5281 36.9324C38.4833 37.05 38.3937 37.0556 38.3153 36.9604C38.2593 36.8876 38.2201 36.8036 38.1641 36.7252C37.9569 36.4284 37.7105 36.1764 37.3633 36.0476C36.9041 35.874 36.4785 35.9188 36.1201 36.2716C35.7113 36.6692 35.3025 37.0724 34.9049 37.4868C34.5633 37.8452 34.4961 37.8396 34.2441 37.4028C34.0817 37.1228 33.9305 36.8372 33.7681 36.5516C33.7121 36.4564 33.6617 36.3612 33.5945 36.2772C33.3929 36.042 33.1857 36.0308 32.9617 36.2492C32.6873 36.518 32.4297 36.8092 32.1553 37.0836C31.9537 37.2908 31.9313 37.2852 31.7969 37.0388C31.6233 36.7308 31.4273 36.4452 31.3433 36.0812C31.2873 35.8348 31.1081 35.6164 30.9625 35.398C30.8393 35.2076 30.7889 35.0116 30.9289 34.838C31.2481 34.4628 31.5841 34.1044 31.9313 33.7516C32.0265 33.6564 32.1441 33.6956 32.1665 33.8412C32.2057 34.0652 32.2953 34.3004 31.9929 34.4404C31.9481 34.4628 31.9313 34.6084 31.9537 34.6812C31.9649 34.7204 32.1049 34.7764 32.1497 34.754C32.2785 34.6868 32.4465 34.6028 32.4857 34.4852C32.5641 34.2388 32.5809 33.9756 32.6033 33.7124C32.6201 33.4884 32.5585 33.2364 32.8777 33.1524L32.8721 33.158ZM38.3097 38.226C38.3041 39.0884 38.0409 39.3012 37.2513 39.2004C36.7529 39.1332 36.2825 38.9988 35.8793 38.6908C35.7449 38.59 35.6161 38.478 35.5041 38.3492C35.1457 37.9404 35.1401 37.7668 35.4985 37.3468C35.7169 37.0892 35.9577 36.8428 36.2041 36.6132C36.6465 36.2156 37.1953 36.2268 37.6209 36.6356C38.0857 37.0836 38.3713 37.6156 38.3097 38.226ZM30.2401 39.2956C30.7273 39.0548 31.0297 38.6628 31.1641 38.142C31.1921 38.0412 31.1921 37.9292 31.2033 37.8676C31.1137 37.162 30.8617 36.5908 30.2233 36.2996C29.9041 36.154 29.7697 35.9636 29.8257 35.622C29.8481 35.4876 29.8257 35.342 29.8481 35.2076C29.8873 35.006 30.0161 34.9556 30.1785 35.09C30.5929 35.4372 30.8841 35.874 31.0297 36.3892C31.1081 36.658 31.1921 36.9044 31.3713 37.134C31.6513 37.498 31.6625 37.9348 31.4385 38.3156C31.2089 38.7076 30.8897 39.0548 30.6041 39.4076C30.5481 39.4748 30.4585 39.542 30.3745 39.5532C30.2681 39.57 30.1561 39.5252 30.0441 39.5084C30.1057 39.4356 30.1561 39.3348 30.2289 39.2956H30.2401ZM29.2489 39.1724C28.7001 39.1724 28.2577 38.8812 28.0505 38.3884C27.8433 37.8956 28.0225 37.4868 28.3473 37.1172C28.6105 36.8204 28.9577 36.6468 29.3385 36.5628C29.8369 36.4508 30.3745 36.6916 30.6489 37.134C30.9289 37.5876 30.9177 38.0916 30.6041 38.5172C30.2905 38.9484 29.8313 39.1668 29.2433 39.1668L29.2489 39.1724ZM31.5169 38.9316C31.7297 38.646 31.8529 38.6292 32.0601 38.898C32.3009 39.2172 32.4913 39.57 32.6873 39.9172C32.7825 40.0852 32.7153 40.242 32.5865 40.3764C32.4241 40.5388 32.2841 40.7292 32.1105 40.8804C31.9985 40.9756 31.8529 41.0764 31.7129 41.0876C31.0409 41.1492 30.3633 41.1828 29.6913 41.2276C29.6801 41.2556 29.6745 41.2892 29.6633 41.3172C29.5737 41.2444 29.4393 41.1884 29.4057 41.0932C29.3721 40.998 29.4113 40.8524 29.4673 40.7628C29.5177 40.6788 29.6297 40.6228 29.7193 40.5668C30.4193 40.13 31.0241 39.5924 31.5169 38.926V38.9316ZM32.1273 38.4388C32.0601 38.338 32.0097 38.1644 32.0489 38.0636C32.2505 37.5148 32.6089 37.0724 33.0625 36.7084C33.1185 36.6636 33.2977 36.6636 33.3369 36.7084C33.7793 37.2516 34.0705 37.8844 34.2889 38.5452C34.2889 38.562 34.2889 38.5732 34.2945 38.6684C34.2441 38.7244 34.1713 38.8644 34.0649 38.9036C33.7345 39.01 33.4545 39.178 33.2081 39.43C33.0401 39.598 32.9057 39.5532 32.7601 39.3404C32.5473 39.038 32.3233 38.7468 32.1273 38.4332V38.4388ZM33.3705 39.9004C33.5049 39.5476 33.8073 39.3516 34.1881 39.3068C34.2497 39.3012 34.3113 39.3068 34.3001 39.3068C34.6641 39.29 34.9273 39.402 35.1345 39.5868C35.7169 40.0964 35.8961 40.7684 35.8233 41.5076C35.7897 41.8492 35.6385 41.9276 35.3585 41.754C34.8321 41.4348 34.3225 41.082 33.8129 40.7404C33.7737 40.7124 33.7401 40.6788 33.7121 40.6452C33.5105 40.4324 33.2417 40.2252 33.3705 39.8948V39.9004ZM31.6681 30.1172C31.7465 30.1172 31.8249 30.1116 31.8977 30.1172C32.4241 30.1732 32.5809 30.3804 32.4577 30.8844C32.3121 31.4668 32.3177 32.0492 32.3905 32.6372C32.4297 32.934 32.3681 33.0124 32.0993 33.0292C31.3489 33.0796 30.5257 32.486 30.4305 31.758C30.3073 30.806 30.8673 30.0724 31.6681 30.1172ZM29.9489 31.0916C29.9993 31.0972 30.0721 31.1812 30.0833 31.2428C30.1113 31.3604 30.1001 31.4892 30.1057 31.6124C30.1393 32.4412 30.5033 32.9396 31.2649 33.2252C31.3657 33.2644 31.4721 33.298 31.5673 33.3428C31.6737 33.3932 31.6961 33.4828 31.6233 33.5668C31.2761 33.9812 30.9289 34.3956 30.5817 34.8044C30.5537 34.8324 30.5033 34.8436 30.4697 34.8548C30.4305 34.838 30.3913 34.8324 30.3801 34.81C30.1785 34.53 29.8817 34.3172 29.9041 33.8972C29.9489 33.1356 29.8593 32.3852 29.5009 31.6852C29.3833 31.4556 29.6913 31.058 29.9489 31.086V31.0916ZM28.1849 35.3924C28.4369 35.4708 28.5657 35.3644 28.5993 35.1068C28.6161 34.9556 28.6161 34.7988 28.6105 34.642C28.5937 34.3396 28.3921 34.194 28.1289 34.1716C27.8657 34.1492 27.8433 34.0204 27.8601 33.802C27.9105 33.1804 27.9273 32.5644 27.6473 31.982C27.5689 31.8252 27.6137 31.6796 27.7201 31.5508C27.7313 31.5396 27.7425 31.5284 27.7481 31.5172C28.2353 30.9124 28.5601 30.9292 29.0081 31.5564C29.3945 32.094 29.5177 32.71 29.5625 33.3484C29.5849 33.6396 29.5625 33.9364 29.5625 34.2276H29.5681C29.5681 34.5188 29.5737 34.8156 29.5681 35.1068C29.5625 35.258 29.5401 35.4148 29.4897 35.5604C29.3329 36.0028 29.0361 36.1316 28.6161 35.9132C28.2913 35.7452 27.9609 35.6612 27.6025 35.622C27.4457 35.6052 27.2721 35.5212 27.1601 35.4148C26.9529 35.2188 26.7681 35.0228 26.4769 34.9668C26.4153 34.9556 26.3705 34.8716 26.3201 34.8212C26.3873 34.7708 26.4545 34.6868 26.5273 34.6812C26.9249 34.6644 27.2777 34.7932 27.5969 35.0452C27.7761 35.1852 27.9777 35.314 28.1905 35.3812L28.1849 35.3924ZM26.3649 38.4332C26.4825 38.5844 26.3985 38.7636 26.2529 38.8812C26.0905 39.01 25.9113 39.0268 25.7377 38.9036C25.5865 38.7972 25.4801 38.6348 25.5865 38.4668C25.7713 38.1868 25.5865 38.1028 25.4017 37.974C24.8641 37.6044 24.4497 37.1396 24.3097 36.4788C24.2817 36.3612 24.2705 36.2324 24.2761 36.1148C24.2929 35.93 24.3825 35.7956 24.5897 35.7732C24.9929 35.7228 25.3737 35.6052 25.7265 35.398C26.1521 35.146 26.8745 35.6388 27.0257 36.0812C27.0761 36.2268 27.0929 36.3836 27.1097 36.462C27.0649 37.0836 26.8577 37.554 26.4657 37.9348C26.3089 38.086 26.1857 38.2036 26.3649 38.4332ZM26.1297 43.8876C25.6033 44.0052 25.0769 44.1228 24.5505 44.2348C24.5057 44.246 24.4609 44.2516 24.4273 44.2572C24.1977 44.2628 23.9513 44.0948 23.8729 43.8932C23.8001 43.7028 23.8785 43.5684 24.0353 43.4564C24.0465 43.4452 24.0633 43.4396 24.0689 43.4284C24.2817 43.0532 24.6009 42.8236 25.0209 42.6892C25.2449 42.622 25.4017 42.4372 25.4801 42.1964C25.5417 42.006 25.6537 41.9332 25.8665 41.9724C26.0905 42.0116 26.3257 41.9948 26.5553 42.0116C26.8801 42.034 26.9529 42.1068 26.8857 42.4092C26.8129 42.7396 26.7233 43.07 26.6337 43.3948C26.5609 43.6524 26.3985 43.826 26.1297 43.8876ZM26.4433 44.3132C26.3649 44.4364 26.3425 44.526 26.2865 44.5652C25.9449 44.7724 25.6033 44.9852 25.2449 45.1532C25.0097 45.2652 24.6625 45.0524 24.5953 44.8004C24.5841 44.75 24.5953 44.666 24.6345 44.638C24.7129 44.5708 24.8081 44.4924 24.9033 44.47C25.3233 44.3748 25.7489 44.2964 26.1745 44.2236C26.2473 44.2124 26.3369 44.274 26.4433 44.3132ZM23.0385 43.4284C22.4729 43.3668 21.9073 43.1708 21.3809 42.8684C21.2073 42.7676 21.0281 42.6724 20.8713 42.5548C20.6865 42.4204 20.7033 42.3028 20.8657 42.1404C21.0169 41.9948 21.1233 41.782 21.2969 41.6812C21.5657 41.5244 21.8681 41.418 22.1705 41.3508C22.2489 41.334 22.4169 41.5188 22.4841 41.6476C22.6857 42.034 22.9993 42.2916 23.3689 42.5044C23.5705 42.622 23.8617 42.6892 23.7889 43.0252C23.7329 43.2772 23.4417 43.4396 23.0441 43.434L23.0385 43.4284ZM23.3129 44.2628C23.1785 44.638 22.8705 44.6996 22.5625 44.7948C21.7225 44.5484 20.8769 44.33 20.3001 43.6076C20.1545 43.4228 20.2217 42.9412 20.4289 42.8236C20.5073 42.7788 20.6697 42.8068 20.7649 42.8516C21.0393 42.9916 21.2913 43.1708 21.5657 43.3164C22.0305 43.5628 22.5177 43.7476 23.0553 43.7812C23.4193 43.8036 23.4417 43.91 23.3129 44.2628ZM22.8985 41.6364C22.8257 41.5412 22.7697 41.4236 22.7249 41.3116C22.4785 40.6732 22.7921 40.1524 23.4697 40.0684C23.5929 40.0516 23.7161 40.0572 23.7553 40.0516C24.9257 40.0516 25.5697 40.886 25.2225 41.8548C25.0657 42.3028 24.6625 42.5548 24.2033 42.4596C23.6713 42.3476 23.2289 42.0732 22.8985 41.6364ZM26.5777 41.53C26.2361 41.8044 25.7937 41.6252 25.7153 41.1884C25.6369 40.7516 25.5025 40.3484 25.1217 40.074C24.9705 39.9676 24.8193 39.8668 24.6681 39.7604C24.6681 39.7268 24.6793 39.6932 24.6849 39.654C24.9649 39.6036 25.2505 39.5252 25.5305 39.514C25.6313 39.514 25.8105 39.6372 25.8329 39.738C25.9505 40.2364 26.2641 40.6228 26.5273 41.0428C26.5777 41.1212 26.6393 41.2052 26.6505 41.2892C26.6617 41.3676 26.6337 41.4852 26.5777 41.53ZM26.0121 31.6292C26.2753 31.2148 26.4097 31.198 26.7569 31.534C27.1993 31.9652 27.5241 32.4636 27.5577 33.102C27.5689 33.3428 27.5577 33.5948 27.5073 33.83C27.4121 34.2444 27.2329 34.3396 26.8017 34.2892C26.6953 34.278 26.5889 34.2612 26.4825 34.2612C25.7097 34.2332 25.5361 34.054 25.5417 33.2644C25.5249 32.6932 25.6929 32.1444 26.0177 31.6348L26.0121 31.6292ZM23.0161 34.1884C22.9097 33.8692 22.8537 33.5332 22.8033 33.3204C22.8033 32.9284 22.9321 32.8108 23.1841 32.9172C23.5369 33.0684 23.8841 33.2476 24.1921 33.4716C24.4497 33.6564 24.6681 33.9084 24.8809 34.1548C24.9985 34.2892 25.0993 34.4628 25.1553 34.6364C25.3289 35.1684 25.1161 35.4092 24.5729 35.314C24.4665 35.2972 24.3601 35.286 24.2537 35.258C23.6489 35.1236 23.2121 34.782 23.0161 34.194V34.1884ZM23.2345 35.9972C23.8673 35.6892 24.0073 35.7676 23.9905 36.434C23.9737 37.1172 24.2537 37.6884 24.8305 38.0412C25.2561 38.2988 25.2057 38.674 25.2225 39.0436C25.2225 39.1108 25.0657 39.234 24.9705 39.2452C24.6793 39.2732 24.3825 39.2844 24.0969 39.2452C23.9513 39.2228 23.7665 39.1052 23.7049 38.9764C23.5033 38.5564 23.2401 38.2204 22.7921 38.0468C22.6129 37.9796 22.5569 37.8228 22.5625 37.6324C22.5681 37.4644 22.5625 37.2908 22.5625 37.022C22.3721 36.5012 22.7305 36.2436 23.2345 36.0028V35.9972ZM20.3449 37.3244C20.2721 37.1284 20.3561 36.994 20.5465 36.9268C20.9105 36.7924 21.2689 36.658 21.6385 36.5348C21.9857 36.4172 22.1257 36.5012 22.1985 36.854C22.2265 36.9716 22.2265 37.1004 22.2489 37.3132C22.1873 37.5764 22.1313 37.9292 22.0137 38.2596C21.8905 38.6236 21.4425 38.7524 21.1401 38.506C20.7649 38.198 20.5129 37.7892 20.3449 37.33V37.3244ZM20.4849 39.374C20.5689 39.3404 20.6697 39.3348 20.7537 39.3068C21.1737 39.1556 21.5993 39.01 22.0193 38.8532C22.1705 38.7972 22.2657 38.702 22.3105 38.5284C22.4001 38.2092 22.4785 38.1924 22.7585 38.3716C23.1169 38.6068 23.3521 38.9484 23.5369 39.3348C23.6041 39.4804 23.6153 39.6148 23.4193 39.654C22.8537 39.7716 22.4729 40.1188 22.1425 40.5836C22.0249 40.746 21.7617 40.8132 21.5433 40.9308C21.4313 40.8412 21.3249 40.7908 21.2857 40.7124C21.1121 40.3652 20.8489 40.1188 20.5297 39.9172C20.4793 39.8836 20.4289 39.8444 20.3897 39.7996C20.2217 39.6092 20.2553 39.4636 20.4793 39.374H20.4849ZM18.8161 41.2612C18.5305 41.11 18.5249 40.9588 18.7993 40.802C19.2137 40.5668 19.6393 40.3372 20.2217 40.3316C20.5297 40.3204 20.7817 40.5164 20.9441 40.8468C21.1009 41.166 21.0729 41.4796 20.8657 41.7652C20.6977 42.006 20.4793 42.0732 20.2217 41.9556C19.7457 41.7372 19.2753 41.502 18.8105 41.2612H18.8161ZM22.5177 47.5892C22.2265 47.746 22.1089 47.69 22.0081 47.3764C21.9857 47.3036 21.9633 47.2308 21.9577 47.1524C21.9353 46.7604 21.9353 46.7604 21.5545 46.9228C21.4145 46.9788 21.2633 47.0348 21.1121 47.0516C20.5129 47.1188 19.9249 46.822 19.6953 46.3684C19.4601 45.898 19.5665 45.1196 19.9305 44.7052C20.1993 44.4028 20.5073 44.3524 20.8881 44.5316C21.2857 44.722 21.6945 44.9012 22.1481 45.1028C22.0865 45.1644 22.0081 45.2372 21.9465 45.3156C21.9073 45.366 21.8905 45.4388 21.8625 45.5004C21.9409 45.534 22.0305 45.5956 22.1033 45.5844C22.2041 45.5676 22.2993 45.4948 22.3945 45.4444C22.6633 45.2988 22.9321 45.142 23.2065 45.0076C23.3689 44.9292 23.4697 44.8228 23.5369 44.6492C23.6377 44.3916 23.7553 44.358 23.9401 44.5372C24.4161 44.9964 24.6065 45.5676 24.5337 46.2228C24.5113 46.4356 24.3601 46.5756 24.1753 46.6764C23.6209 46.9788 23.0665 47.2868 22.5065 47.5892H22.5177ZM27.0873 46.8332C26.9585 47.4324 26.5665 47.7516 26.0065 47.914C25.4577 48.0764 25.0041 47.8692 24.6065 47.522C24.3041 47.2588 24.3209 47.1076 24.5841 46.8052C24.7801 46.5812 24.9537 46.346 24.7801 46.0212C24.6793 45.8252 24.7857 45.7244 24.9593 45.6796C25.0937 45.646 25.2337 45.6404 25.3681 45.6236C25.3737 45.6068 25.3793 45.5956 25.3849 45.5788C25.8105 45.6964 26.2529 45.7804 26.6673 45.9428C27.1041 46.1052 27.1881 46.374 27.0873 46.8332ZM29.2657 46.3908C29.2881 46.5084 29.2937 46.6372 29.3049 46.7492C29.2713 47.4996 28.9521 48.0596 28.3025 48.4292C28.1009 48.5412 27.9609 48.5188 27.8433 48.3116C27.7089 48.0708 27.5409 47.8412 27.4121 47.5948C27.0481 46.8836 27.6361 45.8252 28.4201 45.7636C28.8345 45.73 29.1761 45.982 29.2601 46.3908H29.2657ZM27.6193 45.3604C27.7817 45.4052 27.7985 45.5004 27.6921 45.6292C27.4961 45.8588 27.3057 45.9092 27.0425 45.7692C26.8185 45.646 26.6001 45.5116 26.3817 45.3828C26.8185 45.2092 27.2217 45.254 27.6249 45.3604H27.6193ZM26.9753 40.3092C26.8633 40.494 26.7625 40.4884 26.6169 40.3092C26.4489 40.1076 26.2865 39.9004 26.1409 39.682C26.0177 39.5028 26.0681 39.3964 26.2585 39.3292C26.8745 39.1164 26.9417 38.9764 26.6841 38.4164C26.6225 38.282 26.6841 38.226 26.7569 38.142C26.9081 37.9684 27.0649 37.7948 27.1881 37.5988C27.3785 37.302 27.4177 36.966 27.4233 36.6188C27.4345 36.2716 27.5409 36.1708 27.9105 36.1708C27.9609 36.182 28.0505 36.1876 28.1401 36.2156C28.4033 36.3108 28.4649 36.4956 28.2969 36.7196C28.2129 36.8316 28.1121 36.9268 28.0113 37.022C27.5241 37.5036 27.3897 38.478 28.0617 38.9988C28.4145 39.2732 28.3249 39.3908 28.0001 39.626C27.8545 39.7324 27.6809 39.8164 27.5129 39.8948C27.3001 39.9956 27.1041 40.0908 26.9697 40.3092H26.9753ZM27.6137 40.4716C27.5073 40.3932 27.5129 40.2812 27.6249 40.2028C27.9049 40.0124 28.1849 39.8276 28.4705 39.654C28.5433 39.6092 28.6441 39.6092 28.6665 39.6036C29.0081 39.6428 29.2881 39.6596 29.5569 39.71C29.6521 39.7268 29.7753 39.7996 29.8033 39.8724C29.8257 39.934 29.7305 40.0516 29.6633 40.1188C29.5905 40.1916 29.4841 40.2364 29.3889 40.2868C29.0697 40.4716 28.8961 40.7348 28.9241 41.1212C28.9353 41.2836 28.9689 41.474 28.7561 41.5468C28.5881 41.6084 28.3809 41.5188 28.2633 41.3004C28.0897 40.9868 27.9105 40.69 27.6193 40.466L27.6137 40.4716ZM30.9289 44.358C30.8561 44.526 30.7049 44.5596 30.5425 44.5596C30.1113 44.5596 29.6745 44.5652 29.2433 44.5596C28.7617 44.5484 28.5041 44.19 28.2857 43.8372C27.9889 43.3556 28.0001 42.8292 28.2465 42.3252C28.3193 42.174 28.4873 42.0228 28.6441 41.9612C29.3441 41.7036 30.0721 41.558 30.8169 41.5468C30.8729 41.5468 30.9289 41.5804 31.0353 41.6084C30.9289 41.726 30.8505 41.81 30.7777 41.8996C30.5481 42.1908 30.2961 42.4652 30.0945 42.7732C29.8537 43.1316 29.9041 43.2492 30.2569 43.4788C30.4529 43.602 30.6377 43.742 30.8113 43.8932C30.9457 44.0108 31.0073 44.1732 30.9289 44.358ZM31.1697 43.7812C31.0465 43.6132 30.8673 43.4788 30.6993 43.35C30.4305 43.1428 30.3689 43.0028 30.5705 42.734C30.8225 42.4036 31.1025 42.09 31.4105 41.8212C31.7129 41.5524 32.0993 41.5636 32.4633 41.7092C33.1353 41.9724 33.5889 42.4596 33.8241 43.1372C33.9809 43.5796 33.8521 43.8148 33.3985 43.91C32.9169 44.0164 32.4297 44.0836 32.0601 44.1508C31.6401 44.1172 31.3657 44.0612 31.1697 43.7868V43.7812ZM33.1857 46.7604C32.9673 46.9228 32.8217 46.8948 32.6817 46.6708C32.3345 46.122 32.1553 45.5228 32.2113 44.8676C32.2393 44.554 32.3233 44.498 32.6537 44.4364C33.0177 44.3692 33.3817 44.2908 33.7401 44.2012C34.1657 44.0948 34.3057 44.1956 34.3225 44.6436C34.3225 44.6884 34.3225 44.7388 34.3225 44.7836C34.2777 45.6348 33.8577 46.2732 33.1913 46.766L33.1857 46.7604ZM36.1537 44.806C35.7729 45.0356 35.3753 45.254 34.9833 45.4724C34.6865 45.6348 34.5521 45.5564 34.5577 45.2092C34.5577 45.0244 34.6081 44.8396 34.6305 44.6604C34.6641 44.3748 34.6305 44.1172 34.4233 43.882C34.3169 43.7644 34.2273 43.5908 34.2049 43.434C34.0705 42.594 33.5945 42.0004 32.9001 41.5524C32.8497 41.5188 32.7937 41.4852 32.7433 41.4516C32.3961 41.2332 32.3569 41.1212 32.5361 40.8804C32.7433 40.6004 33.0121 40.5612 33.2921 40.7684C33.8521 41.1828 34.4009 41.6028 34.9777 41.9892C35.2969 42.202 35.6609 42.3476 36.0025 42.5324C36.4841 42.8012 36.7809 43.1876 36.7361 43.7588C36.7753 44.2404 36.5401 44.5708 36.1593 44.8004L36.1537 44.806ZM38.4889 43.6244C38.1977 43.7644 37.9065 43.91 37.6097 44.0276C37.3241 44.1396 37.1169 44.0276 37.0609 43.7308C37.0161 43.49 36.9881 43.2436 36.9937 42.9972C37.0049 42.6108 37.1897 42.4596 37.5705 42.4372C37.8001 42.426 38.0297 42.3868 38.2537 42.3532C38.6065 42.3028 38.6569 42.342 38.6625 42.7004C38.6625 42.79 38.6625 42.8852 38.6625 43.0196C38.6625 43.07 38.6737 43.1652 38.6905 43.2548C38.7241 43.434 38.6345 43.5572 38.4889 43.63V43.6244ZM38.7073 41.9276C38.5393 41.9388 38.3769 41.9948 38.2145 42.0228C38.0633 42.0452 37.9065 42.0956 37.7665 42.0732C37.4641 42.0228 37.1953 42.062 36.9209 42.202C36.4225 42.4484 36.1425 42.2692 36.1425 41.7204C36.1425 41.5804 36.1425 41.4404 36.1425 41.306C36.1537 41.306 36.1649 41.306 36.1761 41.306C36.1425 41.0148 36.1257 40.7236 36.0697 40.438C35.9633 39.9172 35.7057 39.486 35.2465 39.2004C35.0449 39.0772 34.9217 38.9204 34.9441 38.674C34.9553 38.534 35.0505 38.4892 35.1681 38.5732C35.2297 38.618 35.2801 38.674 35.3361 38.73C35.9913 39.4412 36.8481 39.5812 37.7497 39.542C38.0185 39.5308 38.2145 39.5308 38.3881 39.7772C38.4833 39.9116 38.6905 39.9844 38.8585 40.0348C39.2337 40.1468 39.4241 40.3932 39.4521 40.774C39.4633 40.9252 39.4577 41.082 39.4409 41.2332C39.3681 41.8716 39.3401 41.8884 38.7129 41.9332L38.7073 41.9276ZM39.3233 43.3668C39.1105 43.2324 38.9817 43.042 39.0041 42.79C39.0153 42.678 39.0657 42.5548 39.1441 42.4708C39.3065 42.2916 39.4913 42.1236 39.6761 41.9612C39.9673 41.7148 40.3145 41.782 40.6449 41.8156C40.7065 41.8212 40.7737 41.9388 40.8073 42.0172C40.8409 42.1012 40.8241 42.202 40.8409 42.2916C40.9865 43.1876 41.4177 43.5852 42.3193 43.6636C42.4089 43.6692 42.5041 43.6636 42.5993 43.6748C42.7337 43.686 42.9297 43.6748 42.9073 43.8596C42.8961 43.9884 42.7505 44.106 42.6665 44.218C42.6497 44.2348 42.6105 44.2404 42.5769 44.2404C42.4201 44.2404 42.2689 44.2404 42.1121 44.2404C41.0873 44.2516 40.1801 43.8988 39.3289 43.3612L39.3233 43.3668ZM38.5785 49.51C38.4049 49.6836 38.2481 49.6836 38.1025 49.4876C37.7609 49.0284 37.4473 48.5524 37.1337 48.0764C37.0721 47.9812 37.0665 47.8468 37.0385 47.7348C37.0721 47.6116 37.0777 47.4996 37.1281 47.4044C37.3465 46.9452 37.5593 46.4804 37.8113 46.038C38.1697 45.4052 38.8137 45.31 39.4521 45.254C39.6369 45.2372 39.7265 45.3996 39.6481 45.5788C39.5921 45.702 39.5025 45.814 39.4185 45.9204C39.0321 46.3964 38.9761 46.9116 39.1553 47.4884C39.4017 48.2724 39.1553 48.9444 38.5841 49.51H38.5785ZM42.1513 47.7628C41.8489 48.0204 41.4961 48.166 41.0873 48.1604C40.6113 48.138 40.1857 47.9924 39.8217 47.6788C39.2729 47.2084 39.2673 46.6652 39.8049 46.1892C39.8945 46.1052 39.9785 46.0156 40.0513 45.9148C40.1857 45.7188 40.3593 45.6516 40.5721 45.7468C41.0761 45.9708 41.6025 46.1668 42.0785 46.4468C42.6105 46.7548 42.6273 47.3596 42.1625 47.7628H42.1513ZM45.0129 48.0428C44.4697 47.8692 43.9265 47.6844 43.3833 47.522C43.0417 47.4212 42.8401 47.2476 42.7785 46.8612C42.7169 46.458 42.5489 46.0716 42.5097 45.6572C42.4873 45.4388 42.2689 45.2372 42.1513 45.0244C42.1121 44.9516 42.0505 44.8396 42.0785 44.7836C42.1065 44.7276 42.2297 44.7108 42.2465 44.7052C42.5937 44.6996 42.7841 44.7948 42.8793 45.0804C42.9913 45.422 43.1705 45.7244 43.4617 45.954C43.8649 46.2732 44.3353 46.318 44.8169 46.3236C44.8785 46.3236 44.9401 46.3068 45.0017 46.3012C45.4889 46.2732 45.5617 46.3628 45.5057 46.8388C45.4777 47.0964 45.5057 47.3596 45.5225 47.6172C45.5561 48.0372 45.4049 48.166 45.0185 48.0428H45.0129ZM46.0601 45.5228C45.9929 45.7356 45.8473 45.8924 45.6345 45.898C45.1417 45.9036 44.6377 45.9428 44.1617 45.842C43.4113 45.6796 43.0585 44.9516 43.2825 44.218C43.3833 43.8988 43.5009 43.798 43.8481 43.7756C44.0329 43.7644 44.2177 43.7756 44.4025 43.7756C44.5705 43.7812 44.7441 43.7756 44.9121 43.7812C45.9145 43.7812 46.2617 44.9012 46.0545 45.5284L46.0601 45.5228ZM47.1577 42.4932C47.1241 42.5772 47.0793 42.6612 47.0401 42.7452C46.8553 43.1764 46.5585 43.4228 46.1385 43.3444C46.0321 43.3444 45.9985 43.3444 45.9705 43.3444C45.5449 43.3388 45.5561 43.3332 45.6289 42.93C45.6681 42.706 45.6849 42.4708 45.6457 42.2468C45.5673 41.8044 45.2985 41.6196 44.8561 41.6644C44.7329 41.6756 44.6209 41.7372 44.4977 41.754C44.3801 41.7708 44.2513 41.7708 44.1393 41.7428C44.0833 41.7316 44.0049 41.642 44.0049 41.5804C44.0049 41.5244 44.0721 41.446 44.1337 41.418C44.2289 41.3676 44.3353 41.3396 44.4361 41.3116C44.8057 41.2108 45.1753 41.0988 45.5561 41.0204C46.0433 40.9196 46.4745 41.0708 46.8553 41.3732C47.2025 41.6476 47.3145 42.0844 47.1633 42.4988L47.1577 42.4932Z" fill="white"/>
<path d="M81.934 46.3734C81.8668 44.5926 81.542 42.8398 81.1108 41.115C80.282 37.7718 78.9716 34.6302 77.1572 31.6958C74.9844 28.179 72.2572 25.1718 68.9756 22.6686C66.0076 20.4062 62.754 18.6926 59.198 17.539C56.2804 16.5926 53.2956 16.0494 50.2324 15.9542C49.9748 15.9486 49.7172 15.9822 49.454 15.9934C49.4428 16.2398 49.4316 16.4806 49.4316 16.727C49.4316 26.3534 49.4316 35.9798 49.4316 45.6118C49.4316 52.2198 49.4316 58.8278 49.4316 65.4414C49.4316 68.6446 49.4316 71.8478 49.4316 75.051C49.4316 75.359 49.4317 75.359 49.7229 75.3702C49.8181 75.3702 49.9077 75.3702 50.0029 75.3702C56.1349 75.3702 62.2612 75.3702 68.3932 75.3758C68.7908 75.3758 69.0988 75.275 69.4068 75.0286C71.3892 73.4326 73.2036 71.663 74.794 69.675C77.958 65.7214 80.114 61.275 81.2508 56.3414C81.6484 54.6054 81.934 52.847 82.0012 51.0662C82.0572 49.5094 82.0012 47.9414 81.9396 46.3846L81.934 46.3734ZM81.1108 55.0646C80.5228 58.2006 79.4812 61.191 78.0084 64.019C76.8772 66.1974 75.5052 68.2134 73.9204 70.0894C72.4756 71.7974 70.874 73.3374 69.1212 74.7206C68.8748 74.9166 68.6228 75.0006 68.3148 75.0006C62.3116 75.0006 56.3028 75.0006 50.2996 75.0006C49.8068 75.0006 49.79 74.9782 49.79 74.463C49.79 73.7518 49.79 73.0406 49.79 72.3294V17.259C49.79 17.119 49.79 16.979 49.79 16.839C49.79 16.3182 49.8404 16.2734 50.3388 16.3014C52.6572 16.447 54.9532 16.7494 57.2044 17.343C61.3988 18.4518 65.2292 20.311 68.69 22.9374C70.062 23.979 71.3557 25.1046 72.5429 26.3534C74.5589 28.4702 76.2836 30.7998 77.6892 33.3702C79.19 36.103 80.2708 38.9926 80.9316 42.0334C81.1948 43.2542 81.3404 44.503 81.514 45.7406C81.6764 46.8886 81.6988 48.0534 81.6932 49.2126C81.6876 51.1838 81.4804 53.1326 81.1165 55.0646H81.1108Z" fill="white"/>
<path d="M34.4295 54.0405C34.4183 54.4885 34.4631 54.9364 34.4799 55.3844C34.5191 56.2804 34.5471 57.1765 34.6031 58.0725C34.6311 58.5037 34.7095 58.9293 34.7711 59.3605C34.7879 59.4781 34.8327 59.5844 34.9727 59.5508C35.1295 59.5172 35.0791 59.3941 35.0679 59.2877C35.0175 58.7949 34.9559 58.3076 34.9167 57.8148C34.8719 57.1988 34.8607 56.5829 34.8047 55.9669C34.6927 54.7013 34.7095 53.43 34.8607 52.17C34.9727 51.2012 35.0679 50.2324 35.0175 49.2244C35.0175 48.7036 35.0231 48.1436 35.0175 47.5892C35.0175 47.4436 35.1015 47.1861 34.8383 47.1973C34.6143 47.2029 34.6927 47.438 34.6927 47.5724C34.7039 48.3004 34.7655 49.0228 34.7431 49.7508C34.7151 50.5684 34.6087 51.3804 34.5471 52.198C34.4967 52.814 34.4463 53.4301 34.4295 54.0461V54.0405Z" fill="white"/>
<path d="M49 0C21.98 0 0 21.98 0 49C0 76.02 21.98 98 49 98C76.02 98 98 76.02 98 49C98 21.98 76.02 0 49 0ZM95.4408 49C95.4408 74.6088 74.6088 95.4408 49 95.4408C23.3912 95.4408 2.5592 74.6088 2.5592 49C2.5592 23.3912 23.3912 2.55919 49 2.55919C74.6088 2.55919 95.4408 23.3912 95.4408 49Z" fill="white"/>
</svg>
