<svg width="209" height="68" viewBox="0 0 209 68" fill="none" xmlns="http://www.w3.org/2000/svg">
<path d="M1.27989 7.67146C1.49705 7.78004 3.17719 8.63154 3.76581 8.95157C4.34301 9.27159 6.7432 10.466 6.7432 10.466C6.7432 10.466 6.72035 10.5803 6.70892 10.6946C6.6632 10.7974 6.5089 11.5975 6.40603 12.0661C6.30317 12.5633 6.09743 13.5805 6.04028 13.8263C6.00599 14.0834 5.966 14.4149 6.26888 14.552C6.5832 14.6949 8.08617 15.4264 8.72623 15.7064C9.36628 15.9864 11.8408 17.118 11.8408 17.118C11.8408 17.118 11.8236 17.838 11.8636 18.1409C11.8693 18.4952 11.9722 19.621 12.0351 19.8782C12.0922 20.1525 12.0694 20.6325 12.4522 20.8783C12.8351 21.1183 13.4923 21.3755 14.1667 21.5983C14.8525 21.7812 15.1153 21.8841 16.1211 22.1527C17.1098 22.4327 18.3728 22.7584 18.3728 22.7584C18.3728 22.7584 18.4928 23.4442 18.7042 24.2614C18.8871 25.0672 19.07 26.0159 19.2985 26.5073C19.5214 26.9759 19.75 27.0731 20.0129 27.216C20.2815 27.3302 21.4759 27.5588 21.9388 27.6388C22.3902 27.736 23.3789 27.896 24.0818 27.9932C24.7619 28.0732 26.2991 28.2218 26.2991 28.2218C26.2991 28.2218 26.3849 28.3703 26.4477 28.5075C26.5049 28.6561 27.1163 29.5476 27.4192 29.9705C27.705 30.4334 28.0193 30.902 28.3565 31.2506C28.6822 31.6106 28.8765 31.9364 29.2594 32.0449C29.6366 32.1878 31.0024 32.4335 31.9282 32.5878C32.8197 32.7078 34.4713 32.9193 35.2656 33.005C36.0714 33.0907 37.5915 33.1079 37.5915 33.1079C37.5915 33.1079 37.7172 33.7022 37.9001 34.2165C38.1058 34.7366 38.2373 35.0566 38.7345 35.691C39.2202 36.3367 39.5574 36.4282 40.066 36.5482C40.5975 36.6339 41.8719 36.7425 42.329 36.7425C42.8091 36.7653 45.1464 36.7882 45.5979 36.7882C46.0494 36.7882 47.7295 36.7425 47.7295 36.7425C47.7295 36.7425 47.7981 37.0111 47.8895 37.2282C47.9752 37.4397 48.421 38.274 48.5981 38.5198C48.7982 38.8284 48.9639 39.0684 49.3982 39.4627C49.8211 39.8342 50.1526 39.9942 50.6326 40.0456C51.1184 40.1199 52.0499 39.9999 52.8728 39.9142C53.6843 39.8342 55.0444 39.5541 55.6273 39.4113C56.2102 39.2798 57.696 38.9141 57.696 38.9141C57.696 38.9141 58.0047 39.5141 58.3247 39.9599C58.6619 40.4342 58.9647 40.7714 59.1876 40.9714C59.4276 41.1428 59.5934 41.3143 60.5649 41.3714C61.5307 41.4343 62.5993 41.1143 63.5366 40.8971C64.4795 40.6857 65.851 40.2285 65.851 40.2285C65.851 40.2285 65.8682 40.3999 65.9768 40.8057C66.1082 41.1828 66.5197 42.2629 66.994 43.4516C67.4626 44.6288 67.8569 45.4346 68.3827 46.4118C68.8856 47.3834 69.4342 48.3263 70.1771 49.3435C70.9143 50.3379 71.783 51.4066 72.3373 52.018C72.8688 52.6295 75.1947 54.9268 75.8747 55.5155C76.5662 56.1155 78.2978 57.3785 79.0464 57.9157C79.8008 58.4186 81.0752 59.1958 81.8238 59.6015C82.5667 60.0073 84.3897 60.8988 85.2412 61.276C86.0127 61.6474 87.2071 62.1103 87.2071 62.1103C87.2071 62.1103 87.4471 62.6132 87.6014 62.9732C87.7386 63.3333 88.4644 64.7162 88.5729 64.8991C88.6301 65.0534 88.9215 65.0934 89.1273 65.0534C89.3101 65.0134 90.3845 64.5905 90.7331 64.4476C91.0989 64.2876 92.0932 63.9219 92.0932 63.9219C92.0932 63.9219 92.6247 64.7391 92.8705 65.0991C93.0991 65.4135 93.6648 66.2421 93.7505 66.4021C93.8534 66.545 94.0991 66.545 94.2249 66.505C94.3449 66.4421 95.0021 66.0306 95.4707 65.7849C95.9107 65.562 97.0079 64.9734 97.0079 64.9734C97.0079 64.9734 97.568 65.6478 97.7166 65.8478C97.8994 66.0592 98.7909 67.0936 98.9167 67.2479C99.031 67.4079 99.2367 67.4479 99.391 67.3508C99.5396 67.2879 100.357 66.6364 100.665 66.4021C100.98 66.1849 101.928 65.4935 101.928 65.4935C101.928 65.4935 102.688 66.2764 102.957 66.545C103.271 66.8479 104.037 67.5565 104.22 67.6422C104.403 67.7336 104.534 67.6194 104.534 67.6194C104.534 67.6194 104.694 67.4879 104.763 67.3908C104.854 67.2879 105.512 66.6878 105.78 66.4021C106.037 66.1507 106.786 65.4363 106.786 65.4363C106.786 65.4363 106.986 65.6192 107.192 65.7449C107.403 65.8764 108.049 66.4021 108.449 66.6878C108.815 66.985 109.163 67.2479 109.346 67.3108C109.5 67.3908 109.632 67.4022 109.723 67.3222C109.786 67.2707 110.592 66.3392 110.826 66.0192C111.129 65.602 111.706 64.9277 111.706 64.9277C111.706 64.9277 112.689 65.4763 112.929 65.6363C113.169 65.7506 114.329 66.4078 114.449 66.4364C114.587 66.4878 114.804 66.5507 114.912 66.4307C115.004 66.3449 115.598 65.4706 115.804 65.1506C116.01 64.8077 116.61 63.9333 116.61 63.9333C116.61 63.9333 117.495 64.2991 117.89 64.4591C118.284 64.602 119.358 65.0077 119.576 65.0934C119.793 65.1506 119.998 65.1106 120.118 64.9505C120.204 64.8077 120.633 63.9733 120.873 63.4704C121.113 62.9104 121.559 62.0589 121.559 62.0589C121.559 62.0589 122.69 61.6188 123.656 61.1788C124.616 60.7159 126.873 59.5272 128.108 58.7672C129.319 58.0185 130.914 56.8584 131.794 56.167C132.668 55.4526 134.303 53.9953 134.68 53.6182C135.063 53.2181 135.68 52.5609 136.091 52.1209C136.543 51.6923 138.32 49.4635 138.76 48.8121C139.137 48.2806 140.32 46.3261 140.56 45.8747C140.817 45.3832 141.549 43.8631 141.692 43.4916C141.852 43.1259 142.4 41.4971 142.4 41.4971C142.4 41.4971 142.846 41.6972 143.349 41.8515C143.869 42.0172 144.486 42.1886 144.983 42.2686C145.492 42.3486 145.875 42.3829 146.109 42.3487C146.361 42.3029 146.846 41.9715 147.126 41.7657C147.412 41.5486 147.772 41.12 147.989 40.8628C148.207 40.5542 148.509 39.9427 148.509 39.9427C148.509 39.9427 148.847 40.0627 149.121 40.1427C149.372 40.2285 150.538 40.5599 151.007 40.6971C151.458 40.7999 152.521 41.0457 153.007 41.12C153.504 41.1657 154.064 41.3086 154.664 41.2343C155.236 41.16 155.584 40.7199 155.893 40.4514C156.15 40.2399 156.527 39.657 156.699 39.3255C156.882 39.0284 157.116 38.3369 157.116 38.3369C157.116 38.3369 157.476 38.5026 157.842 38.6112C158.179 38.7141 159.419 38.9655 160.036 39.0341C160.653 39.1255 161.945 39.2113 162.545 39.2227C163.122 39.2398 163.751 39.1884 164.225 39.1255C164.728 39.0741 164.831 38.9141 165.099 38.6569C165.351 38.4283 165.551 38.0854 165.688 37.7883C165.842 37.5082 166.094 36.8682 166.219 36.4624C166.322 36.0853 166.511 35.4109 166.511 35.4109C166.511 35.4109 167.122 35.3938 167.5 35.4109C167.911 35.4224 169.037 35.4338 169.608 35.4338C170.18 35.4338 172.346 35.3766 172.689 35.3595C173.037 35.3424 173.563 35.3081 174.129 35.1938C174.677 35.0909 174.854 34.868 175.049 34.6852C175.237 34.4909 175.455 34.1708 175.643 33.7536C175.809 33.3022 175.969 32.7307 176.015 32.4907C176.066 32.2621 176.226 31.3363 176.226 31.3363C176.226 31.3363 176.529 31.4163 176.906 31.462C177.38 31.502 178.106 31.582 178.758 31.6335C179.438 31.6678 180.769 31.6678 181.221 31.6678C181.672 31.6678 182.604 31.6335 182.792 31.5649C182.981 31.502 183.398 31.2391 183.65 30.9991C183.895 30.7991 184.387 30.2162 184.678 29.8105C184.935 29.4047 185.347 28.6275 185.49 28.256C185.627 27.8846 185.953 26.6788 185.953 26.6788C185.953 26.6788 186.375 26.6673 186.815 26.6331C187.261 26.5873 188.524 26.4502 189.176 26.3873C189.861 26.2959 190.542 26.1473 191.084 26.033C191.616 25.913 191.827 25.7358 192.153 25.4615C192.462 25.2043 192.742 24.6386 192.856 24.3186C192.97 23.9814 193.113 23.2385 193.142 22.7927C193.193 22.3641 193.227 21.404 193.227 21.404C193.227 21.404 193.496 21.404 193.828 21.3869C194.142 21.3526 194.902 21.2269 195.439 21.1183C195.999 21.0269 197.091 20.6783 197.388 20.5297C197.691 20.3868 198.154 20.1239 198.365 19.8782C198.576 19.581 198.902 19.0095 199.011 18.5695C199.142 18.0838 199.142 17.5009 199.171 17.0037C199.188 16.5179 199.125 15.7121 199.125 15.7121C199.125 15.7121 200.165 15.4435 200.72 15.295C201.308 15.1521 202.594 14.5977 202.92 14.4606C203.257 14.3292 204.137 13.8034 204.206 13.7691C204.28 13.7234 204.246 13.0776 204.246 12.7919C204.246 12.5233 204.017 11.6146 203.851 11.1575C203.708 10.7346 203.274 9.71162 203.274 9.71162C203.274 9.71162 204.743 9.09443 205.308 8.87155C205.874 8.63725 207.612 7.75718 207.766 7.6486C207.932 7.57431 208.052 7.50001 208.189 7.33428C208.32 7.17426 208.669 6.55708 208.737 6.43135C208.789 6.31134 208.692 6.21418 208.497 6.01417C208.314 5.77415 207.812 5.09981 207.32 4.5169C206.8 3.94543 205.571 2.78533 205.423 2.71103C205.303 2.58531 204.971 2.58531 204.166 2.6596C203.468 2.71104 199.257 3.03678 197.308 3.2368C195.365 3.45968 191.456 3.61397 190.33 3.64826C189.153 3.68827 185.433 3.51682 183.644 3.42538C181.872 3.33966 173.031 2.8082 171.014 2.81391C169.014 2.85392 159.219 3.29967 157.584 3.40253C155.973 3.48254 150.332 3.72255 148.589 3.75113C145.961 3.77398 143.458 3.48253 142.383 3.3568C141.315 3.23679 137.508 2.85392 135.903 2.81391C134.303 2.79105 133.257 2.91106 131.965 3.00249C130.651 3.09964 128.371 3.45967 126.873 3.77969C125.405 4.09972 123.656 4.6312 123.656 4.6312C123.656 4.6312 121.256 3.55111 120.136 3.10535C118.993 2.6596 116.044 1.76238 113.449 1.1909C110.866 0.619427 107.117 0.322266 104.471 0.322266C101.825 0.322266 99.1624 0.619428 96.665 1.03089C94.1791 1.40235 90.916 2.311 89.6702 2.74532C88.4358 3.16821 86.0013 4.11688 86.0013 4.11688C86.0013 4.11688 84.544 3.65969 83.2468 3.47111C81.9781 3.24823 76.2805 2.87677 74.486 2.87677C72.6916 2.87677 63.5594 3.28251 61.6392 3.35108C59.7248 3.40252 53.9415 3.11107 51.8327 2.98535C49.7183 2.87105 41.2147 2.55674 39.3802 2.57388C37.5401 2.59674 29.9452 2.72247 28.625 2.79105C27.2935 2.87677 21.3673 3.22536 20.5558 3.22536H14.5896C13.178 3.22536 9.59488 3.06536 8.7891 2.95678C7.98332 2.87106 4.94305 2.55102 4.65732 2.53388C4.38872 2.49959 4.04012 2.56818 3.74295 2.86534C3.45721 3.16823 3.12576 3.55683 2.67429 4.04258C2.23425 4.53405 0.685547 6.35706 0.685547 6.35706C0.685547 6.35706 0.748409 6.56279 0.84556 6.92853C0.936996 7.29999 1.03415 7.56858 1.26274 7.71145M12.3494 14.8149C12.0922 14.7006 10.3949 13.952 9.93205 13.7405C9.45201 13.512 8.63478 13.1976 8.4862 12.9862C8.3319 12.7976 8.41192 12.5119 8.41192 12.2661C8.41192 12.0204 8.41191 11.7175 8.13189 11.4889C7.86329 11.2546 7.52042 11.0032 7.52042 11.0032L7.63471 10.4603C7.63471 10.4603 9.13198 10.4545 9.60059 10.4831C10.0635 10.5003 12.818 10.6031 13.7838 10.6031C14.7496 10.6031 17.727 10.6946 18.4642 10.666C19.1843 10.6203 23.2475 10.7288 24.1047 10.7288C24.9619 10.7288 29.2308 10.746 30.0995 10.746C30.9738 10.7746 35.8199 10.786 36.5743 10.786C37.3286 10.786 41.3175 10.786 42.2433 10.8146C43.1748 10.8146 47.1866 10.786 48.0781 10.786C48.9696 10.786 51.2955 10.8203 51.8041 10.8146C52.3127 10.786 52.7071 10.7631 52.8156 10.7288C52.9128 10.7003 53.2443 10.546 53.4271 10.6431C53.6386 10.746 53.7129 10.9517 53.8043 11.0775C53.9072 11.1689 54.0729 11.3346 54.1758 11.3918C54.2786 11.4775 54.4958 11.5689 54.6272 11.7632C54.711 11.8851 54.8234 11.9975 54.9644 12.1004C55.1644 12.2661 55.2216 12.3404 55.1473 12.4261C55.073 12.5176 54.7587 12.9005 54.6329 13.1233C54.5015 13.3291 54.4501 13.5348 54.3872 13.6034C54.2958 13.6662 53.8557 13.7234 53.8557 13.7234C53.8557 13.7234 54.1129 13.5062 54.0843 13.3291C54.0386 13.1691 53.73 12.7519 53.1071 12.7062C52.4499 12.6662 50.8784 12.7976 50.1583 12.889C49.4497 12.969 44.7178 13.3748 43.9006 13.4491C43.0605 13.5348 36.54 13.992 35.4199 14.0949C34.3055 14.1806 29.1337 14.4777 28.1507 14.5463C27.1563 14.632 23.2646 14.8149 22.0874 14.8835C20.8758 14.9749 18.1156 15.0892 17.0469 15.1349C16.0011 15.1807 13.9267 15.2264 13.5209 15.1807C13.1495 15.1635 12.6237 14.9349 12.3551 14.8149M78.2978 39.9999C78.3435 40.1485 78.4121 40.297 78.3206 40.337C78.1606 40.3999 77.8463 40.6228 77.7492 40.6628C77.6463 40.7142 77.3949 40.7085 77.2406 40.4799C77.1663 40.337 76.7777 40.3028 76.4919 40.0628C76.1833 39.8627 76.2176 39.697 76.2291 39.4455C76.2348 39.217 76.3776 38.3312 76.309 38.114C76.229 37.9426 76.0519 37.554 76.0519 37.554C76.0519 37.554 76.4919 36.4967 76.5948 36.3024C76.7262 36.1138 76.852 35.7995 76.852 35.7995C76.852 35.7995 76.9605 36.3424 77.0806 36.611C77.1891 36.851 77.4463 37.1425 77.532 37.434C77.6006 37.634 78.0406 38.7655 78.1035 38.9541C78.1892 39.1198 78.3206 39.4056 78.2749 39.577C78.2235 39.737 78.2292 39.8627 78.2978 39.9999ZM73.6345 28.6218C73.3945 28.1989 73.246 28.176 73.0517 28.1189C72.8402 28.056 72.7659 28.136 72.463 27.9874C72.1373 27.8217 71.9887 27.496 71.783 27.456C71.5829 27.4217 71.6115 27.3931 71.4458 27.456C71.2001 27.576 71.0458 27.4845 71.0458 27.4845C71.0458 27.4845 72.0173 26.593 72.4916 26.113C72.9545 25.6387 73.8689 24.7415 74.2917 24.3586C74.6746 23.9357 75.3947 23.2499 75.3947 23.2499C75.3947 23.2499 75.5547 23.5014 75.8862 23.5185C76.229 23.5471 76.5662 23.5814 76.8062 23.5985C77.0691 23.6328 77.492 23.6328 77.6292 23.5071C77.7549 23.3642 77.9378 23.3242 77.9378 23.3242C77.9378 23.3242 77.7377 23.5985 77.4863 23.9242C77.2063 24.2728 76.5091 25.2672 76.109 25.8616C75.7147 26.4845 74.8175 27.8103 74.6689 28.0503C74.5089 28.3075 74.1774 28.8275 74.0689 29.0047C73.966 29.1133 73.8289 29.3076 73.8289 29.3076C73.8289 29.3076 73.8631 29.0104 73.6345 28.6275M73.1259 17.2723C73.1259 17.2723 72.3716 17.8609 72.1087 18.1009C71.8573 18.3695 71.4172 18.7638 71.3201 18.8267C71.2115 18.8781 70.8343 18.6838 70.5886 18.5467C70.3486 18.4495 69.7999 18.2895 69.5999 18.2723C69.3828 18.2495 69.2342 18.2495 69.2342 18.2495C69.2342 18.2495 69.7771 17.7809 70.1428 17.4723C70.5086 17.1865 71.2115 16.7294 71.5029 16.4722C71.863 16.2608 72.1144 16.095 72.1944 16.0493C72.3087 16.0379 72.4173 16.1007 72.4973 16.1693C72.5487 16.2436 72.7659 16.2436 72.8345 16.3808C72.8745 16.5636 72.8345 16.7294 72.8745 16.8265C72.9488 16.9408 73.0916 16.9008 73.1316 16.9865C73.1545 17.0894 73.1316 17.2665 73.1316 17.2665M73.1488 17.9752C73.406 17.7752 73.8974 17.3866 73.8974 17.3866C73.8974 17.3866 74.1374 17.4151 74.0974 17.5637C74.0517 17.678 74.2346 17.718 74.3146 17.718C74.4289 17.718 74.6861 17.6437 74.7546 17.6723C74.8461 17.718 74.9489 17.7752 74.9489 17.918C74.9489 18.0895 74.9489 18.2209 75.0289 18.2381C75.0804 18.2495 75.2347 18.2209 75.2461 18.2895C75.2575 18.3638 75.2633 18.4438 75.2633 18.4438C75.2633 18.4438 74.4346 19.2953 74.0803 19.5867C73.726 19.9353 73.1831 20.5011 73.1145 20.5925C73.0516 20.684 72.9945 20.7526 72.9945 20.7526C72.9945 20.7526 72.8631 20.4211 72.5716 20.1525C72.2859 19.8953 72.1544 19.8039 71.8915 19.741C71.5944 19.6496 71.3315 19.6496 71.3315 19.6496C71.3315 19.6496 71.9773 19.0553 72.2916 18.781C72.6002 18.4838 72.9202 18.1695 73.1545 17.9752M71.2286 15.1807C71.1086 15.3692 71.0458 15.535 70.72 15.855C70.3543 16.2036 70.08 16.3579 69.8628 16.5522C69.6342 16.7465 69.3028 17.0208 69.1199 17.0494C68.9427 17.0951 68.6684 16.9294 68.5198 16.8894C68.3827 16.8608 67.9369 16.6951 67.8169 16.6208C67.7083 16.5465 67.5369 16.4893 67.3997 16.5008C67.2683 16.5179 66.8797 16.6036 66.8797 16.6036V16.3065C66.8797 16.3065 67.7826 15.815 68.0969 15.6321C68.3827 15.4493 69.3485 14.9978 69.7371 14.7578C70.1771 14.5406 70.6171 14.3806 70.8514 14.392C71.0915 14.4263 71.2972 14.5063 71.3258 14.6035C71.3601 14.7235 71.3315 14.9978 71.2229 15.1807M69.7314 13.3348C69.5714 13.4205 68.6341 13.952 68.2741 14.112C67.9255 14.2663 67.1311 14.6492 66.8968 14.6835C66.6454 14.6892 66.3939 14.632 66.1539 14.5463C65.9425 14.4835 65.8339 14.4435 65.7196 14.432C65.6053 14.4263 65.3367 14.432 65.3367 14.432C65.3367 14.432 65.371 14.352 65.371 14.2834C65.371 14.2034 65.3996 14.0949 65.3996 14.0949C65.3996 14.0949 66.1825 13.6662 66.8568 13.3805C67.5369 13.1062 68.8684 12.6147 69.1599 12.5576C69.4456 12.4947 69.7485 12.3747 69.9142 12.4947C70.0742 12.5861 70.2171 12.6719 70.1714 12.7804C70.1257 12.9005 69.9028 13.2548 69.7314 13.3405M69.4456 10.9003C69.3713 10.9517 69.3542 11.0032 69.1885 11.1632C69.0285 11.3746 68.8684 11.5518 68.6913 11.6375C68.5084 11.7004 68.0741 11.8089 67.5483 11.9518C67.0397 12.0661 66.2568 12.329 65.971 12.3918C65.7025 12.4947 65.6167 12.5633 65.171 12.4947C64.7252 12.3918 64.5938 12.3519 64.3938 12.3119C64.2052 12.2718 64.1938 12.3118 64.0852 12.3518C63.988 12.3976 63.948 12.3518 63.948 12.3518V12.1518C63.948 12.0718 63.9537 11.9918 63.9537 11.9918C63.9537 11.9918 64.7652 11.6375 65.3424 11.4318C65.9653 11.2489 67.0283 10.9917 67.5255 10.8774C68.0055 10.7974 68.377 10.6317 68.5484 10.706C68.7484 10.7517 68.9884 10.7517 69.1256 10.7517L69.3828 10.7174C69.3828 10.7174 69.5028 10.8603 69.4342 10.9003M64.348 13.752C64.6281 13.8663 64.8967 13.992 64.9252 14.1577C64.9824 14.3463 64.891 14.6035 64.7652 14.7349C64.6852 14.9006 64.6566 15.0321 64.6281 15.1406C64.5823 15.2664 64.5824 15.5007 64.5824 15.5007C64.5824 15.5007 64.4223 15.6321 64.2337 15.6664L63.9423 15.7464C63.9423 15.7464 63.948 15.5464 63.8223 15.3864C63.6794 15.2435 63.3137 15.0949 63.0679 15.1692C62.8108 15.2435 61.8507 15.6321 61.4678 15.7921C61.1021 15.9522 60.0448 16.4436 59.6962 16.5865C59.3305 16.7408 59.0848 16.8665 58.7133 16.8265C58.3475 16.7522 58.0218 16.7351 57.7475 16.5865C57.4675 16.455 57.0903 16.2665 56.9703 16.2265C56.8274 16.2036 56.576 16.1465 56.576 16.1465C56.576 16.1465 56.616 15.9007 56.7474 15.7921C56.8674 15.6778 57.2217 15.6093 57.3989 15.5007C57.5761 15.4264 58.1418 15.2435 58.7133 15.0321C59.2905 14.8206 60.382 14.512 60.822 14.3863C61.2964 14.2263 62.2736 13.9348 62.525 13.8205C62.7936 13.7291 63.1022 13.5119 63.3537 13.5348C63.6108 13.5348 64.0737 13.6605 64.3423 13.7462M58.8847 18.7067L60.142 18.1009C60.5649 17.8952 62.1936 17.158 62.7136 16.9122C63.2108 16.6722 64.028 16.2836 64.2109 16.2207C64.3823 16.135 64.5766 16.0093 64.7824 15.9693C64.9881 15.9636 65.4624 16.095 65.731 16.1293C65.9996 16.1979 66.3768 16.2436 66.4511 16.375C66.5539 16.5522 66.5939 16.9065 66.5539 16.9922C66.5082 17.1065 66.4054 17.4437 66.4168 17.5694C66.4339 17.7237 66.474 18.0552 66.474 18.0552L66.0968 18.2381C65.9025 18.3638 65.6567 18.4495 65.6567 18.4495C65.6567 18.4495 65.5939 18.2381 65.4167 18.0952C65.2567 17.9523 64.9652 17.8723 64.7138 17.9523C64.5709 18.0038 63.5994 18.5467 63.2222 18.7867C62.8851 19.0153 61.9593 19.581 61.8336 19.6553C61.6678 19.7467 61.5364 19.941 61.0906 19.9068C60.6506 19.8725 60.4506 19.8153 60.222 19.7068C60.0048 19.5925 59.5534 19.2781 59.4276 19.1867C59.3076 19.101 58.8504 18.9924 58.8504 18.861C58.8504 18.7295 58.8962 18.7124 58.8962 18.7124M63.0622 20.6211C63.6051 20.2897 64.9309 19.5639 65.451 19.2553C65.9653 18.981 66.4625 18.5867 66.7425 18.5467C66.9997 18.5124 67.6626 18.5295 68.0055 18.5295C68.3655 18.5295 68.5884 18.5295 68.6227 18.701C68.6513 18.8838 68.5884 19.0324 68.5713 19.1924C68.5484 19.3239 68.5713 19.7582 68.5713 19.7582L66.0111 21.7698C65.6053 22.0841 64.6109 22.9527 64.5652 22.9699C64.4909 22.987 64.1594 22.7299 63.7708 22.5756C63.3765 22.4098 63.1537 22.387 62.9708 22.3584C62.8222 22.3355 62.5765 22.2041 62.3136 22.0898C62.0793 21.9927 61.9878 21.9412 61.8107 21.9012C61.6392 21.8727 61.2678 22.0212 61.2678 22.0212L61.2278 21.7812C61.2278 21.7812 62.4907 20.9697 63.0565 20.6268M65.3996 23.0899C65.851 22.6727 67.1997 21.5869 67.5655 21.2897C67.9198 20.9983 68.8399 20.2954 68.9656 20.2039C69.097 20.0839 69.2342 20.0725 69.3942 20.0725C69.5542 20.0725 69.9599 19.9582 70.1314 19.9582C70.3143 19.9582 70.64 19.9353 70.6743 20.1754C70.6857 20.4154 70.8115 20.8668 70.7943 21.0497C70.7772 21.2269 70.7943 21.4269 70.8514 21.5298C70.9143 21.6498 70.96 21.7241 70.96 21.7241C70.96 21.7241 70.8172 21.8784 70.5657 22.1298C70.3085 22.3641 69.5371 23.107 69.2113 23.4271C68.857 23.7585 68.1712 24.4214 67.9198 24.6786C67.6626 24.9529 67.274 25.3358 67.274 25.3358C67.274 25.3358 67.1826 24.9472 66.9426 24.7415C66.7254 24.5472 66.1653 24.4329 65.8568 24.4329C65.5081 24.4214 65.1024 24.09 64.9252 24.0557C64.7652 24.01 64.5824 24.1071 64.5824 24.1071C64.5824 24.1071 64.3823 24.1814 64.3138 24.0157C64.3138 24.0328 64.971 23.4614 65.3996 23.0956M69.2971 24.1814C69.6285 23.8385 70.7715 22.7813 71.0458 22.5013C71.3086 22.2441 71.5201 21.9698 71.8115 21.8212C72.1316 21.7298 72.4859 21.5355 72.6345 21.5983C72.8002 21.6555 72.9145 21.8669 73.0059 22.0955C73.0688 22.347 73.2916 22.6613 73.7031 22.8156C74.126 22.9356 74.3718 22.9756 74.5775 22.9585C74.7718 22.947 74.8803 22.9356 74.8803 22.9356C74.8803 22.9356 74.4346 23.3585 74.2232 23.5814C74.0232 23.8042 73.3545 24.45 72.9774 24.7986C72.583 25.1586 71.5887 26.1702 71.3143 26.4159C71.0229 26.6959 70.6343 27.0331 70.6343 27.0331C70.6343 27.0331 70.6286 26.7531 70.4228 26.5645C70.12 26.2959 69.7771 26.3245 69.4513 26.3473C69.1256 26.3587 68.9199 26.273 68.7141 26.1016C68.5255 25.9473 68.3713 25.7758 68.2627 25.7644C68.1598 25.7473 67.914 25.8673 67.8798 25.8958C67.8169 25.9416 67.5426 25.9416 67.5426 25.9416L69.2856 24.1814H69.2971ZM76.0805 21.9069L76.1719 21.7526C76.1719 21.7526 76.6805 21.1412 77.1034 20.6897L78.1435 19.581C78.3435 19.3696 78.4464 19.2153 78.4464 19.2153C78.4464 19.2153 78.1664 19.8953 78.1035 20.1639C78.0406 20.4497 77.9606 21.0269 77.9606 21.2897C77.9606 21.5298 77.8635 21.7869 77.8006 22.1184C77.7492 22.4156 77.7492 22.7013 77.7492 22.7013C77.7492 22.7013 77.5434 22.8499 77.3949 22.9013C77.2463 22.9756 77.0748 23.107 77.0748 23.107C77.0748 23.107 77.0405 22.6441 76.8577 22.3984C76.6862 22.1698 76.6005 22.1127 76.4519 22.027C76.3205 21.9355 76.0862 21.8955 76.0862 21.8955M74.4461 31.2963C74.5432 31.2963 75.0404 31.2506 75.4347 31.1706C75.8233 31.1077 76.4405 30.9648 76.6005 30.9991C76.7377 31.062 76.7377 31.1706 76.7605 31.3077C76.7662 31.4277 76.7777 32.7021 76.7891 33.1193C76.812 33.5422 76.812 34.4508 76.7262 34.7652C76.6405 35.108 75.6576 36.9939 75.429 37.5425C75.2175 38.0512 74.5832 39.2055 74.4975 39.4227C74.3946 39.6627 74.3374 39.7084 74.2689 39.7942C74.1889 39.8742 74.0232 39.5941 73.7888 39.3084C73.4688 38.9141 73.1316 38.9712 72.783 39.0512C72.4459 39.1312 70.5143 39.6627 70.1943 39.7199C69.8514 39.7942 69.2685 39.9484 68.9427 39.9084C68.6284 39.8456 68.4912 39.6456 68.3427 39.377C68.1769 39.1198 68.0055 38.9655 67.7941 38.9655C67.554 38.9655 67.3883 38.9084 67.3883 38.9084C67.3883 38.9084 69.1656 37.0111 69.5599 36.6053C69.9599 36.1996 72.1087 33.8794 72.583 33.3593C73.0459 32.8564 73.8174 31.9249 74.0117 31.6792C74.1946 31.4277 74.3489 31.2963 74.4461 31.2963ZM77.0748 29.3819C76.9434 29.6619 76.8348 29.8276 76.8234 29.9419L76.7719 30.2791C76.7719 30.2791 76.5434 30.4448 76.4405 30.4905L76.1262 30.5591V30.2791C76.1262 30.1819 75.9376 29.9476 75.8233 29.7304C75.709 29.5419 75.5947 29.2961 75.7319 28.8847C75.8462 28.4961 76.0405 28.0217 76.1719 27.6731C76.3319 27.3645 76.4405 27.0217 76.6805 26.4673C76.9205 25.9073 77.0977 25.473 77.3891 25.0786C77.6692 24.6443 77.7949 24.4329 77.9149 24.2671C78.0463 24.09 78.2006 24.0443 78.2006 24.0443C78.2006 24.0443 78.3264 24.2386 78.4292 24.3929C78.5435 24.5357 78.715 24.7015 78.6864 24.8272C78.6407 24.9472 78.1206 26.0101 77.9892 26.3016C77.8806 26.5873 77.5034 27.8274 77.4234 28.1989C77.3148 28.5761 77.1949 29.119 77.0806 29.3933M78.2406 18.5638C77.8863 18.9696 76.7319 20.2154 76.2748 20.764C75.8233 21.3183 75.4519 21.7583 75.2976 21.8898C75.0975 22.1012 74.9432 22.3413 74.9432 22.3413H74.8061C74.8061 22.3413 74.9604 22.1012 74.9318 21.8269C74.8861 21.6041 74.6804 21.1869 74.4689 21.084C74.2689 20.9811 74.2003 20.9411 74.046 20.9811C73.926 21.0326 73.7888 21.084 73.686 21.1126C73.5774 21.1469 73.4859 21.1526 73.4859 21.1526C73.4859 21.1526 74.0117 20.564 74.2632 20.3239C74.4975 20.0668 75.1375 19.4896 75.3604 19.2724C75.5719 19.0438 75.789 18.901 75.8747 18.901C75.9662 18.901 76.3376 19.0438 76.6005 18.9524C76.8577 18.821 77.3091 18.3809 77.3549 18.0438C77.3663 17.7009 77.2063 17.3751 76.9891 17.2094C76.7719 17.0437 76.4405 16.9122 76.2405 16.9294C76.029 16.9522 75.7604 16.9922 75.5547 17.1122C75.389 17.1751 75.2518 17.2037 75.2518 17.2037C75.2518 17.2037 75.2633 17.038 75.2861 16.7922C75.3204 16.5351 75.1947 16.295 75.0575 16.1122C74.9375 15.8836 74.6346 15.7064 74.3146 15.655C74.0003 15.6264 73.8517 15.7064 73.7317 15.6264C73.6003 15.5464 73.7031 15.3521 73.5945 15.0949C73.4917 14.8549 73.3317 14.5235 73.0459 14.4092C72.7088 14.2949 72.4516 14.232 72.2916 14.232C72.1487 14.232 72.1487 14.1291 72.1487 13.9463C72.1487 13.6777 72.0744 13.1519 71.9201 13.0262C71.783 12.8948 71.4343 12.649 71.2343 12.609C71.0229 12.5747 70.88 12.5347 70.88 12.4204C70.88 12.3176 71.0229 12.0547 71.0229 11.8204C71.0229 11.5861 70.9715 11.2432 70.68 11.0489C70.4228 10.8489 70.1085 10.7632 69.9714 10.546C69.8628 10.3631 69.6571 10.1517 69.5999 10.1402C69.537 10.1174 69.2913 10.1174 69.1085 10.1402C68.937 10.1574 68.5027 10.2317 68.1884 10.2831C67.8912 10.3345 67.714 10.4145 67.554 10.3688C67.3997 10.3117 67.0397 10.1917 66.8054 10.1917C66.5711 10.1917 65.9939 10.226 65.6225 10.266C65.2224 10.306 64.8281 10.346 64.5138 10.3402C64.1995 10.3117 63.9937 10.226 63.7366 10.1117C63.4794 9.99737 63.388 9.95164 63.2623 9.87163C63.1022 9.7802 63.0337 9.69448 63.0337 9.69448C63.0337 9.69448 63.0565 9.57447 63.0794 9.48303C63.1022 9.38017 63.1708 9.25445 63.1708 9.25445C63.1708 9.25445 64.3309 9.20873 65.1824 9.18015C66.0225 9.16301 67.0854 9.18015 67.6455 9.28301C68.2112 9.34588 69.1542 9.40303 69.497 9.38017C69.8514 9.37446 70.3886 9.32303 71.2572 9.34589C72.1087 9.38017 73.6631 9.44875 74.6746 9.57447C75.6804 9.7402 76.6119 9.9345 77.452 10.2317C78.2978 10.506 79.8237 11.1518 80.3037 11.7404C80.7895 12.3176 81.138 12.7805 81.1037 13.5291C81.0294 14.2834 80.7266 15.0435 80.498 15.5121C80.2465 15.975 79.6808 16.9694 79.5722 17.1408C79.4808 17.3351 78.5893 18.1466 78.2292 18.5524M63.3308 11.6261C63.508 11.7461 63.6794 11.9747 63.628 12.0832C63.5708 12.2147 63.508 12.2947 63.4108 12.4204C63.3251 12.5519 63.3594 12.609 63.3251 12.729C63.3022 12.8662 63.3023 13.0776 63.3023 13.0776C63.3023 13.0776 62.8508 13.2319 62.7765 13.2319C62.685 13.2319 62.5822 13.2719 62.5822 13.2719C62.5822 13.2719 62.6851 12.9576 62.6108 12.9062C62.5193 12.849 62.1936 12.609 61.8736 12.609C61.5478 12.569 60.5992 12.8205 60.302 12.9176C59.9877 13.0376 58.8162 13.3519 58.3875 13.5005C57.9361 13.6205 57.5361 13.8262 57.1817 13.7977C56.8274 13.752 56.5188 13.6034 56.1931 13.4491C55.9074 13.3176 55.8273 13.2376 55.7188 13.1919C55.6216 13.1176 55.3873 12.9976 55.3873 12.9976C55.3873 12.9976 55.6445 12.6147 55.753 12.5519C55.8273 12.5004 56.496 12.2776 56.7646 12.2033C57.0332 12.1118 58.279 11.8204 58.8562 11.7061C59.4105 11.5575 60.502 11.3803 60.9992 11.2375C61.5021 11.106 61.9707 10.9289 62.1422 10.9289C62.285 10.9289 62.5193 11.0032 62.6908 11.1346C62.8508 11.2489 63.1651 11.4946 63.3366 11.6261M62.5822 9.5859C62.4908 9.69448 62.3707 9.98593 62.3193 10.1574C62.2336 10.3402 62.285 10.5403 62.1764 10.5574C62.085 10.6031 61.5992 10.6546 61.5992 10.6546C61.5992 10.6546 61.6793 10.4431 61.5478 10.3402C61.405 10.2602 61.0735 10.1345 60.7935 10.1574C60.5077 10.1574 59.1019 10.3002 58.6504 10.3402C58.2161 10.3917 56.9417 10.5574 56.696 10.5974C56.4331 10.6317 56.1702 10.5974 55.9873 10.5117C55.793 10.4374 55.1073 10.1574 54.9073 10.0202C54.7244 9.86592 54.6272 9.80306 54.5529 9.78592L54.2558 9.73449L54.3929 9.36873C54.4501 9.25444 54.5529 9.07157 54.5529 9.07157H58.159C58.9648 9.08871 61.3364 9.08871 61.5592 9.08871C61.8278 9.08871 62.1593 9.20301 62.2793 9.21444L62.5308 9.2373C62.5308 9.2373 62.6565 9.51733 62.5765 9.58019M16.464 19.9468C15.6982 19.7639 14.5381 19.4267 14.3438 19.2381C14.1381 19.0381 14.0467 18.8324 13.9895 18.6038C13.9381 18.3695 13.5552 17.8609 13.3723 17.7866C13.1895 17.6837 12.7208 17.4266 12.7208 17.4266V16.9979C12.7208 16.9979 13.4295 16.998 13.7895 16.9522C14.1667 16.8779 15.6297 16.8779 16.6069 16.8379C17.5956 16.7922 21.413 16.6265 22.6074 16.5579C23.8589 16.4779 29.3051 16.2036 30.328 16.1236C31.3396 16.0436 38.5459 15.5578 39.5631 15.4607C40.5632 15.375 46.5123 14.9006 47.4266 14.8206C48.3638 14.7349 51.4956 14.4377 52.5871 14.3463C53.7129 14.272 53.85 14.1177 54.0557 14.1006C54.2329 14.0777 54.3587 13.9748 54.5472 14.1863C54.7301 14.4035 55.0958 14.7863 55.313 14.9463C55.5473 15.0949 56.2274 15.5464 56.2502 15.7579C56.2502 15.975 56.0674 16.2665 55.9359 16.4779C55.8502 16.6722 55.8502 17.0951 55.8502 17.0951L55.1416 17.2323C55.1416 17.2323 55.2101 17.0494 55.2159 16.9522C55.2159 16.8608 55.1073 16.5522 54.8101 16.4551C54.5244 16.3122 54.0215 16.2665 53.5243 16.3522C53.0499 16.455 50.8269 16.8322 49.9011 16.9865C49.0096 17.1408 43.7692 18.0209 42.4891 18.2038C41.2204 18.4152 36.1628 19.2038 34.9684 19.3524C33.7741 19.5524 29.128 20.1354 27.505 20.2839C25.8591 20.4668 23.8989 20.6497 22.8188 20.7068C21.7159 20.7697 20.5958 20.8669 19.8129 20.7926C19.0071 20.6897 17.2469 20.1468 16.4754 19.941M24.1161 25.8101C23.236 25.6901 22.2531 25.4787 21.9102 25.4158C21.5616 25.3815 21.253 25.2958 21.0815 24.9015C20.9444 24.49 20.973 24.1928 20.7044 23.9128C20.4586 23.6328 20.1443 23.3413 19.9272 23.2499C19.7214 23.1756 19.4071 23.187 19.3557 23.0899C19.2928 22.8899 19.3043 22.6441 19.3043 22.6441C19.3043 22.6441 19.6014 22.6899 19.9272 22.6441C20.2472 22.627 20.5272 22.4727 20.9044 22.4384C21.2873 22.4213 22.4417 22.3756 23.0874 22.347C23.7161 22.3241 25.5848 22.1412 26.2477 22.0784C26.8992 22.027 29.9909 21.7241 31.0138 21.5812C32.0253 21.4498 37.5458 20.6668 38.4773 20.5182C39.3802 20.4039 44.0035 19.7068 45.2493 19.4839C46.5237 19.2724 50.7412 18.5067 51.8156 18.3066C52.9128 18.0952 54.2272 17.8895 54.7072 17.7866C55.193 17.6723 55.513 17.4666 55.7931 17.5237C56.0616 17.6094 56.3359 17.8095 56.6731 17.9752C56.9989 18.1238 57.536 18.3009 57.8103 18.3981C58.0961 18.4952 58.3704 18.6552 58.399 18.7524C58.4218 18.861 58.399 19.2896 58.2675 19.4896C58.1589 19.6953 58.0789 19.8668 58.0275 20.0782C57.9932 20.3297 57.9647 20.5011 57.9647 20.5011L57.296 20.7583C57.296 20.7583 57.4046 20.4497 57.296 20.2954C57.1932 20.1754 56.8331 19.8896 56.6388 19.9182C56.4274 19.9239 56.1417 19.9639 55.8331 20.0611C55.5187 20.1754 51.5127 21.3869 50.8726 21.5583L46.1122 22.8727C45.5008 23.0613 41.7404 23.9814 40.6946 24.1928C39.6088 24.4329 35.6656 25.2215 34.6827 25.3987C33.7169 25.5872 30.0195 26.0559 29.0537 26.113C28.105 26.1816 27.945 26.2102 27.1964 26.1644C26.442 26.1416 25.0133 25.9473 24.0989 25.793M37.883 30.9648C37.3458 31.0163 35.2542 30.8334 34.4141 30.7191C33.5512 30.6048 31.1395 30.2276 30.8081 30.1534C30.4709 30.0333 30.2652 29.9076 30.088 29.6733C29.8937 29.439 29.7337 29.2904 29.408 29.1018C29.0708 28.959 28.6822 28.7361 28.4136 28.6504C28.1564 28.5418 28.0364 28.5018 27.8478 28.4218C27.665 28.3589 27.4878 28.3361 27.3849 28.256C27.2764 28.1932 27.2421 28.0503 27.2421 28.0503C27.2421 28.0503 29.9509 27.7703 30.5452 27.6731C31.1624 27.5931 35.3056 27.0102 36.3057 26.8102C37.3001 26.5873 41.5804 25.6615 42.3462 25.4615C43.1234 25.3129 47.7981 24.0671 48.7467 23.8271C49.6725 23.5699 52.81 22.6841 53.6557 22.4156C54.513 22.147 57.016 21.404 57.2903 21.284C57.5703 21.1526 57.8561 20.9583 58.1418 20.9869C58.4104 21.0097 59.2276 21.2726 59.5191 21.3583C59.8162 21.4498 60.5763 21.5755 60.7249 21.7183C60.8506 21.8384 60.9363 21.9641 60.8849 22.1584C60.8506 22.3698 60.8735 23.4899 60.8849 23.5756C60.9078 23.7299 61.1878 23.9471 61.1878 23.9471L60.4792 24.2157C60.3249 24.29 60.0048 24.41 60.0048 24.41C60.0048 24.41 60.0791 24.0843 60.0277 23.9871C59.9934 23.9128 59.5705 23.6728 59.4791 23.6499C59.3305 23.6271 59.2219 23.6499 58.9076 23.7528C58.5876 23.8328 57.7932 24.2157 57.3932 24.3986C56.9874 24.5757 54.6272 25.5072 53.93 25.7701C53.1928 26.0673 50.3354 27.1874 49.3982 27.4903C48.4781 27.816 44.3064 29.2504 43.5292 29.4904C42.7634 29.719 40.026 30.4905 39.3688 30.6734C38.7173 30.8391 38.4144 30.9534 37.8715 30.9706M45.7465 34.6966C44.8893 34.7252 43.1691 34.6623 42.6319 34.6451C42.089 34.628 41.3175 34.5823 40.9175 34.4623C40.4946 34.268 40.4375 34.068 40.1803 33.7822C39.9346 33.4736 39.4488 33.1822 39.2202 33.125C38.9974 33.0222 38.643 33.0107 38.5059 33.0507C38.443 33.0622 38.4087 32.7136 38.4087 32.7136C38.4087 32.7136 39.2888 32.5192 39.5345 32.3707C39.7688 32.2792 41.1918 31.8621 41.6261 31.7249C42.0719 31.5935 43.6606 31.1763 44.3349 30.9477C44.9807 30.7305 48.101 29.6676 48.701 29.4447C49.3182 29.2504 53.0328 27.8674 53.7529 27.5703C54.4901 27.2845 58.5933 25.6158 59.199 25.3815C59.7819 25.1301 60.382 24.89 60.5706 24.7643C60.7878 24.6043 61.4564 24.2786 61.7707 24.21C62.085 24.13 62.7022 24.0271 62.9879 24.0443C63.2737 24.0443 63.4794 24.0271 63.5994 24.1528C63.708 24.3129 63.748 24.4729 63.7423 24.7072C63.7194 24.9186 63.8052 25.4615 64.0509 25.6673C64.3081 25.8558 64.6909 26.0559 65.1252 26.1473C65.5481 26.2616 65.9539 26.313 66.1025 26.3244C66.2568 26.3416 66.3596 26.3244 66.3596 26.3244C66.3596 26.3244 65.5253 26.8445 65.3024 26.9416L64.2223 27.4845C64.2223 27.4845 64.1309 27.2617 64.0395 27.2045C63.9366 27.176 63.5251 27.1759 63.1994 27.1988C62.8908 27.2445 62.5536 27.3474 62.2507 27.5074C61.9593 27.7017 59.1076 29.2218 58.5476 29.5076C57.9875 29.8047 53.6272 32.0678 53.0385 32.3421C52.4271 32.6164 49.6268 33.9822 49.1811 34.2051C48.7296 34.3994 48.4553 34.5594 48.021 34.6166C47.6038 34.6566 46.6151 34.6794 45.7351 34.6909M54.9073 37.5025C54.0786 37.6568 52.347 37.9426 51.987 37.9597C51.6498 37.9883 51.1641 37.9883 50.8783 37.6683C50.5812 37.3654 50.4212 36.8911 50.0211 36.691C49.6268 36.5025 49.3696 36.3767 49.1068 36.4053C48.5753 36.491 48.5353 36.291 48.5353 36.291C48.5353 36.291 51.9356 34.5709 52.427 34.3766C52.9585 34.148 58.0275 31.5535 58.6676 31.182C59.3248 30.8277 63.0508 28.8047 63.8394 28.376C64.6452 27.9189 65.7653 27.3302 65.931 27.1931C66.1025 27.0959 66.2453 26.9131 66.4568 26.8559C66.6968 26.7759 66.834 26.7531 66.834 26.7531C66.834 26.7531 67.1597 27.176 67.3197 27.3817C67.5083 27.5931 67.8969 27.9932 68.3541 28.056C68.8056 28.1189 69.0227 28.1246 69.3028 28.1075C69.5714 28.0903 70.0685 27.976 70.0685 27.976C70.0685 27.976 68.8342 29.1418 68.6227 29.3133C68.3998 29.5133 65.6967 31.7192 65.1652 32.1935C64.6223 32.6621 62.6565 34.2051 62.2164 34.5423C61.7764 34.9023 60.3534 35.9653 60.0506 36.1196C59.7305 36.2853 58.9419 36.5825 58.4676 36.7025C57.9761 36.8453 55.7245 37.3254 54.9073 37.5025ZM66.8568 38.5026C66.7082 38.6169 66.2625 38.5369 65.9996 38.3712C65.6739 38.1654 65.3596 38.3312 64.9424 38.4226C64.5309 38.5369 63.7937 38.7598 63.2965 38.8741C62.8736 38.9884 61.6793 39.2512 61.3707 39.2512C61.0621 39.2512 60.7134 39.217 60.5191 39.0284C60.3363 38.7941 59.9077 38.3312 59.6791 38.2283C59.4676 38.1254 59.199 38.0797 59.0676 38.1254C58.9419 38.2112 58.4676 38.4969 58.3875 38.2797C58.3875 38.2797 60.2277 36.9311 60.622 36.5996C61.0278 36.2796 62.6908 34.9766 63.1194 34.6166C63.5823 34.2565 65.531 32.6735 66.1082 32.1935C66.714 31.7135 68.4855 30.1933 68.9484 29.7876C69.4227 29.359 70.3257 28.4846 70.3257 28.4846C70.3257 28.4846 70.3886 28.8275 70.5486 28.9875C70.7086 29.079 70.92 29.3761 71.3258 29.559C71.703 29.6962 72.2402 29.7247 72.6173 29.7133C73.0116 29.6962 73.3717 29.6619 73.5202 29.6619C73.6802 29.6619 73.926 29.7247 73.926 29.9933C73.9431 30.2219 73.9717 30.4162 73.9717 30.5305C73.9717 30.662 74.006 30.7705 74.006 30.7705L71.2858 33.7879C70.7543 34.3766 69.2342 36.0281 68.737 36.5253C68.2398 37.0339 66.9883 38.3769 66.8511 38.5026M87.8129 60.6073L87.43 61.2531L87.0871 61.0931C87.0871 61.0931 87.3271 60.8874 87.2414 60.6931C87.15 60.5216 87.0414 60.3273 86.7499 60.1902C86.4871 60.0359 85.2641 59.5387 84.7269 59.2701C84.184 59.0243 81.8752 57.7614 81.0352 57.2299C80.2008 56.6698 78.1549 55.264 77.1663 54.4868C76.2233 53.6982 74.1317 51.6637 73.4288 50.8808C72.7373 50.115 71.2801 48.212 70.8514 47.5091C70.3885 46.8405 69.137 44.5603 68.857 43.9431C68.6113 43.3373 68.4627 42.9487 68.1998 42.703C67.9483 42.463 67.8741 42.4058 67.7655 42.4058C67.6569 42.3829 67.4055 42.3772 67.4055 42.3772C67.4055 42.3772 67.3255 42.1772 67.194 41.7715C67.0912 41.4629 66.9883 41.1543 66.9883 41.1543C66.9883 41.1543 67.554 41.8515 67.8855 41.84C68.2512 41.8172 68.3827 41.7257 68.537 41.6972C68.6741 41.6457 69.0113 41.6229 69.137 41.7086C69.2685 41.7715 69.457 42.0172 69.4513 42.2344C69.4399 42.4629 69.5542 42.943 69.7314 43.2916C69.92 43.6973 70.6914 45.2746 71.1315 45.9947C71.5772 46.7205 72.8688 48.5663 73.4117 49.2178C73.9717 49.8693 75.7833 51.8695 76.2576 52.2981C76.732 52.6924 79.1436 54.6868 80.0008 55.2697C80.858 55.8526 82.9096 57.1956 84.1554 57.8128C85.3841 58.4243 86.9214 59.1329 87.3271 59.3158C87.7329 59.4587 87.9843 59.4987 88.0758 59.613C88.1386 59.733 88.2758 59.853 88.2758 59.853L87.8129 60.6073ZM88.5672 59.2586C88.5329 59.3444 88.4129 59.3329 88.3786 59.2586C88.3215 59.1729 88.5329 58.9386 88.5329 58.6643C88.5329 58.3557 88.3786 57.9443 88.2072 57.7785C88.0529 57.6071 87.5672 57.3842 87.2986 57.2585C87.0128 57.1385 85.7213 56.5213 85.0641 56.1784C84.4069 55.8355 83.0868 55.0754 82.2296 54.504C81.3781 53.9553 80.2237 53.1724 79.4636 52.5895C78.7435 51.978 77.6863 51.058 77.0406 50.4293C76.3834 49.7893 75.309 48.5892 74.6175 47.6977C73.9317 46.8119 73.0516 45.6118 72.5944 44.766C72.1087 43.9031 71.6172 42.8687 71.4515 42.6915C71.2915 42.5315 71.0572 42.2401 70.7143 42.1086C70.3771 42.0172 70.1828 41.9315 70.0285 41.9258C69.8742 41.9258 69.6056 41.9258 69.5828 41.7943C69.5599 41.6915 69.5828 41.6115 69.5828 41.6115C69.5828 41.6115 70.0914 41.5829 70.4743 41.4171C70.8857 41.2514 71.9944 40.9428 72.4344 40.8171C72.8745 40.7085 73.3945 40.4685 73.6174 40.4228C73.8289 40.3542 73.9946 40.2913 74.1317 40.3142C74.2632 40.3485 74.3374 40.4228 74.486 40.6228C74.6289 40.8342 74.8232 41.2857 75.0004 41.4343C75.2118 41.6115 75.509 41.8743 75.9204 41.8286C76.3433 41.7772 76.772 41.7372 77.1206 41.6C77.4463 41.4514 78.0863 41.04 78.2464 40.9428C78.3778 40.88 78.5892 40.7257 78.6635 40.7885C78.7435 40.8628 78.835 41.0057 78.955 41.04C79.0521 41.0685 79.195 41.1943 79.2522 41.3143C79.3036 41.4172 80.2351 42.7544 80.7266 43.3659C81.2238 43.9659 81.961 44.806 82.4696 45.286C82.9782 45.7604 84.4355 47.0348 85.0012 47.4462C85.5956 47.8577 87.2871 48.9892 88.0358 49.3893C88.8015 49.7779 89.7159 50.2807 90.4474 50.5893C91.1903 50.8922 91.9732 51.2065 92.179 51.3037C92.4133 51.418 92.4818 51.5094 92.6133 51.658C92.7733 51.7551 92.859 51.9037 92.7847 52.0638C92.739 52.2066 91.9504 53.4239 91.6132 54.0468C91.2646 54.6697 90.6531 55.6698 90.3674 56.1212C90.1388 56.567 89.4645 57.6357 89.293 58.0071C89.0873 58.3557 88.573 59.1615 88.5501 59.2586M93.0019 60.7559C92.859 61.0988 92.4419 62.1217 92.3047 62.4075C92.179 62.6647 92.0761 62.9275 92.0761 62.9275L91.5275 63.1047C91.5275 63.1047 91.6818 62.8647 91.5846 62.7389C91.4875 62.6075 91.2189 62.3218 91.0532 62.3218C90.8817 62.2989 90.6703 62.3503 90.4645 62.4132C90.2359 62.5046 89.9445 62.5046 89.853 62.3218C89.7388 62.1103 89.4359 61.5845 89.4187 61.4474C89.3844 61.2988 89.2987 61.1045 89.4359 60.8416C89.5788 60.5559 90.5445 58.7672 90.7503 58.43C90.9674 58.11 92.0875 56.2241 92.3447 55.7612C92.5847 55.304 93.2191 54.2468 93.3276 54.0125C93.4534 53.7782 93.5277 53.601 93.4477 53.401C93.3448 53.2239 93.3448 53.1324 93.2533 53.0753C93.139 53.041 92.9562 53.0124 92.9562 53.0124L93.5276 52.0638C93.5276 52.0638 93.8534 52.1552 94.1391 52.1552C94.4591 52.1552 94.7849 52.1438 95.1335 52.2409C95.4935 52.3552 95.9793 52.6181 96.0364 52.8124C96.1221 53.0238 95.9336 53.3782 95.7336 53.8639C95.5278 54.2982 94.5677 56.8699 94.322 57.4071C94.1048 57.95 93.139 60.4302 93.0019 60.7616M97.5909 61.0188C97.5109 61.4245 97.2194 62.7447 97.1165 63.0418C97.0365 63.3504 96.8479 63.8933 96.8308 63.939C96.7851 64.0019 96.3793 64.2534 96.2593 64.2819C96.1564 64.3162 96.0136 64.3848 96.0136 64.3848C96.0136 64.3848 96.185 64.1676 96.1164 64.0019C96.0536 63.859 95.8878 63.6933 95.6707 63.6933C95.4421 63.6933 95.1792 63.8533 95.0078 63.8019C94.8363 63.7562 94.562 63.6419 94.3506 63.1504C94.1334 62.6704 94.122 62.5846 94.202 62.2075C94.2763 61.8189 95.1792 59.653 95.3849 59.1215C95.5792 58.6015 96.4193 56.4527 96.6136 55.9441C96.8251 55.4297 97.1165 54.7383 97.088 54.5268C97.0708 54.3325 96.9108 53.9782 96.8194 53.8811C96.7108 53.7782 96.5736 53.7039 96.505 53.7325C96.4307 53.7496 96.3736 53.6868 96.3736 53.6868L96.665 52.8924C96.665 52.8924 97.1165 52.9438 97.3165 52.9438C97.5165 52.9438 97.8823 52.8924 98.2652 53.0067C98.6881 53.081 99.1567 53.1496 99.2081 53.321C99.2653 53.5324 99.3396 53.6982 99.2596 54.0811C99.1567 54.4582 98.448 57.3499 98.3452 57.87C98.2137 58.3557 97.6651 60.6416 97.5851 61.0131M102.368 56.3784C102.323 56.8184 102.06 59.8187 102.06 60.093C102.06 60.3673 101.98 61.676 101.946 62.1103C101.911 62.4246 101.797 63.259 101.763 63.5561C101.74 63.8533 101.568 64.3848 101.568 64.4534C101.568 64.5162 101.528 64.5962 101.528 64.5962C101.528 64.5962 100.991 65.0591 100.791 65.1506C100.597 65.2306 100.597 65.0363 100.483 64.922C100.363 64.8191 100.191 64.7905 99.8996 64.6362C99.631 64.5219 99.2081 64.1048 99.0081 63.8076C98.8195 63.499 98.751 63.2247 98.871 62.7332C98.9967 62.2417 99.4139 60.5502 99.551 59.9387C99.6768 59.3272 100.082 57.6356 100.208 57.0527C100.345 56.4527 100.591 55.5155 100.591 55.1897C100.591 54.864 100.488 54.5554 100.305 54.4068C100.128 54.2411 100.088 54.2182 99.9853 54.1668C99.8653 54.1211 99.7453 54.0754 99.7453 54.0754L99.8825 53.4353C99.8825 53.4353 100.317 53.4353 100.534 53.4182C100.74 53.401 100.934 53.3667 101.271 53.3839C101.608 53.3839 101.888 53.3839 102.123 53.4696C102.38 53.5667 102.586 53.6868 102.546 54.1154C102.523 54.504 102.397 55.9784 102.368 56.3784ZM77.1263 32.645C77.1263 21.8326 88.8187 12.2947 104.289 12.2947C119.758 12.2947 131.468 21.8384 131.468 32.645C131.468 43.4516 119.764 53.0238 104.289 53.0238C88.813 53.0238 77.1263 43.4916 77.1263 32.645ZM90.9389 6.71709C90.6817 6.52279 90.2702 6.25418 89.9902 6.22561C89.6873 6.19704 89.6073 6.24277 89.4416 6.18562C89.3044 6.13419 89.0873 5.94559 89.0873 5.94559C89.0873 5.94559 89.8131 5.65985 90.1159 5.55127C90.4245 5.41983 91.8075 4.92836 92.7562 4.67691C93.6819 4.39118 94.6706 4.16258 95.8478 3.92256C97.0422 3.68826 98.7852 3.42539 100.191 3.27681C101.568 3.15108 103.386 3.00249 104.466 3.03678C105.523 3.03678 107.997 3.18536 109.009 3.30537C110.003 3.42538 111.969 3.65397 113.141 3.92256C114.312 4.17973 116.501 4.72263 117.461 5.04837C118.421 5.40269 119.581 5.74559 119.707 5.8656C119.821 5.99132 119.958 6.13418 120.136 6.19132C120.296 6.26562 120.49 6.38564 120.49 6.38564C120.49 6.38564 120.016 6.91711 119.684 7.46572C118.741 9.09443 119.867 11.1346 121.359 12.2661C123.336 13.7177 126.902 15.935 127.519 19.2381C127.668 20.0039 127.622 21.404 127.622 21.404C127.622 21.404 127.325 21.0669 127.148 20.8954C126.999 20.7125 126.919 19.8953 126.725 19.461C126.53 19.0095 125.833 18.0895 125.427 17.6437C124.993 17.2265 124.245 16.4379 122.673 15.4207C121.204 14.4777 119.701 13.6605 118.09 13.0433C116.478 12.4433 115.341 11.9747 113.392 11.5346C111.466 11.1117 108.94 10.6889 106.192 10.5803C103.448 10.4946 101.077 10.7346 99.4767 10.9117C97.8823 11.1289 95.6307 11.5346 93.5448 12.2547C91.4703 12.929 90.956 13.1919 90.3159 13.5005C89.6416 13.8091 88.0758 14.5978 87.51 14.9921C86.9271 15.3635 86.0013 16.0093 85.447 16.3579C84.8812 16.7179 84.7726 17.0037 84.4297 16.9179C83.9554 16.8094 83.8183 16.3579 83.8183 16.3579C83.8183 16.3579 84.2354 15.8779 84.6412 15.4778C85.0298 15.0721 85.9727 14.272 86.5728 13.7805C87.1728 13.2891 88.3158 12.2947 88.5044 12.1176C88.7044 11.9404 89.213 11.3289 89.213 11.3289C89.213 11.3289 89.3844 11.6832 89.6759 11.5689C89.9788 11.4889 90.4417 11.1403 90.7331 10.706C91.0246 10.2488 91.5103 9.22016 91.3789 8.36295C91.2703 7.47716 91.1617 6.87711 90.9274 6.72281M154.276 10.866C154.133 10.6546 153.87 10.4031 153.533 10.3174C153.19 10.2031 151.801 10.0888 151.304 10.1002C150.818 10.1231 149.624 10.1459 149.064 10.1231C148.481 10.1002 147.967 10.0088 147.738 9.88307C147.486 9.79164 147.566 9.83735 147.464 9.79164C147.281 9.72877 147.155 9.85449 147.155 9.85449C147.155 9.85449 147.058 9.55732 147.058 9.47731C147.058 9.4316 147.092 9.32302 147.092 9.32302C147.092 9.32302 147.692 9.3516 148.115 9.27159C148.532 9.22016 149.75 9.03157 150.532 8.91728C151.31 8.78584 152.807 8.53438 153.287 8.4258C153.778 8.34008 154.384 8.24293 154.59 8.34008C154.784 8.41437 154.944 8.6144 154.967 8.83156C155.001 9.03158 155.156 9.50589 155.224 9.67733C155.276 9.87164 155.424 10.1688 155.407 10.266C155.361 10.3688 155.121 10.6831 154.944 10.826C154.75 10.9917 154.333 11.4146 154.333 11.4146C154.333 11.4146 154.396 11.0717 154.264 10.866M147.206 11.1632C147.561 11.2146 149.138 11.4089 149.767 11.5003C150.378 11.6204 152.047 11.8375 152.533 11.8947C153.007 11.9518 153.727 11.9175 153.961 11.9747C154.373 12.0604 154.293 12.4376 154.327 12.6719C154.373 12.9176 154.413 13.3176 154.378 13.4091C154.333 13.5005 154.121 13.7291 153.87 13.9234C153.658 14.1006 153.413 14.2149 153.281 14.3006C153.144 14.3863 153.327 13.9863 153.178 13.8377C153.076 13.7348 152.853 13.6377 152.47 13.5634C152.11 13.4834 151.51 13.3405 151.167 13.2776C150.812 13.2034 149.435 12.9176 148.892 12.8262C148.349 12.7176 147.732 12.6662 147.366 12.5004C146.989 12.3176 146.738 12.009 146.532 11.9404C146.326 11.8375 146.075 11.7975 146.075 11.7975L146.052 11.5175C146.052 11.5175 146.395 11.1917 146.498 11.1917C146.584 11.1917 146.829 11.1403 147.206 11.1632ZM151.841 17.1922C151.698 16.9865 151.098 16.7579 150.744 16.6494C150.35 16.5465 149.235 16.2036 148.624 16.0207C148.018 15.8379 147.012 15.495 146.681 15.4035C146.332 15.3007 145.926 15.2092 145.703 15.0607C145.463 14.8949 145.206 14.6377 145.103 14.5863C145.001 14.5235 144.732 14.4835 144.732 14.4835C144.732 14.4835 144.703 13.7863 144.806 13.7405C144.898 13.7063 145.195 13.8148 145.338 13.792C145.452 13.7863 145.823 13.7863 146.178 13.8605C146.526 13.952 148.384 14.4377 149.138 14.5692C149.881 14.7292 150.858 14.9749 151.504 15.0778C152.115 15.1807 152.544 15.1807 152.658 15.4207C152.807 15.6378 152.778 16.1179 152.778 16.3579C152.767 16.6093 152.841 17.1522 152.778 17.2323C152.755 17.3008 152.43 17.438 152.207 17.518C151.99 17.6094 151.893 17.6494 151.893 17.6494C151.893 17.6494 152.001 17.3923 151.853 17.198M150.755 20.3582C150.67 20.444 150.538 20.4725 150.281 20.5011C150.024 20.5411 149.881 20.5811 149.881 20.5811C149.881 20.5811 150.11 20.3411 149.904 20.1582C149.675 19.9411 149.618 19.8725 149.138 19.6553C148.687 19.501 147.915 19.181 147.566 19.0438C147.218 18.9295 145.755 18.2381 145.338 18.1009C144.932 17.958 144.08 17.6323 143.783 17.4723C143.486 17.3008 143.366 17.2437 143.269 17.1294C143.206 16.998 142.892 16.958 142.892 16.958C142.892 16.958 142.955 16.7179 143 16.4608C143.035 16.2036 142.978 16.0436 143.063 16.0264C143.149 15.9807 143.309 16.1007 143.492 16.055C143.686 16.0436 143.88 16.0265 144 16.1179C144.16 16.2036 144.806 16.415 145.132 16.5351C145.446 16.6551 147.155 17.2723 147.721 17.478C148.269 17.6894 149.287 18.0895 149.744 18.2095C150.172 18.3809 150.487 18.4209 150.647 18.5638C150.807 18.7238 150.961 18.9467 150.932 19.2439C150.927 19.5525 150.978 19.5982 150.847 19.7639C150.75 19.9125 150.732 19.9468 150.687 20.0211C150.675 20.1296 150.807 20.2897 150.738 20.364M148.287 22.7699C148.201 22.8556 147.944 22.8613 147.772 22.9242C147.612 22.9813 147.441 22.9813 147.441 22.9813C147.441 22.9813 147.589 22.8899 147.555 22.7127C147.521 22.5584 147.384 22.3355 147.081 22.2555C146.749 22.1755 146.389 22.1641 146.109 22.0841C145.846 22.0212 145.595 21.9012 145.161 21.6612C144.726 21.4212 143.852 20.8783 143.378 20.6497C142.926 20.4097 142.086 19.9525 141.783 19.7639C141.503 19.5867 141.389 19.4953 141.235 19.4496C141.086 19.3982 140.903 19.3924 140.806 19.4153C140.703 19.4496 140.389 19.3639 140.389 19.3639C140.389 19.3639 140.794 19.3353 140.874 19.1753C140.966 18.9981 140.932 18.5924 140.966 18.4152C140.994 18.2323 140.983 18.1409 141.046 18.1295C141.126 18.1066 141.332 18.2323 141.52 18.2495C141.715 18.2609 141.943 18.2495 142.257 18.4152C142.583 18.5638 143.915 19.2896 144.595 19.5925C145.303 19.8896 146.692 20.6097 147.138 20.7697C147.555 20.9297 148.264 21.1754 148.372 21.4097C148.464 21.5926 148.532 21.7698 148.395 21.9927C148.281 22.1698 148.207 22.2898 148.252 22.3984C148.287 22.547 148.395 22.6956 148.298 22.7756M143.812 24.6386C143.549 24.4957 143.212 24.4786 142.898 24.3814C142.612 24.2786 142.086 23.9185 141.777 23.69C141.463 23.4499 140.674 22.8499 140.309 22.6041C139.932 22.3355 139.394 21.8955 139.143 21.7698C138.863 21.6669 138.377 21.5698 138.086 21.5526C137.817 21.5412 137.468 21.5698 137.428 21.5526C137.366 21.5412 137.286 21.8612 137.148 21.7698C137.034 21.6612 136.977 21.6498 136.84 21.5526C136.686 21.4726 136.668 21.4269 136.668 21.4269L136.686 21.1412C136.686 21.1412 136.886 21.0726 137.137 21.0726C137.388 21.0726 137.623 21.1012 137.914 20.9983C138.206 20.884 138.206 20.9183 138.371 20.804C138.566 20.684 138.657 20.6554 138.863 20.5182C139.051 20.4154 139 20.2382 139.109 20.2211C139.24 20.2211 139.589 20.1754 139.697 20.2211C139.812 20.2954 140.566 20.9011 141 21.1697C141.446 21.4269 142.8 22.2555 143.309 22.5756C143.806 22.8899 144.572 23.2899 144.812 23.5242C145.063 23.7528 145.218 23.8499 145.212 24.0671C145.201 24.2843 145.029 24.4271 144.943 24.5929C144.858 24.7529 144.869 24.9129 144.812 25.0615C144.749 25.1644 144.709 25.3072 144.709 25.3072L144.086 25.4272C144.086 25.4272 144.258 25.2901 144.218 25.1186C144.195 24.9586 144.086 24.7929 143.818 24.6386M140.777 26.9645C140.64 26.8673 140.343 26.6845 140.04 26.5416C139.726 26.3759 139.263 25.9759 138.869 25.673C138.497 25.3872 137.474 24.4214 137.274 24.2157C137.04 24.0043 136.337 23.4213 136.154 23.3413C135.983 23.2556 135.463 23.1813 135.268 23.1528C135.08 23.1013 134.794 23.0327 134.794 23.0327C134.794 23.0327 134.674 23.2499 134.611 23.2499C134.474 23.2499 134.508 23.2328 134.508 23.2328C134.508 23.2328 134.52 23.2328 134.405 23.1299C134.303 23.027 134.205 22.9127 134.205 22.9127C134.205 22.9127 134.251 22.8099 134.263 22.6441C134.28 22.5127 134.303 22.3184 134.4 22.3298C134.474 22.3298 134.823 22.5299 135.08 22.5299C135.337 22.5299 135.365 22.4784 135.365 22.4784C135.365 22.4784 135.485 22.2498 135.8 22.187C136.108 22.1355 136.228 22.1184 136.326 22.1184C136.434 22.1184 136.583 22.0841 136.908 22.2327C137.234 22.3527 138.137 23.1127 138.48 23.3699C138.829 23.6385 140.2 24.73 140.577 25.0386C140.983 25.3529 141.412 25.6501 141.537 25.753C141.657 25.8616 142.035 26.2444 141.96 26.4102C141.869 26.5816 141.675 26.7759 141.617 26.9416C141.583 27.1245 141.572 27.376 141.537 27.4674C141.503 27.576 141.286 27.616 141.195 27.6103C141.086 27.5874 140.783 27.576 140.783 27.576C140.783 27.576 140.949 27.456 141 27.336C141.046 27.2217 140.949 27.1074 140.783 26.9702M137.48 28.6389C137.291 28.5132 137.063 28.3989 136.743 28.2218C136.44 28.0617 136.188 27.8331 135.943 27.576C135.731 27.3131 135.217 26.633 134.965 26.3416C134.714 26.0673 134.102 25.2901 133.851 25.0329C133.542 24.7529 133.257 24.5014 132.908 24.4271C132.554 24.37 132.462 24.3414 132.382 24.3414C132.291 24.3414 132.171 24.5586 132.199 24.6272C132.217 24.69 132.051 24.5586 131.914 24.37C131.765 24.1528 131.394 23.5871 131.394 23.5871C131.394 23.5871 131.954 23.7871 132.251 23.7871C132.577 23.7871 132.817 23.8042 132.902 23.7757C132.942 23.7585 133.091 23.5185 133.388 23.4385C133.708 23.3528 134.005 23.4156 134.291 23.6099C134.6 23.85 136.086 25.3472 136.303 25.5415C136.52 25.7415 137.48 26.6959 137.771 26.9588C138.074 27.2331 138.56 27.7131 138.657 27.9074C138.731 28.1189 138.777 28.2675 138.703 28.3818C138.64 28.4732 138.526 28.5532 138.486 28.6904C138.434 28.8047 138.411 29.1075 138.337 29.1876C138.263 29.2904 138.166 29.3819 137.96 29.3819C137.754 29.3819 137.531 29.3361 137.531 29.3361C137.531 29.3361 137.771 29.2333 137.771 29.0847C137.771 28.959 137.709 28.7247 137.486 28.6332M146.744 9.88307C146.641 10.0317 146.652 10.226 146.652 10.2774V10.4203C146.652 10.4203 146.555 10.4717 146.446 10.5574C146.349 10.626 145.846 10.906 145.846 10.906C145.846 10.906 145.846 10.8031 145.766 10.6203C145.681 10.4203 145.389 10.266 145.189 10.2202C144.989 10.1574 144.218 10.1174 143.898 10.1117C143.572 10.1002 142.8 10.0659 142.469 10.0374C142.172 10.0259 142.012 9.97451 141.875 9.97451C141.737 9.97451 141.606 9.98593 141.497 10.0659C141.366 10.1574 141.326 10.266 141.252 10.266C141.166 10.2831 141.046 10.266 140.983 10.266C140.926 10.266 140.817 10.346 141 10.5174C141.269 10.8031 141.703 10.8432 142.057 10.8832C142.435 10.9346 142.949 11.0317 143.343 11.1003C143.738 11.1632 144.252 11.2603 144.583 11.3461C144.921 11.4261 145.241 11.4261 145.378 11.4375C145.492 11.4832 145.686 11.5575 145.686 11.6718C145.663 11.7861 145.635 11.9061 145.601 12.0204C145.555 12.1118 145.555 12.2947 145.566 12.3804C145.589 12.5004 145.555 12.569 145.463 12.6204C145.372 12.6833 145.001 12.8033 144.909 12.8605C144.818 12.9062 144.658 12.8948 144.658 12.8948C144.658 12.8948 144.715 12.649 144.658 12.609C144.606 12.5519 144.486 12.3976 144.201 12.3176C143.932 12.2318 143.16 12.0318 142.823 11.9632C142.469 11.9004 141.869 11.7289 141.457 11.6546C141.063 11.5746 140.789 11.4432 140.68 11.5632C140.566 11.6718 140.532 11.7518 140.44 11.7518C140.377 11.7804 140.269 11.7289 140.194 11.7861C140.109 11.8718 140.006 11.9632 140.092 12.0433C140.16 12.1404 140.417 12.3004 140.686 12.3861C140.949 12.5062 141.84 12.7119 142.2 12.849C142.606 12.9519 143.269 13.2319 143.623 13.3119C143.978 13.3805 144.36 13.4948 144.423 13.7005C144.498 13.8834 144.486 14.0777 144.36 14.2034C144.218 14.3234 144.2 14.4892 144.155 14.5406C144.132 14.6263 144.063 14.8206 144.063 14.8206C144.063 14.8206 143.749 15.0492 143.669 15.0721L143.355 15.2035C143.355 15.2035 143.463 15.0492 143.355 14.7978C143.24 14.5406 142.949 14.4149 142.549 14.2206C142.183 14.0377 141.4 13.7577 141.109 13.6434C140.817 13.5291 139.852 13.1576 139.617 13.0662C139.406 13.0033 139.154 12.9176 138.943 12.9462C138.726 13.009 138.634 13.129 138.686 13.2262C138.749 13.3233 138.903 13.3748 138.903 13.5062C138.903 13.6091 138.903 13.7177 138.851 13.7634C138.789 13.7634 138.777 13.7977 138.777 13.7977C138.777 13.7977 139.269 14.1463 139.623 14.2949C139.972 14.472 140.823 14.8892 141.052 15.0321C141.257 15.1349 141.966 15.4664 142.12 15.5921C142.28 15.7064 142.629 15.9064 142.555 16.0722C142.497 16.2379 142.44 16.5065 142.423 16.5865C142.389 16.6779 142.44 16.7465 142.292 16.8094C142.155 16.8665 141.595 17.0208 141.595 17.0208C141.595 17.0208 141.595 16.9008 141.56 16.8094C141.537 16.7294 141.423 16.5865 141.115 16.4093C140.834 16.2607 139.794 15.6321 139.509 15.4893C139.251 15.3692 138.577 14.9864 138.423 14.8664C138.28 14.7349 137.909 14.4263 137.771 14.3577C137.64 14.3006 137.377 14.152 137.211 14.3349C137.063 14.4663 136.994 14.7521 137.068 14.8492C137.166 14.9635 137.366 15.1292 137.366 15.1292C137.366 15.1292 137.194 15.2721 137.217 15.3407C137.24 15.415 137.726 15.7464 138.074 16.0036C138.423 16.2836 139.36 16.8951 139.6 17.0551C139.834 17.2208 140.343 17.5466 140.503 17.6837C140.652 17.8323 140.703 17.9695 140.583 18.1181C140.457 18.2152 140.423 18.3924 140.423 18.3924C140.423 18.3924 140.44 18.5409 140.44 18.6209C140.44 18.7238 140.417 18.781 140.417 18.781C140.417 18.781 140.343 18.8553 140.149 18.8953C139.954 18.9181 139.674 18.9467 139.674 18.9467C139.674 18.9467 139.612 18.8324 139.629 18.7181C139.64 18.5695 139.514 18.4838 139.303 18.3124C139.074 18.1181 138.366 17.6037 138.006 17.3408C137.646 17.0837 136.96 16.6208 136.788 16.4493C136.628 16.3008 136.337 15.855 136.166 15.7121C136 15.5921 135.783 15.4435 135.594 15.5007C135.405 15.5864 135.183 15.7236 135.165 15.9064C135.143 16.0722 135.103 16.2322 135.234 16.3122C135.343 16.3865 135.497 16.4893 135.497 16.5522C135.497 16.5865 135.32 16.6551 135.354 16.7636C135.4 16.8665 136.011 17.3351 136.291 17.558C136.594 17.8152 137.543 18.5524 137.777 18.7467C138.029 18.9753 138.463 19.3639 138.514 19.5867C138.583 19.7582 138.549 20.1011 138.469 20.2211C138.394 20.3125 138.206 20.3525 138 20.3811C137.8 20.4325 137.543 20.4611 137.543 20.4611C137.543 20.4611 137.64 20.2439 137.583 20.1411C137.543 20.0496 137.137 19.7925 136.828 19.5353C136.526 19.2839 135.588 18.4895 135.234 18.1923C134.891 17.9066 134.525 17.5466 134.423 17.2894C134.285 17.0437 134.08 16.6836 133.794 16.6836C133.48 16.6836 133.188 16.7408 133.011 16.9751C132.84 17.2151 132.84 17.4723 132.965 17.5751C133.097 17.678 133.342 17.8323 133.268 17.8723L133 18.038C133 18.038 133.268 18.1866 133.645 18.5181C134.057 18.8552 134.76 19.4382 135.028 19.6839C135.314 19.9411 135.84 20.4611 135.948 20.5468C136.034 20.644 136.206 20.9011 136.194 21.0897C136.177 21.3069 136.131 21.5412 136.086 21.6498C136.017 21.7641 136.103 21.8155 135.954 21.8955C135.805 21.9812 135.514 21.9812 135.428 21.9812C135.325 21.9812 135.24 21.9355 135.24 21.9355C135.24 21.9355 135.468 21.7641 135.457 21.6669C135.44 21.5869 135.148 21.2726 134.914 21.0783C134.731 20.9011 133.708 20.0439 133.348 19.701C132.971 19.3582 132.445 18.8267 132.308 18.5238C132.194 18.1752 132.194 17.7866 132.005 17.5066C131.817 17.2323 131.377 16.9065 131.205 16.6208C130.999 16.335 130.365 15.3692 130.068 14.7635C129.765 14.1691 129.451 13.7005 129.382 13.1691C129.313 12.6662 129.371 12.3347 129.262 12.1747C129.188 12.0147 128.976 11.7575 128.885 11.7575C128.771 11.7575 128.422 11.7232 128.422 11.7232C128.422 11.7232 128.645 11.3518 129.256 10.9289C129.816 10.5746 130.674 10.1917 131.205 10.0259C131.748 9.86593 133.702 9.41445 134.583 9.33444C135.485 9.26015 137.874 9.24873 138.663 9.23158C139.44 9.22015 140.949 9.25444 141.429 9.24873C141.955 9.23158 142.663 9.24873 143.189 9.24873C143.715 9.24873 144.749 9.23158 145.063 9.23158C145.401 9.23158 146.023 9.19158 146.195 9.24873C146.384 9.29445 146.709 9.34016 146.744 9.47731C146.778 9.63161 146.824 9.75163 146.744 9.90022M131.822 20.2154C132.051 20.3868 132.468 20.6668 132.588 20.7354C132.731 20.7983 133.234 21.3183 133.365 21.484C133.514 21.6441 133.851 21.9527 133.817 22.1412C133.811 22.3413 133.651 22.867 133.537 22.9699C133.411 23.1185 133.234 23.2671 133.085 23.2785C132.937 23.2785 132.674 23.2556 132.674 23.2556C132.674 23.2556 133 23.1528 133 23.0042C133 22.8842 132.942 22.7584 132.697 22.5127C132.468 22.2784 132.377 22.187 132.119 21.8327C131.879 21.5183 131.668 21.1526 131.668 21.1526L131.497 21.1983L131.314 21.2326C131.314 21.2326 131.239 20.6725 131.194 20.3411C131.108 20.0439 131.005 19.781 130.954 19.621C130.891 19.4267 130.805 19.1181 130.805 19.1181C130.805 19.1181 131.611 20.0382 131.822 20.2154ZM131.108 24.5357L131.142 24.2957C131.142 24.2957 131.537 24.7986 131.645 24.9529C131.771 25.0958 132.165 25.4158 132.291 25.6158C132.462 25.7987 133.137 26.673 133.405 27.0731C133.691 27.4503 134.48 28.5246 134.651 28.7418C134.788 28.9418 135.234 29.559 135.217 29.7419C135.165 29.9305 135.131 30.1533 135.057 30.3305C134.965 30.5077 134.874 30.7077 134.788 30.7305C134.714 30.7362 134.268 30.7477 134.268 30.7477C134.268 30.7477 134.388 30.5762 134.388 30.4791C134.388 30.3648 134.2 30.0448 133.925 29.9076C133.668 29.7647 133.142 29.4619 133.022 29.3476C132.902 29.2047 132.525 28.2503 132.365 27.9074C132.165 27.5017 131.805 26.8216 131.565 26.5073C131.354 26.1873 131.217 25.8616 131.125 25.8273C131.039 25.8044 131.074 25.873 130.942 25.8844C130.805 25.9016 130.702 25.8273 130.702 25.8273C130.702 25.8273 130.908 25.3644 130.942 25.1644C130.977 24.9643 131.074 24.6272 131.097 24.5357M139.457 40.9142C139.149 40.6971 138.697 40.5085 138.354 40.3713C138.029 40.2456 137.303 40.017 136.828 39.817C136.366 39.6456 136.103 39.4913 135.925 39.297C135.674 39.0341 135.205 38.1311 134.914 37.6225C134.645 37.1139 133.828 35.5538 133.611 35.148C133.394 34.7252 133.302 34.4966 133.268 34.2337C133.222 33.9765 133.217 33.0565 133.125 32.8164C133.04 32.605 132.782 32.1592 132.611 32.0506C132.445 31.9021 132.394 31.8849 132.302 31.8449C132.239 31.7935 131.988 31.7249 131.988 31.7249C131.988 31.7249 131.954 31.3934 131.954 31.3363C131.954 31.2506 131.931 31.1534 131.931 31.1534C131.931 31.1534 132.565 31.222 132.931 31.222C133.32 31.222 133.651 31.182 133.828 31.222C133.977 31.2506 134.194 31.222 134.348 31.422C134.52 31.6163 134.6 31.9535 134.691 32.1592C134.743 32.3707 135.914 34.0394 136.126 34.2908C136.314 34.5366 137.177 35.7024 137.537 36.171C137.914 36.6568 138.92 37.9597 139.211 38.3483C139.503 38.7141 140.103 39.337 140.252 39.5541C140.394 39.7827 140.783 40.3085 140.84 40.4456C140.92 40.5656 140.754 40.7314 140.669 40.8571C140.572 40.9657 140.4 41.1828 140.223 41.3657C140.052 41.52 139.789 41.7315 139.703 41.76C139.64 41.7886 139.737 41.5429 139.749 41.4229C139.783 41.2914 139.692 41.12 139.452 40.9314M133.011 41.3771C132.891 41.2228 132.668 40.9942 132.399 40.8742C132.119 40.7314 131.594 40.4513 131.537 40.2856C131.474 40.1085 131.462 39.9542 131.594 39.6284C131.782 39.177 131.759 38.7655 131.679 38.4226C131.594 38.0854 131.537 37.9826 131.479 37.8797C131.422 37.7483 131.285 37.6625 131.285 37.6625C131.285 37.6625 131.502 36.9025 131.542 36.7139L131.702 36.0453C131.702 36.0453 132.108 36.7196 132.274 36.9596C132.428 37.2054 132.811 37.714 133.005 38.1083C133.188 38.4855 133.794 39.457 133.937 39.7884C134.097 40.1085 134.314 40.4056 134.274 40.76C134.257 41.0971 133.96 41.5086 133.885 41.6629C133.794 41.8286 133.794 41.9886 133.577 42.1544C133.371 42.3372 133.022 42.3715 133.022 42.3715C133.022 42.3715 133.24 42.1658 133.274 41.9943C133.274 41.8 133.125 41.52 133.017 41.3886M132.274 42.7144C132.657 42.7715 132.897 42.8058 133.314 42.7773C133.685 42.7601 133.84 42.703 134.04 42.4458C134.245 42.2058 134.474 41.7943 134.565 41.5657C134.668 41.3543 134.788 41.0628 134.788 41.0628C134.788 41.0628 135.263 41.2571 135.565 41.3886L137 41.88C137.394 42.0001 137.96 42.1201 138.171 42.2801C138.4 42.4515 138.451 42.5658 138.44 42.7315C138.417 42.8801 138.263 43.2916 138.114 43.6059C137.966 43.8916 137.388 45.0746 137.188 45.4861C136.948 45.8632 136.051 47.3205 135.594 47.972C135.131 48.6463 133.657 50.4693 133.102 50.9894C132.571 51.5209 131.902 52.2066 131.497 52.4124C131.091 52.6124 130.456 52.7381 130.016 52.9953L127.771 54.4011C127.188 54.7668 126.336 55.2754 125.725 55.5898C125.113 55.9041 123.604 56.6584 123.142 56.887C122.696 57.0985 122.061 57.3671 121.77 57.5156C121.484 57.6356 121.227 57.7557 120.993 57.7271C120.758 57.7157 120.598 57.5671 120.501 57.3728C120.381 57.1899 119.661 55.9269 119.393 55.4583C119.136 54.9554 118.113 53.2181 117.913 52.9095C117.695 52.5895 117.604 52.4352 117.152 52.2523C116.85 52.1438 116.758 52.0923 116.61 52.0923C116.45 52.0923 116.364 52.1209 116.147 52.0523C115.992 52.0066 115.912 51.8237 115.912 51.8237C115.912 51.8237 116.924 51.4637 117.393 51.218C117.833 51.0294 118.735 50.6579 119.318 50.3779C119.907 50.0922 121.501 49.2178 122.193 48.8006C122.867 48.3663 123.736 47.7605 124.45 47.1776C125.159 46.5661 126.302 45.5204 126.776 45.0803C127.228 44.6346 128.313 43.3659 128.628 42.8744C128.971 42.4001 129.531 41.5257 129.531 41.5257L130.754 42.1486C131.297 42.4229 131.891 42.6515 132.262 42.7201M106.426 64.0305C106.403 64.2819 106.403 64.5734 106.403 64.5734C106.403 64.5734 105.706 65.2706 105.5 65.4649C105.283 65.6592 104.471 66.3392 104.471 66.3392C104.471 66.3392 104.603 66.0021 104.723 65.842C104.837 65.7049 104.929 65.4649 104.843 65.3163C104.769 65.1849 104.157 64.5334 103.957 64.3791C103.757 64.2419 103.523 63.9162 103.488 63.5847C103.454 63.299 103.608 61.2474 103.717 60.373C103.791 59.5101 103.9 57.5671 103.957 56.8984C104.026 56.2355 104.117 55.4298 103.991 55.1497C103.86 54.8754 103.649 54.5268 103.477 54.4411C103.288 54.3611 103.031 54.2868 103.031 54.2868V53.6982C103.031 53.6982 103.631 53.7096 103.746 53.6868C103.889 53.6353 104.466 53.5382 104.889 53.5496C105.294 53.5953 105.734 53.6867 105.774 53.9268C105.797 54.1153 105.82 54.8583 105.826 55.2926C105.843 55.7441 106.02 58.0471 106.032 58.4186C106.054 58.7786 106.26 61.3388 106.289 61.956C106.329 62.6075 106.426 63.779 106.42 64.0305M111.089 64.1962C111.055 64.2762 110.609 64.8591 110.392 65.0763C110.163 65.2934 109.375 66.2878 109.375 66.2878C109.375 66.2878 109.3 66.0021 109.398 65.8535C109.5 65.7335 109.729 65.5335 109.7 65.3106C109.666 65.0991 109.455 64.682 109.26 64.5105C109.083 64.3219 108.649 64.0933 108.437 63.8819C108.266 63.699 108.157 63.5333 108.095 63.0418C108.083 62.5332 107.866 59.9558 107.803 59.1158C107.746 58.2528 107.563 55.9098 107.506 55.5555C107.46 55.2126 107.403 54.8697 107.157 54.6068C106.912 54.4011 106.683 54.2754 106.54 54.2411C106.392 54.1897 106.254 54.1782 106.254 54.1782L106.232 53.6925C106.232 53.6925 106.814 53.6182 107.037 53.5553C107.255 53.4924 107.855 53.3724 108.237 53.3724C108.575 53.3724 108.918 53.4582 108.98 53.6925C109.032 53.8925 109.129 54.5268 109.169 54.8126C109.215 55.0983 109.86 57.8357 109.935 58.2128C109.998 58.6014 110.723 61.5674 110.815 61.9732C110.883 62.4246 111.129 63.4361 111.118 63.6876C111.095 63.9162 111.129 64.1105 111.083 64.2019M115.295 64.2019C115.084 64.5219 114.369 65.4877 114.369 65.4877C114.369 65.4877 114.324 65.1106 114.392 64.9848C114.472 64.8705 114.535 64.6248 114.495 64.4819C114.449 64.3334 114.295 63.9333 114.055 63.7447C113.849 63.5619 113.421 63.4304 113.204 63.2247C112.986 63.0075 112.884 62.9447 112.718 62.2932C112.541 61.6588 112.135 59.9044 112.021 59.3901C111.872 58.8472 111.329 56.407 111.209 55.9155C111.072 55.4355 110.958 54.7725 110.752 54.5154C110.563 54.2868 110.175 53.9325 109.998 53.8868C109.855 53.8582 109.649 53.8696 109.586 53.8696C109.529 53.8696 109.426 53.8868 109.426 53.8868L109.306 53.3896C109.306 53.3896 109.638 53.3896 109.969 53.3039C110.266 53.2067 110.975 52.8981 111.278 52.8752C111.575 52.8467 112.032 52.8467 112.084 52.9667C112.169 53.0867 112.272 53.3896 112.404 53.7325C112.535 54.1096 113.421 56.3327 113.609 56.9385C113.832 57.5385 114.792 59.893 114.987 60.3787C115.147 60.8702 115.621 61.9446 115.678 62.1789C115.73 62.396 115.958 62.9847 115.901 63.1675C115.855 63.3447 115.501 63.8762 115.289 64.1962M120.656 61.8246C120.581 62.036 120.096 62.8932 120.01 63.1275C119.884 63.3447 119.427 64.1562 119.427 64.1562C119.427 64.1562 119.376 63.4876 119.267 63.179C119.147 62.8361 119.016 62.6361 118.77 62.4818C118.53 62.2989 118.084 62.196 117.895 62.076C117.713 61.9332 117.553 61.8074 117.341 61.3674C117.101 60.9274 116.518 59.3101 116.318 58.8072C116.101 58.2357 115.347 56.3613 115.084 55.7612C114.832 55.1383 114.427 54.0582 114.232 53.8125C114.032 53.5496 113.546 53.1953 113.386 53.1838C113.209 53.1438 112.981 53.1096 112.935 53.121C112.872 53.1381 112.678 53.1438 112.678 53.1438L112.501 52.761C112.501 52.761 113.324 52.5781 113.729 52.4524C114.124 52.3038 114.587 52.1438 114.849 52.0866C115.141 52.0295 115.272 52.0123 115.398 52.1723C115.547 52.3038 115.684 52.5895 115.758 52.7838C115.838 52.9953 116.667 54.4411 116.935 54.904C117.227 55.4183 118.015 56.7842 118.255 57.2071C118.49 57.6414 119.33 58.9958 119.484 59.3101C119.696 59.5958 119.89 59.9901 120.05 60.2301C120.187 60.4645 120.427 61.0074 120.547 61.2474C120.639 61.476 120.73 61.6531 120.65 61.8189M141.109 42.2915C141.017 42.5487 140.714 43.383 140.52 43.8116C140.292 44.2631 139.646 45.5604 139.383 46.0061C139.154 46.4061 138.08 48.1263 137.629 48.7378C137.188 49.3378 135.851 50.9894 135.423 51.458C135.017 51.9209 133.365 53.5153 132.971 53.9211C132.548 54.2811 129.662 56.1955 129.113 56.5499C128.525 56.887 126.685 57.9614 126.256 58.19C125.828 58.4357 124.502 59.0644 124.079 59.2815C123.639 59.5158 122.467 60.0473 122.187 60.1216C121.901 60.173 121.581 60.1216 121.313 60.0873C121.09 60.053 120.964 60.053 120.861 60.053C120.787 60.053 120.444 60.093 120.444 60.093L120.33 59.8873C120.33 59.8873 121.404 59.453 121.964 59.1729C122.513 58.9158 124.867 57.8299 125.536 57.4299C126.205 57.0413 127.582 56.2698 128.302 55.7898C129.011 55.2983 130.714 54.0582 131.325 53.5153C131.965 52.9724 133.748 51.2351 134.057 50.8579C134.365 50.4636 135.783 49.1378 136.108 48.8121C136.428 48.4863 137.023 47.9206 137.423 47.3491C137.857 46.7205 138.789 45.1889 138.983 44.7488C139.171 44.2745 139.389 43.9374 139.349 43.7373C139.314 43.5602 139.286 43.3659 139.229 43.3602C139.177 43.3259 138.851 43.2287 138.851 43.2287L138.983 42.823C139.034 42.7087 139.069 42.6058 139.069 42.6058C139.069 42.6058 139.423 42.6173 139.6 42.5315C139.794 42.4572 140.24 42.1258 140.509 41.8515C140.794 41.5943 141.109 41.2343 141.217 41.0628C141.332 40.88 141.372 40.8342 141.372 40.8342C141.372 40.8342 141.52 40.88 141.52 40.96C141.52 41.08 141.217 42.0458 141.12 42.3029M147.498 39.897C147.378 40.097 147.081 40.5714 146.881 40.7714C146.675 40.9485 146.229 41.2629 146.229 41.2629C146.229 41.2629 146.383 40.9485 146.349 40.7885C146.303 40.6285 145.989 40.3256 145.738 40.2628C145.498 40.1599 144.475 39.9199 144.029 39.7713C143.6 39.6399 142.612 39.2512 142.355 39.0341C142.086 38.8341 140.926 37.4397 140.629 37.0968C140.383 36.771 139.366 35.4452 138.994 34.9766C138.64 34.5366 137.851 33.4108 137.434 32.8736C136.994 32.3135 136.326 31.4449 136.16 31.2734C135.971 31.0906 135.948 31.0048 135.777 30.9077C135.617 30.782 135.548 30.7077 135.548 30.7077L135.663 30.2734C135.708 30.1133 135.708 30.0105 135.708 30.0105C135.708 30.0105 136.24 30.0333 136.651 29.999C137.063 29.9247 137.297 29.8276 137.651 29.8676C138.017 29.8848 138.194 29.9705 138.343 30.3076C138.531 30.6848 139.051 31.2506 139.429 31.6049C139.806 31.9763 141.595 33.6279 142.143 34.1537C142.686 34.6452 144.418 36.331 145.035 36.8625C145.635 37.4111 146.469 38.1312 146.709 38.3426C146.898 38.5826 147.441 39.0855 147.555 39.2284C147.675 39.377 147.641 39.6799 147.509 39.9027M156.213 38.2512C156.036 38.6341 155.567 39.4055 155.436 39.5713C155.327 39.7484 154.996 40.057 154.836 40.1885C154.676 40.3085 154.596 40.3199 154.596 40.3199C154.596 40.3199 154.847 40.0342 154.784 39.857C154.75 39.6856 154.641 39.4055 154.338 39.2284C154.036 39.0855 153.458 39.0169 153.018 38.8912C152.584 38.8169 150.932 38.4055 150.275 38.2112C149.647 38.0454 149.121 37.9026 148.698 37.5997C148.315 37.3025 147.281 36.3367 146.755 35.8453C146.269 35.4052 145.189 34.3994 144.578 33.8565C143.96 33.2965 142.715 32.1307 142.286 31.7078C141.846 31.2677 140.629 30.2048 140.412 29.9705C140.212 29.7133 139.703 29.2447 139.549 29.1075C139.394 28.9761 139.269 28.9875 139.194 28.8161C139.103 28.6961 139.16 28.4618 139.183 28.4161C139.217 28.3361 139.269 28.216 139.269 28.216C139.269 28.216 139.852 28.2675 140.109 28.1989C140.349 28.136 140.886 28.0046 141.04 28.0046C141.217 28.0046 141.532 27.9417 141.835 28.0789C142.12 28.1989 142.869 28.6275 143.252 28.9418C143.646 29.2504 145.252 30.5077 145.761 30.8791C146.264 31.2334 148.687 32.9593 149.201 33.3022C149.664 33.6451 151.875 35.1023 152.464 35.4738C153.064 35.8224 154.167 36.4853 154.687 36.7939C155.241 37.1082 155.819 37.4168 155.996 37.594C156.156 37.7483 156.361 37.9083 156.207 38.2569M165.505 35.8338C165.374 36.1024 165.094 36.8739 164.974 37.1254C164.814 37.3825 164.619 37.874 164.425 38.0511C164.225 38.2169 164.128 38.3197 164.031 38.3426C163.899 38.3712 163.882 38.3483 163.882 38.3483C163.882 38.3483 164.111 38.0911 164.111 37.9997C164.111 37.9083 163.962 37.5368 163.791 37.4168C163.636 37.2854 163.385 37.1882 163.191 37.1882C162.996 37.1882 162.373 37.1882 161.819 37.1139C161.219 37.0625 160.288 36.9368 159.579 36.7882C158.899 36.6339 158.413 36.5767 157.842 36.3424C157.259 36.0853 155.996 35.3938 155.321 35.0166C154.676 34.6337 152.555 33.3308 151.87 32.8793C151.253 32.4564 148.201 30.3019 147.738 29.9648C147.275 29.6562 146.184 28.8275 145.732 28.4961C145.298 28.1475 144.652 27.6446 144.412 27.5246C144.16 27.4274 143.4 27.1702 143.149 27.0388C142.909 26.9531 142.629 26.8616 142.537 26.6845C142.475 26.5359 142.503 26.3073 142.503 26.3073C142.503 26.3073 143.555 26.0501 143.823 25.9416C144.08 25.8387 144.681 25.7244 144.892 25.753C145.103 25.7987 145.881 26.1701 146.349 26.4102C146.789 26.6788 148.829 27.736 149.487 28.096C150.138 28.4503 152.83 29.8105 153.424 30.0962C154.036 30.3934 156.001 31.3763 156.71 31.6792C157.424 32.0106 159.893 33.0907 160.596 33.3707C161.225 33.6565 162.276 34.0222 162.853 34.2394C163.454 34.428 164.208 34.6509 164.568 34.7537C164.911 34.868 165.539 35.028 165.585 35.1823C165.619 35.3595 165.619 35.6052 165.511 35.8395M175.277 31.9249C175.203 32.1249 175.037 32.7078 174.923 33.0393C174.78 33.3879 174.609 33.8622 174.42 34.0737C174.214 34.2737 173.774 34.3823 173.774 34.3823C173.774 34.3823 174.009 34.228 173.986 33.9822C173.94 33.7822 173.872 33.6565 173.7 33.5536C173.512 33.4222 173.437 33.325 173.163 33.325C172.917 33.2965 172.26 33.3708 171.763 33.3879C171.248 33.4222 169.517 33.4222 168.843 33.4222C168.168 33.4222 167.477 33.4736 166.968 33.4165C166.465 33.3479 165.825 33.2565 165.071 33.0279C164.271 32.8107 162.333 32.1135 161.459 31.7535C160.619 31.4049 158.047 30.2848 157.35 29.9762C156.682 29.6562 154.116 28.3989 153.276 27.9646C152.435 27.5245 151.241 26.9531 150.584 26.6045C149.938 26.2444 148.521 25.4729 148.167 25.2844C147.789 25.1358 147.389 24.9815 147.081 24.9072C146.772 24.8557 146.326 24.6786 146.184 24.6272C146.046 24.5472 145.726 24.45 145.726 24.45L145.772 24.0271C145.772 24.0271 146.778 23.8157 147.275 23.6214C147.698 23.4728 148.252 23.2328 148.727 23.267C149.218 23.3299 150.212 23.6499 150.807 23.8671C151.378 24.0843 153.43 24.8215 153.973 25.0501C154.527 25.2329 159.242 26.8388 160.013 27.0559C160.745 27.296 164.836 28.5132 165.711 28.7589C166.568 28.999 170.517 30.0048 171.443 30.2048C172.374 30.3819 173.906 30.6505 174.392 30.7591C174.866 30.862 175.306 30.9477 175.352 31.182C175.397 31.4049 175.357 31.7535 175.272 31.9306M184.444 28.2903C184.284 28.6389 184.004 29.2618 183.69 29.6219C183.381 29.9933 183.147 30.2791 182.947 30.3877C182.769 30.542 182.678 30.5705 182.678 30.5705C182.678 30.5705 182.867 30.3076 182.821 30.1305C182.781 29.9476 182.501 29.7133 182.238 29.679C181.964 29.6162 181.386 29.6619 180.809 29.6619C180.232 29.6619 178.546 29.5819 177.072 29.3647C175.563 29.1247 173.306 28.7932 171.786 28.4275C170.248 28.0617 168.088 27.5303 166.534 27.1074C164.974 26.6616 162.402 25.9187 160.796 25.3872C159.173 24.8272 157.093 24.1471 156.202 23.8328C155.287 23.5014 152.624 22.5641 152.218 22.4041C151.807 22.2327 151.527 22.1641 151.212 22.1412C150.904 22.1184 150.504 22.1927 150.184 22.1412C149.858 22.1069 149.464 21.9927 149.292 21.9355C149.121 21.8612 148.972 21.8498 148.909 21.7069C148.824 21.5583 148.869 21.4498 148.869 21.4498C148.869 21.4498 149.401 21.4212 149.664 21.364C149.921 21.3012 150.555 21.164 150.841 21.0783C151.121 20.9869 151.224 20.9297 151.258 20.7926C151.264 20.6383 151.224 20.2439 151.258 20.0668C151.298 19.9182 151.39 19.7296 151.39 19.7296C151.39 19.7296 151.99 19.8725 152.23 19.8953C152.498 19.8953 153.356 20.0611 153.704 20.1525C154.07 20.2439 158.116 21.2497 158.773 21.4498C159.407 21.5983 164.048 22.7184 164.819 22.8899C165.625 23.027 169.408 23.8728 170.254 24.0328C171.106 24.2214 176.723 25.2672 177.672 25.4272C178.586 25.5472 181.804 26.0673 182.547 26.1359C183.307 26.2102 184.41 26.3359 184.644 26.393C184.838 26.4502 185.061 26.5416 184.998 26.7988C184.952 27.1874 184.644 27.9246 184.45 28.2846M192.13 23.4785C192.039 23.7585 191.89 24.3014 191.736 24.4957C191.622 24.69 191.513 24.9072 191.29 25.0501C191.056 25.1472 190.982 25.1815 190.982 25.1815C190.982 25.1815 191.13 24.8615 191.056 24.69C190.959 24.5129 190.639 24.1986 190.444 24.1871C190.256 24.1528 189.519 24.3014 189.044 24.3757C188.53 24.4557 187.633 24.5472 187.033 24.5929C186.433 24.6272 185.65 24.6957 185.255 24.69C184.855 24.6786 184.147 24.5929 183.512 24.5129C182.884 24.41 180.546 24.09 179.695 23.9528C178.889 23.8328 176.157 23.3356 175.003 23.1699C173.877 22.9356 169.808 22.1298 169.031 21.9355C168.26 21.7869 165.242 21.1126 164.494 20.9297C163.739 20.7583 160.442 19.9811 159.693 19.8039C158.927 19.621 156.824 19.1124 156.276 18.9924C155.693 18.8438 154.55 18.5695 154.224 18.5009C153.916 18.4609 153.573 18.3581 153.31 18.4495C153.047 18.5009 152.475 18.6667 152.315 18.7352C152.144 18.7867 152.098 18.8038 151.853 18.7695C151.567 18.7352 151.418 18.5695 151.418 18.5695C151.418 18.5695 151.99 18.4095 152.304 18.2438C152.618 18.1238 153.098 17.9752 153.264 17.7237C153.413 17.478 153.447 17.4266 153.424 17.238C153.407 17.078 153.367 16.9465 153.367 16.9465C153.367 16.9465 154.338 16.9922 154.721 17.0322C155.116 17.0608 156.962 17.3465 157.544 17.4266C158.116 17.4894 160.962 17.9295 161.733 18.0438C162.499 18.1695 167.717 18.8781 168.74 19.0153C169.768 19.1296 174.254 19.7125 175.072 19.8096C175.906 19.8953 180.952 20.444 181.729 20.5182C182.512 20.5868 185.352 20.8554 186.318 20.924C187.296 21.0211 189.387 21.1297 190.301 21.1412C191.204 21.1583 191.844 21.124 192.09 21.204C192.313 21.284 192.496 21.444 192.45 21.6098C192.405 21.7926 192.204 23.2042 192.136 23.4785M198.274 18.0038C198.148 18.4495 197.851 19.141 197.594 19.3524C197.382 19.541 197.051 19.7068 197.051 19.7068C197.051 19.7068 197.171 19.421 197.096 19.2667C197.005 19.1067 196.691 18.8724 196.462 18.8724C196.245 18.8781 194.925 19.2267 194.273 19.2896C193.616 19.3867 192.542 19.4839 191.724 19.4782C190.913 19.4724 189.05 19.3867 188.073 19.3239C187.124 19.2553 184.552 19.0667 183.267 18.9181C181.975 18.781 178.455 18.3981 176.832 18.2095C175.209 18.0095 171.923 17.6037 170.74 17.4551C169.603 17.3066 165.831 16.8036 164.814 16.6436C163.825 16.5008 161.133 16.1407 160.39 16.0379C159.63 15.9064 157.31 15.575 156.647 15.4721C155.961 15.3978 155.561 15.3007 155.259 15.3007C154.956 15.3007 154.733 15.2721 154.367 15.3007C153.967 15.3292 154.03 15.3292 153.847 15.3292C153.687 15.3292 153.647 15.3178 153.453 15.3007C153.276 15.2721 153.184 15.255 153.184 15.255C153.184 15.255 153.87 14.8206 154.167 14.5978C154.453 14.3577 154.801 14.1463 154.876 13.9177C154.95 13.712 154.95 13.592 154.95 13.592C154.95 13.592 157.042 13.6663 157.51 13.7063C157.984 13.752 160.288 13.9006 160.899 13.9348C161.488 13.9806 165.197 14.2377 166.345 14.312C167.5 14.3977 172.689 14.7349 173.734 14.8035C174.752 14.8549 178.901 15.1121 179.923 15.1749C180.946 15.2207 184.901 15.4321 186.187 15.4893C187.478 15.5407 191.976 15.6836 192.742 15.6893C193.525 15.7007 196.051 15.7178 196.502 15.7007C196.936 15.6836 197.479 15.6378 197.782 15.6378C198.085 15.6378 198.411 15.6436 198.428 15.975C198.451 16.2836 198.388 17.5694 198.268 18.0095M203.308 12.609C203.32 12.849 203.428 13.1519 203.365 13.2262C203.297 13.2833 202.771 13.5919 202.663 13.6034C202.56 13.6548 202.423 13.6777 202.423 13.6777C202.423 13.6777 202.537 13.5005 202.445 13.3462C202.383 13.2148 202.068 12.9805 201.885 12.9519C201.674 12.9233 201.4 12.9805 201.011 13.1348C200.634 13.2834 199.508 13.6034 198.868 13.752C198.216 13.8834 197.942 13.9634 196.856 14.0091C195.765 14.0263 193.279 14.0263 192.193 13.9634C191.13 13.912 187.97 13.832 186.467 13.7577C184.975 13.6777 181.278 13.4834 179.975 13.4262C178.678 13.3805 174.717 13.1348 173.769 13.0719C172.82 12.9862 168.191 12.7233 167.202 12.6833C166.254 12.5976 161.413 12.2947 160.613 12.2147C159.848 12.129 158.15 12.0261 157.636 11.9975C157.122 11.9804 156.402 11.8947 156.121 11.8261C155.87 11.7518 155.87 11.6432 155.647 11.5975C155.43 11.5689 155.144 11.5575 155.144 11.5575C155.144 11.5575 155.721 10.9174 155.864 10.7574C156.024 10.5746 156.19 10.3402 156.27 10.3174C156.402 10.2945 156.762 10.3402 157.007 10.266C157.322 10.1459 159.31 10.186 159.859 10.1459H164.871C165.682 10.1459 170.888 10.0659 171.757 10.0717C172.626 10.1059 176.392 10.0717 177.358 10.0545C178.306 10.0088 182.969 10.0545 184.072 9.99166C185.187 9.9688 190.982 9.92879 191.953 9.90022C192.902 9.86593 197.388 9.80878 198.194 9.76877C199.011 9.76877 200.628 9.74592 201.148 9.7002C201.651 9.6602 202.108 9.61448 202.308 9.64877C202.503 9.66591 202.525 9.86593 202.594 9.97451C202.628 10.1002 202.914 11.0032 203.051 11.4203C203.183 11.809 203.285 12.3518 203.297 12.6033M127.33 4.33975C128.251 4.1683 130.856 3.69969 131.919 3.63682C132.982 3.5511 134.845 3.47681 135.714 3.47681C136.686 3.47681 138.549 3.56255 139.932 3.68827C141.377 3.84828 143.355 4.1283 144.675 4.2026C145.989 4.27689 148.201 4.34546 149.207 4.3226C150.161 4.27117 151.967 4.20259 152.938 4.19116C153.916 4.19116 157.476 4.04829 158.67 3.96257C159.853 3.91114 163.088 3.7054 164.282 3.67683C165.488 3.60825 169.157 3.53396 170.208 3.53396C171.26 3.53396 175.82 3.72827 176.969 3.79113C178.14 3.854 180.969 4.014 182.015 4.06543C183.072 4.12829 184.575 4.19117 185.45 4.2426C186.335 4.27118 188.924 4.19688 189.484 4.19688C190.044 4.19688 192.022 4.19117 193.107 4.16831C194.176 4.09973 197.062 3.87114 198.125 3.79113C199.148 3.6997 201.845 3.43109 202.731 3.36823C203.583 3.31108 204.446 3.17965 204.811 3.24822C205.177 3.28251 205.617 3.5854 205.726 3.69969C205.84 3.84828 206.343 4.37974 206.714 4.79692C207.103 5.19124 207.452 5.63128 207.52 5.75129C207.577 5.91131 207.834 6.24277 207.76 6.36278C207.726 6.48279 207.686 6.7228 207.56 6.80281C207.429 6.86567 206.817 7.12855 206.817 7.12855C206.817 7.12855 206.783 6.85425 206.571 6.7571C206.383 6.65423 206 6.53422 205.743 6.61423C205.486 6.72852 204.617 7.09998 204.12 7.31143C203.617 7.54002 202.788 7.90577 202.405 7.9572C202.005 8.00863 200.508 8.0772 199.502 8.08863C198.485 8.11149 195.536 8.12292 194.268 8.16292C192.999 8.20293 188.679 8.2258 187.764 8.24294C186.873 8.25437 182.907 8.30007 181.655 8.30007C180.404 8.30007 176.86 8.37437 175.723 8.36295C174.569 8.3458 169.523 8.44866 168.403 8.4258C167.305 8.42008 164.139 8.4258 163.299 8.46009C162.453 8.48295 161.311 8.51152 160.196 8.58581C159.122 8.67725 157.573 8.82584 157.133 8.84298C156.682 8.89442 156.093 8.80869 155.881 8.75154C155.67 8.67725 155.653 8.64867 155.527 8.6201C155.401 8.60295 155.024 8.5401 155.024 8.5401L154.933 8.3515C154.933 8.3515 155.413 8.26008 155.813 8.16292C156.236 8.08863 156.556 7.89432 157.276 7.74574C157.984 7.6143 159.773 7.27142 160.653 7.12855C161.545 6.97997 165.574 6.26562 166.734 6.11133C167.888 5.96274 170.883 5.63129 171.946 5.54557C172.986 5.47128 175.986 5.23696 177.049 5.19124C178.095 5.12266 180.444 5.01981 181.038 5.04267C181.649 5.05981 183.678 5.08839 184.472 5.13411C185.273 5.19697 185.713 5.19696 185.713 5.19696L185.861 4.65405C185.861 4.65405 184.998 4.60834 184.307 4.56833C183.581 4.52261 181.752 4.48261 181.129 4.48261C180.506 4.48261 178.243 4.50548 177.392 4.55691C176.575 4.59691 175.369 4.45405 174.392 4.4369C173.18 4.37976 170.506 4.42547 169.408 4.48261C168.305 4.56834 165.219 4.87694 164.242 5.00838C163.253 5.12268 159.905 5.597 158.367 5.89988C156.819 6.16848 154.413 6.64851 153.287 6.85996C152.173 7.07141 150.732 7.35143 149.435 7.48859C148.155 7.62003 145.549 7.67145 144.6 7.63716C143.64 7.62001 140.84 7.55717 139.417 7.56288C138.017 7.6086 135.64 7.60859 134.268 7.7686C132.885 7.94005 131.731 8.19721 131.028 8.44866C130.296 8.67154 129.571 8.95156 129.102 9.28873C128.593 9.64305 128.376 10.0431 128.388 10.1802C128.411 10.3002 128.439 10.4088 128.439 10.4088L128.828 10.5174C128.828 10.5174 128.462 10.8146 128.245 10.9803C128.033 11.1517 127.822 11.5746 127.736 11.9347C127.685 12.2776 127.553 13.1291 127.536 13.5005C127.513 13.8605 127.485 14.0034 127.599 14.2892C127.719 14.5692 128.291 15.5864 128.502 16.0093C128.731 16.4208 129.319 17.3866 129.491 17.6609C129.651 17.9466 129.954 18.3409 130.171 18.7067C130.411 19.0381 130.788 19.8496 130.828 20.1068C130.879 20.3754 130.879 20.7754 130.879 21.1526V23.0842C130.879 23.3985 130.862 23.6328 130.788 23.6957C130.719 23.7757 130.536 23.9357 130.531 24.1014C130.531 24.2614 130.411 24.6443 130.371 24.8386C130.319 25.0272 130.171 25.4387 130.171 25.4387C130.171 25.4387 129.948 24.9472 129.948 24.8958C129.925 24.8329 130.022 24.45 129.982 23.8785C129.948 23.3299 129.102 21.5298 128.896 19.7125C128.776 18.5752 128.091 17.4094 127.559 16.6436C127.039 15.8779 126.713 15.1064 126.108 14.112C125.53 13.0948 123.862 12.1118 122.816 11.3518C121.993 10.8031 120.941 9.52304 120.941 8.51724C120.941 8.05434 120.69 7.34 120.136 7.64288C120.227 7.39714 120.467 7.17998 120.736 6.92281C121.279 6.47135 122.279 5.83701 123.193 5.51127C124.165 5.15124 126.399 4.56263 127.302 4.34547M88.2586 3.94543C88.7958 3.73398 91.5103 2.80247 92.3618 2.58531C93.3791 2.30528 95.7735 1.75667 97.2022 1.51665C98.6423 1.27663 101.54 0.962317 104.317 0.962317C106.712 0.962317 108.889 1.17377 110.049 1.29378C111.203 1.44808 113.535 1.85954 114.484 2.0767C115.427 2.33387 117.015 2.71675 117.924 3.01392C118.787 3.32251 120.181 3.79112 120.719 4.03114C121.267 4.27116 121.593 4.34547 121.69 4.4369C121.77 4.5112 121.793 4.65405 122.073 4.79692C122.359 4.9055 122.77 5.07123 122.77 5.07123C122.77 5.07123 122.627 5.20267 122.393 5.29982C122.164 5.39126 121.879 5.51127 121.673 5.6027C121.444 5.70557 121.227 5.83131 121.227 5.83131C121.227 5.83131 121.227 5.51128 121.107 5.41984C120.981 5.31698 120.301 4.95694 119.593 4.69406C118.924 4.44832 117.924 4.09402 116.935 3.814C115.952 3.53969 114.227 3.01964 113.026 2.82534C111.861 2.62532 110.621 2.3853 109.46 2.27672C108.323 2.151 105.689 1.95097 104.34 1.9624C102.986 1.98526 100.38 2.1167 99.0881 2.28815C97.7966 2.43673 95.6535 2.77962 94.4077 3.09965C93.1733 3.41396 91.5046 3.82541 90.8646 4.03114C90.1845 4.27116 89.413 4.58548 89.1501 4.58548C88.9044 4.61405 88.3787 4.53977 88.1958 4.53977C88.0129 4.53977 87.8529 4.53976 87.7215 4.57405C87.6414 4.60263 87.3557 4.74549 87.2357 4.69406C87.1099 4.61977 86.87 4.49404 86.87 4.49404C86.87 4.49404 87.7157 4.20259 88.2472 3.95115M3.29148 4.21974C3.61722 3.854 4.02868 3.33395 4.20012 3.28823C4.37157 3.21394 5.08593 3.21395 5.52025 3.25966C5.95457 3.28824 8.68623 3.54539 9.22913 3.58539C9.7606 3.61968 12.0922 3.69397 12.7037 3.71112C13.338 3.74541 16.2697 3.76255 17.2412 3.79684C18.2527 3.82541 21.2987 3.89971 22.2131 3.85971C23.1274 3.81399 25.6934 3.58541 26.482 3.5454C27.2649 3.51111 29.7337 3.3168 30.8938 3.28823C32.0711 3.25966 34.4255 3.28823 35.1799 3.2368C35.9342 3.18537 38.9345 3.1625 39.9746 3.1625C41.0147 3.1625 43.9463 3.28251 44.9178 3.28251C45.9236 3.32823 50.1754 3.55682 51.2841 3.60826C52.3928 3.65969 57.8961 3.85399 59.1305 3.87113C60.3363 3.90542 62.1536 3.95685 63.1022 3.90542C64.0737 3.85398 68.7141 3.64826 70.1028 3.60826C71.5086 3.56254 75.2175 3.51682 76.7091 3.55683C78.2178 3.57968 81.7952 3.93972 83.0068 4.09401C84.2354 4.2426 85.4127 4.53406 85.7784 4.56263C86.1213 4.57406 86.6471 4.60262 86.8471 4.80264C87.0414 4.96265 87.2357 5.37411 87.5957 5.58556C87.9614 5.79129 88.4758 5.89988 88.653 6.12847C88.8473 6.36849 88.8587 6.86568 88.9673 7.07712C89.0758 7.27714 89.5102 7.96291 89.5502 8.43152C89.613 8.87727 89.5502 9.66591 89.253 10.186C88.9673 10.6946 88.4586 11.2889 87.9329 11.8547C87.3843 12.4147 86.5328 13.009 85.8127 13.6548C85.0869 14.2834 83.8526 15.2321 83.2239 16.1179C82.5782 16.9865 82.1953 17.5809 82.041 18.4609C81.9152 19.341 82.001 19.8496 81.9438 19.9982C81.9038 20.1468 81.7895 20.5182 81.5609 20.7354C81.3609 20.964 80.4408 21.9984 80.1322 22.4441C79.8122 22.8784 79.2579 23.6671 79.1321 23.8843C78.9893 24.09 78.8807 24.3186 78.8807 24.3186L78.6692 23.9414C78.6692 23.9414 79.1207 23.4213 79.1779 23.2842C79.3436 23.0727 79.2293 22.4441 79.3436 21.3869C79.5836 18.6438 83.0068 15.5807 82.5267 12.7804C82.121 10.5917 79.3893 8.71154 76.6577 8.30007C75.0975 8.04862 69.9085 7.65431 68.7941 7.62574C67.394 7.5743 63.6509 7.52286 62.4793 7.49429C61.3078 7.47715 58.2047 7.47145 57.3074 7.42001C56.3931 7.39715 55.2387 7.38571 53.77 7.13998C52.2727 6.87138 51.2326 6.57993 49.7697 6.12275C48.2953 5.68271 47.1295 5.32839 45.9694 5.08266C44.8207 4.81406 43.3291 4.57976 42.3462 4.49404C41.3175 4.40832 39.3574 4.26546 37.843 4.21974C36.3571 4.2026 32.6539 4.21974 31.471 4.25403C30.2937 4.26546 26.6192 4.39118 25.6534 4.39118C24.6876 4.39118 23.6589 4.37403 23.1732 4.40832C22.7217 4.44832 22.8417 4.64834 22.6417 4.69406C22.4131 4.73406 21.3044 4.69406 20.6587 4.69406C20.0129 4.69406 19.5386 4.64835 19.3386 4.6312C19.0928 4.61406 18.7671 4.61406 18.7671 4.61406C18.7671 4.61406 18.7271 4.83122 18.9557 4.89408C19.1842 4.96837 19.7386 4.99695 19.9157 5.02552C20.1272 5.04838 21.6302 5.12839 22.1616 5.14553C22.6931 5.19696 23.6075 5.19695 24.1961 5.22553C24.7847 5.2941 25.8077 5.29411 26.4992 5.29982C27.1792 5.31125 29.928 5.29983 30.951 5.32269C31.9396 5.3684 33.854 5.3684 34.757 5.39126C35.7056 5.40269 37.923 5.49984 39.6431 5.71129C41.3804 5.90559 42.8091 6.11705 44.5521 6.52851C46.2094 6.92854 48.1867 7.55716 49.1582 7.86004C50.1126 8.14007 51.4498 8.5001 52.1356 8.66583C52.8385 8.8087 53.4786 8.84299 53.6443 9.00872C53.8157 9.15159 53.8157 9.3116 53.7014 9.52304C53.61 9.75163 53.5186 9.82593 53.4443 10.0259C53.3643 10.2374 53.2957 10.4203 53.2957 10.4203H52.6785C52.6785 10.4203 52.7985 10.3002 52.8042 10.1402C52.8271 10.0088 52.4499 9.80306 52.0785 9.7002C51.6727 9.64877 49.9297 9.47732 49.4611 9.41446C48.9868 9.3516 47.2609 9.20302 46.3065 9.20302C45.3579 9.22016 41.6547 9.18587 40.7004 9.20302C39.7688 9.2373 36.2885 9.16301 35.4085 9.20302C34.5455 9.22588 31.4939 9.20301 30.6652 9.19158C29.8366 9.16872 27.8993 9.16873 27.1221 9.16873C26.3449 9.16873 23.7675 9.16873 22.8474 9.15159C21.933 9.15159 18.7728 9.06586 18.1727 9.07729C17.5613 9.10586 15.8354 9.05443 14.9896 9.05443C14.1381 9.02585 11.1779 8.92298 10.3721 8.92298C9.5663 8.92298 8.57193 8.86012 8.26333 8.76297C7.94902 8.67725 6.25744 7.81433 5.57739 7.47144C4.89161 7.13427 3.60579 6.48278 3.25719 6.28848C2.90859 6.11704 2.54856 5.8656 2.45141 5.83131C2.34283 5.76273 1.88566 6.24849 1.73136 6.41993C1.61706 6.60852 1.36561 6.41993 1.36561 6.41993C1.36561 6.41993 3.00004 4.60834 3.32006 4.21974" fill="white"/>
<path d="M131.022 32.6847C131.022 22.9639 120.386 13.2145 104.734 13.2145C89.0809 13.2145 78.4629 22.9639 78.4629 32.6847C78.4629 42.4055 89.0981 52.172 104.734 52.172C120.369 52.172 131.022 42.4055 131.022 32.6847ZM88.8009 42.2112C88.8009 41.2797 90.6696 40.3253 90.6525 39.4967V25.8498C90.6525 25.1526 88.7037 24.8497 88.7037 23.5353C88.7037 23.4668 88.7266 23.3753 88.7495 23.2382C89.2124 22.1524 92.0983 19.7979 96.7616 18.3463C98.9732 17.6949 101.579 17.2034 104.568 17.1577C106.105 17.1462 107.545 17.2605 108.934 17.4434C114.895 18.3235 119.083 21.158 119.489 24.844C119.535 25.1469 119.541 25.4327 119.541 25.7584C119.541 27.89 118.552 29.7587 115.295 31.5989V31.6446C118.901 33.3305 120.369 36.7193 120.352 39.2452C120.301 43.8799 114.992 47.7717 105.722 47.8117C105.071 47.8117 104.425 47.8117 103.814 47.7717C94.4071 47.2916 88.8066 43.1313 88.8066 42.2112" fill="white"/>
<path d="M111.635 39.3994C111.635 34.3019 108.161 33.1017 104.898 33.0846C101.469 33.1075 97.8457 34.1418 97.8457 39.3994C97.8457 44.657 101.515 45.5199 104.755 45.5199H105.001C108.412 45.5199 111.63 43.9712 111.63 39.3994" fill="white"/>
<path d="M104.751 31.0101C108.375 30.993 111.009 29.5986 111.009 25.2782C111.009 20.9579 108.5 19.6034 104.751 19.5863C101.317 19.6092 98.4766 21.295 98.4766 25.2782C98.4766 29.7586 101.294 30.993 104.751 31.0101Z" fill="white"/>
</svg>
