<svg width="55" height="98" viewBox="0 0 55 98" fill="none" xmlns="http://www.w3.org/2000/svg">
<path d="M51.1114 0.000233738H4.27867C2.22908 -0.0221662 0.465083 1.56822 0.465083 3.57301V94.2872C0.442683 96.2976 1.99389 98 4.04348 98H50.8762C52.9258 98 54.6674 96.432 54.6842 94.4272V3.69621C54.6842 1.68582 53.161 0.0058221 51.1114 0.0058221V0.000233738ZM53.7153 94.4328C53.6761 95.9 52.3546 97.0256 50.8986 97.0256H4.06587C2.57067 97.0256 1.44508 95.7488 1.44508 94.2816V3.58422C1.48428 2.11703 2.80586 0.935426 4.30106 0.974626H51.1338C52.5953 0.974626 53.7153 2.22901 53.7153 3.69621V94.4328Z" fill="white"/>
<path d="M10.7884 85.0973C10.7884 83.3165 9.562 83.1261 8.1844 83.0869H7.86523V87.0293H8.1844C9.4444 87.0293 10.7436 86.7997 10.7884 85.0973Z" fill="white"/>
<path d="M19.1152 83.0302C16.752 83.0302 14.8984 85.0405 14.8984 87.5101C14.8984 89.9797 16.752 91.9957 19.1152 91.9957C21.4784 91.9957 23.2928 89.9853 23.2928 87.5101C23.2928 85.0349 21.4392 83.0302 19.1152 83.0302Z" fill="white"/>
<path d="M49.2432 79.3291H5.75931C4.81291 79.3291 4.0625 79.9899 4.0625 80.8355V92.6627C4.0625 93.5531 4.81291 94.2867 5.72011 94.2867L49.204 94.3651C50.1504 94.3651 50.9008 93.6707 50.9008 92.7803V80.9587C50.9008 80.0683 50.1504 79.3347 49.2432 79.3347V79.3291ZM11.2361 92.9315L8.12249 88.1771H7.8201V92.9315H6.70011V81.9947H8.16169C10.1329 82.0339 11.9025 82.5715 11.9025 85.0467C11.9025 86.7435 10.9169 87.9083 9.34328 88.0651L12.5745 92.9315H11.2361ZM19.0705 93.1499C16.1137 93.1499 13.7505 90.6747 13.7505 87.5051C13.7505 84.3355 16.1529 81.8603 19.1097 81.8603C22.0665 81.8603 24.4296 84.4083 24.4296 87.5387C24.4296 90.6691 22.0273 93.1443 19.0705 93.1443V93.1499ZM29.7776 88.2835V92.9763H28.6129V88.2835L25.2417 82.0395H26.5801L29.184 86.9507L31.788 82.0843H33.1264L29.7776 88.2891V88.2835ZM42.2656 84.4923C41.4816 83.6019 40.3392 83.0643 39.152 83.0643C36.8672 83.0643 35.0136 85.1531 35.0136 87.5499C35.0136 89.9467 36.8672 92.0691 39.1912 92.0691C40.2944 92.0691 41.4816 91.4923 42.2656 90.6411V92.1475C41.4032 92.8419 40.2552 93.1891 39.1912 93.1891C36.3128 93.1891 33.8713 90.7139 33.8713 87.6283C33.8713 84.5427 36.2736 81.9107 39.2304 81.9107C40.3728 81.9107 41.3584 82.2579 42.2656 82.9915V84.4979V84.4923ZM49.764 83.2379H45.5808V86.4859H49.6464V87.6451H45.5808L45.5416 91.9347H49.7584V93.0211H44.4328V82.0955H49.7584V83.2435L49.764 83.2379Z" fill="white"/>
<path d="M13.3005 9.18933C13.3005 7.44773 12.0797 7.21814 10.6966 7.21814H10.3438V11.1605H10.663C12.0014 11.1605 13.3061 10.9309 13.3061 9.18933H13.3005Z" fill="white"/>
<path d="M49.6729 3.66223H6.18897C5.24257 3.66223 4.49219 4.35664 4.49219 5.20783V16.9958C4.49219 17.8862 5.2426 18.6702 6.1498 18.6702H49.6281C50.5801 18.6702 51.3249 17.9982 51.3249 17.1134V5.32543C51.3249 4.44063 50.5745 3.66223 49.6673 3.66223H49.6729ZM13.7153 17.0182L10.641 12.2638H10.305L10.2882 17.0182H9.18498V6.12063H10.6858C12.6122 6.12063 14.4322 6.69742 14.4322 9.17262C14.4322 10.8358 13.4466 12.0342 11.8674 12.1462L15.0986 17.0182H13.7153ZM22.1042 17.2254C19.1474 17.2254 16.7786 14.7502 16.7786 11.5806C16.7786 8.41103 19.1866 5.97503 22.1042 5.97503C25.0217 5.97503 27.4633 8.52303 27.4633 11.6142C27.4633 14.7054 24.9769 17.2198 22.1042 17.2198V17.2254ZM33.6849 17.0686H29.7033V6.17103H30.8233V15.9878H33.6905V17.0742L33.6849 17.0686ZM39.6769 17.0686H35.6897V6.17103H36.8097V15.9878H39.6769V17.0742V17.0686ZM44.1177 17.287C42.4265 17.287 41.2001 16.2062 40.9257 14.5038L41.9897 14.1566C42.1857 15.2766 42.9361 16.2006 44.0393 16.2006C45.1425 16.2006 46.2065 15.3102 46.2065 14.0726C46.2065 12.835 45.2601 12.3758 44.3193 11.8718L43.6865 11.5638C42.5049 11.0206 41.4409 10.3262 41.4409 8.81983C41.4409 7.07824 42.8241 6.03664 44.3193 6.03664C45.4617 6.03664 46.4473 6.65262 47.0017 7.73902L46.0497 8.35502C45.6577 7.58222 45.1817 7.15663 44.3193 7.11743C43.3673 7.11743 42.5833 7.81183 42.5833 8.81983C42.5833 9.82783 43.5297 10.2478 44.1961 10.5558L44.8681 10.8246C46.2065 11.519 47.3489 12.2134 47.3153 13.955C47.3153 15.8478 45.8929 17.2758 44.1177 17.2758V17.287Z" fill="white"/>
<path d="M22.0975 7.09473C19.7343 7.09473 17.9199 9.14433 17.9199 11.6139C17.9199 14.0835 19.7343 16.0995 22.0583 16.0995C24.3823 16.0995 26.3199 14.0891 26.3199 11.6139C26.3199 9.13873 24.4663 7.09473 22.1031 7.09473H22.0975Z" fill="white"/>
<path d="M49.3988 20.413H5.8757C4.96851 20.413 4.16211 21.1298 4.16211 22.0146V75.9593C4.16211 76.8105 4.85093 77.5048 5.75813 77.5048L49.242 77.5832C50.1884 77.5832 50.9948 76.928 50.9948 76.0376V22.093C50.9948 21.2026 50.306 20.413 49.3988 20.413ZM24.2941 73.736H17.8709L18.8285 72.1904V51.8681C20.5645 51.5209 21.2029 51.4201 23.2357 51.1177V52.7025C23.2357 52.7025 24.7253 52.7977 27.5197 52.4505C27.9733 53.2233 28.3653 53.6433 29.1717 55.6369H29.4069C26.9205 55.9281 23.1685 56.2921 23.1685 56.2921V72.1848L24.2997 73.7304L24.2941 73.736ZM30.3028 68.9817L32.0781 66.7025C32.0781 66.7025 32.6829 59.8425 28.2533 52.1369C27.1725 50.2497 26.6741 49.5441 26.6741 49.5441C26.6741 49.5441 23.7565 50.4345 20.7997 50.9721C17.9997 51.4761 15.1045 51.6273 15.1045 51.6273V67.5312L16.3085 69.0601H9.91891L10.9437 67.5312V26.2426C10.9437 26.2426 10.9829 25.6994 10.8261 25.1618C10.7085 24.6578 10.1541 24.1594 10.1541 24.1594V23.6946C10.1541 23.6946 15.7485 23.7338 24.1093 23.7338C29.39 23.7338 32.8621 25.5481 34.8725 28.5273C35.5837 29.6081 36.1325 30.8065 36.4909 32.1617C36.6869 33.0521 36.8828 33.9369 36.922 34.9057C37.6332 41.6313 30.1013 48.0825 30.1013 48.0825C30.1013 48.0825 30.8125 49.3593 31.7981 51.0953C32.3133 52.1033 32.8844 53.2681 33.4556 54.4609C36.0652 59.9377 36.0596 66.5961 36.0596 66.5961L37.9524 68.9929H30.3028V68.9817ZM38.042 73.5512L39.8172 71.2889C39.8172 71.2889 40.786 66.0921 37.9468 60.4305C35.6004 55.7769 34.374 54.1137 34.374 54.1137C34.374 54.1137 34.3013 54.1921 33.9261 54.2873C33.3549 53.0889 33.3437 52.6689 32.3469 50.7873C36.4852 48.8721 39.7948 45.3161 39.6156 39.6377C39.5092 36.2217 38.4956 34.1329 37.3084 32.9681C36.9332 29.8266 35.802 28.6897 35.802 28.6897H35.746C35.746 28.6897 35.7348 28.673 35.7292 28.6618C41.598 29.8209 44.1572 33.8585 44.7004 39.4865C45.4564 47.2593 37.8012 52.6633 37.8012 52.6633C37.8012 52.6633 41.878 59.6185 42.8692 63.2529C43.4012 65.4201 43.7932 71.1545 43.7932 71.1545L45.686 73.5737L38.0364 73.5512H38.042Z" fill="white"/>
<path d="M29.5291 28.236C28.0059 26.6512 25.0715 26.5952 25.0715 26.5952H15.3555V47.948C15.3555 47.948 19.1971 48.0488 23.2179 46.5928C28.0507 44.8456 32.049 41.34 31.8922 35.0008C31.853 31.792 30.4755 29.244 29.5291 28.236ZM23.1507 31.2152V45.9768C21.7339 46.4416 20.6027 46.8952 18.7827 47.0576V29.6696C18.5867 29.2048 18.1499 28.7456 18.0715 28.6672L18.1107 28.2248H28.3195C29.2267 28.6896 30.173 29.5576 30.7274 31.2208H23.1451L23.1507 31.2152Z" fill="white"/>
</svg>
