<svg width="140" height="56" viewBox="0 0 140 56" fill="none" xmlns="http://www.w3.org/2000/svg"><path d="M4.475 15.195h2.484c.752 0 1.461-.104 2.136-.312a5.642 5.642 0 001.789-.909 4.449 4.449 0 001.245-1.485c.307-.597.467-1.29.467-2.081 0-.791-.146-1.478-.432-2.047a4.285 4.285 0 00-1.127-1.436 4.603 4.603 0 00-1.594-.86 6.055 6.055 0 00-1.823-.278c-1.594 0-2.93.465-4.03 1.401-1.092.937-1.85 2.227-2.268 3.886h-.66c0-.992.034-1.825.097-2.512.062-.68.306-1.277.73-1.783.286-.354.668-.673 1.141-.958a8.614 8.614 0 011.573-.728c.578-.201 1.17-.354 1.789-.465a10.15 10.15 0 011.788-.167c.814 0 1.698.07 2.638.216a7.76 7.76 0 012.581.86c.787.43 1.434 1.048 1.956 1.852.522.805.78 1.867.78 3.192 0 1.083-.377 2.075-1.128 2.99-.752.916-1.92 1.624-3.514 2.13 1.036.202 1.906.473 2.602.826.696.354 1.26.764 1.691 1.242.432.472.738 1.013.912 1.617.174.604.264 1.249.264 1.936 0 1.277-.278 2.324-.828 3.136a5.97 5.97 0 01-2.101 1.915 8.9 8.9 0 01-2.798.957 17.178 17.178 0 01-2.88.264c-1.657 0-3.146-.298-4.476-.895C2.157 26.102.995 25.027 0 23.46l.661-.493a8.739 8.739 0 002.77 2.394c1.092.604 2.435.909 4.029.909 1.747 0 3.145-.416 4.21-1.256 1.058-.84 1.594-2.019 1.594-3.539 0-1.588-.53-2.81-1.594-3.67-1.058-.86-2.63-1.29-4.704-1.29H4.482v-1.319h-.007zm13.291.825c0-1.609.237-3.114.71-4.523.473-1.408 1.162-2.637 2.053-3.684a9.562 9.562 0 013.25-2.463c1.273-.597 2.693-.895 4.259-.895 1.565 0 2.985.298 4.258.895a9.562 9.562 0 013.25 2.463c.898 1.047 1.58 2.276 2.053 3.684.473 1.409.71 2.921.71 4.524 0 1.63-.237 3.143-.71 4.545a11.073 11.073 0 01-2.053 3.67 9.562 9.562 0 01-3.25 2.463c-1.273.597-2.693.895-4.258.895-1.566 0-2.986-.298-4.26-.895a9.562 9.562 0 01-3.25-2.463c-.897-1.048-1.579-2.269-2.052-3.67-.473-1.402-.71-2.915-.71-4.545zm17.23 0c0-1.56-.16-2.976-.48-4.245-.32-1.263-.78-2.346-1.378-3.24-.598-.896-1.322-1.576-2.185-2.047-.863-.472-1.837-.708-2.915-.708-1.086 0-2.053.236-2.916.708-.863.471-1.594 1.158-2.185 2.046-.592.888-1.058 1.97-1.378 3.24-.32 1.27-.48 2.686-.48 4.247s.16 2.976.48 4.246c.32 1.27.78 2.345 1.378 3.24.598.895 1.322 1.575 2.185 2.047.863.472 1.83.708 2.916.708 1.078 0 2.052-.236 2.915-.708.863-.471 1.594-1.158 2.185-2.046.599-.896 1.058-1.971 1.378-3.24.32-1.264.48-2.679.48-4.247zm8.449-6.938c0-.992-.14-1.79-.418-2.393-.278-.604-.912-.91-1.907-.91h-.334v-.658H57.19v21.807h-2.986V6.446h-8.28v2.643c0 3.768-.175 6.828-.516 9.187-.34 2.359-.807 4.204-1.392 5.537-.584 1.332-1.26 2.24-2.018 2.727-.765.485-1.552.728-2.373.728-.243 0-.522-.028-.828-.083a4.946 4.946 0 01-.828-.215v-.826a4.28 4.28 0 001.427-.312c.466-.188.897-.514 1.294-.979.397-.464.765-1.089 1.106-1.88.341-.79.634-1.81.863-3.053.23-1.242.418-2.754.564-4.524.153-1.79.223-3.892.223-6.314zm16.471 6.938c0-1.609.237-3.114.71-4.523.474-1.408 1.163-2.637 2.053-3.684a9.562 9.562 0 013.25-2.463c1.266-.597 2.686-.895 4.259-.895 1.566 0 2.985.298 4.259.895a9.63 9.63 0 013.25 2.463c.897 1.047 1.58 2.276 2.052 3.684.474 1.409.717 2.921.717 4.524 0 1.63-.236 3.143-.716 4.545a11.073 11.073 0 01-2.053 3.67 9.563 9.563 0 01-3.25 2.463c-1.274.597-2.693.895-4.26.895-1.572 0-2.984-.298-4.258-.895a9.562 9.562 0 01-3.25-2.463c-.898-1.048-1.58-2.269-2.053-3.67-.473-1.402-.71-2.915-.71-4.545zm17.23 0c0-1.56-.16-2.976-.48-4.245-.32-1.263-.779-2.346-1.377-3.24-.599-.896-1.322-1.576-2.185-2.047-.863-.472-1.83-.708-2.916-.708-1.086 0-2.053.236-2.916.708-.863.471-1.594 1.158-2.185 2.046-.591.888-1.058 1.97-1.378 3.24-.32 1.27-.48 2.686-.48 4.247s.16 2.976.48 4.246c.32 1.27.78 2.345 1.378 3.24.599.895 1.322 1.575 2.185 2.047.863.472 1.83.708 2.916.708 1.078 0 2.053-.236 2.916-.708.863-.471 1.593-1.158 2.185-2.046.598-.896 1.058-1.971 1.378-3.24.313-1.264.48-2.679.48-4.247zm22.102-10.9v1.32h-7.453v20.48H88.81V6.44h-2.985c-1.323 0-2.346.305-3.062.909-.717.603-1.079 1.568-1.079 2.893h-.661V7.764c0-.333.035-.652.118-.971.077-.32.223-.597.432-.84s.494-.437.863-.596c.361-.153.835-.23 1.405-.23h15.407v-.006zm.265 10.9c0-1.609.236-3.114.71-4.523.473-1.408 1.162-2.637 2.053-3.684a9.557 9.557 0 013.249-2.463c1.274-.597 2.694-.895 4.259-.895 1.566 0 2.986.298 4.259.895a9.628 9.628 0 013.25 2.463c.898 1.047 1.58 2.276 2.053 3.684.473 1.409.71 2.921.71 4.524 0 1.63-.237 3.143-.71 4.545a11.064 11.064 0 01-2.053 3.67 9.56 9.56 0 01-3.25 2.463c-1.273.597-2.693.895-4.259.895-1.565 0-2.985-.298-4.259-.895a9.557 9.557 0 01-3.249-2.463c-.898-1.048-1.58-2.269-2.053-3.67-.474-1.402-.71-2.915-.71-4.545zm17.23 0c0-1.56-.16-2.976-.48-4.245-.32-1.263-.779-2.346-1.378-3.24-.598-.896-1.322-1.576-2.185-2.047-.863-.472-1.837-.708-2.916-.708-1.078 0-2.053.236-2.915.708-.863.471-1.594 1.158-2.186 2.046-.598.895-1.057 1.97-1.377 3.24-.321 1.27-.481 2.686-.481 4.247s.16 2.976.481 4.246c.32 1.27.779 2.345 1.377 3.24.599.895 1.323 1.575 2.186 2.047.862.472 1.83.708 2.915.708 1.079 0 2.053-.236 2.916-.708.863-.471 1.594-1.158 2.185-2.046.599-.896 1.058-1.971 1.378-3.24.32-1.264.48-2.679.48-4.247zm20.279-7.93l-10.606 18.831h-2.985V9.082c0-.992-.139-1.79-.418-2.393-.278-.604-.911-.91-1.907-.91h-.661v-.658h2.986c.57 0 1.057.048 1.44.145.383.097.696.299.926.597.229.298.389.708.48 1.221.09.52.132 1.187.132 1.998v14.87L137.015 5.12H140v21.807h-2.985V8.09h.007zm-5.303-6.605c.925 0 1.684-.146 2.268-.43.585-.285 1.044-.639 1.378-1.055l.661.493c-.417.922-.974 1.651-1.656 2.178-.682.528-1.566.791-2.651.791-1.086 0-1.97-.263-2.652-.79-.682-.528-1.238-1.257-1.656-2.18l.661-.492c.334.416.787.77 1.378 1.055.585.284 1.343.43 2.269.43zM38.72 55.334h-2.986V34.852H25.79v20.482h-2.985V37.495c0-.992-.14-1.79-.418-2.393-.278-.604-.912-.91-1.907-.91h-.66v-.659h18.886v21.801h.014zm15.845-21.807c.57 0 1.044.076 1.406.229.362.152.654.353.863.596.208.243.354.52.431.84.077.319.118.645.118.978v2.477h-.66c0-1.325-.363-2.283-1.08-2.893-.716-.604-1.74-.91-3.061-.91h-6.166v8.59h8.95v1.326h-8.95v9.249h5.797c1.503 0 2.693-.278 3.563-.826.87-.548 1.566-1.485 2.074-2.81l.66.167-1.161 3.136a2.424 2.424 0 01-.877 1.207c-.41.298-.947.444-1.608.444H43.431V37.49c0-.993-.14-1.79-.418-2.394-.278-.604-.911-.91-1.907-.91h-.66v-.658h14.119zm22.763 6.938c-.418-2.158-1.197-3.747-2.338-4.76-1.135-1.013-2.624-1.52-4.454-1.52a8.44 8.44 0 00-3.062.549c-.96.36-1.81.957-2.533 1.783-.73.825-1.302 1.908-1.726 3.254-.418 1.346-.626 3.004-.626 4.989 0 1.235.146 2.442.445 3.635.3 1.187.766 2.248 1.406 3.171a7.461 7.461 0 002.47 2.248c1.002.576 2.213.86 3.626.86 1.656 0 3.083-.395 4.273-1.186 1.19-.79 2.254-1.936 3.18-3.434l.66.492c-.528 1.034-1.12 1.901-1.774 2.595a9.267 9.267 0 01-2.101 1.686 8.046 8.046 0 01-2.436.91 14.4 14.4 0 01-2.797.263c-1.566 0-2.986-.291-4.26-.874a9.646 9.646 0 01-3.249-2.394c-.898-1.013-1.58-2.2-2.053-3.566-.473-1.367-.71-2.831-.71-4.392 0-1.652.272-3.2.815-4.642.542-1.443 1.273-2.706 2.205-3.782a10.243 10.243 0 013.264-2.546 8.884 8.884 0 013.995-.923c1.83 0 3.416.257 4.739.777 1.322.52 2.29 1.138 2.88 1.867.418.506.662 1.214.731 2.116.07.902.098 1.852.098 2.845h-.668v-.021zm2.387 3.962c0-1.61.236-3.116.71-4.524.473-1.409 1.162-2.637 2.052-3.684a9.561 9.561 0 013.25-2.464c1.274-.596 2.693-.895 4.259-.895 1.566 0 2.985.299 4.259.895a9.63 9.63 0 013.25 2.463c.897 1.048 1.58 2.276 2.053 3.685.473 1.408.709 2.92.709 4.524 0 1.63-.236 3.143-.71 4.544a11.072 11.072 0 01-2.052 3.67 9.561 9.561 0 01-3.25 2.464c-1.274.597-2.693.895-4.259.895-1.566 0-2.985-.298-4.259-.895a9.561 9.561 0 01-3.25-2.463c-.897-1.048-1.58-2.27-2.053-3.67-.473-1.402-.71-2.915-.71-4.545zm17.23 0c0-1.561-.16-2.977-.48-4.247-.32-1.27-.78-2.345-1.378-3.24-.599-.895-1.322-1.575-2.185-2.047-.863-.471-1.837-.707-2.916-.707s-2.053.236-2.916.707c-.863.472-1.593 1.159-2.185 2.047-.598.895-1.058 1.97-1.378 3.24-.32 1.27-.48 2.686-.48 4.247 0 1.56.16 2.976.48 4.246.32 1.27.78 2.345 1.378 3.24.599.895 1.322 1.575 2.185 2.047.863.472 1.83.708 2.916.708 1.079 0 2.053-.236 2.916-.708s1.593-1.159 2.185-2.047c.598-.895 1.058-1.97 1.378-3.24.32-1.263.48-2.678.48-4.246zm6.695-10.901c.57 0 1.057.049 1.44.146.383.097.696.299.926.597.229.298.389.708.48 1.221.09.52.132 1.186.132 1.998v6.446l6.959-6.938a69.1 69.1 0 001.211-1.242 9.53 9.53 0 011.225-1.103 5.876 5.876 0 011.426-.812c.522-.208 1.114-.313 1.775-.313h1.656v.826c-.905 0-1.705.16-2.401.479-.696.32-1.496.93-2.401 1.832l-6.465 6.445 7.62 7.91a18.458 18.458 0 002.868 2.456c1.009.694 1.927 1.097 2.769 1.2v.66c-.243.09-.536.166-.877.229-.341.07-.765.097-1.273.097a7.4 7.4 0 01-1.441-.146c-.494-.097-1.037-.298-1.621-.596a12.37 12.37 0 01-1.872-1.208c-.661-.506-1.392-1.18-2.185-2.019l-6.959-7.271v10.9h-2.985V37.481c0-.992-.14-1.79-.418-2.393-.278-.604-.912-.91-1.907-.91h-.661v-.658h2.979v.006z" fill="#C5A995"/></svg>