<svg width="200" height="52" fill="none" xmlns="http://www.w3.org/2000/svg"><path d="M13.04 29.35c-4.24 0-7.46-1.27-9.57-3.78-1.12-1.34-1.96-3.06-2.51-5.13L.9 20.2 5.66 19l.05.25c.31 1.52.82 2.7 1.52 3.5.62.81 1.46 1.42 2.52 1.81 1.07.4 2.22.6 3.42.6.91 0 1.84-.11 2.76-.33.9-.22 1.63-.52 2.17-.89.96-.63 1.42-1.52 1.42-2.71 0-.88-.34-1.59-1.04-2.2-.67-.6-1.71-1.09-3.08-1.48l-5.35-1.45c-2.47-.68-4.33-1.52-5.53-2.51-.8-.64-1.41-1.43-1.8-2.35a7.06 7.06 0 0 1-.58-2.8c0-1.36.43-2.65 1.27-3.82a7.91 7.91 0 0 1 3.26-2.63c1.61-.73 3.63-1.1 6.02-1.1 2.42.05 4.49.51 6.15 1.37 2.43 1.29 4.25 3.35 5.39 6.13l.11.27-4.74 1.16-.09-.18c-.39-.82-.82-1.53-1.28-2.09a5.747 5.747 0 0 0-1.75-1.41c-1.2-.7-2.49-1.05-3.83-1.05-1.56 0-2.83.27-3.79.79-.55.3-1 .7-1.32 1.19-.32.48-.48.98-.48 1.5 0 .66.24 1.22.73 1.73.55.51 1.76 1.04 3.6 1.58l5.11 1.38c1.19.33 2.23.7 3.08 1.1.87.41 1.64.91 2.29 1.49.83.74 1.48 1.59 1.93 2.54.46.95.69 1.96.69 3.02 0 1.18-.34 2.35-1 3.46a8.017 8.017 0 0 1-2.66 2.71c-1.01.66-2.18 1.13-3.46 1.39-1.29.25-2.74.38-4.33.38Z" fill="url(#a)"/><path d="M12.68 1.15c2.39.05 4.4.5 6.04 1.34 2.39 1.27 4.15 3.27 5.27 6l-4.27 1.04c-.4-.84-.84-1.56-1.31-2.14-.47-.58-1.08-1.07-1.83-1.47a7.699 7.699 0 0 0-3.95-1.08c-1.61 0-2.91.27-3.9.82-.59.32-1.06.75-1.41 1.27-.35.52-.52 1.07-.52 1.64 0 .72.27 1.35.81 1.9.59.55 1.82 1.09 3.7 1.64l5.11 1.38c1.18.32 2.19.68 3.04 1.08.85.4 1.59.88 2.23 1.45.81.72 1.43 1.54 1.87 2.46.44.92.66 1.89.66 2.91 0 1.14-.32 2.26-.97 3.34a7.638 7.638 0 0 1-2.58 2.63c-.99.65-2.12 1.1-3.38 1.36-1.26.26-2.68.39-4.27.39-4.19 0-7.31-1.23-9.38-3.69-1.1-1.32-1.92-2.99-2.46-5.03l4.27-1.08c.32 1.57.85 2.77 1.57 3.62.64.85 1.52 1.47 2.62 1.88 1.1.41 2.27.62 3.5.62.94 0 1.88-.11 2.82-.34.94-.22 1.69-.53 2.25-.93 1.02-.67 1.53-1.64 1.53-2.91 0-.94-.38-1.74-1.13-2.39-.7-.62-1.76-1.13-3.18-1.53l-5.35-1.45c-2.44-.67-4.25-1.49-5.43-2.46a5.605 5.605 0 0 1-1.73-2.26c-.38-.88-.56-1.78-.56-2.7 0-1.32.41-2.54 1.23-3.67a7.656 7.656 0 0 1 3.16-2.55c1.59-.73 3.56-1.09 5.93-1.09Zm0-.5c-2.43 0-4.49.38-6.13 1.13-1.36.6-2.49 1.52-3.36 2.71-.88 1.21-1.32 2.54-1.32 3.96 0 .98.2 1.96.6 2.9.41.96 1.04 1.78 1.88 2.45 1.22 1 3.11 1.86 5.61 2.55l5.36 1.45c1.34.37 2.34.85 2.98 1.42.65.56.96 1.22.96 2.01 0 1.1-.43 1.91-1.31 2.49-.52.37-1.22.66-2.1.86-.9.21-1.81.32-2.7.32-1.17 0-2.29-.2-3.33-.58-1.01-.37-1.81-.95-2.4-1.72-.68-.8-1.18-1.94-1.48-3.42l-.1-.51-.5.13-4.26 1.1-.49.12.13.48c.55 2.1 1.41 3.86 2.55 5.22 2.16 2.57 5.44 3.87 9.76 3.87 1.61 0 3.08-.14 4.37-.4 1.32-.27 2.51-.75 3.55-1.43a8.277 8.277 0 0 0 2.73-2.79c.69-1.15 1.04-2.36 1.04-3.59 0-1.09-.24-2.14-.71-3.12a8.439 8.439 0 0 0-1.99-2.61c-.68-.6-1.47-1.12-2.35-1.53-.87-.41-1.92-.78-3.12-1.11l-5.11-1.38c-2.23-.65-3.13-1.19-3.5-1.53-.43-.44-.65-.95-.65-1.54 0-.48.14-.92.44-1.36.3-.45.72-.82 1.23-1.11.92-.5 2.15-.76 3.67-.76 1.3 0 2.54.34 3.7 1.01.71.37 1.27.83 1.7 1.35.44.55.86 1.24 1.25 2.05l.17.36.39-.1 4.27-1.04.56-.14-.22-.53c-1.17-2.83-3.02-4.93-5.5-6.25C17.24 1.17 15.14.7 12.68.65Z" fill="#119A39"/><path d="M28.01 28.79V1.46H46.9v4.19H32.73v18.96H46.9v4.18H28.01Z" fill="url(#b)"/><path d="M46.65 1.71V5.4H32.48v19.46h14.17v3.69h-18.4V1.71h18.4Zm.5-.5h-19.4v27.84h19.4V24.36H32.98V5.89h14.17V1.21Z" fill="#119A39"/><path d="M50.49 28.79V1.46h12.89c1.07 0 2.11.15 3.09.46 1.76.59 3.19 1.53 4.26 2.8.73.75 1.31 1.65 1.69 2.64.38.99.58 2.04.58 3.11 0 .92-.19 1.86-.56 2.78a8.93 8.93 0 0 1-1.55 2.53c-.85 1.01-1.96 1.84-3.28 2.45-1.33.61-2.75.92-4.23.92h-8.17v9.65h-4.72v-.01Zm12.89-13.84c.66 0 1.33-.16 2.01-.48a5.41 5.41 0 0 0 1.75-1.3c.7-.84 1.06-1.75 1.06-2.71 0-.63-.12-1.24-.34-1.81-.23-.56-.56-1.06-.99-1.48a5.78 5.78 0 0 0-1.64-1.11c-.62-.28-1.25-.43-1.85-.43h-8.17v9.31h8.17v.01Z" fill="url(#c)"/><path d="M63.38 1.71c1.05 0 2.05.15 3.02.45 1.72.57 3.1 1.48 4.15 2.72.72.75 1.27 1.6 1.65 2.57.38.97.56 1.98.56 3.02 0 .89-.18 1.79-.54 2.68-.36.89-.87 1.71-1.51 2.46-.83.99-1.9 1.79-3.2 2.39-1.3.6-2.68.89-4.13.89h-8.41v9.65h-4.23V1.71h12.64ZM54.97 15.2h8.41c.7 0 1.4-.17 2.11-.5.71-.34 1.32-.79 1.83-1.36.75-.89 1.13-1.85 1.13-2.87 0-.67-.12-1.3-.36-1.9-.24-.6-.59-1.12-1.05-1.57a5.93 5.93 0 0 0-1.71-1.16c-.66-.3-1.31-.45-1.95-.45h-8.41v9.81Zm8.41-13.99H50.24v27.84h5.23v-9.66h7.92c1.51 0 2.97-.32 4.33-.94 1.36-.62 2.5-1.47 3.37-2.52.67-.78 1.21-1.65 1.59-2.59.38-.95.58-1.92.58-2.87 0-1.1-.2-2.18-.6-3.2-.4-1.03-.99-1.95-1.76-2.74-1.08-1.28-2.55-2.25-4.35-2.85-1.01-.31-2.08-.47-3.17-.47Zm-7.92 4.68h7.92c.57 0 1.16.14 1.75.4.6.27 1.13.63 1.57 1.06.4.4.72.87.93 1.4.22.53.33 1.11.33 1.71 0 .91-.33 1.74-1.01 2.55a5.1 5.1 0 0 1-1.66 1.23c-.64.3-1.28.46-1.9.46h-7.92V5.89h-.01Z" fill="#119A39"/><path d="M82.49 28.79V5.65H76.8c-2.17 0-3.94-1.77-3.94-3.94v-.25h20.03c2.17 0 3.94 1.77 3.94 3.94v.25h-9.62V28.8h-4.72v-.01Z" fill="url(#d)"/><path d="M92.89 1.71c2.04 0 3.69 1.65 3.69 3.69h-9.62v23.15h-4.23V5.4H76.8c-2.04 0-3.69-1.65-3.69-3.69h19.78Zm0-.5H72.61v.5c0 2.31 1.88 4.19 4.19 4.19h5.44v23.15h5.23V5.89h9.63v-.5c-.02-2.3-1.9-4.18-4.21-4.18Z" fill="#119A39"/><path d="M104.579 1.44h-4.72V28.8h4.72V1.44Z" fill="url(#e)"/><path d="M104.33 1.68v26.86h-4.23V1.68h4.23Zm.5-.49H99.6v27.86h5.23V1.19Z" fill="#119A39"/><path d="M140.73 1.44h-4.72V28.8h4.72V1.44Z" fill="url(#f)"/><path d="M140.48 1.68v26.86h-4.23V1.68h4.23Zm.5-.49h-5.23v27.86h5.23V1.19Z" fill="#119A39"/><path d="m117.1 28.79-9.6-27.33h4.88l7.87 22.39 7.96-22.39h4.87l-9.59 27.33h-6.39Z" fill="url(#g)"/><path d="m132.73 1.71-9.42 26.84h-6.04l-9.42-26.84h4.35l8.05 22.89 8.13-22.89h4.35m.7-.5H128.03l-.12.33-7.66 21.57-7.59-21.56-.12-.33H107.14l.23.66 9.42 26.84.12.33H123.65l.12-.33 9.42-26.84.24-.67Z" fill="#119A39"/><path d="M153.38 28.79V5.65h-9.62V5.4c0-2.17 1.77-3.94 3.94-3.94h20.03v.25c0 2.17-1.77 3.94-3.94 3.94h-5.68V28.8h-4.73v-.01Z" fill="url(#h)"/><path d="M167.47 1.71c0 2.04-1.65 3.69-3.69 3.69h-5.93v23.15h-4.23V5.4H144c0-2.04 1.65-3.69 3.69-3.69h19.78Zm.5-.5h-20.28c-2.31 0-4.19 1.88-4.19 4.19v.5h9.63v23.15h5.23V5.89h5.44c2.31 0 4.19-1.88 4.19-4.19v-.49h-.02Z" fill="#119A39"/><path d="M39.82 17.48c-.2 0-.41-.01-.62-.04-1.85-.25-3.27-.3-4.13-.3-.9 0-1.39.06-1.4.06l-.34.04.07-.34c.28-1.33 2.23-3.5 4.64-3.85 1.94-.28 5.97-.41 6.14-.41l.32-.01-.08.32c-.66 2.83-2.39 4.53-4.6 4.53Z" fill="url(#i)"/><path d="M44.19 12.88c-.55 2.31-2 4.35-4.37 4.35-.19 0-.39-.01-.59-.04-1.81-.24-3.22-.3-4.16-.3-.93 0-1.43.06-1.43.06.26-1.23 2.12-3.32 4.44-3.66 1.95-.29 6.11-.41 6.11-.41Zm.64-.51-.65.02c-.17.01-4.21.13-6.17.41-2.55.37-4.55 2.61-4.85 4.05l-.14.68.69-.08s.48-.05 1.37-.05c.85 0 2.26.05 4.1.3.22.03.44.04.66.04 2.33 0 4.15-1.77 4.85-4.73l.14-.64Z" fill="#119A39"/><path d="M194.85 6.04h-18.371v18.55h18.371V6.04Z" fill="#fff"/><path d="M171.99 28.78V11.27c0-5.4 4.39-9.8 9.79-9.8h17.51v17.52c0 5.4-4.39 9.79-9.79 9.79h-17.51Zm16.26-5.55v-5.49h5.49v-5.21h-5.49V7.04h-5.21v5.49h-5.49v5.21h5.49v5.49h5.21Z" fill="url(#j)"/><path d="M199.05 1.72v17.27c0 5.27-4.27 9.55-9.55 9.55h-17.27V11.27c0-5.27 4.27-9.55 9.55-9.55h17.27M177.3 17.98h5.49v5.49h5.7v-5.49h5.49v-5.7h-5.49V6.79h-5.7v5.49h-5.49v5.7Zm22.25-16.76h-17.77c-5.54 0-10.04 4.51-10.04 10.04v17.77h17.77c5.54 0 10.04-4.51 10.04-10.04V1.22Zm-16.26 6.06H188v5.5h5.5v4.71H188v5.5h-4.71v-5.5h-5.5v-4.71h5.5v-5.5Z" fill="#CC1417"/><path d="M8.76 48.74c-.39.48-.87.86-1.46 1.11-.58.26-1.22.39-1.9.39-.67 0-1.3-.13-1.89-.38a3.78 3.78 0 0 1-1.47-1.13c-.34-.42-.59-.9-.75-1.44l1.35-.39c.11.38.27.71.48 1 .25.34.57.6.97.78.4.18.82.27 1.26.27.48 0 .92-.09 1.33-.27.41-.18.74-.44.99-.78.36-.46.59-1.08.67-1.86H5.09v-1.35h3.25c-.1-.78-.32-1.4-.67-1.85-.24-.34-.57-.6-.97-.78-.41-.18-.84-.27-1.3-.27-.46 0-.89.09-1.3.27-.41.18-.74.44-.98.78-.22.29-.39.65-.52 1.1l-1.4-.25c.2-.67.48-1.23.84-1.69.39-.49.88-.87 1.46-1.12.59-.25 1.22-.38 1.89-.38.68 0 1.32.13 1.9.38.58.25 1.07.63 1.46 1.12.71.87 1.06 2.02 1.06 3.43.01 1.33-.34 2.42-1.05 3.31ZM17.07 50.05l-3.38-4.08h-.97v4.08h-1.37v-9.33h1.37v3.95h.96l3.01-3.95h1.7l-3.46 4.59 3.89 4.74h-1.75ZM21.4 49.86c-.59-.26-1.07-.64-1.45-1.13-.7-.86-1.05-2-1.05-3.42 0-.62.09-1.21.26-1.78.17-.56.44-1.06.79-1.5.39-.49.88-.87 1.46-1.12.58-.25 1.22-.38 1.9-.38.67.01 1.3.14 1.89.39.59.26 1.08.62 1.47 1.11.68.85 1.03 1.97 1.05 3.36-.02 1.38-.37 2.5-1.05 3.35-.39.5-.88.88-1.47 1.13-.59.25-1.22.38-1.89.38-.69-.01-1.33-.13-1.91-.39Zm3.18-1.16c.41-.18.74-.44.99-.78.47-.61.7-1.49.7-2.62 0-1.03-.23-1.84-.7-2.44a2.32 2.32 0 0 0-.95-.77 2.97 2.97 0 0 0-1.26-.27c-.47 0-.92.09-1.33.26-.41.17-.75.43-1.01.78-.45.58-.68 1.42-.7 2.53 0 1.08.23 1.92.7 2.53.25.34.58.6.97.78.4.18.82.27 1.26.27.47-.01.92-.1 1.33-.27ZM38.9 44.7c-.12.31-.28.6-.49.85-.27.35-.61.62-1.03.83-.42.21-.86.31-1.33.31h-2.71v3.36h-1.36v-9.33h4.07c.34 0 .66.05.97.16.55.2 1 .51 1.33.95.23.26.41.56.53.89.12.34.18.69.18 1.05.01.31-.04.62-.16.93Zm-1.21-.94c0-.23-.04-.45-.12-.66-.08-.21-.19-.39-.34-.54-.16-.16-.34-.3-.55-.4-.21-.1-.42-.16-.63-.16h-2.71v3.41h2.71c.22 0 .45-.06.68-.17.23-.12.43-.28.59-.47.25-.32.37-.65.37-1.01ZM41.69 42v2.73h3.79v1.28h-3.79v2.75h4.56v1.28h-5.92v-9.33h5.92V42h-4.56ZM58.35 40.72v9.33H48.07v-9.33h1.36v8.05h3.1v-8.05h1.36v8.05H57v-8.05h1.35ZM61.53 42v2.73h3.79v1.28h-3.79v2.75h4.56v1.28h-5.92v-9.33h5.92V42h-4.56ZM75.28 40.72v9.33h-1.35v-3.34h-4.67v3.34H67.9v-9.33h1.36v4.71h4.67v-4.71h1.35ZM84.44 40.72v9.33h-1.37v-6.93l-4.6 6.93H77.1v-9.33h1.37v6.93l4.6-6.93h1.37ZM93.35 50.05h-1.36v-3.36H89.3l-1.63 3.36h-1.54l1.79-3.68c-.4-.2-.73-.47-1-.82-.21-.26-.37-.54-.49-.85a2.56 2.56 0 0 1-.18-.93c0-.36.06-.71.18-1.05.12-.34.3-.64.53-.89.34-.43.78-.75 1.34-.95.31-.1.64-.16.97-.16h4.07v9.33h.01ZM91.99 42h-2.71c-.21 0-.42.05-.63.16-.21.1-.39.24-.55.4-.15.15-.26.34-.34.54-.08.21-.12.43-.12.66 0 .35.12.69.36 1 .16.2.36.36.59.47.23.12.46.17.68.17h2.71V42h.01ZM106.33 48.77v2.41h-1.3v-1.13H98.7v1.13h-1.28v-2.41c.41 0 .74-.21 1-.64.26-.43.44-1.06.53-1.9l.64-5.51h6.05v8.05h.69ZM104.36 42h-3.62l-.52 4.38c-.07.58-.16 1.06-.28 1.45-.12.38-.29.7-.52.94h4.94V42ZM115.42 50.05h-1.35V42h-3.51l-.62 5.25c-.11.92-.35 1.61-.71 2.09-.36.48-.91.72-1.65.72-.15 0-.26 0-.34-.01v-1.22c.47-.01.82-.16 1.03-.47.21-.3.35-.77.42-1.39l.75-6.26h5.97v9.34h.01ZM124.33 50.05h-1.36v-3.36h-2.68l-1.63 3.36h-1.54l1.79-3.68c-.4-.2-.73-.47-1-.82-.21-.26-.37-.54-.49-.85a2.56 2.56 0 0 1-.18-.93c0-.36.06-.71.18-1.05.12-.34.3-.64.53-.89.34-.43.78-.75 1.34-.95.31-.1.64-.16.97-.16h4.07v9.33ZM122.97 42h-2.71c-.21 0-.42.05-.63.16-.21.1-.39.24-.55.4-.15.15-.26.34-.34.54-.08.21-.12.43-.12.66 0 .35.12.69.36 1 .16.2.36.36.59.47.23.12.46.17.68.17h2.71V42h.01ZM137.31 48.77v2.41h-1.3v-1.13h-6.33v1.13h-1.28v-2.41c.41 0 .74-.21 1-.64.26-.43.44-1.06.53-1.9l.64-5.51h6.05v8.05h.69ZM135.34 42h-3.62l-.52 4.38c-.07.58-.16 1.06-.28 1.45-.12.38-.29.7-.52.94h4.94V42ZM141.07 49.86c-.59-.26-1.07-.64-1.45-1.13-.7-.86-1.05-2-1.05-3.42 0-.62.09-1.21.26-1.78.17-.56.44-1.06.79-1.5.39-.49.88-.87 1.46-1.12.58-.25 1.22-.38 1.9-.38.67.01 1.3.14 1.89.39.59.26 1.08.62 1.47 1.11.68.85 1.03 1.97 1.05 3.36-.02 1.38-.37 2.5-1.05 3.35-.39.5-.88.88-1.47 1.13-.59.25-1.22.38-1.89.38-.68-.01-1.32-.13-1.91-.39Zm3.18-1.16c.41-.18.74-.44.99-.78.47-.61.7-1.49.7-2.62 0-1.03-.23-1.84-.7-2.44a2.32 2.32 0 0 0-.95-.77 2.97 2.97 0 0 0-1.26-.27c-.47 0-.92.09-1.33.26-.41.17-.75.43-1.01.78-.45.58-.68 1.42-.7 2.53 0 1.08.23 1.92.7 2.53.25.34.58.6.97.78.4.18.82.27 1.26.27.48-.01.92-.1 1.33-.27ZM158.3 50.05h-1.37v-6.39l-3.02 6.39h-.61l-3.02-6.38v6.38h-1.37v-9.33h1.36l3.35 7.03 3.32-7.03h1.37v9.33h-.01ZM165.53 48.39h-4.12l-.54 1.66h-1.4l3.03-9.33h1.94l3.03 9.33h-1.4l-.54-1.66Zm-.42-1.27-1.66-5.03-1.63 5.03h3.29Z" fill="#139A39"/><defs><linearGradient id="a" x1="12.687" y1="-3.077" x2="12.687" y2="21.306" gradientUnits="userSpaceOnUse"><stop offset=".011" stop-color="#AED6B0"/><stop offset="1" stop-color="#139A39"/></linearGradient><linearGradient id="b" x1="37.452" y1="-3.414" x2="37.452" y2="20.597" gradientUnits="userSpaceOnUse"><stop offset=".011" stop-color="#AED6B0"/><stop offset="1" stop-color="#139A39"/></linearGradient><linearGradient id="c" x1="61.752" y1="-4.048" x2="61.752" y2="20.278" gradientUnits="userSpaceOnUse"><stop offset=".011" stop-color="#AED6B0"/><stop offset="1" stop-color="#139A39"/></linearGradient><linearGradient id="d" x1="84.847" y1="-4.591" x2="84.847" y2="19.521" gradientUnits="userSpaceOnUse"><stop offset=".011" stop-color="#AED6B0"/><stop offset="1" stop-color="#139A39"/></linearGradient><linearGradient id="e" x1="102.218" y1="-22.085" x2="102.218" y2="14.209" gradientUnits="userSpaceOnUse"><stop offset=".011" stop-color="#AED6B0"/><stop offset="1" stop-color="#139A39"/></linearGradient><linearGradient id="f" x1="138.368" y1="-23.482" x2="138.368" y2="12.812" gradientUnits="userSpaceOnUse"><stop offset=".011" stop-color="#AED6B0"/><stop offset="1" stop-color="#139A39"/></linearGradient><linearGradient id="g" x1="120.294" y1="-5.454" x2="120.294" y2="18.622" gradientUnits="userSpaceOnUse"><stop offset=".011" stop-color="#AED6B0"/><stop offset="1" stop-color="#139A39"/></linearGradient><linearGradient id="h" x1="155.739" y1="-6.373" x2="155.739" y2="17.739" gradientUnits="userSpaceOnUse"><stop offset=".011" stop-color="#AED6B0"/><stop offset="1" stop-color="#139A39"/></linearGradient><linearGradient id="i" x1="38.919" y1="-7.116" x2="38.919" y2="21.678" gradientUnits="userSpaceOnUse"><stop offset=".011" stop-color="#AED6B0"/><stop offset="1" stop-color="#139A39"/></linearGradient><linearGradient id="j" x1="193.285" y1="6.192" x2="172.756" y2="30.207" gradientUnits="userSpaceOnUse"><stop offset=".011" stop-color="#E94547"/><stop offset="1" stop-color="#CC1417"/></linearGradient></defs></svg>