<svg width="187" height="38" fill="none" xmlns="http://www.w3.org/2000/svg"><g clip-path="url(#a)" fill="#212121"><path d="M7.369 15.212H6.015a13.231 13.231 0 0 0-.53 3.746c0 1.406.213 2.754.608 4.03l1.056-1.05a12.23 12.23 0 0 1 .22-6.726ZM10.005 8.867h2.098a12.287 12.287 0 0 1 6.98-2.16c2.947 0 5.66 1.038 7.778 2.76l.92-.916a13.553 13.553 0 0 0-8.697-3.14c-3.49 0-6.67 1.309-9.08 3.456ZM29.256 27.94a13.464 13.464 0 0 0 3.426-8.982c0-3.275-1.166-6.28-3.109-8.62l-.925.921a12.166 12.166 0 0 1 2.732 7.7c0 2.546-.783 4.92-2.124 6.88v2.101ZM22.898 31.957v-1.354a12.268 12.268 0 0 1-6.715.258l-1.056 1.058c1.25.38 2.577.58 3.957.58 1.32 0 2.603-.187 3.814-.542Z"/><path d="M26.187 10.137H6.689a15.249 15.249 0 0 1 12.394-6.332c3.756 0 7.195 1.354 9.856 3.598l2.707-2.695A19.06 19.06 0 0 0 19.083.001C7.563.001 0 9.467 0 19.003c0 3.244 1.01 8.454 4.72 12.51h.007l21.46-21.376ZM5.044 24.967a15.001 15.001 0 0 1-1.223-5.964c0-1.773.304-3.482.867-5.061h12.297L5.316 25.56a9.806 9.806 0 0 1-.272-.593ZM33.433 6.488l-2.707 2.695a15.107 15.107 0 0 1 3.62 9.82c0 5.088-2.512 9.582-6.359 12.342V11.93L6.507 33.305s3.77 3.585 9.585 4.468c5.083.774 10.244-.432 14.246-3.423 4.623-3.463 7.822-8.86 7.822-15.347 0-4.79-1.787-9.169-4.727-12.515Zm-9.26 26.85c-.486.167-3.082 1.012-5.795.85-3.556-.206-5.647-1.354-5.86-1.457l11.655-11.613v12.22ZM143.86 13.742h-5.77a.218.218 0 0 0-.22.219v1.767c0 .122.097.219.22.219h5.77c.117 0 .22-.097.22-.22v-1.766a.222.222 0 0 0-.22-.22ZM96.343 8.216h-1.775a.218.218 0 0 0-.22.22v5.08h-6.65v-5.08a.223.223 0 0 0-.227-.22h-1.774a.218.218 0 0 0-.22.22v12.811c0 .123.097.22.22.22h1.774a.224.224 0 0 0 .227-.22v-5.52h6.65v5.52c0 .123.097.22.22.22h1.775c.123 0 .22-.097.22-.22V8.435a.218.218 0 0 0-.22-.22ZM59.083 8.216H53.76a.218.218 0 0 0-.22.22v12.811c0 .123.097.22.22.22h1.774a.224.224 0 0 0 .227-.22v-10.6c0-.123.097-.22.22-.22h3.102a.229.229 0 0 0 .227-.225V8.435a.223.223 0 0 0-.227-.22ZM52.433 8.216h-7.11c-.123 0-.175.09-.11.193l1.107 1.825a.426.426 0 0 0 .337.194h3.555c.123 0 .226.096.226.219v10.6c0 .123.097.22.22.22h1.775c.123 0 .22-.097.22-.22V8.435a.218.218 0 0 0-.22-.22ZM130.041 8.216h-5.323a.218.218 0 0 0-.22.22v1.766c0 .122.097.226.22.226h3.109c.123 0 .22.096.22.219v10.6c0 .123.097.22.22.22h1.774c.123 0 .22-.097.22-.22V8.435a.218.218 0 0 0-.22-.22ZM138.479 8.216h-7.11a.218.218 0 0 0-.22.22v12.811c0 .123.097.22.22.22h1.774a.224.224 0 0 0 .227-.22v-10.6c0-.123.097-.22.22-.22h3.561c.123 0 .272-.09.337-.193l1.101-1.825c.065-.103.013-.193-.11-.193ZM122.497 8.216H120.503l-6.65 9.717V8.435a.219.219 0 0 0-.221-.22h-1.774a.224.224 0 0 0-.227.22v12.812c0 .123.104.22.227.22h1.995l6.65-9.273v9.053c0 .123.104.22.227.22h1.767a.224.224 0 0 0 .227-.22V8.435a.224.224 0 0 0-.227-.22ZM163.423 7.004s1.126.773 3.367.773c2.525 0 3.374-.773 3.374-.773a.188.188 0 0 0 .09-.278l-.531-1.457a.243.243 0 0 0-.311-.103s-1.217.49-2.622.49c-1.373 0-2.616-.49-2.616-.49a.243.243 0 0 0-.311.103l-.538 1.457a.19.19 0 0 0 .098.278ZM172.113 8.216h-1.995l-6.65 9.717V8.435a.224.224 0 0 0-.227-.22h-1.774a.222.222 0 0 0-.22.22v12.812c0 .123.104.22.22.22H163.468l6.65-9.273v9.053c0 .123.104.22.221.22h1.774a.223.223 0 0 0 .226-.22V8.435a.223.223 0 0 0-.226-.22ZM109.417 11.93c0-1.844-1.47-3.824-5.122-3.824-2.59 0-3.84.51-5.35 1.18a.22.22 0 0 0-.103.13c-.032.102-.006.18-.006.18l.485 1.328s.065.206.201.252c.123.045.324-.052.414-.084 1.309-.478 2.461-.774 4.171-.774 1.923 0 3.108.522 3.108 1.554 0 1.206-.615 1.644-2.881 1.644h-3.588a.223.223 0 0 0-.22.226v1.767c0 .116.097.219.22.219h3.588c2.24 0 2.894.696 2.881 1.902-.013 1.25-1.185 1.74-3.108 1.74a9.5 9.5 0 0 1-4.533-1.16c-.058-.032-.181-.096-.317-.051-.123.038-.195.238-.195.238l-.576 1.283s-.084.181-.052.31c.026.116.156.18.207.213 1.205.748 2.669 1.373 5.654 1.373 3.652 0 5.122-1.98 5.122-3.823 0-1.039-.324-2.232-1.308-3.09.926-.728 1.308-1.74 1.308-2.733ZM72.17 12.414c-.006-1.651-.434-4.198-5.122-4.198h-5.743a.223.223 0 0 0-.221.226v12.805c0 .123.097.22.22.22h1.774c.123 0 .22-.097.22-.22V17.05h3.75c4.688 0 5.129-2.915 5.122-4.636Zm-5.083 2.43h-3.788v-4.416h3.788c2.655 0 2.836 1.244 2.868 2.205.026 1.025-.213 2.211-2.868 2.211ZM78.69 8.422a.377.377 0 0 0-.246-.193.192.192 0 0 0-.065-.013h-1.774c-.026 0-.045.006-.065.013a.377.377 0 0 0-.246.193l-5.368 12.845c-.052.11.013.2.136.2h1.775c.116 0 .258-.09.304-.2l.842-2.006h7.02l.84 2.006c.046.11.182.2.305.2h1.775c.123 0 .187-.09.136-.2L78.69 8.422Zm-3.788 8.628 2.59-6.184 2.59 6.184h-5.18ZM152.952 8.106c-1.878 0-3.555.639-4.721 1.8-1.23 1.218-1.936 3.017-1.936 4.938 0 1.915.706 3.714 1.936 4.933 1.166 1.16 2.843 1.8 4.721 1.8 1.871 0 3.548-.64 4.72-1.8 1.231-1.219 1.93-3.018 1.93-4.933 0-1.921-.699-3.72-1.93-4.939-1.172-1.16-2.849-1.799-4.72-1.799Zm3.205 10.175c-.764.755-1.904 1.18-3.205 1.18-1.302 0-2.442-.425-3.206-1.18-.822-.812-1.308-2.095-1.308-3.437 0-1.34.486-2.63 1.308-3.436.764-.761 1.904-1.18 3.206-1.18 1.301 0 2.441.419 3.205 1.18.823.806 1.308 2.095 1.308 3.436 0 1.342-.485 2.625-1.308 3.437ZM186.987 21.267l-5.375-12.845a.374.374 0 0 0-.246-.193c-.019-.007-.038-.013-.064-.013h-1.775a.156.156 0 0 0-.058.013.376.376 0 0 0-.246.193l-5.375 12.845c-.045.11.013.2.136.2h1.775a.37.37 0 0 0 .31-.2l4.346-10.401 4.351 10.4c.045.11.188.2.311.2h1.768c.123 0 .187-.09.142-.2ZM50.419 32.854v-1.4h.369c.071-.148.149-.335.233-.554.084-.226.155-.49.227-.787a10.648 10.648 0 0 0 .24-2.276h2.356v3.617h.512v1.4h-.712v-.8H51.13v.8h-.712Zm2.713-4.417h-.978c-.02.36-.052.696-.097 1.006-.052.31-.103.593-.168.844a6.55 6.55 0 0 1-.389 1.16h1.632v-3.01Zm1.84 3.617v-4.217h.673v3.211l1.677-3.21h.913v4.216h-.674V28.67l-1.774 3.385h-.816Zm7.634-.716c-.078.11-.156.22-.253.316-.09.097-.2.187-.33.258-.123.071-.272.13-.434.168a2.288 2.288 0 0 1-.59.064c-.647 0-1.126-.18-1.437-.548-.317-.367-.472-.915-.472-1.65 0-.736.155-1.29.472-1.651.311-.368.784-.548 1.412-.548.214 0 .401.02.57.058.162.038.31.097.434.168.13.064.24.148.33.245.09.09.168.193.233.303l-.57.412c-.045-.07-.097-.135-.149-.206a1.049 1.049 0 0 0-.466-.303 1.33 1.33 0 0 0-.376-.045c-.395 0-.686.129-.874.393-.188.264-.278.651-.278 1.174 0 .277.026.515.078.715.045.194.123.355.22.484s.22.22.362.284c.15.058.311.084.499.084.142 0 .265-.013.375-.046a1.21 1.21 0 0 0 .279-.122c.078-.052.149-.116.214-.18.058-.072.116-.149.168-.226l.583.4Zm2.39-2.856v3.572h-.72v-3.572h-1.353v-.645h3.426v.645h-1.354Zm4.908.735c0 .258-.033.477-.084.658a1.093 1.093 0 0 1-.279.457 1.168 1.168 0 0 1-.473.271c-.194.058-.42.084-.692.084h-.687v1.367h-.712v-4.217H68.4c.24 0 .454.026.641.071.188.052.344.129.473.239.123.116.22.258.292.432.064.174.097.386.097.638Zm-.745.006a.9.9 0 0 0-.065-.374.54.54 0 0 0-.181-.232.75.75 0 0 0-.291-.122 2.557 2.557 0 0 0-.408-.032h-.525v1.599h.447c.181 0 .337-.013.466-.033a.833.833 0 0 0 .317-.11.49.49 0 0 0 .182-.25 1.37 1.37 0 0 0 .058-.446Zm1.522 2.831v-4.217h.673v3.211l1.677-3.21h.913v4.216h-.673V28.67l-1.774 3.385h-.816Zm4.992-2.521h.687c.291 0 .544.026.757.084.214.051.382.129.525.238a.92.92 0 0 1 .298.4c.065.155.103.342.103.548 0 .239-.045.439-.123.6a1.006 1.006 0 0 1-.336.38 1.489 1.489 0 0 1-.525.213c-.2.039-.427.058-.673.058H74.96v-4.217h2.785v.593h-2.073v1.103Zm1.632 1.257a.677.677 0 0 0-.078-.348.542.542 0 0 0-.2-.2.954.954 0 0 0-.324-.09 2.822 2.822 0 0 0-.427-.026h-.603v1.328h.577a2.9 2.9 0 0 0 .42-.025.993.993 0 0 0 .33-.09.523.523 0 0 0 .221-.207c.052-.09.084-.2.084-.342Zm2.998-.664.985-2.289h.744l-1.573 3.501a2.269 2.269 0 0 1-.233.407 1.02 1.02 0 0 1-.26.245.777.777 0 0 1-.304.122c-.103.026-.22.032-.35.032-.045 0-.103 0-.174-.012a2.743 2.743 0 0 1-.207-.033c-.065-.013-.136-.025-.201-.045a.942.942 0 0 1-.175-.052l.214-.573c.045.026.09.038.142.058l.15.038c.05.013.096.02.141.026.04 0 .078.007.104.007a.64.64 0 0 0 .156-.02.491.491 0 0 0 .148-.084.525.525 0 0 0 .143-.148c.045-.07.084-.148.123-.251l.052-.142-1.45-3.076h.77l1.055 2.29Zm2.312 1.928v-4.217h.719v3.572h1.697v-3.572h.718v3.585h.505v1.432h-.706v-.8h-2.933Zm4.261 0v-4.217h.667v3.211l1.684-3.21h.913v4.216h-.674V28.67l-1.774 3.385h-.816Zm3.905 0 1.146-1.754a1.179 1.179 0 0 1-.35-.122.842.842 0 0 1-.285-.239 1.086 1.086 0 0 1-.181-.367 1.712 1.712 0 0 1-.071-.516c0-.22.032-.413.097-.568a.886.886 0 0 1 .285-.38c.13-.09.285-.161.479-.206.188-.046.408-.065.667-.065h1.431v4.217h-.719v-1.657h-.589l-1.081 1.657h-.83Zm.997-2.96c0 .13.013.233.039.316.026.09.071.155.136.207a.51.51 0 0 0 .252.116c.11.026.246.038.402.038h.673v-1.315h-.706c-.142 0-.265.013-.362.032a.473.473 0 0 0-.388.297.867.867 0 0 0-.046.31Zm4.837 2.96v-4.217h.667v3.211l1.684-3.21h.906v4.216h-.667V28.67l-1.78 3.385h-.81Zm7.298-3.617v.303c0 .529-.026 1.006-.078 1.425-.052.419-.13.774-.24 1.064-.103.29-.239.516-.401.67a.836.836 0 0 1-.583.233c-.129 0-.239-.013-.337-.04a1.369 1.369 0 0 1-.246-.083l.195-.567a.472.472 0 0 0 .136.045c.045.006.077.006.103.006.13 0 .24-.058.337-.174.097-.122.175-.303.233-.542.058-.245.104-.548.136-.915.026-.368.045-.806.045-1.303v-.722h2.532v4.217h-.719v-3.617h-1.113Zm6.21 1.509c0 .348-.033.657-.104.928-.065.27-.168.497-.311.69-.149.187-.33.335-.557.432-.22.097-.492.148-.809.148-.311 0-.583-.051-.803-.148a1.343 1.343 0 0 1-.55-.432 1.79 1.79 0 0 1-.318-.69 3.681 3.681 0 0 1-.103-.928c0-.342.032-.652.103-.929.065-.27.169-.503.318-.69a1.4 1.4 0 0 1 .55-.432c.22-.097.492-.148.803-.148.317 0 .589.051.809.148.227.097.408.239.557.432.143.187.246.413.311.69.071.27.104.58.104.929Zm-.751 0c0-.265-.02-.49-.052-.69a1.36 1.36 0 0 0-.182-.484.73.73 0 0 0-.317-.296 1.072 1.072 0 0 0-.479-.097c-.188 0-.35.032-.479.096a.786.786 0 0 0-.324.297c-.078.129-.136.29-.175.484-.039.2-.058.425-.058.69 0 .264.019.49.058.69.039.193.097.354.181.49a.763.763 0 0 0 .318.29c.136.064.291.096.479.096s.35-.032.479-.096a.754.754 0 0 0 .317-.29 1.35 1.35 0 0 0 .182-.49c.032-.194.052-.426.052-.69Zm2.247-1.51v3.618h-.713v-4.217h2.662v.6h-1.949Zm2.583 3.618v-4.217h.674v3.211l1.677-3.21h.913v4.216h-.674V28.67l-1.774 3.385h-.816Zm7.635-.716c-.078.11-.155.22-.253.316-.09.097-.2.187-.33.258-.123.071-.272.13-.434.168a2.282 2.282 0 0 1-.589.064c-.648 0-1.127-.18-1.438-.548-.317-.367-.472-.915-.472-1.65 0-.736.155-1.29.472-1.651.311-.368.784-.548 1.412-.548.214 0 .402.02.57.058.162.038.311.097.434.168.129.064.233.148.33.245.091.09.168.193.233.303l-.57.412c-.045-.07-.097-.135-.149-.206a1.06 1.06 0 0 0-.466-.303 1.327 1.327 0 0 0-.375-.045c-.395 0-.687.129-.875.393-.187.264-.278.651-.278 1.174 0 .277.026.515.078.715.045.194.123.355.22.484s.22.22.362.284c.149.058.311.084.499.084.143 0 .266-.013.376-.046.103-.032.194-.07.278-.122.078-.052.149-.116.214-.18.058-.072.116-.149.168-.226l.583.4Zm2.389-2.856v3.572h-.718v-3.572h-1.354v-.645h3.426v.645h-1.354Zm1.982 3.572v-4.217h.667v3.211l1.684-3.21h.906v4.216h-.667V28.67l-1.774 3.385h-.816Zm4.993-4.217v1.773h.582c.091 0 .169-.019.246-.07a.834.834 0 0 0 .227-.271 3.22 3.22 0 0 0 .233-.542c.078-.232.162-.529.246-.89h.745a9.005 9.005 0 0 1-.253.903 4.002 4.002 0 0 1-.252.6 1.588 1.588 0 0 1-.266.36 1.15 1.15 0 0 1-.265.194c.168.077.304.174.421.29.11.116.207.258.291.432.084.174.156.38.227.613.065.238.142.516.22.825h-.745c-.084-.303-.155-.567-.226-.8a3.062 3.062 0 0 0-.221-.567.914.914 0 0 0-.284-.348.704.704 0 0 0-.402-.11h-.524v1.825h-.713v-4.217h.713Zm2.648 4.217 1.425-4.217h.926l1.431 4.217h-.738l-.324-.974h-1.684l-.324.974h-.712Zm1.243-1.605h1.263l-.635-1.903-.628 1.903Zm4.378 1.605 1.424-4.217h.926l1.431 4.217h-.738l-.324-.974h-1.683l-.324.974h-.712Zm1.243-1.605h1.263l-.628-1.903-.635 1.903Zm6.288.38c0 .213-.039.393-.11.548a.995.995 0 0 1-.324.387 1.426 1.426 0 0 1-.512.22c-.2.05-.434.07-.686.07h-1.489v-4.217h1.372c.279 0 .505.02.7.058.188.039.343.097.46.174a.774.774 0 0 1 .259.303c.051.123.077.271.077.439 0 .148-.019.277-.058.387a.725.725 0 0 1-.155.277.703.703 0 0 1-.227.187 1.374 1.374 0 0 1-.285.11c.149.012.278.051.401.096a.993.993 0 0 1 .305.2c.09.084.155.187.201.316.045.123.071.27.071.445Zm-.978-1.864a.625.625 0 0 0-.045-.238.428.428 0 0 0-.143-.161.774.774 0 0 0-.252-.084 3.053 3.053 0 0 0-.382-.026h-.603v1.083h.577c.162 0 .291-.013.401-.032a.8.8 0 0 0 .259-.11.484.484 0 0 0 .143-.18.725.725 0 0 0 .045-.252Zm.233 1.812a.663.663 0 0 0-.058-.303.406.406 0 0 0-.181-.193.807.807 0 0 0-.311-.09 3.235 3.235 0 0 0-.46-.026h-.648v1.257h.505c.188 0 .35-.006.493-.02.142-.012.265-.044.362-.09a.446.446 0 0 0 .227-.193.73.73 0 0 0 .071-.342Zm3.076-2.295v3.572h-.712v-3.572h-1.354v-.645h3.426v.645h-1.36Zm5.167 1.464c0 .348-.032.657-.097.928a2 2 0 0 1-.317.69c-.142.187-.33.335-.557.432-.22.097-.492.148-.803.148-.317 0-.583-.051-.809-.148a1.353 1.353 0 0 1-.551-.432 1.896 1.896 0 0 1-.317-.69 3.679 3.679 0 0 1-.104-.928c0-.342.033-.652.104-.929.065-.27.175-.503.317-.69a1.41 1.41 0 0 1 .551-.432c.226-.097.492-.148.809-.148.311 0 .583.051.803.148.227.097.415.239.557.432.142.187.246.413.317.69.065.27.097.58.097.929Zm-.744 0c0-.265-.02-.49-.059-.69a1.507 1.507 0 0 0-.174-.484.757.757 0 0 0-.324-.296 1.048 1.048 0 0 0-.473-.097c-.194 0-.35.032-.486.096a.74.74 0 0 0-.317.297c-.084.129-.142.29-.181.484-.033.2-.052.425-.052.69 0 .264.019.49.052.69.039.193.097.354.181.49a.778.778 0 0 0 .324.29c.129.064.291.096.479.096s.343-.032.473-.096a.784.784 0 0 0 .324-.29c.077-.13.136-.29.174-.49.039-.194.059-.426.059-.69Zm3.069-1.464v3.572h-.719v-3.572h-1.353v-.645h3.426v.645h-1.354Zm5.161 1.464c0 .348-.032.657-.097.928-.065.27-.175.497-.317.69a1.4 1.4 0 0 1-.551.432 2.055 2.055 0 0 1-.809.148c-.317 0-.583-.051-.81-.148a1.39 1.39 0 0 1-.55-.432 1.88 1.88 0 0 1-.317-.69 3.976 3.976 0 0 1-.104-.928c0-.342.039-.652.104-.929.064-.27.175-.503.317-.69.142-.187.33-.329.55-.432.227-.097.493-.148.81-.148.311 0 .583.051.809.148.22.097.408.239.551.432.142.187.252.413.317.69.065.27.097.58.097.929Zm-.745 0c0-.265-.019-.49-.058-.69a1.358 1.358 0 0 0-.175-.484.77.77 0 0 0-.317-.296 1.093 1.093 0 0 0-.479-.097c-.194 0-.35.032-.486.096a.776.776 0 0 0-.317.297c-.084.129-.143.29-.181.484-.033.2-.052.425-.052.69 0 .264.019.49.052.69.038.193.097.354.181.49a.816.816 0 0 0 .324.29c.129.064.291.096.479.096s.343-.032.479-.096a.797.797 0 0 0 .317-.29 1.35 1.35 0 0 0 .175-.49c.039-.194.058-.426.058-.69Zm4.689.883c0 .213-.039.393-.117.548a.969.969 0 0 1-.317.387 1.482 1.482 0 0 1-.512.22c-.2.05-.434.07-.693.07h-1.482v-4.217h1.372c.272 0 .505.02.693.058.194.039.343.097.466.174a.75.75 0 0 1 .253.303c.058.123.084.271.084.439 0 .148-.019.277-.058.387a.815.815 0 0 1-.156.277.769.769 0 0 1-.226.187 1.374 1.374 0 0 1-.285.11c.142.012.278.051.395.096a.954.954 0 0 1 .311.2.904.904 0 0 1 .2.316c.046.123.072.27.072.445Zm-.985-1.864a.529.529 0 0 0-.045-.238.358.358 0 0 0-.136-.161.774.774 0 0 0-.252-.084 3.092 3.092 0 0 0-.389-.026h-.602v1.083h.583c.155 0 .291-.013.395-.032a.836.836 0 0 0 .265-.11.406.406 0 0 0 .136-.18.608.608 0 0 0 .045-.252Zm.24 1.812a.663.663 0 0 0-.058-.303.403.403 0 0 0-.182-.193.834.834 0 0 0-.317-.09 3.123 3.123 0 0 0-.453-.026h-.654v1.257h.511c.182 0 .35-.006.493-.02.142-.012.265-.044.362-.09a.427.427 0 0 0 .22-.193.65.65 0 0 0 .078-.342Zm1.166 1.277 1.424-4.217h.933l1.424 4.217h-.738l-.324-.974h-1.683l-.318.974h-.718Zm1.243-1.605h1.263l-.628-1.903-.635 1.903Zm6.1-1.232c0 .258-.033.477-.091.658a1.08 1.08 0 0 1-.272.457 1.166 1.166 0 0 1-.472.271 2.463 2.463 0 0 1-.693.084h-.687v1.367h-.712v-4.217h1.425c.239 0 .453.026.641.071.181.052.343.129.472.239.123.116.22.258.285.432.071.174.104.386.104.638Zm-.745.006a.891.891 0 0 0-.065-.374.532.532 0 0 0-.181-.232.782.782 0 0 0-.298-.122 2.461 2.461 0 0 0-.401-.032h-.525v1.599h.447c.181 0 .33-.013.466-.033a.839.839 0 0 0 .318-.11.535.535 0 0 0 .181-.25c.039-.11.058-.259.058-.446Zm4.876.723c0 .348-.032.657-.097.928-.065.27-.168.497-.317.69a1.353 1.353 0 0 1-.551.432 2.034 2.034 0 0 1-.809.148c-.317 0-.583-.051-.809-.148a1.393 1.393 0 0 1-.551-.432 2 2 0 0 1-.317-.69 3.997 3.997 0 0 1-.097-.928c0-.342.032-.652.097-.929.071-.27.175-.503.317-.69.143-.187.33-.329.551-.432.226-.097.492-.148.809-.148.317 0 .583.051.809.148.227.097.408.239.551.432.149.187.252.413.317.69.065.27.097.58.097.929Zm-.744 0c0-.265-.02-.49-.052-.69a1.36 1.36 0 0 0-.182-.484.73.73 0 0 0-.317-.296 1.072 1.072 0 0 0-.479-.097c-.188 0-.35.032-.479.096a.751.751 0 0 0-.324.297c-.084.129-.142.29-.175.484-.039.2-.058.425-.058.69 0 .264.019.49.058.69.033.193.097.354.175.49a.816.816 0 0 0 .324.29c.129.064.291.096.479.096s.35-.032.479-.096a.754.754 0 0 0 .317-.29 1.35 1.35 0 0 0 .182-.49c.032-.194.052-.426.052-.69Zm4.688.883c0 .213-.039.393-.11.548a1.049 1.049 0 0 1-.324.387 1.426 1.426 0 0 1-.512.22c-.2.05-.433.07-.686.07h-1.489v-4.217h1.372c.272 0 .506.02.7.058.188.039.343.097.46.174a.774.774 0 0 1 .259.303c.051.123.077.271.077.439 0 .148-.019.277-.058.387a.831.831 0 0 1-.382.464 1.374 1.374 0 0 1-.285.11c.149.012.278.051.401.096a.993.993 0 0 1 .305.2.84.84 0 0 1 .201.316c.045.123.071.27.071.445Zm-.984-1.864a.633.633 0 0 0-.039-.238.428.428 0 0 0-.143-.161.774.774 0 0 0-.252-.084 3.053 3.053 0 0 0-.382-.026h-.609v1.083h.583c.155 0 .291-.013.401-.032a.8.8 0 0 0 .259-.11.484.484 0 0 0 .143-.18.731.731 0 0 0 .039-.252Zm.239 1.812a.663.663 0 0 0-.058-.303.406.406 0 0 0-.181-.193.845.845 0 0 0-.318-.09 3.07 3.07 0 0 0-.453-.026h-.654v1.257h.511c.188 0 .35-.006.493-.02.142-.012.265-.044.362-.09a.446.446 0 0 0 .227-.193.73.73 0 0 0 .071-.342Z"/></g><defs><clipPath id="a"><path fill="#fff" d="M0 0h187v38H0z"/></clipPath></defs></svg>