<svg width="353" height="140" viewBox="0 0 353 140" fill="none" xmlns="http://www.w3.org/2000/svg">
<path d="M71.018 139.02C55.6481 139.02 42.6916 136.225 32.1486 130.636C21.7326 124.92 13.8571 116.918 8.52206 106.629C3.18704 96.2128 0.519531 84.082 0.519531 70.2363C0.519531 56.0096 3.37758 43.6883 9.09367 33.2723C14.9368 22.8563 23.3204 14.7902 34.2445 9.07414C45.1686 3.35805 58.2521 0.5 73.495 0.5C83.2759 0.5 91.85 1.77024 99.2174 4.31073C106.712 6.72419 113.254 10.2174 118.843 14.7902L109.316 37.8451C105.251 34.9236 101.44 32.6371 97.8837 30.9858C94.327 29.2075 90.6433 28.0008 86.8325 27.3656C83.0218 26.6035 78.6395 26.2224 73.6855 26.2224C59.7129 26.2224 49.1698 30.0331 42.0565 37.6546C35.0701 45.149 31.577 56.0731 31.577 70.4269C31.577 84.6536 34.8796 95.4507 41.4849 102.818C48.0901 110.185 58.4426 113.869 72.5423 113.869C77.2422 113.869 82.0691 113.425 87.0231 112.535C91.977 111.646 96.8675 110.313 101.694 108.534L96.3594 119.966V83.7644H66.8262V62.6149H120.939V128.541C114.206 131.843 106.394 134.447 97.5026 136.353C88.7379 138.131 79.9097 139.02 71.018 139.02Z" fill="url(#paint0_linear_2144_3468)"/>
<path d="M152.018 136.924V112.535H182.504V27.3656H196.413L155.257 51.3732V23.5549L191.078 2.5959H212.228V112.535H240.808V136.924H152.018Z" fill="url(#paint1_linear_2144_3468)"/>
<path d="M301.324 139.02C291.925 139.02 282.842 137.686 274.078 135.019C265.44 132.351 258.454 128.668 253.119 123.968L262.455 101.865C268.171 106.057 274.205 109.233 280.556 111.392C286.907 113.425 293.449 114.441 300.181 114.441C308.057 114.441 313.963 112.98 317.901 110.058C321.839 107.137 323.808 102.818 323.808 97.102C323.808 91.767 321.902 87.7657 318.092 85.0982C314.408 82.3037 308.882 80.9064 301.515 80.9064H279.032V57.4704H298.848C305.199 57.4704 310.28 56.0096 314.09 53.0881C317.901 50.0395 319.807 45.9112 319.807 40.7032C319.807 35.6222 318.028 31.748 314.472 29.0805C310.915 26.413 305.77 25.0792 299.038 25.0792C286.209 25.0792 274.776 29.3345 264.741 37.8451L255.215 16.124C260.931 11.17 267.854 7.35931 275.983 4.6918C284.24 1.89727 292.877 0.5 301.896 0.5C316.377 0.5 327.682 3.73912 335.812 10.2174C344.068 16.5686 348.196 25.4603 348.196 36.8925C348.196 44.768 345.974 51.5638 341.528 57.2799C337.082 62.8689 330.985 66.6162 323.236 68.5215V66.0445C332.382 67.5688 339.495 71.316 344.576 77.2862C349.657 83.2563 352.198 90.7508 352.198 99.7695C352.198 111.964 347.625 121.554 338.479 128.541C329.46 135.527 317.076 139.02 301.324 139.02Z" fill="url(#paint2_linear_2144_3468)"/>
<defs>
<linearGradient id="paint0_linear_2144_3468" x1="0.519534" y1="139.02" x2="365.136" y2="78.6758" gradientUnits="userSpaceOnUse">
<stop stop-color="#A400CD"/>
<stop offset="1" stop-color="#D33883"/>
</linearGradient>
<linearGradient id="paint1_linear_2144_3468" x1="0.519534" y1="139.02" x2="365.136" y2="78.6758" gradientUnits="userSpaceOnUse">
<stop stop-color="#A400CD"/>
<stop offset="1" stop-color="#D33883"/>
</linearGradient>
<linearGradient id="paint2_linear_2144_3468" x1="0.519534" y1="139.02" x2="365.136" y2="78.6758" gradientUnits="userSpaceOnUse">
<stop stop-color="#A400CD"/>
<stop offset="1" stop-color="#D33883"/>
</linearGradient>
</defs>
</svg>
