<!-- Generated by IcoMoon.io -->
<svg version="1.1" xmlns="http://www.w3.org/2000/svg" width="1024" height="1024" viewBox="0 0 1024 1024">
<g id="icomoon-ignore">
</g>
<path d="M896 416.001h32.001c8.485 0 16.624-3.373 22.625-9.374 6.004-6.001 9.374-14.14 9.374-22.627s-3.37-16.627-9.374-22.627c-6.001-6.001-14.14-9.374-22.625-9.374h-77.888l-49.409-82.335c-14.272-23.636-34.392-43.198-58.418-56.8-24.029-13.603-51.156-20.788-78.766-20.864h-303.040c-55.872 0-108.448 29.76-137.184 77.664l-49.408 82.335h-77.888c-8.487 0-16.626 3.373-22.627 9.374s-9.373 14.14-9.373 22.627c0 8.487 3.371 16.627 9.373 22.627s14.141 9.374 22.627 9.374h32l-19.2 25.6c-28.994 38.818-44.704 85.949-44.8 134.399v159.999c0 52.929 43.072 96.001 96 96.001h64c52.928 0 96-43.072 96-96.001h384c0 52.929 43.072 96.001 96.001 96.001h63.997c52.929 0 96.001-43.072 96.001-96.001v-159.999c-0.091-48.453-15.802-95.583-44.801-134.399l-19.199-25.6zM278.176 302.624c8.561-14.184 20.63-25.925 35.045-34.091s30.691-12.482 47.259-12.533h303.072c33.537 0 65.056 17.856 82.303 46.624l43.008 71.68-22.238 14.816c-26.276 17.551-57.171 26.905-88.769 26.881h-331.744c-31.68 0-62.368-9.28-88.736-26.849l-22.24-14.848 43.008-71.712 0.032 0.032zM896.032 735.999c0 17.633-14.368 32.001-32.001 32.001h-64c-17.63 0-31.999-14.368-31.999-32.001v-31.999c0-8.487-3.37-16.627-9.374-22.627-6.001-6.001-14.14-9.371-22.627-9.371h-448.031c-8.487 0-16.626 3.37-22.627 9.371s-9.373 14.14-9.373 22.627v31.999c0 17.633-14.368 32.001-32 32.001h-64c-17.632 0-32-14.368-32-32.001v-159.999c0-34.401 11.36-68.511 32-96.001l39.424-52.575 22.464 14.977c36.771 24.558 80.008 37.645 124.224 37.598h331.744c44.231 0.038 87.476-13.060 124.255-37.631l22.434-14.945 39.424 52.575c20.638 27.49 31.999 61.601 31.999 96.001v159.999h0.064z"></path>
<path d="M800.004 618.865c23.678 0 42.873-19.196 42.873-42.876 0-23.678-19.196-42.873-42.873-42.873-23.681 0-42.876 19.196-42.876 42.873 0 23.681 19.196 42.876 42.876 42.876z"></path>
<path d="M224 618.358c23.397 0 42.364-18.967 42.364-42.364 0-23.4-18.967-42.364-42.364-42.364s-42.364 18.964-42.364 42.364c0 23.397 18.967 42.364 42.364 42.364z"></path>
</svg>
