<!-- Generated by IcoMoon.io -->
<svg version="1.1" xmlns="http://www.w3.org/2000/svg" width="1024" height="1024" viewBox="0 0 1024 1024">
<g id="icomoon-ignore">
</g>
<path d="M928.745 893.025c0 34.719-13.812 68.058-38.339 92.634-24.588 24.538-57.9 38.327-92.637 38.341h-571.535c-34.721 0-68.060-13.812-92.636-38.341-24.538-24.585-38.326-57.9-38.34-92.634v-762.048c0-34.721 13.812-68.060 38.34-92.636 24.587-24.538 57.9-38.326 92.636-38.341h408.933c22.101 0 43.295 8.764 58.915 24.433l210.23 210.23c15.67 15.622 24.433 36.816 24.433 58.915v599.447zM857.305 893.025v-599.447c0.003-1.564-0.304-3.114-0.901-4.561s-1.472-2.761-2.578-3.869l-210.227-210.23c-1.109-1.105-2.425-1.981-3.871-2.578s-2.996-0.902-4.561-0.899h-408.933c-15.782 0.025-30.91 6.306-42.070 17.465s-17.44 26.288-17.465 42.069v762.048c0.025 15.781 6.306 30.91 17.465 42.069s26.288 17.44 42.070 17.464h571.535c15.781-0.023 30.91-6.305 42.069-17.464s17.44-26.288 17.467-42.069z"></path>
<path d="M321.492 442.157h381.025c9.473 0 18.558-3.765 25.258-10.462 6.7-6.7 10.462-15.787 10.462-25.261s-3.762-18.558-10.462-25.258c-6.7-6.7-15.784-10.462-25.258-10.462h-381.025c-9.473 0-18.561 3.762-25.258 10.462-6.7 6.7-10.463 15.784-10.463 25.258s3.763 18.561 10.463 25.261c6.697 6.697 15.784 10.462 25.258 10.462zM321.492 608.853h381.025c9.473 0 18.558-3.762 25.258-10.462 6.7-6.697 10.462-15.784 10.462-25.258s-3.762-18.561-10.462-25.258c-6.7-6.7-15.784-10.462-25.258-10.462h-381.025c-9.473 0-18.561 3.762-25.258 10.462-6.7 6.697-10.463 15.784-10.463 25.258s3.763 18.561 10.463 25.258c6.697 6.7 15.784 10.462 25.258 10.462zM321.492 775.551h214.326c9.473 0 18.558-3.762 25.258-10.462s10.462-15.784 10.462-25.258c0-9.473-3.762-18.561-10.462-25.261-6.7-6.697-15.784-10.462-25.258-10.462h-214.326c-9.473 0-18.561 3.765-25.258 10.462-6.7 6.7-10.463 15.787-10.463 25.261s3.763 18.558 10.463 25.258c6.697 6.7 15.784 10.462 25.258 10.462z"></path>
</svg>
