<!-- Generated by IcoMoon.io -->
<svg version="1.1" xmlns="http://www.w3.org/2000/svg" width="1024" height="1024" viewBox="0 0 1024 1024">
<g id="icomoon-ignore">
</g>
<path d="M1014.624 233.374l-143.999-144c-12.497-12.496-32.756-12.496-45.253 0s-12.497 32.758 0 45.254l44.716 44.718c-52.63 83.368-6.857 194.974 89.911 217.026v507.628c0 30.88-25.121 56.001-56.001 56.001-30.876 0-56.001-25.121-56.001-56.001v-295.997c0-94.97-69.308-174.039-159.998-189.321v-290.681c0-70.58-57.422-128-128-128h-384.001c-70.58 0-128 57.42-128 128v704h-16c-17.672 0-32 14.328-32 32.002v128c0 17.67 14.328 31.998 32 31.998h672c17.67 0 32.002-14.328 32.002-31.998v-128c0-17.674-14.332-32.002-32.002-32.002h-15.999v-347.951c55.144 14.246 95.998 64.418 95.998 123.953v295.997c0 66.167 53.834 120.001 120.001 120.001s120.001-53.834 120.001-120.001v-647.999c0-8.486-3.371-16.626-9.376-22.626zM671.998 960h-607.998v-64l48-64h512.001l47.997 64v64zM112 832v-704c0-35.29 28.71-64 64-64h384.001c35.287 0 64 28.71 64 64v704h-512.001zM917.512 226.768l42.488 42.486v60.046c-39.682-17.392-58.053-62.846-42.488-102.532z"></path>
<path d="M527.999 128h-319.999c-17.672 0-32 14.326-32 32v176c0 17.674 14.328 32 32 32h319.999c17.674 0 32.002-14.326 32.002-32v-176c0-17.674-14.328-32-32.002-32zM496.001 304h-256.001v-112h256.001v112z"></path>
</svg>
