<svg width="20" height="20" viewBox="0 0 20 20" fill="none" xmlns="http://www.w3.org/2000/svg">
<g clip-path="url(#clip0_210_34)">
<path d="M14.5 0H5.5C4.04131 0 2.64236 0.579462 1.61091 1.61091C0.579462 2.64236 0 4.04131 0 5.5V14.5C0 15.9587 0.579462 17.3576 1.61091 18.3891C2.64236 19.4205 4.04131 20 5.5 20H14.5C15.9587 20 17.3576 19.4205 18.3891 18.3891C19.4205 17.3576 20 15.9587 20 14.5V5.5C20 4.04131 19.4205 2.64236 18.3891 1.61091C17.3576 0.579462 15.9587 0 14.5 0ZM18.25 13.71C18.25 14.9141 17.7717 16.0688 16.9203 16.9203C16.0688 17.7717 14.9141 18.25 13.71 18.25H6.29C5.08592 18.25 3.93115 17.7717 3.07973 16.9203C2.22832 16.0688 1.75 14.9141 1.75 13.71V6.29C1.75 5.08592 2.22832 3.93115 3.07973 3.07973C3.93115 2.22832 5.08592 1.75 6.29 1.75H13.71C14.9141 1.75 16.0688 2.22832 16.9203 3.07973C17.7717 3.93115 18.25 5.08592 18.25 6.29V13.71Z" fill="url(#paint0_linear_210_34)"/>
<path d="M13.6476 6.39025L13.5601 6.30275C12.6149 5.36077 11.3346 4.83212 10.0001 4.83275C9.32624 4.83733 8.65985 4.97464 8.03903 5.23685C7.41822 5.49905 6.85516 5.881 6.38201 6.36089C5.90886 6.84077 5.53489 7.40918 5.28149 8.03363C5.02808 8.65809 4.90019 9.32635 4.90514 10.0002C4.90412 11.3679 5.44321 12.6806 6.40514 13.6527C6.87631 14.1297 7.43776 14.5079 8.05672 14.7655C8.67568 15.023 9.33974 15.1547 10.0101 15.1527C11.0157 15.1317 11.9935 14.8184 12.8241 14.2512C13.6547 13.684 14.3023 12.8873 14.6879 11.9584C15.0736 11.0294 15.1805 10.0083 14.9958 9.0196C14.8111 8.03089 14.3427 7.1173 13.6476 6.39025ZM10.0001 13.3902C9.32771 13.3997 8.66768 13.2089 8.10399 12.8422C7.54029 12.4754 7.0984 11.9493 6.83452 11.3308C6.57064 10.7122 6.4967 10.0292 6.62209 9.36849C6.74748 8.7078 7.06654 8.09932 7.53869 7.62046C8.01085 7.1416 8.61475 6.81398 9.27361 6.67928C9.93247 6.54458 10.6165 6.60888 11.2387 6.86401C11.8609 7.11913 12.3932 7.55356 12.7679 8.11202C13.1425 8.67049 13.3426 9.32776 13.3426 10.0002C13.3459 10.4424 13.2621 10.8808 13.0958 11.2905C12.9296 11.7002 12.6843 12.0731 12.3739 12.3879C12.0635 12.7027 11.694 12.9533 11.2867 13.1253C10.8794 13.2973 10.4422 13.3873 10.0001 13.3902ZM16.6076 4.59525C16.609 4.75567 16.5786 4.91478 16.5184 5.06346C16.4581 5.21215 16.3691 5.34749 16.2565 5.46174C16.1439 5.57599 16.0098 5.6669 15.862 5.72928C15.7142 5.79166 15.5556 5.82427 15.3951 5.82525C15.2361 5.82517 15.0786 5.79354 14.9318 5.73217C14.785 5.6708 14.6519 5.58093 14.5401 5.46775C14.3708 5.29591 14.2556 5.07814 14.2088 4.84143C14.162 4.60473 14.1858 4.35951 14.2771 4.13618C14.3684 3.91285 14.5232 3.72123 14.7224 3.58507C14.9216 3.44892 15.1564 3.37422 15.3976 3.37025C15.68 3.37019 15.9534 3.46929 16.1701 3.65025L16.1951 3.67525C16.2355 3.70807 16.2723 3.74493 16.3051 3.78525L16.3326 3.81525C16.5116 4.03571 16.6088 4.3113 16.6076 4.59525Z" fill="url(#paint1_linear_210_34)"/>
</g>
<defs>
<linearGradient id="paint0_linear_210_34" x1="0.925" y1="0.925" x2="19.075" y2="19.075" gradientUnits="userSpaceOnUse">
<stop stop-color="#FFB107"/>
<stop offset="0.3" stop-color="#ED6338"/>
<stop offset="0.6" stop-color="#E41465"/>
<stop offset="1" stop-color="#5F13BF"/>
</linearGradient>
<linearGradient id="paint1_linear_210_34" x1="0.925" y1="0.925" x2="19.075" y2="19.075" gradientUnits="userSpaceOnUse">
<stop stop-color="#FFB107"/>
<stop offset="0.3" stop-color="#ED6338"/>
<stop offset="0.6" stop-color="#E41465"/>
<stop offset="1" stop-color="#5F13BF"/>
</linearGradient>
<clipPath id="clip0_210_34">
<rect width="20" height="20" fill="white"/>
</clipPath>
</defs>
</svg>
