<!-- Generated by IcoMoon.io -->
<svg version="1.1" xmlns="http://www.w3.org/2000/svg" width="1024" height="1024" viewBox="0 0 1024 1024">
<g id="icomoon-ignore">
</g>
<path d="M466.008 60.799c-107.382 0.18-210.315 42.917-286.245 118.848s-118.668 178.864-118.848 286.247c0.090 107.47 42.776 210.526 118.707 286.585 75.931 76.057 178.913 118.919 286.386 119.188 95.317 0 183.144-33.532 252.589-89.018l168.676 168.676c8.543 7.943 19.836 12.268 31.501 12.063 11.668-0.202 22.8-4.921 31.062-13.16s13.008-19.359 13.245-31.027c0.234-11.665-4.058-22.967-11.981-31.533l-168.676-168.846c57.607-71.648 89.015-160.824 89.018-252.758 0-223.313-182.123-405.265-405.434-405.265zM466.008 151.009c174.633 0 315.225 140.421 315.225 314.885 0 174.46-140.592 315.734-315.225 315.734s-315.054-140.762-315.054-315.395c0-174.633 140.421-315.224 315.054-315.224z"></path>
</svg>
