<!-- Generated by IcoMoon.io -->
<svg version="1.1" xmlns="http://www.w3.org/2000/svg" width="1024" height="1024" viewBox="0 0 1024 1024">
<g id="icomoon-ignore">
</g>
<path d="M994 929.444c-33.11 0-48.046-7.437-66.958-16.855-7.803-3.885-15.989-7.955-25.439-11.58l101.326-266.565c7.888-20.746 6.58-43.959-3.59-63.687s-28.321-34.26-49.793-39.872l-69.772-18.227v-209.256c0-43.916-35.729-79.644-79.644-79.644h-137.702v-77.428c0-61.64-50.15-111.788-111.789-111.788h-77.277c-61.642 0-111.789 50.148-111.789 111.788v77.426h-137.702c-43.916 0-79.644 35.728-79.644 79.643v209.259l-69.772 18.227c-21.474 5.612-39.624 20.144-49.792 39.872s-11.48 42.941-3.592 63.687l101.328 266.568c-9.448 3.628-17.632 7.692-25.434 11.58-18.914 9.415-33.852 16.855-66.966 16.855-16.568 0-30 13.432-30 30s13.432 30 30 30c47.224 0 71.92-12.297 93.708-23.145 18.914-9.415 33.852-16.855 66.966-16.855s48.052 7.437 66.966 16.855c21.788 10.849 46.485 23.145 93.709 23.145 47.221 0 71.914-12.297 93.705-23.145 18.912-9.415 33.851-16.855 66.961-16.855s48.046 7.437 66.958 16.855c21.788 10.849 46.481 23.145 93.705 23.145 47.221 0 71.914-12.297 93.702-23.145 18.912-9.415 33.851-16.855 66.961-16.855s48.046 7.437 66.958 16.855c21.788 10.849 46.481 23.145 93.705 23.145 16.568 0 30-13.432 30-30s-13.435-30.003-30.003-30.003zM421.575 146.331c0-28.556 23.23-51.788 51.788-51.788h77.277c28.555 0 51.788 23.232 51.788 51.788v77.426h-180.853v-77.426zM204.226 303.402c0-10.832 8.812-19.644 19.644-19.644h576.257c10.834 0 19.646 8.812 19.646 19.644v193.58l-300.193-78.438c-4.971-1.296-10.193-1.296-15.167 0l-300.19 78.438 0.002-193.58zM739.635 912.592c-18.912 9.415-33.851 16.852-66.958 16.852-33.11 0-48.046-7.437-66.958-16.855-21.791-10.849-46.484-23.145-93.705-23.145-47.224 0-71.917 12.297-93.708 23.145-18.912 9.415-33.848 16.855-66.958 16.855-33.113 0-48.052-7.437-66.965-16.855-21.788-10.849-46.484-23.145-93.708-23.145-2.894 0-5.702 0.050-8.432 0.138l-105.090-276.457c-2.522-6.633-0.556-12.165 0.84-14.874 1.396-2.706 4.762-7.516 11.628-9.313l422.378-110.361 422.377 110.364c6.867 1.793 10.234 6.603 11.63 9.31 1.396 2.709 3.362 8.242 0.84 14.877l-105.089 276.457c-2.806-0.091-5.612-0.138-8.42-0.138-47.221-0.003-71.914 12.297-93.702 23.145z"></path>
</svg>
