<!-- Generated by IcoMoon.io -->
<svg version="1.1" xmlns="http://www.w3.org/2000/svg" width="1065" height="1024" viewBox="0 0 1065 1024">
<g id="icomoon-ignore">
</g>
<path d="M1007.899 600.31c0 105.8-33.673 206.23-97.374 290.447-12.567 16.626-36.205 19.849-52.777 7.315-16.593-12.554-19.866-36.18-7.32-52.773 53.723-71.021 82.121-155.738 82.121-244.99 0-224.893-182.133-406.678-406.897-406.678-224.922 0-406.9 181.925-406.9 406.678 0 89.252 28.396 173.969 82.114 244.986 12.554 16.597 9.279 40.223-7.315 52.777-16.6 12.554-40.223 9.282-52.784-7.315-63.694-84.214-97.367-184.648-97.367-290.447 0-266.556 215.841-482.030 482.252-482.030 266.555 0 482.247 215.618 482.247 482.030zM764.371 373.407c14.709 14.712 14.709 38.568 0 53.277l-122.81 122.806c10.437 19.223 15.888 40.755 15.868 62.628 0 72.667-59.122 131.777-131.777 131.777-72.667 0-131.779-59.109-131.779-131.777 0-72.659 59.111-131.777 131.779-131.777 21.873-0.025 43.401 5.431 62.628 15.864l122.806-122.804c14.717-14.71 38.564-14.71 53.285 0.007v-0.002zM582.074 612.127c0-31.109-25.313-56.426-56.422-56.426-31.113 0-56.426 25.317-56.426 56.426s25.313 56.426 56.426 56.426c31.109 0 56.422-25.313 56.422-56.426v0z"></path>
</svg>
