<svg width="20" height="20" viewBox="0 0 20 20" fill="none" xmlns="http://www.w3.org/2000/svg">
<path d="M19.6174 9.49683L16.7481 8.67713C15.4559 8.31296 14.2789 7.62338 13.3296 6.67439C12.3803 5.72539 11.6905 4.54873 11.3262 3.25701L10.5063 0.388579C10.4651 0.288222 10.3949 0.202386 10.3048 0.141978C10.2146 0.0815697 10.1085 0.0493164 10 0.0493164C9.89147 0.0493164 9.78539 0.0815697 9.69524 0.141978C9.6051 0.202386 9.53495 0.288222 9.49371 0.388579L8.67375 3.25701C8.30946 4.54873 7.61967 5.72539 6.67037 6.67439C5.72108 7.62338 4.54405 8.31296 3.25192 8.67713L0.382586 9.49683C0.272414 9.52809 0.175448 9.59443 0.106402 9.68577C0.0373568 9.77711 0 9.88847 0 10.003C0 10.1175 0.0373568 10.2288 0.106402 10.3202C0.175448 10.4115 0.272414 10.4778 0.382586 10.5091L3.25192 11.3288C4.54405 11.693 5.72108 12.3825 6.67037 13.3315C7.61967 14.2805 8.30946 15.4572 8.67375 16.7489L9.49371 19.6173C9.52498 19.7275 9.59133 19.8244 9.6827 19.8934C9.77408 19.9625 9.88548 19.9998 10 19.9998C10.1145 19.9998 10.2259 19.9625 10.3173 19.8934C10.4087 19.8244 10.475 19.7275 10.5063 19.6173L11.3262 16.7489C11.6905 15.4572 12.3803 14.2805 13.3296 13.3315C14.2789 12.3825 15.4559 11.693 16.7481 11.3288L19.6174 10.5091C19.7276 10.4778 19.8246 10.4115 19.8936 10.3202C19.9626 10.2288 20 10.1175 20 10.003C20 9.88847 19.9626 9.77711 19.8936 9.68577C19.8246 9.59443 19.7276 9.52809 19.6174 9.49683Z" fill="#1C2532"/>
</svg>
