<!-- Generated by IcoMoon.io -->
<svg version="1.1" xmlns="http://www.w3.org/2000/svg" width="1024" height="1024" viewBox="0 0 1024 1024">
<g id="icomoon-ignore">
</g>
<path d="M915.891 116.926c-128.338 53.146-678.605 281.078-830.648 343.204-101.97 39.793-42.281 77.096-42.281 77.096s87.040 29.839 161.649 52.224c74.609 22.385 114.401-2.488 114.401-2.488l350.659-236.267c124.344-84.552 94.505-14.92 64.666 14.92-64.666 64.666-171.602 166.625-261.13 248.698-39.793 34.816-19.897 64.666-2.488 79.585 64.666 54.712 241.234 166.625 251.187 174.090 52.541 37.192 155.884 90.737 171.602-22.385l62.177-390.451c19.896-131.809 39.793-253.676 42.281-288.492 7.455-84.552-82.074-49.736-82.074-49.736z"></path>
</svg>
