<!-- Generated by IcoMoon.io -->
<svg version="1.1" xmlns="http://www.w3.org/2000/svg" width="1065" height="1024" viewBox="0 0 1065 1024">
<g id="icomoon-ignore">
</g>
<path d="M219.786 259.254v214.866h288.794v-214.866c-41.431-13.041-71.479-51.761-71.479-97.498 0-56.441 45.756-102.196 102.199-102.196 56.439 0 102.195 45.755 102.195 102.196 0 45.737-30.048 84.457-71.475 97.498v214.866h248.033c22.508 0 40.755-18.248 40.755-40.755v-174.111c-41.427-13.041-71.475-51.761-71.475-97.498 0-56.441 45.756-102.196 102.195-102.196 56.443 0 102.199 45.755 102.199 102.196 0 45.737-30.048 84.457-71.479 97.498v174.111c0 56.439-45.752 102.195-102.195 102.195h-248.033v229.163c41.427 13.042 71.475 51.761 71.475 97.497 0 56.443-45.756 102.195-102.195 102.195-56.443 0-102.199-45.752-102.199-102.195 0-45.736 30.048-84.455 71.479-97.497v-229.163h-288.794v229.163c41.43 13.042 71.476 51.761 71.476 97.497 0 56.443-45.754 102.195-102.196 102.195s-102.196-45.752-102.196-102.195c0-45.736 30.045-84.455 71.476-97.497v-505.469c-41.431-13.041-71.476-51.761-71.476-97.498 0-56.441 45.755-102.196 102.196-102.196s102.196 45.755 102.196 102.196c0 45.737-30.045 84.457-71.476 97.498zM189.066 121c-22.509 0-40.756 18.247-40.756 40.756s18.247 40.756 40.756 40.756c22.509 0 40.756-18.247 40.756-40.756s-18.247-40.756-40.756-40.756zM539.304 202.512c22.508-0.003 40.751-18.249 40.751-40.756 0-22.509-18.248-40.756-40.755-40.756-22.512 0-40.759 18.247-40.759 40.756s18.256 40.756 40.763 40.756zM889.537 202.512c22.508-0.003 40.751-18.249 40.751-40.756 0-22.509-18.248-40.756-40.759-40.756-22.508 0-40.755 18.247-40.755 40.756s18.256 40.756 40.763 40.756zM148.31 862.22c0 22.508 18.247 40.755 40.756 40.755s40.756-18.248 40.756-40.755c0-22.508-18.247-40.755-40.756-40.755s-40.756 18.248-40.756 40.755zM539.3 821.465c-22.512 0-40.759 18.248-40.759 40.755s18.248 40.755 40.759 40.755c22.508 0 40.755-18.248 40.755-40.755s-18.248-40.755-40.755-40.755z"></path>
<path d="M858.808 764.723v-116.933c0-16.966 13.754-30.72 30.72-30.72 16.97 0 30.72 13.754 30.72 30.72v116.933c41.431 13.042 71.479 51.761 71.479 97.497 0 56.443-45.756 102.195-102.199 102.195-56.439 0-102.195-45.752-102.195-102.195 0-45.736 30.048-84.455 71.475-97.497zM889.528 821.465c-22.508 0-40.755 18.248-40.755 40.755s18.248 40.755 40.755 40.755c22.512 0 40.759-18.248 40.759-40.755s-18.248-40.755-40.759-40.755z"></path>
</svg>
