<!-- Generated by IcoMoon.io -->
<svg version="1.1" xmlns="http://www.w3.org/2000/svg" width="1024" height="1024" viewBox="0 0 1024 1024">
<g id="icomoon-ignore">
</g>
<path d="M512.128 0h-0.256c-282.304 0-511.872 229.632-511.872 512 0 112 36.096 215.808 97.472 300.093l-63.808 190.213 196.8-62.915c80.96 53.632 177.536 84.608 281.664 84.608 282.301 0 511.872-229.693 511.872-512 0-282.304-229.571-512-511.872-512zM810.045 723.011c-12.349 34.877-61.373 63.805-100.48 72.253-26.747 5.693-61.696 10.24-179.328-38.528-150.461-62.336-247.357-215.229-254.909-225.152-7.232-9.923-60.8-80.96-60.8-154.432s37.312-109.248 52.352-124.608c12.352-12.608 32.768-18.368 52.352-18.368 6.336 0 12.032 0.32 17.152 0.576 15.040 0.64 22.592 1.536 32.512 25.28 12.352 29.76 42.432 103.232 46.016 110.784 3.648 7.552 7.296 17.792 2.176 27.712-4.8 10.24-9.024 14.784-16.576 23.488s-14.72 15.36-22.272 24.704c-6.912 8.128-14.72 16.832-6.016 31.872 8.704 14.72 38.784 63.805 83.072 103.229 57.149 50.883 103.485 67.139 120.064 74.051 12.349 5.12 27.069 3.907 36.096-5.693 11.459-12.355 25.6-32.835 40.003-52.992 10.235-14.464 23.168-16.261 36.731-11.141 13.829 4.803 86.979 40.96 102.021 48.451 15.037 7.552 24.955 11.136 28.605 17.475 3.584 6.333 3.584 36.096-8.771 71.040z"></path>
</svg>
