<!-- Generated by IcoMoon.io -->
<svg version="1.1" xmlns="http://www.w3.org/2000/svg" width="1024" height="1024" viewBox="0 0 1024 1024">
<g id="icomoon-ignore">
</g>
<path d="M930.711 477.105h-244.25c-76.554 0-139.568 63.017-139.568 139.571s63.014 139.571 139.568 139.571h139.571v104.679c0 19.155-15.734 34.892-34.892 34.892h-558.283c-57.434 0-104.678-47.244-104.678-104.679v-523.39c0-57.434 47.245-104.678 104.678-104.678h69.785c19.158 0 34.892-15.737 34.892-34.893s-15.734-34.893-34.892-34.893h-69.785c-95.711 0-174.464 78.753-174.464 174.464v523.39c0 95.712 78.753 174.463 174.464 174.463h558.283c57.435 0 104.679-47.244 104.679-104.676v-104.679h34.892c19.158 0 34.892-15.737 34.892-34.892v-209.358c0-19.155-15.734-34.892-34.892-34.892zM895.819 686.463h-209.358c-38.277 0-69.784-31.51-69.784-69.787s31.507-69.784 69.784-69.784h209.358v139.571z"></path>
<path d="M220.296 235.292c-38.94 16.993-26.065 67.344 12.562 67.344h558.285c19.155 0 34.892 15.737 34.892 34.892v34.892c0 19.158 15.737 34.892 34.892 34.892 19.158 0 34.892-15.734 34.892-34.892v-34.892c0-27.762-11.027-54.388-30.659-74.019s-46.256-30.659-74.018-30.659h-11.167l-61.063-152.481c-3.455-8.497-10.102-15.301-18.517-18.954s-17.926-3.863-26.492-0.586l-453.607 174.464zM704.609 232.85h-283.68l245.994-94.559 37.686 94.559z"></path>
</svg>
