<svg width="27" height="20" viewBox="0 0 27 20" fill="none" xmlns="http://www.w3.org/2000/svg">
<g clip-path="url(#clip0_210_185)">
<path d="M26.3218 3.41585C25.7419 1.73156 23.8227 0.711536 22.0564 0.477676C15.7033 -0.159225 11.2967 -0.159225 4.94361 0.477676C3.17732 0.711536 1.25286 1.72161 0.678163 3.41585C-0.226054 7.76381 -0.226054 12.2362 0.678163 16.5841C1.25814 18.2659 3.17732 19.2885 4.94361 19.5223C11.2967 20.1592 15.7033 20.1592 22.0564 19.5223C23.8227 19.2885 25.7471 18.2784 26.3218 16.5841C27.2261 12.2362 27.2261 7.76381 26.3218 3.41585ZM10.0307 15.2432V4.75432L19.0783 9.99876C16.0282 11.7676 13.0677 13.4818 10.0307 15.2432Z" fill="#D61812"/>
</g>
<defs>
<clipPath id="clip0_210_185">
<rect width="27" height="20" fill="white"/>
</clipPath>
</defs>
</svg>
