<svg width="422" height="400" viewBox="0 0 422 400" fill="none" xmlns="http://www.w3.org/2000/svg">
<path fill-rule="evenodd" clip-rule="evenodd" d="M234 118.5C234 53.5985 181.833 1.00001 117.5 1.00001C53.1668 1.00001 0.999992 53.5985 0.999995 118.5C0.999998 183.401 53.1668 236 117.5 236C181.833 236 234 183.401 234 118.5ZM235 118.5C235 53.0543 182.393 7.29202e-06 117.5 1.01265e-05C52.6065 1.2961e-05 -8.04648e-06 53.0543 -5.18364e-06 118.5C-2.32079e-06 183.946 52.6065 237 117.5 237C182.393 237 235 183.946 235 118.5Z" fill="#104136" fill-opacity="0.4"/>
<path fill-rule="evenodd" clip-rule="evenodd" d="M421 118.5C421 53.5985 368.833 1.00001 304.5 1.00001C240.167 1.00001 188 53.5985 188 118.5C188 183.401 240.167 236 304.5 236C368.833 236 421 183.401 421 118.5ZM422 118.5C422 53.0543 369.393 7.29202e-06 304.5 1.01265e-05C239.607 1.2961e-05 187 53.0543 187 118.5C187 183.946 239.607 237 304.5 237C369.393 237 422 183.946 422 118.5Z" fill="#104136" fill-opacity="0.4"/>
<path fill-rule="evenodd" clip-rule="evenodd" d="M329 281.5C329 216.611 276.174 164 211 164C145.826 164 93 216.611 93 281.5C93 346.389 145.826 399 211 399C276.174 399 329 346.389 329 281.5ZM330 281.5C330 216.054 276.722 163 211 163C145.278 163 92 216.054 92 281.5C92 346.946 145.278 400 211 400C276.722 400 330 346.946 330 281.5Z" fill="#104136" fill-opacity="0.4"/>
</svg>
