<svg width="330" height="330" viewBox="0 0 330 330" fill="none" xmlns="http://www.w3.org/2000/svg">
<path style="mix-blend-mode:screen" opacity="0.71" d="M225.155 164.912C225.158 176.851 221.62 188.522 214.99 198.449C208.359 208.377 198.933 216.115 187.905 220.686C176.876 225.256 164.74 226.454 153.03 224.126C141.321 221.799 130.565 216.052 122.123 207.611C113.68 199.17 107.93 188.416 105.6 176.707C103.27 164.998 104.464 152.862 109.032 141.832C113.6 130.802 121.336 121.375 131.263 114.742C141.189 108.109 152.859 104.569 164.797 104.569C180.802 104.569 196.153 110.926 207.471 122.242C218.79 133.558 225.151 148.907 225.155 164.912Z" fill="url(#paint0_radial_141_5025)"/>
<path style="mix-blend-mode:screen" opacity="0.67" d="M294.34 199.99C313.683 128.451 271.37 54.7757 199.83 35.4327C128.291 16.0897 54.6157 58.4033 35.2727 129.943C15.9296 201.482 58.2432 275.157 129.783 294.5C201.322 313.843 274.997 271.53 294.34 199.99Z" fill="url(#paint1_radial_141_5025)"/>
<path style="mix-blend-mode:screen" opacity="0.61" d="M209.53 164.912C209.53 173.76 206.907 182.409 201.991 189.765C197.076 197.121 190.09 202.855 181.916 206.24C173.742 209.626 164.747 210.512 156.07 208.786C147.393 207.06 139.422 202.8 133.166 196.544C126.91 190.287 122.65 182.317 120.924 173.639C119.197 164.962 120.083 155.968 123.469 147.794C126.855 139.62 132.588 132.634 139.945 127.718C147.301 122.803 155.95 120.179 164.797 120.179C176.661 120.179 188.039 124.892 196.428 133.281C204.817 141.671 209.53 153.049 209.53 164.912Z" fill="url(#paint2_radial_141_5025)"/>
<defs>
<radialGradient id="paint0_radial_141_5025" cx="0" cy="0" r="1" gradientUnits="userSpaceOnUse" gradientTransform="translate(164.797 164.912) scale(45.1727)">
<stop stop-color="white"/>
<stop offset="0.145833" stop-color="#F7F9FC"/>
<stop offset="0.302083" stop-color="#F3F6FA"/>
<stop offset="0.463542" stop-color="#E17171"/>
<stop offset="0.635417" stop-color="#CA6666"/>
<stop offset="0.796875" stop-color="#9B4E4E"/>
<stop offset="0.99" stop-opacity="0"/>
</radialGradient>
<radialGradient id="paint1_radial_141_5025" cx="0" cy="0" r="1" gradientUnits="userSpaceOnUse" gradientTransform="translate(164.832 164.928) scale(134.185 134.185)">
<stop offset="0.015625" stop-color="#E17171"/>
<stop offset="0.16" stop-color="#D46A6A"/>
<stop offset="0.28" stop-color="#9C4E4E"/>
<stop offset="0.41" stop-color="#6C3636"/>
<stop offset="0.53" stop-color="#452323"/>
<stop offset="0.65" stop-color="#271414"/>
<stop offset="0.77" stop-color="#110909"/>
<stop offset="0.88" stop-color="#040202"/>
<stop offset="0.99"/>
</radialGradient>
<radialGradient id="paint2_radial_141_5025" cx="0" cy="0" r="1" gradientUnits="userSpaceOnUse" gradientTransform="translate(164.797 164.912) scale(87.4103)">
<stop stop-color="white"/>
<stop offset="0.09" stop-color="#F7F9FC"/>
<stop offset="0.12" stop-color="#F3F6FA"/>
<stop offset="0.34" stop-color="#E17171"/>
<stop offset="0.36" stop-color="#CA6666"/>
<stop offset="0.42" stop-color="#9B4E4E"/>
<stop offset="0.48" stop-color="#723939"/>
<stop offset="0.55" stop-color="#4E2727"/>
<stop offset="0.62" stop-color="#321919"/>
<stop offset="0.69" stop-color="#1C0E0E"/>
<stop offset="0.77" stop-color="#0C0606"/>
<stop offset="0.86" stop-color="#030101"/>
<stop offset="0.99"/>
</radialGradient>
</defs>
</svg>
