<svg width="316" height="317" viewBox="0 0 316 317" fill="none" xmlns="http://www.w3.org/2000/svg">
<g style="mix-blend-mode:screen">
<path d="M255.047 172.229C231.095 168.108 207.076 164.526 182.992 161.482C207.095 164.148 231.411 166.274 255.614 167.862C256.436 167.862 257.032 168.954 256.833 170.174C256.635 171.393 255.898 172.329 255.104 172.229H255.047Z" fill="url(#paint0_radial_141_5031)"/>
<path d="M221.529 191.867C207.965 184.125 194.259 176.696 180.412 169.578C194.448 176.355 208.627 182.821 222.947 188.974C223.304 189.17 223.574 189.494 223.703 189.881C223.831 190.267 223.809 190.688 223.641 191.059C223.472 191.43 223.17 191.724 222.794 191.882C222.418 192.039 221.997 192.049 221.614 191.909L221.529 191.867Z" fill="url(#paint1_radial_141_5031)"/>
<path d="M209.392 175.065C200.356 171.738 191.216 168.595 181.971 165.636C191.272 168.217 200.63 170.58 210.045 172.726C210.401 172.785 210.721 172.978 210.939 173.265C211.158 173.552 211.259 173.912 211.221 174.271C211.174 174.443 211.091 174.602 210.978 174.739C210.865 174.877 210.724 174.988 210.565 175.067C210.406 175.146 210.232 175.191 210.054 175.198C209.876 175.205 209.699 175.174 209.534 175.108L209.392 175.065Z" fill="url(#paint2_radial_141_5031)"/>
<path d="M237.466 215.885C218.202 201.083 198.626 186.715 178.738 172.782C198.891 186.422 219.303 199.594 239.975 212.298C240.642 212.695 240.741 213.928 239.975 214.921C239.21 215.913 238.146 216.339 237.48 215.927L237.466 215.885Z" fill="url(#paint3_radial_141_5031)"/>
<path d="M198.688 217.643C190.247 204.504 181.527 191.559 172.528 178.808C181.83 191.314 191.409 203.602 201.268 215.672C201.387 215.837 201.473 216.024 201.519 216.223C201.565 216.421 201.571 216.627 201.536 216.827C201.502 217.028 201.428 217.22 201.319 217.391C201.209 217.563 201.067 217.711 200.9 217.827C200.749 217.962 200.574 218.065 200.383 218.13C200.192 218.195 199.99 218.221 199.789 218.206C199.588 218.192 199.392 218.137 199.212 218.045C199.033 217.953 198.874 217.826 198.744 217.671L198.688 217.643Z" fill="url(#paint4_radial_141_5031)"/>
<path d="M195.71 197.113C189.254 189.948 182.637 182.911 175.86 176.001C182.893 182.617 190.076 189.064 197.411 195.34C197.701 195.56 197.894 195.883 197.952 196.242C198.01 196.601 197.928 196.968 197.723 197.269C197.605 197.399 197.461 197.504 197.3 197.575C197.138 197.647 196.964 197.684 196.788 197.684C196.611 197.684 196.437 197.647 196.276 197.575C196.114 197.504 195.97 197.399 195.852 197.269L195.71 197.113Z" fill="url(#paint5_radial_141_5031)"/>
<path d="M201.679 246.312C191.49 224.25 180.804 202.444 169.622 180.892C181.144 202.311 193.13 223.442 205.578 244.284C205.989 244.965 205.493 246.071 204.387 246.624C203.281 247.177 202.076 247.063 201.708 246.354L201.679 246.312Z" fill="url(#paint6_radial_141_5031)"/>
<path d="M166.474 229.851C165.141 214.283 163.464 198.762 161.441 183.289C163.823 198.705 166.573 214.089 169.693 229.44C169.739 229.848 169.628 230.259 169.383 230.588C169.137 230.918 168.775 231.141 168.371 231.214C167.966 231.286 167.549 231.201 167.205 230.977C166.861 230.753 166.614 230.406 166.517 230.007L166.474 229.851Z" fill="url(#paint7_radial_141_5031)"/>
<path d="M173.393 210.299C171.011 200.969 168.412 191.659 165.595 182.367C168.761 191.488 172.122 200.539 175.676 209.519C175.829 209.844 175.853 210.216 175.742 210.558C175.631 210.9 175.395 211.188 175.08 211.362C174.912 211.42 174.733 211.442 174.556 211.426C174.379 211.41 174.207 211.357 174.051 211.27C173.896 211.183 173.761 211.064 173.655 210.921C173.549 210.778 173.474 210.614 173.436 210.44L173.393 210.299Z" fill="url(#paint8_radial_141_5031)"/>
<path d="M155.798 256.634C157.017 232.379 157.702 208.11 157.854 183.827C158.08 208.092 158.851 232.356 160.165 256.62C160.165 257.414 159.257 258.123 158.024 258.179C156.79 258.236 155.798 257.485 155.798 256.761V256.634Z" fill="url(#paint9_radial_141_5031)"/>
<path d="M132.29 225.682C138.33 211.286 144.039 196.768 149.417 182.126C144.379 196.9 139.682 211.787 135.324 226.788C135.255 226.977 135.149 227.15 135.011 227.298C134.874 227.445 134.708 227.563 134.525 227.645C134.341 227.727 134.142 227.771 133.941 227.775C133.74 227.779 133.54 227.742 133.353 227.667C132.958 227.558 132.622 227.297 132.417 226.941C132.213 226.586 132.157 226.164 132.261 225.767L132.29 225.682Z" fill="url(#paint10_radial_141_5031)"/>
<path d="M147.489 211.589C149.71 202.136 151.724 192.684 153.529 183.232C152.102 192.788 150.887 202.378 149.885 212C149.86 212.359 149.7 212.694 149.436 212.939C149.173 213.184 148.827 213.32 148.467 213.319C148.295 213.292 148.129 213.23 147.981 213.136C147.834 213.042 147.707 212.919 147.61 212.774C147.513 212.628 147.447 212.464 147.416 212.292C147.385 212.12 147.391 211.943 147.432 211.773L147.489 211.589Z" fill="url(#paint11_radial_141_5031)"/>
<path d="M110.327 244.469C122.71 223.598 134.625 202.42 146.071 180.935C134.984 202.533 124.378 224.373 114.255 246.454C113.915 247.177 112.738 247.347 111.632 246.808C110.526 246.269 109.93 245.22 110.299 244.497L110.327 244.469Z" fill="url(#paint12_radial_141_5031)"/>
<path d="M103.975 206.116C115.999 196.163 127.814 185.959 139.422 175.505C128.079 186.233 117.005 197.231 106.201 208.498C106.058 208.645 105.885 208.76 105.693 208.834C105.501 208.907 105.296 208.939 105.091 208.925C104.886 208.912 104.687 208.854 104.506 208.755C104.326 208.657 104.169 208.521 104.046 208.356C103.745 208.078 103.568 207.691 103.552 207.282C103.536 206.873 103.683 206.474 103.961 206.173L103.975 206.116Z" fill="url(#paint13_radial_141_5031)"/>
<path d="M123.981 200.7C130.352 193.393 136.548 185.959 142.569 178.397C136.841 186.186 131.293 194.102 125.924 202.146C125.736 202.446 125.442 202.664 125.101 202.759C124.76 202.853 124.396 202.817 124.081 202.656C123.94 202.551 123.823 202.418 123.737 202.266C123.65 202.114 123.596 201.945 123.577 201.771C123.558 201.597 123.576 201.42 123.628 201.253C123.681 201.086 123.767 200.931 123.882 200.799L123.981 200.7Z" fill="url(#paint14_radial_141_5031)"/>
<path d="M75.831 212.596C96.4654 199.825 116.83 186.592 136.926 172.896C117.076 186.885 97.5524 201.324 78.3548 216.211C77.7309 216.707 76.6108 216.31 75.8736 215.332C75.1363 214.354 75.1221 213.12 75.7743 212.666L75.831 212.596Z" fill="url(#paint15_radial_141_5031)"/>
<path d="M87.9678 175.632C103.233 172.428 118.423 168.883 133.537 164.998C118.527 169.252 103.607 173.836 88.776 178.751C88.5813 178.816 88.375 178.837 88.1713 178.813C87.9676 178.79 87.7714 178.723 87.5961 178.616C87.4209 178.51 87.2709 178.367 87.1564 178.197C87.0418 178.027 86.9656 177.834 86.9328 177.631C86.8634 177.439 86.833 177.234 86.8433 177.03C86.8535 176.825 86.9043 176.625 86.9927 176.44C87.0811 176.256 87.2053 176.09 87.3581 175.954C87.5109 175.818 87.6892 175.713 87.8828 175.646L87.9678 175.632Z" fill="url(#paint16_radial_141_5031)"/>
<path d="M108.187 180.141C117.204 176.625 126.141 172.91 134.998 168.997C126.321 173.241 117.733 177.679 109.236 182.31C108.932 182.491 108.572 182.552 108.226 182.481C107.88 182.411 107.572 182.213 107.364 181.927C107.29 181.77 107.249 181.599 107.243 181.425C107.237 181.251 107.267 181.078 107.331 180.915C107.394 180.753 107.491 180.606 107.613 180.483C107.736 180.359 107.883 180.262 108.045 180.198L108.187 180.141Z" fill="url(#paint17_radial_141_5031)"/>
<path d="M60.0223 168.217C84.258 166.544 108.465 164.327 132.644 161.567C108.569 164.705 84.5604 168.373 60.6177 172.57C59.8379 172.711 59.0297 171.847 58.8454 170.613C58.6611 169.38 59.1431 168.33 59.9655 168.217H60.0223Z" fill="url(#paint18_radial_141_5031)"/>
<path d="M87.9679 141.221C102.988 145.465 118.078 149.364 133.24 152.918C117.984 149.714 102.572 146.85 87.2165 144.411C87.0141 144.379 86.8212 144.302 86.6511 144.188C86.481 144.073 86.3378 143.923 86.2313 143.748C86.1248 143.573 86.0577 143.377 86.0343 143.173C86.011 142.969 86.0322 142.763 86.0963 142.568C86.166 142.161 86.3916 141.797 86.7251 141.554C87.0586 141.31 87.4739 141.206 87.8828 141.264L87.9679 141.221Z" fill="url(#paint19_radial_141_5031)"/>
<path d="M103.819 154.591C113.451 155.669 123.083 156.534 132.715 157.186C123.064 156.921 113.395 156.865 103.706 157.016C103.357 157.039 103.013 156.925 102.747 156.697C102.482 156.468 102.317 156.145 102.288 155.797C102.297 155.622 102.341 155.451 102.418 155.294C102.495 155.137 102.603 154.997 102.736 154.883C102.868 154.769 103.023 154.683 103.189 154.63C103.356 154.578 103.532 154.56 103.706 154.577L103.819 154.591Z" fill="url(#paint20_radial_141_5031)"/>
<path d="M66.6717 121.683C88.9414 131.457 111.41 140.72 134.076 149.473C111.287 141.079 88.3081 133.196 65.1404 125.823C64.389 125.582 64.0912 124.405 64.5024 123.271C64.9136 122.137 65.9202 121.385 66.6292 121.669L66.6717 121.683Z" fill="url(#paint21_radial_141_5031)"/>
<path d="M103.975 110.723C115.318 121.471 126.855 131.953 138.585 142.171C126.552 132.218 114.311 122.543 101.863 113.148C101.698 113.025 101.562 112.868 101.463 112.688C101.365 112.508 101.307 112.308 101.294 112.103C101.28 111.898 101.312 111.693 101.385 111.501C101.459 111.309 101.574 111.136 101.721 110.993C101.972 110.666 102.339 110.449 102.747 110.388C103.154 110.327 103.569 110.427 103.904 110.666L103.975 110.723Z" fill="url(#paint22_radial_141_5031)"/>
<path d="M111.773 129.949C119.789 135.394 127.904 140.645 136.118 145.701C127.696 140.975 119.16 136.415 110.512 132.019C110.338 131.966 110.178 131.875 110.044 131.753C109.909 131.631 109.803 131.48 109.734 131.312C109.664 131.144 109.633 130.963 109.641 130.782C109.65 130.6 109.698 130.423 109.783 130.263C109.868 130.102 109.988 129.962 110.133 129.853C110.279 129.744 110.446 129.669 110.624 129.632C110.802 129.595 110.986 129.598 111.162 129.641C111.339 129.683 111.504 129.765 111.646 129.878L111.773 129.949Z" fill="url(#paint23_radial_141_5031)"/>
<path d="M94.178 83.5714C109.368 102.552 124.964 121.187 140.967 139.477C124.671 121.461 107.983 103.804 90.9028 86.5064C90.3357 85.9392 90.6051 84.7908 91.5125 83.9543C92.4199 83.1177 93.5826 82.9334 94.1214 83.5289L94.178 83.5714Z" fill="url(#paint24_radial_141_5031)"/>
<path d="M132.29 91.1569C137.318 105.931 142.678 120.582 148.368 135.11C142.328 120.719 135.948 106.427 129.298 92.3621C129.207 92.1763 129.158 91.9728 129.154 91.766C129.15 91.5592 129.192 91.354 129.275 91.1648C129.359 90.9757 129.483 90.8071 129.639 90.671C129.795 90.535 129.979 90.4346 130.177 90.3771C130.552 90.2013 130.981 90.1801 131.371 90.3181C131.761 90.4561 132.081 90.7422 132.261 91.1144L132.29 91.1569Z" fill="url(#paint25_radial_141_5031)"/>
<path d="M130.291 111.758C134.875 120.265 139.634 128.678 144.568 136.996C139.313 128.886 133.864 120.889 128.221 113.006C128.104 112.877 128.017 112.724 127.964 112.558C127.911 112.393 127.893 112.218 127.913 112.045C127.932 111.872 127.988 111.706 128.076 111.556C128.164 111.406 128.283 111.276 128.425 111.176C128.567 111.075 128.728 111.006 128.899 110.972C129.07 110.938 129.245 110.941 129.415 110.98C129.584 111.019 129.744 111.093 129.882 111.198C130.021 111.303 130.136 111.436 130.22 111.588L130.291 111.758Z" fill="url(#paint26_radial_141_5031)"/>
<path d="M136.288 62.5589C140.882 86.4354 146.01 110.194 151.672 133.834C145.651 110.298 139.1 86.8986 132.021 63.6364C131.78 62.8708 132.559 61.9917 133.75 61.6656C134.941 61.3395 136.09 61.6656 136.274 62.5022L136.288 62.5589Z" fill="url(#paint27_radial_141_5031)"/>
<path d="M166.46 87.0025C164.078 102.415 162.036 117.827 160.321 133.352C161.653 117.841 162.636 102.292 163.27 86.7048C163.296 86.2799 163.49 85.8828 163.809 85.601C164.128 85.3191 164.546 85.1756 164.971 85.2019C165.396 85.2282 165.793 85.4222 166.075 85.7413C166.357 86.0604 166.5 86.4784 166.474 86.9033L166.46 87.0025Z" fill="url(#paint28_radial_141_5031)"/>
<path d="M155.089 104.385C155.155 114.055 155.443 123.711 155.954 133.352C155.075 123.682 153.983 114.065 152.679 104.499C152.639 104.327 152.635 104.15 152.666 103.976C152.698 103.803 152.764 103.638 152.86 103.491C152.957 103.344 153.082 103.218 153.229 103.121C153.376 103.024 153.54 102.957 153.714 102.925C154.073 102.924 154.419 103.06 154.683 103.305C154.946 103.549 155.106 103.885 155.131 104.244L155.089 104.385Z" fill="url(#paint29_radial_141_5031)"/>
<path d="M183.247 63.5514C176.262 86.8325 169.797 110.251 163.851 133.806C169.418 110.175 174.461 86.3976 178.979 62.4738C179.121 61.6798 180.213 61.2687 181.418 61.5523C182.623 61.8359 183.446 62.7149 183.261 63.4947L183.247 63.5514Z" fill="url(#paint30_radial_141_5031)"/>
<path d="M198.688 99.1961C189.396 111.701 180.369 124.424 171.607 137.364C180.029 124.264 188.153 110.964 195.979 97.4662C196.208 97.1231 196.562 96.8842 196.966 96.8019C197.37 96.7195 197.79 96.8004 198.135 97.0267C198.317 97.1201 198.478 97.2497 198.608 97.4076C198.738 97.5654 198.834 97.7481 198.892 97.9445C198.949 98.141 198.965 98.347 198.94 98.55C198.914 98.753 198.848 98.9488 198.744 99.1252L198.688 99.1961Z" fill="url(#paint31_radial_141_5031)"/>
<path d="M180.525 109.291C176.101 117.883 171.876 126.561 167.849 135.323C171.545 126.362 175.038 117.349 178.327 108.284C178.37 108.111 178.447 107.948 178.555 107.805C178.662 107.662 178.798 107.542 178.953 107.454C179.108 107.365 179.28 107.308 179.457 107.288C179.635 107.267 179.815 107.283 179.986 107.335C180.294 107.508 180.525 107.791 180.635 108.127C180.746 108.462 180.726 108.827 180.582 109.149L180.525 109.291Z" fill="url(#paint32_radial_141_5031)"/>
<path d="M224.436 86.237C207.422 103.591 190.8 121.305 174.57 139.378C190.507 121.05 206.042 102.358 221.175 83.302C221.671 82.6782 222.834 82.8199 223.755 83.6281C224.677 84.4363 225.003 85.5989 224.478 86.1944L224.436 86.237Z" fill="url(#paint33_radial_141_5031)"/>
<path d="M221.529 124.973C207.492 131.75 193.602 138.839 179.859 146.24C193.385 138.508 206.746 130.474 219.941 122.137C220.303 121.943 220.727 121.898 221.122 122.012C221.516 122.125 221.851 122.389 222.054 122.747C222.169 122.917 222.249 123.108 222.288 123.31C222.328 123.512 222.326 123.719 222.284 123.92C222.242 124.121 222.159 124.312 222.042 124.481C221.924 124.649 221.774 124.792 221.6 124.902L221.529 124.973Z" fill="url(#paint34_radial_141_5031)"/>
<path d="M200.758 125.483C192.846 131.06 185.076 136.793 177.448 142.681C184.878 136.452 192.151 130.082 199.269 123.569C199.393 123.441 199.542 123.339 199.706 123.269C199.871 123.2 200.047 123.164 200.226 123.164C200.404 123.164 200.581 123.2 200.746 123.269C200.91 123.339 201.059 123.441 201.183 123.569C201.376 123.866 201.45 124.223 201.393 124.572C201.335 124.921 201.149 125.236 200.871 125.455L200.758 125.483Z" fill="url(#paint35_radial_141_5031)"/>
<path d="M250.34 125.483C227.21 132.941 204.264 140.909 181.503 149.388C204.132 140.55 226.567 131.206 248.809 121.357C249.546 121.031 250.51 121.697 250.95 122.846C251.389 123.994 251.148 125.185 250.397 125.469L250.34 125.483Z" fill="url(#paint36_radial_141_5031)"/>
<path d="M229.795 158.42C214.17 157.881 198.574 157.692 183.006 157.852C198.574 157.314 214.137 156.435 229.696 155.215C229.899 155.21 230.102 155.245 230.292 155.318C230.481 155.392 230.655 155.502 230.801 155.643C230.948 155.785 231.065 155.954 231.145 156.141C231.226 156.328 231.268 156.529 231.27 156.732C231.309 156.933 231.304 157.139 231.256 157.338C231.207 157.536 231.117 157.722 230.991 157.882C230.864 158.042 230.704 158.173 230.522 158.266C230.34 158.359 230.141 158.411 229.937 158.42H229.795Z" fill="url(#paint37_radial_141_5031)"/>
<path d="M211.136 149.203C201.552 150.432 192.009 151.879 182.51 153.542C191.962 151.5 201.363 149.26 210.711 146.822C210.879 146.759 211.058 146.732 211.237 146.74C211.417 146.749 211.592 146.794 211.754 146.872C211.915 146.95 212.059 147.06 212.177 147.195C212.295 147.33 212.385 147.488 212.441 147.658C212.471 148.01 212.368 148.361 212.153 148.642C211.938 148.923 211.626 149.113 211.278 149.175L211.136 149.203Z" fill="url(#paint38_radial_141_5031)"/>
</g>
<path style="mix-blend-mode:screen" opacity="0.71" d="M245.511 179.066C256.951 130.596 226.932 82.0287 178.461 70.5886C129.99 59.1485 81.4233 89.1676 69.9832 137.638C58.5431 186.109 88.5622 234.676 137.033 246.116C185.503 257.556 234.071 227.537 245.511 179.066Z" fill="url(#paint39_radial_141_5031)"/>
<path style="mix-blend-mode:screen" opacity="0.67" d="M289.433 184.455C303.814 111.756 256.538 41.1622 183.839 26.7805C111.139 12.3988 40.5462 59.6748 26.1645 132.374C11.7828 205.074 59.0587 275.667 131.758 290.049C204.458 304.43 275.051 257.155 289.433 184.455Z" fill="url(#paint40_radial_141_5031)"/>
<defs>
<radialGradient id="paint0_radial_141_5031" cx="0" cy="0" r="1" gradientUnits="userSpaceOnUse" gradientTransform="translate(176.3 163.169) scale(202.851 202.852)">
<stop stop-color="white"/>
<stop offset="0.09" stop-color="#F7F9FC"/>
<stop offset="0.12" stop-color="#F3F6FA"/>
<stop offset="0.34" stop-color="#E17171"/>
<stop offset="0.36" stop-color="#CA6666"/>
<stop offset="0.42" stop-color="#9B4E4E"/>
<stop offset="0.48" stop-color="#723939"/>
<stop offset="0.55" stop-color="#4E2727"/>
<stop offset="0.62" stop-color="#321919"/>
<stop offset="0.69" stop-color="#1C0E0E"/>
<stop offset="0.77" stop-color="#0C0606"/>
<stop offset="0.86" stop-color="#030101"/>
<stop offset="0.99"/>
</radialGradient>
<radialGradient id="paint1_radial_141_5031" cx="0" cy="0" r="1" gradientUnits="userSpaceOnUse" gradientTransform="translate(176.3 163.169) scale(202.852 202.851)">
<stop stop-color="white"/>
<stop offset="0.09" stop-color="#F7F9FC"/>
<stop offset="0.12" stop-color="#F3F6FA"/>
<stop offset="0.34" stop-color="#E17171"/>
<stop offset="0.36" stop-color="#CA6666"/>
<stop offset="0.42" stop-color="#9B4E4E"/>
<stop offset="0.48" stop-color="#723939"/>
<stop offset="0.55" stop-color="#4E2727"/>
<stop offset="0.62" stop-color="#321919"/>
<stop offset="0.69" stop-color="#1C0E0E"/>
<stop offset="0.77" stop-color="#0C0606"/>
<stop offset="0.86" stop-color="#030101"/>
<stop offset="0.99"/>
</radialGradient>
<radialGradient id="paint2_radial_141_5031" cx="0" cy="0" r="1" gradientUnits="userSpaceOnUse" gradientTransform="translate(176.3 163.169) scale(202.851 202.851)">
<stop stop-color="white"/>
<stop offset="0.09" stop-color="#F7F9FC"/>
<stop offset="0.12" stop-color="#F3F6FA"/>
<stop offset="0.34" stop-color="#E17171"/>
<stop offset="0.36" stop-color="#CA6666"/>
<stop offset="0.42" stop-color="#9B4E4E"/>
<stop offset="0.48" stop-color="#723939"/>
<stop offset="0.55" stop-color="#4E2727"/>
<stop offset="0.62" stop-color="#321919"/>
<stop offset="0.69" stop-color="#1C0E0E"/>
<stop offset="0.77" stop-color="#0C0606"/>
<stop offset="0.86" stop-color="#030101"/>
<stop offset="0.99"/>
</radialGradient>
<radialGradient id="paint3_radial_141_5031" cx="0" cy="0" r="1" gradientUnits="userSpaceOnUse" gradientTransform="translate(163.341 166.572) scale(197.832 197.832)">
<stop stop-color="white"/>
<stop offset="0.09" stop-color="#F7F9FC"/>
<stop offset="0.12" stop-color="#F3F6FA"/>
<stop offset="0.34" stop-color="#E17171"/>
<stop offset="0.36" stop-color="#CA6666"/>
<stop offset="0.42" stop-color="#9B4E4E"/>
<stop offset="0.48" stop-color="#723939"/>
<stop offset="0.55" stop-color="#4E2727"/>
<stop offset="0.62" stop-color="#321919"/>
<stop offset="0.69" stop-color="#1C0E0E"/>
<stop offset="0.77" stop-color="#0C0606"/>
<stop offset="0.86" stop-color="#030101"/>
<stop offset="0.99"/>
</radialGradient>
<radialGradient id="paint4_radial_141_5031" cx="0" cy="0" r="1" gradientUnits="userSpaceOnUse" gradientTransform="translate(163.341 166.572) scale(197.832 197.832)">
<stop stop-color="white"/>
<stop offset="0.09" stop-color="#F7F9FC"/>
<stop offset="0.12" stop-color="#F3F6FA"/>
<stop offset="0.34" stop-color="#E17171"/>
<stop offset="0.36" stop-color="#CA6666"/>
<stop offset="0.42" stop-color="#9B4E4E"/>
<stop offset="0.48" stop-color="#723939"/>
<stop offset="0.55" stop-color="#4E2727"/>
<stop offset="0.62" stop-color="#321919"/>
<stop offset="0.69" stop-color="#1C0E0E"/>
<stop offset="0.77" stop-color="#0C0606"/>
<stop offset="0.86" stop-color="#030101"/>
<stop offset="0.99"/>
</radialGradient>
<radialGradient id="paint5_radial_141_5031" cx="0" cy="0" r="1" gradientUnits="userSpaceOnUse" gradientTransform="translate(163.34 166.572) scale(197.833 197.832)">
<stop stop-color="white"/>
<stop offset="0.09" stop-color="#F7F9FC"/>
<stop offset="0.12" stop-color="#F3F6FA"/>
<stop offset="0.34" stop-color="#E17171"/>
<stop offset="0.36" stop-color="#CA6666"/>
<stop offset="0.42" stop-color="#9B4E4E"/>
<stop offset="0.48" stop-color="#723939"/>
<stop offset="0.55" stop-color="#4E2727"/>
<stop offset="0.62" stop-color="#321919"/>
<stop offset="0.69" stop-color="#1C0E0E"/>
<stop offset="0.77" stop-color="#0C0606"/>
<stop offset="0.86" stop-color="#030101"/>
<stop offset="0.99"/>
</radialGradient>
<radialGradient id="paint6_radial_141_5031" cx="0" cy="0" r="1" gradientUnits="userSpaceOnUse" gradientTransform="translate(160.618 172.711) scale(181.867 181.867)">
<stop stop-color="white"/>
<stop offset="0.09" stop-color="#F7F9FC"/>
<stop offset="0.12" stop-color="#F3F6FA"/>
<stop offset="0.34" stop-color="#E17171"/>
<stop offset="0.36" stop-color="#CA6666"/>
<stop offset="0.42" stop-color="#9B4E4E"/>
<stop offset="0.48" stop-color="#723939"/>
<stop offset="0.55" stop-color="#4E2727"/>
<stop offset="0.62" stop-color="#321919"/>
<stop offset="0.69" stop-color="#1C0E0E"/>
<stop offset="0.77" stop-color="#0C0606"/>
<stop offset="0.86" stop-color="#030101"/>
<stop offset="0.99"/>
</radialGradient>
<radialGradient id="paint7_radial_141_5031" cx="0" cy="0" r="1" gradientUnits="userSpaceOnUse" gradientTransform="translate(160.618 172.712) scale(181.868 181.867)">
<stop stop-color="white"/>
<stop offset="0.09" stop-color="#F7F9FC"/>
<stop offset="0.12" stop-color="#F3F6FA"/>
<stop offset="0.34" stop-color="#E17171"/>
<stop offset="0.36" stop-color="#CA6666"/>
<stop offset="0.42" stop-color="#9B4E4E"/>
<stop offset="0.48" stop-color="#723939"/>
<stop offset="0.55" stop-color="#4E2727"/>
<stop offset="0.62" stop-color="#321919"/>
<stop offset="0.69" stop-color="#1C0E0E"/>
<stop offset="0.77" stop-color="#0C0606"/>
<stop offset="0.86" stop-color="#030101"/>
<stop offset="0.99"/>
</radialGradient>
<radialGradient id="paint8_radial_141_5031" cx="0" cy="0" r="1" gradientUnits="userSpaceOnUse" gradientTransform="translate(160.618 172.711) scale(181.867 181.868)">
<stop stop-color="white"/>
<stop offset="0.09" stop-color="#F7F9FC"/>
<stop offset="0.12" stop-color="#F3F6FA"/>
<stop offset="0.34" stop-color="#E17171"/>
<stop offset="0.36" stop-color="#CA6666"/>
<stop offset="0.42" stop-color="#9B4E4E"/>
<stop offset="0.48" stop-color="#723939"/>
<stop offset="0.55" stop-color="#4E2727"/>
<stop offset="0.62" stop-color="#321919"/>
<stop offset="0.69" stop-color="#1C0E0E"/>
<stop offset="0.77" stop-color="#0C0606"/>
<stop offset="0.86" stop-color="#030101"/>
<stop offset="0.99"/>
</radialGradient>
<radialGradient id="paint9_radial_141_5031" cx="0" cy="0" r="1" gradientUnits="userSpaceOnUse" gradientTransform="translate(155.16 172.712) scale(171.263 171.262)">
<stop stop-color="white"/>
<stop offset="0.09" stop-color="#F7F9FC"/>
<stop offset="0.12" stop-color="#F3F6FA"/>
<stop offset="0.34" stop-color="#E17171"/>
<stop offset="0.36" stop-color="#CA6666"/>
<stop offset="0.42" stop-color="#9B4E4E"/>
<stop offset="0.48" stop-color="#723939"/>
<stop offset="0.55" stop-color="#4E2727"/>
<stop offset="0.62" stop-color="#321919"/>
<stop offset="0.69" stop-color="#1C0E0E"/>
<stop offset="0.77" stop-color="#0C0606"/>
<stop offset="0.86" stop-color="#030101"/>
<stop offset="0.99"/>
</radialGradient>
<radialGradient id="paint10_radial_141_5031" cx="0" cy="0" r="1" gradientUnits="userSpaceOnUse" gradientTransform="translate(155.16 172.711) scale(171.262 171.262)">
<stop stop-color="white"/>
<stop offset="0.09" stop-color="#F7F9FC"/>
<stop offset="0.12" stop-color="#F3F6FA"/>
<stop offset="0.34" stop-color="#E17171"/>
<stop offset="0.36" stop-color="#CA6666"/>
<stop offset="0.42" stop-color="#9B4E4E"/>
<stop offset="0.48" stop-color="#723939"/>
<stop offset="0.55" stop-color="#4E2727"/>
<stop offset="0.62" stop-color="#321919"/>
<stop offset="0.69" stop-color="#1C0E0E"/>
<stop offset="0.77" stop-color="#0C0606"/>
<stop offset="0.86" stop-color="#030101"/>
<stop offset="0.99"/>
</radialGradient>
<radialGradient id="paint11_radial_141_5031" cx="0" cy="0" r="1" gradientUnits="userSpaceOnUse" gradientTransform="translate(155.16 172.711) scale(171.261 171.262)">
<stop stop-color="white"/>
<stop offset="0.09" stop-color="#F7F9FC"/>
<stop offset="0.12" stop-color="#F3F6FA"/>
<stop offset="0.34" stop-color="#E17171"/>
<stop offset="0.36" stop-color="#CA6666"/>
<stop offset="0.42" stop-color="#9B4E4E"/>
<stop offset="0.48" stop-color="#723939"/>
<stop offset="0.55" stop-color="#4E2727"/>
<stop offset="0.62" stop-color="#321919"/>
<stop offset="0.69" stop-color="#1C0E0E"/>
<stop offset="0.77" stop-color="#0C0606"/>
<stop offset="0.86" stop-color="#030101"/>
<stop offset="0.99"/>
</radialGradient>
<radialGradient id="paint12_radial_141_5031" cx="0" cy="0" r="1" gradientUnits="userSpaceOnUse" gradientTransform="translate(146.298 172.711) scale(162.939 162.939)">
<stop stop-color="white"/>
<stop offset="0.09" stop-color="#F7F9FC"/>
<stop offset="0.12" stop-color="#F3F6FA"/>
<stop offset="0.34" stop-color="#E17171"/>
<stop offset="0.36" stop-color="#CA6666"/>
<stop offset="0.42" stop-color="#9B4E4E"/>
<stop offset="0.48" stop-color="#723939"/>
<stop offset="0.55" stop-color="#4E2727"/>
<stop offset="0.62" stop-color="#321919"/>
<stop offset="0.69" stop-color="#1C0E0E"/>
<stop offset="0.77" stop-color="#0C0606"/>
<stop offset="0.86" stop-color="#030101"/>
<stop offset="0.99"/>
</radialGradient>
<radialGradient id="paint13_radial_141_5031" cx="0" cy="0" r="1" gradientUnits="userSpaceOnUse" gradientTransform="translate(146.298 172.711) scale(162.939 162.939)">
<stop stop-color="white"/>
<stop offset="0.09" stop-color="#F7F9FC"/>
<stop offset="0.12" stop-color="#F3F6FA"/>
<stop offset="0.34" stop-color="#E17171"/>
<stop offset="0.36" stop-color="#CA6666"/>
<stop offset="0.42" stop-color="#9B4E4E"/>
<stop offset="0.48" stop-color="#723939"/>
<stop offset="0.55" stop-color="#4E2727"/>
<stop offset="0.62" stop-color="#321919"/>
<stop offset="0.69" stop-color="#1C0E0E"/>
<stop offset="0.77" stop-color="#0C0606"/>
<stop offset="0.86" stop-color="#030101"/>
<stop offset="0.99"/>
</radialGradient>
<radialGradient id="paint14_radial_141_5031" cx="0" cy="0" r="1" gradientUnits="userSpaceOnUse" gradientTransform="translate(146.298 172.711) scale(162.939 162.939)">
<stop stop-color="white"/>
<stop offset="0.09" stop-color="#F7F9FC"/>
<stop offset="0.12" stop-color="#F3F6FA"/>
<stop offset="0.34" stop-color="#E17171"/>
<stop offset="0.36" stop-color="#CA6666"/>
<stop offset="0.42" stop-color="#9B4E4E"/>
<stop offset="0.48" stop-color="#723939"/>
<stop offset="0.55" stop-color="#4E2727"/>
<stop offset="0.62" stop-color="#321919"/>
<stop offset="0.69" stop-color="#1C0E0E"/>
<stop offset="0.77" stop-color="#0C0606"/>
<stop offset="0.86" stop-color="#030101"/>
<stop offset="0.99"/>
</radialGradient>
<radialGradient id="paint15_radial_141_5031" cx="0" cy="0" r="1" gradientUnits="userSpaceOnUse" gradientTransform="translate(139.492 164.53) scale(175.515 175.515)">
<stop stop-color="white"/>
<stop offset="0.09" stop-color="#F7F9FC"/>
<stop offset="0.12" stop-color="#F3F6FA"/>
<stop offset="0.34" stop-color="#E17171"/>
<stop offset="0.36" stop-color="#CA6666"/>
<stop offset="0.42" stop-color="#9B4E4E"/>
<stop offset="0.48" stop-color="#723939"/>
<stop offset="0.55" stop-color="#4E2727"/>
<stop offset="0.62" stop-color="#321919"/>
<stop offset="0.69" stop-color="#1C0E0E"/>
<stop offset="0.77" stop-color="#0C0606"/>
<stop offset="0.86" stop-color="#030101"/>
<stop offset="0.99"/>
</radialGradient>
<radialGradient id="paint16_radial_141_5031" cx="0" cy="0" r="1" gradientUnits="userSpaceOnUse" gradientTransform="translate(139.492 164.53) scale(175.501 175.501)">
<stop stop-color="white"/>
<stop offset="0.09" stop-color="#F7F9FC"/>
<stop offset="0.12" stop-color="#F3F6FA"/>
<stop offset="0.34" stop-color="#E17171"/>
<stop offset="0.36" stop-color="#CA6666"/>
<stop offset="0.42" stop-color="#9B4E4E"/>
<stop offset="0.48" stop-color="#723939"/>
<stop offset="0.55" stop-color="#4E2727"/>
<stop offset="0.62" stop-color="#321919"/>
<stop offset="0.69" stop-color="#1C0E0E"/>
<stop offset="0.77" stop-color="#0C0606"/>
<stop offset="0.86" stop-color="#030101"/>
<stop offset="0.99"/>
</radialGradient>
<radialGradient id="paint17_radial_141_5031" cx="0" cy="0" r="1" gradientUnits="userSpaceOnUse" gradientTransform="translate(139.493 164.53) scale(175.516 175.516)">
<stop stop-color="white"/>
<stop offset="0.09" stop-color="#F7F9FC"/>
<stop offset="0.12" stop-color="#F3F6FA"/>
<stop offset="0.34" stop-color="#E17171"/>
<stop offset="0.36" stop-color="#CA6666"/>
<stop offset="0.42" stop-color="#9B4E4E"/>
<stop offset="0.48" stop-color="#723939"/>
<stop offset="0.55" stop-color="#4E2727"/>
<stop offset="0.62" stop-color="#321919"/>
<stop offset="0.69" stop-color="#1C0E0E"/>
<stop offset="0.77" stop-color="#0C0606"/>
<stop offset="0.86" stop-color="#030101"/>
<stop offset="0.99"/>
</radialGradient>
<radialGradient id="paint18_radial_141_5031" cx="0" cy="0" r="1" gradientUnits="userSpaceOnUse" gradientTransform="translate(144.257 161.808) scale(205.276 205.276)">
<stop stop-color="white"/>
<stop offset="0.09" stop-color="#F7F9FC"/>
<stop offset="0.12" stop-color="#F3F6FA"/>
<stop offset="0.34" stop-color="#E17171"/>
<stop offset="0.36" stop-color="#CA6666"/>
<stop offset="0.42" stop-color="#9B4E4E"/>
<stop offset="0.48" stop-color="#723939"/>
<stop offset="0.55" stop-color="#4E2727"/>
<stop offset="0.62" stop-color="#321919"/>
<stop offset="0.69" stop-color="#1C0E0E"/>
<stop offset="0.77" stop-color="#0C0606"/>
<stop offset="0.86" stop-color="#030101"/>
<stop offset="0.99"/>
</radialGradient>
<radialGradient id="paint19_radial_141_5031" cx="0" cy="0" r="1" gradientUnits="userSpaceOnUse" gradientTransform="translate(144.256 161.808) scale(205.276 205.276)">
<stop stop-color="white"/>
<stop offset="0.09" stop-color="#F7F9FC"/>
<stop offset="0.12" stop-color="#F3F6FA"/>
<stop offset="0.34" stop-color="#E17171"/>
<stop offset="0.36" stop-color="#CA6666"/>
<stop offset="0.42" stop-color="#9B4E4E"/>
<stop offset="0.48" stop-color="#723939"/>
<stop offset="0.55" stop-color="#4E2727"/>
<stop offset="0.62" stop-color="#321919"/>
<stop offset="0.69" stop-color="#1C0E0E"/>
<stop offset="0.77" stop-color="#0C0606"/>
<stop offset="0.86" stop-color="#030101"/>
<stop offset="0.99"/>
</radialGradient>
<radialGradient id="paint20_radial_141_5031" cx="0" cy="0" r="1" gradientUnits="userSpaceOnUse" gradientTransform="translate(144.256 161.794) scale(205.261 205.258)">
<stop stop-color="white"/>
<stop offset="0.09" stop-color="#F7F9FC"/>
<stop offset="0.12" stop-color="#F3F6FA"/>
<stop offset="0.34" stop-color="#E17171"/>
<stop offset="0.36" stop-color="#CA6666"/>
<stop offset="0.42" stop-color="#9B4E4E"/>
<stop offset="0.48" stop-color="#723939"/>
<stop offset="0.55" stop-color="#4E2727"/>
<stop offset="0.62" stop-color="#321919"/>
<stop offset="0.69" stop-color="#1C0E0E"/>
<stop offset="0.77" stop-color="#0C0606"/>
<stop offset="0.86" stop-color="#030101"/>
<stop offset="0.99"/>
</radialGradient>
<radialGradient id="paint21_radial_141_5031" cx="0" cy="0" r="1" gradientUnits="userSpaceOnUse" gradientTransform="translate(146.979 147.488) scale(172.807 172.807)">
<stop stop-color="white"/>
<stop offset="0.09" stop-color="#F7F9FC"/>
<stop offset="0.12" stop-color="#F3F6FA"/>
<stop offset="0.34" stop-color="#E17171"/>
<stop offset="0.36" stop-color="#CA6666"/>
<stop offset="0.42" stop-color="#9B4E4E"/>
<stop offset="0.48" stop-color="#723939"/>
<stop offset="0.55" stop-color="#4E2727"/>
<stop offset="0.62" stop-color="#321919"/>
<stop offset="0.69" stop-color="#1C0E0E"/>
<stop offset="0.77" stop-color="#0C0606"/>
<stop offset="0.86" stop-color="#030101"/>
<stop offset="0.99"/>
</radialGradient>
<radialGradient id="paint22_radial_141_5031" cx="0" cy="0" r="1" gradientUnits="userSpaceOnUse" gradientTransform="translate(146.979 147.488) scale(172.807 172.807)">
<stop stop-color="white"/>
<stop offset="0.09" stop-color="#F7F9FC"/>
<stop offset="0.12" stop-color="#F3F6FA"/>
<stop offset="0.34" stop-color="#E17171"/>
<stop offset="0.36" stop-color="#CA6666"/>
<stop offset="0.42" stop-color="#9B4E4E"/>
<stop offset="0.48" stop-color="#723939"/>
<stop offset="0.55" stop-color="#4E2727"/>
<stop offset="0.62" stop-color="#321919"/>
<stop offset="0.69" stop-color="#1C0E0E"/>
<stop offset="0.77" stop-color="#0C0606"/>
<stop offset="0.86" stop-color="#030101"/>
<stop offset="0.99"/>
</radialGradient>
<radialGradient id="paint23_radial_141_5031" cx="0" cy="0" r="1" gradientUnits="userSpaceOnUse" gradientTransform="translate(146.979 147.488) scale(172.807 172.807)">
<stop stop-color="white"/>
<stop offset="0.09" stop-color="#F7F9FC"/>
<stop offset="0.12" stop-color="#F3F6FA"/>
<stop offset="0.34" stop-color="#E17171"/>
<stop offset="0.36" stop-color="#CA6666"/>
<stop offset="0.42" stop-color="#9B4E4E"/>
<stop offset="0.48" stop-color="#723939"/>
<stop offset="0.55" stop-color="#4E2727"/>
<stop offset="0.62" stop-color="#321919"/>
<stop offset="0.69" stop-color="#1C0E0E"/>
<stop offset="0.77" stop-color="#0C0606"/>
<stop offset="0.86" stop-color="#030101"/>
<stop offset="0.99"/>
</radialGradient>
<radialGradient id="paint24_radial_141_5031" cx="0" cy="0" r="1" gradientUnits="userSpaceOnUse" gradientTransform="translate(146.979 140.668) scale(140.424 140.423)">
<stop stop-color="white"/>
<stop offset="0.09" stop-color="#F7F9FC"/>
<stop offset="0.12" stop-color="#F3F6FA"/>
<stop offset="0.34" stop-color="#E17171"/>
<stop offset="0.36" stop-color="#CA6666"/>
<stop offset="0.42" stop-color="#9B4E4E"/>
<stop offset="0.48" stop-color="#723939"/>
<stop offset="0.55" stop-color="#4E2727"/>
<stop offset="0.62" stop-color="#321919"/>
<stop offset="0.69" stop-color="#1C0E0E"/>
<stop offset="0.77" stop-color="#0C0606"/>
<stop offset="0.86" stop-color="#030101"/>
<stop offset="0.99"/>
</radialGradient>
<radialGradient id="paint25_radial_141_5031" cx="0" cy="0" r="1" gradientUnits="userSpaceOnUse" gradientTransform="translate(146.979 140.668) scale(140.424 140.424)">
<stop stop-color="white"/>
<stop offset="0.09" stop-color="#F7F9FC"/>
<stop offset="0.12" stop-color="#F3F6FA"/>
<stop offset="0.34" stop-color="#E17171"/>
<stop offset="0.36" stop-color="#CA6666"/>
<stop offset="0.42" stop-color="#9B4E4E"/>
<stop offset="0.48" stop-color="#723939"/>
<stop offset="0.55" stop-color="#4E2727"/>
<stop offset="0.62" stop-color="#321919"/>
<stop offset="0.69" stop-color="#1C0E0E"/>
<stop offset="0.77" stop-color="#0C0606"/>
<stop offset="0.86" stop-color="#030101"/>
<stop offset="0.99"/>
</radialGradient>
<radialGradient id="paint26_radial_141_5031" cx="0" cy="0" r="1" gradientUnits="userSpaceOnUse" gradientTransform="translate(146.979 140.668) scale(140.424 140.423)">
<stop stop-color="white"/>
<stop offset="0.09" stop-color="#F7F9FC"/>
<stop offset="0.12" stop-color="#F3F6FA"/>
<stop offset="0.34" stop-color="#E17171"/>
<stop offset="0.36" stop-color="#CA6666"/>
<stop offset="0.42" stop-color="#9B4E4E"/>
<stop offset="0.48" stop-color="#723939"/>
<stop offset="0.55" stop-color="#4E2727"/>
<stop offset="0.62" stop-color="#321919"/>
<stop offset="0.69" stop-color="#1C0E0E"/>
<stop offset="0.77" stop-color="#0C0606"/>
<stop offset="0.86" stop-color="#030101"/>
<stop offset="0.99"/>
</radialGradient>
<radialGradient id="paint27_radial_141_5031" cx="0" cy="0" r="1" gradientUnits="userSpaceOnUse" gradientTransform="translate(161.98 148.849) scale(143.146 143.146)">
<stop stop-color="white"/>
<stop offset="0.09" stop-color="#F7F9FC"/>
<stop offset="0.12" stop-color="#F3F6FA"/>
<stop offset="0.34" stop-color="#E17171"/>
<stop offset="0.36" stop-color="#CA6666"/>
<stop offset="0.42" stop-color="#9B4E4E"/>
<stop offset="0.48" stop-color="#723939"/>
<stop offset="0.55" stop-color="#4E2727"/>
<stop offset="0.62" stop-color="#321919"/>
<stop offset="0.69" stop-color="#1C0E0E"/>
<stop offset="0.77" stop-color="#0C0606"/>
<stop offset="0.86" stop-color="#030101"/>
<stop offset="0.99"/>
</radialGradient>
<radialGradient id="paint28_radial_141_5031" cx="0" cy="0" r="1" gradientUnits="userSpaceOnUse" gradientTransform="translate(161.979 148.849) scale(143.145 143.146)">
<stop stop-color="white"/>
<stop offset="0.09" stop-color="#F7F9FC"/>
<stop offset="0.12" stop-color="#F3F6FA"/>
<stop offset="0.34" stop-color="#E17171"/>
<stop offset="0.36" stop-color="#CA6666"/>
<stop offset="0.42" stop-color="#9B4E4E"/>
<stop offset="0.48" stop-color="#723939"/>
<stop offset="0.55" stop-color="#4E2727"/>
<stop offset="0.62" stop-color="#321919"/>
<stop offset="0.69" stop-color="#1C0E0E"/>
<stop offset="0.77" stop-color="#0C0606"/>
<stop offset="0.86" stop-color="#030101"/>
<stop offset="0.99"/>
</radialGradient>
<radialGradient id="paint29_radial_141_5031" cx="0" cy="0" r="1" gradientUnits="userSpaceOnUse" gradientTransform="translate(161.98 148.849) scale(143.146 143.146)">
<stop stop-color="white"/>
<stop offset="0.09" stop-color="#F7F9FC"/>
<stop offset="0.12" stop-color="#F3F6FA"/>
<stop offset="0.34" stop-color="#E17171"/>
<stop offset="0.36" stop-color="#CA6666"/>
<stop offset="0.42" stop-color="#9B4E4E"/>
<stop offset="0.48" stop-color="#723939"/>
<stop offset="0.55" stop-color="#4E2727"/>
<stop offset="0.62" stop-color="#321919"/>
<stop offset="0.69" stop-color="#1C0E0E"/>
<stop offset="0.77" stop-color="#0C0606"/>
<stop offset="0.86" stop-color="#030101"/>
<stop offset="0.99"/>
</radialGradient>
<radialGradient id="paint30_radial_141_5031" cx="0" cy="0" r="1" gradientUnits="userSpaceOnUse" gradientTransform="translate(166.758 148.169) scale(155.58 155.58)">
<stop stop-color="white"/>
<stop offset="0.09" stop-color="#F7F9FC"/>
<stop offset="0.12" stop-color="#F3F6FA"/>
<stop offset="0.34" stop-color="#E17171"/>
<stop offset="0.36" stop-color="#CA6666"/>
<stop offset="0.42" stop-color="#9B4E4E"/>
<stop offset="0.48" stop-color="#723939"/>
<stop offset="0.55" stop-color="#4E2727"/>
<stop offset="0.62" stop-color="#321919"/>
<stop offset="0.69" stop-color="#1C0E0E"/>
<stop offset="0.77" stop-color="#0C0606"/>
<stop offset="0.86" stop-color="#030101"/>
<stop offset="0.99"/>
</radialGradient>
<radialGradient id="paint31_radial_141_5031" cx="0" cy="0" r="1" gradientUnits="userSpaceOnUse" gradientTransform="translate(166.758 148.168) scale(155.58 155.58)">
<stop stop-color="white"/>
<stop offset="0.09" stop-color="#F7F9FC"/>
<stop offset="0.12" stop-color="#F3F6FA"/>
<stop offset="0.34" stop-color="#E17171"/>
<stop offset="0.36" stop-color="#CA6666"/>
<stop offset="0.42" stop-color="#9B4E4E"/>
<stop offset="0.48" stop-color="#723939"/>
<stop offset="0.55" stop-color="#4E2727"/>
<stop offset="0.62" stop-color="#321919"/>
<stop offset="0.69" stop-color="#1C0E0E"/>
<stop offset="0.77" stop-color="#0C0606"/>
<stop offset="0.86" stop-color="#030101"/>
<stop offset="0.99"/>
</radialGradient>
<radialGradient id="paint32_radial_141_5031" cx="0" cy="0" r="1" gradientUnits="userSpaceOnUse" gradientTransform="translate(166.758 148.169) scale(155.58 155.58)">
<stop stop-color="white"/>
<stop offset="0.09" stop-color="#F7F9FC"/>
<stop offset="0.12" stop-color="#F3F6FA"/>
<stop offset="0.34" stop-color="#E17171"/>
<stop offset="0.36" stop-color="#CA6666"/>
<stop offset="0.42" stop-color="#9B4E4E"/>
<stop offset="0.48" stop-color="#723939"/>
<stop offset="0.55" stop-color="#4E2727"/>
<stop offset="0.62" stop-color="#321919"/>
<stop offset="0.69" stop-color="#1C0E0E"/>
<stop offset="0.77" stop-color="#0C0606"/>
<stop offset="0.86" stop-color="#030101"/>
<stop offset="0.99"/>
</radialGradient>
<radialGradient id="paint33_radial_141_5031" cx="0" cy="0" r="1" gradientUnits="userSpaceOnUse" gradientTransform="translate(166.077 149.53) scale(145.868 145.868)">
<stop stop-color="white"/>
<stop offset="0.09" stop-color="#F7F9FC"/>
<stop offset="0.12" stop-color="#F3F6FA"/>
<stop offset="0.34" stop-color="#E17171"/>
<stop offset="0.36" stop-color="#CA6666"/>
<stop offset="0.42" stop-color="#9B4E4E"/>
<stop offset="0.48" stop-color="#723939"/>
<stop offset="0.55" stop-color="#4E2727"/>
<stop offset="0.62" stop-color="#321919"/>
<stop offset="0.69" stop-color="#1C0E0E"/>
<stop offset="0.77" stop-color="#0C0606"/>
<stop offset="0.86" stop-color="#030101"/>
<stop offset="0.99"/>
</radialGradient>
<radialGradient id="paint34_radial_141_5031" cx="0" cy="0" r="1" gradientUnits="userSpaceOnUse" gradientTransform="translate(166.063 149.53) scale(145.882 145.882)">
<stop stop-color="white"/>
<stop offset="0.09" stop-color="#F7F9FC"/>
<stop offset="0.12" stop-color="#F3F6FA"/>
<stop offset="0.34" stop-color="#E17171"/>
<stop offset="0.36" stop-color="#CA6666"/>
<stop offset="0.42" stop-color="#9B4E4E"/>
<stop offset="0.48" stop-color="#723939"/>
<stop offset="0.55" stop-color="#4E2727"/>
<stop offset="0.62" stop-color="#321919"/>
<stop offset="0.69" stop-color="#1C0E0E"/>
<stop offset="0.77" stop-color="#0C0606"/>
<stop offset="0.86" stop-color="#030101"/>
<stop offset="0.99"/>
</radialGradient>
<radialGradient id="paint35_radial_141_5031" cx="0" cy="0" r="1" gradientUnits="userSpaceOnUse" gradientTransform="translate(166.077 149.53) scale(145.882 145.882)">
<stop stop-color="white"/>
<stop offset="0.09" stop-color="#F7F9FC"/>
<stop offset="0.12" stop-color="#F3F6FA"/>
<stop offset="0.34" stop-color="#E17171"/>
<stop offset="0.36" stop-color="#CA6666"/>
<stop offset="0.42" stop-color="#9B4E4E"/>
<stop offset="0.48" stop-color="#723939"/>
<stop offset="0.55" stop-color="#4E2727"/>
<stop offset="0.62" stop-color="#321919"/>
<stop offset="0.69" stop-color="#1C0E0E"/>
<stop offset="0.77" stop-color="#0C0606"/>
<stop offset="0.86" stop-color="#030101"/>
<stop offset="0.99"/>
</radialGradient>
<radialGradient id="paint36_radial_141_5031" cx="0" cy="0" r="1" gradientUnits="userSpaceOnUse" gradientTransform="translate(170.841 154.308) scale(160.146 160.146)">
<stop stop-color="white"/>
<stop offset="0.09" stop-color="#F7F9FC"/>
<stop offset="0.12" stop-color="#F3F6FA"/>
<stop offset="0.34" stop-color="#E17171"/>
<stop offset="0.36" stop-color="#CA6666"/>
<stop offset="0.42" stop-color="#9B4E4E"/>
<stop offset="0.48" stop-color="#723939"/>
<stop offset="0.55" stop-color="#4E2727"/>
<stop offset="0.62" stop-color="#321919"/>
<stop offset="0.69" stop-color="#1C0E0E"/>
<stop offset="0.77" stop-color="#0C0606"/>
<stop offset="0.86" stop-color="#030101"/>
<stop offset="0.99"/>
</radialGradient>
<radialGradient id="paint37_radial_141_5031" cx="0" cy="0" r="1" gradientUnits="userSpaceOnUse" gradientTransform="translate(170.841 154.308) scale(160.146 160.142)">
<stop stop-color="white"/>
<stop offset="0.09" stop-color="#F7F9FC"/>
<stop offset="0.12" stop-color="#F3F6FA"/>
<stop offset="0.34" stop-color="#E17171"/>
<stop offset="0.36" stop-color="#CA6666"/>
<stop offset="0.42" stop-color="#9B4E4E"/>
<stop offset="0.48" stop-color="#723939"/>
<stop offset="0.55" stop-color="#4E2727"/>
<stop offset="0.62" stop-color="#321919"/>
<stop offset="0.69" stop-color="#1C0E0E"/>
<stop offset="0.77" stop-color="#0C0606"/>
<stop offset="0.86" stop-color="#030101"/>
<stop offset="0.99"/>
</radialGradient>
<radialGradient id="paint38_radial_141_5031" cx="0" cy="0" r="1" gradientUnits="userSpaceOnUse" gradientTransform="translate(170.841 154.308) scale(160.146 160.145)">
<stop stop-color="white"/>
<stop offset="0.09" stop-color="#F7F9FC"/>
<stop offset="0.12" stop-color="#F3F6FA"/>
<stop offset="0.34" stop-color="#E17171"/>
<stop offset="0.36" stop-color="#CA6666"/>
<stop offset="0.42" stop-color="#9B4E4E"/>
<stop offset="0.48" stop-color="#723939"/>
<stop offset="0.55" stop-color="#4E2727"/>
<stop offset="0.62" stop-color="#321919"/>
<stop offset="0.69" stop-color="#1C0E0E"/>
<stop offset="0.77" stop-color="#0C0606"/>
<stop offset="0.86" stop-color="#030101"/>
<stop offset="0.99"/>
</radialGradient>
<radialGradient id="paint39_radial_141_5031" cx="0" cy="0" r="1" gradientUnits="userSpaceOnUse" gradientTransform="translate(157.702 158.416) scale(90.1751 90.1751)">
<stop stop-color="white"/>
<stop offset="0.09" stop-color="#F7F9FC"/>
<stop offset="0.12" stop-color="#F3F6FA"/>
<stop offset="0.43" stop-color="#E17171"/>
<stop offset="0.45" stop-color="#CA6666"/>
<stop offset="0.5" stop-color="#9B4E4E"/>
<stop offset="0.55" stop-color="#723939"/>
<stop offset="0.61" stop-color="#4E2727"/>
<stop offset="0.67" stop-color="#321919"/>
<stop offset="0.73" stop-color="#1C0E0E"/>
<stop offset="0.8" stop-color="#0C0606"/>
<stop offset="0.88" stop-color="#030101"/>
<stop offset="0.99"/>
</radialGradient>
<radialGradient id="paint40_radial_141_5031" cx="0" cy="0" r="1" gradientUnits="userSpaceOnUse" gradientTransform="translate(157.799 158.424) scale(134.185 134.185)">
<stop offset="0.13" stop-color="#E17171"/>
<stop offset="0.16" stop-color="#D46A6A"/>
<stop offset="0.28" stop-color="#9C4E4E"/>
<stop offset="0.41" stop-color="#6C3636"/>
<stop offset="0.53" stop-color="#452323"/>
<stop offset="0.65" stop-color="#271414"/>
<stop offset="0.77" stop-color="#110909"/>
<stop offset="0.88" stop-color="#040202"/>
<stop offset="0.99"/>
</radialGradient>
</defs>
</svg>
