<svg width="492" height="452" viewBox="0 0 492 452" fill="none" xmlns="http://www.w3.org/2000/svg">
<g style="mix-blend-mode:screen">
<path d="M350.718 426.599C346.308 410.662 341.402 394.896 335.929 379.172C345.032 394.229 354.503 409.613 364.286 425.45C366.314 428.74 365.109 432.001 361.451 432.738C359.501 433.016 357.512 432.725 355.724 431.9C353.936 431.075 352.424 429.751 351.37 428.087C351.096 427.618 350.877 427.118 350.718 426.599Z" fill="url(#paint0_radial_141_6035)"/>
<path d="M283.71 356.401C281.13 342.223 278.072 328.162 274.537 314.22C280.378 327.794 286.673 341.471 293.422 355.253C294.925 358.315 294.06 361.392 291.409 362.186C288.758 362.98 285.44 360.938 284.164 357.932C283.954 357.441 283.802 356.927 283.71 356.401V356.401Z" fill="url(#paint1_radial_141_6035)"/>
<path d="M310.281 431.675C308.05 414.349 305.252 397.06 301.887 379.81C309.628 396.824 317.895 413.937 326.614 431.49C328.231 434.723 325.976 437.658 321.496 438.097C317.016 438.537 312.067 436.127 310.65 432.965C310.47 432.553 310.346 432.119 310.281 431.675Z" fill="url(#paint2_radial_141_6035)"/>
<path d="M272.197 402.453C272.637 392.159 272.722 381.908 272.41 371.53C275.889 381.625 279.721 391.767 283.909 401.957C284.234 402.628 284.398 403.367 284.389 404.113C284.38 404.859 284.198 405.593 283.857 406.257C283.516 406.921 283.026 407.496 282.425 407.939C281.824 408.381 281.128 408.677 280.393 408.805C278.787 409.149 277.112 408.909 275.668 408.13C274.223 407.35 273.103 406.082 272.509 404.551C272.274 403.878 272.168 403.166 272.197 402.453Z" fill="url(#paint3_radial_141_6035)"/>
<path d="M257.026 445.414C257.296 428.612 257.026 411.839 256.077 394.924C261.323 411.607 267.135 428.418 273.516 445.357C274.721 448.49 271.999 451.283 267.391 451.666C266.255 451.758 265.111 451.705 263.988 451.51C262.924 451.307 261.894 450.959 260.925 450.475C260.086 450.119 259.326 449.599 258.688 448.947C258.05 448.295 257.548 447.523 257.211 446.676C257.089 446.266 257.027 445.841 257.026 445.414V445.414Z" fill="url(#paint4_radial_141_6035)"/>
<path d="M238.821 378.278C240.877 359.067 242.253 339.741 242.961 320.501C243.907 330.114 244.998 339.737 246.236 349.369C247.498 358.996 248.93 368.651 250.49 378.222C250.616 378.95 250.584 379.696 250.395 380.411C250.207 381.125 249.867 381.791 249.399 382.362C248.897 382.941 248.285 383.415 247.599 383.756C246.912 384.096 246.165 384.297 245.4 384.347C244.636 384.457 243.858 384.415 243.111 384.224C242.364 384.032 241.661 383.695 241.045 383.231C240.428 382.767 239.909 382.186 239.518 381.521C239.127 380.856 238.871 380.12 238.765 379.356C238.748 378.996 238.767 378.635 238.821 378.278V378.278Z" fill="url(#paint5_radial_141_6035)"/>
<path d="M211.655 444.109C214.902 424.827 217.454 405.402 219.34 386.091C220.834 395.798 222.526 405.478 224.416 415.128C226.273 424.826 228.301 434.553 230.484 444.208C230.623 445.003 230.519 445.82 230.185 446.554C229.851 447.288 229.303 447.903 228.613 448.32C226.689 449.538 224.466 450.2 222.19 450.234C216.873 450.475 212.138 448.32 211.684 445.187C211.618 444.831 211.608 444.468 211.655 444.109V444.109Z" fill="url(#paint6_radial_141_6035)"/>
<path d="M204.353 360.726C209.344 345.838 213.825 331.036 217.795 316.319C218.036 331.277 218.815 346.093 220.106 360.91C220.14 361.715 219.975 362.516 219.623 363.241C219.272 363.966 218.746 364.593 218.092 365.064C216.46 366.326 214.481 367.058 212.421 367.163C207.884 367.446 204.126 365.234 204.098 362.129C204.111 361.651 204.197 361.178 204.353 360.726Z" fill="url(#paint7_radial_141_6035)"/>
<path d="M168.936 435.446C177.178 418.063 184.924 400.955 192.174 384.12C190.766 392.712 189.509 401.314 188.403 409.925C187.297 418.517 186.347 427.067 185.567 435.645C185.415 436.522 185.076 437.357 184.572 438.091C184.068 438.825 183.411 439.441 182.646 439.898C181.745 440.499 180.768 440.976 179.74 441.316C178.632 441.67 177.484 441.884 176.323 441.954C171.502 442.238 168.028 439.941 168.553 436.736C168.614 436.289 168.743 435.854 168.936 435.446V435.446Z" fill="url(#paint8_radial_141_6035)"/>
<path d="M176.649 325.379C184.211 312.675 191.394 300.132 198.2 287.749C196.938 290.982 195.69 294.243 194.485 297.504C193.28 300.765 192.103 303.998 190.969 307.273C188.672 313.814 186.489 320.402 184.419 327.038C183.469 330.143 180.704 332.709 178.222 332.709C175.741 332.709 174.706 330.058 175.897 326.938C176.104 326.399 176.356 325.877 176.649 325.379V325.379Z" fill="url(#paint9_radial_141_6035)"/>
<path d="M158.231 387.154C164.848 376.974 171.157 366.94 177.159 357.053C176.379 359.676 175.628 362.328 174.891 364.965C174.154 367.602 173.473 370.225 172.778 372.862C171.36 378.151 170.127 383.44 168.922 388.771C168.473 390.419 167.532 391.891 166.225 392.991C164.918 394.09 163.306 394.765 161.605 394.924C160.898 394.98 160.187 394.857 159.539 394.568C158.891 394.279 158.326 393.832 157.894 393.268C157.463 392.704 157.18 392.041 157.07 391.34C156.961 390.639 157.028 389.921 157.267 389.253C157.478 388.508 157.803 387.8 158.231 387.154V387.154Z" fill="url(#paint10_radial_141_6035)"/>
<path d="M122.699 422.147C132.809 404.367 142.549 387.069 151.893 370.112C150.551 374.488 149.237 378.879 147.951 383.284C146.689 387.665 145.442 392.046 144.251 396.441C141.859 405.251 139.605 414.084 137.487 422.941C136.736 426.188 132.525 429.052 128.172 429.25C123.82 429.449 121.083 426.811 122.118 423.479C122.262 423.015 122.457 422.568 122.699 422.147V422.147Z" fill="url(#paint11_radial_141_6035)"/>
<path d="M139.104 332.964C146.335 324.117 153.509 315.468 160.627 307.018C167.716 298.51 174.805 290.287 181.753 282.12C169.332 299.134 157.522 317.226 146.307 336.098C144.449 339.245 141.089 341.358 138.735 340.847C138.185 340.733 137.694 340.426 137.351 339.981C137.008 339.537 136.835 338.984 136.864 338.423C136.871 336.86 137.367 335.338 138.282 334.07C138.536 333.687 138.811 333.318 139.104 332.964V332.964Z" fill="url(#paint12_radial_141_6035)"/>
<path d="M92.9814 409.443C98.804 401.276 104.622 393.279 110.435 385.453C116.22 377.612 122.005 369.927 127.79 362.328C119.368 378.477 111.442 395.137 104.026 412.179C103.253 413.923 102 415.411 100.414 416.471C98.8275 417.53 96.9726 418.117 95.0655 418.163C94.2976 418.13 93.5528 417.89 92.9104 417.468C92.347 417.058 91.91 416.498 91.6487 415.851C91.3841 415.063 91.2827 414.229 91.351 413.4C91.4192 412.572 91.6554 411.765 92.0454 411.031C92.3096 410.475 92.6229 409.943 92.9814 409.443V409.443Z" fill="url(#paint13_radial_141_6035)"/>
</g>
<g style="mix-blend-mode:screen">
<path d="M76.4491 370.069C92.7402 352.63 109.272 336.339 125.804 320.998C122.288 325.308 118.805 329.679 115.355 334.113C111.905 338.546 108.507 343.017 105.161 347.525C98.44 356.59 91.8565 365.877 85.41 375.386C83.0564 378.86 78.7178 380.972 75.868 379.937C73.0181 378.902 72.8765 375.003 75.3577 371.43C75.6937 370.955 76.0579 370.5 76.4491 370.069V370.069Z" fill="url(#paint14_radial_141_6035)"/>
<path d="M131.405 291.35C144.146 280.66 156.86 270.522 169.545 260.938C157.705 271.956 146.491 283.629 135.956 295.902C133.433 298.837 130.001 300.566 128.215 299.73C126.428 298.893 127.307 295.604 129.959 292.74C130.409 292.244 130.892 291.78 131.405 291.35V291.35Z" fill="url(#paint15_radial_141_6035)"/>
<path d="M74.6203 317.24C83.8553 308.61 93.227 300.373 102.736 292.527C112.245 284.682 121.858 277.205 131.575 270.097C112.639 286.514 95.0928 304.469 79.1148 323.777C76.4634 326.967 73.0465 328.384 71.4302 326.882C71.0173 326.367 70.7495 325.751 70.6548 325.098C70.5601 324.444 70.6416 323.778 70.8912 323.167C71.4001 321.349 72.3167 319.671 73.5711 318.261C73.9023 317.902 74.2525 317.561 74.6203 317.24V317.24Z" fill="url(#paint16_radial_141_6035)"/>
<path d="M105.771 241.853C119.552 237.004 133.915 232.694 148.433 229.093C133.673 234.545 119.437 241.322 105.898 249.34C102.637 251.282 99.6311 251.367 99.1207 249.425C99.0411 248.808 99.0922 248.181 99.2706 247.585C99.4489 246.989 99.7506 246.437 100.156 245.965C101.207 244.569 102.553 243.422 104.097 242.605C104.635 242.312 105.195 242.061 105.771 241.853Z" fill="url(#paint17_radial_141_6035)"/>
<path d="M44.8742 306.337C58.5011 293.156 73.2031 281.133 88.8275 270.395C72.6247 285.67 57.9949 302.532 45.1577 320.728C42.6481 324.244 40.3794 324.188 40.025 320.473C39.9097 318.242 40.1981 316.009 40.8758 313.88C41.5359 311.601 42.5656 309.445 43.924 307.5C44.2093 307.087 44.5272 306.699 44.8742 306.337Z" fill="url(#paint18_radial_141_6035)"/>
<path d="M94.5552 209.994C113.351 207.432 132.299 206.139 151.269 206.124C131.159 207.899 111.373 212.333 92.4284 219.309C89.2383 220.486 86.8988 219.437 87.1399 216.828C87.3809 214.219 90.3725 211.157 93.506 210.235C93.8493 210.129 94.2 210.049 94.5552 209.994V209.994Z" fill="url(#paint19_radial_141_6035)"/>
<path d="M48.9999 248.943C61.3061 243.536 73.9292 238.881 86.7996 235.005C72.098 243.578 58.4055 253.775 45.9797 265.404C43.3 267.927 41.4996 266.51 41.9533 262.072C42.407 257.634 45.1575 251.92 47.8372 249.694C48.1868 249.389 48.5784 249.136 48.9999 248.943V248.943Z" fill="url(#paint20_radial_141_6035)"/>
<path d="M30.582 212.674C43.287 209.537 56.1575 207.114 69.1332 205.415C61.3716 208.822 53.8537 212.759 46.6321 217.197C39.2086 221.742 32.1029 226.787 25.3644 232.297C24.1025 233.332 23.1807 233.219 22.7128 232.155C22.1936 230.247 22.2331 228.229 22.8264 226.342C24.0316 220.855 27.0799 214.886 29.5753 213.142C29.8816 212.929 30.222 212.771 30.582 212.674V212.674Z" fill="url(#paint21_radial_141_6035)"/>
<path d="M133.83 181.765C144.983 185.905 156.544 190.281 168.51 194.894C155.736 191.939 142.708 190.21 129.604 189.733C126.542 189.648 124.684 187.706 125.45 185.267C126.055 183.976 127.053 182.909 128.301 182.219C129.548 181.529 130.982 181.251 132.398 181.425C132.887 181.481 133.368 181.595 133.83 181.765V181.765Z" fill="url(#paint22_radial_141_6035)"/>
<path d="M85.1834 181.581C92.991 184.416 101.115 187.252 109.556 190.088C99.4965 190.321 89.4785 191.464 79.6252 193.505C76.6193 194.157 75.0175 191.973 76.0525 188.471C77.0876 184.969 80.5187 181.737 83.4395 181.382C84.0283 181.306 84.6268 181.374 85.1834 181.581V181.581Z" fill="url(#paint23_radial_141_6035)"/>
<path d="M29.3483 162.454C40.8329 163.744 53.154 165.29 66.2123 167.345C51.0288 169.88 36.2764 174.533 22.3868 181.169C19.7921 182.431 18.9698 179.255 20.6003 173.953C22.2308 168.65 25.8179 163.489 28.3701 162.61C28.6796 162.482 29.0145 162.429 29.3483 162.454V162.454Z" fill="url(#paint24_radial_141_6035)"/>
</g>
<g style="mix-blend-mode:screen">
<path d="M119.396 141.852C133.489 149.254 148.391 157.066 164.03 165.516C147.426 159.354 130.157 155.162 112.576 153.025C109.84 152.742 108.961 149.863 110.619 146.503C111.451 144.881 112.705 143.515 114.249 142.547C115.489 141.687 117.009 141.328 118.503 141.541C118.812 141.609 119.111 141.714 119.396 141.852Z" fill="url(#paint25_radial_141_6035)"/>
<path d="M53.0833 129.985C64.6529 134.636 77.187 139.485 90.5998 144.759C74.7251 144.462 58.9023 146.663 43.7115 151.281C41.3295 152.047 41.2585 147.765 43.6121 141.668C45.9658 135.572 50.0207 130.325 52.3601 129.914C52.6032 129.875 52.8525 129.899 53.0833 129.985Z" fill="url(#paint26_radial_141_6035)"/>
<path d="M90.8833 83.1394C94.9288 87.1661 99.1018 91.1645 103.403 95.1345C105.558 97.1336 107.756 99.1186 109.967 101.104C112.179 103.089 114.476 105.074 116.773 107.059C105.036 103.016 92.9092 100.207 80.5897 98.6791C78.0801 98.4097 78.094 94.4256 80.7029 89.8317C81.3348 88.7102 82.0655 87.6473 82.8864 86.6557C83.6432 85.7732 84.4837 84.966 85.396 84.2454C85.9948 83.6653 86.7106 83.2197 87.4954 82.9385C88.2803 82.6573 89.1163 82.547 89.9473 82.6148C90.3004 82.7032 90.6237 82.8843 90.8833 83.1394V83.1394Z" fill="url(#paint27_radial_141_6035)"/>
<path d="M147.03 114.97C153.788 125.746 161.01 136.422 168.694 146.999C163.836 142.443 158.916 138.119 153.935 134.026C148.953 129.933 143.892 126.034 138.75 122.329C136.467 120.727 136.268 117.437 138.367 114.956C140.465 112.475 144.038 112.12 146.151 113.949C146.488 114.248 146.784 114.592 147.03 114.97V114.97Z" fill="url(#paint28_radial_141_6035)"/>
<path d="M184.149 109.483C188.899 121.166 194.074 132.679 199.745 144.135C192.415 133.629 184.688 123.576 176.592 114.105C175.663 113.135 175.151 111.84 175.164 110.497C175.178 109.153 175.715 107.869 176.663 106.917C177.127 106.481 177.7 106.177 178.322 106.038C178.933 105.896 179.568 105.896 180.179 106.038C181.517 106.303 182.698 107.082 183.469 108.207C183.744 108.605 183.972 109.033 184.149 109.483V109.483Z" fill="url(#paint29_radial_141_6035)"/>
<path d="M136.24 39.4981C141.203 54.0027 146.704 68.2095 152.801 82.2604C143.157 71.3052 132.833 60.9676 121.891 51.3087C119.921 49.6073 121.381 45.1694 125.238 41.3838C126.926 39.7211 128.995 38.4948 131.264 37.8109C133.163 37.3004 134.78 37.4989 135.687 38.5056C135.948 38.7876 136.138 39.1279 136.24 39.4981V39.4981Z" fill="url(#paint30_radial_141_6035)"/>
<path d="M181.427 36.9177C185.68 55.2363 190.444 73.2996 196.002 91.3914C188.091 74.3772 179.555 57.7742 170.481 41.9652C169.063 39.4556 170.24 35.9394 173.317 34.1529C174.032 33.721 174.82 33.4231 175.642 33.2738C176.401 33.152 177.177 33.1809 177.925 33.3589C178.625 33.5164 179.282 33.8304 179.844 34.2772C180.406 34.7241 180.86 35.2923 181.172 35.9394C181.293 36.2548 181.379 36.583 181.427 36.9177Z" fill="url(#paint31_radial_141_6035)"/>
<path d="M225.465 77.624C226.883 95.9426 228.896 114.346 231.604 132.551C227.025 114.729 221.779 97.1052 215.923 79.8217C215.408 78.4882 215.44 77.0052 216.014 75.6958C216.588 74.3863 217.656 73.3568 218.985 72.8317C219.618 72.6007 220.293 72.5103 220.964 72.5666C221.635 72.6229 222.285 72.8247 222.87 73.1578C224.084 73.9213 224.953 75.1261 225.295 76.5181C225.379 76.882 225.436 77.2516 225.465 77.624V77.624Z" fill="url(#paint32_radial_141_6035)"/>
<path d="M207.203 4.13707C206.962 19.067 207.203 34.0678 208.096 48.8559C203.12 35.1454 197.618 21.6474 191.635 8.57485C190.373 5.85259 192.812 2.15205 197.165 0.464808C199.114 -0.330454 201.253 -0.53745 203.318 -0.130664C204.114 0.00447836 204.864 0.333951 205.503 0.828616C206.141 1.32328 206.647 1.96784 206.976 2.70503C207.136 3.16509 207.213 3.65004 207.203 4.13707V4.13707Z" fill="url(#paint33_radial_141_6035)"/>
<path d="M251.979 35.4431C250.372 43.7517 248.916 52.0697 247.612 60.3972C246.308 68.7247 245.149 77.1042 244.138 85.5356C241.52 68.8996 238.306 52.358 234.497 35.911C233.774 32.891 237.162 29.8568 242.125 29.3463C244.389 29.0693 246.686 29.443 248.746 30.4239C249.548 30.7729 250.258 31.3026 250.821 31.9716C251.385 32.6406 251.786 33.4308 251.993 34.2804C252.051 34.6662 252.046 35.0588 251.979 35.4431Z" fill="url(#paint34_radial_141_6035)"/>
</g>
<g style="mix-blend-mode:screen">
<path d="M263.861 95.815C260.132 105.329 256.771 114.998 253.765 124.753C253.567 114.431 253 104.024 252.064 93.7166C251.992 92.9762 252.082 92.2289 252.326 91.5264C252.571 90.8239 252.966 90.1829 253.482 89.6474C254.037 89.0913 254.702 88.6566 255.434 88.3711C256.166 88.0855 256.95 87.9551 257.735 87.9885C259.351 87.9717 260.913 88.5657 262.109 89.6515C263.305 90.7372 264.047 92.2347 264.187 93.8442C264.203 94.5158 264.092 95.1844 263.861 95.815Z" fill="url(#paint35_radial_141_6035)"/>
<path d="M280.861 11.3538C275.189 26.7611 270.137 42.452 265.704 58.4264C265.803 41.6391 265.307 24.7383 264.286 7.89428C264.073 4.80337 267.745 2.44972 272.523 3.17282C277.302 3.89593 281.187 7.05779 281.144 10.1487C281.118 10.5635 281.022 10.9709 280.861 11.3538V11.3538Z" fill="url(#paint36_radial_141_6035)"/>
<path d="M302.043 58.951C293.961 75.554 286.447 92.7383 279.669 110.362C281.895 101.104 283.923 91.9301 285.766 82.6007C287.609 73.2712 289.311 64.0127 290.842 54.6408C290.987 53.9084 291.288 53.2161 291.727 52.6117C292.165 52.0073 292.729 51.5051 293.38 51.1399C294.031 50.7746 294.753 50.5549 295.498 50.4959C296.242 50.437 296.99 50.5402 297.69 50.7984C300.98 51.8334 303.106 55.0519 302.383 57.9727C302.308 58.3109 302.194 58.6393 302.043 58.951Z" fill="url(#paint37_radial_141_6035)"/>
<path d="M321.411 94.5957C311.316 108.774 301.755 123.709 292.728 139.4C299.987 122.915 306.604 106.326 312.578 89.6332C312.79 88.9781 313.136 88.3744 313.595 87.861C314.054 87.3475 314.615 86.9354 315.243 86.6512C315.87 86.3669 316.55 86.2167 317.238 86.2102C317.927 86.2036 318.609 86.3409 319.241 86.6132C319.902 86.8841 320.49 87.3066 320.957 87.8467C321.422 88.3662 321.788 88.967 322.035 89.619C322.532 90.9389 322.486 92.4021 321.907 93.6882C321.772 94.0064 321.606 94.3104 321.411 94.5957Z" fill="url(#paint38_radial_141_6035)"/>
<path d="M343.983 29.5733C334.764 39.2021 326.087 49.3364 317.994 59.9293C322.465 46.6961 326.43 33.288 329.889 19.705C330.598 16.8693 334.568 16.4014 338.765 18.8968C339.291 19.1944 339.793 19.5309 340.268 19.9035C340.727 20.2732 341.167 20.6659 341.587 21.0803C342.357 21.8614 343.038 22.727 343.614 23.6608C344.112 24.3562 344.459 25.1482 344.633 25.9858C344.806 26.8234 344.802 27.688 344.621 28.524C344.487 28.9161 344.27 29.2743 343.983 29.5733V29.5733Z" fill="url(#paint39_radial_141_6035)"/>
<path d="M350.93 124.002C340.074 130.032 329.651 136.812 319.738 144.291C328.458 135.302 336.752 126.398 344.593 117.352C345.477 116.32 346.718 115.658 348.068 115.497C349.418 115.337 350.779 115.69 351.88 116.487C352.389 116.866 352.807 117.353 353.103 117.913C353.399 118.474 353.565 119.093 353.591 119.727C353.617 120.36 353.501 120.991 353.252 121.574C353.002 122.156 352.626 122.676 352.15 123.094C351.779 123.442 351.37 123.746 350.93 124.002Z" fill="url(#paint40_radial_141_6035)"/>
<path d="M357.693 75.8517C348.936 78.796 340.406 82.3786 332.172 86.5707C338.141 79.7366 343.728 72.8459 349.044 65.7567C350.632 63.6015 354.234 63.8993 357.141 66.5365C360.047 69.1737 360.841 73.0586 359.083 74.9444C358.702 75.3573 358.225 75.6691 357.693 75.8517V75.8517Z" fill="url(#paint41_radial_141_6035)"/>
<path d="M410.707 87.6198C397.438 90.5044 384.512 94.7816 372.141 100.38C381.839 90.7391 390.885 81.1261 399.35 71.3571C400.895 69.5281 405.021 71.584 408.481 76.1069C411.941 80.6298 413.231 85.7057 411.529 87.2087C411.293 87.4115 411.011 87.5527 410.707 87.6198V87.6198Z" fill="url(#paint42_radial_141_6035)"/>
<path d="M417.016 130.538C401.861 127.703 386.363 127.177 371.05 128.978C383.81 122.272 395.819 115.878 406.879 109.582C408.637 108.561 412.55 112.418 415.669 118.43C416.4 119.798 417.026 121.22 417.541 122.683C417.977 123.896 418.309 125.143 418.533 126.412C418.902 128.61 418.661 130.113 417.74 130.439C417.511 130.534 417.262 130.569 417.016 130.538Z" fill="url(#paint43_radial_141_6035)"/>
<path d="M375.02 157.874C357.193 159.233 339.586 162.673 322.559 168.125C339.006 161.036 354.83 154.528 369.887 148.687C372.397 147.694 375.828 148.999 377.629 151.636C378.039 152.23 378.341 152.893 378.522 153.592C378.658 154.19 378.658 154.81 378.522 155.407C378.358 155.976 378.044 156.49 377.612 156.894C377.18 157.299 376.647 157.579 376.069 157.704C375.725 157.792 375.374 157.849 375.02 157.874Z" fill="url(#paint44_radial_141_6035)"/>
<path d="M453.143 156.953C440.432 152.675 427.231 150.021 413.855 149.055C425.098 145.752 435.746 142.661 445.77 139.683C447.84 139.031 451.442 142.519 453.909 147.496C454.476 148.642 454.951 149.832 455.327 151.054C455.61 152.033 455.776 153.042 455.823 154.06C455.823 155.804 455.341 156.896 454.263 157.08C453.885 157.123 453.502 157.08 453.143 156.953V156.953Z" fill="url(#paint45_radial_141_6035)"/>
</g>
<g style="mix-blend-mode:screen">
<path d="M389 278.448C375.577 267.293 361.207 257.33 346.053 248.673C353.615 251.887 361.068 255.295 368.413 258.896C372.099 260.692 375.757 262.54 379.387 264.44C383.016 266.339 386.599 268.273 390.134 270.239C391.758 271.169 393.168 272.43 394.274 273.939C395.274 275.199 395.889 276.72 396.046 278.32C396.046 280.986 393.693 281.596 390.488 279.582C389.967 279.239 389.47 278.86 389 278.448V278.448Z" fill="url(#paint46_radial_141_6035)"/>
<path d="M401.25 314.872C392.311 304.493 382.786 294.632 372.723 285.339C383.385 292.116 393.75 299.163 403.916 306.606C405.492 307.801 406.801 309.313 407.758 311.044C408.226 311.865 408.602 312.735 408.878 313.639C409 314.047 409.09 314.464 409.147 314.887C409.19 315.259 409.19 315.635 409.147 316.007C408.878 318.842 406.212 319.169 403.178 316.758C402.48 316.189 401.834 315.558 401.25 314.872V314.872Z" fill="url(#paint47_radial_141_6035)"/>
<path d="M421.057 375.84C410.914 357.808 399.826 340.325 387.837 323.465C401.463 337.898 414.776 353.239 427.664 369.46C430.33 372.834 431.308 377.499 429.805 379.796C429.448 380.341 428.906 380.74 428.279 380.919C427.651 381.099 426.981 381.047 426.388 380.774C424.675 380.124 423.195 378.979 422.135 377.485C421.74 376.96 421.38 376.411 421.057 375.84V375.84Z" fill="url(#paint48_radial_141_6035)"/>
<path d="M364.91 316.999C354.834 302.509 344.285 288.803 333.264 275.882C336.412 278.831 339.559 281.794 342.721 284.814C345.883 287.834 349.002 290.84 352.15 293.902C358.455 300.028 364.764 306.304 371.078 312.731C373.914 315.567 375.091 319.296 373.673 320.941C372.255 322.586 368.795 321.437 366.101 318.53C365.675 318.044 365.277 317.532 364.91 316.999V316.999Z" fill="url(#paint49_radial_141_6035)"/>
<path d="M327.649 318.417C319.284 305.184 310.512 292.551 301.334 280.518C311.94 291.733 322.758 303.204 333.788 315.198C336.383 318.034 337.361 321.409 335.958 322.798C334.554 324.188 331.208 322.798 328.77 319.963C328.36 319.474 327.986 318.958 327.649 318.417Z" fill="url(#paint50_radial_141_6035)"/>
<path d="M379.458 390.316C370.497 370.466 360.912 351.264 350.704 332.709C363.946 350.134 377.16 368.283 390.247 387.424C392.672 390.954 392.459 394.867 389.709 396.115C386.958 397.363 382.619 395.25 380.266 391.762C379.959 391.302 379.689 390.819 379.458 390.316Z" fill="url(#paint51_radial_141_6035)"/>
<path d="M338.95 368.58C329.167 348.239 318.707 328.583 307.573 309.612C320.744 327.718 334.356 346.476 348.194 366C350.42 369.133 350.278 372.522 347.854 373.6C347.156 373.835 346.417 373.921 345.685 373.852C344.952 373.784 344.242 373.563 343.6 373.203C341.99 372.408 340.62 371.199 339.63 369.701C339.379 369.343 339.152 368.968 338.95 368.58V368.58Z" fill="url(#paint52_radial_141_6035)"/>
<path d="M406.694 191.378C392.843 188.491 378.719 187.117 364.57 187.28C377.785 184.87 390.46 182.899 402.653 181.255C405.347 180.858 408.793 182.942 410.423 185.948C412.054 188.953 410.877 191.449 408.112 191.52C407.636 191.528 407.16 191.48 406.694 191.378V191.378Z" fill="url(#paint53_radial_141_6035)"/>
<path d="M474.24 200.466C460.984 190.249 446.373 181.922 430.826 175.725C444.381 176.859 456.99 178.513 468.654 180.687C470.795 181.042 474.07 186.047 475.942 191.888C477.813 197.73 477.36 201.813 475.176 201.005C474.836 200.88 474.52 200.697 474.24 200.466V200.466Z" fill="url(#paint54_radial_141_6035)"/>
<path d="M381.939 212.334C368.251 208.649 354.221 206.378 340.07 205.556C353.596 204.649 366.796 204.209 379.557 204.139C381.087 204.16 382.586 204.581 383.904 205.359C385.222 206.137 386.314 207.247 387.071 208.576C387.366 209.037 387.507 209.578 387.474 210.123C387.44 210.669 387.235 211.189 386.887 211.611C386.443 212.016 385.911 212.313 385.333 212.48C384.756 212.648 384.147 212.68 383.555 212.575C383.011 212.536 382.471 212.455 381.939 212.334Z" fill="url(#paint55_radial_141_6035)"/>
<path d="M455.284 243.937C441.922 231.2 426.973 220.239 410.806 211.327C424.726 215.177 438.349 220.029 451.569 225.846C453.894 226.838 456.872 232.056 458.219 237.472C458.85 239.456 458.986 241.563 458.616 243.611C458.261 244.902 457.453 245.355 456.276 244.675C455.919 244.467 455.586 244.219 455.284 243.937V243.937Z" fill="url(#paint56_radial_141_6035)"/>
<path d="M465.252 301.715C458.381 291.608 450.87 281.951 442.764 272.805C435.016 264.065 426.688 255.856 417.839 248.234C434.173 258.007 449.408 269.511 463.281 282.546C465.436 284.559 467.803 290.911 468.583 296.724C469.018 298.735 468.964 300.821 468.428 302.807C467.945 303.856 467.109 303.912 466.031 302.807C465.743 302.463 465.483 302.098 465.252 301.715Z" fill="url(#paint57_radial_141_6035)"/>
<path d="M390.403 252.274C371.74 240.874 351.738 231.825 330.854 225.335C351.021 229.882 370.803 235.992 390.021 243.611C393.168 244.845 396.174 248.12 396.5 250.701C396.826 253.281 394.657 254.33 391.495 252.842C391.122 252.67 390.758 252.481 390.403 252.274V252.274Z" fill="url(#paint58_radial_141_6035)"/>
<path d="M452.25 329.264C440.265 314.162 426.878 300.228 412.266 287.65C426.094 295.823 439.327 304.962 451.867 315C454.419 317.028 456.957 322.458 457.326 326.796C457.694 331.135 455.993 332.837 453.427 330.525C453.006 330.132 452.613 329.71 452.25 329.264V329.264Z" fill="url(#paint59_radial_141_6035)"/>
</g>
<path style="mix-blend-mode:screen" opacity="0.19" d="M394.397 377.3C476.76 294.936 476.76 161.399 394.397 79.0353C312.033 -3.32816 178.496 -3.32816 96.1322 79.0353C13.7688 161.399 13.7688 294.936 96.1322 377.3C178.496 459.663 312.033 459.663 394.397 377.3Z" fill="url(#paint60_radial_141_6035)"/>
<path style="mix-blend-mode:screen" d="M367.618 425.493C367.618 427.31 367.08 429.086 366.07 430.597C365.061 432.108 363.626 433.286 361.947 433.981C360.268 434.677 358.421 434.859 356.638 434.504C354.856 434.149 353.219 433.274 351.934 431.99C350.649 430.705 349.774 429.068 349.42 427.285C349.065 425.503 349.247 423.656 349.942 421.977C350.638 420.298 351.816 418.863 353.326 417.854C354.837 416.844 356.614 416.305 358.431 416.305C360.866 416.309 363.201 417.278 364.923 419C366.646 420.723 367.615 423.057 367.618 425.493V425.493Z" fill="url(#paint61_radial_141_6035)"/>
<path style="mix-blend-mode:screen" d="M381.272 425.493C381.275 430.006 379.94 434.418 377.434 438.171C374.929 441.925 371.368 444.851 367.199 446.58C363.031 448.308 358.444 448.762 354.017 447.884C349.591 447.005 345.525 444.833 342.333 441.643C339.141 438.454 336.967 434.389 336.086 429.963C335.204 425.537 335.655 420.95 337.381 416.78C339.108 412.611 342.032 409.047 345.784 406.54C349.535 404.032 353.947 402.694 358.459 402.694C364.507 402.694 370.308 405.095 374.586 409.371C378.864 413.646 381.269 419.445 381.272 425.493V425.493Z" fill="url(#paint62_radial_141_6035)"/>
<path style="mix-blend-mode:screen" d="M413.273 314.164C413.273 315.981 412.734 317.757 411.725 319.268C410.715 320.779 409.28 321.956 407.601 322.652C405.923 323.347 404.075 323.529 402.293 323.175C400.511 322.82 398.874 321.945 397.589 320.66C396.304 319.375 395.429 317.738 395.074 315.956C394.72 314.174 394.902 312.326 395.597 310.648C396.292 308.969 397.47 307.534 398.981 306.524C400.492 305.515 402.268 304.976 404.085 304.976C405.292 304.976 406.487 305.213 407.601 305.675C408.716 306.137 409.729 306.814 410.582 307.667C411.435 308.52 412.112 309.533 412.574 310.648C413.036 311.762 413.273 312.957 413.273 314.164V314.164Z" fill="url(#paint63_radial_141_6035)"/>
<path style="mix-blend-mode:screen" d="M426.899 314.163C426.924 318.681 425.607 323.104 423.116 326.872C420.624 330.641 417.07 333.585 412.904 335.331C408.738 337.077 404.147 337.547 399.713 336.681C395.28 335.816 391.203 333.653 387.999 330.468C384.796 327.282 382.611 323.218 381.72 318.789C380.83 314.36 381.274 309.767 382.997 305.591C384.72 301.415 387.643 297.844 391.398 295.332C395.152 292.819 399.568 291.478 404.085 291.478C410.114 291.478 415.897 293.864 420.172 298.115C424.446 302.365 426.865 308.135 426.899 314.163V314.163Z" fill="url(#paint64_radial_141_6035)"/>
<path style="mix-blend-mode:screen" d="M478.012 188.415C478.012 190.232 477.473 192.008 476.463 193.519C475.454 195.03 474.019 196.208 472.34 196.903C470.662 197.598 468.814 197.78 467.032 197.426C465.25 197.071 463.612 196.196 462.328 194.911C461.043 193.626 460.168 191.989 459.813 190.207C459.459 188.425 459.641 186.577 460.336 184.899C461.032 183.22 462.209 181.785 463.72 180.775C465.231 179.766 467.007 179.227 468.824 179.227C471.261 179.227 473.598 180.195 475.321 181.918C477.044 183.641 478.012 185.978 478.012 188.415V188.415Z" fill="url(#paint65_radial_141_6035)"/>
<path style="mix-blend-mode:screen" d="M491.638 188.415C491.638 192.927 490.3 197.337 487.793 201.089C485.286 204.841 481.723 207.765 477.555 209.491C473.386 211.218 468.799 211.67 464.374 210.789C459.948 209.909 455.884 207.737 452.693 204.546C449.503 201.356 447.33 197.291 446.45 192.865C445.569 188.44 446.021 183.853 447.748 179.684C449.475 175.516 452.399 171.953 456.15 169.446C459.902 166.939 464.312 165.601 468.824 165.601C474.874 165.605 480.674 168.01 484.952 172.287C489.229 176.565 491.634 182.365 491.638 188.415V188.415Z" fill="url(#paint66_radial_141_6035)"/>
<path style="mix-blend-mode:screen" d="M358.459 119.989C358.459 121.806 357.92 123.583 356.911 125.094C355.901 126.605 354.466 127.782 352.788 128.478C351.109 129.173 349.261 129.355 347.479 129C345.697 128.646 344.06 127.771 342.775 126.486C341.49 125.201 340.615 123.564 340.261 121.782C339.906 120 340.088 118.152 340.783 116.473C341.479 114.794 342.656 113.36 344.167 112.35C345.678 111.34 347.455 110.802 349.272 110.802C350.478 110.802 351.673 111.039 352.788 111.501C353.902 111.963 354.915 112.64 355.768 113.493C356.621 114.346 357.298 115.359 357.76 116.473C358.221 117.588 358.459 118.783 358.459 119.989V119.989Z" fill="url(#paint67_radial_141_6035)"/>
<path style="mix-blend-mode:screen" d="M372.084 119.989C372.096 124.504 370.767 128.92 368.267 132.679C365.767 136.438 362.208 139.371 358.041 141.106C353.873 142.842 349.285 143.302 344.855 142.428C340.426 141.554 336.356 139.386 333.16 136.197C329.964 133.009 327.786 128.944 326.901 124.518C326.016 120.091 326.464 115.501 328.189 111.329C329.914 107.157 332.838 103.591 336.591 101.082C340.344 98.5723 344.757 97.2329 349.271 97.2328C355.312 97.2328 361.106 99.6285 365.383 103.895C369.659 108.161 372.069 113.949 372.084 119.989Z" fill="url(#paint68_radial_141_6035)"/>
<path style="mix-blend-mode:screen" d="M252.404 33.2029C252.404 35.0201 251.865 36.7964 250.856 38.3073C249.846 39.8182 248.411 40.9957 246.732 41.6911C245.054 42.3865 243.206 42.5685 241.424 42.214C239.642 41.8595 238.005 40.9844 236.72 39.6995C235.435 38.4146 234.56 36.7775 234.206 34.9953C233.851 33.2131 234.033 31.3658 234.728 29.6869C235.424 28.0081 236.601 26.5732 238.112 25.5636C239.623 24.5541 241.399 24.0152 243.217 24.0152C245.653 24.0152 247.99 24.9832 249.713 26.7062C251.436 28.4292 252.404 30.7662 252.404 33.2029V33.2029Z" fill="url(#paint69_radial_141_6035)"/>
<path style="mix-blend-mode:screen" d="M266.03 33.2029C266.03 37.7149 264.692 42.1256 262.185 45.8772C259.678 49.6288 256.116 52.5528 251.947 54.2795C247.778 56.0061 243.191 56.458 238.766 55.5777C234.341 54.6975 230.276 52.5247 227.085 49.3342C223.895 46.1437 221.722 42.0788 220.842 37.6535C219.962 33.2282 220.413 28.6412 222.14 24.4726C223.867 20.3041 226.791 16.7412 230.542 14.2344C234.294 11.7277 238.705 10.3897 243.217 10.3897C249.267 10.3897 255.07 12.7932 259.348 17.0715C263.626 21.3498 266.03 27.1525 266.03 33.2029V33.2029Z" fill="url(#paint70_radial_141_6035)"/>
<path style="mix-blend-mode:screen" d="M95.9871 91.3914C95.9871 93.2085 95.4483 94.9848 94.4388 96.4957C93.4292 98.0066 91.9942 99.1843 90.3154 99.8797C88.6366 100.575 86.7894 100.757 85.0071 100.402C83.2249 100.048 81.5878 99.1729 80.3029 97.888C79.018 96.6031 78.1429 94.966 77.7884 93.1837C77.4339 91.4015 77.6161 89.5542 78.3115 87.8754C79.0069 86.1966 80.1842 84.7616 81.6951 83.7521C83.206 82.7425 84.9824 82.2037 86.7995 82.2037C89.2362 82.2037 91.5731 83.1717 93.2961 84.8947C95.0192 86.6178 95.9871 88.9546 95.9871 91.3914V91.3914Z" fill="url(#paint71_radial_141_6035)"/>
<path style="mix-blend-mode:screen" d="M95.4384 112.44C107.098 107.665 112.679 94.3424 107.904 82.6828C103.13 71.0233 89.8069 65.4421 78.1473 70.2169C66.4877 74.9917 60.9068 88.3143 65.6816 99.9739C70.4564 111.633 83.7788 117.215 95.4384 112.44Z" fill="url(#paint72_radial_141_6035)"/>
<path style="mix-blend-mode:screen" d="M31.5886 175.725C31.5914 177.545 31.0542 179.326 30.0448 180.841C29.0354 182.356 27.5991 183.538 25.9179 184.236C24.2367 184.935 22.3862 185.119 20.6003 184.766C18.8144 184.412 17.1733 183.537 15.885 182.251C14.5967 180.964 13.7191 179.325 13.3629 177.539C13.0067 175.754 13.1882 173.903 13.8842 172.221C14.5802 170.539 15.7595 169.101 17.2731 168.089C18.7866 167.077 20.5662 166.537 22.3868 166.537C24.8248 166.537 27.1633 167.505 28.8886 169.227C30.6139 170.95 31.5848 173.287 31.5886 175.725V175.725Z" fill="url(#paint73_radial_141_6035)"/>
<path style="mix-blend-mode:screen" d="M45.2287 175.725C45.2287 180.237 43.8907 184.648 41.384 188.399C38.8772 192.151 35.314 195.075 31.1454 196.801C26.9768 198.528 22.3902 198.98 17.9649 198.1C13.5396 197.219 9.4744 195.047 6.28392 191.856C3.09344 188.666 0.920936 184.601 0.0406853 180.176C-0.839566 175.75 -0.387911 171.163 1.33876 166.995C3.06544 162.826 5.98936 159.263 9.74096 156.756C13.4926 154.25 17.9034 152.912 22.4154 152.912C28.4658 152.912 34.2682 155.315 38.5465 159.594C42.8248 163.872 45.2287 169.674 45.2287 175.725V175.725Z" fill="url(#paint74_radial_141_6035)"/>
<path style="mix-blend-mode:screen" d="M110.336 248.616C110.336 250.434 109.797 252.21 108.788 253.721C107.778 255.232 106.343 256.409 104.664 257.105C102.985 257.8 101.138 257.982 99.356 257.628C97.5737 257.273 95.9367 256.398 94.6517 255.113C93.3668 253.828 92.4918 252.191 92.1373 250.409C91.7828 248.627 91.9646 246.779 92.66 245.1C93.3554 243.422 94.5331 241.987 96.044 240.977C97.5549 239.968 99.3312 239.429 101.148 239.429C103.584 239.432 105.919 240.402 107.641 242.124C109.363 243.846 110.332 246.181 110.336 248.616Z" fill="url(#paint75_radial_141_6035)"/>
<path style="mix-blend-mode:screen" d="M123.961 248.616C123.961 253.128 122.623 257.539 120.117 261.291C117.61 265.042 114.047 267.966 109.878 269.693C105.71 271.42 101.123 271.871 96.6976 270.991C92.2723 270.111 88.2074 267.938 85.017 264.748C81.8265 261.557 79.6536 257.492 78.7734 253.067C77.8931 248.642 78.3451 244.055 80.0718 239.886C81.7985 235.718 84.7224 232.155 88.474 229.648C92.2256 227.141 96.6364 225.803 101.148 225.803C107.199 225.803 113.001 228.207 117.28 232.485C121.558 236.763 123.961 242.566 123.961 248.616V248.616Z" fill="url(#paint76_radial_141_6035)"/>
<path style="mix-blend-mode:screen" d="M87.5227 373.912C87.5199 375.728 86.9787 377.503 85.9675 379.012C84.9562 380.521 83.5204 381.697 81.8413 382.39C80.1622 383.083 78.3154 383.263 76.5341 382.907C74.7528 382.551 73.1171 381.675 71.8337 380.389C70.5502 379.104 69.6764 377.466 69.323 375.685C68.9696 373.903 69.1523 372.056 69.8481 370.378C70.5439 368.7 71.7215 367.266 73.2321 366.257C74.7427 365.248 76.5186 364.71 78.3351 364.71C79.5429 364.71 80.7388 364.948 81.8545 365.411C82.9701 365.873 83.9836 366.551 84.8369 367.406C85.6903 368.26 86.3668 369.275 86.8277 370.391C87.2886 371.508 87.5246 372.704 87.5227 373.912V373.912Z" fill="url(#paint77_radial_141_6035)"/>
<path style="mix-blend-mode:screen" d="M101.148 373.912C101.148 378.425 99.8092 382.838 97.3006 386.59C94.792 390.343 91.2265 393.267 87.0555 394.992C82.8844 396.718 78.2955 397.167 73.8691 396.283C69.4426 395.4 65.3776 393.223 62.1888 390.028C59 386.833 56.8307 382.764 55.9552 378.336C55.0798 373.908 55.5378 369.32 57.271 365.152C59.0042 360.984 61.9347 357.424 65.6919 354.923C69.4491 352.421 73.8639 351.09 78.3777 351.098C84.4219 351.106 90.2158 353.513 94.4857 357.791C98.7556 362.069 101.152 367.867 101.148 373.912V373.912Z" fill="url(#paint78_radial_141_6035)"/>
<path style="mix-blend-mode:screen" d="M186.347 432.894C186.347 434.711 185.808 436.488 184.798 437.998C183.789 439.509 182.354 440.687 180.675 441.382C178.996 442.078 177.149 442.26 175.367 441.905C173.584 441.551 171.947 440.676 170.662 439.391C169.377 438.106 168.502 436.469 168.148 434.686C167.793 432.904 167.975 431.057 168.671 429.378C169.366 427.699 170.544 426.264 172.054 425.255C173.565 424.245 175.342 423.706 177.159 423.706C179.596 423.706 181.932 424.674 183.656 426.397C185.379 428.12 186.347 430.457 186.347 432.894Z" fill="url(#paint79_radial_141_6035)"/>
<path style="mix-blend-mode:screen" d="M199.972 432.894C199.972 437.406 198.634 441.817 196.128 445.568C193.621 449.32 190.058 452.244 185.889 453.971C181.721 455.697 177.134 456.149 172.709 455.269C168.283 454.389 164.218 452.216 161.028 449.025C157.837 445.835 155.665 441.77 154.784 437.345C153.904 432.919 154.356 428.332 156.082 424.164C157.809 419.995 160.733 416.432 164.485 413.926C168.237 411.419 172.647 410.081 177.159 410.081C183.209 410.081 189.012 412.484 193.291 416.763C197.569 421.041 199.972 426.844 199.972 432.894V432.894Z" fill="url(#paint80_radial_141_6035)"/>
<path style="mix-blend-mode:screen" d="M344.848 24.2563C344.85 26.0769 344.313 27.8573 343.304 29.3724C342.294 30.8875 340.858 32.0691 339.177 32.7677C337.496 33.4664 335.645 33.6506 333.859 33.2972C332.073 32.9437 330.433 32.0684 329.144 30.7821C327.856 29.4958 326.978 27.8562 326.622 26.0709C326.266 24.2855 326.447 22.4346 327.143 20.7524C327.839 19.0701 329.019 17.6322 330.532 16.6204C332.046 15.6087 333.825 15.0686 335.646 15.0686C338.084 15.0686 340.422 16.0361 342.148 17.7587C343.873 19.4814 344.844 21.8183 344.848 24.2563V24.2563Z" fill="url(#paint81_radial_141_6035)"/>
<path style="mix-blend-mode:screen" d="M358.459 24.2563C358.459 28.7683 357.121 33.179 354.615 36.9306C352.108 40.6822 348.545 43.6062 344.376 45.3329C340.208 47.0595 335.621 47.5114 331.196 46.6311C326.77 45.7509 322.705 43.5781 319.515 40.3876C316.325 37.1971 314.152 33.1322 313.271 28.7069C312.391 24.2816 312.843 19.6946 314.569 15.526C316.296 11.3575 319.22 7.79459 322.972 5.28785C326.724 2.78111 331.134 1.44312 335.646 1.44312C341.697 1.44312 347.499 3.84663 351.778 8.12493C356.056 12.4032 358.459 18.2059 358.459 24.2563V24.2563Z" fill="url(#paint82_radial_141_6035)"/>
<path style="mix-blend-mode:screen" d="M229.307 75.4547C229.307 77.2719 228.769 79.0482 227.759 80.5591C226.75 82.07 225.315 83.2476 223.636 83.943C221.957 84.6383 220.11 84.8203 218.327 84.4658C216.545 84.1113 214.908 83.2363 213.623 81.9514C212.338 80.6664 211.463 79.0294 211.109 77.2471C210.754 75.4649 210.936 73.6176 211.631 71.9388C212.327 70.2599 213.505 68.825 215.015 67.8155C216.526 66.8059 218.303 66.267 220.12 66.267C222.557 66.267 224.893 67.235 226.616 68.958C228.339 70.681 229.307 73.018 229.307 75.4547V75.4547Z" fill="url(#paint83_radial_141_6035)"/>
<path style="mix-blend-mode:screen" d="M242.933 75.4548C242.933 79.9686 241.594 84.3809 239.085 88.1335C236.577 91.886 233.011 94.81 228.84 96.5354C224.669 98.2608 220.08 98.7101 215.654 97.8264C211.227 96.9427 207.162 94.7658 203.974 91.571C200.785 88.3763 198.615 84.3074 197.74 79.8792C196.865 75.4511 197.323 70.8628 199.056 66.695C200.789 62.5272 203.719 58.9673 207.477 56.4656C211.234 53.964 215.649 52.6332 220.163 52.6416C226.206 52.6528 231.997 55.0614 236.266 59.3385C240.535 63.6155 242.933 69.4117 242.933 75.4548V75.4548Z" fill="url(#paint84_radial_141_6035)"/>
<path style="mix-blend-mode:screen" d="M300.285 357.053C300.285 358.871 299.746 360.647 298.737 362.158C297.727 363.669 296.292 364.846 294.613 365.542C292.934 366.237 291.087 366.419 289.305 366.064C287.523 365.71 285.886 364.835 284.601 363.55C283.316 362.265 282.441 360.628 282.086 358.846C281.732 357.064 281.914 355.216 282.609 353.537C283.304 351.859 284.482 350.424 285.993 349.414C287.504 348.405 289.28 347.866 291.097 347.866C293.534 347.866 295.871 348.834 297.594 350.557C299.317 352.28 300.285 354.617 300.285 357.053V357.053Z" fill="url(#paint85_radial_141_6035)"/>
<path style="mix-blend-mode:screen" d="M313.911 357.053C313.911 361.564 312.574 365.973 310.069 369.723C307.564 373.474 304.004 376.398 299.837 378.126C295.671 379.854 291.087 380.308 286.662 379.431C282.238 378.555 278.173 376.386 274.981 373.2C271.789 370.014 269.613 365.953 268.728 361.53C267.843 357.108 268.288 352.522 270.009 348.353C271.729 344.183 274.646 340.617 278.392 338.106C282.138 335.594 286.545 334.249 291.055 334.24C294.054 334.235 297.025 334.821 299.798 335.965C302.571 337.109 305.091 338.788 307.214 340.907C309.337 343.026 311.021 345.543 312.17 348.313C313.319 351.084 313.911 354.054 313.911 357.053Z" fill="url(#paint86_radial_141_6035)"/>
<path style="mix-blend-mode:screen" d="M390.46 208.406C390.46 210.223 389.921 212 388.911 213.511C387.902 215.022 386.467 216.199 384.788 216.895C383.11 217.59 381.262 217.772 379.48 217.417C377.698 217.063 376.06 216.188 374.776 214.903C373.491 213.618 372.616 211.981 372.261 210.199C371.907 208.416 372.089 206.569 372.784 204.89C373.48 203.212 374.657 201.777 376.168 200.767C377.679 199.757 379.455 199.219 381.272 199.219C383.709 199.219 386.046 200.187 387.769 201.91C389.492 203.633 390.46 205.97 390.46 208.406V208.406Z" fill="url(#paint87_radial_141_6035)"/>
<path style="mix-blend-mode:screen" d="M404.086 208.406C404.086 212.918 402.748 217.329 400.241 221.081C397.734 224.832 394.171 227.756 390.003 229.483C385.834 231.209 381.247 231.661 376.822 230.781C372.396 229.901 368.332 227.728 365.141 224.538C361.951 221.347 359.778 217.282 358.898 212.857C358.017 208.432 358.469 203.845 360.196 199.676C361.923 195.507 364.847 191.945 368.598 189.438C372.35 186.931 376.76 185.593 381.272 185.593C387.323 185.593 393.125 187.997 397.404 192.275C401.682 196.553 404.086 202.356 404.086 208.406V208.406Z" fill="url(#paint88_radial_141_6035)"/>
<path style="mix-blend-mode:screen" d="M184.588 331.561C184.588 333.378 184.05 335.154 183.04 336.665C182.03 338.176 180.595 339.353 178.917 340.049C177.238 340.744 175.391 340.926 173.608 340.572C171.826 340.217 170.189 339.342 168.904 338.057C167.619 336.772 166.744 335.135 166.39 333.353C166.035 331.571 166.217 329.723 166.913 328.045C167.608 326.366 168.785 324.931 170.296 323.921C171.807 322.912 173.584 322.373 175.401 322.373C177.836 322.377 180.171 323.346 181.893 325.068C183.615 326.79 184.585 329.125 184.588 331.561V331.561Z" fill="url(#paint89_radial_141_6035)"/>
<path style="mix-blend-mode:screen" d="M198.214 331.561C198.214 336.073 196.876 340.483 194.37 344.235C191.863 347.986 188.3 350.91 184.131 352.637C179.963 354.364 175.376 354.816 170.95 353.935C166.525 353.055 162.46 350.882 159.27 347.692C156.079 344.501 153.907 340.436 153.026 336.011C152.146 331.586 152.598 326.999 154.324 322.83C156.051 318.662 158.975 315.099 162.727 312.592C166.479 310.085 170.889 308.747 175.401 308.747C181.451 308.747 187.254 311.151 191.532 315.429C195.811 319.707 198.214 325.51 198.214 331.561V331.561Z" fill="url(#paint90_radial_141_6035)"/>
<path style="mix-blend-mode:screen" d="M136.991 184.913C136.994 186.733 136.457 188.514 135.448 190.029C134.438 191.544 133.002 192.725 131.321 193.424C129.64 194.123 127.789 194.307 126.003 193.953C124.217 193.6 122.576 192.725 121.288 191.438C119.999 190.152 119.122 188.512 118.765 186.727C118.409 184.942 118.591 183.091 119.287 181.409C119.983 179.726 121.162 178.288 122.676 177.277C124.189 176.265 125.969 175.725 127.79 175.725C130.228 175.725 132.566 176.692 134.291 178.415C136.016 180.138 136.988 182.475 136.991 184.913V184.913Z" fill="url(#paint91_radial_141_6035)"/>
<path style="mix-blend-mode:screen" d="M150.603 184.913C150.603 189.425 149.265 193.835 146.758 197.587C144.251 201.338 140.688 204.262 136.52 205.989C132.351 207.716 127.764 208.168 123.339 207.287C118.914 206.407 114.849 204.234 111.658 201.044C108.468 197.853 106.295 193.788 105.415 189.363C104.534 184.938 104.986 180.351 106.713 176.182C108.44 172.014 111.364 168.451 115.115 165.944C118.867 163.437 123.278 162.099 127.79 162.099C130.786 162.099 133.752 162.689 136.52 163.836C139.288 164.982 141.803 166.663 143.921 168.781C146.039 170.9 147.72 173.414 148.866 176.182C150.013 178.95 150.603 181.917 150.603 184.913Z" fill="url(#paint92_radial_141_6035)"/>
<path style="mix-blend-mode:screen" d="M478.012 294.314C478.012 296.131 477.473 297.907 476.463 299.418C475.454 300.929 474.019 302.107 472.34 302.802C470.662 303.497 468.814 303.679 467.032 303.325C465.25 302.97 463.612 302.095 462.328 300.81C461.043 299.525 460.168 297.888 459.813 296.106C459.459 294.324 459.641 292.476 460.336 290.798C461.032 289.119 462.209 287.684 463.72 286.674C465.231 285.665 467.007 285.126 468.824 285.126C471.261 285.126 473.598 286.094 475.321 287.817C477.044 289.54 478.012 291.877 478.012 294.314V294.314Z" fill="url(#paint93_radial_141_6035)"/>
<path style="mix-blend-mode:screen" d="M491.638 294.314C491.638 298.826 490.3 303.236 487.793 306.988C485.286 310.74 481.723 313.664 477.555 315.39C473.386 317.117 468.799 317.569 464.374 316.688C459.948 315.808 455.884 313.635 452.693 310.445C449.503 307.254 447.33 303.19 446.45 298.764C445.569 294.339 446.021 289.752 447.748 285.583C449.475 281.415 452.399 277.852 456.15 275.345C459.902 272.838 464.312 271.5 468.824 271.5C474.875 271.5 480.677 273.904 484.956 278.182C489.234 282.461 491.638 288.263 491.638 294.314V294.314Z" fill="url(#paint94_radial_141_6035)"/>
<defs>
<radialGradient id="paint0_radial_141_6035" cx="0" cy="0" r="1" gradientUnits="userSpaceOnUse" gradientTransform="translate(197.392 448.788) scale(459.794 459.794)">
<stop stop-color="#FFADAD"/>
<stop offset="0.43" stop-color="#CC4747"/>
<stop offset="0.5" stop-color="#CC4343"/>
<stop offset="0.73" stop-color="#722929"/>
<stop offset="0.91" stop-color="#301515"/>
<stop offset="1" stop-color="#160E0E"/>
</radialGradient>
<radialGradient id="paint1_radial_141_6035" cx="0" cy="0" r="1" gradientUnits="userSpaceOnUse" gradientTransform="translate(197.393 448.788) scale(459.789 459.794)">
<stop stop-color="#FFADAD"/>
<stop offset="0.43" stop-color="#CC4747"/>
<stop offset="0.5" stop-color="#CC4343"/>
<stop offset="0.73" stop-color="#722929"/>
<stop offset="0.91" stop-color="#301515"/>
<stop offset="1" stop-color="#160E0E"/>
</radialGradient>
<radialGradient id="paint2_radial_141_6035" cx="0" cy="0" r="1" gradientUnits="userSpaceOnUse" gradientTransform="translate(197.391 448.788) scale(459.798 459.794)">
<stop stop-color="#FFADAD"/>
<stop offset="0.43" stop-color="#CC4747"/>
<stop offset="0.5" stop-color="#CC4343"/>
<stop offset="0.73" stop-color="#722929"/>
<stop offset="0.91" stop-color="#301515"/>
<stop offset="1" stop-color="#160E0E"/>
</radialGradient>
<radialGradient id="paint3_radial_141_6035" cx="0" cy="0" r="1" gradientUnits="userSpaceOnUse" gradientTransform="translate(197.391 448.788) scale(459.799 459.793)">
<stop stop-color="#FFADAD"/>
<stop offset="0.43" stop-color="#CC4747"/>
<stop offset="0.5" stop-color="#CC4343"/>
<stop offset="0.73" stop-color="#722929"/>
<stop offset="0.91" stop-color="#301515"/>
<stop offset="1" stop-color="#160E0E"/>
</radialGradient>
<radialGradient id="paint4_radial_141_6035" cx="0" cy="0" r="1" gradientUnits="userSpaceOnUse" gradientTransform="translate(197.393 448.788) scale(459.773 459.779)">
<stop stop-color="#FFADAD"/>
<stop offset="0.43" stop-color="#CC4747"/>
<stop offset="0.5" stop-color="#CC4343"/>
<stop offset="0.73" stop-color="#722929"/>
<stop offset="0.91" stop-color="#301515"/>
<stop offset="1" stop-color="#160E0E"/>
</radialGradient>
<radialGradient id="paint5_radial_141_6035" cx="0" cy="0" r="1" gradientUnits="userSpaceOnUse" gradientTransform="translate(197.393 448.788) scale(459.798 459.808)">
<stop stop-color="#FFADAD"/>
<stop offset="0.43" stop-color="#CC4747"/>
<stop offset="0.5" stop-color="#CC4343"/>
<stop offset="0.73" stop-color="#722929"/>
<stop offset="0.91" stop-color="#301515"/>
<stop offset="1" stop-color="#160E0E"/>
</radialGradient>
<radialGradient id="paint6_radial_141_6035" cx="0" cy="0" r="1" gradientUnits="userSpaceOnUse" gradientTransform="translate(197.392 448.788) scale(459.809 459.808)">
<stop stop-color="#FFADAD"/>
<stop offset="0.43" stop-color="#CC4747"/>
<stop offset="0.5" stop-color="#CC4343"/>
<stop offset="0.73" stop-color="#722929"/>
<stop offset="0.91" stop-color="#301515"/>
<stop offset="1" stop-color="#160E0E"/>
</radialGradient>
<radialGradient id="paint7_radial_141_6035" cx="0" cy="0" r="1" gradientUnits="userSpaceOnUse" gradientTransform="translate(197.392 448.788) scale(459.81 459.808)">
<stop stop-color="#FFADAD"/>
<stop offset="0.43" stop-color="#CC4747"/>
<stop offset="0.5" stop-color="#CC4343"/>
<stop offset="0.73" stop-color="#722929"/>
<stop offset="0.91" stop-color="#301515"/>
<stop offset="1" stop-color="#160E0E"/>
</radialGradient>
<radialGradient id="paint8_radial_141_6035" cx="0" cy="0" r="1" gradientUnits="userSpaceOnUse" gradientTransform="translate(197.392 448.788) scale(459.791 459.793)">
<stop stop-color="#FFADAD"/>
<stop offset="0.43" stop-color="#CC4747"/>
<stop offset="0.5" stop-color="#CC4343"/>
<stop offset="0.73" stop-color="#722929"/>
<stop offset="0.91" stop-color="#301515"/>
<stop offset="1" stop-color="#160E0E"/>
</radialGradient>
<radialGradient id="paint9_radial_141_6035" cx="0" cy="0" r="1" gradientUnits="userSpaceOnUse" gradientTransform="translate(197.392 448.788) scale(459.808 459.808)">
<stop stop-color="#FFADAD"/>
<stop offset="0.43" stop-color="#CC4747"/>
<stop offset="0.5" stop-color="#CC4343"/>
<stop offset="0.73" stop-color="#722929"/>
<stop offset="0.91" stop-color="#301515"/>
<stop offset="1" stop-color="#160E0E"/>
</radialGradient>
<radialGradient id="paint10_radial_141_6035" cx="0" cy="0" r="1" gradientUnits="userSpaceOnUse" gradientTransform="translate(197.392 448.788) scale(459.789 459.794)">
<stop stop-color="#FFADAD"/>
<stop offset="0.43" stop-color="#CC4747"/>
<stop offset="0.5" stop-color="#CC4343"/>
<stop offset="0.73" stop-color="#722929"/>
<stop offset="0.91" stop-color="#301515"/>
<stop offset="1" stop-color="#160E0E"/>
</radialGradient>
<radialGradient id="paint11_radial_141_6035" cx="0" cy="0" r="1" gradientUnits="userSpaceOnUse" gradientTransform="translate(197.392 448.788) scale(459.794 459.793)">
<stop stop-color="#FFADAD"/>
<stop offset="0.43" stop-color="#CC4747"/>
<stop offset="0.5" stop-color="#CC4343"/>
<stop offset="0.73" stop-color="#722929"/>
<stop offset="0.91" stop-color="#301515"/>
<stop offset="1" stop-color="#160E0E"/>
</radialGradient>
<radialGradient id="paint12_radial_141_6035" cx="0" cy="0" r="1" gradientUnits="userSpaceOnUse" gradientTransform="translate(197.392 448.788) scale(459.792 459.794)">
<stop stop-color="#FFADAD"/>
<stop offset="0.43" stop-color="#CC4747"/>
<stop offset="0.5" stop-color="#CC4343"/>
<stop offset="0.73" stop-color="#722929"/>
<stop offset="0.91" stop-color="#301515"/>
<stop offset="1" stop-color="#160E0E"/>
</radialGradient>
<radialGradient id="paint13_radial_141_6035" cx="0" cy="0" r="1" gradientUnits="userSpaceOnUse" gradientTransform="translate(197.392 448.788) scale(459.81 459.808)">
<stop stop-color="#FFADAD"/>
<stop offset="0.43" stop-color="#CC4747"/>
<stop offset="0.5" stop-color="#CC4343"/>
<stop offset="0.73" stop-color="#722929"/>
<stop offset="0.91" stop-color="#301515"/>
<stop offset="1" stop-color="#160E0E"/>
</radialGradient>
<radialGradient id="paint14_radial_141_6035" cx="0" cy="0" r="1" gradientUnits="userSpaceOnUse" gradientTransform="translate(29.4053 247.213) scale(345.911 345.912)">
<stop stop-color="#FFADAD"/>
<stop offset="0.43" stop-color="#CC4747"/>
<stop offset="0.5" stop-color="#CC4343"/>
<stop offset="0.73" stop-color="#722929"/>
<stop offset="0.91" stop-color="#301515"/>
<stop offset="1" stop-color="#160E0E"/>
</radialGradient>
<radialGradient id="paint15_radial_141_6035" cx="0" cy="0" r="1" gradientUnits="userSpaceOnUse" gradientTransform="translate(29.4043 247.213) scale(345.9 345.898)">
<stop stop-color="#FFADAD"/>
<stop offset="0.43" stop-color="#CC4747"/>
<stop offset="0.5" stop-color="#CC4343"/>
<stop offset="0.73" stop-color="#722929"/>
<stop offset="0.91" stop-color="#301515"/>
<stop offset="1" stop-color="#160E0E"/>
</radialGradient>
<radialGradient id="paint16_radial_141_6035" cx="0" cy="0" r="1" gradientUnits="userSpaceOnUse" gradientTransform="translate(29.4051 247.213) scale(345.898 345.898)">
<stop stop-color="#FFADAD"/>
<stop offset="0.43" stop-color="#CC4747"/>
<stop offset="0.5" stop-color="#CC4343"/>
<stop offset="0.73" stop-color="#722929"/>
<stop offset="0.91" stop-color="#301515"/>
<stop offset="1" stop-color="#160E0E"/>
</radialGradient>
<radialGradient id="paint17_radial_141_6035" cx="0" cy="0" r="1" gradientUnits="userSpaceOnUse" gradientTransform="translate(29.4052 247.213) scale(345.912 345.913)">
<stop stop-color="#FFADAD"/>
<stop offset="0.43" stop-color="#CC4747"/>
<stop offset="0.5" stop-color="#CC4343"/>
<stop offset="0.73" stop-color="#722929"/>
<stop offset="0.91" stop-color="#301515"/>
<stop offset="1" stop-color="#160E0E"/>
</radialGradient>
<radialGradient id="paint18_radial_141_6035" cx="0" cy="0" r="1" gradientUnits="userSpaceOnUse" gradientTransform="translate(29.4053 247.213) scale(345.9 345.898)">
<stop stop-color="#FFADAD"/>
<stop offset="0.43" stop-color="#CC4747"/>
<stop offset="0.5" stop-color="#CC4343"/>
<stop offset="0.73" stop-color="#722929"/>
<stop offset="0.91" stop-color="#301515"/>
<stop offset="1" stop-color="#160E0E"/>
</radialGradient>
<radialGradient id="paint19_radial_141_6035" cx="0" cy="0" r="1" gradientUnits="userSpaceOnUse" gradientTransform="translate(29.4051 247.213) scale(345.898 345.898)">
<stop stop-color="#FFADAD"/>
<stop offset="0.43" stop-color="#CC4747"/>
<stop offset="0.5" stop-color="#CC4343"/>
<stop offset="0.73" stop-color="#722929"/>
<stop offset="0.91" stop-color="#301515"/>
<stop offset="1" stop-color="#160E0E"/>
</radialGradient>
<radialGradient id="paint20_radial_141_6035" cx="0" cy="0" r="1" gradientUnits="userSpaceOnUse" gradientTransform="translate(29.4054 247.213) scale(345.897 345.898)">
<stop stop-color="#FFADAD"/>
<stop offset="0.43" stop-color="#CC4747"/>
<stop offset="0.5" stop-color="#CC4343"/>
<stop offset="0.73" stop-color="#722929"/>
<stop offset="0.91" stop-color="#301515"/>
<stop offset="1" stop-color="#160E0E"/>
</radialGradient>
<radialGradient id="paint21_radial_141_6035" cx="0" cy="0" r="1" gradientUnits="userSpaceOnUse" gradientTransform="translate(29.4051 247.213) scale(345.898 345.898)">
<stop stop-color="#FFADAD"/>
<stop offset="0.43" stop-color="#CC4747"/>
<stop offset="0.5" stop-color="#CC4343"/>
<stop offset="0.73" stop-color="#722929"/>
<stop offset="0.91" stop-color="#301515"/>
<stop offset="1" stop-color="#160E0E"/>
</radialGradient>
<radialGradient id="paint22_radial_141_6035" cx="0" cy="0" r="1" gradientUnits="userSpaceOnUse" gradientTransform="translate(29.4047 247.199) scale(345.914 345.912)">
<stop stop-color="#FFADAD"/>
<stop offset="0.43" stop-color="#CC4747"/>
<stop offset="0.5" stop-color="#CC4343"/>
<stop offset="0.73" stop-color="#722929"/>
<stop offset="0.91" stop-color="#301515"/>
<stop offset="1" stop-color="#160E0E"/>
</radialGradient>
<radialGradient id="paint23_radial_141_6035" cx="0" cy="0" r="1" gradientUnits="userSpaceOnUse" gradientTransform="translate(29.4055 247.213) scale(345.897 345.9)">
<stop stop-color="#FFADAD"/>
<stop offset="0.43" stop-color="#CC4747"/>
<stop offset="0.5" stop-color="#CC4343"/>
<stop offset="0.73" stop-color="#722929"/>
<stop offset="0.91" stop-color="#301515"/>
<stop offset="1" stop-color="#160E0E"/>
</radialGradient>
<radialGradient id="paint24_radial_141_6035" cx="0" cy="0" r="1" gradientUnits="userSpaceOnUse" gradientTransform="translate(29.4051 247.199) scale(345.897 345.898)">
<stop stop-color="#FFADAD"/>
<stop offset="0.43" stop-color="#CC4747"/>
<stop offset="0.5" stop-color="#CC4343"/>
<stop offset="0.73" stop-color="#722929"/>
<stop offset="0.91" stop-color="#301515"/>
<stop offset="1" stop-color="#160E0E"/>
</radialGradient>
<radialGradient id="paint25_radial_141_6035" cx="0" cy="0" r="1" gradientUnits="userSpaceOnUse" gradientTransform="translate(138.835 13.9487) scale(323.566 323.566)">
<stop stop-color="#FFADAD"/>
<stop offset="0.43" stop-color="#CC4747"/>
<stop offset="0.5" stop-color="#CC4343"/>
<stop offset="0.73" stop-color="#722929"/>
<stop offset="0.91" stop-color="#301515"/>
<stop offset="1" stop-color="#160E0E"/>
</radialGradient>
<radialGradient id="paint26_radial_141_6035" cx="0" cy="0" r="1" gradientUnits="userSpaceOnUse" gradientTransform="translate(138.835 13.9484) scale(323.568 323.567)">
<stop stop-color="#FFADAD"/>
<stop offset="0.43" stop-color="#CC4747"/>
<stop offset="0.5" stop-color="#CC4343"/>
<stop offset="0.73" stop-color="#722929"/>
<stop offset="0.91" stop-color="#301515"/>
<stop offset="1" stop-color="#160E0E"/>
</radialGradient>
<radialGradient id="paint27_radial_141_6035" cx="0" cy="0" r="1" gradientUnits="userSpaceOnUse" gradientTransform="translate(138.835 13.9486) scale(323.568 323.567)">
<stop stop-color="#FFADAD"/>
<stop offset="0.43" stop-color="#CC4747"/>
<stop offset="0.5" stop-color="#CC4343"/>
<stop offset="0.73" stop-color="#722929"/>
<stop offset="0.91" stop-color="#301515"/>
<stop offset="1" stop-color="#160E0E"/>
</radialGradient>
<radialGradient id="paint28_radial_141_6035" cx="0" cy="0" r="1" gradientUnits="userSpaceOnUse" gradientTransform="translate(138.835 13.9485) scale(323.579 323.581)">
<stop stop-color="#FFADAD"/>
<stop offset="0.43" stop-color="#CC4747"/>
<stop offset="0.5" stop-color="#CC4343"/>
<stop offset="0.73" stop-color="#722929"/>
<stop offset="0.91" stop-color="#301515"/>
<stop offset="1" stop-color="#160E0E"/>
</radialGradient>
<radialGradient id="paint29_radial_141_6035" cx="0" cy="0" r="1" gradientUnits="userSpaceOnUse" gradientTransform="translate(138.835 13.9485) scale(323.568 323.567)">
<stop stop-color="#FFADAD"/>
<stop offset="0.43" stop-color="#CC4747"/>
<stop offset="0.5" stop-color="#CC4343"/>
<stop offset="0.73" stop-color="#722929"/>
<stop offset="0.91" stop-color="#301515"/>
<stop offset="1" stop-color="#160E0E"/>
</radialGradient>
<radialGradient id="paint30_radial_141_6035" cx="0" cy="0" r="1" gradientUnits="userSpaceOnUse" gradientTransform="translate(138.835 13.9485) scale(323.581 323.581)">
<stop stop-color="#FFADAD"/>
<stop offset="0.43" stop-color="#CC4747"/>
<stop offset="0.5" stop-color="#CC4343"/>
<stop offset="0.73" stop-color="#722929"/>
<stop offset="0.91" stop-color="#301515"/>
<stop offset="1" stop-color="#160E0E"/>
</radialGradient>
<radialGradient id="paint31_radial_141_6035" cx="0" cy="0" r="1" gradientUnits="userSpaceOnUse" gradientTransform="translate(138.835 13.9486) scale(323.581 323.581)">
<stop stop-color="#FFADAD"/>
<stop offset="0.43" stop-color="#CC4747"/>
<stop offset="0.5" stop-color="#CC4343"/>
<stop offset="0.73" stop-color="#722929"/>
<stop offset="0.91" stop-color="#301515"/>
<stop offset="1" stop-color="#160E0E"/>
</radialGradient>
<radialGradient id="paint32_radial_141_6035" cx="0" cy="0" r="1" gradientUnits="userSpaceOnUse" gradientTransform="translate(138.834 13.9486) scale(323.569 323.567)">
<stop stop-color="#FFADAD"/>
<stop offset="0.43" stop-color="#CC4747"/>
<stop offset="0.5" stop-color="#CC4343"/>
<stop offset="0.73" stop-color="#722929"/>
<stop offset="0.91" stop-color="#301515"/>
<stop offset="1" stop-color="#160E0E"/>
</radialGradient>
<radialGradient id="paint33_radial_141_6035" cx="0" cy="0" r="1" gradientUnits="userSpaceOnUse" gradientTransform="translate(138.834 13.9486) scale(323.584 323.581)">
<stop stop-color="#FFADAD"/>
<stop offset="0.43" stop-color="#CC4747"/>
<stop offset="0.5" stop-color="#CC4343"/>
<stop offset="0.73" stop-color="#722929"/>
<stop offset="0.91" stop-color="#301515"/>
<stop offset="1" stop-color="#160E0E"/>
</radialGradient>
<radialGradient id="paint34_radial_141_6035" cx="0" cy="0" r="1" gradientUnits="userSpaceOnUse" gradientTransform="translate(138.836 13.9485) scale(323.577 323.581)">
<stop stop-color="#FFADAD"/>
<stop offset="0.43" stop-color="#CC4747"/>
<stop offset="0.5" stop-color="#CC4343"/>
<stop offset="0.73" stop-color="#722929"/>
<stop offset="0.91" stop-color="#301515"/>
<stop offset="1" stop-color="#160E0E"/>
</radialGradient>
<radialGradient id="paint35_radial_141_6035" cx="0" cy="0" r="1" gradientUnits="userSpaceOnUse" gradientTransform="translate(390.334 45.6232) scale(484.014 484.01)">
<stop stop-color="#FFADAD"/>
<stop offset="0.43" stop-color="#CC4747"/>
<stop offset="0.5" stop-color="#CC4343"/>
<stop offset="0.73" stop-color="#722929"/>
<stop offset="0.91" stop-color="#301515"/>
<stop offset="1" stop-color="#160E0E"/>
</radialGradient>
<radialGradient id="paint36_radial_141_6035" cx="0" cy="0" r="1" gradientUnits="userSpaceOnUse" gradientTransform="translate(390.346 45.6232) scale(484.02 484.025)">
<stop stop-color="#FFADAD"/>
<stop offset="0.43" stop-color="#CC4747"/>
<stop offset="0.5" stop-color="#CC4343"/>
<stop offset="0.73" stop-color="#722929"/>
<stop offset="0.91" stop-color="#301515"/>
<stop offset="1" stop-color="#160E0E"/>
</radialGradient>
<radialGradient id="paint37_radial_141_6035" cx="0" cy="0" r="1" gradientUnits="userSpaceOnUse" gradientTransform="translate(390.347 45.6232) scale(484.025 484.025)">
<stop stop-color="#FFADAD"/>
<stop offset="0.43" stop-color="#CC4747"/>
<stop offset="0.5" stop-color="#CC4343"/>
<stop offset="0.73" stop-color="#722929"/>
<stop offset="0.91" stop-color="#301515"/>
<stop offset="1" stop-color="#160E0E"/>
</radialGradient>
<radialGradient id="paint38_radial_141_6035" cx="0" cy="0" r="1" gradientUnits="userSpaceOnUse" gradientTransform="translate(390.347 45.6232) scale(484.028 484.025)">
<stop stop-color="#FFADAD"/>
<stop offset="0.43" stop-color="#CC4747"/>
<stop offset="0.5" stop-color="#CC4343"/>
<stop offset="0.73" stop-color="#722929"/>
<stop offset="0.91" stop-color="#301515"/>
<stop offset="1" stop-color="#160E0E"/>
</radialGradient>
<radialGradient id="paint39_radial_141_6035" cx="0" cy="0" r="1" gradientUnits="userSpaceOnUse" gradientTransform="translate(390.347 45.6233) scale(484.026 484.025)">
<stop stop-color="#FFADAD"/>
<stop offset="0.43" stop-color="#CC4747"/>
<stop offset="0.5" stop-color="#CC4343"/>
<stop offset="0.73" stop-color="#722929"/>
<stop offset="0.91" stop-color="#301515"/>
<stop offset="1" stop-color="#160E0E"/>
</radialGradient>
<radialGradient id="paint40_radial_141_6035" cx="0" cy="0" r="1" gradientUnits="userSpaceOnUse" gradientTransform="translate(390.347 45.6234) scale(484.024 484.024)">
<stop stop-color="#FFADAD"/>
<stop offset="0.43" stop-color="#CC4747"/>
<stop offset="0.5" stop-color="#CC4343"/>
<stop offset="0.73" stop-color="#722929"/>
<stop offset="0.91" stop-color="#301515"/>
<stop offset="1" stop-color="#160E0E"/>
</radialGradient>
<radialGradient id="paint41_radial_141_6035" cx="0" cy="0" r="1" gradientUnits="userSpaceOnUse" gradientTransform="translate(390.347 45.6232) scale(484.025 484.025)">
<stop stop-color="#FFADAD"/>
<stop offset="0.43" stop-color="#CC4747"/>
<stop offset="0.5" stop-color="#CC4343"/>
<stop offset="0.73" stop-color="#722929"/>
<stop offset="0.91" stop-color="#301515"/>
<stop offset="1" stop-color="#160E0E"/>
</radialGradient>
<radialGradient id="paint42_radial_141_6035" cx="0" cy="0" r="1" gradientUnits="userSpaceOnUse" gradientTransform="translate(390.347 45.6232) scale(484.011 484.01)">
<stop stop-color="#FFADAD"/>
<stop offset="0.43" stop-color="#CC4747"/>
<stop offset="0.5" stop-color="#CC4343"/>
<stop offset="0.73" stop-color="#722929"/>
<stop offset="0.91" stop-color="#301515"/>
<stop offset="1" stop-color="#160E0E"/>
</radialGradient>
<radialGradient id="paint43_radial_141_6035" cx="0" cy="0" r="1" gradientUnits="userSpaceOnUse" gradientTransform="translate(390.346 45.6234) scale(484.011 484.01)">
<stop stop-color="#FFADAD"/>
<stop offset="0.43" stop-color="#CC4747"/>
<stop offset="0.5" stop-color="#CC4343"/>
<stop offset="0.73" stop-color="#722929"/>
<stop offset="0.91" stop-color="#301515"/>
<stop offset="1" stop-color="#160E0E"/>
</radialGradient>
<radialGradient id="paint44_radial_141_6035" cx="0" cy="0" r="1" gradientUnits="userSpaceOnUse" gradientTransform="translate(390.346 45.6231) scale(484.024 484.025)">
<stop stop-color="#FFADAD"/>
<stop offset="0.43" stop-color="#CC4747"/>
<stop offset="0.5" stop-color="#CC4343"/>
<stop offset="0.73" stop-color="#722929"/>
<stop offset="0.91" stop-color="#301515"/>
<stop offset="1" stop-color="#160E0E"/>
</radialGradient>
<radialGradient id="paint45_radial_141_6035" cx="0" cy="0" r="1" gradientUnits="userSpaceOnUse" gradientTransform="translate(390.347 45.6231) scale(484.022 484.025)">
<stop stop-color="#FFADAD"/>
<stop offset="0.43" stop-color="#CC4747"/>
<stop offset="0.5" stop-color="#CC4343"/>
<stop offset="0.73" stop-color="#722929"/>
<stop offset="0.91" stop-color="#301515"/>
<stop offset="1" stop-color="#160E0E"/>
</radialGradient>
<radialGradient id="paint46_radial_141_6035" cx="0" cy="0" r="1" gradientUnits="userSpaceOnUse" gradientTransform="translate(471.93 310.562) scale(242.012 242.012)">
<stop stop-color="#FFADAD"/>
<stop offset="0.43" stop-color="#CC4747"/>
<stop offset="0.5" stop-color="#CC4343"/>
<stop offset="0.73" stop-color="#722929"/>
<stop offset="0.91" stop-color="#301515"/>
<stop offset="1" stop-color="#160E0E"/>
</radialGradient>
<radialGradient id="paint47_radial_141_6035" cx="0" cy="0" r="1" gradientUnits="userSpaceOnUse" gradientTransform="translate(471.929 310.562) scale(242.012 242.013)">
<stop stop-color="#FFADAD"/>
<stop offset="0.43" stop-color="#CC4747"/>
<stop offset="0.5" stop-color="#CC4343"/>
<stop offset="0.73" stop-color="#722929"/>
<stop offset="0.91" stop-color="#301515"/>
<stop offset="1" stop-color="#160E0E"/>
</radialGradient>
<radialGradient id="paint48_radial_141_6035" cx="0" cy="0" r="1" gradientUnits="userSpaceOnUse" gradientTransform="translate(471.93 310.562) scale(242.013 242.012)">
<stop stop-color="#FFADAD"/>
<stop offset="0.43" stop-color="#CC4747"/>
<stop offset="0.5" stop-color="#CC4343"/>
<stop offset="0.73" stop-color="#722929"/>
<stop offset="0.91" stop-color="#301515"/>
<stop offset="1" stop-color="#160E0E"/>
</radialGradient>
<radialGradient id="paint49_radial_141_6035" cx="0" cy="0" r="1" gradientUnits="userSpaceOnUse" gradientTransform="translate(471.929 310.562) scale(242.012 242.013)">
<stop stop-color="#FFADAD"/>
<stop offset="0.43" stop-color="#CC4747"/>
<stop offset="0.5" stop-color="#CC4343"/>
<stop offset="0.73" stop-color="#722929"/>
<stop offset="0.91" stop-color="#301515"/>
<stop offset="1" stop-color="#160E0E"/>
</radialGradient>
<radialGradient id="paint50_radial_141_6035" cx="0" cy="0" r="1" gradientUnits="userSpaceOnUse" gradientTransform="translate(471.929 310.562) scale(242.012 242.012)">
<stop stop-color="#FFADAD"/>
<stop offset="0.43" stop-color="#CC4747"/>
<stop offset="0.5" stop-color="#CC4343"/>
<stop offset="0.73" stop-color="#722929"/>
<stop offset="0.91" stop-color="#301515"/>
<stop offset="1" stop-color="#160E0E"/>
</radialGradient>
<radialGradient id="paint51_radial_141_6035" cx="0" cy="0" r="1" gradientUnits="userSpaceOnUse" gradientTransform="translate(471.929 310.562) scale(242.012 242.012)">
<stop stop-color="#FFADAD"/>
<stop offset="0.43" stop-color="#CC4747"/>
<stop offset="0.5" stop-color="#CC4343"/>
<stop offset="0.73" stop-color="#722929"/>
<stop offset="0.91" stop-color="#301515"/>
<stop offset="1" stop-color="#160E0E"/>
</radialGradient>
<radialGradient id="paint52_radial_141_6035" cx="0" cy="0" r="1" gradientUnits="userSpaceOnUse" gradientTransform="translate(471.93 310.562) scale(242.014 242.012)">
<stop stop-color="#FFADAD"/>
<stop offset="0.43" stop-color="#CC4747"/>
<stop offset="0.5" stop-color="#CC4343"/>
<stop offset="0.73" stop-color="#722929"/>
<stop offset="0.91" stop-color="#301515"/>
<stop offset="1" stop-color="#160E0E"/>
</radialGradient>
<radialGradient id="paint53_radial_141_6035" cx="0" cy="0" r="1" gradientUnits="userSpaceOnUse" gradientTransform="translate(471.929 310.562) scale(242.011 242.012)">
<stop stop-color="#FFADAD"/>
<stop offset="0.43" stop-color="#CC4747"/>
<stop offset="0.5" stop-color="#CC4343"/>
<stop offset="0.73" stop-color="#722929"/>
<stop offset="0.91" stop-color="#301515"/>
<stop offset="1" stop-color="#160E0E"/>
</radialGradient>
<radialGradient id="paint54_radial_141_6035" cx="0" cy="0" r="1" gradientUnits="userSpaceOnUse" gradientTransform="translate(471.929 310.562) scale(242.026 242.027)">
<stop stop-color="#FFADAD"/>
<stop offset="0.43" stop-color="#CC4747"/>
<stop offset="0.5" stop-color="#CC4343"/>
<stop offset="0.73" stop-color="#722929"/>
<stop offset="0.91" stop-color="#301515"/>
<stop offset="1" stop-color="#160E0E"/>
</radialGradient>
<radialGradient id="paint55_radial_141_6035" cx="0" cy="0" r="1" gradientUnits="userSpaceOnUse" gradientTransform="translate(471.93 310.562) scale(242.013 242.011)">
<stop stop-color="#FFADAD"/>
<stop offset="0.43" stop-color="#CC4747"/>
<stop offset="0.5" stop-color="#CC4343"/>
<stop offset="0.73" stop-color="#722929"/>
<stop offset="0.91" stop-color="#301515"/>
<stop offset="1" stop-color="#160E0E"/>
</radialGradient>
<radialGradient id="paint56_radial_141_6035" cx="0" cy="0" r="1" gradientUnits="userSpaceOnUse" gradientTransform="translate(471.929 310.562) scale(242.012 242.013)">
<stop stop-color="#FFADAD"/>
<stop offset="0.43" stop-color="#CC4747"/>
<stop offset="0.5" stop-color="#CC4343"/>
<stop offset="0.73" stop-color="#722929"/>
<stop offset="0.91" stop-color="#301515"/>
<stop offset="1" stop-color="#160E0E"/>
</radialGradient>
<radialGradient id="paint57_radial_141_6035" cx="0" cy="0" r="1" gradientUnits="userSpaceOnUse" gradientTransform="translate(471.93 310.562) scale(242.013 242.012)">
<stop stop-color="#FFADAD"/>
<stop offset="0.43" stop-color="#CC4747"/>
<stop offset="0.5" stop-color="#CC4343"/>
<stop offset="0.73" stop-color="#722929"/>
<stop offset="0.91" stop-color="#301515"/>
<stop offset="1" stop-color="#160E0E"/>
</radialGradient>
<radialGradient id="paint58_radial_141_6035" cx="0" cy="0" r="1" gradientUnits="userSpaceOnUse" gradientTransform="translate(471.93 310.562) scale(242.013 242.013)">
<stop stop-color="#FFADAD"/>
<stop offset="0.43" stop-color="#CC4747"/>
<stop offset="0.5" stop-color="#CC4343"/>
<stop offset="0.73" stop-color="#722929"/>
<stop offset="0.91" stop-color="#301515"/>
<stop offset="1" stop-color="#160E0E"/>
</radialGradient>
<radialGradient id="paint59_radial_141_6035" cx="0" cy="0" r="1" gradientUnits="userSpaceOnUse" gradientTransform="translate(471.93 310.562) scale(242.013 242.012)">
<stop stop-color="#FFADAD"/>
<stop offset="0.43" stop-color="#CC4747"/>
<stop offset="0.5" stop-color="#CC4343"/>
<stop offset="0.73" stop-color="#722929"/>
<stop offset="0.91" stop-color="#301515"/>
<stop offset="1" stop-color="#160E0E"/>
</radialGradient>
<radialGradient id="paint60_radial_141_6035" cx="0" cy="0" r="1" gradientUnits="userSpaceOnUse" gradientTransform="translate(245.261 228.159) scale(210.905)">
<stop/>
<stop offset="0.01" stop-color="#030202"/>
<stop offset="0.29" stop-color="#793D3D"/>
<stop offset="0.49" stop-color="#C46262"/>
<stop offset="0.58" stop-color="#E17171"/>
<stop offset="0.62" stop-color="#D86D6D"/>
<stop offset="0.68" stop-color="#C16161"/>
<stop offset="0.76" stop-color="#9A4E4E"/>
<stop offset="0.84" stop-color="#653333"/>
<stop offset="0.94" stop-color="#221111"/>
<stop offset="0.99"/>
</radialGradient>
<radialGradient id="paint61_radial_141_6035" cx="0" cy="0" r="1" gradientUnits="userSpaceOnUse" gradientTransform="translate(358.459 425.493) scale(9.18764 9.18766)">
<stop stop-color="white"/>
<stop offset="0.09" stop-color="#F7F9FC"/>
<stop offset="0.12" stop-color="#F3F6FA"/>
<stop offset="0.34" stop-color="#E17171"/>
<stop offset="0.36" stop-color="#CA6666"/>
<stop offset="0.42" stop-color="#9B4E4E"/>
<stop offset="0.48" stop-color="#723939"/>
<stop offset="0.55" stop-color="#4E2727"/>
<stop offset="0.62" stop-color="#321919"/>
<stop offset="0.69" stop-color="#1C0E0E"/>
<stop offset="0.77" stop-color="#0C0606"/>
<stop offset="0.86" stop-color="#030101"/>
<stop offset="0.99"/>
</radialGradient>
<radialGradient id="paint62_radial_141_6035" cx="0" cy="0" r="1" gradientUnits="userSpaceOnUse" gradientTransform="translate(358.459 425.493) scale(22.813 22.8132)">
<stop offset="0.13" stop-color="#E17171"/>
<stop offset="0.16" stop-color="#D46A6A"/>
<stop offset="0.28" stop-color="#9C4E4E"/>
<stop offset="0.41" stop-color="#6C3636"/>
<stop offset="0.53" stop-color="#452323"/>
<stop offset="0.65" stop-color="#271414"/>
<stop offset="0.77" stop-color="#110909"/>
<stop offset="0.88" stop-color="#040202"/>
<stop offset="0.99"/>
</radialGradient>
<radialGradient id="paint63_radial_141_6035" cx="0" cy="0" r="1" gradientUnits="userSpaceOnUse" gradientTransform="translate(404.085 314.22) scale(9.18764 9.18763)">
<stop stop-color="white"/>
<stop offset="0.09" stop-color="#F7F9FC"/>
<stop offset="0.12" stop-color="#F3F6FA"/>
<stop offset="0.34" stop-color="#E17171"/>
<stop offset="0.36" stop-color="#CA6666"/>
<stop offset="0.42" stop-color="#9B4E4E"/>
<stop offset="0.48" stop-color="#723939"/>
<stop offset="0.55" stop-color="#4E2727"/>
<stop offset="0.62" stop-color="#321919"/>
<stop offset="0.69" stop-color="#1C0E0E"/>
<stop offset="0.77" stop-color="#0C0606"/>
<stop offset="0.86" stop-color="#030101"/>
<stop offset="0.99"/>
</radialGradient>
<radialGradient id="paint64_radial_141_6035" cx="0" cy="0" r="1" gradientUnits="userSpaceOnUse" gradientTransform="translate(404.085 314.22) scale(22.8132 22.8132)">
<stop offset="0.13" stop-color="#E17171"/>
<stop offset="0.16" stop-color="#D46A6A"/>
<stop offset="0.28" stop-color="#9C4E4E"/>
<stop offset="0.41" stop-color="#6C3636"/>
<stop offset="0.53" stop-color="#452323"/>
<stop offset="0.65" stop-color="#271414"/>
<stop offset="0.77" stop-color="#110909"/>
<stop offset="0.88" stop-color="#040202"/>
<stop offset="0.99"/>
</radialGradient>
<radialGradient id="paint65_radial_141_6035" cx="0" cy="0" r="1" gradientUnits="userSpaceOnUse" gradientTransform="translate(468.824 188.415) scale(9.18777 9.18763)">
<stop stop-color="white"/>
<stop offset="0.09" stop-color="#F7F9FC"/>
<stop offset="0.12" stop-color="#F3F6FA"/>
<stop offset="0.34" stop-color="#E17171"/>
<stop offset="0.36" stop-color="#CA6666"/>
<stop offset="0.42" stop-color="#9B4E4E"/>
<stop offset="0.48" stop-color="#723939"/>
<stop offset="0.55" stop-color="#4E2727"/>
<stop offset="0.62" stop-color="#321919"/>
<stop offset="0.69" stop-color="#1C0E0E"/>
<stop offset="0.77" stop-color="#0C0606"/>
<stop offset="0.86" stop-color="#030101"/>
<stop offset="0.99"/>
</radialGradient>
<radialGradient id="paint66_radial_141_6035" cx="0" cy="0" r="1" gradientUnits="userSpaceOnUse" gradientTransform="translate(468.824 188.415) scale(22.8131 22.8132)">
<stop offset="0.13" stop-color="#E17171"/>
<stop offset="0.16" stop-color="#D46A6A"/>
<stop offset="0.28" stop-color="#9C4E4E"/>
<stop offset="0.41" stop-color="#6C3636"/>
<stop offset="0.53" stop-color="#452323"/>
<stop offset="0.65" stop-color="#271414"/>
<stop offset="0.77" stop-color="#110909"/>
<stop offset="0.88" stop-color="#040202"/>
<stop offset="0.99"/>
</radialGradient>
<radialGradient id="paint67_radial_141_6035" cx="0" cy="0" r="1" gradientUnits="userSpaceOnUse" gradientTransform="translate(349.272 119.989) scale(9.18764 9.18766)">
<stop stop-color="white"/>
<stop offset="0.09" stop-color="#F7F9FC"/>
<stop offset="0.12" stop-color="#F3F6FA"/>
<stop offset="0.34" stop-color="#E17171"/>
<stop offset="0.36" stop-color="#CA6666"/>
<stop offset="0.42" stop-color="#9B4E4E"/>
<stop offset="0.48" stop-color="#723939"/>
<stop offset="0.55" stop-color="#4E2727"/>
<stop offset="0.62" stop-color="#321919"/>
<stop offset="0.69" stop-color="#1C0E0E"/>
<stop offset="0.77" stop-color="#0C0606"/>
<stop offset="0.86" stop-color="#030101"/>
<stop offset="0.99"/>
</radialGradient>
<radialGradient id="paint68_radial_141_6035" cx="0" cy="0" r="1" gradientUnits="userSpaceOnUse" gradientTransform="translate(349.271 119.989) scale(22.8131 22.8132)">
<stop offset="0.13" stop-color="#E17171"/>
<stop offset="0.16" stop-color="#D46A6A"/>
<stop offset="0.28" stop-color="#9C4E4E"/>
<stop offset="0.41" stop-color="#6C3636"/>
<stop offset="0.53" stop-color="#452323"/>
<stop offset="0.65" stop-color="#271414"/>
<stop offset="0.77" stop-color="#110909"/>
<stop offset="0.88" stop-color="#040202"/>
<stop offset="0.99"/>
</radialGradient>
<radialGradient id="paint69_radial_141_6035" cx="0" cy="0" r="1" gradientUnits="userSpaceOnUse" gradientTransform="translate(243.217 33.2029) scale(9.18764 9.18766)">
<stop stop-color="white"/>
<stop offset="0.09" stop-color="#F7F9FC"/>
<stop offset="0.12" stop-color="#F3F6FA"/>
<stop offset="0.34" stop-color="#E17171"/>
<stop offset="0.36" stop-color="#CA6666"/>
<stop offset="0.42" stop-color="#9B4E4E"/>
<stop offset="0.48" stop-color="#723939"/>
<stop offset="0.55" stop-color="#4E2727"/>
<stop offset="0.62" stop-color="#321919"/>
<stop offset="0.69" stop-color="#1C0E0E"/>
<stop offset="0.77" stop-color="#0C0606"/>
<stop offset="0.86" stop-color="#030101"/>
<stop offset="0.99"/>
</radialGradient>
<radialGradient id="paint70_radial_141_6035" cx="0" cy="0" r="1" gradientUnits="userSpaceOnUse" gradientTransform="translate(243.217 33.2029) scale(22.8132 22.8132)">
<stop offset="0.13" stop-color="#E17171"/>
<stop offset="0.16" stop-color="#D46A6A"/>
<stop offset="0.28" stop-color="#9C4E4E"/>
<stop offset="0.41" stop-color="#6C3636"/>
<stop offset="0.53" stop-color="#452323"/>
<stop offset="0.65" stop-color="#271414"/>
<stop offset="0.77" stop-color="#110909"/>
<stop offset="0.88" stop-color="#040202"/>
<stop offset="0.99"/>
</radialGradient>
<radialGradient id="paint71_radial_141_6035" cx="0" cy="0" r="1" gradientUnits="userSpaceOnUse" gradientTransform="translate(86.7995 91.3914) scale(9.1876 9.18763)">
<stop stop-color="white"/>
<stop offset="0.09" stop-color="#F7F9FC"/>
<stop offset="0.12" stop-color="#F3F6FA"/>
<stop offset="0.34" stop-color="#E17171"/>
<stop offset="0.36" stop-color="#CA6666"/>
<stop offset="0.42" stop-color="#9B4E4E"/>
<stop offset="0.48" stop-color="#723939"/>
<stop offset="0.55" stop-color="#4E2727"/>
<stop offset="0.62" stop-color="#321919"/>
<stop offset="0.69" stop-color="#1C0E0E"/>
<stop offset="0.77" stop-color="#0C0606"/>
<stop offset="0.86" stop-color="#030101"/>
<stop offset="0.99"/>
</radialGradient>
<radialGradient id="paint72_radial_141_6035" cx="0" cy="0" r="1" gradientUnits="userSpaceOnUse" gradientTransform="translate(86.7725 91.3889) scale(22.8131 22.8132)">
<stop offset="0.13" stop-color="#E17171"/>
<stop offset="0.16" stop-color="#D46A6A"/>
<stop offset="0.28" stop-color="#9C4E4E"/>
<stop offset="0.41" stop-color="#6C3636"/>
<stop offset="0.53" stop-color="#452323"/>
<stop offset="0.65" stop-color="#271414"/>
<stop offset="0.77" stop-color="#110909"/>
<stop offset="0.88" stop-color="#040202"/>
<stop offset="0.99"/>
</radialGradient>
<radialGradient id="paint73_radial_141_6035" cx="0" cy="0" r="1" gradientUnits="userSpaceOnUse" gradientTransform="translate(22.4152 175.725) scale(9.1876 9.18764)">
<stop stop-color="white"/>
<stop offset="0.09" stop-color="#F7F9FC"/>
<stop offset="0.12" stop-color="#F3F6FA"/>
<stop offset="0.34" stop-color="#E17171"/>
<stop offset="0.36" stop-color="#CA6666"/>
<stop offset="0.42" stop-color="#9B4E4E"/>
<stop offset="0.48" stop-color="#723939"/>
<stop offset="0.55" stop-color="#4E2727"/>
<stop offset="0.62" stop-color="#321919"/>
<stop offset="0.69" stop-color="#1C0E0E"/>
<stop offset="0.77" stop-color="#0C0606"/>
<stop offset="0.86" stop-color="#030101"/>
<stop offset="0.99"/>
</radialGradient>
<radialGradient id="paint74_radial_141_6035" cx="0" cy="0" r="1" gradientUnits="userSpaceOnUse" gradientTransform="translate(22.4155 175.725) scale(22.8132 22.8131)">
<stop offset="0.13" stop-color="#E17171"/>
<stop offset="0.16" stop-color="#D46A6A"/>
<stop offset="0.28" stop-color="#9C4E4E"/>
<stop offset="0.41" stop-color="#6C3636"/>
<stop offset="0.53" stop-color="#452323"/>
<stop offset="0.65" stop-color="#271414"/>
<stop offset="0.77" stop-color="#110909"/>
<stop offset="0.88" stop-color="#040202"/>
<stop offset="0.99"/>
</radialGradient>
<radialGradient id="paint75_radial_141_6035" cx="0" cy="0" r="1" gradientUnits="userSpaceOnUse" gradientTransform="translate(101.148 248.616) scale(9.18764 9.18766)">
<stop stop-color="white"/>
<stop offset="0.09" stop-color="#F7F9FC"/>
<stop offset="0.12" stop-color="#F3F6FA"/>
<stop offset="0.34" stop-color="#E17171"/>
<stop offset="0.36" stop-color="#CA6666"/>
<stop offset="0.42" stop-color="#9B4E4E"/>
<stop offset="0.48" stop-color="#723939"/>
<stop offset="0.55" stop-color="#4E2727"/>
<stop offset="0.62" stop-color="#321919"/>
<stop offset="0.69" stop-color="#1C0E0E"/>
<stop offset="0.77" stop-color="#0C0606"/>
<stop offset="0.86" stop-color="#030101"/>
<stop offset="0.99"/>
</radialGradient>
<radialGradient id="paint76_radial_141_6035" cx="0" cy="0" r="1" gradientUnits="userSpaceOnUse" gradientTransform="translate(101.148 248.616) scale(22.8131 22.8132)">
<stop offset="0.13" stop-color="#E17171"/>
<stop offset="0.16" stop-color="#D46A6A"/>
<stop offset="0.28" stop-color="#9C4E4E"/>
<stop offset="0.41" stop-color="#6C3636"/>
<stop offset="0.53" stop-color="#452323"/>
<stop offset="0.65" stop-color="#271414"/>
<stop offset="0.77" stop-color="#110909"/>
<stop offset="0.88" stop-color="#040202"/>
<stop offset="0.99"/>
</radialGradient>
<radialGradient id="paint77_radial_141_6035" cx="0" cy="0" r="1" gradientUnits="userSpaceOnUse" gradientTransform="translate(78.3351 373.912) scale(9.18764 9.18763)">
<stop stop-color="white"/>
<stop offset="0.09" stop-color="#F7F9FC"/>
<stop offset="0.12" stop-color="#F3F6FA"/>
<stop offset="0.34" stop-color="#E17171"/>
<stop offset="0.36" stop-color="#CA6666"/>
<stop offset="0.42" stop-color="#9B4E4E"/>
<stop offset="0.48" stop-color="#723939"/>
<stop offset="0.55" stop-color="#4E2727"/>
<stop offset="0.62" stop-color="#321919"/>
<stop offset="0.69" stop-color="#1C0E0E"/>
<stop offset="0.77" stop-color="#0C0606"/>
<stop offset="0.86" stop-color="#030101"/>
<stop offset="0.99"/>
</radialGradient>
<radialGradient id="paint78_radial_141_6035" cx="0" cy="0" r="1" gradientUnits="userSpaceOnUse" gradientTransform="translate(78.3353 373.912) scale(22.8132 22.8132)">
<stop offset="0.13" stop-color="#E17171"/>
<stop offset="0.16" stop-color="#D46A6A"/>
<stop offset="0.28" stop-color="#9C4E4E"/>
<stop offset="0.41" stop-color="#6C3636"/>
<stop offset="0.53" stop-color="#452323"/>
<stop offset="0.65" stop-color="#271414"/>
<stop offset="0.77" stop-color="#110909"/>
<stop offset="0.88" stop-color="#040202"/>
<stop offset="0.99"/>
</radialGradient>
<radialGradient id="paint79_radial_141_6035" cx="0" cy="0" r="1" gradientUnits="userSpaceOnUse" gradientTransform="translate(177.159 432.894) scale(9.1876 9.18763)">
<stop stop-color="white"/>
<stop offset="0.09" stop-color="#F7F9FC"/>
<stop offset="0.12" stop-color="#F3F6FA"/>
<stop offset="0.34" stop-color="#E17171"/>
<stop offset="0.36" stop-color="#CA6666"/>
<stop offset="0.42" stop-color="#9B4E4E"/>
<stop offset="0.48" stop-color="#723939"/>
<stop offset="0.55" stop-color="#4E2727"/>
<stop offset="0.62" stop-color="#321919"/>
<stop offset="0.69" stop-color="#1C0E0E"/>
<stop offset="0.77" stop-color="#0C0606"/>
<stop offset="0.86" stop-color="#030101"/>
<stop offset="0.99"/>
</radialGradient>
<radialGradient id="paint80_radial_141_6035" cx="0" cy="0" r="1" gradientUnits="userSpaceOnUse" gradientTransform="translate(177.159 432.894) scale(22.8132 22.8131)">
<stop offset="0.13" stop-color="#E17171"/>
<stop offset="0.16" stop-color="#D46A6A"/>
<stop offset="0.28" stop-color="#9C4E4E"/>
<stop offset="0.41" stop-color="#6C3636"/>
<stop offset="0.53" stop-color="#452323"/>
<stop offset="0.65" stop-color="#271414"/>
<stop offset="0.77" stop-color="#110909"/>
<stop offset="0.88" stop-color="#040202"/>
<stop offset="0.99"/>
</radialGradient>
<radialGradient id="paint81_radial_141_6035" cx="0" cy="0" r="1" gradientUnits="userSpaceOnUse" gradientTransform="translate(335.646 24.2562) scale(9.1876 9.18764)">
<stop stop-color="white"/>
<stop offset="0.09" stop-color="#F7F9FC"/>
<stop offset="0.12" stop-color="#F3F6FA"/>
<stop offset="0.34" stop-color="#E17171"/>
<stop offset="0.36" stop-color="#CA6666"/>
<stop offset="0.42" stop-color="#9B4E4E"/>
<stop offset="0.48" stop-color="#723939"/>
<stop offset="0.55" stop-color="#4E2727"/>
<stop offset="0.62" stop-color="#321919"/>
<stop offset="0.69" stop-color="#1C0E0E"/>
<stop offset="0.77" stop-color="#0C0606"/>
<stop offset="0.86" stop-color="#030101"/>
<stop offset="0.99"/>
</radialGradient>
<radialGradient id="paint82_radial_141_6035" cx="0" cy="0" r="1" gradientUnits="userSpaceOnUse" gradientTransform="translate(335.646 24.2563) scale(22.8132 22.8132)">
<stop offset="0.13" stop-color="#E17171"/>
<stop offset="0.16" stop-color="#D46A6A"/>
<stop offset="0.28" stop-color="#9C4E4E"/>
<stop offset="0.41" stop-color="#6C3636"/>
<stop offset="0.53" stop-color="#452323"/>
<stop offset="0.65" stop-color="#271414"/>
<stop offset="0.77" stop-color="#110909"/>
<stop offset="0.88" stop-color="#040202"/>
<stop offset="0.99"/>
</radialGradient>
<radialGradient id="paint83_radial_141_6035" cx="0" cy="0" r="1" gradientUnits="userSpaceOnUse" gradientTransform="translate(220.12 75.4547) scale(9.18764 9.18766)">
<stop stop-color="white"/>
<stop offset="0.09" stop-color="#F7F9FC"/>
<stop offset="0.12" stop-color="#F3F6FA"/>
<stop offset="0.34" stop-color="#E17171"/>
<stop offset="0.36" stop-color="#CA6666"/>
<stop offset="0.42" stop-color="#9B4E4E"/>
<stop offset="0.48" stop-color="#723939"/>
<stop offset="0.55" stop-color="#4E2727"/>
<stop offset="0.62" stop-color="#321919"/>
<stop offset="0.69" stop-color="#1C0E0E"/>
<stop offset="0.77" stop-color="#0C0606"/>
<stop offset="0.86" stop-color="#030101"/>
<stop offset="0.99"/>
</radialGradient>
<radialGradient id="paint84_radial_141_6035" cx="0" cy="0" r="1" gradientUnits="userSpaceOnUse" gradientTransform="translate(220.12 75.4547) scale(22.8132 22.8132)">
<stop offset="0.13" stop-color="#E17171"/>
<stop offset="0.16" stop-color="#D46A6A"/>
<stop offset="0.28" stop-color="#9C4E4E"/>
<stop offset="0.41" stop-color="#6C3636"/>
<stop offset="0.53" stop-color="#452323"/>
<stop offset="0.65" stop-color="#271414"/>
<stop offset="0.77" stop-color="#110909"/>
<stop offset="0.88" stop-color="#040202"/>
<stop offset="0.99"/>
</radialGradient>
<radialGradient id="paint85_radial_141_6035" cx="0" cy="0" r="1" gradientUnits="userSpaceOnUse" gradientTransform="translate(291.097 357.053) scale(9.18764 9.18763)">
<stop stop-color="white"/>
<stop offset="0.09" stop-color="#F7F9FC"/>
<stop offset="0.12" stop-color="#F3F6FA"/>
<stop offset="0.34" stop-color="#E17171"/>
<stop offset="0.36" stop-color="#CA6666"/>
<stop offset="0.42" stop-color="#9B4E4E"/>
<stop offset="0.48" stop-color="#723939"/>
<stop offset="0.55" stop-color="#4E2727"/>
<stop offset="0.62" stop-color="#321919"/>
<stop offset="0.69" stop-color="#1C0E0E"/>
<stop offset="0.77" stop-color="#0C0606"/>
<stop offset="0.86" stop-color="#030101"/>
<stop offset="0.99"/>
</radialGradient>
<radialGradient id="paint86_radial_141_6035" cx="0" cy="0" r="1" gradientUnits="userSpaceOnUse" gradientTransform="translate(291.097 357.053) scale(22.8132 22.8132)">
<stop offset="0.13" stop-color="#E17171"/>
<stop offset="0.16" stop-color="#D46A6A"/>
<stop offset="0.28" stop-color="#9C4E4E"/>
<stop offset="0.41" stop-color="#6C3636"/>
<stop offset="0.53" stop-color="#452323"/>
<stop offset="0.65" stop-color="#271414"/>
<stop offset="0.77" stop-color="#110909"/>
<stop offset="0.88" stop-color="#040202"/>
<stop offset="0.99"/>
</radialGradient>
<radialGradient id="paint87_radial_141_6035" cx="0" cy="0" r="1" gradientUnits="userSpaceOnUse" gradientTransform="translate(381.272 208.406) scale(9.18777 9.18766)">
<stop stop-color="white"/>
<stop offset="0.09" stop-color="#F7F9FC"/>
<stop offset="0.12" stop-color="#F3F6FA"/>
<stop offset="0.34" stop-color="#E17171"/>
<stop offset="0.36" stop-color="#CA6666"/>
<stop offset="0.42" stop-color="#9B4E4E"/>
<stop offset="0.48" stop-color="#723939"/>
<stop offset="0.55" stop-color="#4E2727"/>
<stop offset="0.62" stop-color="#321919"/>
<stop offset="0.69" stop-color="#1C0E0E"/>
<stop offset="0.77" stop-color="#0C0606"/>
<stop offset="0.86" stop-color="#030101"/>
<stop offset="0.99"/>
</radialGradient>
<radialGradient id="paint88_radial_141_6035" cx="0" cy="0" r="1" gradientUnits="userSpaceOnUse" gradientTransform="translate(381.272 208.406) scale(22.8131 22.8132)">
<stop offset="0.13" stop-color="#E17171"/>
<stop offset="0.16" stop-color="#D46A6A"/>
<stop offset="0.28" stop-color="#9C4E4E"/>
<stop offset="0.41" stop-color="#6C3636"/>
<stop offset="0.53" stop-color="#452323"/>
<stop offset="0.65" stop-color="#271414"/>
<stop offset="0.77" stop-color="#110909"/>
<stop offset="0.88" stop-color="#040202"/>
<stop offset="0.99"/>
</radialGradient>
<radialGradient id="paint89_radial_141_6035" cx="0" cy="0" r="1" gradientUnits="userSpaceOnUse" gradientTransform="translate(175.401 331.56) scale(9.1876 9.18766)">
<stop stop-color="white"/>
<stop offset="0.09" stop-color="#F7F9FC"/>
<stop offset="0.12" stop-color="#F3F6FA"/>
<stop offset="0.34" stop-color="#E17171"/>
<stop offset="0.36" stop-color="#CA6666"/>
<stop offset="0.42" stop-color="#9B4E4E"/>
<stop offset="0.48" stop-color="#723939"/>
<stop offset="0.55" stop-color="#4E2727"/>
<stop offset="0.62" stop-color="#321919"/>
<stop offset="0.69" stop-color="#1C0E0E"/>
<stop offset="0.77" stop-color="#0C0606"/>
<stop offset="0.86" stop-color="#030101"/>
<stop offset="0.99"/>
</radialGradient>
<radialGradient id="paint90_radial_141_6035" cx="0" cy="0" r="1" gradientUnits="userSpaceOnUse" gradientTransform="translate(175.401 331.56) scale(22.8132 22.8132)">
<stop offset="0.13" stop-color="#E17171"/>
<stop offset="0.16" stop-color="#D46A6A"/>
<stop offset="0.28" stop-color="#9C4E4E"/>
<stop offset="0.41" stop-color="#6C3636"/>
<stop offset="0.53" stop-color="#452323"/>
<stop offset="0.65" stop-color="#271414"/>
<stop offset="0.77" stop-color="#110909"/>
<stop offset="0.88" stop-color="#040202"/>
<stop offset="0.99"/>
</radialGradient>
<radialGradient id="paint91_radial_141_6035" cx="0" cy="0" r="1" gradientUnits="userSpaceOnUse" gradientTransform="translate(127.789 184.912) scale(9.18777 9.18764)">
<stop stop-color="white"/>
<stop offset="0.09" stop-color="#F7F9FC"/>
<stop offset="0.12" stop-color="#F3F6FA"/>
<stop offset="0.34" stop-color="#E17171"/>
<stop offset="0.36" stop-color="#CA6666"/>
<stop offset="0.42" stop-color="#9B4E4E"/>
<stop offset="0.48" stop-color="#723939"/>
<stop offset="0.55" stop-color="#4E2727"/>
<stop offset="0.62" stop-color="#321919"/>
<stop offset="0.69" stop-color="#1C0E0E"/>
<stop offset="0.77" stop-color="#0C0606"/>
<stop offset="0.86" stop-color="#030101"/>
<stop offset="0.99"/>
</radialGradient>
<radialGradient id="paint92_radial_141_6035" cx="0" cy="0" r="1" gradientUnits="userSpaceOnUse" gradientTransform="translate(127.79 184.913) scale(22.8131 22.8132)">
<stop offset="0.13" stop-color="#E17171"/>
<stop offset="0.16" stop-color="#D46A6A"/>
<stop offset="0.28" stop-color="#9C4E4E"/>
<stop offset="0.41" stop-color="#6C3636"/>
<stop offset="0.53" stop-color="#452323"/>
<stop offset="0.65" stop-color="#271414"/>
<stop offset="0.77" stop-color="#110909"/>
<stop offset="0.88" stop-color="#040202"/>
<stop offset="0.99"/>
</radialGradient>
<radialGradient id="paint93_radial_141_6035" cx="0" cy="0" r="1" gradientUnits="userSpaceOnUse" gradientTransform="translate(468.824 294.243) scale(9.18777 9.18763)">
<stop stop-color="white"/>
<stop offset="0.09" stop-color="#F7F9FC"/>
<stop offset="0.12" stop-color="#F3F6FA"/>
<stop offset="0.34" stop-color="#E17171"/>
<stop offset="0.36" stop-color="#CA6666"/>
<stop offset="0.42" stop-color="#9B4E4E"/>
<stop offset="0.48" stop-color="#723939"/>
<stop offset="0.55" stop-color="#4E2727"/>
<stop offset="0.62" stop-color="#321919"/>
<stop offset="0.69" stop-color="#1C0E0E"/>
<stop offset="0.77" stop-color="#0C0606"/>
<stop offset="0.86" stop-color="#030101"/>
<stop offset="0.99"/>
</radialGradient>
<radialGradient id="paint94_radial_141_6035" cx="0" cy="0" r="1" gradientUnits="userSpaceOnUse" gradientTransform="translate(468.824 294.243) scale(22.8131 22.8132)">
<stop offset="0.13" stop-color="#E17171"/>
<stop offset="0.16" stop-color="#D46A6A"/>
<stop offset="0.28" stop-color="#9C4E4E"/>
<stop offset="0.41" stop-color="#6C3636"/>
<stop offset="0.53" stop-color="#452323"/>
<stop offset="0.65" stop-color="#271414"/>
<stop offset="0.77" stop-color="#110909"/>
<stop offset="0.88" stop-color="#040202"/>
<stop offset="0.99"/>
</radialGradient>
</defs>
</svg>
