<svg width="18" height="18" viewBox="0 0 18 18" fill="none" xmlns="http://www.w3.org/2000/svg">
<path fill-rule="evenodd" clip-rule="evenodd" d="M8.62468 15H3.84376C3.27639 15 2.79782 14.5775 2.72744 14.0145L2.25869 10.2645C2.21867 9.94434 2.31807 9.62238 2.53162 9.38047C2.74517 9.13856 3.05232 9 3.37501 9H8.15593C8.72331 9 9.20189 9.4225 9.27224 9.9855L9.74099 13.7355C9.78101 14.0557 9.6816 14.3776 9.46805 14.6195C9.2545 14.8614 8.94736 15 8.62468 15Z" stroke="#060011" stroke-linecap="round" stroke-linejoin="round"/>
<path d="M13.2791 15H8.47559" stroke="#060011" stroke-linecap="round" stroke-linejoin="round"/>
<circle cx="10.875" cy="4.3125" r="2.0625" stroke="#323232" stroke-linecap="round" stroke-linejoin="round"/>
<path d="M11.25 9H13.5C14.7426 9 15.75 10.0074 15.75 11.25V12C15.75 12.4142 15.4142 12.75 15 12.75H12.75" stroke="#060011" stroke-linecap="round" stroke-linejoin="round"/>
</svg>
