<svg width="24" height="24" viewBox="0 0 24 24" fill="none" xmlns="http://www.w3.org/2000/svg">
<path fill-rule="evenodd" clip-rule="evenodd" d="M3 12V12C3 16.971 7.029 21 12 21V21C16.971 21 21 16.971 21 12V12C21 7.029 16.971 3 12 3V3C7.029 3 3 7.029 3 12Z" stroke="url(#paint0_linear_44_3756)" stroke-width="1.5" stroke-linecap="round" stroke-linejoin="round"/>
<path d="M11 8H8" stroke="url(#paint1_linear_44_3756)" stroke-width="1.5" stroke-linecap="round" stroke-linejoin="round"/>
<path d="M9 12H7" stroke="url(#paint2_linear_44_3756)" stroke-width="1.5" stroke-linecap="round" stroke-linejoin="round"/>
<path d="M11 16H8" stroke="url(#paint3_linear_44_3756)" stroke-width="1.5" stroke-linecap="round" stroke-linejoin="round"/>
<path d="M16 15L13 12L16 9" stroke="url(#paint4_linear_44_3756)" stroke-width="1.5" stroke-linecap="round" stroke-linejoin="round"/>
<defs>
<linearGradient id="paint0_linear_44_3756" x1="21" y1="21" x2="1.73709" y2="19.5281" gradientUnits="userSpaceOnUse">
<stop stop-color="#1C007F"/>
<stop offset="1" stop-color="#A70096"/>
</linearGradient>
<linearGradient id="paint1_linear_44_3756" x1="11" y1="8.5" x2="7.93198" y2="7.79672" gradientUnits="userSpaceOnUse">
<stop stop-color="#1C007F"/>
<stop offset="1" stop-color="#A70096"/>
</linearGradient>
<linearGradient id="paint2_linear_44_3756" x1="9" y1="12.5" x2="6.89631" y2="12.1785" gradientUnits="userSpaceOnUse">
<stop stop-color="#1C007F"/>
<stop offset="1" stop-color="#A70096"/>
</linearGradient>
<linearGradient id="paint3_linear_44_3756" x1="11" y1="16.5" x2="7.93198" y2="15.7967" gradientUnits="userSpaceOnUse">
<stop stop-color="#1C007F"/>
<stop offset="1" stop-color="#A70096"/>
</linearGradient>
<linearGradient id="paint4_linear_44_3756" x1="16" y1="15" x2="12.7755" y2="14.8768" gradientUnits="userSpaceOnUse">
<stop stop-color="#1C007F"/>
<stop offset="1" stop-color="#A70096"/>
</linearGradient>
</defs>
</svg>
