<svg width="18" height="18" viewBox="0 0 18 18" fill="none" xmlns="http://www.w3.org/2000/svg">
<path d="M12.7516 6.7491V5.24847H11.251" stroke="#060011" stroke-linecap="round" stroke-linejoin="round"/>
<path d="M7.49902 6.96369L8.46393 5.99879L10.5003 7.49941L12.7512 5.24847" stroke="#060011" stroke-linecap="round" stroke-linejoin="round"/>
<path d="M10.5 10.1255L12.7509 10.1256" stroke="#060011" stroke-linecap="round" stroke-linejoin="round"/>
<path d="M10.5 12.3765L12.7509 12.3765" stroke="#060011" stroke-linecap="round" stroke-linejoin="round"/>
<path d="M2.24707 10.2005V15.3026C2.24793 15.9655 3.59077 16.5031 5.24832 16.5031C6.90587 16.5031 8.24871 15.9655 8.24957 15.3026V10.2005" stroke="#060011" stroke-linecap="round" stroke-linejoin="round"/>
<path d="M8.24871 10.2005C8.24871 10.8633 6.90501 11.401 5.24747 11.401C3.58992 11.401 2.24707 10.8633 2.24707 10.2005C2.24707 9.5368 3.59163 9 5.24832 9C6.90501 9 8.24871 9.53765 8.24957 10.2005" stroke="#060011" stroke-linecap="round" stroke-linejoin="round"/>
<path d="M2.24707 12.7516C2.24707 13.4144 3.58992 13.9521 5.24747 13.9521C6.90501 13.9521 8.24871 13.4144 8.24871 12.7516" stroke="#060011" stroke-linecap="round" stroke-linejoin="round"/>
<path d="M3.74805 6.74907V3.74782C3.74805 2.91905 4.4199 2.24719 5.24867 2.24719H14.2524C15.0812 2.24719 15.753 2.91905 15.753 3.74782V13.5019C15.753 14.3307 15.0812 15.0025 14.2524 15.0025H10.5009" stroke="#060011" stroke-linecap="round" stroke-linejoin="round"/>
</svg>
