<svg width="18" height="18" viewBox="0 0 18 18" fill="none" xmlns="http://www.w3.org/2000/svg">
<path d="M10.591 7.40901C11.4697 8.28769 11.4697 9.71231 10.591 10.591C9.71231 11.4697 8.28769 11.4697 7.40901 10.591C6.53033 9.71231 6.53033 8.28769 7.40901 7.40901C8.28769 6.53033 9.71231 6.53033 10.591 7.40901" stroke="#060011" stroke-linecap="round" stroke-linejoin="round"/>
<path fill-rule="evenodd" clip-rule="evenodd" d="M12.135 14.0438V14.0438C12.5123 14.421 13.125 14.421 13.5023 14.0438L14.0438 13.5023C14.421 13.125 14.421 12.5123 14.0438 12.135V12.135C13.7573 11.8485 13.6732 11.4188 13.8307 11.0453C13.8472 11.0055 13.8638 10.9658 13.8795 10.9253C14.0168 10.5758 14.3572 10.3507 14.7322 10.3507H14.7825C15.3165 10.3507 15.7493 9.918 15.7493 9.384V8.61825C15.7493 8.08425 15.3165 7.6515 14.7825 7.6515H14.7322C14.3572 7.6515 14.0168 7.42575 13.8795 7.077C13.8638 7.0365 13.8472 6.99675 13.8307 6.957C13.6732 6.5835 13.7573 6.15375 14.0438 5.86725V5.86725C14.421 5.49 14.421 4.87725 14.0438 4.5L13.5023 3.9585C13.125 3.58125 12.5123 3.58125 12.135 3.9585V3.9585C11.8485 4.245 11.4188 4.329 11.0453 4.1715C11.0055 4.155 10.9658 4.1385 10.9253 4.12275C10.5758 3.98325 10.35 3.642 10.35 3.267V3.21675C10.35 2.68275 9.91725 2.25 9.38325 2.25H8.6175C8.08275 2.25 7.65 2.68275 7.65 3.21675V3.267C7.65 3.642 7.42425 3.9825 7.0755 4.11975C7.035 4.13625 6.99525 4.152 6.9555 4.16925C6.582 4.32675 6.15225 4.24275 5.86575 3.95625V3.95625C5.4885 3.579 4.87575 3.579 4.4985 3.95625L3.95625 4.49775C3.579 4.875 3.579 5.48775 3.95625 5.865V5.865C4.24275 6.1515 4.32675 6.58125 4.16925 6.95475C4.152 6.99525 4.13625 7.035 4.1205 7.0755C3.98325 7.42425 3.642 7.65 3.267 7.65H3.21675C2.68275 7.65 2.25 8.08275 2.25 8.61675V9.3825C2.25 9.91725 2.68275 10.35 3.21675 10.35H3.267C3.642 10.35 3.9825 10.5757 4.11975 10.9245C4.1355 10.965 4.152 11.0047 4.1685 11.0445C4.326 11.418 4.242 11.8477 3.9555 12.1342V12.1342C3.57825 12.5115 3.57825 13.1242 3.9555 13.5015L4.497 14.043C4.87425 14.4202 5.487 14.4202 5.86425 14.043V14.043C6.15075 13.7565 6.5805 13.6725 6.954 13.83C6.99375 13.8465 7.0335 13.863 7.074 13.8788C7.4235 14.016 7.6485 14.3565 7.6485 14.7315V14.7817C7.6485 15.3157 8.08125 15.7485 8.61525 15.7485H9.381C9.915 15.7485 10.3477 15.3157 10.3477 14.7817V14.7315C10.3477 14.3565 10.5735 14.016 10.9222 13.8788C10.9627 13.863 11.0025 13.8465 11.0422 13.83C11.418 13.6733 11.8478 13.7573 12.135 14.0438V14.0438Z" stroke="#060011" stroke-linecap="round" stroke-linejoin="round"/>
</svg>
