<svg width="18" height="17" viewBox="0 0 18 17" fill="none" xmlns="http://www.w3.org/2000/svg">
<path d="M16.3636 15.3H18V17H0V15.3H1.63636V0.85C1.63636 0.624566 1.72256 0.408365 1.876 0.248959C2.02944 0.0895533 2.23755 0 2.45455 0H15.5455C15.7625 0 15.9706 0.0895533 16.124 0.248959C16.2774 0.408365 16.3636 0.624566 16.3636 0.85V15.3ZM14.7273 15.3V1.7H3.27273V15.3H14.7273ZM5.72727 7.65H8.18182V9.35H5.72727V7.65ZM5.72727 4.25H8.18182V5.95H5.72727V4.25ZM5.72727 11.05H8.18182V12.75H5.72727V11.05ZM9.81818 11.05H12.2727V12.75H9.81818V11.05ZM9.81818 7.65H12.2727V9.35H9.81818V7.65ZM9.81818 4.25H12.2727V5.95H9.81818V4.25Z" fill="#FFD88C"/>
</svg>
