<svg width="34" height="34" viewBox="0 0 34 34" fill="none" xmlns="http://www.w3.org/2000/svg">
<path fill-rule="evenodd" clip-rule="evenodd" d="M17 34C7.61116 34 0 26.3888 0 17C0 7.61116 7.61116 0 17 0C26.3888 0 34 7.61116 34 17C34 26.3888 26.3888 34 17 34ZM17.2369 16.0459C18.6288 16.0459 25.3969 12.24 25.3969 12.24L25.4077 11.56C25.4077 10.8093 24.7985 10.2 24.0457 10.2H10.428C9.67595 10.2 9.06667 10.8093 9.06667 11.56V12.1659C9.06667 12.1659 15.9088 16.0459 17.2369 16.0459ZM9.07755 14.28C9.07687 14.28 15.9088 17.9159 17.2369 17.9159C18.6927 17.9159 25.3969 14.28 25.3969 14.28L25.4077 22.44C25.4077 23.1907 24.7985 23.8 24.0457 23.8H10.428C9.67663 23.8 9.06667 23.1907 9.06667 22.44L9.07755 14.28Z" fill="white" fill-opacity="0.8"/>
</svg>
