<svg width="34" height="34" viewBox="0 0 34 34" fill="none" xmlns="http://www.w3.org/2000/svg">
<path fill-rule="evenodd" clip-rule="evenodd" d="M17 0C7.61116 0 0 7.61116 0 17C0 26.3888 7.61116 34 17 34C26.3888 34 34 26.3888 34 17C34 7.61116 26.3888 0 17 0ZM18.3842 22.3665C18.2166 22.5432 17.8893 22.5789 17.8893 22.5789H16.8055C16.8055 22.5789 14.4144 22.7199 12.308 20.5679C10.0109 18.2199 7.98259 13.5614 7.98259 13.5614C7.98259 13.5614 7.86552 13.2558 7.99235 13.1087C8.13514 12.9424 8.52449 12.932 8.52449 12.932L11.1151 12.9155C11.1151 12.9155 11.359 12.9546 11.5337 13.0809C11.6783 13.1853 11.759 13.3795 11.759 13.3795C11.759 13.3795 12.1776 14.4189 12.732 15.3592C13.8149 17.1952 14.3186 17.5966 14.6858 17.3998C15.2215 17.1134 15.061 14.8046 15.061 14.8046C15.061 14.8046 15.0707 13.9671 14.7913 13.5936C14.5749 13.3046 14.167 13.2202 13.9869 13.1967C13.8406 13.1775 14.08 12.8449 14.3905 12.6961C14.857 12.4723 15.68 12.4593 16.6529 12.4688C17.4112 12.4767 17.6294 12.5228 17.9256 12.5933C18.6131 12.7562 18.5917 13.2781 18.5454 14.4044C18.5315 14.7413 18.5154 15.1322 18.5154 15.5838C18.5154 15.6853 18.5124 15.7934 18.5093 15.9047C18.4932 16.4817 18.4748 17.1425 18.8622 17.3885C19.0609 17.5139 19.546 17.4068 20.7602 15.3835C21.3358 14.4242 21.7668 13.2968 21.7668 13.2968C21.7668 13.2968 21.8617 13.0957 22.0081 13.0095C22.1579 12.9215 22.3602 12.9485 22.3602 12.9485L25.0865 12.932C25.0865 12.932 25.906 12.8354 26.0381 13.1993C26.1774 13.5797 25.7322 14.4694 24.6182 15.9268C23.5615 17.3096 23.0473 17.8187 23.0945 18.269C23.129 18.598 23.4633 18.8956 24.1047 19.4796C25.4437 20.7 25.8026 21.342 25.8889 21.4963C25.896 21.509 25.9013 21.5185 25.9051 21.5246C26.5055 22.5023 25.239 22.5789 25.239 22.5789L22.8169 22.612C22.8169 22.612 22.2972 22.713 21.6125 22.2516C21.2538 22.0101 20.9034 21.6156 20.5695 21.24C20.0597 20.6662 19.5888 20.1362 19.1868 20.2614C18.5119 20.4721 18.5323 21.899 18.5323 21.899C18.5323 21.899 18.5376 22.2045 18.3842 22.3665Z" fill="white" fill-opacity="0.8"/>
</svg>
