<svg width="135" height="48" viewBox="0 0 135 48" fill="none" xmlns="http://www.w3.org/2000/svg">
<g clip-path="url(#clip0_54_100)">
<path d="M12.5581 32.5334L10.7218 32.0001L12.4989 31.4075C13.3282 31.1705 14.0391 30.6964 14.5722 30.0445C15.0461 29.3927 15.3423 28.6223 15.283 27.852C15.4015 26.3112 14.6314 24.7705 13.269 23.9408C11.8473 23.052 9.77402 22.5779 7.04914 22.5779C5.92365 22.5779 4.79816 22.6371 3.61343 22.7557C2.72488 22.8149 1.7771 23.052 0.947784 23.289C0.651602 23.4075 0.355419 23.526 0.118473 23.7631C0.0592365 24.0001 0 24.2371 0 24.4742V39.8816C0 40.7705 0.473892 41.3631 1.42168 41.7779C1.83633 41.9557 2.31022 42.0742 2.78412 42.1334C3.31724 42.252 3.85037 42.3112 4.32427 42.3705C4.85739 42.4297 5.33129 42.489 5.86441 42.489C6.33831 42.489 6.8122 42.489 7.16762 42.489C10.0702 42.489 12.3804 41.9557 13.8613 41.0075C15.3423 40.0594 15.9939 38.6371 15.9939 36.6816C16.0531 35.6742 15.6977 34.726 15.0461 34.0149C14.3945 33.3038 13.5059 32.7705 12.5581 32.5334ZM4.44274 25.9557L4.91663 25.8964C5.27205 25.8371 5.62747 25.7779 5.98289 25.7779C6.45678 25.7779 6.8122 25.7779 7.16762 25.7779C8.05617 25.7186 8.94471 25.8964 9.71479 26.3705C10.3664 26.7853 10.7218 27.4964 10.7218 28.2668C10.781 29.0371 10.4256 29.7483 9.83326 30.2816C9.12242 30.7557 8.23387 30.9927 7.40456 30.9334H4.44274V25.9557ZM11.2549 36.4445C11.3142 37.3334 10.8403 38.1631 10.1294 38.6371C9.35937 39.1112 8.53006 39.289 7.64151 39.289C7.16762 39.289 6.69373 39.289 6.21983 39.2297C5.80518 39.2297 5.33129 39.1705 4.91663 39.052L4.50197 38.9334V33.8371H7.81922C8.70777 33.7779 9.59631 33.9557 10.3664 34.3705C10.9588 34.8445 11.3142 35.6149 11.2549 36.4445ZM30.3883 28.4445C29.7367 27.852 28.9074 27.3779 28.0781 27.0816C27.1303 26.726 26.1233 26.6075 25.1163 26.6075C24.1685 26.6075 23.1615 26.7853 22.2729 27.0816C20.4366 27.6742 18.8964 29.0371 18.1264 30.8149C17.6525 31.9408 17.4748 33.126 17.4748 34.3112C17.4155 35.5557 17.6525 36.8001 18.1264 37.926C18.541 38.8742 19.1334 39.7631 19.9035 40.4742C20.6735 41.1853 21.6213 41.6594 22.6283 42.0149C23.7538 42.3705 24.8793 42.5483 26.0641 42.5483C26.8341 42.5483 27.6635 42.489 28.4335 42.3705C29.2036 42.252 29.9737 42.0149 30.6845 41.6594C31.3361 41.3631 31.7508 40.7112 31.7508 39.9408C31.7508 39.5853 31.6323 39.289 31.4546 38.9927C31.3361 38.8149 31.2176 38.6371 31.0399 38.4594C30.4476 38.7557 29.8552 38.9927 29.2628 39.1112C28.3743 39.3483 27.4857 39.4668 26.538 39.4668C25.5309 39.4668 24.5832 39.289 23.6946 38.8742C22.8653 38.5186 22.2137 37.7483 21.9175 36.9186L21.6213 36.2668L30.5068 34.9631C31.0399 34.9038 31.5138 34.726 31.9285 34.3705C32.2247 34.0149 32.4024 33.5408 32.4024 33.0668C32.4024 32.1779 32.2247 31.289 31.8692 30.5186C31.5138 29.689 31.0399 28.9779 30.3883 28.4445ZM21.4436 33.7186L21.5029 32.9482C21.5029 32.5334 21.6213 32.1186 21.7398 31.7631C22.036 30.8742 22.6876 30.1631 23.5169 29.8075C24.05 29.5705 24.5832 29.5112 25.1163 29.5112C25.9456 29.452 26.7749 29.7483 27.3673 30.3408C27.8412 30.8149 28.1373 31.3483 28.2558 32.0001L28.3151 32.5927L21.4436 33.7186ZM47.8039 24.4149C46.3229 23.1705 44.072 22.5779 41.2286 22.5779C40.2808 22.5779 39.333 22.6371 38.3853 22.7557C37.556 22.8742 36.7266 23.052 35.9566 23.289C35.6604 23.4075 35.3642 23.526 35.1273 23.7631C34.9495 23.9408 34.8903 24.1779 34.8903 24.4149V40.0001C34.8903 40.4149 34.9495 40.8297 35.068 41.1853C35.1273 41.4223 35.305 41.6001 35.4827 41.7186C35.7196 41.8964 35.9566 41.9557 36.1935 42.0149C36.6082 42.0742 37.0228 42.1334 37.4375 42.0742C37.9114 42.0742 38.4445 42.0149 38.9184 41.9557L39.5107 41.8371V35.7927H42.4726C43.5981 35.7927 44.7236 35.6742 45.8491 35.3186C46.7376 35.0223 47.5077 34.6075 48.1593 34.0149C48.7516 33.4223 49.2255 32.7705 49.5217 32.0001C49.8771 31.1112 49.9956 30.2223 49.9956 29.2742C50.1141 27.3779 49.2848 25.5408 47.8039 24.4149ZM44.4274 31.6445C43.7165 32.1779 42.828 32.4742 41.8802 32.4149H39.5107V26.1927L39.9846 26.0742C40.2216 26.0149 40.5178 26.0149 40.7547 25.9557C40.9917 25.9557 41.2878 25.9557 41.6433 25.9557C42.5911 25.8964 43.5388 26.1927 44.3089 26.7853C44.9605 27.3779 45.3159 28.2668 45.2567 29.1557C45.4344 30.1038 45.079 30.9927 44.4274 31.6445ZM61.369 28.6816C61.369 28.9186 61.3098 29.1557 61.2505 29.452C61.1913 29.5705 61.1913 29.689 61.1321 29.8668C60.7767 29.8668 60.4212 29.8668 60.0658 29.926C59.5919 29.9853 59.0588 30.0445 58.5849 30.1631C58.111 30.2816 57.6964 30.3408 57.2225 30.4594C56.8078 30.5779 56.4524 30.6964 56.097 30.8742L55.7416 31.052V42.0742C55.6231 42.0742 55.4454 42.1334 55.2084 42.1927C54.7345 42.252 54.2606 42.252 53.846 42.252C53.4313 42.252 53.0759 42.252 52.6613 42.1334C52.4243 42.0742 52.1281 42.0149 51.9504 41.8371C51.7727 41.6594 51.595 41.4816 51.5358 41.2445C51.4173 40.889 51.3581 40.5334 51.3581 40.1186V30.2816C51.3581 29.926 51.4173 29.5705 51.595 29.2149C51.7135 28.9186 51.9504 28.6223 52.1874 28.3853C52.5428 28.089 52.9574 27.852 53.3721 27.6742C53.9052 27.4371 54.4384 27.2594 54.9715 27.0816C55.5638 26.9038 56.1562 26.7853 56.7486 26.6668C57.3409 26.6075 57.9925 26.5483 58.5849 26.5483C59.355 26.489 60.1251 26.6668 60.7767 27.0816C61.1913 27.5557 61.4283 28.089 61.369 28.6816ZM75.7043 28.8001C74.9934 28.089 74.1049 27.5557 73.1571 27.2001C72.0908 26.7853 70.9653 26.6075 69.8398 26.6075C68.7143 26.6075 67.5889 26.7853 66.5226 27.1408C65.5748 27.4964 64.7455 28.0297 63.9754 28.6816C63.2646 29.3927 62.7315 30.2223 62.3168 31.1705C61.9021 32.2371 61.7244 33.3631 61.7244 34.489C61.7244 35.6149 61.9021 36.8001 62.3168 37.8668C62.6722 38.8149 63.2054 39.6445 63.9754 40.3557C64.6863 41.0668 65.5748 41.6001 66.5226 41.8964C67.5889 42.252 68.7143 42.489 69.8398 42.4297C70.9653 42.4297 72.0908 42.3112 73.1571 41.9557C74.1049 41.6594 74.9342 41.126 75.7043 40.4149C76.4151 39.7038 76.9482 38.8742 77.3036 37.926C77.7183 36.8001 77.896 35.6742 77.896 34.489C77.896 33.3631 77.7183 32.2371 77.3036 31.2297C76.9482 30.3408 76.4151 29.5112 75.7043 28.8001ZM72.5055 37.926C71.9131 38.8149 70.9653 39.3483 69.8991 39.289C68.8328 39.3483 67.885 38.8149 67.2334 37.9853C66.5818 36.9779 66.2857 35.7334 66.3449 34.5483C66.2857 33.3631 66.5818 32.1779 67.1742 31.1705C67.7666 30.2816 68.7736 29.8075 69.8398 29.8668C70.9061 29.8075 71.8539 30.3408 72.4463 31.1705C73.0979 32.1779 73.394 33.3631 73.3348 34.5483C73.394 35.7334 73.0979 36.9186 72.5055 37.926ZM93.8306 29.0964C93.5937 28.7408 93.2975 28.4445 92.9421 28.2075C92.172 27.6742 91.4019 27.2594 90.5134 27.0223C89.4471 26.726 88.3809 26.5483 87.2554 26.5483C86.1299 26.5483 85.0636 26.6668 83.9974 27.0223C83.1088 27.3186 82.2203 27.7334 81.5094 28.3853C80.7986 28.9779 80.2655 29.7483 79.8508 30.6371C79.4362 31.6445 79.2585 32.7705 79.2585 33.8964C79.2585 35.0223 79.4362 36.1483 79.7916 37.2149C80.147 38.0445 80.6209 38.8149 81.2725 39.4668C81.8649 40.0594 82.6349 40.4742 83.405 40.7112C84.2343 41.0075 85.1229 41.126 86.0706 41.126C87.1369 41.1853 88.1439 40.9482 89.1509 40.5927L89.9803 40.2371V41.7186C90.0395 42.726 89.5064 43.6742 88.6178 44.1483C87.67 44.6223 86.5445 44.8594 85.4783 44.8001C84.5897 44.8001 83.7012 44.6816 82.8126 44.3853C82.161 44.2075 81.5094 43.9705 80.9171 43.6149C80.7986 43.7334 80.7394 43.9112 80.6209 44.0297C80.4432 44.326 80.3839 44.7408 80.3839 45.0964C80.3247 46.0445 80.9171 46.8742 81.7464 47.1705C83.1681 47.7631 84.7082 48.0001 86.1891 47.9408C87.2554 47.9408 88.3216 47.8223 89.3287 47.526C90.2172 47.289 91.0465 46.9334 91.8166 46.4001C92.4682 45.8668 93.0606 45.2149 93.416 44.5038C93.8306 43.6742 94.0083 42.726 94.0083 41.7779V30.2223C94.1268 29.8075 94.0676 29.452 93.8306 29.0964ZM89.921 37.1557L89.6841 37.3334C88.9732 37.8668 88.0847 38.1631 87.1961 38.1038C86.2484 38.1038 85.3598 37.7483 84.7082 37.0964C84.0566 36.3853 83.7604 35.3779 83.7604 33.8964C83.7012 32.8297 84.0566 31.7631 84.7082 30.9334C85.4783 30.1631 86.4853 29.7483 87.5516 29.8075C87.9662 29.8075 88.3809 29.8668 88.8548 29.9853C89.1509 30.0445 89.3879 30.1631 89.6841 30.2816L89.9803 30.4594V37.1557H89.921Z" fill="#2D2D2D"/>
<path d="M134.941 29.9851C134.289 24.9481 131.801 20.3851 128.129 17.1259C128.543 16.3555 128.78 15.2888 128.721 14.1629C128.662 12.0296 127.773 9.18512 125.345 7.58512C123.034 6.04438 120.25 6.1629 118.118 7.05178C116.874 2.9629 113.023 -0.0593262 108.521 -0.0593262C103.427 -0.0593262 99.162 3.79253 98.5696 8.7703C88.6771 8.11845 78.9031 9.42216 69.4845 12.6814C68.8921 12.9185 68.5367 13.5703 68.7736 14.1629C68.9513 14.637 69.4252 14.9333 69.8991 14.9333C70.0176 14.9333 70.1361 14.9333 70.3138 14.874C79.4362 11.674 88.914 10.3703 98.5696 11.0814C99.1027 16.1185 103.368 20.0296 108.581 20.0296C114.149 20.0296 118.651 15.5259 118.651 9.95549C118.651 9.77771 118.651 9.59993 118.651 9.42216C120.191 8.59253 122.383 8.29623 124.16 9.48141C125.818 10.6073 126.47 12.6222 126.47 14.1629C126.47 14.7555 126.411 15.2296 126.292 15.5851C124.515 14.3407 122.501 13.3333 120.369 12.6814C119.717 12.5036 119.065 12.8592 118.888 13.4518C118.71 14.1036 119.065 14.7555 119.658 14.9333C121.85 15.5851 123.804 16.6518 125.581 17.9555C125.7 18.1333 125.878 18.2518 126.055 18.3703C129.61 21.3333 132.038 25.5407 132.69 30.2222C132.69 30.2222 132.69 30.2814 132.631 30.2814C129.728 32.0592 126.47 33.1851 123.094 33.4814C122.975 33.4814 122.857 33.4814 122.738 33.4814C122.56 33.4814 122.383 33.4814 122.205 33.4814C114.919 33.7777 109.528 30.2222 107.455 28.6222C106.922 28.2073 106.211 28.3259 105.796 28.7999C105.382 29.3333 105.5 30.0444 105.974 30.4592C107.751 31.8814 111.957 34.6666 117.585 35.5555C116.222 36.5036 114.978 37.6296 113.971 38.9333C112.609 40.7703 111.661 42.9036 111.246 45.1555C111.128 45.8073 111.542 46.3999 112.194 46.5185C112.253 46.5185 112.372 46.5185 112.431 46.5185C112.964 46.5185 113.497 46.1036 113.616 45.5703C113.971 43.674 114.8 41.8962 115.926 40.3555C117.585 38.1629 120.013 36.5629 122.62 35.7925C122.857 35.7925 123.094 35.7925 123.33 35.7333C127.062 35.3777 130.735 34.1925 133.934 32.1777C134.645 31.8814 135.059 30.9925 134.941 29.9851ZM108.521 17.7185C104.256 17.7185 100.821 14.2814 100.821 10.0147C100.821 5.74808 104.256 2.31104 108.521 2.31104C112.312 2.31104 115.511 5.09623 116.104 8.7703C116.104 8.94808 116.104 9.0666 116.163 9.24438C116.163 9.48141 116.222 9.77771 116.222 10.0147C116.222 14.2814 112.786 17.7185 108.521 17.7185ZM111.72 10.074C111.72 11.8518 110.298 13.2147 108.581 13.2147C106.803 13.2147 105.382 11.7925 105.382 10.074C105.382 8.35549 106.803 6.87401 108.581 6.87401C110.298 6.87401 111.72 8.29623 111.72 10.074ZM105.441 27.1407C104.789 27.1407 104.197 27.437 103.842 27.911C103.486 28.4444 103.486 29.1555 103.901 29.7481C104.256 30.2814 104.079 31.0518 103.545 31.4073C103.368 31.5259 103.131 31.5851 102.894 31.5851C102.479 31.5851 102.124 31.4073 101.887 31.0518C100.998 29.6888 100.998 27.9703 101.887 26.6073C102.716 25.4814 104.019 24.8296 105.382 24.8296H105.441C106.093 24.8296 106.626 25.3629 106.626 26.0147C106.626 26.6073 106.093 27.1407 105.441 27.1407Z" fill="#00BF91"/>
</g>
<defs>
<clipPath id="clip0_54_100">
<rect width="135" height="48" fill="white"/>
</clipPath>
</defs>
</svg>
