<svg width="169" height="60" viewBox="0 0 169 60" fill="none" xmlns="http://www.w3.org/2000/svg">
<g clip-path="url(#clip0_14_855)">
<path d="M15.7209 40.6666L13.4221 39.9999L15.6468 39.2592C16.685 38.9629 17.5748 38.3703 18.2422 37.5555C18.8355 36.7407 19.2062 35.7777 19.1321 34.8148C19.2804 32.8888 18.3164 30.9629 16.6108 29.9259C14.8311 28.8148 12.2356 28.2222 8.82448 28.2222C7.41553 28.2222 6.00658 28.2962 4.52348 28.4444C3.41115 28.5185 2.22466 28.8148 1.18649 29.1111C0.815709 29.2592 0.444932 29.4074 0.148311 29.7036C0.0741553 29.9999 0 30.2962 0 30.5925V49.8518C0 50.9629 0.593243 51.7036 1.77973 52.2222C2.29882 52.4444 2.89206 52.5925 3.4853 52.6666C4.1527 52.8148 4.8201 52.8888 5.41334 52.9629C6.08074 53.037 6.67398 53.1111 7.34138 53.1111C7.93462 53.1111 8.52786 53.1111 8.9728 53.1111C12.6064 53.1111 15.4985 52.4444 17.3523 51.2592C19.2062 50.074 20.0219 48.2962 20.0219 45.8518C20.0961 44.5925 19.6512 43.4074 18.8355 42.5185C18.0197 41.6296 16.9074 40.9629 15.7209 40.6666ZM5.56165 32.4444L6.15489 32.3703C6.59982 32.2962 7.04476 32.2222 7.48969 32.2222C8.08293 32.2222 8.52786 32.2222 8.9728 32.2222C10.0851 32.1481 11.1975 32.3703 12.1615 32.9629C12.9772 33.4814 13.4221 34.3703 13.4221 35.3333C13.4963 36.2962 13.0513 37.1851 12.3098 37.8518C11.4199 38.4444 10.3076 38.7407 9.26942 38.6666H5.56165V32.4444ZM14.0895 45.5555C14.1637 46.6666 13.5704 47.7036 12.6806 48.2962C11.7165 48.8888 10.6784 49.1111 9.56604 49.1111C8.9728 49.1111 8.37955 49.1111 7.78631 49.037C7.26722 49.037 6.67398 48.9629 6.15489 48.8148L5.63581 48.6666V42.2962H9.7885C10.9008 42.2222 12.0132 42.4444 12.9772 42.9629C13.7187 43.5555 14.1637 44.5185 14.0895 45.5555ZM38.0417 35.5555C37.226 34.8148 36.1878 34.2222 35.1496 33.8518C33.9631 33.4074 32.7025 33.2592 31.4419 33.2592C30.2554 33.2592 28.9947 33.4814 27.8824 33.8518C25.5836 34.5925 23.6556 36.2962 22.6915 38.5185C22.0983 39.9259 21.8758 41.4074 21.8758 42.8888C21.8017 44.4444 22.0983 45.9999 22.6915 47.4074C23.2106 48.5925 23.9522 49.7036 24.9162 50.5925C25.8802 51.4814 27.0667 52.074 28.3273 52.5185C29.7363 52.9629 31.1452 53.1851 32.6283 53.1851C33.5924 53.1851 34.6305 53.1111 35.5946 52.9629C36.5586 52.8148 37.5226 52.5185 38.4125 52.074C39.2282 51.7036 39.7473 50.8888 39.7473 49.9259C39.7473 49.4814 39.5989 49.1111 39.3765 48.7407C39.2282 48.5185 39.0799 48.2962 38.8574 48.074C38.1158 48.4444 37.3743 48.7407 36.6327 48.8888C35.5204 49.1851 34.4081 49.3333 33.2216 49.3333C31.9609 49.3333 30.7745 49.1111 29.6621 48.5925C28.624 48.1481 27.8083 47.1851 27.4375 46.1481L27.0667 45.3333L38.19 43.7036C38.8574 43.6296 39.4506 43.4074 39.9697 42.9629C40.3405 42.5185 40.563 41.9259 40.563 41.3333C40.563 40.2222 40.3405 39.1111 39.8956 38.1481C39.4506 37.1111 38.8574 36.2222 38.0417 35.5555ZM26.8442 42.1481L26.9184 41.1851C26.9184 40.6666 27.0667 40.1481 27.215 39.7036C27.5858 38.5925 28.4015 37.7036 29.4397 37.2592C30.1071 36.9629 30.7745 36.8888 31.4419 36.8888C32.48 36.8148 33.5182 37.1851 34.2598 37.9259C34.853 38.5185 35.2238 39.1851 35.3721 39.9999L35.4463 40.7407L26.8442 42.1481ZM59.8434 30.5185C57.9895 28.9629 55.1716 28.2222 51.6121 28.2222C50.4256 28.2222 49.2391 28.2962 48.0527 28.4444C47.0145 28.5925 45.9763 28.8148 45.0123 29.1111C44.6415 29.2592 44.2707 29.4074 43.9741 29.7036C43.7516 29.9259 43.6775 30.2222 43.6775 30.5185V49.9999C43.6775 50.5185 43.7516 51.037 43.9 51.4814C43.9741 51.7777 44.1966 51.9999 44.419 52.1481C44.7157 52.3703 45.0123 52.4444 45.3089 52.5185C45.828 52.5925 46.3471 52.6666 46.8662 52.5925C47.4594 52.5925 48.1268 52.5185 48.7201 52.4444L49.4616 52.2962V44.7407H53.1694C54.5783 44.7407 55.9873 44.5925 57.3962 44.1481C58.5086 43.7777 59.4726 43.2592 60.2883 42.5185C61.0298 41.7777 61.6231 40.9629 61.9939 39.9999C62.4388 38.8888 62.5871 37.7777 62.5871 36.5925C62.7354 34.2222 61.6972 31.9259 59.8434 30.5185ZM55.6165 39.5555C54.7266 40.2222 53.6143 40.5925 52.4278 40.5185H49.4616V32.7407L50.0549 32.5925C50.3515 32.5185 50.7223 32.5185 51.0189 32.4444C51.3155 32.4444 51.6863 32.4444 52.1312 32.4444C53.3177 32.3703 54.5042 32.7407 55.4682 33.4814C56.2839 34.2222 56.7288 35.3333 56.6547 36.4444C56.8771 37.6296 56.4322 38.7407 55.6165 39.5555ZM76.8249 35.8518C76.8249 36.1481 76.7508 36.4444 76.6766 36.8148C76.6025 36.9629 76.6025 37.1111 76.5283 37.3333C76.0834 37.3333 75.6384 37.3333 75.1935 37.4074C74.6003 37.4814 73.9329 37.5555 73.3396 37.7037C72.7464 37.8518 72.2273 37.9259 71.6341 38.074C71.115 38.2222 70.67 38.3703 70.2251 38.5925L69.7802 38.8148V52.5925C69.6319 52.5925 69.4094 52.6666 69.1128 52.7407C68.5195 52.8148 67.9263 52.8148 67.4072 52.8148C66.8881 52.8148 66.4432 52.8148 65.9241 52.6666C65.6275 52.5925 65.2567 52.5185 65.0342 52.2962C64.8118 52.074 64.5893 51.8518 64.5151 51.5555C64.3668 51.1111 64.2927 50.6666 64.2927 50.1481V37.8518C64.2927 37.4074 64.3668 36.9629 64.5893 36.5185C64.7376 36.1481 65.0342 35.7777 65.3308 35.4814C65.7758 35.1111 66.2949 34.8148 66.814 34.5925C67.4814 34.2962 68.1488 34.074 68.8162 33.8518C69.5577 33.6296 70.2993 33.4814 71.0408 33.3333C71.7824 33.2592 72.5981 33.1851 73.3396 33.1851C74.3036 33.1111 75.2677 33.3333 76.0834 33.8518C76.6025 34.4444 76.8991 35.1111 76.8249 35.8518ZM94.7705 35.9999C93.8807 35.1111 92.7683 34.4444 91.5818 33.9999C90.247 33.4814 88.8381 33.2592 87.4291 33.2592C86.0202 33.2592 84.6112 33.4814 83.2764 33.9259C82.09 34.3703 81.0518 35.037 80.0878 35.8518C79.1979 36.7407 78.5305 37.7777 78.0114 38.9629C77.4923 40.2962 77.2699 41.7036 77.2699 43.1111C77.2699 44.5185 77.4923 45.9999 78.0114 47.3333C78.4563 48.5185 79.1237 49.5555 80.0878 50.4444C80.9776 51.3333 82.09 51.9999 83.2764 52.3703C84.6112 52.8148 86.0202 53.1111 87.4291 53.037C88.8381 53.037 90.247 52.8888 91.5818 52.4444C92.7683 52.074 93.8065 51.4073 94.7705 50.5185C95.6604 49.6296 96.3278 48.5925 96.7727 47.4074C97.2918 45.9999 97.5143 44.5925 97.5143 43.1111C97.5143 41.7036 97.2918 40.2962 96.7727 39.037C96.3278 37.9259 95.6604 36.8888 94.7705 35.9999ZM90.7661 47.4074C90.0246 48.5185 88.8381 49.1851 87.5033 49.1111C86.1685 49.1851 84.982 48.5185 84.1663 47.4814C83.3506 46.2222 82.9798 44.6666 83.054 43.1851C82.9798 41.7036 83.3506 40.2222 84.0922 38.9629C84.8337 37.8518 86.0943 37.2592 87.4291 37.3333C88.7639 37.2592 89.9504 37.9259 90.692 38.9629C91.5077 40.2222 91.8785 41.7036 91.8043 43.1851C91.8785 44.6666 91.5077 46.1481 90.7661 47.4074ZM117.462 36.3703C117.165 35.9259 116.795 35.5555 116.35 35.2592C115.386 34.5925 114.422 34.074 113.309 33.7777C111.975 33.4074 110.64 33.1851 109.231 33.1851C107.822 33.1851 106.487 33.3333 105.152 33.7777C104.04 34.1481 102.928 34.6666 102.038 35.4814C101.148 36.2222 100.48 37.1851 99.9614 38.2962C99.4423 39.5555 99.2198 40.9629 99.2198 42.3703C99.2198 43.7777 99.4423 45.1851 99.8872 46.5185C100.332 47.5555 100.925 48.5185 101.741 49.3333C102.483 50.074 103.447 50.5925 104.411 50.8888C105.449 51.2592 106.561 51.4074 107.748 51.4074C109.083 51.4814 110.343 51.1851 111.604 50.7407L112.642 50.2962V52.1481C112.716 53.4074 112.049 54.5925 110.936 55.1851C109.75 55.7777 108.341 56.074 107.006 55.9999C105.894 55.9999 104.781 55.8518 103.669 55.4814C102.853 55.2592 102.038 54.9629 101.296 54.5185C101.148 54.6666 101.074 54.8888 100.925 55.037C100.703 55.4074 100.629 55.9259 100.629 56.3703C100.555 57.5555 101.296 58.5925 102.334 58.9629C104.114 59.7036 106.042 59.9999 107.896 59.9259C109.231 59.9259 110.566 59.7777 111.826 59.4073C112.939 59.1111 113.977 58.6666 114.941 57.9999C115.756 57.3333 116.498 56.5185 116.943 55.6296C117.462 54.5925 117.685 53.4074 117.685 52.2222V37.7777C117.833 37.2592 117.759 36.8148 117.462 36.3703ZM112.568 46.4444L112.271 46.6666C111.381 47.3333 110.269 47.7037 109.157 47.6296C107.97 47.6296 106.858 47.1851 106.042 46.3703C105.226 45.4814 104.856 44.2222 104.856 42.3703C104.781 41.037 105.226 39.7036 106.042 38.6666C107.006 37.7037 108.267 37.1851 109.602 37.2592C110.121 37.2592 110.64 37.3333 111.233 37.4814C111.604 37.5555 111.9 37.7036 112.271 37.8518L112.642 38.074V46.4444H112.568Z" fill="white"/>
<path d="M168.926 37.4813C168.11 31.185 164.996 25.4813 160.398 21.4073C160.917 20.4443 161.214 19.111 161.14 17.7036C161.065 15.0369 159.953 11.4813 156.913 9.48134C154.021 7.55541 150.535 7.70356 147.866 8.81467C146.309 3.70356 141.488 -0.0742188 135.853 -0.0742188C129.475 -0.0742188 124.136 4.7406 123.395 10.9628C111.011 10.148 98.7749 11.7776 86.9842 15.8517C86.2427 16.148 85.7978 16.9628 86.0944 17.7036C86.3168 18.2962 86.9101 18.6665 87.5033 18.6665C87.6516 18.6665 87.7999 18.6665 88.0224 18.5924C99.4423 14.5924 111.307 12.9628 123.395 13.8517C124.062 20.148 129.401 25.0369 135.927 25.0369C142.897 25.0369 148.533 19.4073 148.533 12.4443C148.533 12.2221 148.533 11.9999 148.533 11.7776C150.461 10.7406 153.205 10.3702 155.43 11.8517C157.506 13.2591 158.322 15.7776 158.322 17.7036C158.322 18.4443 158.248 19.0369 158.099 19.4813C155.875 17.9258 153.353 16.6665 150.684 15.8517C149.868 15.6295 149.052 16.0739 148.83 16.8147C148.607 17.6295 149.052 18.4443 149.794 18.6665C152.538 19.4813 154.985 20.8147 157.209 22.4443C157.358 22.6665 157.58 22.8147 157.803 22.9628C162.252 26.6665 165.292 31.9258 166.108 37.7776C166.108 37.7776 166.108 37.8517 166.034 37.8517C162.4 40.0739 158.322 41.4813 154.095 41.8517C153.947 41.8517 153.798 41.8517 153.65 41.8517C153.427 41.8517 153.205 41.8517 152.982 41.8517C143.861 42.2221 137.113 37.7776 134.518 35.7776C133.85 35.2591 132.961 35.4073 132.441 35.9999C131.922 36.6665 132.071 37.5554 132.664 38.0739C134.889 39.8517 140.154 43.3332 147.198 44.4443C145.493 45.6295 143.936 47.0369 142.675 48.6665C140.969 50.9628 139.783 53.6295 139.264 56.4443C139.115 57.2591 139.635 57.9999 140.45 58.148C140.524 58.148 140.673 58.148 140.747 58.148C141.414 58.148 142.082 57.6295 142.23 56.9628C142.675 54.5924 143.713 52.3702 145.122 50.4443C147.198 47.7036 150.239 45.7036 153.502 44.7406C153.798 44.7406 154.095 44.7406 154.391 44.6665C159.063 44.2221 163.661 42.7406 167.665 40.2221C168.555 39.8517 169.074 38.7406 168.926 37.4813ZM135.853 22.148C130.513 22.148 126.212 17.8517 126.212 12.5184C126.212 7.18504 130.513 2.88874 135.853 2.88874C140.599 2.88874 144.603 6.37023 145.344 10.9628C145.344 11.185 145.344 11.3332 145.419 11.5554C145.419 11.8517 145.493 12.2221 145.493 12.5184C145.493 17.8517 141.192 22.148 135.853 22.148ZM139.857 12.5924C139.857 14.8147 138.077 16.5184 135.927 16.5184C133.702 16.5184 131.922 14.7406 131.922 12.5924C131.922 10.4443 133.702 8.59245 135.927 8.59245C138.077 8.59245 139.857 10.3702 139.857 12.5924ZM131.997 33.9258C131.181 33.9258 130.439 34.2961 129.994 34.8887C129.549 35.5554 129.549 36.4443 130.068 37.185C130.513 37.8517 130.291 38.8147 129.624 39.2591C129.401 39.4073 129.104 39.4813 128.808 39.4813C128.289 39.4813 127.844 39.2591 127.547 38.8147C126.435 37.111 126.435 34.9628 127.547 33.2591C128.585 31.8517 130.217 31.0369 131.922 31.0369H131.997C132.812 31.0369 133.48 31.7036 133.48 32.5184C133.48 33.2591 132.812 33.9258 131.997 33.9258Z" fill="#00BF91"/>
</g>
<defs>
<clipPath id="clip0_14_855">
<rect width="169" height="60" fill="white"/>
</clipPath>
</defs>
</svg>
