<svg width="150" height="40" viewBox="0 0 150 40" fill="none" xmlns="http://www.w3.org/2000/svg">
<path d="M42 13.9747L28.3088 21.3671V18.7342L42 26.0253L36.9559 34.3291L24.1912 26.8354L25.6324 25.924L25.8382 40H16.1618L16.2647 25.924L17.7059 26.8354L4.94118 34.3291L0 26.0253L13.6912 18.7342V21.3671L0 13.9747L4.94118 5.67088L17.7059 13.2658L16.2647 14.0759L16.1618 0H25.8382L25.6324 14.0759L24.1912 13.2658L36.9559 5.67088L42 13.9747Z" fill="white"/>
<path d="M96 13.9747L82.3088 21.3671V18.7342L96 26.0253L90.9559 34.3291L78.1912 26.8354L79.6324 25.924L79.8382 40H70.1618L70.2647 25.924L71.7059 26.8354L58.9412 34.3291L54 26.0253L67.6912 18.7342V21.3671L54 13.9747L58.9412 5.67088L71.7059 13.2658L70.2647 14.0759L70.1618 0H79.8382L79.6324 14.0759L78.1912 13.2658L90.9559 5.67088L96 13.9747Z" fill="white"/>
<path d="M150 13.9747L136.309 21.3671V18.7342L150 26.0253L144.956 34.3291L132.191 26.8354L133.632 25.924L133.838 40H124.162L124.265 25.924L125.706 26.8354L112.941 34.3291L108 26.0253L121.691 18.7342V21.3671L108 13.9747L112.941 5.67088L125.706 13.2658L124.265 14.0759L124.162 0H133.838L133.632 14.0759L132.191 13.2658L144.956 5.67088L150 13.9747Z" fill="white"/>
</svg>
