<svg width="33" height="33" viewBox="0 0 33 33" fill="none" xmlns="http://www.w3.org/2000/svg">
<g id="logo">
<g id="Group 37394" filter="url(#filter0_d_105_26851)">
<g id="Group 12">
<path id="Rectangle 304" d="M17.2832 1L31.995 9.8092V12.7837L17.2832 9.12277V1Z" fill="url(#paint0_linear_105_26851)"/>
<path id="Rectangle 305" d="M17.2832 1L2.57137 9.8092V12.7837L17.2832 9.12277V1Z" fill="url(#paint1_linear_105_26851)"/>
</g>
<g id="Group 13">
<path id="Rectangle 306" d="M17.2891 12.2505L1.00097 15.1177V16.9923L17.2891 19.7492V12.2505Z" fill="#931DFF"/>
<path id="Rectangle 307" d="M17.2891 12.2505L29.3738 14.5663V17.4334L17.2891 19.7492V12.2505Z" fill="#9C4DE4"/>
<g id="Rectangle 308">
<path d="M17.288 22.7629L31.9998 19.2163V22.1908L17.288 31V22.7629Z" fill="url(#paint2_linear_105_26851)"/>
<path d="M17.288 31L2.57617 22.1908V19.3307L17.288 22.7629V31Z" fill="url(#paint3_linear_105_26851)"/>
</g>
</g>
</g>
</g>
<defs>
<filter id="filter0_d_105_26851" x="0.100991" y="0.437069" width="32.798" height="31.798" filterUnits="userSpaceOnUse" color-interpolation-filters="sRGB">
<feFlood flood-opacity="0" result="BackgroundImageFix"/>
<feColorMatrix in="SourceAlpha" type="matrix" values="0 0 0 0 0 0 0 0 0 0 0 0 0 0 0 0 0 0 127 0" result="hardAlpha"/>
<feOffset dy="0.336078"/>
<feGaussianBlur stdDeviation="0.449504"/>
<feComposite in2="hardAlpha" operator="out"/>
<feColorMatrix type="matrix" values="0 0 0 0 0 0 0 0 0 0 0 0 0 0 0 0 0 0 1 0"/>
<feBlend mode="normal" in2="BackgroundImageFix" result="effect1_dropShadow_105_26851"/>
<feBlend mode="normal" in="SourceGraphic" in2="effect1_dropShadow_105_26851" result="shape"/>
</filter>
<linearGradient id="paint0_linear_105_26851" x1="31.9184" y1="9.15217" x2="13.2443" y2="15.1389" gradientUnits="userSpaceOnUse">
<stop stop-color="#8F47F7"/>
<stop offset="1" stop-color="#6BB6ED"/>
</linearGradient>
<linearGradient id="paint1_linear_105_26851" x1="17.8438" y1="5.8913" x2="4.08273" y2="4.25051" gradientUnits="userSpaceOnUse">
<stop stop-color="#8F47F7"/>
<stop offset="1" stop-color="#6BB6ED"/>
</linearGradient>
<linearGradient id="paint2_linear_105_26851" x1="31.9211" y1="21" x2="-2.52212" y2="19.3264" gradientUnits="userSpaceOnUse">
<stop stop-color="#71BCF3"/>
<stop offset="1" stop-color="#962BF7"/>
</linearGradient>
<linearGradient id="paint3_linear_105_26851" x1="31.9211" y1="21" x2="-2.52212" y2="19.3264" gradientUnits="userSpaceOnUse">
<stop stop-color="#71BCF3"/>
<stop offset="1" stop-color="#962BF7"/>
</linearGradient>
</defs>
</svg>
