<svg width="253" height="33" viewBox="0 0 253 33" fill="none" xmlns="http://www.w3.org/2000/svg">
<g filter="url(#filter0_d_106_40921)">
<path d="M130.285 1L144.997 9.8092V12.7837L130.285 9.12277V1Z" fill="url(#paint0_linear_106_40921)"/>
<path d="M130.285 1L115.573 9.8092V12.7837L130.285 9.12277V1Z" fill="url(#paint1_linear_106_40921)"/>
<path d="M130.289 12.2505L114.001 15.1177V16.9923L130.289 19.7492V12.2505Z" fill="#931DFF"/>
<path d="M130.289 12.2505L142.374 14.5663V17.4334L130.289 19.7492V12.2505Z" fill="#9C4DE4"/>
<path d="M130.288 22.7629L145 19.2163V22.1908L130.288 31V22.7629Z" fill="url(#paint2_linear_106_40921)"/>
<path d="M130.288 31L115.576 22.1908V19.3307L130.288 22.7629V31Z" fill="url(#paint3_linear_106_40921)"/>
</g>
<g filter="url(#filter1_d_106_40921)">
<path d="M1 26V5H21.4342V8.60425H7.654V13.7277H20.4898V17.3319H7.654V26H1Z" fill="white"/>
<path d="M1 26V5H21.4342V8.60425H7.654V13.7277H20.4898V17.3319H7.654V26H1Z" fill="url(#paint4_linear_106_40921)"/>
<path d="M25.483 26V5H32.137V22.0979H46.1318V26H25.483Z" fill="white"/>
<path d="M25.483 26V5H32.137V22.0979H46.1318V26H25.483Z" fill="url(#paint5_linear_106_40921)"/>
<path d="M50.0917 26V5H70.8264V8.60425H56.4452V13.5191H69.8819V17.1532H56.4452V22.3957H70.8264V26H50.0917Z" fill="white"/>
<path d="M50.0917 26V5H70.8264V8.60425H56.4452V13.5191H69.8819V17.1532H56.4452V22.3957H70.8264V26H50.0917Z" fill="url(#paint6_linear_106_40921)"/>
<path d="M72.2662 26L83.8141 15.366L72.6096 5H80.3368L87.6348 12L94.8898 5H102.66L91.4125 15.366L102.96 26H95.1903L87.5918 18.7617L80.0793 26H72.2662Z" fill="white"/>
<path d="M72.2662 26L83.8141 15.366L72.6096 5H80.3368L87.6348 12L94.8898 5H102.66L91.4125 15.366L102.96 26H95.1903L87.5918 18.7617L80.0793 26H72.2662Z" fill="url(#paint7_linear_106_40921)"/>
<path d="M105.346 26V5H112V26H105.346Z" fill="white"/>
<path d="M105.346 26V5H112V26H105.346Z" fill="url(#paint8_linear_106_40921)"/>
</g>
<g filter="url(#filter2_d_106_40921)">
<path d="M149 26V5H154.523L164.712 17.8979L174.859 5H180.296V26H174.26V13.1915L166.468 22.8426H162.743L154.994 13.2809V26H149Z" fill="white"/>
<path d="M149 26V5H154.523L164.712 17.8979L174.859 5H180.296V26H174.26V13.1915L166.468 22.8426H162.743L154.994 13.2809V26H149Z" fill="url(#paint9_linear_106_40921)"/>
<path d="M186.418 26V5H193.054V26H186.418Z" fill="white"/>
<path d="M186.418 26V5H193.054V26H186.418Z" fill="url(#paint10_linear_106_40921)"/>
<path d="M199.086 26V5H204.01L219.08 18.3745V5H225.245V26H220.364L205.251 12.5957V26H199.086Z" fill="white"/>
<path d="M199.086 26V5H204.01L219.08 18.3745V5H225.245V26H220.364L205.251 12.5957V26H199.086Z" fill="url(#paint11_linear_106_40921)"/>
<path d="M231.321 26V5H252V8.60425H237.658V13.5191H251.058V17.1532H237.658V22.3957H252V26H231.321Z" fill="white"/>
<path d="M231.321 26V5H252V8.60425H237.658V13.5191H251.058V17.1532H237.658V22.3957H252V26H231.321Z" fill="url(#paint12_linear_106_40921)"/>
</g>
<defs>
<filter id="filter0_d_106_40921" x="113.101" y="0.437069" width="32.798" height="31.798" filterUnits="userSpaceOnUse" color-interpolation-filters="sRGB">
<feFlood flood-opacity="0" result="BackgroundImageFix"/>
<feColorMatrix in="SourceAlpha" type="matrix" values="0 0 0 0 0 0 0 0 0 0 0 0 0 0 0 0 0 0 127 0" result="hardAlpha"/>
<feOffset dy="0.336078"/>
<feGaussianBlur stdDeviation="0.449504"/>
<feComposite in2="hardAlpha" operator="out"/>
<feColorMatrix type="matrix" values="0 0 0 0 0 0 0 0 0 0 0 0 0 0 0 0 0 0 1 0"/>
<feBlend mode="normal" in2="BackgroundImageFix" result="effect1_dropShadow_106_40921"/>
<feBlend mode="normal" in="SourceGraphic" in2="effect1_dropShadow_106_40921" result="shape"/>
</filter>
<filter id="filter1_d_106_40921" x="0.0124103" y="5" width="112.975" height="22.9752" filterUnits="userSpaceOnUse" color-interpolation-filters="sRGB">
<feFlood flood-opacity="0" result="BackgroundImageFix"/>
<feColorMatrix in="SourceAlpha" type="matrix" values="0 0 0 0 0 0 0 0 0 0 0 0 0 0 0 0 0 0 127 0" result="hardAlpha"/>
<feOffset dy="0.98759"/>
<feGaussianBlur stdDeviation="0.493795"/>
<feComposite in2="hardAlpha" operator="out"/>
<feColorMatrix type="matrix" values="0 0 0 0 0 0 0 0 0 0 0 0 0 0 0 0 0 0 0.85 0"/>
<feBlend mode="normal" in2="BackgroundImageFix" result="effect1_dropShadow_106_40921"/>
<feBlend mode="normal" in="SourceGraphic" in2="effect1_dropShadow_106_40921" result="shape"/>
</filter>
<filter id="filter2_d_106_40921" x="148.012" y="5" width="104.975" height="22.9752" filterUnits="userSpaceOnUse" color-interpolation-filters="sRGB">
<feFlood flood-opacity="0" result="BackgroundImageFix"/>
<feColorMatrix in="SourceAlpha" type="matrix" values="0 0 0 0 0 0 0 0 0 0 0 0 0 0 0 0 0 0 127 0" result="hardAlpha"/>
<feOffset dy="0.98759"/>
<feGaussianBlur stdDeviation="0.493795"/>
<feComposite in2="hardAlpha" operator="out"/>
<feColorMatrix type="matrix" values="0 0 0 0 0 0 0 0 0 0 0 0 0 0 0 0 0 0 0.85 0"/>
<feBlend mode="normal" in2="BackgroundImageFix" result="effect1_dropShadow_106_40921"/>
<feBlend mode="normal" in="SourceGraphic" in2="effect1_dropShadow_106_40921" result="shape"/>
</filter>
<linearGradient id="paint0_linear_106_40921" x1="144.92" y1="9.15217" x2="126.246" y2="15.1389" gradientUnits="userSpaceOnUse">
<stop stop-color="#8F47F7"/>
<stop offset="1" stop-color="#6BB6ED"/>
</linearGradient>
<linearGradient id="paint1_linear_106_40921" x1="130.846" y1="5.8913" x2="117.085" y2="4.25051" gradientUnits="userSpaceOnUse">
<stop stop-color="#8F47F7"/>
<stop offset="1" stop-color="#6BB6ED"/>
</linearGradient>
<linearGradient id="paint2_linear_106_40921" x1="144.921" y1="21" x2="110.478" y2="19.3264" gradientUnits="userSpaceOnUse">
<stop stop-color="#71BCF3"/>
<stop offset="1" stop-color="#962BF7"/>
</linearGradient>
<linearGradient id="paint3_linear_106_40921" x1="144.921" y1="21" x2="110.478" y2="19.3264" gradientUnits="userSpaceOnUse">
<stop stop-color="#71BCF3"/>
<stop offset="1" stop-color="#962BF7"/>
</linearGradient>
<linearGradient id="paint4_linear_106_40921" x1="56.5" y1="5" x2="56.5" y2="26" gradientUnits="userSpaceOnUse">
<stop stop-color="#74BFF5"/>
<stop offset="1" stop-color="#1A6CA7"/>
</linearGradient>
<linearGradient id="paint5_linear_106_40921" x1="56.5" y1="5" x2="56.5" y2="26" gradientUnits="userSpaceOnUse">
<stop stop-color="#74BFF5"/>
<stop offset="1" stop-color="#1A6CA7"/>
</linearGradient>
<linearGradient id="paint6_linear_106_40921" x1="56.5" y1="5" x2="56.5" y2="26" gradientUnits="userSpaceOnUse">
<stop stop-color="#74BFF5"/>
<stop offset="1" stop-color="#1A6CA7"/>
</linearGradient>
<linearGradient id="paint7_linear_106_40921" x1="56.5" y1="5" x2="56.5" y2="26" gradientUnits="userSpaceOnUse">
<stop stop-color="#74BFF5"/>
<stop offset="1" stop-color="#1A6CA7"/>
</linearGradient>
<linearGradient id="paint8_linear_106_40921" x1="56.5" y1="5" x2="56.5" y2="26" gradientUnits="userSpaceOnUse">
<stop stop-color="#74BFF5"/>
<stop offset="1" stop-color="#1A6CA7"/>
</linearGradient>
<linearGradient id="paint9_linear_106_40921" x1="200.5" y1="5" x2="200.5" y2="26" gradientUnits="userSpaceOnUse">
<stop stop-color="#9C4DE3"/>
<stop offset="1" stop-color="#931CFF"/>
</linearGradient>
<linearGradient id="paint10_linear_106_40921" x1="200.5" y1="5" x2="200.5" y2="26" gradientUnits="userSpaceOnUse">
<stop stop-color="#9C4DE3"/>
<stop offset="1" stop-color="#931CFF"/>
</linearGradient>
<linearGradient id="paint11_linear_106_40921" x1="200.5" y1="5" x2="200.5" y2="26" gradientUnits="userSpaceOnUse">
<stop stop-color="#9C4DE3"/>
<stop offset="1" stop-color="#931CFF"/>
</linearGradient>
<linearGradient id="paint12_linear_106_40921" x1="200.5" y1="5" x2="200.5" y2="26" gradientUnits="userSpaceOnUse">
<stop stop-color="#9C4DE3"/>
<stop offset="1" stop-color="#931CFF"/>
</linearGradient>
</defs>
</svg>
