<svg width="93" height="23" viewBox="0 0 93 23" fill="none" xmlns="http://www.w3.org/2000/svg">
<path d="M11.3656 22.6034C8.10033 17.6923 6.93865 16.7162 4.6467 16.6247V22.6034H0V1.25066H4.6467V12.6592C6.84447 12.5981 7.75497 11.7745 10.9888 7.19894H16.4832C12.8412 12.6286 11.4598 13.8183 8.3515 14.0318V15.3435C11.6481 15.5875 13.218 16.9907 16.9228 22.6034H11.3656Z" fill="white"/>
<path d="M26.2885 23C21.1081 23 17.4033 19.5836 17.4033 14.9164C17.4033 10.2188 21.1395 6.83289 26.3199 6.83289C32.0655 6.83289 35.9273 10.9814 35.1424 16.3196H21.9244C22.3326 18.2719 23.9966 19.553 26.2885 19.553C27.9526 19.553 29.3654 18.882 30.1817 17.7228H34.797C33.5412 20.9562 30.3073 23 26.2885 23ZM21.893 13.5438H30.7783C30.3387 11.5305 28.6433 10.2493 26.3199 10.2493C23.9966 10.2493 22.3326 11.561 21.893 13.5438Z" fill="white"/>
<path d="M38.0672 22.6034V7.19894H42.7139V22.6034H38.0672ZM37.659 4.5756V0H43.0279V4.5756H37.659Z" fill="white"/>
<path d="M50.9052 22.6034H46.4155V1.25066H51.0622C51.1878 6.8634 50.968 8.26658 49.618 10.8289L50.968 11.439C52.3181 8.48011 54.5472 6.8634 57.4671 6.8634C61.6743 6.8634 64.6883 10.2493 64.6883 14.9164C64.6883 19.5531 61.6429 22.939 57.4671 22.939C54.5786 22.939 52.3809 21.3528 51.0308 18.3329L49.6807 18.9735C50.5285 20.4072 50.8738 21.4138 50.9052 22.6034ZM55.5519 19.1565C58.252 19.1565 60.1044 17.4483 60.1044 14.9164C60.1044 12.3541 58.252 10.6459 55.5519 10.6459C52.8518 10.6459 51.0308 12.3541 51.0308 14.9164C51.0308 17.4483 52.8518 19.1565 55.5519 19.1565Z" fill="white"/>
<path d="M72.3523 22.9695C68.8359 22.9695 66.6067 21.2613 66.6067 18.5159C66.6067 15.8926 68.5533 14.1233 71.6616 13.8183L76.7164 13.3302C77.9095 13.2082 78.663 12.6286 78.663 11.7745C78.663 10.7374 77.5641 10.1578 75.6803 10.1578C73.671 10.1578 72.3523 10.8899 72.0069 12.2321H67.423C68.0824 8.81565 71.0964 6.83289 75.6175 6.83289C80.5154 6.83289 83.2783 9.1817 83.2783 13.3607V17.6313C83.2783 18.6989 83.7179 19.004 85.4447 18.882V22.6034C81.4259 23.0305 79.8561 21.8408 80.6724 19.0345L79.3537 18.6074C78.1921 21.3833 75.7117 22.9695 72.3523 22.9695ZM73.5768 19.6751C76.1513 19.6751 78.2235 18.0279 79.291 15.13L78.1293 14.4894C77.3758 15.5875 76.5281 15.9841 74.9896 16.1976L73.2628 16.4111C71.9441 16.5637 71.1592 17.2042 71.1592 18.1499C71.1592 19.0955 72.0383 19.6751 73.5768 19.6751Z" fill="white"/>
<path d="M88.0393 22.6034V7.19894H92.686V22.6034H88.0393ZM87.6312 4.5756V0H93V4.5756H87.6312Z" fill="white"/>
</svg>
