<svg width="612" height="386" viewBox="0 0 612 386" fill="none" xmlns="http://www.w3.org/2000/svg">
<rect width="612" height="386" fill="black"/>
<g clip-path="url(#clip0_111_160)">
<path d="M424.077 103.134V111.721C424.633 111.264 424.992 110.992 425.313 110.696C431.592 104.963 439.045 102.023 447.45 101.257C454.038 100.651 460.514 101.071 466.707 103.53C477.312 107.718 483.541 115.761 486.471 126.559C487.546 130.525 487.954 134.577 487.954 138.679C487.954 158.347 487.941 178.004 487.954 197.672C487.966 208.779 495.382 219.305 505.851 222.999C508.212 223.827 510.709 224.235 513.304 224.865V248.549C510.326 248.314 507.359 248.314 504.467 247.82C486.298 244.657 473.666 234.279 465.916 217.786C463.147 211.88 462.245 205.517 462.257 199.006C462.282 180.129 462.307 161.251 462.232 142.36C462.208 135.948 459.884 130.475 454.285 126.942C444.323 120.653 428.007 125.039 426.376 140.112C426.252 141.273 426.19 142.447 426.19 143.621C426.19 161.288 426.19 178.943 426.19 196.61C426.19 197.829 425.568 198.438 424.324 198.438C416.834 198.438 409.344 198.413 401.853 198.463C400.605 198.463 400.222 198.092 400.222 196.832C400.247 166.118 400.247 135.405 400.222 104.691C400.222 103.419 400.605 103.097 401.841 103.11C408.763 103.172 415.684 103.134 422.618 103.134H424.089H424.077Z" fill="white"/>
<path d="M104.703 166.847C107.372 169.034 109.881 171.32 112.638 173.284C118.373 177.398 124.825 179.56 131.907 179.548C134.787 179.548 137.63 179.103 140.213 177.658C143.18 175.99 144.514 173 143.686 169.837C143.229 168.108 142.104 166.909 140.596 166.156C137.383 164.537 134.12 162.993 130.832 161.51C125.529 159.113 120.116 156.939 114.9 154.382C110.549 152.257 106.594 149.452 103.368 145.746C99.0417 140.779 97.5708 134.861 97.7562 128.449C97.954 121.741 100.03 115.736 104.839 110.881C109.115 106.569 114.331 103.826 120.214 102.504C132.661 99.7123 144.762 100.54 156.195 106.606C160.298 108.781 163.87 111.696 167.109 115.254C162.783 120.518 158.469 125.768 154.056 131.13C153.599 130.735 153.253 130.426 152.895 130.117C146.739 124.78 139.694 121.79 131.45 122.136C129.695 122.21 127.915 122.605 126.234 123.161C124.058 123.878 122.699 125.509 122.402 127.844C122.081 130.339 122.81 132.489 125.047 133.786C127.334 135.108 129.732 136.245 132.142 137.332C138.94 140.421 145.849 143.287 152.573 146.536C156.652 148.513 160.298 151.256 163.252 154.777C167.381 159.719 168.654 165.525 168.444 171.814C168.06 182.97 162.523 190.791 152.87 195.943C147.122 199.019 140.93 200.366 134.466 200.662C126.209 201.033 118.15 200.143 110.438 196.98C103.182 194.003 97.2371 189.321 92.4043 183.193C91.9717 182.637 91.8604 182.241 92.3672 181.624C96.446 176.756 100.488 171.851 104.542 166.971C104.616 166.872 104.74 166.823 104.715 166.847H104.703Z" fill="white"/>
<path d="M226.153 54V56.0138C226.153 88.593 226.153 121.172 226.153 153.751C226.153 163.326 233.025 170.788 242.567 171.505C243.704 171.591 243.531 172.259 243.531 172.926C243.531 179.708 243.531 186.491 243.531 193.286C243.531 194.509 243.457 195.732 243.556 196.943C243.642 198.191 243.111 198.512 241.961 198.463C234.384 198.142 227.29 196.152 220.825 192.187C208.984 184.91 201.939 174.347 199.677 160.658C199.319 158.483 199.22 156.247 199.22 154.036C199.195 121.37 199.195 88.7042 199.195 56.0385C199.195 54.696 199.842 54.0247 201.136 54.0247C208.885 54.0247 216.635 54.0247 224.385 54.0247C224.904 54.0247 225.423 54.0247 226.14 54.0247L226.153 54Z" fill="white"/>
<path d="M285.076 150.763C288.994 150.763 292.912 150.788 296.831 150.751C297.844 150.751 298.252 150.961 298.314 152.11C298.722 160.104 301.737 166.862 308.214 171.816C320.265 181.032 342.415 177.536 347.111 157.348C349.311 147.885 347.47 139.101 340.647 131.787C336.333 127.154 330.932 124.708 324.591 124.448C323.541 124.411 323.256 124.102 323.269 123.101C323.293 116.096 323.306 109.091 323.269 102.086C323.269 100.937 323.726 100.74 324.74 100.752C338.286 100.888 349.793 105.867 359.471 115.219C366.418 121.94 371.498 129.81 373.327 139.385C376.701 157.04 372.833 172.656 359.669 185.492C352.698 192.3 344.664 197.303 335.048 199.157C316.706 202.69 300.192 199.206 286.572 185.665C279.119 178.253 274.174 169.493 272.568 159.029C272.222 156.755 272.184 154.445 271.962 152.147C271.851 151.06 272.234 150.714 273.334 150.726C277.252 150.788 281.17 150.751 285.088 150.751L285.076 150.763Z" fill="white"/>
</g>
<path d="M92.373 305.564L103.743 295.194C105.742 298.567 112.988 304.689 122.234 304.689C131.23 304.689 136.603 298.567 136.603 289.946V288.697C134.104 290.821 130.106 293.07 124.108 293.07C106.866 293.07 92.6229 279.201 92.6229 262.584C92.6229 245.717 106.866 231.973 124.108 231.973C129.481 231.973 133.354 233.472 136.728 235.347V232.848H154.344V286.323C154.344 300.192 151.846 306.814 143.974 313.061C139.851 316.559 130.98 319.433 124.108 319.433C117.112 319.433 109.74 317.434 105.367 315.31C99.8695 312.561 93.3725 306.814 92.373 305.564ZM124.108 247.466C116.112 247.466 109.74 254.088 109.74 262.584C109.74 270.955 116.112 277.702 124.108 277.702C129.481 277.702 133.479 275.203 136.228 270.33L136.353 254.713C133.479 250.09 129.106 247.466 124.108 247.466ZM216.122 247.341L213.373 246.841C211.998 246.466 210.499 246.341 209 246.341C203.128 246.341 199.629 249.34 198.255 254.213L198.13 291.571H180.638L180.763 232.973H197.755L198.005 236.221C200.629 234.222 204.877 231.848 210.499 231.848C213.623 231.848 217.996 232.473 218.87 233.347L216.122 247.341ZM233.895 261.959C233.895 245.342 248.013 231.473 265.38 231.473C282.622 231.473 296.741 245.342 296.741 261.959C296.741 278.826 282.622 292.695 265.38 292.695C248.013 292.695 233.895 278.826 233.895 261.959ZM265.38 246.591C257.259 246.591 250.762 253.463 250.762 262.084C250.762 270.58 257.259 277.452 265.38 277.452C273.376 277.452 279.873 270.58 279.873 262.084C279.873 253.463 273.376 246.591 265.38 246.591ZM356.243 261.709V232.598H373.735V262.209C373.735 273.579 371.486 279.701 365.489 285.573C360.366 290.696 354.244 292.945 345.248 292.945C336.253 292.945 330.13 290.696 325.008 285.573C319.011 279.701 316.762 273.579 316.762 262.209V232.598H334.253V261.709C334.253 270.83 336.877 277.077 345.248 277.077C353.62 277.077 356.243 270.83 356.243 261.709ZM417.678 232.973V235.347C421.051 233.472 424.925 231.973 430.297 231.973C447.914 231.973 461.782 244.467 461.782 262.709C461.782 280.826 447.914 293.07 430.297 293.07C424.8 293.07 420.676 291.196 417.803 289.197V323.431H400.061L399.936 232.973H417.678ZM418.053 254.713L418.178 270.455C420.801 275.078 425.174 277.702 430.297 277.702C438.293 277.702 444.665 271.08 444.665 262.709C444.665 254.213 438.293 247.466 430.297 247.466C425.299 247.466 420.926 250.09 418.053 254.713Z" fill="white"/>
<defs>
<clipPath id="clip0_111_160">
<rect width="483.403" height="212.117" fill="white" transform="translate(92.0206 54)"/>
</clipPath>
</defs>
</svg>
