<svg width="0" height="0" class="hidden">
    <symbol xmlns="http://www.w3.org/2000/svg" viewBox="0 0 93 23" id="logo">
        <path d="M11.3656 22.6034C8.10033 17.6923 6.93865 16.7162 4.6467 16.6247V22.6034H0V1.25066H4.6467V12.6592C6.84447 12.5981 7.75497 11.7745 10.9888 7.19894H16.4832C12.8412 12.6286 11.4598 13.8183 8.3515 14.0318V15.3435C11.6481 15.5875 13.218 16.9907 16.9228 22.6034H11.3656Z"></path>
        <path d="M26.2885 23C21.1081 23 17.4033 19.5836 17.4033 14.9164C17.4033 10.2188 21.1395 6.83289 26.3199 6.83289C32.0655 6.83289 35.9273 10.9814 35.1424 16.3196H21.9244C22.3326 18.2719 23.9966 19.553 26.2885 19.553C27.9526 19.553 29.3654 18.882 30.1817 17.7228H34.797C33.5412 20.9562 30.3073 23 26.2885 23ZM21.893 13.5438H30.7783C30.3387 11.5305 28.6433 10.2493 26.3199 10.2493C23.9966 10.2493 22.3326 11.561 21.893 13.5438Z"></path>
        <path d="M38.0672 22.6034V7.19894H42.7139V22.6034H38.0672ZM37.659 4.5756V0H43.0279V4.5756H37.659Z"></path>
        <path d="M50.9052 22.6034H46.4155V1.25066H51.0622C51.1878 6.8634 50.968 8.26658 49.618 10.8289L50.968 11.439C52.3181 8.48011 54.5472 6.8634 57.4671 6.8634C61.6743 6.8634 64.6883 10.2493 64.6883 14.9164C64.6883 19.5531 61.6429 22.939 57.4671 22.939C54.5786 22.939 52.3809 21.3528 51.0308 18.3329L49.6807 18.9735C50.5285 20.4072 50.8738 21.4138 50.9052 22.6034ZM55.5519 19.1565C58.252 19.1565 60.1044 17.4483 60.1044 14.9164C60.1044 12.3541 58.252 10.6459 55.5519 10.6459C52.8518 10.6459 51.0308 12.3541 51.0308 14.9164C51.0308 17.4483 52.8518 19.1565 55.5519 19.1565Z"></path>
        <path d="M72.3523 22.9695C68.8359 22.9695 66.6067 21.2613 66.6067 18.5159C66.6067 15.8926 68.5533 14.1233 71.6616 13.8183L76.7164 13.3302C77.9095 13.2082 78.663 12.6286 78.663 11.7745C78.663 10.7374 77.5641 10.1578 75.6803 10.1578C73.671 10.1578 72.3523 10.8899 72.0069 12.2321H67.423C68.0824 8.81565 71.0964 6.83289 75.6175 6.83289C80.5154 6.83289 83.2783 9.1817 83.2783 13.3607V17.6313C83.2783 18.6989 83.7179 19.004 85.4447 18.882V22.6034C81.4259 23.0305 79.8561 21.8408 80.6724 19.0345L79.3537 18.6074C78.1921 21.3833 75.7117 22.9695 72.3523 22.9695ZM73.5768 19.6751C76.1513 19.6751 78.2235 18.0279 79.291 15.13L78.1293 14.4894C77.3758 15.5875 76.5281 15.9841 74.9896 16.1976L73.2628 16.4111C71.9441 16.5637 71.1592 17.2042 71.1592 18.1499C71.1592 19.0955 72.0383 19.6751 73.5768 19.6751Z"></path>
        <path d="M88.0393 22.6034V7.19894H92.686V22.6034H88.0393ZM87.6312 4.5756V0H93V4.5756H87.6312Z"></path>
    </symbol>
    <symbol version="1.1" xmlns="http://www.w3.org/2000/svg" viewBox="0 0 1024 1024" id="download">
        <path d="M535.379 34.133h-81.92v596.974l-218.099-218.099-57.926 57.926 316.869 317.108 317.108-317.108-57.924-57.926-218.108 218.109v-596.984zM116.079 881.015h791.868v-108.175h81.92v108.175h0.027v81.92l-955.736 0.007v-190.102h81.92v108.175z"></path>
    </symbol>
    <symbol version="1.1" xmlns="http://www.w3.org/2000/svg" viewBox="0 0 1024 1024" id="tg">
        <path d="M915.891 116.926c-128.338 53.146-678.605 281.078-830.648 343.204-101.97 39.793-42.281 77.096-42.281 77.096s87.040 29.839 161.649 52.224c74.609 22.385 114.401-2.488 114.401-2.488l350.659-236.267c124.344-84.552 94.505-14.92 64.666 14.92-64.666 64.666-171.602 166.625-261.13 248.698-39.793 34.816-19.897 64.666-2.488 79.585 64.666 54.712 241.234 166.625 251.187 174.090 52.541 37.192 155.884 90.737 171.602-22.385l62.177-390.451c19.896-131.809 39.793-253.676 42.281-288.492 7.455-84.552-82.074-49.736-82.074-49.736z"></path>
    </symbol>
    <symbol version="1.1" xmlns="http://www.w3.org/2000/svg" viewBox="0 0 1024 1024" id="wa">
        <path d="M512.128 0h-0.256c-282.304 0-511.872 229.632-511.872 512 0 112 36.096 215.808 97.472 300.093l-63.808 190.213 196.8-62.915c80.96 53.632 177.536 84.608 281.664 84.608 282.301 0 511.872-229.693 511.872-512 0-282.304-229.571-512-511.872-512zM810.045 723.011c-12.349 34.877-61.373 63.805-100.48 72.253-26.747 5.693-61.696 10.24-179.328-38.528-150.461-62.336-247.357-215.229-254.909-225.152-7.232-9.923-60.8-80.96-60.8-154.432s37.312-109.248 52.352-124.608c12.352-12.608 32.768-18.368 52.352-18.368 6.336 0 12.032 0.32 17.152 0.576 15.040 0.64 22.592 1.536 32.512 25.28 12.352 29.76 42.432 103.232 46.016 110.784 3.648 7.552 7.296 17.792 2.176 27.712-4.8 10.24-9.024 14.784-16.576 23.488s-14.72 15.36-22.272 24.704c-6.912 8.128-14.72 16.832-6.016 31.872 8.704 14.72 38.784 63.805 83.072 103.229 57.149 50.883 103.485 67.139 120.064 74.051 12.349 5.12 27.069 3.907 36.096-5.693 11.459-12.355 25.6-32.835 40.003-52.992 10.235-14.464 23.168-16.261 36.731-11.141 13.829 4.803 86.979 40.96 102.021 48.451 15.037 7.552 24.955 11.136 28.605 17.475 3.584 6.333 3.584 36.096-8.771 71.040z"></path>
    </symbol>
    <symbol version="1.1" xmlns="http://www.w3.org/2000/svg" viewBox="0 0 1252 1024" id="arrow">
        <path d="M1183.312 511.954l-494.152 494.156-91.44-91.438 338.058-338.060h-867.778v-129.314h867.778l-338.058-338.060 91.44-91.438 494.152 494.153z"></path>
    </symbol>
    <symbol version="1.1" xmlns="http://www.w3.org/2000/svg" viewBox="0 0 1024 1024" id="gasoline">
        <path d="M1014.624 233.374l-143.999-144c-12.497-12.496-32.756-12.496-45.253 0s-12.497 32.758 0 45.254l44.716 44.718c-52.63 83.368-6.857 194.974 89.911 217.026v507.628c0 30.88-25.121 56.001-56.001 56.001-30.876 0-56.001-25.121-56.001-56.001v-295.997c0-94.97-69.308-174.039-159.998-189.321v-290.681c0-70.58-57.422-128-128-128h-384.001c-70.58 0-128 57.42-128 128v704h-16c-17.672 0-32 14.328-32 32.002v128c0 17.67 14.328 31.998 32 31.998h672c17.67 0 32.002-14.328 32.002-31.998v-128c0-17.674-14.332-32.002-32.002-32.002h-15.999v-347.951c55.144 14.246 95.998 64.418 95.998 123.953v295.997c0 66.167 53.834 120.001 120.001 120.001s120.001-53.834 120.001-120.001v-647.999c0-8.486-3.371-16.626-9.376-22.626zM671.998 960h-607.998v-64l48-64h512.001l47.997 64v64zM112 832v-704c0-35.29 28.71-64 64-64h384.001c35.287 0 64 28.71 64 64v704h-512.001zM917.512 226.768l42.488 42.486v60.046c-39.682-17.392-58.053-62.846-42.488-102.532z"></path>
        <path d="M527.999 128h-319.999c-17.672 0-32 14.326-32 32v176c0 17.674 14.328 32 32 32h319.999c17.674 0 32.002-14.326 32.002-32v-176c0-17.674-14.328-32-32.002-32zM496.001 304h-256.001v-112h256.001v112z"></path>
    </symbol>
    <symbol version="1.1" xmlns="http://www.w3.org/2000/svg" viewBox="0 0 1065 1024" id="speedometer">
        <path d="M1007.899 600.31c0 105.8-33.673 206.23-97.374 290.447-12.567 16.626-36.205 19.849-52.777 7.315-16.593-12.554-19.866-36.18-7.32-52.773 53.723-71.021 82.121-155.738 82.121-244.99 0-224.893-182.133-406.678-406.897-406.678-224.922 0-406.9 181.925-406.9 406.678 0 89.252 28.396 173.969 82.114 244.986 12.554 16.597 9.279 40.223-7.315 52.777-16.6 12.554-40.223 9.282-52.784-7.315-63.694-84.214-97.367-184.648-97.367-290.447 0-266.556 215.841-482.030 482.252-482.030 266.555 0 482.247 215.618 482.247 482.030zM764.371 373.407c14.709 14.712 14.709 38.568 0 53.277l-122.81 122.806c10.437 19.223 15.888 40.755 15.868 62.628 0 72.667-59.122 131.777-131.777 131.777-72.667 0-131.779-59.109-131.779-131.777 0-72.659 59.111-131.777 131.779-131.777 21.873-0.025 43.401 5.431 62.628 15.864l122.806-122.804c14.717-14.71 38.564-14.71 53.285 0.007v-0.002zM582.074 612.127c0-31.109-25.313-56.426-56.422-56.426-31.113 0-56.426 25.317-56.426 56.426s25.313 56.426 56.426 56.426c31.109 0 56.422-25.313 56.422-56.426v0z"></path>
    </symbol>
    <symbol version="1.1" xmlns="http://www.w3.org/2000/svg" viewBox="0 0 1065 1024" id="transmission">
        <path d="M219.786 259.254v214.866h288.794v-214.866c-41.431-13.041-71.479-51.761-71.479-97.498 0-56.441 45.756-102.196 102.199-102.196 56.439 0 102.195 45.755 102.195 102.196 0 45.737-30.048 84.457-71.475 97.498v214.866h248.033c22.508 0 40.755-18.248 40.755-40.755v-174.111c-41.427-13.041-71.475-51.761-71.475-97.498 0-56.441 45.756-102.196 102.195-102.196 56.443 0 102.199 45.755 102.199 102.196 0 45.737-30.048 84.457-71.479 97.498v174.111c0 56.439-45.752 102.195-102.195 102.195h-248.033v229.163c41.427 13.042 71.475 51.761 71.475 97.497 0 56.443-45.756 102.195-102.195 102.195-56.443 0-102.199-45.752-102.199-102.195 0-45.736 30.048-84.455 71.479-97.497v-229.163h-288.794v229.163c41.43 13.042 71.476 51.761 71.476 97.497 0 56.443-45.754 102.195-102.196 102.195s-102.196-45.752-102.196-102.195c0-45.736 30.045-84.455 71.476-97.497v-505.469c-41.431-13.041-71.476-51.761-71.476-97.498 0-56.441 45.755-102.196 102.196-102.196s102.196 45.755 102.196 102.196c0 45.737-30.045 84.457-71.476 97.498zM189.066 121c-22.509 0-40.756 18.247-40.756 40.756s18.247 40.756 40.756 40.756c22.509 0 40.756-18.247 40.756-40.756s-18.247-40.756-40.756-40.756zM539.304 202.512c22.508-0.003 40.751-18.249 40.751-40.756 0-22.509-18.248-40.756-40.755-40.756-22.512 0-40.759 18.247-40.759 40.756s18.256 40.756 40.763 40.756zM889.537 202.512c22.508-0.003 40.751-18.249 40.751-40.756 0-22.509-18.248-40.756-40.759-40.756-22.508 0-40.755 18.247-40.755 40.756s18.256 40.756 40.763 40.756zM148.31 862.22c0 22.508 18.247 40.755 40.756 40.755s40.756-18.248 40.756-40.755c0-22.508-18.247-40.755-40.756-40.755s-40.756 18.248-40.756 40.755zM539.3 821.465c-22.512 0-40.759 18.248-40.759 40.755s18.248 40.755 40.759 40.755c22.508 0 40.755-18.248 40.755-40.755s-18.248-40.755-40.755-40.755z"></path>
        <path d="M858.808 764.723v-116.933c0-16.966 13.754-30.72 30.72-30.72 16.97 0 30.72 13.754 30.72 30.72v116.933c41.431 13.042 71.479 51.761 71.479 97.497 0 56.443-45.756 102.195-102.199 102.195-56.439 0-102.195-45.752-102.195-102.195 0-45.736 30.048-84.455 71.475-97.497zM889.528 821.465c-22.508 0-40.755 18.248-40.755 40.755s18.248 40.755 40.755 40.755c22.512 0 40.759-18.248 40.759-40.755s-18.248-40.755-40.759-40.755z"></path>
    </symbol>
    <symbol version="1.1" xmlns="http://www.w3.org/2000/svg" viewBox="0 0 1024 1024" id="documents">
        <path d="M102.393 0v1024h819.2v-716.8l-307.2-307.2h-512zM305.458 617.2h421.356v102.4h-421.356v-102.4zM566.546 403.425v102.4h-261.088v-102.4h261.088z"></path>
    </symbol>
    <symbol version="1.1" xmlns="http://www.w3.org/2000/svg" viewBox="0 0 1024 1024" id="car">
        <path d="M896 416.001h32.001c8.485 0 16.624-3.373 22.625-9.374 6.004-6.001 9.374-14.14 9.374-22.627s-3.37-16.627-9.374-22.627c-6.001-6.001-14.14-9.374-22.625-9.374h-77.888l-49.409-82.335c-14.272-23.636-34.392-43.198-58.418-56.8-24.029-13.603-51.156-20.788-78.766-20.864h-303.040c-55.872 0-108.448 29.76-137.184 77.664l-49.408 82.335h-77.888c-8.487 0-16.626 3.373-22.627 9.374s-9.373 14.14-9.373 22.627c0 8.487 3.371 16.627 9.373 22.627s14.141 9.374 22.627 9.374h32l-19.2 25.6c-28.994 38.818-44.704 85.949-44.8 134.399v159.999c0 52.929 43.072 96.001 96 96.001h64c52.928 0 96-43.072 96-96.001h384c0 52.929 43.072 96.001 96.001 96.001h63.997c52.929 0 96.001-43.072 96.001-96.001v-159.999c-0.091-48.453-15.802-95.583-44.801-134.399l-19.199-25.6zM278.176 302.624c8.561-14.184 20.63-25.925 35.045-34.091s30.691-12.482 47.259-12.533h303.072c33.537 0 65.056 17.856 82.303 46.624l43.008 71.68-22.238 14.816c-26.276 17.551-57.171 26.905-88.769 26.881h-331.744c-31.68 0-62.368-9.28-88.736-26.849l-22.24-14.848 43.008-71.712 0.032 0.032zM896.032 735.999c0 17.633-14.368 32.001-32.001 32.001h-64c-17.63 0-31.999-14.368-31.999-32.001v-31.999c0-8.487-3.37-16.627-9.374-22.627-6.001-6.001-14.14-9.371-22.627-9.371h-448.031c-8.487 0-16.626 3.37-22.627 9.371s-9.373 14.14-9.373 22.627v31.999c0 17.633-14.368 32.001-32 32.001h-64c-17.632 0-32-14.368-32-32.001v-159.999c0-34.401 11.36-68.511 32-96.001l39.424-52.575 22.464 14.977c36.771 24.558 80.008 37.645 124.224 37.598h331.744c44.231 0.038 87.476-13.060 124.255-37.631l22.434-14.945 39.424 52.575c20.638 27.49 31.999 61.601 31.999 96.001v159.999h0.064z"></path>
        <path d="M800.004 618.865c23.678 0 42.873-19.196 42.873-42.876 0-23.678-19.196-42.873-42.873-42.873-23.681 0-42.876 19.196-42.876 42.873 0 23.681 19.196 42.876 42.876 42.876z"></path>
        <path d="M224 618.358c23.397 0 42.364-18.967 42.364-42.364 0-23.4-18.967-42.364-42.364-42.364s-42.364 18.964-42.364 42.364c0 23.397 18.967 42.364 42.364 42.364z"></path>
    </symbol>
    <symbol version="1.1" xmlns="http://www.w3.org/2000/svg" viewBox="0 0 1024 1024" id="documents-empty">
        <path d="M928.745 893.025c0 34.719-13.812 68.058-38.339 92.634-24.588 24.538-57.9 38.327-92.637 38.341h-571.535c-34.721 0-68.060-13.812-92.636-38.341-24.538-24.585-38.326-57.9-38.34-92.634v-762.048c0-34.721 13.812-68.060 38.34-92.636 24.587-24.538 57.9-38.326 92.636-38.341h408.933c22.101 0 43.295 8.764 58.915 24.433l210.23 210.23c15.67 15.622 24.433 36.816 24.433 58.915v599.447zM857.305 893.025v-599.447c0.003-1.564-0.304-3.114-0.901-4.561s-1.472-2.761-2.578-3.869l-210.227-210.23c-1.109-1.105-2.425-1.981-3.871-2.578s-2.996-0.902-4.561-0.899h-408.933c-15.782 0.025-30.91 6.306-42.070 17.465s-17.44 26.288-17.465 42.069v762.048c0.025 15.781 6.306 30.91 17.465 42.069s26.288 17.44 42.070 17.464h571.535c15.781-0.023 30.91-6.305 42.069-17.464s17.44-26.288 17.467-42.069z"></path>
        <path d="M321.492 442.157h381.025c9.473 0 18.558-3.765 25.258-10.462 6.7-6.7 10.462-15.787 10.462-25.261s-3.762-18.558-10.462-25.258c-6.7-6.7-15.784-10.462-25.258-10.462h-381.025c-9.473 0-18.561 3.762-25.258 10.462-6.7 6.7-10.463 15.784-10.463 25.258s3.763 18.561 10.463 25.261c6.697 6.697 15.784 10.462 25.258 10.462zM321.492 608.853h381.025c9.473 0 18.558-3.762 25.258-10.462 6.7-6.697 10.462-15.784 10.462-25.258s-3.762-18.561-10.462-25.258c-6.7-6.7-15.784-10.462-25.258-10.462h-381.025c-9.473 0-18.561 3.762-25.258 10.462-6.7 6.697-10.463 15.784-10.463 25.258s3.763 18.561 10.463 25.258c6.697 6.7 15.784 10.462 25.258 10.462zM321.492 775.551h214.326c9.473 0 18.558-3.762 25.258-10.462s10.462-15.784 10.462-25.258c0-9.473-3.762-18.561-10.462-25.261-6.7-6.697-15.784-10.462-25.258-10.462h-214.326c-9.473 0-18.561 3.765-25.258 10.462-6.7 6.7-10.463 15.787-10.463 25.261s3.763 18.558 10.463 25.258c6.697 6.7 15.784 10.462 25.258 10.462z"></path>
    </symbol>
    <symbol version="1.1" xmlns="http://www.w3.org/2000/svg" viewBox="0 0 1024 1024" id="loupe">
        <path d="M466.008 60.799c-107.382 0.18-210.315 42.917-286.245 118.848s-118.668 178.864-118.848 286.247c0.090 107.47 42.776 210.526 118.707 286.585 75.931 76.057 178.913 118.919 286.386 119.188 95.317 0 183.144-33.532 252.589-89.018l168.676 168.676c8.543 7.943 19.836 12.268 31.501 12.063 11.668-0.202 22.8-4.921 31.062-13.16s13.008-19.359 13.245-31.027c0.234-11.665-4.058-22.967-11.981-31.533l-168.676-168.846c57.607-71.648 89.015-160.824 89.018-252.758 0-223.313-182.123-405.265-405.434-405.265zM466.008 151.009c174.633 0 315.225 140.421 315.225 314.885 0 174.46-140.592 315.734-315.225 315.734s-315.054-140.762-315.054-315.395c0-174.633 140.421-315.224 315.054-315.224z"></path>
    </symbol>
    <symbol version="1.1" xmlns="http://www.w3.org/2000/svg" viewBox="0 0 1024 1024" id="ship">
        <path d="M994 929.444c-33.11 0-48.046-7.437-66.958-16.855-7.803-3.885-15.989-7.955-25.439-11.58l101.326-266.565c7.888-20.746 6.58-43.959-3.59-63.687s-28.321-34.26-49.793-39.872l-69.772-18.227v-209.256c0-43.916-35.729-79.644-79.644-79.644h-137.702v-77.428c0-61.64-50.15-111.788-111.789-111.788h-77.277c-61.642 0-111.789 50.148-111.789 111.788v77.426h-137.702c-43.916 0-79.644 35.728-79.644 79.643v209.259l-69.772 18.227c-21.474 5.612-39.624 20.144-49.792 39.872s-11.48 42.941-3.592 63.687l101.328 266.568c-9.448 3.628-17.632 7.692-25.434 11.58-18.914 9.415-33.852 16.855-66.966 16.855-16.568 0-30 13.432-30 30s13.432 30 30 30c47.224 0 71.92-12.297 93.708-23.145 18.914-9.415 33.852-16.855 66.966-16.855s48.052 7.437 66.966 16.855c21.788 10.849 46.485 23.145 93.709 23.145 47.221 0 71.914-12.297 93.705-23.145 18.912-9.415 33.851-16.855 66.961-16.855s48.046 7.437 66.958 16.855c21.788 10.849 46.481 23.145 93.705 23.145 47.221 0 71.914-12.297 93.702-23.145 18.912-9.415 33.851-16.855 66.961-16.855s48.046 7.437 66.958 16.855c21.788 10.849 46.481 23.145 93.705 23.145 16.568 0 30-13.432 30-30s-13.435-30.003-30.003-30.003zM421.575 146.331c0-28.556 23.23-51.788 51.788-51.788h77.277c28.555 0 51.788 23.232 51.788 51.788v77.426h-180.853v-77.426zM204.226 303.402c0-10.832 8.812-19.644 19.644-19.644h576.257c10.834 0 19.646 8.812 19.646 19.644v193.58l-300.193-78.438c-4.971-1.296-10.193-1.296-15.167 0l-300.19 78.438 0.002-193.58zM739.635 912.592c-18.912 9.415-33.851 16.852-66.958 16.852-33.11 0-48.046-7.437-66.958-16.855-21.791-10.849-46.484-23.145-93.705-23.145-47.224 0-71.917 12.297-93.708 23.145-18.912 9.415-33.848 16.855-66.958 16.855-33.113 0-48.052-7.437-66.965-16.855-21.788-10.849-46.484-23.145-93.708-23.145-2.894 0-5.702 0.050-8.432 0.138l-105.090-276.457c-2.522-6.633-0.556-12.165 0.84-14.874 1.396-2.706 4.762-7.516 11.628-9.313l422.378-110.361 422.377 110.364c6.867 1.793 10.234 6.603 11.63 9.31 1.396 2.709 3.362 8.242 0.84 14.877l-105.089 276.457c-2.806-0.091-5.612-0.138-8.42-0.138-47.221-0.003-71.914 12.297-93.702 23.145z"></path>
    </symbol>
    <symbol version="1.1" xmlns="http://www.w3.org/2000/svg" viewBox="0 0 1024 1024" id="wallet">
        <path d="M930.711 477.105h-244.25c-76.554 0-139.568 63.017-139.568 139.571s63.014 139.571 139.568 139.571h139.571v104.679c0 19.155-15.734 34.892-34.892 34.892h-558.283c-57.434 0-104.678-47.244-104.678-104.679v-523.39c0-57.434 47.245-104.678 104.678-104.678h69.785c19.158 0 34.892-15.737 34.892-34.893s-15.734-34.893-34.892-34.893h-69.785c-95.711 0-174.464 78.753-174.464 174.464v523.39c0 95.712 78.753 174.463 174.464 174.463h558.283c57.435 0 104.679-47.244 104.679-104.676v-104.679h34.892c19.158 0 34.892-15.737 34.892-34.892v-209.358c0-19.155-15.734-34.892-34.892-34.892zM895.819 686.463h-209.358c-38.277 0-69.784-31.51-69.784-69.787s31.507-69.784 69.784-69.784h209.358v139.571z"></path>
        <path d="M220.296 235.292c-38.94 16.993-26.065 67.344 12.562 67.344h558.285c19.155 0 34.892 15.737 34.892 34.892v34.892c0 19.158 15.737 34.892 34.892 34.892 19.158 0 34.892-15.734 34.892-34.892v-34.892c0-27.762-11.027-54.388-30.659-74.019s-46.256-30.659-74.018-30.659h-11.167l-61.063-152.481c-3.455-8.497-10.102-15.301-18.517-18.954s-17.926-3.863-26.492-0.586l-453.607 174.464zM704.609 232.85h-283.68l245.994-94.559 37.686 94.559z"></path>
    </symbol>
    <symbol xmlns="http://www.w3.org/2000/svg" viewBox="0 0 20 20" id="star">
        <path d="M19.6174 9.49683L16.7481 8.67713C15.4559 8.31296 14.2789 7.62338 13.3296 6.67439C12.3803 5.72539 11.6905 4.54873 11.3262 3.25701L10.5063 0.388579C10.4651 0.288222 10.3949 0.202386 10.3048 0.141978C10.2146 0.0815697 10.1085 0.0493164 10 0.0493164C9.89147 0.0493164 9.78539 0.0815697 9.69524 0.141978C9.6051 0.202386 9.53495 0.288222 9.49371 0.388579L8.67375 3.25701C8.30946 4.54873 7.61967 5.72539 6.67037 6.67439C5.72108 7.62338 4.54405 8.31296 3.25192 8.67713L0.382586 9.49683C0.272414 9.52809 0.175448 9.59443 0.106402 9.68577C0.0373568 9.77711 0 9.88847 0 10.003C0 10.1175 0.0373568 10.2288 0.106402 10.3202C0.175448 10.4115 0.272414 10.4778 0.382586 10.5091L3.25192 11.3288C4.54405 11.693 5.72108 12.3825 6.67037 13.3315C7.61967 14.2805 8.30946 15.4572 8.67375 16.7489L9.49371 19.6173C9.52498 19.7275 9.59133 19.8244 9.6827 19.8934C9.77408 19.9625 9.88548 19.9998 10 19.9998C10.1145 19.9998 10.2259 19.9625 10.3173 19.8934C10.4087 19.8244 10.475 19.7275 10.5063 19.6173L11.3262 16.7489C11.6905 15.4572 12.3803 14.2805 13.3296 13.3315C14.2789 12.3825 15.4559 11.693 16.7481 11.3288L19.6174 10.5091C19.7276 10.4778 19.8246 10.4115 19.8936 10.3202C19.9626 10.2288 20 10.1175 20 10.003C20 9.88847 19.9626 9.77711 19.8936 9.68577C19.8246 9.59443 19.7276 9.52809 19.6174 9.49683Z" ></path>
    </symbol>
    <symbol xmlns="http://www.w3.org/2000/svg" viewBox="0 0 640 512" id="volume-high">
        <path d="M533.6 32.5C598.5 85.2 640 165.8 640 256s-41.5 170.7-106.4 223.5c-10.3 8.4-25.4 6.8-33.8-3.5s-6.8-25.4 3.5-33.8C557.5 398.2 592 331.2 592 256s-34.5-142.2-88.7-186.3c-10.3-8.4-11.8-23.5-3.5-33.8s23.5-11.8 33.8-3.5zM473.1 107c43.2 35.2 70.9 88.9 70.9 149s-27.7 113.8-70.9 149c-10.3 8.4-25.4 6.8-33.8-3.5s-6.8-25.4 3.5-33.8C475.3 341.3 496 301.1 496 256s-20.7-85.3-53.2-111.8c-10.3-8.4-11.8-23.5-3.5-33.8s23.5-11.8 33.8-3.5zm-60.5 74.5C434.1 199.1 448 225.9 448 256s-13.9 56.9-35.4 74.5c-10.3 8.4-25.4 6.8-33.8-3.5s-6.8-25.4 3.5-33.8C393.1 284.4 400 271 400 256s-6.9-28.4-17.7-37.3c-10.3-8.4-11.8-23.5-3.5-33.8s23.5-11.8 33.8-3.5zM301.1 34.8C312.6 40 320 51.4 320 64l0 384c0 12.6-7.4 24-18.9 29.2s-25 3.1-34.4-5.3L131.8 352 64 352c-35.3 0-64-28.7-64-64l0-64c0-35.3 28.7-64 64-64l67.8 0L266.7 40.1c9.4-8.4 22.9-10.4 34.4-5.3z"></path>
    </symbol>
    <symbol xmlns="http://www.w3.org/2000/svg" viewBox="0 0 576 512" id="volume-xmark">
        <path d="M301.1 34.8C312.6 40 320 51.4 320 64l0 384c0 12.6-7.4 24-18.9 29.2s-25 3.1-34.4-5.3L131.8 352 64 352c-35.3 0-64-28.7-64-64l0-64c0-35.3 28.7-64 64-64l67.8 0L266.7 40.1c9.4-8.4 22.9-10.4 34.4-5.3zM425 167l55 55 55-55c9.4-9.4 24.6-9.4 33.9 0s9.4 24.6 0 33.9l-55 55 55 55c9.4 9.4 9.4 24.6 0 33.9s-24.6 9.4-33.9 0l-55-55-55 55c-9.4 9.4-24.6 9.4-33.9 0s-9.4-24.6 0-33.9l55-55-55-55c-9.4-9.4-9.4-24.6 0-33.9s24.6-9.4 33.9 0z"></path>
    </symbol>
    <symbol xmlns="http://www.w3.org/2000/svg" viewBox="0 0 384 512" id="xmark">
        <path d="M342.6 150.6c12.5-12.5 12.5-32.8 0-45.3s-32.8-12.5-45.3 0L192 210.7 86.6 105.4c-12.5-12.5-32.8-12.5-45.3 0s-12.5 32.8 0 45.3L146.7 256 41.4 361.4c-12.5 12.5-12.5 32.8 0 45.3s32.8 12.5 45.3 0L192 301.3 297.4 406.6c12.5 12.5 32.8 12.5 45.3 0s12.5-32.8 0-45.3L237.3 256 342.6 150.6z"></path>
    </symbol>
</svg>