<svg width="34" height="34" viewBox="0 0 34 34" fill="none" xmlns="http://www.w3.org/2000/svg">
<g filter="url(#filter0_i_6_208)">
<path d="M19.4509 4.97251L21.9443 9.95917C22.2843 10.6533 23.1909 11.3192 23.9559 11.4467L28.4751 12.1975C31.3651 12.6792 32.0451 14.7758 29.9626 16.8442L26.4493 20.3575C25.8543 20.9525 25.5284 22.1 25.7126 22.9217L26.7184 27.2708C27.5118 30.7133 25.6843 32.045 22.6384 30.2458L18.4026 27.7383C17.6376 27.285 16.3768 27.285 15.5976 27.7383L11.3618 30.2458C8.33012 32.045 6.48845 30.6992 7.28178 27.2708L8.28762 22.9217C8.47178 22.1 8.14595 20.9525 7.55095 20.3575L4.03762 16.8442C1.96928 14.7758 2.63512 12.6792 5.52512 12.1975L10.0443 11.4467C10.7951 11.3192 11.7018 10.6533 12.0418 9.95917L14.5351 4.97251C15.8951 2.26667 18.1051 2.26667 19.4509 4.97251Z" fill="url(#paint0_radial_6_208)"/>
</g>
<defs>
<filter id="filter0_i_6_208" x="2.83496" y="2.94313" width="43.3364" height="43.1042" filterUnits="userSpaceOnUse" color-interpolation-filters="sRGB">
<feFlood flood-opacity="0" result="BackgroundImageFix"/>
<feBlend mode="normal" in="SourceGraphic" in2="BackgroundImageFix" result="shape"/>
<feColorMatrix in="SourceAlpha" type="matrix" values="0 0 0 0 0 0 0 0 0 0 0 0 0 0 0 0 0 0 127 0" result="hardAlpha"/>
<feOffset dx="15" dy="15"/>
<feGaussianBlur stdDeviation="12.5"/>
<feComposite in2="hardAlpha" operator="arithmetic" k2="-1" k3="1"/>
<feColorMatrix type="matrix" values="0 0 0 0 1 0 0 0 0 0.70871 0 0 0 0 0.216667 0 0 0 1 0"/>
<feBlend mode="normal" in2="shape" result="effect1_innerShadow_6_208"/>
</filter>
<radialGradient id="paint0_radial_6_208" cx="0" cy="0" r="1" gradientUnits="userSpaceOnUse" gradientTransform="translate(16.0492 17.3138) rotate(47.4005) scale(19.5226 19.5367)">
<stop stop-color="#FFBA2E"/>
<stop offset="1" stop-color="#DE7425"/>
</radialGradient>
</defs>
</svg>
