<svg width="160" height="160" viewBox="0 0 160 160" fill="none" xmlns="http://www.w3.org/2000/svg">
<path d="M59.9766 62.4602V131.625C59.9766 137.076 64.3954 141.495 69.8465 141.495H147.307C152.758 141.495 157.177 137.076 157.177 131.625V39.889C157.177 34.4379 152.758 30.019 147.307 30.019H92.4178C89.1458 30.019 86.0079 31.3188 83.6944 33.6323L63.5898 53.7369C61.2763 56.0504 59.9766 59.1883 59.9766 62.4602Z" fill="#80CDBF"/>
<path d="M50.7734 53.2588V122.423C50.7734 127.874 55.1923 132.293 60.6434 132.293H138.104C143.555 132.293 147.974 127.874 147.974 122.423V30.6876C147.974 25.2365 143.555 20.8176 138.104 20.8176H83.2146C79.9427 20.8176 76.8048 22.1173 74.4913 24.4308L54.3867 44.5355C52.0735 46.8493 50.7734 49.9869 50.7734 53.2588Z" fill="#AADDD5"/>
<path d="M41.5742 44.0577V113.222C41.5742 118.673 45.9931 123.092 51.4442 123.092H128.904C134.355 123.092 138.774 118.673 138.774 113.222V21.4864C138.774 16.0353 134.355 11.6165 128.904 11.6165H74.0154C70.7434 11.6165 67.6056 12.9162 65.292 15.2297L45.1874 35.3343C42.8739 37.6478 41.5742 40.7857 41.5742 44.0577Z" fill="#D5EEEA"/>
<path d="M32.3711 34.8565V104.021C32.3711 109.472 36.79 113.891 42.2411 113.891H119.701C125.152 113.891 129.571 109.472 129.571 104.021V12.2852C129.571 6.83415 125.152 2.41528 119.701 2.41528H64.8123C61.5403 2.41528 58.4024 3.71501 56.0889 6.02851L35.9843 26.1331C33.6708 28.4466 32.3711 31.5845 32.3711 34.8565Z" fill="#F1F1F1"/>
<path d="M32.3711 34.858V36.9643C32.3711 32.9786 35.6034 29.7463 39.5891 29.7463H49.8328C55.2833 29.7463 59.7018 25.3277 59.7018 19.8773V9.63354C59.7018 5.6478 62.9338 2.41553 66.9199 2.41553H64.8139C61.5413 2.41553 58.4034 3.7165 56.0886 6.02906L35.9849 26.1327C33.6721 28.4478 32.3711 31.5857 32.3711 34.858Z" fill="#D5EEEA"/>
<path d="M39.1875 113.209L47.4705 121.492L28.2813 140.681L19.9983 132.398L39.1875 113.209Z" fill="#407093"/>
<path d="M39.1875 113.209L43.3289 117.35L24.1397 136.54L19.9983 132.398L39.1875 113.209Z" fill="#365E7D"/>
<path d="M63.3703 132.038C82.5467 132.038 98.0922 116.493 98.0922 97.3166C98.0922 78.1402 82.5467 62.5947 63.3703 62.5947C44.194 62.5947 28.6484 78.1402 28.6484 97.3166C28.6484 116.493 44.194 132.038 63.3703 132.038Z" fill="#AADDD5"/>
<path d="M40.9769 123.854C40.2356 123.229 39.5153 122.567 38.8178 121.869C25.2577 108.309 25.2596 86.3225 38.8178 72.7643C52.3778 59.2042 74.3625 59.2042 87.9226 72.7643C88.6201 73.4618 89.2823 74.1821 89.9073 74.9234C76.2641 63.3809 55.822 64.0434 42.9595 76.906C30.0988 89.7666 29.4344 110.211 40.9769 123.854Z" fill="#80CDBF"/>
<path d="M63.3705 121.863C76.9271 121.863 87.9168 110.873 87.9168 97.3166C87.9168 83.76 76.9271 72.7703 63.3705 72.7703C49.814 72.7703 38.8242 83.76 38.8242 97.3166C38.8242 110.873 49.814 121.863 63.3705 121.863Z" fill="#FFBB6A"/>
<path d="M51.7266 95.9652L61.185 105.583L75.0156 89.05" stroke="#6D6B6C" stroke-width="7" stroke-linecap="round" stroke-linejoin="round"/>
<path d="M49.8178 117.786C48.475 116.895 47.1993 115.857 46.0146 114.673C36.4277 105.086 36.4277 89.5444 46.0127 79.9594C55.5995 70.3726 71.1409 70.3726 80.7277 79.9594C81.9121 81.1438 82.9503 82.4195 83.8415 83.7626C74.31 77.4359 61.3319 78.4741 52.9294 86.8765C44.5292 95.277 43.4914 108.255 49.8178 117.786Z" fill="#FF8D06"/>
<path d="M11.3309 156.145L4.54036 149.354C2.42405 147.238 2.42405 143.807 4.54036 141.69L21.7668 124.464C23.8831 122.348 27.3144 122.348 29.4307 124.464L36.2212 131.254C38.3375 133.371 38.3375 136.802 36.2212 138.918L18.9948 156.145C16.8785 158.261 13.4475 158.261 11.3309 156.145Z" fill="#B77221"/>
<path d="M9.51112 154.324L4.54129 149.354C2.42374 147.237 2.42374 143.807 4.54129 141.69L21.7674 124.463C23.8849 122.346 27.3144 122.346 29.432 124.463L34.4018 129.433C32.2842 127.316 28.8548 127.316 26.7372 129.433L9.51112 146.66C7.39356 148.777 7.39356 152.206 9.51112 154.324Z" fill="#93642F"/>
<path d="M150.012 27.9807C148.976 23.4365 145.392 19.8183 140.809 18.7799C139.772 14.216 136.172 10.6153 131.61 9.57835C130.372 4.11696 125.469 0.0715332 119.702 0.0715332H64.8102C60.8891 0.0715332 57.2031 1.59814 54.4308 4.37071C54.4068 4.39446 54.3836 4.41915 54.3605 4.44384L34.3225 24.4756C31.5512 27.251 30.0249 30.9392 30.0249 34.8603V81.1262C24.4972 92.5356 25.1572 106.212 32.0062 117.079L28.1207 120.964C25.4025 120.035 22.2709 120.643 20.108 122.806L2.88287 140.033C1.4169 141.499 0.609375 143.449 0.609375 145.522C0.609375 147.596 1.4169 149.545 2.88256 151.011L9.67337 157.801C11.1869 159.315 13.1741 160.071 15.162 160.071C17.1492 160.071 19.1374 159.315 20.6502 157.802L28.7661 149.689C29.6814 148.774 29.6817 147.29 28.7667 146.375C27.8514 145.459 26.3676 145.459 25.4519 146.374L17.3361 154.487C16.1373 155.685 14.1866 155.686 12.9878 154.487L6.19703 147.696C5.6167 147.116 5.29669 146.344 5.29669 145.522C5.29669 144.7 5.61639 143.929 6.19734 143.348L23.4228 126.12C24.621 124.921 26.5738 124.921 27.7739 126.12L34.5637 132.909C35.7631 134.11 35.7638 136.063 34.5647 137.262L32.0802 139.746C31.1649 140.661 31.1649 142.145 32.0802 143.061C32.9956 143.976 34.4794 143.976 35.395 143.061L37.8791 140.576C40.0423 138.413 40.6502 135.282 39.7204 132.563L43.6059 128.678C47.3397 131.031 51.4048 132.654 55.5962 133.546C56.3537 133.89 57.1344 134.157 57.9356 134.338C59.1763 139.798 64.0786 143.841 69.8447 143.841H147.306C154.04 143.841 159.519 138.361 159.519 131.625V39.8882C159.519 34.1218 155.474 29.2198 150.012 27.9807ZM131.915 104.021V14.5944C134.425 15.6963 136.226 18.1301 136.412 21.0096C136.422 21.1549 136.428 21.3112 136.428 21.4877V113.225C136.428 117.374 133.052 120.75 128.903 120.75H92.0884C93.2653 119.309 94.3172 117.8 95.2448 116.237H119.702C126.437 116.237 131.915 110.757 131.915 104.021ZM57.5156 7.918C57.4144 8.47489 57.3584 9.04772 57.3584 9.63367V19.8774C57.3584 24.0269 53.9824 27.4026 49.8332 27.4026H39.5895C39.001 27.4026 38.426 27.4588 37.8666 27.561L57.5156 7.918ZM34.7125 37.0188C34.7128 37.0007 34.7153 36.9829 34.7153 36.9644C34.7153 34.2768 36.9019 32.0902 39.5895 32.0902H49.8332C56.5675 32.0902 62.046 26.6116 62.046 19.8774V9.63367C62.046 6.9461 64.2327 4.75947 66.9202 4.75947C66.9234 4.75947 66.9262 4.75916 66.9293 4.75916H119.702C123.659 4.75916 126.957 7.84643 127.212 11.8087C127.222 11.9531 127.228 12.1087 127.228 12.2844V104.021C127.228 108.172 123.851 111.55 119.702 111.55H97.5898C103.161 98.1045 100.492 82.0219 89.5774 71.1072C75.1248 56.6553 51.6101 56.6556 37.1582 71.1072C36.2903 71.9751 35.476 72.8763 34.7125 73.8057V37.0188ZM40.4733 74.422C46.7859 68.109 55.0759 64.9539 63.3683 64.9539C71.6585 64.9539 79.9515 68.1109 86.263 74.422C98.8871 87.0461 98.8871 107.587 86.263 120.211C73.6389 132.835 53.0974 132.835 40.4736 120.211C27.8489 107.587 27.8489 87.0464 40.4733 74.422ZM36.9691 128.685L31.9984 123.715L34.7912 120.922C35.5322 121.818 36.3197 122.688 37.1582 123.526C37.9963 124.364 38.8664 125.152 39.762 125.892L36.9691 128.685ZM154.832 131.625C154.832 135.776 151.456 139.153 147.306 139.153H69.845C66.7815 139.153 64.1136 137.302 62.9464 134.638H138.103C144.839 134.638 150.319 129.159 150.319 122.425V54.6761C150.319 53.3817 149.27 52.3323 147.975 52.3323C146.681 52.3323 145.631 53.3817 145.631 54.6761V122.425C145.631 126.574 142.254 129.95 138.103 129.95H80.9469C83.2563 128.708 85.4617 127.205 87.5167 125.437H128.902C135.636 125.437 141.115 119.959 141.115 113.225V23.7919C143.78 24.9588 145.631 27.6254 145.631 30.688V45.3196C145.631 46.614 146.68 47.6635 147.975 47.6635C149.27 47.6635 150.319 46.614 150.319 45.3196V32.9937C152.982 34.1615 154.831 36.8272 154.831 39.8882L154.832 131.625Z" fill="#6D6B6C"/>
<path d="M63.3658 124.207C70.5485 124.207 77.3015 121.41 82.3804 116.331C92.8647 105.847 92.8647 88.7872 82.3804 78.3028C77.3015 73.224 70.5488 70.427 63.3658 70.427C56.1834 70.427 49.4304 73.224 44.3515 78.3028C33.8672 88.7872 33.8672 105.847 44.3515 116.331C49.4307 121.41 56.1834 124.207 63.3658 124.207ZM47.6666 81.6173C51.8599 77.4238 57.4357 75.1143 63.3658 75.1143C69.2966 75.1143 74.8721 77.4238 79.0653 81.6173C87.7221 90.2741 87.7221 104.359 79.0653 113.016C74.8721 117.21 69.2963 119.519 63.3658 119.519C57.4353 119.519 51.8599 117.21 47.6666 113.016C39.0098 104.359 39.0098 90.2741 47.6666 81.6173Z" fill="#6D6B6C"/>
<path d="M47.4205 52.0001H47.7651H53.9328H54.2785L54.4006 52.3235L55.2728 54.6342L55.2728 54.6343C55.5511 55.3718 56.2522 55.8277 56.9982 55.8277C57.2138 55.8277 57.4337 55.7895 57.6489 55.7083C58.6014 55.3489 59.0823 54.285 58.7227 53.3323L58.7226 53.3323L52.9234 37.9656L52.9211 37.9594L52.9211 37.9594C52.9171 37.9484 52.9121 37.9359 52.9031 37.9136C52.5621 37.0865 51.7662 36.5537 50.8721 36.5537H50.8721H50.8721H50.872H50.872H50.872H50.872H50.872H50.872H50.872H50.872H50.872H50.8719H50.8719H50.8719H50.8719H50.8719H50.8719H50.8719H50.8719H50.8719H50.8718H50.8718H50.8718H50.8718H50.8718H50.8718H50.8718H50.8718H50.8717H50.8717H50.8717H50.8717H50.8717H50.8717H50.8717H50.8717H50.8717H50.8716H50.8716H50.8716H50.8716H50.8716H50.8716H50.8716H50.8716H50.8715H50.8715H50.8715H50.8715H50.8715H50.8715H50.8715H50.8715H50.8714H50.8714H50.8714H50.8714H50.8714H50.8714H50.8714H50.8714H50.8714H50.8713H50.8713H50.8713H50.8713H50.8713H50.8713H50.8713H50.8713H50.8712H50.8712H50.8712H50.8712H50.8712H50.8712H50.8712H50.8712H50.8711H50.8711H50.8711H50.8711H50.8711H50.8711H50.8711H50.871H50.871H50.871H50.871H50.871H50.871H50.871H50.871H50.8709H50.8709H50.8709H50.8709H50.8709H50.8709H50.8709H50.8709H50.8708H50.8708H50.8708H50.8708H50.8708H50.8708H50.8708H50.8708H50.8707H50.8707H50.8707H50.8707H50.8707H50.8707H50.8707H50.8707H50.8706H50.8706H50.8706H50.8706H50.8706H50.8706H50.8706H50.8706H50.8705H50.8705H50.8705H50.8705H50.8705H50.8705H50.8705H50.8705H50.8704H50.8704H50.8704H50.8704H50.8704H50.8704H50.8704H50.8703H50.8703H50.8703H50.8703H50.8703H50.8703H50.8703H50.8703H50.8702H50.8702H50.8702H50.8702H50.8702H50.8702H50.8702H50.8702H50.8701H50.8701H50.8701H50.8701H50.8701H50.8701H50.8701H50.8701H50.87H50.87H50.87H50.87H50.87H50.87H50.87H50.87H50.8699H50.8699H50.8699H50.8699H50.8699H50.8699H50.8699H50.8699H50.8698H50.8698H50.8698H50.8698H50.8698H50.8698H50.8698H50.8698H50.8697H50.8697H50.8697H50.8697H50.8697H50.8697H50.8697H50.8697H50.8696H50.8696H50.8696H50.8696H50.8696H50.8696H50.8696H50.8696H50.8695H50.8695H50.8695H50.8695H50.8695H50.8695H50.8695H50.8695H50.8694H50.8694H50.8694H50.8694H50.8694H50.8694H50.8694H50.8694H50.8694H50.8693H50.8693H50.8693H50.8693H50.8693H50.8693H50.8693H50.8693H50.8692C49.9735 36.5548 49.1776 37.0899 48.8382 37.9191L48.838 37.9197C48.8313 37.9359 48.827 37.9468 48.8237 37.9557L48.8218 37.9608L48.8218 37.9608L42.9691 53.3265L42.9691 53.3265C42.6065 54.2784 43.0844 55.3437 44.0357 55.7061L47.4205 52.0001ZM47.4205 52.0001L47.2979 52.3221M47.4205 52.0001L47.2979 52.3221M47.2979 52.3221L46.4154 54.6393M47.2979 52.3221L46.4154 54.6393M46.4154 54.6393C46.0527 55.591 44.9875 56.0684 44.0358 55.7061L46.4154 54.6393ZM52.1634 48.3122H52.8865L52.6311 47.6356L51.3305 44.1896L50.8648 42.9558L50.3954 44.1882L49.0829 47.6342L48.8247 48.3122H49.5502H52.1634Z" fill="#6D6B6C" stroke="#F1F1F1"/>
<path d="M102.227 53.9829C102.227 55.0013 101.401 55.8268 100.383 55.8268C99.3643 55.8268 98.5391 55.0013 98.5391 53.9829V38.3975C98.5391 37.3792 99.3643 36.5537 100.383 36.5537C101.401 36.5537 102.227 37.3792 102.227 38.3975V53.9829Z" fill="#6D6B6C" stroke="#F1F1F1"/>
<path d="M80.4616 53.9896L80.4616 53.9896C80.4633 54.4787 80.6594 54.9468 81.0067 55.2916L81.0068 55.2917C81.3517 55.6345 81.8187 55.8268 82.3054 55.8268H82.313C82.3221 55.8267 82.3419 55.8266 82.3713 55.8265C82.8335 55.8246 85.6715 55.8129 86.8489 55.7922L86.849 55.7922C91.4118 55.7125 94.8254 51.7619 94.8254 46.1902C94.8254 43.2515 93.9846 40.8404 92.5635 39.1727C91.1483 37.5118 89.1298 36.5537 86.6877 36.5537H82.2735C81.7842 36.5537 81.3147 36.7483 80.9685 37.0949L80.4616 53.9896ZM80.4616 53.9896L79.9616 53.9914M80.4616 53.9896L79.9616 53.9914M79.9616 53.9914L80.4616 53.9895L80.4616 53.9893L80.4616 53.9885L80.4616 53.9855L80.4615 53.9733L80.4613 53.9256L80.4607 53.7426L80.4583 53.0728C80.4564 52.5092 80.4538 51.7352 80.4513 50.8934C80.4461 49.2096 80.4409 47.2558 80.4409 46.173C80.4409 45.2842 80.4381 43.3411 80.4353 41.6205C80.4325 39.8991 80.4297 38.4015 80.4297 38.4019L80.4297 38.4009M79.9616 53.9914L80.4297 38.4009M80.4297 38.4009C80.4287 37.9117 80.6226 37.4418 80.9684 37.095L80.4297 38.4009ZM84.143 52.1301L84.1414 51.6283C84.1354 49.818 84.1289 47.419 84.1289 46.173C84.1289 45.2821 84.1259 43.3315 84.1233 41.6063C84.1229 41.3093 84.1224 41.0191 84.122 40.7421L84.1213 40.2413H84.622H86.6877C87.7059 40.2413 88.5187 40.5335 89.1533 41.0145C89.7815 41.4907 90.2066 42.1301 90.4949 42.785C91.0666 44.0836 91.1378 45.5296 91.1378 46.1902C91.1378 47.5858 90.8264 49.0268 90.1317 50.1426C89.4263 51.2756 88.3167 52.0783 86.7845 52.105M84.143 52.1301L86.7845 52.105M84.143 52.1301L84.6449 52.1266M84.143 52.1301L84.6449 52.1266M86.7845 52.105C86.2827 52.1138 85.4533 52.121 84.6449 52.1266M86.7845 52.105L84.6449 52.1266" fill="#6D6B6C" stroke="#F1F1F1"/>
<path d="M65.1009 54.7151L65.1009 54.7151C62.885 53.2993 61.8047 51.4253 61.8047 49.1222V38.3975C61.8047 37.3792 62.63 36.5537 63.6485 36.5537C64.667 36.5537 65.4923 37.3792 65.4923 38.3975V49.1219C65.4923 49.547 65.5591 49.9792 65.8188 50.4144C66.0723 50.8392 66.4828 51.2218 67.0863 51.6074L67.0864 51.6074C67.6487 51.9665 68.2715 52.1378 68.9685 52.1388H68.9693H68.9693H68.9693H68.9693H68.9694H68.9694H68.9694H68.9694H68.9695H68.9695H68.9695H68.9696H68.9696H68.9696H68.9696H68.9697H68.9697H68.9697H68.9697H68.9698H68.9698H68.9698H68.9698H68.9699H68.9699H68.9699H68.9699H68.97H68.97H68.97H68.97H68.9701H68.9701H68.9701H68.9701H68.9702H68.9702H68.9702H68.9702H68.9703H68.9703H68.9703H68.9703H68.9704H68.9704H68.9704H68.9704H68.9704H68.9705H68.9705H68.9705H68.9705H68.9706H68.9706H68.9706H68.9706H68.9707H68.9707H68.9707H68.9707H68.9708H68.9708H68.9708H68.9708H68.9709H68.9709H68.9709H68.9709H68.971H68.971H68.971H68.971H68.9711H68.9711H68.9711H68.9711H68.9712H68.9712H68.9712H68.9712H68.9713H68.9713H68.9713H68.9713H68.9713H68.9714H68.9714H68.9714H68.9714H68.9715H68.9715H68.9715H68.9715H68.9716H68.9716H68.9716H68.9716H68.9717H68.9717H68.9717H68.9717H68.9718H68.9718H68.9718H68.9718H68.9718H68.9719H68.9719H68.9719H68.9719H68.972H68.972H68.972H68.972H68.9721H68.9721H68.9721H68.9721H68.9722H68.9722H68.9722H68.9722H68.9723H68.9723H68.9723H68.9723H68.9723H68.9724H68.9724H68.9724H68.9724H68.9725H68.9725H68.9725H68.9725H68.9726H68.9726H68.9726H68.9726H68.9727H68.9727H68.9727H68.9727H68.9728H68.9728H68.9728H68.9728H68.9728H68.9729H68.9729H68.9729H68.9729H68.973H68.973H68.973H68.973H68.9731H68.9731H68.9731H68.9731H68.9732H68.9732H68.9732H68.9732H68.9733H68.9733H68.9733H68.9733H68.9734H68.9734H68.9734H68.9734H68.9734H68.9735H68.9735H68.9735H68.9735H68.9736H68.9736H68.9736H68.9736H68.9737H68.9737H68.9737H68.9737H68.9738H68.9738H68.9738H68.9738H68.9739H68.9739H68.9739H68.9739H68.974H68.974H68.974H68.974H68.9741H68.9741H68.9741H68.9741H68.9741H68.9742H68.9742H68.9742H68.9742H68.9743H68.9743H68.9743H68.9743H68.9744H68.9744H68.9744H68.9744H68.9745H68.9745H68.9745H68.9745H68.9746H68.9746H68.9746H68.9746H68.9747H68.9747H68.9747H68.9747H68.9748H68.9748H68.9748H68.9748H68.9749H68.9749H68.9749H68.9749H68.975H68.975H68.975H68.975H68.9751H68.9751H68.9751H68.9751H68.9752H68.9752H68.9752H68.9752H68.9753H68.9753H68.9753H68.9753H68.9754H68.9754H68.9754H68.9754H68.9755H68.9755H68.9755C69.6089 52.1388 70.1817 52.0138 70.7115 51.7469C71.4916 51.354 71.9868 50.9202 72.2801 50.4468C72.577 49.9675 72.6344 49.4999 72.6344 49.1106V38.3975C72.6344 37.3792 73.4596 36.5537 74.4782 36.5537C75.4967 36.5537 76.322 37.3792 76.322 38.3975V49.1106C76.322 51.6356 74.9513 53.7406 72.3701 55.0405L72.37 55.0405C71.3371 55.5609 70.1968 55.8268 68.9752 55.8268H68.9641C67.5475 55.8247 66.2509 55.45 65.1009 54.7151Z" fill="#6D6B6C" stroke="#F1F1F1"/>
<path d="M111.087 40.7413V40.2413H110.587H108.645C107.626 40.2413 106.801 39.4158 106.801 38.3975C106.801 37.3792 107.626 36.5537 108.645 36.5537H117.252C118.271 36.5537 119.096 37.3792 119.096 38.3975C119.096 39.4158 118.271 40.2413 117.252 40.2413H115.275H114.775V40.7413V53.9829C114.775 55.0013 113.95 55.8268 112.931 55.8268C111.912 55.8268 111.087 55.0013 111.087 53.9829V40.7413Z" fill="#6D6B6C" stroke="#F1F1F1"/>
</svg>
