<svg width="160" height="160" viewBox="0 0 160 160" fill="none" xmlns="http://www.w3.org/2000/svg">
<g clip-path="url(#clip0_569_9465)">
<path d="M80 81.375C58.3934 81.375 40.8125 63.7941 40.8125 42.1875C40.8125 20.5809 58.3934 3 80 3C101.607 3 119.188 20.5809 119.188 42.1875C119.188 63.7941 101.607 81.375 80 81.375Z" fill="#FFBB6A" stroke="#6D6B6C" stroke-width="6"/>
<path d="M62.3102 7.5188C56.1596 11.0825 50.1254 15.6333 46.4075 22.1482C42.849 28.3837 41.0628 34.8961 41.0625 42.1109C41.0623 47.4727 42.0029 52.3967 44.0147 57.3504C46.0264 62.3042 49.3133 66.7241 53.0307 70.5155C56.7481 74.3069 61.897 77.3142 66.7541 79.366C71.6111 81.4178 76.4971 81.4467 81.7542 81.4464C87.6232 81.4449 92.3978 79.838 97.7119 77.2975C103.026 74.7569 106.722 71.3652 110.478 66.7654C104.45 70.2592 99.3691 73.8555 92.4361 73.8563C81.8204 73.8541 68.572 70.3445 61.0665 62.6877C53.5609 55.0309 50.125 45.9104 50.1254 35.0833C50.1257 25.5362 56.3195 14.8547 62.3102 7.5188Z" fill="#FF8D06"/>
<path d="M79.9961 118.875C73.8986 118.875 68.9336 113.91 68.9336 107.812C68.9336 101.715 73.8986 96.75 79.9961 96.75C86.0936 96.75 91.0586 101.715 91.0586 107.812C91.0586 113.91 86.0936 118.875 79.9961 118.875Z" fill="#FFD9B3" stroke="#6D6B6C" stroke-width="6"/>
<path d="M63.4805 40.3285L76.8961 53.9705L96.513 30.5203" stroke="#6D6B6C" stroke-width="7.53" stroke-linecap="round" stroke-linejoin="round"/>
<path d="M136.562 100.125C130.465 100.125 125.5 95.16 125.5 89.0625C125.5 82.965 130.465 78 136.562 78C142.66 78 147.625 82.965 147.625 89.0625C147.625 95.16 142.66 100.125 136.562 100.125Z" fill="#FFD9B3" stroke="#6D6B6C" stroke-width="6"/>
<path d="M116.125 137.625V126.562C116.125 115.296 125.293 106.125 136.562 106.125C147.832 106.125 157 115.296 157 126.562V137.625H116.125Z" fill="#80CDBF" stroke="#6D6B6C" stroke-width="6"/>
<path d="M23.4375 100.125C17.34 100.125 12.375 95.16 12.375 89.0625C12.375 82.965 17.34 78 23.4375 78C29.535 78 34.5 82.965 34.5 89.0625C34.5 95.16 29.535 100.125 23.4375 100.125Z" fill="#FFD9B3" stroke="#6D6B6C" stroke-width="6"/>
<path d="M23.4547 106.125C34.7247 106.125 43.8922 115.296 43.8922 126.562V137.625H2.99195C2.99194 137.624 2.99193 137.623 2.99192 137.623C2.97128 135.8 2.97132 133.251 3.05399 130.35L3.05521 130.307L3.05521 130.264C3.05509 122.39 3.81604 118.147 7.17924 113.998C10.7731 109.564 14.2842 107.665 17.0442 106.819C19.4918 106.069 21.4457 106.098 22.8508 106.119C23.065 106.122 23.2662 106.125 23.4547 106.125ZM23.4547 106.125V103.125M23.4547 106.125V103.125M23.4547 103.125C23.2964 103.125 23.1167 103.122 22.9169 103.119C19.8934 103.067 12.282 102.939 4.84876 112.109C0.810757 117.09 0.0550844 122.222 0.0552126 130.264L46.8922 137.625V126.562C46.8922 113.64 36.3819 103.125 23.4547 103.125Z" fill="#319786" stroke="#6D6B6C" stroke-width="6"/>
<path d="M79.7906 124.674C91.0606 124.674 100.228 133.845 100.228 145.112V156.174H59.3279C59.3279 156.174 59.3279 156.173 59.3279 156.172C59.3072 154.349 59.3073 151.8 59.3899 148.899L59.3912 148.856L59.3911 148.814C59.391 140.94 60.152 136.696 63.5152 132.547C67.109 128.114 70.6201 126.214 73.3802 125.369C75.8277 124.619 77.7817 124.647 79.1868 124.668C79.4009 124.671 79.6022 124.674 79.7906 124.674ZM79.7906 124.674V121.674M79.7906 124.674V121.674M79.7906 121.674C79.6323 121.674 79.4526 121.671 79.2529 121.668C76.2293 121.617 68.618 121.488 61.1847 130.658C57.1467 135.639 56.391 140.772 56.3912 148.814L103.228 156.174V145.112C103.228 132.189 92.7178 121.674 79.7906 121.674Z" fill="#319786" stroke="#6D6B6C" stroke-width="6"/>
</g>
<defs>
<clipPath id="clip0_569_9465">
<rect width="160" height="160" fill="white"/>
</clipPath>
</defs>
</svg>
