<svg width="160" height="160" viewBox="0 0 160 160" fill="none" xmlns="http://www.w3.org/2000/svg">
<path d="M13.5229 2.36353C7.51701 2.36353 2.64844 6.68571 2.64844 12.0176V136.375C2.64844 141.707 7.51701 146.029 13.5229 146.029H115.765C121.771 146.029 126.639 141.707 126.639 136.375V32.1335C126.639 30.1938 125.771 28.3335 124.226 26.9619L98.9312 4.50571C97.3866 3.13415 95.2911 2.36353 93.1062 2.36353H13.5229Z" fill="#F4F8F8"/>
<path d="M107.394 29.104C106.576 29.104 105.779 29.0208 105.012 28.8687V136.375C105.012 141.707 100.143 146.029 94.1367 146.029H115.766C121.772 146.029 126.64 141.707 126.64 136.375V32.1333C126.64 31.0777 126.381 30.0465 125.898 29.104H107.394Z" fill="#E7ECF1"/>
<path d="M124.228 26.9613L98.9325 4.5051C98.2282 3.87978 97.409 3.38135 96.5195 3.02197V19.4491C96.5195 24.781 101.388 29.1032 107.394 29.1032H125.898C125.493 28.3141 124.932 27.5866 124.228 26.9613Z" fill="#D98888"/>
<path d="M135.319 127.914L96.4773 107.494C94.4856 106.446 93.8277 104.163 95.008 102.395C95.008 102.395 95.9676 100.957 96.9951 99.4168L89.1369 95.2896C83.9529 92.6487 81.529 92.1602 76.8523 93.7652L71.7553 95.5146C68.6534 96.5793 65.1731 96.3221 62.3121 94.8174L48.6694 87.6765L29.293 116.712L46.7619 125.866C47.9453 126.488 48.9845 127.305 49.8243 128.271L55.7109 135.049C58.9624 138.425 65.6726 142.804 69.977 145.068L92.4444 156.885C95.41 158.444 99.2384 157.575 100.995 154.942C102.752 152.309 101.772 148.91 98.8068 147.35L105.826 151.042C108.792 152.602 112.62 151.732 114.377 149.1C116.134 146.467 115.154 143.068 112.189 141.508L116.868 143.97C119.834 145.529 123.662 144.66 125.419 142.027C127.176 139.394 126.196 135.995 123.231 134.435L128.957 137.447C131.923 139.007 135.751 138.137 137.508 135.505C139.264 132.872 138.284 129.474 135.319 127.914Z" fill="#FFECE3"/>
<path d="M135.319 127.916L121.933 120.879C121.639 121.895 121.071 122.88 120.143 123.735C117.769 125.923 113.958 126.279 111.013 124.73L107.206 122.728C107.07 122.657 106.897 122.678 106.789 122.78C106.678 122.884 106.669 123.041 106.762 123.158C108.356 125.171 108.577 127.905 107.073 130.158C105.027 133.224 100.569 134.237 97.1153 132.421L94.124 130.836C94.0061 130.773 93.8547 130.793 93.7618 130.883C93.6667 130.975 93.6629 131.112 93.7477 131.212C95.5035 133.269 95.7735 136.155 94.1451 138.497C92.0475 141.514 87.5285 142.379 84.0922 140.571L81.6356 139.279C81.1481 139.023 80.5359 139.044 80.073 139.335C79.6102 139.626 79.3813 140.131 79.495 140.624C79.8439 142.138 79.588 143.765 78.6312 145.199C77.8128 146.425 76.6058 147.316 75.2344 147.836L92.3034 156.814C95.3131 158.397 99.3284 157.554 101.055 154.853C102.729 152.234 101.738 148.895 98.8067 147.354L105.685 150.971C108.695 152.554 112.71 151.712 114.437 149.011C116.111 146.391 115.12 143.053 112.189 141.511L116.727 143.898C119.737 145.481 123.752 144.639 125.479 141.938C127.153 139.319 126.162 135.98 123.231 134.438L128.817 137.376C131.826 138.959 135.841 138.117 137.567 135.416C139.241 132.796 138.25 129.458 135.319 127.916Z" fill="#FFDDCE"/>
<path d="M131.956 89.4126L121.478 94.8195C118.617 96.3241 115.137 96.581 112.035 95.5166L106.287 93.512C104.489 92.8848 102.515 92.7738 100.642 93.1948L91.8351 95.1735C87.7349 96.0948 84.8633 99.3698 84.8633 103.124V113.562C84.8633 115.038 86.2104 116.238 87.8726 116.239C92.8855 116.242 96.9501 112.635 96.9501 108.186V107.744L134.649 127.563C135.347 126.903 136.148 126.332 137.029 125.868L151.333 118.449L131.956 89.4126Z" fill="#FCD0A3"/>
<path d="M137.545 97.7871L135.531 104.419L112.961 116.16L134.648 127.562C135.347 126.901 136.147 126.33 137.028 125.867L151.333 118.448L137.545 97.7871Z" fill="#FFB983"/>
<path d="M54.4209 132.014L50.8864 136.385C48.8769 138.87 44.9784 139.438 42.1793 137.654C39.3801 135.87 38.7398 132.409 40.7494 129.924L44.2839 125.553C46.2935 123.068 50.1919 122.5 52.9911 124.284C55.7902 126.068 56.4305 129.529 54.4209 132.014Z" fill="#FCD0A3"/>
<path d="M68.4582 133.652L61.0232 142.846C59.0136 145.331 55.1151 145.9 52.316 144.116C49.5168 142.332 48.8765 138.871 50.8861 136.386L58.3212 127.192C60.3308 124.707 64.2292 124.138 67.0284 125.922C69.8275 127.706 70.4678 131.167 68.4582 133.652Z" fill="#FCD0A3"/>
<path d="M78.5949 140.112L71.1599 149.306C69.1503 151.791 65.2518 152.359 62.4527 150.575C59.6536 148.791 59.0133 145.33 61.0229 142.845L68.4579 133.651C70.4675 131.166 74.3659 130.598 77.1651 132.382C79.9642 134.166 80.6045 137.627 78.5949 140.112Z" fill="#FCD0A3"/>
<path d="M85.4292 150.658L82.9568 153.715C80.9472 156.2 77.0487 156.769 74.2496 154.985C71.4504 153.201 70.8101 149.74 72.8197 147.255L75.2922 144.197C77.3018 141.712 81.2003 141.144 83.9994 142.928C86.7985 144.712 87.4388 148.173 85.4292 150.658Z" fill="#FFB983"/>
<path d="M55.9709 84.6644L50.506 81.7904C49.0026 80.9997 47.062 81.4407 46.1714 82.7754L23.704 116.443C22.8134 117.778 23.3101 119.501 24.8135 120.291L30.2784 123.165C33.9438 125.093 38.6758 124.018 40.8473 120.764L58.676 94.0472C60.8475 90.7932 59.6363 86.5922 55.9709 84.6644Z" fill="#3E7068"/>
<path d="M130.116 81.7904L124.651 84.6644C120.985 86.5922 119.774 90.7932 121.946 94.0472L139.774 120.764C141.946 124.018 146.678 125.093 150.343 123.165L155.808 120.291C157.312 119.501 157.808 117.777 156.918 116.443L134.45 82.7754C133.56 81.4407 131.619 80.9997 130.116 81.7904Z" fill="#3E7068"/>
<path d="M107.791 43.0642H21.4833C20.019 43.0642 18.832 44.118 18.832 45.418C18.832 46.718 20.019 47.7717 21.4833 47.7717H107.791C109.256 47.7717 110.443 46.718 110.443 45.418C110.443 44.118 109.255 43.0642 107.791 43.0642Z" fill="#6D6B6C"/>
<path d="M21.4833 31.446H64.637C66.1013 31.446 67.2883 30.3923 67.2883 29.0923C67.2883 27.7923 66.1013 26.7385 64.637 26.7385H21.4833C20.019 26.7385 18.832 27.7923 18.832 29.0923C18.832 30.3926 20.019 31.446 21.4833 31.446Z" fill="#6D6B6C"/>
<path d="M107.791 57.5303H21.4833C20.019 57.5303 18.832 58.584 18.832 59.884C18.832 61.184 20.019 62.2378 21.4833 62.2378H107.791C109.256 62.2378 110.443 61.184 110.443 59.884C110.442 58.584 109.255 57.5303 107.791 57.5303Z" fill="#6D6B6C"/>
<path d="M41.1451 143.646H13.5244C8.9909 143.646 5.30225 140.372 5.30225 136.347V12.0065C5.30225 7.98186 8.9909 4.70718 13.5244 4.70718H93.0971C93.3541 4.70718 93.6072 4.72812 93.8574 4.75812V19.4375C93.8574 26.0581 99.9246 31.444 107.382 31.444H123.917C123.951 31.6665 123.974 31.8912 123.974 32.1193V72.2008C123.974 73.5008 125.161 74.5546 126.625 74.5546C128.09 74.5546 129.277 73.5008 129.277 72.2008V32.1196C129.277 29.5378 128.144 27.1103 126.087 25.2843L100.796 2.83124C98.7394 1.00562 96.0054 0 93.0971 0H13.5244C6.0668 0 0 5.38624 0 12.0065V136.347C0 142.967 6.06715 148.353 13.5244 148.353H41.1451C42.6095 148.353 43.7964 147.299 43.7964 145.999C43.7964 144.699 42.6095 143.646 41.1451 143.646ZM120.225 26.7368H107.382C102.849 26.7368 99.16 23.4621 99.16 19.4375V8.03623L120.225 26.7368Z" fill="#6D6B6C"/>
<path d="M159.188 115.228L136.724 81.5654C135.087 79.1111 131.524 78.2998 128.758 79.7545L123.293 82.6285C119.052 84.8592 117.259 89.3732 118.716 93.3735C116.875 93.9657 114.856 93.9563 112.998 93.3185C108.684 92.1135 105.404 89.6895 99.9866 90.9057C90.7887 92.9848 91.0682 92.8807 90.236 93.1338C84.8504 90.4117 81.613 89.6017 75.8957 91.5651L70.7994 93.3142C68.4399 94.1235 65.84 93.9317 63.6597 92.7848L62.2689 92.057C62.9476 88.447 61.1443 84.6373 57.3257 82.6292C57.3257 82.6292 57.3257 82.6292 57.3254 82.6289L51.8615 79.7551C49.1032 78.3048 45.5297 79.1167 43.8957 81.5654L21.4307 115.228C19.7936 117.682 20.7046 120.846 23.4699 122.3L28.9337 125.174C30.5871 126.043 32.4041 126.457 34.1994 126.457C36.2012 126.457 38.1749 125.942 39.8624 124.972L41.0011 125.568L38.597 128.541C35.732 132.084 36.6423 137.011 40.634 139.555C42.4799 140.731 44.7989 141.268 47.1971 140.934C47.5776 142.909 48.7963 144.757 50.7696 146.015C52.6229 147.196 54.9314 147.734 57.3338 147.398C57.7154 149.371 58.9333 151.218 60.9056 152.475C63.5562 154.164 66.8517 154.359 69.5976 153.318C70.1985 154.704 71.2429 155.955 72.6999 156.884C76.5043 159.308 81.745 158.676 84.7011 155.535L91.09 158.895C95.3151 161.118 100.767 159.882 103.272 156.127C103.912 155.167 104.31 154.121 104.455 153.046L104.47 153.053C108.688 155.272 114.152 154.03 116.652 150.285C117.375 149.201 117.772 148.024 117.868 146.845C121.587 147.675 125.64 146.288 127.692 143.213C128.365 142.205 128.756 141.115 128.884 140.018C132.869 141.407 137.527 140.065 139.778 136.693C140.989 134.878 141.331 132.755 140.742 130.712C140.405 129.543 139.786 128.482 138.936 127.586L142.457 125.76C145.436 126.845 148.836 126.672 151.685 125.173L157.148 122.3C159.913 120.847 160.827 117.683 159.188 115.228ZM31.6364 121.124L26.1726 118.25C25.9297 118.122 25.8491 117.843 25.9927 117.627L48.4577 83.9639C48.6023 83.7473 48.9181 83.677 49.1596 83.8045L54.623 86.6779C57.0508 87.9551 57.8104 90.7195 56.3982 92.8354L38.5723 119.548C37.1495 121.68 34.0385 122.387 31.6364 121.124ZM43.726 135.731C42.1159 134.705 41.7477 132.717 42.9044 131.287L46.4382 126.917C47.5639 125.524 49.8072 125.143 51.4444 126.187C53.0513 127.211 53.4199 129.204 52.2667 130.631L48.7326 135.001C47.5791 136.428 45.3322 136.754 43.726 135.731ZM53.862 142.191C52.2551 141.167 51.8865 139.173 53.0401 137.747L56.5738 133.377C56.5738 133.377 56.5738 133.377 56.5738 133.377C56.5738 133.377 56.5738 133.376 56.5742 133.376L60.474 128.554C61.033 127.863 61.8613 127.406 62.8068 127.268C63.0032 127.24 63.2 127.226 63.3953 127.226C64.1395 127.226 64.8635 127.431 65.4803 127.824C66.2582 128.32 66.7728 129.055 66.9277 129.895C67.0829 130.734 66.8608 131.577 66.3018 132.268L58.8678 141.461C57.7126 142.891 55.4728 143.218 53.862 142.191ZM63.998 148.651C62.3918 147.627 62.0229 145.635 63.1743 144.208C63.1746 144.208 63.1753 144.207 63.1757 144.207L70.6097 135.014C71.7625 133.588 74.0097 133.26 75.6159 134.284C77.2228 135.308 77.5913 137.302 76.4378 138.728L73.1349 142.813C73.1349 142.813 73.1349 142.813 73.1346 142.813L69.0038 147.921C67.8503 149.348 65.6052 149.676 63.998 148.651ZM75.7922 153.06C74.1864 152.036 73.8171 150.044 74.9678 148.618L77.4421 145.558C78.5952 144.132 80.8421 143.805 82.4483 144.829C84.0548 145.852 84.4237 147.847 83.2702 149.273L80.7981 152.33C79.6449 153.757 77.3984 154.084 75.7922 153.06ZM135.217 134.293C134.208 135.805 132.003 136.306 130.3 135.411C127.417 133.894 108.816 124.111 106.832 123.068C105.572 122.405 103.946 122.774 103.2 123.893C102.454 125.011 102.869 126.455 104.129 127.118L121.871 136.449L121.872 136.449C123.575 137.345 124.143 139.297 123.131 140.815C122.121 142.327 119.915 142.827 118.213 141.932C111.651 138.481 106.323 135.679 100.461 132.596C99.2009 131.933 97.5753 132.303 96.8291 133.421C96.0828 134.539 96.4986 135.983 97.7584 136.646L110.831 143.521L110.834 143.523C112.538 144.421 113.101 146.372 112.09 147.887C111.081 149.399 108.876 149.9 107.172 149.004L100.157 145.315C100.156 145.314 100.155 145.314 100.154 145.313C100.153 145.313 100.153 145.313 100.152 145.312L95.0321 142.619C93.7719 141.957 92.146 142.326 91.3998 143.444C90.6535 144.563 91.0692 146.007 92.329 146.669L97.45 149.362C97.4507 149.363 97.4514 149.363 97.4521 149.364C99.1555 150.259 99.7236 152.211 98.7109 153.729C97.7017 155.241 95.4964 155.742 93.793 154.846L87.8192 151.705C90.38 148.197 89.406 143.469 85.5406 141.006C84.4054 140.283 83.1414 139.833 81.8485 139.639C83.2199 136.384 82.0375 132.583 78.7079 130.461C76.7367 129.204 74.3765 128.77 72.149 129.08C71.7526 127.023 70.4851 125.22 68.5726 124.002C64.9758 121.71 60.0879 122.15 57.0688 124.862C56.4552 123.905 55.6083 123.047 54.5368 122.364C51.5479 120.46 47.6674 120.442 44.7085 122.046L43.4937 121.41L60.1681 96.4226L60.9619 96.8382C64.4679 98.6819 68.7462 99.0663 72.7111 97.7051L77.8075 95.956C80.7238 94.9554 82.3321 94.8901 85.2168 96.0985C83.3294 97.981 82.2089 100.453 82.2089 103.116V113.552C82.2089 116.324 84.7472 118.581 87.867 118.583H87.8748C91.0041 118.583 93.9469 117.501 96.1606 115.537C97.4511 114.392 98.4036 113.027 98.9745 111.537C102.398 113.337 130.68 128.205 133.959 129.93C134.784 130.363 135.369 131.056 135.607 131.881C135.844 132.704 135.706 133.561 135.217 134.293ZM154.447 118.25L148.982 121.124C146.58 122.387 143.469 121.679 142.047 119.548L133.692 107.028C132.945 105.909 131.318 105.54 130.06 106.202C128.8 106.865 128.384 108.308 129.13 109.427L137.485 121.948C137.642 122.183 137.813 122.407 137.99 122.626L135.667 123.83C135.197 124.077 134.746 124.349 134.314 124.644L98.2955 105.708C96.5309 104.781 94.2936 105.912 94.2936 107.733C94.2658 107.874 94.5675 110.293 92.4121 112.206C91.1998 113.282 89.5883 113.874 87.8744 113.874C87.873 113.874 87.8716 113.874 87.8702 113.874C87.672 113.874 87.5108 113.729 87.5108 113.551V103.115C87.5108 100.389 89.6235 98.0888 92.4808 97.4466L101.287 95.4682C104.482 94.7513 106.288 96.266 111.072 97.7035C114.393 98.8441 118.004 98.7738 121.21 97.5585L122.81 99.9566C123.556 101.076 125.183 101.444 126.442 100.782C127.702 100.12 128.118 98.676 127.372 97.5576L124.22 92.8348C122.794 90.6979 123.589 87.9442 125.995 86.6776L131.459 83.8042C131.698 83.6782 132.014 83.7426 132.162 83.9639L154.626 117.627C154.771 117.844 154.691 118.122 154.447 118.25Z" fill="#6D6B6C"/>
</svg>
