<svg width="160" height="160" viewBox="0 0 160 160" fill="none" xmlns="http://www.w3.org/2000/svg">
<path d="M19.4961 157.496V22.2421C19.4961 18.8335 22.1965 16.1013 25.5655 16.1013H123.37C126.739 16.1013 129.44 18.8335 129.44 22.2421V146.36C129.44 152.501 124.502 157.496 118.407 157.496H19.4961Z" fill="#E2E2E2"/>
<g opacity="0.5">
<path d="M123.37 16.1013H62.8047V59.0351C62.8047 83.13 82.1188 102.671 105.933 102.671H129.465V22.2421C129.44 18.8335 126.739 16.1013 123.37 16.1013Z" fill="white"/>
</g>
<g opacity="0.5">
<path d="M123.368 16.1042H70.3125C70.3125 21.6726 74.7617 26.1742 80.2653 26.1742H119.536V82.5085C119.536 88.0248 123.96 92.5003 129.412 92.5003V22.2451C129.438 18.8364 126.737 16.1042 123.368 16.1042Z" fill="white"/>
</g>
<path d="M118.405 157.503H13.1931C7.27799 157.503 2.46875 152.637 2.46875 146.652V135.203H107.398V146.366C107.398 147.875 107.706 149.306 108.22 150.633C108.786 152.013 109.609 153.21 110.638 154.25C112.618 156.254 115.37 157.503 118.405 157.503Z" fill="#E2E2E2"/>
<g opacity="0.5">
<path d="M108.222 150.633H27.2361C21.321 150.633 16.5117 145.768 16.5117 139.783V135.203H107.399V146.366C107.399 147.849 107.681 149.306 108.222 150.633Z" fill="white"/>
</g>
<path d="M118.403 160C114.777 160 111.408 158.569 108.862 155.993C106.316 153.469 104.901 150.034 104.901 146.365V137.701H19.4923C18.1293 137.701 17.0234 136.582 17.0234 135.203V50.1938C17.0234 48.8147 18.1293 47.6958 19.4923 47.6958C20.8554 47.6958 21.9613 48.8147 21.9613 50.1938V132.705H107.396C108.759 132.705 109.865 133.824 109.865 135.203V146.365C109.865 148.681 110.765 150.841 112.359 152.454C113.98 154.119 116.114 155.004 118.403 155.004C123.135 155.004 126.967 151.127 126.967 146.365V132.861C126.967 131.482 128.073 130.363 129.436 130.363C130.799 130.363 131.905 131.482 131.905 132.861V146.365C131.905 153.885 125.861 160 118.403 160Z" fill="#6D6B6C"/>
<path d="M129.436 122.871C128.073 122.871 126.967 121.752 126.967 120.373V22.2501C126.967 20.2465 125.347 18.6073 123.367 18.6073H25.5618C23.5815 18.6073 21.9613 20.2465 21.9613 22.2501V38.7731C21.9613 40.1522 20.8554 41.2711 19.4923 41.2711C18.1293 41.2711 17.0234 40.1522 17.0234 38.7731V22.2501C17.0234 17.4884 20.8554 13.6113 25.5618 13.6113H123.367C128.073 13.6113 131.905 17.4884 131.905 22.2501V120.373C131.905 121.752 130.799 122.871 129.436 122.871Z" fill="#6D6B6C"/>
<path d="M118.405 160.002H13.1932C5.9151 160.002 0 154.017 0 146.654V135.205C0 133.825 1.10587 132.707 2.46891 132.707H107.398C108.761 132.707 109.867 133.825 109.867 135.205V146.367C109.867 148.683 110.767 150.843 112.361 152.456C113.981 154.121 116.116 155.006 118.405 155.006C119.768 155.006 120.874 156.125 120.874 157.504C120.874 158.883 119.768 160.002 118.405 160.002ZM4.93782 137.676V146.627C4.93782 151.233 8.64119 155.006 13.219 155.006H108.015C106.035 152.586 104.954 149.568 104.954 146.367V137.702H4.93782V137.676Z" fill="#6D6B6C"/>
<path d="M111.82 124.069H37.1095C35.7465 124.069 34.6406 122.95 34.6406 121.571C34.6406 120.192 35.7465 119.073 37.1095 119.073H111.846C113.209 119.073 114.314 120.192 114.314 121.571C114.289 122.95 113.183 124.069 111.82 124.069Z" fill="#6D6B6C"/>
<path d="M111.82 98.3053H37.1095C35.7465 98.3053 34.6406 97.1864 34.6406 95.8073C34.6406 94.4282 35.7465 93.3093 37.1095 93.3093H111.846C113.209 93.3093 114.314 94.4282 114.314 95.8073C114.289 97.1864 113.183 98.3053 111.82 98.3053Z" fill="#6D6B6C"/>
<path d="M111.82 111.181H37.1095C35.7465 111.181 34.6406 110.062 34.6406 108.683C34.6406 107.304 35.7465 106.185 37.1095 106.185H111.846C113.209 106.185 114.314 107.304 114.314 108.683C114.314 110.062 113.183 111.181 111.82 111.181Z" fill="#6D6B6C"/>
<path d="M97.7548 85.4295H51.1798C49.8168 85.4295 48.7109 84.3106 48.7109 82.9316C48.7109 81.5525 49.8168 80.4336 51.1798 80.4336H97.7548C99.1179 80.4336 100.224 81.5525 100.224 82.9316C100.224 84.3106 99.1179 85.4295 97.7548 85.4295Z" fill="#6D6B6C"/>
<path d="M74.48 51.3384C79.1246 51.3384 82.8898 47.529 82.8898 42.8297C82.8898 38.1305 79.1246 34.321 74.48 34.321C69.8355 34.321 66.0703 38.1305 66.0703 42.8297C66.0703 47.529 69.8355 51.3384 74.48 51.3384Z" fill="#319786"/>
<path d="M56.9922 69.0041C56.9922 59.2464 64.8104 51.3362 74.4546 51.3362C84.0988 51.3362 91.917 59.2464 91.917 69.0041H56.9922Z" fill="#319786"/>
<path d="M74.4763 53.8121C68.484 53.8121 63.5977 48.8682 63.5977 42.8315C63.5977 36.7947 68.484 31.8508 74.4763 31.8508C80.4686 31.8508 85.3292 36.7947 85.3292 42.8315C85.3292 48.8682 80.4686 53.8121 74.4763 53.8121ZM74.4763 36.8207C71.2101 36.8207 68.5355 39.5008 68.5355 42.8315C68.5355 46.1361 71.1844 48.8422 74.4763 48.8422C77.7425 48.8422 80.4171 46.1621 80.4171 42.8315C80.3914 39.5008 77.7425 36.8207 74.4763 36.8207Z" fill="#6D6B6C"/>
<path d="M91.939 71.4761H56.9884C55.6254 71.4761 54.5195 70.3572 54.5195 68.9781C54.5195 57.8674 63.4693 48.8123 74.4509 48.8123C85.4324 48.8123 94.3822 57.8674 94.3822 68.9781C94.4079 70.3832 93.302 71.4761 91.939 71.4761ZM59.6631 66.5062H89.2643C88.0813 59.3245 81.909 53.8342 74.4766 53.8342C67.0441 53.8082 60.8461 59.2985 59.6631 66.5062Z" fill="#6D6B6C"/>
<path d="M140.676 60.0747H157.495V134.103H140.676V60.0747Z" fill="#CE8383"/>
<path d="M157.495 134.106H140.676L149.086 157.499L157.495 134.106Z" fill="#FFAB03"/>
<path d="M149.087 159.995C148.059 159.995 147.133 159.345 146.773 158.356L142.272 145.814C141.809 144.513 142.478 143.082 143.738 142.614C145.024 142.145 146.438 142.822 146.901 144.097L149.087 150.186L151.273 144.097C151.736 142.796 153.151 142.145 154.437 142.614C155.722 143.082 156.365 144.513 155.902 145.814L151.402 158.356C151.068 159.345 150.142 159.995 149.087 159.995Z" fill="#6D6B6C"/>
<path d="M149.084 159.998C148.056 159.998 147.13 159.347 146.77 158.359L138.36 134.966C138.077 134.212 138.206 133.353 138.669 132.676C139.132 132 139.877 131.61 140.7 131.61H157.52C158.317 131.61 159.089 132 159.552 132.676C160.015 133.353 160.117 134.186 159.86 134.966L151.45 158.359C151.065 159.347 150.139 159.998 149.084 159.998ZM144.198 136.606L149.084 150.214L153.971 136.606H144.198Z" fill="#6D6B6C"/>
<g opacity="0.3">
<path d="M157.497 60.0747V122.888C150.913 122.888 145.59 117.502 145.59 110.841V60.0747H157.497Z" fill="white"/>
</g>
<path d="M157.495 136.606H140.676C139.313 136.606 138.207 135.487 138.207 134.108V60.0798C138.207 58.7007 139.313 57.5818 140.676 57.5818H157.495C158.858 57.5818 159.964 58.7007 159.964 60.0798V134.108C159.964 135.487 158.858 136.606 157.495 136.606ZM143.145 131.61H155.026V62.5777H143.145V131.61Z" fill="#6D6B6C"/>
<path d="M157.495 47.952V60.0775H140.676V47.952C140.676 45.8183 142.399 44.075 144.508 44.075H153.663C155.798 44.075 157.495 45.7923 157.495 47.952Z" fill="#80CDBF"/>
<path d="M157.495 62.5766H140.676C139.313 62.5766 138.207 61.4578 138.207 60.0787V47.9531C138.207 44.4404 141.036 41.5781 144.508 41.5781H153.663C157.135 41.5781 159.964 44.4404 159.964 47.9531V60.0787C159.964 61.4578 158.858 62.5766 157.495 62.5766ZM143.145 57.5807H155.026V47.9531C155.026 47.1985 154.409 46.5741 153.663 46.5741H144.508C143.762 46.5741 143.145 47.1985 143.145 47.9531V57.5807Z" fill="#6D6B6C"/>
<path d="M59.8689 8.11617V33.8764C59.8689 36.9729 57.3742 39.4968 54.3138 39.4968H48.5273V51.7264L35.2569 39.4968H10.0534C6.96729 39.4968 4.47266 36.9729 4.47266 33.8764V8.11617C4.47266 4.99371 6.96729 2.46973 10.0534 2.46973H54.3395C57.3742 2.46973 59.8689 4.99371 59.8689 8.11617Z" fill="#FFAB03"/>
<g opacity="0.3">
<path d="M59.871 8.09014V27.3713H41.0456C27.4408 27.3713 16.4336 16.2345 16.4336 2.46973H54.316C57.4021 2.46973 59.871 4.99371 59.871 8.09014Z" fill="white"/>
</g>
<g opacity="0.3">
<path d="M59.8691 25.5759V8.11617C59.8691 4.99371 57.3745 2.46973 54.2884 2.46973H30.2422V2.49575C30.2422 6.91922 33.7912 10.5361 38.189 10.5361H51.948V17.5616C51.948 21.9851 55.4971 25.5759 59.8691 25.5759Z" fill="white"/>
</g>
<path d="M48.5532 54.2006C47.9617 54.2006 47.3444 53.9664 46.8815 53.5501L34.3312 41.971H10.0536C5.63012 41.971 2.00391 38.3281 2.00391 33.8786V8.11838C2.00391 3.64286 5.6044 0 10.0536 0H54.314C58.7375 0 62.3122 3.64286 62.3122 8.11838V33.8786C62.3122 38.3541 58.7117 41.971 54.314 41.971H50.9964V51.7026C50.9964 52.6914 50.4306 53.5761 49.5305 53.9924C49.2219 54.1225 48.8875 54.2006 48.5532 54.2006ZM10.0536 4.96991C8.33049 4.96991 6.94173 6.37501 6.94173 8.11838V33.8786C6.94173 35.596 8.33049 37.0011 10.0536 37.0011H35.2828C35.9 37.0011 36.4915 37.2353 36.9544 37.6516L46.0843 46.0822V39.499C46.0843 38.12 47.1901 37.0011 48.5532 37.0011H54.314C56.0114 37.0011 57.4001 35.596 57.4001 33.8786V8.11838C57.4001 6.37501 56.0114 4.96991 54.314 4.96991H10.0536Z" fill="#6D6B6C"/>
<path d="M23.043 19.1425L30.046 28.1151L44.1385 14.4124" stroke="#6D6B6C" stroke-width="7.5" stroke-linecap="round" stroke-linejoin="round"/>
</svg>
