<svg width="160" height="160" viewBox="0 0 160 160" fill="none" xmlns="http://www.w3.org/2000/svg">
<g clip-path="url(#clip0_569_9434)">
<circle cx="80.7028" cy="79.8268" r="57.5739" fill="#F1F1F1"/>
<path d="M131.847 100.071C127.978 112.557 87.0813 125.814 63.0763 111.111C39.0712 96.4086 42.6429 60.3567 49.8378 36.7162C54.9124 25.118 87.2084 17.8151 111.213 32.5178C135.218 47.2205 140.038 73.6359 131.847 100.071Z" fill="#E2E2E2"/>
<path d="M60.6776 31.0401C60.6776 15.0183 47.6893 2.03125 31.6663 2.03125C15.6445 2.03125 2.65625 15.0183 2.65625 31.0401C2.65625 47.0606 15.6445 60.0477 31.6663 60.0477C47.6893 60.0477 60.6776 47.0606 60.6776 31.0401Z" fill="#64E8FF"/>
<path d="M31.6677 2.03125C29.9819 2.03125 28.3303 2.17651 26.7227 2.45239C40.3884 4.79981 50.7876 16.7053 50.7876 31.0401C50.7876 45.3748 40.3884 57.2791 26.7227 59.6265C28.3303 59.9024 29.9819 60.0477 31.6677 60.0477C47.6907 60.0477 60.679 47.0606 60.679 31.0401C60.679 15.0183 47.6907 2.03125 31.6677 2.03125Z" fill="#0FD9FF"/>
<path d="M157.922 31.0401C157.922 15.0183 144.934 2.03125 128.912 2.03125C112.891 2.03125 99.9023 15.0183 99.9023 31.0401C99.9023 47.0606 112.891 60.0477 128.912 60.0477C144.934 60.0477 157.922 47.0606 157.922 31.0401Z" fill="#6193FF"/>
<path d="M157.913 30.2087C157.454 14.1943 144.1 1.58441 128.084 2.04339C126.558 2.08734 125.063 2.24847 123.608 2.51703C136.763 4.95233 146.898 16.2951 147.297 30.2087C147.712 44.6973 137.428 57.0081 123.605 59.5618C125.59 59.9292 127.645 60.0965 129.744 60.0354C145.76 59.5777 158.371 46.2231 157.913 30.2087Z" fill="#407BFF"/>
<path d="M60.6776 128.336C60.6776 112.315 47.6893 99.3276 31.6663 99.3276C15.6445 99.3276 2.65625 112.315 2.65625 128.336C2.65625 144.357 15.6445 157.344 31.6663 157.344C47.6893 157.344 60.6776 144.357 60.6776 128.336Z" fill="#FF6969"/>
<path d="M31.666 99.3276C29.4199 99.3276 27.2324 99.5828 25.1328 100.067C38.0076 103.03 47.6084 114.562 47.6084 128.336C47.6084 142.11 38.0076 153.642 25.1328 156.606C27.2324 157.089 29.4199 157.344 31.666 157.344C47.689 157.344 60.6773 144.357 60.6773 128.336C60.6773 112.315 47.689 99.3276 31.666 99.3276Z" fill="#FF4848"/>
<path d="M157.922 128.336C157.922 112.315 144.934 99.3276 128.912 99.3276C112.891 99.3276 99.9023 112.315 99.9023 128.336C99.9023 144.357 112.891 157.344 128.912 157.344C144.934 157.344 157.922 144.357 157.922 128.336Z" fill="#FF95C2"/>
<circle cx="128.929" cy="128.353" r="2.42858" fill="white"/>
<path d="M128.911 99.3276C126.908 99.3276 124.952 99.5303 123.064 99.9172C136.283 102.622 146.225 114.318 146.225 128.336C146.225 142.354 136.283 154.049 123.062 156.754C124.952 157.141 126.908 157.344 128.911 157.344C144.933 157.344 157.921 144.357 157.921 128.336C157.921 112.316 144.933 99.3276 128.911 99.3276Z" fill="#FF758E"/>
<path d="M45.3789 19.7497C44.2717 20.4162 43.0852 20.9436 41.8449 21.3171C39.5366 18.6633 35.5143 18.3826 32.8605 20.6909C31.447 21.9202 30.6462 23.7085 30.6718 25.5811V27.0032C25.8451 27.1277 21.2638 24.9475 18.3183 21.1597C18.1181 20.9021 17.7116 20.9668 17.6042 21.2744C16.6386 24.0393 13.9994 34.1614 24.9845 39.043C22.5212 40.7154 19.6598 41.687 16.7069 41.8677C16.2748 41.8946 16.1601 42.4768 16.5531 42.6575C29.0312 48.4217 43.4648 41.2439 43.4648 25.5395C43.4636 25.1428 43.4257 24.7485 43.3513 24.3591C44.528 23.1995 45.424 21.792 45.977 20.2454C46.1076 19.884 45.7072 19.5508 45.3789 19.7497Z" fill="white"/>
<path d="M25.4688 128.018V118.804C25.4688 118.125 26.2036 117.702 26.7908 118.041L34.7681 122.648L42.7442 127.256C43.3313 127.595 43.3313 128.443 42.7442 128.782L34.7681 133.39L26.7908 137.997C26.2036 138.336 25.4688 137.912 25.4688 137.233V128.018Z" fill="white"/>
<path d="M74.1079 85.2747H63.3767C62.0742 85.2747 61.0195 84.2188 61.0195 82.9175V70.6079C61.0195 69.3066 62.0742 68.2507 63.3767 68.2507H74.1079C74.3106 68.2507 74.4754 68.4155 74.4754 68.6182V84.9072C74.4754 85.1099 74.3106 85.2747 74.1079 85.2747Z" fill="#FF8D06"/>
<path d="M97.2513 93.4607C94.0603 91.5064 90.0857 89.408 85.3482 87.5867C81.3735 86.0596 77.687 85.0428 74.4766 84.3543C74.4766 79.2932 74.4766 74.2322 74.4766 69.1712C77.6956 68.4863 81.4028 67.4683 85.4043 65.9277C90.1248 64.1089 94.0811 62.0129 97.2513 60.0647V93.4607Z" fill="#AADDD5"/>
<path d="M139.945 98.9894C141.962 92.765 142.986 86.2733 142.986 79.6583C142.986 73.0677 141.969 66.5992 139.965 60.3944C144.373 58.7391 148.38 56.0889 151.708 52.5648C157.459 46.4771 160.493 38.5132 160.254 30.1429C159.759 12.8613 145.298 -0.792237 128.014 -0.299072C119.643 -0.059814 111.867 3.4253 106.116 9.51417C103.212 12.5891 101.002 16.1426 99.5558 19.9854C93.3497 17.9822 86.8812 16.9654 80.2882 16.9654C73.6915 16.9654 67.2181 17.9846 61.0084 19.9903C56.5296 8.13844 45.0672 -0.3125 31.6663 -0.3125C14.3775 -0.3125 0.3125 13.7525 0.3125 31.0401C0.3125 44.4398 8.76466 55.901 20.6165 60.3785C18.6096 66.5894 17.5916 73.0628 17.5916 79.6583C17.5916 86.2733 18.6157 92.765 20.6324 98.9894C8.77198 103.463 0.3125 114.929 0.3125 128.335C0.3125 133.054 1.33545 137.592 3.35328 141.82C3.91114 142.988 5.31007 143.484 6.47828 142.926C7.64527 142.368 8.14088 140.969 7.58424 139.801C5.86915 136.207 5.00001 132.35 5.00001 128.335C5.00001 113.633 16.9629 101.671 31.6663 101.671C46.3709 101.671 58.3338 113.633 58.3338 128.335C58.3338 143.039 46.3709 155 31.6663 155C24.9598 155 18.5498 152.501 13.6182 147.964C12.6648 147.088 11.1817 147.15 10.3064 148.102C9.42994 149.055 9.49098 150.537 10.4444 151.414C16.2439 156.749 23.7806 159.688 31.6663 159.688C45.0867 159.688 56.5638 151.211 61.0279 139.332C67.2303 141.334 73.6976 142.351 80.2882 142.351C86.88 142.351 93.3485 141.334 99.5509 139.334C104.015 151.212 115.492 159.688 128.913 159.688C146.201 159.688 160.266 145.623 160.266 128.335C160.266 114.929 151.807 103.462 139.945 98.9894ZM109.524 12.732C114.414 7.55372 121.029 4.58985 128.15 4.38599C128.408 4.37867 128.665 4.37501 128.924 4.37501C143.277 4.37501 155.155 15.8386 155.568 30.2759C155.772 37.3951 153.191 44.1675 148.301 49.347C143.411 54.5252 136.796 57.4891 129.675 57.693C129.417 57.7003 129.159 57.7039 128.902 57.7039C114.549 57.7039 102.67 46.2403 102.257 31.803C102.052 24.6839 104.634 17.9102 109.524 12.732ZM80.2882 137.664C74.1444 137.664 68.1178 136.709 62.3426 134.832C62.7857 132.735 63.0213 130.563 63.0213 128.336C63.0213 111.049 48.9551 96.9838 31.6663 96.9838C29.4263 96.9838 27.2412 97.2218 25.1331 97.671C23.2398 91.8739 22.2791 85.8253 22.2791 79.6583C22.2791 73.5121 23.2349 67.4818 25.116 61.7017C27.229 62.1522 29.4202 62.3914 31.6663 62.3914C37.0374 62.3914 42.3365 61.0108 46.9935 58.3961C48.1214 57.7625 48.523 56.3343 47.8895 55.2052C47.2559 54.0772 45.8277 53.6756 44.6985 54.3092C40.741 56.5296 36.2342 57.7039 31.6663 57.7039C16.9617 57.7039 5.00001 45.7423 5.00001 31.0401C5.00001 16.3367 16.9629 4.37501 31.6663 4.37501C46.3709 4.37501 58.3338 16.3367 58.3338 31.0401C58.3338 37.1912 56.189 43.1922 52.295 47.9395C51.4735 48.9393 51.6199 50.4163 52.6209 51.2379C53.6207 52.0582 55.0977 51.9129 55.9193 50.9119C60.4981 45.3297 63.0213 38.2715 63.0213 31.0389C63.0213 28.794 62.7808 26.6028 62.3304 24.4898C68.1105 22.6087 74.1407 21.6529 80.2882 21.6529C86.4344 21.6529 92.4623 22.6075 98.2399 24.4861C97.7284 26.9056 97.4989 29.4019 97.5709 31.9373C98.058 48.9136 112.023 62.3927 128.9 62.3914C129.202 62.3914 129.506 62.3878 129.81 62.378C131.731 62.3231 133.621 62.0948 135.463 61.7054C137.343 67.4842 138.299 73.5133 138.299 79.6583C138.299 85.8253 137.337 91.8739 135.445 97.6698C133.336 97.2206 131.151 96.9838 128.913 96.9838C111.624 96.9838 97.5587 111.048 97.5587 128.335C97.5587 130.562 97.7931 132.735 98.2374 134.832C92.4611 136.71 86.4344 137.664 80.2882 137.664ZM128.913 155C114.208 155 102.246 143.039 102.246 128.336C102.246 113.633 114.208 101.671 128.913 101.671C143.617 101.671 155.579 113.633 155.579 128.336C155.579 143.039 143.617 155 128.913 155Z" fill="#6D6B6C"/>
<path d="M47.6247 17.2046C46.8166 16.6553 45.7533 16.6639 44.955 17.2278C44.1566 17.7906 43.3022 18.2606 42.4037 18.6329C39.1835 16.1133 34.5167 16.1426 31.3197 18.9222C29.6583 20.3675 28.6195 22.3658 28.3778 24.524C24.9391 24.0125 21.8312 22.1192 19.7926 19.2164C19.3068 18.5254 18.4864 18.1507 17.6478 18.2313C16.8068 18.313 16.0756 18.8404 15.7325 19.6119C15.6654 19.7632 14.0882 23.3668 14.2897 27.7772C14.4435 31.1524 15.6507 35.503 20.0538 38.8624C18.4681 39.3739 16.7933 39.6107 15.1246 39.5435C14.0382 39.5008 13.0677 40.2076 12.7748 41.2525C12.4818 42.2975 12.9444 43.4071 13.8929 43.9344C17.5697 45.9767 21.5089 46.9996 25.3578 46.9996C29.0553 46.9996 32.6686 46.0548 35.8839 44.1639C39.9159 41.7921 42.8456 38.1605 44.4362 33.7257C44.4862 33.6134 44.5277 33.4962 44.5607 33.3753C45.3786 30.9669 45.807 28.3289 45.807 25.5311C45.807 25.409 45.8034 25.2857 45.7985 25.1636C47.1364 23.5865 48.091 21.7176 48.5841 19.6973C48.8136 18.7476 48.4328 17.754 47.6247 17.2046ZM33.5072 40.1234C30.6727 41.7909 27.4196 42.5025 24.1041 42.2621C24.8634 41.8861 25.597 41.4588 26.299 40.9815C27.0021 40.5042 27.3927 39.6815 27.317 38.8343C27.2413 37.9859 26.7116 37.2462 25.934 36.9007C21.5577 34.9549 19.2176 31.8629 18.9796 27.7076C18.9308 26.858 18.9735 26.0401 19.0651 25.293C22.2889 27.9871 26.4186 29.4556 30.7289 29.3458C31.9996 29.3128 33.0128 28.2728 33.0128 27.002V25.5811C33.0128 25.5714 33.0128 25.5604 33.0128 25.5494C32.997 24.3641 33.4999 23.2374 34.3959 22.4598C36.0707 21.0035 38.6171 21.1805 40.0734 22.8553C40.3664 23.191 40.7399 23.429 41.1476 23.5548C41.0048 23.9466 40.9657 24.3763 41.0475 24.7987C41.0939 25.044 41.1183 25.2955 41.1183 25.5384C41.1183 27.8358 40.7765 29.9622 40.1259 31.8861C40.0905 31.974 40.0612 32.0655 40.0368 32.1583C38.8197 35.5653 36.6041 38.3009 33.5072 40.1234Z" fill="#6D6B6C"/>
<path d="M121.199 32.8882H124.522V46.8641C124.522 48.158 125.572 49.2078 126.866 49.2078C128.161 49.2078 129.209 48.158 129.209 46.8641V32.8882H132.829C134.123 32.8882 135.173 31.8384 135.173 30.5445C135.173 29.2505 134.123 28.2007 132.829 28.2007H129.209V21.6431C129.209 19.3921 131.042 17.5598 133.294 17.5598H136.329C137.623 17.5598 138.672 16.51 138.672 15.2161C138.672 13.9209 137.623 12.8723 136.329 12.8723H133.294C128.458 12.8723 124.522 16.8066 124.522 21.6431V28.2007H121.199C119.905 28.2007 118.855 29.2505 118.855 30.5445C118.855 31.8384 119.905 32.8882 121.199 32.8882Z" fill="#6D6B6C"/>
<path d="M26.3501 140.457C26.908 140.457 27.4658 140.313 27.9627 140.026L43.916 130.811C44.9109 130.237 45.5286 129.166 45.5286 128.018C45.5286 126.87 44.9109 125.8 43.916 125.226L27.9627 116.011C26.969 115.436 25.7336 115.436 24.7388 116.011C23.7439 116.585 23.125 117.655 23.125 118.804V137.233C23.125 138.381 23.7439 139.452 24.7388 140.026C25.2356 140.314 25.7922 140.457 26.3501 140.457ZM27.8125 121.338L39.3799 128.019L27.8125 134.7V121.338Z" fill="#6D6B6C"/>
<path d="M139.097 111.736H118.729C115.191 111.736 112.312 114.615 112.312 118.153V138.518C112.312 142.057 115.191 144.936 118.729 144.936H139.097C142.635 144.936 145.513 142.057 145.513 138.518V118.153C145.513 114.615 142.635 111.736 139.097 111.736ZM140.826 138.518C140.826 139.473 140.051 140.248 139.097 140.248H118.729C117.775 140.248 117 139.473 117 138.518V118.153C117 117.2 117.775 116.424 118.729 116.424H139.097C140.051 116.424 140.826 117.2 140.826 118.153V138.518Z" fill="#6D6B6C"/>
<path d="M128.913 121.251C125.007 121.251 121.828 124.43 121.828 128.336C121.828 132.243 125.007 135.42 128.913 135.42C132.819 135.42 135.998 132.243 135.998 128.336C135.998 124.43 132.819 121.251 128.913 121.251ZM128.913 130.733C127.591 130.733 126.516 129.657 126.516 128.336C126.516 127.014 127.591 125.939 128.913 125.939C130.235 125.939 131.311 127.014 131.311 128.336C131.311 129.657 130.235 130.733 128.913 130.733Z" fill="#6D6B6C"/>
<path d="M99.5938 95.8399V57.6855C99.5938 56.3916 98.544 55.3418 97.2501 55.3418C95.9549 55.3418 94.9063 56.3916 94.9063 57.6855V58.7366C91.6031 60.6836 88.1302 62.3645 84.5596 63.7402C81.7007 64.8413 78.7478 65.7568 75.7608 66.4734C75.3018 66.1206 74.7305 65.907 74.1079 65.907H63.3767C60.7839 65.907 58.6758 68.0164 58.6758 70.6079V82.9163C58.6758 85.5091 60.7839 87.6172 63.3767 87.6172H65.5215L66.3345 103.245C66.3992 104.496 67.4343 105.466 68.6734 105.466C68.7136 105.466 68.7551 105.465 68.7966 105.463C70.0894 105.396 71.083 104.293 71.0159 103.001L70.2151 87.6172H74.1079C74.7293 87.6172 75.3018 87.4048 75.7595 87.052C77.6614 87.511 79.5535 88.0506 81.4029 88.6646C82.6321 89.0711 83.9578 88.4058 84.3655 87.1778C84.7732 85.9485 84.1067 84.6216 82.8787 84.2151C80.8926 83.5559 78.8614 82.9761 76.8179 82.4842V71.0425C80.0186 70.2759 83.1814 69.2932 86.2442 68.114C89.2056 66.9727 92.106 65.636 94.9051 64.1223V89.408C93.8748 88.8514 92.8335 88.3204 91.785 87.8162C90.618 87.2547 89.2178 87.7454 88.6575 88.9124C88.096 90.0794 88.5867 91.4795 89.7537 92.0411C91.4993 92.8809 93.2254 93.8062 94.9051 94.7925V95.8387C94.9051 97.1338 95.9549 98.1824 97.2488 98.1824C98.5428 98.1824 99.5938 97.1338 99.5938 95.8399ZM63.3633 82.9175L63.3767 70.5945H72.1316V82.9285L63.3633 82.9175Z" fill="#6D6B6C"/>
</g>
<defs>
<clipPath id="clip0_569_9434">
<rect width="160" height="160" fill="white"/>
</clipPath>
</defs>
</svg>
