<svg width="160" height="160" viewBox="0 0 160 160" fill="none" xmlns="http://www.w3.org/2000/svg">
<path d="M131.628 157.226L157.272 131.552V9.10523C157.272 5.82292 154.635 3.18262 151.356 3.18262H43.5172C40.2388 3.18262 37.6016 5.82292 37.6016 9.10523V53.0204C39.2874 52.4834 41.0859 52.1791 42.9663 52.1791C52.158 52.1791 59.6112 59.1363 59.6112 67.7239C59.6112 81.3293 50.8129 92.0214 50.8129 117.289H57.5466C60.7036 117.289 63.2452 120.114 63.2452 123.624V126.794C63.2452 127.674 63.0839 128.507 62.7944 129.268H75.4493C79.6023 129.268 82.951 132.992 82.951 137.614V145.954H77.4917V154.724C77.4917 156.112 76.3084 157.226 74.8372 157.226H131.628Z" fill="#E6E6E6"/>
<path d="M136.08 41.4767C136.08 44.5694 135.472 47.6317 134.29 50.489C133.107 53.3462 131.375 55.9424 129.191 58.1292C127.006 60.316 124.413 62.0507 121.559 63.2342C118.705 64.4177 115.647 65.0269 112.558 65.0269C109.469 65.0269 106.41 64.4177 103.556 63.2342C100.702 62.0507 98.109 60.316 95.9247 58.1292C93.7404 55.9424 92.0078 53.3462 90.8257 50.489C89.6436 47.6317 89.0352 44.5694 89.0352 41.4767C89.0352 35.2308 91.5134 29.2407 95.9247 24.8242C100.336 20.4077 106.319 17.9265 112.558 17.9265C118.796 17.9265 124.779 20.4077 129.191 24.8242C133.602 29.2407 136.08 35.2308 136.08 41.4767Z" fill="#FFBB6A"/>
<path d="M10.4808 129.269C6.32778 129.269 2.98438 132.99 2.98438 137.612V145.955H82.9464V137.612C82.9464 132.99 79.603 129.269 75.45 129.269H10.4808Z" fill="#AADDD5"/>
<path d="M42.9674 52.1777C33.7756 52.1777 26.3242 59.1393 26.3242 67.7268C26.3242 81.3323 35.1496 92.0223 35.1496 117.29H50.8135C50.8135 92.0223 59.6105 81.3323 59.6105 67.7268C59.6105 59.1393 52.1591 52.1777 42.9674 52.1777Z" fill="#AADDD5"/>
<path d="M8.44141 145.956V154.721C8.44141 156.109 9.62586 157.225 11.0971 157.225H74.8346C76.3059 157.225 77.4904 156.109 77.4904 154.721V145.956H8.44141Z" fill="#B3B3B3"/>
<path d="M29.0541 117.29C25.897 117.29 23.3555 120.115 23.3555 123.625V126.793C23.3555 127.674 23.5168 128.507 23.8062 129.268H62.7948C63.0843 128.508 63.2456 127.674 63.2456 126.793V123.625C63.2456 120.115 60.704 117.29 57.547 117.29H29.0541Z" fill="#80CDBF"/>
<path d="M135.236 129.1C133.877 129.101 132.575 129.641 131.614 130.603C130.654 131.565 130.114 132.869 130.113 134.229V157.85H132.571L158.255 132.136V129.1H135.236Z" fill="#B3B3B3"/>
<path d="M100.957 20.9302C97.3376 22.989 94.3273 25.9714 92.233 29.5738C90.1388 33.1762 89.0354 37.2698 89.0352 41.438C89.035 44.5357 89.6444 47.603 90.8283 50.4649C92.0123 53.3268 93.7478 55.9272 95.9356 58.1176C98.1234 60.308 100.721 62.0455 103.579 63.2309C106.438 64.4162 109.502 65.0263 112.596 65.0262C116.05 65.0253 119.461 64.264 122.589 62.7963C125.716 61.3285 128.483 59.1902 130.694 56.5329C127.146 58.5513 123.136 59.6127 119.056 59.6132C112.808 59.6119 106.816 57.1262 102.399 52.7027C97.982 48.2792 95.5005 42.2801 95.5008 36.025C95.5009 30.5094 97.4317 25.1683 100.957 20.9302Z" fill="#FF8D06"/>
<path d="M11.2305 129.847C7.07099 129.847 3.72266 133.577 3.72266 138.207V146.561H11.4591V138.207C11.4591 133.577 14.8074 129.847 18.967 129.847H11.2305Z" fill="#80CDBF"/>
<path d="M43.7689 52.6392C34.5627 52.6392 27.0977 59.6073 27.0977 68.2084C27.0977 81.8352 35.9377 92.5441 35.9377 117.851H44.3764C43.999 93.7382 35.5698 83.166 35.5698 69.8434C35.5698 61.5455 42.5204 54.7866 51.2768 54.3188C49.0178 53.2505 46.4738 52.6392 43.7689 52.6392Z" fill="#80CDBF"/>
<path d="M43.7716 45.3845C41.9325 45.3845 40.1368 45.6152 38.3984 46.0039V53.4816C40.0869 52.9437 41.8882 52.639 43.7716 52.639C52.9778 52.639 60.4428 59.6071 60.4428 68.2082C60.4428 81.8351 51.6306 92.5439 51.6306 117.851H58.3749C61.5369 117.851 64.0825 120.68 64.0825 124.196V127.371C64.0825 128.253 63.9209 129.087 63.631 129.849H76.3058C80.4653 129.849 83.8192 133.579 83.8192 138.208V146.562H78.3514V155.345C78.3514 156.735 77.1663 157.851 75.6927 157.851H85.2183C85.4409 157.051 85.5973 156.223 85.5973 155.345V153.593C87.1589 153.196 88.5437 152.289 89.5329 151.016C90.5222 149.742 91.0593 148.175 91.0596 146.562V138.208C91.0596 130.076 84.7924 122.594 76.3058 122.594H71.0218C70.2917 116.585 65.7664 111.419 59.4562 110.837C60.0828 102.945 61.3483 96.3111 62.99 90.6858C65.1211 83.3838 67.6831 76.5864 67.6831 68.2082C67.6831 55.4074 56.6301 45.3845 43.7716 45.3845Z" fill="#B3B3B3"/>
<path d="M44.3277 0.707031C39.5137 0.707031 35.5378 4.68201 35.5378 9.50167V40.7182C35.5435 42.2983 36.83 43.5734 38.4083 43.5642C39.9757 43.5582 41.2448 42.2874 41.251 40.7182V9.50167C41.251 7.7464 42.5745 6.42132 44.3277 6.42132H152.331C154.084 6.42132 155.408 7.7464 155.408 9.50167V126.432H135.649C130.835 126.432 126.864 130.385 126.864 135.205V154.987H95.4728C93.8858 154.981 92.5985 156.272 92.6078 157.861C92.6136 159.439 93.8967 160.713 95.4728 160.707H132.572C133.329 160.71 134.057 160.414 134.595 159.881L160.274 134.15C160.807 133.619 161.109 132.899 161.115 132.147V9.50167C161.115 4.68201 157.145 0.707031 152.331 0.707031H44.3277ZM112.601 15.0095C98.0472 15.0095 86.1813 26.867 86.1813 41.4381C86.1813 56.0091 98.0472 67.8834 112.601 67.8834C127.155 67.8834 139.021 56.0091 139.021 41.4381C139.021 26.867 127.155 15.0095 112.601 15.0095ZM112.601 20.7014C124.07 20.7014 133.308 29.9553 133.308 41.4381C133.308 52.9208 124.07 62.1691 112.601 62.1691C101.132 62.1691 91.8944 52.9208 91.8944 41.4381C91.8944 29.9553 101.132 20.7014 112.601 20.7014ZM122.188 33.0173L111.715 45.6345L105.416 39.178C104.314 38.059 102.516 38.0416 101.392 39.1389C100.272 40.2358 100.245 42.0318 101.331 43.1624L109.842 51.8956C111.024 53.1086 112.995 53.0307 114.078 51.7282L126.591 36.6891C127.6 35.4726 127.43 33.6667 126.212 32.6601C124.891 31.5346 123.045 31.9725 122.188 33.0173ZM43.7759 49.7863C33.1304 49.7863 24.2509 57.968 24.2509 68.2238C24.2509 75.6557 26.595 82.0091 28.7768 89.457C30.7843 96.3099 32.7333 104.197 33.0352 115.004H29.8303C24.9674 115.004 21.2801 119.298 21.2801 124.195V127.002H11.2305C5.36835 127.002 0.863281 132.215 0.863281 138.224V146.572C0.866135 148.152 2.15001 149.43 3.72821 149.424H6.34232V155.35C6.34232 158.368 8.9442 160.707 11.8604 160.707H75.6914C78.6076 160.707 81.215 158.368 81.215 155.35V149.424H83.8236C85.393 149.418 86.663 148.143 86.6662 146.572V138.224C86.6662 132.215 82.1667 127.002 76.3045 127.002H66.9294V124.195C66.9294 119.298 63.2421 115.004 58.3792 115.004H54.5389C54.8388 104.196 56.7738 96.3102 58.7749 89.457C60.9499 82.0089 63.2841 75.6537 63.2841 68.2238C63.2841 57.968 54.4213 49.7863 43.7759 49.7863ZM43.7759 55.5006C51.5428 55.5006 57.5989 61.2774 57.5989 68.2238C57.5989 74.4207 55.532 80.2167 53.3015 87.8555C51.2826 94.7693 49.5678 103.855 49.1936 115.004H38.3637C37.9884 103.854 36.2813 94.7696 34.2558 87.8555C32.018 80.2165 29.9585 74.4187 29.9585 68.2238C29.9585 61.2774 36.0089 55.5006 43.7759 55.5006ZM89.7652 77.7829C88.1497 77.7843 86.8404 79.0952 86.839 80.7126C86.8404 82.33 88.1497 83.6409 89.7652 83.6423C91.3807 83.6409 92.69 82.33 92.6914 80.7126C92.69 79.0952 91.3807 77.7843 89.7652 77.7829ZM101.186 77.8609C99.6076 77.8523 98.3215 79.1267 98.3154 80.7069C98.3097 82.2958 99.5989 83.5845 101.186 83.5752H141.122C142.709 83.5838 143.999 82.2958 143.993 80.7069C143.987 79.1267 142.7 77.8517 141.122 77.8609H101.186ZM72.6425 92.0686C71.027 92.07 69.7177 93.3809 69.7163 94.9983C69.7177 96.6157 71.027 97.9266 72.6425 97.928C74.2581 97.9266 75.5674 96.6157 75.5688 94.9983C75.5674 93.3809 74.2581 92.07 72.6425 92.0686ZM84.0576 92.1355C82.4794 92.1412 81.2058 93.4292 81.215 95.0094C81.2207 96.5786 82.4903 97.8492 84.0576 97.8554H141.122C142.7 97.8639 143.986 96.5895 143.993 95.0094C144.001 93.4183 142.711 92.1262 141.122 92.1355H84.0576ZM89.7652 106.354C88.1497 106.356 86.8404 107.666 86.839 109.284C86.8404 110.901 88.1497 112.212 89.7652 112.214C91.3807 112.212 92.69 110.901 92.6914 109.284C92.69 107.666 91.3807 106.356 89.7652 106.354ZM101.186 106.416C99.5989 106.407 98.3092 107.695 98.3154 109.284C98.3211 110.864 99.6076 112.139 101.186 112.13H141.122C142.7 112.139 143.986 110.864 143.993 109.284C143.998 107.695 142.709 106.406 141.122 106.416H101.186ZM29.8303 120.718H58.3792C59.8403 120.718 61.2218 122.06 61.2218 124.195V127.002H44.1159C42.5398 126.996 41.2571 128.27 41.251 129.848C41.2452 131.434 42.5311 132.722 44.1159 132.716H76.3045C78.7615 132.716 80.9586 134.974 80.9586 138.224V143.704H6.57641V138.224C6.57641 134.974 8.77357 132.716 11.2305 132.716H32.6952C34.2713 132.71 35.544 131.426 35.5378 129.848C35.5321 128.278 34.2626 127.008 32.6952 127.002H26.9876V124.195C26.9876 122.06 28.3692 120.718 29.8303 120.718ZM135.649 132.147H154.232L132.572 153.804V135.205C132.572 133.45 133.895 132.147 135.649 132.147ZM12.0499 149.423H75.5019V154.987H12.0499V149.423Z" fill="#6D6B6C"/>
</svg>
