<svg width="45" height="45" viewBox="0 0 45 45" fill="none" xmlns="http://www.w3.org/2000/svg">
<path d="M27.4724 0H21.0983C19.6435 0 18.4599 1.18496 18.4599 2.64149C18.4599 2.65216 18.4513 2.66081 18.4406 2.66081H14.606C12.4185 2.66081 10.6389 4.44258 10.6389 6.63271C10.6389 8.82284 12.4185 10.6046 14.606 10.6046H20.4417C21.8965 10.6046 23.08 9.41956 23.08 7.96302C23.08 7.95236 23.0887 7.94371 23.0993 7.94371H27.4723C29.6598 7.94371 31.4394 6.16194 31.4394 3.97181C31.4394 1.78168 29.6599 0 27.4724 0Z" fill="#FFD12F"/>
<path d="M22.8681 41.3871H28.4166V44.7494H22.8681V41.3871Z" fill="#FFD12F"/>
<path d="M22.8681 38.765H28.4166V24.8569L22.8681 28.5327V38.765Z" fill="#FFD12F"/>
<path d="M31.0352 41.3871H36.5838V44.7494H31.0352V41.3871Z" fill="#FFD12F"/>
<path d="M39.2033 28.5327V38.765H44.7519V24.8569L39.2033 28.5327Z" fill="#FFD12F"/>
<path d="M31.0352 38.765H36.5838V24.8569L31.0352 28.5326V38.765Z" fill="#FFD12F"/>
<path d="M8.1604 38.1094H12.089V44.7522H8.1604V38.1094Z" fill="#FFD12F"/>
<path d="M15.4935 20.9774H4.7554V29.4558H0V44.7518H5.5411V35.4868H14.7078V44.7518H20.2489V29.4558H15.4935V20.9774Z" fill="#FFD12F"/>
<path d="M4.75516 13.1689H15.4933V18.3554H4.75516V13.1689Z" fill="#FFD12F"/>
<path d="M39.2033 41.3871H44.7519V44.7494H39.2033V41.3871Z" fill="#FFD12F"/>
</svg>
