<svg width="37" height="45" viewBox="0 0 37 45" fill="none" xmlns="http://www.w3.org/2000/svg">
<path d="M18.3757 0C12.952 0 8.53974 4.41234 8.53974 9.83596C8.53974 15.2595 12.9521 19.6719 18.3757 19.6719C23.7993 19.6719 28.2117 15.2594 28.2117 9.83596C28.2117 4.41234 23.7994 0 18.3757 0Z" fill="#FFD12F"/>
<path d="M20.725 24.5274V39.2654C20.725 39.5406 20.6754 39.8036 20.5883 40.0491C20.2653 40.9616 19.3971 41.6166 18.3738 41.6166C17.3505 41.6166 16.4825 40.9616 16.1593 40.0491C16.0723 39.8037 16.0226 39.5406 16.0226 39.2654V24.5274C7.18979 25.6832 0.347656 33.2574 0.347656 42.4004C0.347656 43.6988 1.40037 44.7516 2.69887 44.7516H34.0487C35.3472 44.7516 36.3999 43.6988 36.3999 42.4004C36.4 33.2576 29.5578 25.6833 20.725 24.5274Z" fill="#FFD12F"/>
</svg>
