<svg width="39" height="45" viewBox="0 0 39 45" fill="none" xmlns="http://www.w3.org/2000/svg">
<path d="M0.0390625 7.89652V13.1701H24.0549V7.89652H0.0390625Z" fill="#FFD12F"/>
<path d="M12.02 32.7158C12.02 32.3359 12.0346 31.9583 12.0632 31.583H0.0390625V36.8567H12.6141C12.2201 35.519 12.02 34.1324 12.02 32.7158Z" fill="#FFD12F"/>
<path d="M2.66394 0.000976562V5.27452H26.6797V0.000976562H2.66394Z" fill="#FFD12F"/>
<path d="M2.66451 15.7899V21.0634H17.7827C18.7615 20.3141 19.8287 19.6925 20.9732 19.2083C22.7821 18.4432 24.7021 18.0554 26.6798 18.0554C26.6796 18.0554 26.68 18.0554 26.6798 18.0554L26.6803 15.7899H2.66451Z" fill="#FFD12F"/>
<path d="M2.66451 23.6875V28.961H12.5075C12.683 28.2983 12.9047 27.6469 13.1744 27.0093C13.6801 25.8137 14.3352 24.7017 15.13 23.6875H2.66451Z" fill="#FFD12F"/>
<path d="M16.3147 43.0809C15.2468 42.013 14.3615 40.8046 13.6721 39.4787H2.66451V44.7522H18.311C17.6015 44.258 16.9342 43.7006 16.3147 43.0809Z" fill="#FFD12F"/>
<path d="M26.6785 20.6794C20.0309 20.6794 14.642 26.0684 14.642 32.7159C14.642 39.3635 20.0309 44.7524 26.6785 44.7524C33.3262 44.7524 38.715 39.3635 38.715 32.7158C38.715 26.0684 33.3261 20.6794 26.6785 20.6794ZM26.6785 40.8192C22.2102 40.8192 18.5751 37.1841 18.5751 32.7158C18.5751 28.2476 22.2102 24.6124 26.6785 24.6124C31.1468 24.6124 34.7819 28.2476 34.7819 32.7158C34.7819 37.1841 31.1468 40.8192 26.6785 40.8192Z" fill="#FFD12F"/>
<path d="M26.6795 27.2332C23.6571 27.2332 21.1982 29.6922 21.1982 32.7146C21.1981 35.737 23.6571 38.1959 26.6795 38.1959C29.7019 38.1959 32.1608 35.7369 32.1608 32.7146C32.1608 29.6922 29.7019 27.2332 26.6795 27.2332Z" fill="#FFD12F"/>
</svg>
