<svg width="216" height="42" viewBox="0 0 216 42" fill="none" xmlns="http://www.w3.org/2000/svg">
<path d="M0.5 11.2426C0.5 10.5796 0.763392 9.94371 1.23223 9.47487L9.47488 1.23223C9.94372 0.763391 10.5796 0.5 11.2426 0.5H204.757C205.42 0.5 206.056 0.763393 206.525 1.23223L206.879 0.87868L206.525 1.23223L214.768 9.47488C215.237 9.94372 215.5 10.5796 215.5 11.2426V30.7574C215.5 31.4204 215.237 32.0563 214.768 32.5251L206.525 40.7678C206.056 41.2366 205.42 41.5 204.757 41.5H11.2426C10.5796 41.5 9.94372 41.2366 9.47487 40.7678L1.23223 32.5251C0.763392 32.0563 0.5 31.4204 0.5 30.7574V11.2426Z" fill="white" stroke="#E9E9E9"/>
</svg>
