<svg width="291" height="7" viewBox="0 0 291 7" fill="none" xmlns="http://www.w3.org/2000/svg">
<path opacity="0.15" d="M1 2C0.447715 2 0 1.55228 0 1C0 0.447715 0.447715 0 1 0V2ZM290 0H291V2H290V0ZM215.64 1.05205L215.455 0.069406L215.64 1.05205ZM189.702 5.94795L189.888 6.93059L189.702 5.94795ZM59.2014 5.94795L59.3869 4.9653L59.2014 5.94795ZM33.2633 1.05205L33.0778 2.0347L33.2633 1.05205ZM1 0H32.7069V2H1V0ZM33.4488 0.069406L59.3869 4.9653L59.0159 6.93059L33.0778 2.0347L33.4488 0.069406ZM59.7578 5H189.146V7H59.7578V5ZM216.197 0H290V2H216.197V0ZM189.517 4.9653L215.455 0.069406L215.826 2.0347L189.888 6.93059L189.517 4.9653ZM216.197 2C216.072 2 215.948 2.01162 215.826 2.0347L215.455 0.069406C215.699 0.0232358 215.948 0 216.197 0V2ZM189.146 5C189.27 5 189.394 4.98838 189.517 4.9653L189.888 6.93059C189.643 6.97676 189.395 7 189.146 7V5ZM59.3869 4.9653C59.5092 4.98838 59.6334 5 59.7578 5V7C59.5089 7 59.2605 6.97676 59.0159 6.93059L59.3869 4.9653ZM32.7069 0C32.9558 0 33.2042 0.0232363 33.4488 0.069406L33.0778 2.0347C32.9555 2.01162 32.8313 2 32.7069 2V0Z" fill="url(#paint0_linear_2_1440)"/>
<defs>
<linearGradient id="paint0_linear_2_1440" x1="290" y1="6" x2="289.949" y2="-1.0808" gradientUnits="userSpaceOnUse">
<stop stop-color="#1FDEA3"/>
<stop offset="1" stop-color="#7755EA"/>
</linearGradient>
</defs>
</svg>
