<svg width="24" height="17" viewBox="0 0 24 17" fill="none" xmlns="http://www.w3.org/2000/svg">
<path fill-rule="evenodd" clip-rule="evenodd" d="M1 4.12695H23V1H1V4.12695ZM4 9.59913H20V6.47218H4V9.59913ZM8 15.0713H16V11.9444H8V15.0713Z" fill="#00B3CE"/>
<path d="M1 4.12695H0V5.12695H1V4.12695ZM23 4.12695V5.12695H24V4.12695H23ZM23 1H24V0H23V1ZM1 1V0H0V1H1ZM4 9.59913H3V10.5991H4V9.59913ZM20 9.59913V10.5991H21V9.59913H20ZM20 6.47218H21V5.47218H20V6.47218ZM4 6.47218V5.47218H3V6.47218H4ZM8 15.0713H7V16.0713H8V15.0713ZM16 15.0713V16.0713H17V15.0713H16ZM16 11.9444H17V10.9444H16V11.9444ZM8 11.9444V10.9444H7V11.9444H8ZM1 5.12695H23V3.12695H1V5.12695ZM24 4.12695V1H22V4.12695H24ZM23 0H1V2H23V0ZM0 1V4.12695H2V1H0ZM4 10.5991H20V8.59913H4V10.5991ZM21 9.59913V6.47218H19V9.59913H21ZM20 5.47218H4V7.47218H20V5.47218ZM3 6.47218V9.59913H5V6.47218H3ZM8 16.0713H16V14.0713H8V16.0713ZM17 15.0713V11.9444H15V15.0713H17ZM16 10.9444H8V12.9444H16V10.9444ZM7 11.9444V15.0713H9V11.9444H7Z" fill="white"/>
</svg>
