<svg width="145" height="170" viewBox="0 0 145 170" fill="none" xmlns="http://www.w3.org/2000/svg">
<path d="M105 152.177L105.214 170L117.668 157.74L138.115 107.485L125.447 101.922L105 152.177ZM132.332 85L145 90.5636L140.41 101.845L127.742 96.2811L132.332 85Z" fill="#626150"/>
<path d="M44.1394 48.8242C48.5857 48.0321 51.5493 43.7782 50.7588 39.3228C49.9683 34.8674 45.723 31.8977 41.2768 32.6898C36.8305 33.482 33.8669 37.7359 34.6574 42.1913C35.4479 46.6467 39.6932 49.6163 44.1394 48.8242Z" fill="#626150"/>
<path d="M23.9869 4.22754L47.7166 0L49.223 8.49024L25.4933 12.7178L23.9869 4.22754ZM52.9738 54.2629L37.717 56.9809C35.3811 57.3971 33.8185 59.6399 34.2338 61.9806L36.3984 74.1807L60.1281 69.9531L57.9635 57.7531C57.5479 55.4124 55.3097 53.8467 52.9738 54.2629Z" fill="#626150"/>
<path d="M0 24.272L17.8718 125L95 111.259L77.1282 10.5313L0 24.272ZM27.4499 63.189C26.6361 58.6025 28.7422 54.1614 32.4278 51.7857C30.1215 49.6325 28.4665 46.742 27.8734 43.3995C26.4191 35.2029 31.8908 27.3489 40.0706 25.8916C48.2504 24.4344 56.0883 29.9172 57.5426 38.1138C58.1356 41.4561 57.5763 44.7411 56.152 47.5592C60.4289 48.5162 63.9336 51.9578 64.7474 56.5443L68.1181 75.5422L30.8206 82.1869L27.4499 63.189ZM85.1888 104.249L24.4534 115.069L23.2473 108.271L83.9826 97.4507L85.1888 104.249ZM82.4762 88.9605L21.7409 99.7808L20.5348 92.983L81.2701 82.1627L82.4762 88.9605Z" fill="#626150"/>
</svg>
