<svg width="0" height="0" class="hidden">
  <symbol fill="none" xmlns="http://www.w3.org/2000/svg" viewBox="0 0 15 15" id="search">
    <path d="M13 13L10.1 10.1M11.6667 6.33333C11.6667 9.27885 9.27885 11.6667 6.33333 11.6667C3.38781 11.6667 1 9.27885 1 6.33333C1 3.38781 3.38781 1 6.33333 1C9.27885 1 11.6667 3.38781 11.6667 6.33333Z" stroke-width="1.5" stroke-linecap="square" stroke-linejoin="round"></path>
  </symbol>
   <symbol version="1.1" xmlns="http://www.w3.org/2000/svg" viewBox="0 0 512 512" id="vk">
    <path  d="M489.74 338.855c-11.147-13.382-23.816-25.375-36.067-36.973-4.356-4.125-8.861-8.389-13.202-12.63-12.466-12.188-12.919-16.767-3.050-30.61 6.828-9.542 14.067-19.097 21.069-28.338 6.351-8.384 12.918-17.054 19.212-25.752l1.293-1.788c12.030-16.645 24.471-33.857 31.092-54.62 1.719-5.478 3.524-13.539-0.603-20.28-4.125-6.735-12.127-8.79-17.788-9.749-2.8-0.475-5.581-0.54-8.161-0.54l-79.433-0.062c-11.911 0-19.939 5.613-24.538 17.163-4.392 11.035-9.216 22.785-14.72 33.958-10.954 22.249-24.867 47.874-44.999 69.246l-0.851 0.909c-2.377 2.555-5.070 5.448-7.039 5.448-0.301 0-0.63-0.058-1.002-0.175-4.17-1.625-6.969-11.72-6.842-16.416 0.002-0.065 0.003-0.13 0.003-0.195l-0.055-91.055c0-0.315-0.022-0.629-0.063-0.941-2.004-14.802-6.444-24.016-23.217-27.301-0.445-0.089-0.901-0.132-1.354-0.132h-81.917c-13.346 0-20.7 5.424-27.613 13.543-1.866 2.171-5.75 6.688-3.825 12.169 1.953 5.563 8.293 6.752 10.358 7.138 10.249 1.951 16.025 8.219 17.661 19.172 2.857 19.020 3.208 39.321 1.105 63.889-0.587 6.828-1.746 12.101-3.657 16.607-0.444 1.052-2.018 4.483-3.624 4.484-0.51 0-1.986-0.2-4.673-2.052-6.355-4.353-11.004-10.566-16.424-18.239-18.44-26.060-33.915-54.767-47.317-87.782-4.971-12.154-14.254-18.958-26.151-19.158-13.073-0.198-24.925-0.294-36.229-0.294-12.351 0-23.802 0.114-34.983 0.347-9.572 0.169-16.193 3.038-19.677 8.534-3.49 5.501-3.263 12.726 0.675 21.472 31.52 70.075 60.099 121.025 92.668 165.209 22.821 30.917 45.71 52.317 72.028 67.342 27.726 15.861 58.799 23.574 94.99 23.574 4.103 0 8.344-0.1 12.622-0.3 21.029-1.024 28.832-8.636 29.818-29.112 0.469-10.464 1.613-21.438 6.757-30.798 3.247-5.897 6.274-5.897 7.269-5.897 1.916 0 4.293 0.882 6.845 2.536 4.577 2.988 8.502 6.99 11.719 10.486 3.029 3.322 6.024 6.678 9.021 10.034 6.469 7.245 13.157 14.736 20.144 21.84 15.293 15.56 32.142 22.404 51.493 20.918h72.23c0.154 0 0.308-0.005 0.462-0.015 7.197-0.475 13.43-4.467 17.102-10.953 4.548-8.034 4.456-18.284-0.245-27.425-5.334-10.336-12.254-19.166-18.317-26.437z"></path>
  </symbol>
  <symbol version="1.1" xmlns="http://www.w3.org/2000/svg" viewBox="0 0 576 512" id="youtube">
    <path  d="M549.7 124.1c-6.3-23.7-24.8-42.3-48.3-48.6-42.6-11.5-213.4-11.5-213.4-11.5s-170.8 0-213.4 11.5c-23.5 6.3-42 24.9-48.3 48.6-11.4 42.9-11.4 132.3-11.4 132.3s0 89.4 11.4 132.3c6.3 23.7 24.8 41.5 48.3 47.8 42.6 11.5 213.4 11.5 213.4 11.5s170.8 0 213.4-11.5c23.5-6.3 42-24.2 48.3-47.8 11.4-42.9 11.4-132.3 11.4-132.3s0-89.4-11.4-132.3zM232.2 337.6v-162.4l142.7 81.2-142.7 81.2z"></path>
  </symbol>
   <symbol version="1.1" xmlns="http://www.w3.org/2000/svg" viewBox="0 0 512 512" id="telegram">
    <path  d="M466.865 39.844l-456.529 181.293c-14.833 4.945-13.185 26.37 1.648 31.315l115.368 36.259 46.147 145.034c3.296 11.537 18.13 14.833 26.37 6.592l67.573-62.629 128.553 93.943c9.889 6.592 23.074 1.648 26.37-9.889l88.999-382.364c4.944-28.018-19.777-49.444-44.5-39.555zM199.869 316.728l-14.833 85.702-32.963-118.665 321.384-210.959-273.588 243.922z"></path>
  </symbol>
   <symbol xmlns="http://www.w3.org/2000/svg" viewBox="0 0 20 18" id="filter">
    <path fill-rule="evenodd" clip-rule="evenodd" d="M0.0916106 0.581906C0.254849 0.227233 0.609579 0 1.00001 0H19C19.3904 0 19.7452 0.227233 19.9084 0.581906C20.0717 0.936579 20.0135 1.35382 19.7596 1.65039L12.8 9.77852V17C12.8 17.3457 12.6215 17.6669 12.3278 17.8493C12.0342 18.0318 11.6672 18.0497 11.3572 17.8966L7.75723 16.1189C7.41602 15.9503 7.20001 15.6028 7.20001 15.2222V9.77852L0.240418 1.65039C-0.0135192 1.35382 -0.071628 0.936579 0.0916106 0.581906ZM3.17274 2L8.95961 8.75849C9.11475 8.93968 9.20001 9.17036 9.20001 9.40889V14.6008L10.8 15.3909V9.40889C10.8 9.17036 10.8853 8.93968 11.0404 8.75849L16.8273 2H3.17274Z" ></path>
  </symbol>
    <symbol xmlns="http://www.w3.org/2000/svg" viewBox="0 0 13 14" id="info">
    <path d="M11.0966 2.40373C8.55818 -0.134435 4.44246 -0.134718 1.90373 2.40373C-0.634718 4.94218 -0.634435 9.0579 1.90373 11.5966C4.44218 14.1345 8.5579 14.1348 11.0966 11.5966C13.6348 9.0579 13.6345 4.94246 11.0966 2.40373ZM7.34774 9.82633C7.34774 10.0512 7.25841 10.2668 7.09941 10.4258C6.94041 10.5848 6.72476 10.6742 6.4999 10.6742C6.27503 10.6742 6.05938 10.5848 5.90038 10.4258C5.74138 10.2668 5.65205 10.0512 5.65205 9.82633V6.43495C5.65205 6.21009 5.74138 5.99443 5.90038 5.83543C6.05938 5.67643 6.27503 5.5871 6.4999 5.5871C6.72476 5.5871 6.94041 5.67643 7.09941 5.83543C7.25841 5.99443 7.34774 6.21009 7.34774 6.43495V9.82633ZM6.48492 4.9857C5.99656 4.9857 5.67099 4.63978 5.68116 4.21275C5.67099 3.76509 5.99656 3.42962 6.49481 3.42962C6.99334 3.42962 7.30874 3.76537 7.3192 4.21275C7.31891 4.63978 6.99362 4.9857 6.48492 4.9857Z"></path>
  </symbol>
    <symbol xmlns="http://www.w3.org/2000/svg" viewBox="0 0 512 512" id="resize">
    <path d="M344 0H488c13.3 0 24 10.7 24 24V168c0 9.7-5.8 18.5-14.8 22.2s-19.3 1.7-26.2-5.2l-39-39-87 87c-9.4 9.4-24.6 9.4-33.9 0l-32-32c-9.4-9.4-9.4-24.6 0-33.9l87-87L327 41c-6.9-6.9-8.9-17.2-5.2-26.2S334.3 0 344 0zM168 512H24c-13.3 0-24-10.7-24-24V344c0-9.7 5.8-18.5 14.8-22.2s19.3-1.7 26.2 5.2l39 39 87-87c9.4-9.4 24.6-9.4 33.9 0l32 32c9.4 9.4 9.4 24.6 0 33.9l-87 87 39 39c6.9 6.9 8.9 17.2 5.2 26.2s-12.5 14.8-22.2 14.8z"></path>
  </symbol>
    <symbol xmlns="http://www.w3.org/2000/svg" viewBox="0 0 448 512" id="instagram">
    <path d="M224.1 141c-63.6 0-114.9 51.3-114.9 114.9s51.3 114.9 114.9 114.9S339 319.5 339 255.9 287.7 141 224.1 141zm0 189.6c-41.1 0-74.7-33.5-74.7-74.7s33.5-74.7 74.7-74.7 74.7 33.5 74.7 74.7-33.6 74.7-74.7 74.7zm146.4-194.3c0 14.9-12 26.8-26.8 26.8-14.9 0-26.8-12-26.8-26.8s12-26.8 26.8-26.8 26.8 12 26.8 26.8zm76.1 27.2c-1.7-35.9-9.9-67.7-36.2-93.9-26.2-26.2-58-34.4-93.9-36.2-37-2.1-147.9-2.1-184.9 0-35.8 1.7-67.6 9.9-93.9 36.1s-34.4 58-36.2 93.9c-2.1 37-2.1 147.9 0 184.9 1.7 35.9 9.9 67.7 36.2 93.9s58 34.4 93.9 36.2c37 2.1 147.9 2.1 184.9 0 35.9-1.7 67.7-9.9 93.9-36.2 26.2-26.2 34.4-58 36.2-93.9 2.1-37 2.1-147.8 0-184.8zM398.8 388c-7.8 19.6-22.9 34.7-42.6 42.6-29.5 11.7-99.5 9-132.1 9s-102.7 2.6-132.1-9c-19.6-7.8-34.7-22.9-42.6-42.6-11.7-29.5-9-99.5-9-132.1s-2.6-102.7 9-132.1c7.8-19.6 22.9-34.7 42.6-42.6 29.5-11.7 99.5-9 132.1-9s102.7-2.6 132.1 9c19.6 7.8 34.7 22.9 42.6 42.6 11.7 29.5 9 99.5 9 132.1s2.7 102.7-9 132.1z"></path>
  </symbol>
</svg>