<svg width="0" height="0" class="hidden">
  <symbol  xmlns="http://www.w3.org/2000/svg" viewBox="0 0 21 21" id="raphael_paper">
    <g id="raphael:paper">
      <path id="Vector" d="M18.5723 5.50582L10.4704 1.67894C10.3922 1.64246 10.3068 1.62403 10.2206 1.62504C10.1343 1.62604 10.0493 1.64645 9.97202 1.68475C9.89471 1.72304 9.827 1.77825 9.77392 1.84627C9.72085 1.91429 9.68376 1.99339 9.66541 2.07769C9.66353 2.08394 9.01541 5.09644 8.05291 8.09957C7.72478 9.12894 7.35728 10.1464 6.97353 11.0402L8.01415 11.5314C9.26415 8.63019 10.2542 4.62519 10.6267 3.02332L17.6685 6.34519C17.4523 7.29082 16.8979 9.60957 16.156 11.9246C15.6767 13.4246 15.1154 14.9227 14.5404 16.0071C13.9842 17.1258 13.3167 17.6758 13.1673 17.6021C12.2798 17.6208 11.656 16.8133 11.236 15.7783C11.0594 15.323 10.922 14.8533 10.8254 14.3746C10.7454 13.9883 10.721 13.7458 10.7192 13.7458C10.7092 13.6481 10.674 13.5547 10.617 13.4747C10.56 13.3947 10.4832 13.3309 10.3942 13.2896L2.29416 9.46457C2.20187 9.42103 2.0997 9.40272 1.99804 9.4115C1.89637 9.42029 1.79886 9.45585 1.71541 9.51457C1.63244 9.57383 1.56672 9.65408 1.52499 9.7471C1.48325 9.84013 1.46701 9.94257 1.47791 10.0439C1.48291 10.0727 1.59978 11.2002 2.06978 12.3796C2.39603 13.2046 2.94915 14.1408 3.84853 14.6139L11.946 18.4452L11.9498 18.4377C12.301 18.6221 12.6998 18.7421 13.1667 18.7477C14.2898 18.6746 14.9023 17.7052 15.5529 16.5446C17.4279 12.9883 18.8779 6.16957 18.8892 6.14457C18.9169 6.01833 18.9008 5.8864 18.8436 5.77052C18.7863 5.65464 18.6913 5.56172 18.5742 5.50707L18.5723 5.50582Z"></path>
    </g>
  </symbol>

    <symbol  xmlns="http://www.w3.org/2000/svg" viewBox="0 0 20 20" id="audit">
    <g id="fluent-mdl2:compliance-audit">
      <path id="Vector" d="M10.0879 12.5C9.99675 12.6953 9.92839 12.8971 9.88281 13.1055C9.83724 13.3138 9.79492 13.5286 9.75586 13.75H3.75V12.5H10.0879ZM3.75 16.25V15H9.73633C9.76888 15.2148 9.81445 15.4264 9.87305 15.6348C9.93164 15.8431 10.0065 16.0482 10.0977 16.25H3.75ZM2.5 18.75H15.6738L16.9141 20H1.25V0H12.1387L17.5 5.36133V10.9082C17.3112 10.7389 17.1126 10.5859 16.9043 10.4492C16.696 10.3125 16.4779 10.1921 16.25 10.0879V6.25H11.25V1.25H2.5V18.75ZM12.5 2.13867V5H15.3613L12.5 2.13867ZM12.7344 10C12.0247 10.2669 11.416 10.6836 10.9082 11.25H3.75V10H12.7344ZM3.75 5H10V6.25H3.75V5ZM15 7.5V8.75H3.75V7.5H15ZM20 19.375C20 19.5443 19.9382 19.6908 19.8145 19.8145C19.6908 19.9382 19.5443 20 19.375 20C19.2057 20 19.0592 19.9382 18.9355 19.8145L16.0938 16.9824C15.8398 17.1517 15.5664 17.2786 15.2734 17.3633C14.9805 17.4479 14.681 17.4935 14.375 17.5C13.9453 17.5 13.5417 17.4186 13.1641 17.2559C12.7865 17.0931 12.4544 16.8717 12.168 16.5918C11.8815 16.3118 11.6569 15.9798 11.4941 15.5957C11.3314 15.2116 11.25 14.8047 11.25 14.375C11.25 13.9453 11.3314 13.5417 11.4941 13.1641C11.6569 12.7865 11.8783 12.4577 12.1582 12.1777C12.4382 11.8978 12.7702 11.6732 13.1543 11.5039C13.5384 11.3346 13.9453 11.25 14.375 11.25C14.8047 11.25 15.2083 11.3314 15.5859 11.4941C15.9635 11.6569 16.2923 11.8815 16.5723 12.168C16.8522 12.4544 17.0768 12.7865 17.2461 13.1641C17.4154 13.5417 17.5 13.9453 17.5 14.375C17.5 14.681 17.4577 14.9805 17.373 15.2734C17.2884 15.5664 17.1582 15.8398 16.9824 16.0938L19.8145 18.9355C19.9382 19.0592 20 19.2057 20 19.375ZM12.5 14.375C12.5 14.6354 12.5488 14.8796 12.6465 15.1074C12.7441 15.3353 12.8776 15.5339 13.0469 15.7031C13.2161 15.8724 13.4147 16.0059 13.6426 16.1035C13.8704 16.2012 14.1146 16.25 14.375 16.25C14.6354 16.25 14.8796 16.2012 15.1074 16.1035C15.3353 16.0059 15.5339 15.8724 15.7031 15.7031C15.8724 15.5339 16.0059 15.3353 16.1035 15.1074C16.2012 14.8796 16.25 14.6354 16.25 14.375C16.25 14.1146 16.2012 13.8704 16.1035 13.6426C16.0059 13.4147 15.8724 13.2161 15.7031 13.0469C15.5339 12.8776 15.3353 12.7441 15.1074 12.6465C14.8796 12.5488 14.6354 12.5 14.375 12.5C14.1146 12.5 13.8704 12.5488 13.6426 12.6465C13.4147 12.7441 13.2161 12.8776 13.0469 13.0469C12.8776 13.2161 12.7441 13.4147 12.6465 13.6426C12.5488 13.8704 12.5 14.1146 12.5 14.375Z"></path>
    </g>
  </symbol>
  <symbol  xmlns="http://www.w3.org/2000/svg" viewBox="0 0 20 20" id="scan">
    <g id="fluent:scan-person-24-regular">
      <path id="Vector" d="M2.5 5.20833C2.5 4.49004 2.78534 3.80116 3.29325 3.29325C3.80116 2.78534 4.49004 2.5 5.20833 2.5H6.875C7.04076 2.5 7.19973 2.56585 7.31694 2.68306C7.43415 2.80027 7.5 2.95924 7.5 3.125C7.5 3.29076 7.43415 3.44973 7.31694 3.56694C7.19973 3.68415 7.04076 3.75 6.875 3.75H5.20833C4.82156 3.75 4.45063 3.90365 4.17714 4.17714C3.90365 4.45063 3.75 4.82156 3.75 5.20833V6.875C3.75 7.04076 3.68415 7.19973 3.56694 7.31694C3.44973 7.43415 3.29076 7.5 3.125 7.5C2.95924 7.5 2.80027 7.43415 2.68306 7.31694C2.56585 7.19973 2.5 7.04076 2.5 6.875V5.20833ZM12.5 3.125C12.5 2.95924 12.5658 2.80027 12.6831 2.68306C12.8003 2.56585 12.9592 2.5 13.125 2.5H14.7917C15.51 2.5 16.1988 2.78534 16.7067 3.29325C17.2147 3.80116 17.5 4.49004 17.5 5.20833V6.875C17.5 7.04076 17.4342 7.19973 17.3169 7.31694C17.1997 7.43415 17.0408 7.5 16.875 7.5C16.7092 7.5 16.5503 7.43415 16.4331 7.31694C16.3158 7.19973 16.25 7.04076 16.25 6.875V5.20833C16.25 4.82156 16.0964 4.45063 15.8229 4.17714C15.5494 3.90365 15.1784 3.75 14.7917 3.75H13.125C12.9592 3.75 12.8003 3.68415 12.6831 3.56694C12.5658 3.44973 12.5 3.29076 12.5 3.125ZM3.125 12.5C3.29076 12.5 3.44973 12.5658 3.56694 12.6831C3.68415 12.8003 3.75 12.9592 3.75 13.125V14.7917C3.75 15.5967 4.40333 16.25 5.20833 16.25H6.875C7.04076 16.25 7.19973 16.3158 7.31694 16.4331C7.43415 16.5503 7.5 16.7092 7.5 16.875C7.5 17.0408 7.43415 17.1997 7.31694 17.3169C7.19973 17.4342 7.04076 17.5 6.875 17.5H5.20083C4.48384 17.498 3.79689 17.2118 3.2906 16.7041C2.78431 16.1964 2.5 15.5087 2.5 14.7917V13.125C2.5 12.9592 2.56585 12.8003 2.68306 12.6831C2.80027 12.5658 2.95924 12.5 3.125 12.5ZM16.875 12.5C17.0408 12.5 17.1997 12.5658 17.3169 12.6831C17.4342 12.8003 17.5 12.9592 17.5 13.125V14.7917C17.5 15.51 17.2147 16.1988 16.7067 16.7067C16.1988 17.2147 15.51 17.5 14.7917 17.5H13.125C12.9592 17.5 12.8003 17.4342 12.6831 17.3169C12.5658 17.1997 12.5 17.0408 12.5 16.875C12.5 16.7092 12.5658 16.5503 12.6831 16.4331C12.8003 16.3158 12.9592 16.25 13.125 16.25H14.7917C15.1784 16.25 15.5494 16.0964 15.8229 15.8229C16.0964 15.5494 16.25 15.1784 16.25 14.7917V13.125C16.25 12.9592 16.3158 12.8003 16.4331 12.6831C16.5503 12.5658 16.7092 12.5 16.875 12.5ZM5.85333 15.4167C5.95 14.9417 6.37 14.5833 6.87417 14.5833H13.1242C13.6283 14.5833 14.0492 14.9417 14.145 15.4167H14.7908C14.9066 15.4167 15.02 15.3847 15.1186 15.3241C15.2172 15.2634 15.297 15.1766 15.3492 15.0733C15.2258 14.5767 14.9399 14.1355 14.5368 13.8202C14.1337 13.5049 13.6368 13.3335 13.125 13.3333H6.875C5.8 13.3333 4.8975 14.0742 4.65 15.0733C4.70215 15.1766 4.78197 15.2634 4.88055 15.3241C4.97913 15.3847 5.09261 15.4167 5.20833 15.4167H5.85333ZM10 10.8333C9.50272 10.8333 9.02581 10.6358 8.67417 10.2842C8.32254 9.93253 8.125 9.45561 8.125 8.95833C8.125 8.46105 8.32254 7.98414 8.67417 7.63251C9.02581 7.28088 9.50272 7.08333 10 7.08333C10.4973 7.08333 10.9742 7.28088 11.3258 7.63251C11.6775 7.98414 11.875 8.46105 11.875 8.95833C11.875 9.45561 11.6775 9.93253 11.3258 10.2842C10.9742 10.6358 10.4973 10.8333 10 10.8333ZM10 12.0833C10.8288 12.0833 11.6237 11.7541 12.2097 11.168C12.7958 10.582 13.125 9.78713 13.125 8.95833C13.125 8.12953 12.7958 7.33468 12.2097 6.74862C11.6237 6.16257 10.8288 5.83333 10 5.83333C9.1712 5.83333 8.37634 6.16257 7.79029 6.74862C7.20424 7.33468 6.875 8.12953 6.875 8.95833C6.875 9.78713 7.20424 10.582 7.79029 11.168C8.37634 11.7541 9.1712 12.0833 10 12.0833Z"></path>
    </g>
  </symbol>
  <symbol fill="none" xmlns="http://www.w3.org/2000/svg" viewBox="0 0 24 24" id="phone">
    <path d="M3.02933 3.00091H8.02008L9.62871 7.02249L7.04452 8.74528C6.73529 8.95144 6.54955 9.29849 6.54955 9.67014C6.55237 9.77421 6.54955 9.67125 6.54955 9.67125L6.54955 9.67242L6.54956 9.6749L6.54959 9.68051L6.54976 9.69423C6.54992 9.70447 6.5502 9.71692 6.55067 9.73149C6.55161 9.76062 6.55331 9.7983 6.55635 9.84394C6.56244 9.93519 6.5739 10.0586 6.59546 10.2094C6.63853 10.511 6.72215 10.9241 6.88447 11.4111C7.21042 12.3889 7.85086 13.6549 9.09819 14.9023C10.3455 16.1496 11.6116 16.79 12.5894 17.116C13.0764 17.2783 13.4895 17.3619 13.791 17.405C13.9419 17.4266 14.0653 17.438 14.1565 17.4441C14.2022 17.4471 14.2398 17.4488 14.269 17.4498C14.2835 17.4503 14.296 17.4505 14.3062 17.4507L14.3199 17.4509L14.3256 17.4509L14.328 17.4509H14.3292C14.3292 17.4509 14.4533 17.4441 14.3303 17.4509C14.7513 17.4509 15.1362 17.213 15.3245 16.8365L16.0689 15.3477L20.9995 16.1694V20.9711C18.653 21.3105 12.3155 21.645 7.33552 16.6649C2.3555 11.6849 2.68998 5.34748 3.02933 3.00091ZM8.85449 10.2104L10.8618 8.8722C11.7366 8.28906 12.0832 7.17293 11.6928 6.19686L10.0842 2.17528C9.74655 1.33127 8.9291 0.777832 8.02008 0.777832H2.97126C1.96141 0.777832 1.01085 1.47939 0.845069 2.57508C0.467913 5.06782 -0.0454476 12.4279 5.76357 18.2369C11.5726 24.0459 18.9326 23.5325 21.4254 23.1554C22.5211 22.9896 23.2226 22.039 23.2226 21.0292V16.1694C23.2226 15.0827 22.437 14.1553 21.365 13.9766L16.4344 13.1548C15.4717 12.9944 14.517 13.4806 14.0805 14.3535L13.6954 15.1238C13.5743 15.0941 13.4392 15.0559 13.2924 15.007C12.6029 14.7772 11.6459 14.3061 10.6701 13.3303C9.69439 12.3546 9.2233 11.3975 8.99347 10.7081C8.93137 10.5218 8.88666 10.3542 8.85449 10.2104Z" fill="#16151C"></path>
  </symbol>
  <symbol fill="none" xmlns="http://www.w3.org/2000/svg" viewBox="0 0 25 21" id="telegram">
    <path fill-rule="evenodd" clip-rule="evenodd" d="M1.96276 8.76596C8.37621 5.97172 12.6528 4.12959 14.7927 3.23956C20.9023 0.698354 22.1718 0.256919 22.9993 0.242343C23.1813 0.239137 23.5882 0.28424 23.8518 0.498122C24.0744 0.678721 24.1356 0.922683 24.1649 1.09391C24.1942 1.26514 24.2307 1.6552 24.2017 1.95998C23.8706 5.4387 22.438 13.8806 21.7092 17.7769C21.4008 19.4255 20.7936 19.9783 20.2057 20.0324C18.9281 20.1499 17.958 19.1881 16.7206 18.3769C14.7843 17.1077 13.6904 16.3176 11.8109 15.079C9.63883 13.6476 11.0469 12.8609 12.2848 11.5752C12.6087 11.2387 18.2378 6.11867 18.3467 5.6542C18.3604 5.59611 18.373 5.37958 18.2444 5.26525C18.1157 5.15091 17.9259 5.19001 17.7889 5.2211C17.5947 5.26518 14.5014 7.3097 8.50913 11.3547C7.63113 11.9576 6.83586 12.2513 6.12332 12.2359C5.33781 12.219 3.82679 11.7918 2.70351 11.4267C1.32576 10.9788 0.23075 10.742 0.326101 9.98142C0.375765 9.58526 0.921319 9.18011 1.96276 8.76596Z" fill="#26202F"></path>
  </symbol>
    <symbol fill="none" xmlns="http://www.w3.org/2000/svg" viewBox="0 0 27 27" id="email">
    <g id="email">
      <path id="Icon" d="M2.71875 6.84306C2.71875 5.63936 3.69454 4.66357 4.89824 4.66357H22.3341C23.5378 4.66357 24.5136 5.63936 24.5136 6.84306V19.92C24.5136 21.1237 23.5378 22.0995 22.3341 22.0995H4.89824C3.69454 22.0995 2.71875 21.1237 2.71875 19.92V6.84306ZM6.55311 6.84306L13.6162 13.0232L20.6793 6.84306H6.55311ZM22.3341 8.29108L14.3338 15.2914C13.9229 15.6509 13.3094 15.6509 12.8986 15.2914L4.89824 8.29108V19.92H22.3341V8.29108Z" fill="#16151C"></path>
    </g>
  </symbol>
  <symbol fill="none" xmlns="http://www.w3.org/2000/svg" viewBox="0 0 24 24" id="insta">
    <path d="M13.1987 0.337373C14.0501 0.334106 14.9014 0.342663 15.7525 0.36304L15.9789 0.371206C16.2402 0.38054 16.498 0.392206 16.8095 0.406206C18.0509 0.46454 18.8979 0.66054 19.641 0.948707C20.411 1.24504 21.0597 1.64637 21.7084 2.29504C22.3015 2.87791 22.7605 3.58298 23.0535 4.36121C23.3417 5.10437 23.5377 5.95254 23.596 7.19387C23.61 7.50421 23.6217 7.76321 23.631 8.02454L23.638 8.25087C23.6588 9.1016 23.6677 9.95257 23.6649 10.8035L23.666 11.6739V13.2022C23.6689 14.0536 23.66 14.9049 23.6392 15.756L23.6322 15.9824C23.6229 16.2437 23.6112 16.5015 23.5972 16.813C23.5389 18.0544 23.3405 18.9014 23.0535 19.6445C22.7615 20.4236 22.3023 21.1292 21.7084 21.7119C21.125 22.3049 20.4196 22.7639 19.641 23.057C18.8979 23.3452 18.0509 23.5412 16.8095 23.5995C16.498 23.6135 16.2402 23.6252 15.9789 23.6345L15.7525 23.6415C14.9014 23.6623 14.0501 23.6712 13.1987 23.6684L12.3284 23.6695H10.8012C9.94984 23.6724 9.09848 23.6635 8.24737 23.6427L8.02104 23.6357C7.74408 23.6257 7.46719 23.614 7.19037 23.6007C5.94904 23.5424 5.10204 23.344 4.3577 23.057C3.57917 22.7646 2.87398 22.3055 2.29154 21.7119C1.69776 21.1289 1.2383 20.4234 0.945204 19.6445C0.657038 18.9014 0.461038 18.0544 0.402704 16.813C0.389711 16.5362 0.378044 16.2593 0.367704 15.9824L0.361871 15.756C0.340362 14.9049 0.330639 14.0536 0.332704 13.2022V10.8035C0.329448 9.95257 0.338005 9.1016 0.358371 8.25087L0.366538 8.02454C0.375871 7.76321 0.387538 7.50421 0.401538 7.19387C0.459871 5.95137 0.655871 5.10554 0.944038 4.36121C1.23731 3.5826 1.69766 2.87773 2.2927 2.29621C2.87475 1.70208 3.57949 1.24221 4.3577 0.948707C5.10204 0.66054 5.94787 0.46454 7.19037 0.406206L8.02104 0.371206L8.24737 0.365373C9.09808 0.343875 9.94905 0.334152 10.8 0.336206L13.1987 0.337373ZM11.9994 6.17071C11.2265 6.15977 10.4591 6.30257 9.74184 6.59079C9.0246 6.879 8.37179 7.3069 7.82136 7.8496C7.27092 8.39231 6.83384 9.039 6.53551 9.7521C6.23717 10.4652 6.08354 11.2305 6.08354 12.0035C6.08354 12.7764 6.23717 13.5417 6.53551 14.2548C6.83384 14.9679 7.27092 15.6146 7.82136 16.1573C8.37179 16.7 9.0246 17.1279 9.74184 17.4161C10.4591 17.7043 11.2265 17.8471 11.9994 17.8362C13.5465 17.8362 15.0302 17.2216 16.1242 16.1277C17.2181 15.0337 17.8327 13.55 17.8327 12.0029C17.8327 10.4558 17.2181 8.97204 16.1242 7.87808C15.0302 6.78412 13.5465 6.17071 11.9994 6.17071ZM11.9994 8.50404C12.4643 8.49547 12.9263 8.57964 13.3583 8.75161C13.7903 8.92359 14.1838 9.17994 14.5156 9.50567C14.8475 9.83141 15.1111 10.22 15.2911 10.6488C15.471 11.0775 15.5638 11.5379 15.5638 12.0029C15.5639 12.4679 15.4713 12.9282 15.2915 13.357C15.1117 13.7859 14.8482 14.1746 14.5164 14.5004C14.1847 14.8262 13.7914 15.0827 13.3594 15.2548C12.9274 15.427 12.4655 15.5113 12.0005 15.5029C11.0723 15.5029 10.182 15.1341 9.52566 14.4777C8.86929 13.8214 8.50054 12.9311 8.50054 12.0029C8.50054 11.0746 8.86929 10.1844 9.52566 9.528C10.182 8.87162 11.0723 8.50287 12.0005 8.50287L11.9994 8.50404ZM18.1244 4.42071C17.748 4.43577 17.392 4.59588 17.1311 4.86751C16.8701 5.13913 16.7244 5.5012 16.7244 5.87787C16.7244 6.25455 16.8701 6.61662 17.1311 6.88824C17.392 7.15986 17.748 7.31998 18.1244 7.33504C18.5111 7.33504 18.8821 7.18139 19.1556 6.9079C19.4291 6.63441 19.5827 6.26348 19.5827 5.87671C19.5827 5.48993 19.4291 5.119 19.1556 4.84551C18.8821 4.57202 18.5111 4.41837 18.1244 4.41837V4.42071Z" fill="#26202F"></path>
  </symbol>
  <symbol fill="none" xmlns="http://www.w3.org/2000/svg" viewBox="0 0 24 31" id="pin">
    <path d="M11.7327 30.3672C9.61569 28.55 7.6534 26.5578 5.86636 24.4114C3.1846 21.1881 1.48111e-06 16.3877 1.48111e-06 11.8133C-0.0023755 7.03574 2.85649 2.7276 7.24256 0.899206C11.6286 -0.929185 16.6773 0.0825696 20.0328 3.46235C22.2393 5.67297 23.4753 8.68002 23.4655 11.8133C23.4655 16.3877 20.2808 21.1881 17.5991 24.4114C15.812 26.5578 13.8498 28.55 11.7327 30.3672ZM11.7327 6.75313C9.93628 6.75313 8.2763 7.71759 7.37808 9.28321C6.47986 10.8488 6.47986 12.7777 7.37808 14.3434C8.2763 15.909 9.93628 16.8734 11.7327 16.8734C14.5098 16.8734 16.761 14.6079 16.761 11.8133C16.761 9.01864 14.5098 6.75313 11.7327 6.75313Z" fill="#16151C"></path>
  </symbol>
  <symbol fill="none" xmlns="http://www.w3.org/2000/svg" viewBox="0 0 31 19" id="vk">
    <path d="M16.6897 18.5181C6.66137 18.5181 0.941458 11.6431 0.703125 0.203125H5.72646C5.89146 8.59979 9.5947 12.1565 12.528 12.8898V0.203125H17.2582V7.44479C20.1549 7.13312 23.1979 3.83312 24.2245 0.203125H28.9546C28.1663 4.67646 24.8663 7.97646 22.5196 9.33313C24.8663 10.4331 28.6248 13.3115 30.0548 18.5181H24.8479C23.7296 15.0348 20.9432 12.3398 17.2582 11.9731V18.5181H16.6897Z" fill="#26202F"></path>
  </symbol>
  <symbol fill="none" xmlns="http://www.w3.org/2000/svg" viewBox="0 0 25 25" id="wa">
    <path d="M12.5013 0.414062C19.1749 0.414062 24.5847 5.82377 24.5847 12.4974C24.5847 19.171 19.1749 24.5807 12.5013 24.5807C10.3659 24.5842 8.26811 24.0191 6.4234 22.9434L0.422819 24.5807L2.05649 18.5777C0.979973 16.7325 0.414418 14.6337 0.417986 12.4974C0.417986 5.82377 5.82769 0.414062 12.5013 0.414062ZM8.38332 6.81823L8.14165 6.8279C7.9852 6.83742 7.83229 6.87853 7.69215 6.94873C7.56107 7.02296 7.44142 7.11575 7.3369 7.22423C7.1919 7.36077 7.10974 7.47919 7.02153 7.59398C6.57459 8.17507 6.33395 8.88848 6.33761 9.62156C6.34003 10.2136 6.49469 10.79 6.73636 11.3289C7.23057 12.4189 8.04378 13.5728 9.11678 14.6422C9.37536 14.8996 9.62911 15.1581 9.90219 15.3986C11.2355 16.5725 12.8243 17.419 14.5422 17.8709L15.2285 17.976C15.4521 17.9881 15.6756 17.9711 15.9004 17.9603C16.2523 17.9421 16.5959 17.8468 16.9069 17.6811C17.0651 17.5996 17.2196 17.5109 17.3697 17.4153C17.3697 17.4153 17.4217 17.3815 17.5207 17.3066C17.6839 17.1857 17.7842 17.0999 17.9195 16.9586C18.0198 16.8546 18.1068 16.7326 18.1732 16.5936C18.2675 16.3967 18.3617 16.0209 18.4004 15.7079C18.4294 15.4687 18.4209 15.3382 18.4173 15.2572C18.4125 15.1279 18.3049 14.9938 18.1877 14.937L17.4845 14.6216C17.4845 14.6216 16.4332 14.1637 15.7904 13.8713C15.7231 13.8419 15.6511 13.8251 15.5777 13.8217C15.4951 13.8132 15.4115 13.8225 15.3327 13.849C15.254 13.8755 15.1818 13.9185 15.121 13.9752C15.1149 13.9728 15.034 14.0416 14.1604 15.1001C14.1102 15.1675 14.0411 15.2184 13.962 15.2464C13.8828 15.2744 13.797 15.2782 13.7157 15.2572C13.637 15.2361 13.5599 15.2095 13.4849 15.1775C13.3351 15.1146 13.2831 15.0905 13.1804 15.047C12.4869 14.7443 11.8448 14.3355 11.2773 13.835C11.125 13.7021 10.9837 13.5571 10.8387 13.4169C10.3633 12.9617 9.94899 12.4467 9.60615 11.8848L9.53486 11.77C9.48365 11.6928 9.44225 11.6096 9.41161 11.5223C9.36569 11.3446 9.48532 11.2021 9.48532 11.2021C9.48532 11.2021 9.77894 10.8806 9.91549 10.7066C10.0484 10.5375 10.1608 10.3731 10.2333 10.2559C10.3759 10.0264 10.4206 9.79073 10.3457 9.60827C10.0073 8.78177 9.6569 7.9589 9.29682 7.14206C9.22553 6.98015 9.01407 6.86415 8.82194 6.84119C8.75669 6.83394 8.69144 6.82669 8.62619 6.82185C8.46392 6.81379 8.30131 6.81541 8.13924 6.82669L8.38211 6.81702L8.38332 6.81823Z" fill="#26202F"></path>
  </symbol>
  <symbol fill="none" xmlns="http://www.w3.org/2000/svg" viewBox="0 0 27 19" id="yt">
    <path d="M10.9154 13.3776L17.6191 9.5026L10.9154 5.6276V13.3776ZM25.847 3.26385C26.0149 3.87094 26.1312 4.68469 26.2087 5.71802C26.2991 6.75135 26.3379 7.6426 26.3379 8.4176L26.4154 9.5026C26.4154 12.3314 26.2087 14.4109 25.847 15.7414C25.5241 16.9039 24.775 17.653 23.6124 17.9759C23.0054 18.1439 21.8945 18.2601 20.1895 18.3376C18.5104 18.428 16.9733 18.4668 15.5524 18.4668L13.4987 18.5443C8.08662 18.5443 4.71536 18.3376 3.38495 17.9759C2.22245 17.653 1.47328 16.9039 1.15036 15.7414C0.982448 15.1343 0.866198 14.3205 0.788698 13.2872C0.698281 12.2539 0.659531 11.3626 0.659531 10.5876L0.582031 9.5026C0.582031 6.67385 0.788698 4.59427 1.15036 3.26385C1.47328 2.10135 2.22245 1.35219 3.38495 1.02927C3.99203 0.861354 5.10287 0.745104 6.80787 0.667604C8.48703 0.577187 10.0241 0.538437 11.4449 0.538437L13.4987 0.460938C18.9108 0.460938 22.282 0.667604 23.6124 1.02927C24.775 1.35219 25.5241 2.10135 25.847 3.26385Z" fill="#26202F"></path>
  </symbol>
</svg>