<svg width="0" height="0" class="hidden">
  <symbol  xmlns="http://www.w3.org/2000/svg" viewBox="0 0 21 21" id="raphael_paper">
    <g id="raphael:paper">
      <path id="Vector" d="M18.5723 5.50582L10.4704 1.67894C10.3922 1.64246 10.3068 1.62403 10.2206 1.62504C10.1343 1.62604 10.0493 1.64645 9.97202 1.68475C9.89471 1.72304 9.827 1.77825 9.77392 1.84627C9.72085 1.91429 9.68376 1.99339 9.66541 2.07769C9.66353 2.08394 9.01541 5.09644 8.05291 8.09957C7.72478 9.12894 7.35728 10.1464 6.97353 11.0402L8.01415 11.5314C9.26415 8.63019 10.2542 4.62519 10.6267 3.02332L17.6685 6.34519C17.4523 7.29082 16.8979 9.60957 16.156 11.9246C15.6767 13.4246 15.1154 14.9227 14.5404 16.0071C13.9842 17.1258 13.3167 17.6758 13.1673 17.6021C12.2798 17.6208 11.656 16.8133 11.236 15.7783C11.0594 15.323 10.922 14.8533 10.8254 14.3746C10.7454 13.9883 10.721 13.7458 10.7192 13.7458C10.7092 13.6481 10.674 13.5547 10.617 13.4747C10.56 13.3947 10.4832 13.3309 10.3942 13.2896L2.29416 9.46457C2.20187 9.42103 2.0997 9.40272 1.99804 9.4115C1.89637 9.42029 1.79886 9.45585 1.71541 9.51457C1.63244 9.57383 1.56672 9.65408 1.52499 9.7471C1.48325 9.84013 1.46701 9.94257 1.47791 10.0439C1.48291 10.0727 1.59978 11.2002 2.06978 12.3796C2.39603 13.2046 2.94915 14.1408 3.84853 14.6139L11.946 18.4452L11.9498 18.4377C12.301 18.6221 12.6998 18.7421 13.1667 18.7477C14.2898 18.6746 14.9023 17.7052 15.5529 16.5446C17.4279 12.9883 18.8779 6.16957 18.8892 6.14457C18.9169 6.01833 18.9008 5.8864 18.8436 5.77052C18.7863 5.65464 18.6913 5.56172 18.5742 5.50707L18.5723 5.50582Z"></path>
    </g>
  </symbol>

    <symbol  xmlns="http://www.w3.org/2000/svg" viewBox="0 0 20 20" id="audit">
    <g id="fluent-mdl2:compliance-audit">
      <path id="Vector" d="M10.0879 12.5C9.99675 12.6953 9.92839 12.8971 9.88281 13.1055C9.83724 13.3138 9.79492 13.5286 9.75586 13.75H3.75V12.5H10.0879ZM3.75 16.25V15H9.73633C9.76888 15.2148 9.81445 15.4264 9.87305 15.6348C9.93164 15.8431 10.0065 16.0482 10.0977 16.25H3.75ZM2.5 18.75H15.6738L16.9141 20H1.25V0H12.1387L17.5 5.36133V10.9082C17.3112 10.7389 17.1126 10.5859 16.9043 10.4492C16.696 10.3125 16.4779 10.1921 16.25 10.0879V6.25H11.25V1.25H2.5V18.75ZM12.5 2.13867V5H15.3613L12.5 2.13867ZM12.7344 10C12.0247 10.2669 11.416 10.6836 10.9082 11.25H3.75V10H12.7344ZM3.75 5H10V6.25H3.75V5ZM15 7.5V8.75H3.75V7.5H15ZM20 19.375C20 19.5443 19.9382 19.6908 19.8145 19.8145C19.6908 19.9382 19.5443 20 19.375 20C19.2057 20 19.0592 19.9382 18.9355 19.8145L16.0938 16.9824C15.8398 17.1517 15.5664 17.2786 15.2734 17.3633C14.9805 17.4479 14.681 17.4935 14.375 17.5C13.9453 17.5 13.5417 17.4186 13.1641 17.2559C12.7865 17.0931 12.4544 16.8717 12.168 16.5918C11.8815 16.3118 11.6569 15.9798 11.4941 15.5957C11.3314 15.2116 11.25 14.8047 11.25 14.375C11.25 13.9453 11.3314 13.5417 11.4941 13.1641C11.6569 12.7865 11.8783 12.4577 12.1582 12.1777C12.4382 11.8978 12.7702 11.6732 13.1543 11.5039C13.5384 11.3346 13.9453 11.25 14.375 11.25C14.8047 11.25 15.2083 11.3314 15.5859 11.4941C15.9635 11.6569 16.2923 11.8815 16.5723 12.168C16.8522 12.4544 17.0768 12.7865 17.2461 13.1641C17.4154 13.5417 17.5 13.9453 17.5 14.375C17.5 14.681 17.4577 14.9805 17.373 15.2734C17.2884 15.5664 17.1582 15.8398 16.9824 16.0938L19.8145 18.9355C19.9382 19.0592 20 19.2057 20 19.375ZM12.5 14.375C12.5 14.6354 12.5488 14.8796 12.6465 15.1074C12.7441 15.3353 12.8776 15.5339 13.0469 15.7031C13.2161 15.8724 13.4147 16.0059 13.6426 16.1035C13.8704 16.2012 14.1146 16.25 14.375 16.25C14.6354 16.25 14.8796 16.2012 15.1074 16.1035C15.3353 16.0059 15.5339 15.8724 15.7031 15.7031C15.8724 15.5339 16.0059 15.3353 16.1035 15.1074C16.2012 14.8796 16.25 14.6354 16.25 14.375C16.25 14.1146 16.2012 13.8704 16.1035 13.6426C16.0059 13.4147 15.8724 13.2161 15.7031 13.0469C15.5339 12.8776 15.3353 12.7441 15.1074 12.6465C14.8796 12.5488 14.6354 12.5 14.375 12.5C14.1146 12.5 13.8704 12.5488 13.6426 12.6465C13.4147 12.7441 13.2161 12.8776 13.0469 13.0469C12.8776 13.2161 12.7441 13.4147 12.6465 13.6426C12.5488 13.8704 12.5 14.1146 12.5 14.375Z"></path>
    </g>
  </symbol>
  <symbol  xmlns="http://www.w3.org/2000/svg" viewBox="0 0 20 20" id="scan">
    <g id="fluent:scan-person-24-regular">
      <path id="Vector" d="M2.5 5.20833C2.5 4.49004 2.78534 3.80116 3.29325 3.29325C3.80116 2.78534 4.49004 2.5 5.20833 2.5H6.875C7.04076 2.5 7.19973 2.56585 7.31694 2.68306C7.43415 2.80027 7.5 2.95924 7.5 3.125C7.5 3.29076 7.43415 3.44973 7.31694 3.56694C7.19973 3.68415 7.04076 3.75 6.875 3.75H5.20833C4.82156 3.75 4.45063 3.90365 4.17714 4.17714C3.90365 4.45063 3.75 4.82156 3.75 5.20833V6.875C3.75 7.04076 3.68415 7.19973 3.56694 7.31694C3.44973 7.43415 3.29076 7.5 3.125 7.5C2.95924 7.5 2.80027 7.43415 2.68306 7.31694C2.56585 7.19973 2.5 7.04076 2.5 6.875V5.20833ZM12.5 3.125C12.5 2.95924 12.5658 2.80027 12.6831 2.68306C12.8003 2.56585 12.9592 2.5 13.125 2.5H14.7917C15.51 2.5 16.1988 2.78534 16.7067 3.29325C17.2147 3.80116 17.5 4.49004 17.5 5.20833V6.875C17.5 7.04076 17.4342 7.19973 17.3169 7.31694C17.1997 7.43415 17.0408 7.5 16.875 7.5C16.7092 7.5 16.5503 7.43415 16.4331 7.31694C16.3158 7.19973 16.25 7.04076 16.25 6.875V5.20833C16.25 4.82156 16.0964 4.45063 15.8229 4.17714C15.5494 3.90365 15.1784 3.75 14.7917 3.75H13.125C12.9592 3.75 12.8003 3.68415 12.6831 3.56694C12.5658 3.44973 12.5 3.29076 12.5 3.125ZM3.125 12.5C3.29076 12.5 3.44973 12.5658 3.56694 12.6831C3.68415 12.8003 3.75 12.9592 3.75 13.125V14.7917C3.75 15.5967 4.40333 16.25 5.20833 16.25H6.875C7.04076 16.25 7.19973 16.3158 7.31694 16.4331C7.43415 16.5503 7.5 16.7092 7.5 16.875C7.5 17.0408 7.43415 17.1997 7.31694 17.3169C7.19973 17.4342 7.04076 17.5 6.875 17.5H5.20083C4.48384 17.498 3.79689 17.2118 3.2906 16.7041C2.78431 16.1964 2.5 15.5087 2.5 14.7917V13.125C2.5 12.9592 2.56585 12.8003 2.68306 12.6831C2.80027 12.5658 2.95924 12.5 3.125 12.5ZM16.875 12.5C17.0408 12.5 17.1997 12.5658 17.3169 12.6831C17.4342 12.8003 17.5 12.9592 17.5 13.125V14.7917C17.5 15.51 17.2147 16.1988 16.7067 16.7067C16.1988 17.2147 15.51 17.5 14.7917 17.5H13.125C12.9592 17.5 12.8003 17.4342 12.6831 17.3169C12.5658 17.1997 12.5 17.0408 12.5 16.875C12.5 16.7092 12.5658 16.5503 12.6831 16.4331C12.8003 16.3158 12.9592 16.25 13.125 16.25H14.7917C15.1784 16.25 15.5494 16.0964 15.8229 15.8229C16.0964 15.5494 16.25 15.1784 16.25 14.7917V13.125C16.25 12.9592 16.3158 12.8003 16.4331 12.6831C16.5503 12.5658 16.7092 12.5 16.875 12.5ZM5.85333 15.4167C5.95 14.9417 6.37 14.5833 6.87417 14.5833H13.1242C13.6283 14.5833 14.0492 14.9417 14.145 15.4167H14.7908C14.9066 15.4167 15.02 15.3847 15.1186 15.3241C15.2172 15.2634 15.297 15.1766 15.3492 15.0733C15.2258 14.5767 14.9399 14.1355 14.5368 13.8202C14.1337 13.5049 13.6368 13.3335 13.125 13.3333H6.875C5.8 13.3333 4.8975 14.0742 4.65 15.0733C4.70215 15.1766 4.78197 15.2634 4.88055 15.3241C4.97913 15.3847 5.09261 15.4167 5.20833 15.4167H5.85333ZM10 10.8333C9.50272 10.8333 9.02581 10.6358 8.67417 10.2842C8.32254 9.93253 8.125 9.45561 8.125 8.95833C8.125 8.46105 8.32254 7.98414 8.67417 7.63251C9.02581 7.28088 9.50272 7.08333 10 7.08333C10.4973 7.08333 10.9742 7.28088 11.3258 7.63251C11.6775 7.98414 11.875 8.46105 11.875 8.95833C11.875 9.45561 11.6775 9.93253 11.3258 10.2842C10.9742 10.6358 10.4973 10.8333 10 10.8333ZM10 12.0833C10.8288 12.0833 11.6237 11.7541 12.2097 11.168C12.7958 10.582 13.125 9.78713 13.125 8.95833C13.125 8.12953 12.7958 7.33468 12.2097 6.74862C11.6237 6.16257 10.8288 5.83333 10 5.83333C9.1712 5.83333 8.37634 6.16257 7.79029 6.74862C7.20424 7.33468 6.875 8.12953 6.875 8.95833C6.875 9.78713 7.20424 10.582 7.79029 11.168C8.37634 11.7541 9.1712 12.0833 10 12.0833Z"></path>
    </g>
  </symbol>
</svg>