<svg width="113" height="44" viewBox="0 0 113 44" fill="none" xmlns="http://www.w3.org/2000/svg">
<path id="Arrow 1" d="M16.0596 34.7932L15.9092 34.3164L16.0596 34.7932ZM112.501 31.9999L107.147 29.8385L107.952 35.5556L112.501 31.9999ZM40.5006 1C40.3384 1.47296 40.3383 1.47294 40.3384 1.47296C40.3387 1.47304 40.3389 1.47312 40.3393 1.47328C40.3402 1.47359 40.3417 1.47411 40.3438 1.47483C40.348 1.47628 40.3545 1.47855 40.3633 1.48163C40.3808 1.48781 40.4075 1.49725 40.4427 1.50995C40.5131 1.53534 40.6177 1.57371 40.7521 1.62484C41.0209 1.72712 41.4087 1.88034 41.8807 2.08277C42.8255 2.48801 44.1032 3.08856 45.4371 3.87003C48.1364 5.45134 50.9381 7.70024 51.8257 10.4716C52.2619 11.8333 52.2438 13.3441 51.4879 15.0148C50.7261 16.6986 49.2048 18.5658 46.5962 20.5935C41.3738 24.6531 31.9078 29.2697 15.9092 34.3164L16.21 35.2701C32.2405 30.2133 41.8442 25.554 47.2099 21.383C49.8954 19.2955 51.5477 17.3086 52.399 15.427C53.2562 13.5322 53.2904 11.766 52.7781 10.1665C51.7688 7.01543 48.6697 4.60479 45.9426 3.00719C44.5634 2.1992 43.2464 1.58044 42.2749 1.16374C41.7887 0.955205 41.3879 0.796801 41.1077 0.690193C40.9676 0.636879 40.8575 0.59649 40.7819 0.569234C40.7441 0.555605 40.7149 0.545257 40.6949 0.538217C40.6849 0.534696 40.6772 0.532003 40.6718 0.530139C40.6691 0.529207 40.667 0.528482 40.6655 0.527966C40.6648 0.527707 40.6641 0.527476 40.6637 0.527346C40.6632 0.527167 40.6628 0.527039 40.5006 1ZM15.9092 34.3164C8.71184 36.5867 4.29022 38.3286 2.15837 39.6394C1.62291 39.9686 1.20345 40.2874 0.91815 40.6005C0.640622 40.9052 0.424403 41.2782 0.465973 41.6978C0.508995 42.132 0.807576 42.4335 1.13512 42.6341C1.46562 42.8365 1.90706 42.9896 2.41976 43.1105C4.45951 43.5914 8.23474 43.6919 13.1327 43.5335C18.0528 43.3744 24.1671 42.9509 30.9244 42.3581C57.9519 39.9872 95.3668 34.8993 108.111 33.123L107.973 32.1325C95.2272 33.9091 57.8358 38.9935 30.837 41.3619C24.0877 41.954 17.9941 42.3757 13.1004 42.534C8.18458 42.693 4.54001 42.583 2.64924 42.1372C2.17931 42.0264 1.8562 41.9031 1.65733 41.7813C1.56003 41.7217 1.50846 41.6721 1.4831 41.6395C1.47108 41.624 1.46588 41.6136 1.46372 41.6085C1.46173 41.6037 1.46129 41.6011 1.4611 41.5992C1.46081 41.5962 1.45504 41.4961 1.65738 41.274C1.85195 41.0604 2.18177 40.7989 2.68213 40.4912C4.69357 39.2545 8.99976 37.5445 16.21 35.2701L15.9092 34.3164Z" fill="#CA9CFC"/>
</svg>
