<svg width="13" height="14" viewBox="0 0 13 14" fill="none" xmlns="http://www.w3.org/2000/svg">
<path d="M11.0966 2.40373C8.55818 -0.134435 4.44246 -0.134718 1.90373 2.40373C-0.634718 4.94218 -0.634435 9.0579 1.90373 11.5966C4.44218 14.1345 8.5579 14.1348 11.0966 11.5966C13.6348 9.0579 13.6345 4.94246 11.0966 2.40373ZM7.34774 9.82633C7.34774 10.0512 7.25841 10.2668 7.09941 10.4258C6.94041 10.5848 6.72476 10.6742 6.4999 10.6742C6.27503 10.6742 6.05938 10.5848 5.90038 10.4258C5.74138 10.2668 5.65205 10.0512 5.65205 9.82633V6.43495C5.65205 6.21009 5.74138 5.99443 5.90038 5.83543C6.05938 5.67643 6.27503 5.5871 6.4999 5.5871C6.72476 5.5871 6.94041 5.67643 7.09941 5.83543C7.25841 5.99443 7.34774 6.21009 7.34774 6.43495V9.82633ZM6.48492 4.9857C5.99656 4.9857 5.67099 4.63978 5.68116 4.21275C5.67099 3.76509 5.99656 3.42962 6.49481 3.42962C6.99334 3.42962 7.30874 3.76537 7.3192 4.21275C7.31891 4.63978 6.99362 4.9857 6.48492 4.9857Z" fill="#86A67E"/>
</svg>
