<svg width="24" height="24" viewBox="0 0 24 24" fill="none" xmlns="http://www.w3.org/2000/svg">
<path d="M13.1987 0.337373C14.0501 0.334106 14.9014 0.342663 15.7525 0.36304L15.9789 0.371206C16.2402 0.38054 16.498 0.392206 16.8095 0.406206C18.0509 0.46454 18.8979 0.66054 19.641 0.948707C20.411 1.24504 21.0597 1.64637 21.7084 2.29504C22.3015 2.87791 22.7605 3.58298 23.0535 4.36121C23.3417 5.10437 23.5377 5.95254 23.596 7.19387C23.61 7.50421 23.6217 7.76321 23.631 8.02454L23.638 8.25087C23.6588 9.1016 23.6677 9.95257 23.6649 10.8035L23.666 11.6739V13.2022C23.6689 14.0536 23.66 14.9049 23.6392 15.756L23.6322 15.9824C23.6229 16.2437 23.6112 16.5015 23.5972 16.813C23.5389 18.0544 23.3405 18.9014 23.0535 19.6445C22.7615 20.4236 22.3023 21.1292 21.7084 21.7119C21.125 22.3049 20.4196 22.7639 19.641 23.057C18.8979 23.3452 18.0509 23.5412 16.8095 23.5995C16.498 23.6135 16.2402 23.6252 15.9789 23.6345L15.7525 23.6415C14.9014 23.6623 14.0501 23.6712 13.1987 23.6684L12.3284 23.6695H10.8012C9.94984 23.6724 9.09848 23.6635 8.24737 23.6427L8.02104 23.6357C7.74408 23.6257 7.46719 23.614 7.19037 23.6007C5.94904 23.5424 5.10204 23.344 4.3577 23.057C3.57917 22.7646 2.87398 22.3055 2.29154 21.7119C1.69776 21.1289 1.2383 20.4234 0.945204 19.6445C0.657038 18.9014 0.461038 18.0544 0.402704 16.813C0.389711 16.5362 0.378044 16.2593 0.367704 15.9824L0.361871 15.756C0.340362 14.9049 0.330639 14.0536 0.332704 13.2022V10.8035C0.329448 9.95257 0.338005 9.1016 0.358371 8.25087L0.366538 8.02454C0.375871 7.76321 0.387538 7.50421 0.401538 7.19387C0.459871 5.95137 0.655871 5.10554 0.944038 4.36121C1.23731 3.5826 1.69766 2.87773 2.2927 2.29621C2.87475 1.70208 3.57949 1.24221 4.3577 0.948707C5.10204 0.66054 5.94787 0.46454 7.19037 0.406206L8.02104 0.371206L8.24737 0.365373C9.09808 0.343875 9.94905 0.334152 10.8 0.336206L13.1987 0.337373ZM11.9994 6.17071C11.2265 6.15977 10.4591 6.30257 9.74184 6.59079C9.0246 6.879 8.37179 7.3069 7.82136 7.8496C7.27092 8.39231 6.83384 9.039 6.53551 9.7521C6.23717 10.4652 6.08354 11.2305 6.08354 12.0035C6.08354 12.7764 6.23717 13.5417 6.53551 14.2548C6.83384 14.9679 7.27092 15.6146 7.82136 16.1573C8.37179 16.7 9.0246 17.1279 9.74184 17.4161C10.4591 17.7043 11.2265 17.8471 11.9994 17.8362C13.5465 17.8362 15.0302 17.2216 16.1242 16.1277C17.2181 15.0337 17.8327 13.55 17.8327 12.0029C17.8327 10.4558 17.2181 8.97204 16.1242 7.87808C15.0302 6.78412 13.5465 6.17071 11.9994 6.17071ZM11.9994 8.50404C12.4643 8.49547 12.9263 8.57964 13.3583 8.75161C13.7903 8.92359 14.1838 9.17994 14.5156 9.50567C14.8475 9.83141 15.1111 10.22 15.2911 10.6488C15.471 11.0775 15.5638 11.5379 15.5638 12.0029C15.5639 12.4679 15.4713 12.9282 15.2915 13.357C15.1117 13.7859 14.8482 14.1746 14.5164 14.5004C14.1847 14.8262 13.7914 15.0827 13.3594 15.2548C12.9274 15.427 12.4655 15.5113 12.0005 15.5029C11.0723 15.5029 10.182 15.1341 9.52566 14.4777C8.86929 13.8214 8.50054 12.9311 8.50054 12.0029C8.50054 11.0746 8.86929 10.1844 9.52566 9.528C10.182 8.87162 11.0723 8.50287 12.0005 8.50287L11.9994 8.50404ZM18.1244 4.42071C17.748 4.43577 17.392 4.59588 17.1311 4.86751C16.8701 5.13913 16.7244 5.5012 16.7244 5.87787C16.7244 6.25455 16.8701 6.61662 17.1311 6.88824C17.392 7.15986 17.748 7.31998 18.1244 7.33504C18.5111 7.33504 18.8821 7.18139 19.1556 6.9079C19.4291 6.63441 19.5827 6.26348 19.5827 5.87671C19.5827 5.48993 19.4291 5.119 19.1556 4.84551C18.8821 4.57202 18.5111 4.41837 18.1244 4.41837V4.42071Z" fill="#26202F"/>
</svg>
