<svg width="24" height="24" viewBox="0 0 24 24" fill="none" xmlns="http://www.w3.org/2000/svg">
<path d="M3.02933 3.00091H8.02008L9.62871 7.02249L7.04452 8.74528C6.73529 8.95144 6.54955 9.29849 6.54955 9.67014C6.55237 9.77421 6.54955 9.67125 6.54955 9.67125L6.54955 9.67242L6.54956 9.6749L6.54959 9.68051L6.54976 9.69423C6.54992 9.70447 6.5502 9.71692 6.55067 9.73149C6.55161 9.76062 6.55331 9.7983 6.55635 9.84394C6.56244 9.93519 6.5739 10.0586 6.59546 10.2094C6.63853 10.511 6.72215 10.9241 6.88447 11.4111C7.21042 12.3889 7.85086 13.6549 9.09819 14.9023C10.3455 16.1496 11.6116 16.79 12.5894 17.116C13.0764 17.2783 13.4895 17.3619 13.791 17.405C13.9419 17.4266 14.0653 17.438 14.1565 17.4441C14.2022 17.4471 14.2398 17.4488 14.269 17.4498C14.2835 17.4503 14.296 17.4505 14.3062 17.4507L14.3199 17.4509L14.3256 17.4509L14.328 17.4509H14.3292C14.3292 17.4509 14.4533 17.4441 14.3303 17.4509C14.7513 17.4509 15.1362 17.213 15.3245 16.8365L16.0689 15.3477L20.9995 16.1694V20.9711C18.653 21.3105 12.3155 21.645 7.33552 16.6649C2.3555 11.6849 2.68998 5.34748 3.02933 3.00091ZM8.85449 10.2104L10.8618 8.8722C11.7366 8.28906 12.0832 7.17293 11.6928 6.19686L10.0842 2.17528C9.74655 1.33127 8.9291 0.777832 8.02008 0.777832H2.97126C1.96141 0.777832 1.01085 1.47939 0.845069 2.57508C0.467913 5.06782 -0.0454476 12.4279 5.76357 18.2369C11.5726 24.0459 18.9326 23.5325 21.4254 23.1554C22.5211 22.9896 23.2226 22.039 23.2226 21.0292V16.1694C23.2226 15.0827 22.437 14.1553 21.365 13.9766L16.4344 13.1548C15.4717 12.9944 14.517 13.4806 14.0805 14.3535L13.6954 15.1238C13.5743 15.0941 13.4392 15.0559 13.2924 15.007C12.6029 14.7772 11.6459 14.3061 10.6701 13.3303C9.69439 12.3546 9.2233 11.3975 8.99347 10.7081C8.93137 10.5218 8.88666 10.3542 8.85449 10.2104Z" fill="#16151C"/>
</svg>
