<svg width="24" height="31" viewBox="0 0 24 31" fill="none" xmlns="http://www.w3.org/2000/svg">
<path d="M11.7327 30.3672C9.61569 28.55 7.6534 26.5578 5.86636 24.4114C3.1846 21.1881 1.48111e-06 16.3877 1.48111e-06 11.8133C-0.0023755 7.03574 2.85649 2.7276 7.24256 0.899206C11.6286 -0.929185 16.6773 0.0825696 20.0328 3.46235C22.2393 5.67297 23.4753 8.68002 23.4655 11.8133C23.4655 16.3877 20.2808 21.1881 17.5991 24.4114C15.812 26.5578 13.8498 28.55 11.7327 30.3672ZM11.7327 6.75313C9.93628 6.75313 8.2763 7.71759 7.37808 9.28321C6.47986 10.8488 6.47986 12.7777 7.37808 14.3434C8.2763 15.909 9.93628 16.8734 11.7327 16.8734C14.5098 16.8734 16.761 14.6079 16.761 11.8133C16.761 9.01864 14.5098 6.75313 11.7327 6.75313Z" fill="#16151C"/>
</svg>
