<svg width="20" height="20" viewBox="0 0 20 20" fill="none" xmlns="http://www.w3.org/2000/svg">
<g id="fluent:scan-person-24-regular">
<path id="Vector" d="M2.5 5.20833C2.5 4.49004 2.78534 3.80116 3.29325 3.29325C3.80116 2.78534 4.49004 2.5 5.20833 2.5H6.875C7.04076 2.5 7.19973 2.56585 7.31694 2.68306C7.43415 2.80027 7.5 2.95924 7.5 3.125C7.5 3.29076 7.43415 3.44973 7.31694 3.56694C7.19973 3.68415 7.04076 3.75 6.875 3.75H5.20833C4.82156 3.75 4.45063 3.90365 4.17714 4.17714C3.90365 4.45063 3.75 4.82156 3.75 5.20833V6.875C3.75 7.04076 3.68415 7.19973 3.56694 7.31694C3.44973 7.43415 3.29076 7.5 3.125 7.5C2.95924 7.5 2.80027 7.43415 2.68306 7.31694C2.56585 7.19973 2.5 7.04076 2.5 6.875V5.20833ZM12.5 3.125C12.5 2.95924 12.5658 2.80027 12.6831 2.68306C12.8003 2.56585 12.9592 2.5 13.125 2.5H14.7917C15.51 2.5 16.1988 2.78534 16.7067 3.29325C17.2147 3.80116 17.5 4.49004 17.5 5.20833V6.875C17.5 7.04076 17.4342 7.19973 17.3169 7.31694C17.1997 7.43415 17.0408 7.5 16.875 7.5C16.7092 7.5 16.5503 7.43415 16.4331 7.31694C16.3158 7.19973 16.25 7.04076 16.25 6.875V5.20833C16.25 4.82156 16.0964 4.45063 15.8229 4.17714C15.5494 3.90365 15.1784 3.75 14.7917 3.75H13.125C12.9592 3.75 12.8003 3.68415 12.6831 3.56694C12.5658 3.44973 12.5 3.29076 12.5 3.125ZM3.125 12.5C3.29076 12.5 3.44973 12.5658 3.56694 12.6831C3.68415 12.8003 3.75 12.9592 3.75 13.125V14.7917C3.75 15.5967 4.40333 16.25 5.20833 16.25H6.875C7.04076 16.25 7.19973 16.3158 7.31694 16.4331C7.43415 16.5503 7.5 16.7092 7.5 16.875C7.5 17.0408 7.43415 17.1997 7.31694 17.3169C7.19973 17.4342 7.04076 17.5 6.875 17.5H5.20083C4.48384 17.498 3.79689 17.2118 3.2906 16.7041C2.78431 16.1964 2.5 15.5087 2.5 14.7917V13.125C2.5 12.9592 2.56585 12.8003 2.68306 12.6831C2.80027 12.5658 2.95924 12.5 3.125 12.5ZM16.875 12.5C17.0408 12.5 17.1997 12.5658 17.3169 12.6831C17.4342 12.8003 17.5 12.9592 17.5 13.125V14.7917C17.5 15.51 17.2147 16.1988 16.7067 16.7067C16.1988 17.2147 15.51 17.5 14.7917 17.5H13.125C12.9592 17.5 12.8003 17.4342 12.6831 17.3169C12.5658 17.1997 12.5 17.0408 12.5 16.875C12.5 16.7092 12.5658 16.5503 12.6831 16.4331C12.8003 16.3158 12.9592 16.25 13.125 16.25H14.7917C15.1784 16.25 15.5494 16.0964 15.8229 15.8229C16.0964 15.5494 16.25 15.1784 16.25 14.7917V13.125C16.25 12.9592 16.3158 12.8003 16.4331 12.6831C16.5503 12.5658 16.7092 12.5 16.875 12.5ZM5.85333 15.4167C5.95 14.9417 6.37 14.5833 6.87417 14.5833H13.1242C13.6283 14.5833 14.0492 14.9417 14.145 15.4167H14.7908C14.9066 15.4167 15.02 15.3847 15.1186 15.3241C15.2172 15.2634 15.297 15.1766 15.3492 15.0733C15.2258 14.5767 14.9399 14.1355 14.5368 13.8202C14.1337 13.5049 13.6368 13.3335 13.125 13.3333H6.875C5.8 13.3333 4.8975 14.0742 4.65 15.0733C4.70215 15.1766 4.78197 15.2634 4.88055 15.3241C4.97913 15.3847 5.09261 15.4167 5.20833 15.4167H5.85333ZM10 10.8333C9.50272 10.8333 9.02581 10.6358 8.67417 10.2842C8.32254 9.93253 8.125 9.45561 8.125 8.95833C8.125 8.46105 8.32254 7.98414 8.67417 7.63251C9.02581 7.28088 9.50272 7.08333 10 7.08333C10.4973 7.08333 10.9742 7.28088 11.3258 7.63251C11.6775 7.98414 11.875 8.46105 11.875 8.95833C11.875 9.45561 11.6775 9.93253 11.3258 10.2842C10.9742 10.6358 10.4973 10.8333 10 10.8333ZM10 12.0833C10.8288 12.0833 11.6237 11.7541 12.2097 11.168C12.7958 10.582 13.125 9.78713 13.125 8.95833C13.125 8.12953 12.7958 7.33468 12.2097 6.74862C11.6237 6.16257 10.8288 5.83333 10 5.83333C9.1712 5.83333 8.37634 6.16257 7.79029 6.74862C7.20424 7.33468 6.875 8.12953 6.875 8.95833C6.875 9.78713 7.20424 10.582 7.79029 11.168C8.37634 11.7541 9.1712 12.0833 10 12.0833Z" fill="#FD01D7"/>
</g>
</svg>
