<svg width="25" height="21" viewBox="0 0 25 21" fill="none" xmlns="http://www.w3.org/2000/svg">
<path fill-rule="evenodd" clip-rule="evenodd" d="M1.96276 8.76596C8.37621 5.97172 12.6528 4.12959 14.7927 3.23956C20.9023 0.698354 22.1718 0.256919 22.9993 0.242343C23.1813 0.239137 23.5882 0.28424 23.8518 0.498122C24.0744 0.678721 24.1356 0.922683 24.1649 1.09391C24.1942 1.26514 24.2307 1.6552 24.2017 1.95998C23.8706 5.4387 22.438 13.8806 21.7092 17.7769C21.4008 19.4255 20.7936 19.9783 20.2057 20.0324C18.9281 20.1499 17.958 19.1881 16.7206 18.3769C14.7843 17.1077 13.6904 16.3176 11.8109 15.079C9.63883 13.6476 11.0469 12.8609 12.2848 11.5752C12.6087 11.2387 18.2378 6.11867 18.3467 5.6542C18.3604 5.59611 18.373 5.37958 18.2444 5.26525C18.1157 5.15091 17.9259 5.19001 17.7889 5.2211C17.5947 5.26518 14.5014 7.3097 8.50913 11.3547C7.63113 11.9576 6.83586 12.2513 6.12332 12.2359C5.33781 12.219 3.82679 11.7918 2.70351 11.4267C1.32576 10.9788 0.23075 10.742 0.326101 9.98142C0.375765 9.58526 0.921319 9.18011 1.96276 8.76596Z" fill="#26202F"/>
</svg>
