<svg width="32" height="33" viewBox="0 0 32 33" fill="none" xmlns="http://www.w3.org/2000/svg">
<g filter="url(#filter0_i_106_40894)">
<rect y="0.5" width="32" height="32" rx="16" fill="black" fill-opacity="0.1"/>
<circle cx="16.0007" cy="16.4999" r="11.6667" fill="url(#paint0_linear_106_40894)"/>
<g filter="url(#filter1_i_106_40894)">
<circle cx="16" cy="16.5" r="10.5" fill="url(#paint1_linear_106_40894)"/>
</g>
<circle cx="16" cy="16.5" r="10" stroke="black" stroke-opacity="0.4"/>
<path d="M20.5482 11.8333H11.4022V13.9649H14.879V17.0926H17.081V13.9649H20.5482V11.8333Z" fill="#0A332C"/>
<path d="M15.9993 17.4277C13.131 17.4277 10.8034 16.9902 10.8034 16.4503C10.8034 15.9104 13.131 15.4729 15.9993 15.4729C18.8677 15.4729 21.1953 15.9104 21.1953 16.4503C21.1953 16.9902 18.8677 17.4277 15.9993 17.4277ZM21.8327 16.6085C21.8327 15.9104 19.2251 15.3519 15.9993 15.3519C12.7736 15.3519 10.166 15.9197 10.166 16.6085C10.166 17.2229 12.1942 17.7349 14.879 17.8466V22.3333H17.081V17.8466C19.7852 17.7349 21.8327 17.2229 21.8327 16.6085Z" fill="#0A332C"/>
</g>
<defs>
<filter id="filter0_i_106_40894" x="0" y="0.5" width="32" height="32" filterUnits="userSpaceOnUse" color-interpolation-filters="sRGB">
<feFlood flood-opacity="0" result="BackgroundImageFix"/>
<feBlend mode="normal" in="SourceGraphic" in2="BackgroundImageFix" result="shape"/>
<feColorMatrix in="SourceAlpha" type="matrix" values="0 0 0 0 0 0 0 0 0 0 0 0 0 0 0 0 0 0 127 0" result="hardAlpha"/>
<feOffset dy="-1"/>
<feComposite in2="hardAlpha" operator="arithmetic" k2="-1" k3="1"/>
<feColorMatrix type="matrix" values="0 0 0 0 1 0 0 0 0 1 0 0 0 0 1 0 0 0 0.1 0"/>
<feBlend mode="normal" in2="shape" result="effect1_innerShadow_106_40894"/>
</filter>
<filter id="filter1_i_106_40894" x="5.5" y="6" width="21" height="21" filterUnits="userSpaceOnUse" color-interpolation-filters="sRGB">
<feFlood flood-opacity="0" result="BackgroundImageFix"/>
<feBlend mode="normal" in="SourceGraphic" in2="BackgroundImageFix" result="shape"/>
<feColorMatrix in="SourceAlpha" type="matrix" values="0 0 0 0 0 0 0 0 0 0 0 0 0 0 0 0 0 0 127 0" result="hardAlpha"/>
<feOffset dy="2"/>
<feComposite in2="hardAlpha" operator="arithmetic" k2="-1" k3="1"/>
<feColorMatrix type="matrix" values="0 0 0 0 1 0 0 0 0 1 0 0 0 0 1 0 0 0 0.5 0"/>
<feBlend mode="normal" in2="shape" result="effect1_innerShadow_106_40894"/>
</filter>
<linearGradient id="paint0_linear_106_40894" x1="16.0007" y1="4.83325" x2="16.0007" y2="28.1666" gradientUnits="userSpaceOnUse">
<stop stop-color="#29CC96"/>
<stop offset="1" stop-color="#1F9970"/>
</linearGradient>
<linearGradient id="paint1_linear_106_40894" x1="16" y1="6" x2="16" y2="27" gradientUnits="userSpaceOnUse">
<stop stop-color="#29CC96"/>
<stop offset="1" stop-color="#1F9970"/>
</linearGradient>
</defs>
</svg>
