<svg width="25" height="25" viewBox="0 0 25 25" fill="none" xmlns="http://www.w3.org/2000/svg">
<path d="M12.5013 0.414062C19.1749 0.414062 24.5847 5.82377 24.5847 12.4974C24.5847 19.171 19.1749 24.5807 12.5013 24.5807C10.3659 24.5842 8.26811 24.0191 6.4234 22.9434L0.422819 24.5807L2.05649 18.5777C0.979973 16.7325 0.414418 14.6337 0.417986 12.4974C0.417986 5.82377 5.82769 0.414062 12.5013 0.414062ZM8.38332 6.81823L8.14165 6.8279C7.9852 6.83742 7.83229 6.87853 7.69215 6.94873C7.56107 7.02296 7.44142 7.11575 7.3369 7.22423C7.1919 7.36077 7.10974 7.47919 7.02153 7.59398C6.57459 8.17507 6.33395 8.88848 6.33761 9.62156C6.34003 10.2136 6.49469 10.79 6.73636 11.3289C7.23057 12.4189 8.04378 13.5728 9.11678 14.6422C9.37536 14.8996 9.62911 15.1581 9.90219 15.3986C11.2355 16.5725 12.8243 17.419 14.5422 17.8709L15.2285 17.976C15.4521 17.9881 15.6756 17.9711 15.9004 17.9603C16.2523 17.9421 16.5959 17.8468 16.9069 17.6811C17.0651 17.5996 17.2196 17.5109 17.3697 17.4153C17.3697 17.4153 17.4217 17.3815 17.5207 17.3066C17.6839 17.1857 17.7842 17.0999 17.9195 16.9586C18.0198 16.8546 18.1068 16.7326 18.1732 16.5936C18.2675 16.3967 18.3617 16.0209 18.4004 15.7079C18.4294 15.4687 18.4209 15.3382 18.4173 15.2572C18.4125 15.1279 18.3049 14.9938 18.1877 14.937L17.4845 14.6216C17.4845 14.6216 16.4332 14.1637 15.7904 13.8713C15.7231 13.8419 15.6511 13.8251 15.5777 13.8217C15.4951 13.8132 15.4115 13.8225 15.3327 13.849C15.254 13.8755 15.1818 13.9185 15.121 13.9752C15.1149 13.9728 15.034 14.0416 14.1604 15.1001C14.1102 15.1675 14.0411 15.2184 13.962 15.2464C13.8828 15.2744 13.797 15.2782 13.7157 15.2572C13.637 15.2361 13.5599 15.2095 13.4849 15.1775C13.3351 15.1146 13.2831 15.0905 13.1804 15.047C12.4869 14.7443 11.8448 14.3355 11.2773 13.835C11.125 13.7021 10.9837 13.5571 10.8387 13.4169C10.3633 12.9617 9.94899 12.4467 9.60615 11.8848L9.53486 11.77C9.48365 11.6928 9.44225 11.6096 9.41161 11.5223C9.36569 11.3446 9.48532 11.2021 9.48532 11.2021C9.48532 11.2021 9.77894 10.8806 9.91549 10.7066C10.0484 10.5375 10.1608 10.3731 10.2333 10.2559C10.3759 10.0264 10.4206 9.79073 10.3457 9.60827C10.0073 8.78177 9.6569 7.9589 9.29682 7.14206C9.22553 6.98015 9.01407 6.86415 8.82194 6.84119C8.75669 6.83394 8.69144 6.82669 8.62619 6.82185C8.46392 6.81379 8.30131 6.81541 8.13924 6.82669L8.38211 6.81702L8.38332 6.81823Z" fill="#26202F"/>
</svg>
