<svg width="27" height="19" viewBox="0 0 27 19" fill="none" xmlns="http://www.w3.org/2000/svg">
<path d="M10.9154 13.3776L17.6191 9.5026L10.9154 5.6276V13.3776ZM25.847 3.26385C26.0149 3.87094 26.1312 4.68469 26.2087 5.71802C26.2991 6.75135 26.3379 7.6426 26.3379 8.4176L26.4154 9.5026C26.4154 12.3314 26.2087 14.4109 25.847 15.7414C25.5241 16.9039 24.775 17.653 23.6124 17.9759C23.0054 18.1439 21.8945 18.2601 20.1895 18.3376C18.5104 18.428 16.9733 18.4668 15.5524 18.4668L13.4987 18.5443C8.08662 18.5443 4.71536 18.3376 3.38495 17.9759C2.22245 17.653 1.47328 16.9039 1.15036 15.7414C0.982448 15.1343 0.866198 14.3205 0.788698 13.2872C0.698281 12.2539 0.659531 11.3626 0.659531 10.5876L0.582031 9.5026C0.582031 6.67385 0.788698 4.59427 1.15036 3.26385C1.47328 2.10135 2.22245 1.35219 3.38495 1.02927C3.99203 0.861354 5.10287 0.745104 6.80787 0.667604C8.48703 0.577187 10.0241 0.538437 11.4449 0.538437L13.4987 0.460938C18.9108 0.460938 22.282 0.667604 23.6124 1.02927C24.775 1.35219 25.5241 2.10135 25.847 3.26385Z" fill="#26202F"/>
</svg>
