<!-- Generated by IcoMoon.io -->
<svg version="1.1" xmlns="http://www.w3.org/2000/svg" width="512" height="512" viewBox="0 0 512 512">
<g id="icomoon-ignore">
</g>
<path d="M36.873 251.774c116.708-50.849 194.532-84.37 233.472-100.567 111.18-46.244 134.282-54.276 149.34-54.541 3.312-0.058 10.717 0.763 15.512 4.654 4.050 3.286 5.166 7.728 5.698 10.842s1.197 10.215 0.669 15.761c-6.025 63.304-32.094 216.926-45.358 287.828-5.611 30-16.661 40.060-27.359 41.044-23.248 2.139-40.904-15.365-63.42-30.125-35.236-23.096-55.141-37.474-89.343-60.014-39.526-26.046-13.904-40.364 8.621-63.762 5.895-6.123 108.33-99.295 110.313-107.746 0.248-1.057 0.478-4.996-1.863-7.078s-5.796-1.369-8.291-0.803c-3.534 0.803-59.824 38.007-168.868 111.615-15.978 10.971-30.448 16.317-43.414 16.036-14.294-0.308-41.79-8.081-62.231-14.726-25.072-8.149-44.998-12.459-43.262-26.3 0.903-7.209 10.831-14.582 29.784-22.118z"></path>
</svg>
