<svg width="0" height="0" class="hidden">
  <symbol version="1.1" xmlns="http://www.w3.org/2000/svg" viewBox="0 0 512 512" id="telegram">
    <path d="M36.873 251.774c116.708-50.849 194.532-84.37 233.472-100.567 111.18-46.244 134.282-54.276 149.34-54.541 3.312-0.058 10.717 0.763 15.512 4.654 4.050 3.286 5.166 7.728 5.698 10.842s1.197 10.215 0.669 15.761c-6.025 63.304-32.094 216.926-45.358 287.828-5.611 30-16.661 40.060-27.359 41.044-23.248 2.139-40.904-15.365-63.42-30.125-35.236-23.096-55.141-37.474-89.343-60.014-39.526-26.046-13.904-40.364 8.621-63.762 5.895-6.123 108.33-99.295 110.313-107.746 0.248-1.057 0.478-4.996-1.863-7.078s-5.796-1.369-8.291-0.803c-3.534 0.803-59.824 38.007-168.868 111.615-15.978 10.971-30.448 16.317-43.414 16.036-14.294-0.308-41.79-8.081-62.231-14.726-25.072-8.149-44.998-12.459-43.262-26.3 0.903-7.209 10.831-14.582 29.784-22.118z"></path>
  </symbol>
  <symbol xmlns="http://www.w3.org/2000/svg" viewBox="0 0 448 512" id="instagram">
    <path d="M224.1 141c-63.6 0-114.9 51.3-114.9 114.9s51.3 114.9 114.9 114.9S339 319.5 339 255.9 287.7 141 224.1 141zm0 189.6c-41.1 0-74.7-33.5-74.7-74.7s33.5-74.7 74.7-74.7 74.7 33.5 74.7 74.7-33.6 74.7-74.7 74.7zm146.4-194.3c0 14.9-12 26.8-26.8 26.8-14.9 0-26.8-12-26.8-26.8s12-26.8 26.8-26.8 26.8 12 26.8 26.8zm76.1 27.2c-1.7-35.9-9.9-67.7-36.2-93.9-26.2-26.2-58-34.4-93.9-36.2-37-2.1-147.9-2.1-184.9 0-35.8 1.7-67.6 9.9-93.9 36.1s-34.4 58-36.2 93.9c-2.1 37-2.1 147.9 0 184.9 1.7 35.9 9.9 67.7 36.2 93.9s58 34.4 93.9 36.2c37 2.1 147.9 2.1 184.9 0 35.9-1.7 67.7-9.9 93.9-36.2 26.2-26.2 34.4-58 36.2-93.9 2.1-37 2.1-147.8 0-184.8zM398.8 388c-7.8 19.6-22.9 34.7-42.6 42.6-29.5 11.7-99.5 9-132.1 9s-102.7 2.6-132.1-9c-19.6-7.8-34.7-22.9-42.6-42.6-11.7-29.5-9-99.5-9-132.1s-2.6-102.7 9-132.1c7.8-19.6 22.9-34.7 42.6-42.6 29.5-11.7 99.5-9 132.1-9s102.7-2.6 132.1 9c19.6 7.8 34.7 22.9 42.6 42.6 11.7 29.5 9 99.5 9 132.1s2.7 102.7-9 132.1z"></path>
  </symbol>
</svg>