<svg width="18" height="14" viewBox="0 0 18 14" fill="none" xmlns="http://www.w3.org/2000/svg">
<path d="M14.494 6.426C13.654 6.426 12.952 6.15 12.388 5.598C11.836 5.034 11.56 4.35 11.56 3.546C11.56 2.742 11.836 2.064 12.388 1.512C12.952 0.947999 13.654 0.665999 14.494 0.665999C15.334 0.665999 16.03 0.947999 16.582 1.512C17.146 2.064 17.428 2.742 17.428 3.546C17.428 4.35 17.152 5.034 16.6 5.598C16.048 6.15 15.346 6.426 14.494 6.426ZM8.32 0.899999H10.39V13.5H8.77L2.83 4.95V13.5H0.76V0.899999H2.38L8.32 9.45V0.899999ZM14.494 4.806C14.866 4.806 15.166 4.686 15.394 4.446C15.622 4.206 15.736 3.906 15.736 3.546C15.736 3.186 15.616 2.886 15.376 2.646C15.148 2.406 14.854 2.286 14.494 2.286C14.134 2.286 13.834 2.406 13.594 2.646C13.366 2.886 13.252 3.186 13.252 3.546C13.252 3.906 13.366 4.206 13.594 4.446C13.834 4.686 14.134 4.806 14.494 4.806ZM11.794 9.342V7.506H17.23V9.342H11.794Z" fill="white"/>
</svg>
