<svg width="20" height="26" viewBox="0 0 20 26" fill="none" xmlns="http://www.w3.org/2000/svg">
<path d="M19.929 17.0102H17.3169L12.5681 21.4099C12.5353 21.4403 12.5353 21.4896 12.5681 21.52L17.3881 25.9855H20L15.1206 21.465L19.929 17.0102Z" fill="white"/>
<path d="M11.9404 25.9855H14.864L9.98463 21.465L14.7927 17.0102H11.8693L7.17821 21.356C7.11328 21.4162 7.11328 21.5137 7.17821 21.5739L11.9404 25.9855Z" fill="white"/>
<path d="M10.357 11.1349L2.68285 4.02537L4.35843 2.47327L12.0325 9.58285L10.357 11.1349Z" fill="white"/>
<path d="M13.242 8.46212L5.56769 1.35254L6.87581 0.141094C7.07887 -0.0470315 7.40791 -0.0470315 7.61097 0.141094L14.5494 6.56892C14.7527 6.75727 14.7527 7.06278 14.5494 7.25113L13.242 8.46212Z" fill="white"/>
<path d="M9.28043 17.2553L7.12504 19.2451V13.6838C7.12504 13.5574 7.07081 13.4362 6.97426 13.3467L0.142813 7.01782C-0.0476044 6.84141 -0.0476044 6.55506 0.142813 6.37842L1.47331 5.14603L9.25101 12.3514C9.40689 12.4958 9.49444 12.6918 9.49444 12.8961V16.7776C9.49444 16.957 9.41759 17.1286 9.28043 17.2553Z" fill="white"/>
<path d="M9.6488 26H7.13179V23.6681L9.6488 26Z" fill="white"/>
</svg>
