<svg width="129" height="23" viewBox="0 0 129 23" fill="none" xmlns="http://www.w3.org/2000/svg">
<path d="M4.50623 7.22414H0V4.57129H12.2731V7.22414H7.76609V18.6479H4.50623V7.22414Z" fill="white"/>
<path d="M14.9508 11.6095C14.9508 7.42667 18.2106 4.3291 22.6556 4.3291C27.1013 4.3291 30.3621 7.4135 30.3621 11.6095C30.3621 15.8069 27.0823 18.89 22.6556 18.89C18.229 18.89 14.9508 15.7977 14.9508 11.6095ZM27.0623 11.6095C27.0623 8.93496 25.1708 7.10473 22.6556 7.10473C20.1405 7.10473 18.249 8.93496 18.249 11.6095C18.249 14.2844 20.1405 16.1153 22.6556 16.1153C25.1708 16.1153 27.0623 14.2844 27.0623 11.6095Z" fill="white"/>
<path d="M47.0428 9.67778C47.0428 12.8158 44.6885 14.7669 40.9262 14.7669H38.0892V18.6548H34.8294V4.57618H40.9262C44.6885 4.57124 47.0428 6.52064 47.0428 9.67778ZM43.7433 9.67778C43.7433 8.12966 42.7374 7.22409 40.7453 7.22409H38.0892V12.1114H40.7453C42.7374 12.1114 43.7433 11.2068 43.7433 9.67778Z" fill="white"/>
<path d="M50.4635 17.2612L51.5697 14.8072C52.7571 15.6722 54.5276 16.276 56.2175 16.276C58.15 16.276 58.9343 15.6321 58.9343 14.7677C58.9343 12.1326 50.7454 13.9431 50.7454 8.71375C50.7454 6.32063 52.6768 4.3291 56.6813 4.3291C58.4518 4.3291 60.263 4.7521 61.5704 5.5757L60.5648 8.0498C59.2561 7.30586 57.9084 6.94771 56.6607 6.94771C54.7292 6.94771 53.9778 7.67223 53.9778 8.55673C53.9778 11.1516 62.1677 9.36092 62.1677 14.53C62.1677 16.8826 60.2156 18.8942 56.1911 18.8942C53.9646 18.89 51.7106 18.227 50.4635 17.2612Z" fill="white"/>
<path d="M77.3252 16.0338V18.6481H66.4195V4.56982H77.064V7.18481H69.6594V10.2412H76.1984V12.7756H69.6594V16.0338H77.3252Z" fill="white"/>
<path d="M111.917 15.8961V18.5104H101.012V4.43213H111.655V7.04712H104.251V10.1035H110.79V12.6379H104.251V15.8961H111.917Z" fill="white"/>
<path d="M125.499 18.5106L122.782 14.5868H119.785V18.508H116.524V4.42969H122.621C126.384 4.42969 128.738 6.37908 128.738 9.53721C128.738 11.6489 127.665 13.1973 125.84 13.9814L129 18.5063L125.499 18.5106ZM122.435 7.08681H119.778V11.9942H122.435C124.426 11.9942 125.433 11.0695 125.433 9.5405C125.438 7.99205 124.433 7.08681 122.435 7.08681Z" fill="white"/>
<path d="M92.8768 2.04222L90.3139 15.5912C90.022 17.137 90.5742 18.5702 92.127 18.5702C93.3122 18.5702 94.9466 17.7183 95.1708 16.5389L97.7524 2.99322C98.0475 1.44081 96.0647 0 94.5048 0C93.3148 0 93.1009 0.856848 92.8768 2.04222Z" fill="#48B798"/>
<path d="M83.802 6.47191L81.2381 20.0212C80.9462 21.5667 81.4987 22.9999 83.0515 22.9999C84.2367 22.9999 85.8708 22.148 86.0959 20.9686L88.6765 7.4229C88.9726 5.8705 86.9892 4.42969 85.4299 4.42969C84.239 4.42969 84.0261 5.28654 83.802 6.47191Z" fill="#48B798"/>
</svg>
