<svg width="160" height="46" viewBox="0 0 160 46" fill="none" xmlns="http://www.w3.org/2000/svg">
<path d="M50.016 37.46C47.5933 37.46 45.738 36.77 44.45 35.39C43.1927 34.01 42.564 32.0627 42.564 29.548V12.252C42.564 9.73733 43.1927 7.79 44.45 6.41C45.738 5.03 47.5933 4.34 50.016 4.34C52.4387 4.34 54.2787 5.03 55.536 6.41C56.824 7.79 57.468 9.73733 57.468 12.252V15.656H52.684V11.93C52.684 9.93667 51.8407 8.94 50.154 8.94C48.4673 8.94 47.624 9.93667 47.624 11.93V29.916C47.624 31.8787 48.4673 32.86 50.154 32.86C51.8407 32.86 52.684 31.8787 52.684 29.916V24.994H57.468V29.548C57.468 32.0627 56.824 34.01 55.536 35.39C54.2787 36.77 52.4387 37.46 50.016 37.46ZM66.5192 37.46C64.0352 37.46 62.1339 36.7547 60.8152 35.344C59.4966 33.9333 58.8372 31.94 58.8372 29.364V12.436C58.8372 9.86 59.4966 7.86667 60.8152 6.456C62.1339 5.04533 64.0352 4.34 66.5192 4.34C69.0032 4.34 70.9046 5.04533 72.2232 6.456C73.5419 7.86667 74.2012 9.86 74.2012 12.436V29.364C74.2012 31.94 73.5419 33.9333 72.2232 35.344C70.9046 36.7547 69.0032 37.46 66.5192 37.46ZM66.5192 32.86C68.2672 32.86 69.1412 31.802 69.1412 29.686V12.114C69.1412 9.998 68.2672 8.94 66.5192 8.94C64.7712 8.94 63.8972 9.998 63.8972 12.114V29.686C63.8972 31.802 64.7712 32.86 66.5192 32.86ZM76.2432 4.8H82.5912L87.5132 24.074H87.6052V4.8H92.1132V37H86.9152L80.8432 13.494H80.7512V37H76.2432V4.8ZM94.494 4.8H100.842L105.764 24.074H105.856V4.8H110.364V37H105.166L99.094 13.494H99.002V37H94.494V4.8ZM112.745 4.8H126.545V9.4H117.805V17.91H124.751V22.51H117.805V32.4H126.545V37H112.745V4.8ZM135.206 37.46C132.783 37.46 130.928 36.77 129.64 35.39C128.383 34.01 127.754 32.0627 127.754 29.548V12.252C127.754 9.73733 128.383 7.79 129.64 6.41C130.928 5.03 132.783 4.34 135.206 4.34C137.629 4.34 139.469 5.03 140.726 6.41C142.014 7.79 142.658 9.73733 142.658 12.252V15.656H137.874V11.93C137.874 9.93667 137.031 8.94 135.344 8.94C133.657 8.94 132.814 9.93667 132.814 11.93V29.916C132.814 31.8787 133.657 32.86 135.344 32.86C137.031 32.86 137.874 31.8787 137.874 29.916V24.994H142.658V29.548C142.658 32.0627 142.014 34.01 140.726 35.39C139.469 36.77 137.629 37.46 135.206 37.46ZM148.261 9.4H142.971V4.8H158.611V9.4H153.321V37H148.261V9.4Z" fill="#334155"/>
<path d="M21.896 4.84904L17.139 30.3853C16.5973 33.2987 17.6221 36 20.5043 36C22.7041 36 25.7377 34.3944 26.1537 32.1714L30.9453 6.64142C31.493 3.71555 27.813 1 24.9176 1C22.7088 1 22.312 2.61493 21.896 4.84904Z" fill="#48B798"/>
<path d="M4.89763 13.849L0.138982 39.3859C-0.402724 42.2987 0.622637 45 3.50475 45C5.7045 45 8.73746 43.3944 9.15526 41.1714L13.945 15.6414C14.4945 12.7156 10.8133 10 7.91921 10C5.70869 10 5.31363 11.6149 4.89763 13.849Z" fill="#48B798"/>
</svg>
