<svg width="189" height="119" viewBox="0 0 189 119" fill="none" xmlns="http://www.w3.org/2000/svg">
<path d="M142.157 20.7833V24.4153C142.393 24.222 142.544 24.107 142.68 23.9816C145.336 21.5568 148.489 20.313 152.044 19.989C154.83 19.7329 157.57 19.9106 160.189 20.9506C164.675 22.7221 167.31 26.1242 168.549 30.6916C169.004 32.3691 169.176 34.0832 169.176 35.8182C169.176 44.1378 169.171 52.4521 169.176 60.7717C169.182 65.4698 172.319 69.9222 176.747 71.4847C177.745 71.8349 178.802 72.0073 179.899 72.2739V82.2919C178.64 82.1926 177.385 82.1926 176.161 81.9835C168.476 80.6457 163.133 76.256 159.855 69.2794C158.684 66.7815 158.302 64.0901 158.307 61.3361C158.318 53.351 158.328 45.3658 158.297 37.3755C158.286 34.6633 157.303 32.3482 154.935 30.8536C150.721 28.1936 143.82 30.0488 143.13 36.4244C143.077 36.9156 143.051 37.4121 143.051 37.9085C143.051 45.3815 143.051 52.8493 143.051 60.3223C143.051 60.8379 142.788 61.0957 142.262 61.0957C139.094 61.0957 135.925 61.0853 132.757 61.1062C132.229 61.1062 132.067 60.9494 132.067 60.4164C132.077 47.4248 132.077 34.4333 132.067 21.4418C132.067 20.9035 132.229 20.7677 132.752 20.7729C135.68 20.799 138.607 20.7833 141.54 20.7833H142.163H142.157Z" fill="white"/>
<path d="M7.06586 47.7333C8.19514 48.6583 9.25646 49.6251 10.4223 50.456C12.8482 52.1962 15.5773 53.1107 18.5731 53.1055C19.7912 53.1055 20.9937 52.9174 22.0864 52.3059C23.3412 51.6005 23.9058 50.3358 23.5555 48.998C23.3621 48.2663 22.8863 47.7594 22.2485 47.4407C20.8892 46.7561 19.5089 46.1028 18.1182 45.4757C15.8753 44.4619 13.5854 43.5422 11.3791 42.4604C9.53878 41.5616 7.86577 40.3753 6.50121 38.8075C4.67135 36.7067 4.0492 34.2035 4.12762 31.4913C4.21127 28.6536 5.08961 26.1139 7.12337 24.0601C8.93232 22.2363 11.1386 21.0761 13.6272 20.517C18.892 19.3359 24.0104 19.6861 28.8464 22.252C30.5822 23.1717 32.0931 24.405 33.4629 25.9101C31.6331 28.1363 29.8084 30.3573 27.942 32.6253C27.7485 32.4581 27.6021 32.3274 27.4505 32.1968C24.8469 29.9392 21.8668 28.6746 18.3796 28.8209C17.6372 28.8522 16.8844 29.0195 16.1733 29.2546C15.2532 29.5577 14.6781 30.2475 14.5526 31.2352C14.4167 32.2909 14.7251 33.2002 15.6714 33.7489C16.6386 34.308 17.6529 34.7888 18.6724 35.2487C21.5479 36.5552 24.4705 37.7676 27.3146 39.142C29.0399 39.9781 30.5822 41.1383 31.8317 42.6276C33.5779 44.718 34.1164 47.1741 34.0276 49.8341C33.8655 54.5531 31.5233 57.861 27.4401 60.0402C25.009 61.3415 22.3896 61.9111 19.6553 62.0365C16.1629 62.1933 12.7541 61.817 9.49173 60.4792C6.42279 59.2198 3.90804 57.2392 1.86382 54.6471C1.68083 54.412 1.63378 54.2447 1.84814 53.9835C3.57343 51.9245 5.28305 49.8498 6.99789 47.7856C7.02926 47.7438 7.08154 47.7229 7.07109 47.7333H7.06586Z" fill="white"/>
<path d="M58.4373 0V0.851817C58.4373 14.6324 58.4373 28.4131 58.4373 42.1937C58.4373 46.2437 61.3442 49.4002 65.3803 49.7033C65.8613 49.7399 65.7881 50.0221 65.7881 50.3042C65.7881 53.1733 65.7881 56.0423 65.7881 58.9165C65.7881 59.4338 65.7568 59.9512 65.7986 60.4633C65.8352 60.9912 65.6104 61.127 65.1242 61.1061C61.9193 60.9703 58.9183 60.1289 56.184 58.4514C51.1754 55.3733 48.1953 50.9052 47.2386 45.115C47.0869 44.1952 47.0451 43.2493 47.0451 42.3139C47.0347 28.4967 47.0347 14.6795 47.0347 0.862269C47.0347 0.294391 47.3083 0.0104517 47.8555 0.0104517C51.1336 0.0104517 54.4116 0.0104517 57.6897 0.0104517C57.9093 0.0104517 58.1289 0.0104517 58.4321 0.0104517L58.4373 0Z" fill="white"/>
<path d="M1.84972 106.919L6.659 102.533C7.50458 103.96 10.5698 106.549 14.4807 106.549C18.2858 106.549 20.5583 103.96 20.5583 100.313V99.7845C19.5014 100.683 17.8102 101.634 15.2734 101.634C7.98023 101.634 1.95542 95.7679 1.95542 88.739C1.95542 81.6043 7.98023 75.7909 15.2734 75.7909C17.5459 75.7909 19.1843 76.4251 20.6112 77.2179V76.1609H28.0629V98.7803C28.0629 104.647 27.0059 107.448 23.6764 110.09C21.9324 111.57 18.1801 112.785 15.2734 112.785C12.3139 112.785 9.19576 111.94 7.34604 111.041C5.02067 109.879 2.27252 107.448 1.84972 106.919ZM15.2734 82.3442C11.8911 82.3442 9.19576 85.1452 9.19576 88.739C9.19576 92.2799 11.8911 95.1337 15.2734 95.1337C17.5459 95.1337 19.2371 94.0768 20.3998 92.0156L20.4526 85.4095C19.2371 83.4541 17.3874 82.3442 15.2734 82.3442ZM54.194 82.2914L53.0313 82.08C52.4499 81.9214 51.8157 81.8686 51.1815 81.8686C48.6976 81.8686 47.2179 83.137 46.6365 85.1981L46.5837 101H39.1848L39.2376 76.2137H46.4251L46.5308 77.5878C47.6407 76.7422 49.4375 75.7381 51.8157 75.7381C53.137 75.7381 54.9867 76.0023 55.3566 76.3723L54.194 82.2914ZM61.7117 88.4747C61.7117 81.4458 67.6837 75.5795 75.0297 75.5795C82.3229 75.5795 88.2949 81.4458 88.2949 88.4747C88.2949 95.6094 82.3229 101.476 75.0297 101.476C67.6837 101.476 61.7117 95.6094 61.7117 88.4747ZM75.0297 81.9743C71.5945 81.9743 68.8464 84.881 68.8464 88.5276C68.8464 92.1213 71.5945 95.028 75.0297 95.028C78.4121 95.028 81.1602 92.1213 81.1602 88.5276C81.1602 84.881 78.4121 81.9743 75.0297 81.9743ZM113.464 88.369V76.0552H120.863V88.5804C120.863 93.3897 119.912 95.9793 117.375 98.4632C115.208 100.63 112.618 101.581 108.813 101.581C105.008 101.581 102.418 100.63 100.252 98.4632C97.7148 95.9793 96.7636 93.3897 96.7636 88.5804V76.0552H104.162V88.369C104.162 92.227 105.272 94.8695 108.813 94.8695C112.354 94.8695 113.464 92.227 113.464 88.369ZM139.45 76.2137V77.2179C140.877 76.4251 142.515 75.7909 144.788 75.7909C152.24 75.7909 158.106 81.0759 158.106 88.7918C158.106 96.455 152.24 101.634 144.788 101.634C142.462 101.634 140.718 100.841 139.503 99.9959V114.477H131.998L131.945 76.2137H139.45ZM139.609 85.4095L139.661 92.0685C140.771 94.0239 142.621 95.1337 144.788 95.1337C148.17 95.1337 150.865 92.3327 150.865 88.7918C150.865 85.1981 148.17 82.3442 144.788 82.3442C142.674 82.3442 140.824 83.4541 139.609 85.4095Z" fill="white"/>
<path d="M83.3615 40.9299C85.0189 40.9299 86.6762 40.9404 88.3335 40.9247C88.7623 40.9247 88.9348 41.0136 88.9609 41.4996C89.1335 44.8807 90.4091 47.7393 93.1487 49.8348C98.2462 53.7333 107.615 52.2544 109.602 43.7153C110.532 39.7123 109.753 35.9967 106.867 32.903C105.043 30.9433 102.758 29.9086 100.076 29.7988C99.6316 29.7832 99.5114 29.6525 99.5166 29.2292C99.5271 26.2661 99.5323 23.3031 99.5166 20.34C99.5166 19.854 99.7101 19.7704 100.139 19.7756C105.869 19.8331 110.736 21.9391 114.83 25.8951C117.768 28.738 119.917 32.0669 120.691 36.1169C122.118 43.5847 120.482 50.1902 114.914 55.6199C111.965 58.4993 108.567 60.6158 104.499 61.3997C96.7405 62.8943 89.7556 61.4206 83.9942 55.693C80.8416 52.5575 78.7503 48.8524 78.0706 44.4261C77.9242 43.4645 77.9086 42.4873 77.8145 41.5152C77.7674 41.0554 77.9295 40.909 78.3948 40.9143C80.0521 40.9404 81.7094 40.9247 83.3668 40.9247L83.3615 40.9299Z" fill="white"/>
</svg>
