<svg width="0" height="0" class="hidden">
    <symbol  xmlns="http://www.w3.org/2000/svg" viewBox="0 0 16 16" id="inst">
        <path d="M8.00179 3.8978C5.73162 3.8978 3.9005 5.72933 3.9005 8C3.9005 10.2707 5.73162 12.1022 8.00179 12.1022C10.2719 12.1022 12.1031 10.2707 12.1031 8C12.1031 5.72933 10.2719 3.8978 8.00179 3.8978ZM8.00179 10.667C6.53475 10.667 5.33542 9.47094 5.33542 8C5.33542 6.52906 6.53118 5.33304 8.00179 5.33304C9.47239 5.33304 10.6682 6.52906 10.6682 8C10.6682 9.47094 9.46882 10.667 8.00179 10.667ZM13.2274 3.73C13.2274 4.26197 12.7991 4.68682 12.2708 4.68682C11.739 4.68682 11.3142 4.2584 11.3142 3.73C11.3142 3.20161 11.7426 2.77318 12.2708 2.77318C12.7991 2.77318 13.2274 3.20161 13.2274 3.73ZM15.9438 4.7011C15.8831 3.41939 15.5904 2.28406 14.6516 1.34866C13.7165 0.413254 12.5814 0.120495 11.2999 0.0562312C9.97925 -0.0187437 6.02075 -0.0187437 4.70006 0.0562312C3.4222 0.116925 2.28712 0.409684 1.34835 1.34509C0.409593 2.28049 0.120468 3.41582 0.0562186 4.69753C-0.0187395 6.01852 -0.0187395 9.97791 0.0562186 11.2989C0.116899 12.5806 0.409593 13.7159 1.34835 14.6513C2.28712 15.5867 3.41863 15.8795 4.70006 15.9438C6.02075 16.0187 9.97925 16.0187 11.2999 15.9438C12.5814 15.8831 13.7165 15.5903 14.6516 14.6513C15.5868 13.7159 15.8795 12.5806 15.9438 11.2989C16.0187 9.97791 16.0187 6.02209 15.9438 4.7011ZM14.2376 12.7163C13.9592 13.416 13.4202 13.9551 12.717 14.2372C11.664 14.6549 9.16542 14.5585 8.00179 14.5585C6.83815 14.5585 4.33597 14.6513 3.28656 14.2372C2.58695 13.9587 2.04796 13.4196 1.76598 12.7163C1.34835 11.6631 1.44473 9.1639 1.44473 8C1.44473 6.8361 1.35192 4.33337 1.76598 3.28372C2.04439 2.58396 2.58338 2.04485 3.28656 1.7628C4.33954 1.34509 6.83815 1.44148 8.00179 1.44148C9.16542 1.44148 11.6676 1.34866 12.717 1.7628C13.4166 2.04128 13.9556 2.58039 14.2376 3.28372C14.6552 4.33694 14.5588 6.8361 14.5588 8C14.5588 9.1639 14.6552 11.6666 14.2376 12.7163Z" ></path>
    </symbol>
    <symbol  xmlns="http://www.w3.org/2000/svg" viewBox="0 0 16 16" id="link">
        <path d="M13.7143 0C14.975 0 16 1.025 16 2.28571V13.7143C16 14.975 14.975 16 13.7143 16H2.28571C1.025 16 0 14.975 0 13.7143V2.28571C0 1.025 1.025 0 2.28571 0H13.7143ZM5.71429 4C5.23929 4 4.85714 4.38214 4.85714 4.85714C4.85714 5.33214 5.23929 5.71429 5.71429 5.71429H9.075L4.25 10.5357C3.91429 10.8714 3.91429 11.4143 4.25 11.7464C4.58571 12.0786 5.12857 12.0821 5.46071 11.7464L10.2821 6.925L10.2857 10.5714C10.2857 11.0464 10.6679 11.4286 11.1429 11.4286C11.6179 11.4286 12 11.0464 12 10.5714V4.85714C12 4.38214 11.6179 4 11.1429 4H5.71429Z" ></path>
    </symbol>
    <symbol  xmlns="http://www.w3.org/2000/svg" viewBox="0 0 16 16" id="mail">
        <path d="M2.28571 0C1.025 0 0 1.025 0 2.28571V13.7143C0 14.975 1.025 16 2.28571 16H13.7143C14.975 16 16 14.975 16 13.7143V2.28571C16 1.025 14.975 0 13.7143 0H2.28571ZM7.78571 8.56071L2.29286 5.01429C2.35714 4.44286 2.83929 4 3.42857 4H12.5714C13.1607 4 13.6429 4.44286 13.7071 5.01429L8.21429 8.56071C8.15 8.60357 8.075 8.625 8 8.625C7.925 8.625 7.85 8.60357 7.78571 8.56071ZM8.83571 9.52143L13.7143 6.37143V10.8571C13.7143 11.4893 13.2036 12 12.5714 12H3.42857C2.79643 12 2.28571 11.4893 2.28571 10.8571V6.37143L7.16429 9.52143C7.41429 9.68214 7.70357 9.76786 8 9.76786C8.29643 9.76786 8.58571 9.68214 8.83571 9.52143Z" ></path>
    </symbol>
    <symbol  xmlns="http://www.w3.org/2000/svg" viewBox="0 0 16 16" id="phone">
        <path d="M2.28571 0C1.025 0 0 1.025 0 2.28571V13.7143C0 14.975 1.025 16 2.28571 16H13.7143C14.975 16 16 14.975 16 13.7143V2.28571C16 1.025 14.975 0 13.7143 0H2.28571ZM5.525 3.45357C5.87143 3.36071 6.23571 3.53571 6.37143 3.86786L7.08571 5.58214C7.20714 5.875 7.12143 6.21071 6.87857 6.41071L6 7.13214C6.59286 8.38929 7.61071 9.40714 8.86786 10L9.58929 9.11786C9.78929 8.875 10.125 8.78929 10.4179 8.91072L12.1321 9.625C12.4643 9.76429 12.6393 10.125 12.5464 10.4714L12.1179 12.0429C12.0321 12.3571 11.75 12.5714 11.4286 12.5714C7.01071 12.5714 3.42857 8.98929 3.42857 4.57143C3.42857 4.25 3.64286 3.96786 3.95357 3.88214L5.525 3.45357Z" ></path>
    </symbol>
    <symbol xmlns="http://www.w3.org/2000/svg" viewBox="0 0 22 20" id="tg">
        <path d="M21.8107 2.49814L18.5099 18.0645C18.2609 19.1632 17.6115 19.4366 16.6887 18.919L11.6594 15.213L9.2326 17.547C8.96405 17.8155 8.73944 18.0401 8.22186 18.0401L8.58319 12.9181L17.9045 4.49521C18.3097 4.13388 17.8166 3.93368 17.2746 4.29501L5.75116 11.5509L0.790218 9.99814C-0.288883 9.66122 -0.308415 8.91904 1.01483 8.40146L20.4191 0.925871C21.3176 0.588957 22.1037 1.12607 21.8107 2.49814Z" ></path>
    </symbol>
    <symbol  xmlns="http://www.w3.org/2000/svg" viewBox="0 0 23 22" id="wa">
        <path d="M19.4717 3.24121C17.4258 1.19043 14.7012 0.0625 11.8057 0.0625C5.8291 0.0625 0.96582 4.92578 0.96582 10.9023C0.96582 12.8115 1.46387 14.6768 2.41113 16.3223L0.873047 21.9375L6.62012 20.4287C8.20215 21.293 9.98438 21.7471 11.8008 21.7471H11.8057C17.7773 21.7471 22.748 16.8838 22.748 10.9072C22.748 8.01172 21.5176 5.29199 19.4717 3.24121ZM11.8057 19.9209C10.1846 19.9209 8.59766 19.4863 7.21582 18.666L6.88867 18.4707L3.48047 19.3643L4.38867 16.0391L4.17383 15.6973C3.27051 14.2617 2.79688 12.6064 2.79688 10.9023C2.79688 5.93652 6.83984 1.89355 11.8105 1.89355C14.2178 1.89355 16.4785 2.83105 18.1777 4.53516C19.877 6.23926 20.9219 8.5 20.917 10.9072C20.917 15.8779 16.7715 19.9209 11.8057 19.9209ZM16.7471 13.1729C16.4785 13.0361 15.1455 12.3818 14.8965 12.2939C14.6475 12.2012 14.4668 12.1572 14.2861 12.4307C14.1055 12.7041 13.5879 13.3096 13.4268 13.4951C13.2705 13.6758 13.1094 13.7002 12.8408 13.5635C11.249 12.7676 10.2041 12.1426 9.1543 10.3408C8.87598 9.8623 9.43262 9.89648 9.9502 8.86133C10.0381 8.68066 9.99414 8.52441 9.92578 8.3877C9.85742 8.25098 9.31543 6.91797 9.09082 6.37598C8.87109 5.84863 8.64648 5.92188 8.48047 5.91211C8.32422 5.90234 8.14355 5.90234 7.96289 5.90234C7.78223 5.90234 7.48926 5.9707 7.24023 6.23926C6.99121 6.5127 6.29297 7.16699 6.29297 8.5C6.29297 9.83301 7.26465 11.1221 7.39648 11.3027C7.5332 11.4834 9.30566 14.2178 12.0254 15.3945C13.7441 16.1367 14.418 16.2002 15.2773 16.0732C15.7998 15.9951 16.8789 15.4189 17.1035 14.7842C17.3281 14.1494 17.3281 13.6074 17.2598 13.4951C17.1963 13.373 17.0156 13.3047 16.7471 13.1729Z" ></path>
    </symbol>
    <symbol xmlns="http://www.w3.org/2000/svg" viewBox="0 0 26 26" id="close">
        <path d="M3.71429 0C1.66562 0 0 1.66562 0 3.71429V22.2857C0 24.3344 1.66562 26 3.71429 26H22.2857C24.3344 26 26 24.3344 26 22.2857V3.71429C26 1.66562 24.3344 0 22.2857 0H3.71429ZM8.29911 8.29911C8.84464 7.75357 9.72678 7.75357 10.2665 8.29911L12.9942 11.0268L15.7219 8.29911C16.2674 7.75357 17.1496 7.75357 17.6893 8.29911C18.229 8.84464 18.2348 9.72678 17.6893 10.2665L14.9616 12.9942L17.6893 15.7219C18.2348 16.2674 18.2348 17.1496 17.6893 17.6893C17.1437 18.229 16.2616 18.2348 15.7219 17.6893L12.9942 14.9616L10.2665 17.6893C9.72098 18.2348 8.83884 18.2348 8.29911 17.6893C7.75937 17.1437 7.75357 16.2616 8.29911 15.7219L11.0268 12.9942L8.29911 10.2665C7.75357 9.72098 7.75357 8.83884 8.29911 8.29911Z"></path>
    </symbol>
    <symbol xmlns="http://www.w3.org/2000/svg" viewBox="0 0 512 512" id="chevron-up">
        <path d="M233.4 105.4c12.5-12.5 32.8-12.5 45.3 0l192 192c12.5 12.5 12.5 32.8 0 45.3s-32.8 12.5-45.3 0L256 173.3 86.6 342.6c-12.5 12.5-32.8 12.5-45.3 0s-12.5-32.8 0-45.3l192-192z"></path>
    </symbol>
</svg>