<svg width="34" height="39" viewBox="0 0 34 39" fill="none" xmlns="http://www.w3.org/2000/svg">
<path fill-rule="evenodd" clip-rule="evenodd" d="M5.7487 16.4335V12.6667C5.7487 5.83223 10.7855 0.291748 16.9987 0.291748C23.2119 0.291748 28.2487 5.83223 28.2487 12.6667V16.4335C30.1067 16.5862 31.3165 16.9714 32.2009 17.9444C33.6654 19.5553 33.6654 22.148 33.6654 27.3334C33.6654 32.5188 33.6654 35.1115 32.2009 36.7225C30.7364 38.3334 28.3794 38.3334 23.6654 38.3334H10.332C5.61798 38.3334 3.26096 38.3334 1.7965 36.7225C0.332031 35.1115 0.332031 32.5188 0.332031 27.3334C0.332031 22.148 0.332031 19.5553 1.7965 17.9444C2.68088 16.9714 3.89078 16.5862 5.7487 16.4335ZM8.2487 12.6667C8.2487 7.35102 12.1662 3.04175 16.9987 3.04175C21.8312 3.04175 25.7487 7.35102 25.7487 12.6667V16.34C25.1104 16.3334 24.4179 16.3334 23.6654 16.3334H10.332C9.57951 16.3334 8.88705 16.3334 8.2487 16.34V12.6667Z" fill="white"/>
</svg>
