<svg width="95" height="21" viewBox="0 0 95 21" fill="none" xmlns="http://www.w3.org/2000/svg">
<g clip-path="url(#clip0_5563_2515)">
<path d="M16.2722 0.0648148H5.40156C2.4307 0.0648148 0 2.39815 0 5.25V15.6852C0 18.537 2.4307 20.8704 5.40156 20.8704H16.2722C19.2431 20.8704 21.6738 18.537 21.6738 15.6852V5.25C21.7413 2.39815 19.3106 0.0648148 16.2722 0.0648148ZM17.4876 15.6852C17.4876 16.2685 16.9474 16.787 16.3397 16.787H5.40156C4.79389 16.787 4.25373 16.2685 4.25373 15.6852V5.25C4.25373 4.66667 4.79389 4.14815 5.40156 4.14815H16.2722C16.8799 4.14815 17.42 4.66667 17.42 5.25V15.6852H17.4876Z" fill="#E10600"/>
<path d="M40.7143 0.0648148H24.8472C24.6446 0.0648148 24.4421 0.259259 24.4421 0.453704V20.6111C24.4421 20.8056 24.6446 21 24.8472 21H28.3582C28.5608 21 28.7633 20.8056 28.7633 20.6111V12.5093H40.7818C41.3895 12.5093 41.9296 13.0278 41.9296 13.6111V20.5463C41.9296 20.7407 42.1322 20.9352 42.3348 20.9352H45.8458C46.0483 20.9352 46.2509 20.7407 46.2509 20.5463V13.6111C46.2509 12.4444 45.2381 11.3426 44.5629 10.4352C45.2381 9.52778 46.2509 8.42592 46.2509 7.25926V5.25C46.1834 2.39815 43.7527 0.0648148 40.7143 0.0648148ZM28.6958 4.14815H40.7143C41.322 4.14815 41.8621 4.66667 41.8621 5.25V7.32407C41.8621 7.90741 41.322 8.42592 40.7143 8.42592H28.6958V4.14815Z" fill="#E10600"/>
<path d="M65.1564 0.0648148H49.2893C49.0867 0.0648148 48.8842 0.259259 48.8842 0.453704V20.5463C48.8842 20.7407 49.0867 20.9352 49.2893 20.9352H65.2239C68.1947 20.9352 70.6255 18.6018 70.6255 15.75V13.6111C70.6255 12.4444 69.6126 11.3426 68.9375 10.4352C69.6126 9.52777 70.6255 8.42592 70.6255 7.25926V5.25C70.6255 2.39815 68.1947 0.0648148 65.1564 0.0648148ZM65.1564 4.14815C65.764 4.14815 66.3042 4.66667 66.3042 5.25V7.32407C66.3042 7.9074 65.764 8.42592 65.1564 8.42592H53.1379V4.14815H65.1564ZM66.3717 15.6852C66.3717 16.2685 65.8316 16.787 65.2239 16.787H53.1379V12.5093H65.1564C65.764 12.5093 66.3042 13.0278 66.3042 13.6111V15.6852H66.3717Z" fill="#E10600"/>
<path d="M78.7278 16.787C78.1201 16.787 77.58 16.2685 77.58 15.6852V0.388889C77.58 0.194444 77.3774 0 77.1748 0H73.6638C73.4613 0 73.2587 0.194444 73.2587 0.388889V15.6852C73.2587 18.537 75.6894 20.8704 78.6603 20.8704H94.5949C94.7974 20.8704 95 20.6759 95 20.4815V17.1111C95 16.9167 94.7974 16.7222 94.5949 16.7222H78.7278V16.787Z" fill="#E10600"/>
</g>
<defs>
<clipPath id="clip0_5563_2515">
<rect width="95" height="21" fill="white"/>
</clipPath>
</defs>
</svg>
