<svg width="16" height="17" viewBox="0 0 16 17" fill="none" xmlns="http://www.w3.org/2000/svg">
<g id="shopping-bag" clip-path="url(#clip0_619_22235)">
<path id="Vector" d="M4 0.833252L2 3.49992V12.8333C2 13.1869 2.14048 13.526 2.39052 13.7761C2.64057 14.0261 2.97971 14.1666 3.33333 14.1666H12.6667C13.0203 14.1666 13.3594 14.0261 13.6095 13.7761C13.8595 13.526 14 13.1869 14 12.8333V3.49992L12 0.833252H4Z" stroke="white" stroke-linecap="round" stroke-linejoin="round"/>
<path id="Vector_2" d="M2 3.5H14" stroke-linecap="round" stroke-linejoin="round"/>
<path id="Vector_3" d="M10.6663 6.16675C10.6663 6.87399 10.3854 7.55227 9.88529 8.05237C9.3852 8.55246 8.70692 8.83341 7.99967 8.83341C7.29243 8.83341 6.61415 8.55246 6.11406 8.05237C5.61396 7.55227 5.33301 6.87399 5.33301 6.16675" stroke="white" stroke-linecap="round" stroke-linejoin="round"/>
</g>
<defs>
<clipPath id="clip0_619_22235">
<rect width="16" height="16" fill="white" transform="translate(0 0.5)"/>
</clipPath>
</defs>
</svg>
