<svg width="14" height="15" viewBox="0 0 14 15" fill="none" xmlns="http://www.w3.org/2000/svg">
<path d="M3 0.833252L1 3.49992V12.8333C1 13.1869 1.14048 13.526 1.39052 13.7761C1.64057 14.0261 1.97971 14.1666 2.33333 14.1666H11.6667C12.0203 14.1666 12.3594 14.0261 12.6095 13.7761C12.8595 13.526 13 13.1869 13 12.8333V3.49992L11 0.833252H3Z" stroke="white" stroke-linecap="round" stroke-linejoin="round"/>
<path d="M1 3.5H13" stroke="white" stroke-linecap="round" stroke-linejoin="round"/>
<path d="M9.66634 6.16675C9.66634 6.87399 9.38539 7.55227 8.88529 8.05237C8.3852 8.55246 7.70692 8.83341 6.99967 8.83341C6.29243 8.83341 5.61415 8.55246 5.11406 8.05237C4.61396 7.55227 4.33301 6.87399 4.33301 6.16675" stroke="white" stroke-linecap="round" stroke-linejoin="round"/>
</svg>
