<svg width="0" height="0" class="hidden">
  <symbol xmlns="http://www.w3.org/2000/svg" viewBox="0 0 1862 568" id="logo">
    <path fill-rule="evenodd" clip-rule="evenodd" d="M758.471 197.544C758.471 174.299 751.044 154.17 736.191 137.159C735.307 136.179 735.749 134.665 736.987 134.309L802.852 116.318C804.002 116.051 805.062 116.852 805.062 118.01V388.32C805.062 420.383 800.288 447.102 790.652 468.389C781.015 489.675 768.638 506.953 753.431 520.313C738.225 533.673 720.985 543.648 701.711 550.328C682.438 557.007 663.341 561.55 644.333 564.043C625.325 566.537 607.113 567.784 589.696 567.784H549.558C548.32 567.784 547.436 566.448 547.967 565.29L563.615 529.308C563.969 528.418 564.941 528.062 565.826 528.329C576.081 532.247 586.513 535.543 597.211 538.393C606.759 540.887 617.457 543.202 629.481 545.251C641.504 547.299 653.44 548.368 665.463 548.368C688.627 548.368 706.574 543.915 719.128 534.919C731.771 525.924 740.965 513.9 746.712 498.67C752.459 483.44 755.907 465.717 756.968 445.499C758.029 425.281 758.559 403.728 758.559 380.749V197.544H758.471ZM777.125 73.7451L753.873 39.6336C749.63 33.3991 748.215 25.3833 750.956 18.4363C752.193 15.1409 754.05 12.2018 756.349 9.35174C761.477 3.11725 768.461 0 777.125 0C785.789 0 792.774 3.11725 797.901 9.35174C800.2 12.1127 801.968 15.1409 803.294 18.4363C806.035 25.4724 804.62 33.4881 800.377 39.6336L777.125 73.7451ZM351.874 393.307C356.471 404.173 363.455 412.902 373.004 419.581H373.092C382.64 426.261 393.161 429.557 404.743 429.557V430.18H260.723V429.557C266.912 429.557 272.393 428.132 277.167 425.46C281.853 422.699 285.831 419.136 288.926 414.505C292.02 409.963 294.054 404.797 294.849 399.186C295.645 393.575 295.026 387.875 292.993 381.996L271.863 330.695L270.713 327.578H81.3395L58.2645 380.126C54.5513 389.656 54.2861 399.186 57.6456 408.537C61.0052 417.889 67.1939 424.925 76.3001 429.468V430.091H0.0908203V429.468C12.4682 424.035 22.9006 415.93 31.3879 405.064C39.8753 394.198 46.7712 382.353 52.1642 369.438L66.3982 335.06L98.6678 258.821L172.578 83.0969L154.631 28.3225C154.631 28.1443 154.808 27.9662 154.808 27.9662L200.693 5.78923C200.958 5.70016 201.312 6.05642 201.312 6.05642L346.304 378.256L351.874 393.307ZM254.888 284.471L179.386 93.7846L107.42 264.432L98.8446 284.471H254.888ZM94.8662 293.823L84.4338 318.226H268.061L266.823 315.109L258.513 293.823H94.8662ZM607.466 430.18H728.057L728.234 430.091V429.467C717.89 428.22 709.579 424.124 703.391 416.998L701.534 414.505C694.903 406.578 691.455 397.404 691.013 386.984V254.456C690.66 235.664 689.156 217.762 686.681 200.662C684.206 183.65 679.166 168.42 671.74 155.061C664.225 141.701 653.527 131.102 639.647 123.176C625.767 115.338 606.935 111.33 583.33 111.33C569.626 111.33 557.691 113.824 547.524 118.812C537.357 123.799 528.604 130.123 521.355 137.871C514.017 145.62 507.916 153.903 502.965 162.898C498.014 171.805 494.036 180.266 491.03 188.193V118.01C491.03 116.852 489.969 116.051 488.82 116.318L422.512 134.309C421.186 134.576 420.833 136.179 421.717 137.159C428.966 144.996 434.359 153.903 437.984 163.789C441.963 174.655 443.908 185.877 443.908 197.544V386.36C443.908 397.226 440.636 406.578 434.006 414.505L432.149 416.998C425.96 424.034 417.65 428.22 407.306 429.467V430.091H527.897V429.467C517.907 428.22 509.861 424.124 503.584 416.998L501.109 414.505C494.478 406.578 491.118 397.404 491.118 386.984V246.886C491.118 236.911 492.71 224.62 495.804 210.013C498.899 195.496 504.026 181.246 511.276 167.53C518.437 153.814 527.72 142.146 538.86 132.527C549.999 122.998 563.615 118.188 579.794 118.188C595.088 118.188 607.024 122.552 615.511 131.281C623.998 140.098 630.276 151.676 634.431 166.016C638.498 180.444 641.062 196.921 641.857 215.446C642.653 233.972 643.272 252.853 643.714 272.002V386.449C643.714 397.315 640.443 406.667 633.9 414.594L631.425 417.087C625.236 424.124 617.279 428.31 607.466 429.556V430.18ZM1143.23 236.376V243.234L1143.14 243.412L1078.6 262.205L891.172 319.74C894.532 328.469 898.334 336.93 902.666 345.035C906.998 353.139 912.302 360.71 918.491 367.835L930.869 380.304C942.45 390.724 955.888 398.918 971.183 404.975C986.478 411.031 1004.07 414.059 1023.96 414.059C1041.29 414.059 1056.59 411.476 1069.85 406.222C1083.11 401.056 1094.25 395.267 1103.36 389.032C1114.14 381.551 1123.25 373.179 1130.67 364.005L1135.63 368.369C1126.52 380.838 1115.11 392.149 1101.5 402.125C1089.92 410.408 1075.68 418.067 1058.71 424.925C1041.73 431.783 1021.49 435.256 997.883 435.256C975.516 435.256 954.651 430.981 935.201 422.431C915.75 413.881 898.776 402.303 884.276 387.696C869.777 373.09 858.461 355.989 850.15 336.395C841.928 316.801 837.773 295.782 837.773 273.249C837.773 250.716 841.84 229.696 850.15 210.102C858.372 190.508 869.777 173.408 884.276 158.801C898.776 144.195 915.75 132.616 935.201 124.066C954.651 115.516 975.516 111.241 997.883 111.241C1015.3 111.241 1030.86 113.646 1044.48 118.455C1058.09 123.265 1069.94 129.766 1079.84 138.138L1081.08 139.385C1087.71 144.818 1093.54 150.696 1098.49 156.931C1107.6 168.153 1114.05 179.019 1117.77 189.439C1121.48 199.86 1124.13 208.855 1125.81 216.337C1127.49 223.907 1129.26 229.518 1131.12 233.259C1132.97 237 1137.04 238.068 1143.23 236.376ZM897.184 183.472C887.813 202.443 882.42 223.462 881.005 246.351V246.173C880.121 260.424 880.917 274.318 883.127 287.855L1082.93 227.114C1082.84 222.749 1082.58 218.207 1082.14 213.398C1080.72 197.811 1076.74 183.027 1070.38 169.044C1063.93 155.061 1054.82 143.215 1043.06 133.418C1031.3 123.621 1016.27 118.722 998.06 118.722C973.57 118.722 953.059 124.779 936.262 136.892C919.552 149.004 906.467 164.501 897.184 183.472ZM884.188 294.179C885.426 300.413 886.929 306.559 888.785 312.615H888.874L1081.87 253.833C1082.76 247.776 1083.11 241.008 1083.11 233.704L884.188 294.179ZM1862 243.234V236.376C1855.81 238.068 1851.74 237 1849.89 233.259C1848.03 229.518 1846.26 223.907 1844.58 216.337C1842.9 208.855 1840.25 199.86 1836.54 189.439C1832.82 179.019 1826.37 168.153 1817.26 156.931C1812.31 150.696 1806.48 144.818 1799.85 139.385L1798.61 138.138C1788.71 129.766 1776.86 123.265 1763.24 118.455C1749.63 113.646 1734.07 111.241 1716.65 111.241C1694.28 111.241 1673.42 115.516 1653.97 124.066C1634.52 132.616 1617.54 144.195 1603.05 158.801C1588.55 173.408 1577.14 190.508 1568.92 210.102C1560.61 229.696 1556.54 250.716 1556.54 273.249C1556.54 295.782 1560.7 316.801 1568.92 336.395C1577.23 355.989 1588.55 373.09 1603.05 387.696C1617.54 402.303 1634.52 413.881 1653.97 422.431C1673.42 430.981 1694.28 435.256 1716.65 435.256C1740.26 435.256 1760.5 431.783 1777.48 424.925C1794.45 418.067 1808.69 410.408 1820.27 402.125C1833.88 392.149 1845.29 380.838 1854.39 368.369L1849.44 364.005C1842.02 373.179 1832.91 381.551 1822.12 389.032C1813.02 395.267 1801.88 401.056 1788.62 406.222C1775.36 411.476 1760.06 414.059 1742.73 414.059C1722.84 414.059 1705.25 411.031 1689.95 404.975C1674.66 398.918 1661.22 390.724 1649.64 380.304L1637.26 367.835C1631.07 360.71 1625.77 353.139 1621.43 345.035C1617.1 336.93 1613.3 328.469 1609.94 319.74L1797.37 262.205L1861.91 243.412L1862 243.234ZM1599.77 246.351C1601.19 223.462 1606.58 202.443 1615.95 183.472C1625.24 164.501 1638.32 149.004 1655.03 136.892C1671.83 124.779 1692.34 118.722 1716.83 118.722C1735.04 118.722 1750.07 123.621 1761.83 133.418C1773.59 143.215 1782.69 155.061 1789.15 169.044C1795.51 183.027 1799.49 197.811 1800.91 213.398C1801.35 218.207 1801.61 222.749 1801.7 227.114L1601.9 287.855C1599.69 274.318 1598.89 260.424 1599.77 246.173V246.351ZM1607.55 312.615C1605.7 306.559 1604.19 300.413 1602.96 294.179L1801.88 233.704C1801.88 241.008 1801.53 247.776 1800.64 253.833L1607.64 312.615H1607.55ZM1361.69 114.804C1350.55 112.488 1337.55 111.33 1322.61 111.33L1322.43 111.241C1310.06 111.241 1299.27 113.468 1290.16 117.832C1281.06 122.196 1273.37 127.718 1266.91 134.398C1260.46 141.078 1255.07 148.47 1250.73 156.575C1246.4 164.68 1242.95 172.517 1240.48 179.999V117.921C1240.48 116.763 1239.42 115.961 1238.27 116.229L1171.87 134.309C1170.63 134.665 1170.19 136.179 1171.08 137.159C1185.93 154.17 1193.35 174.298 1193.35 197.544V386.538C1193.35 397.404 1190.08 406.756 1183.45 414.683L1181.6 416.553C1174.97 424.034 1166.66 428.399 1156.75 429.645V430.269H1277.17V429.645C1267.18 428.399 1259.13 424.302 1252.94 417.176L1250.47 414.683C1243.84 406.756 1240.57 397.582 1240.57 387.162V247.064C1240.57 230.854 1242.16 215.09 1245.25 199.86C1248.43 184.63 1253.12 171.003 1259.57 158.89C1266.03 146.867 1274.07 137.159 1283.8 129.855C1293.52 122.552 1305.28 118.901 1318.9 118.901C1333.4 118.901 1345.95 121.751 1356.47 127.362C1366.99 132.973 1375.74 139.296 1382.82 146.421C1389.54 153.19 1395.37 160.939 1400.32 169.578C1401.12 171.003 1403.24 170.647 1403.51 169.044L1409.87 133.24C1409.96 132.527 1409.69 131.726 1409.08 131.37C1403.51 127.896 1396.79 124.779 1389.01 122.018C1381.93 119.524 1372.83 117.119 1361.69 114.804ZM1542.93 430.18H1423.13V429.557C1433.03 428.31 1441.34 423.946 1447.97 416.464L1449.83 414.594C1456.46 406.667 1459.73 397.315 1459.73 386.449V197.544C1459.73 174.299 1452.31 154.17 1437.45 137.159C1436.57 136.179 1437.01 134.665 1438.25 134.309L1504.11 116.318C1505.26 116.051 1506.32 116.852 1506.32 118.01V387.073C1506.32 397.493 1509.6 406.667 1516.23 414.594L1518.7 417.088C1524.89 424.213 1532.94 428.31 1542.93 429.557V430.18ZM1506.33 34.1116L1483.08 0L1459.82 34.1116C1455.58 40.257 1454.17 48.2728 1456.91 55.3089C1458.23 58.6042 1460 61.6324 1462.3 64.3934C1467.43 70.6279 1474.41 73.7451 1483.08 73.7451C1491.74 73.7451 1498.72 70.6279 1503.85 64.3934C1506.15 61.5433 1508.01 58.6042 1509.24 55.3089C1511.99 48.3619 1510.57 40.3461 1506.33 34.1116Z"></path>
  </symbol>
  <symbol fill="none" xmlns="http://www.w3.org/2000/svg" viewBox="0 0 14 15" id="shopping-bag">
    <path d="M3 0.833252L1 3.49992V12.8333C1 13.1869 1.14048 13.526 1.39052 13.7761C1.64057 14.0261 1.97971 14.1666 2.33333 14.1666H11.6667C12.0203 14.1666 12.3594 14.0261 12.6095 13.7761C12.8595 13.526 13 13.1869 13 12.8333V3.49992L11 0.833252H3Z" stroke-linecap="round" stroke-linejoin="round"></path>
    <path d="M1 3.5H13" stroke-linecap="round" stroke-linejoin="round"></path>
    <path d="M9.66634 6.16675C9.66634 6.87399 9.38539 7.55227 8.88529 8.05237C8.3852 8.55246 7.70692 8.83341 6.99967 8.83341C6.29243 8.83341 5.61415 8.55246 5.11406 8.05237C4.61396 7.55227 4.33301 6.87399 4.33301 6.16675"  stroke-linecap="round" stroke-linejoin="round"></path>
  </symbol>
    <symbol fill="none" xmlns="http://www.w3.org/2000/svg" viewBox="0 0 14 15" id="shopping-bag-filled">
    <path d="M3 0.833252L1 3.49992V12.8333C1 13.1869 1.14048 13.526 1.39052 13.7761C1.64057 14.0261 1.97971 14.1666 2.33333 14.1666H11.6667C12.0203 14.1666 12.3594 14.0261 12.6095 13.7761C12.8595 13.526 13 13.1869 13 12.8333V3.49992L11 0.833252H3Z" stroke-linecap="round" stroke-linejoin="round"></path>
    <path d="M1 3.5H13" stroke-linecap="round" stroke-linejoin="round"></path>
  </symbol>
  <symbol version="1.1" xmlns="http://www.w3.org/2000/svg" viewBox="0 0 1707 1024" id="arrow">
    <path d="M1226.743 34.511l-80.717 80.255 342.463 340.489-1488.502 0.003v113.5h1488.493l-342.455 340.476 80.717 80.256 480.273-477.489-480.273-477.491z"></path>
  </symbol>
    <symbol  xmlns="http://www.w3.org/2000/svg" viewBox="0 0 24 17" id="filter">
    <path fill-rule="evenodd" clip-rule="evenodd" d="M1 4.12695H23V1H1V4.12695ZM4 9.59913H20V6.47218H4V9.59913ZM8 15.0713H16V11.9444H8V15.0713Z"></path>
    <path d="M1 4.12695H0V5.12695H1V4.12695ZM23 4.12695V5.12695H24V4.12695H23ZM23 1H24V0H23V1ZM1 1V0H0V1H1ZM4 9.59913H3V10.5991H4V9.59913ZM20 9.59913V10.5991H21V9.59913H20ZM20 6.47218H21V5.47218H20V6.47218ZM4 6.47218V5.47218H3V6.47218H4ZM8 15.0713H7V16.0713H8V15.0713ZM16 15.0713V16.0713H17V15.0713H16ZM16 11.9444H17V10.9444H16V11.9444ZM8 11.9444V10.9444H7V11.9444H8ZM1 5.12695H23V3.12695H1V5.12695ZM24 4.12695V1H22V4.12695H24ZM23 0H1V2H23V0ZM0 1V4.12695H2V1H0ZM4 10.5991H20V8.59913H4V10.5991ZM21 9.59913V6.47218H19V9.59913H21ZM20 5.47218H4V7.47218H20V5.47218ZM3 6.47218V9.59913H5V6.47218H3ZM8 16.0713H16V14.0713H8V16.0713ZM17 15.0713V11.9444H15V15.0713H17ZM16 10.9444H8V12.9444H16V10.9444ZM7 11.9444V15.0713H9V11.9444H7Z" fill="white"></path>
  </symbol>
  <symbol xmlns="http://www.w3.org/2000/svg" viewBox="0 0 25 17" id="sort">
    <path fill-rule="evenodd" clip-rule="evenodd" d="M13.561 1V4.001H18.94L13.061 9.879L9.061 5.879L2 12.939L4.122 15.061L9.061 10.122L13.061 14.121L21.061 6.121V11.5H24.061V1H13.561Z" stroke="white" stroke-width="1.75"></path>
  </symbol>
    <symbol xmlns="http://www.w3.org/2000/svg" viewBox="0 0 12 8" id="arrow-down">
    <path id="Rectangle 1" d="M10.4854 2.24268L6.24271 6.48532L2.00007 2.24268" stroke-width="2" stroke-linecap="square"></path>
  </symbol>
  <symbol xmlns="http://www.w3.org/2000/svg" viewBox="0 0 8 12" id="arrow-short">
    <path id="Rectangle 1" d="M6.24219 2L1.99955 6.24264L6.24219 10.4853" stroke="#00B3CE" stroke-width="2" stroke-linecap="square"></path>
  </symbol>
</svg>