<svg width="401" height="230" viewBox="0 0 401 230" fill="none" xmlns="http://www.w3.org/2000/svg">
<g clip-path="url(#clip0_37_34807)">
<path d="M307.9 220.4C307.4 218.6 306.1 217 304.4 216.4C302.6 215.8 300.4 216.7 299.9 218.5C298.3 217.2 295.8 218.2 294.5 219.9C292.4 222.6 294 227 294.4 227.2C294.8 227.5 295.8 227.5 295.8 227.5L311.5 227.4C311.5 227.4 314.4 227.2 315.7 226.7C318.4 225.6 320.2 221 318.5 218.7C317.3 217.1 315 216.8 313.1 217.4C311.2 217.9 309.4 219.1 307.9 220.4Z" fill="#6CDD6C"/>
<path d="M295.5 228.001C295.1 228.001 294.4 227.901 294 227.601C293.4 227.101 291.8 222.401 294 219.501C294.9 218.301 296.3 217.501 297.7 217.301C298.4 217.201 299 217.301 299.6 217.601C299.9 217.001 300.5 216.501 301.1 216.101C302.1 215.601 303.4 215.401 304.5 215.801C306.1 216.301 307.4 217.601 308.1 219.401C309.6 218.201 311.3 217.201 312.9 216.701C314.8 216.101 317.4 216.301 318.8 218.201C319.6 219.301 319.8 220.901 319.3 222.601C318.7 224.601 317.3 226.401 315.8 227.001C314.4 227.601 311.6 227.801 311.4 227.801L295.7 227.901C295.7 228.001 295.6 228.001 295.5 228.001ZM298.1 218.401C298 218.401 297.9 218.401 297.8 218.401C296.8 218.501 295.6 219.201 294.8 220.201C293 222.601 294.3 226.501 294.6 226.901C294.7 227.001 295.2 227.001 295.6 227.001L311.3 226.901C311.3 226.901 314.1 226.701 315.3 226.201C316.5 225.701 317.7 224.201 318.2 222.501C318.6 221.101 318.5 219.801 317.9 219.001C316.8 217.501 314.6 217.401 313.1 217.901C311.5 218.401 309.7 219.501 308.1 220.901C308 221.001 307.8 221.101 307.6 221.001C307.4 221.001 307.3 220.801 307.2 220.701C306.6 218.901 305.5 217.501 304 217.101C303.2 216.801 302.2 216.901 301.4 217.301C300.7 217.601 300.3 218.201 300.1 218.801C300 219.001 299.9 219.101 299.8 219.101C299.6 219.101 299.5 219.101 299.3 219.001C299.1 218.501 298.6 218.401 298.1 218.401Z" fill="#50AA50"/>
<path d="M291.4 219.801C291 220.701 290.8 221.601 290.9 222.601C291 223.101 291.7 223.101 291.7 222.601C291.6 221.801 291.7 220.901 292.1 220.201C292.3 219.701 291.6 219.401 291.4 219.801Z" fill="#50AA50"/>
<path d="M289.1 220.401C288.9 221.301 288.8 222.201 289 223.001C289.1 223.501 289.9 223.301 289.8 222.801C289.6 222.001 289.7 221.301 289.9 220.601C290 220.101 289.2 219.901 289.1 220.401Z" fill="#50AA50"/>
<path d="M293.5 218.8C294 218.8 294 218 293.5 218C293 218.1 293 218.8 293.5 218.8Z" fill="#50AA50"/>
<path d="M295.7 222.602C295.7 222.802 295.7 223.102 295.7 223.302C295.7 223.802 296.5 223.802 296.5 223.302C296.5 223.102 296.5 222.802 296.5 222.602C296.5 222.102 295.7 222.102 295.7 222.602Z" fill="#50AA50"/>
<path d="M308.8 223.801C308.8 223.901 308.8 224.001 308.8 224.101C308.8 224.601 309.6 224.601 309.6 224.101C309.6 224.001 309.6 223.901 309.6 223.801C309.6 223.301 308.8 223.301 308.8 223.801Z" fill="#50AA50"/>
<path d="M307.4 222.901C307.5 223.001 307.5 223.001 307.6 223.101C308 223.501 308.5 222.901 308.1 222.601C308 222.501 308 222.501 307.9 222.401C307.6 222.001 307 222.501 307.4 222.901Z" fill="#50AA50"/>
<path d="M86.4 205.699H60C59.4 205.699 59 205.199 59 204.699C59 204.099 59.5 203.699 60 203.699H86.3C86.9 203.699 87.3 204.199 87.3 204.699C87.4 205.299 86.9 205.699 86.4 205.699Z" fill="#405B91"/>
<path d="M318.2 114.4H317.4C317.4 113.8 316.9 113.3 316.3 113.3C315.7 113.3 315.2 113.8 315.2 114.4H314.4C314.4 113.4 315.2 112.5 316.3 112.5C317.4 112.5 318.2 113.4 318.2 114.4Z" fill="white"/>
<path d="M320.9 70.5992H320.1C320.1 69.9992 319.6 69.4992 319 69.4992C318.4 69.4992 317.9 69.9992 317.9 70.5992H317.1C317.1 69.5992 317.9 68.6992 319 68.6992C320 68.7992 320.9 69.5992 320.9 70.5992Z" fill="white"/>
<path d="M227.3 222.8H191.5L192.1 221.4C194.4 215.8 194.7 211.1 194.3 205.6L194.2 204.5L224.4 204.4V205.4C224.4 208.9 225.4 216.9 226.8 221.4L227.3 222.8ZM194.6 220.7H224.5C223.3 216.3 222.6 210.1 222.4 206.4L196.5 206.5C196.7 211.4 196.4 215.8 194.6 220.7Z" fill="#415B91"/>
<path d="M181.2 206.399C154 206.399 132 206.299 131.1 205.899C128.8 205.099 125.7 201.799 125.7 199.599C125.6 194.599 125.4 187.899 125.2 180.099C124.5 156.599 123.4 124.299 124.8 106.499C125 103.199 127.7 100.699 130.9 100.699H131L287.6 100.899C290.9 100.999 293.6 103.599 293.6 106.999C293.7 112.199 293.9 117.499 294.1 122.899C294.8 145.499 295.6 168.899 293.1 190.999C293 191.899 293 192.799 292.9 193.799C292.7 198.399 292.4 204.199 286.5 205.399C283.4 205.999 225.5 206.399 181.2 206.399ZM130.8 102.399C128.4 102.399 126.5 104.199 126.3 106.599C125 124.399 126 156.499 126.7 179.999C126.9 187.799 127.2 194.599 127.2 199.499C127.2 200.899 129.6 203.599 131.5 204.299C134.8 204.999 282.1 204.499 285.9 203.799C290.6 202.899 290.8 198.199 291 193.799C291 192.799 291.1 191.799 291.2 190.899C293.7 168.899 292.9 145.599 292.2 123.099C292 117.699 291.9 112.399 291.7 107.199C291.6 104.699 289.7 102.799 287.3 102.699L130.8 102.399C130.8 102.399 130.9 102.399 130.8 102.399Z" fill="#415B91"/>
<path fill-rule="evenodd" clip-rule="evenodd" d="M283.2 106.399L135.6 106.199C132.9 106.199 130.7 107.999 130.5 110.399C128.8 130.199 131.1 171.399 131.4 187.999C131.4 189.599 134.1 191.999 136 192.599C138.2 193.299 278.5 192.799 281.9 192.199C288.1 191.099 287 184.799 287.5 180.799C290.4 157.999 288.6 133.199 288 110.899C288 108.299 285.8 106.399 283.2 106.399Z" fill="#C8F0FF"/>
<path d="M240.1 228.5H178.7C176.3 228.5 175 226.6 175 224.7C175 222.8 176.3 220.9 178.7 220.9H240.1C242.5 220.9 243.8 222.8 243.8 224.7C243.8 226.5 242.5 228.5 240.1 228.5ZM178.7 222.5C177.1 222.5 176.7 223.8 176.7 224.6C176.7 225.4 177.1 226.7 178.7 226.7H240.1C241.7 226.7 242.1 225.4 242.1 224.6C242.1 223.8 241.7 222.5 240.1 222.5H178.7Z" fill="#415B91"/>
<path d="M135.9 200.601C138.7 200.601 138.7 196.301 135.9 196.301C133.2 196.301 133.2 200.601 135.9 200.601Z" fill="#415B91"/>
<path d="M144.6 200.601C147.4 200.601 147.4 196.301 144.6 196.301C141.8 196.301 141.8 200.601 144.6 200.601Z" fill="#415B91"/>
<path d="M153.2 200.601C156 200.601 156 196.301 153.2 196.301C150.4 196.301 150.4 200.601 153.2 200.601Z" fill="#415B91"/>
<path d="M209.4 105.1C210.7 105.1 210.7 103.1 209.4 103.1C208.1 103.1 208.1 105.1 209.4 105.1Z" fill="#415B91"/>
<path d="M160.3 49.6L161.7 48.2C162 47.9 162 47.5 161.7 47.2L160.5 46C160.2 45.7 160.1 45.2 160.3 44.8L161.3 42.4C161.4 42 161.8 41.7 162.2 41.7H163.9C164.3 41.7 164.6 41.4 164.6 41V39C164.6 38.6 164.3 38.3 163.9 38.3H162.2C161.8 38.3 161.4 38 161.3 37.6L160.3 35.2C160.1 34.8 160.2 34.3 160.5 34L161.7 32.8C162 32.5 162 32.1 161.7 31.8L160.3 30.4C160 30.1 159.6 30.1 159.3 30.4L158.1 31.6C157.8 31.9 157.3 32 156.9 31.8L154.5 30.8C154.1 30.7 153.8 30.3 153.8 29.9V28.2C153.8 27.8 153.5 27.5 153.1 27.5H151.1C150.7 27.5 150.4 27.8 150.4 28.2V29.9C150.4 30.3 150.1 30.7 149.7 30.8L147.3 31.8C146.9 32 146.4 31.9 146.1 31.6L144.9 30.4C144.6 30.1 144.2 30.1 143.9 30.4L142.5 31.8C142.2 32.1 142.2 32.5 142.5 32.8L143.7 34C144 34.3 144.1 34.8 143.9 35.2L142.9 37.6C142.8 38 142.4 38.3 142 38.3H140.3C139.9 38.3 139.6 38.6 139.6 39V41C139.6 41.4 139.9 41.7 140.3 41.7H142C142.4 41.7 142.8 42 142.9 42.4L143.9 44.8C144.1 45.2 144 45.7 143.7 46L142.5 47.2C142.2 47.5 142.2 47.9 142.5 48.2L143.9 49.6C144.2 49.9 144.6 49.9 144.9 49.6L146.1 48.4C146.4 48.1 146.9 48 147.3 48.2L149.7 49.2C150.1 49.3 150.4 49.7 150.4 50.1V51.8C150.4 52.2 150.7 52.5 151.1 52.5H153.1C153.5 52.5 153.8 52.2 153.8 51.8V50.1C153.8 49.7 154.1 49.3 154.5 49.2L156.9 48.2C157.3 48 157.8 48.1 158.1 48.4L159.3 49.6C159.5 49.9 160 49.9 160.3 49.6ZM152 45.7C148.8 45.7 146.2 43.1 146.2 39.9C146.2 36.7 148.8 34.1 152 34.1C155.2 34.1 157.8 36.7 157.8 39.9C157.8 43.1 155.2 45.7 152 45.7Z" fill="#B6D0FB"/>
<path d="M173.7 55.0993L173.3 53.8993C173.2 53.6993 173 53.4993 172.7 53.5993L171.7 53.8993C171.5 53.9993 171.2 53.8993 171 53.5993L170 52.2993C169.8 52.0993 169.8 51.7993 169.9 51.5993L170.4 50.6993C170.5 50.4993 170.4 50.1993 170.2 50.0993L169.1 49.4993C168.9 49.3993 168.6 49.4993 168.5 49.6993L168 50.5993C167.9 50.7993 167.6 50.9993 167.3 50.8993L165.7 50.6993C165.5 50.6993 165.2 50.4993 165.1 50.2993L164.8 49.2993C164.7 49.0993 164.5 48.8993 164.2 48.9993L163 49.3993C162.8 49.4993 162.6 49.6993 162.7 49.9993L163 50.9993C163.1 51.1993 163 51.4993 162.7 51.6993L161.4 52.6993C161.2 52.8993 160.9 52.8993 160.7 52.7993L159.8 52.2993C159.6 52.1993 159.3 52.2993 159.2 52.4993L158.6 53.5993C158.5 53.7993 158.6 54.0993 158.8 54.1993L159.7 54.6993C159.9 54.7993 160.1 55.0993 160 55.3993L159.8 56.9993C159.8 57.1993 159.6 57.4993 159.4 57.5993L158.4 57.8993C158.2 57.9993 158 58.1993 158.1 58.4993L158.5 59.6993C158.6 59.8993 158.8 60.0993 159.1 59.9993L160.1 59.6993C160.3 59.5993 160.6 59.6993 160.8 59.8993L161.8 61.1993C162 61.3993 162 61.6993 161.9 61.8993L161.4 62.7993C161.3 62.9993 161.4 63.2993 161.6 63.3993L162.7 63.9993C162.9 64.0993 163.2 63.9993 163.3 63.7993L163.8 62.8993C163.9 62.6993 164.2 62.4993 164.5 62.5993L166.1 62.7993C166.4 62.7993 166.6 62.9993 166.7 63.1993L167 64.1993C167.1 64.3993 167.3 64.5993 167.6 64.4993L168.8 64.0993C169 63.9993 169.2 63.7993 169.1 63.4993L168.8 62.4993C168.7 62.2993 168.8 61.9993 169 61.7993L170.3 60.7993C170.5 60.5993 170.8 60.5993 171 60.6993L171.9 61.1993C172.1 61.2993 172.4 61.1993 172.5 60.9993L173.1 59.8993C173.2 59.6993 173.1 59.3993 172.9 59.2993L172 58.7993C171.8 58.6993 171.6 58.3993 171.7 58.0993L171.9 56.4993C171.9 56.2993 172.1 55.9993 172.3 55.8993L173.3 55.5993C173.7 55.5993 173.8 55.2993 173.7 55.0993ZM169.2 58.4993C168.3 60.2993 166.1 60.8993 164.3 59.9993C162.5 59.0993 161.9 56.8993 162.8 55.0993C163.7 53.2993 165.9 52.6993 167.7 53.5993C169.5 54.4993 170.2 56.6993 169.2 58.4993Z" fill="#B6D0FB"/>
<path d="M232.6 77.8008H200C199.4 77.8008 199 77.3008 199 76.8008C199 76.2008 199.5 75.8008 200 75.8008H232.6C233.2 75.8008 233.6 76.3008 233.6 76.8008C233.7 77.4008 233.2 77.8008 232.6 77.8008Z" fill="#405B91"/>
<path d="M166.3 92.6992H113.6C113 92.6992 112.6 92.1992 112.6 91.6992C112.6 91.1992 113.1 90.6992 113.6 90.6992H166.3C166.9 90.6992 167.3 91.1992 167.3 91.6992C167.3 92.1992 166.8 92.6992 166.3 92.6992Z" fill="#405B91"/>
<path d="M386.7 120.699H334C333.4 120.699 333 120.199 333 119.699C333 119.199 333.5 118.699 334 118.699H386.7C387.3 118.699 387.7 119.199 387.7 119.699C387.7 120.199 387.3 120.699 386.7 120.699Z" fill="#405B91"/>
<path d="M399.4 229.5H1C0.4 229.5 0 229 0 228.5C0 227.9 0.5 227.5 1 227.5H399.4C400 227.5 400.4 228 400.4 228.5C400.5 229 400 229.5 399.4 229.5Z" fill="#405B91"/>
<path d="M293.3 64.8008C291.1 64.8008 289 65.7008 287.4 67.2008C284.7 69.9008 284.2 74.1008 286.1 77.3008L286.2 77.5008L277.7 86.0008C277.7 86.0008 277.3 86.4008 277.3 87.0008C277.3 87.4008 277.5 87.9008 277.9 88.3008C278.4 88.8008 278.8 89.0008 279.3 89.0008C279.9 89.0008 280.3 88.7008 280.3 88.7008L288.7 80.2008L288.9 80.3008C290.2 81.1008 291.6 81.4008 293.1 81.4008C295.3 81.4008 297.4 80.5008 299 79.0008C302.3 75.7008 302.3 70.4008 299 67.2008C297.6 65.7008 295.5 64.8008 293.3 64.8008ZM293.3 79.1008C290.1 79.1008 287.4 76.5008 287.4 73.2008C287.4 70.0008 290 67.3008 293.3 67.3008C296.5 67.3008 299.2 69.9008 299.2 73.2008C299.2 76.4008 296.5 79.1008 293.3 79.1008Z" fill="#B6D0FB"/>
<path d="M290.2 74.4004H296.3V72.9004H290.2V74.4004Z" fill="#B6D0FB"/>
<path d="M112.7 150.5C112.1 150.5 111.7 150 111.7 149.5V145.5C111.7 144.9 112.2 144.5 112.7 144.5C113.3 144.5 113.7 145 113.7 145.5V149.5C113.7 150.1 113.3 150.5 112.7 150.5Z" fill="#405B91"/>
<path d="M114.7 148.5H110.7C110.1 148.5 109.7 148 109.7 147.5C109.7 146.9 110.2 146.5 110.7 146.5H114.7C115.3 146.5 115.7 147 115.7 147.5C115.8 148.1 115.3 148.5 114.7 148.5Z" fill="#405B91"/>
<path d="M206 6.1C205.4 6.1 205 5.6 205 5.1V1C205 0.4 205.5 0 206 0C206.6 0 207 0.5 207 1V5C207 5.6 206.5 6.1 206 6.1Z" fill="#405B91"/>
<path d="M208 4.09961H204C203.4 4.09961 203 3.59961 203 3.09961C203 2.59961 203.5 2.09961 204 2.09961H208C208.6 2.09961 209 2.59961 209 3.09961C209 3.59961 208.6 4.09961 208 4.09961Z" fill="#405B91"/>
<path d="M238.7 215.201C238.6 215.201 238.5 215.201 238.4 215.201L234.5 214.101C233.9 213.901 233.6 213.401 233.8 212.801C234 212.201 234.5 211.901 235.1 212.101L239 213.201C239.6 213.401 239.9 213.901 239.7 214.501C239.5 214.901 239.1 215.201 238.7 215.201Z" fill="#405B91"/>
<path d="M236.2 216.6C236.1 216.6 236 216.6 235.9 216.6C235.3 216.4 235 215.9 235.2 215.3L236.3 211.4C236.5 210.8 237 210.5 237.6 210.7C238.2 210.9 238.5 211.4 238.3 212L237.2 215.9C237 216.3 236.6 216.6 236.2 216.6Z" fill="#405B91"/>
<path d="M218.3 93.2008C218.2 93.2008 218.1 93.2008 218 93.2008L214.1 92.1008C213.5 91.9008 213.2 91.4008 213.4 90.8008C213.6 90.2008 214.1 89.9008 214.7 90.1008L218.6 91.2008C219.2 91.4008 219.5 91.9008 219.3 92.5008C219.1 92.9008 218.7 93.2008 218.3 93.2008Z" fill="#405B91"/>
<path d="M215.8 94.6004C215.7 94.6004 215.6 94.6004 215.5 94.6004C214.9 94.4004 214.6 93.9004 214.8 93.3004L215.9 89.4004C216.1 88.8004 216.6 88.5004 217.2 88.7004C217.8 88.9004 218.1 89.4004 217.9 90.0004L216.8 93.9004C216.6 94.3004 216.2 94.6004 215.8 94.6004Z" fill="#405B91"/>
<path d="M215.5 69.3996C223.453 69.3996 229.9 62.9525 229.9 54.9996C229.9 47.0467 223.453 40.5996 215.5 40.5996C207.547 40.5996 201.1 47.0467 201.1 54.9996C201.1 62.9525 207.547 69.3996 215.5 69.3996Z" fill="#B6D0FB"/>
<path d="M215.5 65.7992C221.465 65.7992 226.3 60.9639 226.3 54.9992C226.3 49.0345 221.465 44.1992 215.5 44.1992C209.535 44.1992 204.7 49.0345 204.7 54.9992C204.7 60.9639 209.535 65.7992 215.5 65.7992Z" fill="white"/>
<path d="M215.5 66.1988C209.3 66.1988 204.3 61.1988 204.3 54.9988C204.3 48.7988 209.3 43.7988 215.5 43.7988C221.7 43.7988 226.7 48.7988 226.7 54.9988C226.7 61.1988 221.7 66.1988 215.5 66.1988ZM215.5 44.5988C209.8 44.5988 205.1 49.2988 205.1 54.9988C205.1 60.6988 209.8 65.3988 215.5 65.3988C221.2 65.3988 225.9 60.6988 225.9 54.9988C225.9 49.2988 221.3 44.5988 215.5 44.5988Z" fill="#405B91"/>
<path d="M215.5 55.3996C215.3 55.3996 215.1 55.1996 215.1 54.9996V49.4996C215.1 49.2996 215.3 49.0996 215.5 49.0996C215.7 49.0996 215.9 49.2996 215.9 49.4996V54.9996C216 55.1996 215.8 55.3996 215.5 55.3996Z" fill="#405B91"/>
<path d="M222 55.3996H215.6C215.4 55.3996 215.2 55.1996 215.2 54.9996C215.2 54.7996 215.4 54.5996 215.6 54.5996H222C222.2 54.5996 222.4 54.7996 222.4 54.9996C222.4 55.1996 222.2 55.3996 222 55.3996Z" fill="#405B91"/>
<path d="M215.5 45.8C215.721 45.8 215.9 45.6209 215.9 45.4C215.9 45.1791 215.721 45 215.5 45C215.279 45 215.1 45.1791 215.1 45.4C215.1 45.6209 215.279 45.8 215.5 45.8Z" fill="#405B91"/>
<path d="M222.3 48.6008C222.521 48.6008 222.7 48.4217 222.7 48.2008C222.7 47.9799 222.521 47.8008 222.3 47.8008C222.079 47.8008 221.9 47.9799 221.9 48.2008C221.9 48.4217 222.079 48.6008 222.3 48.6008Z" fill="#405B91"/>
<path d="M225.1 55.3996C225.321 55.3996 225.5 55.2205 225.5 54.9996C225.5 54.7787 225.321 54.5996 225.1 54.5996C224.879 54.5996 224.7 54.7787 224.7 54.9996C224.7 55.2205 224.879 55.3996 225.1 55.3996Z" fill="#405B91"/>
<path d="M222.3 62.2004C222.521 62.2004 222.7 62.0213 222.7 61.8004C222.7 61.5795 222.521 61.4004 222.3 61.4004C222.079 61.4004 221.9 61.5795 221.9 61.8004C221.9 62.0213 222.079 62.2004 222.3 62.2004Z" fill="#405B91"/>
<path d="M215.5 64.9992C215.721 64.9992 215.9 64.8201 215.9 64.5992C215.9 64.3783 215.721 64.1992 215.5 64.1992C215.279 64.1992 215.1 64.3783 215.1 64.5992C215.1 64.8201 215.279 64.9992 215.5 64.9992Z" fill="#405B91"/>
<path d="M208.8 62.2004C209.021 62.2004 209.2 62.0213 209.2 61.8004C209.2 61.5795 209.021 61.4004 208.8 61.4004C208.579 61.4004 208.4 61.5795 208.4 61.8004C208.4 62.0213 208.579 62.2004 208.8 62.2004Z" fill="#405B91"/>
<path d="M206 55.3996C206.221 55.3996 206.4 55.2205 206.4 54.9996C206.4 54.7787 206.221 54.5996 206 54.5996C205.779 54.5996 205.6 54.7787 205.6 54.9996C205.6 55.2205 205.779 55.3996 206 55.3996Z" fill="#405B91"/>
<path d="M208.8 48.6008C209.021 48.6008 209.2 48.4217 209.2 48.2008C209.2 47.9799 209.021 47.8008 208.8 47.8008C208.579 47.8008 208.4 47.9799 208.4 48.2008C208.4 48.4217 208.579 48.6008 208.8 48.6008Z" fill="#405B91"/>
<path d="M236.6 49.4992H230.6C230.4 49.4992 230.2 49.2992 230.2 49.0992C230.2 48.8992 230.4 48.6992 230.6 48.6992H236.6C236.8 48.6992 237 48.8992 237 49.0992C237 49.2992 236.9 49.4992 236.6 49.4992Z" fill="#405B91"/>
<path d="M236.6 61.3H230.6C230.4 61.3 230.2 61.1 230.2 60.9C230.2 60.7 230.4 60.5 230.6 60.5H236.6C236.8 60.5 237 60.7 237 60.9C237 61.1 236.9 61.3 236.6 61.3Z" fill="#405B91"/>
<path d="M244.1 55.3996H232.8C232.6 55.3996 232.4 55.1996 232.4 54.9996C232.4 54.7996 232.6 54.5996 232.8 54.5996H244.1C244.3 54.5996 244.5 54.7996 244.5 54.9996C244.6 55.1996 244.4 55.3996 244.1 55.3996Z" fill="#405B91"/>
<path d="M263.9 211H257.2V217.7H263.9V211Z" fill="white"/>
<path d="M264.4 218.2H256.7V210.5H264.4V218.2ZM257.7 217.2H263.3V211.6H257.7V217.2Z" fill="#415B91"/>
<path d="M272.3 212.499H266.3C266.1 212.499 265.9 212.299 265.9 212.099C265.9 211.899 266.1 211.699 266.3 211.699H272.3C272.5 211.699 272.7 211.899 272.7 212.099C272.7 212.299 272.5 212.499 272.3 212.499Z" fill="#405B91"/>
<path d="M274.6 217.099H266.4C266.1 217.099 265.8 216.899 265.8 216.699C265.8 216.499 266.1 216.299 266.4 216.299H274.6C274.9 216.299 275.2 216.499 275.2 216.699C275.2 216.899 274.9 217.099 274.6 217.099Z" fill="#405B91"/>
<path d="M277.6 214.698H266.3C266.1 214.698 265.9 214.498 265.9 214.298C265.9 214.098 266.1 213.898 266.3 213.898H277.6C277.8 213.898 278 214.098 278 214.298C278 214.498 277.8 214.698 277.6 214.698Z" fill="#405B91"/>
<path d="M117.2 113H110.5V119.7H117.2V113Z" fill="white"/>
<path d="M117.7 120.2H110V112.5H117.7V120.2ZM111 119.1H116.6V113.5H111V119.1Z" fill="#415B91"/>
<path d="M102 114.4H108C108.2 114.4 108.4 114.2 108.4 114C108.4 113.8 108.2 113.6 108 113.6H102C101.8 113.6 101.6 113.8 101.6 114C101.6 114.3 101.8 114.4 102 114.4Z" fill="#405B91"/>
<path d="M99.7 118.999H107.9C108.2 118.999 108.5 118.799 108.5 118.599C108.5 118.399 108.2 118.199 107.9 118.199H99.7C99.4 118.199 99.1 118.399 99.1 118.599C99.1 118.799 99.4 118.999 99.7 118.999Z" fill="#405B91"/>
<path d="M96.7 116.599H108C108.2 116.599 108.4 116.399 108.4 116.199C108.4 115.999 108.2 115.799 108 115.799H96.7C96.5 115.799 96.3 115.999 96.3 116.199C96.3 116.399 96.5 116.599 96.7 116.599Z" fill="#405B91"/>
<path d="M120.1 171.399C119.8 169.499 118.5 164.599 115.5 166.199C110.7 168.699 116.5 178.199 110.7 179.899C110.4 176.099 109.6 173.499 107.9 173.699C104.4 173.999 105.3 182.199 105.2 184.099C105.1 185.899 105.1 187.799 105 189.699C100.8 190.399 101.7 179.599 99.1 178.099C95.2 175.799 94.3 180.999 94.4 183.399C94.6 187.499 95.7 192.399 99.5 194.499C100.8 195.199 103 195.999 104.7 195.899C104.7 199.199 104.8 202.399 105.4 205.499H105.5L107.8 205.599C107.8 206.599 109.4 206.599 109.4 205.599C109.4 203.599 110.6 193.999 110.8 185.799C112.7 186.099 115 185.199 116.3 184.199C120.4 181.299 120.8 175.899 120.1 171.399Z" fill="#6CDD6C"/>
<path d="M108.7 206.799C108.5 206.799 108.2 206.699 108 206.599C107.8 206.399 107.6 206.199 107.5 205.899L105.8 205.799H105.2L105.1 205.399C104.6 202.799 104.4 199.799 104.4 196.199C102.5 196.199 100.4 195.299 99.4 194.699C95.3 192.399 94.2 187.199 94.1 183.199C94 181.599 94.4 178.299 96.2 177.199C97.1 176.699 98.2 176.799 99.5 177.499C100.7 178.199 101.2 180.399 101.7 182.999C102.4 186.499 103.1 188.999 104.7 188.999V188.099C104.8 186.599 104.8 185.199 104.9 183.699C104.9 183.399 104.9 182.999 104.9 182.499C104.8 179.299 104.6 173.199 108 172.899C108.5 172.799 109 172.999 109.4 173.399C110.3 174.199 111 175.999 111.2 178.999C113.3 177.999 113.2 175.599 113.1 172.699C113 169.799 112.8 166.799 115.4 165.499C116.2 165.099 117 164.999 117.7 165.399C119.8 166.499 120.5 170.599 120.6 171.099C121.2 174.599 121.4 180.899 116.7 184.299C115.4 185.299 113.2 186.099 111.3 185.999C111.2 191.399 110.6 197.199 110.3 201.199C110.1 203.199 110 204.699 110 205.399C110 205.899 109.8 206.199 109.4 206.399C109.1 206.699 108.9 206.799 108.7 206.799ZM105.9 204.999L108.4 205.099V205.499C108.4 205.699 108.5 205.799 108.5 205.799C108.6 205.899 108.8 205.899 108.9 205.799C109 205.699 109.1 205.699 109.1 205.499C109.1 204.799 109.2 203.299 109.4 201.299C109.8 197.299 110.3 191.099 110.4 185.699V185.199L110.9 185.299C112.6 185.599 114.9 184.699 116.1 183.799C120.4 180.599 120.2 174.699 119.6 171.499C119.4 170.099 118.6 167.199 117.2 166.499C116.7 166.299 116.2 166.299 115.7 166.599C113.7 167.699 113.8 170.199 113.9 172.999C114 175.999 114.2 179.399 110.8 180.399L110.3 180.599V180.099C110 176.299 109.3 174.999 108.7 174.499C108.5 174.299 108.2 174.199 107.9 174.199C105.3 174.399 105.5 180.099 105.6 182.899C105.6 183.499 105.6 183.899 105.6 184.199C105.6 185.599 105.5 187.099 105.4 188.599L105.3 190.199L105 190.299C102.2 190.799 101.4 186.999 100.6 183.599C100.1 181.399 99.7 179.199 98.8 178.699C97.8 178.099 97 177.999 96.4 178.399C95.1 179.199 94.7 181.999 94.8 183.599C95 187.299 96 192.299 99.7 194.399C101 195.099 103.1 195.799 104.7 195.699H105.2V196.199C105.3 199.499 105.4 202.399 105.9 204.999Z" fill="#50AA50"/>
<path d="M115.5 227.5H98.6C97.7 227.5 97 226.9 96.8 226L93 206.3L94.6 206L98.4 225.7C98.4 225.9 98.6 225.9 98.6 225.9H115.5C115.5 225.9 115.7 225.9 115.7 225.7L119.5 206L121.1 206.3L117.3 226C117.2 226.9 116.4 227.5 115.5 227.5Z" fill="#415B91"/>
<path d="M93.2 200H121.2C121.7 200 122.1 200.5 122.1 201.2V205.5C122.1 206.1 121.7 206.7 121.2 206.7H93.2C92.7 206.7 92.3 206.2 92.3 205.5V201.2C92.3 200.5 92.7 200 93.2 200Z" fill="#B6D0FB"/>
<path d="M121.2 207H93.2C92.5 207 91.9 206.3 91.9 205.4V201.1C91.9 200.2 92.5 199.5 93.2 199.5H121.2C121.9 199.5 122.5 200.2 122.5 201.1V205.4C122.5 206.3 121.9 207 121.2 207ZM93.2 200.4C93 200.4 92.8 200.7 92.8 201.1V205.4C92.8 205.8 93 206.1 93.2 206.1H121.2C121.4 206.1 121.6 205.8 121.6 205.4V201.1C121.6 200.7 121.4 200.4 121.2 200.4H93.2Z" fill="#405B91"/>
<path d="M121.2 206.999H93.2C92.5 206.999 92 206.299 92 205.499V201.199C92 200.299 92.6 199.699 93.2 199.699H121.2C121.9 199.699 122.4 200.399 122.4 201.199V205.499C122.5 206.299 121.9 206.999 121.2 206.999ZM93.2 200.399C93 200.399 92.7 200.699 92.7 201.199V205.499C92.7 205.999 93 206.299 93.2 206.299H121.2C121.4 206.299 121.7 205.999 121.7 205.499V201.199C121.7 200.699 121.4 200.399 121.2 200.399H93.2Z" fill="#B6D0FB"/>
<path d="M121.2 207.4H93.2C92.3 207.4 91.5 206.5 91.5 205.4V201.1C91.5 200 92.3 199.1 93.2 199.1H121.2C122.1 199.1 122.9 200 122.9 201.1V205.4C122.9 206.5 122.1 207.4 121.2 207.4ZM93.2 200.8C93.2 200.8 93.1 201 93.1 201.2V205.5C93.1 205.7 93.2 205.9 93.2 205.9H121.2C121.2 205.9 121.3 205.8 121.3 205.5V201.2C121.3 201 121.2 200.8 121.2 200.8H93.2Z" fill="#405B91"/>
<path d="M96.3 183.299C96.8 183.399 97.2 183.399 97.7 183.499C98.2 183.599 98.2 182.799 97.7 182.699C97.2 182.599 96.8 182.599 96.3 182.499C95.8 182.399 95.8 183.199 96.3 183.299Z" fill="#50AA50"/>
<path d="M98.3 177.1C98.3 177.3 98.3 177.6 98.3 177.8C98.3 178.3 99.1 178.3 99.1 177.8C99.1 177.6 99.1 177.3 99.1 177.1C99.1 176.6 98.3 176.6 98.3 177.1Z" fill="#50AA50"/>
<path d="M101 184.298C101.3 184.098 101.7 183.898 102 183.698C102.4 183.498 102 182.798 101.6 182.998C101.3 183.198 100.9 183.398 100.6 183.598C100.1 183.898 100.5 184.498 101 184.298Z" fill="#50AA50"/>
<path d="M97 193.199C97.4 192.899 97.8 192.599 98.2 192.299C98.6 191.999 98.2 191.299 97.8 191.599C97.4 191.899 97 192.199 96.6 192.499C96.2 192.799 96.6 193.499 97 193.199Z" fill="#50AA50"/>
<path d="M94.1 186.5C94.4 186.6 94.7 186.7 95 186.8C95.5 187 95.7 186.2 95.2 186C94.9 185.9 94.6 185.8 94.3 185.7C93.8 185.6 93.6 186.4 94.1 186.5Z" fill="#50AA50"/>
<path d="M99.7 190.199C99.9 190.199 100 190.299 100.1 190.399C100.4 190.799 101 190.199 100.6 189.799C100.4 189.499 100 189.399 99.6 189.299C99.2 189.299 99.2 190.099 99.7 190.199Z" fill="#50AA50"/>
<path d="M101.4 193.799C101.3 194.299 101.4 194.799 101.6 195.299C101.8 195.799 102.5 195.399 102.3 194.899C102.2 194.599 102.1 194.299 102.2 193.999C102.2 193.499 101.5 193.299 101.4 193.799Z" fill="#50AA50"/>
<path d="M105.5 193.999C105.7 194.099 106 194.099 106.2 194.199C106.7 194.299 106.9 193.599 106.4 193.399C106.2 193.299 105.9 193.299 105.7 193.199C105.2 193.099 105 193.799 105.5 193.999Z" fill="#50AA50"/>
<path d="M108 186.299C108 186.699 108.1 187.099 108.5 187.399C108.9 187.699 109.4 187.199 109.1 186.799C108.9 186.599 108.8 186.499 108.9 186.199C108.8 185.799 108 185.799 108 186.299Z" fill="#50AA50"/>
<path d="M107 180.799C106.8 181.099 106.7 181.399 106.8 181.799C106.9 182.299 107.6 182.099 107.6 181.599C107.6 181.399 107.6 181.299 107.7 181.199C107.9 180.699 107.3 180.399 107 180.799Z" fill="#50AA50"/>
<path d="M111.2 183C111.2 183.2 111.2 183.5 111.2 183.7C111.2 184.2 112 184.2 112 183.7C112 183.5 112 183.2 112 183C112 182.5 111.2 182.5 111.2 183Z" fill="#50AA50"/>
<path d="M104 181.799C104.2 181.899 104.3 181.999 104.5 182.099C104.9 182.399 105.3 181.699 104.9 181.399C104.7 181.299 104.6 181.199 104.4 181.099C104 180.899 103.6 181.499 104 181.799Z" fill="#50AA50"/>
<path d="M105.3 175.399C105.5 175.599 105.5 175.799 105.5 175.999C105.5 176.499 106.3 176.499 106.3 175.999C106.3 175.599 106.1 175.199 105.8 174.899C105.5 174.399 105 174.999 105.3 175.399Z" fill="#50AA50"/>
<path d="M107.3 173C107.3 173.3 107.3 173.7 107.3 174C107.3 174.5 108.1 174.5 108.1 174C108.1 173.7 108.1 173.3 108.1 173C108.1 172.5 107.3 172.5 107.3 173Z" fill="#50AA50"/>
<path d="M112.1 177.6C112.2 177.7 112.3 177.8 112.4 178C112.7 178.4 113.3 177.8 112.9 177.4C112.8 177.3 112.7 177.2 112.6 177C112.3 176.7 111.7 177.2 112.1 177.6Z" fill="#50AA50"/>
<path d="M112.9 172.9C113.2 172.9 113.6 172.9 113.9 173C114.4 173 114.4 172.3 113.9 172.2C113.6 172.2 113.2 172.2 112.9 172.1C112.4 172.1 112.4 172.9 112.9 172.9Z" fill="#50AA50"/>
<path d="M114 166.699C114.2 166.899 114.5 167.199 114.7 167.399C115.1 167.799 115.6 167.199 115.2 166.799C115 166.599 114.7 166.299 114.5 166.099C114.2 165.799 113.6 166.399 114 166.699Z" fill="#50AA50"/>
<path d="M117 164.699C117 165.099 117 165.499 117 165.899C117 166.399 117.8 166.399 117.8 165.899C117.8 165.499 117.8 165.099 117.8 164.699C117.7 164.199 117 164.199 117 164.699Z" fill="#50AA50"/>
<path d="M118.4 171.999C118.5 171.799 118.6 171.699 118.7 171.499C119 171.099 118.3 170.699 118 171.099C117.9 171.299 117.8 171.399 117.7 171.599C117.4 171.999 118.1 172.399 118.4 171.999Z" fill="#50AA50"/>
<path d="M115.7 179.6C116 179.5 116.3 179.4 116.6 179.3C117.1 179.1 116.9 178.4 116.4 178.5C116.1 178.6 115.8 178.7 115.5 178.8C115.1 179 115.3 179.8 115.7 179.6Z" fill="#50AA50"/>
<path d="M119.2 178.499C119.5 178.399 119.8 178.399 120.1 178.299C120.6 178.199 120.4 177.399 119.9 177.499C119.6 177.599 119.3 177.599 119 177.699C118.5 177.899 118.7 178.599 119.2 178.499Z" fill="#50AA50"/>
<path d="M117 182.199C117 182.299 117 182.299 117 182.399C117 182.899 117.8 182.899 117.8 182.399C117.8 182.299 117.8 182.299 117.8 182.199C117.7 181.699 117 181.699 117 182.199Z" fill="#50AA50"/>
<path d="M110.3 194.099C110.5 193.999 110.6 193.899 110.8 193.799C111.2 193.499 110.8 192.799 110.4 193.099C110.2 193.199 110.1 193.299 109.9 193.399C109.5 193.699 109.9 194.299 110.3 194.099Z" fill="#50AA50"/>
<path d="M109.8 196.899C110.1 196.599 110.4 196.399 110.9 196.299C111.4 196.199 111.2 195.399 110.7 195.499C110.2 195.599 109.7 195.899 109.3 196.299C108.9 196.699 109.5 197.299 109.8 196.899Z" fill="#50AA50"/>
<path d="M106.6 197.4C106.7 197.5 106.7 197.6 106.8 197.7C107 198.1 107.7 197.8 107.5 197.3C107.4 197.2 107.4 197.1 107.3 197C107.1 196.6 106.4 197 106.6 197.4Z" fill="#50AA50"/>
<path d="M103.7 198.198C104.1 198.398 104.6 198.498 105 198.398C105.5 198.298 105.3 197.598 104.8 197.598C104.5 197.698 104.3 197.598 104.1 197.498C103.6 197.298 103.2 197.998 103.7 198.198Z" fill="#50AA50"/>
<path d="M110.1 190.898C110.6 190.798 111.1 190.798 111.7 190.698C112.2 190.598 112.2 189.898 111.7 189.898C111.2 189.998 110.7 189.998 110.1 190.098C109.6 190.098 109.6 190.898 110.1 190.898Z" fill="#50AA50"/>
<path d="M143.1 77.0004C145.1 77.0004 145.1 73.9004 143.1 73.9004C141.1 73.9004 141.1 77.0004 143.1 77.0004Z" fill="#405B91"/>
<path d="M311.8 44.6003C313.8 44.6003 313.8 41.5003 311.8 41.5003C309.8 41.4003 309.8 44.6003 311.8 44.6003Z" fill="#405B91"/>
<path d="M349.6 155.899C349.8 155.899 350.1 155.899 350.3 155.899C351.1 155.899 351.9 155.199 351.9 154.299C351.9 153.499 351.2 152.699 350.3 152.699C350.1 152.699 349.8 152.699 349.6 152.699C348.8 152.699 348 153.399 348 154.299C348.1 155.199 348.8 155.899 349.6 155.899Z" fill="#405B91"/>
<path d="M81.6 178.7C83.6 178.7 83.6 175.6 81.6 175.6C79.6 175.6 79.6 178.7 81.6 178.7Z" fill="#405B91"/>
<path d="M230.2 29.2992C232.2 29.2992 232.2 26.1992 230.2 26.1992C228.2 26.1992 228.2 29.2992 230.2 29.2992Z" fill="#405B91"/>
<path d="M202 169.299C196.8 169.299 191.7 169.299 186.5 169.299C186.2 169.299 185.9 169.299 185.6 169.199C185 169.099 184.7 168.699 184.6 168.099C184.6 167.399 184.9 166.999 185.5 166.799C185.8 166.699 186.2 166.699 186.5 166.699C196.8 166.699 207.2 166.699 217.5 166.699C217.8 166.699 218.1 166.699 218.4 166.799C219.1 166.999 219.4 167.399 219.4 168.099C219.4 168.799 219 169.199 218.3 169.299C218 169.399 217.7 169.299 217.4 169.299C212.3 169.299 207.2 169.299 202 169.299Z" fill="#405B91"/>
<path d="M214.6 173.201C210.3 173.201 206 173.201 201.7 173.201C201.4 173.201 201.1 173.201 200.8 173.201C200.1 173.101 199.7 172.601 199.8 172.001C199.9 171.501 200.3 171.101 200.6 170.801C200.8 170.601 201.3 170.701 201.7 170.701C210.3 170.701 218.9 170.701 227.5 170.701C227.8 170.701 228.2 170.701 228.5 170.801C229.1 171.001 229.4 171.501 229.4 172.101C229.4 172.801 229 173.201 228.3 173.301C228 173.301 227.7 173.301 227.4 173.301C223.2 173.201 218.9 173.201 214.6 173.201Z" fill="#405B91"/>
<path d="M190.9 173.2C189.3 173.2 187.7 173.2 186.2 173.2C185.1 173.2 184.6 172.8 184.6 171.9C184.6 171.1 185.1 170.6 186.2 170.6C189.4 170.6 192.7 170.6 195.9 170.6C196.9 170.6 197.5 171.1 197.5 171.9C197.5 172.7 196.9 173.2 195.9 173.2C194.2 173.2 192.6 173.2 190.9 173.2Z" fill="#405B91"/>
<path d="M225.7 169.2C225 169.2 224.2 169.2 223.5 169.2C222.6 169.2 222.2 168.7 222.2 167.9C222.2 167.2 222.7 166.6 223.5 166.6C225 166.6 226.6 166.6 228.1 166.6C229 166.6 229.4 167.1 229.4 167.9C229.4 168.7 228.9 169.2 228 169.2C227.3 169.3 226.5 169.3 225.7 169.2Z" fill="#405B91"/>
<circle cx="177" cy="145" r="3" fill="#405B91"/>
<circle cx="192" cy="145" r="3" fill="#405B91"/>
<circle cx="207" cy="145" r="3" fill="#405B91"/>
<circle cx="222" cy="145" r="3" fill="#405B91"/>
<circle cx="237" cy="145" r="3" fill="#405B91"/>
</g>
<defs>
<clipPath id="clip0_37_34807">
<rect width="400.5" height="229.5" fill="white"/>
</clipPath>
</defs>
</svg>
