<svg width="26" height="32" viewBox="0 0 26 32" fill="none" xmlns="http://www.w3.org/2000/svg">
<path d="M15.7441 0.0123574C15.7441 1.95714 15.7441 3.80648 15.7441 5.65581C15.7441 6.33589 15.7319 7.00404 15.7563 7.68411C15.8174 9.42607 17.052 10.6311 18.8367 10.643C20.9758 10.6669 23.1149 10.655 25.2541 10.655C25.4741 10.655 25.6941 10.655 25.9753 10.655C25.9753 10.9294 25.9753 11.1442 25.9753 11.3589C25.9753 17.2649 25.9264 23.1708 25.9997 29.0767C26.0242 31.0693 24.5329 32.0118 23.0171 31.9999C16.3308 31.9641 9.65673 31.9641 2.97042 31.9999C1.43024 32.0118 -0.0121465 31.0335 7.71405e-05 29.1245C0.0489716 20.3789 0.0489716 11.6333 7.71405e-05 2.87584C-0.0121465 0.954922 1.45469 -0.0234362 2.95819 0.000426215C6.96754 0.048151 10.9891 0.0123574 14.9985 0.0123574C15.2185 0.0123574 15.4385 0.0123574 15.7441 0.0123574ZM19.0445 22.0373C19.4356 22.7055 19.8146 23.3736 20.2302 24.0298C20.3279 24.185 20.5113 24.3639 20.658 24.3759C21.1714 24.4236 21.697 24.3878 22.3326 24.3878C21.5381 23.1111 20.8169 21.93 20.0835 20.7368C20.8169 19.7943 21.5381 18.8756 22.3082 17.8734C21.9904 17.8614 21.7826 17.8734 21.5992 17.8376C20.6947 17.6825 20.0713 17.9927 19.6434 18.8159C19.3378 19.4125 18.8733 19.9375 18.4822 20.4982C18.4455 20.4863 18.4088 20.4744 18.3722 20.4505C18.3722 19.6034 18.3722 18.7682 18.3722 17.8972C17.8099 17.8972 17.2965 17.8972 16.7953 17.8972C16.7953 20.0806 16.7953 22.2163 16.7953 24.3401C17.3454 24.3401 17.8343 24.3401 18.3111 24.3401C18.5189 23.5407 17.981 22.5862 19.0445 22.0373ZM9.99899 24.3281C9.99899 24.2685 9.99899 24.2088 9.98677 24.1611C9.24113 22.1686 8.49549 20.188 7.73762 18.1955C7.50538 17.587 6.96754 17.933 6.57638 17.8614C6.28301 17.8018 6.06299 17.8614 5.92853 18.2194C5.21956 20.1641 4.48614 22.0851 3.76495 24.0179C3.72828 24.1134 3.7405 24.2327 3.72828 24.3759C3.93608 24.3878 4.09499 24.3997 4.25389 24.3997C5.26845 24.4116 5.25623 24.4116 5.64739 23.4929C5.7085 23.3498 5.91631 23.1947 6.06299 23.1827C6.68639 23.1469 7.32202 23.1708 7.92098 23.1708C8.4466 24.531 8.51994 24.5787 9.99899 24.3281ZM10.5857 24.3401C11.1358 24.3401 11.637 24.3401 12.1748 24.3401C12.1748 23.9583 12.1748 23.6242 12.1748 23.2901C12.1748 22.9441 12.1748 22.5862 12.1748 22.2402C12.8226 22.1805 13.3849 22.1567 13.9472 22.0851C15.1085 21.918 15.793 21.2022 15.8297 20.1761C15.8786 19.0784 15.2429 18.112 14.1184 17.9688C12.9693 17.8256 11.7836 17.933 10.5857 17.933C10.5857 20.0448 10.5857 22.1686 10.5857 24.3401ZM17.3209 1.59921C17.3209 3.60365 17.3087 5.60809 17.3209 7.61253C17.3332 8.59089 17.9199 9.12779 18.9589 9.12779C20.768 9.13972 22.5771 9.12779 24.3862 9.12779C24.5329 9.12779 24.6796 9.092 24.8996 9.0562C22.3693 6.44327 19.9123 3.89 17.3821 1.27706C17.3454 1.45603 17.3209 1.52762 17.3209 1.59921ZM6.78418 19.8659C6.56416 20.5459 6.35636 21.2141 6.12411 21.93C6.62528 21.93 7.0531 21.93 7.54205 21.93C7.3098 21.2141 7.102 20.534 6.8942 19.8659C6.85752 19.8659 6.82085 19.8659 6.78418 19.8659ZM13.4949 20.9039C13.9961 20.88 14.1917 20.5459 14.2039 20.1045C14.2161 19.6272 14.045 19.2096 13.5316 19.1142C13.1038 19.0426 12.6637 19.1023 12.2115 19.1023C12.2115 19.7346 12.2115 20.3073 12.2115 20.9158C12.6637 20.9158 13.0793 20.9277 13.4949 20.9039Z" fill="#2D2D2D"/>
</svg>
