<svg width="26" height="32" viewBox="0 0 26 32" fill="none" xmlns="http://www.w3.org/2000/svg">
<path d="M15.744 0.0123574C15.744 1.95714 15.744 3.80648 15.744 5.65581C15.744 6.33589 15.7318 7.00404 15.7563 7.68411C15.8174 9.42607 17.052 10.6311 18.8366 10.643C20.9757 10.6669 23.1149 10.655 25.254 10.655C25.474 10.655 25.6941 10.655 25.9752 10.655C25.9752 10.9294 25.9752 11.1442 25.9752 11.3589C25.9752 17.2649 25.9263 23.1708 25.9996 29.0767C26.0241 31.0693 24.5328 32.0118 23.0171 31.9999C16.3308 31.9641 9.65667 31.9641 2.97035 31.9999C1.43018 32.0118 -0.0122075 31.0335 1.61054e-05 29.1245C0.0489106 20.3789 0.0489106 11.6333 1.61054e-05 2.87584C-0.0122075 0.954922 1.45463 -0.0234362 2.95813 0.000426215C6.96748 0.048151 10.989 0.0123574 14.9984 0.0123574C15.2184 0.0123574 15.4384 0.0123574 15.744 0.0123574ZM19.0444 22.0373C19.4356 22.7055 19.8145 23.3736 20.2301 24.0298C20.3279 24.185 20.5112 24.3639 20.6579 24.3759C21.1713 24.4236 21.6969 24.3878 22.3326 24.3878C21.538 23.1111 20.8168 21.93 20.0834 20.7368C20.8168 19.7943 21.538 18.8756 22.3081 17.8734C21.9903 17.8614 21.7825 17.8734 21.5991 17.8376C20.6946 17.6825 20.0712 17.9927 19.6434 18.8159C19.3378 19.4125 18.8733 19.9375 18.4821 20.4982C18.4454 20.4863 18.4088 20.4744 18.3721 20.4505C18.3721 19.6034 18.3721 18.7682 18.3721 17.8972C17.8098 17.8972 17.2964 17.8972 16.7953 17.8972C16.7953 20.0806 16.7953 22.2163 16.7953 24.3401C17.3453 24.3401 17.8343 24.3401 18.311 24.3401C18.5188 23.5407 17.981 22.5862 19.0444 22.0373ZM9.99893 24.3281C9.99893 24.2685 9.99893 24.2088 9.98671 24.1611C9.24107 22.1686 8.49543 20.188 7.73756 18.1955C7.50531 17.587 6.96748 17.933 6.57632 17.8614C6.28295 17.8018 6.06293 17.8614 5.92847 18.2194C5.2195 20.1641 4.48608 22.0851 3.76489 24.0179C3.72822 24.1134 3.74044 24.2327 3.72822 24.3759C3.93602 24.3878 4.09493 24.3997 4.25383 24.3997C5.26839 24.4116 5.25617 24.4116 5.64733 23.4929C5.70844 23.3498 5.91624 23.1947 6.06293 23.1827C6.68633 23.1469 7.32196 23.1708 7.92092 23.1708C8.44653 24.531 8.51988 24.5787 9.99893 24.3281ZM10.5857 24.3401C11.1357 24.3401 11.6369 24.3401 12.1747 24.3401C12.1747 23.9583 12.1747 23.6242 12.1747 23.2901C12.1747 22.9441 12.1747 22.5862 12.1747 22.2402C12.8226 22.1805 13.3849 22.1567 13.9472 22.0851C15.1084 21.918 15.7929 21.2022 15.8296 20.1761C15.8785 19.0784 15.2429 18.112 14.1183 17.9688C12.9693 17.8256 11.7836 17.933 10.5857 17.933C10.5857 20.0448 10.5857 22.1686 10.5857 24.3401ZM17.3209 1.59921C17.3209 3.60365 17.3087 5.60809 17.3209 7.61253C17.3331 8.59089 17.9198 9.12779 18.9588 9.12779C20.7679 9.13972 22.577 9.12779 24.3861 9.12779C24.5328 9.12779 24.6795 9.092 24.8995 9.0562C22.3692 6.44327 19.9123 3.89 17.382 1.27706C17.3453 1.45603 17.3209 1.52762 17.3209 1.59921ZM6.78412 19.8659C6.5641 20.5459 6.3563 21.2141 6.12405 21.93C6.62521 21.93 7.05304 21.93 7.54199 21.93C7.30974 21.2141 7.10194 20.534 6.89413 19.8659C6.85746 19.8659 6.82079 19.8659 6.78412 19.8659ZM13.4949 20.9039C13.9961 20.88 14.1916 20.5459 14.2039 20.1045C14.2161 19.6272 14.0449 19.2096 13.5316 19.1142C13.1037 19.0426 12.6637 19.1023 12.2114 19.1023C12.2114 19.7346 12.2114 20.3073 12.2114 20.9158C12.6637 20.9158 13.0793 20.9277 13.4949 20.9039Z" fill="#2D2D2D"/>
</svg>
