<svg width="24" height="22" viewBox="0 0 24 22" fill="none" xmlns="http://www.w3.org/2000/svg">
<path d="M12.0006 1.35775C12.1133 1.17149 12.1922 1.04344 12.271 0.927023C12.8682 0.0189953 13.8822 -0.248756 14.716 0.298389C15.5272 0.822251 15.7863 1.86998 15.2793 2.80129C14.254 4.67555 13.2062 6.52653 12.1696 8.38915C11.2232 10.0772 10.2768 11.7768 9.28531 13.5696C10.1867 13.5696 11.0091 13.6511 11.8091 13.5463C12.8119 13.4182 13.3865 13.7908 13.7808 14.7453C14.1188 15.5602 14.6146 16.2937 15.0765 17.1202C14.9188 17.1435 14.7948 17.1784 14.6822 17.1784C10.4007 17.1784 6.11931 17.1784 1.83789 17.1784C0.936543 17.1784 0.237996 16.6429 0.0577253 15.8629C-0.145079 14.9665 0.192928 14.1284 0.970344 13.7675C1.22948 13.6394 1.54496 13.5812 1.83789 13.5812C2.82938 13.5579 3.83213 13.5928 4.82362 13.5579C5.01516 13.5463 5.28556 13.3949 5.3757 13.232C6.85166 10.6127 8.31636 7.99334 9.75852 5.36239C9.84866 5.19941 9.82612 4.88509 9.74725 4.69883C9.46558 4.10512 9.11631 3.54633 8.80084 2.97591C8.21496 1.9049 8.40649 0.822251 9.28531 0.275106C10.1867 -0.283681 11.1444 0.0189953 11.8091 1.09C11.8542 1.15985 11.8992 1.21806 12.0006 1.35775ZM13.0147 9.75119C12.8457 10.0422 12.8569 10.2518 13.0259 10.5428C13.9047 12.0911 14.7723 13.6627 15.6398 15.2226C16.7102 17.1318 17.7693 19.0527 18.8509 20.9502C19.3579 21.8466 20.2029 22.1958 21.0367 21.8699C22.0958 21.4624 22.5014 20.3099 21.9606 19.2506C21.6113 18.5754 21.2282 17.9118 20.8226 17.1784C21.3296 17.1784 21.7352 17.1784 22.1521 17.1784C23.2563 17.1668 24.0111 16.4217 23.9999 15.3623C23.9886 14.303 23.245 13.5812 22.1296 13.5696C21.2057 13.5579 20.2931 13.5463 19.3692 13.5812C18.9298 13.6045 18.7157 13.4415 18.5016 13.0573C17.3299 10.9037 16.1131 8.76168 14.8624 6.51489C14.1977 7.65574 13.6231 8.71511 13.0147 9.75119ZM2.63784 18.6685C2.52518 18.6685 2.35617 18.7151 2.29984 18.7965C1.65762 19.7046 1.52242 20.7057 2.42377 21.5556C3.16739 22.254 4.36168 22.1143 4.94756 21.2412C5.4771 20.4496 5.90524 19.5998 6.44605 18.6685C5.07149 18.6569 3.85467 18.6569 2.63784 18.6685Z" fill="white"/>
</svg>
