<svg width="84" height="48" viewBox="0 0 84 48" fill="none" xmlns="http://www.w3.org/2000/svg">
<circle cx="60" cy="24" r="24" fill="#9AEFCC"/>
<path d="M58.6667 17.3077H51.5556C49.6 17.3077 48 18.9 48 20.8462V24.3846C48 26.3308 49.6 27.9231 51.5556 27.9231H53.3333V33.2308C53.3333 34.2038 54.1333 35 55.1111 35C56.0889 35 56.8889 34.2038 56.8889 33.2308V27.9231H58.6667L66.0429 32.3275C66.7094 32.7255 67.5556 32.2453 67.5556 31.4689V13.7618C67.5556 12.9855 66.7094 12.5052 66.0429 12.9032L58.6667 17.3077Z" fill="#00BF91"/>
<path d="M72 22.6154C72 20.2623 70.9689 18.1392 69.3333 16.6885V28.5246C70.9689 27.0915 72 24.9685 72 22.6154Z" fill="#00BF91"/>
<circle cx="24" cy="24" r="24" fill="white"/>
<path d="M21 13C18.0177 13 15.6 15.4888 15.6 18.5588C15.6 21.6289 18.0177 24.1176 21 24.1176C23.9823 24.1176 26.4 21.6289 26.4 18.5588C26.4 15.4888 23.9823 13 21 13Z" fill="#00BF91"/>
<path d="M27.6 20.4118C27.6 18.3651 29.2118 16.7059 31.2 16.7059C33.1882 16.7059 34.8 18.3651 34.8 20.4118C34.8 22.4585 33.1882 24.1176 31.2 24.1176C29.2118 24.1176 27.6 22.4585 27.6 20.4118Z" fill="#00BF91"/>
<path d="M30.001 25.3532H32.4C34.3882 25.3532 36 27.0124 36 29.0591V30.9121C36 31.9354 35.1941 32.765 34.2 32.765H32.4V30.2941C32.4 28.2739 31.4578 26.4801 30.001 25.3532Z" fill="#00BF91"/>
<path d="M12 30.2941C12 27.5652 14.149 25.3529 16.8 25.3529H25.2C27.851 25.3529 30 27.5652 30 30.2941V32.1471C30 33.1704 29.1941 34 28.2 34H13.8C12.8059 34 12 33.1704 12 32.1471V30.2941Z" fill="#00BF91"/>
</svg>
