<svg width="156" height="36" viewBox="0 0 156 36" fill="none" xmlns="http://www.w3.org/2000/svg">
<path d="M49.4982 6.53055C50.1458 5.90462 50.4137 5.02832 50.4137 4.04769L50.436 3.60954H46.5955V4.59016H49.4982C49.4982 5.2161 49.2303 5.69598 48.8284 6.07154C48.1585 6.6766 47.4887 6.92697 46.5732 6.92697C45.7693 6.92697 45.0995 6.57228 44.4519 6.07154C43.8044 5.57079 43.5365 4.84054 43.5365 3.96423C43.5365 3.08793 43.7821 2.35768 44.4519 1.85693C44.9878 1.25186 45.7693 1.00149 46.5732 1.00149C47.511 1.00149 48.1585 1.231 48.6944 1.85693L49.3643 1.231C49.0963 0.876304 48.7167 0.625932 48.1808 0.375559C47.6449 0.125186 47.1314 0 46.5955 0C45.4121 0 44.4966 0.354694 43.6928 1.10581C42.9113 1.83607 42.5093 2.71237 42.5093 3.81818C42.5093 4.92399 42.8889 5.77944 43.6928 6.53055C44.4743 7.26081 45.4121 7.63636 46.5955 7.63636C47.7789 7.63636 48.6944 7.28167 49.4982 6.53055Z" fill="white"/>
<path d="M52.9145 0.959761H56.5094V0.104322H51.8874V7.51118H56.5094V6.53055H52.9369V4.17288H56.2415V3.31744H52.9145V0.959761Z" fill="white"/>
<path d="M60.8635 7.51118H59.8141V0.959761H57.5589V0.104322H63.1187V0.959761H60.8635V7.51118Z" fill="white"/>
<path d="M66.9593 0.104322V7.51118H68.0087V0.104322H66.9593Z" fill="white"/>
<path d="M72.3628 7.51118H71.4697V0.959761H69.1921V0.104322H74.618V0.959761H72.3628V7.51118Z" fill="white"/>
<path fill-rule="evenodd" clip-rule="evenodd" d="M82.1651 7.63636C83.3485 7.63636 84.264 7.28167 85.0678 6.53055C85.8717 5.77944 86.2513 4.92399 86.2513 3.81818C86.2513 2.71237 85.8717 1.85693 85.0678 1.10581C84.2863 0.375559 83.3485 0 82.1651 0C80.9817 0 80.0439 0.375559 79.2624 1.10581C78.4809 1.83607 78.079 2.71237 78.079 3.81818C78.079 4.92399 78.4585 5.77944 79.2624 6.53055C80.0439 7.26081 80.9817 7.63636 82.1651 7.63636ZM82.1651 6.76006C81.3613 6.76006 80.5798 6.40537 80.0439 5.90462C79.3964 5.42474 79.1284 4.67362 79.1284 3.79732C79.1284 2.92101 79.508 2.19076 80.0439 1.69001C80.5798 1.08495 81.3613 0.834575 82.1651 0.834575C82.9689 0.834575 83.7504 1.18927 84.2863 1.69001C84.9339 2.19076 85.2018 2.92101 85.2018 3.79732C85.2018 4.67362 84.8222 5.40388 84.2863 5.90462C83.7504 6.50969 82.9689 6.76006 82.1651 6.76006Z" fill="white"/>
<path d="M87.725 7.51118V0.104322H88.9084L92.7489 5.92548V0.104322H93.7984V7.51118H92.7489L88.6404 1.46051V7.51118H87.725Z" fill="white"/>
<path fill-rule="evenodd" clip-rule="evenodd" d="M72.1607 25.2893C72.1607 21.9021 74.7435 19.4533 77.9892 19.4533C81.2349 19.4533 83.7949 21.7648 83.8177 25.2893C83.8177 28.6764 81.2349 31.1252 77.9892 31.1252C74.7435 31.1252 72.1607 28.5391 72.1607 25.2893ZM74.7435 25.1519C74.7435 27.1888 76.2292 28.6764 77.9892 28.6764C79.7492 28.6764 81.2349 27.1888 81.2349 25.1519C81.2349 22.9778 79.7492 21.6275 77.9892 21.6275C76.2292 21.6275 74.7435 23.1151 74.7435 25.1519Z" fill="white"/>
<path fill-rule="evenodd" clip-rule="evenodd" d="M65.3722 19.4533C62.1265 19.4533 59.5436 21.9021 59.5436 25.2893C59.5436 28.5391 62.1265 31.1252 65.3722 31.1252C68.6178 31.1252 71.2007 28.6764 71.2007 25.2893C71.2007 21.7648 68.6407 19.4533 65.3722 19.4533ZM65.3722 28.6764C63.6122 28.6764 62.1265 27.1888 62.1265 25.1519C62.1265 23.1151 63.6122 21.6275 65.3722 21.6275C67.1321 21.6275 68.6178 22.9778 68.6178 25.1519C68.6407 27.1888 67.1321 28.6764 65.3722 28.6764Z" fill="white"/>
<path d="M50.3552 23.6643V21.2155H58.7665C58.9036 21.6275 58.9036 22.1538 58.9036 22.7031C58.9036 24.4654 58.3551 26.7769 56.7322 28.4018C55.0865 30.164 53.2123 30.9879 50.4923 30.9879C45.6238 30.9879 41.4181 26.9142 41.4181 22.0394C41.4181 17.1647 45.6238 13.0909 50.4923 13.0909C53.2123 13.0909 55.1094 14.1894 56.5951 15.5397L54.8351 17.302C53.738 16.3636 52.2523 15.5397 50.3552 15.5397C46.8123 15.5397 43.9781 18.3776 43.9781 22.0394C43.9781 25.7012 46.698 28.5391 50.3552 28.5391C52.6637 28.5391 54.0123 27.6008 54.8351 26.7769C55.498 26.1132 56.0465 25.0146 56.1837 23.6643H50.3552Z" fill="white"/>
<path fill-rule="evenodd" clip-rule="evenodd" d="M111.84 23.1151C111.292 21.7648 109.943 19.4533 106.972 19.4533C104 19.4533 101.555 21.7648 101.555 25.2893C101.555 28.5391 104 31.1252 107.246 31.1252C109.829 31.1252 111.452 29.5003 111.977 28.5391L110.08 27.1888C109.395 28.1271 108.595 28.8137 107.246 28.8137C105.898 28.8137 105.075 28.2645 104.412 27.0515L112.137 23.8017L111.84 23.1151ZM103.978 25.0146C103.978 22.8404 105.738 21.6275 106.949 21.6275C107.886 21.6275 108.846 22.1767 109.12 22.8404L103.978 25.0146Z" fill="white"/>
<path d="M100.206 30.576H97.6233V13.6173H100.206V30.576Z" fill="white"/>
<path fill-rule="evenodd" clip-rule="evenodd" d="M93.5548 20.6662C92.8691 19.9797 91.7948 19.316 90.4462 19.316C87.612 19.316 84.892 21.9021 84.892 25.1519C84.892 28.4018 87.4748 30.8506 90.4462 30.8506C91.7948 30.8506 92.8919 30.164 93.4176 29.5003H93.5548V30.3242C93.5548 32.4984 92.3434 33.7114 90.4462 33.7114C88.9605 33.7114 87.8634 32.6357 87.612 31.6745L85.4406 32.6128C86.1263 34.1004 87.7491 36 90.5834 36C93.5548 36 96.0005 34.2378 96.0005 30.0267V19.7279H93.5548V20.6662ZM90.5834 28.6764C88.8234 28.6764 87.3377 27.1888 87.3377 25.1519C87.3377 23.1151 88.8234 21.6275 90.5834 21.6275C92.3434 21.6275 93.6919 23.1151 93.6919 25.1519C93.6919 27.1888 92.3434 28.6764 90.5834 28.6764Z" fill="white"/>
<path fill-rule="evenodd" clip-rule="evenodd" d="M117.532 13.6173H123.634C126.469 13.6173 129.189 15.6542 129.189 18.904C129.189 22.1538 126.469 24.1907 123.634 24.1907H120.115V30.576H117.532V13.6173ZM120.115 21.7648H123.772C125.532 21.7648 126.606 20.2543 126.743 18.7667C126.743 17.5537 125.669 15.9288 123.772 15.9288H120.115V21.7648Z" fill="white"/>
<path fill-rule="evenodd" clip-rule="evenodd" d="M139.337 19.316C137.44 19.316 135.543 20.1399 134.857 21.9021L137.166 22.8404C137.714 21.9021 138.514 21.6275 139.474 21.6275C140.823 21.6275 142.057 22.4514 142.194 23.8017V23.939C141.783 23.6643 140.709 23.2524 139.612 23.2524C137.166 23.2524 134.743 24.6027 134.743 27.0515C134.743 29.363 136.777 30.8506 138.949 30.8506C140.709 30.8506 141.531 30.0267 142.194 29.2257H142.331V30.576H144.777V24.0763C144.48 21.0782 142.171 19.316 139.337 19.316ZM139.063 28.6764C138.24 28.6764 137.029 28.2645 137.029 27.1888C137.029 25.8385 138.514 25.4266 139.749 25.4266C140.713 25.4266 141.253 25.6477 141.849 25.8915C141.918 25.9194 141.987 25.9476 142.057 25.9758C141.783 27.5779 140.411 28.6764 139.063 28.6764Z" fill="white"/>
<path d="M150.446 27.0515L153.28 19.7279H156L149.097 35.7254H146.514L149.097 30.0267L144.617 19.7279H147.337L150.309 27.0515H150.446Z" fill="white"/>
<path d="M130.537 30.576H133.12V13.6173H130.537V30.576Z" fill="white"/>
<path d="M0.244932 32.224C0.299199 32.4388 0.353272 32.6527 0.393975 32.8656L0.720339 32.5305C5.73882 27.3788 10.6512 22.3359 15.5834 17.2625C13.422 15.2106 11.2508 13.1527 9.07325 11.0887C6.25722 8.41955 3.4305 5.74027 0.600493 3.05085C0.15648 3.72001 0.00159111 4.42104 0.00159111 5.15392C0.00159111 6.87037 0.00117807 8.58681 0.000765037 10.3033C-0.000887107 17.169 -0.00253925 24.0348 0.0222429 30.9006C0.0222429 31.3428 0.133994 31.785 0.244932 32.224Z" fill="white"/>
<path d="M22.8838 24.9844C17.3904 28.0965 11.9074 31.2086 6.4243 34.3313C4.99933 35.1386 3.57435 35.2554 2.09775 34.4588L2.10016 34.4563C7.15903 29.2526 12.187 24.0807 17.2768 18.8664C18.0041 19.5563 18.7369 20.2519 19.4762 20.9537C20.7627 22.175 22.0689 23.415 23.4001 24.6763C23.2968 24.7348 23.2065 24.7905 23.1226 24.8423C23.0387 24.8941 22.9612 24.9419 22.8838 24.9844Z" fill="white"/>
<path d="M21.6343 10.3372C21.7996 10.4328 21.9648 10.5284 22.0784 10.6028C21.2368 11.4631 20.4005 12.3207 19.5589 13.1837C18.7276 14.0362 17.8911 14.894 17.0393 15.7649C13.2245 12.1369 9.37861 8.48986 5.497 4.80888C4.36699 3.73728 3.23394 2.6628 2.09775 1.58508C3.38849 0.894678 4.64825 0.777841 5.87703 1.43638C7.49993 2.29957 9.09856 3.2127 10.7008 4.12792C11.1885 4.40645 11.6764 4.68517 12.1655 4.96274C14.4956 6.27865 16.8201 7.60035 19.1473 8.92356C19.9759 9.39466 20.8048 9.86595 21.6343 10.3372Z" fill="white"/>
<path d="M25.5375 23.4549C25.4343 23.5186 25.1968 23.4867 25.1039 23.4018C23.2547 21.6559 21.4055 19.902 19.5698 18.1609C19.2835 17.8894 18.9976 17.6182 18.7121 17.3475C19.9211 16.111 21.1163 14.8792 22.3221 13.6365C22.929 13.0111 23.5385 12.3829 24.1539 11.7499C24.6454 12.0325 25.1441 12.3114 25.6454 12.5918C26.84 13.2599 28.0498 13.9365 29.2136 14.6921C31.5988 16.2428 31.5885 19.7586 29.2239 21.3306C28.3124 21.9339 27.3583 22.4558 26.4037 22.9781C26.1146 23.1362 25.8255 23.2944 25.5375 23.4549Z" fill="white"/>
</svg>
