<svg width="90" height="48" viewBox="0 0 90 48" fill="none" xmlns="http://www.w3.org/2000/svg">
<rect width="90" height="48" rx="24" fill="#00BF91"/>
<g clip-path="url(#clip0_139_171)">
<path d="M24.0246 6.00006C33.9441 6.02458 42.0367 14.1416 41.9999 24.0366C41.9631 33.9561 33.8215 42.0609 23.9388 41.9996C13.9948 41.9383 5.93904 33.8212 6.00035 23.9263C6.06165 14.019 14.1542 5.97553 24.0246 6.00006ZM24.0246 25.6183C21.4497 25.6183 18.8748 25.6183 16.2999 25.6183C14.5956 25.6183 13.909 26.5134 14.3381 28.1319C15.5275 32.5092 19.3776 35.4152 24.0001 35.4152C28.6227 35.4152 32.4605 32.5092 33.6499 28.1197C34.079 26.5257 33.3924 25.6183 31.7371 25.6061C29.1744 25.6183 26.5995 25.6183 24.0246 25.6183ZM17.8939 16.6307C16.1651 16.692 14.7673 17.4032 13.7986 18.8745C13.2223 19.7451 13.3817 20.726 14.1542 21.2533C14.9389 21.7805 15.8708 21.5721 16.4961 20.7138C17.3054 19.6102 18.5193 19.6225 19.3408 20.7383C19.9416 21.5598 20.8612 21.7805 21.6337 21.2655C22.4184 20.7505 22.6023 19.7574 22.0383 18.8991C21.0574 17.44 19.6718 16.7043 17.8939 16.6307ZM34.5449 19.7206C34.5204 19.6348 34.4836 19.3527 34.3487 19.132C33.3924 17.5013 31.9455 16.643 30.0695 16.6552C28.218 16.6675 26.7712 17.5135 25.8516 19.132C25.2753 20.1252 25.8884 21.3391 27.0164 21.5107C27.7276 21.6211 28.2671 21.3268 28.684 20.726C29.199 19.9903 29.9101 19.6961 30.6335 20.0149C31.0136 20.1865 31.3324 20.5421 31.6145 20.8732C32.1294 21.4494 32.7793 21.6701 33.4782 21.4249C34.1403 21.2042 34.5449 20.6157 34.5449 19.7206Z" fill="white"/>
</g>
<path d="M66.0708 21.6105C68.5874 21.6105 71.0332 21.5899 73.4689 21.6208C74.7323 21.6413 75.7126 22.2275 76.2483 23.4101C76.7334 24.4796 76.4807 25.4771 75.8036 26.382C76.9557 28.7987 76.6121 30.043 74.4392 31.1948C74.8738 32.9944 74.2572 34.2798 72.5997 35.0203C72.5997 35.627 72.6907 36.2337 72.5795 36.7993C72.3269 38.0333 71.1343 38.9794 69.7901 38.9794C66.9501 38.9794 64.1 38.9897 61.26 38.8663C59.3903 38.784 57.6014 38.1567 55.8428 37.5192C55.7215 37.478 55.6002 37.2209 55.6002 37.0564C55.58 36.1514 55.5901 35.2362 55.5901 34.3313C55.5901 30.7012 55.5901 27.0711 55.58 23.4307C55.58 23.0707 55.671 22.8754 56.0045 22.7314C56.4997 22.5154 56.9545 22.2275 57.4195 21.9498C59.4812 20.7467 60.2898 18.7105 60.785 16.5201C61.0478 15.3581 61.1488 14.1549 61.2903 12.9723C61.3712 12.273 61.6643 11.9748 62.3616 11.9542C63.2611 11.9233 64.1404 11.985 64.949 12.4684C66.2932 13.2808 67.0208 14.484 66.9703 16.0676C66.9299 17.9187 66.7581 19.7697 66.0708 21.6105ZM48 37.8071C48 38.6504 48.3436 39 49.1623 39C50.274 39 51.3857 39 52.4975 39C53.3768 39 53.7103 38.6709 53.7103 37.7454C53.7204 36.3571 53.7103 34.9688 53.7103 33.5806C53.7103 30.0019 53.7103 26.4232 53.7103 22.8445C53.7103 21.9601 53.3768 21.6105 52.548 21.6002C51.4363 21.6002 50.3245 21.6002 49.2128 21.6002C48.3335 21.6002 48.0101 21.9395 48.0101 22.8445C48.0101 25.3126 48.0101 27.7806 48.0101 30.2384C48 32.7682 48 35.2876 48 37.8071ZM59.5217 7.52197C59.8046 8.13898 60.1078 8.74571 60.4313 9.35245C60.7244 9.91804 61.2499 10.0929 61.735 9.83577C62.1999 9.58897 62.3717 9.04394 62.1292 8.50919C61.8361 7.87161 61.5531 7.23403 61.1893 6.63758C61.0276 6.35993 60.694 6.19539 60.5525 6.08227C59.6227 6.08227 59.1982 6.8124 59.5217 7.52197ZM67.1421 6.5656C66.7581 7.22375 66.4245 7.92303 66.1112 8.62231C65.899 9.09536 66.1213 9.61982 66.5559 9.84606C66.9905 10.0723 67.5363 9.93861 67.7788 9.47585C68.1528 8.78685 68.5065 8.08757 68.8097 7.35743C69.0624 6.74042 68.5672 6.07199 67.8496 6C67.6171 6.1851 67.2937 6.31879 67.1421 6.5656ZM58.5009 13.8052C58.9961 13.7744 59.3498 13.4145 59.4004 12.9311C59.4408 12.4992 59.1578 11.9953 58.6929 11.9542C57.9046 11.8822 57.096 11.8822 56.2976 11.9542C55.8428 11.9953 55.5497 12.4992 55.5901 12.9311C55.6306 13.4042 55.9944 13.7744 56.4896 13.8052C56.8232 13.8258 57.1567 13.8052 57.4902 13.8052C57.8237 13.8052 58.1674 13.8258 58.5009 13.8052ZM71.6699 13.8052C71.7002 13.8052 71.7407 13.8052 71.771 13.8052C72.2662 13.7641 72.6098 13.4453 72.6604 12.9928C72.721 12.4581 72.4684 11.9953 71.9428 11.9336C71.1848 11.8616 70.3965 11.8616 69.6385 11.9336C69.1028 11.985 68.8502 12.4581 68.9108 12.9825C68.9613 13.4453 69.3454 13.7847 69.8608 13.8052C70.164 13.8155 70.4672 13.8052 70.7704 13.8052C71.0635 13.8052 71.3667 13.8052 71.6699 13.8052Z" fill="white"/>
<defs>
<clipPath id="clip0_139_171">
<rect width="36" height="36" fill="white" transform="translate(6 6)"/>
</clipPath>
</defs>
</svg>
