<svg width="36" height="32" viewBox="0 0 36 32" fill="none" xmlns="http://www.w3.org/2000/svg">
<path d="M22.5769 4.68519C22.9669 6.36536 24.4515 7.61701 26.2243 7.61701C28.294 7.61701 29.9719 5.91184 29.9719 3.8085C29.9719 1.70517 28.294 0 26.2243 0C24.4146 0 22.9054 1.30343 22.554 3.03716C19.5233 3.36748 17.1567 5.97969 17.1567 9.14541C17.1567 9.15255 17.1567 9.15791 17.1567 9.16505C13.8606 9.3061 10.851 10.2596 8.46149 11.7648C7.57423 11.0666 6.46032 10.6506 5.25154 10.6506C2.35081 10.6506 0 13.0396 0 15.9875C0 18.1265 1.2369 19.9692 3.02372 20.8209C3.19766 27.0166 9.8407 32 18.0123 32C26.1839 32 32.8357 27.0113 33.0009 20.8102C34.7736 19.9531 36 18.1158 36 15.9893C36 13.0414 33.6492 10.6524 30.7485 10.6524C29.545 10.6524 28.4363 11.0648 27.5508 11.7576C25.1403 10.2417 22.0972 9.28825 18.7678 9.16148C18.7678 9.15612 18.7678 9.15255 18.7678 9.14719C18.7678 6.87959 20.4264 4.99766 22.5769 4.68876V4.68519ZM8.25066 19.3746C8.33851 17.4391 9.60351 15.9536 11.0741 15.9536C12.5447 15.9536 13.6691 17.523 13.5813 19.4585C13.4934 21.394 12.3953 22.0975 10.923 22.0975C9.45066 22.0975 8.16281 21.3101 8.25066 19.3746ZM24.9523 15.9536C26.4246 15.9536 27.6896 17.4391 27.7757 19.3746C27.8635 21.3101 26.5739 22.0975 25.1034 22.0975C23.6328 22.0975 22.5329 21.3958 22.4451 19.4585C22.3572 17.523 23.4799 15.9536 24.9523 15.9536ZM23.2023 23.8527C23.4782 23.8813 23.6539 24.1723 23.5467 24.433C22.6419 26.631 20.5054 28.1754 18.0123 28.1754C15.5192 28.1754 13.3845 26.631 12.4779 24.433C12.3707 24.1723 12.5464 23.8813 12.8223 23.8527C14.4387 23.6866 16.1868 23.5956 18.0123 23.5956C19.8378 23.5956 21.5842 23.6866 23.2023 23.8527Z" fill="#484848"/>
</svg>
