<svg width="17" height="16" viewBox="0 0 17 16" fill="none" xmlns="http://www.w3.org/2000/svg">
<path d="M5.83448 8.74897L9.83482 5.14866C9.9231 5.06921 9.9231 4.93079 9.83482 4.85135L5.83448 1.25104C5.51272 0.961453 5 1.1898 5 1.62269V3.5L1.5 3.5C1.22386 3.5 1 3.72386 1 4L1 6C1 6.27615 1.22386 6.5 1.5 6.5H5V8.37732C5 8.81021 5.51272 9.03856 5.83448 8.74897Z" stroke="black" stroke-linecap="round"/>
<path d="M11.1655 7.25104L7.16518 10.8513C7.0769 10.9308 7.0769 11.0692 7.16518 11.1487L11.1655 14.749C11.4873 15.0386 12 14.8102 12 14.3773L12 12.5H15.5C15.7761 12.5 16 12.2762 16 12V10C16 9.72387 15.7761 9.50001 15.5 9.50001H12V7.62269C12 7.1898 11.4873 6.96146 11.1655 7.25104Z" stroke="black" stroke-linecap="round"/>
</svg>
