<svg width="31" height="36" viewBox="0 0 31 36" fill="none" xmlns="http://www.w3.org/2000/svg">
<path d="M24.1225 16.6853C23.9673 16.611 23.8096 16.5394 23.6499 16.471C23.3718 11.3509 20.5716 8.41969 15.8697 8.38969C15.8484 8.38956 15.8272 8.38956 15.8059 8.38956C12.9936 8.38956 10.6546 9.58892 9.21495 11.7714L11.8008 13.5437C12.8763 11.9134 14.5641 11.5659 15.8071 11.5659C15.8215 11.5659 15.8359 11.5659 15.8501 11.566C17.3983 11.5759 18.5665 12.0256 19.3226 12.9026C19.8729 13.5411 20.2409 14.4234 20.4231 15.537C19.0505 15.3039 17.5661 15.2322 15.9791 15.3231C11.5088 15.5804 8.63488 18.1852 8.8279 21.8048C8.92584 23.6408 9.84133 25.2203 11.4056 26.2521C12.7282 27.1243 14.4316 27.5509 16.2019 27.4543C18.5399 27.3263 20.374 26.4351 21.6535 24.8055C22.6252 23.568 23.2399 21.9643 23.5112 19.9436C24.6254 20.6154 25.4512 21.4995 25.9072 22.5623C26.6827 24.3688 26.7279 27.3375 24.3034 29.7577C22.1792 31.878 19.6257 32.7952 15.7668 32.8236C11.4862 32.7919 8.24879 31.4203 6.14394 28.7469C4.17292 26.2436 3.15429 22.6279 3.11629 18C3.15429 13.3721 4.17292 9.7563 6.14394 7.25301C8.24879 4.57967 11.4861 3.20813 15.7667 3.17634C20.0784 3.20837 23.3722 4.58651 25.5576 7.27275C26.6292 8.59005 27.4371 10.2467 27.9697 12.1782L31 11.3704C30.3544 8.99291 29.3386 6.94419 27.9562 5.24513C25.1545 1.80125 21.0569 0.0365903 15.7773 0H15.7562C10.4873 0.0364631 6.43558 1.80784 3.71366 5.26487C1.29152 8.3412 0.042113 12.6217 0.000131368 17.9873L0 18L0.000131368 18.0127C0.042113 23.3783 1.29152 27.6589 3.71366 30.7352C6.43558 34.1921 10.4873 35.9636 15.7562 36H15.7773C20.4616 35.9676 23.7635 34.7423 26.4835 32.0271C30.0423 28.4749 29.9352 24.0223 28.7622 21.2889C27.9207 19.3288 26.3163 17.7368 24.1225 16.6853ZM16.0346 24.2826C14.0753 24.3928 12.0398 23.5142 11.9395 21.6322C11.8651 20.2369 12.9334 18.6799 16.1548 18.4944C16.5237 18.4731 16.8858 18.4627 17.2414 18.4627C18.4115 18.4627 19.5062 18.5763 20.5014 18.7937C20.1302 23.4253 17.9528 24.1774 16.0346 24.2826Z" fill="#484848"/>
</svg>
