<svg width="19" height="16" viewBox="0 0 19 16" fill="none" xmlns="http://www.w3.org/2000/svg">
<path fill-rule="evenodd" clip-rule="evenodd" d="M17 4.62478L7.02434 14.6004L2 9.57487L4.62478 6.95009L7.02434 9.34964L14.3752 2L17 4.62478Z" fill="white"/>
<path d="M17 4.62478L17.5303 5.15511L18.0607 4.62478L17.5303 4.09445L17 4.62478ZM7.02434 14.6004L6.49394 15.1307L7.02427 15.6612L7.55467 15.1308L7.02434 14.6004ZM2 9.57487L1.46967 9.04454L0.939405 9.5748L1.4696 10.1051L2 9.57487ZM4.62478 6.95009L5.15511 6.41976L4.62478 5.88943L4.09445 6.41976L4.62478 6.95009ZM7.02434 9.34964L6.49401 9.87997L7.02429 10.4103L7.55462 9.88002L7.02434 9.34964ZM14.3752 2L14.9055 1.46967L14.3753 0.939384L13.8449 1.46963L14.3752 2ZM16.4697 4.09445L6.49401 14.0701L7.55467 15.1308L17.5303 5.15511L16.4697 4.09445ZM7.55473 14.0702L2.5304 9.04461L1.4696 10.1051L6.49394 15.1307L7.55473 14.0702ZM2.53033 10.1052L5.15511 7.48042L4.09445 6.41976L1.46967 9.04454L2.53033 10.1052ZM4.09445 7.48042L6.49401 9.87997L7.55467 8.81931L5.15511 6.41976L4.09445 7.48042ZM7.55462 9.88002L14.9055 2.53037L13.8449 1.46963L6.49405 8.81927L7.55462 9.88002ZM13.8449 2.53033L16.4697 5.15511L17.5303 4.09445L14.9055 1.46967L13.8449 2.53033Z" fill="black"/>
</svg>
