<svg width="9" height="9" viewBox="0 0 9 9" fill="none" xmlns="http://www.w3.org/2000/svg">
<path fill-rule="evenodd" clip-rule="evenodd" d="M4.50001 -3.21889e-07C4.22387 -3.4603e-07 4.00001 0.223857 4.00001 0.5L4.00001 7.29289L1.67158 4.96447C1.47632 4.7692 1.15974 4.7692 0.964477 4.96447C0.769214 5.15973 0.769214 5.47631 0.964477 5.67157L4.14646 8.85355C4.34172 9.04882 4.6583 9.04882 4.85356 8.85355L8.03554 5.67157C8.23081 5.47631 8.23081 5.15973 8.03554 4.96447C7.84028 4.7692 7.5237 4.7692 7.32844 4.96447L5.00001 7.29289L5.00001 0.5C5.00001 0.223857 4.77615 -2.97748e-07 4.50001 -3.21889e-07Z" fill="#B90035"/>
</svg>
