<svg width="24" height="24" viewBox="0 0 24 24" fill="none" xmlns="http://www.w3.org/2000/svg">
<path d="M4.39844 8.35938H5.28125V19.5625H4.07812V10.6016H2V9.88281C2.36458 9.8724 2.69271 9.8125 2.98438 9.70312C3.27604 9.58854 3.50781 9.46094 3.67969 9.32031C3.85156 9.17448 3.99219 9.02865 4.10156 8.88281C4.21615 8.73698 4.29427 8.61719 4.33594 8.52344L4.39844 8.35938Z" fill="#82679D"/>
<path d="M14.8438 14.3594H7.64062C7.64062 13.625 7.78906 12.9531 8.08594 12.3438C8.38802 11.7344 8.76042 11.2448 9.20312 10.875C9.64583 10.5 10.125 10.125 10.6406 9.75C11.1562 9.375 11.6354 9.04167 12.0781 8.75C12.5208 8.45833 12.8906 8.09635 13.1875 7.66406C13.4896 7.23177 13.6406 6.77083 13.6406 6.28125C13.6406 5.63021 13.4271 5.10677 13 4.71094C12.5729 4.3151 11.987 4.11719 11.2422 4.11719C10.8672 4.11719 10.526 4.1849 10.2188 4.32031C9.91667 4.45052 9.68229 4.60938 9.51562 4.79688C9.35417 4.98438 9.21875 5.17188 9.10938 5.35938C9.00521 5.54688 8.93229 5.70833 8.89062 5.84375L8.84375 6.03906L7.79688 5.5625C7.80729 5.48958 7.83073 5.39583 7.86719 5.28125C7.90885 5.16667 8.01302 4.96354 8.17969 4.67188C8.35156 4.38021 8.55208 4.1224 8.78125 3.89844C9.01042 3.67448 9.34375 3.46875 9.78125 3.28125C10.2188 3.09375 10.7057 3 11.2422 3C12.3099 3 13.1771 3.3125 13.8438 3.9375C14.5104 4.5625 14.8438 5.34375 14.8438 6.28125C14.8438 6.82292 14.7188 7.32552 14.4688 7.78906C14.224 8.2526 13.9141 8.64323 13.5391 8.96094C13.1693 9.27344 12.75 9.60156 12.2812 9.94531C11.8125 10.2839 11.3672 10.599 10.9453 10.8906C10.5234 11.1771 10.1302 11.526 9.76562 11.9375C9.40625 12.349 9.15104 12.7839 9 13.2422H14.8438V14.3594Z" fill="#82679D"/>
<path d="M19.4453 14.7969C19.4974 14.8073 19.5703 14.8307 19.6641 14.8672C19.763 14.8984 19.9323 14.9844 20.1719 15.125C20.4115 15.2604 20.6224 15.4219 20.8047 15.6094C20.987 15.7969 21.151 16.0677 21.2969 16.4219C21.4479 16.7708 21.5234 17.1641 21.5234 17.6016C21.5234 18.487 21.1771 19.2552 20.4844 19.9062C19.7917 20.5521 18.8854 20.875 17.7656 20.875C17.2865 20.875 16.8307 20.8177 16.3984 20.7031C15.9661 20.5833 15.6094 20.4453 15.3281 20.2891C15.0521 20.1276 14.8073 19.9635 14.5938 19.7969C14.3802 19.6302 14.2266 19.4896 14.1328 19.375L14 19.1953L14.8047 18.3984C14.8255 18.4297 14.862 18.4792 14.9141 18.5469C14.9661 18.6094 15.0833 18.7188 15.2656 18.875C15.4479 19.026 15.6458 19.1641 15.8594 19.2891C16.0729 19.4089 16.349 19.5182 16.6875 19.6172C17.0312 19.7109 17.3906 19.7578 17.7656 19.7578C18.5781 19.7578 19.2214 19.5521 19.6953 19.1406C20.1693 18.7292 20.4062 18.2161 20.4062 17.6016C20.4062 17.0026 20.1615 16.4922 19.6719 16.0703C19.1875 15.6484 18.5521 15.4375 17.7656 15.4375H16.6406V14.3203H17.7656C18.4375 14.3203 18.9635 14.1406 19.3438 13.7812C19.7292 13.4167 19.9219 12.9297 19.9219 12.3203C19.9219 11.7891 19.7266 11.349 19.3359 11C18.9505 10.651 18.4271 10.4766 17.7656 10.4766C17.4583 10.4766 17.1562 10.5208 16.8594 10.6094C16.5677 10.6927 16.3255 10.7995 16.1328 10.9297C15.9401 11.0547 15.7708 11.1823 15.625 11.3125C15.4844 11.4375 15.3802 11.5443 15.3125 11.6328L15.2031 11.7578L14.4062 10.875C14.4375 10.8333 14.4818 10.7786 14.5391 10.7109C14.5964 10.6432 14.7292 10.5234 14.9375 10.3516C15.1458 10.1797 15.3698 10.0286 15.6094 9.89844C15.849 9.76302 16.1641 9.64062 16.5547 9.53125C16.9453 9.41667 17.349 9.35938 17.7656 9.35938C18.7448 9.35938 19.5495 9.64844 20.1797 10.2266C20.8099 10.7995 21.125 11.4974 21.125 12.3203C21.125 12.6849 21.0651 13.0156 20.9453 13.3125C20.8307 13.6094 20.6901 13.8464 20.5234 14.0234C20.3568 14.2005 20.1927 14.3516 20.0312 14.4766C19.875 14.5964 19.737 14.6823 19.6172 14.7344L19.4453 14.7969Z" fill="#82679D"/>
</svg>
