<svg width="15" height="15" viewBox="0 0 15 15" fill="none" xmlns="http://www.w3.org/2000/svg">
<path d="M2.01719 4.28105H2.21719C2.98719 4.28105 3.61719 4.91106 3.61719 5.68106V12.6811C3.61719 13.4511 2.98719 14.0811 2.21719 14.0811H2.01719C1.24719 14.0811 0.617188 13.4511 0.617188 12.6811V5.68106C0.617188 4.91106 1.24719 4.28105 2.01719 4.28105ZM7.61719 0.0810547C8.38719 0.0810547 9.01719 0.711055 9.01719 1.48105V12.6811C9.01719 13.4511 8.38719 14.0811 7.61719 14.0811C6.84719 14.0811 6.21719 13.4511 6.21719 12.6811V1.48105C6.21719 0.711055 6.84719 0.0810547 7.61719 0.0810547ZM13.2172 8.08105C13.9872 8.08105 14.6172 8.71105 14.6172 9.48105V12.6811C14.6172 13.4511 13.9872 14.0811 13.2172 14.0811C12.4472 14.0811 11.8172 13.4511 11.8172 12.6811V9.48105C11.8172 8.71105 12.4472 8.08105 13.2172 8.08105Z" fill="#4318FF"/>
</svg>
