<svg width="12" height="12" viewBox="0 0 12 12" fill="none" xmlns="http://www.w3.org/2000/svg">
<path fill-rule="evenodd" clip-rule="evenodd" d="M10.8166 2.24517C11.1095 1.95228 11.1095 1.47741 10.8166 1.18451C10.5237 0.89162 10.0488 0.89162 9.75594 1.18451L6.00056 4.9399L2.24518 1.18451C1.95228 0.89162 1.47741 0.89162 1.18451 1.18451C0.891622 1.47741 0.891622 1.95228 1.18452 2.24517L4.9399 6.00056L1.18451 9.75594C0.891621 10.0488 0.891621 10.5237 1.18451 10.8166C1.47741 11.1095 1.95228 11.1095 2.24517 10.8166L6.00056 7.06122L9.75594 10.8166C10.0488 11.1095 10.5237 11.1095 10.8166 10.8166C11.1095 10.5237 11.1095 10.0488 10.8166 9.75594L7.06122 6.00056L10.8166 2.24517Z" fill="#FF6767"/>
</svg>
