<svg width="20" height="20" viewBox="0 0 20 20" fill="none" xmlns="http://www.w3.org/2000/svg">
<path fill-rule="evenodd" clip-rule="evenodd" d="M15.215 15.2153C14.7952 17.372 12.8959 19 10.6164 19H5.68493C3.09752 19 1 16.9024 1 14.315V9.3834C1 7.10377 2.62812 5.20442 4.78496 4.78475C5.20455 2.62803 7.10371 1 9.38311 1H14.3151C16.9025 1 19 3.09755 19 5.68501V10.6166C19 12.8963 17.3718 14.7956 15.215 15.2153ZM6.85611 4.69839H10.6164C13.2039 4.69839 15.3014 6.79594 15.3014 9.3834V13.1441C16.3117 12.7495 17.0274 11.7666 17.0274 10.6166V5.68501C17.0274 4.18701 15.813 2.97264 14.3151 2.97264H9.38311C8.23329 2.97264 7.2506 3.68824 6.85611 4.69839ZM2.9726 9.3834C2.9726 7.8854 4.18695 6.67103 5.68493 6.67103H10.6164C12.1144 6.67103 13.3288 7.8854 13.3288 9.3834V14.315C13.3288 15.813 12.1144 17.0274 10.6164 17.0274H5.68493C4.18695 17.0274 2.9726 15.813 2.9726 14.315V9.3834Z" fill="#D9D9D9" stroke="#D9D9D9" stroke-width="0.3" stroke-linecap="round"/>
</svg>
