<svg width="31" height="30" viewBox="0 0 31 30" fill="none" xmlns="http://www.w3.org/2000/svg">
<path d="M3.8457 9.99791H26.3551" stroke="#9B00D4" stroke-width="1.5" stroke-linecap="round" stroke-linejoin="round"/>
<path d="M11.974 15H8.84766" stroke="#9B00D4" stroke-width="1.5" stroke-linecap="round" stroke-linejoin="round"/>
<path d="M21.3527 16.2505C24.1152 16.2505 26.3548 18.49 26.3548 21.2526C26.3548 24.0152 24.1152 26.2547 21.3527 26.2547C18.5901 26.2547 16.3506 24.0152 16.3506 21.2526C16.3506 18.49 18.5901 16.2505 21.3527 16.2505" stroke="#9B00D4" stroke-width="1.5" stroke-linecap="round" stroke-linejoin="round"/>
<path d="M23.2988 20.2809L20.8678 22.712L19.4072 21.2526" stroke="#9B00D4" stroke-width="1.5" stroke-linecap="round" stroke-linejoin="round"/>
<path d="M12.5993 22.5031H7.59727C5.52533 22.5031 3.8457 20.8235 3.8457 18.7515V8.74738C3.8457 6.67545 5.52533 4.99582 7.59727 4.99582H22.6035C24.6754 4.99582 26.3551 6.67545 26.3551 8.74738V13.7495" stroke="#9B00D4" stroke-width="1.5" stroke-linecap="round" stroke-linejoin="round"/>
</svg>
