<svg width="30" height="30" viewBox="0 0 30 30" fill="none" xmlns="http://www.w3.org/2000/svg">
<path d="M9.58529 9.9978H6.2464C4.86458 9.9978 3.74536 11.117 3.74536 12.4988V23.7535C3.74536 25.1354 4.86458 26.2546 6.2464 26.2546H23.7537C25.1355 26.2546 26.2547 25.1354 26.2547 23.7535V12.4988C26.2547 11.117 25.1355 9.9978 23.7537 9.9978H20.4148" stroke="#9B00D4" stroke-width="1.5" stroke-linecap="round" stroke-linejoin="round"/>
<path d="M8.74744 21.2525H13.7495" stroke="#9B00D4" stroke-width="1.5" stroke-linecap="round" stroke-linejoin="round"/>
<path fill-rule="evenodd" clip-rule="evenodd" d="M20.4711 9.21615C20.4711 12.2449 18.0288 14.6872 15 14.6872C11.9713 14.6872 9.52899 12.2449 9.52899 9.21615C9.52899 6.18738 11.9713 3.74512 15 3.74512C18.0288 3.74512 20.4711 6.18738 20.4711 9.21615Z" stroke="#9B00D4" stroke-width="1.5" stroke-linecap="round" stroke-linejoin="round"/>
<path d="M11.1322 13.0841L18.8667 5.34961" stroke="#9B00D4" stroke-width="1.5" stroke-linecap="round" stroke-linejoin="round"/>
</svg>
