<svg width="18" height="18" viewBox="0 0 18 18" fill="none" xmlns="http://www.w3.org/2000/svg">
<g id="Vector">
<path d="M0 9C0 5.25027 0 3.3754 0.954915 2.06107C1.26331 1.6366 1.6366 1.26331 2.06107 0.954915C3.3754 0 5.25027 0 9 0C12.7497 0 14.6246 0 15.9389 0.954915C16.3634 1.26331 16.7367 1.6366 17.0451 2.06107C18 3.3754 18 5.25027 18 9C18 12.7497 18 14.6246 17.0451 15.9389C16.7367 16.3634 16.3634 16.7367 15.9389 17.0451C14.6246 18 12.7497 18 9 18C5.25027 18 3.3754 18 2.06107 17.0451C1.6366 16.7367 1.26331 16.3634 0.954915 15.9389C0 14.6246 0 12.7497 0 9Z" fill="#FF0000"/>
<path d="M8.66992 7.77588C8.30859 7.77588 8.00586 7.90283 7.76172 8.15674C7.51758 8.41064 7.39551 8.73291 7.39551 9.12354C7.39551 9.51416 7.51758 9.83887 7.76172 10.0977C8.01074 10.3516 8.31348 10.4785 8.66992 10.4785C9.01172 10.4785 9.29736 10.354 9.52686 10.105C9.75635 9.85107 9.87109 9.52393 9.87109 9.12354C9.87109 8.72314 9.75635 8.39844 9.52686 8.14941C9.29736 7.90039 9.01172 7.77588 8.66992 7.77588ZM8.4502 6.34766C8.73828 6.34766 8.99951 6.39893 9.23389 6.50146C9.46826 6.59912 9.63672 6.69922 9.73926 6.80176L9.87109 6.94824V6.42822H11.2993V9.72412C11.2993 9.95361 11.3774 10.1489 11.5337 10.3101C11.6948 10.4712 11.8901 10.5518 12.1196 10.5518C12.8179 10.5518 13.1694 9.95117 13.1743 8.75C13.1743 7.6123 12.752 6.64062 11.9072 5.83496C11.0625 5.0293 10.0103 4.62646 8.75049 4.62646C7.54932 4.62646 6.52393 5.05615 5.67432 5.91553C4.82471 6.7749 4.3999 7.81982 4.3999 9.05029C4.3999 10.2808 4.82471 11.3257 5.67432 12.1851C6.52393 13.0444 7.54932 13.4741 8.75049 13.4741C9.2583 13.4741 9.73682 13.3984 10.186 13.2471C10.6353 13.1006 10.9551 12.9517 11.1455 12.8003L11.4458 12.5732L12.2734 13.6279C12.2441 13.6572 12.1929 13.7012 12.1196 13.7598C12.0513 13.8184 11.9048 13.9209 11.6802 14.0674C11.4556 14.2139 11.2139 14.3433 10.9551 14.4556C10.7012 14.5728 10.374 14.6753 9.97363 14.7632C9.57812 14.856 9.17041 14.9023 8.75049 14.9023C7.72021 14.9023 6.75342 14.6338 5.8501 14.0967C4.95166 13.5645 4.23389 12.8491 3.69678 11.9507C3.16455 11.0474 2.89844 10.0806 2.89844 9.05029C2.89844 8.02002 3.16455 7.05566 3.69678 6.15723C4.23389 5.25391 4.95166 4.53613 5.8501 4.00391C6.75342 3.4668 7.72021 3.19824 8.75049 3.19824C10.4204 3.19824 11.8242 3.74512 12.9619 4.83887C14.1045 5.92773 14.6758 7.23145 14.6758 8.75C14.6758 9.73145 14.4341 10.5029 13.9507 11.0645C13.4722 11.6211 12.8618 11.8994 12.1196 11.8994C11.7681 11.8994 11.4482 11.8262 11.1602 11.6797C10.8721 11.5283 10.6719 11.377 10.5596 11.2256L10.3984 10.9985C10.3594 11.0669 10.2959 11.1523 10.208 11.2549C10.125 11.3574 9.92236 11.4917 9.6001 11.6577C9.28271 11.8188 8.92383 11.8994 8.52344 11.8994C7.79102 11.8994 7.16846 11.6382 6.65576 11.1157C6.14795 10.5884 5.89404 9.92432 5.89404 9.12354C5.89404 8.33252 6.14795 7.67334 6.65576 7.146C7.16357 6.61377 7.76172 6.34766 8.4502 6.34766Z" fill="white"/>
</g>
</svg>
