<svg width="18" height="17" viewBox="0 0 18 17" fill="none" xmlns="http://www.w3.org/2000/svg">
<path d="M6.16548 2.83081L5.10254 3.89375" stroke="#060011" stroke-linecap="round" stroke-linejoin="round"/>
<path d="M5.10254 1.76782L6.16548 2.83077" stroke="#060011" stroke-linecap="round" stroke-linejoin="round"/>
<path d="M4.74823 2.83081C3.57414 2.83081 2.62234 3.7826 2.62234 4.9567" stroke="#060011" stroke-linecap="round" stroke-linejoin="round"/>
<path d="M4.74823 2.83088H6.16549" stroke="#060011" stroke-linecap="round" stroke-linejoin="round"/>
<path d="M11.8345 14.1689L12.8975 13.106" stroke="#060011" stroke-linecap="round" stroke-linejoin="round"/>
<path d="M12.8975 15.2319L11.8345 14.1689" stroke="#060011" stroke-linecap="round" stroke-linejoin="round"/>
<path d="M13.2518 14.1689C14.4259 14.1689 15.3777 13.2171 15.3777 12.043" stroke="#060011" stroke-linecap="round" stroke-linejoin="round"/>
<path d="M13.2518 14.169H11.8345" stroke="#060011" stroke-linecap="round" stroke-linejoin="round"/>
<path fill-rule="evenodd" clip-rule="evenodd" d="M7.22843 14.1689C9.38094 14.1689 11.1259 12.424 11.1259 10.2715C11.1259 8.11897 9.38094 6.37402 7.22843 6.37402C5.07593 6.37402 3.33098 8.11897 3.33098 10.2715C3.34336 12.4188 5.08108 14.1566 7.22843 14.1689Z" stroke="#060011" stroke-linecap="round" stroke-linejoin="round"/>
<path d="M8.33106 9.72095L6.95349 11.0985L6.12581 10.2716" stroke="#060011" stroke-linecap="round" stroke-linejoin="round"/>
<path d="M13.5274 3.97241C15.0432 5.49702 15.0432 7.95951 13.5274 9.48412C13.4066 9.60083 13.277 9.70814 13.1398 9.80513" stroke="#060011" stroke-linecap="round" stroke-linejoin="round"/>
<path d="M13.5274 3.9725C12.0028 2.45676 9.54033 2.45676 8.01571 3.9725C7.8989 4.09297 7.79046 4.2213 7.69116 4.35657" stroke="#060011" stroke-linecap="round" stroke-linejoin="round"/>
</svg>
