<svg width="10" height="14" viewBox="0 0 10 14" fill="none" xmlns="http://www.w3.org/2000/svg">
<path id="Union" fill-rule="evenodd" clip-rule="evenodd" d="M1.69395 0.25C2.10816 0.25 2.44395 0.585786 2.44395 1V8.52991C2.9782 8.80302 3.34395 9.3588 3.34395 10C3.34395 10.6412 2.9782 11.197 2.44395 11.4701V13C2.44395 13.4142 2.10816 13.75 1.69395 13.75C1.27973 13.75 0.943945 13.4142 0.943945 13V11.4701C0.409694 11.197 0.0439453 10.6412 0.0439453 10C0.0439453 9.3588 0.409694 8.80302 0.943945 8.52991V1C0.943945 0.585786 1.27973 0.25 1.69395 0.25ZM8.35019 0.25C8.76441 0.25 9.10019 0.585786 9.10019 1V2.52991C9.63445 2.80302 10.0002 3.3588 10.0002 4C10.0002 4.6412 9.63445 5.19698 9.10019 5.47009V13C9.10019 13.4142 8.76441 13.75 8.35019 13.75C7.93598 13.75 7.6002 13.4142 7.6002 13V5.47009C7.06594 5.19698 6.7002 4.6412 6.7002 4C6.7002 3.3588 7.06594 2.80302 7.6002 2.52991V1C7.6002 0.585786 7.93598 0.25 8.35019 0.25Z" fill="#2B4DFF"/>
</svg>
