<svg width="12" height="12" viewBox="0 0 12 12" fill="none" xmlns="http://www.w3.org/2000/svg">
<path d="M11.1741 6.01855C10.7179 6.01855 10.3482 5.64959 10.3482 5.19446L10.3482 2.81445L5.49116 7.66072C5.16862 7.98255 4.64568 7.98255 4.32314 7.66072C4.0006 7.3389 4.0006 6.81712 4.32314 6.49529L9.181 1.64817H6.79402C6.33788 1.64817 5.96811 1.27922 5.96811 0.824087C5.96811 0.368957 6.33788 0 6.79402 0H11.0708C11.584 0 12 0.415073 12 0.927097L12 5.19446C12 5.64959 11.6302 6.01855 11.1741 6.01855Z" fill="#CCCCCC"/>
<path d="M1.65183 3.96516C1.65183 2.71355 2.6687 1.69892 3.92309 1.69892C4.37923 1.69892 4.749 1.32997 4.749 0.874838C4.749 0.419708 4.37923 0.0507523 3.92309 0.0507523C1.75643 0.0507523 0 1.80329 0 3.96516V8.08559C0 10.2475 1.75643 12 3.92309 12H8.05265C10.2197 12 11.9757 10.2461 11.9757 8.08459C11.9757 7.62946 11.606 7.2605 11.1498 7.2605C10.6937 7.2605 10.3239 7.62946 10.3239 8.08459C10.3239 9.33654 9.30669 10.3518 8.05265 10.3518H3.92309C2.6687 10.3518 1.65183 9.3372 1.65183 8.08559V3.96516Z" fill="#CCCCCC"/>
</svg>
