<svg width="31" height="30" viewBox="0 0 31 30" fill="none" xmlns="http://www.w3.org/2000/svg">
<path d="M16.8632 17.501H26.2655C27.3014 17.501 28.1413 16.6612 28.1413 15.6252V8.12212C28.1413 7.08615 27.3014 6.24634 26.2655 6.24634H13.7603C12.7243 6.24634 11.8845 7.08615 11.8845 8.12212V16.2505" stroke="#9B00D4" stroke-width="1.5" stroke-linecap="round" stroke-linejoin="round"/>
<path d="M18.6867 10.5475C19.4201 9.82094 20.6028 9.82372 21.3328 10.5537C22.0628 11.2837 22.0656 12.4664 21.339 13.1999" stroke="#9B00D4" stroke-width="1.5" stroke-linecap="round" stroke-linejoin="round"/>
<path d="M11.8845 9.9978H9.01852C8.43612 9.9978 7.86172 10.1334 7.34081 10.3939L6.60899 10.7598C5.97086 11.0788 5.43695 11.5732 5.06989 12.185L3.13083 15.4167" stroke="#9B00D4" stroke-width="1.5" stroke-linecap="round" stroke-linejoin="round"/>
<path d="M4.38135 26.2546L11.5867 23.651C12.5924 23.2876 13.4551 22.6115 14.0484 21.7219L17.791 16.1095C18.3354 15.2933 18.2278 14.2062 17.5341 13.5124V13.5124C16.7305 12.7089 15.4276 12.7087 14.6239 13.5122L11.8845 16.2504H9.38343" stroke="#9B00D4" stroke-width="1.5" stroke-linecap="round" stroke-linejoin="round"/>
</svg>
