<svg width="15" height="14" viewBox="0 0 15 14" fill="none" xmlns="http://www.w3.org/2000/svg">
<g id="Vector">
<path d="M3.38561 0.681699C3.2939 0.570722 3.15521 0.5 3 0.5C2.84479 0.5 2.7061 0.570721 2.61439 0.681698C2.60112 0.692853 2.58822 0.704672 2.57574 0.717157L0.646447 2.64645C0.451184 2.84171 0.451184 3.15829 0.646447 3.35355C0.841709 3.54882 1.15829 3.54882 1.35355 3.35355L2.5 2.20711V13C2.5 13.2761 2.72386 13.5 3 13.5C3.27614 13.5 3.5 13.2761 3.5 13V2.20711L4.64645 3.35355C4.84171 3.54882 5.15829 3.54882 5.35355 3.35355C5.54882 3.15829 5.54882 2.84171 5.35355 2.64645L3.42426 0.717157C3.41178 0.704673 3.39888 0.692853 3.38561 0.681699Z" fill="#4B4B4B"/>
<path d="M12 1C12 0.723858 11.7761 0.5 11.5 0.5C11.2239 0.5 11 0.723858 11 1V11.7929L9.85355 10.6464C9.65829 10.4512 9.34171 10.4512 9.14645 10.6464C8.95119 10.8417 8.95119 11.1583 9.14645 11.3536L11.0757 13.2828C11.0882 13.2953 11.1011 13.3071 11.1144 13.3183C11.2061 13.4293 11.3448 13.5 11.5 13.5C11.6552 13.5 11.7939 13.4293 11.8856 13.3183C11.8989 13.3071 11.9118 13.2953 11.9243 13.2828L13.8536 11.3536C14.0488 11.1583 14.0488 10.8417 13.8536 10.6464C13.6583 10.4512 13.3417 10.4512 13.1464 10.6464L12 11.7929V1Z" fill="#4B4B4B"/>
<path d="M3.38561 0.681699C3.2939 0.570722 3.15521 0.5 3 0.5C2.84479 0.5 2.7061 0.570721 2.61439 0.681698C2.60112 0.692853 2.58822 0.704672 2.57574 0.717157L0.646447 2.64645C0.451184 2.84171 0.451184 3.15829 0.646447 3.35355C0.841709 3.54882 1.15829 3.54882 1.35355 3.35355L2.5 2.20711V13C2.5 13.2761 2.72386 13.5 3 13.5C3.27614 13.5 3.5 13.2761 3.5 13V2.20711L4.64645 3.35355C4.84171 3.54882 5.15829 3.54882 5.35355 3.35355C5.54882 3.15829 5.54882 2.84171 5.35355 2.64645L3.42426 0.717157C3.41178 0.704673 3.39888 0.692853 3.38561 0.681699Z" stroke="#4B4B4B" stroke-width="0.5" stroke-linecap="round"/>
<path d="M12 1C12 0.723858 11.7761 0.5 11.5 0.5C11.2239 0.5 11 0.723858 11 1V11.7929L9.85355 10.6464C9.65829 10.4512 9.34171 10.4512 9.14645 10.6464C8.95119 10.8417 8.95119 11.1583 9.14645 11.3536L11.0757 13.2828C11.0882 13.2953 11.1011 13.3071 11.1144 13.3183C11.2061 13.4293 11.3448 13.5 11.5 13.5C11.6552 13.5 11.7939 13.4293 11.8856 13.3183C11.8989 13.3071 11.9118 13.2953 11.9243 13.2828L13.8536 11.3536C14.0488 11.1583 14.0488 10.8417 13.8536 10.6464C13.6583 10.4512 13.3417 10.4512 13.1464 10.6464L12 11.7929V1Z" stroke="#4B4B4B" stroke-width="0.5" stroke-linecap="round"/>
</g>
</svg>
