<svg width="10" height="10" viewBox="0 0 10 10" fill="none" xmlns="http://www.w3.org/2000/svg">
<path d="M10 5C10 7.76142 7.76142 10 5 10C2.23858 10 0 7.76142 0 5C0 2.23858 2.23858 0 5 0C7.76142 0 10 2.23858 10 5Z" fill="white"/>
<path d="M2.6378 7.35732C2.85482 7.57433 3.21072 7.57433 3.42773 7.35732L4.99892 5.78614L6.5701 7.35732C6.78711 7.57433 7.13867 7.57433 7.35569 7.35732C7.5727 7.1403 7.5727 6.78874 7.35569 6.57173L5.78451 5L7.35569 3.42882C7.5727 3.21181 7.5727 2.86025 7.35569 2.64323C7.13867 2.42622 6.78711 2.42622 6.5701 2.64323L4.99892 4.21387L3.42773 2.64323C3.29319 2.50814 3.10221 2.45714 2.9286 2.49024C2.8201 2.51031 2.72027 2.56131 2.64214 2.64323C2.42513 2.86025 2.42513 3.21181 2.64214 3.42882L4.21332 4.99892L2.6378 6.57173C2.42513 6.78874 2.42513 7.1403 2.6378 7.35732Z" fill="#333333"/>
</svg>
