<svg width="10" height="10" viewBox="0 0 10 10" fill="none" xmlns="http://www.w3.org/2000/svg">
<path d="M10 5C10 7.76142 7.76142 10 5 10C2.23858 10 0 7.76142 0 5C0 2.23858 2.23858 0 5 0C7.76142 0 10 2.23858 10 5Z" fill="#D9D9D9"/>
<path d="M4.31803 6.01291C4.31803 5.79047 4.36686 5.5938 4.46452 5.42291C4.56217 5.24929 4.68018 5.11095 4.81852 5.00787C4.95687 4.90207 5.09522 4.80035 5.23356 4.70269C5.37191 4.60503 5.48991 4.49246 5.58757 4.36496C5.68522 4.23747 5.73405 4.09234 5.73405 3.92958C5.73405 3.75868 5.66488 3.6122 5.52653 3.49013C5.38818 3.36806 5.20779 3.30702 4.98535 3.30702C4.75206 3.30702 4.55132 3.36263 4.38314 3.47385C4.21767 3.58507 4.10916 3.69629 4.05762 3.80751L3.98438 3.97027L2.94271 3.51454C2.95356 3.47656 2.97119 3.42502 2.99561 3.35992C3.02002 3.29481 3.08648 3.18224 3.19499 3.02219C3.30349 2.86214 3.42828 2.71973 3.56934 2.59494C3.71311 2.46745 3.91385 2.35352 4.17155 2.25315C4.42925 2.15007 4.71408 2.09852 5.02604 2.09852C5.61469 2.09852 6.09484 2.26264 6.46647 2.59087C6.83811 2.9164 7.02393 3.30702 7.02393 3.76275C7.02393 4.04487 6.97239 4.29715 6.8693 4.51959C6.76893 4.73931 6.64415 4.91699 6.49495 5.05263C6.34847 5.18826 6.20199 5.31576 6.0555 5.43511C5.90902 5.55447 5.78423 5.69553 5.68115 5.85829C5.57807 6.01834 5.52653 6.19466 5.52653 6.38726H4.39941C4.34516 6.24892 4.31803 6.12413 4.31803 6.01291ZM4.4279 7.94976C4.29769 7.82498 4.23258 7.67985 4.23258 7.51438C4.23258 7.34619 4.29769 7.19971 4.4279 7.07492C4.56082 6.95014 4.71815 6.88775 4.8999 6.88775C5.08436 6.88775 5.2417 6.95014 5.37191 7.07492C5.50212 7.19971 5.56722 7.34619 5.56722 7.51438C5.56722 7.67985 5.50212 7.82498 5.37191 7.94976C5.2417 8.07454 5.08436 8.13694 4.8999 8.13694C4.71815 8.13694 4.56082 8.07454 4.4279 7.94976Z" fill="white"/>
</svg>
