<svg width="31" height="30" viewBox="0 0 31 30" fill="none" xmlns="http://www.w3.org/2000/svg">
<path d="M20.318 23.75V25C20.318 25.69 19.758 26.25 19.068 26.25H4.06799C3.37799 26.25 2.81799 25.69 2.81799 25V23.75V23.73C2.81799 19.9475 7.14049 17.49 11.568 17.49C15.9955 17.49 20.318 19.9487 20.318 23.73" stroke="#9B00D4" stroke-width="1.5" stroke-linecap="round" stroke-linejoin="round"/>
<path d="M14.6545 6.27848C16.3592 7.98312 16.3592 10.7469 14.6545 12.4515C12.9499 14.1562 10.1861 14.1562 8.48148 12.4515C6.77684 10.7469 6.77684 7.98312 8.48148 6.27848C10.1861 4.57384 12.9499 4.57384 14.6545 6.27848" stroke="#9B00D4" stroke-width="1.5" stroke-linecap="round" stroke-linejoin="round"/>
<path d="M22.3055 6.98755L25.8305 10.5125" stroke="#9B00D4" stroke-width="1.5" stroke-linecap="round" stroke-linejoin="round"/>
<path d="M22.3055 10.5125L25.8305 6.98755" stroke="#9B00D4" stroke-width="1.5" stroke-linecap="round" stroke-linejoin="round"/>
</svg>
