<svg width="31" height="30" viewBox="0 0 31 30" fill="none" xmlns="http://www.w3.org/2000/svg">
<path d="M6.74707 3.7453H23.0038C24.3851 3.7453 25.5049 4.86505 25.5049 6.24634V13.7495" stroke="#9B00D4" stroke-width="1.5" stroke-linecap="round" stroke-linejoin="round"/>
<path d="M14.2502 26.2547H6.74707" stroke="#9B00D4" stroke-width="1.5" stroke-linecap="round" stroke-linejoin="round"/>
<path d="M10.4983 13.7495V16.2505" stroke="#9B00D4" stroke-width="1.5" stroke-linecap="round" stroke-linejoin="round"/>
<path fill-rule="evenodd" clip-rule="evenodd" d="M4.24609 6.24635V23.7536C4.24609 24.6203 4.69484 25.4252 5.43204 25.8809C6.16924 26.3367 7.08982 26.3782 7.8651 25.9908L12.8672 23.4898C13.7148 23.0662 14.2503 22.2001 14.2503 21.2526V8.7474C14.2488 7.80124 13.7136 6.9369 12.8672 6.51397L7.8651 4.01292C7.09042 3.62581 6.17061 3.66701 5.43364 4.12183C4.69666 4.57664 4.24742 5.38034 4.24609 6.24635Z" stroke="#9B00D4" stroke-width="1.5" stroke-linecap="round" stroke-linejoin="round"/>
<path fill-rule="evenodd" clip-rule="evenodd" d="M26.7551 27.5052H20.5025C19.8118 27.5052 19.252 26.9453 19.252 26.2547V20.0021C19.252 19.3114 19.8118 18.7516 20.5025 18.7516H26.7551C27.4457 18.7516 28.0056 19.3114 28.0056 20.0021V26.2547C28.0056 26.9453 27.4457 27.5052 26.7551 27.5052Z" stroke="#9B00D4" stroke-width="1.5" stroke-linecap="round" stroke-linejoin="round"/>
<path d="M25.1182 22.198L23.2537 24.0575L22.1357 22.9421" stroke="#9B00D4" stroke-width="1.5" stroke-linecap="round" stroke-linejoin="round"/>
</svg>
