<svg width="31" height="30" viewBox="0 0 31 30" fill="none" xmlns="http://www.w3.org/2000/svg">
<path d="M15.818 10.7793V3.74512" stroke="#9B00D4" stroke-width="1.5" stroke-linecap="round" stroke-linejoin="round"/>
<path d="M11.5975 4.57056C6.60373 6.59064 3.74158 11.8661 4.77057 17.1538C5.79956 22.4415 10.4311 26.2586 15.818 26.2586C21.2049 26.2586 25.8365 22.4415 26.8655 17.1538C27.8945 11.8661 25.0323 6.59064 20.0385 4.57056" stroke="#9B00D4" stroke-width="1.5" stroke-linecap="round" stroke-linejoin="round"/>
<path d="M11.5975 11.3135C9.60229 13.5758 9.7458 17.009 11.9229 19.097C14.0999 21.1849 17.5361 21.1849 19.7132 19.097C21.8902 17.009 22.0337 13.5758 20.0385 11.3135" stroke="#9B00D4" stroke-width="1.5" stroke-linecap="round" stroke-linejoin="round"/>
<path d="M15.818 14.7772C15.7579 14.7772 15.7002 14.8013 15.658 14.844C15.6157 14.8868 15.5923 14.9447 15.5929 15.0048C15.5929 15.1298 15.6943 15.2311 15.8193 15.2311C15.9443 15.2311 16.0456 15.1298 16.0456 15.0048C16.0459 14.9443 16.0221 14.8862 15.9793 14.8435C15.9366 14.8007 15.8785 14.7769 15.818 14.7772" stroke="#9B00D4" stroke-width="1.5" stroke-linecap="round" stroke-linejoin="round"/>
<path d="M16.0444 15.0049H15.5917" stroke="#9B00D4" stroke-width="1.5" stroke-linecap="round" stroke-linejoin="round"/>
<path d="M15.8168 14.7774V15.2339" stroke="#9B00D4" stroke-width="1.5" stroke-linecap="round" stroke-linejoin="round"/>
</svg>
