<svg width="241" height="60" viewBox="0 0 241 60" fill="none" xmlns="http://www.w3.org/2000/svg">
<path d="M106.92 20.22V20.91L100.11 39.9H94.6201L89.6401 25.92L84.6901 39.9H79.2001L72.3301 20.91V20.22H76.9201L81.9601 34.89L87.1801 20.22H92.1001L97.3201 34.86L102.33 20.22H106.92Z" fill="white"/>
<path d="M127.074 20.22V24.18H114.084V28.08H126.474V32.01H114.084V35.94H127.074V39.9H109.584V20.22H127.074Z" fill="white"/>
<path d="M135.764 20.22V35.85H149.114V39.9H131.264V20.22H135.764Z" fill="white"/>
<path d="M169.331 20.22V20.91L160.721 39.9H155.501L146.891 20.91V20.22H151.511L158.111 35.49L164.711 20.22H169.331Z" fill="white"/>
<path d="M181.527 40.26C179.567 40.26 177.837 39.88 176.337 39.12C174.857 38.34 173.707 37.25 172.887 35.85C172.087 34.45 171.687 32.82 171.687 30.96V20.22H176.187V31.02C176.187 32.64 176.647 33.89 177.567 34.77C178.507 35.65 179.827 36.09 181.527 36.09C183.247 36.09 184.567 35.65 185.487 34.77C186.427 33.89 186.897 32.64 186.897 31.02V20.22H191.397V30.96C191.397 32.82 190.987 34.45 190.167 35.85C189.367 37.25 188.217 38.34 186.717 39.12C185.237 39.88 183.507 40.26 181.527 40.26Z" fill="white"/>
<path d="M215.756 26.91C215.756 28.51 215.246 29.82 214.226 30.84C213.226 31.86 211.796 32.5 209.936 32.76L215.666 39.21V39.9H210.506L204.386 32.85H200.276V39.9H195.776V20.22H208.256C210.596 20.22 212.426 20.79 213.746 21.93C215.086 23.05 215.756 24.6 215.756 26.58V26.91ZM211.166 26.49C211.166 25.75 210.906 25.19 210.386 24.81C209.886 24.41 209.136 24.21 208.136 24.21H200.276V29.13H208.136C209.116 29.13 209.866 28.94 210.386 28.56C210.906 28.16 211.166 27.58 211.166 26.82V26.49Z" fill="white"/>
<path d="M240.376 39.21V39.9H235.876L234.076 35.82H224.236L222.436 39.9H217.936V39.21L226.666 20.22H231.646L240.376 39.21ZM232.366 31.92L229.156 24.6L225.946 31.92H232.366Z" fill="white"/>
<g filter="url(#filter0_i_1_3162)">
<path fill-rule="evenodd" clip-rule="evenodd" d="M59.6484 25.3898C59.88 26.894 60 28.4316 60 30C60 46.5572 46.5572 60 30 60C13.4428 60 0 46.5572 0 30C0 13.4428 13.4428 0 30 0C31.2809 0 32.5423 0.0809303 33.7814 0.237209C34.4484 0.32093 35.0316 0.71721 35.3554 1.30605C35.6763 1.89209 35.6986 2.60093 35.414 3.20651C35.0735 3.92651 34.8837 4.73302 34.8837 5.5814C34.8837 7.39535 35.7516 9.00837 37.094 10.027C37.7414 10.5209 38.0456 11.347 37.8698 12.1451C37.7414 12.7284 37.6744 13.3312 37.6744 13.9535C37.6744 18.5749 41.4251 22.3256 46.0465 22.3256C46.3228 22.3256 46.5935 22.3116 46.8642 22.2865C47.5619 22.2195 48.2456 22.5042 48.6893 23.0484C49.7135 24.3098 51.2735 25.1163 53.0233 25.1163C54.2623 25.1163 55.4093 24.7116 56.3358 24.0279C56.9247 23.5926 57.6977 23.4949 58.3758 23.774C59.054 24.053 59.534 24.667 59.6484 25.3898ZM43.2558 34.8837C41.3302 34.8837 39.7674 36.4465 39.7674 38.3721C39.7674 40.2977 41.3302 41.8605 43.2558 41.8605C45.1814 41.8605 46.7442 40.2977 46.7442 38.3721C46.7442 36.4465 45.1814 34.8837 43.2558 34.8837ZM22.3256 41.8605C20.4 41.8605 18.8372 43.4233 18.8372 45.3488C18.8372 47.2744 20.4 48.8372 22.3256 48.8372C24.2512 48.8372 25.814 47.2744 25.814 45.3488C25.814 43.4233 24.2512 41.8605 22.3256 41.8605ZM22.9953 11.7209C21.84 11.7209 20.9023 12.6586 20.9023 13.814C20.9023 14.9693 21.84 15.907 22.9953 15.907C24.1507 15.907 25.0884 14.9693 25.0884 13.814C25.0884 12.6586 24.1507 11.7209 22.9953 11.7209ZM30.6977 34.8837C29.5423 34.8837 28.6047 35.8214 28.6047 36.9767C28.6047 38.1321 29.5423 39.0698 30.6977 39.0698C31.853 39.0698 32.7907 38.1321 32.7907 36.9767C32.7907 35.8214 31.853 34.8837 30.6977 34.8837ZM14.6512 26.5116C13.4958 26.5116 12.5581 27.4493 12.5581 28.6047C12.5581 29.76 13.4958 30.6977 14.6512 30.6977C15.8065 30.6977 16.7442 29.76 16.7442 28.6047C16.7442 27.4493 15.8065 26.5116 14.6512 26.5116ZM27.907 20.2326C25.9814 20.2326 24.4186 21.7954 24.4186 23.7209C24.4186 25.6465 25.9814 27.2093 27.907 27.2093C29.8326 27.2093 31.3954 25.6465 31.3954 23.7209C31.3954 21.7954 29.8326 20.2326 27.907 20.2326Z" fill="url(#paint0_radial_1_3162)"/>
</g>
<g filter="url(#filter1_i_1_3162)">
<circle cx="46.5" cy="13.5" r="1.5" fill="url(#paint1_radial_1_3162)"/>
</g>
<g filter="url(#filter2_i_1_3162)">
<circle cx="47.5" cy="2.5" r="2.5" fill="url(#paint2_radial_1_3162)"/>
</g>
<g filter="url(#filter3_i_1_3162)">
<circle cx="57.5" cy="12.5" r="2.5" fill="url(#paint3_radial_1_3162)"/>
</g>
<defs>
<filter id="filter0_i_1_3162" x="0" y="0" width="75" height="75" filterUnits="userSpaceOnUse" color-interpolation-filters="sRGB">
<feFlood flood-opacity="0" result="BackgroundImageFix"/>
<feBlend mode="normal" in="SourceGraphic" in2="BackgroundImageFix" result="shape"/>
<feColorMatrix in="SourceAlpha" type="matrix" values="0 0 0 0 0 0 0 0 0 0 0 0 0 0 0 0 0 0 127 0" result="hardAlpha"/>
<feOffset dx="15" dy="15"/>
<feGaussianBlur stdDeviation="12.5"/>
<feComposite in2="hardAlpha" operator="arithmetic" k2="-1" k3="1"/>
<feColorMatrix type="matrix" values="0 0 0 0 1 0 0 0 0 0.70871 0 0 0 0 0.216667 0 0 0 1 0"/>
<feBlend mode="normal" in2="shape" result="effect1_innerShadow_1_3162"/>
</filter>
<filter id="filter1_i_1_3162" x="45" y="12" width="18" height="18" filterUnits="userSpaceOnUse" color-interpolation-filters="sRGB">
<feFlood flood-opacity="0" result="BackgroundImageFix"/>
<feBlend mode="normal" in="SourceGraphic" in2="BackgroundImageFix" result="shape"/>
<feColorMatrix in="SourceAlpha" type="matrix" values="0 0 0 0 0 0 0 0 0 0 0 0 0 0 0 0 0 0 127 0" result="hardAlpha"/>
<feOffset dx="15" dy="15"/>
<feGaussianBlur stdDeviation="12.5"/>
<feComposite in2="hardAlpha" operator="arithmetic" k2="-1" k3="1"/>
<feColorMatrix type="matrix" values="0 0 0 0 1 0 0 0 0 0.70871 0 0 0 0 0.216667 0 0 0 1 0"/>
<feBlend mode="normal" in2="shape" result="effect1_innerShadow_1_3162"/>
</filter>
<filter id="filter2_i_1_3162" x="45" y="0" width="20" height="20" filterUnits="userSpaceOnUse" color-interpolation-filters="sRGB">
<feFlood flood-opacity="0" result="BackgroundImageFix"/>
<feBlend mode="normal" in="SourceGraphic" in2="BackgroundImageFix" result="shape"/>
<feColorMatrix in="SourceAlpha" type="matrix" values="0 0 0 0 0 0 0 0 0 0 0 0 0 0 0 0 0 0 127 0" result="hardAlpha"/>
<feOffset dx="15" dy="15"/>
<feGaussianBlur stdDeviation="12.5"/>
<feComposite in2="hardAlpha" operator="arithmetic" k2="-1" k3="1"/>
<feColorMatrix type="matrix" values="0 0 0 0 1 0 0 0 0 0.70871 0 0 0 0 0.216667 0 0 0 1 0"/>
<feBlend mode="normal" in2="shape" result="effect1_innerShadow_1_3162"/>
</filter>
<filter id="filter3_i_1_3162" x="55" y="10" width="20" height="20" filterUnits="userSpaceOnUse" color-interpolation-filters="sRGB">
<feFlood flood-opacity="0" result="BackgroundImageFix"/>
<feBlend mode="normal" in="SourceGraphic" in2="BackgroundImageFix" result="shape"/>
<feColorMatrix in="SourceAlpha" type="matrix" values="0 0 0 0 0 0 0 0 0 0 0 0 0 0 0 0 0 0 127 0" result="hardAlpha"/>
<feOffset dx="15" dy="15"/>
<feGaussianBlur stdDeviation="12.5"/>
<feComposite in2="hardAlpha" operator="arithmetic" k2="-1" k3="1"/>
<feColorMatrix type="matrix" values="0 0 0 0 1 0 0 0 0 0.70871 0 0 0 0 0.216667 0 0 0 1 0"/>
<feBlend mode="normal" in2="shape" result="effect1_innerShadow_1_3162"/>
</filter>
<radialGradient id="paint0_radial_1_3162" cx="0" cy="0" r="1" gradientUnits="userSpaceOnUse" gradientTransform="translate(27.98 30.68) rotate(47.6353) scale(41.5228)">
<stop stop-color="#FFBA2E"/>
<stop offset="1" stop-color="#DE7425"/>
</radialGradient>
<radialGradient id="paint1_radial_1_3162" cx="0" cy="0" r="1" gradientUnits="userSpaceOnUse" gradientTransform="translate(46.399 13.534) rotate(47.6353) scale(2.07614)">
<stop stop-color="#FFBA2E"/>
<stop offset="1" stop-color="#DE7425"/>
</radialGradient>
<radialGradient id="paint2_radial_1_3162" cx="0" cy="0" r="1" gradientUnits="userSpaceOnUse" gradientTransform="translate(47.3317 2.55667) rotate(47.6353) scale(3.46023)">
<stop stop-color="#FFBA2E"/>
<stop offset="1" stop-color="#DE7425"/>
</radialGradient>
<radialGradient id="paint3_radial_1_3162" cx="0" cy="0" r="1" gradientUnits="userSpaceOnUse" gradientTransform="translate(57.3317 12.5567) rotate(47.6353) scale(3.46023)">
<stop stop-color="#FFBA2E"/>
<stop offset="1" stop-color="#DE7425"/>
</radialGradient>
</defs>
</svg>
