<svg width="0" height="0" class="hidden">
  <symbol fill="none" xmlns="http://www.w3.org/2000/svg" viewBox="0 0 74 74" id="clock">
    <path d="M67.8332 37C67.8332 54.02 54.0198 67.8333 36.9998 67.8333C19.9798 67.8333 6.1665 54.02 6.1665 37C6.1665 19.98 19.9798 6.16666 36.9998 6.16666C54.0198 6.16666 67.8332 19.98 67.8332 37Z" stroke="white" stroke-width="1.5" stroke-linecap="round" stroke-linejoin="round"></path>
    <path d="M48.4394 46.805L38.881 41.1008C37.216 40.1142 35.8594 37.74 35.8594 35.7975V23.1558" stroke="white" stroke-width="1.5" stroke-linecap="round" stroke-linejoin="round"></path>
  </symbol>
  <symbol fill="none" xmlns="http://www.w3.org/2000/svg" viewBox="0 0 74 74" id="empty-wallet">
    <path d="M55.6235 41.7791C54.3285 43.0433 53.5885 44.8625 53.7735 46.805C54.051 50.135 57.1035 52.5708 60.4335 52.5708H66.2918V56.24C66.2918 62.6225 61.081 67.8333 54.6985 67.8333H19.3018C12.9193 67.8333 7.7085 62.6225 7.7085 56.24V35.4892C7.7085 29.1067 12.9193 23.8958 19.3018 23.8958H54.6985C61.081 23.8958 66.2918 29.1067 66.2918 35.4892V39.9292H60.0635C58.3368 39.9292 56.7643 40.6075 55.6235 41.7791Z" stroke="white" stroke-width="1.5" stroke-linecap="round" stroke-linejoin="round"></path>
    <path d="M7.7085 38.2641V24.1735C7.7085 20.5043 9.95933 17.2358 13.3818 15.9408L37.8635 6.69083C41.6868 5.24166 45.7877 8.07842 45.7877 12.1793V23.8959" stroke="white" stroke-width="1.5" stroke-linecap="round" stroke-linejoin="round"></path>
    <path d="M69.5565 43.0746V49.4265C69.5565 51.1223 68.1998 52.5097 66.4732 52.5714H60.4298C57.0998 52.5714 54.0473 50.1355 53.7698 46.8055C53.5848 44.863 54.3248 43.0439 55.6198 41.7797C56.7607 40.608 58.3332 39.9298 60.0598 39.9298H66.4732C68.1998 39.9914 69.5565 41.3788 69.5565 43.0746Z" stroke="white" stroke-width="1.5" stroke-linecap="round" stroke-linejoin="round"></path>
    <path d="M21.5835 37H43.1668" stroke="white" stroke-width="1.5" stroke-linecap="round" stroke-linejoin="round"></path>
  </symbol>
  <symbol  xmlns="http://www.w3.org/2000/svg" viewBox="0 0 37 42" id="play">
    <path d="M33.899 16.3443L7.50858 0.696838C4.17388 -1.28249 0 1.19025 0 5.14891V36.4495C0 40.4082 4.17388 42.881 7.50858 40.9016L33.8935 25.2541C37.2337 23.2748 37.2337 18.3236 33.8935 16.3443H33.899Z" ></path>
  </symbol>
  <symbol xmlns="http://www.w3.org/2000/svg" viewBox="0 0 30 30" id="star">
    <path d="M17.4509 2.97251L19.9443 7.95917C20.2843 8.65334 21.1909 9.31917 21.9559 9.44667L26.4751 10.1975C29.3651 10.6792 30.0451 12.7758 27.9626 14.8442L24.4493 18.3575C23.8543 18.9525 23.5284 20.1 23.7126 20.9217L24.7184 25.2708C25.5118 28.7133 23.6843 30.045 20.6384 28.2458L16.4026 25.7383C15.6376 25.285 14.3768 25.285 13.5976 25.7383L9.36178 28.2458C6.33012 30.045 4.48845 28.6992 5.28178 25.2708L6.28762 20.9217C6.47178 20.1 6.14595 18.9525 5.55095 18.3575L2.03762 14.8442C-0.0307181 12.7758 0.635116 10.6792 3.52512 10.1975L8.04428 9.44667C8.79512 9.31917 9.70178 8.65334 10.0418 7.95917L12.5351 2.97251C13.8951 0.266672 16.1051 0.266672 17.4509 2.97251Z"></path>
  </symbol>
    <symbol  xmlns="http://www.w3.org/2000/svg" viewBox="0 0 20 20" id="vk">
    <path d="M18.5958 1.40417C17.1875 0 14.925 0 10.4167 0H9.58333C5.075 0 2.8125 0 1.40417 1.40417C-0.00416666 2.80833 1.44185e-07 5.075 1.44185e-07 9.58333V10.4167C1.44185e-07 14.925 9.93411e-08 17.1875 1.40417 18.5958C2.80833 20.0042 5.075 20 9.58333 20H10.4167C14.9417 20 17.2042 20 18.6125 18.5958C20.0208 17.1917 20 14.925 20 10.4167V9.58333C20 5.075 20 2.8125 18.5958 1.40417ZM14.35 14.4083C14.1321 13.6277 13.6884 12.9288 13.0746 12.3995C12.4608 11.8702 11.7042 11.5341 10.9 11.4333V14.4083H10.6417C6.08333 14.4083 3.48333 11.2833 3.375 6.075H5.65833C5.73333 9.89167 7.41667 11.4917 8.75 11.8417V6.08333H10.9V9.375C12.2167 9.23333 13.6 7.73333 14.0667 6.08333H16.2167C16.0439 6.94136 15.6956 7.75441 15.1937 8.47143C14.6918 9.18846 14.0471 9.79399 13.3 10.25C14.1329 10.6631 14.8687 11.248 15.4591 11.9662C16.0495 12.6844 16.4809 13.5196 16.725 14.4167L14.35 14.4083Z" ></path>
  </symbol>
  <symbol xmlns="http://www.w3.org/2000/svg" viewBox="0 0 20 20" id="tg">
    <path fill-rule="evenodd" clip-rule="evenodd" d="M20 10C20 15.5228 15.5228 20 10 20C4.47715 20 0 15.5228 0 10C0 4.47715 4.47715 0 10 0C15.5228 0 20 4.47715 20 10ZM10.3583 7.38244C9.38562 7.787 7.44169 8.62433 4.52649 9.89444C4.05311 10.0827 3.80513 10.2668 3.78255 10.4469C3.7444 10.7512 4.12551 10.8711 4.64448 11.0343C4.71507 11.0565 4.78821 11.0795 4.86319 11.1038C5.37378 11.2698 6.0606 11.464 6.41765 11.4717C6.74153 11.4787 7.10302 11.3452 7.50211 11.0711C10.2259 9.2325 11.6319 8.30317 11.7202 8.28314C11.7824 8.26901 11.8687 8.25123 11.9272 8.3032C11.9857 8.35518 11.9799 8.4536 11.9737 8.48C11.936 8.64095 10.44 10.0318 9.66584 10.7515C9.4245 10.9759 9.25331 11.135 9.21831 11.1714C9.13992 11.2528 9.06002 11.3298 8.98323 11.4038C8.50889 11.8611 8.15317 12.204 9.00292 12.764C9.41128 13.0331 9.73804 13.2556 10.064 13.4776C10.4201 13.7201 10.7752 13.9619 11.2346 14.2631C11.3516 14.3398 11.4634 14.4195 11.5723 14.4971C11.9866 14.7925 12.3589 15.0578 12.8187 15.0155C13.0859 14.9909 13.362 14.7397 13.5021 13.9903C13.8334 12.2193 14.4846 8.38205 14.6351 6.80081C14.6483 6.66228 14.6317 6.48498 14.6184 6.40715C14.6051 6.32932 14.5772 6.21842 14.4761 6.13633C14.3562 6.03911 14.1713 6.01861 14.0886 6.02007C13.7124 6.0267 13.1354 6.22735 10.3583 7.38244Z" ></path>
  </symbol>
  <symbol xmlns="http://www.w3.org/2000/svg" viewBox="0 0 20 20" id="insta">
    <path d="M10 1.80078C12.6719 1.80078 12.9883 1.8125 14.0391 1.85937C15.0156 1.90234 15.543 2.06641 15.8945 2.20313C16.3594 2.38281 16.6953 2.60156 17.043 2.94922C17.3945 3.30078 17.6094 3.63281 17.7891 4.09766C17.9258 4.44922 18.0898 4.98047 18.1328 5.95313C18.1797 7.00781 18.1914 7.32422 18.1914 9.99219C18.1914 12.6641 18.1797 12.9805 18.1328 14.0313C18.0898 15.0078 17.9258 15.5352 17.7891 15.8867C17.6094 16.3516 17.3906 16.6875 17.043 17.0352C16.6914 17.3867 16.3594 17.6016 15.8945 17.7813C15.543 17.918 15.0117 18.082 14.0391 18.125C12.9844 18.1719 12.668 18.1836 10 18.1836C7.32813 18.1836 7.01172 18.1719 5.96094 18.125C4.98438 18.082 4.45703 17.918 4.10547 17.7813C3.64063 17.6016 3.30469 17.3828 2.95703 17.0352C2.60547 16.6836 2.39063 16.3516 2.21094 15.8867C2.07422 15.5352 1.91016 15.0039 1.86719 14.0313C1.82031 12.9766 1.80859 12.6602 1.80859 9.99219C1.80859 7.32031 1.82031 7.00391 1.86719 5.95313C1.91016 4.97656 2.07422 4.44922 2.21094 4.09766C2.39063 3.63281 2.60938 3.29688 2.95703 2.94922C3.30859 2.59766 3.64063 2.38281 4.10547 2.20313C4.45703 2.06641 4.98828 1.90234 5.96094 1.85937C7.01172 1.8125 7.32813 1.80078 10 1.80078ZM10 0C7.28516 0 6.94531 0.0117187 5.87891 0.0585938C4.81641 0.105469 4.08594 0.277344 3.45313 0.523437C2.79297 0.78125 2.23438 1.12109 1.67969 1.67969C1.12109 2.23438 0.78125 2.79297 0.523438 3.44922C0.277344 4.08594 0.105469 4.8125 0.0585938 5.875C0.0117188 6.94531 0 7.28516 0 10C0 12.7148 0.0117188 13.0547 0.0585938 14.1211C0.105469 15.1836 0.277344 15.9141 0.523438 16.5469C0.78125 17.207 1.12109 17.7656 1.67969 18.3203C2.23438 18.875 2.79297 19.2188 3.44922 19.4727C4.08594 19.7188 4.8125 19.8906 5.875 19.9375C6.94141 19.9844 7.28125 19.9961 9.99609 19.9961C12.7109 19.9961 13.0508 19.9844 14.1172 19.9375C15.1797 19.8906 15.9102 19.7188 16.543 19.4727C17.1992 19.2188 17.7578 18.875 18.3125 18.3203C18.8672 17.7656 19.2109 17.207 19.4648 16.5508C19.7109 15.9141 19.8828 15.1875 19.9297 14.125C19.9766 13.0586 19.9883 12.7188 19.9883 10.0039C19.9883 7.28906 19.9766 6.94922 19.9297 5.88281C19.8828 4.82031 19.7109 4.08984 19.4648 3.45703C19.2188 2.79297 18.8789 2.23438 18.3203 1.67969C17.7656 1.125 17.207 0.78125 16.5508 0.527344C15.9141 0.28125 15.1875 0.109375 14.125 0.0625C13.0547 0.0117188 12.7148 0 10 0Z" ></path>
    <path d="M10 4.86328C7.16406 4.86328 4.86328 7.16406 4.86328 10C4.86328 12.8359 7.16406 15.1367 10 15.1367C12.8359 15.1367 15.1367 12.8359 15.1367 10C15.1367 7.16406 12.8359 4.86328 10 4.86328ZM10 13.332C8.16016 13.332 6.66797 11.8398 6.66797 10C6.66797 8.16016 8.16016 6.66797 10 6.66797C11.8398 6.66797 13.332 8.16016 13.332 10C13.332 11.8398 11.8398 13.332 10 13.332Z" ></path>
    <path d="M16.5391 4.66016C16.5391 5.32422 16 5.85938 15.3398 5.85938C14.6758 5.85938 14.1406 5.32031 14.1406 4.66016C14.1406 3.99609 14.6797 3.46094 15.3398 3.46094C16 3.46094 16.5391 4 16.5391 4.66016Z" ></path>
  </symbol>
</svg>