<svg width="250" height="82" viewBox="0 0 250 82" fill="none" xmlns="http://www.w3.org/2000/svg">
<path d="M120.764 6.0545H49.8293C49.4435 6.0545 49.0613 5.98007 48.7036 5.83529L37.3007 1.21921C36.9431 1.07443 36.5609 1 36.175 1H15.9213C15.1774 1 14.46 1.27942 13.9083 1.78402L1.98713 11.6778C1.3586 12.2527 1 13.0696 1 13.9265V68.0735C1 68.9304 1.3586 69.7473 1.98713 70.3222L13.9083 80.216C14.46 80.7206 15.1774 81 15.9213 81H36.175C36.5609 81 36.9431 80.9256 37.3007 80.7808L48.7036 76.1647C49.0613 76.0199 49.4435 75.9455 49.8293 75.9455H120.764M121.006 6.0545H163.523L200.867 6.55119C201.3 6.55696 201.73 6.46854 202.127 6.29202L213.428 1.25943C213.813 1.08839 214.228 1 214.649 1H234.849C235.593 1 236.31 1.27942 236.862 1.78402L248.013 11.6144C248.641 12.1894 249 13.0063 249 13.8631V68.1369C249 68.9937 248.641 69.8106 248.013 70.3855L236.862 80.216C236.31 80.7206 235.593 81 234.849 81H214.649C214.228 81 213.813 80.9116 213.428 80.7406L202.127 75.708C201.73 75.5315 201.3 75.443 200.867 75.4488L163.523 75.9455H121.006" stroke="url(#paint0_linear_2_1458)" stroke-width="2" stroke-linecap="round" stroke-linejoin="round"/>
<defs>
<linearGradient id="paint0_linear_2_1458" x1="249" y1="1" x2="234.057" y2="112.292" gradientUnits="userSpaceOnUse">
<stop stop-color="#1FDEA3"/>
<stop offset="1" stop-color="#7755EA"/>
</linearGradient>
</defs>
</svg>
