<svg width="106" height="106" viewBox="0 0 106 106" fill="none" xmlns="http://www.w3.org/2000/svg">
<g filter="url(#filter0_d_1327_11238)">
<path d="M98 49C98 24.1472 77.8528 4 53 4C28.1472 4 8 24.1472 8 49C8 73.8528 28.1472 94 53 94C77.8528 94 98 73.8528 98 49Z" fill="white"/>
<path d="M53 51C56.3138 51 59 48.3138 59 45C59 41.6863 56.3138 39 53 39C49.6862 39 47 41.6863 47 45C47 48.3138 49.6862 51 53 51Z" stroke="#4A5568" stroke-width="4" stroke-linecap="round" stroke-linejoin="round"/>
<path d="M53 29C48.7565 29 44.6869 30.6857 41.6863 33.6863C38.6857 36.6869 37 40.7565 37 45C37 48.784 37.804 51.26 40 54L53 69L66 54C68.196 51.26 69 48.784 69 45C69 40.7565 67.3142 36.6869 64.3138 33.6863C61.3132 30.6857 57.2434 29 53 29Z" stroke="#4A5568" stroke-width="4" stroke-linecap="round" stroke-linejoin="round"/>
</g>
<defs>
<filter id="filter0_d_1327_11238" x="0" y="0" width="106" height="106" filterUnits="userSpaceOnUse" color-interpolation-filters="sRGB">
<feFlood flood-opacity="0" result="BackgroundImageFix"/>
<feColorMatrix in="SourceAlpha" type="matrix" values="0 0 0 0 0 0 0 0 0 0 0 0 0 0 0 0 0 0 127 0" result="hardAlpha"/>
<feOffset dy="4"/>
<feGaussianBlur stdDeviation="4"/>
<feComposite in2="hardAlpha" operator="out"/>
<feColorMatrix type="matrix" values="0 0 0 0 0.486275 0 0 0 0 0.486275 0 0 0 0 0.486275 0 0 0 0.13 0"/>
<feBlend mode="normal" in2="BackgroundImageFix" result="effect1_dropShadow_1327_11238"/>
<feBlend mode="normal" in="SourceGraphic" in2="effect1_dropShadow_1327_11238" result="shape"/>
</filter>
</defs>
</svg>
