<svg width="126" height="126" viewBox="0 0 126 126" fill="none" xmlns="http://www.w3.org/2000/svg">
<g id="Group 1000001554 2">
<g id="Group" filter="url(#filter0_d_1327_11522)">
<path id="Vector" d="M108 54C108 29.1472 87.8528 9 63 9C38.1472 9 18 29.1472 18 54C18 78.8528 38.1472 99 63 99C87.8528 99 108 78.8528 108 54Z" fill="white"/>
</g>
<path id="Vector_2" d="M45 65.25L60.3 47.8928L70.4999 59.4644L83.25 45" stroke="#4A5568" stroke-width="2"/>
<path id="Vector_3" d="M43.875 69.75C46.9816 69.75 49.5 67.2316 49.5 64.125C49.5 61.0184 46.9816 58.5 43.875 58.5C40.7684 58.5 38.25 61.0184 38.25 64.125C38.25 67.2316 40.7684 69.75 43.875 69.75Z" fill="#4A5568"/>
<path id="Vector_4" d="M82.125 51.75C85.2316 51.75 87.75 49.2316 87.75 46.125C87.75 43.0184 85.2316 40.5 82.125 40.5C79.0184 40.5 76.5 43.0184 76.5 46.125C76.5 49.2316 79.0184 51.75 82.125 51.75Z" fill="#4A5568"/>
<path id="Vector_5" d="M68.625 65.25C71.7316 65.25 74.25 62.7316 74.25 59.625C74.25 56.5184 71.7316 54 68.625 54C65.5184 54 63 56.5184 63 59.625C63 62.7316 65.5184 65.25 68.625 65.25Z" fill="#4A5568"/>
<path id="Vector_6" d="M57.375 51.75C60.4816 51.75 63 49.2316 63 46.125C63 43.0184 60.4816 40.5 57.375 40.5C54.2684 40.5 51.75 43.0184 51.75 46.125C51.75 49.2316 54.2684 51.75 57.375 51.75Z" fill="#4A5568"/>
</g>
<defs>
<filter id="filter0_d_1327_11522" x="10" y="5" width="106" height="106" filterUnits="userSpaceOnUse" color-interpolation-filters="sRGB">
<feFlood flood-opacity="0" result="BackgroundImageFix"/>
<feColorMatrix in="SourceAlpha" type="matrix" values="0 0 0 0 0 0 0 0 0 0 0 0 0 0 0 0 0 0 127 0" result="hardAlpha"/>
<feOffset dy="4"/>
<feGaussianBlur stdDeviation="4"/>
<feComposite in2="hardAlpha" operator="out"/>
<feColorMatrix type="matrix" values="0 0 0 0 0.486275 0 0 0 0 0.486275 0 0 0 0 0.486275 0 0 0 0.13 0"/>
<feBlend mode="normal" in2="BackgroundImageFix" result="effect1_dropShadow_1327_11522"/>
<feBlend mode="normal" in="SourceGraphic" in2="effect1_dropShadow_1327_11522" result="shape"/>
</filter>
</defs>
</svg>
