<svg width="63" height="62" viewBox="0 0 63 62" fill="none" xmlns="http://www.w3.org/2000/svg">
<g clip-path="url(#clip0_1306_4720)">
<path d="M62.5706 31.2858C62.5706 14.1255 48.6594 0.214355 31.4992 0.214355C14.3389 0.214355 0.427734 14.1255 0.427734 31.2858C0.427734 48.4461 14.3389 62.3572 31.4992 62.3572C48.6594 62.3572 62.5706 48.4461 62.5706 31.2858Z" fill="#31976C"/>
<path fill-rule="evenodd" clip-rule="evenodd" d="M41.9424 31.841C42.4939 31.2887 43.3881 31.2887 43.9396 31.841L48.1765 36.0779C48.7279 36.6286 48.7279 37.5241 48.1765 38.0748L38.2904 47.961C37.7389 48.5133 36.8446 48.5133 36.2931 47.961L32.0562 43.7241C31.5047 43.1733 31.5047 42.2779 32.0562 41.7271L41.9424 31.841ZM35.0521 42.7256L37.2918 44.9656L45.1806 37.0764L42.941 34.8364L35.0521 42.7256Z" fill="white"/>
<path fill-rule="evenodd" clip-rule="evenodd" d="M17.9313 17.7175C18.2791 17.3702 18.7829 17.2274 19.2613 17.3433L39.7397 22.2863C40.2743 22.4149 40.6852 22.8428 40.793 23.3823L42.9115 33.9746C43.0042 34.4379 42.8593 34.9165 42.5252 35.2499L35.4638 42.3114C35.1299 42.6462 34.6513 42.7902 34.1882 42.6984L23.5959 40.5799C23.0568 40.4711 22.6291 40.0602 22.5 39.5263L17.557 19.0479C17.4416 18.5692 17.5834 18.0649 17.9313 17.7175ZM20.8452 20.6311L25.0342 37.987L34.001 39.7792L39.9935 33.7868L38.2003 24.82L20.8452 20.6311Z" fill="white"/>
<path fill-rule="evenodd" clip-rule="evenodd" d="M17.9312 17.7179C18.4828 17.1656 19.377 17.1656 19.9284 17.7179L30.6421 28.4317C31.1936 28.9824 31.1936 29.8779 30.6421 30.4286C30.0906 30.9809 29.1963 30.9809 28.6448 30.4286L17.9311 19.7149C17.3797 19.1642 17.3797 18.2687 17.9312 17.7179Z" fill="white"/>
<path fill-rule="evenodd" clip-rule="evenodd" d="M31.6431 30.0146C30.8631 30.0146 30.2308 30.6473 30.2308 31.4268C30.2308 32.2064 30.8631 32.8392 31.6431 32.8392C32.4232 32.8392 33.0555 32.2064 33.0555 31.4268C33.0555 30.6473 32.4232 30.0146 31.6431 30.0146ZM27.4062 31.4268C27.4062 29.0867 29.3032 27.1899 31.6431 27.1899C33.9831 27.1899 35.88 29.0867 35.88 31.4268C35.88 33.7671 33.9831 35.6637 31.6431 35.6637C29.3032 35.6637 27.4062 33.7671 27.4062 31.4268Z" fill="white"/>
</g>
<defs>
<clipPath id="clip0_1306_4720">
<rect width="63" height="62" fill="white"/>
</clipPath>
</defs>
</svg>
