<svg width="63" height="62" viewBox="0 0 63 62" fill="none" xmlns="http://www.w3.org/2000/svg">
<g clip-path="url(#clip0_1306_4710)">
<path d="M62.5706 31.2858C62.5706 14.1255 48.6594 0.214355 31.4992 0.214355C14.3389 0.214355 0.427734 14.1255 0.427734 31.2858C0.427734 48.4461 14.3389 62.3572 31.4992 62.3572C48.6594 62.3572 62.5706 48.4461 62.5706 31.2858Z" fill="#1A1A1A"/>
<path d="M43.5489 44.3637V18.6114C43.5489 17.0233 42.2737 15.75 40.6833 15.75L23.4904 15.75C22.7306 15.75 22.0018 16.0519 21.4642 16.5883C20.9269 17.1249 20.625 17.8531 20.625 18.6114V25.7648V30.7721V34.3489V37.2103V44.3637C20.625 45.9374 21.9145 47.2108 23.4904 47.2108L40.6833 47.225C41.4433 47.225 42.1721 46.9232 42.7095 46.3866C43.2469 45.8501 43.5489 45.1218 43.5489 44.3637ZM23.4904 44.3637V18.6114H40.6833V44.3637H23.4904ZM33.5196 37.2103H30.6542V32.9182H26.356V30.0568H30.6542V25.7648H33.5196V30.0568H37.8179V32.9182H33.5196V37.2103Z" fill="white"/>
</g>
<defs>
<clipPath id="clip0_1306_4710">
<rect width="63" height="62" fill="white"/>
</clipPath>
</defs>
</svg>
