<svg width="32" height="32" viewBox="0 0 32 32" fill="none" xmlns="http://www.w3.org/2000/svg">
<g id="ic:round-email">
<path id="Vector" d="M26.666 5.33301H5.33268C3.86602 5.33301 2.67935 6.53301 2.67935 7.99967L2.66602 23.9997C2.66602 25.4663 3.86602 26.6663 5.33268 26.6663H26.666C28.1327 26.6663 29.3327 25.4663 29.3327 23.9997V7.99967C29.3327 6.53301 28.1327 5.33301 26.666 5.33301ZM26.1327 10.9997L16.706 16.893C16.2793 17.1597 15.7193 17.1597 15.2927 16.893L5.86602 10.9997C5.73232 10.9246 5.61524 10.8232 5.52187 10.7016C5.42849 10.58 5.36077 10.4407 5.32278 10.2922C5.2848 10.1436 5.27735 9.98892 5.30089 9.83742C5.32443 9.68591 5.37846 9.54076 5.45972 9.41074C5.54098 9.28073 5.64778 9.16855 5.77365 9.081C5.89952 8.99345 6.04184 8.93236 6.19201 8.90141C6.34218 8.87046 6.49706 8.8703 6.64729 8.90094C6.79752 8.93158 6.93997 8.99239 7.06602 9.07967L15.9993 14.6663L24.9327 9.07967C25.0587 8.99239 25.2012 8.93158 25.3514 8.90094C25.5016 8.8703 25.6565 8.87046 25.8067 8.90141C25.9569 8.93236 26.0992 8.99345 26.225 9.081C26.3509 9.16855 26.4577 9.28073 26.539 9.41074C26.6202 9.54076 26.6743 9.68591 26.6978 9.83742C26.7213 9.98892 26.7139 10.1436 26.6759 10.2922C26.6379 10.4407 26.5702 10.58 26.4768 10.7016C26.3835 10.8232 26.2664 10.9246 26.1327 10.9997Z" fill="#1A1A1A"/>
</g>
</svg>
