<svg width="36" height="30" viewBox="0 0 36 30" fill="none" xmlns="http://www.w3.org/2000/svg">
<path fill-rule="evenodd" clip-rule="evenodd" d="M35.996 29.8322L21.9199 16.4222L18.8498 19.3469L18.5151 19.6251C18.4058 19.7171 18.3041 19.8149 18.1921 19.9026L28.6149 29.8322L35.996 29.8322ZM15.2058 0.863281L26.0177 0.863281L16.6909 9.74868L14.5684 9.74957C11.322 9.74957 8.69033 12.2568 8.69033 15.3495C8.69033 18.4376 11.3143 20.9418 14.554 20.9492L16.6925 20.9518L26.0177 29.8357H15.2058C6.8426 29.8357 0 23.3169 0 15.3495C0 7.38207 6.8426 0.863281 15.2058 0.863281ZM14.7169 11.1981C15.6619 11.1981 16.5746 11.4452 17.2886 11.9321C17.4003 12.0083 17.494 12.1018 17.5967 12.1882L17.8444 12.394L20.9087 15.3133L17.8778 18.2008L17.7512 18.3047C17.7027 18.3499 17.6532 18.3941 17.6027 18.4372C17.5105 18.5157 17.4149 18.5907 17.3164 18.6618L17.3157 18.6624L17.3157 18.6624C16.5905 19.1856 15.6985 19.5009 14.7169 19.5009C12.3102 19.5009 10.3593 17.6422 10.3593 15.3495C10.3593 13.0567 12.3102 11.1981 14.7169 11.1981ZM35.996 0.869279L21.9199 14.2793L18.8498 11.3545L18.5151 11.0763C18.4058 10.9843 18.3041 10.8865 18.1921 10.7988L28.6149 0.869279L35.996 0.869279Z" fill="#FFD900"/>
</svg>
