<svg width="175" height="35" viewBox="0 0 175 35" fill="none" xmlns="http://www.w3.org/2000/svg">
<path d="M48.5577 9.06936H47.4359V4.99495L44.7866 9.06936H43.4922V3.33075H44.614V7.38057L47.2633 3.33075H48.5577V9.06936ZM49.7054 9.06936V3.33075H50.8272V5.66718H53.6491V3.33075H54.7709V9.06936H53.6491V6.71653H50.8272V9.06936H49.7054ZM58.8613 4.38011H57.0405V5.68358H58.8958C59.0914 5.68358 59.2554 5.61526 59.3877 5.47863C59.52 5.34199 59.5861 5.17531 59.5861 4.97855C59.5861 4.80366 59.5186 4.66019 59.3834 4.54816C59.2482 4.43613 59.0741 4.38011 58.8613 4.38011ZM58.8958 6.70014H57.0405V8.02002H58.9476C59.1547 8.02002 59.3273 7.96125 59.4653 7.84376C59.6034 7.72625 59.6724 7.58005 59.6724 7.40516C59.6724 7.20294 59.5977 7.03489 59.4481 6.90098C59.2985 6.76709 59.1144 6.70014 58.8958 6.70014ZM59.0511 9.06936H55.9186V3.33075H58.9648C59.4653 3.33075 59.881 3.47149 60.2118 3.75296C60.5426 4.03441 60.708 4.39103 60.708 4.82279C60.708 5.10699 60.6389 5.36933 60.5009 5.6098C60.3628 5.85028 60.173 6.0361 59.9313 6.16726C60.2017 6.29844 60.4131 6.48562 60.5656 6.72884C60.7181 6.97203 60.7943 7.24393 60.7943 7.54453C60.7943 7.97629 60.6275 8.33836 60.2938 8.63077C59.9601 8.92316 59.5459 9.06936 59.0511 9.06936ZM62.9171 5.66718H65.8166V6.71653H62.9171V8.02002H66.0237V9.06936H61.7953V3.33075H66.0237V4.38011H62.9171V5.66718ZM67.2664 7.73719C66.9902 7.27536 66.8522 6.76025 66.8522 6.19186C66.8522 5.62347 66.9902 5.10835 67.2664 4.64653C67.5425 4.18472 67.9208 3.82264 68.4012 3.5603C68.8815 3.29796 69.4123 3.1668 69.9933 3.1668C70.6376 3.1668 71.2244 3.33212 71.7537 3.66278C72.283 3.99343 72.6828 4.44568 72.9532 5.01954L71.8314 5.40485C71.6645 5.03867 71.4172 4.75174 71.0892 4.54406C70.7613 4.33637 70.3931 4.23253 69.9847 4.23253C69.4209 4.23253 68.9448 4.41836 68.5565 4.78999C68.1682 5.16164 67.974 5.62892 67.974 6.19186C67.974 6.75479 68.1682 7.22207 68.5565 7.59372C68.9448 7.96535 69.4209 8.15118 69.9847 8.15118C70.4046 8.15118 70.7815 8.04051 71.1151 7.81916C71.4488 7.59782 71.6991 7.29312 71.8659 6.90508L72.9963 7.28219C72.7317 7.87792 72.3304 8.3493 71.7925 8.69634C71.2546 9.0434 70.6549 9.21692 69.9933 9.21692C69.4123 9.21692 68.8815 9.08575 68.4012 8.82341C67.9208 8.56108 67.5425 8.19899 67.2664 7.73719ZM78.5365 3.33075V4.38011H76.6984V9.06936H75.5766V4.38011H73.7298V3.33075H78.5365ZM84.508 9.06936H83.3862V4.99495L80.737 9.06936H79.4426V3.33075H80.5644V7.38057L83.2136 3.33075H84.508V9.06936ZM90.5487 8.02002V3.33075H89.4269V8.02002H86.7776V3.33075H85.6558V9.06936H90.2639V10.1269H91.3857V8.02002H90.5487ZM97.3918 9.06936H96.27V4.99495L93.6208 9.06936H92.3263V3.33075H93.4482V7.38057L96.0974 3.33075H97.3918V9.06936ZM99.4888 6.17547C99.4888 6.75479 99.6815 7.2289 100.067 7.59781C100.452 7.96673 100.924 8.15118 101.482 8.15118C102.04 8.15118 102.512 7.96673 102.897 7.59781C103.283 7.2289 103.476 6.75479 103.476 6.17547C103.476 5.60707 103.283 5.14115 102.897 4.77771C102.512 4.41427 102.04 4.23253 101.482 4.23253C100.924 4.23253 100.452 4.41427 100.067 4.77771C99.6815 5.14115 99.4888 5.60707 99.4888 6.17547ZM98.367 6.17547C98.367 5.59613 98.5079 5.07556 98.7898 4.61375C99.0717 4.15192 99.4485 3.79531 99.9203 3.5439C100.392 3.2925 100.913 3.1668 101.482 3.1668C102.052 3.1668 102.572 3.2925 103.044 3.5439C103.516 3.79531 103.893 4.15192 104.175 4.61375C104.457 5.07556 104.597 5.59613 104.597 6.17547C104.597 6.61269 104.515 7.02122 104.352 7.40106C104.188 7.7809 103.965 8.10335 103.683 8.36843C103.401 8.6335 103.07 8.84117 102.69 8.99148C102.311 9.14177 101.908 9.21692 101.482 9.21692C101.057 9.21692 100.654 9.14177 100.274 8.99148C99.8944 8.84117 99.5636 8.6335 99.2817 8.36843C98.9998 8.10335 98.7769 7.7809 98.6129 7.40106C98.4489 7.02122 98.367 6.61269 98.367 6.17547ZM105.573 9.06936V3.33075H106.694V5.66718H109.516V3.33075H110.638V9.06936H109.516V6.71653H106.694V9.06936H105.573ZM111.786 9.06936V3.33075H112.908V5.66718H115.729V3.33075H116.851V9.06936H115.729V6.71653H112.908V9.06936H111.786ZM124.462 9.06936H123.341V3.33075H124.462V9.06936ZM119.121 3.33075V5.45403H120.666C121.218 5.45403 121.685 5.62756 122.068 5.9746C122.45 6.32166 122.642 6.7466 122.642 7.24941C122.642 7.7686 122.462 8.20174 122.102 8.54878C121.743 8.89583 121.293 9.06936 120.752 9.06936H117.999V3.33075H119.121ZM120.666 8.02002C120.913 8.02002 121.117 7.94759 121.278 7.80276C121.439 7.65793 121.52 7.47348 121.52 7.24941C121.52 7.03626 121.438 6.85863 121.274 6.71653C121.11 6.57443 120.907 6.50338 120.666 6.50338H119.121V8.02002H120.666ZM128.182 2.66672C127.727 2.66672 127.34 2.52598 127.021 2.24453C126.702 1.96306 126.542 1.62284 126.542 1.22388H127.405C127.405 1.42609 127.48 1.59141 127.63 1.71984C127.779 1.84828 127.966 1.9125 128.19 1.9125C128.421 1.9125 128.618 1.84555 128.782 1.71165C128.946 1.57774 129.027 1.41515 129.027 1.22388H129.89C129.89 1.6119 129.721 1.94939 129.381 2.23632C129.042 2.52325 128.642 2.66672 128.182 2.66672ZM130.676 9.06936H129.554V4.99495L126.905 9.06936H125.61V3.33075H126.732V7.38057L129.381 3.33075H130.676V9.06936ZM134.386 3.33075V9.06936H135.508V4.32271H138.442V9.06936H139.564V3.33075H134.386ZM141.661 6.17547C141.661 6.75479 141.854 7.2289 142.239 7.59781C142.625 7.96673 143.096 8.15118 143.654 8.15118C144.212 8.15118 144.684 7.96673 145.07 7.59781C145.455 7.2289 145.648 6.75479 145.648 6.17547C145.648 5.60707 145.455 5.14115 145.07 4.77771C144.684 4.41427 144.212 4.23253 143.654 4.23253C143.096 4.23253 142.625 4.41427 142.239 4.77771C141.854 5.14115 141.661 5.60707 141.661 6.17547ZM140.539 6.17547C140.539 5.59613 140.68 5.07556 140.962 4.61375C141.244 4.15192 141.621 3.79531 142.092 3.5439C142.564 3.2925 143.085 3.1668 143.654 3.1668C144.224 3.1668 144.745 3.2925 145.216 3.5439C145.688 3.79531 146.065 4.15192 146.347 4.61375C146.629 5.07556 146.77 5.59613 146.77 6.17547C146.77 6.61269 146.688 7.02122 146.524 7.40106C146.36 7.7809 146.137 8.10335 145.855 8.36843C145.573 8.6335 145.242 8.84117 144.863 8.99148C144.483 9.14177 144.08 9.21692 143.654 9.21692C143.229 9.21692 142.826 9.14177 142.446 8.99148C142.067 8.84117 141.736 8.6335 141.454 8.36843C141.172 8.10335 140.949 7.7809 140.785 7.40106C140.621 7.02122 140.539 6.61269 140.539 6.17547ZM150.273 4.38011H148.867V6.28204H150.273C150.595 6.28204 150.866 6.18912 151.084 6.0033C151.303 5.81749 151.412 5.58794 151.412 5.31468C151.412 5.04688 151.304 4.82415 151.089 4.64653C150.873 4.46892 150.601 4.38011 150.273 4.38011ZM150.273 7.33138H148.867V9.06936H147.745V3.33075H150.36C150.981 3.33075 151.499 3.51932 151.913 3.89642C152.327 4.27353 152.534 4.74628 152.534 5.31468C152.534 5.8776 152.314 6.35446 151.874 6.74521C151.434 7.13599 150.9 7.33138 150.273 7.33138ZM157.807 3.33075V4.38011H155.969V9.06936H154.847V4.38011H153V3.33075H157.807ZM159.731 6.74933H163.114V7.74947H159.731V6.74933ZM159.559 9.06936H158.273L160.672 3.33075H162.139L164.555 9.06936H163.269L161.422 4.42928L159.559 9.06936ZM165.288 8.0774H165.073V9.06936H165.435C166.085 9.06936 166.613 8.87124 167.019 8.475C167.424 8.07877 167.627 7.61012 167.627 7.06904V4.32271H169.413V9.06936H170.535V3.33075H166.514V6.8395C166.514 7.20021 166.407 7.4967 166.195 7.72898C165.982 7.96126 165.68 8.0774 165.288 8.0774Z" fill="black"/>
<path d="M43.7267 18.7242C43.4506 18.2624 43.3125 17.7473 43.3125 17.1789C43.3125 16.6105 43.4506 16.0954 43.7267 15.6335C44.0029 15.1717 44.3811 14.8097 44.8615 14.5473C45.3419 14.285 45.8726 14.1538 46.4536 14.1538C47.098 14.1538 47.6848 14.3191 48.214 14.6498C48.7433 14.9804 49.1432 15.4327 49.4135 16.0066L48.2917 16.3919C48.1249 16.0257 47.8775 15.7387 47.5496 15.5311C47.2217 15.3234 46.8535 15.2195 46.445 15.2195C45.8812 15.2195 45.4052 15.4054 45.0168 15.777C44.6285 16.1487 44.4343 16.6159 44.4343 17.1789C44.4343 17.7418 44.6285 18.2091 45.0168 18.5807C45.4052 18.9524 45.8812 19.1382 46.445 19.1382C46.865 19.1382 47.2418 19.0275 47.5755 18.8062C47.9091 18.5848 48.1594 18.2801 48.3262 17.8921L49.4567 18.2692C49.192 18.8649 48.7908 19.3363 48.2529 19.6834C47.715 20.0304 47.1152 20.2039 46.4536 20.2039C45.8726 20.2039 45.3419 20.0728 44.8615 19.8104C44.3811 19.5481 44.0029 19.186 43.7267 18.7242ZM54.7638 14.3178V15.3671H52.9257V20.0564H51.8039V15.3671H49.9572V14.3178H54.7638ZM56.6882 17.7363H60.0709V18.7365H56.6882V17.7363ZM56.5156 20.0564H55.2298L57.6288 14.3178H59.0958L61.5121 20.0564H60.2263L58.3796 15.4163L56.5156 20.0564ZM65.1537 15.3671H63.3329V16.6706H65.1882C65.3838 16.6706 65.5478 16.6023 65.6801 16.4656C65.8124 16.329 65.8786 16.1623 65.8786 15.9656C65.8786 15.7907 65.811 15.6472 65.6758 15.5352C65.5406 15.4231 65.3666 15.3671 65.1537 15.3671ZM65.1882 17.6871H63.3329V19.007H65.24C65.4471 19.007 65.6197 18.9483 65.7578 18.8308C65.8958 18.7133 65.9649 18.5671 65.9649 18.3922C65.9649 18.19 65.8901 18.0219 65.7405 17.888C65.5909 17.7541 65.4068 17.6871 65.1882 17.6871ZM65.3435 20.0564H62.211V14.3178H65.2573C65.7578 14.3178 66.1734 14.4585 66.5042 14.74C66.835 15.0214 67.0004 15.378 67.0004 15.8098C67.0004 16.094 66.9314 16.3563 66.7933 16.5968C66.6552 16.8373 66.4654 17.0231 66.2238 17.1543C66.4941 17.2855 66.7056 17.4726 66.858 17.7158C67.0105 17.959 67.0867 18.2309 67.0867 18.5315C67.0867 18.9633 66.9199 19.3254 66.5862 19.6178C66.2525 19.9102 65.8383 20.0564 65.3435 20.0564ZM70.3832 15.3671H68.9766V17.2691H70.3832C70.7053 17.2691 70.9757 17.1761 71.1943 16.9903C71.4129 16.8045 71.5222 16.575 71.5222 16.3017C71.5222 16.0339 71.4144 15.8112 71.1986 15.6335C70.9829 15.4559 70.7111 15.3671 70.3832 15.3671ZM70.3832 18.3184H68.9766V20.0564H67.8547V14.3178H70.4695C71.0908 14.3178 71.6085 14.5063 72.0228 14.8834C72.437 15.2605 72.6441 15.7333 72.6441 16.3017C72.6441 16.8646 72.424 17.3415 71.9839 17.7322C71.5438 18.123 71.0102 18.3184 70.3832 18.3184ZM74.3009 17.1625C74.3009 17.7418 74.4937 18.2159 74.8791 18.5848C75.2646 18.9537 75.7363 19.1382 76.2943 19.1382C76.8524 19.1382 77.3241 18.9537 77.7096 18.5848C78.095 18.2159 78.2878 17.7418 78.2878 17.1625C78.2878 16.5941 78.095 16.1282 77.7096 15.7647C77.3241 15.4013 76.8524 15.2195 76.2943 15.2195C75.7363 15.2195 75.2646 15.4013 74.8791 15.7647C74.4937 16.1282 74.3009 16.5941 74.3009 17.1625ZM73.1791 17.1625C73.1791 16.5831 73.3201 16.0626 73.6019 15.6008C73.8838 15.1389 74.2607 14.7823 74.7324 14.5309C75.2042 14.2795 75.7248 14.1538 76.2943 14.1538C76.8639 14.1538 77.3845 14.2795 77.8563 14.5309C78.328 14.7823 78.7048 15.1389 78.9867 15.6008C79.2686 16.0626 79.4096 16.5831 79.4096 17.1625C79.4096 17.5997 79.3276 18.0082 79.1636 18.3881C78.9997 18.7679 78.7768 19.0904 78.4949 19.3554C78.213 19.6205 77.8822 19.8282 77.5025 19.9785C77.1228 20.1288 76.7201 20.2039 76.2943 20.2039C75.8686 20.2039 75.4659 20.1288 75.0862 19.9785C74.7065 19.8282 74.3757 19.6205 74.0938 19.3554C73.8119 19.0904 73.589 18.7679 73.425 18.3881C73.2611 18.0082 73.1791 17.5997 73.1791 17.1625ZM80.1517 14.3178V20.0564H81.2736V15.3097H84.2076V20.0564H85.3294V14.3178H80.1517ZM87.1934 17.1625C87.1934 17.7418 87.3861 18.2159 87.7715 18.5848C88.157 18.9537 88.6287 19.1382 89.1868 19.1382C89.7448 19.1382 90.2166 18.9537 90.602 18.5848C90.9875 18.2159 91.1802 17.7418 91.1802 17.1625C91.1802 16.5941 90.9875 16.1282 90.602 15.7647C90.2166 15.4013 89.7448 15.2195 89.1868 15.2195C88.6287 15.2195 88.157 15.4013 87.7715 15.7647C87.3861 16.1282 87.1934 16.5941 87.1934 17.1625ZM86.0715 17.1625C86.0715 16.5831 86.2125 16.0626 86.4944 15.6008C86.7763 15.1389 87.1531 14.7823 87.6248 14.5309C88.0966 14.2795 88.6172 14.1538 89.1868 14.1538C89.7563 14.1538 90.277 14.2795 90.7487 14.5309C91.2205 14.7823 91.5973 15.1389 91.8792 15.6008C92.1611 16.0626 92.302 16.5831 92.302 17.1625C92.302 17.5997 92.22 18.0082 92.0561 18.3881C91.8921 18.7679 91.6692 19.0904 91.3873 19.3554C91.1054 19.6205 90.7746 19.8282 90.3949 19.9785C90.0152 20.1288 89.6125 20.2039 89.1868 20.2039C88.7611 20.2039 88.3583 20.1288 87.9787 19.9785C87.599 19.8282 87.2682 19.6205 86.9863 19.3554C86.7044 19.0904 86.4814 18.7679 86.3175 18.3881C86.1535 18.0082 86.0715 17.5997 86.0715 17.1625ZM93.0787 19.0644H92.8629V20.0564H93.2254C93.8755 20.0564 94.4033 19.8582 94.8089 19.462C95.2145 19.0658 95.4173 18.5971 95.4173 18.056V15.3097H97.2035V20.0564H98.3254V14.3178H94.3041V17.8265C94.3041 18.1872 94.1976 18.4837 93.9848 18.716C93.7719 18.9483 93.4699 19.0644 93.0787 19.0644ZM100.362 14.3178V16.441H102.459C103.005 16.441 103.47 16.6146 103.853 16.9616C104.235 17.3087 104.426 17.7336 104.426 18.2364C104.426 18.7556 104.248 19.1888 103.891 19.5358C103.535 19.8828 103.086 20.0564 102.545 20.0564H99.2401V14.3178H100.362ZM102.459 19.007C102.701 19.007 102.903 18.9346 103.067 18.7898C103.231 18.6449 103.313 18.4605 103.313 18.2364C103.313 18.0233 103.231 17.8456 103.067 17.7035C102.903 17.5614 102.701 17.4904 102.459 17.4904H100.362V19.007H102.459ZM105.436 18.7242C105.16 18.2624 105.022 17.7473 105.022 17.1789C105.022 16.6105 105.16 16.0954 105.436 15.6335C105.712 15.1717 106.09 14.8097 106.571 14.5473C107.051 14.285 107.582 14.1538 108.163 14.1538C108.807 14.1538 109.394 14.3191 109.923 14.6498C110.453 14.9804 110.853 15.4327 111.123 16.0066L110.001 16.3919C109.834 16.0257 109.587 15.7387 109.259 15.5311C108.931 15.3234 108.563 15.2195 108.154 15.2195C107.591 15.2195 107.114 15.4054 106.726 15.777C106.338 16.1487 106.144 16.6159 106.144 17.1789C106.144 17.7418 106.338 18.2091 106.726 18.5807C107.114 18.9524 107.591 19.1382 108.154 19.1382C108.574 19.1382 108.951 19.0275 109.285 18.8062C109.618 18.5848 109.869 18.2801 110.036 17.8921L111.166 18.2692C110.901 18.8649 110.5 19.3363 109.962 19.6834C109.424 20.0304 108.825 20.2039 108.163 20.2039C107.582 20.2039 107.051 20.0728 106.571 19.8104C106.09 19.5481 105.712 19.186 105.436 18.7242ZM111.908 20.0564V14.3178H113.03V16.6624H113.298L115.464 14.3178H116.913L114.255 17.1953L116.913 20.0564H115.464L113.298 17.7527H113.03V20.0564H111.908ZM118.544 17.1625C118.544 17.7418 118.737 18.2159 119.122 18.5848C119.508 18.9537 119.98 19.1382 120.538 19.1382C121.096 19.1382 121.567 18.9537 121.953 18.5848C122.338 18.2159 122.531 17.7418 122.531 17.1625C122.531 16.5941 122.338 16.1282 121.953 15.7647C121.567 15.4013 121.096 15.2195 120.538 15.2195C119.98 15.2195 119.508 15.4013 119.122 15.7647C118.737 16.1282 118.544 16.5941 118.544 17.1625ZM117.422 17.1625C117.422 16.5831 117.563 16.0626 117.845 15.6008C118.127 15.1389 118.504 14.7823 118.976 14.5309C119.447 14.2795 119.968 14.1538 120.538 14.1538C121.107 14.1538 121.628 14.2795 122.1 14.5309C122.571 14.7823 122.948 15.1389 123.23 15.6008C123.512 16.0626 123.653 16.5831 123.653 17.1625C123.653 17.5997 123.571 18.0082 123.407 18.3881C123.243 18.7679 123.02 19.0904 122.738 19.3554C122.456 19.6205 122.125 19.8282 121.746 19.9785C121.366 20.1288 120.963 20.2039 120.538 20.2039C120.112 20.2039 119.709 20.1288 119.33 19.9785C118.95 19.8282 118.619 19.6205 118.337 19.3554C118.055 19.0904 117.832 18.7679 117.668 18.3881C117.504 18.0082 117.422 17.5997 117.422 17.1625ZM124.395 20.0564H125.517V15.3097H128.71V14.3178H124.395V20.0564ZM130.259 17.1625C130.259 17.7418 130.451 18.2159 130.837 18.5848C131.222 18.9537 131.694 19.1382 132.252 19.1382C132.81 19.1382 133.282 18.9537 133.667 18.5848C134.053 18.2159 134.246 17.7418 134.246 17.1625C134.246 16.5941 134.053 16.1282 133.667 15.7647C133.282 15.4013 132.81 15.2195 132.252 15.2195C131.694 15.2195 131.222 15.4013 130.837 15.7647C130.451 16.1282 130.259 16.5941 130.259 17.1625ZM129.137 17.1625C129.137 16.5831 129.278 16.0626 129.56 15.6008C129.842 15.1389 130.218 14.7823 130.69 14.5309C131.162 14.2795 131.683 14.1538 132.252 14.1538C132.822 14.1538 133.342 14.2795 133.814 14.5309C134.286 14.7823 134.663 15.1389 134.945 15.6008C135.226 16.0626 135.367 16.5831 135.367 17.1625C135.367 17.5997 135.285 18.0082 135.121 18.3881C134.957 18.7679 134.735 19.0904 134.453 19.3554C134.171 19.6205 133.84 19.8282 133.46 19.9785C133.081 20.1288 132.678 20.2039 132.252 20.2039C131.826 20.2039 131.424 20.1288 131.044 19.9785C130.664 19.8282 130.334 19.6205 130.052 19.3554C129.77 19.0904 129.547 18.7679 129.383 18.3881C129.219 18.0082 129.137 17.5997 129.137 17.1625ZM138.323 20.0564V14.3178H139.445V16.6624H139.712L141.878 14.3178H143.328L140.67 17.1953L143.328 20.0564H141.878L139.712 17.7527H139.445V20.0564H138.323ZM146.538 15.3671H145.132V17.2691H146.538C146.86 17.2691 147.131 17.1761 147.349 16.9903C147.568 16.8045 147.677 16.575 147.677 16.3017C147.677 16.0339 147.569 15.8112 147.354 15.6335C147.138 15.4559 146.866 15.3671 146.538 15.3671ZM146.538 18.3184H145.132V20.0564H144.01V14.3178H146.625C147.246 14.3178 147.764 14.5063 148.178 14.8834C148.592 15.2605 148.799 15.7333 148.799 16.3017C148.799 16.8646 148.579 17.3415 148.139 17.7322C147.699 18.123 147.165 18.3184 146.538 18.3184ZM150.525 17.7363H153.908V18.7365H150.525V17.7363ZM150.352 20.0564H149.067L151.466 14.3178H152.933L155.349 20.0564H154.063L152.216 15.4163L150.352 20.0564ZM157.912 15.3671C157.613 15.3671 157.365 15.4436 157.17 15.5966C156.974 15.7497 156.876 15.941 156.876 16.1705C156.876 16.4055 156.976 16.6023 157.174 16.7608C157.373 16.9193 157.618 16.9985 157.912 16.9985H159.37V15.3671H157.912ZM157.273 17.9249C156.813 17.8593 156.436 17.6667 156.143 17.3469C155.849 17.0272 155.703 16.6433 155.703 16.1951C155.703 15.6322 155.901 15.1786 156.298 14.8342C156.695 14.4899 157.204 14.3178 157.826 14.3178H160.492V20.0564H159.37V18.0315H158.499L156.997 20.0564H155.703L157.273 17.9249Z" fill="black"/>
<path d="M43.5365 27.0671C43.4445 26.9824 43.3984 26.8772 43.3984 26.7515C43.3984 26.6258 43.4445 26.5206 43.5365 26.4359C43.6286 26.3511 43.7393 26.3088 43.8687 26.3088C43.9982 26.3088 44.1075 26.3511 44.1967 26.4359C44.2858 26.5206 44.3304 26.6258 44.3304 26.7515C44.3304 26.8772 44.2858 26.9824 44.1967 27.0671C44.1075 27.1518 43.9982 27.1942 43.8687 27.1942C43.7393 27.1942 43.6286 27.1518 43.5365 27.0671ZM43.5193 31.9654V27.8664H44.2096V31.9654H43.5193ZM45.202 31.9654V27.8664H45.8924V31.9654H45.202ZM48.2051 31.9654V29.5388C48.2051 29.189 48.1029 28.913 47.8987 28.7108C47.6945 28.5086 47.4284 28.4075 47.1005 28.4075C46.7668 28.4075 46.482 28.5181 46.2462 28.7395C46.0103 28.9608 45.8924 29.2273 45.8924 29.5388H45.5127C45.5127 29.0578 45.6852 28.6438 46.0304 28.2968C46.3756 27.9497 46.7956 27.7762 47.2903 27.7762C47.7448 27.7762 48.1259 27.9265 48.4337 28.2271C48.7415 28.5277 48.8954 28.9185 48.8954 29.3994V31.9654H48.2051ZM52.9513 27.8664H53.6934L52.002 31.9654H51.1046L49.4218 27.8664H50.1639L51.5533 31.3095L52.9513 27.8664ZM57.9046 29.6044C57.8701 29.2218 57.7061 28.913 57.4127 28.678C57.1193 28.443 56.7655 28.3255 56.3513 28.3255C55.9543 28.3255 55.6135 28.4416 55.3287 28.6739C55.0439 28.9062 54.8756 29.2163 54.8239 29.6044H57.9046ZM54.8239 30.2028C54.8756 30.5909 55.0482 30.9024 55.3416 31.1374C55.635 31.3724 55.9831 31.4899 56.3858 31.4899C56.6964 31.4899 56.9783 31.4202 57.2315 31.2809C57.4846 31.1415 57.6745 30.9488 57.801 30.7029L58.4396 30.9406C58.2498 31.3014 57.9722 31.5869 57.6069 31.7973C57.2415 32.0077 56.8374 32.113 56.3944 32.113C55.7501 32.113 55.2079 31.9039 54.7678 31.4858C54.3277 31.0677 54.1076 30.5417 54.1076 29.9077C54.1076 29.2737 54.3234 28.7477 54.7548 28.3296C55.1863 27.9115 55.7156 27.7024 56.3427 27.7024C56.9755 27.7024 57.5105 27.906 57.9477 28.3132C58.385 28.7204 58.6036 29.2327 58.6036 29.8503C58.6036 29.9487 58.5892 30.0662 58.5604 30.2028H54.8239ZM60.9594 30.1946C59.8894 30.0197 59.3543 29.618 59.3543 28.9895C59.3543 28.6343 59.4981 28.3405 59.7858 28.1082C60.0735 27.876 60.433 27.7598 60.8645 27.7598C61.2614 27.7598 61.6196 27.8637 61.9389 28.0713C62.2581 28.279 62.4868 28.5578 62.6249 28.9076L61.969 29.1289C61.8713 28.8884 61.726 28.6999 61.5333 28.5632C61.3405 28.4266 61.1234 28.3583 60.8817 28.3583C60.6401 28.3583 60.4402 28.4157 60.282 28.5304C60.1238 28.6452 60.0447 28.7873 60.0447 28.9567C60.0447 29.1152 60.1238 29.2437 60.282 29.342C60.4402 29.4404 60.6948 29.5197 61.0457 29.5798C62.1733 29.7656 62.7371 30.1864 62.7371 30.8423C62.7371 31.1866 62.5803 31.4749 62.2668 31.7072C61.9532 31.9394 61.5721 32.0556 61.1234 32.0556C60.7034 32.0556 60.3223 31.9572 59.98 31.7605C59.6377 31.5637 59.3946 31.2986 59.2508 30.9652L59.8807 30.7111C59.99 30.9461 60.1525 31.1319 60.3683 31.2686C60.584 31.4052 60.83 31.4735 61.1061 31.4735C61.3765 31.4735 61.6009 31.4148 61.7792 31.2973C61.9576 31.1798 62.0467 31.0308 62.0467 30.8505C62.0467 30.5335 61.6843 30.3149 60.9594 30.1946ZM65.4899 31.3423H66.0422V31.9654H65.395C64.975 31.9654 64.6442 31.8643 64.4026 31.6621C64.161 31.4599 64.0401 31.1866 64.0401 30.8423V28.473H63.2462V27.8664H64.0401V26.6695L64.7305 26.5383V27.8664H66.0422V28.473H64.7305V30.6947C64.7305 31.1265 64.9836 31.3423 65.4899 31.3423ZM69.1229 27.0671C69.0309 26.9824 68.9848 26.8772 68.9848 26.7515C68.9848 26.6258 69.0309 26.5206 69.1229 26.4359C69.2149 26.3511 69.3257 26.3088 69.4551 26.3088C69.5846 26.3088 69.6939 26.3511 69.783 26.4359C69.8722 26.5206 69.9168 26.6258 69.9168 26.7515C69.9168 26.8772 69.8722 26.9824 69.783 27.0671C69.6939 27.1518 69.5846 27.1942 69.4551 27.1942C69.3257 27.1942 69.2149 27.1518 69.1229 27.0671ZM69.1056 31.9654V27.8664H69.796V31.9654H69.1056ZM70.7884 31.9654V27.8664H71.4787V31.9654H70.7884ZM73.7914 31.9654V29.5388C73.7914 29.189 73.6893 28.913 73.4851 28.7108C73.2809 28.5086 73.0148 28.4075 72.6869 28.4075C72.3532 28.4075 72.0684 28.5181 71.8325 28.7395C71.5967 28.9608 71.4787 29.2273 71.4787 29.5388H71.099C71.099 29.0578 71.2716 28.6438 71.6168 28.2968C71.962 27.9497 72.382 27.7762 72.8767 27.7762C73.3312 27.7762 73.7123 27.9265 74.0201 28.2271C74.3279 28.5277 74.4818 28.9185 74.4818 29.3994V31.9654H73.7914ZM79.7889 29.4158C78.4024 29.148 77.7092 28.5851 77.7092 27.727C77.7035 27.2625 77.8861 26.8785 78.2572 26.5752C78.6282 26.2719 79.1014 26.1202 79.6767 26.1202C80.1715 26.1202 80.6217 26.2487 81.0272 26.5055C81.4328 26.7624 81.7219 27.1067 81.8945 27.5385L81.2645 27.7844C81.1265 27.4674 80.9165 27.2174 80.6346 27.0343C80.3527 26.8512 80.0392 26.7597 79.694 26.7597C79.32 26.7597 79.0122 26.8485 78.7706 27.0261C78.529 27.2037 78.4082 27.4319 78.4082 27.7106C78.4082 27.9675 78.5261 28.1779 78.762 28.3419C78.9979 28.5058 79.3776 28.6398 79.9011 28.7436C80.5799 28.8748 81.0963 29.0865 81.4501 29.3789C81.8039 29.6713 81.9808 30.0279 81.9808 30.4488C81.9808 30.9079 81.7866 31.2904 81.3983 31.5965C81.01 31.9025 80.5195 32.0556 79.927 32.0556C79.415 32.0556 78.949 31.9244 78.529 31.6621C78.109 31.3997 77.8099 31.0472 77.6315 30.6045L78.2788 30.3094C78.4226 30.6537 78.6383 30.9243 78.926 31.121C79.2136 31.3178 79.5415 31.4161 79.9097 31.4161C80.2952 31.4161 80.6173 31.3232 80.8762 31.1374C81.1351 30.9516 81.2645 30.7166 81.2645 30.4324C81.2645 30.181 81.1452 29.9733 80.9064 29.8093C80.6677 29.6454 80.2952 29.5142 79.7889 29.4158ZM84.6214 31.3423H85.1737V31.9654H84.5265C84.1065 31.9654 83.7757 31.8643 83.5341 31.6621C83.2925 31.4599 83.1716 31.1866 83.1716 30.8423V28.473H82.3777V27.8664H83.1716V26.6695L83.862 26.5383V27.8664H85.1737V28.473H83.862V30.6947C83.862 31.1265 84.1151 31.3423 84.6214 31.3423ZM88.5478 30.0717L87.3138 30.211C86.7327 30.2766 86.4422 30.487 86.4422 30.8423C86.4422 31.0281 86.5228 31.177 86.6839 31.2891C86.8449 31.4011 87.0607 31.4571 87.3311 31.4571C87.6992 31.4571 87.9941 31.3533 88.2156 31.1456C88.4371 30.9379 88.5478 30.6646 88.5478 30.3258H88.8498C88.8498 30.8231 88.6888 31.2358 88.3666 31.5637C88.0444 31.8916 87.6417 32.0556 87.1585 32.0556C86.75 32.0556 86.412 31.9449 86.1445 31.7236C85.877 31.5022 85.7432 31.2166 85.7432 30.8669C85.749 30.528 85.877 30.2506 86.1272 30.0348C86.3775 29.8189 86.7241 29.6864 87.1671 29.6372L88.5478 29.4896V29.3256C88.5478 29.0742 88.4443 28.8556 88.2372 28.6698C88.0301 28.484 87.7769 28.3911 87.4778 28.3911C87.2074 28.3911 86.9686 28.4594 86.7615 28.596C86.5544 28.7327 86.4192 28.9103 86.3559 29.1289L85.7174 28.9321C85.8267 28.5878 86.0395 28.3091 86.3559 28.0959C86.6723 27.8828 87.0319 27.7762 87.4346 27.7762C87.9236 27.7762 88.3465 27.9224 88.7032 28.2148C89.0598 28.5072 89.2382 28.8556 89.2382 29.2601V31.9654H88.5478V30.0717ZM93.294 27.8664H94.0362L92.3448 31.9654H91.4473L89.7646 27.8664H90.5067L91.8961 31.3095L93.294 27.8664ZM94.7956 31.9654V27.8664H95.4859V31.9654H94.7956ZM96.8494 28.4566C96.4697 28.4566 96.1461 28.5632 95.8786 28.7764C95.611 28.9895 95.4773 29.2437 95.4773 29.5388H95.1062C95.1062 29.0852 95.2702 28.6821 95.5981 28.3296C95.926 27.9771 96.3201 27.8008 96.7803 27.8008H97.022V28.4566H96.8494ZM98.5537 28.7805C98.2344 29.0729 98.0748 29.4486 98.0748 29.9077C98.0748 30.3668 98.2344 30.7425 98.5537 31.0349C98.873 31.3273 99.2628 31.4735 99.723 31.4735C100.183 31.4735 100.573 31.3273 100.892 31.0349C101.212 30.7425 101.371 30.3668 101.371 29.9077C101.371 29.4486 101.212 29.0729 100.892 28.7805C100.573 28.4881 100.183 28.3419 99.723 28.3419C99.2628 28.3419 98.873 28.4881 98.5537 28.7805ZM98.0618 31.4899C97.6102 31.0745 97.3844 30.5471 97.3844 29.9077C97.3844 29.2683 97.6102 28.7408 98.0618 28.3255C98.5134 27.9101 99.0671 27.7024 99.723 27.7024C100.379 27.7024 100.933 27.9101 101.384 28.3255C101.836 28.7408 102.062 29.2683 102.062 29.9077C102.062 30.5471 101.836 31.0745 101.384 31.4899C100.933 31.9053 100.379 32.113 99.723 32.113C99.0671 32.113 98.5134 31.9053 98.0618 31.4899ZM102.89 27.8664H103.58V33.605H102.89V27.8664ZM104.059 28.7928C103.74 29.0879 103.58 29.4636 103.58 29.92C103.58 30.3763 103.74 30.7521 104.059 31.0472C104.379 31.3423 104.768 31.4899 105.229 31.4899C105.689 31.4899 106.079 31.3423 106.398 31.0472C106.717 30.7521 106.877 30.3763 106.877 29.92C106.877 29.4636 106.717 29.0879 106.398 28.7928C106.079 28.4976 105.689 28.3501 105.229 28.3501C104.768 28.3501 104.379 28.4976 104.059 28.7928ZM103.865 31.5022C103.457 31.0841 103.252 30.5567 103.252 29.92C103.252 29.2833 103.457 28.7572 103.865 28.3419C104.274 27.9265 104.777 27.7188 105.375 27.7188C105.991 27.7188 106.51 27.9265 106.933 28.3419C107.356 28.7572 107.567 29.2833 107.567 29.92C107.567 30.5567 107.356 31.0841 106.933 31.5022C106.51 31.9203 105.991 32.1294 105.375 32.1294C104.777 32.1294 104.274 31.9203 103.865 31.5022ZM109.392 28.7805C109.073 29.0729 108.913 29.4486 108.913 29.9077C108.913 30.3668 109.073 30.7425 109.392 31.0349C109.712 31.3273 110.101 31.4735 110.562 31.4735C111.022 31.4735 111.412 31.3273 111.731 31.0349C112.05 30.7425 112.21 30.3668 112.21 29.9077C112.21 29.4486 112.05 29.0729 111.731 28.7805C111.412 28.4881 111.022 28.3419 110.562 28.3419C110.101 28.3419 109.712 28.4881 109.392 28.7805ZM108.9 31.4899C108.449 31.0745 108.223 30.5471 108.223 29.9077C108.223 29.2683 108.449 28.7408 108.9 28.3255C109.352 27.9101 109.906 27.7024 110.562 27.7024C111.217 27.7024 111.771 27.9101 112.223 28.3255C112.674 28.7408 112.9 29.2683 112.9 29.9077C112.9 30.5471 112.674 31.0745 112.223 31.4899C111.771 31.9053 111.217 32.113 110.562 32.113C109.906 32.113 109.352 31.9053 108.9 31.4899ZM113.729 31.9654V25.8169H114.419V31.9654H113.729ZM117.741 31.9654V27.8664H118.432V31.9654H117.741ZM119.795 28.4566C119.415 28.4566 119.092 28.5632 118.824 28.7764C118.557 28.9895 118.423 29.2437 118.423 29.5388H118.052C118.052 29.0852 118.216 28.6821 118.544 28.3296C118.872 27.9771 119.266 27.8008 119.726 27.8008H119.968V28.4566H119.795ZM124.127 29.6044C124.093 29.2218 123.929 28.913 123.635 28.678C123.342 28.443 122.988 28.3255 122.574 28.3255C122.177 28.3255 121.836 28.4416 121.551 28.6739C121.266 28.9062 121.098 29.2163 121.046 29.6044H124.127ZM121.046 30.2028C121.098 30.5909 121.271 30.9024 121.564 31.1374C121.858 31.3724 122.206 31.4899 122.608 31.4899C122.919 31.4899 123.201 31.4202 123.454 31.2809C123.707 31.1415 123.897 30.9488 124.024 30.7029L124.662 30.9406C124.472 31.3014 124.195 31.5869 123.829 31.7973C123.464 32.0077 123.06 32.113 122.617 32.113C121.973 32.113 121.43 31.9039 120.99 31.4858C120.55 31.0677 120.33 30.5417 120.33 29.9077C120.33 29.2737 120.546 28.7477 120.977 28.3296C121.409 27.9115 121.938 27.7024 122.565 27.7024C123.198 27.7024 123.733 27.906 124.17 28.3132C124.607 28.7204 124.826 29.2327 124.826 29.8503C124.826 29.9487 124.812 30.0662 124.783 30.2028H121.046ZM128.904 28.2968C129.28 28.6821 129.469 29.1671 129.469 29.7519C129.469 30.3367 129.28 30.8218 128.904 31.2071C128.527 31.5924 128.062 31.785 127.51 31.785C126.94 31.785 126.459 31.5924 126.064 31.2071C125.67 30.8218 125.473 30.3381 125.473 29.756C125.473 29.174 125.67 28.6889 126.064 28.3009C126.459 27.9129 126.94 27.7188 127.51 27.7188C128.062 27.7188 128.527 27.9115 128.904 28.2968ZM128.688 30.7562C128.973 30.4966 129.115 30.1646 129.115 29.7601C129.115 29.3557 128.973 29.0237 128.688 28.7641C128.403 28.5045 128.054 28.3747 127.639 28.3747C127.225 28.3747 126.876 28.5045 126.591 28.7641C126.306 29.0237 126.164 29.3557 126.164 29.7601C126.164 30.1646 126.306 30.4966 126.591 30.7562C126.876 31.0158 127.225 31.1456 127.639 31.1456C128.054 31.1456 128.403 31.0158 128.688 30.7562ZM129.115 32.0474V27.8664H129.805V32.0474C129.805 32.5775 129.603 33.0093 129.197 33.3427C128.791 33.676 128.284 33.8427 127.674 33.8427C127.208 33.8427 126.786 33.728 126.41 33.4984C126.033 33.2689 125.752 32.9546 125.568 32.5557L126.172 32.2359C126.305 32.5256 126.503 32.7551 126.768 32.9246C127.032 33.094 127.329 33.1787 127.657 33.1787C128.071 33.1787 128.417 33.0721 128.696 32.859C128.975 32.6458 129.115 32.3753 129.115 32.0474ZM130.806 27.0671C130.714 26.9824 130.668 26.8772 130.668 26.7515C130.668 26.6258 130.714 26.5206 130.806 26.4359C130.898 26.3511 131.009 26.3088 131.139 26.3088C131.268 26.3088 131.377 26.3511 131.466 26.4359C131.556 26.5206 131.6 26.6258 131.6 26.7515C131.6 26.8772 131.556 26.9824 131.466 27.0671C131.377 27.1518 131.268 27.1942 131.139 27.1942C131.009 27.1942 130.898 27.1518 130.806 27.0671ZM130.789 31.9654V27.8664H131.479V31.9654H130.789ZM133.468 28.7805C133.149 29.0729 132.99 29.4486 132.99 29.9077C132.99 30.3668 133.149 30.7425 133.468 31.0349C133.788 31.3273 134.178 31.4735 134.638 31.4735C135.098 31.4735 135.488 31.3273 135.807 31.0349C136.126 30.7425 136.286 30.3668 136.286 29.9077C136.286 29.4486 136.126 29.0729 135.807 28.7805C135.488 28.4881 135.098 28.3419 134.638 28.3419C134.178 28.3419 133.788 28.4881 133.468 28.7805ZM132.977 31.4899C132.525 31.0745 132.299 30.5471 132.299 29.9077C132.299 29.2683 132.525 28.7408 132.977 28.3255C133.428 27.9101 133.982 27.7024 134.638 27.7024C135.294 27.7024 135.847 27.9101 136.299 28.3255C136.751 28.7408 136.976 29.2683 136.976 29.9077C136.976 30.5471 136.751 31.0745 136.299 31.4899C135.847 31.9053 135.294 32.113 134.638 32.113C133.982 32.113 133.428 31.9053 132.977 31.4899ZM137.805 31.9654V27.8664H138.495V31.9654H137.805ZM140.808 31.9654V29.5388C140.808 29.189 140.706 28.913 140.501 28.7108C140.297 28.5086 140.031 28.4075 139.703 28.4075C139.37 28.4075 139.085 28.5181 138.849 28.7395C138.613 28.9608 138.495 29.2273 138.495 29.5388H138.115C138.115 29.0578 138.288 28.6438 138.633 28.2968C138.978 27.9497 139.398 27.7762 139.893 27.7762C140.348 27.7762 140.729 27.9265 141.037 28.2271C141.344 28.5277 141.498 28.9185 141.498 29.3994V31.9654H140.808Z" fill="#FFD900"/>
<path fill-rule="evenodd" clip-rule="evenodd" d="M40.1182 31.8537L26.1562 18.5899L23.1111 21.4827L22.779 21.7579C22.6706 21.8489 22.5697 21.9456 22.4587 22.0324L32.797 31.8537H40.1182ZM19.4966 3.20044H30.2208L20.9696 11.989L18.8643 11.9899C15.6443 11.9899 13.0339 14.4698 13.0339 17.5288C13.0339 20.5833 15.6366 23.0602 18.85 23.0676L20.9712 23.0701L30.2208 31.8572H19.4966C11.2012 31.8572 4.41406 25.4094 4.41406 17.5288C4.41406 9.64821 11.2012 3.20044 19.4966 3.20044ZM19.0116 13.4227C19.949 13.4227 20.8543 13.6671 21.5625 14.1487C21.6733 14.2241 21.7662 14.3165 21.8681 14.402L22.1137 14.6056L25.1532 17.4931L22.1469 20.349L22.0214 20.4519C21.9733 20.4966 21.9242 20.5403 21.874 20.5829C21.7826 20.6606 21.6878 20.7347 21.5901 20.8051L21.5894 20.8056L21.5893 20.8056C20.87 21.3231 19.9853 21.635 19.0116 21.635C16.6245 21.635 14.6893 19.7966 14.6893 17.5288C14.6893 15.2611 16.6245 13.4227 19.0116 13.4227ZM40.1182 3.20637L26.1562 16.4703L23.1111 13.5774L22.779 13.3022C22.6706 13.2112 22.5697 13.1145 22.4587 13.0277L32.797 3.20637H40.1182Z" fill="#FFD900"/>
</svg>
