<svg width="0" height="0" class="hidden">
  <symbol xmlns="http://www.w3.org/2000/svg" viewBox="0 0 27 27" id="user">
    <path d="M13.4535 4.48446C10.9768 4.48446 8.96897 6.49227 8.96897 8.96902C8.96897 11.4458 10.9768 13.4536 13.4535 13.4536C15.9303 13.4536 17.9381 11.4458 17.9381 8.96902C17.9381 6.49227 15.9303 4.48446 13.4535 4.48446ZM6.7267 8.96902C6.7267 5.25389 9.7384 2.24219 13.4535 2.24219C17.1687 2.24219 20.1804 5.25389 20.1804 8.96902C20.1804 12.6841 17.1687 15.6958 13.4535 15.6958C9.7384 15.6958 6.7267 12.6841 6.7267 8.96902ZM8.96897 20.1804C7.11141 20.1804 5.60556 21.6863 5.60556 23.5438C5.60556 24.163 5.10361 24.665 4.48442 24.665C3.86523 24.665 3.36328 24.163 3.36328 23.5438C3.36328 20.4479 5.87304 17.9381 8.96897 17.9381H17.9381C21.034 17.9381 23.5438 20.4479 23.5438 23.5438C23.5438 24.163 23.0418 24.665 22.4226 24.665C21.8034 24.665 21.3015 24.163 21.3015 23.5438C21.3015 21.6863 19.7956 20.1804 17.9381 20.1804H8.96897Z"></path>
  </symbol>
   <symbol xmlns="http://www.w3.org/2000/svg" viewBox="0 0 27 27" id="map">
    <path d="M9.73367 3.42081C9.9638 3.3441 10.2126 3.3441 10.4427 3.42081L16.815 5.54491L21.7117 3.91271C23.1636 3.42872 24.663 4.50943 24.663 6.03992V19.3723C24.663 20.3374 24.0454 21.1943 23.1298 21.4995L17.1696 23.4862C16.9394 23.563 16.6906 23.563 16.4605 23.4862L10.0882 21.3621L5.19158 22.9944C3.73964 23.4783 2.24023 22.3976 2.24023 20.8671V7.53477C2.24023 6.56962 2.85783 5.71276 3.77344 5.40756L9.73367 3.42081ZM11.2093 19.3723L15.6939 20.8671V7.53477L11.2093 6.03992V19.3723ZM8.96707 6.03992L4.48251 7.53477V20.8671L8.96707 19.3723V6.03992ZM17.9362 7.53477V20.8671L22.4207 19.3723V6.03992L17.9362 7.53477Z"></path>
  </symbol>
  <symbol xmlns="http://www.w3.org/2000/svg" viewBox="0 0 27 27" id="search">
    <path d="M11.2069 4.48446C7.49177 4.48446 4.48007 7.49617 4.48007 11.2113C4.48007 14.9264 7.49177 17.9381 11.2069 17.9381C14.922 17.9381 17.9337 14.9264 17.9337 11.2113C17.9337 7.49617 14.922 4.48446 11.2069 4.48446ZM2.23779 11.2113C2.23779 6.25779 6.2534 2.24219 11.2069 2.24219C16.1604 2.24219 20.176 6.25779 20.176 11.2113C20.176 13.284 19.473 15.1924 18.2923 16.7112L24.3322 22.7511C24.77 23.1889 24.77 23.8988 24.3322 24.3366C23.8944 24.7744 23.1845 24.7744 22.7467 24.3366L16.7068 18.2967C15.188 19.4774 13.2796 20.1804 11.2069 20.1804C6.2534 20.1804 2.23779 16.1648 2.23779 11.2113Z"></path>
  </symbol>
    <symbol xmlns="http://www.w3.org/2000/svg" viewBox="0 0 8 11" id="ruble">
    <path d="M2.95439 5.68218H4.00575C5.47245 5.68218 6.05654 5.1693 6.05654 3.92759C6.05654 2.55091 5.49841 2.09202 3.79807 2.09202H2.95439V5.68218ZM1.72132 10.8785V8.78645H0.890625V7.59873H1.72132V6.8699H0.890625V5.68218H1.72132V0.904297H4.01873C6.18633 0.904297 7.30259 1.93006 7.30259 3.91409C7.30259 5.96561 6.32911 6.8699 4.0966 6.8699H2.95439V7.59873H5.51139V8.78645H2.95439V10.8785H1.72132Z"></path>
  </symbol>
    <symbol xmlns="http://www.w3.org/2000/svg" viewBox="0 0 38 14" id="impaired">
    <path d="M36.4239 5.555H34.5723C34.5328 5.555 34.4982 5.57043 34.4605 5.57722C33.9001 2.40717 31.1849 0 27.8273 0C24.5288 0 21.7772 2.32137 21.1353 5.40934C20.3089 4.69644 19.4509 4.32735 18.572 4.32056C18.564 4.32056 18.556 4.32056 18.5479 4.32056C17.656 4.32056 16.7765 4.69336 15.9204 5.4223C15.3007 2.32755 12.614 0 9.31059 0C5.74428 0 2.81926 2.71578 2.50756 6.1784C2.49707 6.17778 2.48781 6.17222 2.4767 6.17222H0.625035C0.283711 6.17222 0.0078125 6.44874 0.0078125 6.78945C0.0078125 7.13015 0.283711 7.40667 0.625035 7.40667H2.4767C2.48781 7.40667 2.49707 7.40111 2.50756 7.4005C2.81926 10.8631 5.74428 13.5789 9.31059 13.5789C13.001 13.5789 15.9142 10.6712 16.0432 7.03757C16.9018 6.05742 17.7437 5.555 18.5479 5.555C18.5529 5.555 18.5584 5.555 18.5627 5.555C19.3583 5.56117 20.1799 6.06174 21.0057 7.03325C21.1359 10.6693 24.1363 13.5789 27.8273 13.5789C31.6022 13.5789 34.5723 10.5391 34.5723 6.78945H36.4239C36.7652 6.78945 37.0411 6.51293 37.0411 6.17222C37.0411 5.83152 36.7652 5.555 36.4239 5.555Z"></path>
  </symbol>
</svg>