<svg width="25" height="24" viewBox="0 0 25 24" fill="none" xmlns="http://www.w3.org/2000/svg">
<g id="icon/content_copy">
<mask id="mask0_21_7618" style="mask-type:alpha" maskUnits="userSpaceOnUse" x="0" y="0" width="25" height="24">
<rect id="Bounding box" x="0.25" width="24" height="24" fill="#D9D9D9"/>
</mask>
<g mask="url(#mask0_21_7618)">
<path id="content_copy" d="M5.25 22C4.7 22 4.22917 21.8042 3.8375 21.4125C3.44583 21.0208 3.25 20.55 3.25 20V6H5.25V20H16.25V22H5.25ZM9.25 18C8.7 18 8.22917 17.8042 7.8375 17.4125C7.44583 17.0208 7.25 16.55 7.25 16V4C7.25 3.45 7.44583 2.97917 7.8375 2.5875C8.22917 2.19583 8.7 2 9.25 2H18.25C18.8 2 19.2708 2.19583 19.6625 2.5875C20.0542 2.97917 20.25 3.45 20.25 4V16C20.25 16.55 20.0542 17.0208 19.6625 17.4125C19.2708 17.8042 18.8 18 18.25 18H9.25ZM9.25 16H18.25V4H9.25V16Z" fill="white"/>
</g>
</g>
</svg>
