<svg width="16" height="17" viewBox="0 0 16 17" fill="none" xmlns="http://www.w3.org/2000/svg">
<g id="icon/content_copy">
<mask id="mask0_605_4474" style="mask-type:alpha" maskUnits="userSpaceOnUse" x="0" y="0" width="16" height="17">
<rect id="Bounding box" y="0.5" width="16" height="16" fill="#D9D9D9"/>
</mask>
<g mask="url(#mask0_605_4474)">
<path id="content_copy" d="M3.33333 15.1667C2.96667 15.1667 2.65278 15.0361 2.39167 14.775C2.13056 14.5139 2 14.2 2 13.8333V4.49999H3.33333V13.8333H10.6667V15.1667H3.33333ZM6 12.5C5.63333 12.5 5.31944 12.3694 5.05833 12.1083C4.79722 11.8472 4.66667 11.5333 4.66667 11.1667V3.16666C4.66667 2.79999 4.79722 2.48611 5.05833 2.22499C5.31944 1.96388 5.63333 1.83333 6 1.83333H12C12.3667 1.83333 12.6806 1.96388 12.9417 2.22499C13.2028 2.48611 13.3333 2.79999 13.3333 3.16666V11.1667C13.3333 11.5333 13.2028 11.8472 12.9417 12.1083C12.6806 12.3694 12.3667 12.5 12 12.5H6ZM6 11.1667H12V3.16666H6V11.1667Z" fill="#969696"/>
</g>
</g>
</svg>
