<svg width="42" height="42" viewBox="0 0 42 42" fill="none" xmlns="http://www.w3.org/2000/svg">
<g id="Frame 33">
<g id="Group">
<path id="Vector" d="M15.0606 4.66979L2.38825 17.0656C-0.796083 20.1807 -0.796083 25.2302 2.38825 28.3453L6.85683 32.7167L7.78727 33.627L11.966 29.5391L7.43758 25.1091C6.08009 23.7812 6.08009 21.6298 7.43758 20.3018L18.3677 9.60934C19.7252 8.28137 21.9244 8.28137 23.2819 9.60934L37.8213 23.8326L42 19.7448L26.589 4.66878C23.4067 1.5547 18.2439 1.5547 15.0606 4.66979Z" fill="#FF4A18"/>
<path id="Vector_2" d="M17.7993 23.8336L23.6316 29.5391L17.7993 35.2445L21.978 39.3334L31.9901 29.5391L21.978 19.7457L17.7993 23.8336Z" fill="#FF4A18"/>
</g>
</g>
</svg>
