<svg width="32" height="32" viewBox="0 0 32 32" fill="none" xmlns="http://www.w3.org/2000/svg">
<path d="M14.4583 26.7825V20.25L15.6961 20.4528L16.934 20.25V26.7825H14.4583Z" fill="#FFD12F"/>
<path d="M7.20235 4.46946C7.20235 4.46946 2.92707 2.33182 2.94267 6.51869C2.94267 6.51869 2.90106 10.2166 5.31436 13.2489C5.31436 13.2489 7.19715 15.9222 10.4582 16.9416C10.4582 16.9416 9.55323 15.5477 9.10074 14.4867C9.10074 14.4867 6.13613 12.8016 5.06991 9.32726C5.06991 9.32726 3.18712 4.55788 7.19715 6.25343V4.46946H7.20235Z" fill="#FFD12F"/>
<path d="M15.6959 20.4527C17.8439 20.4527 19.6279 18.5127 19.6279 18.5127C21.8383 16.2815 23.045 12.4951 23.045 12.4951C24.6209 8.37065 24.0436 1.99414 24.0436 1.99414H15.6959H7.34293C7.34293 1.99414 6.77082 8.37065 8.34674 12.4951C8.34674 12.4951 9.55339 16.2867 11.7638 18.5127C11.7638 18.5127 13.5478 20.4527 15.6959 20.4527Z" fill="#FFD12F"/>
<path d="M24.2151 4.46946C24.2151 4.46946 28.4904 2.33182 28.4748 6.51869C28.4748 6.51869 28.5164 10.2166 26.1031 13.2489C26.1031 13.2489 24.2203 15.9222 20.9592 16.9416C20.9592 16.9416 21.8642 15.5477 22.3167 14.4867C22.3167 14.4867 25.2813 12.8016 26.3475 9.32726C26.3475 9.32726 28.2303 4.55788 24.2203 6.25343V4.46946H24.2151Z" fill="#FFD12F"/>
<path d="M23.1279 27.583H8.25806V29.7467H23.1279V27.583Z" fill="#FFD12F"/>
<path d="M18.2438 26.7822H13.1467V27.5832H18.2438V26.7822Z" fill="#FFD12F"/>
</svg>
