<svg width="27" height="27" viewBox="0 0 27 27" fill="none" xmlns="http://www.w3.org/2000/svg">
<path fill-rule="evenodd" clip-rule="evenodd" d="M6.44378 12H9.03801C9.15694 9.93815 9.54954 8.03876 10.1551 6.50971C8.2232 7.69514 6.83334 9.67798 6.44378 12ZM14.3332 2.66667C8.44213 2.66667 3.6665 7.4423 3.6665 13.3333C3.6665 19.2244 8.44213 24 14.3332 24C20.2242 24 24.9998 19.2244 24.9998 13.3333C24.9998 7.4423 20.2242 2.66667 14.3332 2.66667ZM14.3332 5.33334C14.2318 5.33334 14.0237 5.37564 13.7128 5.68246C13.3961 5.99494 13.0499 6.51321 12.7303 7.2589C12.212 8.46814 11.8331 10.1141 11.7097 12H16.9566C16.8333 10.1141 16.4544 8.46814 15.9361 7.2589C15.6165 6.51321 15.2702 5.99494 14.9536 5.68246C14.6426 5.37564 14.4345 5.33334 14.3332 5.33334ZM19.6284 12C19.5094 9.93815 19.1168 8.03876 18.5113 6.50971C20.4432 7.69514 21.833 9.67798 22.2225 12H19.6284ZM16.9566 14.6667H11.7097C11.8331 16.5525 12.212 18.1985 12.7303 19.4077C13.0499 20.1535 13.3961 20.6717 13.7128 20.9843C14.0237 21.2911 14.2318 21.3333 14.3332 21.3333C14.4345 21.3333 14.6426 21.2911 14.9536 20.9843C15.2702 20.6717 15.6165 20.1535 15.9361 19.4077C16.4544 18.1985 16.8333 16.5525 16.9566 14.6667ZM18.5113 20.1569C19.1168 18.6279 19.5094 16.7285 19.6284 14.6667H22.2225C21.833 16.9887 20.4432 18.9716 18.5113 20.1569ZM10.1551 20.1569C9.54954 18.6279 9.15694 16.7285 9.03801 14.6667H6.44378C6.83334 16.9887 8.2232 18.9716 10.1551 20.1569Z" fill="#FFD12F"/>
</svg>
