<svg width="38" height="14" viewBox="0 0 38 14" fill="none" xmlns="http://www.w3.org/2000/svg">
<path d="M36.4239 5.555H34.5723C34.5328 5.555 34.4982 5.57043 34.4605 5.57722C33.9001 2.40717 31.1849 0 27.8273 0C24.5288 0 21.7772 2.32137 21.1353 5.40934C20.3089 4.69644 19.4509 4.32735 18.572 4.32056C18.564 4.32056 18.556 4.32056 18.5479 4.32056C17.656 4.32056 16.7765 4.69336 15.9204 5.4223C15.3007 2.32755 12.614 0 9.31059 0C5.74428 0 2.81926 2.71578 2.50756 6.1784C2.49707 6.17778 2.48781 6.17222 2.4767 6.17222H0.625035C0.283711 6.17222 0.0078125 6.44874 0.0078125 6.78945C0.0078125 7.13015 0.283711 7.40667 0.625035 7.40667H2.4767C2.48781 7.40667 2.49707 7.40111 2.50756 7.4005C2.81926 10.8631 5.74428 13.5789 9.31059 13.5789C13.001 13.5789 15.9142 10.6712 16.0432 7.03757C16.9018 6.05742 17.7437 5.555 18.5479 5.555C18.5529 5.555 18.5584 5.555 18.5627 5.555C19.3583 5.56117 20.1799 6.06174 21.0057 7.03325C21.1359 10.6693 24.1363 13.5789 27.8273 13.5789C31.6022 13.5789 34.5723 10.5391 34.5723 6.78945H36.4239C36.7652 6.78945 37.0411 6.51293 37.0411 6.17222C37.0411 5.83152 36.7652 5.555 36.4239 5.555Z" fill="black"/>
</svg>
