<svg width="27" height="27" viewBox="0 0 27 27" fill="none" xmlns="http://www.w3.org/2000/svg">
<path d="M9.73367 3.42081C9.9638 3.3441 10.2126 3.3441 10.4427 3.42081L16.815 5.54491L21.7117 3.91271C23.1636 3.42872 24.663 4.50943 24.663 6.03992V19.3723C24.663 20.3374 24.0454 21.1943 23.1298 21.4995L17.1696 23.4862C16.9394 23.563 16.6906 23.563 16.4605 23.4862L10.0882 21.3621L5.19158 22.9944C3.73964 23.4783 2.24023 22.3976 2.24023 20.8671V7.53477C2.24023 6.56962 2.85783 5.71276 3.77344 5.40756L9.73367 3.42081ZM11.2093 19.3723L15.6939 20.8671V7.53477L11.2093 6.03992V19.3723ZM8.96707 6.03992L4.48251 7.53477V20.8671L8.96707 19.3723V6.03992ZM17.9362 7.53477V20.8671L22.4207 19.3723V6.03992L17.9362 7.53477Z" fill="black"/>
</svg>
