<svg width="22" height="22" viewBox="0 0 22 22" fill="none" xmlns="http://www.w3.org/2000/svg">
<path d="M19.5495 0H6.51651C5.32182 0 4.34434 0.977476 4.34434 2.17217V15.2052C4.34434 16.3999 5.32182 17.3774 6.51651 17.3774H19.5495C20.7442 17.3774 21.7217 16.3999 21.7217 15.2052V2.17217C21.7217 0.977476 20.7442 0 19.5495 0ZM10.3178 8.14564C10.3178 9.04709 9.59013 9.77477 8.68868 9.77477H7.60259V11.9469H5.97347V5.43042H8.68868C9.59013 5.43042 10.3178 6.1581 10.3178 7.05955V8.14564ZM15.7482 10.3178C15.7482 11.2193 15.0206 11.9469 14.1191 11.9469H11.4039V5.43042H14.1191C15.0206 5.43042 15.7482 6.1581 15.7482 7.05955V10.3178ZM20.0926 7.05955H18.4634V8.14564H20.0926V9.77477H18.4634V11.9469H16.8343V5.43042H20.0926V7.05955ZM7.60259 8.14564H8.68868V7.05955H7.60259V8.14564ZM2.17217 4.34434H0V19.5495C0 20.7442 0.977476 21.7217 2.17217 21.7217H17.3774V19.5495H2.17217V4.34434ZM13.033 10.3178H14.1191V7.05955H13.033V10.3178Z" fill="white"/>
</svg>
