<svg width="34" height="33" viewBox="0 0 34 33" fill="none" xmlns="http://www.w3.org/2000/svg">
<path d="M30.7035 8.01837L22.606 0.283241C22.4162 0.101715 22.1587 0 21.8904 0H4.01203C3.45304 0 3 0.432793 3 0.966797V32.0332C3 32.5672 3.45304 33 4.01203 33H29.988C30.547 33 31 32.5672 31 32.0332V8.70218C31 8.44563 30.8935 8.19965 30.7035 8.01837ZM22.9024 3.30096L27.5441 7.73488H22.9024V3.30096ZM5.02406 17.3354H24.8264V27.1982H5.02406V17.3354ZM5.02406 31.0664V29.1318H25.8384C26.3974 29.1318 26.8504 28.699 26.8504 28.165V16.3686C26.8504 15.8348 26.3974 15.4018 25.8384 15.4018H5.02406V1.93359H20.8781V8.70168C20.8781 9.23568 21.3314 9.66872 21.8904 9.66872H28.9759V31.0664H5.02406Z" fill="#FFD12F"/>
<path d="M9.64452 19H7.57892C7.22945 19 7 19.2105 7 19.4499V25.5404C7 25.8469 7.38928 26 7.77857 26C8.16758 26 8.55686 25.8469 8.55686 25.5404V23.4719H9.54483C10.9221 23.4719 12 22.8592 12 21.2505V21.2024C12 19.5937 10.9619 19 9.64452 19ZM10.4431 21.3651C10.4431 22.0165 10.1037 22.3227 9.54483 22.3227H8.55686V20.3023H9.54483C10.1037 20.3023 10.4431 20.6087 10.4431 21.2599V21.3651Z" fill="#FFD12F"/>
<path d="M15.495 19H13.6924C13.2748 19 13 19.2105 13 19.4499V25.5501C13 25.7895 13.2748 26 13.6924 26H15.495C16.9004 26 18 25.3871 18 23.7401V21.2599C18 19.6129 16.9004 19 15.495 19ZM16.4114 23.7401C16.4114 24.3913 16.0653 24.6977 15.495 24.6977H14.5886V20.3023H15.495C16.0653 20.3023 16.4114 20.6087 16.4114 21.2599V23.7401Z" fill="#FFD12F"/>
<path d="M22.5929 19H19.5887C19.2942 19 19 19.1531 19 19.4595V25.5402C19 25.8466 19.3375 26 19.6752 26C20.0129 26 20.3504 25.8466 20.3504 25.5402V23.0696H21.6581C21.9436 23.0696 22.0649 22.7632 22.0649 22.5045C22.0649 22.1984 21.9177 21.9205 21.6581 21.9205H20.3504V20.3022H22.5929C22.8526 20.3022 23 19.9958 23 19.6415C23 19.335 22.8787 19 22.5929 19Z" fill="#FFD12F"/>
</svg>
