<svg width="27" height="27" viewBox="0 0 27 27" fill="none" xmlns="http://www.w3.org/2000/svg">
<path d="M11.2069 4.48446C7.49177 4.48446 4.48007 7.49617 4.48007 11.2113C4.48007 14.9264 7.49177 17.9381 11.2069 17.9381C14.922 17.9381 17.9337 14.9264 17.9337 11.2113C17.9337 7.49617 14.922 4.48446 11.2069 4.48446ZM2.23779 11.2113C2.23779 6.25779 6.2534 2.24219 11.2069 2.24219C16.1604 2.24219 20.176 6.25779 20.176 11.2113C20.176 13.284 19.473 15.1924 18.2923 16.7112L24.3322 22.7511C24.77 23.1889 24.77 23.8988 24.3322 24.3366C23.8944 24.7744 23.1845 24.7744 22.7467 24.3366L16.7068 18.2967C15.188 19.4774 13.2796 20.1804 11.2069 20.1804C6.2534 20.1804 2.23779 16.1648 2.23779 11.2113Z" fill="black"/>
</svg>
