<svg width="27" height="27" viewBox="0 0 27 27" fill="none" xmlns="http://www.w3.org/2000/svg">
<path d="M13.4535 4.48446C10.9768 4.48446 8.96897 6.49227 8.96897 8.96902C8.96897 11.4458 10.9768 13.4536 13.4535 13.4536C15.9303 13.4536 17.9381 11.4458 17.9381 8.96902C17.9381 6.49227 15.9303 4.48446 13.4535 4.48446ZM6.7267 8.96902C6.7267 5.25389 9.7384 2.24219 13.4535 2.24219C17.1687 2.24219 20.1804 5.25389 20.1804 8.96902C20.1804 12.6841 17.1687 15.6958 13.4535 15.6958C9.7384 15.6958 6.7267 12.6841 6.7267 8.96902ZM8.96897 20.1804C7.11141 20.1804 5.60556 21.6863 5.60556 23.5438C5.60556 24.163 5.10361 24.665 4.48442 24.665C3.86523 24.665 3.36328 24.163 3.36328 23.5438C3.36328 20.4479 5.87304 17.9381 8.96897 17.9381H17.9381C21.034 17.9381 23.5438 20.4479 23.5438 23.5438C23.5438 24.163 23.0418 24.665 22.4226 24.665C21.8034 24.665 21.3015 24.163 21.3015 23.5438C21.3015 21.6863 19.7956 20.1804 17.9381 20.1804H8.96897Z" fill="black"/>
</svg>
