<svg width="265" height="308" viewBox="0 0 265 308" fill="none" xmlns="http://www.w3.org/2000/svg">
<g clip-path="url(#clip0_153_872)">
<path d="M132.773 307.934C205.675 307.934 264.773 248.835 264.773 175.934C264.773 103.032 205.675 43.9336 132.773 43.9336C59.8718 43.9336 0.773438 103.032 0.773438 175.934C0.773438 248.835 59.8718 307.934 132.773 307.934Z" fill="#D1CFCF"/>
<path d="M35.7734 175.934L67.7734 219.934L100.773 175.934L67.7734 131.934L35.7734 175.934Z" fill="#808080"/>
<path d="M6.77344 135.934C2.84644 148.404 0.773438 162.167 0.773438 175.934C0.773438 189.701 2.84644 202.463 6.77344 214.934L35.7734 175.934L6.77344 135.934Z" fill="#808080"/>
<path d="M100.773 175.934L132.773 219.934L165.773 175.934L132.773 131.934L100.773 175.934Z" fill="#808080"/>
<path d="M164.773 175.934L197.773 219.934L229.773 175.934L197.773 131.934L164.773 175.934Z" fill="#808080"/>
<path d="M258.773 135.934L229.773 175.934L258.773 214.934C262.693 202.463 264.773 189.7 264.773 175.934C264.773 162.167 262.7 148.404 258.773 135.934Z" fill="#808080"/>
<path d="M163.773 47.9338C143.905 55.8745 121.649 55.8745 101.773 47.9338V40.9338C101.773 31.3313 109.988 23.9338 119.773 23.9338L145.773 23.9338C155.559 23.9338 163.773 31.3313 163.773 40.9338V47.9338Z" fill="#808080"/>
<path d="M133.773 33.9337C124.676 33.9337 116.773 27.0315 116.773 17.9337C116.773 8.83592 124.676 0.933716 133.773 0.933716C142.871 0.933716 149.773 8.83592 149.773 17.9337C149.773 27.0315 142.871 33.9337 133.773 33.9337ZM133.773 6.93372C128.138 6.93372 122.773 12.2984 122.773 17.9337C122.773 23.5691 128.138 27.9337 133.773 27.9337C139.409 27.9337 143.773 23.5691 143.773 17.9337C143.773 12.2984 139.409 6.93372 133.773 6.93372Z" fill="#808080"/>
</g>
<defs>
<clipPath id="clip0_153_872">
<rect width="264" height="307" fill="white" transform="translate(0.773438 0.933716)"/>
</clipPath>
</defs>
</svg>
