<svg width="401" height="630" viewBox="0 0 401 630" fill="none" xmlns="http://www.w3.org/2000/svg">
<g clip-path="url(#clip0_153_350)" filter="url(#filter0_f_153_350)">
<path d="M386.429 523.796C386.022 515.539 384.469 506.809 382.429 498.796C380.589 491.267 378.603 483.976 376.429 477.796C375.764 475.84 375.036 474.674 374.429 472.796C370.631 462.548 366.148 451.692 361.429 441.796C354.39 426.947 346.351 412.6 337.429 398.796L332.429 390.796L331.429 389.796L329.429 386.796C329.096 386.209 328.782 385.383 328.429 384.796C317.83 367.729 307.507 350.82 297.429 334.796C288.057 319.855 279.332 305.812 270.429 291.796C258.172 272.552 245.838 254.241 234.429 236.796C223.347 219.847 212.676 203.09 202.429 187.796C189.611 168.643 177.956 151.276 166.429 134.796C154.773 118.094 143.755 102.786 133.429 88.7962C119.24 69.5649 106.047 52.8643 94.4293 38.7962C89.1426 32.4075 84.1808 26.1418 79.4293 20.7962C75.807 16.7479 51.8936 10.2888 33.4293 18.7962C17.7651 26.0911 12.0028 42.132 15.4293 65.7962C16.5454 73.4822 28.3147 93.6848 44.4293 118.796C54.9832 135.244 67.428 153.963 80.4293 172.796C91.2964 188.598 101.915 203.855 112.429 218.796C119.909 229.455 126.909 239.604 133.429 248.796C139.206 256.991 144.671 265.01 149.429 271.796C159.22 285.604 166.434 295.868 169.429 300.796C173.345 307.185 177.226 313.473 181.429 319.796C192.316 336.244 204.092 353.014 215.429 368.796L218.429 372.796C228.22 386.349 238.129 399.774 247.429 413.796C259.983 432.252 271.452 451.833 281.429 471.796C283.055 475.14 284.922 478.374 286.429 481.796C287.173 483.419 287.724 485.153 288.429 486.796C292.56 496.368 296.386 505.826 299.429 515.796C300.217 518.278 300.162 521.206 300.429 523.796C300.862 526.749 300.667 530.08 299.429 532.796C298.499 534.12 297.681 534.771 296.429 535.796C296.136 535.992 295.723 536.64 295.429 536.796C291.513 538.752 285.992 537.241 281.429 534.796C278.773 533.334 276.678 531.829 274.429 529.796C273.646 529.092 273.154 528.539 272.429 527.796C270.113 525.275 267.444 522.564 265.429 519.796C263.387 516.965 261.859 514.304 259.429 511.796C257.983 510.375 256.182 508.817 254.429 507.796H253.429C242.934 502.359 228.647 502.381 216.429 508.796C215.431 509.324 214.389 510.209 213.429 510.796C204.931 516.135 199.506 524.269 198.429 532.796C197.847 539.436 198.702 545.713 201.429 551.796C201.919 553.048 202.842 554.427 203.429 555.796C208.5 566.737 214.828 576.338 223.429 584.796C228.187 589.503 233.884 594.047 239.429 597.796C254.441 608.108 271.263 614.413 289.429 615.796C294.874 616.171 301.012 615.457 306.429 614.796C306.86 614.796 306.999 614.953 307.429 614.796C327.566 611.764 346.277 602.421 360.429 587.796C361.173 587.053 361.744 586.598 362.429 585.796C376.468 570.659 385.529 550.999 386.429 530.796C386.331 528.43 386.527 526.3 386.429 523.796Z" fill="white"/>
<path d="M133.43 88.7961C119.255 69.5489 106.036 52.876 94.4297 38.7961L44.4297 118.796L80.4297 172.796L133.43 88.7961Z" fill="#3C53D5"/>
<path d="M202.43 187.796L149.43 271.796C144.668 265.018 139.21 256.98 133.43 248.796C126.905 239.616 119.876 230.441 112.43 219.796L165.43 134.796L202.43 187.796Z" fill="#3C53D5"/>
<path d="M269.43 291.796C257.207 272.593 245.806 254.204 234.43 236.796L181.43 319.796C192.286 336.208 204.125 353.048 215.43 368.796L218.43 372.796L269.43 291.796Z" fill="#3C53D5"/>
<path d="M281.43 471.796L332.43 390.796L331.43 389.796L329.43 385.796L297.43 334.796L247.43 413.796L281.43 471.796Z" fill="#3C53D5"/>
<path d="M288.43 533.796L284.43 531.796V533.796H288.43Z" fill="#E1272C"/>
<path d="M386.43 523.796C386.022 515.555 384.468 506.793 382.43 498.796C380.591 491.282 378.601 484.964 376.43 478.796C375.765 476.844 375.036 474.67 374.43 472.796L286.43 482.796C287.173 484.416 287.725 485.157 288.43 486.796C292.556 496.349 296.389 506.846 299.43 516.796C300.216 519.273 301.163 521.212 301.43 523.796C301.862 526.743 300.667 530.086 299.43 532.796L386.43 523.796Z" fill="#3C53D5"/>
<path d="M362.43 585.796L296.43 535.796L288.43 533.796L284.43 532.796L281.43 531.796V534.796L289.43 615.796C294.889 616.17 300.998 615.456 306.43 614.796C306.862 614.796 306.998 614.952 307.43 614.796C327.619 611.77 346.24 602.392 360.43 587.796C361.195 587.054 361.743 586.596 362.43 585.796Z" fill="#3C53D5"/>
<path d="M271.43 527.796C269.128 525.28 267.431 522.557 265.43 519.796C263.4 516.971 260.844 514.298 258.43 511.796C256.992 510.378 255.171 508.814 253.43 507.796H252.43C241.998 502.371 227.573 502.396 215.43 508.796C214.437 509.323 213.383 510.211 212.43 510.796C203.983 516.123 198.5 524.288 197.43 532.796C196.85 539.42 197.719 545.727 200.43 551.796C200.916 553.045 201.846 554.43 202.43 555.796C207.47 566.711 214.88 576.357 223.43 584.796L271.43 527.796Z" fill="#3C53D5"/>
</g>
<defs>
<filter id="filter0_f_153_350" x="0.229688" y="0.596143" width="400.4" height="629.4" filterUnits="userSpaceOnUse" color-interpolation-filters="sRGB">
<feFlood flood-opacity="0" result="BackgroundImageFix"/>
<feBlend mode="normal" in="SourceGraphic" in2="BackgroundImageFix" result="shape"/>
<feGaussianBlur stdDeviation="7.1" result="effect1_foregroundBlur_153_350"/>
</filter>
<clipPath id="clip0_153_350">
<rect width="372" height="601" fill="white" transform="matrix(1 0 0 -1 14.4297 615.796)"/>
</clipPath>
</defs>
</svg>
