<svg width="120" height="120" viewBox="0 0 120 120" fill="none" xmlns="http://www.w3.org/2000/svg">
<path d="M49.9115 0H60V10.0885H49.9115V0ZM49.9115 10.0885H60V20.177H49.9115V10.0885ZM49.9115 20.177H60V29.7345H49.9115V20.177ZM49.9115 29.7345H60V39.823H49.9115V29.7345ZM49.9115 39.823H60V49.9115H49.9115V39.823ZM60 39.823H70.0885V49.9115H60V39.823ZM60 29.7345H70.0885V39.823H60V29.7345ZM60 20.177H70.0885V29.7345H60V20.177ZM60 10.0885H70.0885V20.177H60V10.0885ZM60 0H70.0885V10.0885H60V0ZM49.9115 70.0885H60V80.177H49.9115V70.0885ZM60 70.0885H70.0885V80.177H60V70.0885ZM60 80.177H70.0885V89.7345H60V80.177ZM60 89.7345H70.0885V99.823H60V89.7345ZM60 99.823H70.0885V109.911H60V99.823ZM60 109.911H70.0885V120H60V109.911ZM49.9115 109.911H60V120H49.9115V109.911ZM49.9115 99.823H60V109.911H49.9115V99.823ZM49.9115 89.7345H60V99.823H49.9115V89.7345ZM49.9115 80.177H60V89.7345H49.9115V80.177ZM70.0885 49.9115H80.177V60H70.0885V49.9115ZM70.0885 60H80.177V70.0885H70.0885V60ZM80.177 60H89.7345V70.0885H80.177V60ZM89.7345 60H99.823V70.0885H89.7345V60ZM99.823 60H109.911V70.0885H99.823V60ZM109.911 60H120V70.0885H109.911V60ZM109.911 49.9115H120V60H109.911V49.9115ZM99.823 49.9115H109.911V60H99.823V49.9115ZM89.7345 49.9115H99.823V60H89.7345V49.9115ZM80.177 49.9115H89.7345V60H80.177V49.9115ZM39.823 49.9115H49.9115V60H39.823V49.9115ZM39.823 60H49.9115V70.0885H39.823V60ZM29.7345 60H39.823V70.0885H29.7345V60ZM20.177 60H29.7345V70.0885H20.177V60ZM10.0885 60H20.177V70.0885H10.0885V60ZM10.0885 49.9115H20.177V60H10.0885V49.9115ZM20.177 49.9115H29.7345V60H20.177V49.9115ZM29.7345 49.9115H39.823V60H29.7345V49.9115ZM0 49.9115H10.0885V60H0V49.9115ZM0 60H10.0885V70.0885H0V60Z" fill="white"/>
</svg>
