<svg width="369" height="75" viewBox="0 0 369 75" fill="none" xmlns="http://www.w3.org/2000/svg">
<path d="M89.9961 55.6163C83.1514 55.6163 77.0601 53.1728 72.9961 48.6163C68.9524 44.0861 67.0348 37.2232 66.9961 29.6163C66.9166 21.2252 69.2985 14.3341 73.9961 9.61633C77.9705 5.6244 83.7605 3.64859 89.9961 3.61633C89.8983 3.61633 90.0938 3.61633 89.9961 3.61633C103.769 3.61633 112.843 13.8421 112.996 29.6163C113.116 37.9208 110.626 44.9429 105.996 49.6163C102.011 53.6365 96.3967 55.5821 89.9961 55.6163C90.0979 55.6163 89.8922 55.6163 89.9961 55.6163ZM89.9961 3.61633C84.7301 3.68891 80.0884 6.69496 76.9961 11.6163C74.0911 16.2393 72.9594 22.3522 72.9961 29.6163C73.0348 36.8986 73.9648 43.08 76.9961 47.6163C80.1353 52.3139 84.7627 55.6163 89.9961 55.6163C93.9664 55.5881 97.1584 53.4732 99.9961 50.6163C104.468 46.1123 107.09 38.6808 106.996 29.6163C106.921 22.445 105.903 16.1667 102.996 11.6163C99.8834 6.74537 95.1846 3.61633 89.9961 3.61633C90.0674 3.61633 89.9227 3.61633 89.9961 3.61633Z" fill="black"/>
<path d="M127.996 56.6161C122.749 56.6161 116.996 53.1783 116.996 44.6161V25.6161C116.996 22.4813 116.133 20.9787 114.996 20.6161C117.415 20.5095 121.368 20.0542 122.996 17.6161V45.6161C122.996 51.9675 127.933 53.6161 131.996 53.6161C134.299 53.6161 136.232 52.8597 137.996 51.6161C139.919 50.2577 140.996 48.6199 140.996 46.6161V25.6161C140.996 22.4813 139.131 20.9787 137.996 20.6161C140.415 20.5095 145.368 20.0542 146.996 17.6161V47.6161C146.996 50.7508 147.861 52.2534 148.996 52.6161C146.577 52.7226 142.624 53.1779 140.996 55.6161V49.6161H139.996C138.377 53.7978 133.414 56.6161 127.996 56.6161Z" fill="black"/>
<path d="M161.996 57.6162C159.831 57.6162 157.461 57.173 155.996 55.6162C154.191 53.7 152.996 50.2906 152.996 46.6162V23.6162C152.996 19.6276 151.278 19.686 149.996 19.6162V18.6162C153.157 18.5115 157.097 16.1714 157.996 12.6162H158.996V18.6162H164.996V19.6162H158.996V46.6162C158.996 54.7515 162.516 55.6162 163.996 55.6162C165.476 55.6162 166.607 55.2878 166.996 54.6162C166.755 56.4996 164.783 57.6162 161.996 57.6162Z" fill="black"/>
<path d="M187.996 55.6161C191.455 54.9904 192.996 51.7192 192.996 45.6161V13.6161C192.996 7.51095 191.455 4.24179 187.996 3.61609L206.996 3.61609C214.124 3.61609 220.687 6.38166 224.996 11.6161C228.973 16.4476 230.996 23.4074 230.996 30.6161C230.996 43.2233 224.358 55.6161 208.996 55.6161H187.996ZM205.996 4.61609C203.392 4.61609 198.996 4.24802 198.996 9.61609V49.6161C198.996 54.9842 203.394 54.6161 205.996 54.6161H208.996C213.248 54.6161 216.805 52.3828 219.996 47.6161C223.258 42.7401 224.996 36.2538 224.996 29.6161C224.996 22.9784 224.091 17.3747 220.996 12.6161C218.57 8.89023 213.972 4.61609 206.996 4.61609L205.996 4.61609Z" fill="black"/>
<path d="M233.996 56.6162C237.463 55.9884 238.996 52.7402 238.996 46.6162V26.6162C238.996 23.5075 238.122 21.9759 236.996 21.6162C239.391 21.5106 243.385 21.0341 244.996 18.6162V46.6162C244.996 52.7423 246.529 55.9884 249.996 56.6162H233.996ZM240.996 14.6162C238.41 14.6162 236.996 13.2231 236.996 10.6162C236.996 8.00934 238.45 6.61621 240.996 6.61621C243.542 6.61621 244.996 8.09264 244.996 10.6162C244.996 13.1398 243.498 14.6162 240.996 14.6162Z" fill="black"/>
<path d="M262.996 74.6162C254.724 74.6162 247.767 71.5384 241.996 68.6162C237.832 66.5068 234.297 64.6162 230.996 64.6162C230.928 64.6162 231.065 64.6142 230.996 64.6162C233.677 62.8437 235.733 61.6162 237.996 61.6162C242.034 61.6162 245.513 64.8615 248.996 67.6162C253.068 70.8365 258.366 73.6162 264.996 73.6162C274.544 73.6162 279.996 66.6539 279.996 61.6162C279.996 56.2457 273.815 56.6264 266.996 56.6162C259.941 56.604 252.996 55.826 252.996 49.6162C252.996 45.0053 256.338 42.1288 258.996 41.6162H259.996H258.996C255.701 39.3312 253.996 35.9433 253.996 31.6162C253.996 28.0488 255.665 24.9298 257.996 22.6162C260.408 20.2209 263.161 18.6162 266.996 18.6162C268.083 18.6162 269.876 18.3712 270.996 18.6162C271.769 18.7163 272.213 19.6162 272.996 19.6162C276.556 19.6162 280.512 18.0987 281.996 16.6162C282.183 17.237 281.267 18.2058 280.996 18.6162C280.372 19.5576 279.094 19.6162 275.996 19.6162C275.31 19.6162 274.815 19.6632 273.996 19.6162H272.996C277.385 21.6235 279.996 26.4151 279.996 31.6162C279.996 39.0533 274.745 43.6162 266.996 43.6162C264.191 43.6162 262.125 42.9313 259.996 41.6162C257.832 42.0879 254.996 44.176 254.996 46.6162C254.996 50.3695 259.71 50.6162 264.996 50.6162H265.996C269.582 50.6162 273.876 50.5237 276.996 51.6162C280.452 52.8271 281.996 54.9058 281.996 58.6162C281.996 64.9384 277.011 74.6162 262.996 74.6162ZM266.996 18.6162C264.733 18.6162 263.368 20.3679 261.996 22.6162C260.641 24.842 259.996 27.9548 259.996 31.6162C259.996 39.0778 262.366 43.6162 266.996 43.6162C271.626 43.6162 274.996 39.0799 274.996 31.6162C274.996 27.9548 274.352 24.84 272.996 22.6162C271.627 20.3679 269.259 18.6162 266.996 18.6162Z" fill="black"/>
<path d="M283.996 56.6162C287.462 55.9884 288.996 52.7402 288.996 46.6162V26.6162C288.996 23.5075 288.12 21.9759 286.996 21.6162C289.391 21.5106 293.385 21.0341 294.996 18.6162V46.6162C294.996 52.7423 296.53 55.9884 299.996 56.6162H283.996ZM290.996 14.6162C288.41 14.6162 286.996 13.2231 286.996 10.6162C286.996 8.00934 288.45 6.61621 290.996 6.61621C293.542 6.61621 294.996 8.09264 294.996 10.6162C294.996 13.1398 293.498 14.6162 290.996 14.6162Z" fill="black"/>
<path d="M346.996 57.6162C345.43 57.6162 341.996 57.1203 341.996 51.6162V46.6162C340.947 51.461 337.498 57.6162 328.996 57.6162C325.034 57.6162 321.985 55.8548 319.996 53.6162C318.68 51.9917 317.996 49.9349 317.996 47.6162C317.996 39.929 325.779 37.9698 332.996 35.6162C336.787 34.3798 339.826 32.5139 341.996 30.6162C341.772 26.6463 341.452 24.442 339.996 22.6162C338.605 20.8726 336.677 19.6162 333.996 19.6162C330.847 19.6162 327.995 20.7781 326.996 22.6162C326.504 23.5219 325.739 24.5871 326.996 26.6162C326.638 29.0848 325.762 30.6162 323.996 30.6162C323.199 30.6162 322.503 30.1543 321.996 29.6162C321.364 28.9426 320.927 27.8854 320.996 26.6162C320.626 21.6769 317.686 18.6162 313.996 18.6162C313.195 18.6162 312.747 18.3123 311.996 18.6162V46.6162C311.996 54.4595 315.18 55.6162 316.996 55.6162C318.383 55.6162 319.61 55.3289 319.996 54.6162C319.787 56.5159 316.795 57.6162 313.996 57.6162C311.854 57.6162 310.444 57.173 308.996 55.6162C307.212 53.7001 305.996 50.2904 305.996 46.6162V23.6162C305.996 19.6278 304.263 19.686 302.996 19.6162V18.6162C306.12 18.5115 310.107 16.1713 310.996 12.6162H311.996V18.6162C312.83 18.3102 313.215 17.6162 313.996 17.6162C317.539 17.6162 320.431 20.4081 320.996 24.6162V25.6162L321.996 24.6162C323.383 21.0365 327.486 19.6162 332.996 19.6162C335.931 19.6162 339.697 19.7697 342.996 22.6162C346.173 25.358 347.996 30.0977 347.996 35.6162V46.6162C347.996 51.3255 348.378 55.6162 350.996 55.6162C351.673 55.6162 352.378 55.1974 352.996 54.6162C351.936 55.9696 349.492 57.6162 346.996 57.6162ZM341.996 32.6162C340.288 33.5876 338.339 33.9405 335.996 34.6162C330.285 36.2654 323.996 38.1035 323.996 45.6162C323.996 51.4366 327.948 56.6162 332.996 56.6162C336.645 56.6162 339.292 54.2516 340.996 49.6162C342.601 45.2499 341.996 40.5199 341.996 39.6162V32.6162Z" fill="black"/>
<path d="M352.996 56.6162C356.463 55.9844 357.996 52.7805 357.996 46.6162V8.61621C357.996 5.48806 357.122 3.97809 355.996 3.61621C358.391 3.50989 362.385 3.04922 363.996 0.616211V46.6162C363.996 52.7805 365.527 55.9865 368.996 56.6162H352.996Z" fill="black"/>
<path d="M23.0283 10.8741C23.0897 10.3151 23.9025 10.3151 23.9639 10.8741L25.7813 27.4146C25.8053 27.6339 25.9784 27.807 26.1977 27.8311L42.7382 29.6484C43.2972 29.7098 43.2972 30.5226 42.7382 30.584L26.1977 32.4014C25.9784 32.4255 25.8053 32.5986 25.7813 32.8178L23.9639 49.3583C23.9025 49.9173 23.0897 49.9173 23.0283 49.3583L21.2109 32.8178C21.1868 32.5986 21.0137 32.4255 20.7945 32.4014L4.25397 30.584C3.69499 30.5226 3.69498 29.7098 4.25396 29.6484L20.7945 27.8311C21.0137 27.807 21.1868 27.6339 21.2109 27.4146L23.0283 10.8741Z" fill="black"/>
</svg>
