<svg width="370" height="75" viewBox="0 0 370 75" fill="none" xmlns="http://www.w3.org/2000/svg">
<path d="M90.6152 55.2437C83.7714 55.2437 77.6787 52.8001 73.6152 48.2437C69.5721 43.7134 67.6539 36.8505 67.6152 29.2437C67.5358 20.8525 69.9182 13.9614 74.6152 9.24365C78.5891 5.25172 84.3804 3.27591 90.6152 3.24365C90.5174 3.24365 90.713 3.24365 90.6152 3.24365C104.386 3.24365 113.462 13.4695 113.615 29.2437C113.735 37.5481 111.245 44.5703 106.615 49.2437C102.631 53.2638 97.015 55.2094 90.6152 55.2437C90.717 55.2437 90.5113 55.2437 90.6152 55.2437ZM90.6152 3.24365C85.35 3.31623 80.7071 6.32228 77.6152 11.2437C74.7107 15.8666 73.5785 21.9795 73.6152 29.2437C73.6539 36.5259 74.5844 42.7074 77.6152 47.2437C80.754 51.9412 85.3826 55.2437 90.6152 55.2437C94.585 55.2154 97.7779 53.1005 100.615 50.2437C105.086 45.7396 107.709 38.3082 107.615 29.2437C107.54 22.0723 106.522 15.7941 103.615 11.2437C100.503 6.37268 95.803 3.24365 90.6152 3.24365C90.6865 3.24365 90.5419 3.24365 90.6152 3.24365Z" fill="white"/>
<path d="M128.615 56.2436C123.368 56.2436 117.615 52.8058 117.615 44.2436V25.2436C117.615 22.1089 116.753 20.6063 115.615 20.2436C118.034 20.1371 121.988 19.6817 123.615 17.2436V45.2436C123.615 51.5951 128.552 53.2436 132.615 53.2436C134.918 53.2436 136.851 52.4873 138.615 51.2436C140.538 49.8852 141.615 48.2474 141.615 46.2436V25.2436C141.615 22.1089 139.751 20.6063 138.615 20.2436C141.034 20.1371 145.988 19.6817 147.615 17.2436V47.2436C147.615 50.3784 148.48 51.881 149.615 52.2436C147.196 52.3501 143.243 52.8055 141.615 55.2436V49.2436H140.615C138.996 53.4253 134.033 56.2436 128.615 56.2436Z" fill="white"/>
<path d="M162.615 57.2436C160.45 57.2436 158.081 56.8004 156.615 55.2436C154.81 53.3273 153.615 49.9179 153.615 46.2436V23.2436C153.615 19.255 151.897 19.3134 150.615 19.2436V18.2436C153.776 18.1388 157.716 15.7988 158.615 12.2436H159.615V18.2436H165.615V19.2436H159.615V46.2436C159.615 54.3789 163.135 55.2436 164.615 55.2436C166.095 55.2436 167.226 54.9152 167.615 54.2436C167.374 56.127 165.402 57.2436 162.615 57.2436Z" fill="white"/>
<path d="M188.615 55.2436C192.074 54.6179 193.615 51.3467 193.615 45.2436V13.2436C193.615 7.13849 192.074 3.86933 188.615 3.24363L207.615 3.24363C214.743 3.24363 221.307 6.00921 225.615 11.2436C229.592 16.0751 231.615 23.0349 231.615 30.2436C231.615 42.8508 224.977 55.2436 209.615 55.2436H188.615ZM206.615 4.24363C204.011 4.24363 199.615 3.87556 199.615 9.24363V49.2436C199.615 54.6117 204.013 54.2436 206.615 54.2436H209.615C213.868 54.2436 217.424 52.0103 220.615 47.2436C223.877 42.3676 225.615 35.8813 225.615 29.2436C225.615 22.6059 224.71 17.0022 221.615 12.2436C219.19 8.51777 214.591 4.24363 207.615 4.24363H206.615Z" fill="white"/>
<path d="M234.615 56.2436C238.082 55.6158 239.615 52.3677 239.615 46.2436V26.2436C239.615 23.1349 238.741 21.6033 237.615 21.2436C240.01 21.138 244.004 20.6615 245.615 18.2436V46.2436C245.615 52.3697 247.149 55.6158 250.615 56.2436H234.615ZM241.615 14.2436C239.029 14.2436 237.615 12.8505 237.615 10.2436C237.615 7.63675 239.069 6.24363 241.615 6.24363C244.161 6.24363 245.615 7.72006 245.615 10.2436C245.615 12.7672 244.117 14.2436 241.615 14.2436Z" fill="white"/>
<path d="M263.615 74.2436C255.35 74.2436 248.381 71.1658 242.615 68.2436C238.455 66.1342 234.913 64.2436 231.615 64.2436C231.547 64.2436 231.684 64.2416 231.615 64.2436C234.294 62.4711 236.355 61.2436 238.615 61.2436C242.65 61.2436 246.135 64.4889 249.615 67.2436C253.684 70.4639 258.991 73.2436 265.615 73.2436C275.154 73.2436 280.615 66.2813 280.615 61.2436C280.615 55.8731 274.428 56.2538 267.615 56.2436C260.566 56.2314 253.615 55.4535 253.615 49.2436C253.615 44.6327 256.959 41.7562 259.615 41.2436H260.615H259.615C256.323 38.9586 254.615 35.5707 254.615 31.2436C254.615 27.6762 256.286 24.5573 258.615 22.2436C261.025 19.8483 263.784 18.2436 267.615 18.2436C268.701 18.2436 270.496 17.9986 271.615 18.2436C272.388 18.3437 272.833 19.2436 273.615 19.2436C277.172 19.2436 281.133 17.7261 282.615 16.2436C282.802 16.8644 281.886 17.8332 281.615 18.2436C280.991 19.185 279.711 19.2436 276.615 19.2436C275.929 19.2436 275.434 19.2906 274.615 19.2436H273.615C278.001 21.251 280.615 26.0426 280.615 31.2436C280.615 38.6807 275.357 43.2436 267.615 43.2436C264.813 43.2436 262.742 42.5587 260.615 41.2436C258.453 41.7153 255.615 43.8034 255.615 46.2436C255.615 49.9969 260.333 50.2436 265.615 50.2436H266.615C270.198 50.2436 274.498 50.1511 277.615 51.2436C281.068 52.4546 282.615 54.5332 282.615 58.2436C282.615 64.5658 277.618 74.2436 263.615 74.2436ZM267.615 18.2436C265.355 18.2436 263.986 19.9953 262.615 22.2436C261.261 24.4695 260.615 27.5823 260.615 31.2436C260.615 38.7052 262.989 43.2436 267.615 43.2436C272.241 43.2436 275.615 38.7073 275.615 31.2436C275.615 27.5823 274.97 24.4674 273.615 22.2436C272.247 19.9953 269.876 18.2436 267.615 18.2436Z" fill="white"/>
<path d="M284.615 56.2436C288.081 55.6158 289.615 52.3677 289.615 46.2436V26.2436C289.615 23.1349 288.739 21.6033 287.615 21.2436C290.01 21.138 294.004 20.6615 295.615 18.2436V46.2436C295.615 52.3697 297.149 55.6158 300.615 56.2436H284.615ZM291.615 14.2436C289.029 14.2436 287.615 12.8505 287.615 10.2436C287.615 7.63675 289.069 6.24363 291.615 6.24363C294.161 6.24363 295.615 7.72006 295.615 10.2436C295.615 12.7672 294.117 14.2436 291.615 14.2436Z" fill="white"/>
<path d="M347.615 57.2437C346.049 57.2437 342.615 56.7478 342.615 51.2437V46.2437C341.566 51.0885 338.117 57.2437 329.615 57.2437C325.653 57.2437 322.604 55.4823 320.615 53.2437C319.299 51.6191 318.615 49.5624 318.615 47.2437C318.615 39.5564 326.399 37.5973 333.615 35.2437C337.407 34.0073 340.445 32.1413 342.615 30.2437C342.391 26.2737 342.072 24.0695 340.615 22.2437C339.224 20.5 337.296 19.2437 334.615 19.2437C331.467 19.2437 328.614 20.4056 327.615 22.2437C327.123 23.1494 326.358 24.2146 327.615 26.2437C327.257 28.7123 326.381 30.2437 324.615 30.2437C323.818 30.2437 323.122 29.7818 322.615 29.2437C321.983 28.57 321.546 27.5129 321.615 26.2437C321.245 21.3044 318.305 18.2437 314.615 18.2437C313.814 18.2437 313.366 17.9397 312.615 18.2437V46.2437C312.615 54.087 315.799 55.2437 317.615 55.2437C319.002 55.2437 320.229 54.9563 320.615 54.2437C320.406 56.1434 317.414 57.2437 314.615 57.2437C312.473 57.2437 311.063 56.8004 309.615 55.2437C307.831 53.3275 306.615 49.9179 306.615 46.2437V23.2437C306.615 19.2553 304.882 19.3135 303.615 19.2437V18.2437C306.739 18.1389 310.726 15.7987 311.615 12.2437H312.615V18.2437C313.449 17.9377 313.834 17.2437 314.615 17.2437C318.158 17.2437 321.05 20.0355 321.615 24.2437V25.2437L322.615 24.2437C324.002 20.664 328.105 19.2437 333.615 19.2437C336.55 19.2437 340.316 19.3972 343.615 22.2437C346.792 24.9854 348.615 29.7252 348.615 35.2437V46.2437C348.615 50.9529 348.997 55.2437 351.615 55.2437C352.293 55.2437 352.997 54.8249 353.615 54.2437C352.556 55.5971 350.111 57.2437 347.615 57.2437ZM342.615 32.2437C340.907 33.2151 338.958 33.568 336.615 34.2437C330.904 35.8928 324.615 37.731 324.615 45.2437C324.615 51.064 328.567 56.2437 333.615 56.2437C337.264 56.2437 339.911 53.879 341.615 49.2437C343.22 44.8774 342.615 40.1473 342.615 39.2437V32.2437Z" fill="white"/>
<path d="M353.615 56.2436C357.082 55.6118 358.615 52.4079 358.615 46.2436V8.24359C358.615 5.11544 357.741 3.60548 356.615 3.24359C359.01 3.13728 363.004 2.6766 364.615 0.243591V46.2436C364.615 52.4079 366.147 55.6139 369.615 56.2436H353.615Z" fill="white"/>
<path d="M23.6484 10.5015C23.7098 9.94248 24.5226 9.94248 24.584 10.5015L26.4014 27.042C26.4255 27.2612 26.5986 27.4343 26.8178 27.4584L43.3583 29.2758C43.9173 29.3372 43.9173 30.15 43.3583 30.2114L26.8178 32.0287C26.5986 32.0528 26.4255 32.2259 26.4014 32.4452L24.584 48.9857C24.5226 49.5447 23.7098 49.5447 23.6484 48.9857L21.8311 32.4452C21.807 32.2259 21.6339 32.0528 21.4146 32.0287L4.87408 30.2114C4.3151 30.15 4.3151 29.3372 4.87408 29.2758L21.4146 27.4584C21.6339 27.4343 21.807 27.2612 21.8311 27.042L23.6484 10.5015Z" fill="white"/>
</svg>
