<svg width="397" height="221" viewBox="0 0 397 221" fill="none" xmlns="http://www.w3.org/2000/svg">
<g style="mix-blend-mode:plus-lighter" opacity="0.12" clip-path="url(#clip0_249_5)" filter="url(#filter0_f_249_5)">
<path d="M316.25 204.429L314.644 225.262C314.626 225.524 314.587 226.07 314.412 226.269C314.238 226.468 314.052 226.604 313.793 226.657L312.167 226.813C308.108 227.642 303.928 227.928 300.009 226.67L299.002 226.439C298.752 226.358 298.373 225.416 298.226 225.2C298.079 224.985 297.822 224.843 297.838 224.581L299.445 203.748C299.466 203.434 300.057 202.564 300.295 202.353C300.533 202.143 300.599 201.949 300.914 201.965L314.468 202.959C314.625 202.967 315.334 203.123 315.475 203.191C315.371 203.074 315.616 203.258 315.475 203.191C315.578 203.307 315.812 203.662 315.862 203.81C315.912 203.957 316.261 204.273 316.25 204.429Z" fill="white"/>
<path d="M368.217 208.948C349.843 208.283 343.871 205.904 342.581 205.178C342.56 205.165 342.606 205.176 342.581 205.178C342.556 205.18 342.6 205.162 342.581 205.178C342.562 205.194 342.587 205.154 342.581 205.178C342.575 205.202 342.572 205.155 342.581 205.178C342.92 206.136 343.802 209.559 345.533 215.398C345.539 215.417 345.538 215.377 345.533 215.398C345.529 215.418 345.547 215.382 345.533 215.398C345.52 215.413 345.553 215.39 345.533 215.398C345.514 215.405 345.554 215.401 345.533 215.398C336.905 214.005 327.411 207.2 325.932 206.123C325.914 206.11 325.954 206.125 325.932 206.123C325.91 206.122 325.952 206.113 325.932 206.123C325.912 206.134 325.943 206.104 325.932 206.123C325.92 206.142 325.932 206.101 325.932 206.123L325.401 217.663C325.401 217.683 325.411 217.644 325.401 217.663C325.391 217.681 325.418 217.652 325.401 217.663C325.383 217.674 325.422 217.662 325.401 217.663C325.38 217.663 325.419 217.672 325.401 217.663C323.83 216.803 312.325 210.247 307.501 205.599C307.477 205.577 307.532 205.598 307.501 205.599C307.469 205.6 307.522 205.576 307.501 205.599C302.14 211.264 291.617 215.051 290.395 215.45C290.38 215.455 290.412 215.451 290.395 215.45C290.379 215.449 290.41 215.458 290.395 215.45C290.381 215.443 290.406 215.463 290.395 215.45C290.4 215.466 290.385 215.438 290.395 215.45C290.191 214.727 289.005 210.376 289.92 203.68C289.928 203.7 289.923 203.658 289.92 203.68C289.911 203.659 289.938 203.692 289.92 203.68C289.901 203.667 289.942 203.681 289.92 203.68C289.897 203.678 289.939 203.669 289.92 203.68C284.416 206.663 270.772 209.526 268.862 209.972C268.84 209.978 268.883 209.979 268.862 209.972C268.841 209.966 268.876 209.989 268.862 209.972C268.865 209.994 268.847 209.956 268.862 209.972C268.853 209.993 268.858 209.951 268.862 209.972L272.801 199.746C272.806 199.767 272.808 199.726 272.801 199.746C272.815 199.762 272.797 199.726 272.801 199.746C272.787 199.731 272.822 199.753 272.801 199.746C272.781 199.74 272.822 199.742 272.801 199.746C270.747 200.047 253.421 202.276 247.634 200.855C247.616 200.85 247.648 200.866 247.634 200.855C247.62 200.843 247.642 200.871 247.634 200.855C247.634 200.873 247.627 200.838 247.634 200.855C247.626 200.871 247.635 200.836 247.634 200.855C247.619 200.864 247.643 200.839 247.634 200.855C247.616 200.856 247.649 200.845 247.634 200.855C249.377 200.47 251.506 199.328 253.594 197.984C261.077 193.137 269.349 183.181 269.842 182.635L269.223 183.023C268.218 183.311 264.927 184.883 260.861 184.812C258.994 184.773 256.431 184.129 254.82 183.424C254.798 183.414 254.832 183.444 254.82 183.424C254.819 183.447 254.807 183.403 254.82 183.424C254.806 183.443 254.82 183.4 254.82 183.424C254.797 183.432 254.833 183.404 254.82 183.424C255.203 183.283 255.693 182.832 256.058 182.648C262.353 179.516 275.842 168.025 279.892 164.272L281.13 163.496L281.75 163.108C281.648 163.113 273.415 163.152 267.19 161.883C267.165 161.878 267.207 161.902 267.19 161.883C267.192 161.908 267.172 161.864 267.19 161.883C267.177 161.905 267.187 161.858 267.19 161.883C267.166 161.893 267.202 161.861 267.19 161.883C273.121 159.044 282.96 149.378 284.832 147.385C284.83 147.411 284.85 147.366 284.832 147.385C284.846 147.407 284.835 147.358 284.832 147.385C284.818 147.362 284.857 147.394 284.832 147.385C284.807 147.376 284.858 147.377 284.832 147.385C283.783 147.71 280.643 148.006 274.688 147.704C274.661 147.703 274.708 147.722 274.688 147.704C274.667 147.686 274.305 147.112 274.3 147.085C274.287 147.109 274.295 147.058 274.3 147.085C274.275 147.096 274.313 147.061 274.3 147.085C279.429 145.117 288.047 136.196 291.555 131.968C291.994 131.438 292.15 130.881 292.405 130.573L293.025 130.185C292.805 130.265 292.249 129.919 292.018 129.954L291.398 130.342C290.114 130.532 287.602 130.343 282.105 129.266C282.079 129.261 282.122 129.285 282.105 129.266C282.107 129.292 282.087 129.247 282.105 129.266C282.091 129.288 282.102 129.241 282.105 129.266C282.081 129.276 282.118 129.244 282.105 129.266C286.023 127.7 291.152 123.431 295.801 118.102C296.151 117.7 296.301 117.119 296.651 116.707C306.152 105.465 315.204 90.6764 316.295 88.8869C316.276 88.8968 316.306 88.8688 316.295 88.8869C316.274 88.886 316.314 88.877 316.295 88.8869C316.277 88.8754 316.316 88.8878 316.295 88.8869C316.285 88.8679 316.313 88.8984 316.295 88.8869C316.919 90.1033 320.335 97.1285 324.751 105.141C325.045 105.675 325.614 106.46 325.915 106.999C331.875 117.736 339.133 129.444 342.821 132.616C342.875 132.662 343.157 133.191 343.209 133.235C343.202 133.22 343.222 133.245 343.209 133.235C343.217 133.25 343.208 133.218 343.209 133.235C343.21 133.251 343.215 133.219 343.209 133.235C343.203 133.25 343.221 133.223 343.209 133.235C341.194 135.314 333.065 133.554 333.065 133.554C333.065 133.554 333.063 133.522 333.065 133.554C333.1 134.405 333.48 135.632 334.385 137.038C334.463 137.164 334.689 137.525 334.772 137.657C334.855 137.79 335.05 138.139 335.16 138.276C335.282 138.47 335.408 138.701 335.548 138.895C338.95 143.592 345.353 149.252 347.951 151.816C348.432 152.289 348.518 152.85 348.726 153.055C348.744 153.07 348.721 153.031 348.726 153.055C348.732 153.078 348.735 153.032 348.726 153.055C348.718 153.077 348.746 153.041 348.726 153.055C348.707 153.068 348.75 153.055 348.726 153.055C347.346 153.096 341.463 153.204 338.426 151.748C338.298 151.686 338.008 151.204 338.426 151.748C341.095 155.088 352.965 168.933 354.706 170.86C354.724 170.878 354.703 170.836 354.706 170.86C354.71 170.885 354.718 170.838 354.706 170.86C354.695 170.882 354.729 170.849 354.706 170.86C354.684 170.872 354.731 170.864 354.706 170.86C353.693 170.739 350.227 170.547 342.392 169.091C342.367 169.086 342.414 169.081 342.392 169.091C342.369 169.101 342.404 169.07 342.392 169.091C342.379 169.112 342.39 169.066 342.392 169.091C342.394 169.116 342.376 169.072 342.392 169.091C345.686 172.967 353.534 182.211 363.632 191.993C363.573 191.938 363.691 192.048 363.632 191.993C363.648 192.009 363.627 191.972 363.632 191.993C363.638 192.015 364.027 192.591 364.02 192.612C364.013 192.633 364.037 192.598 364.02 192.612C364.003 192.627 364.042 192.609 364.02 192.612C359.185 193.339 353.049 191.976 351.474 191.85C351.449 191.847 351.496 191.837 351.474 191.85C351.452 191.863 350.865 192.214 350.855 192.238C350.845 192.261 350.849 192.213 350.855 192.238C350.86 192.262 350.836 192.221 350.855 192.238C352.395 193.602 360.454 201.022 368.217 208.948C368.216 208.928 368.229 208.966 368.217 208.948C368.227 208.93 368.219 208.969 368.217 208.948C368.235 208.937 368.208 208.967 368.217 208.948C368.238 208.947 368.2 208.96 368.217 208.948Z" fill="white"/>
<path d="M368.217 208.948C349.843 208.283 343.871 205.904 342.581 205.178C342.56 205.165 342.606 205.176 342.581 205.178C342.556 205.18 342.6 205.162 342.581 205.178C342.562 205.194 342.587 205.154 342.581 205.178C342.575 205.202 342.572 205.155 342.581 205.178C342.92 206.136 343.802 209.559 345.533 215.398C345.539 215.417 345.538 215.377 345.533 215.398C345.529 215.418 345.547 215.382 345.533 215.398C345.52 215.413 345.553 215.39 345.533 215.398C345.514 215.405 345.554 215.401 345.533 215.398C336.905 214.005 327.411 207.2 325.932 206.123C325.914 206.11 325.954 206.125 325.932 206.123C325.91 206.122 325.952 206.113 325.932 206.123C325.912 206.134 325.943 206.104 325.932 206.123C325.92 206.142 325.932 206.101 325.932 206.123L325.401 217.663C325.401 217.683 325.411 217.644 325.401 217.663C325.391 217.681 325.418 217.652 325.401 217.663C325.383 217.674 325.422 217.662 325.401 217.663C325.38 217.663 325.419 217.672 325.401 217.663C323.83 216.803 312.325 210.247 307.501 205.599C307.477 205.577 307.532 205.598 307.501 205.599C307.469 205.6 307.522 205.576 307.501 205.599C302.14 211.264 291.617 215.051 290.395 215.45C290.38 215.455 290.412 215.451 290.395 215.45C290.379 215.449 290.41 215.458 290.395 215.45C290.381 215.443 290.406 215.463 290.395 215.45C290.4 215.466 290.385 215.438 290.395 215.45C290.191 214.727 289.005 210.376 289.92 203.68C289.928 203.7 289.923 203.658 289.92 203.68C289.911 203.659 289.938 203.692 289.92 203.68C289.901 203.667 289.942 203.681 289.92 203.68C289.897 203.678 289.939 203.669 289.92 203.68C284.416 206.663 270.772 209.526 268.862 209.972C268.84 209.978 268.883 209.979 268.862 209.972C268.841 209.966 268.876 209.989 268.862 209.972C268.865 209.994 268.847 209.956 268.862 209.972C268.853 209.993 268.858 209.951 268.862 209.972L272.801 199.746C272.806 199.767 272.808 199.726 272.801 199.746C272.815 199.762 272.797 199.726 272.801 199.746C272.787 199.731 272.822 199.753 272.801 199.746C272.781 199.74 272.822 199.742 272.801 199.746C270.747 200.047 253.421 202.276 247.634 200.855C247.616 200.85 247.648 200.866 247.634 200.855C247.62 200.843 247.642 200.871 247.634 200.855C247.634 200.873 247.627 200.838 247.634 200.855C247.626 200.871 247.635 200.836 247.634 200.855C247.619 200.864 247.643 200.839 247.634 200.855C247.616 200.856 247.649 200.845 247.634 200.855C249.377 200.47 251.506 199.328 253.594 197.984C261.077 193.137 269.349 183.181 269.842 182.635L269.223 183.023C268.218 183.311 264.927 184.883 260.861 184.812C258.994 184.773 256.431 184.129 254.82 183.424C254.798 183.414 254.832 183.444 254.82 183.424C254.819 183.447 254.807 183.403 254.82 183.424C254.806 183.443 254.82 183.4 254.82 183.424C254.797 183.432 254.833 183.404 254.82 183.424C255.203 183.283 255.693 182.832 256.058 182.648C262.353 179.516 275.842 168.025 279.892 164.272L281.13 163.496L281.75 163.108C281.648 163.113 273.415 163.152 267.19 161.883C267.165 161.878 267.207 161.902 267.19 161.883C267.192 161.908 267.172 161.864 267.19 161.883C267.177 161.905 267.187 161.858 267.19 161.883C267.166 161.893 267.202 161.861 267.19 161.883C273.121 159.044 282.96 149.378 284.832 147.385C284.83 147.411 284.85 147.366 284.832 147.385C284.846 147.407 284.835 147.358 284.832 147.385C284.818 147.362 284.857 147.394 284.832 147.385C284.807 147.376 284.858 147.377 284.832 147.385C283.783 147.71 280.643 148.006 274.688 147.704C274.661 147.703 274.708 147.722 274.688 147.704C274.667 147.686 274.305 147.112 274.3 147.085C274.287 147.109 274.295 147.058 274.3 147.085C274.275 147.096 274.313 147.061 274.3 147.085C279.429 145.117 288.047 136.196 291.555 131.968C291.994 131.438 292.15 130.881 292.405 130.573L293.025 130.185C292.805 130.265 292.249 129.919 292.018 129.954L291.398 130.342C290.114 130.532 287.602 130.343 282.105 129.266C282.079 129.261 282.122 129.285 282.105 129.266C282.107 129.292 282.087 129.247 282.105 129.266C282.091 129.288 282.102 129.241 282.105 129.266C282.081 129.276 282.118 129.244 282.105 129.266C286.023 127.7 291.152 123.431 295.801 118.102C296.151 117.7 296.301 117.119 296.651 116.707C306.152 105.465 315.204 90.6764 316.295 88.8869C316.276 88.8968 316.306 88.8688 316.295 88.8869C316.274 88.886 316.314 88.877 316.295 88.8869C316.277 88.8754 316.316 88.8878 316.295 88.8869C316.285 88.8679 316.313 88.8984 316.295 88.8869C316.919 90.1033 320.335 97.1285 324.751 105.141C325.045 105.675 325.614 106.46 325.915 106.999C331.875 117.736 339.133 129.444 342.821 132.616C342.875 132.662 343.157 133.191 343.209 133.235C343.202 133.22 343.222 133.245 343.209 133.235C343.217 133.25 343.208 133.218 343.209 133.235C343.21 133.251 343.215 133.219 343.209 133.235C343.203 133.25 343.221 133.223 343.209 133.235C341.194 135.314 333.065 133.554 333.065 133.554C333.065 133.554 333.063 133.522 333.065 133.554C333.1 134.405 333.48 135.632 334.385 137.038C334.463 137.164 334.689 137.525 334.772 137.657C334.855 137.79 335.05 138.139 335.16 138.276C335.282 138.47 335.408 138.701 335.548 138.895C338.95 143.592 345.353 149.252 347.951 151.816C348.432 152.289 348.518 152.85 348.726 153.055C348.744 153.07 348.721 153.031 348.726 153.055C348.732 153.078 348.735 153.032 348.726 153.055C348.718 153.077 348.746 153.041 348.726 153.055C348.707 153.068 348.75 153.055 348.726 153.055C347.346 153.096 341.463 153.204 338.426 151.748C338.298 151.686 338.008 151.204 338.426 151.748C341.095 155.088 352.965 168.933 354.706 170.86C354.724 170.878 354.703 170.836 354.706 170.86C354.71 170.885 354.718 170.838 354.706 170.86C354.695 170.882 354.729 170.849 354.706 170.86C354.684 170.872 354.731 170.864 354.706 170.86C353.693 170.739 350.227 170.547 342.392 169.091C342.367 169.086 342.414 169.081 342.392 169.091C342.369 169.101 342.404 169.07 342.392 169.091C342.379 169.112 342.39 169.066 342.392 169.091C342.394 169.116 342.376 169.072 342.392 169.091C345.686 172.967 353.534 182.211 363.632 191.993C363.573 191.938 363.691 192.048 363.632 191.993C363.648 192.009 363.627 191.972 363.632 191.993C363.638 192.015 364.027 192.591 364.02 192.612C364.013 192.633 364.037 192.598 364.02 192.612C364.003 192.627 364.042 192.609 364.02 192.612C359.185 193.339 353.049 191.976 351.474 191.85C351.449 191.847 351.496 191.837 351.474 191.85C351.452 191.863 350.865 192.214 350.855 192.238C350.845 192.261 350.849 192.213 350.855 192.238C350.86 192.262 350.836 192.221 350.855 192.238C352.395 193.602 360.454 201.022 368.217 208.948C368.216 208.928 368.229 208.966 368.217 208.948C368.227 208.93 368.219 208.969 368.217 208.948C368.235 208.937 368.208 208.967 368.217 208.948C368.238 208.947 368.2 208.96 368.217 208.948Z" fill="url(#paint0_radial_249_5)" fill-opacity="0.06" style="mix-blend-mode:plus-lighter"/>
<path d="M319.929 82.301L316.37 86.2539L316.902 74.7147L319.929 82.301Z" fill="white"/>
<path d="M315.75 86.6417L304.518 82.4706L307.77 82.1577L315.75 86.6417Z" fill="white"/>
<path d="M322.568 89.2682L323.351 97.3987L316.377 93.1461L316.37 86.2539L328.604 83.7641L322.568 89.2682Z" fill="white"/>
<path d="M316.37 86.2539L315.37 92.9148L307.784 95.9422L316.37 86.2539Z" fill="white"/>
<path d="M323.351 97.3987L316.377 93.1461L316.37 86.2539L322.568 89.2682L323.351 97.3987Z" fill="white"/>
<path d="M292.216 129.922L292.026 129.967L292.057 129.948L292.216 129.83L292.268 129.913L292.211 129.925L292.216 129.922Z" fill="white"/>
<path d="M322.343 89.3655L323.244 97.5661L316.122 93.2555L308.532 96.6799L308.543 96.6297L310.434 88.5749L304.895 82.4835L304.835 82.4168L308.31 82.1261L313.132 81.7195L317.263 74.4885L320.489 82.1609L320.633 82.1902L328.572 83.8362L328.639 83.8496L322.337 89.2924L322.343 89.3655Z" fill="white"/>
</g>
<g style="mix-blend-mode:plus-lighter" opacity="0.12" clip-path="url(#clip1_249_5)" filter="url(#filter1_f_249_5)">
<path d="M167.893 189.974L172.026 219.937C172.086 220.306 172.204 220.639 172.026 220.97C171.848 221.301 171.335 221.848 170.993 222.003L169.443 222.52C164.073 224.956 158.244 225.614 152.395 225.103L150.846 224.586C150.473 224.553 150.086 224.84 149.812 224.586C149.539 224.333 148.84 223.922 148.779 223.553L144.647 193.591C144.574 193.147 144.384 192.925 144.647 192.557C144.909 192.19 145.236 191.601 145.68 191.524L165.31 188.425C165.531 188.386 166.126 188.375 166.344 188.425C166.561 188.474 166.679 188.812 166.86 188.941C167.041 189.07 167.26 189.269 167.377 189.458C167.494 189.647 167.858 189.754 167.893 189.974Z" fill="white"/>
<path d="M240.733 180.159C214.995 185.038 206.08 182.31 204.055 181.709C204.021 181.698 203.572 182.215 203.538 182.225C203.504 182.236 203.559 182.197 203.538 182.225C203.517 182.254 203.539 182.19 203.538 182.225C203.537 182.261 203.518 182.196 203.538 182.225C204.318 183.451 206.998 187.568 211.287 195.14C211.301 195.166 211.287 195.111 211.287 195.14C211.287 195.17 210.784 195.631 210.77 195.657C210.757 195.683 210.795 195.641 210.77 195.657C210.746 195.673 210.8 195.655 210.77 195.657C198.336 196.446 183.21 190.488 180.808 189.458C180.779 189.445 180.839 189.453 180.808 189.458C180.776 189.462 180.832 189.437 180.808 189.458C180.784 189.478 180.818 189.428 180.808 189.458C180.798 189.488 180.8 189.427 180.808 189.458L184.424 204.439C184.431 204.468 184.432 204.411 184.424 204.439C184.416 204.468 184.445 204.418 184.424 204.439C184.403 204.46 184.452 204.431 184.424 204.439C184.395 204.447 183.936 204.963 183.907 204.956C181.448 204.256 163.696 199.046 155.495 194.107C155.456 194.084 155.538 194.096 155.495 194.107C155.451 194.118 155.518 194.068 155.495 194.107C149.878 203.678 136.398 211.764 134.831 212.705C134.811 212.717 134.854 212.701 134.831 212.705C134.808 212.708 134.853 212.71 134.831 212.705C134.808 212.699 134.849 212.719 134.831 212.705C134.842 212.725 134.812 212.691 134.831 212.705C134.314 211.763 131.073 206.291 130.181 196.69C130.2 196.716 130.179 196.658 130.181 196.69C130.163 196.664 130.211 196.702 130.181 196.69C130.152 196.678 130.213 196.685 130.181 196.69C130.15 196.695 130.205 196.669 130.181 196.69C123.499 202.577 105.311 211.48 102.802 212.705C102.774 212.719 102.833 212.707 102.802 212.705C102.771 212.702 102.827 212.723 102.802 212.705C102.813 212.734 102.777 212.686 102.802 212.705C102.796 212.735 102.79 212.675 102.802 212.705L105.385 196.69C105.397 196.718 105.388 196.66 105.385 196.69C105.409 196.708 105.372 196.663 105.385 196.69C105.36 196.672 105.415 196.693 105.385 196.69C105.355 196.687 104.896 197.194 104.868 197.207C102.112 198.273 79.2693 206.654 70.7729 206.505C70.7469 206.505 70.7962 206.517 70.7729 206.505C70.7497 206.494 70.7887 206.526 70.7729 206.505C70.778 206.531 70.7572 206.485 70.7729 206.505C70.7662 206.531 70.7679 206.48 70.7729 206.505C70.7551 206.523 70.7801 206.481 70.7729 206.505C70.7487 206.513 70.7908 206.488 70.7729 206.505C73.07 205.419 76.0553 203.353 78.5219 200.823C87.3511 191.72 95.5765 175.908 96.0861 174.993C94.7831 175.712 89.3583 178.974 83.6878 180.159C81.0822 180.696 78.4054 180.114 75.9389 179.642C75.9056 179.636 75.9631 179.666 75.9389 179.642C75.9457 179.676 75.9147 179.619 75.9389 179.642C75.9261 179.674 75.932 179.609 75.9389 179.642C75.9107 179.661 75.9517 179.611 75.9389 179.642C76.4259 179.325 77.0418 178.464 77.4887 178.093C85.2224 171.749 99.4203 152.047 103.835 145.547L105.385 142.964C105.246 143.003 94.8115 145.862 85.7542 146.064C85.718 146.065 85.7841 146.084 85.7542 146.064C85.7663 146.098 85.7243 146.043 85.7542 146.064C85.7438 146.098 85.7421 146.03 85.7542 146.064C85.7253 146.085 85.7646 146.029 85.7542 146.064C93.0771 140.241 102.394 123.597 104.352 120.234C104.357 120.271 104.371 120.201 104.352 120.234C104.378 120.261 104.347 120.197 104.352 120.234C104.325 120.207 104.389 120.239 104.352 120.234C104.314 120.229 104.384 120.215 104.352 120.234C102.999 121.018 99.2889 122.905 90.9202 124.367C90.8821 124.373 90.9541 124.385 90.9202 124.367C90.9352 124.402 90.8862 124.348 90.9202 124.367C90.9051 124.331 90.3931 123.887 90.4036 123.85C90.3722 123.873 90.414 123.813 90.4036 123.85C96.8928 119.493 105.493 103.975 109.001 96.9872C109.44 96.1114 109.778 95.4295 110.034 94.9208L111.067 93.8876C110.788 94.0685 109.828 94.2828 109.518 94.4042C107.794 95.0745 104.069 96.2315 96.0861 96.4706C96.0494 96.4718 96.1164 96.4915 96.0861 96.4706C96.098 96.5054 96.0559 96.4496 96.0861 96.4706C96.0749 96.5055 96.0742 96.4358 96.0861 96.4706C96.0563 96.4918 96.0973 96.4357 96.0861 96.4706C101.024 93.0547 105.814 84.6868 110.551 75.8068C110.908 75.1373 111.23 74.4238 111.584 73.7404C121.152 55.1063 129.244 32.1462 130.181 29.3132C130.158 29.3329 130.192 29.2844 130.181 29.3132C130.151 29.3187 130.205 29.2934 130.181 29.3132C130.153 29.303 130.211 29.3077 130.181 29.3132C130.161 29.29 130.21 29.3234 130.181 29.3132C131.44 30.8077 137.992 39.1964 146.712 48.9438C147.292 49.5929 148.187 50.3558 148.779 51.0102C160.522 64.0578 174.661 78.7606 180.808 82.0059C180.897 82.0534 181.238 82.4776 181.324 82.5225C181.309 82.5046 181.346 82.5326 181.324 82.5225C181.34 82.5404 181.318 82.4999 181.324 82.5225C181.331 82.5451 181.327 82.4992 181.324 82.5225C181.321 82.5458 181.337 82.5025 181.324 82.5225C179.196 86.0508 167.376 86.1387 167.376 86.1387C167.376 86.1387 167.363 86.094 167.376 86.1387C167.7 87.3105 169.282 89.119 170.992 90.788C171.143 90.9381 171.351 91.1467 171.509 91.3046C171.667 91.4626 171.828 91.6658 172.026 91.8212C172.257 92.0529 172.284 92.1114 172.542 92.3378C178.784 97.7941 189.286 103.541 193.723 106.286C194.543 106.792 194.917 107.617 195.272 107.836C195.302 107.852 195.257 107.805 195.272 107.836C195.288 107.866 195.794 108.319 195.789 108.352C195.785 108.386 195.812 108.327 195.789 108.352C195.766 108.377 195.822 108.345 195.789 108.352C193.884 108.846 185.497 110.967 180.808 109.902C180.611 109.857 180.569 109.794 181.324 110.419C186.11 114.22 207.213 128.953 210.254 131.082C210.283 131.102 210.241 131.049 210.254 131.082C210.266 131.116 210.263 131.048 210.254 131.082C210.245 131.117 210.281 131.06 210.254 131.082C210.227 131.105 210.289 131.08 210.254 131.082C208.808 131.234 203.527 132.181 192.173 132.632C192.138 132.633 192.201 132.611 192.173 132.632C192.145 132.654 192.183 132.599 192.173 132.632C192.162 132.666 192.679 133.115 192.689 133.149C192.7 133.183 192.661 133.128 192.689 133.149C198.516 137.499 211.667 146.5 228.851 156.912C228.951 156.97 229.268 157.371 229.368 157.429C229.395 157.445 229.353 157.4 229.368 157.429C229.382 157.457 229.37 157.397 229.368 157.429C229.365 157.46 229.387 157.403 229.368 157.429C229.349 157.454 228.881 157.934 228.851 157.945C222.37 160.483 214.032 161.239 211.804 161.562C211.768 161.566 211.83 161.537 211.804 161.562C211.777 161.587 211.81 161.526 211.804 161.562C211.797 161.597 212.304 162.046 212.32 162.078C212.336 162.111 212.288 162.061 212.32 162.078C214.899 163.49 227.908 171.072 241.249 179.642C241.271 179.663 241.241 179.614 241.249 179.642C241.258 179.671 241.256 179.614 241.249 179.642C241.243 179.671 241.269 179.621 241.249 179.642C241.23 179.664 240.761 180.15 240.733 180.159Z" fill="white"/>
<path d="M240.733 180.159C214.995 185.038 206.08 182.31 204.055 181.709C204.021 181.698 203.572 182.215 203.538 182.225C203.504 182.236 203.559 182.197 203.538 182.225C203.517 182.254 203.539 182.19 203.538 182.225C203.537 182.261 203.518 182.196 203.538 182.225C204.318 183.451 206.998 187.568 211.287 195.14C211.301 195.166 211.287 195.111 211.287 195.14C211.287 195.17 210.784 195.631 210.77 195.657C210.757 195.683 210.795 195.641 210.77 195.657C210.746 195.673 210.8 195.655 210.77 195.657C198.336 196.446 183.21 190.488 180.808 189.458C180.779 189.445 180.839 189.453 180.808 189.458C180.776 189.462 180.832 189.437 180.808 189.458C180.784 189.478 180.818 189.428 180.808 189.458C180.798 189.488 180.8 189.427 180.808 189.458L184.424 204.439C184.431 204.468 184.432 204.411 184.424 204.439C184.416 204.468 184.445 204.418 184.424 204.439C184.403 204.46 184.452 204.431 184.424 204.439C184.395 204.447 183.936 204.963 183.907 204.956C181.448 204.256 163.696 199.046 155.495 194.107C155.456 194.084 155.538 194.096 155.495 194.107C155.451 194.118 155.518 194.068 155.495 194.107C149.878 203.678 136.398 211.764 134.831 212.705C134.811 212.717 134.854 212.701 134.831 212.705C134.808 212.708 134.853 212.71 134.831 212.705C134.808 212.699 134.849 212.719 134.831 212.705C134.842 212.725 134.812 212.691 134.831 212.705C134.314 211.763 131.073 206.291 130.181 196.69C130.2 196.716 130.179 196.658 130.181 196.69C130.163 196.664 130.211 196.702 130.181 196.69C130.152 196.678 130.213 196.685 130.181 196.69C130.15 196.695 130.205 196.669 130.181 196.69C123.499 202.577 105.311 211.48 102.802 212.705C102.774 212.719 102.833 212.707 102.802 212.705C102.771 212.702 102.827 212.723 102.802 212.705C102.813 212.734 102.777 212.686 102.802 212.705C102.796 212.735 102.79 212.675 102.802 212.705L105.385 196.69C105.397 196.718 105.388 196.66 105.385 196.69C105.409 196.708 105.372 196.663 105.385 196.69C105.36 196.672 105.415 196.693 105.385 196.69C105.355 196.687 104.896 197.194 104.868 197.207C102.112 198.273 79.2693 206.654 70.7729 206.505C70.7469 206.505 70.7962 206.517 70.7729 206.505C70.7497 206.494 70.7887 206.526 70.7729 206.505C70.778 206.531 70.7572 206.485 70.7729 206.505C70.7662 206.531 70.7679 206.48 70.7729 206.505C70.7551 206.523 70.7801 206.481 70.7729 206.505C70.7487 206.513 70.7908 206.488 70.7729 206.505C73.07 205.419 76.0553 203.353 78.5219 200.823C87.3511 191.72 95.5765 175.908 96.0861 174.993C94.7831 175.712 89.3583 178.974 83.6878 180.159C81.0822 180.696 78.4054 180.114 75.9389 179.642C75.9056 179.636 75.9631 179.666 75.9389 179.642C75.9457 179.676 75.9147 179.619 75.9389 179.642C75.9261 179.674 75.932 179.609 75.9389 179.642C75.9107 179.661 75.9517 179.611 75.9389 179.642C76.4259 179.325 77.0418 178.464 77.4887 178.093C85.2224 171.749 99.4203 152.047 103.835 145.547L105.385 142.964C105.246 143.003 94.8115 145.862 85.7542 146.064C85.718 146.065 85.7841 146.084 85.7542 146.064C85.7663 146.098 85.7243 146.043 85.7542 146.064C85.7438 146.098 85.7421 146.03 85.7542 146.064C85.7253 146.085 85.7646 146.029 85.7542 146.064C93.0771 140.241 102.394 123.597 104.352 120.234C104.357 120.271 104.371 120.201 104.352 120.234C104.378 120.261 104.347 120.197 104.352 120.234C104.325 120.207 104.389 120.239 104.352 120.234C104.314 120.229 104.384 120.215 104.352 120.234C102.999 121.018 99.2889 122.905 90.9202 124.367C90.8821 124.373 90.9541 124.385 90.9202 124.367C90.9352 124.402 90.8862 124.348 90.9202 124.367C90.9051 124.331 90.3931 123.887 90.4036 123.85C90.3722 123.873 90.414 123.813 90.4036 123.85C96.8928 119.493 105.493 103.975 109.001 96.9872C109.44 96.1114 109.778 95.4295 110.034 94.9208L111.067 93.8876C110.788 94.0685 109.828 94.2828 109.518 94.4042C107.794 95.0745 104.069 96.2315 96.0861 96.4706C96.0494 96.4718 96.1164 96.4915 96.0861 96.4706C96.098 96.5054 96.0559 96.4496 96.0861 96.4706C96.0749 96.5055 96.0742 96.4358 96.0861 96.4706C96.0563 96.4918 96.0973 96.4357 96.0861 96.4706C101.024 93.0547 105.814 84.6868 110.551 75.8068C110.908 75.1373 111.23 74.4238 111.584 73.7404C121.152 55.1063 129.244 32.1462 130.181 29.3132C130.158 29.3329 130.192 29.2844 130.181 29.3132C130.151 29.3187 130.205 29.2934 130.181 29.3132C130.153 29.303 130.211 29.3077 130.181 29.3132C130.161 29.29 130.21 29.3234 130.181 29.3132C131.44 30.8077 137.992 39.1964 146.712 48.9438C147.292 49.5929 148.187 50.3558 148.779 51.0102C160.522 64.0578 174.661 78.7606 180.808 82.0059C180.897 82.0534 181.238 82.4776 181.324 82.5225C181.309 82.5046 181.346 82.5326 181.324 82.5225C181.34 82.5404 181.318 82.4999 181.324 82.5225C181.331 82.5451 181.327 82.4992 181.324 82.5225C181.321 82.5458 181.337 82.5025 181.324 82.5225C179.196 86.0508 167.376 86.1387 167.376 86.1387C167.376 86.1387 167.363 86.094 167.376 86.1387C167.7 87.3105 169.282 89.119 170.992 90.788C171.143 90.9381 171.351 91.1467 171.509 91.3046C171.667 91.4626 171.828 91.6658 172.026 91.8212C172.257 92.0529 172.284 92.1114 172.542 92.3378C178.784 97.7941 189.286 103.541 193.723 106.286C194.543 106.792 194.917 107.617 195.272 107.836C195.302 107.852 195.257 107.805 195.272 107.836C195.288 107.866 195.794 108.319 195.789 108.352C195.785 108.386 195.812 108.327 195.789 108.352C195.766 108.377 195.822 108.345 195.789 108.352C193.884 108.846 185.497 110.967 180.808 109.902C180.611 109.857 180.569 109.794 181.324 110.419C186.11 114.22 207.213 128.953 210.254 131.082C210.283 131.102 210.241 131.049 210.254 131.082C210.266 131.116 210.263 131.048 210.254 131.082C210.245 131.117 210.281 131.06 210.254 131.082C210.227 131.105 210.289 131.08 210.254 131.082C208.808 131.234 203.527 132.181 192.173 132.632C192.138 132.633 192.201 132.611 192.173 132.632C192.145 132.654 192.183 132.599 192.173 132.632C192.162 132.666 192.679 133.115 192.689 133.149C192.7 133.183 192.661 133.128 192.689 133.149C198.516 137.499 211.667 146.5 228.851 156.912C228.951 156.97 229.268 157.371 229.368 157.429C229.395 157.445 229.353 157.4 229.368 157.429C229.382 157.457 229.37 157.397 229.368 157.429C229.365 157.46 229.387 157.403 229.368 157.429C229.349 157.454 228.881 157.934 228.851 157.945C222.37 160.483 214.032 161.239 211.804 161.562C211.768 161.566 211.83 161.537 211.804 161.562C211.777 161.587 211.81 161.526 211.804 161.562C211.797 161.597 212.304 162.046 212.32 162.078C212.336 162.111 212.288 162.061 212.32 162.078C214.899 163.49 227.908 171.072 241.249 179.642C241.271 179.663 241.241 179.614 241.249 179.642C241.258 179.671 241.256 179.614 241.249 179.642C241.243 179.671 241.269 179.621 241.249 179.642C241.23 179.664 240.761 180.15 240.733 180.159Z" fill="url(#paint1_radial_249_5)" fill-opacity="0.06" style="mix-blend-mode:plus-lighter"/>
<path d="M134.314 18.9813L130.182 26.2136L127.082 8.64938L134.314 18.9813Z" fill="white"/>
<path d="M129.666 25.697L112.102 23.6306L116.751 22.0808L129.666 25.697Z" fill="white"/>
<path d="M138.965 27.7635L143.097 39.1286L131.216 35.5124L130.183 26.2137L146.197 18.4647L138.965 27.7635Z" fill="white"/>
<path d="M129.665 26.7302L131.215 35.5124L121.916 42.7447L129.665 26.7302Z" fill="white"/>
<path d="M142.581 39.6452L131.216 35.5124L129.666 26.7303L138.448 28.2801L142.581 39.6452Z" fill="white"/>
<path d="M108.75 94.2965L108.5 94.4201L108.537 94.3833L108.721 94.1678L108.821 94.2676L108.745 94.3018L108.75 94.2965Z" fill="white"/>
<path d="M138.868 27.8163L142.765 38.9432L131.473 35.2014L122.022 42.3731L122.022 42.2995L122.055 30.4905L112.39 23.7689L112.285 23.6951L117.023 22.1892L123.596 20.095L127.01 8.72232L133.968 18.3774L134.178 18.3725L145.748 18.1467L145.845 18.1443L138.837 27.7164L138.868 27.8163Z" fill="white"/>
</g>
<defs>
<filter id="filter0_f_249_5" x="202.706" y="64.3001" width="201.074" height="204.313" filterUnits="userSpaceOnUse" color-interpolation-filters="sRGB">
<feFlood flood-opacity="0" result="BackgroundImageFix"/>
<feBlend mode="normal" in="SourceGraphic" in2="BackgroundImageFix" result="shape"/>
<feGaussianBlur stdDeviation="3.85" result="effect1_foregroundBlur_249_5"/>
</filter>
<filter id="filter1_f_249_5" x="-7.7" y="-3.69988" width="289.712" height="289.712" filterUnits="userSpaceOnUse" color-interpolation-filters="sRGB">
<feFlood flood-opacity="0" result="BackgroundImageFix"/>
<feBlend mode="normal" in="SourceGraphic" in2="BackgroundImageFix" result="shape"/>
<feGaussianBlur stdDeviation="3.85" result="effect1_foregroundBlur_249_5"/>
</filter>
<radialGradient id="paint0_radial_249_5" cx="0" cy="0" r="1" gradientUnits="userSpaceOnUse" gradientTransform="translate(283.167 143.156) rotate(136.778) scale(53.5596 54.6764)">
<stop stop-color="white"/>
<stop offset="1" stop-color="white" stop-opacity="0"/>
</radialGradient>
<radialGradient id="paint1_radial_249_5" cx="0" cy="0" r="1" gradientUnits="userSpaceOnUse" gradientTransform="translate(101.684 115.235) rotate(123.784) scale(76.1952 78.1387)">
<stop stop-color="white"/>
<stop offset="1" stop-color="white" stop-opacity="0"/>
</radialGradient>
<clipPath id="clip0_249_5">
<rect width="130.773" height="141.001" fill="white" transform="translate(210.406 141.416) rotate(-32.06)"/>
</clipPath>
<clipPath id="clip1_249_5">
<rect width="186.297" height="201.639" fill="white" transform="translate(0 135.732) rotate(-45)"/>
</clipPath>
</defs>
</svg>
