<svg width="115" height="415" viewBox="0 0 115 415" fill="none" xmlns="http://www.w3.org/2000/svg">
<g clip-path="url(#clip0_153_920)">
<path d="M112.483 409.699C95.7311 405.028 80.8635 401.265 71.4827 391.699C67.9369 388.063 68.7213 380.175 65.4827 379.699C65.3989 375.392 63.9573 374.909 63.4827 372.699C61.6679 363.581 59.9343 287.607 69.4827 272.699C69.6781 272.392 68.5715 270.378 67.4827 268.699C69.6324 265.958 70.5106 262.671 70.4827 258.699C70.4547 255.203 69.2416 251.245 67.4827 248.699C68.5994 247.049 70.7618 244.035 70.4827 243.699C60.2921 231.477 66.2948 219.37 70.4827 214.699C87.0388 196.212 101.13 207.463 99.4827 148.699C98.9801 130.24 93.4827 0.699341 93.4827 0.699341H21.4827C21.4827 0.699341 15.9852 130.24 15.4827 148.699C13.8075 208.442 29.2057 197.156 45.4827 215.699C49.6985 220.482 53.4447 231.924 44.4827 243.699C44.2035 244.035 46.3659 247.049 47.4827 248.699C45.7237 251.245 44.5106 255.175 44.4827 258.699C44.4547 262.671 45.3329 265.958 47.4827 268.699C46.3938 270.405 45.2872 272.42 45.4827 272.699C55.6173 287.159 53.3532 363.777 51.4827 372.699C51.0359 374.909 49.5664 375.868 49.4827 379.699C46.2719 380.175 47.0284 387.532 43.4827 391.699C34.5764 402.188 19.2342 405.028 2.48266 409.699C1.50548 409.783 0.510575 410.273 0.482656 411.699C0.426817 413.182 1.44964 414.699 2.48266 414.699H112.483C113.516 414.699 114.538 413.182 114.483 411.699C114.427 410.301 113.46 409.811 112.483 409.699Z" fill="#FFFFFC"/>
<path d="M96.482 46.6993H19.482C17.7154 85.8154 15.7905 137.543 15.482 148.699C13.7995 208.422 29.1619 197.162 45.482 215.699C49.7163 220.48 67.2758 219.397 71.482 214.699C88.1107 196.218 102.136 207.443 100.482 148.699C100.174 137.543 98.2206 85.8154 96.482 46.6993Z" fill="#FCE465"/>
<g filter="url(#filter0_f_153_920)">
<circle cx="37.9824" cy="71.1995" r="5.5" fill="#FEFEF3"/>
</g>
<g filter="url(#filter1_f_153_920)">
<circle cx="54.9824" cy="62.1993" r="3.5" fill="#FEFEF3"/>
</g>
<g filter="url(#filter2_f_153_920)">
<circle cx="78.4824" cy="173.699" r="3" fill="#FEFEF3"/>
</g>
<g filter="url(#filter3_f_153_920)">
<circle cx="40.4824" cy="138.699" r="3" fill="#FEFEF3"/>
</g>
<g filter="url(#filter4_f_153_920)">
<circle cx="77.9824" cy="96.1993" r="3.5" fill="#FEFEF3"/>
</g>
<g filter="url(#filter5_f_153_920)">
<circle cx="58.9824" cy="92.1993" r="3.5" fill="#FEFEF3"/>
</g>
<g filter="url(#filter6_f_153_920)">
<circle cx="73.9824" cy="74.1995" r="2.5" fill="#FEFEF3"/>
</g>
<g filter="url(#filter7_f_153_920)">
<circle cx="66.9824" cy="124.199" r="4.5" fill="#FEFEF3"/>
</g>
<g filter="url(#filter8_f_153_920)">
<circle cx="37.9824" cy="109.199" r="4.5" fill="#FEFEF3"/>
</g>
<g filter="url(#filter9_f_153_920)">
<circle cx="59.4824" cy="154.699" r="5" fill="#FEFEF3"/>
</g>
<g filter="url(#filter10_f_153_920)">
<circle cx="41.9824" cy="183.199" r="3.5" fill="#FEFEF3"/>
</g>
<g opacity="0.52">
<g filter="url(#filter11_f_153_920)">
<path d="M40.482 148.699C40.6805 130.251 43.482 0.699341 43.482 0.699341L29.482 0.699341C29.482 0.699341 24.879 130.251 24.482 148.699C23.206 208.404 35.0906 196.168 47.482 214.699C50.6862 219.479 54.0699 219.479 52.482 214.699C46.2721 196.14 39.8298 208.404 40.482 148.699Z" fill="#FEFEFF"/>
</g>
<g filter="url(#filter12_f_153_920)">
<path d="M83.4821 0.699341L70.4821 0.699341C70.4821 0.699341 72.2881 130.263 72.4821 148.699C73.0919 207.389 67.663 196.235 61.4821 214.699C59.9023 219.364 63.3501 219.364 66.4821 214.699C78.8161 196.235 89.7017 207.389 88.4821 148.699C88.0941 130.263 83.4821 0.699341 83.4821 0.699341Z" fill="#FEFEFF"/>
</g>
</g>
</g>
<defs>
<filter id="filter0_f_153_920" x="30.4824" y="63.6995" width="15" height="15" filterUnits="userSpaceOnUse" color-interpolation-filters="sRGB">
<feFlood flood-opacity="0" result="BackgroundImageFix"/>
<feBlend mode="normal" in="SourceGraphic" in2="BackgroundImageFix" result="shape"/>
<feGaussianBlur stdDeviation="1" result="effect1_foregroundBlur_153_920"/>
</filter>
<filter id="filter1_f_153_920" x="49.4824" y="56.6993" width="11" height="11" filterUnits="userSpaceOnUse" color-interpolation-filters="sRGB">
<feFlood flood-opacity="0" result="BackgroundImageFix"/>
<feBlend mode="normal" in="SourceGraphic" in2="BackgroundImageFix" result="shape"/>
<feGaussianBlur stdDeviation="1" result="effect1_foregroundBlur_153_920"/>
</filter>
<filter id="filter2_f_153_920" x="73.4824" y="168.699" width="10" height="10" filterUnits="userSpaceOnUse" color-interpolation-filters="sRGB">
<feFlood flood-opacity="0" result="BackgroundImageFix"/>
<feBlend mode="normal" in="SourceGraphic" in2="BackgroundImageFix" result="shape"/>
<feGaussianBlur stdDeviation="1" result="effect1_foregroundBlur_153_920"/>
</filter>
<filter id="filter3_f_153_920" x="35.4824" y="133.699" width="10" height="10" filterUnits="userSpaceOnUse" color-interpolation-filters="sRGB">
<feFlood flood-opacity="0" result="BackgroundImageFix"/>
<feBlend mode="normal" in="SourceGraphic" in2="BackgroundImageFix" result="shape"/>
<feGaussianBlur stdDeviation="1" result="effect1_foregroundBlur_153_920"/>
</filter>
<filter id="filter4_f_153_920" x="72.4824" y="90.6993" width="11" height="11" filterUnits="userSpaceOnUse" color-interpolation-filters="sRGB">
<feFlood flood-opacity="0" result="BackgroundImageFix"/>
<feBlend mode="normal" in="SourceGraphic" in2="BackgroundImageFix" result="shape"/>
<feGaussianBlur stdDeviation="1" result="effect1_foregroundBlur_153_920"/>
</filter>
<filter id="filter5_f_153_920" x="53.4824" y="86.6993" width="11" height="11" filterUnits="userSpaceOnUse" color-interpolation-filters="sRGB">
<feFlood flood-opacity="0" result="BackgroundImageFix"/>
<feBlend mode="normal" in="SourceGraphic" in2="BackgroundImageFix" result="shape"/>
<feGaussianBlur stdDeviation="1" result="effect1_foregroundBlur_153_920"/>
</filter>
<filter id="filter6_f_153_920" x="69.4824" y="69.6995" width="9" height="9" filterUnits="userSpaceOnUse" color-interpolation-filters="sRGB">
<feFlood flood-opacity="0" result="BackgroundImageFix"/>
<feBlend mode="normal" in="SourceGraphic" in2="BackgroundImageFix" result="shape"/>
<feGaussianBlur stdDeviation="1" result="effect1_foregroundBlur_153_920"/>
</filter>
<filter id="filter7_f_153_920" x="60.4824" y="117.699" width="13" height="13" filterUnits="userSpaceOnUse" color-interpolation-filters="sRGB">
<feFlood flood-opacity="0" result="BackgroundImageFix"/>
<feBlend mode="normal" in="SourceGraphic" in2="BackgroundImageFix" result="shape"/>
<feGaussianBlur stdDeviation="1" result="effect1_foregroundBlur_153_920"/>
</filter>
<filter id="filter8_f_153_920" x="31.4824" y="102.699" width="13" height="13" filterUnits="userSpaceOnUse" color-interpolation-filters="sRGB">
<feFlood flood-opacity="0" result="BackgroundImageFix"/>
<feBlend mode="normal" in="SourceGraphic" in2="BackgroundImageFix" result="shape"/>
<feGaussianBlur stdDeviation="1" result="effect1_foregroundBlur_153_920"/>
</filter>
<filter id="filter9_f_153_920" x="52.4824" y="147.699" width="14" height="14" filterUnits="userSpaceOnUse" color-interpolation-filters="sRGB">
<feFlood flood-opacity="0" result="BackgroundImageFix"/>
<feBlend mode="normal" in="SourceGraphic" in2="BackgroundImageFix" result="shape"/>
<feGaussianBlur stdDeviation="1" result="effect1_foregroundBlur_153_920"/>
</filter>
<filter id="filter10_f_153_920" x="36.4824" y="177.699" width="11" height="11" filterUnits="userSpaceOnUse" color-interpolation-filters="sRGB">
<feFlood flood-opacity="0" result="BackgroundImageFix"/>
<feBlend mode="normal" in="SourceGraphic" in2="BackgroundImageFix" result="shape"/>
<feGaussianBlur stdDeviation="1" result="effect1_foregroundBlur_153_920"/>
</filter>
<filter id="filter11_f_153_920" x="9.3877" y="-14.3007" width="58.499" height="247.585" filterUnits="userSpaceOnUse" color-interpolation-filters="sRGB">
<feFlood flood-opacity="0" result="BackgroundImageFix"/>
<feBlend mode="normal" in="SourceGraphic" in2="BackgroundImageFix" result="shape"/>
<feGaussianBlur stdDeviation="7.5" result="effect1_foregroundBlur_153_920"/>
</filter>
<filter id="filter12_f_153_920" x="46.0859" y="-14.3007" width="57.4902" height="247.499" filterUnits="userSpaceOnUse" color-interpolation-filters="sRGB">
<feFlood flood-opacity="0" result="BackgroundImageFix"/>
<feBlend mode="normal" in="SourceGraphic" in2="BackgroundImageFix" result="shape"/>
<feGaussianBlur stdDeviation="7.5" result="effect1_foregroundBlur_153_920"/>
</filter>
<clipPath id="clip0_153_920">
<rect width="114" height="414" fill="white" transform="translate(0.482422 0.699341)"/>
</clipPath>
</defs>
</svg>
