<svg width="50" height="50" viewBox="0 0 50 50" fill="none" xmlns="http://www.w3.org/2000/svg">
<path d="M40.5703 0.00226907H9.42969C4.22238 0.00226907 0 4.27255 0 9.53894V40.4633C0 45.7297 4.22238 50 9.42969 50H40.5703C45.7776 50 50 45.7297 50 40.4633V9.53667C50 4.27028 45.7776 0 40.5703 0V0.00226907ZM25.3186 38.5642C18.2043 38.5642 12.4361 32.7305 12.4361 25.5355C12.4361 18.3404 18.2043 12.5068 25.3186 12.5068C32.4329 12.5068 38.2011 18.3404 38.2011 25.5355C38.2011 32.7305 32.4329 38.5642 25.3186 38.5642ZM42.2934 11.6151C40.3751 11.6151 38.8203 10.0427 38.8203 8.10265C38.8203 6.16264 40.3751 4.59022 42.2934 4.59022C44.2116 4.59022 45.7664 6.16264 45.7664 8.10265C45.7664 10.0427 44.2116 11.6151 42.2934 11.6151Z" fill="white"/>
</svg>
