<svg width="174" height="37" viewBox="0 0 174 37" fill="none" xmlns="http://www.w3.org/2000/svg">
<path d="M12.9538 28C9.08455 28 5.82447 26.7964 3.52711 24.5181C1.24125 22.253 0.0229005 19.0444 0.00102084 15.2409C-0.0438901 11.0454 1.39441 7.43448 4.04992 5.0756C6.29662 3.07964 9.34711 2.01613 12.872 2C12.9273 2 12.9837 2 13.039 2C20.8247 2 25.9112 7.09577 25.9976 14.9829C26.0655 19.1351 24.717 22.5645 22.0995 24.9012C19.8471 26.9113 16.7447 27.9829 13.1265 28C13.0678 28 13.0102 28 12.9526 28H12.9538ZM12.9135 2.17137C9.93671 2.20766 7.43897 3.52722 5.69089 5.9879C4.04876 8.29939 3.1563 11.5736 3.17703 15.2056C3.19891 18.8468 4.11556 21.9698 5.82908 24.2379C7.60364 26.5867 10.1048 27.8286 13.0632 27.8286H13.1277C15.3721 27.8145 17.324 27.0827 18.9281 25.6542C21.4558 23.4022 22.8745 19.5121 22.8215 14.9798C22.7789 11.3942 21.8508 8.16734 20.2075 5.89214C18.4479 3.45665 15.9686 2.16935 13.0356 2.16935C12.9941 2.16935 12.9538 2.16935 12.9135 2.16935V2.17137Z" fill="white"/>
<path d="M35.462 29C32.5297 29 29.3962 27.4355 29.3962 23.0447V13.2553C29.3962 11.6478 28.6356 10.8986 28 10.7126C29.3519 10.658 31.6213 10.2503 32.5308 9V23.1224C32.5308 26.3796 34.956 27.5395 37.2266 27.5395C38.5136 27.5395 39.8166 27.1728 40.8023 26.5351C41.8768 25.8385 42.4692 24.8886 42.4692 23.861V13.2553C42.4692 11.6478 41.7085 10.8986 41.0741 10.7126C42.4259 10.658 44.6953 10.2503 45.6049 9V24.482C45.6049 26.0896 46.3656 26.8387 47 27.0247C45.6481 27.0793 43.3787 27.487 42.4692 28.7373V25.3362L42.2497 25.2984C41.3447 27.4429 38.4897 29 35.462 29Z" fill="white"/>
<path d="M54.8172 28C53.5436 28 52.3656 27.5813 51.5036 26.8202C50.4419 25.8833 49.8801 24.4394 49.8801 22.6431V11.5427C49.8801 9.5927 48.7542 9.21415 48 9.18001V9.00529C49.8596 8.95408 52.1901 7.73811 52.7191 6H53.2191V9.0073H56.7107V9.178H53.2191V22.6431C53.2191 26.6204 55.2446 27.0501 56.115 27.0501C56.9855 27.0501 57.7712 26.6696 58 26.3412C57.8584 27.262 56.4552 28 54.816 28H54.8172Z" fill="white"/>
<path d="M70 28C72.0108 27.6871 73.0296 25.9872 73.0296 22.9357V7.06433C73.0296 4.01176 72.012 2.31285 70.0012 2H81.2504C85.3947 2 88.9092 3.38403 91.4142 6.00125C93.7265 8.41698 95 11.7328 95 15.3371C95 21.6407 91.0018 28 82.0706 28H70ZM80.2993 2.27235C78.7851 2.27235 76.252 2.17111 76.252 4.85514V25.1438C76.252 27.8279 78.7863 27.7266 80.2993 27.7266H82.0274C84.4997 27.7266 86.9814 26.4611 88.8368 24.0777C90.733 21.6397 91.7776 18.4687 91.7776 15.1498C91.7776 11.831 90.7447 8.63466 88.9454 6.25537C87.5352 4.39245 85.0033 2.27336 80.9478 2.27336H80.2993V2.27235Z" fill="white"/>
<path d="M96 28C97.95 27.6861 98.9381 25.9803 98.9381 22.9183V12.8891C98.9381 11.3347 98.18 10.6103 97.5466 10.4305C98.8939 10.3777 101.155 9.9835 102.062 8.77454V22.9183C102.062 25.9813 103.05 27.6861 105 28H96ZM99.9136 7.19071C98.4588 7.19071 97.5557 6.38 97.5557 5.07656C97.5557 3.77312 98.4814 3 99.9136 3C101.346 3 102.23 3.81478 102.23 5.07656C102.23 6.33835 101.321 7.19071 99.9136 7.19071Z" fill="white"/>
<path d="M113.754 37C108.884 37 105.033 35.3429 101.635 33.8818C99.1835 32.8271 97.0652 31.9153 95.1218 31.9153C95.0816 31.9153 95.0402 31.9153 95 31.9163C96.5781 31.0301 97.9991 30.5982 99.3313 30.5982C101.709 30.5982 103.646 31.9 105.697 33.2774C108.094 34.8875 110.812 36.7131 114.716 36.7131C120.337 36.7131 123.924 33.0527 123.924 30.5339C123.924 27.8486 120.131 27.8425 116.116 27.8374C111.962 27.8313 107.666 27.8251 107.666 24.7202C107.666 22.4147 109.982 20.9618 111.547 20.7056L111.828 20.6596L111.592 20.5208C109.652 19.3782 108.585 17.5588 108.585 15.3952C108.585 13.6115 109.34 11.9912 110.713 10.8343C112.133 9.63669 114.076 9.00468 116.334 9.00468C116.973 9.00468 117.66 9.06901 118.32 9.19153C118.775 9.24156 119.235 9.26606 119.696 9.26606C121.792 9.26606 123.85 8.74126 124.723 8C124.833 8.31039 124.808 8.56258 124.649 8.76781C124.281 9.2385 123.171 9.47639 121.347 9.47639C120.943 9.47639 120.494 9.46516 120.011 9.44168L119.957 9.63669C122.541 10.6404 124.083 12.7937 124.083 15.3942C124.083 19.1128 120.896 21.7092 116.334 21.7092C114.682 21.7092 113.147 21.3621 111.894 20.7045L111.874 20.6933L111.828 20.7015C110.553 20.9373 109.178 21.8368 109.178 23.057C109.178 24.9336 112.12 24.9336 115.232 24.9336H115.634C117.745 24.9336 120.139 24.9336 121.976 25.4798C124.011 26.0853 125 27.2799 125 29.1351C125 32.2962 122.006 36.998 113.754 36.998V37ZM116.333 9.17928C115 9.17928 113.87 9.77351 113.063 10.8977C112.265 12.0106 111.843 13.5656 111.843 15.3963C111.843 19.1271 113.605 21.5387 116.331 21.5387C119.057 21.5387 120.82 19.1281 120.82 15.3963C120.82 13.5656 120.398 12.0095 119.6 10.8977C118.794 9.77351 117.664 9.17928 116.331 9.17928H116.333Z" fill="white"/>
<path d="M125 28C126.95 27.6861 127.938 25.9803 127.938 22.9183V12.8891C127.938 11.3347 127.18 10.6103 126.548 10.4305C127.895 10.3777 130.156 9.9835 131.062 8.77454V22.9183C131.062 25.9813 132.05 27.6861 134 28H125.001H125ZM128.913 7.19071C127.458 7.19071 126.556 6.38 126.556 5.07656C126.556 3.77312 127.481 3 128.913 3C130.345 3 131.229 3.81478 131.229 5.07656C131.229 6.33835 130.32 7.19071 128.913 7.19071Z" fill="white"/>
<path d="M161.792 27.999C160.884 27.999 158.77 27.7088 158.77 25.0179V22.7909L158.536 22.7698C157.928 25.1384 156.167 27.9618 151.236 27.9618C148.938 27.9618 147.113 27.3825 145.959 26.2881L145.818 26.1545L145.82 26.1395L145.788 26.1063C145.025 25.3121 144.637 24.3342 144.637 23.2006C144.637 19.4424 148.964 18.2526 153.15 17.1019C155.349 16.4975 157.426 15.9262 158.685 14.9984L158.729 14.9663L158.725 14.9171C158.595 12.9762 158.121 11.5997 157.276 10.707C156.469 9.85459 155.322 9.43992 153.767 9.43992C151.94 9.43992 150.387 10.0203 149.808 10.9189C149.522 11.3617 149.338 12.0967 150.067 13.0887C149.859 14.2956 149.208 14.9331 148.184 14.9331C147.722 14.9331 147.305 14.7875 147.012 14.5245C146.645 14.1952 146.472 13.6921 146.513 13.0716V13.0084L146.557 12.8929L146.555 12.8728C146.34 10.458 144.696 8.77121 142.556 8.77121C142.091 8.77121 141.595 8.85254 141.16 9.00114L141.086 9.02624V22.6423C141.086 26.4768 142.854 27.0492 143.908 27.0492C144.712 27.0492 145.532 26.6716 145.756 26.3232L145.754 26.3443C145.632 27.2731 144.266 28 142.643 28C141.401 28 140.254 27.5813 139.414 26.8202C138.38 25.8834 137.832 24.4396 137.832 22.6433V11.5424C137.832 9.59253 136.735 9.214 136 9.17986V9.00516C137.812 8.95395 140.083 7.73803 140.599 6H141.086V8.86459L141.244 8.81539C141.728 8.66578 142.146 8.59851 142.599 8.59851C144.654 8.59851 146.254 9.98111 146.582 12.0384L146.643 12.422L146.81 12.0615C147.614 10.3114 150.003 9.26722 153.199 9.26722C154.902 9.26722 157.332 9.5594 159.245 10.951C161.088 12.2915 162.022 14.3387 162.022 17.0366V22.6795C162.022 24.9818 162.149 27.0492 163.667 27.0492C164.06 27.0492 164.608 26.9016 164.967 26.6174L165 26.6525C164.385 27.3142 163.239 27.999 161.791 27.999H161.792ZM158.594 15.7615C157.603 16.2364 156.318 16.5487 154.959 16.879C151.647 17.6853 147.892 18.598 147.892 22.2708C147.892 25.1163 150.185 27.3454 153.113 27.3454C155.23 27.3454 156.804 26.1957 157.793 23.9295C158.724 21.7949 158.771 19.4825 158.771 19.0408V15.6761L158.595 15.7605L158.594 15.7615Z" fill="white"/>
<path d="M165 28C166.95 27.6841 167.938 25.9687 167.938 22.8866V4.1402C167.938 2.57612 167.18 1.84724 166.547 1.6663C167.894 1.61314 170.155 1.2165 171.062 0V22.8866C171.062 25.9687 172.049 27.6851 174 28H165Z" fill="white"/>
</svg>
