<svg width="97" height="97" viewBox="0 0 97 97" fill="none" xmlns="http://www.w3.org/2000/svg">
<path d="M40.4167 0H48.5V8.08333H40.4167V0ZM40.4167 8.08333H48.5V16.1667H40.4167V8.08333ZM40.4167 16.1667H48.5V24.25H40.4167V16.1667ZM40.4167 24.25H48.5V32.3333H40.4167V24.25ZM40.4167 32.3333H48.5V40.4167H40.4167V32.3333ZM48.5 32.3333H56.5833V40.4167H48.5V32.3333ZM48.5 24.25H56.5833V32.3333H48.5V24.25ZM48.5 16.1667H56.5833V24.25H48.5V16.1667ZM48.5 8.08333H56.5833V16.1667H48.5V8.08333ZM48.5 0H56.5833V8.08333H48.5V0ZM40.4167 56.5833H48.5V64.6667H40.4167V56.5833ZM48.5 56.5833H56.5833V64.6667H48.5V56.5833ZM48.5 64.6667H56.5833V72.75H48.5V64.6667ZM48.5 72.75H56.5833V80.8333H48.5V72.75ZM48.5 80.8333H56.5833V88.9167H48.5V80.8333ZM48.5 88.9167H56.5833V97H48.5V88.9167ZM40.4167 88.9167H48.5V97H40.4167V88.9167ZM40.4167 80.8333H48.5V88.9167H40.4167V80.8333ZM40.4167 72.75H48.5V80.8333H40.4167V72.75ZM40.4167 64.6667H48.5V72.75H40.4167V64.6667ZM56.5833 40.4167H64.6667V48.5H56.5833V40.4167ZM56.5833 48.5H64.6667V56.5833H56.5833V48.5ZM64.6667 48.5H72.75V56.5833H64.6667V48.5ZM72.75 48.5H80.8333V56.5833H72.75V48.5ZM80.8333 48.5H88.9167V56.5833H80.8333V48.5ZM88.9167 48.5H97V56.5833H88.9167V48.5ZM88.9167 40.4167H97V48.5H88.9167V40.4167ZM80.8333 40.4167H88.9167V48.5H80.8333V40.4167ZM72.75 40.4167H80.8333V48.5H72.75V40.4167ZM64.6667 40.4167H72.75V48.5H64.6667V40.4167ZM32.3333 40.4167H40.4167V48.5H32.3333V40.4167ZM32.3333 48.5H40.4167V56.5833H32.3333V48.5ZM24.25 48.5H32.3333V56.5833H24.25V48.5ZM16.1667 48.5H24.25V56.5833H16.1667V48.5ZM8.08333 48.5H16.1667V56.5833H8.08333V48.5ZM8.08333 40.4167H16.1667V48.5H8.08333V40.4167ZM16.1667 40.4167H24.25V48.5H16.1667V40.4167ZM24.25 40.4167H32.3333V48.5H24.25V40.4167ZM0 40.4167H8.08333V48.5H0V40.4167ZM0 48.5H8.08333V56.5833H0V48.5Z" fill="white"/>
</svg>
