<svg width="138" height="138" viewBox="0 0 138 138" fill="none" xmlns="http://www.w3.org/2000/svg">
<path d="M57.5 57.5H69V69H57.5V57.5ZM57.5 69H69V80.5H57.5V69ZM69 69H80.5V80.5H69V69ZM57.5 23H69V34.5H57.5V23ZM69 23H80.5V34.5H69V23ZM69 11.5H80.5V23H69V11.5ZM57.5 11.5H69V23H57.5V11.5ZM57.5 0H69V11.5H57.5V0ZM69 0H80.5V11.5H69V0ZM46 11.5H57.5V23H46V11.5ZM80.5 11.5H92V23H80.5V11.5ZM103.5 69H115V80.5H103.5V69ZM115 69H126.5V80.5H115V69ZM126.5 69H138V80.5H126.5V69ZM126.5 57.5H138V69H126.5V57.5ZM115 57.5H126.5V69H115V57.5ZM103.5 57.5H115V69H103.5V57.5ZM115 46H126.5V57.5H115V46ZM115 80.5H126.5V92H115V80.5ZM69 103.5H80.5V115H69V103.5ZM69 115H80.5V126.5H69V115ZM69 126.5H80.5V138H69V126.5ZM57.5 126.5H69V138H57.5V126.5ZM57.5 115H69V126.5H57.5V115ZM57.5 103.5H69V115H57.5V103.5ZM80.5 115H92V126.5H80.5V115ZM23 57.5H34.5V69H23V57.5ZM11.5 57.5H23V69H11.5V57.5ZM11.5 69H23V80.5H11.5V69ZM23 69H34.5V80.5H23V69ZM11.5 46H23V57.5H11.5V46ZM11.5 80.5H23V92H11.5V80.5ZM0 57.5H11.5V69H0V57.5ZM0 69H11.5V80.5H0V69ZM69 57.5H80.5V69H69V57.5ZM34.5 34.5H46V46H34.5V34.5ZM34.5 46H46V57.5H34.5V46ZM34.5 80.5H46V92H34.5V80.5ZM34.5 92H46V103.5H34.5V92ZM46 92H57.5V103.5H46V92ZM80.5 92H92V103.5H80.5V92ZM92 92H103.5V103.5H92V92ZM92 46H103.5V57.5H92V46ZM80.5 34.5H92V46H80.5V34.5ZM46 34.5H57.5V46H46V34.5ZM92 34.5H103.5V46H92V34.5ZM103.5 23H115V34.5H103.5V23ZM115 23H126.5V34.5H115V23ZM103.5 11.5H115V23H103.5V11.5ZM92 23H103.5V34.5H92V23ZM103.5 34.5H115V46H103.5V34.5ZM23 23H34.5V34.5H23V23ZM34.5 23H46V34.5H34.5V23ZM23 34.5H34.5V46H23V34.5ZM23 11.5H34.5V23H23V11.5ZM11.5 23H23V34.5H11.5V23ZM23 92H34.5V103.5H23V92ZM34.5 103.5H46V115H34.5V103.5ZM23 103.5H34.5V115H23V103.5ZM11.5 103.5H23V115H11.5V103.5ZM23 115H34.5V126.5H23V115ZM92 103.5H103.5V115H92V103.5ZM103.5 92H115V103.5H103.5V92ZM103.5 103.5H115V115H103.5V103.5ZM115 103.5H126.5V115H115V103.5ZM103.5 115H115V126.5H103.5V115ZM92 80.5H103.5V92H92V80.5ZM46 115H57.5V126.5H46V115ZM34.5 57.5H46V69H34.5V57.5ZM34.5 69H46V80.5H34.5V69ZM57.5 92H69V103.5H57.5V92ZM69 92H80.5V103.5H69V92ZM92 69H103.5V80.5H92V69ZM92 57.5H103.5V69H92V57.5ZM69 34.5H80.5V46H69V34.5ZM57.5 34.5H69V46H57.5V34.5ZM46 46H57.5V57.5H46V46ZM80.5 46H92V57.5H80.5V46ZM80.5 80.5H92V92H80.5V80.5ZM46 80.5H57.5V92H46V80.5Z" fill="white"/>
</svg>
