<svg width="0" height="0" class="hidden">
    <symbol  xmlns="http://www.w3.org/2000/svg" viewBox="0 0 50 50" id="inst">
        <path d="M40.5703 0.00226907H9.42969C4.22238 0.00226907 0 4.27255 0 9.53894V40.4633C0 45.7297 4.22238 50 9.42969 50H40.5703C45.7776 50 50 45.7297 50 40.4633V9.53667C50 4.27028 45.7776 0 40.5703 0V0.00226907ZM25.3186 38.5642C18.2043 38.5642 12.4361 32.7305 12.4361 25.5355C12.4361 18.3404 18.2043 12.5068 25.3186 12.5068C32.4329 12.5068 38.2011 18.3404 38.2011 25.5355C38.2011 32.7305 32.4329 38.5642 25.3186 38.5642ZM42.2934 11.6151C40.3751 11.6151 38.8203 10.0427 38.8203 8.10265C38.8203 6.16264 40.3751 4.59022 42.2934 4.59022C44.2116 4.59022 45.7664 6.16264 45.7664 8.10265C45.7664 10.0427 44.2116 11.6151 42.2934 11.6151Z"></path>
    </symbol>
    <symbol  xmlns="http://www.w3.org/2000/svg" viewBox="0 0 50 50" id="tg">
        <path fill-rule="evenodd" clip-rule="evenodd" d="M9.42969 0.00226907H40.5703V0C45.7776 0 50 4.27029 50 9.53667V40.4633C50 45.7297 45.7776 50 40.5703 50H9.42969C4.22238 50 0 45.7297 0 40.4633V9.53894C0 4.27255 4.22238 0.00226907 9.42969 0.00226907ZM28.2009 14.6929C25.0662 16.0863 18.8013 18.9705 9.40607 23.3453C7.88043 23.9937 7.08123 24.628 7.00848 25.2483C6.88552 26.2965 8.11376 26.7093 9.7863 27.2714C10.0138 27.3479 10.2495 27.4271 10.4912 27.511C12.1367 28.0827 14.3503 28.7515 15.501 28.7781C16.5448 28.8022 17.7098 28.3423 18.996 27.3983C27.7743 21.0653 32.3056 17.8643 32.5901 17.7953C32.7908 17.7466 33.069 17.6854 33.2574 17.8644C33.4458 18.0434 33.4273 18.3824 33.4074 18.4734C33.2857 19.0277 28.4644 23.8183 25.9694 26.2974C25.1916 27.0702 24.6398 27.6184 24.527 27.7436C24.2744 28.0241 24.0169 28.2894 23.7694 28.5444C22.2407 30.1194 21.0943 31.3005 23.8329 33.2293C25.1489 34.1562 26.202 34.9227 27.2527 35.6874C28.4001 36.5225 29.5445 37.3554 31.0252 38.3928C31.4024 38.6571 31.7627 38.9316 32.1136 39.199C33.4489 40.2164 34.6485 41.1304 36.1306 40.9846C36.9918 40.8999 37.8813 40.0345 38.3331 37.4533C39.4008 31.3531 41.4994 18.136 41.9844 12.6895C42.0269 12.2123 41.9735 11.6016 41.9306 11.3335C41.8876 11.0654 41.7979 10.6835 41.4719 10.4007C41.0857 10.0658 40.4896 9.99522 40.223 10.0002C39.0108 10.0231 37.1511 10.7142 28.2009 14.6929Z" ></path>
    </symbol>
</svg>