<svg width="73" height="73" viewBox="0 0 73 73" fill="none" xmlns="http://www.w3.org/2000/svg">
<path d="M21 21H31V31H21V21ZM21 31H31V42H21V31ZM31 31H42V42H31V31ZM31 21H42V31H31V21ZM21 10H31V21H21V10ZM10 21H21V31H10V21ZM10 10H21V21H10V10ZM10 0H21V10H10V0ZM0 10H10V21H0V10ZM42 21H52V31H42V21ZM42 31H52V42H42V31ZM42 42H52V52H42V42ZM31 42H42V52H31V42ZM21 42H31V52H21V42ZM42 10H52V21H42V10ZM52 10H63V21H52V10ZM52 21H63V31H52V21ZM52 0H63V10H52V0ZM63 10H73V21H63V10ZM52 42H63V52H52V42ZM42 52H52V63H42V52ZM52 52H63V63H52V52ZM63 52H73V63H63V52ZM52 63H63V73H52V63ZM10 42H21V52H10V42ZM10 52H21V63H10V52ZM21 52H31V63H21V52ZM0 52H10V63H0V52ZM10 63H21V73H10V63Z" fill="white"/>
</svg>
