<svg width="147" height="17" viewBox="0 0 147 17" fill="none" xmlns="http://www.w3.org/2000/svg">
<path d="M17.8582 8.9291C17.8582 7.75651 17.6272 6.59541 17.1785 5.51208C16.7298 4.42875 16.0721 3.44441 15.2429 2.61527C14.4138 1.78613 13.4294 1.12842 12.3461 0.679687C11.2628 0.230958 10.1017 -5.12553e-08 8.9291 0C7.75651 5.12554e-08 6.59541 0.230958 5.51208 0.679687C4.42875 1.12842 3.44442 1.78613 2.61527 2.61527C1.78613 3.44442 1.12842 4.42875 0.679687 5.51208C0.230958 6.59541 -1.02511e-07 7.75651 0 8.9291C1.39026 7.64305 3.53593 7.64305 4.92618 8.9291C4.92618 8.40343 5.02972 7.8829 5.23089 7.39725C5.43205 6.91159 5.72691 6.47031 6.09861 6.09861C6.47032 5.7269 6.91159 5.43205 7.39725 5.23089C7.88291 5.02972 8.40343 4.92618 8.9291 4.92618C9.45477 4.92618 9.97529 5.02972 10.4609 5.23089C10.9466 5.43205 11.3879 5.7269 11.7596 6.09861C12.1313 6.47031 12.4261 6.91159 12.6273 7.39725C12.8285 7.8829 12.932 8.40343 12.932 8.9291C14.3122 10.2404 16.4779 10.2403 17.8582 8.9291Z" fill="url(#paint0_angular_1463_5543)"/>
<path d="M2.4632 9.97596C0.92535 9.97596 0 8.9291 0 8.9291C0 8.9291 0.906044 7.96456 2.46273 7.96456C4.01942 7.96456 4.9264 8.9291 4.9264 8.9291C4.9264 8.9291 4.00105 9.97596 2.4632 9.97596Z" fill="url(#paint1_linear_1463_5543)"/>
<path d="M4.9264 16.0599H3.95101V12.9005L2.45967 14.7523L0.975385 12.9005V16.0599H0V11.1123H0.579576L2.45967 13.473L4.34682 11.1123H4.9264V16.0599Z" fill="#4B4B4B"/>
<path d="M16.3267 12.017L16.7039 11.1123L17.8582 11.1123L15.6855 16.0596H15.0744L12.9318 11.1123L14.0861 11.1123L14.4633 12.017L16.3267 12.017ZM15.3912 14.2927L15.9646 12.9428L14.8254 12.9428L15.3912 14.2927Z" fill="url(#paint2_linear_1463_5543)"/>
<rect x="27.8574" y="3.03027" width="1" height="10" rx="0.5" fill="#D9D9D9"/>
<path d="M47.6753 11.4871H45.9294V6.13984L43.26 9.27403L40.6033 6.13984V11.4871H38.8574V3.11332H39.8948L43.26 7.10881L46.6379 3.11332H47.6753V11.4871Z" fill="#4B4B4B"/>
<path d="M52.0837 6.49872H55.917V8.05385H52.0837V9.93197H56.2332V11.4871H50.3378V3.11332H56.2332V4.66845H52.0837V6.49872Z" fill="#4B4B4B"/>
<path d="M66.7687 13.0303H65.0228V11.4871H59.2539V13.0303H57.508V9.93197H58.6846L61.645 3.11332H62.6823L65.6048 9.93197H66.7687V13.0303ZM62.1383 6.13984L60.557 9.93197H63.7324L62.1383 6.13984Z" fill="#4B4B4B"/>
<path d="M75.4175 11.4871H73.6716V6.21162L69.4714 11.4871H68.4467V3.11332H70.1926V8.3888L74.3801 3.11332H75.4175V11.4871Z" fill="#4B4B4B"/>
<path d="M82.8596 4.64458L83.4921 3.11337L85.4278 3.11337L81.7842 11.4872L80.7595 11.4872L77.1666 3.11337L79.1022 3.11337L79.7348 4.64458L82.8596 4.64458ZM81.2909 8.49652L82.2523 6.21167L80.342 6.21167L81.2909 8.49652Z" fill="#4B4B4B"/>
<path d="M87.8683 9.95498L87.2363 11.4858H85.3022L88.9427 3.11399H89.9666L93.5565 11.4858H91.6225L90.9905 9.95498H87.8683ZM89.4357 6.10393L88.475 8.38825H90.3838L89.4357 6.10393Z" fill="#4B4B4B"/>
<path d="M100.82 11.4858L98.9997 8.79488C98.7974 8.49987 98.6205 8.30054 98.4688 8.19689C98.3171 8.09324 98.0938 8.04141 97.7988 8.04141H96.9898V11.4858H95.2454V3.11399H96.9898V6.45077H97.7483C98.0348 6.45077 98.2539 6.39894 98.4056 6.29529C98.5657 6.19164 98.7469 5.99231 98.9491 5.6973L100.694 3.11399H102.665L100.58 6.19961C100.167 6.73381 99.8255 7.06869 99.5559 7.20423C99.8761 7.33978 100.234 7.70255 100.63 8.29257L102.792 11.4858H100.82Z" fill="#4B4B4B"/>
<path d="M104.664 3.11399H107.571C108.785 3.11399 109.746 3.41697 110.453 4.02293C111.161 4.62092 111.515 5.39033 111.515 6.33117C111.515 7.27998 111.161 8.05736 110.453 8.66332C109.746 9.26131 108.785 9.5603 107.571 9.5603H106.409V11.4858H104.664V3.11399ZM106.409 8.00554H107.71C108.326 8.00554 108.836 7.866 109.24 7.58694C109.653 7.30788 109.859 6.88929 109.859 6.33117C109.859 5.79697 109.653 5.38635 109.24 5.09931C108.827 4.81228 108.317 4.66876 107.71 4.66876H106.409V8.00554Z" fill="#4B4B4B"/>
<path d="M114.297 4.28605C115.174 3.44886 116.235 3.03027 117.483 3.03027C118.73 3.03027 119.792 3.44886 120.668 4.28605C121.553 5.11526 121.995 6.11988 121.995 7.29991C121.995 8.47994 121.553 9.48855 120.668 10.3257C119.792 11.1549 118.73 11.5695 117.483 11.5695C116.235 11.5695 115.174 11.1549 114.297 10.3257C113.421 9.48855 112.983 8.47994 112.983 7.29991C112.983 6.11988 113.421 5.11526 114.297 4.28605ZM119.455 5.35047C118.924 4.84018 118.266 4.58504 117.483 4.58504C116.699 4.58504 116.042 4.84018 115.511 5.35047C114.988 5.86075 114.727 6.51056 114.727 7.29991C114.727 8.09723 114.988 8.75103 115.511 9.26131C116.042 9.76362 116.699 10.0148 117.483 10.0148C118.275 10.0148 118.932 9.76362 119.455 9.26131C119.985 8.75103 120.251 8.09723 120.251 7.29991C120.251 6.51056 119.985 5.86075 119.455 5.35047Z" fill="#4B4B4B"/>
<path d="M125.801 6.19961H127.874C128.869 6.19961 129.623 6.43881 130.137 6.9172C130.651 7.38761 130.908 8.02945 130.908 8.84272C130.908 9.66396 130.655 10.3098 130.15 10.7802C129.644 11.2506 128.886 11.4858 127.874 11.4858H124.057V3.11399H129.973V4.66876H125.801V6.19961ZM125.801 9.93106H127.9C128.801 9.93106 129.252 9.56828 129.252 8.84272C129.252 8.11716 128.801 7.75438 127.9 7.75438H125.801V9.93106Z" fill="#4B4B4B"/>
<path d="M134.493 9.95498L133.861 11.4858H131.927L135.567 3.11399H136.591L140.181 11.4858H138.247L137.615 9.95498H134.493ZM136.06 6.10393L135.099 8.38825H137.008L136.06 6.10393Z" fill="#4B4B4B"/>
<path d="M144.43 4.66876V11.4858H142.686V4.66876H140.259V3.11399H146.857V4.66876H144.43Z" fill="#4B4B4B"/>
<defs>
<radialGradient id="paint0_angular_1463_5543" cx="0" cy="0" r="1" gradientUnits="userSpaceOnUse" gradientTransform="translate(8.9291 4.98798) rotate(90) scale(4.98798 8.9291)">
<stop stop-color="#0029FF"/>
<stop offset="1" stop-color="#00A3FF"/>
</radialGradient>
<linearGradient id="paint1_linear_1463_5543" x1="2.4632" y1="7.94382" x2="2.4632" y2="9.97596" gradientUnits="userSpaceOnUse">
<stop stop-color="#152268"/>
<stop offset="1" stop-color="#0023DB"/>
</linearGradient>
<linearGradient id="paint2_linear_1463_5543" x1="15.395" y1="11.1123" x2="15.395" y2="16.0596" gradientUnits="userSpaceOnUse">
<stop stop-color="#2D2D2D"/>
<stop offset="1" stop-color="#4B4B4B"/>
</linearGradient>
</defs>
</svg>
