<svg width="56" height="10" viewBox="0 0 56 10" fill="none" xmlns="http://www.w3.org/2000/svg">
<path d="M10.0137 0.445557L8.09033 9.5481H6.1416L7.69678 2.20386H3.86279L2.30127 9.5481H0.352539L2.27588 0.445557H10.0137Z" fill="black"/>
<path d="M15.9741 5.71411L15.5044 2.72437L13.7588 5.71411H15.9741ZM16.2725 7.40259H12.7622L11.5244 9.5481H9.3916L14.895 0.445557H16.9707L18.6211 9.5481H16.5962L16.2725 7.40259Z" fill="black"/>
<path d="M21.8521 0.445557H25.5083C26.3039 0.445557 26.9767 0.718506 27.5269 1.2644C28.077 1.8103 28.3521 2.43872 28.3521 3.14966C28.3521 4.15682 27.9902 4.97778 27.2666 5.61255C26.543 6.24308 25.6522 6.55835 24.5942 6.55835H22.5059L21.8774 9.5481H19.9287L21.8521 0.445557ZM25.1973 2.20386H23.439L22.8804 4.80005H24.791C25.2311 4.80005 25.6035 4.65617 25.9082 4.36841C26.2129 4.07642 26.3652 3.72306 26.3652 3.30835C26.3652 3.01213 26.2531 2.75399 26.0288 2.53394C25.8045 2.31388 25.5273 2.20386 25.1973 2.20386Z" fill="black"/>
<path d="M34.8521 0.255127C35.3302 0.255127 35.7809 0.318604 36.2041 0.445557C36.6273 0.568278 36.9743 0.718506 37.2451 0.89624C37.5202 1.07397 37.7593 1.25171 37.9624 1.42944C38.1655 1.60718 38.3115 1.75741 38.4004 1.88013L38.54 2.07056L37.1118 3.24487C37.0949 3.21102 37.0653 3.16659 37.0229 3.11157C36.9849 3.05233 36.8939 2.95288 36.75 2.81323C36.6104 2.67358 36.458 2.55086 36.293 2.44507C36.1279 2.33504 35.9015 2.2356 35.6138 2.14673C35.3302 2.05363 35.0319 2.00708 34.7188 2.00708C33.7581 2.00708 32.9118 2.35409 32.1797 3.0481C31.4476 3.74211 31.0815 4.57788 31.0815 5.55542C31.0815 6.24097 31.3185 6.8186 31.7925 7.28833C32.2707 7.75382 32.8695 7.98657 33.5889 7.98657C33.9189 7.98657 34.2384 7.94002 34.5474 7.84692C34.8605 7.74959 35.1229 7.63745 35.3345 7.5105C35.5503 7.37931 35.7407 7.24601 35.9058 7.1106C36.075 6.97518 36.1999 6.86092 36.2803 6.76782L36.3945 6.62183L37.3594 7.9231C37.3255 7.97388 37.2705 8.04159 37.1943 8.12622C37.1224 8.20662 36.9574 8.35262 36.6992 8.56421C36.4453 8.77157 36.1766 8.95565 35.8931 9.11646C35.6138 9.27303 35.2477 9.41691 34.7949 9.5481C34.3464 9.67928 33.883 9.74487 33.4048 9.74487C32.1987 9.74487 31.1789 9.34285 30.3452 8.53882C29.5158 7.73055 29.1011 6.78052 29.1011 5.68872C29.1011 4.19067 29.666 2.91056 30.7959 1.84839C31.93 0.786214 33.2821 0.255127 34.8521 0.255127Z" fill="black"/>
<path d="M40.895 7.79614H45.77L45.4019 9.5481H38.5781L40.5015 0.445557H47.1982L46.8364 2.20386H42.0884L41.7012 4.02563H45.4019L45.0273 5.77759H41.3203L40.895 7.79614Z" fill="black"/>
<path d="M49.147 0.445557H52.8032C53.5988 0.445557 54.2716 0.718506 54.8218 1.2644C55.3719 1.8103 55.647 2.43872 55.647 3.14966C55.647 4.15682 55.2852 4.97778 54.5615 5.61255C53.8379 6.24308 52.9471 6.55835 51.8892 6.55835H49.8008L49.1724 9.5481H47.2236L49.147 0.445557ZM52.4922 2.20386H50.7339L50.1753 4.80005H52.0859C52.526 4.80005 52.8984 4.65617 53.2031 4.36841C53.5078 4.07642 53.6602 3.72306 53.6602 3.30835C53.6602 3.01213 53.548 2.75399 53.3237 2.53394C53.0994 2.31388 52.8223 2.20386 52.4922 2.20386Z" fill="black"/>
</svg>
