<svg width="140" height="12" viewBox="0 0 140 12" fill="none" xmlns="http://www.w3.org/2000/svg">
<path d="M10.0396 5.01979C10.0396 7.79215 7.79215 10.0396 5.01979 10.0396C2.24744 10.0396 0 7.79215 0 5.01979C0 2.24744 2.24744 0 5.01979 0C7.79215 0 10.0396 2.24744 10.0396 5.01979Z" fill="#0029FF"/>
<path d="M26.5635 9.6631H24.6585V3.49252L21.7457 7.10928L18.8468 3.49252V9.6631H16.9418V0H18.0738L21.7457 4.61068L25.4315 0H26.5635V9.6631Z" fill="#4B4B4B"/>
<path d="M31.3738 3.90665H35.5565V5.70123H31.3738V7.86852H35.9016V9.6631H29.4688V0H35.9016V1.79458H31.3738V3.90665Z" fill="#4B4B4B"/>
<path d="M47.3975 11.4439H45.4925V9.6631H39.1977V11.4439H37.2927V7.86852H38.5765L41.8067 0H42.9387L46.1275 7.86852H47.3975V11.4439ZM42.3451 3.49252L40.6195 7.86852H44.0844L42.3451 3.49252Z" fill="#4B4B4B"/>
<path d="M56.8348 9.6631H54.9297V3.57535L50.3467 9.6631H49.2285V0H51.1335V6.08775L55.7028 0H56.8348V9.6631Z" fill="#4B4B4B"/>
<path d="M61.545 7.89613L60.8548 9.6631H58.7427L62.7184 0H63.8365L67.757 9.6631H65.6449L64.9547 7.89613H61.545ZM63.2567 3.45111L62.2076 6.08775H64.2921L63.2567 3.45111Z" fill="#4B4B4B"/>
<path d="M75.5795 7.99276L74.8893 9.75973H72.7772L76.7529 0.0966306H77.871L81.7915 9.75973H79.6794L78.9892 7.99276H75.5795ZM77.2912 3.54774L76.2421 6.18438H78.3266L77.2912 3.54774Z" fill="#4B4B4B"/>
<path d="M89.7236 9.75973L87.7358 6.65373C87.5149 6.31322 87.3217 6.08315 87.156 5.96351C86.9903 5.84387 86.7465 5.78406 86.4244 5.78406H85.5409V9.75973H83.6359V0.0966306H85.5409V3.94807H86.3691C86.6821 3.94807 86.9213 3.88825 87.087 3.76861C87.2618 3.64897 87.4597 3.4189 87.6806 3.07839L89.5856 0.0966306H91.7391L89.4613 3.65817C89.0104 4.27477 88.6377 4.66129 88.3432 4.81775C88.6929 4.9742 89.084 5.39293 89.5166 6.07395L91.8771 9.75973H89.7236Z" fill="#4B4B4B"/>
<path d="M93.9218 0.0966306H97.0968C98.422 0.0966306 99.4712 0.446343 100.244 1.14577C101.017 1.83599 101.404 2.72407 101.404 3.81002C101.404 4.90517 101.017 5.80246 100.244 6.50189C99.4712 7.19211 98.422 7.53722 97.0968 7.53722H95.8268V9.75973H93.9218V0.0966306ZM95.8268 5.74264H97.2487C97.9205 5.74264 98.4773 5.58159 98.919 5.25949C99.3699 4.93738 99.5954 4.45423 99.5954 3.81002C99.5954 3.19342 99.3699 2.71947 98.919 2.38817C98.468 2.05686 97.9113 1.89121 97.2487 1.89121H95.8268V5.74264Z" fill="#4B4B4B"/>
<path d="M104.442 1.44946C105.399 0.483155 106.559 0 107.921 0C109.283 0 110.442 0.483155 111.399 1.44946C112.366 2.40657 112.849 3.56614 112.849 4.92818C112.849 6.29022 112.366 7.45439 111.399 8.4207C110.442 9.37781 109.283 9.85636 107.921 9.85636C106.559 9.85636 105.399 9.37781 104.442 8.4207C103.485 7.45439 103.006 6.29022 103.006 4.92818C103.006 3.56614 103.485 2.40657 104.442 1.44946ZM110.074 2.67806C109.494 2.08907 108.776 1.79458 107.921 1.79458C107.065 1.79458 106.347 2.08907 105.767 2.67806C105.196 3.26705 104.911 4.01709 104.911 4.92818C104.911 5.84848 105.196 6.60312 105.767 7.19211C106.347 7.77189 107.065 8.06179 107.921 8.06179C108.786 8.06179 109.503 7.77189 110.074 7.19211C110.654 6.60312 110.944 5.84848 110.944 4.92818C110.944 4.01709 110.654 3.26705 110.074 2.67806Z" fill="#4B4B4B"/>
<path d="M117.005 3.65817H119.269C120.355 3.65817 121.179 3.93426 121.74 4.48644C122.302 5.02941 122.582 5.77025 122.582 6.70895C122.582 7.65686 122.306 8.4023 121.754 8.94527C121.202 9.48824 120.374 9.75973 119.269 9.75973H115.1V0.0966306H121.561V1.89121H117.005V3.65817ZM117.005 7.96515H119.297C120.282 7.96515 120.774 7.54642 120.774 6.70895C120.774 5.87148 120.282 5.45275 119.297 5.45275H117.005V7.96515Z" fill="#4B4B4B"/>
<path d="M126.497 7.99276L125.807 9.75973H123.694L127.67 0.0966306H128.788L132.709 9.75973H130.597L129.906 7.99276H126.497ZM128.209 3.54774L127.159 6.18438H129.244L128.209 3.54774Z" fill="#4B4B4B"/>
<path d="M137.35 1.89121V9.75973H135.445V1.89121H132.794V0.0966306H140V1.89121H137.35Z" fill="#4B4B4B"/>
</svg>
