<svg width="0" height="0" class="hidden">
  <symbol xmlns="http://www.w3.org/2000/svg" viewBox="0 0 17 13" id="arrow-button">
    <path d="M1 5.75C0.585786 5.75 0.25 6.08579 0.25 6.5C0.25 6.91421 0.585786 7.25 1 7.25V5.75ZM16.5303 7.03033C16.8232 6.73744 16.8232 6.26256 16.5303 5.96967L11.7574 1.1967C11.4645 0.903806 10.9896 0.903806 10.6967 1.1967C10.4038 1.48959 10.4038 1.96447 10.6967 2.25736L14.9393 6.5L10.6967 10.7426C10.4038 11.0355 10.4038 11.5104 10.6967 11.8033C10.9896 12.0962 11.4645 12.0962 11.7574 11.8033L16.5303 7.03033ZM1 7.25H16V5.75H1V7.25Z"></path>
  </symbol>
   
   <symbol  xmlns="http://www.w3.org/2000/svg" viewBox="0 0 12 12" id="link">
    <path d="M11.1741 6.01855C10.7179 6.01855 10.3482 5.64959 10.3482 5.19446L10.3482 2.81445L5.49116 7.66072C5.16862 7.98255 4.64568 7.98255 4.32314 7.66072C4.0006 7.3389 4.0006 6.81712 4.32314 6.49529L9.181 1.64817H6.79402C6.33788 1.64817 5.96811 1.27922 5.96811 0.824087C5.96811 0.368957 6.33788 0 6.79402 0H11.0708C11.584 0 12 0.415073 12 0.927097L12 5.19446C12 5.64959 11.6302 6.01855 11.1741 6.01855Z"></path>
    <path d="M1.65183 3.96516C1.65183 2.71355 2.6687 1.69892 3.92309 1.69892C4.37923 1.69892 4.749 1.32997 4.749 0.874838C4.749 0.419708 4.37923 0.0507523 3.92309 0.0507523C1.75643 0.0507523 0 1.80329 0 3.96516V8.08559C0 10.2475 1.75643 12 3.92309 12H8.05265C10.2197 12 11.9757 10.2461 11.9757 8.08459C11.9757 7.62946 11.606 7.2605 11.1498 7.2605C10.6937 7.2605 10.3239 7.62946 10.3239 8.08459C10.3239 9.33654 9.30669 10.3518 8.05265 10.3518H3.92309C2.6687 10.3518 1.65183 9.3372 1.65183 8.08559V3.96516Z" ></path>
  </symbol>
  
   <symbol xmlns="http://www.w3.org/2000/svg" viewBox="0 0 37 22" id="eye">
    <path d="M18.5007 1C9.82233 1 1.83398 10.7743 1.83398 11C1.83398 11.2257 9.55525 21 18.5007 21C27.4461 21 35.1673 11.2263 35.1673 11C35.1673 10.7737 27.179 1 18.5007 1Z"  stroke-width="2"></path>
    <path d="M14.0562 11C14.0562 8.5454 16.0461 6.55556 18.5007 6.55556C20.9552 6.55556 22.9451 8.5454 22.9451 11C22.9451 13.4546 20.9552 15.4444 18.5007 15.4444C16.0461 15.4444 14.0562 13.4546 14.0562 11Z"  stroke-width="2"></path>
  </symbol>
    <symbol fill="none" xmlns="http://www.w3.org/2000/svg" viewBox="0 0 15 14" id="sort">
    <g id="Vector">
      <path d="M3.38561 0.681699C3.2939 0.570722 3.15521 0.5 3 0.5C2.84479 0.5 2.7061 0.570721 2.61439 0.681698C2.60112 0.692853 2.58822 0.704672 2.57574 0.717157L0.646447 2.64645C0.451184 2.84171 0.451184 3.15829 0.646447 3.35355C0.841709 3.54882 1.15829 3.54882 1.35355 3.35355L2.5 2.20711V13C2.5 13.2761 2.72386 13.5 3 13.5C3.27614 13.5 3.5 13.2761 3.5 13V2.20711L4.64645 3.35355C4.84171 3.54882 5.15829 3.54882 5.35355 3.35355C5.54882 3.15829 5.54882 2.84171 5.35355 2.64645L3.42426 0.717157C3.41178 0.704673 3.39888 0.692853 3.38561 0.681699Z" fill="#4B4B4B"></path>
      <path d="M12 1C12 0.723858 11.7761 0.5 11.5 0.5C11.2239 0.5 11 0.723858 11 1V11.7929L9.85355 10.6464C9.65829 10.4512 9.34171 10.4512 9.14645 10.6464C8.95119 10.8417 8.95119 11.1583 9.14645 11.3536L11.0757 13.2828C11.0882 13.2953 11.1011 13.3071 11.1144 13.3183C11.2061 13.4293 11.3448 13.5 11.5 13.5C11.6552 13.5 11.7939 13.4293 11.8856 13.3183C11.8989 13.3071 11.9118 13.2953 11.9243 13.2828L13.8536 11.3536C14.0488 11.1583 14.0488 10.8417 13.8536 10.6464C13.6583 10.4512 13.3417 10.4512 13.1464 10.6464L12 11.7929V1Z" fill="#4B4B4B"></path>
      <path d="M3.38561 0.681699C3.2939 0.570722 3.15521 0.5 3 0.5C2.84479 0.5 2.7061 0.570721 2.61439 0.681698C2.60112 0.692853 2.58822 0.704672 2.57574 0.717157L0.646447 2.64645C0.451184 2.84171 0.451184 3.15829 0.646447 3.35355C0.841709 3.54882 1.15829 3.54882 1.35355 3.35355L2.5 2.20711V13C2.5 13.2761 2.72386 13.5 3 13.5C3.27614 13.5 3.5 13.2761 3.5 13V2.20711L4.64645 3.35355C4.84171 3.54882 5.15829 3.54882 5.35355 3.35355C5.54882 3.15829 5.54882 2.84171 5.35355 2.64645L3.42426 0.717157C3.41178 0.704673 3.39888 0.692853 3.38561 0.681699Z" stroke="#4B4B4B" stroke-width="0.5" stroke-linecap="round"></path>
      <path d="M12 1C12 0.723858 11.7761 0.5 11.5 0.5C11.2239 0.5 11 0.723858 11 1V11.7929L9.85355 10.6464C9.65829 10.4512 9.34171 10.4512 9.14645 10.6464C8.95119 10.8417 8.95119 11.1583 9.14645 11.3536L11.0757 13.2828C11.0882 13.2953 11.1011 13.3071 11.1144 13.3183C11.2061 13.4293 11.3448 13.5 11.5 13.5C11.6552 13.5 11.7939 13.4293 11.8856 13.3183C11.8989 13.3071 11.9118 13.2953 11.9243 13.2828L13.8536 11.3536C14.0488 11.1583 14.0488 10.8417 13.8536 10.6464C13.6583 10.4512 13.3417 10.4512 13.1464 10.6464L12 11.7929V1Z" stroke="#4B4B4B" stroke-width="0.5" stroke-linecap="round"></path>
    </g>
  </symbol>

    <symbol fill="none" xmlns="http://www.w3.org/2000/svg" viewBox="0 0 15 14" id="contacts">
    <path d="M14 6.5V1.5C14 0.947715 13.5523 0.5 13 0.5H4C3.44771 0.5 3 0.947715 3 1.5V4.5C3 5.05228 3.44771 5.5 4 5.5H11M1 13.5V8.5C1 7.94772 1.44772 7.5 2 7.5H11C11.5523 7.5 12 7.94772 12 8.5V11.5C12 12.0523 11.5523 12.5 11 12.5H4"  stroke-linecap="round"></path>
  </symbol>
  <symbol fill="none" xmlns="http://www.w3.org/2000/svg" viewBox="0 0 15 14" id="blog">
    <path d="M14 8.5V1.5C14 0.947715 13.5523 0.5 13 0.5H2C1.44771 0.5 1 0.947715 1 1.5V7.5C1 8.05228 1.44771 8.5 2 8.5H11M14 13.5V11.5C14 10.9477 13.5523 10.5 13 10.5H2C1.44771 10.5 1 10.9477 1 11.5V12.5C1 13.0523 1.44771 13.5 2 13.5H11"  stroke-linecap="round"></path>
  </symbol>
  <symbol fill="none" xmlns="http://www.w3.org/2000/svg" viewBox="0 0 15 14" id="media">
    <path d="M9 0.5H13C13.5523 0.5 14 0.947715 14 1.5V2.5C14 3.05228 13.5523 3.5 13 3.5H8C7.44772 3.5 7 3.05228 7 2.5V0.5M9 5.5H13C13.5523 5.5 14 5.94772 14 6.5V7.5C14 8.05228 13.5523 8.5 13 8.5H8C7.44772 8.5 7 8.05228 7 7.5V5.5M9 10.5H13C13.5523 10.5 14 10.9477 14 11.5V12.5C14 13.0523 13.5523 13.5 13 13.5H8C7.44772 13.5 7 13.0523 7 12.5V10.5M2.5 0.5C3.32843 0.5 4 1.17157 4 2C4 2.82843 3.32843 3.5 2.5 3.5C1.67157 3.5 1 2.82843 1 2C1 1.17157 1.67157 0.5 2.5 0.5ZM2.5 5.5C3.32843 5.5 4 6.17157 4 7C4 7.82843 3.32843 8.5 2.5 8.5C1.67157 8.5 1 7.82843 1 7C1 6.17157 1.67157 5.5 2.5 5.5ZM2.5 10.5C3.32843 10.5 4 11.1716 4 12C4 12.8284 3.32843 13.5 2.5 13.5C1.67157 13.5 1 12.8284 1 12C1 11.1716 1.67157 10.5 2.5 10.5Z"  stroke-linecap="round"></path>
  </symbol>
  <symbol fill="none" xmlns="http://www.w3.org/2000/svg" viewBox="0 0 13 14" id="home">
    <path d="M1 10V12.5C1 13.0523 1.44772 13.5 2 13.5H11C11.5523 13.5 12 13.0523 12 12.5V6.88898C12 6.63879 11.9062 6.39769 11.7372 6.21326L7.2293 1.2956C6.83583 0.86636 6.16028 0.862754 5.76225 1.28777L2.28571 5L1.17573 6.29498C1.06233 6.42728 1 6.59578 1 6.77003V6.77003C1 7.17318 1.32682 7.5 1.72997 7.5H9"  stroke-linecap="round"></path>
  <symbol version="1.1" xmlns="http://www.w3.org/2000/svg" viewBox="0 0 2731 1024" id="arrow-long">
    <path  d="M85.333 445.667c-35.346 0-64 28.653-64 64s28.654 64 64 64v-128zM2690.586 554.922c24.994-24.994 24.994-65.516 0-90.51l-407.287-407.294c-24.994-24.994-65.519-24.994-90.513 0s-24.994 65.516 0 90.51l362.035 362.039-362.035 362.039c-24.994 24.994-24.994 65.519 0 90.513s65.519 24.994 90.513 0l407.287-407.297zM85.333 573.667h2560v-128h-2560v128z"></path>
  </symbol>
    <symbol version="1.1" xmlns="http://www.w3.org/2000/svg" viewBox="0 0 1024 1024" id="copy">
    <path stroke-linejoin="miter" stroke-linecap="round" stroke-miterlimit="4" stroke-width="15.36" d="M804.040 804.056c120.781-23.504 211.96-129.865 211.96-257.526v-276.168c0-144.898-117.46-262.362-262.355-262.362h-276.192c-127.646 0-233.999 91.17-257.496 211.946-120.783 23.501-211.958 129.866-211.958 257.524v276.169c0 144.894 117.462 262.36 262.356 262.36h276.162c127.652 0 234.013-91.169 257.521-211.944zM335.943 215.111c22.091-56.569 77.123-96.642 141.512-96.642h276.192c83.882 0 151.889 68.005 151.889 151.892v276.168c0 64.4-40.080 119.442-96.656 141.54v-210.599c0-144.898-117.46-262.362-262.36-262.362h-210.577zM118.466 477.47c0-83.888 68.004-151.892 151.89-151.892h276.162c83.888 0 151.895 68.005 151.895 151.892v276.169c0 83.888-68.007 151.895-151.895 151.895h-276.162c-83.887 0-151.89-68.007-151.89-151.895v-276.169z"></path>
  </symbol>
   <symbol version="1.1" xmlns="http://www.w3.org/2000/svg" viewBox="0 0 1024 1024" id="remove">
    <path fill="none" stroke-linejoin="miter" stroke-linecap="round" stroke-miterlimit="4" stroke-width="126.0308" d="M905.845 354.462l-60.542 454.049c-10.429 78.265-77.195 136.72-156.154 136.72h-354.298c-78.959 0-145.721-58.455-156.157-136.72l-60.54-454.049"></path>
    <path fill="none" stroke-linejoin="miter" stroke-linecap="round" stroke-miterlimit="4" stroke-width="126.0308" d="M118.155 157.538h787.691"></path>
    <path fill="none" stroke-linejoin="miter" stroke-linecap="round" stroke-miterlimit="4" stroke-width="126.0308" d="M433.232 78.769h157.538"></path>
  </symbol>
  <symbol version="1.1" xmlns="http://www.w3.org/2000/svg" viewBox="0 0 956 1024" id="edit">
    <path d="M891.859 68.521l36.11 36.11c15.743 15.744 15.743 41.271 0 57.015l-81.721 81.723c-15.743 15.744-41.27 15.744-57.013 0l-36.11-36.11c-15.75-15.744-15.75-41.272 0-57.015l81.721-81.723c15.743-15.744 41.27-15.744 57.013 0zM732.213 228.165c-15.743-15.744-41.27-15.744-57.013 0l-198.135 198.135c-1.877 1.877-3.564 3.935-5.037 6.144l-90.857 136.284c-8.883 13.326-7.127 31.068 4.198 42.392s29.066 13.081 42.392 4.198l136.284-90.857c2.208-1.472 4.267-3.159 6.144-5.037l198.135-198.135c15.743-15.744 15.743-41.271 0-57.015l-36.11-36.11zM123.733 443.176c0-81.642 66.184-147.826 147.826-147.826h134.388c29.687 0 53.754-24.067 53.754-53.754s-24.067-53.754-53.754-53.754h-134.388c-141.018 0-255.335 114.317-255.335 255.335v268.776c0 141.019 114.317 255.335 255.335 255.335h268.775c141.018 0 255.335-114.316 255.335-255.335v-134.39c0-29.687-24.069-53.754-53.754-53.754s-53.754 24.067-53.754 53.754v134.39c0 81.64-66.184 147.826-147.826 147.826h-268.775c-81.642 0-147.826-66.186-147.826-147.826v-268.776z"></path>
  </symbol>
    <symbol version="1.1" xmlns="http://www.w3.org/2000/svg" viewBox="0 0 731 1024" id="filter">
    <path  d="M120.686 18.286c-30.297 0-54.857 24.56-54.857 54.857v550.759c-39.077 19.976-65.829 60.627-65.829 107.527s26.752 87.552 65.829 107.527v111.901c0 30.296 24.561 54.857 54.857 54.857s54.857-24.561 54.857-54.857v-111.901c39.077-19.975 65.829-60.628 65.829-107.527s-26.752-87.551-65.829-107.527v-550.759c0-30.297-24.561-54.857-54.857-54.857zM607.259 18.286c-30.297 0-54.856 24.56-54.856 54.857v111.902c-39.077 19.976-65.829 60.627-65.829 107.527s26.751 87.551 65.829 107.527v550.759c0 30.296 24.56 54.857 54.856 54.857s54.858-24.561 54.858-54.857v-550.759c39.077-19.976 65.829-60.627 65.829-107.527s-26.752-87.551-65.829-107.527v-111.902c0-30.297-24.561-54.857-54.858-54.857z"></path>
  </symbol>
    <symbol version="1.1" xmlns="http://www.w3.org/2000/svg" viewBox="0 0 878 1024" id="settings">
    <path d="M718.367 70.571v438.857h3.501c55.581 0 91.736 58.493 66.875 108.207-0.176 0.347-0.219 0.745-0.124 1.122l28.35 113.396c2.172 8.697 3.277 17.635 3.277 26.609v121.607c0 60.592-49.123 109.714-109.715 109.714h-130.613c-20.198 0-36.571-16.377-36.571-36.571 0-20.202 16.374-36.571 36.571-36.571h130.613c20.198 0 36.572-16.377 36.572-36.571v-121.607c0-2.992-0.366-5.968-1.090-8.872l-28.352-113.393c-4.329-17.315-2.321-35.608 5.661-51.572 0.145-0.289 0.188-0.465 0.203-0.541 0.017-0.083 0.020-0.152 0.016-0.227-0.010-0.167-0.077-0.469-0.29-0.815s-0.454-0.541-0.599-0.625c-0.065-0.037-0.129-0.065-0.21-0.087-0.075-0.020-0.252-0.060-0.574-0.060l-82.651 0.077-0.045 0.081 0.037 0.078c9.364 18.728 10.272 40.568 2.496 60.009l-22.601 56.503c-1.728 4.32-2.616 8.929-2.616 13.582v138.729c0 20.202-16.374 36.571-36.571 36.571s-36.571-16.369-36.571-36.571v-138.729c0-13.958 2.663-27.787 7.847-40.746l22.601-56.503c0.017-0.044 0.015-0.092-0.006-0.135-24.37-48.741 11.072-106.090 65.567-106.090h5.868v-438.857c0-20.198 16.374-36.571 36.571-36.571s36.571 16.374 36.571 36.571zM73.143 303.1c0 12.227 6.111 23.646 16.285 30.429l36.737 24.491c30.523 20.348 48.856 54.605 48.856 91.287v368.364c0 20.202-16.374 36.571-36.571 36.571s-36.571-16.369-36.571-36.571v-368.364c0-12.227-6.111-23.646-16.285-30.429l-36.737-24.491c-30.522-20.348-48.856-54.604-48.856-91.287v-45.466c0-17.033 3.966-33.831 11.583-49.066l60.196-120.393 69.282 16.355v109.477l53.742 17.914c7.507 2.502 15.623 2.502 23.129 0l53.742-17.914v-109.477l69.282-16.355 60.197 120.393c7.617 15.234 11.583 32.033 11.583 49.066v45.466c0 36.683-18.333 70.939-48.856 91.287l-36.737 24.491c-10.174 6.783-16.285 18.202-16.285 30.429v431.062c0 60.592-49.121 109.714-109.714 109.714h-62.694c-20.198 0-36.571-16.377-36.571-36.571 0-20.202 16.373-36.571 36.571-36.571h62.694c20.198 0 36.571-16.377 36.571-36.571v-431.062c0-36.683 18.333-70.939 48.856-91.287l36.737-24.491c10.174-6.783 16.285-18.202 16.285-30.429v-34.632l-98.53 32.843c-22.521 7.507-46.868 7.507-69.389 0l-98.53-32.843v34.632z"></path>
  </symbol>
    <symbol fill="none" xmlns="http://www.w3.org/2000/svg" viewBox="0 0 8 13" id="arrow">
    <path d="M1.5 11.5L6.5 6.5L1.5 1.5" stroke-width="1.5" stroke-linecap="round"></path>
  </symbol>
    <symbol fill="none" xmlns="http://www.w3.org/2000/svg" viewBox="0 0 15 14" id="admin-profile">
    <path fill-rule="evenodd" clip-rule="evenodd" d="M7.48236 6.37097C8.5513 6.37097 9.41784 5.50442 9.41784 4.43548C9.41784 3.36655 8.5513 2.5 7.48236 2.5C6.41342 2.5 5.54688 3.36655 5.54688 4.43548C5.54688 5.50442 6.41342 6.37097 7.48236 6.37097ZM7.48236 5.37097C7.99901 5.37097 8.41784 4.95214 8.41784 4.43548C8.41784 3.91883 7.99901 3.5 7.48236 3.5C6.96571 3.5 6.54688 3.91883 6.54688 4.43548C6.54688 4.95214 6.96571 5.37097 7.48236 5.37097Z" fill="#4B4B4B"></path>
    <path d="M7.48387 8.10938C5.83592 8.10938 4.5 9.4453 4.5 11.0932C4.5 11.3694 4.27614 11.5932 4 11.5932C3.72386 11.5932 3.5 11.3694 3.5 11.0932C3.5 8.89301 5.28364 7.10938 7.48387 7.10938C9.6841 7.10938 11.4677 8.89301 11.4677 11.0932C11.4677 11.3694 11.2439 11.5932 10.9677 11.5932C10.6916 11.5932 10.4677 11.3694 10.4677 11.0932C10.4677 9.4453 9.13182 8.10938 7.48387 8.10938Z" fill="#4B4B4B"></path>
    <path fill-rule="evenodd" clip-rule="evenodd" d="M0.5 4C0.5 1.79086 2.29086 0 4.5 0H10.5C12.7091 0 14.5 1.79086 14.5 4V10C14.5 12.2091 12.7091 14 10.5 14H4.5C2.29086 14 0.5 12.2091 0.5 10V4ZM4.5 1H10.5C12.1569 1 13.5 2.34315 13.5 4V10C13.5 11.6569 12.1569 13 10.5 13H4.5C2.84315 13 1.5 11.6569 1.5 10V4C1.5 2.34315 2.84315 1 4.5 1Z" fill="#4B4B4B"></path>
  </symbol>
    <symbol xmlns="http://www.w3.org/2000/svg" viewBox="0 0 10 12" id="cash-check">
    <path d="M3 4.375H7M3 6.875H7M2 1.375H8C8.55228 1.375 9 1.82272 9 2.375V10.5L7 9.375L5 10.625L3 9.375L1 10.5V2.375C1 1.82272 1.44772 1.375 2 1.375Z"  stroke-linecap="round"></path>
  </symbol>
    <symbol fill="none" xmlns="http://www.w3.org/2000/svg" viewBox="0 0 13 12" id="checkbox-nav">
    <path d="M4 0.5H11C11.5523 0.5 12 0.947715 12 1.5V10.5C12 11.0523 11.5523 11.5 11 11.5H2C1.44772 11.5 1 11.0523 1 10.5V7.70711C1 7.26165 1.53857 7.03857 1.85355 7.35355L4 9.5L9.45373 4.50074C9.75151 4.22778 9.76164 3.76164 9.476 3.476V3.476C9.20916 3.20916 8.78014 3.19788 8.49964 3.45032L4 7.5L1.29289 4.79289C1.10536 4.60536 1 4.351 1 4.08579V2" stroke="black" stroke-linecap="round"></path>
  </symbol>
  <symbol fill="none" xmlns="http://www.w3.org/2000/svg" viewBox="0 0 11 14" id="ruble">
    <path d="M3 1H6.5C8.433 1 10 2.567 10 4.5V4.5C10 6.433 8.433 8 6.5 8H4V9.5H7.5C7.77614 9.5 8 9.72386 8 10V10.5C8 10.7761 7.77614 11 7.5 11H4V12.5C4 12.7761 3.77614 13 3.5 13H2.5C2.22386 13 2 12.7761 2 12.5V11H1.5C1.22386 11 1 10.7761 1 10.5V9.83333C1 9.64924 1.14924 9.5 1.33333 9.5V9.5C1.70152 9.5 2 9.20152 2 8.83333V8H1.5C1.22386 8 1 7.77614 1 7.5V7C1 6.72386 1.22386 6.5 1.5 6.5V6.5C1.77614 6.5 2 6.27614 2 6V2.5H6.5C7.60457 2.5 8.5 3.39543 8.5 4.5V4.5C8.5 5.60457 7.60457 6.5 6.5 6.5H4" stroke="black" stroke-linecap="round"></path>
  </symbol>

  <symbol  xmlns="http://www.w3.org/2000/svg" viewBox="0 0 13 14" id="settings-new">
    <path d="M5.771.529a1.005 1.005 0 0 0-.723.681c-.036.116-.043.202-.043.545v.407l-.233.098-.434.179-.201.082-.298-.295c-.244-.242-.324-.308-.443-.364a.999.999 0 0 0-.887.007c-.154.077-.594.488-.681.636a.495.495 0 0 0 .425.744c.173 0 .266-.054.498-.289l.205-.207.358.353c.385.379.478.442.686.463a.75.75 0 0 0 .218-.014 21.671 21.671 0 0 0 1.452-.599.746.746 0 0 0 .272-.312c.045-.092.049-.131.056-.624l.007-.525h.99l.007.504c.008.566.019.614.182.794.112.125.225.185.454.243.142.037.317.112.653.282.54.273.607.29.856.214.157-.048.161-.051.522-.408l.364-.36.356.356.357.356-.355.358a4.475 4.475 0 0 0-.387.424.884.884 0 0 0-.07.407c.017.102.527 1.363.608 1.503a.74.74 0 0 0 .312.272c.092.046.131.049.624.056l.525.007v.99l-.514.008c-.435.006-.528.013-.601.046a.736.736 0 0 0-.316.244c-.073.106-.576 1.398-.607 1.558-.024.126.005.3.072.434.024.047.191.235.371.417l.326.331-.351.351-.351.351-.33-.327c-.192-.19-.372-.348-.429-.377a.627.627 0 0 0-.281-.059l-.184-.01-.521.2c-1.023.392-1.039.401-1.156.57-.115.167-.133.276-.133.799v.473h-.996v-.473c0-.534-.019-.638-.143-.808-.124-.169-.116-.165-1.125-.553-.495-.191-.499-.192-.693-.192-.269.001-.319.031-.726.435l-.336.334-.357-.357-.356-.357.349-.353c.346-.35.35-.355.397-.511a.561.561 0 0 0 .033-.271c-.018-.139-.513-1.44-.6-1.578a.682.682 0 0 0-.317-.263c-.094-.044-.142-.048-.617-.055l-.514-.007v-.99l.525-.007c.493-.007.532-.01.624-.056a.753.753 0 0 0 .312-.272c.07-.121.567-1.328.599-1.455.062-.246-.029-.476-.299-.751-.223-.228-.314-.279-.502-.279a.484.484 0 0 0-.468.323c-.067.191-.023.367.133.526.055.056.095.114.089.13l-.178.433-.167.405-.448.008c-.403.007-.46.013-.572.057a1.067 1.067 0 0 0-.594.615c-.036.102-.04.192-.04.829 0 .698.001.718.05.84.106.263.322.476.589.584.105.042.172.049.563.06l.444.011.171.44.171.439-.284.29c-.317.322-.391.442-.439.71a.977.977 0 0 0 .093.599c.057.119.136.212.492.572.233.237.481.469.551.516.314.209.689.227 1.041.048.063-.031.221-.166.39-.331l.285-.278.433.166.433.166.012.444c.013.503.035.593.195.806.151.2.33.319.567.375.196.046 1.27.045 1.467-.001a.986.986 0 0 0 .717-.679c.036-.115.043-.201.043-.535 0-.357.004-.4.038-.418.021-.011.222-.09.446-.176l.408-.156.296.29c.308.302.39.357.627.419.222.058.489.023.707-.093.141-.075 1-.924 1.086-1.075.123-.214.166-.475.116-.711-.048-.23-.118-.336-.426-.65l-.291-.296.171-.441.17-.44.444-.011c.391-.011.458-.018.563-.06.267-.108.483-.321.589-.584.049-.122.05-.142.05-.851s-.001-.728-.05-.85a1.09 1.09 0 0 0-.584-.583c-.112-.044-.169-.05-.571-.057l-.447-.008-.177-.425-.176-.424.29-.294c.181-.184.31-.335.345-.403.179-.355.162-.729-.048-1.043-.098-.148-.859-.908-.987-.986a1.035 1.035 0 0 0-.98-.059c-.113.054-.205.128-.429.347l-.286.28-.324-.159a4.816 4.816 0 0 0-.447-.198l-.123-.038v-.375c0-.312-.007-.398-.043-.513a1.009 1.009 0 0 0-.754-.688C7.035.488 5.916.494 5.771.529m.35 3.493a3.084 3.084 0 0 0-1.793.916 2.93 2.93 0 0 0-.822 2.06c0 .82.295 1.53.88 2.114a2.9 2.9 0 0 0 2.114.88c.818 0 1.531-.297 2.114-.88.584-.584.88-1.295.88-2.114 0-.336-.04-.603-.138-.908a2.994 2.994 0 0 0-1.469-1.744c-.48-.245-.765-.316-1.311-.326a5.348 5.348 0 0 0-.455.002m.927 1.057A2 2 0 0 1 8.42 6.446c.055.179.06.224.06.552 0 .327-.006.374-.059.548-.17.555-.529.99-1.022 1.234a1.89 1.89 0 0 1-.899.212c-.339 0-.6-.063-.911-.218-.987-.493-1.374-1.741-.844-2.723a1.97 1.97 0 0 1 1.163-.959c.243-.073.344-.085.657-.077.236.006.329.018.483.064"></path>
  </symbol>
  <symbol  xmlns="http://www.w3.org/2000/svg" viewBox="0 0 12 12" id="users">
    <path d="M5.58.198A2.003 2.003 0 0 0 4.22 3.06c.364.723 1.187 1.174 1.975 1.082.819-.096 1.469-.625 1.711-1.392a1.988 1.988 0 0 0-.52-2.031 2.048 2.048 0 0 0-.88-.502A2.572 2.572 0 0 0 5.58.198M1.644 1.199A1.519 1.519 0 0 0 .558 2.24c-.04.127-.047.192-.046.42.001.237.008.289.055.43.085.256.198.44.382.62.186.183.327.273.552.353.325.115.673.115.998 0 .225-.08.366-.17.552-.353.184-.18.297-.364.382-.62.047-.141.054-.193.055-.43.001-.228-.006-.293-.046-.42a1.54 1.54 0 0 0-.492-.746 1.815 1.815 0 0 0-.624-.302 1.778 1.778 0 0 0-.682.007m4.609-.011c.252.067.505.265.625.49A.998.998 0 0 1 6 3.148a.995.995 0 0 1-.969-1.226c.081-.344.365-.639.707-.733.124-.034.389-.035.515-.001m3.391.011A1.519 1.519 0 0 0 8.558 2.24c-.04.127-.047.192-.046.42.001.237.008.289.055.43.085.256.198.44.382.62.186.183.327.273.552.353.325.115.673.115.998 0 .225-.08.366-.17.552-.353.184-.18.297-.364.382-.62.047-.141.054-.193.055-.43.001-.228-.006-.293-.046-.42a1.54 1.54 0 0 0-.492-.746 1.815 1.815 0 0 0-.624-.302 1.778 1.778 0 0 0-.682.007m-7.481.984c.1.03.227.14.282.244.061.115.061.33.001.444a.55.55 0 0 1-.308.258c-.13.038-.146.038-.276 0a.55.55 0 0 1-.308-.258.568.568 0 0 1 .001-.445.573.573 0 0 1 .268-.239.652.652 0 0 1 .34-.004m8 0c.1.03.227.14.282.244.061.115.061.33.001.444a.55.55 0 0 1-.308.258c-.13.038-.146.038-.276 0a.55.55 0 0 1-.308-.258.568.568 0 0 1 .001-.445.573.573 0 0 1 .268-.239.652.652 0 0 1 .34-.004m-7.84 2.504a.515.515 0 0 0-.317.414.441.441 0 0 0 .143.391c.178.183-.211.168 4.237.168 2.917 0 3.939.006 3.997.023.1.03.228.14.279.241.085.166.082.183-.201 1.316a30.905 30.905 0 0 1-.293 1.123.576.576 0 0 1-.258.251c-.071.031-.171.037-.88.046l-.8.011-.16.056c-.088.03-.221.091-.296.135-.268.159-.358.266-.894 1.068-.273.407-.521.764-.553.794a.473.473 0 0 1-.327.12.473.473 0 0 1-.327-.12c-.032-.03-.28-.387-.553-.794-.536-.802-.626-.909-.894-1.068a1.949 1.949 0 0 0-.296-.135l-.16-.056-.82-.01-.82-.011-.108-.061c-.198-.113-.184-.076-.634-1.652a63.754 63.754 0 0 0-.441-1.504.555.555 0 0 0-.283-.249.5.5 0 0 0-.658.424c-.009.09.042.282.413 1.582.497 1.74.49 1.72.78 2.012.165.166.218.205.381.285.318.154.344.157 1.25.171.777.012.802.013.87.056.12.075.182.157.676.898.387.581.507.745.611.84.165.151.311.238.518.309.334.115.656.115.99 0 .428-.147.557-.279 1.18-1.213.265-.397.511-.747.548-.778.129-.108.142-.11.865-.11.729 0 .897-.015 1.133-.098a1.33 1.33 0 0 0 .549-.352c.166-.167.261-.307.341-.505.026-.064.171-.606.322-1.206l.275-1.089v-.25a1.227 1.227 0 0 0-.044-.409 1.484 1.484 0 0 0-.814-.952c-.319-.149.012-.139-4.454-.137-3.093.001-4.021.007-4.073.025"></path>
  </symbol>

  <symbol fill="none" xmlns="http://www.w3.org/2000/svg" viewBox="0 0 14 12" id="admins">
    <path fill-rule="evenodd" clip-rule="evenodd" d="M5.48913 1.59628C5.12243 0.862895 5.65573 0 6.47568 0H7.52432C8.34427 0 8.87757 0.862895 8.51087 1.59628C8.50372 1.61059 8.5 1.62636 8.5 1.64235V3.35765C8.5 3.37364 8.50372 3.38941 8.51087 3.40372C8.87757 4.13711 8.34427 5 7.52432 5H6.47568C5.65573 5 5.12243 4.1371 5.48913 3.40372C5.49628 3.38941 5.5 3.37364 5.5 3.35765V1.64235C5.5 1.62636 5.49628 1.61059 5.48913 1.59628ZM6.47568 1C6.39911 1 6.34931 1.08058 6.38355 1.14907C6.46013 1.30223 6.5 1.47111 6.5 1.64235V3.35765C6.5 3.52889 6.46013 3.69777 6.38355 3.85093C6.34931 3.91942 6.39911 4 6.47568 4H7.52432C7.60089 4 7.65069 3.91942 7.61645 3.85093C7.53987 3.69777 7.5 3.52889 7.5 3.35765V1.64235C7.5 1.47111 7.53987 1.30223 7.61645 1.14907C7.65069 1.08058 7.60089 1 7.52432 1H6.47568Z" fill="black"></path>
    <path d="M2.5 3C1.67157 3 1 3.67157 1 4.5V9.5C1 10.3284 1.67157 11 2.5 11H11.5C12.3284 11 13 10.3284 13 9.5V4.5C13 3.67157 12.3284 3 11.5 3H9.5C9.22386 3 9 2.77614 9 2.5C9 2.22386 9.22386 2 9.5 2H11.5C12.8807 2 14 3.11929 14 4.5V9.5C14 10.8807 12.8807 12 11.5 12H2.5C1.11929 12 0 10.8807 0 9.5V4.5C0 3.11929 1.11929 2 2.5 2H4.5C4.77614 2 5 2.22386 5 2.5C5 2.77614 4.77614 3 4.5 3H2.5Z" fill="black"></path>
    <path d="M7.5 5.5C7.22386 5.5 7 5.72386 7 6C7 6.27614 7.22386 6.5 7.5 6.5H11.5C11.7761 6.5 12 6.27614 12 6C12 5.72386 11.7761 5.5 11.5 5.5H7.5Z" fill="black"></path>
    <path d="M7 8C7 7.72386 7.22386 7.5 7.5 7.5H11.5C11.7761 7.5 12 7.72386 12 8C12 8.27614 11.7761 8.5 11.5 8.5H7.5C7.22386 8.5 7 8.27614 7 8Z" fill="black"></path>
    <path fill-rule="evenodd" clip-rule="evenodd" d="M5.04043 8.69696L4.70132 7.90571C4.25104 8.08106 3.74896 8.08106 3.29868 7.90571L2.95957 8.69696C2.85079 8.95077 2.55686 9.06835 2.30304 8.95957C2.04923 8.85079 1.93165 8.55686 2.04043 8.30304L3.3566 5.23198C3.59903 4.6663 4.40097 4.6663 4.6434 5.23197L5.95957 8.30304C6.06835 8.55686 5.95077 8.85079 5.69696 8.95957C5.44314 9.06835 5.1492 8.95077 5.04043 8.69696ZM4 6.2693L4.30688 6.98535C4.10845 7.05451 3.89155 7.05451 3.69312 6.98535L4 6.2693Z" fill="black"></path>
  </symbol>
  <symbol fill="none" xmlns="http://www.w3.org/2000/svg" viewBox="0 0 13 14" id="home-admin">
    <path d="M2 9.5V12.5C2 13.0523 2.44772 13.5 3 13.5H10C10.5523 13.5 11 13.0523 11 12.5V7.5M11 7.5H1.72997C1.32682 7.5 1 7.17318 1 6.77003V6.77003C1 6.59578 1.06233 6.42728 1.17573 6.29498L2.28571 5L5.76225 1.28777C6.16028 0.862754 6.83583 0.86636 7.2293 1.2956L11.8108 6.29356C11.9325 6.42634 12 6.59992 12 6.78005V6.78005C12 7.17767 11.6777 7.5 11.28 7.5H11ZM11 7.5H9V11C9 11.2761 8.77614 11.5 8.5 11.5H4.5C4.22386 11.5 4 11.2761 4 11V7.5" stroke="black" stroke-linecap="round"></path>
  </symbol>
  <symbol fill="none" xmlns="http://www.w3.org/2000/svg" viewBox="0 0 10 14" id="cabinet">
    <path d="M8 6.25H6.5M8 6.25C8.55228 6.25 9 6.69772 9 7.25V8.75C9 10.9591 7.20914 12.75 5 12.75C4.29687 12.75 3.63612 12.5686 3.062 12.25M8 6.25V4.25C8 2.59315 6.65685 1.25 5 1.25C3.34315 1.25 2 2.59315 2 4.25V6.25M6.5 6.25H3.5M6.5 6.25V4.25C6.5 3.42157 5.82843 2.75 5 2.75C4.17157 2.75 3.5 3.42157 3.5 4.25V6.25M3.5 6.25H2M2 6.25C1.44772 6.25 1 6.69772 1 7.25V8.75C1 9.28045 1.10325 9.78678 1.29076 10.25" stroke="black" stroke-linecap="round"></path>
  </symbol>

  <symbol fill="none" xmlns="http://www.w3.org/2000/svg" viewBox="0 0 28 28" id="check-thanks">
    <path d="M12.364 20.2624L6 13.8984L7.4152 12.4832L12.2244 17.2925L20.7087 8.80819L22.2635 10.3629L12.364 20.2624Z" fill="#40C700"></path>
    <path fill-rule="evenodd" clip-rule="evenodd" d="M28 14C28 21.732 21.732 28 14 28C6.26801 28 0 21.732 0 14C0 6.26801 6.26801 0 14 0C21.732 0 28 6.26801 28 14ZM26 14C26 20.6274 20.6274 26 14 26C7.37258 26 2 20.6274 2 14C2 7.37258 7.37258 2 14 2C20.6274 2 26 7.37258 26 14Z" fill="#40C700"></path>
  </symbol>
  <symbol xmlns="http://www.w3.org/2000/svg" viewBox="0 0 14 16" id="download">
    <path fill-rule="evenodd" clip-rule="evenodd" d="M6 0.5C5.44771 0.5 5 0.947716 5 1.5V7.5H3.62268C2.75691 7.5 2.30022 8.52544 2.87939 9.16897L6.47969 13.1693C6.75776 13.4783 7.24224 13.4783 7.52031 13.1693L11.1206 9.16896C11.6998 8.52544 11.2431 7.5 10.3773 7.5H9V1.5C9 0.947715 8.55228 0.5 8 0.5H6ZM6 1.5L8 1.5V8V8.5H8.5H10.3773L7 12.2526L3.62268 8.5H5.5H6V8V1.5ZM0.5 14.5C0.223858 14.5 0 14.7239 0 15C0 15.2761 0.223858 15.5 0.5 15.5H13.5C13.7761 15.5 14 15.2761 14 15C14 14.7239 13.7761 14.5 13.5 14.5H0.5Z"></path>
  </symbol>
  <symbol xmlns="http://www.w3.org/2000/svg" viewBox="0 0 10 12" id="play">
    <path d="M9.5 5.13397C10.1667 5.51887 10.1667 6.48113 9.5 6.86603L2 11.1962C1.33333 11.5811 0.499999 11.0999 0.5 10.3301L0.5 1.66987C0.5 0.900072 1.33333 0.418947 2 0.803847L9.5 5.13397Z"></path>
  </symbol>
  <symbol xmlns="http://www.w3.org/2000/svg" viewBox="0 0 8 12" id="pause">
    <rect x="0.5" y="0.5" width="2" height="11" rx="1" ></rect>
    <rect x="5.5" y="0.5" width="2" height="11" rx="1"></rect>
  </symbol>
   <symbol version="1.1" xmlns="http://www.w3.org/2000/svg" viewBox="0 0 470 512" id="cross">
    <path d="M459.262 80.933c13.654-13.653 13.654-35.791 0-49.446s-35.791-13.654-49.445 0l-175.067 175.067-175.066-175.067c-13.654-13.654-35.791-13.654-49.446 0s-13.654 35.791 0 49.446l175.066 175.067-175.067 175.067c-13.654 13.653-13.654 35.791 0 49.446s35.791 13.654 49.446 0l175.066-175.067 175.067 175.067c13.654 13.654 35.79 13.654 49.445 0s13.654-35.793 0-49.446l-175.066-175.067 175.066-175.067z"></path>
  </symbol>
    <symbol xmlns="http://www.w3.org/2000/svg" viewBox="0 0 512 512" id="magnifying-glass-plus">
    <path d="M416 208c0 45.9-14.9 88.3-40 122.7L502.6 457.4c12.5 12.5 12.5 32.8 0 45.3s-32.8 12.5-45.3 0L330.7 376c-34.4 25.2-76.8 40-122.7 40C93.1 416 0 322.9 0 208S93.1 0 208 0S416 93.1 416 208zM184 296c0 13.3 10.7 24 24 24s24-10.7 24-24V232h64c13.3 0 24-10.7 24-24s-10.7-24-24-24H232V120c0-13.3-10.7-24-24-24s-24 10.7-24 24v64H120c-13.3 0-24 10.7-24 24s10.7 24 24 24h64v64z"></path>
  </symbol>
   <symbol version="1.1" xmlns="http://www.w3.org/2000/svg" viewBox="0 0 512 512" id="magnifying-glass-minus">
    <path d="M416 208c0 45.9-14.9 88.3-40 122.7l126.6 126.7c12.5 12.5 12.5 32.8 0 45.3s-32.8 12.5-45.3 0l-126.6-126.7c-34.4 25.2-76.8 40-122.7 40-114.9 0-208-93.1-208-208s93.1-208 208-208 208 93.1 208 208zM136 184c-13.3 0-24 10.7-24 24s10.7 24 24 24h144c13.3 0 24-10.7 24-24s-10.7-24-24-24h-144z"></path>
  </symbol>
   <symbol version="1.1" xmlns="http://www.w3.org/2000/svg" viewBox="0 0 366 512" id="promotion-icon">
    <path d="M273.298 11.813c-1.353 0.439-3.62 1.463-5.047 2.231-1.719 0.988-42.715 43.849-121.966 127.488-99.694 105.252-119.662 126.647-121.088 129.572-1.463 2.999-1.683 4.243-1.719 8.96 0 4.791 0.22 5.998 1.719 9.216 2.364 4.863 6.209 8.697 10.941 10.983l0.139 0.061 3.657 1.683 97.097 0.329-28.892 86.711c-31.525 94.574-30.172 89.82-27.721 96.951 2.85 8.831 10.998 15.108 20.611 15.108 4.823 0 9.277-1.58 12.873-4.25l-0.058 0.041c12.602-12.498 24.872-25.139 36.901-38.011l0.732-0.791c38.583-40.74 37.815-39.753 37.742-47.653 0-0.053 0.001-0.116 0.001-0.18 0-7.060-4.125-13.158-10.097-16.012l-0.107-0.046c-2.084-1.097-3.548-1.353-7.753-1.353-7.827 0-8.96 0.731-22.784 15.25-3.932 4.241-7.796 8.187-11.764 12.024l-0.085 0.082c-0.109-0.11 9.435-29.147 21.248-64.548l21.431-64.403-0.22-4.681c-0.395-8.321-5.353-15.397-12.412-18.813l-0.131-0.058-3.511-1.646-83.712-0.622 82.359-86.967c34.621-36.674 61.538-64.946 88.548-93.129l-6.006 6.309c0.109 0.109-9.289 28.526-20.845 63.195-1.423 1.421-8.824 23.6-15.965 45.895l-5.757 20.81c-1.609 8.667 4.132 19.017 12.8 23.077 2.816 1.316 3.292 1.316 44.91 1.609l42.094 0.329-52.297 55.149c-16.207 16.93-33.768 35.613-51.163 54.454l-2.669 2.927c-1.893 2.82-3.021 6.29-3.021 10.024 0 5.141 2.139 9.783 5.575 13.084l0.006 0.006c3.057 3.123 7.315 5.060 12.026 5.060 0.233 0 0.465-0.005 0.696-0.014l-0.033 0.001c0.195 0.008 0.423 0.013 0.653 0.013 4.87 0 9.25-2.102 12.281-5.448l0.012-0.014c7.497-7.058 129.645-136.704 131.036-139.044 1.902-3.161 3.028-6.976 3.028-11.054 0-7.643-3.954-14.363-9.928-18.226l-0.085-0.052c-5.888-3.804-5.413-3.767-56.978-3.767-25.709 0-46.775-0.073-46.775-0.147s12.91-38.839 28.708-86.089c27.538-82.395 28.745-86.126 28.745-90.514 0.003-0.133 0.005-0.291 0.005-0.448 0-8.32-4.774-15.525-11.731-19.026l-0.123-0.056c-2.324-1.409-5.131-2.242-8.134-2.242-0.214 0-0.426 0.004-0.637 0.012l0.031-0.001c-0.469-0.033-1.015-0.050-1.567-0.050-2.067 0-4.073 0.258-5.988 0.745l0.168-0.036z"></path>
  </symbol>
  <symbol version="1.1" xmlns="http://www.w3.org/2000/svg" viewBox="0 0 476 512" id="repeats-icon">
    <path d="M304.969 1.060l-0.139 0.037c1.832-0.567 3.778-0.873 5.796-0.873 3.423 0 6.639 0.879 9.337 2.372 5.815 3.804 94.099 74.825 96.476 77.531l-0.022-0.027c2.57 3.058 4.118 7.004 4.118 11.311 0 3.252-0.883 6.299-2.377 8.831-1.353 2.413-13.166 12.288-48.896 41.033-25.929 20.809-48.457 38.547-50.067 39.388l0.085-0.044c-2.493 1.413-5.375 2.22-8.445 2.22-5.245 0-9.94-2.355-13.107-6.089l-0.002-0.002c-3.176-3.137-5.145-7.493-5.145-12.31 0-0.765 0.050-1.519 0.137-2.171 1.060-6.985 2.633-8.595 30.5-30.976l26.478-21.212-159.123 0.549-9.655 2.121c-5.303 1.171-13.495 3.401-18.213 4.937-10.423 3.365-28.343 12.105-37.486 18.249l-0.561 0.357c-28.217 19.058-49.96 46.972-61.574 80.868-6.803 20.407-8.412 34.34-8.412 73.253-0.036 27.392-0.183 28.233-5.632 33.426l0.005-0.005c-3.242 3.127-7.654 5.050-12.514 5.050-5.479 0-10.386-2.443-13.713-6.325-4.681-5.449-4.791-6.583-4.389-42.569 0.293-25.161 0.659-34.231 1.719-40.704 7.021-43.666 25.344-79.835 55.844-110.117l-0.022 0.021c25.792-25.448 58.646-43.757 96.643-51.953 17.957-3.731 19.675-3.803 100.132-4.279l76.617-0.439-26.149-20.919c-29.623-23.698-30.317-24.43-30.391-33.316-0.036-4.316 0.329-5.851 2.158-8.924l0.047-0.089c2.166-3.778 5.642-6.709 9.937-8.213zM198.51 148.151c6.436-1.133 12.91-1.389 34.852-1.463 29.732-0.073 30.464 0.036 35.584 5.12l-0.004-0.004c3.193 3.281 5.161 7.762 5.161 12.702 0 7.071-4.030 13.201-10.021 16.267-3.693 1.828-4.498 1.901-31.123 2.34-30.611 0.548-33.572 0.951-47.067 6.327l-0.612 0.216c-28.73 11.493-50.214 37.245-55.781 69.050-0.804 4.498-1.133 13.056-1.171 29.331l-0.004-0.254c0.030 1.692 0.046 3.388 0.046 5.087 0 7.644-0.308 15.216-0.847 21.717l-0.025 0.124c-1.897 8.075-9.147 14.087-17.802 14.087-4.924 0-9.393-1.946-12.674-5.106-5.852-5.851-6.18-8.156-5.668-37.596 0.549-30.135 1.755-38.62 7.863-55.516 15.616-43.227 53.102-74.35 99.292-82.432zM357.596 185.052l-0.1 0.048c2.487-1.294 5.314-2.026 8.312-2.026 8.848 0 16.207 6.373 17.754 14.888 1.317 6.254 0.476 50.322-1.134 59.575-6.291 36.462-25.966 66.963-55.954 86.748l0.413-0.267c-11.749 8.024-24.997 14.017-40.057 17.638-13.824 3.438-19.675 3.95-45.934 3.986-23.772 0.036-25.161-0.036-28.525-1.609-10.094-4.717-13.897-15.397-8.887-24.978l0.046-0.1c2.433-4.853 7.081-8.402 12.718-9.336 2.34-0.439 14.409-0.768 26.807-0.768 24.978 0 31.853-0.877 44.727-5.559 25.271-9.216 46.921-31.635 54.784-56.722 3.95-12.581 4.498-17.774 4.498-42.642 0-25.271 0.476-28.964 4.279-33.975l0.020-0.024c1.724-1.952 3.795-3.591 6.233-4.877zM431.469 184.54l-0.118 0.047c2.265-0.994 4.769-1.547 7.402-1.547 5.571 0 10.565 2.471 13.964 6.401 4.279 5.011 4.498 6.619 4.498 36.499 0 37.010-1.463 50.871-7.57 72.082l-0.344 1.371c-19.736 67.519-75.204 119.786-145.833 135.187-18.505 3.95-17.115 3.877-99.584 4.352l-77.824 0.439 26.148 20.882c29.66 23.735 30.317 24.466 30.391 33.389 0.036 4.535-0.292 5.815-2.34 9.18l-0.046 0.077c-3.374 5.305-9.305 8.825-16.058 8.825-1.685 0-3.319-0.219-4.742-0.601-2.669-0.731-13.751-9.18-50.725-38.766-26.002-20.809-48.384-39.095-49.7-40.631l0.022 0.027c-2.567-3.053-4.113-6.991-4.113-11.292 0-3.246 0.881-6.286 2.373-8.813 1.353-2.413 13.020-12.215 48.531-40.668 25.709-20.627 48.275-38.4 50.139-39.534l-0.101 0.049c2.618-1.391 5.605-2.18 8.775-2.18 2.851 0 5.552 0.637 7.857 1.728 6.912 3.584 11.3 11.52 10.24 18.579-1.060 6.985-2.633 8.594-30.355 30.72-14.446 11.557-26.295 21.248-26.332 21.577-0.073 0.914 138.313 0.695 149.321-0.219l0.55-0.035c76.974-6.118 138.319-67.728 144.054-145.337 0.439-6.107 0.805-21.869 0.805-35.072 0-26.477 0.147-27.465 5.010-32.585v0c1.63-1.631 3.51-3.010 5.705-4.132z"></path>
  </symbol>
</svg>