<svg width="0" height="0" class="hidden">
  <symbol xmlns="http://www.w3.org/2000/svg" viewBox="0 0 17 13" id="arrow-button">
    <path d="M1 5.75C0.585786 5.75 0.25 6.08579 0.25 6.5C0.25 6.91421 0.585786 7.25 1 7.25V5.75ZM16.5303 7.03033C16.8232 6.73744 16.8232 6.26256 16.5303 5.96967L11.7574 1.1967C11.4645 0.903806 10.9896 0.903806 10.6967 1.1967C10.4038 1.48959 10.4038 1.96447 10.6967 2.25736L14.9393 6.5L10.6967 10.7426C10.4038 11.0355 10.4038 11.5104 10.6967 11.8033C10.9896 12.0962 11.4645 12.0962 11.7574 11.8033L16.5303 7.03033ZM1 7.25H16V5.75H1V7.25Z"></path>
  </symbol>
    <symbol xmlns="http://www.w3.org/2000/svg" viewBox="0 0 28 28" id="dzen">
    <path fill="#2C3036" d="M16.7 16.7c-2.2 2.27-2.36 5.1-2.55 11.3 5.78 0 9.77-.02 11.83-2.02 2-2.06 2.02-6.24 2.02-11.83-6.2.2-9.03.35-11.3 2.55M0 14.15c0 5.59.02 9.77 2.02 11.83 2.06 2 6.05 2.02 11.83 2.02-.2-6.2-.35-9.03-2.55-11.3-2.27-2.2-5.1-2.36-11.3-2.55M13.85 0C8.08 0 4.08.02 2.02 2.02.02 4.08 0 8.26 0 13.85c6.2-.2 9.03-.35 11.3-2.55 2.2-2.27 2.36-5.1 2.55-11.3m2.85 11.3C14.5 9.03 14.34 6.2 14.15 0c5.78 0 9.77.02 11.83 2.02 2 2.06 2.02 6.24 2.02 11.83-6.2-.2-9.03-.35-11.3-2.55"></path>
    <path fill="#fff" d="M28 14.15v-.3c-6.2-.2-9.03-.35-11.3-2.55-2.2-2.27-2.36-5.1-2.55-11.3h-.3c-.2 6.2-.35 9.03-2.55 11.3-2.27 2.2-5.1 2.36-11.3 2.55v.3c6.2.2 9.03.35 11.3 2.55 2.2 2.27 2.36 5.1 2.55 11.3h.3c.2-6.2.35-9.03 2.55-11.3 2.27-2.2 5.1-2.36 11.3-2.55"></path>
  </symbol>
  <symbol xmlns="http://www.w3.org/2000/svg" viewBox="0 0 496 512" id="telegram">
    <path d="M248 8C111 8 0 119 0 256S111 504 248 504 496 393 496 256 385 8 248 8zM363 176.7c-3.7 39.2-19.9 134.4-28.1 178.3-3.5 18.6-10.3 24.8-16.9 25.4-14.4 1.3-25.3-9.5-39.3-18.7-21.8-14.3-34.2-23.2-55.3-37.2-24.5-16.1-8.6-25 5.3-39.5 3.7-3.8 67.1-61.5 68.3-66.7 .2-.7 .3-3.1-1.2-4.4s-3.6-.8-5.1-.5q-3.3 .7-104.6 69.1-14.8 10.2-26.9 9.9c-8.9-.2-25.9-5-38.6-9.1-15.5-5-27.9-7.7-26.8-16.3q.8-6.7 18.5-13.7 108.4-47.2 144.6-62.3c68.9-28.6 83.2-33.6 92.5-33.8 2.1 0 6.6 .5 9.6 2.9a10.5 10.5 0 0 1 3.5 6.7A43.8 43.8 0 0 1 363 176.7z"></path>
  </symbol>
  <symbol xmlns="http://www.w3.org/2000/svg" viewBox="0 0 448 512" id="vk">
    <path d="M31.5 63.5C0 95 0 145.7 0 247V265C0 366.3 0 417 31.5 448.5C63 480 113.7 480 215 480H233C334.3 480 385 480 416.5 448.5C448 417 448 366.3 448 265V247C448 145.7 448 95 416.5 63.5C385 32 334.3 32 233 32H215C113.7 32 63 32 31.5 63.5zM75.6 168.3H126.7C128.4 253.8 166.1 290 196 297.4V168.3H244.2V242C273.7 238.8 304.6 205.2 315.1 168.3H363.3C359.3 187.4 351.5 205.6 340.2 221.6C328.9 237.6 314.5 251.1 297.7 261.2C316.4 270.5 332.9 283.6 346.1 299.8C359.4 315.9 369 334.6 374.5 354.7H321.4C316.6 337.3 306.6 321.6 292.9 309.8C279.1 297.9 262.2 290.4 244.2 288.1V354.7H238.4C136.3 354.7 78 284.7 75.6 168.3z"></path>
  </symbol>
    <symbol xmlns="http://www.w3.org/2000/svg" viewBox="0 0 576 512" id="youtube">
    <path d="M549.7 124.1c-6.3-23.7-24.8-42.3-48.3-48.6C458.8 64 288 64 288 64S117.2 64 74.6 75.5c-23.5 6.3-42 24.9-48.3 48.6-11.4 42.9-11.4 132.3-11.4 132.3s0 89.4 11.4 132.3c6.3 23.7 24.8 41.5 48.3 47.8C117.2 448 288 448 288 448s170.8 0 213.4-11.5c23.5-6.3 42-24.2 48.3-47.8 11.4-42.9 11.4-132.3 11.4-132.3s0-89.4-11.4-132.3zm-317.5 213.5V175.2l142.7 81.2-142.7 81.2z"></path>
  </symbol>
   <symbol  xmlns="http://www.w3.org/2000/svg" viewBox="0 0 12 12" id="link">
    <path d="M11.1741 6.01855C10.7179 6.01855 10.3482 5.64959 10.3482 5.19446L10.3482 2.81445L5.49116 7.66072C5.16862 7.98255 4.64568 7.98255 4.32314 7.66072C4.0006 7.3389 4.0006 6.81712 4.32314 6.49529L9.181 1.64817H6.79402C6.33788 1.64817 5.96811 1.27922 5.96811 0.824087C5.96811 0.368957 6.33788 0 6.79402 0H11.0708C11.584 0 12 0.415073 12 0.927097L12 5.19446C12 5.64959 11.6302 6.01855 11.1741 6.01855Z"></path>
    <path d="M1.65183 3.96516C1.65183 2.71355 2.6687 1.69892 3.92309 1.69892C4.37923 1.69892 4.749 1.32997 4.749 0.874838C4.749 0.419708 4.37923 0.0507523 3.92309 0.0507523C1.75643 0.0507523 0 1.80329 0 3.96516V8.08559C0 10.2475 1.75643 12 3.92309 12H8.05265C10.2197 12 11.9757 10.2461 11.9757 8.08459C11.9757 7.62946 11.606 7.2605 11.1498 7.2605C10.6937 7.2605 10.3239 7.62946 10.3239 8.08459C10.3239 9.33654 9.30669 10.3518 8.05265 10.3518H3.92309C2.6687 10.3518 1.65183 9.3372 1.65183 8.08559V3.96516Z" ></path>
  </symbol>
   <symbol xmlns="http://www.w3.org/2000/svg" viewBox="0 0 18 18" id="email">
    <g id="Vector">
      <path d="M0 9C0 5.25027 0 3.3754 0.954915 2.06107C1.26331 1.6366 1.6366 1.26331 2.06107 0.954915C3.3754 0 5.25027 0 9 0C12.7497 0 14.6246 0 15.9389 0.954915C16.3634 1.26331 16.7367 1.6366 17.0451 2.06107C18 3.3754 18 5.25027 18 9C18 12.7497 18 14.6246 17.0451 15.9389C16.7367 16.3634 16.3634 16.7367 15.9389 17.0451C14.6246 18 12.7497 18 9 18C5.25027 18 3.3754 18 2.06107 17.0451C1.6366 16.7367 1.26331 16.3634 0.954915 15.9389C0 14.6246 0 12.7497 0 9Z"></path>
      <path d="M8.66992 7.77588C8.30859 7.77588 8.00586 7.90283 7.76172 8.15674C7.51758 8.41064 7.39551 8.73291 7.39551 9.12354C7.39551 9.51416 7.51758 9.83887 7.76172 10.0977C8.01074 10.3516 8.31348 10.4785 8.66992 10.4785C9.01172 10.4785 9.29736 10.354 9.52686 10.105C9.75635 9.85107 9.87109 9.52393 9.87109 9.12354C9.87109 8.72314 9.75635 8.39844 9.52686 8.14941C9.29736 7.90039 9.01172 7.77588 8.66992 7.77588ZM8.4502 6.34766C8.73828 6.34766 8.99951 6.39893 9.23389 6.50146C9.46826 6.59912 9.63672 6.69922 9.73926 6.80176L9.87109 6.94824V6.42822H11.2993V9.72412C11.2993 9.95361 11.3774 10.1489 11.5337 10.3101C11.6948 10.4712 11.8901 10.5518 12.1196 10.5518C12.8179 10.5518 13.1694 9.95117 13.1743 8.75C13.1743 7.6123 12.752 6.64062 11.9072 5.83496C11.0625 5.0293 10.0103 4.62646 8.75049 4.62646C7.54932 4.62646 6.52393 5.05615 5.67432 5.91553C4.82471 6.7749 4.3999 7.81982 4.3999 9.05029C4.3999 10.2808 4.82471 11.3257 5.67432 12.1851C6.52393 13.0444 7.54932 13.4741 8.75049 13.4741C9.2583 13.4741 9.73682 13.3984 10.186 13.2471C10.6353 13.1006 10.9551 12.9517 11.1455 12.8003L11.4458 12.5732L12.2734 13.6279C12.2441 13.6572 12.1929 13.7012 12.1196 13.7598C12.0513 13.8184 11.9048 13.9209 11.6802 14.0674C11.4556 14.2139 11.2139 14.3433 10.9551 14.4556C10.7012 14.5728 10.374 14.6753 9.97363 14.7632C9.57812 14.856 9.17041 14.9023 8.75049 14.9023C7.72021 14.9023 6.75342 14.6338 5.8501 14.0967C4.95166 13.5645 4.23389 12.8491 3.69678 11.9507C3.16455 11.0474 2.89844 10.0806 2.89844 9.05029C2.89844 8.02002 3.16455 7.05566 3.69678 6.15723C4.23389 5.25391 4.95166 4.53613 5.8501 4.00391C6.75342 3.4668 7.72021 3.19824 8.75049 3.19824C10.4204 3.19824 11.8242 3.74512 12.9619 4.83887C14.1045 5.92773 14.6758 7.23145 14.6758 8.75C14.6758 9.73145 14.4341 10.5029 13.9507 11.0645C13.4722 11.6211 12.8618 11.8994 12.1196 11.8994C11.7681 11.8994 11.4482 11.8262 11.1602 11.6797C10.8721 11.5283 10.6719 11.377 10.5596 11.2256L10.3984 10.9985C10.3594 11.0669 10.2959 11.1523 10.208 11.2549C10.125 11.3574 9.92236 11.4917 9.6001 11.6577C9.28271 11.8188 8.92383 11.8994 8.52344 11.8994C7.79102 11.8994 7.16846 11.6382 6.65576 11.1157C6.14795 10.5884 5.89404 9.92432 5.89404 9.12354C5.89404 8.33252 6.14795 7.67334 6.65576 7.146C7.16357 6.61377 7.76172 6.34766 8.4502 6.34766Z" fill="white"></path>
    </g>
  </symbol>
   <symbol fill="none" xmlns="http://www.w3.org/2000/svg" viewBox="0 0 37 22" id="eye">
    <path d="M18.5007 1C9.82233 1 1.83398 10.7743 1.83398 11C1.83398 11.2257 9.55525 21 18.5007 21C27.4461 21 35.1673 11.2263 35.1673 11C35.1673 10.7737 27.179 1 18.5007 1Z"  stroke-width="2"></path>
    <path d="M14.0562 11C14.0562 8.5454 16.0461 6.55556 18.5007 6.55556C20.9552 6.55556 22.9451 8.5454 22.9451 11C22.9451 13.4546 20.9552 15.4444 18.5007 15.4444C16.0461 15.4444 14.0562 13.4546 14.0562 11Z"  stroke-width="2"></path>
  </symbol>
    <symbol fill="none" xmlns="http://www.w3.org/2000/svg" viewBox="0 0 15 14" id="sort">
    <g id="Vector">
      <path d="M3.38561 0.681699C3.2939 0.570722 3.15521 0.5 3 0.5C2.84479 0.5 2.7061 0.570721 2.61439 0.681698C2.60112 0.692853 2.58822 0.704672 2.57574 0.717157L0.646447 2.64645C0.451184 2.84171 0.451184 3.15829 0.646447 3.35355C0.841709 3.54882 1.15829 3.54882 1.35355 3.35355L2.5 2.20711V13C2.5 13.2761 2.72386 13.5 3 13.5C3.27614 13.5 3.5 13.2761 3.5 13V2.20711L4.64645 3.35355C4.84171 3.54882 5.15829 3.54882 5.35355 3.35355C5.54882 3.15829 5.54882 2.84171 5.35355 2.64645L3.42426 0.717157C3.41178 0.704673 3.39888 0.692853 3.38561 0.681699Z" fill="#4B4B4B"></path>
      <path d="M12 1C12 0.723858 11.7761 0.5 11.5 0.5C11.2239 0.5 11 0.723858 11 1V11.7929L9.85355 10.6464C9.65829 10.4512 9.34171 10.4512 9.14645 10.6464C8.95119 10.8417 8.95119 11.1583 9.14645 11.3536L11.0757 13.2828C11.0882 13.2953 11.1011 13.3071 11.1144 13.3183C11.2061 13.4293 11.3448 13.5 11.5 13.5C11.6552 13.5 11.7939 13.4293 11.8856 13.3183C11.8989 13.3071 11.9118 13.2953 11.9243 13.2828L13.8536 11.3536C14.0488 11.1583 14.0488 10.8417 13.8536 10.6464C13.6583 10.4512 13.3417 10.4512 13.1464 10.6464L12 11.7929V1Z" fill="#4B4B4B"></path>
      <path d="M3.38561 0.681699C3.2939 0.570722 3.15521 0.5 3 0.5C2.84479 0.5 2.7061 0.570721 2.61439 0.681698C2.60112 0.692853 2.58822 0.704672 2.57574 0.717157L0.646447 2.64645C0.451184 2.84171 0.451184 3.15829 0.646447 3.35355C0.841709 3.54882 1.15829 3.54882 1.35355 3.35355L2.5 2.20711V13C2.5 13.2761 2.72386 13.5 3 13.5C3.27614 13.5 3.5 13.2761 3.5 13V2.20711L4.64645 3.35355C4.84171 3.54882 5.15829 3.54882 5.35355 3.35355C5.54882 3.15829 5.54882 2.84171 5.35355 2.64645L3.42426 0.717157C3.41178 0.704673 3.39888 0.692853 3.38561 0.681699Z" stroke="#4B4B4B" stroke-width="0.5" stroke-linecap="round"></path>
      <path d="M12 1C12 0.723858 11.7761 0.5 11.5 0.5C11.2239 0.5 11 0.723858 11 1V11.7929L9.85355 10.6464C9.65829 10.4512 9.34171 10.4512 9.14645 10.6464C8.95119 10.8417 8.95119 11.1583 9.14645 11.3536L11.0757 13.2828C11.0882 13.2953 11.1011 13.3071 11.1144 13.3183C11.2061 13.4293 11.3448 13.5 11.5 13.5C11.6552 13.5 11.7939 13.4293 11.8856 13.3183C11.8989 13.3071 11.9118 13.2953 11.9243 13.2828L13.8536 11.3536C14.0488 11.1583 14.0488 10.8417 13.8536 10.6464C13.6583 10.4512 13.3417 10.4512 13.1464 10.6464L12 11.7929V1Z" stroke="#4B4B4B" stroke-width="0.5" stroke-linecap="round"></path>
    </g>
  </symbol>
</svg>