<svg width="0" height="0" class="hidden">
  <symbol xmlns="http://www.w3.org/2000/svg" viewBox="0 0 17 13" id="arrow-button">
    <path d="M1 5.75C0.585786 5.75 0.25 6.08579 0.25 6.5C0.25 6.91421 0.585786 7.25 1 7.25V5.75ZM16.5303 7.03033C16.8232 6.73744 16.8232 6.26256 16.5303 5.96967L11.7574 1.1967C11.4645 0.903806 10.9896 0.903806 10.6967 1.1967C10.4038 1.48959 10.4038 1.96447 10.6967 2.25736L14.9393 6.5L10.6967 10.7426C10.4038 11.0355 10.4038 11.5104 10.6967 11.8033C10.9896 12.0962 11.4645 12.0962 11.7574 11.8033L16.5303 7.03033ZM1 7.25H16V5.75H1V7.25Z"></path>
  </symbol>
   
   <symbol  xmlns="http://www.w3.org/2000/svg" viewBox="0 0 12 12" id="link">
    <path d="M11.1741 6.01855C10.7179 6.01855 10.3482 5.64959 10.3482 5.19446L10.3482 2.81445L5.49116 7.66072C5.16862 7.98255 4.64568 7.98255 4.32314 7.66072C4.0006 7.3389 4.0006 6.81712 4.32314 6.49529L9.181 1.64817H6.79402C6.33788 1.64817 5.96811 1.27922 5.96811 0.824087C5.96811 0.368957 6.33788 0 6.79402 0H11.0708C11.584 0 12 0.415073 12 0.927097L12 5.19446C12 5.64959 11.6302 6.01855 11.1741 6.01855Z"></path>
    <path d="M1.65183 3.96516C1.65183 2.71355 2.6687 1.69892 3.92309 1.69892C4.37923 1.69892 4.749 1.32997 4.749 0.874838C4.749 0.419708 4.37923 0.0507523 3.92309 0.0507523C1.75643 0.0507523 0 1.80329 0 3.96516V8.08559C0 10.2475 1.75643 12 3.92309 12H8.05265C10.2197 12 11.9757 10.2461 11.9757 8.08459C11.9757 7.62946 11.606 7.2605 11.1498 7.2605C10.6937 7.2605 10.3239 7.62946 10.3239 8.08459C10.3239 9.33654 9.30669 10.3518 8.05265 10.3518H3.92309C2.6687 10.3518 1.65183 9.3372 1.65183 8.08559V3.96516Z" ></path>
  </symbol>
  
   <symbol fill="none" xmlns="http://www.w3.org/2000/svg" viewBox="0 0 37 22" id="eye">
    <path d="M18.5007 1C9.82233 1 1.83398 10.7743 1.83398 11C1.83398 11.2257 9.55525 21 18.5007 21C27.4461 21 35.1673 11.2263 35.1673 11C35.1673 10.7737 27.179 1 18.5007 1Z"  stroke-width="2"></path>
    <path d="M14.0562 11C14.0562 8.5454 16.0461 6.55556 18.5007 6.55556C20.9552 6.55556 22.9451 8.5454 22.9451 11C22.9451 13.4546 20.9552 15.4444 18.5007 15.4444C16.0461 15.4444 14.0562 13.4546 14.0562 11Z"  stroke-width="2"></path>
  </symbol>
    <symbol fill="none" xmlns="http://www.w3.org/2000/svg" viewBox="0 0 15 14" id="sort">
    <g id="Vector">
      <path d="M3.38561 0.681699C3.2939 0.570722 3.15521 0.5 3 0.5C2.84479 0.5 2.7061 0.570721 2.61439 0.681698C2.60112 0.692853 2.58822 0.704672 2.57574 0.717157L0.646447 2.64645C0.451184 2.84171 0.451184 3.15829 0.646447 3.35355C0.841709 3.54882 1.15829 3.54882 1.35355 3.35355L2.5 2.20711V13C2.5 13.2761 2.72386 13.5 3 13.5C3.27614 13.5 3.5 13.2761 3.5 13V2.20711L4.64645 3.35355C4.84171 3.54882 5.15829 3.54882 5.35355 3.35355C5.54882 3.15829 5.54882 2.84171 5.35355 2.64645L3.42426 0.717157C3.41178 0.704673 3.39888 0.692853 3.38561 0.681699Z" fill="#4B4B4B"></path>
      <path d="M12 1C12 0.723858 11.7761 0.5 11.5 0.5C11.2239 0.5 11 0.723858 11 1V11.7929L9.85355 10.6464C9.65829 10.4512 9.34171 10.4512 9.14645 10.6464C8.95119 10.8417 8.95119 11.1583 9.14645 11.3536L11.0757 13.2828C11.0882 13.2953 11.1011 13.3071 11.1144 13.3183C11.2061 13.4293 11.3448 13.5 11.5 13.5C11.6552 13.5 11.7939 13.4293 11.8856 13.3183C11.8989 13.3071 11.9118 13.2953 11.9243 13.2828L13.8536 11.3536C14.0488 11.1583 14.0488 10.8417 13.8536 10.6464C13.6583 10.4512 13.3417 10.4512 13.1464 10.6464L12 11.7929V1Z" fill="#4B4B4B"></path>
      <path d="M3.38561 0.681699C3.2939 0.570722 3.15521 0.5 3 0.5C2.84479 0.5 2.7061 0.570721 2.61439 0.681698C2.60112 0.692853 2.58822 0.704672 2.57574 0.717157L0.646447 2.64645C0.451184 2.84171 0.451184 3.15829 0.646447 3.35355C0.841709 3.54882 1.15829 3.54882 1.35355 3.35355L2.5 2.20711V13C2.5 13.2761 2.72386 13.5 3 13.5C3.27614 13.5 3.5 13.2761 3.5 13V2.20711L4.64645 3.35355C4.84171 3.54882 5.15829 3.54882 5.35355 3.35355C5.54882 3.15829 5.54882 2.84171 5.35355 2.64645L3.42426 0.717157C3.41178 0.704673 3.39888 0.692853 3.38561 0.681699Z" stroke="#4B4B4B" stroke-width="0.5" stroke-linecap="round"></path>
      <path d="M12 1C12 0.723858 11.7761 0.5 11.5 0.5C11.2239 0.5 11 0.723858 11 1V11.7929L9.85355 10.6464C9.65829 10.4512 9.34171 10.4512 9.14645 10.6464C8.95119 10.8417 8.95119 11.1583 9.14645 11.3536L11.0757 13.2828C11.0882 13.2953 11.1011 13.3071 11.1144 13.3183C11.2061 13.4293 11.3448 13.5 11.5 13.5C11.6552 13.5 11.7939 13.4293 11.8856 13.3183C11.8989 13.3071 11.9118 13.2953 11.9243 13.2828L13.8536 11.3536C14.0488 11.1583 14.0488 10.8417 13.8536 10.6464C13.6583 10.4512 13.3417 10.4512 13.1464 10.6464L12 11.7929V1Z" stroke="#4B4B4B" stroke-width="0.5" stroke-linecap="round"></path>
    </g>
  </symbol>

    <symbol fill="none" xmlns="http://www.w3.org/2000/svg" viewBox="0 0 15 14" id="contacts">
    <path d="M14 6.5V1.5C14 0.947715 13.5523 0.5 13 0.5H4C3.44771 0.5 3 0.947715 3 1.5V4.5C3 5.05228 3.44771 5.5 4 5.5H11M1 13.5V8.5C1 7.94772 1.44772 7.5 2 7.5H11C11.5523 7.5 12 7.94772 12 8.5V11.5C12 12.0523 11.5523 12.5 11 12.5H4"  stroke-linecap="round"></path>
  </symbol>
  <symbol fill="none" xmlns="http://www.w3.org/2000/svg" viewBox="0 0 15 14" id="blog">
    <path d="M14 8.5V1.5C14 0.947715 13.5523 0.5 13 0.5H2C1.44771 0.5 1 0.947715 1 1.5V7.5C1 8.05228 1.44771 8.5 2 8.5H11M14 13.5V11.5C14 10.9477 13.5523 10.5 13 10.5H2C1.44771 10.5 1 10.9477 1 11.5V12.5C1 13.0523 1.44771 13.5 2 13.5H11"  stroke-linecap="round"></path>
  </symbol>
  <symbol fill="none" xmlns="http://www.w3.org/2000/svg" viewBox="0 0 15 14" id="media">
    <path d="M9 0.5H13C13.5523 0.5 14 0.947715 14 1.5V2.5C14 3.05228 13.5523 3.5 13 3.5H8C7.44772 3.5 7 3.05228 7 2.5V0.5M9 5.5H13C13.5523 5.5 14 5.94772 14 6.5V7.5C14 8.05228 13.5523 8.5 13 8.5H8C7.44772 8.5 7 8.05228 7 7.5V5.5M9 10.5H13C13.5523 10.5 14 10.9477 14 11.5V12.5C14 13.0523 13.5523 13.5 13 13.5H8C7.44772 13.5 7 13.0523 7 12.5V10.5M2.5 0.5C3.32843 0.5 4 1.17157 4 2C4 2.82843 3.32843 3.5 2.5 3.5C1.67157 3.5 1 2.82843 1 2C1 1.17157 1.67157 0.5 2.5 0.5ZM2.5 5.5C3.32843 5.5 4 6.17157 4 7C4 7.82843 3.32843 8.5 2.5 8.5C1.67157 8.5 1 7.82843 1 7C1 6.17157 1.67157 5.5 2.5 5.5ZM2.5 10.5C3.32843 10.5 4 11.1716 4 12C4 12.8284 3.32843 13.5 2.5 13.5C1.67157 13.5 1 12.8284 1 12C1 11.1716 1.67157 10.5 2.5 10.5Z"  stroke-linecap="round"></path>
  </symbol>
  <symbol fill="none" xmlns="http://www.w3.org/2000/svg" viewBox="0 0 13 14" id="home">
    <path d="M1 10V12.5C1 13.0523 1.44772 13.5 2 13.5H11C11.5523 13.5 12 13.0523 12 12.5V6.88898C12 6.63879 11.9062 6.39769 11.7372 6.21326L7.2293 1.2956C6.83583 0.86636 6.16028 0.862754 5.76225 1.28777L2.28571 5L1.17573 6.29498C1.06233 6.42728 1 6.59578 1 6.77003V6.77003C1 7.17318 1.32682 7.5 1.72997 7.5H9"  stroke-linecap="round"></path>
  <symbol version="1.1" xmlns="http://www.w3.org/2000/svg" viewBox="0 0 2731 1024" id="arrow-long">
    <path  d="M85.333 445.667c-35.346 0-64 28.653-64 64s28.654 64 64 64v-128zM2690.586 554.922c24.994-24.994 24.994-65.516 0-90.51l-407.287-407.294c-24.994-24.994-65.519-24.994-90.513 0s-24.994 65.516 0 90.51l362.035 362.039-362.035 362.039c-24.994 24.994-24.994 65.519 0 90.513s65.519 24.994 90.513 0l407.287-407.297zM85.333 573.667h2560v-128h-2560v128z"></path>
  </symbol>
</svg>