<svg width="254" height="193" viewBox="0 0 254 193" fill="none" xmlns="http://www.w3.org/2000/svg">
<path d="M106.406 17.8273L106.228 15.3623L102.517 15.7656L102.301 17.3468C103.007 17.641 104.328 17.9937 106.405 17.8273H106.406Z" fill="#F19A5E"/>
<path d="M114.365 5.73773C114.466 5.74439 114.537 5.63525 114.486 5.5474C114.096 4.85928 112.884 2.68578 113.036 2.54736C113.217 2.38232 114.348 4.2976 114.572 4.25368C114.795 4.20976 113.645 2.36901 113.867 2.22393C114.09 2.07885 115.082 3.79183 115.198 3.76388C115.314 3.73593 114.537 1.99234 114.617 1.82862C114.697 1.66491 115.751 3.42448 115.901 3.4298C116.05 3.43513 115.728 1.9777 115.849 1.93643C115.97 1.89384 116.045 1.84593 117.714 4.91651L118.69 6.68406L118.267 7.43075L116.817 7.94451C116.817 7.94451 112.723 6.07846 112.694 5.89479C112.666 5.72043 112.793 5.63658 114.363 5.74039L114.365 5.73773Z" fill="#F7C29E"/>
<path d="M109.795 12.1986C109.865 11.1045 109.956 10.0091 109.876 9.05211C109.859 8.84714 109.852 8.64084 109.849 8.43587C109.839 7.60533 109.685 6.74817 109.355 5.89767C108.291 3.15983 105.641 1.41491 102.916 1.66248C99.2452 1.99655 96.7929 5.58755 97.4603 9.39018C97.0354 9.22647 96.5958 9.24777 96.2468 9.49533C95.5795 9.97049 95.5075 11.0952 96.087 12.0056C96.6664 12.916 97.6761 13.2687 98.3434 12.7922C98.4366 12.7256 98.5166 12.6471 98.5858 12.5579C99.4596 15.7417 103.072 17.3322 106.017 16.7718C107.457 16.4977 109.575 15.5939 109.795 12.1986Z" fill="#F7C29E"/>
<path d="M103.375 4.6704C107.789 4.58389 107.765 1.90993 107.765 1.90993L107.647 2.02706C107.319 2.24401 106.624 2.29991 106.624 2.29991C107.384 0.403257 105.102 0.0239258 105.102 0.0239258C105.102 0.0239258 106.624 1.54125 103.202 1.54125C99.7797 1.54125 99.0178 2.67924 99.0178 2.67924C98.9725 2.78572 98.9525 2.88422 98.9552 2.97872C98.9552 2.97872 98.9112 3.15308 99.0004 3.38999C99.0684 3.58964 99.1843 3.77465 99.3201 3.93703C99.4933 4.13801 99.6944 4.32168 99.9209 4.4641C100.368 4.75691 100.876 4.95124 101.393 5.05905C101.521 5.09365 101.652 5.10829 101.782 5.12826C101.912 5.14556 102.043 5.16686 102.173 5.17884L102.566 5.19747C102.697 5.2028 102.827 5.21344 102.958 5.20279C103.219 5.19082 103.479 5.18283 103.737 5.15089C103.994 5.11229 104.251 5.07502 104.506 5.02045C104.246 4.99383 103.989 4.98318 103.733 4.9712C103.605 4.9712 103.477 4.95257 103.351 4.94325C103.224 4.93127 103.096 4.92595 102.97 4.91663C102.717 4.89401 102.466 4.86073 102.215 4.83411L101.843 4.77022C101.719 4.74893 101.594 4.73429 101.474 4.69968L101.109 4.61583L100.753 4.50403C100.66 4.48007 100.574 4.4428 100.486 4.40553C101.138 4.58256 102.064 4.69303 103.379 4.66774L103.375 4.6704Z" fill="#050505"/>
<path d="M103.354 12.228C103.631 12.61 103.964 12.9335 104.374 13.0932C104.576 13.1717 104.795 13.2223 105.02 13.2209C105.133 13.2329 105.245 13.2103 105.361 13.2076C105.475 13.1957 105.589 13.1704 105.71 13.1597C105.605 13.2143 105.497 13.2675 105.383 13.3088C105.268 13.3367 105.152 13.382 105.028 13.3847C104.784 13.4219 104.53 13.3767 104.297 13.2888C104.065 13.1957 103.857 13.0466 103.697 12.8602C103.539 12.6752 103.413 12.461 103.354 12.2294V12.228Z" fill="#434343"/>
<path d="M119.919 181.838V177.974L124.344 176.75L125.328 177.182L125.496 181.838L124.103 185.895L119.919 181.838Z" fill="#F7C29E"/>
<path d="M129.27 103.141L126.402 179.042H119.092L112.65 121.261L121.095 95.373L129.27 103.141Z" fill="#4C5C9E"/>
<path d="M136.786 101.2C135.163 102.646 134.742 102.93 133.095 104.029L133.57 104.538C135.378 108.341 137.304 112.893 137.324 111.867C137.484 110.476 136.569 107.636 138.06 110.11C140.934 114.794 138.822 109.987 138.624 108.529C140.519 110.996 142.399 114.119 139.844 107.982C139.456 106.161 142.746 112.028 142.675 110.858C140.709 104.781 138.279 104.596 142.334 104.996C147.239 105.342 138.178 102.932 136.786 101.2Z" fill="#F7C29E"/>
<path d="M139.103 102.429C138.317 100.032 134.128 85.5987 131.766 77.4371C127.1 52.4758 122.5 50.0547 122.5 50.0547L117.888 70.1739L122.311 82.0143C124.4 91.4138 133.101 105.534 133.101 105.534L139.103 102.43V102.429Z" fill="#282F38"/>
<path d="M91.6514 181.838V177.974L96.075 176.75L97.0593 177.182L97.2272 181.838L95.8339 185.895L91.6514 181.838Z" fill="#F7C29E"/>
<path d="M126.402 102.758L97.765 179.042L90.752 178.469C90.752 178.469 97.2162 109.158 102.44 102.507C107.665 95.8564 121.382 96.6604 121.382 96.6604L126.402 102.758Z" fill="#3A477C"/>
<path d="M108.527 48.3429C108.527 48.3429 96.7891 47.9702 94.181 53.3687C91.5729 58.7672 85.7973 87.9943 97.6282 88.4601C97.6282 88.4601 100.33 88.6465 101.727 86.6913L101.261 105.028C101.261 105.028 119.146 109.59 129.393 105.028C129.393 105.028 129.486 55.2294 122.5 50.0173C122.5 50.0173 119.146 48.6211 108.527 48.3416V48.3429Z" fill="#4B5058"/>
<path d="M110.63 65.957L109.727 67.8989C109.652 68.0587 109.723 68.2503 109.883 68.3249L114.048 70.2481C114.378 70.4012 114.703 70.0298 114.508 69.7237L113.068 66.8594C113.068 66.8594 111.756 67.3692 110.63 65.9584V65.957Z" fill="white"/>
<path d="M108.187 61.9109L111.289 64.0737L110.02 67.1403H113.419L112.641 48.7754L106.917 40.9292H96.6933C96.6933 40.9292 93.619 51.5638 107.592 54.4214L108.185 61.9109H108.187Z" fill="#D47474"/>
<path d="M113.235 23.7996L110.875 18.5702L112.376 18.0817C115.618 17.6731 118.541 15.8643 118.988 15.3013C119.935 14.1074 115.526 7.13832 115.526 7.13832L118.342 6.28516C118.342 6.28516 125.79 14.5 123.261 17.7902C120.732 21.0804 114.016 23.6532 114.016 23.6532L113.237 23.8009L113.235 23.7996Z" fill="#F7C29E"/>
<path d="M117.934 64.5728L117.246 66.5998C117.188 66.7675 117.279 66.9486 117.447 67.0058L122.205 68.6203C122.548 68.7374 122.832 68.3328 122.606 68.0506L120.576 65.4685C120.576 65.4685 119.206 65.8545 117.936 64.5728H117.934Z" fill="white"/>
<path d="M117.376 44.4921C117.376 44.4921 122.607 46.619 122.499 56.5135L121.396 66.1259C121.396 66.1259 117.452 64.8175 117.693 64.8175C117.934 64.8175 115.501 51.6887 115.501 51.6887L113.42 45.9215L117.376 44.4907V44.4921Z" fill="#D47474"/>
<path d="M99.1359 24.2749C95.5062 25.9053 87.1878 36.9445 84.4958 40.6047L84.4252 40.7618L83.9323 42.5986C83.4928 44.0826 83.1158 45.6891 82.9759 45.733C82.7801 45.7943 82.6629 45.6638 82.5111 43.8523C82.5017 43.7352 82.3646 43.674 82.2713 43.7459C81.5494 44.3089 79.2676 46.0644 79.0811 45.914C78.86 45.7344 80.862 44.1159 80.7728 43.867C80.6849 43.6181 78.7734 45.2472 78.5683 45.017C78.3632 44.7867 80.1561 43.3612 80.1041 43.2334C80.0522 43.107 78.1874 44.2902 77.9849 44.2264C77.7838 44.1638 79.6193 42.6585 79.5993 42.4868C79.5793 42.3151 77.9649 42.9326 77.8956 42.8009C77.8264 42.6691 77.536 42.9686 80.7688 40.5395C80.7688 40.5395 81.5946 39.9512 81.925 39.7463L82.3965 38.748C85.596 29.9049 97.0913 19.667 97.0913 19.667L99.1319 24.2722L99.1359 24.2749Z" fill="#F7C29E"/>
<path d="M108.853 44.4922L108.396 48.541L108.65 48.8578C110.292 50.9195 112.881 51.9896 115.5 51.6888L114.561 44.7664L108.853 44.4922Z" fill="#F7C29E"/>
<path d="M115.159 49.1734L114.561 44.7678L108.853 44.4937L108.602 46.731C109.643 47.6228 111.746 48.9618 115.159 49.1734Z" fill="#E2A57C"/>
<path d="M102.005 19.519C102.005 19.519 96.4079 18.4023 94.242 21.0084C92.2786 23.3709 89.5227 25.7866 89.7092 25.7241C89.8943 25.6615 93.6213 29.8195 93.6213 29.8195L96.9127 26.5306L95.919 41.3618H114.271L111.703 24.5049C111.703 24.5049 112.624 24.421 115.334 23.6757L113.4 17.3774C113.4 17.3774 108.277 19.1463 105.793 19.3327C103.309 19.519 102.005 19.519 102.005 19.519Z" fill="#FF8D06"/>
<path d="M119.173 36.771C119.041 37.7746 119.586 38.673 120.389 38.7781C121.194 38.8833 121.953 38.1565 122.085 37.153C122.217 36.1494 121.673 35.251 120.869 35.1459C120.064 35.0407 119.305 35.7674 119.173 36.771Z" fill="#E2A57C"/>
<path d="M120.305 42.1417C120.429 41.6918 120.511 41.2273 120.55 40.7535C120.679 39.4744 120.574 38.178 120.395 37.072C120.357 36.8337 120.333 36.5955 120.313 36.3559C120.233 35.387 119.972 34.4074 119.488 33.4544C117.935 30.3904 114.481 28.6775 111.097 29.3004C106.536 30.1389 103.761 34.6296 104.904 38.9859C104.361 38.8475 103.81 38.9261 103.396 39.2575C102.601 39.8937 102.602 41.214 103.4 42.2056C104.198 43.1972 105.489 43.4847 106.284 42.8485C106.395 42.7606 106.488 42.6581 106.568 42.545C107.92 46.1533 111.715 48.219 115.351 47.2035C117.129 46.707 118.556 45.561 119.467 44.077C119.531 43.9878 119.595 43.8853 119.66 43.7695C119.948 43.2597 120.156 42.7114 120.303 42.1444L120.305 42.1417Z" fill="#F7C29E"/>
<path d="M118.599 25.7666C116.966 25.0838 114.057 24.6578 111.204 24.9946C111.804 24.4489 112.158 24.0323 111.974 23.9311C110.474 23.1139 106.409 26.3069 105.119 27.3717C104.804 27.0536 103.729 26.0913 102.835 26.7262C101.776 27.4795 104.066 28.1091 104.066 28.1091C104.066 28.1091 102.546 28.4951 102.3 29.3642C102.117 30.0071 103.047 29.7648 103.544 29.5958C103.389 29.6703 103.181 29.8181 102.971 30.0497C102.971 30.0497 101.074 32.0901 101.412 33.075C101.494 33.3133 101.708 33.3053 101.984 33.1575C101.873 34.241 101.722 36.2867 102.132 36.4956C102.366 36.6154 102.557 36.4704 102.701 36.2601C103.203 37.8226 103.817 39.0192 103.817 39.0192C105.627 38.4615 107.453 40.241 107.453 40.241C106.686 37.8186 107.866 32.874 107.866 32.874C107.866 32.874 115.347 34.8492 113.892 32.9326C113.892 32.9326 122.571 34.5777 120.271 30.831C120.271 30.831 123.396 30.1721 119.244 27.5687C119.244 27.5687 121.523 26.9911 118.602 25.7679L118.599 25.7666Z" fill="#050505"/>
<path d="M113.42 42.4012C113.692 43.072 114.583 43.4873 115.565 43.3529C116.548 43.2184 117.294 42.5809 117.375 41.8608L113.419 42.4012H113.42Z" fill="white"/>
<path d="M106.29 45.9229C106.756 45.9229 112.589 47.5094 112.768 51.7393C112.946 55.9691 105.265 50.0183 105.265 50.0183L106.289 45.9229H106.29Z" fill="#D47474"/>
<path d="M102.518 15.7657L102.007 19.5204C102.007 19.5204 104.804 21.461 106.51 19.2503L106.229 15.3638L102.518 15.7671V15.7657Z" fill="#F7C29E"/>
<path d="M107.052 61.1161C108.949 62.1756 109.356 62.4804 110.933 63.6783L111.26 63.0634C114.266 60.1152 117.942 56.8077 116.966 57.1245C115.598 57.428 113.211 59.2208 115.064 57.0021C118.555 52.7576 114.7 56.3219 113.383 56.9861C115.098 54.3893 117.436 51.5956 112.468 56.0131C110.872 56.9741 115.348 51.951 114.263 52.3995C109.158 56.2421 109.776 58.5966 108.83 54.6356C107.554 49.8893 108.235 59.2341 107.052 61.1148V61.1161Z" fill="#F7C29E"/>
<path d="M111.457 63.8236C111.096 63.5201 110.732 63.2207 110.351 62.9438C109.973 62.663 109.587 62.3955 109.192 62.1399C108.798 61.8844 108.399 61.6381 107.991 61.4039C107.583 61.1696 107.173 60.946 106.746 60.7371L106.631 60.6812L106.54 60.7623C106.223 61.0472 105.986 61.3506 105.739 61.6568C105.493 61.9629 105.26 62.2757 105.029 62.5898C104.568 63.218 104.12 63.8542 103.677 64.4931C102.8 65.7775 101.945 67.0752 101.097 68.3769C100.795 68.8388 100.497 69.3033 100.199 69.7665C100.281 69.3113 100.34 68.8561 100.388 68.3982C100.448 67.8419 100.484 67.2855 100.514 66.7292C100.537 66.1715 100.556 65.6138 100.549 65.0548C100.545 64.4958 100.526 63.9367 100.468 63.3751C100.355 63.9288 100.281 64.4838 100.224 65.0388C100.164 65.5952 100.128 66.1515 100.096 66.7079C100.072 67.2655 100.055 67.8232 100.062 68.3822C100.064 68.88 100.082 69.3778 100.127 69.8783C99.6087 70.6835 99.0932 71.4901 98.5857 72.3033C97.7612 73.6197 96.938 74.9374 96.1348 76.267L98.7189 72.3898L101.318 68.5233C102.189 67.2389 103.068 65.9585 103.966 64.6941C104.412 64.0592 104.861 63.4283 105.323 62.8081C105.555 62.498 105.788 62.1892 106.029 61.891C106.241 61.6288 106.462 61.3613 106.694 61.1417C107.063 61.3293 107.432 61.5317 107.793 61.7419C108.192 61.9749 108.585 62.2198 108.971 62.474C109.358 62.7269 109.736 62.9931 110.105 63.2699C110.439 63.5162 110.759 63.7797 111.075 64.0472C110.426 65.9492 109.761 67.8485 109.077 69.7385C108.38 71.6751 107.647 73.5997 106.917 75.5243C106.181 77.4463 105.419 79.3589 104.593 81.2422C104.184 82.1859 103.761 83.1243 103.301 84.044C103.069 84.5032 102.831 84.9583 102.572 85.4029C102.318 85.8501 102.041 86.284 101.724 86.69C102.39 85.902 102.908 84.9996 103.401 84.0945C103.89 83.1868 104.344 82.2591 104.782 81.3261C105.647 79.4534 106.446 77.5514 107.22 75.6414C107.999 73.7328 108.718 71.8002 109.436 69.869C110.149 67.935 110.847 65.9971 111.517 64.0446L111.563 63.9101L111.457 63.8196V63.8236Z" fill="white"/>
<path d="M104.444 188.574L90.0986 188.13C89.7522 188.119 89.4818 187.83 89.4925 187.484L89.5018 187.166C89.5125 186.82 89.8015 186.548 90.1478 186.56L104.494 187.005C104.84 187.016 105.11 187.304 105.1 187.651L105.09 187.969C105.08 188.315 104.791 188.585 104.444 188.574Z" fill="#262626"/>
<path d="M90.382 181.8L89.7293 186.147C89.6494 186.683 89.9344 187.181 90.33 187.193L104.075 187.619C104.432 187.629 104.792 187.418 104.993 187.005C105.198 186.582 105.257 185.936 104.669 185.049C103.505 183.29 99.5449 182.734 97.5908 181.226C97.5509 181.195 97.5029 181.178 97.4523 181.175L91.1279 180.98C90.7709 180.969 90.4539 181.316 90.382 181.801V181.8Z" fill="#545454"/>
<path d="M133.085 188.574L118.739 188.13C118.393 188.119 118.122 187.83 118.133 187.484L118.142 187.166C118.153 186.82 118.442 186.548 118.788 186.56L133.134 187.005C133.481 187.016 133.752 187.304 133.74 187.651L133.731 187.969C133.72 188.315 133.431 188.585 133.085 188.574Z" fill="#262626"/>
<path d="M119.023 181.8L118.37 186.147C118.29 186.683 118.575 187.181 118.971 187.193L132.716 187.619C133.073 187.629 133.432 187.418 133.633 187.005C133.839 186.582 133.897 185.936 133.31 185.049C132.146 183.29 128.186 182.734 126.231 181.226C126.192 181.195 126.144 181.178 126.093 181.175L119.769 180.98C119.41 180.969 119.095 181.316 119.023 181.801V181.8Z" fill="#545454"/>
<path d="M125.122 183.679C125.025 183.615 124.993 183.446 125.056 183.321C125.343 182.731 126.233 181.303 127.939 181.654C128.038 181.674 128.101 181.809 128.081 181.943V181.947C128.059 182.078 127.967 182.162 127.872 182.142C126.341 181.832 125.584 183.092 125.35 183.586C125.301 183.691 125.202 183.731 125.122 183.678V183.679Z" fill="white"/>
<path d="M54.0311 188.502C54.0311 188.502 76.8511 167.454 68.9883 160.47C68.9883 160.47 67.9973 157.364 59.4431 165.378C59.4431 165.378 55.174 165.761 56.0438 160.781C56.9136 155.8 65.0802 149.973 61.8847 144.645C58.6892 139.317 54.841 146.45 51.5949 147.161C48.3487 147.873 54.099 128.6 50.5159 125.459C46.9328 122.318 44.1076 129.778 41.6394 130.101C39.1712 130.425 37.5581 105.843 25.7738 107.321C13.9895 108.8 24.4671 120.529 28.4885 127.157C32.5098 133.785 22.4331 128.084 19.8051 134.571C17.177 141.059 37.5488 140.502 34.348 146.645C31.1472 152.791 26.4918 147.632 24.3739 152.292C20.9493 159.825 41.6327 157.031 39.985 162.399C38.6717 166.681 32.4285 162.046 30.9434 165.235C29.4582 168.424 38.6837 183.575 54.0324 188.498L54.0311 188.502Z" fill="#78BEC2"/>
<g style="mix-blend-mode:color-dodge" opacity="0.64">
<path d="M69.5072 161.004C69.4419 160.925 69.3727 160.849 69.3008 160.774C68.7426 161.736 68.0859 162.775 67.3294 163.836C64.5468 167.737 59.7902 172.747 52.901 174.553C52.1431 170.514 51.0535 166.209 49.6349 161.66C53.4765 152.131 57.9653 147.408 61.0543 145.123C61.322 144.924 61.5831 144.742 61.8388 144.573C61.7842 144.484 61.7296 144.398 61.6736 144.317C61.4246 144.484 61.1715 144.661 60.9104 144.852C57.8175 147.134 53.3432 151.821 49.4977 161.221C49.4911 161.202 49.4857 161.182 49.4804 161.164C48.0059 156.497 46.189 151.57 44.0471 146.428C44.0871 145.974 44.4867 141.647 45.6362 136.629C46.4621 133.025 47.8114 128.51 49.8827 125.009C49.7934 124.959 49.7055 124.917 49.6176 124.88C47.5357 128.415 46.1824 132.94 45.3538 136.556C44.3908 140.758 43.9526 144.478 43.8087 145.865C42.165 141.951 40.3348 137.913 38.3248 133.772C32.7197 122.222 27.0134 112.559 24.0057 107.665C23.9058 107.693 23.8072 107.72 23.7127 107.75C26.7017 112.609 32.436 122.308 38.0691 133.914C39.0161 135.867 39.9858 137.925 40.9542 140.065C39.9405 139.596 36.9049 138.253 32.8516 137.009C29.4363 135.96 24.757 134.825 19.8219 134.527C19.8152 134.542 19.8085 134.557 19.8019 134.573C19.7672 134.66 19.7366 134.746 19.71 134.83C24.6504 135.117 29.3457 136.255 32.7663 137.306C37.4057 138.73 40.7038 140.282 41.1474 140.495C43.2866 145.246 45.4178 150.395 47.3092 155.693C40.8397 153.098 29.6734 152.845 24.1416 152.897C24.1096 153.003 24.083 153.106 24.0603 153.207C29.6121 153.151 41.0301 153.396 47.4478 156.081C50.1211 163.627 52.2936 171.461 53.298 178.874C47.501 178.42 41.4697 174.07 37.4111 170.479C34.9002 168.258 32.8196 166.047 31.4743 164.535C31.3984 164.597 31.3264 164.667 31.2598 164.743C32.6105 166.263 34.7004 168.483 37.2232 170.715C41.3298 174.35 47.4478 178.755 53.3419 179.189C53.7602 182.377 53.96 185.483 53.8867 188.453C53.9347 188.469 53.9826 188.485 54.0306 188.501C54.0306 188.501 54.0812 188.454 54.1771 188.364C54.269 184.283 53.8614 179.768 52.957 174.858C53.4059 174.741 53.8521 174.609 54.2943 174.463C56.8704 173.607 59.32 172.256 61.5937 170.433C63.7542 168.701 65.7629 166.542 67.5638 164.017C68.3071 162.974 68.9531 161.953 69.5072 161.004Z" fill="white"/>
</g>
<path d="M56.7121 185.638C56.7121 185.638 53.3089 165.898 32.9091 153.835L33.4725 161.188L30.5568 152.891C30.5568 152.891 18.4341 146.418 8.8623 144.33C8.8623 144.33 20.3696 164.856 24.1631 168.467L30.8858 170.353L25.2207 172.913C25.2207 172.913 31.3879 184.497 41.5951 189.579C51.8024 194.66 56.7108 185.638 56.7108 185.638H56.7121Z" fill="#AEEEF2"/>
<path d="M-0.000621113 171.093C2.72467 177.362 6.32377 181.878 10.3518 185.087C12.6921 183.559 15.5107 181.798 15.5107 181.798L13.2236 187.117C29.646 197.373 51.0567 189.256 51.0567 189.256C45.2798 175.366 38.027 168.463 30.8181 165.511C29.554 167.119 27.6972 169.536 27.6972 169.536L28.4591 164.679C24.8414 163.608 21.2769 163.456 17.9589 163.835C17.5766 166.361 17.0824 169.218 17.0824 169.218L14.7847 164.364C6.23719 166.23 -0.00195312 171.093 -0.00195312 171.093H-0.000621113Z" fill="#99DADE"/>
<path d="M30.8201 165.511C29.556 167.119 27.6992 169.536 27.6992 169.536L28.4611 164.679C24.8433 163.608 21.2789 163.456 17.9608 163.835C17.5786 166.361 17.0844 169.218 17.0844 169.218L14.7867 164.364C6.23914 166.23 0 171.093 0 171.093C18.2352 184.957 51.0573 189.256 51.0573 189.256C45.2804 175.366 38.0276 168.463 30.8187 165.511H30.8201Z" fill="#78BEC2"/>
<path d="M234.101 76.4107C225.658 73.3335 225.379 87.6775 225.454 91.54C222.36 92.7353 219.609 94.1009 217.195 95.525C218.846 91.1235 222.734 88.9925 222.962 85.9166C223.217 82.468 221.314 78.7293 216.85 83.067C213.314 86.5036 215.287 93.3821 216.26 96.092C212.127 98.6462 209.04 101.327 206.91 103.479C208.111 98.1258 212.343 95.1324 212.24 91.6119C212.127 87.76 209.611 83.9068 205.203 89.3665C201.559 93.8799 204.93 101.645 206.209 104.204C204.307 106.218 203.342 107.632 203.241 107.783C201.282 110.626 199.541 113.471 197.992 116.295C198.947 111.557 202.066 108.24 201.579 105.064C200.994 101.252 198.041 97.8236 194.363 103.955C191.454 108.807 195.249 115.596 196.961 118.221C193.855 124.194 191.599 130.047 189.969 135.561C189.394 131.066 191.481 124.26 189.671 120.337C188.484 117.764 186.679 117.457 185.366 117.658C184.243 117.83 183.285 118.571 182.718 119.676C179.509 125.917 187.238 134.215 189.667 136.599C187.734 143.41 186.752 149.67 186.298 154.955C185.982 152.632 185.522 149.125 185.354 147.292C185.09 144.404 183.404 140.625 181.178 139.416C181.085 139.365 180.993 139.32 180.902 139.279C179.165 138.485 177.24 139.352 176.313 141.149C172.685 148.178 183.723 155.469 186.146 156.959C186.144 156.995 186.141 157.034 186.138 157.07C185.29 170.412 187.422 179.255 187.513 179.625L188.702 179.28C188.681 179.195 186.656 170.774 187.309 158.288C198.378 154.518 200.146 146.431 198.1 143.981C195.984 141.448 191.385 141.314 190.361 147.101C189.767 150.457 188.453 153.804 187.456 156.024C187.863 150.701 188.814 144.29 190.787 137.279C206.314 138.158 205.635 127.184 202.154 125.307C198.633 123.408 196.463 125.464 194.798 130.02C193.692 133.047 192.036 135.234 191.048 136.365C192.629 130.952 194.826 125.197 197.853 119.316C200.076 121.268 206.069 125.816 210.41 122.524C215.835 118.41 212.865 115 209.528 114.287C206.461 113.63 203.188 117.976 198.297 118.466C200.007 115.224 201.969 111.947 204.227 108.67C204.263 108.615 206.197 105.78 210.21 102.277C212.232 104.545 217.663 109.838 222.328 107.224C228.186 103.942 225.606 100.142 222.364 98.9563C219.47 97.8968 215.862 101.468 211.151 101.476C214.619 98.5969 219.443 95.3946 225.703 92.9496C227.816 95.2854 233.128 100.323 237.699 97.7611C243.557 94.4775 240.977 90.6789 237.735 89.493C234.801 88.4189 231.132 92.1084 226.322 92.0139L226.278 91.8715C227.737 90.7494 230.841 88.3803 232.379 87.3368C234.432 85.9432 236.444 82.7981 236.243 80.1308C236.042 77.4622 234.103 76.4147 234.103 76.4147L234.101 76.4107Z" fill="#39B8A2"/>
<path d="M251.882 120.035C252.721 131.519 250.775 141.215 247.097 149.385C242.206 149.199 236.38 149.092 236.38 149.092L244.267 154.833C226.981 184.028 186.993 190.856 186.993 190.856C184.725 165.636 190.431 149.295 199.277 138.732C202.556 139.97 207.413 141.868 207.413 141.868L202.28 135.471C207.053 130.767 212.49 127.445 217.972 125.109C220.62 128.449 223.71 132.171 223.71 132.171L223.352 123.115C238.198 118.392 251.879 120.034 251.879 120.034L251.882 120.035Z" fill="#99DADE"/>
<path d="M199.278 138.732C202.558 139.97 207.414 141.868 207.414 141.868L202.282 135.471C207.054 130.767 212.492 127.445 217.973 125.109C220.621 128.449 223.711 132.171 223.711 132.171L223.353 123.115C238.199 118.392 251.881 120.034 251.881 120.034C234.698 156.052 186.993 190.855 186.993 190.855C184.725 165.635 190.431 149.293 199.277 138.731L199.278 138.732Z" fill="#78BEC2"/>
<path d="M253.773 160.236C246.686 158.945 240.173 159.299 234.279 160.705C233.419 163.377 232.325 166.553 232.325 166.553L230.272 161.848C208.38 169.126 196.09 190.371 196.09 190.371C211.568 193.436 223.028 191.521 231.467 187.479C231.339 185.606 231.108 182.827 231.108 182.827L234.124 186.083C238.048 183.829 241.23 181.114 243.801 178.303C242.22 176.621 240.486 174.669 240.486 174.669L246.135 175.521C252.081 167.792 253.773 160.234 253.773 160.234V160.236Z" fill="#78BEC2"/>
<path d="M231.467 187.479C231.339 185.606 231.108 182.827 231.108 182.827L234.124 186.083C238.048 183.83 241.23 181.114 243.801 178.303C242.22 176.621 240.486 174.67 240.486 174.67L246.135 175.522C252.081 167.793 253.773 160.234 253.773 160.234C227.593 166.961 196.09 190.37 196.09 190.37C211.568 193.435 223.028 191.52 231.467 187.478V187.479Z" fill="#99DADE"/>
<path d="M207.776 186.426L212.767 183.17L217.215 185.702L215.712 186.829L210.42 187.713C210.42 187.713 208.341 187.501 208.248 187.442C208.155 187.383 207.776 186.425 207.776 186.425V186.426Z" fill="#F7C29E"/>
<path d="M207.776 186.426L206.512 187.285C205.926 187.675 206.214 188.588 206.917 188.573L216.647 188.369C216.991 188.363 217.263 188.078 217.256 187.736L217.214 185.701C210.776 187.898 208.525 187.316 207.776 186.425V186.426Z" fill="#232323"/>
<path d="M217.215 179.272L212.895 182.12L212.768 183.17L213.533 185.131L217.215 185.702V179.272Z" fill="#F7C29E"/>
<path d="M191.843 186.426L196.834 183.17L201.281 185.702L199.779 186.829L194.487 187.713C194.487 187.713 192.408 187.501 192.314 187.442C192.221 187.383 191.843 186.425 191.843 186.425V186.426Z" fill="#F7C29E"/>
<path d="M191.843 186.426L190.579 187.285C189.992 187.675 190.28 188.588 190.984 188.573L200.714 188.369C201.057 188.363 201.329 188.078 201.323 187.736L201.28 185.701C194.842 187.898 192.591 187.316 191.843 186.425V186.426Z" fill="#232323"/>
<path d="M201.282 179.272L196.962 182.12L196.834 183.17L197.6 185.131L201.282 185.702V179.272Z" fill="#F7C29E"/>
<path d="M213.355 46.1281L213.59 46.6897C216.053 52.5993 219.05 58.2773 222.634 63.5826C225.477 67.7899 227.938 73.1258 223.447 74.5859C223.447 74.5859 224.295 81.9356 218.921 82.6903C218.921 82.6903 220.43 88.6265 213.923 88.6265C207.416 88.6265 198.825 88.4268 198.825 88.4268C198.825 88.4268 191.313 90.1225 192.351 83.6206C192.351 83.6206 186.338 82.5811 190.666 70.6249C192.997 64.1869 194.425 57.4627 194.995 50.6401C195.231 47.8251 195.685 45.1857 196.53 43.739C198.93 39.6262 209.397 36.6102 213.358 46.1281H213.355Z" fill="#292727"/>
<path d="M198.047 103.877L196.594 182.119H201.541C201.541 182.119 209.678 161.639 209.678 152.217C209.678 142.795 210.732 114.714 210.732 114.714L206.128 100.768L200.289 98.5063L198.047 103.877Z" fill="#1D6180"/>
<path d="M201.003 102.59C201.003 102.59 206.661 146.564 208.799 156.741C210.937 166.918 212.461 182.12 212.461 182.12H217.601C217.601 182.12 221.75 163.023 217.601 146.187C217.601 146.187 216.092 142.921 218.733 132.241C221.373 121.562 223.763 112.516 216.722 100.391L209.933 96.8105L201.006 102.59H201.003Z" fill="#307A9C"/>
<path d="M161.62 66.21C161.843 66.0796 164.392 66.9793 164.42 66.8129C164.448 66.6479 161.916 65.4394 162.096 65.1093C162.275 64.7792 165.005 66.1967 165.042 65.8759C165.078 65.5565 162.246 64.1749 162.459 63.9007C162.638 63.6705 165.845 65.1386 166.86 65.6111C166.991 65.6723 167.137 65.5618 167.116 65.4194C166.794 63.2206 166.899 63.0316 167.148 63.0516C167.326 63.0662 168.222 64.8777 169.155 66.5241L170.241 68.5565C170.724 69.0091 182.285 78.0491 183.902 78.3459C184.695 78.491 191.323 73.4279 191.323 73.4279L197.199 77.0815C197.199 77.0815 186.176 85.3642 183.513 84.8957C180.784 84.4152 167.557 70.4692 167.557 70.4692C167.105 70.3148 165.958 69.8409 165.958 69.8409C161.434 67.8311 161.863 68.1093 161.909 67.9323C161.956 67.7566 164.05 68.0508 164.026 67.8405C164.002 67.6302 161.396 66.3404 161.62 66.21Z" fill="#F7C29E"/>
<path d="M185.08 77.0574C190.702 72.2845 197.845 65.4512 200.569 64.059C202.152 63.2484 203.339 64.2334 204.007 65.1331C204.847 66.2671 205.079 67.7378 204.722 69.1034C203.229 74.82 194.692 80.9133 189.099 84.1995C187.875 82.0965 186.118 79.6848 185.081 77.0561L185.08 77.0574Z" fill="#D47474"/>
<path d="M214.96 76.0621L218.392 101.01C218.392 101.01 203.455 105.839 198.048 105.305C198.048 105.305 198.488 85.0449 197.609 82.2818C196.748 79.5785 191.471 75.9822 200.406 64.1244C200.563 63.9155 201.35 63.4856 201.962 63.4643L208.674 63.2207L212.152 63.2699L214.961 76.0634L214.96 76.0621Z" fill="#EE9494"/>
<path d="M205.045 84.4179C206.517 77.1947 207.922 66.6053 209.193 64.6368C210.157 63.1421 211.48 63.0636 212.56 63.3604C213.923 63.7331 215.014 64.7486 215.577 66.0423C217.936 71.4594 214.835 81.913 212.468 87.9504C210.205 87.0519 207.485 85.8461 205.046 84.4193L205.045 84.4179Z" fill="#D47474"/>
<path d="M206.812 58.1216L207.16 63.2219C207.16 63.2219 204.115 65.4753 202.169 63.4548L202.086 58.7365L206.812 58.1216Z" fill="#F7C29E"/>
<path d="M202.137 61.6246L202.086 58.7364L206.812 58.1201L206.913 59.6068C205.987 60.3562 204.373 61.3584 202.137 61.6246Z" fill="#E2A57C"/>
<path d="M211.675 52.7083C211.675 52.7083 213.971 46.9877 210.69 44.2911C207.41 41.5945 203.584 41.3336 200.823 42.3159C198.062 43.2995 195.894 47.725 196.698 50.5268L205.61 49.1465L211.675 52.7069V52.7083Z" fill="#292727"/>
<path d="M196.795 55.1817C196.576 54.1102 196.562 53.0095 196.627 52.0618C196.64 51.8582 196.643 51.6545 196.64 51.4509C196.631 50.627 196.779 49.7818 197.122 48.9433C198.229 46.2467 201.108 44.5577 204.121 44.8452C208.179 45.2312 210.975 48.8275 210.333 52.5862C210.798 52.4305 211.284 52.4585 211.675 52.7087C212.423 53.1905 212.53 54.3045 211.913 55.199C211.298 56.0921 210.191 56.4261 209.443 55.9443C209.34 55.8778 209.249 55.7979 209.17 55.7087C208.285 58.8499 205.136 60.861 201.872 60.2607C199.38 59.8015 197.29 57.8703 196.796 55.183L196.795 55.1817Z" fill="#F7C29E"/>
<path d="M113.93 98.6102C113.93 98.6102 118.471 96.7375 120.946 101.134C120.946 101.134 124.092 100.077 126.769 103.765C126.769 103.765 130.572 103.772 132.285 106.699C132.285 106.699 135.276 106.359 137.62 109.33C137.62 109.33 140.502 109.544 141.797 112.479C141.797 112.479 145.094 113.023 146.171 116.026C147.25 119.029 139.684 116.557 139.684 116.557L116.108 105.555L113.929 98.6102H113.93Z" fill="#F2F7FF"/>
<path d="M210.333 52.5848C210.333 52.5848 205.925 50.1571 203.82 47.0799C203.82 47.0799 203.673 48.5919 204.125 49.1895C203.946 49.2733 200.897 47.6136 200.47 45.1526C200.042 42.6916 204.319 44.189 204.319 44.189C204.319 44.189 206.872 44.1277 206.975 44.1956C207.078 44.2635 208.727 45.5319 208.797 45.6224C208.869 45.7129 210.783 49.2214 210.783 49.2214L211.221 50.4898L211.673 52.7073L210.332 52.5848H210.333Z" fill="#292727"/>
<path d="M170.617 141.741H134.67C123.466 141.741 114.369 132.651 114.369 121.455V119.202L190.92 119.202V121.455C190.92 132.651 181.824 141.741 170.619 141.741H170.617Z" fill="#4487A6"/>
<path opacity="0.5" d="M122.069 119.201C124.213 128.046 132.186 134.615 141.698 134.615H177.852C181.6 134.615 185.11 133.594 188.118 131.816C184.602 137.756 178.128 141.741 170.72 141.741H134.567C123.411 141.741 114.368 132.705 114.368 121.558V119.201H122.067H122.069Z" fill="#2C6C89"/>
<path d="M146.284 117.827L115.091 102.321L114.368 117.586L130.133 119.203L146.284 117.827Z" fill="#387998"/>
<path d="M113.882 120.852L191.588 120.852C192.152 120.852 192.609 120.395 192.609 119.831V118.607C192.609 118.043 192.152 117.586 191.588 117.586L113.882 117.586C113.318 117.586 112.861 118.043 112.861 118.607V119.831C112.861 120.395 113.318 120.852 113.882 120.852Z" fill="#1F265C"/>
<path d="M203.496 55.8927C203.339 55.9846 203.176 56.0671 203.008 56.135C202.842 56.2068 202.671 56.2681 202.497 56.3147C202.149 56.4092 201.788 56.4611 201.429 56.4424C201.069 56.4251 200.716 56.3346 200.386 56.1882C200.058 56.0365 199.757 55.8288 199.479 55.5933C199.598 55.729 199.73 55.8581 199.873 55.9739C200.015 56.0911 200.138 56.2242 200.3 56.3147C200.467 56.4012 200.63 56.4991 200.813 56.5497C200.995 56.5976 201.239 56.6826 201.429 56.6946C201.807 56.7106 202.179 56.5343 202.53 56.4118C202.88 56.2907 203.213 56.1203 203.496 55.8914V55.8927Z" fill="#4E4C4B"/>
<path d="M147.865 142.522L174.313 172.212C175.011 173.002 174.938 174.207 174.147 174.906C173.357 175.604 172.15 175.529 171.451 174.74L143.27 143.329C144.669 142.763 147.778 143.486 147.864 142.522H147.865Z" fill="#F2F7FF"/>
<path d="M176.595 143.391H125.77C125.2 143.391 124.738 142.929 124.738 142.36V141.122C124.738 140.552 125.2 140.09 125.77 140.09H176.595C177.165 140.09 177.627 140.552 177.627 141.122V142.36C177.627 142.929 177.165 143.391 176.595 143.391Z" fill="#F2F7FF"/>
<path d="M114.296 173.522L189.17 107.62C189.96 106.921 190.035 105.716 189.337 104.926C188.639 104.136 187.432 104.062 186.641 104.759L111.767 170.662C110.977 171.359 110.902 172.565 111.6 173.356C112.298 174.145 113.507 174.219 114.296 173.522Z" fill="#F2F7FF"/>
<path d="M135.078 148.976L153.642 132.635C154.24 132.11 155.148 132.155 155.69 132.739L157.269 134.44C157.831 135.046 157.783 135.995 157.162 136.54L149.526 143.262L156.13 150.675C156.666 151.277 156.616 152.197 156.019 152.738L154.188 154.4C153.585 154.947 152.651 154.899 152.107 154.292L145.439 146.86L138.635 152.848C138.047 153.365 137.156 153.331 136.609 152.768L134.992 151.101C134.409 150.5 134.446 149.532 135.076 148.978L135.078 148.976Z" fill="#3A3535"/>
<path d="M143.776 118.889C143.776 120.658 145.212 122.093 146.983 122.093C148.753 122.093 150.189 120.658 150.189 118.889C150.189 117.12 148.753 115.686 146.983 115.686C145.212 115.686 143.776 117.12 143.776 118.889Z" fill="black"/>
<path d="M144.716 118.889C144.716 120.14 145.731 121.154 146.983 121.154C148.235 121.154 149.25 120.14 149.25 118.889C149.25 117.638 148.235 116.624 146.983 116.624C145.731 116.624 144.716 117.638 144.716 118.889Z" fill="#F2F7FF"/>
<path d="M162.765 176.979L172.755 173.818L163.455 168.995L163.693 168.534L172.993 173.358L169.831 163.377L170.325 163.22L173.489 173.202L178.316 163.909L178.775 164.147L173.948 173.44L183.938 170.281L184.095 170.774L174.105 173.936L183.406 178.759L183.167 179.218L173.866 174.395L177.029 184.377L176.535 184.534L173.371 174.552L168.544 183.845L168.083 183.606L172.912 174.312L162.922 177.473L162.765 176.979Z" fill="#5C5C5C"/>
<path d="M160.832 177.769C158.637 170.843 162.492 163.422 169.424 161.23C176.355 159.037 183.781 162.889 185.975 169.815C188.17 176.742 184.316 184.162 177.384 186.354C170.452 188.547 163.026 184.695 160.832 177.769ZM163.538 176.913C165.26 182.349 171.087 185.372 176.529 183.651C181.969 181.93 184.994 176.107 183.271 170.671C181.549 165.234 175.721 162.212 170.28 163.933C164.84 165.654 161.815 171.477 163.538 176.915V176.913Z" fill="#CCCCCC"/>
<path d="M170.108 175.053C170.696 176.905 172.674 177.931 174.528 177.346C176.382 176.759 177.409 174.781 176.823 172.93C176.235 171.077 174.257 170.051 172.403 170.636C170.549 171.223 169.522 173.2 170.108 175.053Z" fill="#3A3535"/>
<path d="M159.302 178.253C156.84 170.483 161.162 162.16 168.939 159.701C176.715 157.241 185.044 161.562 187.506 169.331C189.967 177.101 185.643 185.423 177.868 187.883C170.092 190.343 161.763 186.024 159.302 178.253ZM162.336 177.294C164.269 183.392 170.805 186.782 176.908 184.851C183.011 182.92 186.404 176.389 184.471 170.29C182.539 164.192 176.002 160.802 169.899 162.733C163.796 164.664 160.403 171.195 162.336 177.294Z" fill="#3A3535"/>
<path d="M170.949 174.788C171.388 176.177 172.872 176.946 174.263 176.507C175.653 176.068 176.423 174.585 175.984 173.196C175.544 171.806 174.06 171.037 172.67 171.476C171.279 171.917 170.509 173.399 170.949 174.788Z" fill="#F2F7FF"/>
<path d="M100.504 174.422L112.455 171.071L101.632 164.996L101.933 164.461L112.756 170.534L109.4 158.593L109.992 158.426L113.347 170.369L119.425 159.554L119.962 159.854L113.883 170.67L125.835 167.317L126 167.908L114.049 171.261L124.872 177.334L124.571 177.869L113.748 171.796L117.103 183.738L116.511 183.904L113.157 171.962L107.077 182.777L106.542 182.476L112.621 171.662L100.669 175.013L100.504 174.422Z" fill="#5C5C5C"/>
<path d="M98.1837 175.283C95.8554 166.997 100.709 158.362 109.002 156.036C117.295 153.709 125.936 158.559 128.265 166.846C130.593 175.133 125.739 183.767 117.446 186.093C109.153 188.42 100.512 183.57 98.1837 175.283ZM101.419 174.375C103.247 180.879 110.028 184.685 116.536 182.859C123.044 181.033 126.854 174.257 125.026 167.754C123.199 161.251 116.418 157.444 109.909 159.27C103.401 161.095 99.5917 167.872 101.419 174.375Z" fill="#CCCCCC"/>
<path d="M109.273 172.428C109.895 174.644 112.198 175.936 114.417 175.315C116.637 174.693 117.929 172.392 117.307 170.175C116.685 167.959 114.381 166.665 112.162 167.288C109.945 167.909 108.651 170.211 109.273 172.428Z" fill="#3A3535"/>
<path d="M96.353 175.795C93.7422 166.5 99.1862 156.814 108.488 154.206C117.79 151.597 127.482 157.037 130.094 166.331C132.705 175.626 127.261 185.311 117.96 187.921C108.657 190.529 98.9651 185.091 96.353 175.795ZM99.9827 174.777C102.033 182.072 109.64 186.341 116.941 184.294C124.241 182.245 128.514 174.645 126.464 167.35C124.414 160.055 116.809 155.785 109.507 157.834C102.206 159.882 97.9327 167.483 99.9827 174.779V174.777Z" fill="#3A3535"/>
<path d="M110.278 172.146C110.745 173.808 112.471 174.777 114.135 174.31C115.799 173.843 116.769 172.118 116.301 170.457C115.833 168.794 114.107 167.826 112.443 168.293C110.78 168.76 109.81 170.485 110.278 172.147V172.146Z" fill="#F2F7FF"/>
<path d="M193.394 102.321C193.394 102.321 200.56 94.0701 202.752 91.3535C203.425 90.519 205.269 88.1179 205.921 84.9155C208.36 86.3423 209.576 86.7882 211.839 87.6866C211.413 88.7727 209.975 91.4107 209.626 92.1521C207.771 96.0798 193.355 105.346 193.355 105.346C191.481 106.127 191.505 104.565 188.785 104.281L184.263 106.33C184.263 104.066 187.559 102.354 188.397 102.105C189.194 101.868 193.395 102.32 193.395 102.32L193.394 102.321Z" fill="#F7C29E"/>
<path d="M190.008 107.786L170.421 125.026C169.748 125.617 168.724 125.553 168.131 124.883L167.042 123.65C166.447 122.978 166.511 121.952 167.185 121.359L186.769 104.123C187.781 103.229 189.326 103.325 190.221 104.336C191.116 105.348 191.02 106.892 190.008 107.786Z" fill="#3A3535"/>
<path d="M36.2396 59.0082C33.4118 59.0082 28.6139 57.1289 23.3871 60.5269C21.9085 61.4878 20.9575 63.0571 20.3647 64.7155C19.8386 66.1862 19.4976 67.7155 19.2339 69.2555C18.7197 72.2475 11.5468 71.4902 9.08926 76.733C5.89376 83.5489 11.5242 89.7008 15.6174 94.4111C24.5113 104.644 35.9906 101.935 38.8118 103.287C40.8404 104.26 39.3432 100.148 41.5877 100.293C43.8041 100.435 46.4349 100.39 47.7029 98.5678C48.4262 97.527 48.4822 96.168 48.9923 95.0074C49.7089 93.3836 51.2408 92.2935 52.7033 91.286C54.5481 90.0149 56.4036 88.7385 58.4296 87.7802C60.5808 86.7633 72.6062 85.5228 69.0138 70.0341C67.6218 64.0327 64.0694 60.467 60.3837 57.8889C57.7383 56.0388 55.2861 55.3746 51.5884 55.2748C43.0995 55.0445 43.7029 59.0069 36.241 59.0069L36.2396 59.0082Z" fill="#292727"/>
<path d="M65.3801 98.0352C67.2596 105.309 71.3821 109.016 71.3821 109.016C70.2273 111.724 64.9898 110.682 64.9898 110.682C59.4034 106.676 60.2851 101.548 60.2851 101.548C63.2515 96.6603 65.3801 98.0352 65.3801 98.0352Z" fill="#F19A5E"/>
<path d="M57.1113 80.6909C57.1113 80.6909 63.5503 83.2291 66.0438 96.539C66.0438 96.539 64.4321 98.7178 60.837 98.96C57.2405 99.2009 58.3354 90.4138 58.3354 90.4138L57.1113 80.6923V80.6909Z" fill="#D47474"/>
<path d="M49.5195 76.3214L49.7646 80.1786L55.0247 81.2714H55.9545L55.76 76.6502L50.1802 74.6816L49.5195 76.3214Z" fill="#F7C29E"/>
<path d="M57.7701 82.4959C58.0086 85.0874 56.9363 85.5692 56.9363 85.5692L48.9922 79.6782C53.9233 80.1614 57.1121 80.6898 57.1121 80.6898C57.1121 80.6898 57.5211 82.5665 57.7715 82.4946L57.7701 82.4959Z" fill="#F7C29E"/>
<path d="M44.5915 67.9352C44.5915 67.9352 42.9704 61.2856 46.8332 58.7953C50.6961 56.305 54.7907 56.5818 57.5799 58.0739C60.3691 59.5659 62.0395 64.7687 60.7887 67.7408L51.5312 64.9032L44.5915 67.9352Z" fill="#292727"/>
<path d="M59.6629 184.758L58.0938 179.448L63.1874 178.909L63.4977 179.257L64.2223 184.909L61.9459 186.474L59.6629 184.758Z" fill="#F7C29E"/>
<path d="M27.7734 178.146L30.4215 173.283L34.4055 176.5L34.3776 176.967L30.4388 181.997L28.1744 180.972L27.7734 178.146Z" fill="#F7C29E"/>
<path d="M47.93 112.972L51.7503 146.359C51.7503 146.359 55.372 174.93 58.2958 181.283H64.7813L63.3694 117.432L51.9367 110.251L47.9287 112.972H47.93Z" fill="#1D6180"/>
<path d="M49.4062 75.314C49.4062 75.314 49.5181 76.4333 49.6154 77.8282C51.6161 80.0177 55.3657 79.2657 55.8612 79.054C55.8305 78.3526 55.8612 76.9338 55.8612 76.9338L49.4062 75.314Z" fill="#E2A57C"/>
<path d="M44.8797 109.743C44.8797 109.743 37.6309 119.082 39.3478 133.949C41.0648 148.816 40.6825 154.154 40.6825 154.154C40.6825 154.154 31.3358 162.731 28.4746 175.121C28.4746 175.121 32.5759 177.98 35.3411 178.456C35.3411 178.456 49.0755 157.49 50.1238 155.012C51.1734 152.534 57.6989 113.575 57.6989 113.575L44.8783 109.743H44.8797Z" fill="#307A9C"/>
<path d="M59.5849 68.9161C59.2559 69.8105 59.5689 70.7502 60.2855 71.0138C61.0021 71.2773 61.8493 70.7649 62.1796 69.8704C62.5086 68.976 62.1956 68.0363 61.479 67.7728C60.7624 67.5093 59.9152 68.0217 59.5849 68.9161Z" fill="#E2A57C"/>
<path d="M59.5086 74.0865C59.7151 73.6979 59.8869 73.2879 60.0214 72.8607C60.4051 71.7107 60.5769 70.4982 60.6435 69.4441C60.6581 69.2178 60.6848 68.9929 60.7167 68.7679C60.8433 67.8615 60.8073 66.9059 60.5622 65.9303C59.7723 62.7918 56.9578 60.5038 53.7224 60.3747C49.3627 60.2017 45.8861 63.7554 46.0313 67.9973C45.5611 67.7564 45.0403 67.7151 44.5914 67.9347C43.7296 68.3553 43.4579 69.5692 43.984 70.6459C44.5102 71.7227 45.6357 72.2538 46.4975 71.8332C46.6174 71.7746 46.724 71.7001 46.8212 71.6136C47.314 75.2099 50.3683 77.8932 53.9155 77.7135C55.6498 77.6256 57.1976 76.867 58.3418 75.6904C58.419 75.6212 58.4989 75.5413 58.5829 75.4481C58.9518 75.0395 59.2569 74.5777 59.5099 74.0865H59.5086Z" fill="#F7C29E"/>
<path d="M40.4063 91.142C40.5728 90.9676 40.7313 90.7719 40.8765 90.5723C41.0203 90.37 41.1575 90.1623 41.2774 89.9441C41.4013 89.7284 41.5105 89.5035 41.6051 89.2733C41.705 89.0443 41.7782 88.8047 41.8542 88.5625C41.8222 88.8127 41.7743 89.0643 41.6943 89.3052C41.6597 89.4276 41.6117 89.5461 41.5678 89.6659C41.5158 89.783 41.4692 89.9015 41.4093 90.0146C41.2947 90.2422 41.1655 90.4645 41.0177 90.6721C40.9005 90.8412 40.7739 91.0009 40.6327 91.1539C40.7606 91.1792 40.8938 91.1965 41.0257 91.2032C41.2081 91.2112 41.392 91.2045 41.5731 91.1779C41.665 91.1672 41.7529 91.1459 41.8435 91.1273C41.9314 91.1007 42.022 91.0794 42.1073 91.0448C42.2831 90.9849 42.4469 90.8957 42.6121 90.8039C42.4669 90.9223 42.3111 91.0355 42.1379 91.1153C41.9674 91.2019 41.7836 91.2631 41.5958 91.303C41.408 91.3429 41.2148 91.3642 41.0217 91.3602C40.8272 91.3576 40.638 91.3389 40.4422 91.2884L40.3037 91.2524L40.4076 91.1446L40.4063 91.142Z" fill="white"/>
<path d="M41.6625 102.14C40.7181 96.8853 40.3105 91.2459 40.3105 91.2459C40.2572 89.9469 40.2732 88.7956 40.3411 87.7774C41.6585 86.7059 43.4953 85.1873 43.4953 85.1873L46.6362 79.8394C46.6362 79.8394 46.6362 79.8367 46.6335 79.8354C47.2556 79.7768 47.8963 79.7356 48.3678 79.709C48.834 79.6823 49.3015 79.6996 49.7651 79.7582L57.1085 80.6899C57.1085 80.6899 57.1165 80.6939 57.1204 80.6952C60.5677 83.4623 62.8068 87.4966 63.2863 91.9354C63.6207 95.0366 63.5807 98.3414 63.3929 101.294C63.3929 101.294 64.7329 118.393 65.3763 121.125C65.3763 121.125 49.4267 123.178 39.9375 121.41C39.9375 121.41 41.745 109.588 41.6585 102.139L41.6625 102.14Z" fill="#D47474"/>
<path d="M45.0949 67.0179L45.2694 66.9979L45.3853 65.5551L46.0313 64.2215C46.0313 64.2215 48.5608 60.6344 48.6501 60.5453C48.7393 60.4561 50.6681 59.2995 50.7866 59.2409C50.9052 59.181 53.6052 59.6256 53.6052 59.6256C53.6052 59.6256 58.3551 58.6047 57.5519 61.256C56.7487 63.9087 53.2788 65.2876 53.1017 65.1691C53.6651 64.5755 53.725 62.8865 53.725 62.8865C51.0544 65.9704 46.0327 67.9975 46.0327 67.9975C46.0327 67.9975 45.5065 67.5955 44.5928 67.9349L45.0963 67.0179H45.0949Z" fill="#292727"/>
<path d="M56.9754 73.2713C56.7902 74.0898 55.9964 74.6981 55.056 74.6821C54.1156 74.6661 53.343 74.0313 53.1885 73.2061L56.9754 73.2713Z" fill="white"/>
<path d="M67.1699 104.254L67.3284 106.113C67.3284 106.113 69.2252 106.957 70.3934 105.924L70.2708 103.844L67.1713 104.255L67.1699 104.254Z" fill="#F7C29E"/>
<path d="M70.3414 105.066L70.2695 103.844L67.1699 104.255L67.2592 105.31C68.0118 105.566 69.1147 105.702 70.3414 105.066Z" fill="#F19A5E"/>
<path d="M71.9509 98.8499C71.8083 99.4994 72.116 100.118 72.6368 100.231C73.1577 100.345 73.6958 99.9094 73.8383 99.2598C73.9809 98.6103 73.6732 97.9914 73.1523 97.8783C72.6315 97.7651 72.0934 98.199 71.9509 98.8499Z" fill="#F19A5E"/>
<path d="M72.6326 101.535C72.7032 100.692 72.7897 99.8495 72.7351 99.1135C72.7231 98.9564 72.7205 98.798 72.7205 98.6396C72.7205 98.0008 72.6046 97.3446 72.3409 96.6937C71.4924 94.6001 69.3252 93.2891 67.0741 93.51C64.0398 93.8082 61.9751 96.5966 62.4826 99.5128C62.1337 99.3917 61.77 99.413 61.4796 99.6073C60.9229 99.98 60.8523 100.845 61.3198 101.539C61.7873 102.232 62.6172 102.492 63.174 102.119C63.2512 102.067 63.3178 102.004 63.3764 101.937C64.0624 104.375 67.0261 105.557 69.4637 105.092C70.6559 104.865 72.4141 104.147 72.6339 101.535H72.6326Z" fill="#F7C29E"/>
<path d="M68.7583 98.9282C68.7397 99.1305 68.753 99.3342 68.7916 99.5352C68.8103 99.6363 68.8383 99.7361 68.8769 99.8346C68.9182 99.9331 68.9675 100.032 69.058 100.118C69.1593 100.197 69.2046 100.219 69.2352 100.292C69.2658 100.355 69.2525 100.435 69.2192 100.512C69.1473 100.668 68.9808 100.785 68.7996 100.87C68.9994 100.861 69.2192 100.781 69.3511 100.587C69.415 100.492 69.4496 100.359 69.4084 100.233C69.3671 100.107 69.3005 100.065 69.1886 99.9757C69.1326 99.9251 69.086 99.8439 69.0447 99.7628C69.0021 99.6802 68.9728 99.5884 68.9368 99.4979C68.8742 99.3142 68.8183 99.1239 68.7583 98.9296V98.9282Z" fill="#F19A5E"/>
<path d="M71.2925 101.415C70.9942 100.96 70.6079 100.863 69.778 101.32C69.7754 101.32 69.7727 101.323 69.7714 101.324C69.3758 101.541 68.9096 101.597 68.474 101.48C68.4713 101.48 68.4687 101.479 68.466 101.477C67.5496 101.229 67.1979 101.414 67.0168 101.926C66.8503 102.393 67.6055 104.222 69.1879 103.988C69.3491 103.964 69.5103 103.944 69.6728 103.929C71.2672 103.784 71.5669 101.829 71.2939 101.414L71.2925 101.415Z" fill="#39B8A2"/>
<path d="M70.0447 102.565C70.0926 102.964 69.8076 103.327 69.4067 103.375C69.0057 103.423 68.6421 103.138 68.5941 102.739C68.5462 102.34 68.8312 101.977 69.2322 101.929C69.6331 101.881 69.9967 102.166 70.0447 102.565Z" fill="white"/>
<path d="M68.6398 104.558C68.3774 104.353 68.2122 104.058 68.1722 103.728C68.1323 103.398 68.2242 103.072 68.4306 102.811C68.6371 102.55 68.9315 102.384 69.2631 102.344C69.5935 102.304 69.9212 102.396 70.1822 102.6C70.4446 102.805 70.6098 103.101 70.6498 103.431C70.6897 103.761 70.5978 104.087 70.3927 104.348C70.1862 104.609 69.8905 104.775 69.5602 104.815C69.2392 104.854 68.9102 104.769 68.6411 104.558H68.6398ZM69.2845 102.53C69.0034 102.563 68.753 102.704 68.5772 102.927C68.4027 103.149 68.3241 103.426 68.3587 103.705C68.392 103.986 68.5332 104.236 68.7557 104.411C68.9781 104.585 69.2552 104.662 69.5362 104.629C69.8173 104.596 70.0677 104.455 70.2435 104.232C70.418 104.01 70.4966 103.733 70.462 103.454C70.4287 103.173 70.2875 102.923 70.065 102.748C69.8479 102.578 69.5722 102.495 69.2845 102.53Z" fill="white"/>
<path d="M72.1702 114.288C72.1702 114.288 75.411 114.798 76.4313 116.41C76.4313 116.41 77.5089 114.938 78.3321 115.349C78.6145 115.49 78.733 115.829 78.7676 116.215C78.8875 117.577 77.9072 118.792 76.5578 119.033C75.772 119.173 74.6904 119.195 73.2105 118.961C68.4925 118.216 72.1715 114.288 72.1715 114.288H72.1702Z" fill="#FF8D06"/>
<path d="M71.3686 105.656C71.3686 105.656 73.5025 104.995 76.8671 102.47C76.9937 101.584 77.2041 100.194 77.2801 100.157C77.3866 100.105 77.4652 100.17 77.7036 101.195C77.7196 101.261 77.8022 101.285 77.8502 101.235C78.2165 100.852 79.3767 99.6536 79.4952 99.7242C79.6364 99.808 78.6267 100.905 78.6973 101.039C78.7693 101.174 79.727 100.08 79.8642 100.194C80.0014 100.308 79.0929 101.276 79.1342 101.345C79.1755 101.413 80.1439 100.579 80.2651 100.597C80.3863 100.616 79.4606 101.633 79.4859 101.73C79.5112 101.827 80.385 101.337 80.4356 101.407C80.4862 101.476 80.5315 101.514 78.8838 103.179C78.8838 103.179 78.724 103.297 78.5508 103.443C78.4109 103.848 76.8059 108.286 73.2667 109.765C70.006 110.22 71.3699 105.655 71.3699 105.655L71.3686 105.656Z" fill="#F7C29E"/>
<path d="M71.4509 105.61V105.594C71.1699 105.548 70.8209 105.521 70.4373 105.51C70.4333 105.514 70.4293 105.518 70.4253 105.522C69.0213 106.95 67.2871 105.631 67.2871 105.631C66.6264 105.685 66.0936 105.741 65.8565 105.766L65.7113 105.77C65.7113 105.77 63.5787 107.766 63.0166 109.929C63.0166 109.929 59.7545 119.097 66.051 120.71C72.3474 122.323 72.7736 119.635 72.7736 119.635C72.7736 119.635 75.2698 118.049 75.8652 115.928C76.4606 113.809 73.8872 107.627 71.4509 105.609V105.61Z" fill="#FF8D06"/>
<path d="M75.2335 110.521C74.4822 110.481 72.9118 110.432 72.7639 110.706C72.5694 111.068 75.023 111.358 74.9564 111.519C74.8898 111.68 72.6973 112.23 72.7932 112.488C72.8798 112.72 75.1309 112.478 75.1922 112.611C75.2521 112.745 73.3527 113.55 73.3846 113.815C73.4139 114.055 75.4945 113.513 75.5545 113.588L75.5611 113.6C75.2201 113.855 74.1718 114.663 74.2278 114.871C74.2744 115.042 75.3507 114.605 75.9794 114.316C75.9794 114.316 76.3124 114.101 76.2764 113.843C76.2591 113.722 76.0966 113.59 76.0433 113.428C75.99 113.264 76.0486 113.07 76.022 112.894C76.0034 112.773 75.8528 112.665 75.8315 112.52C75.8022 112.325 75.8995 112.089 75.8702 111.919C75.8422 111.758 75.7276 111.608 75.7183 111.469C75.705 111.272 75.8009 111.095 75.7609 110.928C75.6863 110.616 75.2881 110.525 75.2335 110.522V110.521Z" fill="#F7C29E"/>
<path d="M72.9845 117.771C72.9472 117.562 72.8766 117.341 72.7075 117.175C72.5356 117.01 72.2852 116.953 72.0614 116.991C71.8363 117.027 71.6352 117.128 71.4567 117.248C71.2769 117.368 71.1157 117.509 70.9639 117.659C70.844 117.78 70.7294 117.904 70.6229 118.037C70.4004 117.731 70.118 117.476 69.8117 117.268C69.4694 117.034 69.1004 116.846 68.7208 116.692C68.3411 116.535 67.9509 116.409 67.5566 116.307C67.161 116.209 66.7614 116.122 66.3564 116.073C66.7534 116.162 67.1463 116.267 67.5313 116.394C67.9176 116.517 68.2959 116.66 68.6635 116.825C69.0298 116.992 69.3868 117.18 69.7104 117.413C70.0355 117.642 70.3285 117.918 70.539 118.245L70.6109 118.357L70.6935 118.249C70.9399 117.929 71.2263 117.623 71.5566 117.396C71.7205 117.281 71.9003 117.188 72.0881 117.155C72.2732 117.12 72.4704 117.163 72.6076 117.284C72.7461 117.408 72.8194 117.601 72.8633 117.795C72.9059 117.992 72.9179 118.198 72.9153 118.403C72.9139 118.816 72.854 119.229 72.7741 119.637C72.8367 119.437 72.8846 119.235 72.9246 119.03C72.9632 118.825 72.9939 118.618 73.0085 118.407C73.0218 118.197 73.0192 117.984 72.9859 117.772L72.9845 117.771Z" fill="white"/>
<path d="M65.6544 105.781C65.6544 105.781 63.6511 104.794 60.7247 101.774C60.7393 100.878 60.75 99.473 60.6807 99.4251C60.5835 99.3572 60.4956 99.4091 60.0986 100.385C60.0733 100.449 59.9867 100.458 59.9481 100.402C59.6471 99.9668 58.6894 98.6012 58.5601 98.6518C58.407 98.713 59.2328 99.9535 59.1409 100.076C59.049 100.198 58.2751 98.9672 58.1219 99.059C57.9687 99.1509 58.7133 100.249 58.6627 100.31C58.6121 100.371 57.7862 99.3944 57.6637 99.3944C57.5412 99.3944 58.2951 100.543 58.2551 100.635C58.2138 100.727 57.4293 100.107 57.368 100.168C57.3067 100.229 57.2561 100.26 58.6214 102.16C58.6214 102.16 58.7613 102.301 58.9091 102.473C58.9837 102.894 59.8708 107.529 63.1343 109.543C66.2818 110.503 65.6544 105.781 65.6544 105.781Z" fill="#F7C29E"/>
<path d="M67.7635 95.7526C71.1481 95.6861 71.1294 93.6364 71.1294 93.6364L71.0389 93.7269C70.7871 93.8933 70.2543 93.9358 70.2543 93.9358C70.8377 92.4811 69.0875 92.1909 69.0875 92.1909C69.0875 92.1909 70.2543 93.3542 67.6303 93.3542C66.0052 93.3542 65.1634 93.6883 64.7571 93.9438C63.8793 94.4962 64.6772 95.3187 65.1141 95.5956C65.4577 95.8205 65.8467 95.9683 66.2423 96.0521C66.5713 96.1426 67.3385 96.2092 68.0392 96.124C68.2363 96.0947 68.4334 96.0654 68.6279 96.0242C68.4281 96.0029 68.231 95.9949 68.0352 95.9856C67.8181 95.9856 66.6339 95.8724 66.3036 95.7779C66.2343 95.762 65.8787 95.6914 65.5457 95.553C66.0465 95.6888 66.7565 95.7739 67.7635 95.754V95.7526Z" fill="#050505"/>
<path d="M67.0468 116.174C67.0321 115.917 64.8729 114.291 64.9955 114.176C65.118 114.062 67.5249 115.502 67.7008 115.169C67.8753 114.836 65.1859 113.347 65.4324 113.139C65.6788 112.933 68.3961 114.527 68.508 114.199C68.6012 113.922 65.6055 112.064 64.6491 111.479C64.5253 111.404 64.5372 111.221 64.6678 111.16C66.6791 110.212 66.7803 110.022 66.6245 109.825C66.5139 109.685 64.5093 109.941 62.6191 110.073L60.3241 110.292C59.6794 110.141 45.66 105.59 44.609 104.327C43.5407 103.042 44.609 95.4291 44.609 95.4291L38.3139 92.5542C38.3139 92.5542 36.6023 104.761 39.3609 108.27C40.8488 110.162 60.2122 113.584 60.2122 113.584C60.5905 113.874 61.6188 114.567 61.6188 114.567C65.796 117.224 65.3271 117.02 65.4483 116.885C65.5696 116.749 64.1669 115.168 64.3561 115.072C64.5452 114.976 67.0601 116.432 67.0454 116.174H67.0468Z" fill="#F7C29E"/>
<path d="M46.6377 79.8403C46.6377 79.8403 39.6287 82.4917 35.1904 92.8041C35.1904 92.8041 37.3683 97.617 44.5838 97.782L46.6391 79.8403H46.6377Z" fill="#D47474"/>
<path d="M36.9942 94.877C37.6896 95.472 38.4688 95.9605 39.2906 96.3531C40.1285 96.7125 40.9836 97.0306 41.8787 97.2142C42.3196 97.3287 42.7778 97.3646 43.2267 97.4445C43.6183 97.4844 44.0126 97.5057 44.4069 97.5337C44.624 96.6872 44.8651 95.854 45.1235 95.0221C45.4072 94.1303 45.6976 93.2386 46.0506 92.3695C46.3942 91.4977 46.7819 90.6405 47.2214 89.81C47.677 88.9954 48.1791 88.1715 48.8998 87.5659C48.2577 88.2474 47.8128 89.0726 47.4292 89.9151C47.0376 90.755 46.6913 91.6174 46.3929 92.4959C46.0985 93.3757 45.7962 94.2541 45.5364 95.1472C45.274 96.0376 45.0303 96.9374 44.8145 97.8371L44.7665 98.0355L44.576 98.0182C44.1072 97.9756 43.6383 97.9463 43.1721 97.8917C42.7099 97.8025 42.2397 97.7586 41.7855 97.6335C41.3286 97.519 40.8717 97.4059 40.4308 97.2329C39.9793 97.0958 39.5597 96.8735 39.1335 96.6765C38.3036 96.2306 37.523 95.6929 36.8424 95.0474C36.1764 94.3925 35.5743 93.6539 35.1934 92.8047C35.6676 93.6006 36.2936 94.2914 36.9969 94.877H36.9942Z" fill="#F0F8E9"/>
<path d="M69.7684 188.576L58.6714 188.537C58.3863 188.537 58.1572 188.306 58.1572 188.021V187.89C58.1586 187.607 58.3903 187.377 58.6754 187.378L69.7724 187.415C70.0574 187.415 70.2865 187.648 70.2865 187.932V188.062C70.2852 188.346 70.0534 188.576 69.7684 188.576Z" fill="#050505"/>
<path d="M58.7275 183.853L58.3145 187.078C58.2639 187.476 58.497 187.838 58.8047 187.838L69.4915 187.875C69.7698 187.875 70.0442 187.713 70.1908 187.403C70.3413 187.086 70.3732 186.608 69.8964 185.964C68.9533 184.689 65.8657 184.357 64.3153 183.282C64.2833 183.259 64.246 183.249 64.2074 183.249L59.2896 183.231C59.0112 183.231 58.7741 183.494 58.7275 183.853Z" fill="#444444"/>
<path d="M30.668 188.174L24.1132 179.226C23.9453 178.997 23.9946 178.673 24.225 178.506L24.3303 178.429C24.5594 178.261 24.8831 178.31 25.0509 178.54L31.6057 187.489C31.7736 187.717 31.7243 188.04 31.4938 188.209L31.3886 188.286C31.1595 188.453 30.8372 188.404 30.668 188.174Z" fill="#050505"/>
<path d="M27.9202 176.492L25.0777 178.073C24.7273 178.267 24.5742 178.671 24.7553 178.918L31.0677 187.536C31.2316 187.76 31.5273 187.884 31.8629 187.818C32.2079 187.752 32.6115 187.494 32.8473 186.728C33.3148 185.214 31.7497 182.533 31.6951 180.648C31.6951 180.61 31.6818 180.573 31.6578 180.541L28.7527 176.576C28.5888 176.352 28.2345 176.316 27.9188 176.493L27.9202 176.492Z" fill="#444444"/>
</svg>
