<svg width="226" height="225" viewBox="0 0 226 225" fill="none" xmlns="http://www.w3.org/2000/svg">
<g clip-path="url(#clip0_1_11776)">
<path opacity="0.5" d="M214.111 93.4695C220.723 109.942 194.632 145.06 145.493 159.561C96.3389 174.061 47.3872 167.992 36.1365 146.01C31.5529 137.015 44.8332 126.73 41.7753 116.781C39.5265 107.358 0.274102 89.815 13.6518 68.9928C27.0309 48.1586 96.93 42.0167 122.794 54.634C148.674 67.2631 157.531 70.5108 163.849 72.1938C173.018 74.9001 207.515 77.0091 214.111 93.4695Z" fill="#C2EAEC"/>
<path fill-rule="evenodd" clip-rule="evenodd" d="M113.566 134.742C122.676 136.723 122.465 127.96 131.881 128.531C134.679 128.699 137.237 122.665 145.119 122.841C149.596 122.946 154.611 118.442 153.256 113.264C152.177 109.104 163.174 107.174 168.412 102.82C175.833 96.6639 171.473 89.2275 160.798 88.0164C153.018 87.1272 157.389 77.4353 141.314 80.9752C133.463 82.706 132.426 85.7326 131.204 91.5177C130.321 95.7183 117.327 95.1948 116.138 103.293C114.278 115.949 118.498 109.903 109.479 118.145C108.706 118.848 109.256 124.603 107.761 127.038C106.593 128.923 110.912 134.166 113.57 134.744L113.566 134.742Z" fill="#17878B"/>
<path fill-rule="evenodd" clip-rule="evenodd" d="M113.69 137.619C122.8 139.6 122.594 130.829 132.01 131.4C134.803 131.576 137.361 125.542 145.242 125.718C149.723 125.815 154.726 121.313 153.379 116.139C152.301 111.979 163.29 110.046 168.535 105.695C175.96 99.5314 171.597 92.1028 160.925 90.8839C153.142 90.0025 157.505 80.3055 141.436 83.8504C133.578 85.5774 132.548 88.6078 131.325 94.393C130.441 98.5935 117.447 98.0701 116.259 106.168C114.398 118.824 118.611 112.775 109.599 121.021C108.826 121.724 109.381 127.47 107.873 129.909C106.713 131.798 111.033 137.042 113.69 137.619Z" fill="#16B79E"/>
<path fill-rule="evenodd" clip-rule="evenodd" d="M123.634 119.318C117.768 125.212 83.8228 132.043 94.0388 143.876C110.582 153.562 119.431 133.698 126.525 121.183L133.809 114.55C139.784 112.291 151.955 108.914 151.728 107.781L136.723 111.395C142.569 103.894 156.207 94.0541 153.432 94.1426C149.345 96.946 146.279 99.3914 142.702 102.016C143.897 98.3779 147.201 92.6864 146.284 91.0903C143.439 95.373 141.263 99.9675 139.931 104.906C135.799 108.634 126.816 119.09 127.631 116.346C128.447 113.615 132.5 105.186 132.5 105.186C129.49 105.469 126.587 114.611 123.633 119.319L123.634 119.318Z" fill="#75C7AD"/>
<path fill-rule="evenodd" clip-rule="evenodd" d="M99.4707 142.789C106.926 143.098 113.482 134.637 118.755 128.473C113.237 134.322 106.581 141.68 99.4707 142.789Z" fill="#16B79E"/>
<path fill-rule="evenodd" clip-rule="evenodd" d="M100.068 144.789C106.33 145.534 112.622 139.001 117.627 134.27C112.438 138.722 106.164 144.344 100.068 144.789Z" fill="#16B79E"/>
<path fill-rule="evenodd" clip-rule="evenodd" d="M97.4473 144.07C97.7627 137.308 108.963 131.033 117.175 126.013C109.33 131.253 99.5076 137.575 97.4473 144.07Z" fill="#54803A"/>
<path fill-rule="evenodd" clip-rule="evenodd" d="M94.4653 142.914C94.2165 136.263 104.703 130.581 112.348 126.011C105.081 130.815 95.9513 136.603 94.4653 142.914Z" fill="#54803A"/>
<path fill-rule="evenodd" clip-rule="evenodd" d="M93.1529 123.715C86.4923 117.176 93.9286 112.545 88.286 104.98C86.6192 102.736 90.2489 97.2808 85.7781 90.7836C83.2344 87.0949 84.2549 80.4322 89.3168 78.722C93.3914 77.3466 88.9706 67.0876 89.7271 60.312C90.7989 50.7266 99.4033 50.2929 106.272 58.5607C111.282 64.5819 116.99 55.611 122.852 71.0046C125.713 78.5218 123.753 81.0493 119.583 85.2435C116.557 88.2868 124.124 98.8717 118.019 104.313C108.465 112.813 111.2 105.964 109.264 118.034C109.092 119.062 103.991 121.762 102.777 124.35C101.835 126.356 95.0838 125.62 93.1516 123.717L93.1529 123.715Z" fill="#17878B"/>
<path fill-rule="evenodd" clip-rule="evenodd" d="M90.6808 125.188C84.0278 118.653 91.4693 114.014 85.819 106.446C84.1484 104.209 87.7781 98.7539 83.306 92.2567C80.7661 88.5603 81.7816 81.9053 86.8447 80.1951C90.9193 78.8197 86.4985 68.5607 87.255 61.7851C88.3384 52.1958 96.9312 51.766 103.812 60.0299C108.811 66.055 114.519 57.0841 120.381 72.4765C123.242 79.9936 121.283 82.5212 117.12 86.7192C114.094 89.7625 121.653 100.344 115.548 105.785C105.995 114.285 108.729 107.436 106.793 119.505C106.629 120.538 101.525 123.226 100.306 125.822C99.3647 127.828 92.6207 127.096 90.6808 125.189V125.188Z" fill="#16B79E"/>
<path fill-rule="evenodd" clip-rule="evenodd" d="M100.515 106.828C98.8009 114.964 111.726 147.117 96.2264 145.058C79.0574 136.531 90.7991 118.23 97.3623 105.428L98.9086 95.6936C97.5265 89.4607 93.6621 77.4209 94.7404 76.9923L99.9458 91.5251C103.008 82.5196 103.752 65.7147 105.201 68.0844C105.101 73.0419 104.74 76.9487 104.51 81.3815C106.894 78.3857 109.83 72.4941 111.666 72.385C109.657 77.1194 107.004 81.456 103.617 85.2832C102.768 90.786 98.9612 104.037 100.8 101.847C102.641 99.6696 107.46 91.6534 107.46 91.6534C108.867 94.3233 102.829 101.771 100.516 106.826L100.515 106.828Z" fill="#75C7AD"/>
<path fill-rule="evenodd" clip-rule="evenodd" d="M94.1633 139.92C89.8053 133.848 93.2799 123.721 95.5441 115.932C93.6851 123.758 91.1887 133.363 94.1633 139.92Z" fill="#16B79E"/>
<path fill-rule="evenodd" clip-rule="evenodd" d="M92.1649 140.518C88.0993 135.684 90.1135 126.841 91.32 120.057C90.4392 126.836 89.1917 135.174 92.1649 140.518Z" fill="#16B79E"/>
<path fill-rule="evenodd" clip-rule="evenodd" d="M94.1953 142.313C99.679 138.345 98.7687 125.526 98.4661 115.905C98.3853 125.339 98.4994 137.03 94.1953 142.313Z" fill="#16B79E"/>
<path fill-rule="evenodd" clip-rule="evenodd" d="M96.8027 144.178C102.488 140.733 101.481 128.842 101.113 119.943C101.086 128.658 101.252 139.468 96.8027 144.178Z" fill="#54803A"/>
<path fill-rule="evenodd" clip-rule="evenodd" d="M108.663 130.992C117.97 129.948 115.276 119.763 124.477 116.953C127.203 116.112 127.942 108.116 135.553 105.406C139.879 103.863 143.41 96.7381 140.643 91.1814C138.417 86.7152 148.423 80.3899 152.218 73.3564C157.588 63.4054 151.294 56.3167 140.7 58.8481C132.993 60.6867 134.421 47.7269 120.009 57.8243C112.969 62.751 112.83 66.6771 113.307 73.8966C113.652 79.1351 101.045 83.337 102.201 93.247C104.009 108.743 106.335 100.107 100.028 113.089C99.4921 114.194 101.65 120.714 100.899 124.128C100.327 126.759 105.953 131.304 108.666 130.992H108.663Z" fill="#09A98E"/>
<path fill-rule="evenodd" clip-rule="evenodd" d="M109.597 134.315C118.909 133.263 116.215 123.078 125.407 120.263C128.137 119.434 128.88 111.43 136.491 108.721C140.817 107.178 144.336 100.057 141.581 94.4965C139.355 90.0303 149.349 83.7089 153.148 76.6677C158.513 66.7243 152.224 59.628 141.637 62.1632C133.927 64.0095 135.355 51.0497 120.946 61.1394C113.906 66.0661 113.768 69.9922 114.245 77.2117C114.59 82.4502 101.975 86.6483 103.139 96.5621C104.947 112.058 107.272 103.422 100.966 116.404C100.43 117.509 102.582 124.037 101.836 127.443C101.261 130.082 106.89 134.619 109.6 134.315H109.597Z" fill="#4FBD9D"/>
<path fill-rule="evenodd" clip-rule="evenodd" d="M113.942 109.231C109.997 118.284 79.373 138.833 92.534 148.912C111.154 154.112 113.998 127.6 117.251 110.341L122.35 99.8789C127.44 95.0304 138.156 86.5638 137.611 85.3296L124.249 95.1061C127.725 84.1723 138.011 67.6124 135.372 68.7427C132.253 73.5335 130.004 77.5327 127.322 81.9244C127.434 77.226 128.989 69.3458 127.653 67.8164C126.142 73.871 125.36 80.0564 125.482 86.3265C122.574 92.2219 116.93 107.775 116.933 104.269C116.943 100.769 118.441 89.4031 118.441 89.4031C115.628 90.8542 115.442 102.616 113.943 109.232L113.942 109.231Z" fill="#B2DED2"/>
<path fill-rule="evenodd" clip-rule="evenodd" d="M97.4277 145.625C104.678 143.227 108.564 130.897 111.861 121.736C108.227 130.625 103.932 141.692 97.4277 145.625Z" fill="#4FBD9D"/>
<path fill-rule="evenodd" clip-rule="evenodd" d="M98.5645 147.745C104.788 146.298 108.969 136.321 112.424 128.943C108.718 136.075 104.285 144.965 98.5645 147.745Z" fill="#4FBD9D"/>
<path fill-rule="evenodd" clip-rule="evenodd" d="M95.8621 147.871C94.2338 139.848 103.201 128.354 109.646 119.439C103.61 128.474 95.9813 139.51 95.8621 147.871Z" fill="#4FBD9D"/>
<path fill-rule="evenodd" clip-rule="evenodd" d="M92.6649 147.619C90.5405 139.934 98.9846 129.411 105.018 121.223C99.4102 129.539 92.3021 139.684 92.6649 147.619Z" fill="#4FBD9D"/>
<path fill-rule="evenodd" clip-rule="evenodd" d="M109.157 128.747C104.771 132.705 99.9241 135.638 90.6146 134.79C55.624 131.894 30.2327 103.104 29.3301 75.6749C29.3814 72.6034 29.3032 70.5608 30.5609 67.6971C31.7289 64.4524 41.3141 57.22 43.8758 68.1718C51.5237 88.8207 57.8613 108.679 95.4392 121.77C100.334 123.267 103.627 123.852 107.372 124.658L114.98 123.826L115.442 128.063L109.157 128.747Z" fill="#CCB405"/>
<path d="M46.9858 114.634C36.0325 103.525 29.4937 89.3288 29.0449 75.6699L29.0552 74.9552C29.0924 72.2352 29.1193 70.2709 30.2924 67.5997C31.0399 65.5251 35.0402 61.8441 38.775 62.0609C40.6072 62.1674 43.0265 63.299 44.151 68.0885L44.8151 69.8847C52.2053 89.9165 59.1865 108.836 95.5233 121.495C99.5248 122.719 102.397 123.32 105.438 123.956C106.082 124.091 106.727 124.226 107.387 124.368L115.233 123.511L115.758 128.316L109.281 129.02C104.575 133.25 99.58 135.893 90.5922 135.073C75.9657 133.864 62.1123 128 51.0309 118.42C49.6385 117.216 48.2884 115.951 46.987 114.632L46.9858 114.634ZM114.727 124.142L107.404 124.943L107.312 124.938C106.638 124.793 105.978 124.654 105.321 124.517C102.267 123.878 99.3825 123.274 95.3451 122.039C82.1815 117.454 72.8463 112.056 65.9382 106.084C53.6374 95.4488 49.0397 82.9933 44.2766 70.0823L43.6073 68.2694L43.5971 68.2348C42.7599 64.6552 41.1264 62.7692 38.7404 62.6306C35.3158 62.4317 31.5079 65.9074 30.822 67.8101C29.6886 70.3928 29.6616 72.3096 29.6257 74.9616L29.6155 75.6634C30.4681 101.603 54.0413 131.475 90.6397 134.502C99.4684 135.307 104.351 132.697 108.965 128.533L109.033 128.471L115.126 127.809L114.726 124.142H114.727Z" fill="#CCB405"/>
<path fill-rule="evenodd" clip-rule="evenodd" d="M110.158 130.028C106.633 134.771 102.452 138.602 93.1656 139.596C58.284 143.632 27.7347 120.376 21.4971 93.6525C20.9407 90.6258 20.4701 88.6423 21.133 85.5874C21.6381 82.1874 29.6284 73.1961 34.2774 83.4448C45.8294 102.188 55.9389 120.425 95.3516 125.872C100.451 126.386 103.787 126.326 107.619 126.372L114.917 124.075L116.2 128.13L110.158 130.028Z" fill="#D3BB0B"/>
<path d="M21.216 93.7053L21.0929 93.0407C20.5903 90.3528 20.2288 88.4103 20.8506 85.5466C21.175 83.3655 24.3765 78.9712 28.0844 78.4516C29.9012 78.1962 32.4936 78.8339 34.5309 83.3116L35.5425 84.9565C46.7201 103.144 57.2772 120.324 95.382 125.59C99.681 126.023 102.69 126.046 105.875 126.072C106.437 126.076 107.002 126.081 107.578 126.087L115.104 123.719L116.56 128.318L110.332 130.275C106.544 135.349 102.165 138.923 93.1986 139.882C76.7835 141.782 60.1748 137.704 46.4304 128.399C44.1995 126.889 42.0814 125.264 40.0851 123.538C30.5204 115.269 23.7867 104.716 21.2173 93.7066L21.216 93.7053ZM114.731 124.435L107.706 126.645L107.617 126.658C107.026 126.651 106.447 126.647 105.871 126.642C102.672 126.616 99.6503 126.593 95.3141 126.155C75.2911 123.389 62.8237 117.362 53.8795 109.628C45.6778 102.536 40.4364 94.0107 35.0553 85.2541L34.0347 83.5952L34.0181 83.5631C32.5 80.2157 30.5294 78.6851 28.1652 79.0174C24.7637 79.4947 21.7122 83.6491 21.4135 85.6493C20.8121 88.418 21.166 90.313 21.6558 92.9355L21.7763 93.5886C24.288 104.347 30.973 114.993 40.6416 123.351C53.6898 134.63 72.1704 141.739 93.1358 139.313C101.941 138.37 106.217 134.852 109.929 129.858L109.984 129.784L115.842 127.943L114.731 124.434V124.435Z" fill="#D3BB0B"/>
<path fill-rule="evenodd" clip-rule="evenodd" d="M111.829 130.733C109.463 136.134 106.24 140.812 97.4085 143.853C64.3091 155.566 29.3429 139.736 17.2973 115.078C16.0729 112.252 15.1651 110.423 15.142 107.306C14.8702 103.861 20.6488 93.3189 27.4748 102.278C42.9181 117.966 56.842 133.479 96.4687 129.991C101.555 129.355 104.785 128.538 108.535 127.733L115.147 123.856L117.289 127.532L111.83 130.733H111.829Z" fill="#EAD40C"/>
<path d="M17.0351 115.19L16.7646 114.571C15.6684 112.062 14.8773 110.249 14.8555 107.328C14.6824 105.128 16.8159 100.125 20.3122 98.787C22.0277 98.1313 24.6997 98.1724 27.6909 102.088L29.0423 103.464C43.9957 118.692 58.1197 133.077 96.4322 129.705C100.602 129.183 103.472 128.55 106.511 127.881C107.143 127.741 107.779 127.601 108.43 127.461L115.25 123.463L117.68 127.633L112.054 130.932C109.502 136.724 106.035 141.185 97.5041 144.121C81.9262 149.634 64.8265 149.367 49.355 143.369C42.1661 140.582 35.6542 136.667 30.1821 131.935C24.5817 127.093 20.0686 121.398 17.0364 115.188L17.0351 115.19ZM115.044 124.247L108.679 127.979L108.595 128.013C107.929 128.155 107.28 128.299 106.634 128.441C103.583 129.114 100.7 129.75 96.4938 130.276C67.201 132.854 51.9539 125.135 39.725 114.562C35.8427 111.205 32.2617 107.559 28.6358 103.866L27.2716 102.478L27.2473 102.451C25.0138 99.5208 22.7508 98.4688 20.5174 99.3233C17.3108 100.55 15.2696 105.285 15.4286 107.305C15.4504 110.129 16.2222 111.897 17.2903 114.342L17.5557 114.952C28.9422 138.267 62.6751 155.841 97.3169 143.582C105.696 140.698 109.074 136.314 111.569 130.617L111.606 130.533L116.899 127.429L115.045 124.248L115.044 124.247Z" fill="#EAD40C"/>
<path fill-rule="evenodd" clip-rule="evenodd" d="M113.148 131.513C111.62 137.22 109.141 142.334 100.873 146.678C69.934 163.298 32.974 152.944 17.3269 130.413C15.6897 127.801 14.5191 126.124 14.0088 123.042C13.2241 119.686 17.3385 108.389 25.4454 116.194C43.0875 129.356 59.1961 142.579 97.8472 133.119C102.765 131.71 105.837 130.416 109.425 129.053L115.366 124.216L118.052 127.525L113.149 131.512L113.148 131.513Z" fill="#FCED17"/>
<path fill-rule="evenodd" clip-rule="evenodd" d="M119.49 124.629L116.436 121.988C115.458 121.143 113.959 121.252 113.104 122.242C112.259 123.221 112.368 124.721 113.346 125.568L116.4 128.208C117.379 129.054 118.877 128.945 119.724 127.966C120.579 126.975 120.469 125.475 119.49 124.63V124.629Z" fill="#A97C50"/>
<path d="M113.04 122.187C113.924 121.162 115.472 121.044 116.49 121.925L119.544 124.566C120.562 125.446 120.67 126.996 119.786 128.019C118.907 129.038 117.363 129.151 116.345 128.271L113.291 125.631C112.273 124.75 112.16 123.206 113.04 122.187ZM116.381 122.052C115.433 121.232 113.991 121.343 113.168 122.297C112.349 123.245 112.454 124.684 113.403 125.503L116.457 128.144C117.404 128.964 118.841 128.859 119.661 127.909C120.485 126.955 120.384 125.511 119.436 124.693L116.382 122.052H116.381Z" fill="#A97C50"/>
<path fill-rule="evenodd" clip-rule="evenodd" d="M36.8985 60.4672L36.7318 60.7033L34.5586 63.726L38.6127 64.1533L42.6552 64.5715L40.7744 61.1215L40.6423 60.8559C39.9525 60.0502 39.4948 59.7885 38.7653 59.6884C38.3191 59.4356 37.696 59.8282 36.8972 60.4672H36.8985Z" fill="#A97C50"/>
<path d="M36.6641 60.6546L36.8372 60.4083L36.8461 60.4006C37.6949 59.7219 38.318 59.3511 38.7937 59.6064C39.5604 59.7142 40.0284 60.0067 40.7195 60.8176L40.8489 61.0806L42.8068 64.6705L38.6039 64.2355L34.4062 63.7929L36.6628 60.6533L36.6641 60.6546ZM40.7002 61.1589L40.581 60.9112C39.9271 60.1491 39.4835 59.872 38.7565 59.7732L38.727 59.7629C38.3334 59.5397 37.759 59.8887 36.9615 60.5263L34.714 63.6582L42.508 64.4716L40.7015 61.1589H40.7002Z" fill="#A97C50"/>
<path fill-rule="evenodd" clip-rule="evenodd" d="M25.9034 77.5353L25.779 77.7894L24.1699 81.1483L28.233 80.8622L32.2845 80.5658L29.8408 77.5033L29.6497 77.2621C28.8356 76.5769 28.3356 76.4101 27.6035 76.4435C27.1124 76.2652 26.5765 76.7527 25.9008 77.5366L25.9034 77.5353Z" fill="#A97C50"/>
<path d="M25.7031 77.7523L25.8275 77.4982L25.8391 77.4803C26.5494 76.6579 27.0955 76.1819 27.6174 76.3576C28.4033 76.3256 28.9136 76.5308 29.7162 77.2083L32.4497 80.6365L28.2379 80.9444L24.0312 81.2408L25.7031 77.751V77.7523ZM29.7765 77.5547L29.597 77.3263C28.838 76.6874 28.3546 76.4936 27.6097 76.527L27.5776 76.5219C27.143 76.364 26.6417 76.8105 25.9737 77.5816L24.3095 81.0522L32.1202 80.4915L29.7765 77.5534V77.5547Z" fill="#A97C50"/>
<path fill-rule="evenodd" clip-rule="evenodd" d="M19.2172 96.9791L19.1044 97.2421L17.4863 100.611L21.5379 100.315L25.6099 100.017L23.1559 96.9458L22.9661 96.7251C22.152 96.04 21.6609 95.8629 20.9096 95.8975C20.4378 95.7179 19.8826 96.2068 19.2159 96.9791H19.2172Z" fill="#A97C50"/>
<path d="M19.0253 97.209L19.1381 96.946L19.1522 96.9242C19.8407 96.1262 20.4061 95.6309 20.9216 95.8131C21.7062 95.781 22.2191 95.9889 23.0294 96.6714L25.7744 100.091L17.3457 100.707L19.0253 97.209ZM23.0909 97.0012L22.9114 96.7908C22.1332 96.1364 21.6665 95.9478 20.9126 95.9825L20.8793 95.9773C20.4279 95.8054 19.8484 96.3776 19.2881 97.0256L19.1791 97.2796L17.6239 100.518L25.4436 99.947L23.0909 97.0025V97.0012Z" fill="#A97C50"/>
<path fill-rule="evenodd" clip-rule="evenodd" d="M16.4887 112.364L16.4066 112.635L15.3848 116.216L19.3376 115.265L23.2891 114.294L20.3684 111.674L20.1402 111.477C19.2158 110.943 18.7093 110.848 17.9785 111.013C17.4721 110.918 17.0156 111.492 16.4887 112.366V112.364Z" fill="#A97C50"/>
<path d="M16.3253 112.611L16.4073 112.34L16.4163 112.321C16.9586 111.42 17.433 110.837 17.9767 110.926C18.7305 110.759 19.2703 110.876 20.196 111.411L23.4642 114.336L19.3575 115.346L15.2637 116.331L16.3253 112.611ZM20.314 111.737L20.0986 111.548C19.2113 111.036 18.7203 110.93 17.9972 111.094H17.9626C17.5087 111.009 17.0753 111.553 16.565 112.399L15.5034 116.1L19.3165 115.183L23.1141 114.249L20.3127 111.737H20.314Z" fill="#A97C50"/>
<path fill-rule="evenodd" clip-rule="evenodd" d="M97.4577 143.004C96.4346 144.608 94.8832 146.096 92.3035 147.457C79.74 154.205 65.3891 152.929 55.209 146.845C69.0688 152.14 84.7428 150.74 97.4577 143.004Z" fill="white"/>
<path d="M55.3119 146.577C69.0525 151.827 84.7521 150.399 97.3106 142.757L98.3632 142.117L97.7004 143.156C96.5336 144.983 94.8617 146.431 92.4411 147.707C86.4458 150.928 79.6724 152.497 72.854 152.247C66.4703 152.012 60.3186 150.228 55.0645 147.089L55.3132 146.576L55.3119 146.577ZM58.4595 148.251C68.9858 153.206 81.5994 152.88 92.1718 147.203C93.9873 146.246 95.3605 145.195 96.4041 143.956C84.9329 150.481 71.0744 152.022 58.4595 148.251Z" fill="white"/>
<path fill-rule="evenodd" clip-rule="evenodd" d="M182.596 160.013C183.309 160.052 184.085 160.059 184.826 160.041C185.562 160.057 186.285 160.052 187.004 160.013C209.2 158.826 220.563 130.966 217.929 114.318C213.488 95.2845 193.892 102.822 187.614 108.715C186.72 109.223 185.785 109.491 184.826 109.605C183.868 109.491 182.933 109.223 182.032 108.715C175.755 102.821 156.159 95.2845 151.717 114.318C149.084 130.966 160.395 158.819 182.596 160.013Z" fill="#FE7669"/>
<path fill-rule="evenodd" clip-rule="evenodd" d="M184.741 76.4741C181.292 82.7789 174.495 85.631 174.563 92.8197C174.637 100.008 178.936 106.164 185.071 108.955C191.149 106.04 195.317 99.798 195.242 92.6093C195.168 85.4206 190.876 79.2647 184.741 76.4741Z" fill="#0EBAA0"/>
<path d="M185.068 108.862C185.152 108.862 185.222 108.8 185.231 108.716C185.709 104.202 185.231 100.266 184.768 96.4595C184.131 91.2235 183.582 86.7009 185.68 81.973C185.717 81.8896 185.68 81.7933 185.597 81.7561C185.513 81.7189 185.417 81.7561 185.38 81.8395C183.245 86.6495 183.826 91.4339 184.443 96.4992C184.903 100.288 185.38 104.206 184.905 108.681C184.896 108.771 184.961 108.852 185.052 108.862C185.058 108.862 185.063 108.862 185.07 108.862H185.068Z" fill="#16888C"/>
<path d="M184.178 92.7786C184.208 92.7786 184.24 92.7696 184.267 92.7516C184.343 92.7016 184.363 92.6002 184.313 92.5245L180.55 86.8074C180.5 86.7317 180.399 86.7112 180.323 86.7612C180.248 86.8113 180.227 86.9126 180.277 86.9883L184.04 92.7054C184.072 92.7529 184.124 92.7798 184.178 92.7798V92.7786Z" fill="#16888C"/>
<path d="M184.559 96.2529C184.608 96.2529 184.657 96.2311 184.689 96.1901L188.435 91.398C188.492 91.3262 188.479 91.2235 188.407 91.1671C188.335 91.1106 188.233 91.1234 188.176 91.1953L184.43 95.9873C184.373 96.0592 184.386 96.1618 184.458 96.2183C184.487 96.2414 184.523 96.2529 184.559 96.2529Z" fill="#16888C"/>
<path d="M185.25 104.018C185.293 104.018 185.337 104 185.369 103.966C185.431 103.9 185.428 103.796 185.361 103.734L181.12 99.7582C181.053 99.6966 180.95 99.6992 180.888 99.7659C180.827 99.8326 180.829 99.9365 180.896 99.9981L185.137 103.974C185.169 104.004 185.209 104.019 185.249 104.019L185.25 104.018Z" fill="#16888C"/>
<path fill-rule="evenodd" clip-rule="evenodd" d="M210.688 110.21C204.04 103.963 192.1 108.738 187.666 112.646C186.873 113.068 186.041 113.292 185.191 113.388C184.341 113.29 183.515 113.068 182.723 112.646C177.159 107.745 159.792 101.481 155.859 117.302C154.12 127.606 159.234 143.068 170.072 150.713C160.402 142.72 155.915 128.348 157.564 118.603C161.497 102.782 178.864 109.047 184.423 113.947C185.222 114.364 186.048 114.591 186.898 114.684C187.748 114.593 188.573 114.364 189.372 113.947C193.448 110.354 203.87 106.028 210.69 110.21H210.688Z" fill="white"/>
<path fill-rule="evenodd" clip-rule="evenodd" d="M154.695 133.802C152.101 137.661 148.561 141.09 144.194 143.731C131.852 151.165 116.967 149.792 108.338 141.156L171.776 102.902C171.626 112.668 160.741 125.18 154.695 133.803V133.802Z" fill="#0EBAA0"/>
<path fill-rule="evenodd" clip-rule="evenodd" d="M151.901 130.498C148.992 133.626 145.327 136.61 141.067 139.174C128.053 147.025 114.154 148.172 108.794 142.12C108.397 141.763 108.046 141.355 107.776 140.894C107.501 140.443 107.304 139.948 107.168 139.427C104.328 131.862 111.837 120.102 124.852 112.251C129.104 109.675 133.232 108.14 137.576 106.718C143.53 104.597 168.043 96.361 171.662 102.376C175.284 108.38 160.02 122.003 151.901 130.499V130.498Z" fill="#CEE05F"/>
<path fill-rule="evenodd" clip-rule="evenodd" d="M146.619 117.219C149.219 121.535 144.732 129.015 136.595 133.924C128.459 138.833 119.753 139.306 117.154 134.98C114.554 130.664 119.042 123.184 127.178 118.275C135.312 113.375 144.01 112.89 146.619 117.219Z" fill="#9B512D"/>
<path fill-rule="evenodd" clip-rule="evenodd" d="M145.756 117.814C148.196 121.87 144.014 128.878 136.402 133.471C128.794 138.054 120.649 138.49 118.199 134.432C118.157 134.358 118.122 134.296 118.08 134.223C121.387 136.781 128.447 135.945 135.098 131.94C142.574 127.426 146.746 120.57 144.561 116.492C145.041 116.862 145.448 117.306 145.756 117.817V117.814Z" fill="#CE722A"/>
<path d="M121.671 136.884C120.085 136.449 118.887 135.623 118.175 134.445L117.988 134.115L118.097 134.2C119.704 135.443 122.273 135.91 125.331 135.514C128.432 135.112 131.897 133.834 135.083 131.915C138.69 129.736 141.654 126.938 143.428 124.036C145.196 121.144 145.59 118.469 144.537 116.502L144.477 116.389L144.578 116.467C145.073 116.85 145.477 117.298 145.78 117.799C148.223 121.862 144.023 128.902 136.416 133.493C132.731 135.713 128.807 137.035 125.368 137.218C123.981 137.291 122.739 137.175 121.672 136.883L121.671 136.884ZM118.17 134.324L118.224 134.418C120.656 138.449 128.806 138.014 136.388 133.448C143.969 128.874 148.162 121.868 145.732 117.83C145.454 117.368 145.089 116.952 144.645 116.592C145.632 118.565 145.221 121.212 143.476 124.067C141.697 126.977 138.727 129.781 135.112 131.964C131.919 133.886 128.448 135.167 125.339 135.57C122.333 135.96 119.795 135.518 118.17 134.326V134.324Z" fill="#CE722A"/>
<path fill-rule="evenodd" clip-rule="evenodd" d="M65.6416 73.3488C67.2763 82.0066 69.4508 91.438 72.1407 101.233C82.7708 139.94 97.3435 169.681 104.695 167.661C112.039 165.641 109.379 132.624 98.75 93.9155C96.0601 84.121 93.1202 74.9012 90.1046 66.6219C84.3632 52.6897 63.212 58.766 65.6429 73.3488H65.6416Z" fill="#FF8D06"/>
<path fill-rule="evenodd" clip-rule="evenodd" d="M78.4844 76.7555C79.9793 76.9826 82.0372 76.8261 84.2052 76.2295C86.3797 75.6316 88.2221 74.7168 89.3902 73.7559C87.9131 74.4885 86.0861 75.1851 84.0706 75.7394C82.0551 76.2937 80.1281 76.6298 78.4844 76.7555Z" fill="#FCE1D4"/>
<path fill-rule="evenodd" clip-rule="evenodd" d="M77.9102 82.3952C79.4051 82.6223 81.4565 82.467 83.631 81.8692C85.7978 81.2726 87.6402 80.3578 88.8159 79.3955C87.3389 80.1281 85.5119 80.8248 83.4964 81.3791C81.4745 81.9346 79.5538 82.2695 77.9102 82.3952Z" fill="#FCE1D4"/>
<path fill-rule="evenodd" clip-rule="evenodd" d="M81.6074 87.8278C83.1024 88.0549 85.1602 87.8984 87.3283 87.3018C89.5028 86.7039 91.3452 85.7891 92.5132 84.8281C91.0362 85.5607 89.2092 86.2574 87.1937 86.8117C85.1782 87.3659 83.2511 87.7021 81.6074 87.8278Z" fill="#FCE1D4"/>
<path fill-rule="evenodd" clip-rule="evenodd" d="M79.9453 95.5937C81.4492 95.826 83.4981 95.6643 85.6662 95.0677C87.8407 94.4698 89.6844 93.5614 90.8588 92.5928C89.3779 93.3344 87.556 94.0285 85.5341 94.584C83.5186 95.1383 81.5916 95.4744 79.9466 95.5925L79.9453 95.5937Z" fill="#FCE1D4"/>
<path fill-rule="evenodd" clip-rule="evenodd" d="M83.8242 101.065C85.3192 101.292 87.3706 101.136 89.5451 100.539C91.7119 99.942 93.5543 99.0272 94.73 98.0649C93.253 98.7975 91.426 99.4942 89.4105 100.048C87.3885 100.604 85.4679 100.939 83.8242 101.065Z" fill="#FCE1D4"/>
<path fill-rule="evenodd" clip-rule="evenodd" d="M92.9835 104.875C92.236 105.719 91.0077 106.466 89.523 106.874C88.0396 107.282 86.6023 107.268 85.5215 106.927C86.6754 106.937 88.0075 106.762 89.3884 106.384C90.7692 106.004 91.9962 105.473 92.9835 104.875Z" fill="#FCE1D4"/>
<path fill-rule="evenodd" clip-rule="evenodd" d="M98.6635 110.742C97.4878 111.704 95.6453 112.619 93.4709 113.217C91.3041 113.814 89.2527 113.969 87.75 113.743C89.3937 113.619 91.3207 113.281 93.3362 112.727C95.3582 112.171 97.1801 111.477 98.6635 110.742Z" fill="#FCE1D4"/>
<path fill-rule="evenodd" clip-rule="evenodd" d="M98.658 117.341C97.822 118.217 96.454 118.995 94.818 119.444C93.182 119.894 91.6165 119.924 90.4434 119.599C91.7075 119.578 93.164 119.371 94.6834 118.954C96.2014 118.537 97.5682 117.967 98.658 117.341Z" fill="#FCE1D4"/>
<path fill-rule="evenodd" clip-rule="evenodd" d="M102.81 121.08C101.643 122.047 99.7984 122.955 97.6252 123.553C95.4584 124.15 93.4018 124.313 91.9043 124.079C93.548 123.955 95.475 123.617 97.4905 123.063C99.506 122.509 101.334 121.813 102.81 121.08Z" fill="#FCE1D4"/>
<path fill-rule="evenodd" clip-rule="evenodd" d="M102.205 126.988C101.035 127.947 99.1865 128.865 97.0197 129.461C94.8452 130.059 92.7951 130.215 91.2988 129.987C92.9425 129.863 94.8696 129.526 96.8851 128.971C98.9006 128.417 100.729 127.722 102.205 126.988Z" fill="#FCE1D4"/>
<path fill-rule="evenodd" clip-rule="evenodd" d="M93.8574 136.222C95.3549 136.457 97.4102 136.292 99.5783 135.696C101.753 135.098 103.596 134.19 104.763 133.222C103.289 133.962 101.459 134.651 99.4437 135.206C97.4282 135.76 95.5037 136.104 93.8574 136.222Z" fill="#FCE1D4"/>
<path fill-rule="evenodd" clip-rule="evenodd" d="M94 143.418C95.495 143.645 97.5528 143.489 99.7209 142.892C101.895 142.294 103.738 141.379 104.906 140.418C103.429 141.151 101.602 141.848 99.5862 142.402C97.5707 142.956 95.6437 143.292 94 143.418Z" fill="#F69668"/>
<path fill-rule="evenodd" clip-rule="evenodd" d="M95.4082 148.55C96.9032 148.777 98.9546 148.622 101.129 148.024C103.296 147.427 105.146 146.511 106.314 145.55C104.837 146.283 103.01 146.98 100.994 147.534C98.9789 148.088 97.0519 148.424 95.4082 148.55Z" fill="#F69668"/>
<path fill-rule="evenodd" clip-rule="evenodd" d="M98.0696 154.401C98.6671 154.497 99.48 154.429 100.343 154.191C101.199 153.957 101.931 153.599 102.397 153.21C101.81 153.505 101.09 153.777 100.289 153.998C99.489 154.218 98.7235 154.354 98.0684 154.401H98.0696Z" fill="#F69668"/>
<path fill-rule="evenodd" clip-rule="evenodd" d="M76.1133 63.7391C73.2901 64.5153 70.8464 64.6154 70.6669 63.9662C70.4861 63.3105 72.6388 62.1456 75.462 61.3693C78.2853 60.5931 80.7303 60.493 80.9098 61.1487C81.088 61.7979 78.9353 62.9616 76.1121 63.7378L76.1133 63.7391Z" fill="#F78B31"/>
<path fill-rule="evenodd" clip-rule="evenodd" d="M77.8789 62.0569C79.2687 57.8717 79.2739 51.9711 77.584 45.8165C75.4801 38.1569 71.317 32.1845 67.0616 29.9893C64.5179 34.0538 63.9883 41.317 66.0923 48.9766C67.7822 55.1312 70.8067 60.1978 74.1389 63.0846L77.8802 62.0556L77.8789 62.0569Z" fill="#17878B"/>
<path fill-rule="evenodd" clip-rule="evenodd" d="M70.2461 19.4263C77.5683 33.2508 69.5743 49.6079 74.5156 62.9808L78.2979 61.9402C81.225 44.889 85.3406 24.3004 70.2461 19.4263Z" fill="#16B79E"/>
<path fill-rule="evenodd" clip-rule="evenodd" d="M62.6388 34.5942C63.1824 45.6551 73.9549 52.7143 75.7806 62.6345L73.1023 63.371C65.162 54.055 55.2204 43.0224 62.6388 34.5942Z" fill="#4FBD9D"/>
<path fill-rule="evenodd" clip-rule="evenodd" d="M219.924 148.022C219.586 180.252 197.001 208.174 163.985 222.274H66.2674C33.2513 208.175 10.6666 180.252 10.3281 148.022H219.924Z" fill="#CAECEE"/>
<path fill-rule="evenodd" clip-rule="evenodd" d="M6.6346 140.221H219.367C222.707 140.221 225.443 142.959 225.443 146.301C225.443 149.644 222.707 152.371 219.367 152.371H6.6346C3.29466 152.371 0.558594 149.643 0.558594 146.301C0.558594 142.957 3.29466 140.221 6.6346 140.221Z" fill="#78BEC2"/>
<path fill-rule="evenodd" clip-rule="evenodd" d="M112.822 29.6352L112.431 27.4361C112.112 26.3263 111.509 26.5547 110.69 26.7792L109.594 27.2616L108.115 24.983C107.908 24.7084 107.687 24.9869 107.808 25.2242L108.635 27.7145C108.822 28.5164 109.998 29.7186 110.675 30.7207L112.822 29.6352Z" fill="#FFCDAD"/>
<path fill-rule="evenodd" clip-rule="evenodd" d="M143.995 85.5L145.382 89.5235C146.786 92.0677 153.682 93.4316 150.015 96.7315L138.5 92.4578L141.562 87.9647L143.996 85.5H143.995Z" fill="#2C7EFE"/>
<path fill-rule="evenodd" clip-rule="evenodd" d="M138.947 91.7983L150.729 95.9309C150.558 96.185 150.326 96.4505 150.015 96.7328L138.5 92.4591L138.949 91.7983H138.947Z" fill="#0643A3"/>
<path fill-rule="evenodd" clip-rule="evenodd" d="M148.397 92.3644C148.198 92.2939 147.981 92.3978 147.915 92.5928C147.844 92.793 147.948 93.0085 148.143 93.0752C148.343 93.1458 148.558 93.0419 148.625 92.843C148.696 92.648 148.592 92.4311 148.397 92.3644Z" fill="white"/>
<path fill-rule="evenodd" clip-rule="evenodd" d="M147.039 91.5573C146.844 91.4906 146.628 91.5945 146.557 91.7895C146.487 91.9846 146.591 92.2014 146.789 92.272C146.984 92.3425 147.201 92.2386 147.271 92.0397C147.338 91.8447 147.234 91.6279 147.039 91.5573Z" fill="white"/>
<path fill-rule="evenodd" clip-rule="evenodd" d="M145.793 90.718C145.598 90.6512 145.382 90.7552 145.311 90.9502C145.245 91.149 145.348 91.362 145.543 91.4326C145.743 91.5032 145.955 91.3992 146.025 91.2004C146.096 91.0054 145.992 90.7885 145.793 90.718Z" fill="white"/>
<path fill-rule="evenodd" clip-rule="evenodd" d="M125.945 85.5L124.557 89.5235C123.154 92.0677 116.258 93.4316 119.925 96.7315L131.44 92.4578L128.378 87.9647L125.943 85.5H125.945Z" fill="#2C7EFE"/>
<path fill-rule="evenodd" clip-rule="evenodd" d="M130.987 91.7983L119.211 95.9309C119.378 96.185 119.614 96.4505 119.925 96.7328L131.44 92.4591L130.987 91.7983Z" fill="#0643A3"/>
<path fill-rule="evenodd" clip-rule="evenodd" d="M121.541 92.3644C121.741 92.2939 121.953 92.3978 122.023 92.5928C122.094 92.793 121.99 93.0085 121.791 93.0752C121.596 93.1458 121.38 93.0419 121.309 92.843C121.243 92.648 121.346 92.4311 121.541 92.3644Z" fill="white"/>
<path fill-rule="evenodd" clip-rule="evenodd" d="M122.899 91.5573C123.094 91.4906 123.31 91.5945 123.381 91.7895C123.447 91.9846 123.344 92.2014 123.149 92.272C122.949 92.3425 122.737 92.2386 122.667 92.0397C122.596 91.8447 122.7 91.6279 122.899 91.5573Z" fill="white"/>
<path fill-rule="evenodd" clip-rule="evenodd" d="M124.143 90.718C124.343 90.6512 124.558 90.7552 124.625 90.9502C124.696 91.149 124.592 91.362 124.397 91.4326C124.197 91.5032 123.981 91.3992 123.915 91.2004C123.844 91.0054 123.948 90.7885 124.143 90.718Z" fill="white"/>
<path fill-rule="evenodd" clip-rule="evenodd" d="M135.168 48.1055L134.906 48.2723L134.648 48.1055V48.4378L127.819 52.7654L120.957 59.2125C115.996 64.8578 118.505 67.1236 120.957 78.0805L124.006 89.1299L128.824 88.2279L126.934 66.8323C127.702 64.2419 130.025 61.8517 134.877 61.2872C139.168 61.4283 141.419 64.1008 142.881 66.8323L140.991 88.2279L145.809 89.1299L148.854 78.0805C151.31 67.1223 153.819 64.8578 148.854 59.2125L141.996 52.7654L135.166 48.4378V48.1055H135.168Z" fill="#083C7A"/>
<path fill-rule="evenodd" clip-rule="evenodd" d="M127.569 41.8817L129.024 29.2569L118.743 36.1787L113.14 28.9951L110.133 30.5129L115.335 38.9641C116.617 40.7886 117.2 41.5289 120.546 41.7239L127.569 41.8817Z" fill="#F2A662"/>
<path fill-rule="evenodd" clip-rule="evenodd" d="M148.763 18.428L147.724 16.4534C147.296 15.377 147.915 15.1897 148.696 14.8612L149.855 14.5738L149.631 11.8679C149.627 11.5228 149.972 11.61 150.022 11.8679L150.893 14.3416C151.238 15.0896 151.047 16.7613 151.122 17.9661L148.763 18.428Z" fill="#FFCDAD"/>
<path fill-rule="evenodd" clip-rule="evenodd" d="M142.105 41.9315L139.82 28.6536L149.321 27.1986L148.088 18.3189L151.402 17.4131L153.864 26.9331C154.28 29.0949 154.398 30.0174 152.11 32.3782L142.106 41.9302L142.105 41.9315Z" fill="#F2A662"/>
<path fill-rule="evenodd" clip-rule="evenodd" d="M139.935 52.4983H128.753C126.889 49.6462 125.711 45.3943 125.711 40.6471C125.711 36.7109 126.522 33.1184 127.858 30.3792C129.315 27.7516 132.082 28.234 134.989 29.0654C137.901 28.234 140.666 27.7516 142.12 30.3792C143.459 33.1184 144.27 36.7096 144.27 40.6471C144.27 45.3943 143.088 49.6475 141.228 52.4983H139.935Z" fill="#F2A662"/>
<path fill-rule="evenodd" clip-rule="evenodd" d="M136.902 24.6187L132.533 25.1511C132.312 26.6022 132.529 27.9365 132.309 29.3876C135.072 31.4366 136.209 30.2267 137.431 29.1836L136.904 24.6199L136.902 24.6187Z" fill="#F9AB8C"/>
<path fill-rule="evenodd" clip-rule="evenodd" d="M138.628 22.5849C141.49 21.4174 138.641 21.0094 141.408 18.4523C142.492 17.4503 140.784 12.3875 138.284 15.7914C138.036 16.1275 136.287 13.1304 134.994 14.8022C134.65 15.2422 135.132 15.7875 133.014 15.767C130.708 15.7465 130.039 15.9004 129.254 17.7916C128.457 19.7251 129.935 20.926 130.749 22.9044C131.09 23.7319 135.996 23.1918 137.321 22.6221C137.641 22.4849 138.286 22.5593 138.631 22.5849H138.628Z" fill="#060352"/>
<path fill-rule="evenodd" clip-rule="evenodd" d="M130.993 20.4195C130.674 23.5282 130.661 28.251 133.958 28.7706C139.375 29.1068 138.196 24.3596 138.815 21.0007C138.682 20.9802 138.5 20.9096 138.25 20.7762C136.393 19.7947 136.11 20.9045 134.956 20.3194C133.439 19.5586 133.422 20.3938 132.725 20.8185C131.82 21.3676 131.399 21.0302 130.993 20.4195Z" fill="#FFCDAD"/>
<path fill-rule="evenodd" clip-rule="evenodd" d="M137.144 24.5967C137.157 24.7712 137.157 24.9546 137.132 25.133C136.957 26.5135 135.698 27.4899 134.32 27.3192C133.639 27.232 133.053 26.8792 132.658 26.3762C134.913 26.5597 136.825 25.8027 137.144 24.5967Z" fill="white"/>
<path fill-rule="evenodd" clip-rule="evenodd" d="M76.6132 132.185C77.4069 132.373 77.9005 133.177 77.7107 133.971L56.5723 222.574C56.3825 223.368 55.5812 223.862 54.7876 223.672C53.9939 223.482 53.5003 222.678 53.6901 221.886L57.0813 207.67H34.5902L31.0361 222.574C30.8464 223.368 30.0425 223.862 29.2514 223.672C28.4578 223.482 27.9641 222.678 28.1539 221.886L49.2898 133.282C49.4795 132.491 50.2834 131.997 51.0771 132.187C51.8681 132.374 52.3618 133.178 52.172 133.973L50.5399 140.814H73.031L74.8285 133.282C75.0183 132.491 75.8222 131.997 76.6132 132.187V132.185ZM57.7685 204.79L60.9418 191.485H38.4507L35.2774 204.79H57.7685ZM61.6316 188.606L64.8241 175.216H42.333L39.1379 188.606H61.6316ZM65.5113 172.336L68.7474 158.776H46.2537L43.0202 172.336H65.5113ZM69.4333 155.897L72.3437 143.695H49.8526L46.9422 155.897H69.4333Z" fill="#8183F1"/>
<path fill-rule="evenodd" clip-rule="evenodd" d="M24.7382 175.913L22.9317 180.202C22.2214 183.295 26.8409 189.435 21.4508 189.445L15.1953 177.564L20.9585 176.144L24.7382 175.912V175.913Z" fill="#1F265C"/>
<path fill-rule="evenodd" clip-rule="evenodd" d="M16.0448 177.356L22.6182 189.313C22.2951 189.397 21.9105 189.445 21.4528 189.445L15.1973 177.564L16.046 177.355L16.0448 177.356Z" fill="#0D4391"/>
<path fill-rule="evenodd" clip-rule="evenodd" d="M23.3199 184.709C23.211 184.509 22.9609 184.437 22.7609 184.545C22.5609 184.655 22.4891 184.907 22.5968 185.107C22.7071 185.307 22.9584 185.379 23.1584 185.271C23.3584 185.161 23.4302 184.909 23.3199 184.709Z" fill="white"/>
<path fill-rule="evenodd" clip-rule="evenodd" d="M22.8022 183.066C22.6919 182.866 22.4406 182.794 22.2406 182.902C22.0406 183.012 21.9688 183.263 22.079 183.464C22.188 183.664 22.438 183.736 22.638 183.625C22.8381 183.516 22.9099 183.266 22.8022 183.066Z" fill="white"/>
<path fill-rule="evenodd" clip-rule="evenodd" d="M22.4018 181.474C22.2915 181.273 22.0402 181.202 21.8402 181.312C21.6402 181.421 21.5684 181.671 21.6786 181.871C21.7876 182.072 22.0376 182.146 22.2377 182.036C22.4377 181.925 22.5095 181.674 22.4018 181.474Z" fill="white"/>
<path fill-rule="evenodd" clip-rule="evenodd" d="M52.9768 179.458L54.464 183.869C55.9782 186.656 63.5043 188.194 59.472 191.775L46.9238 187.021L50.3022 182.136L52.978 179.458H52.9768Z" fill="#1F265C"/>
<path fill-rule="evenodd" clip-rule="evenodd" d="M47.4226 186.301L60.2618 190.903C60.0746 191.181 59.8169 191.469 59.472 191.775L46.9238 187.021L47.4213 186.301H47.4226Z" fill="#0D4391"/>
<path fill-rule="evenodd" clip-rule="evenodd" d="M57.7368 186.987C57.5214 186.91 57.2855 187.023 57.2099 187.238C57.133 187.454 57.2445 187.69 57.4586 187.765C57.674 187.842 57.9099 187.729 57.9856 187.516C58.0625 187.301 57.951 187.065 57.7368 186.987Z" fill="white"/>
<path fill-rule="evenodd" clip-rule="evenodd" d="M56.2622 186.099C56.0468 186.022 55.8109 186.135 55.7353 186.348C55.6583 186.563 55.7699 186.799 55.984 186.878C56.1994 186.955 56.4353 186.842 56.511 186.626C56.5879 186.411 56.4763 186.175 56.2622 186.099Z" fill="white"/>
<path fill-rule="evenodd" clip-rule="evenodd" d="M54.9066 185.173C54.6938 185.096 54.4553 185.209 54.3796 185.424C54.3027 185.637 54.4155 185.876 54.6309 185.951C54.8438 186.028 55.0822 185.915 55.1579 185.7C55.2348 185.484 55.122 185.248 54.9066 185.173Z" fill="white"/>
<path fill-rule="evenodd" clip-rule="evenodd" d="M49.5203 137.491L57.0374 143.739C58.0887 147.576 59.1388 151.413 60.1901 155.251C61.8967 162.395 62.2236 164.33 60.2055 169.449L54.5872 183.471L49.5433 182.894L54.8719 163.727L50.696 152.615L41.907 167.032L23.1764 180.153L20.8711 175.972L37.1529 162.418L43.2686 142.143L49.5203 137.489V137.491Z" fill="#1F265C"/>
<path fill-rule="evenodd" clip-rule="evenodd" d="M66.7475 96.1967L67.4616 94.0771C67.7104 92.9442 67.0706 92.857 66.2449 92.6594L65.05 92.5568L64.8397 89.8445C64.7884 89.5019 64.4615 89.6417 64.4551 89.906L63.9896 92.4939C63.7678 93.2906 64.2243 94.9124 64.3422 96.1184L66.7475 96.1954V96.1967Z" fill="#FFCDAD"/>
<path fill-rule="evenodd" clip-rule="evenodd" d="M53.4391 130.636L53.3301 121.042L61.8575 111.618L63.8756 95.6602L67.3155 96.1054L66.654 110.025C66.5758 111.856 66.0834 113.169 65.2911 114.297L53.4378 130.636H53.4391Z" fill="#1A5E86"/>
<path fill-rule="evenodd" clip-rule="evenodd" d="M68.4388 135.647L69.2465 134.026C70.0081 134.346 70.7671 134.663 71.5287 134.982C73.0365 134.542 75.2084 135.167 75.6508 135.755C76.4585 136.898 75.8726 139.182 74.1789 138.703C72.0429 138.371 71.1966 136.565 68.4375 135.646L68.4388 135.647Z" fill="#FFCDAD"/>
<path fill-rule="evenodd" clip-rule="evenodd" d="M51.9796 118.262L55.1529 119.973C55.9607 120.839 57.171 121.676 57.0376 124.049V143.737C51.8604 147.848 47.8563 142.672 43.2676 142.142C44.7036 134.924 46.1395 127.706 47.5755 120.488C48.1627 119.338 50.4116 118.753 51.9784 118.262H51.9796Z" fill="#2A729C"/>
<path fill-rule="evenodd" clip-rule="evenodd" d="M54.1491 116.785L50.6387 116.93L50.7489 119.521C52.0695 119.472 55.4928 122.841 54.712 119.376L54.1479 116.785H54.1491Z" fill="#F9B093"/>
<path fill-rule="evenodd" clip-rule="evenodd" d="M46.8066 111.489L54.1199 108.334C55.8136 111.112 56.9278 117.124 54.7815 117.561C49.9607 118.166 48.885 116.654 46.8066 111.489Z" fill="#FFCDAD"/>
<path fill-rule="evenodd" clip-rule="evenodd" d="M55.936 114.313C55.4026 113.393 53.1679 115.343 52.1883 114.92L48.0996 111.39C50.2549 114.345 49.7689 116.693 51.937 117.617C52.7178 117.73 53.6474 117.704 54.7808 117.561C55.7616 117.361 56.0616 115.999 55.936 114.313Z" fill="#060352"/>
<path fill-rule="evenodd" clip-rule="evenodd" d="M51.9922 115.313C52.014 115.437 52.0448 115.56 52.0948 115.682C52.4563 116.608 53.5013 117.065 54.4257 116.702C54.8847 116.521 55.227 116.174 55.4129 115.756C53.8808 116.28 52.4243 116.092 51.9922 115.313Z" fill="white"/>
<path fill-rule="evenodd" clip-rule="evenodd" d="M48.9007 111.757L54.4716 108.975C55.6332 108.701 56.6525 105.414 53.7882 104.064C51.0483 103.16 49.9867 107.116 46.7147 108.988C44.4094 111.172 45.9813 114.224 49.0417 115.935C50.7521 115.181 47.8353 112.278 48.8994 111.758L48.9007 111.757Z" fill="#060352"/>
<path fill-rule="evenodd" clip-rule="evenodd" d="M49.6551 114.36C49.423 113.863 49.191 113.362 48.9589 112.862C48.2653 111.696 47.2845 112.274 47.764 113.184C48.4615 114.372 48.8192 114.008 49.6551 114.362V114.36Z" fill="#FFCDAD"/>
<path fill-rule="evenodd" clip-rule="evenodd" d="M53.4184 122.115C49.5259 116.863 45.5282 120.638 47.5116 124.133L52.4632 131.177C53.4966 132.317 54.2903 132.81 55.4673 133.199L69.7027 137.435L70.9554 134.497L56.8263 128.745C55.725 126.657 54.6082 124.241 53.4184 122.115Z" fill="#1A5E86"/>
<path fill-rule="evenodd" clip-rule="evenodd" d="M177.926 208.993C181.298 211.869 179.55 215.169 178.33 220.344L183.074 210.549L178.35 202.976L175.094 204.808L177.925 208.993H177.926Z" fill="#7D80BC"/>
<path fill-rule="evenodd" clip-rule="evenodd" d="M181.436 210.336C182.062 215.376 174.648 222.484 177.952 222.549C185.669 215.714 183.067 214.633 183.421 213.985C184.425 214.66 185.144 215.398 186.034 215.895L186.886 215.156C185.706 213.193 184.034 211.265 182.71 209.361C181.558 207.596 181.048 208.864 181.435 210.337L181.436 210.336Z" fill="#1A3763"/>
<path fill-rule="evenodd" clip-rule="evenodd" d="M172.234 212.183C173.048 216.533 169.608 218.002 165.41 221.255L175.257 216.633L176.331 207.772L172.673 207.148L172.234 212.181V212.183Z" fill="#DBCDE4"/>
<path fill-rule="evenodd" clip-rule="evenodd" d="M174.107 215.43C171.432 219.744 161.206 220.621 163.734 222.735C174.03 222.285 172.69 219.805 173.37 219.516C173.722 220.677 173.817 221.709 174.2 222.648L175.325 222.616C175.64 220.337 175.553 217.792 175.716 215.487C175.935 213.384 174.752 214.044 174.108 215.43H174.107Z" fill="#1A3763"/>
<path fill-rule="evenodd" clip-rule="evenodd" d="M176.281 166.014L167.503 172.563L164.37 180.212C160.846 187.414 162.789 188.897 164.684 191.852L177.592 209.391C179.241 209.269 180.515 208.306 181.044 206.772L169.03 187.289L179.138 171.814L176.282 166.013L176.281 166.014Z" fill="#071C3E"/>
<path fill-rule="evenodd" clip-rule="evenodd" d="M173.822 167.861C176.64 169.253 179.85 170.645 182.683 172.037C183.16 177.192 178.593 184.291 176.744 190.417L176.244 212.381C174.59 213.177 173.064 212.942 171.805 212.488L169.947 189.556L173.822 167.859V167.861Z" fill="#1A3763"/>
<path fill-rule="evenodd" clip-rule="evenodd" d="M163.61 141.815L161.28 140.35C160.511 139.866 159.476 140.182 159.029 140.972C158.581 141.764 158.865 142.771 159.652 143.225L161.71 144.41L163.61 141.815Z" fill="#2A2968"/>
<path fill-rule="evenodd" clip-rule="evenodd" d="M162.734 139.983L165.985 142.188C163.853 143.95 161.898 146.644 161.066 148.149C160.15 148.818 159.012 148.427 158.27 147.866L162.733 139.983H162.734Z" fill="#CDCAE5"/>
<path fill-rule="evenodd" clip-rule="evenodd" d="M158.91 148.233L164.201 141.007L162.735 139.982L158.271 147.865C158.457 148.011 158.674 148.141 158.911 148.232L158.91 148.233Z" fill="#2A2968"/>
<path fill-rule="evenodd" clip-rule="evenodd" d="M161.347 140.39C160.797 140.529 160.297 140.889 159.999 141.414C159.64 142.048 159.651 142.791 159.957 143.4L161.711 144.41L163.611 141.816L161.347 140.39Z" fill="#7D7FBC"/>
<path fill-rule="evenodd" clip-rule="evenodd" d="M163.781 135.262L166.617 136.87C168.041 137.677 168.546 139.502 167.738 140.926C166.932 142.351 165.107 142.856 163.684 142.049L160.848 140.441C159.425 139.634 158.92 137.809 159.726 136.385C160.532 134.96 162.357 134.455 163.781 135.262Z" fill="#2A2968"/>
<path fill-rule="evenodd" clip-rule="evenodd" d="M159.333 124.929C160.092 128.448 161.83 133.234 164.657 135.702C166.576 137.211 164.422 141.314 161.695 140.934C152.664 137.999 145.171 143.317 159.333 124.93V124.929Z" fill="#BAF1F4"/>
<path fill-rule="evenodd" clip-rule="evenodd" d="M149.92 139.888C147.558 138.55 147.641 133.911 150.103 129.563C152.566 125.213 156.5 122.76 158.86 124.098C161.222 125.437 161.14 130.075 158.677 134.424C156.215 138.772 152.28 141.227 149.92 139.888Z" fill="#27245E"/>
<path fill-rule="evenodd" clip-rule="evenodd" d="M150.362 139.11C148.342 137.965 148.505 133.835 150.723 129.916C152.943 125.996 156.399 123.734 158.418 124.88C160.438 126.026 160.275 130.154 158.057 134.074C155.838 137.994 152.381 140.256 150.362 139.11Z" fill="#BAF1F4"/>
<path fill-rule="evenodd" clip-rule="evenodd" d="M158.656 133.273L156.316 131.947L154.957 134.347L157.297 135.674C157.547 135.299 157.788 134.908 158.02 134.499C158.252 134.089 158.464 133.68 158.656 133.273Z" fill="#27245E"/>
<path fill-rule="evenodd" clip-rule="evenodd" d="M155.02 134.383C154.621 134.157 154.601 133.434 154.975 132.773C155.349 132.112 155.98 131.757 156.379 131.983C156.778 132.208 156.798 132.933 156.424 133.594C156.049 134.255 155.419 134.609 155.02 134.383Z" fill="#CDCAE5"/>
<path fill-rule="evenodd" clip-rule="evenodd" d="M155.251 133.975C154.989 133.826 154.974 133.349 155.222 132.911C155.469 132.474 155.886 132.24 156.149 132.389C156.412 132.538 156.426 133.018 156.178 133.454C155.931 133.89 155.514 134.124 155.251 133.975Z" fill="#2A2968"/>
<path fill-rule="evenodd" clip-rule="evenodd" d="M159.215 151.01L161.319 150.966C161.364 150.008 161.409 149.05 161.455 148.082C162.669 146.721 163.091 144.116 162.692 143.364C161.89 141.94 159.204 141.422 158.858 143.444C158.145 145.858 159.623 147.647 159.215 151.01Z" fill="#FFCDAD"/>
<path fill-rule="evenodd" clip-rule="evenodd" d="M176.193 153.284C178.343 150.508 175.742 148.311 173.189 148.957L163.971 160.142L161.757 148.782L158.694 149.437C158.651 151.152 157.959 158.079 160.31 162.688C161.267 164.349 162.105 165.742 165.027 165.316C169.063 163.51 172.462 157.295 176.192 153.286L176.193 153.284Z" fill="#FE8077"/>
<path fill-rule="evenodd" clip-rule="evenodd" d="M174.603 139.661C173.615 138.438 173.859 135.154 175.576 134.677C176.44 134.433 174.804 130.246 182.427 131.555C185.563 132.094 182.852 135.79 186.339 137.756C193.304 141.674 187.964 144.824 188.385 148.46C188.844 152.517 184.066 151.716 181.772 153.158C179.005 154.896 174.765 152.866 175.539 148.795C176.19 145.326 175.73 143.043 174.603 139.661Z" fill="#060352"/>
<path fill-rule="evenodd" clip-rule="evenodd" d="M177.768 147.132L174.163 148.279C173.15 149.022 171.74 149.646 171.418 152.121L167.578 172.414C172.893 177.957 177.851 171.684 182.683 172.037C182.619 164.311 181.95 158.01 181.873 150.294C181.491 148.989 179.281 147.951 177.768 147.132Z" fill="#FE8077"/>
<path fill-rule="evenodd" clip-rule="evenodd" d="M175.203 145.39L178.842 146.01L178.382 148.69C177.007 148.468 172.997 151.52 174.273 148.015L175.203 145.39Z" fill="#F9B58F"/>
<path fill-rule="evenodd" clip-rule="evenodd" d="M183.555 140.848L176.354 136.596C174.223 139.261 172.265 145.375 174.438 146.116C179.376 147.381 180.696 145.96 183.554 140.848H183.555Z" fill="#FFCDAD"/>
<path d="M177.641 144.149C177.61 144.271 177.556 144.392 177.491 144.513C176.986 145.426 175.843 145.763 174.929 145.269C174.473 145.022 174.163 144.616 174.025 144.155C175.555 144.896 177.091 144.903 177.641 144.151V144.149Z" fill="white"/>
<path fill-rule="evenodd" clip-rule="evenodd" d="M175.391 136.495C175.189 136.65 174.603 139.661 177.321 138.609C178.737 138.065 177.928 140.077 179.957 140.468C181.963 140.848 181.707 141.926 181.243 143.849C180.211 148.23 185.003 146.263 185.362 145.825C186.862 143.941 187.775 141.891 185.966 139.842C185.725 139.576 181.358 137.583 180.239 136.803C178.484 135.582 177.332 134.924 175.49 136.387L175.392 136.493L175.391 136.495Z" fill="#060352"/>
<path fill-rule="evenodd" clip-rule="evenodd" d="M180.209 143.46C180.514 142.973 180.821 142.486 181.126 141.999C182.008 140.874 182.95 141.608 182.333 142.492C181.45 143.639 181.119 143.209 180.209 143.46Z" fill="#FFCDAD"/>
<path fill-rule="evenodd" clip-rule="evenodd" d="M195.711 142.314L196.097 140.015C196.425 138.853 197.055 139.089 197.911 139.314L199.059 139.807L200.584 137.421C200.8 137.131 201.03 137.421 200.905 137.666L200.062 140.273C199.877 141.114 198.661 142.376 197.959 143.427L195.712 142.314H195.711Z" fill="#FFCDAD"/>
<path fill-rule="evenodd" clip-rule="evenodd" d="M180.5 148.811L191.107 150.249L195.565 142.03L198.525 142.842C197.261 146.337 196.879 147.389 195.62 150.879C194.558 154.37 193.345 154.172 191.94 154.566L178.35 155.645L180.5 148.809V148.811Z" fill="#FE8077"/>
</g>
<defs>
<clipPath id="clip0_1_11776">
<rect width="224.885" height="223.714" fill="white" transform="translate(0.558594 0.316895)"/>
</clipPath>
</defs>
</svg>
