<svg width="279" height="173" viewBox="0 0 279 173" fill="none" xmlns="http://www.w3.org/2000/svg">
<g clip-path="url(#clip0_1_15403)">
<path d="M-0.0137812 65.8758C0.0473384 64.8547 1.73668 64.4698 2.26354 65.3597C7.34868 73.9584 21.5785 96.1043 38.5478 105.979C66.1787 122.056 88.6121 152.636 77.1693 173.073C77.1693 173.073 -6.67459 177.194 -0.0137812 65.8758Z" fill="#78BEC2"/>
<path d="M5.24826 78.5454C5.33138 78.7771 5.45117 79.048 5.55752 79.3017L5.89735 80.0715C6.1296 80.5826 6.36063 81.0937 6.60022 81.6012C7.07451 82.6186 7.55736 83.6323 8.04876 84.6423C9.02912 86.6624 10.0535 88.6616 11.0864 90.6559C13.1657 94.6372 15.3293 98.5731 17.5907 102.453C18.7178 104.394 19.8791 106.315 21.0464 108.232L22.8189 111.094L24.6305 113.932C27.0704 117.699 29.6044 121.404 32.2313 125.041C34.8803 128.662 37.6086 132.224 40.447 135.696C43.2976 139.159 46.2839 142.507 49.3619 145.766C52.4619 149.005 55.6988 152.109 59.0616 155.073C62.4513 158.007 65.9877 160.766 69.661 163.34H69.6622C69.716 163.379 69.7294 163.454 69.6915 163.508C69.6536 163.562 69.5815 163.575 69.5277 163.54C65.7799 161.057 62.1922 158.335 58.7377 155.451C55.3296 152.513 52.0463 149.431 48.8974 146.214C45.7803 142.966 42.7818 139.607 39.9043 136.145C37.0476 132.668 34.2788 129.117 31.6434 125.468C26.4017 118.151 21.5073 110.583 17.0676 102.754C14.8416 98.844 12.7 94.8848 10.6696 90.8704C9.66598 88.8565 8.67095 86.8389 7.71993 84.8004C7.24442 83.7806 6.7738 82.7596 6.31785 81.7311C6.08926 81.2175 5.86801 80.6991 5.64554 80.183L5.32038 79.4034C5.2177 79.1362 5.10768 78.8923 5.01234 78.5907C4.99278 78.5282 5.027 78.462 5.08935 78.4412C5.15047 78.4216 5.21525 78.4547 5.23603 78.5147L5.24703 78.5454H5.24826Z" fill="#CAECEE"/>
<path d="M30.0779 55.8562C30.2184 55.1048 31.3479 55.0239 31.5985 55.7483C34.0286 62.7499 41.017 80.9218 50.993 90.3099C67.2349 105.596 78.6838 131.025 69.2702 144.817C69.2702 144.817 14.7393 137.72 30.0791 55.8562H30.0779Z" fill="#99DADE"/>
<path d="M32.2594 65.9027C32.29 66.0768 32.3401 66.2876 32.3841 66.4849L32.5271 67.0843L32.8278 68.2807C33.032 69.0774 33.2422 69.8729 33.4574 70.666C33.8889 72.2534 34.3448 73.8346 34.813 75.4109C35.7481 78.5648 36.7431 81.7003 37.8054 84.8125C39.9373 91.0345 42.2745 97.1853 44.9344 103.196C46.279 106.195 47.6554 109.178 49.1419 112.108C50.6368 115.032 52.2101 117.915 53.8872 120.738C55.5741 123.554 57.3466 126.32 59.2645 128.985C61.1849 131.648 63.236 134.213 65.4217 136.666C65.4657 136.716 65.462 136.792 65.4119 136.836C65.3642 136.879 65.2896 136.877 65.2456 136.83C62.9659 134.45 60.8573 131.907 58.8635 129.279C56.8955 126.631 55.0729 123.878 53.3359 121.072C51.6184 118.254 50.0354 115.356 48.5148 112.429C47.0112 109.492 45.5933 106.512 44.2694 103.491C42.9431 100.47 41.7097 97.4097 40.5313 94.3305C39.9397 92.791 39.3786 91.2404 38.82 89.6898L38.012 87.3523L37.2321 85.0062C36.2102 81.8707 35.242 78.7193 34.3619 75.5421C33.9255 73.9523 33.5026 72.3588 33.1041 70.7592C32.9073 69.9587 32.7105 69.1583 32.5259 68.3555L32.2582 67.1481L32.1311 66.5426C32.0932 66.3354 32.0479 66.1466 32.0186 65.9125C32.01 65.8475 32.0565 65.7875 32.1213 65.7789C32.1848 65.7703 32.2423 65.8144 32.2533 65.8757L32.2582 65.9039L32.2594 65.9027Z" fill="#CAECEE"/>
<path d="M137.88 182.939C137.88 182.939 185.722 117.546 238.034 92.9942C241.551 91.3431 245.499 94.2309 244.983 98.0896C241.537 123.893 224.051 199.177 137.88 182.94V182.939Z" fill="#99DADE"/>
<path d="M147.079 181.318C146.828 181.416 146.947 181.79 147.208 181.726C156.832 179.374 196.452 164.56 229.46 115.54C229.567 115.383 229.342 115.21 229.223 115.357C220.44 126.239 186.632 165.764 147.079 181.316V181.318Z" fill="#CAECEE"/>
<path d="M-6.16403 137.281C-6.77645 136.527 -5.955 135.418 -5.05776 135.787C3.62244 139.355 26.6951 147.983 43.6814 146.563C71.3381 144.248 104.953 154.781 110.75 174.928C110.75 174.928 60.5113 219.416 -6.16403 137.281Z" fill="#99DADE"/>
<path d="M5.23455 143.626C5.43258 143.747 5.67094 143.873 5.89464 143.997L6.58162 144.362L7.96415 145.077C8.88828 145.549 9.81607 146.015 10.7463 146.474C12.6092 147.391 14.4832 148.283 16.3656 149.16C20.1294 150.914 23.9261 152.594 27.7547 154.198C35.4166 157.393 43.1825 160.341 51.0816 162.879C55.036 164.13 59.0039 165.341 63.0146 166.396C67.0265 167.445 71.0628 168.399 75.1334 169.188C75.6394 169.298 76.1504 169.385 76.6601 169.477L78.1906 169.751L79.721 170.026L81.2575 170.258L82.7953 170.488C83.3075 170.563 83.8197 170.65 84.3343 170.704L87.4208 171.07C91.5427 171.505 95.6854 171.74 99.8342 171.741H99.8354C99.9015 171.741 99.9552 171.795 99.9552 171.861C99.9552 171.926 99.9027 171.979 99.8391 171.981C95.6805 172.099 91.5171 171.922 87.3707 171.566L84.2671 171.235C83.7488 171.187 83.2354 171.106 82.7195 171.036L81.1732 170.823L79.6269 170.608L78.0879 170.351L76.5489 170.093C76.0355 170.008 75.5221 169.925 75.0123 169.821C66.8333 168.273 58.7729 166.134 50.8579 163.57C46.8973 162.294 42.9808 160.889 39.0875 159.426C35.1954 157.958 31.3351 156.408 27.5175 154.754C23.7 153.106 19.9081 151.393 16.164 149.583C14.2937 148.674 12.4308 147.749 10.5813 146.8C9.65716 146.322 8.73426 145.844 7.81868 145.351L6.44838 144.604L5.76751 144.222C5.54015 144.089 5.32011 143.971 5.08053 143.812C5.02552 143.775 5.01085 143.702 5.04752 143.646C5.08297 143.592 5.15387 143.578 5.20888 143.611L5.2321 143.626H5.23455Z" fill="#CAECEE"/>
<path d="M201.125 120.337C202.807 81.8711 170.604 49.2131 129.198 47.393C87.7922 45.5729 52.863 75.2801 51.1814 113.746C49.4999 152.211 81.7028 184.869 123.109 186.69C164.514 188.51 199.444 158.802 201.125 120.337Z" fill="url(#paint0_linear_1_15403)"/>
<path opacity="0.1" d="M122.118 167.723C154.64 167.723 181.004 142.749 181.004 111.941C181.004 81.1336 154.64 56.1592 122.118 56.1592C89.5957 56.1592 63.2314 81.1336 63.2314 111.941C63.2314 142.749 89.5957 167.723 122.118 167.723Z" fill="white"/>
<g style="mix-blend-mode:soft-light">
<path d="M145.335 117.386C145.317 129.682 144.476 142.003 142.316 154.125C141.768 157.152 141.135 160.167 140.378 163.151C139.621 166.135 138.745 169.093 137.675 171.984C136.594 174.868 135.34 177.711 133.639 180.31C132.783 181.599 131.811 182.835 130.612 183.851C130.013 184.356 129.354 184.803 128.629 185.132C127.906 185.458 127.117 185.664 126.315 185.678C125.514 185.702 124.712 185.545 123.975 185.247C123.236 184.953 122.561 184.525 121.947 184.036C120.719 183.052 119.726 181.829 118.853 180.55C117.122 177.97 115.851 175.133 114.76 172.254C113.674 169.367 112.79 166.412 112.026 163.43C111.264 160.447 110.623 157.434 110.07 154.408C108.969 148.353 108.219 142.24 107.712 136.109C107.209 129.977 106.957 123.826 106.926 117.674C106.912 114.599 106.995 111.523 107.104 108.45C107.219 105.378 107.387 102.307 107.613 99.2401C108.067 93.1076 108.744 86.9874 109.751 80.9187C110.256 77.8849 110.847 74.8634 111.554 71.8689C112.265 68.8756 113.091 65.9055 114.115 63.0005C114.63 61.5492 115.194 60.1138 115.835 58.7116C116.476 57.3105 117.193 55.9389 118.037 54.642C118.881 53.3513 119.853 52.1194 121.063 51.1339C121.669 50.6448 122.335 50.2195 123.065 49.9314C123.792 49.6397 124.58 49.4914 125.365 49.522C126.15 49.5441 126.925 49.7402 127.639 50.0565C128.354 50.3739 129.011 50.8042 129.614 51.2933C130.821 52.2763 131.819 53.4788 132.706 54.7413C134.467 57.2835 135.795 60.0881 136.945 62.9404C138.086 65.8014 139.029 68.7358 139.85 71.7009C140.668 74.6673 141.361 77.6667 141.961 80.6845C144.334 92.7644 145.299 105.087 145.334 117.385L145.335 117.386ZM144.428 117.386C144.439 111.26 144.207 105.131 143.7 99.0256C143.199 92.9201 142.441 86.833 141.311 80.812C140.746 77.8028 140.09 74.8095 139.308 71.8505C138.523 68.8927 137.617 65.9644 136.514 63.112C135.405 60.2683 134.116 57.4735 132.407 54.9497C131.548 53.697 130.58 52.5055 129.416 51.5372C128.835 51.0555 128.203 50.6326 127.521 50.3212C126.839 50.0136 126.105 49.8113 125.358 49.7917C124.611 49.7684 123.865 49.9179 123.175 50.2035C122.481 50.4855 121.845 50.901 121.265 51.3803C120.105 52.3474 119.164 53.5634 118.347 54.8431C117.532 56.1277 116.836 57.4895 116.218 58.8844C115.597 60.2793 115.054 61.7085 114.559 63.1549C113.574 66.0502 112.784 69.0116 112.109 71.9976C111.437 74.9848 110.882 77.9977 110.413 81.0253C109.475 87.0793 108.866 93.1836 108.481 99.299C108.093 105.416 107.957 111.546 107.969 117.673C107.952 123.799 108.157 129.928 108.611 136.037C109.068 142.147 109.77 148.24 110.819 154.273C111.344 157.29 111.958 160.29 112.694 163.26C113.431 166.229 114.285 169.17 115.339 172.037C116.398 174.897 117.635 177.71 119.307 180.243C120.149 181.5 121.106 182.691 122.268 183.636C122.847 184.104 123.479 184.51 124.161 184.788C124.842 185.067 125.572 185.221 126.303 185.197C127.034 185.178 127.754 184.985 128.422 184.677C129.092 184.367 129.709 183.941 130.277 183.456C131.412 182.479 132.35 181.272 133.176 180.006C134.819 177.451 136.039 174.632 137.085 171.768C138.123 168.896 138.969 165.953 139.699 162.982C140.426 160.01 141.032 157.008 141.553 153.991C142.595 147.957 143.288 141.862 143.747 135.753C144.214 129.644 144.429 123.515 144.427 117.388L144.428 117.386Z" fill="#99DADE"/>
</g>
<g style="mix-blend-mode:soft-light">
<path d="M176.269 117.386C176.226 125.304 175.211 133.225 173.098 140.862C170.946 148.48 167.705 155.809 163.303 162.389C161.101 165.675 158.608 168.769 155.822 171.576C153.037 174.382 149.957 176.899 146.612 179.01C143.265 181.112 139.651 182.795 135.867 183.936C132.085 185.081 128.138 185.678 124.188 185.682C120.237 185.682 116.287 185.089 112.504 183.947C108.718 182.809 105.101 181.129 101.751 179.028C98.4036 176.92 95.3183 174.405 92.5288 171.6C89.7381 168.795 87.2395 165.702 85.0331 162.416C80.6227 155.835 77.3736 148.502 75.2124 140.88C74.1489 137.062 73.358 133.169 72.8348 129.24C72.3141 125.312 72.0525 121.35 72.0342 117.386C72.055 113.423 72.319 109.462 72.8422 105.533C73.3678 101.606 74.1611 97.7126 75.2283 93.8968C77.3944 86.2775 80.6484 78.9511 85.0624 72.3761C87.2688 69.0923 89.7686 66.0034 92.5594 63.2013C95.3489 60.4005 98.4317 57.8876 101.779 55.7867C105.128 53.6919 108.744 52.0248 112.523 50.8861C116.301 49.7437 120.243 49.1467 124.189 49.1431C128.135 49.1504 132.076 49.7498 135.852 50.8959C139.629 52.0371 143.242 53.7078 146.588 55.8051C149.931 57.9085 153.009 60.4237 155.794 63.2258C158.58 66.0292 161.073 69.1193 163.276 72.4019C167.68 78.9744 170.928 86.2996 173.084 93.914C175.203 101.547 176.224 109.468 176.271 117.385L176.269 117.386ZM175.228 117.386C175.217 109.557 174.244 101.721 172.185 94.164C170.114 86.6195 166.994 79.3348 162.701 72.7843C160.556 69.5128 158.119 66.4287 155.389 63.6242C152.658 60.8246 149.643 58.2934 146.345 56.1875C143.042 54.0939 139.476 52.4097 135.737 51.2698C131.999 50.1298 128.097 49.5304 124.188 49.5169C120.278 49.5329 116.376 50.1359 112.641 51.2796C108.903 52.422 105.341 54.1098 102.041 56.2059C98.7471 58.313 95.7351 60.8479 93.0092 63.6475C90.2845 66.452 87.8519 69.5373 85.7115 72.8088C81.427 79.3581 78.3148 86.6391 76.2539 94.1812C75.2271 97.9565 74.4839 101.805 73.9802 105.684C73.4754 109.562 73.226 113.473 73.2175 117.385C73.2285 121.297 73.4803 125.208 73.9876 129.086C74.4936 132.963 75.2405 136.811 76.2698 140.585C78.3356 148.123 81.4527 155.399 85.7409 161.942C87.8825 165.212 90.315 168.293 93.0385 171.094C95.7645 173.89 98.774 176.422 102.068 178.522C105.366 180.612 108.928 182.288 112.659 183.43C116.387 184.575 120.283 185.18 124.188 185.2C128.092 185.184 131.988 184.582 135.718 183.44C139.452 182.301 143.016 180.628 146.318 178.541C149.616 176.442 152.629 173.912 155.36 171.117C158.089 168.318 160.526 165.237 162.672 161.968C166.969 155.424 170.092 148.145 172.169 140.603C174.233 133.049 175.211 125.214 175.228 117.386Z" fill="#99DADE"/>
</g>
<g style="mix-blend-mode:soft-light">
<path d="M63.413 90.3616L79.0535 90.2354L94.694 90.1631L125.975 90.1055L157.256 90.1692L172.896 90.2477L188.537 90.3849C188.563 90.3849 188.582 90.4058 188.582 90.4315C188.582 90.456 188.561 90.4769 188.537 90.4769L172.896 90.6142L157.256 90.6926L125.975 90.7563L94.694 90.6987L79.0535 90.6264L63.413 90.5002C63.3751 90.5002 63.3445 90.4695 63.3457 90.4315C63.3457 90.3935 63.3763 90.3641 63.413 90.3641V90.3616Z" fill="#99DADE"/>
</g>
<g style="mix-blend-mode:soft-light">
<path d="M81.5575 64.0926C85.2589 64.0338 88.9603 64.0093 92.6617 63.9664L103.766 63.894C107.467 63.8634 111.169 63.8671 114.87 63.8573L125.974 63.8364L148.183 63.9002L159.287 63.9786C162.988 64.0252 166.69 64.0522 170.391 64.1159C170.417 64.1159 170.436 64.138 170.436 64.1625C170.436 64.187 170.416 64.2078 170.391 64.2078C166.69 64.2703 162.988 64.2985 159.287 64.3451L148.183 64.4236L125.974 64.4873L114.87 64.4665C111.169 64.4567 107.467 64.4603 103.766 64.4297L92.6617 64.3574C88.9603 64.3145 85.2589 64.29 81.5575 64.2311C81.5196 64.2311 81.489 64.1993 81.4903 64.1613C81.4903 64.1245 81.5208 64.0938 81.5575 64.0938V64.0926Z" fill="#99DADE"/>
</g>
<g style="mix-blend-mode:soft-light">
<path d="M57.9767 116.631L74.9765 116.505L91.9763 116.433L125.976 116.375L159.975 116.439L176.975 116.517L193.975 116.654C194.001 116.654 194.02 116.675 194.02 116.701C194.02 116.726 193.999 116.746 193.975 116.746L176.975 116.884L159.975 116.962L125.976 117.026L91.9763 116.968L74.9765 116.896L57.9767 116.77C57.9388 116.77 57.9082 116.739 57.9082 116.701C57.9082 116.663 57.9388 116.634 57.9767 116.632V116.631Z" fill="#99DADE"/>
</g>
<g style="mix-blend-mode:soft-light">
<path d="M63.413 142.899L79.0535 142.773L94.694 142.701L125.975 142.643L157.256 142.707L172.896 142.785L188.537 142.923C188.563 142.923 188.582 142.943 188.582 142.969C188.582 142.994 188.561 143.014 188.537 143.014L172.896 143.152L157.256 143.23L125.975 143.294L94.694 143.236L79.0535 143.164L63.413 143.038C63.3751 143.038 63.3445 143.007 63.3457 142.969C63.3457 142.931 63.3763 142.902 63.413 142.902V142.899Z" fill="#99DADE"/>
</g>
<g style="mix-blend-mode:soft-light">
<path d="M172.631 169.477H83.7962C83.6642 169.477 83.5566 169.369 83.5566 169.237C83.5566 169.104 83.6642 168.997 83.7962 168.997H172.631C172.763 168.997 172.871 169.104 172.871 169.237C172.871 169.369 172.763 169.477 172.631 169.477Z" fill="#99DADE"/>
</g>
<path d="M97.7356 160.576C99.5894 160.576 101.092 159.069 101.092 157.21C101.092 155.351 99.5894 153.844 97.7356 153.844C95.8817 153.844 94.3789 155.351 94.3789 157.21C94.3789 159.069 95.8817 160.576 97.7356 160.576Z" fill="#FE7062"/>
<path d="M143.297 144.465C145.151 144.465 146.654 142.958 146.654 141.099C146.654 139.24 145.151 137.733 143.297 137.733C141.443 137.733 139.94 139.24 139.94 141.099C139.94 142.958 141.443 144.465 143.297 144.465Z" fill="#FE7062"/>
<path d="M116.919 132.684C118.773 132.684 120.276 131.177 120.276 129.318C120.276 127.459 118.773 125.952 116.919 125.952C115.065 125.952 113.562 127.459 113.562 129.318C113.562 131.177 115.065 132.684 116.919 132.684Z" fill="#FE7062"/>
<path d="M144.975 178.61C146.829 178.61 148.332 177.103 148.332 175.244C148.332 173.385 146.829 171.878 144.975 171.878C143.121 171.878 141.618 173.385 141.618 175.244C141.618 177.103 143.121 178.61 144.975 178.61Z" fill="#FE7062"/>
<path d="M168.714 157.209C170.568 157.209 172.071 155.702 172.071 153.843C172.071 151.985 170.568 150.478 168.714 150.478C166.86 150.478 165.357 151.985 165.357 153.843C165.357 155.702 166.86 157.209 168.714 157.209Z" fill="url(#paint1_linear_1_15403)"/>
<path d="M116.788 166.062C111.523 166.062 106.251 164.274 101.916 160.948L102.208 160.567C107.387 164.542 113.932 166.275 120.163 165.328C126.396 164.378 132.284 160.747 136.317 155.365C138.085 153.004 139.388 150.485 140.19 147.878L140.649 148.02C139.83 150.681 138.502 153.249 136.699 155.654C132.592 161.136 126.591 164.835 120.235 165.803C119.093 165.978 117.94 166.063 116.788 166.063V166.062Z" fill="url(#paint2_linear_1_15403)"/>
<path d="M158.187 157.289C155.407 157.289 153.067 156.583 151.189 155.174C146.468 151.629 146.413 144.774 146.413 144.706H146.892C146.892 144.772 146.95 151.393 151.479 154.791C154.551 157.096 158.955 157.428 164.569 155.777L164.704 156.239C162.319 156.94 160.143 157.29 158.186 157.29L158.187 157.289Z" fill="url(#paint3_linear_1_15403)"/>
<path d="M104.415 157.596C104.045 157.596 103.738 157.465 103.526 157.202L103.899 156.9C104.32 157.42 105.344 156.85 105.546 156.73C109.999 154.09 113.614 150.6 116 146.64C118.636 142.263 119.777 137.282 119.211 132.615L119.686 132.557C120.265 137.33 119.101 142.42 116.409 146.889C113.983 150.918 110.311 154.464 105.789 157.145C105.283 157.445 104.812 157.596 104.414 157.596H104.415Z" fill="url(#paint4_linear_1_15403)"/>
<path d="M148.818 171.136L148.368 170.969C148.949 169.39 150.098 168.097 151.253 166.934C154.254 163.912 157.646 161.305 161.335 159.183C162.732 158.379 164.257 157.598 165.936 157.321L166.015 157.796C164.411 158.06 162.933 158.819 161.575 159.6C157.922 161.7 154.564 164.281 151.593 167.273C150.476 168.397 149.367 169.643 148.819 171.134L148.818 171.136Z" fill="url(#paint5_linear_1_15403)"/>
<path d="M34.0144 186.544C33.8188 186.544 33.6611 186.389 33.6611 186.196V144.605C33.6611 144.413 33.8188 144.257 34.0144 144.257C34.21 144.257 34.3677 144.413 34.3677 144.605V186.196C34.3677 186.389 34.21 186.544 34.0144 186.544Z" fill="url(#paint6_linear_1_15403)"/>
<path d="M17.7224 186.544C17.5268 186.544 17.3691 186.389 17.3691 186.196V144.605C17.3691 144.413 17.5268 144.257 17.7224 144.257C17.918 144.257 18.0757 144.413 18.0757 144.605V186.196C18.0757 186.389 17.918 186.544 17.7224 186.544Z" fill="url(#paint7_linear_1_15403)"/>
<path d="M-5.80991 186.545C-5.85636 186.545 -5.90281 186.536 -5.94804 186.516C-6.12773 186.442 -6.21085 186.237 -6.13507 186.06L11.938 144.206C12.0138 144.029 12.2216 143.947 12.4013 144.022C12.581 144.097 12.6641 144.301 12.5883 144.478L-5.48475 186.333C-5.54221 186.465 -5.673 186.545 -5.80991 186.545Z" fill="url(#paint8_linear_1_15403)"/>
<path d="M5.35415 186.545C5.3077 186.545 5.26125 186.536 5.21602 186.516C5.03633 186.442 4.95321 186.237 5.029 186.06L23.1021 144.206C23.1791 144.029 23.3857 143.947 23.5653 144.022C23.745 144.097 23.8282 144.301 23.7524 144.478L5.67931 186.333C5.62186 186.465 5.49106 186.545 5.35415 186.545Z" fill="url(#paint9_linear_1_15403)"/>
<path d="M34.5634 144.725H11.2927C11.0176 144.725 10.7939 144.506 10.7939 144.235C10.7939 143.964 11.0164 143.745 11.2927 143.745H34.5634C34.8384 143.745 35.0621 143.964 35.0621 144.235C35.0621 144.506 34.8396 144.725 34.5634 144.725Z" fill="url(#paint10_linear_1_15403)"/>
<path d="M20.6978 151.091H9.50073C9.30515 151.091 9.14746 150.935 9.14746 150.743C9.14746 150.55 9.30515 150.395 9.50073 150.395H20.6978C20.8934 150.395 21.0511 150.55 21.0511 150.743C21.0511 150.935 20.8934 151.091 20.6978 151.091Z" fill="url(#paint11_linear_1_15403)"/>
<path d="M17.2625 158.311H6.06543V159.007H17.2625V158.311Z" fill="url(#paint12_linear_1_15403)"/>
<path d="M13.9364 166.226H2.73926V166.922H13.9364V166.226Z" fill="url(#paint13_linear_1_15403)"/>
<path d="M33.2243 143.833C32.1083 143.93 30.1708 144.087 28.644 144.155C27.726 144.195 27.1979 144.106 26.8936 143.983C26.8936 144.017 26.8948 144.05 26.896 144.08C26.9033 144.24 27.0341 144.37 27.1955 144.379C30.0803 144.541 32.376 144.435 33.1925 144.385C33.3612 144.375 33.4627 144.19 33.3759 144.047C33.3331 143.974 33.2806 143.903 33.2231 143.833H33.2243Z" fill="url(#paint14_linear_1_15403)"/>
<path d="M28.6456 144.155C30.1724 144.087 32.1099 143.93 33.2259 143.834C32.1282 142.484 28.6456 141.573 28.6456 141.573H27.6616C26.9856 142.551 26.8866 143.482 26.8939 143.983C27.1983 144.106 27.7264 144.195 28.6444 144.155H28.6456Z" fill="#1F265C"/>
<path d="M27.4951 139.963L27.5868 141.789C27.5966 141.986 27.7445 142.153 27.9425 142.181C28.1393 142.209 28.4021 142.213 28.6808 142.12C28.852 142.062 28.9803 141.918 29.0121 141.74L29.3299 139.961H27.4951V139.963Z" fill="url(#paint15_linear_1_15403)"/>
<path d="M14.7192 144.141C14.2352 144.073 14.0164 143.821 13.9247 143.551C13.9247 143.554 13.9247 143.556 13.9235 143.559C13.8526 143.843 14.0176 144.137 14.3476 144.278C14.7461 144.447 15.1825 144.477 15.5211 144.462C15.8842 144.447 16.2179 144.297 16.4012 144.055L16.4037 144.051C16.0394 144.233 15.5272 144.254 14.7205 144.141H14.7192Z" fill="#01010F"/>
<path d="M17.0016 139.951H16.1899C14.9541 139.926 14.1778 142.539 13.9248 143.551C14.0165 143.821 14.2353 144.074 14.7194 144.141C15.5261 144.254 16.0383 144.233 16.4026 144.052C17.07 143.17 17.4013 141.881 17.5602 141.128C17.7411 140.271 17.0003 139.951 17.0003 139.951H17.0016Z" fill="url(#paint16_linear_1_15403)"/>
<path d="M16.2947 138.256L15.8436 140.053C15.7886 140.274 15.8937 140.502 16.0966 140.606C16.3485 140.736 16.7029 140.872 17.0293 140.833C17.1821 140.815 17.3105 140.707 17.3606 140.561L18.0219 138.671L16.2934 138.256H16.2947Z" fill="url(#paint17_linear_1_15403)"/>
<path d="M15.7568 138.775C16.3167 139.274 18.1405 139.339 18.1405 139.339C24.7072 123.536 27.3928 121.291 27.3928 121.291C26.4442 127.255 27.24 140.46 27.24 140.46C28.323 140.94 29.7202 140.46 29.7202 140.46C29.8082 130.695 31.3057 122.179 33.0732 115.465C28.6347 115.364 26.2755 113.842 25.5042 113.23C21.8052 119.21 15.7568 138.772 15.7568 138.772V138.775Z" fill="url(#paint18_linear_1_15403)"/>
<path d="M26.6326 95.0598C25.7928 99.2617 26.0935 106.782 26.2915 110.211C26.3465 111.176 25.6754 112.512 25.1339 113.424C25.0483 113.568 25.1009 113.75 25.2488 113.826C26.157 114.294 29.2338 115.744 32.7995 115.926C33.0379 115.938 33.2494 115.775 33.3117 115.545C35.957 105.641 39.0288 99.3119 39.0288 99.3119C35.6367 93.8806 26.6326 95.061 26.6326 95.061V95.0598Z" fill="#F2A662"/>
<path d="M27.8414 120.918C27.8036 120.918 27.7669 120.909 27.7327 120.888C27.6336 120.826 27.6019 120.698 27.663 120.598C27.6984 120.54 28.548 119.163 30.2667 118.332C30.3706 118.282 30.4965 118.325 30.5478 118.43C30.5979 118.535 30.5539 118.662 30.45 118.712C28.8475 119.488 28.0309 120.804 28.0224 120.818C27.9832 120.883 27.9136 120.918 27.8427 120.918H27.8414Z" fill="url(#paint19_linear_1_15403)"/>
<path d="M21.3633 107.118C21.6334 109.075 22.4304 111.21 24.0244 113.478L24.6307 112.983C24.6307 112.983 23.9315 110.135 24.3288 106.904C23.3448 106.712 22.1835 106.91 21.3633 107.119V107.118Z" fill="url(#paint20_linear_1_15403)"/>
<path d="M27.5703 100.243L26.6315 95.0596C26.6315 95.0596 20.363 99.8646 21.3629 107.117C22.1832 106.909 23.3457 106.71 24.3285 106.903C24.6145 104.575 25.4714 102.049 27.5703 100.242V100.243Z" fill="#F2A662"/>
<path d="M38.3358 98.2954L36.1514 103.64C38.0057 106.219 42.7083 107.006 44.5565 106.586C43.9673 105.271 43.729 104.077 43.6385 103.211C40.442 102.218 38.3358 98.2966 38.3358 98.2966V98.2954Z" fill="#F2A662"/>
<path d="M43.6387 103.209C43.7291 104.076 43.9675 105.27 44.5567 106.585C49.7274 105.902 49.6394 102.333 49.6394 102.333L49.0355 102.03C47.3584 103.196 44.9992 103.631 43.6387 103.208V103.209Z" fill="url(#paint21_linear_1_15403)"/>
<path d="M36.799 92.8593L35.6304 97.1654C35.4996 97.6496 34.9776 97.9094 34.5131 97.7231C34.012 97.5221 33.3763 97.2487 32.8299 96.9521C32.2456 96.6359 32.0635 95.882 32.4326 95.3292L34.8615 91.6973L36.799 92.8581V92.8593Z" fill="url(#paint22_linear_1_15403)"/>
<path d="M38.5329 88.5034C38.5622 88.5721 38.8275 93.5045 38.8275 93.5045L36.016 93.5965L35.0723 88.9582C35.0723 88.9582 38.05 87.35 38.5341 88.5022L38.5329 88.5034Z" fill="url(#paint23_linear_1_15403)"/>
<path d="M35.9326 89.8221L36.2394 92.303C36.2431 92.3349 36.2517 92.3656 36.2639 92.395C36.3397 92.5764 36.6453 93.1795 37.2418 92.8277C37.7833 92.509 38.2821 92.2258 38.6818 92.243C38.8615 92.2503 39.0057 92.3925 39.0155 92.5727C39.0399 93.0213 39.0754 94.0314 38.9715 94.9151C38.9507 95.0941 38.7955 95.2265 38.6158 95.2216C38.0742 95.2056 36.9325 95.1419 36.0255 94.8735C35.9033 94.8367 35.8092 94.7374 35.7823 94.6124C35.6502 94.0007 35.242 92.1425 35.0488 91.6423C34.8667 91.1729 34.1993 91.0381 33.9145 91.0013C33.8215 90.989 33.7372 90.94 33.6822 90.864C33.4854 90.5956 33.1407 89.9459 33.9377 89.4335C34.1039 89.3269 34.1492 89.1038 34.0379 88.9408C33.8154 88.6147 33.6174 88.0791 34.2127 87.5998C34.8178 87.1132 35.4241 87.3448 35.7774 87.5704C35.9204 87.6611 36.1038 87.6329 36.2199 87.5091C36.2859 87.438 36.3837 87.3951 36.5255 87.4404C36.7174 87.5005 36.9191 87.373 36.9582 87.1744C37.034 86.7945 37.2748 86.3446 37.9752 86.2845C39.2184 86.1779 39.6964 87.465 39.5851 88.3218C39.4727 89.1786 38.1183 89.2178 37.3763 88.9947C36.8115 88.8256 36.2602 89.3024 36.0292 89.5402C35.9558 89.6162 35.9216 89.7204 35.9338 89.8245L35.9326 89.8221Z" fill="url(#paint24_linear_1_15403)"/>
<path d="M35.1679 92.5422C35.1679 92.5422 35.2999 91.0407 34.7095 90.836C34.1191 90.6313 33.4211 91.0002 33.8428 91.9527C34.3684 93.1367 35.1667 92.5422 35.1667 92.5422H35.1679Z" fill="url(#paint25_linear_1_15403)"/>
<path d="M24.3811 112.896L27.211 112.664L28.437 113.797C28.437 113.797 28.1473 114.199 27.2403 113.967C26.3333 113.737 25.0926 113.679 25.0926 113.679C25.0926 113.679 23.8408 114.244 23.8262 113.186L24.3824 112.895L24.3811 112.896Z" fill="url(#paint26_linear_1_15403)"/>
<path d="M49.5719 102.846C49.5511 103.037 48.8275 103.026 48.7676 102.178C48.8996 101.842 49.3164 100.339 49.6306 100.157C51.304 99.1834 54.1204 98.2788 54.1204 98.2788C54.316 98.7691 53.887 98.9787 53.887 98.9787L52.4519 99.5757C52.4947 100.04 52.6083 100.466 52.5289 100.969C52.469 101.351 52.2551 101.693 51.9458 101.929C51.6365 102.166 51.2221 102.468 50.8603 102.689C50.1746 103.106 49.5707 102.846 49.5707 102.846H49.5719Z" fill="url(#paint27_linear_1_15403)"/>
<path d="M50.3946 102.371L50.1954 102.238C50.2919 102.093 51.1464 100.822 51.4972 100.577C51.6268 100.486 51.7014 100.398 51.7124 100.322C51.7173 100.284 51.7075 100.242 51.6806 100.197L50.5609 100.533L49.9692 101.147L49.7969 100.98L50.4325 100.321L51.771 99.9199L51.8212 99.9824C51.9251 100.109 51.9666 100.231 51.9495 100.358C51.9287 100.506 51.826 100.643 51.6341 100.777C51.3689 100.962 50.6489 101.993 50.3946 102.374V102.371Z" fill="url(#paint28_linear_1_15403)"/>
<path d="M46.6748 95.1777C46.6748 95.1777 61.445 134.239 66.1108 142.365C71.5273 151.797 87.3474 145.787 86.5602 137.893C85.773 129.999 67.2904 97.3706 67.2904 97.3706L46.6748 95.1777Z" fill="#1F265C"/>
<path d="M66.6314 66.724L158.433 34.8076L157.469 121.18L64.123 100.294L66.6314 66.724Z" fill="#FF8D06"/>
<path d="M158.52 122.631C163.501 122.631 167.539 102.758 167.539 78.2437C167.539 53.7293 163.501 33.8564 158.52 33.8564C153.539 33.8564 149.501 53.7293 149.501 78.2437C149.501 102.758 153.539 122.631 158.52 122.631Z" fill="#D47474"/>
<path d="M159.204 119.596C158.389 118.765 156.613 115.557 155.091 107.265C153.619 99.2506 152.809 88.8549 152.809 77.9934C152.809 67.132 153.619 56.7375 155.091 48.7223C156.613 40.4288 158.389 37.2222 159.204 36.3911C160.019 37.2222 161.796 40.43 163.318 48.7223C164.789 56.7363 165.6 67.132 165.6 77.9934C165.6 88.8549 164.789 99.2494 163.318 107.265C161.796 115.558 160.019 118.765 159.204 119.596Z" fill="#FF8F3A"/>
<mask id="mask0_1_15403" style="mask-type:luminance" maskUnits="userSpaceOnUse" x="152" y="36" width="25" height="84">
<path d="M159.204 119.596C158.389 118.765 156.613 115.557 155.091 107.265C153.619 99.2506 152.809 88.8549 152.809 77.9934C152.809 67.132 153.619 56.7375 155.091 48.7223C156.613 40.4288 158.389 37.2222 159.204 36.3911C160.019 37.2222 161.796 40.43 163.318 48.7223C164.789 56.7363 176.4 67.132 176.4 77.9934C176.4 88.8549 164.789 99.2494 163.318 107.265C161.796 115.558 160.019 118.765 159.204 119.596Z" fill="white"/>
</mask>
<g mask="url(#mask0_1_15403)">
<path d="M170.591 77.6562C170.591 85.1983 166.538 91.3124 158.52 91.3124C150.501 91.3124 144 85.1983 144 77.6562C144 70.1141 150.501 64 158.52 64C166.538 64 170.591 70.1141 170.591 77.6562Z" fill="#1F265C"/>
</g>
<path d="M51.8258 64.8681C56.1445 64.3656 62.3372 64.1841 69.0322 65.7225C66.8258 77.2777 67.1595 89.3208 69.7106 101.792H50.8259C47.8151 101.792 45.2481 99.5988 44.7775 96.6166C43.8363 90.6385 42.686 80.591 43.912 72.5218C44.5281 68.4719 47.7675 65.3413 51.8246 64.8681H51.8258Z" fill="url(#paint29_linear_1_15403)"/>
<path d="M63.1602 73.6986H48.4463C47.9536 73.6986 47.5197 73.44 47.2838 73.0061C47.0491 72.5722 47.0674 72.0659 47.3351 71.6516C47.4427 71.4849 47.6651 71.4371 47.8326 71.545C47.9989 71.6528 48.0465 71.8759 47.939 72.0439C47.8167 72.2326 47.8082 72.4643 47.9157 72.6616C48.0233 72.859 48.2213 72.9779 48.4463 72.9779H63.1602C63.4927 72.9779 63.764 72.707 63.764 72.3724V71.3219C63.764 70.9885 63.4927 70.7164 63.1602 70.7164H48.3375C48.1382 70.7164 47.9781 70.5546 47.9781 70.356C47.9781 70.1574 48.1394 69.9956 48.3375 69.9956H63.1602C63.8899 69.9956 64.4828 70.5913 64.4828 71.3219V72.3724C64.4828 73.1041 63.8887 73.6986 63.1602 73.6986Z" fill="url(#paint30_linear_1_15403)"/>
<path d="M61.8472 80.2333H47.1333C46.6406 80.2333 46.2067 79.9747 45.9708 79.5407C45.7348 79.1068 45.7544 78.6006 46.0221 78.1863C46.1297 78.0183 46.3534 77.9705 46.5196 78.0796C46.6859 78.1875 46.7348 78.4106 46.626 78.5785C46.5037 78.7673 46.4952 78.9989 46.6027 79.1975C46.7103 79.3949 46.9083 79.5138 47.1333 79.5138H61.8472C62.1797 79.5138 62.4511 79.2416 62.4511 78.9082V77.859C62.4511 77.5256 62.1797 77.2535 61.8472 77.2535H47.0245C46.8252 77.2535 46.6651 77.0917 46.6651 76.8931C46.6651 76.6945 46.8264 76.5327 47.0245 76.5327H61.8472C62.577 76.5327 63.1698 77.1284 63.1698 77.8602V78.9095C63.1698 79.6412 62.5757 80.237 61.8472 80.237V80.2333Z" fill="url(#paint31_linear_1_15403)"/>
<path d="M79.9715 64.368C79.8187 64.368 79.6781 64.27 79.6292 64.1168C79.5693 63.9268 79.6733 63.7245 79.8627 63.6632L149.392 41.4769C149.582 41.4169 149.784 41.5211 149.845 41.7111C149.905 41.9011 149.801 42.1033 149.611 42.1646L80.0815 64.3509C80.0449 64.3619 80.0082 64.368 79.9727 64.368H79.9715Z" fill="url(#paint32_linear_1_15403)"/>
<path d="M70.5692 68.222C70.4274 68.222 70.293 68.1375 70.2355 67.9977C70.1609 67.8139 70.249 67.603 70.4323 67.527L74.0103 66.0598C74.1936 65.985 74.4039 66.0733 74.4796 66.2571C74.5542 66.441 74.4662 66.6518 74.2828 66.7278L70.7049 68.1951C70.6609 68.2135 70.6144 68.222 70.5692 68.222Z" fill="url(#paint33_linear_1_15403)"/>
<path d="M63.1597 87.8856H48.4458C47.9531 87.8856 47.5192 87.627 47.2833 87.1931C47.0473 86.7592 47.0669 86.2529 47.3346 85.8386C47.4422 85.6707 47.6647 85.6241 47.8321 85.732C47.9984 85.8398 48.046 86.0629 47.9385 86.2308C47.8162 86.4196 47.8077 86.6513 47.9152 86.8499C48.0228 87.0472 48.2208 87.1661 48.4458 87.1661H63.1597C63.4922 87.1661 63.7636 86.894 63.7636 86.5606V85.5113C63.7636 85.1779 63.4922 84.9058 63.1597 84.9058H48.337C48.1377 84.9058 47.9776 84.744 47.9776 84.5454C47.9776 84.3469 48.1389 84.1851 48.337 84.1851H63.1597C63.8895 84.1851 64.4823 84.7808 64.4823 85.5126V86.5618C64.4823 87.2936 63.8882 87.8893 63.1597 87.8893V87.8856Z" fill="url(#paint34_linear_1_15403)"/>
<path d="M64.5376 96.3803H49.8237C49.3311 96.3803 48.8971 96.1216 48.6612 95.6877C48.4253 95.2538 48.4448 94.7475 48.7125 94.3332C48.8201 94.1653 49.0438 94.1187 49.21 94.2266C49.3763 94.3345 49.424 94.5576 49.3164 94.7255C49.1942 94.9143 49.1856 95.1459 49.2932 95.3445C49.4007 95.5418 49.5988 95.6607 49.8237 95.6607H64.5376C64.8701 95.6607 65.1415 95.3886 65.1415 95.0552V94.006C65.1415 93.6726 64.8701 93.4004 64.5376 93.4004H49.7149C49.5156 93.4004 49.3555 93.2386 49.3555 93.0401C49.3555 92.8415 49.5169 92.6797 49.7149 92.6797H64.5376C65.2674 92.6797 65.8603 93.2754 65.8603 94.0072V95.0564C65.8603 95.7882 65.2662 96.3839 64.5376 96.3839V96.3803Z" fill="url(#paint35_linear_1_15403)"/>
<path d="M77.678 142.563C77.0008 142.563 76.3175 142.49 75.6354 142.341C72.6503 141.689 70.219 139.714 68.9672 136.925L57.2115 110.736C57.1296 110.555 57.2115 110.342 57.3924 110.259C57.5733 110.177 57.786 110.259 57.8679 110.441L69.6237 136.629C70.7813 139.208 73.0292 141.033 75.7894 141.636C78.5019 142.23 81.2486 141.525 83.323 139.706C83.4342 139.608 83.5455 139.509 83.6579 139.406C83.8046 139.271 84.032 139.282 84.1665 139.429C84.3009 139.576 84.2899 139.804 84.1432 139.939C84.0271 140.045 83.9122 140.148 83.7973 140.249C82.0713 141.763 79.9174 142.564 77.6804 142.564L77.678 142.563Z" fill="url(#paint36_linear_1_15403)"/>
<path d="M55.8009 107.077C55.664 107.077 55.5332 106.998 55.4733 106.864L54.1617 103.942C54.0798 103.76 54.1617 103.547 54.3426 103.465C54.5235 103.383 54.7362 103.465 54.8181 103.646L56.1297 106.567C56.2116 106.749 56.1297 106.962 55.9488 107.044C55.9012 107.066 55.851 107.076 55.8009 107.076V107.077Z" fill="url(#paint37_linear_1_15403)"/>
<path d="M168.615 77.2508C168.427 77.2508 168.27 77.1062 168.256 76.9162C167.995 73.2168 166.716 70.4589 164.456 68.7171C160.552 65.7078 154.962 66.7387 154.907 66.7485C154.711 66.7865 154.523 66.6578 154.486 66.4629C154.448 66.2668 154.577 66.078 154.771 66.0412C155.012 65.9946 160.726 64.9368 164.891 68.1422C167.324 70.0151 168.698 72.9496 168.974 76.8647C168.987 77.0633 168.838 77.2361 168.64 77.2496C168.632 77.2496 168.623 77.2496 168.615 77.2496V77.2508Z" fill="url(#paint38_linear_1_15403)"/>
<path d="M171.738 145.617C171.738 145.617 173.917 160.628 175.488 178.491C175.518 178.823 175.254 179.114 174.927 179.182C174.447 179.284 173.742 179.404 173.156 179.388C172.844 179.38 172.583 179.148 172.53 178.839C171.995 175.69 168.172 158.787 167.17 155.067C167.17 155.067 166.017 170.869 166.387 179.067C166.395 179.271 166.247 179.448 166.044 179.472C165.737 179.507 165.247 179.534 164.623 179.468C164.386 179.442 164.195 179.263 164.161 179.027C163.779 176.361 161.584 160.496 161.677 149.066C161.682 148.421 162.431 143.125 162.431 143.125L171.737 145.619L171.738 145.617Z" fill="url(#paint39_linear_1_15403)"/>
<path d="M190.411 131.266C190.411 131.266 189.801 129.657 189.089 129.804C188.376 129.951 187.597 130.5 187.597 130.5L186.453 132.052C186.453 132.052 189.666 133.321 190.795 132.594C190.795 132.594 194.076 133.162 198.22 132.481C197.62 131.211 197.263 129.94 197.052 128.953C194.954 130.145 192.693 131.034 190.411 131.267V131.266Z" fill="url(#paint40_linear_1_15403)"/>
<path d="M207.793 119.59C207.793 119.59 203.095 125.524 197.053 128.952C197.263 129.939 197.62 131.21 198.22 132.48C201.354 131.964 204.981 130.733 208.057 127.998L207.793 119.588V119.59Z" fill="#1F265C"/>
<path d="M172.583 120.374L172.875 128.229C173.704 128.514 174.492 128.737 175.243 128.903C175.712 127.387 176.748 125.525 177.595 124.141C174.483 123.038 172.584 120.374 172.584 120.374H172.583Z" fill="url(#paint41_linear_1_15403)"/>
<path d="M188.119 120.24C183.851 124.863 180.395 125.135 177.593 124.141C176.746 125.525 175.712 127.387 175.241 128.903C186.641 131.423 189.327 120.913 189.327 120.913L188.119 120.239V120.24Z" fill="url(#paint42_linear_1_15403)"/>
<path d="M188.986 119.75C188.986 119.75 189.478 119.221 190.388 119.387C191.299 119.554 192.108 119.87 192.675 119.387C193.243 118.904 193.442 119.553 193.442 119.553L191.744 120.847L188.986 119.75Z" fill="url(#paint43_linear_1_15403)"/>
<path d="M187.97 120.655C187.97 120.655 188.307 119.242 189.322 119.435C190.338 119.629 192.643 120.887 193.237 120.655C193.831 120.423 194.59 119.869 194.98 120.065L194.293 120.921C194.293 120.921 196.059 119.9 196.362 120.527L193.426 122.185C193.426 122.185 189.129 121.753 187.969 120.655H187.97Z" fill="url(#paint44_linear_1_15403)"/>
<path d="M162.105 146.483C161.881 146.403 161.724 146.2 161.7 145.962C161.41 143.144 160.008 125.668 168.863 118.481C168.863 118.481 169.37 117.148 173.545 120.423C177.719 123.699 175.485 127.132 174.485 131.866C173.276 137.595 171.154 142.279 172.093 145.805C172.157 146.049 172.03 146.304 171.794 146.391C168.551 147.59 165.322 147.629 162.105 146.483Z" fill="url(#paint45_linear_1_15403)"/>
<path d="M172.317 113.245C172.315 113.494 168.778 118.531 168.778 118.531C168.778 118.531 169.413 119.785 172.443 120.802L175.059 115.41L172.317 113.246V113.245Z" fill="url(#paint46_linear_1_15403)"/>
<path d="M170.928 130.537C170.928 130.537 177.636 136.17 184.881 133.713C185.331 133.561 185.821 133.594 186.242 133.816L188.325 134.919C189.199 135.382 190.282 135.078 190.789 134.228C191.079 133.742 191.326 133.188 191.375 132.657L187.299 131.003L187.6 130.501C187.6 130.501 185.61 130.332 185.089 131.763C185.089 131.763 181.3 133.344 174.908 126.294C174.908 126.294 172.007 128.767 170.929 130.539L170.928 130.537Z" fill="url(#paint47_linear_1_15403)"/>
<path d="M170.566 130.478C170.544 130.478 170.522 130.472 170.502 130.459C167.677 128.545 166.349 125.456 166.335 125.424C166.311 125.366 166.338 125.298 166.396 125.274C166.455 125.249 166.522 125.276 166.547 125.335C166.559 125.366 167.863 128.393 170.631 130.269C170.683 130.304 170.697 130.375 170.661 130.428C170.639 130.461 170.603 130.478 170.566 130.478Z" fill="url(#paint48_linear_1_15403)"/>
<path d="M174.773 126.197C174.735 126.197 174.699 126.178 174.677 126.144C174.668 126.13 173.805 124.783 172.161 121.832C171.655 120.925 170.991 120.35 170.187 120.124C168.854 119.75 167.57 120.467 167.557 120.475C167.502 120.505 167.433 120.487 167.401 120.432C167.369 120.377 167.389 120.307 167.444 120.275C167.499 120.243 168.82 119.503 170.247 119.902C171.113 120.145 171.825 120.757 172.361 121.72C174.001 124.664 174.861 126.007 174.87 126.02C174.904 126.073 174.889 126.145 174.836 126.179C174.816 126.192 174.795 126.198 174.773 126.198V126.197Z" fill="url(#paint49_linear_1_15403)"/>
<path d="M175.101 110.359C175.101 110.359 176.359 113.256 176.444 114.778C176.528 116.299 176.856 117.285 175.101 117.592C173.347 117.898 171.869 117.022 171.069 115.507C171.069 115.507 169.815 113.172 170.096 112.216C170.377 111.26 175.101 110.357 175.101 110.357V110.359Z" fill="url(#paint50_linear_1_15403)"/>
<path d="M171.668 114.418L171.768 114.374C171.896 114.318 171.949 114.166 171.886 114.042C171.639 113.563 171.156 112.464 171.779 112.208C172.583 111.878 175.762 111.228 176.448 110.096C177.107 109.009 176.522 107.605 175.645 107.206C175.586 107.179 175.516 107.201 175.487 107.257L175.414 107.396C175.363 107.491 175.223 107.477 175.194 107.374C175.165 107.274 175.033 107.255 174.978 107.343C174.767 107.681 174.199 108.231 172.675 108.512C170.512 108.913 169.08 109.791 169.045 111.29C169.043 111.386 168.941 111.438 168.86 111.388C168.7 111.29 168.445 111.245 168.104 111.533C167.51 112.034 167.753 113.333 169.056 114.403C169.118 114.454 169.117 114.551 169.05 114.595C168.814 114.749 168.462 115.116 169.374 115.605C170.317 116.111 171.022 116.069 171.293 116.024C171.36 116.013 171.404 115.947 171.389 115.88L171.1 114.563C171.084 114.488 171.14 114.418 171.216 114.418H171.667H171.668Z" fill="url(#paint51_linear_1_15403)"/>
<path d="M171.723 114.697C171.723 114.697 171.243 112.846 170.415 113.364C169.588 113.883 170.844 115.438 171.511 115.508L171.723 114.697Z" fill="url(#paint52_linear_1_15403)"/>
<path d="M186.24 133.814C186.24 133.814 187.945 135.486 188.274 135.244C188.392 135.157 188.687 134.843 188.974 134.492C189.175 134.245 189.196 133.895 189.024 133.628L188.621 133.005C188.239 132.412 187.417 132.288 186.887 132.752C186.619 132.986 186.376 133.324 186.241 133.814H186.24Z" fill="url(#paint53_linear_1_15403)"/>
<path d="M213.651 145.888C212.732 141.512 211.814 138.979 208.737 130.684C207.769 128.074 206.89 125.433 207.315 122.681L207.791 119.59C207.791 119.59 213.77 117.561 220.397 119.504C220.397 119.504 229.437 123.442 223.297 142.894C220.53 145.999 217.289 146.885 213.65 145.888H213.651Z" fill="#1F265C"/>
<path d="M208.811 115.645L210.361 119.38C210.458 119.615 210.67 119.784 210.922 119.827C211.815 119.98 213.978 120.221 215.397 119.285C215.565 119.174 215.609 118.943 215.493 118.777L212.629 114.653L208.811 115.646V115.645Z" fill="url(#paint54_linear_1_15403)"/>
<path d="M212.634 133.195C212.421 133.252 212.315 133.492 212.417 133.689L216.902 142.313C216.978 142.458 217.145 142.531 217.303 142.484L231.973 138.237C232.155 138.184 232.261 137.993 232.207 137.809L229.681 129.036C229.629 128.856 229.444 128.751 229.263 128.799L212.634 133.195Z" fill="url(#paint55_linear_1_15403)"/>
<path d="M213.58 132.182C213.37 132.232 213.252 132.455 213.326 132.659L216.916 142.438C216.981 142.615 217.173 142.712 217.354 142.66L231.98 138.425C232.162 138.372 232.272 138.187 232.232 138.002L230.205 128.59C230.162 128.392 229.965 128.268 229.77 128.314L213.58 132.182Z" fill="#78BEC2"/>
<path d="M214.854 131.195C214.597 131.234 214.429 131.484 214.487 131.737L216.926 142.293C216.983 142.542 217.238 142.693 217.483 142.622L231.888 138.451C232.119 138.384 232.256 138.145 232.196 137.911L229.981 129.294C229.924 129.072 229.708 128.93 229.482 128.964L214.855 131.195H214.854Z" fill="url(#paint56_linear_1_15403)"/>
<path d="M226.515 135.221C227.633 126.752 221.125 120.241 221.125 120.241L217.253 124.767C220.193 128.442 221.59 131.809 222.228 134.453C223.075 134.206 225.113 133.816 226.515 135.221Z" fill="#1F265C"/>
<path d="M222.228 134.694C222.12 134.694 222.021 134.62 221.994 134.51C221.207 131.249 219.548 128.023 217.065 124.918C216.981 124.815 216.999 124.663 217.101 124.58C217.204 124.496 217.355 124.514 217.439 124.617C219.966 127.777 221.657 131.068 222.46 134.397C222.491 134.526 222.412 134.656 222.283 134.687C222.263 134.692 222.245 134.695 222.227 134.695L222.228 134.694Z" fill="url(#paint57_linear_1_15403)"/>
<path d="M222.227 134.453C222.82 136.911 222.758 138.745 222.669 139.621C222.634 139.951 222.37 140.209 222.04 140.231C221.665 140.257 221.155 140.293 220.699 140.318C220.198 140.348 219.642 140.029 219.269 139.764C219.08 139.628 218.834 139.84 218.939 140.048C219.217 140.593 219.922 141.077 220.407 141.363C220.584 141.467 220.55 141.732 220.353 141.787L218.275 142.378C221.69 145.603 223.944 141.994 223.944 141.994C225.451 139.659 226.229 137.375 226.514 135.219C225.112 133.815 223.074 134.204 222.227 134.452V134.453Z" fill="url(#paint58_linear_1_15403)"/>
<path d="M210.413 109.93C210.348 109.992 207.665 115.275 207.665 115.275L210.705 116.747L213.99 112.118C213.99 112.118 211.502 108.902 210.413 109.93Z" fill="url(#paint59_linear_1_15403)"/>
<path d="M212.609 112.674L211.092 115.209C211.068 115.247 211.042 115.282 211.009 115.313C210.828 115.481 210.21 115.971 209.732 115.304C209.325 114.735 208.944 114.218 208.534 114.005C208.296 113.88 208.001 113.98 207.88 114.221C207.631 114.717 207.147 115.73 206.843 116.689C206.767 116.93 206.89 117.188 207.124 117.283C207.74 117.533 208.956 117.985 210.035 118.134C210.213 118.159 210.389 118.084 210.494 117.94C210.958 117.301 212.268 115.517 212.715 115.071C213.131 114.657 213.896 114.813 214.242 114.912C214.373 114.95 214.512 114.932 214.629 114.86C214.98 114.648 215.591 114.123 215.031 113.23C214.892 113.008 214.963 112.713 215.182 112.57C215.573 112.312 215.997 111.827 215.592 111.043C215.183 110.249 214.452 110.178 213.954 110.239C213.734 110.266 213.511 110.151 213.426 109.945C213.388 109.853 213.314 109.776 213.176 109.748C212.915 109.695 212.743 109.455 212.794 109.194C212.882 108.744 212.816 108.16 212.101 107.767C210.79 107.044 209.641 108.222 209.348 109.217C209.056 110.212 210.523 110.915 211.446 111.032C212.123 111.118 212.495 111.86 212.645 112.248C212.699 112.389 212.686 112.546 212.609 112.675V112.674Z" fill="url(#paint60_linear_1_15403)"/>
<path d="M212.146 116.003C212.146 116.003 212.73 114.292 213.476 114.354C214.223 114.417 214.811 115.163 213.886 116.002C212.734 117.045 212.146 116.003 212.146 116.003Z" fill="url(#paint61_linear_1_15403)"/>
<path d="M235.663 177.911C234.938 178.556 232.58 178.642 232.58 178.642C224.085 158.196 220.543 152.567 220.543 152.567C221.769 160.285 220.807 180.093 220.807 180.093C219.405 180.713 217.599 180.093 217.599 180.093C217.485 167.459 215.711 153.884 213.423 145.198C219.164 145.068 222.285 143.813 223.281 143.022C228.067 150.759 235.663 177.911 235.663 177.911Z" fill="url(#paint62_linear_1_15403)"/>
<path d="M196.432 16.3651L232.108 16.044C232.808 16.0379 233.377 16.6066 233.374 17.3078L233.217 44.7599C233.213 45.4659 232.632 46.031 231.927 46.0089C225.477 45.8165 196.839 44.9646 195.575 45.0185C194.325 45.0712 195.004 23.0186 195.191 17.5774C195.214 16.9045 195.762 16.37 196.433 16.3639L196.432 16.3651Z" fill="#005B89"/>
<path d="M231.966 45.0185H231.957C224.742 44.8028 200.848 44.0943 196.273 44.0294H196.174L196.157 43.9301C195.709 41.3976 195.718 31.0669 196.179 17.6118C196.184 17.4696 196.299 17.358 196.44 17.3568L232.117 17.0356C232.19 17.0356 232.258 17.0638 232.308 17.1141C232.358 17.1643 232.385 17.2293 232.384 17.3016L232.227 44.7538C232.227 44.8984 232.109 45.0173 231.966 45.0173V45.0185ZM196.377 43.7903C201.192 43.8639 224.801 44.5638 231.964 44.7783H231.972C231.978 44.7783 231.988 44.7673 231.988 44.755L232.144 17.3029L232.118 17.1582V17.2783L196.443 17.5995C196.429 17.5995 196.42 17.6093 196.418 17.6228C195.964 30.8953 195.948 41.1157 196.377 43.7928V43.7903Z" fill="url(#paint63_linear_1_15403)"/>
<path d="M200.738 41.4454H224.125C224.854 41.4454 225.306 40.6524 224.937 40.0235L215.678 24.2406C215.292 23.5824 214.326 23.6327 214.011 24.3277L209.541 34.1509C209.276 34.7344 208.52 34.8876 208.048 34.4549L206.24 32.7928C205.82 32.4067 205.157 32.4802 204.831 32.9497L199.967 39.9647C199.533 40.5911 199.979 41.4479 200.74 41.4479L200.738 41.4454Z" fill="url(#paint64_linear_1_15403)"/>
<path d="M224.982 26.9339C226.722 26.2856 227.609 24.3453 226.962 22.6002C226.316 20.855 224.381 19.9659 222.64 20.6142C220.9 21.2625 220.013 23.2028 220.66 24.9479C221.306 26.6931 223.241 27.5822 224.982 26.9339Z" fill="url(#paint65_linear_1_15403)"/>
<path d="M23.5897 16.0439C18.5559 16.0439 14.4756 20.1355 14.4756 25.1832C14.4756 30.2309 18.5559 34.3225 23.5897 34.3225C28.6235 34.3225 32.7039 30.2309 32.7039 25.1832C32.7039 20.1355 28.6235 16.0439 23.5897 16.0439ZM23.5897 30.389C20.722 30.389 18.397 28.0576 18.397 25.182C18.397 22.3064 20.722 19.975 23.5897 19.975C26.4575 19.975 28.7825 22.3064 28.7825 25.182C28.7825 28.0576 26.4575 30.389 23.5897 30.389Z" fill="#99DADE"/>
<mask id="mask1_1_15403" style="mask-type:luminance" maskUnits="userSpaceOnUse" x="14" y="16" width="19" height="19">
<path d="M23.5897 16.0439C18.5559 16.0439 14.4756 20.1355 14.4756 25.1832C14.4756 30.2309 18.5559 34.3225 23.5897 34.3225C28.6235 34.3225 32.7039 30.2309 32.7039 25.1832C32.7039 20.1355 28.6235 16.0439 23.5897 16.0439ZM23.5897 30.389C20.722 30.389 18.397 28.0576 18.397 25.182C18.397 22.3064 20.722 19.975 23.5897 19.975C26.4575 19.975 28.7825 22.3064 28.7825 25.182C28.7825 28.0576 26.4575 30.389 23.5897 30.389Z" fill="white"/>
</mask>
<g mask="url(#mask1_1_15403)">
<path d="M37.9346 23.1729H10.8623V34.6607H37.9346V23.1729Z" fill="#FF8F41"/>
</g>
<path opacity="0.57" d="M45.8065 16.0439C40.7727 16.0439 36.6924 20.1355 36.6924 25.1832C36.6924 30.2309 40.7727 34.3225 45.8065 34.3225C50.8403 34.3225 54.9207 30.2309 54.9207 25.1832C54.9207 20.1355 50.8403 16.0439 45.8065 16.0439ZM45.8065 30.389C42.9388 30.389 40.6138 28.0576 40.6138 25.182C40.6138 22.3064 42.9388 19.975 45.8065 19.975C48.6743 19.975 50.9993 22.3064 50.9993 25.182C50.9993 28.0576 48.6743 30.389 45.8065 30.389Z" fill="white"/>
<path d="M45.8065 16.0439C40.7727 16.0439 36.6924 20.1355 36.6924 25.1832C36.6924 30.2309 40.7727 34.3225 45.8065 34.3225C50.8403 34.3225 54.9207 30.2309 54.9207 25.1832C54.9207 20.1355 50.8403 16.0439 45.8065 16.0439ZM45.8065 30.389C42.9388 30.389 40.6138 28.0576 40.6138 25.182C40.6138 22.3064 42.9388 19.975 45.8065 19.975C48.6743 19.975 50.9993 22.3064 50.9993 25.182C50.9993 28.0576 48.6743 30.389 45.8065 30.389Z" fill="#99DADE"/>
<path opacity="0.57" d="M68.0233 16.0439C62.9895 16.0439 58.9092 20.1355 58.9092 25.1832C58.9092 30.2309 62.9895 34.3225 68.0233 34.3225C73.0571 34.3225 77.1375 30.2309 77.1375 25.1832C77.1375 20.1355 73.0571 16.0439 68.0233 16.0439ZM68.0233 30.389C65.1556 30.389 62.8306 28.0576 62.8306 25.182C62.8306 22.3064 65.1556 19.975 68.0233 19.975C70.8911 19.975 73.216 22.3064 73.216 25.182C73.216 28.0576 70.8911 30.389 68.0233 30.389Z" fill="white"/>
<path d="M68.0233 16.0439C62.9895 16.0439 58.9092 20.1355 58.9092 25.1832C58.9092 30.2309 62.9895 34.3225 68.0233 34.3225C73.0571 34.3225 77.1375 30.2309 77.1375 25.1832C77.1375 20.1355 73.0571 16.0439 68.0233 16.0439ZM68.0233 30.389C65.1556 30.389 62.8306 28.0576 62.8306 25.182C62.8306 22.3064 65.1556 19.975 68.0233 19.975C70.8911 19.975 73.216 22.3064 73.216 25.182C73.216 28.0576 70.8911 30.389 68.0233 30.389Z" fill="#99DADE"/>
<mask id="mask2_1_15403" style="mask-type:luminance" maskUnits="userSpaceOnUse" x="36" y="16" width="19" height="19">
<path d="M45.8065 16.0439C40.7727 16.0439 36.6924 20.1355 36.6924 25.1832C36.6924 30.2309 40.7727 34.3225 45.8065 34.3225C50.8403 34.3225 54.9207 30.2309 54.9207 25.1832C54.9207 20.1355 50.8403 16.0439 45.8065 16.0439ZM45.8065 30.389C42.9388 30.389 40.6138 28.0576 40.6138 25.182C40.6138 22.3064 42.9388 19.975 45.8065 19.975C48.6743 19.975 50.9993 22.3064 50.9993 25.182C50.9993 28.0576 48.6743 30.389 45.8065 30.389Z" fill="white"/>
</mask>
<g mask="url(#mask2_1_15403)">
<path d="M60.1514 18.7334H33.0791V34.6622H60.1514V18.7334Z" fill="#FF8F41"/>
</g>
<mask id="mask3_1_15403" style="mask-type:luminance" maskUnits="userSpaceOnUse" x="58" y="16" width="20" height="19">
<path d="M68.0233 16.0439C62.9895 16.0439 58.9092 20.1355 58.9092 25.1832C58.9092 30.2309 62.9895 34.3225 68.0233 34.3225C73.0571 34.3225 77.1375 30.2309 77.1375 25.1832C77.1375 20.1355 73.0571 16.0439 68.0233 16.0439ZM68.0233 30.389C65.1556 30.389 62.8306 28.0576 62.8306 25.182C62.8306 22.3064 65.1556 19.975 68.0233 19.975C70.8911 19.975 73.216 22.3064 73.216 25.182C73.216 28.0576 70.8911 30.389 68.0233 30.389Z" fill="white"/>
</mask>
<g mask="url(#mask3_1_15403)">
<path d="M82.3682 28.917H55.2959V34.6609H82.3682V28.917Z" fill="#FF8F41"/>
</g>
<path d="M175.154 71.7128C174.665 71.5448 174.734 70.8278 175.248 70.7616C177.584 70.4576 181.009 69.5407 182.13 66.7913C183.889 62.4779 180.245 45.848 196.989 42.8731C212.435 40.1286 221.037 45.0292 220.842 59.3412C220.652 73.2131 198.419 79.7182 175.154 71.7128Z" fill="#D47474"/>
<g opacity="0.8">
<path d="M188.57 56.022H186.995V68.3801H188.57V56.022Z" fill="white"/>
<path d="M191.201 60.269H189.627V68.3799H191.201V60.269Z" fill="white"/>
<path d="M193.833 49.7715H192.259V68.3798H193.833V49.7715Z" fill="white"/>
<path d="M196.465 63.9097H194.891V68.38H196.465V63.9097Z" fill="white"/>
<path d="M199.096 52.2598H197.521V68.3797H199.096V52.2598Z" fill="white"/>
<path d="M201.728 55.0508H200.153V68.3797H201.728V55.0508Z" fill="white"/>
<path d="M204.36 58.085H202.785V68.3801H204.36V58.085Z" fill="white"/>
<path d="M206.991 46.0098H205.417V68.3799H206.991V46.0098Z" fill="white"/>
<path d="M209.623 48.377H208.049V68.3801H209.623V48.377Z" fill="white"/>
<path d="M212.255 51.9561H210.681V68.38H212.255V51.9561Z" fill="white"/>
<path d="M214.886 64.3252H213.312V68.3812H214.886V64.3252Z" fill="white"/>
</g>
<path d="M222.646 93.384L207.584 94.2408C206.323 94.3131 205.238 93.3558 205.148 92.0933L203.891 74.5723C203.794 73.23 204.854 72.0889 206.196 72.0889H222.515C223.791 72.0889 224.827 73.1271 224.827 74.4068V91.071C224.827 92.3004 223.87 93.3154 222.646 93.3852V93.384Z" fill="#005B89"/>
<path d="M214.355 92.2025C213.577 92.2025 212.871 91.8041 212.468 91.1361C210.243 87.4514 207.592 82.5962 207.592 80.3935C207.592 76.9405 210.626 74.1323 214.355 74.1323C218.085 74.1323 221.119 76.9418 221.119 80.3935C221.119 82.5962 218.467 87.4514 216.243 91.1361C215.839 91.8041 215.134 92.2025 214.355 92.2025ZM214.355 75.0933C211.155 75.0933 208.551 77.4701 208.551 80.3935C208.551 81.9171 210.277 85.6508 213.288 90.6384C213.516 91.016 213.915 91.2415 214.355 91.2415C214.795 91.2415 215.194 91.016 215.422 90.6384C218.433 85.6508 220.159 81.9171 220.159 80.3935C220.159 77.4713 217.556 75.0933 214.355 75.0933Z" fill="white"/>
<path d="M213.834 84.7805C211.512 84.7805 209.622 82.8854 209.622 80.5565C209.622 80.2905 209.837 80.076 210.101 80.076C210.365 80.076 210.58 80.2917 210.58 80.5565C210.58 82.3547 212.04 83.8182 213.833 83.8182C215.626 83.8182 217.086 82.3547 217.086 80.5565C217.086 78.7583 215.626 77.2947 213.833 77.2947C212.797 77.2947 211.844 77.774 211.223 78.6088C211.066 78.822 210.765 78.8662 210.552 78.7068C210.34 78.5475 210.297 78.2472 210.455 78.0339C211.247 76.9687 212.509 76.3325 213.833 76.3325C216.156 76.3325 218.046 78.2275 218.046 80.5565C218.046 82.8854 216.156 84.7805 213.833 84.7805H213.834Z" fill="white"/>
<path d="M223.909 55.0215V68.0415C223.909 69.5884 225.122 70.862 226.662 70.9355L242.899 71.7004C244.546 71.7776 245.923 70.4599 245.923 68.8064V55.0215C245.923 53.4219 244.63 52.125 243.035 52.125H226.798C225.202 52.125 223.909 53.4219 223.909 55.0215Z" fill="url(#paint66_linear_1_15403)"/>
<path opacity="0.83" d="M229.79 68.5062C229.58 68.5062 229.403 68.5038 229.262 68.5013C229.023 68.4964 228.826 68.3199 228.795 68.0809C228.765 67.8406 228.911 67.6175 229.145 67.5526C230.392 67.202 231.751 66.6063 232.752 66.1246C227.977 65.7348 227.024 63.2759 226.841 62.1506C226.376 59.3142 228.831 56.1052 232.313 54.9959C235.867 53.8657 239.467 54.2727 241.485 56.0341C242.557 56.9706 243.721 58.7626 243.172 61.9888C242.146 68.0245 232.759 68.5087 229.789 68.5087L229.79 68.5062ZM236.178 65.2727L234.666 66.1184C234.587 66.1626 233.256 66.9029 231.636 67.582C235.322 67.3589 241.558 66.3145 242.319 61.8417C242.705 59.5716 242.233 57.8372 240.916 56.6886C238.874 54.9064 235.256 54.9701 232.575 55.8233C229.538 56.7904 227.304 59.6219 227.695 62.0084C228.05 64.1744 230.51 65.3866 234.448 65.3045L236.18 65.2727H236.178Z" fill="white"/>
<path d="M195.746 101.575L186.51 102.388C183.821 102.624 181.551 100.408 181.714 97.7063L182.427 85.9807C182.562 83.7707 184.302 81.9994 186.505 81.834L195.734 81.1377C198.404 80.9367 200.637 83.1443 200.474 85.8238L199.769 97.433C199.636 99.6222 197.926 101.384 195.746 101.576V101.575Z" fill="url(#paint67_linear_1_15403)"/>
<path opacity="0.83" d="M190.324 99.045C188.476 99.045 186.569 98.2605 186.009 97.085C185.817 96.6829 185.534 95.6435 187.03 94.6813C188.288 93.8723 189.393 93.5916 190.315 93.8453C191.24 94.1003 191.609 94.7928 191.648 94.8713C191.767 95.1091 191.672 95.3971 191.434 95.516C191.2 95.6349 190.914 95.5405 190.794 95.3064C190.78 95.2819 190.566 94.9031 190.041 94.7671C189.404 94.6016 188.542 94.8529 187.548 95.4915C186.921 95.8948 186.694 96.2919 186.875 96.6707C187.096 97.134 187.837 97.601 188.762 97.8609C189.806 98.1538 190.9 98.1563 191.764 97.8682C193.526 97.2799 192.641 90.1888 191.45 85.341C191.407 85.1657 191.466 84.9806 191.602 84.8617C191.738 84.744 191.929 84.7109 192.096 84.7796C192.27 84.8507 196.385 86.5581 197.494 89.7537C197.988 91.1793 197.807 92.6649 196.956 94.1713C196.825 94.4018 196.533 94.4839 196.302 94.3528C196.072 94.2216 195.99 93.9286 196.121 93.697C196.83 92.443 196.986 91.2234 196.588 90.0724C195.913 88.1222 193.818 86.7506 192.613 86.0997C193.361 89.4289 194.937 97.8204 192.066 98.7802C191.525 98.9616 190.927 99.045 190.323 99.045H190.324Z" fill="white"/>
<path d="M256.135 44.3883H244.872C244.01 44.3883 243.312 43.6883 243.312 42.8242V31.4994C243.312 30.6842 243.936 30.0064 244.746 29.9402L256.747 28.9657C257.691 28.8885 258.486 29.6693 258.43 30.6181L257.693 42.9173C257.644 43.7435 256.96 44.387 256.135 44.387V44.3883Z" fill="#D47474"/>
<path opacity="0.83" d="M246.479 42.2936C246.149 42.2936 245.826 42.1661 245.585 41.9382C245.325 41.6918 245.176 41.3461 245.176 40.987V33.7256C245.176 33.4596 245.391 33.2451 245.655 33.2451C245.919 33.2451 246.134 33.4608 246.134 33.7256V40.987C246.134 41.0826 246.172 41.1721 246.242 41.2382C246.311 41.3044 246.404 41.3363 246.497 41.3314L255.078 40.819C255.259 40.808 255.401 40.6572 255.401 40.4746V33.3456C255.401 33.2132 255.33 33.1286 255.289 33.0906C255.247 33.0526 255.155 32.9913 255.025 33.0036L247.887 33.7121C247.709 33.7292 247.632 33.8592 247.607 33.9131C247.583 33.9683 247.537 34.1104 247.643 34.2563L250.365 38.0231C250.43 38.1126 250.53 38.1653 250.64 38.1653C250.745 38.1616 250.851 38.1162 250.917 38.028L253.916 34.021C254.075 33.8089 254.376 33.766 254.587 33.9254C254.798 34.0847 254.841 34.3862 254.682 34.5983L251.684 38.6053C251.436 38.9375 251.055 39.1275 250.642 39.1275H250.631C250.213 39.1238 249.833 38.9277 249.587 38.5882L246.865 34.8202C246.588 34.4365 246.539 33.9499 246.732 33.5172C246.925 33.0857 247.322 32.8001 247.792 32.7535L254.929 32.045C255.295 32.0083 255.66 32.1296 255.932 32.3772C256.204 32.6248 256.359 32.9766 256.359 33.3456V40.4746C256.359 41.1647 255.822 41.7384 255.135 41.7788L246.555 42.2912C246.529 42.2924 246.503 42.2936 246.478 42.2936H246.479Z" fill="white"/>
</g>
<defs>
<linearGradient id="paint0_linear_1_15403" x1="120.961" y1="63.2163" x2="134.174" y2="199.638" gradientUnits="userSpaceOnUse">
<stop stop-color="#307A9C"/>
</linearGradient>
<linearGradient id="paint1_linear_1_15403" x1="174.759" y1="134.274" x2="159.318" y2="183.987" gradientUnits="userSpaceOnUse">
<stop stop-color="#FE7062"/>
<stop offset="1" stop-color="#FF928E"/>
</linearGradient>
<linearGradient id="paint2_linear_1_15403" x1="101.916" y1="156.971" x2="140.647" y2="156.971" gradientUnits="userSpaceOnUse">
<stop stop-color="#DAE3FE"/>
<stop offset="1" stop-color="#E9EFFD"/>
</linearGradient>
<linearGradient id="paint3_linear_1_15403" x1="146.414" y1="150.997" x2="164.706" y2="150.997" gradientUnits="userSpaceOnUse">
<stop stop-color="#DAE3FE"/>
<stop offset="1" stop-color="#E9EFFD"/>
</linearGradient>
<linearGradient id="paint4_linear_1_15403" x1="103.526" y1="145.077" x2="119.832" y2="145.077" gradientUnits="userSpaceOnUse">
<stop stop-color="#DAE3FE"/>
<stop offset="1" stop-color="#E9EFFD"/>
</linearGradient>
<linearGradient id="paint5_linear_1_15403" x1="148.368" y1="164.228" x2="166.013" y2="164.228" gradientUnits="userSpaceOnUse">
<stop stop-color="#DAE3FE"/>
<stop offset="1" stop-color="#E9EFFD"/>
</linearGradient>
<linearGradient id="paint6_linear_1_15403" x1="44.0331" y1="153.962" x2="-12.2258" y2="217.844" gradientUnits="userSpaceOnUse">
<stop stop-color="#09005D"/>
<stop offset="1" stop-color="#1A0F91"/>
</linearGradient>
<linearGradient id="paint7_linear_1_15403" x1="31.8374" y1="149.286" x2="-24.4216" y2="213.168" gradientUnits="userSpaceOnUse">
<stop stop-color="#09005D"/>
<stop offset="1" stop-color="#1A0F91"/>
</linearGradient>
<linearGradient id="paint8_linear_1_15403" x1="-6.16318" y1="165.27" x2="12.6176" y2="165.27" gradientUnits="userSpaceOnUse">
<stop stop-color="#FE7062"/>
<stop offset="1" stop-color="#FF928E"/>
</linearGradient>
<linearGradient id="paint9_linear_1_15403" x1="5.00088" y1="165.27" x2="23.7817" y2="165.27" gradientUnits="userSpaceOnUse">
<stop stop-color="#FE7062"/>
<stop offset="1" stop-color="#FF928E"/>
</linearGradient>
<linearGradient id="paint10_linear_1_15403" x1="10.7952" y1="144.235" x2="35.0609" y2="144.235" gradientUnits="userSpaceOnUse">
<stop stop-color="#FE7062"/>
<stop offset="1" stop-color="#FF928E"/>
</linearGradient>
<linearGradient id="paint11_linear_1_15403" x1="9.14746" y1="150.743" x2="21.0511" y2="150.743" gradientUnits="userSpaceOnUse">
<stop stop-color="#FE7062"/>
<stop offset="1" stop-color="#FF928E"/>
</linearGradient>
<linearGradient id="paint12_linear_1_15403" x1="6.06543" y1="158.659" x2="17.2625" y2="158.659" gradientUnits="userSpaceOnUse">
<stop stop-color="#FE7062"/>
<stop offset="1" stop-color="#FF928E"/>
</linearGradient>
<linearGradient id="paint13_linear_1_15403" x1="2.73926" y1="166.574" x2="13.9364" y2="166.574" gradientUnits="userSpaceOnUse">
<stop stop-color="#FE7062"/>
<stop offset="1" stop-color="#FF928E"/>
</linearGradient>
<linearGradient id="paint14_linear_1_15403" x1="26.8936" y1="144.149" x2="33.4089" y2="144.149" gradientUnits="userSpaceOnUse">
<stop stop-color="#1B1B24"/>
<stop offset="1" stop-color="#151517"/>
</linearGradient>
<linearGradient id="paint15_linear_1_15403" x1="27.4951" y1="141.082" x2="29.3312" y2="141.082" gradientUnits="userSpaceOnUse">
<stop stop-color="#FF928E"/>
<stop offset="1" stop-color="#FEB3B1"/>
</linearGradient>
<linearGradient id="paint16_linear_1_15403" x1="13.9248" y1="142.081" x2="17.5895" y2="142.081" gradientUnits="userSpaceOnUse">
<stop stop-color="#09005D"/>
<stop offset="1" stop-color="#1A0F91"/>
</linearGradient>
<linearGradient id="paint17_linear_1_15403" x1="15.8302" y1="139.547" x2="18.0231" y2="139.547" gradientUnits="userSpaceOnUse">
<stop stop-color="#FF928E"/>
<stop offset="1" stop-color="#FEB3B1"/>
</linearGradient>
<linearGradient id="paint18_linear_1_15403" x1="10.7499" y1="145.979" x2="39.6483" y2="113.373" gradientUnits="userSpaceOnUse">
<stop stop-color="#09005D"/>
<stop offset="1" stop-color="#1A0F91"/>
</linearGradient>
<linearGradient id="paint19_linear_1_15403" x1="23.2196" y1="131.404" x2="24.2755" y2="129.299" gradientUnits="userSpaceOnUse">
<stop stop-color="#4042E2"/>
<stop offset="1" stop-color="#4F52FF"/>
</linearGradient>
<linearGradient id="paint20_linear_1_15403" x1="25.8776" y1="107.493" x2="18.0513" y2="114.403" gradientUnits="userSpaceOnUse">
<stop stop-color="#FF928E"/>
<stop offset="1" stop-color="#FEB3B1"/>
</linearGradient>
<linearGradient id="paint21_linear_1_15403" x1="53.2503" y1="95.888" x2="43.3502" y2="107.077" gradientUnits="userSpaceOnUse">
<stop stop-color="#FF928E"/>
<stop offset="1" stop-color="#FEB3B1"/>
</linearGradient>
<linearGradient id="paint22_linear_1_15403" x1="36.1475" y1="90.2411" x2="32.2977" y2="101.021" gradientUnits="userSpaceOnUse">
<stop stop-color="#FF928E"/>
<stop offset="1" stop-color="#FEB3B1"/>
</linearGradient>
<linearGradient id="paint23_linear_1_15403" x1="37.5239" y1="88.9534" x2="35.2036" y2="98.0601" gradientUnits="userSpaceOnUse">
<stop stop-color="#FF928E"/>
<stop offset="1" stop-color="#FEB3B1"/>
</linearGradient>
<linearGradient id="paint24_linear_1_15403" x1="34.2456" y1="92.2999" x2="40.472" y2="89.686" gradientUnits="userSpaceOnUse">
<stop stop-color="#1D6180"/>
<stop offset="1" stop-color="#0E7EB0"/>
</linearGradient>
<linearGradient id="paint25_linear_1_15403" x1="32.192" y1="97.6465" x2="34.5774" y2="91.5883" gradientUnits="userSpaceOnUse">
<stop stop-color="#FF928E"/>
<stop offset="1" stop-color="#FEB3B1"/>
</linearGradient>
<linearGradient id="paint26_linear_1_15403" x1="28.9602" y1="110.984" x2="21.1351" y2="117.895" gradientUnits="userSpaceOnUse">
<stop stop-color="#FF928E"/>
<stop offset="1" stop-color="#FEB3B1"/>
</linearGradient>
<linearGradient id="paint27_linear_1_15403" x1="54.2036" y1="97.1756" x2="44.5425" y2="108.095" gradientUnits="userSpaceOnUse">
<stop stop-color="#FF928E"/>
<stop offset="1" stop-color="#FEB3B1"/>
</linearGradient>
<linearGradient id="paint28_linear_1_15403" x1="50.1355" y1="102.789" x2="45.7133" y2="115.367" gradientUnits="userSpaceOnUse">
<stop stop-color="#FF928E"/>
<stop offset="1" stop-color="#FEB3B1"/>
</linearGradient>
<linearGradient id="paint29_linear_1_15403" x1="57.2166" y1="99.3341" x2="54.8419" y2="39.7381" gradientUnits="userSpaceOnUse">
<stop stop-color="#09005D"/>
<stop offset="1" stop-color="#1A0F91"/>
</linearGradient>
<linearGradient id="paint30_linear_1_15403" x1="47.12" y1="71.8465" x2="64.4828" y2="71.8465" gradientUnits="userSpaceOnUse">
<stop stop-color="#DAE3FE"/>
<stop offset="1" stop-color="#E9EFFD"/>
</linearGradient>
<linearGradient id="paint31_linear_1_15403" x1="45.8082" y1="78.3812" x2="63.171" y2="78.3812" gradientUnits="userSpaceOnUse">
<stop stop-color="#DAE3FE"/>
<stop offset="1" stop-color="#E9EFFD"/>
</linearGradient>
<linearGradient id="paint32_linear_1_15403" x1="111.976" y1="-41.1712" x2="114.189" y2="33.8524" gradientUnits="userSpaceOnUse">
<stop stop-color="#FF928E"/>
<stop offset="1" stop-color="#FEB3B1"/>
</linearGradient>
<linearGradient id="paint33_linear_1_15403" x1="69.2185" y1="-39.9096" x2="71.4309" y2="35.1139" gradientUnits="userSpaceOnUse">
<stop stop-color="#FF928E"/>
<stop offset="1" stop-color="#FEB3B1"/>
</linearGradient>
<linearGradient id="paint34_linear_1_15403" x1="47.1195" y1="86.0347" x2="64.4823" y2="86.0347" gradientUnits="userSpaceOnUse">
<stop stop-color="#DAE3FE"/>
<stop offset="1" stop-color="#E9EFFD"/>
</linearGradient>
<linearGradient id="paint35_linear_1_15403" x1="48.4974" y1="94.5281" x2="65.8602" y2="94.5281" gradientUnits="userSpaceOnUse">
<stop stop-color="#DAE3FE"/>
<stop offset="1" stop-color="#E9EFFD"/>
</linearGradient>
<linearGradient id="paint36_linear_1_15403" x1="57.1797" y1="126.397" x2="84.2581" y2="126.397" gradientUnits="userSpaceOnUse">
<stop stop-color="#DAE3FE"/>
<stop offset="1" stop-color="#E9EFFD"/>
</linearGradient>
<linearGradient id="paint37_linear_1_15403" x1="54.1299" y1="105.256" x2="56.1603" y2="105.256" gradientUnits="userSpaceOnUse">
<stop stop-color="#DAE3FE"/>
<stop offset="1" stop-color="#E9EFFD"/>
</linearGradient>
<linearGradient id="paint38_linear_1_15403" x1="154.479" y1="71.5437" x2="168.975" y2="71.5437" gradientUnits="userSpaceOnUse">
<stop stop-color="#DAE3FE"/>
<stop offset="1" stop-color="#E9EFFD"/>
</linearGradient>
<linearGradient id="paint39_linear_1_15403" x1="173.097" y1="168.712" x2="112.698" y2="94.8254" gradientUnits="userSpaceOnUse">
<stop stop-color="#09005D"/>
<stop offset="1" stop-color="#1A0F91"/>
</linearGradient>
<linearGradient id="paint40_linear_1_15403" x1="186.453" y1="130.885" x2="198.22" y2="130.885" gradientUnits="userSpaceOnUse">
<stop stop-color="#FF928E"/>
<stop offset="1" stop-color="#FEB3B1"/>
</linearGradient>
<linearGradient id="paint41_linear_1_15403" x1="178.131" y1="120.321" x2="171.951" y2="126.612" gradientUnits="userSpaceOnUse">
<stop stop-color="#FF8D06"/>
</linearGradient>
<linearGradient id="paint42_linear_1_15403" x1="338.193" y1="70.1657" x2="314.526" y2="78.5212" gradientUnits="userSpaceOnUse">
<stop stop-color="#FF928E"/>
<stop offset="1" stop-color="#FEB3B1"/>
</linearGradient>
<linearGradient id="paint43_linear_1_15403" x1="191.579" y1="118.464" x2="188.508" y2="128.388" gradientUnits="userSpaceOnUse">
<stop stop-color="#FF928E"/>
<stop offset="1" stop-color="#FEB3B1"/>
</linearGradient>
<linearGradient id="paint44_linear_1_15403" x1="337.709" y1="68.7954" x2="314.042" y2="77.1509" gradientUnits="userSpaceOnUse">
<stop stop-color="#FF928E"/>
<stop offset="1" stop-color="#FEB3B1"/>
</linearGradient>
<linearGradient id="paint45_linear_1_15403" x1="179.355" y1="115.481" x2="153.796" y2="160.571" gradientUnits="userSpaceOnUse">
<stop stop-color="#FE7062"/>
<stop offset="1" stop-color="#FF928E"/>
</linearGradient>
<linearGradient id="paint46_linear_1_15403" x1="170.985" y1="119.526" x2="173.45" y2="112.813" gradientUnits="userSpaceOnUse">
<stop stop-color="#FF928E"/>
<stop offset="1" stop-color="#FEB3B1"/>
</linearGradient>
<linearGradient id="paint47_linear_1_15403" x1="168.78" y1="127.709" x2="189.327" y2="134.234" gradientUnits="userSpaceOnUse">
<stop stop-color="#FF928E"/>
<stop offset="1" stop-color="#FEB3B1"/>
</linearGradient>
<linearGradient id="paint48_linear_1_15403" x1="170.681" y1="127.871" x2="166.325" y2="127.871" gradientUnits="userSpaceOnUse">
<stop stop-color="#E1473D"/>
<stop offset="1" stop-color="#E9605A"/>
</linearGradient>
<linearGradient id="paint49_linear_1_15403" x1="174.888" y1="122.99" x2="167.386" y2="122.99" gradientUnits="userSpaceOnUse">
<stop stop-color="#E1473D"/>
<stop offset="1" stop-color="#E9605A"/>
</linearGradient>
<linearGradient id="paint50_linear_1_15403" x1="186.978" y1="159.692" x2="184.337" y2="150.87" gradientUnits="userSpaceOnUse">
<stop stop-color="#FF928E"/>
<stop offset="1" stop-color="#FEB3B1"/>
</linearGradient>
<linearGradient id="paint51_linear_1_15403" x1="170.302" y1="108.541" x2="177.023" y2="117.172" gradientUnits="userSpaceOnUse">
<stop stop-color="#09005D"/>
<stop offset="1" stop-color="#1A0F91"/>
</linearGradient>
<linearGradient id="paint52_linear_1_15403" x1="184.644" y1="160.39" x2="182.003" y2="151.569" gradientUnits="userSpaceOnUse">
<stop stop-color="#FF928E"/>
<stop offset="1" stop-color="#FEB3B1"/>
</linearGradient>
<linearGradient id="paint53_linear_1_15403" x1="186.24" y1="133.868" x2="189.14" y2="133.868" gradientUnits="userSpaceOnUse">
<stop stop-color="#FF928E"/>
<stop offset="1" stop-color="#FEB3B1"/>
</linearGradient>
<linearGradient id="paint54_linear_1_15403" x1="212.782" y1="119.083" x2="210.885" y2="113.41" gradientUnits="userSpaceOnUse">
<stop stop-color="#FF928E"/>
<stop offset="1" stop-color="#FEB3B1"/>
</linearGradient>
<linearGradient id="paint55_linear_1_15403" x1="212.378" y1="135.642" x2="232.221" y2="135.642" gradientUnits="userSpaceOnUse">
<stop stop-color="#DAE3FE"/>
<stop offset="1" stop-color="#E9EFFD"/>
</linearGradient>
<linearGradient id="paint56_linear_1_15403" x1="223.068" y1="133.602" x2="227.116" y2="151.7" gradientUnits="userSpaceOnUse">
<stop stop-color="#FE7062"/>
<stop offset="1" stop-color="#FF928E"/>
</linearGradient>
<linearGradient id="paint57_linear_1_15403" x1="215.587" y1="127.393" x2="223.903" y2="131.809" gradientUnits="userSpaceOnUse">
<stop stop-color="#53D8FF"/>
<stop offset="1" stop-color="#3840F7"/>
</linearGradient>
<linearGradient id="paint58_linear_1_15403" x1="228.134" y1="128.105" x2="221.975" y2="139.917" gradientUnits="userSpaceOnUse">
<stop stop-color="#FF928E"/>
<stop offset="1" stop-color="#FEB3B1"/>
</linearGradient>
<linearGradient id="paint59_linear_1_15403" x1="211.262" y1="110.936" x2="209.368" y2="122.052" gradientUnits="userSpaceOnUse">
<stop stop-color="#FF928E"/>
<stop offset="1" stop-color="#FEB3B1"/>
</linearGradient>
<linearGradient id="paint60_linear_1_15403" x1="213.244" y1="116.198" x2="207.676" y2="110.298" gradientUnits="userSpaceOnUse">
<stop stop-color="#09005D"/>
<stop offset="1" stop-color="#1A0F91"/>
</linearGradient>
<linearGradient id="paint61_linear_1_15403" x1="212.898" y1="123.071" x2="213.234" y2="115.264" gradientUnits="userSpaceOnUse">
<stop stop-color="#FF928E"/>
<stop offset="1" stop-color="#FEB3B1"/>
</linearGradient>
<linearGradient id="paint62_linear_1_15403" x1="234.568" y1="181.145" x2="191.116" y2="121.235" gradientUnits="userSpaceOnUse">
<stop stop-color="#307A9C"/>
<stop offset="1" stop-color="#1A0F91"/>
</linearGradient>
<linearGradient id="paint63_linear_1_15403" x1="195.828" y1="31.0277" x2="232.384" y2="31.0277" gradientUnits="userSpaceOnUse">
<stop stop-color="#DAE3FE"/>
<stop offset="1" stop-color="#E9EFFD"/>
</linearGradient>
<linearGradient id="paint64_linear_1_15403" x1="199.795" y1="32.6101" x2="225.068" y2="32.6101" gradientUnits="userSpaceOnUse">
<stop stop-color="#DAE3FE"/>
<stop offset="1" stop-color="#E9EFFD"/>
</linearGradient>
<linearGradient id="paint65_linear_1_15403" x1="220.449" y1="23.7628" x2="227.173" y2="23.7628" gradientUnits="userSpaceOnUse">
<stop stop-color="#DAE3FE"/>
<stop offset="1" stop-color="#E9EFFD"/>
</linearGradient>
<linearGradient id="paint66_linear_1_15403" x1="223.909" y1="61.9139" x2="245.923" y2="61.9139" gradientUnits="userSpaceOnUse">
<stop stop-color="#D47474"/>
<stop offset="1" stop-color="#FF928E"/>
</linearGradient>
<linearGradient id="paint67_linear_1_15403" x1="178.223" y1="106.129" x2="251.816" y2="24.1438" gradientUnits="userSpaceOnUse">
<stop stop-color="#FE7062"/>
<stop offset="1" stop-color="#FF928E"/>
</linearGradient>
<clipPath id="clip0_1_15403">
<rect width="278" height="172" fill="white" transform="translate(0.333008 0.724121)"/>
</clipPath>
</defs>
</svg>
