<svg width="311" height="190" viewBox="0 0 311 190" fill="none" xmlns="http://www.w3.org/2000/svg">
<path d="M88.2038 44.7934C44.0231 51.5618 20.4437 87.6856 54.6934 93.0542C88.9443 98.4216 118.052 40.2207 88.2038 44.7934Z" fill="#F3EAF9"/>
<g style="mix-blend-mode:multiply">
<path d="M251.791 184.709C251.986 184.689 252.149 184.541 252.179 184.34C261.436 122.703 279.468 102.884 285.394 96.3716L285.895 95.8193C286.056 95.6401 286.042 95.3645 285.863 95.2038C285.684 95.043 285.408 95.0568 285.247 95.2359L284.748 95.786C278.778 102.347 260.612 122.313 251.315 184.212C251.28 184.449 251.444 184.672 251.682 184.708C251.719 184.714 251.756 184.714 251.79 184.71L251.791 184.709Z" fill="#DEDEDE"/>
</g>
<g style="mix-blend-mode:multiply">
<path d="M246.793 182.099C246.661 182.13 246.518 182.07 246.452 181.944C226.167 143.284 209.684 134.304 204.267 131.353L203.808 131.103C203.66 131.021 203.607 130.835 203.689 130.688C203.77 130.54 203.957 130.487 204.104 130.569L204.56 130.818C210.017 133.791 226.623 142.838 246.993 181.661C247.071 181.81 247.014 181.995 246.864 182.073C246.841 182.086 246.817 182.094 246.793 182.1V182.099Z" fill="#DEDEDE"/>
</g>
<g style="mix-blend-mode:multiply">
<path d="M268.53 183.704C268.642 183.731 268.761 183.68 268.818 183.573C285.874 151.064 299.735 143.513 304.291 141.032L304.676 140.821C304.8 140.752 304.845 140.596 304.777 140.472C304.708 140.348 304.552 140.303 304.428 140.371L304.043 140.581C299.455 143.081 285.491 150.689 268.362 183.334C268.297 183.46 268.345 183.615 268.47 183.681C268.49 183.692 268.509 183.698 268.53 183.704Z" fill="#DEDEDE"/>
</g>
<g style="mix-blend-mode:multiply">
<path d="M152.468 183.903C152.527 183.93 152.601 183.914 152.645 183.861C165.915 167.397 174.589 164.677 177.439 163.783L177.681 163.708C177.759 163.682 177.802 163.6 177.778 163.522C177.752 163.443 177.669 163.401 177.591 163.426L177.351 163.502C174.479 164.402 165.74 167.143 152.415 183.677C152.363 183.741 152.373 183.834 152.438 183.885C152.448 183.893 152.458 183.899 152.469 183.905L152.468 183.903Z" fill="#DEDEDE"/>
</g>
<g style="mix-blend-mode:multiply">
<path d="M52.153 173.855C51.9737 173.828 51.8265 173.684 51.8069 173.495C45.6727 115.696 29.6729 96.5049 24.4148 90.1992L23.9698 89.6641C23.8272 89.4907 23.8514 89.2346 24.025 89.0922C24.1986 88.9498 24.455 88.974 24.5976 89.1474L25.0403 89.679C30.3364 96.0317 46.4557 115.365 52.6153 173.41C52.6394 173.633 52.4773 173.834 52.2531 173.857C52.2186 173.86 52.1841 173.86 52.1519 173.855H52.153Z" fill="#DEDEDE"/>
</g>
<g style="mix-blend-mode:multiply">
<path d="M48.0501 180.893C47.9547 180.941 47.8351 180.919 47.7615 180.835C25.3906 154.907 11.203 150.974 6.5416 149.681L6.14721 149.571C6.01958 149.535 5.94599 149.403 5.98164 149.275C6.01728 149.148 6.14951 149.074 6.27714 149.11L6.67038 149.219C11.3674 150.521 25.6597 154.484 48.1249 180.522C48.2111 180.622 48.1996 180.774 48.0996 180.86C48.0846 180.874 48.0674 180.884 48.0501 180.893Z" fill="#DEDEDE"/>
</g>
<path d="M289.188 184.713H29.792C29.792 183.07 33.4956 181.738 38.0638 181.738H280.917C285.486 181.738 289.189 183.07 289.189 184.713H289.188Z" fill="#78BEC2"/>
<path d="M187.11 145.117C189.77 155.043 201.529 156.581 208.528 158.958C215.527 161.335 224.066 181.467 224.066 181.467C228.405 182.585 232.044 179.37 230.785 176.714C226.446 168.884 225.466 159.238 225.466 159.238C225.466 159.238 209.369 141.203 209.228 140.784C209.088 140.365 202.789 138.128 200.969 138.827C199.149 139.527 187.11 145.118 187.11 145.118V145.117Z" fill="#C15D5D"/>
<path d="M245.763 145.117C248.423 154.624 230.925 165.389 215.807 159.237C200.689 153.085 198.869 137.427 198.869 137.427L229.665 137.148L245.762 145.117H245.763Z" fill="#D47474"/>
<path d="M198.31 58.718C216.367 50.7496 220.986 61.8634 222.036 61.8634C233.165 65.638 232.744 72.9783 232.744 72.9783C235.054 72.9783 235.894 76.5428 235.894 76.5428C243.453 76.1237 245.132 85.7698 245.132 85.7698C257.731 88.7062 257.101 102.127 256.051 104.853C269.28 115.129 260.88 129.808 257.731 131.276C257.942 142.81 248.282 149.73 241.983 147.423C235.684 145.116 223.506 137.357 205.237 143.858C186.97 150.359 176.471 152.875 173.531 147.423C156.313 148.261 154.003 129.179 154.003 129.179C139.725 133.793 136.576 122.468 136.576 122.468C120.617 120.79 121.667 105.062 121.667 105.062C114.108 86.189 130.486 70.0408 141.614 70.0408C145.183 57.8774 163.241 56.62 168.07 58.0876C177.099 51.1676 186.338 53.4735 187.389 54.1028C194.108 53.2645 198.097 57.4583 198.307 58.7169L198.31 58.718Z" fill="#E9B7B7"/>
<path d="M167.885 126.075C168.088 126.171 172.703 128.406 176.076 132.164C179.132 129.303 186.008 127.841 190.684 130.278C192.399 131.171 193.646 131.556 196.516 129.382C196.982 129.028 197.483 128.589 198.064 128.081C201.239 125.298 206.04 121.094 216.053 121.094C227.727 121.094 237.291 109.19 237.565 105.548C237.606 104.99 237.639 104.36 237.674 103.683C237.916 99.0032 238.248 92.5943 242.164 90.6386C242.43 90.5066 242.751 90.6134 242.884 90.8786C243.016 91.1439 242.909 91.4654 242.643 91.5975C239.287 93.2741 238.96 99.5717 238.745 103.739C238.717 104.303 238.688 104.822 238.655 105.308C239.574 105.89 242.828 107.863 245.209 108.203C245.502 108.244 245.705 108.516 245.664 108.809C245.626 109.077 245.396 109.27 245.134 109.27C245.109 109.27 245.083 109.267 245.057 109.264C242.726 108.931 239.788 107.266 238.481 106.464C237.193 111.34 228.129 121.231 217.531 122.098C218.376 122.904 219.432 124.266 219.932 126.327C220.002 126.615 219.825 126.905 219.538 126.975C219.495 126.985 219.453 126.99 219.41 126.99C219.169 126.99 218.949 126.826 218.889 126.58C218.218 123.815 216.378 122.473 215.907 122.17C206.399 122.212 201.809 126.225 198.768 128.888C198.173 129.409 197.659 129.861 197.162 130.236C194.085 132.567 192.461 132.414 190.185 131.228C185.549 128.812 178.928 130.712 176.567 133.197C176.484 134.134 176.146 138.383 176.544 141.027C177.207 141.449 179.78 142.905 183.714 142.905C184.011 142.905 184.251 143.145 184.251 143.441C184.251 143.737 184.011 143.977 183.714 143.977C179.946 143.977 177.362 142.754 176.288 142.131C175.847 142.96 174.775 144.425 172.386 145.502C172.315 145.535 172.239 145.55 172.165 145.55C171.96 145.55 171.765 145.432 171.676 145.234C171.555 144.964 171.674 144.647 171.944 144.525C174.553 143.348 175.334 141.719 175.498 141.297C175.057 138.531 175.401 134.183 175.494 133.138C172.251 129.39 167.467 127.067 167.419 127.043C167.152 126.915 167.039 126.595 167.167 126.327C167.294 126.06 167.615 125.948 167.882 126.076L167.885 126.075Z" fill="#EF93B0"/>
<path d="M221.59 130.073C224.014 132.693 226.981 133.993 230.169 133.834C233.881 133.649 237.695 131.49 240.473 128.037C236.37 126.42 233.056 123.66 231.53 120.611C231.398 120.347 231.505 120.024 231.771 119.892C232.036 119.76 232.358 119.867 232.491 120.132C235.254 125.651 244.599 130.112 252.971 127.824C253.256 127.746 253.552 127.913 253.63 128.199C253.708 128.485 253.54 128.779 253.254 128.857C251.569 129.318 249.868 129.528 248.192 129.528C245.88 129.528 243.62 129.126 241.532 128.427C238.548 132.279 234.337 134.698 230.222 134.904C230.028 134.914 229.834 134.919 229.642 134.919C226.348 134.919 223.302 133.504 220.803 130.801C220.601 130.584 220.615 130.246 220.832 130.045C221.05 129.844 221.389 129.857 221.59 130.075V130.073Z" fill="#EF93B0"/>
<path d="M173.421 112.231C177.28 111.214 182.836 110.576 187.664 113.174C192.209 107.319 201.36 103.597 209.306 102.805C209.205 101.477 208.946 94.5984 213.954 90.9972C214.195 90.8249 214.531 90.8789 214.703 91.1189C214.877 91.3589 214.821 91.6942 214.581 91.8665C210.098 95.0899 210.298 101.522 210.376 102.715C212.737 102.557 214.964 102.667 216.897 103.071C217.187 103.132 217.373 103.416 217.312 103.705C217.251 103.994 216.967 104.18 216.677 104.119C208.221 102.352 193.959 106.364 188.244 114.186C188.082 114.408 187.778 114.472 187.541 114.333C182.936 111.65 177.47 112.273 173.695 113.267C166.429 115.183 159.214 120.198 156.148 125.464C156.048 125.635 155.869 125.73 155.684 125.73C155.592 125.73 155.5 125.706 155.415 125.658C155.158 125.509 155.071 125.181 155.22 124.925C158.468 119.347 165.783 114.245 173.42 112.231H173.421Z" fill="#EF93B0"/>
<path d="M231.533 73.4918C223.68 75.816 223.742 80.1005 225.924 91.7529C225.978 92.0434 225.786 92.3236 225.495 92.3776C225.461 92.3834 225.428 92.3868 225.396 92.3868C225.143 92.3868 224.918 92.2065 224.869 91.9493C223.876 86.6404 223.215 82.5362 223.823 79.4058C222.956 79.1842 220.466 78.4182 218.469 76.5556C218.179 76.5797 215.042 76.8989 213.691 79.4173C213.594 79.5976 213.409 79.7009 213.217 79.7009C213.131 79.7009 213.045 79.6802 212.964 79.6366C212.703 79.4965 212.604 79.1727 212.744 78.9108C213.974 76.6187 216.318 75.8562 217.582 75.6059C216.43 74.1785 215.621 72.2619 215.726 69.7056C215.739 69.4105 215.989 69.1808 216.285 69.1923C216.58 69.2049 216.811 69.4541 216.799 69.7493C216.533 76.1904 222.704 78.0392 224.082 78.37C224.948 75.6047 227.057 73.6973 231.228 72.4628C231.512 72.3778 231.811 72.5409 231.895 72.8246C231.979 73.1082 231.817 73.4068 231.533 73.4906V73.4918Z" fill="#EF93B0"/>
<path d="M200.257 94.7281C200.173 94.7764 200.081 94.7993 199.99 94.7993C199.804 94.7993 199.623 94.7029 199.524 94.5295C196.098 88.5626 189.529 86.7459 187.89 86.3761C187.378 87.3924 185.933 90.485 185.933 93.1101C185.933 93.4052 185.693 93.6464 185.396 93.6464C185.1 93.6464 184.859 93.4064 184.859 93.1101C184.859 89.9958 186.627 86.4657 187.043 85.6768C186.311 81.4646 186.653 77.5212 187.673 73.9739C186.85 74.153 186.03 74.2461 185.229 74.2461C182.646 74.2461 180.265 73.3366 178.657 71.6577C176.623 69.5332 176.038 66.5234 177.007 63.1828C177.09 62.8992 177.387 62.7349 177.672 62.8176C177.956 62.9003 178.12 63.1977 178.038 63.4814C177.179 66.4407 177.674 69.0808 179.432 70.917C181.328 72.8979 184.49 73.6489 187.685 72.8772C187.796 72.8508 187.903 72.8692 188.002 72.9082C189.96 67.0252 193.754 62.3238 197.455 59.4495C197.688 59.2681 198.026 59.3105 198.208 59.5437C198.389 59.7768 198.347 60.1144 198.113 60.2958C192.278 64.8284 186.192 74.075 188.066 85.3162C189.781 85.6802 196.735 87.5211 200.454 93.9989C200.602 94.2562 200.513 94.5834 200.256 94.7304L200.257 94.7281Z" fill="#EF93B0"/>
<path d="M173.122 95.9776C173.103 96.2601 172.867 96.4759 172.588 96.4759C172.575 96.4759 172.562 96.476 172.55 96.4748C172.254 96.4541 172.031 96.198 172.052 95.9029C172.537 88.929 166.698 82.4672 166.243 81.9757C163.601 79.9247 160.547 79.4252 157.639 80.5724C153.628 82.1548 150.513 86.5312 149.705 91.7229C149.664 91.9882 149.436 92.1765 149.175 92.1765C149.147 92.1765 149.12 92.1742 149.092 92.1708C148.799 92.1248 148.599 91.8515 148.645 91.5587C148.822 90.4241 149.108 89.3274 149.481 88.2813C148.255 88.1963 143.846 87.6543 142.084 84.231C141.948 83.9681 142.052 83.6442 142.315 83.5099C142.579 83.3744 142.903 83.4777 143.037 83.7407C144.755 87.0778 149.765 87.2236 149.815 87.2248C149.842 87.2248 149.865 87.2374 149.89 87.242C150.709 85.3403 151.836 83.6557 153.189 82.3029C151.93 81.1799 148.103 77.2858 149.829 72.7854C149.935 72.5086 150.246 72.3708 150.523 72.4765C150.8 72.5821 150.938 72.8922 150.832 73.1678C149.331 77.0791 152.975 80.6723 153.982 81.568C154.98 80.7182 156.076 80.0361 157.246 79.5745C160.402 78.3296 163.7 78.7959 166.578 80.8824C167.505 79.9856 170.183 76.7908 169.472 70.3428C168.385 69.9271 167.042 68.7259 166.298 66.985C165.552 65.2407 165.139 62.3767 167.405 58.6468C167.56 58.3942 167.89 58.3126 168.142 58.4665C168.395 58.6204 168.477 58.95 168.323 59.2026C166.294 62.5443 166.639 65.0512 167.286 66.5647C168.011 68.2608 169.357 69.2507 170.08 69.4115C170.301 69.4609 170.467 69.6435 170.496 69.8674C171.386 76.8896 168.498 80.492 167.363 81.6116C168.769 83.2182 173.591 89.2505 173.124 95.9753L173.122 95.9776Z" fill="#EF93B0"/>
<path d="M134.565 99.8233C137.015 99.2469 139.411 99.8957 141.137 101.601C143.011 103.453 143.854 106.233 143.487 109.197C145.611 107.332 148.037 105.988 150.608 105.362C154.377 104.444 157.736 105.287 160.063 107.734C160.268 107.949 160.259 108.288 160.044 108.492C159.829 108.697 159.489 108.688 159.285 108.473C157.232 106.315 154.24 105.58 150.861 106.403C145.999 107.587 140.049 112.379 137.722 120.416C137.654 120.65 137.439 120.803 137.207 120.803C137.158 120.803 137.107 120.796 137.058 120.782C136.774 120.699 136.609 120.403 136.691 120.118C137.792 116.317 139.763 112.949 142.266 110.356C142.24 110.27 142.226 110.178 142.248 110.084C142.924 107.072 142.226 104.186 140.382 102.364C138.903 100.902 136.924 100.371 134.811 100.867C134.522 100.935 134.234 100.756 134.166 100.468C134.098 100.179 134.277 99.8911 134.565 99.8233Z" fill="#EF93B0"/>
<path d="M216.967 40.9956H178.971V100.986H216.967V40.9956Z" fill="#2A729C"/>
<path d="M214.825 43.1338H181.113V98.8463H214.825V43.1338Z" fill="#EFB06B"/>
<path d="M190.565 110.751V55.0399L214.825 43.1338V98.8463L190.565 110.751Z" fill="#2A729C"/>
<path d="M194.896 79.7789C195.744 79.7789 196.432 79.092 196.432 78.2447C196.432 77.3973 195.744 76.7104 194.896 76.7104C194.047 76.7104 193.359 77.3973 193.359 78.2447C193.359 79.092 194.047 79.7789 194.896 79.7789Z" fill="#ACB0F0"/>
<path d="M264.24 181.812H266.273L253.889 120.154H251.856L255.814 139.86H239.78L235.822 120.154H233.789L246.173 181.812H248.205L244.349 162.614H260.383L264.24 181.812ZM243.988 160.813L240.141 141.661H256.175L260.022 160.813H243.988Z" fill="#4B494A"/>
<path d="M124.205 146.439L126.227 128.45C126.227 127.335 125.322 126.431 124.205 126.431H61.807C55.1691 126.431 49.7695 131.824 49.7695 138.453C49.7695 145.083 55.1691 150.475 61.807 150.475H124.205C125.322 150.475 126.227 149.572 126.227 148.457C126.227 147.342 125.322 146.438 124.205 146.438V146.439Z" fill="#F8CE9D"/>
<path d="M177.154 150.475H125.383C118.745 150.475 113.346 145.083 113.346 138.453C113.346 131.824 118.745 126.431 125.383 126.431H177.154C178.27 126.431 179.175 127.335 179.175 128.45C179.175 129.565 178.27 130.469 177.154 130.469H125.383C120.975 130.469 117.387 134.052 117.387 138.454C117.387 142.857 120.974 146.44 125.383 146.44H177.154C178.27 146.44 179.175 147.344 179.175 148.459C179.175 149.574 178.27 150.478 177.154 150.478V150.475Z" fill="#39B8A2"/>
<path d="M177.154 148.458H125.383C119.851 148.458 115.367 143.979 115.367 138.455C115.367 132.93 119.851 128.451 125.383 128.451H177.154C171.882 140.878 177.154 148.459 177.154 148.459V148.458Z" fill="#F1EFFD"/>
<g style="mix-blend-mode:multiply">
<path d="M126.649 133.965C126.124 133.965 125.7 134.39 125.7 134.913C125.7 135.435 126.126 135.86 126.649 135.86H175.046C175.131 135.248 175.244 134.615 175.384 133.965H126.649Z" fill="#48A2A9"/>
</g>
<g style="mix-blend-mode:multiply">
<path d="M174.814 139.257H150.452C149.927 139.257 149.503 139.682 149.503 140.204C149.503 140.727 149.927 141.152 150.452 141.152H174.902C174.847 140.554 174.816 139.921 174.813 139.256L174.814 139.257Z" fill="#48A2A9"/>
</g>
<path d="M46.7305 151.143C53.5317 166.148 48.945 179.1 47.0467 180.681H107.62L111.416 175.942L108.411 151.197L46.7305 151.144V151.143Z" fill="#F1EFFD"/>
<path d="M87.5527 151.143C94.3539 166.148 89.7673 179.1 87.8689 180.681H148.443L152.238 175.942L149.234 151.197L87.5527 151.144V151.143Z" fill="#99DADE"/>
<path d="M147.757 151.09V180.996C147.757 180.996 153.898 180.286 156.983 176.811C160.067 173.336 161.135 169.624 161.49 166.425C161.846 163.227 160.265 159.001 158.248 156.632C156.231 154.263 150.155 151.195 147.757 151.09Z" fill="#5FC6CC"/>
<path d="M87.6594 150.405H45.5334C45.214 150.405 44.9551 150.664 44.9551 150.983V151.565C44.9551 151.884 45.214 152.143 45.5334 152.143H87.6594C87.9788 152.143 88.2378 151.884 88.2378 151.565V150.983C88.2378 150.664 87.9788 150.405 87.6594 150.405Z" fill="#88D3D9"/>
<path d="M87.6594 180.066H45.5334C45.214 180.066 44.9551 180.325 44.9551 180.644V181.226C44.9551 181.545 45.214 181.804 45.5334 181.804H87.6594C87.9788 181.804 88.2378 181.545 88.2378 181.226V180.644C88.2378 180.325 87.9788 180.066 87.6594 180.066Z" fill="#88D3D9"/>
<path d="M146.703 181.804H86.4968C86.0507 181.804 85.6885 181.442 85.6885 180.996C85.6885 180.551 86.0507 180.189 86.4968 180.189H146.703C154.455 180.189 160.761 173.89 160.761 166.148C160.761 158.406 154.455 152.107 146.703 152.107H86.4968C86.0507 152.107 85.6885 151.746 85.6885 151.3C85.6885 150.854 86.0507 150.493 86.4968 150.493H146.703C155.346 150.493 162.378 157.516 162.378 166.148C162.378 174.78 155.346 181.804 146.703 181.804Z" fill="#A8DFE2"/>
<g style="mix-blend-mode:multiply">
<path d="M65.5656 156.039H128.042C128.391 156.039 128.672 156.322 128.672 156.668V157.305C128.672 157.653 128.39 157.934 128.042 157.934H65.5656C65.2173 157.934 64.9355 157.651 64.9355 157.305V156.668C64.9355 156.32 65.2184 156.039 65.5656 156.039Z" fill="#78BEC2"/>
</g>
<g style="mix-blend-mode:multiply">
<path d="M54.1789 171.203H102.79C103.138 171.203 103.42 171.486 103.42 171.832V172.469C103.42 172.817 103.137 173.098 102.79 173.098H54.1789C53.8305 173.098 53.5488 172.815 53.5488 172.469V171.832C53.5488 171.484 53.8317 171.203 54.1789 171.203Z" fill="#78BEC2"/>
</g>
<path d="M105.781 151.396C106.049 150.86 106.335 149.838 106.266 148.369C106.19 147.82 106.096 147.126 105.99 146.332C105.937 145.937 105.882 145.516 105.825 145.077L108.46 145.782C108.415 146.256 108.373 146.699 108.335 147.106C108.252 147.972 108.279 148.844 108.433 149.7C108.481 149.957 108.534 150.178 108.591 150.296C108.8 150.72 110.313 152.185 111.005 153.448C111.069 153.602 112.633 153.848 112.397 154.206C112.256 154.284 109.529 154.498 109.225 154.205C108.92 153.912 108.194 153.182 107.383 153.018C107.332 153.027 107.332 154.339 107.332 154.339L106.152 154.344C106.152 154.344 106.015 153.178 105.963 152.827C105.911 152.476 105.508 151.939 105.78 151.397L105.781 151.396Z" fill="#F7B66F"/>
<path d="M111.014 153.461C110.52 153.518 109.979 153.626 109.79 153.543C109.535 153.432 107.852 151.345 106.003 150.832C105.933 151.058 105.856 151.247 105.781 151.397C105.509 151.939 105.911 152.475 105.964 152.827C106.017 153.178 106.153 154.344 106.153 154.344L107.333 154.339C107.333 154.339 107.333 153.027 107.384 153.017C108.195 153.182 108.921 153.912 109.226 154.205C109.53 154.498 112.257 154.284 112.398 154.206C112.626 153.858 111.159 153.626 111.015 153.462L111.014 153.461Z" fill="#2B1710"/>
<path d="M107.842 128.871C105.477 124.564 98.8164 121.065 97.6861 120.673C93.2846 119.147 88.9912 116.438 88.9912 116.438L86.7306 115.987L85.751 122.759L88.8267 125.445C90.4032 129.243 100.235 129.706 101.163 131.929C102.091 134.153 104.92 149.161 104.92 149.161H111.367C111.367 149.161 110.208 133.18 107.842 128.873V128.871Z" fill="#253163"/>
<g style="mix-blend-mode:multiply">
<path d="M110.996 147.812C111.045 147.812 111.084 147.773 111.084 147.724C111.084 147.674 111.045 147.635 110.996 147.634L105.013 147.611C104.964 147.611 104.925 147.65 104.925 147.7C104.925 147.749 104.964 147.788 105.013 147.789L110.996 147.812Z" fill="#D4D4D4"/>
</g>
<path d="M89.4303 103.527C92.2301 104.775 95.2438 110.344 96.6742 112.149C98.1057 113.954 100.968 114.933 100.968 114.933C100.968 114.933 96.6742 116.814 95.6946 116.888C90.8734 115.007 88.9141 110.343 88.9141 110.343L89.4292 103.526L89.4303 103.527Z" fill="#F0F4FF"/>
<path d="M97.6949 151.396C97.9628 150.86 98.2491 149.838 98.1802 148.369C98.1043 147.82 98.01 147.126 97.9042 146.332C97.8513 145.937 97.7961 145.516 97.7386 145.077L100.374 145.782C100.329 146.256 100.287 146.699 100.249 147.106C100.166 147.972 100.193 148.844 100.348 149.7C100.395 149.957 100.448 150.178 100.505 150.296C100.714 150.72 102.228 152.185 102.919 153.448C102.983 153.602 104.547 153.848 104.311 154.206C104.17 154.284 101.443 154.498 101.139 154.205C100.834 153.912 100.108 153.182 99.2966 153.018C99.246 153.027 99.246 154.339 99.246 154.339L98.0663 154.344C98.0663 154.344 97.9295 153.178 97.8766 152.827C97.8249 152.476 97.4224 151.939 97.6938 151.397L97.6949 151.396Z" fill="#F7B66F"/>
<path d="M102.928 153.461C102.434 153.518 101.893 153.626 101.704 153.543C101.449 153.432 99.7657 151.345 97.9168 150.832C97.8467 151.058 97.7697 151.247 97.6949 151.397C97.4236 151.939 97.8248 152.475 97.8777 152.827C97.9295 153.178 98.0675 154.344 98.0675 154.344L99.2472 154.339C99.2472 154.339 99.2472 153.027 99.2978 153.017C100.11 153.182 100.835 153.912 101.14 154.205C101.444 154.498 104.171 154.284 104.312 154.206C104.54 153.858 103.073 153.626 102.929 153.462L102.928 153.461Z" fill="#2B1710"/>
<path d="M83.1404 99.9762C82.7966 100.942 80.2613 103.045 78.3503 102.314C76.4381 101.585 74.4834 103.794 75.4711 105.232C74.5685 106.369 75.1699 109.395 78.586 109.823C82.0021 110.253 84.365 104.224 84.4501 100.77C84.0637 99.9119 83.1393 99.9762 83.1393 99.9762H83.1404Z" fill="#2B1710"/>
<path d="M87.7789 103.278L89.4289 103.527C89.6381 105.785 91.6894 108.217 91.794 109.467C91.8987 110.718 90.2636 112.594 89.6025 113.775C88.9413 114.957 88.9413 115.998 88.9413 115.998H82.0194C82.0194 115.686 80.3499 107.939 80.558 106.028C80.7673 104.117 83.2279 103.401 83.2279 103.401C83.2279 103.401 85.7149 103.596 87.7777 103.278H87.7789Z" fill="#989DF5"/>
<path d="M84.1059 101.007C84.6513 101.007 85.0936 100.603 85.0936 100.105C85.0936 99.6072 84.6513 99.2036 84.1059 99.2036C83.5604 99.2036 83.1182 99.6072 83.1182 100.105C83.1182 100.603 83.5604 101.007 84.1059 101.007Z" fill="#C2DBF2"/>
<path d="M85.4907 100.812C83.8247 101.103 82.8565 99.5548 83.3406 98.3353C83.2049 95.8388 84.2708 93.3824 88.01 94.7168C89.8704 94.9488 90.5868 97.4063 89.0563 98.0448C87.0223 99.8442 85.4919 100.811 85.4919 100.811L85.4907 100.812Z" fill="#2B1710"/>
<path d="M86.9825 101.77C86.8664 102.467 86.8273 102.613 87.815 103.281C87.7862 106.416 83.2341 103.845 83.2491 103.381C83.2491 103.323 84.0919 103.134 84.3966 102.598C84.7013 102.062 84.8473 100.698 84.7312 98.8682C85.4429 99.0566 85.6901 98.4904 85.7051 97.5189C85.72 96.5474 86.1845 94.9937 88.0737 95.2406C88.7854 96.111 89.1637 96.6622 89.1051 97.7945C89.0465 98.9268 89.1729 99.7295 89.0373 100.272C88.9027 100.808 88.3209 101.8 86.9837 101.771L86.9825 101.77Z" fill="#F7B66F"/>
<path fill-rule="evenodd" clip-rule="evenodd" d="M86.9023 100.185C86.9119 100.239 86.9254 100.293 86.9472 100.346C87.1055 100.752 87.5628 100.952 87.9674 100.793C88.1683 100.714 88.3182 100.562 88.3996 100.379C87.7289 100.608 87.0915 100.526 86.9023 100.185Z" fill="white"/>
<path d="M84.3647 99.8304C84.6847 99.8304 84.9442 99.5713 84.9442 99.2516C84.9442 98.932 84.6847 98.6729 84.3647 98.6729C84.0446 98.6729 83.7852 98.932 83.7852 99.2516C83.7852 99.5713 84.0446 99.8304 84.3647 99.8304Z" fill="#F7B66F"/>
<g style="mix-blend-mode:multiply">
<path d="M84.4895 99.5538C84.5045 99.5538 84.5183 99.5457 84.524 99.5308C84.5321 99.5113 84.524 99.4895 84.5045 99.4814C84.455 99.4596 84.4263 99.4286 84.424 99.3907C84.4205 99.3528 84.4447 99.3092 84.4826 99.2839C84.524 99.2564 84.5746 99.2541 84.6194 99.2782C84.6309 99.2851 84.6459 99.2839 84.6574 99.277C84.6689 99.2701 84.6758 99.2575 84.6746 99.2437C84.6689 99.1059 84.5746 98.9934 84.4309 98.9498C84.2814 98.9038 84.1308 98.9497 84.0457 99.0634C84.033 99.0807 84.0365 99.1036 84.0537 99.1163C84.071 99.1289 84.094 99.1255 84.1066 99.1082C84.1871 99.0003 84.3193 98.9945 84.409 99.0221C84.4826 99.0451 84.562 99.099 84.5895 99.1898C84.5378 99.1806 84.4849 99.1921 84.4401 99.2219C84.378 99.2633 84.3412 99.3322 84.3481 99.3988C84.3515 99.4367 84.3722 99.5079 84.4746 99.5515C84.4792 99.5538 84.4849 99.5549 84.4895 99.5549V99.5538Z" fill="#E0B3A8"/>
</g>
<g style="mix-blend-mode:multiply">
<path d="M86.8656 101.768C86.8656 101.768 86.8587 101.768 86.8553 101.766C85.894 101.493 85.1225 100.685 84.8925 99.7074C84.8879 99.6878 84.9006 99.6672 84.9201 99.6626C84.9397 99.658 84.9604 99.6706 84.965 99.6901C85.1904 100.642 85.94 101.429 86.876 101.694C86.8955 101.7 86.907 101.72 86.9013 101.74C86.8967 101.756 86.8817 101.766 86.8656 101.766V101.768Z" fill="#E0B3A8"/>
</g>
<path d="M84.7644 100.047C84.7644 100.197 84.6425 100.318 84.493 100.318C84.3436 100.318 84.2217 100.197 84.2217 100.047C84.2217 99.8981 84.3436 99.7764 84.493 99.7764C84.6425 99.7764 84.7644 99.8981 84.7644 100.047Z" fill="white"/>
<g style="mix-blend-mode:multiply">
<path d="M87.7087 101.235C87.7996 101.235 87.9122 101.223 88.0272 101.18C88.0422 101.174 88.0502 101.157 88.0445 101.142C88.0387 101.127 88.0215 101.119 88.0065 101.124C87.7685 101.213 87.5328 101.159 87.5305 101.158C87.5144 101.154 87.4983 101.163 87.4949 101.18C87.4914 101.196 87.5006 101.212 87.5167 101.215C87.5225 101.216 87.5983 101.234 87.7087 101.234V101.235Z" fill="#E0B3A8"/>
</g>
<path d="M82.2256 116.459C82.2256 116.459 79.1648 121.647 80.7412 125.445C82.3176 129.242 92.1497 129.706 93.0776 131.93C94.0055 134.153 96.8341 149.161 96.8341 149.161H103.281C103.281 149.161 102.122 133.18 99.7569 128.873C97.3918 124.565 90.5745 121.369 89.6006 120.674C88.6267 119.98 87.6528 116.228 87.6528 116.228L82.2268 116.46L82.2256 116.459Z" fill="#3A477C"/>
<path d="M81.8994 116.502H89.1514V115.842H81.8994V116.502Z" fill="#2B1710"/>
<g style="mix-blend-mode:multiply">
<path d="M82.8292 121.319C82.8361 121.319 82.843 121.319 82.8499 121.316C84.4481 120.929 85.2392 119.199 84.8644 116.908C84.8563 116.859 84.8103 116.826 84.762 116.834C84.7137 116.842 84.6804 116.888 84.6884 116.936C85.0472 119.129 84.309 120.78 82.8073 121.144C82.759 121.155 82.7303 121.204 82.7418 121.251C82.7521 121.291 82.7878 121.319 82.828 121.319H82.8292Z" fill="#D4D4D4"/>
</g>
<g style="mix-blend-mode:multiply">
<path d="M98.6436 147.489C98.6436 147.489 98.6551 147.489 98.6597 147.487C98.708 147.478 98.7402 147.432 98.731 147.384C98.6206 146.803 96.0232 133.121 94.6882 130.454C93.8144 128.708 90.3074 127.809 87.4904 127.086C85.8668 126.669 84.4652 126.309 83.8546 125.881C82.1127 124.658 82.3231 120.485 83.1015 116.987C83.1119 116.939 83.082 116.892 83.0337 116.881C82.9865 116.871 82.9382 116.901 82.9279 116.949C82.1368 120.503 81.9379 124.755 83.7523 126.027C84.3893 126.474 85.8059 126.838 87.4467 127.258C90.2292 127.971 93.6925 128.86 94.5296 130.533C95.8542 133.178 98.5298 147.274 98.5562 147.416C98.5643 147.459 98.6011 147.489 98.6436 147.489Z" fill="#D4D4D4"/>
</g>
<g style="mix-blend-mode:multiply">
<path d="M102.911 147.812C102.96 147.812 102.999 147.773 102.999 147.724C102.999 147.674 102.96 147.635 102.911 147.634L96.9284 147.611C96.8789 147.611 96.8398 147.65 96.8398 147.7C96.8398 147.749 96.8789 147.788 96.9284 147.789L102.911 147.812Z" fill="#D4D4D4"/>
</g>
<path d="M104.671 114.006H92.2542L90.1006 123.153H102.517L104.671 114.006Z" fill="#BDBFF2"/>
<path d="M105.21 114.006H92.7923L90.6387 123.153H103.056L105.21 114.006Z" fill="#959AF2"/>
<path d="M97.7816 119.266H96.8008V119.156C96.8008 118.458 97.3676 117.891 98.0679 117.891H99.0487V118.001C99.0487 118.699 98.4818 119.266 97.7816 119.266Z" fill="#BDBFF2"/>
<path d="M103.001 123.152H85.8076V123.967H103.001V123.152Z" fill="#959AF2"/>
<path d="M105.025 119.039C105.933 118.383 106.3 116.124 104.792 115.642C104.735 115.719 104.657 116.298 104.657 116.298C104.657 116.298 102.396 116.51 102.3 117.205C101.951 117.571 102.339 117.977 102.339 117.977C102.3 118.382 103.286 118.632 103.286 118.632C103.286 118.632 102.687 118.516 102.707 118.806C102.726 119.095 104.35 119.327 105.026 119.038L105.025 119.039Z" fill="#F7B66F"/>
<g style="mix-blend-mode:multiply">
<path d="M103.014 117.413C103.525 117.413 104.303 117.361 104.824 117.082C104.836 117.075 104.84 117.06 104.834 117.049C104.828 117.037 104.813 117.033 104.801 117.039C103.986 117.474 102.521 117.346 102.506 117.344C102.492 117.343 102.481 117.353 102.48 117.366C102.478 117.38 102.489 117.391 102.501 117.392C102.507 117.392 102.714 117.411 103.015 117.411L103.014 117.413Z" fill="#E0B3A8"/>
</g>
<g style="mix-blend-mode:multiply">
<path d="M104.205 118.272H104.213C104.227 118.272 104.237 118.26 104.237 118.246C104.237 118.233 104.228 118.222 104.212 118.222C104.203 118.222 103.336 118.229 102.441 117.963C102.428 117.959 102.415 117.966 102.41 117.979C102.407 117.992 102.414 118.005 102.426 118.01C103.28 118.264 104.112 118.272 104.203 118.272H104.205Z" fill="#E0B3A8"/>
</g>
<g style="mix-blend-mode:multiply">
<path d="M103.847 118.728C103.894 118.728 103.922 118.725 103.925 118.725C103.939 118.725 103.95 118.713 103.948 118.699C103.948 118.685 103.936 118.675 103.922 118.676C103.92 118.676 103.681 118.694 103.379 118.618C103.367 118.615 103.353 118.623 103.349 118.637C103.346 118.651 103.354 118.663 103.368 118.667C103.576 118.718 103.753 118.728 103.848 118.728H103.847Z" fill="#E0B3A8"/>
</g>
<path d="M83.247 103.38C85.1867 105.37 86.3411 108.232 85.4167 114.231C84.4922 120.23 82.7365 122.769 87.3576 125.122C91.9787 127.476 93.1343 127.614 94.4278 130.153C93.1343 132.229 91.8396 133.845 91.8396 133.845C90.684 132.599 85.4167 130.061 82.5053 128.907C79.594 127.753 78.3924 125.861 79.502 121.153C80.6116 116.446 81.4429 115.708 81.4429 115.708L81.5291 104.345C81.9971 103.524 83.247 103.379 83.247 103.379V103.38Z" fill="white"/>
<path d="M77.5131 111.596C77.5131 111.596 76.5219 114.866 76.5817 117.744C76.6415 120.623 77.9626 124.583 77.9626 125.003C78.0224 126.203 79.0136 126.833 79.7345 126.743C80.4554 126.653 80.9211 126.563 80.9959 126.728C81.0855 126.983 81.5662 127.373 81.7915 127.313C82.0617 127.478 82.2423 127.387 82.2423 127.387C82.4377 127.523 82.6171 127.328 82.6171 127.328C82.6171 127.328 82.6171 126.713 82.5573 126.593C82.4975 126.473 82.3618 126.083 82.3618 126.083C82.3618 126.083 82.6769 126.367 82.6918 126.518C82.7068 126.668 82.6619 127.147 82.8724 127.193C83.023 126.743 82.977 126.354 82.9621 126.144C82.9471 125.933 82.4665 125.184 82.0606 125.109C81.6547 125.034 80.0185 125.064 79.8978 124.914C79.7782 124.763 80.2726 117.506 80.4083 116.83C80.544 116.155 81.895 112.286 81.895 112.286L77.5108 111.596H77.5131Z" fill="#F7B66F"/>
<g style="mix-blend-mode:multiply">
<path d="M82.2687 125.928C82.2572 125.928 82.2457 125.923 82.2365 125.914L81.9997 125.656C81.9836 125.639 81.9847 125.611 82.002 125.595C82.0192 125.579 82.0468 125.58 82.0629 125.597L82.2998 125.856C82.3159 125.873 82.3147 125.9 82.2975 125.916C82.2894 125.924 82.2791 125.928 82.2687 125.928Z" fill="#E0B3A8"/>
</g>
<g style="mix-blend-mode:multiply">
<path d="M82.1928 127.185C82.1928 127.185 82.1031 126.622 82.0916 126.556C82.0813 126.514 81.91 126.257 81.7501 126.034C81.7363 126.015 81.7409 125.989 81.7605 125.975C81.78 125.961 81.8065 125.966 81.8203 125.985C81.9238 126.13 82.1652 126.473 82.1767 126.543C82.1882 126.611 82.2779 127.174 82.2779 127.174L82.1928 127.187V127.185Z" fill="#E0B3A8"/>
</g>
<g style="mix-blend-mode:multiply">
<path d="M81.7848 127.143C81.7664 127.143 81.7503 127.131 81.7434 127.113C81.7434 127.109 81.6307 126.776 81.6089 126.721C81.594 126.688 81.418 126.466 81.2559 126.272C81.241 126.254 81.2433 126.226 81.2617 126.211C81.2801 126.197 81.3076 126.199 81.3226 126.217C81.4031 126.314 81.6664 126.632 81.6894 126.69C81.7124 126.747 81.8205 127.073 81.8251 127.087C81.8331 127.109 81.8205 127.134 81.7975 127.14C81.7929 127.142 81.7883 127.143 81.7837 127.143H81.7848Z" fill="#E0B3A8"/>
</g>
<path d="M81.5292 104.346C83.7552 105.944 83.477 109.348 82.364 112.058C81.2509 114.768 80.346 117.547 80.346 122.827C78.189 123.244 77.3542 122.966 77.3542 122.966C77.3542 122.966 75.6847 118.172 76.6586 113.448C77.6325 108.723 79.7194 104.346 81.528 104.346H81.5292Z" fill="#F0F4FF"/>
<path d="M87.8145 103.28C88.7918 106.524 90.6856 108.093 89.8082 111.277C88.9298 114.461 88.4032 115.865 89.1517 116.502C89.9002 117.138 91.3789 117.785 91.3789 117.785L91.564 116.907C91.564 116.907 90.8247 116.907 90.4085 115.799C89.9922 114.691 90.5004 112.892 91.3329 111.277C92.1642 109.661 92.4885 109.478 91.2869 107.677C90.0854 105.878 89.43 103.526 89.43 103.526L87.8145 103.279V103.28Z" fill="white"/>
<path d="M85.6029 110.424H83.0146V111.809H85.6029V110.424Z" fill="#F4E6F6"/>
<path d="M84.5182 109.779H84.125V110.771H84.5182V109.779Z" fill="#3B43DB"/>
<path d="M255.665 134.38C255.675 134.395 255.663 136.31 255.672 136.325C256.561 137.765 256.528 139.825 256.528 139.825H245.508C246.153 138.757 248.021 138.044 250.059 137.367C252.096 136.688 252.404 134.288 252.404 134.288L255.666 134.381L255.665 134.38Z" fill="#F7B66F"/>
<path d="M252.846 138.057C251.624 137.776 251.269 137.432 250.693 137.072C250.503 137.189 250.291 137.289 250.058 137.367C248.02 138.046 246.152 138.758 245.507 139.826H256.527C256.527 139.826 256.546 138.606 256.151 137.388C255.61 137.763 254.396 138.414 252.845 138.057H252.846Z" fill="#2B1710"/>
<path d="M247.499 110.751L250.225 133.368C254.105 136.509 257.04 134.416 257.04 134.416L255.887 111.694L247.499 110.751Z" fill="#145B85"/>
<path d="M250.261 134.38C250.27 134.395 250.259 136.31 250.268 136.325C251.157 137.765 251.123 139.825 251.123 139.825H240.104C240.749 138.757 242.617 138.044 244.655 137.367C246.692 136.688 247 134.288 247 134.288L250.262 134.381L250.261 134.38Z" fill="#F7B66F"/>
<path d="M247.443 138.057C246.221 137.776 245.865 137.432 245.289 137.072C245.099 137.189 244.888 137.289 244.655 137.367C242.617 138.046 240.749 138.758 240.104 139.826H251.123C251.123 139.826 251.143 138.606 250.747 137.388C250.207 137.763 248.993 138.414 247.442 138.057H247.443Z" fill="#2B1710"/>
<path d="M242.095 110.751L244.821 133.368C248.7 136.509 251.636 134.416 251.636 134.416L250.483 111.694L242.095 110.751Z" fill="#1B6B99"/>
<path d="M236.003 83.1427C235.56 82.1425 235.42 81.7704 234.675 81.3512C233.93 80.9321 233.533 80.4199 233.533 80.4199C233.114 80.9551 234.303 81.7463 234.046 82.1413C233.79 82.5363 230.341 82.0942 230.482 82.5134C230.622 82.9325 231.251 83.0715 231.251 83.0715C231.553 83.5366 231.857 83.4206 233.162 84.0717C234.467 84.7228 234.979 85.444 234.979 85.444L236.004 83.1404L236.003 83.1427Z" fill="#F7B66F"/>
<path d="M248.782 75.9988L248.386 76.2491C248.386 76.2491 245.031 76.6155 244.402 78.1336C243.773 79.6517 241.571 89.9663 241.309 94.9398C241.047 99.9133 240.785 114.206 241.047 114.101C246.027 112.949 248.071 114.416 251.479 114.938C254.886 115.462 256.25 113.001 256.25 113.001C256.303 106.98 256.408 93.9442 256.408 93.9442C256.408 93.9442 259.238 93.9442 259.238 92.0597C259.238 90.1753 256.985 79.9135 255.674 78.2909C254.363 76.6683 252.767 75.8828 252.767 75.8828L248.783 75.9988H248.782Z" fill="white"/>
<path d="M248.436 70.4256C248.419 70.4256 248.402 70.4234 248.386 70.4188L247.305 70.1328C247.254 70.119 247.211 70.0869 247.184 70.0409C247.158 69.995 247.151 69.9422 247.163 69.8917L247.42 68.9213C247.434 68.8708 247.466 68.8271 247.512 68.8007C247.558 68.7743 247.611 68.7674 247.661 68.7801L248.742 69.066C248.793 69.0798 248.836 69.1119 248.863 69.1579C248.889 69.2038 248.896 69.2566 248.883 69.3072L248.627 70.2775C248.613 70.328 248.581 70.3717 248.535 70.3981C248.504 70.4153 248.471 70.4245 248.436 70.4245V70.4256ZM248.409 70.3326C248.436 70.3395 248.466 70.3361 248.49 70.3211C248.516 70.3062 248.533 70.2833 248.541 70.2557L248.797 69.2853C248.804 69.2578 248.801 69.2279 248.786 69.2038C248.771 69.1785 248.748 69.1613 248.72 69.1533L247.639 68.8673C247.612 68.8604 247.582 68.8639 247.558 68.8788C247.532 68.8937 247.515 68.9167 247.507 68.9443L247.251 69.9146C247.244 69.9422 247.247 69.972 247.262 69.9962C247.277 70.0214 247.3 70.0387 247.328 70.0467L248.409 70.3326Z" fill="#2B1710"/>
<path d="M248.433 68.0877C247.39 67.1828 249.563 65.063 251.614 66.2963C253.664 67.5296 255.457 68.5528 254.712 70.2524C253.967 71.9508 252.896 73.3587 252.896 73.3587L250.333 73.9283C250.333 73.9283 248.771 71.2296 248.771 70.9965C248.771 70.7634 248.433 68.0877 248.433 68.0877Z" fill="#2B1710"/>
<path d="M248.433 68.0876C248.013 68.9718 248.025 69.9605 247.827 70.7632C247.629 71.5659 247.244 73.0198 247.664 73.6835C248.083 74.3461 248.572 74.2531 248.608 74.2772C248.712 74.6493 248.783 75.9986 248.783 75.9986C251.974 76.7898 252.778 76.4063 252.767 75.8826C252.894 73.5204 252.894 73.3574 252.894 73.3574C251.321 73.4848 251.053 72.8337 251.135 71.6934C251.217 70.5531 250.833 70.1339 250.448 70.088C250.063 70.0409 250.436 71.3673 249.889 71.2743C249.341 71.1812 249.539 70.6346 249.655 69.7734C249.771 68.9121 248.432 68.0864 248.432 68.0864L248.433 68.0876Z" fill="#F7B66F"/>
<g style="mix-blend-mode:multiply">
<path d="M250.599 70.2983C251.251 71.2285 251.216 72.2758 250.016 71.9968C250.586 71.101 250.599 70.2983 250.599 70.2983Z" fill="#E0B3A8"/>
</g>
<g style="mix-blend-mode:multiply">
<path d="M248.683 74.1697C248.674 74.1697 248.665 74.1651 248.659 74.1582C248.649 74.1444 248.651 74.1249 248.663 74.1145C249.415 73.5174 249.733 72.5 249.736 72.4896C249.741 72.4735 249.759 72.4644 249.775 72.469C249.791 72.4735 249.801 72.4919 249.796 72.508C249.793 72.5183 249.469 73.5542 248.703 74.1639C248.697 74.1685 248.69 74.1708 248.683 74.1708V74.1697Z" fill="#E0B3A8"/>
</g>
<g style="mix-blend-mode:multiply">
<path d="M251.496 76.8898C250.697 76.8898 249.688 76.7233 248.725 76.349C248.709 76.3432 248.701 76.3248 248.708 76.3088C248.713 76.2927 248.732 76.2846 248.748 76.2915C250.424 76.9438 252.233 76.9633 252.807 76.5706C252.915 76.4971 252.969 76.4133 252.969 76.3202C252.969 76.303 252.983 76.2892 253 76.2892C253.017 76.2892 253.031 76.303 253.031 76.3202C253.031 76.4351 252.968 76.5361 252.841 76.6223C252.588 76.7945 252.103 76.891 251.496 76.891V76.8898Z" fill="#C9C9C9"/>
</g>
<g style="mix-blend-mode:multiply">
<path d="M247.198 82.2319C247.198 82.2319 247.192 82.2319 247.189 82.2308C247.173 82.2262 247.162 82.2089 247.168 82.1917C247.446 81.2673 247.359 78.5181 245.506 77.5168C245.491 77.5087 245.485 77.4892 245.493 77.4743C245.501 77.4593 245.52 77.4536 245.535 77.4616C247.42 78.4802 247.51 81.2719 247.228 82.2101C247.223 82.2239 247.212 82.2319 247.198 82.2319Z" fill="#C9C9C9"/>
</g>
<g style="mix-blend-mode:multiply">
<path d="M256.302 93.3482C256.302 93.3482 256.3 93.3482 256.299 93.3482C256.281 93.346 256.269 93.331 256.271 93.3138C256.277 93.2598 256.886 87.8488 255.747 81.2813C255.743 81.2641 255.755 81.248 255.772 81.2457C255.789 81.2423 255.805 81.2538 255.808 81.271C256.948 87.8488 256.339 93.2679 256.332 93.3218C256.33 93.3379 256.317 93.3494 256.301 93.3494L256.302 93.3482Z" fill="#C9C9C9"/>
</g>
<path d="M250.491 70.574C250.491 70.574 250.483 70.574 250.479 70.5717L247.369 69.2798C247.353 69.2729 247.346 69.2545 247.352 69.2385C247.359 69.2224 247.377 69.2155 247.393 69.2212L250.503 70.5131C250.519 70.52 250.526 70.5384 250.521 70.5545C250.516 70.566 250.504 70.574 250.492 70.574H250.491Z" fill="#2B1710"/>
<path d="M250.369 69.8883C250.008 69.824 250.272 70.3947 250.308 70.7174C250.342 71.0401 249.591 72.061 250.002 72.1402C250.412 72.2195 251.347 70.064 250.369 69.8895V69.8883Z" fill="#CE753D"/>
<path d="M236.014 82.6362C234.39 83.5262 233.917 85.6724 233.917 85.6724C233.917 85.6724 239.368 92.8451 240.208 93.0541C241.046 93.2631 246.708 85.4623 246.708 85.4623C246.341 83.9958 244.401 78.1323 244.401 78.1323C244.401 78.1323 240.522 87.1377 240.208 86.6141C239.894 86.0904 236.014 82.635 236.014 82.635V82.6362Z" fill="white"/>
<g style="mix-blend-mode:multiply">
<path d="M239.8 88.2929C239.8 88.2929 239.792 88.2929 239.787 88.2906C239.771 88.2837 239.764 88.2653 239.771 88.2492C239.91 87.9392 240.003 87.6096 240.071 87.3696C240.148 87.0963 240.167 87.0377 240.215 87.0412C240.252 87.0435 240.263 87.0859 240.274 87.164C240.32 87.5281 240.526 88.0586 240.528 88.0643C240.534 88.0804 240.527 88.0988 240.511 88.1045C240.494 88.1103 240.476 88.1034 240.47 88.0873C240.462 88.0655 240.259 87.5441 240.212 87.1721C240.21 87.1583 240.208 87.148 240.207 87.1388C240.186 87.1927 240.159 87.2904 240.132 87.3868C240.063 87.6291 239.97 87.961 239.829 88.2745C239.823 88.286 239.813 88.2929 239.8 88.2929Z" fill="#C9C9C9"/>
</g>
<g style="mix-blend-mode:multiply">
<path d="M242.251 91.5199C242.24 91.5199 242.228 91.5165 242.219 91.5096C242.194 91.4912 242.188 91.4568 242.205 91.4304L246.738 85.0627C246.756 85.0375 246.791 85.0317 246.817 85.0489C246.842 85.0673 246.848 85.1018 246.831 85.1282L242.298 91.4958C242.287 91.5119 242.27 91.5199 242.252 91.5199H242.251Z" fill="#C9C9C9"/>
</g>
<path d="M45.2147 180.515C43.2077 180.515 41.5206 178.955 41.3926 176.925L29.5396 94.6138C29.5187 94.2748 29.5423 93.9345 29.6105 93.6025L64.2767 6.24875C64.5882 4.73741 65.7872 3.53166 67.3686 3.24968C68.3366 3.07743 69.3339 3.31635 70.1656 3.84005L83.4791 12.208C85.2705 13.3346 85.8074 15.7002 84.6794 17.4894C83.5542 19.2758 83.977 17.9783 82.187 16.8518L71.4063 10.0174L37.544 93.4344C37.4759 94.1151 37.3688 95.1944 37.3006 95.8751L49.0452 176.447C49.1773 178.557 47.5723 180.376 45.4595 180.508C45.3775 180.513 45.2968 180.516 45.2161 180.516L45.2147 180.515Z" fill="#3A477C"/>
<path d="M65.9008 165.7H60.4111C60.1668 165.7 59.9688 165.897 59.9688 166.141V174.746C59.9688 174.99 60.1668 175.187 60.4111 175.187H65.9008C66.1451 175.187 66.3431 174.99 66.3431 174.746V166.141C66.3431 165.897 66.1451 165.7 65.9008 165.7Z" fill="#606FB0"/>
<path d="M94.8321 19.3276C95.5787 14.734 92.4554 10.4057 87.8559 9.66006C83.2565 8.91441 78.9226 12.0338 78.1761 16.6274C77.4295 21.221 80.5528 25.5493 85.1523 26.2949C89.7517 27.0406 94.0855 23.9212 94.8321 19.3276Z" fill="#FF8D06"/>
<path d="M68.4065 11.6095C71.4615 11.6095 73.938 9.13609 73.938 6.08501C73.938 3.03393 71.4615 0.560547 68.4065 0.560547C65.3515 0.560547 62.875 3.03393 62.875 6.08501C62.875 9.13609 65.3515 11.6095 68.4065 11.6095Z" fill="#FF8D06"/>
<path d="M41.7706 102.021C45.9807 97.8158 45.9807 90.9986 41.7706 86.7939C37.5605 82.5891 30.7346 82.5891 26.5245 86.7939C22.3143 90.9986 22.3143 97.8159 26.5245 102.021C30.7346 106.225 37.5605 106.225 41.7706 102.021Z" fill="#FF8D06"/>
<path d="M86.1407 15.3223C75.5964 25.8531 79.9096 47.2342 95.7753 63.0783L133.958 24.9446C118.093 9.1005 96.6849 4.79289 86.1407 15.3223Z" fill="#A8DFE2"/>
<path d="M121.435 50.5167C132.043 39.9221 137.872 28.5669 134.455 25.1541C131.038 21.7414 119.668 27.5635 109.06 38.1581C98.4521 48.7527 92.6226 60.1079 96.0397 63.5206C99.4568 66.9333 110.826 61.1113 121.435 50.5167Z" fill="#C6F0F2"/>
<path d="M120.418 49.501C130.464 39.4673 136.294 29.0216 133.439 26.1698C130.583 23.318 120.124 29.14 110.077 39.1737C100.031 49.2074 94.2015 59.6532 97.057 62.505C99.9124 65.3568 110.371 59.5347 120.418 49.501Z" fill="#88D3D9"/>
<path d="M102.801 47.5124C103.365 49.528 104.439 51.431 106.026 53.0174C110.957 57.9418 118.95 57.9418 123.881 53.0174C128.812 48.093 128.812 40.1098 123.881 35.1855C122.29 33.5963 120.379 32.5225 118.355 31.96C115.754 33.8991 112.96 36.2954 110.076 39.175C107.167 42.081 104.752 44.8953 102.801 47.5124Z" fill="#E4FCFE"/>
<path d="M72.6602 173.44H40.9009C36.5197 173.44 32.9688 176.986 32.9688 181.362C32.9688 181.606 33.1663 181.804 33.411 181.804H80.15C80.3948 181.804 80.5923 181.606 80.5923 181.362C80.5923 176.986 77.0414 173.44 72.6602 173.44Z" fill="#606FB0"/>
</svg>
