<svg width="38" height="17" viewBox="0 0 38 17" fill="none" xmlns="http://www.w3.org/2000/svg">
<path d="M34.892 9.97852L35.3348 10.719V10.9298C35.3348 10.9298 32.1793 13.0894 32.1468 13.0947L32.127 12.9101L32.1747 12.8412L32.1735 12.6987L31.828 12.5913L31.0723 12.3314L34.892 9.97852Z" stroke="white" stroke-width="0.3" stroke-miterlimit="10" stroke-linecap="round" stroke-linejoin="round"/>
<path d="M32.0093 12.6491C31.9808 12.6403 31.662 12.082 31.662 12.082L31.1309 12.3658" stroke="white" stroke-width="0.3" stroke-miterlimit="10" stroke-linecap="round" stroke-linejoin="round"/>
<path d="M35.3343 10.7188L32.1748 12.841" stroke="white" stroke-width="0.3" stroke-miterlimit="10" stroke-linecap="round" stroke-linejoin="round"/>
<path d="M34.1592 10.4304L34.5455 10.9992L34.6647 10.9251L34.2773 10.3574" stroke="white" stroke-width="0.3" stroke-miterlimit="10" stroke-linecap="round" stroke-linejoin="round"/>
<path d="M29.5398 12.2305L29.9203 12.366V12.888C29.9203 12.888 29.4717 13.1368 29.4717 13.1596V13.4504L29.2507 13.5304L28.8818 13.371L29.0523 13.2682L29.0407 13.0971C29.0407 13.0971 29.552 12.7566 29.5415 12.7526C29.5311 12.7485 29.5404 12.2311 29.5404 12.2311L29.5398 12.2305Z" stroke="white" stroke-width="0.3" stroke-miterlimit="10" stroke-linecap="round" stroke-linejoin="round"/>
<path d="M29.0518 13.2656L29.4718 13.4478" stroke="white" stroke-width="0.3" stroke-miterlimit="10" stroke-linecap="round" stroke-linejoin="round"/>
<path d="M29.7287 12.6672C29.7715 12.6672 29.8061 12.6189 29.8061 12.5592C29.8061 12.4995 29.7715 12.4512 29.7287 12.4512C29.686 12.4512 29.6514 12.4995 29.6514 12.5592C29.6514 12.6189 29.686 12.6672 29.7287 12.6672Z" stroke="white" stroke-width="0.3" stroke-miterlimit="10" stroke-linecap="round" stroke-linejoin="round"/>
<path d="M29.5001 12.9837C29.5644 12.9837 29.6165 12.962 29.6165 12.9352C29.6165 12.9084 29.5644 12.8867 29.5001 12.8867C29.4359 12.8867 29.3838 12.9084 29.3838 12.9352C29.3838 12.962 29.4359 12.9837 29.5001 12.9837Z" stroke="white" stroke-width="0.3" stroke-miterlimit="10" stroke-linecap="round" stroke-linejoin="round"/>
<path d="M31.3522 10.5043L31.3534 10.4173C31.3534 10.4173 31.5279 10.3472 31.5407 10.3583C31.5535 10.3694 31.5279 10.2111 31.5279 10.2111L32.098 9.92032L31.7874 9.80469L31.2638 10.1335V10.262L31.0724 10.3344V10.471L30.7373 10.6596" stroke="white" stroke-width="0.3" stroke-miterlimit="10" stroke-linecap="round" stroke-linejoin="round"/>
<path d="M32.5215 9.50977C32.5343 9.51853 33.0009 9.67153 33.0009 9.67153L32.3709 10.0272C32.3342 10.0476 32.3115 10.0867 32.3115 10.1288V10.304" stroke="white" stroke-width="0.3" stroke-miterlimit="10" stroke-linecap="round" stroke-linejoin="round"/>
<path d="M26.5435 10.7738C26.5354 10.7709 18.5229 7.94208 18.5229 7.94208L15.1604 6.7484L10.3418 4.9795L5.14036 3.08212L2.46722 2.05664L2.30142 2.08993C2.27408 2.09518 2.25488 2.11913 2.25488 2.14716V2.19563C2.25488 2.22016 2.26943 2.24176 2.29211 2.24994C2.58532 2.3609 4.51207 3.09088 4.52371 3.09497C4.53651 3.09906 7.24281 4.09301 7.24281 4.09301" stroke="white" stroke-width="0.3" stroke-miterlimit="10" stroke-linecap="round" stroke-linejoin="round"/>
<path d="M2.40527 2.41736V2.29297" stroke="white" stroke-width="0.3" stroke-miterlimit="10" stroke-linecap="round" stroke-linejoin="round"/>
<path d="M30.5481 9.73186L30.4143 9.66587C30.4143 9.66587 30.2951 9.76223 30.2927 9.76865C30.2904 9.77508 30.2904 9.82822 30.284 9.83289C30.2776 9.83756 30.1805 9.88195 30.1805 9.88195L30.1944 10.1547L30.5842 9.84749L30.6395 9.86443L30.7436 9.76398C30.7436 9.76398 30.8169 9.71376 30.846 9.71142C30.8692 9.70967 30.9245 9.70967 30.9484 9.71142C30.974 9.71318 31.0316 9.74471 31.0316 9.74471L31.0211 9.53097C31.0211 9.53097 31.1491 9.49476 31.1467 9.486C31.1444 9.47724 31.2573 9.33008 31.2573 9.33008L31.4423 9.3622L31.3399 9.38789L31.2567 9.65945L31.1799 9.72778C31.1799 9.72778 31.2008 9.9018 31.1799 9.95436C31.1688 9.98181 31.0996 10.0396 31.0996 10.0396L30.7325 10.2277C30.6563 10.2668 30.5662 10.2113 30.5662 10.1255L30.2747 10.3048C30.2747 10.3048 30.3276 10.3445 30.3451 10.3579C30.3625 10.3713 30.3067 10.4677 30.3067 10.4677L30.1805 10.4455C30.1805 10.4455 30.1054 10.5173 30.0734 10.5249C30.0106 10.5395 29.882 10.491 29.8285 10.4455C29.775 10.3999 29.7517 10.2516 29.8058 10.1547C29.8599 10.0577 30.0554 10.1255 30.0554 10.1255V10.0402L30.0344 10.0425C29.9873 10.0472 29.9408 10.0326 29.9047 10.0022L29.8791 9.98064C29.8791 9.98064 27.8982 11.0972 27.8872 11.1142C27.8761 11.1311 27.8447 11.2117 27.8447 11.2117" stroke="white" stroke-width="0.3" stroke-miterlimit="10" stroke-linecap="round" stroke-linejoin="round"/>
<path d="M17.0437 5.02115L8.83516 2.38152L8.27319 2.29918L7.88749 2.42474L6.36621 1.7695V1.70702L6.50699 1.63168C6.52503 1.62175 6.53725 1.60307 6.53783 1.58204L6.54772 1.30815L6.44533 1.27954V1.19252C6.44533 1.16391 6.46569 1.13938 6.4942 1.13471L6.60007 1.11719L15.1687 3.75798L22.6011 6.07408L26.5 7.339L31.4292 8.90292L32.6508 9.31288V9.46647L32.4595 9.53071V9.7573L32.0464 9.66328L32.0784 9.46881C32.0784 9.46881 30.4908 8.9987 30.4885 9.00512C30.4862 9.01155 30.4862 9.08396 30.4862 9.08396C30.4862 9.08396 30.3285 9.13535 30.3285 9.14177V9.26558L30.3966 9.28252L30.528 9.24339C30.528 9.24339 30.6432 9.21828 30.6456 9.21185C30.6479 9.20543 30.6805 9.13301 30.6799 9.1371C30.6793 9.14119 30.9201 9.20777 30.9201 9.20777L30.7916 9.38939" stroke="white" stroke-width="0.3" stroke-miterlimit="10" stroke-linecap="round" stroke-linejoin="round"/>
<path d="M27.3194 11.04L27.5108 10.9127H27.6615L29.9175 9.6478L29.946 9.57247L30.1013 9.50881L30.181 9.54502L30.2753 9.47962L30.2822 9.39727L18.6595 5.54003L17.5576 5.18555" stroke="white" stroke-width="0.3" stroke-miterlimit="10" stroke-linecap="round" stroke-linejoin="round"/>
<path d="M33.2031 9.97852L31.2659 11.2458L30.4293 11.7649L30.3525 11.7451" stroke="white" stroke-width="0.3" stroke-miterlimit="10" stroke-linecap="round" stroke-linejoin="round"/>
<path d="M30.3082 10.6992L29.4873 11.2236" stroke="white" stroke-width="0.3" stroke-miterlimit="10" stroke-linecap="round" stroke-linejoin="round"/>
<path d="M28.2227 11.3523L28.6159 11.1157C28.6601 11.0889 28.7171 11.0947 28.755 11.1303L28.8992 11.2647C28.937 11.2997 28.9935 11.3061 29.0383 11.2793L31.495 9.80469L31.5706 9.82863L31.5491 9.90747L30.4996 10.5785" stroke="white" stroke-width="0.3" stroke-miterlimit="10" stroke-linecap="round" stroke-linejoin="round"/>
<path d="M29.1187 11.4227L29.0337 11.4729C28.9878 11.5003 28.9296 11.4927 28.8918 11.4548L28.7371 11.2983C28.6998 11.2609 28.6428 11.2527 28.5969 11.279L28.377 11.404" stroke="white" stroke-width="0.3" stroke-miterlimit="10" stroke-linecap="round" stroke-linejoin="round"/>
<path d="M37.0428 7.58553L36.9806 8.08717L36.2185 8.58824L34.415 8.11053L34.5302 7.46289" stroke="white" stroke-width="0.3" stroke-miterlimit="10" stroke-linecap="round" stroke-linejoin="round"/>
<path d="M33.6836 7.2248C34.0024 7.31766 35.86 7.83741 36.3254 7.96763C36.3923 7.98632 36.4638 7.97406 36.5208 7.93376L37.1061 7.52205C37.1194 7.51271 37.1282 7.49752 37.1305 7.48117L37.1724 7.14188C37.1759 7.11268 37.1578 7.08581 37.1293 7.07822L34.6586 6.42182C34.5272 6.38678 34.3875 6.40488 34.2694 6.47087L33.7348 6.77104C33.7022 6.78973 33.6801 6.82243 33.6761 6.86039L33.6429 7.16231C33.64 7.19035 33.6569 7.21663 33.6842 7.2248H33.6836Z" stroke="white" stroke-width="0.3" stroke-miterlimit="10" stroke-linecap="round" stroke-linejoin="round"/>
<path d="M37.1732 7.1405L36.5432 7.53294C36.4891 7.56623 36.4239 7.57674 36.3628 7.56097L33.8526 6.91566C33.7897 6.89931 33.7339 6.86252 33.6943 6.81055" stroke="white" stroke-width="0.3" stroke-miterlimit="10" stroke-linecap="round" stroke-linejoin="round"/>
<path d="M36.4316 7.9754L36.4811 7.56836" stroke="white" stroke-width="0.3" stroke-miterlimit="10" stroke-linecap="round" stroke-linejoin="round"/>
<path d="M36.2188 8.58874L36.3258 7.9668" stroke="white" stroke-width="0.3" stroke-miterlimit="10" stroke-linecap="round" stroke-linejoin="round"/>
<path d="M32.2021 8.59901L32.3115 8.0267L32.6169 7.87895C32.642 7.86668 32.6705 7.86376 32.6978 7.87136C32.8502 7.9134 33.3901 8.05823 33.5448 8.0997C33.5698 8.1067 33.5873 8.1289 33.5879 8.15518L33.5978 8.70588C33.5978 8.73157 33.6152 8.75376 33.6397 8.76077L36.7538 9.6607L36.5094 9.84757L33.3278 8.93305C33.3028 8.92604 33.2859 8.90268 33.2859 8.87698V8.29533C33.2859 8.26847 33.2673 8.24453 33.2412 8.23869L32.3109 8.02728" stroke="white" stroke-width="0.3" stroke-miterlimit="10" stroke-linecap="round" stroke-linejoin="round"/>
<path d="M33.5871 8.1543L33.2852 8.29387" stroke="white" stroke-width="0.3" stroke-miterlimit="10" stroke-linecap="round" stroke-linejoin="round"/>
<path d="M33.5947 8.58766C33.5947 8.5935 34.415 8.10938 34.415 8.10938" stroke="white" stroke-width="0.3" stroke-miterlimit="10" stroke-linecap="round" stroke-linejoin="round"/>
<path d="M33.7549 7.26758C33.7002 7.27926 32.6973 7.87142 32.6973 7.87142" stroke="white" stroke-width="0.3" stroke-miterlimit="10" stroke-linecap="round" stroke-linejoin="round"/>
<path d="M34.489 7.5C34.4663 7.52862 33.4785 8.08107 33.4785 8.08107" stroke="white" stroke-width="0.3" stroke-miterlimit="10" stroke-linecap="round" stroke-linejoin="round"/>
<path d="M36.0655 9.46151C36.0742 9.46385 36.5664 9.11345 36.5664 9.11345C36.5664 9.11345 36.3395 8.97096 36.368 8.96512C36.3965 8.95928 37.4576 8.24857 37.4576 8.24857L36.9457 8.11133L36.7729 8.22521C36.7729 8.22521 36.998 8.28652 36.9812 8.27835C36.9643 8.27017 36.6065 8.52654 36.6065 8.52654L36.4151 8.46055L36.2493 8.58961C36.2493 8.58961 36.4506 8.64101 36.4151 8.64626C36.3796 8.65152 35.3691 9.26003 35.3691 9.26003" stroke="white" stroke-width="0.3" stroke-miterlimit="10" stroke-linecap="round" stroke-linejoin="round"/>
<path d="M32.3055 8.0625L31.939 8.27858L31.3736 8.11155L31.1182 8.27858" stroke="white" stroke-width="0.3" stroke-miterlimit="10" stroke-linecap="round" stroke-linejoin="round"/>
<path d="M37.4573 8.24805C37.4305 8.26615 37.4119 8.5488 37.4119 8.5488L36.5381 9.09483" stroke="white" stroke-width="0.3" stroke-miterlimit="10" stroke-linecap="round" stroke-linejoin="round"/>
<path d="M28.9893 11.6162L29.1353 11.538L29.1184 11.378L29.4715 11.1806C29.4715 11.1806 29.5297 11.3873 29.5408 11.378C29.5518 11.3686 30.3017 10.9412 30.3017 10.9412L30.3133 10.5137L31.1307 10.7957V11.211L30.2749 11.6513L30.3523 11.6676V11.7856L30.0597 11.9847" stroke="white" stroke-width="0.3" stroke-miterlimit="10" stroke-linecap="round" stroke-linejoin="round"/>
<path d="M31.1309 11.1478C31.157 11.125 31.9034 10.6602 31.9034 10.6602" stroke="white" stroke-width="0.3" stroke-miterlimit="10" stroke-linecap="round" stroke-linejoin="round"/>
<path d="M31.9728 10.7651V10.6781L31.0723 10.4316" stroke="white" stroke-width="0.3" stroke-miterlimit="10" stroke-linecap="round" stroke-linejoin="round"/>
<path d="M31.5406 10.3561C31.5237 10.3328 31.2637 10.2598 31.2637 10.2598" stroke="white" stroke-width="0.3" stroke-miterlimit="10" stroke-linecap="round" stroke-linejoin="round"/>
<path d="M31.3533 10.4169L31.0723 10.334" stroke="white" stroke-width="0.3" stroke-miterlimit="10" stroke-linecap="round" stroke-linejoin="round"/>
<path d="M32.8307 10.2235C32.8092 10.2054 32.69 10.1973 32.69 10.1973L31.9727 10.6785" stroke="white" stroke-width="0.3" stroke-miterlimit="10" stroke-linecap="round" stroke-linejoin="round"/>
<path d="M30.4618 11.2631C30.4618 11.231 30.4618 11.1907 30.463 11.1586C30.4641 11.1265 30.4374 11.0996 30.4048 11.0996H30.3687C30.3367 11.0996 30.3105 11.1259 30.3105 11.158V11.2631C30.3105 11.2952 30.3367 11.3215 30.3687 11.3215H30.4036C30.4356 11.3215 30.4618 11.2952 30.4618 11.2631Z" stroke="white" stroke-width="0.3" stroke-miterlimit="10" stroke-linecap="round" stroke-linejoin="round"/>
<path d="M30.8034 11.0466C30.8394 11.0466 30.8686 11.0016 30.8686 10.9461C30.8686 10.8907 30.8394 10.8457 30.8034 10.8457C30.7675 10.8457 30.7383 10.8907 30.7383 10.9461C30.7383 11.0016 30.7675 11.0466 30.8034 11.0466Z" stroke="white" stroke-width="0.3" stroke-miterlimit="10" stroke-linecap="round" stroke-linejoin="round"/>
<path d="M31.8435 9.71066C31.8795 9.71066 31.9086 9.66569 31.9086 9.61021C31.9086 9.55474 31.8795 9.50977 31.8435 9.50977C31.8075 9.50977 31.7783 9.55474 31.7783 9.61021C31.7783 9.66569 31.8075 9.71066 31.8435 9.71066Z" stroke="white" stroke-width="0.3" stroke-miterlimit="10" stroke-linecap="round" stroke-linejoin="round"/>
<path d="M31.6062 9.6423C31.6422 9.6423 31.6713 9.59733 31.6713 9.54185C31.6713 9.48638 31.6422 9.44141 31.6062 9.44141C31.5702 9.44141 31.541 9.48638 31.541 9.54185C31.541 9.59733 31.5702 9.6423 31.6062 9.6423Z" stroke="white" stroke-width="0.3" stroke-miterlimit="10" stroke-linecap="round" stroke-linejoin="round"/>
<path d="M30.4636 10.9411C30.4996 10.9411 30.5287 10.8962 30.5287 10.8407C30.5287 10.7852 30.4996 10.7402 30.4636 10.7402C30.4276 10.7402 30.3984 10.7852 30.3984 10.8407C30.3984 10.8962 30.4276 10.9411 30.4636 10.9411Z" stroke="white" stroke-width="0.3" stroke-miterlimit="10" stroke-linecap="round" stroke-linejoin="round"/>
<path d="M31.1313 11.2093C31.1022 11.1958 30.3018 10.9395 30.3018 10.9395" stroke="white" stroke-width="0.3" stroke-miterlimit="10" stroke-linecap="round" stroke-linejoin="round"/>
<path d="M27.5561 10.9981C27.6145 10.9981 27.662 10.9767 27.662 10.9502C27.662 10.9238 27.6145 10.9023 27.5561 10.9023C27.4976 10.9023 27.4502 10.9238 27.4502 10.9502C27.4502 10.9767 27.4976 10.9981 27.5561 10.9981Z" stroke="white" stroke-width="0.3" stroke-miterlimit="10" stroke-linecap="round" stroke-linejoin="round"/>
<path d="M30.0744 10.4171C30.1037 10.4171 30.1274 10.3823 30.1274 10.3394C30.1274 10.2965 30.1037 10.2617 30.0744 10.2617C30.0452 10.2617 30.0215 10.2965 30.0215 10.3394C30.0215 10.3823 30.0452 10.4171 30.0744 10.4171Z" stroke="white" stroke-width="0.3" stroke-miterlimit="10" stroke-linecap="round" stroke-linejoin="round"/>
<path d="M30.5805 9.32509C30.6358 9.32509 30.6806 9.30522 30.6806 9.28071C30.6806 9.2562 30.6358 9.23633 30.5805 9.23633C30.5253 9.23633 30.4805 9.2562 30.4805 9.28071C30.4805 9.30522 30.5253 9.32509 30.5805 9.32509Z" stroke="white" stroke-width="0.3" stroke-miterlimit="10" stroke-linecap="round" stroke-linejoin="round"/>
<path d="M30.7559 9.67105C30.858 9.60681 30.9071 9.5009 30.8657 9.4345C30.8242 9.36809 30.7078 9.36633 30.6057 9.43057C30.5037 9.4948 30.4545 9.60071 30.496 9.66712C30.5374 9.73352 30.6538 9.73528 30.7559 9.67105Z" stroke="white" stroke-width="0.3" stroke-miterlimit="10" stroke-linecap="round" stroke-linejoin="round"/>
<path d="M30.7861 10.1131L30.9798 10.0004C31.0025 9.98756 31.0136 9.96128 31.0083 9.93558C31.0002 9.89821 30.9595 9.87835 30.9251 9.89412L30.7268 9.98698C30.7012 9.99924 30.6872 10.0273 30.6942 10.0553L30.6988 10.0752C30.7081 10.1143 30.7523 10.133 30.7867 10.1125L30.7861 10.1131Z" stroke="white" stroke-width="0.3" stroke-miterlimit="10" stroke-linecap="round" stroke-linejoin="round"/>
<path d="M32.5457 9.50117C32.5213 9.50934 22.635 6.3634 22.635 6.3634L6.54785 1.30664" stroke="white" stroke-width="0.3" stroke-miterlimit="10" stroke-linecap="round" stroke-linejoin="round"/>
<path d="M29.4004 11.7497L29.3905 11.6925C29.3864 11.6691 29.3975 11.6452 29.4172 11.6329L29.6505 11.4898L29.647 11.4484C29.6441 11.4174 29.6598 11.3877 29.6872 11.3719C29.7326 11.3456 29.7907 11.3707 29.8035 11.4215L29.8059 11.4315C29.8524 11.4163 29.9007 11.4478 29.9059 11.4963L29.91 11.5377C29.9141 11.5745 29.8908 11.609 29.8553 11.6195C29.8198 11.63 29.7814 11.6429 29.7814 11.6499C29.7814 11.6627 29.7855 11.8893 29.7855 11.8893" stroke="white" stroke-width="0.3" stroke-miterlimit="10" stroke-linecap="round" stroke-linejoin="round"/>
<path d="M33.2597 8.34961C33.2481 8.36246 33.0649 8.47341 32.9543 8.53941C32.9008 8.57153 32.8589 8.62 32.8351 8.67781L32.7949 8.77475" stroke="white" stroke-width="0.3" stroke-miterlimit="10" stroke-linecap="round" stroke-linejoin="round"/>
<path d="M33.128 8.22461L32.7802 8.48156C32.7406 8.51076 32.7086 8.54989 32.6882 8.59486L32.6289 8.72509" stroke="white" stroke-width="0.3" stroke-miterlimit="10" stroke-linecap="round" stroke-linejoin="round"/>
<path d="M32.8787 8.16992L32.6647 8.35738C32.6082 8.40644 32.5611 8.46542 32.525 8.53141L32.4482 8.67157" stroke="white" stroke-width="0.3" stroke-miterlimit="10" stroke-linecap="round" stroke-linejoin="round"/>
<path d="M32.6519 8.11133C32.6396 8.12126 32.5169 8.2509 32.4483 8.3239C32.4174 8.3566 32.3924 8.39398 32.3738 8.43486L32.2871 8.62524" stroke="white" stroke-width="0.3" stroke-miterlimit="10" stroke-linecap="round" stroke-linejoin="round"/>
<path d="M32.6898 9.84579C32.6682 9.85806 32.46 9.75586 32.46 9.75586" stroke="white" stroke-width="0.3" stroke-miterlimit="10" stroke-linecap="round" stroke-linejoin="round"/>
<path d="M17.7988 5.09375L30.3297 9.14254" stroke="white" stroke-width="0.3" stroke-miterlimit="10" stroke-linecap="round" stroke-linejoin="round"/>
<path d="M17.8877 4.91208L17.5358 4.84375L17.4444 4.86302L17.2821 4.91733L17.0675 4.98916L17.0506 5.07443L16.6521 5.2029L16.4549 5.30043L16.1908 5.40496L15.9354 5.4108L15.1477 5.69696C15.1448 5.69754 15.1419 5.69929 15.139 5.70046C15.1076 5.71331 15.0395 5.81609 15.0098 5.82602C14.6771 5.93814 13.812 6.23014 13.7969 6.23364L13.9731 6.31482C13.9731 6.31482 14.7736 6.02458 15.0284 5.92471C15.075 5.90661 15.2204 5.90895 15.2204 5.90895L15.8487 5.69521C15.8487 5.69521 16.0331 5.59242 16.0273 5.57958C16.0209 5.56673 16.502 5.40671 16.502 5.40671H16.6527C16.6527 5.40671 17.1536 5.25488 17.178 5.2467C17.2024 5.23794 17.2728 5.24261 17.2728 5.24261L17.3031 5.3489H17.3921L17.4072 5.22801L17.5881 5.1737C17.5881 5.1737 17.8732 5.06742 17.8889 5.06333C17.9046 5.05924 17.8889 4.91383 17.8889 4.91383L17.8877 4.91208Z" stroke="white" stroke-width="0.3" stroke-miterlimit="10" stroke-linecap="round" stroke-linejoin="round"/>
<path d="M17.3324 4.90059C17.3149 4.90643 10.2519 2.66041 9.13494 2.30534C9.03662 2.27381 8.9354 2.25278 8.83243 2.24227L8.50781 2.20898" stroke="white" stroke-width="0.3" stroke-miterlimit="10" stroke-linecap="round" stroke-linejoin="round"/>
<path d="M6.76304 1.37564C6.74385 1.3698 6.67578 1.37564 6.67578 1.37564V1.76399L7.25637 2.00168" stroke="white" stroke-width="0.3" stroke-miterlimit="10" stroke-linecap="round" stroke-linejoin="round"/>
<path d="M8.50747 1.92441C8.51154 1.95536 8.50747 2.27539 8.50747 2.27539L8.32422 2.30692V1.92383H8.50747V1.92441Z" stroke="white" stroke-width="0.3" stroke-miterlimit="10" stroke-linecap="round" stroke-linejoin="round"/>
<path d="M8.14634 2.13464C8.17268 2.13464 8.19404 2.10013 8.19404 2.05756C8.19404 2.01498 8.17268 1.98047 8.14634 1.98047C8.11999 1.98047 8.09863 2.01498 8.09863 2.05756C8.09863 2.10013 8.11999 2.13464 8.14634 2.13464Z" stroke="white" stroke-width="0.3" stroke-miterlimit="10" stroke-linecap="round" stroke-linejoin="round"/>
<path d="M7.6545 2.00143C7.68374 2.00143 7.70744 1.96613 7.70744 1.92259C7.70744 1.87905 7.68374 1.84375 7.6545 1.84375C7.62526 1.84375 7.60156 1.87905 7.60156 1.92259C7.60156 1.96613 7.62526 2.00143 7.6545 2.00143Z" stroke="white" stroke-width="0.3" stroke-miterlimit="10" stroke-linecap="round" stroke-linejoin="round"/>
<path d="M7.25991 1.81253C7.27887 1.81253 7.29423 1.78848 7.29423 1.75881C7.29423 1.72913 7.27887 1.70508 7.25991 1.70508C7.24095 1.70508 7.22559 1.72913 7.22559 1.75881C7.22559 1.78848 7.24095 1.81253 7.25991 1.81253Z" stroke="white" stroke-width="0.3" stroke-miterlimit="10" stroke-linecap="round" stroke-linejoin="round"/>
<path d="M7.46196 1.91769C7.46196 1.90367 7.42648 1.89258 7.38343 1.89258C7.34038 1.89258 7.30489 1.90367 7.30489 1.91769L7.25195 2.08588C7.25195 2.10165 7.31129 2.11508 7.38401 2.11508C7.45673 2.11508 7.51607 2.10223 7.51607 2.08588L7.46313 1.91769H7.46196Z" stroke="white" stroke-width="0.3" stroke-miterlimit="10" stroke-linecap="round" stroke-linejoin="round"/>
<path d="M36.0645 10.8691L36.431 10.6209V10.5782L36.303 10.6127L36.3501 10.0526L36.431 9.97613L36.4135 9.84766L36.2308 9.97613L36.218 10.1256L36.2902 10.0783L36.2221 10.6682L36.0645 10.8434V10.8691Z" stroke="white" stroke-width="0.15" stroke-miterlimit="10"/>
<path d="M31.7443 13.8346C31.7612 13.8346 32.1998 13.5228 32.1998 13.5228V13.4761L32.1166 13.5041C32.0771 13.5175 32.0369 13.486 32.0404 13.4445L32.0736 12.9972C32.0753 12.9727 32.0852 12.9487 32.1009 12.93L32.1742 12.8436L32.1649 12.728C32.1632 12.7075 32.1417 12.6953 32.123 12.704L31.9916 12.7677C31.9543 12.7858 31.9293 12.8226 31.9258 12.8641L31.9159 12.9943C31.9148 13.006 31.9264 13.0153 31.9375 13.0118C31.9782 12.999 32.0178 13.0328 32.0125 13.0749L31.9596 13.4936C31.952 13.5549 31.9253 13.6121 31.8828 13.6571L31.7432 13.806V13.8358L31.7443 13.8346Z" stroke="white" stroke-width="0.15" stroke-miterlimit="10"/>
<path d="M31.1758 13.627L31.7447 13.8337" stroke="white" stroke-width="0.15" stroke-miterlimit="10"/>
<path d="M29.6172 13.0605L30.2757 13.3" stroke="white" stroke-width="0.15" stroke-miterlimit="10"/>
<path d="M28.4912 12.6523L29.2766 12.9373" stroke="white" stroke-width="0.15" stroke-miterlimit="10"/>
<path d="M2.67369 3.30421L2.4375 3.2207" stroke="white" stroke-width="0.15" stroke-miterlimit="10"/>
<path d="M3.81235 3.71076L3.33008 3.53906" stroke="white" stroke-width="0.15" stroke-miterlimit="10"/>
<path d="M4.92445 4.10522L4.5498 3.97266" stroke="white" stroke-width="0.15" stroke-miterlimit="10"/>
<path d="M6.15011 4.54081L5.65039 4.36328" stroke="white" stroke-width="0.15" stroke-miterlimit="10"/>
<path d="M7.42857 4.99637L7.12431 4.88599L6.67578 4.72656" stroke="white" stroke-width="0.15" stroke-miterlimit="10"/>
<path d="M8.75593 5.47862L8.19629 5.27539" stroke="white" stroke-width="0.15" stroke-miterlimit="10"/>
<path d="M10.1142 5.97254L9.53418 5.76172" stroke="white" stroke-width="0.15" stroke-miterlimit="10"/>
<path d="M11.5521 6.49465L11.0029 6.29492" stroke="white" stroke-width="0.15" stroke-miterlimit="10"/>
<path d="M13.1248 7.06679L12.4785 6.83203" stroke="white" stroke-width="0.15" stroke-miterlimit="10"/>
<path d="M14.716 7.644L13.7969 7.31055" stroke="white" stroke-width="0.15" stroke-miterlimit="10"/>
<path d="M16.4733 8.2834L15.667 7.99023" stroke="white" stroke-width="0.15" stroke-miterlimit="10"/>
<path d="M18.3123 8.95207L17.4443 8.63672" stroke="white" stroke-width="0.15" stroke-miterlimit="10"/>
<path d="M20.4132 9.71543L19.2881 9.30664" stroke="white" stroke-width="0.15" stroke-miterlimit="10"/>
<path d="M22.6001 10.5108L21.3936 10.0723" stroke="white" stroke-width="0.15" stroke-miterlimit="10"/>
<path d="M24.9425 11.3619L23.6621 10.8965" stroke="white" stroke-width="0.15" stroke-miterlimit="10"/>
<path d="M27.6614 12.3492L26.0127 11.75" stroke="white" stroke-width="0.15" stroke-miterlimit="10"/>
<path d="M32.1462 12.702L24.1332 9.94556L1.88238 2.23633H1.71949C1.69331 2.23633 1.67062 2.25385 1.66364 2.27896L1.64677 2.33969C1.64328 2.35196 1.64852 2.36481 1.65899 2.37181L1.73927 2.42437L1.76545 2.73155C1.76778 2.75725 1.75265 2.78119 1.72938 2.79053L1.57812 2.85127V2.91551L1.85329 3.01303" stroke="white" stroke-width="0.15" stroke-miterlimit="10"/>
<path d="M1.73926 2.42383L31.9385 13.0092" stroke="white" stroke-width="0.15" stroke-miterlimit="10"/>
<path d="M2.03452 2.90081L1.72852 2.79102" stroke="white" stroke-width="0.15" stroke-miterlimit="10"/>
<path d="M2.83778 3.1881L2.36133 3.01758" stroke="white" stroke-width="0.15" stroke-miterlimit="10"/>
<path d="M4.01861 3.61092L3.18555 3.3125" stroke="white" stroke-width="0.15" stroke-miterlimit="10"/>
<path d="M5.13841 4.01152L4.15234 3.6582" stroke="white" stroke-width="0.15" stroke-miterlimit="10"/>
<path d="M6.35444 4.44811L5.4248 4.11523" stroke="white" stroke-width="0.15" stroke-miterlimit="10"/>
<path d="M7.6549 4.91306L6.49023 4.49609" stroke="white" stroke-width="0.15" stroke-miterlimit="10"/>
<path d="M8.98656 5.39077L7.96094 5.02344" stroke="white" stroke-width="0.15" stroke-miterlimit="10"/>
<path d="M10.3472 5.87707L9.30469 5.50391" stroke="white" stroke-width="0.15" stroke-miterlimit="10"/>
<path d="M11.7875 6.39476L10.5117 5.9375" stroke="white" stroke-width="0.15" stroke-miterlimit="10"/>
<path d="M13.3748 6.96256L11.957 6.45508" stroke="white" stroke-width="0.15" stroke-miterlimit="10"/>
<path d="M14.9026 7.50838L13.7461 7.09375" stroke="white" stroke-width="0.15" stroke-miterlimit="10"/>
<path d="M16.6519 8.13558L15.3721 7.67773" stroke="white" stroke-width="0.15" stroke-miterlimit="10"/>
<path d="M18.5858 8.8286L17.1885 8.32812" stroke="white" stroke-width="0.15" stroke-miterlimit="10"/>
<path d="M20.7031 9.58665L19.0107 8.98047" stroke="white" stroke-width="0.15" stroke-miterlimit="10"/>
<path d="M22.8433 10.3521L21.1289 9.73828" stroke="white" stroke-width="0.15" stroke-miterlimit="10"/>
<path d="M25.2555 11.2165L23.3643 10.5391" stroke="white" stroke-width="0.15" stroke-miterlimit="10"/>
<path d="M27.9811 12.1922L25.7041 11.377" stroke="white" stroke-width="0.15" stroke-miterlimit="10"/>
<path d="M29.5409 12.7515L28.2168 12.2773" stroke="white" stroke-width="0.15" stroke-miterlimit="10"/>
<path d="M31.9227 13.6044L29.918 12.8867" stroke="white" stroke-width="0.15" stroke-miterlimit="10"/>
<path d="M30.1526 13.2559C30.1479 13.2541 28.0664 14.6294 28.092 14.6294C28.1176 14.6294 29.284 15.1083 29.3096 15.0908C29.3352 15.0732 31.39 13.7055 31.39 13.7055" stroke="white" stroke-width="0.15" stroke-miterlimit="10"/>
<path d="M35.7542 10.7656L32.0723 13.3416" stroke="white" stroke-width="0.15" stroke-miterlimit="10"/>
<path d="M28.092 14.6292L27.8447 15.8428L29.3997 16.4752L37.4564 10.7206V9.57422L36.3255 10.3655" stroke="white" stroke-width="0.15" stroke-miterlimit="10"/>
<path d="M28.9167 12.8066C27.6776 13.5722 26.6653 14.2006 26.6618 14.2105C26.6531 14.2362 26.7299 15.3984 26.7299 15.3984L29.182 13.8" stroke="white" stroke-width="0.15" stroke-miterlimit="10"/>
<path d="M33.4129 10.0391C33.4007 10.0432 31.8131 11.019 30.1807 12.0258" stroke="white" stroke-width="0.15" stroke-miterlimit="10"/>
<path d="M28.6055 11.4853L30.6806 10.2461" stroke="white" stroke-width="0.15" stroke-miterlimit="10"/>
<path d="M24.7348 11.6523C23.4852 12.3362 22.7889 12.7012 22.7889 12.7012L22.6016 13.6899L23.9553 14.2622L27.3475 12.2363" stroke="white" stroke-width="0.15" stroke-miterlimit="10"/>
<path d="M28.9174 9.35352C28.8965 9.36111 27.7004 10.0134 26.3984 10.7253" stroke="white" stroke-width="0.15" stroke-miterlimit="10"/>
<path d="M26.2979 10.6912C27.6865 9.93907 28.939 9.23828 28.939 9.23828" stroke="white" stroke-width="0.15" stroke-miterlimit="10"/>
<path d="M22.3712 10.8203L20.4643 11.7816L20.3281 12.7516C20.3281 12.7516 21.5457 13.2748 21.5713 13.255C21.5835 13.2456 23.1287 12.4076 24.8728 11.4627" stroke="white" stroke-width="0.15" stroke-miterlimit="10"/>
<path d="M27.2277 8.38477L24.1299 9.94051" stroke="white" stroke-width="0.15" stroke-miterlimit="10"/>
<path d="M30.282 8.03187L30.1948 7.58804L29.3093 7.33984L28.8154 7.58804" stroke="white" stroke-width="0.15" stroke-miterlimit="10"/>
<path d="M20.2354 9.96094L18.2674 10.8685L18.1562 11.8169L19.3058 12.3127L22.4193 10.7522" stroke="white" stroke-width="0.15" stroke-miterlimit="10"/>
<path d="M24.6108 7.98633L21.958 9.19168" stroke="white" stroke-width="0.15" stroke-miterlimit="10"/>
<path d="M28.2235 7.42217L28.1775 7.01513L27.3346 6.75L26.79 6.99761" stroke="white" stroke-width="0.15" stroke-miterlimit="10"/>
<path d="M18.0829 9.25977L16.2324 10.04L16.1475 11.0001L17.2115 11.4503L18.2517 11.0001" stroke="white" stroke-width="0.15" stroke-miterlimit="10"/>
<path d="M22.6532 7.33203L19.9189 8.48482" stroke="white" stroke-width="0.15" stroke-miterlimit="10"/>
<path d="M26.21 6.80989V6.44198L25.3333 6.20312L24.8271 6.41628" stroke="white" stroke-width="0.15" stroke-miterlimit="10"/>
<path d="M36.4138 9.84749L21.8375 5.53006L7.10352 0.960938" stroke="white" stroke-width="0.15" stroke-miterlimit="10"/>
<path d="M34.348 10.3151C33.5463 10.0564 32.7656 9.80469 32.7656 9.80469" stroke="white" stroke-width="0.15" stroke-miterlimit="10"/>
<path d="M36.0644 10.8683C36.0562 10.8654 35.7217 10.7579 35.2686 10.6113" stroke="white" stroke-width="0.15" stroke-miterlimit="10"/>
<path d="M36.2181 10.1252L7.03809 1.18555" stroke="white" stroke-width="0.15" stroke-miterlimit="10"/>
<path d="M34.6082 10.1545L32.5791 9.50977" stroke="white" stroke-width="0.15" stroke-miterlimit="10"/>
<path d="M36.2223 10.6681L35.085 10.3066" stroke="white" stroke-width="0.15" stroke-miterlimit="10"/>
<path d="M25.4951 12.207L25.2228 12.3437C25.2228 12.3437 25.2356 12.7712 25.2228 12.7753C25.21 12.7793 23.9092 13.4848 23.9151 13.5017C23.9209 13.5187 23.9546 14.2621 23.9546 14.2621" stroke="white" stroke-width="0.15" stroke-miterlimit="10"/>
<path d="M22.7881 12.7L23.4652 12.9353L24.7463 12.2305L25.2233 12.3426" stroke="white" stroke-width="0.15" stroke-miterlimit="10"/>
<path d="M23.9145 13.5008L23.4648 12.9355" stroke="white" stroke-width="0.15" stroke-miterlimit="10"/>
<path d="M25.2231 12.7742L24.7461 12.2305" stroke="white" stroke-width="0.15" stroke-miterlimit="10"/>
<path d="M26.7295 15.3976C26.708 15.3888 25.3077 14.8165 25.3164 14.7996C25.3252 14.7826 25.4741 13.791 25.495 13.7782C25.516 13.7653 27.5096 12.5605 27.5096 12.5605" stroke="white" stroke-width="0.15" stroke-miterlimit="10"/>
<path d="M26.6615 14.2109L25.4951 13.7793" stroke="white" stroke-width="0.15" stroke-miterlimit="10"/>
<path d="M17.2118 11.4497C17.2118 11.4497 17.0868 10.4073 17.1042 10.3956C17.1217 10.3839 19.4696 9.37305 19.4696 9.37305" stroke="white" stroke-width="0.15" stroke-miterlimit="10"/>
<path d="M24.1131 7.35156L20.8105 8.7946" stroke="white" stroke-width="0.15" stroke-miterlimit="10"/>
<path d="M26.1798 6.43359L25.6777 6.66777" stroke="white" stroke-width="0.15" stroke-miterlimit="10"/>
<path d="M19.306 12.3133L19.2036 11.2108L18.2676 10.8691" stroke="white" stroke-width="0.15" stroke-miterlimit="10"/>
<path d="M28.1775 7.01387C28.1508 7.00569 27.6621 7.25447 27.6621 7.25447" stroke="white" stroke-width="0.15" stroke-miterlimit="10"/>
<path d="M30.1951 7.58789L29.7285 7.86762" stroke="white" stroke-width="0.15" stroke-miterlimit="10"/>
<path d="M26.0672 8L22.8926 9.51603" stroke="white" stroke-width="0.15" stroke-miterlimit="10"/>
<path d="M28.139 8.68752C28.1186 8.6811 25.0918 10.2754 25.0918 10.2754" stroke="white" stroke-width="0.15" stroke-miterlimit="10"/>
<path d="M21.5709 13.2552L21.4604 12.1334L20.4639 11.7812" stroke="white" stroke-width="0.15" stroke-miterlimit="10"/>
<path d="M23.8079 10.9492L21.46 12.133" stroke="white" stroke-width="0.15" stroke-miterlimit="10"/>
<path d="M19.2041 11.2101C19.2553 11.2101 21.5707 10.1367 21.5707 10.1367" stroke="white" stroke-width="0.15" stroke-miterlimit="10"/>
<path d="M16.2082 10.3235L15.3647 10.6908L14.335 10.2499L14.4286 9.31319L16.2582 8.58203" stroke="white" stroke-width="0.15" stroke-miterlimit="10"/>
<path d="M24.4133 6.29271C24.4133 6.29271 24.3976 5.91721 24.3807 5.91721C24.3638 5.91721 23.5808 5.68945 23.5808 5.68945L23.0537 5.88976" stroke="white" stroke-width="0.15" stroke-miterlimit="10"/>
<path d="M23.873 6.13346L24.3798 5.91797" stroke="white" stroke-width="0.15" stroke-miterlimit="10"/>
<path d="M22.7063 5.78731V5.43751L21.9581 5.20508L21.4316 5.40363" stroke="white" stroke-width="0.15" stroke-miterlimit="10"/>
<path d="M22.1787 5.63138L22.7058 5.4375" stroke="white" stroke-width="0.15" stroke-miterlimit="10"/>
<path d="M31.0166 8.24917C31.0306 8.25326 31.4686 7.96886 31.4855 7.9747C31.5024 7.98054 32.1452 8.15106 32.1452 8.15106" stroke="white" stroke-width="0.15" stroke-miterlimit="10"/>
<path d="M22.2875 6.74609C22.2636 6.77821 19.0303 8.12255 19.0303 8.12255" stroke="white" stroke-width="0.15" stroke-miterlimit="10"/>
<path d="M20.9275 6.67578C20.9048 6.69505 18.209 7.83149 18.209 7.83149" stroke="white" stroke-width="0.15" stroke-miterlimit="10"/>
<path d="M20.6003 6.20312L17.3018 7.51009" stroke="white" stroke-width="0.15" stroke-miterlimit="10"/>
<path d="M19.2487 6.17578C19.2284 6.18746 16.5244 7.2328 16.5244 7.2328" stroke="white" stroke-width="0.15" stroke-miterlimit="10"/>
<path d="M21.0953 5.30022C21.0854 5.2973 21.0604 4.94924 21.0604 4.94924C21.0604 4.94924 20.328 4.73842 20.328 4.74426C20.328 4.7501 19.8428 4.91186 19.8428 4.91186" stroke="white" stroke-width="0.15" stroke-miterlimit="10"/>
<path d="M20.5576 5.13376C20.5716 5.13785 21.0597 4.94922 21.0597 4.94922" stroke="white" stroke-width="0.15" stroke-miterlimit="10"/>
<path d="M19.5445 4.81862C19.5347 4.8157 19.5085 4.51553 19.5085 4.51553L18.8523 4.31055L18.3799 4.45771" stroke="white" stroke-width="0.15" stroke-miterlimit="10"/>
<path d="M19.0303 4.65929C19.0629 4.66921 19.5085 4.51562 19.5085 4.51562" stroke="white" stroke-width="0.15" stroke-miterlimit="10"/>
<path d="M19.03 5.66414C18.9951 5.65246 15.6855 6.93549 15.6855 6.93549" stroke="white" stroke-width="0.15" stroke-miterlimit="10"/>
<path d="M17.656 5.67969C17.6106 5.69662 14.9375 6.66721 14.9375 6.66721" stroke="white" stroke-width="0.15" stroke-miterlimit="10"/>
<path d="M18.0749 4.3627V4.07713C18.0749 4.07713 17.4339 3.87215 17.417 3.88325C17.4001 3.89434 16.9824 4.02399 16.9824 4.02399" stroke="white" stroke-width="0.15" stroke-miterlimit="10"/>
<path d="M17.6406 4.22938L18.0746 4.07812" stroke="white" stroke-width="0.15" stroke-miterlimit="10"/>
<path d="M16.7097 3.93932C16.7073 3.90603 16.6678 3.6666 16.6678 3.6666L16.0721 3.49023L15.6357 3.60645" stroke="white" stroke-width="0.15" stroke-miterlimit="10"/>
<path d="M16.2842 3.80871L16.6676 3.66797" stroke="white" stroke-width="0.15" stroke-miterlimit="10"/>
<path d="M15.3734 3.52525C15.3565 3.51999 15.3396 3.27413 15.3396 3.27413C15.3396 3.27413 14.7719 3.08609 14.755 3.09193C14.7381 3.09777 14.335 3.20347 14.335 3.20347" stroke="white" stroke-width="0.15" stroke-miterlimit="10"/>
<path d="M14.9375 3.38965C14.9614 3.39724 15.3389 3.27344 15.3389 3.27344" stroke="white" stroke-width="0.15" stroke-miterlimit="10"/>
<path d="M14.1091 3.13304L14.0567 2.90353C14.0567 2.90353 13.5116 2.73242 13.4947 2.73242C13.4779 2.73242 13.1143 2.82469 13.1143 2.82469" stroke="white" stroke-width="0.15" stroke-miterlimit="10"/>
<path d="M13.6826 3.00182C13.6983 3.00649 14.0555 2.9043 14.0555 2.9043" stroke="white" stroke-width="0.15" stroke-miterlimit="10"/>
<path d="M12.8648 2.74829V2.54564C12.8648 2.54564 12.3308 2.36344 12.3134 2.36928C12.2959 2.37512 11.916 2.45454 11.916 2.45454" stroke="white" stroke-width="0.15" stroke-miterlimit="10"/>
<path d="M12.5566 2.65238L12.865 2.54492" stroke="white" stroke-width="0.15" stroke-miterlimit="10"/>
<path d="M11.7522 2.40178C11.7475 2.40003 11.7522 2.20789 11.7522 2.20789L11.2245 2.05664L10.8877 2.13314" stroke="white" stroke-width="0.15" stroke-miterlimit="10"/>
<path d="M10.5738 2.03716C10.5657 2.00387 10.5261 1.84386 10.5261 1.84386C10.5261 1.84386 10.0665 1.70137 10.0491 1.70721C10.0316 1.71305 9.78613 1.79305 9.78613 1.79305" stroke="white" stroke-width="0.15" stroke-miterlimit="10"/>
<path d="M9.6944 1.76417V1.59949L9.19816 1.44531L8.91602 1.52298" stroke="white" stroke-width="0.15" stroke-miterlimit="10"/>
<path d="M11.7525 2.20898L11.4453 2.30709" stroke="white" stroke-width="0.15" stroke-miterlimit="10"/>
<path d="M10.5261 1.84375L10.2725 1.94303" stroke="white" stroke-width="0.15" stroke-miterlimit="10"/>
<path d="M9.69374 1.59961L9.4209 1.6802" stroke="white" stroke-width="0.15" stroke-miterlimit="10"/>
<path d="M17.2764 5.27344L14.1611 6.3836" stroke="white" stroke-width="0.15" stroke-miterlimit="10"/>
<path d="M16.0269 4.69531C15.9635 4.73269 12.7109 5.85044 12.7109 5.85044" stroke="white" stroke-width="0.15" stroke-miterlimit="10"/>
<path d="M14.6811 4.74414C14.6357 4.74998 12.0312 5.60085 12.0312 5.60085" stroke="white" stroke-width="0.15" stroke-miterlimit="10"/>
<path d="M14.681 4.26173C14.67 4.25822 11.3418 5.34678 11.3418 5.34678" stroke="white" stroke-width="0.15" stroke-miterlimit="10"/>
<path d="M13.3195 4.26758C13.291 4.27926 10.6504 5.09334 10.6504 5.09334" stroke="white" stroke-width="0.15" stroke-miterlimit="10"/>
<path d="M13.3559 3.83595C13.3442 3.83186 10.0195 4.8626 10.0195 4.8626" stroke="white" stroke-width="0.15" stroke-miterlimit="10"/>
<path d="M9.39355 4.63502C9.41333 4.64261 12.0923 3.83203 12.0923 3.83203" stroke="white" stroke-width="0.15" stroke-miterlimit="10"/>
<path d="M8.78418 4.41238C8.82258 4.42639 12.1228 3.43945 12.1228 3.43945" stroke="white" stroke-width="0.15" stroke-miterlimit="10"/>
<path d="M13.4189 6.10976C13.4492 6.12086 16.0927 5.17188 16.0927 5.17188" stroke="white" stroke-width="0.15" stroke-miterlimit="10"/>
<path d="M8.19629 4.19894C8.23294 4.18083 10.831 3.4707 10.831 3.4707" stroke="white" stroke-width="0.15" stroke-miterlimit="10"/>
<path d="M7.62109 3.98909C7.65425 3.96982 10.9406 3.06055 10.9406 3.06055" stroke="white" stroke-width="0.15" stroke-miterlimit="10"/>
<path d="M6.53809 3.59314C6.58753 3.57037 9.84941 2.70898 9.84941 2.70898" stroke="white" stroke-width="0.15" stroke-miterlimit="10"/>
<path d="M7.03809 3.77533L9.63095 3.05469" stroke="white" stroke-width="0.15" stroke-miterlimit="10"/>
<path d="M6.01465 3.40371C6.03094 3.37801 8.54759 2.70117 8.54759 2.70117" stroke="white" stroke-width="0.15" stroke-miterlimit="10"/>
<path d="M5.40137 3.15024C5.41824 3.1479 8.57656 2.34375 8.57656 2.34375" stroke="white" stroke-width="0.15" stroke-miterlimit="10"/>
<path d="M4.89062 2.95303C4.91331 2.95537 7.3142 2.33984 7.3142 2.33984" stroke="white" stroke-width="0.15" stroke-miterlimit="10"/>
<path d="M4.55469 2.8585C4.60123 2.82989 7.30637 2.1875 7.30637 2.1875" stroke="white" stroke-width="0.15" stroke-miterlimit="10"/>
<path d="M4.0957 2.65319C4.13003 2.6602 6.45412 2.08789 6.45412 2.08789" stroke="white" stroke-width="0.15" stroke-miterlimit="10"/>
<path d="M17.5835 8.68754C17.5626 8.67995 15.2629 9.65521 15.2629 9.65521L14.4287 9.31358" stroke="white" stroke-width="0.15" stroke-miterlimit="10"/>
<path d="M15.3645 10.6917L15.2627 9.65625" stroke="white" stroke-width="0.15" stroke-miterlimit="10"/>
<path d="M14.5384 7.94336C14.4959 7.96321 12.7588 8.57757 12.742 8.62546C12.7251 8.67335 12.6826 9.53823 12.6826 9.53823L13.6105 9.98907L14.3982 9.65561" stroke="white" stroke-width="0.15" stroke-miterlimit="10"/>
<path d="M12.9074 7.36914L11.1074 8.00043V8.8951L11.9958 9.28813L12.7107 9.02124" stroke="white" stroke-width="0.15" stroke-miterlimit="10"/>
<path d="M11.3234 6.79297C11.3234 6.79297 9.61766 7.40908 9.60952 7.4336C9.60137 7.45813 9.5752 8.27046 9.5752 8.27046L10.4437 8.62494L11.1075 8.38492" stroke="white" stroke-width="0.15" stroke-miterlimit="10"/>
<path d="M9.85909 6.27734L8.15398 6.85608C8.15398 6.85608 8.13711 7.62986 8.15398 7.65556C8.17085 7.68125 8.97134 8.00011 8.97134 8.00011L9.59265 7.77936" stroke="white" stroke-width="0.15" stroke-miterlimit="10"/>
<path d="M8.54377 5.71875L6.80957 6.29982V7.07185C6.80957 7.07185 7.57574 7.43451 7.60133 7.43334C7.62693 7.43217 8.14818 7.24938 8.14818 7.24938" stroke="white" stroke-width="0.15" stroke-miterlimit="10"/>
<path d="M15.8598 8.06055C15.8598 8.06055 13.5427 8.99376 13.5171 8.96515C13.4915 8.93653 12.7422 8.6241 12.7422 8.6241" stroke="white" stroke-width="0.15" stroke-miterlimit="10"/>
<path d="M13.6112 9.98936L13.5176 8.9668" stroke="white" stroke-width="0.15" stroke-miterlimit="10"/>
<path d="M14.194 7.45522C14.1591 7.44237 11.874 8.31894 11.874 8.31894L11.9962 9.28719" stroke="white" stroke-width="0.15" stroke-miterlimit="10"/>
<path d="M11.1074 8L11.8736 8.32003" stroke="white" stroke-width="0.15" stroke-miterlimit="10"/>
<path d="M12.6089 6.87891C12.5385 6.91103 10.3418 7.73679 10.3162 7.71693C10.2906 7.69707 9.60938 7.43311 9.60938 7.43311" stroke="white" stroke-width="0.15" stroke-miterlimit="10"/>
<path d="M10.4434 8.62432L10.3154 7.7168" stroke="white" stroke-width="0.15" stroke-miterlimit="10"/>
<path d="M11.1086 6.334C11.0993 6.33049 8.83455 7.11771 8.83455 7.11771L8.15332 6.8555" stroke="white" stroke-width="0.15" stroke-miterlimit="10"/>
<path d="M8.97109 8.00038L8.83496 7.11914" stroke="white" stroke-width="0.15" stroke-miterlimit="10"/>
<path d="M9.72316 5.83203L7.44736 6.53632L6.80859 6.30097" stroke="white" stroke-width="0.15" stroke-miterlimit="10"/>
<path d="M7.60027 7.43333L7.44727 6.53516" stroke="white" stroke-width="0.15" stroke-miterlimit="10"/>
<path d="M7.2085 5.27344C7.16603 5.27169 5.54004 5.7821 5.54004 5.7821V6.57982L6.27246 6.88058L6.80884 6.70188" stroke="white" stroke-width="0.15" stroke-miterlimit="10"/>
<path d="M8.36909 5.33984L6.12703 5.99216L5.54004 5.78192" stroke="white" stroke-width="0.15" stroke-miterlimit="10"/>
<path d="M6.27181 6.88043L6.12695 5.99219" stroke="white" stroke-width="0.15" stroke-miterlimit="10"/>
<path d="M5.9141 4.81445C5.9141 4.81445 4.33989 5.24135 4.33174 5.27405C4.3236 5.30676 4.33174 6.07762 4.33174 6.07762L5.02112 6.38421L5.54062 6.20435" stroke="white" stroke-width="0.15" stroke-miterlimit="10"/>
<path d="M7.03852 4.86353C7.01525 4.84835 4.89012 5.53512 4.89012 5.53512L4.33105 5.27349" stroke="white" stroke-width="0.15" stroke-miterlimit="10"/>
<path d="M5.02094 6.38311L4.89062 5.53516" stroke="white" stroke-width="0.15" stroke-miterlimit="10"/>
<path d="M4.7061 4.36328C4.6549 4.39073 3.16504 4.80478 3.16504 4.80478V5.59374L3.85441 5.85012L4.33145 5.72397" stroke="white" stroke-width="0.15" stroke-miterlimit="10"/>
<path d="M5.89287 4.44922C5.80444 4.49302 3.74388 5.03146 3.71014 5.02328C3.6764 5.0151 3.16504 4.80487 3.16504 4.80487" stroke="white" stroke-width="0.15" stroke-miterlimit="10"/>
<path d="M3.85482 5.85037L3.70996 5.02344" stroke="white" stroke-width="0.15" stroke-miterlimit="10"/>
<path d="M3.61488 3.97266L2.10059 4.36334L2.13491 5.17217L2.79054 5.40401L3.16519 5.31408" stroke="white" stroke-width="0.15" stroke-miterlimit="10"/>
<path d="M4.70563 4.0274C4.68701 4.02097 2.61133 4.59562 2.61133 4.59562L2.78993 5.40386" stroke="white" stroke-width="0.15" stroke-miterlimit="10"/>
<path d="M2.10059 4.36328L2.61194 4.59571" stroke="white" stroke-width="0.15" stroke-miterlimit="10"/>
<path d="M2.44237 3.55859C2.44237 3.55859 1.00195 3.89789 1.00195 3.92651C1.00195 3.95512 1.03628 4.69562 1.03628 4.69562L1.67911 4.93797L2.11891 4.80483" stroke="white" stroke-width="0.15" stroke-miterlimit="10"/>
<path d="M3.53431 3.61142C3.51162 3.60325 1.47899 4.123 1.47899 4.123L1.00195 3.92561" stroke="white" stroke-width="0.15" stroke-miterlimit="10"/>
<path d="M1.67961 4.93771L1.47949 4.12305" stroke="white" stroke-width="0.15" stroke-miterlimit="10"/>
<path d="M1.63849 3.23047L0.202148 3.61123L0.244616 4.34939L0.832184 4.59525L1.02882 4.52984" stroke="white" stroke-width="0.15" stroke-miterlimit="10"/>
<path d="M2.51751 3.33594L0.661731 3.80838L0.202148 3.61216" stroke="white" stroke-width="0.15" stroke-miterlimit="10"/>
<path d="M0.832562 4.59639L0.662109 3.80859" stroke="white" stroke-width="0.15" stroke-miterlimit="10"/>
<path d="M8.41074 5.86682L8.8517 6.02567L9.55737 5.77046L9.36306 5.6998L9.30198 5.49832L9.14491 5.43701L9.14665 5.40255C9.1484 5.3716 9.17399 5.34707 9.20483 5.34707H9.30663L9.30256 5.17188H9.14665C9.0972 5.17188 9.05357 5.20341 9.0367 5.25013L8.98725 5.39145C8.91395 5.36518 8.83193 5.38853 8.78306 5.44927L8.41016 5.86741L8.41074 5.86682Z" stroke="white" stroke-width="0.15" stroke-miterlimit="10"/>
<path d="M8.85156 6.0248L9.09473 5.682C9.13255 5.60141 9.20003 5.53776 9.28322 5.50564L9.30242 5.49805" stroke="white" stroke-width="0.15" stroke-miterlimit="10"/>
<path d="M9.78223 6.36898L10.2953 6.54827L11.0027 6.30066L10.738 6.20313L10.6828 6.02676L10.5106 5.96194L10.5123 5.92515C10.5141 5.89186 10.4972 5.83814 10.4437 5.83288C10.3407 5.82237 10.3372 5.91289 10.3372 5.91289C10.2569 5.88486 10.1668 5.90938 10.1127 5.97421L9.78223 6.36957V6.36898Z" stroke="white" stroke-width="0.15" stroke-miterlimit="10"/>
<path d="M10.2949 6.54885L10.4543 6.2224C10.4962 6.13655 10.5701 6.06997 10.6614 6.03552L10.6824 6.02734" stroke="white" stroke-width="0.15" stroke-miterlimit="10"/>
<path d="M3.54941 4.05878L3.90602 4.1896L4.55002 3.97235L4.33652 3.88651L4.29172 3.73175L4.15268 3.67452L4.15385 3.6424C4.15501 3.6132 4.14163 3.5659 4.098 3.56123C4.01481 3.55247 4.0119 3.6313 4.0119 3.6313C3.94675 3.60678 3.87403 3.62838 3.8304 3.68503L3.54883 4.05878H3.54941Z" stroke="white" stroke-width="0.15" stroke-miterlimit="10"/>
<path d="M3.90625 4.19027L4.10754 3.90353C4.14128 3.8282 4.2012 3.7698 4.2745 3.73943L4.29137 3.73242" stroke="white" stroke-width="0.15" stroke-miterlimit="10"/>
<path d="M11.2236 6.92313L11.7396 7.11935L12.4849 6.83612L12.1864 6.74677L12.1294 6.5488L11.9561 6.47755L11.9578 6.43784C11.9595 6.40163 11.9427 6.34265 11.8886 6.33681C11.785 6.32571 11.7815 6.42441 11.7815 6.42441C11.7007 6.39404 11.6099 6.4209 11.5558 6.49098L11.2236 6.92372V6.92313Z" stroke="white" stroke-width="0.15" stroke-miterlimit="10"/>
<path d="M11.7393 7.11938L11.8998 6.76198C11.9417 6.66855 12.0162 6.59496 12.1081 6.55759L12.1296 6.54883" stroke="white" stroke-width="0.15" stroke-miterlimit="10"/>
<path d="M27.2803 12.8825L27.9179 13.1423L28.748 12.7639L28.4956 12.6711L28.4292 12.3627L28.2245 12.3026C28.2245 12.3026 28.1808 12.1478 28.1139 12.1402C27.9859 12.1256 27.9696 12.2196 27.9696 12.2196C27.8696 12.1793 27.7579 12.215 27.691 12.3084L27.2803 12.8825Z" stroke="white" stroke-width="0.15" stroke-miterlimit="10"/>
<path d="M27.9189 13.1423L28.1173 12.6687C28.1691 12.5443 28.2494 12.448 28.3622 12.3983L28.4303 12.3633" stroke="white" stroke-width="0.15" stroke-miterlimit="10"/>
<path d="M24.5791 11.8658L25.2022 12.1169L26.0131 11.7513L25.7665 11.6614L25.7019 11.3636L25.5018 11.3052C25.5018 11.3052 25.4593 11.1557 25.3941 11.1481C25.2691 11.1335 25.2533 11.2251 25.2533 11.2251C25.1556 11.186 25.0462 11.2205 24.9811 11.311L24.5797 11.8652L24.5791 11.8658Z" stroke="white" stroke-width="0.15" stroke-miterlimit="10"/>
<path d="M25.2021 12.1166L25.3959 11.6588C25.4465 11.5385 25.5244 11.4456 25.6356 11.3972L25.7019 11.3633" stroke="white" stroke-width="0.15" stroke-miterlimit="10"/>
<path d="M22.2344 11.0084L22.8574 11.2595L23.6684 10.8939L23.4217 10.804L23.3572 10.5061L23.157 10.4477C23.157 10.4477 23.1146 10.2982 23.0494 10.2906C22.9243 10.276 22.9086 10.3677 22.9086 10.3677C22.8109 10.3286 22.7015 10.3631 22.6364 10.4536L22.235 11.0078L22.2344 11.0084Z" stroke="white" stroke-width="0.15" stroke-miterlimit="10"/>
<path d="M22.8574 11.2592L23.0511 10.8014C23.1018 10.6811 23.1797 10.5882 23.2908 10.5397L23.3571 10.5059" stroke="white" stroke-width="0.15" stroke-miterlimit="10"/>
<path d="M20.0703 10.1892L20.655 10.4252L21.4159 10.0824L21.1844 9.99826L21.1239 9.71911L20.9365 9.66422C20.9365 9.66422 20.897 9.52406 20.8353 9.51705C20.7178 9.50362 20.7033 9.58947 20.7033 9.58947C20.6113 9.55268 20.509 9.58479 20.4479 9.66947L20.0715 10.1898L20.0703 10.1892Z" stroke="white" stroke-width="0.15" stroke-miterlimit="10"/>
<path d="M20.6553 10.4254L20.8368 9.99556C20.8845 9.88285 20.9578 9.79584 21.0613 9.75029L21.1236 9.71875" stroke="white" stroke-width="0.15" stroke-miterlimit="10"/>
<path d="M17.9766 9.41742L18.5478 9.64751L19.2913 9.3123L19.065 9.22996L19.0057 8.95665L18.8224 8.90293C18.8224 8.90293 18.7834 8.76627 18.7235 8.75927C18.6089 8.74583 18.5944 8.82993 18.5944 8.82993C18.5048 8.79431 18.4047 8.82584 18.3448 8.90818L17.9771 9.41684L17.9766 9.41742Z" stroke="white" stroke-width="0.15" stroke-miterlimit="10"/>
<path d="M18.5479 9.64789L18.7253 9.228C18.7718 9.11821 18.8434 9.03237 18.9446 8.98798L19.0051 8.95703" stroke="white" stroke-width="0.15" stroke-miterlimit="10"/>
<path d="M16.1475 8.73383L16.7187 8.96392L17.4622 8.62871L17.2359 8.54637L17.1766 8.27306L16.9933 8.21933C16.9933 8.21933 16.9543 8.08268 16.8944 8.07567C16.7798 8.06224 16.7653 8.14634 16.7653 8.14634C16.6757 8.11071 16.5756 8.14225 16.5157 8.22459L16.148 8.73324L16.1475 8.73383Z" stroke="white" stroke-width="0.15" stroke-miterlimit="10"/>
<path d="M16.7188 8.9643L16.8962 8.54441C16.9427 8.43462 17.0143 8.34877 17.1155 8.30439L17.176 8.27344" stroke="white" stroke-width="0.15" stroke-miterlimit="10"/>
<path d="M14.3896 8.09671L14.9446 8.32038L15.6672 7.9951L15.4473 7.91509L15.3897 7.64996L15.2117 7.59798C15.2117 7.59798 15.1738 7.46483 15.1157 7.45841C15.0046 7.44556 14.99 7.52674 14.99 7.52674C14.9028 7.4917 14.8056 7.52265 14.7474 7.60324L14.3902 8.09729L14.3896 8.09671Z" stroke="white" stroke-width="0.15" stroke-miterlimit="10"/>
<path d="M14.9443 8.32081L15.1165 7.91319C15.1619 7.80632 15.2311 7.72339 15.33 7.68017L15.3888 7.65039" stroke="white" stroke-width="0.15" stroke-miterlimit="10"/>
<path d="M12.8184 7.49242L13.3332 7.70032L14.004 7.39839L13.7998 7.32423L13.7463 7.07778L13.581 7.02931C13.581 7.02931 13.5461 6.90609 13.492 6.89967C13.3885 6.88799 13.3757 6.96332 13.3757 6.96332C13.2948 6.9312 13.2046 6.95923 13.1505 7.03399L12.8189 7.49242H12.8184Z" stroke="white" stroke-width="0.15" stroke-miterlimit="10"/>
<path d="M13.333 7.70066L13.493 7.32223C13.5349 7.22295 13.5994 7.14587 13.6908 7.10616L13.7455 7.07812" stroke="white" stroke-width="0.15" stroke-miterlimit="10"/>
<path d="M2.38281 3.62272L2.71557 3.75587L3.32757 3.53804L3.16468 3.48023L3.18505 3.31321L3.02797 3.25714C3.02797 3.25714 3.02157 3.16604 2.95758 3.15903C2.89359 3.15202 2.86683 3.19174 2.86683 3.19174C2.81796 3.17188 2.72197 3.24371 2.68881 3.28868L2.38281 3.6233V3.62272Z" stroke="white" stroke-width="0.15" stroke-miterlimit="10"/>
<path d="M2.71582 3.75516L2.89267 3.49237C2.89267 3.49237 2.99681 3.36214 3.0544 3.34287C3.0864 3.33236 3.18529 3.3125 3.18529 3.3125" stroke="white" stroke-width="0.15" stroke-miterlimit="10"/>
<path d="M1.56152 3.32032L1.86752 3.43887L2.44288 3.21929L2.34805 3.18951L2.36201 3.01139L2.20843 2.95825C2.20843 2.95825 2.20203 2.8724 2.13978 2.86598C2.07754 2.85955 2.05078 2.89693 2.05078 2.89693C2.00249 2.87824 1.90883 2.94598 1.87683 2.98861L1.56152 3.32032Z" stroke="white" stroke-width="0.15" stroke-miterlimit="10"/>
<path d="M1.86719 3.4392L2.07545 3.18108C2.07545 3.18108 2.17726 3.05844 2.23369 3.04033C2.2651 3.03041 2.36168 3.01172 2.36168 3.01172" stroke="white" stroke-width="0.15" stroke-miterlimit="10"/>
<path d="M7.10352 5.3817L7.52354 5.53471L8.20535 5.27892L8.01686 5.21059L7.95752 5.01496L7.80511 4.95539L7.80685 4.9221C7.80802 4.89173 7.83303 4.86779 7.86328 4.86779H7.96218L7.95811 4.69727H7.80685C7.75915 4.69727 7.7161 4.72763 7.70039 4.77318L7.65211 4.91042C7.58113 4.88473 7.50143 4.9075 7.45373 4.96648L7.10352 5.3817Z" stroke="white" stroke-width="0.15" stroke-miterlimit="10"/>
<path d="M7.52344 5.53596L7.75614 5.19491C7.79337 5.11666 7.85853 5.05475 7.93881 5.02322L7.95742 5.01562" stroke="white" stroke-width="0.15" stroke-miterlimit="10"/>
<path d="M5.83554 4.90976L6.19972 5.04525L6.86524 4.84027L6.68781 4.77253L6.63196 4.57923L6.48827 4.52024L6.49001 4.48696C6.49118 4.45717 6.51445 4.43381 6.54295 4.43381H6.63603L6.63196 4.26562H6.48943C6.44405 4.26562 6.40391 4.29541 6.38937 4.34038L6.34399 4.47586C6.27709 4.45075 6.20205 4.47294 6.15725 4.53134L5.83496 4.91035L5.83554 4.90976Z" stroke="white" stroke-width="0.15" stroke-miterlimit="10"/>
<path d="M6.2002 5.0461L6.44279 4.75644C6.47769 4.67877 6.53936 4.61804 6.61498 4.58709L6.63244 4.58008" stroke="white" stroke-width="0.15" stroke-miterlimit="10"/>
<path d="M4.67832 4.40956L5.10474 4.56315L5.66031 4.36342L5.48288 4.29918L5.42703 4.11639L5.28334 4.06092L5.28508 4.02938C5.28625 4.00135 5.30952 3.97916 5.33802 3.97916H5.4311L5.42703 3.82031H5.2845C5.23912 3.82031 5.19898 3.84893 5.18444 3.89098L5.13906 4.01887C5.07216 3.99493 4.99712 4.01595 4.95232 4.07084L4.67773 4.40956H4.67832Z" stroke="white" stroke-width="0.15" stroke-miterlimit="10"/>
<path d="M5.10547 4.56199L5.23811 4.28226C5.27301 4.20867 5.33468 4.15144 5.41031 4.12224L5.42776 4.11523" stroke="white" stroke-width="0.15" stroke-miterlimit="10"/>
<path d="M30.1016 13.5291L30.8677 13.8024L31.1761 13.6272L31.0719 13.4094L30.3738 13.1699L30.1016 13.5291Z" stroke="white" stroke-width="0.15" stroke-miterlimit="10"/>
<path d="M30.8672 13.8032L31.0714 13.4102" stroke="white" stroke-width="0.15" stroke-miterlimit="10"/>
<path d="M35.0804 9.17828C35.0804 9.17828 35.1043 9.01184 35.0804 9.01768C35.0566 9.02352 34.0263 8.71576 34.0054 8.72686C33.9844 8.73795 33.8535 8.82321 33.8535 8.82321" stroke="white" stroke-width="0.15" stroke-miterlimit="10"/>
<path d="M7.51465 2.08789C7.54955 2.10599 8.05626 2.28528 8.05626 2.28528L8.32386 2.30864" stroke="white" stroke-width="0.15" stroke-miterlimit="10"/>
<path d="M10.0701 2.7793C10.0433 2.79623 9.89844 2.83886 9.89844 2.83886L10.1224 2.93289L10.3464 2.86806L10.0706 2.7793H10.0701Z" stroke="white" stroke-width="0.15" stroke-miterlimit="10"/>
<path d="M11.3198 3.19336C11.2826 3.20212 11.1162 3.27337 11.1162 3.27337L11.3198 3.33176C11.3198 3.33176 11.5921 3.26869 11.574 3.26285C11.556 3.25701 11.3198 3.19394 11.3198 3.19394V3.19336Z" stroke="white" stroke-width="0.15" stroke-miterlimit="10"/>
<path d="M9.89844 2.83984V2.95314L10.1224 3.0273V2.93387" stroke="white" stroke-width="0.15" stroke-miterlimit="10"/>
<path d="M11.3199 3.33258C11.3164 3.3612 11.3199 3.44004 11.3199 3.44004L11.7149 3.30864L11.5747 3.26367" stroke="white" stroke-width="0.15" stroke-miterlimit="10"/>
<path d="M10.1226 3.02799L10.5037 2.91995L10.3466 2.86914L10.1191 2.93688L10.1226 3.02799Z" stroke="white" stroke-width="0.15" stroke-miterlimit="10"/>
<path d="M9.00776 2.43761C9.00078 2.43527 8.81113 2.47148 8.81113 2.47148L9.02812 2.56959L9.26373 2.51995L9.40917 2.58069L9.02172 2.66186L8.81055 2.58302V2.47206" stroke="white" stroke-width="0.15" stroke-miterlimit="10"/>
<path d="M9.02886 2.57031L9.02246 2.662" stroke="white" stroke-width="0.15" stroke-miterlimit="10"/>
<path d="M9.69412 2.67543C9.67783 2.67777 9.0222 2.83544 9.0222 2.83544C9.0222 2.83544 8.69002 2.8845 8.68362 2.88216C8.67722 2.87983 8.41602 2.79048 8.41602 2.79048L8.69642 2.59834L8.81102 2.57031" stroke="white" stroke-width="0.15" stroke-miterlimit="10"/>
<path d="M9.56804 2.61917C9.56106 2.61684 8.97233 2.74239 8.97233 2.74239L8.68262 2.88314" stroke="white" stroke-width="0.15" stroke-miterlimit="10"/>
<path d="M8.69629 2.59766L8.9732 2.74073" stroke="white" stroke-width="0.15" stroke-miterlimit="10"/>
<path d="M7.41754 2.22269C7.41115 2.21977 7.25 2.3903 7.25 2.3903C7.25 2.3903 7.48968 2.51235 7.49783 2.51002M7.49783 2.51002C7.50597 2.50768 7.75961 2.45045 7.75961 2.45045L7.87655 2.42475C7.87655 2.42475 7.75554 2.36811 7.7538 2.36752C7.75205 2.36694 7.49783 2.51002 7.49783 2.51002Z" stroke="white" stroke-width="0.15" stroke-miterlimit="10"/>
<path d="M6.63833 1.89453C6.62553 1.89804 6.42773 2.11645 6.42773 2.11645L6.6616 2.2093C6.6616 2.2093 7.13398 2.11703 7.13223 2.11645C7.13049 2.11586 6.95771 2.02534 6.95131 2.02242C6.94491 2.0195 6.66218 2.2093 6.66218 2.2093" stroke="white" stroke-width="0.15" stroke-miterlimit="10"/>
<path d="M12.4674 3.55469C12.4534 3.56462 12.3196 3.60433 12.3167 3.61601C12.3138 3.62769 12.3167 3.76142 12.3167 3.76142L12.5296 3.83617L12.9194 3.69601L12.4674 3.55469Z" stroke="white" stroke-width="0.15" stroke-miterlimit="10"/>
<path d="M13.6834 3.96724C13.709 3.94913 13.4873 4.03965 13.4873 4.03965V4.15937L13.9981 4.31062L14.3983 4.17105L13.6828 3.96724H13.6834Z" stroke="white" stroke-width="0.15" stroke-miterlimit="10"/>
<path d="M15.148 4.41211L14.9561 4.4962V4.63403L15.2754 4.7263C15.2754 4.7263 15.6798 4.58263 15.6681 4.57913L15.148 4.41211Z" stroke="white" stroke-width="0.15" stroke-miterlimit="10"/>
<path d="M16.6113 4.90039C16.5944 4.91616 16.4112 4.96755 16.4071 4.9804C16.403 4.99324 16.4071 5.12114 16.4071 5.12114L16.6514 5.20231L16.6671 5.06975" stroke="white" stroke-width="0.15" stroke-miterlimit="10"/>
<path d="M18.1231 5.36914C18.1022 5.39484 17.9404 5.47192 17.9404 5.47192L17.9573 5.60098L18.2511 5.6915C18.2511 5.6915 18.6403 5.53558 18.624 5.53032L18.1231 5.36914Z" stroke="white" stroke-width="0.15" stroke-miterlimit="10"/>
<path d="M19.7072 5.88867C19.681 5.90736 19.5088 5.96693 19.5088 5.96693V6.0954L19.8433 6.20227L20.2185 6.05861L19.7072 5.88867Z" stroke="white" stroke-width="0.15" stroke-miterlimit="10"/>
<path d="M21.1507 6.36914L21.0088 6.45557V6.6004C21.0088 6.6004 21.6557 6.83925 21.6685 6.83341C21.6813 6.82757 22.0158 6.65646 22.0007 6.65121L21.1507 6.36914Z" stroke="white" stroke-width="0.15" stroke-miterlimit="10"/>
<path d="M23.1596 7.03516C23.1381 7.03924 23.0264 7.08538 23.0264 7.08538V7.20218L23.3411 7.33065C23.3411 7.33065 23.6733 7.20568 23.6605 7.20159L23.159 7.03516H23.1596Z" stroke="white" stroke-width="0.15" stroke-miterlimit="10"/>
<path d="M25.0659 7.66797C25.0403 7.68958 25.002 7.71819 25.002 7.71819V7.83207L25.3167 7.94361C25.3167 7.94361 25.5837 7.84025 25.5599 7.83207L25.0659 7.66797Z" stroke="white" stroke-width="0.15" stroke-miterlimit="10"/>
<path d="M27.0703 8.33398V8.53663L27.4234 8.65226C27.4234 8.65226 27.7225 8.55064 27.7073 8.54539L27.0703 8.33398Z" stroke="white" stroke-width="0.15" stroke-miterlimit="10"/>
<path d="M29.0672 9.01816C29.0632 9.03101 29.0672 9.17701 29.0672 9.17701L30.0167 9.48068L30.0248 9.31249L29.0672 9.01758V9.01816Z" stroke="white" stroke-width="0.15" stroke-miterlimit="10"/>
<path d="M27.4238 8.65011V8.44922" stroke="white" stroke-width="0.15" stroke-miterlimit="10"/>
<path d="M27.0702 8.38477C27.0358 8.39411 26.7467 8.49164 26.7467 8.49164L26.6152 8.79589C26.6152 8.79589 27.0876 9.03942 27.1004 9.01781C27.1132 8.9962 27.5135 8.91094 27.5263 8.90218C27.5391 8.89342 28.0306 8.65048 28.0289 8.6499L27.8724 8.59792C27.8619 8.59442 27.5065 8.77429 27.5065 8.77429C27.4879 8.7737 26.7467 8.49047 26.7467 8.49047" stroke="white" stroke-width="0.15" stroke-miterlimit="10"/>
<path d="M29.0651 9.14258L28.9394 9.23777L28.8789 9.55429C28.8789 9.55429 29.4287 9.74525 29.4415 9.73649C29.4543 9.72773 29.8615 9.68102 29.8615 9.68102" stroke="white" stroke-width="0.15" stroke-miterlimit="10"/>
<path d="M29.9319 9.61145C29.9127 9.60152 28.9395 9.23828 28.9395 9.23828" stroke="white" stroke-width="0.15" stroke-miterlimit="10"/>
<path d="M29.4414 9.73627L29.7544 9.54297" stroke="white" stroke-width="0.15" stroke-miterlimit="10"/>
<path d="M28.8789 9.5551C28.8969 9.52765 29.022 9.26953 29.022 9.26953" stroke="white" stroke-width="0.15" stroke-miterlimit="10"/>
<path d="M27.1006 9.01833L27.5066 8.77539L27.5258 8.9027" stroke="white" stroke-width="0.15" stroke-miterlimit="10"/>
<path d="M25.9426 7.97456C25.9211 7.97631 25.3847 8.22568 25.3847 8.22568L25.0013 8.29517L24.5586 8.1118C24.5586 8.1118 24.6616 7.85193 24.6802 7.84784C24.6988 7.84375 25.0484 7.66797 25.0484 7.66797" stroke="white" stroke-width="0.15" stroke-miterlimit="10"/>
<path d="M25.8005 7.91131C25.7808 7.92883 25.402 8.11454 25.3892 8.12213C25.3764 8.12972 24.6807 7.84766 24.6807 7.84766" stroke="white" stroke-width="0.15" stroke-miterlimit="10"/>
<path d="M25.3853 8.22641L25.3894 8.12305L25.002 8.29591" stroke="white" stroke-width="0.15" stroke-miterlimit="10"/>
<path d="M25.002 7.7168C25.0276 7.7314 25.3295 7.84644 25.3295 7.84644L25.3167 7.94222" stroke="white" stroke-width="0.15" stroke-miterlimit="10"/>
<path d="M25.4517 7.79688L25.3301 7.84885" stroke="white" stroke-width="0.15" stroke-miterlimit="10"/>
<path d="M23.4859 7.14726C23.4732 7.15134 23.3242 7.18346 23.3242 7.18346L23.0264 7.08594" stroke="white" stroke-width="0.15" stroke-miterlimit="10"/>
<path d="M23.9461 7.33156C23.9246 7.3228 23.3929 7.54121 23.376 7.55347C23.3591 7.56574 22.963 7.63873 22.963 7.63873L22.5674 7.46996C22.5674 7.46996 22.746 7.18089 22.7588 7.18322C22.7716 7.18556 23.0537 7.07227 23.0537 7.07227" stroke="white" stroke-width="0.15" stroke-miterlimit="10"/>
<path d="M23.8448 7.26373C23.8344 7.26022 23.3841 7.42257 23.3841 7.42257L22.9629 7.63923" stroke="white" stroke-width="0.15" stroke-miterlimit="10"/>
<path d="M22.7588 7.18359L23.3848 7.42244" stroke="white" stroke-width="0.15" stroke-miterlimit="10"/>
<path d="M19.5088 5.9668L19.8637 6.08651L20.0812 6.0141" stroke="white" stroke-width="0.15" stroke-miterlimit="10"/>
<path d="M21.0088 6.45508L21.7028 6.66765L21.85 6.60049" stroke="white" stroke-width="0.15" stroke-miterlimit="10"/>
<path d="M19.8428 6.20352L19.8631 6.08789" stroke="white" stroke-width="0.15" stroke-miterlimit="10"/>
<path d="M21.6689 6.83324L21.7033 6.66797" stroke="white" stroke-width="0.15" stroke-miterlimit="10"/>
<path d="M17.9395 5.47266L18.2635 5.57369L18.488 5.48784" stroke="white" stroke-width="0.15" stroke-miterlimit="10"/>
<path d="M18.25 5.69082L18.2634 5.57227" stroke="white" stroke-width="0.15" stroke-miterlimit="10"/>
<path d="M16.4072 4.97968C16.4311 4.96684 16.6667 5.06962 16.6667 5.06962L16.9104 4.97852" stroke="white" stroke-width="0.15" stroke-miterlimit="10"/>
<path d="M22.1786 6.74561C22.1536 6.74561 21.5876 6.98855 21.5701 6.99731C21.5527 7.00607 21.1914 7.08315 21.1745 7.07206C21.1576 7.06096 20.8086 6.93599 20.8086 6.93599L20.9465 6.63406L21.0087 6.59961" stroke="white" stroke-width="0.15" stroke-miterlimit="10"/>
<path d="M22.097 6.68324C22.0778 6.67681 21.5792 6.8999 21.5792 6.8999L20.9463 6.63477" stroke="white" stroke-width="0.15" stroke-miterlimit="10"/>
<path d="M21.1748 7.07188L21.5791 6.89844" stroke="white" stroke-width="0.15" stroke-miterlimit="10"/>
<path d="M20.4692 6.14452C20.4471 6.15971 19.8607 6.41608 19.8432 6.41608C19.8257 6.41608 19.4854 6.48849 19.4726 6.48441C19.4598 6.48032 19.0852 6.38922 19.098 6.36819C19.1108 6.34717 19.3022 6.11007 19.3022 6.11007L19.5087 6.02539" stroke="white" stroke-width="0.15" stroke-miterlimit="10"/>
<path d="M20.3732 6.11138C20.3627 6.10787 19.8682 6.293 19.8537 6.31461C19.8392 6.33621 19.4727 6.48571 19.4727 6.48571" stroke="white" stroke-width="0.15" stroke-miterlimit="10"/>
<path d="M19.3018 6.11133L19.8527 6.31456" stroke="white" stroke-width="0.15" stroke-miterlimit="10"/>
<path d="M18.8761 5.63158C18.8418 5.64676 18.2333 5.88853 18.2333 5.88853C18.2333 5.88853 17.8854 5.97555 17.8574 5.96679C17.8295 5.95803 17.5352 5.82605 17.5352 5.82605L17.7394 5.5726L17.9395 5.49609" stroke="white" stroke-width="0.15" stroke-miterlimit="10"/>
<path d="M18.7701 5.57811C18.7655 5.57635 18.2134 5.78659 18.2134 5.78659L17.7393 5.57227" stroke="white" stroke-width="0.15" stroke-miterlimit="10"/>
<path d="M17.8574 5.96698L18.214 5.78711" stroke="white" stroke-width="0.15" stroke-miterlimit="10"/>
<path d="M16.4052 5.02291C16.3773 5.01123 16.2284 5.07546 16.2115 5.07138C16.1946 5.06729 15.9648 5.30088 15.9648 5.30088L16.0701 5.40542" stroke="white" stroke-width="0.15" stroke-miterlimit="10"/>
<path d="M12.3164 3.61523L12.5567 3.71451L12.7766 3.64677" stroke="white" stroke-width="0.15" stroke-miterlimit="10"/>
<path d="M13.4873 4.04102L13.9934 4.19869L14.2145 4.11985" stroke="white" stroke-width="0.15" stroke-miterlimit="10"/>
<path d="M14.9561 4.49805C14.9817 4.51615 15.3121 4.6055 15.3121 4.6055L15.5477 4.54593" stroke="white" stroke-width="0.15" stroke-miterlimit="10"/>
<path d="M13.9988 4.31056L13.9941 4.19727" stroke="white" stroke-width="0.15" stroke-miterlimit="10"/>
<path d="M12.5469 3.83631L12.5568 3.71484" stroke="white" stroke-width="0.15" stroke-miterlimit="10"/>
<path d="M15.9171 4.65999C15.8793 4.67692 15.2492 4.88891 15.2318 4.90059C15.2143 4.91227 14.8612 4.99111 14.853 4.97943C14.8449 4.96775 14.5977 4.86322 14.5977 4.86322C14.5977 4.86322 14.7763 4.65648 14.7937 4.63488C14.8112 4.61327 14.9554 4.55078 14.9554 4.55078" stroke="white" stroke-width="0.15" stroke-miterlimit="10"/>
<path d="M15.8064 4.62517C15.7884 4.61933 15.2706 4.76766 15.2578 4.7846C15.245 4.80153 14.8535 4.98023 14.8535 4.98023" stroke="white" stroke-width="0.15" stroke-miterlimit="10"/>
<path d="M14.7939 4.63477L15.2285 4.80179" stroke="white" stroke-width="0.15" stroke-miterlimit="10"/>
<path d="M14.5598 4.22953C14.5429 4.2418 13.9385 4.45554 13.921 4.46021C13.9036 4.46488 13.4952 4.50985 13.487 4.51744C13.4789 4.52503 13.2061 4.41407 13.2061 4.41407L13.3934 4.17464L13.487 4.125" stroke="white" stroke-width="0.15" stroke-miterlimit="10"/>
<path d="M14.4814 4.19894C14.468 4.19485 13.9305 4.3537 13.9131 4.36421C13.8956 4.37472 13.3936 4.17383 13.3936 4.17383" stroke="white" stroke-width="0.15" stroke-miterlimit="10"/>
<path d="M13.4873 4.51629L13.9126 4.36328" stroke="white" stroke-width="0.15" stroke-miterlimit="10"/>
<path d="M13.1681 3.77581C13.1431 3.79683 12.5474 4.01057 12.5474 4.01057L12.164 4.07773L11.9395 3.98838L12.1855 3.73785L12.3176 3.66602" stroke="white" stroke-width="0.15" stroke-miterlimit="10"/>
<path d="M13.0485 3.73847C13.0264 3.73146 12.5662 3.92359 12.5563 3.9271C12.5465 3.9306 12.1631 4.07835 12.1631 4.07835" stroke="white" stroke-width="0.15" stroke-miterlimit="10"/>
<path d="M12.1846 3.73828L12.5563 3.92633" stroke="white" stroke-width="0.15" stroke-miterlimit="10"/>
<path d="M11.9346 3.40192C11.895 3.40308 11.2766 3.58529 11.2772 3.5923C11.2778 3.5993 10.8874 3.66471 10.8874 3.66471L10.7158 3.5923L10.9072 3.35636L11.1161 3.27344V3.37505L11.3197 3.43871" stroke="white" stroke-width="0.15" stroke-miterlimit="10"/>
<path d="M11.8479 3.35226C11.806 3.33883 11.3017 3.52395 11.2766 3.52629C11.2516 3.52862 10.9072 3.35752 10.9072 3.35752" stroke="white" stroke-width="0.15" stroke-miterlimit="10"/>
<path d="M10.8877 3.66555L11.2775 3.52539" stroke="white" stroke-width="0.15" stroke-miterlimit="10"/>
<path d="M10.7604 3.00241C10.75 2.9989 10.1292 3.19512 10.1141 3.19512C10.099 3.19512 9.72317 3.27338 9.72608 3.26403C9.72899 3.25469 9.49454 3.15483 9.50734 3.15132C9.52014 3.14782 9.74993 2.95335 9.74993 2.95335L9.89886 2.9043" stroke="white" stroke-width="0.15" stroke-miterlimit="10"/>
<path d="M10.6505 2.96656C10.6325 2.96072 10.0996 3.14117 10.0822 3.13358C10.0647 3.12599 9.75 2.95312 9.75 2.95312" stroke="white" stroke-width="0.15" stroke-miterlimit="10"/>
<path d="M9.72559 3.26304L10.0816 3.13281" stroke="white" stroke-width="0.15" stroke-miterlimit="10"/>
</svg>
