<svg width="32" height="18" viewBox="0 0 32 18" fill="none" xmlns="http://www.w3.org/2000/svg">
<path d="M6.00781 1.07713L7.50432 0.622515C10.4581 0.49425 13.0144 4.03859 13.2123 8.53761C13.4102 13.0366 11.1744 16.7872 8.22068 16.9154L6.52464 16.6703" stroke="white" stroke-width="0.5" stroke-miterlimit="10" stroke-linecap="round" stroke-linejoin="round"/>
<path d="M13.2233 9.83076C13.2037 9.79341 17.3154 9.39238 18.6843 9.30796C20.1906 9.21541 24.7161 9.09364 24.7161 9.09364C24.7161 9.09364 25.4815 8.97024 25.4815 7.62102C25.4815 6.55107 24.4528 6.28966 24.3334 6.31402C24.214 6.33837 19.7049 6.69557 18.1577 6.76538C16.8754 6.82383 13.0254 6.87092 13.0254 6.87092" stroke="white" stroke-width="0.5" stroke-miterlimit="10" stroke-linecap="round" stroke-linejoin="round"/>
<path d="M2.15158 11.3067C2.77033 11.3067 3.27192 10.305 3.27192 9.06937C3.27192 7.83372 2.77033 6.83203 2.15158 6.83203C1.53284 6.83203 1.03125 7.83372 1.03125 9.06937C1.03125 10.305 1.53284 11.3067 2.15158 11.3067Z" stroke="white" stroke-width="0.5" stroke-miterlimit="10" stroke-linecap="round" stroke-linejoin="round"/>
<path d="M4.1286 8.38348C4.12696 8.20976 3.98631 8.0685 3.81131 8.06363L3.51691 8.05551C3.49074 7.94998 3.46294 7.84932 3.43023 7.7519C3.4335 7.44666 3.43677 7.18364 3.43677 6.9953C3.43677 6.81995 3.29775 6.67545 3.12112 6.67058L2.66644 6.65596C2.5356 6.57965 2.39494 6.53906 2.25102 6.53906C2.12508 6.53906 2.00405 6.57316 1.88793 6.62998L1.15031 6.60563C0.960589 6.59914 0.805214 6.75338 0.813391 6.94172C0.823205 7.19175 0.87227 7.55869 0.890261 7.97596H0.885354C0.79213 7.97271 0.713625 8.04902 0.716896 8.14157C0.728344 8.52474 0.74797 9.46156 0.756148 9.822C0.757784 9.90481 0.821569 9.97137 0.904981 9.97949L0.947504 9.98274C1.0211 10.4714 0.970402 10.9163 0.980215 11.1826C0.986757 11.3433 1.11106 11.4765 1.27297 11.4927C1.43653 11.5106 1.65896 11.5333 1.89611 11.5576C2.01059 11.6128 2.12835 11.6453 2.25102 11.6453C2.32134 11.6453 2.39004 11.6323 2.45709 11.6145C2.66808 11.6356 2.86761 11.6551 3.02625 11.6697C3.21598 11.6875 3.37953 11.5414 3.3828 11.3531C3.38607 11.1485 3.38934 10.866 3.39425 10.5396C3.4335 10.4325 3.46948 10.3204 3.50056 10.2019C3.60196 10.21 3.69682 10.2182 3.7786 10.2247C3.96668 10.2393 4.1286 10.0931 4.1286 9.90481C4.13187 9.48591 4.13514 8.78614 4.1286 8.38348Z" stroke="white" stroke-width="0.5" stroke-miterlimit="10" stroke-linecap="round" stroke-linejoin="round"/>
<path d="M4.02435 8.14899L7.17437 7.97852C7.60451 8.12139 7.53418 9.9512 7.28231 10.0097C7.24797 10.0178 3.90332 10.2094 3.90332 10.2094" stroke="white" stroke-width="0.5" stroke-miterlimit="10" stroke-linecap="round" stroke-linejoin="round"/>
<path d="M6.98578 10.0293C6.70284 11.1041 6.03391 12.0101 6.00774 12.0101C5.98157 12.0101 4.77782 12.1189 4.31333 12.1595C4.21684 12.1676 4.12689 12.1075 4.10235 12.0133V12.0085C4.07618 11.9159 3.98787 11.8559 3.89301 11.8624L2.80375 11.9484C2.4194 11.9809 2.04323 11.8315 1.78809 11.5457" stroke="white" stroke-width="0.5" stroke-miterlimit="10" stroke-linecap="round" stroke-linejoin="round"/>
<path d="M2.25098 6.53711H5.96035C5.96035 6.53711 6.6211 6.94626 6.94166 7.99186" stroke="white" stroke-width="0.5" stroke-miterlimit="10" stroke-linecap="round" stroke-linejoin="round"/>
<path d="M2.62695 6.53685C3.05546 3.42276 4.53888 1.13022 6.40174 1.04904C8.73727 0.94838 10.7849 4.36446 10.9747 8.68001C11.1644 12.9956 9.42419 16.5773 7.08866 16.6779C5.30758 16.7542 3.69495 14.788 2.94588 11.937" stroke="white" stroke-width="0.5" stroke-miterlimit="10" stroke-linecap="round" stroke-linejoin="round"/>
<path d="M3.64453 6.53711C4.25949 3.96369 5.9081 1.9017 8.33849 2.71188" stroke="white" stroke-width="0.5" stroke-miterlimit="10" stroke-linecap="round" stroke-linejoin="round"/>
<path d="M8.94863 15.0012C6.24184 16.1345 4.57034 14.3615 3.82617 11.918" stroke="white" stroke-width="0.5" stroke-miterlimit="10" stroke-linecap="round" stroke-linejoin="round"/>
<path d="M3.02344 6.51922C3.48138 3.89872 4.79307 1.93902 6.40243 1.8692C8.52534 1.77666 10.3849 4.88262 10.5583 8.80526C10.73 12.7279 9.15011 15.9816 7.0272 16.0742C5.43911 16.1424 3.99821 14.423 3.30148 11.9112" stroke="white" stroke-width="0.5" stroke-miterlimit="10" stroke-linecap="round" stroke-linejoin="round"/>
<path d="M6.18457 6.72835C6.33831 6.6082 6.5084 6.53838 6.69158 6.53189C7.42103 6.50266 8.05397 7.47845 8.10468 8.71402C8.15538 9.94797 7.60584 10.9741 6.8764 11.0033C6.77827 11.0066 6.68013 10.9936 6.58691 10.9611" stroke="white" stroke-width="0.5" stroke-miterlimit="10" stroke-linecap="round" stroke-linejoin="round"/>
<path d="M6.82227 6.5311C7.03652 6.16417 7.30965 5.94173 7.61386 5.93199C8.35639 5.90764 9.00078 7.15782 9.05149 8.72298C9.10219 10.2881 8.54284 11.5757 7.80031 11.6C7.48792 11.6098 7.19353 11.3954 6.95147 11.0253" stroke="white" stroke-width="0.5" stroke-miterlimit="10" stroke-linecap="round" stroke-linejoin="round"/>
<path d="M21.3721 6.53748C21.6354 3.99815 23.1613 2.01897 25.1354 1.88421C27.4431 1.72672 29.4924 4.15077 29.71 7.29733C29.9275 10.4439 28.2331 13.1245 25.9254 13.282C23.9529 13.4167 22.1702 11.6665 21.5569 9.19046" stroke="white" stroke-width="0.5" stroke-miterlimit="10" stroke-linecap="round" stroke-linejoin="round"/>
<path d="M20.7197 6.60241C20.9749 3.51593 22.841 1.07889 25.2681 0.913279C28.042 0.723316 30.4969 3.5695 30.7537 7.26971C31.0104 10.9699 28.9693 14.123 26.1971 14.3113C23.7471 14.4785 21.5457 12.2785 20.8882 9.21155" stroke="white" stroke-width="0.5" stroke-miterlimit="10" stroke-linecap="round" stroke-linejoin="round"/>
<path d="M23.4014 6.39683C23.6271 6.06724 23.9444 5.85292 24.3091 5.82856C25.0729 5.77661 25.7516 6.57705 25.8236 7.61616C25.8955 8.65527 25.3346 9.54014 24.5708 9.59372C24.1962 9.61969 23.843 9.4411 23.5715 9.12936" stroke="white" stroke-width="0.5" stroke-miterlimit="10" stroke-linecap="round" stroke-linejoin="round"/>
<path d="M28.0403 13.698C30.2139 12.7417 31.6678 10.1049 31.4601 7.11262C31.2083 3.47249 28.5963 0.686375 25.6262 0.889326C25.5641 0.894197 25.5019 0.900692 25.4414 0.907186" stroke="white" stroke-width="0.5" stroke-miterlimit="10" stroke-linecap="round" stroke-linejoin="round"/>
<path d="M23.9269 5.92925L24.5336 5.21324C26.0171 4.78623 27.0017 6.13058 27.1014 7.56909C27.2012 9.00599 26.0171 10.8212 24.725 10.2188C24.6351 10.1766 23.8369 9.36643 23.8369 9.36643" stroke="white" stroke-width="0.5" stroke-miterlimit="10" stroke-linecap="round" stroke-linejoin="round"/>
</svg>
