<svg width="32" height="21" viewBox="0 0 32 21" fill="none" xmlns="http://www.w3.org/2000/svg">
<path d="M0.512695 5.56055C0.622992 5.56055 7.76076 7.02874 7.78102 7.09384C7.80128 7.15894 8.21995 8.36448 8.21995 8.36448L15.5333 9.94042L16.7848 8.97734C16.7848 8.97734 28.3795 11.2111 28.3142 11.3211C28.2489 11.4311 27.3035 20.0606 27.2157 20.0382C27.1279 20.0157 0.512695 11.9362 0.512695 11.9362V5.56055Z" stroke="white" stroke-width="0.5" stroke-miterlimit="10" stroke-linecap="round" stroke-linejoin="round"/>
<path d="M10.7346 2.19815C11.1082 2.23631 12.2292 2.35978 12.5623 2.3957C12.6164 2.40244 12.6591 2.44734 12.6614 2.50122L12.6929 3.11408C12.6997 3.25552 12.5759 3.36776 12.434 3.34756L12.2607 3.32062C12.1234 3.30041 11.9996 3.40593 12.0019 3.54511C12.0131 4.44084 12.0536 7.31212 12.1077 7.31212C12.1729 7.31212 13.9534 8.34255 13.9534 8.34255V8.82521L9.69238 7.99234V7.55458C9.69238 7.55458 11.4054 7.31437 11.3828 7.24702C11.3648 7.1909 11.3288 4.21186 11.3198 3.41266C11.3198 3.30041 11.2343 3.20613 11.1217 3.19266L10.7953 3.15225C10.6806 3.13878 10.595 3.04 10.5973 2.92326L10.6108 2.30591C10.6108 2.2408 10.6693 2.18917 10.7323 2.1959L10.7346 2.19815Z" stroke="white" stroke-width="0.5" stroke-miterlimit="10" stroke-linecap="round" stroke-linejoin="round"/>
<path d="M12.5625 3.33132C12.5625 3.33132 17.4831 2.28293 17.5258 2.27395C17.5258 2.27395 17.5506 1.25475 17.5258 1.26373C17.5011 1.27271 12.6008 2.40865 12.6008 2.40865" stroke="white" stroke-width="0.5" stroke-miterlimit="10" stroke-linecap="round" stroke-linejoin="round"/>
<path d="M10.6963 2.19894C10.6963 2.19894 15.8532 1.02484 15.8937 1.01586C15.9343 1.00688 17.5234 1.2628 17.5234 1.2628" stroke="white" stroke-width="0.5" stroke-miterlimit="10" stroke-linecap="round" stroke-linejoin="round"/>
<path d="M12.1074 7.31252C12.1074 7.31252 16.8727 5.76351 16.8569 5.69616C16.8412 5.62882 16.8569 2.41406 16.8569 2.41406" stroke="white" stroke-width="0.5" stroke-miterlimit="10" stroke-linecap="round" stroke-linejoin="round"/>
<path d="M13.9531 8.82362L18.5045 7.02767C18.5045 7.02767 18.6193 6.61684 18.5045 6.66623C18.3897 6.71562 13.9531 8.42402 13.9531 8.42402" stroke="white" stroke-width="0.5" stroke-miterlimit="10" stroke-linecap="round" stroke-linejoin="round"/>
<path d="M16.8574 5.69727L18.5051 6.66708" stroke="white" stroke-width="0.5" stroke-miterlimit="10" stroke-linecap="round" stroke-linejoin="round"/>
<path d="M9.69238 7.55277L11.3648 6.66602" stroke="white" stroke-width="0.5" stroke-miterlimit="10" stroke-linecap="round" stroke-linejoin="round"/>
<path d="M27.2158 20.0378C27.2158 20.0378 31.4319 16.1608 31.4319 16.062C31.4319 15.9633 31.828 8.68069 31.729 8.82436C31.6299 8.96804 28.3143 11.3207 28.3143 11.3207" stroke="white" stroke-width="0.5" stroke-miterlimit="10" stroke-linecap="round" stroke-linejoin="round"/>
<path d="M16.7852 8.97687L20.8931 7.11133L31.7292 8.82422" stroke="white" stroke-width="0.5" stroke-miterlimit="10" stroke-linecap="round" stroke-linejoin="round"/>
<path d="M0.512695 5.56008L5.77317 4.4668L11.3443 5.35355" stroke="white" stroke-width="0.5" stroke-miterlimit="10" stroke-linecap="round" stroke-linejoin="round"/>
<path d="M7.78125 7.09342L11.3445 5.87891" stroke="white" stroke-width="0.5" stroke-miterlimit="10" stroke-linecap="round" stroke-linejoin="round"/>
<path d="M8.21973 8.36273L9.69185 7.67578" stroke="white" stroke-width="0.5" stroke-miterlimit="10" stroke-linecap="round" stroke-linejoin="round"/>
</svg>
