<svg width="40" height="32" viewBox="0 0 40 32" fill="none" xmlns="http://www.w3.org/2000/svg">
<path d="M14.7754 16.923H26.1461V16.2209C26.1461 16.1387 26.0883 16.0678 26.0081 16.0514C25.609 15.971 24.415 15.7297 23.3849 15.511C22.2521 15.2697 21.4176 14.303 21.3418 13.1435L21.1952 10.9057C21.1547 10.284 21.1668 9.65967 21.2323 9.03969L21.5047 6.46468C21.5245 6.28136 21.6581 6.13004 21.8374 6.08854L23.0124 5.81962C23.2659 5.76169 23.4366 5.52477 23.4124 5.26537L23.309 4.15252C23.2392 3.40025 22.6116 2.82351 21.859 2.81919L19.1271 2.80276C18.3806 2.79844 17.7495 3.35788 17.6625 4.10237L17.5202 5.32762C17.49 5.58962 17.6599 5.8326 17.915 5.89312L19.0254 6.15599C19.1935 6.19835 19.3202 6.3367 19.3469 6.50877L19.7133 8.8633C19.8211 9.55504 19.7754 10.2563 19.7487 10.9558L19.6668 13.1253C19.6202 14.354 18.7193 15.3812 17.5107 15.5853L14.9202 16.0211C14.8375 16.0349 14.7763 16.1076 14.7763 16.1915V16.9221L14.7754 16.923Z" stroke="white" stroke-width="0.2" stroke-miterlimit="10" stroke-linecap="round" stroke-linejoin="round"/>
<path d="M14.7754 16.1934L15.4823 11.9522L18.4314 11.1809C19.0512 11.0192 19.5297 10.5263 19.6754 9.90115L19.7728 9.48438" stroke="white" stroke-width="0.2" stroke-miterlimit="10" stroke-linecap="round" stroke-linejoin="round"/>
<path d="M21.2061 9.33203V10.2425C21.3259 10.7389 21.913 11.0648 22.4052 11.1928L25.3224 11.952L26.1466 16.2218" stroke="white" stroke-width="0.2" stroke-miterlimit="10" stroke-linecap="round" stroke-linejoin="round"/>
<path d="M23.3303 4.37432C23.3837 4.32331 23.069 2.35789 22.8811 1.21824C22.8053 0.7591 22.4096 0.421875 21.9458 0.421875H18.8932C18.4078 0.421875 18.0009 0.789364 17.9501 1.27358L17.5596 4.99949" stroke="white" stroke-width="0.2" stroke-miterlimit="10" stroke-linecap="round" stroke-linejoin="round"/>
<path d="M0.132812 23.5927C0.132812 23.5927 10.0735 23.5547 10.2003 23.5547L8.78732 29.1734H0.132812" stroke="white" stroke-width="0.2" stroke-miterlimit="10" stroke-linecap="round" stroke-linejoin="round"/>
<path d="M39.5533 23.5547L30.7637 23.5927L32.3275 29.1734H39.5533" stroke="white" stroke-width="0.2" stroke-miterlimit="10" stroke-linecap="round" stroke-linejoin="round"/>
<path d="M15.5801 24.7695C15.5784 24.7816 25.2326 24.7695 25.2326 24.7695" stroke="white" stroke-width="0.2" stroke-miterlimit="10" stroke-linecap="round" stroke-linejoin="round"/>
<path d="M8.78711 29.1738L10.2 31.2638" stroke="white" stroke-width="0.2" stroke-miterlimit="10" stroke-linecap="round" stroke-linejoin="round"/>
<path d="M32.3275 29.1738L31.0283 31.2638" stroke="white" stroke-width="0.2" stroke-miterlimit="10" stroke-linecap="round" stroke-linejoin="round"/>
<path d="M11.3103 27.7891C11.2853 27.9577 10.6543 31.2633 10.6543 31.2633" stroke="white" stroke-width="0.2" stroke-miterlimit="10" stroke-linecap="round" stroke-linejoin="round"/>
<path d="M12.3947 26.6426C12.3697 26.7688 11.5869 31.2634 11.5869 31.2634" stroke="white" stroke-width="0.2" stroke-miterlimit="10" stroke-linecap="round" stroke-linejoin="round"/>
<path d="M30.6625 31.2632L29.7539 27.5918" stroke="white" stroke-width="0.2" stroke-miterlimit="10" stroke-linecap="round" stroke-linejoin="round"/>
<path d="M29.7534 31.2642L28.6689 26.4531" stroke="white" stroke-width="0.2" stroke-miterlimit="10" stroke-linecap="round" stroke-linejoin="round"/>
<path d="M29.211 31.263C29.2748 31.263 28.2334 26.4805 28.2334 26.4805" stroke="white" stroke-width="0.2" stroke-miterlimit="10" stroke-linecap="round" stroke-linejoin="round"/>
<path d="M13.8167 28.1101C14.4123 28.1101 14.8952 27.9289 14.8952 27.7055C14.8952 27.482 14.4123 27.3008 13.8167 27.3008C13.2211 27.3008 12.7383 27.482 12.7383 27.7055C12.7383 27.9289 13.2211 28.1101 13.8167 28.1101Z" stroke="white" stroke-width="0.2" stroke-miterlimit="10" stroke-linecap="round" stroke-linejoin="round"/>
<path d="M27.012 28.1101C27.6077 28.1101 28.0905 27.9289 28.0905 27.7055C28.0905 27.482 27.6077 27.3008 27.012 27.3008C26.4164 27.3008 25.9336 27.482 25.9336 27.7055C25.9336 27.9289 26.4164 28.1101 27.012 28.1101Z" stroke="white" stroke-width="0.2" stroke-miterlimit="10" stroke-linecap="round" stroke-linejoin="round"/>
<path d="M10.6373 27.7906H11.3097L11.9149 26.6432H14.539V26.3734H15.3804L15.6744 24.0111H17.8692V23.5935H22.9157V23.986C22.9157 23.986 25.1485 24.0111 25.1364 24.0492C25.1244 24.0872 25.439 26.1495 25.439 26.1495C25.439 26.1495 26.3097 26.1244 26.2968 26.1624C26.2838 26.2005 26.2968 26.491 26.2968 26.491L28.933 26.4781L29.5261 27.5788L30.195 27.6168L31.0278 26.3259L30.864 25.6912L30.8769 25.0098L30.6243 24.2506L30.4726 24.2256L30.4218 24.0483L30.4726 23.4413L30.3088 22.8084H29.9054L26.8149 22.1123L26.7519 22.2385L26.2976 22.2135L25.6287 21.7707L25.3011 21.9229L25.1114 20.0881H25.6925C25.7933 20.0881 25.8726 20.0007 25.864 19.9004L25.7925 19.0764H24.9726L24.9476 18.9121H15.8899L15.852 19.0764C15.852 19.0764 15.0442 19.0384 15.0192 19.0764C15.0011 19.1041 14.9761 19.5796 14.964 19.8434C14.9597 19.9385 15.033 20.0189 15.1278 20.0232L15.6882 20.0509L15.4614 22.05L15.2089 21.8857L11.0459 22.9363L10.5037 22.9234L9.84766 26.4538L10.6382 27.7906H10.6373Z" stroke="white" stroke-width="0.5" stroke-miterlimit="10" stroke-linecap="round" stroke-linejoin="round"/>
<path d="M15.4603 22.0488V22.4155H14.5138L14.375 22.9723L14.4629 23.4505C14.4776 23.5326 14.5491 23.5923 14.6328 23.5923H15.4603L15.675 24.0099" stroke="white" stroke-width="0.5" stroke-miterlimit="10" stroke-linecap="round" stroke-linejoin="round"/>
<path d="M25.1377 24.049H25.4532V23.5553H26.2127C26.3136 23.5553 26.392 23.4697 26.3842 23.3685L26.3101 22.4156H25.3136L25.3006 21.9219" stroke="white" stroke-width="0.5" stroke-miterlimit="10" stroke-linecap="round" stroke-linejoin="round"/>
<path d="M25.4395 26.1496C25.4395 26.1496 25.8601 25.0912 25.9274 25.1076C25.9946 25.124 31.0282 26.3268 31.0282 26.3268" stroke="white" stroke-width="0.5" stroke-miterlimit="10" stroke-linecap="round" stroke-linejoin="round"/>
<path d="M15.3813 26.3734C15.2632 26.2886 14.9606 25.1758 14.9106 25.1758C14.8606 25.1758 9.84766 26.4538 9.84766 26.4538" stroke="white" stroke-width="0.5" stroke-miterlimit="10" stroke-linecap="round" stroke-linejoin="round"/>
<path d="M15.0541 23.5938L14.9102 25.1752" stroke="white" stroke-width="0.5" stroke-miterlimit="10" stroke-linecap="round" stroke-linejoin="round"/>
<path d="M15.2084 21.8848L15.1602 22.4157" stroke="white" stroke-width="0.5" stroke-miterlimit="10" stroke-linecap="round" stroke-linejoin="round"/>
<path d="M25.7891 23.5547L25.9279 25.1068" stroke="white" stroke-width="0.5" stroke-miterlimit="10" stroke-linecap="round" stroke-linejoin="round"/>
<path d="M25.6289 21.7715L25.6867 22.4165" stroke="white" stroke-width="0.5" stroke-miterlimit="10" stroke-linecap="round" stroke-linejoin="round"/>
<path d="M13.9464 10.2805C13.9334 10.2295 13.6817 8.45866 13.6309 8.47076C13.58 8.48287 11.7516 8.60998 11.7386 8.64802C11.7257 8.68607 11.7386 10.4068 11.7386 10.4068L11.3352 10.8495V11.0138L11.1947 11.1392C11.1007 11.223 11.1248 11.3761 11.2395 11.4262C11.4257 11.5084 11.5602 11.5836 11.6766 11.6078C11.9912 11.6735 12.6438 11.6415 12.9636 11.5974C13.3162 11.549 13.7369 11.4141 14.3084 11.2153L14.4326 11.172C14.4524 11.1651 14.4722 11.1582 14.4921 11.1504C14.7145 11.0691 14.7291 10.7596 14.5145 10.6593L13.9464 10.2797V10.2805Z" stroke="white" stroke-width="0.5" stroke-miterlimit="10" stroke-linecap="round" stroke-linejoin="round"/>
<path d="M11.7383 10.4075L13.946 10.2812" stroke="white" stroke-width="0.5" stroke-miterlimit="10" stroke-linecap="round" stroke-linejoin="round"/>
<path d="M12.18 11.6471C12.167 11.7111 12.6343 14.9882 12.6343 14.9882L12.842 15.7344L12.6593 15.9748H12.9015L13.1386 17.3038L12.9015 17.7215H13.1446L13.3153 19.0245L13.0377 19.3791H13.3179L13.5049 20.67L13.2653 21.0366L13.5808 21.0877L13.6817 22.0492L14.1481 22.2264L14.9093 21.8218L14.667 21.6575L14.6024 20.7971L14.9093 20.3544L14.4765 20.089L14.3756 19.0003L14.6679 18.7089L14.2368 18.2783V17.2537L14.5015 17.0133L14.186 16.6717L14.1231 15.6471L14.3248 15.2165H14.1989V14.6467L13.8963 11.3574" stroke="white" stroke-width="0.5" stroke-miterlimit="10" stroke-linecap="round" stroke-linejoin="round"/>
<path d="M14.3247 15.2148C14.3247 15.2148 14.0721 15.7337 12.6592 15.974" stroke="white" stroke-width="0.5" stroke-miterlimit="10" stroke-linecap="round" stroke-linejoin="round"/>
<path d="M14.5014 17.0117C14.035 17.4674 12.9014 17.7208 12.9014 17.7208" stroke="white" stroke-width="0.5" stroke-miterlimit="10" stroke-linecap="round" stroke-linejoin="round"/>
<path d="M14.6674 18.707C13.8527 19.378 13.0381 19.378 13.0381 19.378" stroke="white" stroke-width="0.5" stroke-miterlimit="10" stroke-linecap="round" stroke-linejoin="round"/>
<path d="M13.2656 21.0366C13.2656 21.0366 14.2492 20.9735 14.9096 20.3535" stroke="white" stroke-width="0.5" stroke-miterlimit="10" stroke-linecap="round" stroke-linejoin="round"/>
<path d="M13.2759 24.162C13.7311 24.0549 14.0682 23.832 14.029 23.6642C13.9898 23.4963 13.5889 23.4471 13.1338 23.5542C12.6786 23.6612 12.3414 23.8841 12.3806 24.0519C12.4199 24.2198 12.8207 24.269 13.2759 24.162Z" stroke="white" stroke-width="0.5" stroke-miterlimit="10" stroke-linecap="round" stroke-linejoin="round"/>
<path d="M28.5036 23.789C28.5429 23.6211 28.2057 23.3983 27.7505 23.2912C27.2953 23.1841 26.8945 23.2333 26.8552 23.4012C26.816 23.569 27.1532 23.7919 27.6084 23.899C28.0635 24.0061 28.4644 23.9568 28.5036 23.789Z" stroke="white" stroke-width="0.5" stroke-miterlimit="10" stroke-linecap="round" stroke-linejoin="round"/>
<path d="M26.8969 10.2805C26.9098 10.2295 27.1615 8.45866 27.2124 8.47076C27.2633 8.48287 29.0917 8.60998 29.1046 8.64802C29.1176 8.68607 29.1046 10.4068 29.1046 10.4068L29.5081 10.8495V11.0138L29.6486 11.1392C29.7426 11.223 29.7184 11.3761 29.6038 11.4262C29.4176 11.5084 29.2831 11.5836 29.1667 11.6078C28.852 11.6735 28.1995 11.6415 27.8796 11.5974C27.527 11.549 27.1064 11.4141 26.5348 11.2153L26.4107 11.172C26.3908 11.1651 26.371 11.1582 26.3512 11.1504C26.1288 11.0691 26.1141 10.7596 26.3288 10.6593L26.8969 10.2797V10.2805Z" stroke="white" stroke-width="0.5" stroke-miterlimit="10" stroke-linecap="round" stroke-linejoin="round"/>
<path d="M29.1042 10.4075L26.8965 10.2812" stroke="white" stroke-width="0.5" stroke-miterlimit="10" stroke-linecap="round" stroke-linejoin="round"/>
<path d="M28.6629 11.6471C28.6758 11.7111 28.2086 14.9882 28.2086 14.9882L28.0008 15.7344L28.1836 15.9748H27.9413L27.7043 17.3038L27.9413 17.7215H27.6982L27.5276 19.0245L27.8051 19.3791H27.525L27.3379 20.67L27.5776 21.0366L27.262 21.0877L27.1612 22.0492L26.6948 22.2264L25.9336 21.8218L26.1758 21.6575L26.2405 20.7971L25.9336 20.3544L26.3664 20.089L26.4672 19.0003L26.175 18.7089L26.606 18.2783V17.2537L26.3413 17.0133L26.6569 16.6717L26.7198 15.6471L26.5181 15.2165H26.6439V14.6467L26.9465 11.3574" stroke="white" stroke-width="0.5" stroke-miterlimit="10" stroke-linecap="round" stroke-linejoin="round"/>
<path d="M26.5186 15.2148C26.5186 15.2148 26.7711 15.7337 28.1841 15.974" stroke="white" stroke-width="0.5" stroke-miterlimit="10" stroke-linecap="round" stroke-linejoin="round"/>
<path d="M26.3418 17.0117C26.8082 17.4674 27.9418 17.7208 27.9418 17.7208" stroke="white" stroke-width="0.5" stroke-miterlimit="10" stroke-linecap="round" stroke-linejoin="round"/>
<path d="M26.1758 18.707C26.9904 19.378 27.8051 19.378 27.8051 19.378" stroke="white" stroke-width="0.5" stroke-miterlimit="10" stroke-linecap="round" stroke-linejoin="round"/>
<path d="M27.5776 21.0366C27.5776 21.0366 26.5939 20.9735 25.9336 20.3535" stroke="white" stroke-width="0.5" stroke-miterlimit="10" stroke-linecap="round" stroke-linejoin="round"/>
<path d="M11.3989 7.95217C11.9282 7.77232 12.6437 7.5328 13.0765 7.49649C13.7006 7.44461 14.9816 7.87522 15.5747 7.67375C16.3187 7.42039 16.2678 7.05291 16.3066 6.76237C16.3385 6.52199 16.523 6.02567 16.4325 5.80085C16.2506 5.34862 15.3825 4.70444 14.9101 4.58597C14.3368 4.44244 13.0954 4.44244 12.5472 4.66207C12.0558 4.85835 11.186 5.52415 10.8567 5.94006C10.6756 6.16834 10.4351 6.70703 10.3265 6.97768C10.1989 7.29761 9.70493 8.0274 9.92303 8.29372C10.3265 8.78745 11.1532 8.03518 11.3989 7.95217Z" stroke="white" stroke-width="0.5" stroke-miterlimit="10" stroke-linecap="round" stroke-linejoin="round"/>
<path d="M10.9512 6.96549C10.9512 6.96549 12.4796 6.44409 13.2598 6.43371C13.9848 6.4242 14.7641 6.50202 15.096 6.54007C15.1831 6.55044 15.2658 6.51326 15.3236 6.44841C15.4029 6.35935 15.5736 6.25818 15.9348 6.31957C16.296 6.38097 16.3072 6.76229 16.3072 6.76229" stroke="white" stroke-width="0.5" stroke-miterlimit="10" stroke-linecap="round" stroke-linejoin="round"/>
<path d="M11.4434 6.13039C11.4434 6.13039 12.2442 5.56056 14.4839 5.98512C15.4149 6.16152 15.6227 5.63147 16.0166 5.61158C16.1028 5.60726 16.358 5.66 16.358 5.66" stroke="white" stroke-width="0.5" stroke-miterlimit="10" stroke-linecap="round" stroke-linejoin="round"/>
<path d="M11.6826 5.57941C11.6826 5.57941 12.774 5.18512 13.6283 5.20587C14.0757 5.21625 15.3533 5.52839 15.3723 5.53445C15.3912 5.5405 15.8326 5.64859 15.8326 5.64859" stroke="white" stroke-width="0.5" stroke-miterlimit="10" stroke-linecap="round" stroke-linejoin="round"/>
<path d="M29.4422 7.7803C28.9128 7.60044 28.1973 7.36093 27.7646 7.32461C27.1404 7.27273 25.8594 7.70334 25.2663 7.50187C24.5223 7.24852 24.5732 6.88103 24.5344 6.5905C24.5025 6.35012 24.318 5.85379 24.4085 5.62897C24.5904 5.17675 25.4585 4.53256 25.931 4.4141C26.5042 4.27056 27.7456 4.27056 28.2939 4.49019C28.7853 4.68647 29.6551 5.35228 29.9844 5.76819C30.1654 5.99646 30.4059 6.53516 30.5146 6.8058C30.6422 7.12573 31.1361 7.85552 30.918 8.12185C30.5146 8.61558 29.6878 7.86331 29.4422 7.7803Z" stroke="white" stroke-width="0.5" stroke-miterlimit="10" stroke-linecap="round" stroke-linejoin="round"/>
<path d="M29.8892 6.79361C29.8892 6.79361 28.3608 6.27221 27.5806 6.26184C26.8556 6.25232 26.0763 6.33015 25.7444 6.36819C25.6573 6.37857 25.5746 6.34139 25.5168 6.27654C25.4375 6.18747 25.2668 6.08631 24.9056 6.1477C24.5444 6.20909 24.5332 6.59041 24.5332 6.59041" stroke="white" stroke-width="0.5" stroke-miterlimit="10" stroke-linecap="round" stroke-linejoin="round"/>
<path d="M29.398 5.95851C29.398 5.95851 28.5972 5.38869 26.3575 5.81325C25.4265 5.98964 25.2187 5.45959 24.8248 5.43971C24.7386 5.43538 24.4834 5.48813 24.4834 5.48813" stroke="white" stroke-width="0.5" stroke-miterlimit="10" stroke-linecap="round" stroke-linejoin="round"/>
<path d="M29.1588 5.40754C29.1588 5.40754 28.0674 5.01324 27.2131 5.03399C26.7657 5.04437 25.4881 5.35652 25.4691 5.36257C25.4502 5.36863 25.0088 5.47671 25.0088 5.47671" stroke="white" stroke-width="0.5" stroke-miterlimit="10" stroke-linecap="round" stroke-linejoin="round"/>
</svg>
