<svg width="32" height="27" viewBox="0 0 32 27" fill="none" xmlns="http://www.w3.org/2000/svg">
<path d="M21.0564 20.5594C20.9181 20.5239 1 18.6582 1 18.6582" stroke="white" stroke-width="0.5" stroke-linecap="round" stroke-linejoin="round"/>
<path d="M6.70319 6.27993C6.70319 6.27993 6.53825 5.93443 6.70319 5.93443C6.86812 5.93443 15.3809 3.30681 15.3809 3.30681L22.528 2.54492" stroke="white" stroke-width="0.5" stroke-linecap="round" stroke-linejoin="round"/>
<path d="M14.4129 7.55847C14.5867 7.52304 20.7106 6.66016 20.7106 6.66016V20.1438C20.7106 20.1438 14.6098 19.7628 14.5796 19.6087C14.5495 19.4545 14.4111 7.56024 14.4111 7.56024L14.4129 7.55847Z" stroke="white" stroke-width="0.5" stroke-linecap="round" stroke-linejoin="round"/>
<path d="M29.8813 5.03516C29.7075 5.13792 1 9.80491 1 9.80491" stroke="white" stroke-width="0.5" stroke-linecap="round" stroke-linejoin="round"/>
<path d="M17.0094 9.00024L17.9618 8.93291C18.68 8.88153 19.2919 9.45029 19.2919 10.1696V12.0478C19.2919 12.9284 18.5772 13.6424 17.6958 13.6424H17.1956C16.3887 13.6424 15.7449 12.9727 15.7786 12.1665C15.8052 11.5233 15.8354 10.7827 15.8584 10.1874C15.8832 9.55483 16.3798 9.04454 17.0112 8.99847L17.0094 9.00024Z" stroke="white" stroke-width="0.5" stroke-linecap="round" stroke-linejoin="round"/>
<path d="M8.84982 13.9542H11.0578C11.2493 13.9542 11.4054 13.8018 11.4125 13.6105L11.5278 9.98887C11.5349 9.77979 11.3593 9.6097 11.1483 9.62387L8.82499 9.78157C8.63877 9.79397 8.49512 9.94812 8.49512 10.1359V13.5999C8.49512 13.7948 8.65473 13.9542 8.84982 13.9542Z" stroke="white" stroke-width="0.5" stroke-linecap="round" stroke-linejoin="round"/>
<path d="M2.79317 14.2602H4.29887C4.49395 14.2602 4.65357 14.1007 4.65357 13.9058V10.8654C4.65357 10.6527 4.46735 10.488 4.25453 10.5145L2.74884 10.7024C2.57149 10.7254 2.43848 10.876 2.43848 11.0532V13.9058C2.43848 14.1007 2.59809 14.2602 2.79317 14.2602Z" stroke="white" stroke-width="0.5" stroke-linecap="round" stroke-linejoin="round"/>
<path d="M14.5034 14.9219C14.3437 14.9219 1 14.9219 1 14.9219" stroke="white" stroke-width="0.5" stroke-linecap="round" stroke-linejoin="round"/>
<path d="M21.4023 4.55211L26.7654 3.48016V2.4082L21.4023 3.47839V4.55211Z" stroke="white" stroke-width="0.5" stroke-linecap="round" stroke-linejoin="round"/>
<path d="M21.4023 6.03798L27.0083 5.03513L26.8736 3.92773L21.4023 4.98197V6.03798Z" stroke="white" stroke-width="0.5" stroke-linecap="round" stroke-linejoin="round"/>
<path d="M22.0421 0.972656H21.1855V1.30044H22.0421V0.972656Z" stroke="white" stroke-width="0.5" stroke-linecap="round" stroke-linejoin="round"/>
<path d="M21.4023 2.5446V1.30078H21.8617V2.61548" stroke="white" stroke-width="0.5" stroke-linecap="round" stroke-linejoin="round"/>
<path d="M8.49512 11.3101C8.62458 11.2924 11.487 11.2871 11.487 11.2871" stroke="white" stroke-width="0.5" stroke-linecap="round" stroke-linejoin="round"/>
<path d="M2.43848 12.0688C2.65484 12.0422 4.65357 11.9395 4.65357 11.9395" stroke="white" stroke-width="0.5" stroke-linecap="round" stroke-linejoin="round"/>
<path d="M27.7162 20.1431H26.6628L26.7656 26.279L21.4026 25.5525L21.1862 19.9004H20.7109" stroke="white" stroke-width="0.5" stroke-linecap="round" stroke-linejoin="round"/>
<path d="M21.335 23.7891L26.737 24.5173" stroke="white" stroke-width="0.5" stroke-linecap="round" stroke-linejoin="round"/>
<path d="M21.2725 22.1562C21.4197 22.1811 26.7082 22.8047 26.7082 22.8047" stroke="white" stroke-width="0.5" stroke-linecap="round" stroke-linejoin="round"/>
<path d="M21.2031 20.3691C21.3415 20.3939 26.6743 20.8865 26.6743 20.8865" stroke="white" stroke-width="0.5" stroke-linecap="round" stroke-linejoin="round"/>
<path d="M20.8223 18.7598C20.9517 18.7863 27.4924 19.0716 27.4924 19.0716" stroke="white" stroke-width="0.5" stroke-linecap="round" stroke-linejoin="round"/>
<path d="M20.8223 9.99709C21.1078 10.0237 25.1567 9.92799 25.1567 9.8075C25.1567 9.68702 27.2494 5.49842 27.2494 5.49842L27.7283 20.5589H26.7653C26.7653 20.6794 26.7298 21.3191 26.7298 21.3191H28.5299L28.5654 20.628H30.4346L29.8813 5.03597L28.9821 1.30273C28.9821 1.30273 21.3348 2.7893 21.1965 2.7893C21.0582 2.7893 1.15784 7.62816 1 7.66359" stroke="white" stroke-width="0.5" stroke-linecap="round" stroke-linejoin="round"/>
<path d="M27.6823 19.0712C27.6823 19.0712 25.7545 18.5007 25.6251 18.4493C25.4956 18.3979 20.8242 18.1641 20.8242 18.1641" stroke="white" stroke-width="0.5" stroke-linecap="round" stroke-linejoin="round"/>
<path d="M25.1562 9.80469L25.6245 18.4477" stroke="white" stroke-width="0.5" stroke-linecap="round" stroke-linejoin="round"/>
<path d="M22.5174 15.0275H23.2499C23.7465 15.0275 24.1473 14.6182 24.1366 14.122L24.1012 12.4973C24.0905 12.0153 23.6968 11.6309 23.2144 11.6309H22.5157C22.0262 11.6309 21.6289 12.0277 21.6289 12.5168V14.1415C21.6289 14.6306 22.0262 15.0275 22.5157 15.0275H22.5174Z" stroke="white" stroke-width="0.5" stroke-linecap="round" stroke-linejoin="round"/>
<path d="M14.5034 16.0112C14.3863 16.0112 1 15.7773 1 15.7773" stroke="white" stroke-width="0.5" stroke-linecap="round" stroke-linejoin="round"/>
<path d="M14.5034 17.2041C14.2834 17.2555 1 16.6602 1 16.6602" stroke="white" stroke-width="0.5" stroke-linecap="round" stroke-linejoin="round"/>
<path d="M14.5034 18.3181C14.4377 18.3447 1 17.5137 1 17.5137" stroke="white" stroke-width="0.5" stroke-linecap="round" stroke-linejoin="round"/>
<path d="M26.7656 22.1565C26.9465 22.1033 29.5677 22.1565 29.5677 22.1565C29.5677 22.1565 30.0093 22.7004 30.5538 22.7004C31.0202 22.7004 31.359 21.6373 31.359 21.6373V20.1419C31.359 20.1419 31.7474 19.7716 31.7491 19.6068C31.7491 19.201 31.0752 18.9937 31.0486 18.9158C31.022 18.8378 30.6336 7.11719 30.6336 7.11719" stroke="white" stroke-width="0.5" stroke-linecap="round" stroke-linejoin="round"/>
<path d="M29.8906 5.30469C29.8906 5.30469 31.4389 5.30469 31.4389 6.15871C31.4389 6.8072 29.9669 7.42025 29.9669 7.42025" stroke="white" stroke-width="0.5" stroke-linecap="round" stroke-linejoin="round"/>
<path d="M11.7652 23.193C12.0659 23.193 12.3096 22.9146 12.3096 22.5711C12.3096 22.2277 12.0659 21.9492 11.7652 21.9492C11.4645 21.9492 11.2207 22.2277 11.2207 22.5711C11.2207 22.9146 11.4645 23.193 11.7652 23.193Z" stroke="white" stroke-width="0.5" stroke-linecap="round" stroke-linejoin="round"/>
<path d="M3.42432 21.5761C3.65058 21.5761 3.834 21.3667 3.834 21.1084C3.834 20.85 3.65058 20.6406 3.42432 20.6406C3.19807 20.6406 3.01465 20.85 3.01465 21.1084C3.01465 21.3667 3.19807 21.5761 3.42432 21.5761Z" stroke="white" stroke-width="0.5" stroke-linecap="round" stroke-linejoin="round"/>
<path d="M15.7161 21.7944C15.5281 21.7678 1.79777 19.7727 1.79777 19.7727C1.79777 19.7727 1.66831 19.0215 1.79777 19.0728C1.92724 19.1242 15.7161 20.9563 15.7161 20.9563V21.7961V21.7944Z" stroke="white" stroke-width="0.5" stroke-linecap="round" stroke-linejoin="round"/>
<path d="M13.7158 21.5035C12.8273 21.3741 11.7153 21.2129 10.5289 21.041C10.2114 21.5265 10.0962 22.1803 10.2682 22.8359C10.5661 23.9716 11.6107 24.6821 12.6021 24.4217C13.5935 24.1612 14.1539 23.0308 13.856 21.895C13.8205 21.7586 13.7726 21.6275 13.7158 21.5035Z" stroke="white" stroke-width="0.5" stroke-linecap="round" stroke-linejoin="round"/>
<path d="M12.9585 20.5874C12.5346 20.2951 12.0203 20.1781 11.5202 20.3093C11.4564 20.327 11.3943 20.3465 11.334 20.3713C11.9104 20.4475 12.4566 20.5219 12.9585 20.5874Z" stroke="white" stroke-width="0.5" stroke-linecap="round" stroke-linejoin="round"/>
<path d="M4.78277 20.2067C3.84992 20.0703 3.05894 19.9569 2.52689 19.8789C2.25378 20.2492 2.14914 20.7755 2.28747 21.3035C2.51271 22.1575 3.28772 22.6961 4.02017 22.503C4.75262 22.3116 5.16407 21.4629 4.94061 20.6071C4.90337 20.4636 4.84839 20.3307 4.78277 20.2067Z" stroke="white" stroke-width="0.5" stroke-linecap="round" stroke-linejoin="round"/>
<path d="M21.0563 21.2081C20.9002 21.1196 2.78223 19.2148 2.78223 19.2148" stroke="white" stroke-width="0.5" stroke-linecap="round" stroke-linejoin="round"/>
<path d="M8.236 22.7007C8.236 22.7007 5.12175 22.1815 5.00293 22.1567L5.81164 20.3672" stroke="white" stroke-width="0.5" stroke-linecap="round" stroke-linejoin="round"/>
<path d="M8.23633 20.707C8.25052 20.7088 8.23633 23.1947 8.23633 23.1947H9.01489V20.8204" stroke="white" stroke-width="0.5" stroke-linecap="round" stroke-linejoin="round"/>
<path d="M9.76661 20.9297V22.4287C9.63714 22.4676 9.01465 22.6997 9.01465 22.6997" stroke="white" stroke-width="0.5" stroke-linecap="round" stroke-linejoin="round"/>
<path d="M6.63097 20.5859C6.60082 20.6515 6.19824 22.3595 6.19824 22.3595L8.13135 21.8138" stroke="white" stroke-width="0.5" stroke-linecap="round" stroke-linejoin="round"/>
<path d="M16.6444 20.8856C16.6178 21.015 16.7491 23.9722 16.7491 23.9722C16.7491 23.9722 16.2046 24.0501 16.178 23.9722C16.1514 23.8942 16.0166 20.627 16.0166 20.627" stroke="white" stroke-width="0.5" stroke-linecap="round" stroke-linejoin="round"/>
<path d="M16.0158 22.3158C16.0158 22.3158 14.4906 23.5295 14.4126 23.4515C14.3346 23.3736 14.4126 21.6035 14.4126 21.6035" stroke="white" stroke-width="0.5" stroke-linecap="round" stroke-linejoin="round"/>
<path d="M13.79 23.3047L14.4125 23.4535" stroke="white" stroke-width="0.5" stroke-linecap="round" stroke-linejoin="round"/>
<path d="M10.2685 22.8358L9.01465 22.7012" stroke="white" stroke-width="0.5" stroke-linecap="round" stroke-linejoin="round"/>
<path d="M6.26567 20.4199C6.13266 20.5475 5.39844 22.2166 5.39844 22.2166" stroke="white" stroke-width="0.5" stroke-linecap="round" stroke-linejoin="round"/>
</svg>
