<svg width="16" height="25" viewBox="0 0 16 25" fill="none" xmlns="http://www.w3.org/2000/svg">
<path d="M6.8418 23.978C9.77053 23.8508 11.9229 18.6922 11.6492 12.456C11.3756 6.21974 8.77952 1.26741 5.85079 1.39464C2.92206 1.52186 0.769698 6.68047 1.04336 12.9167C1.31702 19.1529 3.91307 24.1053 6.8418 23.978Z" stroke="white" stroke-width="0.5" stroke-miterlimit="10" stroke-linecap="round" stroke-linejoin="round"/>
<path d="M6.49472 22.5466C9.01303 22.4372 10.8618 17.9578 10.6242 12.5416C10.3865 7.1254 8.15232 2.82338 5.63402 2.93278C3.11571 3.04218 1.26689 7.52156 1.50457 12.9378C1.74225 18.354 3.97641 22.656 6.49472 22.5466Z" stroke="white" stroke-width="0.5" stroke-miterlimit="10" stroke-linecap="round" stroke-linejoin="round"/>
<path d="M8.62784 21.2506C4.46797 23.3663 2.39611 18.0609 2.17579 13.0291C1.95546 7.99733 3.93434 2.26767 7.68187 3.84438" stroke="white" stroke-width="0.5" stroke-miterlimit="10" stroke-linecap="round" stroke-linejoin="round"/>
<path d="M5.82446 15.5261C6.60404 15.4922 7.18119 14.2153 7.11355 12.674C7.04592 11.1327 6.35911 9.91068 5.57953 9.94454C4.79994 9.97841 4.2228 11.2553 4.29044 12.7966C4.35807 14.3379 5.04488 15.56 5.82446 15.5261Z" stroke="white" stroke-width="0.5" stroke-miterlimit="10" stroke-linecap="round" stroke-linejoin="round"/>
<path d="M5.58008 1.42116L7.53874 0.773583C11.4136 0.60465 14.7852 5.73902 15.0682 12.2389C15.3532 18.7389 12.4425 24.1447 8.56961 24.3137L6.34414 23.9497" stroke="white" stroke-width="0.5" stroke-miterlimit="10" stroke-linecap="round" stroke-linejoin="round"/>
<path d="M5.58008 9.94406H7.39927C8.1795 9.90987 8.86675 11.1326 8.93345 12.6752C9.00015 14.2177 8.42408 15.4947 7.64385 15.5269H5.82466" stroke="white" stroke-width="0.5" stroke-miterlimit="10" stroke-linecap="round" stroke-linejoin="round"/>
<path d="M5.57031 9.93952C5.9766 9.15921 6.56884 8.66045 7.24599 8.63029C8.5841 8.57197 9.74838 10.3679 9.84945 12.6425C9.95051 14.917 8.94592 16.8075 7.6078 16.8658C6.87811 16.898 6.19894 16.3771 5.71585 15.5264" stroke="white" stroke-width="0.5" stroke-miterlimit="10" stroke-linecap="round" stroke-linejoin="round"/>
</svg>
