<svg width="17" height="24" viewBox="0 0 17 24" fill="none" xmlns="http://www.w3.org/2000/svg">
<path d="M1.67013 12.1992C1.51883 7.37815 3.58257 3.41414 6.27962 3.3454C8.97667 3.27666 11.2857 7.12921 11.437 11.9503C11.5883 16.7714 9.52455 20.7354 6.8275 20.8042C4.13046 20.8729 1.82142 17.0204 1.67013 12.1992Z" stroke="white" stroke-width="0.5" stroke-miterlimit="10" stroke-linecap="round" stroke-linejoin="round"/>
<path d="M0.878328 12.2023C0.695575 6.37875 3.12654 1.59209 6.30804 1.511C9.48955 1.42991 12.2168 6.08509 12.3996 11.9086C12.5823 17.7322 10.1514 22.5189 6.96985 22.6C3.78835 22.681 1.06108 18.0259 0.878328 12.2023Z" stroke="white" stroke-width="0.5" stroke-miterlimit="10" stroke-linecap="round" stroke-linejoin="round"/>
<path d="M6.30748 1.51341C6.20488 1.51538 6.10228 1.52325 6.00187 1.53702C6.83575 0.815017 7.77659 0.397949 8.7851 0.372374C12.4633 0.277943 15.6133 5.42048 15.8141 11.8575C16.0149 18.2945 13.1968 23.5885 9.51638 23.683C8.46858 23.7105 7.46661 23.3112 6.5607 22.5813C6.69604 22.5951 6.83138 22.6029 6.96891 22.601" stroke="white" stroke-width="0.5" stroke-miterlimit="10" stroke-linecap="round" stroke-linejoin="round"/>
<path d="M6.30704 1.5134C6.28085 1.5134 6.25465 1.51734 6.22846 1.5193C6.83095 1.13568 7.48364 0.917308 8.1669 0.901569C11.5875 0.81304 14.5192 5.72344 14.7135 11.8693C14.9078 18.0152 12.2883 23.0692 8.86543 23.1557C8.15598 23.1734 7.46836 22.9747 6.82221 22.597C6.87242 22.597 6.92045 22.6009 6.97065 22.6009" stroke="white" stroke-width="0.5" stroke-miterlimit="10" stroke-linecap="round" stroke-linejoin="round"/>
<path d="M7.77263 3.69922C5.71195 4.85796 4.29523 8.21222 4.41747 12.1291C4.53972 16.046 6.15945 19.3078 8.28125 20.3662" stroke="white" stroke-width="0.5" stroke-miterlimit="10" stroke-linecap="round" stroke-linejoin="round"/>
</svg>
