<svg width="244" height="113" viewBox="0 0 244 113" fill="none" xmlns="http://www.w3.org/2000/svg">
<path fill-rule="evenodd" clip-rule="evenodd" d="M128.01 69.6426V54.9447C128.19 52.5254 129.027 50.2014 130.431 48.2247C132.201 46.3896 134.599 45.2933 137.143 45.1563H234.807C237.354 45.2811 239.756 46.3794 241.518 48.2247C242.978 50.1764 243.841 52.5111 244 54.9447V103.12C243.953 105.609 243.068 108.009 241.487 109.932C239.718 111.767 237.32 112.863 234.776 113H137.143C134.602 112.851 132.208 111.757 130.431 109.932C128.92 107.977 128.072 105.59 128.01 103.12V87.7772L127.428 88.3602L89 112.11V45.7699L127.551 69.6426L128.133 70.2256L128.01 69.6426ZM138.399 22.603C138.337 19.6344 138.903 16.6862 140.059 13.9521C141.216 11.218 142.937 8.75981 145.11 6.73908C147.165 4.61071 149.626 2.91872 152.349 1.76414C155.071 0.60957 157.997 0.016092 160.953 0.0191468C163.927 -0.111111 166.892 0.424527 169.633 1.58704C172.374 2.74954 174.821 4.50964 176.797 6.73908C178.969 8.75981 180.691 11.218 181.847 13.9521C183.004 16.6862 183.57 19.6344 183.508 22.603C183.57 25.5717 183.004 28.5199 181.847 31.254C180.691 33.9881 178.969 36.4463 176.797 38.467C174.821 40.6964 172.374 42.4565 169.633 43.6191C166.892 44.7816 163.927 45.3172 160.953 45.1869C157.997 45.19 155.071 44.5965 152.349 43.4419C149.626 42.2874 147.165 40.5954 145.11 38.467C142.937 36.4463 141.216 33.9881 140.059 31.254C138.903 28.5199 138.337 25.5717 138.399 22.603ZM198.217 27.6353C198.225 25.2529 198.709 22.8962 199.641 20.704C200.572 18.5118 201.932 16.5284 203.641 14.8705C205.242 13.0664 207.212 11.6283 209.417 10.6541C211.621 9.6799 214.01 9.19234 216.42 9.22454C218.84 9.14295 221.249 9.59229 223.478 10.5411C225.706 11.4899 227.701 12.9152 229.321 14.7171C230.965 16.4276 232.245 18.4546 233.082 20.6753C233.92 22.8959 234.298 25.2639 234.194 27.6353C234.119 32.3593 232.396 36.9081 229.321 40.4922C225.769 43.636 221.159 45.3138 216.42 45.1869C211.685 45.235 207.104 43.5053 203.58 40.3388C200.402 36.838 198.51 32.3572 198.217 27.6353Z" fill="#789372"/>
<path fill-rule="evenodd" clip-rule="evenodd" d="M39.6609 24.0359V18.9632C39.5997 18.1282 39.3134 17.3261 38.8331 16.6439C38.2281 16.0106 37.4082 15.6322 36.5384 15.5849H3.14354C2.27267 15.628 1.45134 16.007 0.848754 16.6439C0.349395 17.3175 0.0545168 18.1233 0 18.9632V35.5899C0.0160719 36.4491 0.318852 37.2775 0.859233 37.941C1.4643 38.5743 2.28417 38.9527 3.15401 39H36.5384C37.4072 38.9486 38.2257 38.5709 38.8331 37.941C39.3499 37.2665 39.6399 36.4427 39.6609 35.5899V30.2948L39.86 30.496L53 38.6929V15.7967L39.8181 24.0359L39.619 24.2372L39.6609 24.0359ZM36.1087 7.80105C36.13 6.77647 35.9365 5.75895 35.541 4.81532C35.1455 3.87168 34.5569 3.0233 33.814 2.32588C33.1114 1.59131 32.2697 1.00734 31.3389 0.608864C30.4081 0.210383 29.4074 0.00555387 28.3966 0.00660819C27.3798 -0.0383481 26.3659 0.146518 25.4287 0.547738C24.4915 0.948958 23.6547 1.55642 22.9792 2.32588C22.2363 3.0233 21.6477 3.87168 21.2522 4.81532C20.8567 5.75895 20.6632 6.77647 20.6845 7.80105C20.6632 8.82563 20.8567 9.84315 21.2522 10.7868C21.6477 11.7304 22.2363 12.5788 22.9792 13.2762C23.6547 14.0457 24.4915 14.6531 25.4287 15.0544C26.3659 15.4556 27.3798 15.6404 28.3966 15.5955C29.4074 15.5965 30.4081 15.3917 31.3389 14.9932C32.2697 14.5948 33.1114 14.0108 33.814 13.2762C34.5569 12.5788 35.1455 11.7304 35.541 10.7868C35.9365 9.84315 36.13 8.82563 36.1087 7.80105ZM15.6548 9.53786C15.652 8.71561 15.4865 7.90224 15.168 7.14563C14.8495 6.38903 14.3844 5.70448 13.8001 5.1323C13.2528 4.50963 12.5793 4.01332 11.8253 3.67708C11.0714 3.34085 10.2546 3.17258 9.4306 3.18369C8.60301 3.15553 7.77934 3.31061 7.0173 3.63807C6.25527 3.96553 5.57329 4.45745 5.01918 5.07935C4.45712 5.66969 4.01962 6.3693 3.73322 7.13572C3.44682 7.90214 3.3175 8.71939 3.3531 9.53786C3.3785 11.1683 3.96797 12.7382 5.01918 13.9752C6.23368 15.0602 7.8102 15.6393 9.4306 15.5955C11.0496 15.6121 12.616 15.0151 13.8211 13.9222C14.9078 12.714 15.5546 11.1675 15.6548 9.53786Z" fill="#789372"/>
</svg>
