<svg width="24" height="24" viewBox="0 0 24 24" fill="none" xmlns="http://www.w3.org/2000/svg">
<path d="M13.723 20.0033C13.3698 20.6219 12.712 21.0037 11.9997 21.0037C11.2873 21.0037 10.6296 20.6219 10.2764 20.0033" stroke="#323232" stroke-width="1.5" stroke-linecap="round" stroke-linejoin="round"/>
<path fill-rule="evenodd" clip-rule="evenodd" d="M6.4991 8.99872V8.49761C6.4991 5.45928 8.96215 2.99622 12.0005 2.99622V2.99622C15.0388 2.99622 17.5019 5.45928 17.5019 8.49761V8.9987V8.9987C17.5019 11.5962 18.3443 14.1237 19.9029 16.2017V16.2017C20.0165 16.3533 20.0348 16.5561 19.9501 16.7255C19.8654 16.895 19.6922 17.002 19.5027 17.002H4.49826C4.30879 17.002 4.13559 16.895 4.05086 16.7255C3.96613 16.5561 3.98441 16.3533 4.09809 16.2017V16.2017C5.65661 14.1237 6.49909 11.5962 6.49909 8.9987L6.4991 8.99872Z" stroke="#323232" stroke-width="1.5" stroke-linecap="round" stroke-linejoin="round"/>
</svg>
