<svg width="24" height="24" viewBox="0 0 24 24" fill="none" xmlns="http://www.w3.org/2000/svg">
<path fill-rule="evenodd" clip-rule="evenodd" d="M5.25 9C5.25 8.58579 5.58579 8.25 6 8.25H14C14.4142 8.25 14.75 8.58579 14.75 9V13C14.75 13.4142 14.4142 13.75 14 13.75C13.5858 13.75 13.25 13.4142 13.25 13V9.75H6.75V13C6.75 13.4142 6.41421 13.75 6 13.75C5.58579 13.75 5.25 13.4142 5.25 13V9Z" fill="url(#paint0_linear_44_9318)"/>
<path fill-rule="evenodd" clip-rule="evenodd" d="M6.25 5C6.25 4.58579 6.58579 4.25 7 4.25H15C15.4142 4.25 15.75 4.58579 15.75 5V9C15.75 9.41421 15.4142 9.75 15 9.75H14C13.5858 9.75 13.25 9.41421 13.25 9C13.25 8.58579 13.5858 8.25 14 8.25H14.25V5.75H7.75V9C7.75 9.41421 7.41421 9.75 7 9.75C6.58579 9.75 6.25 9.41421 6.25 9V5Z" fill="url(#paint1_linear_44_9318)"/>
<path fill-rule="evenodd" clip-rule="evenodd" d="M17.2981 14.7019C16.0289 13.4327 13.9711 13.4327 12.7019 14.7019C11.4327 15.9711 11.4327 18.0289 12.7019 19.2981C13.9711 20.5673 16.0289 20.5673 17.2981 19.2981C18.5673 18.0289 18.5673 15.9711 17.2981 14.7019ZM18.3583 13.6409C16.5033 11.7863 13.4961 11.7864 11.6412 13.6413C9.78623 15.4963 9.78623 18.5038 11.6412 20.3588C13.4962 22.2138 16.5037 22.2138 18.3587 20.3588C20.2137 18.5038 20.2133 15.4959 18.3583 13.6409C18.3585 13.641 18.3582 13.6407 18.3583 13.6409Z" fill="url(#paint2_linear_44_9318)"/>
<path fill-rule="evenodd" clip-rule="evenodd" d="M6 16.25C6.41421 16.25 6.75 16.5858 6.75 17V20.25H15C15.4142 20.25 15.75 20.5858 15.75 21C15.75 21.4142 15.4142 21.75 15 21.75H6C5.58579 21.75 5.25 21.4142 5.25 21V17C5.25 16.5858 5.58579 16.25 6 16.25Z" fill="url(#paint3_linear_44_9318)"/>
<path fill-rule="evenodd" clip-rule="evenodd" d="M4.25 13C4.25 12.5858 4.58579 12.25 5 12.25H15C15.4142 12.25 15.75 12.5858 15.75 13C15.75 13.4142 15.4142 13.75 15 13.75H5.75V16.25H11C11.4142 16.25 11.75 16.5858 11.75 17C11.75 17.4142 11.4142 17.75 11 17.75H5C4.58579 17.75 4.25 17.4142 4.25 17V13Z" fill="url(#paint4_linear_44_9318)"/>
<defs>
<linearGradient id="paint0_linear_44_9318" x1="4.25" y1="21.75" x2="20.858" y2="20.6261" gradientUnits="userSpaceOnUse">
<stop stop-color="#1C007F"/>
<stop offset="1" stop-color="#A70096"/>
</linearGradient>
<linearGradient id="paint1_linear_44_9318" x1="4.25" y1="21.75" x2="20.858" y2="20.6261" gradientUnits="userSpaceOnUse">
<stop stop-color="#1C007F"/>
<stop offset="1" stop-color="#A70096"/>
</linearGradient>
<linearGradient id="paint2_linear_44_9318" x1="4.25" y1="21.75" x2="20.858" y2="20.6261" gradientUnits="userSpaceOnUse">
<stop stop-color="#1C007F"/>
<stop offset="1" stop-color="#A70096"/>
</linearGradient>
<linearGradient id="paint3_linear_44_9318" x1="4.25" y1="21.75" x2="20.858" y2="20.6261" gradientUnits="userSpaceOnUse">
<stop stop-color="#1C007F"/>
<stop offset="1" stop-color="#A70096"/>
</linearGradient>
<linearGradient id="paint4_linear_44_9318" x1="4.25" y1="21.75" x2="20.858" y2="20.6261" gradientUnits="userSpaceOnUse">
<stop stop-color="#1C007F"/>
<stop offset="1" stop-color="#A70096"/>
</linearGradient>
</defs>
</svg>
