<svg width="31" height="30" viewBox="0 0 31 30" fill="none" xmlns="http://www.w3.org/2000/svg">
<path fill-rule="evenodd" clip-rule="evenodd" d="M9.8995 12.4988H20.7378C21.2905 12.4987 21.8205 12.279 22.2112 11.888C22.602 11.4971 22.8213 10.9669 22.8211 10.4142V4.57925C22.8211 4.02633 22.6017 3.49601 22.2107 3.10504C21.8197 2.71406 21.2894 2.49448 20.7365 2.49463H9.89825C9.34552 2.49475 8.81549 2.71445 8.42477 3.1054C8.03405 3.49636 7.81467 4.02652 7.81488 4.57925V10.4154C7.81488 10.9682 8.0347 11.4982 8.42566 11.8889C8.81661 12.2796 9.34677 12.499 9.8995 12.4988Z" stroke="#9B00D4" stroke-width="1.5" stroke-linecap="round" stroke-linejoin="round"/>
<path d="M21.5139 24.8923H20.3248C20.0015 24.8921 19.6819 24.9615 19.3879 25.0958L14.6331 27.2612" stroke="#9B00D4" stroke-width="1.5" stroke-linecap="round" stroke-linejoin="round"/>
<path d="M26.5727 17.6116H23.4464C22.4104 17.6116 21.5706 18.4514 21.5706 19.4874V24.4894C21.5706 25.5254 22.4104 26.3652 23.4464 26.3652H26.5727" stroke="#9B00D4" stroke-width="1.5" stroke-linecap="round" stroke-linejoin="round"/>
<path d="M4.06332 26.3652H7.18963C8.22559 26.3652 9.06541 25.5254 9.06541 24.4894V19.4874C9.06541 18.4514 8.22559 17.6116 7.18963 17.6116H4.06332" stroke="#9B00D4" stroke-width="1.5" stroke-linecap="round" stroke-linejoin="round"/>
<path d="M22.0776 18.1469L18.2046 16.442C17.508 16.1354 16.7039 16.2 16.0651 16.6138L13.1153 18.5249C12.672 18.8122 12.3873 19.2891 12.3445 19.8156C12.3018 20.3422 12.506 20.8587 12.8972 21.2137V21.2137C13.405 21.6735 14.1388 21.7844 14.7598 21.4951L16.5183 20.6735L17.7545 21.7954C18.1158 22.1233 18.332 22.5813 18.3556 23.0686C18.3792 23.5559 18.2082 24.0326 17.8803 24.3939C17.8421 24.436 17.8021 24.4762 17.7601 24.5146L15.1405 26.9122C14.2796 27.7001 12.9603 27.7031 12.0958 26.9191L10.5211 25.4908C10.1334 25.1467 9.64608 24.9352 9.12994 24.8873" stroke="#9B00D4" stroke-width="1.5" stroke-linecap="round" stroke-linejoin="round"/>
<path d="M9.0907 18.9294L11.8213 17.9452C12.4493 17.7251 13.1426 17.7946 13.7144 18.1351" stroke="#9B00D4" stroke-width="1.5" stroke-linecap="round" stroke-linejoin="round"/>
<path d="M16.6448 6.16997C17.3776 6.90274 17.3776 8.0908 16.6448 8.82357C15.9121 9.55634 14.724 9.55634 13.9912 8.82357C13.2585 8.0908 13.2585 6.90274 13.9912 6.16997C14.3431 5.81806 14.8204 5.62036 15.318 5.62036C15.8157 5.62036 16.293 5.81806 16.6448 6.16997" stroke="#9B00D4" stroke-width="1.5" stroke-linecap="round" stroke-linejoin="round"/>
</svg>
