<svg width="31" height="30" viewBox="0 0 31 30" fill="none" xmlns="http://www.w3.org/2000/svg">
<path d="M9.56802 16.875H16.443" stroke="#9B00D4" stroke-width="1.5" stroke-linecap="round" stroke-linejoin="round"/>
<path d="M9.56802 21.25H13.318" stroke="#9B00D4" stroke-width="1.5" stroke-linecap="round" stroke-linejoin="round"/>
<path d="M13.318 26.25H7.06802C5.68677 26.25 4.56802 25.1313 4.56802 23.75V6.25C4.56802 4.86875 5.68677 3.75 7.06802 3.75H22.068C23.4493 3.75 24.568 4.86875 24.568 6.25V11.25" stroke="#9B00D4" stroke-width="1.5" stroke-linecap="round" stroke-linejoin="round"/>
<path fill-rule="evenodd" clip-rule="evenodd" d="M27.4093 16.4539L26.8405 15.8851C26.3518 15.3964 25.5605 15.3964 25.073 15.8851L17.2268 23.7351C17.1093 23.8526 17.0443 24.0114 17.0443 24.1764V26.2501H19.118C19.2843 26.2501 19.443 26.1839 19.5593 26.0676L27.4093 18.2214C27.898 17.7326 27.898 16.9414 27.4093 16.4539Z" stroke="#9B00D4" stroke-width="1.5" stroke-linecap="round" stroke-linejoin="round"/>
<path fill-rule="evenodd" clip-rule="evenodd" d="M9.56802 10.875V8.125H14.568V10.875L12.068 12.875L9.56802 10.875Z" stroke="#9B00D4" stroke-width="1.5" stroke-linecap="round" stroke-linejoin="round"/>
</svg>
