<svg width="31" height="30" viewBox="0 0 31 30" fill="none" xmlns="http://www.w3.org/2000/svg">
<path d="M6.74634 3.74512H23.0031C24.3844 3.74512 25.5042 4.86487 25.5042 6.24616V13.7493" stroke="#9B00D4" stroke-width="1.5" stroke-linecap="round" stroke-linejoin="round"/>
<path d="M14.2495 26.2547H6.74634" stroke="#9B00D4" stroke-width="1.5" stroke-linecap="round" stroke-linejoin="round"/>
<path d="M10.4979 13.7493V16.2503" stroke="#9B00D4" stroke-width="1.5" stroke-linecap="round" stroke-linejoin="round"/>
<path fill-rule="evenodd" clip-rule="evenodd" d="M4.2453 6.24623V23.7535C4.2453 24.6202 4.69405 25.4251 5.43125 25.8808C6.16845 26.3365 7.08903 26.3781 7.86431 25.9907L12.8664 23.4897C13.714 23.0661 14.2495 22.2 14.2495 21.2525V8.74727C14.248 7.80112 13.7128 6.93678 12.8664 6.51384L7.86431 4.0128C7.08963 3.62569 6.16982 3.66689 5.43284 4.1217C4.69587 4.57652 4.24663 5.38022 4.2453 6.24623Z" stroke="#9B00D4" stroke-width="1.5" stroke-linecap="round" stroke-linejoin="round"/>
<path fill-rule="evenodd" clip-rule="evenodd" d="M26.7547 27.5051H20.5021C19.8114 27.5051 19.2516 26.9452 19.2516 26.2546V20.002C19.2516 19.3113 19.8114 18.7515 20.5021 18.7515H26.7547C27.4453 18.7515 28.0052 19.3113 28.0052 20.002V26.2546C28.0052 26.9452 27.4453 27.5051 26.7547 27.5051Z" stroke="#9B00D4" stroke-width="1.5" stroke-linecap="round" stroke-linejoin="round"/>
<path d="M25.1177 22.198L23.2532 24.0575L22.1353 22.9421" stroke="#9B00D4" stroke-width="1.5" stroke-linecap="round" stroke-linejoin="round"/>
</svg>
