<svg width="0" height="0" class="hidden">
  <symbol xmlns="http://www.w3.org/2000/svg"  viewBox="0 0 32 32" id="list">
    <path d="m5.91607 4.583.0003-.0003c.67225-.67283 1.56806-1.03733 2.96494-1.2252 1.41129-.18981 3.25719-.19087 5.78539-.19087h2.6666c2.5282 0 4.3741.00106 5.7854.19087 1.3969.18787 2.2927.55237 2.9649 1.2252l.0003.0003c.6729.67225 1.0374 1.56806 1.2252 2.96494.1898 1.41126.1909 3.25726.1909 5.78536v5.3333c0 2.5282-.0011 4.3741-.1909 5.7854-.1878 1.3969-.5523 2.2927-1.2252 2.9649l-.0003.0003c-.6722.6728-1.568 1.0373-2.9649 1.2252-1.4113.1898-3.2572.1909-5.7854.1909h-2.6666c-2.5282 0-4.3741-.0011-5.78539-.1909-1.39688-.1879-2.29269-.5524-2.96494-1.2252l-.0003-.0003c-.67283-.6722-1.03732-1.568-1.2252-2.9649-.18981-1.4113-.19087-3.2572-.19087-5.7854v-5.3333c0-2.5281.00106-4.3741.19087-5.78536.18788-1.39688.55237-2.29269 1.2252-2.96494zm4.75063 7.2503c-.3979 0-.77939.158-1.06069.4393-.28131.2813-.43934.6629-.43934 1.0607s.15803.7793.43934 1.0607c.2813.2813.66279.4393 1.06069.4393h10.6666c.3979 0 .7794-.158 1.0607-.4393.2813-.2814.4393-.6629.4393-1.0607s-.158-.7794-.4393-1.0607-.6628-.4393-1.0607-.4393zm0 5.3333c-.3979 0-.77939.1581-1.06069.4394-.28131.2813-.43934.6628-.43934 1.0606s.15803.7794.43934 1.0607c.2813.2813.66279.4393 1.06069.4393h6.6666c.3979 0 .7794-.158 1.0607-.4393s.4393-.6629.4393-1.0607-.158-.7793-.4393-1.0606-.6628-.4394-1.0607-.4394z" ></path>
  </symbol>
   <!-- <symbol xmlns="http://www.w3.org/2000/svg" fill="none" viewBox="0 0 32 32" id="calendar">
    <g>
      <path d="m8.37311 5.93833.4602-.03675v-.46166-2.10667c0-.13261.05267-.25978.14644-.35355s.22095-.14645.35356-.14645c.1326 0 .25978.05268.35355.14645l.34634-.34634-.34634.34634c.09377.09377.14645.22094.14645.35355v2.01734.50987l.50979-.00997c.8808-.01722 1.8702-.01724 2.9902-.01724h5.3333c1.1201 0 2.1095.00002 2.9903.01724l.5097.00997v-.50987-2.01734c0-.13261.0527-.25978.1465-.35355s.2209-.14645.3535-.14645.2598.05268.3536.14645.1464.22094.1464.35355v2.10534.46131l.4599.03707c1.884.15187 2.9937.51447 3.7903 1.31225l.0005.00051c.7185.71739 1.084 1.68757 1.2605 3.25017h-25.35559c.17654-1.56172.54205-2.53286 1.2604-3.25017l.0005-.00051c.79661-.79776 1.90495-1.16035 3.79-1.31089z"></path>
      <path d="m27.4173 27.417-.0003.0003c-.6722.6728-1.568 1.0373-2.9649 1.2252-1.4113.1898-3.2572.1908-5.7854.1908h-5.3333c-2.5281 0-4.37408-.001-5.78534-.1908-1.39688-.1879-2.29269-.5524-2.96494-1.2252l-.0003-.0003c-.67283-.6723-1.03733-1.5681-1.2252-2.965-.18981-1.4112-.19087-3.2572-.19087-5.7853v-2.6667c0-.9168.00001-1.7461.00946-2.5h25.64769c.0095.7539.0095 1.5832.0095 2.5v2.6667c0 2.5281-.0011 4.3741-.1909 5.7853-.1878 1.3969-.5523 2.2927-1.2252 2.965zm-6.0469-11.38.3535.3535-.3535-.3535c-.3438.3438-.537.8101-.537 1.2963 0 .4863.1932.9526.537 1.2964l.3535-.3536-.3535.3536c.3438.3438.8101.537 1.2963.537.4863 0 .9526-.1932 1.2964-.537s.537-.8101.537-1.2964c0-.4862-.1932-.9525-.537-1.2963s-.8101-.537-1.2964-.537c-.4862 0-.9525.1932-1.2963.537zm1.2963 8.463c.4863 0 .9526-.1932 1.2964-.537s.537-.8101.537-1.2963c0-.4863-.1932-.9526-.537-1.2964s-.8101-.537-1.2964-.537c-.4862 0-.9525.1932-1.2963.537s-.537.8101-.537 1.2964c0 .4862.1932.9525.537 1.2963s.8101.537 1.2963.537zm-5.3703-5.8703c.3439-.3438.537-.8101.537-1.2964 0-.4862-.1931-.9525-.537-1.2963-.3438-.3438-.8101-.537-1.2963-.537s-.9526.1932-1.2964.537-.537.8101-.537 1.2963c0 .4863.1932.9526.537 1.2964s.8101.537 1.2964.537c.4862 0 .9525-.1932 1.2963-.537zm0 5.3333c.3439-.3438.537-.8101.537-1.2963 0-.4863-.1931-.9526-.537-1.2964-.3438-.3438-.8101-.537-1.2963-.537s-.9526.1932-1.2964.537-.537.8101-.537 1.2964c0 .4862.1932.9525.537 1.2963s.8102.537 1.2964.537.9525-.1932 1.2963-.537zm-7.96299-4.7963c.48624 0 .95259-.1932 1.29639-.537s.5369-.8101.5369-1.2964c0-.4862-.1931-.9525-.5369-1.2963s-.81016-.537-1.29639-.537-.95254.1932-1.29636.537c-.34381.3438-.53697.8101-.53697 1.2963 0 .4863.19316.9526.53697 1.2964.34382.3438.81013.537 1.29636.537zm0 5.3333c.48623 0 .95259-.1932 1.29639-.537s.5369-.8101.5369-1.2963c0-.4863-.1931-.9526-.5369-1.2964s-.81016-.537-1.29639-.537c-.48622 0-.95254.1932-1.29636.537-.34381.3438-.53697.8101-.53697 1.2964 0 .4862.19316.9525.53697 1.2963.34382.3438.81014.537 1.29636.537z"></path>
    </g>
  </symbol> -->
   <symbol xmlns="http://www.w3.org/2000/svg" xmlns:xlink="http://www.w3.org/1999/xlink" viewBox="0 0 32 32" id="clock">
    <clipPath id="a">
      <path d="m0 0h32v32h-32z"></path>
    </clipPath>
    <g clip-path="url(#a)">
      <path d="m14.1667 16.0001v.0001c.0002.4862.1934.9524.5372 1.2961v.0001l4 3.9999-.0001.0001.0063.006c.3457.3339.8088.5187 1.2895.5146.4807-.0042.9405-.197 1.2805-.5369.3399-.34.5327-.7998.5369-1.2805.0041-.4807-.1807-.9438-.5146-1.2895v-.0001l-.0061-.0061-3.4629-3.4629v-5.90759c0-.48623-.1931-.95254-.537-1.29636-.3438-.34381-.8101-.53697-1.2963-.53697-.4863 0-.9526.19316-1.2964.53697-.3438.34382-.537.81013-.537 1.29636zm1.8334-12.83335c7.0878 0 12.8333 5.74547 12.8333 12.83335 0 7.0878-5.7455 12.8333-12.8333 12.8333-7.08788 0-12.83335-5.7455-12.83335-12.8333 0-7.08788 5.74547-12.83335 12.83335-12.83335z" ></path>
    </g>
  </symbol>
    <symbol xmlns="http://www.w3.org/2000/svg" viewBox="0 0 448 512" id="arrow-right">
    <path d="M438.6 278.6c12.5-12.5 12.5-32.8 0-45.3l-160-160c-12.5-12.5-32.8-12.5-45.3 0s-12.5 32.8 0 45.3L338.8 224 32 224c-17.7 0-32 14.3-32 32s14.3 32 32 32l306.7 0L233.4 393.4c-12.5 12.5-12.5 32.8 0 45.3s32.8 12.5 45.3 0l160-160z"></path>
  </symbol>
    <symbol xmlns="http://www.w3.org/2000/svg" viewBox="0 0 32 33" id="arrow-graph">
    <path d="m17.2057 17.5899c.0405.0168.0839.0254.1277.0254.0439 0 .0873-.0086.1278-.0254s.0773-.0414.1082-.0725zm0 0c-.0405-.0168-.0773-.0414-.1083-.0725zm9.8211 9.9364-.0004.0003c-.8676.8682-2.0181 1.3304-3.778 1.5671-1.7742.2386-4.0915.2397-7.2483.2397s-5.4738-.0011-7.24803-.2397c-1.75972-.2367-2.91074-.6988-3.77977-1.5672-.86759-.8676-1.32946-2.0181-1.56601-3.778-.23848-1.7743-.23954-4.0916-.23954-7.2484s.00106-5.4738.23954-7.24808c.23652-1.7597.69833-2.91073 1.56602-3.77973.86828-.86762 2.01921-1.32946 3.7792-1.566 1.77449-.23848 4.09179-.23954 7.24859-.23954s5.4744.00106 7.2489.23954c1.7601.23656 2.9105.69843 3.7774 1.56589l.0001.00012c.8683.86831 1.3305 2.01924 1.5672 3.77926.2386 1.77444.2397 4.09174.2397 7.24854s-.0011 5.4744-.2397 7.2488c-.2367 1.7601-.6989 2.9105-1.5669 3.7774zm-9.1934-13.6929c0 .7381.5337 1.3521 1.2361 1.4768l-1.7361 1.7361-1.9971-1.9971-.0001-.0001c-.5313-.531-1.2517-.8292-2.0028-.8292s-1.4715.2982-2.0027.8292l-.0002.0001-3.0517 3.0517c-.14408.136-.25981.2993-.34048.4803-.08198.184-.12606.3826-.12962.584-.00355.2014.0335.4015.10894.5883s.18773.3564.33017.4988l.35355-.3535-.35355.3536c.14243.1424.3121.2547.49889.3301.18677.0755.38682.1125.58823.109.20141-.0036.40003-.0477.58404-.1297.18103-.0806.34423-.1964.48023-.3404l2.9342-2.9342 1.9971 1.9971.0002.0001c.5312.5309 1.2516.8292 2.0027.8292s1.4715-.2983 2.0028-.8292l1.854-1.8531c.0537.2995.1977.578.4159.7961.2813.2813.6628.4393 1.0606.4393.3979 0 .7794-.158 1.0607-.4393s.4393-.6628.4393-1.0607v-3.3333c0-.3978-.158-.7793-.4393-1.0606-.2813-.2814-.6628-.4394-1.0607-.4394h-3.3333c-.3978 0-.7793.1581-1.0606.4394l.3535.3535-.3535-.3535c-.2813.2813-.4394.6628-.4394 1.0606z"></path>
  </symbol>
  <symbol xmlns="http://www.w3.org/2000/svg"  viewBox="0 0 32 33" id="moneybox">
    <path d="m3.78601 25.0912c-.02882-.0952-.05862-.1901-.08939-.2847-.00018-.0005-.00037-.0011-.00056-.0017l-.04461-.1406-.0004-.0012c-.10255-.3201-.20225-.6411-.29907-.9629l-.00213-.0071-.00233-.007-.00898-.0269c-.78736-2.6316-2.17061-7.3043-.17184-11.7375h.00001c.14843-.3293.31528-.6499.49975-.9604l.22297-.3753-.3418-.2716c-1.02835-.81698-2.04082-1.94882-2.599772-3.44355-.071369-.22539-.054101-.46966.048506-.68291.103916-.21597.287326-.3834.511846-.46726.22453-.08386.47278-.07766.69284.01731.21742.09383.39067.26712.48449.48431.4193 1.11064 1.19738 1.99504 2.0504 2.6644l.33072.25952.31245-.28125c.73453-.66116 1.56162-1.21158 2.45513-1.63384l.00215-.00103c2.18541-1.04559 5.10081-1.60436 8.94431-1.47361l.517.01759v-.39576c1.5231-2.82283 4.6005-3.5678 6.2271-3.49405h.0001c.4706.02128.7963.23367 1.0153.52132.2286.30048.3404.68624.3404 1.01348v4.00685.30823l.2754.13848c1.5137.76119 2.5012 1.76112 3.1063 2.99007.6 1.2236.7928 2.6201.8264 4.1082l.0052.2297.1776.1456 1.5886 1.3029.0001.0001c.0736.0603.1329.1362.1736.2223.0407.086.0617.18.0617.2752v.0004 5.0703.0005c-.0004.0932-.021.1851-.0605.2695l-.0004.0009c-1.1762 2.5306-3.2608 3.9195-5.8361 4.9268l-.3179.1244v.3413 1.456c0 .4736-.1881.9278-.523 1.2627s-.7891.523-1.2627.523h-4c-.4736 0-.9278-.1881-1.2627-.523s-.523-.7891-.523-1.2627v-1.1063-.5h-.5-4.8915-.5v.5.928c0 .4736-.1881.9278-.523 1.2627s-.7891.523-1.26267.523h-4.03886c-.4736 0-.9278-.1881-1.26269-.523-.33488-.3349-.52302-.7891-.52302-1.2627v-3.9223-.074zm17.14939-8.9744.3625-.3444-.3625.3444c.3975.4183.9405.668 1.5168.6975.3049.0156.6097-.031.896-.1369s.5481-.269.7694-.4793c.2213-.2102.3975-.4633.5179-.7438.1204-.2806.1825-.5826.1825-.8879s-.0621-.6074-.1825-.8879-.2966-.5336-.5179-.7438c-.2213-.2103-.4831-.3734-.7694-.4793s-.5911-.1525-.896-.1369c-.5763.0295-1.1193.2791-1.5168.6975-.3974.4183-.6191.9733-.6191 1.5504s.2217 1.1321.6191 1.5504zm-5.5068-2.4835c1.0647 0 1.9286-.8639 1.9286-1.9286 0-1.0642-.8611-1.92859-1.9286-1.92859h-4.2377c-.5115 0-1.002.20319-1.36372.56489-.36168.3617-.56486.8522-.56486 1.3637s.20318 1.002.56486 1.3637c.36172.3617.85222.5649 1.36372.5649z"></path>
  </symbol>
    <symbol xmlns="http://www.w3.org/2000/svg" viewBox="0 0 448 512" id="calendar">
    <path d="M128 0c17.7 0 32 14.3 32 32V64H288V32c0-17.7 14.3-32 32-32s32 14.3 32 32V64h48c26.5 0 48 21.5 48 48v48H0V112C0 85.5 21.5 64 48 64H96V32c0-17.7 14.3-32 32-32zM0 192H448V464c0 26.5-21.5 48-48 48H48c-26.5 0-48-21.5-48-48V192zm64 80v32c0 8.8 7.2 16 16 16h32c8.8 0 16-7.2 16-16V272c0-8.8-7.2-16-16-16H80c-8.8 0-16 7.2-16 16zm128 0v32c0 8.8 7.2 16 16 16h32c8.8 0 16-7.2 16-16V272c0-8.8-7.2-16-16-16H208c-8.8 0-16 7.2-16 16zm144-16c-8.8 0-16 7.2-16 16v32c0 8.8 7.2 16 16 16h32c8.8 0 16-7.2 16-16V272c0-8.8-7.2-16-16-16H336zM64 400v32c0 8.8 7.2 16 16 16h32c8.8 0 16-7.2 16-16V400c0-8.8-7.2-16-16-16H80c-8.8 0-16 7.2-16 16zm144-16c-8.8 0-16 7.2-16 16v32c0 8.8 7.2 16 16 16h32c8.8 0 16-7.2 16-16V400c0-8.8-7.2-16-16-16H208zm112 16v32c0 8.8 7.2 16 16 16h32c8.8 0 16-7.2 16-16V400c0-8.8-7.2-16-16-16H336c-8.8 0-16 7.2-16 16z"></path>
  </symbol>
</svg>