<svg width="0" height="0" class="hidden">
    <symbol  xmlns="http://www.w3.org/2000/svg" viewBox="0 0 37 37" id="logo">
        <path d="M19.3346 2.06127C19.0732 1.25529 17.9268 1.25529 17.6654 2.06127L13.9199 13.6128C13.8029 13.9737 13.4647 14.2181 13.0834 14.2172L0.880508 14.1907C0.0290843 14.1889 -0.325193 15.2734 0.364717 15.7696L10.2527 22.8823C10.5617 23.1046 10.6909 23.4999 10.5723 23.8604L6.77598 35.3955C6.51111 36.2003 7.43863 36.8706 8.12635 36.3713L17.983 29.2157C18.291 28.9921 18.709 28.9921 19.017 29.2157L27.5736 35.4275C27.9905 34.7537 28.1989 33.9382 28.1989 32.9811C28.1989 32.2257 27.9711 31.5505 27.5154 30.9554C27.0826 30.3603 26.5358 29.8338 25.8751 29.376C25.2143 28.9182 24.2916 28.346 23.1069 27.6593C21.6032 26.8124 20.3843 26.0456 19.4502 25.359C18.5161 24.6723 17.7187 23.8139 17.058 22.7839C16.3972 21.731 16.0669 20.495 16.0669 19.0759C16.0669 17.9543 16.3745 16.9472 16.9896 16.0545C17.6275 15.1389 18.573 14.4179 19.8261 13.8915C20.7158 13.5014 21.749 13.2499 22.9258 13.1367L19.3346 2.06127Z" ></path>
        <path d="M23.838 14.2139C23.864 14.2162 23.8902 14.2173 23.9166 14.2172L26.8105 14.2109C27.1933 14.3507 27.5536 14.5417 27.8914 14.7841C28.7116 15.3564 29.3951 16.0774 29.9419 16.9472C30.4878 17.7699 30.9079 18.68 31.2023 19.6777L26.7473 22.8823C26.6625 22.9433 26.5912 23.0173 26.5349 23.1001C25.6766 22.5903 24.9668 22.1416 24.4055 21.7539C23.6993 21.2503 23.0955 20.6667 22.5943 20.0029C22.1158 19.3162 21.8766 18.5494 21.8766 17.7025C21.8766 16.6038 22.1956 15.6997 22.8335 14.9901C23.1395 14.6498 23.4744 14.391 23.838 14.2139Z" ></path>
        <path d="M32.6417 18.6423V14.1983L36.1195 14.1907C36.9709 14.1889 37.3252 15.2734 36.6353 15.7696L32.6417 18.6423Z" ></path>
    </symbol>
    <symbol xmlns="http://www.w3.org/2000/svg" viewBox="0 0 14 6" id="arrow">
        <path d="M14 3L9 0.113249L9 5.88675L14 3ZM-4.37114e-08 3.5L9.5 3.5L9.5 2.5L4.37114e-08 2.5L-4.37114e-08 3.5Z"></path>
    </symbol>
</svg>