<svg width="18" height="18" viewBox="0 0 18 18" fill="none" xmlns="http://www.w3.org/2000/svg">
<rect x="1.49707" y="8.24969" width="10.5044" height="7.50313" rx="2" stroke="#323232" stroke-linecap="round" stroke-linejoin="round"/>
<path d="M5.62305 13.1267L7.87398 10.8758" stroke="#060011" stroke-linecap="round" stroke-linejoin="round"/>
<path d="M4.99316 8.24969L6.30621 3.35766C6.40922 2.9733 6.66094 2.64573 7.00582 2.44725C7.35071 2.24877 7.7604 2.19568 8.14448 2.29972L15.3925 4.24303C15.7769 4.34603 16.1044 4.59775 16.3029 4.94264C16.5014 5.28752 16.5545 5.69721 16.4504 6.08129L15.2875 10.4256C15.0725 11.2263 14.2508 11.7025 13.4492 11.491L12.0011 11.1009" stroke="#060011" stroke-linecap="round" stroke-linejoin="round"/>
<path d="M8.06209 13.2769C8.06206 13.2976 8.04526 13.3144 8.02456 13.3143C8.00385 13.3143 7.98706 13.2976 7.98705 13.2768C7.98705 13.2561 8.00382 13.2393 8.02453 13.2393C8.03449 13.2393 8.04405 13.2433 8.0511 13.2503C8.05814 13.2573 8.0621 13.2669 8.06209 13.2769" stroke="#060011" stroke-linecap="round" stroke-linejoin="round"/>
<path d="M5.5113 10.7258C5.51128 10.7465 5.49448 10.7633 5.47377 10.7633C5.45307 10.7632 5.43628 10.7465 5.43627 10.7258C5.43627 10.705 5.45304 10.6883 5.47374 10.6882C5.48371 10.6882 5.49327 10.6922 5.50032 10.6992C5.50736 10.7063 5.51132 10.7158 5.5113 10.7258" stroke="#323232" stroke-linecap="round" stroke-linejoin="round"/>
</svg>
