<svg width="18" height="18" viewBox="0 0 18 18" fill="none" xmlns="http://www.w3.org/2000/svg">
<path d="M5.99902 13.1268L7.49965 14.6274L5.99902 16.128" stroke="#060011" stroke-linecap="round" stroke-linejoin="round"/>
<path d="M7.49895 14.6274H2.99707" stroke="#060011" stroke-linecap="round" stroke-linejoin="round"/>
<path d="M10.4983 15.2077C13.3036 14.569 15.3959 12.2227 15.7104 9.36287C16.0249 6.50304 14.4925 3.75809 11.893 2.52503C9.29356 1.29198 6.19827 1.84175 4.18245 3.89455C2.16662 5.94736 1.67319 9.05213 2.95329 11.6287" stroke="#060011" stroke-linecap="round" stroke-linejoin="round"/>
<path d="M9.00016 6.36921V5.6189" stroke="#060011" stroke-linecap="round" stroke-linejoin="round"/>
<path d="M9.00016 10.871V11.6213" stroke="#060011" stroke-linecap="round" stroke-linejoin="round"/>
<path d="M7.69889 10.3354C7.8917 10.6645 8.24336 10.8679 8.62477 10.8711H9.45012C9.99065 10.8847 10.4532 10.4858 10.5192 9.94913C10.5852 9.41246 10.233 8.91338 9.70522 8.79571L8.29914 8.44231C7.7777 8.32012 7.43168 7.82521 7.49595 7.29352C7.56022 6.76183 8.01421 6.36362 8.54974 6.3692H9.37508C9.75685 6.37178 10.109 6.57537 10.3017 6.90492" stroke="#060011" stroke-linecap="round" stroke-linejoin="round"/>
</svg>
