<svg width="10" height="10" viewBox="0 0 10 10" fill="none" xmlns="http://www.w3.org/2000/svg">
<path d="M5.70304 9.24404L5.70841 2.42652L8.04668 4.7594C8.1128 4.82722 8.19178 4.88116 8.27901 4.91808C8.36623 4.955 8.45994 4.97415 8.55465 4.97442C8.69486 4.97244 8.83136 4.92912 8.94705 4.84989C9.06274 4.77066 9.15246 4.65904 9.20499 4.52903C9.25751 4.39902 9.27048 4.2564 9.24229 4.11904C9.21409 3.98169 9.14598 3.85571 9.04649 3.7569L5.4934 0.198448C5.42725 0.132217 5.3487 0.0796743 5.26223 0.0438258C5.17576 0.00797729 5.08307 -0.0104743 4.98946 -0.0104741C4.89586 -0.010474 4.80317 0.0079778 4.7167 0.0438265C4.63023 0.0796753 4.55168 0.132218 4.48553 0.198449L0.932436 3.75692C0.236331 4.42883 1.27377 5.4582 1.94031 4.75941L4.28664 2.41308L4.28126 9.24405C4.2753 9.34108 4.28925 9.4383 4.32228 9.52974C4.35531 9.62117 4.4067 9.70487 4.4733 9.77569C4.5399 9.84651 4.62029 9.90295 4.70952 9.94153C4.79875 9.9801 4.89494 10 4.99215 10C5.08937 10 5.18555 9.9801 5.27479 9.94153C5.36402 9.90295 5.44441 9.84651 5.51101 9.77569C5.5776 9.70487 5.629 9.62117 5.66202 9.52973C5.69505 9.4383 5.70901 9.34107 5.70304 9.24404Z" fill="#44B66A"/>
</svg>
