<svg width="48" height="50" viewBox="0 0 48 50" fill="none" xmlns="http://www.w3.org/2000/svg">
<path fill-rule="evenodd" clip-rule="evenodd" d="M21.0488 1.22163C21.4364 0.83433 21.8964 0.527103 22.4028 0.317494C22.9092 0.107885 23.4519 0 24 0C24.5481 0 25.0908 0.107885 25.5972 0.317494C26.1036 0.527103 26.5636 0.83433 26.9512 1.22163L30.3143 4.58199C30.4679 4.73548 30.6867 4.80757 30.9031 4.77269L35.5999 4.03085C36.693 3.85808 37.81 4.12599 38.7055 4.77571C39.601 5.42543 40.2018 6.40381 40.3757 7.49586L41.1182 12.1887C41.1352 12.2953 41.1772 12.3963 41.2407 12.4836C41.3042 12.5709 41.3874 12.6419 41.4836 12.6911L45.7195 14.8468C46.7051 15.3496 47.4509 16.2226 47.793 17.2743C48.1351 18.3259 48.0456 19.4702 47.5442 20.4559L45.3866 24.6907C45.3373 24.7863 45.3115 24.8924 45.3115 25C45.3115 25.1076 45.3373 25.2137 45.3866 25.3093L47.5442 29.5441C47.7934 30.032 47.9439 30.5642 47.987 31.1103C48.0302 31.6564 47.9652 32.2057 47.7957 32.7266C47.6262 33.2476 47.3556 33.7301 46.9994 34.1464C46.6431 34.5628 46.2082 34.9049 45.7195 35.1532L41.4836 37.3089C41.3874 37.3581 41.3042 37.4291 41.2407 37.5164C41.1772 37.6037 41.1352 37.7047 41.1182 37.8113L40.3757 42.5041C40.2018 43.5962 39.601 44.5746 38.7055 45.2243C37.81 45.874 36.693 46.1419 35.5999 45.9692L30.9031 45.2273C30.7969 45.2102 30.6881 45.2186 30.5857 45.2518C30.4833 45.2849 30.3903 45.3419 30.3143 45.418L26.9512 48.7784C26.5636 49.1657 26.1036 49.4729 25.5972 49.6825C25.0908 49.8921 24.5481 50 24 50C23.4519 50 22.9092 49.8921 22.4028 49.6825C21.8964 49.4729 21.4364 49.1657 21.0488 48.7784L17.6857 45.418C17.6097 45.3419 17.5167 45.2849 17.4143 45.2518C17.3119 45.2186 17.2031 45.2102 17.0969 45.2273L12.4001 45.9692C11.307 46.1419 10.19 45.874 9.29448 45.2243C8.39896 44.5746 7.79822 43.5962 7.62428 42.5041L6.88183 37.8113C6.86475 37.7047 6.82276 37.6037 6.75927 37.5164C6.69578 37.4291 6.61258 37.3581 6.51643 37.3089L2.28053 35.1532C1.29486 34.6504 0.549124 33.7774 0.207022 32.7257C-0.13508 31.6741 -0.0455964 30.5298 0.45583 29.5441L2.61335 25.3093C2.66274 25.2137 2.68852 25.1076 2.68852 25C2.68852 24.8924 2.66274 24.7863 2.61335 24.6907L0.45583 20.4559C0.20661 19.968 0.056112 19.4358 0.0129471 18.8897C-0.0302177 18.3436 0.0347971 17.7943 0.204272 17.2734C0.373748 16.7524 0.644358 16.2699 1.00062 15.8536C1.35689 15.4372 1.79182 15.0951 2.28053 14.8468L6.51643 12.6911C6.61258 12.6419 6.69578 12.5709 6.75927 12.4836C6.82276 12.3963 6.86475 12.2953 6.88183 12.1887L7.62428 7.49586C7.79822 6.40381 8.39896 5.42543 9.29448 4.77571C10.19 4.12599 11.307 3.85808 12.4001 4.03085L17.0969 4.77269C17.2031 4.78975 17.3119 4.78137 17.4143 4.74821C17.5167 4.71506 17.6097 4.65809 17.6857 4.58199L21.0488 1.22163ZM14.6205 26.2325L20.0504 31.6603C20.2125 31.8223 20.405 31.9509 20.6168 32.0386C20.8287 32.1264 21.0557 32.1715 21.2851 32.1715C21.5144 32.1715 21.7415 32.1264 21.9533 32.0386C22.1652 31.9509 22.3577 31.8223 22.5198 31.6603L33.3795 20.8071C33.6976 20.4783 33.8738 20.0378 33.87 19.5805C33.8663 19.1232 33.6829 18.6857 33.3594 18.3621C33.0359 18.0386 32.5982 17.855 32.1405 17.8508C31.6828 17.8466 31.2418 18.0222 30.9124 18.3397L21.2839 27.9604L17.0876 23.7675C16.9256 23.6056 16.7333 23.4772 16.5216 23.3896C16.31 23.302 16.0831 23.257 15.854 23.257C15.6249 23.257 15.3981 23.302 15.1865 23.3896C14.9748 23.4772 14.7825 23.6056 14.6205 23.7675C14.4585 23.9293 14.33 24.1215 14.2423 24.333C14.1547 24.5444 14.1096 24.7711 14.1096 25C14.1096 25.2289 14.1547 25.4556 14.2423 25.667C14.33 25.8785 14.4585 26.0707 14.6205 26.2325Z" fill="url(#paint0_linear_361_753)"/>
<defs>
<linearGradient id="paint0_linear_361_753" x1="24" y1="3.33918e-05" x2="24.0001" y2="50" gradientUnits="userSpaceOnUse">
<stop stop-color="#159256"/>
<stop offset="1" stop-color="#44B66A"/>
</linearGradient>
</defs>
</svg>
