<svg width="50" height="50" viewBox="0 0 50 50" fill="none" xmlns="http://www.w3.org/2000/svg">
<g clip-path="url(#clip0_374_493)">
<rect width="50" height="50" rx="25" fill="#44B66A"/>
<g filter="url(#filter0_d_374_493)">
<path d="M29.7472 33.5821C29.2902 33.7598 27.8433 34.1829 27.1833 33.8063C27.0922 33.7534 27.0154 33.6792 26.9594 33.59C26.9034 33.5009 26.8699 33.3994 26.8618 33.2944C26.6545 31.9744 27.6402 28.924 28.1733 27.2867C28.351 26.7409 28.4779 26.3433 28.5287 26.1021C28.9137 24.3209 28.7233 22.9586 27.9618 22.0533C27.0454 20.9638 25.4199 20.7519 24.0864 20.949C22.7304 21.1298 21.4053 21.4941 20.1475 22.0321C20.0891 22.0604 20.0381 22.1019 19.9984 22.1533C19.9588 22.2047 19.9316 22.2646 19.9191 22.3283L19.6441 23.644C19.6292 23.718 19.6343 23.7946 19.6588 23.866C19.6834 23.9374 19.7265 24.001 19.7837 24.0502C19.8416 24.0983 19.9111 24.1306 19.9852 24.144C20.0593 24.1573 20.1357 24.1513 20.2068 24.1263C20.7102 23.9402 22.2841 23.5213 22.8468 24.0375C23.1641 24.3294 23.0752 24.9471 22.9483 25.4083C22.8172 25.8906 22.6606 26.4109 22.4998 26.9567C21.4591 30.4979 20.2745 34.5129 22.1529 35.7652C23.0417 36.4437 24.1234 36.8216 25.2414 36.844C26.3414 36.844 27.6995 36.4971 29.6541 35.7059C29.713 35.683 29.766 35.6472 29.8092 35.6011C29.8524 35.5549 29.8847 35.4997 29.9037 35.4394L30.3056 34.0983C30.3284 34.0218 30.3294 33.9405 30.3084 33.8635C30.2875 33.7865 30.2455 33.7169 30.1872 33.6625C30.1288 33.609 30.0566 33.5732 29.9787 33.5589C29.9009 33.5447 29.8206 33.5527 29.7472 33.5821ZM27.3018 13.1559C26.6965 13.1564 26.105 13.3362 25.602 13.6727C25.0989 14.0092 24.7069 14.4873 24.4755 15.0465C24.2441 15.6057 24.1837 16.221 24.3018 16.8146C24.42 17.4082 24.7115 17.9534 25.1395 18.3813C25.5674 18.8093 26.1126 19.1008 26.7062 19.2189C27.2998 19.3371 27.9151 19.2767 28.4743 19.0453C29.0335 18.8139 29.5116 18.4219 29.8481 17.9188C30.1846 17.4158 30.3644 16.8242 30.3648 16.219C30.3646 15.4067 30.0418 14.6277 29.4674 14.0533C28.8931 13.479 28.1141 13.1562 27.3018 13.1559Z" fill="white"/>
</g>
</g>
<defs>
<filter id="filter0_d_374_493" x="15.6357" y="11.1559" width="18.729" height="31.6881" filterUnits="userSpaceOnUse" color-interpolation-filters="sRGB">
<feFlood flood-opacity="0" result="BackgroundImageFix"/>
<feColorMatrix in="SourceAlpha" type="matrix" values="0 0 0 0 0 0 0 0 0 0 0 0 0 0 0 0 0 0 127 0" result="hardAlpha"/>
<feOffset dy="2"/>
<feGaussianBlur stdDeviation="2"/>
<feComposite in2="hardAlpha" operator="out"/>
<feColorMatrix type="matrix" values="0 0 0 0 0 0 0 0 0 0 0 0 0 0 0 0 0 0 0.25 0"/>
<feBlend mode="normal" in2="BackgroundImageFix" result="effect1_dropShadow_374_493"/>
<feBlend mode="normal" in="SourceGraphic" in2="effect1_dropShadow_374_493" result="shape"/>
</filter>
<clipPath id="clip0_374_493">
<rect width="50" height="50" fill="white"/>
</clipPath>
</defs>
</svg>
