<svg width="50" height="50" viewBox="0 0 50 50" fill="none" xmlns="http://www.w3.org/2000/svg">
<g id="Frame" clip-path="url(#clip0_361_1800)">
<rect id="bg" width="50" height="50" rx="25" fill="#44B66A"/>
<g id="Vector" filter="url(#filter0_d_361_1800)">
<path d="M38.9312 23.8692L33.6554 17.7121C33.3802 17.3914 33.0389 17.1339 32.6549 16.9574C32.2709 16.7808 31.8533 16.6893 31.4307 16.6892H27.4426C26.9243 16.6892 26.4273 16.895 26.0609 17.2615C25.6944 17.6279 25.4885 18.125 25.4885 18.6432V26.4593H23.5345V17.6662C23.5345 17.3037 23.3137 16.9725 23.0421 16.8181L16.203 12.9101C16.0537 12.8309 15.8867 12.7909 15.7178 12.7938C15.5488 12.7968 15.3833 12.8425 15.2368 12.9267C15.0897 13.0111 14.9669 13.1319 14.8802 13.2775C14.7934 13.4232 14.7456 13.5887 14.7414 13.7581V19.6202H12.7874V18.6432C12.7874 18.3841 12.6845 18.1356 12.5012 17.9523C12.318 17.7691 12.0695 17.6662 11.8104 17.6662C11.5513 17.6662 11.3028 17.7691 11.1195 17.9523C10.9363 18.1356 10.8334 18.3841 10.8334 18.6432V19.6202C10.8334 20.1384 11.0392 20.6355 11.4057 21.0019C11.7721 21.3684 12.2692 21.5742 12.7874 21.5742H14.7414C15.2597 21.5742 15.7567 21.3684 16.1231 21.0019C16.4896 20.6355 16.6954 20.1384 16.6954 19.6202V16.4185L20.3524 18.5963L18.882 20.3237C18.7325 20.5005 18.6495 20.7242 18.6495 20.9568V26.4593H13.7644C13.2462 26.4593 12.7492 26.6652 12.3827 27.0316C12.0163 27.3981 11.8104 27.8951 11.8104 28.4133V31.3443C11.8104 31.8626 12.0163 32.3596 12.3827 32.726C12.7492 33.0925 13.2462 33.2984 13.7644 33.2984H14.7414C14.7414 35.4537 16.4942 37.2064 18.6495 37.2064C20.8048 37.2064 22.5575 35.4537 22.5575 33.2984H27.4426C27.4426 35.4537 29.1953 37.2064 31.3506 37.2064C33.5059 37.2064 35.2587 35.4537 35.2587 33.2984H37.2127C37.7309 33.2984 38.2279 33.0925 38.5944 32.726C38.9608 32.3596 39.1667 31.8626 39.1667 31.3443V24.5062C39.1667 24.2727 39.0827 24.047 38.9312 23.8692ZM18.6495 35.2524C17.5718 35.2524 16.6954 34.376 16.6954 33.2984C16.6954 32.3126 17.5357 31.3443 18.6495 31.3443C19.7584 31.3443 20.6035 32.3087 20.6035 33.2984C20.6035 34.376 19.7271 35.2524 18.6495 35.2524ZM31.3506 35.2524C30.273 35.2524 29.3966 34.376 29.3966 33.2984C29.3966 32.3126 30.2368 31.3443 31.3506 31.3443C32.4595 31.3443 33.3046 32.3087 33.3046 33.2984C33.3046 34.376 32.4283 35.2524 31.3506 35.2524ZM35.8146 24.5053H28.4196V20.1087C28.4196 19.9792 28.471 19.8549 28.5627 19.7633C28.6543 19.6717 28.7785 19.6202 28.9081 19.6202H32.0931C32.2416 19.6202 32.3814 19.6876 32.4742 19.8039L35.9729 24.177C35.9966 24.2068 36.0114 24.2426 36.0157 24.2805C36.0199 24.3183 36.0134 24.3566 35.9969 24.3909C35.9803 24.4251 35.9544 24.4541 35.9222 24.4743C35.89 24.4946 35.8527 24.5053 35.8146 24.5053Z" fill="white"/>
</g>
</g>
<defs>
<filter id="filter0_d_361_1800" x="6.83337" y="10.7937" width="36.3334" height="32.4126" filterUnits="userSpaceOnUse" color-interpolation-filters="sRGB">
<feFlood flood-opacity="0" result="BackgroundImageFix"/>
<feColorMatrix in="SourceAlpha" type="matrix" values="0 0 0 0 0 0 0 0 0 0 0 0 0 0 0 0 0 0 127 0" result="hardAlpha"/>
<feOffset dy="2"/>
<feGaussianBlur stdDeviation="2"/>
<feComposite in2="hardAlpha" operator="out"/>
<feColorMatrix type="matrix" values="0 0 0 0 0 0 0 0 0 0 0 0 0 0 0 0 0 0 0.25 0"/>
<feBlend mode="normal" in2="BackgroundImageFix" result="effect1_dropShadow_361_1800"/>
<feBlend mode="normal" in="SourceGraphic" in2="effect1_dropShadow_361_1800" result="shape"/>
</filter>
<clipPath id="clip0_361_1800">
<rect width="50" height="50" fill="white"/>
</clipPath>
</defs>
</svg>
