<!-- Generated by IcoMoon.io -->
<svg version="1.1" xmlns="http://www.w3.org/2000/svg" width="512" height="512" viewBox="0 0 512 512">
<title></title>
<g id="icomoon-ignore">
</g>
<path d="M498.063 375.757l-71.452-71.452c-25.518-25.518-68.898-15.31-79.104 17.863-7.657 22.967-33.175 35.726-56.142 30.62-51.036-12.757-119.935-79.105-132.695-132.694-7.655-22.968 7.655-48.486 30.621-56.141 33.174-10.207 43.381-53.589 17.863-79.106l-71.451-71.451c-20.415-17.863-51.036-17.863-68.899 0l-48.485 48.484c-48.484 51.037 5.104 186.284 125.040 306.219 119.936 119.938 255.183 176.077 306.219 125.041l48.483-48.486c17.865-20.415 17.865-51.036 0-68.898z"></path>
</svg>
