<svg width="11" height="13" viewBox="0 0 11 13" fill="none" xmlns="http://www.w3.org/2000/svg">
<g id="Frame" clip-path="url(#clip0_361_1658)">
<g id="Group">
<path id="Pin" d="M10.023 2.7414C9.64385 1.994 9.0829 1.35389 8.39173 0.879912C7.70055 0.405936 6.90133 0.1133 6.06751 0.0288994C5.69012 -0.00898208 5.30989 -0.00898208 4.93251 0.0288994C4.09873 0.113434 3.29956 0.406124 2.60841 0.880085C1.91725 1.35405 1.35628 1.99408 0.977008 2.7414C0.499788 3.69499 0.315409 4.76847 0.447091 5.82664C0.578773 6.88481 1.02063 7.88036 1.71701 8.6879L5.11401 12.8179C5.16091 12.8749 5.21985 12.9208 5.28659 12.9523C5.35333 12.9838 5.42621 13.0001 5.50001 13.0001C5.57381 13.0001 5.64669 12.9838 5.71343 12.9523C5.78016 12.9208 5.8391 12.8749 5.88601 12.8179L9.28251 8.6879C9.97897 7.88041 10.4209 6.88489 10.5527 5.82671C10.6845 4.76854 10.5002 3.69503 10.023 2.7414ZM5.50001 6.9999C5.10444 6.9999 4.71777 6.8826 4.38887 6.66284C4.05997 6.44308 3.80362 6.13072 3.65225 5.76527C3.50087 5.39981 3.46127 4.99768 3.53844 4.60972C3.61561 4.22176 3.80609 3.86539 4.08579 3.58569C4.3655 3.30598 4.72187 3.1155 5.10983 3.03833C5.49779 2.96116 5.89992 3.00076 6.26537 3.15214C6.63083 3.30352 6.94318 3.55986 7.16295 3.88876C7.38271 4.21766 7.50001 4.60434 7.50001 4.9999C7.49935 5.53013 7.28842 6.03845 6.91349 6.41338C6.53856 6.78831 6.03024 6.99924 5.50001 6.9999Z" fill="#44B66A"/>
</g>
</g>
<defs>
<clipPath id="clip0_361_1658">
<rect width="11" height="13" fill="white"/>
</clipPath>
</defs>
</svg>
