<svg width="20" height="18" viewBox="0 0 20 18" fill="none" xmlns="http://www.w3.org/2000/svg">
<path fill-rule="evenodd" clip-rule="evenodd" d="M0.0916106 0.581906C0.254849 0.227233 0.609579 0 1.00001 0H19C19.3904 0 19.7452 0.227233 19.9084 0.581906C20.0717 0.936579 20.0135 1.35382 19.7596 1.65039L12.8 9.77852V17C12.8 17.3457 12.6215 17.6669 12.3278 17.8493C12.0342 18.0318 11.6672 18.0497 11.3572 17.8966L7.75723 16.1189C7.41602 15.9503 7.20001 15.6028 7.20001 15.2222V9.77852L0.240418 1.65039C-0.0135192 1.35382 -0.071628 0.936579 0.0916106 0.581906ZM3.17274 2L8.95961 8.75849C9.11475 8.93968 9.20001 9.17036 9.20001 9.40889V14.6008L10.8 15.3909V9.40889C10.8 9.17036 10.8853 8.93968 11.0404 8.75849L16.8273 2H3.17274Z" fill="#86A67E"/>
</svg>
