<svg width="54" height="54" viewBox="0 0 54 54" fill="none" xmlns="http://www.w3.org/2000/svg">
<path fill-rule="evenodd" clip-rule="evenodd" d="M13.8378 30.375L22.5003 39.7496L14.4565 41.625L10.1253 37.8754L13.8378 30.375ZM36.7 12.375L40.5003 14.4641L39.2335 21.375L30.3663 15.5891L36.7 12.375ZM13.0784 12.375C13.5003 12.375 13.8389 12.393 14.344 12.7969C15.0472 13.3594 17.6403 15.1954 17.6403 15.1954L18.1105 16.0312C18.9667 16.074 18.988 16.1516 20.0692 16.9459L43.8753 33.0941C43.6919 33.4912 40.8614 41.625 40.8614 41.625H36.4919L10.1253 13.7812C10.1253 13.7812 10.555 13.6204 10.969 13.3594C11.6182 12.951 12.4349 12.375 13.0784 12.375ZM16.3128 6.75H6.7503C6.1563 7.047 5.6253 7.39125 5.6253 8.57812V16.3125V18.7031L6.7368 21.7946L5.6253 23.3437V24.6094L6.7503 25.4531V27L5.6253 28.125V32.3437L6.7503 33.0469V37.6875C5.5758 38.5234 5.6253 39.5156 5.6253 40.6564V45.9844C8.25667 46.6414 7.82017 47.25 10.8284 47.25C13.4868 47.25 15.1878 47.25 15.1878 47.25C15.595 47.2241 15.9123 47.1386 16.3128 47.1004C17.431 46.9924 18.1409 46.125 18.1409 46.125L21.094 47.25L22.219 46.125C22.219 46.125 23.6939 47.9509 24.0472 48.375L25.0315 47.25L28.1253 48.375C28.1253 48.375 29.2728 47.2736 30.5159 47.25H36.5628C36.655 47.1611 37.6878 46.125 37.6878 46.125C38.1614 46.4085 37.7429 47.25 42.0472 47.25C43.2352 47.25 44.2972 46.9687 44.2972 46.9687C44.1149 46.3612 44.0947 46.485 43.7347 46.125C43.7347 46.125 46.5472 46.125 48.3753 47.25V29.8204L46.1253 30.5156C46.1692 30.159 47.2087 29.6854 47.2503 28.9687C47.3032 28.0654 47.2008 24.9345 47.0692 24.273C47.0017 23.9355 46.357 22.9466 46.1253 22.6406C46.4009 21.897 47.2503 21.375 47.2503 21.375V20.5312L48.3753 19.8754V15.1256L47.2503 10.4062L48.3753 9.18787V7.84238L47.1873 6.813L43.3285 6.17512L42.4375 6.813L41.992 6.0705C41.992 6.0705 36.16 5.62725 35.1025 5.62725C33.7492 5.62725 33.946 5.7285 33.4882 7.25287L31.5464 7.45087L31.3597 6.75H29.3909L29.7149 6.39338C30.0592 6.06825 29.9388 6.19875 30.2077 5.625H23.4374C23.3317 5.8185 22.9447 6.25725 22.6398 6.75C22.6398 6.75 22.0458 6.74437 21.6003 7.04137C21.1548 7.33837 21.157 7.875 20.563 7.875C19.969 7.875 18.7372 7.875 18.0397 7.875C16.5547 7.875 16.3128 6.75 16.3128 6.75Z" fill="#F44336"/>
</svg>
