<svg width="36" height="31" viewBox="0 0 36 31" fill="none" xmlns="http://www.w3.org/2000/svg">
<mask id="mask0_0_73" style="mask-type:luminance" maskUnits="userSpaceOnUse" x="1" y="0" width="34" height="25">
<path d="M3 21.25C3 22.9069 4.34315 24.25 6 24.25H30C31.6569 24.25 33 22.9069 33 21.25V4.75C33 3.09315 31.6569 1.75 30 1.75H6C4.34315 1.75 3 3.09315 3 4.75V21.25Z" fill="white"/>
<path fill-rule="evenodd" clip-rule="evenodd" d="M1.80009 0.850088C2.29714 0.187347 3.23735 0.053032 3.90009 0.550088L18.0001 11.1251L32.1001 0.550088C32.7628 0.053032 33.703 0.187347 34.2001 0.850088C34.6971 1.51283 34.5628 2.45303 33.9001 2.95009L18.9001 14.2001C18.3668 14.6001 17.6334 14.6001 17.1001 14.2001L2.10009 2.95009C1.43735 2.45303 1.30303 1.51283 1.80009 0.850088Z" fill="black"/>
</mask>
<g mask="url(#mask0_0_73)">
<path d="M0 -5H36V31H0V-5Z" fill="white"/>
</g>
</svg>
