<svg width="36" height="36" viewBox="0 0 36 36" fill="none" xmlns="http://www.w3.org/2000/svg">
<path d="M12.7473 5.7644C13.015 5.76441 13.2778 5.83605 13.5085 5.97188C13.7392 6.10772 13.9293 6.30281 14.0591 6.5369L15.8936 9.8414C16.0119 10.0546 16.0764 10.2933 16.0817 10.5371C16.0869 10.7808 16.0326 11.0221 15.9236 11.2402L14.1566 14.7757C14.1566 14.7757 14.6688 17.4089 16.8123 19.5532C18.9566 21.6967 21.5808 22.2007 21.5808 22.2007L25.1156 20.4329C25.3337 20.3237 25.5752 20.2694 25.8191 20.2746C26.0629 20.2799 26.3018 20.3445 26.5151 20.4629L29.8301 22.3064C30.0637 22.4365 30.2582 22.6266 30.3936 22.8571C30.5291 23.0876 30.6004 23.3501 30.6003 23.6174V27.4222C30.6003 29.3602 28.8003 30.7597 26.9643 30.1402C23.1933 28.8674 17.3396 26.4449 13.6293 22.7347C9.91984 19.0244 7.49659 13.1714 6.22459 9.39965C5.60509 7.5644 7.00459 5.7644 8.94259 5.7644H12.7473Z" fill="white"/>
</svg>
