<svg width="36" height="36" viewBox="0 0 36 36" fill="none" xmlns="http://www.w3.org/2000/svg">
<path d="M18 3C21.5804 3 25.0142 4.35459 27.5459 6.76577C30.0777 9.17695 31.5 12.4472 31.5 15.8571C31.5 21.18 27.24 26.7571 18.9 32.7143C18.6404 32.8997 18.3246 33 18 33C17.6754 33 17.3596 32.8997 17.1 32.7143C8.76 26.7571 4.5 21.18 4.5 15.8571C4.5 12.4472 5.92232 9.17695 8.45406 6.76577C10.9858 4.35459 14.4196 3 18 3ZM18 11.5714C16.8065 11.5714 15.6619 12.023 14.818 12.8267C13.9741 13.6304 13.5 14.7205 13.5 15.8571C13.5 16.9938 13.9741 18.0839 14.818 18.8876C15.6619 19.6913 16.8065 20.1429 18 20.1429C19.1935 20.1429 20.3381 19.6913 21.182 18.8876C22.0259 18.0839 22.5 16.9938 22.5 15.8571C22.5 14.7205 22.0259 13.6304 21.182 12.8267C20.3381 12.023 19.1935 11.5714 18 11.5714Z" fill="white"/>
</svg>
