<svg width="36" height="36" viewBox="0 0 36 36" fill="none" xmlns="http://www.w3.org/2000/svg">
<path d="M31.0652 5.48176C31.0652 5.48176 33.979 4.34551 33.7352 7.10476C33.655 8.24101 32.9267 12.2183 32.3597 16.5195L30.4172 29.262C30.4172 29.262 30.2552 31.1288 28.798 31.4535C27.3415 31.7775 25.156 30.3173 24.751 29.9925C24.427 29.7488 18.6805 26.0963 16.657 24.3113C16.09 23.8238 15.442 22.8503 16.738 21.714L25.237 13.5975C26.2082 12.6225 27.1795 10.35 23.1325 13.11L11.8 20.82C11.8 20.82 10.5047 21.6323 8.07697 20.9018L2.81497 19.278C2.81497 19.278 0.87247 18.0608 4.19122 16.8435C12.286 13.029 22.2422 9.13351 31.0645 5.48101" fill="white"/>
</svg>
