<svg width="36" height="36" viewBox="0 0 36 36" fill="none" xmlns="http://www.w3.org/2000/svg">
<mask id="mask0_0_86" style="mask-type:luminance" maskUnits="userSpaceOnUse" x="3" y="3" width="30" height="30">
<path d="M3.75 3.75H32.25V32.25H3.75V3.75Z" fill="white"/>
</mask>
<g mask="url(#mask0_0_86)">
<path d="M20.685 3.96003L19.83 3.84003C17.2604 3.46901 14.6383 3.83606 12.2693 4.89838C9.90034 5.96069 7.88214 7.67451 6.45 9.84003C4.92623 11.91 4.01788 14.3681 3.82947 16.9316C3.64106 19.495 4.18025 22.0595 5.385 24.33C5.5083 24.5576 5.58506 24.8074 5.61081 25.0649C5.63656 25.3225 5.61079 25.5826 5.535 25.83C4.92 27.945 4.35 30.075 3.75 32.31L4.5 32.085C6.525 31.545 8.55 31.005 10.575 30.51C11.0024 30.4212 11.4467 30.463 11.85 30.63C13.6668 31.5167 15.6522 32.0045 17.6731 32.0607C19.6939 32.1169 21.7034 31.7402 23.5667 30.9559C25.4299 30.1715 27.1039 28.9977 28.4762 27.5132C29.8484 26.0287 30.8873 24.2678 31.523 22.3487C32.1587 20.4297 32.3766 18.3968 32.1621 16.3866C31.9475 14.3764 31.3054 12.4354 30.2789 10.6938C29.2524 8.95213 27.8653 7.45022 26.2106 6.28881C24.5558 5.12741 22.6718 4.33338 20.685 3.96003ZM24.465 23.64C23.9198 24.1281 23.255 24.463 22.5383 24.6105C21.8216 24.7581 21.0786 24.7131 20.385 24.48C17.2424 23.5938 14.5159 21.622 12.69 18.915C11.9928 17.9574 11.4324 16.9073 11.025 15.795C10.8043 15.1497 10.7645 14.4562 10.9099 13.7899C11.0553 13.1235 11.3805 12.5097 11.85 12.015C12.0786 11.7233 12.3897 11.5072 12.7429 11.3948C13.096 11.2824 13.4749 11.279 13.83 11.385C14.13 11.46 14.34 11.895 14.61 12.225C14.83 12.845 15.085 13.45 15.375 14.04C15.5946 14.3408 15.6864 14.7162 15.6302 15.0844C15.574 15.4525 15.3744 15.7835 15.075 16.005C14.4 16.605 14.505 17.1 14.985 17.775C16.0456 19.3043 17.51 20.5091 19.215 21.255C19.695 21.465 20.055 21.51 20.37 21.015C20.505 20.82 20.685 20.655 20.835 20.475C21.705 19.38 21.435 19.395 22.815 19.995C23.255 20.18 23.68 20.395 24.09 20.64C24.495 20.88 25.11 21.135 25.2 21.495C25.2866 21.8856 25.2638 22.2924 25.1341 22.6709C25.0045 23.0493 24.7729 23.3847 24.465 23.64Z" fill="white"/>
</g>
</svg>
