<svg width="90" height="30" viewBox="0 0 90 30" fill="none" xmlns="http://www.w3.org/2000/svg">
<path fill-rule="evenodd" clip-rule="evenodd" d="M30 15C30 23.2843 23.2843 30 15 30C6.71573 30 0 23.2843 0 15C0 6.71573 6.71573 0 15 0C23.2843 0 30 6.71573 30 15ZM60 15L52.3822 7.61781L45 0L37.6178 7.61781L30 15L37.6178 22.3822L45 30L52.3822 22.3822L60 15ZM60 15C60 6.71573 66.7157 0 75 0C83.2843 0 90 6.71573 90 15C90 23.2843 83.2843 30 75 30C66.7157 30 60 23.2843 60 15Z" fill="#176150" fill-opacity="0.5"/>
</svg>
