<svg width="90" height="30" viewBox="0 0 90 30" fill="none" xmlns="http://www.w3.org/2000/svg">
<path fill-rule="evenodd" clip-rule="evenodd" d="M15 30C18.9782 30 22.7936 28.4196 25.6066 25.6066C28.4179 22.7953 29.998 18.9831 30 15.0076V30H60V15C60 18.9782 61.5804 22.7936 64.3934 25.6066C67.2064 28.4196 71.0218 30 75 30H90V2.62268e-06H75C71.0218 2.62268e-06 67.2064 1.58035 64.3934 4.3934C61.5804 7.20645 60 11.0218 60 15V2.62268e-06H30V14.9924C29.998 11.0169 28.4179 7.20466 25.6066 4.3934C22.7936 1.58035 18.9783 2.62268e-06 15 2.62268e-06L2.62268e-06 0L0 30H15Z" fill="#176150" fill-opacity="0.5"/>
</svg>
