<svg width="135" height="101" viewBox="0 0 135 101" fill="none" xmlns="http://www.w3.org/2000/svg">
<g id="logo">
<path id="Vector" d="M25.7041 30.3449C25.7041 34.1891 24.3821 37.1343 21.7381 39.1807C19.0941 41.2271 15.3286 42.2475 10.4415 42.2419H6.42238V56.0146H0.0986328V19.2133H11.2498C16.0791 19.2133 19.6982 20.153 22.1073 22.0324C24.5163 23.9117 25.7153 26.6826 25.7041 30.3449ZM6.42238 37.1909H9.77864C13.023 37.1909 15.4032 36.6538 16.9191 35.5796C18.435 34.5054 19.1939 32.8273 19.1958 30.5453C19.1958 28.4303 18.5161 26.8533 17.1568 25.8143C15.7975 24.7754 13.6822 24.255 10.8107 24.2531H6.41958L6.42238 37.1909Z" fill="white"/>
<path id="Vector_2" d="M81.9655 41.3124V56.0146H75.6445V19.2133H86.5524C91.5439 19.2133 95.2386 20.1029 97.6365 21.8821C100.034 23.6613 101.233 26.3459 101.233 29.9358C101.233 34.5165 98.7291 37.7809 93.7208 39.7289L104.665 56.0146H97.4714L88.2137 41.3124H81.9655ZM81.9655 36.3282H86.3566C89.3027 36.3282 91.4357 35.8078 92.7558 34.767C94.076 33.7262 94.7379 32.1817 94.7417 30.1334C94.7417 28.0555 94.0276 26.562 92.5993 25.6529C91.171 24.7438 89.0192 24.2912 86.144 24.2949H81.9655V36.3282Z" fill="white"/>
<path id="Vector_3" d="M123.625 56.0146H117.304V24.37H105.929V19.2133H135V24.37H123.625V56.0146Z" fill="white"/>
<path id="Vector_4" d="M5.42596 65.9663C5.43786 66.2914 5.37056 66.6146 5.22982 66.9082C5.08908 67.2019 4.87906 67.4573 4.61766 67.6527C3.99217 68.0941 3.2354 68.3127 2.46964 68.2733C1.63238 68.309 0.795578 68.1931 0 67.931V67.3383C0.774769 67.6216 1.59707 67.7538 2.42208 67.7279C3.03134 67.7603 3.63425 67.591 4.13657 67.2464C4.33756 67.1043 4.50053 66.9153 4.61121 66.696C4.72188 66.4768 4.77689 66.2339 4.77147 65.9886C4.78212 65.7076 4.70915 65.4297 4.5617 65.1899C4.38281 64.9454 4.14791 64.747 3.87648 64.611C3.42769 64.3849 2.95973 64.1987 2.47804 64.0544C1.58303 63.7567 0.96212 63.4338 0.6209 63.086C0.436714 62.8792 0.29677 62.6373 0.20963 62.375C0.12249 62.1126 0.0899901 61.8354 0.114067 61.5602C0.138144 61.2849 0.2183 61.0174 0.349679 60.774C0.481058 60.5306 0.660909 60.3164 0.878226 60.1444C1.45216 59.7251 2.15263 59.5131 2.86401 59.5433C3.66152 59.5375 4.45201 59.6917 5.1882 59.9969L4.96727 60.509C4.30531 60.228 3.59479 60.0778 2.87521 60.0665C2.32488 60.0386 1.78053 60.1911 1.32572 60.5006C1.14017 60.6375 0.990774 60.8171 0.890414 61.0241C0.790055 61.2311 0.741716 61.4593 0.749546 61.689C0.738931 61.9578 0.799708 62.2246 0.925751 62.4626C1.06829 62.6939 1.26751 62.8854 1.50473 63.0192C1.94707 63.2546 2.41056 63.4484 2.88917 63.598C3.42687 63.7624 3.94465 63.9855 4.43306 64.2631C4.74073 64.4416 4.9992 64.693 5.1854 64.9951C5.34917 65.2925 5.43211 65.6272 5.42596 65.9663Z" fill="white"/>
<path id="Vector_5" d="M11.9477 68.1592H7.14819V59.6574H11.9477V60.214H7.75233V63.4311H11.7043V63.9876H7.75233V67.6333H11.9477V68.1592Z" fill="white"/>
<path id="Vector_6" d="M14.4152 64.4524V68.1593H13.8027V59.6574H15.892C16.9828 59.6574 17.7883 59.8522 18.3085 60.2419C18.5726 60.4497 18.7816 60.7186 18.9176 61.0251C19.0536 61.3316 19.1124 61.6664 19.0889 62.0007C19.1053 62.52 18.9413 63.0291 18.6246 63.4422C18.2564 63.866 17.7597 64.159 17.2094 64.2771L19.5951 68.1509H18.8623L16.5968 64.4441L14.4152 64.4524ZM14.4152 63.9431H16.0934C16.7067 63.9805 17.3147 63.8108 17.8191 63.4617C18.0266 63.2908 18.1904 63.0732 18.2969 62.8269C18.4034 62.5806 18.4496 62.3127 18.4316 62.0452C18.4316 61.3995 18.2302 60.932 17.8303 60.6342C17.4303 60.3365 16.7786 60.1918 15.8724 60.1918H14.418L14.4152 63.9431Z" fill="white"/>
<path id="Vector_7" d="M26.1704 59.6574H26.8388L23.5553 68.1593H23.0127L19.7375 59.6574H20.3948L22.6044 65.4431C22.94 66.3142 23.1637 66.9709 23.284 67.4079C23.3651 67.1296 23.5217 66.6648 23.7595 66.0526L26.1704 59.6574Z" fill="white"/>
<path id="Vector_8" d="M27.9465 68.1593V59.6574H28.5591V68.1593H27.9465Z" fill="white"/>
<path id="Vector_9" d="M34.6618 60.0693C33.5599 60.0693 32.6919 60.4107 32.058 61.0934C31.424 61.7762 31.107 62.7103 31.107 63.8958C31.107 65.1092 31.4053 66.0507 32.002 66.7205C32.5987 67.3902 33.4517 67.726 34.5611 67.7279C35.2479 67.7327 35.9318 67.639 36.5917 67.4496V67.9728C35.8882 68.1878 35.1542 68.2874 34.4185 68.2678C33.186 68.2678 32.2146 67.8828 31.5042 67.1129C30.7938 66.3429 30.4395 65.265 30.4413 63.8791C30.4242 63.0873 30.5978 62.303 30.9476 61.5916C31.2715 60.9504 31.7797 60.4196 32.4076 60.0665C33.0858 59.6972 33.8497 59.5119 34.6227 59.5294C35.4148 59.5153 36.2006 59.6739 36.9245 59.9942L36.6784 60.5285C36.0501 60.2246 35.3604 60.0676 34.6618 60.0693Z" fill="white"/>
<path id="Vector_10" d="M43.2207 68.1592H38.4185V59.6574H43.2207V60.214H39.0254V63.4311H42.9774V63.9876H39.0254V67.6333H43.2207V68.1592Z" fill="white"/>
<path id="Vector_11" d="M54.863 63.3949H58.4178V67.8141C57.8861 67.9821 57.3418 68.1077 56.79 68.1898C56.274 68.2627 55.7534 68.299 55.2322 68.2984C53.8785 68.2984 52.8446 67.9199 52.1304 67.1629C51.4163 66.406 51.0602 65.3216 51.062 63.9097C51.062 62.5312 51.476 61.4589 52.3039 60.6927C53.1317 59.9264 54.2794 59.5414 55.7468 59.5377C56.6593 59.537 57.5631 59.7148 58.4066 60.0609L57.7745 61.508C57.1383 61.2004 56.4402 61.0405 55.7328 61.0405C55.3664 61.0252 55.0009 61.0875 54.6605 61.2233C54.3201 61.359 54.0126 61.5652 53.7582 61.8281C53.2437 62.4101 52.9777 63.1689 53.017 63.9431C53.017 64.8707 53.2166 65.5767 53.6156 66.0609C53.8278 66.309 54.0954 66.5044 54.3969 66.6314C54.6985 66.7585 55.0256 66.8138 55.3524 66.7928C55.758 66.792 56.1626 66.7529 56.5607 66.6759V64.9004H54.863V63.3949Z" fill="white"/>
<path id="Vector_12" d="M62.3146 64.9116V68.1926H60.4155V59.6602H63.0278C64.2435 59.6602 65.1441 59.8708 65.7296 60.2919C66.3151 60.7131 66.6078 61.3531 66.6078 62.2121C66.6143 62.6939 66.461 63.1644 66.1715 63.5507C65.8526 63.9623 65.4272 64.2797 64.9409 64.4691C66.289 66.3837 67.1672 67.6212 67.5755 68.1815H65.4667L63.3271 64.9116H62.3146ZM62.3146 63.4422H62.9299C63.3904 63.4778 63.8515 63.3812 64.2584 63.1639C64.403 63.0653 64.5188 62.9305 64.5944 62.7733C64.67 62.616 64.7027 62.4416 64.6891 62.2678C64.7032 62.0977 64.6696 61.927 64.5921 61.7747C64.5146 61.6224 64.3962 61.4945 64.25 61.4051C63.8259 61.2069 63.3583 61.1188 62.8908 61.1491H62.3146V63.4422Z" fill="white"/>
<path id="Vector_13" d="M76.6967 63.9097C76.6967 65.3179 76.3238 66.4014 75.578 67.1602C74.8321 67.919 73.7777 68.2984 72.4147 68.2984C71.0405 68.2984 69.9861 67.919 69.2514 67.1602C68.5168 66.4014 68.1494 65.3132 68.1494 63.8958C68.1494 62.4802 68.5223 61.3977 69.2682 60.6481C70.014 59.8986 71.0722 59.5276 72.4427 59.535C73.8187 59.535 74.8722 59.9116 75.6031 60.6648C76.334 61.4181 76.6986 62.4997 76.6967 63.9097ZM70.1548 63.9097C70.1548 64.8615 70.3413 65.5776 70.7142 66.0581C70.9204 66.3041 71.1823 66.498 71.4784 66.6238C71.7745 66.7495 72.0963 66.8037 72.4175 66.7817C73.9334 66.7817 74.6913 65.8244 74.6913 63.9097C74.6913 61.9951 73.938 61.035 72.4315 61.0294C72.1087 61.0071 71.7853 61.0613 71.4878 61.1876C71.1902 61.3138 70.927 61.5086 70.7198 61.7557C70.3469 62.24 70.1604 62.958 70.1604 63.9097H70.1548Z" fill="white"/>
<path id="Vector_14" d="M85.7158 59.6602V65.1732C85.7283 65.7559 85.574 66.3301 85.2711 66.829C84.9636 67.3125 84.5159 67.6919 83.9873 67.9171C83.3605 68.1844 82.6833 68.3145 82.0015 68.2984C80.8492 68.2984 79.9542 68.0201 79.3165 67.4635C78.9962 67.1734 78.7443 66.8164 78.5789 66.418C78.4135 66.0196 78.3387 65.5898 78.36 65.1593V59.6602H80.2535V64.8754C80.2535 65.5322 80.3924 66.0145 80.6702 66.3225C80.948 66.6305 81.4077 66.7835 82.0491 66.7817C82.6719 66.7817 83.1231 66.6277 83.4028 66.3197C83.6825 66.0108 83.8223 65.5238 83.8223 64.8643V59.6602H85.7158Z" fill="white"/>
<path id="Vector_15" d="M93.9672 62.3179C93.9912 62.7146 93.9218 63.1113 93.7645 63.4766C93.6071 63.8419 93.3663 64.1655 93.061 64.4218C92.4597 64.906 91.601 65.1509 90.4907 65.1509H89.674V68.1926H87.7749V59.6602H90.6361C91.7241 59.6602 92.5492 59.8828 93.1169 60.3281C93.6847 60.7734 93.9672 61.4357 93.9672 62.3179ZM89.674 63.6704H90.3005C90.7621 63.7031 91.2221 63.587 91.6123 63.3392C91.7581 63.2275 91.874 63.0816 91.9496 62.9146C92.0252 62.7476 92.0582 62.5646 92.0457 62.3819C92.0605 62.2084 92.0354 62.0338 91.9724 61.8713C91.9095 61.7089 91.8102 61.5628 91.6822 61.4441C91.3475 61.2145 90.9433 61.1073 90.5382 61.1407H89.674V63.6704Z" fill="white"/>
<path id="Vector_16" d="M93.7989 71.0201C91.9698 71.2205 84.3287 72.559 83.3917 72.9904C83.1932 73.0794 83.5232 73.3494 83.5232 73.3494C83.5232 73.3494 86.1607 74.2232 86.3565 75.0331C86.4152 75.2807 86.0768 75.8262 85.8614 76.0015C80.5277 80.4542 71.6532 91.5998 49.4823 92.9022C49.3621 92.9022 49.1803 92.9022 48.9649 92.9189V39.6761H56.6284V35.805H48.9649V12.256C50.248 11.8596 51.3712 11.0678 52.1725 9.99483C52.9739 8.92189 53.4118 7.62333 53.4232 6.28661C53.4232 2.81353 50.5144 0 46.926 0C43.3376 0 40.4288 2.81353 40.4288 6.28661C40.4413 7.6548 40.9 8.98196 41.7357 10.0685C42.5715 11.155 43.7392 11.9422 45.0633 12.3116V35.7939H37.7914V39.6649H45.0633V92.9189C44.8423 92.9189 44.6521 92.9189 44.529 92.9022C22.3581 91.5998 13.4837 80.4514 8.14999 76.0015C7.93743 75.8262 7.59061 75.2807 7.65494 75.0331C7.85072 74.2232 10.4882 73.3494 10.4882 73.3494C10.4882 73.3494 10.8182 73.0711 10.6196 72.9904C9.67988 72.559 2.0416 71.2205 0.212435 71.0201C0.0502155 71.0034 0.0921428 71.3401 0.150877 71.4264C16.4036 95.3205 42.7111 96.3112 42.7111 96.3112C42.7111 96.3112 43.455 96.5394 43.5837 96.8177C44.1431 98.0116 46.7917 100.967 46.7917 100.967C46.7917 100.967 46.9595 101.023 47.0043 100.989C47.0518 101.023 47.2196 100.967 47.2196 100.967C47.2196 100.967 49.8711 98.0116 50.4249 96.8177C50.5563 96.5394 51.2975 96.3112 51.2975 96.3112C51.2975 96.3112 77.605 95.3205 93.8605 71.4264C93.9165 71.3401 93.9612 71.0034 93.7989 71.0201ZM43.9221 6.29774C43.9221 5.50505 44.2386 4.74482 44.8019 4.18431C45.3653 3.62379 46.1293 3.30889 46.926 3.30889C47.7227 3.30889 48.4867 3.62379 49.05 4.18431C49.6133 4.74482 49.9298 5.50505 49.9298 6.29774C49.9298 7.09044 49.6133 7.85067 49.05 8.41118C48.4867 8.9717 47.7227 9.2866 46.926 9.2866C46.1293 9.2866 45.3653 8.9717 44.8019 8.41118C44.2386 7.85067 43.9221 7.09044 43.9221 6.29774Z" fill="#C9AE6A"/>
<path id="Vector_17" d="M43.9923 25.8227V19.0797C36.161 20.3932 29.9827 26.6576 28.6821 34.5944H35.143C35.7013 32.4817 36.8156 30.5552 38.371 29.0134C39.9265 27.4716 41.8668 26.3702 43.9923 25.8227Z" fill="white"/>
<path id="Vector_18" d="M49.9299 25.7837V19.0101C57.7416 20.3292 63.9144 26.6214 65.2065 34.5945H58.7597C58.208 32.4774 57.099 30.545 55.547 28.9963C53.995 27.4476 52.056 26.3387 49.9299 25.7837Z" fill="white"/>
<path id="Vector_19" d="M43.9725 49.2938V56.0146C36.1412 54.7038 29.9629 48.4645 28.6624 40.5527H35.1231C35.6839 42.661 36.7995 44.5824 38.355 46.1188C39.9105 47.6553 41.8496 48.7513 43.9725 49.2938Z" fill="white"/>
<path id="Vector_20" d="M49.8965 49.2688V55.9478C53.7856 55.318 57.3801 53.4961 60.1788 50.7364C62.9775 47.9766 64.8407 44.4165 65.5087 40.5527H58.9192C58.3301 42.6726 57.1834 44.5978 55.5974 46.1299C54.0114 47.662 52.0435 48.7455 49.8965 49.2688Z" fill="white"/>
</g>
</svg>
