<svg width="0" height="0" class="hidden">
  <symbol version="1.1" xmlns="http://www.w3.org/2000/svg" viewBox="0 0 1024 1024" id="exit">
    <path d="M511.982 955.557c0-38.258-31.049-69.301-69.307-69.301h-304.947v-748.51h304.947c18.382 0 36.009-7.302 49.007-20.3s20.3-30.625 20.3-49.007c0-18.381-7.302-36.010-20.3-49.007s-30.625-20.299-49.007-20.299h-318.808c-33.086 0-64.817 13.143-88.213 36.539s-36.539 55.127-36.539 88.212v776.227c0 33.091 13.143 64.819 36.539 88.214s55.127 36.541 88.213 36.541h318.808c38.257 0 69.307-31.051 69.307-69.309z"></path>
    <path d="M678.307 691.198l109.889-109.892h-428.698c-18.382 0-36.009-7.302-49.007-20.3s-20.3-30.625-20.3-49.007c0-18.381 7.302-36.009 20.3-49.007s30.625-20.299 49.007-20.299h428.698l-109.889-109.893c-12.998-12.999-20.302-30.629-20.302-49.013s7.303-36.014 20.302-49.013c12.999-12.999 30.63-20.302 49.013-20.302s36.015 7.303 49.013 20.302l228.21 228.212c6.443 6.436 11.548 14.077 15.029 22.487s5.278 17.424 5.278 26.526c0 9.103-1.796 18.117-5.278 26.526s-8.586 16.051-15.029 22.487l-228.21 228.215c-12.998 12.997-30.629 20.299-49.013 20.299s-36.014-7.302-49.013-20.299c-12.998-13.002-20.302-30.633-20.302-49.017s7.303-36.014 20.302-49.013z"></path>
  </symbol>
  <symbol version="1.1" xmlns="http://www.w3.org/2000/svg" viewBox="0 0 1024 1024" id="phone">
    <path d="M996.116 751.513l-142.903-142.902c-51.042-51.036-137.801-30.62-158.216 35.726-15.311 45.935-66.347 71.453-112.281 61.244-102.073-25.518-239.871-158.214-265.389-265.39-15.311-45.935 15.31-96.971 61.244-112.28 66.347-20.415 86.762-107.177 35.725-158.214l-142.902-142.902c-40.829-35.726-102.073-35.726-137.798 0l-96.97 96.97c-96.969 102.073 10.207 372.567 250.079 612.438 239.872 239.875 510.362 352.153 612.439 250.076l96.973-96.965c35.722-40.834 35.722-102.074 0-137.8z"></path>
  </symbol>
    <symbol version="1.1" xmlns="http://www.w3.org/2000/svg" viewBox="0 0 1024 1024" id="upload">
    <path d="M881.774 887.517h-739.227c-22.577 0-40.932 18.495-40.932 40.928v54.626c0 22.575 18.5 40.928 40.932 40.928h738.944c22.575 0 40.928-18.503 40.928-40.928v-54.626c0.441-22.725-18.062-40.928-40.645-40.928z"></path>
    <path d="M512.385 0.001c-10.341 0-20.828 4.079-28.841 12.091l-280.253 279.816c-15.876 16.023-15.876 42.097 0 57.973l38.746 38.746c16.023 15.877 42.096 15.877 57.973 0l144.059-144.059v540.84c0 22.726 18.355 40.929 40.932 40.929h54.624c22.43 0 40.93-18.353 40.93-40.929v-540.696l143.913 144.060c16.167 15.878 42.095 15.878 57.973 0l38.743-38.746c15.88-16.17 15.88-42.097 0-57.973l-279.958-279.961c-3.761-3.833-8.25-6.876-13.203-8.952s-10.269-3.143-15.639-3.139z"></path>
  </symbol>
    <symbol version="1.1" xmlns="http://www.w3.org/2000/svg" viewBox="0 0 1024 1024" id="document">
    <path d="M722.93 230.73v-188.803l191.97 223.961h-156.811c-9.326 0-18.271-3.704-24.861-10.298-6.594-6.593-10.298-15.536-10.298-24.861zM758.089 336.206c-27.975 0-54.803-11.113-74.584-30.893s-30.893-46.61-30.893-74.583v-210.953h-457.064c-27.974 0-54.803 11.113-74.584 30.893s-30.893 46.609-30.893 74.583v773.497c0 27.97 11.113 54.799 30.893 74.576 19.781 19.785 46.61 30.896 74.584 30.896h632.861c27.97 0 54.799-11.11 74.584-30.896 19.778-19.778 30.888-46.607 30.888-74.576v-562.544h-175.792z"></path>
  </symbol>
    <symbol version="1.1" xmlns="http://www.w3.org/2000/svg" viewBox="0 0 1024 1024" id="plus">
    <path d="M605.091 93.090c0-51.413-41.679-93.091-93.091-93.091s-93.091 41.678-93.091 93.091v325.818h-325.818c-51.413 0-93.091 41.679-93.091 93.091s41.678 93.091 93.091 93.091h325.818v325.818c0 51.414 41.678 93.091 93.091 93.091s93.091-41.677 93.091-93.091v-325.818h325.818c51.414 0 93.091-41.679 93.091-93.091s-41.677-93.091-93.091-93.091h-325.818v-325.818z"></path>
  </symbol>
</svg>