<svg width="1920" height="273" viewBox="0 0 1920 273" fill="none" xmlns="http://www.w3.org/2000/svg">
<rect width="1920" height="270" transform="translate(0 1.69043)" fill="#FC6103"/>
<g clip-path="url(#clip0_3_305)">
<g clip-path="url(#clip1_3_305)">
<path d="M636.002 3.35543C729.758 2.33043 849.65 3.51943 949.214 5.52843C1047.12 7.53743 1243.34 15.1634 1366.14 20.1654C1680.59 33.3674 1920.79 38.4104 2165.14 40.5424C2263.04 41.4034 2367.17 41.9774 2594.09 39.5174C2821.02 37.0574 3034.66 29.0214 3034.66 29.0214V0.69043H-1114.25V13.1134C-1114.25 13.1134 -815.558 26.4794 -457.128 25.6184C-294.506 25.3314 -72.1469 22.8714 98.7714 16.4344C186.72 13.1134 315.323 8.97243 429.407 6.51243C542.246 3.92943 593.273 3.76543 636.002 3.35543Z" fill="#F3F7FC"/>
</g>
</g>
<g clip-path="url(#clip2_3_305)">
<g clip-path="url(#clip3_3_305)">
<path d="M1284 270.025C1190.24 271.05 1070.35 269.861 970.786 267.852C872.882 265.843 676.657 258.217 553.862 253.215C239.405 240.013 -0.792569 234.97 -245.139 232.838C-343.044 231.977 -447.171 231.403 -674.094 233.863C-901.017 236.323 -1114.66 244.359 -1114.66 244.359V272.69H3034.25V260.267C3034.25 260.267 2735.56 246.901 2377.13 247.762C2214.51 248.049 1992.15 250.509 1821.23 256.946C1733.28 260.267 1604.68 264.408 1490.59 266.868C1377.75 269.451 1326.73 269.615 1284 270.025Z" fill="white"/>
</g>
</g>
<defs>
<clipPath id="clip0_3_305">
<rect width="1920" height="41" fill="white" transform="translate(0 0.69043)"/>
</clipPath>
<clipPath id="clip1_3_305">
<rect width="4148.5" height="41" fill="white" transform="translate(-1114.25 0.69043)"/>
</clipPath>
<clipPath id="clip2_3_305">
<rect width="1920" height="41" fill="white" transform="matrix(-1 0 0 -1 1920 272.69)"/>
</clipPath>
<clipPath id="clip3_3_305">
<rect width="4148.5" height="41" fill="white" transform="matrix(-1 0 0 -1 3034.25 272.69)"/>
</clipPath>
</defs>
</svg>
