<svg width="320" height="864" viewBox="0 0 320 864" fill="none" xmlns="http://www.w3.org/2000/svg">
<rect width="320" height="861.58" transform="translate(0 1.16016)" fill="url(#paint0_linear_323_1633)"/>
<g clip-path="url(#clip0_323_1633)">
<g clip-path="url(#clip1_323_1633)">
<path d="M107.167 2.69516C122.455 1.72016 142.006 2.85116 158.241 4.76216C174.206 6.67316 206.204 13.9272 226.227 18.6852C277.505 31.2432 316.673 36.0402 356.517 38.0682C372.482 38.8872 389.462 39.4332 426.466 37.0932C463.469 34.7532 498.308 27.1092 498.308 27.1092V0.160156H-178.24V11.9772C-178.24 11.9772 -129.533 24.6912 -71.0856 23.8722C-44.5676 23.5992 -8.30823 21.2592 19.5628 15.1362C33.9041 11.9772 54.875 8.03816 73.4782 5.69816C91.8785 3.24116 100.199 3.08516 107.167 2.69516Z" fill="white"/>
</g>
</g>
<g clip-path="url(#clip2_323_1633)">
<g clip-path="url(#clip3_323_1633)">
<path d="M200.339 860.375C188.666 861.666 173.739 860.169 161.343 857.639C149.154 855.11 124.723 845.509 109.435 839.211C70.2839 822.589 40.3786 816.24 9.95676 813.556C-2.23264 812.472 -15.1968 811.749 -43.4494 814.846C-71.7019 817.944 -98.3016 828.061 -98.3016 828.061V863.73H418.25V848.09C418.25 848.09 381.062 831.261 336.436 832.346C316.19 832.707 288.505 835.804 267.225 843.908C256.276 848.09 240.264 853.303 226.06 856.4C212.012 859.652 205.659 859.859 200.339 860.375Z" fill="white"/>
</g>
</g>
<defs>
<linearGradient id="paint0_linear_323_1633" x1="160" y1="0" x2="160" y2="861.58" gradientUnits="userSpaceOnUse">
<stop stop-color="#EAF6FC"/>
<stop offset="1" stop-color="white"/>
</linearGradient>
<clipPath id="clip0_323_1633">
<rect width="320" height="39" fill="white" transform="translate(0 0.160156)"/>
</clipPath>
<clipPath id="clip1_323_1633">
<rect width="676.48" height="39" fill="white" transform="translate(-178.24 0.160156)"/>
</clipPath>
<clipPath id="clip2_323_1633">
<rect width="320" height="51.64" fill="white" transform="matrix(-1 0 0 -1 320 863.73)"/>
</clipPath>
<clipPath id="clip3_323_1633">
<rect width="516.5" height="51.62" fill="white" transform="matrix(-1 0 0 -1 418.25 863.73)"/>
</clipPath>
</defs>
</svg>
