<svg width="1920" height="653" viewBox="0 0 1920 653" fill="none" xmlns="http://www.w3.org/2000/svg">
<rect width="1920" height="650" transform="translate(0 1.53027)" fill="url(#paint0_linear_323_768)"/>
<g clip-path="url(#clip0_323_768)">
<g clip-path="url(#clip1_323_768)">
<path d="M643.501 3.06527C735.087 2.09027 852.204 3.22127 949.463 5.13227C1045.1 7.04327 1236.78 14.2973 1356.74 19.0553C1663.92 31.6133 1898.55 36.4103 2137.25 38.4383C2232.88 39.2573 2334.6 39.8033 2556.27 37.4633C2777.94 35.1233 2986.65 27.4793 2986.65 27.4793V0.530273H-1066.24V12.3473C-1066.24 12.3473 -774.462 25.0613 -424.327 24.2423C-265.47 23.9693 -48.2572 21.6293 118.705 15.5063C204.618 12.3473 330.244 8.40827 441.688 6.06827C551.915 3.61127 601.761 3.45527 643.501 3.06527Z" fill="white"/>
</g>
</g>
<g clip-path="url(#clip2_323_768)">
<g clip-path="url(#clip3_323_768)">
<path d="M1201.52 632.429C1131.63 640.16 1042.26 631.192 968.041 616.039C895.058 600.886 748.782 543.365 657.244 505.637C422.833 406.058 243.777 368.02 61.6288 351.939C-11.3542 345.445 -88.976 341.116 -258.136 359.671C-427.296 378.226 -586.559 438.839 -586.559 438.839V652.53H2506.25V558.828C2506.25 558.828 2283.59 458.012 2016.4 464.506C1895.17 466.671 1729.41 485.226 1602 533.778C1536.44 558.828 1440.57 590.062 1355.53 608.617C1271.41 628.1 1233.38 629.337 1201.52 632.429Z" fill="white"/>
</g>
</g>
<defs>
<linearGradient id="paint0_linear_323_768" x1="960" y1="0" x2="960" y2="650" gradientUnits="userSpaceOnUse">
<stop stop-color="#EAF6FC"/>
<stop offset="1" stop-color="white"/>
</linearGradient>
<clipPath id="clip0_323_768">
<rect width="1920" height="39" fill="white" transform="translate(0 0.530273)"/>
</clipPath>
<clipPath id="clip1_323_768">
<rect width="4052.48" height="39" fill="white" transform="translate(-1066.24 0.530273)"/>
</clipPath>
<clipPath id="clip2_323_768">
<rect width="1920" height="309.25" fill="white" transform="matrix(-1 0 0 -1 1920 652.53)"/>
</clipPath>
<clipPath id="clip3_323_768">
<rect width="3092.5" height="309.25" fill="white" transform="matrix(-1 0 0 -1 2506.25 652.53)"/>
</clipPath>
</defs>
</svg>
