<svg width="10" height="16" viewBox="0 0 10 16" fill="none" xmlns="http://www.w3.org/2000/svg">
<path d="M4.2 10.6V10C4.2 9.65333 4.23333 9.34 4.3 9.06C4.38 8.78 4.53333 8.48667 4.76 8.18C4.98667 7.87333 5.32667 7.52667 5.78 7.14C6.34 6.66 6.76667 6.22667 7.06 5.84C7.35333 5.45333 7.5 5.04 7.5 4.6C7.5 3.96 7.28667 3.43333 6.86 3.02C6.43333 2.60667 5.84667 2.4 5.1 2.4C4.35333 2.4 3.76667 2.60667 3.34 3.02C2.91333 3.43333 2.7 3.96 2.7 4.6H0.9C0.9 3.88 1.06667 3.23333 1.4 2.66C1.74667 2.08667 2.23333 1.63333 2.86 1.3C3.5 0.966666 4.24667 0.799999 5.1 0.799999C5.96667 0.799999 6.71333 0.966666 7.34 1.3C7.96667 1.63333 8.44667 2.08667 8.78 2.66C9.12667 3.23333 9.3 3.88 9.3 4.6C9.3 5.09333 9.19333 5.55333 8.98 5.98C8.78 6.40667 8.51333 6.80667 8.18 7.18C7.84667 7.55333 7.48667 7.90667 7.1 8.24C6.79333 8.48 6.55333 8.70667 6.38 8.92C6.22 9.13333 6.10667 9.34667 6.04 9.56C5.98667 9.76 5.96 9.97333 5.96 10.2V10.6H4.2ZM5.1 15.2C4.84667 15.2 4.61333 15.1333 4.4 15C4.18667 14.88 4.01333 14.7133 3.88 14.5C3.76 14.2867 3.7 14.0533 3.7 13.8C3.7 13.4 3.83333 13.0667 4.1 12.8C4.38 12.5333 4.71333 12.4 5.1 12.4C5.48667 12.4 5.81333 12.5333 6.08 12.8C6.36 13.0667 6.5 13.4 6.5 13.8C6.5 14.0533 6.43333 14.2867 6.3 14.5C6.18 14.7133 6.01333 14.88 5.8 15C5.6 15.1333 5.36667 15.2 5.1 15.2Z" fill="white"/>
</svg>
