<svg width="1341" height="1649" viewBox="0 0 1341 1649" fill="none" xmlns="http://www.w3.org/2000/svg">
<g style="mix-blend-mode:multiply">
<path d="M376.123 750.15L363.932 770.322C328.439 829.271 370.11 904.634 438.949 905.991L1380.27 923.654C1441.79 924.778 1499.22 893.02 1530.97 840.324L2016.51 33.6904C2052.08 -25.2998 2010.4 -100.663 1941.53 -101.903L1918.88 -101.351" stroke="#EBF2F9" stroke-opacity="0.6" stroke-width="27" stroke-miterlimit="10"/>
<path d="M931.034 108.389C930.603 109.016 930.213 109.719 929.857 110.305C929.857 110.305 580.751 694.332 573.753 700.148" stroke="#EBF2F9" stroke-opacity="0.6" stroke-width="27" stroke-miterlimit="10"/>
<path d="M450.792 905.769L444.166 916.83C408.672 975.779 450.343 1051.14 519.183 1052.5L1460.51 1070.16C1522.02 1071.29 1579.45 1039.53 1611.21 986.832L2096.74 180.198C2132.31 121.208 2090.64 45.8449 2021.77 44.6044L2010.17 44.396" stroke="#EBF2F9" stroke-opacity="0.6" stroke-width="27" stroke-miterlimit="10"/>
<path d="M529.352 1047.85L522.726 1058.91C487.233 1117.86 528.904 1193.22 597.743 1194.58L1539.07 1212.24C1600.58 1213.37 1658.01 1181.61 1689.77 1128.91L2175.3 322.278C2210.87 263.288 2169.2 187.925 2100.28 186.609L2088.69 186.401" stroke="#EBF2F9" stroke-opacity="0.6" stroke-width="27" stroke-miterlimit="10"/>
<path d="M1292.41 767.738C1362.6 770.487 1414.6 736.284 1447.2 682.143L1930.49 -120.815C1966.37 -180.466 1924.29 -256.574 1854.69 -257.899L920.843 -275.413C855.898 -276.586 795.145 -243.09 761.575 -187.347L280.694 611.166C244.272 671.602 286.973 748.829 357.524 750.114L466.327 752.149C513.386 752.993 557.338 728.69 581.644 688.386L981.056 25.0521C995.95 0.269697 1022.88 -14.716 1051.69 -14.4931L1477.72 -11.0079C1504.67 -10.8225 1521.18 18.6888 1507.28 41.7529L1156.21 625.213C1120.26 685.096 1161.34 761.856 1231.24 764.96L1292.41 767.738Z" stroke="#EBF2F9" stroke-opacity="0.6" stroke-width="27" stroke-miterlimit="10"/>
</g>
</svg>
