<svg width="31" height="31" viewBox="0 0 31 31" fill="none" xmlns="http://www.w3.org/2000/svg">
<g id="cryptocurrency-color:btc" clip-path="url(#clip0_27_109)">
<g id="Group">
<path id="Vector" d="M18.2043 27.3623C24.9274 25.6969 29.0276 18.8966 27.3622 12.1735C25.6969 5.45026 18.8966 1.35009 12.1734 3.01546C5.45022 4.68083 1.35005 11.4811 3.01542 18.2043C4.68079 24.9275 11.4811 29.0277 18.2043 27.3623Z" fill="#F7931A"/>
<path id="Vector_2" d="M20.2853 12.3275C20.1292 10.6736 18.7018 10.1171 16.8999 9.95622L16.9033 7.66201L15.5076 7.66052L15.5037 9.89427C15.1368 9.8931 14.7623 9.90027 14.3885 9.90726L14.3928 7.65887L12.9968 7.65661L12.9932 9.95006C12.6909 9.95549 12.3936 9.96131 12.1042 9.96031L12.1041 9.95308L10.1781 9.94968L10.176 11.4409C10.176 11.4409 11.2076 11.4228 11.1904 11.4416C11.756 11.4428 11.9391 11.7713 11.9925 12.0552L11.9889 14.6685C12.0277 14.6685 12.0783 14.6706 12.1366 14.6779L11.9889 14.6782L11.9833 18.3392C11.9578 18.5167 11.8528 18.8003 11.4572 18.8006C11.4756 18.8163 10.4426 18.7992 10.4426 18.7992L10.1626 20.4658L11.9802 20.4686C12.318 20.4697 12.6507 20.4762 12.9767 20.4786L12.974 22.7985L14.369 22.8001L14.3724 20.5059C14.7555 20.5136 15.1262 20.5171 15.4881 20.5178L15.484 22.8025L16.8797 22.804L16.8836 20.4887C19.2317 20.3577 20.8753 19.7689 21.0827 17.5646C21.2505 15.7901 20.4166 14.9962 19.0845 14.6745C19.8952 14.2637 20.4019 13.5382 20.2853 12.3275ZM18.3237 17.2855C18.3229 19.0195 15.3536 18.8174 14.4071 18.8169L14.4128 15.7429C15.3597 15.7449 18.3273 15.4774 18.3237 17.2855ZM17.6812 12.9475C17.6788 14.5252 15.203 14.3366 14.4154 14.3355L14.4195 11.5485C15.2072 11.5497 17.6838 11.302 17.6812 12.9475Z" fill="white"/>
</g>
</g>
<defs>
<clipPath id="clip0_27_109">
<rect width="25.0826" height="25.0826" fill="white" transform="translate(0 6.03088) rotate(-13.9124)"/>
</clipPath>
</defs>
</svg>
