<svg width="24" height="25" viewBox="0 0 24 25" fill="none" xmlns="http://www.w3.org/2000/svg">
<g clip-path="url(#clip0_1042_2967)">
<path d="M12.0002 9.97021C10.4002 9.97021 8.85024 10.2202 7.40024 10.6902L7.40024 13.7902C7.40024 14.1902 7.17024 14.5302 6.84024 14.6902C5.86024 15.1802 4.97024 15.8102 4.17024 16.5402C4.00024 16.7202 3.75024 16.8302 3.50024 16.8302C3.20024 16.8302 2.95024 16.7102 2.77024 16.5302L0.290244 14.0502C0.110244 13.8702 0.000244141 13.6202 0.000244141 13.3502C0.000244141 13.0702 0.110244 12.8202 0.290244 12.6402C3.34024 9.74021 7.46024 7.97021 12.0002 7.97021C16.5402 7.97021 20.6602 9.74021 23.7102 12.6402C23.8902 12.8202 24.0002 13.0702 24.0002 13.3502C24.0002 13.6202 23.8902 13.8702 23.7102 14.0502L21.2302 16.5302C21.0502 16.7102 20.8002 16.8302 20.5002 16.8302C20.2502 16.8302 20.0002 16.7202 19.8202 16.5402C19.0302 15.8102 18.1402 15.1802 17.1602 14.6902C16.8302 14.5302 16.6002 14.1902 16.6002 13.7902V10.6902C15.1502 10.2202 13.6002 9.97021 12.0002 9.97021Z" fill="#FFD12F"/>
</g>
<defs>
<clipPath id="clip0_1042_2967">
<rect width="24" height="24" fill="white" transform="translate(0.000244141 0.970215)"/>
</clipPath>
</defs>
</svg>
