<svg width="16" height="16" viewBox="0 0 16 16" fill="none" xmlns="http://www.w3.org/2000/svg">
<circle cx="8" cy="8" r="8" fill="#FFC700"/>
<path d="M8.11255 12C7.49572 12 6.99567 11.5 6.99567 10.8831V5.11688C6.99567 4.50005 7.49572 4 8.11255 4C8.72939 4 9.22944 4.50005 9.22944 5.11688V10.8831C9.22944 11.5 8.72939 12 8.11255 12ZM5.05628 9.05628C4.47291 9.05628 4 8.58337 4 8C4 7.41663 4.47291 6.94372 5.05628 6.94372H11.1861C11.7695 6.94372 12.2424 7.41663 12.2424 8C12.2424 8.58337 11.7695 9.05628 11.1861 9.05628H5.05628Z" fill="black"/>
</svg>
