<svg width="38" height="38" viewBox="0 0 38 38" fill="none" xmlns="http://www.w3.org/2000/svg">
<path d="M19.0004 0C14.395 0 10.6484 3.74664 10.6484 8.35198C10.6484 12.9573 14.3951 16.704 19.0004 16.704C23.6058 16.704 27.3524 12.9572 27.3524 8.35198C27.3524 3.74664 23.6058 0 19.0004 0Z" fill="white"/>
<path d="M20.9966 20.8262V22.8416V24.8663V33.3406C20.9966 33.5743 20.9544 33.7976 20.8805 34.0061C20.6062 34.7809 19.869 35.337 19.0001 35.337C18.1312 35.337 17.3942 34.7809 17.1197 34.0061C17.0459 33.7977 17.0036 33.5743 17.0036 33.3406V24.8663V22.8416V20.8262C9.50345 21.8076 3.6936 28.2391 3.6936 36.0026C3.6936 37.1051 4.58749 37.9991 5.69009 37.9991H32.3101C33.4126 37.9991 34.3065 37.1051 34.3065 36.0026C34.3066 28.2392 28.4968 21.8076 20.9966 20.8262Z" fill="white"/>
</svg>
