<svg width="40" height="40" viewBox="0 0 40 40" fill="none" xmlns="http://www.w3.org/2000/svg">
<path d="M20 40C17.2333 40 14.6333 39.475 12.2 38.425C9.76667 37.375 7.65 35.95 5.85 34.15C4.05 32.35 2.625 30.2333 1.575 27.8C0.525 25.3667 0 22.7667 0 20C0 17.2333 0.525 14.6333 1.575 12.2C2.625 9.76667 4.05 7.65 5.85 5.85C7.65 4.05 9.76667 2.625 12.2 1.575C14.6333 0.525 17.2333 0 20 0C22.7667 0 25.3667 0.525 27.8 1.575C30.2333 2.625 32.35 4.05 34.15 5.85C35.95 7.65 37.375 9.76667 38.425 12.2C39.475 14.6333 40 17.2333 40 20C40 22.7667 39.475 25.3667 38.425 27.8C37.375 30.2333 35.95 32.35 34.15 34.15C32.35 35.95 30.2333 37.375 27.8 38.425C25.3667 39.475 22.7667 40 20 40ZM20 36C24.4667 36 28.25 34.45 31.35 31.35C34.45 28.25 36 24.4667 36 20C36 19.7667 35.9917 19.525 35.975 19.275C35.9583 19.025 35.95 18.8167 35.95 18.65C35.7833 19.6167 35.3333 20.4167 34.6 21.05C33.8667 21.6833 33 22 32 22H28C26.9 22 25.9583 21.6083 25.175 20.825C24.3917 20.0417 24 19.1 24 18V16H16V12C16 10.9 16.3917 9.95833 17.175 9.175C17.9583 8.39167 18.9 8 20 8H22C22 7.23333 22.2083 6.55833 22.625 5.975C23.0417 5.39167 23.55 4.91667 24.15 4.55C23.4833 4.38333 22.8083 4.25 22.125 4.15C21.4417 4.05 20.7333 4 20 4C15.5333 4 11.75 5.55 8.65 8.65C5.55 11.75 4 15.5333 4 20H14C16.2 20 18.0833 20.7833 19.65 22.35C21.2167 23.9167 22 25.8 22 28V30H16V35.5C16.6667 35.6667 17.325 35.7917 17.975 35.875C18.625 35.9583 19.3 36 20 36Z" fill="white"/>
</svg>
