<svg width="42" height="42" viewBox="0 0 42 42" fill="none" xmlns="http://www.w3.org/2000/svg">
<g clip-path="url(#clip0_2593_7251)">
<path d="M41.75 35.0786L33.6285 18.3652C32.7327 16.5217 30.0994 16.5233 29.2044 18.3652L24.8242 27.3792L20.9895 20.6153C20.0486 18.9557 17.6513 18.9557 16.7104 20.6153L15.8379 22.1543L12.8715 14.6169C12.8586 14.5838 12.8433 14.5523 12.829 14.52C11.9352 12.5067 9.08357 12.6116 8.29426 14.6169L4.64847 23.8808L0.172924 35.2528C-0.461998 36.8661 0.730408 38.613 2.46151 38.613C3.86548 38.613 38.2097 38.613 39.538 38.613C41.3483 38.613 42.5444 36.7132 41.75 35.0786ZM12.5695 24.344L10.5829 25.8356L8.79835 23.2783L6.93706 24.7816L10.5829 15.5175L14.2288 24.7815L12.5695 24.344ZM20.2075 29.5044L17.2544 26.8281L15.213 28.2434L18.85 21.8283L22.4869 28.2434L20.2075 29.5044ZM32.2047 26.5511L30.9127 28.9908L29.5285 25.8354L27.7667 26.9513L31.4165 19.4401L35.0664 26.9514C33.787 26.9514 34.4191 27.0313 32.2047 26.5511Z" fill="white"/>
<path d="M23.2997 14.5525C26.383 14.5525 28.8826 12.0529 28.8826 8.9696C28.8826 5.88626 26.383 3.38672 23.2997 3.38672C20.2163 3.38672 17.7168 5.88626 17.7168 8.9696C17.7168 12.0529 20.2163 14.5525 23.2997 14.5525Z" fill="white"/>
</g>
<defs>
<clipPath id="clip0_2593_7251">
<rect width="42" height="42" fill="white"/>
</clipPath>
</defs>
</svg>
