<svg width="42" height="30" viewBox="0 0 42 30" fill="none" xmlns="http://www.w3.org/2000/svg">
<path d="M40.1058 20.9281C38.7575 18.9417 36.6414 17.6115 34.2876 17.2481V13.3563C34.4635 13.3545 34.6501 13.3479 34.8451 13.3338C36.3421 13.2256 37.5132 12.7586 38.3259 11.946C39.1398 11.1322 39.6052 9.95103 39.7092 8.43534C39.7794 7.41232 39.656 6.60103 39.6416 6.51187L39.4992 5.62511L38.6113 5.49033C38.5229 5.47688 37.718 5.36154 36.7025 5.44029C35.2012 5.55678 34.0289 6.02698 33.2179 6.83802C32.4023 7.65358 31.9403 8.83351 31.8445 10.3449C31.8211 10.7148 31.8234 11.0562 31.8363 11.3463H31.8267V17.2261C30.0069 17.4737 28.3078 18.3006 26.9891 19.5748C25.6895 18.319 24.0204 17.4974 22.2306 17.2369V10.423C22.3451 10.4262 22.4648 10.428 22.5894 10.428C22.8602 10.428 23.1531 10.4194 23.4589 10.3973C25.4271 10.255 26.9567 9.65112 28.0053 8.6026C29.0551 7.55284 29.6568 6.00975 29.7936 4.01623C29.8894 2.61965 29.7119 1.49106 29.7043 1.44373L29.562 0.556971L28.674 0.422194C28.6271 0.415058 27.5084 0.249026 26.1221 0.356487C24.147 0.509803 22.6147 1.11831 21.5678 2.16511C21.3607 2.37224 21.1719 2.59914 21.0001 2.84384C20.8283 2.59914 20.6396 2.37224 20.4324 2.16511C19.3855 1.11823 17.8533 0.509721 15.8781 0.356487C14.4919 0.248862 13.3731 0.414976 13.3262 0.422194L12.4382 0.556971L12.2959 1.44373C12.2884 1.49106 12.1108 2.61965 12.2067 4.01623C12.3435 6.00975 12.9452 7.55284 13.9949 8.6026C15.0435 9.65112 16.5732 10.255 18.5414 10.3973C18.8473 10.4194 19.1399 10.428 19.4109 10.428C19.5355 10.428 19.6552 10.4262 19.7697 10.423V17.2369C17.9798 17.4974 16.3107 18.319 15.0111 19.5748C13.7053 18.313 12.0264 17.4897 10.2268 17.2333V11.3463H10.2172C10.2301 11.0563 10.2323 10.7149 10.209 10.3449C10.1132 8.83351 9.65114 7.65366 8.8355 6.83802C8.02454 6.02706 6.85215 5.55678 5.3509 5.44029C4.33511 5.36162 3.53054 5.47688 3.44211 5.49033L2.55413 5.62511L2.4118 6.51187C2.39753 6.60095 2.27399 7.41232 2.34421 8.43534C2.4483 9.95103 2.91367 11.1322 3.7275 11.946C4.54018 12.7586 5.71126 13.2256 7.20825 13.3338C7.4034 13.3479 7.58994 13.3545 7.76573 13.3563V17.2407C5.39068 17.5922 3.2527 18.9268 1.89427 20.9281H0V29.6781H42V20.9281H40.1058Z" fill="white"/>
</svg>
