<svg width="38" height="38" viewBox="0 0 38 38" fill="none" xmlns="http://www.w3.org/2000/svg">
<g clip-path="url(#clip0_2593_7234)">
<path d="M18.9772 11.207C18.3817 11.207 17.0067 13.5556 16.7937 17.8867H21.1607C20.9478 13.5556 19.5727 11.207 18.9772 11.207Z" fill="white"/>
<path d="M23.3876 17.8867H28.8843C28.3223 12.8907 24.1212 8.98047 18.9773 8.98047C21.682 8.98047 23.1767 13.2978 23.3876 17.8867Z" fill="white"/>
<path d="M14.567 17.8867C14.778 13.2978 16.2726 8.98047 18.9773 8.98047C13.8334 8.98047 9.63237 12.8907 9.07031 17.8867H14.567Z" fill="white"/>
<path d="M18.9774 26.793C19.5729 26.793 20.9479 24.4444 21.1609 20.1133H16.7939C17.0069 24.4444 18.3819 26.793 18.9774 26.793Z" fill="white"/>
<path d="M14.567 20.1133H9.07031C9.63237 25.1093 13.8334 29.0195 18.9773 29.0195C16.2726 29.0195 14.778 24.7022 14.567 20.1133Z" fill="white"/>
<path d="M23.3876 20.1133C23.1767 24.7022 21.682 29.0195 18.9773 29.0195C24.1212 29.0195 28.3223 25.1093 28.8843 20.1133H23.3876Z" fill="white"/>
<path d="M38 3.41406L34.6602 6.75391H18.9108C12.1867 6.79851 6.73157 12.2757 6.73157 19C6.73157 23.1414 8.80227 26.8152 11.9639 29.0195H2.94634C1.07617 26.0359 0 22.5624 0 19C0 8.55742 8.53508 0 18.9777 0H34.6602L38 3.41406Z" fill="white"/>
<path d="M38 19C38 29.4426 29.4202 38 18.9777 38H3.33984L0 34.5859L3.33984 31.2461H18.9777C25.7242 31.2461 31.2238 25.7466 31.2238 19C31.2238 14.8586 29.1531 11.1848 25.9914 8.98047H35.009C36.8792 11.9641 38 15.4376 38 19Z" fill="white"/>
</g>
<defs>
<clipPath id="clip0_2593_7234">
<rect width="38" height="38" fill="white"/>
</clipPath>
</defs>
</svg>
