<svg width="42" height="42" viewBox="0 0 42 42" fill="none" xmlns="http://www.w3.org/2000/svg">
<g clip-path="url(#clip0_2593_7262)">
<path d="M41.3 12.6H29.4V0.699973C29.4 0.312867 29.0864 0 28.7 0H13.3C12.9136 0 12.6 0.312867 12.6 0.699973V12.6H0.699973C0.313605 12.6 0 12.9129 0 13.3V28.6999C0 29.0871 0.313605 29.3999 0.699973 29.3999H12.6V41.2999C12.6 41.687 12.9136 41.9999 13.3 41.9999H28.6999C29.0863 41.9999 29.3999 41.687 29.3999 41.2999V29.4H41.2999C41.6863 29.4 41.9999 29.0871 41.9999 28.7V13.3C42 12.9129 41.6864 12.6 41.3 12.6ZM4.89997 21.7H3.50003C3.11366 21.7 2.80005 21.3871 2.80005 21C2.80005 20.6129 3.11366 20.3 3.50003 20.3H4.90005C5.28642 20.3 5.60003 20.6129 5.60003 21C5.60003 21.3871 5.28642 21.7 4.89997 21.7ZM10.5 21.7H8.4C8.01363 21.7 7.70003 21.3871 7.70003 21C7.70003 20.6129 8.01363 20.3 8.4 20.3H10.5C10.8864 20.3 11.2 20.6129 11.2 21C11.2 21.3871 10.8864 21.7 10.5 21.7ZM16.1 21.7H14C13.6137 21.7 13.3001 21.3871 13.3001 21C13.3001 20.6129 13.6137 20.3 14 20.3H16.1C16.4864 20.3 16.8 20.6129 16.8 21C16.8 21.3871 16.4864 21.7 16.1 21.7ZM21.7 38.5C21.7 38.8871 21.3864 39.1999 21 39.1999C20.6136 39.1999 20.3 38.8871 20.3 38.5V37.0999C20.3 36.7128 20.6136 36.4 21 36.4C21.3864 36.4 21.7 36.7128 21.7 37.0999V38.5ZM21.7 33.6C21.7 33.9871 21.3864 34.3 21 34.3C20.6136 34.3 20.3 33.9871 20.3 33.6V31.5C20.3 31.1129 20.6136 30.8 21 30.8C21.3864 30.8 21.7 31.1129 21.7 31.5V33.6ZM21.7 28C21.7 28.3871 21.3864 28.6999 21 28.6999C20.6136 28.6999 20.3 28.3871 20.3 28V25.9C20.3 25.5129 20.6136 25.2 21 25.2C21.3864 25.2 21.7 25.5129 21.7 25.9V28ZM21.7 22.4C21.7 22.7871 21.3864 23.1 21 23.1C20.6136 23.1 20.3 22.7871 20.3 22.4V20.3C20.3 19.9129 20.6136 19.6001 21 19.6001C21.3864 19.6001 21.7 19.9129 21.7 20.3V22.4ZM21.7 16.8C21.7 17.1871 21.3864 17.5 21 17.5C20.6136 17.5 20.3 17.1871 20.3 16.8V14.7C20.3 14.3129 20.6136 14 21 14C21.3864 14 21.7 14.3129 21.7 14.7V16.8ZM21.7 11.2C21.7 11.5871 21.3864 11.8999 21 11.8999C20.6136 11.8999 20.3 11.5871 20.3 11.2V9.09997C20.3 8.71287 20.6136 8.4 21 8.4C21.3864 8.4 21.7 8.71287 21.7 9.09997V11.2ZM21.7 5.60003C21.7 5.98713 21.3864 6.3 21 6.3C20.6136 6.3 20.3 5.98713 20.3 5.60003V3.50003C20.3 3.11292 20.6136 2.80005 21 2.80005C21.3864 2.80005 21.7 3.11292 21.7 3.50003V5.60003ZM27.3 21.7H25.2C24.8136 21.7 24.5 21.3871 24.5 21C24.5 20.6129 24.8136 20.3 25.2 20.3H27.3C27.6864 20.3 28 20.6129 28 21C28 21.3871 27.6864 21.7 27.3 21.7ZM32.9 21.7H30.8C30.4137 21.7 30.1001 21.3871 30.1001 21C30.1001 20.6129 30.4137 20.3 30.8 20.3H32.9C33.2864 20.3 33.6 20.6129 33.6 21C33.6 21.3871 33.2864 21.7 32.9 21.7ZM38.5 21.7H36.4C36.0136 21.7 35.7 21.3871 35.7 21C35.7 20.6129 36.0136 20.3 36.4 20.3H38.5C38.8863 20.3 39.1999 20.6129 39.1999 21C39.2 21.3871 38.8864 21.7 38.5 21.7Z" fill="white"/>
</g>
<defs>
<clipPath id="clip0_2593_7262">
<rect width="42" height="42" fill="white"/>
</clipPath>
</defs>
</svg>
