<svg width="31" height="25" viewBox="0 0 31 25" fill="none" xmlns="http://www.w3.org/2000/svg">
<path d="M19.0547 12.5002L19.7478 11.7793L20.4975 12.5002L19.7478 13.221L19.0547 12.5002ZM0.999132 13.5002C0.446847 13.5002 -0.000867844 13.0524 -0.000867844 12.5002C-0.000867844 11.9479 0.446847 11.5002 0.999132 11.5002V13.5002ZM8.91446 1.36266L19.7478 11.7793L18.3616 13.221L7.52824 2.80433L8.91446 1.36266ZM19.7478 13.221L8.91446 23.6377L7.52824 22.196L18.3616 11.7793L19.7478 13.221ZM19.0547 13.5002H0.999132V11.5002H19.0547V13.5002Z" fill="#09090B"/>
<path fill-rule="evenodd" clip-rule="evenodd" d="M28.4727 25L28.4727 0L30.4727 -6.07103e-08L30.4727 25L28.4727 25Z" fill="#09090B"/>
</svg>
