<?xml version="1.0" encoding="utf-8"?><svg xmlns="http://www.w3.org/2000/svg" width="485.213" height="485.212" viewBox="0 0 485.213 485.212"><path d="M69.099 2.008c-2.32 1.165-4.849 3.262-6.021 4.994l-2.022 2.986-.235 34.238c-.222 32.307-.148 34.436 1.319 37.752.855 1.933 2.787 4.455 4.295 5.604 2.633 2.009 8.795 3.968 10.692 3.399.501-.15 1.906-.49 3.12-.756 2.743-.601 7.529-4.724 9.357-8.061 1.213-2.215 1.402-6.188 1.62-33.952.16-20.508-.059-32.867-.632-35.539-1.11-5.173-4.145-9.186-8.416-11.126-4.532-2.058-8.325-1.924-13.077.461m242.607 0c-2.32 1.165-4.849 3.262-6.022 4.994l-2.022 2.986-.235 34.238c-.222 32.307-.147 34.436 1.319 37.752.855 1.933 2.788 4.455 4.295 5.604 2.634 2.009 8.796 3.968 10.693 3.399.501-.15 1.905-.49 3.12-.756 2.742-.601 7.528-4.724 9.356-8.061 1.213-2.215 1.403-6.188 1.62-33.952.161-20.508-.059-32.867-.632-35.539-1.109-5.173-4.145-9.186-8.416-11.126-4.531-2.058-8.325-1.924-13.076.461M24.28 61.948C16.389 64.069 8.627 70.042 4.396 77.25c-4.634 7.895-4.433.63-4.203 152.068l.211 139.04 1.879 4.651c3.838 9.505 12.927 17.756 22.181 20.135 3.44.885 21.63 1.092 96.031 1.092h91.786l.22-15.16.22-15.159-90.793-.206-90.793-.206-.206-105.736-.205-105.736H363.91v60.688l15.163-.22 15.163-.22.22-58.63c.142-38.009-.079-60.584-.629-64.186-1.753-11.467-8.756-20.904-19.11-25.749-4.952-2.317-6.269-2.56-15.711-2.901l-10.305-.372-.285 11.628c-.258 10.518-.486 12.053-2.391 16.076-3.121 6.592-8.023 11.645-14.286 14.729-5.015 2.469-5.976 2.658-13.503 2.658-7.231 0-8.599-.244-12.696-2.255-6.096-2.994-12.897-10.355-15.26-16.519-1.411-3.68-1.88-6.965-2.196-15.393l-.402-10.715H106.09l-.283 11.523c-.256 10.408-.487 11.955-2.389 15.972-3.121 6.592-8.022 11.645-14.286 14.729-5.015 2.469-5.975 2.658-13.503 2.658-7.23 0-8.598-.244-12.695-2.255-6.096-2.994-12.897-10.355-15.261-16.519-1.411-3.68-1.88-6.965-2.196-15.393l-.401-10.715-8.184.053c-4.501.029-10.176.589-12.612 1.243m36.372 150.333v30.326h60.651v-60.652H60.652v30.326m90.573 0v30.326h61.46v-60.652h-61.46v30.326m91.382 0v30.326h60.651v-60.652h-60.651v30.326m105.129 31.489c-14.496 2.1-25.619 5.545-38.008 11.773-33.604 16.889-56.462 46.734-64.878 84.706-2.535 11.439-2.535 35.883 0 47.322 10.91 49.224 46.978 85.293 95.219 95.219 11.236 2.312 36.446 2.312 47.681 0 48.208-9.919 84.352-46.053 95.181-95.153 2.544-11.533 2.544-35.921 0-47.455-11.034-50.029-48.8-86.885-97.984-95.622-9.868-1.753-27.919-2.136-37.211-.79M60.652 303.662v30.326h60.651v-60.651H60.652v30.325m90.765-.202l.212 30.124h60.652l.212-30.124.212-30.123h-61.5l.212 30.123m228.763-28.936c36.504 6.393 66.723 36.611 73.116 73.116 2.436 13.91 1.147 32.484-3.121 44.978-8.503 24.89-28.188 45.954-51.773 55.398-22.635 9.063-46.35 9.063-68.984 0-27.903-11.173-49.685-38.091-54.894-67.836-1.521-8.682-1.521-23.858 0-32.54 6.349-36.257 36.446-66.533 72.674-73.106 7.96-1.444 24.764-1.45 32.982-.01m-37.794 30.281c-4.271 1.94-7.307 5.953-8.416 11.126-.573 2.672-.793 15.031-.632 35.54.264 33.707.18 33.017 4.59 37.782 4.672 5.048 4.025 4.959 38.379 5.229 35.954.281 38.562.007 43.347-4.556 7.906-7.541 5.689-19.931-4.386-24.508-2.899-1.317-5.779-1.475-27.3-1.49l-24.058-.018-.005-23.654c-.002-13.028-.362-24.942-.801-26.521-1.479-5.326-8.768-10.499-14.736-10.459-1.459.01-4.152.698-5.982 1.529" fill-rule="evenodd"/></svg>