<?xml version="1.0" ?><!DOCTYPE svg  PUBLIC '-//W3C//DTD SVG 1.1//EN'  'http://www.w3.org/Graphics/SVG/1.1/DTD/svg11.dtd'><svg height="32" viewBox="0 0 846.66 846.66" width="32" xmlns="http://www.w3.org/2000/svg" shape-rendering="geometricPrecision" text-rendering="geometricPrecision" image-rendering="optimizeQuality" fill-rule="evenodd" clip-rule="evenodd"><defs><style>.cfil0{fill:#000;fill-rule:nonzero}</style></defs><path class="cfil0" d="M303.84 160.66h238.98V90.92c0-11.44 9.28-20.71 20.71-20.71h92.72c11.43 0 20.7 9.27 20.7 20.71v69.74h51.66c59.94 0 108.9 48.96 108.9 108.9v397.99c0 59.94-48.96 108.9-108.9 108.9H118.05c-59.94 0-108.9-48.96-108.9-108.9V269.56c0-59.94 48.96-108.9 108.9-108.9h51.66V90.92c0-11.44 9.27-20.71 20.71-20.71h92.71c11.44 0 20.71 9.27 20.71 20.71v69.74zM123.69 390.52h57.67v57.67h-57.67v-57.67zm0 187.12h57.67v57.66h-57.67v-57.66zm432.47 0h57.67v57.66h-57.67v-57.66zm-144.16 0h57.67v57.66H412v-57.66zm-144.15 0h57.66v57.66h-57.66v-57.66zm-144.16-93.56h57.67v57.67h-57.67v-57.67zm432.47 0h57.67v57.67h-57.67v-57.67zm-144.16 0h57.67v57.67H412v-57.67zm-144.15 0h57.66v57.67h-57.66v-57.67zm288.31-93.56h57.67v57.67h-57.67v-57.67zm-144.16 0h57.67v57.67H412v-57.67zm-144.15 0h57.66v57.67h-57.66v-57.67zM50.57 301.98h612.45c27.24 0 27.24 41.42 0 41.42H50.57v324.15c0 37.07 30.41 67.48 67.48 67.48h610.56c37.07 0 67.48-30.41 67.48-67.48V269.56c0-37.07-30.41-67.48-67.48-67.48h-51.66v33.56c0 11.43-9.27 20.71-20.7 20.71h-92.72c-11.43 0-20.71-9.28-20.71-20.71v-33.56H303.84v33.56c0 11.43-9.27 20.71-20.71 20.71h-92.71c-11.44 0-20.71-9.28-20.71-20.71v-33.56h-51.66c-37.07 0-67.48 30.41-67.48 67.48v32.42zm211.85-190.35h-51.29v103.3h51.29v-103.3zm373.12 0h-51.3v103.3h51.3v-103.3z" id="cLayer_x0020_1"/></svg>