<?xml version="1.0" encoding="utf-8"?><svg xmlns="http://www.w3.org/2000/svg" width="512" height="512" viewBox="0 0 512 512"><path d="M223.634 15.148c-1.609.821-3.721 2.576-4.693 3.901-1.711 2.333-1.768 3.399-1.768 33.431 0 30.001.058 31.099 1.76 33.378 3.677 4.926 5.596 5.695 15.269 6.126l8.998.4v69.529l-4.351.578c-10.008 1.327-25.394 7.582-35.628 14.483-2.511 1.694-4.818 3.079-5.126 3.079-.933 0-48.762-48.158-48.762-49.099 0-.481 2.333-3.166 5.185-5.967 2.852-2.802 5.732-6.131 6.4-7.398 1.451-2.75 1.582-7.75.272-10.338-1.346-2.658-40.831-42.264-43.601-43.734-2.949-1.566-7.802-1.566-10.751 0-1.268.673-11.644 10.591-23.06 22.041-19.135 19.194-20.791 21.092-21.225 24.325-.259 1.929-.204 4.586.121 5.905.653 2.646 40.155 43.012 44.164 45.128 2.948 1.557 7.801 1.558 10.751.002 1.267-.668 4.596-3.548 7.398-6.4 2.801-2.852 5.491-5.185 5.979-5.185.487 0 11.795 10.915 25.129 24.255l24.244 24.255-3.507 5.399c-6.861 10.563-11.781 22.401-14.162 34.074l-1.113 5.457-34.586.223-34.586.223-.401-9.007c-.431-9.684-1.199-11.601-6.126-15.279-2.278-1.701-3.379-1.76-33.227-1.76H21.76l-2.87 2.047c-5.097 3.635-5.237 4.625-5.235 36.966.001 32.196.119 33.002 5.393 36.873 2.305 1.692 3.637 1.779 31.146 2.025 15.807.142 29.996.027 31.531-.255 1.535-.282 4.082-1.646 5.658-3.03 3.478-3.054 4.777-7.557 4.777-16.56v-6.458l34.699.223 34.698.223 1.113 5.457c2.357 11.553 7.832 24.594 14.619 34.815l3.075 4.632-24.676 24.687-24.676 24.687-5.986-5.87c-3.292-3.229-6.825-6.298-7.85-6.82-2.589-1.317-7.589-1.185-10.338.275-1.268.673-11.713 10.66-23.211 22.193l-20.907 20.97v11.076l21.823 21.823c20.187 20.187 22.087 21.859 25.335 22.294 1.932.26 4.591.205 5.91-.12 2.646-.653 43.012-40.155 45.128-44.164 1.557-2.948 1.558-7.801.002-10.751-.668-1.267-3.548-4.596-6.4-7.398-2.852-2.801-5.185-5.491-5.185-5.979 0-.487 10.921-11.801 24.268-25.142l24.268-24.256 4.632 3.075c10.221 6.787 23.262 12.262 34.815 14.619l5.457 1.113.223 35.125.223 35.125h-8.843c-7.774 0-9.194.235-11.743 1.937-5.779 3.861-5.884 4.518-5.884 36.89 0 31.932.123 32.767 5.394 36.633 2.333 1.712 3.393 1.767 33.857 1.767s31.524-.055 33.857-1.767c5.271-3.866 5.394-4.701 5.394-36.633 0-32.372-.105-33.029-5.884-36.89-2.549-1.702-3.969-1.937-11.743-1.937h-8.843l.223-35.125.223-35.125 5.457-1.113c11.553-2.357 24.594-7.832 34.815-14.619l4.632-3.075 24.268 24.256c13.347 13.341 24.268 24.655 24.268 25.142 0 .488-2.333 3.178-5.185 5.979-2.852 2.802-5.732 6.131-6.4 7.398-1.556 2.95-1.555 7.803.002 10.751 2.116 4.009 42.482 43.511 45.128 44.164 1.319.325 3.978.38 5.91.12 3.248-.435 5.141-2.1 25.183-22.141 20.041-20.042 21.706-21.935 22.141-25.183.26-1.932.205-4.591-.12-5.91-.653-2.646-40.155-43.012-44.164-45.128-2.753-1.454-7.753-1.584-10.338-.269-1.025.522-4.558 3.591-7.85 6.82l-5.986 5.87-24.676-24.687-24.676-24.687 3.075-4.632c6.787-10.221 12.262-23.262 14.619-34.815l1.113-5.457 34.586-.223 34.586-.223.401 9.007c.431 9.684 1.199 11.601 6.126 15.279 2.279 1.702 3.377 1.76 33.378 1.76 30.032 0 31.098-.057 33.431-1.768 5.279-3.872 5.393-4.656 5.393-37.059 0-33.787-.023-33.914-6.824-37.358-3.807-1.927-4.097-1.942-33.432-1.706-28.361.227-29.69.311-31.947 1.997-4.926 3.679-5.694 5.596-6.125 15.279l-.401 9.007-34.586-.223-34.586-.223-1.113-5.457c-2.357-11.553-7.832-24.594-14.619-34.815l-3.075-4.632 24.256-24.268c13.341-13.347 24.655-24.268 25.142-24.268.488 0 3.178 2.333 5.979 5.185 2.802 2.852 6.131 5.732 7.398 6.4 2.95 1.556 7.803 1.555 10.751-.002 4.009-2.116 43.511-42.482 44.164-45.128.325-1.319.38-3.976.121-5.905-.434-3.233-2.09-5.131-21.225-24.325-11.416-11.45-21.792-21.368-23.06-22.041-2.745-1.458-7.744-1.593-10.338-.28-2.658 1.345-42.264 40.831-43.734 43.601-1.563 2.943-1.566 7.796-.008 10.751.668 1.267 3.548 4.596 6.4 7.398 2.852 2.801 5.185 5.491 5.185 5.979 0 .94-47.839 49.087-48.773 49.087-.302 0-2.604-1.385-5.115-3.079-10.234-6.901-25.62-13.156-35.628-14.483l-4.351-.578V92.16h6.449c8.993 0 13.497-1.3 16.55-4.777 1.384-1.576 2.748-4.123 3.03-5.658.282-1.535.397-15.724.255-31.531-.356-39.732 3.061-36.538-39.084-36.538-26.344 0-29.748.157-32.366 1.492m46.019 37.332v14.08h-27.306V38.4h27.306v14.08m-147.4 69.747l-10.014 10.04-10.04-10.014-10.04-10.014 10.014-10.04 10.014-10.04 10.04 10.014 10.04 10.014-10.014 10.04m287.574 0l-10.014 10.04-10.04-10.014-10.04-10.014 10.014-10.04 10.014-10.04 10.04 10.014 10.04 10.014-10.014 10.04m-139.551 65.147c25.686 5.306 46.544 25.028 53.676 50.755 2.137 7.708 2.143 27.98.01 35.791-3.613 13.235-12.597 27.218-23.087 35.934-35.04 29.115-87.996 17.562-107.998-23.561-4.552-9.357-6.025-15.379-6.589-26.93-1.25-25.59 10.219-48.141 31.577-62.083 15.297-9.986 34.473-13.611 52.411-9.906M66.56 256.427v14.08H38.4v-28.16h28.16v14.08m407.04 0v14.08h-28.16v-28.16h28.16v14.08M122.253 409.801l-10.014 10.04-10.04-10.014-10.04-10.014 10.014-10.04 10.014-10.04 10.04 10.014 10.04 10.014-10.014 10.04m287.574 0l-10.014 10.04-10.04-10.014-10.04-10.014 10.014-10.04 10.014-10.04 10.04 10.014 10.04 10.014-10.014 10.04M269.653 459.52v14.08h-27.306v-28.16h27.306v14.08" fill-rule="evenodd"/></svg>