<?xml version="1.0" encoding="iso-8859-1"?><svg height="800" width="800" xmlns="http://www.w3.org/2000/svg" viewBox="0 0 612 612"><path d="M571.456 50.223H192.671c-22.356 0-40.541 18.188-40.541 40.541V246.059L34.006 268.092c-10.929 2.04-20.413 8.212-26.699 17.382-6.289 9.17-8.628 20.243-6.588 31.172l39.383 211.132c3.675 19.701 20.873 34 40.893 34 2.556 0 5.132-.24 7.661-.712l370.227-69.063c10.929-2.037 20.413-8.212 26.699-17.382 6.286-9.17 8.625-20.24 6.588-31.172l-17.757-95.203h97.046c22.356 0 40.541-18.188 40.541-40.541V90.767c-.003-22.359-18.188-40.544-40.544-40.544zM138.039 481.196l-45.597 8.159c-.873.155-1.741.232-2.6.232-6.961 0-13.139-4.982-14.408-12.075-1.424-7.966 3.877-15.58 11.843-17.007l45.597-8.159c7.969-1.421 15.58 3.877 17.007 11.843s-3.874 15.58-11.842 17.007zm11.731-85.976a22.267 22.267 0 01-14.393 9.367L89.728 413.1a22.658 22.658 0 01-4.124.381c-10.794 0-20.064-7.705-22.042-18.323l-5.926-31.772c-2.268-12.157 5.777-23.897 17.936-26.169l45.655-8.517a22.675 22.675 0 014.121-.381c10.794 0 20.067 7.705 22.045 18.32l5.926 31.775a22.28 22.28 0 01-3.549 16.806zm84.872 68.688l-45.597 8.159c-.873.155-1.741.232-2.6.232-6.961 0-13.139-4.982-14.408-12.075-1.424-7.966 3.877-15.58 11.843-17.007l45.597-8.159c7.963-1.416 15.58 3.877 17.007 11.843 1.429 7.965-3.876 15.579-11.842 17.007zm96.601-17.289l-45.597 8.159c-.873.155-1.741.232-2.6.232-6.961 0-13.139-4.982-14.408-12.075-1.424-7.966 3.877-15.58 11.843-17.007l45.597-8.159c7.96-1.424 15.58 3.877 17.007 11.843s-3.876 15.583-11.842 17.007zm96.603-17.288l-45.597 8.159c-.873.155-1.741.232-2.6.232-6.961 0-13.139-4.982-14.408-12.075-1.424-7.966 3.877-15.58 11.843-17.007l45.597-8.159c7.966-1.421 15.58 3.877 17.007 11.843 1.426 7.968-3.876 15.582-11.842 17.007zM582.69 307.707c0 6.196-5.041 11.234-11.234 11.234H193.755c-6.793 0-12.321-5.527-12.321-12.321V200.148H582.69v107.559zm0-205.572H181.434V90.767c0-6.196 5.041-11.234 11.234-11.234h378.785c6.196 0 11.234 5.041 11.234 11.234v11.368h.003z"/></svg>