<?xml version="1.0" encoding="utf-8"?><svg xmlns="http://www.w3.org/2000/svg" width="12" height="12" viewBox="0 0 12 12"><path d="M2.679.031a2.031 2.031 0 00-1.394.945A1.996 1.996 0 102.679.031m.583 1.006c.369.096.663.425.721.808a.96.96 0 01-.282.857A.946.946 0 013 3a.958.958 0 01-.673-.267c-.665-.618-.233-1.731.673-1.731.071 0 .189.016.262.035m4.438.985c-.82.093-1.57.623-1.937 1.37A2.275 2.275 0 005.51 4.5c0 .335.029.522.124.8A2.526 2.526 0 007.52 6.954c.236.05.724.05.96 0a2.516 2.516 0 001.736-1.31A2.24 2.24 0 0010.49 4.5c0-.449-.071-.747-.273-1.143A2.51 2.51 0 008.62 2.081a2.61 2.61 0 00-.92-.059m.73 1.042c.472.138.862.528 1.008 1.006.041.136.048.201.048.43 0 .229-.007.294-.048.43A1.538 1.538 0 018.42 5.943a1.755 1.755 0 01-.84 0A1.538 1.538 0 016.562 4.93c-.041-.136-.048-.201-.048-.43 0-.229.007-.294.048-.43a1.52 1.52 0 011.187-1.05c.167-.03.501-.008.681.044M2.63 5.03a2.735 2.735 0 00-.98.302C.82 5.74.22 6.475.029 7.318c-.041.182-.029.314.041.433a.5.5 0 00.834.039c.032-.046.076-.16.104-.27.094-.363.239-.613.509-.881.797-.787 1.92-.853 2.787-.162.363.288.576.613.688 1.043.057.221.121.326.251.406a.5.5 0 00.75-.362c.021-.176-.096-.575-.267-.906A3.054 3.054 0 004.35 5.332c-.578-.285-1.114-.379-1.72-.302m5.11 2.982a4.643 4.643 0 00-1.09.215 4.07 4.07 0 00-2.075 1.624c-.31.479-.558 1.203-.563 1.641-.002.146.004.17.059.26.198.322.66.326.852.008.039-.064.066-.157.095-.322a2.885 2.885 0 011.296-1.944c.962-.616 2.239-.651 3.221-.089.27.154.411.262.627.475.445.439.712.948.82 1.558.048.274.103.381.244.476a.497.497 0 00.703-.162c.055-.09.061-.114.059-.26-.005-.439-.249-1.149-.561-1.637A4.066 4.066 0 009.35 8.227a4.474 4.474 0 00-.74-.177 6.188 6.188 0 00-.87-.038" fill-rule="evenodd"/></svg>