<?xml version="1.0" encoding="utf-8"?><svg width="24" height="24" fill="none" xmlns="http://www.w3.org/2000/svg" viewBox="0 0 24 24"><path d="M8.815 1.278c-.484.115-.717.726-.432 1.13a.939.939 0 00.277.248c.158.083.205.084 3.218.095 2.142.008 3.122-.002 3.273-.033.751-.156.78-1.245.038-1.432-.21-.052-6.156-.06-6.374-.008m2.205 2.526c-3.71.383-6.869 2.935-8.041 6.496-.353 1.072-.481 1.997-.448 3.235.041 1.502.338 2.682 1.007 4.005 1.382 2.731 3.979 4.613 7.035 5.099.483.077 1.39.119 1.601.074.549-.117.75-.829.348-1.231-.181-.181-.393-.242-.838-.242-.177 0-.523-.028-.77-.063a8.024 8.024 0 01-6.077-4.372 8.019 8.019 0 01.276-7.634c.443-.757 1.324-1.747 2.034-2.283 2.125-1.605 4.855-2.062 7.353-1.231 1.253.417 2.21 1.008 3.142 1.941a7.518 7.518 0 011.588 2.236c.468.981.77 2.245.77 3.219 0 .403.035.505.242.712.152.153.224.194.377.217.34.051.634-.094.782-.384.1-.197.107-.794.017-1.519a9.496 9.496 0 00-8.492-8.277 12.502 12.502 0 00-1.906.002m.795 3.473a.8.8 0 00-.462.354l-.093.149v5.44l.093.149c.357.574 1.223.443 1.363-.207.059-.274.059-5.067.001-5.321a.747.747 0 00-.902-.564m4 9a.8.8 0 00-.462.354l-.093.149v4.44l.093.149c.357.574 1.223.443 1.363-.207.058-.271.059-4.069.001-4.321a.747.747 0 00-.902-.564m3 0a.8.8 0 00-.462.354l-.093.149v4.44l.093.149c.357.574 1.223.443 1.363-.207.058-.271.059-4.069.001-4.321a.747.747 0 00-.902-.564" fill-rule="evenodd" fill="#000"/></svg>