<svg width="24" height="24" viewBox="0 0 24 24" fill="none" xmlns="http://www.w3.org/2000/svg">
<g id="game/dota2">
<path id="Vector" fill-rule="evenodd" clip-rule="evenodd" d="M6.15013 13.5L10.0001 17.6665L6.42513 18.5L4.50013 16.8335L6.15013 13.5ZM16.3111 5.5L18.0001 6.4285L17.4371 9.5L13.4961 6.9285L16.3111 5.5ZM5.81263 5.5C6.00013 5.5 6.15063 5.508 6.37513 5.6875C6.68763 5.9375 7.84013 6.7535 7.84013 6.7535L8.04913 7.125C8.42963 7.144 8.43913 7.1785 8.91963 7.5315L19.5001 14.7085C19.4186 14.885 18.1606 18.5 18.1606 18.5H16.2186L4.50013 6.125C4.50013 6.125 4.69113 6.0535 4.87513 5.9375C5.16363 5.756 5.52663 5.5 5.81263 5.5ZM7.25013 3H3.00013C2.73613 3.132 2.50013 3.285 2.50013 3.8125V7.25V8.3125L2.99413 9.6865L2.50013 10.375V10.9375L3.00013 11.3125V12L2.50013 12.5V14.375L3.00013 14.6875V16.75C2.47813 17.1215 2.50013 17.5625 2.50013 18.0695V20.4375C3.66963 20.7295 3.47563 21 4.81263 21C5.99413 21 6.75013 21 6.75013 21C6.93113 20.9885 7.07213 20.9505 7.25013 20.9335C7.74713 20.8855 8.06263 20.5 8.06263 20.5L9.37513 21L9.87513 20.5C9.87513 20.5 10.5306 21.3115 10.6876 21.5L11.1251 21L12.5001 21.5C12.5001 21.5 13.0101 21.0105 13.5626 21H16.2501C16.2911 20.9605 16.7501 20.5 16.7501 20.5C16.9606 20.626 16.7746 21 18.6876 21C19.2156 21 19.6876 20.875 19.6876 20.875C19.6066 20.605 19.5976 20.66 19.4376 20.5C19.4376 20.5 20.6876 20.5 21.5001 21V13.2535L20.5001 13.5625C20.5196 13.404 20.9816 13.1935 21.0001 12.875C21.0236 12.4735 20.9781 11.082 20.9196 10.788C20.8896 10.638 20.6031 10.1985 20.5001 10.0625C20.6226 9.732 21.0001 9.5 21.0001 9.5V9.125L21.5001 8.8335V6.7225L21.0001 4.625L21.5001 4.0835V3.4855L20.9721 3.028L19.2571 2.7445L18.8611 3.028L18.6631 2.698C18.6631 2.698 16.0711 2.501 15.6011 2.501C14.9996 2.501 15.0871 2.546 14.8836 3.2235L14.0206 3.3115L13.9376 3H13.0626L13.2066 2.8415C13.3596 2.697 13.3061 2.755 13.4256 2.5H10.4166C10.3696 2.586 10.1976 2.781 10.0621 3C10.0621 3 9.79813 2.9975 9.60013 3.1295C9.40213 3.2615 9.40313 3.5 9.13913 3.5C8.87513 3.5 8.32763 3.5 8.01763 3.5C7.35763 3.5 7.25013 3 7.25013 3Z" fill="#F44336"/>
</g>
</svg>
