<svg width="255" height="113" viewBox="0 0 255 113" fill="none" xmlns="http://www.w3.org/2000/svg">
<path d="M39.8418 86.1179C39.8418 87.5549 39.5133 88.6018 38.8564 89.2588C38.2132 89.902 37.1731 90.2236 35.7361 90.2236H33.2727V91.6606H29.5776V90.2236H27.1142C25.6772 90.2236 24.6303 89.902 23.9734 89.2588C23.3302 88.6018 23.0085 87.5549 23.0085 86.1179V82.0123C23.0085 80.5753 23.3302 79.5352 23.9734 78.892C24.6303 78.2351 25.6772 77.9066 27.1142 77.9066H29.5776V76.4696H33.2727V77.9066H35.7361C37.1731 77.9066 38.2132 78.2351 38.8564 78.892C39.5133 79.5352 39.8418 80.5753 39.8418 82.0123V86.1179ZM36.1467 82.0123C36.1467 81.1911 35.7361 80.7806 34.915 80.7806H33.0674V87.3496H34.915C35.7361 87.3496 36.1467 86.9391 36.1467 86.1179V82.0123ZM26.7036 86.1179C26.7036 86.9391 27.1142 87.3496 27.9353 87.3496H29.7829V80.7806H27.9353C27.1142 80.7806 26.7036 81.1911 26.7036 82.0123V86.1179ZM55.6258 91.25H51.9307V82.4228L47.0039 91.25H43.1036V76.8802H46.7987V85.7074L51.7254 76.8802H55.6258V91.25ZM59.5155 76.8802H68.1374C69.5744 76.8802 70.6145 77.2086 71.2577 77.8655C71.9146 78.5088 72.2431 79.5489 72.2431 80.9859V83.0387C72.2431 84.4757 71.9146 85.5226 71.2577 86.1795C70.6145 86.8227 69.5744 87.1443 68.1374 87.1443H63.2106V91.25H59.5155V76.8802ZM68.548 80.9859C68.548 80.1647 68.1374 79.7542 67.3163 79.7542H63.2106V84.2704H67.3163C68.1374 84.2704 68.548 83.8598 68.548 83.0387V80.9859ZM87.8234 83.244L84.9495 88.376H82.0755L79.2016 83.244V91.25H75.5065V76.8802H79.4068L83.5125 84.4757L87.6182 76.8802H91.5185V91.25H87.8234V83.244ZM97.9727 91.25H93.9696L99.4096 76.8802H103.515L108.955 91.25H104.952L104.029 88.684H98.8964L97.9727 91.25ZM99.8202 86.0153H103.105L101.462 81.1911L99.8202 86.0153ZM131.491 91.25H127.796V79.7542H122.664V91.25H118.969V76.8802H131.491V91.25ZM144.618 80.7806C144.618 79.9594 144.208 79.5489 143.387 79.5489H139.897C139.076 79.5489 138.665 79.9594 138.665 80.7806V87.3496C138.665 88.1708 139.076 88.5813 139.897 88.5813H143.387C144.208 88.5813 144.618 88.1708 144.618 87.3496V80.7806ZM148.314 87.3496C148.314 88.7866 147.985 89.8335 147.328 90.4905C146.685 91.1337 145.645 91.4553 144.208 91.4553H139.076C137.639 91.4553 136.592 91.1337 135.935 90.4905C135.292 89.8335 134.97 88.7866 134.97 87.3496V80.7806C134.97 79.3436 135.292 78.3035 135.935 77.6603C136.592 77.0034 137.639 76.6749 139.076 76.6749H144.208C145.645 76.6749 146.685 77.0034 147.328 77.6603C147.985 78.3035 148.314 79.3436 148.314 80.7806V87.3496ZM156.104 88.2734C156.035 89.2588 155.72 90.0388 155.159 90.6136C154.598 91.1747 153.907 91.4553 153.086 91.4553C152.265 91.4553 151.492 91.3869 150.766 91.25V88.4787H151.69C151.95 88.4787 152.162 88.3897 152.326 88.2118C152.504 88.0339 152.6 87.8149 152.614 87.5549L153.23 76.8802H164.623V91.25H160.928V79.7542H156.617L156.104 88.2734ZM181.028 91.25H177.332V82.4228L172.406 91.25H168.505V76.8802H172.2V85.7074L177.127 76.8802H181.028V91.25ZM197.234 83.244L194.36 88.376H191.486L188.612 83.244V91.25H184.917V76.8802H188.818L192.923 84.4757L197.029 76.8802H200.929V91.25H197.234V83.244ZM216.211 91.25H204.817V76.8802H216.211V79.7542H208.512V82.5255H214.568V85.3994H208.512V88.376H216.211V91.25ZM219.265 76.8802H227.887C229.324 76.8802 230.364 77.2086 231.007 77.8655C231.664 78.5088 231.992 79.5489 231.992 80.9859V83.0387C231.992 84.4757 231.664 85.5226 231.007 86.1795C230.364 86.8227 229.324 87.1443 227.887 87.1443H222.96V91.25H219.265V76.8802ZM228.297 80.9859C228.297 80.1647 227.887 79.7542 227.065 79.7542H222.96V84.2704H227.065C227.887 84.2704 228.297 83.8598 228.297 83.0387V80.9859Z" fill="white"/>
<mask id="path-2-outside-1_0_140" maskUnits="userSpaceOnUse" x="45" y="102.099" width="165" height="9" fill="black">
<rect fill="white" x="45" y="102.099" width="165" height="9"/>
<path d="M49.1928 110.243C48.4968 110.243 47.889 110.098 47.3693 109.806C46.8529 109.514 46.452 109.103 46.1665 108.574C45.881 108.045 45.7383 107.429 45.7383 106.726C45.7383 106.216 45.8233 105.75 45.9933 105.326C46.1633 104.9 46.4023 104.529 46.7102 104.215C47.0213 103.897 47.387 103.652 47.8072 103.479C48.2306 103.306 48.694 103.219 49.1976 103.219C49.6756 103.219 50.099 103.28 50.4678 103.402C50.8367 103.52 51.1526 103.689 51.4157 103.907L51.0115 104.504C50.7838 104.305 50.5224 104.157 50.2273 104.061C49.9322 103.965 49.6082 103.917 49.2554 103.917C48.8384 103.917 48.4599 103.982 48.1199 104.114C47.7831 104.245 47.4928 104.433 47.249 104.677C47.0085 104.917 46.8224 105.211 46.6909 105.557C46.5626 105.9 46.4985 106.289 46.4985 106.722C46.4985 107.318 46.614 107.827 46.8449 108.247C47.0758 108.664 47.4014 108.983 47.8216 109.204C48.245 109.426 48.7422 109.536 49.3131 109.536C49.6788 109.536 50.0252 109.483 50.3524 109.377C50.6827 109.268 50.989 109.09 51.2713 108.843L51.6177 109.469C51.2841 109.732 50.9153 109.928 50.5111 110.056C50.1102 110.181 49.6707 110.243 49.1928 110.243ZM55.6428 110.099V104.037H53.6846V103.363H58.3323V104.037H56.3741V110.099H55.6428ZM61.0204 110.099V103.363H63.2817C63.7468 103.363 64.1542 103.442 64.5038 103.599C64.8566 103.756 65.1325 103.982 65.3313 104.277C65.5302 104.573 65.6296 104.925 65.6296 105.336C65.6296 105.763 65.5382 106.122 65.3554 106.414C65.1726 106.702 64.9047 106.922 64.5519 107.073C64.2023 107.22 63.7741 107.294 63.2673 107.294H61.7517V110.099H61.0204ZM61.7517 106.64H63.3202C63.8206 106.64 64.2087 106.532 64.4846 106.317C64.7604 106.099 64.8983 105.78 64.8983 105.36C64.8983 104.946 64.7572 104.621 64.4749 104.383C64.1959 104.143 63.8142 104.022 63.3298 104.022H61.7517V106.64ZM71.501 110.243C71.0039 110.243 70.5404 110.155 70.1106 109.979C69.684 109.799 69.3119 109.551 68.9943 109.233C68.68 108.916 68.433 108.543 68.2534 108.117C68.077 107.69 67.9888 107.228 67.9888 106.731C67.9888 106.231 68.077 105.767 68.2534 105.341C68.433 104.914 68.68 104.542 68.9943 104.224C69.3119 103.907 69.684 103.66 70.1106 103.484C70.5404 103.307 71.0039 103.219 71.501 103.219C71.995 103.219 72.4553 103.309 72.8819 103.488C73.3085 103.668 73.6806 103.918 73.9981 104.239C74.3157 104.56 74.5626 104.933 74.7391 105.36C74.9187 105.783 75.0085 106.24 75.0085 106.731C75.0085 107.228 74.9187 107.69 74.7391 108.117C74.5626 108.543 74.3157 108.916 73.9981 109.233C73.6806 109.551 73.3085 109.799 72.8819 109.979C72.4553 110.155 71.995 110.243 71.501 110.243ZM71.501 109.546C71.8827 109.546 72.2404 109.48 72.574 109.349C72.9075 109.214 73.1994 109.023 73.4496 108.776C73.6998 108.526 73.8955 108.229 74.0366 107.886C74.1777 107.539 74.2483 107.155 74.2483 106.731C74.2483 106.167 74.1248 105.674 73.8778 105.254C73.6341 104.831 73.3037 104.502 72.8867 104.268C72.4729 104.034 72.011 103.917 71.501 103.917C71.1193 103.917 70.7617 103.984 70.4281 104.119C70.0945 104.25 69.8026 104.439 69.5525 104.686C69.3023 104.933 69.105 105.23 68.9607 105.576C68.8195 105.92 68.749 106.305 68.749 106.731C68.749 107.296 68.8725 107.79 69.1194 108.213C69.3664 108.633 69.6968 108.96 70.1106 109.195C70.5275 109.429 70.991 109.546 71.501 109.546ZM77.8995 110.099V103.363H78.6308V108.843L82.4269 103.363H83.1005V110.099H82.374V104.595L78.5635 110.099H77.8995ZM87.7471 110.099V104.037H85.7889V103.363H90.4366V104.037H88.4784V110.099H87.7471ZM93.1247 110.099V103.363H97.2191V104.027H93.856V106.226H96.815V106.871H93.856V109.43H97.248V110.099H93.1247ZM99.9968 110.2L99.6696 109.527C99.8845 109.456 100.069 109.369 100.223 109.267C100.38 109.161 100.512 109.02 100.617 108.843C100.726 108.664 100.811 108.43 100.872 108.141C100.937 107.852 100.981 107.49 101.007 107.054C101.036 106.617 101.05 106.086 101.05 105.461V103.363H105.515V110.099H104.784V104.037H101.767V105.447C101.767 106.152 101.746 106.755 101.705 107.256C101.666 107.756 101.602 108.176 101.512 108.516C101.426 108.856 101.313 109.135 101.176 109.353C101.038 109.568 100.871 109.741 100.675 109.873C100.479 110.004 100.253 110.114 99.9968 110.2ZM108.829 110.099V103.363H109.56V106.163H111.09C111.556 106.163 111.963 106.244 112.313 106.404C112.665 106.561 112.941 106.787 113.14 107.082C113.339 107.374 113.438 107.727 113.438 108.141C113.438 108.458 113.387 108.739 113.284 108.983C113.182 109.227 113.029 109.432 112.827 109.599C112.625 109.762 112.378 109.887 112.086 109.974C111.795 110.057 111.458 110.099 111.076 110.099H108.829ZM109.56 109.445H111.129C111.629 109.445 112.017 109.337 112.293 109.122C112.569 108.904 112.707 108.584 112.707 108.16C112.707 107.75 112.566 107.426 112.284 107.188C112.005 106.948 111.623 106.827 111.139 106.827H109.56V109.445ZM116.221 110.099V103.363H116.952V106.159H120.618V103.363H121.35V110.099H120.618V106.837H116.952V110.099H116.221ZM123.872 110.099L126.551 103.363H127.263L130.044 110.099H129.222L128.5 108.333H125.358L124.67 110.099H123.872ZM125.584 107.674H128.264L126.888 104.335L125.584 107.674ZM132.078 110.099L134.296 107.174C133.69 107.116 133.218 106.924 132.882 106.596C132.548 106.266 132.381 105.817 132.381 105.249C132.381 104.887 132.473 104.564 132.656 104.282C132.838 103.997 133.098 103.772 133.435 103.609C133.772 103.445 134.171 103.363 134.633 103.363H136.957V110.099H136.226V107.222H135.114L132.963 110.099H132.078ZM134.604 106.577H136.226V104.013H134.705C134.205 104.013 133.815 104.123 133.536 104.345C133.257 104.563 133.117 104.868 133.117 105.259C133.117 105.66 133.239 105.981 133.483 106.221C133.727 106.459 134.101 106.577 134.604 106.577ZM148.348 110.099L145.558 106.495L148.011 103.363H148.897L146.452 106.486L149.301 110.099H148.348ZM144.162 110.099V103.363H144.894V106.159H146.125V106.837H144.894V110.099H144.162ZM154.662 110.243C154.165 110.243 153.701 110.155 153.271 109.979C152.845 109.799 152.473 109.551 152.155 109.233C151.841 108.916 151.594 108.543 151.414 108.117C151.238 107.69 151.149 107.228 151.149 106.731C151.149 106.231 151.238 105.767 151.414 105.341C151.594 104.914 151.841 104.542 152.155 104.224C152.473 103.907 152.845 103.66 153.271 103.484C153.701 103.307 154.165 103.219 154.662 103.219C155.156 103.219 155.616 103.309 156.043 103.488C156.469 103.668 156.841 103.918 157.159 104.239C157.476 104.56 157.723 104.933 157.9 105.36C158.079 105.783 158.169 106.24 158.169 106.731C158.169 107.228 158.079 107.69 157.9 108.117C157.723 108.543 157.476 108.916 157.159 109.233C156.841 109.551 156.469 109.799 156.043 109.979C155.616 110.155 155.156 110.243 154.662 110.243ZM154.662 109.546C155.043 109.546 155.401 109.48 155.735 109.349C156.068 109.214 156.36 109.023 156.61 108.776C156.86 108.526 157.056 108.229 157.197 107.886C157.338 107.539 157.409 107.155 157.409 106.731C157.409 106.167 157.285 105.674 157.038 105.254C156.795 104.831 156.464 104.502 156.047 104.268C155.634 104.034 155.172 103.917 154.662 103.917C154.28 103.917 153.922 103.984 153.589 104.119C153.255 104.25 152.963 104.439 152.713 104.686C152.463 104.933 152.266 105.23 152.121 105.576C151.98 105.92 151.91 106.305 151.91 106.731C151.91 107.296 152.033 107.79 152.28 108.213C152.527 108.633 152.857 108.96 153.271 109.195C153.688 109.429 154.152 109.546 154.662 109.546ZM161.06 110.099V103.363H161.772L164.645 107.982L164.37 107.987L167.161 103.363H167.849V110.099H167.122L167.127 104.393L167.281 104.441L164.76 108.526H164.159L161.613 104.441L161.724 104.393L161.729 110.099H161.06ZM171.158 110.099V103.363H176.287V110.099H175.556V104.037H171.89V110.099H171.158ZM178.809 110.099L181.489 103.363H182.201L184.982 110.099H184.159L183.437 108.333H180.296L179.608 110.099H178.809ZM180.522 107.674H183.202L181.826 104.335L180.522 107.674ZM187.511 110.099V103.363H188.242V106.159H191.909V103.363H192.64V110.099H191.909V106.837H188.242V110.099H187.511ZM195.946 110.099V103.363H196.677V108.843L200.473 103.363H201.147V110.099H200.421V104.595L196.61 110.099H195.946ZM203.96 110.099L206.178 107.174C205.572 107.116 205.101 106.924 204.764 106.596C204.43 106.266 204.264 105.817 204.264 105.249C204.264 104.887 204.355 104.564 204.538 104.282C204.721 103.997 204.98 103.772 205.317 103.609C205.654 103.445 206.053 103.363 206.515 103.363H208.839V110.099H208.108V107.222H206.996L204.846 110.099H203.96ZM206.486 106.577H208.108V104.013H206.587C206.087 104.013 205.697 104.123 205.418 104.345C205.139 104.563 205 104.868 205 105.259C205 105.66 205.122 105.981 205.365 106.221C205.609 106.459 205.983 106.577 206.486 106.577Z"/>
</mask>
<path d="M49.1928 110.243C48.4968 110.243 47.889 110.098 47.3693 109.806C46.8529 109.514 46.452 109.103 46.1665 108.574C45.881 108.045 45.7383 107.429 45.7383 106.726C45.7383 106.216 45.8233 105.75 45.9933 105.326C46.1633 104.9 46.4023 104.529 46.7102 104.215C47.0213 103.897 47.387 103.652 47.8072 103.479C48.2306 103.306 48.694 103.219 49.1976 103.219C49.6756 103.219 50.099 103.28 50.4678 103.402C50.8367 103.52 51.1526 103.689 51.4157 103.907L51.0115 104.504C50.7838 104.305 50.5224 104.157 50.2273 104.061C49.9322 103.965 49.6082 103.917 49.2554 103.917C48.8384 103.917 48.4599 103.982 48.1199 104.114C47.7831 104.245 47.4928 104.433 47.249 104.677C47.0085 104.917 46.8224 105.211 46.6909 105.557C46.5626 105.9 46.4985 106.289 46.4985 106.722C46.4985 107.318 46.614 107.827 46.8449 108.247C47.0758 108.664 47.4014 108.983 47.8216 109.204C48.245 109.426 48.7422 109.536 49.3131 109.536C49.6788 109.536 50.0252 109.483 50.3524 109.377C50.6827 109.268 50.989 109.09 51.2713 108.843L51.6177 109.469C51.2841 109.732 50.9153 109.928 50.5111 110.056C50.1102 110.181 49.6707 110.243 49.1928 110.243ZM55.6428 110.099V104.037H53.6846V103.363H58.3323V104.037H56.3741V110.099H55.6428ZM61.0204 110.099V103.363H63.2817C63.7468 103.363 64.1542 103.442 64.5038 103.599C64.8566 103.756 65.1325 103.982 65.3313 104.277C65.5302 104.573 65.6296 104.925 65.6296 105.336C65.6296 105.763 65.5382 106.122 65.3554 106.414C65.1726 106.702 64.9047 106.922 64.5519 107.073C64.2023 107.22 63.7741 107.294 63.2673 107.294H61.7517V110.099H61.0204ZM61.7517 106.64H63.3202C63.8206 106.64 64.2087 106.532 64.4846 106.317C64.7604 106.099 64.8983 105.78 64.8983 105.36C64.8983 104.946 64.7572 104.621 64.4749 104.383C64.1959 104.143 63.8142 104.022 63.3298 104.022H61.7517V106.64ZM71.501 110.243C71.0039 110.243 70.5404 110.155 70.1106 109.979C69.684 109.799 69.3119 109.551 68.9943 109.233C68.68 108.916 68.433 108.543 68.2534 108.117C68.077 107.69 67.9888 107.228 67.9888 106.731C67.9888 106.231 68.077 105.767 68.2534 105.341C68.433 104.914 68.68 104.542 68.9943 104.224C69.3119 103.907 69.684 103.66 70.1106 103.484C70.5404 103.307 71.0039 103.219 71.501 103.219C71.995 103.219 72.4553 103.309 72.8819 103.488C73.3085 103.668 73.6806 103.918 73.9981 104.239C74.3157 104.56 74.5626 104.933 74.7391 105.36C74.9187 105.783 75.0085 106.24 75.0085 106.731C75.0085 107.228 74.9187 107.69 74.7391 108.117C74.5626 108.543 74.3157 108.916 73.9981 109.233C73.6806 109.551 73.3085 109.799 72.8819 109.979C72.4553 110.155 71.995 110.243 71.501 110.243ZM71.501 109.546C71.8827 109.546 72.2404 109.48 72.574 109.349C72.9075 109.214 73.1994 109.023 73.4496 108.776C73.6998 108.526 73.8955 108.229 74.0366 107.886C74.1777 107.539 74.2483 107.155 74.2483 106.731C74.2483 106.167 74.1248 105.674 73.8778 105.254C73.6341 104.831 73.3037 104.502 72.8867 104.268C72.4729 104.034 72.011 103.917 71.501 103.917C71.1193 103.917 70.7617 103.984 70.4281 104.119C70.0945 104.25 69.8026 104.439 69.5525 104.686C69.3023 104.933 69.105 105.23 68.9607 105.576C68.8195 105.92 68.749 106.305 68.749 106.731C68.749 107.296 68.8725 107.79 69.1194 108.213C69.3664 108.633 69.6968 108.96 70.1106 109.195C70.5275 109.429 70.991 109.546 71.501 109.546ZM77.8995 110.099V103.363H78.6308V108.843L82.4269 103.363H83.1005V110.099H82.374V104.595L78.5635 110.099H77.8995ZM87.7471 110.099V104.037H85.7889V103.363H90.4366V104.037H88.4784V110.099H87.7471ZM93.1247 110.099V103.363H97.2191V104.027H93.856V106.226H96.815V106.871H93.856V109.43H97.248V110.099H93.1247ZM99.9968 110.2L99.6696 109.527C99.8845 109.456 100.069 109.369 100.223 109.267C100.38 109.161 100.512 109.02 100.617 108.843C100.726 108.664 100.811 108.43 100.872 108.141C100.937 107.852 100.981 107.49 101.007 107.054C101.036 106.617 101.05 106.086 101.05 105.461V103.363H105.515V110.099H104.784V104.037H101.767V105.447C101.767 106.152 101.746 106.755 101.705 107.256C101.666 107.756 101.602 108.176 101.512 108.516C101.426 108.856 101.313 109.135 101.176 109.353C101.038 109.568 100.871 109.741 100.675 109.873C100.479 110.004 100.253 110.114 99.9968 110.2ZM108.829 110.099V103.363H109.56V106.163H111.09C111.556 106.163 111.963 106.244 112.313 106.404C112.665 106.561 112.941 106.787 113.14 107.082C113.339 107.374 113.438 107.727 113.438 108.141C113.438 108.458 113.387 108.739 113.284 108.983C113.182 109.227 113.029 109.432 112.827 109.599C112.625 109.762 112.378 109.887 112.086 109.974C111.795 110.057 111.458 110.099 111.076 110.099H108.829ZM109.56 109.445H111.129C111.629 109.445 112.017 109.337 112.293 109.122C112.569 108.904 112.707 108.584 112.707 108.16C112.707 107.75 112.566 107.426 112.284 107.188C112.005 106.948 111.623 106.827 111.139 106.827H109.56V109.445ZM116.221 110.099V103.363H116.952V106.159H120.618V103.363H121.35V110.099H120.618V106.837H116.952V110.099H116.221ZM123.872 110.099L126.551 103.363H127.263L130.044 110.099H129.222L128.5 108.333H125.358L124.67 110.099H123.872ZM125.584 107.674H128.264L126.888 104.335L125.584 107.674ZM132.078 110.099L134.296 107.174C133.69 107.116 133.218 106.924 132.882 106.596C132.548 106.266 132.381 105.817 132.381 105.249C132.381 104.887 132.473 104.564 132.656 104.282C132.838 103.997 133.098 103.772 133.435 103.609C133.772 103.445 134.171 103.363 134.633 103.363H136.957V110.099H136.226V107.222H135.114L132.963 110.099H132.078ZM134.604 106.577H136.226V104.013H134.705C134.205 104.013 133.815 104.123 133.536 104.345C133.257 104.563 133.117 104.868 133.117 105.259C133.117 105.66 133.239 105.981 133.483 106.221C133.727 106.459 134.101 106.577 134.604 106.577ZM148.348 110.099L145.558 106.495L148.011 103.363H148.897L146.452 106.486L149.301 110.099H148.348ZM144.162 110.099V103.363H144.894V106.159H146.125V106.837H144.894V110.099H144.162ZM154.662 110.243C154.165 110.243 153.701 110.155 153.271 109.979C152.845 109.799 152.473 109.551 152.155 109.233C151.841 108.916 151.594 108.543 151.414 108.117C151.238 107.69 151.149 107.228 151.149 106.731C151.149 106.231 151.238 105.767 151.414 105.341C151.594 104.914 151.841 104.542 152.155 104.224C152.473 103.907 152.845 103.66 153.271 103.484C153.701 103.307 154.165 103.219 154.662 103.219C155.156 103.219 155.616 103.309 156.043 103.488C156.469 103.668 156.841 103.918 157.159 104.239C157.476 104.56 157.723 104.933 157.9 105.36C158.079 105.783 158.169 106.24 158.169 106.731C158.169 107.228 158.079 107.69 157.9 108.117C157.723 108.543 157.476 108.916 157.159 109.233C156.841 109.551 156.469 109.799 156.043 109.979C155.616 110.155 155.156 110.243 154.662 110.243ZM154.662 109.546C155.043 109.546 155.401 109.48 155.735 109.349C156.068 109.214 156.36 109.023 156.61 108.776C156.86 108.526 157.056 108.229 157.197 107.886C157.338 107.539 157.409 107.155 157.409 106.731C157.409 106.167 157.285 105.674 157.038 105.254C156.795 104.831 156.464 104.502 156.047 104.268C155.634 104.034 155.172 103.917 154.662 103.917C154.28 103.917 153.922 103.984 153.589 104.119C153.255 104.25 152.963 104.439 152.713 104.686C152.463 104.933 152.266 105.23 152.121 105.576C151.98 105.92 151.91 106.305 151.91 106.731C151.91 107.296 152.033 107.79 152.28 108.213C152.527 108.633 152.857 108.96 153.271 109.195C153.688 109.429 154.152 109.546 154.662 109.546ZM161.06 110.099V103.363H161.772L164.645 107.982L164.37 107.987L167.161 103.363H167.849V110.099H167.122L167.127 104.393L167.281 104.441L164.76 108.526H164.159L161.613 104.441L161.724 104.393L161.729 110.099H161.06ZM171.158 110.099V103.363H176.287V110.099H175.556V104.037H171.89V110.099H171.158ZM178.809 110.099L181.489 103.363H182.201L184.982 110.099H184.159L183.437 108.333H180.296L179.608 110.099H178.809ZM180.522 107.674H183.202L181.826 104.335L180.522 107.674ZM187.511 110.099V103.363H188.242V106.159H191.909V103.363H192.64V110.099H191.909V106.837H188.242V110.099H187.511ZM195.946 110.099V103.363H196.677V108.843L200.473 103.363H201.147V110.099H200.421V104.595L196.61 110.099H195.946ZM203.96 110.099L206.178 107.174C205.572 107.116 205.101 106.924 204.764 106.596C204.43 106.266 204.264 105.817 204.264 105.249C204.264 104.887 204.355 104.564 204.538 104.282C204.721 103.997 204.98 103.772 205.317 103.609C205.654 103.445 206.053 103.363 206.515 103.363H208.839V110.099H208.108V107.222H206.996L204.846 110.099H203.96ZM206.486 106.577H208.108V104.013H206.587C206.087 104.013 205.697 104.123 205.418 104.345C205.139 104.563 205 104.868 205 105.259C205 105.66 205.122 105.981 205.365 106.221C205.609 106.459 205.983 106.577 206.486 106.577Z" fill="white"/>
<path d="M47.3693 109.806L47.2822 109.96L47.2826 109.96L47.3693 109.806ZM46.1665 108.574L46.0106 108.658L46.1665 108.574ZM45.9933 105.326L46.1576 105.392L46.1578 105.392L45.9933 105.326ZM46.7102 104.215L46.5837 104.091L46.5837 104.091L46.7102 104.215ZM47.8072 103.479L47.7401 103.315L47.7397 103.315L47.8072 103.479ZM50.4678 103.402L50.4123 103.57L50.4136 103.57L50.4678 103.402ZM51.4157 103.907L51.5623 104.006L51.6524 103.873L51.5287 103.771L51.4157 103.907ZM51.0115 104.504L50.895 104.637L51.0458 104.769L51.1581 104.603L51.0115 104.504ZM50.2273 104.061L50.2822 103.893L50.2273 104.061ZM48.1199 104.114L48.056 103.949L48.0555 103.949L48.1199 104.114ZM47.249 104.677L47.1238 104.552H47.1238L47.249 104.677ZM46.6909 105.557L46.5254 105.494L46.5251 105.495L46.6909 105.557ZM46.8449 108.247L46.6897 108.332L46.69 108.333L46.8449 108.247ZM47.8216 109.204L47.7391 109.361L47.7396 109.361L47.8216 109.204ZM50.3524 109.377L50.4069 109.546L50.4079 109.546L50.3524 109.377ZM51.2713 108.843L51.4262 108.758L51.3199 108.566L51.1547 108.71L51.2713 108.843ZM51.6177 109.469L51.7274 109.608L51.8456 109.515L51.7726 109.383L51.6177 109.469ZM50.5111 110.056L50.5639 110.225L50.5647 110.225L50.5111 110.056ZM49.1928 110.066C48.522 110.066 47.9451 109.926 47.4561 109.651L47.2826 109.96C47.8329 110.269 48.4715 110.421 49.1928 110.421V110.066ZM47.4565 109.651C46.9695 109.376 46.5922 108.99 46.3224 108.49L46.0106 108.658C46.3117 109.216 46.7363 109.651 47.2822 109.96L47.4565 109.651ZM46.3224 108.49C46.053 107.99 45.9154 107.404 45.9154 106.726H45.5612C45.5612 107.453 45.7091 108.099 46.0106 108.658L46.3224 108.49ZM45.9154 106.726C45.9154 106.236 45.997 105.792 46.1576 105.392L45.829 105.26C45.6496 105.707 45.5612 106.196 45.5612 106.726H45.9154ZM46.1578 105.392C46.3195 104.986 46.5459 104.636 46.8367 104.339L46.5837 104.091C46.2586 104.423 46.0071 104.813 45.8288 105.261L46.1578 105.392ZM46.8367 104.339C47.1306 104.039 47.4761 103.807 47.8746 103.642L47.7397 103.315C47.2978 103.497 46.912 103.756 46.5837 104.091L46.8367 104.339ZM47.8742 103.643C48.2743 103.479 48.7147 103.396 49.1976 103.396V103.042C48.6734 103.042 48.1868 103.132 47.7401 103.315L47.8742 103.643ZM49.1976 103.396C49.6609 103.396 50.0649 103.455 50.4123 103.57L50.5234 103.234C50.133 103.105 49.6903 103.042 49.1976 103.042V103.396ZM50.4136 103.57C50.7638 103.683 51.0591 103.841 51.3026 104.043L51.5287 103.771C51.2461 103.536 50.9095 103.358 50.5221 103.233L50.4136 103.57ZM51.269 103.808L50.8649 104.404L51.1581 104.603L51.5623 104.006L51.269 103.808ZM51.128 104.37C50.8818 104.155 50.5993 103.996 50.2822 103.893L50.1724 104.229C50.4454 104.318 50.6857 104.454 50.895 104.637L51.128 104.37ZM50.2822 103.893C49.9671 103.79 49.6243 103.739 49.2554 103.739V104.094C49.5921 104.094 49.8972 104.14 50.1724 104.229L50.2822 103.893ZM49.2554 103.739C48.8196 103.739 48.4191 103.808 48.056 103.949L48.1838 104.279C48.5007 104.156 48.8571 104.094 49.2554 104.094V103.739ZM48.0555 103.949C47.697 104.089 47.3858 104.29 47.1238 104.552L47.3743 104.802C47.5999 104.576 47.8692 104.402 48.1843 104.279L48.0555 103.949ZM47.1238 104.552C46.864 104.811 46.665 105.127 46.5254 105.494L46.8565 105.62C46.9799 105.295 47.1529 105.023 47.3743 104.802L47.1238 104.552ZM46.5251 105.495C46.3881 105.862 46.3214 106.271 46.3214 106.722H46.6756C46.6756 106.306 46.7371 105.939 46.8568 105.619L46.5251 105.495ZM46.3214 106.722C46.3214 107.341 46.4413 107.88 46.6897 108.332L47.0001 108.161C46.7866 107.773 46.6756 107.296 46.6756 106.722H46.3214ZM46.69 108.333C46.9376 108.78 47.2882 109.123 47.7391 109.361L47.9041 109.048C47.5146 108.842 47.2141 108.548 46.9998 108.161L46.69 108.333ZM47.7396 109.361C48.1928 109.598 48.7191 109.713 49.3131 109.713V109.359C48.7652 109.359 48.2972 109.253 47.9036 109.047L47.7396 109.361ZM49.3131 109.713C49.6961 109.713 50.061 109.658 50.4069 109.546L50.2978 109.209C49.9894 109.309 49.6614 109.359 49.3131 109.359V109.713ZM50.4079 109.546C50.7624 109.429 51.0892 109.238 51.3879 108.977L51.1547 108.71C50.8889 108.943 50.603 109.108 50.2968 109.209L50.4079 109.546ZM51.1164 108.929L51.4628 109.555L51.7726 109.383L51.4262 108.758L51.1164 108.929ZM51.5081 109.33C51.1912 109.58 50.8413 109.765 50.4575 109.887L50.5647 110.225C50.9892 110.09 51.3771 109.884 51.7274 109.608L51.5081 109.33ZM50.4584 109.887C50.0767 110.006 49.6553 110.066 49.1928 110.066V110.421C49.6862 110.421 50.1437 110.356 50.5639 110.225L50.4584 109.887ZM55.6428 110.099H55.4657V110.276H55.6428V110.099ZM55.6428 104.037H55.8199V103.86H55.6428V104.037ZM53.6846 104.037H53.5075V104.214H53.6846V104.037ZM53.6846 103.363V103.186H53.5075V103.363H53.6846ZM58.3323 103.363H58.5094V103.186H58.3323V103.363ZM58.3323 104.037V104.214H58.5094V104.037H58.3323ZM56.3741 104.037V103.86H56.197V104.037H56.3741ZM56.3741 110.099V110.276H56.5512V110.099H56.3741ZM55.8199 110.099V104.037H55.4657V110.099H55.8199ZM55.6428 103.86H53.6846V104.214H55.6428V103.86ZM53.8617 104.037V103.363H53.5075V104.037H53.8617ZM53.6846 103.54H58.3323V103.186H53.6846V103.54ZM58.1552 103.363V104.037H58.5094V103.363H58.1552ZM58.3323 103.86H56.3741V104.214H58.3323V103.86ZM56.197 104.037V110.099H56.5512V104.037H56.197ZM56.3741 109.922H55.6428V110.276H56.3741V109.922ZM61.0204 110.099H60.8433V110.276H61.0204V110.099ZM61.0204 103.363V103.186H60.8433V103.363H61.0204ZM64.5038 103.599L64.4312 103.761L64.4317 103.761L64.5038 103.599ZM65.3554 106.414L65.505 106.508L65.5055 106.508L65.3554 106.414ZM64.5519 107.073L64.6208 107.236L64.6215 107.236L64.5519 107.073ZM61.7517 107.294V107.117H61.5746V107.294H61.7517ZM61.7517 110.099V110.276H61.9288V110.099H61.7517ZM61.7517 106.64H61.5746V106.817H61.7517V106.64ZM64.4846 106.317L64.5934 106.457L64.5944 106.456L64.4846 106.317ZM64.4749 104.383L64.3593 104.517L64.361 104.519L64.4749 104.383ZM61.7517 104.022V103.845H61.5746V104.022H61.7517ZM61.1975 110.099V103.363H60.8433V110.099H61.1975ZM61.0204 103.54H63.2817V103.186H61.0204V103.54ZM63.2817 103.54C63.727 103.54 64.1087 103.616 64.4312 103.761L64.5764 103.438C64.1996 103.268 63.7666 103.186 63.2817 103.186V103.54ZM64.4317 103.761C64.7569 103.906 65.0058 104.111 65.1845 104.376L65.4782 104.178C65.2592 103.853 64.9563 103.607 64.5759 103.437L64.4317 103.761ZM65.1845 104.376C65.3608 104.638 65.4526 104.955 65.4526 105.336H65.8067C65.8067 104.896 65.6997 104.507 65.4782 104.178L65.1845 104.376ZM65.4526 105.336C65.4526 105.737 65.3667 106.062 65.2053 106.32L65.5055 106.508C65.7097 106.182 65.8067 105.788 65.8067 105.336H65.4526ZM65.2058 106.319C65.0444 106.574 64.8064 106.771 64.4823 106.91L64.6215 107.236C65.0031 107.073 65.3007 106.831 65.505 106.508L65.2058 106.319ZM64.4831 106.91C64.1612 107.045 63.7579 107.117 63.2673 107.117V107.471C63.7902 107.471 64.2434 107.395 64.6208 107.236L64.4831 106.91ZM63.2673 107.117H61.7517V107.471H63.2673V107.117ZM61.5746 107.294V110.099H61.9288V107.294H61.5746ZM61.7517 109.922H61.0204V110.276H61.7517V109.922ZM61.7517 106.817H63.3202V106.463H61.7517V106.817ZM63.3202 106.817C63.8435 106.817 64.2755 106.705 64.5934 106.457L64.3757 106.178C64.1419 106.36 63.7977 106.463 63.3202 106.463V106.817ZM64.5944 106.456C64.9212 106.198 65.0754 105.823 65.0754 105.36H64.7212C64.7212 105.738 64.5996 106.001 64.3747 106.179L64.5944 106.456ZM65.0754 105.36C65.0754 104.901 64.9164 104.523 64.5889 104.248L64.361 104.519C64.598 104.718 64.7212 104.991 64.7212 105.36H65.0754ZM64.5906 104.249C64.2704 103.973 63.8431 103.845 63.3298 103.845V104.2C63.7853 104.2 64.1214 104.312 64.3593 104.517L64.5906 104.249ZM63.3298 103.845H61.7517V104.2H63.3298V103.845ZM61.5746 104.022V106.64H61.9288V104.022H61.5746ZM70.1106 109.979L70.0418 110.142L70.0433 110.143L70.1106 109.979ZM68.9943 109.233L68.8685 109.358L68.8691 109.358L68.9943 109.233ZM68.2534 108.117L68.0898 108.185L68.0902 108.186L68.2534 108.117ZM68.2534 105.341L68.0902 105.272L68.0898 105.273L68.2534 105.341ZM68.9943 104.224L68.8691 104.099L68.8685 104.1L68.9943 104.224ZM70.1106 103.484L70.0433 103.32L70.0429 103.32L70.1106 103.484ZM72.8819 103.488L72.8132 103.652L72.8819 103.488ZM73.9981 104.239L73.8723 104.364V104.364L73.9981 104.239ZM74.7391 105.36L74.5754 105.428L74.576 105.429L74.7391 105.36ZM74.7391 108.117L74.5758 108.048L74.5754 108.049L74.7391 108.117ZM73.9981 109.233L73.8729 109.108L73.9981 109.233ZM72.8819 109.979L72.9496 110.142L72.9506 110.142L72.8819 109.979ZM72.574 109.349L72.6389 109.513L72.6403 109.513L72.574 109.349ZM73.4496 108.776L73.574 108.902L73.5748 108.901L73.4496 108.776ZM74.0366 107.886L74.2004 107.953L74.2006 107.953L74.0366 107.886ZM73.8778 105.254L73.7244 105.342L73.7252 105.344L73.8778 105.254ZM72.8867 104.268L72.7995 104.422L72.8 104.422L72.8867 104.268ZM70.4281 104.119L70.4931 104.283L70.4944 104.283L70.4281 104.119ZM69.5525 104.686L69.6769 104.812L69.5525 104.686ZM68.9607 105.576L68.7972 105.508L68.7969 105.509L68.9607 105.576ZM69.1194 108.213L68.9665 108.302L68.9668 108.303L69.1194 108.213ZM70.1106 109.195L70.0234 109.349L70.0239 109.349L70.1106 109.195ZM71.501 110.066C71.0253 110.066 70.5848 109.982 70.1778 109.815L70.0433 110.143C70.4959 110.328 70.9824 110.421 71.501 110.421V110.066ZM70.1793 109.816C69.7731 109.645 69.4204 109.409 69.1196 109.108L68.8691 109.358C69.2034 109.693 69.5948 109.954 70.0418 110.142L70.1793 109.816ZM69.1202 109.109C68.8223 108.808 68.5878 108.455 68.4166 108.048L68.0902 108.186C68.2783 108.632 68.5377 109.023 68.8685 109.358L69.1202 109.109ZM68.417 108.049C68.2502 107.646 68.1659 107.207 68.1659 106.731H67.8117C67.8117 107.25 67.9038 107.735 68.0898 108.185L68.417 108.049ZM68.1659 106.731C68.1659 106.252 68.2502 105.812 68.417 105.408L68.0898 105.273C67.9037 105.723 67.8117 106.21 67.8117 106.731H68.1659ZM68.4166 105.409C68.5878 105.003 68.8223 104.65 69.1202 104.349L68.8685 104.1C68.5377 104.434 68.2783 104.825 68.0902 105.272L68.4166 105.409ZM69.1196 104.35C69.4202 104.049 69.7725 103.815 70.1782 103.647L70.0429 103.32C69.5954 103.505 69.2036 103.765 68.8691 104.099L69.1196 104.35ZM70.1778 103.647C70.5848 103.48 71.0253 103.396 71.501 103.396V103.042C70.9824 103.042 70.4959 103.134 70.0433 103.32L70.1778 103.647ZM71.501 103.396C71.973 103.396 72.4097 103.482 72.8132 103.652L72.9506 103.325C72.5008 103.136 72.017 103.042 71.501 103.042V103.396ZM72.8132 103.652C73.2189 103.822 73.5715 104.06 73.8723 104.364L74.124 104.114C73.7897 103.777 73.398 103.514 72.9506 103.325L72.8132 103.652ZM73.8723 104.364C74.1733 104.668 74.4076 105.022 74.5754 105.428L74.9027 105.292C74.7177 104.845 74.4581 104.452 74.124 104.114L73.8723 104.364ZM74.576 105.429C74.7458 105.829 74.8314 106.263 74.8314 106.731H75.1856C75.1856 106.218 75.0916 105.738 74.9021 105.291L74.576 105.429ZM74.8314 106.731C74.8314 107.207 74.7457 107.645 74.5758 108.048L74.9023 108.186C75.0917 107.736 75.1856 107.25 75.1856 106.731H74.8314ZM74.5754 108.049C74.4076 108.455 74.1735 108.807 73.8729 109.108L74.1233 109.358C74.4578 109.024 74.7176 108.632 74.9027 108.185L74.5754 108.049ZM73.8729 109.108C73.572 109.409 73.2193 109.645 72.8132 109.816L72.9506 110.142C73.3977 109.954 73.7891 109.693 74.1233 109.358L73.8729 109.108ZM72.8142 109.815C72.4105 109.982 71.9734 110.066 71.501 110.066V110.421C72.0166 110.421 72.5 110.328 72.9496 110.142L72.8142 109.815ZM71.501 109.723C71.9035 109.723 72.2833 109.653 72.6389 109.513L72.509 109.184C72.1974 109.307 71.862 109.369 71.501 109.369V109.723ZM72.6403 109.513C72.995 109.369 73.3068 109.166 73.574 108.902L73.3252 108.65C73.0921 108.88 72.8201 109.058 72.5077 109.184L72.6403 109.513ZM73.5748 108.901C73.8424 108.634 74.0508 108.317 74.2004 107.953L73.8728 107.819C73.7402 108.141 73.5572 108.418 73.3244 108.651L73.5748 108.901ZM74.2006 107.953C74.3514 107.582 74.4254 107.174 74.4254 106.731H74.0712C74.0712 107.135 74.004 107.497 73.8726 107.819L74.2006 107.953ZM74.4254 106.731C74.4254 106.14 74.2958 105.616 74.0305 105.164L73.7252 105.344C73.9538 105.733 74.0712 106.193 74.0712 106.731H74.4254ZM74.0313 105.166C73.772 104.715 73.4188 104.364 72.9734 104.113L72.8 104.422C73.1886 104.64 73.4961 104.946 73.7244 105.342L74.0313 105.166ZM72.9739 104.114C72.5316 103.863 72.0393 103.739 71.501 103.739V104.094C71.9828 104.094 72.4142 104.204 72.7995 104.422L72.9739 104.114ZM71.501 103.739C71.098 103.739 70.7177 103.811 70.3618 103.954L70.4944 104.283C70.8057 104.157 71.1407 104.094 71.501 104.094V103.739ZM70.3632 103.954C70.0078 104.094 69.6956 104.296 69.428 104.56L69.6769 104.812C69.9097 104.583 70.1812 104.406 70.4931 104.283L70.3632 103.954ZM69.428 104.56C69.16 104.825 68.95 105.142 68.7972 105.508L69.1241 105.645C69.26 105.318 69.4445 105.042 69.6769 104.812L69.428 104.56ZM68.7969 105.509C68.6458 105.877 68.5719 106.285 68.5719 106.731H68.926C68.926 106.324 68.9933 105.963 69.1244 105.644L68.7969 105.509ZM68.5719 106.731C68.5719 107.322 68.7014 107.848 68.9665 108.302L69.2724 108.124C69.0435 107.731 68.926 107.269 68.926 106.731H68.5719ZM68.9668 108.303C69.2291 108.749 69.5818 109.099 70.0234 109.349L70.1978 109.04C69.8118 108.822 69.5037 108.517 69.2721 108.123L68.9668 108.303ZM70.0239 109.349C70.4691 109.599 70.9628 109.723 71.501 109.723V109.369C71.0193 109.369 70.586 109.258 70.1973 109.04L70.0239 109.349ZM77.8995 110.099H77.7224V110.276H77.8995V110.099ZM77.8995 103.363V103.186H77.7224V103.363H77.8995ZM78.6308 103.363H78.8079V103.186H78.6308V103.363ZM78.6308 108.843H78.4537V109.41L78.7764 108.944L78.6308 108.843ZM82.4269 103.363V103.186H82.3342L82.2814 103.262L82.4269 103.363ZM83.1005 103.363H83.2776V103.186H83.1005V103.363ZM83.1005 110.099V110.276H83.2776V110.099H83.1005ZM82.374 110.099H82.1969V110.276H82.374V110.099ZM82.374 104.595H82.5511V104.028L82.2284 104.494L82.374 104.595ZM78.5635 110.099V110.276H78.6562L78.7091 110.2L78.5635 110.099ZM78.0766 110.099V103.363H77.7224V110.099H78.0766ZM77.8995 103.54H78.6308V103.186H77.8995V103.54ZM78.4537 103.363V108.843H78.8079V103.363H78.4537ZM78.7764 108.944L82.5725 103.464L82.2814 103.262L78.4852 108.743L78.7764 108.944ZM82.4269 103.54H83.1005V103.186H82.4269V103.54ZM82.9234 103.363V110.099H83.2776V103.363H82.9234ZM83.1005 109.922H82.374V110.276H83.1005V109.922ZM82.5511 110.099V104.595H82.1969V110.099H82.5511ZM82.2284 104.494L78.4179 109.998L78.7091 110.2L82.5196 104.696L82.2284 104.494ZM78.5635 109.922H77.8995V110.276H78.5635V109.922ZM87.7471 110.099H87.57V110.276H87.7471V110.099ZM87.7471 104.037H87.9241V103.86H87.7471V104.037ZM85.7889 104.037H85.6118V104.214H85.7889V104.037ZM85.7889 103.363V103.186H85.6118V103.363H85.7889ZM90.4366 103.363H90.6137V103.186H90.4366V103.363ZM90.4366 104.037V104.214H90.6137V104.037H90.4366ZM88.4784 104.037V103.86H88.3013V104.037H88.4784ZM88.4784 110.099V110.276H88.6555V110.099H88.4784ZM87.9241 110.099V104.037H87.57V110.099H87.9241ZM87.7471 103.86H85.7889V104.214H87.7471V103.86ZM85.9659 104.037V103.363H85.6118V104.037H85.9659ZM85.7889 103.54H90.4366V103.186H85.7889V103.54ZM90.2595 103.363V104.037H90.6137V103.363H90.2595ZM90.4366 103.86H88.4784V104.214H90.4366V103.86ZM88.3013 104.037V110.099H88.6555V104.037H88.3013ZM88.4784 109.922H87.7471V110.276H88.4784V109.922ZM93.1247 110.099H92.9476V110.276H93.1247V110.099ZM93.1247 103.363V103.186H92.9476V103.363H93.1247ZM97.2191 103.363H97.3962V103.186H97.2191V103.363ZM97.2191 104.027V104.204H97.3962V104.027H97.2191ZM93.856 104.027V103.85H93.6789V104.027H93.856ZM93.856 106.226H93.6789V106.403H93.856V106.226ZM96.815 106.226H96.9921V106.049H96.815V106.226ZM96.815 106.871V107.048H96.9921V106.871H96.815ZM93.856 106.871V106.694H93.6789V106.871H93.856ZM93.856 109.43H93.6789V109.607H93.856V109.43ZM97.248 109.43H97.4251V109.253H97.248V109.43ZM97.248 110.099V110.276H97.4251V110.099H97.248ZM93.3018 110.099V103.363H92.9476V110.099H93.3018ZM93.1247 103.54H97.2191V103.186H93.1247V103.54ZM97.042 103.363V104.027H97.3962V103.363H97.042ZM97.2191 103.85H93.856V104.204H97.2191V103.85ZM93.6789 104.027V106.226H94.0331V104.027H93.6789ZM93.856 106.403H96.815V106.049H93.856V106.403ZM96.6379 106.226V106.871H96.9921V106.226H96.6379ZM96.815 106.694H93.856V107.048H96.815V106.694ZM93.6789 106.871V109.43H94.0331V106.871H93.6789ZM93.856 109.607H97.248V109.253H93.856V109.607ZM97.0709 109.43V110.099H97.4251V109.43H97.0709ZM97.248 109.922H93.1247V110.276H97.248V109.922ZM99.9968 110.2L99.8375 110.278L99.9056 110.418L100.053 110.368L99.9968 110.2ZM99.6696 109.527L99.6143 109.358L99.4217 109.422L99.5103 109.604L99.6696 109.527ZM100.223 109.267L100.321 109.414L100.322 109.414L100.223 109.267ZM100.617 108.843L100.466 108.751L100.466 108.752L100.617 108.843ZM100.872 108.141L100.7 108.102L100.699 108.104L100.872 108.141ZM101.007 107.054L100.83 107.042L100.83 107.043L101.007 107.054ZM101.05 103.363V103.186H100.873V103.363H101.05ZM105.515 103.363H105.692V103.186H105.515V103.363ZM105.515 110.099V110.276H105.692V110.099H105.515ZM104.784 110.099H104.607V110.276H104.784V110.099ZM104.784 104.037H104.961V103.86H104.784V104.037ZM101.767 104.037V103.86H101.59V104.037H101.767ZM101.705 107.256L101.528 107.241L101.528 107.242L101.705 107.256ZM101.512 108.516L101.341 108.471L101.341 108.472L101.512 108.516ZM101.176 109.353L101.325 109.449L101.325 109.448L101.176 109.353ZM100.675 109.873L100.576 109.726L100.675 109.873ZM100.156 110.123L99.8289 109.449L99.5103 109.604L99.8375 110.278L100.156 110.123ZM99.7248 109.695C99.9517 109.62 100.151 109.527 100.321 109.414L100.125 109.119C99.9866 109.211 99.8173 109.292 99.6143 109.358L99.7248 109.695ZM100.322 109.414C100.502 109.292 100.651 109.131 100.769 108.934L100.466 108.752C100.372 108.908 100.258 109.03 100.124 109.12L100.322 109.414ZM100.769 108.935C100.891 108.733 100.982 108.478 101.046 108.177L100.699 108.104C100.641 108.381 100.561 108.594 100.466 108.751L100.769 108.935ZM101.045 108.179C101.112 107.878 101.158 107.506 101.184 107.064L100.83 107.043C100.805 107.474 100.761 107.826 100.7 108.102L101.045 108.179ZM101.184 107.065C101.213 106.624 101.228 106.089 101.228 105.461H100.873C100.873 106.084 100.859 106.611 100.83 107.042L101.184 107.065ZM101.228 105.461V103.363H100.873V105.461H101.228ZM101.05 103.54H105.515V103.186H101.05V103.54ZM105.338 103.363V110.099H105.692V103.363H105.338ZM105.515 109.922H104.784V110.276H105.515V109.922ZM104.961 110.099V104.037H104.607V110.099H104.961ZM104.784 103.86H101.767V104.214H104.784V103.86ZM101.59 104.037V105.447H101.944V104.037H101.59ZM101.59 105.447C101.59 106.149 101.569 106.747 101.528 107.241L101.881 107.27C101.923 106.764 101.944 106.155 101.944 105.447H101.59ZM101.528 107.242C101.49 107.736 101.427 108.145 101.341 108.471L101.684 108.561C101.777 108.208 101.842 107.776 101.881 107.269L101.528 107.242ZM101.341 108.472C101.257 108.8 101.151 109.061 101.026 109.259L101.325 109.448C101.476 109.21 101.594 108.912 101.684 108.56L101.341 108.472ZM101.027 109.258C100.901 109.454 100.75 109.609 100.576 109.726L100.774 110.02C100.991 109.874 101.175 109.683 101.325 109.449L101.027 109.258ZM100.576 109.726C100.396 109.848 100.184 109.95 99.9401 110.032L100.053 110.368C100.323 110.277 100.563 110.161 100.774 110.02L100.576 109.726ZM108.829 110.099H108.652V110.276H108.829V110.099ZM108.829 103.363V103.186H108.652V103.363H108.829ZM109.56 103.363H109.738V103.186H109.56V103.363ZM109.56 106.163H109.383V106.341H109.56V106.163ZM112.313 106.404L112.239 106.565L112.24 106.566L112.313 106.404ZM113.14 107.082L112.993 107.181L112.994 107.182L113.14 107.082ZM113.284 108.983L113.121 108.914V108.914L113.284 108.983ZM112.827 109.599L112.939 109.736L112.94 109.735L112.827 109.599ZM112.086 109.974L112.135 110.144L112.137 110.144L112.086 109.974ZM109.56 109.445H109.383V109.622H109.56V109.445ZM112.293 109.122L112.402 109.262L112.403 109.261L112.293 109.122ZM112.284 107.188L112.168 107.322L112.17 107.324L112.284 107.188ZM109.56 106.827V106.65H109.383V106.827H109.56ZM109.006 110.099V103.363H108.652V110.099H109.006ZM108.829 103.54H109.56V103.186H108.829V103.54ZM109.383 103.363V106.163H109.738V103.363H109.383ZM109.56 106.341H111.09V105.986H109.56V106.341ZM111.09 106.341C111.535 106.341 111.917 106.417 112.239 106.565L112.386 106.243C112.009 106.07 111.576 105.986 111.09 105.986V106.341ZM112.24 106.566C112.566 106.711 112.815 106.916 112.993 107.181L113.287 106.983C113.068 106.658 112.765 106.412 112.385 106.242L112.24 106.566ZM112.994 107.182C113.169 107.44 113.261 107.756 113.261 108.141H113.615C113.615 107.698 113.509 107.309 113.286 106.983L112.994 107.182ZM113.261 108.141C113.261 108.439 113.213 108.696 113.121 108.914L113.448 109.052C113.561 108.782 113.615 108.477 113.615 108.141H113.261ZM113.121 108.914C113.03 109.132 112.894 109.314 112.715 109.462L112.94 109.735C113.164 109.55 113.334 109.321 113.448 109.052L113.121 108.914ZM112.716 109.461C112.535 109.608 112.309 109.723 112.036 109.804L112.137 110.144C112.447 110.052 112.716 109.917 112.939 109.736L112.716 109.461ZM112.038 109.804C111.765 109.882 111.445 109.922 111.076 109.922V110.276C111.47 110.276 111.824 110.233 112.135 110.144L112.038 109.804ZM111.076 109.922H108.829V110.276H111.076V109.922ZM109.56 109.622H111.129V109.268H109.56V109.622ZM111.129 109.622C111.652 109.622 112.084 109.51 112.402 109.262L112.184 108.983C111.951 109.165 111.606 109.268 111.129 109.268V109.622ZM112.403 109.261C112.73 109.003 112.884 108.625 112.884 108.16H112.53C112.53 108.542 112.408 108.806 112.183 108.984L112.403 109.261ZM112.884 108.16C112.884 107.704 112.725 107.328 112.398 107.053L112.17 107.324C112.407 107.523 112.53 107.795 112.53 108.16H112.884ZM112.399 107.054C112.079 106.778 111.652 106.65 111.139 106.65V107.005C111.594 107.005 111.93 107.117 112.168 107.322L112.399 107.054ZM111.139 106.65H109.56V107.005H111.139V106.65ZM109.383 106.827V109.445H109.738V106.827H109.383ZM116.221 110.099H116.044V110.276H116.221V110.099ZM116.221 103.363V103.186H116.044V103.363H116.221ZM116.952 103.363H117.129V103.186H116.952V103.363ZM116.952 106.159H116.775V106.336H116.952V106.159ZM120.618 106.159V106.336H120.796V106.159H120.618ZM120.618 103.363V103.186H120.441V103.363H120.618ZM121.35 103.363H121.527V103.186H121.35V103.363ZM121.35 110.099V110.276H121.527V110.099H121.35ZM120.618 110.099H120.441V110.276H120.618V110.099ZM120.618 106.837H120.796V106.66H120.618V106.837ZM116.952 106.837V106.66H116.775V106.837H116.952ZM116.952 110.099V110.276H117.129V110.099H116.952ZM116.398 110.099V103.363H116.044V110.099H116.398ZM116.221 103.54H116.952V103.186H116.221V103.54ZM116.775 103.363V106.159H117.129V103.363H116.775ZM116.952 106.336H120.618V105.982H116.952V106.336ZM120.796 106.159V103.363H120.441V106.159H120.796ZM120.618 103.54H121.35V103.186H120.618V103.54ZM121.173 103.363V110.099H121.527V103.363H121.173ZM121.35 109.922H120.618V110.276H121.35V109.922ZM120.796 110.099V106.837H120.441V110.099H120.796ZM120.618 106.66H116.952V107.014H120.618V106.66ZM116.775 106.837V110.099H117.129V106.837H116.775ZM116.952 109.922H116.221V110.276H116.952V109.922ZM123.872 110.099L123.707 110.034L123.61 110.276H123.872V110.099ZM126.551 103.363V103.186H126.431L126.387 103.298L126.551 103.363ZM127.263 103.363L127.427 103.296L127.382 103.186H127.263V103.363ZM130.044 110.099V110.276H130.309L130.208 110.032L130.044 110.099ZM129.222 110.099L129.058 110.166L129.103 110.276H129.222V110.099ZM128.5 108.333L128.664 108.266L128.619 108.156H128.5V108.333ZM125.358 108.333V108.156H125.237L125.193 108.269L125.358 108.333ZM124.67 110.099V110.276H124.791L124.835 110.163L124.67 110.099ZM125.584 107.674L125.419 107.61L125.325 107.851H125.584V107.674ZM128.264 107.674V107.851H128.529L128.428 107.607L128.264 107.674ZM126.888 104.335L127.052 104.268L126.884 103.86L126.723 104.271L126.888 104.335ZM124.036 110.165L126.716 103.429L126.387 103.298L123.707 110.034L124.036 110.165ZM126.551 103.54H127.263V103.186H126.551V103.54ZM127.1 103.431L129.881 110.167L130.208 110.032L127.427 103.296L127.1 103.431ZM130.044 109.922H129.222V110.276H130.044V109.922ZM129.386 110.032L128.664 108.266L128.336 108.4L129.058 110.166L129.386 110.032ZM128.5 108.156H125.358V108.51H128.5V108.156ZM125.193 108.269L124.505 110.035L124.835 110.163L125.523 108.398L125.193 108.269ZM124.67 109.922H123.872V110.276H124.67V109.922ZM125.584 107.851H128.264V107.497H125.584V107.851ZM128.428 107.607L127.052 104.268L126.724 104.403L128.101 107.742L128.428 107.607ZM126.723 104.271L125.419 107.61L125.749 107.739L127.053 104.4L126.723 104.271ZM132.078 110.099L131.937 109.992L131.722 110.276H132.078V110.099ZM134.296 107.174L134.437 107.281L134.629 107.028L134.313 106.998L134.296 107.174ZM132.882 106.596L132.757 106.722L132.758 106.723L132.882 106.596ZM132.656 104.282L132.804 104.379L132.805 104.378L132.656 104.282ZM133.435 103.609L133.512 103.768L133.435 103.609ZM136.957 103.363H137.134V103.186H136.957V103.363ZM136.957 110.099V110.276H137.134V110.099H136.957ZM136.226 110.099H136.048V110.276H136.226V110.099ZM136.226 107.222H136.403V107.045H136.226V107.222ZM135.114 107.222V107.045H135.025L134.972 107.116L135.114 107.222ZM132.963 110.099V110.276H133.052L133.105 110.205L132.963 110.099ZM136.226 106.577V106.754H136.403V106.577H136.226ZM136.226 104.013H136.403V103.836H136.226V104.013ZM133.536 104.345L133.645 104.484L133.646 104.484L133.536 104.345ZM133.483 106.221L133.359 106.347L133.36 106.348L133.483 106.221ZM132.219 110.206L134.437 107.281L134.155 107.067L131.937 109.992L132.219 110.206ZM134.313 106.998C133.735 106.942 133.305 106.761 133.005 106.469L132.758 106.723C133.132 107.086 133.645 107.29 134.279 107.35L134.313 106.998ZM133.006 106.471C132.713 106.18 132.558 105.78 132.558 105.249H132.204C132.204 105.854 132.383 106.352 132.757 106.722L133.006 106.471ZM132.558 105.249C132.558 104.918 132.641 104.63 132.804 104.379L132.507 104.186C132.304 104.499 132.204 104.855 132.204 105.249H132.558ZM132.805 104.378C132.968 104.123 133.202 103.919 133.512 103.768L133.358 103.449C132.995 103.626 132.709 103.871 132.506 104.187L132.805 104.378ZM133.512 103.768C133.82 103.618 134.192 103.54 134.633 103.54V103.186C134.15 103.186 133.723 103.272 133.358 103.449L133.512 103.768ZM134.633 103.54H136.957V103.186H134.633V103.54ZM136.78 103.363V110.099H137.134V103.363H136.78ZM136.957 109.922H136.226V110.276H136.957V109.922ZM136.403 110.099V107.222H136.048V110.099H136.403ZM136.226 107.045H135.114V107.399H136.226V107.045ZM134.972 107.116L132.822 109.993L133.105 110.205L135.256 107.328L134.972 107.116ZM132.963 109.922H132.078V110.276H132.963V109.922ZM134.604 106.754H136.226V106.4H134.604V106.754ZM136.403 106.577V104.013H136.048V106.577H136.403ZM136.226 103.836H134.705V104.19H136.226V103.836ZM134.705 103.836C134.181 103.836 133.747 103.952 133.426 104.206L133.646 104.484C133.883 104.295 134.229 104.19 134.705 104.19V103.836ZM133.427 104.205C133.1 104.461 132.94 104.82 132.94 105.259H133.295C133.295 104.916 133.414 104.665 133.645 104.484L133.427 104.205ZM132.94 105.259C132.94 105.699 133.075 106.068 133.359 106.347L133.607 106.095C133.403 105.894 133.295 105.621 133.295 105.259H132.94ZM133.36 106.348C133.649 106.63 134.076 106.754 134.604 106.754V106.4C134.125 106.4 133.804 106.287 133.607 106.094L133.36 106.348ZM148.348 110.099L148.208 110.208L148.261 110.276H148.348V110.099ZM145.558 106.495L145.418 106.386L145.333 106.495L145.418 106.604L145.558 106.495ZM148.011 103.363V103.186H147.925L147.872 103.254L148.011 103.363ZM148.897 103.363L149.036 103.472L149.26 103.186H148.897V103.363ZM146.452 106.486L146.313 106.377L146.227 106.486L146.313 106.595L146.452 106.486ZM149.301 110.099V110.276H149.666L149.44 109.989L149.301 110.099ZM144.162 110.099H143.985V110.276H144.162V110.099ZM144.162 103.363V103.186H143.985V103.363H144.162ZM144.894 103.363H145.071V103.186H144.894V103.363ZM144.894 106.159H144.717V106.336H144.894V106.159ZM146.125 106.159H146.302V105.982H146.125V106.159ZM146.125 106.837V107.014H146.302V106.837H146.125ZM144.894 106.837V106.66H144.717V106.837H144.894ZM144.894 110.099V110.276H145.071V110.099H144.894ZM148.488 109.991L145.698 106.387L145.418 106.604L148.208 110.208L148.488 109.991ZM145.697 106.605L148.151 103.472L147.872 103.254L145.418 106.386L145.697 106.605ZM148.011 103.54H148.897V103.186H148.011V103.54ZM148.757 103.254L146.313 106.377L146.592 106.595L149.036 103.472L148.757 103.254ZM146.313 106.595L149.162 110.209L149.44 109.989L146.592 106.376L146.313 106.595ZM149.301 109.922H148.348V110.276H149.301V109.922ZM144.339 110.099V103.363H143.985V110.099H144.339ZM144.162 103.54H144.894V103.186H144.162V103.54ZM144.717 103.363V106.159H145.071V103.363H144.717ZM144.894 106.336H146.125V105.982H144.894V106.336ZM145.948 106.159V106.837H146.302V106.159H145.948ZM146.125 106.66H144.894V107.014H146.125V106.66ZM144.717 106.837V110.099H145.071V106.837H144.717ZM144.894 109.922H144.162V110.276H144.894V109.922ZM153.271 109.979L153.203 110.142L153.204 110.143L153.271 109.979ZM152.155 109.233L152.029 109.358L152.03 109.358L152.155 109.233ZM151.414 108.117L151.25 108.185L151.251 108.186L151.414 108.117ZM151.414 105.341L151.251 105.272L151.25 105.273L151.414 105.341ZM152.155 104.224L152.03 104.099L152.029 104.1L152.155 104.224ZM153.271 103.484L153.204 103.32L153.204 103.32L153.271 103.484ZM156.043 103.488L155.974 103.652L156.043 103.488ZM157.159 104.239L157.033 104.364V104.364L157.159 104.239ZM157.9 105.36L157.736 105.428L157.737 105.429L157.9 105.36ZM157.9 108.117L157.737 108.048L157.736 108.049L157.9 108.117ZM157.159 109.233L157.034 109.108L157.159 109.233ZM156.043 109.979L156.11 110.142L156.111 110.142L156.043 109.979ZM155.735 109.349L155.8 109.513L155.801 109.513L155.735 109.349ZM156.61 108.776L156.735 108.902L156.736 108.901L156.61 108.776ZM157.197 107.886L157.361 107.953L157.361 107.953L157.197 107.886ZM157.038 105.254L156.885 105.342L156.886 105.344L157.038 105.254ZM156.047 104.268L155.96 104.422L155.961 104.422L156.047 104.268ZM153.589 104.119L153.654 104.283L153.655 104.283L153.589 104.119ZM152.713 104.686L152.838 104.812H152.838L152.713 104.686ZM152.121 105.576L151.958 105.508L151.958 105.509L152.121 105.576ZM152.28 108.213L152.127 108.302L152.127 108.303L152.28 108.213ZM153.271 109.195L153.184 109.349L153.185 109.349L153.271 109.195ZM154.662 110.066C154.186 110.066 153.745 109.982 153.338 109.815L153.204 110.143C153.657 110.328 154.143 110.421 154.662 110.421V110.066ZM153.34 109.816C152.934 109.645 152.581 109.409 152.28 109.108L152.03 109.358C152.364 109.693 152.755 109.954 153.203 110.142L153.34 109.816ZM152.281 109.109C151.983 108.808 151.748 108.455 151.577 108.048L151.251 108.186C151.439 108.632 151.698 109.023 152.029 109.358L152.281 109.109ZM151.578 108.049C151.411 107.646 151.327 107.207 151.327 106.731H150.972C150.972 107.25 151.064 107.735 151.25 108.185L151.578 108.049ZM151.327 106.731C151.327 106.252 151.411 105.812 151.578 105.408L151.25 105.273C151.064 105.723 150.972 106.21 150.972 106.731H151.327ZM151.577 105.409C151.748 105.003 151.983 104.65 152.281 104.349L152.029 104.1C151.698 104.434 151.439 104.825 151.251 105.272L151.577 105.409ZM152.28 104.35C152.581 104.049 152.933 103.815 153.339 103.647L153.204 103.32C152.756 103.505 152.364 103.765 152.03 104.099L152.28 104.35ZM153.338 103.647C153.745 103.48 154.186 103.396 154.662 103.396V103.042C154.143 103.042 153.657 103.134 153.204 103.32L153.338 103.647ZM154.662 103.396C155.134 103.396 155.57 103.482 155.974 103.652L156.111 103.325C155.661 103.136 155.178 103.042 154.662 103.042V103.396ZM155.974 103.652C156.38 103.822 156.732 104.06 157.033 104.364L157.285 104.114C156.95 103.777 156.559 103.514 156.111 103.325L155.974 103.652ZM157.033 104.364C157.334 104.668 157.568 105.022 157.736 105.428L158.063 105.292C157.878 104.845 157.619 104.452 157.285 104.114L157.033 104.364ZM157.737 105.429C157.906 105.829 157.992 106.263 157.992 106.731H158.346C158.346 106.218 158.252 105.738 158.063 105.291L157.737 105.429ZM157.992 106.731C157.992 107.207 157.906 107.645 157.737 108.048L158.063 108.186C158.252 107.736 158.346 107.25 158.346 106.731H157.992ZM157.736 108.049C157.568 108.455 157.334 108.807 157.034 109.108L157.284 109.358C157.618 109.024 157.878 108.632 158.063 108.185L157.736 108.049ZM157.034 109.108C156.733 109.409 156.38 109.645 155.974 109.816L156.111 110.142C156.558 109.954 156.95 109.693 157.284 109.358L157.034 109.108ZM155.975 109.815C155.571 109.982 155.134 110.066 154.662 110.066V110.421C155.177 110.421 155.661 110.328 156.11 110.142L155.975 109.815ZM154.662 109.723C155.064 109.723 155.444 109.653 155.8 109.513L155.67 109.184C155.358 109.307 155.023 109.369 154.662 109.369V109.723ZM155.801 109.513C156.156 109.369 156.467 109.166 156.735 108.902L156.486 108.65C156.253 108.88 155.981 109.058 155.668 109.184L155.801 109.513ZM156.736 108.901C157.003 108.634 157.211 108.317 157.361 107.953L157.033 107.819C156.901 108.141 156.718 108.418 156.485 108.651L156.736 108.901ZM157.361 107.953C157.512 107.582 157.586 107.174 157.586 106.731H157.232C157.232 107.135 157.165 107.497 157.033 107.819L157.361 107.953ZM157.586 106.731C157.586 106.14 157.457 105.616 157.191 105.164L156.886 105.344C157.114 105.733 157.232 106.193 157.232 106.731H157.586ZM157.192 105.166C156.933 104.715 156.579 104.364 156.134 104.113L155.961 104.422C156.349 104.64 156.657 104.946 156.885 105.342L157.192 105.166ZM156.135 104.114C155.692 103.863 155.2 103.739 154.662 103.739V104.094C155.143 104.094 155.575 104.204 155.96 104.422L156.135 104.114ZM154.662 103.739C154.259 103.739 153.878 103.811 153.522 103.954L153.655 104.283C153.966 104.157 154.301 104.094 154.662 104.094V103.739ZM153.524 103.954C153.168 104.094 152.856 104.296 152.589 104.56L152.838 104.812C153.07 104.583 153.342 104.406 153.654 104.283L153.524 103.954ZM152.589 104.56C152.321 104.825 152.111 105.142 151.958 105.508L152.285 105.645C152.421 105.318 152.605 105.042 152.838 104.812L152.589 104.56ZM151.958 105.509C151.806 105.877 151.733 106.285 151.733 106.731H152.087C152.087 106.324 152.154 105.963 152.285 105.644L151.958 105.509ZM151.733 106.731C151.733 107.322 151.862 107.848 152.127 108.302L152.433 108.124C152.204 107.731 152.087 107.269 152.087 106.731H151.733ZM152.127 108.303C152.39 108.749 152.742 109.099 153.184 109.349L153.358 109.04C152.972 108.822 152.664 108.517 152.433 108.123L152.127 108.303ZM153.185 109.349C153.63 109.599 154.123 109.723 154.662 109.723V109.369C154.18 109.369 153.747 109.258 153.358 109.04L153.185 109.349ZM161.06 110.099H160.883V110.276H161.06V110.099ZM161.06 103.363V103.186H160.883V103.363H161.06ZM161.772 103.363L161.923 103.27L161.871 103.186H161.772V103.363ZM164.645 107.982L164.648 108.159L164.96 108.154L164.795 107.889L164.645 107.982ZM164.37 107.987L164.219 107.895L164.053 108.17L164.373 108.164L164.37 107.987ZM167.161 103.363V103.186H167.061L167.009 103.272L167.161 103.363ZM167.849 103.363H168.026V103.186H167.849V103.363ZM167.849 110.099V110.276H168.026V110.099H167.849ZM167.122 110.099L166.945 110.099L166.945 110.276H167.122V110.099ZM167.127 104.393L167.18 104.224L166.95 104.152L166.95 104.393L167.127 104.393ZM167.281 104.441L167.432 104.534L167.552 104.34L167.334 104.272L167.281 104.441ZM164.76 108.526V108.703H164.859L164.911 108.619L164.76 108.526ZM164.159 108.526L164.008 108.619L164.06 108.703H164.159V108.526ZM161.613 104.441L161.543 104.279L161.355 104.36L161.463 104.535L161.613 104.441ZM161.724 104.393L161.901 104.393L161.901 104.123L161.654 104.23L161.724 104.393ZM161.729 110.099V110.276H161.906L161.906 110.099L161.729 110.099ZM161.237 110.099V103.363H160.883V110.099H161.237ZM161.06 103.54H161.772V103.186H161.06V103.54ZM161.622 103.457L164.494 108.076L164.795 107.889L161.923 103.27L161.622 103.457ZM164.641 107.805L164.367 107.81L164.373 108.164L164.648 108.159L164.641 107.805ZM164.522 108.078L167.313 103.455L167.009 103.272L164.219 107.895L164.522 108.078ZM167.161 103.54H167.849V103.186H167.161V103.54ZM167.672 103.363V110.099H168.026V103.363H167.672ZM167.849 109.922H167.122V110.276H167.849V109.922ZM167.3 110.099L167.304 104.393L166.95 104.393L166.945 110.099L167.3 110.099ZM167.074 104.562L167.228 104.61L167.334 104.272L167.18 104.224L167.074 104.562ZM167.131 104.348L164.609 108.433L164.911 108.619L167.432 104.534L167.131 104.348ZM164.76 108.349H164.159V108.703H164.76V108.349ZM164.309 108.432L161.764 104.347L161.463 104.535L164.008 108.619L164.309 108.432ZM161.684 104.603L161.795 104.555L161.654 104.23L161.543 104.279L161.684 104.603ZM161.547 104.393L161.552 110.099L161.906 110.099L161.901 104.393L161.547 104.393ZM161.729 109.922H161.06V110.276H161.729V109.922ZM171.158 110.099H170.981V110.276H171.158V110.099ZM171.158 103.363V103.186H170.981V103.363H171.158ZM176.287 103.363H176.464V103.186H176.287V103.363ZM176.287 110.099V110.276H176.464V110.099H176.287ZM175.556 110.099H175.379V110.276H175.556V110.099ZM175.556 104.037H175.733V103.86H175.556V104.037ZM171.89 104.037V103.86H171.713V104.037H171.89ZM171.89 110.099V110.276H172.067V110.099H171.89ZM171.335 110.099V103.363H170.981V110.099H171.335ZM171.158 103.54H176.287V103.186H171.158V103.54ZM176.11 103.363V110.099H176.464V103.363H176.11ZM176.287 109.922H175.556V110.276H176.287V109.922ZM175.733 110.099V104.037H175.379V110.099H175.733ZM175.556 103.86H171.89V104.214H175.556V103.86ZM171.713 104.037V110.099H172.067V104.037H171.713ZM171.89 109.922H171.158V110.276H171.89V109.922ZM178.809 110.099L178.644 110.034L178.548 110.276H178.809V110.099ZM181.489 103.363V103.186H181.369L181.324 103.298L181.489 103.363ZM182.201 103.363L182.365 103.296L182.319 103.186H182.201V103.363ZM184.982 110.099V110.276H185.247L185.146 110.032L184.982 110.099ZM184.159 110.099L183.995 110.166L184.04 110.276H184.159V110.099ZM183.437 108.333L183.601 108.266L183.556 108.156H183.437V108.333ZM180.296 108.333V108.156H180.175L180.131 108.269L180.296 108.333ZM179.608 110.099V110.276H179.729L179.773 110.163L179.608 110.099ZM180.522 107.674L180.357 107.61L180.262 107.851H180.522V107.674ZM183.202 107.674V107.851H183.466L183.365 107.607L183.202 107.674ZM181.826 104.335L181.989 104.268L181.821 103.86L181.661 104.271L181.826 104.335ZM178.973 110.165L181.653 103.429L181.324 103.298L178.644 110.034L178.973 110.165ZM181.489 103.54H182.201V103.186H181.489V103.54ZM182.037 103.431L184.818 110.167L185.146 110.032L182.365 103.296L182.037 103.431ZM184.982 109.922H184.159V110.276H184.982V109.922ZM184.323 110.032L183.601 108.266L183.273 108.4L183.995 110.166L184.323 110.032ZM183.437 108.156H180.296V108.51H183.437V108.156ZM180.131 108.269L179.443 110.035L179.773 110.163L180.461 108.398L180.131 108.269ZM179.608 109.922H178.809V110.276H179.608V109.922ZM180.522 107.851H183.202V107.497H180.522V107.851ZM183.365 107.607L181.989 104.268L181.662 104.403L183.038 107.742L183.365 107.607ZM181.661 104.271L180.357 107.61L180.687 107.739L181.991 104.4L181.661 104.271ZM187.511 110.099H187.334V110.276H187.511V110.099ZM187.511 103.363V103.186H187.334V103.363H187.511ZM188.242 103.363H188.42V103.186H188.242V103.363ZM188.242 106.159H188.065V106.336H188.242V106.159ZM191.909 106.159V106.336H192.086V106.159H191.909ZM191.909 103.363V103.186H191.732V103.363H191.909ZM192.64 103.363H192.817V103.186H192.64V103.363ZM192.64 110.099V110.276H192.817V110.099H192.64ZM191.909 110.099H191.732V110.276H191.909V110.099ZM191.909 106.837H192.086V106.66H191.909V106.837ZM188.242 106.837V106.66H188.065V106.837H188.242ZM188.242 110.099V110.276H188.42V110.099H188.242ZM187.688 110.099V103.363H187.334V110.099H187.688ZM187.511 103.54H188.242V103.186H187.511V103.54ZM188.065 103.363V106.159H188.42V103.363H188.065ZM188.242 106.336H191.909V105.982H188.242V106.336ZM192.086 106.159V103.363H191.732V106.159H192.086ZM191.909 103.54H192.64V103.186H191.909V103.54ZM192.463 103.363V110.099H192.817V103.363H192.463ZM192.64 109.922H191.909V110.276H192.64V109.922ZM192.086 110.099V106.837H191.732V110.099H192.086ZM191.909 106.66H188.242V107.014H191.909V106.66ZM188.065 106.837V110.099H188.42V106.837H188.065ZM188.242 109.922H187.511V110.276H188.242V109.922ZM195.946 110.099H195.769V110.276H195.946V110.099ZM195.946 103.363V103.186H195.769V103.363H195.946ZM196.677 103.363H196.854V103.186H196.677V103.363ZM196.677 108.843H196.5V109.41L196.823 108.944L196.677 108.843ZM200.473 103.363V103.186H200.381L200.328 103.262L200.473 103.363ZM201.147 103.363H201.324V103.186H201.147V103.363ZM201.147 110.099V110.276H201.324V110.099H201.147ZM200.421 110.099H200.243V110.276H200.421V110.099ZM200.421 104.595H200.598V104.028L200.275 104.494L200.421 104.595ZM196.61 110.099V110.276H196.703L196.756 110.2L196.61 110.099ZM196.123 110.099V103.363H195.769V110.099H196.123ZM195.946 103.54H196.677V103.186H195.946V103.54ZM196.5 103.363V108.843H196.854V103.363H196.5ZM196.823 108.944L200.619 103.464L200.328 103.262L196.532 108.743L196.823 108.944ZM200.473 103.54H201.147V103.186H200.473V103.54ZM200.97 103.363V110.099H201.324V103.363H200.97ZM201.147 109.922H200.421V110.276H201.147V109.922ZM200.598 110.099V104.595H200.243V110.099H200.598ZM200.275 104.494L196.464 109.998L196.756 110.2L200.566 104.696L200.275 104.494ZM196.61 109.922H195.946V110.276H196.61V109.922ZM203.96 110.099L203.819 109.992L203.604 110.276H203.96V110.099ZM206.178 107.174L206.32 107.281L206.512 107.028L206.195 106.998L206.178 107.174ZM204.764 106.596L204.639 106.722L204.641 106.723L204.764 106.596ZM204.538 104.282L204.686 104.379L204.687 104.378L204.538 104.282ZM205.317 103.609L205.395 103.768L205.317 103.609ZM208.839 103.363H209.016V103.186H208.839V103.363ZM208.839 110.099V110.276H209.016V110.099H208.839ZM208.108 110.099H207.931V110.276H208.108V110.099ZM208.108 107.222H208.285V107.045H208.108V107.222ZM206.996 107.222V107.045H206.908L206.855 107.116L206.996 107.222ZM204.846 110.099V110.276H204.934L204.988 110.205L204.846 110.099ZM208.108 106.577V106.754H208.285V106.577H208.108ZM208.108 104.013H208.285V103.836H208.108V104.013ZM205.418 104.345L205.527 104.484L205.528 104.484L205.418 104.345ZM205.365 106.221L205.241 106.347L205.242 106.348L205.365 106.221ZM204.102 110.206L206.32 107.281L206.037 107.067L203.819 109.992L204.102 110.206ZM206.195 106.998C205.617 106.942 205.188 106.761 204.887 106.469L204.641 106.723C205.014 107.086 205.527 107.29 206.162 107.35L206.195 106.998ZM204.889 106.471C204.595 106.18 204.441 105.78 204.441 105.249H204.086C204.086 105.854 204.265 106.352 204.639 106.722L204.889 106.471ZM204.441 105.249C204.441 104.918 204.524 104.63 204.686 104.379L204.389 104.186C204.186 104.499 204.086 104.855 204.086 105.249H204.441ZM204.687 104.378C204.85 104.123 205.084 103.919 205.395 103.768L205.24 103.449C204.877 103.626 204.591 103.871 204.389 104.187L204.687 104.378ZM205.395 103.768C205.702 103.618 206.074 103.54 206.515 103.54V103.186C206.033 103.186 205.606 103.272 205.24 103.449L205.395 103.768ZM206.515 103.54H208.839V103.186H206.515V103.54ZM208.662 103.363V110.099H209.016V103.363H208.662ZM208.839 109.922H208.108V110.276H208.839V109.922ZM208.285 110.099V107.222H207.931V110.099H208.285ZM208.108 107.045H206.996V107.399H208.108V107.045ZM206.855 107.116L204.704 109.993L204.988 110.205L207.138 107.328L206.855 107.116ZM204.846 109.922H203.96V110.276H204.846V109.922ZM206.486 106.754H208.108V106.4H206.486V106.754ZM208.285 106.577V104.013H207.931V106.577H208.285ZM208.108 103.836H206.587V104.19H208.108V103.836ZM206.587 103.836C206.063 103.836 205.629 103.952 205.308 104.206L205.528 104.484C205.766 104.295 206.111 104.19 206.587 104.19V103.836ZM205.309 104.205C204.982 104.461 204.823 104.82 204.823 105.259H205.177C205.177 104.916 205.296 104.665 205.527 104.484L205.309 104.205ZM204.823 105.259C204.823 105.699 204.958 106.068 205.241 106.347L205.49 106.095C205.285 105.894 205.177 105.621 205.177 105.259H204.823ZM205.242 106.348C205.532 106.63 205.959 106.754 206.486 106.754V106.4C206.007 106.4 205.687 106.287 205.489 106.094L205.242 106.348Z" fill="white" mask="url(#path-2-outside-1_0_140)"/>
<g clip-path="url(#clip0_0_140)">
<path d="M96.7221 23.4531L96.0121 23.8616C93.9413 25.0573 93.9413 28.0496 96.0121 29.2483L124.344 45.6128C126.196 46.6813 128.477 46.6813 130.328 45.6128L158.66 29.2483C160.734 28.0526 160.734 25.0603 158.66 23.8645L157.962 23.5005" stroke="white" stroke-width="1.38479" stroke-miterlimit="10"/>
<path d="M124.392 13.2686C124.368 13.2804 124.344 13.2952 124.324 13.307C124.324 13.307 103.885 25.1964 103.574 25.2556" stroke="white" stroke-width="1.38479" stroke-miterlimit="10"/>
<path d="M96.3762 29.4407L95.9887 29.6656C93.9178 30.8614 93.9178 33.8537 95.9887 35.0524L124.32 51.4169C126.172 52.4854 128.453 52.4854 130.305 51.4169L158.637 35.0524C160.71 33.8566 160.71 30.8643 158.637 29.6686L158.288 29.4673" stroke="white" stroke-width="1.38479" stroke-miterlimit="10"/>
<path d="M96.3762 35.082L95.9887 35.307C93.9178 36.5027 93.9178 39.495 95.9887 40.6937L124.32 57.0582C126.172 58.1267 128.453 58.1267 130.305 57.0582L158.637 40.6937C160.71 39.498 160.71 36.5057 158.637 35.307L158.288 35.1057" stroke="white" stroke-width="1.38479" stroke-miterlimit="10"/>
<path d="M124.292 39.3945C126.381 40.6583 128.537 40.4926 130.439 39.3945L158.641 23.104C160.735 21.8934 160.735 18.8715 158.641 17.661L130.534 1.4267C128.579 0.299027 126.168 0.296067 124.209 1.4267L96.1555 17.6225C94.0315 18.8478 94.0315 21.9142 96.1555 23.1395L99.4304 25.0308C100.847 25.8477 102.593 25.8477 104.01 25.0308L127.312 11.5757C128.182 11.0726 129.253 11.0696 130.126 11.5609L143.024 18.8301C143.84 19.2888 143.846 20.4639 143.036 20.9315L122.547 32.7706C120.446 33.987 120.405 37.0119 122.479 38.2816L124.292 39.3945Z" stroke="white" stroke-width="1.38479" stroke-miterlimit="10"/>
</g>
<defs>
<clipPath id="clip0_0_140">
<rect width="66.9375" height="58.4375" fill="white" transform="translate(93.8555)"/>
</clipPath>
</defs>
</svg>
