<svg width="0" height="0" class="hidden">
    <symbol version="1.1" xmlns="http://www.w3.org/2000/svg" viewBox="0 0 1024 1024" id="phone">
        <path d="M362.59 163.965c7.615 0 15.090 2.038 21.652 5.902s11.969 9.413 15.662 16.072l52.181 93.995c3.365 6.064 5.2 12.854 5.35 19.789 0.148 6.932-1.397 13.796-4.497 19.999l-50.261 100.565c0 0 14.569 74.9 75.54 135.893 60.993 60.971 135.637 75.307 135.637 75.307l100.545-50.284c6.204-3.106 13.073-4.651 20.011-4.503 6.935 0.151 13.73 1.988 19.797 5.356l94.293 52.437c6.645 3.701 12.177 9.108 16.028 15.664 3.854 6.556 5.882 14.023 5.879 21.626v108.225c0 55.125-51.2 94.933-103.424 77.312-107.264-36.204-273.769-105.111-379.307-210.645-105.514-105.537-174.442-272.023-210.623-379.308-17.621-52.203 22.187-103.403 77.312-103.403h108.223z"></path>
    </symbol>
    <symbol version="1.1" xmlns="http://www.w3.org/2000/svg" viewBox="0 0 1024 1024" id="pin">
        <path d="M512 85.333c101.842 0 199.515 38.531 271.528 107.115 72.016 68.585 112.472 161.605 112.472 258.598 0 151.407-121.173 310.044-358.4 479.494-7.384 5.274-16.367 8.127-25.6 8.127s-18.216-2.853-25.6-8.127c-237.227-169.449-358.4-328.087-358.4-479.494 0-96.993 40.457-190.013 112.471-258.598s169.686-107.115 271.529-107.115zM512 329.142c-33.948 0-66.506 12.846-90.51 35.706s-37.49 53.868-37.49 86.198c0 32.333 13.486 63.34 37.49 86.201s56.562 35.706 90.51 35.706c33.948 0 66.506-12.846 90.51-35.706s37.49-53.868 37.49-86.201c0-32.33-13.486-63.337-37.49-86.198s-56.562-35.706-90.51-35.706z"></path>
    </symbol>
    <symbol version="1.1" xmlns="http://www.w3.org/2000/svg" viewBox="0 0 1024 1024" id="tg">
        <path d="M883.632 155.926c0 0 82.881-32.32 75.947 46.165-2.281 32.32-22.997 145.452-39.125 267.797l-55.253 362.453c0 0-4.608 53.1-46.057 62.336-41.429 9.216-103.595-32.319-115.115-41.557-9.216-6.932-172.672-110.825-230.229-161.599-16.128-13.867-34.56-41.557 2.304-73.879l241.749-230.869c27.625-27.733 55.253-92.373-59.861-13.867l-322.347 219.307c0 0-36.844 23.105-105.9 2.327l-149.675-46.188c0 0-55.253-34.623 39.147-69.248 230.252-108.501 513.45-219.306 764.396-323.2z"></path>
    </symbol>
    <symbol version="1.1" xmlns="http://www.w3.org/2000/svg" viewBox="0 0 1024 1024" id="wa">
        <path d="M588.373 112.641l-24.32-3.413c-73.091-10.553-147.675-0.113-215.060 30.104s-124.79 78.965-165.527 140.562c-43.343 58.879-69.18 128.798-74.54 201.716-5.359 72.914 9.978 145.86 44.246 210.443 3.507 6.474 5.691 13.579 6.423 20.904 0.732 7.327-0.001 14.726-2.156 21.763-17.493 60.16-33.707 120.747-50.773 184.32l21.333-6.4c57.6-15.36 115.2-30.72 172.8-44.8 12.157-2.526 24.795-1.337 36.267 3.413 51.678 25.222 108.151 39.097 165.635 40.695 57.481 1.599 114.64-9.116 167.64-31.425 52.998-22.312 100.614-55.7 139.648-97.926 39.031-42.226 68.582-92.314 86.665-146.901 18.082-54.585 24.28-112.41 18.179-169.589-6.104-57.179-24.368-112.39-53.567-161.929-29.198-49.541-68.654-92.262-115.721-125.297-47.070-33.035-100.659-55.621-157.173-66.241zM695.893 672.427c-15.508 13.884-34.418 23.41-54.804 27.605-20.386 4.198-41.52 2.918-61.249-3.712-89.39-25.207-166.943-81.294-218.88-158.293-19.831-27.238-35.772-57.108-47.36-88.747-6.278-18.355-7.41-38.081-3.274-57.034 4.136-18.955 13.386-36.415 26.741-50.486 6.502-8.297 15.351-14.444 25.398-17.641 10.044-3.197 20.821-3.294 30.922-0.279 8.533 2.133 14.507 14.507 22.187 23.893 6.258 17.636 13.511 34.844 21.76 51.627 6.246 8.556 8.858 19.234 7.259 29.707-1.599 10.47-7.276 19.886-15.792 26.186-19.2 17.067-16.213 31.147-2.56 50.347 30.168 43.5 71.822 77.77 120.32 98.987 13.653 5.973 23.893 7.253 32.853-6.827 3.84-5.547 8.96-10.24 13.227-15.36 24.747-31.147 17.067-30.72 56.32-13.653 12.516 5.262 24.604 11.378 36.267 18.347 11.52 6.827 29.013 14.080 31.573 24.32 2.463 11.11 1.815 22.682-1.874 33.448-3.686 10.763-10.274 20.304-19.032 27.566z"></path>
    </symbol>
    <symbol version="1.1" xmlns="http://www.w3.org/2000/svg" viewBox="0 0 1024 1024" id="mail">
        <path d="M853.333 170.667h-682.667c-46.933 0-84.907 38.4-84.907 85.333l-0.427 512c0 46.933 38.4 85.333 85.333 85.333h682.667c46.933 0 85.333-38.4 85.333-85.333v-512c0-46.933-38.4-85.333-85.333-85.333zM853.333 341.333l-341.333 213.333-341.333-213.333v-85.333l341.333 213.333 341.333-213.333v85.333z"></path>
    </symbol>
</svg>