<svg width="20" height="20" viewBox="0 0 20 20" fill="none" xmlns="http://www.w3.org/2000/svg">
<g id="icon/arrow_down">
<mask id="mask0_41_245" style="mask-type:alpha" maskUnits="userSpaceOnUse" x="0" y="0" width="20" height="20">
<rect id="Bounding box" width="20" height="20" fill="#D9D9D9"/>
</mask>
<g mask="url(#mask0_41_245)">
<path id="arrow_back_ios_new" d="M19.5252 7.20088L11.1252 15.6259C11.0252 15.7259 10.9169 15.7967 10.8002 15.8384C10.6835 15.88 10.5585 15.9009 10.4252 15.9009C10.2919 15.9009 10.1669 15.88 10.0502 15.8384C9.93353 15.7967 9.8252 15.7259 9.7252 15.6259L1.3002 7.20088C1.06686 6.96755 0.950195 6.67588 0.950195 6.32588C0.950195 5.97588 1.0752 5.67588 1.3252 5.42588C1.5752 5.17588 1.86686 5.05088 2.2002 5.05088C2.53353 5.05088 2.8252 5.17588 3.0752 5.42588L10.4252 12.7759L17.7752 5.42588C18.0085 5.19254 18.296 5.07588 18.6377 5.07588C18.9794 5.07588 19.2752 5.20088 19.5252 5.45088C19.7752 5.70088 19.9002 5.99255 19.9002 6.32588C19.9002 6.65921 19.7752 6.95088 19.5252 7.20088Z" fill="white"/>
</g>
</g>
</svg>
