<svg width="97" height="96" viewBox="0 0 97 96" fill="none" xmlns="http://www.w3.org/2000/svg">
<path d="M48.5545 84C42.9992 84 38.5333 80.1744 38.5333 75.0736C38.5333 70.7575 41.8011 67.2262 46.4849 66.3433V51.2371L31.8888 58.7902C32.1067 59.4768 32.3245 60.3597 32.3245 61.5368C32.3245 66.3433 27.9675 70.4632 22.5212 70.4632C17.1838 70.4632 12.5 66.4414 12.5 61.5368C12.5 56.7302 16.857 52.6104 22.4123 52.6104C25.3533 52.6104 27.8585 53.5913 29.8192 55.5531L44.3064 48L29.8192 40.4469C27.9675 42.4087 25.5711 43.3896 22.5212 43.3896C16.966 43.3896 12.5 39.3678 12.5 34.5613C12.5 29.6567 17.0749 25.5368 22.5212 25.5368C28.0764 25.5368 32.3245 29.7548 32.3245 34.4632C32.3245 35.6403 32.1067 36.5232 31.8888 37.2098L46.4849 44.7629V29.6567C41.91 28.8719 38.5333 25.4387 38.5333 20.9264C38.5333 15.9237 42.9992 12 48.4455 12C54.1097 12 58.4667 16.1199 58.4667 20.9264C58.4667 25.2425 54.9811 28.8719 50.5151 29.6567V44.7629L65.1112 37.2098C64.7844 36.4251 64.6755 35.5422 64.6755 34.4632C64.6755 29.6567 68.9236 25.5368 74.4788 25.5368C80.2519 25.5368 84.5 29.7548 84.5 34.5613C84.5 39.3678 79.9251 43.3896 74.4788 43.3896C71.4289 43.3896 69.0325 42.4087 67.1808 40.4469L52.5847 48L67.1808 55.5531C69.1415 53.5913 71.6467 52.6104 74.5877 52.6104C80.034 52.6104 84.5 56.7302 84.5 61.5368C84.5 66.3433 79.9251 70.4632 74.4788 70.4632C68.9236 70.4632 64.6755 66.3433 64.6755 61.5368C64.6755 60.4578 64.7844 59.5749 65.1112 58.7902L50.5151 51.2371V66.3433C55.1989 67.3242 58.4667 70.8556 58.4667 75.0736C58.4667 80.1744 54.1097 84 48.5545 84Z" fill="#1A1A1A"/>
</svg>
