<svg width="97" height="96" viewBox="0 0 97 96" fill="none" xmlns="http://www.w3.org/2000/svg">
<path d="M30.5 30C40.4411 30 48.5 21.9411 48.5 12C48.5 21.9411 56.5589 30 66.5 30C76.4411 30 84.5 21.9411 84.5 12H48.5H12.5C12.5 21.9411 20.5589 30 30.5 30Z" fill="#1A1A1A"/>
<path fill-rule="evenodd" clip-rule="evenodd" d="M30.5 66C20.5589 66 12.5 74.0589 12.5 84H48.5H84.5C84.5 74.0589 76.4411 66 66.5 66C76.4411 66 84.5 57.9411 84.5 48C84.5 47.324 84.4627 46.6567 84.3901 46C83.3953 37.0001 75.7651 30 66.5 30C57.2349 30 49.6047 37.0001 48.6099 46C48.5373 46.6567 48.5 47.324 48.5 48C48.5 47.324 48.4627 46.6567 48.3901 46C47.3953 37.0001 39.7651 30 30.5 30C21.2349 30 13.6047 37.0001 12.6099 46C12.5373 46.6567 12.5 47.324 12.5 48C12.5 57.9411 20.5589 66 30.5 66ZM30.5 66C40.4411 66 48.5 57.9411 48.5 48C48.5 57.9411 56.5589 66 66.5 66C56.5589 66 48.5 74.0589 48.5 84C48.5 74.0589 40.4411 66 30.5 66ZM30.5 32C38.6592 32 45.392 38.1074 46.3762 46H14.6238C15.608 38.1074 22.3408 32 30.5 32ZM66.5 32C74.6592 32 81.392 38.1074 82.3762 46H50.6238C51.608 38.1074 58.3408 32 66.5 32Z" fill="#1A1A1A"/>
</svg>
