<svg width="97" height="96" viewBox="0 0 97 96" fill="none" xmlns="http://www.w3.org/2000/svg">
<path d="M27.1019 84C24.4327 84 21.9879 83.3495 19.7673 82.0486C17.5467 80.7252 15.7748 78.9533 14.4514 76.7327C13.1505 74.5121 12.5 72.0673 12.5 69.3981C12.5 66.7065 13.1505 64.2505 14.4514 62.0299C15.7748 59.8093 17.5467 58.0374 19.7673 56.714C21.9879 55.3907 24.4327 54.729 27.1019 54.729H34.9075V41.2037H27.1019C24.4327 41.2037 21.9879 40.5533 19.7673 39.2523C17.5467 37.929 15.7748 36.1682 14.4514 33.9701C13.1505 31.7495 12.5 29.2935 12.5 26.6019C12.5 23.9103 13.1505 21.4654 14.4514 19.2673C15.7748 17.0467 17.5467 15.286 19.7673 13.9851C21.9879 12.6617 24.4327 12 27.1019 12C29.7935 12 32.2495 12.6617 34.4701 13.9851C36.6907 15.286 38.4626 17.0467 39.786 19.2673C41.1093 21.4654 41.771 23.9103 41.771 26.6019V34.3402H55.2963V26.6019C55.2963 23.9103 55.9467 21.4654 57.2477 19.2673C58.571 17.0467 60.3318 15.286 62.5299 13.9851C64.7505 12.6617 67.2065 12 69.8981 12C72.5897 12 75.0346 12.6617 77.2327 13.9851C79.4533 15.286 81.214 17.0467 82.5149 19.2673C83.8383 21.4654 84.5 23.9103 84.5 26.6019C84.5 29.2935 83.8383 31.7495 82.5149 33.9701C81.214 36.1682 79.4533 37.929 77.2327 39.2523C75.0346 40.5533 72.5897 41.2037 69.8981 41.2037H62.1598V54.729H69.8981C72.5897 54.729 75.0346 55.3907 77.2327 56.714C79.4533 58.0374 81.214 59.8093 82.5149 62.0299C83.8383 64.2505 84.5 66.7065 84.5 69.3981C84.5 72.0673 83.8383 74.5121 82.5149 76.7327C81.214 78.9533 79.4533 80.7252 77.2327 82.0486C75.0346 83.3495 72.5897 84 69.8981 84C67.2065 84 64.7505 83.3495 62.5299 82.0486C60.3318 80.7252 58.571 78.9533 57.2477 76.7327C55.9467 74.5121 55.2963 72.0673 55.2963 69.3981V61.5925H41.771V69.3981C41.771 72.0673 41.1093 74.5121 39.786 76.7327C38.4626 78.9533 36.6907 80.7252 34.4701 82.0486C32.2495 83.3495 29.7935 84 27.1019 84ZM27.1019 77.1365C28.5374 77.1365 29.8383 76.7888 31.0047 76.0935C32.1935 75.3981 33.1355 74.4673 33.8308 73.3009C34.5486 72.1121 34.9075 70.8112 34.9075 69.3981V61.5925H27.1019C25.6888 61.5925 24.3879 61.9514 23.1991 62.6692C22.0327 63.3645 21.1019 64.3065 20.4065 65.4953C19.7112 66.6617 19.3636 67.9626 19.3636 69.3981C19.3636 70.8112 19.7112 72.1121 20.4065 73.3009C21.1019 74.4673 22.0327 75.3981 23.1991 76.0935C24.3879 76.7888 25.6888 77.1365 27.1019 77.1365ZM27.1019 34.3402H34.9075V26.6019C34.9075 25.1664 34.5486 23.8654 33.8308 22.6991C33.1355 21.5327 32.1935 20.6019 31.0047 19.9065C29.8383 19.2112 28.5374 18.8636 27.1019 18.8636C25.6888 18.8636 24.3879 19.2112 23.1991 19.9065C22.0327 20.6019 21.1019 21.5327 20.4065 22.6991C19.7112 23.8654 19.3636 25.1664 19.3636 26.6019C19.3636 28.0374 19.7112 29.3495 20.4065 30.5383C21.1019 31.7047 22.0327 32.6355 23.1991 33.3308C24.3879 34.0037 25.6888 34.3402 27.1019 34.3402ZM62.1598 34.3402H69.8981C71.3336 34.3402 72.6346 34.0037 73.8009 33.3308C74.9673 32.6355 75.8981 31.7047 76.5935 30.5383C77.2888 29.3495 77.6365 28.0374 77.6365 26.6019C77.6365 25.1664 77.2888 23.8654 76.5935 22.6991C75.8981 21.5327 74.9673 20.6019 73.8009 19.9065C72.6346 19.2112 71.3336 18.8636 69.8981 18.8636C68.4626 18.8636 67.1505 19.2112 65.9617 19.9065C64.7953 20.6019 63.8645 21.5327 63.1692 22.6991C62.4963 23.8654 62.1598 25.1664 62.1598 26.6019V34.3402ZM69.8981 77.1365C71.3336 77.1365 72.6346 76.7888 73.8009 76.0935C74.9673 75.3981 75.8981 74.4673 76.5935 73.3009C77.2888 72.1121 77.6365 70.8112 77.6365 69.3981C77.6365 67.9626 77.2888 66.6617 76.5935 65.4953C75.8981 64.3065 74.9673 63.3645 73.8009 62.6692C72.6346 61.9514 71.3336 61.5925 69.8981 61.5925H62.1598V69.3981C62.1598 70.8112 62.4963 72.1121 63.1692 73.3009C63.8645 74.4673 64.7953 75.3981 65.9617 76.0935C67.1505 76.7888 68.4626 77.1365 69.8981 77.1365ZM41.771 54.729H55.2963V41.2037H41.771V54.729Z" fill="#1A1A1A"/>
</svg>
