<svg width="24" height="24" viewBox="0 0 24 24" fill="none" xmlns="http://www.w3.org/2000/svg">
<path fill-rule="evenodd" clip-rule="evenodd" d="M7.29123 3.99831C7.13039 3.83748 6.86963 3.83748 6.7088 3.99831C4.95952 5.74758 4.76271 8.51693 6.24702 10.496L7.42858 12.0714C8.7078 13.777 10.223 15.2922 11.9286 16.5714L13.504 17.753C15.4831 19.2373 18.2524 19.0405 20.0017 17.2912C20.1625 17.1304 20.1625 16.8696 20.0017 16.7088L17.3536 14.0606C17.1583 13.8654 16.8417 13.8654 16.6465 14.0606L15.6253 15.0818C15.3108 15.3963 14.8304 15.4742 14.4327 15.2753C11.9626 14.0403 9.95971 12.0374 8.72466 9.56733C8.52578 9.16956 8.60374 8.68915 8.9182 8.37469L9.93935 7.35354C10.1346 7.15828 10.1346 6.8417 9.93935 6.64644L7.29123 3.99831ZM6.00169 3.2912C6.55305 2.73985 7.44697 2.73985 7.99833 3.2912L10.6465 5.93933C11.2322 6.52511 11.2322 7.47486 10.6465 8.06065L9.62531 9.0818C9.61521 9.0919 9.6127 9.10734 9.61909 9.12012C10.7574 11.3967 12.6033 13.2426 14.8799 14.3809C14.8927 14.3873 14.9081 14.3848 14.9182 14.3747L15.9394 13.3535C16.5251 12.7678 17.4749 12.7678 18.0607 13.3535L20.7088 16.0017C21.2602 16.553 21.2602 17.447 20.7088 17.9983C18.6076 20.0995 15.2812 20.3359 12.904 18.553L11.3286 17.3714C9.54715 16.0353 7.96466 14.4529 6.62858 12.6714L5.44702 11.096C3.66412 8.7188 3.90052 5.39237 6.00169 3.2912Z" fill="white"/>
</svg>
