<svg width="0" height="0" class="hidden">
  <symbol xmlns="http://www.w3.org/2000/svg" viewBox="0 0 193 20" id="logo">
    <path d="M25.3133 2.48323V0.0375061H2.4467H0.000976562V2.48323V3.70609V6.15181V7.37467V9.82039H2.4467H25.3133V7.37467H2.4467V6.15181H22.8676V3.70609H2.4467V2.48323H25.3133Z" ></path>
    <path d="M192.138 2.48323V0.0375061H169.271H166.825V2.48323V3.70609V6.15181V7.37467V9.82039H169.271H192.138V7.37467H169.271V6.15181H189.692V3.70609H169.271V2.48323H192.138Z" ></path>
    <path d="M60.3772 2.48323V0.0375061H37.5105H35.0648V2.48323V3.70609V6.15181H37.5105H57.9327V7.37467H35.0648V9.82039H57.9327H60.3772V7.37467V6.15181V3.70609H57.9327H37.5105V2.48323H60.3772Z" ></path>
    <path d="M95.4421 0.0375061H84.0082H81.5625H70.1298V2.48323H81.5625V9.82039H84.0082V2.48323H95.4421V0.0375061Z" ></path>
    <path d="M157.074 0.0375061H145.64H143.194H131.76L131.761 2.48323H143.194V9.82039H145.64V2.48323H157.074V0.0375061Z" ></path>
    <path d="M116.119 1.3922H116.118L115.008 0.500756C114.177 -0.166919 112.994 -0.166919 112.163 0.500756L111.053 1.3922L100.288 9.8349H103.876L104.664 9.21681L111.295 4.01572L113.587 2.21832L118.99 6.45661L121.681 8.56728L123.296 9.83369H126.885L116.119 1.39099V1.3922Z" ></path>
    <path d="M29.0992 14.6755L26.3838 19.3298H27.5389L28.0627 18.3695H31.1023L31.626 19.3298H32.7811L30.0657 14.6755H29.1005H29.0992ZM28.5864 17.4683L29.5819 15.7266L30.5773 17.4683H28.5864Z" ></path>
    <path d="M44.0759 17.0571C44.0759 17.3571 44.065 17.6062 44.0445 17.801C44.0251 17.9788 43.9925 18.1179 43.9429 18.2158C43.9066 18.2908 43.8558 18.3465 43.7868 18.3828C43.7022 18.4287 43.5848 18.4577 43.4373 18.4735C43.2667 18.4904 43.0551 18.4989 42.8059 18.4989H41.8165C41.5673 18.4989 41.3568 18.4892 41.1851 18.4735C41.0375 18.4565 40.9202 18.4275 40.8379 18.3828C40.7678 18.3465 40.717 18.2896 40.6783 18.2098C40.6311 18.1167 40.5984 17.9788 40.5791 17.801C40.5585 17.6062 40.5476 17.3571 40.5476 17.0571V14.6755H39.5582V17.0571C39.5582 17.53 39.5897 17.905 39.6514 18.1989C39.7191 18.5231 39.8449 18.7795 40.0251 18.9585C40.2041 19.1399 40.4521 19.2645 40.7593 19.3274C41.0327 19.3879 41.3883 19.4169 41.8153 19.4169H42.8047C43.2353 19.4169 43.5812 19.3879 43.8594 19.3274C44.1678 19.2633 44.417 19.1399 44.5948 18.9597C44.7762 18.7783 44.902 18.5219 44.9686 18.2001C45.0327 17.9038 45.0629 17.5288 45.0629 17.0559V14.6743H44.0735V17.0559L44.0759 17.0571Z" ></path>
    <path d="M52.0966 15.5778H54.1915V19.3311H55.1809V15.5778H57.2759V14.6755H52.0966V15.5778Z" ></path>
    <path d="M69.6314 15.2851C69.5225 15.0904 69.3689 14.9392 69.1754 14.8327C68.9928 14.7347 68.7702 14.6694 68.515 14.6368C68.2743 14.6053 67.99 14.5896 67.6441 14.5896H66.5434C66.1987 14.5896 65.9144 14.6065 65.6749 14.6368C65.4173 14.6694 65.1947 14.7347 65.0145 14.8327C64.8198 14.938 64.6662 15.0904 64.5597 15.2839C64.4557 15.4677 64.3831 15.6951 64.342 15.9818C64.3033 16.2431 64.2852 16.5696 64.2852 16.9494V17.0583C64.2852 17.5312 64.3166 17.9062 64.3783 18.2001C64.446 18.5243 64.5718 18.7807 64.7521 18.9597C64.9311 19.1412 65.179 19.2657 65.4863 19.3286C65.7596 19.3891 66.1152 19.4181 66.5422 19.4181H67.6429C68.0759 19.4181 68.4206 19.3891 68.6988 19.3286C69.0048 19.2645 69.2528 19.1412 69.4354 18.9597C69.6132 18.7795 69.739 18.5231 69.8092 18.2001C69.8709 17.9002 69.9023 17.5167 69.9023 17.0583V16.9494C69.9023 16.5842 69.883 16.2588 69.8455 15.9806C69.8019 15.6951 69.7306 15.4677 69.629 15.2863L69.6314 15.2851ZM67.6453 18.5001H66.5446C66.2942 18.5001 66.0838 18.4904 65.912 18.4747C65.7632 18.459 65.6471 18.4287 65.5625 18.384C65.4947 18.3477 65.4439 18.2933 65.4064 18.2134C65.3592 18.1191 65.3254 17.9812 65.3072 17.8022C65.2867 17.6074 65.2758 17.3583 65.2758 17.0583V16.9494C65.2758 16.6386 65.2867 16.3797 65.3072 16.1826C65.3254 16.0024 65.3592 15.8645 65.4064 15.7701C65.4415 15.6951 65.4899 15.6468 65.5564 15.6141C65.6386 15.5718 65.7584 15.5451 65.9072 15.5318C66.0801 15.5173 66.2918 15.5077 66.5446 15.5077H67.6453C67.8981 15.5077 68.1098 15.5173 68.2803 15.5294C68.4315 15.5439 68.5513 15.5718 68.6323 15.6117C68.7 15.6468 68.7484 15.6976 68.7847 15.7701C68.8307 15.8669 68.8657 16.0096 68.8839 16.1826C68.9045 16.3809 68.9153 16.6386 68.9153 16.9494V17.0583C68.9153 17.3583 68.9045 17.6074 68.8839 17.8022C68.8657 17.9751 68.8307 18.1167 68.7847 18.2134C68.746 18.292 68.6952 18.3477 68.6287 18.384C68.544 18.4299 68.4255 18.459 68.2779 18.4747C68.1061 18.4916 67.8957 18.5001 67.6453 18.5001Z" ></path>
    <path d="M82.0597 16.8007C82.0911 16.768 82.1214 16.7317 82.1492 16.693C82.2907 16.491 82.3621 16.2406 82.3621 15.9479C82.3621 15.6298 82.3016 15.3734 82.1782 15.1823C82.0488 14.9863 81.854 14.8497 81.5976 14.7734C81.3714 14.7081 81.0872 14.6755 80.7546 14.6755H77.1827V19.3298H80.5211C80.884 19.3298 81.1767 19.3117 81.4174 19.2766C81.6823 19.2367 81.8915 19.1641 82.0548 19.0553C82.2326 18.9404 82.3608 18.7771 82.437 18.5678C82.5024 18.3803 82.5362 18.1481 82.5362 17.8747C82.5362 17.5421 82.454 17.2567 82.2883 17.0196C82.2242 16.9337 82.148 16.8599 82.0597 16.7995V16.8007ZM80.5211 18.4275H78.1722V17.322H80.3796C80.5683 17.322 80.7473 17.328 80.9106 17.3389C81.0582 17.3486 81.184 17.3716 81.2916 17.4115C81.3726 17.4429 81.4343 17.4901 81.4779 17.5554C81.5238 17.6232 81.5468 17.7332 81.5468 17.876C81.5468 18.078 81.5226 18.182 81.5045 18.234L81.5021 18.2412C81.4851 18.2908 81.4585 18.3235 81.4186 18.3428C81.3521 18.3779 81.2517 18.4009 81.1223 18.4106C80.965 18.4239 80.7642 18.4287 80.5223 18.4287L80.5211 18.4275ZM81.3726 15.9467C81.3726 16.1826 81.3231 16.2672 81.3013 16.2902C81.2408 16.358 81.1307 16.3834 81.0497 16.3918C80.8743 16.41 80.653 16.4197 80.3808 16.4197H78.1734V15.5766H80.7558C80.9529 15.5766 81.109 15.5875 81.2214 15.6093C81.2783 15.6201 81.3146 15.6383 81.3303 15.6661C81.34 15.6818 81.3739 15.752 81.3739 15.9479L81.3726 15.9467Z" ></path>
    <path d="M94.9825 15.2851C94.8736 15.0904 94.72 14.9392 94.5265 14.8327C94.3438 14.7347 94.1213 14.6694 93.866 14.6368C93.6253 14.6053 93.3411 14.5896 92.9952 14.5896H91.8945C91.5497 14.5896 91.2655 14.6065 91.026 14.6368C90.7684 14.6694 90.5458 14.7347 90.3656 14.8327C90.1709 14.938 90.0172 15.0904 89.9108 15.2839C89.8068 15.4677 89.7342 15.6951 89.6931 15.9818C89.6544 16.2431 89.6362 16.5696 89.6362 16.9494V17.0583C89.6362 17.5312 89.6677 17.9062 89.7294 18.2001C89.7971 18.5243 89.9229 18.7807 90.1031 18.9597C90.2821 19.1412 90.5301 19.2657 90.8373 19.3286C91.1107 19.3891 91.4663 19.4181 91.8933 19.4181H92.994C93.427 19.4181 93.7717 19.3891 94.0499 19.3286C94.3559 19.2645 94.6051 19.1412 94.7865 18.9597C94.9643 18.7795 95.0901 18.5231 95.1603 18.2001C95.222 17.9002 95.2534 17.5167 95.2534 17.0583V16.9494C95.2534 16.5842 95.2341 16.2588 95.1966 15.9806C95.153 15.6951 95.0816 15.4677 94.98 15.2863L94.9825 15.2851ZM92.9964 18.5001H91.8957C91.6453 18.5001 91.4348 18.4904 91.2631 18.4747C91.1143 18.459 90.9982 18.4287 90.9135 18.384C90.8458 18.3477 90.795 18.2933 90.7575 18.2134C90.7103 18.1191 90.6764 17.9812 90.6583 17.8022C90.6377 17.6074 90.6269 17.3583 90.6269 17.0583V16.9494C90.6269 16.6386 90.6377 16.3797 90.6583 16.1826C90.6764 16.0024 90.7103 15.8645 90.7575 15.7701C90.7926 15.6951 90.8409 15.6468 90.9075 15.6141C90.9897 15.5718 91.1095 15.5451 91.2582 15.5318C91.4312 15.5173 91.6429 15.5077 91.8957 15.5077H92.9964C93.2492 15.5077 93.4608 15.5173 93.6314 15.5294C93.7826 15.5439 93.9023 15.5718 93.9834 15.6117C94.0511 15.6468 94.0995 15.6976 94.1358 15.7701C94.1817 15.8669 94.2168 16.0096 94.235 16.1826C94.2555 16.3809 94.2664 16.6386 94.2664 16.9494V17.0583C94.2664 17.3583 94.2555 17.6074 94.235 17.8022C94.2168 17.9751 94.1817 18.1167 94.1358 18.2134C94.0971 18.292 94.0463 18.3477 93.9797 18.384C93.8951 18.4299 93.7765 18.459 93.629 18.4747C93.4572 18.4916 93.2468 18.5001 92.9964 18.5001Z" ></path>
    <path d="M106.898 17.0571C106.898 17.3571 106.887 17.6062 106.866 17.801C106.847 17.9788 106.814 18.1179 106.765 18.2158C106.728 18.2908 106.678 18.3465 106.609 18.3828C106.524 18.4287 106.407 18.4577 106.259 18.4735C106.089 18.4904 105.877 18.4989 105.628 18.4989H104.638C104.389 18.4989 104.179 18.4892 104.007 18.4735C103.859 18.4565 103.742 18.4275 103.66 18.3828C103.59 18.3465 103.539 18.2896 103.5 18.2098C103.453 18.1167 103.42 17.9788 103.401 17.801C103.38 17.6062 103.37 17.3571 103.37 17.0571V14.6755H102.38V17.0571C102.38 17.53 102.412 17.905 102.473 18.1989C102.541 18.5231 102.667 18.7795 102.847 18.9585C103.026 19.1399 103.274 19.2645 103.581 19.3274C103.855 19.3879 104.21 19.4169 104.637 19.4169H105.627C106.057 19.4169 106.403 19.3879 106.681 19.3274C106.991 19.2633 107.239 19.1399 107.417 18.9597C107.598 18.7783 107.724 18.5219 107.79 18.2001C107.855 17.9038 107.885 17.5288 107.885 17.0559V14.6743H106.895V17.0559L106.898 17.0571Z" ></path>
    <path d="M114.92 15.5778H117.015V19.3311H118.004V15.5778H120.099V14.6755H114.92V15.5778Z" ></path>
    <path d="M128.272 14.6755H127.282V19.3298H128.272V14.6755Z" ></path>
    <path d="M141.081 18.1808C141.139 17.882 141.169 17.5046 141.169 17.0571V16.9482C141.169 16.5829 141.15 16.2576 141.113 15.9794C141.069 15.6939 140.998 15.4665 140.896 15.2851C140.787 15.0904 140.634 14.9392 140.44 14.8327C140.257 14.7347 140.035 14.6694 139.78 14.6368C139.539 14.6053 139.255 14.5896 138.909 14.5896H137.809C137.463 14.5896 137.179 14.6065 136.94 14.6368C136.682 14.6694 136.459 14.7347 136.279 14.8327C136.084 14.938 135.931 15.0904 135.824 15.2839C135.72 15.4677 135.648 15.6951 135.607 15.9818C135.568 16.2431 135.55 16.5696 135.55 16.9494V17.0583C135.55 17.5312 135.581 17.9062 135.643 18.2001C135.711 18.5243 135.836 18.7807 136.017 18.9597C136.196 19.1412 136.444 19.2657 136.751 19.3286C137.024 19.3891 137.38 19.4181 137.807 19.4181H138.906C139.204 19.4181 139.453 19.4073 139.665 19.3819C139.84 19.3637 140 19.3323 140.141 19.2875L141.054 19.9999L141.615 19.3165L140.873 18.736C140.966 18.5799 141.035 18.3937 141.079 18.1808H141.081ZM140.087 18.1191L138.681 17.0172L138.121 17.703L139.137 18.4977C139.065 18.4989 138.99 18.4989 138.909 18.4989H137.809C137.559 18.4989 137.348 18.4892 137.177 18.4735C137.028 18.4565 136.912 18.4275 136.827 18.3828C136.759 18.3465 136.709 18.292 136.671 18.2122C136.624 18.1179 136.59 17.98 136.572 17.801C136.551 17.6062 136.54 17.3571 136.54 17.0571V16.9482C136.54 16.6374 136.551 16.3785 136.572 16.1814C136.59 16.0012 136.624 15.8633 136.671 15.7689C136.706 15.6939 136.755 15.6455 136.821 15.6129C136.903 15.5705 137.023 15.5439 137.172 15.5306C137.345 15.5161 137.556 15.5064 137.809 15.5064H138.909C139.162 15.5064 139.373 15.5161 139.544 15.5282C139.695 15.5427 139.815 15.5705 139.896 15.6105C139.963 15.6455 140.012 15.6963 140.048 15.7689C140.094 15.8657 140.129 16.0084 140.147 16.1814C140.168 16.3797 140.179 16.6374 140.179 16.9482V17.0571C140.179 17.4175 140.162 17.7115 140.13 17.9268C140.12 17.9993 140.104 18.0634 140.086 18.1191H140.087Z" ></path>
    <path d="M152.81 17.0571C152.81 17.3571 152.799 17.6062 152.779 17.801C152.759 17.9788 152.727 18.1179 152.677 18.2158C152.641 18.2908 152.59 18.3465 152.521 18.3828C152.436 18.4287 152.319 18.4577 152.172 18.4735C152.001 18.4904 151.789 18.4989 151.54 18.4989H150.551C150.302 18.4989 150.091 18.4892 149.919 18.4735C149.772 18.4565 149.654 18.4275 149.572 18.3828C149.502 18.3465 149.451 18.2896 149.413 18.2098C149.365 18.1167 149.333 17.9788 149.313 17.801C149.293 17.6062 149.282 17.3571 149.282 17.0571V14.6755H148.292V17.0571C148.292 17.53 148.324 17.905 148.386 18.1989C148.453 18.5231 148.579 18.7795 148.759 18.9585C148.938 19.1399 149.186 19.2645 149.494 19.3274C149.767 19.3879 150.123 19.4169 150.55 19.4169H151.539C151.97 19.4169 152.315 19.3879 152.594 19.3274C152.902 19.2633 153.151 19.1399 153.329 18.9597C153.511 18.7783 153.636 18.5219 153.703 18.2001C153.767 17.9038 153.797 17.5288 153.797 17.0559V14.6743H152.808V17.0559L152.81 17.0571Z" ></path>
    <path d="M162.089 18.4287V17.4103H165.53V16.508H162.089V15.5778H165.679V14.6755H161.1V19.3311H165.755V18.4287H162.089Z" ></path>
  </symbol>
   <symbol xmlns="http://www.w3.org/2000/svg" viewBox="0 0 24 24" id="phone">
    <path fill-rule="evenodd" clip-rule="evenodd" d="M7.29123 3.99831C7.13039 3.83748 6.86963 3.83748 6.7088 3.99831C4.95952 5.74758 4.76271 8.51693 6.24702 10.496L7.42858 12.0714C8.7078 13.777 10.223 15.2922 11.9286 16.5714L13.504 17.753C15.4831 19.2373 18.2524 19.0405 20.0017 17.2912C20.1625 17.1304 20.1625 16.8696 20.0017 16.7088L17.3536 14.0606C17.1583 13.8654 16.8417 13.8654 16.6465 14.0606L15.6253 15.0818C15.3108 15.3963 14.8304 15.4742 14.4327 15.2753C11.9626 14.0403 9.95971 12.0374 8.72466 9.56733C8.52578 9.16956 8.60374 8.68915 8.9182 8.37469L9.93935 7.35354C10.1346 7.15828 10.1346 6.8417 9.93935 6.64644L7.29123 3.99831ZM6.00169 3.2912C6.55305 2.73985 7.44697 2.73985 7.99833 3.2912L10.6465 5.93933C11.2322 6.52511 11.2322 7.47486 10.6465 8.06065L9.62531 9.0818C9.61521 9.0919 9.6127 9.10734 9.61909 9.12012C10.7574 11.3967 12.6033 13.2426 14.8799 14.3809C14.8927 14.3873 14.9081 14.3848 14.9182 14.3747L15.9394 13.3535C16.5251 12.7678 17.4749 12.7678 18.0607 13.3535L20.7088 16.0017C21.2602 16.553 21.2602 17.447 20.7088 17.9983C18.6076 20.0995 15.2812 20.3359 12.904 18.553L11.3286 17.3714C9.54715 16.0353 7.96466 14.4529 6.62858 12.6714L5.44702 11.096C3.66412 8.7188 3.90052 5.39237 6.00169 3.2912Z"></path>
  </symbol>
    <symbol xmlns="http://www.w3.org/2000/svg" viewBox="0 0 448 512" id="check">
    <path d="M438.6 105.4c12.5 12.5 12.5 32.8 0 45.3l-256 256c-12.5 12.5-32.8 12.5-45.3 0l-128-128c-12.5-12.5-12.5-32.8 0-45.3s32.8-12.5 45.3 0L160 338.7 393.4 105.4c12.5-12.5 32.8-12.5 45.3 0z"></path>
  </symbol>
</svg>