<svg width="0" height="0" class="hidden">
  <symbol xmlns="http://www.w3.org/2000/svg" viewBox="0 0 39 38" id="people">
    <path d="M13.5616 13.8848C14.9252 17.0749 19.0708 18.6534 22.198 17.1119C26.3785 15.4115 27.3319 9.27407 23.9436 6.38583C18.7751 1.56804 10.6231 7.41933 13.5616 13.8848Z" ></path>
    <path d="M26.6155 20.3919C25.3055 19.5594 23.7103 19.1115 22.0923 19.0958C21.9 19.0905 16.4271 19.079 16.4316 19.1222C11.9485 19.3293 8.30988 23.1165 8.31097 27.6926C8.38704 28.4503 8.18744 30.7526 8.43009 31.4619C8.90606 33.4987 10.7445 35.0329 12.9399 35.0329H26.0601C28.6352 35.0438 30.7143 32.8934 30.6891 30.4038V27.6925C30.6767 24.6331 29.0766 21.9007 26.6155 20.3919Z" ></path>
    <path opacity="0.5" d="M4.43057 31.4455H7.41965C7.24898 30.754 7.35492 28.2271 7.32706 27.4778C7.42565 22.8258 10.5235 18.8448 14.879 17.5321C14.4868 17.221 14.1424 16.8057 13.821 16.4343C13.5168 16.3946 13.2391 16.3813 12.9349 16.3813H8.10741C3.63714 16.3813 0 20.0185 0 24.4888V27.015C0 29.4617 1.98385 31.4455 4.43057 31.4455Z" ></path>
    <path opacity="0.5" d="M10.5276 15.3894C11.3608 15.3894 12.1411 15.2307 12.8685 14.9265C12.2638 13.7105 11.9196 12.2849 11.9956 10.853C12.0649 8.51502 13.1482 6.27866 14.8788 4.76919C11.163 0.927355 4.19415 3.77105 4.31152 9.18684C4.31144 12.5988 7.10208 15.3894 10.5276 15.3894Z" ></path>
    <path opacity="0.5" d="M30.7716 16.3977H25.9442C24.9941 16.1951 24.6401 17.0288 24 17.5486C25.7723 18.0774 27.3462 19.0561 28.5893 20.3654C30.3748 22.2171 31.499 24.73 31.552 27.4942C31.525 28.2527 31.6277 30.7458 31.4594 31.4618C31.4594 31.4619 34.4484 31.4619 34.4484 31.4619C36.8952 31.4619 38.879 29.478 38.879 27.0313V24.5051C38.879 20.0348 35.2419 16.3977 30.7716 16.3977Z" ></path>
    <path opacity="0.5" d="M26.3542 8.21101C26.7117 9.12965 26.8849 10.1471 26.8964 11.1736C26.8964 12.5225 26.579 13.8055 26.0103 14.9428C26.7378 15.247 27.518 15.4057 28.3512 15.4057C36.5662 15.1385 36.5634 3.25759 28.3511 3C26.6583 3 25.1242 3.68767 24 4.7855C25.0448 5.69805 25.8648 6.8752 26.3542 8.21101Z" ></path>
  </symbol>
  <symbol xmlns="http://www.w3.org/2000/svg" viewBox="0 0 9 12" id="arrow">
    <path d="M5 1C5 0.723858 4.77614 0.5 4.5 0.5C4.22386 0.5 4 0.723858 4 1H5ZM4.14645 11.3536C4.34171 11.5488 4.65829 11.5488 4.85355 11.3536L8.03553 8.17157C8.2308 7.97631 8.2308 7.65973 8.03553 7.46447C7.84027 7.2692 7.52369 7.2692 7.32843 7.46447L4.5 10.2929L1.67157 7.46447C1.47631 7.2692 1.15973 7.2692 0.964466 7.46447C0.769204 7.65973 0.769204 7.97631 0.964466 8.17157L4.14645 11.3536ZM4 1L4 11H5L5 1H4Z"></path>
  </symbol>
</svg>