<svg width="135" height="26" viewBox="0 0 135 26" fill="none" xmlns="http://www.w3.org/2000/svg">
<g clip-path="url(#clip0_0_107)">
<path d="M9.93034 4.90109C12.8096 4.90109 15.087 5.99966 15.7299 7.48152V5.43155H20.3907V24.9695H15.7299V22.923C15.087 24.3638 12.8096 25.5034 9.93034 25.5034C4.69845 25.5034 0 21.3316 0 15.2228C0 9.11396 4.69845 4.90109 9.93034 4.90109ZM10.498 20.3802C12.8848 20.3802 14.9707 19.2406 15.576 17.7998V12.6013C14.9707 11.1229 12.8848 10.0209 10.498 10.0209C7.16393 10.0209 4.84891 12.1461 4.84891 15.2194C4.84891 18.2926 7.16051 20.3802 10.498 20.3802Z" fill="#F2F2F2"/>
<path d="M25.8105 5.43155H30.6253V15.9757C30.6253 18.7854 32.4068 20.3768 34.7561 20.3768C36.8044 20.3768 38.7364 19.1242 39.0784 17.4165V5.43155H43.8931V24.9695H39.2288V22.9983C38.6988 24.4391 36.842 25.5034 34.038 25.5034C30.02 25.5034 25.814 22.8477 25.814 16.7799V5.43155H25.8105Z" fill="#F2F2F2"/>
<path d="M62.3143 23.2242C61.4047 24.5144 59.6608 25.5 57.462 25.5C53.1397 25.5 51.0572 23.0359 51.0572 18.8231V10.5513H47.7197V8.9976L54.4289 0.5H55.9061V5.43155H62.0852V10.5513H55.8685V17.7587C55.8685 19.6923 57.0072 20.3768 58.2929 20.3768C59.5787 20.3768 60.4165 19.884 61.2885 18.8984L62.3109 23.2242H62.3143Z" fill="#F2F2F2"/>
<path d="M75.8456 25.5C70.3127 25.5 65.5356 21.1365 65.5356 15.2194C65.5356 9.30219 70.3127 4.90109 75.8456 4.90109C81.3784 4.90109 86.1555 9.30219 86.1555 15.2194C86.1555 21.1365 81.3818 25.5 75.8456 25.5ZM75.8456 20.3802C78.8787 20.3802 81.3031 18.2926 81.3031 15.2194C81.3031 12.1461 78.8787 10.0209 75.8456 10.0209C72.8124 10.0209 70.388 12.1461 70.388 15.2194C70.388 18.2926 72.8124 20.3802 75.8456 20.3802Z" fill="#F2F2F2"/>
<path d="M92.5601 18.8983C94.4169 18.8983 95.8565 20.3391 95.8565 22.1975C95.8565 24.0558 94.4169 25.4966 92.5601 25.4966C90.7033 25.4966 89.2637 24.0558 89.2637 22.1975C89.2637 20.3391 90.7033 18.8983 92.5601 18.8983Z" fill="#F2F2F2"/>
<path d="M112.499 10.8183C111.932 10.4384 111.022 10.0209 109.921 10.0209C107.685 10.0209 106.245 11.424 105.865 13.207V24.9661H101.051V5.43155H105.712V8.01198C106.279 6.1913 107.835 4.90109 110.034 4.90109C111.474 4.90109 112.687 5.58213 113.18 6.37953L112.496 10.8183H112.499Z" fill="#F2F2F2"/>
<path d="M116.476 5.43155H121.291V15.9757C121.291 18.7854 123.072 20.3768 125.422 20.3768C127.47 20.3768 129.402 19.1242 129.744 17.4165V5.43155H134.559V24.9695H129.894V22.9983C129.364 24.4391 127.508 25.5034 124.7 25.5034C120.682 25.5034 116.476 22.8477 116.476 16.7799V5.43155Z" fill="#F2F2F2"/>
</g>
<defs>
<clipPath id="clip0_0_107">
<rect width="134.559" height="25" fill="white" transform="translate(0 0.5)"/>
</clipPath>
</defs>
</svg>
