<svg width="51" height="50" viewBox="0 0 51 50" fill="none" xmlns="http://www.w3.org/2000/svg">
<path fill-rule="evenodd" clip-rule="evenodd" d="M50.7068 25C50.7068 38.8071 39.5689 50 25.8297 50C12.0905 50 0.952637 38.8071 0.952637 25C0.952637 11.1929 12.0905 0 25.8297 0C39.5689 0 50.7068 11.1929 50.7068 25ZM26.7209 18.4559C24.3012 19.4673 19.4653 21.5606 12.2131 24.7359C11.0355 25.2065 10.4186 25.6669 10.3624 26.1171C10.2675 26.8779 11.2156 27.1775 12.5066 27.5855C12.6822 27.641 12.8642 27.6985 13.0507 27.7594C14.3209 28.1743 16.0295 28.6598 16.9178 28.679C17.7235 28.6965 18.6228 28.3627 19.6156 27.6776C26.3915 23.0811 29.8893 20.7578 30.1089 20.7077C30.2638 20.6723 30.4785 20.6279 30.624 20.7578C30.7694 20.8878 30.7551 21.1338 30.7397 21.1998C30.6458 21.6022 26.9242 25.0792 24.9983 26.8785C24.3979 27.4395 23.9721 27.8374 23.885 27.9282C23.69 28.1318 23.4912 28.3243 23.3002 28.5094C22.1202 29.6526 21.2352 30.5099 23.3492 31.9098C24.365 32.5825 25.1779 33.1389 25.9889 33.6938C26.8746 34.3 27.758 34.9045 28.9009 35.6575C29.1921 35.8493 29.4702 36.0485 29.7411 36.2426C30.7718 36.981 31.6978 37.6444 32.8418 37.5386C33.5066 37.4772 34.1932 36.849 34.5419 34.9756C35.3661 30.548 36.986 20.9549 37.3604 17.0018C37.3932 16.6555 37.3519 16.2123 37.3188 16.0177C37.2856 15.8231 37.2164 15.5459 36.9647 15.3406C36.6667 15.0976 36.2065 15.0463 36.0007 15.05C35.0651 15.0666 33.6295 15.5682 26.7209 18.4559Z" fill="#F2F2F2"/>
</svg>
