<!-- Generated by IcoMoon.io -->
<svg version="1.1" xmlns="http://www.w3.org/2000/svg" width="1024" height="1024" viewBox="0 0 1024 1024">
<title></title>
<g id="icomoon-ignore">
</g>
<path fill="#000" d="M384 896h256c0 0 6.4 128-128 128s-128-128-128-128z"></path>
<path fill="#000" d="M812.8 729.6c-32-12.8-44.8-44.8-44.8-76.8v-332.8c0 0-12.8-153.6-192-185.6v-70.4c0 0 6.4-64-64-64s-64 64-64 64v70.4c-179.2 32-192 185.6-192 185.6v332.8c0 32-19.2 64-44.8 76.8l-83.2 38.4v64h768v-64l-83.2-38.4zM384 307.2v460.8h-128c51.2 0 64-64 64-64v-384c0 0 0-51.2 44.8-89.6 44.8-44.8 83.2-38.4 83.2-38.4s-64 44.8-64 115.2z"></path>
</svg>
