<svg xmlns="http://www.w3.org/2000/svg" width="1024" height="1024"><path d="M493.304 1.751c-19.737 4.164-34.302 16.117-41.371 33.954-3.481 8.784-3.824 12.98-4.425 54.183l-.651 44.661-13.082 2.893c-88.322 19.532-152.249 78.714-173.54 160.66L256 314.4l-.025 173.467c-.028 188.525.164 184.429-9.549 203.792-6.343 12.647-15.145 23.771-24.332 30.753-4.349 3.306-27.107 14.849-50.574 25.651l-42.667 19.641-.463 32.574-.464 32.575h768.148l-.464-32.567-.463-32.568-46.795-21.581c-53.046-24.464-60.86-29.891-70.082-48.671-10.385-21.149-10.208-17.537-10.24-208.746L768 314.4l-4.235-16.298c-21.291-81.946-85.218-141.128-173.54-160.66l-13.082-2.893-.651-44.661c-.613-42.008-.89-45.264-4.656-54.8-5.363-13.577-16.72-24.86-30.07-29.873C530.232.883 505.72-.869 493.304 1.751M436.579 201.48c-19.27 17.324-34.413 38.363-43.229 60.059-9.648 23.744-9.35 15.104-9.35 270.869V768l-59.307-.105c-55.798-.099-58.84-.261-51.419-2.739 17.307-5.778 34.243-24.481 42.788-47.253l3.937-10.49.854-203.946.854-203.947 6.024-15.419c8.043-20.585 19.258-36.98 36.251-52.997 23.375-22.032 45.203-34.499 66.69-38.089 18.29-3.056 18.456-2.817 5.907 8.465m-52.042 707.747c1.411 17.903 6.734 37.69 14.318 53.234 8.63 17.684 28.797 38.101 46.353 46.927 21.681 10.899 34.513 13.491 66.792 13.491 32.258 0 45.073-2.585 66.792-13.474 17.402-8.724 37.536-29.139 46.299-46.944 7.618-15.48 12.954-35.243 14.372-53.234L640.506 896H383.494l1.043 13.227" fill-rule="evenodd"/></svg>