<svg height="32" style="shape-rendering:geometricPrecision;text-rendering:geometricPrecision;image-rendering:optimizeQuality;fill-rule:evenodd;clip-rule:evenodd" viewBox="0 0 846.66 846.66" width="32" xml:space="preserve" xmlns="http://www.w3.org/2000/svg"><path d="M6.848 2.743a.882.882 0 0 0-.294.251c-.126.177-.128.197-.144 1.633L6.394 6.08h-1.13c-1.152.001-1.608.044-2.054.195C1.832 6.741.84 7.808.466 9.227l-.119.453V25.733l.119.454c.379 1.438 1.337 2.469 2.761 2.97l.426.15h24.64l.388-.123c1.44-.455 2.468-1.535 2.853-2.997l.119-.454V9.68l-.12-.453c-.378-1.421-1.369-2.488-2.743-2.952-.446-.151-.902-.194-2.057-.195H25.6V4.705c0-1.321-.005-1.385-.12-1.614-.214-.425-.212-.424-2.429-.424-2.091 0-2.083-.001-2.358.292l-.133.143-.016 1.489-.015 1.489h-9.058l-.015-1.489-.016-1.489-.133-.143c-.275-.294-.267-.293-2.358-.29-1.505.001-1.973.018-2.101.074M9.92 6.16v1.947H8V4.213h1.92V6.16m14.08 0v1.947h-1.92V4.213H24V6.16M6.409 8.396c.019.837.047.922.385 1.174.141.106.224.111 2.064.125 1.81.015 1.931.01 2.155-.089.398-.176.453-.325.453-1.219l.001-.76h9.066l.001.76c0 .894.055 1.043.453 1.219.224.099.345.104 2.155.089 1.84-.014 1.923-.019 2.064-.125.338-.252.366-.337.385-1.174l.017-.769h.996c.548 0 1.152.025 1.343.055.713.112 1.471.644 1.803 1.267.349.655.33.151.33 8.74 0 5.575-.017 7.88-.06 8.082-.14.661-.674 1.372-1.266 1.688-.66.351.261.328-12.754.328-13.015 0-12.094.023-12.754-.328-.592-.316-1.126-1.027-1.266-1.688-.043-.201-.06-2.109-.06-6.547V12.96h11.693c11.504 0 11.696-.002 11.864-.105.468-.285.444-1.085-.04-1.344-.175-.094-.652-.098-11.85-.098H1.92v-.762c0-.86.068-1.21.33-1.702.32-.601 1.089-1.155 1.75-1.262.161-.026.766-.051 1.343-.054l1.049-.006.017.769m-1.716 7.472v1.094l1.08-.014 1.08-.015.015-1.08.014-1.08H4.693v1.095m5.44 0v1.094l1.08-.014 1.08-.015.015-1.08.014-1.08h-2.189v1.095m5.44 0v1.094l1.08-.014 1.08-.015.015-1.08.014-1.08h-2.189v1.095m5.453-.015.014 1.08 1.08.015 1.08.014v-2.189h-2.189l.015 1.08M4.693 19.387v1.093H6.88V18.293H4.693v1.094m5.44 0v1.093H12.32V18.293H10.133v1.094m5.44 0v1.093H17.76V18.293H15.573v1.094m5.44 0v1.093H23.2V18.293H21.013v1.094m-16.32 3.519V24h2.189l-.014-1.08-.015-1.08-1.08-.014-1.08-.015v1.095m5.44.001V24H12.32V21.813H10.133v1.094m5.44 0V24H17.76V21.813H15.573v1.094m5.44 0V24H23.2V21.813H21.013v1.094"/></svg>