<!-- Generated by IcoMoon.io -->
<svg version="1.1" xmlns="http://www.w3.org/2000/svg" width="1024" height="1024" viewBox="0 0 1024 1024">
<title></title>
<g id="icomoon-ignore">
</g>
<path fill="#000" d="M101.693 512.001c0 224.651 182.115 406.765 406.765 406.765 112.338 0 213.959-45.472 287.628-119.137 19.855-19.861 52.046-19.861 71.906 0 19.855 19.855 19.855 52.046 0 71.906-91.959 91.954-219.144 148.921-359.534 148.921-280.814 0-508.457-227.646-508.457-508.457 0-280.814 227.643-508.457 508.457-508.457 28.082 0 50.846 22.765 50.846 50.846s-22.764 50.846-50.846 50.846c-224.649 0-406.765 182.115-406.765 406.765zM559.303 206.927v284.013l137.644 137.644c19.855 19.855 19.855 52.051 0 71.906s-52.051 19.855-71.906 0l-152.537-152.537c-9.534-9.534-14.893-22.468-14.893-35.953v-305.074c0-28.081 22.764-50.846 50.846-50.846s50.846 22.765 50.846 50.846zM1004.115 673.049c10.85-33.386-7.423-69.237-40.804-80.087-33.386-10.845-69.242 7.423-80.087 40.808-10.845 33.381 7.423 69.237 40.804 80.087 33.386 10.845 69.242-7.423 80.087-40.808zM970.375 503.19c-34.667 5.492-67.223-18.162-72.715-52.829-5.492-34.671 18.162-67.228 52.834-72.72 34.667-5.492 67.223 18.162 72.715 52.834 5.492 34.667-18.162 67.223-52.834 72.715zM930.090 205.668c-20.628-28.398-60.38-34.692-88.776-14.061s-34.691 60.378-14.059 88.776c20.633 28.398 60.38 34.692 88.776 14.061s34.691-60.378 14.059-88.776zM772.839 133.122c-15.935 31.276-54.206 43.711-85.481 27.776-31.281-15.936-43.712-54.208-27.777-85.484s54.206-43.711 85.481-27.776c31.275 15.936 43.712 54.209 27.777 85.484z"></path>
</svg>
