<svg style="enable-background:new 0 0 60 60" viewBox="0 0 60 60" xml:space="preserve" xmlns="http://www.w3.org/2000/svg"><path d="M0 28v24h2v4h10v-4h36v4h10v-4h2V4H0v24M58 9v3h-1.98l-.035-1.342c-.034-1.304-.043-1.353-.335-1.766-.165-.233-.48-.518-.7-.633l-.4-.209H5.45l-.4.209c-.22.115-.535.4-.7.634l-.3.424V46.65l.237.382c.131.21.42.502.643.65l.405.268h49.33l.405-.268c.223-.148.512-.44.643-.65.212-.342.241-.521.272-1.707L56.02 44H58v6H2V6h56v3m-4 2v1h-4v6h4v20h-4v6h4v2H6V10h48v1m4 4v1h-6v-2h6v1m-38.489 1.14c-.466.258-.504.464-.507 2.769L19 21.068l-.575.126c-.578.127-2.002.748-2.375 1.037-.19.147-.275.08-1.75-1.375-1.123-1.109-1.638-1.549-1.869-1.6-.792-.173-1.472.699-1.097 1.407.084.158.805.936 1.603 1.73l1.451 1.443-.2.281c-.327.459-.857 1.691-.993 2.308l-.127.575h-2.139c-2.327 0-2.583.05-2.81.547-.157.345-.15.602.024.938.242.469.49.515 2.796.515h2.129l.127.575c.136.617.666 1.849.993 2.308l.2.281-1.451 1.443c-.798.794-1.519 1.572-1.603 1.73-.281.532.034 1.224.643 1.409.467.142.86-.131 2.367-1.64l1.492-1.494.281.2c.459.327 1.691.857 2.308.993l.575.127v2.139c0 1.656.032 2.201.143 2.414.344.666 1.37.666 1.714 0 .111-.213.143-.758.143-2.414v-2.139l.575-.127c.617-.136 1.849-.666 2.308-.993l.281-.2 1.492 1.494c1.507 1.509 1.9 1.782 2.367 1.64.609-.185.924-.877.643-1.409-.084-.158-.805-.936-1.603-1.73l-1.451-1.443.2-.281c.327-.459.857-1.691.993-2.308l.127-.575h2.139c2.327 0 2.583-.05 2.81-.547.157-.345.15-.602-.024-.938-.242-.469-.49-.515-2.796-.515h-2.129l-.127-.575c-.136-.617-.666-1.849-.993-2.308l-.2-.281 1.497-1.493c1.628-1.624 1.839-1.959 1.578-2.5-.075-.155-.283-.368-.46-.471-.585-.34-.817-.204-2.527 1.484-1.473 1.453-1.56 1.522-1.75 1.376-.386-.296-1.579-.823-2.261-.999L21 21.056v-2.123c0-1.434-.039-2.209-.119-2.386-.219-.48-.882-.678-1.37-.407M58 28v10h-2V18h2v10m-23-6v3h14v-6H35v3m12 0v1H37v-2h10v1m-25.346 1.309c1.467.547 2.474 1.551 3.049 3.041.19.491.232.791.232 1.65 0 .859-.042 1.159-.232 1.65-1.358 3.516-5.609 4.479-8.206 1.859-1.171-1.18-1.663-2.67-1.414-4.274.307-1.974 1.877-3.665 3.812-4.105.77-.175 2.027-.094 2.759.179m-2.143 3.831c-.867.48-.504 1.86.489 1.86.507 0 1-.489 1-.99 0-.751-.83-1.236-1.489-.87m17 1c-.374.207-.504.547-.507 1.33-.005.835.125 1.188.511 1.387.517.268 1.144.083 1.366-.404.065-.144.119-.573.119-.953 0-.808-.134-1.161-.515-1.357-.339-.176-.661-.177-.974-.003m5 0c-.374.207-.504.547-.507 1.33-.005.835.125 1.188.511 1.387.517.268 1.144.083 1.366-.404.065-.144.119-.573.119-.953 0-.808-.134-1.161-.515-1.357-.339-.176-.661-.177-.974-.003m5 0c-.374.207-.504.547-.507 1.33-.005.835.125 1.188.511 1.387.517.268 1.144.083 1.366-.404.065-.144.119-.573.119-.953 0-.808-.134-1.161-.515-1.357-.339-.176-.661-.177-.974-.003m-10 4c-.374.207-.504.547-.507 1.33-.005.835.125 1.188.511 1.387.517.268 1.144.083 1.366-.404.065-.144.119-.573.119-.953 0-.808-.134-1.161-.515-1.357-.339-.176-.661-.177-.974-.003m5 0c-.374.207-.504.547-.507 1.33-.005.835.125 1.188.511 1.387.517.268 1.144.083 1.366-.404.065-.144.119-.573.119-.953 0-.808-.134-1.161-.515-1.357-.339-.176-.661-.177-.974-.003m5 0c-.374.207-.504.547-.507 1.33-.005.835.125 1.188.511 1.387.517.268 1.144.083 1.366-.404.065-.144.119-.573.119-.953 0-.808-.134-1.161-.515-1.357-.339-.176-.661-.177-.974-.003m-10 4c-.374.207-.504.547-.507 1.33-.005.835.125 1.188.511 1.387.517.268 1.144.083 1.366-.404.065-.144.119-.573.119-.953 0-.808-.134-1.161-.515-1.357-.339-.176-.661-.177-.974-.003m5 0c-.374.207-.504.547-.507 1.33-.005.835.125 1.188.511 1.387.517.268 1.144.083 1.366-.404.065-.144.119-.573.119-.953 0-.808-.134-1.161-.515-1.357-.339-.176-.661-.177-.974-.003m5 0c-.374.207-.504.547-.507 1.33-.005.835.125 1.188.511 1.387.517.268 1.144.083 1.366-.404.065-.144.119-.573.119-.953 0-.808-.134-1.161-.515-1.357-.339-.176-.661-.177-.974-.003M58 41v1h-6v-2h6v1M10 53v1H4v-2h6v1m46 0v1h-6v-2h6v1" fill-rule="evenodd"/></svg>