<?xml version="1.0" encoding="utf-8"?><!DOCTYPE svg  PUBLIC '-//W3C//DTD SVG 1.1//EN'  'http://www.w3.org/Graphics/SVG/1.1/DTD/svg11.dtd'><svg viewBox="0 0 1235 1024" xmlns="http://www.w3.org/2000/svg" xmlns:xlink="http://www.w3.org/1999/xlink"><style>:root>svg{display:none}:root>svg:target{display:block}</style><svg viewBox="0 0 512 512" id="arrow-double" xmlns="http://www.w3.org/2000/svg"><!--!Font Awesome Free 6.5.1 by @fontawesome - https://fontawesome.com License - https://fontawesome.com/license/free Copyright 2024 Fonticons, Inc.--><path d="M41.4 233.4c-12.5 12.5-12.5 32.8 0 45.3l160 160c12.5 12.5 32.8 12.5 45.3 0s12.5-32.8 0-45.3L109.3 256l137.3-137.4c12.5-12.5 12.5-32.8 0-45.3s-32.8-12.5-45.3 0l-160 160zm352-160l-160 160c-12.5 12.5-12.5 32.8 0 45.3l160 160c12.5 12.5 32.8 12.5 45.3 0s12.5-32.8 0-45.3L301.3 256l137.3-137.4c12.5-12.5 12.5-32.8 0-45.3s-32.8-12.5-45.3 0z"/></svg><svg viewBox="0 0 1024 1024" id="bell" xmlns="http://www.w3.org/2000/svg"><path d="M384 896h256s6.4 128-128 128-128-128-128-128zM812.8 729.6c-32-12.8-44.8-44.8-44.8-76.8V320s-12.8-153.6-192-185.6V64s6.4-64-64-64-64 64-64 64v70.4C268.8 166.4 256 320 256 320v332.8c0 32-19.2 64-44.8 76.8L128 768v64h768v-64l-83.2-38.4zM384 307.2V768H256c51.2 0 64-64 64-64V320s0-51.2 44.8-89.6C409.6 185.6 448 192 448 192s-64 44.8-64 115.2z"/></svg><svg viewBox="0 0 846.66 846.66" shape-rendering="geometricPrecision" text-rendering="geometricPrecision" image-rendering="optimizeQuality" fill-rule="evenodd" clip-rule="evenodd" id="calendar" xmlns="http://www.w3.org/2000/svg"><defs><style>.cfil0{fill:#000;fill-rule:nonzero}</style></defs><path class="cfil0" d="M303.84 160.66h238.98V90.92c0-11.44 9.28-20.71 20.71-20.71h92.72c11.43 0 20.7 9.27 20.7 20.71v69.74h51.66c59.94 0 108.9 48.96 108.9 108.9v397.99c0 59.94-48.96 108.9-108.9 108.9H118.05c-59.94 0-108.9-48.96-108.9-108.9V269.56c0-59.94 48.96-108.9 108.9-108.9h51.66V90.92c0-11.44 9.27-20.71 20.71-20.71h92.71c11.44 0 20.71 9.27 20.71 20.71v69.74zM123.69 390.52h57.67v57.67h-57.67v-57.67zm0 187.12h57.67v57.66h-57.67v-57.66zm432.47 0h57.67v57.66h-57.67v-57.66zm-144.16 0h57.67v57.66H412v-57.66zm-144.15 0h57.66v57.66h-57.66v-57.66zm-144.16-93.56h57.67v57.67h-57.67v-57.67zm432.47 0h57.67v57.67h-57.67v-57.67zm-144.16 0h57.67v57.67H412v-57.67zm-144.15 0h57.66v57.67h-57.66v-57.67zm288.31-93.56h57.67v57.67h-57.67v-57.67zm-144.16 0h57.67v57.67H412v-57.67zm-144.15 0h57.66v57.67h-57.66v-57.67zM50.57 301.98h612.45c27.24 0 27.24 41.42 0 41.42H50.57v324.15c0 37.07 30.41 67.48 67.48 67.48h610.56c37.07 0 67.48-30.41 67.48-67.48V269.56c0-37.07-30.41-67.48-67.48-67.48h-51.66v33.56c0 11.43-9.27 20.71-20.7 20.71h-92.72c-11.43 0-20.71-9.28-20.71-20.71v-33.56H303.84v33.56c0 11.43-9.27 20.71-20.71 20.71h-92.71c-11.44 0-20.71-9.28-20.71-20.71v-33.56h-51.66c-37.07 0-67.48 30.41-67.48 67.48v32.42zm211.85-190.35h-51.29v103.3h51.29v-103.3zm373.12 0h-51.3v103.3h51.3v-103.3z" id="cLayer_x0020_1"/></svg><svg viewBox="0 0 485.213 485.212" id="calendar-clock" xmlns="http://www.w3.org/2000/svg"><path d="M69.099 2.008c-2.32 1.165-4.849 3.262-6.021 4.994l-2.022 2.986-.235 34.238c-.222 32.307-.148 34.436 1.319 37.752.855 1.933 2.787 4.455 4.295 5.604 2.633 2.009 8.795 3.968 10.692 3.399.501-.15 1.906-.49 3.12-.756 2.743-.601 7.529-4.724 9.357-8.061 1.213-2.215 1.402-6.188 1.62-33.952.16-20.508-.059-32.867-.632-35.539-1.11-5.173-4.145-9.186-8.416-11.126-4.532-2.058-8.325-1.924-13.077.461m242.607 0c-2.32 1.165-4.849 3.262-6.022 4.994l-2.022 2.986-.235 34.238c-.222 32.307-.147 34.436 1.319 37.752.855 1.933 2.788 4.455 4.295 5.604 2.634 2.009 8.796 3.968 10.693 3.399.501-.15 1.905-.49 3.12-.756 2.742-.601 7.528-4.724 9.356-8.061 1.213-2.215 1.403-6.188 1.62-33.952.161-20.508-.059-32.867-.632-35.539-1.109-5.173-4.145-9.186-8.416-11.126-4.531-2.058-8.325-1.924-13.076.461M24.28 61.948C16.389 64.069 8.627 70.042 4.396 77.25c-4.634 7.895-4.433.63-4.203 152.068l.211 139.04 1.879 4.651c3.838 9.505 12.927 17.756 22.181 20.135 3.44.885 21.63 1.092 96.031 1.092h91.786l.22-15.16.22-15.159-90.793-.206-90.793-.206-.206-105.736-.205-105.736H363.91v60.688l15.163-.22 15.163-.22.22-58.63c.142-38.009-.079-60.584-.629-64.186-1.753-11.467-8.756-20.904-19.11-25.749-4.952-2.317-6.269-2.56-15.711-2.901l-10.305-.372-.285 11.628c-.258 10.518-.486 12.053-2.391 16.076-3.121 6.592-8.023 11.645-14.286 14.729-5.015 2.469-5.976 2.658-13.503 2.658-7.231 0-8.599-.244-12.696-2.255-6.096-2.994-12.897-10.355-15.26-16.519-1.411-3.68-1.88-6.965-2.196-15.393l-.402-10.715H106.09l-.283 11.523c-.256 10.408-.487 11.955-2.389 15.972-3.121 6.592-8.022 11.645-14.286 14.729-5.015 2.469-5.975 2.658-13.503 2.658-7.23 0-8.598-.244-12.695-2.255-6.096-2.994-12.897-10.355-15.261-16.519-1.411-3.68-1.88-6.965-2.196-15.393l-.401-10.715-8.184.053c-4.501.029-10.176.589-12.612 1.243m36.372 150.333v30.326h60.651v-60.652H60.652v30.326m90.573 0v30.326h61.46v-60.652h-61.46v30.326m91.382 0v30.326h60.651v-60.652h-60.651v30.326m105.129 31.489c-14.496 2.1-25.619 5.545-38.008 11.773-33.604 16.889-56.462 46.734-64.878 84.706-2.535 11.439-2.535 35.883 0 47.322 10.91 49.224 46.978 85.293 95.219 95.219 11.236 2.312 36.446 2.312 47.681 0 48.208-9.919 84.352-46.053 95.181-95.153 2.544-11.533 2.544-35.921 0-47.455-11.034-50.029-48.8-86.885-97.984-95.622-9.868-1.753-27.919-2.136-37.211-.79M60.652 303.662v30.326h60.651v-60.651H60.652v30.325m90.765-.202l.212 30.124h60.652l.212-30.124.212-30.123h-61.5l.212 30.123m228.763-28.936c36.504 6.393 66.723 36.611 73.116 73.116 2.436 13.91 1.147 32.484-3.121 44.978-8.503 24.89-28.188 45.954-51.773 55.398-22.635 9.063-46.35 9.063-68.984 0-27.903-11.173-49.685-38.091-54.894-67.836-1.521-8.682-1.521-23.858 0-32.54 6.349-36.257 36.446-66.533 72.674-73.106 7.96-1.444 24.764-1.45 32.982-.01m-37.794 30.281c-4.271 1.94-7.307 5.953-8.416 11.126-.573 2.672-.793 15.031-.632 35.54.264 33.707.18 33.017 4.59 37.782 4.672 5.048 4.025 4.959 38.379 5.229 35.954.281 38.562.007 43.347-4.556 7.906-7.541 5.689-19.931-4.386-24.508-2.899-1.317-5.779-1.475-27.3-1.49l-24.058-.018-.005-23.654c-.002-13.028-.362-24.942-.801-26.521-1.479-5.326-8.768-10.499-14.736-10.459-1.459.01-4.152.698-5.982 1.529" fill-rule="evenodd"/></svg><svg viewBox="0 0 448 512" id="check" xmlns="http://www.w3.org/2000/svg"><!--!Font Awesome Free 6.5.1 by @fontawesome - https://fontawesome.com License - https://fontawesome.com/license/free Copyright 2024 Fonticons, Inc.--><path d="M438.6 105.4c12.5 12.5 12.5 32.8 0 45.3l-256 256c-12.5 12.5-32.8 12.5-45.3 0l-128-128c-12.5-12.5-12.5-32.8 0-45.3s32.8-12.5 45.3 0L160 338.7l233.4-233.3c12.5-12.5 32.8-12.5 45.3 0z"/></svg><svg viewBox="0 0 512 512" id="circle-check" xmlns="http://www.w3.org/2000/svg"><!--!Font Awesome Free 6.5.1 by @fontawesome - https://fontawesome.com License - https://fontawesome.com/license/free Copyright 2024 Fonticons, Inc.--><path d="M256 48a208 208 0 110 416 208 208 0 110-416zm0 464a256 256 0 100-512 256 256 0 100 512zm113-303c9.4-9.4 9.4-24.6 0-33.9s-24.6-9.4-33.9 0l-111 111-47-47c-9.4-9.4-24.6-9.4-33.9 0s-9.4 24.6 0 33.9l64 64c9.4 9.4 24.6 9.4 33.9 0L369 209z"/></svg><svg viewBox="0 0 1024 1024" id="clock" xmlns="http://www.w3.org/2000/svg"><path d="M101.693 512.001c0 224.651 182.115 406.765 406.765 406.765 112.338 0 213.959-45.472 287.628-119.137 19.855-19.861 52.046-19.861 71.906 0 19.855 19.855 19.855 52.046 0 71.906-91.959 91.954-219.144 148.921-359.534 148.921C227.644 1020.456.001 792.81.001 511.999.001 231.185 227.644 3.542 508.458 3.542c28.082 0 50.846 22.765 50.846 50.846s-22.764 50.846-50.846 50.846c-224.649 0-406.765 182.115-406.765 406.765zm457.61-305.074V490.94l137.644 137.644c19.855 19.855 19.855 52.051 0 71.906s-52.051 19.855-71.906 0L472.504 547.953A50.85 50.85 0 01457.611 512V206.926c0-28.081 22.764-50.846 50.846-50.846s50.846 22.765 50.846 50.846zm444.812 466.122c10.85-33.386-7.423-69.237-40.804-80.087-33.386-10.845-69.242 7.423-80.087 40.808-10.845 33.381 7.423 69.237 40.804 80.087 33.386 10.845 69.242-7.423 80.087-40.808zm-33.74-169.859c-34.667 5.492-67.223-18.162-72.715-52.829-5.492-34.671 18.162-67.228 52.834-72.72 34.667-5.492 67.223 18.162 72.715 52.834 5.492 34.667-18.162 67.223-52.834 72.715zM930.09 205.668c-20.628-28.398-60.38-34.692-88.776-14.061s-34.691 60.378-14.059 88.776c20.633 28.398 60.38 34.692 88.776 14.061s34.691-60.378 14.059-88.776zm-157.251-72.546c-15.935 31.276-54.206 43.711-85.481 27.776-31.281-15.936-43.712-54.208-27.777-85.484s54.206-43.711 85.481-27.776c31.275 15.936 43.712 54.209 27.777 85.484z"/></svg><svg viewBox="0 0 512 512" id="envelope" xmlns="http://www.w3.org/2000/svg"><!--!Font Awesome Free 6.5.1 by @fontawesome - https://fontawesome.com License - https://fontawesome.com/license/free Copyright 2024 Fonticons, Inc.--><path d="M48 64C21.5 64 0 85.5 0 112c0 15.1 7.1 29.3 19.2 38.4l217.6 163.2c11.4 8.5 27 8.5 38.4 0l217.6-163.2c12.1-9.1 19.2-23.3 19.2-38.4 0-26.5-21.5-48-48-48H48zM0 176v208c0 35.3 28.7 64 64 64h384c35.3 0 64-28.7 64-64V176L294.4 339.2a63.9 63.9 0 01-76.8 0L0 176z"/></svg><svg viewBox="0 0 810 540" id="eu" xmlns="http://www.w3.org/2000/svg"><defs><g id="id"><g id="ib"><path id="ia" d="M0 0v1h.5z" transform="rotate(18 3.157 -.5)"/><use xlink:href="#ia" transform="scale(-1 1)"/></g><g id="ic"><use xlink:href="#ib" transform="rotate(72)"/><use xlink:href="#ib" transform="rotate(144)"/></g><use xlink:href="#ic" transform="scale(-1 1)"/></g></defs><path fill="#039" d="M0 0h810v540H0z"/><g fill="#fc0" transform="matrix(30 0 0 30 405 270)"><use xlink:href="#id" y="-6"/><use xlink:href="#id" y="6"/><g id="ie"><use xlink:href="#id" x="-6"/><use xlink:href="#id" transform="rotate(-144 -2.344 -2.11)"/><use xlink:href="#id" transform="rotate(144 -2.11 -2.344)"/><use xlink:href="#id" transform="rotate(72 -4.663 -2.076)"/><use xlink:href="#id" transform="rotate(72 -5.076 .534)"/></g><use xlink:href="#ie" transform="scale(-1 1)"/></g></svg><svg viewBox="0 0 384 512" id="file" xmlns="http://www.w3.org/2000/svg"><!--!Font Awesome Free 6.5.1 by @fontawesome - https://fontawesome.com License - https://fontawesome.com/license/free Copyright 2024 Fonticons, Inc.--><path d="M64 464c-8.8 0-16-7.2-16-16V64c0-8.8 7.2-16 16-16h160v80c0 17.7 14.3 32 32 32h80v288c0 8.8-7.2 16-16 16H64zM64 0C28.7 0 0 28.7 0 64v384c0 35.3 28.7 64 64 64h256c35.3 0 64-28.7 64-64V154.5c0-17-6.7-33.3-18.7-45.3l-90.6-90.5C262.7 6.7 246.5 0 229.5 0H64zm56 256c-13.3 0-24 10.7-24 24s10.7 24 24 24h144c13.3 0 24-10.7 24-24s-10.7-24-24-24H120zm0 96c-13.3 0-24 10.7-24 24s10.7 24 24 24h144c13.3 0 24-10.7 24-24s-10.7-24-24-24H120z"/></svg><svg viewBox="0 0 512 512" id="fingerprint" xmlns="http://www.w3.org/2000/svg"><!--!Font Awesome Free 6.5.1 by @fontawesome - https://fontawesome.com License - https://fontawesome.com/license/free Copyright 2024 Fonticons, Inc.--><path d="M48 256c0-114.9 93.1-208 208-208 63.1 0 119.6 28.1 157.8 72.5 8.6 10.1 23.8 11.2 33.8 2.6s11.2-23.8 2.6-33.8C403.3 34.6 333.7 0 256 0 114.6 0 0 114.6 0 256v40c0 13.3 10.7 24 24 24s24-10.7 24-24v-40zm458.5-52.9c-2.7-13-15.5-21.3-28.4-18.5s-21.3 15.5-18.5 28.4c2.9 13.9 4.5 28.3 4.5 43.1v40c0 13.3 10.7 24 24 24s24-10.7 24-24V256c0-18.1-1.9-35.8-5.5-52.9zM256 80c-19 0-37.4 3-54.5 8.6-15.2 5-18.7 23.7-8.3 35.9 7.1 8.3 18.8 10.8 29.4 7.9 10.6-2.9 21.8-4.4 33.4-4.4 70.7 0 128 57.3 128 128v24.9c0 25.2-1.5 50.3-4.4 75.3-1.7 14.6 9.4 27.8 24.2 27.8 11.8 0 21.9-8.6 23.3-20.3 3.3-27.4 5-55 5-82.7v-25c0-97.2-78.8-176-176-176zm-105.3 68.7c-9.1-10.6-25.3-11.4-33.9-.4C93.7 178 80 215.4 80 256v24.9c0 24.2-2.6 48.4-7.8 71.9-3.4 15.6 7.9 31.2 23.9 31.2 10.5 0 19.9-7 22.2-17.3 6.4-28.1 9.7-56.8 9.7-85.8V256c0-27.2 8.5-52.4 22.9-73.1 7.2-10.4 8-24.6-.2-34.2zM256 160c-53 0-96 43-96 96v24.9c0 35.9-4.6 71.5-13.8 106.1-3.8 14.3 6.7 29 21.5 29 9.5 0 17.9-6.2 20.4-15.4 10.5-39 15.9-79.2 15.9-119.7V256c0-28.7 23.3-52 52-52s52 23.3 52 52v24.9c0 36.3-3.5 72.4-10.4 107.9-2.7 13.9 7.7 27.2 21.8 27.2 10.2 0 19-7 21-17 7.7-38.8 11.6-78.3 11.6-118.1V256c0-53-43-96-96-96zm24 96c0-13.3-10.7-24-24-24s-24 10.7-24 24v24.9c0 59.9-11 119.3-32.5 175.2l-5.9 15.3c-4.8 12.4 1.4 26.3 13.8 31s26.3-1.4 31-13.8l5.9-15.3A536.19 536.19 0 00280 280.9V256z"/></svg><svg viewBox="0 0 512 512" id="hr" xmlns="http://www.w3.org/2000/svg"><path d="M223.634 15.148c-1.609.821-3.721 2.576-4.693 3.901-1.711 2.333-1.768 3.399-1.768 33.431 0 30.001.058 31.099 1.76 33.378 3.677 4.926 5.596 5.695 15.269 6.126l8.998.4v69.529l-4.351.578c-10.008 1.327-25.394 7.582-35.628 14.483-2.511 1.694-4.818 3.079-5.126 3.079-.933 0-48.762-48.158-48.762-49.099 0-.481 2.333-3.166 5.185-5.967 2.852-2.802 5.732-6.131 6.4-7.398 1.451-2.75 1.582-7.75.272-10.338-1.346-2.658-40.831-42.264-43.601-43.734-2.949-1.566-7.802-1.566-10.751 0-1.268.673-11.644 10.591-23.06 22.041-19.135 19.194-20.791 21.092-21.225 24.325-.259 1.929-.204 4.586.121 5.905.653 2.646 40.155 43.012 44.164 45.128 2.948 1.557 7.801 1.558 10.751.002 1.267-.668 4.596-3.548 7.398-6.4 2.801-2.852 5.491-5.185 5.979-5.185.487 0 11.795 10.915 25.129 24.255l24.244 24.255-3.507 5.399c-6.861 10.563-11.781 22.401-14.162 34.074l-1.113 5.457-34.586.223-34.586.223-.401-9.007c-.431-9.684-1.199-11.601-6.126-15.279-2.278-1.701-3.379-1.76-33.227-1.76H21.76l-2.87 2.047c-5.097 3.635-5.237 4.625-5.235 36.966.001 32.196.119 33.002 5.393 36.873 2.305 1.692 3.637 1.779 31.146 2.025 15.807.142 29.996.027 31.531-.255 1.535-.282 4.082-1.646 5.658-3.03 3.478-3.054 4.777-7.557 4.777-16.56v-6.458l34.699.223 34.698.223 1.113 5.457c2.357 11.553 7.832 24.594 14.619 34.815l3.075 4.632-24.676 24.687-24.676 24.687-5.986-5.87c-3.292-3.229-6.825-6.298-7.85-6.82-2.589-1.317-7.589-1.185-10.338.275-1.268.673-11.713 10.66-23.211 22.193l-20.907 20.97v11.076l21.823 21.823c20.187 20.187 22.087 21.859 25.335 22.294 1.932.26 4.591.205 5.91-.12 2.646-.653 43.012-40.155 45.128-44.164 1.557-2.948 1.558-7.801.002-10.751-.668-1.267-3.548-4.596-6.4-7.398-2.852-2.801-5.185-5.491-5.185-5.979 0-.487 10.921-11.801 24.268-25.142l24.268-24.256 4.632 3.075c10.221 6.787 23.262 12.262 34.815 14.619l5.457 1.113.223 35.125.223 35.125h-8.843c-7.774 0-9.194.235-11.743 1.937-5.779 3.861-5.884 4.518-5.884 36.89 0 31.932.123 32.767 5.394 36.633 2.333 1.712 3.393 1.767 33.857 1.767s31.524-.055 33.857-1.767c5.271-3.866 5.394-4.701 5.394-36.633 0-32.372-.105-33.029-5.884-36.89-2.549-1.702-3.969-1.937-11.743-1.937h-8.843l.223-35.125.223-35.125 5.457-1.113c11.553-2.357 24.594-7.832 34.815-14.619l4.632-3.075 24.268 24.256c13.347 13.341 24.268 24.655 24.268 25.142 0 .488-2.333 3.178-5.185 5.979-2.852 2.802-5.732 6.131-6.4 7.398-1.556 2.95-1.555 7.803.002 10.751 2.116 4.009 42.482 43.511 45.128 44.164 1.319.325 3.978.38 5.91.12 3.248-.435 5.141-2.1 25.183-22.141 20.041-20.042 21.706-21.935 22.141-25.183.26-1.932.205-4.591-.12-5.91-.653-2.646-40.155-43.012-44.164-45.128-2.753-1.454-7.753-1.584-10.338-.269-1.025.522-4.558 3.591-7.85 6.82l-5.986 5.87-24.676-24.687-24.676-24.687 3.075-4.632c6.787-10.221 12.262-23.262 14.619-34.815l1.113-5.457 34.586-.223 34.586-.223.401 9.007c.431 9.684 1.199 11.601 6.126 15.279 2.279 1.702 3.377 1.76 33.378 1.76 30.032 0 31.098-.057 33.431-1.768 5.279-3.872 5.393-4.656 5.393-37.059 0-33.787-.023-33.914-6.824-37.358-3.807-1.927-4.097-1.942-33.432-1.706-28.361.227-29.69.311-31.947 1.997-4.926 3.679-5.694 5.596-6.125 15.279l-.401 9.007-34.586-.223-34.586-.223-1.113-5.457c-2.357-11.553-7.832-24.594-14.619-34.815l-3.075-4.632 24.256-24.268c13.341-13.347 24.655-24.268 25.142-24.268.488 0 3.178 2.333 5.979 5.185 2.802 2.852 6.131 5.732 7.398 6.4 2.95 1.556 7.803 1.555 10.751-.002 4.009-2.116 43.511-42.482 44.164-45.128.325-1.319.38-3.976.121-5.905-.434-3.233-2.09-5.131-21.225-24.325-11.416-11.45-21.792-21.368-23.06-22.041-2.745-1.458-7.744-1.593-10.338-.28-2.658 1.345-42.264 40.831-43.734 43.601-1.563 2.943-1.566 7.796-.008 10.751.668 1.267 3.548 4.596 6.4 7.398 2.852 2.801 5.185 5.491 5.185 5.979 0 .94-47.839 49.087-48.773 49.087-.302 0-2.604-1.385-5.115-3.079-10.234-6.901-25.62-13.156-35.628-14.483l-4.351-.578V92.16h6.449c8.993 0 13.497-1.3 16.55-4.777 1.384-1.576 2.748-4.123 3.03-5.658.282-1.535.397-15.724.255-31.531-.356-39.732 3.061-36.538-39.084-36.538-26.344 0-29.748.157-32.366 1.492m46.019 37.332v14.08h-27.306V38.4h27.306v14.08m-147.4 69.747l-10.014 10.04-10.04-10.014-10.04-10.014 10.014-10.04 10.014-10.04 10.04 10.014 10.04 10.014-10.014 10.04m287.574 0l-10.014 10.04-10.04-10.014-10.04-10.014 10.014-10.04 10.014-10.04 10.04 10.014 10.04 10.014-10.014 10.04m-139.551 65.147c25.686 5.306 46.544 25.028 53.676 50.755 2.137 7.708 2.143 27.98.01 35.791-3.613 13.235-12.597 27.218-23.087 35.934-35.04 29.115-87.996 17.562-107.998-23.561-4.552-9.357-6.025-15.379-6.589-26.93-1.25-25.59 10.219-48.141 31.577-62.083 15.297-9.986 34.473-13.611 52.411-9.906M66.56 256.427v14.08H38.4v-28.16h28.16v14.08m407.04 0v14.08h-28.16v-28.16h28.16v14.08M122.253 409.801l-10.014 10.04-10.04-10.014-10.04-10.014 10.014-10.04 10.014-10.04 10.04 10.014 10.04 10.014-10.014 10.04m287.574 0l-10.014 10.04-10.04-10.014-10.04-10.014 10.014-10.04 10.014-10.04 10.04 10.014 10.04 10.014-10.014 10.04M269.653 459.52v14.08h-27.306v-28.16h27.306v14.08" fill-rule="evenodd"/></svg><svg viewBox="0 0 512 512" id="power-off" xmlns="http://www.w3.org/2000/svg"><!--!Font Awesome Free 6.5.1 by @fontawesome - https://fontawesome.com License - https://fontawesome.com/license/free Copyright 2024 Fonticons, Inc.--><path d="M288 32c0-17.7-14.3-32-32-32s-32 14.3-32 32v224c0 17.7 14.3 32 32 32s32-14.3 32-32V32zm-144.5 88.6c13.6-11.3 15.4-31.5 4.1-45.1s-31.5-15.4-45.1-4.1C49.7 115.4 16 181.8 16 256c0 132.5 107.5 240 240 240s240-107.5 240-240c0-74.2-33.8-140.6-86.6-184.6-13.6-11.3-33.8-9.4-45.1 4.1s-9.4 33.8 4.1 45.1c38.9 32.3 63.5 81 63.5 135.4 0 97.2-78.8 176-176 176s-176-78.8-176-176c0-54.4 24.7-103.1 63.5-135.4z"/></svg><svg viewBox="0 0 60 60" id="safebox" xmlns="http://www.w3.org/2000/svg"><path d="M0 28v24h2v4h10v-4h36v4h10v-4h2V4H0v24M58 9v3h-1.98l-.035-1.342c-.034-1.304-.043-1.353-.335-1.766-.165-.233-.48-.518-.7-.633l-.4-.209H5.45l-.4.209c-.22.115-.535.4-.7.634l-.3.424V46.65l.237.382c.131.21.42.502.643.65l.405.268h49.33l.405-.268c.223-.148.512-.44.643-.65.212-.342.241-.521.272-1.707L56.02 44H58v6H2V6h56v3m-4 2v1h-4v6h4v20h-4v6h4v2H6V10h48v1m4 4v1h-6v-2h6v1m-38.489 1.14c-.466.258-.504.464-.507 2.769L19 21.068l-.575.126c-.578.127-2.002.748-2.375 1.037-.19.147-.275.08-1.75-1.375-1.123-1.109-1.638-1.549-1.869-1.6-.792-.173-1.472.699-1.097 1.407.084.158.805.936 1.603 1.73l1.451 1.443-.2.281c-.327.459-.857 1.691-.993 2.308l-.127.575h-2.139c-2.327 0-2.583.05-2.81.547-.157.345-.15.602.024.938.242.469.49.515 2.796.515h2.129l.127.575c.136.617.666 1.849.993 2.308l.2.281-1.451 1.443c-.798.794-1.519 1.572-1.603 1.73-.281.532.034 1.224.643 1.409.467.142.86-.131 2.367-1.64l1.492-1.494.281.2c.459.327 1.691.857 2.308.993l.575.127v2.139c0 1.656.032 2.201.143 2.414.344.666 1.37.666 1.714 0 .111-.213.143-.758.143-2.414v-2.139l.575-.127c.617-.136 1.849-.666 2.308-.993l.281-.2 1.492 1.494c1.507 1.509 1.9 1.782 2.367 1.64.609-.185.924-.877.643-1.409-.084-.158-.805-.936-1.603-1.73l-1.451-1.443.2-.281c.327-.459.857-1.691.993-2.308l.127-.575h2.139c2.327 0 2.583-.05 2.81-.547.157-.345.15-.602-.024-.938-.242-.469-.49-.515-2.796-.515h-2.129l-.127-.575c-.136-.617-.666-1.849-.993-2.308l-.2-.281 1.497-1.493c1.628-1.624 1.839-1.959 1.578-2.5-.075-.155-.283-.368-.46-.471-.585-.34-.817-.204-2.527 1.484-1.473 1.453-1.56 1.522-1.75 1.376-.386-.296-1.579-.823-2.261-.999L21 21.056v-2.123c0-1.434-.039-2.209-.119-2.386-.219-.48-.882-.678-1.37-.407M58 28v10h-2V18h2v10m-23-6v3h14v-6H35v3m12 0v1H37v-2h10v1m-25.346 1.309c1.467.547 2.474 1.551 3.049 3.041.19.491.232.791.232 1.65 0 .859-.042 1.159-.232 1.65-1.358 3.516-5.609 4.479-8.206 1.859-1.171-1.18-1.663-2.67-1.414-4.274.307-1.974 1.877-3.665 3.812-4.105.77-.175 2.027-.094 2.759.179m-2.143 3.831c-.867.48-.504 1.86.489 1.86.507 0 1-.489 1-.99 0-.751-.83-1.236-1.489-.87m17 1c-.374.207-.504.547-.507 1.33-.005.835.125 1.188.511 1.387.517.268 1.144.083 1.366-.404.065-.144.119-.573.119-.953 0-.808-.134-1.161-.515-1.357-.339-.176-.661-.177-.974-.003m5 0c-.374.207-.504.547-.507 1.33-.005.835.125 1.188.511 1.387.517.268 1.144.083 1.366-.404.065-.144.119-.573.119-.953 0-.808-.134-1.161-.515-1.357-.339-.176-.661-.177-.974-.003m5 0c-.374.207-.504.547-.507 1.33-.005.835.125 1.188.511 1.387.517.268 1.144.083 1.366-.404.065-.144.119-.573.119-.953 0-.808-.134-1.161-.515-1.357-.339-.176-.661-.177-.974-.003m-10 4c-.374.207-.504.547-.507 1.33-.005.835.125 1.188.511 1.387.517.268 1.144.083 1.366-.404.065-.144.119-.573.119-.953 0-.808-.134-1.161-.515-1.357-.339-.176-.661-.177-.974-.003m5 0c-.374.207-.504.547-.507 1.33-.005.835.125 1.188.511 1.387.517.268 1.144.083 1.366-.404.065-.144.119-.573.119-.953 0-.808-.134-1.161-.515-1.357-.339-.176-.661-.177-.974-.003m5 0c-.374.207-.504.547-.507 1.33-.005.835.125 1.188.511 1.387.517.268 1.144.083 1.366-.404.065-.144.119-.573.119-.953 0-.808-.134-1.161-.515-1.357-.339-.176-.661-.177-.974-.003m-10 4c-.374.207-.504.547-.507 1.33-.005.835.125 1.188.511 1.387.517.268 1.144.083 1.366-.404.065-.144.119-.573.119-.953 0-.808-.134-1.161-.515-1.357-.339-.176-.661-.177-.974-.003m5 0c-.374.207-.504.547-.507 1.33-.005.835.125 1.188.511 1.387.517.268 1.144.083 1.366-.404.065-.144.119-.573.119-.953 0-.808-.134-1.161-.515-1.357-.339-.176-.661-.177-.974-.003m5 0c-.374.207-.504.547-.507 1.33-.005.835.125 1.188.511 1.387.517.268 1.144.083 1.366-.404.065-.144.119-.573.119-.953 0-.808-.134-1.161-.515-1.357-.339-.176-.661-.177-.974-.003M58 41v1h-6v-2h6v1M10 53v1H4v-2h6v1m46 0v1h-6v-2h6v1" fill-rule="evenodd"/></svg><svg viewBox="0 0 448 512" id="square-check" xmlns="http://www.w3.org/2000/svg"><!--!Font Awesome Free 6.5.1 by @fontawesome - https://fontawesome.com License - https://fontawesome.com/license/free Copyright 2024 Fonticons, Inc.--><path d="M64 80c-8.8 0-16 7.2-16 16v320c0 8.8 7.2 16 16 16h320c8.8 0 16-7.2 16-16V96c0-8.8-7.2-16-16-16H64zM0 96c0-35.3 28.7-64 64-64h320c35.3 0 64 28.7 64 64v320c0 35.3-28.7 64-64 64H64c-35.3 0-64-28.7-64-64V96zm337 113L209 337c-9.4 9.4-24.6 9.4-33.9 0l-64-64c-9.4-9.4-9.4-24.6 0-33.9s24.6-9.4 33.9 0l47 47L303 175c9.4-9.4 24.6-9.4 33.9 0s9.4 24.6 0 33.9z"/></svg><svg viewBox="0 0 576 512" id="star" xmlns="http://www.w3.org/2000/svg"><!--!Font Awesome Free 6.5.1 by @fontawesome - https://fontawesome.com License - https://fontawesome.com/license/free Copyright 2024 Fonticons, Inc.--><path d="M316.9 18c-5.3-11-16.5-18-28.8-18s-23.4 7-28.8 18L195 150.3 51.4 171.5c-12 1.8-22 10.2-25.7 21.7s-.7 24.2 7.9 32.7L137.8 329l-24.6 145.7c-2 12 3 24.2 12.9 31.3s23 8 33.8 2.3l128.3-68.5 128.3 68.5c10.8 5.7 23.9 4.9 33.8-2.3s14.9-19.3 12.9-31.3L438.5 329l104.2-103.1c8.6-8.5 11.7-21.2 7.9-32.7s-13.7-19.9-25.7-21.7l-143.7-21.2L316.9 18z"/></svg><svg viewBox="0 0 612 612" id="two-cards" xmlns="http://www.w3.org/2000/svg"><path d="M571.456 50.223H192.671c-22.356 0-40.541 18.188-40.541 40.541V246.059L34.006 268.092c-10.929 2.04-20.413 8.212-26.699 17.382-6.289 9.17-8.628 20.243-6.588 31.172l39.383 211.132c3.675 19.701 20.873 34 40.893 34 2.556 0 5.132-.24 7.661-.712l370.227-69.063c10.929-2.037 20.413-8.212 26.699-17.382 6.286-9.17 8.625-20.24 6.588-31.172l-17.757-95.203h97.046c22.356 0 40.541-18.188 40.541-40.541V90.767c-.003-22.359-18.188-40.544-40.544-40.544zM138.039 481.196l-45.597 8.159c-.873.155-1.741.232-2.6.232-6.961 0-13.139-4.982-14.408-12.075-1.424-7.966 3.877-15.58 11.843-17.007l45.597-8.159c7.969-1.421 15.58 3.877 17.007 11.843s-3.874 15.58-11.842 17.007zm11.731-85.976a22.267 22.267 0 01-14.393 9.367L89.728 413.1a22.658 22.658 0 01-4.124.381c-10.794 0-20.064-7.705-22.042-18.323l-5.926-31.772c-2.268-12.157 5.777-23.897 17.936-26.169l45.655-8.517a22.675 22.675 0 014.121-.381c10.794 0 20.067 7.705 22.045 18.32l5.926 31.775a22.28 22.28 0 01-3.549 16.806zm84.872 68.688l-45.597 8.159c-.873.155-1.741.232-2.6.232-6.961 0-13.139-4.982-14.408-12.075-1.424-7.966 3.877-15.58 11.843-17.007l45.597-8.159c7.963-1.416 15.58 3.877 17.007 11.843 1.429 7.965-3.876 15.579-11.842 17.007zm96.601-17.289l-45.597 8.159c-.873.155-1.741.232-2.6.232-6.961 0-13.139-4.982-14.408-12.075-1.424-7.966 3.877-15.58 11.843-17.007l45.597-8.159c7.96-1.424 15.58 3.877 17.007 11.843s-3.876 15.583-11.842 17.007zm96.603-17.288l-45.597 8.159c-.873.155-1.741.232-2.6.232-6.961 0-13.139-4.982-14.408-12.075-1.424-7.966 3.877-15.58 11.843-17.007l45.597-8.159c7.966-1.421 15.58 3.877 17.007 11.843 1.426 7.968-3.876 15.582-11.842 17.007zM582.69 307.707c0 6.196-5.041 11.234-11.234 11.234H193.755c-6.793 0-12.321-5.527-12.321-12.321V200.148H582.69v107.559zm0-205.572H181.434V90.767c0-6.196 5.041-11.234 11.234-11.234h378.785c6.196 0 11.234 5.041 11.234 11.234v11.368h.003z"/></svg><svg viewBox="0 0 7410 3900" id="usa" xmlns="http://www.w3.org/2000/svg"><path fill="#b22234" d="M0 0h7410v3900H0z"/><path d="M0 450h7410m0 600H0m0 600h7410m0 600H0m0 600h7410m0 600H0" stroke="#fff" stroke-width="300"/><path fill="#3c3b6e" d="M0 0h2964v2100H0z"/><g fill="#fff"><g id="rd"><g id="rc"><g id="re"><g id="rb"><path id="ra" d="M247 90l70.534 217.082-184.66-134.164h228.253L176.466 307.082z"/><use xlink:href="#ra" y="420"/><use xlink:href="#ra" y="840"/><use xlink:href="#ra" y="1260"/></g><use xlink:href="#ra" y="1680"/></g><use xlink:href="#rb" x="247" y="210"/></g><use xlink:href="#rc" x="494"/></g><use xlink:href="#rd" x="988"/><use xlink:href="#rc" x="1976"/><use xlink:href="#re" x="2470"/></g></svg><svg viewBox="0 0 12 12" id="user-group" xmlns="http://www.w3.org/2000/svg"><path d="M2.679.031a2.031 2.031 0 00-1.394.945A1.996 1.996 0 102.679.031m.583 1.006c.369.096.663.425.721.808a.96.96 0 01-.282.857A.946.946 0 013 3a.958.958 0 01-.673-.267c-.665-.618-.233-1.731.673-1.731.071 0 .189.016.262.035m4.438.985c-.82.093-1.57.623-1.937 1.37A2.275 2.275 0 005.51 4.5c0 .335.029.522.124.8A2.526 2.526 0 007.52 6.954c.236.05.724.05.96 0a2.516 2.516 0 001.736-1.31A2.24 2.24 0 0010.49 4.5c0-.449-.071-.747-.273-1.143A2.51 2.51 0 008.62 2.081a2.61 2.61 0 00-.92-.059m.73 1.042c.472.138.862.528 1.008 1.006.041.136.048.201.048.43 0 .229-.007.294-.048.43A1.538 1.538 0 018.42 5.943a1.755 1.755 0 01-.84 0A1.538 1.538 0 016.562 4.93c-.041-.136-.048-.201-.048-.43 0-.229.007-.294.048-.43a1.52 1.52 0 011.187-1.05c.167-.03.501-.008.681.044M2.63 5.03a2.735 2.735 0 00-.98.302C.82 5.74.22 6.475.029 7.318c-.041.182-.029.314.041.433a.5.5 0 00.834.039c.032-.046.076-.16.104-.27.094-.363.239-.613.509-.881.797-.787 1.92-.853 2.787-.162.363.288.576.613.688 1.043.057.221.121.326.251.406a.5.5 0 00.75-.362c.021-.176-.096-.575-.267-.906A3.054 3.054 0 004.35 5.332c-.578-.285-1.114-.379-1.72-.302m5.11 2.982a4.643 4.643 0 00-1.09.215 4.07 4.07 0 00-2.075 1.624c-.31.479-.558 1.203-.563 1.641-.002.146.004.17.059.26.198.322.66.326.852.008.039-.064.066-.157.095-.322a2.885 2.885 0 011.296-1.944c.962-.616 2.239-.651 3.221-.089.27.154.411.262.627.475.445.439.712.948.82 1.558.048.274.103.381.244.476a.497.497 0 00.703-.162c.055-.09.061-.114.059-.26-.005-.439-.249-1.149-.561-1.637A4.066 4.066 0 009.35 8.227a4.474 4.474 0 00-.74-.177 6.188 6.188 0 00-.87-.038" fill-rule="evenodd"/></svg><svg viewBox="0 0 32 32" id="wallet" xmlns="http://www.w3.org/2000/svg"><path d="M18.587.104c-.118.056-1.342.928-2.72 1.937L13.36 3.877l-.32-.295c-.682-.628-1.594-1.118-2.578-1.383-.465-.125-.609-.138-1.475-.138-.87 0-1.01.013-1.482.14-2.46.662-4.186 2.685-4.477 5.247l-.062.542-.294.037A3.047 3.047 0 00.15 10.07l-.123.357v19.146l.123.357a3.18 3.18 0 001.891 1.919l.332.124 12.469.014c13.752.016 12.776.039 13.517-.319.451-.218 1.039-.79 1.276-1.241.356-.678.355-.671.379-3.255l.021-2.349.356-.181c.727-.372 1.333-1.157 1.526-1.978.119-.505.119-4.823 0-5.328-.193-.821-.799-1.606-1.526-1.978l-.356-.181-.021-2.349c-.019-2.064-.033-2.383-.116-2.641-.344-1.065-1.227-1.89-2.258-2.109-.228-.048-.684-.076-1.247-.077L25.506 8l-2.83-3.773C21.12 2.151 19.767.379 19.67.287c-.313-.295-.709-.361-1.083-.183m2.192 4.936l2.09 2.787.13.173H11.08l3.833-2.795c2.109-1.537 3.85-2.791 3.871-2.787.02.005.918 1.185 1.995 2.622M10 4.133c.176.046.492.165.703.264.378.178.978.583.976.658-.001.021-.902.692-2.003 1.492L7.675 8H4.998l.033-.389c.147-1.748 1.531-3.237 3.302-3.555.377-.068 1.272-.027 1.667.077m17.455 5.995a.85.85 0 01.463.499c.069.165.082.525.082 2.273v2.076l-1.853.026c-2.012.028-2.195.05-2.986.356-.817.317-1.713 1.016-2.235 1.744-.308.43-.622 1.107-.774 1.671-.177.652-.177 1.802 0 2.454a4.966 4.966 0 001.401 2.373c.669.634 1.341 1.009 2.265 1.262.387.106.579.118 2.302.138l1.88.023-.001 2.088c-.001 1.925-.009 2.106-.101 2.309-.127.28-.393.481-.727.553-.182.038-4.046.051-12.344.041-11.141-.013-12.093-.021-12.24-.103a1.452 1.452 0 01-.5-.507c-.044-.085-.06-2.643-.06-9.403 0-7.89.011-9.308.075-9.43a1.48 1.48 0 01.485-.482c.077-.043 3.536-.06 12.388-.061 11.949-.001 12.288.001 12.48.1M4.613 12.101c-.271.126-.494.362-.561.596-.069.24-.067 2.368.002 2.617.081.291.459.615.772.662a.994.994 0 001.142-.776c.074-.343.074-2.08.001-2.399-.146-.633-.786-.964-1.356-.7m24.826 5.019c.115.058.276.194.358.302l.15.196v4.772l-.162.199c-.33.409-.25.398-2.835.398-1.465 0-2.408-.022-2.587-.059-1.034-.214-1.986-1.124-2.255-2.157-.104-.402-.104-1.14 0-1.542.262-1.005 1.167-1.895 2.173-2.139.202-.049.926-.069 2.614-.072 2.232-.004 2.345 0 2.544.102m-24.879.995c-.247.131-.353.24-.46.472-.086.187-.098.362-.098 1.413 0 1.058.012 1.226.1 1.42.228.502.881.72 1.372.457.165-.088.439-.418.485-.585.053-.189.053-2.395 0-2.584-.056-.202-.349-.523-.556-.609-.23-.096-.645-.088-.843.016m20.32.898c-.029.01-.117.032-.196.049-.338.074-.682.547-.682.938 0 .617.63 1.123 1.205.969.33-.088.482-.199.641-.472.358-.61-.015-1.363-.728-1.473a.81.81 0 00-.24-.011M4.613 24.101c-.271.126-.494.362-.561.596-.069.24-.067 2.368.002 2.617.081.291.459.615.772.662a.994.994 0 001.142-.776c.074-.343.074-2.08.001-2.399-.146-.633-.786-.964-1.356-.7" fill-rule="evenodd"/></svg><svg fill="none" viewBox="0 0 24 24" id="wallet_icon_241148" xmlns="http://www.w3.org/2000/svg"><path d="M12.06 1.285c-.76.072-1.55.39-2.173.876-.39.304-3.8 3.712-4.015 4.014-.139.194-.141.195-.576.304-1.56.394-2.794 1.405-3.472 2.845-.325.689-.481 1.317-.544 2.185-.051.717-.051 5.228.001 5.946.068.951.246 1.633.615 2.359.278.547.529.894.963 1.327.966.966 2.134 1.466 3.686 1.578.737.053 10.173.053 10.91 0 .951-.068 1.633-.246 2.359-.615a4.674 4.674 0 001.327-.963c.966-.966 1.466-2.134 1.578-3.686.052-.718.052-5.229.001-5.946-.067-.929-.225-1.529-.601-2.289-.706-1.427-1.895-2.361-3.539-2.778-.158-.04-.161-.043-.229-.329-.09-.372-.406-1.016-.674-1.373-.327-.435-2.445-2.53-2.777-2.747a4.303 4.303 0 00-2.84-.708m1.3 1.589c.5.161.723.33 1.695 1.286.503.495 1.05 1.053 1.215 1.24.289.328.529.686.53.79 0 .04-.92.05-4.47.05H7.86l1.4-1.403c.77-.772 1.51-1.483 1.645-1.58.292-.211.626-.365.955-.441.353-.081 1.164-.049 1.5.058m4.79 4.996c1.768.417 2.913 1.75 3.074 3.577l.027.307-1.396.015-1.395.014-.329.11a2.799 2.799 0 00-1.592 1.407c-.205.427-.269.713-.269 1.2 0 .493.064.776.275 1.206.32.654.909 1.175 1.586 1.401l.329.11 1.395.014 1.396.015-.028.306c-.171 1.889-1.378 3.25-3.203 3.612-.415.083-11.625.083-12.04 0-1.435-.284-2.511-1.199-2.971-2.524-.232-.669-.229-.615-.229-4.18 0-3.258.001-3.282.089-3.628.132-.519.311-.952.537-1.297.636-.975 1.568-1.544 2.814-1.717.277-.039 1.65-.049 5.96-.043l5.6.008.37.087m3.09 6.633v1.262l-1.27-.012c-1.198-.012-1.28-.018-1.455-.098-.65-.301-.937-1.051-.641-1.675.166-.352.479-.613.835-.696.083-.02.686-.038 1.341-.04l1.19-.004v1.263" fill-rule="evenodd" fill="#000"/></svg><svg fill="none" viewBox="0 0 24 24" id="weekend" xmlns="http://www.w3.org/2000/svg"><path d="M8.815 1.278c-.484.115-.717.726-.432 1.13a.939.939 0 00.277.248c.158.083.205.084 3.218.095 2.142.008 3.122-.002 3.273-.033.751-.156.78-1.245.038-1.432-.21-.052-6.156-.06-6.374-.008m2.205 2.526c-3.71.383-6.869 2.935-8.041 6.496-.353 1.072-.481 1.997-.448 3.235.041 1.502.338 2.682 1.007 4.005 1.382 2.731 3.979 4.613 7.035 5.099.483.077 1.39.119 1.601.074.549-.117.75-.829.348-1.231-.181-.181-.393-.242-.838-.242-.177 0-.523-.028-.77-.063a8.024 8.024 0 01-6.077-4.372 8.019 8.019 0 01.276-7.634c.443-.757 1.324-1.747 2.034-2.283 2.125-1.605 4.855-2.062 7.353-1.231 1.253.417 2.21 1.008 3.142 1.941a7.518 7.518 0 011.588 2.236c.468.981.77 2.245.77 3.219 0 .403.035.505.242.712.152.153.224.194.377.217.34.051.634-.094.782-.384.1-.197.107-.794.017-1.519a9.496 9.496 0 00-8.492-8.277 12.502 12.502 0 00-1.906.002m.795 3.473a.8.8 0 00-.462.354l-.093.149v5.44l.093.149c.357.574 1.223.443 1.363-.207.059-.274.059-5.067.001-5.321a.747.747 0 00-.902-.564m4 9a.8.8 0 00-.462.354l-.093.149v4.44l.093.149c.357.574 1.223.443 1.363-.207.058-.271.059-4.069.001-4.321a.747.747 0 00-.902-.564m3 0a.8.8 0 00-.462.354l-.093.149v4.44l.093.149c.357.574 1.223.443 1.363-.207.058-.271.059-4.069.001-4.321a.747.747 0 00-.902-.564" fill-rule="evenodd" fill="#000"/></svg></svg>