<?xml version="1.0" encoding="utf-8"?><svg viewBox="0 0 1235 650" xmlns="http://www.w3.org/2000/svg" xmlns:xlink="http://www.w3.org/1999/xlink"><style>:root>svg{display:none}:root>svg:target{display:block}</style><svg viewBox="0 0 448 512" id="bell" xmlns="http://www.w3.org/2000/svg"><!--!Font Awesome Free 6.5.1 by @fontawesome - https://fontawesome.com License - https://fontawesome.com/license/free Copyright 2024 Fonticons, Inc.--><path d="M224 0c-17.7 0-32 14.3-32 32v19.2C119 66 64 130.6 64 208v18.8c0 47-17.3 92.4-48.5 127.6l-7.4 8.3c-8.4 9.4-10.4 22.9-5.3 34.4S19.4 416 32 416h384c12.6 0 24-7.4 29.2-18.9s3.1-25-5.3-34.4l-7.4-8.3c-31.2-35.2-48.5-80.5-48.5-127.6V208c0-77.4-55-142-128-156.8V32c0-17.7-14.3-32-32-32zm45.3 493.3c12-12 18.7-28.3 18.7-45.3H160c0 17 6.7 33.3 18.7 45.3S207 512 224 512s33.3-6.7 45.3-18.7z"/></svg><svg viewBox="0 0 448 512" id="calendar" xmlns="http://www.w3.org/2000/svg"><!--!Font Awesome Free 6.5.1 by @fontawesome - https://fontawesome.com License - https://fontawesome.com/license/free Copyright 2024 Fonticons, Inc.--><path d="M152 24c0-13.3-10.7-24-24-24s-24 10.7-24 24v40H64C28.7 64 0 92.7 0 128v320c0 35.3 28.7 64 64 64h320c35.3 0 64-28.7 64-64V128c0-35.3-28.7-64-64-64h-40V24c0-13.3-10.7-24-24-24s-24 10.7-24 24v40H152V24zM48 192h80v56H48v-56zm0 104h80v64H48v-64zm128 0h96v64h-96v-64zm144 0h80v64h-80v-64zm80-48h-80v-56h80v56zm0 160v40c0 8.8-7.2 16-16 16h-64v-56h80zm-128 0v56h-96v-56h96zm-144 0v56H64c-8.8 0-16-7.2-16-16v-40h80zm144-160h-96v-56h96v56z"/></svg><svg viewBox="0 0 448 512" id="check" xmlns="http://www.w3.org/2000/svg"><!--!Font Awesome Free 6.5.1 by @fontawesome - https://fontawesome.com License - https://fontawesome.com/license/free Copyright 2024 Fonticons, Inc.--><path d="M438.6 105.4c12.5 12.5 12.5 32.8 0 45.3l-256 256c-12.5 12.5-32.8 12.5-45.3 0l-128-128c-12.5-12.5-12.5-32.8 0-45.3s32.8-12.5 45.3 0L160 338.7l233.4-233.3c12.5-12.5 32.8-12.5 45.3 0z"/></svg><svg viewBox="0 0 512 512" id="circle-check" xmlns="http://www.w3.org/2000/svg"><!--!Font Awesome Free 6.5.1 by @fontawesome - https://fontawesome.com License - https://fontawesome.com/license/free Copyright 2024 Fonticons, Inc.--><path d="M256 48a208 208 0 110 416 208 208 0 110-416zm0 464a256 256 0 100-512 256 256 0 100 512zm113-303c9.4-9.4 9.4-24.6 0-33.9s-24.6-9.4-33.9 0l-111 111-47-47c-9.4-9.4-24.6-9.4-33.9 0s-9.4 24.6 0 33.9l64 64c9.4 9.4 24.6 9.4 33.9 0L369 209z"/></svg><svg viewBox="0 0 512 512" id="envelope" xmlns="http://www.w3.org/2000/svg"><!--!Font Awesome Free 6.5.1 by @fontawesome - https://fontawesome.com License - https://fontawesome.com/license/free Copyright 2024 Fonticons, Inc.--><path d="M48 64C21.5 64 0 85.5 0 112c0 15.1 7.1 29.3 19.2 38.4l217.6 163.2c11.4 8.5 27 8.5 38.4 0l217.6-163.2c12.1-9.1 19.2-23.3 19.2-38.4 0-26.5-21.5-48-48-48H48zM0 176v208c0 35.3 28.7 64 64 64h384c35.3 0 64-28.7 64-64V176L294.4 339.2a63.9 63.9 0 01-76.8 0L0 176z"/></svg><svg viewBox="0 0 810 540" id="eu" xmlns="http://www.w3.org/2000/svg"><defs><g id="fd"><g id="fb"><path id="fa" d="M0 0v1h.5z" transform="rotate(18 3.157 -.5)"/><use xlink:href="#fa" transform="scale(-1 1)"/></g><g id="fc"><use xlink:href="#fb" transform="rotate(72)"/><use xlink:href="#fb" transform="rotate(144)"/></g><use xlink:href="#fc" transform="scale(-1 1)"/></g></defs><path fill="#039" d="M0 0h810v540H0z"/><g fill="#fc0" transform="matrix(30 0 0 30 405 270)"><use xlink:href="#fd" y="-6"/><use xlink:href="#fd" y="6"/><g id="fe"><use xlink:href="#fd" x="-6"/><use xlink:href="#fd" transform="rotate(-144 -2.344 -2.11)"/><use xlink:href="#fd" transform="rotate(144 -2.11 -2.344)"/><use xlink:href="#fd" transform="rotate(72 -4.663 -2.076)"/><use xlink:href="#fd" transform="rotate(72 -5.076 .534)"/></g><use xlink:href="#fe" transform="scale(-1 1)"/></g></svg><svg viewBox="0 0 384 512" id="file" xmlns="http://www.w3.org/2000/svg"><!--!Font Awesome Free 6.5.1 by @fontawesome - https://fontawesome.com License - https://fontawesome.com/license/free Copyright 2024 Fonticons, Inc.--><path d="M64 464c-8.8 0-16-7.2-16-16V64c0-8.8 7.2-16 16-16h160v80c0 17.7 14.3 32 32 32h80v288c0 8.8-7.2 16-16 16H64zM64 0C28.7 0 0 28.7 0 64v384c0 35.3 28.7 64 64 64h256c35.3 0 64-28.7 64-64V154.5c0-17-6.7-33.3-18.7-45.3l-90.6-90.5C262.7 6.7 246.5 0 229.5 0H64zm56 256c-13.3 0-24 10.7-24 24s10.7 24 24 24h144c13.3 0 24-10.7 24-24s-10.7-24-24-24H120zm0 96c-13.3 0-24 10.7-24 24s10.7 24 24 24h144c13.3 0 24-10.7 24-24s-10.7-24-24-24H120z"/></svg><svg viewBox="0 0 512 512" id="fingerprint" xmlns="http://www.w3.org/2000/svg"><!--!Font Awesome Free 6.5.1 by @fontawesome - https://fontawesome.com License - https://fontawesome.com/license/free Copyright 2024 Fonticons, Inc.--><path d="M48 256c0-114.9 93.1-208 208-208 63.1 0 119.6 28.1 157.8 72.5 8.6 10.1 23.8 11.2 33.8 2.6s11.2-23.8 2.6-33.8C403.3 34.6 333.7 0 256 0 114.6 0 0 114.6 0 256v40c0 13.3 10.7 24 24 24s24-10.7 24-24v-40zm458.5-52.9c-2.7-13-15.5-21.3-28.4-18.5s-21.3 15.5-18.5 28.4c2.9 13.9 4.5 28.3 4.5 43.1v40c0 13.3 10.7 24 24 24s24-10.7 24-24V256c0-18.1-1.9-35.8-5.5-52.9zM256 80c-19 0-37.4 3-54.5 8.6-15.2 5-18.7 23.7-8.3 35.9 7.1 8.3 18.8 10.8 29.4 7.9 10.6-2.9 21.8-4.4 33.4-4.4 70.7 0 128 57.3 128 128v24.9c0 25.2-1.5 50.3-4.4 75.3-1.7 14.6 9.4 27.8 24.2 27.8 11.8 0 21.9-8.6 23.3-20.3 3.3-27.4 5-55 5-82.7v-25c0-97.2-78.8-176-176-176zm-105.3 68.7c-9.1-10.6-25.3-11.4-33.9-.4C93.7 178 80 215.4 80 256v24.9c0 24.2-2.6 48.4-7.8 71.9-3.4 15.6 7.9 31.2 23.9 31.2 10.5 0 19.9-7 22.2-17.3 6.4-28.1 9.7-56.8 9.7-85.8V256c0-27.2 8.5-52.4 22.9-73.1 7.2-10.4 8-24.6-.2-34.2zM256 160c-53 0-96 43-96 96v24.9c0 35.9-4.6 71.5-13.8 106.1-3.8 14.3 6.7 29 21.5 29 9.5 0 17.9-6.2 20.4-15.4 10.5-39 15.9-79.2 15.9-119.7V256c0-28.7 23.3-52 52-52s52 23.3 52 52v24.9c0 36.3-3.5 72.4-10.4 107.9-2.7 13.9 7.7 27.2 21.8 27.2 10.2 0 19-7 21-17 7.7-38.8 11.6-78.3 11.6-118.1V256c0-53-43-96-96-96zm24 96c0-13.3-10.7-24-24-24s-24 10.7-24 24v24.9c0 59.9-11 119.3-32.5 175.2l-5.9 15.3c-4.8 12.4 1.4 26.3 13.8 31s26.3-1.4 31-13.8l5.9-15.3A536.19 536.19 0 00280 280.9V256z"/></svg><svg viewBox="0 0 512 512" id="power-off" xmlns="http://www.w3.org/2000/svg"><!--!Font Awesome Free 6.5.1 by @fontawesome - https://fontawesome.com License - https://fontawesome.com/license/free Copyright 2024 Fonticons, Inc.--><path d="M288 32c0-17.7-14.3-32-32-32s-32 14.3-32 32v224c0 17.7 14.3 32 32 32s32-14.3 32-32V32zm-144.5 88.6c13.6-11.3 15.4-31.5 4.1-45.1s-31.5-15.4-45.1-4.1C49.7 115.4 16 181.8 16 256c0 132.5 107.5 240 240 240s240-107.5 240-240c0-74.2-33.8-140.6-86.6-184.6-13.6-11.3-33.8-9.4-45.1 4.1s-9.4 33.8 4.1 45.1c38.9 32.3 63.5 81 63.5 135.4 0 97.2-78.8 176-176 176s-176-78.8-176-176c0-54.4 24.7-103.1 63.5-135.4z"/></svg><svg viewBox="0 0 448 512" id="square-check" xmlns="http://www.w3.org/2000/svg"><!--!Font Awesome Free 6.5.1 by @fontawesome - https://fontawesome.com License - https://fontawesome.com/license/free Copyright 2024 Fonticons, Inc.--><path d="M64 80c-8.8 0-16 7.2-16 16v320c0 8.8 7.2 16 16 16h320c8.8 0 16-7.2 16-16V96c0-8.8-7.2-16-16-16H64zM0 96c0-35.3 28.7-64 64-64h320c35.3 0 64 28.7 64 64v320c0 35.3-28.7 64-64 64H64c-35.3 0-64-28.7-64-64V96zm337 113L209 337c-9.4 9.4-24.6 9.4-33.9 0l-64-64c-9.4-9.4-9.4-24.6 0-33.9s24.6-9.4 33.9 0l47 47L303 175c9.4-9.4 24.6-9.4 33.9 0s9.4 24.6 0 33.9z"/></svg><svg viewBox="0 0 576 512" id="star" xmlns="http://www.w3.org/2000/svg"><!--!Font Awesome Free 6.5.1 by @fontawesome - https://fontawesome.com License - https://fontawesome.com/license/free Copyright 2024 Fonticons, Inc.--><path d="M316.9 18c-5.3-11-16.5-18-28.8-18s-23.4 7-28.8 18L195 150.3 51.4 171.5c-12 1.8-22 10.2-25.7 21.7s-.7 24.2 7.9 32.7L137.8 329l-24.6 145.7c-2 12 3 24.2 12.9 31.3s23 8 33.8 2.3l128.3-68.5 128.3 68.5c10.8 5.7 23.9 4.9 33.8-2.3s14.9-19.3 12.9-31.3L438.5 329l104.2-103.1c8.6-8.5 11.7-21.2 7.9-32.7s-13.7-19.9-25.7-21.7l-143.7-21.2L316.9 18z"/></svg><svg viewBox="0 0 7410 3900" id="usa" xmlns="http://www.w3.org/2000/svg"><path fill="#b22234" d="M0 0h7410v3900H0z"/><path d="M0 450h7410m0 600H0m0 600h7410m0 600H0m0 600h7410m0 600H0" stroke="#fff" stroke-width="300"/><path fill="#3c3b6e" d="M0 0h2964v2100H0z"/><g fill="#fff"><g id="ld"><g id="lc"><g id="le"><g id="lb"><path id="la" d="M247 90l70.534 217.082-184.66-134.164h228.253L176.466 307.082z"/><use xlink:href="#la" y="420"/><use xlink:href="#la" y="840"/><use xlink:href="#la" y="1260"/></g><use xlink:href="#la" y="1680"/></g><use xlink:href="#lb" x="247" y="210"/></g><use xlink:href="#lc" x="494"/></g><use xlink:href="#ld" x="988"/><use xlink:href="#lc" x="1976"/><use xlink:href="#le" x="2470"/></g></svg></svg>