<?xml version="1.0" encoding="iso-8859-1"?>
<!-- Uploaded to: SVG Repo, www.svgrepo.com, Generator: SVG Repo Mixer Tools -->
<svg fill="#000000" height="800px" width="800px" version="1.1" id="Capa_1" xmlns="http://www.w3.org/2000/svg" xmlns:xlink="http://www.w3.org/1999/xlink" 
	 viewBox="0 0 612 612" xml:space="preserve">
<g>
	<path d="M571.456,50.223H192.671c-22.356,0-40.541,18.188-40.541,40.541v26.022v68.706v60.567L34.006,268.092
		c-10.929,2.04-20.413,8.212-26.699,17.382c-6.289,9.17-8.628,20.243-6.588,31.172l39.383,211.132c3.675,19.701,20.873,34,40.893,34
		c2.556,0,5.132-0.24,7.661-0.712l370.227-69.063c10.929-2.037,20.413-8.212,26.699-17.382c6.286-9.17,8.625-20.24,6.588-31.172
		l-17.757-95.203h97.046c22.356,0,40.541-18.188,40.541-40.541V185.492v-68.703V90.767
		C611.997,68.408,593.812,50.223,571.456,50.223z M138.039,481.196l-45.597,8.159c-0.873,0.155-1.741,0.232-2.6,0.232
		c-6.961,0-13.139-4.982-14.408-12.075c-1.424-7.966,3.877-15.58,11.843-17.007l45.597-8.159c7.969-1.421,15.58,3.877,17.007,11.843
		S146.007,479.769,138.039,481.196z M149.77,395.22c-3.388,4.944-8.499,8.271-14.393,9.367L89.728,413.1
		c-1.357,0.252-2.746,0.381-4.124,0.381l0,0c-10.794,0-20.064-7.705-22.042-18.323l-5.926-31.772
		c-2.268-12.157,5.777-23.897,17.936-26.169l45.655-8.517c1.36-0.252,2.746-0.381,4.121-0.381c10.794,0,20.067,7.705,22.045,18.32
		l5.926,31.775C154.422,384.311,153.158,390.278,149.77,395.22z M234.642,463.908l-45.597,8.159c-0.873,0.155-1.741,0.232-2.6,0.232
		c-6.961,0-13.139-4.982-14.408-12.075c-1.424-7.966,3.877-15.58,11.843-17.007l45.597-8.159c7.963-1.416,15.58,3.877,17.007,11.843
		C247.913,454.866,242.608,462.48,234.642,463.908z M331.243,446.619l-45.597,8.159c-0.873,0.155-1.741,0.232-2.6,0.232
		c-6.961,0-13.139-4.982-14.408-12.075c-1.424-7.966,3.877-15.58,11.843-17.007l45.597-8.159c7.96-1.424,15.58,3.877,17.007,11.843
		S339.209,445.195,331.243,446.619z M427.846,429.331l-45.597,8.159c-0.873,0.155-1.741,0.232-2.6,0.232
		c-6.961,0-13.139-4.982-14.408-12.075c-1.424-7.966,3.877-15.58,11.843-17.007l45.597-8.159c7.966-1.421,15.58,3.877,17.007,11.843
		C441.114,420.292,435.812,427.906,427.846,429.331z M582.69,307.707c0,6.196-5.041,11.234-11.234,11.234H456.773H193.755
		c-6.793,0-12.321-5.527-12.321-12.321v-48.387v-58.085H582.69V307.707z M582.69,102.135H181.434V90.767
		c0-6.196,5.041-11.234,11.234-11.234h378.785c6.196,0,11.234,5.041,11.234,11.234v11.368H582.69z"/>
</g>
</svg>