<svg viewBox="0 0 32 32" xmlns="http://www.w3.org/2000/svg"><path d="M18.587.104c-.118.056-1.342.928-2.72 1.937L13.36 3.877l-.32-.295c-.682-.628-1.594-1.118-2.578-1.383-.465-.125-.609-.138-1.475-.138-.87 0-1.01.013-1.482.14-2.46.662-4.186 2.685-4.477 5.247l-.062.542-.294.037A3.047 3.047 0 0 0 .15 10.07l-.123.357v19.146l.123.357a3.18 3.18 0 0 0 1.891 1.919l.332.124 12.469.014c13.752.016 12.776.039 13.517-.319.451-.218 1.039-.79 1.276-1.241.356-.678.355-.671.379-3.255l.021-2.349.356-.181c.727-.372 1.333-1.157 1.526-1.978.119-.505.119-4.823 0-5.328-.193-.821-.799-1.606-1.526-1.978l-.356-.181-.021-2.349c-.019-2.064-.033-2.383-.116-2.641-.344-1.065-1.227-1.89-2.258-2.109-.228-.048-.684-.076-1.247-.077L25.506 8l-2.83-3.773C21.12 2.151 19.767.379 19.67.287c-.313-.295-.709-.361-1.083-.183m2.192 4.936 2.09 2.787.13.173H11.08l3.833-2.795c2.109-1.537 3.85-2.791 3.871-2.787.02.005.918 1.185 1.995 2.622M10 4.133c.176.046.492.165.703.264.378.178.978.583.976.658-.001.021-.902.692-2.003 1.492L7.675 8H4.998l.033-.389c.147-1.748 1.531-3.237 3.302-3.555.377-.068 1.272-.027 1.667.077m17.455 5.995a.85.85 0 0 1 .463.499c.069.165.082.525.082 2.273v2.076l-1.853.026c-2.012.028-2.195.05-2.986.356-.817.317-1.713 1.016-2.235 1.744-.308.43-.622 1.107-.774 1.671-.177.652-.177 1.802 0 2.454a4.966 4.966 0 0 0 1.401 2.373c.669.634 1.341 1.009 2.265 1.262.387.106.579.118 2.302.138l1.88.023-.001 2.088c-.001 1.925-.009 2.106-.101 2.309-.127.28-.393.481-.727.553-.182.038-4.046.051-12.344.041-11.141-.013-12.093-.021-12.24-.103a1.452 1.452 0 0 1-.5-.507c-.044-.085-.06-2.643-.06-9.403 0-7.89.011-9.308.075-9.43a1.48 1.48 0 0 1 .485-.482c.077-.043 3.536-.06 12.388-.061 11.949-.001 12.288.001 12.48.1M4.613 12.101c-.271.126-.494.362-.561.596-.069.24-.067 2.368.002 2.617.081.291.459.615.772.662a.994.994 0 0 0 1.142-.776c.074-.343.074-2.08.001-2.399-.146-.633-.786-.964-1.356-.7m24.826 5.019c.115.058.276.194.358.302l.15.196v4.772l-.162.199c-.33.409-.25.398-2.835.398-1.465 0-2.408-.022-2.587-.059-1.034-.214-1.986-1.124-2.255-2.157-.104-.402-.104-1.14 0-1.542.262-1.005 1.167-1.895 2.173-2.139.202-.049.926-.069 2.614-.072 2.232-.004 2.345 0 2.544.102m-24.879.995c-.247.131-.353.24-.46.472-.086.187-.098.362-.098 1.413 0 1.058.012 1.226.1 1.42.228.502.881.72 1.372.457.165-.088.439-.418.485-.585.053-.189.053-2.395 0-2.584-.056-.202-.349-.523-.556-.609-.23-.096-.645-.088-.843.016m20.32.898c-.029.01-.117.032-.196.049-.338.074-.682.547-.682.938 0 .617.63 1.123 1.205.969.33-.088.482-.199.641-.472.358-.61-.015-1.363-.728-1.473a.81.81 0 0 0-.24-.011M4.613 24.101c-.271.126-.494.362-.561.596-.069.24-.067 2.368.002 2.617.081.291.459.615.772.662a.994.994 0 0 0 1.142-.776c.074-.343.074-2.08.001-2.399-.146-.633-.786-.964-1.356-.7" fill-rule="evenodd"/></svg>