<svg width="419" height="360" fill="none" xmlns="http://www.w3.org/2000/svg"><g clip-path="url(#a)"><rect width="399" height="215" rx="20" fill="#fff"/><path d="M29.977 23.09V34h-1.96v-9.268h-4.773V34h-1.96V23.09h8.693Zm2.278 13.978v-11.25h1.897v1.353h.112c.099-.199.24-.41.42-.634.181-.227.427-.42.736-.58.308-.164.703-.245 1.182-.245.632 0 1.202.161 1.71.484.511.32.916.794 1.214 1.423.302.625.453 1.392.453 2.3 0 .9-.147 1.663-.442 2.291-.295.629-.696 1.108-1.204 1.438a3.095 3.095 0 0 1-1.726.496c-.468 0-.857-.078-1.166-.235a2.373 2.373 0 0 1-.746-.564 3.657 3.657 0 0 1-.431-.634h-.08v4.357h-1.929Zm1.891-7.159c0 .53.075.993.224 1.39.153.398.371.709.655.932.288.22.636.33 1.044.33.426 0 .783-.113 1.071-.34.288-.23.504-.545.65-.943.149-.401.224-.857.224-1.369a3.89 3.89 0 0 0-.219-1.353c-.145-.394-.362-.703-.65-.927-.287-.224-.646-.335-1.076-.335-.412 0-.761.108-1.049.325-.288.216-.506.52-.655.91-.146.391-.219.851-.219 1.38Zm9.343 1.48 3.276-5.57h1.982V34h-1.864v-5.577L43.617 34H41.63v-8.182h1.86v5.572Zm13.795-8.596.671 1.246a2.226 2.226 0 0 1-.799.447 4.591 4.591 0 0 1-1.038.182 33.07 33.07 0 0 1-1.407.053c-.61.014-1.11.13-1.496.346a2.118 2.118 0 0 0-.89.986c-.206.436-.34.994-.405 1.672h.09c.257-.5.615-.882 1.077-1.145.461-.263 1.003-.394 1.624-.394.679 0 1.277.152 1.796.458.522.302.928.74 1.22 1.316.294.575.442 1.27.442 2.088 0 .841-.158 1.571-.475 2.189a3.385 3.385 0 0 1-1.347 1.422c-.58.334-1.266.5-2.062.5-.792 0-1.48-.171-2.066-.516-.583-.348-1.034-.861-1.353-1.54-.316-.681-.474-1.521-.474-2.519v-.735c0-1.925.358-3.361 1.075-4.31.718-.947 1.781-1.43 3.191-1.448.42-.007.794-.009 1.124-.005.334.003.625-.013.874-.048.248-.036.458-.117.628-.245Zm-2.988 9.822c.394 0 .735-.101 1.023-.304.287-.206.508-.497.66-.873.157-.377.235-.822.235-1.337 0-.508-.078-.94-.235-1.294a1.813 1.813 0 0 0-.666-.82c-.287-.19-.63-.283-1.028-.283-.298 0-.566.053-.804.16a1.63 1.63 0 0 0-.607.468 2.174 2.174 0 0 0-.384.752 3.78 3.78 0 0 0-.144 1.017c0 .77.174 1.383.522 1.838.348.45.824.676 1.428.676Zm6.818-4.134h2.413c1.044 0 1.852.254 2.424.762.572.508.86 1.174.863 1.998a2.675 2.675 0 0 1-.394 1.427c-.256.416-.629.742-1.119.98-.487.235-1.078.352-1.774.352H59.81v-8.182h1.86v6.6h1.858c.42 0 .764-.107 1.034-.32a1.02 1.02 0 0 0 .404-.83c0-.356-.135-.645-.404-.869-.27-.224-.615-.335-1.034-.335h-2.413v-1.582ZM67.831 34v-8.182h1.928V34h-1.928Zm3.352 0-.01-1.587h.282a.957.957 0 0 0 .538-.144c.145-.096.266-.256.362-.48.096-.227.17-.532.224-.916.053-.383.09-.86.111-1.433l.144-3.622H78.8V34h-1.864v-6.6h-2.35l-.127 2.637a9.557 9.557 0 0 1-.23 1.774c-.116.497-.283.907-.5 1.23a2.038 2.038 0 0 1-.804.725c-.323.156-.705.234-1.145.234h-.597Zm10.864-5.518h2.413c1.044 0 1.852.253 2.423.761.572.508.86 1.174.863 1.998a2.676 2.676 0 0 1-.394 1.427c-.255.416-.628.742-1.118.98-.487.235-1.078.352-1.774.352h-3.718v-8.182H82.6v6.6h1.859c.419 0 .763-.107 1.033-.32a1.02 1.02 0 0 0 .405-.83c0-.356-.135-.645-.405-.869-.27-.224-.614-.335-1.033-.335h-2.413v-1.582Zm12.972.628v1.582H90.66V29.11h4.358Zm-3.761-3.292V34h-1.859v-8.182h1.859Zm5.023 0V34h-1.854v-8.182h1.854Zm5.52 8.342c-.799 0-1.492-.176-2.078-.527a3.581 3.581 0 0 1-1.363-1.476c-.32-.632-.48-1.37-.48-2.216 0-.845.16-1.585.48-2.221a3.574 3.574 0 0 1 1.364-1.481c.585-.352 1.278-.527 2.077-.527.799 0 1.491.175 2.077.527a3.543 3.543 0 0 1 1.359 1.48c.323.636.484 1.377.484 2.222s-.161 1.584-.484 2.216a3.55 3.55 0 0 1-1.359 1.476c-.586.351-1.278.527-2.077.527Zm.011-1.545c.433 0 .795-.119 1.086-.357.291-.241.508-.565.65-.97.146-.404.218-.855.218-1.352 0-.501-.072-.954-.218-1.359a2.15 2.15 0 0 0-.65-.974c-.291-.242-.653-.363-1.086-.363-.444 0-.814.121-1.108.363-.292.241-.51.566-.656.974a4.092 4.092 0 0 0-.213 1.359c0 .497.071.948.213 1.353.146.404.364.728.656.97.294.237.664.356 1.108.356Zm9.115 1.545c-.817 0-1.518-.18-2.104-.538a3.59 3.59 0 0 1-1.348-1.486c-.312-.636-.469-1.368-.469-2.195 0-.83.16-1.564.48-2.2a3.57 3.57 0 0 1 1.353-1.491c.586-.359 1.278-.538 2.077-.538.664 0 1.252.122 1.763.367.515.242.925.584 1.231 1.028.305.44.479.956.522 1.545h-1.843a1.762 1.762 0 0 0-.533-.986c-.277-.266-.648-.399-1.113-.399-.394 0-.741.107-1.039.32-.298.21-.531.511-.698.905-.163.394-.245.867-.245 1.417 0 .558.082 1.037.245 1.438.164.398.393.705.687.922.299.213.649.32 1.05.32.284 0 .538-.054.762-.16.227-.11.417-.269.57-.475.152-.205.257-.456.314-.75h1.843a3.21 3.21 0 0 1-.512 1.539 3.026 3.026 0 0 1-1.203 1.044c-.508.248-1.105.373-1.79.373Zm4.494-6.76v-1.582h7.159V27.4h-2.647V34h-1.864v-6.6h-2.648Zm10 1.082h2.413c1.044 0 1.852.253 2.423.761.572.508.86 1.174.863 1.998a2.672 2.672 0 0 1-.394 1.427c-.255.416-.628.742-1.118.98-.487.235-1.078.352-1.774.352h-3.718v-8.182h1.859v6.6h1.859c.419 0 .763-.107 1.033-.32a1.02 1.02 0 0 0 .405-.83c0-.356-.135-.645-.405-.869-.27-.224-.614-.335-1.033-.335h-2.413v-1.582Z" fill="#334155"/><rect x="169" y="14" width="142" height="30" rx="15" fill="#F8FAFF"/><path d="M188.585 24.773V33.5h-1.057v-7.79h-4.397v7.79h-1.057v-8.727h6.511Zm4.655 8.863c-.591 0-1.11-.14-1.556-.422a2.866 2.866 0 0 1-1.039-1.18c-.248-.506-.371-1.096-.371-1.773 0-.681.123-1.277.371-1.785a2.86 2.86 0 0 1 1.039-1.185c.446-.281.965-.422 1.556-.422.591 0 1.108.14 1.551.422.446.281.792.676 1.04 1.185.25.508.375 1.104.375 1.785 0 .677-.125 1.267-.375 1.773-.248.506-.594.9-1.04 1.18-.443.282-.96.422-1.551.422Zm0-.903c.449 0 .818-.115 1.108-.345.289-.23.504-.533.643-.908a3.48 3.48 0 0 0 .209-1.219c0-.437-.07-.845-.209-1.223a2.064 2.064 0 0 0-.643-.916c-.29-.233-.659-.35-1.108-.35-.449 0-.818.117-1.108.35-.29.233-.505.538-.644.916a3.515 3.515 0 0 0-.209 1.223c0 .438.07.844.209 1.22.139.374.354.677.644.907.29.23.659.345 1.108.345Zm7.876.767v-6.546h1.005v2.847h.665l2.352-2.846h1.296l-2.642 3.153 2.676 3.392h-1.295l-2.148-2.761h-.904V33.5h-1.005Zm8.371.153c-.415 0-.791-.078-1.129-.234a1.932 1.932 0 0 1-.805-.686c-.199-.301-.299-.665-.299-1.091 0-.375.074-.679.222-.912.148-.236.345-.42.592-.554.247-.133.52-.233.818-.298.302-.068.604-.122.908-.162.398-.051.72-.09.967-.115.25-.029.432-.075.546-.14.116-.066.175-.18.175-.342v-.034c0-.42-.116-.747-.346-.98-.227-.233-.572-.35-1.035-.35-.48 0-.857.106-1.129.316-.273.21-.465.435-.576.673l-.954-.34c.17-.398.397-.708.682-.93.287-.224.599-.38.937-.468.341-.091.676-.137 1.006-.137.21 0 .451.026.724.077.276.048.541.15.797.303.259.153.473.385.644.694.17.31.255.725.255 1.244V33.5h-1.005v-.886h-.052a1.745 1.745 0 0 1-.341.456c-.159.161-.37.3-.634.413-.265.114-.587.17-.968.17Zm.154-.903c.397 0 .733-.078 1.005-.234a1.59 1.59 0 0 0 .622-.605c.143-.248.214-.508.214-.78v-.92c-.043.05-.137.097-.282.14-.142.04-.307.075-.494.106a22.717 22.717 0 0 1-.963.128c-.261.034-.506.09-.733.166a1.273 1.273 0 0 0-.546.337c-.136.148-.204.35-.204.605 0 .35.129.614.388.793.261.176.592.264.993.264Zm9.062-2.983v.938h-3.613v-.938h3.613Zm-3.375-2.813V33.5h-1.005v-6.546h1.005Zm4.143 0V33.5h-1.006v-6.546h1.006Zm3.762 6.7a2.66 2.66 0 0 1-1.129-.235 1.939 1.939 0 0 1-.805-.686c-.199-.301-.299-.665-.299-1.091 0-.375.074-.679.222-.912.148-.236.345-.42.592-.554.247-.133.52-.233.818-.298.302-.068.604-.122.908-.162.398-.051.72-.09.967-.115.25-.029.432-.075.546-.14.116-.066.175-.18.175-.342v-.034c0-.42-.115-.747-.346-.98-.227-.233-.572-.35-1.035-.35-.48 0-.857.106-1.129.316-.273.21-.465.435-.576.673l-.954-.34c.17-.398.398-.708.682-.93.287-.224.599-.38.937-.468.341-.091.676-.137 1.006-.137.21 0 .452.026.724.077.276.048.541.15.797.303.259.153.473.385.644.694.17.31.255.725.255 1.244V33.5h-1.005v-.886h-.052a1.761 1.761 0 0 1-.34.456c-.16.161-.371.3-.635.413-.265.114-.587.17-.968.17Zm.154-.904c.397 0 .733-.078 1.005-.234a1.6 1.6 0 0 0 .836-1.385v-.92c-.043.05-.137.097-.282.14-.142.04-.306.075-.494.106a22.717 22.717 0 0 1-.963.128c-.261.034-.506.09-.733.166a1.263 1.263 0 0 0-.545.337c-.137.148-.205.35-.205.605 0 .35.129.614.388.793.261.176.592.264.993.264Zm4.102.75v-.938h.239a.956.956 0 0 0 .49-.115c.131-.08.236-.217.315-.413.083-.199.145-.474.188-.827.045-.355.078-.806.098-1.355l.119-2.898h4.364V33.5h-1.006v-5.608h-2.403l-.103 2.335c-.022.537-.071 1.01-.144 1.42a3.398 3.398 0 0 1-.329 1.022 1.498 1.498 0 0 1-.579.622c-.242.14-.544.209-.908.209h-.341Zm9.584.153c-.415 0-.791-.078-1.129-.234a1.941 1.941 0 0 1-.806-.686c-.198-.301-.298-.665-.298-1.091 0-.375.074-.679.222-.912.148-.236.345-.42.592-.554.247-.133.52-.233.818-.298.301-.068.604-.122.908-.162.398-.051.72-.09.967-.115.25-.029.432-.075.546-.14.116-.066.174-.18.174-.342v-.034c0-.42-.115-.747-.345-.98-.227-.233-.572-.35-1.035-.35-.48 0-.857.106-1.129.316-.273.21-.465.435-.576.673l-.954-.34c.17-.398.397-.708.682-.93.286-.224.599-.38.937-.468.341-.091.676-.137 1.006-.137.21 0 .451.026.724.077.276.048.541.15.797.303.259.153.473.385.643.694.171.31.256.725.256 1.244V33.5h-1.006v-.886h-.051a1.745 1.745 0 0 1-.341.456c-.159.161-.37.3-.635.413-.264.114-.586.17-.967.17Zm.154-.903c.397 0 .733-.078 1.005-.234a1.59 1.59 0 0 0 .835-1.385v-.92c-.042.05-.136.097-.281.14-.142.04-.307.075-.494.106a22.717 22.717 0 0 1-.963.128c-.262.034-.506.09-.733.166a1.267 1.267 0 0 0-.546.337c-.136.148-.204.35-.204.605 0 .35.129.614.388.793.261.176.592.264.993.264Zm8.261-.614 2.284-5.182h.955l-2.83 6.546h-.818l-2.778-6.546h.937l2.25 5.182Zm-2.574-5.182V33.5h-1.005v-6.546h1.005Zm5.148 6.546v-6.546h1.006V33.5h-1.006Zm6.222 0v-6.546h5.147V33.5h-1.005v-5.608h-3.137V33.5h-1.005Zm6.984 2.455v-9h.972v1.04h.119c.074-.114.176-.26.307-.435.133-.18.324-.338.571-.478.25-.142.588-.213 1.014-.213.551 0 1.037.138 1.457.414.421.275.749.666.985 1.171.236.506.354 1.103.354 1.79 0 .694-.118 1.294-.354 1.803-.236.506-.563.898-.98 1.176a2.563 2.563 0 0 1-1.445.413c-.42 0-.757-.07-1.01-.208a1.879 1.879 0 0 1-.584-.482 6.602 6.602 0 0 1-.315-.452h-.085v3.46h-1.006Zm.989-5.728c0 .495.072.93.217 1.308.145.375.357.67.635.883.278.21.619.315 1.023.315.42 0 .771-.11 1.052-.332.284-.225.497-.526.64-.904.144-.38.217-.804.217-1.27 0-.46-.071-.875-.213-1.244a1.922 1.922 0 0 0-.635-.882c-.281-.219-.635-.328-1.061-.328-.409 0-.753.103-1.032.31a1.869 1.869 0 0 0-.63.862c-.142.366-.213.794-.213 1.282Zm8.983 3.41c-.591 0-1.11-.141-1.556-.422a2.866 2.866 0 0 1-1.039-1.18c-.248-.507-.371-1.097-.371-1.774 0-.681.123-1.277.371-1.785a2.86 2.86 0 0 1 1.039-1.185c.446-.281.965-.422 1.556-.422.591 0 1.108.14 1.551.422.446.281.792.676 1.04 1.185.25.508.375 1.104.375 1.785 0 .677-.125 1.267-.375 1.773-.248.506-.594.9-1.04 1.18-.443.282-.96.422-1.551.422Zm0-.904c.449 0 .818-.115 1.108-.345.289-.23.504-.533.643-.908a3.48 3.48 0 0 0 .209-1.219c0-.437-.07-.845-.209-1.223a2.064 2.064 0 0 0-.643-.916c-.29-.233-.659-.35-1.108-.35-.449 0-.818.117-1.108.35-.29.233-.505.538-.644.916a3.515 3.515 0 0 0-.209 1.223c0 .438.07.844.209 1.22.139.374.354.677.644.907.29.23.659.345 1.108.345Zm3.802 2.642v-2.813h.545c.134-.139.249-.29.346-.451.096-.162.18-.354.251-.575.074-.225.136-.498.187-.819.052-.323.097-.714.137-1.171l.221-2.591h4.159v5.608h1.006v2.812h-1.006V33.5h-4.84v1.875h-1.006Zm1.687-2.813h3.154v-4.67h-2.216l-.171 1.654a18.546 18.546 0 0 1-.264 1.794c-.105.51-.272.918-.503 1.223Zm8.426 1.091c-.415 0-.791-.078-1.129-.234a1.932 1.932 0 0 1-.805-.686c-.199-.301-.299-.665-.299-1.091 0-.375.074-.679.222-.912.148-.236.345-.42.592-.554.247-.133.52-.233.818-.298.301-.068.604-.122.908-.162.398-.051.72-.09.967-.115.25-.029.432-.075.546-.14.116-.066.175-.18.175-.342v-.034c0-.42-.116-.747-.346-.98-.227-.233-.572-.35-1.035-.35-.48 0-.857.106-1.129.316-.273.21-.465.435-.576.673l-.954-.34c.17-.398.397-.708.682-.93.286-.224.599-.38.937-.468.341-.091.676-.137 1.006-.137.21 0 .451.026.724.077.276.048.541.15.797.303.259.153.473.385.644.694.17.31.255.725.255 1.244V33.5h-1.005v-.886h-.052a1.745 1.745 0 0 1-.341.456c-.159.161-.37.3-.634.413-.265.114-.587.17-.968.17Zm.154-.903c.397 0 .733-.078 1.005-.234a1.59 1.59 0 0 0 .622-.605c.142-.248.214-.508.214-.78v-.92c-.043.05-.137.097-.282.14-.142.04-.307.075-.494.106a22.717 22.717 0 0 1-.963.128c-.261.034-.506.09-.733.166a1.267 1.267 0 0 0-.546.337c-.136.148-.204.35-.204.605 0 .35.129.614.388.793.261.176.592.264.993.264Zm4.273.75 2.659-3.324-2.625-3.221h1.193l2.182 2.795h.545v-2.796h1.006v2.796h.528l2.182-2.796h1.193l-2.608 3.222 2.642 3.324h-1.21l-2.216-2.813h-.511V33.5h-1.006v-2.813h-.511l-2.233 2.813h-1.21Z" fill="#6E84A3"/><rect x="321" y="14" width="68" height="30" rx="15" fill="#F8FAFF"/><path d="M337.057 25.813h1.381c.647 0 1.223.144 1.725.434.503.29.898.693 1.185 1.21.287.517.43 1.117.43 1.799 0 .681-.143 1.282-.43 1.802-.287.52-.682.926-1.185 1.219-.502.293-1.078.439-1.725.439h-1.381c-.648 0-1.223-.145-1.726-.435a3.11 3.11 0 0 1-1.185-1.21c-.287-.517-.43-1.117-.43-1.798 0-.682.143-1.283.43-1.803.287-.52.682-.926 1.185-1.219.503-.292 1.078-.439 1.726-.439Zm0 .937c-.495 0-.912.104-1.253.311-.338.207-.595.5-.771.878-.174.378-.26.822-.26 1.334 0 .505.086.946.26 1.32.176.376.433.667.771.874.341.208.758.311 1.253.311h1.381c.494 0 .91-.103 1.248-.31.341-.208.598-.5.771-.878.177-.378.265-.823.265-1.334 0-.506-.088-.946-.265-1.321a1.955 1.955 0 0 0-.771-.874c-.338-.207-.754-.311-1.248-.311h-1.381Zm1.227-2.13v9.238h-1.057v-9.239h1.057Zm6.134 7.397 3.154-5.063h1.159V33.5h-1.006v-5.063l-3.136 5.063h-1.176v-6.546h1.005v5.063Zm5.575 1.483v-.938h.239a.956.956 0 0 0 .49-.115c.131-.08.236-.217.315-.413.083-.199.145-.474.188-.827.045-.355.078-.806.098-1.355l.119-2.898h4.364V33.5H354.8v-5.608h-2.403l-.103 2.335c-.022.537-.071 1.01-.144 1.42a3.427 3.427 0 0 1-.329 1.022 1.505 1.505 0 0 1-.579.622c-.242.14-.544.209-.908.209h-.341Zm8.527-4.176h1.875c.767 0 1.354.194 1.76.584.406.389.61.882.61 1.478 0 .392-.091.749-.273 1.07a1.983 1.983 0 0 1-.801.763c-.353.187-.784.281-1.296.281h-2.744v-6.546h1.006v5.608h1.738c.398 0 .725-.105.98-.315a1 1 0 0 0 .384-.81c0-.346-.128-.629-.384-.848-.255-.218-.582-.328-.98-.328h-1.875v-.937Zm4.721-1.432v-.938h5.318v.938h-2.148V33.5h-1.005v-5.608h-2.165Zm6.785 8.063v-9h.972v1.04h.119c.074-.114.176-.26.307-.435.133-.18.324-.338.571-.478.25-.142.588-.213 1.014-.213.551 0 1.037.138 1.457.414.421.275.749.666.985 1.171.235.506.353 1.103.353 1.79 0 .694-.118 1.294-.353 1.803-.236.506-.563.898-.98 1.176-.418.276-.9.413-1.445.413-.421 0-.757-.07-1.01-.208a1.879 1.879 0 0 1-.584-.482 6.602 6.602 0 0 1-.315-.452h-.085v3.46h-1.006Zm.989-5.728c0 .495.072.93.217 1.308.145.375.356.67.635.883.278.21.619.315 1.023.315.42 0 .771-.11 1.052-.332.284-.225.497-.526.639-.904.145-.38.218-.804.218-1.27 0-.46-.071-.875-.213-1.244a1.929 1.929 0 0 0-.635-.882c-.282-.219-.635-.328-1.061-.328-.41 0-.753.103-1.032.31a1.869 1.869 0 0 0-.63.862c-.142.366-.213.794-.213 1.282ZM27.216 63h-1.05a.471.471 0 0 1-.297-.093.999.999 0 0 1-.22-.27l-1.986-2.827a.958.958 0 0 0-.148-.181.556.556 0 0 0-.16-.121.573.573 0 0 0-.198-.067 1.212 1.212 0 0 0-.247-.022h-.93V63H20.81v-7.898h1.171v3.416h.798c.161 0 .299-.024.412-.072a.848.848 0 0 0 .336-.302l1.985-2.718a.8.8 0 0 1 .21-.23.495.495 0 0 1 .302-.094h.99l-2.327 3.223a1.418 1.418 0 0 1-.313.33 1.608 1.608 0 0 1-.385.203c.198.052.365.138.5.259.14.117.274.28.402.49L27.216 63Zm3.734-2.48c-.436.014-.806.049-1.11.104a2.985 2.985 0 0 0-.743.209c-.19.088-.328.193-.413.314a.662.662 0 0 0-.126.395c0 .14.022.26.066.364a.75.75 0 0 0 .187.247c.08.062.174.108.28.138.107.029.222.044.347.044a1.909 1.909 0 0 0 .841-.188c.121-.062.237-.137.347-.225.11-.088.218-.189.324-.302v-1.1Zm-3.146-2.327a3.207 3.207 0 0 1 1.012-.665c.367-.147.768-.22 1.205-.22.319 0 .601.053.847.159.245.103.453.248.621.434.169.188.296.411.38.671.088.26.132.549.132.864V63h-.479a.477.477 0 0 1-.242-.05.376.376 0 0 1-.132-.198l-.115-.489c-.143.132-.284.25-.424.352-.139.099-.286.185-.44.258a2.27 2.27 0 0 1-.484.16 2.751 2.751 0 0 1-.572.055c-.22 0-.427-.03-.621-.088a1.343 1.343 0 0 1-.841-.748 1.643 1.643 0 0 1-.122-.654c0-.22.059-.431.176-.633.121-.205.316-.389.583-.55.272-.161.624-.293 1.056-.396.437-.103.972-.161 1.606-.176v-.407c0-.422-.09-.737-.27-.946-.179-.209-.443-.314-.791-.314-.235 0-.433.03-.594.088a2.284 2.284 0 0 0-.413.198 9.57 9.57 0 0 0-.302.193.455.455 0 0 1-.264.088.317.317 0 0 1-.193-.06.523.523 0 0 1-.126-.144l-.193-.346Zm10.34-.781V63h-1.077v-2.574h-2.558V63h-1.072v-5.588h1.072v2.2h2.558v-2.2h1.078Zm4.505 3.108a7.86 7.86 0 0 0-1.111.104 2.985 2.985 0 0 0-.743.209c-.19.088-.328.193-.412.314a.662.662 0 0 0-.127.395c0 .14.022.26.066.364a.75.75 0 0 0 .187.247c.08.062.174.108.28.138a1.3 1.3 0 0 0 .347.044 1.91 1.91 0 0 0 .842-.188c.12-.062.236-.137.346-.225.11-.088.218-.189.325-.302v-1.1Zm-3.146-2.327a3.207 3.207 0 0 1 1.012-.665c.366-.147.768-.22 1.204-.22.32 0 .601.053.847.159.246.103.453.248.622.434.168.188.295.411.38.671.087.26.131.549.131.864V63h-.478a.477.477 0 0 1-.242-.05.376.376 0 0 1-.132-.198l-.116-.489c-.143.132-.284.25-.423.352-.14.099-.286.185-.44.258-.15.07-.312.123-.484.16a2.751 2.751 0 0 1-.572.055c-.22 0-.428-.03-.622-.088a1.342 1.342 0 0 1-.842-.748 1.641 1.641 0 0 1-.12-.654c0-.22.058-.431.176-.633.12-.205.315-.389.583-.55.27-.161.623-.293 1.056-.396.436-.103.971-.161 1.606-.176v-.407c0-.422-.09-.737-.27-.946-.18-.209-.444-.314-.792-.314-.235 0-.433.03-.594.088a2.278 2.278 0 0 0-.412.198c-.114.07-.215.134-.303.193a.455.455 0 0 1-.264.088.317.317 0 0 1-.192-.06.523.523 0 0 1-.127-.144l-.192-.346ZM50.1 63H49.03v-4.746h-1.667a17.4 17.4 0 0 1-.198 1.826c-.088.51-.194.944-.319 1.303a3.693 3.693 0 0 1-.418.869c-.15.22-.311.392-.484.517a1.432 1.432 0 0 1-.522.242c-.18.044-.36.066-.54.066-.333 0-.5-.055-.5-.165v-.676h.297c.125 0 .25-.02.374-.061a.99.99 0 0 0 .374-.247 1.98 1.98 0 0 0 .352-.517c.11-.22.211-.508.303-.864.091-.36.17-.796.236-1.309a24.56 24.56 0 0 0 .154-1.826h3.63V63Zm3.69-.786c.366 0 .641-.088.824-.264a.915.915 0 0 0 .275-.683c0-.124-.02-.242-.06-.352a.712.712 0 0 0-.193-.291.907.907 0 0 0-.346-.198 1.507 1.507 0 0 0-.517-.077h-1.139v1.865h1.155Zm-.017-2.646c.385 0 .71.048.973.143.268.092.483.216.644.374.161.154.277.334.346.539.074.202.11.412.11.633 0 .253-.045.487-.137.704-.088.212-.22.395-.396.55a1.916 1.916 0 0 1-.65.362 2.765 2.765 0 0 1-.874.127h-2.178v-5.588h1.023v2.156h1.139Zm4.323-2.156V63h-1.073v-5.588h1.073ZM67.095 63h-1.078v-4.774h-2.558V63h-1.072v-5.588h4.708V63Zm2.573-1.375c.176.231.365.392.567.484.205.092.434.137.687.137.492 0 .871-.175 1.139-.528.271-.355.407-.872.407-1.55 0-.356-.031-.659-.094-.908a1.647 1.647 0 0 0-.264-.616 1.002 1.002 0 0 0-.423-.352 1.362 1.362 0 0 0-.572-.116c-.312 0-.583.07-.814.21-.228.139-.438.337-.633.593v2.646Zm-.055-3.377c.118-.14.242-.266.374-.38.136-.117.28-.216.435-.297.154-.084.317-.148.49-.192.175-.048.362-.072.56-.072.32 0 .607.063.864.188.26.124.482.308.665.55.184.241.325.54.424.896.103.356.154.764.154 1.226 0 .415-.057.8-.17 1.155a2.77 2.77 0 0 1-.48.919c-.204.26-.457.466-.758.616-.297.147-.633.22-1.007.22-.333 0-.62-.055-.858-.165a2.06 2.06 0 0 1-.638-.462v2.425h-1.072v-7.463h.643c.15 0 .244.072.28.215l.094.621Zm7.541-.924c.41 0 .781.068 1.111.204.334.132.616.324.847.577.235.25.414.552.539.908.125.352.187.748.187 1.188 0 .44-.062.837-.187 1.193a2.519 2.519 0 0 1-.539.907c-.231.25-.513.442-.847.578-.33.132-.7.198-1.111.198-.414 0-.788-.066-1.122-.198a2.402 2.402 0 0 1-.847-.578 2.586 2.586 0 0 1-.544-.907 3.593 3.593 0 0 1-.188-1.194c0-.44.063-.836.188-1.188.128-.355.31-.658.544-.907.235-.253.517-.445.847-.577a2.954 2.954 0 0 1 1.122-.204Zm0 4.917c.528 0 .922-.178 1.183-.533.26-.356.39-.857.39-1.502s-.13-1.146-.39-1.502c-.26-.359-.655-.538-1.183-.538-.535 0-.935.18-1.199.539-.26.355-.39.856-.39 1.501 0 .645.13 1.146.39 1.502.264.355.664.533 1.199.533Zm7.505-.022v-3.965h-1.672a18.923 18.923 0 0 1-.149 1.452c-.062.425-.135.799-.22 1.121-.08.32-.17.595-.27.826a2.972 2.972 0 0 1-.313.566h2.624Zm2.062-.033v2.393c0 .102-.029.183-.088.242a.287.287 0 0 1-.22.088h-.665V63h-4.565v1.6c0 .081-.024.153-.072.215-.047.062-.123.094-.225.094h-.682v-2.69h.181c.129 0 .255-.02.38-.06a.862.862 0 0 0 .357-.242 1.87 1.87 0 0 0 .33-.512c.103-.22.197-.508.28-.864.085-.355.159-.788.22-1.297a27.14 27.14 0 0 0 .15-1.832h3.596v4.774h1.023Zm3.967-1.666c-.437.014-.807.049-1.111.104a2.982 2.982 0 0 0-.743.209c-.19.088-.328.193-.412.314a.662.662 0 0 0-.127.395c0 .14.022.26.066.364.048.099.11.181.187.247.08.062.174.108.28.138a1.3 1.3 0 0 0 .347.044 1.91 1.91 0 0 0 .842-.188c.12-.062.236-.137.346-.225.11-.088.218-.189.325-.302v-1.1Zm-3.146-2.327a3.206 3.206 0 0 1 1.012-.665c.366-.147.768-.22 1.204-.22.32 0 .602.053.847.159.246.103.453.248.622.434.168.188.295.411.38.671.087.26.131.549.131.864V63h-.478a.477.477 0 0 1-.242-.05.376.376 0 0 1-.132-.198l-.116-.489c-.143.132-.284.25-.423.352-.14.099-.286.185-.44.258-.15.07-.312.123-.484.16a2.752 2.752 0 0 1-.572.055c-.22 0-.427-.03-.622-.088a1.342 1.342 0 0 1-.842-.748 1.641 1.641 0 0 1-.12-.654c0-.22.058-.431.176-.633.12-.205.315-.389.583-.55.271-.161.623-.293 1.056-.396.436-.103.971-.161 1.606-.176v-.407c0-.422-.09-.737-.27-.946-.18-.209-.444-.314-.792-.314-.235 0-.433.03-.594.088a2.278 2.278 0 0 0-.412.198c-.114.07-.215.134-.303.193a.456.456 0 0 1-.264.088.317.317 0 0 1-.192-.06.521.521 0 0 1-.127-.144l-.192-.346ZM101.044 63h-.742c-.194 0-.343-.03-.446-.088a.64.64 0 0 1-.236-.286l-1.023-1.688a.843.843 0 0 0-.32-.314.876.876 0 0 0-.434-.105h-.528v2.486H96.27V60.52h-.528a.907.907 0 0 0-.44.105.856.856 0 0 0-.313.313l-1.018 1.689a.66.66 0 0 1-.247.286c-.1.059-.244.088-.435.088h-.742l1.424-2.31c.096-.161.202-.293.32-.396.12-.103.269-.18.445-.231a1.098 1.098 0 0 1-.352-.198 1.56 1.56 0 0 1-.27-.341l-1.419-2.112h.847c.103 0 .197.028.28.083.085.05.151.12.199.209l1.127 1.727a.76.76 0 0 0 .275.275c.11.062.242.093.396.093h.451v-2.392h1.045v2.392h.44c.305 0 .532-.123.682-.368l1.128-1.727a.585.585 0 0 1 .484-.292h.841l-1.419 2.112a1.69 1.69 0 0 1-.275.341.985.985 0 0 1-.346.203c.176.052.323.129.44.232.12.099.23.229.324.39l1.43 2.31Z" fill="#6E84A3"/><path d="M121 73H0v2h121v-2Z" fill="#E3EBF6" mask="url(#path-8-inside-1_529_256)"/><path fill="#F8FAFF" d="M0 74h419v33H0z"/><path d="M25.124 87.439V95h-1.121v-5.202c0-.158.003-.323.01-.495.007-.176.025-.358.053-.548a6.667 6.667 0 0 1-.206.469c-.07.144-.14.272-.21.384l-3.38 5.04a.969.969 0 0 1-.211.241.427.427 0 0 1-.29.111h-.837v-7.561h1.127v5.202c0 .158-.006.325-.016.5a6.484 6.484 0 0 1-.047.548 5.374 5.374 0 0 1 .41-.858l3.386-5.04a1.02 1.02 0 0 1 .205-.242.427.427 0 0 1 .29-.11h.837Zm6.085 2.211V95h-1.032v-2.464h-2.449V95h-1.026v-5.35h1.026v2.106h2.449V89.65h1.032Zm5.918.78H35.11V95h-1.032v-4.57h-2.017v-.78h5.066v.78Zm4.204 1.3c0-.203-.03-.391-.09-.563a1.246 1.246 0 0 0-.252-.448 1.16 1.16 0 0 0-.41-.295 1.389 1.389 0 0 0-.559-.105c-.431 0-.772.125-1.021.374-.246.25-.402.595-.469 1.037h2.801Zm.848 2.507a2.08 2.08 0 0 1-.437.384c-.165.105-.34.191-.526.258-.187.067-.38.116-.58.147a3.678 3.678 0 0 1-.584.048c-.369 0-.711-.062-1.027-.185a2.354 2.354 0 0 1-.816-.547 2.58 2.58 0 0 1-.537-.895 3.692 3.692 0 0 1-.19-1.232c0-.373.058-.718.174-1.038a2.52 2.52 0 0 1 .495-.842 2.32 2.32 0 0 1 .795-.563A2.598 2.598 0 0 1 40 89.566c.327 0 .627.055.9.163.278.106.517.26.717.464.2.203.356.454.468.753.116.298.174.639.174 1.021 0 .158-.018.265-.053.321-.035.053-.1.08-.194.08h-3.507c.01.319.056.598.137.837.08.235.191.431.331.59.144.157.315.275.511.352.197.077.416.116.658.116.229 0 .425-.026.59-.08a2.923 2.923 0 0 0 .737-.341.435.435 0 0 1 .221-.08c.085 0 .15.032.195.095l.295.38Zm2.21-.553c.168.22.349.375.542.463.196.088.416.132.658.132.47 0 .834-.169 1.09-.506.26-.34.39-.835.39-1.485 0-.34-.03-.63-.09-.868a1.575 1.575 0 0 0-.253-.59.96.96 0 0 0-.405-.337 1.305 1.305 0 0 0-.548-.11 1.48 1.48 0 0 0-.78.2c-.217.133-.419.322-.605.568v2.533Zm-.053-3.233a3.19 3.19 0 0 1 .358-.364c.13-.112.268-.207.416-.284.147-.08.303-.142.468-.184.169-.046.348-.069.537-.069.306 0 .581.06.827.18.25.119.462.294.637.526.176.232.31.518.406.858.098.34.147.732.147 1.174 0 .397-.054.766-.163 1.106-.105.337-.258.63-.458.88a2.12 2.12 0 0 1-.727.59c-.284.14-.605.21-.963.21-.32 0-.594-.053-.822-.158a1.973 1.973 0 0 1-.61-.442v2.322h-1.027V89.65h.616c.144 0 .233.069.268.206l.09.595Zm9.446-.8V95H52.75v-2.464h-2.448V95h-1.027v-5.35h1.027v2.106h2.448V89.65h1.032Zm4.98 2.08c0-.204-.03-.392-.089-.564a1.246 1.246 0 0 0-.253-.448 1.16 1.16 0 0 0-.41-.295 1.388 1.388 0 0 0-.558-.105c-.432 0-.773.125-1.022.374-.246.25-.402.595-.469 1.037h2.802Zm.848 2.506a2.08 2.08 0 0 1-.437.384c-.165.105-.34.191-.526.258s-.38.116-.58.147a3.678 3.678 0 0 1-.584.048c-.368 0-.71-.062-1.027-.185a2.353 2.353 0 0 1-.816-.547 2.58 2.58 0 0 1-.537-.895 3.692 3.692 0 0 1-.19-1.232c0-.373.059-.718.174-1.038a2.52 2.52 0 0 1 .495-.842c.218-.239.483-.427.795-.563a2.597 2.597 0 0 1 1.053-.206c.327 0 .627.055.9.163.278.106.517.26.717.464.2.203.356.454.469.753.115.298.173.639.173 1.021 0 .158-.017.265-.052.321-.035.053-.1.08-.195.08h-3.507c.01.319.056.598.137.837.08.235.191.431.332.59.144.157.314.275.51.352.197.077.416.116.659.116.228 0 .424-.026.59-.08a2.929 2.929 0 0 0 .737-.341.435.435 0 0 1 .22-.08c.085 0 .15.032.195.095l.295.38Zm5.592-3.807h-2.017V95h-1.032v-4.57h-2.017v-.78h5.066v.78Zm.582.968h2.633v.874h-2.633v-.874Zm12.158-3.96V95h-.979v-5.381c0-.08.002-.167.005-.258l.021-.28-2.517 4.618c-.087.172-.222.258-.405.258h-.158c-.183 0-.316-.085-.4-.257l-2.564-4.634c.02.197.031.38.031.553V95h-.984v-7.561h.832c.098 0 .173.01.226.032.056.017.109.07.158.157l2.527 4.529c.05.091.095.188.137.29.042.101.083.203.121.305.074-.207.16-.407.258-.6l2.48-4.523c.046-.088.095-.14.148-.159a.682.682 0 0 1 .231-.031h.832Zm4.391 5.187a7.52 7.52 0 0 0-1.064.1c-.29.05-.528.116-.71.2a.953.953 0 0 0-.395.3.633.633 0 0 0-.121.38c0 .133.02.249.063.347a.716.716 0 0 0 .179.237c.077.06.167.104.268.132.102.028.213.042.332.042a1.828 1.828 0 0 0 .806-.18c.115-.059.226-.13.331-.215.106-.084.21-.18.311-.29v-1.053Zm-3.012-2.227c.299-.284.622-.497.97-.637.35-.14.734-.21 1.152-.21.306 0 .576.05.811.152.235.098.434.237.595.416.162.179.283.393.363.642.085.25.127.525.127.827V95h-.458a.457.457 0 0 1-.232-.047.36.36 0 0 1-.126-.19l-.11-.469a4.783 4.783 0 0 1-.406.337 2.816 2.816 0 0 1-.422.248 2.174 2.174 0 0 1-.463.153 2.637 2.637 0 0 1-.547.052c-.211 0-.41-.028-.596-.084a1.285 1.285 0 0 1-.806-.716 1.57 1.57 0 0 1-.115-.627c0-.21.056-.412.168-.605.116-.197.302-.372.559-.527.26-.154.596-.28 1.01-.379.418-.098.93-.154 1.538-.168v-.39c0-.404-.086-.706-.258-.906-.172-.2-.425-.3-.758-.3-.225 0-.414.028-.569.084-.15.057-.282.12-.395.19a9.114 9.114 0 0 0-.29.184.437.437 0 0 1-.252.085.303.303 0 0 1-.184-.058.5.5 0 0 1-.121-.137l-.185-.332Zm8.899.032h-2.48V95h-1.027v-5.35h3.507v.78Zm3.687 2.195a7.522 7.522 0 0 0-1.063.1c-.291.05-.528.116-.711.2a.953.953 0 0 0-.395.3.633.633 0 0 0-.121.38c0 .133.021.249.063.347a.716.716 0 0 0 .18.237c.076.06.166.104.268.132.102.028.212.042.331.042a1.828 1.828 0 0 0 .806-.18c.116-.059.226-.13.332-.215.105-.084.209-.18.31-.29v-1.053Zm-3.011-2.227c.298-.284.62-.497.968-.637.352-.14.736-.21 1.154-.21.305 0 .575.05.81.152.236.098.434.237.595.416.162.179.283.393.364.642.084.25.126.525.126.827V95h-.458a.457.457 0 0 1-.232-.047.36.36 0 0 1-.126-.19l-.11-.469a4.798 4.798 0 0 1-.406.337 2.812 2.812 0 0 1-.421.248 2.173 2.173 0 0 1-.464.153 2.637 2.637 0 0 1-.547.052c-.21 0-.41-.028-.595-.084a1.285 1.285 0 0 1-.806-.716 1.572 1.572 0 0 1-.116-.627c0-.21.056-.412.169-.605.116-.197.302-.372.558-.527.26-.154.597-.28 1.01-.379.419-.098.931-.154 1.538-.168v-.39c0-.404-.086-.706-.258-.906-.172-.2-.424-.3-.758-.3-.225 0-.414.028-.569.084-.15.057-.282.12-.394.19a9.114 9.114 0 0 0-.29.184.436.436 0 0 1-.253.085.303.303 0 0 1-.184-.058.502.502 0 0 1-.121-.137l-.184-.332Zm5.055-.19c.2-.189.445-.343.737-.463.291-.12.64-.179 1.048-.179.326 0 .614.04.863.121.25.078.458.183.627.316.172.13.3.28.384.448.088.168.132.344.132.526 0 .106-.018.216-.053.332a1.077 1.077 0 0 1-.158.326 1.303 1.303 0 0 1-.295.295c-.12.088-.268.162-.447.221.33.102.591.264.784.485.193.221.29.496.29.827 0 .249-.058.473-.174.674-.112.2-.265.37-.458.51a2.219 2.219 0 0 1-.669.316c-.252.074-.516.11-.79.11a2.823 2.823 0 0 1-1.043-.195 2.422 2.422 0 0 1-.489-.257 1.954 1.954 0 0 1-.416-.384l.295-.38a.226.226 0 0 1 .195-.094c.067 0 .135.028.205.084.074.053.162.11.264.174.105.063.23.123.373.179.148.052.33.079.548.079.186 0 .351-.023.495-.069.147-.045.27-.109.368-.19a.814.814 0 0 0 .232-.284.812.812 0 0 0 .08-.358.713.713 0 0 0-.312-.605c-.207-.151-.526-.227-.958-.227h-.605v-.684h.605c.38 0 .674-.07.885-.21.21-.145.316-.329.316-.554a.597.597 0 0 0-.069-.279.642.642 0 0 0-.21-.237.998.998 0 0 0-.348-.163 1.774 1.774 0 0 0-.479-.058 1.985 1.985 0 0 0-.874.195 2.93 2.93 0 0 0-.248.137.328.328 0 0 1-.163.058.28.28 0 0 1-.126-.026.42.42 0 0 1-.105-.122l-.237-.394Zm9.711-.558V95h-1.032v-3.496a3.369 3.369 0 0 1 .042-.495c-.035.074-.07.144-.105.21-.032.064-.065.12-.1.169l-2.459 3.354a.792.792 0 0 1-.153.179.316.316 0 0 1-.216.084h-.62V89.65h1.026v3.502a3.027 3.027 0 0 1-.042.49c.07-.155.138-.28.205-.374l2.459-3.36a.881.881 0 0 1 .153-.173.333.333 0 0 1 .221-.085h.621Zm5.941 0V95h-1.032v-2.464h-2.448V95h-1.027v-5.35h1.027v2.106h2.448V89.65h1.032Z" fill="#334155"/><path fill="#fff" d="M0 107h419v33H0z"/><path d="M25.977 124.219a4.3 4.3 0 0 1-.274 1.559A3.59 3.59 0 0 1 24.94 127c-.33.34-.725.605-1.185.795-.46.189-.97.284-1.532.284a4.02 4.02 0 0 1-1.532-.284 3.483 3.483 0 0 1-1.185-.795 3.698 3.698 0 0 1-.764-1.222 4.302 4.302 0 0 1-.273-1.559c0-.561.09-1.079.273-1.553.183-.474.437-.881.764-1.221a3.44 3.44 0 0 1 1.185-.801 3.947 3.947 0 0 1 1.532-.289c.562 0 1.072.096 1.532.289.46.19.855.457 1.185.801.33.34.584.747.763 1.221.183.474.274.992.274 1.553Zm-1.148 0c0-.449-.061-.853-.184-1.211a2.555 2.555 0 0 0-.527-.91 2.228 2.228 0 0 0-.821-.574c-.32-.134-.678-.2-1.074-.2-.397 0-.757.066-1.08.2-.319.133-.593.324-.821.574a2.553 2.553 0 0 0-.526.91 3.718 3.718 0 0 0-.185 1.211c0 .453.062.859.184 1.217.123.354.299.656.527.905.228.25.502.441.821.574.323.13.683.195 1.08.195.396 0 .755-.065 1.074-.195.323-.133.597-.324.821-.574.229-.249.404-.551.527-.905.123-.358.184-.764.184-1.217Zm7.483-3.364a.646.646 0 0 1-.115.363l-4.176 5.871h4.218V128h-5.687v-.442c0-.06.009-.116.026-.169a.916.916 0 0 1 .08-.152l4.185-5.887h-4.08v-.911h5.55v.416Zm8.124 3.364a4.3 4.3 0 0 1-.274 1.559c-.179.47-.433.878-.763 1.222a3.48 3.48 0 0 1-1.185.795c-.46.189-.97.284-1.532.284a4.02 4.02 0 0 1-1.532-.284 3.483 3.483 0 0 1-1.185-.795 3.698 3.698 0 0 1-.763-1.222 4.302 4.302 0 0 1-.274-1.559c0-.561.091-1.079.274-1.553.182-.474.437-.881.763-1.221a3.44 3.44 0 0 1 1.185-.801 3.947 3.947 0 0 1 1.532-.289c.562 0 1.072.096 1.532.289.46.19.855.457 1.185.801.33.34.584.747.763 1.221.183.474.274.992.274 1.553Zm-1.148 0a3.72 3.72 0 0 0-.184-1.211 2.554 2.554 0 0 0-.526-.91 2.227 2.227 0 0 0-.822-.574c-.32-.134-.677-.2-1.074-.2s-.756.066-1.08.2c-.319.133-.593.324-.82.574a2.553 2.553 0 0 0-.527.91 3.718 3.718 0 0 0-.185 1.211c0 .453.062.859.185 1.217.122.354.298.656.526.905.228.25.502.441.822.574.323.13.682.195 1.079.195.397 0 .755-.065 1.074-.195.323-.133.597-.324.822-.574.228-.249.403-.551.526-.905a3.74 3.74 0 0 0 .184-1.217Zm8.749-3.78V128h-.569a.476.476 0 0 1-.221-.047.681.681 0 0 1-.174-.153l-4.27-5.523c.007.094.012.187.016.279.007.091.01.177.01.258V128h-.985v-7.561h.58c.098 0 .172.012.22.037.05.021.104.072.164.152l4.28 5.529a9.87 9.87 0 0 1-.026-.295 7.687 7.687 0 0 1-.005-.274v-5.149h.98Zm5.66.911v2.532h3.033v.911h-3.032V128H52.57v-7.561h4.686v.911h-3.56Zm7.53 5.76c.284 0 .526-.033.726-.1a1.34 1.34 0 0 0 .495-.274c.13-.116.224-.252.284-.41.06-.162.09-.337.09-.527 0-.376-.13-.67-.39-.885-.26-.217-.662-.326-1.206-.326h-1.58v2.522h1.58Zm-1.58-5.792v2.475h1.29c.55 0 .96-.111 1.226-.332.27-.224.406-.526.406-.905 0-.432-.128-.746-.385-.943-.256-.196-.654-.295-1.195-.295h-1.342Zm1.342-.879c.474 0 .88.046 1.217.137.34.091.62.223.837.395.217.172.377.381.479.626.105.243.158.518.158.827a1.558 1.558 0 0 1-.342 1 1.895 1.895 0 0 1-.437.39 2.568 2.568 0 0 1-.622.29c1.099.217 1.648.791 1.648 1.721 0 .323-.06.618-.179.885-.119.263-.293.491-.521.684a2.39 2.39 0 0 1-.842.448 3.783 3.783 0 0 1-1.138.158h-2.722v-7.561h2.464Zm8.287 1.232a.426.426 0 0 1-.11.132.245.245 0 0 1-.148.042.394.394 0 0 1-.216-.084 3.068 3.068 0 0 0-.305-.195 2.043 2.043 0 0 0-.432-.195 1.81 1.81 0 0 0-.605-.09c-.222 0-.416.03-.585.09a1.168 1.168 0 0 0-.416.237.983.983 0 0 0-.258.353 1.113 1.113 0 0 0-.084.437c0 .203.05.372.152.505.106.134.243.248.411.342.169.095.36.178.574.248.214.07.434.144.658.221.225.074.444.16.658.258.215.098.406.223.574.374.169.147.304.33.406.547.105.215.158.478.158.79 0 .334-.058.646-.174.937a2.172 2.172 0 0 1-.495.764c-.218.218-.486.39-.805.516a2.958 2.958 0 0 1-1.08.184c-.242 0-.477-.024-.706-.073a3.517 3.517 0 0 1-.647-.195 3.651 3.651 0 0 1-.574-.311 2.979 2.979 0 0 1-.474-.411l.321-.537a.447.447 0 0 1 .11-.105.286.286 0 0 1 .154-.042c.073 0 .158.038.252.116.099.077.218.163.358.258.144.091.315.175.511.252.2.078.442.116.727.116.231 0 .438-.03.621-.089.183-.063.335-.151.458-.264.126-.115.223-.254.29-.415a1.4 1.4 0 0 0 .1-.538.902.902 0 0 0-.153-.542 1.253 1.253 0 0 0-.405-.353 3.04 3.04 0 0 0-.574-.242l-.658-.205a7.097 7.097 0 0 1-.659-.253 2.176 2.176 0 0 1-.574-.369 1.707 1.707 0 0 1-.405-.573c-.102-.232-.153-.516-.153-.853a2.021 2.021 0 0 1 .616-1.454 2.25 2.25 0 0 1 .748-.468c.295-.12.632-.179 1.011-.179.425 0 .814.068 1.169.205.358.133.669.326.932.579l-.274.532Z" fill="#334155"/><path fill="#F8FAFF" d="M0 140h419v33H0z"/><path d="M28.805 153.439 26.445 161h-1.01l-1.843-5.608a2.63 2.63 0 0 1-.11-.405 5.51 5.51 0 0 1-.111.405L21.507 161H20.5l-2.359-7.561h.937c.099 0 .181.025.248.074.067.045.11.108.131.189l1.49 5.06c.029.099.053.206.074.321.025.116.05.237.074.364l.074-.364c.028-.115.06-.222.095-.321l1.706-5.06a.371.371 0 0 1 .131-.184.399.399 0 0 1 .248-.079h.32a.384.384 0 0 1 .38.263l1.7 5.06c.064.193.12.413.17.658a9.38 9.38 0 0 1 .136-.658l1.495-5.06a.332.332 0 0 1 .132-.184.399.399 0 0 1 .247-.079h.875Zm3.77 6.671c.284 0 .527-.033.727-.1a1.34 1.34 0 0 0 .495-.274c.13-.116.224-.252.284-.41.06-.162.09-.337.09-.527 0-.376-.13-.67-.39-.885-.26-.217-.662-.326-1.206-.326h-1.58v2.522h1.58Zm-1.58-5.792v2.475h1.29c.552 0 .96-.111 1.227-.332.27-.224.406-.526.406-.905 0-.432-.128-.746-.385-.943-.256-.196-.654-.295-1.195-.295h-1.342Zm1.343-.879c.474 0 .88.046 1.217.137.34.091.62.223.837.395.217.172.377.381.479.626.105.243.158.518.158.827a1.563 1.563 0 0 1-.342 1 1.895 1.895 0 0 1-.437.39 2.568 2.568 0 0 1-.622.29c1.099.217 1.648.791 1.648 1.721 0 .323-.06.618-.179.885-.119.263-.293.491-.521.684a2.39 2.39 0 0 1-.842.448 3.783 3.783 0 0 1-1.138.158h-2.722v-7.561h2.464Zm8.165.911v2.532h3.033v.911h-3.033V161h-1.127v-7.561h4.687v.911h-3.56Zm7.529 5.76c.284 0 .527-.033.727-.1a1.34 1.34 0 0 0 .495-.274c.13-.116.224-.252.284-.41.06-.162.09-.337.09-.527 0-.376-.13-.67-.39-.885-.26-.217-.662-.326-1.206-.326h-1.58v2.522h1.58Zm-1.58-5.792v2.475h1.29c.551 0 .96-.111 1.227-.332.27-.224.406-.526.406-.905 0-.432-.129-.746-.385-.943-.256-.196-.654-.295-1.195-.295h-1.343Zm1.343-.879c.474 0 .88.046 1.216.137.34.091.62.223.837.395.218.172.378.381.48.626.105.243.158.518.158.827 0 .183-.028.358-.085.527a1.558 1.558 0 0 1-.258.473 1.895 1.895 0 0 1-.437.39 2.568 2.568 0 0 1-.621.29c1.099.217 1.648.791 1.648 1.721 0 .323-.06.618-.179.885-.12.263-.293.491-.521.684a2.391 2.391 0 0 1-.843.448 3.783 3.783 0 0 1-1.137.158h-2.722v-7.561h2.464Zm8.287 1.232a.426.426 0 0 1-.11.132.245.245 0 0 1-.148.042.394.394 0 0 1-.216-.084 3.045 3.045 0 0 0-.305-.195 2.043 2.043 0 0 0-.432-.195 1.81 1.81 0 0 0-.606-.09c-.22 0-.416.03-.584.09a1.168 1.168 0 0 0-.416.237.985.985 0 0 0-.258.353 1.113 1.113 0 0 0-.084.437c0 .203.05.372.152.505.106.134.242.248.41.342.17.095.36.178.575.248.214.07.433.144.658.221.225.074.444.16.658.258.214.098.406.223.574.374.169.147.304.33.406.547.105.215.157.478.157.79 0 .334-.057.646-.173.937a2.172 2.172 0 0 1-.495.764c-.218.218-.486.39-.806.516a2.958 2.958 0 0 1-1.08.184 3.35 3.35 0 0 1-.705-.073 3.515 3.515 0 0 1-.647-.195 3.651 3.651 0 0 1-.574-.311 2.979 2.979 0 0 1-.474-.411l.321-.537a.45.45 0 0 1 .11-.105.286.286 0 0 1 .153-.042c.074 0 .158.038.253.116.098.077.218.163.358.258.144.091.314.175.51.252.2.078.443.116.727.116.232 0 .44-.03.622-.089.182-.063.335-.151.458-.264.126-.115.223-.254.29-.415a1.4 1.4 0 0 0 .1-.538.902.902 0 0 0-.153-.542 1.253 1.253 0 0 0-.406-.353 3.04 3.04 0 0 0-.574-.242l-.658-.205a7.095 7.095 0 0 1-.658-.253 2.174 2.174 0 0 1-.574-.369 1.707 1.707 0 0 1-.405-.573c-.102-.232-.153-.516-.153-.853a2.022 2.022 0 0 1 .616-1.454 2.25 2.25 0 0 1 .748-.468c.295-.12.632-.179 1.01-.179.425 0 .815.068 1.17.205.358.133.668.326.932.579l-.274.532Z" fill="#334155"/><path fill="#fff" d="M0 173h419v33H0z"/><path d="M22.986 189.893v-2.569H21.55c-.284 0-.527.031-.727.094-.2.06-.363.146-.49.258a1.02 1.02 0 0 0-.279.406 1.497 1.497 0 0 0-.084.516c0 .2.028.381.084.542.06.162.151.298.274.411.127.109.29.193.49.253.2.059.442.089.727.089h1.442ZM24.108 194h-1.122v-3.222h-.963c-.091 0-.177.008-.258.026a.886.886 0 0 0-.463.253c-.074.07-.15.161-.227.273l-1.564 2.27a.82.82 0 0 1-.284.295.79.79 0 0 1-.416.105h-.843l1.901-2.733c.207-.316.458-.54.753-.674a2.913 2.913 0 0 1-.774-.273 2.04 2.04 0 0 1-.553-.438 1.816 1.816 0 0 1-.326-.579 2.219 2.219 0 0 1-.106-.695c0-.323.06-.618.18-.884a1.88 1.88 0 0 1 .52-.685c.233-.189.513-.337.843-.442a3.802 3.802 0 0 1 1.143-.158h2.559V194Zm6.083-5.35V194h-1.032v-2.464H26.71V194h-1.026v-5.35h1.026v2.107h2.449v-2.107h1.032Zm5.09 4.602v-3.796h-1.6c-.035.52-.082.983-.142 1.39-.06.407-.13.765-.21 1.074a5.323 5.323 0 0 1-.259.79 2.835 2.835 0 0 1-.3.542h2.512Zm1.975-.031v2.29a.314.314 0 0 1-.084.232.275.275 0 0 1-.21.084h-.638V194h-4.37v1.532a.332.332 0 0 1-.068.206c-.046.059-.118.089-.216.089h-.653v-2.575h.174c.123 0 .244-.019.363-.058a.816.816 0 0 0 .342-.231c.112-.116.218-.279.316-.49.098-.211.188-.486.269-.827.08-.34.15-.754.21-1.242.06-.492.107-1.076.142-1.754h3.444v4.571h.98Zm4.374-2.491c0-.203-.03-.391-.09-.563a1.175 1.175 0 0 0-.663-.743 1.392 1.392 0 0 0-.559-.105c-.431 0-.772.125-1.021.374-.246.249-.402.595-.469 1.037h2.802Zm.847 2.507a2.098 2.098 0 0 1-.437.384c-.165.105-.34.191-.526.258a3.63 3.63 0 0 1-1.164.195c-.368 0-.71-.062-1.027-.185a2.344 2.344 0 0 1-.816-.547 2.583 2.583 0 0 1-.537-.895 3.695 3.695 0 0 1-.19-1.232c0-.372.059-.718.174-1.038.116-.323.281-.603.495-.842a2.32 2.32 0 0 1 .795-.564 2.612 2.612 0 0 1 1.053-.205c.327 0 .627.055.9.163.278.106.517.26.717.464.2.203.356.454.468.753.116.298.174.639.174 1.021 0 .158-.017.265-.052.321-.035.053-.1.079-.195.079h-3.507c.01.32.056.599.137.838.08.235.191.431.332.589.144.158.314.276.51.353.197.077.416.116.659.116.228 0 .424-.026.59-.079a2.926 2.926 0 0 0 .736-.342.431.431 0 0 1 .222-.079c.084 0 .149.031.194.094l.295.38Zm4.416-4.308a.652.652 0 0 1 .21-.2.54.54 0 0 1 .28-.079h.805l-1.353 2.022a1.625 1.625 0 0 1-.263.327.945.945 0 0 1-.337.195c.168.049.31.122.426.221.116.094.22.219.31.374L48.337 194h-.711c-.186 0-.33-.03-.432-.09a.806.806 0 0 1-.253-.268l-.98-1.617a.81.81 0 0 0-.305-.3.846.846 0 0 0-.416-.1h-.552v2.38H43.66v-5.355h1.027v2.286h.484c.148 0 .272-.03.374-.09a.769.769 0 0 0 .268-.263l1.08-1.654Zm5.833.722a.654.654 0 0 1-.095.095c-.028.021-.07.031-.127.031a.327.327 0 0 1-.179-.063 1.55 1.55 0 0 0-.231-.142 1.676 1.676 0 0 0-.337-.142 1.465 1.465 0 0 0-.485-.069c-.252 0-.475.046-.668.137a1.304 1.304 0 0 0-.485.39 1.82 1.82 0 0 0-.29.616c-.066.242-.1.514-.1.816 0 .312.036.591.106.837.07.242.17.448.3.616.13.165.288.292.474.379.186.085.393.127.621.127.221 0 .404-.027.548-.079.144-.056.263-.116.358-.179.095-.064.174-.121.237-.174a.293.293 0 0 1 .195-.084c.084 0 .149.031.194.094l.295.38c-.123.15-.261.279-.416.384-.15.105-.312.191-.484.258a2.681 2.681 0 0 1-.542.147 3.348 3.348 0 0 1-.57.048c-.333 0-.645-.062-.936-.185a2.128 2.128 0 0 1-.753-.537 2.6 2.6 0 0 1-.5-.863 3.465 3.465 0 0 1-.185-1.169c0-.397.055-.764.163-1.101.113-.337.276-.626.49-.868.218-.246.485-.437.8-.574a2.636 2.636 0 0 1 1.085-.211 2.6 2.6 0 0 1 1.011.184c.291.123.551.297.78.522l-.274.379Zm12.115-3.212V194h-.98v-5.381c0-.081.002-.167.006-.258l.02-.279-2.516 4.617c-.088.172-.223.258-.406.258h-.158a.419.419 0 0 1-.4-.258l-2.564-4.633c.021.197.031.381.031.553V194h-.984v-7.561h.832c.098 0 .174.01.226.032.056.017.11.07.158.157l2.528 4.529c.049.091.094.187.136.289.043.102.083.204.122.306.073-.207.16-.408.258-.601l2.48-4.523c.045-.087.094-.14.147-.157a.657.657 0 0 1 .232-.032h.832Zm4.39 5.186a7.611 7.611 0 0 0-1.063.1c-.292.05-.529.116-.711.2a.96.96 0 0 0-.395.301.632.632 0 0 0-.121.379c0 .133.021.249.063.347a.712.712 0 0 0 .18.237c.076.06.166.104.268.132.102.028.212.042.331.042a1.846 1.846 0 0 0 .806-.179c.116-.06.226-.132.332-.216.105-.084.209-.181.31-.29v-1.053Zm-3.011-2.227c.298-.284.62-.497.968-.637.351-.14.736-.211 1.153-.211.306 0 .576.051.811.153.236.098.434.237.595.416.162.179.283.393.364.642.084.25.126.525.126.827V194h-.458a.463.463 0 0 1-.232-.047.362.362 0 0 1-.126-.19l-.11-.469a4.617 4.617 0 0 1-.406.337 2.785 2.785 0 0 1-.421.248 2.208 2.208 0 0 1-.464.153 2.644 2.644 0 0 1-.547.052c-.21 0-.41-.028-.595-.084a1.362 1.362 0 0 1-.48-.269 1.28 1.28 0 0 1-.326-.447 1.573 1.573 0 0 1-.116-.627c0-.21.056-.412.169-.605.116-.197.302-.372.558-.527.26-.154.597-.281 1.01-.379.419-.098.931-.154 1.538-.168v-.39c0-.404-.086-.706-.258-.906-.172-.2-.424-.3-.758-.3-.225 0-.414.028-.569.085-.15.056-.282.119-.394.189-.11.067-.206.128-.29.184a.431.431 0 0 1-.253.085.307.307 0 0 1-.184-.058.515.515 0 0 1-.121-.137l-.184-.332Zm6.418 3.286c.169.221.35.375.543.463.196.088.416.132.658.132.47 0 .834-.169 1.09-.506.26-.34.39-.835.39-1.485 0-.34-.03-.63-.09-.868a1.57 1.57 0 0 0-.253-.59.953.953 0 0 0-.405-.337 1.3 1.3 0 0 0-.548-.111c-.298 0-.558.067-.78.2-.217.134-.419.323-.605.569v2.533Zm-.052-3.233c.112-.134.231-.255.358-.364.13-.112.268-.207.416-.284.147-.081.303-.142.468-.184.169-.046.348-.069.537-.069.306 0 .581.06.827.179.25.12.462.295.637.527.176.232.31.518.406.858.098.341.147.732.147 1.174 0 .397-.054.766-.163 1.106-.105.337-.258.63-.458.879-.197.25-.44.446-.727.59a2.14 2.14 0 0 1-.964.211c-.319 0-.593-.053-.82-.158a1.977 1.977 0 0 1-.612-.443v2.322h-1.026v-7.145h.616c.144 0 .233.069.268.206l.09.595Zm8.172-.522a.65.65 0 0 1 .21-.2.54.54 0 0 1 .28-.079h.805l-1.353 2.022a1.624 1.624 0 0 1-.263.327.945.945 0 0 1-.337.195c.168.049.31.122.426.221.116.094.22.219.31.374L82.202 194h-.711c-.186 0-.33-.03-.432-.09a.806.806 0 0 1-.253-.268l-.98-1.617a.812.812 0 0 0-.305-.3.846.846 0 0 0-.416-.1h-.552v2.38h-1.027v-5.355h1.027v2.286h.484c.147 0 .272-.03.374-.09a.769.769 0 0 0 .268-.263l1.08-1.654Zm5.627 1.801c0-.203-.03-.391-.09-.563a1.175 1.175 0 0 0-.663-.743 1.392 1.392 0 0 0-.558-.105c-.432 0-.772.125-1.021.374-.246.249-.402.595-.469 1.037h2.801Zm.848 2.507a2.096 2.096 0 0 1-.437.384 2.65 2.65 0 0 1-.527.258 3.633 3.633 0 0 1-1.164.195c-.368 0-.71-.062-1.026-.185a2.344 2.344 0 0 1-.816-.547 2.583 2.583 0 0 1-.537-.895 3.693 3.693 0 0 1-.19-1.232c0-.372.058-.718.174-1.038a2.52 2.52 0 0 1 .495-.842 2.32 2.32 0 0 1 .795-.564 2.613 2.613 0 0 1 1.053-.205c.326 0 .627.055.9.163.278.106.516.26.716.464.2.203.357.454.47.753.115.298.173.639.173 1.021 0 .158-.018.265-.053.321-.035.053-.1.079-.195.079h-3.506c.01.32.056.599.137.838.08.235.19.431.331.589.144.158.315.276.511.353.197.077.416.116.658.116.228 0 .425-.026.59-.079a2.922 2.922 0 0 0 .737-.342.431.431 0 0 1 .221-.079c.085 0 .15.031.195.094l.295.38Zm5.591-3.807h-2.016V194h-1.032v-4.57h-2.017v-.78h5.065v.78Zm4.858-2.08v2.532h3.033v.911h-3.033V194h-1.127v-7.561h4.686v.911h-3.56Zm7.529 5.76c.284 0 .526-.033.726-.1.204-.067.369-.158.495-.274.13-.116.225-.252.284-.41.06-.162.09-.337.09-.527 0-.376-.13-.67-.39-.885-.259-.217-.661-.326-1.205-.326h-1.58v2.522h1.58Zm-1.58-5.792v2.475h1.29c.551 0 .96-.111 1.227-.332.27-.224.405-.526.405-.905 0-.432-.128-.746-.384-.943-.256-.196-.655-.295-1.195-.295h-1.343Zm1.343-.879c.473 0 .879.046 1.216.137.34.091.619.223.837.395.218.172.377.381.479.626.106.243.158.518.158.827 0 .183-.028.358-.084.527a1.554 1.554 0 0 1-.258.473 1.91 1.91 0 0 1-.437.39 2.588 2.588 0 0 1-.621.29c1.098.217 1.648.791 1.648 1.721 0 .323-.06.618-.179.885-.12.263-.293.491-.522.684a2.391 2.391 0 0 1-.842.448 3.787 3.787 0 0 1-1.137.158h-2.723v-7.561h2.465Zm8.286 1.232a.432.432 0 0 1-.11.132.247.247 0 0 1-.148.042.395.395 0 0 1-.216-.084 2.945 2.945 0 0 0-.305-.195 2.025 2.025 0 0 0-.432-.195c-.168-.06-.37-.09-.605-.09-.221 0-.416.03-.585.09a1.174 1.174 0 0 0-.416.237.993.993 0 0 0-.258.353 1.116 1.116 0 0 0-.084.437c0 .203.051.372.153.505.105.134.242.248.411.342.168.095.359.178.573.248.215.07.434.144.659.221.224.074.444.16.658.258.214.098.405.223.574.374.168.147.303.33.405.547.105.215.158.478.158.79 0 .334-.058.646-.174.937a2.162 2.162 0 0 1-.495.764c-.217.218-.486.39-.805.516a2.96 2.96 0 0 1-1.08.184c-.242 0-.477-.024-.705-.073a3.532 3.532 0 0 1-.648-.195 3.679 3.679 0 0 1-.574-.311 3.029 3.029 0 0 1-.474-.411l.322-.537a.438.438 0 0 1 .11-.105.289.289 0 0 1 .153-.042c.074 0 .158.038.253.116.098.077.217.163.358.258.144.091.314.175.51.252.2.078.443.116.727.116.232 0 .439-.03.621-.089.183-.063.336-.151.458-.264.127-.115.223-.254.29-.415.067-.162.1-.341.1-.538a.9.9 0 0 0-.153-.542 1.248 1.248 0 0 0-.405-.353 3.057 3.057 0 0 0-.574-.242l-.658-.205a7.039 7.039 0 0 1-.658-.253 2.17 2.17 0 0 1-.574-.369 1.704 1.704 0 0 1-.406-.573c-.101-.232-.152-.516-.152-.853a2.009 2.009 0 0 1 .616-1.454 2.24 2.24 0 0 1 .747-.468c.295-.12.632-.179 1.011-.179.425 0 .815.068 1.169.205.358.133.669.326.932.579l-.274.532Z" fill="#334155"/></g><rect x=".5" y=".5" width="398" height="214" rx="19.5" stroke="#E3EBF6"/><g clip-path="url(#b)"><rect x="121" y="44" width="586.437" height="316" rx="29.395" fill="#fff"/><rect x="121" y="-114.735" width="621.712" height="684.912" rx="16.167" fill="#fff"/><path stroke="#E3EBF6" stroke-width="1.47" d="m143.047 160.847 577.618-.001M143.047 332.809h577.618"/><path d="M143.965 127.695c.074-.494.212-.928.414-1.303a3.113 3.113 0 0 1 1.813-1.517c.4-.128.829-.192 1.288-.192.458 0 .88.066 1.265.199.385.129.713.314.984.555.277.237.491.523.644.859.153.335.23.705.23 1.11 0 .34-.042.641-.126.903a2.133 2.133 0 0 1-.363.688c-.153.197-.34.365-.562.503a3.58 3.58 0 0 1-.748.333c.676.188 1.184.494 1.525.918.34.419.51.952.51 1.598 0 .499-.093.948-.281 1.347-.187.395-.444.73-.769 1.007a3.563 3.563 0 0 1-1.14.629 4.327 4.327 0 0 1-1.377.214c-.557 0-1.036-.066-1.435-.2-.4-.138-.74-.328-1.021-.569a3.226 3.226 0 0 1-.703-.881 6.735 6.735 0 0 1-.467-1.132l.629-.267a.81.81 0 0 1 .474-.059c.153.03.264.116.333.259l.252.503c.098.183.229.358.392.526.163.163.365.301.607.414.246.114.555.17.925.17.355 0 .666-.056.932-.17.266-.118.488-.269.666-.451a1.917 1.917 0 0 0 .533-1.295c0-.277-.035-.531-.104-.762a1.204 1.204 0 0 0-.399-.593c-.193-.167-.462-.298-.807-.392-.345-.093-.794-.14-1.347-.14v-1.051c.454-.005.836-.052 1.147-.141.316-.089.57-.212.762-.37.193-.158.331-.345.415-.562.089-.217.133-.459.133-.725 0-.292-.044-.546-.133-.763a1.424 1.424 0 0 0-.378-.54 1.438 1.438 0 0 0-.569-.325 2.164 2.164 0 0 0-.711-.112c-.256 0-.493.037-.71.112a1.836 1.836 0 0 0-.999.784c-.114.182-.195.38-.244.592-.07.187-.158.313-.267.377-.103.065-.254.079-.451.045l-.762-.133Zm15.822 2.419c0 .928-.101 1.732-.303 2.413-.197.681-.471 1.246-.821 1.695a3.28 3.28 0 0 1-1.229.991 3.567 3.567 0 0 1-1.517.326 3.611 3.611 0 0 1-1.524-.326 3.286 3.286 0 0 1-1.221-.991c-.346-.449-.617-1.014-.814-1.695-.198-.681-.296-1.485-.296-2.413 0-.927.098-1.731.296-2.412.197-.686.468-1.251.814-1.695a3.261 3.261 0 0 1 1.221-.999 3.61 3.61 0 0 1 1.524-.325c.543 0 1.048.108 1.517.325.474.217.883.55 1.229.999.35.444.624 1.009.821 1.695.202.681.303 1.485.303 2.412Zm-1.494 0c0-.799-.067-1.467-.2-2.005-.128-.538-.304-.969-.526-1.295-.217-.331-.468-.565-.754-.703a2.042 2.042 0 0 0-1.791 0c-.286.138-.541.372-.763.703-.217.326-.389.757-.518 1.295-.128.538-.192 1.206-.192 2.005 0 .8.064 1.468.192 2.006.129.538.301.969.518 1.295.222.326.477.557.763.696a2.034 2.034 0 0 0 1.791 0c.286-.139.537-.37.754-.696.222-.326.398-.757.526-1.295.133-.538.2-1.206.2-2.006Zm10.08 0c0 .928-.101 1.732-.303 2.413-.198.681-.472 1.246-.822 1.695a3.276 3.276 0 0 1-1.228.991 3.57 3.57 0 0 1-1.517.326 3.619 3.619 0 0 1-1.525-.326 3.286 3.286 0 0 1-1.221-.991c-.345-.449-.617-1.014-.814-1.695-.197-.681-.296-1.485-.296-2.413 0-.927.099-1.731.296-2.412.197-.686.469-1.251.814-1.695a3.261 3.261 0 0 1 1.221-.999 3.618 3.618 0 0 1 1.525-.325 3.57 3.57 0 0 1 1.517.325c.473.217.883.55 1.228.999.35.444.624 1.009.822 1.695.202.681.303 1.485.303 2.412Zm-1.495 0c0-.799-.067-1.467-.2-2.005-.128-.538-.303-.969-.525-1.295-.217-.331-.469-.565-.755-.703a2.037 2.037 0 0 0-1.791 0c-.286.138-.54.372-.762.703-.217.326-.39.757-.518 1.295-.128.538-.192 1.206-.192 2.005 0 .8.064 1.468.192 2.006.128.538.301.969.518 1.295.222.326.476.557.762.696a2.038 2.038 0 0 0 1.791 0c.286-.139.538-.37.755-.696.222-.326.397-.757.525-1.295.133-.538.2-1.206.2-2.006Zm13.824 0c0 .928-.101 1.732-.303 2.413-.198.681-.472 1.246-.822 1.695a3.276 3.276 0 0 1-1.228.991 3.57 3.57 0 0 1-1.517.326 3.619 3.619 0 0 1-1.525-.326 3.286 3.286 0 0 1-1.221-.991c-.345-.449-.617-1.014-.814-1.695-.197-.681-.296-1.485-.296-2.413 0-.927.099-1.731.296-2.412.197-.686.469-1.251.814-1.695a3.261 3.261 0 0 1 1.221-.999 3.618 3.618 0 0 1 1.525-.325 3.57 3.57 0 0 1 1.517.325c.473.217.883.55 1.228.999.35.444.624 1.009.822 1.695.202.681.303 1.485.303 2.412Zm-1.495 0c0-.799-.067-1.467-.2-2.005-.128-.538-.303-.969-.525-1.295-.217-.331-.469-.565-.755-.703a2.037 2.037 0 0 0-1.791 0c-.286.138-.54.372-.762.703-.217.326-.39.757-.518 1.295-.128.538-.193 1.206-.193 2.005 0 .8.065 1.468.193 2.006.128.538.301.969.518 1.295.222.326.476.557.762.696a2.038 2.038 0 0 0 1.791 0c.286-.139.538-.37.755-.696.222-.326.397-.757.525-1.295.133-.538.2-1.206.2-2.006Zm10.08 0c0 .928-.101 1.732-.303 2.413-.197.681-.471 1.246-.821 1.695a3.28 3.28 0 0 1-1.229.991 3.567 3.567 0 0 1-1.517.326 3.611 3.611 0 0 1-1.524-.326 3.286 3.286 0 0 1-1.221-.991c-.346-.449-.617-1.014-.814-1.695-.198-.681-.296-1.485-.296-2.413 0-.927.098-1.731.296-2.412.197-.686.468-1.251.814-1.695a3.261 3.261 0 0 1 1.221-.999 3.61 3.61 0 0 1 1.524-.325c.543 0 1.048.108 1.517.325.474.217.883.55 1.229.999.35.444.624 1.009.821 1.695.202.681.303 1.485.303 2.412Zm-1.494 0c0-.799-.067-1.467-.2-2.005-.129-.538-.304-.969-.526-1.295-.217-.331-.468-.565-.755-.703a2.034 2.034 0 0 0-1.79 0c-.287.138-.541.372-.763.703-.217.326-.389.757-.518 1.295-.128.538-.192 1.206-.192 2.005 0 .8.064 1.468.192 2.006.129.538.301.969.518 1.295.222.326.476.557.763.696a2.034 2.034 0 0 0 1.79 0c.287-.139.538-.37.755-.696.222-.326.397-.757.526-1.295.133-.538.2-1.206.2-2.006Zm10.08 0c0 .928-.101 1.732-.304 2.413-.197.681-.471 1.246-.821 1.695a3.276 3.276 0 0 1-1.228.991 3.57 3.57 0 0 1-1.517.326 3.619 3.619 0 0 1-1.525-.326 3.286 3.286 0 0 1-1.221-.991c-.345-.449-.617-1.014-.814-1.695-.197-.681-.296-1.485-.296-2.413 0-.927.099-1.731.296-2.412.197-.686.469-1.251.814-1.695a3.261 3.261 0 0 1 1.221-.999 3.618 3.618 0 0 1 1.525-.325 3.57 3.57 0 0 1 1.517.325c.473.217.883.55 1.228.999.35.444.624 1.009.821 1.695.203.681.304 1.485.304 2.412Zm-1.495 0c0-.799-.067-1.467-.2-2.005-.128-.538-.303-.969-.525-1.295-.217-.331-.469-.565-.755-.703a2.037 2.037 0 0 0-1.791 0c-.286.138-.54.372-.762.703-.217.326-.39.757-.518 1.295-.128.538-.193 1.206-.193 2.005 0 .8.065 1.468.193 2.006.128.538.301.969.518 1.295.222.326.476.557.762.696a2.038 2.038 0 0 0 1.791 0c.286-.139.538-.37.755-.696.222-.326.397-.757.525-1.295.133-.538.2-1.206.2-2.006Zm3.59 5.314a.926.926 0 0 1-.37-.074.974.974 0 0 1-.288-.2.97.97 0 0 1-.185-.311 1.07 1.07 0 0 1-.067-.385.83.83 0 0 1 .067-.333.843.843 0 0 1 .185-.281.916.916 0 0 1 .296-.185.94.94 0 0 1 .377-.074c.158 0 .296.03.415.089a.754.754 0 0 1 .303.237.939.939 0 0 1 .185.348c.039.133.059.276.059.429 0 .222-.032.456-.096.703a3.59 3.59 0 0 1-.281.732 4.156 4.156 0 0 1-.459.704c-.183.226-.39.436-.622.629l-.244-.23a.308.308 0 0 1-.111-.229c0-.035.01-.072.03-.111a.81.81 0 0 1 .088-.104c.05-.054.114-.126.193-.215.079-.088.155-.192.229-.31.079-.114.151-.242.215-.385.069-.138.118-.286.148-.444h-.067Zm9.873-5.314c0 .928-.102 1.732-.304 2.413-.197.681-.471 1.246-.821 1.695a3.28 3.28 0 0 1-1.229.991 3.563 3.563 0 0 1-1.517.326 3.611 3.611 0 0 1-1.524-.326 3.286 3.286 0 0 1-1.221-.991c-.346-.449-.617-1.014-.814-1.695-.198-.681-.296-1.485-.296-2.413 0-.927.098-1.731.296-2.412.197-.686.468-1.251.814-1.695a3.261 3.261 0 0 1 1.221-.999 3.61 3.61 0 0 1 1.524-.325c.543 0 1.049.108 1.517.325.474.217.883.55 1.229.999.35.444.624 1.009.821 1.695.202.681.304 1.485.304 2.412Zm-1.495 0c0-.799-.067-1.467-.2-2.005-.128-.538-.304-.969-.526-1.295-.217-.331-.468-.565-.754-.703a2.042 2.042 0 0 0-1.791 0c-.286.138-.54.372-.762.703-.218.326-.39.757-.519 1.295-.128.538-.192 1.206-.192 2.005 0 .8.064 1.468.192 2.006.129.538.301.969.519 1.295.222.326.476.557.762.696a2.034 2.034 0 0 0 1.791 0c.286-.139.537-.37.754-.696.222-.326.398-.757.526-1.295.133-.538.2-1.206.2-2.006Zm10.08 0c0 .928-.101 1.732-.303 2.413-.198.681-.472 1.246-.822 1.695a3.276 3.276 0 0 1-1.228.991 3.57 3.57 0 0 1-1.517.326 3.619 3.619 0 0 1-1.525-.326 3.294 3.294 0 0 1-1.221-.991c-.345-.449-.617-1.014-.814-1.695-.197-.681-.296-1.485-.296-2.413 0-.927.099-1.731.296-2.412.197-.686.469-1.251.814-1.695a3.269 3.269 0 0 1 1.221-.999 3.618 3.618 0 0 1 1.525-.325 3.57 3.57 0 0 1 1.517.325c.473.217.883.55 1.228.999.35.444.624 1.009.822 1.695.202.681.303 1.485.303 2.412Zm-1.495 0c0-.799-.066-1.467-.2-2.005-.128-.538-.303-.969-.525-1.295-.217-.331-.469-.565-.755-.703a2.037 2.037 0 0 0-1.791 0c-.286.138-.54.372-.762.703-.217.326-.39.757-.518 1.295-.128.538-.192 1.206-.192 2.005 0 .8.064 1.468.192 2.006.128.538.301.969.518 1.295.222.326.476.557.762.696a2.038 2.038 0 0 0 1.791 0c.286-.139.538-.37.755-.696.222-.326.397-.757.525-1.295.134-.538.2-1.206.2-2.006Z" fill="#6E84A3"/><path d="m146.721 401.153 83.042-174.167 55.851 68.344 48.503 68.344 30.13 8.084 85.246-115.377 65.405-115.376 40.419 44.828 34.539 58.79 24.251 31.6h83.777l38.214-8.818" stroke="#ADD2FD" stroke-width="2.94"/><circle cx="229.028" cy="228.456" r="3.674" fill="#fff" stroke="#ADD2FD" stroke-width="2.94"/><circle cx="334.851" cy="363.674" r="3.674" fill="#fff" stroke="#ADD2FD" stroke-width="2.94"/><circle cx="286.349" cy="296.065" r="3.674" fill="#fff" stroke="#ADD2FD" stroke-width="2.94"/><path d="m146.721 286.512 80.837-66.14 61.731 49.972 72.018-20.577 85.982-56.586 57.321 85.982 53.646-146.242 49.237 19.107 45.563 50.707 29.395 58.791 33.07-85.247" stroke="#5592F7" stroke-width="2.94"/><circle cx="148.191" cy="285.777" r="3.674" fill="#fff" stroke="#5592F7" stroke-width="2.94"/><circle cx="227.558" cy="221.107" r="3.674" fill="#fff" stroke="#5592F7" stroke-width="2.94"/><circle cx="289.289" cy="269.609" r="3.674" fill="#fff" stroke="#5592F7" stroke-width="2.94"/><circle cx="362.777" cy="249.033" r="3.674" fill="#fff" stroke="#5592F7" stroke-width="2.94"/><path d="m145.251 163.786 73.489 10.288 68.344 19.107 59.526 16.903 72.018 38.949h120.521l83.777-38.949 42.623-25.721h60.261" stroke="#F4A012" stroke-width="2.94"/><circle cx="218.74" cy="174.074" r="3.674" fill="#fff" stroke="#F4A012" stroke-width="2.94"/><circle cx="420.098" cy="249.033" r="3.674" fill="#fff" stroke="#F4A012" stroke-width="2.94"/><path d="m147.456 152.763 67.609 12.493 77.163 5.879 62.465 13.228 31.6 20.577h63.935l43.358-39.684 94.8 25.721 55.117 47.767 49.237-33.804 30.865-13.963" stroke="#FBDB7F" stroke-width="2.94"/><circle cx="148.191" cy="152.028" r="3.674" fill="#fff" stroke="#FBDB7F" stroke-width="2.94"/><circle cx="214.33" cy="165.256" r="3.674" fill="#fff" stroke="#FBDB7F" stroke-width="2.94"/><circle cx="293.698" cy="169.665" r="3.674" fill="#fff" stroke="#FBDB7F" stroke-width="2.94"/><circle cx="353.958" cy="184.363" r="3.674" fill="#fff" stroke="#FBDB7F" stroke-width="2.94"/><circle cx="386.293" cy="204.94" r="3.674" fill="#fff" stroke="#FBDB7F" stroke-width="2.94"/><circle cx="146.721" cy="163.786" r="3.674" fill="#fff" stroke="#F4A012" stroke-width="2.94"/><circle cx="346.61" cy="209.349" r="3.674" fill="#fff" stroke="#F4A012" stroke-width="2.94"/><rect x="188.818" y="172.246" width="209.371" height="99.778" rx="12.268" fill="#fff" stroke="#E3EBF6" stroke-width="1.636"/><path d="M207.498 201.218c.191 0 .341.057.45.171a.576.576 0 0 1 .163.426v1.063h-7.966v-.597a1.068 1.068 0 0 1 .311-.736l3.664-3.672c.311-.311.586-.608.826-.892.246-.283.453-.567.622-.85.174-.284.305-.57.392-.859.093-.295.139-.603.139-.924 0-.311-.049-.584-.147-.818a1.516 1.516 0 0 0-.392-.589 1.54 1.54 0 0 0-.597-.352 2.246 2.246 0 0 0-.761-.122c-.267 0-.515.038-.744.114a2.138 2.138 0 0 0-.606.319c-.174.136-.321.3-.441.491a2.11 2.11 0 0 0-.254.613c-.081.224-.188.374-.319.45-.125.076-.31.093-.556.049l-.924-.164a4.478 4.478 0 0 1 .458-1.464 3.497 3.497 0 0 1 2.036-1.684c.448-.148.93-.221 1.448-.221.523 0 1.003.079 1.439.237.442.153.821.374 1.137.662.322.284.573.63.753 1.039.18.409.27.87.27 1.382 0 .437-.066.84-.197 1.211a4.76 4.76 0 0 1-.515 1.063 7.427 7.427 0 0 1-.769.99c-.289.316-.594.638-.916.965l-2.846 2.911c.235-.065.469-.117.704-.155.239-.038.466-.057.678-.057h3.46Zm6.184.4c.355 0 .671-.049.949-.147.278-.103.51-.245.695-.425.191-.186.335-.404.433-.654a2.21 2.21 0 0 0 .148-.818c0-.36-.058-.671-.172-.933a1.66 1.66 0 0 0-.466-.646 1.85 1.85 0 0 0-.704-.384 2.887 2.887 0 0 0-.883-.131c-.316 0-.611.044-.883.131-.273.082-.51.21-.712.384a1.79 1.79 0 0 0-.466.646 2.421 2.421 0 0 0-.163.933c0 .294.049.567.147.818.098.25.24.468.425.654.191.18.425.322.703.425.279.098.595.147.949.147Zm0-9.299c-.322 0-.605.049-.85.148a1.609 1.609 0 0 0-.957.973c-.077.218-.115.45-.115.695 0 .245.033.485.098.72.071.234.18.444.327.629.153.18.352.325.598.434.245.109.545.163.899.163.355 0 .654-.054.9-.163.245-.109.441-.254.589-.434.152-.185.261-.395.327-.629.071-.235.106-.475.106-.72s-.041-.477-.123-.695a1.493 1.493 0 0 0-.359-.581 1.747 1.747 0 0 0-.597-.392 2.2 2.2 0 0 0-.843-.148Zm1.857 4.417c.725.223 1.267.578 1.627 1.063.366.485.548 1.088.548 1.807 0 .518-.098.987-.294 1.407-.197.42-.472.777-.826 1.071-.355.295-.78.524-1.276.687a5.29 5.29 0 0 1-1.636.238c-.6 0-1.148-.079-1.644-.238a3.859 3.859 0 0 1-1.267-.687 3.044 3.044 0 0 1-.826-1.071 3.273 3.273 0 0 1-.295-1.407c0-.719.18-1.322.54-1.807.365-.485.91-.84 1.636-1.063-.589-.235-1.034-.576-1.333-1.023-.295-.447-.442-.984-.442-1.611a2.93 2.93 0 0 1 .998-2.224 3.457 3.457 0 0 1 1.153-.663 4.29 4.29 0 0 1 1.48-.245c.54 0 1.031.082 1.472.245a3.37 3.37 0 0 1 1.145.663c.322.278.57.608.745.989.179.382.269.794.269 1.235 0 .627-.15 1.164-.449 1.611-.295.447-.736.788-1.325 1.023Zm15.369-2.2v8.342h-1.759v-5.226a5.71 5.71 0 0 1 .066-.794c-.055.12-.109.232-.164.336a1.877 1.877 0 0 1-.163.27l-3.623 4.98a1.471 1.471 0 0 1-.262.303.552.552 0 0 1-.368.139h-1.063v-8.35h1.758v5.226c0 .114-.008.242-.024.384a5.53 5.53 0 0 1-.05.425c.109-.25.221-.458.336-.621l3.623-4.973c.065-.109.153-.21.262-.302a.55.55 0 0 1 .368-.139h1.063Zm9.529 7.09c.704 0 1.225-.25 1.563-.752.343-.507.515-1.229.515-2.167 0-.938-.172-1.66-.515-2.168-.338-.512-.859-.768-1.563-.768-.708 0-1.234.256-1.578.768-.338.508-.507 1.23-.507 2.168 0 .938.169 1.66.507 2.167.344.502.87.752 1.578.752Zm-3.811-3.606c.06-.556.191-1.058.393-1.505.202-.447.466-.826.793-1.137a3.289 3.289 0 0 1 1.153-.72 4.093 4.093 0 0 1 1.472-.253c.595 0 1.132.101 1.612.302.479.202.888.488 1.226.859.338.371.597.821.777 1.35.186.529.278 1.123.278 1.783 0 .659-.095 1.254-.286 1.782-.185.529-.45.982-.793 1.358a3.526 3.526 0 0 1-1.235.859 3.99 3.99 0 0 1-1.579.302 4.3 4.3 0 0 1-1.513-.253 3.412 3.412 0 0 1-1.161-.744 3.618 3.618 0 0 1-.785-1.17 5.133 5.133 0 0 1-.36-1.546h-1.816v3.591h-1.758v-8.342h1.758v3.484h1.824Zm16.504-3.484v8.342h-1.75v-3.787h-3.607v3.787h-1.758v-8.342h1.758v3.23h3.607v-3.23h1.75Zm6.517 3.811v-2.65h-1.235c-.284 0-.521.041-.712.123-.19.082-.343.188-.458.319a1.116 1.116 0 0 0-.245.425 1.567 1.567 0 0 0-.074.466c0 .409.145.731.434.965.294.235.69.352 1.186.352h1.104Zm1.676-3.811v8.342h-1.676v-3.419h-.483a1.58 1.58 0 0 0-.392.041.898.898 0 0 0-.27.115 1.028 1.028 0 0 0-.196.179c-.055.071-.109.15-.164.238l-1.562 2.232a1.288 1.288 0 0 1-.409.467c-.153.098-.384.147-.695.147h-1.211l2.249-3.034c.208-.36.497-.606.867-.737a3.255 3.255 0 0 1-1.03-.31 2.352 2.352 0 0 1-.687-.516 1.908 1.908 0 0 1-.384-.637 2.225 2.225 0 0 1-.115-.696c0-.3.057-.594.172-.883.12-.289.308-.545.564-.769.256-.229.586-.411.99-.548.409-.141.899-.212 1.472-.212h2.96Zm13.201 6.682c.19 0 .34.057.449.171a.577.577 0 0 1 .164.426v1.063h-7.966v-.597a1.068 1.068 0 0 1 .311-.736l3.664-3.672c.311-.311.586-.608.826-.892.245-.283.452-.567.621-.85.175-.284.306-.57.393-.859.093-.295.139-.603.139-.924 0-.311-.049-.584-.147-.818a1.518 1.518 0 0 0-.393-.589 1.525 1.525 0 0 0-.597-.352 2.24 2.24 0 0 0-.76-.122 2.146 2.146 0 0 0-1.35.433c-.174.136-.321.3-.441.491a2.11 2.11 0 0 0-.254.613c-.082.224-.188.374-.319.45-.125.076-.311.093-.556.049l-.924-.164a4.478 4.478 0 0 1 .458-1.464 3.511 3.511 0 0 1 2.036-1.684c.447-.148.93-.221 1.448-.221.523 0 1.003.079 1.439.237.442.153.821.374 1.137.662.322.284.573.63.752 1.039.18.409.27.87.27 1.382 0 .437-.065.84-.196 1.211a4.76 4.76 0 0 1-.515 1.063 7.51 7.51 0 0 1-.769.99c-.289.316-.594.638-.916.965l-2.846 2.911c.234-.065.469-.117.703-.155.24-.038.466-.057.679-.057h3.46Zm10.478-4.229c0 1.031-.112 1.922-.336 2.675-.218.752-.52 1.376-.908 1.873a3.662 3.662 0 0 1-1.365 1.104 4.015 4.015 0 0 1-1.693.359c-.606 0-1.17-.119-1.693-.359a3.657 3.657 0 0 1-1.366-1.104c-.382-.497-.682-1.121-.9-1.873-.218-.753-.327-1.644-.327-2.675 0-1.03.109-1.922.327-2.674.218-.758.518-1.382.9-1.873a3.657 3.657 0 0 1 1.366-1.104 3.94 3.94 0 0 1 1.693-.368c.605 0 1.169.123 1.693.368.523.24.978.608 1.365 1.104.388.491.69 1.115.908 1.873.224.752.336 1.644.336 2.674Zm-1.816 0c0-.872-.071-1.597-.213-2.175-.136-.584-.319-1.05-.548-1.399-.229-.349-.493-.597-.793-.744a2.096 2.096 0 0 0-1.873 0c-.294.147-.556.395-.785.744-.229.349-.412.815-.548 1.399-.136.578-.204 1.303-.204 2.175 0 .873.068 1.601.204 2.184.136.578.319 1.041.548 1.39.229.349.491.597.785.745a2.113 2.113 0 0 0 1.873 0c.3-.148.564-.396.793-.745.229-.349.412-.812.548-1.39.142-.583.213-1.311.213-2.184Zm10.314 4.229c.191 0 .341.057.45.171a.577.577 0 0 1 .164.426v1.063h-7.966v-.597c0-.12.024-.246.073-.376.05-.131.129-.251.238-.36l3.664-3.672c.31-.311.586-.608.826-.892.245-.283.452-.567.621-.85.175-.284.306-.57.393-.859.093-.295.139-.603.139-.924 0-.311-.049-.584-.147-.818a1.518 1.518 0 0 0-.393-.589 1.532 1.532 0 0 0-.597-.352 2.242 2.242 0 0 0-.761-.122 2.146 2.146 0 0 0-1.349.433c-.174.136-.322.3-.442.491-.114.185-.199.39-.253.613-.082.224-.188.374-.319.45-.126.076-.311.093-.556.049l-.924-.164a4.455 4.455 0 0 1 .458-1.464 3.502 3.502 0 0 1 2.036-1.684c.447-.148.93-.221 1.448-.221.523 0 1.003.079 1.439.237.442.153.821.374 1.137.662.322.284.572.63.752 1.039.18.409.27.87.27 1.382 0 .437-.065.84-.196 1.211a4.803 4.803 0 0 1-.515 1.063 7.51 7.51 0 0 1-.769.99c-.289.316-.594.638-.916.965l-2.846 2.911c.234-.065.469-.117.703-.155.24-.038.466-.057.679-.057h3.459Zm9.84.327v1.333h-6.42v-1.333h2.454v-7.377c0-.262.008-.529.024-.802l-1.889 1.595a.675.675 0 0 1-.253.131.596.596 0 0 1-.238 0 .794.794 0 0 1-.196-.074.596.596 0 0 1-.131-.122l-.548-.769 3.55-3.051h1.431v10.469h2.216Zm13.562 0v1.333h-6.42v-1.333h2.454v-7.377c0-.262.008-.529.024-.802l-1.889 1.595a.671.671 0 0 1-.254.131.591.591 0 0 1-.237 0 .78.78 0 0 1-.196-.074.575.575 0 0 1-.131-.122l-.548-.769 3.55-3.051h1.431v10.469h2.216Zm6.986-3.018v-4.302c0-.344.024-.72.074-1.129l-3.959 5.431h3.885Zm3.157 0v1.014a.36.36 0 0 1-.098.253c-.06.071-.153.107-.278.107h-1.252v2.977h-1.529v-2.977h-5.095a.52.52 0 0 1-.327-.107.527.527 0 0 1-.172-.278l-.18-.899 5.651-7.524h1.652v7.434h1.628Zm1.375 3.337c0-.158.027-.306.082-.442.06-.142.139-.264.237-.368.104-.104.224-.185.36-.245a1.144 1.144 0 0 1 .891 0 1.13 1.13 0 0 1 .614.613c.06.136.09.284.09.442 0 .163-.03.313-.09.449-.06.137-.142.257-.246.36a1.039 1.039 0 0 1-.368.238 1.162 1.162 0 0 1-1.251-.238 1.237 1.237 0 0 1-.237-.36 1.188 1.188 0 0 1-.082-.449Zm0-5.962c0-.159.027-.306.082-.442.06-.142.139-.265.237-.368.104-.104.224-.186.36-.246a1.162 1.162 0 0 1 1.259.246c.104.103.186.226.246.368.06.136.09.283.09.442 0 .163-.03.313-.09.449a1.152 1.152 0 0 1-.614.606 1.255 1.255 0 0 1-.891 0 1.175 1.175 0 0 1-.36-.246 1.237 1.237 0 0 1-.237-.36 1.188 1.188 0 0 1-.082-.449Zm12.25 1.087c0 1.031-.112 1.922-.335 2.675-.218.752-.521 1.376-.908 1.873a3.665 3.665 0 0 1-1.366 1.104 4.012 4.012 0 0 1-1.693.359 4.015 4.015 0 0 1-1.693-.359 3.665 3.665 0 0 1-1.366-1.104c-.381-.497-.681-1.121-.899-1.873-.218-.753-.327-1.644-.327-2.675 0-1.03.109-1.922.327-2.674.218-.758.518-1.382.899-1.873a3.665 3.665 0 0 1 1.366-1.104 3.947 3.947 0 0 1 1.693-.368c.605 0 1.17.123 1.693.368.523.24.979.608 1.366 1.104.387.491.69 1.115.908 1.873.223.752.335 1.644.335 2.674Zm-1.816 0c0-.872-.07-1.597-.212-2.175-.137-.584-.319-1.05-.548-1.399-.229-.349-.494-.597-.794-.744a2.09 2.09 0 0 0-1.872 0c-.295.147-.557.395-.786.744-.229.349-.411.815-.548 1.399-.136.578-.204 1.303-.204 2.175 0 .873.068 1.601.204 2.184.137.578.319 1.041.548 1.39.229.349.491.597.786.745a2.106 2.106 0 0 0 1.872 0c.3-.148.565-.396.794-.745.229-.349.411-.812.548-1.39.142-.583.212-1.311.212-2.184Zm11.304 0c0 1.031-.111 1.922-.335 2.675-.218.752-.521 1.376-.908 1.873a3.657 3.657 0 0 1-1.366 1.104 4.007 4.007 0 0 1-1.692.359c-.606 0-1.17-.119-1.693-.359a3.657 3.657 0 0 1-1.366-1.104c-.382-.497-.682-1.121-.9-1.873-.218-.753-.327-1.644-.327-2.675 0-1.03.109-1.922.327-2.674.218-.758.518-1.382.9-1.873a3.657 3.657 0 0 1 1.366-1.104 3.94 3.94 0 0 1 1.693-.368c.605 0 1.169.123 1.692.368.524.24.979.608 1.366 1.104.387.491.69 1.115.908 1.873.224.752.335 1.644.335 2.674Zm-1.815 0c0-.872-.071-1.597-.213-2.175-.136-.584-.319-1.05-.548-1.399-.229-.349-.493-.597-.793-.744a2.096 2.096 0 0 0-1.873 0c-.294.147-.556.395-.785.744-.229.349-.412.815-.548 1.399-.136.578-.205 1.303-.205 2.175 0 .873.069 1.601.205 2.184.136.578.319 1.041.548 1.39.229.349.491.597.785.745a2.11 2.11 0 0 0 1.873 0c.3-.148.564-.396.793-.745.229-.349.412-.812.548-1.39.142-.583.213-1.311.213-2.184ZM219.908 226.321h-1.116v-7.328h-4.099v7.328h-1.111v-8.204h6.326v8.204Zm2.789-1.397c.187.252.391.429.613.532.221.103.469.155.744.155.542 0 .958-.193 1.248-.579.29-.385.435-.935.435-1.648 0-.378-.034-.703-.103-.974a1.84 1.84 0 0 0-.286-.664 1.122 1.122 0 0 0-.464-.383 1.544 1.544 0 0 0-.624-.121c-.332 0-.624.077-.876.229a2.553 2.553 0 0 0-.687.647v2.806Zm-.052-3.504a3 3 0 0 1 .848-.727c.32-.183.687-.275 1.099-.275.336 0 .639.065.91.195.271.126.502.315.693.567.191.248.338.557.441.927.103.37.154.796.154 1.277 0 .427-.057.826-.171 1.196a2.88 2.88 0 0 1-.499.956 2.338 2.338 0 0 1-.79.636 2.341 2.341 0 0 1-1.047.229c-.355 0-.661-.059-.916-.178a2.194 2.194 0 0 1-.67-.504v2.565h-1.025v-7.763h.613c.145 0 .234.071.269.212l.091.687Zm10.409-.899v5.8h-1.019v-3.939c0-.077.004-.159.012-.246.007-.088.017-.176.028-.264a3.012 3.012 0 0 1-.103.212c-.034.065-.07.124-.109.178l-2.799 3.807a.963.963 0 0 1-.16.177.302.302 0 0 1-.206.08h-.619v-5.799h1.025v3.939c0 .072-.004.152-.011.24-.008.084-.018.17-.029.258.034-.073.069-.14.103-.201.034-.065.069-.124.103-.177l2.8-3.807a.829.829 0 0 1 .16-.172.315.315 0 0 1 .212-.086h.612Zm4.228 5.124c.572 0 1.003-.181 1.293-.544.294-.366.441-.878.441-1.534 0-.653-.141-1.162-.423-1.529-.279-.366-.699-.549-1.26-.549-.271 0-.515.044-.733.131a1.477 1.477 0 0 0-.555.372 1.759 1.759 0 0 0-.349.607c-.08.241-.121.516-.121.825 0 .347.037.658.109.933.073.275.18.508.321.698.145.191.322.338.532.441.214.099.462.149.745.149Zm.395-6.486a2.81 2.81 0 0 0-1.002.257 1.98 1.98 0 0 0-.687.561 2.376 2.376 0 0 0-.413.842 4.813 4.813 0 0 0-.16 1.11 2.112 2.112 0 0 1 .853-.87 2.33 2.33 0 0 1 .607-.24c.221-.057.456-.086.704-.086.386 0 .731.069 1.036.206.31.134.571.324.785.573.217.248.383.547.498.898.114.348.172.733.172 1.157 0 .431-.067.822-.201 1.173-.13.348-.317.645-.561.894a2.515 2.515 0 0 1-.881.566c-.34.134-.722.201-1.145.201-.39 0-.754-.065-1.094-.195a2.12 2.12 0 0 1-.882-.641c-.248-.298-.444-.689-.589-1.174-.141-.488-.212-1.089-.212-1.803 0-.611.055-1.172.166-1.683.111-.512.288-.956.532-1.334a2.87 2.87 0 0 1 .956-.91c.394-.233.871-.375 1.432-.424l2.072-.178.057.527a.489.489 0 0 1-.051.298c-.046.08-.128.124-.246.131l-1.746.144Zm5.913 6.417c.206 0 .384-.024.532-.074.153-.054.279-.126.378-.218a.92.92 0 0 0 .224-.332c.049-.126.074-.263.074-.412 0-.137-.021-.265-.063-.383a.775.775 0 0 0-.212-.321 1.002 1.002 0 0 0-.378-.218 1.793 1.793 0 0 0-.572-.08h-1.237v2.038h1.254Zm-.017-2.782c.401 0 .736.048 1.007.143.275.096.495.223.659.384.168.16.288.345.36.555.073.21.109.427.109.653 0 .259-.046.5-.137.721a1.57 1.57 0 0 1-.407.567c-.179.156-.4.28-.664.372a2.865 2.865 0 0 1-.91.132h-2.227v-5.8h.973v2.273h1.237Zm4.431-2.273v5.8h-1.019v-5.8h1.019Zm6.706 5.8h-1.019v-4.998h-1.832a18.6 18.6 0 0 1-.206 1.912c-.092.534-.202.99-.332 1.368a3.789 3.789 0 0 1-.43.916 2.158 2.158 0 0 1-.498.544c-.171.13-.351.217-.538.263a2.244 2.244 0 0 1-.549.069c-.325 0-.487-.052-.487-.155v-.647h.298c.129 0 .261-.022.395-.068.133-.046.263-.134.389-.264.13-.129.254-.311.372-.543.118-.237.225-.542.321-.916.099-.378.183-.834.252-1.369.072-.538.127-1.175.166-1.912h3.698v5.8Zm3.841-.745c.206 0 .384-.024.532-.074.153-.054.279-.126.378-.218a.933.933 0 0 0 .224-.332c.049-.126.074-.263.074-.412 0-.137-.021-.265-.063-.383a.775.775 0 0 0-.212-.321 1.002 1.002 0 0 0-.378-.218 1.793 1.793 0 0 0-.572-.08h-1.231v2.038h1.248Zm-.017-2.782c.401 0 .736.048 1.007.143.275.096.495.223.659.384.168.16.288.345.36.555.073.21.109.427.109.653 0 .259-.046.5-.137.721a1.57 1.57 0 0 1-.407.567c-.179.156-.4.28-.664.372a2.87 2.87 0 0 1-.91.132h-2.227v-5.8h.979v2.273h1.231Zm3.177 2.897c0-.099.018-.193.052-.281a.801.801 0 0 1 .149-.229.727.727 0 0 1 .509-.212.727.727 0 0 1 .722.722.696.696 0 0 1-.212.509.653.653 0 0 1-.229.149.702.702 0 0 1-.281.057.698.698 0 0 1-.28-.057.653.653 0 0 1-.229-.149.813.813 0 0 1-.149-.223.786.786 0 0 1-.052-.286Zm0-4.294c0-.099.018-.193.052-.28a.774.774 0 0 1 .149-.229.73.73 0 0 1 .509-.212.702.702 0 0 1 .51.212.716.716 0 0 1 .212.509.693.693 0 0 1-.212.51.744.744 0 0 1-.229.154.754.754 0 0 1-.281.052.749.749 0 0 1-.28-.052.744.744 0 0 1-.229-.154.819.819 0 0 1-.149-.224.782.782 0 0 1-.052-.286Zm10.727 3.956c.111 0 .199.032.264.097a.34.34 0 0 1 .097.252v.619h-5.473v-.35a.626.626 0 0 1 .189-.435l2.628-2.639c.217-.221.416-.433.595-.635.179-.207.332-.413.458-.619.126-.206.223-.414.292-.624.069-.214.103-.441.103-.681 0-.24-.038-.45-.114-.63a1.232 1.232 0 0 0-.779-.715 1.782 1.782 0 0 0-.578-.092c-.21 0-.403.031-.578.092a1.561 1.561 0 0 0-.47.257 1.483 1.483 0 0 0-.338.384 1.557 1.557 0 0 0-.194.492c-.046.134-.109.223-.189.269-.077.042-.185.054-.327.035l-.532-.092c.053-.374.156-.704.309-.99.157-.291.351-.533.584-.728a2.49 2.49 0 0 1 .807-.44c.302-.103.628-.155.979-.155.348 0 .672.052.974.155.301.103.562.253.784.452.221.195.395.433.521.716.126.282.189.603.189.961 0 .306-.046.59-.138.853-.091.26-.215.508-.372.745a5.608 5.608 0 0 1-.544.692 16.81 16.81 0 0 1-.647.682l-2.164 2.209c.153-.042.308-.074.464-.097a2.66 2.66 0 0 1 .452-.04h2.748Zm3.064-4.139a5.644 5.644 0 0 1 1.179-.138c.428 0 .806.063 1.134.189.328.126.601.3.819.521.221.222.387.483.498.785.114.301.172.629.172.984 0 .435-.077.829-.229 1.18a2.64 2.64 0 0 1-.625.904 2.738 2.738 0 0 1-.933.573c-.358.133-.746.2-1.162.2-.24 0-.471-.025-.693-.074a3.542 3.542 0 0 1-.624-.189 3.698 3.698 0 0 1-.532-.275 3.12 3.12 0 0 1-.435-.326l.315-.435a.311.311 0 0 1 .269-.149c.076 0 .162.03.257.091.096.058.212.122.35.195.137.073.297.139.481.2.187.058.408.086.664.086.286 0 .544-.046.773-.137.229-.092.425-.222.589-.389.164-.172.29-.376.378-.613.088-.237.132-.502.132-.796 0-.256-.038-.486-.115-.693a1.307 1.307 0 0 0-.338-.526 1.506 1.506 0 0 0-.561-.338 2.356 2.356 0 0 0-.79-.12c-.206 0-.421.017-.647.051-.221.035-.448.09-.681.166l-.641-.189.658-3.835h3.888v.446a.5.5 0 0 1-.138.361c-.088.091-.24.137-.458.137h-2.576l-.378 2.153Zm10.867 1.007c0 .718-.078 1.34-.235 1.867-.152.523-.362.956-.629 1.299-.268.344-.584.6-.951.768a2.757 2.757 0 0 1-1.168.251c-.42 0-.811-.084-1.173-.251a2.557 2.557 0 0 1-.939-.768c-.267-.343-.477-.776-.63-1.299-.153-.527-.229-1.149-.229-1.867 0-.717.076-1.339.229-1.866.153-.527.363-.962.63-1.305.267-.347.58-.605.939-.773a2.752 2.752 0 0 1 1.173-.252c.416 0 .806.084 1.168.252.367.168.683.426.951.773.267.343.477.778.629 1.305.157.527.235 1.149.235 1.866Zm-1.059 0c0-.625-.054-1.15-.16-1.574-.103-.427-.245-.771-.424-1.03a1.56 1.56 0 0 0-.613-.556 1.63 1.63 0 0 0-1.454 0 1.55 1.55 0 0 0-.612.556c-.176.259-.317.603-.424 1.03-.103.424-.155.949-.155 1.574 0 .626.052 1.151.155 1.575.107.423.248.765.424 1.025.175.259.379.446.612.561a1.684 1.684 0 0 0 1.454 0c.233-.115.437-.302.613-.561.179-.26.321-.602.424-1.025.106-.424.16-.949.16-1.575Zm10.63 0c0 .718-.078 1.34-.234 1.867-.153.523-.363.956-.63 1.299-.267.344-.584.6-.95.768a2.76 2.76 0 0 1-1.168.251c-.42 0-.811-.084-1.174-.251a2.557 2.557 0 0 1-.939-.768c-.267-.343-.477-.776-.629-1.299-.153-.527-.229-1.149-.229-1.867 0-.717.076-1.339.229-1.866.152-.527.362-.962.629-1.305.267-.347.58-.605.939-.773a2.76 2.76 0 0 1 1.174-.252c.416 0 .805.084 1.168.252.366.168.683.426.95.773.267.343.477.778.63 1.305.156.527.234 1.149.234 1.866Zm-1.059 0c0-.625-.053-1.15-.16-1.574-.103-.427-.244-.771-.424-1.03a1.55 1.55 0 0 0-.612-.556 1.634 1.634 0 0 0-1.454 0 1.56 1.56 0 0 0-.613.556c-.175.259-.317.603-.424 1.03-.103.424-.154.949-.154 1.574 0 .626.051 1.151.154 1.575.107.423.249.765.424 1.025.176.259.38.446.613.561a1.684 1.684 0 0 0 1.454 0c.233-.115.437-.302.612-.561.18-.26.321-.602.424-1.025.107-.424.16-.949.16-1.575Zm7.701 0c0 .718-.078 1.34-.234 1.867-.153.523-.363.956-.63 1.299-.267.344-.584.6-.95.768a2.76 2.76 0 0 1-1.168.251c-.42 0-.811-.084-1.174-.251a2.557 2.557 0 0 1-.939-.768c-.267-.343-.477-.776-.63-1.299-.152-.527-.229-1.149-.229-1.867 0-.717.077-1.339.229-1.866.153-.527.363-.962.63-1.305.267-.347.58-.605.939-.773a2.76 2.76 0 0 1 1.174-.252c.416 0 .805.084 1.168.252.366.168.683.426.95.773.267.343.477.778.63 1.305.156.527.234 1.149.234 1.866Zm-1.059 0c0-.625-.053-1.15-.16-1.574-.103-.427-.244-.771-.424-1.03a1.55 1.55 0 0 0-.612-.556 1.634 1.634 0 0 0-1.454 0 1.56 1.56 0 0 0-.613.556c-.176.259-.317.603-.424 1.03-.103.424-.154.949-.154 1.574 0 .626.051 1.151.154 1.575.107.423.248.765.424 1.025.176.259.38.446.613.561a1.68 1.68 0 0 0 1.454 0c.233-.115.437-.302.612-.561.18-.26.321-.602.424-1.025.107-.424.16-.949.16-1.575Zm7.701 0c0 .718-.078 1.34-.234 1.867-.153.523-.363.956-.63 1.299a2.53 2.53 0 0 1-.951.768 2.752 2.752 0 0 1-1.167.251 2.77 2.77 0 0 1-1.174-.251 2.557 2.557 0 0 1-.939-.768c-.267-.343-.477-.776-.63-1.299-.152-.527-.229-1.149-.229-1.867 0-.717.077-1.339.229-1.866.153-.527.363-.962.63-1.305.267-.347.58-.605.939-.773a2.757 2.757 0 0 1 1.174-.252c.416 0 .805.084 1.167.252.367.168.684.426.951.773.267.343.477.778.63 1.305.156.527.234 1.149.234 1.866Zm-1.059 0c0-.625-.053-1.15-.16-1.574-.103-.427-.244-.771-.424-1.03a1.557 1.557 0 0 0-.612-.556 1.637 1.637 0 0 0-1.455 0 1.557 1.557 0 0 0-.612.556c-.176.259-.317.603-.424 1.03-.103.424-.154.949-.154 1.574 0 .626.051 1.151.154 1.575.107.423.248.765.424 1.025.175.259.38.446.612.561a1.688 1.688 0 0 0 1.455 0c.232-.115.437-.302.612-.561.18-.26.321-.602.424-1.025.107-.424.16-.949.16-1.575Zm2.148 5.485a.26.26 0 0 1-.063-.074.186.186 0 0 1 .006-.166.569.569 0 0 1 .063-.075c.038-.042.085-.097.143-.166.061-.069.122-.151.183-.246.061-.092.116-.195.166-.309.053-.111.092-.229.114-.355a.116.116 0 0 1-.04.006h-.034a.65.65 0 0 1-.487-.195.729.729 0 0 1-.183-.51c0-.179.061-.332.183-.458a.673.673 0 0 1 .498-.189c.115 0 .216.021.304.063a.58.58 0 0 1 .217.178.711.711 0 0 1 .138.258c.03.095.046.2.046.314 0 .172-.025.352-.075.539a2.366 2.366 0 0 1-.212.543 3.17 3.17 0 0 1-.795 1.008l-.172-.166Zm8.147-5.485c0 .718-.078 1.34-.234 1.867-.153.523-.363.956-.63 1.299a2.53 2.53 0 0 1-.951.768 2.752 2.752 0 0 1-1.167.251 2.77 2.77 0 0 1-1.174-.251 2.557 2.557 0 0 1-.939-.768c-.267-.343-.477-.776-.63-1.299-.152-.527-.229-1.149-.229-1.867 0-.717.077-1.339.229-1.866.153-.527.363-.962.63-1.305.267-.347.58-.605.939-.773a2.757 2.757 0 0 1 1.174-.252c.416 0 .805.084 1.167.252.367.168.684.426.951.773.267.343.477.778.63 1.305.156.527.234 1.149.234 1.866Zm-1.059 0c0-.625-.053-1.15-.16-1.574-.103-.427-.244-.771-.424-1.03a1.557 1.557 0 0 0-.612-.556 1.637 1.637 0 0 0-1.455 0 1.557 1.557 0 0 0-.612.556c-.176.259-.317.603-.424 1.03-.103.424-.154.949-.154 1.574 0 .626.051 1.151.154 1.575.107.423.248.765.424 1.025.175.259.38.446.612.561a1.688 1.688 0 0 0 1.455 0c.232-.115.437-.302.612-.561.18-.26.321-.602.424-1.025.107-.424.16-.949.16-1.575Zm7.701 0c0 .718-.078 1.34-.235 1.867-.152.523-.362.956-.629 1.299-.268.344-.584.6-.951.768a2.757 2.757 0 0 1-1.168.251 2.77 2.77 0 0 1-1.173-.251 2.557 2.557 0 0 1-.939-.768c-.267-.343-.477-.776-.63-1.299-.153-.527-.229-1.149-.229-1.867 0-.717.076-1.339.229-1.866.153-.527.363-.962.63-1.305.267-.347.58-.605.939-.773a2.755 2.755 0 0 1 1.173-.252c.416 0 .806.084 1.168.252.367.168.683.426.951.773.267.343.477.778.629 1.305.157.527.235 1.149.235 1.866Zm-1.059 0c0-.625-.053-1.15-.16-1.574-.103-.427-.245-.771-.424-1.03a1.56 1.56 0 0 0-.613-.556 1.63 1.63 0 0 0-1.454 0 1.557 1.557 0 0 0-.612.556c-.176.259-.317.603-.424 1.03-.103.424-.154.949-.154 1.574 0 .626.051 1.151.154 1.575.107.423.248.765.424 1.025.175.259.38.446.612.561a1.684 1.684 0 0 0 1.454 0c.233-.115.437-.302.613-.561.179-.26.321-.602.424-1.025.107-.424.16-.949.16-1.575Z" fill="#6E84A3"/><circle cx="203.538" cy="222.953" r="4.089" fill="#5592F7"/><path d="M216.462 251.61c.317 0 .59-.036.819-.108.229-.073.416-.174.561-.304a1.2 1.2 0 0 0 .326-.469c.069-.184.103-.384.103-.601 0-.424-.151-.758-.452-1.002-.302-.248-.754-.372-1.357-.372h-1.775v2.856h1.775Zm-1.775-6.446v2.799h1.466c.313 0 .584-.034.813-.103.233-.068.423-.164.572-.286.153-.122.266-.269.338-.441.073-.175.109-.366.109-.572 0-.485-.145-.838-.435-1.059-.29-.225-.741-.338-1.351-.338h-1.512Zm1.512-.876c.503 0 .937.05 1.299.149.367.099.666.24.899.424.237.183.41.408.521.675.111.263.166.561.166.893a1.767 1.767 0 0 1-.378 1.099 2.013 2.013 0 0 1-.481.435 2.663 2.663 0 0 1-.675.31c.603.114 1.055.33 1.357.647.305.313.458.725.458 1.236 0 .347-.065.664-.195.95a1.99 1.99 0 0 1-.561.739 2.627 2.627 0 0 1-.905.481 4.14 4.14 0 0 1-1.225.166h-2.897v-8.204h2.617Zm6.9 2.313c.424 0 .806.071 1.145.212.34.141.63.341.87.601.241.259.424.574.55.945.13.366.195.776.195 1.23 0 .458-.065.871-.195 1.237a2.61 2.61 0 0 1-.55.939c-.24.259-.53.46-.87.601a3.034 3.034 0 0 1-1.145.206c-.427 0-.813-.069-1.156-.206a2.45 2.45 0 0 1-.87-.601 2.681 2.681 0 0 1-.556-.939 3.79 3.79 0 0 1-.189-1.237c0-.454.063-.864.189-1.23.13-.371.315-.686.556-.945.24-.26.53-.46.87-.601a3.018 3.018 0 0 1 1.156-.212Zm0 5.175c.573 0 1-.191 1.283-.572.282-.386.423-.922.423-1.609 0-.691-.141-1.229-.423-1.614-.283-.386-.71-.579-1.283-.579-.29 0-.544.05-.761.149-.214.1-.393.243-.538.43a1.97 1.97 0 0 0-.321.692 3.751 3.751 0 0 0-.103.922c0 .687.141 1.223.424 1.609.286.381.719.572 1.299.572Zm3.574-4.488c.218-.206.481-.372.79-.498.313-.126.689-.189 1.128-.189.351 0 .66.044.927.132.267.084.491.196.67.337.183.142.321.304.412.487a1.17 1.17 0 0 1 .086.922 1.078 1.078 0 0 1-.177.36 1.513 1.513 0 0 1-.327.321 1.626 1.626 0 0 1-.498.24c.371.111.661.289.87.533.214.244.321.544.321.899 0 .267-.061.509-.183.727a1.762 1.762 0 0 1-.492.549 2.344 2.344 0 0 1-.722.344c-.271.08-.555.12-.853.12-.187 0-.378-.017-.572-.051a2.939 2.939 0 0 1-.561-.161 2.966 2.966 0 0 1-.521-.28 2.04 2.04 0 0 1-.43-.401l.287-.372a.222.222 0 0 1 .194-.097c.069 0 .141.03.218.091.08.057.177.122.292.195.114.072.254.139.418.2.168.057.372.086.612.086.21 0 .397-.025.561-.074.168-.054.309-.126.424-.218a.935.935 0 0 0 .355-.738.816.816 0 0 0-.361-.693c-.236-.176-.597-.264-1.082-.264h-.658v-.675h.658c.21 0 .399-.021.567-.063a1.54 1.54 0 0 0 .429-.183.725.725 0 0 0 .046-1.225 1.223 1.223 0 0 0-.389-.184 2.002 2.002 0 0 0-.55-.068c-.229 0-.423.023-.584.068-.156.046-.29.096-.4.149a2.596 2.596 0 0 0-.264.149.338.338 0 0 1-.177.069.255.255 0 0 1-.126-.029.371.371 0 0 1-.103-.12l-.235-.395Zm7.737 4.488c.382 0 .683-.087.904-.263.222-.179.333-.424.333-.733 0-.137-.021-.261-.063-.372a.725.725 0 0 0-.207-.298.978.978 0 0 0-.383-.194 2.079 2.079 0 0 0-.578-.069h-1.254v1.929h1.248Zm-1.248-4.396v1.82h1.116c.168 0 .323-.023.464-.069a1.18 1.18 0 0 0 .372-.2.96.96 0 0 0 .241-.309.936.936 0 0 0 .028-.71.635.635 0 0 0-.194-.269.985.985 0 0 0-.361-.189 1.746 1.746 0 0 0-.55-.074h-1.116Zm1.145-.687c.359 0 .666.036.922.108.255.073.465.172.629.298.164.122.285.267.361.435.076.168.115.347.115.538 0 .126-.018.258-.052.395a1.315 1.315 0 0 1-.532.739 1.77 1.77 0 0 1-.55.235c.443.076.784.23 1.025.463.24.229.36.533.36.911 0 .282-.057.528-.171.738a1.52 1.52 0 0 1-.464.521 2.046 2.046 0 0 1-.687.315 3.332 3.332 0 0 1-.847.103h-2.233v-5.799h2.124Zm4.581 4.402c.187.252.391.429.612.532.222.104.47.155.745.155.542 0 .958-.193 1.248-.578.29-.386.435-.935.435-1.649 0-.378-.034-.702-.103-.973a1.832 1.832 0 0 0-.286-.664 1.116 1.116 0 0 0-.464-.384 1.543 1.543 0 0 0-.624-.12c-.332 0-.624.076-.876.229a2.537 2.537 0 0 0-.687.647v2.805Zm-.052-3.504c.245-.301.527-.544.848-.727.32-.183.687-.275 1.099-.275.336 0 .639.065.91.195.271.126.502.315.693.567.191.248.338.557.441.927.103.371.154.796.154 1.277 0 .427-.057.826-.171 1.197a2.89 2.89 0 0 1-.499.956 2.324 2.324 0 0 1-.79.635 2.328 2.328 0 0 1-1.047.229 2.17 2.17 0 0 1-.916-.177 2.21 2.21 0 0 1-.67-.504v2.565h-1.025v-7.763h.613c.145 0 .234.07.269.211l.091.687Zm8.577 2.29c-.469.016-.87.054-1.202.115a3.349 3.349 0 0 0-.807.229 1.144 1.144 0 0 0-.453.338.737.737 0 0 0-.137.435c0 .152.025.284.075.395.049.11.116.202.2.275.088.068.189.12.303.154.119.031.245.046.378.046.18 0 .344-.017.493-.052.148-.038.288-.091.417-.16.134-.069.26-.151.378-.246.122-.095.241-.204.355-.326v-1.203Zm-3.292-2.37a3.32 3.32 0 0 1 1.037-.693c.37-.152.78-.229 1.23-.229.325 0 .613.054.865.161.252.107.464.256.635.446.172.191.302.422.39.693.087.271.131.569.131.893v3.71h-.452a.464.464 0 0 1-.229-.046c-.053-.034-.095-.099-.126-.195l-.114-.549a6.435 6.435 0 0 1-.447.378 2.85 2.85 0 0 1-.458.275c-.16.072-.332.127-.515.166-.18.042-.38.063-.601.063-.225 0-.437-.031-.636-.092a1.542 1.542 0 0 1-.521-.286 1.397 1.397 0 0 1-.349-.475 1.726 1.726 0 0 1-.126-.687c0-.229.063-.449.189-.659.126-.214.33-.403.613-.567.282-.164.65-.297 1.105-.4.454-.107 1.011-.168 1.671-.184v-.452c0-.45-.097-.79-.292-1.019-.194-.233-.479-.349-.853-.349-.252 0-.463.032-.635.097a2.262 2.262 0 0 0-.441.212 6.684 6.684 0 0 0-.321.212.455.455 0 0 1-.263.091.303.303 0 0 1-.177-.051.53.53 0 0 1-.126-.137l-.184-.327Zm10.516-.04h-2.227v5.021h-1.019v-5.021h-2.227v-.778h5.473v.778Zm3.198 4.277c.206 0 .384-.025.533-.075.152-.053.278-.126.378-.217a.94.94 0 0 0 .223-.332 1.11 1.11 0 0 0 .074-.413c0-.137-.021-.265-.063-.383a.78.78 0 0 0-.211-.321 1.016 1.016 0 0 0-.378-.217 1.776 1.776 0 0 0-.573-.08h-1.236v2.038h1.253Zm-.017-2.783c.401 0 .737.048 1.008.143.275.096.494.224.658.384.168.16.288.345.361.555.072.21.109.428.109.653 0 .26-.046.5-.138.721a1.559 1.559 0 0 1-.406.567c-.18.157-.401.281-.664.372a2.876 2.876 0 0 1-.911.132h-2.227v-5.799h.974v2.272h1.236Zm4.431-2.272v5.799h-1.019v-5.799h1.019Zm5.148 2.198c0 .817.103 1.611.309 2.382.21.77.515 1.503.916 2.198.061.118.076.208.045.269a.374.374 0 0 1-.131.155l-.452.274a10.646 10.646 0 0 1-.733-1.305 9.174 9.174 0 0 1-.487-1.3 9.271 9.271 0 0 1-.269-1.311 10.64 10.64 0 0 1 0-2.719c.057-.443.147-.88.269-1.311.126-.435.288-.868.487-1.299.202-.432.446-.869.733-1.312l.452.281c.057.038.101.09.131.155.031.061.016.148-.045.263a9.234 9.234 0 0 0-.916 2.198 9.188 9.188 0 0 0-.309 2.382Zm5.888-1.912a.643.643 0 0 1 .212-.206.525.525 0 0 1 .28-.08h.796l-1.505 2.209a1.804 1.804 0 0 1-.287.35 1.081 1.081 0 0 1-.366.206c.183.049.338.128.464.234.126.103.238.237.337.401l1.523 2.399h-.71c-.183 0-.324-.031-.423-.092a.812.812 0 0 1-.258-.263l-1.128-1.803c-.179-.298-.448-.447-.807-.447h-.624v2.611h-1.025v-5.805h1.025v2.507h.55c.305 0 .544-.13.715-.389l1.231-1.832Zm4.626-.378c.424 0 .806.071 1.145.212a2.45 2.45 0 0 1 1.42 1.546c.13.366.195.776.195 1.23 0 .458-.065.871-.195 1.237a2.623 2.623 0 0 1-.549.939c-.241.259-.531.46-.871.601a3.034 3.034 0 0 1-1.145.206 3.1 3.1 0 0 1-1.156-.206 2.45 2.45 0 0 1-.87-.601 2.681 2.681 0 0 1-.556-.939 3.817 3.817 0 0 1-.188-1.237c0-.454.063-.864.188-1.23.13-.371.315-.686.556-.945.24-.26.53-.46.87-.601a3.021 3.021 0 0 1 1.156-.212Zm0 5.175c.573 0 1-.191 1.283-.572.282-.386.423-.922.423-1.609 0-.691-.141-1.229-.423-1.614-.283-.386-.71-.579-1.283-.579-.29 0-.543.05-.761.149-.214.1-.393.243-.538.43a1.987 1.987 0 0 0-.321.692 3.8 3.8 0 0 0-.103.922c0 .687.141 1.223.424 1.609.286.381.719.572 1.299.572Zm8.968.716h-1.019v-4.998h-1.832a18.026 18.026 0 0 1-.206 1.912 8.75 8.75 0 0 1-.332 1.368 3.81 3.81 0 0 1-.429.916 2.178 2.178 0 0 1-.498.544c-.172.13-.351.218-.538.264a2.307 2.307 0 0 1-.55.068c-.324 0-.487-.051-.487-.154v-.647h.298c.13 0 .262-.023.395-.069a.995.995 0 0 0 .389-.263c.13-.13.254-.311.373-.544.118-.237.225-.542.32-.916.099-.378.183-.834.252-1.368.073-.538.128-1.176.166-1.912h3.698v5.799Zm6.589-5.799v5.799h-1.019v-3.939c0-.076.004-.158.012-.246.007-.088.017-.176.028-.263a2.98 2.98 0 0 1-.103.211c-.034.065-.07.124-.108.178l-2.8 3.807c-.042.061-.095.12-.16.178a.307.307 0 0 1-.206.08h-.619v-5.8h1.025v3.939c0 .073-.004.153-.011.24-.008.084-.017.17-.029.258.034-.072.069-.139.103-.2.035-.065.069-.124.103-.178l2.8-3.807a.854.854 0 0 1 .16-.172.315.315 0 0 1 .212-.085h.612Zm5.888 0v5.799h-1.019v-2.462c-.496.13-.964.212-1.403.246-.435.031-.816-.003-1.145-.103a1.5 1.5 0 0 1-.773-.521c-.187-.252-.28-.599-.28-1.042v-1.917h1.025v1.763c0 .278.055.498.166.658.114.161.28.271.498.332.217.061.486.078.807.052.321-.027.689-.09 1.105-.189v-2.616h1.019Zm5.498 2.267c0-.237-.035-.453-.103-.647a1.38 1.38 0 0 0-.292-.51 1.232 1.232 0 0 0-.464-.332 1.543 1.543 0 0 0-.624-.12c-.489 0-.876.143-1.162.429-.283.283-.458.676-.527 1.18h3.172Zm.824 2.719a2.008 2.008 0 0 1-.452.401c-.176.11-.365.202-.567.275a3.44 3.44 0 0 1-.618.16 3.632 3.632 0 0 1-.636.057c-.401 0-.771-.067-1.11-.2a2.517 2.517 0 0 1-.876-.596 2.775 2.775 0 0 1-.573-.973 3.953 3.953 0 0 1-.206-1.328c0-.405.061-.783.183-1.134.126-.351.306-.654.538-.91.233-.259.518-.462.853-.607a2.769 2.769 0 0 1 1.134-.223c.347 0 .668.059.962.177.297.115.553.283.767.504.217.218.387.489.509.813.123.321.184.687.184 1.099 0 .161-.018.268-.052.321-.034.053-.099.08-.195.08h-3.875c.011.367.061.685.149.956.091.271.217.498.377.681.161.18.352.315.573.407.221.088.469.132.744.132.256 0 .475-.029.658-.086.188-.061.348-.126.481-.195.134-.069.245-.132.332-.189a.45.45 0 0 1 .235-.091c.084 0 .149.032.195.097l.286.372Zm5.379-3.956a.453.453 0 0 1-.091.097.207.207 0 0 1-.126.035.35.35 0 0 1-.189-.069 2.552 2.552 0 0 0-.258-.16 1.781 1.781 0 0 0-.372-.155 1.695 1.695 0 0 0-.538-.074c-.286 0-.538.051-.756.154-.217.1-.4.245-.549.435a2.048 2.048 0 0 0-.332.693 3.504 3.504 0 0 0-.109.91c0 .352.04.664.12.939.08.271.193.5.338.687.149.183.326.325.532.424.21.095.445.143.705.143.248 0 .452-.029.612-.086.16-.061.292-.128.395-.2a3.67 3.67 0 0 0 .264-.195.331.331 0 0 1 .211-.091c.084 0 .149.032.195.097l.286.372a2.06 2.06 0 0 1-.429.401 2.737 2.737 0 0 1-1.099.441 3.738 3.738 0 0 1-.619.051c-.362 0-.7-.067-1.013-.2a2.334 2.334 0 0 1-.807-.579 2.731 2.731 0 0 1-.538-.938 3.812 3.812 0 0 1-.195-1.266c0-.431.059-.83.178-1.196a2.74 2.74 0 0 1 .526-.945c.233-.267.517-.475.853-.624.34-.149.729-.223 1.168-.223a2.7 2.7 0 0 1 1.076.2c.313.13.59.315.831.556l-.27.366Zm6.253-.252h-2.227v5.021h-1.019v-5.021h-2.227v-.778h5.473v.778Zm3.198 4.305c.382 0 .683-.087.905-.263.221-.179.332-.424.332-.733 0-.137-.021-.261-.063-.372a.733.733 0 0 0-.206-.298.983.983 0 0 0-.384-.194 2.074 2.074 0 0 0-.578-.069h-1.254v1.929h1.248Zm-1.248-4.396v1.82h1.117c.168 0 .322-.023.463-.069a1.18 1.18 0 0 0 .372-.2.946.946 0 0 0 .241-.309.937.937 0 0 0 .029-.71.646.646 0 0 0-.195-.269.985.985 0 0 0-.361-.189 1.744 1.744 0 0 0-.549-.074h-1.117Zm1.145-.687c.359 0 .666.036.922.108.256.073.466.172.63.298.164.122.284.267.36.435.077.168.115.347.115.538 0 .126-.017.258-.052.395a1.3 1.3 0 0 1-.532.739 1.76 1.76 0 0 1-.55.235c.443.076.785.23 1.025.463.241.229.361.533.361.911 0 .282-.057.528-.172.738a1.51 1.51 0 0 1-.464.521 2.028 2.028 0 0 1-.687.315 3.326 3.326 0 0 1-.847.103h-2.233v-5.799h2.124Zm6.001-.092c.424 0 .805.071 1.145.212.34.141.63.341.87.601.241.259.424.574.55.945.13.366.195.776.195 1.23 0 .458-.065.871-.195 1.237a2.61 2.61 0 0 1-.55.939c-.24.259-.53.46-.87.601-.34.137-.721.206-1.145.206-.427 0-.813-.069-1.156-.206a2.463 2.463 0 0 1-.871-.601 2.695 2.695 0 0 1-.555-.939 3.79 3.79 0 0 1-.189-1.237c0-.454.063-.864.189-1.23.13-.371.315-.686.555-.945.241-.26.531-.46.871-.601a3.018 3.018 0 0 1 1.156-.212Zm0 5.175c.573 0 1-.191 1.282-.572.283-.386.424-.922.424-1.609 0-.691-.141-1.229-.424-1.614-.282-.386-.709-.579-1.282-.579-.29 0-.544.05-.761.149-.214.1-.393.243-.539.43a1.968 1.968 0 0 0-.32.692 3.751 3.751 0 0 0-.103.922c0 .687.141 1.223.423 1.609.287.381.72.572 1.3.572Zm4.553-2.885c0-.817-.105-1.611-.315-2.382a9.095 9.095 0 0 0-.91-2.198.53.53 0 0 1-.058-.149.232.232 0 0 1 .006-.114.207.207 0 0 1 .052-.086.46.46 0 0 1 .085-.069l.453-.281c.286.443.528.88.727 1.312.202.431.364.864.486 1.299.126.431.218.868.275 1.311a10.64 10.64 0 0 1 0 2.719 8.763 8.763 0 0 1-.275 1.311 8.386 8.386 0 0 1-.486 1.3c-.199.431-.441.866-.727 1.305l-.453-.274a.504.504 0 0 1-.085-.069.214.214 0 0 1-.052-.086.237.237 0 0 1-.006-.115.521.521 0 0 1 .058-.154c.4-.695.704-1.428.91-2.198.21-.771.315-1.565.315-2.382Zm2.113 2.971c0-.099.018-.193.052-.28a.788.788 0 0 1 .149-.229.73.73 0 0 1 .509-.212.702.702 0 0 1 .51.212.727.727 0 0 1 .154.795.752.752 0 0 1-.154.224.667.667 0 0 1-.229.149.702.702 0 0 1-.281.057.698.698 0 0 1-.28-.057.667.667 0 0 1-.378-.373.782.782 0 0 1-.052-.286Zm0-4.294a.77.77 0 0 1 .052-.28.788.788 0 0 1 .149-.229.747.747 0 0 1 .229-.155.698.698 0 0 1 .28-.057.702.702 0 0 1 .51.212.727.727 0 0 1 .154.796.748.748 0 0 1-.383.378.774.774 0 0 1-.281.051.769.769 0 0 1-.28-.051.747.747 0 0 1-.229-.155.813.813 0 0 1-.149-.223.787.787 0 0 1-.052-.287Zm7.149-.183a5.707 5.707 0 0 1 1.18-.137c.427 0 .805.063 1.133.189.328.126.601.299.819.521.221.221.387.483.498.784.114.302.172.63.172.985 0 .435-.077.828-.229 1.179a2.655 2.655 0 0 1-.624.905 2.735 2.735 0 0 1-.934.572 3.291 3.291 0 0 1-1.162.201 3.13 3.13 0 0 1-.692-.075 3.492 3.492 0 0 1-1.157-.464 3.044 3.044 0 0 1-.435-.326l.315-.435a.315.315 0 0 1 .269-.149c.076 0 .162.031.258.092.095.057.211.122.349.194.137.073.298.14.481.201.187.057.408.086.664.086.286 0 .544-.046.773-.138.229-.091.425-.221.589-.389.164-.172.29-.376.378-.613.088-.236.132-.502.132-.795 0-.256-.038-.487-.115-.693a1.32 1.32 0 0 0-.337-.527 1.536 1.536 0 0 0-.561-.338 2.365 2.365 0 0 0-.79-.12 4.203 4.203 0 0 0-1.329.218l-.641-.189.658-3.836h3.888v.447a.496.496 0 0 1-.138.36c-.087.092-.24.138-.458.138h-2.576l-.378 2.152Zm6.642 0a5.706 5.706 0 0 1 1.179-.137c.428 0 .806.063 1.134.189.328.126.601.299.819.521.221.221.387.483.498.784.114.302.172.63.172.985 0 .435-.077.828-.229 1.179a2.644 2.644 0 0 1-1.558 1.477 3.291 3.291 0 0 1-1.162.201c-.24 0-.471-.025-.693-.075a3.542 3.542 0 0 1-.624-.189 3.698 3.698 0 0 1-.532-.275 3.044 3.044 0 0 1-.435-.326l.315-.435a.313.313 0 0 1 .269-.149c.076 0 .162.031.257.092.096.057.212.122.35.194.137.073.297.14.481.201.187.057.408.086.664.086.286 0 .544-.046.773-.138.229-.091.425-.221.589-.389.164-.172.29-.376.378-.613.088-.236.132-.502.132-.795 0-.256-.038-.487-.115-.693a1.311 1.311 0 0 0-.338-.527 1.52 1.52 0 0 0-.561-.338 2.356 2.356 0 0 0-.79-.12 4.223 4.223 0 0 0-1.328.218l-.641-.189.658-3.836h3.888v.447a.496.496 0 0 1-.138.36c-.088.092-.24.138-.458.138h-2.576l-.378 2.152Z" fill="#6E84A3"/><circle cx="203.538" cy="249.124" r="4.089" fill="#F4A012"/><rect x="135.698" y="58.698" width="164.614" height="29.395" rx="14.698" fill="#48B798"/><path d="M158.465 79.395h-1.566V70.07h-5.1v9.325h-1.572V68.842h8.238v10.553Zm3.637-1.837c.235.309.487.524.757.647.274.122.58.183.918.183.657 0 1.164-.235 1.522-.705.362-.475.543-1.166.543-2.072 0-.476-.041-.88-.125-1.213-.078-.338-.196-.612-.352-.823a1.341 1.341 0 0 0-.566-.47 1.821 1.821 0 0 0-.764-.155c-.417 0-.779.093-1.088.28-.304.186-.586.45-.845.793v3.535Zm-.074-4.512c.157-.186.324-.355.5-.507a3.03 3.03 0 0 1 .581-.397c.205-.113.423-.198.654-.257.235-.064.485-.096.749-.096.426 0 .811.084 1.154.25.348.167.644.412.889.735s.434.723.566 1.198c.137.475.206 1.021.206 1.639a5.04 5.04 0 0 1-.228 1.543c-.147.47-.36.88-.639 1.227a2.974 2.974 0 0 1-1.014.823 3 3 0 0 1-1.345.294c-.446 0-.828-.073-1.147-.22a2.757 2.757 0 0 1-.852-.618v3.241h-1.433V71.93h.86c.2 0 .325.095.374.286l.125.83Zm13.376-1.117v7.466h-1.441v-4.88a4.6 4.6 0 0 1 .059-.69c-.049.103-.098.2-.147.294a1.744 1.744 0 0 1-.14.235l-3.432 4.681a1.07 1.07 0 0 1-.213.25.44.44 0 0 1-.301.118h-.867v-7.474h1.433v4.887a4.102 4.102 0 0 1-.059.683c.098-.215.194-.39.287-.521l3.432-4.69c.053-.082.125-.163.213-.242a.468.468 0 0 1 .308-.117h.868Zm5.403 6.504c.71 0 1.242-.223 1.595-.67.357-.45.536-1.087.536-1.91 0-.818-.174-1.453-.521-1.903-.343-.456-.86-.684-1.551-.684-.338 0-.642.054-.911.162a1.819 1.819 0 0 0-.684.463 2.07 2.07 0 0 0-.426.764 3.326 3.326 0 0 0-.147 1.036c0 .868.176 1.541.529 2.021.353.48.88.72 1.58.72Zm.507-8.15c-.485.039-.904.144-1.256.316a2.445 2.445 0 0 0-.868.683 3.08 3.08 0 0 0-.514 1.036 5.496 5.496 0 0 0-.206 1.345c.123-.22.275-.421.456-.602.186-.182.397-.336.632-.463.235-.133.492-.233.771-.302.28-.068.574-.103.882-.103.5 0 .948.089 1.345.265.397.176.733.424 1.007.742.279.319.492.703.639 1.154.147.446.221.943.221 1.492a4.24 4.24 0 0 1-.257 1.514 3.26 3.26 0 0 1-.735 1.146 3.184 3.184 0 0 1-1.139.735 4.107 4.107 0 0 1-1.485.257c-.514 0-.992-.083-1.433-.25a2.814 2.814 0 0 1-1.139-.838c-.323-.386-.578-.894-.764-1.52-.182-.628-.272-1.4-.272-2.316 0-.779.071-1.496.213-2.153.142-.656.37-1.23.683-1.72.319-.49.733-.884 1.242-1.183.51-.298 1.13-.477 1.86-.536l2.66-.22.081.75a.627.627 0 0 1-.074.41c-.063.113-.176.175-.338.184l-2.212.177Zm7.627 8.061c.49 0 .857-.117 1.102-.352.245-.24.368-.544.368-.912 0-.166-.027-.323-.081-.47a.958.958 0 0 0-.257-.39 1.215 1.215 0 0 0-.463-.264 2.015 2.015 0 0 0-.691-.103h-1.521v2.491h1.543Zm-.022-3.534c.514 0 .948.063 1.301.19.357.123.644.29.86.5.215.206.369.446.462.72.098.27.147.552.147.846 0 .338-.061.651-.183.94-.118.284-.294.53-.529.735a2.57 2.57 0 0 1-.868.485c-.338.113-.727.17-1.168.17h-2.91v-7.467h1.367v2.88h1.521Zm5.776-2.881v7.466h-1.433V71.93h1.433Zm8.651 7.466h-1.433v-6.342h-2.227c-.059.94-.147 1.754-.265 2.44a11.081 11.081 0 0 1-.426 1.742c-.166.475-.353.862-.558 1.16a2.77 2.77 0 0 1-.647.692c-.225.161-.458.27-.698.323-.24.059-.48.088-.72.088-.446 0-.669-.073-.669-.22v-.904h.397c.166 0 .333-.027.499-.081.172-.059.338-.17.5-.33.167-.167.323-.398.47-.692.147-.293.282-.678.405-1.153.122-.48.227-1.063.316-1.75.088-.685.156-1.498.205-2.44h4.851v7.467Zm4.929-1.05c.49 0 .857-.118 1.102-.353.245-.24.368-.544.368-.912 0-.166-.027-.323-.081-.47a.95.95 0 0 0-.258-.39 1.203 1.203 0 0 0-.462-.264 2.019 2.019 0 0 0-.691-.103h-1.521v2.491h1.543Zm-.022-3.535c.514 0 .948.063 1.3.19.358.123.645.29.86.5.216.206.37.446.463.72.098.27.147.552.147.846 0 .338-.061.651-.183.94a1.96 1.96 0 0 1-.53.735 2.555 2.555 0 0 1-.867.485c-.338.113-.727.17-1.168.17h-2.91v-7.467h1.367v2.88h1.521ZM279.735 75.232l-.52.52.52.52.52-.52-.52-.52Zm-4.194-3.154 3.674 3.674 1.04-1.04-3.675-3.674-1.039 1.04Zm4.714 3.674 3.674-3.674-1.039-1.04-3.675 3.675 1.04 1.04Z" fill="#fff"/></g><rect x="121.735" y="44.735" width="584.967" height="314.53" rx="28.66" stroke="#E3EBF6" stroke-width="1.47"/><defs><clipPath id="a"><rect width="399" height="215" rx="20" fill="#fff"/></clipPath><clipPath id="b"><rect x="121" y="44" width="586.437" height="316" rx="29.395" fill="#fff"/></clipPath></defs></svg>