<svg width="0" height="0" class="hidden">
  <symbol xmlns="http://www.w3.org/2000/svg" viewBox="0 0 193 20" id="logo">
    <path d="M25.3133 2.48323V0.0375061H2.4467H0.000976562V2.48323V3.70609V6.15181V7.37467V9.82039H2.4467H25.3133V7.37467H2.4467V6.15181H22.8676V3.70609H2.4467V2.48323H25.3133Z" ></path>
    <path d="M192.138 2.48323V0.0375061H169.271H166.825V2.48323V3.70609V6.15181V7.37467V9.82039H169.271H192.138V7.37467H169.271V6.15181H189.692V3.70609H169.271V2.48323H192.138Z" ></path>
    <path d="M60.3772 2.48323V0.0375061H37.5105H35.0648V2.48323V3.70609V6.15181H37.5105H57.9327V7.37467H35.0648V9.82039H57.9327H60.3772V7.37467V6.15181V3.70609H57.9327H37.5105V2.48323H60.3772Z" ></path>
    <path d="M95.4421 0.0375061H84.0082H81.5625H70.1298V2.48323H81.5625V9.82039H84.0082V2.48323H95.4421V0.0375061Z" ></path>
    <path d="M157.074 0.0375061H145.64H143.194H131.76L131.761 2.48323H143.194V9.82039H145.64V2.48323H157.074V0.0375061Z" ></path>
    <path d="M116.119 1.3922H116.118L115.008 0.500756C114.177 -0.166919 112.994 -0.166919 112.163 0.500756L111.053 1.3922L100.288 9.8349H103.876L104.664 9.21681L111.295 4.01572L113.587 2.21832L118.99 6.45661L121.681 8.56728L123.296 9.83369H126.885L116.119 1.39099V1.3922Z" ></path>
    <path d="M29.0992 14.6755L26.3838 19.3298H27.5389L28.0627 18.3695H31.1023L31.626 19.3298H32.7811L30.0657 14.6755H29.1005H29.0992ZM28.5864 17.4683L29.5819 15.7266L30.5773 17.4683H28.5864Z" ></path>
    <path d="M44.0759 17.0571C44.0759 17.3571 44.065 17.6062 44.0445 17.801C44.0251 17.9788 43.9925 18.1179 43.9429 18.2158C43.9066 18.2908 43.8558 18.3465 43.7868 18.3828C43.7022 18.4287 43.5848 18.4577 43.4373 18.4735C43.2667 18.4904 43.0551 18.4989 42.8059 18.4989H41.8165C41.5673 18.4989 41.3568 18.4892 41.1851 18.4735C41.0375 18.4565 40.9202 18.4275 40.8379 18.3828C40.7678 18.3465 40.717 18.2896 40.6783 18.2098C40.6311 18.1167 40.5984 17.9788 40.5791 17.801C40.5585 17.6062 40.5476 17.3571 40.5476 17.0571V14.6755H39.5582V17.0571C39.5582 17.53 39.5897 17.905 39.6514 18.1989C39.7191 18.5231 39.8449 18.7795 40.0251 18.9585C40.2041 19.1399 40.4521 19.2645 40.7593 19.3274C41.0327 19.3879 41.3883 19.4169 41.8153 19.4169H42.8047C43.2353 19.4169 43.5812 19.3879 43.8594 19.3274C44.1678 19.2633 44.417 19.1399 44.5948 18.9597C44.7762 18.7783 44.902 18.5219 44.9686 18.2001C45.0327 17.9038 45.0629 17.5288 45.0629 17.0559V14.6743H44.0735V17.0559L44.0759 17.0571Z" ></path>
    <path d="M52.0966 15.5778H54.1915V19.3311H55.1809V15.5778H57.2759V14.6755H52.0966V15.5778Z" ></path>
    <path d="M69.6314 15.2851C69.5225 15.0904 69.3689 14.9392 69.1754 14.8327C68.9928 14.7347 68.7702 14.6694 68.515 14.6368C68.2743 14.6053 67.99 14.5896 67.6441 14.5896H66.5434C66.1987 14.5896 65.9144 14.6065 65.6749 14.6368C65.4173 14.6694 65.1947 14.7347 65.0145 14.8327C64.8198 14.938 64.6662 15.0904 64.5597 15.2839C64.4557 15.4677 64.3831 15.6951 64.342 15.9818C64.3033 16.2431 64.2852 16.5696 64.2852 16.9494V17.0583C64.2852 17.5312 64.3166 17.9062 64.3783 18.2001C64.446 18.5243 64.5718 18.7807 64.7521 18.9597C64.9311 19.1412 65.179 19.2657 65.4863 19.3286C65.7596 19.3891 66.1152 19.4181 66.5422 19.4181H67.6429C68.0759 19.4181 68.4206 19.3891 68.6988 19.3286C69.0048 19.2645 69.2528 19.1412 69.4354 18.9597C69.6132 18.7795 69.739 18.5231 69.8092 18.2001C69.8709 17.9002 69.9023 17.5167 69.9023 17.0583V16.9494C69.9023 16.5842 69.883 16.2588 69.8455 15.9806C69.8019 15.6951 69.7306 15.4677 69.629 15.2863L69.6314 15.2851ZM67.6453 18.5001H66.5446C66.2942 18.5001 66.0838 18.4904 65.912 18.4747C65.7632 18.459 65.6471 18.4287 65.5625 18.384C65.4947 18.3477 65.4439 18.2933 65.4064 18.2134C65.3592 18.1191 65.3254 17.9812 65.3072 17.8022C65.2867 17.6074 65.2758 17.3583 65.2758 17.0583V16.9494C65.2758 16.6386 65.2867 16.3797 65.3072 16.1826C65.3254 16.0024 65.3592 15.8645 65.4064 15.7701C65.4415 15.6951 65.4899 15.6468 65.5564 15.6141C65.6386 15.5718 65.7584 15.5451 65.9072 15.5318C66.0801 15.5173 66.2918 15.5077 66.5446 15.5077H67.6453C67.8981 15.5077 68.1098 15.5173 68.2803 15.5294C68.4315 15.5439 68.5513 15.5718 68.6323 15.6117C68.7 15.6468 68.7484 15.6976 68.7847 15.7701C68.8307 15.8669 68.8657 16.0096 68.8839 16.1826C68.9045 16.3809 68.9153 16.6386 68.9153 16.9494V17.0583C68.9153 17.3583 68.9045 17.6074 68.8839 17.8022C68.8657 17.9751 68.8307 18.1167 68.7847 18.2134C68.746 18.292 68.6952 18.3477 68.6287 18.384C68.544 18.4299 68.4255 18.459 68.2779 18.4747C68.1061 18.4916 67.8957 18.5001 67.6453 18.5001Z" ></path>
    <path d="M82.0597 16.8007C82.0911 16.768 82.1214 16.7317 82.1492 16.693C82.2907 16.491 82.3621 16.2406 82.3621 15.9479C82.3621 15.6298 82.3016 15.3734 82.1782 15.1823C82.0488 14.9863 81.854 14.8497 81.5976 14.7734C81.3714 14.7081 81.0872 14.6755 80.7546 14.6755H77.1827V19.3298H80.5211C80.884 19.3298 81.1767 19.3117 81.4174 19.2766C81.6823 19.2367 81.8915 19.1641 82.0548 19.0553C82.2326 18.9404 82.3608 18.7771 82.437 18.5678C82.5024 18.3803 82.5362 18.1481 82.5362 17.8747C82.5362 17.5421 82.454 17.2567 82.2883 17.0196C82.2242 16.9337 82.148 16.8599 82.0597 16.7995V16.8007ZM80.5211 18.4275H78.1722V17.322H80.3796C80.5683 17.322 80.7473 17.328 80.9106 17.3389C81.0582 17.3486 81.184 17.3716 81.2916 17.4115C81.3726 17.4429 81.4343 17.4901 81.4779 17.5554C81.5238 17.6232 81.5468 17.7332 81.5468 17.876C81.5468 18.078 81.5226 18.182 81.5045 18.234L81.5021 18.2412C81.4851 18.2908 81.4585 18.3235 81.4186 18.3428C81.3521 18.3779 81.2517 18.4009 81.1223 18.4106C80.965 18.4239 80.7642 18.4287 80.5223 18.4287L80.5211 18.4275ZM81.3726 15.9467C81.3726 16.1826 81.3231 16.2672 81.3013 16.2902C81.2408 16.358 81.1307 16.3834 81.0497 16.3918C80.8743 16.41 80.653 16.4197 80.3808 16.4197H78.1734V15.5766H80.7558C80.9529 15.5766 81.109 15.5875 81.2214 15.6093C81.2783 15.6201 81.3146 15.6383 81.3303 15.6661C81.34 15.6818 81.3739 15.752 81.3739 15.9479L81.3726 15.9467Z" ></path>
    <path d="M94.9825 15.2851C94.8736 15.0904 94.72 14.9392 94.5265 14.8327C94.3438 14.7347 94.1213 14.6694 93.866 14.6368C93.6253 14.6053 93.3411 14.5896 92.9952 14.5896H91.8945C91.5497 14.5896 91.2655 14.6065 91.026 14.6368C90.7684 14.6694 90.5458 14.7347 90.3656 14.8327C90.1709 14.938 90.0172 15.0904 89.9108 15.2839C89.8068 15.4677 89.7342 15.6951 89.6931 15.9818C89.6544 16.2431 89.6362 16.5696 89.6362 16.9494V17.0583C89.6362 17.5312 89.6677 17.9062 89.7294 18.2001C89.7971 18.5243 89.9229 18.7807 90.1031 18.9597C90.2821 19.1412 90.5301 19.2657 90.8373 19.3286C91.1107 19.3891 91.4663 19.4181 91.8933 19.4181H92.994C93.427 19.4181 93.7717 19.3891 94.0499 19.3286C94.3559 19.2645 94.6051 19.1412 94.7865 18.9597C94.9643 18.7795 95.0901 18.5231 95.1603 18.2001C95.222 17.9002 95.2534 17.5167 95.2534 17.0583V16.9494C95.2534 16.5842 95.2341 16.2588 95.1966 15.9806C95.153 15.6951 95.0816 15.4677 94.98 15.2863L94.9825 15.2851ZM92.9964 18.5001H91.8957C91.6453 18.5001 91.4348 18.4904 91.2631 18.4747C91.1143 18.459 90.9982 18.4287 90.9135 18.384C90.8458 18.3477 90.795 18.2933 90.7575 18.2134C90.7103 18.1191 90.6764 17.9812 90.6583 17.8022C90.6377 17.6074 90.6269 17.3583 90.6269 17.0583V16.9494C90.6269 16.6386 90.6377 16.3797 90.6583 16.1826C90.6764 16.0024 90.7103 15.8645 90.7575 15.7701C90.7926 15.6951 90.8409 15.6468 90.9075 15.6141C90.9897 15.5718 91.1095 15.5451 91.2582 15.5318C91.4312 15.5173 91.6429 15.5077 91.8957 15.5077H92.9964C93.2492 15.5077 93.4608 15.5173 93.6314 15.5294C93.7826 15.5439 93.9023 15.5718 93.9834 15.6117C94.0511 15.6468 94.0995 15.6976 94.1358 15.7701C94.1817 15.8669 94.2168 16.0096 94.235 16.1826C94.2555 16.3809 94.2664 16.6386 94.2664 16.9494V17.0583C94.2664 17.3583 94.2555 17.6074 94.235 17.8022C94.2168 17.9751 94.1817 18.1167 94.1358 18.2134C94.0971 18.292 94.0463 18.3477 93.9797 18.384C93.8951 18.4299 93.7765 18.459 93.629 18.4747C93.4572 18.4916 93.2468 18.5001 92.9964 18.5001Z" ></path>
    <path d="M106.898 17.0571C106.898 17.3571 106.887 17.6062 106.866 17.801C106.847 17.9788 106.814 18.1179 106.765 18.2158C106.728 18.2908 106.678 18.3465 106.609 18.3828C106.524 18.4287 106.407 18.4577 106.259 18.4735C106.089 18.4904 105.877 18.4989 105.628 18.4989H104.638C104.389 18.4989 104.179 18.4892 104.007 18.4735C103.859 18.4565 103.742 18.4275 103.66 18.3828C103.59 18.3465 103.539 18.2896 103.5 18.2098C103.453 18.1167 103.42 17.9788 103.401 17.801C103.38 17.6062 103.37 17.3571 103.37 17.0571V14.6755H102.38V17.0571C102.38 17.53 102.412 17.905 102.473 18.1989C102.541 18.5231 102.667 18.7795 102.847 18.9585C103.026 19.1399 103.274 19.2645 103.581 19.3274C103.855 19.3879 104.21 19.4169 104.637 19.4169H105.627C106.057 19.4169 106.403 19.3879 106.681 19.3274C106.991 19.2633 107.239 19.1399 107.417 18.9597C107.598 18.7783 107.724 18.5219 107.79 18.2001C107.855 17.9038 107.885 17.5288 107.885 17.0559V14.6743H106.895V17.0559L106.898 17.0571Z" ></path>
    <path d="M114.92 15.5778H117.015V19.3311H118.004V15.5778H120.099V14.6755H114.92V15.5778Z" ></path>
    <path d="M128.272 14.6755H127.282V19.3298H128.272V14.6755Z" ></path>
    <path d="M141.081 18.1808C141.139 17.882 141.169 17.5046 141.169 17.0571V16.9482C141.169 16.5829 141.15 16.2576 141.113 15.9794C141.069 15.6939 140.998 15.4665 140.896 15.2851C140.787 15.0904 140.634 14.9392 140.44 14.8327C140.257 14.7347 140.035 14.6694 139.78 14.6368C139.539 14.6053 139.255 14.5896 138.909 14.5896H137.809C137.463 14.5896 137.179 14.6065 136.94 14.6368C136.682 14.6694 136.459 14.7347 136.279 14.8327C136.084 14.938 135.931 15.0904 135.824 15.2839C135.72 15.4677 135.648 15.6951 135.607 15.9818C135.568 16.2431 135.55 16.5696 135.55 16.9494V17.0583C135.55 17.5312 135.581 17.9062 135.643 18.2001C135.711 18.5243 135.836 18.7807 136.017 18.9597C136.196 19.1412 136.444 19.2657 136.751 19.3286C137.024 19.3891 137.38 19.4181 137.807 19.4181H138.906C139.204 19.4181 139.453 19.4073 139.665 19.3819C139.84 19.3637 140 19.3323 140.141 19.2875L141.054 19.9999L141.615 19.3165L140.873 18.736C140.966 18.5799 141.035 18.3937 141.079 18.1808H141.081ZM140.087 18.1191L138.681 17.0172L138.121 17.703L139.137 18.4977C139.065 18.4989 138.99 18.4989 138.909 18.4989H137.809C137.559 18.4989 137.348 18.4892 137.177 18.4735C137.028 18.4565 136.912 18.4275 136.827 18.3828C136.759 18.3465 136.709 18.292 136.671 18.2122C136.624 18.1179 136.59 17.98 136.572 17.801C136.551 17.6062 136.54 17.3571 136.54 17.0571V16.9482C136.54 16.6374 136.551 16.3785 136.572 16.1814C136.59 16.0012 136.624 15.8633 136.671 15.7689C136.706 15.6939 136.755 15.6455 136.821 15.6129C136.903 15.5705 137.023 15.5439 137.172 15.5306C137.345 15.5161 137.556 15.5064 137.809 15.5064H138.909C139.162 15.5064 139.373 15.5161 139.544 15.5282C139.695 15.5427 139.815 15.5705 139.896 15.6105C139.963 15.6455 140.012 15.6963 140.048 15.7689C140.094 15.8657 140.129 16.0084 140.147 16.1814C140.168 16.3797 140.179 16.6374 140.179 16.9482V17.0571C140.179 17.4175 140.162 17.7115 140.13 17.9268C140.12 17.9993 140.104 18.0634 140.086 18.1191H140.087Z" ></path>
    <path d="M152.81 17.0571C152.81 17.3571 152.799 17.6062 152.779 17.801C152.759 17.9788 152.727 18.1179 152.677 18.2158C152.641 18.2908 152.59 18.3465 152.521 18.3828C152.436 18.4287 152.319 18.4577 152.172 18.4735C152.001 18.4904 151.789 18.4989 151.54 18.4989H150.551C150.302 18.4989 150.091 18.4892 149.919 18.4735C149.772 18.4565 149.654 18.4275 149.572 18.3828C149.502 18.3465 149.451 18.2896 149.413 18.2098C149.365 18.1167 149.333 17.9788 149.313 17.801C149.293 17.6062 149.282 17.3571 149.282 17.0571V14.6755H148.292V17.0571C148.292 17.53 148.324 17.905 148.386 18.1989C148.453 18.5231 148.579 18.7795 148.759 18.9585C148.938 19.1399 149.186 19.2645 149.494 19.3274C149.767 19.3879 150.123 19.4169 150.55 19.4169H151.539C151.97 19.4169 152.315 19.3879 152.594 19.3274C152.902 19.2633 153.151 19.1399 153.329 18.9597C153.511 18.7783 153.636 18.5219 153.703 18.2001C153.767 17.9038 153.797 17.5288 153.797 17.0559V14.6743H152.808V17.0559L152.81 17.0571Z" ></path>
    <path d="M162.089 18.4287V17.4103H165.53V16.508H162.089V15.5778H165.679V14.6755H161.1V19.3311H165.755V18.4287H162.089Z" ></path>
  </symbol>
  <symbol xmlns="http://www.w3.org/2000/svg" viewBox="0 0 29 32" id="arrow-slider-left">
    <path d="M2 16L1.30689 16.7208L0.557226 16L1.30689 15.2792L2 16ZM28 15C28.5523 15 29 15.4477 29 16C29 16.5523 28.5523 17 28 17L28 15ZM16.9069 31.7208L1.30689 16.7208L2.69311 15.2792L18.2931 30.2792L16.9069 31.7208ZM1.30689 15.2792L16.9069 0.279168L18.2931 1.72083L2.69311 16.7208L1.30689 15.2792ZM2 15L28 15L28 17L2 17L2 15Z"></path>
  </symbol>
    <symbol xmlns="http://www.w3.org/2000/svg" viewBox="0 0 31 25" id="category-arrow">
    <path d="M19.0547 12.5002L19.7478 11.7793L20.4975 12.5002L19.7478 13.221L19.0547 12.5002ZM0.999132 13.5002C0.446847 13.5002 -0.000867844 13.0524 -0.000867844 12.5002C-0.000867844 11.9479 0.446847 11.5002 0.999132 11.5002V13.5002ZM8.91446 1.36266L19.7478 11.7793L18.3616 13.221L7.52824 2.80433L8.91446 1.36266ZM19.7478 13.221L8.91446 23.6377L7.52824 22.196L18.3616 11.7793L19.7478 13.221ZM19.0547 13.5002H0.999132V11.5002H19.0547V13.5002Z"></path>
    <path fill-rule="evenodd" clip-rule="evenodd" d="M28.4727 25L28.4727 0L30.4727 -6.07103e-08L30.4727 25L28.4727 25Z" ></path>
  </symbol>
      <symbol xmlns="http://www.w3.org/2000/svg" viewBox="0 0 448 512" id="check">
    <path d="M438.6 105.4c12.5 12.5 12.5 32.8 0 45.3l-256 256c-12.5 12.5-32.8 12.5-45.3 0l-128-128c-12.5-12.5-12.5-32.8 0-45.3s32.8-12.5 45.3 0L160 338.7 393.4 105.4c12.5-12.5 32.8-12.5 45.3 0z"></path>
  </symbol>
     <symbol xmlns="http://www.w3.org/2000/svg" viewBox="0 0 24 24" id="phone">
    <path fill-rule="evenodd" clip-rule="evenodd" d="M7.29123 3.99831C7.13039 3.83748 6.86963 3.83748 6.7088 3.99831C4.95952 5.74758 4.76271 8.51693 6.24702 10.496L7.42858 12.0714C8.7078 13.777 10.223 15.2922 11.9286 16.5714L13.504 17.753C15.4831 19.2373 18.2524 19.0405 20.0017 17.2912C20.1625 17.1304 20.1625 16.8696 20.0017 16.7088L17.3536 14.0606C17.1583 13.8654 16.8417 13.8654 16.6465 14.0606L15.6253 15.0818C15.3108 15.3963 14.8304 15.4742 14.4327 15.2753C11.9626 14.0403 9.95971 12.0374 8.72466 9.56733C8.52578 9.16956 8.60374 8.68915 8.9182 8.37469L9.93935 7.35354C10.1346 7.15828 10.1346 6.8417 9.93935 6.64644L7.29123 3.99831ZM6.00169 3.2912C6.55305 2.73985 7.44697 2.73985 7.99833 3.2912L10.6465 5.93933C11.2322 6.52511 11.2322 7.47486 10.6465 8.06065L9.62531 9.0818C9.61521 9.0919 9.6127 9.10734 9.61909 9.12012C10.7574 11.3967 12.6033 13.2426 14.8799 14.3809C14.8927 14.3873 14.9081 14.3848 14.9182 14.3747L15.9394 13.3535C16.5251 12.7678 17.4749 12.7678 18.0607 13.3535L20.7088 16.0017C21.2602 16.553 21.2602 17.447 20.7088 17.9983C18.6076 20.0995 15.2812 20.3359 12.904 18.553L11.3286 17.3714C9.54715 16.0353 7.96466 14.4529 6.62858 12.6714L5.44702 11.096C3.66412 8.7188 3.90052 5.39237 6.00169 3.2912Z"></path>
  </symbol>


   <symbol  xmlns="http://www.w3.org/2000/svg" viewBox="0 0 135 26" id="autoru">
    <g clip-path="url(#clip0_0_107)">
      <path d="M9.93034 4.90109C12.8096 4.90109 15.087 5.99966 15.7299 7.48152V5.43155H20.3907V24.9695H15.7299V22.923C15.087 24.3638 12.8096 25.5034 9.93034 25.5034C4.69845 25.5034 0 21.3316 0 15.2228C0 9.11396 4.69845 4.90109 9.93034 4.90109ZM10.498 20.3802C12.8848 20.3802 14.9707 19.2406 15.576 17.7998V12.6013C14.9707 11.1229 12.8848 10.0209 10.498 10.0209C7.16393 10.0209 4.84891 12.1461 4.84891 15.2194C4.84891 18.2926 7.16051 20.3802 10.498 20.3802Z" ></path>
      <path d="M25.8105 5.43155H30.6253V15.9757C30.6253 18.7854 32.4068 20.3768 34.7561 20.3768C36.8044 20.3768 38.7364 19.1242 39.0784 17.4165V5.43155H43.8931V24.9695H39.2288V22.9983C38.6988 24.4391 36.842 25.5034 34.038 25.5034C30.02 25.5034 25.814 22.8477 25.814 16.7799V5.43155H25.8105Z" ></path>
      <path d="M62.3143 23.2242C61.4047 24.5144 59.6608 25.5 57.462 25.5C53.1397 25.5 51.0572 23.0359 51.0572 18.8231V10.5513H47.7197V8.9976L54.4289 0.5H55.9061V5.43155H62.0852V10.5513H55.8685V17.7587C55.8685 19.6923 57.0072 20.3768 58.2929 20.3768C59.5787 20.3768 60.4165 19.884 61.2885 18.8984L62.3109 23.2242H62.3143Z" ></path>
      <path d="M75.8456 25.5C70.3127 25.5 65.5356 21.1365 65.5356 15.2194C65.5356 9.30219 70.3127 4.90109 75.8456 4.90109C81.3784 4.90109 86.1555 9.30219 86.1555 15.2194C86.1555 21.1365 81.3818 25.5 75.8456 25.5ZM75.8456 20.3802C78.8787 20.3802 81.3031 18.2926 81.3031 15.2194C81.3031 12.1461 78.8787 10.0209 75.8456 10.0209C72.8124 10.0209 70.388 12.1461 70.388 15.2194C70.388 18.2926 72.8124 20.3802 75.8456 20.3802Z" ></path>
      <path d="M92.5601 18.8983C94.4169 18.8983 95.8565 20.3391 95.8565 22.1975C95.8565 24.0558 94.4169 25.4966 92.5601 25.4966C90.7033 25.4966 89.2637 24.0558 89.2637 22.1975C89.2637 20.3391 90.7033 18.8983 92.5601 18.8983Z" ></path>
      <path d="M112.499 10.8183C111.932 10.4384 111.022 10.0209 109.921 10.0209C107.685 10.0209 106.245 11.424 105.865 13.207V24.9661H101.051V5.43155H105.712V8.01198C106.279 6.1913 107.835 4.90109 110.034 4.90109C111.474 4.90109 112.687 5.58213 113.18 6.37953L112.496 10.8183H112.499Z" ></path>
      <path d="M116.476 5.43155H121.291V15.9757C121.291 18.7854 123.072 20.3768 125.422 20.3768C127.47 20.3768 129.402 19.1242 129.744 17.4165V5.43155H134.559V24.9695H129.894V22.9983C129.364 24.4391 127.508 25.5034 124.7 25.5034C120.682 25.5034 116.476 22.8477 116.476 16.7799V5.43155Z" ></path>
    </g>
    <defs>
      <clipPath id="clip0_0_107">
        <rect width="134.559" height="25"  transform="translate(0 0.5)"></rect>
      </clipPath>
    </defs>
  </symbol>
  <symbol  xmlns="http://www.w3.org/2000/svg" viewBox="0 0 142 40" id="avito">
    <path d="M29.7525 40C35.7207 40 40.5588 35.1619 40.5588 29.1937C40.5588 23.2256 35.7207 18.3875 29.7525 18.3875C23.7844 18.3875 18.9463 23.2256 18.9463 29.1937C18.9463 35.1619 23.7844 40 29.7525 40Z" ></path>
    <path d="M9.43926 34.2238C12.2173 34.2238 14.4693 31.9718 14.4693 29.1937C14.4693 26.4157 12.2173 24.1636 9.43926 24.1636C6.66123 24.1636 4.40918 26.4157 4.40918 29.1937C4.40918 31.9718 6.66123 34.2238 9.43926 34.2238Z" ></path>
    <path d="M29.7524 15.8363C33.5938 15.8363 36.7078 12.7223 36.7078 8.88086C36.7078 5.03946 33.5938 1.92538 29.7524 1.92538C25.9109 1.92538 22.7969 5.03946 22.7969 8.88086C22.7969 12.7223 25.9109 15.8363 29.7524 15.8363Z" ></path>
    <path d="M9.43946 17.7617C14.3442 17.7617 18.3203 13.7856 18.3203 8.88087C18.3203 3.9761 14.3442 0 9.43946 0C4.53469 0 0.558594 3.9761 0.558594 8.88087C0.558594 13.7856 4.53469 17.7617 9.43946 17.7617Z" ></path>
    <path d="M68.6531 34.1651H74.2627L63.8738 5.87726H59.8049L49.4141 34.1661H55.0242L57.0083 28.7663H66.6689L68.6531 34.1661L58.5707 24.5093L61.8391 15.614L65.1055 24.5093H58.5707L68.6531 34.1651ZM88.1688 14.8525L83.0064 28.9049L77.8463 14.8525H72.5756L79.6716 34.1651H86.3421L93.4372 14.8525H88.1679M95.6432 14.8525H100.914V34.1651H95.6432V14.8525Z" ></path>
    <path d="M98.2963 12.6594C100.171 12.6594 101.69 11.1401 101.69 9.26594C101.69 7.39176 100.171 5.87244 98.2963 5.87244C96.4222 5.87244 94.9028 7.39176 94.9028 9.26594C94.9028 11.1401 96.4222 12.6594 98.2963 12.6594Z" ></path>
    <path d="M119.524 19.1085V14.8525H113.21V9.5249H107.943V14.8525H103.774V19.1085H107.943V27.4176C107.943 31.7035 110.086 34.5641 115.558 34.5641C117.671 34.5641 119.524 33.7882 119.524 33.7882L118.884 29.6183C118.884 29.6183 117.847 29.9283 116.571 29.9283C115.008 29.9283 113.21 29.2544 113.21 27.0931V19.1081L119.524 19.1085ZM131.611 29.7507C128.672 29.7507 126.291 27.4209 126.291 24.5473C126.291 21.676 128.672 19.3458 131.61 19.3458C134.549 19.3458 136.93 21.6765 136.93 24.5478C136.93 27.4214 134.549 29.7507 131.611 29.7507ZM131.611 14.3596C125.898 14.3596 121.265 18.8914 121.265 24.4775C121.265 30.0659 125.898 34.5954 131.61 34.5954C137.32 34.5954 141.953 30.0659 141.953 24.4775C141.953 18.8914 137.32 14.3596 131.61 14.3596" ></path>
  </symbol>
  <symbol  xmlns="http://www.w3.org/2000/svg" viewBox="0 0 42 42" id="insta">
    <g clip-path="url(#clip0_21_6995)">
      <path d="M21.1437 4.37658C26.6401 4.37658 27.291 4.4008 29.4526 4.49771C31.4616 4.58654 32.5464 4.92571 33.2696 5.20835C34.2258 5.57982 34.9169 6.03204 35.6321 6.75075C36.3553 7.47754 36.7973 8.16395 37.1669 9.12492C37.4482 9.85171 37.7857 10.95 37.8741 12.9607C37.9705 15.1411 37.9946 15.7952 37.9946 21.3107C37.9946 26.8343 37.9705 27.4884 37.8741 29.6607C37.7857 31.6796 37.4482 32.7698 37.1669 33.4965C36.7973 34.4575 36.3473 35.152 35.6321 35.8707C34.9089 36.5975 34.2258 37.0417 33.2696 37.4131C32.5464 37.6958 31.4535 38.0349 29.4526 38.1238C27.283 38.2207 26.6321 38.2449 21.1437 38.2449C15.6473 38.2449 14.9964 38.2207 12.8348 38.1238C10.8258 38.0349 9.74102 37.6958 9.0178 37.4131C8.06155 37.0417 7.37048 36.5894 6.6553 35.8707C5.93209 35.1439 5.49012 34.4575 5.12048 33.4965C4.83923 32.7698 4.50173 31.6715 4.41334 29.6607C4.31691 27.4804 4.2928 26.8262 4.2928 21.3107C4.2928 15.7871 4.31691 15.133 4.41334 12.9607C4.50173 10.9419 4.83923 9.85171 5.12048 9.12492C5.49012 8.16395 5.94012 7.46946 6.6553 6.75075C7.37852 6.02396 8.06155 5.57982 9.0178 5.20835C9.74102 4.92571 10.8339 4.58654 12.8348 4.49771C14.9964 4.4008 15.6473 4.37658 21.1437 4.37658ZM21.1437 0.653809C15.5589 0.653809 14.8598 0.678035 12.666 0.77494C10.4803 0.871845 8.97762 1.22716 7.67584 1.73591C6.3178 2.26889 5.16869 2.97145 4.02762 4.12624C2.87852 5.27295 2.17941 6.42773 1.64905 7.78441C1.1428 9.1007 0.78923 10.6027 0.692801 12.7992C0.596373 15.0119 0.572266 15.7145 0.572266 21.3269C0.572266 26.9393 0.596373 27.6419 0.692801 29.8465C0.78923 32.043 1.1428 33.5531 1.64905 34.8613C2.17941 36.226 2.87852 37.3808 4.02762 38.5275C5.16869 39.6742 6.3178 40.3849 7.6678 40.9098C8.97762 41.4185 10.4723 41.7738 12.658 41.8708C14.8517 41.9677 15.5508 41.9919 21.1357 41.9919C26.7205 41.9919 27.4196 41.9677 29.6133 41.8708C31.7991 41.7738 33.3017 41.4185 34.6035 40.9098C35.9535 40.3849 37.1026 39.6742 38.2437 38.5275C39.3848 37.3808 40.0919 36.226 40.6142 34.8694C41.1205 33.5531 41.4741 32.051 41.5705 29.8545C41.6669 27.6499 41.691 26.9474 41.691 21.335C41.691 15.7225 41.6669 15.02 41.5705 12.8154C41.4741 10.6189 41.1205 9.10877 40.6142 7.80056C40.108 6.42773 39.4089 5.27295 38.2598 4.12624C37.1187 2.97953 35.9696 2.26889 34.6196 1.74399C33.3098 1.23524 31.8151 0.87992 29.6294 0.783015C27.4276 0.678035 26.7285 0.653809 21.1437 0.653809Z" fill="#EFF1FC"></path>
      <path d="M21.1431 10.7075C15.3092 10.7075 10.5762 15.4639 10.5762 21.3267C10.5762 27.1895 15.3092 31.9459 21.1431 31.9459C26.9771 31.9459 31.7101 27.1895 31.7101 21.3267C31.7101 15.4639 26.9771 10.7075 21.1431 10.7075ZM21.1431 28.215C17.3583 28.215 14.2887 25.1302 14.2887 21.3267C14.2887 17.5232 17.3583 14.4384 21.1431 14.4384C24.928 14.4384 27.9976 17.5232 27.9976 21.3267C27.9976 25.1302 24.928 28.215 21.1431 28.215Z" fill="#EFF1FC"></path>
      <path d="M34.596 10.2878C34.596 11.6606 33.4871 12.7669 32.1291 12.7669C30.763 12.7669 29.6621 11.6525 29.6621 10.2878C29.6621 8.91493 30.771 7.80859 32.1291 7.80859C33.4871 7.80859 34.596 8.923 34.596 10.2878Z" fill="#EFF1FC"></path>
    </g>
    <defs>
      <clipPath id="clip0_21_6995">
        <rect width="41.1429" height="41.3462"  transform="translate(0.572266 0.653809)"></rect>
      </clipPath>
    </defs>
  </symbol>
  <symbol  xmlns="http://www.w3.org/2000/svg" viewBox="0 0 51 50" id="tg">
    <path fill-rule="evenodd" clip-rule="evenodd" d="M50.7068 25C50.7068 38.8071 39.5689 50 25.8297 50C12.0905 50 0.952637 38.8071 0.952637 25C0.952637 11.1929 12.0905 0 25.8297 0C39.5689 0 50.7068 11.1929 50.7068 25ZM26.7209 18.4559C24.3012 19.4673 19.4653 21.5606 12.2131 24.7359C11.0355 25.2065 10.4186 25.6669 10.3624 26.1171C10.2675 26.8779 11.2156 27.1775 12.5066 27.5855C12.6822 27.641 12.8642 27.6985 13.0507 27.7594C14.3209 28.1743 16.0295 28.6598 16.9178 28.679C17.7235 28.6965 18.6228 28.3627 19.6156 27.6776C26.3915 23.0811 29.8893 20.7578 30.1089 20.7077C30.2638 20.6723 30.4785 20.6279 30.624 20.7578C30.7694 20.8878 30.7551 21.1338 30.7397 21.1998C30.6458 21.6022 26.9242 25.0792 24.9983 26.8785C24.3979 27.4395 23.9721 27.8374 23.885 27.9282C23.69 28.1318 23.4912 28.3243 23.3002 28.5094C22.1202 29.6526 21.2352 30.5099 23.3492 31.9098C24.365 32.5825 25.1779 33.1389 25.9889 33.6938C26.8746 34.3 27.758 34.9045 28.9009 35.6575C29.1921 35.8493 29.4702 36.0485 29.7411 36.2426C30.7718 36.981 31.6978 37.6444 32.8418 37.5386C33.5066 37.4772 34.1932 36.849 34.5419 34.9756C35.3661 30.548 36.986 20.9549 37.3604 17.0018C37.3932 16.6555 37.3519 16.2123 37.3188 16.0177C37.2856 15.8231 37.2164 15.5459 36.9647 15.3406C36.6667 15.0976 36.2065 15.0463 36.0007 15.05C35.0651 15.0666 33.6295 15.5682 26.7209 18.4559Z" ></path>
  </symbol>
  <symbol  xmlns="http://www.w3.org/2000/svg" viewBox="0 0 51 50" id="vk">
    <path fill-rule="evenodd" clip-rule="evenodd" d="M4.19811 3.50833C0.707031 7.01667 0.707031 12.665 0.707031 23.9583V26.0417C0.707031 37.3333 0.707031 42.9833 4.19811 46.4917C7.6892 50 13.3098 50 24.5476 50H26.6207C37.8568 50 43.479 50 46.9701 46.4917C50.4612 42.9833 50.4612 37.335 50.4612 26.0417V23.9583C50.4612 12.6667 50.4612 7.01667 46.9701 3.50833C43.479 0 37.8585 0 26.6207 0H24.5476C13.3114 0 7.6892 0 4.19811 3.50833ZM10.5578 15.625H14.1848C15.1119 15.625 15.4602 16.0333 15.8085 17.0434C17.5831 22.2367 20.5749 26.7767 21.8039 26.7767C22.2666 26.7767 22.4772 26.5634 22.4772 25.385V20.0167C22.3941 18.4885 21.8628 17.8274 21.4693 17.3378C21.2264 17.0355 21.036 16.7986 21.036 16.4634C21.036 16.055 21.3826 15.625 21.9581 15.625H27.6599C28.4295 15.625 28.6965 16.0384 28.6965 16.965V24.1883C28.6965 24.96 29.0298 25.2317 29.2604 25.2317C29.7214 25.2317 30.1062 24.96 30.952 24.11C33.5657 21.175 35.41 16.6567 35.41 16.6567C35.6405 16.115 36.0667 15.625 36.9888 15.625H40.6159C41.7138 15.625 41.946 16.1933 41.7138 16.965C41.2528 19.09 36.8329 25.3467 36.8329 25.3467C36.4482 25.965 36.2939 26.2733 36.8329 26.9683C37.0231 27.2361 37.429 27.6359 37.8929 28.0929C38.3675 28.5603 38.9029 29.0877 39.3306 29.595C40.8896 31.3567 42.0638 32.8433 42.3905 33.8667C42.6907 34.895 42.1716 35.4167 41.135 35.4167H37.5063C36.5348 35.4167 36.046 34.8699 34.989 33.6875C34.541 33.1864 33.991 32.5712 33.2589 31.835C31.1046 29.75 30.1841 29.48 29.6451 29.48C28.9154 29.48 28.6965 29.6884 28.6965 30.73V34C28.6965 34.895 28.4112 35.4167 26.1043 35.4167C22.2616 35.4167 18.0375 33.0717 15.0406 28.745C10.5428 22.4117 9.31392 17.6217 9.31392 16.6567C9.31392 16.115 9.52122 15.625 10.5578 15.625Z" ></path>
  </symbol>
  <symbol  xmlns="http://www.w3.org/2000/svg" viewBox="0 0 51 50" id="yt">
    <g clip-path="url(#clip0_0_129)">
      <path d="M49.7197 15.0001C49.7197 15.0001 49.2339 11.5528 47.7373 10.0392C45.8424 8.04697 43.724 8.0372 42.7522 7.92001C35.7944 7.4122 25.348 7.4122 25.348 7.4122H25.3285C25.3285 7.4122 14.8821 7.4122 7.9243 7.92001C6.95254 8.0372 4.83411 8.04697 2.93917 10.0392C1.44266 11.5528 0.966497 15.0001 0.966497 15.0001C0.966497 15.0001 0.461182 19.0528 0.461182 23.0958V26.8849C0.461182 30.9278 0.95678 34.9806 0.95678 34.9806C0.95678 34.9806 1.44266 38.4278 2.92945 39.9415C4.82439 41.9337 7.3121 41.8653 8.4199 42.0802C12.4041 42.461 25.3383 42.5782 25.3383 42.5782C25.3383 42.5782 35.7944 42.5587 42.7522 42.0606C43.724 41.9435 45.8424 41.9337 47.7373 39.9415C49.2339 38.4278 49.7197 34.9806 49.7197 34.9806C49.7197 34.9806 50.2153 30.9376 50.2153 26.8849V23.0958C50.2153 19.0528 49.7197 15.0001 49.7197 15.0001ZM20.1976 31.4845V17.4317L33.6371 24.4825L20.1976 31.4845Z" ></path>
    </g>
    <defs>
      <clipPath id="clip0_0_129">
        <rect width="49.7542" height="50"  transform="translate(0.461182)"></rect>
      </clipPath>
    </defs>
  </symbol>
</svg>