<svg width="515" height="139" viewBox="0 0 515 139" fill="none" xmlns="http://www.w3.org/2000/svg">
<g filter="url(#filter0_b_591_6408)">
<path d="M0.809387 138.986L75.868 0.03125H100.653L25.5067 138.986H0.809387ZM84.0887 85.9297V84.6992C84.0887 70.207 89.2059 59.2891 99.4402 51.9453C109.675 44.6016 123.034 40.9297 139.518 40.9297C155.651 40.9297 167.858 43.6445 176.139 49.0742C184.46 54.5039 189.44 62.6094 191.081 73.3906L191.374 75.5586H170.632L170.339 73.8594C169.128 68.0781 166.218 63.5664 161.608 60.3242C156.999 57.043 149.831 55.4023 140.104 55.4023C129.44 55.4023 121.12 57.8828 115.143 62.8438C109.206 67.8047 106.237 75.0508 106.237 84.582V85.9297C106.237 95.5391 109.284 102.883 115.378 107.961C121.471 113.039 129.714 115.578 140.104 115.578C149.87 115.578 157.077 114.074 161.725 111.066C166.413 108.02 169.323 103.43 170.456 97.2969L170.749 95.4219H191.374L191.139 97.6484C189.811 108.273 185.085 116.281 176.96 121.672C168.874 127.062 156.452 129.758 139.694 129.758C122.78 129.758 109.284 126.008 99.2059 118.508C89.1277 111.008 84.0887 100.148 84.0887 85.9297ZM210.656 42.6875H285.246V128H264.504V59.2695H228.175L225.89 94.0156C225.226 104.25 223.156 112.688 219.679 119.328C216.203 125.93 209.66 129.23 200.05 129.23C197.629 129.23 195.636 129.133 194.074 128.938C192.55 128.742 191.261 128.488 190.207 128.176V108.723C191.105 108.957 191.984 109.113 192.843 109.191C193.742 109.27 194.718 109.309 195.773 109.309C199.875 109.309 202.765 107.961 204.445 105.266C206.164 102.57 207.238 98.0586 207.668 91.7305L210.656 42.6875ZM302.067 128V42.6875H377.77V58.6836H321.579V77.8438H372.614V91.7891H321.579V112.59H378.649V128H302.067ZM390.431 42.6875H411.232V111.418H442.228V42.6875H462.97V111.418H494.083V42.6875H514.825V128H390.431V42.6875Z" fill="url(#paint0_linear_591_6408)"/>
</g>
<defs>
<filter id="filter0_b_591_6408" x="-31.1907" y="-31.9688" width="578.016" height="202.955" filterUnits="userSpaceOnUse" color-interpolation-filters="sRGB">
<feFlood flood-opacity="0" result="BackgroundImageFix"/>
<feGaussianBlur in="BackgroundImageFix" stdDeviation="16"/>
<feComposite in2="SourceAlpha" operator="in" result="effect1_backgroundBlur_591_6408"/>
<feBlend mode="normal" in="SourceGraphic" in2="effect1_backgroundBlur_591_6408" result="shape"/>
</filter>
<linearGradient id="paint0_linear_591_6408" x1="267.5" y1="-114" x2="267.274" y2="201" gradientUnits="userSpaceOnUse">
<stop offset="0.578125" stop-color="#E7E7E7"/>
<stop offset="1" stop-color="#313131" stop-opacity="0.5"/>
</linearGradient>
</defs>
</svg>
