<svg width="0" height="0" class="hidden">
  <symbol version="1.1" xmlns="http://www.w3.org/2000/svg" viewBox="0 0 512 512" id="facebook">
    <path d="M255.994 0c-141.381 0-255.994 115.037-255.994 256.94 0 120.495 82.656 221.607 194.156 249.377v-170.856h-52.786v-78.521h52.786v-33.833c0-87.453 39.434-127.987 124.978-127.987 16.219 0 44.204 3.197 55.653 6.383v71.173c-6.041-0.637-16.538-0.956-29.572-0.956-41.972 0-58.193 15.96-58.193 57.451v27.771h83.618l-14.366 78.521h-69.252v176.539c126.759-15.365 224.978-123.69 224.978-255.060-0.010-141.903-114.624-256.94-256.005-256.94z"></path>
  </symbol>
  <symbol version="1.1" xmlns="http://www.w3.org/2000/svg" viewBox="0 0 512 512" id="instagram">
    <path d="M256.151 124.525c-72.643 0-131.577 58.911-131.577 131.526s58.935 131.526 131.577 131.526c72.642 0 131.577-58.911 131.577-131.525s-58.935-131.525-131.577-131.525zM256.151 341.366c-47.128 0-85.351-38.207-85.351-85.317 0-47.108 38.222-85.317 85.351-85.317 47.127 0 85.349 38.208 85.349 85.317s-38.222 85.317-85.349 85.317z"></path>
    <path d="M392.93 150.029c16.91 0 30.719-13.703 30.719-30.707 0-16.904-13.808-30.706-30.719-30.706s-30.719 13.703-30.719 30.706c0 16.904 13.709 30.707 30.719 30.707z"></path>
    <path d="M256.151 0c-69.541 0-78.246 0.3-105.563 1.5-27.215 1.2-45.927 5.601-62.136 11.902-16.91 6.601-31.218 15.303-45.426 29.606-14.309 14.203-23.014 28.505-29.617 45.309-6.303 16.303-10.707 34.907-11.907 62.112-1.2 27.405-1.501 36.106-1.501 105.62s0.3 78.215 1.501 105.521c1.2 27.206 5.604 45.909 11.907 62.113 6.604 16.903 15.309 31.207 29.617 45.409 14.209 14.202 28.517 23.005 45.327 29.505 16.309 6.302 34.921 10.702 62.137 11.902 27.316 1.2 36.020 1.5 105.562 1.5s78.246-0.3 105.562-1.5c27.217-1.2 45.928-5.601 62.137-11.902 16.809-6.501 31.118-15.303 45.326-29.505s23.014-28.505 29.518-45.309c6.303-16.303 10.705-34.907 11.907-62.111 1.2-27.305 1.501-36.008 1.501-105.522 0-69.512-0.3-78.215-1.5-105.52-1.202-27.205-5.603-45.909-11.907-62.112-6.305-17.003-15.009-31.306-29.317-45.509-14.208-14.203-28.517-23.005-45.326-29.506-16.31-6.301-34.921-10.702-62.137-11.902-27.416-1.3-36.121-1.601-105.661-1.601zM256.151 46.109c68.439 0 76.544 0.3 103.459 1.501 25.015 1.1 38.522 5.301 47.528 8.801 11.907 4.601 20.512 10.202 29.417 19.103 9.005 9.002 14.51 17.504 19.112 29.406 3.502 9.002 7.704 22.605 8.805 47.509 1.2 27.005 1.5 35.107 1.5 103.421 0 68.413-0.3 76.514-1.5 103.419-1.101 25.004-5.303 38.507-8.805 47.51-4.603 11.902-10.206 20.504-19.112 29.406-9.005 9.001-17.51 14.502-29.417 19.103-9.005 3.5-22.613 7.702-47.528 8.802-27.015 1.2-35.12 1.5-103.459 1.5-68.44 0-76.546-0.3-103.461-1.5-25.015-1.101-38.523-5.302-47.528-8.802-11.907-4.601-20.512-10.202-29.417-19.103-9.005-9.002-14.508-17.503-19.111-29.406-3.502-9.002-7.705-22.605-8.805-47.51-1.201-27.005-1.501-35.108-1.501-103.419 0-68.415 0.3-76.516 1.501-103.421 1.1-25.005 5.303-38.507 8.805-47.509 4.602-11.903 10.206-20.504 19.111-29.406 9.005-9.002 17.511-14.503 29.417-19.103 9.005-3.501 22.613-7.702 47.528-8.802 26.916-1.2 35.021-1.501 103.461-1.501z"></path>
  </symbol>
  <symbol version="1.1" xmlns="http://www.w3.org/2000/svg" viewBox="0 0 512 512" id="reddit">
    <path d="M321.094 95.079c5.546 23.896 26.661 41.697 51.874 41.697 29.435 0 53.299-24.251 53.299-54.166s-23.863-54.166-53.299-54.166c-25.738 0-47.202 18.538-52.2 43.195-43.103 4.698-76.762 41.849-76.762 86.873 0 0.101 0 0.178 0 0.28-46.878 2.006-89.681 15.567-123.665 36.974-12.619-9.93-28.461-15.846-45.653-15.846-41.255 0-74.689 33.977-74.689 75.903 0 30.422 17.591 56.629 43.004 68.742 2.474 88.117 96.952 158.992 213.171 158.992s210.821-70.951 213.171-159.144c25.212-12.19 42.654-38.32 42.654-68.564 0-41.925-33.433-75.903-74.688-75.903-17.116 0-32.885 5.865-45.478 15.719-34.282-21.56-77.563-35.12-124.914-36.923 0-0.076 0-0.127 0-0.203 0-32.251 23.589-59.016 54.174-63.409v-0.051zM117.343 303.995c1.249-27.527 19.24-48.654 40.155-48.654s36.906 22.32 35.658 49.847c-1.25 27.527-16.868 37.533-37.807 37.533s-39.256-11.199-38.007-38.726zM354.877 255.34c20.94 0 38.93 21.127 40.155 48.654 1.248 27.527-17.092 38.726-38.006 38.726-20.915 0-36.558-9.979-37.807-37.533-1.25-27.527 14.717-49.847 35.658-49.847zM329.988 367.683c3.924 0.407 6.423 4.546 4.898 8.253-12.868 31.26-43.254 53.225-78.712 53.225s-65.817-21.965-78.712-53.225c-1.524-3.707 0.974-7.846 4.898-8.253 22.989-2.363 47.85-3.656 73.814-3.656s50.8 1.294 73.814 3.656z"></path>
  </symbol>
  <symbol version="1.1" xmlns="http://www.w3.org/2000/svg" viewBox="0 0 441 512" id="threads">
    <path d="M343.075 237.302c-2.207-1.056-4.45-2.075-6.721-3.048-3.955-72.819-43.781-114.507-110.651-114.934-0.303-0.002-0.605-0.002-0.907-0.002-39.997 0-73.263 17.057-93.738 48.098l36.776 25.206c15.296-23.186 39.3-28.129 56.978-28.129 0.205 0 0.41 0 0.612 0.001 22.019 0.141 38.633 6.536 49.387 19.010 7.827 9.081 13.060 21.629 15.651 37.467-19.522-3.315-40.633-4.335-63.203-3.042-63.578 3.66-104.451 40.706-101.706 92.184 1.393 26.112 14.413 48.576 36.66 63.25 18.81 12.404 43.036 18.472 68.214 17.098 33.251-1.82 59.337-14.495 77.534-37.672 13.82-17.6 22.562-40.408 26.421-69.147 15.846 9.555 27.591 22.128 34.077 37.243 11.029 25.692 11.672 67.914-22.81 102.334-30.211 30.156-66.528 43.2-121.409 43.604-60.88-0.451-106.923-19.958-136.858-57.98-28.032-35.603-42.52-87.026-43.060-152.845 0.541-65.819 15.028-117.244 43.060-152.846 29.936-38.021 75.978-57.527 136.857-57.98 61.322 0.456 108.167 20.056 139.249 58.26 15.24 18.735 26.731 42.296 34.305 69.767l43.097-11.488c-9.182-33.813-23.629-62.951-43.289-87.115-39.846-48.98-98.124-74.077-173.211-74.597h-0.3c-74.935 0.518-132.56 25.712-171.272 74.878-34.448 43.752-52.218 104.63-52.815 180.941l-0.002 0.18 0.002 0.181c0.597 76.311 18.366 137.19 52.815 180.942 38.712 49.165 96.336 74.36 171.272 74.877h0.3c66.621-0.461 113.582-17.887 152.266-56.503 50.614-50.52 49.091-113.846 32.408-152.721-11.968-27.877-34.786-50.519-65.987-65.474zM228.048 345.353c-27.865 1.567-56.815-10.928-58.242-37.695-1.058-19.844 14.136-41.988 59.951-44.627 5.246-0.303 10.397-0.451 15.454-0.451 16.642 0 32.211 1.615 46.365 4.707-5.279 65.872-36.247 76.568-63.528 78.065z"></path>
  </symbol>
  <symbol version="1.1" xmlns="http://www.w3.org/2000/svg" viewBox="0 0 427 512" id="tiktok">
    <path d="M313.705 0h-84.183v348.753c0 41.555-32.379 75.688-72.67 75.688-40.293 0-72.671-34.133-72.671-75.688 0-40.81 31.658-74.203 70.512-75.686v-87.559c-85.621 1.483-154.694 73.46-154.694 163.246 0 90.529 70.511 163.247 157.572 163.247 87.059 0 157.571-73.461 157.571-163.247v-178.829c31.659 23.745 70.511 37.844 111.524 38.587v-87.56c-63.316-2.226-112.962-55.653-112.962-120.951z"></path>
  </symbol>
  <symbol version="1.1" xmlns="http://www.w3.org/2000/svg" viewBox="0 0 512 512" id="x">
    <path d="M403.23 28.445h78.51l-171.52 192.781 201.78 262.33h-157.993l-123.746-159.103-141.593 159.102h-78.558l183.458-206.201-193.569-248.91h162.004l111.855 145.425 129.371-145.425zM375.675 437.344h43.503l-280.813-365.116h-46.684l283.993 365.116z"></path>
  </symbol>
  <symbol version="1.1" xmlns="http://www.w3.org/2000/svg" viewBox="0 0 416 512" id="apk">
    <path d="M251.904 0.198c0 31.116 0 60.706 0 90.295 0 10.882-0.195 21.572 0.197 32.453 0.977 27.871 20.731 47.152 49.285 47.342 34.226 0.382 68.453 0.192 102.678 0.192 3.52 0 7.041 0 11.539 0 0 4.391 0 7.827 0 11.262 0 94.496-0.783 188.99 0.39 283.485 0.392 31.882-23.469 46.961-47.72 46.771-106.981-0.573-213.767-0.573-320.748 0-24.642 0.191-47.721-15.462-47.526-46.007 0.782-139.93 0.782-279.859 0-419.978-0.196-30.735 23.274-46.389 47.33-46.007 64.15 0.763 128.494 0.191 192.644 0.191 3.52 0 7.040 0 11.929 0zM304.711 352.597c6.259 10.691 12.322 21.381 18.971 31.88 1.565 2.483 4.498 5.346 6.845 5.538 8.214 0.763 16.624 0.19 26.795 0.19-12.714-20.427-24.253-39.325-35.987-58.416 11.735-15.080 23.274-29.779 35.595-45.815-5.085-0.192-8.409 0-11.344-0.573-14.472-2.481-24.447 2.481-31.291 15.653-4.889 9.546-12.322 17.945-18.581 26.917-0.587-0.19-1.173-0.381-1.76-0.763 0-13.553 0-26.917 0-40.853-8.997 0-17.211 0-25.229 0 0 34.935 0 69.106 0 103.087 8.8 0 16.624 0 24.251 0 3.325-12.791-5.28-28.063 11.735-36.845zM159.983 389.25c0-0.954 0-1.909-0.196-2.672-11.93-31.88-23.861-63.57-35.987-95.45-3.716-9.736-12.322-4.2-18.58-5.346-4.694-0.954-8.214 0-10.365 5.728-11.344 31.115-23.078 61.851-34.617 92.776-0.587 1.528-0.391 3.437-0.587 5.728 3.325 0.19 5.867 0.381 8.41 0.381 16.233 0.19 16.037 0.19 22.296-14.509 0.978-2.289 4.302-4.771 6.65-4.963 9.975-0.573 20.145-0.19 29.728-0.19 8.41 21.763 9.583 22.526 33.248 18.517zM169.371 389.442c8.8 0 16.819 0 25.424 0 0-6.109 0-11.454 0-16.8 0-5.536 0-11.262 0-16.798 10.367-0.955 19.363-1.336 28.36-2.481 18.579-2.673 29.531-14.127 30.119-30.544 0.782-17.563-9.387-33.026-27.381-35.317-18.384-2.291-37.355-0.573-56.522-0.573 0 33.789 0 67.769 0 102.513zM277.135 25.587c0 32.071-0.195 64.142 0 96.213 0.195 15.654 9.582 24.244 26.207 24.244 28.945 0.191 57.891 0 86.837 0 2.347 0 4.695-0.572 8.214-1.145-40.485-41.807-79.795-82.659-120.28-124.466-0.587 2.864-0.978 4.009-0.978 5.154zM108.546 317.854c-3.52 10.88-6.845 21.571-10.561 33.026 8.019 0 14.864 0 22.687 0-3.716-11.454-7.041-22.336-10.366-33.026-0.587 0-1.174 0-1.76 0zM215.918 334.462c8.019-0.382 11.147-5.728 11.344-12.791 0.195-7.637-2.544-14.319-10.757-15.845-6.846-1.146-13.887-0.19-21.123-0.19 0 10.117 0 19.28 0 29.016 7.237 0 13.887 0.19 20.536-0.19z"></path>
  </symbol>
  <symbol version="1.1" xmlns="http://www.w3.org/2000/svg" viewBox="0 0 2048 512" id="appstore">
    <path d="M1029.189 0h-18.524v128.511h18.524v-128.511z"></path>
    <path d="M247.063 77.511c14.407-18.359 26.757-44.877 22.64-71.395-22.641 0-49.398 14.279-65.863 34.678-14.407 16.319-26.756 42.837-22.641 69.355 24.698 0 51.456-14.279 65.863-32.638z"></path>
    <path d="M304.691 242.739c0-51.701 38.787-78.331 47.67-84.427 0.928-0.637 1.533-1.053 1.728-1.246-25.624-37.116-64.461-42.429-80.357-44.605-0.702-0.096-1.363-0.186-1.973-0.273-21.342-2.489-41.918 5.648-58.927 12.374-10.875 4.301-20.292 8.024-27.517 8.024-8.243 0-18.117-4.040-29.076-8.523-13.669-5.592-29.028-11.876-45.020-11.876-37.048 0-72.037 22.438-92.62 55.076-39.106 67.315-10.291 169.307 28.815 224.384 18.524 26.517 41.164 57.115 69.979 57.115 13.041-0.923 22.287-4.77 31.745-8.707 11.443-4.76 23.195-9.651 42.35-9.651 18.042 0 28.97 4.881 39.556 9.61 9.944 4.442 19.585 8.748 34.54 8.748 30.873 0 49.397-26.517 67.921-55.075 22.64-30.598 30.872-61.195 30.872-63.235 0 2.039-59.688-20.399-59.688-87.714z"></path>
    <path d="M568.146 381.447h96.736l24.698 69.355h41.165l-92.62-252.941h-41.165l-92.62 252.941h41.165l22.64-69.355zM656.65 350.849h-78.212l37.048-112.192h2.058l39.107 112.192z"></path>
    <path d="M930.392 359.012c0 57.115-30.872 93.832-78.212 93.832-26.756 0-47.338-12.238-57.63-32.637v91.793h-39.106v-244.781h37.048v30.598c10.291-20.399 32.932-32.639 59.688-32.639 45.28-2.039 78.212 36.717 78.212 93.834zM889.229 359.012c0-36.718-18.524-61.195-49.398-61.195-28.814 0-49.396 24.478-49.396 61.195s20.582 61.195 49.397 61.195c30.874 0 49.398-24.478 49.398-61.195z"></path>
    <path d="M1055.945 452.844c47.339 0 78.213-36.718 78.213-93.832 0-57.117-30.873-95.873-78.213-93.834-26.757 0-49.398 12.24-59.689 32.639v-30.598h-37.048v244.781h39.107v-91.793c10.291 20.399 30.872 32.637 57.63 32.637zM1045.653 297.816c30.873 0 49.397 24.478 49.397 61.195s-18.523 61.195-49.397 61.195c-28.816 0-49.398-24.478-49.398-61.195s20.582-61.195 49.398-61.195z"></path>
    <path d="M1269.997 379.409c2.058 24.48 26.756 40.798 61.746 40.798 32.931 0 55.572-16.318 55.572-38.757 0-20.399-14.407-30.598-47.339-38.758l-32.931-8.159c-47.339-12.238-67.921-32.637-67.921-67.315 0-42.836 39.105-73.433 92.62-73.433s90.564 30.597 92.627 73.433h-39.112c-2.058-24.478-22.64-40.797-53.514-40.797s-51.456 16.319-51.456 38.757c0 18.36 14.409 28.558 47.34 36.717l28.814 6.12c51.456 12.238 74.101 32.637 74.101 69.355 0 46.916-39.111 77.514-98.799 77.514-57.63 0-94.678-28.558-96.736-75.475h34.989z"></path>
    <path d="M1508.75 265.179v-40.797h-37.049v42.836h-26.752v30.598h26.752v106.072c0 34.678 14.407 48.957 51.456 48.957 8.235 0 16.469 0 20.58-2.039v-30.598h-12.345c-16.469 0-22.642-6.12-22.642-22.438v-101.993h34.986v-30.598h-34.986z"></path>
    <path d="M1566.379 359.012c0-57.115 35.001-93.832 88.505-93.832 53.518 0 88.505 36.718 88.505 93.832 0 59.156-34.986 93.834-88.505 93.834-55.566 0-88.505-36.717-88.505-93.834zM1704.277 359.012c0-40.796-18.517-63.235-49.394-63.235s-49.394 22.438-49.394 63.235c0 40.796 18.517 63.235 49.394 63.235s49.394-24.478 49.394-63.235z"></path>
    <path d="M1811.3 265.179h-37.049v187.667h39.111v-110.153c0-26.519 14.407-42.837 39.111-42.837 6.172 0 14.407 0 16.469 2.041v-34.678c-2.062-2.039-6.187-2.039-12.359-2.039-22.642 0-39.097 12.238-45.284 32.637v-32.637z"></path>
    <path d="M2045.938 395.731c-6.172 32.637-39.097 57.115-80.27 57.115-53.504 0-88.505-36.716-88.505-93.832 0-57.115 32.938-95.874 86.457-95.874 51.442 0 84.381 34.678 84.381 91.793v12.24h-131.726v2.039c0 30.598 20.58 53.036 49.394 53.036 20.58 0 37.049-10.199 43.222-26.517h37.049zM1916.274 340.655h92.615c0-28.558-18.517-46.918-45.27-46.918-26.766 0-45.284 20.399-47.346 46.918z"></path>
    <path d="M629.891 67.316c0-38.757-20.582-61.196-57.63-61.196h-45.28v122.391h45.28c37.048 0 57.63-22.439 57.63-61.196zM570.203 112.192h-22.64v-85.674h22.64c26.756 0 41.163 16.319 41.163 42.837s-16.465 42.837-41.163 42.837z"></path>
    <path d="M652.534 81.592c0-30.597 16.466-46.916 43.223-46.916s43.223 18.358 43.223 46.916c0 30.598-16.466 46.916-43.223 46.916-26.756 2.040-43.223-16.319-43.223-46.916zM720.455 81.592c0-20.398-8.233-30.597-24.698-30.597s-24.698 12.239-24.698 30.597c0 20.398 8.233 32.638 24.698 32.638s24.698-12.239 24.698-32.638z"></path>
    <path d="M837.773 128.51h18.524l28.814-91.793h-18.523l-16.466 69.355h-2.058l-18.524-69.355h-18.523l-18.524 69.355h-2.058l-16.466-69.355h-18.523l24.698 91.793h18.524l18.523-67.315h2.058l18.524 67.315z"></path>
    <path d="M903.635 36.715h18.524v14.279h2.058c4.116-10.2 14.407-16.319 26.756-16.319 20.582 0 32.932 12.239 32.932 34.678v59.156h-18.524v-55.076c0-14.279-6.174-22.439-20.581-22.439-14.409 0-22.64 8.16-22.64 22.439v53.036h-18.524v-89.754z"></path>
    <path d="M1053.883 81.592c0-30.597 16.465-46.916 43.223-46.916 26.756 0 43.223 18.358 43.223 46.916 0 30.598-16.466 46.916-43.223 46.916-26.757 2.040-43.223-16.319-43.223-46.916zM1123.863 81.592c0-20.398-8.233-30.597-24.698-30.597s-24.698 12.239-24.698 30.597c0 20.398 8.233 32.638 24.698 32.638 14.407 0 24.698-12.239 24.698-32.638z"></path>
    <path d="M1195.902 75.472c-22.64 0-34.989 10.2-34.989 26.518s12.349 28.558 28.814 28.558c12.349 0 22.64-4.080 28.815-14.279h2.058v12.239h18.523v-63.236c0-18.359-14.407-30.598-37.047-30.598-20.582 0-34.989 10.2-37.047 26.518h18.524c2.058-6.12 8.232-10.199 18.523-10.199 12.349 0 18.524 4.080 18.524 14.279v8.159l-24.698 2.040zM1220.601 85.672v8.159c0 12.239-10.291 20.398-24.698 18.359-8.233 0-16.466-4.080-16.466-12.239 0-6.12 6.176-12.239 18.524-12.239l22.64-2.040z"></path>
    <path d="M1261.764 81.594c0-28.558 14.409-46.916 39.107-46.916 12.349 0 22.64 6.12 28.814 16.319h2.060v-50.996h18.523v128.511h-18.523v-14.279h-2.060c-6.174 10.2-16.465 16.319-28.814 16.319-22.64 0-39.107-18.359-39.107-48.957zM1282.347 81.594c0 20.398 10.291 30.597 24.698 30.597s24.699-12.239 24.699-30.597-10.291-30.598-24.699-30.598c-16.465 0-24.698 12.239-24.698 30.598z"></path>
    <path d="M1467.577 34.675c-26.752 0-43.222 16.319-43.222 46.916s16.469 48.956 43.222 46.916c26.766 0 43.236-16.319 43.236-46.916 0-28.558-16.469-46.916-43.236-46.916zM1469.639 50.995c16.469 0 24.704 10.199 24.704 30.597s-10.297 32.638-24.704 32.638c-16.469 0-24.69-12.239-24.69-32.638 0-18.358 8.22-30.597 24.69-30.597z"></path>
    <path d="M1537.564 36.715h18.517v14.279h2.062c4.11-10.2 14.407-16.319 26.752-16.319 20.58 0 32.938 12.239 32.938 34.678v59.156h-18.532v-55.076c0-14.279-6.172-22.439-20.58-22.439s-22.642 8.16-22.642 22.439v53.036h-18.517v-89.754z"></path>
    <path d="M1718.685 36.715v-22.439h-20.58v24.478h-14.407v14.279h14.407v50.996c0 18.358 8.235 24.478 28.814 24.478h10.297v-14.279h-6.187c-8.22 0-12.345-4.080-12.345-14.279v-46.916h20.58v-16.319h-20.58z"></path>
    <path d="M1766.030 0h16.455v50.996h2.062c4.11-10.199 14.407-16.319 28.814-16.319 20.58 0 32.938 12.239 32.938 34.678v59.156h-18.532v-55.076c0-14.279-6.172-22.439-20.58-22.439s-22.642 10.2-22.642 22.439v53.036h-18.517v-126.471z"></path>
    <path d="M1910.101 130.548c22.642 0 37.049-10.2 41.159-26.518h-18.517c-4.124 6.12-12.345 10.199-22.642 10.199-14.407 0-24.704-10.199-24.704-26.518h65.863v-6.12c0-28.558-14.407-46.916-41.159-46.916s-43.222 20.398-43.222 48.956c0 28.558 16.469 46.917 43.222 46.917zM1932.743 73.433h-47.346c2.062-14.279 10.297-22.439 24.704-24.478 12.345 0 22.642 10.2 22.642 24.478z"></path>
  </symbol>
  <symbol version="1.1" xmlns="http://www.w3.org/2000/svg" viewBox="0 0 2219 512" id="googleplay">
    <path d="M703.975 92.879c9.211-8.902 13.020-21.365 13.020-35.312l0.317-6.231h-54.62v13.947h41.283c0 8.903-3.81 15.727-9.526 21.069-9.528 8.606-19.053 12.166-32.074 12.166-11.433 0-20.96-5.044-30.169-12.166s-13.019-17.507-13.019-29.971 3.493-22.849 13.019-29.971c7.621-8.605 18.736-12.166 30.169-12.166 13.337 0 22.547 3.264 30.168 12.166l9.528-8.902c-3.812-5.044-9.211-8.605-16.832-12.166s-14.925-5.341-22.547-5.341c-16.831 0-29.851 5.045-41.283 15.727-11.115 10.386-16.832 22.849-16.832 38.576s5.399 27.894 16.832 38.576c11.115 10.386 24.452 15.727 41.283 15.727s29.851-5.044 41.283-15.727z"></path>
    <path d="M752.562 13.65h51.127v-12.166h-65.735v105.342h65.735v-13.947h-50.809v-33.532h46.999v-12.166h-47.317v-33.532z"></path>
    <path d="M865.614 106.826h-14.925v-93.175h-32.074v-12.166h79.072v12.166h-32.074v93.175z"></path>
    <path d="M952.31 1.484v105.342h14.925v-105.342h-14.925z"></path>
    <path d="M1029.16 106.826h-12.702v-93.175h-32.393v-12.166h77.168v12.166h-32.074v93.175z"></path>
    <path d="M1168.571 108.606c16.831 0 29.851-5.044 41.283-15.727s16.832-22.849 16.832-38.576-5.399-27.893-16.832-38.576c-11.114-10.386-24.453-15.727-41.283-15.727s-30.168 5.341-41.283 15.727c-11.114 10.386-16.831 22.849-16.831 38.576s5.398 27.893 16.831 38.576c11.114 10.386 24.453 15.727 41.283 15.727zM1168.571 96.143c-11.432 0-22.546-5.044-30.168-12.166-9.209-6.825-13.021-17.508-13.021-29.971s5.399-22.849 13.021-29.971c7.621-8.605 18.736-12.166 30.168-12.166s22.546 5.044 30.168 12.166c9.21 7.122 13.021 17.508 13.021 29.971s-5.399 22.849-13.021 29.971c-7.621 8.605-18.736 12.166-30.168 12.166z"></path>
    <path d="M1247.645 106.826v-105.342h16.831l54.62 82.79v-82.79h14.926v105.342h-14.926l-58.432-86.054v86.054h-13.019z"></path>
    <path d="M1026.285 359.67c0-48.173 36.733-83.001 82.894-83.001s82.57 32.875 82.894 83.001c0 48.172-36.733 83-82.894 83s-82.894-36.78-82.894-83zM1063.018 357.716c0 28.969 21.13 50.126 46.161 50.126s46.161-21.157 46.161-50.126c0-30.921-21.13-50.125-46.161-50.125s-46.161 21.157-46.161 50.125z"></path>
    <path d="M929.738 276.669c-46.161 0-82.895 34.827-82.895 83.001 0 46.219 36.735 83 82.895 83 46.159 0 82.894-34.827 82.894-83 0-50.126-36.409-83.001-82.894-83.001zM929.738 407.842c-25.031 0-46.161-21.157-46.161-50.126s21.13-50.125 46.161-50.125c25.029 0 46.159 19.204 46.159 50.125 0.326 28.969-21.13 50.126-46.159 50.126z"></path>
    <path d="M716.163 336.559v-34.827h119.628c1.95 5.86 1.95 13.344 1.95 21.157 0 25.064-7.801 57.938-30.882 81.048-23.405 25.063-50.061 36.78-88.745 36.78-69.241 0-129.055-57.937-129.055-127.267 0-69.329 59.814-127.267 129.055-127.267 38.684 0 65.665 15.623 86.795 34.827l-25.031 25.064c-15.603-13.346-36.733-25.064-63.714-25.064-50.388 0-90.697 40.361-90.697 92.44s38.683 92.44 90.697 92.44c32.832 0 52.012-13.344 63.714-25.063 9.428-9.44 17.229-25.064 19.18-44.268h-82.894z"></path>
    <path d="M1590.613 328.748c-7.794-19.204-26.979-52.079-69.234-52.079-42.268 0-77.042 32.875-77.042 83.001 0 46.219 34.774 83 80.938 83 36.736 0 59.819-23.11 67.285-36.78l-26.979-19.204c-9.742 13.344-21.12 23.11-40.306 23.11-19.171 0-30.877-7.811-40.306-25.063l109.867-46.219-4.224-9.765zM1478.798 355.763c0-30.922 25.031-48.172 42.254-48.172 13.326 0 26.979 7.811 30.877 17.25l-73.13 30.922z"></path>
    <path d="M1425.152 434.858h-36.732v-241.19h36.732v241.19z"></path>
    <path d="M1330.557 293.92c-9.752-9.764-25.031-19.203-44.211-19.203-40.309 0-78.993 36.78-78.993 83 0 46.221 36.733 81.048 78.993 81.048 19.18 0 34.784-9.765 42.26-19.204h1.951v11.717c0 30.922-17.229 48.173-44.211 48.173-21.13 0-36.733-15.299-40.309-28.969l-30.882 13.344c9.752 21.157 32.832 48.173 73.142 48.173 42.26 0 77.043-25.063 77.043-84.954v-146.472h-34.784v13.344zM1288.297 407.842c-25.031 0-46.161-21.157-46.161-50.126s21.13-50.125 46.161-50.125 44.21 21.157 44.21 50.125c0 28.969-19.178 50.126-44.21 50.126z"></path>
    <path d="M1671.566 193.668h86.784c40.32 0 79.005 28.969 79.005 75.188s-38.685 75.188-79.005 75.188h-50.048v90.813h-36.736v-241.19zM1708.302 309.544h52.011c25.031 0 40.306-21.483 42.254-42.639 0-17.251-15.274-40.361-42.254-40.361h-52.011v83.001z"></path>
    <path d="M1981.682 274.716c-26.979 0-53.959 11.717-63.716 36.78l32.839 13.344c7.794-13.344 19.171-17.25 32.825-17.25 19.186 0 36.736 11.717 38.685 30.922v1.952c-5.845-3.907-21.12-9.765-36.722-9.765-34.787 0-69.248 19.204-69.248 54.031 0 32.875 28.928 54.031 59.819 54.031 25.031 0 36.722-11.717 46.151-23.11h1.948v19.204h34.788v-92.44c-4.224-42.639-37.063-67.702-77.369-67.702zM1977.785 407.842c-11.705 0-28.928-5.858-28.928-21.157 0-19.204 21.12-25.063 38.685-25.063 13.71 0 21.39 3.144 29.867 6.612 0.982 0.397 1.963 0.798 2.958 1.199-3.897 22.786-23.41 38.409-42.582 38.409z"></path>
    <path d="M2139.677 384.733l40.306-104.158h38.684l-98.176 227.52h-36.736l36.736-81.048-63.715-146.472h38.684l42.269 104.158h1.948z"></path>
    <path d="M1856.526 434.858h36.736v-241.19h-36.736v241.19z"></path>
    <path d="M3.483 458.297c0.772 3.055 1.541 6.097 2.119 9.125l4.641-4.766c71.374-73.269 141.239-144.99 211.386-217.145-30.74-29.183-61.619-58.451-92.589-87.805-40.050-37.961-80.252-76.067-120.501-114.316-6.315 9.517-8.518 19.487-8.518 29.91 0 24.412-0.006 48.824-0.011 73.236-0.024 97.645-0.047 195.292 0.305 292.94 0 6.289 1.589 12.578 3.167 18.822z"></path>
    <path d="M325.459 355.334c-78.129 44.261-156.109 88.522-234.090 132.934-20.266 11.481-40.532 13.143-61.533 1.813l0.035-0.036c71.948-74.008 143.458-147.564 215.845-221.723 10.344 9.812 20.766 19.705 31.28 29.686 18.297 17.37 36.874 35.005 55.807 52.944-1.469 0.832-2.753 1.624-3.947 2.361s-2.296 1.416-3.397 2.021z"></path>
    <path d="M307.688 147.018c2.351 1.359 4.7 2.72 6.316 3.778-11.969 12.236-23.863 24.433-35.833 36.706-11.823 12.125-23.72 24.325-35.834 36.71-54.255-51.598-108.952-103.467-164.157-155.819-16.072-15.24-32.185-30.522-48.345-45.849 18.357-9.819 36.274-11.48 53.75-2.115 23.081 12.276 45.817 25.263 68.605 38.279 6.936 3.962 13.875 7.925 20.832 11.873 33.139 18.715 66.199 37.513 99.297 56.331 11.784 6.7 23.574 13.403 35.37 20.105z"></path>
    <path d="M363.2 333.581c-1.467 0.906-4.846 0.452-6.167-0.755-26.3-24.831-52.599-49.775-78.707-74.537-4.072-3.862-8.138-7.719-12.199-11.569 17.195-17.586 34.193-35.105 51.342-52.779 8.632-8.894 17.3-17.829 26.053-26.832 6.99 4.019 14.083 7.986 21.212 11.974 16.99 9.502 34.196 19.125 50.748 29.871 33.923 22.054 33.776 72.057 0.147 94.414-12.964 8.58-26.533 16.003-40.109 23.431-4.111 2.248-8.224 4.498-12.32 6.781z"></path>
  </symbol>
</svg>