<svg width="24" height="23" viewBox="0 0 24 23" fill="none" xmlns="http://www.w3.org/2000/svg">
<g clip-path="url(#clip0_2923_6280)">
<path d="M1.63003 4.05762H1.62891V6.76798H1.63003H14.5084V4.05762H1.63003Z" fill="white"/>
<path d="M8.05422 16.8136C8.05422 16.6184 8.06204 16.4243 8.07737 16.2314H1.63003H1.62891V18.9418H1.63003H8.37283C8.16151 18.2543 8.05422 17.5417 8.05422 16.8136Z" fill="white"/>
<path d="M3.03516 0V2.71032H15.9135H15.9146V0H3.03516Z" fill="white"/>
<path d="M15.9135 8.11621H3.03516V10.8265H11.1429C11.6679 10.4414 12.2402 10.1219 12.854 9.87311C13.8241 9.47986 14.8537 9.28054 15.9144 9.28054C15.9145 9.28054 15.9146 9.28054 15.9146 9.28054V8.11621H15.9135Z" fill="white"/>
<path d="M3.03516 12.1738V14.8842H8.31385C8.40798 14.5436 8.5269 14.2087 8.67151 13.8811C8.94273 13.2666 9.29406 12.6951 9.72029 12.1738H3.03516Z" fill="white"/>
<path d="M10.3556 22.1414C9.78292 21.5926 9.30817 20.9715 8.93847 20.29H3.03516V23.0004H11.4263C11.0457 22.7464 10.6879 22.4599 10.3556 22.1414Z" fill="white"/>
<path d="M15.916 10.6279C12.351 10.6279 9.46094 13.3975 9.46094 16.814C9.46094 20.2305 12.351 23.0002 15.916 23.0002C19.4811 23.0002 22.3711 20.2305 22.3711 16.814C22.3711 13.3975 19.4811 10.6279 15.916 10.6279ZM15.916 20.9787C13.5197 20.9787 11.5702 19.1105 11.5702 16.814C11.5702 14.5175 13.5197 12.6492 15.916 12.6492C18.3123 12.6492 20.2618 14.5175 20.2618 16.814C20.2618 19.1105 18.3123 20.9787 15.916 20.9787Z" fill="white"/>
<path d="M15.9161 13.9971C14.2953 13.9971 12.9766 15.2609 12.9766 16.8142C12.9765 18.3676 14.2953 19.6313 15.9161 19.6313C17.537 19.6313 18.8557 18.3675 18.8557 16.8142C18.8557 15.2609 17.537 13.9971 15.9161 13.9971Z" fill="white"/>
</g>
<defs>
<clipPath id="clip0_2923_6280">
<rect width="24" height="23" fill="white"/>
</clipPath>
</defs>
</svg>
