<svg width="34" height="32" viewBox="0 0 34 32" fill="none" xmlns="http://www.w3.org/2000/svg">
<path d="M21.1792 10.5124L20.1167 10.8418C19.5899 10.5286 19.0185 10.2975 18.422 10.1565L17.9227 9.18429C17.3098 9.09221 16.6867 9.09221 16.0739 9.18429L15.5745 10.1565C14.9695 10.302 14.3907 10.5404 13.8586 10.863L12.7961 10.5337C12.3039 10.9088 11.8643 11.3483 11.4892 11.8405L11.8186 12.903C11.5147 13.4245 11.2909 13.9886 11.1545 14.5765L10.1823 15.0759C10.0903 15.6887 10.0903 16.3118 10.1823 16.9246L11.1545 17.424C11.3001 18.029 11.5384 18.6078 11.8611 19.1399L11.5317 20.2024C11.9068 20.6946 12.3464 21.1342 12.8386 21.5093L13.9011 21.1799C14.4225 21.4838 14.9866 21.7076 15.5745 21.844L16.0739 22.8162C16.6867 22.9083 17.3098 22.9083 17.9227 22.8162L18.422 21.844C19.027 21.6984 19.6059 21.4601 20.138 21.1374L21.2005 21.4668C21.6927 21.0917 22.1322 20.6521 22.5073 20.1599L22.178 19.0974C22.4818 18.576 22.7057 18.0119 22.842 17.424L23.8142 16.9246C23.9063 16.3118 23.9063 15.6887 23.8142 15.0759L22.842 14.5765C22.6965 13.9715 22.4581 13.3926 22.1355 12.8605L22.4648 11.798C22.0948 11.3147 21.6625 10.8824 21.1792 10.5124ZM16.9983 19.1877C16.3679 19.1877 15.7516 19.0008 15.2274 18.6505C14.7032 18.3003 14.2947 17.8025 14.0534 17.22C13.8122 16.6376 13.749 15.9967 13.872 15.3784C13.995 14.7601 14.2986 14.1921 14.7444 13.7463C15.1902 13.3005 15.7581 12.997 16.3764 12.874C16.9947 12.751 17.6356 12.8141 18.2181 13.0554C18.8005 13.2966 19.2983 13.7052 19.6486 14.2294C19.9988 14.7535 20.1858 15.3698 20.1858 16.0002C20.1858 16.8456 19.85 17.6564 19.2522 18.2541C18.6544 18.8519 17.8437 19.1877 16.9983 19.1877Z" fill="white"/>
<path d="M20.1875 0.349609V3.78148C21.8827 4.24115 23.4635 5.04881 24.8294 6.15303C26.1953 7.25725 27.3162 8.63381 28.1208 10.1951C28.9254 11.7563 29.3961 13.468 29.5028 15.2211C29.6095 16.9743 29.3499 18.7304 28.7406 20.3777L31.9281 22.0299C32.8205 19.8466 33.2172 17.4925 33.0895 15.1373C32.9619 12.7821 32.3131 10.4846 31.1899 8.41056C30.0667 6.33651 28.4972 4.53762 26.5946 3.14364C24.692 1.74967 22.5036 0.795378 20.1875 0.349609Z" fill="white"/>
<path d="M0.96875 14.9375L2.03125 14.0928C2.11834 14.0228 2.22528 13.982 2.33687 13.9763C2.44846 13.9706 2.55902 14.0002 2.65281 14.0609L4.25187 15.0969C4.4803 11.9085 5.90842 8.92506 8.2486 6.74752C10.5888 4.56999 13.6672 3.36011 16.8638 3.36156H17.395V0.0625C17.2091 0.0625 17.0284 0.0625 16.8638 0.0625C12.822 0.0642864 8.9319 1.60161 5.98084 4.3633C3.02977 7.12499 1.2382 10.9047 0.96875 14.9375Z" fill="white"/>
<path d="M17.1686 28.6334H16.8605C13.5726 28.6291 10.416 27.3432 8.06104 25.0487C5.70611 22.7543 4.33846 19.6322 4.24859 16.3456L2.36797 15.1396L0.933594 16.3084C1.01426 20.4798 2.72747 24.4533 5.70534 27.3755C8.68321 30.2978 12.6883 31.9358 16.8605 31.9378H17.0411L16.1539 30.8221C16.0835 30.734 16.043 30.6258 16.0382 30.5131C16.0334 30.4003 16.0646 30.289 16.1273 30.1953L17.1686 28.6334Z" fill="white"/>
<path d="M30.1519 24.7925L27.4956 22.8428C26.5034 24.3886 25.1852 25.6988 23.6335 26.6816C22.0817 27.6644 20.3338 28.2961 18.5122 28.5325L17.2266 30.4609L18.3528 31.8687C20.7232 31.6454 23.0134 30.8939 25.0553 29.6694C27.0971 28.4448 28.8386 26.7784 30.1519 24.7925Z" fill="white"/>
</svg>
