<svg width="18" height="23" viewBox="0 0 18 23" fill="none" xmlns="http://www.w3.org/2000/svg">
<path d="M16.6235 0H0.856048C0.42209 0 0.0703125 0.351821 0.0703125 0.785735V21.7393C0.0703125 22.1732 0.422134 22.525 0.856048 22.525H12.8745C13.083 22.525 13.2828 22.4421 13.4302 22.2948L17.1792 18.5451C17.3265 18.3978 17.4093 18.1979 17.4093 17.9896V0.785735C17.4093 0.351821 17.0575 0 16.6235 0ZM8.79219 3.71926C10.7708 3.71926 12.3805 5.32896 12.3805 7.30755C12.3805 9.28615 10.7708 10.8958 8.79219 10.8958C6.8136 10.8958 5.2039 9.28615 5.2039 7.30755C5.2039 5.32892 6.8136 3.71926 8.79219 3.71926ZM12.0661 16.2913H5.46579C5.03184 16.2913 4.68006 15.9395 4.68006 15.5056C4.68006 15.0716 5.03188 14.7199 5.46579 14.7199H12.0661C12.5001 14.7199 12.8519 15.0717 12.8519 15.5056C12.8519 15.9395 12.5001 16.2913 12.0661 16.2913ZM12.0661 13.7769H5.46579C5.03184 13.7769 4.68006 13.4251 4.68006 12.9912C4.68006 12.5572 5.03188 12.2055 5.46579 12.2055H12.0661C12.5001 12.2055 12.8519 12.5573 12.8519 12.9912C12.8519 13.4251 12.5001 13.7769 12.0661 13.7769Z" fill="white"/>
</svg>
