<svg width="22" height="22" viewBox="0 0 22 22" fill="none" xmlns="http://www.w3.org/2000/svg">
<g clip-path="url(#clip0_2923_6387)">
<path d="M21.357 0H17.2148C16.8588 0 16.5703 0.288578 16.5703 0.644531V4.14214H22.0016V0.644531C22.0016 0.288578 21.7129 0 21.357 0Z" fill="white"/>
<path d="M16.5703 5.43164V19.2849C16.5703 19.4558 16.6382 19.6197 16.7591 19.7406L18.8302 21.8116C18.9561 21.9375 19.121 22.0004 19.286 22.0004C19.4509 22.0004 19.6159 21.9375 19.7417 21.8116L21.8127 19.7406C21.9336 19.6197 22.0016 19.4558 22.0016 19.2849V5.43164H16.5703Z" fill="white"/>
<path d="M14.6351 0H0.644531C0.288535 0 0 0.288578 0 0.644531V21.3555C0 21.7114 0.288535 22 0.644531 22H14.6351C14.991 22 15.2796 21.7114 15.2796 21.3555V0.644531C15.2796 0.288578 14.9911 0 14.6351 0ZM5.5229 4.14214H9.75674C10.1127 4.14214 10.4013 4.43072 10.4013 4.78668C10.4013 5.14263 10.1127 5.43121 9.75674 5.43121H5.5229C5.16691 5.43121 4.87837 5.14263 4.87837 4.78668C4.87837 4.43072 5.16691 4.14214 5.5229 4.14214ZM11.1375 17.8578H4.14223C3.78623 17.8578 3.4977 17.5692 3.4977 17.2133C3.4977 16.8573 3.78623 16.5688 4.14223 16.5688H11.1375C11.4934 16.5688 11.782 16.8573 11.782 17.2133C11.782 17.5692 11.4934 17.8578 11.1375 17.8578ZM11.1375 13.7156H4.14223C3.78623 13.7156 3.4977 13.427 3.4977 13.0711C3.4977 12.7151 3.78623 12.4266 4.14223 12.4266H11.1375C11.4934 12.4266 11.782 12.7151 11.782 13.0711C11.782 13.427 11.4934 13.7156 11.1375 13.7156ZM11.1375 9.57344H4.14223C3.78623 9.57344 3.4977 9.28486 3.4977 8.92891C3.4977 8.57295 3.78623 8.28438 4.14223 8.28438H11.1375C11.4934 8.28438 11.782 8.57295 11.782 8.92891C11.782 9.28486 11.4934 9.57344 11.1375 9.57344Z" fill="white"/>
</g>
<defs>
<clipPath id="clip0_2923_6387">
<rect width="22" height="22" fill="white"/>
</clipPath>
</defs>
</svg>
