<svg width="28" height="28" viewBox="0 0 28 28" fill="none" xmlns="http://www.w3.org/2000/svg">
<path d="M20.5625 23.6249C22.9198 23.6249 24.9183 22.9607 26.25 21.8652V22.7499C26.25 24.7449 23.8053 26.2499 20.5625 26.2499C17.3197 26.2499 14.875 24.7449 14.875 22.7499C14.875 22.4585 14.875 22.1601 14.875 21.8652C16.2067 22.9607 18.2053 23.6249 20.5625 23.6249Z" fill="white"/>
<path d="M20.5625 19.2499C22.9198 19.2499 24.9183 18.5857 26.25 17.4902V18.3749C26.25 20.3699 23.8053 21.8749 20.5625 21.8749C17.3197 21.8749 14.875 20.3699 14.875 18.3749C14.875 18.0835 14.875 17.7851 14.875 17.4902C16.2067 18.5857 18.2053 19.2499 20.5625 19.2499Z" fill="white"/>
<path d="M20.5625 14.8749C22.9198 14.8749 24.9183 14.2107 26.25 13.1152V13.9999C26.25 15.9949 23.8053 17.4999 20.5625 17.4999C17.3197 17.4999 14.875 15.9949 14.875 13.9999C14.875 13.7085 14.875 13.4101 14.875 13.1152C16.2067 14.2107 18.2053 14.8749 20.5625 14.8749Z" fill="white"/>
<path d="M14.875 5.25C14.875 3.255 17.3197 1.75 20.5625 1.75C23.8053 1.75 26.25 3.255 26.25 5.25C26.25 7.245 23.8053 8.75 20.5625 8.75C17.3197 8.75 14.875 7.245 14.875 5.25Z" fill="white"/>
<path d="M20.5625 10.4999C22.9198 10.4999 24.9183 9.83573 26.25 8.74023V9.62486C26.25 11.6199 23.8053 13.1249 20.5625 13.1249C17.3197 13.1249 14.875 11.6199 14.875 9.62486C14.875 9.33348 14.875 9.03511 14.875 8.74023C16.2067 9.83573 18.2053 10.4999 20.5625 10.4999Z" fill="white"/>
<path d="M7.4375 23.6249C9.79475 23.6249 11.7933 22.9607 13.125 21.8652V22.7499C13.125 24.7449 10.6803 26.2499 7.4375 26.2499C4.19475 26.2499 1.75 24.7449 1.75 22.7499C1.75 22.4585 1.75 22.1601 1.75 21.8652C3.08175 22.9607 5.08025 23.6249 7.4375 23.6249Z" fill="white"/>
<path d="M13.125 14C13.125 15.995 10.6803 17.5 7.4375 17.5C4.19475 17.5 1.75 15.995 1.75 14C1.75 12.005 4.19475 10.5 7.4375 10.5C10.6803 10.5 13.125 12.005 13.125 14Z" fill="white"/>
<path d="M7.4375 19.2499C9.79475 19.2499 11.7933 18.5857 13.125 17.4902V18.3749C13.125 20.3699 10.6803 21.8749 7.4375 21.8749C4.19475 21.8749 1.75 20.3699 1.75 18.3749C1.75 18.0835 1.75 17.7851 1.75 17.4902C3.08175 18.5857 5.08025 19.2499 7.4375 19.2499Z" fill="white"/>
</svg>
