<svg width="538" height="300" viewBox="0 0 538 300" fill="none" xmlns="http://www.w3.org/2000/svg">
<path d="M1.4095 275.873V274.102L7.8495 268.513C8.50884 267.961 9.01484 267.478 9.3675 267.064C9.72017 266.635 9.95784 266.228 10.0805 265.845C10.2185 265.462 10.2875 265.048 10.2875 264.603C10.2875 263.698 10.0192 262.955 9.4825 262.372C8.94584 261.774 8.20984 261.475 7.2745 261.475C6.15517 261.475 5.2965 261.782 4.6985 262.395C4.1005 262.993 3.8015 263.844 3.8015 264.948H1.6395C1.6395 263.89 1.8695 262.955 2.3295 262.142C2.80484 261.329 3.46417 260.693 4.3075 260.233C5.16617 259.773 6.15517 259.543 7.2745 259.543C8.36317 259.543 9.29084 259.765 10.0575 260.21C10.8395 260.639 11.4298 261.237 11.8285 262.004C12.2425 262.755 12.4495 263.622 12.4495 264.603C12.4495 265.339 12.3038 266.014 12.0125 266.627C11.7212 267.225 11.3148 267.792 10.7935 268.329C10.2875 268.866 9.69717 269.425 9.0225 270.008L4.2155 273.987H12.6795V275.873H1.4095ZM20.9613 276.103C20.1793 276.103 19.4433 275.973 18.7533 275.712C18.0633 275.436 17.45 274.984 16.9133 274.355C16.3766 273.726 15.955 272.883 15.6483 271.825C15.357 270.752 15.2113 269.418 15.2113 267.823V267.363C15.2113 265.876 15.357 264.634 15.6483 263.637C15.955 262.625 16.3766 261.82 16.9133 261.222C17.45 260.624 18.0633 260.195 18.7533 259.934C19.4433 259.673 20.1793 259.543 20.9613 259.543C21.7433 259.543 22.4793 259.673 23.1693 259.934C23.8593 260.195 24.4726 260.624 25.0093 261.222C25.546 261.82 25.96 262.625 26.2513 263.637C26.558 264.634 26.7113 265.876 26.7113 267.363V267.823C26.7113 269.418 26.558 270.752 26.2513 271.825C25.96 272.883 25.546 273.726 25.0093 274.355C24.4726 274.984 23.8593 275.436 23.1693 275.712C22.4793 275.973 21.7433 276.103 20.9613 276.103ZM20.9613 274.217C21.452 274.217 21.912 274.133 22.3413 273.964C22.7706 273.78 23.1463 273.458 23.4683 272.998C23.8056 272.523 24.0663 271.871 24.2503 271.043C24.4496 270.2 24.5493 269.126 24.5493 267.823V267.363C24.5493 265.768 24.3806 264.542 24.0433 263.683C23.7213 262.824 23.2843 262.234 22.7323 261.912C22.1956 261.59 21.6053 261.429 20.9613 261.429C20.3173 261.429 19.7193 261.59 19.1673 261.912C18.6306 262.234 18.1936 262.824 17.8563 263.683C17.5343 264.542 17.3733 265.768 17.3733 267.363V267.823C17.3733 269.126 17.4653 270.2 17.6493 271.043C17.8486 271.871 18.1093 272.523 18.4313 272.998C18.7686 273.458 19.152 273.78 19.5813 273.964C20.026 274.133 20.486 274.217 20.9613 274.217ZM29.359 275.873V273.987H33.2V262.142L29.359 264.879V262.533L33.246 259.773H35.408V273.987H38.559V275.873H29.359ZM46.2721 276.103C44.9994 276.103 43.9337 275.911 43.0751 275.528C42.2317 275.129 41.5954 274.593 41.1661 273.918C40.7367 273.228 40.5221 272.461 40.5221 271.618C40.5221 270.698 40.8134 269.878 41.3961 269.157C41.9787 268.421 42.8374 267.9 43.9721 267.593C43.1441 267.317 42.4387 266.849 41.8561 266.19C41.2734 265.531 40.9821 264.733 40.9821 263.798C40.9821 263.001 41.1814 262.28 41.5801 261.636C41.9941 260.992 42.5921 260.486 43.3741 260.118C44.1714 259.735 45.1374 259.543 46.2721 259.543C47.4221 259.543 48.3881 259.735 49.1701 260.118C49.9521 260.486 50.5424 260.992 50.9411 261.636C51.3551 262.28 51.5621 263.001 51.5621 263.798C51.5621 264.718 51.2707 265.5 50.6881 266.144C50.1207 266.788 49.4154 267.271 48.5721 267.593C49.7221 267.976 50.5807 268.482 51.1481 269.111C51.7307 269.74 52.0221 270.575 52.0221 271.618C52.0221 272.461 51.8074 273.228 51.3781 273.918C50.9487 274.593 50.3047 275.129 49.4461 275.528C48.6027 275.911 47.5447 276.103 46.2721 276.103ZM46.2721 274.171C47.1614 274.171 47.8667 274.048 48.3881 273.803C48.9094 273.558 49.2851 273.236 49.5151 272.837C49.7451 272.423 49.8601 271.971 49.8601 271.48C49.8601 270.621 49.5227 269.924 48.8481 269.387C48.1734 268.85 47.3147 268.521 46.2721 268.398C45.2294 268.521 44.3707 268.843 43.6961 269.364C43.0214 269.885 42.6841 270.591 42.6841 271.48C42.6841 271.971 42.7991 272.423 43.0291 272.837C43.2591 273.236 43.6347 273.558 44.1561 273.803C44.6774 274.048 45.3827 274.171 46.2721 274.171ZM46.2721 266.788C47.1921 266.665 47.9434 266.374 48.5261 265.914C49.1087 265.439 49.4001 264.772 49.4001 263.913C49.4001 263.131 49.1394 262.533 48.6181 262.119C48.1121 261.69 47.3301 261.475 46.2721 261.475C45.1987 261.475 44.4091 261.69 43.9031 262.119C43.3971 262.533 43.1441 263.131 43.1441 263.913C43.1441 264.772 43.4354 265.439 44.0181 265.914C44.6007 266.374 45.3521 266.665 46.2721 266.788Z" fill="#868686"/>
<path d="M80.3311 275.873V274.102L86.7711 268.513C87.4305 267.961 87.9365 267.478 88.2891 267.064C88.6418 266.635 88.8795 266.228 89.0021 265.845C89.1401 265.462 89.2091 265.048 89.2091 264.603C89.2091 263.698 88.9408 262.955 88.4041 262.372C87.8675 261.774 87.1315 261.475 86.1961 261.475C85.0768 261.475 84.2181 261.782 83.6201 262.395C83.0221 262.993 82.7231 263.844 82.7231 264.948H80.5611C80.5611 263.89 80.7911 262.955 81.2511 262.142C81.7265 261.329 82.3858 260.693 83.2291 260.233C84.0878 259.773 85.0768 259.543 86.1961 259.543C87.2848 259.543 88.2125 259.765 88.9791 260.21C89.7611 260.639 90.3515 261.237 90.7501 262.004C91.1641 262.755 91.3711 263.622 91.3711 264.603C91.3711 265.339 91.2255 266.014 90.9341 266.627C90.6428 267.225 90.2365 267.792 89.7151 268.329C89.2091 268.866 88.6188 269.425 87.9441 270.008L83.1371 273.987H91.6011V275.873H80.3311ZM99.8829 276.103C99.1009 276.103 98.3649 275.973 97.6749 275.712C96.9849 275.436 96.3716 274.984 95.8349 274.355C95.2983 273.726 94.8766 272.883 94.5699 271.825C94.2786 270.752 94.1329 269.418 94.1329 267.823V267.363C94.1329 265.876 94.2786 264.634 94.5699 263.637C94.8766 262.625 95.2983 261.82 95.8349 261.222C96.3716 260.624 96.9849 260.195 97.6749 259.934C98.3649 259.673 99.1009 259.543 99.8829 259.543C100.665 259.543 101.401 259.673 102.091 259.934C102.781 260.195 103.394 260.624 103.931 261.222C104.468 261.82 104.882 262.625 105.173 263.637C105.48 264.634 105.633 265.876 105.633 267.363V267.823C105.633 269.418 105.48 270.752 105.173 271.825C104.882 272.883 104.468 273.726 103.931 274.355C103.394 274.984 102.781 275.436 102.091 275.712C101.401 275.973 100.665 276.103 99.8829 276.103ZM99.8829 274.217C100.374 274.217 100.834 274.133 101.263 273.964C101.692 273.78 102.068 273.458 102.39 272.998C102.727 272.523 102.988 271.871 103.172 271.043C103.371 270.2 103.471 269.126 103.471 267.823V267.363C103.471 265.768 103.302 264.542 102.965 263.683C102.643 262.824 102.206 262.234 101.654 261.912C101.117 261.59 100.527 261.429 99.8829 261.429C99.2389 261.429 98.6409 261.59 98.0889 261.912C97.5523 262.234 97.1153 262.824 96.7779 263.683C96.4559 264.542 96.2949 265.768 96.2949 267.363V267.823C96.2949 269.126 96.3869 270.2 96.5709 271.043C96.7703 271.871 97.0309 272.523 97.3529 272.998C97.6903 273.458 98.0736 273.78 98.5029 273.964C98.9476 274.133 99.4076 274.217 99.8829 274.217ZM108.281 275.873V273.987H112.122V262.142L108.281 264.879V262.533L112.168 259.773H114.33V273.987H117.481V275.873H108.281ZM124.734 276.103C123.875 276.103 123.101 275.973 122.411 275.712C121.736 275.451 121.176 275.06 120.732 274.539C120.287 274.002 119.973 273.335 119.789 272.538H121.951C122.165 273.075 122.503 273.481 122.963 273.757C123.438 274.033 124.028 274.171 124.734 274.171C125.47 274.171 126.129 273.987 126.712 273.619C127.31 273.251 127.785 272.63 128.138 271.756C128.506 270.882 128.705 269.686 128.736 268.168C128.306 268.919 127.708 269.456 126.942 269.778C126.19 270.085 125.454 270.238 124.734 270.238C123.66 270.238 122.725 270.039 121.928 269.64C121.146 269.226 120.532 268.636 120.088 267.869C119.658 267.087 119.444 266.144 119.444 265.04V264.81C119.444 263.783 119.689 262.878 120.18 262.096C120.67 261.299 121.322 260.678 122.135 260.233C122.963 259.773 123.867 259.543 124.849 259.543C126.06 259.543 127.103 259.804 127.977 260.325C128.851 260.846 129.525 261.651 130.001 262.74C130.476 263.813 130.714 265.201 130.714 266.903V267.363C130.714 269.479 130.438 271.181 129.886 272.469C129.334 273.742 128.605 274.669 127.701 275.252C126.796 275.819 125.807 276.103 124.734 276.103ZM125.033 268.306C126.152 268.306 127.003 268.022 127.586 267.455C128.168 266.888 128.46 266.075 128.46 265.017V264.787C128.46 263.744 128.161 262.932 127.563 262.349C126.98 261.766 126.137 261.475 125.033 261.475C123.913 261.475 123.062 261.759 122.48 262.326C121.897 262.878 121.606 263.698 121.606 264.787V265.017C121.606 266.075 121.897 266.888 122.48 267.455C123.062 268.022 123.913 268.306 125.033 268.306Z" fill="#868686"/>
<path d="M159.253 275.873V274.102L165.693 268.513C166.352 267.961 166.858 267.478 167.211 267.064C167.563 266.635 167.801 266.228 167.924 265.845C168.062 265.462 168.131 265.048 168.131 264.603C168.131 263.698 167.862 262.955 167.326 262.372C166.789 261.774 166.053 261.475 165.118 261.475C163.998 261.475 163.14 261.782 162.542 262.395C161.944 262.993 161.645 263.844 161.645 264.948H159.483C159.483 263.89 159.713 262.955 160.173 262.142C160.648 261.329 161.307 260.693 162.151 260.233C163.009 259.773 163.998 259.543 165.118 259.543C166.206 259.543 167.134 259.765 167.901 260.21C168.683 260.639 169.273 261.237 169.672 262.004C170.086 262.755 170.293 263.622 170.293 264.603C170.293 265.339 170.147 266.014 169.856 266.627C169.564 267.225 169.158 267.792 168.637 268.329C168.131 268.866 167.54 269.425 166.866 270.008L162.059 273.987H170.523V275.873H159.253ZM178.805 276.103C178.023 276.103 177.287 275.973 176.597 275.712C175.907 275.436 175.293 274.984 174.757 274.355C174.22 273.726 173.798 272.883 173.492 271.825C173.2 270.752 173.055 269.418 173.055 267.823V267.363C173.055 265.876 173.2 264.634 173.492 263.637C173.798 262.625 174.22 261.82 174.757 261.222C175.293 260.624 175.907 260.195 176.597 259.934C177.287 259.673 178.023 259.543 178.805 259.543C179.587 259.543 180.323 259.673 181.013 259.934C181.703 260.195 182.316 260.624 182.853 261.222C183.389 261.82 183.803 262.625 184.095 263.637C184.401 264.634 184.555 265.876 184.555 267.363V267.823C184.555 269.418 184.401 270.752 184.095 271.825C183.803 272.883 183.389 273.726 182.853 274.355C182.316 274.984 181.703 275.436 181.013 275.712C180.323 275.973 179.587 276.103 178.805 276.103ZM178.805 274.217C179.295 274.217 179.755 274.133 180.185 273.964C180.614 273.78 180.99 273.458 181.312 272.998C181.649 272.523 181.91 271.871 182.094 271.043C182.293 270.2 182.393 269.126 182.393 267.823V267.363C182.393 265.768 182.224 264.542 181.887 263.683C181.565 262.824 181.128 262.234 180.576 261.912C180.039 261.59 179.449 261.429 178.805 261.429C178.161 261.429 177.563 261.59 177.011 261.912C176.474 262.234 176.037 262.824 175.7 263.683C175.378 264.542 175.217 265.768 175.217 267.363V267.823C175.217 269.126 175.309 270.2 175.493 271.043C175.692 271.871 175.953 272.523 176.275 272.998C176.612 273.458 176.995 273.78 177.425 273.964C177.869 274.133 178.329 274.217 178.805 274.217ZM186.857 275.873V274.102L193.297 268.513C193.957 267.961 194.463 267.478 194.815 267.064C195.168 266.635 195.406 266.228 195.528 265.845C195.666 265.462 195.735 265.048 195.735 264.603C195.735 263.698 195.467 262.955 194.93 262.372C194.394 261.774 193.658 261.475 192.722 261.475C191.603 261.475 190.744 261.782 190.146 262.395C189.548 262.993 189.249 263.844 189.249 264.948H187.087C187.087 263.89 187.317 262.955 187.777 262.142C188.253 261.329 188.912 260.693 189.755 260.233C190.614 259.773 191.603 259.543 192.722 259.543C193.811 259.543 194.739 259.765 195.505 260.21C196.287 260.639 196.878 261.237 197.276 262.004C197.69 262.755 197.897 263.622 197.897 264.603C197.897 265.339 197.752 266.014 197.46 266.627C197.169 267.225 196.763 267.792 196.241 268.329C195.735 268.866 195.145 269.425 194.47 270.008L189.663 273.987H198.127V275.873H186.857ZM206.409 276.103C205.627 276.103 204.891 275.973 204.201 275.712C203.511 275.436 202.898 274.984 202.361 274.355C201.824 273.726 201.403 272.883 201.096 271.825C200.805 270.752 200.659 269.418 200.659 267.823V267.363C200.659 265.876 200.805 264.634 201.096 263.637C201.403 262.625 201.824 261.82 202.361 261.222C202.898 260.624 203.511 260.195 204.201 259.934C204.891 259.673 205.627 259.543 206.409 259.543C207.191 259.543 207.927 259.673 208.617 259.934C209.307 260.195 209.92 260.624 210.457 261.222C210.994 261.82 211.408 262.625 211.699 263.637C212.006 264.634 212.159 265.876 212.159 267.363V267.823C212.159 269.418 212.006 270.752 211.699 271.825C211.408 272.883 210.994 273.726 210.457 274.355C209.92 274.984 209.307 275.436 208.617 275.712C207.927 275.973 207.191 276.103 206.409 276.103ZM206.409 274.217C206.9 274.217 207.36 274.133 207.789 273.964C208.218 273.78 208.594 273.458 208.916 272.998C209.253 272.523 209.514 271.871 209.698 271.043C209.897 270.2 209.997 269.126 209.997 267.823V267.363C209.997 265.768 209.828 264.542 209.491 263.683C209.169 262.824 208.732 262.234 208.18 261.912C207.643 261.59 207.053 261.429 206.409 261.429C205.765 261.429 205.167 261.59 204.615 261.912C204.078 262.234 203.641 262.824 203.304 263.683C202.982 264.542 202.821 265.768 202.821 267.363V267.823C202.821 269.126 202.913 270.2 203.097 271.043C203.296 271.871 203.557 272.523 203.879 272.998C204.216 273.458 204.6 273.78 205.029 273.964C205.474 274.133 205.934 274.217 206.409 274.217Z" fill="#868686"/>
<path d="M241.174 275.873V274.102L247.614 268.513C248.274 267.961 248.78 267.478 249.132 267.064C249.485 266.635 249.723 266.228 249.845 265.845C249.983 265.462 250.052 265.048 250.052 264.603C250.052 263.698 249.784 262.955 249.247 262.372C248.711 261.774 247.975 261.475 247.039 261.475C245.92 261.475 245.061 261.782 244.463 262.395C243.865 262.993 243.566 263.844 243.566 264.948H241.404C241.404 263.89 241.634 262.955 242.094 262.142C242.57 261.329 243.229 260.693 244.072 260.233C244.931 259.773 245.92 259.543 247.039 259.543C248.128 259.543 249.056 259.765 249.822 260.21C250.604 260.639 251.195 261.237 251.593 262.004C252.007 262.755 252.214 263.622 252.214 264.603C252.214 265.339 252.069 266.014 251.777 266.627C251.486 267.225 251.08 267.792 250.558 268.329C250.052 268.866 249.462 269.425 248.787 270.008L243.98 273.987H252.444V275.873H241.174ZM260.726 276.103C259.944 276.103 259.208 275.973 258.518 275.712C257.828 275.436 257.215 274.984 256.678 274.355C256.142 273.726 255.72 272.883 255.413 271.825C255.122 270.752 254.976 269.418 254.976 267.823V267.363C254.976 265.876 255.122 264.634 255.413 263.637C255.72 262.625 256.142 261.82 256.678 261.222C257.215 260.624 257.828 260.195 258.518 259.934C259.208 259.673 259.944 259.543 260.726 259.543C261.508 259.543 262.244 259.673 262.934 259.934C263.624 260.195 264.238 260.624 264.774 261.222C265.311 261.82 265.725 262.625 266.016 263.637C266.323 264.634 266.476 265.876 266.476 267.363V267.823C266.476 269.418 266.323 270.752 266.016 271.825C265.725 272.883 265.311 273.726 264.774 274.355C264.238 274.984 263.624 275.436 262.934 275.712C262.244 275.973 261.508 276.103 260.726 276.103ZM260.726 274.217C261.217 274.217 261.677 274.133 262.106 273.964C262.536 273.78 262.911 273.458 263.233 272.998C263.571 272.523 263.831 271.871 264.015 271.043C264.215 270.2 264.314 269.126 264.314 267.823V267.363C264.314 265.768 264.146 264.542 263.808 263.683C263.486 262.824 263.049 262.234 262.497 261.912C261.961 261.59 261.37 261.429 260.726 261.429C260.082 261.429 259.484 261.59 258.932 261.912C258.396 262.234 257.959 262.824 257.621 263.683C257.299 264.542 257.138 265.768 257.138 267.363V267.823C257.138 269.126 257.23 270.2 257.414 271.043C257.614 271.871 257.874 272.523 258.196 272.998C258.534 273.458 258.917 273.78 259.346 273.964C259.791 274.133 260.251 274.217 260.726 274.217ZM268.779 275.873V274.102L275.219 268.513C275.878 267.961 276.384 267.478 276.737 267.064C277.09 266.635 277.327 266.228 277.45 265.845C277.588 265.462 277.657 265.048 277.657 264.603C277.657 263.698 277.389 262.955 276.852 262.372C276.315 261.774 275.579 261.475 274.644 261.475C273.525 261.475 272.666 261.782 272.068 262.395C271.47 262.993 271.171 263.844 271.171 264.948H269.009C269.009 263.89 269.239 262.955 269.699 262.142C270.174 261.329 270.834 260.693 271.677 260.233C272.536 259.773 273.525 259.543 274.644 259.543C275.733 259.543 276.66 259.765 277.427 260.21C278.209 260.639 278.799 261.237 279.198 262.004C279.612 262.755 279.819 263.622 279.819 264.603C279.819 265.339 279.673 266.014 279.382 266.627C279.091 267.225 278.684 267.792 278.163 268.329C277.657 268.866 277.067 269.425 276.392 270.008L271.585 273.987H280.049V275.873H268.779ZM282.466 275.873V273.987H286.307V262.142L282.466 264.879V262.533L286.353 259.773H288.515V273.987H291.666V275.873H282.466Z" fill="#868686"/>
<path d="M320.096 275.873V274.102L326.536 268.513C327.195 267.961 327.701 267.478 328.054 267.064C328.407 266.635 328.644 266.228 328.767 265.845C328.905 265.462 328.974 265.048 328.974 264.603C328.974 263.698 328.706 262.955 328.169 262.372C327.632 261.774 326.896 261.475 325.961 261.475C324.842 261.475 323.983 261.782 323.385 262.395C322.787 262.993 322.488 263.844 322.488 264.948H320.326C320.326 263.89 320.556 262.955 321.016 262.142C321.491 261.329 322.151 260.693 322.994 260.233C323.853 259.773 324.842 259.543 325.961 259.543C327.05 259.543 327.977 259.765 328.744 260.21C329.526 260.639 330.116 261.237 330.515 262.004C330.929 262.755 331.136 263.622 331.136 264.603C331.136 265.339 330.99 266.014 330.699 266.627C330.408 267.225 330.001 267.792 329.48 268.329C328.974 268.866 328.384 269.425 327.709 270.008L322.902 273.987H331.366V275.873H320.096ZM339.648 276.103C338.866 276.103 338.13 275.973 337.44 275.712C336.75 275.436 336.136 274.984 335.6 274.355C335.063 273.726 334.641 272.883 334.335 271.825C334.043 270.752 333.898 269.418 333.898 267.823V267.363C333.898 265.876 334.043 264.634 334.335 263.637C334.641 262.625 335.063 261.82 335.6 261.222C336.136 260.624 336.75 260.195 337.44 259.934C338.13 259.673 338.866 259.543 339.648 259.543C340.43 259.543 341.166 259.673 341.856 259.934C342.546 260.195 343.159 260.624 343.696 261.222C344.232 261.82 344.646 262.625 344.938 263.637C345.244 264.634 345.398 265.876 345.398 267.363V267.823C345.398 269.418 345.244 270.752 344.938 271.825C344.646 272.883 344.232 273.726 343.696 274.355C343.159 274.984 342.546 275.436 341.856 275.712C341.166 275.973 340.43 276.103 339.648 276.103ZM339.648 274.217C340.138 274.217 340.598 274.133 341.028 273.964C341.457 273.78 341.833 273.458 342.155 272.998C342.492 272.523 342.753 271.871 342.937 271.043C343.136 270.2 343.236 269.126 343.236 267.823V267.363C343.236 265.768 343.067 264.542 342.73 263.683C342.408 262.824 341.971 262.234 341.419 261.912C340.882 261.59 340.292 261.429 339.648 261.429C339.004 261.429 338.406 261.59 337.854 261.912C337.317 262.234 336.88 262.824 336.543 263.683C336.221 264.542 336.06 265.768 336.06 267.363V267.823C336.06 269.126 336.152 270.2 336.336 271.043C336.535 271.871 336.796 272.523 337.118 272.998C337.455 273.458 337.838 273.78 338.268 273.964C338.712 274.133 339.172 274.217 339.648 274.217ZM347.701 275.873V274.102L354.141 268.513C354.8 267.961 355.306 267.478 355.659 267.064C356.011 266.635 356.249 266.228 356.372 265.845C356.51 265.462 356.579 265.048 356.579 264.603C356.579 263.698 356.31 262.955 355.774 262.372C355.237 261.774 354.501 261.475 353.566 261.475C352.446 261.475 351.588 261.782 350.99 262.395C350.392 262.993 350.093 263.844 350.093 264.948H347.931C347.931 263.89 348.161 262.955 348.621 262.142C349.096 261.329 349.755 260.693 350.599 260.233C351.457 259.773 352.446 259.543 353.566 259.543C354.654 259.543 355.582 259.765 356.349 260.21C357.131 260.639 357.721 261.237 358.12 262.004C358.534 262.755 358.741 263.622 358.741 264.603C358.741 265.339 358.595 266.014 358.304 266.627C358.012 267.225 357.606 267.792 357.085 268.329C356.579 268.866 355.988 269.425 355.314 270.008L350.507 273.987H358.971V275.873H347.701ZM361.042 275.873V274.102L367.482 268.513C368.142 267.961 368.648 267.478 369 267.064C369.353 266.635 369.591 266.228 369.713 265.845C369.851 265.462 369.92 265.048 369.92 264.603C369.92 263.698 369.652 262.955 369.115 262.372C368.579 261.774 367.843 261.475 366.907 261.475C365.788 261.475 364.929 261.782 364.331 262.395C363.733 262.993 363.434 263.844 363.434 264.948H361.272C361.272 263.89 361.502 262.955 361.962 262.142C362.438 261.329 363.097 260.693 363.94 260.233C364.799 259.773 365.788 259.543 366.907 259.543C367.996 259.543 368.924 259.765 369.69 260.21C370.472 260.639 371.063 261.237 371.461 262.004C371.875 262.755 372.082 263.622 372.082 264.603C372.082 265.339 371.937 266.014 371.645 266.627C371.354 267.225 370.948 267.792 370.426 268.329C369.92 268.866 369.33 269.425 368.655 270.008L363.848 273.987H372.312V275.873H361.042Z" fill="#868686"/>
<path d="M401.018 275.873V274.102L407.458 268.513C408.117 267.961 408.623 267.478 408.976 267.064C409.328 266.635 409.566 266.228 409.689 265.845C409.827 265.462 409.896 265.048 409.896 264.603C409.896 263.698 409.627 262.955 409.091 262.372C408.554 261.774 407.818 261.475 406.883 261.475C405.763 261.475 404.905 261.782 404.307 262.395C403.709 262.993 403.41 263.844 403.41 264.948H401.248C401.248 263.89 401.478 262.955 401.938 262.142C402.413 261.329 403.072 260.693 403.916 260.233C404.774 259.773 405.763 259.543 406.883 259.543C407.971 259.543 408.899 259.765 409.666 260.21C410.448 260.639 411.038 261.237 411.437 262.004C411.851 262.755 412.058 263.622 412.058 264.603C412.058 265.339 411.912 266.014 411.621 266.627C411.329 267.225 410.923 267.792 410.402 268.329C409.896 268.866 409.305 269.425 408.631 270.008L403.824 273.987H412.288V275.873H401.018ZM420.569 276.103C419.787 276.103 419.051 275.973 418.361 275.712C417.671 275.436 417.058 274.984 416.521 274.355C415.985 273.726 415.563 272.883 415.256 271.825C414.965 270.752 414.819 269.418 414.819 267.823V267.363C414.819 265.876 414.965 264.634 415.256 263.637C415.563 262.625 415.985 261.82 416.521 261.222C417.058 260.624 417.671 260.195 418.361 259.934C419.051 259.673 419.787 259.543 420.569 259.543C421.351 259.543 422.087 259.673 422.777 259.934C423.467 260.195 424.081 260.624 424.617 261.222C425.154 261.82 425.568 262.625 425.859 263.637C426.166 264.634 426.319 265.876 426.319 267.363V267.823C426.319 269.418 426.166 270.752 425.859 271.825C425.568 272.883 425.154 273.726 424.617 274.355C424.081 274.984 423.467 275.436 422.777 275.712C422.087 275.973 421.351 276.103 420.569 276.103ZM420.569 274.217C421.06 274.217 421.52 274.133 421.949 273.964C422.379 273.78 422.754 273.458 423.076 272.998C423.414 272.523 423.674 271.871 423.858 271.043C424.058 270.2 424.157 269.126 424.157 267.823V267.363C424.157 265.768 423.989 264.542 423.651 263.683C423.329 262.824 422.892 262.234 422.34 261.912C421.804 261.59 421.213 261.429 420.569 261.429C419.925 261.429 419.327 261.59 418.775 261.912C418.239 262.234 417.802 262.824 417.464 263.683C417.142 264.542 416.981 265.768 416.981 267.363V267.823C416.981 269.126 417.073 270.2 417.257 271.043C417.457 271.871 417.717 272.523 418.039 272.998C418.377 273.458 418.76 273.78 419.189 273.964C419.634 274.133 420.094 274.217 420.569 274.217ZM428.622 275.873V274.102L435.062 268.513C435.721 267.961 436.227 267.478 436.58 267.064C436.933 266.635 437.17 266.228 437.293 265.845C437.431 265.462 437.5 265.048 437.5 264.603C437.5 263.698 437.232 262.955 436.695 262.372C436.158 261.774 435.422 261.475 434.487 261.475C433.368 261.475 432.509 261.782 431.911 262.395C431.313 262.993 431.014 263.844 431.014 264.948H428.852C428.852 263.89 429.082 262.955 429.542 262.142C430.017 261.329 430.677 260.693 431.52 260.233C432.379 259.773 433.368 259.543 434.487 259.543C435.576 259.543 436.503 259.765 437.27 260.21C438.052 260.639 438.642 261.237 439.041 262.004C439.455 262.755 439.662 263.622 439.662 264.603C439.662 265.339 439.516 266.014 439.225 266.627C438.934 267.225 438.527 267.792 438.006 268.329C437.5 268.866 436.91 269.425 436.235 270.008L431.428 273.987H439.892V275.873H428.622ZM447.599 276.103C446.434 276.103 445.437 275.904 444.609 275.505C443.796 275.091 443.168 274.539 442.723 273.849C442.294 273.144 442.079 272.362 442.079 271.503H444.241C444.241 272.285 444.509 272.929 445.046 273.435C445.583 273.926 446.434 274.171 447.599 274.171C448.764 274.171 449.615 273.918 450.152 273.412C450.689 272.891 450.957 272.216 450.957 271.388C450.957 270.529 450.681 269.839 450.129 269.318C449.592 268.781 448.749 268.513 447.599 268.513H445.874V266.673H447.599C448.703 266.673 449.5 266.443 449.991 265.983C450.482 265.508 450.727 264.856 450.727 264.028C450.727 263.231 450.489 262.61 450.014 262.165C449.539 261.705 448.734 261.475 447.599 261.475C446.51 261.475 445.713 261.713 445.207 262.188C444.716 262.648 444.471 263.223 444.471 263.913H442.309C442.309 263.1 442.516 262.364 442.93 261.705C443.344 261.046 443.942 260.524 444.724 260.141C445.521 259.742 446.48 259.543 447.599 259.543C448.734 259.543 449.692 259.742 450.474 260.141C451.271 260.524 451.869 261.038 452.268 261.682C452.682 262.326 452.889 263.031 452.889 263.798C452.889 264.718 452.644 265.5 452.153 266.144C451.678 266.773 451.003 267.217 450.129 267.478C451.049 267.769 451.777 268.245 452.314 268.904C452.851 269.563 453.119 270.468 453.119 271.618C453.119 272.431 452.904 273.182 452.475 273.872C452.046 274.547 451.417 275.091 450.589 275.505C449.776 275.904 448.78 276.103 447.599 276.103Z" fill="#868686"/>
<path d="M481.94 275.873V274.102L488.38 268.513C489.039 267.961 489.545 267.478 489.898 267.064C490.25 266.635 490.488 266.228 490.611 265.845C490.749 265.462 490.818 265.048 490.818 264.603C490.818 263.698 490.549 262.955 490.013 262.372C489.476 261.774 488.74 261.475 487.805 261.475C486.685 261.475 485.827 261.782 485.229 262.395C484.631 262.993 484.332 263.844 484.332 264.948H482.17C482.17 263.89 482.4 262.955 482.86 262.142C483.335 261.329 483.994 260.693 484.838 260.233C485.696 259.773 486.685 259.543 487.805 259.543C488.893 259.543 489.821 259.765 490.588 260.21C491.37 260.639 491.96 261.237 492.359 262.004C492.773 262.755 492.98 263.622 492.98 264.603C492.98 265.339 492.834 266.014 492.543 266.627C492.251 267.225 491.845 267.792 491.324 268.329C490.818 268.866 490.227 269.425 489.553 270.008L484.746 273.987H493.21V275.873H481.94ZM501.491 276.103C500.709 276.103 499.973 275.973 499.283 275.712C498.593 275.436 497.98 274.984 497.443 274.355C496.907 273.726 496.485 272.883 496.178 271.825C495.887 270.752 495.741 269.418 495.741 267.823V267.363C495.741 265.876 495.887 264.634 496.178 263.637C496.485 262.625 496.907 261.82 497.443 261.222C497.98 260.624 498.593 260.195 499.283 259.934C499.973 259.673 500.709 259.543 501.491 259.543C502.273 259.543 503.009 259.673 503.699 259.934C504.389 260.195 505.003 260.624 505.539 261.222C506.076 261.82 506.49 262.625 506.781 263.637C507.088 264.634 507.241 265.876 507.241 267.363V267.823C507.241 269.418 507.088 270.752 506.781 271.825C506.49 272.883 506.076 273.726 505.539 274.355C505.003 274.984 504.389 275.436 503.699 275.712C503.009 275.973 502.273 276.103 501.491 276.103ZM501.491 274.217C501.982 274.217 502.442 274.133 502.871 273.964C503.301 273.78 503.676 273.458 503.998 272.998C504.336 272.523 504.596 271.871 504.78 271.043C504.98 270.2 505.079 269.126 505.079 267.823V267.363C505.079 265.768 504.911 264.542 504.573 263.683C504.251 262.824 503.814 262.234 503.262 261.912C502.726 261.59 502.135 261.429 501.491 261.429C500.847 261.429 500.249 261.59 499.697 261.912C499.161 262.234 498.724 262.824 498.386 263.683C498.064 264.542 497.903 265.768 497.903 267.363V267.823C497.903 269.126 497.995 270.2 498.179 271.043C498.379 271.871 498.639 272.523 498.961 272.998C499.299 273.458 499.682 273.78 500.111 273.964C500.556 274.133 501.016 274.217 501.491 274.217ZM509.544 275.873V274.102L515.984 268.513C516.643 267.961 517.149 267.478 517.502 267.064C517.855 266.635 518.092 266.228 518.215 265.845C518.353 265.462 518.422 265.048 518.422 264.603C518.422 263.698 518.154 262.955 517.617 262.372C517.08 261.774 516.344 261.475 515.409 261.475C514.29 261.475 513.431 261.782 512.833 262.395C512.235 262.993 511.936 263.844 511.936 264.948H509.774C509.774 263.89 510.004 262.955 510.464 262.142C510.939 261.329 511.599 260.693 512.442 260.233C513.301 259.773 514.29 259.543 515.409 259.543C516.498 259.543 517.425 259.765 518.192 260.21C518.974 260.639 519.564 261.237 519.963 262.004C520.377 262.755 520.584 263.622 520.584 264.603C520.584 265.339 520.438 266.014 520.147 266.627C519.856 267.225 519.449 267.792 518.928 268.329C518.422 268.866 517.832 269.425 517.157 270.008L512.35 273.987H520.814V275.873H509.544ZM530.614 275.873V271.986H522.426V270.33L530.384 259.773H532.776V270.1H534.846V271.986H532.776V275.873H530.614ZM524.726 270.1H530.614V262.303L524.726 270.1Z" fill="#868686"/>
<path d="M5.16919 217.951H530.083" stroke="#C8C8C8" stroke-width="0.720046"/>
<path d="M5.16919 252.873H530.083" stroke="#C8C8C8" stroke-width="0.720046"/>
<path d="M5.16919 182.309H530.083" stroke="#C8C8C8" stroke-width="0.720046"/>
<path d="M5.16919 146.667H530.083" stroke="#C8C8C8" stroke-width="0.720046"/>
<path d="M5.16919 111.024H530.083" stroke="#C8C8C8" stroke-width="0.720046"/>
<path d="M5.16919 75.3818H530.083" stroke="#C8C8C8" stroke-width="0.720046"/>
<path d="M5.16919 39.7402H530.083" stroke="#C8C8C8" stroke-width="0.720046"/>
<path d="M5.16919 5.89746H530.083" stroke="#C8C8C8" stroke-width="0.720046"/>
<path d="M3.80923 197.269L8.68923 185.349H1.60923V183.269H11.2092V185.149L6.40923 197.269H3.80923ZM18.1124 197.489C16.9924 197.489 16.0457 197.322 15.2724 196.989C14.499 196.642 13.9124 196.169 13.5124 195.569C13.1124 194.969 12.9124 194.282 12.9124 193.509C12.9124 192.709 13.159 192.002 13.6524 191.389C14.159 190.762 14.8924 190.315 15.8524 190.049C15.1457 189.809 14.5457 189.409 14.0524 188.849C13.559 188.289 13.3124 187.609 13.3124 186.809C13.3124 186.089 13.499 185.449 13.8724 184.889C14.2457 184.315 14.7857 183.869 15.4924 183.549C16.2124 183.215 17.0857 183.049 18.1124 183.049C19.1524 183.049 20.0257 183.215 20.7324 183.549C21.4524 183.869 21.9924 184.315 22.3524 184.889C22.7257 185.449 22.9124 186.089 22.9124 186.809C22.9124 187.609 22.6724 188.282 22.1924 188.829C21.7124 189.375 21.1124 189.782 20.3924 190.049C21.3657 190.355 22.0924 190.789 22.5724 191.349C23.0657 191.909 23.3124 192.629 23.3124 193.509C23.3124 194.282 23.1124 194.969 22.7124 195.569C22.3124 196.169 21.7257 196.642 20.9524 196.989C20.179 197.322 19.2324 197.489 18.1124 197.489ZM18.1124 195.369C18.7524 195.369 19.279 195.282 19.6924 195.109C20.1057 194.935 20.4124 194.695 20.6124 194.389C20.8124 194.082 20.9124 193.729 20.9124 193.329C20.9124 192.649 20.6457 192.109 20.1124 191.709C19.579 191.295 18.9124 191.035 18.1124 190.929C17.3124 191.035 16.6457 191.295 16.1124 191.709C15.579 192.109 15.3124 192.649 15.3124 193.329C15.3124 193.729 15.419 194.082 15.6324 194.389C15.8457 194.695 16.159 194.935 16.5724 195.109C16.9857 195.282 17.499 195.369 18.1124 195.369ZM18.1124 189.209C18.819 189.102 19.3924 188.875 19.8324 188.529C20.2857 188.182 20.5124 187.669 20.5124 186.989C20.5124 186.389 20.2924 185.935 19.8524 185.629C19.4257 185.322 18.8457 185.169 18.1124 185.169C17.379 185.169 16.7924 185.322 16.3524 185.629C15.9257 185.922 15.7124 186.375 15.7124 186.989C15.7124 187.669 15.939 188.182 16.3924 188.529C16.8457 188.875 17.419 189.102 18.1124 189.209ZM31.6147 197.269V194.109H24.7147V192.329L31.5147 183.269H34.0147V192.029H35.7147V194.109H34.0147V197.269H31.6147ZM27.1147 192.029H31.6147V186.029L27.1147 192.029ZM37.6194 200.369L38.4194 197.269V194.749H41.0194V197.269L38.8194 200.369H37.6194ZM49.1108 197.489C48.3775 197.489 47.6908 197.375 47.0508 197.149C46.4241 196.909 45.8708 196.522 45.3908 195.989C44.9241 195.442 44.5575 194.702 44.2908 193.769C44.0375 192.835 43.9108 191.669 43.9108 190.269V189.869C43.9108 188.575 44.0375 187.495 44.2908 186.629C44.5575 185.749 44.9241 185.049 45.3908 184.529C45.8708 183.995 46.4241 183.615 47.0508 183.389C47.6908 183.162 48.3775 183.049 49.1108 183.049C49.8441 183.049 50.5241 183.162 51.1508 183.389C51.7908 183.615 52.3441 183.995 52.8108 184.529C53.2908 185.049 53.6575 185.749 53.9108 186.629C54.1775 187.495 54.3108 188.575 54.3108 189.869V190.269C54.3108 191.669 54.1775 192.835 53.9108 193.769C53.6575 194.702 53.2908 195.442 52.8108 195.989C52.3441 196.522 51.7908 196.909 51.1508 197.149C50.5241 197.375 49.8441 197.489 49.1108 197.489ZM49.1108 195.409C49.4841 195.409 49.8375 195.335 50.1708 195.189C50.5041 195.042 50.7975 194.782 51.0508 194.409C51.3175 194.022 51.5241 193.495 51.6708 192.829C51.8308 192.162 51.9108 191.309 51.9108 190.269V189.869C51.9108 188.615 51.7775 187.649 51.5108 186.969C51.2575 186.275 50.9175 185.795 50.4908 185.529C50.0641 185.262 49.6041 185.129 49.1108 185.129C48.6175 185.129 48.1575 185.262 47.7308 185.529C47.3041 185.795 46.9575 186.275 46.6908 186.969C46.4375 187.649 46.3108 188.615 46.3108 189.869V190.269C46.3108 191.309 46.3841 192.162 46.5308 192.829C46.6908 193.495 46.8975 194.022 47.1508 194.409C47.4175 194.782 47.7175 195.042 48.0508 195.189C48.3841 195.335 48.7375 195.409 49.1108 195.409Z" fill="black"/>
<path d="M83.7344 178.047C82.6144 178.047 81.6678 177.88 80.8944 177.547C80.1211 177.2 79.5344 176.727 79.1344 176.127C78.7344 175.527 78.5344 174.84 78.5344 174.067C78.5344 173.267 78.7811 172.56 79.2744 171.947C79.7811 171.32 80.5144 170.874 81.4744 170.607C80.7678 170.367 80.1678 169.967 79.6744 169.407C79.1811 168.847 78.9344 168.167 78.9344 167.367C78.9344 166.647 79.1211 166.007 79.4944 165.447C79.8678 164.874 80.4078 164.427 81.1144 164.107C81.8344 163.774 82.7078 163.607 83.7344 163.607C84.7744 163.607 85.6478 163.774 86.3544 164.107C87.0744 164.427 87.6144 164.874 87.9744 165.447C88.3478 166.007 88.5344 166.647 88.5344 167.367C88.5344 168.167 88.2944 168.84 87.8144 169.387C87.3344 169.934 86.7344 170.34 86.0144 170.607C86.9878 170.914 87.7144 171.347 88.1944 171.907C88.6878 172.467 88.9344 173.187 88.9344 174.067C88.9344 174.84 88.7344 175.527 88.3344 176.127C87.9344 176.727 87.3478 177.2 86.5744 177.547C85.8011 177.88 84.8544 178.047 83.7344 178.047ZM83.7344 175.927C84.3744 175.927 84.9011 175.84 85.3144 175.667C85.7278 175.494 86.0344 175.254 86.2344 174.947C86.4344 174.64 86.5344 174.287 86.5344 173.887C86.5344 173.207 86.2678 172.667 85.7344 172.267C85.2011 171.854 84.5344 171.594 83.7344 171.487C82.9344 171.594 82.2678 171.854 81.7344 172.267C81.2011 172.667 80.9344 173.207 80.9344 173.887C80.9344 174.287 81.0411 174.64 81.2544 174.947C81.4678 175.254 81.7811 175.494 82.1944 175.667C82.6078 175.84 83.1211 175.927 83.7344 175.927ZM83.7344 169.767C84.4411 169.66 85.0144 169.434 85.4544 169.087C85.9078 168.74 86.1344 168.227 86.1344 167.547C86.1344 166.947 85.9144 166.494 85.4744 166.187C85.0478 165.88 84.4678 165.727 83.7344 165.727C83.0011 165.727 82.4144 165.88 81.9744 166.187C81.5478 166.48 81.3344 166.934 81.3344 167.547C81.3344 168.227 81.5611 168.74 82.0144 169.087C82.4678 169.434 83.0411 169.66 83.7344 169.767ZM90.6368 177.827V175.947L95.8568 171.427C96.4301 170.92 96.8901 170.487 97.2368 170.127C97.5834 169.754 97.8368 169.407 97.9968 169.087C98.1568 168.754 98.2368 168.4 98.2368 168.027C98.2368 167.347 98.0301 166.794 97.6168 166.367C97.2168 165.94 96.6568 165.727 95.9368 165.727C95.0834 165.727 94.4168 165.96 93.9368 166.427C93.4701 166.88 93.2368 167.58 93.2368 168.527H90.8368C90.8368 167.54 91.0434 166.68 91.4568 165.947C91.8834 165.2 92.4768 164.627 93.2368 164.227C93.9968 163.814 94.8968 163.607 95.9368 163.607C96.9501 163.607 97.8034 163.8 98.4968 164.187C99.2034 164.56 99.7368 165.08 100.097 165.747C100.457 166.414 100.637 167.174 100.637 168.027C100.637 168.654 100.503 169.247 100.237 169.807C99.9701 170.354 99.6034 170.88 99.1368 171.387C98.6834 171.88 98.1501 172.367 97.5368 172.847L93.9768 175.747H100.837V177.827H90.6368ZM107.534 178.047C106.72 178.047 106 177.934 105.374 177.707C104.747 177.467 104.234 177.107 103.834 176.627C103.434 176.134 103.167 175.5 103.034 174.727H105.434C105.58 175.154 105.827 175.46 106.174 175.647C106.52 175.834 106.974 175.927 107.534 175.927C108.094 175.927 108.607 175.794 109.074 175.527C109.554 175.26 109.94 174.794 110.234 174.127C110.527 173.46 110.68 172.527 110.694 171.327C110.347 171.914 109.84 172.334 109.174 172.587C108.52 172.827 107.874 172.947 107.234 172.947C106.3 172.947 105.494 172.774 104.814 172.427C104.147 172.067 103.634 171.554 103.274 170.887C102.914 170.22 102.734 169.42 102.734 168.487V168.287C102.734 167.354 102.947 166.54 103.374 165.847C103.8 165.14 104.38 164.594 105.114 164.207C105.86 163.807 106.7 163.607 107.634 163.607C108.754 163.607 109.707 163.834 110.494 164.287C111.28 164.74 111.88 165.447 112.294 166.407C112.72 167.367 112.934 168.607 112.934 170.127V170.527C112.934 172.34 112.694 173.8 112.214 174.907C111.734 176 111.087 176.8 110.274 177.307C109.46 177.8 108.547 178.047 107.534 178.047ZM107.794 171.027C108.594 171.027 109.234 170.794 109.714 170.327C110.207 169.847 110.454 169.234 110.454 168.487V168.287C110.454 167.554 110.2 166.947 109.694 166.467C109.2 165.974 108.567 165.727 107.794 165.727C106.994 165.727 106.347 165.967 105.854 166.447C105.374 166.914 105.134 167.527 105.134 168.287V168.487C105.134 169.234 105.374 169.847 105.854 170.327C106.347 170.794 106.994 171.027 107.794 171.027ZM115.038 180.927L115.838 177.827V175.307H118.438V177.827L116.238 180.927H115.038ZM120.93 177.827V175.947L126.15 171.427C126.723 170.92 127.183 170.487 127.53 170.127C127.876 169.754 128.13 169.407 128.29 169.087C128.45 168.754 128.53 168.4 128.53 168.027C128.53 167.347 128.323 166.794 127.91 166.367C127.51 165.94 126.95 165.727 126.23 165.727C125.376 165.727 124.71 165.96 124.23 166.427C123.763 166.88 123.53 167.58 123.53 168.527H121.13C121.13 167.54 121.336 166.68 121.75 165.947C122.176 165.2 122.77 164.627 123.53 164.227C124.29 163.814 125.19 163.607 126.23 163.607C127.243 163.607 128.096 163.8 128.79 164.187C129.496 164.56 130.03 165.08 130.39 165.747C130.75 166.414 130.93 167.174 130.93 168.027C130.93 168.654 130.796 169.247 130.53 169.807C130.263 170.354 129.896 170.88 129.43 171.387C128.976 171.88 128.443 172.367 127.83 172.847L124.27 175.747H131.13V177.827H120.93Z" fill="black"/>
<path d="M153.579 153.565C152.459 153.565 151.512 153.398 150.739 153.065C149.966 152.718 149.379 152.245 148.979 151.645C148.579 151.045 148.379 150.358 148.379 149.585C148.379 148.785 148.626 148.078 149.119 147.465C149.626 146.838 150.359 146.391 151.319 146.125C150.612 145.885 150.012 145.485 149.519 144.925C149.026 144.365 148.779 143.685 148.779 142.885C148.779 142.165 148.966 141.525 149.339 140.965C149.712 140.391 150.252 139.945 150.959 139.625C151.679 139.291 152.552 139.125 153.579 139.125C154.619 139.125 155.492 139.291 156.199 139.625C156.919 139.945 157.459 140.391 157.819 140.965C158.192 141.525 158.379 142.165 158.379 142.885C158.379 143.685 158.139 144.358 157.659 144.905C157.179 145.451 156.579 145.858 155.859 146.125C156.832 146.431 157.559 146.865 158.039 147.425C158.532 147.985 158.779 148.705 158.779 149.585C158.779 150.358 158.579 151.045 158.179 151.645C157.779 152.245 157.192 152.718 156.419 153.065C155.646 153.398 154.699 153.565 153.579 153.565ZM153.579 151.445C154.219 151.445 154.746 151.358 155.159 151.185C155.572 151.011 155.879 150.771 156.079 150.465C156.279 150.158 156.379 149.805 156.379 149.405C156.379 148.725 156.112 148.185 155.579 147.785C155.046 147.371 154.379 147.111 153.579 147.005C152.779 147.111 152.112 147.371 151.579 147.785C151.046 148.185 150.779 148.725 150.779 149.405C150.779 149.805 150.886 150.158 151.099 150.465C151.312 150.771 151.626 151.011 152.039 151.185C152.452 151.358 152.966 151.445 153.579 151.445ZM153.579 145.285C154.286 145.178 154.859 144.951 155.299 144.605C155.752 144.258 155.979 143.745 155.979 143.065C155.979 142.465 155.759 142.011 155.319 141.705C154.892 141.398 154.312 141.245 153.579 141.245C152.846 141.245 152.259 141.398 151.819 141.705C151.392 141.998 151.179 142.451 151.179 143.065C151.179 143.745 151.406 144.258 151.859 144.605C152.312 144.951 152.886 145.178 153.579 145.285ZM167.081 153.345V150.185H160.181V148.405L166.981 139.345H169.481V148.105H171.181V150.185H169.481V153.345H167.081ZM162.581 148.105H167.081V142.105L162.581 148.105ZM178.486 153.565C176.833 153.565 175.533 153.045 174.586 152.005C173.653 150.965 173.186 149.311 173.186 147.045V146.645C173.186 144.831 173.426 143.378 173.906 142.285C174.386 141.178 175.04 140.378 175.866 139.885C176.706 139.378 177.646 139.125 178.686 139.125C179.486 139.125 180.186 139.245 180.786 139.485C181.4 139.711 181.9 140.071 182.286 140.565C182.686 141.045 182.953 141.671 183.086 142.445H180.686C180.54 142.018 180.3 141.711 179.966 141.525C179.633 141.338 179.206 141.245 178.686 141.245C178.086 141.245 177.54 141.378 177.046 141.645C176.566 141.911 176.18 142.378 175.886 143.045C175.606 143.698 175.453 144.631 175.426 145.845C175.773 145.258 176.273 144.845 176.926 144.605C177.593 144.351 178.246 144.225 178.886 144.225C179.833 144.225 180.64 144.398 181.306 144.745C181.973 145.091 182.486 145.598 182.846 146.265C183.206 146.918 183.386 147.725 183.386 148.685V148.885C183.386 149.805 183.173 150.618 182.746 151.325C182.32 152.031 181.733 152.585 180.986 152.985C180.253 153.371 179.42 153.565 178.486 153.565ZM178.326 151.445C179.126 151.445 179.766 151.211 180.246 150.745C180.74 150.265 180.986 149.645 180.986 148.885V148.685C180.986 147.938 180.74 147.331 180.246 146.865C179.766 146.385 179.126 146.145 178.326 146.145C177.526 146.145 176.88 146.385 176.386 146.865C175.906 147.331 175.666 147.938 175.666 148.685V148.885C175.666 149.645 175.906 150.265 176.386 150.745C176.88 151.211 177.526 151.445 178.326 151.445ZM185.391 156.445L186.191 153.345V150.825H188.791V153.345L186.591 156.445H185.391ZM196.382 153.565C195.569 153.565 194.849 153.451 194.222 153.225C193.596 152.985 193.082 152.625 192.682 152.145C192.282 151.651 192.016 151.018 191.882 150.245H194.282C194.429 150.671 194.676 150.978 195.022 151.165C195.369 151.351 195.822 151.445 196.382 151.445C196.942 151.445 197.456 151.311 197.922 151.045C198.402 150.778 198.789 150.311 199.082 149.645C199.376 148.978 199.529 148.045 199.542 146.845C199.196 147.431 198.689 147.851 198.022 148.105C197.369 148.345 196.722 148.465 196.082 148.465C195.149 148.465 194.342 148.291 193.662 147.945C192.996 147.585 192.482 147.071 192.122 146.405C191.762 145.738 191.582 144.938 191.582 144.005V143.805C191.582 142.871 191.796 142.058 192.222 141.365C192.649 140.658 193.229 140.111 193.962 139.725C194.709 139.325 195.549 139.125 196.482 139.125C197.602 139.125 198.556 139.351 199.342 139.805C200.129 140.258 200.729 140.965 201.142 141.925C201.569 142.885 201.782 144.125 201.782 145.645V146.045C201.782 147.858 201.542 149.318 201.062 150.425C200.582 151.518 199.936 152.318 199.122 152.825C198.309 153.318 197.396 153.565 196.382 153.565ZM196.642 146.545C197.442 146.545 198.082 146.311 198.562 145.845C199.056 145.365 199.302 144.751 199.302 144.005V143.805C199.302 143.071 199.049 142.465 198.542 141.985C198.049 141.491 197.416 141.245 196.642 141.245C195.842 141.245 195.196 141.485 194.702 141.965C194.222 142.431 193.982 143.045 193.982 143.805V144.005C193.982 144.751 194.222 145.365 194.702 145.845C195.196 146.311 195.842 146.545 196.642 146.545Z" fill="black"/>
<path d="M200.942 119.503V117.423H204.242V108.043L200.942 110.383V107.903L204.322 105.503H206.642V117.423H209.342V119.503H200.942ZM221.144 119.723C220.411 119.723 219.724 119.61 219.084 119.383C218.457 119.143 217.904 118.756 217.424 118.223C216.957 117.676 216.591 116.936 216.324 116.003C216.071 115.07 215.944 113.903 215.944 112.503V112.103C215.944 110.81 216.071 109.73 216.324 108.863C216.591 107.983 216.957 107.283 217.424 106.763C217.904 106.23 218.457 105.85 219.084 105.623C219.724 105.396 220.411 105.283 221.144 105.283C221.877 105.283 222.557 105.396 223.184 105.623C223.824 105.85 224.377 106.23 224.844 106.763C225.324 107.283 225.691 107.983 225.944 108.863C226.211 109.73 226.344 110.81 226.344 112.103V112.503C226.344 113.903 226.211 115.07 225.944 116.003C225.691 116.936 225.324 117.676 224.844 118.223C224.377 118.756 223.824 119.143 223.184 119.383C222.557 119.61 221.877 119.723 221.144 119.723ZM221.144 117.643C221.517 117.643 221.871 117.57 222.204 117.423C222.537 117.276 222.831 117.016 223.084 116.643C223.351 116.256 223.557 115.73 223.704 115.063C223.864 114.396 223.944 113.543 223.944 112.503V112.103C223.944 110.85 223.811 109.883 223.544 109.203C223.291 108.51 222.951 108.03 222.524 107.763C222.097 107.496 221.637 107.363 221.144 107.363C220.651 107.363 220.191 107.496 219.764 107.763C219.337 108.03 218.991 108.51 218.724 109.203C218.471 109.883 218.344 110.85 218.344 112.103V112.503C218.344 113.543 218.417 114.396 218.564 115.063C218.724 115.73 218.931 116.256 219.184 116.643C219.451 117.016 219.751 117.276 220.084 117.423C220.417 117.57 220.771 117.643 221.144 117.643ZM233.242 119.723C232.162 119.723 231.248 119.543 230.502 119.183C229.768 118.823 229.208 118.33 228.822 117.703C228.435 117.063 228.242 116.33 228.242 115.503H230.642C230.642 116.17 230.848 116.69 231.262 117.063C231.688 117.423 232.348 117.603 233.242 117.603C234.108 117.603 234.755 117.423 235.182 117.063C235.622 116.69 235.842 116.17 235.842 115.503C235.842 114.823 235.642 114.29 235.242 113.903C234.842 113.503 234.175 113.303 233.242 113.303H231.842V111.303H233.242C234.042 111.303 234.642 111.136 235.042 110.803C235.442 110.456 235.642 109.963 235.642 109.323C235.642 108.683 235.448 108.203 235.062 107.883C234.688 107.563 234.082 107.403 233.242 107.403C232.415 107.403 231.802 107.57 231.402 107.903C231.015 108.236 230.822 108.703 230.822 109.303H228.422C228.422 108.49 228.602 107.783 228.962 107.183C229.335 106.583 229.882 106.116 230.602 105.783C231.322 105.45 232.202 105.283 233.242 105.283C234.295 105.283 235.175 105.456 235.882 105.803C236.588 106.136 237.122 106.59 237.482 107.163C237.855 107.723 238.042 108.35 238.042 109.043C238.042 109.843 237.828 110.516 237.402 111.063C236.975 111.596 236.388 111.976 235.642 112.203C236.455 112.443 237.088 112.85 237.542 113.423C238.008 113.983 238.242 114.743 238.242 115.703C238.242 116.45 238.048 117.13 237.662 117.743C237.288 118.356 236.728 118.843 235.982 119.203C235.248 119.55 234.335 119.723 233.242 119.723ZM241.936 119.503L246.816 107.583H239.736V105.503H249.336V107.383L244.536 119.503H241.936ZM251.039 122.603L251.839 119.503V116.983H254.439V119.503L252.239 122.603H251.039ZM262.031 119.723C261.217 119.723 260.497 119.61 259.871 119.383C259.244 119.143 258.731 118.783 258.331 118.303C257.931 117.81 257.664 117.176 257.531 116.403H259.931C260.077 116.83 260.324 117.136 260.671 117.323C261.017 117.51 261.471 117.603 262.031 117.603C262.591 117.603 263.104 117.47 263.571 117.203C264.051 116.936 264.437 116.47 264.731 115.803C265.024 115.136 265.177 114.203 265.191 113.003C264.844 113.59 264.337 114.01 263.671 114.263C263.017 114.503 262.371 114.623 261.731 114.623C260.797 114.623 259.991 114.45 259.311 114.103C258.644 113.743 258.131 113.23 257.771 112.563C257.411 111.896 257.231 111.096 257.231 110.163V109.963C257.231 109.03 257.444 108.216 257.871 107.523C258.297 106.816 258.877 106.27 259.611 105.883C260.357 105.483 261.197 105.283 262.131 105.283C263.251 105.283 264.204 105.51 264.991 105.963C265.777 106.416 266.377 107.123 266.791 108.083C267.217 109.043 267.431 110.283 267.431 111.803V112.203C267.431 114.016 267.191 115.476 266.711 116.583C266.231 117.676 265.584 118.476 264.771 118.983C263.957 119.476 263.044 119.723 262.031 119.723ZM262.291 112.703C263.091 112.703 263.731 112.47 264.211 112.003C264.704 111.523 264.951 110.91 264.951 110.163V109.963C264.951 109.23 264.697 108.623 264.191 108.143C263.697 107.65 263.064 107.403 262.291 107.403C261.491 107.403 260.844 107.643 260.351 108.123C259.871 108.59 259.631 109.203 259.631 109.963V110.163C259.631 110.91 259.871 111.523 260.351 112.003C260.844 112.47 261.491 112.703 262.291 112.703Z" fill="black"/>
<path d="M275.826 86.3809V84.3009H279.126V74.9209L275.826 77.2609V74.7809L279.206 72.3809H281.526V84.3009H284.226V86.3809H275.826ZM290.429 86.3809V84.5009L295.649 79.9809C296.222 79.4742 296.682 79.0409 297.029 78.6809C297.375 78.3075 297.629 77.9609 297.789 77.6409C297.949 77.3075 298.029 76.9542 298.029 76.5809C298.029 75.9009 297.822 75.3475 297.409 74.9209C297.009 74.4942 296.449 74.2809 295.729 74.2809C294.875 74.2809 294.209 74.5142 293.729 74.9809C293.262 75.4342 293.029 76.1342 293.029 77.0809H290.629C290.629 76.0942 290.835 75.2342 291.249 74.5009C291.675 73.7542 292.269 73.1809 293.029 72.7809C293.789 72.3675 294.689 72.1609 295.729 72.1609C296.742 72.1609 297.595 72.3542 298.289 72.7409C298.995 73.1142 299.529 73.6342 299.889 74.3009C300.249 74.9675 300.429 75.7275 300.429 76.5809C300.429 77.2075 300.295 77.8009 300.029 78.3609C299.762 78.9075 299.395 79.4342 298.929 79.9409C298.475 80.4342 297.942 80.9209 297.329 81.4009L293.769 84.3009H300.629V86.3809H290.429ZM307.826 86.6009C307.092 86.6009 306.406 86.4875 305.766 86.2609C305.139 86.0209 304.586 85.6342 304.106 85.1009C303.639 84.5542 303.272 83.8142 303.006 82.8809C302.752 81.9475 302.626 80.7809 302.626 79.3809V78.9809C302.626 77.6875 302.752 76.6075 303.006 75.7409C303.272 74.8609 303.639 74.1609 304.106 73.6409C304.586 73.1075 305.139 72.7275 305.766 72.5009C306.406 72.2742 307.092 72.1609 307.826 72.1609C308.559 72.1609 309.239 72.2742 309.866 72.5009C310.506 72.7275 311.059 73.1075 311.526 73.6409C312.006 74.1609 312.372 74.8609 312.626 75.7409C312.892 76.6075 313.026 77.6875 313.026 78.9809V79.3809C313.026 80.7809 312.892 81.9475 312.626 82.8809C312.372 83.8142 312.006 84.5542 311.526 85.1009C311.059 85.6342 310.506 86.0209 309.866 86.2609C309.239 86.4875 308.559 86.6009 307.826 86.6009ZM307.826 84.5209C308.199 84.5209 308.552 84.4475 308.886 84.3009C309.219 84.1542 309.512 83.8942 309.766 83.5209C310.032 83.1342 310.239 82.6075 310.386 81.9409C310.546 81.2742 310.626 80.4209 310.626 79.3809V78.9809C310.626 77.7275 310.492 76.7609 310.226 76.0809C309.972 75.3875 309.632 74.9075 309.206 74.6409C308.779 74.3742 308.319 74.2409 307.826 74.2409C307.332 74.2409 306.872 74.3742 306.446 74.6409C306.019 74.9075 305.672 75.3875 305.406 76.0809C305.152 76.7609 305.026 77.7275 305.026 78.9809V79.3809C305.026 80.4209 305.099 81.2742 305.246 81.9409C305.406 82.6075 305.612 83.1342 305.866 83.5209C306.132 83.8942 306.432 84.1542 306.766 84.3009C307.099 84.4475 307.452 84.5209 307.826 84.5209ZM320.423 86.6009C319.69 86.6009 319.003 86.4875 318.363 86.2609C317.737 86.0209 317.183 85.6342 316.703 85.1009C316.237 84.5542 315.87 83.8142 315.603 82.8809C315.35 81.9475 315.223 80.7809 315.223 79.3809V78.9809C315.223 77.6875 315.35 76.6075 315.603 75.7409C315.87 74.8609 316.237 74.1609 316.703 73.6409C317.183 73.1075 317.737 72.7275 318.363 72.5009C319.003 72.2742 319.69 72.1609 320.423 72.1609C321.157 72.1609 321.837 72.2742 322.463 72.5009C323.103 72.7275 323.657 73.1075 324.123 73.6409C324.603 74.1609 324.97 74.8609 325.223 75.7409C325.49 76.6075 325.623 77.6875 325.623 78.9809V79.3809C325.623 80.7809 325.49 81.9475 325.223 82.8809C324.97 83.8142 324.603 84.5542 324.123 85.1009C323.657 85.6342 323.103 86.0209 322.463 86.2609C321.837 86.4875 321.157 86.6009 320.423 86.6009ZM320.423 84.5209C320.797 84.5209 321.15 84.4475 321.483 84.3009C321.817 84.1542 322.11 83.8942 322.363 83.5209C322.63 83.1342 322.837 82.6075 322.983 81.9409C323.143 81.2742 323.223 80.4209 323.223 79.3809V78.9809C323.223 77.7275 323.09 76.7609 322.823 76.0809C322.57 75.3875 322.23 74.9075 321.803 74.6409C321.377 74.3742 320.917 74.2409 320.423 74.2409C319.93 74.2409 319.47 74.3742 319.043 74.6409C318.617 74.9075 318.27 75.3875 318.003 76.0809C317.75 76.7609 317.623 77.7275 317.623 78.9809V79.3809C317.623 80.4209 317.697 81.2742 317.843 81.9409C318.003 82.6075 318.21 83.1342 318.463 83.5209C318.73 83.8942 319.03 84.1542 319.363 84.3009C319.697 84.4475 320.05 84.5209 320.423 84.5209ZM327.721 89.4809L328.521 86.3809V83.8609H331.121V86.3809L328.921 89.4809H327.721ZM339.212 86.6009C338.479 86.6009 337.792 86.4875 337.152 86.2609C336.526 86.0209 335.972 85.6342 335.492 85.1009C335.026 84.5542 334.659 83.8142 334.392 82.8809C334.139 81.9475 334.012 80.7809 334.012 79.3809V78.9809C334.012 77.6875 334.139 76.6075 334.392 75.7409C334.659 74.8609 335.026 74.1609 335.492 73.6409C335.972 73.1075 336.526 72.7275 337.152 72.5009C337.792 72.2742 338.479 72.1609 339.212 72.1609C339.946 72.1609 340.626 72.2742 341.252 72.5009C341.892 72.7275 342.446 73.1075 342.912 73.6409C343.392 74.1609 343.759 74.8609 344.012 75.7409C344.279 76.6075 344.412 77.6875 344.412 78.9809V79.3809C344.412 80.7809 344.279 81.9475 344.012 82.8809C343.759 83.8142 343.392 84.5542 342.912 85.1009C342.446 85.6342 341.892 86.0209 341.252 86.2609C340.626 86.4875 339.946 86.6009 339.212 86.6009ZM339.212 84.5209C339.586 84.5209 339.939 84.4475 340.272 84.3009C340.606 84.1542 340.899 83.8942 341.152 83.5209C341.419 83.1342 341.626 82.6075 341.772 81.9409C341.932 81.2742 342.012 80.4209 342.012 79.3809V78.9809C342.012 77.7275 341.879 76.7609 341.612 76.0809C341.359 75.3875 341.019 74.9075 340.592 74.6409C340.166 74.3742 339.706 74.2409 339.212 74.2409C338.719 74.2409 338.259 74.3742 337.832 74.6409C337.406 74.9075 337.059 75.3875 336.792 76.0809C336.539 76.7609 336.412 77.7275 336.412 78.9809V79.3809C336.412 80.4209 336.486 81.2742 336.632 81.9409C336.792 82.6075 336.999 83.1342 337.252 83.5209C337.519 83.8942 337.819 84.1542 338.152 84.3009C338.486 84.4475 338.839 84.5209 339.212 84.5209Z" fill="black"/>
<path d="M365.113 57.5791V55.4991H368.413V46.1191L365.113 48.4591V45.9791L368.493 43.5791H370.813V55.4991H373.513V57.5791H365.113ZM384.815 57.7991C383.735 57.7991 382.822 57.6191 382.075 57.2591C381.342 56.8991 380.782 56.4058 380.395 55.7791C380.008 55.1391 379.815 54.4058 379.815 53.5791H382.215C382.215 54.2458 382.422 54.7658 382.835 55.1391C383.262 55.4991 383.922 55.6791 384.815 55.6791C385.682 55.6791 386.328 55.4991 386.755 55.1391C387.195 54.7658 387.415 54.2458 387.415 53.5791C387.415 52.8991 387.215 52.3658 386.815 51.9791C386.415 51.5791 385.748 51.3791 384.815 51.3791H383.415V49.3791H384.815C385.615 49.3791 386.215 49.2124 386.615 48.8791C387.015 48.5324 387.215 48.0391 387.215 47.3991C387.215 46.7591 387.022 46.2791 386.635 45.9591C386.262 45.6391 385.655 45.4791 384.815 45.4791C383.988 45.4791 383.375 45.6458 382.975 45.9791C382.588 46.3124 382.395 46.7791 382.395 47.3791H379.995C379.995 46.5658 380.175 45.8591 380.535 45.2591C380.908 44.6591 381.455 44.1924 382.175 43.8591C382.895 43.5258 383.775 43.3591 384.815 43.3591C385.868 43.3591 386.748 43.5324 387.455 43.8791C388.162 44.2124 388.695 44.6658 389.055 45.2391C389.428 45.7991 389.615 46.4258 389.615 47.1191C389.615 47.9191 389.402 48.5924 388.975 49.1391C388.548 49.6724 387.962 50.0524 387.215 50.2791C388.028 50.5191 388.662 50.9258 389.115 51.4991C389.582 52.0591 389.815 52.8191 389.815 53.7791C389.815 54.5258 389.622 55.2058 389.235 55.8191C388.862 56.4324 388.302 56.9191 387.555 57.2791C386.822 57.6258 385.908 57.7991 384.815 57.7991ZM397.109 57.7991C395.989 57.7991 395.043 57.6324 394.269 57.2991C393.496 56.9524 392.909 56.4791 392.509 55.8791C392.109 55.2791 391.909 54.5924 391.909 53.8191C391.909 53.0191 392.156 52.3124 392.649 51.6991C393.156 51.0724 393.889 50.6258 394.849 50.3591C394.143 50.1191 393.543 49.7191 393.049 49.1591C392.556 48.5991 392.309 47.9191 392.309 47.1191C392.309 46.3991 392.496 45.7591 392.869 45.1991C393.243 44.6258 393.783 44.1791 394.489 43.8591C395.209 43.5258 396.083 43.3591 397.109 43.3591C398.149 43.3591 399.023 43.5258 399.729 43.8591C400.449 44.1791 400.989 44.6258 401.349 45.1991C401.723 45.7591 401.909 46.3991 401.909 47.1191C401.909 47.9191 401.669 48.5924 401.189 49.1391C400.709 49.6858 400.109 50.0924 399.389 50.3591C400.363 50.6658 401.089 51.0991 401.569 51.6591C402.063 52.2191 402.309 52.9391 402.309 53.8191C402.309 54.5924 402.109 55.2791 401.709 55.8791C401.309 56.4791 400.723 56.9524 399.949 57.2991C399.176 57.6324 398.229 57.7991 397.109 57.7991ZM397.109 55.6791C397.749 55.6791 398.276 55.5924 398.689 55.4191C399.103 55.2458 399.409 55.0058 399.609 54.6991C399.809 54.3924 399.909 54.0391 399.909 53.6391C399.909 52.9591 399.643 52.4191 399.109 52.0191C398.576 51.6058 397.909 51.3458 397.109 51.2391C396.309 51.3458 395.643 51.6058 395.109 52.0191C394.576 52.4191 394.309 52.9591 394.309 53.6391C394.309 54.0391 394.416 54.3924 394.629 54.6991C394.843 55.0058 395.156 55.2458 395.569 55.4191C395.983 55.5924 396.496 55.6791 397.109 55.6791ZM397.109 49.5191C397.816 49.4124 398.389 49.1858 398.829 48.8391C399.283 48.4924 399.509 47.9791 399.509 47.2991C399.509 46.6991 399.289 46.2458 398.849 45.9391C398.423 45.6324 397.843 45.4791 397.109 45.4791C396.376 45.4791 395.789 45.6324 395.349 45.9391C394.923 46.2324 394.709 46.6858 394.709 47.2991C394.709 47.9791 394.936 48.4924 395.389 48.8391C395.843 49.1858 396.416 49.4124 397.109 49.5191ZM404.312 57.5791V55.4991H407.612V46.1191L404.312 48.4591V45.9791L407.692 43.5791H410.012V55.4991H412.712V57.5791H404.312ZM414.214 60.6791L415.014 57.5791V55.0591H417.614V57.5791L415.414 60.6791H414.214ZM425.706 57.7991C424.972 57.7991 424.286 57.6858 423.646 57.4591C423.019 57.2191 422.466 56.8324 421.986 56.2991C421.519 55.7524 421.152 55.0124 420.886 54.0791C420.632 53.1458 420.506 51.9791 420.506 50.5791V50.1791C420.506 48.8858 420.632 47.8058 420.886 46.9391C421.152 46.0591 421.519 45.3591 421.986 44.8391C422.466 44.3058 423.019 43.9258 423.646 43.6991C424.286 43.4724 424.972 43.3591 425.706 43.3591C426.439 43.3591 427.119 43.4724 427.746 43.6991C428.386 43.9258 428.939 44.3058 429.406 44.8391C429.886 45.3591 430.252 46.0591 430.506 46.9391C430.772 47.8058 430.906 48.8858 430.906 50.1791V50.5791C430.906 51.9791 430.772 53.1458 430.506 54.0791C430.252 55.0124 429.886 55.7524 429.406 56.2991C428.939 56.8324 428.386 57.2191 427.746 57.4591C427.119 57.6858 426.439 57.7991 425.706 57.7991ZM425.706 55.7191C426.079 55.7191 426.432 55.6458 426.766 55.4991C427.099 55.3524 427.392 55.0924 427.646 54.7191C427.912 54.3324 428.119 53.8058 428.266 53.1391C428.426 52.4724 428.506 51.6191 428.506 50.5791V50.1791C428.506 48.9258 428.372 47.9591 428.106 47.2791C427.852 46.5858 427.512 46.1058 427.086 45.8391C426.659 45.5724 426.199 45.4391 425.706 45.4391C425.212 45.4391 424.752 45.5724 424.326 45.8391C423.899 46.1058 423.552 46.5858 423.286 47.2791C423.032 47.9591 422.906 48.9258 422.906 50.1791V50.5791C422.906 51.6191 422.979 52.4724 423.126 53.1391C423.286 53.8058 423.492 54.3324 423.746 54.7191C424.012 55.0924 424.312 55.3524 424.646 55.4991C424.979 55.6458 425.332 55.7191 425.706 55.7191Z" fill="black"/>
<path d="M468.799 20.1367V18.0567H472.099V8.67672L468.799 11.0167V8.53672L472.179 6.13672H474.499V18.0567H477.199V20.1367H468.799ZM488.601 20.3567C487.775 20.3567 487.061 20.2501 486.461 20.0367C485.875 19.8234 485.388 19.5367 485.001 19.1767C484.615 18.8167 484.321 18.4101 484.121 17.9567C483.935 17.4901 483.828 17.0167 483.801 16.5367H486.201C486.268 17.0167 486.501 17.4234 486.901 17.7567C487.315 18.0767 487.881 18.2367 488.601 18.2367C489.415 18.2367 490.048 17.9967 490.501 17.5167C490.968 17.0367 491.201 16.3367 491.201 15.4167C491.201 14.7234 491.075 14.1767 490.821 13.7767C490.568 13.3634 490.241 13.0701 489.841 12.8967C489.441 12.7101 489.028 12.6167 488.601 12.6167C488.028 12.6167 487.548 12.7167 487.161 12.9167C486.788 13.1167 486.488 13.3901 486.261 13.7367H484.101V6.13672H492.801V8.21672H486.461V11.4767C486.768 11.1834 487.128 10.9501 487.541 10.7767C487.955 10.5901 488.475 10.4967 489.101 10.4967C490.008 10.4967 490.795 10.6834 491.461 11.0567C492.141 11.4301 492.668 11.9834 493.041 12.7167C493.415 13.4367 493.601 14.3301 493.601 15.3967C493.601 16.4101 493.388 17.2901 492.961 18.0367C492.548 18.7701 491.968 19.3434 491.221 19.7567C490.475 20.1567 489.601 20.3567 488.601 20.3567ZM495.498 20.1367V18.0567H498.798V8.67672L495.498 11.0167V8.53672L498.878 6.13672H501.198V18.0567H503.898V20.1367H495.498ZM505.1 20.1367V18.2567L510.32 13.7367C510.894 13.2301 511.354 12.7967 511.7 12.4367C512.047 12.0634 512.3 11.7167 512.46 11.3967C512.62 11.0634 512.7 10.7101 512.7 10.3367C512.7 9.65672 512.494 9.10339 512.08 8.67672C511.68 8.25005 511.12 8.03672 510.4 8.03672C509.547 8.03672 508.88 8.27005 508.4 8.73672C507.934 9.19005 507.7 9.89005 507.7 10.8367H505.3C505.3 9.85005 505.507 8.99005 505.92 8.25672C506.347 7.51005 506.94 6.93672 507.7 6.53672C508.46 6.12339 509.36 5.91672 510.4 5.91672C511.414 5.91672 512.267 6.11005 512.96 6.49672C513.667 6.87005 514.2 7.39005 514.56 8.05672C514.92 8.72338 515.1 9.48339 515.1 10.3367C515.1 10.9634 514.967 11.5567 514.7 12.1167C514.434 12.6634 514.067 13.1901 513.6 13.6967C513.147 14.1901 512.614 14.6767 512 15.1567L508.44 18.0567H515.3V20.1367H505.1ZM517.197 23.2367L517.997 20.1367V17.6167H520.597V20.1367L518.397 23.2367H517.197ZM528.689 20.3567C527.955 20.3567 527.269 20.2434 526.629 20.0167C526.002 19.7767 525.449 19.3901 524.969 18.8567C524.502 18.3101 524.135 17.5701 523.869 16.6367C523.615 15.7034 523.489 14.5367 523.489 13.1367V12.7367C523.489 11.4434 523.615 10.3634 523.869 9.49672C524.135 8.61672 524.502 7.91672 524.969 7.39672C525.449 6.86338 526.002 6.48338 526.629 6.25672C527.269 6.03005 527.955 5.91672 528.689 5.91672C529.422 5.91672 530.102 6.03005 530.729 6.25672C531.369 6.48338 531.922 6.86338 532.389 7.39672C532.869 7.91672 533.235 8.61672 533.489 9.49672C533.755 10.3634 533.889 11.4434 533.889 12.7367V13.1367C533.889 14.5367 533.755 15.7034 533.489 16.6367C533.235 17.5701 532.869 18.3101 532.389 18.8567C531.922 19.3901 531.369 19.7767 530.729 20.0167C530.102 20.2434 529.422 20.3567 528.689 20.3567ZM528.689 18.2767C529.062 18.2767 529.415 18.2034 529.749 18.0567C530.082 17.9101 530.375 17.6501 530.629 17.2767C530.895 16.8901 531.102 16.3634 531.249 15.6967C531.409 15.0301 531.489 14.1767 531.489 13.1367V12.7367C531.489 11.4834 531.355 10.5167 531.089 9.83672C530.835 9.14338 530.495 8.66338 530.069 8.39672C529.642 8.13005 529.182 7.99672 528.689 7.99672C528.195 7.99672 527.735 8.13005 527.309 8.39672C526.882 8.66338 526.535 9.14338 526.269 9.83672C526.015 10.5167 525.889 11.4834 525.889 12.7367V13.1367C525.889 14.1767 525.962 15.0301 526.109 15.6967C526.269 16.3634 526.475 16.8901 526.729 17.2767C526.995 17.6501 527.295 17.9101 527.629 18.0567C527.962 18.2034 528.315 18.2767 528.689 18.2767Z" fill="black"/>
<path d="M8.05005 219.03C51.2528 219.03 151.339 188.788 186.981 175.107C233.784 157.143 278.427 115.343 424.957 74.3005C493.001 55.2414 530.443 38.6582 530.443 38.6582" stroke="#FFD12F" stroke-width="1.44009"/>
<path d="M482.38 291.68V291.32C482.38 290.144 482.542 289.076 482.866 288.116C483.202 287.156 483.574 286.322 483.982 285.614C484.222 285.206 484.474 284.822 484.738 284.462C485.002 284.09 485.284 283.736 485.584 283.4H487.42C487.096 283.736 486.79 284.09 486.502 284.462C486.214 284.822 485.95 285.206 485.71 285.614C485.278 286.31 484.882 287.144 484.522 288.116C484.174 289.076 484 290.144 484 291.32V291.68C484 292.856 484.174 293.93 484.522 294.902C484.882 295.874 485.278 296.708 485.71 297.404C485.95 297.812 486.214 298.202 486.502 298.574C486.79 298.946 487.096 299.288 487.42 299.6H485.512C485.212 299.288 484.93 298.946 484.666 298.574C484.414 298.202 484.174 297.812 483.946 297.404C483.55 296.708 483.19 295.874 482.866 294.902C482.542 293.93 482.38 292.856 482.38 291.68ZM489.038 296V286.46H496.958V296H495.374V287.864H490.622V296H489.038ZM499.381 296.18C499.297 296.18 499.207 296.174 499.111 296.162C499.027 296.15 498.937 296.138 498.841 296.126V294.542C498.877 294.554 498.967 294.56 499.111 294.56C499.471 294.56 499.765 294.404 499.993 294.092C500.221 293.768 500.383 293.204 500.479 292.4C500.587 291.584 500.641 290.444 500.641 288.98V286.46H507.481V296H505.897V287.864H502.225V289.34C502.225 290.672 502.165 291.782 502.045 292.67C501.925 293.546 501.745 294.242 501.505 294.758C501.277 295.274 500.983 295.64 500.623 295.856C500.263 296.072 499.849 296.18 499.381 296.18ZM513.078 296.18C512.382 296.18 511.788 296.054 511.296 295.802C510.816 295.538 510.45 295.184 510.198 294.74C509.946 294.284 509.82 293.774 509.82 293.21C509.82 292.262 510.096 291.578 510.648 291.158C511.212 290.738 512.016 290.528 513.06 290.528H516.156V289.88C516.156 289.064 515.97 288.5 515.598 288.188C515.238 287.876 514.692 287.72 513.96 287.72C513.276 287.72 512.778 287.852 512.466 288.116C512.154 288.368 511.98 288.656 511.944 288.98H510.36C510.396 288.464 510.57 288.008 510.882 287.612C511.194 287.204 511.62 286.88 512.16 286.64C512.7 286.4 513.33 286.28 514.05 286.28C514.806 286.28 515.46 286.4 516.012 286.64C516.564 286.868 516.99 287.234 517.29 287.738C517.59 288.23 517.74 288.884 517.74 289.7V293.57C517.74 294.074 517.74 294.518 517.74 294.902C517.752 295.274 517.782 295.64 517.83 296H516.444C516.408 295.724 516.384 295.466 516.372 295.226C516.36 294.974 516.354 294.692 516.354 294.38C516.102 294.884 515.694 295.31 515.13 295.658C514.566 296.006 513.882 296.18 513.078 296.18ZM513.42 294.74C513.924 294.74 514.38 294.65 514.788 294.47C515.208 294.29 515.538 294.026 515.778 293.678C516.03 293.33 516.156 292.904 516.156 292.4V291.752H513.33C512.742 291.752 512.28 291.872 511.944 292.112C511.608 292.34 511.44 292.706 511.44 293.21C511.44 293.654 511.596 294.02 511.908 294.308C512.232 294.596 512.736 294.74 513.42 294.74ZM520.538 296V286.46H522.122V290.438H527.054V286.46H528.638V296H527.054V291.842H522.122V296H520.538ZM535.304 291.32V291.68C535.304 292.856 535.136 293.924 534.8 294.884C534.476 295.844 534.11 296.678 533.702 297.386C533.474 297.794 533.222 298.178 532.946 298.538C532.682 298.91 532.4 299.264 532.1 299.6H530.264C530.588 299.264 530.894 298.91 531.182 298.538C531.47 298.178 531.734 297.794 531.974 297.386C532.406 296.69 532.796 295.856 533.144 294.884C533.504 293.912 533.684 292.844 533.684 291.68V291.32C533.684 290.144 533.504 289.07 533.144 288.098C532.796 287.126 532.406 286.292 531.974 285.596C531.734 285.176 531.47 284.786 531.182 284.426C530.894 284.054 530.588 283.712 530.264 283.4H532.172C532.472 283.712 532.748 284.054 533 284.426C533.264 284.786 533.51 285.176 533.738 285.596C534.134 286.292 534.494 287.126 534.818 288.098C535.142 289.07 535.304 290.144 535.304 291.32Z" fill="#868686"/>
<circle cx="7.68964" cy="217.591" r="5.76037" fill="white" stroke="#FFD12F" stroke-width="1.44009"/>
<circle cx="106.336" cy="200.31" r="5.76037" fill="white" stroke="#FFD12F" stroke-width="1.44009"/>
<circle cx="186.261" cy="173.668" r="5.76037" fill="white" stroke="#FFD12F" stroke-width="1.44009"/>
<circle cx="266.186" cy="133.346" r="5.76037" fill="white" stroke="#FFD12F" stroke-width="1.44009"/>
<circle cx="346.112" cy="99.5029" r="5.76037" fill="white" stroke="#FFD12F" stroke-width="1.44009"/>
<circle cx="426.756" cy="72.8613" r="5.76037" fill="white" stroke="#FFD12F" stroke-width="1.44009"/>
<circle cx="529.003" cy="37.579" r="5.76037" fill="white" stroke="#FFD12F" stroke-width="1.44009"/>
</svg>
