<svg width="32" height="44" viewBox="0 0 32 44" fill="none" xmlns="http://www.w3.org/2000/svg">
<path d="M21.7734 10.5C21.2214 10.5 20.7734 10.052 20.7734 9.5V3C20.7734 1.7125 22.7734 1.71 22.7734 3V8.5H30.6874L22.4804 0.293C22.2929 0.1055 22.0384 0 21.7734 0H1.27344C0.721438 0 0.273438 0.448 0.273438 1V43C0.273438 43.552 0.721438 44 1.27344 44H30.2734C30.8254 44 31.2734 43.552 31.2734 43V10.5H21.7734ZM7.27344 8.5H16.7734C18.0609 8.5 18.0634 10.5 16.7734 10.5H7.27344C5.98594 10.5 5.98344 8.5 7.27344 8.5ZM24.2734 34H7.27344C5.98594 34 5.98344 32 7.27344 32H24.2734C25.5609 32 25.5634 34 24.2734 34ZM24.2734 26H7.27344C5.98594 26 5.98344 24 7.27344 24H24.2734C25.5609 24 25.5634 26 24.2734 26ZM24.2734 18.5H7.27344C5.98594 18.5 5.98344 16.5 7.27344 16.5H24.2734C25.5609 16.5 25.5634 18.5 24.2734 18.5Z" fill="white"/>
</svg>
