<svg width="57" height="51" viewBox="0 0 57 51" fill="none" xmlns="http://www.w3.org/2000/svg">
<path d="M20.3587 0.44043C23.7767 0.44043 26.6087 3.27246 26.6087 6.69043V43.4092C26.6087 47.3154 23.386 50.4404 19.5774 50.4404C16.4524 50.4404 13.8157 48.4873 12.9368 45.6553C12.5462 45.7529 12.1556 45.7529 11.7649 45.7529C7.85869 45.7529 4.73369 42.6279 4.73369 38.7217C4.73369 38.3311 4.73369 37.8428 4.83135 37.3545C1.99932 36.1826 0.0461922 33.4482 0.0461922 30.1279C0.0461922 27.2959 1.60869 24.7568 3.95244 23.3896C3.46416 22.4131 3.17119 21.2412 3.17119 19.9717C3.17119 16.749 5.12432 13.917 7.95635 12.7451C7.85869 12.3545 7.85869 11.8662 7.85869 11.3779C7.85869 7.95996 10.5931 5.12793 14.1087 5.12793C14.1087 5.12793 14.2063 5.22559 14.304 5.22559C14.9876 2.49121 17.429 0.44043 20.3587 0.44043ZM56.2962 30.1279C56.2962 33.4482 54.2454 36.1826 51.4134 37.3545C51.511 37.8428 51.6087 38.3311 51.6087 38.7217C51.6087 42.6279 48.386 45.7529 44.5774 45.7529C44.0892 45.7529 43.6985 45.7529 43.4056 45.6553C42.429 48.4873 39.7923 50.4404 36.7649 50.4404C32.8587 50.4404 29.7337 47.3154 29.7337 43.4092V6.69043C29.7337 3.27246 32.4681 0.44043 35.9837 0.44043C38.8157 0.44043 41.2571 2.49121 41.9407 5.22559C42.0384 5.22559 42.136 5.12793 42.2337 5.12793C45.6517 5.12793 48.4837 7.95996 48.4837 11.3779C48.4837 11.8662 48.386 12.3545 48.2884 12.7451C51.1204 13.917 53.1712 16.749 53.1712 19.9717C53.1712 21.2412 52.7806 22.4131 52.2923 23.3896C54.636 24.7568 56.2962 27.2959 56.2962 30.1279Z" fill="#00A2FF"/>
</svg>
