<svg width="51" height="51" viewBox="0 0 51 51" fill="none" xmlns="http://www.w3.org/2000/svg">
<path d="M34.5213 9.81543C34.5213 15.0889 30.3221 19.1904 25.1463 19.1904C19.8729 19.1904 15.7713 15.0889 15.7713 9.81543C15.7713 4.63965 19.8729 0.44043 25.1463 0.44043C30.3221 0.44043 34.5213 4.63965 34.5213 9.81543ZM22.9002 24.0732C23.2908 24.2686 23.5838 24.6592 23.5838 25.1475V49.1709C23.5838 50.1475 22.4119 50.8311 21.533 50.3428C15.576 47.3154 6.98223 46.5342 2.68535 46.2412C1.22051 46.2412 0.14629 45.0693 0.14629 43.6045V21.9248C0.14629 20.3623 1.41582 19.1904 2.97832 19.2881C7.76348 19.4834 17.1385 20.46 22.9002 24.0732ZM47.2166 19.2881C48.7791 19.1904 50.1463 20.3623 50.1463 21.9248V43.6045C50.1463 45.0693 48.9744 46.2412 47.5096 46.3389C43.2127 46.5342 34.6189 47.3154 28.6619 50.3428C27.783 50.8311 26.7088 50.1475 26.7088 49.1709V25.1475C26.7088 24.7568 26.9041 24.2686 27.2947 24.0732C33.0564 20.46 42.4314 19.4834 47.2166 19.2881Z" fill="#00A2FF"/>
</svg>
