<svg width="64" height="45" viewBox="0 0 64 45" fill="none" xmlns="http://www.w3.org/2000/svg">
<path d="M0.89629 41.1904V9.94043H63.3963V41.1904C63.3963 42.9482 61.9314 44.3154 60.2713 44.3154H4.02129C2.26348 44.3154 0.89629 42.9482 0.89629 41.1904ZM44.6463 20.8779V24.0029C44.6463 24.8818 45.3299 25.5654 46.2088 25.5654H55.5838C56.365 25.5654 57.1463 24.8818 57.1463 24.0029V20.8779C57.1463 20.0967 56.365 19.3154 55.5838 19.3154H46.2088C45.3299 19.3154 44.6463 20.0967 44.6463 20.8779ZM44.6463 32.5967V34.1592C44.6463 34.6475 44.9393 34.9404 45.4275 34.9404H56.365C56.7557 34.9404 57.1463 34.6475 57.1463 34.1592V32.5967C57.1463 32.2061 56.7557 31.8154 56.365 31.8154H45.4275C44.9393 31.8154 44.6463 32.2061 44.6463 32.5967ZM7.14629 23.2217V24.7842C7.14629 25.2725 7.43926 25.5654 7.92754 25.5654H37.615C38.0057 25.5654 38.3963 25.2725 38.3963 24.7842V23.2217C38.3963 22.8311 38.0057 22.4404 37.615 22.4404H7.92754C7.43926 22.4404 7.14629 22.8311 7.14629 23.2217ZM7.14629 32.5967V34.1592C7.14629 34.6475 7.43926 34.9404 7.92754 34.9404H25.115C25.5057 34.9404 25.8963 34.6475 25.8963 34.1592V32.5967C25.8963 32.2061 25.5057 31.8154 25.115 31.8154H7.92754C7.43926 31.8154 7.14629 32.2061 7.14629 32.5967ZM61.8338 0.56543C62.615 0.56543 63.3963 1.34668 63.3963 2.12793V6.81543H0.89629V2.12793C0.89629 1.34668 1.57988 0.56543 2.45879 0.56543H61.8338Z" fill="#00A2FF"/>
</svg>
