<svg width="58" height="45" viewBox="0 0 58 45" fill="none" xmlns="http://www.w3.org/2000/svg">
<path d="M28.3899 11.7715C28.5853 11.5762 28.8782 11.4785 29.1712 11.4785C29.3665 11.4785 29.6595 11.5762 29.8548 11.7715L47.9212 26.5176V42.5332C47.9212 43.4121 47.1399 44.0957 46.3587 44.0957H35.3235C34.5423 44.0957 33.761 43.4121 33.761 42.5332V33.1582C33.761 32.377 33.0774 31.5957 32.1985 31.5957H25.9485C25.1673 31.5957 24.386 32.377 24.386 33.1582V42.5332C24.386 43.4121 23.7024 44.0957 22.9212 44.0957H11.9837C11.1048 44.0957 10.4212 43.4121 10.4212 42.5332V26.6152L28.3899 11.7715ZM56.8079 21.8301C57.1009 22.0254 57.2962 22.416 57.2962 22.709C57.2962 23.002 57.1985 23.2949 57.0032 23.4902L54.4642 26.5176C54.2688 26.8105 53.9759 26.9082 53.5853 26.9082C53.2923 26.9082 52.9993 26.8105 52.804 26.6152L29.8548 7.76758C29.6595 7.57227 29.3665 7.47461 29.1712 7.47461C28.8782 7.47461 28.5853 7.57227 28.3899 7.76758L5.44072 26.6152C5.24541 26.8105 4.95244 26.9082 4.65947 26.9082C4.26885 26.9082 3.97588 26.8105 3.78057 26.5176L1.2415 23.4902C1.14385 23.2949 0.948536 23.002 0.948536 22.709C0.948536 22.416 1.14385 22.0254 1.43682 21.8301L26.1438 1.41992C26.9251 0.833984 27.9993 0.443359 29.1712 0.443359C30.2454 0.443359 31.3196 0.833984 32.1009 1.41992L40.8899 8.64648V1.61523C40.8899 0.931641 41.3782 0.443359 42.0618 0.443359H47.5306C48.1165 0.443359 48.7024 0.931641 48.7024 1.61523V15.0918L56.8079 21.8301Z" fill="#00A2FF"/>
</svg>
