<svg width="50" height="49" viewBox="0 0 50 49" fill="none" xmlns="http://www.w3.org/2000/svg">
<path d="M25.1441 0.00195312C38.523 0.00195312 49.3629 10.8418 49.3629 24.2207C49.3629 37.5996 38.523 48.4395 25.1441 48.4395C11.7652 48.4395 0.925375 37.5996 0.925375 24.2207C0.925375 10.8418 11.7652 0.00195312 25.1441 0.00195312ZM25.1441 43.752C35.8863 43.752 44.6754 35.0605 44.6754 24.2207C44.6754 13.4785 35.8863 4.68945 25.1441 4.68945C14.3043 4.68945 5.61287 13.4785 5.61287 24.2207C5.61287 35.0605 14.3043 43.752 25.1441 43.752ZM17.3316 22.6582C15.5738 22.6582 14.2066 21.291 14.2066 19.5332C14.2066 17.873 15.5738 16.4082 17.3316 16.4082C18.9918 16.4082 20.4566 17.873 20.4566 19.5332C20.4566 21.291 18.9918 22.6582 17.3316 22.6582ZM32.9566 22.6582C31.1988 22.6582 29.8316 21.291 29.8316 19.5332C29.8316 17.873 31.1988 16.4082 32.9566 16.4082C34.6168 16.4082 36.0816 17.873 36.0816 19.5332C36.0816 21.291 34.6168 22.6582 32.9566 22.6582ZM33.3472 29.7871C34.1285 28.8105 35.5933 28.7129 36.5699 29.4941C37.6441 30.2754 37.7418 31.8379 36.8629 32.8145C33.9332 36.3301 29.6363 38.2832 25.1441 38.2832C20.5543 38.2832 16.2574 36.3301 13.3277 32.8145C12.4488 31.8379 12.6441 30.2754 13.6207 29.4941C14.5972 28.7129 16.0621 28.8105 16.941 29.7871C18.8941 32.2285 21.9215 33.5957 25.1441 33.5957C28.2691 33.5957 31.2965 32.2285 33.3472 29.7871Z" fill="#00A2FF"/>
</svg>
