<svg width="51" height="51" viewBox="0 0 51 51" fill="none" xmlns="http://www.w3.org/2000/svg">
<path d="M25.1268 40.8457C13.8963 40.8457 4.81426 31.7637 4.81426 20.5332C4.81426 9.40039 13.8963 0.220703 25.1268 0.220703C36.2596 0.220703 45.4393 9.40039 45.4393 20.5332C45.4393 31.7637 36.2596 40.8457 25.1268 40.8457ZM22.8807 9.79102C19.7557 9.88867 17.1189 12.5254 17.1189 15.8457C17.1189 18.5801 18.8768 21.0215 21.4158 21.7051L27.4705 23.5605C28.1541 23.7559 28.6424 24.4395 28.6424 25.3184C28.6424 26.2949 27.9588 27.0762 27.0799 27.0762H23.2713C22.6854 27.0762 22.0994 26.8809 21.5135 26.5879C21.1229 26.2949 20.5369 26.2949 20.1463 26.6855L18.5838 28.1504C18.0955 28.6387 18.1932 29.4199 18.6814 29.8105C19.951 30.7871 21.4158 31.2754 22.8807 31.373V33.0332C22.8807 33.9121 23.6619 34.5957 24.5408 34.5957H25.615C26.4939 34.5957 27.2752 33.9121 27.2752 33.0332V31.373C30.4002 31.2754 33.0369 28.6387 33.0369 25.3184C33.0369 22.584 31.2791 20.1426 28.74 19.459L22.6854 17.6035C22.0018 17.4082 21.5135 16.627 21.5135 15.8457C21.5135 14.8691 22.1971 14.0879 23.076 14.0879H26.8846C27.4705 14.0879 28.0564 14.2832 28.6424 14.5762C29.033 14.8691 29.6189 14.8691 30.0096 14.4785L31.5721 13.0137C32.0604 12.5254 31.9627 11.7441 31.4744 11.2559C30.2049 10.377 28.74 9.88867 27.2752 9.79102V8.13086C27.2752 7.25195 26.4939 6.4707 25.615 6.4707H24.5408C23.6619 6.4707 22.8807 7.25195 22.8807 8.13086V9.79102ZM47.0018 34.5957C48.6619 34.5957 50.1268 36.0605 50.1268 37.7207V47.0957C50.1268 48.8535 48.6619 50.2207 47.0018 50.2207H3.25176C1.49395 50.2207 0.126759 48.8535 0.126759 47.0957V37.7207C0.126759 36.0605 1.49395 34.5957 3.25176 34.5957H6.37676C8.32988 37.1348 10.7713 39.2832 13.5057 40.8457H7.25566C6.76738 40.8457 6.37676 41.2363 6.37676 41.627V43.1895C6.37676 43.6777 6.76738 43.9707 7.25566 43.9707H42.9002C43.3885 43.9707 43.7791 43.6777 43.7791 43.1895V41.627C43.7791 41.2363 43.3885 40.8457 42.9002 40.8457H36.6502C39.3846 39.2832 41.826 37.1348 43.7791 34.5957H47.0018Z" fill="#00A2FF"/>
</svg>
