<svg width="80" height="80" fill="none" xmlns="http://www.w3.org/2000/svg"><path opacity=".1" d="M40 80c22.092 0 40-17.909 40-40S62.092 0 40 0C17.91 0 0 17.909 0 40s17.909 40 40 40Z" fill="#367CFF"/><path d="M22.695 28.002a1.655 1.655 0 0 1 2.336-.134l5.28 4.71-2.203 2.469-5.28-4.71a1.654 1.654 0 0 1-.133-2.335Z" fill="#fff"/><path d="M28.123 35.277 22.72 30.46a1.817 1.817 0 1 1 2.42-2.713l5.402 4.818-2.42 2.713Zm-4.19-7.665c-.03 0-.058 0-.087.002a1.491 1.491 0 0 0-.907 2.602l5.158 4.6 1.985-2.225-5.158-4.6a1.48 1.48 0 0 0-.99-.38h-.001Z" fill="#292A2E"/><path d="m51.895 35.047-2.203-2.47 5.28-4.709a1.654 1.654 0 0 1 2.203 2.47l-5.28 4.709Z" fill="#fff"/><path d="m51.88 35.277-2.42-2.713 5.403-4.818a1.818 1.818 0 1 1 2.42 2.713l-5.402 4.818Zm-1.958-2.687 1.985 2.226 5.158-4.6a1.488 1.488 0 0 0 .12-2.106 1.493 1.493 0 0 0-2.105-.12l-5.158 4.6Z" fill="#292A2E"/><path d="M54.094 38.11c1.177 5.215 2.79 8.57 1.987 10.498-.422 1.013-1.288 1.862-2.722 1.862-2.236 0-2.236-2.636-4.471-2.636s-2.235 2.636-4.47 2.636-2.235-2.636-4.47-2.636-2.235 2.636-4.47 2.636-2.235-2.636-4.47-2.636c-2.234 0-2.234 2.636-4.469 2.636-1.327 0-2.077-.781-2.552-1.684-1.143-2.17 1.52-6.944 2.552-11.153 1.14-4.652 1.044-10.446 1.197-13.94.295-6.74 5.468-12.215 12.214-12.215s11.722 5.487 12.213 12.214c.265 3.627.853 9.644 1.93 14.418Z" fill="#fff"/><path d="M53.358 50.635c-1.194 0-1.787-.7-2.361-1.377-.55-.648-1.068-1.26-2.11-1.26-1.041 0-1.56.612-2.11 1.26-.573.677-1.166 1.377-2.36 1.377s-1.787-.7-2.36-1.377c-.55-.648-1.069-1.26-2.11-1.26-1.04 0-1.56.612-2.109 1.26-.574.677-1.167 1.377-2.36 1.377-1.195 0-1.788-.7-2.36-1.376-.55-.648-1.069-1.26-2.11-1.26-1.04 0-1.56.612-2.109 1.26-.573.676-1.166 1.377-2.36 1.377-1.187 0-2.07-.58-2.698-1.773-.797-1.512.16-4.187 1.173-7.018.504-1.406 1.024-2.86 1.365-4.25.912-3.72 1.027-8.092 1.12-11.605.021-.83.042-1.615.073-2.304.146-3.336 1.472-6.44 3.735-8.742a12.033 12.033 0 0 1 8.643-3.629 11.857 11.857 0 0 1 8.57 3.634c2.21 2.276 3.563 5.377 3.808 8.732.237 3.236.8 9.407 1.927 14.394.382 1.69.81 3.185 1.186 4.503.787 2.752 1.356 4.74.792 6.094-.306.733-1.086 1.963-2.875 1.963Zm-4.47-2.966c1.193 0 1.787.7 2.36 1.377.55.648 1.069 1.26 2.11 1.26 1.598 0 2.296-1.103 2.57-1.761.52-1.247-.036-3.19-.805-5.877-.378-1.322-.807-2.82-1.19-4.521-1.131-5.008-1.698-11.198-1.934-14.442-.503-6.876-5.683-12.061-12.05-12.061-6.46 0-11.754 5.295-12.05 12.056-.03.686-.05 1.469-.073 2.298-.088 3.342-.209 7.92-1.129 11.674-.345 1.408-.868 2.87-1.374 4.284-.989 2.76-1.922 5.37-1.193 6.753.566 1.075 1.354 1.597 2.407 1.597 1.041 0 1.56-.612 2.11-1.26.573-.677 1.166-1.377 2.36-1.377 1.193 0 1.786.7 2.36 1.377.55.648 1.068 1.26 2.11 1.26 1.04 0 1.56-.612 2.109-1.26.573-.677 1.166-1.377 2.36-1.377s1.787.7 2.36 1.377c.55.648 1.069 1.26 2.11 1.26s1.56-.612 2.11-1.26c.574-.676 1.167-1.377 2.361-1.377Z" fill="#292A2E"/><path d="M35.358 24.48a1.354 1.354 0 1 0 0-2.707 1.354 1.354 0 0 0 0 2.708ZM44.643 24.48a1.354 1.354 0 1 0 0-2.707 1.354 1.354 0 0 0 0 2.708Z" fill="#292A2E"/><path d="M42.427 26.78a.525.525 0 0 1 .516.632c-.29 1.358-1.497 2.21-2.94 2.21-1.445 0-2.651-.852-2.941-2.21a.524.524 0 0 1 .516-.632h4.849Z" fill="#fff"/><path d="M40.002 29.788c-1.556 0-2.803-.941-3.102-2.341a.681.681 0 0 1 .138-.573.69.69 0 0 1 .54-.258h4.848a.692.692 0 0 1 .678.83c-.3 1.4-1.547 2.342-3.102 2.342Zm-2.425-2.843a.363.363 0 0 0-.353.276.351.351 0 0 0-.002.157c.266 1.244 1.383 2.08 2.78 2.08 1.396 0 2.513-.836 2.779-2.08a.353.353 0 0 0-.072-.297.364.364 0 0 0-.283-.136h-4.849Z" fill="#292A2E"/><path d="M71.823 64.237C64.516 73.817 52.98 80 40.001 80c-12.98 0-24.515-6.182-31.823-15.763C16.52 61.098 27.705 59.179 40 59.179s23.48 1.92 31.822 5.058Z" fill="#367CFF"/><path d="m75.181 20.95-20.529-.088c0-3.429 1.931-4.104 3.984-4.66 2.053-.558 2.977-4.326 6.544-4.54 2.107-.127 3.212.415 4.127 1.113l.002.003a40.107 40.107 0 0 1 5.872 8.171ZM16.624 46.424l-16.097.07a39.82 39.82 0 0 1-.5-5.08c3.526-.5 3.166-3.302 7.376-3.047 3.124.188 3.936 3.488 5.733 3.976 1.797.487 3.488 1.08 3.488 4.081Z" fill="#fff"/></svg>