<svg width="126" height="68" fill="none" xmlns="http://www.w3.org/2000/svg"><rect width="125.422" height="68" rx="10" fill="#212121"/><mask id="a" style="mask-type:alpha" maskUnits="userSpaceOnUse" x="0" y="0" width="126" height="68"><rect width="125.422" height="68" rx="10" fill="#212121"/></mask><g mask="url(#a)"><ellipse cx="118.889" cy="64.368" rx="35.798" ry="35.831" fill="#3F9D83"/><ellipse cx="45.931" cy="75.323" rx="32.401" ry="32.431" fill="#D9C842"/><g filter="url(#b)"><ellipse cx="-9.668" cy="50.768" rx="31.094" ry="31.123" fill="#D78C46"/></g><g filter="url(#c)"><ellipse cx="9.377" cy="68.261" rx="34.23" ry="34.261" fill="#3F9D83"/></g><g opacity=".6" fill="#212121"><path d="m42.48 48.835 4.166 7.32c.475.835.443 1.773-.45 2.08-.682.236-1.791.067-2.155-.57l-4.177-7.314c-.478-.838.376-2.064 1.273-2.373.684-.236.978.217 1.342.857ZM48.578 49.595l4.168 7.32c.475.835.442 1.773-.451 2.08-.682.236-1.79.067-2.155-.57l-4.176-7.314c-.479-.838.375-2.064 1.272-2.373.685-.236.978.217 1.342.857Z"/></g><g opacity=".8" fill="#212121"><path d="m13.57 57.072 4.864-8.546c.555-.975.517-2.07-.526-2.429-.796-.274-2.09-.078-2.515.666l-4.876 8.54c-.559.978.438 2.409 1.486 2.77.799.275 1.14-.253 1.566-1ZM20.69 56.184l4.865-8.545c.555-.975.517-2.07-.526-2.43-.796-.273-2.09-.077-2.515.666l-4.876 8.54c-.56.979.438 2.41 1.485 2.77.8.276 1.141-.253 1.567-1Z"/></g><path opacity=".8" d="M105.778 52.725c7.814 3.554 12.067 2.608 19.417-4.43" stroke="#212121" stroke-width="3" stroke-linecap="round"/><g filter="url(#d)"><ellipse cx="78.128" cy="69.831" rx="31.094" ry="31.123" fill="#3F9D83"/></g><g filter="url(#e)"><ellipse cx="118.628" cy="76.892" rx="22.471" ry="22.492" fill="#D9C842"/></g><g opacity=".4" fill="#212121"><path d="m119.14 68.894-3.414-5.997c-.389-.684-.362-1.452.369-1.704.559-.192 1.467-.055 1.765.467l3.422 5.993c.392.687-.308 1.69-1.043 1.944-.56.193-.801-.178-1.099-.703ZM114.144 68.272l-3.415-5.997c-.389-.684-.362-1.453.37-1.705.558-.192 1.467-.054 1.765.468l3.422 5.992c.392.687-.308 1.69-1.043 1.944-.561.194-.801-.178-1.099-.702Z"/></g><path d="M4.533 57.8c5.288 7.09 9.497 8.272 19.267 5.289" stroke="#273A35" stroke-width="3" stroke-linecap="round"/><path opacity=".8" d="M64.978 58.178c5.288 7.09 9.496 8.271 19.266 5.289" stroke="#212121" stroke-width="3" stroke-linecap="round"/></g><g opacity=".8" fill="#212121"><path d="m81.858 48.835-4.167 7.32c-.475.835-.442 1.773.451 2.08.682.236 1.79.067 2.154-.57l4.177-7.314c.478-.838-.376-2.064-1.273-2.373-.684-.236-.977.217-1.342.857ZM75.76 49.595l-4.168 7.32c-.475.835-.442 1.773.45 2.08.682.236 1.791.067 2.155-.57l4.177-7.314c.478-.838-.376-2.064-1.273-2.373-.685-.236-.977.217-1.342.857Z"/></g><g opacity=".8" fill="#212121"><path d="m108.905 40.524 4.167 7.32c.475.835.443 1.773-.45 2.08-.682.235-1.791.067-2.155-.57l-4.177-7.314c-.478-.839.376-2.064 1.273-2.373.685-.236.978.216 1.342.857ZM115.004 41.284l4.168 7.32c.475.835.442 1.773-.451 2.08-.682.235-1.791.067-2.155-.57L112.39 42.8c-.479-.839.375-2.064 1.272-2.373.685-.236.978.217 1.342.857Z"/></g><defs><filter id="b" x="-61.763" y="-6.355" width="110.188" height="110.246" filterUnits="userSpaceOnUse" color-interpolation-filters="sRGB"><feFlood flood-opacity="0" result="BackgroundImageFix"/><feColorMatrix in="SourceAlpha" values="0 0 0 0 0 0 0 0 0 0 0 0 0 0 0 0 0 0 127 0" result="hardAlpha"/><feOffset dx="3" dy="-2"/><feGaussianBlur stdDeviation="12"/><feComposite in2="hardAlpha" operator="out"/><feColorMatrix values="0 0 0 0 0 0 0 0 0 0 0 0 0 0 0 0 0 0 0.25 0"/><feBlend in2="BackgroundImageFix" result="effect1_dropShadow_1_1321"/><feBlend in="SourceGraphic" in2="effect1_dropShadow_1_1321" result="shape"/></filter><filter id="c" x="-45.853" y="8" width="116.459" height="116.523" filterUnits="userSpaceOnUse" color-interpolation-filters="sRGB"><feFlood flood-opacity="0" result="BackgroundImageFix"/><feColorMatrix in="SourceAlpha" values="0 0 0 0 0 0 0 0 0 0 0 0 0 0 0 0 0 0 127 0" result="hardAlpha"/><feOffset dx="3" dy="-2"/><feGaussianBlur stdDeviation="12"/><feComposite in2="hardAlpha" operator="out"/><feColorMatrix values="0 0 0 0 0 0 0 0 0 0 0 0 0 0 0 0 0 0 0.25 0"/><feBlend in2="BackgroundImageFix" result="effect1_dropShadow_1_1321"/><feBlend in="SourceGraphic" in2="effect1_dropShadow_1_1321" result="shape"/></filter><filter id="d" x="26.034" y="12.707" width="110.188" height="110.246" filterUnits="userSpaceOnUse" color-interpolation-filters="sRGB"><feFlood flood-opacity="0" result="BackgroundImageFix"/><feColorMatrix in="SourceAlpha" values="0 0 0 0 0 0 0 0 0 0 0 0 0 0 0 0 0 0 127 0" result="hardAlpha"/><feOffset dx="3" dy="-2"/><feGaussianBlur stdDeviation="12"/><feComposite in2="hardAlpha" operator="out"/><feColorMatrix values="0 0 0 0 0 0 0 0 0 0 0 0 0 0 0 0 0 0 0.25 0"/><feBlend in2="BackgroundImageFix" result="effect1_dropShadow_1_1321"/><feBlend in="SourceGraphic" in2="effect1_dropShadow_1_1321" result="shape"/></filter><filter id="e" x="75.157" y="28.4" width="92.943" height="92.985" filterUnits="userSpaceOnUse" color-interpolation-filters="sRGB"><feFlood flood-opacity="0" result="BackgroundImageFix"/><feColorMatrix in="SourceAlpha" values="0 0 0 0 0 0 0 0 0 0 0 0 0 0 0 0 0 0 127 0" result="hardAlpha"/><feOffset dx="3" dy="-2"/><feGaussianBlur stdDeviation="12"/><feComposite in2="hardAlpha" operator="out"/><feColorMatrix values="0 0 0 0 0 0 0 0 0 0 0 0 0 0 0 0 0 0 0.25 0"/><feBlend in2="BackgroundImageFix" result="effect1_dropShadow_1_1321"/><feBlend in="SourceGraphic" in2="effect1_dropShadow_1_1321" result="shape"/></filter></defs></svg>