<svg width="14" height="14" viewBox="0 0 14 14" fill="none" xmlns="http://www.w3.org/2000/svg">
<g id="Frame">
<g id="Group">
<path id="Layer 10" d="M9.88381 3.15451V0.573218L12.5084 3.63519H10.3645C10.237 3.63519 10.1147 3.58455 10.0246 3.4944C9.93445 3.40426 9.88381 3.28199 9.88381 3.15451ZM10.3645 4.59657C9.98203 4.59657 9.61524 4.44464 9.3448 4.1742C9.07436 3.90376 8.92243 3.53696 8.92243 3.15451V0.270386H2.67351C2.29105 0.270386 1.92425 0.422317 1.65381 0.692755C1.38338 0.963194 1.23145 1.32999 1.23145 1.71245V12.2876C1.23145 12.67 1.38338 13.0368 1.65381 13.3072C1.92425 13.5777 2.29105 13.7296 2.67351 13.7296H11.3259C11.7083 13.7296 12.0751 13.5777 12.3456 13.3072C12.616 13.0368 12.7679 12.67 12.7679 12.2876V4.59657H10.3645Z" fill="white"/>
</g>
</g>
</svg>
