<svg width="0" height="0" class="hidden">
    <symbol  xmlns="http://www.w3.org/2000/svg" viewBox="0 0 24 24" id="award_star">
        <mask id="a" maskUnits="userSpaceOnUse" x="0" y="0" width="24" height="24">
            <path  d="M0 0h24v24H0z"></path>
        </mask>
        <g mask="url(#a)">
            <path d="M12 23.3 8.65 20H4v-4.65L.7 12 4 8.65V4h4.65L12 .7 15.35 4H20v4.65L23.3 12 20 15.35V20h-4.65L12 23.3Zm0-2.8 2.5-2.5H18v-3.5l2.5-2.5L18 9.5V6h-3.5L12 3.5 9.5 6H6v3.5L3.5 12 6 14.5V18h3.5l2.5 2.5Zm-2.925-4.25L12 14.475l2.925 1.775-.775-3.325 2.6-2.25-3.425-.275L12 7.25l-1.325 3.15-3.425.275 2.6 2.25-.775 3.325Z" ></path>
        </g>
    </symbol>
    <symbol  xmlns="http://www.w3.org/2000/svg" viewBox="0 0 20 20" id="check_circle">
        <path d="M8.6 11.8 6.45 9.65a.948.948 0 0 0-.7-.275.948.948 0 0 0-.7.275.948.948 0 0 0-.275.7c0 .283.092.517.275.7L7.9 13.9c.2.2.433.3.7.3.267 0 .5-.1.7-.3l5.65-5.65a.948.948 0 0 0 .275-.7.948.948 0 0 0-.275-.7.948.948 0 0 0-.7-.275.948.948 0 0 0-.7.275L8.6 11.8ZM10 20a9.738 9.738 0 0 1-3.9-.788 10.099 10.099 0 0 1-3.175-2.137c-.9-.9-1.612-1.958-2.137-3.175A9.738 9.738 0 0 1 0 10c0-1.383.263-2.683.787-3.9a10.099 10.099 0 0 1 2.138-3.175c.9-.9 1.958-1.612 3.175-2.137A9.738 9.738 0 0 1 10 0c1.383 0 2.683.263 3.9.787a10.098 10.098 0 0 1 3.175 2.138c.9.9 1.613 1.958 2.137 3.175A9.738 9.738 0 0 1 20 10a9.738 9.738 0 0 1-.788 3.9 10.098 10.098 0 0 1-2.137 3.175c-.9.9-1.958 1.613-3.175 2.137A9.738 9.738 0 0 1 10 20Zm0-2c2.233 0 4.125-.775 5.675-2.325C17.225 14.125 18 12.233 18 10c0-2.233-.775-4.125-2.325-5.675C14.125 2.775 12.233 2 10 2c-2.233 0-4.125.775-5.675 2.325C2.775 5.875 2 7.767 2 10c0 2.233.775 4.125 2.325 5.675C5.875 17.225 7.767 18 10 18Z" ></path>
    </symbol>
    <symbol  xmlns="http://www.w3.org/2000/svg" viewBox="0 0 32 32" id="headset_mic">
        <mask id="a" maskUnits="userSpaceOnUse" x="0" y="0" width="32" height="32">
            <path  d="M0 0h32v32H0z"></path>
        </mask>
        <g mask="url(#a)">
            <path d="M16 30.667V28h9.333v-1.333H20V16h5.333v-1.333c0-2.578-.91-4.778-2.733-6.6-1.822-1.823-4.022-2.734-6.6-2.734-2.578 0-4.778.911-6.6 2.734-1.822 1.822-2.733 4.022-2.733 6.6V16H12v10.667H6.667a2.568 2.568 0 0 1-1.884-.784A2.568 2.568 0 0 1 4 24v-9.333c0-1.645.317-3.195.95-4.65A12.257 12.257 0 0 1 7.533 6.2a12.257 12.257 0 0 1 3.817-2.583 11.528 11.528 0 0 1 4.65-.95c1.644 0 3.194.316 4.65.95A12.257 12.257 0 0 1 24.467 6.2a12.256 12.256 0 0 1 2.583 3.817c.633 1.455.95 3.005.95 4.65V28c0 .733-.261 1.361-.783 1.883a2.568 2.568 0 0 1-1.884.784H16ZM6.667 24h2.666v-5.333H6.667V24Zm16 0h2.666v-5.333h-2.666V24Z"></path>
        </g>
    </symbol>
    <symbol  xmlns="http://www.w3.org/2000/svg" viewBox="0 0 32 32" id="help">
        <mask id="a" maskUnits="userSpaceOnUse" x="0" y="0" width="32" height="32">
            <path  d="M0 0h32v32H0z"></path>
        </mask>
        <g mask="url(#a)">
            <path d="M15.933 24a1.61 1.61 0 0 0 1.184-.483 1.61 1.61 0 0 0 .483-1.184 1.61 1.61 0 0 0-.483-1.183 1.61 1.61 0 0 0-1.184-.483 1.61 1.61 0 0 0-1.183.483 1.61 1.61 0 0 0-.483 1.183c0 .467.16.861.483 1.184a1.61 1.61 0 0 0 1.183.483ZM16 29.333c-1.844 0-3.578-.35-5.2-1.05a13.465 13.465 0 0 1-4.233-2.85c-1.2-1.2-2.15-2.61-2.85-4.233-.7-1.622-1.05-3.356-1.05-5.2 0-1.845.35-3.578 1.05-5.2.7-1.622 1.65-3.033 2.85-4.233 1.2-1.2 2.61-2.15 4.233-2.85 1.622-.7 3.356-1.05 5.2-1.05 1.845 0 3.578.35 5.2 1.05 1.622.7 3.033 1.65 4.233 2.85 1.2 1.2 2.15 2.61 2.85 4.233.7 1.622 1.05 3.355 1.05 5.2 0 1.844-.35 3.578-1.05 5.2a13.465 13.465 0 0 1-2.85 4.233c-1.2 1.2-2.61 2.15-4.233 2.85-1.622.7-3.355 1.05-5.2 1.05Zm0-2.666c2.978 0 5.5-1.034 7.567-3.1 2.066-2.067 3.1-4.59 3.1-7.567 0-2.978-1.034-5.5-3.1-7.567-2.067-2.066-4.59-3.1-7.567-3.1-2.978 0-5.5 1.034-7.567 3.1-2.066 2.067-3.1 4.59-3.1 7.567 0 2.978 1.034 5.5 3.1 7.567 2.067 2.066 4.59 3.1 7.567 3.1Zm.133-16.4c.556 0 1.04.177 1.45.533.412.355.617.8.617 1.333 0 .49-.15.923-.45 1.3-.3.378-.639.734-1.017 1.067a8.847 8.847 0 0 0-1.35 1.467 2.98 2.98 0 0 0-.583 1.8c0 .31.117.572.35.783.233.211.506.317.817.317.333 0 .616-.111.85-.334.233-.222.383-.5.45-.833.089-.467.289-.883.6-1.25.31-.367.644-.717 1-1.05a8.547 8.547 0 0 0 1.316-1.6c.367-.578.55-1.222.55-1.933 0-1.134-.46-2.061-1.383-2.784C18.428 8.361 17.356 8 16.133 8c-.844 0-1.65.178-2.416.533-.767.356-1.35.9-1.75 1.634-.156.266-.206.55-.15.85.055.3.205.527.45.683.31.178.633.233.966.167.334-.067.611-.256.834-.567.244-.333.55-.589.916-.767.367-.178.75-.266 1.15-.266Z"></path>
        </g>
    </symbol>
    <symbol  xmlns="http://www.w3.org/2000/svg" viewBox="0 0 22 24" id="home">
        <path d="M3 20.833h4v-8h8v8h4v-12l-8-6-8 6v12ZM3 23.5a2.568 2.568 0 0 1-1.883-.783 2.568 2.568 0 0 1-.784-1.884v-12c0-.422.095-.822.284-1.2.188-.377.45-.689.783-.933l8-6c.244-.178.5-.311.767-.4.266-.089.544-.133.833-.133.289 0 .567.044.833.133.267.089.522.222.767.4l8 6c.333.244.594.556.783.933.19.378.284.778.284 1.2v12c0 .734-.262 1.362-.784 1.884A2.568 2.568 0 0 1 19 23.5h-6.667v-8H9.667v8H3Z" ></path>
    </symbol>
    <symbol  xmlns="http://www.w3.org/2000/svg" viewBox="0 0 20 20" id="info">
        <path d="M9 15h2V9H9v6Zm1-8c.283 0 .52-.096.713-.287A.967.967 0 0 0 11 6a.967.967 0 0 0-.287-.713A.968.968 0 0 0 10 5a.968.968 0 0 0-.713.287A.968.968 0 0 0 9 6c0 .283.096.52.287.713.192.191.43.287.713.287Zm0 13a9.738 9.738 0 0 1-3.9-.788 10.099 10.099 0 0 1-3.175-2.137c-.9-.9-1.612-1.958-2.137-3.175A9.738 9.738 0 0 1 0 10c0-1.383.263-2.683.787-3.9a10.099 10.099 0 0 1 2.138-3.175c.9-.9 1.958-1.612 3.175-2.137A9.738 9.738 0 0 1 10 0c1.383 0 2.683.263 3.9.787a10.098 10.098 0 0 1 3.175 2.138c.9.9 1.613 1.958 2.137 3.175A9.738 9.738 0 0 1 20 10a9.738 9.738 0 0 1-.788 3.9 10.098 10.098 0 0 1-2.137 3.175c-.9.9-1.958 1.613-3.175 2.137A9.738 9.738 0 0 1 10 20Z" ></path>
    </symbol>
    <symbol  xmlns="http://www.w3.org/2000/svg" viewBox="0 0 32 32" id="list_alt">
        <mask id="a" maskUnits="userSpaceOnUse" x="0" y="0" width="32" height="32">
            <path  d="M0 0h32v32H0z"></path>
        </mask>
        <g mask="url(#a)">
            <path d="M10.667 22.667c.377 0 .694-.128.95-.384a1.29 1.29 0 0 0 .383-.95 1.29 1.29 0 0 0-.383-.95 1.29 1.29 0 0 0-.95-.383 1.29 1.29 0 0 0-.95.383 1.29 1.29 0 0 0-.384.95c0 .378.128.695.384.95.255.256.572.384.95.384Zm0-5.334c.377 0 .694-.127.95-.383A1.29 1.29 0 0 0 12 16a1.29 1.29 0 0 0-.383-.95 1.29 1.29 0 0 0-.95-.383 1.29 1.29 0 0 0-.95.383 1.29 1.29 0 0 0-.384.95c0 .378.128.694.384.95.255.256.572.383.95.383Zm0-5.333c.377 0 .694-.128.95-.383a1.29 1.29 0 0 0 .383-.95 1.29 1.29 0 0 0-.383-.95 1.29 1.29 0 0 0-.95-.384 1.29 1.29 0 0 0-.95.384 1.29 1.29 0 0 0-.384.95c0 .377.128.694.384.95.255.255.572.383.95.383Zm4 10.667h8V20h-8v2.667Zm0-5.334h8v-2.666h-8v2.666Zm0-5.333h8V9.333h-8V12Zm-8 16a2.568 2.568 0 0 1-1.884-.783A2.568 2.568 0 0 1 4 25.333V6.667c0-.734.261-1.361.783-1.884A2.568 2.568 0 0 1 6.667 4h18.666c.734 0 1.361.261 1.884.783.522.523.783 1.15.783 1.884v18.666c0 .734-.261 1.361-.783 1.884a2.568 2.568 0 0 1-1.884.783H6.667Zm0-2.667h18.666V6.667H6.667v18.666Z"></path>
        </g>
    </symbol>
    <symbol  xmlns="http://www.w3.org/2000/svg" viewBox="0 0 32 32" id="logout">
        <mask id="a" maskUnits="userSpaceOnUse" x="0" y="0" width="32" height="32">
            <path  d="M0 0h32v32H0z"></path>
        </mask>
        <g mask="url(#a)">
            <path d="M20.433 21.7a1.481 1.481 0 0 1-.366-.983c0-.367.122-.673.366-.917l2.467-2.467h-9.567a1.29 1.29 0 0 1-.95-.383A1.29 1.29 0 0 1 12 16c0-.378.128-.694.383-.95a1.29 1.29 0 0 1 .95-.383H22.9L20.433 12.2a1.298 1.298 0 0 1-.4-.95c0-.367.134-.683.4-.95.245-.267.55-.4.917-.4s.672.122.917.367l4.8 4.8c.133.133.227.277.283.433.056.156.083.322.083.5s-.027.344-.083.5c-.056.156-.15.3-.283.433l-4.8 4.8c-.29.29-.606.417-.95.384a1.406 1.406 0 0 1-.884-.417ZM6.667 28a2.568 2.568 0 0 1-1.884-.783A2.568 2.568 0 0 1 4 25.333V6.667c0-.734.261-1.361.783-1.884A2.568 2.568 0 0 1 6.667 4h8c.377 0 .694.128.95.383.255.256.383.573.383.95 0 .378-.128.695-.383.95a1.29 1.29 0 0 1-.95.384h-8v18.666h8c.377 0 .694.128.95.384.255.255.383.572.383.95 0 .377-.128.694-.383.95a1.29 1.29 0 0 1-.95.383h-8Z"></path>
        </g>
    </symbol>
    <symbol  xmlns="http://www.w3.org/2000/svg" viewBox="0 0 24 24" id="repeat">
        <mask id="a" maskUnits="userSpaceOnUse" x="0" y="0" width="24" height="24">
            <path  d="M0 0h24v24H0z"></path>
        </mask>
        <g mask="url(#a)">
            <path d="m7 22-4-4 4-4 1.4 1.45L6.85 17H17v-4h2v6H6.85l1.55 1.55L7 22ZM5 11V5h12.15L15.6 3.45 17 2l4 4-4 4-1.4-1.45L17.15 7H7v4H5Z" ></path>
        </g>
    </symbol>
    <symbol  xmlns="http://www.w3.org/2000/svg" viewBox="0 0 32 32" id="settings">
        <mask id="a" maskUnits="userSpaceOnUse" x="0" y="0" width="32" height="32">
            <path  d="M0 0h32v32H0z"></path>
        </mask>
        <g mask="url(#a)">
            <path d="M18.5 29.333h-5c-.333 0-.622-.11-.867-.333a1.329 1.329 0 0 1-.433-.833l-.4-3.1a5.065 5.065 0 0 1-.817-.4 11.014 11.014 0 0 1-.75-.5l-2.9 1.2a1.492 1.492 0 0 1-.933.033 1.239 1.239 0 0 1-.733-.567l-2.467-4.3a1.253 1.253 0 0 1-.167-.933c.067-.333.234-.6.5-.8l2.5-1.9A3.183 3.183 0 0 1 6 16.45v-.9c0-.144.011-.294.033-.45l-2.5-1.9a1.28 1.28 0 0 1-.5-.8 1.253 1.253 0 0 1 .167-.933l2.467-4.3c.155-.311.394-.506.716-.584a1.63 1.63 0 0 1 .95.05l2.9 1.2c.245-.177.5-.344.767-.5.267-.155.533-.289.8-.4l.4-3.1c.045-.333.189-.61.433-.833.245-.222.534-.333.867-.333h5c.333 0 .622.11.867.333.244.222.389.5.433.833l.4 3.1c.289.111.561.245.817.4.255.156.505.323.75.5l2.9-1.2c.31-.11.622-.122.933-.033.311.089.556.278.733.567l2.467 4.3c.178.289.233.6.167.933a1.28 1.28 0 0 1-.5.8l-2.5 1.9c.022.156.033.306.033.45v.9c0 .144-.022.294-.067.45l2.5 1.9c.267.2.434.467.5.8.067.333.012.644-.166.933L26.3 24.8a1.31 1.31 0 0 1-.75.583c-.322.1-.639.095-.95-.016l-2.833-1.2c-.245.177-.5.344-.767.5a6.713 6.713 0 0 1-.8.4l-.4 3.1a1.328 1.328 0 0 1-.433.833 1.246 1.246 0 0 1-.867.333Zm-2.433-8.666c1.289 0 2.389-.456 3.3-1.367.91-.911 1.366-2.011 1.366-3.3 0-1.289-.455-2.389-1.366-3.3s-2.011-1.367-3.3-1.367c-1.311 0-2.417.456-3.317 1.367-.9.911-1.35 2.011-1.35 3.3 0 1.289.45 2.389 1.35 3.3.9.911 2.006 1.367 3.317 1.367Zm0-2.667a1.929 1.929 0 0 1-1.417-.583A1.93 1.93 0 0 1 14.067 16c0-.556.194-1.028.583-1.417A1.929 1.929 0 0 1 16.067 14c.555 0 1.027.194 1.416.583.39.39.584.861.584 1.417s-.195 1.028-.584 1.417a1.929 1.929 0 0 1-1.416.583Zm-1.4 8.667H17.3l.467-3.534a7.473 7.473 0 0 0 1.916-.783A7.962 7.962 0 0 0 21.3 21.1l3.3 1.367 1.3-2.267-2.867-2.167c.111-.31.19-.639.234-.983a8.186 8.186 0 0 0 0-2.1 4.703 4.703 0 0 0-.234-.983L25.9 11.8l-1.3-2.267-3.3 1.4a7.402 7.402 0 0 0-1.617-1.283 7.474 7.474 0 0 0-1.916-.783l-.434-3.534H14.7l-.467 3.534a7.474 7.474 0 0 0-1.916.783A7.967 7.967 0 0 0 10.7 10.9L7.4 9.533 6.1 11.8l2.867 2.133a5.427 5.427 0 0 0-.234 1A8.08 8.08 0 0 0 8.667 16c0 .356.022.7.066 1.033.045.334.123.667.234 1L6.1 20.2l1.3 2.267 3.3-1.4a7.404 7.404 0 0 0 1.617 1.283 7.473 7.473 0 0 0 1.916.783l.434 3.534Z"></path>
        </g>
    </symbol>
    <symbol xmlns="http://www.w3.org/2000/svg" viewBox="0 0 16 17" id="content_copy">
        <g id="icon/content_copy">
            <mask id="mask0_605_4474" maskUnits="userSpaceOnUse" x="0" y="0" width="16" height="17">
                <rect id="Bounding box" y="0.5" width="16" height="16"></rect>
            </mask>
            <g mask="url(#mask0_605_4474)">
                <path id="content_copy" d="M3.33333 15.1667C2.96667 15.1667 2.65278 15.0361 2.39167 14.775C2.13056 14.5139 2 14.2 2 13.8333V4.49999H3.33333V13.8333H10.6667V15.1667H3.33333ZM6 12.5C5.63333 12.5 5.31944 12.3694 5.05833 12.1083C4.79722 11.8472 4.66667 11.5333 4.66667 11.1667V3.16666C4.66667 2.79999 4.79722 2.48611 5.05833 2.22499C5.31944 1.96388 5.63333 1.83333 6 1.83333H12C12.3667 1.83333 12.6806 1.96388 12.9417 2.22499C13.2028 2.48611 13.3333 2.79999 13.3333 3.16666V11.1667C13.3333 11.5333 13.2028 11.8472 12.9417 12.1083C12.6806 12.3694 12.3667 12.5 12 12.5H6ZM6 11.1667H12V3.16666H6V11.1667Z"></path>
            </g>
        </g>
    </symbol>
    <symbol  xmlns="http://www.w3.org/2000/svg" viewBox="0 0 24 24" id="add_box">
        <g id="icon/add_box">
            <mask id="mask0_21_8316" maskUnits="userSpaceOnUse" x="0" y="0" width="24" height="24">
                <rect id="Bounding box" y="-1.52588e-05" width="24" height="24" ></rect>
            </mask>
            <g mask="url(#mask0_21_8316)">
                <path id="add_box" d="M11 17H13V13H17V11H13V6.99998H11V11H7V13H11V17ZM5 21C4.45 21 3.97917 20.8041 3.5875 20.4125C3.19583 20.0208 3 19.55 3 19V4.99998C3 4.44998 3.19583 3.97915 3.5875 3.58748C3.97917 3.19582 4.45 2.99998 5 2.99998H19C19.55 2.99998 20.0208 3.19582 20.4125 3.58748C20.8042 3.97915 21 4.44998 21 4.99998V19C21 19.55 20.8042 20.0208 20.4125 20.4125C20.0208 20.8041 19.55 21 19 21H5ZM5 19H19V4.99998H5V19Z" ></path>
            </g>
        </g>
    </symbol>
    <symbol xmlns="http://www.w3.org/2000/svg" viewBox="0 0 32 32" id="arrow_down">
        <mask id="mask0_1901_12481" maskUnits="userSpaceOnUse" x="0" y="0" width="32" height="32">
            <rect width="32" height="32" ></rect>
        </mask>
        <g mask="url(#mask0_1901_12481)">
            <path d="M25.5252 13.2009L17.1252 21.6259C17.0252 21.7259 16.9169 21.7967 16.8002 21.8384C16.6835 21.88 16.5585 21.9009 16.4252 21.9009C16.2919 21.9009 16.1669 21.88 16.0502 21.8384C15.9335 21.7967 15.8252 21.7259 15.7252 21.6259L7.3002 13.2009C7.06686 12.9675 6.9502 12.6759 6.9502 12.3259C6.9502 11.9759 7.0752 11.6759 7.3252 11.4259C7.5752 11.1759 7.86686 11.0509 8.2002 11.0509C8.53353 11.0509 8.8252 11.1759 9.0752 11.4259L16.4252 18.7759L23.7752 11.4259C24.0085 11.1925 24.296 11.0759 24.6377 11.0759C24.9794 11.0759 25.2752 11.2009 25.5252 11.4509C25.7752 11.7009 25.9002 11.9925 25.9002 12.3259C25.9002 12.6592 25.7752 12.9509 25.5252 13.2009Z"></path>
        </g>
    </symbol>
    <symbol xmlns="http://www.w3.org/2000/svg" viewBox="0 0 19 19" id="account_balance_wallet">
        <path d="M13 11C13.4333 11 13.7917 10.8583 14.075 10.575C14.3583 10.2917 14.5 9.93333 14.5 9.5C14.5 9.06667 14.3583 8.70833 14.075 8.425C13.7917 8.14167 13.4333 8 13 8C12.5667 8 12.2083 8.14167 11.925 8.425C11.6417 8.70833 11.5 9.06667 11.5 9.5C11.5 9.93333 11.6417 10.2917 11.925 10.575C12.2083 10.8583 12.5667 11 13 11ZM2 18.5C1.45 18.5 0.979167 18.3042 0.5875 17.9125C0.195833 17.5208 0 17.05 0 16.5V2.5C0 1.95 0.195833 1.47917 0.5875 1.0875C0.979167 0.695833 1.45 0.5 2 0.5H16C16.55 0.5 17.0208 0.695833 17.4125 1.0875C17.8042 1.47917 18 1.95 18 2.5V5H16V2.5H2V16.5H16V14H18V16.5C18 17.05 17.8042 17.5208 17.4125 17.9125C17.0208 18.3042 16.55 18.5 16 18.5H2ZM10 14.5C9.45 14.5 8.97917 14.3042 8.5875 13.9125C8.19583 13.5208 8 13.05 8 12.5V6.5C8 5.95 8.19583 5.47917 8.5875 5.0875C8.97917 4.69583 9.45 4.5 10 4.5H17C17.55 4.5 18.0208 4.69583 18.4125 5.0875C18.8042 5.47917 19 5.95 19 6.5V12.5C19 13.05 18.8042 13.5208 18.4125 13.9125C18.0208 14.3042 17.55 14.5 17 14.5H10ZM17 12.5V6.5H10V12.5H17Z"></path>
    </symbol>
    <symbol xmlns="http://www.w3.org/2000/svg" viewBox="0 0 24 24" id="bar_chart">
        <g id="icon/bar_chart_4_bars">
            <mask id="mask0_690_3711" maskUnits="userSpaceOnUse" x="0" y="0" width="24" height="24">
                <rect id="Bounding box" width="24" height="24"></rect>
            </mask>
            <g mask="url(#mask0_690_3711)">
                <path id="bar_chart_4_bars" d="M2 21V19H22V21H2ZM3 18V11H6V18H3ZM8 18V6H11V18H8ZM13 18V9H16V18H13ZM18 18V3H21V18H18Z"></path>
            </g>
        </g>
    </symbol>
    <symbol xmlns="http://www.w3.org/2000/svg" viewBox="0 0 32 32" id="history">
        <g id="icon/history">
            <mask id="mask0_690_3819" maskUnits="userSpaceOnUse" x="0" y="0" width="32" height="32">
                <rect id="Bounding box" width="32" height="32"></rect>
            </mask>
            <g mask="url(#mask0_690_3819)">
                <path id="history" d="M16 28C12.9333 28 10.2611 26.9833 7.98333 24.95C5.70556 22.9167 4.4 20.3778 4.06667 17.3333H6.8C7.11111 19.6444 8.13889 21.5556 9.88333 23.0667C11.6278 24.5778 13.6667 25.3333 16 25.3333C18.6 25.3333 20.8056 24.4278 22.6167 22.6167C24.4278 20.8056 25.3333 18.6 25.3333 16C25.3333 13.4 24.4278 11.1944 22.6167 9.38333C20.8056 7.57222 18.6 6.66667 16 6.66667C14.4667 6.66667 13.0333 7.02222 11.7 7.73333C10.3667 8.44444 9.24444 9.42222 8.33333 10.6667H12V13.3333H4V5.33333H6.66667V8.46667C7.8 7.04444 9.18333 5.94444 10.8167 5.16667C12.45 4.38889 14.1778 4 16 4C17.6667 4 19.2278 4.31667 20.6833 4.95C22.1389 5.58333 23.4056 6.43889 24.4833 7.51667C25.5611 8.59444 26.4167 9.86111 27.05 11.3167C27.6833 12.7722 28 14.3333 28 16C28 17.6667 27.6833 19.2278 27.05 20.6833C26.4167 22.1389 25.5611 23.4056 24.4833 24.4833C23.4056 25.5611 22.1389 26.4167 20.6833 27.05C19.2278 27.6833 17.6667 28 16 28ZM19.7333 21.6L14.6667 16.5333V9.33333H17.3333V15.4667L21.6 19.7333L19.7333 21.6Z"></path>
            </g>
        </g>
    </symbol>
    <symbol xmlns="http://www.w3.org/2000/svg" viewBox="0 0 25 24" id="send_money">
        <g id="icon/send_money">
            <mask id="mask0_21_7241" maskUnits="userSpaceOnUse" x="0" y="0" width="25" height="24">
                <rect id="Bounding box" x="0.5" width="24" height="24"></rect>
            </mask>
            <g mask="url(#mask0_21_7241)">
                <path id="send_money" d="M6.5 19.75C4.76667 19.3 3.33333 18.3667 2.2 16.95C1.06667 15.5333 0.5 13.8833 0.5 12C0.5 10.1167 1.06667 8.46667 2.2 7.05C3.33333 5.63333 4.76667 4.7 6.5 4.25V6.35C5.31667 6.75 4.35417 7.46667 3.6125 8.5C2.87083 9.53333 2.5 10.7 2.5 12C2.5 13.3 2.87083 14.4667 3.6125 15.5C4.35417 16.5333 5.31667 17.25 6.5 17.65V19.75ZM14.5 20C12.2833 20 10.3958 19.2208 8.8375 17.6625C7.27917 16.1042 6.5 14.2167 6.5 12C6.5 9.78333 7.27917 7.89583 8.8375 6.3375C10.3958 4.77917 12.2833 4 14.5 4C15.6 4 16.6333 4.20833 17.6 4.625C18.5667 5.04167 19.4167 5.61667 20.15 6.35L18.75 7.75C18.2 7.2 17.5625 6.77083 16.8375 6.4625C16.1125 6.15417 15.3333 6 14.5 6C12.8333 6 11.4167 6.58333 10.25 7.75C9.08333 8.91667 8.5 10.3333 8.5 12C8.5 13.6667 9.08333 15.0833 10.25 16.25C11.4167 17.4167 12.8333 18 14.5 18C15.3333 18 16.1125 17.8458 16.8375 17.5375C17.5625 17.2292 18.2 16.8 18.75 16.25L20.15 17.65C19.4167 18.3833 18.5667 18.9583 17.6 19.375C16.6333 19.7917 15.6 20 14.5 20ZM20.5 16L19.1 14.6L20.7 13H13.5V11H20.7L19.1 9.4L20.5 8L24.5 12L20.5 16Z"></path>
            </g>
        </g>
    </symbol>
    <symbol  xmlns="http://www.w3.org/2000/svg" viewBox="0 0 25 24" id="key">
        <g id="icon/key">
            <mask id="mask0_21_2769" maskUnits="userSpaceOnUse" x="0" y="0" width="25" height="24">
                <rect id="Bounding box" x="0.5" width="24" height="24" ></rect>
            </mask>
            <g mask="url(#mask0_21_2769)">
                <path id="key" d="M7.5 14C6.95 14 6.47917 13.8042 6.0875 13.4125C5.69583 13.0208 5.5 12.55 5.5 12C5.5 11.45 5.69583 10.9792 6.0875 10.5875C6.47917 10.1958 6.95 10 7.5 10C8.05 10 8.52083 10.1958 8.9125 10.5875C9.30417 10.9792 9.5 11.45 9.5 12C9.5 12.55 9.30417 13.0208 8.9125 13.4125C8.52083 13.8042 8.05 14 7.5 14ZM7.5 18C5.83333 18 4.41667 17.4167 3.25 16.25C2.08333 15.0833 1.5 13.6667 1.5 12C1.5 10.3333 2.08333 8.91667 3.25 7.75C4.41667 6.58333 5.83333 6 7.5 6C8.61667 6 9.62917 6.275 10.5375 6.825C11.4458 7.375 12.1667 8.1 12.7 9H21.5L24.5 12L20 16.5L18 15L16 16.5L13.875 15H12.7C12.1667 15.9 11.4458 16.625 10.5375 17.175C9.62917 17.725 8.61667 18 7.5 18ZM7.5 16C8.43333 16 9.25417 15.7167 9.9625 15.15C10.6708 14.5833 11.1417 13.8667 11.375 13H14.5L15.95 14.025L18 12.5L19.775 13.875L21.65 12L20.65 11H11.375C11.1417 10.1333 10.6708 9.41667 9.9625 8.85C9.25417 8.28333 8.43333 8 7.5 8C6.4 8 5.45833 8.39167 4.675 9.175C3.89167 9.95833 3.5 10.9 3.5 12C3.5 13.1 3.89167 14.0417 4.675 14.825C5.45833 15.6083 6.4 16 7.5 16Z" ></path>
            </g>
        </g>
    </symbol>
    <symbol  xmlns="http://www.w3.org/2000/svg" viewBox="0 0 25 25" id="person">
        <g id="icon/person">
            <mask id="mask0_21_3668" maskUnits="userSpaceOnUse" x="0" y="0" width="25" height="25">
                <rect id="Bounding box" x="0.75" y="0.25" width="24" height="24" ></rect>
            </mask>
            <g mask="url(#mask0_21_3668)">
                <path id="person" d="M12.75 12.25C11.65 12.25 10.7083 11.8583 9.925 11.075C9.14167 10.2917 8.75 9.35 8.75 8.25C8.75 7.15 9.14167 6.20833 9.925 5.425C10.7083 4.64167 11.65 4.25 12.75 4.25C13.85 4.25 14.7917 4.64167 15.575 5.425C16.3583 6.20833 16.75 7.15 16.75 8.25C16.75 9.35 16.3583 10.2917 15.575 11.075C14.7917 11.8583 13.85 12.25 12.75 12.25ZM4.75 20.25V17.45C4.75 16.8833 4.89583 16.3625 5.1875 15.8875C5.47917 15.4125 5.86667 15.05 6.35 14.8C7.38333 14.2833 8.43333 13.8958 9.5 13.6375C10.5667 13.3792 11.65 13.25 12.75 13.25C13.85 13.25 14.9333 13.3792 16 13.6375C17.0667 13.8958 18.1167 14.2833 19.15 14.8C19.6333 15.05 20.0208 15.4125 20.3125 15.8875C20.6042 16.3625 20.75 16.8833 20.75 17.45V20.25H4.75Z" ></path>
            </g>
        </g>
    </symbol>
    <symbol  xmlns="http://www.w3.org/2000/svg" viewBox="0 0 25 25" id="stadia_controller">
        <g id="icon/stadia_controller">
            <mask id="mask0_21_760" maskUnits="userSpaceOnUse" x="0" y="0" width="25" height="25">
                <rect id="Bounding box" x="0.25" y="0.75" width="24" height="24" ></rect>
            </mask>
            <g mask="url(#mask0_21_760)">
                <path id="stadia_controller" d="M4.97481 20.75C3.9748 20.75 3.12064 20.3917 2.4123 19.675C1.70397 18.9583 1.33314 18.0917 1.2998 17.075C1.2998 16.925 1.30814 16.775 1.3248 16.625C1.34147 16.475 1.36647 16.325 1.3998 16.175L3.4998 7.775C3.73314 6.875 4.20814 6.14583 4.9248 5.5875C5.64147 5.02917 6.45814 4.75 7.37481 4.75H17.1248C18.0415 4.75 18.8581 5.02917 19.5748 5.5875C20.2915 6.14583 20.7665 6.875 20.9998 7.775L23.0998 16.175C23.1331 16.325 23.1623 16.4792 23.1873 16.6375C23.2123 16.7958 23.2248 16.95 23.2248 17.1C23.2248 18.1167 22.8623 18.9792 22.1373 19.6875C21.4123 20.3958 20.5415 20.75 19.5248 20.75C18.8248 20.75 18.1748 20.5667 17.5748 20.2C16.9748 19.8333 16.5248 19.3333 16.2248 18.7L15.5248 17.25C15.4415 17.0833 15.3165 16.9583 15.1498 16.875C14.9831 16.7917 14.8081 16.75 14.6248 16.75H9.87481C9.69147 16.75 9.51647 16.7917 9.34981 16.875C9.18314 16.9583 9.05814 17.0833 8.97481 17.25L8.27481 18.7C7.97481 19.3333 7.52481 19.8333 6.92481 20.2C6.32481 20.5667 5.67481 20.75 4.97481 20.75ZM5.0498 18.75C5.36647 18.75 5.65397 18.6667 5.9123 18.5C6.17064 18.3333 6.36647 18.1083 6.4998 17.825L7.19981 16.4C7.44981 15.8833 7.81647 15.4792 8.29981 15.1875C8.78314 14.8958 9.30814 14.75 9.87481 14.75H14.6248C15.1915 14.75 15.7165 14.9 16.1998 15.2C16.6831 15.5 17.0581 15.9 17.3248 16.4L18.0248 17.825C18.1581 18.1083 18.354 18.3333 18.6123 18.5C18.8706 18.6667 19.1581 18.75 19.4748 18.75C19.9415 18.75 20.3415 18.5958 20.6748 18.2875C21.0081 17.9792 21.1831 17.5917 21.1998 17.125C21.1998 17.1417 21.1831 16.9833 21.1498 16.65L19.0498 8.275C18.9331 7.825 18.6998 7.45833 18.3498 7.175C17.9998 6.89167 17.5915 6.75 17.1248 6.75H7.37481C6.90814 6.75 6.49564 6.89167 6.13731 7.175C5.77897 7.45833 5.54981 7.825 5.44981 8.275L3.3498 16.65C3.31647 16.75 3.2998 16.9 3.2998 17.1C3.2998 17.5667 3.47064 17.9583 3.8123 18.275C4.15397 18.5917 4.56647 18.75 5.0498 18.75ZM13.7498 11.75C14.0331 11.75 14.2706 11.6542 14.4623 11.4625C14.654 11.2708 14.7498 11.0333 14.7498 10.75C14.7498 10.4667 14.654 10.2292 14.4623 10.0375C14.2706 9.84583 14.0331 9.75 13.7498 9.75C13.4665 9.75 13.229 9.84583 13.0373 10.0375C12.8456 10.2292 12.7498 10.4667 12.7498 10.75C12.7498 11.0333 12.8456 11.2708 13.0373 11.4625C13.229 11.6542 13.4665 11.75 13.7498 11.75ZM15.7498 9.75C16.0331 9.75 16.2706 9.65417 16.4623 9.4625C16.654 9.27083 16.7498 9.03333 16.7498 8.75C16.7498 8.46667 16.654 8.22917 16.4623 8.0375C16.2706 7.84583 16.0331 7.75 15.7498 7.75C15.4665 7.75 15.229 7.84583 15.0373 8.0375C14.8456 8.22917 14.7498 8.46667 14.7498 8.75C14.7498 9.03333 14.8456 9.27083 15.0373 9.4625C15.229 9.65417 15.4665 9.75 15.7498 9.75ZM15.7498 13.75C16.0331 13.75 16.2706 13.6542 16.4623 13.4625C16.654 13.2708 16.7498 13.0333 16.7498 12.75C16.7498 12.4667 16.654 12.2292 16.4623 12.0375C16.2706 11.8458 16.0331 11.75 15.7498 11.75C15.4665 11.75 15.229 11.8458 15.0373 12.0375C14.8456 12.2292 14.7498 12.4667 14.7498 12.75C14.7498 13.0333 14.8456 13.2708 15.0373 13.4625C15.229 13.6542 15.4665 13.75 15.7498 13.75ZM17.7498 11.75C18.0331 11.75 18.2706 11.6542 18.4623 11.4625C18.654 11.2708 18.7498 11.0333 18.7498 10.75C18.7498 10.4667 18.654 10.2292 18.4623 10.0375C18.2706 9.84583 18.0331 9.75 17.7498 9.75C17.4665 9.75 17.229 9.84583 17.0373 10.0375C16.8456 10.2292 16.7498 10.4667 16.7498 10.75C16.7498 11.0333 16.8456 11.2708 17.0373 11.4625C17.229 11.6542 17.4665 11.75 17.7498 11.75ZM8.74981 13.25C8.96647 13.25 9.14564 13.1792 9.28731 13.0375C9.42897 12.8958 9.49981 12.7167 9.49981 12.5V11.5H10.4998C10.7165 11.5 10.8956 11.4292 11.0373 11.2875C11.179 11.1458 11.2498 10.9667 11.2498 10.75C11.2498 10.5333 11.179 10.3542 11.0373 10.2125C10.8956 10.0708 10.7165 10 10.4998 10H9.49981V9C9.49981 8.78333 9.42897 8.60417 9.28731 8.4625C9.14564 8.32083 8.96647 8.25 8.74981 8.25C8.53314 8.25 8.35397 8.32083 8.21231 8.4625C8.07064 8.60417 7.99981 8.78333 7.99981 9V10H6.9998C6.78314 10 6.60397 10.0708 6.46231 10.2125C6.32064 10.3542 6.2498 10.5333 6.2498 10.75C6.2498 10.9667 6.32064 11.1458 6.46231 11.2875C6.60397 11.4292 6.78314 11.5 6.9998 11.5H7.99981V12.5C7.99981 12.7167 8.07064 12.8958 8.21231 13.0375C8.35397 13.1792 8.53314 13.25 8.74981 13.25Z" ></path>
            </g>
        </g>
    </symbol>
    <symbol xmlns="http://www.w3.org/2000/svg" viewBox="0 0 25 25" id="chat_bubble">
        <g id="icon/chat_bubble">
            <mask id="mask0_21_2649" maskUnits="userSpaceOnUse" x="0" y="0" width="25" height="25">
                <rect id="Bounding box" x="0.25" y="0.25" width="24" height="24" ></rect>
            </mask>
            <g mask="url(#mask0_21_2649)">
                <path id="chat_bubble" d="M6.25 18.25L3.95 20.55C3.63333 20.8667 3.27083 20.9375 2.8625 20.7625C2.45417 20.5875 2.25 20.275 2.25 19.825V4.25C2.25 3.7 2.44583 3.22917 2.8375 2.8375C3.22917 2.44583 3.7 2.25 4.25 2.25H20.25C20.8 2.25 21.2708 2.44583 21.6625 2.8375C22.0542 3.22917 22.25 3.7 22.25 4.25V16.25C22.25 16.8 22.0542 17.2708 21.6625 17.6625C21.2708 18.0542 20.8 18.25 20.25 18.25H6.25Z" ></path>
            </g>
        </g>
    </symbol>
    <symbol  xmlns="http://www.w3.org/2000/svg" viewBox="0 0 24 24" id="chat_bubble_empty">
        <g id="icon/chat_bubble_28px">
            <mask id="mask0_6_6750" maskUnits="userSpaceOnUse" x="0" y="0" width="24" height="24">
                <rect id="Bounding box" width="24" height="24" ></rect>
            </mask>
            <g mask="url(#mask0_6_6750)">
                <path id="chat_bubble" d="M6 18L3.7 20.3C3.38333 20.6167 3.02083 20.6875 2.6125 20.5125C2.20417 20.3375 2 20.025 2 19.575V4C2 3.45 2.19583 2.97917 2.5875 2.5875C2.97917 2.19583 3.45 2 4 2H20C20.55 2 21.0208 2.19583 21.4125 2.5875C21.8042 2.97917 22 3.45 22 4V16C22 16.55 21.8042 17.0208 21.4125 17.4125C21.0208 17.8042 20.55 18 20 18H6ZM4 16H20V4H4V16Z"></path>
            </g>
        </g>
    </symbol>
    <symbol xmlns="http://www.w3.org/2000/svg" viewBox="0 0 28 22" id="mail">
        <path d="M3.33366 21.6667C2.60033 21.6667 1.97255 21.4056 1.45033 20.8834C0.928103 20.3612 0.666992 19.7334 0.666992 19V3.00004C0.666992 2.26671 0.928103 1.63893 1.45033 1.11671C1.97255 0.594485 2.60033 0.333374 3.33366 0.333374H24.667C25.4003 0.333374 26.0281 0.594485 26.5503 1.11671C27.0725 1.63893 27.3337 2.26671 27.3337 3.00004V19C27.3337 19.7334 27.0725 20.3612 26.5503 20.8834C26.0281 21.4056 25.4003 21.6667 24.667 21.6667H3.33366ZM14.0003 12.3334L24.667 5.66671V3.00004L14.0003 9.66671L3.33366 3.00004V5.66671L14.0003 12.3334Z" ></path>
    </symbol>
    <symbol xmlns="http://www.w3.org/2000/svg" viewBox="0 0 49 49" id="add_photo_alternate">
        <g id="icon/add_photo_alternate">
            <mask id="mask0_704_4918" maskUnits="userSpaceOnUse" x="0" y="0" width="49" height="49">
                <rect id="Bounding box" x="0.5" y="0.5" width="48" height="48"></rect>
            </mask>
            <g mask="url(#mask0_704_4918)">
                <path id="add_photo_alternate" d="M10.5 42.5C9.4 42.5 8.45833 42.1083 7.675 41.325C6.89167 40.5417 6.5 39.6 6.5 38.5V10.5C6.5 9.4 6.89167 8.45833 7.675 7.675C8.45833 6.89167 9.4 6.5 10.5 6.5H28.5V10.5H10.5V38.5H38.5V20.5H42.5V38.5C42.5 39.6 42.1083 40.5417 41.325 41.325C40.5417 42.1083 39.6 42.5 38.5 42.5H10.5ZM34.5 18.5V14.5H30.5V10.5H34.5V6.5H38.5V10.5H42.5V14.5H38.5V18.5H34.5ZM12.5 34.5H36.5L29 24.5L23 32.5L18.5 26.5L12.5 34.5Z" ></path>
            </g>
        </g>
    </symbol>
    <symbol xmlns="http://www.w3.org/2000/svg" viewBox="0 0 25 25" id="calendar_today">
        <g id="icon/calendar_today">
            <mask id="mask0_696_4926" maskUnits="userSpaceOnUse" x="0" y="0" width="25" height="25">
                <rect id="Bounding box" x="0.5" y="0.5" width="24" height="24"></rect>
            </mask>
            <g mask="url(#mask0_696_4926)">
                <path id="calendar_today" d="M5.5 22.5C4.95 22.5 4.47917 22.3042 4.0875 21.9125C3.69583 21.5208 3.5 21.05 3.5 20.5V6.5C3.5 5.95 3.69583 5.47917 4.0875 5.0875C4.47917 4.69583 4.95 4.5 5.5 4.5H6.5V2.5H8.5V4.5H16.5V2.5H18.5V4.5H19.5C20.05 4.5 20.5208 4.69583 20.9125 5.0875C21.3042 5.47917 21.5 5.95 21.5 6.5V20.5C21.5 21.05 21.3042 21.5208 20.9125 21.9125C20.5208 22.3042 20.05 22.5 19.5 22.5H5.5ZM5.5 20.5H19.5V10.5H5.5V20.5ZM5.5 8.5H19.5V6.5H5.5V8.5Z" ></path>
            </g>
        </g>
    </symbol>
    <symbol xmlns="http://www.w3.org/2000/svg" viewBox="0 0 24 24" id="telegram">
        <g id="logo_icon/Telegram_32_icononly" clip-path="url(#clip0_21_739)">
            <g id="Vector">
                <path fill-rule="evenodd" clip-rule="evenodd" d="M0.324769 9.97085C7.45083 6.86615 12.2027 4.81933 14.5803 3.83041C21.3687 1.00685 22.7793 0.516369 23.6987 0.500173C23.9009 0.496611 24.3531 0.546726 24.646 0.784373C24.8933 0.985037 24.9613 1.25611 24.9939 1.44636C25.0264 1.63661 25.067 2.07001 25.0347 2.40866C24.6669 6.2739 23.0751 15.6538 22.2653 19.983C21.9226 21.8148 21.2479 22.429 20.5947 22.4891C19.1752 22.6197 18.0973 21.551 16.7224 20.6497C14.5709 19.2394 13.3555 18.3615 11.2672 16.9853C8.85375 15.3949 10.4183 14.5208 11.7937 13.0922C12.1536 12.7184 18.4081 7.02943 18.5292 6.51335C18.5443 6.44881 18.5584 6.20822 18.4155 6.08118C18.2725 5.95414 18.0616 5.99758 17.9094 6.03213C17.6936 6.0811 14.2566 8.35279 7.59853 12.8472C6.62296 13.5171 5.73933 13.8435 4.94762 13.8264C4.07483 13.8075 2.39592 13.3329 1.14783 12.9272C-0.383013 12.4296 -1.59969 12.1665 -1.49374 11.3214C-1.43856 10.8812 -0.832393 10.431 0.324769 9.97085Z"></path>
            </g>
        </g>
        <defs>
            <clipPath id="clip0_21_739">
                <rect width="24" height="24" ></rect>
            </clipPath>
        </defs>
    </symbol>
    <symbol xmlns="http://www.w3.org/2000/svg" viewBox="0 0 24 24" id="payments">
        <g id="icon/payments">
            <mask id="mask0_21_2176" maskUnits="userSpaceOnUse" x="0" y="0" width="24" height="24">
                <rect id="Bounding box" width="24" height="24"></rect>
            </mask>
            <g mask="url(#mask0_21_2176)">
                <path id="payments" d="M14 13C13.1667 13 12.4583 12.7083 11.875 12.125C11.2917 11.5417 11 10.8333 11 10C11 9.16667 11.2917 8.45833 11.875 7.875C12.4583 7.29167 13.1667 7 14 7C14.8333 7 15.5417 7.29167 16.125 7.875C16.7083 8.45833 17 9.16667 17 10C17 10.8333 16.7083 11.5417 16.125 12.125C15.5417 12.7083 14.8333 13 14 13ZM7 16C6.45 16 5.97917 15.8042 5.5875 15.4125C5.19583 15.0208 5 14.55 5 14V6C5 5.45 5.19583 4.97917 5.5875 4.5875C5.97917 4.19583 6.45 4 7 4H21C21.55 4 22.0208 4.19583 22.4125 4.5875C22.8042 4.97917 23 5.45 23 6V14C23 14.55 22.8042 15.0208 22.4125 15.4125C22.0208 15.8042 21.55 16 21 16H7ZM9 14H19C19 13.45 19.1958 12.9792 19.5875 12.5875C19.9792 12.1958 20.45 12 21 12V8C20.45 8 19.9792 7.80417 19.5875 7.4125C19.1958 7.02083 19 6.55 19 6H9C9 6.55 8.80417 7.02083 8.4125 7.4125C8.02083 7.80417 7.55 8 7 8V12C7.55 12 8.02083 12.1958 8.4125 12.5875C8.80417 12.9792 9 13.45 9 14ZM20 20H3C2.45 20 1.97917 19.8042 1.5875 19.4125C1.19583 19.0208 1 18.55 1 18V7H3V18H20V20Z"></path>
            </g>
        </g>
    </symbol>

    <symbol  xmlns="http://www.w3.org/2000/svg" viewBox="0 0 25 24" id="google">
        <g id="Frame 184">
            <g id="Group 3">
                <path id="Shape" fill-rule="evenodd" clip-rule="evenodd" d="M23.77 12.2729C23.77 11.422 23.6936 10.6038 23.5518 9.81836H12.25V14.4602H18.7082C18.43 15.9602 17.5845 17.2311 16.3136 18.082V21.0929H20.1918C22.4609 19.0038 23.77 15.9274 23.77 12.2729Z" fill="#4285F4"></path>
                <path id="Shape_2" fill-rule="evenodd" clip-rule="evenodd" d="M12.25 23.9998C15.49 23.9998 18.2064 22.9252 20.1918 21.0925L16.3136 18.0816C15.2391 18.8016 13.8645 19.2271 12.25 19.2271C9.12455 19.2271 6.47909 17.1161 5.53546 14.2798H1.52637V17.3889C3.50091 21.3107 7.55909 23.9998 12.25 23.9998Z" fill="#34A853"></path>
                <path id="Shape_3" fill-rule="evenodd" clip-rule="evenodd" d="M5.53545 14.2797C5.29545 13.5597 5.15909 12.7906 5.15909 11.9997C5.15909 11.2088 5.29545 10.4397 5.53545 9.71969V6.6106H1.52636C0.713636 8.2306 0.25 10.0633 0.25 11.9997C0.25 13.9361 0.713636 15.7688 1.52636 17.3888L5.53545 14.2797Z" fill="#FBBC05"></path>
                <path id="Shape_4" fill-rule="evenodd" clip-rule="evenodd" d="M12.25 4.77273C14.0118 4.77273 15.5936 5.37818 16.8373 6.56727L20.2791 3.12545C18.2009 1.18909 15.4845 0 12.25 0C7.55909 0 3.50091 2.68909 1.52637 6.61091L5.53546 9.72C6.47909 6.88364 9.12455 4.77273 12.25 4.77273Z" fill="#EA4335"></path>
            </g>
        </g>
    </symbol>
    <symbol  xmlns="http://www.w3.org/2000/svg" viewBox="0 0 25 24" id="steam">
        <g clip-path="url(#clip0_296_4209)">
            <path d="M1.41682 15.3976C2.87676 20.2656 7.39208 23.8153 12.7352 23.8153C19.2606 23.8153 24.5506 18.5254 24.5506 12C24.5506 5.47454 19.2606 0.18457 12.7352 0.18457C6.4738 0.18457 1.34999 5.05583 0.945312 11.215C1.7111 12.4988 2.00833 13.293 1.41608 15.3976H1.41682Z" fill="url(#paint0_linear_296_4209)"></path>
            <path d="M12.1259 9.04055L12.127 9.09889L9.23594 13.2989C8.76776 13.2775 8.29809 13.3598 7.85206 13.5433C7.6579 13.6222 7.47252 13.7212 7.29896 13.8387L0.950032 11.222C0.950032 11.222 0.803078 13.6389 1.41526 15.4401L5.90363 17.2921C6.12517 18.2994 6.81932 19.1826 7.83914 19.6072C8.64146 19.9406 9.54329 19.9419 10.3466 19.6108C11.1498 19.2797 11.7889 18.6434 12.1233 17.8415C12.3018 17.4144 12.3878 16.9544 12.3759 16.4916L16.5087 13.5359L16.6102 13.5378C19.0859 13.5378 21.0982 11.5196 21.0982 9.04055C21.0982 6.56153 19.0896 4.5507 16.6102 4.54553C14.1356 4.54553 12.1222 6.56153 12.1222 9.04055H12.1259ZM11.4318 17.5513C10.8949 18.8436 9.41354 19.4517 8.12603 18.9153C7.55469 18.6751 7.09159 18.2333 6.82486 17.6739L8.28591 18.2794C8.51161 18.3734 8.75361 18.4219 8.99809 18.4223C9.24257 18.4227 9.48472 18.3749 9.71072 18.2817C9.93672 18.1885 10.1421 18.0516 10.3152 17.879C10.4883 17.7063 10.6257 17.5013 10.7195 17.2755C10.9095 16.8193 10.9106 16.3064 10.7226 15.8494C10.5347 15.3924 10.173 15.0287 9.71705 14.8382L8.2032 14.2124C8.78585 13.9908 9.44825 13.9834 10.0678 14.2408C10.6955 14.5004 11.1755 14.9892 11.4325 15.6143C11.6895 16.2394 11.688 16.9288 11.4288 17.5513M16.6143 12.0369C15.821 12.0347 15.0609 11.7182 14.5004 11.1568C13.94 10.5953 13.6249 9.83459 13.6242 9.04129C13.6251 8.24811 13.9403 7.4876 14.5007 6.92628C15.0611 6.36497 15.8211 6.0486 16.6143 6.04646C17.4076 6.04841 18.1678 6.36469 18.7283 6.92602C19.2889 7.48736 19.6042 8.24798 19.605 9.04129C19.6044 9.83472 19.2892 10.5955 18.7286 11.157C18.168 11.7185 17.4077 12.0349 16.6143 12.0369ZM14.3738 9.03649C14.3733 8.44044 14.6095 7.86858 15.0304 7.44659C15.4514 7.0246 16.0227 6.787 16.6187 6.78602C17.8575 6.78602 18.8651 7.79402 18.8651 9.03649C18.8654 9.63266 18.6289 10.2046 18.2077 10.6264C17.7864 11.0483 17.2149 11.2856 16.6187 11.2862C16.0227 11.2853 15.4515 11.0479 15.0305 10.626C14.6094 10.2042 14.3735 9.63247 14.3738 9.03649Z" ></path>
        </g>
        <defs>
            <linearGradient id="paint0_linear_296_4209" x1="1181.21" y1="0.18457" x2="1181.21" y2="2363.26" gradientUnits="userSpaceOnUse">
                <stop stop-color="#111D2E"></stop>
                <stop offset="0.212" stop-color="#051839"></stop>
                <stop offset="0.407" stop-color="#0A1B48"></stop>
                <stop offset="0.581" stop-color="#132E62"></stop>
                <stop offset="0.738" stop-color="#144B7E"></stop>
                <stop offset="0.873" stop-color="#136497"></stop>
                <stop offset="1" stop-color="#1387B8"></stop>
            </linearGradient>
            <clipPath id="clip0_296_4209">
                <rect width="24" height="24"  transform="translate(0.75)"></rect>
            </clipPath>
        </defs>
    </symbol>
    <symbol  xmlns="http://www.w3.org/2000/svg" viewBox="0 0 24 24" id="payments">
        <g id="icon/payments">
            <mask id="mask0_608_4564" maskUnits="userSpaceOnUse" x="0" y="0" width="24" height="24">
                <rect id="Bounding box" width="24" height="24" ></rect>
            </mask>
            <g mask="url(#mask0_608_4564)">
                <path id="payments" d="M14 13C13.1667 13 12.4583 12.7083 11.875 12.125C11.2917 11.5417 11 10.8333 11 10C11 9.16667 11.2917 8.45833 11.875 7.875C12.4583 7.29167 13.1667 7 14 7C14.8333 7 15.5417 7.29167 16.125 7.875C16.7083 8.45833 17 9.16667 17 10C17 10.8333 16.7083 11.5417 16.125 12.125C15.5417 12.7083 14.8333 13 14 13ZM7 16C6.45 16 5.97917 15.8042 5.5875 15.4125C5.19583 15.0208 5 14.55 5 14V6C5 5.45 5.19583 4.97917 5.5875 4.5875C5.97917 4.19583 6.45 4 7 4H21C21.55 4 22.0208 4.19583 22.4125 4.5875C22.8042 4.97917 23 5.45 23 6V14C23 14.55 22.8042 15.0208 22.4125 15.4125C22.0208 15.8042 21.55 16 21 16H7ZM9 14H19C19 13.45 19.1958 12.9792 19.5875 12.5875C19.9792 12.1958 20.45 12 21 12V8C20.45 8 19.9792 7.80417 19.5875 7.4125C19.1958 7.02083 19 6.55 19 6H9C9 6.55 8.80417 7.02083 8.4125 7.4125C8.02083 7.80417 7.55 8 7 8V12C7.55 12 8.02083 12.1958 8.4125 12.5875C8.80417 12.9792 9 13.45 9 14ZM20 20H3C2.45 20 1.97917 19.8042 1.5875 19.4125C1.19583 19.0208 1 18.55 1 18V7H3V18H20V20Z" ></path>
            </g>
        </g>
    </symbol>
    <symbol xmlns="http://www.w3.org/2000/svg" viewBox="0 0 24 24" id="percent">
        <g id="percent">
            <mask id="mask0_608_4273" maskUnits="userSpaceOnUse" x="0" y="0" width="24" height="24">
                <rect id="Bounding box" width="24" height="24"></rect>
            </mask>
            <g mask="url(#mask0_608_4273)">
                <path id="percent_2" d="M7.5 11C6.53333 11 5.70833 10.6583 5.025 9.975C4.34167 9.29167 4 8.46667 4 7.5C4 6.53333 4.34167 5.70833 5.025 5.025C5.70833 4.34167 6.53333 4 7.5 4C8.46667 4 9.29167 4.34167 9.975 5.025C10.6583 5.70833 11 6.53333 11 7.5C11 8.46667 10.6583 9.29167 9.975 9.975C9.29167 10.6583 8.46667 11 7.5 11ZM7.5 9C7.91667 9 8.27083 8.85417 8.5625 8.5625C8.85417 8.27083 9 7.91667 9 7.5C9 7.08333 8.85417 6.72917 8.5625 6.4375C8.27083 6.14583 7.91667 6 7.5 6C7.08333 6 6.72917 6.14583 6.4375 6.4375C6.14583 6.72917 6 7.08333 6 7.5C6 7.91667 6.14583 8.27083 6.4375 8.5625C6.72917 8.85417 7.08333 9 7.5 9ZM16.5 20C15.5333 20 14.7083 19.6583 14.025 18.975C13.3417 18.2917 13 17.4667 13 16.5C13 15.5333 13.3417 14.7083 14.025 14.025C14.7083 13.3417 15.5333 13 16.5 13C17.4667 13 18.2917 13.3417 18.975 14.025C19.6583 14.7083 20 15.5333 20 16.5C20 17.4667 19.6583 18.2917 18.975 18.975C18.2917 19.6583 17.4667 20 16.5 20ZM16.5 18C16.9167 18 17.2708 17.8542 17.5625 17.5625C17.8542 17.2708 18 16.9167 18 16.5C18 16.0833 17.8542 15.7292 17.5625 15.4375C17.2708 15.1458 16.9167 15 16.5 15C16.0833 15 15.7292 15.1458 15.4375 15.4375C15.1458 15.7292 15 16.0833 15 16.5C15 16.9167 15.1458 17.2708 15.4375 17.5625C15.7292 17.8542 16.0833 18 16.5 18ZM5.4 20L4 18.6L18.6 4L20 5.4L5.4 20Z" ></path>
            </g>
        </g>
    </symbol>
    <symbol xmlns="http://www.w3.org/2000/svg" viewBox="0 0 24 25" id="arrow_forward">
        <g id="icon/arrow_forward">
            <mask id="mask0_16_231" maskUnits="userSpaceOnUse" x="0" y="0" width="24" height="25">
                <rect id="Bounding box" y="0.5" width="24" height="24"></rect>
            </mask>
            <g mask="url(#mask0_16_231)">
                <path id="arrow_forward" d="M11.3 19.8C11.1167 19.6167 11.0208 19.3833 11.0125 19.1C11.0042 18.8167 11.0917 18.5833 11.275 18.4L16.175 13.5H5C4.71667 13.5 4.47917 13.4042 4.2875 13.2125C4.09583 13.0208 4 12.7833 4 12.5C4 12.2167 4.09583 11.9792 4.2875 11.7875C4.47917 11.5958 4.71667 11.5 5 11.5H16.175L11.275 6.6C11.0917 6.41667 11.0042 6.18333 11.0125 5.9C11.0208 5.61667 11.1167 5.38333 11.3 5.2C11.4833 5.01667 11.7167 4.925 12 4.925C12.2833 4.925 12.5167 5.01667 12.7 5.2L19.3 11.8C19.4 11.8833 19.4708 11.9875 19.5125 12.1125C19.5542 12.2375 19.575 12.3667 19.575 12.5C19.575 12.6333 19.5542 12.7583 19.5125 12.875C19.4708 12.9917 19.4 13.1 19.3 13.2L12.7 19.8C12.5167 19.9833 12.2833 20.075 12 20.075C11.7167 20.075 11.4833 19.9833 11.3 19.8Z"></path>
            </g>
        </g>
    </symbol>
    <symbol  xmlns="http://www.w3.org/2000/svg" viewBox="0 0 25 24" id="add_circle">
        <g id="icon/add_circle">
            <mask id="mask0_122_2139" maskUnits="userSpaceOnUse" x="0" y="0" width="25" height="24">
                <rect id="Bounding box" x="0.666016" width="24" height="24" ></rect>
            </mask>
            <g mask="url(#mask0_122_2139)">
                <path id="add_circle" d="M11.666 17H13.666V13H17.666V11H13.666V7H11.666V11H7.66602V13H11.666V17ZM12.666 22C11.2827 22 9.98268 21.7375 8.76602 21.2125C7.54935 20.6875 6.49102 19.975 5.59102 19.075C4.69102 18.175 3.97852 17.1167 3.45352 15.9C2.92852 14.6833 2.66602 13.3833 2.66602 12C2.66602 10.6167 2.92852 9.31667 3.45352 8.1C3.97852 6.88333 4.69102 5.825 5.59102 4.925C6.49102 4.025 7.54935 3.3125 8.76602 2.7875C9.98268 2.2625 11.2827 2 12.666 2C14.0493 2 15.3493 2.2625 16.566 2.7875C17.7827 3.3125 18.841 4.025 19.741 4.925C20.641 5.825 21.3535 6.88333 21.8785 8.1C22.4035 9.31667 22.666 10.6167 22.666 12C22.666 13.3833 22.4035 14.6833 21.8785 15.9C21.3535 17.1167 20.641 18.175 19.741 19.075C18.841 19.975 17.7827 20.6875 16.566 21.2125C15.3493 21.7375 14.0493 22 12.666 22ZM12.666 20C14.8993 20 16.791 19.225 18.341 17.675C19.891 16.125 20.666 14.2333 20.666 12C20.666 9.76667 19.891 7.875 18.341 6.325C16.791 4.775 14.8993 4 12.666 4C10.4327 4 8.54102 4.775 6.99102 6.325C5.44102 7.875 4.66602 9.76667 4.66602 12C4.66602 14.2333 5.44102 16.125 6.99102 17.675C8.54102 19.225 10.4327 20 12.666 20Z" ></path>
            </g>
        </g>
    </symbol>
    <symbol  xmlns="http://www.w3.org/2000/svg" viewBox="0 0 25 24" id="notifications">
        <g id="icon/notifications">
            <mask id="mask0_122_3460" maskUnits="userSpaceOnUse" x="0" y="0" width="25" height="24">
                <rect id="Bounding box" x="0.333008" width="24" height="24" ></rect>
            </mask>
            <g mask="url(#mask0_122_3460)">
                <path id="notifications" d="M5.33301 19C5.04967 19 4.81217 18.9042 4.62051 18.7125C4.42884 18.5208 4.33301 18.2833 4.33301 18C4.33301 17.7167 4.42884 17.4792 4.62051 17.2875C4.81217 17.0958 5.04967 17 5.33301 17H6.33301V10C6.33301 8.61667 6.74967 7.3875 7.58301 6.3125C8.41634 5.2375 9.49967 4.53333 10.833 4.2V3.5C10.833 3.08333 10.9788 2.72917 11.2705 2.4375C11.5622 2.14583 11.9163 2 12.333 2C12.7497 2 13.1038 2.14583 13.3955 2.4375C13.6872 2.72917 13.833 3.08333 13.833 3.5V4.2C15.1663 4.53333 16.2497 5.2375 17.083 6.3125C17.9163 7.3875 18.333 8.61667 18.333 10V17H19.333C19.6163 17 19.8538 17.0958 20.0455 17.2875C20.2372 17.4792 20.333 17.7167 20.333 18C20.333 18.2833 20.2372 18.5208 20.0455 18.7125C19.8538 18.9042 19.6163 19 19.333 19H5.33301ZM12.333 22C11.783 22 11.3122 21.8042 10.9205 21.4125C10.5288 21.0208 10.333 20.55 10.333 20H14.333C14.333 20.55 14.1372 21.0208 13.7455 21.4125C13.3538 21.8042 12.883 22 12.333 22ZM8.33301 17H16.333V10C16.333 8.9 15.9413 7.95833 15.158 7.175C14.3747 6.39167 13.433 6 12.333 6C11.233 6 10.2913 6.39167 9.50801 7.175C8.72467 7.95833 8.33301 8.9 8.33301 10V17Z" ></path>
            </g>
        </g>
    </symbol>
    <symbol  xmlns="http://www.w3.org/2000/svg" viewBox="0 0 24 24" id="rate_review">
        <g id="icon/rate_review">
            <mask id="mask0_1_6639" maskUnits="userSpaceOnUse" x="0" y="0" width="24" height="24">
                <rect id="Bounding box" width="24" height="24" ></rect>
            </mask>
            <g mask="url(#mask0_1_6639)">
                <path id="rate_review" d="M6 14H8.45L14.35 8.15C14.45 8.05 14.5 7.925 14.5 7.775C14.5 7.625 14.45 7.5 14.35 7.4L12.6 5.65C12.5 5.55 12.375 5.5 12.225 5.5C12.075 5.5 11.95 5.55 11.85 5.65L6 11.55V14ZM10.5 14H18V12H12.5L10.5 14ZM2 22V4C2 3.45 2.19583 2.97917 2.5875 2.5875C2.97917 2.19583 3.45 2 4 2H20C20.55 2 21.0208 2.19583 21.4125 2.5875C21.8042 2.97917 22 3.45 22 4V16C22 16.55 21.8042 17.0208 21.4125 17.4125C21.0208 17.8042 20.55 18 20 18H6L2 22ZM5.15 16H20V4H4V17.125L5.15 16Z" ></path>
            </g>
        </g>
    </symbol>
    <symbol  xmlns="http://www.w3.org/2000/svg" viewBox="0 0 24 24" id="repeat">
        <g id="icon/repeat">
            <mask id="mask0_21_8320" maskUnits="userSpaceOnUse" x="0" y="0" width="24" height="24">
                <rect id="Bounding box" width="24" height="24" ></rect>
            </mask>
            <g mask="url(#mask0_21_8320)">
                <path id="repeat" d="M7 22L3 18L7 14L8.4 15.45L6.85 17H17V13H19V19H6.85L8.4 20.55L7 22ZM5 11V5H17.15L15.6 3.45L17 2L21 6L17 10L15.6 8.55L17.15 7H7V11H5Z" ></path>
            </g>
        </g>
    </symbol>
    <symbol xmlns="http://www.w3.org/2000/svg" viewBox="0 0 33 33" id="discord">
        <g id="logo_icon/discord_32_icononly">
            <g id="Vector">
                <path d="M27.3161 6.82833C25.4211 5.97606 23.3694 5.35747 21.2322 5.00006C21.2135 4.99949 21.1948 5.00288 21.1776 5.01C21.1604 5.01713 21.145 5.02781 21.1325 5.0413C20.876 5.49493 20.5768 6.08603 20.3773 6.53966C18.1105 6.20975 15.8051 6.20975 13.5383 6.53966C13.3388 6.07228 13.0396 5.49493 12.7689 5.0413C12.7546 5.01381 12.7119 5.00006 12.6691 5.00006C10.5319 5.35747 8.49448 5.97606 6.58524 6.82833C6.57099 6.82833 6.55675 6.84208 6.5425 6.85583C2.66704 12.4506 1.59844 17.8942 2.12562 23.2828C2.12562 23.3103 2.13986 23.3378 2.16836 23.3515C4.733 25.166 7.19791 26.2657 9.63432 26.9943C9.67706 27.0081 9.7198 26.9943 9.73405 26.9668C10.304 26.2108 10.8169 25.4135 11.2586 24.5749C11.2871 24.52 11.2586 24.465 11.2016 24.4512C10.3895 24.1488 9.62007 23.7914 8.86492 23.379C8.80793 23.3515 8.80793 23.269 8.85068 23.2278C9.0074 23.1178 9.16413 22.9941 9.32086 22.8841C9.34936 22.8566 9.3921 22.8566 9.4206 22.8704C14.3219 25.0286 19.6079 25.0286 24.4522 22.8704C24.4807 22.8566 24.5235 22.8566 24.552 22.8841C24.7087 23.0078 24.8654 23.1178 25.0222 23.2415C25.0792 23.2828 25.0792 23.3653 25.0079 23.3927C24.267 23.8189 23.4834 24.1625 22.6712 24.465C22.6143 24.4787 22.6 24.5474 22.6143 24.5887C23.0702 25.4272 23.5831 26.2245 24.1388 26.9806C24.1815 26.9943 24.2243 27.0081 24.267 26.9943C26.7177 26.2657 29.1826 25.166 31.7472 23.3515C31.7757 23.3378 31.79 23.3103 31.79 23.2828C32.4169 17.0557 30.7499 11.6533 27.3731 6.85583C27.3588 6.84208 27.3446 6.82833 27.3161 6.82833ZM11.9995 19.9974C10.5319 19.9974 9.30661 18.6915 9.30661 17.0831C9.30661 15.4748 10.5034 14.1689 11.9995 14.1689C13.5098 14.1689 14.7066 15.4886 14.6924 17.0831C14.6924 18.6915 13.4955 19.9974 11.9995 19.9974ZM21.9303 19.9974C20.4628 19.9974 19.2375 18.6915 19.2375 17.0831C19.2375 15.4748 20.4343 14.1689 21.9303 14.1689C23.4406 14.1689 24.6375 15.4886 24.6232 17.0831C24.6232 18.6915 23.4406 19.9974 21.9303 19.9974Z"></path>
            </g>
        </g>
    </symbol>
    <symbol xmlns="http://www.w3.org/2000/svg" viewBox="0 0 24 24" id="calendar_today">
        <g id="icon/calendar_today">
            <mask id="mask0_285_3133" maskUnits="userSpaceOnUse" x="0" y="0" width="24" height="24">
                <rect id="Bounding box" width="24" height="24" ></rect>
            </mask>
            <g mask="url(#mask0_285_3133)">
                <path id="calendar_today" d="M5 22C4.45 22 3.97917 21.8042 3.5875 21.4125C3.19583 21.0208 3 20.55 3 20V6C3 5.45 3.19583 4.97917 3.5875 4.5875C3.97917 4.19583 4.45 4 5 4H6V2H8V4H16V2H18V4H19C19.55 4 20.0208 4.19583 20.4125 4.5875C20.8042 4.97917 21 5.45 21 6V20C21 20.55 20.8042 21.0208 20.4125 21.4125C20.0208 21.8042 19.55 22 19 22H5ZM5 20H19V10H5V20ZM5 8H19V6H5V8Z" ></path>
            </g>
        </g>
    </symbol>
    <symbol  xmlns="http://www.w3.org/2000/svg" viewBox="0 0 24 22" id="star">
        <path id="Star 1" d="M12 0L15.174 7.63131L23.4127 8.2918L17.1357 13.6687L19.0534 21.7082L12 17.4L4.94658 21.7082L6.8643 13.6687L0.587322 8.2918L8.82596 7.63131L12 0Z" ></path>
    </symbol>
</svg>