<svg width="399" height="482" viewBox="0 0 399 482" fill="none" xmlns="http://www.w3.org/2000/svg">
<rect width="399" height="482" rx="16" fill="#D9D9D9"/>
<rect x="17" y="15" width="237" height="40" rx="8" fill="white"/>
<rect x="27" y="22" width="26.799" height="26.799" rx="6" fill="#EEA867"/>
<path d="M75.5404 30.1255V41.3499H73.8755V36.2927H68.021V41.3499H66.3483V30.1255H68.021V35.0811H73.8755V30.1255H75.5404ZM81.1447 33.2834C81.7284 33.2834 82.2547 33.3798 82.7237 33.5726C83.1978 33.7602 83.5991 34.0337 83.9274 34.3933C84.2609 34.7476 84.5162 35.1775 84.6934 35.683C84.8706 36.1832 84.9591 36.746 84.9591 37.3713C84.9591 37.9966 84.8706 38.562 84.6934 39.0675C84.5162 39.5729 84.2609 40.0028 83.9274 40.3572C83.5991 40.7115 83.1978 40.9851 82.7237 41.1779C82.2547 41.3655 81.7284 41.4593 81.1447 41.4593C80.5559 41.4593 80.0244 41.3655 79.5502 41.1779C79.0812 40.9851 78.68 40.7115 78.3465 40.3572C78.013 40.0028 77.755 39.5729 77.5727 39.0675C77.3955 38.562 77.3069 37.9966 77.3069 37.3713C77.3069 36.746 77.3955 36.1832 77.5727 35.683C77.755 35.1775 78.013 34.7476 78.3465 34.3933C78.68 34.0337 79.0812 33.7602 79.5502 33.5726C80.0244 33.3798 80.5559 33.2834 81.1447 33.2834ZM81.1447 40.2712C81.8951 40.2712 82.4553 40.0185 82.8253 39.513C83.1952 39.0075 83.3802 38.2963 83.3802 37.3791C83.3802 36.462 83.1952 35.7507 82.8253 35.2453C82.4553 34.7346 81.8951 34.4793 81.1447 34.4793C80.384 34.4793 79.816 34.7346 79.4408 35.2453C79.0708 35.7507 78.8858 36.462 78.8858 37.3791C78.8858 38.2963 79.0708 39.0075 79.4408 39.513C79.816 40.0185 80.384 40.2712 81.1447 40.2712ZM89.7558 40.279C90.2457 40.279 90.6339 40.1644 90.9205 39.9351C91.2071 39.7006 91.3504 39.3853 91.3504 38.9893C91.3504 38.8173 91.3243 38.6584 91.2722 38.5125C91.2201 38.3614 91.1315 38.2311 91.0064 38.1217C90.8814 38.0123 90.7172 37.9289 90.514 37.8716C90.3108 37.809 90.0607 37.7778 89.7636 37.7778H88.1144V40.279H89.7558ZM88.1144 34.4245V36.8085H89.5761C89.7949 36.8085 89.9955 36.7773 90.1779 36.7147C90.3655 36.6522 90.5244 36.5662 90.6547 36.4568C90.7902 36.3422 90.8944 36.2067 90.9674 36.0503C91.0455 35.8888 91.0846 35.7142 91.0846 35.5267C91.0846 35.386 91.0586 35.2505 91.0064 35.1202C90.9596 34.9899 90.8762 34.8727 90.7563 34.7685C90.6417 34.6642 90.488 34.5809 90.2952 34.5183C90.1024 34.4558 89.8627 34.4245 89.5761 34.4245H88.1144ZM89.6229 33.4084C90.1128 33.4084 90.5349 33.4579 90.8892 33.5569C91.2435 33.6507 91.5354 33.7836 91.7646 33.9556C91.9939 34.1275 92.1607 34.3281 92.2649 34.5574C92.3743 34.7867 92.429 35.0342 92.429 35.3C92.429 35.4719 92.4056 35.6517 92.3587 35.8393C92.3118 36.0269 92.231 36.2067 92.1164 36.3786C92.0017 36.5454 91.8454 36.6991 91.6474 36.8398C91.4546 36.9805 91.2071 37.0899 90.9048 37.1681C91.4885 37.2723 91.9418 37.4807 92.2649 37.7934C92.5932 38.1061 92.7573 38.5203 92.7573 39.0362C92.7573 39.427 92.6765 39.7683 92.515 40.0602C92.3587 40.3468 92.145 40.5865 91.8741 40.7793C91.6031 40.9721 91.2852 41.1154 90.9205 41.2092C90.5557 41.303 90.1701 41.3499 89.7636 41.3499H86.6605V33.4084H89.6229ZM97.5417 40.2321C98.0628 40.2321 98.4536 40.107 98.7141 39.8569C98.9747 39.6016 99.1049 39.2785 99.1049 38.8877C99.1049 38.7105 99.0763 38.5438 99.019 38.3874C98.9616 38.2259 98.8705 38.0878 98.7454 37.9732C98.6203 37.8533 98.4562 37.7595 98.253 37.6918C98.0549 37.6188 97.81 37.5824 97.5182 37.5824H95.9002V40.2321H97.5417ZM97.5182 36.4724C98.0654 36.4724 98.5265 36.5402 98.9017 36.6757C99.2821 36.8059 99.587 36.9831 99.8162 37.2072C100.046 37.426 100.21 37.6814 100.309 37.9732C100.413 38.2598 100.465 38.5594 100.465 38.8721C100.465 39.2316 100.4 39.5651 100.27 39.8726C100.145 40.1748 99.9569 40.4353 99.7068 40.6542C99.4567 40.8731 99.1492 41.045 98.7845 41.1701C98.4249 41.2899 98.0107 41.3499 97.5417 41.3499H94.4464V33.4084H95.9002V36.4724H97.5182ZM103.662 33.4084V41.3499H102.138V33.4084H103.662ZM112.699 33.4084V41.3499H111.167V36.1598C111.167 36.0556 111.172 35.9409 111.182 35.8159C111.193 35.6856 111.208 35.5553 111.229 35.425C111.177 35.5345 111.125 35.6387 111.073 35.7377C111.026 35.8315 110.976 35.9149 110.924 35.9878L107.274 40.9669C107.217 41.0606 107.141 41.1492 107.047 41.2326C106.954 41.316 106.847 41.3577 106.727 41.3577H105.805V33.4084H107.329V38.6063C107.329 38.7105 107.324 38.8278 107.313 38.958C107.303 39.0831 107.287 39.2082 107.266 39.3332C107.37 39.1039 107.472 38.919 107.571 38.7783L111.221 33.7914C111.279 33.7028 111.354 33.6169 111.448 33.5335C111.547 33.4501 111.656 33.4084 111.776 33.4084H112.699ZM109.345 31.4543C109.554 31.4543 109.728 31.4309 109.869 31.384C110.015 31.3371 110.13 31.2615 110.213 31.1573C110.302 31.0531 110.364 30.9176 110.401 30.7508C110.442 30.5789 110.463 30.3704 110.463 30.1255H111.362C111.466 30.1255 111.547 30.1724 111.604 30.2662C111.662 30.36 111.69 30.4642 111.69 30.5789C111.69 30.8394 111.636 31.0739 111.526 31.2824C111.422 31.4908 111.268 31.6706 111.065 31.8217C110.862 31.9676 110.614 32.0822 110.322 32.1656C110.036 32.2438 109.71 32.2829 109.345 32.2829C108.981 32.2829 108.652 32.2438 108.361 32.1656C108.074 32.0822 107.829 31.9676 107.626 31.8217C107.423 31.6706 107.266 31.4908 107.157 31.2824C107.053 31.0739 107 30.8394 107 30.5789C107 30.4642 107.029 30.36 107.086 30.2662C107.144 30.1724 107.225 30.1255 107.329 30.1255H108.228C108.228 30.3704 108.246 30.5789 108.282 30.7508C108.324 30.9176 108.387 31.0531 108.47 31.1573C108.559 31.2615 108.673 31.3371 108.814 31.384C108.96 31.4309 109.137 31.4543 109.345 31.4543ZM115.734 41.4749C115.661 41.6729 115.546 41.8188 115.39 41.9126C115.233 42.0116 115.072 42.0611 114.905 42.0611H114.264L118.923 30.3678C118.996 30.1907 119.1 30.0552 119.235 29.9614C119.376 29.8624 119.538 29.8129 119.72 29.8129H120.369L115.734 41.4749ZM132.559 35.7377C132.559 36.5767 132.424 37.3479 132.153 38.0513C131.887 38.7496 131.509 39.3541 131.02 39.8647C130.53 40.3702 129.944 40.7636 129.261 41.045C128.578 41.3264 127.82 41.4671 126.986 41.4671C126.158 41.4671 125.4 41.3264 124.712 41.045C124.029 40.7636 123.443 40.3702 122.953 39.8647C122.468 39.3541 122.091 38.7496 121.82 38.0513C121.549 37.3479 121.413 36.5767 121.413 35.7377C121.413 34.9039 121.549 34.1353 121.82 33.4319C122.091 32.7284 122.468 32.1239 122.953 31.6185C123.443 31.1078 124.029 30.7118 124.712 30.4304C125.4 30.1438 126.158 30.0005 126.986 30.0005C127.82 30.0005 128.578 30.1438 129.261 30.4304C129.944 30.7118 130.53 31.1078 131.02 31.6185C131.509 32.1239 131.887 32.7284 132.153 33.4319C132.424 34.1353 132.559 34.9039 132.559 35.7377ZM130.855 35.7377C130.855 35.0707 130.764 34.4714 130.582 33.9399C130.399 33.4084 130.139 32.9577 129.8 32.5877C129.467 32.2177 129.06 31.9337 128.581 31.7357C128.107 31.5377 127.575 31.4387 126.986 31.4387C126.397 31.4387 125.863 31.5377 125.384 31.7357C124.91 31.9337 124.503 32.2177 124.165 32.5877C123.826 32.9577 123.565 33.4084 123.383 33.9399C123.201 34.4714 123.109 35.0707 123.109 35.7377C123.109 36.4099 123.201 37.0118 123.383 37.5433C123.565 38.0696 123.826 38.5177 124.165 38.8877C124.503 39.2577 124.91 39.5417 125.384 39.7397C125.863 39.9325 126.397 40.0289 126.986 40.0289C127.575 40.0289 128.107 39.9325 128.581 39.7397C129.06 39.5417 129.467 39.2577 129.8 38.8877C130.139 38.5177 130.399 38.0696 130.582 37.5433C130.764 37.0118 130.855 36.4099 130.855 35.7377ZM145.233 41.3499H144.177C143.901 41.3499 143.69 41.3082 143.544 41.2248C143.404 41.1362 143.291 41.0007 143.208 40.8183L141.754 38.4187C141.634 38.2207 141.483 38.0722 141.301 37.9732C141.124 37.8742 140.918 37.8247 140.683 37.8247H139.933V41.3577H138.448V37.8247H137.698C137.463 37.8247 137.255 37.8742 137.072 37.9732C136.895 38.0722 136.747 38.2207 136.627 38.4187L135.181 40.8183C135.092 41.0007 134.975 41.1362 134.829 41.2248C134.688 41.3082 134.482 41.3499 134.211 41.3499H133.156L135.181 38.067C135.316 37.8377 135.467 37.6501 135.634 37.5042C135.806 37.3583 136.017 37.2489 136.267 37.1759C136.074 37.1082 135.908 37.0144 135.767 36.8945C135.631 36.7695 135.504 36.6079 135.384 36.4099L133.367 33.4084H134.571C134.717 33.4084 134.85 33.4475 134.97 33.5257C135.09 33.5986 135.183 33.6976 135.251 33.8227L136.853 36.277C136.958 36.449 137.088 36.5793 137.244 36.6678C137.401 36.7564 137.588 36.8007 137.807 36.8007H138.448V33.4006H139.933V36.8007H140.558C140.991 36.8007 141.314 36.6262 141.528 36.277L143.13 33.8227C143.203 33.6976 143.299 33.5986 143.419 33.5257C143.539 33.4475 143.672 33.4084 143.818 33.4084H145.014L142.997 36.4099C142.872 36.6079 142.742 36.7695 142.606 36.8945C142.471 37.0196 142.307 37.116 142.114 37.1837C142.364 37.2567 142.572 37.3661 142.739 37.512C142.911 37.6527 143.065 37.8377 143.2 38.067L145.233 41.3499ZM153.368 33.4084V41.3499H151.836V36.1598C151.836 36.0556 151.841 35.9409 151.852 35.8159C151.862 35.6856 151.878 35.5553 151.899 35.425C151.847 35.5345 151.794 35.6387 151.742 35.7377C151.695 35.8315 151.646 35.9149 151.594 35.9878L147.944 40.9669C147.886 41.0606 147.811 41.1492 147.717 41.2326C147.623 41.316 147.516 41.3577 147.396 41.3577H146.474V33.4084H147.998V38.6063C147.998 38.7105 147.993 38.8278 147.983 38.958C147.972 39.0831 147.957 39.2082 147.936 39.3332C148.04 39.1039 148.142 38.919 148.241 38.7783L151.891 33.7914C151.948 33.7028 152.024 33.6169 152.118 33.5335C152.217 33.4501 152.326 33.4084 152.446 33.4084H153.368ZM160.921 40.2399V34.6043H158.545C158.493 35.3755 158.422 36.0634 158.334 36.6678C158.245 37.2723 158.141 37.8038 158.021 38.2624C157.907 38.7157 157.779 39.1066 157.638 39.4348C157.498 39.7579 157.349 40.0263 157.193 40.2399H160.921ZM163.852 40.193V43.5932C163.852 43.7391 163.811 43.8537 163.727 43.9371C163.649 44.0204 163.545 44.0621 163.415 44.0621H162.469V41.3499H155.981V43.6244C155.981 43.7391 155.947 43.8407 155.88 43.9293C155.812 44.0178 155.705 44.0621 155.559 44.0621H154.59V40.2399H154.848C155.03 40.2399 155.21 40.2113 155.387 40.1539C155.564 40.0966 155.734 39.982 155.895 39.81C156.062 39.6381 156.218 39.3958 156.364 39.0831C156.51 38.7704 156.643 38.3614 156.763 37.8559C156.883 37.3505 156.987 36.7356 157.075 36.0113C157.164 35.2817 157.234 34.4141 157.287 33.4084H162.398V40.193H163.852ZM169.489 37.8247C168.869 37.8455 168.343 37.895 167.91 37.9732C167.478 38.0461 167.126 38.1451 166.855 38.2702C166.584 38.3953 166.388 38.5438 166.269 38.7157C166.149 38.8825 166.089 39.0701 166.089 39.2785C166.089 39.4765 166.12 39.6485 166.183 39.7944C166.25 39.9351 166.339 40.0523 166.448 40.1461C166.563 40.2347 166.696 40.2999 166.847 40.3415C166.998 40.3832 167.162 40.4041 167.339 40.4041C167.574 40.4041 167.788 40.3806 167.98 40.3337C168.178 40.2868 168.363 40.2217 168.535 40.1383C168.707 40.0497 168.871 39.9429 169.028 39.8178C169.184 39.6928 169.338 39.5495 169.489 39.3879V37.8247ZM165.018 34.5183C165.461 34.0963 165.94 33.781 166.456 33.5726C166.977 33.3641 167.548 33.2599 168.168 33.2599C168.621 33.2599 169.023 33.3355 169.372 33.4866C169.721 33.6325 170.015 33.8383 170.255 34.1041C170.495 34.3698 170.674 34.6877 170.794 35.0577C170.919 35.4276 170.982 35.8367 170.982 36.2848V41.3499H170.302C170.151 41.3499 170.036 41.3264 169.958 41.2795C169.88 41.2274 169.817 41.1336 169.77 40.9981L169.606 40.3025C169.403 40.4901 169.202 40.6568 169.004 40.8027C168.806 40.9434 168.598 41.0659 168.379 41.1701C168.165 41.2691 167.936 41.3446 167.691 41.3968C167.446 41.4489 167.175 41.4749 166.878 41.4749C166.566 41.4749 166.271 41.4332 165.995 41.3499C165.724 41.2613 165.487 41.1284 165.284 40.9512C165.081 40.774 164.919 40.5526 164.799 40.2868C164.685 40.0211 164.627 39.711 164.627 39.3567C164.627 39.044 164.711 38.7444 164.877 38.4578C165.049 38.166 165.325 37.9054 165.706 37.6762C166.091 37.4469 166.592 37.2593 167.207 37.1134C167.827 36.9675 168.587 36.8841 169.489 36.8633V36.2848C169.489 35.6856 169.361 35.2374 169.106 34.9404C168.851 34.6434 168.475 34.4949 167.98 34.4949C167.647 34.4949 167.366 34.5366 167.136 34.62C166.912 34.7033 166.717 34.7971 166.55 34.9013C166.388 35.0003 166.245 35.0915 166.12 35.1749C166 35.2583 165.875 35.3 165.745 35.3C165.641 35.3 165.55 35.2713 165.471 35.214C165.398 35.1567 165.338 35.0889 165.292 35.0108L165.018 34.5183ZM178.283 36.4959C178.283 36.1936 178.238 35.9149 178.15 35.6595C178.067 35.4042 177.941 35.1827 177.775 34.9951C177.608 34.8075 177.405 34.6616 177.165 34.5574C176.925 34.4532 176.649 34.4011 176.336 34.4011C175.696 34.4011 175.19 34.5861 174.82 34.9561C174.455 35.326 174.223 35.8393 174.124 36.4959H178.283ZM179.541 40.2165C179.354 40.4353 179.137 40.6255 178.892 40.7871C178.648 40.9434 178.387 41.0711 178.111 41.1701C177.835 41.2691 177.548 41.342 177.251 41.3889C176.959 41.4358 176.67 41.4593 176.383 41.4593C175.836 41.4593 175.328 41.3681 174.859 41.1857C174.395 40.9981 173.992 40.7271 173.648 40.3728C173.309 40.0133 173.043 39.5703 172.85 39.044C172.663 38.5125 172.569 37.9028 172.569 37.215C172.569 36.6626 172.655 36.1494 172.827 35.6752C172.999 35.1958 173.244 34.7789 173.562 34.4245C173.885 34.0702 174.278 33.7914 174.742 33.5882C175.206 33.385 175.727 33.2834 176.305 33.2834C176.79 33.2834 177.235 33.3641 177.642 33.5257C178.053 33.682 178.408 33.9113 178.705 34.2135C179.002 34.5157 179.234 34.8883 179.401 35.3312C179.572 35.7742 179.658 36.2796 179.658 36.8476C179.658 37.0821 179.632 37.241 179.58 37.3244C179.528 37.4026 179.432 37.4417 179.291 37.4417H174.085C174.101 37.9159 174.169 38.3301 174.289 38.6845C174.408 39.0336 174.573 39.3254 174.781 39.5599C174.995 39.7944 175.247 39.969 175.539 40.0836C175.831 40.1982 176.157 40.2556 176.516 40.2556C176.855 40.2556 177.147 40.2165 177.392 40.1383C177.642 40.0602 177.855 39.9768 178.033 39.8882C178.215 39.7944 178.366 39.7084 178.486 39.6303C178.611 39.5521 178.72 39.513 178.814 39.513C178.939 39.513 179.036 39.5599 179.103 39.6537L179.541 40.2165ZM187.842 34.5652H184.848V41.3499H183.316V34.5652H180.322V33.4084H187.842V34.5652ZM198.632 34.8935C198.585 34.9508 198.539 34.9977 198.492 35.0342C198.45 35.0655 198.387 35.0811 198.304 35.0811C198.221 35.0811 198.132 35.0499 198.038 34.9873C197.95 34.9196 197.835 34.8492 197.694 34.7763C197.559 34.6981 197.392 34.6278 197.194 34.5652C197.001 34.4975 196.762 34.4636 196.475 34.4636C196.1 34.4636 195.769 34.5314 195.482 34.6669C195.196 34.8023 194.956 34.9951 194.763 35.2453C194.576 35.4954 194.432 35.8002 194.333 36.1598C194.234 36.5193 194.185 36.9232 194.185 37.3713C194.185 37.8351 194.237 38.2494 194.341 38.6141C194.445 38.9737 194.594 39.2785 194.787 39.5286C194.979 39.7736 195.214 39.9611 195.49 40.0914C195.766 40.2165 196.074 40.279 196.412 40.279C196.741 40.279 197.012 40.2399 197.225 40.1618C197.439 40.0784 197.616 39.9898 197.757 39.896C197.898 39.8022 198.015 39.7162 198.109 39.6381C198.202 39.5547 198.299 39.513 198.398 39.513C198.523 39.513 198.619 39.5599 198.687 39.6537L199.125 40.2165C198.942 40.4405 198.737 40.6307 198.507 40.7871C198.283 40.9434 198.044 41.0711 197.788 41.1701C197.533 41.2691 197.264 41.342 196.983 41.3889C196.707 41.4358 196.426 41.4593 196.139 41.4593C195.644 41.4593 195.18 41.3681 194.748 41.1857C194.32 41.0033 193.948 40.7376 193.63 40.3884C193.317 40.0393 193.07 39.612 192.887 39.1066C192.705 38.5959 192.614 38.0175 192.614 37.3713C192.614 36.7825 192.695 36.2379 192.856 35.7377C193.023 35.2374 193.265 34.8075 193.583 34.448C193.906 34.0832 194.302 33.7992 194.771 33.596C195.24 33.3876 195.777 33.2834 196.381 33.2834C196.949 33.2834 197.449 33.3745 197.882 33.5569C198.314 33.7393 198.7 33.9972 199.039 34.3307L198.632 34.8935ZM204.136 40.3259C204.892 40.3259 205.457 40.0888 205.832 39.6146C206.213 39.1352 206.403 38.4578 206.403 37.5824C206.403 36.7121 206.218 36.0373 205.848 35.5579C205.483 35.0733 204.933 34.831 204.199 34.831C203.839 34.831 203.516 34.8883 203.229 35.003C202.948 35.1124 202.706 35.2765 202.502 35.4954C202.304 35.7142 202.153 35.9852 202.049 36.3083C201.945 36.6262 201.893 36.9935 201.893 37.4104C201.893 38.3327 202.08 39.0492 202.456 39.5599C202.831 40.0706 203.391 40.3259 204.136 40.3259ZM204.675 31.6575C204.16 31.6992 203.714 31.8113 203.339 31.9936C202.969 32.1708 202.661 32.4131 202.416 32.7206C202.177 33.028 201.994 33.3954 201.869 33.8227C201.744 34.2448 201.671 34.7216 201.65 35.2531C201.781 35.0186 201.942 34.8049 202.135 34.6121C202.333 34.4193 202.557 34.2552 202.807 34.1197C203.057 33.979 203.331 33.8722 203.628 33.7992C203.925 33.7263 204.238 33.6898 204.566 33.6898C205.097 33.6898 205.574 33.7836 205.996 33.9712C206.418 34.1588 206.775 34.4219 207.067 34.7606C207.364 35.0994 207.591 35.5084 207.747 35.9878C207.904 36.462 207.982 36.9909 207.982 37.5745C207.982 38.1686 207.891 38.7053 207.708 39.1847C207.526 39.6589 207.265 40.0654 206.927 40.4041C206.593 40.7428 206.189 41.0033 205.715 41.1857C205.241 41.3681 204.714 41.4593 204.136 41.4593C203.589 41.4593 203.081 41.3707 202.612 41.1935C202.148 41.0111 201.744 40.7141 201.4 40.3025C201.056 39.8908 200.785 39.3515 200.587 38.6845C200.395 38.0175 200.298 37.1968 200.298 36.2223C200.298 35.3938 200.374 34.6304 200.525 33.9321C200.676 33.2338 200.918 32.6242 201.252 32.1031C201.591 31.582 202.031 31.1625 202.573 30.8446C203.115 30.5268 203.774 30.3366 204.55 30.274L207.38 30.0396L207.466 30.8368C207.487 31.0088 207.461 31.1547 207.388 31.2745C207.32 31.3944 207.2 31.4595 207.028 31.47L204.675 31.6575ZM213.077 33.2834C213.66 33.2834 214.187 33.3798 214.656 33.5726C215.13 33.7602 215.531 34.0337 215.859 34.3933C216.193 34.7476 216.448 35.1775 216.625 35.683C216.802 36.1832 216.891 36.746 216.891 37.3713C216.891 37.9966 216.802 38.562 216.625 39.0675C216.448 39.5729 216.193 40.0028 215.859 40.3572C215.531 40.7115 215.13 40.9851 214.656 41.1779C214.187 41.3655 213.66 41.4593 213.077 41.4593C212.488 41.4593 211.956 41.3655 211.482 41.1779C211.013 40.9851 210.612 40.7115 210.278 40.3572C209.945 40.0028 209.687 39.5729 209.505 39.0675C209.327 38.562 209.239 37.9966 209.239 37.3713C209.239 36.746 209.327 36.1832 209.505 35.683C209.687 35.1775 209.945 34.7476 210.278 34.3933C210.612 34.0337 211.013 33.7602 211.482 33.5726C211.956 33.3798 212.488 33.2834 213.077 33.2834ZM213.077 40.2712C213.827 40.2712 214.387 40.0185 214.757 39.513C215.127 39.0075 215.312 38.2963 215.312 37.3791C215.312 36.462 215.127 35.7507 214.757 35.2453C214.387 34.7346 213.827 34.4793 213.077 34.4793C212.316 34.4793 211.748 34.7346 211.373 35.2453C211.003 35.7507 210.818 36.462 210.818 37.3791C210.818 38.2963 211.003 39.0075 211.373 39.513C211.748 40.0185 212.316 40.2712 213.077 40.2712ZM220.117 39.3958C220.367 39.724 220.635 39.9533 220.922 40.0836C221.214 40.2139 221.539 40.279 221.899 40.279C222.597 40.279 223.136 40.0289 223.517 39.5286C223.902 39.0232 224.095 38.2884 224.095 37.3244C224.095 36.819 224.051 36.3891 223.962 36.0347C223.879 35.6752 223.754 35.3834 223.587 35.1593C223.426 34.93 223.225 34.7633 222.985 34.659C222.746 34.5496 222.475 34.4949 222.172 34.4949C221.729 34.4949 221.344 34.5939 221.016 34.7919C220.692 34.9899 220.393 35.2713 220.117 35.6361V39.3958ZM220.038 34.5965C220.205 34.3985 220.382 34.2187 220.57 34.0572C220.763 33.8904 220.969 33.7497 221.187 33.6351C221.406 33.5152 221.638 33.424 221.883 33.3615C222.133 33.2938 222.399 33.2599 222.68 33.2599C223.134 33.2599 223.543 33.3485 223.908 33.5257C224.278 33.7028 224.593 33.9634 224.853 34.3073C225.114 34.6512 225.315 35.0759 225.455 35.5814C225.601 36.0868 225.674 36.6678 225.674 37.3244C225.674 37.9133 225.593 38.4604 225.432 38.9659C225.275 39.4661 225.049 39.9012 224.752 40.2712C224.46 40.6412 224.1 40.933 223.673 41.1466C223.251 41.3551 222.774 41.4593 222.243 41.4593C221.768 41.4593 221.362 41.3811 221.023 41.2248C220.685 41.0685 220.382 40.8496 220.117 40.5682V44.0152H218.592V33.4084H219.507C219.721 33.4084 219.853 33.51 219.906 33.7133L220.038 34.5965ZM232.17 33.8227C232.248 33.7028 232.352 33.6038 232.483 33.5257C232.613 33.4475 232.751 33.4084 232.897 33.4084H234.093L232.084 36.4099C231.959 36.6079 231.829 36.7695 231.693 36.8945C231.558 37.0196 231.391 37.116 231.193 37.1837C231.443 37.2567 231.654 37.3661 231.826 37.512C231.998 37.6527 232.152 37.8377 232.287 38.067L234.312 41.3499H233.256C232.98 41.3499 232.767 41.3056 232.615 41.217C232.469 41.1232 232.344 40.9903 232.24 40.8183L230.786 38.4187C230.667 38.2207 230.515 38.0722 230.333 37.9732C230.156 37.8742 229.95 37.8247 229.716 37.8247H228.895V41.3577H227.371V33.4084H228.895V36.8007H229.614C229.833 36.8007 230.018 36.7564 230.169 36.6678C230.325 36.5793 230.458 36.449 230.568 36.277L232.17 33.8227ZM242.463 33.4084V41.3499H240.931V36.1598C240.931 36.0556 240.936 35.9409 240.946 35.8159C240.957 35.6856 240.972 35.5553 240.993 35.425C240.941 35.5345 240.889 35.6387 240.837 35.7377C240.79 35.8315 240.74 35.9149 240.688 35.9878L237.038 40.9669C236.981 41.0606 236.905 41.1492 236.811 41.2326C236.718 41.316 236.611 41.3577 236.491 41.3577H235.569V33.4084H237.093V38.6063C237.093 38.7105 237.088 38.8278 237.077 38.958C237.067 39.0831 237.051 39.2082 237.03 39.3332C237.135 39.1039 237.236 38.919 237.335 38.7783L240.985 33.7914C241.043 33.7028 241.118 33.6169 241.212 33.5335C241.311 33.4501 241.42 33.4084 241.54 33.4084H242.463Z" fill="#6E84A3"/>
<rect x="79" y="424" width="302" height="40" rx="8" fill="white"/>
<rect x="89" y="431" width="26.799" height="26.799" rx="6" fill="#48BD9F"/>
<path d="M137.111 450.35H135.446V440.431H130.021V450.35H128.348V439.126H137.111V450.35ZM142.717 442.283C143.301 442.283 143.827 442.38 144.296 442.573C144.77 442.76 145.172 443.034 145.5 443.393C145.833 443.748 146.089 444.178 146.266 444.683C146.443 445.183 146.532 445.746 146.532 446.371C146.532 446.997 146.443 447.562 146.266 448.067C146.089 448.573 145.833 449.003 145.5 449.357C145.172 449.712 144.77 449.985 144.296 450.178C143.827 450.365 143.301 450.459 142.717 450.459C142.128 450.459 141.597 450.365 141.123 450.178C140.654 449.985 140.253 449.712 139.919 449.357C139.586 449.003 139.328 448.573 139.145 448.067C138.968 447.562 138.879 446.997 138.879 446.371C138.879 445.746 138.968 445.183 139.145 444.683C139.328 444.178 139.586 443.748 139.919 443.393C140.253 443.034 140.654 442.76 141.123 442.573C141.597 442.38 142.128 442.283 142.717 442.283ZM142.717 449.271C143.468 449.271 144.028 449.018 144.398 448.513C144.768 448.008 144.953 447.296 144.953 446.379C144.953 445.462 144.768 444.751 144.398 444.245C144.028 443.735 143.468 443.479 142.717 443.479C141.956 443.479 141.389 443.735 141.013 444.245C140.643 444.751 140.458 445.462 140.458 446.379C140.458 447.296 140.643 448.008 141.013 448.513C141.389 449.018 141.956 449.271 142.717 449.271ZM153.383 449.24V443.604H151.007C150.955 444.376 150.884 445.063 150.796 445.668C150.707 446.272 150.603 446.804 150.483 447.262C150.368 447.716 150.241 448.107 150.1 448.435C149.959 448.758 149.811 449.026 149.654 449.24H153.383ZM156.314 449.193V452.593C156.314 452.739 156.272 452.854 156.189 452.937C156.111 453.02 156.007 453.062 155.876 453.062H154.93V450.35H148.443V452.624C148.443 452.739 148.409 452.841 148.341 452.929C148.274 453.018 148.167 453.062 148.021 453.062H147.052V449.24H147.31C147.492 449.24 147.672 449.211 147.849 449.154C148.026 449.097 148.195 448.982 148.357 448.81C148.524 448.638 148.68 448.396 148.826 448.083C148.972 447.77 149.105 447.361 149.225 446.856C149.344 446.35 149.449 445.736 149.537 445.011C149.626 444.282 149.696 443.414 149.748 442.408H154.86V449.193H156.314ZM163.984 443.565H160.99V450.35H159.458V443.565H156.464V442.408H163.984V443.565ZM168.35 449.279C168.84 449.279 169.228 449.164 169.515 448.935C169.802 448.701 169.945 448.385 169.945 447.989C169.945 447.817 169.919 447.658 169.867 447.513C169.815 447.361 169.726 447.231 169.601 447.122C169.476 447.012 169.312 446.929 169.109 446.872C168.905 446.809 168.655 446.778 168.358 446.778H166.709V449.279H168.35ZM166.709 443.425V445.809H168.171C168.389 445.809 168.59 445.777 168.772 445.715C168.96 445.652 169.119 445.566 169.249 445.457C169.385 445.342 169.489 445.207 169.562 445.05C169.64 444.889 169.679 444.714 169.679 444.527C169.679 444.386 169.653 444.25 169.601 444.12C169.554 443.99 169.471 443.873 169.351 443.768C169.236 443.664 169.082 443.581 168.89 443.518C168.697 443.456 168.457 443.425 168.171 443.425H166.709ZM168.217 442.408C168.707 442.408 169.129 442.458 169.484 442.557C169.838 442.651 170.13 442.784 170.359 442.956C170.588 443.128 170.755 443.328 170.859 443.557C170.969 443.787 171.024 444.034 171.024 444.3C171.024 444.472 171 444.652 170.953 444.839C170.906 445.027 170.826 445.207 170.711 445.379C170.596 445.545 170.44 445.699 170.242 445.84C170.049 445.98 169.802 446.09 169.499 446.168C170.083 446.272 170.536 446.481 170.859 446.793C171.188 447.106 171.352 447.52 171.352 448.036C171.352 448.427 171.271 448.768 171.11 449.06C170.953 449.347 170.74 449.586 170.469 449.779C170.198 449.972 169.88 450.115 169.515 450.209C169.15 450.303 168.765 450.35 168.358 450.35H165.255V442.408H168.217ZM178.301 445.496C178.301 445.194 178.257 444.915 178.168 444.66C178.085 444.404 177.96 444.183 177.793 443.995C177.627 443.808 177.423 443.662 177.184 443.557C176.944 443.453 176.668 443.401 176.355 443.401C175.714 443.401 175.209 443.586 174.839 443.956C174.474 444.326 174.242 444.839 174.143 445.496H178.301ZM179.56 449.216C179.372 449.435 179.156 449.626 178.911 449.787C178.666 449.943 178.406 450.071 178.129 450.17C177.853 450.269 177.567 450.342 177.27 450.389C176.978 450.436 176.689 450.459 176.402 450.459C175.855 450.459 175.347 450.368 174.878 450.186C174.414 449.998 174.01 449.727 173.666 449.373C173.328 449.013 173.062 448.57 172.869 448.044C172.681 447.513 172.588 446.903 172.588 446.215C172.588 445.663 172.674 445.149 172.846 444.675C173.017 444.196 173.262 443.779 173.58 443.425C173.903 443.07 174.297 442.791 174.761 442.588C175.224 442.385 175.745 442.283 176.324 442.283C176.808 442.283 177.254 442.364 177.66 442.526C178.072 442.682 178.426 442.911 178.723 443.214C179.02 443.516 179.252 443.888 179.419 444.331C179.591 444.774 179.677 445.28 179.677 445.848C179.677 446.082 179.651 446.241 179.599 446.324C179.547 446.403 179.45 446.442 179.31 446.442H174.104C174.12 446.916 174.187 447.33 174.307 447.684C174.427 448.034 174.591 448.325 174.8 448.56C175.013 448.794 175.266 448.969 175.558 449.084C175.85 449.198 176.175 449.256 176.535 449.256C176.874 449.256 177.165 449.216 177.41 449.138C177.66 449.06 177.874 448.977 178.051 448.888C178.234 448.794 178.385 448.708 178.505 448.63C178.63 448.552 178.739 448.513 178.833 448.513C178.958 448.513 179.054 448.56 179.122 448.654L179.56 449.216ZM182.839 448.396C183.09 448.724 183.358 448.953 183.645 449.084C183.936 449.214 184.262 449.279 184.622 449.279C185.32 449.279 185.859 449.029 186.24 448.529C186.625 448.023 186.818 447.288 186.818 446.324C186.818 445.819 186.774 445.389 186.685 445.035C186.602 444.675 186.477 444.383 186.31 444.159C186.148 443.93 185.948 443.763 185.708 443.659C185.468 443.55 185.197 443.495 184.895 443.495C184.452 443.495 184.067 443.594 183.738 443.792C183.415 443.99 183.116 444.271 182.839 444.636V448.396ZM182.761 443.597C182.928 443.398 183.105 443.219 183.293 443.057C183.486 442.89 183.691 442.75 183.91 442.635C184.129 442.515 184.361 442.424 184.606 442.362C184.856 442.294 185.122 442.26 185.403 442.26C185.857 442.26 186.266 442.348 186.63 442.526C187 442.703 187.316 442.963 187.576 443.307C187.837 443.651 188.037 444.076 188.178 444.581C188.324 445.087 188.397 445.668 188.397 446.324C188.397 446.913 188.316 447.46 188.155 447.966C187.998 448.466 187.772 448.901 187.475 449.271C187.183 449.641 186.823 449.933 186.396 450.147C185.974 450.355 185.497 450.459 184.966 450.459C184.491 450.459 184.085 450.381 183.746 450.225C183.407 450.068 183.105 449.85 182.839 449.568V453.015H181.315V442.408H182.23C182.443 442.408 182.576 442.51 182.628 442.713L182.761 443.597ZM201.004 450.35H199.949C199.673 450.35 199.461 450.308 199.316 450.225C199.175 450.136 199.063 450.001 198.979 449.818L197.526 447.419C197.406 447.221 197.255 447.072 197.072 446.973C196.895 446.874 196.689 446.825 196.455 446.825H195.704V450.358H194.219V446.825H193.469C193.234 446.825 193.026 446.874 192.844 446.973C192.666 447.072 192.518 447.221 192.398 447.419L190.952 449.818C190.863 450.001 190.746 450.136 190.6 450.225C190.46 450.308 190.254 450.35 189.983 450.35H188.928L190.952 447.067C191.088 446.838 191.239 446.65 191.405 446.504C191.577 446.358 191.788 446.249 192.039 446.176C191.846 446.108 191.679 446.014 191.538 445.895C191.403 445.769 191.275 445.608 191.155 445.41L189.139 442.408H190.342C190.488 442.408 190.621 442.447 190.741 442.526C190.861 442.599 190.955 442.698 191.022 442.823L192.625 445.277C192.729 445.449 192.859 445.579 193.016 445.668C193.172 445.756 193.359 445.801 193.578 445.801H194.219V442.401H195.704V445.801H196.33C196.762 445.801 197.085 445.626 197.299 445.277L198.901 442.823C198.974 442.698 199.071 442.599 199.19 442.526C199.31 442.447 199.443 442.408 199.589 442.408H200.785L198.768 445.41C198.643 445.608 198.513 445.769 198.378 445.895C198.242 446.02 198.078 446.116 197.885 446.184C198.135 446.257 198.344 446.366 198.51 446.512C198.682 446.653 198.836 446.838 198.972 447.067L201.004 450.35ZM207.67 449.24V443.604H205.294C205.242 444.376 205.171 445.063 205.083 445.668C204.994 446.272 204.89 446.804 204.77 447.262C204.656 447.716 204.528 448.107 204.387 448.435C204.246 448.758 204.098 449.026 203.942 449.24H207.67ZM210.601 449.193V452.593C210.601 452.739 210.559 452.854 210.476 452.937C210.398 453.02 210.294 453.062 210.163 453.062H209.218V450.35H202.73V452.624C202.73 452.739 202.696 452.841 202.628 452.929C202.561 453.018 202.454 453.062 202.308 453.062H201.339V449.24H201.597C201.779 449.24 201.959 449.211 202.136 449.154C202.313 449.097 202.483 448.982 202.644 448.81C202.811 448.638 202.967 448.396 203.113 448.083C203.259 447.77 203.392 447.361 203.512 446.856C203.632 446.35 203.736 445.736 203.824 445.011C203.913 444.282 203.983 443.414 204.035 442.408H209.147V449.193H210.601ZM217.093 445.496C217.093 445.194 217.049 444.915 216.96 444.66C216.877 444.404 216.752 444.183 216.585 443.995C216.418 443.808 216.215 443.662 215.975 443.557C215.736 443.453 215.46 443.401 215.147 443.401C214.506 443.401 214 443.586 213.631 443.956C213.266 444.326 213.034 444.839 212.935 445.496H217.093ZM218.352 449.216C218.164 449.435 217.948 449.626 217.703 449.787C217.458 449.943 217.197 450.071 216.921 450.17C216.645 450.269 216.358 450.342 216.061 450.389C215.77 450.436 215.48 450.459 215.194 450.459C214.647 450.459 214.139 450.368 213.67 450.186C213.206 449.998 212.802 449.727 212.458 449.373C212.119 449.013 211.854 448.57 211.661 448.044C211.473 447.513 211.379 446.903 211.379 446.215C211.379 445.663 211.465 445.149 211.637 444.675C211.809 444.196 212.054 443.779 212.372 443.425C212.695 443.07 213.089 442.791 213.552 442.588C214.016 442.385 214.537 442.283 215.116 442.283C215.6 442.283 216.046 442.364 216.452 442.526C216.864 442.682 217.218 442.911 217.515 443.214C217.812 443.516 218.044 443.888 218.211 444.331C218.383 444.774 218.469 445.28 218.469 445.848C218.469 446.082 218.443 446.241 218.391 446.324C218.339 446.403 218.242 446.442 218.101 446.442H212.896C212.911 446.916 212.979 447.33 213.099 447.684C213.219 448.034 213.383 448.325 213.591 448.56C213.805 448.794 214.058 448.969 214.35 449.084C214.641 449.198 214.967 449.256 215.327 449.256C215.665 449.256 215.957 449.216 216.202 449.138C216.452 449.06 216.666 448.977 216.843 448.888C217.025 448.794 217.177 448.708 217.296 448.63C217.421 448.552 217.531 448.513 217.625 448.513C217.75 448.513 217.846 448.56 217.914 448.654L218.352 449.216ZM226.798 442.408V450.35H225.266V446.692H221.631V450.35H220.107V442.408H221.631V445.535H225.266V442.408H226.798ZM229.838 450.475C229.765 450.673 229.65 450.819 229.494 450.913C229.338 451.012 229.176 451.061 229.009 451.061H228.368L233.027 439.368C233.1 439.191 233.204 439.055 233.34 438.961C233.48 438.862 233.642 438.813 233.824 438.813H234.473L229.838 450.475ZM246.664 444.738C246.664 445.577 246.528 446.348 246.257 447.051C245.991 447.75 245.614 448.354 245.124 448.865C244.634 449.37 244.048 449.764 243.365 450.045C242.682 450.326 241.924 450.467 241.09 450.467C240.262 450.467 239.504 450.326 238.816 450.045C238.133 449.764 237.547 449.37 237.057 448.865C236.573 448.354 236.195 447.75 235.924 447.051C235.653 446.348 235.517 445.577 235.517 444.738C235.517 443.904 235.653 443.135 235.924 442.432C236.195 441.728 236.573 441.124 237.057 440.618C237.547 440.108 238.133 439.712 238.816 439.43C239.504 439.144 240.262 439 241.09 439C241.924 439 242.682 439.144 243.365 439.43C244.048 439.712 244.634 440.108 245.124 440.618C245.614 441.124 245.991 441.728 246.257 442.432C246.528 443.135 246.664 443.904 246.664 444.738ZM244.96 444.738C244.96 444.071 244.868 443.471 244.686 442.94C244.504 442.408 244.243 441.958 243.904 441.588C243.571 441.218 243.164 440.934 242.685 440.736C242.211 440.538 241.679 440.439 241.09 440.439C240.502 440.439 239.967 440.538 239.488 440.736C239.014 440.934 238.607 441.218 238.269 441.588C237.93 441.958 237.669 442.408 237.487 442.94C237.305 443.471 237.214 444.071 237.214 444.738C237.214 445.41 237.305 446.012 237.487 446.543C237.669 447.07 237.93 447.518 238.269 447.888C238.607 448.258 239.014 448.542 239.488 448.74C239.967 448.932 240.502 449.029 241.09 449.029C241.679 449.029 242.211 448.932 242.685 448.74C243.164 448.542 243.571 448.258 243.904 447.888C244.243 447.518 244.504 447.07 244.686 446.543C244.868 446.012 244.96 445.41 244.96 444.738ZM259.337 450.35H258.281C258.005 450.35 257.794 450.308 257.648 450.225C257.508 450.136 257.396 450.001 257.312 449.818L255.858 447.419C255.739 447.221 255.587 447.072 255.405 446.973C255.228 446.874 255.022 446.825 254.788 446.825H254.037V450.358H252.552V446.825H251.802C251.567 446.825 251.359 446.874 251.176 446.973C250.999 447.072 250.851 447.221 250.731 447.419L249.285 449.818C249.196 450.001 249.079 450.136 248.933 450.225C248.792 450.308 248.587 450.35 248.316 450.35H247.26L249.285 447.067C249.42 446.838 249.571 446.65 249.738 446.504C249.91 446.358 250.121 446.249 250.371 446.176C250.178 446.108 250.012 446.014 249.871 445.895C249.736 445.769 249.608 445.608 249.488 445.41L247.471 442.408H248.675C248.821 442.408 248.954 442.447 249.074 442.526C249.194 442.599 249.287 442.698 249.355 442.823L250.958 445.277C251.062 445.449 251.192 445.579 251.348 445.668C251.505 445.756 251.692 445.801 251.911 445.801H252.552V442.401H254.037V445.801H254.662C255.095 445.801 255.418 445.626 255.632 445.277L257.234 442.823C257.307 442.698 257.403 442.599 257.523 442.526C257.643 442.447 257.776 442.408 257.922 442.408H259.118L257.101 445.41C256.976 445.608 256.846 445.769 256.71 445.895C256.575 446.02 256.411 446.116 256.218 446.184C256.468 446.257 256.676 446.366 256.843 446.512C257.015 446.653 257.169 446.838 257.304 447.067L259.337 450.35ZM267.472 442.408V450.35H265.94V445.16C265.94 445.056 265.945 444.941 265.956 444.816C265.966 444.686 265.982 444.555 266.003 444.425C265.951 444.534 265.899 444.639 265.846 444.738C265.8 444.831 265.75 444.915 265.698 444.988L262.048 449.967C261.99 450.061 261.915 450.149 261.821 450.233C261.727 450.316 261.62 450.358 261.501 450.358H260.578V442.408H262.102V447.606C262.102 447.711 262.097 447.828 262.087 447.958C262.076 448.083 262.061 448.208 262.04 448.333C262.144 448.104 262.246 447.919 262.345 447.778L265.995 442.791C266.052 442.703 266.128 442.617 266.222 442.533C266.321 442.45 266.43 442.408 266.55 442.408H267.472ZM275.025 449.24V443.604H272.649C272.597 444.376 272.527 445.063 272.438 445.668C272.349 446.272 272.245 446.804 272.125 447.262C272.011 447.716 271.883 448.107 271.742 448.435C271.602 448.758 271.453 449.026 271.297 449.24H275.025ZM277.956 449.193V452.593C277.956 452.739 277.915 452.854 277.831 452.937C277.753 453.02 277.649 453.062 277.519 453.062H276.573V450.35H270.085V452.624C270.085 452.739 270.051 452.841 269.984 452.929C269.916 453.018 269.809 453.062 269.663 453.062H268.694V449.24H268.952C269.134 449.24 269.314 449.211 269.491 449.154C269.668 449.097 269.838 448.982 269.999 448.81C270.166 448.638 270.322 448.396 270.468 448.083C270.614 447.77 270.747 447.361 270.867 446.856C270.987 446.35 271.091 445.736 271.18 445.011C271.268 444.282 271.339 443.414 271.391 442.408H276.503V449.193H277.956ZM283.593 446.825C282.973 446.846 282.447 446.895 282.014 446.973C281.582 447.046 281.23 447.145 280.959 447.27C280.688 447.395 280.493 447.544 280.373 447.716C280.253 447.882 280.193 448.07 280.193 448.279C280.193 448.477 280.224 448.648 280.287 448.794C280.354 448.935 280.443 449.052 280.553 449.146C280.667 449.235 280.8 449.3 280.951 449.342C281.102 449.383 281.266 449.404 281.444 449.404C281.678 449.404 281.892 449.381 282.085 449.334C282.283 449.287 282.468 449.222 282.639 449.138C282.811 449.05 282.976 448.943 283.132 448.818C283.288 448.693 283.442 448.549 283.593 448.388V446.825ZM279.122 443.518C279.565 443.096 280.044 442.781 280.56 442.573C281.081 442.364 281.652 442.26 282.272 442.26C282.725 442.26 283.127 442.335 283.476 442.487C283.825 442.632 284.119 442.838 284.359 443.104C284.599 443.37 284.779 443.688 284.898 444.058C285.023 444.428 285.086 444.837 285.086 445.285V450.35H284.406C284.255 450.35 284.14 450.326 284.062 450.28C283.984 450.227 283.921 450.134 283.874 449.998L283.71 449.302C283.507 449.49 283.306 449.657 283.108 449.803C282.91 449.943 282.702 450.066 282.483 450.17C282.269 450.269 282.04 450.345 281.795 450.397C281.55 450.449 281.279 450.475 280.982 450.475C280.67 450.475 280.375 450.433 280.099 450.35C279.828 450.261 279.591 450.128 279.388 449.951C279.185 449.774 279.023 449.553 278.903 449.287C278.789 449.021 278.731 448.711 278.731 448.357C278.731 448.044 278.815 447.744 278.981 447.458C279.153 447.166 279.43 446.905 279.81 446.676C280.196 446.447 280.696 446.259 281.311 446.113C281.931 445.967 282.692 445.884 283.593 445.863V445.285C283.593 444.686 283.465 444.237 283.21 443.94C282.955 443.643 282.58 443.495 282.085 443.495C281.751 443.495 281.47 443.537 281.24 443.62C281.016 443.703 280.821 443.797 280.654 443.901C280.493 444 280.349 444.092 280.224 444.175C280.104 444.258 279.979 444.3 279.849 444.3C279.745 444.3 279.654 444.271 279.575 444.214C279.503 444.157 279.443 444.089 279.396 444.011L279.122 443.518ZM292.387 445.496C292.387 445.194 292.343 444.915 292.254 444.66C292.171 444.404 292.046 444.183 291.879 443.995C291.712 443.808 291.509 443.662 291.269 443.557C291.029 443.453 290.753 443.401 290.441 443.401C289.8 443.401 289.294 443.586 288.924 443.956C288.559 444.326 288.328 444.839 288.229 445.496H292.387ZM293.645 449.216C293.458 449.435 293.241 449.626 292.997 449.787C292.752 449.943 292.491 450.071 292.215 450.17C291.939 450.269 291.652 450.342 291.355 450.389C291.063 450.436 290.774 450.459 290.487 450.459C289.94 450.459 289.432 450.368 288.963 450.186C288.5 449.998 288.096 449.727 287.752 449.373C287.413 449.013 287.147 448.57 286.954 448.044C286.767 447.513 286.673 446.903 286.673 446.215C286.673 445.663 286.759 445.149 286.931 444.675C287.103 444.196 287.348 443.779 287.666 443.425C287.989 443.07 288.382 442.791 288.846 442.588C289.31 442.385 289.831 442.283 290.409 442.283C290.894 442.283 291.339 442.364 291.746 442.526C292.158 442.682 292.512 442.911 292.809 443.214C293.106 443.516 293.338 443.888 293.505 444.331C293.677 444.774 293.763 445.28 293.763 445.848C293.763 446.082 293.736 446.241 293.684 446.324C293.632 446.403 293.536 446.442 293.395 446.442H288.189C288.205 446.916 288.273 447.33 288.393 447.684C288.513 448.034 288.677 448.325 288.885 448.56C289.099 448.794 289.352 448.969 289.643 449.084C289.935 449.198 290.261 449.256 290.62 449.256C290.959 449.256 291.251 449.216 291.496 449.138C291.746 449.06 291.96 448.977 292.137 448.888C292.319 448.794 292.47 448.708 292.59 448.63C292.715 448.552 292.825 448.513 292.918 448.513C293.043 448.513 293.14 448.56 293.208 448.654L293.645 449.216ZM301.946 443.565H298.952V450.35H297.42V443.565H294.426V442.408H301.946V443.565ZM310.556 442.283C311.139 442.283 311.666 442.38 312.135 442.573C312.609 442.76 313.01 443.034 313.338 443.393C313.672 443.748 313.927 444.178 314.104 444.683C314.281 445.183 314.37 445.746 314.37 446.371C314.37 446.997 314.281 447.562 314.104 448.067C313.927 448.573 313.672 449.003 313.338 449.357C313.01 449.712 312.609 449.985 312.135 450.178C311.666 450.365 311.139 450.459 310.556 450.459C309.967 450.459 309.435 450.365 308.961 450.178C308.492 449.985 308.091 449.712 307.757 449.357C307.424 449.003 307.166 448.573 306.984 448.067C306.806 447.562 306.718 446.997 306.718 446.371C306.718 445.746 306.806 445.183 306.984 444.683C307.166 444.178 307.424 443.748 307.757 443.393C308.091 443.034 308.492 442.76 308.961 442.573C309.435 442.38 309.967 442.283 310.556 442.283ZM310.556 449.271C311.306 449.271 311.866 449.018 312.236 448.513C312.606 448.008 312.791 447.296 312.791 446.379C312.791 445.462 312.606 444.751 312.236 444.245C311.866 443.735 311.306 443.479 310.556 443.479C309.795 443.479 309.227 443.735 308.852 444.245C308.482 444.751 308.297 445.462 308.297 446.379C308.297 447.296 308.482 448.008 308.852 448.513C309.227 449.018 309.795 449.271 310.556 449.271ZM322.433 443.565H319.439V450.35H317.907V443.565H314.914V442.408H322.433V443.565ZM328.91 443.565H325.229V450.35H323.705V442.408H328.91V443.565ZM331.717 448.396C331.967 448.724 332.236 448.953 332.522 449.084C332.814 449.214 333.14 449.279 333.499 449.279C334.197 449.279 334.737 449.029 335.117 448.529C335.503 448.023 335.696 447.288 335.696 446.324C335.696 445.819 335.651 445.389 335.563 445.035C335.479 444.675 335.354 444.383 335.188 444.159C335.026 443.93 334.825 443.763 334.586 443.659C334.346 443.55 334.075 443.495 333.773 443.495C333.33 443.495 332.944 443.594 332.616 443.792C332.293 443.99 331.993 444.271 331.717 444.636V448.396ZM331.639 443.597C331.806 443.398 331.983 443.219 332.17 443.057C332.363 442.89 332.569 442.75 332.788 442.635C333.007 442.515 333.239 442.424 333.484 442.362C333.734 442.294 333.999 442.26 334.281 442.26C334.734 442.26 335.143 442.348 335.508 442.526C335.878 442.703 336.193 442.963 336.454 443.307C336.714 443.651 336.915 444.076 337.056 444.581C337.202 445.087 337.274 445.668 337.274 446.324C337.274 446.913 337.194 447.46 337.032 447.966C336.876 448.466 336.649 448.901 336.352 449.271C336.06 449.641 335.701 449.933 335.273 450.147C334.851 450.355 334.375 450.459 333.843 450.459C333.369 450.459 332.962 450.381 332.624 450.225C332.285 450.068 331.983 449.85 331.717 449.568V453.015H330.193V442.408H331.107C331.321 442.408 331.454 442.51 331.506 442.713L331.639 443.597ZM345.698 442.408L341.29 452.656C341.243 452.77 341.18 452.859 341.102 452.921C341.024 452.984 340.909 453.015 340.758 453.015H339.625L341.079 449.85L337.819 442.408H339.148C339.278 442.408 339.38 442.44 339.453 442.502C339.526 442.565 339.578 442.635 339.609 442.713L341.626 447.481C341.668 447.601 341.707 447.724 341.743 447.849C341.785 447.968 341.819 448.088 341.845 448.208C341.881 448.083 341.92 447.961 341.962 447.841C342.004 447.716 342.048 447.593 342.095 447.473L344.041 442.713C344.078 442.625 344.135 442.552 344.213 442.494C344.291 442.437 344.38 442.408 344.479 442.408H345.698ZM346.302 443.237C346.599 442.956 346.964 442.726 347.397 442.549C347.829 442.372 348.348 442.283 348.952 442.283C349.437 442.283 349.864 442.343 350.234 442.463C350.604 442.578 350.914 442.734 351.164 442.932C351.42 443.125 351.61 443.346 351.735 443.597C351.865 443.847 351.93 444.107 351.93 444.378C351.93 444.534 351.904 444.699 351.852 444.871C351.805 445.037 351.727 445.199 351.618 445.355C351.508 445.512 351.362 445.657 351.18 445.793C351.003 445.923 350.781 446.033 350.515 446.121C351.005 446.272 351.393 446.512 351.68 446.84C351.967 447.169 352.11 447.578 352.11 448.067C352.11 448.437 352.024 448.771 351.852 449.068C351.685 449.365 351.459 449.618 351.172 449.826C350.885 450.029 350.555 450.186 350.179 450.295C349.804 450.405 349.413 450.459 349.007 450.459C348.757 450.459 348.499 450.436 348.233 450.389C347.973 450.342 347.715 450.269 347.459 450.17C347.204 450.071 346.962 449.943 346.732 449.787C346.503 449.631 346.297 449.441 346.115 449.216L346.553 448.654C346.62 448.56 346.717 448.513 346.842 448.513C346.941 448.513 347.042 448.555 347.147 448.638C347.256 448.716 347.386 448.802 347.537 448.896C347.694 448.99 347.879 449.078 348.092 449.162C348.311 449.24 348.582 449.279 348.905 449.279C349.181 449.279 349.426 449.245 349.64 449.177C349.859 449.11 350.041 449.016 350.187 448.896C350.338 448.776 350.453 448.635 350.531 448.474C350.609 448.312 350.648 448.135 350.648 447.942C350.648 447.567 350.495 447.268 350.187 447.044C349.88 446.819 349.406 446.707 348.765 446.707H347.866V445.691H348.765C349.327 445.691 349.765 445.587 350.078 445.379C350.39 445.165 350.547 444.891 350.547 444.558C350.547 444.412 350.513 444.274 350.445 444.144C350.377 444.008 350.273 443.891 350.132 443.792C349.997 443.688 349.825 443.607 349.617 443.55C349.413 443.492 349.176 443.464 348.905 443.464C348.603 443.464 348.348 443.495 348.139 443.557C347.931 443.615 347.754 443.68 347.608 443.753C347.462 443.826 347.339 443.894 347.24 443.956C347.147 444.013 347.066 444.042 346.998 444.042C346.925 444.042 346.863 444.029 346.81 444.003C346.764 443.972 346.711 443.912 346.654 443.823L346.302 443.237ZM358.624 442.823C358.703 442.703 358.807 442.604 358.937 442.526C359.067 442.447 359.205 442.408 359.351 442.408H360.547L358.538 445.41C358.413 445.608 358.283 445.769 358.148 445.895C358.012 446.02 357.845 446.116 357.647 446.184C357.898 446.257 358.109 446.366 358.281 446.512C358.452 446.653 358.606 446.838 358.742 447.067L360.766 450.35H359.711C359.435 450.35 359.221 450.306 359.07 450.217C358.924 450.123 358.799 449.99 358.695 449.818L357.241 447.419C357.121 447.221 356.97 447.072 356.788 446.973C356.61 446.874 356.405 446.825 356.17 446.825H355.349V450.358H353.825V442.408H355.349V445.801H356.068C356.287 445.801 356.472 445.756 356.623 445.668C356.78 445.579 356.913 445.449 357.022 445.277L358.624 442.823ZM368.917 442.408V450.35H367.385V445.16C367.385 445.056 367.39 444.941 367.401 444.816C367.411 444.686 367.427 444.555 367.448 444.425C367.396 444.534 367.344 444.639 367.291 444.738C367.245 444.831 367.195 444.915 367.143 444.988L363.493 449.967C363.435 450.061 363.36 450.149 363.266 450.233C363.172 450.316 363.065 450.358 362.946 450.358H362.023V442.408H363.547V447.606C363.547 447.711 363.542 447.828 363.532 447.958C363.521 448.083 363.506 448.208 363.485 448.333C363.589 448.104 363.691 447.919 363.79 447.778L367.44 442.791C367.497 442.703 367.573 442.617 367.667 442.533C367.766 442.45 367.875 442.408 367.995 442.408H368.917Z" fill="#6E84A3"/>
<path d="M177.232 220.19C177.412 218.99 177.748 217.934 178.24 217.022C178.732 216.11 179.35 215.348 180.094 214.736C180.838 214.112 181.69 213.644 182.65 213.332C183.622 213.02 184.666 212.864 185.782 212.864C186.898 212.864 187.924 213.026 188.86 213.35C189.796 213.662 190.594 214.112 191.254 214.7C191.926 215.276 192.448 215.972 192.82 216.788C193.192 217.604 193.378 218.504 193.378 219.488C193.378 220.316 193.276 221.048 193.072 221.684C192.868 222.32 192.574 222.878 192.19 223.358C191.818 223.838 191.362 224.246 190.822 224.582C190.282 224.906 189.676 225.176 189.004 225.392C190.648 225.848 191.884 226.592 192.712 227.624C193.54 228.644 193.954 229.94 193.954 231.512C193.954 232.724 193.726 233.816 193.27 234.788C192.814 235.748 192.19 236.564 191.398 237.236C190.606 237.896 189.682 238.406 188.626 238.766C187.582 239.114 186.466 239.288 185.278 239.288C183.922 239.288 182.758 239.126 181.786 238.802C180.814 238.466 179.986 238.004 179.302 237.416C178.618 236.816 178.048 236.102 177.592 235.274C177.148 234.434 176.77 233.516 176.458 232.52L177.988 231.872C178.384 231.704 178.768 231.656 179.14 231.728C179.512 231.8 179.782 232.01 179.95 232.358C180.13 232.718 180.334 233.126 180.562 233.582C180.802 234.026 181.12 234.452 181.516 234.86C181.912 235.256 182.404 235.592 182.992 235.868C183.592 236.144 184.342 236.282 185.242 236.282C186.106 236.282 186.862 236.144 187.51 235.868C188.158 235.58 188.698 235.214 189.13 234.77C189.562 234.314 189.886 233.81 190.102 233.258C190.318 232.706 190.426 232.16 190.426 231.62C190.426 230.948 190.342 230.33 190.174 229.766C190.006 229.202 189.682 228.722 189.202 228.326C188.734 227.918 188.08 227.6 187.24 227.372C186.4 227.144 185.308 227.03 183.964 227.03V224.474C185.068 224.462 185.998 224.348 186.754 224.132C187.522 223.916 188.14 223.616 188.608 223.232C189.076 222.848 189.412 222.392 189.616 221.864C189.832 221.336 189.94 220.748 189.94 220.1C189.94 219.392 189.832 218.774 189.616 218.246C189.4 217.718 189.094 217.28 188.698 216.932C188.314 216.572 187.852 216.308 187.312 216.14C186.784 215.96 186.208 215.87 185.584 215.87C184.96 215.87 184.384 215.96 183.856 216.14C183.328 216.32 182.86 216.572 182.452 216.896C182.044 217.22 181.702 217.604 181.426 218.048C181.15 218.492 180.952 218.972 180.832 219.488C180.664 219.944 180.448 220.25 180.184 220.406C179.932 220.562 179.566 220.598 179.086 220.514L177.232 220.19ZM221.623 226.076C221.623 228.008 221.311 229.766 220.687 231.35C220.075 232.934 219.205 234.296 218.077 235.436C216.949 236.564 215.599 237.44 214.027 238.064C212.455 238.688 210.709 239 208.789 239H199.069V213.152H208.789C210.709 213.152 212.455 213.464 214.027 214.088C215.599 214.712 216.949 215.594 218.077 216.734C219.205 217.862 220.075 219.224 220.687 220.82C221.311 222.404 221.623 224.156 221.623 226.076ZM217.699 226.076C217.699 224.54 217.489 223.166 217.069 221.954C216.649 220.73 216.049 219.698 215.269 218.858C214.501 218.006 213.565 217.358 212.461 216.914C211.369 216.47 210.145 216.248 208.789 216.248H202.921V235.904H208.789C210.145 235.904 211.369 235.682 212.461 235.238C213.565 234.794 214.501 234.152 215.269 233.312C216.049 232.46 216.649 231.428 217.069 230.216C217.489 229.004 217.699 227.624 217.699 226.076Z" fill="black"/>
</svg>
