<svg width="380" height="472" fill="none" xmlns="http://www.w3.org/2000/svg"><path d="M4.954 33H.735l7.681-21.818h4.88L20.986 33H16.77L10.94 15.656h-.17L4.954 33Zm.138-8.555h11.506v3.175H5.092v-3.175ZM22.791 33V16.636h3.856v6.605h1.406l4.922-6.605h4.645l-6.062 8.033L37.684 33h-4.666l-4.485-6.168h-1.886V33h-3.856Zm16.18 0V16.636h3.856v6.605h1.406l4.922-6.605H53.8l-6.062 8.033L53.864 33h-4.666l-4.485-6.168h-1.886V33h-3.856Zm20.889.33c-1.038 0-1.971-.184-2.802-.554a4.573 4.573 0 0 1-1.96-1.662c-.476-.731-.714-1.633-.714-2.706 0-.923.17-1.686.511-2.29a3.957 3.957 0 0 1 1.396-1.449 7.04 7.04 0 0 1 1.992-.82c.745-.192 1.516-.33 2.312-.416.958-.1 1.736-.188 2.333-.266.596-.085 1.03-.213 1.3-.384.276-.177.415-.45.415-.82V21.9c0-.802-.238-1.424-.714-1.864-.476-.44-1.161-.66-2.056-.66-.945 0-1.694.205-2.248.617-.547.412-.916.899-1.108 1.46l-3.6-.512c.283-.994.752-1.825 1.405-2.493.654-.674 1.453-1.178 2.398-1.512.944-.341 1.988-.512 3.132-.512.788 0 1.573.093 2.354.277.781.185 1.495.49 2.141.916.647.42 1.165.991 1.556 1.716.397.724.596 1.63.596 2.716V33h-3.707v-2.248h-.128c-.234.455-.564.88-.99 1.279-.42.39-.949.706-1.588.948-.632.234-1.374.351-2.227.351Zm1-2.834c.775 0 1.446-.152 2.014-.458a3.387 3.387 0 0 0 1.31-1.235 3.148 3.148 0 0 0 .47-1.673v-1.928c-.121.1-.327.191-.618.277-.285.085-.604.16-.96.223-.354.064-.706.121-1.054.17l-.905.129a6.737 6.737 0 0 0-1.545.383c-.455.178-.813.426-1.076.746-.263.313-.394.717-.394 1.215 0 .71.259 1.246.777 1.608.519.362 1.18.543 1.982.543Zm12.428 8.64a7.802 7.802 0 0 1-1.46-.128 5.4 5.4 0 0 1-1.054-.277l.895-3.004c.561.164 1.062.242 1.502.235.44-.008.828-.146 1.161-.416.341-.263.629-.703.863-1.32l.33-.885-5.933-16.705h4.09l3.772 12.358h.17l3.782-12.358h4.102l-6.552 18.345c-.306.867-.71 1.61-1.215 2.227a4.937 4.937 0 0 1-1.853 1.428c-.725.333-1.591.5-2.6.5ZM98.516 23.22v3.164H89.8V23.22h8.715Zm-7.522-6.584V33h-3.718V16.636h3.719Zm10.047 0V33h-3.708V16.636h3.708Zm1.169 3.164v-3.164h14.318V19.8h-5.294V33h-3.729V19.8h-5.295Zm19.099 2.163h4.826c2.088 0 3.704.508 4.847 1.523 1.144 1.016 1.719 2.348 1.726 3.995-.007 1.073-.27 2.025-.788 2.856-.511.83-1.257 1.484-2.237 1.96-.973.469-2.156.703-3.548.703h-7.436V16.636h3.718v13.2h3.718c.838 0 1.527-.213 2.067-.64.54-.433.81-.987.81-1.661 0-.71-.27-1.29-.81-1.737-.54-.447-1.229-.67-2.067-.67h-4.826v-3.165ZM134.743 33V16.636h3.857V33h-3.857Z" fill="#48B798"/><rect x="273" y="5" width="107" height="30" rx="15" fill="#F8FAFF"/><path d="M301.5 20.375h-4.375V16h-1.25v4.375H291.5v1.25h4.375V26h1.25v-4.375h4.375v-1.25ZM309.807 26.614v-3.052h.562c.194-.176.375-.424.546-.745.173-.324.319-.756.439-1.296.122-.542.203-1.231.243-2.067l.187-3.681h5.182v7.79h1.006v3.034h-1.006V24.5h-6.154v2.114h-1.005Zm1.824-3.052h4.329V16.71h-3.221l-.137 2.744a15.733 15.733 0 0 1-.179 1.73c-.085.515-.194.97-.328 1.369a4.696 4.696 0 0 1-.464 1.01Zm10.46 1.074c-.591 0-1.109-.14-1.555-.421a2.868 2.868 0 0 1-1.04-1.18c-.247-.507-.371-1.098-.371-1.774 0-.681.124-1.277.371-1.785.25-.509.597-.904 1.04-1.185.446-.281.964-.422 1.555-.422s1.108.14 1.551.422a2.82 2.82 0 0 1 1.04 1.185c.25.508.375 1.104.375 1.785 0 .677-.125 1.267-.375 1.773-.247.506-.594.9-1.04 1.18-.443.282-.96.422-1.551.422Zm0-.903c.449 0 .818-.115 1.108-.345.29-.23.504-.533.644-.908a3.48 3.48 0 0 0 .208-1.219c0-.437-.069-.845-.208-1.223a2.066 2.066 0 0 0-.644-.916c-.29-.233-.659-.35-1.108-.35-.449 0-.818.117-1.108.35a2.064 2.064 0 0 0-.643.916 3.515 3.515 0 0 0-.209 1.223c0 .438.07.844.209 1.22.139.374.354.677.643.907.29.23.659.345 1.108.345Zm9.359-8.233.512.614a1.64 1.64 0 0 1-.691.404 3.863 3.863 0 0 1-.886.141c-.33.017-.696.034-1.099.051-.455.017-.831.128-1.13.333-.298.204-.528.5-.69.886-.162.386-.266.86-.311 1.423h.085c.222-.409.528-.71.921-.903.392-.193.812-.29 1.261-.29.511 0 .971.12 1.381.358.409.239.733.592.971 1.061.239.469.358 1.047.358 1.735 0 .684-.122 1.275-.366 1.772-.242.497-.581.88-1.019 1.15-.434.268-.944.401-1.53.401-.585 0-1.098-.137-1.538-.413-.44-.278-.783-.69-1.027-1.236-.244-.548-.366-1.226-.366-2.032v-.7c0-1.457.247-2.562.741-3.315.497-.753 1.244-1.142 2.241-1.167.353-.012.667-.014.942-.009.276.006.516-.007.72-.038.205-.031.378-.107.52-.226Zm-2.233 8.233c.395 0 .735-.1 1.019-.298.287-.2.507-.479.66-.84.154-.363.23-.791.23-1.282 0-.478-.078-.884-.234-1.22a1.705 1.705 0 0 0-.66-.766c-.287-.176-.631-.265-1.032-.265-.292 0-.555.05-.788.15-.233.1-.432.245-.597.439a2.074 2.074 0 0 0-.383.707 3.354 3.354 0 0 0-.141.954c0 .733.172 1.32.516 1.76.344.44.814.661 1.41.661Zm6.38.92c-.415 0-.792-.078-1.13-.234a1.939 1.939 0 0 1-.805-.686c-.199-.301-.298-.665-.298-1.091 0-.375.074-.679.221-.912.148-.236.345-.42.593-.554.247-.133.519-.233.818-.298.301-.068.603-.122.907-.162.398-.051.721-.09.968-.115.25-.029.432-.075.545-.14.117-.066.175-.18.175-.342v-.034c0-.42-.115-.747-.345-.98-.228-.233-.573-.35-1.036-.35-.48 0-.856.106-1.129.316-.273.21-.465.435-.575.673l-.955-.34c.171-.398.398-.708.682-.93.287-.224.599-.38.937-.468.341-.091.677-.137 1.006-.137.21 0 .452.026.725.077.275.048.541.15.796.303.259.153.473.385.644.694.17.31.256.725.256 1.244V24.5h-1.006v-.886h-.051a1.768 1.768 0 0 1-.341.456 1.97 1.97 0 0 1-.635.413c-.264.114-.587.17-.967.17Zm.153-.903c.398 0 .733-.078 1.006-.234a1.597 1.597 0 0 0 .835-1.385v-.92c-.043.05-.136.097-.281.14-.142.04-.307.075-.495.106a22.013 22.013 0 0 1-.963.128c-.261.034-.505.09-.733.166a1.263 1.263 0 0 0-.545.337c-.136.148-.205.35-.205.605 0 .35.13.614.388.793.261.176.592.264.993.264Zm4.682.75v-6.546h2.676c.705 0 1.265.16 1.679.478.415.318.622.739.622 1.261 0 .398-.117.706-.353.925-.236.216-.539.362-.908.439.242.034.476.12.703.256.23.136.421.323.571.562.151.236.226.526.226.87 0 .334-.085.634-.256.898-.17.265-.414.473-.733.627-.318.153-.698.23-1.142.23h-3.085Zm.955-.92h2.13c.347 0 .618-.083.814-.248.196-.164.294-.389.294-.673 0-.338-.098-.604-.294-.797-.196-.196-.467-.294-.814-.294h-2.13v2.011Zm0-2.881h1.721c.27 0 .502-.037.695-.11a.981.981 0 0 0 .443-.325.823.823 0 0 0 .158-.503.742.742 0 0 0-.345-.647c-.231-.16-.547-.239-.951-.239h-1.721v1.824Zm6.789 2.318 3.154-5.063h1.159V24.5h-1.006v-5.063l-3.136 5.063h-1.177v-6.546h1.006v5.063Zm5.264-4.125v-.938h5.318v.938h-2.148V24.5h-1.005v-5.608h-2.165Zm7.654 1.432h1.875c.768 0 1.354.194 1.76.584.407.389.61.882.61 1.478 0 .392-.091.749-.273 1.07a1.983 1.983 0 0 1-.801.763c-.352.187-.784.281-1.296.281h-2.744v-6.546h1.006v5.608h1.738c.398 0 .725-.105.981-.315.255-.21.383-.48.383-.81 0-.346-.128-.629-.383-.848-.256-.218-.583-.328-.981-.328h-1.875v-.937Z" fill="#6E84A3"/><rect y="50" width="380" height="38" rx="15" fill="#F8FAFF"/><path d="M30.955 62.06c.09.05.158.127.196.219a.422.422 0 0 1 .01.288l-1.637 5.12h3.021c.09 0 .176.026.25.072a.443.443 0 0 1 .168.193.422.422 0 0 1-.087.473l-7.272 7.437a.469.469 0 0 1-.56.078.442.442 0 0 1-.195-.218.422.422 0 0 1-.01-.288l1.637-5.122h-3.021a.467.467 0 0 1-.25-.072.442.442 0 0 1-.168-.192.422.422 0 0 1 .087-.473l7.272-7.437a.47.47 0 0 1 .559-.079Z" fill="url(#a)"/><path d="M40.233 74.5V64.318h3.44c.796 0 1.449.136 1.96.408.51.268.887.638 1.133 1.109.245.47.367 1.005.367 1.605 0 .6-.122 1.132-.367 1.596-.246.464-.622.829-1.129 1.094-.507.262-1.155.393-1.944.393H40.91v-1.114h2.744c.544 0 .982-.08 1.313-.239.335-.159.577-.384.726-.676.152-.295.228-.646.228-1.054 0-.407-.076-.764-.228-1.069a1.56 1.56 0 0 0-.731-.706c-.335-.169-.777-.253-1.328-.253h-2.167V74.5h-1.233Zm4.793-4.574L47.53 74.5H46.1l-2.465-4.574h1.392Zm8.815 1.452v-4.514h1.174V74.5H53.84v-1.293h-.08a2.505 2.505 0 0 1-.834.99c-.378.268-.855.402-1.432.402-.477 0-.902-.104-1.273-.313a2.192 2.192 0 0 1-.875-.954c-.212-.428-.318-.966-.318-1.616v-4.852h1.173v4.772c0 .557.156 1.001.468 1.333.314.331.715.497 1.203.497.291 0 .588-.075.89-.224.305-.149.56-.378.765-.686.209-.308.313-.7.313-1.178Zm3.323 3.122v-7.636h1.133v1.193h.1c.159-.408.416-.724.77-.95.355-.228.78-.343 1.278-.343.504 0 .923.115 1.258.343.338.226.601.542.79.95h.08c.195-.395.489-.708.88-.94.39-.235.86-.353 1.407-.353.683 0 1.241.214 1.675.642.434.424.651 1.085.651 1.983V74.5h-1.173v-5.11c0-.564-.154-.967-.462-1.209a1.712 1.712 0 0 0-1.089-.363c-.537 0-.953.163-1.248.487-.295.322-.442.73-.442 1.223V74.5h-1.194v-5.23c0-.434-.14-.784-.422-1.05-.282-.268-.645-.402-1.089-.402-.305 0-.59.081-.855.244a1.84 1.84 0 0 0-.636.676c-.16.285-.239.615-.239.99V74.5h-1.173Zm12.168 0v-7.636h1.173V74.5h-1.173Zm.596-8.91a.834.834 0 0 1-.591-.233.75.75 0 0 1-.244-.561.75.75 0 0 1 .244-.562.834.834 0 0 1 .591-.234c.229 0 .425.078.587.234a.744.744 0 0 1 .248.562.744.744 0 0 1-.248.561.817.817 0 0 1-.587.234Zm8.453 1.274a1.56 1.56 0 0 0-.726-1.174c-.424-.278-.944-.417-1.56-.417-.451 0-.846.073-1.184.219a1.89 1.89 0 0 0-.785.601 1.442 1.442 0 0 0-.279.87c0 .272.065.506.194.701.133.192.302.353.507.482.206.126.421.23.646.314.226.08.433.144.622.193l1.034.279c.265.07.56.165.885.288.328.123.641.29.94.502.301.21.55.478.745.806.196.328.294.73.294 1.208a2.68 2.68 0 0 1-.433 1.491c-.285.444-.703.797-1.253 1.06-.547.261-1.211.392-1.993.392-.73 0-1.36-.118-1.895-.353-.53-.235-.948-.563-1.252-.984a2.809 2.809 0 0 1-.513-1.467h1.273c.033.385.163.703.388.954.229.25.517.435.865.557.351.12.73.18 1.134.18.47 0 .893-.077 1.267-.23.375-.155.671-.37.89-.646.219-.278.328-.603.328-.974 0-.338-.094-.613-.283-.825a2.08 2.08 0 0 0-.746-.517 7.823 7.823 0 0 0-.999-.348l-1.253-.358c-.795-.23-1.425-.556-1.889-.98-.464-.424-.696-.98-.696-1.665 0-.57.154-1.067.462-1.492.312-.427.73-.759 1.253-.994a4.231 4.231 0 0 1 1.765-.358c.656 0 1.24.118 1.75.353.51.232.915.55 1.213.955.302.404.46.863.477 1.377h-1.193Zm2.803-1.452v-1.094h7.636v1.094H85.62V74.5h-1.233v-9.088h-3.202Zm17.706 3.997c0 1.074-.194 2.002-.581 2.784-.388.782-.92 1.386-1.596 1.81-.676.424-1.449.636-2.317.636-.868 0-1.64-.212-2.317-.636-.676-.424-1.208-1.028-1.596-1.81-.388-.782-.581-1.71-.581-2.784 0-1.074.194-2.002.581-2.784.388-.782.92-1.385 1.596-1.81.676-.424 1.449-.636 2.317-.636.868 0 1.64.212 2.317.636.676.425 1.208 1.028 1.596 1.81.387.782.581 1.71.581 2.784Zm-1.193 0c0-.882-.147-1.626-.442-2.232-.292-.607-.688-1.066-1.189-1.377a3.082 3.082 0 0 0-1.67-.468c-.617 0-1.175.156-1.675.468-.498.311-.894.77-1.189 1.377-.291.606-.437 1.35-.437 2.232 0 .882.146 1.626.437 2.232.295.607.691 1.066 1.189 1.377.5.312 1.058.468 1.675.468.616 0 1.173-.156 1.67-.468.5-.311.897-.77 1.189-1.377.295-.606.442-1.35.442-2.232Zm3.266 5.091V64.318h3.441c.795 0 1.448.136 1.959.408.51.268.888.638 1.133 1.109.245.47.368 1.005.368 1.605 0 .6-.123 1.132-.368 1.596-.245.464-.621.829-1.128 1.094-.508.262-1.156.393-1.944.393h-2.784v-1.114h2.744c.543 0 .981-.08 1.312-.239.335-.159.577-.384.726-.676.153-.295.229-.646.229-1.054 0-.407-.076-.764-.229-1.069a1.556 1.556 0 0 0-.731-.706c-.334-.169-.777-.253-1.327-.253h-2.168V74.5h-1.233Zm4.793-4.574 2.506 4.574h-1.432l-2.466-4.574h1.392Zm4.163 4.574V64.318h6.144v1.094h-4.912v3.44h4.594v1.094h-4.594v3.46h4.992V74.5h-6.224Zm12.304 0V64.318h6.105v1.094h-4.872v3.44h4.415v1.094h-4.415V74.5h-1.233Zm8.217 0V64.318H134c.709 0 1.294.123 1.755.368.46.242.803.568 1.029.98.225.407.338.86.338 1.357 0 .437-.078.799-.234 1.084a1.82 1.82 0 0 1-.606.676 2.767 2.767 0 0 1-.811.368v.099c.312.02.625.13.94.328.315.199.578.484.79.855.212.371.319.825.319 1.362 0 .51-.116.97-.348 1.378-.232.407-.599.73-1.099.969-.501.239-1.152.358-1.954.358h-3.679Zm1.233-1.094h2.446c.805 0 1.377-.156 1.715-.467.342-.315.512-.696.512-1.143 0-.345-.088-.663-.263-.955a1.909 1.909 0 0 0-.751-.706c-.325-.179-.709-.269-1.153-.269h-2.506v3.54Zm0-4.613h2.287c.371 0 .706-.073 1.004-.22.302-.145.54-.35.716-.616a1.63 1.63 0 0 0 .269-.934c0-.448-.156-.827-.468-1.139-.311-.315-.805-.472-1.481-.472h-2.327v3.38Zm13.441-1.93a1.563 1.563 0 0 0-.726-1.173c-.424-.278-.945-.417-1.561-.417-.451 0-.845.073-1.184.219a1.893 1.893 0 0 0-.785.601 1.44 1.44 0 0 0-.278.87c0 .272.064.506.193.701.133.192.302.353.508.482.205.126.42.23.646.314.225.08.432.144.621.193l1.034.279c.266.07.561.165.885.288.328.123.642.29.94.502.302.21.55.478.746.806.195.328.293.73.293 1.208 0 .55-.144 1.047-.433 1.491-.285.444-.702.797-1.252 1.06-.547.261-1.212.392-1.994.392-.729 0-1.361-.118-1.894-.353-.53-.235-.948-.563-1.253-.984a2.807 2.807 0 0 1-.512-1.467h1.273c.033.385.162.703.387.954.229.25.518.435.866.557a3.5 3.5 0 0 0 1.133.18c.471 0 .893-.077 1.268-.23a2.18 2.18 0 0 0 .89-.646c.218-.278.328-.603.328-.974 0-.338-.095-.613-.284-.825a2.07 2.07 0 0 0-.745-.517 7.878 7.878 0 0 0-1-.348l-1.252-.358c-.796-.23-1.426-.556-1.89-.98-.464-.424-.696-.98-.696-1.665 0-.57.154-1.067.463-1.492a3.067 3.067 0 0 1 1.253-.994 4.229 4.229 0 0 1 1.764-.358c.657 0 1.24.118 1.75.353.511.232.915.55 1.214.955.301.404.46.863.477 1.377h-1.193Z" fill="#334155"/><rect x="328" y="60" width="32" height="18" rx="9" fill="#E3EBF6"/><circle cx="351" cy="69" r="9" fill="#48B798"/><rect y="98" width="380" height="38" rx="15" fill="#F8FAFF"/><path d="M30.955 110.06c.09.05.158.127.196.219a.42.42 0 0 1 .01.288l-1.637 5.121h3.021c.09 0 .176.025.25.071a.442.442 0 0 1 .168.193.421.421 0 0 1-.087.473l-7.272 7.437a.469.469 0 0 1-.56.079.444.444 0 0 1-.195-.219.424.424 0 0 1-.01-.289l1.637-5.121h-3.021a.475.475 0 0 1-.25-.071.442.442 0 0 1-.168-.193.421.421 0 0 1 .087-.473l7.272-7.437a.458.458 0 0 1 .266-.133.461.461 0 0 1 .293.054v.001ZM40.233 122.5v-10.182h3.44c.796 0 1.449.136 1.96.408.51.268.887.638 1.133 1.109.245.47.367 1.005.367 1.605 0 .6-.122 1.132-.367 1.596-.246.464-.622.829-1.129 1.094-.507.262-1.155.393-1.944.393H40.91v-1.114h2.744c.544 0 .982-.079 1.313-.239.335-.159.577-.384.726-.676.152-.295.228-.646.228-1.054 0-.407-.076-.764-.228-1.069a1.565 1.565 0 0 0-.731-.706c-.335-.169-.777-.253-1.328-.253h-2.167v9.088h-1.233Zm4.793-4.574 2.505 4.574H46.1l-2.465-4.574h1.392Zm8.815 1.452v-4.514h1.174v7.636H53.84v-1.293h-.08a2.508 2.508 0 0 1-.834.99c-.378.268-.855.402-1.432.402a2.55 2.55 0 0 1-1.273-.313 2.191 2.191 0 0 1-.875-.954c-.212-.428-.318-.966-.318-1.616v-4.852h1.173v4.772c0 .557.156 1.001.468 1.333.314.331.715.497 1.203.497a2 2 0 0 0 .89-.224 1.94 1.94 0 0 0 .765-.686c.209-.308.313-.701.313-1.178Zm3.323 3.122v-7.636h1.133v1.193h.1a1.92 1.92 0 0 1 .77-.95c.355-.228.78-.343 1.278-.343.504 0 .923.115 1.258.343.338.226.601.542.79.95h.08c.195-.395.489-.708.88-.94.39-.235.86-.353 1.407-.353.683 0 1.241.214 1.675.642.434.424.651 1.085.651 1.983v5.111h-1.173v-5.111c0-.563-.154-.966-.462-1.208a1.711 1.711 0 0 0-1.089-.363c-.537 0-.953.163-1.248.487-.295.322-.442.73-.442 1.223v4.972h-1.194v-5.23c0-.434-.14-.784-.422-1.049-.282-.269-.645-.403-1.089-.403-.305 0-.59.081-.855.244a1.84 1.84 0 0 0-.636.676c-.16.285-.239.615-.239.989v4.773h-1.173Zm12.168 0v-7.636h1.173v7.636h-1.173Zm.596-8.909a.834.834 0 0 1-.591-.234.751.751 0 0 1-.244-.562c0-.218.081-.406.244-.561a.834.834 0 0 1 .591-.234c.229 0 .425.078.587.234a.742.742 0 0 1 .248.561.744.744 0 0 1-.248.562.816.816 0 0 1-.587.234Zm2.328-.179v-1.094h7.637v1.094H76.69v9.088h-1.233v-9.088h-3.202Zm9.54 9.088v-10.182h3.44c.795 0 1.448.136 1.959.408.51.268.888.638 1.133 1.109.245.47.368 1.005.368 1.605 0 .6-.123 1.132-.368 1.596-.245.464-.621.829-1.128 1.094-.508.262-1.156.393-1.944.393h-2.784v-1.114h2.744c.544 0 .981-.079 1.312-.239.335-.159.577-.384.726-.676.153-.295.229-.646.229-1.054 0-.407-.076-.764-.229-1.069a1.565 1.565 0 0 0-.73-.706c-.335-.169-.778-.253-1.328-.253h-2.168v9.088h-1.233Zm4.792-4.574 2.506 4.574h-1.432l-2.466-4.574h1.392Zm4.58 4.574h-1.293l3.74-10.182h1.272l3.739 10.182h-1.293l-3.043-8.571h-.08l-3.042 8.571Zm.477-3.977h5.21v1.093h-5.21v-1.093Zm11.709 3.977h-3.143v-10.182h3.282c.987 0 1.833.204 2.535.612a4.003 4.003 0 0 1 1.616 1.745c.375.755.562 1.66.562 2.714 0 1.061-.189 1.974-.567 2.74a4.032 4.032 0 0 1-1.651 1.759c-.722.408-1.6.612-2.634.612Zm-1.91-1.094h1.83c.842 0 1.54-.162 2.093-.487a3.002 3.002 0 0 0 1.238-1.387c.272-.6.408-1.314.408-2.143 0-.822-.135-1.529-.403-2.123a2.978 2.978 0 0 0-1.203-1.372c-.534-.321-1.198-.482-1.994-.482h-1.969v7.994Zm8.83 1.094v-10.182h6.145v1.094h-4.912v3.44h4.594v1.094h-4.594v3.46h4.991v1.094h-6.224Zm12.305 0v-10.182h6.105v1.094h-4.872v3.44h4.414v1.094h-4.414v4.554h-1.233Zm8.216 0v-10.182h3.56c.709 0 1.294.123 1.755.368.461.242.804.568 1.029.979.226.408.338.861.338 1.358 0 .437-.078.798-.233 1.084-.153.285-.355.51-.607.676a2.802 2.802 0 0 1-.81.368v.099c.311.02.624.129.939.328.315.199.579.484.791.855.212.371.318.826.318 1.362 0 .511-.116.97-.348 1.378-.232.407-.598.73-1.099.969-.5.239-1.151.358-1.954.358h-3.679Zm1.233-1.094h2.446c.806 0 1.378-.156 1.716-.467a1.5 1.5 0 0 0 .512-1.144c0-.344-.088-.662-.264-.954a1.908 1.908 0 0 0-.75-.706c-.325-.179-.71-.269-1.154-.269h-2.506v3.54Zm0-4.613h2.287c.372 0 .706-.073 1.005-.219.301-.146.54-.351.716-.617.178-.265.268-.576.268-.934 0-.448-.156-.827-.467-1.139-.312-.315-.806-.472-1.482-.472h-2.327v3.381Zm13.441-1.929a1.564 1.564 0 0 0-.726-1.174c-.424-.278-.944-.417-1.561-.417-.451 0-.845.073-1.183.218a1.894 1.894 0 0 0-.786.602 1.445 1.445 0 0 0-.278.87c0 .272.065.506.194.701.132.192.302.353.507.482.206.126.421.231.646.314.226.079.433.144.622.193l1.034.279c.265.069.56.166.885.288.328.123.641.29.939.502.302.209.551.478.746.806.196.328.293.731.293 1.208 0 .55-.144 1.047-.432 1.491-.285.444-.703.797-1.253 1.059-.547.262-1.211.393-1.993.393-.73 0-1.361-.118-1.895-.353-.53-.235-.948-.563-1.253-.984a2.817 2.817 0 0 1-.512-1.467h1.273c.033.384.163.703.388.955a2.1 2.1 0 0 0 .865.556c.351.12.729.179 1.134.179.47 0 .893-.076 1.267-.228.375-.156.671-.372.89-.647.219-.278.328-.603.328-.974 0-.338-.094-.613-.283-.825a2.078 2.078 0 0 0-.746-.517 7.687 7.687 0 0 0-.999-.348l-1.253-.358c-.795-.229-1.425-.556-1.889-.98-.464-.424-.696-.979-.696-1.665 0-.57.154-1.068.462-1.492a3.073 3.073 0 0 1 1.253-.994 4.224 4.224 0 0 1 1.765-.358c.656 0 1.24.118 1.75.353.51.232.915.55 1.213.955.302.404.461.863.477 1.377h-1.193Z" fill="#334155"/><rect x="328" y="108" width="32" height="18" rx="9" fill="#E3EBF6"/><circle cx="337" cy="117" r="8.5" fill="#fff" stroke="#E3EBF6"/><rect y="146" width="380" height="38" rx="15" fill="#F8FAFF"/><path d="M30.955 158.06c.09.05.158.127.196.219a.42.42 0 0 1 .01.288l-1.637 5.121h3.021c.09 0 .176.025.25.071a.442.442 0 0 1 .168.193.421.421 0 0 1-.087.473l-7.272 7.437a.469.469 0 0 1-.56.079.444.444 0 0 1-.195-.219.424.424 0 0 1-.01-.289l1.637-5.121h-3.021a.475.475 0 0 1-.25-.071.442.442 0 0 1-.168-.193.421.421 0 0 1 .087-.473l7.272-7.437a.458.458 0 0 1 .266-.133.461.461 0 0 1 .293.054v.001Z" fill="url(#b)"/><path d="M40.233 170.5v-10.182h3.44c.796 0 1.449.136 1.96.408.51.268.887.638 1.133 1.109.245.47.367 1.005.367 1.605 0 .6-.122 1.132-.367 1.596-.246.464-.622.829-1.129 1.094-.507.262-1.155.393-1.944.393H40.91v-1.114h2.744c.544 0 .982-.079 1.313-.239.335-.159.577-.384.726-.676.152-.295.228-.646.228-1.054 0-.407-.076-.764-.228-1.069a1.565 1.565 0 0 0-.731-.706c-.335-.169-.777-.253-1.328-.253h-2.167v9.088h-1.233Zm4.793-4.574 2.505 4.574H46.1l-2.465-4.574h1.392Zm8.815 1.452v-4.514h1.174v7.636H53.84v-1.293h-.08a2.508 2.508 0 0 1-.834.99c-.378.268-.855.402-1.432.402a2.55 2.55 0 0 1-1.273-.313 2.191 2.191 0 0 1-.875-.954c-.212-.428-.318-.966-.318-1.616v-4.852h1.173v4.772c0 .557.156 1.001.468 1.333.314.331.715.497 1.203.497a2 2 0 0 0 .89-.224 1.94 1.94 0 0 0 .765-.686c.209-.308.313-.701.313-1.178Zm3.323 3.122v-7.636h1.133v1.193h.1a1.92 1.92 0 0 1 .77-.95c.355-.228.78-.343 1.278-.343.504 0 .923.115 1.258.343.338.226.601.542.79.95h.08c.195-.395.489-.708.88-.94.39-.235.86-.353 1.407-.353.683 0 1.241.214 1.675.642.434.424.651 1.085.651 1.983v5.111h-1.173v-5.111c0-.563-.154-.966-.462-1.208a1.711 1.711 0 0 0-1.089-.363c-.537 0-.953.163-1.248.487-.295.322-.442.73-.442 1.223v4.972h-1.194v-5.23c0-.434-.14-.784-.422-1.049-.282-.269-.645-.403-1.089-.403-.305 0-.59.081-.855.244a1.84 1.84 0 0 0-.636.676c-.16.285-.239.615-.239.989v4.773h-1.173Zm12.168 0v-7.636h1.173v7.636h-1.173Zm.596-8.909a.834.834 0 0 1-.591-.234.751.751 0 0 1-.244-.562c0-.218.081-.406.244-.561a.834.834 0 0 1 .591-.234c.229 0 .425.078.587.234a.742.742 0 0 1 .248.561.744.744 0 0 1-.248.562.816.816 0 0 1-.587.234Zm8.453 1.273a1.563 1.563 0 0 0-.726-1.174c-.424-.278-.944-.417-1.56-.417-.451 0-.846.073-1.184.218a1.894 1.894 0 0 0-.785.602 1.441 1.441 0 0 0-.279.87c0 .272.065.506.194.701.133.192.302.353.507.482.206.126.421.231.646.314.226.079.433.144.622.193l1.034.279c.265.069.56.166.885.288.328.123.641.29.94.502.301.209.55.478.745.806.196.328.294.731.294 1.208 0 .55-.145 1.047-.433 1.491-.285.444-.703.797-1.253 1.059-.547.262-1.211.393-1.993.393-.73 0-1.36-.118-1.895-.353-.53-.235-.948-.563-1.252-.984a2.81 2.81 0 0 1-.513-1.467h1.273c.033.384.163.703.388.955.229.248.517.434.865.556.351.12.73.179 1.134.179.47 0 .893-.076 1.267-.228a2.18 2.18 0 0 0 .89-.647 1.53 1.53 0 0 0 .328-.974c0-.338-.094-.613-.283-.825a2.074 2.074 0 0 0-.746-.517 7.702 7.702 0 0 0-.999-.348l-1.253-.358c-.795-.229-1.425-.556-1.889-.98-.464-.424-.696-.979-.696-1.665 0-.57.154-1.068.462-1.492.312-.427.73-.759 1.253-.994a4.225 4.225 0 0 1 1.765-.358c.656 0 1.24.118 1.75.353.51.232.915.55 1.213.955.302.404.46.863.477 1.377h-1.193Zm2.803-1.452v-1.094h7.636v1.094H85.62v9.088h-1.233v-9.088h-3.202Zm17.706 3.997c0 1.074-.194 2.002-.581 2.784-.388.782-.92 1.386-1.596 1.81-.676.424-1.449.636-2.317.636-.868 0-1.64-.212-2.317-.636-.676-.424-1.208-1.028-1.596-1.81-.388-.782-.581-1.71-.581-2.784 0-1.074.194-2.002.581-2.784.388-.782.92-1.385 1.596-1.81.676-.424 1.449-.636 2.317-.636.868 0 1.64.212 2.317.636.676.425 1.208 1.028 1.596 1.81.387.782.581 1.71.581 2.784Zm-1.193 0c0-.882-.147-1.626-.442-2.232-.292-.607-.688-1.066-1.189-1.377a3.078 3.078 0 0 0-1.67-.468c-.617 0-1.175.156-1.675.468-.498.311-.894.77-1.189 1.377-.291.606-.437 1.35-.437 2.232 0 .882.146 1.626.437 2.232.295.607.691 1.066 1.189 1.377.5.312 1.058.468 1.675.468.616 0 1.173-.156 1.67-.468.5-.311.897-.77 1.189-1.377.295-.606.442-1.35.442-2.232Zm3.266 5.091v-10.182h3.441c.795 0 1.448.136 1.959.408.51.268.888.638 1.133 1.109.245.47.368 1.005.368 1.605 0 .6-.123 1.132-.368 1.596-.245.464-.621.829-1.128 1.094-.508.262-1.156.393-1.944.393h-2.784v-1.114h2.744c.543 0 .981-.079 1.312-.239.335-.159.577-.384.726-.676.153-.295.229-.646.229-1.054 0-.407-.076-.764-.229-1.069a1.562 1.562 0 0 0-.731-.706c-.334-.169-.777-.253-1.327-.253h-2.168v9.088h-1.233Zm4.793-4.574 2.506 4.574h-1.432l-2.466-4.574h1.392Zm4.163 4.574v-10.182h6.144v1.094h-4.912v3.44h4.594v1.094h-4.594v3.46h4.992v1.094h-6.224Zm12.304 0v-10.182h6.105v1.094h-4.872v3.44h4.415v1.094h-4.415v4.554h-1.233Zm8.217 0v-10.182H134c.709 0 1.294.123 1.755.368.46.242.803.568 1.029.979.225.408.338.861.338 1.358 0 .437-.078.798-.234 1.084-.152.285-.355.51-.606.676a2.796 2.796 0 0 1-.811.368v.099c.312.02.625.129.94.328.315.199.578.484.79.855.212.371.319.826.319 1.362 0 .511-.116.97-.348 1.378-.232.407-.599.73-1.099.969-.501.239-1.152.358-1.954.358h-3.679Zm1.233-1.094h2.446c.805 0 1.377-.156 1.715-.467.342-.315.512-.696.512-1.144 0-.344-.088-.662-.263-.954a1.91 1.91 0 0 0-.751-.706c-.325-.179-.709-.269-1.153-.269h-2.506v3.54Zm0-4.613h2.287c.371 0 .706-.073 1.004-.219.302-.146.54-.351.716-.617.179-.265.269-.576.269-.934a1.55 1.55 0 0 0-.468-1.139c-.311-.315-.805-.472-1.481-.472h-2.327v3.381Zm16.463.616c0 1.074-.194 2.002-.581 2.784-.388.782-.92 1.386-1.596 1.81-.676.424-1.449.636-2.317.636-.868 0-1.641-.212-2.317-.636-.676-.424-1.208-1.028-1.596-1.81-.387-.782-.581-1.71-.581-2.784 0-1.074.194-2.002.581-2.784.388-.782.92-1.385 1.596-1.81.676-.424 1.449-.636 2.317-.636.868 0 1.641.212 2.317.636.676.425 1.208 1.028 1.596 1.81.387.782.581 1.71.581 2.784Zm-1.193 0c0-.882-.147-1.626-.442-2.232-.292-.607-.688-1.066-1.189-1.377a3.075 3.075 0 0 0-1.67-.468c-.616 0-1.175.156-1.675.468-.498.311-.894.77-1.189 1.377-.291.606-.437 1.35-.437 2.232 0 .882.146 1.626.437 2.232.295.607.691 1.066 1.189 1.377.5.312 1.059.468 1.675.468.617 0 1.173-.156 1.67-.468.501-.311.897-.77 1.189-1.377.295-.606.442-1.35.442-2.232Z" fill="#334155"/><rect x="328" y="156" width="32" height="18" rx="9" fill="#E3EBF6"/><circle cx="351" cy="165" r="9" fill="#48B798"/><rect y="194" width="380" height="38" rx="15" fill="#F8FAFF"/><path d="M30.955 206.06c.09.05.158.127.196.219a.42.42 0 0 1 .01.288l-1.637 5.121h3.021c.09 0 .176.025.25.071a.442.442 0 0 1 .168.193.421.421 0 0 1-.087.473l-7.272 7.437a.469.469 0 0 1-.56.079.444.444 0 0 1-.195-.219.424.424 0 0 1-.01-.289l1.637-5.121h-3.021a.475.475 0 0 1-.25-.071.442.442 0 0 1-.168-.193.421.421 0 0 1 .087-.473l7.272-7.437a.458.458 0 0 1 .266-.133.461.461 0 0 1 .293.054v.001ZM45.801 210.864a1.563 1.563 0 0 0-.726-1.174c-.424-.278-.944-.417-1.56-.417-.452 0-.846.073-1.184.218a1.893 1.893 0 0 0-.786.602 1.44 1.44 0 0 0-.278.87c0 .272.065.506.194.701.133.192.302.353.507.482.205.126.421.231.646.314.226.079.433.144.622.193l1.034.279c.265.069.56.166.885.288.328.123.641.29.94.502.301.209.55.478.745.806.196.328.293.731.293 1.208 0 .55-.144 1.047-.432 1.491-.285.444-.703.797-1.253 1.059-.547.262-1.211.393-1.993.393-.73 0-1.361-.118-1.895-.353-.53-.235-.948-.563-1.253-.984a2.809 2.809 0 0 1-.512-1.467h1.273c.033.384.163.703.388.955.229.248.517.434.865.556.351.12.73.179 1.134.179.47 0 .893-.076 1.267-.228a2.18 2.18 0 0 0 .89-.647 1.53 1.53 0 0 0 .328-.974c0-.338-.094-.613-.283-.825a2.074 2.074 0 0 0-.746-.517 7.702 7.702 0 0 0-1-.348l-1.252-.358c-.795-.229-1.425-.556-1.89-.98-.463-.424-.695-.979-.695-1.665 0-.57.154-1.068.462-1.492.312-.427.73-.759 1.253-.994a4.225 4.225 0 0 1 1.765-.358c.656 0 1.24.118 1.75.353.51.232.915.55 1.213.955.302.404.46.863.477 1.377h-1.193Zm3.2 7.636v-7.636h1.134v1.193h.1a1.92 1.92 0 0 1 .77-.95c.355-.228.78-.343 1.278-.343.504 0 .923.115 1.258.343.338.226.601.542.79.95h.08c.195-.395.489-.708.88-.94.39-.235.86-.353 1.407-.353.682 0 1.24.214 1.675.642.434.424.651 1.085.651 1.983v5.111h-1.173v-5.111c0-.563-.154-.966-.462-1.208a1.711 1.711 0 0 0-1.09-.363c-.536 0-.952.163-1.247.487-.295.322-.442.73-.442 1.223v4.972h-1.194v-5.23c0-.434-.14-.784-.422-1.049-.282-.269-.645-.403-1.089-.403-.305 0-.59.081-.855.244a1.84 1.84 0 0 0-.636.676c-.16.285-.24.615-.24.989v4.773h-1.172Zm14.416.179c-.484 0-.923-.091-1.318-.273a2.265 2.265 0 0 1-.94-.801c-.231-.351-.347-.775-.347-1.273 0-.437.086-.792.258-1.064.172-.275.403-.49.691-.646.288-.156.607-.272.955-.348a12.03 12.03 0 0 1 1.059-.189c.464-.059.84-.104 1.128-.134.292-.033.504-.088.637-.164.135-.076.203-.209.203-.398v-.04c0-.49-.134-.871-.402-1.143-.265-.272-.668-.408-1.208-.408-.56 0-1 .123-1.318.368-.318.245-.542.507-.671.786l-1.114-.398c.2-.464.464-.825.796-1.084.335-.262.7-.444 1.094-.547a4.543 4.543 0 0 1 1.173-.159c.245 0 .527.03.845.09.322.056.631.174.93.353.301.179.552.449.75.81.2.361.299.845.299 1.452v5.031h-1.174v-1.034h-.06c-.079.166-.211.343-.397.532-.186.189-.433.35-.74.482-.309.133-.685.199-1.13.199Zm.179-1.054c.464 0 .855-.091 1.173-.273a1.87 1.87 0 0 0 .726-.706c.166-.289.248-.592.248-.91v-1.074c-.05.06-.159.114-.328.164a5.521 5.521 0 0 1-.576.124c-.216.033-.426.063-.632.09-.202.023-.366.043-.492.059-.305.04-.59.105-.855.194a1.47 1.47 0 0 0-.636.393c-.16.172-.24.408-.24.706 0 .408.152.716.453.925.305.205.691.308 1.159.308Zm5.462.875v-7.636h1.134v1.153h.08c.138-.378.39-.684.755-.92a2.227 2.227 0 0 1 1.233-.353c.086 0 .194.002.323.005.13.004.227.009.293.015v1.193c-.04-.01-.13-.024-.273-.044a2.606 2.606 0 0 0-.442-.035c-.372 0-.703.078-.995.234a1.756 1.756 0 0 0-.686.636 1.714 1.714 0 0 0-.249.92v4.832h-1.173Zm9.009-7.636v.994h-3.958v-.994h3.958Zm-2.804-1.83h1.173v7.278c0 .332.048.581.144.746.1.163.226.272.378.328.156.053.32.08.492.08.13 0 .236-.007.319-.02l.198-.04.239 1.054c-.08.03-.19.06-.333.09a2.467 2.467 0 0 1-.542.049 2.37 2.37 0 0 1-.975-.213 1.939 1.939 0 0 1-.785-.652c-.206-.291-.308-.659-.308-1.103v-7.597Zm8.665 9.466v-10.182h1.233v9.088h4.733v1.094h-5.966Zm7.716 0v-7.636h1.173v7.636h-1.173Zm.597-8.909a.834.834 0 0 1-.592-.234.751.751 0 0 1-.243-.562c0-.218.08-.406.243-.561a.834.834 0 0 1 .592-.234c.228 0 .424.078.586.234a.742.742 0 0 1 .249.561.744.744 0 0 1-.249.562.816.816 0 0 1-.586.234Zm6.126 1.273v.994H94.25v-.994h4.117Zm-2.883 7.636v-8.69c0-.438.102-.802.308-1.094a1.9 1.9 0 0 1 .8-.656 2.527 2.527 0 0 1 1.04-.219c.288 0 .523.023.705.07.182.046.318.089.408.129l-.338 1.014a5.763 5.763 0 0 0-.249-.075 1.545 1.545 0 0 0-.407-.044c-.388 0-.668.097-.84.293-.17.196-.254.482-.254.86v8.412h-1.173Zm7.415.159c-.736 0-1.371-.162-1.905-.487a3.275 3.275 0 0 1-1.228-1.372c-.285-.59-.427-1.276-.427-2.059 0-.782.142-1.471.427-2.068.289-.6.69-1.067 1.204-1.402.517-.338 1.12-.507 1.809-.507.398 0 .791.066 1.179.199.387.133.74.348 1.059.646.318.295.571.686.76 1.174.189.487.284 1.087.284 1.799v.498h-5.887v-1.015h4.693c0-.431-.086-.815-.258-1.153a1.943 1.943 0 0 0-.726-.8c-.312-.196-.679-.294-1.104-.294-.467 0-.871.116-1.213.348a2.288 2.288 0 0 0-.78.895 2.62 2.62 0 0 0-.274 1.183v.676c0 .577.1 1.066.299 1.467.202.398.482.701.84.91.358.205.774.308 1.248.308.308 0 .586-.043.835-.129.252-.09.469-.222.651-.398a1.82 1.82 0 0 0 .423-.666l1.133.318c-.119.385-.32.723-.601 1.014-.282.289-.63.514-1.044.676-.415.16-.88.239-1.397.239Z" fill="#334155"/><rect x="328" y="204" width="32" height="18" rx="9" fill="#E3EBF6"/><circle cx="337" cy="213" r="8.5" fill="#fff" stroke="#E3EBF6"/><rect y="242" width="380" height="38" rx="15" fill="#F8FAFF"/><path d="M30.955 254.06c.09.05.158.127.196.219a.42.42 0 0 1 .01.288l-1.637 5.121h3.021c.09 0 .176.025.25.071a.442.442 0 0 1 .168.193.421.421 0 0 1-.087.473l-7.272 7.437a.469.469 0 0 1-.56.079.444.444 0 0 1-.195-.219.424.424 0 0 1-.01-.289l1.637-5.121h-3.021a.475.475 0 0 1-.25-.071.442.442 0 0 1-.168-.193.421.421 0 0 1 .087-.473l7.272-7.437a.458.458 0 0 1 .266-.133.461.461 0 0 1 .293.054v.001Z" fill="url(#c)"/><path d="M39.676 257.412v-1.094h7.636v1.094h-3.201v9.088h-1.233v-9.088h-3.202Zm11.375 9.247c-.69 0-1.294-.164-1.815-.492a3.343 3.343 0 0 1-1.213-1.377c-.288-.59-.432-1.28-.432-2.068 0-.796.144-1.49.432-2.084a3.345 3.345 0 0 1 1.213-1.382c.52-.328 1.126-.492 1.815-.492.69 0 1.293.164 1.81.492.52.329.925.789 1.213 1.382.291.594.437 1.288.437 2.084 0 .788-.146 1.478-.437 2.068a3.297 3.297 0 0 1-1.213 1.377c-.517.328-1.12.492-1.81.492Zm0-1.054c.524 0 .955-.134 1.293-.403a2.37 2.37 0 0 0 .75-1.059 4.05 4.05 0 0 0 .244-1.421c0-.511-.081-.986-.244-1.427a2.406 2.406 0 0 0-.75-1.069c-.338-.272-.77-.408-1.293-.408-.523 0-.954.136-1.293.408a2.406 2.406 0 0 0-.75 1.069 4.095 4.095 0 0 0-.244 1.427c0 .51.081.984.244 1.421.162.438.412.791.75 1.059.339.269.77.403 1.293.403Zm5.251 3.759v-10.5h1.134v1.213h.14c.085-.133.205-.302.357-.507a2.09 2.09 0 0 1 .666-.557c.292-.166.686-.249 1.184-.249.642 0 1.21.161 1.7.482.49.322.873.778 1.148 1.368.275.59.413 1.286.413 2.088 0 .808-.138 1.509-.413 2.103-.275.59-.656 1.047-1.143 1.372-.487.321-1.05.482-1.686.482-.49 0-.883-.081-1.178-.244a2.183 2.183 0 0 1-.681-.561 7.55 7.55 0 0 1-.368-.527h-.1v4.037h-1.173Zm1.154-6.682c0 .577.084 1.085.253 1.526.17.438.416.781.741 1.029.325.245.723.368 1.193.368.49 0 .9-.129 1.228-.388.332-.262.58-.613.746-1.054.169-.444.254-.938.254-1.481a4.02 4.02 0 0 0-.249-1.452 2.244 2.244 0 0 0-.74-1.029c-.329-.255-.742-.383-1.239-.383-.477 0-.878.121-1.203.363-.325.239-.57.573-.736 1.004-.165.428-.248.927-.248 1.497Zm6.42-5.27v-1.094h7.636v1.094H68.31v9.088h-1.233v-9.088h-3.202Zm8.587 9.088v-7.636h1.133v1.153h.08c.139-.378.39-.684.755-.92a2.227 2.227 0 0 1 1.233-.353c.086 0 .194.002.323.005.13.004.227.009.294.015v1.193c-.04-.01-.131-.024-.274-.044a2.606 2.606 0 0 0-.442-.035c-.371 0-.703.078-.995.234a1.756 1.756 0 0 0-.686.636 1.714 1.714 0 0 0-.248.92v4.832h-1.173Zm7.456.179c-.484 0-.923-.091-1.318-.273a2.265 2.265 0 0 1-.94-.801c-.231-.351-.347-.775-.347-1.273 0-.437.086-.792.258-1.064.172-.275.403-.49.691-.646.288-.156.607-.272.955-.348.351-.079.704-.142 1.059-.189.464-.059.84-.104 1.128-.134.292-.033.504-.088.636-.164.136-.076.204-.209.204-.398v-.04c0-.49-.134-.871-.402-1.143-.266-.272-.668-.408-1.208-.408-.56 0-1 .123-1.318.368-.318.245-.542.507-.671.786l-1.114-.398c.2-.464.464-.825.796-1.084.334-.262.7-.444 1.093-.547a4.543 4.543 0 0 1 1.174-.159c.245 0 .527.03.845.09.322.056.631.174.93.353.301.179.551.449.75.81.2.361.299.845.299 1.452v5.031h-1.174v-1.034h-.06c-.079.166-.211.343-.397.532-.186.189-.432.35-.74.482-.309.133-.685.199-1.13.199Zm.179-1.054c.464 0 .855-.091 1.173-.273a1.87 1.87 0 0 0 .726-.706c.165-.289.248-.592.248-.91v-1.074c-.05.06-.159.114-.328.164a5.532 5.532 0 0 1-.576.124c-.216.033-.426.063-.632.09-.202.023-.366.043-.492.059-.305.04-.59.105-.855.194a1.47 1.47 0 0 0-.636.393c-.16.172-.24.408-.24.706 0 .408.152.716.453.925.305.205.691.308 1.159.308Zm8.346 1.034c-.637 0-1.198-.161-1.686-.482-.487-.325-.868-.782-1.143-1.372-.275-.594-.413-1.295-.413-2.103 0-.802.138-1.498.413-2.088.275-.59.658-1.046 1.148-1.368.49-.321 1.058-.482 1.7-.482.498 0 .89.083 1.179.249.291.162.514.348.666.557.156.205.277.374.363.507h.1v-3.759h1.173V266.5H90.81v-1.173h-.139a7.55 7.55 0 0 1-.368.527c-.159.208-.386.396-.681.561-.295.163-.688.244-1.178.244Zm.159-1.054c.47 0 .868-.123 1.193-.368.325-.248.572-.591.74-1.029.17-.441.254-.949.254-1.526 0-.57-.083-1.069-.248-1.497-.166-.431-.411-.765-.736-1.004-.325-.242-.726-.363-1.203-.363-.497 0-.912.128-1.243.383a2.294 2.294 0 0 0-.74 1.029 4.093 4.093 0 0 0-.245 1.452c0 .543.083 1.037.25 1.481.168.441.417.792.745 1.054.331.259.742.388 1.233.388Zm8.854 1.054c-.736 0-1.37-.162-1.904-.487a3.273 3.273 0 0 1-1.228-1.372c-.285-.59-.428-1.276-.428-2.059 0-.782.143-1.471.428-2.068.288-.6.69-1.067 1.203-1.402.517-.338 1.12-.507 1.81-.507.398 0 .79.066 1.178.199.388.133.74.348 1.06.646.317.295.571.686.76 1.174.189.487.283 1.087.283 1.799v.498h-5.886v-1.015h4.693a2.5 2.5 0 0 0-.259-1.153 1.943 1.943 0 0 0-.725-.8c-.312-.196-.68-.294-1.104-.294-.467 0-.872.116-1.213.348a2.291 2.291 0 0 0-.78.895 2.628 2.628 0 0 0-.274 1.183v.676c0 .577.1 1.066.298 1.467.202.398.482.701.84.91.358.205.774.308 1.248.308.308 0 .587-.043.835-.129a1.79 1.79 0 0 0 .652-.398c.182-.179.323-.401.422-.666l1.134.318c-.119.385-.32.723-.602 1.014-.281.289-.63.514-1.044.676-.414.16-.88.239-1.397.239Zm9.044-.159v-10.182h6.105v1.094h-4.873v3.44h4.415v1.094h-4.415v4.554h-1.232Zm8.216 0v-10.182h3.56c.709 0 1.294.123 1.755.368.461.242.804.568 1.029.979.225.408.338.861.338 1.358 0 .437-.078.798-.234 1.084-.152.285-.354.51-.606.676a2.802 2.802 0 0 1-.81.368v.099c.311.02.624.129.939.328.315.199.579.484.791.855.212.371.318.826.318 1.362 0 .511-.116.97-.348 1.378-.232.407-.598.73-1.099.969-.5.239-1.152.358-1.954.358h-3.679Zm1.233-1.094h2.446c.806 0 1.377-.156 1.716-.467a1.5 1.5 0 0 0 .512-1.144c0-.344-.088-.662-.264-.954a1.91 1.91 0 0 0-.751-.706c-.324-.179-.709-.269-1.153-.269h-2.506v3.54Zm0-4.613h2.287c.371 0 .706-.073 1.004-.219.302-.146.541-.351.716-.617.179-.265.269-.576.269-.934 0-.448-.156-.827-.467-1.139-.312-.315-.806-.472-1.482-.472h-2.327v3.381Zm13.441-1.929a1.564 1.564 0 0 0-.726-1.174c-.424-.278-.944-.417-1.561-.417-.451 0-.845.073-1.183.218a1.894 1.894 0 0 0-.786.602 1.445 1.445 0 0 0-.278.87c0 .272.065.506.194.701.132.192.301.353.507.482.205.126.421.231.646.314.226.079.433.144.622.193l1.034.279c.265.069.56.166.885.288.328.123.641.29.939.502.302.209.55.478.746.806.196.328.293.731.293 1.208 0 .55-.144 1.047-.432 1.491-.285.444-.703.797-1.253 1.059-.547.262-1.211.393-1.994.393-.729 0-1.36-.118-1.894-.353-.53-.235-.948-.563-1.253-.984a2.817 2.817 0 0 1-.512-1.467h1.273c.033.384.162.703.388.955a2.1 2.1 0 0 0 .865.556c.351.12.729.179 1.133.179.471 0 .894-.076 1.268-.228.375-.156.671-.372.89-.647.219-.278.328-.603.328-.974 0-.338-.094-.613-.283-.825a2.078 2.078 0 0 0-.746-.517 7.687 7.687 0 0 0-.999-.348l-1.253-.358c-.796-.229-1.425-.556-1.889-.98-.464-.424-.696-.979-.696-1.665 0-.57.154-1.068.462-1.492a3.073 3.073 0 0 1 1.253-.994 4.224 4.224 0 0 1 1.765-.358c.656 0 1.239.118 1.75.353.51.232.915.55 1.213.955.301.404.461.863.477 1.377h-1.193Z" fill="#334155"/><rect x="328" y="252" width="32" height="18" rx="9" fill="#E3EBF6"/><circle cx="351" cy="261" r="9" fill="#48B798"/><rect y="290" width="380" height="38" rx="15" fill="#F8FAFF"/><path d="M30.955 302.06c.09.05.158.127.196.219a.42.42 0 0 1 .01.288l-1.637 5.121h3.021c.09 0 .176.025.25.071a.442.442 0 0 1 .168.193.421.421 0 0 1-.087.473l-7.272 7.437a.469.469 0 0 1-.56.079.444.444 0 0 1-.195-.219.424.424 0 0 1-.01-.289l1.637-5.121h-3.021a.475.475 0 0 1-.25-.071.442.442 0 0 1-.168-.193.421.421 0 0 1 .087-.473l7.272-7.437a.458.458 0 0 1 .266-.133.461.461 0 0 1 .293.054v.001ZM40.233 304.318h1.472l3.46 8.452h.12l3.46-8.452h1.47V314.5h-1.153v-7.736h-.099l-3.182 7.736h-1.113l-3.182-7.736h-.1v7.736h-1.153v-10.182Zm15.498 10.341c-.736 0-1.37-.162-1.904-.487a3.273 3.273 0 0 1-1.228-1.372c-.285-.59-.428-1.276-.428-2.059 0-.782.142-1.471.428-2.068.288-.6.689-1.067 1.203-1.402.517-.338 1.12-.507 1.81-.507.397 0 .79.066 1.178.199.387.133.74.348 1.059.646.318.295.571.686.76 1.174.19.487.284 1.087.284 1.799v.498h-5.887v-1.015H57.7c0-.431-.086-.815-.258-1.153a1.944 1.944 0 0 0-.726-.8c-.312-.196-.68-.294-1.104-.294-.467 0-.871.116-1.213.348a2.29 2.29 0 0 0-.78.895 2.628 2.628 0 0 0-.274 1.183v.676c0 .577.1 1.066.299 1.467.202.398.482.701.84.91.358.205.774.308 1.248.308.308 0 .586-.043.835-.129a1.79 1.79 0 0 0 .651-.398c.182-.179.323-.401.423-.666l1.133.318c-.12.385-.32.723-.601 1.014-.282.289-.63.514-1.044.676-.415.16-.88.239-1.397.239Zm8.029 2.864c-.567 0-1.054-.073-1.462-.219a3.098 3.098 0 0 1-1.02-.567 3.087 3.087 0 0 1-.64-.746l.934-.656a7.2 7.2 0 0 0 .403.477c.162.183.384.34.666.473.285.136.658.204 1.119.204.616 0 1.125-.15 1.526-.448.401-.298.602-.765.602-1.402v-1.551h-.1a6.274 6.274 0 0 1-.368.517 2.088 2.088 0 0 1-.676.542c-.291.156-.686.234-1.183.234-.617 0-1.17-.146-1.66-.438-.488-.291-.874-.716-1.159-1.273-.282-.556-.423-1.233-.423-2.028 0-.782.138-1.463.413-2.043.275-.584.658-1.034 1.148-1.353.491-.321 1.058-.482 1.7-.482.498 0 .892.083 1.184.249.295.162.52.348.676.557.16.205.282.374.368.507h.12v-1.213h1.133v7.855c0 .656-.15 1.19-.448 1.601a2.547 2.547 0 0 1-1.193.909 4.493 4.493 0 0 1-1.66.294Zm-.04-4.196c.47 0 .868-.108 1.193-.323.325-.216.572-.526.74-.93.17-.404.254-.888.254-1.452 0-.55-.082-1.036-.248-1.457a2.191 2.191 0 0 0-.736-.989c-.325-.239-.726-.358-1.203-.358-.497 0-.911.126-1.243.378-.328.252-.575.59-.74 1.014a3.92 3.92 0 0 0-.244 1.412c0 .53.083.999.248 1.407.17.404.418.723.746.955.331.228.742.343 1.233.343Zm7.736 1.352c-.484 0-.923-.091-1.318-.273a2.265 2.265 0 0 1-.94-.801c-.231-.351-.347-.775-.347-1.273 0-.437.086-.792.258-1.064.172-.275.403-.49.691-.646.289-.156.607-.272.955-.348.351-.079.704-.142 1.059-.189.464-.059.84-.104 1.128-.134.292-.033.504-.088.637-.164.136-.076.204-.209.204-.398v-.04c0-.49-.135-.871-.403-1.143-.265-.272-.668-.408-1.208-.408-.56 0-1 .123-1.318.368-.318.245-.542.507-.67.786l-1.115-.398c.2-.464.464-.825.796-1.084.335-.262.7-.444 1.094-.547a4.544 4.544 0 0 1 1.173-.159c.245 0 .527.03.845.09.322.056.632.174.93.353.301.179.552.449.75.81.2.361.299.845.299 1.452v5.031h-1.174v-1.034h-.06c-.079.166-.211.343-.397.532-.186.189-.432.35-.74.482-.309.133-.685.199-1.13.199Zm.179-1.054c.464 0 .855-.091 1.173-.273.322-.183.563-.418.726-.706.166-.289.248-.592.248-.91v-1.074c-.05.06-.159.114-.328.164a5.532 5.532 0 0 1-.576.124c-.216.033-.426.063-.632.09-.202.023-.366.043-.492.059-.305.04-.59.105-.855.194a1.47 1.47 0 0 0-.636.393c-.16.172-.239.408-.239.706 0 .408.15.716.452.925.305.205.691.308 1.159.308Zm11.19-6.761a1.563 1.563 0 0 0-.726-1.174c-.425-.278-.945-.417-1.561-.417-.451 0-.846.073-1.184.218a1.893 1.893 0 0 0-.785.602 1.441 1.441 0 0 0-.279.87c0 .272.065.506.194.701.133.192.302.353.508.482.205.126.42.231.646.314.225.079.432.144.621.193l1.034.279c.265.069.56.166.885.288.328.123.642.29.94.502.302.209.55.478.746.806.195.328.293.731.293 1.208 0 .55-.144 1.047-.433 1.491-.285.444-.702.797-1.252 1.059-.547.262-1.212.393-1.994.393-.73 0-1.36-.118-1.894-.353-.53-.235-.948-.563-1.253-.984a2.81 2.81 0 0 1-.512-1.467h1.273c.033.384.162.703.387.955.23.248.517.434.865.556.352.12.73.179 1.134.179.47 0 .893-.076 1.268-.228a2.18 2.18 0 0 0 .89-.647 1.53 1.53 0 0 0 .328-.974c0-.338-.095-.613-.284-.825a2.074 2.074 0 0 0-.745-.517 7.712 7.712 0 0 0-1-.348l-1.252-.358c-.796-.229-1.426-.556-1.89-.98-.464-.424-.696-.979-.696-1.665 0-.57.154-1.068.463-1.492.311-.427.729-.759 1.252-.994a4.225 4.225 0 0 1 1.765-.358c.657 0 1.24.118 1.75.353.51.232.915.55 1.213.955.302.404.461.863.478 1.377h-1.193Zm6.521 0v.994H85.39v-.994h3.957Zm-2.804-1.83h1.173v7.278c0 .332.048.581.145.746.099.163.225.272.377.328.156.053.32.08.493.08.129 0 .235-.007.318-.02l.199-.04.238 1.054c-.08.03-.19.06-.333.09a2.467 2.467 0 0 1-.542.049 2.37 2.37 0 0 1-.974-.213 1.939 1.939 0 0 1-.786-.652c-.205-.291-.308-.659-.308-1.103v-7.597Zm7.59 9.625c-.69 0-1.295-.164-1.815-.492a3.342 3.342 0 0 1-1.213-1.377c-.289-.59-.433-1.28-.433-2.068 0-.796.144-1.49.432-2.084a3.344 3.344 0 0 1 1.214-1.382c.52-.328 1.125-.492 1.814-.492.69 0 1.293.164 1.81.492.52.329.925.789 1.213 1.382.292.594.437 1.288.437 2.084 0 .788-.145 1.478-.437 2.068a3.296 3.296 0 0 1-1.213 1.377c-.517.328-1.12.492-1.81.492Zm0-1.054c.523 0 .954-.134 1.292-.403.338-.268.588-.621.75-1.059a4.05 4.05 0 0 0 .244-1.421c0-.511-.081-.986-.244-1.427a2.405 2.405 0 0 0-.75-1.069c-.338-.272-.77-.408-1.293-.408-.523 0-.954.136-1.292.408a2.405 2.405 0 0 0-.751 1.069 4.095 4.095 0 0 0-.244 1.427c0 .51.082.984.244 1.421.162.438.413.791.75 1.059.339.269.77.403 1.293.403Zm5.25.895v-7.636h1.134v1.153h.08c.139-.378.391-.684.755-.92a2.229 2.229 0 0 1 1.233-.353c.086 0 .194.002.323.005.13.004.227.009.294.015v1.193a3.667 3.667 0 0 0-.274-.044 2.597 2.597 0 0 0-.442-.035 2.08 2.08 0 0 0-.995.234 1.759 1.759 0 0 0-.686.636 1.72 1.72 0 0 0-.248.92v4.832h-1.174Zm8.179.159c-.736 0-1.371-.162-1.904-.487a3.266 3.266 0 0 1-1.228-1.372c-.285-.59-.428-1.276-.428-2.059 0-.782.143-1.471.428-2.068.288-.6.689-1.067 1.203-1.402.517-.338 1.12-.507 1.809-.507.398 0 .791.066 1.179.199.387.133.74.348 1.059.646.318.295.571.686.76 1.174.189.487.284 1.087.284 1.799v.498h-5.887v-1.015h4.693c0-.431-.086-.815-.258-1.153a1.943 1.943 0 0 0-.726-.8c-.311-.196-.679-.294-1.104-.294-.467 0-.871.116-1.213.348a2.288 2.288 0 0 0-.78.895 2.632 2.632 0 0 0-.274 1.183v.676c0 .577.1 1.066.299 1.467.202.398.482.701.84.91.358.205.774.308 1.248.308.308 0 .586-.043.835-.129.252-.09.469-.222.651-.398.183-.179.323-.401.423-.666l1.133.318c-.119.385-.32.723-.601 1.014-.282.289-.63.514-1.044.676-.415.16-.88.239-1.397.239Zm9.043-.159v-10.182h6.105v1.094h-4.872v3.44h4.415v1.094h-4.415v4.554h-1.233Zm8.217 0v-10.182h3.56c.709 0 1.294.123 1.754.368.461.242.804.568 1.03.979.225.408.338.861.338 1.358 0 .437-.078.798-.234 1.084-.152.285-.355.51-.607.676a2.778 2.778 0 0 1-.81.368v.099c.312.02.625.129.94.328.315.199.578.484.79.855.212.371.318.826.318 1.362 0 .511-.116.97-.348 1.378-.232.407-.598.73-1.098.969-.501.239-1.152.358-1.954.358h-3.679Zm1.233-1.094h2.446c.805 0 1.377-.156 1.715-.467a1.5 1.5 0 0 0 .512-1.144c0-.344-.088-.662-.263-.954a1.91 1.91 0 0 0-.751-.706c-.325-.179-.709-.269-1.154-.269h-2.505v3.54Zm0-4.613h2.287c.371 0 .706-.073 1.004-.219.302-.146.54-.351.716-.617.179-.265.268-.576.268-.934 0-.448-.155-.827-.467-1.139-.312-.315-.805-.472-1.481-.472h-2.327v3.381Zm16.463.616c0 1.074-.194 2.002-.581 2.784-.388.782-.92 1.386-1.596 1.81-.676.424-1.449.636-2.317.636-.868 0-1.641-.212-2.317-.636-.676-.424-1.208-1.028-1.596-1.81-.388-.782-.581-1.71-.581-2.784 0-1.074.193-2.002.581-2.784.388-.782.92-1.385 1.596-1.81.676-.424 1.449-.636 2.317-.636.868 0 1.641.212 2.317.636.676.425 1.208 1.028 1.596 1.81.387.782.581 1.71.581 2.784Zm-1.193 0c0-.882-.147-1.626-.442-2.232-.292-.607-.688-1.066-1.189-1.377a3.077 3.077 0 0 0-1.67-.468c-.617 0-1.175.156-1.676.468-.497.311-.893.77-1.188 1.377-.291.606-.437 1.35-.437 2.232 0 .882.146 1.626.437 2.232.295.607.691 1.066 1.188 1.377a3.105 3.105 0 0 0 1.676.468c.616 0 1.173-.156 1.67-.468.501-.311.897-.77 1.189-1.377.295-.606.442-1.35.442-2.232Z" fill="#334155"/><rect x="328" y="300" width="32" height="18" rx="9" fill="#E3EBF6"/><circle cx="337" cy="309" r="8.5" fill="#fff" stroke="#E3EBF6"/><rect y="338" width="380" height="38" rx="15" fill="#F8FAFF"/><path d="M30.955 350.06c.09.05.158.127.196.219a.42.42 0 0 1 .01.288l-1.637 5.121h3.021c.09 0 .176.025.25.071a.442.442 0 0 1 .168.193.421.421 0 0 1-.087.473l-7.272 7.437a.469.469 0 0 1-.56.079.444.444 0 0 1-.195-.219.424.424 0 0 1-.01-.289l1.637-5.121h-3.021a.475.475 0 0 1-.25-.071.442.442 0 0 1-.168-.193.421.421 0 0 1 .087-.473l7.272-7.437a.458.458 0 0 1 .266-.133.461.461 0 0 1 .293.054v.001Z" fill="url(#d)"/><path d="M40.233 352.318h1.472l3.46 8.452h.12l3.46-8.452h1.47V362.5h-1.153v-7.736h-.099l-3.182 7.736h-1.113l-3.182-7.736h-.1v7.736h-1.153v-10.182ZM52.529 362.5v-7.636h1.173v7.636H52.53Zm.596-8.909a.833.833 0 0 1-.591-.234.751.751 0 0 1-.244-.562c0-.218.081-.406.244-.561a.833.833 0 0 1 .592-.234c.228 0 .424.078.586.234a.742.742 0 0 1 .249.561.744.744 0 0 1-.249.562.817.817 0 0 1-.587.234Zm8.453 1.273a1.563 1.563 0 0 0-.725-1.174c-.425-.278-.945-.417-1.562-.417-.45 0-.845.073-1.183.218a1.894 1.894 0 0 0-.785.602 1.441 1.441 0 0 0-.279.87c0 .272.065.506.194.701.133.192.302.353.507.482.206.126.421.231.647.314.225.079.432.144.621.193l1.034.279c.265.069.56.166.885.288.328.123.642.29.94.502.301.209.55.478.745.806.196.328.294.731.294 1.208 0 .55-.144 1.047-.433 1.491-.285.444-.702.797-1.253 1.059-.546.262-1.21.393-1.993.393-.73 0-1.36-.118-1.894-.353-.53-.235-.948-.563-1.253-.984a2.81 2.81 0 0 1-.512-1.467h1.273c.033.384.162.703.387.955.229.248.517.434.865.556.352.12.73.179 1.134.179.47 0 .893-.076 1.268-.228a2.18 2.18 0 0 0 .89-.647 1.53 1.53 0 0 0 .328-.974c0-.338-.095-.613-.284-.825a2.074 2.074 0 0 0-.745-.517 7.712 7.712 0 0 0-1-.348l-1.253-.358c-.795-.229-1.425-.556-1.889-.98-.464-.424-.696-.979-.696-1.665 0-.57.154-1.068.463-1.492.311-.427.729-.759 1.252-.994a4.225 4.225 0 0 1 1.765-.358c.657 0 1.24.118 1.75.353.51.232.915.55 1.213.955.302.404.461.863.478 1.377h-1.194Zm2.803-1.452v-1.094h7.637v1.094h-3.202v9.088h-1.233v-9.088H64.38Zm17.707 3.997c0 1.074-.194 2.002-.582 2.784-.388.782-.92 1.386-1.596 1.81-.676.424-1.448.636-2.317.636-.868 0-1.64-.212-2.317-.636-.676-.424-1.208-1.028-1.595-1.81-.388-.782-.582-1.71-.582-2.784 0-1.074.194-2.002.582-2.784.387-.782.92-1.385 1.596-1.81.676-.424 1.448-.636 2.316-.636.869 0 1.64.212 2.317.636.676.425 1.208 1.028 1.596 1.81.388.782.582 1.71.582 2.784Zm-1.194 0c0-.882-.147-1.626-.442-2.232-.292-.607-.688-1.066-1.188-1.377a3.078 3.078 0 0 0-1.67-.468c-.617 0-1.176.156-1.676.468-.497.311-.893.77-1.188 1.377-.292.606-.438 1.35-.438 2.232 0 .882.146 1.626.438 2.232.295.607.69 1.066 1.188 1.377.5.312 1.059.468 1.675.468.617 0 1.173-.156 1.67-.468.501-.311.897-.77 1.189-1.377.295-.606.442-1.35.442-2.232Zm3.267 5.091v-10.182h3.44c.796 0 1.448.136 1.959.408.51.268.888.638 1.133 1.109.246.47.368 1.005.368 1.605 0 .6-.122 1.132-.368 1.596-.245.464-.621.829-1.128 1.094-.507.262-1.155.393-1.944.393h-2.784v-1.114h2.744c.544 0 .981-.079 1.313-.239.334-.159.576-.384.725-.676.153-.295.23-.646.23-1.054 0-.407-.077-.764-.23-1.069a1.565 1.565 0 0 0-.73-.706c-.335-.169-.778-.253-1.328-.253h-2.167v9.088H84.16Zm4.792-4.574 2.506 4.574h-1.432l-2.466-4.574h1.392Zm4.163 4.574v-10.182h6.145v1.094h-4.912v3.44h4.593v1.094H94.35v3.46h4.991v1.094h-6.224Zm12.304 0v-10.182h6.106v1.094h-4.873v3.44h4.415v1.094h-4.415v4.554h-1.233Zm8.217 0v-10.182h3.56c.709 0 1.294.123 1.755.368.461.242.804.568 1.029.979.225.408.338.861.338 1.358 0 .437-.078.798-.234 1.084-.152.285-.354.51-.606.676a2.802 2.802 0 0 1-.81.368v.099c.311.02.624.129.939.328.315.199.578.484.791.855.212.371.318.826.318 1.362 0 .511-.116.97-.348 1.378-.232.407-.598.73-1.099.969-.5.239-1.152.358-1.954.358h-3.679Zm1.233-1.094h2.446c.806 0 1.377-.156 1.715-.467.342-.315.513-.696.513-1.144 0-.344-.088-.662-.264-.954a1.91 1.91 0 0 0-.751-.706c-.325-.179-.709-.269-1.153-.269h-2.506v3.54Zm0-4.613h2.287c.371 0 .706-.073 1.004-.219.302-.146.541-.351.716-.617.179-.265.269-.576.269-.934a1.55 1.55 0 0 0-.468-1.139c-.311-.315-.805-.472-1.481-.472h-2.327v3.381Zm13.441-1.929a1.564 1.564 0 0 0-.726-1.174c-.424-.278-.945-.417-1.561-.417-.451 0-.845.073-1.183.218a1.894 1.894 0 0 0-.786.602 1.445 1.445 0 0 0-.278.87c0 .272.064.506.194.701.132.192.301.353.507.482.205.126.421.231.646.314.225.079.433.144.622.193l1.034.279c.265.069.56.166.885.288.328.123.641.29.939.502.302.209.55.478.746.806.196.328.293.731.293 1.208 0 .55-.144 1.047-.432 1.491-.285.444-.703.797-1.253 1.059-.547.262-1.211.393-1.994.393-.729 0-1.36-.118-1.894-.353-.53-.235-.948-.563-1.253-.984a2.817 2.817 0 0 1-.512-1.467h1.273c.033.384.162.703.388.955.228.248.517.434.865.556.351.12.729.179 1.133.179.471 0 .894-.076 1.268-.228.375-.156.671-.372.89-.647.219-.278.328-.603.328-.974 0-.338-.094-.613-.283-.825a2.078 2.078 0 0 0-.746-.517 7.687 7.687 0 0 0-.999-.348l-1.253-.358c-.796-.229-1.425-.556-1.889-.98-.464-.424-.696-.979-.696-1.665 0-.57.154-1.068.462-1.492a3.073 3.073 0 0 1 1.253-.994 4.224 4.224 0 0 1 1.765-.358c.656 0 1.239.118 1.75.353.51.232.915.55 1.213.955.301.404.461.863.477 1.377h-1.193Z" fill="#334155"/><rect x="328" y="348" width="32" height="18" rx="9" fill="#E3EBF6"/><circle cx="351" cy="357" r="9" fill="#48B798"/><rect y="386" width="380" height="38" rx="15" fill="#F8FAFF"/><path d="M30.955 398.06c.09.05.158.127.196.219a.42.42 0 0 1 .01.288l-1.637 5.121h3.021c.09 0 .176.025.25.071a.442.442 0 0 1 .168.193.421.421 0 0 1-.087.473l-7.272 7.437a.469.469 0 0 1-.56.079.444.444 0 0 1-.195-.219.424.424 0 0 1-.01-.289l1.637-5.121h-3.021a.475.475 0 0 1-.25-.071.442.442 0 0 1-.168-.193.421.421 0 0 1 .087-.473l7.272-7.437a.458.458 0 0 1 .266-.133.461.461 0 0 1 .293.054v.001ZM40.233 400.318h1.472l3.46 8.452h.12l3.46-8.452h1.47V410.5h-1.153v-7.736h-.099l-3.182 7.736h-1.113l-3.182-7.736h-.1v7.736h-1.153v-10.182ZM52.529 410.5v-7.636h1.173v7.636H52.53Zm.596-8.909a.833.833 0 0 1-.591-.234.751.751 0 0 1-.244-.562c0-.218.081-.406.244-.561a.833.833 0 0 1 .592-.234c.228 0 .424.078.586.234a.742.742 0 0 1 .249.561.744.744 0 0 1-.249.562.817.817 0 0 1-.587.234Zm2.328-.179v-1.094h7.637v1.094h-3.202v9.088h-1.233v-9.088h-3.202Zm9.54 9.088v-10.182h3.44c.795 0 1.448.136 1.959.408.51.268.888.638 1.133 1.109.246.47.368 1.005.368 1.605 0 .6-.122 1.132-.368 1.596-.245.464-.621.829-1.128 1.094-.507.262-1.155.393-1.944.393h-2.784v-1.114h2.744c.544 0 .981-.079 1.313-.239.334-.159.576-.384.725-.676.153-.295.23-.646.23-1.054 0-.407-.077-.764-.23-1.069a1.564 1.564 0 0 0-.73-.706c-.335-.169-.778-.253-1.328-.253h-2.167v9.088h-1.233Zm4.792-4.574 2.506 4.574h-1.432l-2.466-4.574h1.392Zm4.58 4.574h-1.292l3.738-10.182h1.273l3.739 10.182H80.53l-3.042-8.571h-.08l-3.043 8.571Zm.478-3.977h5.21v1.093h-5.21v-1.093ZM86.55 410.5h-3.142v-10.182h3.281c.988 0 1.833.204 2.535.612a4.002 4.002 0 0 1 1.616 1.745c.375.755.562 1.66.562 2.714 0 1.061-.189 1.974-.567 2.74a4.032 4.032 0 0 1-1.65 1.759c-.723.408-1.601.612-2.635.612Zm-1.91-1.094h1.83c.842 0 1.54-.162 2.093-.487a3.003 3.003 0 0 0 1.238-1.387c.272-.6.408-1.314.408-2.143 0-.822-.134-1.529-.403-2.123a2.972 2.972 0 0 0-1.203-1.372c-.534-.321-1.198-.482-1.994-.482h-1.968v7.994Zm8.83 1.094v-10.182h6.145v1.094h-4.912v3.44h4.594v1.094h-4.594v3.46h4.992v1.094H93.47Zm12.305 0v-10.182h6.105v1.094h-4.872v3.44h4.415v1.094h-4.415v4.554h-1.233Zm8.217 0v-10.182h3.559c.71 0 1.295.123 1.755.368.461.242.804.568 1.029.979.226.408.339.861.339 1.358 0 .437-.078.798-.234 1.084-.153.285-.355.51-.607.676a2.778 2.778 0 0 1-.81.368v.099c.312.02.625.129.94.328.314.199.578.484.79.855.212.371.318.826.318 1.362 0 .511-.116.97-.348 1.378-.232.407-.598.73-1.098.969-.501.239-1.152.358-1.954.358h-3.679Zm1.233-1.094h2.446c.805 0 1.377-.156 1.715-.467a1.5 1.5 0 0 0 .512-1.144c0-.344-.088-.662-.264-.954a1.901 1.901 0 0 0-.75-.706c-.325-.179-.71-.269-1.154-.269h-2.505v3.54Zm0-4.613h2.287c.371 0 .706-.073 1.004-.219.301-.146.54-.351.716-.617.179-.265.268-.576.268-.934 0-.448-.156-.827-.467-1.139-.312-.315-.805-.472-1.482-.472h-2.326v3.381Zm13.44-1.929a1.56 1.56 0 0 0-.725-1.174c-.425-.278-.945-.417-1.562-.417-.45 0-.845.073-1.183.218a1.89 1.89 0 0 0-.785.602 1.439 1.439 0 0 0-.279.87c0 .272.065.506.194.701.133.192.302.353.507.482.206.126.421.231.647.314.225.079.432.144.621.193l1.034.279c.265.069.56.166.885.288.328.123.641.29.94.502.301.209.55.478.745.806.196.328.294.731.294 1.208 0 .55-.144 1.047-.433 1.491-.285.444-.702.797-1.253 1.059-.546.262-1.211.393-1.993.393-.729 0-1.361-.118-1.894-.353-.531-.235-.948-.563-1.253-.984a2.8 2.8 0 0 1-.512-1.467h1.272c.034.384.163.703.388.955a2.1 2.1 0 0 0 .865.556c.352.12.729.179 1.134.179.47 0 .893-.076 1.268-.228.374-.156.671-.372.889-.647a1.53 1.53 0 0 0 .329-.974c0-.338-.095-.613-.284-.825a2.069 2.069 0 0 0-.746-.517 7.687 7.687 0 0 0-.999-.348l-1.253-.358c-.795-.229-1.425-.556-1.889-.98-.464-.424-.696-.979-.696-1.665 0-.57.154-1.068.462-1.492a3.08 3.08 0 0 1 1.253-.994 4.227 4.227 0 0 1 1.765-.358c.656 0 1.24.118 1.75.353.511.232.915.55 1.213.955.302.404.461.863.478 1.377h-1.194Z" fill="#334155"/><rect x="328" y="396" width="32" height="18" rx="9" fill="#E3EBF6"/><circle cx="337" cy="405" r="8.5" fill="#fff" stroke="#E3EBF6"/><rect y="434" width="380" height="38" rx="15" fill="#F8FAFF"/><path d="M30.955 446.06c.09.05.158.127.196.219a.42.42 0 0 1 .01.288l-1.637 5.121h3.021c.09 0 .176.025.25.071a.442.442 0 0 1 .168.193.421.421 0 0 1-.087.473l-7.272 7.437a.469.469 0 0 1-.56.079.444.444 0 0 1-.195-.219.424.424 0 0 1-.01-.289l1.637-5.121h-3.021a.475.475 0 0 1-.25-.071.442.442 0 0 1-.168-.193.421.421 0 0 1 .087-.473l7.272-7.437a.458.458 0 0 1 .266-.133.461.461 0 0 1 .293.054v.001Z" fill="url(#e)"/><path d="M40.233 448.318h1.472l3.46 8.452h.12l3.46-8.452h1.47V458.5h-1.153v-7.736h-.099l-3.182 7.736h-1.113l-3.182-7.736h-.1v7.736h-1.153v-10.182ZM52.529 458.5v-7.636h1.173v7.636H52.53Zm.596-8.909a.833.833 0 0 1-.591-.234.751.751 0 0 1-.244-.562c0-.218.081-.406.244-.561a.833.833 0 0 1 .592-.234c.228 0 .424.078.586.234a.742.742 0 0 1 .249.561.744.744 0 0 1-.249.562.817.817 0 0 1-.587.234Zm8.453 1.273a1.563 1.563 0 0 0-.725-1.174c-.425-.278-.945-.417-1.562-.417-.45 0-.845.073-1.183.218a1.894 1.894 0 0 0-.785.602 1.441 1.441 0 0 0-.279.87c0 .272.065.506.194.701.133.192.302.353.507.482.206.126.421.231.647.314.225.079.432.144.621.193l1.034.279c.265.069.56.166.885.288.328.123.642.29.94.502.301.209.55.478.745.806.196.328.294.731.294 1.208 0 .55-.144 1.047-.433 1.491-.285.444-.702.797-1.253 1.059-.546.262-1.21.393-1.993.393-.73 0-1.36-.118-1.894-.353-.53-.235-.948-.563-1.253-.984a2.81 2.81 0 0 1-.512-1.467h1.273c.033.384.162.703.387.955.229.248.517.434.865.556.352.12.73.179 1.134.179.47 0 .893-.076 1.268-.228a2.18 2.18 0 0 0 .89-.647 1.53 1.53 0 0 0 .328-.974c0-.338-.095-.613-.284-.825a2.074 2.074 0 0 0-.745-.517 7.712 7.712 0 0 0-1-.348l-1.253-.358c-.795-.229-1.425-.556-1.889-.98-.464-.424-.696-.979-.696-1.665 0-.57.154-1.068.463-1.492.311-.427.729-.759 1.252-.994a4.225 4.225 0 0 1 1.765-.358c.657 0 1.24.118 1.75.353.51.232.915.55 1.213.955.302.404.461.863.478 1.377h-1.194Zm2.803-1.452v-1.094h7.637v1.094h-3.202v9.088h-1.233v-9.088H64.38Zm17.707 3.997c0 1.074-.194 2.002-.582 2.784-.388.782-.92 1.386-1.596 1.81-.676.424-1.448.636-2.317.636-.868 0-1.64-.212-2.317-.636-.676-.424-1.208-1.028-1.595-1.81-.388-.782-.582-1.71-.582-2.784 0-1.074.194-2.002.582-2.784.387-.782.92-1.385 1.596-1.81.676-.424 1.448-.636 2.316-.636.869 0 1.64.212 2.317.636.676.425 1.208 1.028 1.596 1.81.388.782.582 1.71.582 2.784Zm-1.194 0c0-.882-.147-1.626-.442-2.232-.292-.607-.688-1.066-1.188-1.377a3.078 3.078 0 0 0-1.67-.468c-.617 0-1.176.156-1.676.468-.497.311-.893.77-1.188 1.377-.292.606-.438 1.35-.438 2.232 0 .882.146 1.626.438 2.232.295.607.69 1.066 1.188 1.377.5.312 1.059.468 1.675.468.617 0 1.173-.156 1.67-.468.501-.311.897-.77 1.189-1.377.295-.606.442-1.35.442-2.232Zm3.267 5.091v-10.182h3.44c.796 0 1.448.136 1.959.408.51.268.888.638 1.133 1.109.246.47.368 1.005.368 1.605 0 .6-.122 1.132-.368 1.596-.245.464-.621.829-1.128 1.094-.507.262-1.155.393-1.944.393h-2.784v-1.114h2.744c.544 0 .981-.079 1.313-.239.334-.159.576-.384.725-.676.153-.295.23-.646.23-1.054 0-.407-.077-.764-.23-1.069a1.565 1.565 0 0 0-.73-.706c-.335-.169-.778-.253-1.328-.253h-2.167v9.088H84.16Zm4.792-4.574 2.506 4.574h-1.432l-2.466-4.574h1.392Zm4.163 4.574v-10.182h6.145v1.094h-4.912v3.44h4.593v1.094H94.35v3.46h4.991v1.094h-6.224Zm12.304 0v-10.182h6.106v1.094h-4.873v3.44h4.415v1.094h-4.415v4.554h-1.233Zm8.217 0v-10.182h3.56c.709 0 1.294.123 1.755.368.461.242.804.568 1.029.979.225.408.338.861.338 1.358 0 .437-.078.798-.234 1.084-.152.285-.354.51-.606.676a2.802 2.802 0 0 1-.81.368v.099c.311.02.624.129.939.328.315.199.578.484.791.855.212.371.318.826.318 1.362 0 .511-.116.97-.348 1.378-.232.407-.598.73-1.099.969-.5.239-1.152.358-1.954.358h-3.679Zm1.233-1.094h2.446c.806 0 1.377-.156 1.715-.467.342-.315.513-.696.513-1.144 0-.344-.088-.662-.264-.954a1.91 1.91 0 0 0-.751-.706c-.325-.179-.709-.269-1.153-.269h-2.506v3.54Zm0-4.613h2.287c.371 0 .706-.073 1.004-.219.302-.146.541-.351.716-.617.179-.265.269-.576.269-.934a1.55 1.55 0 0 0-.468-1.139c-.311-.315-.805-.472-1.481-.472h-2.327v3.381Zm16.464.616c0 1.074-.194 2.002-.582 2.784-.388.782-.92 1.386-1.596 1.81-.676.424-1.448.636-2.317.636-.868 0-1.64-.212-2.316-.636-.677-.424-1.209-1.028-1.596-1.81-.388-.782-.582-1.71-.582-2.784 0-1.074.194-2.002.582-2.784.387-.782.919-1.385 1.596-1.81.676-.424 1.448-.636 2.316-.636.869 0 1.641.212 2.317.636.676.425 1.208 1.028 1.596 1.81.388.782.582 1.71.582 2.784Zm-1.194 0c0-.882-.147-1.626-.442-2.232-.292-.607-.688-1.066-1.188-1.377a3.078 3.078 0 0 0-1.671-.468c-.616 0-1.175.156-1.675.468-.497.311-.893.77-1.188 1.377-.292.606-.438 1.35-.438 2.232 0 .882.146 1.626.438 2.232.295.607.691 1.066 1.188 1.377.5.312 1.059.468 1.675.468.617 0 1.174-.156 1.671-.468.5-.311.896-.77 1.188-1.377.295-.606.442-1.35.442-2.232Z" fill="#334155"/><rect x="328" y="444" width="32" height="18" rx="9" fill="#E3EBF6"/><circle cx="351" cy="453" r="9" fill="#48B798"/><defs><linearGradient id="a" x1="23.285" y1="47.106" x2="37.587" y2="47.289" gradientUnits="userSpaceOnUse"><stop stop-color="#48B798"/><stop offset="1" stop-color="#4D9DC6"/></linearGradient><linearGradient id="b" x1="23.285" y1="143.106" x2="37.587" y2="143.289" gradientUnits="userSpaceOnUse"><stop stop-color="#48B798"/><stop offset="1" stop-color="#4D9DC6"/></linearGradient><linearGradient id="c" x1="23.285" y1="239.106" x2="37.587" y2="239.289" gradientUnits="userSpaceOnUse"><stop stop-color="#48B798"/><stop offset="1" stop-color="#4D9DC6"/></linearGradient><linearGradient id="d" x1="23.285" y1="335.106" x2="37.587" y2="335.289" gradientUnits="userSpaceOnUse"><stop stop-color="#48B798"/><stop offset="1" stop-color="#4D9DC6"/></linearGradient><linearGradient id="e" x1="23.285" y1="431.106" x2="37.587" y2="431.289" gradientUnits="userSpaceOnUse"><stop stop-color="#48B798"/><stop offset="1" stop-color="#4D9DC6"/></linearGradient></defs></svg>