<svg width="380" height="472" viewBox="0 0 380 472" fill="none" xmlns="http://www.w3.org/2000/svg">
<path d="M4.95384 33H0.735085L8.41619 11.1818H13.2955L20.9872 33H16.7685L10.9411 15.6562H10.7706L4.95384 33ZM5.09233 24.4453H16.598V27.62H5.09233V24.4453ZM22.7905 33V16.6364H26.6471V23.2415H28.0533L32.9752 16.6364H37.6201L31.5583 24.669L37.684 33H33.0178L28.5327 26.8317H26.6471V33H22.7905ZM38.9706 33V16.6364H42.8271V23.2415H44.2334L49.1553 16.6364H53.8001L47.7384 24.669L53.8641 33H49.1979L44.7128 26.8317H42.8271V33H38.9706ZM59.8595 33.3303C58.8225 33.3303 57.8886 33.1456 57.0576 32.7763C56.2338 32.3999 55.5804 31.8459 55.0974 31.1143C54.6216 30.3828 54.3836 29.4808 54.3836 28.4084C54.3836 27.4851 54.5541 26.7216 54.895 26.1179C55.2359 25.5142 55.7011 25.0312 56.2906 24.669C56.8801 24.3068 57.5441 24.0334 58.2828 23.8487C59.0285 23.657 59.7991 23.5185 60.5946 23.4332C61.5534 23.3338 62.3311 23.245 62.9277 23.1669C63.5243 23.0817 63.9575 22.9538 64.2274 22.7834C64.5044 22.6058 64.6429 22.3324 64.6429 21.9631V21.8991C64.6429 21.0966 64.4049 20.4751 63.9291 20.0348C63.4532 19.5945 62.7679 19.3743 61.873 19.3743C60.9284 19.3743 60.1791 19.5803 59.6251 19.9922C59.0782 20.4041 58.7089 20.8906 58.5172 21.4517L54.9163 20.9403C55.2004 19.946 55.6691 19.1151 56.3225 18.4474C56.976 17.7727 57.775 17.2685 58.7196 16.9347C59.6642 16.5938 60.7082 16.4233 61.8517 16.4233C62.64 16.4233 63.4248 16.5156 64.2061 16.7003C64.9873 16.8849 65.7011 17.1903 66.3474 17.6165C66.9937 18.0355 67.5122 18.6072 67.9028 19.3317C68.3005 20.0561 68.4994 20.9616 68.4994 22.0483V33H64.792V30.7521H64.6642C64.4298 31.2067 64.0995 31.6328 63.6734 32.0305C63.2544 32.4212 62.7252 32.7372 62.086 32.9787C61.4539 33.2131 60.7118 33.3303 59.8595 33.3303ZM60.8609 30.4964C61.635 30.4964 62.3062 30.3437 62.8744 30.0384C63.4426 29.7259 63.8794 29.3139 64.1848 28.8026C64.4973 28.2912 64.6535 27.7337 64.6535 27.13V25.2017C64.5328 25.3011 64.3268 25.3935 64.0356 25.4787C63.7515 25.5639 63.4319 25.6385 63.0768 25.7024C62.7217 25.7663 62.3701 25.8232 62.0221 25.8729C61.6741 25.9226 61.3723 25.9652 61.1166 26.0007C60.5413 26.0788 60.0264 26.2067 59.5718 26.3842C59.1173 26.5618 58.7586 26.8104 58.4958 27.13C58.2331 27.4425 58.1017 27.8473 58.1017 28.3445C58.1017 29.0547 58.3609 29.5909 58.8794 29.9531C59.3978 30.3153 60.0583 30.4964 60.8609 30.4964ZM73.2883 39.1364C72.7628 39.1364 72.2762 39.0938 71.8288 39.0085C71.3885 38.9304 71.0369 38.8381 70.7741 38.7315L71.669 35.7273C72.2301 35.8906 72.7308 35.9688 73.1711 35.9616C73.6115 35.9545 73.9985 35.8161 74.3324 35.5462C74.6733 35.2834 74.9609 34.843 75.1953 34.2251L75.5255 33.3409L69.5916 16.6364H73.6825L77.4538 28.9943H77.6243L81.4062 16.6364H85.5078L78.9559 34.9815C78.6505 35.848 78.2457 36.5902 77.7414 37.2081C77.2372 37.8331 76.6193 38.3089 75.8878 38.6357C75.1633 38.9695 74.2968 39.1364 73.2883 39.1364ZM98.5158 23.2202V26.3842H89.8013V23.2202H98.5158ZM90.9945 16.6364V33H87.2765V16.6364H90.9945ZM101.041 16.6364V33H97.3333V16.6364H101.041ZM102.21 19.8004V16.6364H116.528V19.8004H111.234V33H107.505V19.8004H102.21ZM121.309 21.9631H126.135C128.223 21.9631 129.839 22.4709 130.982 23.4865C132.126 24.5021 132.701 25.8338 132.708 27.4815C132.701 28.554 132.438 29.5057 131.92 30.3366C131.409 31.1676 130.663 31.821 129.683 32.2969C128.71 32.7656 127.527 33 126.135 33H118.699V16.6364H122.417V29.8359H126.135C126.973 29.8359 127.662 29.6229 128.202 29.1967C128.742 28.7635 129.012 28.2095 129.012 27.5348C129.012 26.8246 128.742 26.2457 128.202 25.7983C127.662 25.3509 126.973 25.1271 126.135 25.1271H121.309V21.9631ZM134.743 33V16.6364H138.6V33H134.743Z" fill="#48B798"/>
<rect x="273" y="5" width="107" height="30" rx="15" fill="#F8FAFF"/>
<path d="M301.5 20.375H297.125V16H295.875V20.375H291.5V21.625H295.875V26H297.125V21.625H301.5V20.375Z" fill="#6E84A3"/>
<path d="M309.807 26.6136V23.5625H310.369C310.563 23.3864 310.744 23.1378 310.915 22.8168C311.088 22.4929 311.234 22.0611 311.354 21.5213C311.476 20.9787 311.557 20.2898 311.597 19.4545L311.784 15.7727H316.966V23.5625H317.972V26.5966H316.966V24.5H310.812V26.6136H309.807ZM311.631 23.5625H315.96V16.7102H312.739L312.602 19.4545C312.568 20.0909 312.509 20.6676 312.423 21.1847C312.338 21.6989 312.229 22.1548 312.095 22.5526C311.962 22.9474 311.807 23.2841 311.631 23.5625ZM322.091 24.6364C321.5 24.6364 320.982 24.4957 320.536 24.2145C320.093 23.9332 319.746 23.5398 319.496 23.0341C319.249 22.5284 319.125 21.9375 319.125 21.2614C319.125 20.5795 319.249 19.9844 319.496 19.4759C319.746 18.9673 320.093 18.5724 320.536 18.2912C320.982 18.0099 321.5 17.8693 322.091 17.8693C322.682 17.8693 323.199 18.0099 323.642 18.2912C324.088 18.5724 324.435 18.9673 324.682 19.4759C324.932 19.9844 325.057 20.5795 325.057 21.2614C325.057 21.9375 324.932 22.5284 324.682 23.0341C324.435 23.5398 324.088 23.9332 323.642 24.2145C323.199 24.4957 322.682 24.6364 322.091 24.6364ZM322.091 23.733C322.54 23.733 322.909 23.6179 323.199 23.3878C323.489 23.1577 323.703 22.8551 323.843 22.4801C323.982 22.1051 324.051 21.6989 324.051 21.2614C324.051 20.8239 323.982 20.4162 323.843 20.0384C323.703 19.6605 323.489 19.3551 323.199 19.1222C322.909 18.8892 322.54 18.7727 322.091 18.7727C321.642 18.7727 321.273 18.8892 320.983 19.1222C320.694 19.3551 320.479 19.6605 320.34 20.0384C320.201 20.4162 320.131 20.8239 320.131 21.2614C320.131 21.6989 320.201 22.1051 320.34 22.4801C320.479 22.8551 320.694 23.1577 320.983 23.3878C321.273 23.6179 321.642 23.733 322.091 23.733ZM331.45 15.5L331.962 16.1136C331.763 16.3068 331.533 16.4418 331.271 16.5185C331.01 16.5952 330.714 16.642 330.385 16.6591C330.055 16.6761 329.689 16.6932 329.286 16.7102C328.831 16.7273 328.455 16.8381 328.156 17.0426C327.858 17.2472 327.628 17.5426 327.466 17.929C327.304 18.3153 327.2 18.7898 327.155 19.3523H327.24C327.462 18.9432 327.768 18.642 328.161 18.4489C328.553 18.2557 328.973 18.1591 329.422 18.1591C329.933 18.1591 330.393 18.2784 330.803 18.517C331.212 18.7557 331.536 19.1094 331.774 19.5781C332.013 20.0469 332.132 20.625 332.132 21.3125C332.132 21.9972 332.01 22.5881 331.766 23.0852C331.524 23.5824 331.185 23.9659 330.747 24.2358C330.313 24.5028 329.803 24.6364 329.217 24.6364C328.632 24.6364 328.119 24.4986 327.679 24.223C327.239 23.9446 326.896 23.5327 326.652 22.9872C326.408 22.4389 326.286 21.7614 326.286 20.9545V20.2557C326.286 18.7983 326.533 17.6932 327.027 16.9403C327.524 16.1875 328.271 15.7983 329.268 15.7727C329.621 15.7614 329.935 15.7585 330.21 15.7642C330.486 15.7699 330.726 15.7571 330.93 15.7259C331.135 15.6946 331.308 15.6193 331.45 15.5ZM329.217 23.733C329.612 23.733 329.952 23.6335 330.236 23.4347C330.523 23.2358 330.743 22.956 330.896 22.5952C331.05 22.2315 331.126 21.804 331.126 21.3125C331.126 20.8352 331.048 20.429 330.892 20.0938C330.739 19.7585 330.518 19.5028 330.232 19.3267C329.945 19.1506 329.601 19.0625 329.2 19.0625C328.908 19.0625 328.645 19.1122 328.412 19.2116C328.179 19.3111 327.98 19.4574 327.815 19.6506C327.651 19.8437 327.523 20.0795 327.432 20.358C327.344 20.6364 327.297 20.9545 327.291 21.3125C327.291 22.0455 327.463 22.6321 327.807 23.0724C328.151 23.5128 328.621 23.733 329.217 23.733ZM335.597 24.6534C335.182 24.6534 334.805 24.5753 334.467 24.419C334.129 24.2599 333.861 24.0312 333.662 23.733C333.463 23.4318 333.364 23.0682 333.364 22.642C333.364 22.267 333.438 21.9631 333.585 21.7301C333.733 21.4943 333.93 21.3097 334.178 21.1761C334.425 21.0426 334.697 20.9432 334.996 20.8778C335.297 20.8097 335.599 20.7557 335.903 20.7159C336.301 20.6648 336.624 20.6264 336.871 20.6009C337.121 20.5724 337.303 20.5256 337.416 20.4602C337.533 20.3949 337.591 20.2812 337.591 20.1193V20.0852C337.591 19.6648 337.476 19.3381 337.246 19.1051C337.018 18.8722 336.673 18.7557 336.21 18.7557C335.73 18.7557 335.354 18.8608 335.081 19.071C334.808 19.2812 334.616 19.5057 334.506 19.7443L333.551 19.4034C333.722 19.0057 333.949 18.696 334.233 18.4744C334.52 18.25 334.832 18.0937 335.17 18.0057C335.511 17.9148 335.847 17.8693 336.176 17.8693C336.386 17.8693 336.628 17.8949 336.901 17.946C337.176 17.9943 337.442 18.0952 337.697 18.2486C337.956 18.402 338.17 18.6335 338.341 18.9432C338.511 19.2528 338.597 19.6676 338.597 20.1875V24.5H337.591V23.6136H337.54C337.472 23.7557 337.358 23.9077 337.199 24.0696C337.04 24.2315 336.828 24.3693 336.564 24.483C336.3 24.5966 335.977 24.6534 335.597 24.6534ZM335.75 23.75C336.148 23.75 336.483 23.6719 336.756 23.5156C337.031 23.3594 337.239 23.1577 337.378 22.9105C337.52 22.6634 337.591 22.4034 337.591 22.1307V21.2102C337.548 21.2614 337.455 21.3082 337.31 21.3509C337.168 21.3906 337.003 21.4261 336.815 21.4574C336.631 21.4858 336.45 21.5114 336.274 21.5341C336.101 21.554 335.96 21.571 335.852 21.5852C335.591 21.6193 335.347 21.6747 335.119 21.7514C334.895 21.8253 334.713 21.9375 334.574 22.0881C334.438 22.2358 334.369 22.4375 334.369 22.6932C334.369 23.0426 334.499 23.3068 334.757 23.4858C335.018 23.6619 335.349 23.75 335.75 23.75ZM340.432 24.5V17.9545H343.108C343.813 17.9545 344.373 18.1136 344.787 18.4318C345.202 18.75 345.409 19.1705 345.409 19.6932C345.409 20.0909 345.292 20.3991 345.056 20.6179C344.82 20.8338 344.517 20.9801 344.148 21.0568C344.39 21.0909 344.624 21.1761 344.851 21.3125C345.081 21.4489 345.272 21.6364 345.422 21.875C345.573 22.1108 345.648 22.4006 345.648 22.7443C345.648 23.0795 345.563 23.3793 345.392 23.6435C345.222 23.9077 344.978 24.1165 344.659 24.2699C344.341 24.4233 343.961 24.5 343.517 24.5H340.432ZM341.387 23.5795H343.517C343.864 23.5795 344.135 23.4972 344.331 23.3324C344.527 23.1676 344.625 22.9432 344.625 22.6591C344.625 22.321 344.527 22.0554 344.331 21.8622C344.135 21.6662 343.864 21.5682 343.517 21.5682H341.387V23.5795ZM341.387 20.6989H343.108C343.378 20.6989 343.61 20.6619 343.803 20.5881C343.996 20.5114 344.144 20.4034 344.246 20.2642C344.351 20.1222 344.404 19.9545 344.404 19.7614C344.404 19.4858 344.289 19.2699 344.059 19.1136C343.828 18.9545 343.512 18.875 343.108 18.875H341.387V20.6989ZM348.176 23.017L351.33 17.9545H352.489V24.5H351.483V19.4375L348.347 24.5H347.17V17.9545H348.176V23.017ZM353.44 18.892V17.9545H358.758V18.892H356.61V24.5H355.605V18.892H353.44ZM361.094 20.3239H362.969C363.737 20.3239 364.323 20.5185 364.729 20.9077C365.136 21.2969 365.339 21.7898 365.339 22.3864C365.339 22.7784 365.248 23.1349 365.066 23.456C364.884 23.7741 364.617 24.0284 364.265 24.2188C363.913 24.4062 363.481 24.5 362.969 24.5H360.225V17.9545H361.231V23.5625H362.969C363.367 23.5625 363.694 23.4574 363.95 23.2472C364.205 23.0369 364.333 22.767 364.333 22.4375C364.333 22.0909 364.205 21.8082 363.95 21.5895C363.694 21.3707 363.367 21.2614 362.969 21.2614H361.094V20.3239Z" fill="#6E84A3"/>
<rect y="50" width="380" height="38" rx="15" fill="#F8FAFF"/>
<path d="M30.9553 62.0599C31.0443 62.1095 31.1132 62.1867 31.1506 62.2789C31.1881 62.3711 31.192 62.4728 31.1617 62.5674L29.5245 67.6876H32.5453C32.6341 67.6875 32.7209 67.7125 32.7951 67.7594C32.8693 67.8064 32.9276 67.8732 32.9628 67.9516C32.998 68.0301 33.0085 68.1167 32.9931 68.2009C32.9777 68.285 32.9371 68.363 32.8762 68.4251L25.6037 75.8622C25.5334 75.9342 25.4397 75.9812 25.3381 75.9954C25.2364 76.0097 25.1328 75.9904 25.044 75.9406C24.9552 75.8909 24.8865 75.8137 24.8492 75.7216C24.8118 75.6295 24.808 75.528 24.8383 75.4335L26.4755 70.3124H23.4547C23.3659 70.3124 23.2791 70.2875 23.2049 70.2405C23.1307 70.1936 23.0724 70.1268 23.0372 70.0484C23.002 69.9699 22.9915 69.8833 23.0069 69.7991C23.0223 69.715 23.0629 69.637 23.1238 69.5748L30.3963 62.1378C30.4666 62.0658 30.5601 62.0189 30.6616 62.0046C30.7631 61.9903 30.8666 62.0095 30.9553 62.059V62.0599Z" fill="url(#paint0_linear_14_3389)"/>
<path d="M40.233 74.5V64.3182H43.6733C44.4688 64.3182 45.1217 64.4541 45.6321 64.7259C46.1425 64.9943 46.5204 65.3639 46.7656 65.8345C47.0109 66.3052 47.1335 66.8404 47.1335 67.4403C47.1335 68.0402 47.0109 68.5722 46.7656 69.0362C46.5204 69.5002 46.1442 69.8648 45.6371 70.13C45.13 70.3918 44.482 70.5227 43.6932 70.5227H40.9091V69.4091H43.6534C44.197 69.4091 44.6345 69.3295 44.9659 69.1705C45.3007 69.0114 45.5426 68.786 45.6918 68.4943C45.8442 68.1993 45.9205 67.848 45.9205 67.4403C45.9205 67.0327 45.8442 66.6764 45.6918 66.3714C45.5393 66.0665 45.2957 65.8312 44.9609 65.6655C44.6262 65.4964 44.1837 65.4119 43.6335 65.4119H41.4659V74.5H40.233ZM45.0256 69.9261L47.5312 74.5H46.0994L43.6335 69.9261H45.0256ZM53.8414 71.3778V66.8636H55.0147V74.5H53.8414V73.2074H53.7619C53.5829 73.5952 53.3045 73.925 52.9267 74.1967C52.5488 74.4652 52.0716 74.5994 51.4949 74.5994C51.0176 74.5994 50.5933 74.495 50.2221 74.2862C49.8509 74.0741 49.5592 73.7559 49.3471 73.3317C49.135 72.9041 49.0289 72.3655 49.0289 71.7159V66.8636H50.2022V71.6364C50.2022 72.1932 50.358 72.6373 50.6696 72.9688C50.9844 73.3002 51.3855 73.4659 51.8727 73.4659C52.1644 73.4659 52.461 73.3913 52.7626 73.2422C53.0675 73.093 53.3227 72.8643 53.5282 72.5561C53.737 72.2479 53.8414 71.8551 53.8414 71.3778ZM57.1637 74.5V66.8636H58.2972V68.0568H58.3967C58.5558 67.6491 58.8126 67.3326 59.1673 67.1072C59.5219 66.8786 59.9478 66.7642 60.445 66.7642C60.9487 66.7642 61.368 66.8786 61.7028 67.1072C62.0408 67.3326 62.3043 67.6491 62.4933 68.0568H62.5728C62.7683 67.6624 63.0617 67.3492 63.4528 67.1172C63.8439 66.8819 64.3129 66.7642 64.8597 66.7642C65.5425 66.7642 66.101 66.978 66.5352 67.4055C66.9693 67.8298 67.1864 68.491 67.1864 69.3892V74.5H66.0131V69.3892C66.0131 68.8258 65.859 68.4231 65.5508 68.1811C65.2425 67.9392 64.8796 67.8182 64.462 67.8182C63.9251 67.8182 63.5091 67.9806 63.2141 68.3054C62.9192 68.6269 62.7717 69.0346 62.7717 69.5284V74.5H61.5785V69.2699C61.5785 68.8357 61.4376 68.486 61.1559 68.2209C60.8742 67.9524 60.5112 67.8182 60.0671 67.8182C59.7622 67.8182 59.4772 67.8994 59.212 68.0618C58.9502 68.2242 58.738 68.4496 58.5756 68.7379C58.4165 69.023 58.337 69.3527 58.337 69.7273V74.5H57.1637ZM69.3317 74.5V66.8636H70.505V74.5H69.3317ZM69.9283 65.5909C69.6996 65.5909 69.5024 65.513 69.3366 65.3572C69.1742 65.2015 69.093 65.0142 69.093 64.7955C69.093 64.5767 69.1742 64.3894 69.3366 64.2337C69.5024 64.0779 69.6996 64 69.9283 64C70.157 64 70.3525 64.0779 70.5149 64.2337C70.6806 64.3894 70.7635 64.5767 70.7635 64.7955C70.7635 65.0142 70.6806 65.2015 70.5149 65.3572C70.3525 65.513 70.157 65.5909 69.9283 65.5909ZM78.3812 66.8636C78.3216 66.3598 78.0796 65.9688 77.6554 65.6903C77.2311 65.4119 76.7108 65.2727 76.0943 65.2727C75.6435 65.2727 75.2491 65.3456 74.911 65.4915C74.5763 65.6373 74.3145 65.8378 74.1255 66.093C73.9399 66.3482 73.8471 66.6383 73.8471 66.9631C73.8471 67.2348 73.9118 67.4685 74.041 67.6641C74.1736 67.8563 74.3426 68.017 74.5481 68.1463C74.7536 68.2723 74.969 68.3767 75.1944 68.4595C75.4198 68.5391 75.627 68.6037 75.8159 68.6534L76.85 68.9318C77.1151 69.0014 77.4101 69.0975 77.7349 69.2202C78.063 69.3428 78.3762 69.5102 78.6745 69.7223C78.9761 69.9311 79.2247 70.1996 79.4203 70.5277C79.6158 70.8558 79.7136 71.2585 79.7136 71.7358C79.7136 72.286 79.5694 72.7831 79.2811 73.2273C78.996 73.6714 78.5784 74.0244 78.0282 74.2862C77.4814 74.5481 76.8168 74.679 76.0346 74.679C75.3055 74.679 74.6741 74.5613 74.1404 74.326C73.6101 74.0907 73.1925 73.7625 72.8876 73.3416C72.586 72.9207 72.4153 72.4318 72.3755 71.875H73.6483C73.6814 72.2595 73.8107 72.5777 74.036 72.8295C74.2647 73.0781 74.5531 73.2637 74.9011 73.3864C75.2524 73.5057 75.6303 73.5653 76.0346 73.5653C76.5053 73.5653 76.9279 73.4891 77.3024 73.3366C77.6769 73.1809 77.9735 72.9654 78.1923 72.6903C78.411 72.4119 78.5204 72.0871 78.5204 71.7159C78.5204 71.3778 78.426 71.1027 78.237 70.8906C78.0481 70.6785 77.7995 70.5062 77.4913 70.3736C77.1831 70.241 76.85 70.125 76.492 70.0256L75.2392 69.6676C74.4437 69.4389 73.814 69.1125 73.35 68.6882C72.8859 68.264 72.6539 67.7088 72.6539 67.0227C72.6539 66.4527 72.8081 65.9555 73.1163 65.5312C73.4279 65.1037 73.8455 64.7723 74.3691 64.5369C74.8961 64.2983 75.4844 64.179 76.1341 64.179C76.7903 64.179 77.3736 64.2966 77.8841 64.532C78.3945 64.764 78.7988 65.0821 79.0971 65.4865C79.3987 65.8909 79.5578 66.3499 79.5744 66.8636H78.3812ZM81.1839 65.4119V64.3182H88.8203V65.4119H85.6186V74.5H84.3857V65.4119H81.1839ZM98.8903 69.4091C98.8903 70.483 98.6964 71.411 98.3086 72.1932C97.9208 72.9754 97.3889 73.5786 96.7127 74.0028C96.0366 74.4271 95.2643 74.6392 94.396 74.6392C93.5276 74.6392 92.7553 74.4271 92.0792 74.0028C91.4031 73.5786 90.8711 72.9754 90.4833 72.1932C90.0955 71.411 89.9016 70.483 89.9016 69.4091C89.9016 68.3352 90.0955 67.4072 90.4833 66.625C90.8711 65.8428 91.4031 65.2396 92.0792 64.8153C92.7553 64.3911 93.5276 64.179 94.396 64.179C95.2643 64.179 96.0366 64.3911 96.7127 64.8153C97.3889 65.2396 97.9208 65.8428 98.3086 66.625C98.6964 67.4072 98.8903 68.3352 98.8903 69.4091ZM97.6971 69.4091C97.6971 68.5275 97.5496 67.7834 97.2546 67.1768C96.963 66.5703 96.5669 66.1113 96.0664 65.7997C95.5692 65.4882 95.0124 65.3324 94.396 65.3324C93.7795 65.3324 93.221 65.4882 92.7205 65.7997C92.2234 66.1113 91.8273 66.5703 91.5323 67.1768C91.2406 67.7834 91.0948 68.5275 91.0948 69.4091C91.0948 70.2907 91.2406 71.0348 91.5323 71.6413C91.8273 72.2479 92.2234 72.7069 92.7205 73.0185C93.221 73.33 93.7795 73.4858 94.396 73.4858C95.0124 73.4858 95.5692 73.33 96.0664 73.0185C96.5669 72.7069 96.963 72.2479 97.2546 71.6413C97.5496 71.0348 97.6971 70.2907 97.6971 69.4091ZM100.963 74.5V64.3182H104.404C105.199 64.3182 105.852 64.4541 106.363 64.7259C106.873 64.9943 107.251 65.3639 107.496 65.8345C107.741 66.3052 107.864 66.8404 107.864 67.4403C107.864 68.0402 107.741 68.5722 107.496 69.0362C107.251 69.5002 106.875 69.8648 106.368 70.13C105.86 70.3918 105.212 70.5227 104.424 70.5227H101.64V69.4091H104.384C104.927 69.4091 105.365 69.3295 105.696 69.1705C106.031 69.0114 106.273 68.786 106.422 68.4943C106.575 68.1993 106.651 67.848 106.651 67.4403C106.651 67.0327 106.575 66.6764 106.422 66.3714C106.27 66.0665 106.026 65.8312 105.691 65.6655C105.357 65.4964 104.914 65.4119 104.364 65.4119H102.196V74.5H100.963ZM105.756 69.9261L108.262 74.5H106.83L104.364 69.9261H105.756ZM109.919 74.5V64.3182H116.063V65.4119H111.151V68.8523H115.745V69.946H111.151V73.4062H116.143V74.5H109.919ZM122.223 74.5V64.3182H128.328V65.4119H123.456V68.8523H127.871V69.946H123.456V74.5H122.223ZM130.44 74.5V64.3182H134C134.709 64.3182 135.294 64.4408 135.755 64.6861C136.215 64.928 136.558 65.2545 136.784 65.6655C137.009 66.0732 137.122 66.5256 137.122 67.0227C137.122 67.4602 137.044 67.8215 136.888 68.1065C136.736 68.3916 136.533 68.617 136.282 68.7827C136.033 68.9484 135.763 69.071 135.471 69.1506V69.25C135.783 69.2699 136.096 69.3793 136.411 69.5781C136.726 69.777 136.989 70.062 137.201 70.4332C137.413 70.8045 137.52 71.2585 137.52 71.7955C137.52 72.3059 137.404 72.7649 137.172 73.1726C136.94 73.5803 136.573 73.9034 136.073 74.142C135.572 74.3807 134.921 74.5 134.119 74.5H130.44ZM131.673 73.4062H134.119C134.924 73.4062 135.496 73.2505 135.834 72.9389C136.176 72.6241 136.346 72.2429 136.346 71.7955C136.346 71.4508 136.258 71.1326 136.083 70.8409C135.907 70.5459 135.657 70.3106 135.332 70.1349C135.007 69.956 134.623 69.8665 134.179 69.8665H131.673V73.4062ZM131.673 68.7926H133.96C134.331 68.7926 134.666 68.7197 134.964 68.5739C135.266 68.428 135.504 68.2225 135.68 67.9574C135.859 67.6922 135.949 67.3807 135.949 67.0227C135.949 66.5753 135.793 66.1958 135.481 65.8842C135.17 65.5694 134.676 65.4119 134 65.4119H131.673V68.7926ZM145.114 66.8636C145.054 66.3598 144.812 65.9688 144.388 65.6903C143.964 65.4119 143.443 65.2727 142.827 65.2727C142.376 65.2727 141.982 65.3456 141.643 65.4915C141.309 65.6373 141.047 65.8378 140.858 66.093C140.672 66.3482 140.58 66.6383 140.58 66.9631C140.58 67.2348 140.644 67.4685 140.773 67.6641C140.906 67.8563 141.075 68.017 141.281 68.1463C141.486 68.2723 141.701 68.3767 141.927 68.4595C142.152 68.5391 142.359 68.6037 142.548 68.6534L143.582 68.9318C143.848 69.0014 144.143 69.0975 144.467 69.2202C144.795 69.3428 145.109 69.5102 145.407 69.7223C145.709 69.9311 145.957 70.1996 146.153 70.5277C146.348 70.8558 146.446 71.2585 146.446 71.7358C146.446 72.286 146.302 72.7831 146.013 73.2273C145.728 73.6714 145.311 74.0244 144.761 74.2862C144.214 74.5481 143.549 74.679 142.767 74.679C142.038 74.679 141.406 74.5613 140.873 74.326C140.343 74.0907 139.925 73.7625 139.62 73.3416C139.318 72.9207 139.148 72.4318 139.108 71.875H140.381C140.414 72.2595 140.543 72.5777 140.768 72.8295C140.997 73.0781 141.286 73.2637 141.634 73.3864C141.985 73.5057 142.363 73.5653 142.767 73.5653C143.238 73.5653 143.66 73.4891 144.035 73.3366C144.409 73.1809 144.706 72.9654 144.925 72.6903C145.143 72.4119 145.253 72.0871 145.253 71.7159C145.253 71.3778 145.158 71.1027 144.969 70.8906C144.781 70.6785 144.532 70.5062 144.224 70.3736C143.915 70.241 143.582 70.125 143.224 70.0256L141.972 69.6676C141.176 69.4389 140.546 69.1125 140.082 68.6882C139.618 68.264 139.386 67.7088 139.386 67.0227C139.386 66.4527 139.54 65.9555 139.849 65.5312C140.16 65.1037 140.578 64.7723 141.102 64.5369C141.629 64.2983 142.217 64.179 142.866 64.179C143.523 64.179 144.106 64.2966 144.616 64.532C145.127 64.764 145.531 65.0821 145.83 65.4865C146.131 65.8909 146.29 66.3499 146.307 66.8636H145.114Z" fill="#334155"/>
<rect x="328" y="60" width="32" height="18" rx="9" fill="#E3EBF6"/>
<circle cx="351" cy="69" r="9" fill="#48B798"/>
<rect y="98" width="380" height="38" rx="15" fill="#F8FAFF"/>
<path d="M30.9553 110.06C31.0443 110.11 31.1132 110.187 31.1506 110.279C31.1881 110.371 31.192 110.473 31.1617 110.567L29.5245 115.688H32.5453C32.6341 115.688 32.7209 115.713 32.7951 115.759C32.8693 115.806 32.9276 115.873 32.9628 115.952C32.998 116.03 33.0085 116.117 32.9931 116.201C32.9777 116.285 32.9371 116.363 32.8762 116.425L25.6037 123.862C25.5334 123.934 25.4397 123.981 25.3381 123.995C25.2364 124.01 25.1328 123.99 25.044 123.941C24.9552 123.891 24.8865 123.814 24.8492 123.722C24.8118 123.63 24.808 123.528 24.8383 123.433L26.4755 118.312H23.4547C23.3659 118.312 23.2791 118.287 23.2049 118.241C23.1307 118.194 23.0724 118.127 23.0372 118.048C23.002 117.97 22.9915 117.883 23.0069 117.799C23.0223 117.715 23.0629 117.637 23.1238 117.575L30.3963 110.138C30.4666 110.066 30.5601 110.019 30.6616 110.005C30.7631 109.99 30.8666 110.009 30.9553 110.059V110.06Z" fill="#334155"/>
<path d="M40.233 122.5V112.318H43.6733C44.4688 112.318 45.1217 112.454 45.6321 112.726C46.1425 112.994 46.5204 113.364 46.7656 113.835C47.0109 114.305 47.1335 114.84 47.1335 115.44C47.1335 116.04 47.0109 116.572 46.7656 117.036C46.5204 117.5 46.1442 117.865 45.6371 118.13C45.13 118.392 44.482 118.523 43.6932 118.523H40.9091V117.409H43.6534C44.197 117.409 44.6345 117.33 44.9659 117.17C45.3007 117.011 45.5426 116.786 45.6918 116.494C45.8442 116.199 45.9205 115.848 45.9205 115.44C45.9205 115.033 45.8442 114.676 45.6918 114.371C45.5393 114.067 45.2957 113.831 44.9609 113.665C44.6262 113.496 44.1837 113.412 43.6335 113.412H41.4659V122.5H40.233ZM45.0256 117.926L47.5312 122.5H46.0994L43.6335 117.926H45.0256ZM53.8414 119.378V114.864H55.0147V122.5H53.8414V121.207H53.7619C53.5829 121.595 53.3045 121.925 52.9267 122.197C52.5488 122.465 52.0716 122.599 51.4949 122.599C51.0176 122.599 50.5933 122.495 50.2221 122.286C49.8509 122.074 49.5592 121.756 49.3471 121.332C49.135 120.904 49.0289 120.366 49.0289 119.716V114.864H50.2022V119.636C50.2022 120.193 50.358 120.637 50.6696 120.969C50.9844 121.3 51.3855 121.466 51.8727 121.466C52.1644 121.466 52.461 121.391 52.7626 121.242C53.0675 121.093 53.3227 120.864 53.5282 120.556C53.737 120.248 53.8414 119.855 53.8414 119.378ZM57.1637 122.5V114.864H58.2972V116.057H58.3967C58.5558 115.649 58.8126 115.333 59.1673 115.107C59.5219 114.879 59.9478 114.764 60.445 114.764C60.9487 114.764 61.368 114.879 61.7028 115.107C62.0408 115.333 62.3043 115.649 62.4933 116.057H62.5728C62.7683 115.662 63.0617 115.349 63.4528 115.117C63.8439 114.882 64.3129 114.764 64.8597 114.764C65.5425 114.764 66.101 114.978 66.5352 115.406C66.9693 115.83 67.1864 116.491 67.1864 117.389V122.5H66.0131V117.389C66.0131 116.826 65.859 116.423 65.5508 116.181C65.2425 115.939 64.8796 115.818 64.462 115.818C63.9251 115.818 63.5091 115.981 63.2141 116.305C62.9192 116.627 62.7717 117.035 62.7717 117.528V122.5H61.5785V117.27C61.5785 116.836 61.4376 116.486 61.1559 116.221C60.8742 115.952 60.5112 115.818 60.0671 115.818C59.7622 115.818 59.4772 115.899 59.212 116.062C58.9502 116.224 58.738 116.45 58.5756 116.738C58.4165 117.023 58.337 117.353 58.337 117.727V122.5H57.1637ZM69.3317 122.5V114.864H70.505V122.5H69.3317ZM69.9283 113.591C69.6996 113.591 69.5024 113.513 69.3366 113.357C69.1742 113.201 69.093 113.014 69.093 112.795C69.093 112.577 69.1742 112.389 69.3366 112.234C69.5024 112.078 69.6996 112 69.9283 112C70.157 112 70.3525 112.078 70.5149 112.234C70.6806 112.389 70.7635 112.577 70.7635 112.795C70.7635 113.014 70.6806 113.201 70.5149 113.357C70.3525 113.513 70.157 113.591 69.9283 113.591ZM72.2562 113.412V112.318H79.8926V113.412H76.6909V122.5H75.4579V113.412H72.2562ZM81.7955 122.5V112.318H85.2358C86.0313 112.318 86.6842 112.454 87.1946 112.726C87.705 112.994 88.0829 113.364 88.3281 113.835C88.5734 114.305 88.696 114.84 88.696 115.44C88.696 116.04 88.5734 116.572 88.3281 117.036C88.0829 117.5 87.7067 117.865 87.1996 118.13C86.6925 118.392 86.0445 118.523 85.2557 118.523H82.4716V117.409H85.2159C85.7595 117.409 86.197 117.33 86.5284 117.17C86.8632 117.011 87.1051 116.786 87.2543 116.494C87.4067 116.199 87.483 115.848 87.483 115.44C87.483 115.033 87.4067 114.676 87.2543 114.371C87.1018 114.067 86.8582 113.831 86.5234 113.665C86.1887 113.496 85.7462 113.412 85.196 113.412H83.0284V122.5H81.7955ZM86.5881 117.926L89.0938 122.5H87.6619L85.196 117.926H86.5881ZM91.1681 122.5H89.8755L93.6142 112.318H94.8869L98.6255 122.5H97.3329L94.2903 113.929H94.2108L91.1681 122.5ZM91.6454 118.523H96.8556V119.616H91.6454V118.523ZM103.354 122.5H100.211V112.318H103.493C104.48 112.318 105.326 112.522 106.028 112.93C106.731 113.334 107.269 113.916 107.644 114.675C108.019 115.43 108.206 116.335 108.206 117.389C108.206 118.45 108.017 119.363 107.639 120.129C107.261 120.891 106.711 121.478 105.988 121.888C105.266 122.296 104.388 122.5 103.354 122.5ZM101.444 121.406H103.274C104.116 121.406 104.814 121.244 105.367 120.919C105.921 120.594 106.333 120.132 106.605 119.532C106.877 118.932 107.013 118.218 107.013 117.389C107.013 116.567 106.878 115.86 106.61 115.266C106.341 114.67 105.94 114.212 105.407 113.894C104.873 113.573 104.209 113.412 103.413 113.412H101.444V121.406ZM110.274 122.5V112.318H116.419V113.412H111.507V116.852H116.101V117.946H111.507V121.406H116.498V122.5H110.274ZM122.579 122.5V112.318H128.684V113.412H123.812V116.852H128.226V117.946H123.812V122.5H122.579ZM130.795 122.5V112.318H134.355C135.064 112.318 135.649 112.441 136.11 112.686C136.571 112.928 136.914 113.254 137.139 113.665C137.365 114.073 137.477 114.526 137.477 115.023C137.477 115.46 137.399 115.821 137.244 116.107C137.091 116.392 136.889 116.617 136.637 116.783C136.388 116.948 136.118 117.071 135.827 117.151V117.25C136.138 117.27 136.451 117.379 136.766 117.578C137.081 117.777 137.345 118.062 137.557 118.433C137.769 118.804 137.875 119.259 137.875 119.795C137.875 120.306 137.759 120.765 137.527 121.173C137.295 121.58 136.929 121.903 136.428 122.142C135.928 122.381 135.277 122.5 134.474 122.5H130.795ZM132.028 121.406H134.474C135.28 121.406 135.852 121.25 136.19 120.939C136.531 120.624 136.702 120.243 136.702 119.795C136.702 119.451 136.614 119.133 136.438 118.841C136.263 118.546 136.012 118.311 135.688 118.135C135.363 117.956 134.978 117.866 134.534 117.866H132.028V121.406ZM132.028 116.793H134.315C134.687 116.793 135.021 116.72 135.32 116.574C135.621 116.428 135.86 116.223 136.036 115.957C136.214 115.692 136.304 115.381 136.304 115.023C136.304 114.575 136.148 114.196 135.837 113.884C135.525 113.569 135.031 113.412 134.355 113.412H132.028V116.793ZM145.469 114.864C145.409 114.36 145.167 113.969 144.743 113.69C144.319 113.412 143.799 113.273 143.182 113.273C142.731 113.273 142.337 113.346 141.999 113.491C141.664 113.637 141.402 113.838 141.213 114.093C141.028 114.348 140.935 114.638 140.935 114.963C140.935 115.235 141 115.469 141.129 115.664C141.261 115.856 141.431 116.017 141.636 116.146C141.842 116.272 142.057 116.377 142.282 116.46C142.508 116.539 142.715 116.604 142.904 116.653L143.938 116.932C144.203 117.001 144.498 117.098 144.823 117.22C145.151 117.343 145.464 117.51 145.762 117.722C146.064 117.931 146.313 118.2 146.508 118.528C146.704 118.856 146.801 119.259 146.801 119.736C146.801 120.286 146.657 120.783 146.369 121.227C146.084 121.671 145.666 122.024 145.116 122.286C144.569 122.548 143.905 122.679 143.123 122.679C142.393 122.679 141.762 122.561 141.228 122.326C140.698 122.091 140.28 121.763 139.975 121.342C139.674 120.921 139.503 120.432 139.463 119.875H140.736C140.769 120.259 140.899 120.578 141.124 120.83C141.353 121.078 141.641 121.264 141.989 121.386C142.34 121.506 142.718 121.565 143.123 121.565C143.593 121.565 144.016 121.489 144.39 121.337C144.765 121.181 145.061 120.965 145.28 120.69C145.499 120.412 145.608 120.087 145.608 119.716C145.608 119.378 145.514 119.103 145.325 118.891C145.136 118.679 144.887 118.506 144.579 118.374C144.271 118.241 143.938 118.125 143.58 118.026L142.327 117.668C141.532 117.439 140.902 117.112 140.438 116.688C139.974 116.264 139.742 115.709 139.742 115.023C139.742 114.453 139.896 113.955 140.204 113.531C140.516 113.104 140.933 112.772 141.457 112.537C141.984 112.298 142.572 112.179 143.222 112.179C143.878 112.179 144.462 112.297 144.972 112.532C145.482 112.764 145.887 113.082 146.185 113.487C146.487 113.891 146.646 114.35 146.662 114.864H145.469Z" fill="#334155"/>
<rect x="328" y="108" width="32" height="18" rx="9" fill="#E3EBF6"/>
<circle cx="337" cy="117" r="8.5" fill="white" stroke="#E3EBF6"/>
<rect y="146" width="380" height="38" rx="15" fill="#F8FAFF"/>
<path d="M30.9553 158.06C31.0443 158.11 31.1132 158.187 31.1506 158.279C31.1881 158.371 31.192 158.473 31.1617 158.567L29.5245 163.688H32.5453C32.6341 163.688 32.7209 163.713 32.7951 163.759C32.8693 163.806 32.9276 163.873 32.9628 163.952C32.998 164.03 33.0085 164.117 32.9931 164.201C32.9777 164.285 32.9371 164.363 32.8762 164.425L25.6037 171.862C25.5334 171.934 25.4397 171.981 25.3381 171.995C25.2364 172.01 25.1328 171.99 25.044 171.941C24.9552 171.891 24.8865 171.814 24.8492 171.722C24.8118 171.63 24.808 171.528 24.8383 171.433L26.4755 166.312H23.4547C23.3659 166.312 23.2791 166.287 23.2049 166.241C23.1307 166.194 23.0724 166.127 23.0372 166.048C23.002 165.97 22.9915 165.883 23.0069 165.799C23.0223 165.715 23.0629 165.637 23.1238 165.575L30.3963 158.138C30.4666 158.066 30.5601 158.019 30.6616 158.005C30.7631 157.99 30.8666 158.009 30.9553 158.059V158.06Z" fill="url(#paint1_linear_14_3389)"/>
<path d="M40.233 170.5V160.318H43.6733C44.4688 160.318 45.1217 160.454 45.6321 160.726C46.1425 160.994 46.5204 161.364 46.7656 161.835C47.0109 162.305 47.1335 162.84 47.1335 163.44C47.1335 164.04 47.0109 164.572 46.7656 165.036C46.5204 165.5 46.1442 165.865 45.6371 166.13C45.13 166.392 44.482 166.523 43.6932 166.523H40.9091V165.409H43.6534C44.197 165.409 44.6345 165.33 44.9659 165.17C45.3007 165.011 45.5426 164.786 45.6918 164.494C45.8442 164.199 45.9205 163.848 45.9205 163.44C45.9205 163.033 45.8442 162.676 45.6918 162.371C45.5393 162.067 45.2957 161.831 44.9609 161.665C44.6262 161.496 44.1837 161.412 43.6335 161.412H41.4659V170.5H40.233ZM45.0256 165.926L47.5312 170.5H46.0994L43.6335 165.926H45.0256ZM53.8414 167.378V162.864H55.0147V170.5H53.8414V169.207H53.7619C53.5829 169.595 53.3045 169.925 52.9267 170.197C52.5488 170.465 52.0716 170.599 51.4949 170.599C51.0176 170.599 50.5933 170.495 50.2221 170.286C49.8509 170.074 49.5592 169.756 49.3471 169.332C49.135 168.904 49.0289 168.366 49.0289 167.716V162.864H50.2022V167.636C50.2022 168.193 50.358 168.637 50.6696 168.969C50.9844 169.3 51.3855 169.466 51.8727 169.466C52.1644 169.466 52.461 169.391 52.7626 169.242C53.0675 169.093 53.3227 168.864 53.5282 168.556C53.737 168.248 53.8414 167.855 53.8414 167.378ZM57.1637 170.5V162.864H58.2972V164.057H58.3967C58.5558 163.649 58.8126 163.333 59.1673 163.107C59.5219 162.879 59.9478 162.764 60.445 162.764C60.9487 162.764 61.368 162.879 61.7028 163.107C62.0408 163.333 62.3043 163.649 62.4933 164.057H62.5728C62.7683 163.662 63.0617 163.349 63.4528 163.117C63.8439 162.882 64.3129 162.764 64.8597 162.764C65.5425 162.764 66.101 162.978 66.5352 163.406C66.9693 163.83 67.1864 164.491 67.1864 165.389V170.5H66.0131V165.389C66.0131 164.826 65.859 164.423 65.5508 164.181C65.2425 163.939 64.8796 163.818 64.462 163.818C63.9251 163.818 63.5091 163.981 63.2141 164.305C62.9192 164.627 62.7717 165.035 62.7717 165.528V170.5H61.5785V165.27C61.5785 164.836 61.4376 164.486 61.1559 164.221C60.8742 163.952 60.5112 163.818 60.0671 163.818C59.7622 163.818 59.4772 163.899 59.212 164.062C58.9502 164.224 58.738 164.45 58.5756 164.738C58.4165 165.023 58.337 165.353 58.337 165.727V170.5H57.1637ZM69.3317 170.5V162.864H70.505V170.5H69.3317ZM69.9283 161.591C69.6996 161.591 69.5024 161.513 69.3366 161.357C69.1742 161.201 69.093 161.014 69.093 160.795C69.093 160.577 69.1742 160.389 69.3366 160.234C69.5024 160.078 69.6996 160 69.9283 160C70.157 160 70.3525 160.078 70.5149 160.234C70.6806 160.389 70.7635 160.577 70.7635 160.795C70.7635 161.014 70.6806 161.201 70.5149 161.357C70.3525 161.513 70.157 161.591 69.9283 161.591ZM78.3812 162.864C78.3216 162.36 78.0796 161.969 77.6554 161.69C77.2311 161.412 76.7108 161.273 76.0943 161.273C75.6435 161.273 75.2491 161.346 74.911 161.491C74.5763 161.637 74.3145 161.838 74.1255 162.093C73.9399 162.348 73.8471 162.638 73.8471 162.963C73.8471 163.235 73.9118 163.469 74.041 163.664C74.1736 163.856 74.3426 164.017 74.5481 164.146C74.7536 164.272 74.969 164.377 75.1944 164.46C75.4198 164.539 75.627 164.604 75.8159 164.653L76.85 164.932C77.1151 165.001 77.4101 165.098 77.7349 165.22C78.063 165.343 78.3762 165.51 78.6745 165.722C78.9761 165.931 79.2247 166.2 79.4203 166.528C79.6158 166.856 79.7136 167.259 79.7136 167.736C79.7136 168.286 79.5694 168.783 79.2811 169.227C78.996 169.671 78.5784 170.024 78.0282 170.286C77.4814 170.548 76.8168 170.679 76.0346 170.679C75.3055 170.679 74.6741 170.561 74.1404 170.326C73.6101 170.091 73.1925 169.763 72.8876 169.342C72.586 168.921 72.4153 168.432 72.3755 167.875H73.6483C73.6814 168.259 73.8107 168.578 74.036 168.83C74.2647 169.078 74.5531 169.264 74.9011 169.386C75.2524 169.506 75.6303 169.565 76.0346 169.565C76.5053 169.565 76.9279 169.489 77.3024 169.337C77.6769 169.181 77.9735 168.965 78.1923 168.69C78.411 168.412 78.5204 168.087 78.5204 167.716C78.5204 167.378 78.426 167.103 78.237 166.891C78.0481 166.679 77.7995 166.506 77.4913 166.374C77.1831 166.241 76.85 166.125 76.492 166.026L75.2392 165.668C74.4437 165.439 73.814 165.112 73.35 164.688C72.8859 164.264 72.6539 163.709 72.6539 163.023C72.6539 162.453 72.8081 161.955 73.1163 161.531C73.4279 161.104 73.8455 160.772 74.3691 160.537C74.8961 160.298 75.4844 160.179 76.1341 160.179C76.7903 160.179 77.3736 160.297 77.8841 160.532C78.3945 160.764 78.7988 161.082 79.0971 161.487C79.3987 161.891 79.5578 162.35 79.5744 162.864H78.3812ZM81.1839 161.412V160.318H88.8203V161.412H85.6186V170.5H84.3857V161.412H81.1839ZM98.8903 165.409C98.8903 166.483 98.6964 167.411 98.3086 168.193C97.9208 168.975 97.3889 169.579 96.7127 170.003C96.0366 170.427 95.2643 170.639 94.396 170.639C93.5276 170.639 92.7553 170.427 92.0792 170.003C91.4031 169.579 90.8711 168.975 90.4833 168.193C90.0955 167.411 89.9016 166.483 89.9016 165.409C89.9016 164.335 90.0955 163.407 90.4833 162.625C90.8711 161.843 91.4031 161.24 92.0792 160.815C92.7553 160.391 93.5276 160.179 94.396 160.179C95.2643 160.179 96.0366 160.391 96.7127 160.815C97.3889 161.24 97.9208 161.843 98.3086 162.625C98.6964 163.407 98.8903 164.335 98.8903 165.409ZM97.6971 165.409C97.6971 164.527 97.5496 163.783 97.2546 163.177C96.963 162.57 96.5669 162.111 96.0664 161.8C95.5692 161.488 95.0124 161.332 94.396 161.332C93.7795 161.332 93.221 161.488 92.7205 161.8C92.2234 162.111 91.8273 162.57 91.5323 163.177C91.2406 163.783 91.0948 164.527 91.0948 165.409C91.0948 166.291 91.2406 167.035 91.5323 167.641C91.8273 168.248 92.2234 168.707 92.7205 169.018C93.221 169.33 93.7795 169.486 94.396 169.486C95.0124 169.486 95.5692 169.33 96.0664 169.018C96.5669 168.707 96.963 168.248 97.2546 167.641C97.5496 167.035 97.6971 166.291 97.6971 165.409ZM100.963 170.5V160.318H104.404C105.199 160.318 105.852 160.454 106.363 160.726C106.873 160.994 107.251 161.364 107.496 161.835C107.741 162.305 107.864 162.84 107.864 163.44C107.864 164.04 107.741 164.572 107.496 165.036C107.251 165.5 106.875 165.865 106.368 166.13C105.86 166.392 105.212 166.523 104.424 166.523H101.64V165.409H104.384C104.927 165.409 105.365 165.33 105.696 165.17C106.031 165.011 106.273 164.786 106.422 164.494C106.575 164.199 106.651 163.848 106.651 163.44C106.651 163.033 106.575 162.676 106.422 162.371C106.27 162.067 106.026 161.831 105.691 161.665C105.357 161.496 104.914 161.412 104.364 161.412H102.196V170.5H100.963ZM105.756 165.926L108.262 170.5H106.83L104.364 165.926H105.756ZM109.919 170.5V160.318H116.063V161.412H111.151V164.852H115.745V165.946H111.151V169.406H116.143V170.5H109.919ZM122.223 170.5V160.318H128.328V161.412H123.456V164.852H127.871V165.946H123.456V170.5H122.223ZM130.44 170.5V160.318H134C134.709 160.318 135.294 160.441 135.755 160.686C136.215 160.928 136.558 161.254 136.784 161.665C137.009 162.073 137.122 162.526 137.122 163.023C137.122 163.46 137.044 163.821 136.888 164.107C136.736 164.392 136.533 164.617 136.282 164.783C136.033 164.948 135.763 165.071 135.471 165.151V165.25C135.783 165.27 136.096 165.379 136.411 165.578C136.726 165.777 136.989 166.062 137.201 166.433C137.413 166.804 137.52 167.259 137.52 167.795C137.52 168.306 137.404 168.765 137.172 169.173C136.94 169.58 136.573 169.903 136.073 170.142C135.572 170.381 134.921 170.5 134.119 170.5H130.44ZM131.673 169.406H134.119C134.924 169.406 135.496 169.25 135.834 168.939C136.176 168.624 136.346 168.243 136.346 167.795C136.346 167.451 136.258 167.133 136.083 166.841C135.907 166.546 135.657 166.311 135.332 166.135C135.007 165.956 134.623 165.866 134.179 165.866H131.673V169.406ZM131.673 164.793H133.96C134.331 164.793 134.666 164.72 134.964 164.574C135.266 164.428 135.504 164.223 135.68 163.957C135.859 163.692 135.949 163.381 135.949 163.023C135.949 162.575 135.793 162.196 135.481 161.884C135.17 161.569 134.676 161.412 134 161.412H131.673V164.793ZM148.136 165.409C148.136 166.483 147.942 167.411 147.555 168.193C147.167 168.975 146.635 169.579 145.959 170.003C145.283 170.427 144.51 170.639 143.642 170.639C142.774 170.639 142.001 170.427 141.325 170.003C140.649 169.579 140.117 168.975 139.729 168.193C139.342 167.411 139.148 166.483 139.148 165.409C139.148 164.335 139.342 163.407 139.729 162.625C140.117 161.843 140.649 161.24 141.325 160.815C142.001 160.391 142.774 160.179 143.642 160.179C144.51 160.179 145.283 160.391 145.959 160.815C146.635 161.24 147.167 161.843 147.555 162.625C147.942 163.407 148.136 164.335 148.136 165.409ZM146.943 165.409C146.943 164.527 146.796 163.783 146.501 163.177C146.209 162.57 145.813 162.111 145.312 161.8C144.815 161.488 144.259 161.332 143.642 161.332C143.026 161.332 142.467 161.488 141.967 161.8C141.469 162.111 141.073 162.57 140.778 163.177C140.487 163.783 140.341 164.527 140.341 165.409C140.341 166.291 140.487 167.035 140.778 167.641C141.073 168.248 141.469 168.707 141.967 169.018C142.467 169.33 143.026 169.486 143.642 169.486C144.259 169.486 144.815 169.33 145.312 169.018C145.813 168.707 146.209 168.248 146.501 167.641C146.796 167.035 146.943 166.291 146.943 165.409Z" fill="#334155"/>
<rect x="328" y="156" width="32" height="18" rx="9" fill="#E3EBF6"/>
<circle cx="351" cy="165" r="9" fill="#48B798"/>
<rect y="194" width="380" height="38" rx="15" fill="#F8FAFF"/>
<path d="M30.9553 206.06C31.0443 206.11 31.1132 206.187 31.1506 206.279C31.1881 206.371 31.192 206.473 31.1617 206.567L29.5245 211.688H32.5453C32.6341 211.688 32.7209 211.713 32.7951 211.759C32.8693 211.806 32.9276 211.873 32.9628 211.952C32.998 212.03 33.0085 212.117 32.9931 212.201C32.9777 212.285 32.9371 212.363 32.8762 212.425L25.6037 219.862C25.5334 219.934 25.4397 219.981 25.3381 219.995C25.2364 220.01 25.1328 219.99 25.044 219.941C24.9552 219.891 24.8865 219.814 24.8492 219.722C24.8118 219.63 24.808 219.528 24.8383 219.433L26.4755 214.312H23.4547C23.3659 214.312 23.2791 214.287 23.2049 214.241C23.1307 214.194 23.0724 214.127 23.0372 214.048C23.002 213.97 22.9915 213.883 23.0069 213.799C23.0223 213.715 23.0629 213.637 23.1238 213.575L30.3963 206.138C30.4666 206.066 30.5601 206.019 30.6616 206.005C30.7631 205.99 30.8666 206.009 30.9553 206.059V206.06Z" fill="#334155"/>
<path d="M45.8011 210.864C45.7415 210.36 45.4995 209.969 45.0753 209.69C44.651 209.412 44.1307 209.273 43.5142 209.273C43.0634 209.273 42.669 209.346 42.331 209.491C41.9962 209.637 41.7344 209.838 41.5455 210.093C41.3598 210.348 41.267 210.638 41.267 210.963C41.267 211.235 41.3317 211.469 41.4609 211.664C41.5935 211.856 41.7625 212.017 41.968 212.146C42.1735 212.272 42.389 212.377 42.6143 212.46C42.8397 212.539 43.0469 212.604 43.2358 212.653L44.2699 212.932C44.535 213.001 44.83 213.098 45.1548 213.22C45.483 213.343 45.7962 213.51 46.0945 213.722C46.3961 213.931 46.6446 214.2 46.8402 214.528C47.0357 214.856 47.1335 215.259 47.1335 215.736C47.1335 216.286 46.9893 216.783 46.701 217.227C46.416 217.671 45.9983 218.024 45.4482 218.286C44.9013 218.548 44.2367 218.679 43.4545 218.679C42.7254 218.679 42.094 218.561 41.5604 218.326C41.0301 218.091 40.6125 217.763 40.3075 217.342C40.0059 216.921 39.8352 216.432 39.7955 215.875H41.0682C41.1013 216.259 41.2306 216.578 41.456 216.83C41.6847 217.078 41.973 217.264 42.321 217.386C42.6723 217.506 43.0502 217.565 43.4545 217.565C43.9252 217.565 44.3478 217.489 44.7223 217.337C45.0968 217.181 45.3935 216.965 45.6122 216.69C45.831 216.412 45.9403 216.087 45.9403 215.716C45.9403 215.378 45.8459 215.103 45.657 214.891C45.468 214.679 45.2195 214.506 44.9112 214.374C44.603 214.241 44.2699 214.125 43.9119 214.026L42.6591 213.668C41.8636 213.439 41.2339 213.112 40.7699 212.688C40.3059 212.264 40.0739 211.709 40.0739 211.023C40.0739 210.453 40.228 209.955 40.5362 209.531C40.8478 209.104 41.2654 208.772 41.7891 208.537C42.3161 208.298 42.9044 208.179 43.554 208.179C44.2102 208.179 44.7936 208.297 45.304 208.532C45.8144 208.764 46.2188 209.082 46.517 209.487C46.8187 209.891 46.9777 210.35 46.9943 210.864H45.8011ZM49.0016 218.5V210.864H50.1351V212.057H50.2346C50.3936 211.649 50.6505 211.333 51.0051 211.107C51.3598 210.879 51.7857 210.764 52.2828 210.764C52.7866 210.764 53.2059 210.879 53.5407 211.107C53.8787 211.333 54.1422 211.649 54.3311 212.057H54.4107C54.6062 211.662 54.8996 211.349 55.2907 211.117C55.6818 210.882 56.1507 210.764 56.6976 210.764C57.3804 210.764 57.9389 210.978 58.373 211.406C58.8072 211.83 59.0243 212.491 59.0243 213.389V218.5H57.851V213.389C57.851 212.826 57.6969 212.423 57.3887 212.181C57.0804 211.939 56.7175 211.818 56.2999 211.818C55.763 211.818 55.347 211.981 55.052 212.305C54.757 212.627 54.6096 213.035 54.6096 213.528V218.5H53.4164V213.27C53.4164 212.836 53.2755 212.486 52.9938 212.221C52.7121 211.952 52.3491 211.818 51.905 211.818C51.6001 211.818 51.315 211.899 51.0499 212.062C50.7881 212.224 50.5759 212.45 50.4135 212.738C50.2544 213.023 50.1749 213.353 50.1749 213.727V218.5H49.0016ZM63.4167 218.679C62.9328 218.679 62.4937 218.588 62.0993 218.406C61.7048 218.22 61.3916 217.953 61.1596 217.605C60.9276 217.254 60.8116 216.83 60.8116 216.332C60.8116 215.895 60.8978 215.54 61.0701 215.268C61.2425 214.993 61.4728 214.778 61.7612 214.622C62.0495 214.466 62.3677 214.35 62.7157 214.274C63.0671 214.195 63.42 214.132 63.7747 214.085C64.2387 214.026 64.6149 213.981 64.9032 213.951C65.1949 213.918 65.407 213.863 65.5396 213.787C65.6755 213.711 65.7434 213.578 65.7434 213.389V213.349C65.7434 212.859 65.6092 212.478 65.3407 212.206C65.0756 211.934 64.6729 211.798 64.1326 211.798C63.5725 211.798 63.1333 211.921 62.8152 212.166C62.497 212.411 62.2733 212.673 62.144 212.952L61.0304 212.554C61.2292 212.09 61.4944 211.729 61.8258 211.47C62.1606 211.208 62.5252 211.026 62.9196 210.923C63.3173 210.817 63.7084 210.764 64.0929 210.764C64.3381 210.764 64.6199 210.794 64.938 210.854C65.2595 210.91 65.5694 211.028 65.8677 211.207C66.1693 211.386 66.4196 211.656 66.6184 212.017C66.8173 212.378 66.9167 212.862 66.9167 213.469V218.5H65.7434V217.466H65.6838C65.6042 217.632 65.4717 217.809 65.286 217.998C65.1004 218.187 64.8535 218.348 64.5453 218.48C64.237 218.613 63.8609 218.679 63.4167 218.679ZM63.5957 217.625C64.0597 217.625 64.4508 217.534 64.769 217.352C65.0905 217.169 65.3324 216.934 65.4949 216.646C65.6606 216.357 65.7434 216.054 65.7434 215.736V214.662C65.6937 214.722 65.5843 214.776 65.4153 214.826C65.2496 214.872 65.0574 214.914 64.8386 214.95C64.6232 214.983 64.4127 215.013 64.2072 215.04C64.005 215.063 63.841 215.083 63.715 215.099C63.4101 215.139 63.1251 215.204 62.8599 215.293C62.5981 215.379 62.3859 215.51 62.2235 215.686C62.0645 215.858 61.9849 216.094 61.9849 216.392C61.9849 216.8 62.1357 217.108 62.4373 217.317C62.7422 217.522 63.1284 217.625 63.5957 217.625ZM69.0582 218.5V210.864H70.1918V212.017H70.2713C70.4105 211.639 70.6624 211.333 71.027 211.097C71.3916 210.862 71.8026 210.744 72.2599 210.744C72.3461 210.744 72.4538 210.746 72.5831 210.749C72.7124 210.753 72.8101 210.758 72.8764 210.764V211.957C72.8366 211.947 72.7455 211.933 72.603 211.913C72.4638 211.889 72.3163 211.878 72.1605 211.878C71.7893 211.878 71.4579 211.956 71.1662 212.112C70.8778 212.264 70.6491 212.476 70.4801 212.748C70.3144 213.016 70.2315 213.323 70.2315 213.668V218.5H69.0582ZM78.0668 210.864V211.858H74.1094V210.864H78.0668ZM75.2628 209.034H76.4361V216.312C76.4361 216.644 76.4841 216.893 76.5803 217.058C76.6797 217.221 76.8056 217.33 76.9581 217.386C77.1139 217.439 77.2779 217.466 77.4503 217.466C77.5795 217.466 77.6856 217.459 77.7685 217.446C77.8513 217.429 77.9176 217.416 77.9673 217.406L78.206 218.46C78.1264 218.49 78.0154 218.52 77.8729 218.55C77.7304 218.583 77.5497 218.599 77.331 218.599C76.9995 218.599 76.6747 218.528 76.3565 218.386C76.0417 218.243 75.7798 218.026 75.571 217.734C75.3655 217.443 75.2628 217.075 75.2628 216.631V209.034ZM83.9283 218.5V208.318H85.1612V217.406H89.8942V218.5H83.9283ZM91.6442 218.5V210.864H92.8175V218.5H91.6442ZM92.2408 209.591C92.0121 209.591 91.8149 209.513 91.6491 209.357C91.4867 209.201 91.4055 209.014 91.4055 208.795C91.4055 208.577 91.4867 208.389 91.6491 208.234C91.8149 208.078 92.0121 208 92.2408 208C92.4695 208 92.665 208.078 92.8274 208.234C92.9931 208.389 93.076 208.577 93.076 208.795C93.076 209.014 92.9931 209.201 92.8274 209.357C92.665 209.513 92.4695 209.591 92.2408 209.591ZM98.367 210.864V211.858H94.2505V210.864H98.367ZM95.4835 218.5V209.81C95.4835 209.372 95.5862 209.008 95.7917 208.716C95.9972 208.424 96.264 208.205 96.5922 208.06C96.9203 207.914 97.2666 207.841 97.6312 207.841C97.9196 207.841 98.1549 207.864 98.3372 207.911C98.5195 207.957 98.6554 208 98.7449 208.04L98.4068 209.054C98.3471 209.034 98.2643 209.009 98.1582 208.979C98.0555 208.95 97.9196 208.935 97.7505 208.935C97.3627 208.935 97.0827 209.032 96.9103 209.228C96.7413 209.424 96.6568 209.71 96.6568 210.088V218.5H95.4835ZM102.899 218.659C102.163 218.659 101.528 218.497 100.994 218.172C100.464 217.844 100.055 217.386 99.7665 216.8C99.4815 216.21 99.339 215.524 99.339 214.741C99.339 213.959 99.4815 213.27 99.7665 212.673C100.055 212.073 100.456 211.606 100.97 211.271C101.487 210.933 102.09 210.764 102.779 210.764C103.177 210.764 103.57 210.83 103.958 210.963C104.345 211.096 104.698 211.311 105.017 211.609C105.335 211.904 105.588 212.295 105.777 212.783C105.966 213.27 106.061 213.87 106.061 214.582V215.08H100.174V214.065H104.867C104.867 213.634 104.781 213.25 104.609 212.912C104.44 212.574 104.198 212.307 103.883 212.112C103.571 211.916 103.204 211.818 102.779 211.818C102.312 211.818 101.908 211.934 101.566 212.166C101.228 212.395 100.968 212.693 100.786 213.061C100.603 213.429 100.512 213.823 100.512 214.244V214.92C100.512 215.497 100.612 215.986 100.811 216.387C101.013 216.785 101.293 217.088 101.651 217.297C102.009 217.502 102.425 217.605 102.899 217.605C103.207 217.605 103.485 217.562 103.734 217.476C103.986 217.386 104.203 217.254 104.385 217.078C104.567 216.899 104.708 216.677 104.808 216.412L105.941 216.73C105.822 217.115 105.621 217.453 105.34 217.744C105.058 218.033 104.71 218.258 104.296 218.42C103.881 218.58 103.416 218.659 102.899 218.659Z" fill="#334155"/>
<rect x="328" y="204" width="32" height="18" rx="9" fill="#E3EBF6"/>
<circle cx="337" cy="213" r="8.5" fill="white" stroke="#E3EBF6"/>
<rect y="242" width="380" height="38" rx="15" fill="#F8FAFF"/>
<path d="M30.9553 254.06C31.0443 254.11 31.1132 254.187 31.1506 254.279C31.1881 254.371 31.192 254.473 31.1617 254.567L29.5245 259.688H32.5453C32.6341 259.688 32.7209 259.713 32.7951 259.759C32.8693 259.806 32.9276 259.873 32.9628 259.952C32.998 260.03 33.0085 260.117 32.9931 260.201C32.9777 260.285 32.9371 260.363 32.8762 260.425L25.6037 267.862C25.5334 267.934 25.4397 267.981 25.3381 267.995C25.2364 268.01 25.1328 267.99 25.044 267.941C24.9552 267.891 24.8865 267.814 24.8492 267.722C24.8118 267.63 24.808 267.528 24.8383 267.433L26.4755 262.312H23.4547C23.3659 262.312 23.2791 262.287 23.2049 262.241C23.1307 262.194 23.0724 262.127 23.0372 262.048C23.002 261.97 22.9915 261.883 23.0069 261.799C23.0223 261.715 23.0629 261.637 23.1238 261.575L30.3963 254.138C30.4666 254.066 30.5601 254.019 30.6616 254.005C30.7631 253.99 30.8666 254.009 30.9553 254.059V254.06Z" fill="url(#paint2_linear_14_3389)"/>
<path d="M39.6761 257.412V256.318H47.3125V257.412H44.1108V266.5H42.8778V257.412H39.6761ZM51.0511 266.659C50.3617 266.659 49.7569 266.495 49.2365 266.167C48.7195 265.839 48.3151 265.38 48.0234 264.79C47.7351 264.2 47.5909 263.51 47.5909 262.722C47.5909 261.926 47.7351 261.232 48.0234 260.638C48.3151 260.045 48.7195 259.585 49.2365 259.256C49.7569 258.928 50.3617 258.764 51.0511 258.764C51.7405 258.764 52.3438 258.928 52.8608 259.256C53.3812 259.585 53.7855 260.045 54.0739 260.638C54.3655 261.232 54.5114 261.926 54.5114 262.722C54.5114 263.51 54.3655 264.2 54.0739 264.79C53.7855 265.38 53.3812 265.839 52.8608 266.167C52.3438 266.495 51.7405 266.659 51.0511 266.659ZM51.0511 265.605C51.5748 265.605 52.0057 265.471 52.3438 265.202C52.6818 264.934 52.9321 264.581 53.0945 264.143C53.2569 263.706 53.3381 263.232 53.3381 262.722C53.3381 262.211 53.2569 261.736 53.0945 261.295C52.9321 260.854 52.6818 260.498 52.3438 260.226C52.0057 259.954 51.5748 259.818 51.0511 259.818C50.5275 259.818 50.0966 259.954 49.7585 260.226C49.4205 260.498 49.1702 260.854 49.0078 261.295C48.8454 261.736 48.7642 262.211 48.7642 262.722C48.7642 263.232 48.8454 263.706 49.0078 264.143C49.1702 264.581 49.4205 264.934 49.7585 265.202C50.0966 265.471 50.5275 265.605 51.0511 265.605ZM56.3024 269.364V258.864H57.4359V260.077H57.5751C57.6613 259.944 57.7806 259.775 57.9331 259.57C58.0888 259.361 58.3109 259.175 58.5993 259.013C58.8909 258.847 59.2853 258.764 59.7825 258.764C60.4255 258.764 60.9922 258.925 61.4828 259.246C61.9733 259.568 62.3561 260.024 62.6312 260.614C62.9063 261.204 63.0439 261.9 63.0439 262.702C63.0439 263.51 62.9063 264.211 62.6312 264.805C62.3561 265.395 61.975 265.852 61.4877 266.177C61.0005 266.498 60.4387 266.659 59.8024 266.659C59.3118 266.659 58.9191 266.578 58.6241 266.415C58.3291 266.25 58.1021 266.062 57.943 265.854C57.7839 265.642 57.6613 265.466 57.5751 265.327H57.4757V269.364H56.3024ZM57.4558 262.682C57.4558 263.259 57.5403 263.767 57.7093 264.208C57.8784 264.646 58.1253 264.989 58.4501 265.237C58.7749 265.482 59.1726 265.605 59.6433 265.605C60.1338 265.605 60.5431 265.476 60.8713 265.217C61.2027 264.955 61.4513 264.604 61.617 264.163C61.786 263.719 61.8706 263.225 61.8706 262.682C61.8706 262.145 61.7877 261.661 61.622 261.23C61.4596 260.796 61.2127 260.453 60.8812 260.201C60.5531 259.946 60.1404 259.818 59.6433 259.818C59.166 259.818 58.765 259.939 58.4402 260.181C58.1154 260.42 57.8701 260.754 57.7044 261.185C57.5386 261.613 57.4558 262.112 57.4558 262.682ZM63.8754 257.412V256.318H71.5117V257.412H68.31V266.5H67.0771V257.412H63.8754ZM72.4625 266.5V258.864H73.5961V260.017H73.6756C73.8148 259.639 74.0667 259.333 74.4313 259.097C74.7959 258.862 75.2069 258.744 75.6642 258.744C75.7504 258.744 75.8581 258.746 75.9874 258.749C76.1167 258.753 76.2144 258.758 76.2807 258.764V259.957C76.2409 259.947 76.1498 259.933 76.0073 259.913C75.8681 259.889 75.7206 259.878 75.5648 259.878C75.1936 259.878 74.8622 259.956 74.5705 260.112C74.2821 260.264 74.0534 260.476 73.8844 260.748C73.7187 261.016 73.6358 261.323 73.6358 261.668V266.5H72.4625ZM79.9187 266.679C79.4348 266.679 78.9956 266.588 78.6012 266.406C78.2068 266.22 77.8936 265.953 77.6616 265.605C77.4296 265.254 77.3136 264.83 77.3136 264.332C77.3136 263.895 77.3997 263.54 77.5721 263.268C77.7444 262.993 77.9748 262.778 78.2631 262.622C78.5515 262.466 78.8697 262.35 79.2177 262.274C79.569 262.195 79.922 262.132 80.2766 262.085C80.7406 262.026 81.1168 261.981 81.4052 261.951C81.6969 261.918 81.909 261.863 82.0415 261.787C82.1774 261.711 82.2454 261.578 82.2454 261.389V261.349C82.2454 260.859 82.1112 260.478 81.8427 260.206C81.5775 259.934 81.1748 259.798 80.6346 259.798C80.0745 259.798 79.6353 259.921 79.3171 260.166C78.9989 260.411 78.7752 260.673 78.646 260.952L77.5323 260.554C77.7312 260.09 77.9963 259.729 78.3278 259.47C78.6625 259.208 79.0271 259.026 79.4215 258.923C79.8192 258.817 80.2103 258.764 80.5948 258.764C80.8401 258.764 81.1218 258.794 81.44 258.854C81.7615 258.91 82.0714 259.028 82.3697 259.207C82.6713 259.386 82.9215 259.656 83.1204 260.017C83.3192 260.378 83.4187 260.862 83.4187 261.469V266.5H82.2454V265.466H82.1857C82.1062 265.632 81.9736 265.809 81.788 265.998C81.6024 266.187 81.3555 266.348 81.0472 266.48C80.739 266.613 80.3628 266.679 79.9187 266.679ZM80.0977 265.625C80.5617 265.625 80.9528 265.534 81.271 265.352C81.5924 265.169 81.8344 264.934 81.9968 264.646C82.1625 264.357 82.2454 264.054 82.2454 263.736V262.662C82.1957 262.722 82.0863 262.776 81.9173 262.826C81.7515 262.872 81.5593 262.914 81.3406 262.95C81.1251 262.983 80.9147 263.013 80.7092 263.04C80.507 263.063 80.3429 263.083 80.217 263.099C79.9121 263.139 79.627 263.204 79.3619 263.293C79.1 263.379 78.8879 263.51 78.7255 263.686C78.5664 263.858 78.4869 264.094 78.4869 264.392C78.4869 264.8 78.6377 265.108 78.9393 265.317C79.2442 265.522 79.6303 265.625 80.0977 265.625ZM88.4437 266.659C87.8074 266.659 87.2456 266.498 86.7583 266.177C86.2711 265.852 85.89 265.395 85.6149 264.805C85.3398 264.211 85.2022 263.51 85.2022 262.702C85.2022 261.9 85.3398 261.204 85.6149 260.614C85.89 260.024 86.2728 259.568 86.7633 259.246C87.2538 258.925 87.8206 258.764 88.4636 258.764C88.9608 258.764 89.3535 258.847 89.6419 259.013C89.9335 259.175 90.1556 259.361 90.3081 259.57C90.4638 259.775 90.5848 259.944 90.671 260.077H90.7704V256.318H91.9437V266.5H90.8102V265.327H90.671C90.5848 265.466 90.4622 265.642 90.3031 265.854C90.144 266.062 89.917 266.25 89.622 266.415C89.327 266.578 88.9342 266.659 88.4437 266.659ZM88.6028 265.605C89.0734 265.605 89.4712 265.482 89.796 265.237C90.1208 264.989 90.3677 264.646 90.5368 264.208C90.7058 263.767 90.7903 263.259 90.7903 262.682C90.7903 262.112 90.7074 261.613 90.5417 261.185C90.376 260.754 90.1307 260.42 89.8059 260.181C89.4811 259.939 89.0801 259.818 88.6028 259.818C88.1056 259.818 87.6913 259.946 87.3599 260.201C87.0318 260.453 86.7849 260.796 86.6191 261.23C86.4567 261.661 86.3755 262.145 86.3755 262.682C86.3755 263.225 86.4584 263.719 86.6241 264.163C86.7931 264.604 87.0417 264.955 87.3699 265.217C87.7013 265.476 88.1123 265.605 88.6028 265.605ZM97.4572 266.659C96.7214 266.659 96.0867 266.497 95.5531 266.172C95.0228 265.844 94.6135 265.386 94.3251 264.8C94.0401 264.21 93.8975 263.524 93.8975 262.741C93.8975 261.959 94.0401 261.27 94.3251 260.673C94.6135 260.073 95.0145 259.606 95.5282 259.271C96.0453 258.933 96.6485 258.764 97.3379 258.764C97.7356 258.764 98.1284 258.83 98.5162 258.963C98.9039 259.096 99.2569 259.311 99.5751 259.609C99.8933 259.904 100.147 260.295 100.336 260.783C100.525 261.27 100.619 261.87 100.619 262.582V263.08H94.7328V262.065H99.426C99.426 261.634 99.3398 261.25 99.1674 260.912C98.9984 260.574 98.7565 260.307 98.4416 260.112C98.13 259.916 97.7621 259.818 97.3379 259.818C96.8706 259.818 96.4662 259.934 96.1248 260.166C95.7868 260.395 95.5266 260.693 95.3443 261.061C95.162 261.429 95.0708 261.823 95.0708 262.244V262.92C95.0708 263.497 95.1703 263.986 95.3691 264.387C95.5713 264.785 95.8514 265.088 96.2093 265.297C96.5673 265.502 96.9833 265.605 97.4572 265.605C97.7654 265.605 98.0439 265.562 98.2924 265.476C98.5443 265.386 98.7614 265.254 98.9437 265.078C99.126 264.899 99.2669 264.677 99.3663 264.412L100.5 264.73C100.381 265.115 100.18 265.453 99.8983 265.744C99.6165 266.033 99.2685 266.258 98.8542 266.42C98.4399 266.58 97.9743 266.659 97.4572 266.659ZM106.501 266.5V256.318H112.606V257.412H107.733V260.852H112.148V261.946H107.733V266.5H106.501ZM114.717 266.5V256.318H118.277C118.986 256.318 119.571 256.441 120.032 256.686C120.493 256.928 120.836 257.254 121.061 257.665C121.286 258.073 121.399 258.526 121.399 259.023C121.399 259.46 121.321 259.821 121.165 260.107C121.013 260.392 120.811 260.617 120.559 260.783C120.31 260.948 120.04 261.071 119.749 261.151V261.25C120.06 261.27 120.373 261.379 120.688 261.578C121.003 261.777 121.267 262.062 121.479 262.433C121.691 262.804 121.797 263.259 121.797 263.795C121.797 264.306 121.681 264.765 121.449 265.173C121.217 265.58 120.851 265.903 120.35 266.142C119.85 266.381 119.198 266.5 118.396 266.5H114.717ZM115.95 265.406H118.396C119.202 265.406 119.773 265.25 120.112 264.939C120.453 264.624 120.624 264.243 120.624 263.795C120.624 263.451 120.536 263.133 120.36 262.841C120.184 262.546 119.934 262.311 119.609 262.135C119.285 261.956 118.9 261.866 118.456 261.866H115.95V265.406ZM115.95 260.793H118.237C118.608 260.793 118.943 260.72 119.241 260.574C119.543 260.428 119.782 260.223 119.957 259.957C120.136 259.692 120.226 259.381 120.226 259.023C120.226 258.575 120.07 258.196 119.759 257.884C119.447 257.569 118.953 257.412 118.277 257.412H115.95V260.793ZM129.391 258.864C129.331 258.36 129.089 257.969 128.665 257.69C128.241 257.412 127.721 257.273 127.104 257.273C126.653 257.273 126.259 257.346 125.921 257.491C125.586 257.637 125.324 257.838 125.135 258.093C124.95 258.348 124.857 258.638 124.857 258.963C124.857 259.235 124.922 259.469 125.051 259.664C125.183 259.856 125.352 260.017 125.558 260.146C125.763 260.272 125.979 260.377 126.204 260.46C126.43 260.539 126.637 260.604 126.826 260.653L127.86 260.932C128.125 261.001 128.42 261.098 128.745 261.22C129.073 261.343 129.386 261.51 129.684 261.722C129.986 261.931 130.234 262.2 130.43 262.528C130.626 262.856 130.723 263.259 130.723 263.736C130.723 264.286 130.579 264.783 130.291 265.227C130.006 265.671 129.588 266.024 129.038 266.286C128.491 266.548 127.827 266.679 127.044 266.679C126.315 266.679 125.684 266.561 125.15 266.326C124.62 266.091 124.202 265.763 123.897 265.342C123.596 264.921 123.425 264.432 123.385 263.875H124.658C124.691 264.259 124.82 264.578 125.046 264.83C125.275 265.078 125.563 265.264 125.911 265.386C126.262 265.506 126.64 265.565 127.044 265.565C127.515 265.565 127.938 265.489 128.312 265.337C128.687 265.181 128.983 264.965 129.202 264.69C129.421 264.412 129.53 264.087 129.53 263.716C129.53 263.378 129.436 263.103 129.247 262.891C129.058 262.679 128.809 262.506 128.501 262.374C128.193 262.241 127.86 262.125 127.502 262.026L126.249 261.668C125.453 261.439 124.824 261.112 124.36 260.688C123.896 260.264 123.664 259.709 123.664 259.023C123.664 258.453 123.818 257.955 124.126 257.531C124.438 257.104 124.855 256.772 125.379 256.537C125.906 256.298 126.494 256.179 127.144 256.179C127.8 256.179 128.383 256.297 128.894 256.532C129.404 256.764 129.809 257.082 130.107 257.487C130.408 257.891 130.568 258.35 130.584 258.864H129.391Z" fill="#334155"/>
<rect x="328" y="252" width="32" height="18" rx="9" fill="#E3EBF6"/>
<circle cx="351" cy="261" r="9" fill="#48B798"/>
<rect y="290" width="380" height="38" rx="15" fill="#F8FAFF"/>
<path d="M30.9553 302.06C31.0443 302.11 31.1132 302.187 31.1506 302.279C31.1881 302.371 31.192 302.473 31.1617 302.567L29.5245 307.688H32.5453C32.6341 307.688 32.7209 307.713 32.7951 307.759C32.8693 307.806 32.9276 307.873 32.9628 307.952C32.998 308.03 33.0085 308.117 32.9931 308.201C32.9777 308.285 32.9371 308.363 32.8762 308.425L25.6037 315.862C25.5334 315.934 25.4397 315.981 25.3381 315.995C25.2364 316.01 25.1328 315.99 25.044 315.941C24.9552 315.891 24.8865 315.814 24.8492 315.722C24.8118 315.63 24.808 315.528 24.8383 315.433L26.4755 310.312H23.4547C23.3659 310.312 23.2791 310.287 23.2049 310.241C23.1307 310.194 23.0724 310.127 23.0372 310.048C23.002 309.97 22.9915 309.883 23.0069 309.799C23.0223 309.715 23.0629 309.637 23.1238 309.575L30.3963 302.138C30.4666 302.066 30.5601 302.019 30.6616 302.005C30.7631 301.99 30.8666 302.009 30.9553 302.059V302.06Z" fill="#334155"/>
<path d="M40.233 304.318H41.7045L45.1648 312.77H45.2841L48.7443 304.318H50.2159V314.5H49.0625V306.764H48.9631L45.7812 314.5H44.6676L41.4858 306.764H41.3864V314.5H40.233V304.318ZM55.7306 314.659C54.9949 314.659 54.3601 314.497 53.8265 314.172C53.2962 313.844 52.8869 313.386 52.5985 312.8C52.3135 312.21 52.171 311.524 52.171 310.741C52.171 309.959 52.3135 309.27 52.5985 308.673C52.8869 308.073 53.2879 307.606 53.8017 307.271C54.3187 306.933 54.9219 306.764 55.6113 306.764C56.0091 306.764 56.4018 306.83 56.7896 306.963C57.1774 307.096 57.5304 307.311 57.8485 307.609C58.1667 307.904 58.4203 308.295 58.6092 308.783C58.7981 309.27 58.8926 309.87 58.8926 310.582V311.08H53.0062V310.065H57.6994C57.6994 309.634 57.6132 309.25 57.4409 308.912C57.2718 308.574 57.0299 308.307 56.715 308.112C56.4035 307.916 56.0356 307.818 55.6113 307.818C55.144 307.818 54.7396 307.934 54.3983 308.166C54.0602 308.395 53.8 308.693 53.6177 309.061C53.4354 309.429 53.3443 309.823 53.3443 310.244V310.92C53.3443 311.497 53.4437 311.986 53.6426 312.387C53.8448 312.785 54.1248 313.088 54.4828 313.297C54.8407 313.502 55.2567 313.605 55.7306 313.605C56.0389 313.605 56.3173 313.562 56.5659 313.476C56.8178 313.386 57.0349 313.254 57.2172 313.078C57.3994 312.899 57.5403 312.677 57.6397 312.412L58.7733 312.73C58.6539 313.115 58.4534 313.453 58.1717 313.744C57.89 314.033 57.542 314.258 57.1277 314.42C56.7134 314.58 56.2477 314.659 55.7306 314.659ZM63.7598 317.523C63.193 317.523 62.7058 317.45 62.2981 317.304C61.8904 317.161 61.5507 316.973 61.2789 316.737C61.0105 316.505 60.7967 316.257 60.6376 315.991L61.5723 315.335C61.6783 315.474 61.8126 315.634 61.975 315.812C62.1374 315.995 62.3594 316.152 62.6412 316.285C62.9262 316.421 63.2991 316.489 63.7598 316.489C64.3762 316.489 64.885 316.339 65.286 316.041C65.6871 315.743 65.8876 315.276 65.8876 314.639V313.088H65.7882C65.702 313.227 65.5794 313.4 65.4203 313.605C65.2645 313.807 65.0391 313.988 64.7441 314.147C64.4525 314.303 64.0581 314.381 63.5609 314.381C62.9444 314.381 62.3909 314.235 61.9004 313.943C61.4132 313.652 61.027 313.227 60.742 312.67C60.4603 312.114 60.3194 311.437 60.3194 310.642C60.3194 309.86 60.457 309.179 60.7321 308.599C61.0072 308.015 61.39 307.565 61.8805 307.246C62.371 306.925 62.9378 306.764 63.5808 306.764C64.0779 306.764 64.4724 306.847 64.764 307.013C65.059 307.175 65.2844 307.361 65.4402 307.57C65.5993 307.775 65.7219 307.944 65.8081 308.077H65.9274V306.864H67.0609V314.719C67.0609 315.375 66.9118 315.909 66.6135 316.32C66.3185 316.734 65.9208 317.037 65.4203 317.229C64.9231 317.425 64.3696 317.523 63.7598 317.523ZM63.72 313.327C64.1906 313.327 64.5884 313.219 64.9132 313.004C65.238 312.788 65.4849 312.478 65.6539 312.074C65.823 311.67 65.9075 311.186 65.9075 310.622C65.9075 310.072 65.8246 309.586 65.6589 309.165C65.4932 308.745 65.2479 308.415 64.9231 308.176C64.5983 307.937 64.1973 307.818 63.72 307.818C63.2228 307.818 62.8085 307.944 62.4771 308.196C62.149 308.448 61.902 308.786 61.7363 309.21C61.5739 309.634 61.4927 310.105 61.4927 310.622C61.4927 311.152 61.5756 311.621 61.7413 312.029C61.9103 312.433 62.1589 312.752 62.487 312.984C62.8185 313.212 63.2295 313.327 63.72 313.327ZM71.4558 314.679C70.9719 314.679 70.5327 314.588 70.1383 314.406C69.7439 314.22 69.4307 313.953 69.1987 313.605C68.9667 313.254 68.8507 312.83 68.8507 312.332C68.8507 311.895 68.9368 311.54 69.1092 311.268C69.2815 310.993 69.5119 310.778 69.8002 310.622C70.0886 310.466 70.4068 310.35 70.7548 310.274C71.1061 310.195 71.4591 310.132 71.8137 310.085C72.2778 310.026 72.6539 309.981 72.9423 309.951C73.234 309.918 73.4461 309.863 73.5787 309.787C73.7145 309.711 73.7825 309.578 73.7825 309.389V309.349C73.7825 308.859 73.6483 308.478 73.3798 308.206C73.1146 307.934 72.7119 307.798 72.1717 307.798C71.6116 307.798 71.1724 307.921 70.8542 308.166C70.536 308.411 70.3123 308.673 70.1831 308.952L69.0694 308.554C69.2683 308.09 69.5334 307.729 69.8649 307.47C70.1996 307.208 70.5642 307.026 70.9586 306.923C71.3564 306.817 71.7475 306.764 72.1319 306.764C72.3772 306.764 72.6589 306.794 72.9771 306.854C73.2986 306.91 73.6085 307.028 73.9068 307.207C74.2084 307.386 74.4586 307.656 74.6575 308.017C74.8564 308.378 74.9558 308.862 74.9558 309.469V314.5H73.7825V313.466H73.7228C73.6433 313.632 73.5107 313.809 73.3251 313.998C73.1395 314.187 72.8926 314.348 72.5843 314.48C72.2761 314.613 71.8999 314.679 71.4558 314.679ZM71.6348 313.625C72.0988 313.625 72.4899 313.534 72.8081 313.352C73.1296 313.169 73.3715 312.934 73.5339 312.646C73.6996 312.357 73.7825 312.054 73.7825 311.736V310.662C73.7328 310.722 73.6234 310.776 73.4544 310.826C73.2886 310.872 73.0964 310.914 72.8777 310.95C72.6622 310.983 72.4518 311.013 72.2463 311.04C72.0441 311.063 71.88 311.083 71.7541 311.099C71.4492 311.139 71.1641 311.204 70.899 311.293C70.6371 311.379 70.425 311.51 70.2626 311.686C70.1035 311.858 70.024 312.094 70.024 312.392C70.024 312.8 70.1748 313.108 70.4764 313.317C70.7813 313.522 71.1674 313.625 71.6348 313.625ZM82.8246 306.864C82.7649 306.36 82.523 305.969 82.0987 305.69C81.6745 305.412 81.1541 305.273 80.5376 305.273C80.0869 305.273 79.6925 305.346 79.3544 305.491C79.0196 305.637 78.7578 305.838 78.5689 306.093C78.3833 306.348 78.2905 306.638 78.2905 306.963C78.2905 307.235 78.3551 307.469 78.4844 307.664C78.617 307.856 78.786 308.017 78.9915 308.146C79.197 308.272 79.4124 308.377 79.6378 308.46C79.8632 308.539 80.0703 308.604 80.2592 308.653L81.2933 308.932C81.5585 309.001 81.8535 309.098 82.1783 309.22C82.5064 309.343 82.8196 309.51 83.1179 309.722C83.4195 309.931 83.6681 310.2 83.8636 310.528C84.0592 310.856 84.157 311.259 84.157 311.736C84.157 312.286 84.0128 312.783 83.7244 313.227C83.4394 313.671 83.0218 314.024 82.4716 314.286C81.9247 314.548 81.2602 314.679 80.478 314.679C79.7488 314.679 79.1174 314.561 78.5838 314.326C78.0535 314.091 77.6359 313.763 77.331 313.342C77.0294 312.921 76.8587 312.432 76.8189 311.875H78.0916C78.1248 312.259 78.254 312.578 78.4794 312.83C78.7081 313.078 78.9964 313.264 79.3445 313.386C79.6958 313.506 80.0736 313.565 80.478 313.565C80.9486 313.565 81.3712 313.489 81.7457 313.337C82.1203 313.181 82.4169 312.965 82.6357 312.69C82.8544 312.412 82.9638 312.087 82.9638 311.716C82.9638 311.378 82.8693 311.103 82.6804 310.891C82.4915 310.679 82.2429 310.506 81.9347 310.374C81.6264 310.241 81.2933 310.125 80.9354 310.026L79.6825 309.668C78.8871 309.439 78.2573 309.112 77.7933 308.688C77.3293 308.264 77.0973 307.709 77.0973 307.023C77.0973 306.453 77.2514 305.955 77.5597 305.531C77.8712 305.104 78.2888 304.772 78.8125 304.537C79.3395 304.298 79.9278 304.179 80.5774 304.179C81.2337 304.179 81.817 304.297 82.3274 304.532C82.8378 304.764 83.2422 305.082 83.5405 305.487C83.8421 305.891 84.0012 306.35 84.0178 306.864H82.8246ZM89.3461 306.864V307.858H85.3887V306.864H89.3461ZM86.5421 305.034H87.7154V312.312C87.7154 312.644 87.7634 312.893 87.8596 313.058C87.959 313.221 88.0849 313.33 88.2374 313.386C88.3932 313.439 88.5572 313.466 88.7296 313.466C88.8588 313.466 88.9649 313.459 89.0478 313.446C89.1306 313.429 89.1969 313.416 89.2466 313.406L89.4853 314.46C89.4057 314.49 89.2947 314.52 89.1522 314.55C89.0096 314.583 88.829 314.599 88.6103 314.599C88.2788 314.599 87.954 314.528 87.6358 314.386C87.321 314.243 87.0591 314.026 86.8503 313.734C86.6448 313.443 86.5421 313.075 86.5421 312.631V305.034ZM94.1312 314.659C93.4418 314.659 92.8369 314.495 92.3166 314.167C91.7995 313.839 91.3952 313.38 91.1035 312.79C90.8152 312.2 90.671 311.51 90.671 310.722C90.671 309.926 90.8152 309.232 91.1035 308.638C91.3952 308.045 91.7995 307.585 92.3166 307.256C92.8369 306.928 93.4418 306.764 94.1312 306.764C94.8206 306.764 95.4238 306.928 95.9409 307.256C96.4612 307.585 96.8656 308.045 97.1539 308.638C97.4456 309.232 97.5914 309.926 97.5914 310.722C97.5914 311.51 97.4456 312.2 97.1539 312.79C96.8656 313.38 96.4612 313.839 95.9409 314.167C95.4238 314.495 94.8206 314.659 94.1312 314.659ZM94.1312 313.605C94.6549 313.605 95.0858 313.471 95.4238 313.202C95.7619 312.934 96.0121 312.581 96.1745 312.143C96.3369 311.706 96.4181 311.232 96.4181 310.722C96.4181 310.211 96.3369 309.736 96.1745 309.295C96.0121 308.854 95.7619 308.498 95.4238 308.226C95.0858 307.954 94.6549 307.818 94.1312 307.818C93.6075 307.818 93.1767 307.954 92.8386 308.226C92.5005 308.498 92.2503 308.854 92.0879 309.295C91.9255 309.736 91.8443 310.211 91.8443 310.722C91.8443 311.232 91.9255 311.706 92.0879 312.143C92.2503 312.581 92.5005 312.934 92.8386 313.202C93.1767 313.471 93.6075 313.605 94.1312 313.605ZM99.3825 314.5V306.864H100.516V308.017H100.596C100.735 307.639 100.987 307.333 101.351 307.097C101.716 306.862 102.127 306.744 102.584 306.744C102.67 306.744 102.778 306.746 102.907 306.749C103.037 306.753 103.134 306.758 103.201 306.764V307.957C103.161 307.947 103.07 307.933 102.927 307.913C102.788 307.889 102.641 307.878 102.485 307.878C102.114 307.878 101.782 307.956 101.49 308.112C101.202 308.264 100.973 308.476 100.804 308.748C100.639 309.016 100.556 309.323 100.556 309.668V314.5H99.3825ZM107.561 314.659C106.825 314.659 106.19 314.497 105.657 314.172C105.126 313.844 104.717 313.386 104.429 312.8C104.144 312.21 104.001 311.524 104.001 310.741C104.001 309.959 104.144 309.27 104.429 308.673C104.717 308.073 105.118 307.606 105.632 307.271C106.149 306.933 106.752 306.764 107.441 306.764C107.839 306.764 108.232 306.83 108.62 306.963C109.007 307.096 109.36 307.311 109.679 307.609C109.997 307.904 110.25 308.295 110.439 308.783C110.628 309.27 110.723 309.87 110.723 310.582V311.08H104.836V310.065H109.529C109.529 309.634 109.443 309.25 109.271 308.912C109.102 308.574 108.86 308.307 108.545 308.112C108.234 307.916 107.866 307.818 107.441 307.818C106.974 307.818 106.57 307.934 106.228 308.166C105.89 308.395 105.63 308.693 105.448 309.061C105.266 309.429 105.174 309.823 105.174 310.244V310.92C105.174 311.497 105.274 311.986 105.473 312.387C105.675 312.785 105.955 313.088 106.313 313.297C106.671 313.502 107.087 313.605 107.561 313.605C107.869 313.605 108.147 313.562 108.396 313.476C108.648 313.386 108.865 313.254 109.047 313.078C109.23 312.899 109.37 312.677 109.47 312.412L110.603 312.73C110.484 313.115 110.283 313.453 110.002 313.744C109.72 314.033 109.372 314.258 108.958 314.42C108.543 314.58 108.078 314.659 107.561 314.659ZM116.604 314.5V304.318H122.709V305.412H117.837V308.852H122.252V309.946H117.837V314.5H116.604ZM124.821 314.5V304.318H128.381C129.09 304.318 129.675 304.441 130.135 304.686C130.596 304.928 130.939 305.254 131.165 305.665C131.39 306.073 131.503 306.526 131.503 307.023C131.503 307.46 131.425 307.821 131.269 308.107C131.117 308.392 130.914 308.617 130.662 308.783C130.414 308.948 130.144 309.071 129.852 309.151V309.25C130.164 309.27 130.477 309.379 130.792 309.578C131.107 309.777 131.37 310.062 131.582 310.433C131.794 310.804 131.9 311.259 131.9 311.795C131.9 312.306 131.784 312.765 131.552 313.173C131.32 313.58 130.954 313.903 130.454 314.142C129.953 314.381 129.302 314.5 128.5 314.5H124.821ZM126.054 313.406H128.5C129.305 313.406 129.877 313.25 130.215 312.939C130.556 312.624 130.727 312.243 130.727 311.795C130.727 311.451 130.639 311.133 130.464 310.841C130.288 310.546 130.038 310.311 129.713 310.135C129.388 309.956 129.004 309.866 128.559 309.866H126.054V313.406ZM126.054 308.793H128.341C128.712 308.793 129.047 308.72 129.345 308.574C129.647 308.428 129.885 308.223 130.061 307.957C130.24 307.692 130.329 307.381 130.329 307.023C130.329 306.575 130.174 306.196 129.862 305.884C129.55 305.569 129.057 305.412 128.381 305.412H126.054V308.793ZM142.517 309.409C142.517 310.483 142.323 311.411 141.936 312.193C141.548 312.975 141.016 313.579 140.34 314.003C139.664 314.427 138.891 314.639 138.023 314.639C137.155 314.639 136.382 314.427 135.706 314.003C135.03 313.579 134.498 312.975 134.11 312.193C133.722 311.411 133.529 310.483 133.529 309.409C133.529 308.335 133.722 307.407 134.11 306.625C134.498 305.843 135.03 305.24 135.706 304.815C136.382 304.391 137.155 304.179 138.023 304.179C138.891 304.179 139.664 304.391 140.34 304.815C141.016 305.24 141.548 305.843 141.936 306.625C142.323 307.407 142.517 308.335 142.517 309.409ZM141.324 309.409C141.324 308.527 141.177 307.783 140.882 307.177C140.59 306.57 140.194 306.111 139.693 305.8C139.196 305.488 138.639 305.332 138.023 305.332C137.406 305.332 136.848 305.488 136.347 305.8C135.85 306.111 135.454 306.57 135.159 307.177C134.868 307.783 134.722 308.527 134.722 309.409C134.722 310.291 134.868 311.035 135.159 311.641C135.454 312.248 135.85 312.707 136.347 313.018C136.848 313.33 137.406 313.486 138.023 313.486C138.639 313.486 139.196 313.33 139.693 313.018C140.194 312.707 140.59 312.248 140.882 311.641C141.177 311.035 141.324 310.291 141.324 309.409Z" fill="#334155"/>
<rect x="328" y="300" width="32" height="18" rx="9" fill="#E3EBF6"/>
<circle cx="337" cy="309" r="8.5" fill="white" stroke="#E3EBF6"/>
<rect y="338" width="380" height="38" rx="15" fill="#F8FAFF"/>
<path d="M30.9553 350.06C31.0443 350.11 31.1132 350.187 31.1506 350.279C31.1881 350.371 31.192 350.473 31.1617 350.567L29.5245 355.688H32.5453C32.6341 355.688 32.7209 355.713 32.7951 355.759C32.8693 355.806 32.9276 355.873 32.9628 355.952C32.998 356.03 33.0085 356.117 32.9931 356.201C32.9777 356.285 32.9371 356.363 32.8762 356.425L25.6037 363.862C25.5334 363.934 25.4397 363.981 25.3381 363.995C25.2364 364.01 25.1328 363.99 25.044 363.941C24.9552 363.891 24.8865 363.814 24.8492 363.722C24.8118 363.63 24.808 363.528 24.8383 363.433L26.4755 358.312H23.4547C23.3659 358.312 23.2791 358.287 23.2049 358.241C23.1307 358.194 23.0724 358.127 23.0372 358.048C23.002 357.97 22.9915 357.883 23.0069 357.799C23.0223 357.715 23.0629 357.637 23.1238 357.575L30.3963 350.138C30.4666 350.066 30.5601 350.019 30.6616 350.005C30.7631 349.99 30.8666 350.009 30.9553 350.059V350.06Z" fill="url(#paint3_linear_14_3389)"/>
<path d="M40.233 352.318H41.7045L45.1648 360.77H45.2841L48.7443 352.318H50.2159V362.5H49.0625V354.764H48.9631L45.7812 362.5H44.6676L41.4858 354.764H41.3864V362.5H40.233V352.318ZM52.5289 362.5V354.864H53.7022V362.5H52.5289ZM53.1255 353.591C52.8968 353.591 52.6996 353.513 52.5339 353.357C52.3715 353.201 52.2903 353.014 52.2903 352.795C52.2903 352.577 52.3715 352.389 52.5339 352.234C52.6996 352.078 52.8968 352 53.1255 352C53.3542 352 53.5498 352.078 53.7122 352.234C53.8779 352.389 53.9608 352.577 53.9608 352.795C53.9608 353.014 53.8779 353.201 53.7122 353.357C53.5498 353.513 53.3542 353.591 53.1255 353.591ZM61.5785 354.864C61.5188 354.36 61.2769 353.969 60.8526 353.69C60.4284 353.412 59.908 353.273 59.2915 353.273C58.8408 353.273 58.4464 353.346 58.1083 353.491C57.7736 353.637 57.5117 353.838 57.3228 354.093C57.1372 354.348 57.0444 354.638 57.0444 354.963C57.0444 355.235 57.109 355.469 57.2383 355.664C57.3709 355.856 57.5399 356.017 57.7454 356.146C57.9509 356.272 58.1663 356.377 58.3917 356.46C58.6171 356.539 58.8242 356.604 59.0131 356.653L60.0472 356.932C60.3124 357.001 60.6074 357.098 60.9322 357.22C61.2603 357.343 61.5735 357.51 61.8718 357.722C62.1734 357.931 62.422 358.2 62.6175 358.528C62.8131 358.856 62.9109 359.259 62.9109 359.736C62.9109 360.286 62.7667 360.783 62.4783 361.227C62.1933 361.671 61.7757 362.024 61.2255 362.286C60.6786 362.548 60.0141 362.679 59.2319 362.679C58.5027 362.679 57.8713 362.561 57.3377 362.326C56.8074 362.091 56.3898 361.763 56.0849 361.342C55.7833 360.921 55.6126 360.432 55.5728 359.875H56.8455C56.8787 360.259 57.0079 360.578 57.2333 360.83C57.462 361.078 57.7504 361.264 58.0984 361.386C58.4497 361.506 58.8275 361.565 59.2319 361.565C59.7025 361.565 60.1251 361.489 60.4996 361.337C60.8742 361.181 61.1708 360.965 61.3896 360.69C61.6083 360.412 61.7177 360.087 61.7177 359.716C61.7177 359.378 61.6232 359.103 61.4343 358.891C61.2454 358.679 60.9968 358.506 60.6886 358.374C60.3803 358.241 60.0472 358.125 59.6893 358.026L58.4364 357.668C57.641 357.439 57.0112 357.112 56.5472 356.688C56.0832 356.264 55.8512 355.709 55.8512 355.023C55.8512 354.453 56.0053 353.955 56.3136 353.531C56.6251 353.104 57.0427 352.772 57.5664 352.537C58.0934 352.298 58.6817 352.179 59.3313 352.179C59.9876 352.179 60.5709 352.297 61.0813 352.532C61.5917 352.764 61.9961 353.082 62.2944 353.487C62.596 353.891 62.7551 354.35 62.7717 354.864H61.5785ZM64.3812 353.412V352.318H72.0176V353.412H68.8159V362.5H67.5829V353.412H64.3812ZM82.0875 357.409C82.0875 358.483 81.8936 359.411 81.5059 360.193C81.1181 360.975 80.5861 361.579 79.91 362.003C79.2338 362.427 78.4616 362.639 77.5932 362.639C76.7248 362.639 75.9526 362.427 75.2765 362.003C74.6003 361.579 74.0684 360.975 73.6806 360.193C73.2928 359.411 73.0989 358.483 73.0989 357.409C73.0989 356.335 73.2928 355.407 73.6806 354.625C74.0684 353.843 74.6003 353.24 75.2765 352.815C75.9526 352.391 76.7248 352.179 77.5932 352.179C78.4616 352.179 79.2338 352.391 79.91 352.815C80.5861 353.24 81.1181 353.843 81.5059 354.625C81.8936 355.407 82.0875 356.335 82.0875 357.409ZM80.8944 357.409C80.8944 356.527 80.7469 355.783 80.4519 355.177C80.1602 354.57 79.7641 354.111 79.2637 353.8C78.7665 353.488 78.2097 353.332 77.5932 353.332C76.9767 353.332 76.4183 353.488 75.9178 353.8C75.4206 354.111 75.0246 354.57 74.7296 355.177C74.4379 355.783 74.2921 356.527 74.2921 357.409C74.2921 358.291 74.4379 359.035 74.7296 359.641C75.0246 360.248 75.4206 360.707 75.9178 361.018C76.4183 361.33 76.9767 361.486 77.5932 361.486C78.2097 361.486 78.7665 361.33 79.2637 361.018C79.7641 360.707 80.1602 360.248 80.4519 359.641C80.7469 359.035 80.8944 358.291 80.8944 357.409ZM84.1607 362.5V352.318H87.601C88.3965 352.318 89.0494 352.454 89.5598 352.726C90.0703 352.994 90.4481 353.364 90.6934 353.835C90.9386 354.305 91.0613 354.84 91.0613 355.44C91.0613 356.04 90.9386 356.572 90.6934 357.036C90.4481 357.5 90.0719 357.865 89.5648 358.13C89.0577 358.392 88.4097 358.523 87.6209 358.523H84.8368V357.409H87.5811C88.1247 357.409 88.5622 357.33 88.8936 357.17C89.2284 357.011 89.4703 356.786 89.6195 356.494C89.772 356.199 89.8482 355.848 89.8482 355.44C89.8482 355.033 89.772 354.676 89.6195 354.371C89.467 354.067 89.2234 353.831 88.8887 353.665C88.5539 353.496 88.1114 353.412 87.5613 353.412H85.3936V362.5H84.1607ZM88.9533 357.926L91.459 362.5H90.0272L87.5613 357.926H88.9533ZM93.1158 362.5V352.318H99.2607V353.412H94.3487V356.852H98.9425V357.946H94.3487V361.406H99.3402V362.5H93.1158ZM105.42 362.5V352.318H111.526V353.412H106.653V356.852H111.068V357.946H106.653V362.5H105.42ZM113.637 362.5V352.318H117.197C117.906 352.318 118.491 352.441 118.952 352.686C119.413 352.928 119.756 353.254 119.981 353.665C120.206 354.073 120.319 354.526 120.319 355.023C120.319 355.46 120.241 355.821 120.085 356.107C119.933 356.392 119.731 356.617 119.479 356.783C119.23 356.948 118.96 357.071 118.669 357.151V357.25C118.98 357.27 119.293 357.379 119.608 357.578C119.923 357.777 120.186 358.062 120.399 358.433C120.611 358.804 120.717 359.259 120.717 359.795C120.717 360.306 120.601 360.765 120.369 361.173C120.137 361.58 119.771 361.903 119.27 362.142C118.77 362.381 118.118 362.5 117.316 362.5H113.637ZM114.87 361.406H117.316C118.122 361.406 118.693 361.25 119.031 360.939C119.373 360.624 119.544 360.243 119.544 359.795C119.544 359.451 119.456 359.133 119.28 358.841C119.104 358.546 118.854 358.311 118.529 358.135C118.204 357.956 117.82 357.866 117.376 357.866H114.87V361.406ZM114.87 356.793H117.157C117.528 356.793 117.863 356.72 118.161 356.574C118.463 356.428 118.702 356.223 118.877 355.957C119.056 355.692 119.146 355.381 119.146 355.023C119.146 354.575 118.99 354.196 118.678 353.884C118.367 353.569 117.873 353.412 117.197 353.412H114.87V356.793ZM128.311 354.864C128.251 354.36 128.009 353.969 127.585 353.69C127.161 353.412 126.64 353.273 126.024 353.273C125.573 353.273 125.179 353.346 124.841 353.491C124.506 353.637 124.244 353.838 124.055 354.093C123.87 354.348 123.777 354.638 123.777 354.963C123.777 355.235 123.841 355.469 123.971 355.664C124.103 355.856 124.272 356.017 124.478 356.146C124.683 356.272 124.899 356.377 125.124 356.46C125.349 356.539 125.557 356.604 125.746 356.653L126.78 356.932C127.045 357.001 127.34 357.098 127.665 357.22C127.993 357.343 128.306 357.51 128.604 357.722C128.906 357.931 129.154 358.2 129.35 358.528C129.546 358.856 129.643 359.259 129.643 359.736C129.643 360.286 129.499 360.783 129.211 361.227C128.926 361.671 128.508 362.024 127.958 362.286C127.411 362.548 126.747 362.679 125.964 362.679C125.235 362.679 124.604 362.561 124.07 362.326C123.54 362.091 123.122 361.763 122.817 361.342C122.516 360.921 122.345 360.432 122.305 359.875H123.578C123.611 360.259 123.74 360.578 123.966 360.83C124.194 361.078 124.483 361.264 124.831 361.386C125.182 361.506 125.56 361.565 125.964 361.565C126.435 361.565 126.858 361.489 127.232 361.337C127.607 361.181 127.903 360.965 128.122 360.69C128.341 360.412 128.45 360.087 128.45 359.716C128.45 359.378 128.356 359.103 128.167 358.891C127.978 358.679 127.729 358.506 127.421 358.374C127.113 358.241 126.78 358.125 126.422 358.026L125.169 357.668C124.373 357.439 123.744 357.112 123.28 356.688C122.816 356.264 122.584 355.709 122.584 355.023C122.584 354.453 122.738 353.955 123.046 353.531C123.358 353.104 123.775 352.772 124.299 352.537C124.826 352.298 125.414 352.179 126.064 352.179C126.72 352.179 127.303 352.297 127.814 352.532C128.324 352.764 128.729 353.082 129.027 353.487C129.328 353.891 129.488 354.35 129.504 354.864H128.311Z" fill="#334155"/>
<rect x="328" y="348" width="32" height="18" rx="9" fill="#E3EBF6"/>
<circle cx="351" cy="357" r="9" fill="#48B798"/>
<rect y="386" width="380" height="38" rx="15" fill="#F8FAFF"/>
<path d="M30.9553 398.06C31.0443 398.11 31.1132 398.187 31.1506 398.279C31.1881 398.371 31.192 398.473 31.1617 398.567L29.5245 403.688H32.5453C32.6341 403.688 32.7209 403.713 32.7951 403.759C32.8693 403.806 32.9276 403.873 32.9628 403.952C32.998 404.03 33.0085 404.117 32.9931 404.201C32.9777 404.285 32.9371 404.363 32.8762 404.425L25.6037 411.862C25.5334 411.934 25.4397 411.981 25.3381 411.995C25.2364 412.01 25.1328 411.99 25.044 411.941C24.9552 411.891 24.8865 411.814 24.8492 411.722C24.8118 411.63 24.808 411.528 24.8383 411.433L26.4755 406.312H23.4547C23.3659 406.312 23.2791 406.287 23.2049 406.241C23.1307 406.194 23.0724 406.127 23.0372 406.048C23.002 405.97 22.9915 405.883 23.0069 405.799C23.0223 405.715 23.0629 405.637 23.1238 405.575L30.3963 398.138C30.4666 398.066 30.5601 398.019 30.6616 398.005C30.7631 397.99 30.8666 398.009 30.9553 398.059V398.06Z" fill="#334155"/>
<path d="M40.233 400.318H41.7045L45.1648 408.77H45.2841L48.7443 400.318H50.2159V410.5H49.0625V402.764H48.9631L45.7812 410.5H44.6676L41.4858 402.764H41.3864V410.5H40.233V400.318ZM52.5289 410.5V402.864H53.7022V410.5H52.5289ZM53.1255 401.591C52.8968 401.591 52.6996 401.513 52.5339 401.357C52.3715 401.201 52.2903 401.014 52.2903 400.795C52.2903 400.577 52.3715 400.389 52.5339 400.234C52.6996 400.078 52.8968 400 53.1255 400C53.3542 400 53.5498 400.078 53.7122 400.234C53.8779 400.389 53.9608 400.577 53.9608 400.795C53.9608 401.014 53.8779 401.201 53.7122 401.357C53.5498 401.513 53.3542 401.591 53.1255 401.591ZM55.4535 401.412V400.318H63.0898V401.412H59.8881V410.5H58.6552V401.412H55.4535ZM64.9927 410.5V400.318H68.4331C69.2285 400.318 69.8815 400.454 70.3919 400.726C70.9023 400.994 71.2801 401.364 71.5254 401.835C71.7707 402.305 71.8933 402.84 71.8933 403.44C71.8933 404.04 71.7707 404.572 71.5254 405.036C71.2801 405.5 70.9039 405.865 70.3968 406.13C69.8897 406.392 69.2418 406.523 68.4529 406.523H65.6689V405.409H68.4132C68.9567 405.409 69.3942 405.33 69.7257 405.17C70.0604 405.011 70.3024 404.786 70.4515 404.494C70.604 404.199 70.6802 403.848 70.6802 403.44C70.6802 403.033 70.604 402.676 70.4515 402.371C70.2991 402.067 70.0555 401.831 69.7207 401.665C69.3859 401.496 68.9435 401.412 68.3933 401.412H66.2257V410.5H64.9927ZM69.7853 405.926L72.291 410.5H70.8592L68.3933 405.926H69.7853ZM74.3654 410.5H73.0728L76.8114 400.318H78.0842L81.8228 410.5H80.5302L77.4876 401.929H77.408L74.3654 410.5ZM74.8427 406.523H80.0529V407.616H74.8427V406.523ZM86.5508 410.5H83.4087V400.318H86.69C87.6777 400.318 88.5228 400.522 89.2255 400.93C89.9281 401.334 90.4667 401.916 90.8413 402.675C91.2158 403.43 91.4031 404.335 91.4031 405.389C91.4031 406.45 91.2141 407.363 90.8363 408.129C90.4585 408.891 89.9083 409.478 89.1857 409.888C88.4632 410.296 87.5849 410.5 86.5508 410.5ZM84.6417 409.406H86.4712C87.3131 409.406 88.0108 409.244 88.5643 408.919C89.1178 408.594 89.5304 408.132 89.8022 407.532C90.074 406.932 90.2099 406.218 90.2099 405.389C90.2099 404.567 90.0756 403.86 89.8072 403.266C89.5387 402.67 89.1377 402.212 88.604 401.894C88.0704 401.573 87.4059 401.412 86.6104 401.412H84.6417V409.406ZM93.4712 410.5V400.318H99.6161V401.412H94.7042V404.852H99.2979V405.946H94.7042V409.406H99.6957V410.5H93.4712ZM105.776 410.5V400.318H111.881V401.412H107.009V404.852H111.424V405.946H107.009V410.5H105.776ZM113.993 410.5V400.318H117.552C118.262 400.318 118.847 400.441 119.307 400.686C119.768 400.928 120.111 401.254 120.336 401.665C120.562 402.073 120.675 402.526 120.675 403.023C120.675 403.46 120.597 403.821 120.441 404.107C120.288 404.392 120.086 404.617 119.834 404.783C119.586 404.948 119.316 405.071 119.024 405.151V405.25C119.336 405.27 119.649 405.379 119.964 405.578C120.278 405.777 120.542 406.062 120.754 406.433C120.966 406.804 121.072 407.259 121.072 407.795C121.072 408.306 120.956 408.765 120.724 409.173C120.492 409.58 120.126 409.903 119.626 410.142C119.125 410.381 118.474 410.5 117.672 410.5H113.993ZM115.226 409.406H117.672C118.477 409.406 119.049 409.25 119.387 408.939C119.728 408.624 119.899 408.243 119.899 407.795C119.899 407.451 119.811 407.133 119.635 406.841C119.46 406.546 119.21 406.311 118.885 406.135C118.56 405.956 118.175 405.866 117.731 405.866H115.226V409.406ZM115.226 404.793H117.513C117.884 404.793 118.219 404.72 118.517 404.574C118.818 404.428 119.057 404.223 119.233 403.957C119.412 403.692 119.501 403.381 119.501 403.023C119.501 402.575 119.345 402.196 119.034 401.884C118.722 401.569 118.229 401.412 117.552 401.412H115.226V404.793ZM128.666 402.864C128.607 402.36 128.365 401.969 127.941 401.69C127.516 401.412 126.996 401.273 126.379 401.273C125.929 401.273 125.534 401.346 125.196 401.491C124.861 401.637 124.6 401.838 124.411 402.093C124.225 402.348 124.132 402.638 124.132 402.963C124.132 403.235 124.197 403.469 124.326 403.664C124.459 403.856 124.628 404.017 124.833 404.146C125.039 404.272 125.254 404.377 125.48 404.46C125.705 404.539 125.912 404.604 126.101 404.653L127.135 404.932C127.4 405.001 127.695 405.098 128.02 405.22C128.348 405.343 128.661 405.51 128.96 405.722C129.261 405.931 129.51 406.2 129.705 406.528C129.901 406.856 129.999 407.259 129.999 407.736C129.999 408.286 129.855 408.783 129.566 409.227C129.281 409.671 128.864 410.024 128.313 410.286C127.767 410.548 127.102 410.679 126.32 410.679C125.591 410.679 124.959 410.561 124.426 410.326C123.895 410.091 123.478 409.763 123.173 409.342C122.871 408.921 122.7 408.432 122.661 407.875H123.933C123.967 408.259 124.096 408.578 124.321 408.83C124.55 409.078 124.838 409.264 125.186 409.386C125.538 409.506 125.915 409.565 126.32 409.565C126.79 409.565 127.213 409.489 127.588 409.337C127.962 409.181 128.259 408.965 128.477 408.69C128.696 408.412 128.806 408.087 128.806 407.716C128.806 407.378 128.711 407.103 128.522 406.891C128.333 406.679 128.085 406.506 127.776 406.374C127.468 406.241 127.135 406.125 126.777 406.026L125.524 405.668C124.729 405.439 124.099 405.112 123.635 404.688C123.171 404.264 122.939 403.709 122.939 403.023C122.939 402.453 123.093 401.955 123.401 401.531C123.713 401.104 124.131 400.772 124.654 400.537C125.181 400.298 125.77 400.179 126.419 400.179C127.075 400.179 127.659 400.297 128.169 400.532C128.68 400.764 129.084 401.082 129.382 401.487C129.684 401.891 129.843 402.35 129.86 402.864H128.666Z" fill="#334155"/>
<rect x="328" y="396" width="32" height="18" rx="9" fill="#E3EBF6"/>
<circle cx="337" cy="405" r="8.5" fill="white" stroke="#E3EBF6"/>
<rect y="434" width="380" height="38" rx="15" fill="#F8FAFF"/>
<path d="M30.9553 446.06C31.0443 446.11 31.1132 446.187 31.1506 446.279C31.1881 446.371 31.192 446.473 31.1617 446.567L29.5245 451.688H32.5453C32.6341 451.688 32.7209 451.713 32.7951 451.759C32.8693 451.806 32.9276 451.873 32.9628 451.952C32.998 452.03 33.0085 452.117 32.9931 452.201C32.9777 452.285 32.9371 452.363 32.8762 452.425L25.6037 459.862C25.5334 459.934 25.4397 459.981 25.3381 459.995C25.2364 460.01 25.1328 459.99 25.044 459.941C24.9552 459.891 24.8865 459.814 24.8492 459.722C24.8118 459.63 24.808 459.528 24.8383 459.433L26.4755 454.312H23.4547C23.3659 454.312 23.2791 454.287 23.2049 454.241C23.1307 454.194 23.0724 454.127 23.0372 454.048C23.002 453.97 22.9915 453.883 23.0069 453.799C23.0223 453.715 23.0629 453.637 23.1238 453.575L30.3963 446.138C30.4666 446.066 30.5601 446.019 30.6616 446.005C30.7631 445.99 30.8666 446.009 30.9553 446.059V446.06Z" fill="url(#paint4_linear_14_3389)"/>
<path d="M40.233 448.318H41.7045L45.1648 456.77H45.2841L48.7443 448.318H50.2159V458.5H49.0625V450.764H48.9631L45.7812 458.5H44.6676L41.4858 450.764H41.3864V458.5H40.233V448.318ZM52.5289 458.5V450.864H53.7022V458.5H52.5289ZM53.1255 449.591C52.8968 449.591 52.6996 449.513 52.5339 449.357C52.3715 449.201 52.2903 449.014 52.2903 448.795C52.2903 448.577 52.3715 448.389 52.5339 448.234C52.6996 448.078 52.8968 448 53.1255 448C53.3542 448 53.5498 448.078 53.7122 448.234C53.8779 448.389 53.9608 448.577 53.9608 448.795C53.9608 449.014 53.8779 449.201 53.7122 449.357C53.5498 449.513 53.3542 449.591 53.1255 449.591ZM61.5785 450.864C61.5188 450.36 61.2769 449.969 60.8526 449.69C60.4284 449.412 59.908 449.273 59.2915 449.273C58.8408 449.273 58.4464 449.346 58.1083 449.491C57.7736 449.637 57.5117 449.838 57.3228 450.093C57.1372 450.348 57.0444 450.638 57.0444 450.963C57.0444 451.235 57.109 451.469 57.2383 451.664C57.3709 451.856 57.5399 452.017 57.7454 452.146C57.9509 452.272 58.1663 452.377 58.3917 452.46C58.6171 452.539 58.8242 452.604 59.0131 452.653L60.0472 452.932C60.3124 453.001 60.6074 453.098 60.9322 453.22C61.2603 453.343 61.5735 453.51 61.8718 453.722C62.1734 453.931 62.422 454.2 62.6175 454.528C62.8131 454.856 62.9109 455.259 62.9109 455.736C62.9109 456.286 62.7667 456.783 62.4783 457.227C62.1933 457.671 61.7757 458.024 61.2255 458.286C60.6786 458.548 60.0141 458.679 59.2319 458.679C58.5027 458.679 57.8713 458.561 57.3377 458.326C56.8074 458.091 56.3898 457.763 56.0849 457.342C55.7833 456.921 55.6126 456.432 55.5728 455.875H56.8455C56.8787 456.259 57.0079 456.578 57.2333 456.83C57.462 457.078 57.7504 457.264 58.0984 457.386C58.4497 457.506 58.8275 457.565 59.2319 457.565C59.7025 457.565 60.1251 457.489 60.4996 457.337C60.8742 457.181 61.1708 456.965 61.3896 456.69C61.6083 456.412 61.7177 456.087 61.7177 455.716C61.7177 455.378 61.6232 455.103 61.4343 454.891C61.2454 454.679 60.9968 454.506 60.6886 454.374C60.3803 454.241 60.0472 454.125 59.6893 454.026L58.4364 453.668C57.641 453.439 57.0112 453.112 56.5472 452.688C56.0832 452.264 55.8512 451.709 55.8512 451.023C55.8512 450.453 56.0053 449.955 56.3136 449.531C56.6251 449.104 57.0427 448.772 57.5664 448.537C58.0934 448.298 58.6817 448.179 59.3313 448.179C59.9876 448.179 60.5709 448.297 61.0813 448.532C61.5917 448.764 61.9961 449.082 62.2944 449.487C62.596 449.891 62.7551 450.35 62.7717 450.864H61.5785ZM64.3812 449.412V448.318H72.0176V449.412H68.8159V458.5H67.5829V449.412H64.3812ZM82.0875 453.409C82.0875 454.483 81.8936 455.411 81.5059 456.193C81.1181 456.975 80.5861 457.579 79.91 458.003C79.2338 458.427 78.4616 458.639 77.5932 458.639C76.7248 458.639 75.9526 458.427 75.2765 458.003C74.6003 457.579 74.0684 456.975 73.6806 456.193C73.2928 455.411 73.0989 454.483 73.0989 453.409C73.0989 452.335 73.2928 451.407 73.6806 450.625C74.0684 449.843 74.6003 449.24 75.2765 448.815C75.9526 448.391 76.7248 448.179 77.5932 448.179C78.4616 448.179 79.2338 448.391 79.91 448.815C80.5861 449.24 81.1181 449.843 81.5059 450.625C81.8936 451.407 82.0875 452.335 82.0875 453.409ZM80.8944 453.409C80.8944 452.527 80.7469 451.783 80.4519 451.177C80.1602 450.57 79.7641 450.111 79.2637 449.8C78.7665 449.488 78.2097 449.332 77.5932 449.332C76.9767 449.332 76.4183 449.488 75.9178 449.8C75.4206 450.111 75.0246 450.57 74.7296 451.177C74.4379 451.783 74.2921 452.527 74.2921 453.409C74.2921 454.291 74.4379 455.035 74.7296 455.641C75.0246 456.248 75.4206 456.707 75.9178 457.018C76.4183 457.33 76.9767 457.486 77.5932 457.486C78.2097 457.486 78.7665 457.33 79.2637 457.018C79.7641 456.707 80.1602 456.248 80.4519 455.641C80.7469 455.035 80.8944 454.291 80.8944 453.409ZM84.1607 458.5V448.318H87.601C88.3965 448.318 89.0494 448.454 89.5598 448.726C90.0703 448.994 90.4481 449.364 90.6934 449.835C90.9386 450.305 91.0613 450.84 91.0613 451.44C91.0613 452.04 90.9386 452.572 90.6934 453.036C90.4481 453.5 90.0719 453.865 89.5648 454.13C89.0577 454.392 88.4097 454.523 87.6209 454.523H84.8368V453.409H87.5811C88.1247 453.409 88.5622 453.33 88.8936 453.17C89.2284 453.011 89.4703 452.786 89.6195 452.494C89.772 452.199 89.8482 451.848 89.8482 451.44C89.8482 451.033 89.772 450.676 89.6195 450.371C89.467 450.067 89.2234 449.831 88.8887 449.665C88.5539 449.496 88.1114 449.412 87.5613 449.412H85.3936V458.5H84.1607ZM88.9533 453.926L91.459 458.5H90.0272L87.5613 453.926H88.9533ZM93.1158 458.5V448.318H99.2607V449.412H94.3487V452.852H98.9425V453.946H94.3487V457.406H99.3402V458.5H93.1158ZM105.42 458.5V448.318H111.526V449.412H106.653V452.852H111.068V453.946H106.653V458.5H105.42ZM113.637 458.5V448.318H117.197C117.906 448.318 118.491 448.441 118.952 448.686C119.413 448.928 119.756 449.254 119.981 449.665C120.206 450.073 120.319 450.526 120.319 451.023C120.319 451.46 120.241 451.821 120.085 452.107C119.933 452.392 119.731 452.617 119.479 452.783C119.23 452.948 118.96 453.071 118.669 453.151V453.25C118.98 453.27 119.293 453.379 119.608 453.578C119.923 453.777 120.186 454.062 120.399 454.433C120.611 454.804 120.717 455.259 120.717 455.795C120.717 456.306 120.601 456.765 120.369 457.173C120.137 457.58 119.771 457.903 119.27 458.142C118.77 458.381 118.118 458.5 117.316 458.5H113.637ZM114.87 457.406H117.316C118.122 457.406 118.693 457.25 119.031 456.939C119.373 456.624 119.544 456.243 119.544 455.795C119.544 455.451 119.456 455.133 119.28 454.841C119.104 454.546 118.854 454.311 118.529 454.135C118.204 453.956 117.82 453.866 117.376 453.866H114.87V457.406ZM114.87 452.793H117.157C117.528 452.793 117.863 452.72 118.161 452.574C118.463 452.428 118.702 452.223 118.877 451.957C119.056 451.692 119.146 451.381 119.146 451.023C119.146 450.575 118.99 450.196 118.678 449.884C118.367 449.569 117.873 449.412 117.197 449.412H114.87V452.793ZM131.334 453.409C131.334 454.483 131.14 455.411 130.752 456.193C130.364 456.975 129.832 457.579 129.156 458.003C128.48 458.427 127.708 458.639 126.839 458.639C125.971 458.639 125.199 458.427 124.523 458.003C123.846 457.579 123.314 456.975 122.927 456.193C122.539 455.411 122.345 454.483 122.345 453.409C122.345 452.335 122.539 451.407 122.927 450.625C123.314 449.843 123.846 449.24 124.523 448.815C125.199 448.391 125.971 448.179 126.839 448.179C127.708 448.179 128.48 448.391 129.156 448.815C129.832 449.24 130.364 449.843 130.752 450.625C131.14 451.407 131.334 452.335 131.334 453.409ZM130.14 453.409C130.14 452.527 129.993 451.783 129.698 451.177C129.406 450.57 129.01 450.111 128.51 449.8C128.013 449.488 127.456 449.332 126.839 449.332C126.223 449.332 125.664 449.488 125.164 449.8C124.667 450.111 124.271 450.57 123.976 451.177C123.684 451.783 123.538 452.527 123.538 453.409C123.538 454.291 123.684 455.035 123.976 455.641C124.271 456.248 124.667 456.707 125.164 457.018C125.664 457.33 126.223 457.486 126.839 457.486C127.456 457.486 128.013 457.33 128.51 457.018C129.01 456.707 129.406 456.248 129.698 455.641C129.993 455.035 130.14 454.291 130.14 453.409Z" fill="#334155"/>
<rect x="328" y="444" width="32" height="18" rx="9" fill="#E3EBF6"/>
<circle cx="351" cy="453" r="9" fill="#48B798"/>
<defs>
<linearGradient id="paint0_linear_14_3389" x1="23.2845" y1="47.1064" x2="37.5872" y2="47.2894" gradientUnits="userSpaceOnUse">
<stop stop-color="#48B798"/>
<stop offset="1" stop-color="#4D9DC6"/>
</linearGradient>
<linearGradient id="paint1_linear_14_3389" x1="23.2845" y1="143.106" x2="37.5872" y2="143.289" gradientUnits="userSpaceOnUse">
<stop stop-color="#48B798"/>
<stop offset="1" stop-color="#4D9DC6"/>
</linearGradient>
<linearGradient id="paint2_linear_14_3389" x1="23.2845" y1="239.106" x2="37.5872" y2="239.289" gradientUnits="userSpaceOnUse">
<stop stop-color="#48B798"/>
<stop offset="1" stop-color="#4D9DC6"/>
</linearGradient>
<linearGradient id="paint3_linear_14_3389" x1="23.2845" y1="335.106" x2="37.5872" y2="335.289" gradientUnits="userSpaceOnUse">
<stop stop-color="#48B798"/>
<stop offset="1" stop-color="#4D9DC6"/>
</linearGradient>
<linearGradient id="paint4_linear_14_3389" x1="23.2845" y1="431.106" x2="37.5872" y2="431.289" gradientUnits="userSpaceOnUse">
<stop stop-color="#48B798"/>
<stop offset="1" stop-color="#4D9DC6"/>
</linearGradient>
</defs>
</svg>
