<svg width="0" height="0" class="hidden">
    <symbol xmlns="http://www.w3.org/2000/svg" viewBox="0 0 24 24" id="bell">
        <g id="Layer_2">
            <path d="M12,22a3,3,0,0,0,3-3h4.62l-.73-1.45A8.58,8.58,0,0,1,18,13.76V12a6,6,0,0,0-3.45-5.43A2.93,2.93,0,0,0,15,5,3,3,0,0,0,9,5a2.93,2.93,0,0,0,.45,1.57A6,6,0,0,0,6,12v1.76a8.58,8.58,0,0,1-.89,3.79L4.38,19H9A3,3,0,0,0,12,22ZM12,4a1,1,0,1,1-1,1A1,1,0,0,1,12,4Zm1,15a1,1,0,0,1-2,0Z"></path>
        </g>
    </symbol>

    <symbol xmlns="http://www.w3.org/2000/svg" viewBox="0 0 50 50" id="inventory">
        <path d="m37 38 .002 6H13v-6zm9-5h-1v14a2.965 2.965 0 0 1-.184 1H45a3.003 3.003 0 0 0 3-3V35a2.003 2.003 0 0 0-2-2zM5 47V33H4a2.003 2.003 0 0 0-2 2v10a3.003 3.003 0 0 0 3 3h.184A2.965 2.965 0 0 1 5 47zm38-28v28a1 1 0 0 1-1 1H8a1 1 0 0 1-1-1V19a4.979 4.979 0 0 1 2-3.974V28a5.006 5.006 0 0 0 5 5h22a5.006 5.006 0 0 0 5-5V15.026A4.979 4.979 0 0 1 43 19zm-4 19a2.003 2.003 0 0 0-2-2H13a2.003 2.003 0 0 0-2 2v6a2.003 2.003 0 0 0 2 2h24a2.003 2.003 0 0 0 2-2zM36 7a5 5 0 0 1 1 .101V4a2.002 2.002 0 0 0-2-2h-4a2.002 2.002 0 0 0-2 2v3zM14 7h7V4a2.002 2.002 0 0 0-2-2h-4a2.002 2.002 0 0 0-2 2v3.101A5 5 0 0 1 14 7zm25 5v16a3.003 3.003 0 0 1-3 3H14a3.003 3.003 0 0 1-3-3V12a3.003 3.003 0 0 1 3-3h22a3.003 3.003 0 0 1 3 3zm-4 8a1 1 0 0 0-1-1H16a1 1 0 0 0 0 2h14v1a1 1 0 0 0 2 0v-1h2a1 1 0 0 0 1-1zm2-5a1 1 0 0 0-1-1H14a1 1 0 0 0 0 2h22a1 1 0 0 0 1-1z"></path>
    </symbol>
    <symbol xmlns="http://www.w3.org/2000/svg" xml:space="preserve" viewBox="0 0 19.25 19.25" id="market">
    <path d="M19.006 2.97a1.003 1.003 0 0 0-.756-.345H4.431l-.195-1.164A1 1 0 0 0 3.25.625H1a1 1 0 1 0 0 2h1.403l1.86 11.164c.008.045.031.082.045.124.016.053.029.103.054.151a.982.982 0 0 0 .12.179c.031.039.059.078.095.112a.96.96 0 0 0 .193.13c.038.021.071.049.112.065a.97.97 0 0 0 .367.075H16.25a1 1 0 1 0 0-2H6.097l-.166-1H17.25a1 1 0 0 0 .99-.858l1-7a1.002 1.002 0 0 0-.234-.797zm-1.909 1.655-.285 2H13.25v-2h3.847zm-4.847 0v2h-3v-2h3zm0 3v2h-3v-2h3zm-4-3v2h-3a.481.481 0 0 0-.148.03l-.338-2.03H8.25zm-2.986 3H8.25v2H5.597l-.333-2zm7.986 2v-2h3.418l-.285 2H13.25z"></path>
        <circle cx="6.75" cy="17.125" r="1.5"></circle>
        <circle cx="15.75" cy="17.125" r="1.5"></circle>
  </symbol>
    <symbol xmlns="http://www.w3.org/2000/svg" xml:space="preserve" viewBox="0 0 511.624 511.623" id="trade">
    <path d="M9.135 200.996h392.862v54.818c0 2.475.9 4.613 2.707 6.424 1.811 1.81 3.953 2.713 6.427 2.713 2.666 0 4.856-.855 6.563-2.569l91.365-91.362c1.707-1.713 2.563-3.903 2.563-6.565 0-2.667-.856-4.858-2.57-6.567l-91.07-91.078c-2.286-1.906-4.572-2.856-6.858-2.856-2.662 0-4.853.856-6.563 2.568-1.711 1.715-2.566 3.901-2.566 6.567v54.818H9.135c-2.474 0-4.615.903-6.423 2.712S0 134.568 0 137.042v54.818c0 2.474.903 4.615 2.712 6.423s3.949 2.713 6.423 2.713zM502.49 310.637H109.632v-54.82c0-2.474-.905-4.615-2.712-6.423-1.809-1.809-3.951-2.712-6.424-2.712-2.667 0-4.854.856-6.567 2.568L2.568 340.607C.859 342.325 0 344.509 0 347.179c0 2.471.855 4.568 2.568 6.275l91.077 91.365c2.285 1.902 4.569 2.851 6.854 2.851 2.473 0 4.615-.903 6.423-2.707 1.807-1.813 2.712-3.949 2.712-6.427V383.72H502.49c2.478 0 4.613-.899 6.427-2.71 1.807-1.811 2.707-3.949 2.707-6.427v-54.816c0-2.475-.903-4.613-2.707-6.42-1.814-1.807-3.95-2.71-6.427-2.71z"></path>
  </symbol>
    <symbol xmlns="http://www.w3.org/2000/svg" viewBox="0 0 12 12" id="random-box">
        <path fill="none" stroke-linejoin="round"
              d="M5.84.9 1.68 3.13c-.11.06-.18.18-.18.31v5.12c0 .13.07.24.18.3l4.15 2.24c.1.06.23.06.33 0l4.15-2.24a.35.35 0 0 0 .18-.3V3.44c0-.13-.07-.24-.18-.3L6.16.9a.307.307 0 0 0-.32 0zM1.5 3.23 6 5.65l4.5-2.42M6 5.65v5.2"></path>
    </symbol>
    <symbol id="balance" xmlns="http://www.w3.org/2000/svg" viewBox="0 0 24 24">
        <path d="M19,4H5A3,3,0,0,0,2,7V17a3,3,0,0,0,3,3H19a3,3,0,0,0,3-3V7A3,3,0,0,0,19,4Zm1,10.3H17a2.3,2.3,0,0,1,0-4.6h3ZM20,8H17a4,4,0,0,0,0,8h3v1a1,1,0,0,1-1,1H5a1,1,0,0,1-1-1V7A1,1,0,0,1,5,6H19a1,1,0,0,1,1,1Zm-4,4a1,1,0,1,0,1-1A1,1,0,0,0,16,12Z"></path>
    </symbol>
    <symbol xmlns="http://www.w3.org/2000/svg" viewBox="0 0 640 512" id="discord">
        <path d="M524.531,69.836a1.5,1.5,0,0,0-.764-.7A485.065,485.065,0,0,0,404.081,32.03a1.816,1.816,0,0,0-1.923.91,337.461,337.461,0,0,0-14.9,30.6,447.848,447.848,0,0,0-134.426,0,309.541,309.541,0,0,0-15.135-30.6,1.89,1.89,0,0,0-1.924-.91A483.689,483.689,0,0,0,116.085,69.137a1.712,1.712,0,0,0-.788.676C39.068,183.651,18.186,294.69,28.43,404.354a2.016,2.016,0,0,0,.765,1.375A487.666,487.666,0,0,0,176.02,479.918a1.9,1.9,0,0,0,2.063-.676A348.2,348.2,0,0,0,208.12,430.4a1.86,1.86,0,0,0-1.019-2.588,321.173,321.173,0,0,1-45.868-21.853,1.885,1.885,0,0,1-.185-3.126c3.082-2.309,6.166-4.711,9.109-7.137a1.819,1.819,0,0,1,1.9-.256c96.229,43.917,200.41,43.917,295.5,0a1.812,1.812,0,0,1,1.924.233c2.944,2.426,6.027,4.851,9.132,7.16a1.884,1.884,0,0,1-.162,3.126,301.407,301.407,0,0,1-45.89,21.83,1.875,1.875,0,0,0-1,2.611,391.055,391.055,0,0,0,30.014,48.815,1.864,1.864,0,0,0,2.063.7A486.048,486.048,0,0,0,610.7,405.729a1.882,1.882,0,0,0,.765-1.352C623.729,277.594,590.933,167.465,524.531,69.836ZM222.491,337.58c-28.972,0-52.844-26.587-52.844-59.239S193.056,219.1,222.491,219.1c29.665,0,53.306,26.82,52.843,59.239C275.334,310.993,251.924,337.58,222.491,337.58Zm195.38,0c-28.971,0-52.843-26.587-52.843-59.239S388.437,219.1,417.871,219.1c29.667,0,53.307,26.82,52.844,59.239C470.715,310.993,447.538,337.58,417.871,337.58Z"></path>
    </symbol>

    <symbol version="1.1" id="steam-empty" xmlns="http://www.w3.org/2000/svg" xmlns:xlink="http://www.w3.org/1999/xlink"
            x="0px" y="0px" xml:space="preserve" viewBox="0 0 478.165 478.165">
    <g>
      <path id="Steam_2_" d="M442.302,178.286c0,24.426-19.704,44.131-44.091,44.131c-24.586,0-44.31-19.684-44.31-44.131
		c0-24.327,19.704-44.131,44.31-44.131C422.598,134.155,442.302,153.939,442.302,178.286z M424.511,252.74l-53.614,45.724
		c0.757,3.666,0.976,7.372,0.976,11.137c0,38.831-31.479,70.191-70.569,70.191c-33.631,0-61.683-23.39-68.756-54.71l-132.511-44.828
		c-10.4,7.93-23.45,12.632-37.655,12.632C27.953,292.946,0,265.272,0,231.003c0-34.328,27.953-62.141,62.341-62.141
		c29.626,0,54.371,20.541,60.707,48.115l127.849,43.234c12.512-12.612,29.726-20.521,48.813-20.86l19.166-58.097
		c-0.02-1.175-0.319-2.311-0.319-3.487c0-43.752,35.842-79.395,79.794-79.395c44.23-0.02,79.814,35.524,79.814,79.375
		C478.165,212.554,455.751,242.001,424.511,252.74z M101.57,209.725c-7.491-13.369-21.737-22.434-38.134-22.434
		c-24.187,0-43.633,19.425-43.633,43.453c0,23.928,19.465,43.473,43.633,43.473c4.443,0,8.707-0.558,12.691-1.873l-20.74-7.013
		c-16.636-8.906-22.952-29.666-14.026-46.262c9.025-16.576,29.826-22.892,46.462-13.986L101.57,209.725z M336.249,177.987
		c0,34.089,27.853,61.663,62.002,61.663c34.169,0,61.803-27.594,61.803-61.663c0-34.049-27.634-61.643-61.803-61.643
		C364.102,116.324,336.249,143.898,336.249,177.987z M337.524,315.718c0-26.08-21.278-47.039-47.159-47.039
		c-3.706,0-7.292,0.418-10.659,1.275l26.239,8.906c16.756,8.906,23.151,29.527,14.026,46.243
		c-8.926,16.716-29.606,22.892-46.342,14.006l-28.431-9.703c5.977,19.405,23.829,33.153,45.147,33.153
		C316.485,362.519,337.524,341.479,337.524,315.718z"></path>
    </g>
  </symbol>
    <symbol xmlns="http://www.w3.org/2000/svg" viewBox="0 0 32 32" id="twitch">
        <path d="M2.787 0l-2.089 5.568v22.255h7.652v4.177h4.177l4.167-4.177h6.26l8.349-8.344v-19.479zM5.568 2.781h22.953v15.301l-4.871 4.871h-7.651l-4.172 4.172v-4.172h-6.26zM13.219 16.697h2.781v-8.348h-2.781zM20.864 16.697h2.781v-8.348h-2.781z"></path>
    </symbol>

    <symbol xmlns="http://www.w3.org/2000/svg" viewBox="0 0 512 512" id="telegram">
        <path d="M498.1 5.6c10.1 7 15.4 19.1 13.5 31.2l-64 416c-1.5 9.7-7.4 18.2-16 23s-18.9 5.4-28 1.6L284 427.7l-68.5 74.1c-8.9 9.7-22.9 12.9-35.2 8.1S160 493.2 160 480V396.4c0-4 1.5-7.8 4.2-10.7L331.8 202.8c5.8-6.3 5.6-16-.4-22s-15.7-6.4-22-.7L106 360.8 17.7 316.6C7.1 311.3 .3 300.7 0 288.9s5.9-22.8 16.1-28.7l448-256c10.7-6.1 23.9-5.5 34 1.4z"></path>
    </symbol>
    <symbol xmlns="http://www.w3.org/2000/svg" viewBox="0 0 320 512" id="facebook">
        <path d="M279.14 288l14.22-92.66h-88.91v-60.13c0-25.35 12.42-50.06 52.24-50.06h40.42V6.26S260.43 0 225.36 0c-73.22 0-121.08 44.38-121.08 124.72v70.62H22.89V288h81.39v224h100.17V288z"></path>
    </symbol>

    <symbol xmlns="http://www.w3.org/2000/svg" viewBox="0 0 448 512" id="tiktok">
        <path d="M448,209.91a210.06,210.06,0,0,1-122.77-39.25V349.38A162.55,162.55,0,1,1,185,188.31V278.2a74.62,74.62,0,1,0,52.23,71.18V0l88,0a121.18,121.18,0,0,0,1.86,22.17h0A122.18,122.18,0,0,0,381,102.39a121.43,121.43,0,0,0,67,20.14Z"></path>
    </symbol>
    <symbol xmlns="http://www.w3.org/2000/svg" viewBox="0 0 576 512" id="youtube">
        <path d="M549.655 124.083c-6.281-23.65-24.787-42.276-48.284-48.597C458.781 64 288 64 288 64S117.22 64 74.629 75.486c-23.497 6.322-42.003 24.947-48.284 48.597-11.412 42.867-11.412 132.305-11.412 132.305s0 89.438 11.412 132.305c6.281 23.65 24.787 41.5 48.284 47.821C117.22 448 288 448 288 448s170.78 0 213.371-11.486c23.497-6.321 42.003-24.171 48.284-47.821 11.412-42.867 11.412-132.305 11.412-132.305s0-89.438-11.412-132.305zm-317.51 213.508V175.185l142.739 81.205-142.739 81.201z"></path>
    </symbol>
    <symbol xmlns="http://www.w3.org/2000/svg" viewBox="0 0 512 512" id="reddit-alien">
        <path d="M440.3 203.5c-15 0-28.2 6.2-37.9 15.9-35.7-24.7-83.8-40.6-137.1-42.3L293 52.3l88.2 19.8c0 21.6 17.6 39.2 39.2 39.2 22 0 39.7-18.1 39.7-39.7s-17.6-39.7-39.7-39.7c-15.4 0-28.7 9.3-35.3 22l-97.4-21.6c-4.9-1.3-9.7 2.2-11 7.1L246.3 177c-52.9 2.2-100.5 18.1-136.3 42.8-9.7-10.1-23.4-16.3-38.4-16.3-55.6 0-73.8 74.6-22.9 100.1-1.8 7.9-2.6 16.3-2.6 24.7 0 83.8 94.4 151.7 210.3 151.7 116.4 0 210.8-67.9 210.8-151.7 0-8.4-.9-17.2-3.1-25.1 49.9-25.6 31.5-99.7-23.8-99.7zM129.4 308.9c0-22 17.6-39.7 39.7-39.7 21.6 0 39.2 17.6 39.2 39.7 0 21.6-17.6 39.2-39.2 39.2-22 .1-39.7-17.6-39.7-39.2zm214.3 93.5c-36.4 36.4-139.1 36.4-175.5 0-4-3.5-4-9.7 0-13.7 3.5-3.5 9.7-3.5 13.2 0 27.8 28.5 120 29 149 0 3.5-3.5 9.7-3.5 13.2 0 4.1 4 4.1 10.2.1 13.7zm-.8-54.2c-21.6 0-39.2-17.6-39.2-39.2 0-22 17.6-39.7 39.2-39.7 22 0 39.7 17.6 39.7 39.7-.1 21.5-17.7 39.2-39.7 39.2z"></path>
    </symbol>
    <symbol xmlns="http://www.w3.org/2000/svg" viewBox="0 0 512 512" id="twitter">
        <path d="M459.37 151.716c.325 4.548.325 9.097.325 13.645 0 138.72-105.583 298.558-298.558 298.558-59.452 0-114.68-17.219-161.137-47.106 8.447.974 16.568 1.299 25.34 1.299 49.055 0 94.213-16.568 130.274-44.832-46.132-.975-84.792-31.188-98.112-72.772 6.498.974 12.995 1.624 19.818 1.624 9.421 0 18.843-1.3 27.614-3.573-48.081-9.747-84.143-51.98-84.143-102.985v-1.299c13.969 7.797 30.214 12.67 47.431 13.319-28.264-18.843-46.781-51.005-46.781-87.391 0-19.492 5.197-37.36 14.294-52.954 51.655 63.675 129.3 105.258 216.365 109.807-1.624-7.797-2.599-15.918-2.599-24.04 0-57.828 46.782-104.934 104.934-104.934 30.213 0 57.502 12.67 76.67 33.137 23.715-4.548 46.456-13.32 66.599-25.34-7.798 24.366-24.366 44.833-46.132 57.827 21.117-2.273 41.584-8.122 60.426-16.243-14.292 20.791-32.161 39.308-52.628 54.253z"></path>
    </symbol>
    <symbol xmlns="http://www.w3.org/2000/svg" viewBox="0 0 448 512" id="instagram">
        <path d="M224.1 141c-63.6 0-114.9 51.3-114.9 114.9s51.3 114.9 114.9 114.9S339 319.5 339 255.9 287.7 141 224.1 141zm0 189.6c-41.1 0-74.7-33.5-74.7-74.7s33.5-74.7 74.7-74.7 74.7 33.5 74.7 74.7-33.6 74.7-74.7 74.7zm146.4-194.3c0 14.9-12 26.8-26.8 26.8-14.9 0-26.8-12-26.8-26.8s12-26.8 26.8-26.8 26.8 12 26.8 26.8zm76.1 27.2c-1.7-35.9-9.9-67.7-36.2-93.9-26.2-26.2-58-34.4-93.9-36.2-37-2.1-147.9-2.1-184.9 0-35.8 1.7-67.6 9.9-93.9 36.1s-34.4 58-36.2 93.9c-2.1 37-2.1 147.9 0 184.9 1.7 35.9 9.9 67.7 36.2 93.9s58 34.4 93.9 36.2c37 2.1 147.9 2.1 184.9 0 35.9-1.7 67.7-9.9 93.9-36.2 26.2-26.2 34.4-58 36.2-93.9 2.1-37 2.1-147.8 0-184.8zM398.8 388c-7.8 19.6-22.9 34.7-42.6 42.6-29.5 11.7-99.5 9-132.1 9s-102.7 2.6-132.1-9c-19.6-7.8-34.7-22.9-42.6-42.6-11.7-29.5-9-99.5-9-132.1s-2.6-102.7 9-132.1c7.8-19.6 22.9-34.7 42.6-42.6 29.5-11.7 99.5-9 132.1-9s102.7-2.6 132.1 9c19.6 7.8 34.7 22.9 42.6 42.6 11.7 29.5 9 99.5 9 132.1s2.7 102.7-9 132.1z"></path>
    </symbol>
    <symbol xmlns="http://www.w3.org/2000/svg" viewBox="0 0 448 512" id="steam-symbol">
        <path d="M395.5 177.5c0 33.8-27.5 61-61 61-33.8 0-61-27.3-61-61s27.3-61 61-61c33.5 0 61 27.2 61 61zm52.5.2c0 63-51 113.8-113.7 113.8L225 371.3c-4 43-40.5 76.8-84.5 76.8-40.5 0-74.7-28.8-83-67L0 358V250.7L97.2 290c15.1-9.2 32.2-13.3 52-11.5l71-101.7c.5-62.3 51.5-112.8 114-112.8C397 64 448 115 448 177.7zM203 363c0-34.7-27.8-62.5-62.5-62.5-4.5 0-9 .5-13.5 1.5l26 10.5c25.5 10.2 38 39 27.7 64.5-10.2 25.5-39.2 38-64.7 27.5-10.2-4-20.5-8.3-30.7-12.2 10.5 19.7 31.2 33.2 55.2 33.2 34.7 0 62.5-27.8 62.5-62.5zm207.5-185.3c0-42-34.3-76.2-76.2-76.2-42.3 0-76.5 34.2-76.5 76.2 0 42.2 34.3 76.2 76.5 76.2 41.9.1 76.2-33.9 76.2-76.2z"></path>
    </symbol>
    <symbol enable-background="new 0 0 32 32" id="search" version="1.1" xml:space="preserve" xmlns="http://www.w3.org/2000/svg" xmlns:xlink="http://www.w3.org/1999/xlink" viewBox="0 0 32 32">
    <path d="M27.414,24.586l-5.077-5.077C23.386,17.928,24,16.035,24,14c0-5.514-4.486-10-10-10S4,8.486,4,14  s4.486,10,10,10c2.035,0,3.928-0.614,5.509-1.663l5.077,5.077c0.78,0.781,2.048,0.781,2.828,0  C28.195,26.633,28.195,25.367,27.414,24.586z M7,14c0-3.86,3.14-7,7-7s7,3.14,7,7s-3.14,7-7,7S7,17.86,7,14z" id="XMLID_223_"></path>
  </symbol>
    <symbol xmlns="http://www.w3.org/2000/svg" xmlns:xlink="http://www.w3.org/1999/xlink" version="1.1" id="sort" viewBox="0 0 24 24">
        <path d="M3 11H15V13H3M3 18V16H21V18M3 6H9V8H3Z"></path>
    </symbol>
    <symbol version="1.1" id="light" xmlns="http://www.w3.org/2000/svg" xmlns:xlink="http://www.w3.org/1999/xlink" x="0px" y="0px" xml:space="preserve" viewBox="0 0 475.084 475.085">
    <g>
      <path d="M362.296,125.055c-2.851-2.853-6.092-4.28-9.706-4.287c-0.77,0-1.902,0.193-3.432,0.572L236.1,149.319L284.917,17.13
		c0.951-1.903,1.431-3.614,1.431-5.139c0-3.234-1.242-6.04-3.713-8.42C280.161,1.188,277.115,0,273.501,0h-93.645
		c-3.045,0-5.708,0.855-7.994,2.568c-2.284,1.715-3.809,3.905-4.568,6.567l-57.386,235.546c-0.953,4.564,0.284,8.277,3.711,11.135
		c2.473,2.099,5.421,3.139,8.848,3.139c1.524,0,2.666-0.089,3.427-0.281l115.914-28.838l-56.244,230.691
		c-0.76,3.045-0.333,5.899,1.287,8.562c1.619,2.669,4.047,4.476,7.281,5.427c1.903,0.377,3.239,0.568,3.999,0.568
		c5.52,0,9.514-2.375,11.991-7.136l154.172-330.332C366.389,133.049,365.728,128.86,362.296,125.055z"></path>
    </g>
  </symbol>
    <symbol xmlns="http://www.w3.org/2000/svg" viewBox="0 0 24 24" id="timer">
        <path d="M15 1H9v2h6V1zm-4 13h2V8h-2v6zm8.03-6.61l1.42-1.42c-.43-.51-.9-.99-1.41-1.41l-1.42 1.42C16.07 4.74 14.12 4 12 4c-4.97 0-9 4.03-9 9s4.02 9 9 9 9-4.03 9-9c0-2.12-.74-4.07-1.97-5.61zM12 20c-3.87 0-7-3.13-7-7s3.13-7 7-7 7 3.13 7 7-3.13 7-7 7z"></path>
    </symbol>
    <symbol xmlns="http://www.w3.org/2000/svg" viewBox="0 0 576 512" id="cart-arrow-down-solid">
        <path d="M24 0C10.7 0 0 10.7 0 24S10.7 48 24 48H69.5c3.8 0 7.1 2.7 7.9 6.5l51.6 271c6.5 34 36.2 58.5 70.7 58.5H488c13.3 0 24-10.7 24-24s-10.7-24-24-24H199.7c-11.5 0-21.4-8.2-23.6-19.5L170.7 288H459.2c32.6 0 61.1-21.8 69.5-53.3l41-152.3C576.6 57 557.4 32 531.1 32H360V134.1l23-23c9.4-9.4 24.6-9.4 33.9 0s9.4 24.6 0 33.9l-64 64c-9.4 9.4-24.6 9.4-33.9 0l-64-64c-9.4-9.4-9.4-24.6 0-33.9s24.6-9.4 33.9 0l23 23V32H120.1C111 12.8 91.6 0 69.5 0H24zM176 512a48 48 0 1 0 0-96 48 48 0 1 0 0 96zm336-48a48 48 0 1 0 -96 0 48 48 0 1 0 96 0z"></path>
    </symbol>
    <symbol version="1.1" id="refresh" xmlns="http://www.w3.org/2000/svg" xmlns:xlink="http://www.w3.org/1999/xlink" x="0px" y="0px" xml:space="preserve" viewBox="0 0 438.529 438.528">
    <g>
      <g>
        <path d="M433.109,23.694c-3.614-3.612-7.898-5.424-12.848-5.424c-4.948,0-9.226,1.812-12.847,5.424l-37.113,36.835
			c-20.365-19.226-43.684-34.123-69.948-44.684C274.091,5.283,247.056,0.003,219.266,0.003c-52.344,0-98.022,15.843-137.042,47.536
			C43.203,79.228,17.509,120.574,5.137,171.587v1.997c0,2.474,0.903,4.617,2.712,6.423c1.809,1.809,3.949,2.712,6.423,2.712h56.814
			c4.189,0,7.042-2.19,8.566-6.565c7.993-19.032,13.035-30.166,15.131-33.403c13.322-21.698,31.023-38.734,53.103-51.106
			c22.082-12.371,45.873-18.559,71.376-18.559c38.261,0,71.473,13.039,99.645,39.115l-39.406,39.397
			c-3.607,3.617-5.421,7.902-5.421,12.851c0,4.948,1.813,9.231,5.421,12.847c3.621,3.617,7.905,5.424,12.854,5.424h127.906
			c4.949,0,9.233-1.807,12.848-5.424c3.613-3.616,5.42-7.898,5.42-12.847V36.542C438.529,31.593,436.733,27.312,433.109,23.694z"></path>
          <path d="M422.253,255.813h-54.816c-4.188,0-7.043,2.187-8.562,6.566c-7.99,19.034-13.038,30.163-15.129,33.4
			c-13.326,21.693-31.028,38.735-53.102,51.106c-22.083,12.375-45.874,18.556-71.378,18.556c-18.461,0-36.259-3.423-53.387-10.273
			c-17.13-6.858-32.454-16.567-45.966-29.13l39.115-39.112c3.615-3.613,5.424-7.901,5.424-12.847c0-4.948-1.809-9.236-5.424-12.847
			c-3.617-3.62-7.898-5.431-12.847-5.431H18.274c-4.952,0-9.235,1.811-12.851,5.431C1.807,264.844,0,269.132,0,274.08v127.907
			c0,4.945,1.807,9.232,5.424,12.847c3.619,3.61,7.902,5.428,12.851,5.428c4.948,0,9.229-1.817,12.847-5.428l36.829-36.833
			c20.367,19.41,43.542,34.355,69.523,44.823c25.981,10.472,52.866,15.701,80.653,15.701c52.155,0,97.643-15.845,136.471-47.534
			c38.828-31.688,64.333-73.042,76.52-124.05c0.191-0.38,0.281-1.047,0.281-1.995c0-2.478-0.907-4.612-2.715-6.427
			C426.874,256.72,424.731,255.813,422.253,255.813z"></path>
      </g>
    </g>
  </symbol>
    <symbol id="target" xmlns="http://www.w3.org/2000/svg" viewBox="0 0 64 64">
        <path d="M33.75,39.81A8,8,0,0,1,24,32.67a2,2,0,0,0-.61-1.25A2,2,0,0,0,20,33q0,.31.07.61A12,12,0,1,0,33.61,20.11L33,20a2,2,0,0,0-1.59,3.37,2,2,0,0,0,1.25.61,8,8,0,0,1,7.18,9.58A7.81,7.81,0,0,1,33.75,39.81Z"></path>
        <path d="M16.49,24.49h0a2,2,0,0,0-3.3.71,20,20,0,1,0,12-12,2,2,0,0,0-.72,3.3,2,2,0,0,0,2.08.47,15.84,15.84,0,0,1,7.62-.81,16,16,0,1,1-18,18A15.84,15.84,0,0,1,17,26.57,2,2,0,0,0,16.49,24.49Z"></path>
        <path d="M29.72,59.91A28,28,0,1,0,18.94,7.24a2,2,0,0,0-.5,3.19h0a2,2,0,0,0,2.32.36,24,24,0,1,1-10,10,2,2,0,0,0-.36-2.32,2,2,0,0,0-3.19.5,28,28,0,0,0,22.47,41Z"></path>
        <path d="M8.12,14.76a4.22,4.22,0,0,0,3,1.24,5,5,0,0,1,3.53,1.46l16,16a2,2,0,0,0,2.94-.12,2.09,2.09,0,0,0-.2-2.8L17.46,14.63A5,5,0,0,1,16,11.1a4.22,4.22,0,0,0-1.24-3L11,4.31A.94.94,0,0,0,9.36,5V8.35a1,1,0,0,1-1,1H5A.94.94,0,0,0,4.31,11Z"></path>
    </symbol>

    <symbol fill="none" stroke="currentColor" stroke-linecap="round" stroke-linejoin="round" stroke-width="2" xmlns="http://www.w3.org/2000/svg" viewBox="0 0 24 24" id="api">
        <path d="M0 0h24v24H0z" fill="none" stroke="none"></path>
        <path d="M4 13h5"></path>
        <path d="M12 16v-8h3a2 2 0 0 1 2 2v1a2 2 0 0 1 -2 2h-3"></path>
        <path d="M20 8v8"></path>
        <path d="M9 16v-5.5a2.5 2.5 0 0 0 -5 0v5.5"></path>
    </symbol>
    <symbol version="1.1" id="lock" xmlnsX="http://ns.adobe.com/Extensibility/1.0/" xmlnsI="http://ns.adobe.com/AdobeIllustrator/10.0/" xmlnsGraph="http://ns.adobe.com/Graphs/1.0/" xmlns="http://www.w3.org/2000/svg" xmlns:xlink="http://www.w3.org/1999/xlink" x="0px" y="0px" enable-background="new 0 0 24 24" xml:space="preserve" viewBox="0 0 24 24">
    <metadata>
      <sfw xmlns="http://ns.adobe.com/SaveForWeb/1.0/">
        <slices></slices>
          <sliceSourceBounds width="505" height="984" bottomLeftOrigin="true" x="0" y="-984"></sliceSourceBounds>
      </sfw>
    </metadata>
        <g>
      <g>
        <g>
          <path d="M16,24H8c-2.2,0-4-1.8-4-4v-7c0-2.2,1.8-4,4-4h8c2.2,0,4,1.8,4,4v7C20,22.2,18.2,24,16,24z M8,11c-1.1,0-2,0.9-2,2v7
				c0,1.1,0.9,2,2,2h8c1.1,0,2-0.9,2-2v-7c0-1.1-0.9-2-2-2H8z"></path>
        </g>
      </g>
            <g>
        <g>
          <path d="M12,11H7c-0.6,0-1-0.4-1-1V6c0-3.3,2.7-6,6-6c3.4,0,6,2.7,6,6c0,0.6-0.4,1-1,1s-1-0.4-1-1c0-2.2-1.8-4-4-4
				C9.8,2,8,3.8,8,6v3h4c0.6,0,1,0.4,1,1S12.6,11,12,11z"></path>
        </g>
      </g>
            <g>
        <g>
          <circle cx="12" cy="15" r="2"></circle>
        </g>
      </g>
            <g>
        <g>
          <path d="M12,20c-0.6,0-1-0.4-1-1v-3c0-0.6,0.4-1,1-1s1,0.4,1,1v3C13,19.6,12.6,20,12,20z"></path>
        </g>
      </g>
    </g>
  </symbol>
    <symbol xmlns="http://www.w3.org/2000/svg" viewBox="0 0 32 32" id="profile">
        <defs></defs>
        <title></title>
        <g id="Layer_19">
            <path d="M16,17a8,8,0,1,1,8-8A8,8,0,0,1,16,17ZM16,3a6,6,0,1,0,6,6A6,6,0,0,0,16,3Z"></path>
            <path d="M23,31H9a5,5,0,0,1-5-5V22a1,1,0,0,1,.49-.86l5-3a1,1,0,0,1,1,1.72L6,22.57V26a3,3,0,0,0,3,3H23a3,3,0,0,0,3-3V22.57l-4.51-2.71a1,1,0,1,1,1-1.72l5,3A1,1,0,0,1,28,22v4A5,5,0,0,1,23,31Z"></path>
        </g>
    </symbol>
    <symbol xmlns="http://www.w3.org/2000/svg" viewBox="0 0 512 512" id="download-solid">
        <path d="M288 32c0-17.7-14.3-32-32-32s-32 14.3-32 32V274.7l-73.4-73.4c-12.5-12.5-32.8-12.5-45.3 0s-12.5 32.8 0 45.3l128 128c12.5 12.5 32.8 12.5 45.3 0l128-128c12.5-12.5 12.5-32.8 0-45.3s-32.8-12.5-45.3 0L288 274.7V32zM64 352c-35.3 0-64 28.7-64 64v32c0 35.3 28.7 64 64 64H448c35.3 0 64-28.7 64-64V416c0-35.3-28.7-64-64-64H346.5l-45.3 45.3c-25 25-65.5 25-90.5 0L165.5 352H64zm368 56a24 24 0 1 1 0 48 24 24 0 1 1 0-48z"></path>
    </symbol>
    <symbol version="1.1" id="pencil" xmlns="http://www.w3.org/2000/svg" xmlns:xlink="http://www.w3.org/1999/xlink" x="0px" y="0px" xml:space="preserve" viewBox="0 0 485.219 485.22">
    <g>
      <path d="M467.476,146.438l-21.445,21.455L317.35,39.23l21.445-21.457c23.689-23.692,62.104-23.692,85.795,0l42.886,42.897
		C491.133,84.349,491.133,122.748,467.476,146.438z M167.233,403.748c-5.922,5.922-5.922,15.513,0,21.436
		c5.925,5.955,15.521,5.955,21.443,0L424.59,189.335l-21.469-21.457L167.233,403.748z M60,296.54c-5.925,5.927-5.925,15.514,0,21.44
		c5.922,5.923,15.518,5.923,21.443,0L317.35,82.113L295.914,60.67L60,296.54z M338.767,103.54L102.881,339.421
		c-11.845,11.822-11.815,31.041,0,42.886c11.85,11.846,31.038,11.901,42.914-0.032l235.886-235.837L338.767,103.54z
		 M145.734,446.572c-7.253-7.262-10.749-16.465-12.05-25.948c-3.083,0.476-6.188,0.919-9.36,0.919
		c-16.202,0-31.419-6.333-42.881-17.795c-11.462-11.491-17.77-26.687-17.77-42.887c0-2.954,0.443-5.833,0.859-8.703
		c-9.803-1.335-18.864-5.629-25.972-12.737c-0.682-0.677-0.917-1.596-1.538-2.338L0,485.216l147.748-36.986
		C147.097,447.637,146.36,447.193,145.734,446.572z"></path>
    </g>
  </symbol>
    <symbol xmlns="http://www.w3.org/2000/svg" viewBox="0 0 20 20" id="check">
        <path d="M0 11l2-2 5 5L18 3l2 2L7 18z"></path>
    </symbol>
    <symbol xmlns="http://www.w3.org/2000/svg" viewBox="0 0 20 20" id="copy">
        <path d="M6 6V2c0-1.1.9-2 2-2h10a2 2 0 0 1 2 2v10a2 2 0 0 1-2 2h-4v4a2 2 0 0 1-2 2H2a2 2 0 0 1-2-2V8c0-1.1.9-2 2-2h4zm2 0h4a2 2 0 0 1 2 2v4h4V2H8v4zM2 8v10h10V8H2z"></path>
    </symbol>
    <symbol xmlns="http://www.w3.org/2000/svg" viewBox="0 0 576 512" id="eye-regular">
        <path d="M288 80c-65.2 0-118.8 29.6-159.9 67.7C89.6 183.5 63 226 49.4 256c13.6 30 40.2 72.5 78.6 108.3C169.2 402.4 222.8 432 288 432s118.8-29.6 159.9-67.7C486.4 328.5 513 286 526.6 256c-13.6-30-40.2-72.5-78.6-108.3C406.8 109.6 353.2 80 288 80zM95.4 112.6C142.5 68.8 207.2 32 288 32s145.5 36.8 192.6 80.6c46.8 43.5 78.1 95.4 93 131.1c3.3 7.9 3.3 16.7 0 24.6c-14.9 35.7-46.2 87.7-93 131.1C433.5 443.2 368.8 480 288 480s-145.5-36.8-192.6-80.6C48.6 356 17.3 304 2.5 268.3c-3.3-7.9-3.3-16.7 0-24.6C17.3 208 48.6 156 95.4 112.6zM288 336c44.2 0 80-35.8 80-80s-35.8-80-80-80c-.7 0-1.3 0-2 0c1.3 5.1 2 10.5 2 16c0 35.3-28.7 64-64 64c-5.5 0-10.9-.7-16-2c0 .7 0 1.3 0 2c0 44.2 35.8 80 80 80zm0-208a128 128 0 1 1 0 256 128 128 0 1 1 0-256z"></path>
    </symbol>
    <symbol id="filter" xmlns="http://www.w3.org/2000/svg" viewBox="0 0 48 48">
        <path d="M47,12a2,2,0,0,0-2-2H24a2,2,0,0,0,0,4H45A2,2,0,0,0,47,12Z"></path>
        <path d="M3,14H8.35a6,6,0,1,0,0-4H3a2,2,0,0,0,0,4Zm11-4a2,2,0,1,1-2,2A2,2,0,0,1,14,10Z"></path>
        <path d="M45,22H37.65a6,6,0,1,0,0,4H45a2,2,0,0,0,0-4ZM32,26a2,2,0,1,1,2-2A2,2,0,0,1,32,26Z"></path>
        <path d="M22,22H3a2,2,0,0,0,0,4H22a2,2,0,0,0,0-4Z"></path>
        <path d="M45,34H28a2,2,0,0,0,0,4H45a2,2,0,0,0,0-4Z"></path>
        <path d="M18,30a6,6,0,0,0-5.65,4H3a2,2,0,0,0,0,4h9.35A6,6,0,1,0,18,30Zm0,8a2,2,0,1,1,2-2A2,2,0,0,1,18,38Z"></path>
    </symbol>
</svg>