<svg width="2876" height="767" viewBox="0 0 2876 767" fill="none" xmlns="http://www.w3.org/2000/svg">
<path fill-rule="evenodd" clip-rule="evenodd" d="M1440.78 374.199C1469.3 267.772 1578.69 204.614 1685.12 233.131L2726.38 512.137C2832.81 540.653 2895.96 650.047 2867.45 756.473L2864.75 766.533L2865.72 766.792L2868.41 756.732C2897.07 649.772 2833.6 539.83 2726.64 511.171L1685.37 232.165C1578.41 203.505 1468.47 266.98 1439.81 373.94L1437.12 384L1438.08 384.259L1440.78 374.199Z" fill="white"/>
<path fill-rule="evenodd" clip-rule="evenodd" d="M7.84757 10.319C-20.6693 116.746 42.4888 226.139 148.915 254.656L1190.18 533.662C1296.61 562.178 1406 499.02 1434.52 392.594L1437.21 382.534L1438.18 382.792L1435.48 392.853C1406.82 499.812 1296.88 563.287 1189.92 534.628L148.656 255.622C41.6965 226.962 -21.7782 117.02 6.88164 10.0602L9.57727 0L10.5432 0.258819L7.84757 10.319Z" fill="white"/>
</svg>
