<svg width="1241" height="1271" viewBox="0 0 1241 1271" fill="none" xmlns="http://www.w3.org/2000/svg" xmlns:xlink="http://www.w3.org/1999/xlink">
    <path fill-rule="evenodd" clip-rule="evenodd" d="M259.519 675.667C259.519 675.667 263.067 678.75 264.485 682.346L299.449 682.146C300.896 682.138 301.777 682.635 301.913 683.031C302.339 684.264 300.494 696.048 297.656 699.13C294.818 702.213 267.856 704.953 267.856 704.953C267.856 704.953 267.501 706.324 268.92 707.009C270.339 707.694 293.399 707.351 293.399 707.351C293.399 707.351 294.463 707.694 294.463 708.721C294.463 709.749 293.754 709.749 293.754 709.749H269.275C269.275 709.749 267.856 709.749 266.437 708.036C265.018 706.324 262.889 684.744 261.825 682.689C260.761 680.634 257.922 677.208 257.922 677.208C257.922 677.208 256.504 676.181 257.568 675.153C258.632 674.126 259.519 675.667 259.519 675.667ZM272.61 712.729C273.971 712.729 275.204 713.262 276.096 714.124C276.989 714.985 277.541 716.176 277.541 717.49C277.541 718.805 276.989 719.995 276.096 720.857C275.204 721.718 273.971 722.251 272.61 722.251C271.248 722.251 270.015 721.718 269.123 720.857C268.231 719.995 267.678 718.805 267.678 717.49C267.678 716.176 268.231 714.985 269.123 714.124C270.015 713.262 271.248 712.729 272.61 712.729ZM274.591 715.577C274.084 715.087 273.383 714.784 272.61 714.784C271.836 714.784 271.135 715.087 270.628 715.577C270.121 716.066 269.807 716.743 269.807 717.49C269.807 718.238 270.121 718.914 270.628 719.404C271.135 719.893 271.836 720.196 272.61 720.196C273.383 720.196 274.084 719.893 274.591 719.404C275.098 718.914 275.412 718.238 275.412 717.49C275.412 716.743 275.098 716.066 274.591 715.577ZM288.929 712.729C290.29 712.729 291.523 713.262 292.416 714.124C293.308 714.985 293.86 716.176 293.86 717.49C293.86 718.805 293.308 719.995 292.416 720.857C291.523 721.718 290.29 722.251 288.929 722.251C287.567 722.251 286.334 721.718 285.442 720.857C284.55 719.995 283.998 718.805 283.998 717.49C283.998 716.176 284.55 714.985 285.442 714.124C286.334 713.262 287.567 712.729 288.929 712.729ZM290.911 715.577C290.404 715.087 289.703 714.784 288.929 714.784C288.155 714.784 287.454 715.087 286.947 715.577C286.44 716.066 286.126 716.743 286.126 717.49C286.126 718.238 286.44 718.914 286.947 719.404C287.454 719.893 288.155 720.196 288.929 720.196C289.703 720.196 290.404 719.893 290.911 719.404C291.417 718.914 291.731 718.238 291.731 717.49C291.731 716.743 291.417 716.066 290.911 715.577ZM272.823 687.827C272.823 687.259 273.299 686.799 273.887 686.799C274.475 686.799 274.951 687.259 274.951 687.827V697.075C274.951 697.643 274.475 698.103 273.887 698.103C273.299 698.103 272.823 697.643 272.823 697.075V687.827ZM287.9 687.827C287.9 687.259 288.377 686.799 288.965 686.799C289.552 686.799 290.029 687.259 290.029 687.827V697.075C290.029 697.643 289.552 698.103 288.965 698.103C288.377 698.103 287.9 697.643 287.9 697.075V687.827ZM280.095 687.827C280.095 687.259 280.572 686.799 281.16 686.799C281.748 686.799 282.224 687.259 282.224 687.827V697.075C282.224 697.643 281.748 698.103 281.16 698.103C280.572 698.103 280.095 697.643 280.095 697.075V687.827Z" fill="#FFDF9E"/>
    <path fill-rule="evenodd" clip-rule="evenodd" d="M303.519 971.667C303.519 971.667 307.067 974.75 308.485 978.346L343.449 978.146C344.896 978.138 345.777 978.635 345.913 979.031C346.339 980.264 344.494 992.048 341.656 995.13C338.818 998.213 311.856 1000.95 311.856 1000.95C311.856 1000.95 311.501 1002.32 312.92 1003.01C314.339 1003.69 337.399 1003.35 337.399 1003.35C337.399 1003.35 338.463 1003.69 338.463 1004.72C338.463 1005.75 337.754 1005.75 337.754 1005.75H313.275C313.275 1005.75 311.856 1005.75 310.437 1004.04C309.018 1002.32 306.889 980.744 305.825 978.689C304.761 976.634 301.922 973.208 301.922 973.208C301.922 973.208 300.504 972.181 301.568 971.153C302.632 970.126 303.519 971.667 303.519 971.667ZM316.61 1008.73C317.971 1008.73 319.204 1009.26 320.096 1010.12C320.989 1010.99 321.541 1012.18 321.541 1013.49C321.541 1014.8 320.989 1016 320.096 1016.86C319.204 1017.72 317.971 1018.25 316.61 1018.25C315.248 1018.25 314.015 1017.72 313.123 1016.86C312.231 1016 311.678 1014.8 311.678 1013.49C311.678 1012.18 312.231 1010.99 313.123 1010.12C314.015 1009.26 315.248 1008.73 316.61 1008.73ZM318.591 1011.58C318.084 1011.09 317.383 1010.78 316.61 1010.78C315.836 1010.78 315.135 1011.09 314.628 1011.58C314.121 1012.07 313.807 1012.74 313.807 1013.49C313.807 1014.24 314.121 1014.91 314.628 1015.4C315.135 1015.89 315.836 1016.2 316.61 1016.2C317.383 1016.2 318.084 1015.89 318.591 1015.4C319.098 1014.91 319.412 1014.24 319.412 1013.49C319.412 1012.74 319.098 1012.07 318.591 1011.58ZM332.929 1008.73C334.29 1008.73 335.523 1009.26 336.416 1010.12C337.308 1010.99 337.86 1012.18 337.86 1013.49C337.86 1014.8 337.308 1016 336.416 1016.86C335.523 1017.72 334.29 1018.25 332.929 1018.25C331.567 1018.25 330.334 1017.72 329.442 1016.86C328.55 1016 327.998 1014.8 327.998 1013.49C327.998 1012.18 328.55 1010.99 329.442 1010.12C330.334 1009.26 331.567 1008.73 332.929 1008.73ZM334.911 1011.58C334.404 1011.09 333.703 1010.78 332.929 1010.78C332.155 1010.78 331.454 1011.09 330.947 1011.58C330.44 1012.07 330.126 1012.74 330.126 1013.49C330.126 1014.24 330.44 1014.91 330.947 1015.4C331.454 1015.89 332.155 1016.2 332.929 1016.2C333.703 1016.2 334.404 1015.89 334.911 1015.4C335.417 1014.91 335.731 1014.24 335.731 1013.49C335.731 1012.74 335.417 1012.07 334.911 1011.58ZM316.823 983.827C316.823 983.259 317.299 982.799 317.887 982.799C318.475 982.799 318.951 983.259 318.951 983.827V993.075C318.951 993.643 318.475 994.103 317.887 994.103C317.299 994.103 316.823 993.643 316.823 993.075V983.827ZM331.9 983.827C331.9 983.259 332.377 982.799 332.965 982.799C333.552 982.799 334.029 983.259 334.029 983.827V993.075C334.029 993.643 333.552 994.103 332.965 994.103C332.377 994.103 331.9 993.643 331.9 993.075V983.827ZM324.095 983.827C324.095 983.259 324.572 982.799 325.16 982.799C325.748 982.799 326.224 983.259 326.224 983.827V993.075C326.224 993.643 325.748 994.103 325.16 994.103C324.572 994.103 324.095 993.643 324.095 993.075V983.827Z" fill="#FFDF9E"/>
    <path fill-rule="evenodd" clip-rule="evenodd" d="M336.519 1016.67C336.519 1016.67 340.067 1019.75 341.485 1023.35L376.449 1023.15C377.896 1023.14 378.777 1023.64 378.913 1024.03C379.339 1025.26 377.494 1037.05 374.656 1040.13C371.818 1043.21 344.856 1045.95 344.856 1045.95C344.856 1045.95 344.501 1047.32 345.92 1048.01C347.339 1048.69 370.399 1048.35 370.399 1048.35C370.399 1048.35 371.463 1048.69 371.463 1049.72C371.463 1050.75 370.754 1050.75 370.754 1050.75H346.275C346.275 1050.75 344.856 1050.75 343.437 1049.04C342.018 1047.32 339.889 1025.74 338.825 1023.69C337.761 1021.63 334.922 1018.21 334.922 1018.21C334.922 1018.21 333.504 1017.18 334.568 1016.15C335.632 1015.13 336.519 1016.67 336.519 1016.67ZM349.61 1053.73C350.971 1053.73 352.204 1054.26 353.096 1055.12C353.989 1055.99 354.541 1057.18 354.541 1058.49C354.541 1059.8 353.989 1061 353.096 1061.86C352.204 1062.72 350.971 1063.25 349.61 1063.25C348.248 1063.25 347.015 1062.72 346.123 1061.86C345.231 1061 344.678 1059.8 344.678 1058.49C344.678 1057.18 345.231 1055.99 346.123 1055.12C347.015 1054.26 348.248 1053.73 349.61 1053.73ZM351.591 1056.58C351.084 1056.09 350.383 1055.78 349.61 1055.78C348.836 1055.78 348.135 1056.09 347.628 1056.58C347.121 1057.07 346.807 1057.74 346.807 1058.49C346.807 1059.24 347.121 1059.91 347.628 1060.4C348.135 1060.89 348.836 1061.2 349.61 1061.2C350.383 1061.2 351.084 1060.89 351.591 1060.4C352.098 1059.91 352.412 1059.24 352.412 1058.49C352.412 1057.74 352.098 1057.07 351.591 1056.58ZM365.929 1053.73C367.29 1053.73 368.523 1054.26 369.416 1055.12C370.308 1055.99 370.86 1057.18 370.86 1058.49C370.86 1059.8 370.308 1061 369.416 1061.86C368.523 1062.72 367.29 1063.25 365.929 1063.25C364.567 1063.25 363.334 1062.72 362.442 1061.86C361.55 1061 360.998 1059.8 360.998 1058.49C360.998 1057.18 361.55 1055.99 362.442 1055.12C363.334 1054.26 364.567 1053.73 365.929 1053.73ZM367.911 1056.58C367.404 1056.09 366.703 1055.78 365.929 1055.78C365.155 1055.78 364.454 1056.09 363.947 1056.58C363.44 1057.07 363.126 1057.74 363.126 1058.49C363.126 1059.24 363.44 1059.91 363.947 1060.4C364.454 1060.89 365.155 1061.2 365.929 1061.2C366.703 1061.2 367.404 1060.89 367.911 1060.4C368.417 1059.91 368.731 1059.24 368.731 1058.49C368.731 1057.74 368.417 1057.07 367.911 1056.58ZM349.823 1028.83C349.823 1028.26 350.299 1027.8 350.887 1027.8C351.475 1027.8 351.951 1028.26 351.951 1028.83V1038.08C351.951 1038.64 351.475 1039.1 350.887 1039.1C350.299 1039.1 349.823 1038.64 349.823 1038.08V1028.83ZM364.9 1028.83C364.9 1028.26 365.377 1027.8 365.965 1027.8C366.552 1027.8 367.029 1028.26 367.029 1028.83V1038.08C367.029 1038.64 366.552 1039.1 365.965 1039.1C365.377 1039.1 364.9 1038.64 364.9 1038.08V1028.83ZM357.095 1028.83C357.095 1028.26 357.572 1027.8 358.16 1027.8C358.748 1027.8 359.224 1028.26 359.224 1028.83V1038.08C359.224 1038.64 358.748 1039.1 358.16 1039.1C357.572 1039.1 357.095 1038.64 357.095 1038.08V1028.83Z" fill="#FFDF9E"/>
    <path fill-rule="evenodd" clip-rule="evenodd" d="M533.519 380.667C533.519 380.667 537.067 383.75 538.485 387.346L573.449 387.146C574.896 387.138 575.777 387.635 575.913 388.031C576.339 389.264 574.494 401.048 571.656 404.13C568.818 407.213 541.856 409.953 541.856 409.953C541.856 409.953 541.501 411.324 542.92 412.009C544.339 412.694 567.399 412.351 567.399 412.351C567.399 412.351 568.463 412.694 568.463 413.721C568.463 414.749 567.754 414.749 567.754 414.749H543.275C543.275 414.749 541.856 414.749 540.437 413.036C539.018 411.324 536.889 389.744 535.825 387.689C534.761 385.634 531.922 382.208 531.922 382.208C531.922 382.208 530.504 381.181 531.568 380.153C532.632 379.126 533.519 380.667 533.519 380.667ZM546.61 417.729C547.971 417.729 549.204 418.262 550.096 419.124C550.989 419.985 551.541 421.176 551.541 422.49C551.541 423.805 550.989 424.995 550.096 425.857C549.204 426.718 547.971 427.251 546.61 427.251C545.248 427.251 544.015 426.718 543.123 425.857C542.231 424.995 541.678 423.805 541.678 422.49C541.678 421.176 542.231 419.985 543.123 419.124C544.015 418.262 545.248 417.729 546.61 417.729ZM548.591 420.577C548.084 420.087 547.383 419.784 546.61 419.784C545.836 419.784 545.135 420.087 544.628 420.577C544.121 421.066 543.807 421.743 543.807 422.49C543.807 423.238 544.121 423.914 544.628 424.404C545.135 424.893 545.836 425.196 546.61 425.196C547.383 425.196 548.084 424.893 548.591 424.404C549.098 423.914 549.412 423.238 549.412 422.49C549.412 421.743 549.098 421.066 548.591 420.577ZM562.929 417.729C564.29 417.729 565.523 418.262 566.416 419.124C567.308 419.985 567.86 421.176 567.86 422.49C567.86 423.805 567.308 424.995 566.416 425.857C565.523 426.718 564.29 427.251 562.929 427.251C561.567 427.251 560.334 426.718 559.442 425.857C558.55 424.995 557.998 423.805 557.998 422.49C557.998 421.176 558.55 419.985 559.442 419.124C560.334 418.262 561.567 417.729 562.929 417.729ZM564.911 420.577C564.404 420.087 563.703 419.784 562.929 419.784C562.155 419.784 561.454 420.087 560.947 420.577C560.44 421.066 560.126 421.743 560.126 422.49C560.126 423.238 560.44 423.914 560.947 424.404C561.454 424.893 562.155 425.196 562.929 425.196C563.703 425.196 564.404 424.893 564.911 424.404C565.417 423.914 565.731 423.238 565.731 422.49C565.731 421.743 565.417 421.066 564.911 420.577ZM546.823 392.827C546.823 392.259 547.299 391.799 547.887 391.799C548.475 391.799 548.951 392.259 548.951 392.827V402.075C548.951 402.643 548.475 403.103 547.887 403.103C547.299 403.103 546.823 402.643 546.823 402.075V392.827ZM561.9 392.827C561.9 392.259 562.377 391.799 562.965 391.799C563.552 391.799 564.029 392.259 564.029 392.827V402.075C564.029 402.643 563.552 403.103 562.965 403.103C562.377 403.103 561.9 402.643 561.9 402.075V392.827ZM554.095 392.827C554.095 392.259 554.572 391.799 555.16 391.799C555.748 391.799 556.224 392.259 556.224 392.827V402.075C556.224 402.643 555.748 403.103 555.16 403.103C554.572 403.103 554.095 402.643 554.095 402.075V392.827Z" fill="#FFDF9E"/>
    <path fill-rule="evenodd" clip-rule="evenodd" d="M481.519 377.667C481.519 377.667 485.067 380.75 486.485 384.346L521.449 384.146C522.896 384.138 523.777 384.635 523.913 385.031C524.339 386.264 522.494 398.048 519.656 401.13C516.818 404.213 489.856 406.953 489.856 406.953C489.856 406.953 489.501 408.324 490.92 409.009C492.339 409.694 515.399 409.351 515.399 409.351C515.399 409.351 516.463 409.694 516.463 410.721C516.463 411.749 515.754 411.749 515.754 411.749H491.275C491.275 411.749 489.856 411.749 488.437 410.036C487.018 408.324 484.889 386.744 483.825 384.689C482.761 382.634 479.922 379.208 479.922 379.208C479.922 379.208 478.504 378.181 479.568 377.153C480.632 376.126 481.519 377.667 481.519 377.667ZM494.61 414.729C495.971 414.729 497.204 415.262 498.096 416.124C498.989 416.985 499.541 418.176 499.541 419.49C499.541 420.805 498.989 421.995 498.096 422.857C497.204 423.718 495.971 424.251 494.61 424.251C493.248 424.251 492.015 423.718 491.123 422.857C490.231 421.995 489.678 420.805 489.678 419.49C489.678 418.176 490.231 416.985 491.123 416.124C492.015 415.262 493.248 414.729 494.61 414.729ZM496.591 417.577C496.084 417.087 495.383 416.784 494.61 416.784C493.836 416.784 493.135 417.087 492.628 417.577C492.121 418.066 491.807 418.743 491.807 419.49C491.807 420.238 492.121 420.914 492.628 421.404C493.135 421.893 493.836 422.196 494.61 422.196C495.383 422.196 496.084 421.893 496.591 421.404C497.098 420.914 497.412 420.238 497.412 419.49C497.412 418.743 497.098 418.066 496.591 417.577ZM510.929 414.729C512.29 414.729 513.523 415.262 514.416 416.124C515.308 416.985 515.86 418.176 515.86 419.49C515.86 420.805 515.308 421.995 514.416 422.857C513.523 423.718 512.29 424.251 510.929 424.251C509.567 424.251 508.334 423.718 507.442 422.857C506.55 421.995 505.998 420.805 505.998 419.49C505.998 418.176 506.55 416.985 507.442 416.124C508.334 415.262 509.567 414.729 510.929 414.729ZM512.911 417.577C512.404 417.087 511.703 416.784 510.929 416.784C510.155 416.784 509.454 417.087 508.947 417.577C508.44 418.066 508.126 418.743 508.126 419.49C508.126 420.238 508.44 420.914 508.947 421.404C509.454 421.893 510.155 422.196 510.929 422.196C511.703 422.196 512.404 421.893 512.911 421.404C513.417 420.914 513.731 420.238 513.731 419.49C513.731 418.743 513.417 418.066 512.911 417.577ZM494.823 389.827C494.823 389.259 495.299 388.799 495.887 388.799C496.475 388.799 496.951 389.259 496.951 389.827V399.075C496.951 399.643 496.475 400.103 495.887 400.103C495.299 400.103 494.823 399.643 494.823 399.075V389.827ZM509.9 389.827C509.9 389.259 510.377 388.799 510.965 388.799C511.552 388.799 512.029 389.259 512.029 389.827V399.075C512.029 399.643 511.552 400.103 510.965 400.103C510.377 400.103 509.9 399.643 509.9 399.075V389.827ZM502.095 389.827C502.095 389.259 502.572 388.799 503.16 388.799C503.748 388.799 504.224 389.259 504.224 389.827V399.075C504.224 399.643 503.748 400.103 503.16 400.103C502.572 400.103 502.095 399.643 502.095 399.075V389.827Z" fill="#FFDF9E"/>
    <path fill-rule="evenodd" clip-rule="evenodd" d="M578.519 247.667C578.519 247.667 582.067 250.75 583.485 254.346L618.449 254.146C619.896 254.138 620.777 254.635 620.913 255.031C621.339 256.264 619.494 268.048 616.656 271.13C613.818 274.213 586.856 276.953 586.856 276.953C586.856 276.953 586.501 278.324 587.92 279.009C589.339 279.694 612.399 279.351 612.399 279.351C612.399 279.351 613.463 279.694 613.463 280.721C613.463 281.749 612.754 281.749 612.754 281.749H588.275C588.275 281.749 586.856 281.749 585.437 280.036C584.018 278.324 581.889 256.744 580.825 254.689C579.761 252.634 576.922 249.208 576.922 249.208C576.922 249.208 575.504 248.181 576.568 247.153C577.632 246.126 578.519 247.667 578.519 247.667ZM591.61 284.729C592.971 284.729 594.204 285.262 595.096 286.124C595.989 286.985 596.541 288.176 596.541 289.49C596.541 290.805 595.989 291.995 595.096 292.857C594.204 293.718 592.971 294.251 591.61 294.251C590.248 294.251 589.015 293.718 588.123 292.857C587.231 291.995 586.678 290.805 586.678 289.49C586.678 288.176 587.231 286.985 588.123 286.124C589.015 285.262 590.248 284.729 591.61 284.729ZM593.591 287.577C593.084 287.087 592.383 286.784 591.61 286.784C590.836 286.784 590.135 287.087 589.628 287.577C589.121 288.066 588.807 288.743 588.807 289.49C588.807 290.238 589.121 290.914 589.628 291.404C590.135 291.893 590.836 292.196 591.61 292.196C592.383 292.196 593.084 291.893 593.591 291.404C594.098 290.914 594.412 290.238 594.412 289.49C594.412 288.743 594.098 288.066 593.591 287.577ZM607.929 284.729C609.29 284.729 610.523 285.262 611.416 286.124C612.308 286.985 612.86 288.176 612.86 289.49C612.86 290.805 612.308 291.995 611.416 292.857C610.523 293.718 609.29 294.251 607.929 294.251C606.567 294.251 605.334 293.718 604.442 292.857C603.55 291.995 602.998 290.805 602.998 289.49C602.998 288.176 603.55 286.985 604.442 286.124C605.334 285.262 606.567 284.729 607.929 284.729ZM609.911 287.577C609.404 287.087 608.703 286.784 607.929 286.784C607.155 286.784 606.454 287.087 605.947 287.577C605.44 288.066 605.126 288.743 605.126 289.49C605.126 290.238 605.44 290.914 605.947 291.404C606.454 291.893 607.155 292.196 607.929 292.196C608.703 292.196 609.404 291.893 609.911 291.404C610.417 290.914 610.731 290.238 610.731 289.49C610.731 288.743 610.417 288.066 609.911 287.577ZM591.823 259.827C591.823 259.259 592.299 258.799 592.887 258.799C593.475 258.799 593.951 259.259 593.951 259.827V269.075C593.951 269.643 593.475 270.103 592.887 270.103C592.299 270.103 591.823 269.643 591.823 269.075V259.827ZM606.9 259.827C606.9 259.259 607.377 258.799 607.965 258.799C608.552 258.799 609.029 259.259 609.029 259.827V269.075C609.029 269.643 608.552 270.103 607.965 270.103C607.377 270.103 606.9 269.643 606.9 269.075V259.827ZM599.095 259.827C599.095 259.259 599.572 258.799 600.16 258.799C600.748 258.799 601.224 259.259 601.224 259.827V269.075C601.224 269.643 600.748 270.103 600.16 270.103C599.572 270.103 599.095 269.643 599.095 269.075V259.827Z" fill="#FFDF9E"/>
    <path fill-rule="evenodd" clip-rule="evenodd" d="M600.534 357.224C610.377 357.224 618.357 358.554 618.357 360.194C618.357 361.835 610.377 363.165 600.534 363.165C590.69 363.165 582.71 361.835 582.71 360.194C582.71 358.554 590.69 357.224 600.534 357.224ZM571.422 347.124L596.771 334.449C596.771 334.449 598.752 333.657 599.741 333.657C600.751 333.657 601.938 334.412 603.054 334.9C609.718 337.817 628.854 347.124 628.854 347.124C628.854 347.124 630.042 347.52 630.042 348.708C630.042 349.896 628.854 350.292 628.854 350.292L621.328 353.857C621.328 353.857 625.289 344.747 601.128 344.747C576.967 344.747 579.343 353.857 579.343 353.857L576.691 352.652V370.207C580.653 371.294 575.779 379.998 575.779 379.998C575.779 379.998 570.904 371.294 574.866 370.207V351.822L570.629 349.896C570.629 349.896 569.837 349.5 569.837 348.312C569.675 347.708 571.422 347.124 571.422 347.124ZM618.159 357.026V351.877C618.159 351.877 619.348 347.52 601.128 347.52C582.908 347.52 582.512 351.084 582.512 351.084V357.026C582.512 357.026 584.888 354.649 600.336 354.649C615.783 354.649 618.159 357.026 618.159 357.026Z" fill="#FFDF9E"/>
    <path fill-rule="evenodd" clip-rule="evenodd" d="M605.392 421.988C613.887 421.988 620.774 423.135 620.774 424.551C620.774 425.967 613.887 427.115 605.392 427.115C596.897 427.115 590.01 425.967 590.01 424.551C590.01 423.135 596.897 421.988 605.392 421.988ZM580.268 413.271L602.145 402.333C602.145 402.333 603.854 401.649 604.708 401.649C605.58 401.649 606.604 402.301 607.567 402.722C613.318 405.239 629.833 413.271 629.833 413.271C629.833 413.271 630.858 413.613 630.858 414.638C630.858 415.664 629.833 416.006 629.833 416.006L623.338 419.082C623.338 419.082 626.756 411.22 605.905 411.22C585.053 411.22 587.105 419.082 587.105 419.082L584.816 418.042V433.193C588.235 434.13 584.028 441.642 584.028 441.642C584.028 441.642 579.821 434.13 583.241 433.193V417.326L579.584 415.664C579.584 415.664 578.901 415.322 578.901 414.296C578.761 413.775 580.268 413.271 580.268 413.271ZM620.603 421.817V417.373C620.603 417.373 621.629 413.613 605.905 413.613C590.181 413.613 589.839 416.689 589.839 416.689V421.817C589.839 421.817 591.89 419.766 605.221 419.766C618.552 419.766 620.603 421.817 620.603 421.817Z" fill="#FFDF9E"/>
    <path fill-rule="evenodd" clip-rule="evenodd" d="M539.392 311.988C547.887 311.988 554.774 313.135 554.774 314.551C554.774 315.967 547.887 317.115 539.392 317.115C530.897 317.115 524.01 315.967 524.01 314.551C524.01 313.135 530.897 311.988 539.392 311.988ZM514.268 303.271L536.145 292.333C536.145 292.333 537.854 291.649 538.708 291.649C539.58 291.649 540.604 292.301 541.567 292.722C547.318 295.239 563.833 303.271 563.833 303.271C563.833 303.271 564.858 303.613 564.858 304.638C564.858 305.664 563.833 306.006 563.833 306.006L557.338 309.082C557.338 309.082 560.756 301.22 539.905 301.22C519.053 301.22 521.105 309.082 521.105 309.082L518.816 308.042V323.193C522.235 324.13 518.028 331.642 518.028 331.642C518.028 331.642 513.821 324.13 517.241 323.193V307.326L513.584 305.664C513.584 305.664 512.901 305.322 512.901 304.296C512.761 303.775 514.268 303.271 514.268 303.271ZM554.603 311.817V307.373C554.603 307.373 555.629 303.613 539.905 303.613C524.181 303.613 523.839 306.689 523.839 306.689V311.817C523.839 311.817 525.89 309.766 539.221 309.766C552.552 309.766 554.603 311.817 554.603 311.817Z" fill="#FFDF9E"/>
    <path fill-rule="evenodd" clip-rule="evenodd" d="M152.392 380.988C160.887 380.988 167.774 382.135 167.774 383.551C167.774 384.967 160.887 386.115 152.392 386.115C143.897 386.115 137.01 384.967 137.01 383.551C137.01 382.135 143.897 380.988 152.392 380.988ZM127.268 372.271L149.145 361.333C149.145 361.333 150.854 360.649 151.708 360.649C152.58 360.649 153.604 361.301 154.567 361.722C160.318 364.239 176.833 372.271 176.833 372.271C176.833 372.271 177.858 372.613 177.858 373.638C177.858 374.664 176.833 375.006 176.833 375.006L170.338 378.082C170.338 378.082 173.756 370.22 152.905 370.22C132.053 370.22 134.104 378.082 134.104 378.082L131.816 377.042V392.193C135.235 393.13 131.028 400.642 131.028 400.642C131.028 400.642 126.821 393.13 130.241 392.193V376.326L126.584 374.664C126.584 374.664 125.901 374.322 125.901 373.296C125.761 372.775 127.268 372.271 127.268 372.271ZM167.603 380.817V376.373C167.603 376.373 168.629 372.613 152.905 372.613C137.181 372.613 136.839 375.689 136.839 375.689V380.817C136.839 380.817 138.89 378.766 152.221 378.766C165.552 378.766 167.603 380.817 167.603 380.817Z" fill="#FFDF9E"/>
    <path fill-rule="evenodd" clip-rule="evenodd" d="M215.392 312.988C223.887 312.988 230.774 314.135 230.774 315.551C230.774 316.967 223.887 318.115 215.392 318.115C206.897 318.115 200.01 316.967 200.01 315.551C200.01 314.135 206.897 312.988 215.392 312.988ZM190.268 304.271L212.145 293.333C212.145 293.333 213.854 292.649 214.708 292.649C215.58 292.649 216.604 293.301 217.567 293.722C223.318 296.239 239.833 304.271 239.833 304.271C239.833 304.271 240.858 304.613 240.858 305.638C240.858 306.664 239.833 307.006 239.833 307.006L233.338 310.082C233.338 310.082 236.756 302.22 215.905 302.22C195.053 302.22 197.105 310.082 197.105 310.082L194.816 309.042V324.193C198.235 325.13 194.028 332.642 194.028 332.642C194.028 332.642 189.821 325.13 193.241 324.193V308.326L189.584 306.664C189.584 306.664 188.901 306.322 188.901 305.296C188.761 304.775 190.268 304.271 190.268 304.271ZM230.603 312.817V308.373C230.603 308.373 231.629 304.613 215.905 304.613C200.181 304.613 199.839 307.689 199.839 307.689V312.817C199.839 312.817 201.89 310.766 215.221 310.766C228.552 310.766 230.603 312.817 230.603 312.817Z" fill="#FFDF9E"/>
    <path fill-rule="evenodd" clip-rule="evenodd" d="M125.392 559.988C133.887 559.988 140.774 561.135 140.774 562.551C140.774 563.967 133.887 565.115 125.392 565.115C116.897 565.115 110.01 563.967 110.01 562.551C110.01 561.135 116.897 559.988 125.392 559.988ZM100.268 551.271L122.145 540.333C122.145 540.333 123.854 539.649 124.708 539.649C125.58 539.649 126.604 540.301 127.567 540.722C133.318 543.239 149.833 551.271 149.833 551.271C149.833 551.271 150.858 551.613 150.858 552.638C150.858 553.664 149.833 554.006 149.833 554.006L143.338 557.082C143.338 557.082 146.756 549.22 125.905 549.22C105.053 549.22 107.104 557.082 107.104 557.082L104.816 556.042V571.193C108.235 572.13 104.028 579.642 104.028 579.642C104.028 579.642 99.8211 572.13 103.241 571.193V555.326L99.5843 553.664C99.5843 553.664 98.9006 553.322 98.9006 552.296C98.761 551.775 100.268 551.271 100.268 551.271ZM140.603 559.817V555.373C140.603 555.373 141.629 551.613 125.905 551.613C110.181 551.613 109.839 554.689 109.839 554.689V559.817C109.839 559.817 111.89 557.766 125.221 557.766C138.552 557.766 140.603 559.817 140.603 559.817Z" fill="#FFDF9E"/>
    <path fill-rule="evenodd" clip-rule="evenodd" d="M306.392 1047.99C314.887 1047.99 321.774 1049.14 321.774 1050.55C321.774 1051.97 314.887 1053.11 306.392 1053.11C297.897 1053.11 291.01 1051.97 291.01 1050.55C291.01 1049.14 297.897 1047.99 306.392 1047.99ZM281.268 1039.27L303.145 1028.33C303.145 1028.33 304.854 1027.65 305.708 1027.65C306.58 1027.65 307.604 1028.3 308.567 1028.72C314.318 1031.24 330.833 1039.27 330.833 1039.27C330.833 1039.27 331.858 1039.61 331.858 1040.64C331.858 1041.66 330.833 1042.01 330.833 1042.01L324.338 1045.08C324.338 1045.08 327.756 1037.22 306.905 1037.22C286.053 1037.22 288.105 1045.08 288.105 1045.08L285.816 1044.04V1059.19C289.235 1060.13 285.028 1067.64 285.028 1067.64C285.028 1067.64 280.821 1060.13 284.241 1059.19V1043.33L280.584 1041.66C280.584 1041.66 279.901 1041.32 279.901 1040.3C279.761 1039.78 281.268 1039.27 281.268 1039.27ZM321.603 1047.82V1043.37C321.603 1043.37 322.629 1039.61 306.905 1039.61C291.181 1039.61 290.839 1042.69 290.839 1042.69V1047.82C290.839 1047.82 292.89 1045.77 306.221 1045.77C319.552 1045.77 321.603 1047.82 321.603 1047.82Z" fill="#FFDF9E"/>
    <path fill-rule="evenodd" clip-rule="evenodd" d="M318.392 1110.99C326.887 1110.99 333.774 1112.14 333.774 1113.55C333.774 1114.97 326.887 1116.11 318.392 1116.11C309.897 1116.11 303.01 1114.97 303.01 1113.55C303.01 1112.14 309.897 1110.99 318.392 1110.99ZM293.268 1102.27L315.145 1091.33C315.145 1091.33 316.854 1090.65 317.708 1090.65C318.58 1090.65 319.604 1091.3 320.567 1091.72C326.318 1094.24 342.833 1102.27 342.833 1102.27C342.833 1102.27 343.858 1102.61 343.858 1103.64C343.858 1104.66 342.833 1105.01 342.833 1105.01L336.338 1108.08C336.338 1108.08 339.756 1100.22 318.905 1100.22C298.053 1100.22 300.105 1108.08 300.105 1108.08L297.816 1107.04V1122.19C301.235 1123.13 297.028 1130.64 297.028 1130.64C297.028 1130.64 292.821 1123.13 296.241 1122.19V1106.33L292.584 1104.66C292.584 1104.66 291.901 1104.32 291.901 1103.3C291.761 1102.78 293.268 1102.27 293.268 1102.27ZM333.603 1110.82V1106.37C333.603 1106.37 334.629 1102.61 318.905 1102.61C303.181 1102.61 302.839 1105.69 302.839 1105.69V1110.82C302.839 1110.82 304.89 1108.77 318.221 1108.77C331.552 1108.77 333.603 1110.82 333.603 1110.82Z" fill="#FFDF9E"/>
    <path fill-rule="evenodd" clip-rule="evenodd" d="M639.5 611C649.717 611 658 619.283 658 629.5C658 639.717 649.717 648 639.5 648C629.283 648 621 639.717 621 629.5C621 619.283 629.283 611 639.5 611ZM632.69 617.509L631.6 625.139C631.446 626.219 634.305 628.192 634.325 629.5V641.491H635.526H636.505V629.5C636.505 628.192 639.384 626.219 639.23 625.139L638.141 617.509H637.051L637.596 623.505L635.961 624.595V617.509H634.871V624.595L633.235 623.505L633.78 617.509H632.69ZM647.406 617.509C644.136 617.509 643.06 621.268 643.046 624.049V630.589L645.227 630.59V641.491H647.406V617.509Z" fill="#FFDF9E"/>
    <path fill-rule="evenodd" clip-rule="evenodd" d="M214.5 448C224.717 448 233 456.283 233 466.5C233 476.717 224.717 485 214.5 485C204.283 485 196 476.717 196 466.5C196 456.283 204.283 448 214.5 448ZM207.69 454.509L206.6 462.139C206.446 463.219 209.305 465.192 209.325 466.5V478.491H210.526H211.505V466.5C211.505 465.192 214.384 463.219 214.23 462.139L213.141 454.509H212.051L212.596 460.505L210.961 461.595V454.509H209.871V461.595L208.235 460.505L208.78 454.509H207.69ZM222.406 454.509C219.136 454.509 218.06 458.268 218.046 461.049V467.589L220.227 467.59V478.491H222.406V454.509Z" fill="#FFDF9E"/>
    <path fill-rule="evenodd" clip-rule="evenodd" d="M93.5 383C103.717 383 112 391.283 112 401.5C112 411.717 103.717 420 93.5 420C83.2827 420 75 411.717 75 401.5C75 391.283 83.2827 383 93.5 383ZM86.6903 389.509L85.6001 397.139C85.446 398.219 88.3053 400.192 88.3251 401.5V413.491H89.5265H90.5054V401.5C90.5054 400.192 93.3845 398.219 93.2304 397.139L92.141 389.509H91.0509L91.5956 395.505L89.9608 396.595V389.509H88.8706V396.595L87.2349 395.505L87.7804 389.509H86.6903ZM101.406 389.509C98.1364 389.509 97.0602 393.268 97.0463 396.049V402.589L99.2266 402.59V413.491H101.406V389.509Z" fill="#FFDF9E"/>
    <path fill-rule="evenodd" clip-rule="evenodd" d="M536.5 337C546.717 337 555 345.283 555 355.5C555 365.717 546.717 374 536.5 374C526.283 374 518 365.717 518 355.5C518 345.283 526.283 337 536.5 337ZM529.69 343.509L528.6 351.139C528.446 352.219 531.305 354.192 531.325 355.5V367.491H532.526H533.505V355.5C533.505 354.192 536.384 352.219 536.23 351.139L535.141 343.509H534.051L534.596 349.505L532.961 350.595V343.509H531.871V350.595L530.235 349.505L530.78 343.509H529.69ZM544.406 343.509C541.136 343.509 540.06 347.268 540.046 350.049V356.589L542.227 356.59V367.491H544.406V343.509Z" fill="#FFDF9E"/>
    <path d="M214 184.5L194.5 191V194.25H233.5V191L214 184.5ZM194.5 197.5V200.75H197.75V217H194.5L191.25 223.5H236.75L233.5 217H230.25V200.75H233.5V197.5H194.5ZM207.5 200.75C209.117 200.75 210.75 202.481 210.75 204V217H204.25V204C204.25 202.286 205.884 200.75 207.5 200.75H207.5ZM220.5 200.75C222.136 200.75 223.75 202.286 223.75 204V217H217.25V204C217.25 202.286 218.864 200.75 220.5 200.75H220.5Z" fill="#FFDF9E"/>
    <path fill-rule="evenodd" clip-rule="evenodd" d="M323.5 825C333.717 825 342 833.283 342 843.5C342 853.717 333.717 862 323.5 862C313.283 862 305 853.717 305 843.5C305 833.283 313.283 825 323.5 825ZM316.69 831.509L315.6 839.139C315.446 840.219 318.305 842.192 318.325 843.5V855.491H319.526H320.505V843.5C320.505 842.192 323.384 840.219 323.23 839.139L322.141 831.509H321.051L321.596 837.505L319.961 838.595V831.509H318.871V838.595L317.235 837.505L317.78 831.509H316.69ZM331.406 831.509C328.136 831.509 327.06 835.268 327.046 838.049V844.589L329.227 844.59V855.491H331.406V831.509Z" fill="#FFDF9E"/>
    <path d="M69.7501 500L50.2501 506.5V509.75H89.2502V506.5L69.7501 500ZM50.2501 513V516.25H53.5001V532.5H50.2501L47 539H92.5001L89.2501 532.5H86V516.25H89.2501V513H50.2501ZM63.2501 516.25C64.8667 516.25 66.5002 517.981 66.5002 519.5V532.5H60.0003V519.5C60.0003 517.786 61.6338 516.25 63.2504 516.25H63.2501ZM76.2501 516.25C77.8861 516.25 79.5002 517.786 79.5002 519.5V532.5H73.0002V519.5C73.0002 517.786 74.6143 516.25 76.2503 516.25H76.2501Z" fill="#FFDF9E"/>

</svg>