<svg width="0" height="0" class="hidden">
    <symbol version="1.1" xmlns="http://www.w3.org/2000/svg" viewBox="0 0 542 512" id="home">
        <path d="M492.833 460.8h49.285v51.2h-542.117v-51.2h49.283v-435.2c0-6.79 2.596-13.301 7.218-18.102s10.889-7.498 17.425-7.498h394.269c6.536 0 12.803 2.697 17.423 7.498s7.216 11.313 7.216 18.102v435.2zM443.551 460.8v-409.6h-344.985v409.6h344.985zM172.492 230.4h73.925v51.2h-73.925v-51.2zM172.492 128h73.925v51.2h-73.925v-51.2zM172.492 332.8h73.925v51.2h-73.925v-51.2zM295.7 332.8h73.925v51.2h-73.924v-51.2zM295.7 230.4h73.925v51.2h-73.924v-51.2zM295.7 128h73.925v51.2h-73.924v-51.2z"></path>
    </symbol>
    <symbol xmlns="http://www.w3.org/2000/svg" viewBox="0 0 512 512" id="print">
        <path d="M128 0C92.7 0 64 28.7 64 64v96h64V64H354.7L384 93.3V160h64V93.3c0-17-6.7-33.3-18.7-45.3L400 18.7C388 6.7 371.7 0 354.7 0H128zM384 352v32 64H128V384 368 352H384zm64 32h32c17.7 0 32-14.3 32-32V256c0-35.3-28.7-64-64-64H64c-35.3 0-64 28.7-64 64v96c0 17.7 14.3 32 32 32H64v64c0 35.3 28.7 64 64 64H384c35.3 0 64-28.7 64-64V384zM432 248a24 24 0 1 1 0 48 24 24 0 1 1 0-48z"></path>
    </symbol>
    <symbol version="1.1" xmlns="http://www.w3.org/2000/svg" viewBox="0 0 512 512" id="mail">
        <path d="M256 512c141.385 0 256-114.615 256-256s-114.615-256-256-256c-141.385 0-256 114.615-256 256s114.615 256 256 256zM259.567 241.632c-20 0-123.034-58.428-123.034-58.428v-9.124c0-11.304 9.175-20.48 20.5-20.48h205.067c11.337 0 20.51 9.175 20.51 20.48l-0.163 10.24c0 0-101.919 57.313-122.88 57.313zM136.697 215.040c-0.010 0 102.87 54.753 122.87 54.753 21.923 0 122.88-54.752 122.88-54.752l0.163 122.88c0 11.305-9.174 20.48-20.51 20.48h-205.066c-11.315 0-20.5-9.175-20.5-20.48l0.164-122.88z"></path>
    </symbol>
    <symbol version="1.1" xmlns="http://www.w3.org/2000/svg" viewBox="0 0 512 512" id="telegram">
        <path d="M0 256c0 141.385 114.615 256 256 256s256-114.615 256-256c0-141.385-114.615-256-256-256s-256 114.615-256 256zM209.066 373.334l4.357-65.256-0.005-0.003 118.709-107.125c5.211-4.625-1.137-6.879-8.053-2.685l-146.503 92.427-63.281-19.751c-13.666-4.183-13.764-13.574 3.068-20.327l246.593-95.084c11.262-5.113 22.132 2.704 17.832 19.942l-41.995 197.896c-2.932 14.062-11.43 17.426-23.202 10.93l-63.97-47.262-30.75 29.899c-0.096 0.094-0.193 0.188-0.289 0.281-3.44 3.348-6.284 6.118-12.511 6.118z"></path>
    </symbol>
    <symbol version="1.1" xmlns="http://www.w3.org/2000/svg" viewBox="0 0 512 512" id="vk">
        <path d="M256 0c-141.385 0-256 114.615-256 256s114.615 256 256 256c141.385 0 256-114.615 256-256s-114.615-256-256-256zM276.844 336.813c-2.524 2.661-7.452 3.199-7.452 3.199h-16.321c0 0-36.007 2.123-67.727-30.284-34.591-35.358-65.135-105.51-65.135-105.51s-1.763-4.602 0.147-6.817c2.15-2.505 8.013-2.661 8.013-2.661l39.011-0.249c0 0 3.673 0.589 6.303 2.49 2.178 1.572 3.393 4.496 3.393 4.496s6.304 15.652 14.652 29.812c16.307 27.648 23.893 33.692 29.422 30.729 8.067-4.313 5.65-39.081 5.65-39.081s0.146-12.612-4.061-18.236c-3.258-4.352-9.401-5.623-12.113-5.977-2.203-0.289 1.402-5.298 6.077-7.538 7.025-3.37 19.418-3.566 34.069-3.423 11.419 0.119 14.705 0.813 19.166 1.875 10.353 2.453 10.031 10.313 9.334 27.273-0.209 5.073-0.452 10.96-0.452 17.761 0 1.529-0.045 3.156-0.092 4.833-0.243 8.689-0.519 18.64 5.315 22.345 2.992 1.889 10.297 0.276 28.582-30.193 8.668-14.446 15.158-31.423 15.158-31.423s1.429-3.029 3.634-4.327c2.256-1.325 5.302-0.918 5.302-0.918l41.055-0.249c0 0 12.341-1.454 14.33 4.025 2.098 5.728-4.606 19.126-21.382 41.073-15.913 20.824-23.656 28.49-22.945 35.271 0.519 4.954 5.553 9.436 15.212 18.23 20.164 18.378 25.568 28.046 26.868 30.369 0.107 0.191 0.187 0.334 0.244 0.426 9.041 14.723-10.031 15.877-10.031 15.877l-36.474 0.498c0 0-7.826 1.521-18.137-5.427-5.401-3.637-10.678-9.577-15.707-15.233-7.677-8.641-14.768-16.622-20.822-14.736-10.163 3.173-9.856 24.661-9.856 24.661s0.080 4.601-2.23 7.040z"></path>
    </symbol>
    <symbol version="1.1" xmlns="http://www.w3.org/2000/svg" viewBox="0 0 364 512" id="pin">
        <path d="M181.678 243.2c-17.209 0-33.712-6.744-45.88-18.746s-19.005-28.28-19.005-45.254c0-16.974 6.836-33.252 19.005-45.255s28.672-18.745 45.88-18.745c17.208 0 33.713 6.743 45.88 18.745 12.169 12.002 19.005 28.281 19.005 45.255 0 8.405-1.678 16.727-4.94 24.492-3.261 7.764-8.040 14.82-14.065 20.762-6.025 5.944-13.178 10.658-21.050 13.874-7.871 3.218-16.31 4.873-24.831 4.873zM181.678 0c-48.184 0-94.394 18.88-128.465 52.486s-53.212 79.186-53.212 126.713c0 134.4 181.678 332.8 181.678 332.8s181.678-198.4 181.678-332.8c0-47.527-19.14-93.107-53.212-126.713s-80.281-52.486-128.466-52.486z"></path>
    </symbol>
    <symbol version="1.1" xmlns="http://www.w3.org/2000/svg" viewBox="0 0 493 512" id="phone">
        <path d="M99.155 221.582c39.443 80.498 102.99 146.489 180.506 187.449l60.26-62.578c7.668-7.964 18.351-10.24 27.938-7.111 30.678 10.524 63.547 16.214 97.786 16.214 7.263 0 14.23 2.996 19.367 8.33s8.023 12.57 8.023 20.114v99.555c0 7.543-2.886 14.779-8.023 20.114s-12.104 8.33-19.367 8.33c-123.498 0-241.937-50.946-329.262-141.63s-136.385-213.678-136.385-341.925c0-7.544 2.886-14.779 8.023-20.113s12.104-8.331 19.368-8.331h95.868c7.265 0 14.231 2.997 19.368 8.331s8.023 12.57 8.023 20.113c0 35.556 5.478 69.689 15.613 101.546 3.013 9.956 0.821 21.049-6.847 29.013l-60.26 62.578z"></path>
    </symbol>
    <symbol xmlns="http://www.w3.org/2000/svg" viewBox="0 0 512 512" id="car">
        <path d="M135.2 117.4L109.1 192H402.9l-26.1-74.6C372.3 104.6 360.2 96 346.6 96H165.4c-13.6 0-25.7 8.6-30.2 21.4zM39.6 196.8L74.8 96.3C88.3 57.8 124.6 32 165.4 32H346.6c40.8 0 77.1 25.8 90.6 64.3l35.2 100.5c23.2 9.6 39.6 32.5 39.6 59.2V400v48c0 17.7-14.3 32-32 32H448c-17.7 0-32-14.3-32-32V400H96v48c0 17.7-14.3 32-32 32H32c-17.7 0-32-14.3-32-32V400 256c0-26.7 16.4-49.6 39.6-59.2zM128 288a32 32 0 1 0 -64 0 32 32 0 1 0 64 0zm288 32a32 32 0 1 0 0-64 32 32 0 1 0 0 64z"></path>
    </symbol>
    <symbol xmlns="http://www.w3.org/2000/svg" viewBox="0 0 320 512" id="walking">
        <path d="M160 48a48 48 0 1 1 96 0 48 48 0 1 1 -96 0zM126.5 199.3c-1 .4-1.9 .8-2.9 1.2l-8 3.5c-16.4 7.3-29 21.2-34.7 38.2l-2.6 7.8c-5.6 16.8-23.7 25.8-40.5 20.2s-25.8-23.7-20.2-40.5l2.6-7.8c11.4-34.1 36.6-61.9 69.4-76.5l8-3.5c20.8-9.2 43.3-14 66.1-14c44.6 0 84.8 26.8 101.9 67.9L281 232.7l21.4 10.7c15.8 7.9 22.2 27.1 14.3 42.9s-27.1 22.2-42.9 14.3L247 287.3c-10.3-5.2-18.4-13.8-22.8-24.5l-9.6-23-19.3 65.5 49.5 54c5.4 5.9 9.2 13 11.2 20.8l23 92.1c4.3 17.1-6.1 34.5-23.3 38.8s-34.5-6.1-38.8-23.3l-22-88.1-70.7-77.1c-14.8-16.1-20.3-38.6-14.7-59.7l16.9-63.5zM68.7 398l25-62.4c2.1 3 4.5 5.8 7 8.6l40.7 44.4-14.5 36.2c-2.4 6-6 11.5-10.6 16.1L54.6 502.6c-12.5 12.5-32.8 12.5-45.3 0s-12.5-32.8 0-45.3L68.7 398z"></path>
    </symbol>
    <symbol version="1.1" xmlns="http://www.w3.org/2000/svg" viewBox="0 0 512 512" id="arrow">
        <path d="M506.88 221.44v64h-384l176 176-45.44 45.44-253.44-253.44 253.44-253.44 45.44 45.44-176 176h384z"></path>
    </symbol>
    <symbol version="1.1" xmlns="http://www.w3.org/2000/svg" viewBox="0 0 512 512" id="calendar">
        <path  d="M160 256h-64v-64h64v64zM288 192h-64v64h64v-64zM416 192h-64v64h64v-64zM160 288h-64v64h64v-64zM288 288h-64v64h64v-64zM416 288h-64v64h64v-64zM160 384h-64v64h64v-64zM288 384h-64v64h64v-64zM128 96c17.672 0 32-14.313 32-32v-32c0-17.688-14.328-32-32-32s-32 14.313-32 32v32c0 17.688 14.328 32 32 32zM512 64v448h-512v-448h80c0 26.469 21.531 48 48 48s48-21.531 48-48h160.001c0 26.469 21.531 48 47.999 48s47.999-21.531 47.999-48h80.001zM480 160h-448v320h448v-320zM384 96c17.688 0 32-14.313 32-32v-32c0-17.688-14.312-32-32-32s-32 14.313-32 32v32c0 17.688 14.312 32 32 32z"></path>
    </symbol>
    <symbol version="1.1" xmlns="http://www.w3.org/2000/svg" viewBox="0 0 490 512" id="globe">
        <path  d="M157.606 362.663c15.422 57.208 45.61 108.874 87.255 149.332 41.645-40.459 71.834-92.125 87.256-149.332h-174.511z"></path>
        <path  d="M142.834 256c0.107 21.459 1.957 42.868 5.53 64h192.997c3.573-21.132 5.425-42.541 5.529-64-0.104-21.459-1.957-42.869-5.529-64h-192.998c-3.573 21.131-5.423 42.541-5.53 64z"></path>
        <path  d="M481.699 192h-99.234c3.315 21.161 5.069 42.559 5.245 64-0.176 21.442-1.93 42.839-5.245 64h99.235c10.719-41.93 10.719-86.070 0-128z"></path>
        <path  d="M467.287 149.333c-15.162-34.41-37.427-64.883-65.195-89.228-27.766-24.344-60.347-41.958-95.399-51.572 31.502 41.553 54.392 89.502 67.216 140.8h93.377z"></path>
        <path  d="M102.029 256c0.177-21.441 1.93-42.839 5.245-64h-99.234c-10.72 41.93-10.72 86.070 0 128h99.234c-3.314-21.161-5.068-42.558-5.245-64z"></path>
        <path  d="M22.441 362.663c15.163 34.411 37.427 64.884 65.194 89.228s60.347 41.957 95.399 51.572c-31.501-41.552-54.392-89.502-67.216-140.8h-93.377z"></path>
        <path  d="M306.692 503.463c35.052-9.615 67.633-27.228 95.399-51.572 27.768-24.344 50.034-54.817 65.195-89.228h-93.377c-12.825 51.298-35.716 99.248-67.216 140.8z"></path>
        <path  d="M332.116 149.333c-15.423-57.208-45.611-108.873-87.256-149.333-41.644 40.461-71.833 92.126-87.254 149.333h174.51z"></path>
        <path  d="M183.034 8.533c-35.053 9.615-67.632 27.228-95.4 51.572s-50.032 54.817-65.194 89.228h93.377c12.825-51.298 35.715-99.247 67.217-140.8z"></path>
    </symbol>
</svg>