<svg width="0" height="0" class="hidden">
    <symbol version="1.1" xmlns="http://www.w3.org/2000/svg" viewBox="0 0 542 512" id="home">
        <path d="M492.833 460.8h49.285v51.2h-542.117v-51.2h49.283v-435.2c0-6.79 2.596-13.301 7.218-18.102s10.889-7.498 17.425-7.498h394.269c6.536 0 12.803 2.697 17.423 7.498s7.216 11.313 7.216 18.102v435.2zM443.551 460.8v-409.6h-344.985v409.6h344.985zM172.492 230.4h73.925v51.2h-73.925v-51.2zM172.492 128h73.925v51.2h-73.925v-51.2zM172.492 332.8h73.925v51.2h-73.925v-51.2zM295.7 332.8h73.925v51.2h-73.924v-51.2zM295.7 230.4h73.925v51.2h-73.924v-51.2zM295.7 128h73.925v51.2h-73.924v-51.2z"></path>
    </symbol>
    <symbol xmlns="http://www.w3.org/2000/svg" viewBox="0 0 512 512" id="print">
        <path d="M128 0C92.7 0 64 28.7 64 64v96h64V64H354.7L384 93.3V160h64V93.3c0-17-6.7-33.3-18.7-45.3L400 18.7C388 6.7 371.7 0 354.7 0H128zM384 352v32 64H128V384 368 352H384zm64 32h32c17.7 0 32-14.3 32-32V256c0-35.3-28.7-64-64-64H64c-35.3 0-64 28.7-64 64v96c0 17.7 14.3 32 32 32H64v64c0 35.3 28.7 64 64 64H384c35.3 0 64-28.7 64-64V384zM432 248a24 24 0 1 1 0 48 24 24 0 1 1 0-48z"></path>
    </symbol>
    <symbol version="1.1" xmlns="http://www.w3.org/2000/svg" viewBox="0 0 512 512" id="mail">
        <path d="M256 512c141.385 0 256-114.615 256-256s-114.615-256-256-256c-141.385 0-256 114.615-256 256s114.615 256 256 256zM259.567 241.632c-20 0-123.034-58.428-123.034-58.428v-9.124c0-11.304 9.175-20.48 20.5-20.48h205.067c11.337 0 20.51 9.175 20.51 20.48l-0.163 10.24c0 0-101.919 57.313-122.88 57.313zM136.697 215.040c-0.010 0 102.87 54.753 122.87 54.753 21.923 0 122.88-54.752 122.88-54.752l0.163 122.88c0 11.305-9.174 20.48-20.51 20.48h-205.066c-11.315 0-20.5-9.175-20.5-20.48l0.164-122.88z"></path>
    </symbol>
    <symbol version="1.1" xmlns="http://www.w3.org/2000/svg" viewBox="0 0 512 512" id="telegram">
        <path d="M0 256c0 141.385 114.615 256 256 256s256-114.615 256-256c0-141.385-114.615-256-256-256s-256 114.615-256 256zM209.066 373.334l4.357-65.256-0.005-0.003 118.709-107.125c5.211-4.625-1.137-6.879-8.053-2.685l-146.503 92.427-63.281-19.751c-13.666-4.183-13.764-13.574 3.068-20.327l246.593-95.084c11.262-5.113 22.132 2.704 17.832 19.942l-41.995 197.896c-2.932 14.062-11.43 17.426-23.202 10.93l-63.97-47.262-30.75 29.899c-0.096 0.094-0.193 0.188-0.289 0.281-3.44 3.348-6.284 6.118-12.511 6.118z"></path>
    </symbol>
    <symbol version="1.1" xmlns="http://www.w3.org/2000/svg" viewBox="0 0 512 512" id="vk">
        <path d="M256 0c-141.385 0-256 114.615-256 256s114.615 256 256 256c141.385 0 256-114.615 256-256s-114.615-256-256-256zM276.844 336.813c-2.524 2.661-7.452 3.199-7.452 3.199h-16.321c0 0-36.007 2.123-67.727-30.284-34.591-35.358-65.135-105.51-65.135-105.51s-1.763-4.602 0.147-6.817c2.15-2.505 8.013-2.661 8.013-2.661l39.011-0.249c0 0 3.673 0.589 6.303 2.49 2.178 1.572 3.393 4.496 3.393 4.496s6.304 15.652 14.652 29.812c16.307 27.648 23.893 33.692 29.422 30.729 8.067-4.313 5.65-39.081 5.65-39.081s0.146-12.612-4.061-18.236c-3.258-4.352-9.401-5.623-12.113-5.977-2.203-0.289 1.402-5.298 6.077-7.538 7.025-3.37 19.418-3.566 34.069-3.423 11.419 0.119 14.705 0.813 19.166 1.875 10.353 2.453 10.031 10.313 9.334 27.273-0.209 5.073-0.452 10.96-0.452 17.761 0 1.529-0.045 3.156-0.092 4.833-0.243 8.689-0.519 18.64 5.315 22.345 2.992 1.889 10.297 0.276 28.582-30.193 8.668-14.446 15.158-31.423 15.158-31.423s1.429-3.029 3.634-4.327c2.256-1.325 5.302-0.918 5.302-0.918l41.055-0.249c0 0 12.341-1.454 14.33 4.025 2.098 5.728-4.606 19.126-21.382 41.073-15.913 20.824-23.656 28.49-22.945 35.271 0.519 4.954 5.553 9.436 15.212 18.23 20.164 18.378 25.568 28.046 26.868 30.369 0.107 0.191 0.187 0.334 0.244 0.426 9.041 14.723-10.031 15.877-10.031 15.877l-36.474 0.498c0 0-7.826 1.521-18.137-5.427-5.401-3.637-10.678-9.577-15.707-15.233-7.677-8.641-14.768-16.622-20.822-14.736-10.163 3.173-9.856 24.661-9.856 24.661s0.080 4.601-2.23 7.040z"></path>
    </symbol>
    <symbol version="1.1" xmlns="http://www.w3.org/2000/svg" viewBox="0 0 364 512" id="pin">
        <path d="M181.678 243.2c-17.209 0-33.712-6.744-45.88-18.746s-19.005-28.28-19.005-45.254c0-16.974 6.836-33.252 19.005-45.255s28.672-18.745 45.88-18.745c17.208 0 33.713 6.743 45.88 18.745 12.169 12.002 19.005 28.281 19.005 45.255 0 8.405-1.678 16.727-4.94 24.492-3.261 7.764-8.040 14.82-14.065 20.762-6.025 5.944-13.178 10.658-21.050 13.874-7.871 3.218-16.31 4.873-24.831 4.873zM181.678 0c-48.184 0-94.394 18.88-128.465 52.486s-53.212 79.186-53.212 126.713c0 134.4 181.678 332.8 181.678 332.8s181.678-198.4 181.678-332.8c0-47.527-19.14-93.107-53.212-126.713s-80.281-52.486-128.466-52.486z"></path>
    </symbol>

</svg>