<svg width="464" height="270" viewBox="0 0 464 270" fill="none" xmlns="http://www.w3.org/2000/svg">
<g opacity="0.85">
<g clip-path="url(#clip0_74_2400)">
<path d="M295.568 74.4567C295.568 74.4567 302.85 53.0443 318.276 42.5845C333.7 32.1248 346.816 31.5363 346.245 36.6241C345.675 41.712 323.681 45.3311 313.268 54.8744C302.855 64.4178 295.57 74.4567 295.57 74.4567H295.568Z" fill="#E9E9E9"/>
<path d="M297.111 81.0655C297.111 81.0655 303.758 65.9644 315.63 59.3381C327.502 52.7117 337.071 53.1144 336.332 56.7748C335.597 60.4351 319.383 61.6742 311.211 67.9521C303.038 74.23 297.109 81.0629 297.109 81.0629L297.111 81.0655Z" fill="#E9E9E9"/>
<path d="M363.585 80.4974C362.992 70.1177 345.776 69.7021 345.776 69.7021C345.776 69.7021 330.913 84.5192 327.552 84.2404C324.194 83.9616 337.787 69.0903 337.787 69.0903C331.574 67.1439 313.78 71.5194 313.78 71.5194C313.78 71.5194 310.587 91.7831 307.402 90.6835C304.214 89.5864 311.145 72.8849 311.145 72.8849C304.622 73.4348 297.386 79.39 297.386 79.39C287.776 89.5451 301.31 101.363 301.31 101.363C301.31 101.363 300.053 108.361 294.079 115.436C294.079 115.436 292.799 116.706 291.289 119.001L292.962 119.352C293.194 118.931 293.434 118.531 293.69 118.149C293.69 118.147 293.69 118.144 293.695 118.142C293.697 118.136 293.702 118.131 293.705 118.126C293.873 117.891 294.115 117.558 294.415 117.153C295.135 116.26 295.636 115.594 295.969 115.106C295.969 115.106 295.969 115.103 295.971 115.101C298.163 112.282 301.23 108.652 302.882 108.105C302.882 108.105 302.75 107.806 302.686 107.264C302.748 107.532 302.815 107.813 302.882 108.105C304.456 114.845 318.561 118.877 326.883 118.919C335.206 118.96 332.201 115.978 328.672 111.422C325.144 106.866 315.941 105.937 313.582 103.947C311.222 101.956 315.412 101.342 320.644 102.868C325.877 104.396 327.418 110.274 335.838 112.899C344.259 115.524 354.202 100.741 354.202 100.741C347.883 101.334 337.934 95.8256 337.955 93.6934C337.976 91.5611 353.686 95.0796 356.267 94.9815C358.851 94.8834 364.179 90.8771 363.585 80.5V80.4974Z" fill="#E9E9E9"/>
<path d="M158.027 126.998C158.027 126.998 133.984 104.889 107.192 102.294C80.4023 99.7027 63.3678 108.028 67.609 114.081C71.8502 120.134 102.238 109.515 122.042 114.411C141.847 119.308 158.027 126.998 158.027 126.998Z" fill="#E9E9E9"/>
<path d="M160.641 136.444C160.641 136.444 141.769 121.895 122.135 121.707C102.501 121.518 90.6471 128.646 94.1139 132.778C97.5807 136.911 118.993 127.267 133.694 129.575C148.398 131.88 160.644 136.444 160.644 136.444H160.641Z" fill="#E9E9E9"/>
<path d="M97.5617 160.608C94.1956 152.766 106.692 146.155 106.692 146.155C106.692 146.155 123.04 151.596 125.404 150.158C127.769 148.723 112.335 142.778 112.335 142.778C116.186 139.071 130.861 135.767 130.861 135.767C130.861 135.767 140.629 149.482 142.568 147.51C144.507 145.535 133.298 135.806 133.298 135.806C138.293 133.821 145.787 135.545 145.787 135.545C156.567 139.484 150.952 153.124 150.952 153.124C150.952 153.124 154.44 157.804 161.42 160.814C161.42 160.814 162.824 161.279 164.775 162.412L163.676 163.285C163.353 163.06 163.028 162.854 162.7 162.668C162.7 162.668 162.697 162.665 162.695 162.665C162.69 162.662 162.685 162.66 162.679 162.657C162.47 162.546 162.168 162.391 161.802 162.203C160.945 161.811 160.333 161.506 159.91 161.269H159.907C157.264 160.001 153.681 158.457 152.266 158.661C152.266 158.661 152.253 158.393 152.101 157.97C152.153 158.189 152.207 158.419 152.266 158.661C153.58 164.188 144.695 172.319 138.598 175.396C132.498 178.476 133.613 175.185 134.537 170.546C135.461 165.907 141.881 161.852 142.883 159.526C143.887 157.2 140.585 158.282 137.299 161.32C134.016 164.358 135.035 169.242 129.813 174.255C124.589 179.268 111.868 172.051 111.868 172.051C116.728 170.172 122.018 162.479 121.223 160.923C120.425 159.364 110.174 167.701 108.241 168.576C106.307 169.452 100.925 168.46 97.5591 160.618L97.5617 160.608Z" fill="#E9E9E9"/>
<path d="M239.547 51.6037C239.547 51.6037 253.561 41.2653 278.874 55.3544C278.874 55.3544 291.972 60.3339 294.974 73.0833C295.766 76.4545 297.264 79.6245 299.45 82.3297C302.099 85.6081 305.238 90.9205 305.834 98.1561C306.149 101.987 307.285 105.709 309.161 109.08C311.353 113.017 313.632 119.476 312.796 128.606C312.796 128.606 320.896 137.344 316.34 156.813C316.34 156.813 320.049 169.02 311.678 180.027C311.678 180.027 313.764 194.072 301.657 198.781C301.657 198.781 295.268 213.389 276.244 214.274C273.487 214.403 270.781 215.028 268.226 216.055C264.604 217.508 258.099 218.928 248.752 216.471C233.563 212.477 235.089 203.259 235.089 203.259V53.8443L239.549 51.6037H239.547Z" fill="#2BAB95"/>
<path d="M231.379 51.6037C231.379 51.6037 217.365 41.2653 192.052 55.3544C192.052 55.3544 178.33 60.5714 175.758 73.9971C175.216 76.8288 173.91 79.4722 172.023 81.6741C169.119 85.0608 165.317 91.0703 165.012 99.5294C164.904 102.532 163.993 105.443 162.4 108.004C160.402 111.215 158.061 116.597 157.957 124.274C157.924 126.866 157.289 129.417 156.125 131.74C154.075 135.824 151.587 143.988 154.589 156.81C154.589 156.81 151.708 166.291 156.754 176.077C158.102 178.69 158.946 181.529 159.204 184.449C159.54 188.241 160.959 193.615 165.931 197.028C168.102 198.517 169.984 200.381 171.548 202.485C174.721 206.749 181.492 213.288 193.601 214.204C196.926 214.457 200.199 215.146 203.325 216.29C207.047 217.65 213.343 218.789 222.177 216.466C237.366 212.472 235.84 203.254 235.84 203.254V53.8443L231.379 51.6037Z" fill="#2BAB95"/>
<path d="M222.768 150.83C216.005 150.006 210.574 146.145 206.63 139.356C206.614 139.327 206.599 139.301 206.583 139.276C204.724 136.054 205.785 131.973 208.942 129.959C209.577 129.554 210.122 129.105 210.486 128.627C210.486 128.627 203.666 129.613 195.424 126.227C190.591 124.239 187.318 120.101 187.318 120.101C187.409 120.233 187.765 124.624 191.794 128.294C192.964 129.36 195.703 130.731 197.67 131.165C199.706 131.614 200.571 133.633 201.325 135.553C201.955 137.161 202.781 138.971 203.844 140.814C205.62 143.888 207.719 146.459 210.101 148.494C205.532 150.533 202.967 153.692 201.578 156.145C199.835 159.224 199.523 161.881 199.51 161.992C199.51 161.992 201.206 158.716 204.794 155.523C207.964 152.701 212.151 151.287 216.418 151.472C219.402 151.602 222.771 150.825 222.771 150.825L222.768 150.83Z" fill="#3E7068"/>
<path d="M193.965 170.899C193.614 170.899 193.266 170.888 192.912 170.868C188.168 170.592 184.11 168.379 181.175 164.476C176.606 158.4 177.646 152.87 179.324 149.303C179.344 149.262 179.362 149.22 179.383 149.179C180.08 147.731 180.467 150.441 180.385 152.039C180.207 155.47 182.909 160.767 186.273 163.637C190.168 166.96 196.474 166.885 201.283 167.045C203.083 167.104 204.603 167.223 202.997 168.299C200.697 169.84 197.166 170.896 193.968 170.896L193.965 170.899Z" fill="#3E7068"/>
<path d="M184.218 189.059C182.576 189.926 180.529 189.384 179.553 187.82C173.802 178.589 166.097 171.893 165.999 171.849C166.481 172.068 177.873 177.378 184.218 189.059Z" fill="#3E7068"/>
<path d="M168.526 142.143C169.894 139.541 173.482 138.571 176.265 138.217C179.577 137.796 184.218 138.38 184.218 138.38C183.782 138.328 176.925 131.996 169.15 136.926C168.663 132.251 162.909 130.207 162.909 130.207C162.919 130.22 163.859 131.49 164.661 133.33C165.389 135.001 166.148 137.497 165.64 139.9C165.162 142.151 163.616 144.028 161.042 145.478C161.042 145.478 166.497 146.547 168.526 142.143Z" fill="#3E7068"/>
<path d="M208.625 116.236C211.444 115.402 214.642 117.299 216.836 119.05C219.449 121.133 222.265 124.863 222.265 124.863C221.997 124.514 221.759 115.183 212.802 113.048C215.814 109.439 213.266 103.889 213.266 103.889C213.266 103.905 213.011 105.464 212.249 107.322C211.557 109.008 210.3 111.293 208.222 112.604C206.276 113.83 203.852 114.031 201.02 113.198C201.02 113.198 204.056 117.852 208.628 116.236H208.625Z" fill="#3E7068"/>
<path d="M202.912 90.9906C202.623 88.0634 205.091 85.2832 207.221 83.4582C209.758 81.2847 213.953 79.2222 213.953 79.2222C213.56 79.4209 204.35 77.8979 200.566 86.29C197.587 82.6528 191.66 84.1087 191.66 84.1087C191.675 84.1139 193.16 84.656 194.84 85.7556C196.366 86.752 198.372 88.4196 199.267 90.7067C200.106 92.8492 199.846 95.2654 198.493 97.8932C198.493 97.8932 203.635 95.7868 202.91 90.9932L202.912 90.9906Z" fill="#3E7068"/>
<path d="M250.316 144.531C257.642 143.638 263.525 139.456 267.799 132.099C267.817 132.071 267.833 132.04 267.851 132.011C269.864 128.521 268.713 124.099 265.295 121.921C264.606 121.482 264.018 120.997 263.623 120.478C263.623 120.478 271.011 121.546 279.94 117.878C285.175 115.725 288.721 111.244 288.721 111.244C288.623 111.386 288.239 116.144 283.871 120.121C282.603 121.275 279.637 122.762 277.505 123.229C275.298 123.715 274.361 125.904 273.548 127.984C272.867 129.727 271.973 131.686 270.82 133.684C268.896 137.014 266.622 139.799 264.041 142.004C268.989 144.211 271.769 147.636 273.274 150.295C275.161 153.633 275.5 156.508 275.512 156.63C275.512 156.63 273.677 153.08 269.79 149.621C266.354 146.565 261.821 145.032 257.198 145.233C253.966 145.372 250.316 144.531 250.316 144.531Z" fill="#3E7068"/>
<path d="M276.834 170.899C277.185 170.899 277.533 170.888 277.884 170.868C282.629 170.592 286.687 168.379 289.622 164.476C294.191 158.4 293.15 152.87 291.473 149.303C291.452 149.262 291.434 149.22 291.413 149.179C290.716 147.731 290.329 150.441 290.412 152.039C290.59 155.47 287.887 160.767 284.524 163.637C280.628 166.96 274.322 166.885 269.513 167.045C267.711 167.104 266.193 167.223 267.799 168.299C270.099 169.84 273.63 170.896 276.828 170.896L276.834 170.899Z" fill="#3E7068"/>
<path d="M255.411 113.641C255.667 113.551 255.92 113.455 256.17 113.35C259.562 111.932 261.945 109.281 263.06 105.68C264.797 100.074 262.582 96.3023 260.419 94.1287C260.393 94.1029 260.37 94.0797 260.344 94.0539C259.456 93.1736 259.885 95.2517 260.365 96.4004C261.397 98.8604 260.817 103.419 259.115 106.375C257.146 109.798 252.52 111.357 249.051 112.704C247.752 113.208 246.673 113.685 248.129 114.06C250.212 114.596 253.07 114.462 255.406 113.644L255.411 113.641Z" fill="#3E7068"/>
<path d="M279.341 188.29C280.616 189.629 282.731 189.761 284.163 188.584C292.604 181.65 302.078 177.737 302.184 177.724C301.655 177.781 289.14 179.221 279.341 188.287V188.29Z" fill="#3E7068"/>
<path d="M282.817 93.551C281.449 90.949 277.861 89.9784 275.075 89.6247C271.763 89.204 267.122 89.7874 267.122 89.7874C267.558 89.7357 274.415 83.4036 282.19 88.3341C282.678 83.6592 288.431 81.6147 288.431 81.6147C288.421 81.6277 287.481 82.8977 286.679 84.7382C285.951 86.4083 285.192 88.9045 285.7 91.3078C286.178 93.5588 287.724 95.4354 290.298 96.8861C290.298 96.8861 284.843 97.9548 282.814 93.551H282.817Z" fill="#3E7068"/>
<path d="M302.273 142.142C300.905 139.54 297.317 138.57 294.534 138.216C291.222 137.795 286.581 138.379 286.581 138.379C287.017 138.327 293.873 131.995 301.649 136.925C302.136 132.25 307.89 130.206 307.89 130.206C307.88 130.219 306.94 131.489 306.138 133.33C305.41 135 304.651 137.496 305.159 139.899C305.637 142.15 307.183 144.027 309.757 145.477C309.757 145.477 304.302 146.546 302.273 142.142Z" fill="#3E7068"/>
<path d="M234.097 53.8311L233.75 206.558L237.168 206.565L237.514 53.8389L234.097 53.8311Z" fill="#3E7068"/>
<path d="M349.419 149.318C349.419 149.318 348.885 148.115 348.536 147.545C348.191 146.975 346.709 145.304 346.456 145.681C346.203 146.061 345.196 148.606 345.731 149.318C346.267 150.031 345.697 151.273 348.361 152.024L349.417 149.318H349.419Z" fill="#EE805F"/>
<path d="M379.035 141.714C379.035 141.714 365.392 153.1 360.075 152.047C355.916 151.224 349.532 149.035 349.532 149.035L348.257 152.3C348.257 152.3 353.983 160.065 359.951 160.116C369.28 160.196 376.172 156.077 376.172 156.077L379.038 141.714H379.035Z" fill="#3E7068"/>
<path d="M402.959 261.825C402.959 261.825 402.564 268.214 401.327 268.305C401.162 268.317 395.06 268.317 395.06 268.317L387.267 268.271C387.267 268.271 387.318 266.394 389.595 265.997C391.872 265.599 395.685 263.999 397.066 260.989C398.516 257.822 402.959 261.825 402.959 261.825Z" fill="#3E7068"/>
<path d="M403.409 262.27C403.409 262.27 401.039 263.062 399.191 263.062C397.128 263.062 395.251 262.5 395.251 262.5C395.251 262.5 394.805 258.186 392.353 248.684C391.067 243.705 389.229 237.3 386.614 229.342C379.386 207.349 377.187 194.483 376.988 193.265C376.978 193.2 376.973 193.169 376.973 193.169L376.996 193.159L399.216 183.401C399.216 183.401 396.47 213.712 399.975 225.346C400.466 226.972 400.887 228.867 401.248 230.919C403.46 243.558 403.409 262.267 403.409 262.267V262.27Z" fill="#384152"/>
<path d="M392.353 248.684C391.067 243.705 389.229 237.3 386.614 229.342C379.386 207.349 377.187 194.483 376.988 193.265C376.988 193.229 376.994 193.195 376.996 193.159L399.217 183.401C399.217 183.401 396.47 213.712 399.975 225.346C400.466 226.972 392.353 248.684 392.353 248.684Z" fill="#151F2C"/>
<path d="M385.602 261.825C385.602 261.825 385.207 268.214 383.971 268.305C383.805 268.317 377.703 268.317 377.703 268.317L369.91 268.271C369.91 268.271 369.962 266.394 372.238 265.997C374.515 265.599 378.328 263.999 379.709 260.989C381.16 257.822 385.602 261.825 385.602 261.825Z" fill="#3E7068"/>
<path d="M373.005 184.116C373.005 184.116 372.716 203.757 376.115 227.875C379.513 251.993 378.361 262.228 378.361 262.228C378.361 262.228 380.695 262.984 381.637 263.062C384.038 263.258 386.5 262.499 386.5 262.499C386.5 262.499 391.364 238.374 389.97 226.303C388.576 214.233 396.63 184.882 396.63 184.882L373.002 184.116H373.005Z" fill="#384152"/>
<path d="M388.912 136.677L385.879 140.588L379.513 140.934C379.477 140.423 379.384 138.286 379.302 136.352C379.296 136.239 379.294 136.122 379.289 136.011C379.222 134.364 379.193 132.56 379.193 132.56L384.242 129.057L386.134 127.606C386.134 127.64 386.431 129.385 386.431 129.643C386.455 134.667 388.912 136.677 388.912 136.677Z" fill="#EE805F"/>
<path d="M371.709 184.964C371.799 195.331 372.488 219.585 372.997 220.078C378.397 225.29 402.148 218.648 403.408 212.907C404.665 207.164 398.622 139.276 389.399 136.566C387.486 136.003 377.253 139.312 377.253 139.312C377.253 139.312 375.65 143.51 374.597 148.858C374.207 150.841 372.935 164.979 372.191 174.429C371.995 176.949 371.835 179.133 371.74 180.666C371.701 181.298 371.693 182.842 371.711 184.967L371.709 184.964Z" fill="#2BAB95"/>
<path d="M386.023 129.827C385.288 132.246 381.08 135.209 379.301 136.353C379.296 136.239 379.294 136.123 379.288 136.012C379.221 134.365 379.162 131.038 379.162 131.038L384.24 129.058C385.491 128.735 386.325 128.83 386.023 129.827Z" fill="#DB7F14"/>
<path d="M377.497 131.631C377.497 131.631 386.927 134.571 388.667 128.673C390.409 122.772 392.797 119.179 386.852 117.052C380.904 114.924 379.067 116.83 378.006 118.657C376.945 120.485 375.089 130.715 377.497 131.634V131.631Z" fill="#EE805F"/>
<path d="M378.375 118.086C378.375 118.086 378.976 124.953 380.396 124.653C381.816 124.357 383.69 124.308 383.481 126.375C383.274 128.446 385.231 131.956 386.534 131.948C390.925 131.92 395.76 120.11 394.56 117.973C391.091 111.809 373.362 110.564 378.375 118.084V118.086Z" fill="#151F2C"/>
<path d="M379.764 136.717C379.885 136.665 386.782 133.57 387.59 133.838C388.398 134.104 389.402 136.569 389.402 136.569L377.257 139.316C377.257 139.316 378.212 137.372 379.764 136.719V136.717Z" fill="#3E7068"/>
<path d="M335.077 171.448L370.54 209.11C371.224 209.838 372.406 209.851 373.162 209.136L375.576 206.867C376.335 206.155 376.394 204.975 375.708 204.247L340.175 166.515C339.491 165.787 338.895 166.36 338.136 167.073L335.722 169.342C334.963 170.054 334.388 170.718 335.074 171.448H335.077Z" fill="#3E7068"/>
<path d="M354.521 192.082L370.489 209.054C371.202 209.813 372.407 209.85 373.163 209.137L375.577 206.868C376.336 206.156 376.372 204.95 375.66 204.194L359.691 187.221L354.521 192.085V192.082Z" fill="#151F2C"/>
<path d="M294.64 168.31C306.109 180.499 325.288 181.085 337.48 169.616C341.471 165.86 344.22 161.281 345.704 156.386C348.761 146.337 346.499 134.974 338.784 126.775C327.315 114.586 308.135 114.003 295.946 125.469C295.786 125.622 295.626 125.774 295.471 125.929C283.741 137.444 283.32 156.278 294.637 168.307L294.64 168.31ZM297.239 126.845C301.447 122.888 306.542 120.461 311.842 119.545C320.933 117.97 330.614 120.851 337.41 128.071C348.167 139.504 347.617 157.489 336.187 168.243C328.964 175.039 319.121 177.321 310.143 175.197C304.913 173.955 299.975 171.224 296.015 167.016C285.261 155.586 285.809 137.599 297.239 126.845Z" fill="#151F2C"/>
<g opacity="0.3">
<path d="M296.015 167.015C299.972 171.223 304.91 173.956 310.143 175.195C319.123 177.32 328.963 175.038 336.186 168.241C341.452 163.288 344.408 156.803 345.012 150.128C345.724 142.311 343.213 134.237 337.407 128.07C330.613 120.847 320.93 117.969 311.839 119.544C310.272 119.815 308.723 120.217 307.205 120.752C303.604 122.03 300.199 124.056 297.236 126.844C285.805 137.6 285.258 155.582 296.012 167.015H296.015Z" fill="#D5EEEA"/>
</g>
<path d="M371.709 184.965C394.244 169.703 392.409 148.714 392.409 148.714C383.617 153.676 374.899 165.416 372.191 174.43C371.995 176.949 371.835 179.133 371.74 180.667C371.701 181.299 371.693 182.843 371.711 184.967L371.709 184.965Z" fill="#3E7068"/>
<path d="M351.845 177.24C350.342 176.894 349.333 175.758 349.124 175.56C349.124 175.56 348.484 175.603 349.23 176.969C349.292 177.083 349.431 177.377 349.534 177.586C349.576 177.671 349.519 177.769 349.423 177.777C348.556 177.844 347.686 177.501 346.013 177.849C345.784 177.898 345.717 178.448 345.724 178.686C345.74 179.083 345.711 179.53 346.173 180.142C346.442 180.498 347.193 180.88 348.866 181.551C349.503 181.806 351.323 181.613 353.032 181.027L354.395 180.394L353.972 177.86L353.628 177.932C353.084 178.045 352.41 177.382 351.842 177.243L351.845 177.24Z" fill="#EE805F"/>
<path d="M385.795 139.312C385.795 139.312 404.939 142.957 380.163 170.678C376.2 175.113 354.793 180.885 354.793 180.885C354.793 180.885 352.622 179.037 353.717 177.542C353.717 177.542 368.456 166.84 371.701 165.136C373.16 164.37 377.365 148.053 379.742 144.121C382.12 140.19 385.798 139.31 385.798 139.31L385.795 139.312Z" fill="#2BAB95"/>
<path d="M348.901 149.654C348.901 149.654 348.274 148.456 348.152 147.827C348.031 147.197 347.241 145.354 346.916 145.031C346.787 144.902 346.358 145.07 346.307 145.627C346.283 145.87 346.405 146.311 346.614 146.838C346.957 147.695 346.9 148.857 347.019 149.244C347.316 150.209 348.901 149.654 348.901 149.654Z" fill="#EE805F"/>
<path d="M243.241 177.098C241.953 172.957 236.346 172.183 234.09 175.885C233.685 176.551 233.427 177.315 233.406 178.192C233.282 183.045 242.854 201.833 244.124 203.492C246.437 206.518 260.4 213.792 260.4 213.792L263.366 213.361C263.366 213.361 261.688 212.308 259.95 210.573C256.362 206.993 251.135 201.169 250.175 200.364C248.53 198.98 245.686 184.958 243.239 177.098H243.241Z" fill="#DB7F14"/>
<path d="M247.293 153.353C247.371 153.041 240.52 156.448 240.174 156.835C236.96 160.398 237.876 165.049 239.714 165.093C240.894 165.122 240.664 167.081 240.664 167.081L253.798 161.526C253.798 161.526 252.216 152.305 247.293 153.353Z" fill="#151F2C"/>
<path d="M248.913 154.073C248.913 154.073 244.524 149.548 239.751 153.092C235.613 156.164 239.204 161.009 234.018 162.7C231.432 163.541 227.216 165.395 228.793 172.798C229.854 177.783 245.552 182.971 244.63 187.161C244.63 187.161 249.971 178.805 246.042 174.716C244.173 172.77 241.811 167.876 242.02 167.083C242.23 166.291 248.913 154.073 248.913 154.073Z" fill="#151F2C"/>
<path d="M232.854 264.703L230.012 264.285C230.012 264.285 220.456 256.69 219.033 242.521C218.889 241.078 218.858 239.615 218.966 238.141C218.979 237.97 218.961 237.8 218.868 237.658C218.868 237.658 218.868 237.658 218.865 237.653C218.561 237.183 217.799 236.009 216.767 234.338C215.75 232.694 214.012 229.581 212.1 226.088C208.654 219.8 204.642 212.281 203.266 209.885C198.883 202.252 200.995 197.118 200.995 197.118C200.995 197.118 213.225 195.909 216.578 192.977L217.786 194.838C217.786 194.838 220.438 206.571 220.311 206.625C220.443 207.025 220.574 207.43 220.709 207.843C222.799 214.299 225.205 222.366 226.517 228.938C227.255 232.635 227.645 235.856 227.436 238.05C227.363 238.804 227.451 239.961 227.652 241.388C228.837 249.809 232.859 264.703 232.859 264.703H232.854Z" fill="#384152"/>
<path d="M238.817 268.299H226.961C226.961 268.299 226.677 266.492 227.297 265.121C227.89 263.805 228.737 263.764 227.405 261.701C228.159 262.478 230.58 262.798 232.294 262.569C232.503 262.909 233.649 265.194 234.349 265.697C235.123 266.255 238.58 266.056 238.817 268.299Z" fill="#151F2C"/>
<path d="M220.706 207.843C219.671 213.556 217.224 223.063 212.097 226.088C208.651 219.8 204.639 212.281 203.263 209.885C198.88 202.252 200.992 197.118 200.992 197.118C200.992 197.118 213.222 195.909 216.576 192.977L217.784 194.838C217.784 194.838 220.435 206.571 220.308 206.625C220.44 207.025 220.572 207.43 220.706 207.843Z" fill="#151F2C"/>
<path d="M212.389 198.001L212.43 195.783C208.011 196.341 197.195 190.504 197.195 190.504C197.195 190.504 192.572 193.579 191.939 202.358C191.63 206.643 189.676 224.767 189.461 230.18C189.381 232.142 189.356 233.541 189.348 234.101C189.348 234.104 189.348 234.106 189.348 234.106C189.345 234.277 189.265 234.426 189.159 234.563C188.246 235.725 187.453 236.956 186.764 238.234C180.021 250.779 183.547 267.824 183.547 267.824L185.114 267.427C185.114 267.427 190.817 249.757 194.542 242.114C195.174 240.818 195.75 239.809 196.23 239.225C197.631 237.524 199.108 234.633 200.564 231.156C203.316 224.581 205.987 215.905 207.895 209.188C208.029 209.214 212.392 198.003 212.392 198.003L212.389 198.001Z" fill="#384152"/>
<path d="M245.923 170.295C245.923 170.295 245.923 170.3 245.918 170.305C245.918 170.305 245.913 170.31 245.913 170.313C245.908 170.318 245.905 170.326 245.898 170.333C245.898 170.333 245.898 170.338 245.892 170.341C245.833 170.442 245.67 170.69 245.436 171.035C245.415 171.066 245.392 171.097 245.371 171.134C244.997 171.673 244.455 172.417 243.827 173.155C242.975 174.156 241.964 175.161 240.98 175.659C240.683 175.419 235.268 170.842 235.662 171.01C236.661 170.806 239.741 169.283 241.713 166.797C242.63 165.64 245.923 170.297 245.923 170.297V170.295Z" fill="#EE805F"/>
<path d="M242.808 175.658C242.808 175.658 244.078 178.165 244.754 180.336C245.431 182.507 247.127 189.412 247.127 189.412C247.127 189.412 243.629 193.403 238.766 193.168C238.766 193.168 236.151 189.074 237.072 185.377C237.994 181.681 242.805 175.658 242.805 175.658H242.808Z" fill="#D4D5D9"/>
<path d="M245.923 170.297C245.923 170.297 245.923 170.302 245.918 170.308C245.918 170.308 245.913 170.313 245.913 170.315C245.908 170.323 245.905 170.328 245.897 170.336C245.897 170.336 245.897 170.341 245.892 170.344C245.828 170.439 245.657 170.69 245.435 171.038C245.415 171.069 245.392 171.1 245.371 171.136C244.997 171.676 244.454 172.419 243.827 173.157C241.277 171.418 241.279 168.134 241.486 166.41L245.921 170.3L245.923 170.297Z" fill="#DB7F14"/>
<path d="M246.047 172.246C246.047 172.246 239.351 168.518 241.733 164.383C244.119 160.248 244.859 156.982 249.237 159.187C253.615 161.391 253.528 163.444 253.068 165.018C252.609 166.593 247.851 173.108 246.047 172.246Z" fill="#EE805F"/>
<path d="M254.199 162.607C253.892 160.772 252.96 160.597 252.31 160.718C249.837 156.626 245.794 158.224 245.794 158.224C243.636 160.932 240.516 161.394 240.516 161.394C240.516 161.394 241.293 162.84 244.496 163.736C245.474 164.009 246.584 163.844 247.656 163.483C245.433 164.722 243.11 165.197 243.11 165.197C247.33 165.584 251.344 161.725 251.76 161.312C251.954 161.91 252.297 163.16 252.093 164.076C251.814 165.32 250.712 167.571 251.386 167.863C251.386 167.863 254.659 165.359 254.199 162.605V162.607Z" fill="#151F2C"/>
<path d="M192.977 268.299H181.121C181.121 268.299 180.837 266.492 181.456 265.121C182.05 263.805 182.979 263.208 182.757 261.616C183.511 262.393 184.74 263.26 186.454 263.03C186.663 263.371 187.809 265.194 188.511 265.697C189.286 266.254 192.742 266.056 192.979 268.299H192.977Z" fill="#151F2C"/>
<path d="M239.095 191.244C237.57 191.776 235.43 192.068 233.238 192.305C230.12 192.646 226.901 192.878 225.215 193.552C224.885 193.684 223.927 194.084 222.967 194.781C222.967 194.781 222.944 194.796 222.9 194.832C222.582 195.065 222.262 195.333 221.971 195.635C221.524 196.095 221.134 196.632 220.884 197.249C220.264 198.777 221.085 203.013 221.609 205.328C221.821 206.26 221.382 207.223 220.533 207.662C219.348 208.274 218.181 208.841 217.038 209.358C216.976 209.386 216.919 209.412 216.857 209.438C216.867 209.203 216.872 208.968 216.872 208.741C216.872 207.143 216.671 205.814 216.671 205.814C216.39 207.427 215.329 209.167 214.337 210.506C199.859 215.463 187.308 214.115 187.489 210.935C188.116 199.892 195.563 190.498 195.563 190.498C209.454 174.347 237.549 170.095 237.549 170.095C237.549 170.095 238.894 169.932 240.518 171.884C242.854 174.695 242.97 175.428 242.97 175.428C242.97 175.428 243.587 189.677 239.098 191.244H239.095Z" fill="#E9E9E9"/>
<path d="M233.239 192.305C230.12 192.646 226.901 192.878 225.216 193.552C224.527 183.255 229.387 175.508 229.387 175.508C229.387 175.508 232.557 188.41 233.241 192.305H233.239Z" fill="#D4D5D9"/>
<path d="M221.609 205.328C221.821 206.26 221.382 207.223 220.533 207.662C219.348 208.273 218.181 208.841 217.038 209.357C216.976 209.161 216.922 208.957 216.872 208.741C216.692 207.935 216.609 206.97 216.671 205.813C216.937 200.924 220.267 197.222 221.973 195.632C221.527 196.092 221.137 196.629 220.887 197.246C220.267 198.774 221.088 203.01 221.612 205.325L221.609 205.328Z" fill="#D4D5D9"/>
<path d="M237.55 170.099C237.55 170.099 238.773 168.553 239.599 168.602C239.599 168.602 242.942 173.282 242.97 175.432C242.97 175.432 238.799 169.882 237.55 170.099Z" fill="#D4D5D9"/>
<path d="M269.628 215.396C269.628 215.396 267.85 215.427 267.468 215.373C267.091 215.319 266.588 215.156 266.082 215.138C265.583 215.12 265.126 215.28 264.659 215.378C264.59 215.394 264.52 215.399 264.448 215.399H261.5C261.5 215.399 261.203 215.257 260.88 214.738C260.741 214.513 260.723 213.976 260.403 213.798C258.616 212.802 263.369 213.367 263.369 213.367C263.369 213.367 266.353 213.313 266.629 213.52C267.119 213.889 269.742 215.259 269.631 215.401L269.628 215.396Z" fill="#DB7F14"/>
<path d="M261.497 215.395C261.497 215.395 263.307 215.917 263.8 216.252L264.319 216.58C264.319 216.58 264.618 216.244 264.146 215.873C263.895 215.676 263.206 215.101 263.183 214.443C263.16 213.782 261.118 214.36 261.495 215.395H261.497Z" fill="#DB7F14"/>
<path d="M289.632 265.622C285.37 265.622 281.913 262.166 281.913 257.904V209.157H297.35V257.904C297.35 262.166 293.893 265.622 289.632 265.622Z" fill="#D4D5D9"/>
<path d="M289.632 263.381C286.465 263.381 283.896 260.813 283.896 257.645V240.306H295.365V257.645C295.365 260.813 292.797 263.381 289.629 263.381H289.632Z" fill="#B77221"/>
<path d="M304.959 209.157H320.396V257.904C320.396 262.163 316.937 265.622 312.677 265.622C308.418 265.622 304.959 262.163 304.959 257.904V209.157Z" fill="#D4D5D9"/>
<path d="M312.678 263.381C309.51 263.381 306.942 260.813 306.942 257.645V235.495H318.411V257.645C318.411 260.813 315.842 263.381 312.675 263.381H312.678Z" fill="#B77221"/>
<path d="M255.057 229.704C251.131 228.047 249.29 223.519 250.947 219.593L269.902 174.682L284.126 180.684L265.171 225.595C263.513 229.521 258.986 231.361 255.059 229.704H255.057Z" fill="#D4D5D9"/>
<path d="M256.471 227.871L255.384 227.412C252.767 226.307 251.541 223.289 252.646 220.672L266.319 188.271L278.643 188.567L263.211 225.13C262.106 227.747 259.089 228.974 256.471 227.869V227.871Z" fill="#B77221"/>
<path d="M253.606 220.7C253.606 220.7 254.899 221.849 255.883 222.092C256.866 222.334 257.984 225.153 258.165 225.553C258.343 225.956 257.225 225.375 256.779 224.689C256.332 224.002 256.025 223.734 255.896 223.883C255.764 224.033 255.973 225.91 256.719 226.955C257.465 227.998 257.912 228.922 257.375 228.863C256.838 228.803 253.647 228.029 252.992 226.09C252.336 224.152 252.816 224.085 251.309 222.092C249.801 220.099 253.606 220.7 253.606 220.7Z" fill="#EE805F"/>
<path d="M236.514 173.516C236.514 173.516 228.701 174.287 228.073 179.365C227.446 184.443 235.564 205.125 236.729 206.996C238.845 210.406 251.308 222.092 251.308 222.092L253.606 220.701C253.606 220.701 244.764 205.734 243.396 204.335C241.249 202.135 239.16 175.276 236.514 173.518V173.516Z" fill="#EE805F"/>
<path d="M240.518 183.217C240.518 183.217 241.321 170.124 231.3 173.292C221.279 176.456 232.854 198.976 232.854 198.976C232.854 198.976 238.734 198.685 240.82 193.555L240.515 183.22L240.518 183.217Z" fill="#E9E9E9"/>
<path d="M326.801 258.96H256.748V261.482H326.801V258.96Z" fill="#B8C0C7"/>
<path d="M260.029 260.862H256.748V268.968H260.029V260.862Z" fill="#B8C0C7"/>
<path d="M326.804 258.96H323.066V268.968H326.804V258.96Z" fill="#B8C0C7"/>
<path d="M297.173 209.642H281.692C281.315 209.642 281.008 209.335 281.008 208.958C281.008 208.581 281.315 208.274 281.692 208.274H297.173C297.549 208.274 297.857 208.581 297.857 208.958C297.857 209.335 297.549 209.642 297.173 209.642Z" fill="#E9E9E9"/>
<path d="M320.419 209.642H304.939C304.562 209.642 304.255 209.335 304.255 208.958C304.255 208.581 304.562 208.274 304.939 208.274H320.419C320.796 208.274 321.103 208.581 321.103 208.958C321.103 209.335 320.796 209.642 320.419 209.642Z" fill="#E9E9E9"/>
<path d="M283.824 180.981L269.278 175.682C268.924 175.553 268.741 175.158 268.87 174.804C268.999 174.451 269.394 174.267 269.747 174.396L284.294 179.696C284.647 179.825 284.83 180.22 284.701 180.574C284.572 180.927 284.177 181.11 283.824 180.981Z" fill="#E9E9E9"/>
<path d="M120.919 267.37C120.748 267.832 107.002 268.348 106.938 266.895C106.938 266.872 106.938 266.849 106.938 266.82C106.938 266.784 106.938 266.743 106.94 266.696C106.94 266.544 106.953 266.394 106.971 266.247C106.971 266.242 106.971 266.242 106.971 266.237C107.01 265.95 107.072 265.666 107.134 265.388C107.217 265.021 107.392 264.598 107.565 264.154C107.816 263.511 108.063 262.822 108.032 262.202C107.934 260.202 107.214 255.994 107.214 255.994L111.169 255.555C111.169 255.555 111.793 261.363 112.545 262.664C113.562 264.43 115.34 265.403 117.217 265.937C117.429 265.999 117.638 266.059 117.847 266.116C119.512 266.572 121.071 266.967 120.919 267.375V267.37Z" fill="#DB7F14"/>
<path d="M121.053 267.388C120.882 267.85 119.594 268.875 116.339 268.735C113.084 268.593 113.719 268.023 111.386 268.224C109.052 268.425 107.002 268.351 106.938 266.895C106.938 266.872 106.938 266.848 106.938 266.82C106.938 266.678 106.951 266.479 106.971 266.247C106.971 266.242 106.971 266.242 106.971 266.236C107.01 265.95 107.072 265.666 107.134 265.387C107.217 265.021 107.392 264.597 107.565 264.153C109.039 264.543 110.996 266.296 113.038 266.559C115.709 266.908 117.824 266.141 117.824 266.141L117.844 266.113C119.827 266.471 121.203 266.98 121.048 267.388H121.053Z" fill="#3E7068"/>
<path d="M122.922 207.374C121.683 207.374 120.679 206.369 120.679 205.13V190.964H125.166V205.13C125.166 206.369 124.162 207.374 122.922 207.374Z" fill="#D4D5D9"/>
<path d="M122.922 206.723C122 206.723 121.254 205.977 121.254 205.056V200.017H124.587V205.056C124.587 205.977 123.841 206.723 122.919 206.723H122.922Z" fill="#B77221"/>
<path d="M129.618 207.374C128.379 207.374 127.374 206.369 127.374 205.13V190.964H131.861V205.13C131.861 206.369 130.857 207.374 129.618 207.374Z" fill="#D4D5D9"/>
<path d="M129.618 206.723C128.696 206.723 127.95 205.977 127.95 205.055V198.617H131.283V205.055C131.283 205.977 130.537 206.723 129.615 206.723H129.618Z" fill="#B77221"/>
<path d="M116.86 207.374C115.621 207.374 114.617 206.369 114.617 205.13V190.964H119.103V205.13C119.103 206.369 118.099 207.374 116.86 207.374Z" fill="#D4D5D9"/>
<path d="M116.861 206.723C115.939 206.723 115.193 205.977 115.193 205.055V198.617H118.526V205.055C118.526 205.977 117.779 206.723 116.858 206.723H116.861Z" fill="#B77221"/>
<path d="M113.084 205.01H111.822V208.756H113.084V205.01Z" fill="#384152"/>
<path d="M134.659 205.01H133.396V208.756H134.659V205.01Z" fill="#384152"/>
<path d="M134.659 205.01H111.822V206.105H134.659V205.01Z" fill="#384152"/>
<path d="M82.2682 157.613C82.2682 157.613 79.7979 156.26 77.0177 157.115C71.4032 158.839 74.1085 163.452 71.2638 165.303C68.4192 167.151 65.8172 172.804 67.6112 175.698C69.4053 178.592 72.0331 181.057 73.6284 179.082C75.2211 177.107 76.8215 174.374 76.837 170.636C76.8499 167.262 78.2052 160.401 80.5258 160.927C82.8465 161.454 82.2682 157.613 82.2682 157.613Z" fill="#151F2C"/>
<path d="M90.586 162.592C90.586 162.592 87.8756 156.544 82.2689 157.61C76.6595 158.676 75.8877 169.195 79.5842 170.55C82.1553 171.493 90.586 162.592 90.586 162.592Z" fill="#151F2C"/>
<path d="M105.5 226.673H90.0894L80.7319 194.323C79.5496 190.234 75.8505 187.387 71.5939 187.289L55.3906 187.007C50.7906 186.902 47.2464 190.812 48.0672 195.09L52.4168 267.892C52.3652 268.401 52.7834 268.842 53.3229 268.852H53.39C53.692 268.86 53.9502 268.651 53.9915 268.367L54.6317 232.434H82.3453L87.4848 268.367C87.5261 268.651 87.7842 268.86 88.0862 268.852H88.1534C88.6929 268.842 89.111 268.401 89.0594 267.892L85.51 232.434H105.503C106.233 232.434 106.832 231.836 106.832 231.105V228.002C106.832 227.272 106.233 226.673 105.503 226.673H105.5Z" fill="#B8C0C7"/>
<path d="M72.5205 194.222L77.7039 207.338C77.7039 207.338 82.6988 213.224 86.7129 211.326L74.0099 186.659L72.5205 194.22V194.222Z" fill="#ABDDDA"/>
<path d="M110.792 220.714C107.028 216.971 83.6433 207.082 75.7494 206.235L66.725 202.936C66.725 202.936 63.0465 211.744 62.9897 220.162C62.9613 224.085 67.8066 226.669 64.141 226.669C64.141 226.669 96.0803 226.543 97.3065 226.669C99.3148 226.876 98.1841 231.605 98.845 236.161C99.5058 240.714 107.862 259.842 107.862 259.842C107.862 259.842 110.293 260.622 111.419 260.555C112.629 260.483 113.19 260.077 113.19 260.077C113.19 260.077 115.361 225.255 110.792 220.711V220.714Z" fill="#151F2C"/>
<path d="M100.281 267.341C100.345 268.797 114.091 268.278 114.261 267.819C114.414 267.411 112.857 267.016 111.19 266.559C110.981 266.502 110.769 266.443 110.56 266.384C108.683 265.847 106.907 264.876 105.887 263.111C105.136 261.807 104.512 256.001 104.512 256.001L100.557 256.44C100.557 256.44 101.28 260.651 101.378 262.651C101.429 263.699 100.686 264.936 100.479 265.839C100.368 266.33 100.257 266.833 100.281 267.347V267.341Z" fill="#EE805F"/>
<path d="M104.728 268.671C107.062 268.47 106.427 269.04 109.682 269.182C112.937 269.324 114.225 268.297 114.396 267.835C114.548 267.427 113.175 266.916 111.19 266.557L111.169 266.588C111.169 266.588 109.039 267.651 106.365 267.303C104.186 267.019 101.982 266.04 100.479 265.834C100.368 266.324 100.257 266.828 100.281 267.341C100.345 268.797 102.395 268.872 104.728 268.671Z" fill="#2BAB95"/>
<path d="M105.283 220.766C103.071 218.453 88.4165 213.716 80.9848 211.295C79.1959 210.711 61.7974 202.089 61.7974 202.089C61.7974 202.089 59.0483 226.669 62.3653 226.703C68.5813 226.765 92.6526 227.862 93.5948 227.929C96.4446 228.133 94.9474 234.728 96.0755 239.958C97.2293 245.307 100.564 259.845 100.564 259.845C100.564 259.845 102.996 260.625 104.122 260.557C105.332 260.485 105.892 260.08 105.892 260.08C105.892 260.08 109.739 225.422 105.283 220.766Z" fill="#384152"/>
<path d="M84.9939 171.674C84.9939 171.674 84.8519 172.668 84.6273 173.896C84.4931 174.635 84.3279 175.458 84.1446 176.201C83.9949 176.816 83.8348 177.376 83.6671 177.789C83.0759 179.255 82.6087 180.685 82.8823 180.977C82.903 180.998 79.7743 181.31 78.0397 179.999C76.4057 178.767 75.7268 175.455 75.7552 175.45C76.6406 175.288 77.6731 175.094 79.4878 170.504L79.8105 170.713L84.9939 171.674Z" fill="#EE805F"/>
<path d="M84.6271 173.899C84.4929 174.637 84.3277 175.461 84.1444 176.204C81.1836 174.26 80.1252 172.531 79.5237 170.925L84.6271 173.899Z" fill="#DB7F14"/>
<path d="M86.037 174.645C86.037 174.645 78.3265 173.349 79.2067 168.558C80.087 163.767 79.6869 160.375 84.6483 161C89.6097 161.625 90.2266 163.628 90.3221 165.298C90.4176 166.968 88.0686 174.857 86.0396 174.642L86.037 174.645Z" fill="#EE805F"/>
<path d="M90.1258 162.65C90.1258 162.65 85.025 166.759 81.6408 166.992C78.2567 167.224 77.9288 165.66 77.9288 165.66C77.9288 165.66 79.0569 164.514 80.3424 161.891C80.7219 161.117 81.4834 160.603 82.343 160.559C84.7591 160.43 89.3282 160.487 90.1232 162.652L90.1258 162.65Z" fill="#151F2C"/>
<path d="M87.0386 162.164C87.0386 162.164 88.6442 163.824 89.1269 165.029C89.5942 166.193 89.6535 168.945 89.2147 170.022C89.2147 170.022 91.9664 165.081 90.5828 162.592C89.1166 159.952 87.036 162.164 87.036 162.164H87.0386Z" fill="#151F2C"/>
<path d="M88.5284 183.969C88.5361 180.732 83.7116 177.681 83.7116 177.681C83.7116 177.681 82.5396 180.897 76.8529 174.991C76.6515 174.782 63.4297 183.517 63.4297 183.517C63.4297 183.517 61.2123 194.842 60.727 200.02C59.2608 215.611 61.1116 227.93 61.1116 227.93C61.1116 227.93 80.1957 231.327 92.798 211.564C92.798 211.564 88.3425 201.365 88.3425 198.525C88.3425 196.69 88.5258 185.422 88.5284 183.972V183.969Z" fill="#2BAB95"/>
<path d="M62.9878 203.569C62.9878 203.569 68.3802 210.768 83.9072 209.509L76.6742 202.66L62.9878 203.569Z" fill="#3E7068"/>
<path d="M82.4954 201.589L80.7375 203.855C80.1309 203.959 74.3899 201.455 71.633 200.365C67.841 198.871 69.6273 189.41 70.8276 192.611C72.428 196.875 77.7534 199.18 82.4954 201.586V201.589Z" fill="#3E7068"/>
<path d="M98.5349 195.02L103.421 192.769L95.2473 175.023L90.3611 177.273L98.5349 195.02Z" fill="#151F2C"/>
<path d="M94.5063 182.449L96.8416 181.374L92.9356 172.893L90.6003 173.969L94.5063 182.449Z" fill="#151F2C"/>
<path d="M81.3591 205.929L85.6286 205.271C85.6157 205.194 84.4335 197.215 86.5037 190.983C88.5817 184.729 95.6573 183.577 95.7295 183.567L95.0765 179.297C94.6789 179.359 85.3085 180.887 82.4045 189.62C79.9987 196.856 81.3023 205.563 81.3591 205.929Z" fill="#151F2C"/>
<path d="M93.1409 209.057H74.6763V208.796C74.6763 206.231 76.7595 204.145 79.328 204.145H89.274C91.4088 204.145 93.1409 205.877 93.1409 208.012V209.057Z" fill="#151F2C"/>
<path d="M83.9064 199.96H103.889V198.52H83.9064V199.96Z" fill="#151F2C"/>
<path d="M90.032 209.056H103.889V206.601H90.032V209.056Z" fill="#151F2C"/>
<path d="M95.4332 206.6H99.8112V205.601H95.4332V206.6Z" fill="#151F2C"/>
<path d="M90.1858 204.723C90.1858 204.723 91.2571 206.104 91.6056 206.269C91.9566 206.434 92.1838 206.393 92.1838 206.393L91.4636 205.094L90.1858 204.723Z" fill="#EE805F"/>
<path d="M89.9399 203.304L93.0504 204.814C93.0504 204.814 92.9188 205.031 92.5342 205.013C92.1521 204.995 91.1841 204.641 91.1841 204.641L89.9373 203.301L89.9399 203.304Z" fill="#EE805F"/>
<path d="M84.008 203.985C84.008 203.985 89.1165 202.847 89.94 203.301C90.7634 203.755 92.7769 205.405 93.0299 205.98C93.2829 206.553 91.1945 205.544 90.5156 205.363C90.0768 205.245 88.9178 205.647 88.3473 205.838C85.9363 206.641 84.4597 206.228 84.4597 206.228L84.008 203.988V203.985Z" fill="#EE805F"/>
<path d="M139.454 208.727H67.1244V210.768H139.454V208.727Z" fill="#93642F"/>
<path d="M139.139 269.936C138.99 269.724 138.677 269.283 136.726 239.641C135.763 225.044 134.867 210.366 134.86 210.221L135.624 210.175C136.599 226.172 139.25 268.026 139.795 269.549C139.795 269.549 139.787 269.526 139.767 269.495L139.139 269.936Z" fill="#93642F"/>
<path d="M66.5025 269.614L65.8753 269.173C65.8546 269.204 65.8469 269.224 65.8469 269.224C66.3941 267.706 69.1407 226.082 70.1526 210.173L70.9167 210.222C70.9064 210.366 69.9771 224.964 68.9832 239.482C66.962 268.958 66.6523 269.402 66.5025 269.614Z" fill="#93642F"/>
<path d="M76.8519 174.988C76.8519 174.988 69.0587 174.988 66.4722 177.574C62.4194 181.632 59.3244 199.374 62.2852 202.936C65.6203 206.948 84.5676 207.157 84.5676 207.157C84.5676 207.157 85.0219 206.331 84.0075 203.984C83.7932 203.491 71.6323 198.602 71.2632 197.952C70.8941 197.304 70.5637 188.166 70.9844 186.638C71.4052 185.112 76.8545 174.985 76.8545 174.985L76.8519 174.988Z" fill="#2BAB95"/>
<path d="M269.865 87.628C270.177 87.9868 270.218 88.3895 270.064 88.818C270.064 88.818 270.064 88.8232 270.061 88.8232C269.774 89.6157 268.825 90.5011 267.725 91.3865C267.583 91.5001 267.459 91.6033 267.351 91.6989C267.322 91.7247 267.294 91.7479 267.265 91.7737C267.242 91.7944 267.221 91.8124 267.201 91.8331C266.173 92.7804 266.561 92.9973 264.715 94.9178C262.611 97.1068 261.163 97.1455 260.75 96.9468C260.402 96.7764 261.109 95.6148 261.894 94.3112C261.932 94.2492 261.968 94.1847 262.007 94.1202C262.11 93.9472 262.216 93.7717 262.319 93.5962C263.238 92.0267 263.004 91.2884 262.784 88.9523C262.606 87.0524 259.828 78.3428 259.828 78.3428L263.861 77.6484C263.861 77.6484 265.074 84.5846 266.414 85.6533C267.129 86.2238 267.929 86.2289 268.618 86.6523C268.667 86.6807 268.714 86.7116 268.76 86.7426C269.15 87.0008 269.55 87.2692 269.862 87.628H269.865Z" fill="#EE805F"/>
<path d="M269.864 87.6266C270.177 87.9854 270.218 88.3881 270.063 88.8166C270.063 88.8166 270.063 88.8218 270.061 88.8218C269.71 89.6143 268.785 90.4945 267.719 91.3774C267.58 91.4935 267.459 91.5994 267.348 91.6974C267.319 91.7233 267.291 91.7465 267.262 91.7723C267.239 91.793 267.218 91.811 267.198 91.8317C266.17 92.779 266.558 92.9959 264.712 94.9164C262.608 97.1054 261.16 97.1441 260.747 96.9454C260.398 96.775 261.106 95.6134 261.891 94.3098C262.301 94.1601 264.203 93.3857 265.641 91.5477C266.862 89.9912 267.691 88.0035 268.522 86.7851C268.612 86.767 268.667 86.7567 268.76 86.7412C269.149 86.9993 269.549 87.2678 269.862 87.6266H269.864Z" fill="#151F2C"/>
<path d="M237.357 85.1078C237.109 86.3521 235.334 86.1456 233.354 85.6603C231.371 85.175 231.843 85.7506 229.022 85.4383C226.201 85.1259 225.346 84.0753 225.261 83.6545C225.184 83.2828 226.577 83.1512 228.072 82.9782C228.261 82.9576 228.449 82.9343 228.637 82.9111C230.326 82.6994 231.562 81.6101 233.095 80.7169C234.549 79.8702 236.715 76.4189 236.715 76.4189L240.584 76.7261C240.584 76.7261 238.555 79.8083 237.768 81.1506C237.306 81.9379 237.331 82.9808 237.388 83.7862C237.419 84.225 237.448 84.6716 237.357 85.1104V85.1078Z" fill="#EE805F"/>
<path d="M233.351 85.6596C231.368 85.1743 231.841 85.7499 229.019 85.4376C226.198 85.1252 225.343 84.0746 225.258 83.6539C225.181 83.2821 226.575 83.1505 228.069 82.9775L228.082 83.0059C228.082 83.0059 229.773 84.2063 232.122 84.2605C234.035 84.3069 236.064 83.7597 237.383 83.7803C237.414 84.2192 237.442 84.6658 237.352 85.1046C237.104 86.3488 235.328 86.1423 233.348 85.657L233.351 85.6596Z" fill="#151F2C"/>
<path d="M252.18 60.3735L255.796 70.1053L260.517 82.8108C260.517 82.8108 261.798 82.9347 263.026 82.581C264.157 82.2558 265.453 81.4014 265.453 81.4014C265.453 81.4014 264.142 67.7588 261.697 59.9295C261.07 57.9186 260.368 56.2924 259.593 55.3785C255.801 50.8973 252.182 60.3761 252.182 60.3761L252.18 60.3735Z" fill="#93642F"/>
<path d="M255.858 44.921C257.916 44.2576 263.288 44.9106 269.114 45.9638C270.725 46.2555 272.346 45.5198 273.195 44.1207L287.855 42.9746C287.855 42.9746 293.696 54.583 289.339 60.4815C286.794 63.9276 278.218 63.432 275.621 62.9002C268.479 61.4366 260.36 57.1928 259.307 56.9811C257.583 56.6352 256.894 60.0839 255.172 63.703C253.447 67.3221 238.971 79.7308 238.971 79.7308C238.971 79.7308 236.746 79.754 235.827 79.4081C234.838 79.0364 234.477 78.5562 234.477 78.5562C234.477 78.5562 250.518 46.6427 255.861 44.9184L255.858 44.921Z" fill="#B77221"/>
<path d="M291.538 53.0703C291.476 61.4933 289.3 65.3654 289.3 65.3654C270.425 62.833 266.248 45.4759 266.248 45.4759C270.154 45.401 271.773 42.9797 271.773 42.9797L287.661 32.8426L288.626 32.2257L289.62 31.5933C289.62 31.5933 289.917 33.1989 290.278 35.788C290.756 39.2341 291.35 44.4175 291.502 49.8668C291.533 50.9303 291.546 52.0016 291.536 53.0729L291.538 53.0703Z" fill="#D4D5D9"/>
<path d="M273.277 23.9319C278.496 26.8076 289.088 32.7654 289.145 32.7267C289.145 32.7267 293.037 34.1929 295.247 32.7267C298.928 30.2821 300.903 23.7022 294.17 18.0412C290.812 15.2172 288.427 14.5306 288.066 10.0209C287.867 7.56603 284.498 -0.562715 278.904 0.258161C278.458 0.322695 278.006 0.353672 277.552 0.340765C276.901 0.322695 275.84 0.420787 274.751 1.06871C271.607 2.94021 265.453 22.8168 273.279 23.9293L273.277 23.9319Z" fill="#152949"/>
<path d="M277.652 21.4843C277.629 21.4998 280.221 22.3852 281.953 21.6159C283.584 20.8957 284.818 18.2137 284.795 18.2111C284.054 18.1776 283.207 16.9901 282.611 13.2729L282.296 13.3865L276.986 15.2967C276.986 15.2967 277.371 17.0005 277.619 18.6216C277.828 19.9845 277.941 21.2881 277.65 21.4817L277.652 21.4843Z" fill="#EE805F"/>
<path d="M276.989 15.3004C276.989 15.3004 277.201 16.2193 277.51 17.9359C280.559 17.3861 281.87 15.0371 282.299 13.3901L276.989 15.3004Z" fill="#DB7F14"/>
<path d="M276.197 16.9907C276.197 16.9907 283.461 16.0149 282.785 11.5001C282.108 6.98526 282.588 3.81792 277.924 4.25159C273.257 4.68268 272.617 6.54127 272.475 8.103C272.335 9.66473 274.289 17.1275 276.197 16.9907Z" fill="#EE805F"/>
<path d="M272.74 5.62681C272.74 5.62681 277.392 9.63568 280.554 9.95835C283.716 10.281 284.914 9.26654 284.914 9.26654C284.914 9.26654 283.05 7.71772 281.927 5.22153C281.597 4.48584 280.897 3.97989 280.094 3.9102C277.836 3.71401 273.553 3.62625 272.74 5.62939V5.62681Z" fill="#152949"/>
<path d="M275.646 5.26849C275.646 5.26849 274.09 6.77343 273.602 7.88858C273.129 8.96501 272.987 11.5412 273.364 12.5634C273.364 12.5634 270.94 7.84986 272.314 5.56018C273.77 3.13111 275.649 5.26849 275.649 5.26849H275.646Z" fill="#152949"/>
<path d="M271.538 32.1868C271.757 46.8929 271.597 43.8185 273.206 45.215C273.593 45.5506 274.682 45.7519 276.117 45.8448C280.627 46.1443 288.552 45.4008 288.854 44.5671C289.894 41.6837 289.158 40.7879 290.028 36.3738C290.119 35.904 290.23 35.3955 290.361 34.843C291.084 31.8099 291.789 30.78 289.223 25.9089C286.895 21.4973 284.522 17.886 284.305 18.0151C278.164 21.66 277.622 18.6269 277.622 18.6269C277.622 18.6269 271.43 25.0132 271.538 32.1868Z" fill="#D4D5D9"/>
<path d="M255.797 70.1045L260.518 82.81C260.518 82.81 261.798 82.9339 263.027 82.5802C264.158 82.255 265.454 81.4006 265.454 81.4006C265.454 81.4006 264.142 67.758 261.698 59.9287L255.799 70.1071L255.797 70.1045Z" fill="#B77221"/>
<path d="M277.622 18.6245C277.622 18.6245 272.052 19.4402 271.256 22.5146C270.549 25.2457 268.019 40.7159 268.019 40.7159C268.019 40.7159 269.158 43.3928 270.642 41.9085C272.126 40.4242 275.312 26.4564 275.312 26.4564L277.622 18.6245Z" fill="#D4D5D9"/>
<path d="M275.902 43.6201C275.902 43.6201 274.97 44.823 274.666 44.965C274.361 45.1096 274.162 45.0734 274.162 45.0734L274.79 43.9428L275.902 43.6201Z" fill="#EE805F"/>
<path d="M276.117 42.3813L273.407 43.6978C273.407 43.6978 273.523 43.8863 273.856 43.8708C274.189 43.8553 275.03 43.5481 275.03 43.5481L276.117 42.3813Z" fill="#EE805F"/>
<path d="M291.501 49.8619C287.309 49.5289 276.736 45.9666 278.543 43.4498C279.379 42.2856 284.981 41.7693 287.872 38.0806C288.652 37.0867 287.774 34.3763 287.66 32.8378C287.614 32.177 287.645 31.6968 287.872 31.5884C288.084 31.4877 288.35 31.7665 288.626 32.2208C289.351 33.4109 290.141 35.8141 290.141 35.8141L290.28 35.7806C290.758 39.2267 291.352 44.4101 291.504 49.8594L291.501 49.8619Z" fill="#B8C0C7"/>
<path d="M281.282 42.9774C281.282 42.9774 276.834 41.9861 276.116 42.3811C275.399 42.776 273.643 44.2138 273.424 44.7146C273.205 45.2154 275.022 44.3352 275.613 44.1751C275.995 44.0719 277.004 44.4229 277.503 44.5881C279.601 45.2877 280.889 44.9289 280.889 44.9289L281.282 42.9774Z" fill="#EE805F"/>
<path d="M284.305 18.0156C284.305 18.0156 290.237 18.4106 292.304 21.294C295.216 25.3545 298.339 42.7142 295.03 45.0219C291.303 47.6214 280.719 45.644 280.719 45.644C280.719 45.644 279.728 42.7013 280.892 42.5903C284.046 42.2908 290.208 40.9769 290.149 39.6011C290.061 37.5076 286.176 30.5637 286.176 29.1852C286.176 27.8068 284.305 18.0156 284.305 18.0156Z" fill="#D4D5D9"/>
<path d="M252.974 45.4736H281.281V46.0983H253.227L252.974 45.4736Z" fill="#384152"/>
<path d="M274.662 46.0985H253.227L246.778 30.063H268.181L274.662 46.0985Z" fill="#384152"/>
<path d="M258.637 38.0802C258.474 37.5175 258.802 37.0605 259.364 37.0605C259.927 37.0605 260.516 37.5175 260.678 38.0802C260.841 38.6429 260.513 39.0998 259.95 39.0998C259.388 39.0998 258.799 38.6429 258.637 38.0802Z" fill="white"/>
<path d="M463.014 268.223H1.17051C0.851166 268.223 0.592285 268.482 0.592285 268.801V269.139C0.592285 269.458 0.851166 269.717 1.17051 269.717H463.014C463.333 269.717 463.592 269.458 463.592 269.139V268.801C463.592 268.482 463.333 268.223 463.014 268.223Z" fill="#93642F"/>
</g>
</g>
<defs>
<clipPath id="clip0_74_2400">
<rect width="463" height="269.735" fill="white" transform="translate(0.592285 0.201172)"/>
</clipPath>
</defs>
</svg>
