<svg width="321" height="305" viewBox="0 0 321 305" fill="none" xmlns="http://www.w3.org/2000/svg">
<g opacity="0.85">
<path d="M150.711 161.18C150.711 161.18 156.201 167.488 162.973 167.488C169.745 167.488 175.235 161.18 175.235 161.18C175.235 161.18 169.745 154.872 162.973 154.872C156.201 154.872 150.711 161.18 150.711 161.18Z" fill="white"/>
<path d="M158.886 161.18C158.886 164.575 160.718 167.33 162.981 167.33C165.243 167.33 167.076 164.575 167.076 161.18C167.076 157.785 165.243 155.038 162.981 155.038C160.718 155.038 158.886 157.793 158.886 161.18Z" fill="#42C7D6"/>
<path d="M160.138 161.18C160.138 163.536 161.412 165.448 162.973 165.448C164.534 165.448 165.809 163.536 165.809 161.18C165.809 158.824 164.534 156.912 162.973 156.912C161.412 156.912 160.138 158.824 160.138 161.18Z" fill="#1F265C"/>
<path d="M302.972 113.56H260.373C257.635 113.56 255.418 115.781 255.418 118.506V248.727H307.459V118.039C307.459 115.57 305.453 113.56 302.972 113.56Z" fill="#42C7D6"/>
<path d="M279.663 146.208H231.755C229.478 146.208 227.623 148.06 227.623 150.333V248.735H279.663V146.208Z" fill="#42C7D6"/>
<path d="M196.251 184.351H250.328V248.735H196.251V184.351Z" fill="#42C7D6"/>
<path d="M302.972 117.949H260.373C257.635 117.949 255.418 120.169 255.418 122.894V248.734H307.459V122.42C307.459 119.951 305.453 117.941 302.972 117.941V117.949Z" fill="#307A9C"/>
<path d="M279.663 150.89H231.755C229.478 150.89 227.623 152.742 227.623 155.015V248.735H279.663V150.89Z" fill="#307A9C"/>
<path d="M196.251 189.65H250.328V248.735H196.251V189.65Z" fill="#307A9C"/>
<path d="M276.759 53.0083C273.554 53.4976 270.621 55.1763 268.23 57.3593C267.016 58.4659 265.885 59.7908 265.553 61.3942C270.824 59.8435 276.412 61.6501 281.857 62.3953C282.415 62.4706 283.011 62.5308 283.524 62.305C284.828 61.7178 286.329 61.7329 287.709 61.4092C288.787 61.1608 289.451 61.0554 288.953 59.8585C288.576 58.9477 287.943 58.1497 287.249 57.4497C285.846 56.042 284.074 54.958 282.242 54.1977C280.628 53.5277 278.546 52.7298 276.759 53.0008V53.0083Z" fill="white"/>
<path d="M219.01 62.3348C218.708 62.3198 218.414 62.38 218.15 62.4929C218.195 62.0714 217.894 61.6197 217.373 61.7477C216.152 62.0413 215.405 63.1478 215.624 64.3899C215.759 65.1502 216.793 65.0448 216.958 64.4275C216.966 64.5856 216.996 64.7512 217.026 64.9168C217.207 65.775 218.55 65.519 218.369 64.6534C218.316 64.4049 218.24 64.1716 218.399 63.9533C218.519 63.7877 218.7 63.6898 218.896 63.6973C219.779 63.7425 219.884 62.38 219.002 62.3348H219.01Z" fill="#B99788"/>
<path d="M216.914 59.527C215.247 59.5496 213.566 59.5647 211.967 59.0452C211.477 58.8872 210.557 58.4656 210.534 59.3313C210.519 59.9034 211.477 60.5583 211.922 60.739C212.94 61.1605 214.229 61.1906 215.315 61.4616C215.888 61.6047 216.476 61.7552 216.952 62.109C217.985 62.8768 217.721 64.7813 216.22 64.4351C215.881 64.3598 215.549 64.2619 215.217 64.1415C214.674 63.9458 214.071 63.6898 213.535 63.9081C213.4 63.9608 213.272 64.0511 213.211 64.1791C213.128 64.3598 213.279 64.7587 213.392 64.9093C213.679 65.2706 214.373 65.4513 214.795 65.5868C215.179 65.7072 215.541 65.9331 215.903 66.0987C216.431 66.3396 216.959 66.5654 217.495 66.7686C218.007 66.9644 218.452 67.2504 218.965 67.4537C219.968 67.8526 221.107 67.9354 222.155 67.6569C222.487 67.5666 222.803 67.4461 223.143 67.3859C223.738 67.2805 224.357 67.3709 224.953 67.4762C227.622 67.958 231.438 69.5614 233.368 66.7235C233.625 66.3471 233.813 65.9105 233.836 65.4588C233.896 64.1038 232.479 63.9533 231.445 63.6672C229.681 63.1779 227.894 62.9371 226.121 62.4854C225.292 62.2746 224.447 62.0563 223.701 61.6423C223.075 61.296 222.532 60.8142 221.929 60.4228C220.473 59.4668 218.58 59.512 216.899 59.5345L216.914 59.527Z" fill="#F7B66F"/>
<path d="M254.905 142.761C254.92 142.911 254.936 143.069 254.928 143.22C254.928 143.453 254.785 146.487 255.117 146.464C253.759 146.54 252.387 146.525 251.029 146.427C250.833 146.103 250.66 145.779 250.486 145.448C250.313 145.117 250.215 144.741 250.026 144.417C249.679 143.822 249.702 143.785 249.182 144.184C248.33 144.838 247.809 145.712 246.784 146.193C245.916 146.6 244.944 146.705 243.986 146.765C241.053 146.931 238.406 146.495 235.615 145.779C234.922 145.599 234.198 145.117 234.152 144.409C234.1 143.551 235.02 142.979 235.842 142.716C238.828 141.775 242.252 142.294 244.951 140.713C245.245 140.54 245.539 140.329 245.69 140.028C245.901 139.607 245.803 139.102 245.705 138.643C245.509 137.755 245.313 136.859 244.944 136.024C244.642 135.331 244.129 134.781 243.82 134.104C243.601 133.622 243.209 133.238 242.855 132.854C244.476 132.915 246.203 132.44 247.824 132.132C249.219 131.868 250.418 131.131 251.188 132.561C252.432 134.887 253.201 137.431 254.016 139.93C254.31 140.834 254.792 141.797 254.905 142.761Z" fill="#1F265C"/>
<path d="M271.729 61.5595C271.993 59.8733 271.729 58.2699 270.417 57.4569C269.233 56.7192 267.703 57.2913 266.413 57.8258C259.475 60.739 252.04 62.4703 244.529 62.9822C240.811 63.2306 237.078 63.1855 233.368 62.8317C231.476 62.651 229.59 62.3951 227.72 62.0563C226.785 61.8832 226.182 61.4842 225.699 62.1843C225.36 62.6811 225.458 64.1641 225.382 64.7738C225.284 65.5793 224.779 67.0697 225.035 67.8601C225.533 69.3883 229.093 70.5024 230.465 71.0519C234.937 72.8359 239.801 73.5586 244.597 73.4607C251.64 73.3177 258.555 71.4734 265.169 69.042C266.685 68.4849 268.23 67.8677 269.362 66.7159C270.327 65.7298 271.42 63.5844 271.737 61.5444L271.729 61.5595Z" fill="#75B1CF"/>
<path d="M281.909 103.263C275.673 102.773 271.043 100.718 265.492 97.7977C265.44 97.7149 263.434 96.8718 263.381 96.789C263.381 96.4578 263.954 96.3072 263.947 95.976C263.849 90.8196 262.8 85.776 263.094 80.6196C263.208 78.6247 263.321 76.6374 263.434 74.6426C263.6 71.6616 263.773 68.6656 264.437 65.7524C264.897 63.72 265.606 61.7326 266.669 59.9411C267.174 59.0904 267.747 58.1118 268.584 57.5698C270.545 56.3052 272.604 55.0707 274.896 54.5211C277.06 54.0017 279.436 54.8072 281.366 55.7858C281.796 56.0041 282.226 56.2374 282.588 56.5536C282.852 56.7794 283.078 57.0354 283.319 57.2763C284.104 58.0441 285.069 58.6162 285.785 59.4593C286.487 60.2798 287.037 61.0326 287.429 62.0714C287.738 62.8919 288.161 63.6748 288.462 64.5104C288.809 65.4739 289.081 66.46 289.36 67.4461C290.061 69.9529 290.559 72.5424 291.064 75.0943C291.569 77.6838 291.999 80.2883 292.293 82.908C292.881 88.2376 293.311 93.5822 293.59 98.9419C293.613 99.4237 293.636 99.913 293.658 100.395C293.696 101.148 293.915 102.758 293.153 103.218C292.497 103.609 290.634 103.248 289.865 103.27C287.211 103.338 284.564 103.481 281.917 103.27L281.909 103.263Z" fill="#1F265C"/>
<path d="M266.254 72.7078C266.586 70.6979 266.918 68.6956 267.25 66.6857C267.423 65.6092 267.642 64.5328 267.823 63.4638C268.004 62.3723 268.132 61.2959 268.411 60.2269C268.554 59.6624 268.728 59.1053 268.916 58.5558C269.082 58.0665 269.331 57.5546 269.256 57.0277C269.241 56.9373 269.218 56.8395 269.143 56.7868C268.999 56.6739 268.796 56.7943 268.652 56.9148C266.722 58.5708 265.146 60.528 264.098 62.8466C263.713 63.7047 263.374 64.5855 263.08 65.4812C263.072 65.5189 263.057 65.549 263.049 65.5866C262.25 68.0256 261.745 70.5474 261.247 73.0616C258.102 88.7719 254.4 104.557 254.061 120.561C253.962 125.379 253.895 130.332 255.569 134.849C255.938 135.842 256.549 136.941 257.605 137.092C259 137.295 259.965 135.76 260.418 134.427C261.926 129.993 261.549 125.59 261.828 121.066C262.16 115.781 262.544 110.482 262.891 105.19C263.6 94.3273 264.505 83.4648 266.262 72.7153L266.254 72.7078Z" fill="#D7EAFA"/>
<path d="M253.721 135.015C252.529 129.362 250.244 123.716 248.284 118.273C246.776 114.073 245.124 109.835 242.296 106.38C246.753 109.933 251.805 112.733 257.167 114.675C259.874 115.654 262.627 116.188 265.402 116.911C267.777 117.528 269.896 119.004 272.377 119.493C275.891 120.185 279.473 119.056 282.882 117.95C284.428 117.445 286.004 116.926 287.339 116C290.838 113.569 292.753 107.531 291.803 103.466C291.652 102.827 291.418 102.202 291.117 101.615C290.091 99.6348 288.123 98.5659 285.944 98.3852C282.942 98.1368 279.979 98.7767 277 98.9498C274.971 99.0702 272.935 99.0627 270.907 98.9272C269.896 98.8595 268.878 98.7691 267.868 98.6336C267.016 98.5132 266.322 98.1067 265.515 97.9034C264.165 97.1883 263.833 95.1182 263.645 93.7256C263.358 93.4395 262.989 93.2288 262.468 93.0707C261.254 92.7094 259.995 92.5061 258.751 92.2728C255.38 91.648 251.994 91.1135 248.593 90.6844C244.687 90.1951 240.698 89.8413 236.837 90.5866C228.7 92.1598 222.803 99.4015 225.344 107.72C227.531 114.871 230.178 121.864 232.953 128.805C233.835 131.003 235.17 137.341 237.093 138.658C239.348 140.209 242.311 137.77 244.445 137.04C247.183 136.106 250.81 134.458 253.728 135.015H253.721Z" fill="#75B1CF"/>
<path d="M276.79 49.5305C276.526 48.3787 276.254 47.2345 275.99 46.0828C275.485 43.9073 274.761 41.4984 273.652 39.5488C272.936 38.2992 271.865 37.1851 270.493 36.7259C269.233 36.2968 267.846 36.4474 266.564 36.7936C264.98 37.2152 263.148 38.1562 262.597 39.7972C261.647 42.5975 262.997 46.6323 264.445 49.0562C264.98 49.952 265.787 50.8854 266.835 50.8553C266.979 50.8553 267.129 50.8327 267.243 50.9156C267.318 50.9682 267.363 51.0586 267.408 51.1489C268.065 52.5265 268.811 53.8739 269.135 55.3719C269.369 56.471 269.377 57.6302 269.015 58.6916C268.902 59.0153 268.819 59.3842 268.608 59.6251C269.671 60.0692 270.877 59.8509 271.963 59.61C273.539 59.2637 274.987 58.4809 276.307 57.5775C276.918 57.1635 277.529 56.6968 277.913 56.0645C278.569 54.988 278.064 54.3858 277.694 53.4147C277.242 52.2103 277.084 50.7951 276.797 49.538L276.79 49.5305Z" fill="#F7B66F"/>
<path d="M259.603 197.705C259.211 199.467 258.502 201.153 257.537 202.786C256.896 203.863 256.051 205.142 256.519 206.43C256.896 207.484 257.899 208.47 259.09 208.387C259.807 208.334 260.455 207.92 260.998 207.453C263.381 205.376 264.324 202.146 265.078 199.075C265.327 198.074 265.545 197.065 265.553 196.034C265.832 196.501 266.345 196.772 266.579 197.321C267.582 196.523 268.645 195.771 269.603 194.912C270.13 194.446 270.078 194.506 269.949 193.858C269.836 193.256 269.587 192.662 269.422 192.067C268.75 189.613 268.26 187.114 267.974 184.584C267.868 183.689 267.785 182.763 267.333 181.98C266.579 180.662 264.972 180.068 263.457 180C261.828 179.925 259.52 180.595 258.849 182.243C258.464 183.192 258.517 184.253 258.63 185.262C258.932 187.844 259.618 190.366 259.882 192.948C260.048 194.596 259.95 196.177 259.603 197.705Z" fill="#1F265C"/>
<path d="M276.971 43.6285C277.054 42.394 277.046 41.1519 276.918 39.9174C276.714 38.0279 275.937 36.131 274.475 34.9115C272.589 33.3457 270.055 33.15 267.959 34.3921C267.092 34.904 266.338 35.6793 265.395 36.0557C264.385 36.4622 263.253 36.3869 262.213 36.673C261.315 36.9214 260.426 37.7118 260.592 38.6226C260.72 39.2851 261.383 39.7367 262.054 39.8496C262.726 39.9625 263.404 39.8195 264.075 39.7217C265.229 39.5561 266.443 39.5335 267.529 39.955C268.412 40.2938 269.181 40.9186 270.108 41.1143C270.47 41.1896 270.847 41.1971 271.202 41.2874C272.273 41.5659 272.996 42.5596 273.509 43.5382C274.022 44.5168 274.459 45.5932 275.312 46.3008C275.493 46.4514 275.711 46.5869 275.945 46.5869C276.488 46.5794 276.729 45.9019 276.797 45.3599C276.873 44.7878 276.933 44.2081 276.971 43.6285Z" fill="#1F265C"/>
<path d="M292.626 102.382C291.404 99.7772 289.104 97.5415 286.789 96.051C284.315 94.4476 281.224 93.6421 278.351 94.3196C273.939 95.3585 271.051 99.4761 268.751 103.375C264.211 111.069 260.75 118.86 257.055 126.937C254.649 132.191 253.231 137.423 252.945 143.219C252.922 143.603 252.907 143.987 252.9 144.371C252.719 150.423 253.473 156.468 254.219 162.483C255.358 171.584 256.489 180.685 257.628 189.786C261.843 189.499 265.968 188.423 270.131 187.587C270.138 187.512 270.153 187.437 270.161 187.362C271.322 171.569 271.043 155.52 275.025 140.193C277.28 131.506 284.323 125.733 288.674 118.024C290.665 114.494 293.319 110.753 293.515 106.56C293.583 105.099 293.244 103.692 292.626 102.374V102.382Z" fill="#99D3E8"/>
<path d="M295.574 105.386C295.461 107.23 295.287 109.112 295.046 111.031C293.229 125.5 291.411 139.968 289.594 154.436C283.493 154.105 278.335 152.419 272.483 151.071C267.114 149.837 265.267 149.189 265.802 142.881C267.318 125.311 269.723 107.847 271.842 90.3755C272.476 85.1588 273.019 79.9271 273.501 74.6879C273.743 72.0682 273.961 69.4561 274.173 66.8365C274.271 65.6396 274.218 64.3524 274.512 63.2006C274.821 61.9887 275.213 60.7843 275.794 59.6702C276.503 58.3152 277.521 57.0806 278.848 56.3128C279.806 55.7558 280.899 55.4471 282.008 55.3041C282.822 55.1987 283.682 55.1837 284.436 55.5224C284.79 55.6805 285.115 55.9139 285.416 56.1547C286.253 56.8096 287.03 57.5398 287.731 58.3302C288.033 58.669 288.41 58.94 288.681 59.2787C288.968 59.6325 289.187 60.0691 289.413 60.4681C289.828 61.2133 290.19 61.9887 290.491 62.7866C291.11 64.4276 291.494 66.144 291.879 67.8527C293.025 72.8737 294.103 77.7667 294.669 82.893C295.536 90.767 296.057 97.8204 295.589 105.386H295.574Z" fill="#FAFCFD"/>
<path d="M278.426 103.037C280.507 106.259 284.353 107.328 287.814 105.657C288.342 105.401 288.802 106.183 288.274 106.439C284.617 108.208 280.567 107.29 278.132 104.181C278.071 104.143 278.011 104.098 277.966 104.023C277.86 103.842 277.747 103.669 277.641 103.489C277.332 102.984 278.109 102.54 278.426 103.029V103.037Z" fill="#3A4171"/>
<path d="M240.368 90.3853L226.734 99.5547L188.66 43.1436L202.294 33.9742L240.368 90.3853Z" fill="white"/>
<path d="M189.979 46.8876L205.27 36.6035C206.133 36.0231 206.355 34.857 205.778 34.0017L204.927 32.7407C204.346 31.8791 203.177 31.6573 202.321 32.2335L187.03 42.5175C186.166 43.098 185.944 44.2641 186.521 45.1194L187.373 46.3804C187.954 47.242 189.126 47.4701 189.99 46.8896L189.979 46.8876Z" fill="white"/>
<path d="M259.86 93.62L222.524 118.732C220.028 120.411 216.672 118.604 216.703 115.601L217.019 84.0824L230.209 75.2148L259.189 87.0784C261.949 88.2076 262.333 91.9564 259.86 93.62Z" fill="white"/>
<path d="M213.746 105.777C208.656 109.857 210.481 119.387 214.779 123.708C216.039 124.973 217.652 126.034 219.44 126.034C220.963 126.034 222.373 125.266 223.7 124.513C233.594 118.935 251.61 105.498 260.101 98.0762L213.746 105.784V105.777Z" fill="#D47474"/>
<path d="M226.769 82.735C226.769 82.735 226.769 82.7124 226.762 82.7049C226.626 82.1704 226.46 81.5983 226.03 81.237C225.729 80.9811 225.352 80.8757 224.99 80.8004C224.115 80.6197 223.225 80.567 222.358 80.6423C221.604 80.7101 220.797 80.8531 220.103 80.4391C219.801 80.2584 219.56 79.9799 219.274 79.7691C218.293 79.0314 217.011 79.1443 215.91 79.3852C214.87 79.611 213.95 79.7691 212.849 79.611C212.291 79.5282 211.446 79.4078 211.906 80.2735C212.245 80.9208 212.992 80.8531 213.565 81.0413C213.565 81.1241 213.565 81.2144 213.565 81.2972C213.55 81.1542 212.321 81.2822 212.162 81.365C212.027 81.4402 211.989 81.6284 212.042 81.7865C212.094 81.9446 212.223 82.0801 212.358 82.1855C212.637 82.4113 212.984 82.5543 213.324 82.5845C213.165 82.6146 213.007 82.6522 212.886 82.7425C212.758 82.8329 212.668 82.9834 212.698 83.149C212.743 83.3749 212.984 83.5254 213.195 83.6082C213.588 83.7663 214.07 83.9018 214.47 83.9168C214.508 83.9997 214.538 84.09 214.583 84.1653C213.904 83.9846 212.245 83.9394 213.542 84.8653C214.221 85.3471 215.051 85.6482 215.82 85.859C217.358 86.2805 219.04 86.3859 220.51 86.0773C221.264 85.9192 221.973 85.6256 222.735 85.4977C223.459 85.3772 224.205 85.4149 224.952 85.4977C225.435 85.5504 226.196 85.8816 226.649 85.8364C227.637 85.7385 226.958 83.4577 226.769 82.735Z" fill="#F7B66F"/>
<path d="M263.796 30.38L262.959 36.6355C267.559 37.5915 272.038 37.9604 276.374 37.6291V31.0801C276.374 30.6736 276.057 30.3424 275.65 30.3198L264.595 29.7176C264.195 29.695 263.849 29.981 263.796 30.38Z" fill="#75B1CF"/>
<path d="M282.091 54.7849C281.163 54.1977 278.923 53.2041 277.845 53.5127C278.184 54.4386 278.169 55.3419 277.77 56.2528C277.362 57.1711 276.706 57.954 276.178 58.8122C275.53 59.8585 275.07 61.0102 274.829 62.2147C274.798 62.3803 274.776 62.5685 274.896 62.6814C275.1 62.8771 275.884 61.5071 276.043 61.3189C276.518 60.7468 277.053 60.2274 277.611 59.7456C278.75 58.7519 280.002 57.9013 281.171 56.9453C281.729 56.4936 282.317 55.8839 282.226 55.1763C282.211 55.0408 282.158 54.9128 282.098 54.7924L282.091 54.7849Z" fill="white"/>
<path d="M284.496 70.5177C283.418 72.8437 281.789 74.959 279.783 76.5699C272.619 82.3211 264.791 86.5667 255.651 88.0496C250.049 88.9605 244.347 89.4799 238.669 89.1562C236.173 89.0132 233.737 88.3884 231.286 88.298C228.557 88.2002 225.857 87.4399 223.504 86.0473C223.414 83.9094 223.323 81.7715 223.24 79.6337C234.695 78.7454 246.135 77.1797 257.243 74.2439C261.88 73.0169 266.676 71.4135 269.934 67.8905C272.513 65.0978 274.104 61.1382 277.596 59.6176C279.323 58.8649 281.344 58.9552 283.063 59.6778C285.024 60.4984 285.823 62.034 286.095 64.1041C286.441 66.7162 285.559 68.2368 284.503 70.5177H284.496Z" fill="#99D3E8"/>
<path d="M266.933 46.9931C266.247 46.9404 265.568 46.8952 264.882 46.8425" stroke="url(#paint0_linear_74_1391)" stroke-width="0.599368" stroke-miterlimit="10"/>
<path d="M271.813 42.966C271.738 42.6574 272.13 42.4542 272.439 42.3939C273.072 42.266 273.744 42.2208 274.354 42.4466C275.252 42.7703 275.885 43.7113 275.847 44.6673C275.81 45.6233 275.101 46.5116 274.181 46.76C273.261 47.0084 272.198 46.5869 271.692 45.7739" fill="#F7B66F"/>
<path d="M273.072 43.8921C273.419 43.749 273.826 43.7039 274.173 43.8544C274.52 44.005 274.776 44.3814 274.708 44.7577C274.633 45.1793 274.203 45.4352 273.803 45.5933" fill="#1F265C"/>
<path d="M30.8093 86.3252V104.678" stroke="#2A729C" stroke-width="0.599368" stroke-miterlimit="10"/>
<path d="M21.6173 95.5012H40.0023" stroke="#2A729C" stroke-width="0.599368" stroke-miterlimit="10"/>
<path d="M35.4099 87.552L26.2174 103.45" stroke="#2A729C" stroke-width="0.599368" stroke-miterlimit="10"/>
<path d="M22.8541 90.9094L38.7732 100.086" stroke="#2A729C" stroke-width="0.599368" stroke-miterlimit="10"/>
<path d="M38.7732 90.9094L22.8541 100.086" stroke="#2A729C" stroke-width="0.599368" stroke-miterlimit="10"/>
<path d="M26.2174 87.552L35.4099 103.45" stroke="#2A729C" stroke-width="0.599368" stroke-miterlimit="10"/>
<path d="M106.182 12.9526V26.7207" stroke="#2A729C" stroke-width="0.599368" stroke-miterlimit="10"/>
<path d="M99.2888 19.8333H113.081" stroke="#2A729C" stroke-width="0.599368" stroke-miterlimit="10"/>
<path d="M109.628 13.8787L102.735 25.795" stroke="#2A729C" stroke-width="0.599368" stroke-miterlimit="10"/>
<path d="M100.217 16.3926L112.154 23.2804" stroke="#2A729C" stroke-width="0.599368" stroke-miterlimit="10"/>
<path d="M112.154 16.3926L100.217 23.2804" stroke="#2A729C" stroke-width="0.599368" stroke-miterlimit="10"/>
<path d="M102.735 13.8787L109.628 25.795" stroke="#2A729C" stroke-width="0.599368" stroke-miterlimit="10"/>
<path d="M237.591 32.6606V51.0131" stroke="#2A729C" stroke-width="0.599368" stroke-miterlimit="10"/>
<path d="M228.399 41.8367H246.784" stroke="#2A729C" stroke-width="0.599368" stroke-miterlimit="10"/>
<path d="M242.191 33.8875L232.999 49.7784" stroke="#2A729C" stroke-width="0.599368" stroke-miterlimit="10"/>
<path d="M229.628 37.2449L245.555 46.4211" stroke="#2A729C" stroke-width="0.599368" stroke-miterlimit="10"/>
<path d="M245.555 37.2449L229.628 46.4211" stroke="#2A729C" stroke-width="0.599368" stroke-miterlimit="10"/>
<path d="M232.999 33.8875L242.191 49.7784" stroke="#2A729C" stroke-width="0.599368" stroke-miterlimit="10"/>
<path d="M46.9773 207.363V225.723" stroke="#2A729C" stroke-width="0.599368" stroke-miterlimit="10"/>
<path d="M37.7773 216.547H56.1774" stroke="#2A729C" stroke-width="0.599368" stroke-miterlimit="10"/>
<path d="M51.5779 208.59L42.3779 224.496" stroke="#2A729C" stroke-width="0.599368" stroke-miterlimit="10"/>
<path d="M39.0145 211.955L54.9412 221.131" stroke="#2A729C" stroke-width="0.599368" stroke-miterlimit="10"/>
<path d="M54.9412 211.955L39.0145 221.131" stroke="#2A729C" stroke-width="0.599368" stroke-miterlimit="10"/>
<path d="M42.3779 208.59L51.5779 224.496" stroke="#2A729C" stroke-width="0.599368" stroke-miterlimit="10"/>
<path d="M181.953 85.8587C180.808 85.8587 179.88 84.9319 179.88 83.7886C179.88 82.6453 180.808 81.7185 181.953 81.7185C183.099 81.7185 184.027 82.6453 184.027 83.7886C184.027 84.9319 183.099 85.8587 181.953 85.8587Z" fill="#4A9175"/>
<path d="M193.808 91.7829C193.808 92.882 194.705 93.7777 195.806 93.7777C196.907 93.7777 197.804 92.882 197.804 91.7829C197.804 90.6839 196.907 89.7881 195.806 89.7881C194.705 89.7881 193.808 90.6839 193.808 91.7829Z" fill="#4A9175"/>
<path d="M188.673 98.2268C188.673 99.3258 189.571 100.222 190.672 100.222C191.773 100.222 192.67 99.3258 192.67 98.2268C192.67 97.1277 191.773 96.2319 190.672 96.2319C189.571 96.2319 188.673 97.1277 188.673 98.2268Z" fill="#4A9175"/>
<path d="M187.406 99.4609C182.57 99.4609 178.651 95.5481 178.651 90.7213C178.651 85.8946 182.57 81.9817 187.406 81.9817C192.241 81.9817 196.161 85.8946 196.161 90.7213C196.161 95.5481 192.241 99.4609 187.406 99.4609Z" fill="#39B8A2"/>
<path d="M181.833 73.6866C181.486 74.0856 181.328 74.4469 181.237 74.7857C181.147 75.1244 181.154 75.4406 181.215 75.7417C181.245 75.8922 181.29 76.0428 181.388 76.1783C181.486 76.3138 181.637 76.4342 181.818 76.5547C182.187 76.7805 182.632 76.9913 182.844 77.2623C182.957 77.3902 183.002 77.5408 183.062 77.6838L183.243 78.1204L183.598 78.9861C183.831 79.5657 184.058 80.1454 184.276 80.7325C184.714 81.8993 185.128 83.0661 185.506 84.2479C185.883 85.4298 186.229 86.6192 186.501 87.8236C186.516 87.9064 186.599 87.9591 186.682 87.9365C186.765 87.9214 186.818 87.8386 186.795 87.7558C186.486 86.5589 186.252 85.347 186.056 84.12C185.852 82.9005 185.687 81.6659 185.551 80.4314C185.483 79.8141 185.415 79.1893 185.362 78.5721L185.279 77.6386L185.242 77.1719C185.234 77.0139 185.204 76.8633 185.242 76.6977C185.309 76.3665 185.604 75.975 185.83 75.6062C185.935 75.418 186.018 75.2449 186.041 75.0792C186.071 74.9136 186.041 74.7631 185.996 74.6125C185.913 74.3114 185.769 74.0329 185.536 73.7694C185.302 73.506 185 73.2651 184.51 73.0618C183.545 72.6704 182.474 72.964 181.825 73.7092L181.833 73.6866Z" fill="#39B8A2"/>
<path d="M179.789 106.108C180.317 106.033 180.664 105.868 180.958 105.664C181.244 105.469 181.448 105.22 181.599 104.957C181.674 104.821 181.742 104.686 181.75 104.513C181.765 104.347 181.727 104.151 181.667 103.948C181.539 103.534 181.335 103.082 181.35 102.744C181.35 102.57 181.41 102.427 181.463 102.277L181.614 101.833L181.916 100.945C182.119 100.357 182.33 99.7702 182.541 99.183C182.971 98.0163 183.424 96.857 183.906 95.7203C184.389 94.5836 184.909 93.4545 185.49 92.363C185.528 92.2877 185.505 92.1974 185.43 92.1597C185.354 92.1221 185.264 92.1447 185.226 92.2199C184.676 93.3265 184.057 94.3954 183.409 95.4568C182.76 96.5107 182.081 97.5495 181.38 98.5808C181.026 99.0927 180.671 99.6046 180.309 100.116L179.759 100.877L179.48 101.253C179.382 101.381 179.306 101.509 179.163 101.614C178.899 101.825 178.417 101.923 178.002 102.059C177.798 102.126 177.625 102.209 177.497 102.322C177.368 102.427 177.293 102.563 177.225 102.706C177.089 102.985 177.014 103.293 177.021 103.639C177.021 103.993 177.097 104.37 177.338 104.844C177.813 105.77 178.816 106.244 179.797 106.108H179.789Z" fill="#39B8A2"/>
<path d="M183.235 88.8851C182.3 88.441 181.388 87.9291 180.491 87.3946C179.593 86.8602 178.711 86.2956 177.836 85.716C176.961 85.1288 176.102 84.5266 175.25 83.9018C174.812 83.6157 174.752 82.5468 174.284 82.3285C174.058 82.2081 173.787 82.1704 173.47 82.2306C173.153 82.2984 172.799 82.4339 172.324 82.8027C171.833 83.1942 171.577 83.7738 171.57 84.3534C171.57 84.9557 171.683 85.317 171.826 85.6106C171.977 85.8966 172.173 86.0923 172.414 86.1977C172.882 86.4311 173.756 85.8213 174.254 85.9869C175.272 86.273 176.283 86.5741 177.286 86.8978C178.281 87.2215 179.269 87.5678 180.242 87.9366C181.214 88.313 182.172 88.7044 183.107 89.1712C183.183 89.2088 183.273 89.1712 183.311 89.1034C183.349 89.0281 183.311 88.9378 183.243 88.9002H183.235V88.8851Z" fill="#39B8A2"/>
<path d="M195.513 79.7461C195.158 80.7398 194.676 81.628 194.163 82.4862C193.643 83.3443 193.054 84.1498 192.496 84.9703L191.629 86.1823L190.732 87.3792C190.128 88.1696 189.51 88.9449 188.854 89.6901C188.801 89.7504 188.801 89.8482 188.869 89.9009C188.929 89.9536 189.027 89.9536 189.08 89.8859C189.08 89.8859 189.08 89.8859 189.08 89.8783C189.683 89.0879 190.324 88.3276 190.973 87.5824L191.968 86.4683L192.986 85.3768C193.68 84.6617 194.359 83.9315 195.098 83.254C195.844 82.5765 196.621 81.9291 197.519 81.3871C198.167 80.9957 198.378 80.1451 197.979 79.4977C197.586 78.8503 196.734 78.6395 196.086 79.0385C195.807 79.2116 195.611 79.46 195.505 79.7461H195.513Z" fill="#39B8A2"/>
<path d="M192.278 92.536C193.077 93.0704 193.846 93.6425 194.6 94.2297C194.985 94.5233 195.354 94.8244 195.724 95.133C196.101 95.4341 196.47 95.7427 196.832 96.0589C197.571 96.6762 198.295 97.316 199.012 97.9709C199.374 98.2946 199.713 98.6409 200.03 99.0323C200.339 99.4238 200.633 99.8453 200.859 100.365C201.327 101.426 202.563 101.9 203.627 101.434C204.69 100.967 205.165 99.7324 204.698 98.671C204.366 97.9182 203.642 97.459 202.873 97.4289C202.307 97.4064 201.809 97.2859 201.327 97.1354C200.844 96.9848 200.399 96.7966 199.969 96.5783C199.102 96.1492 198.242 95.7051 197.398 95.2459C196.968 95.0201 196.546 94.7867 196.131 94.5534C195.709 94.32 195.294 94.0791 194.879 93.8307C194.05 93.3414 193.235 92.8371 192.451 92.2875C192.383 92.2424 192.285 92.2574 192.24 92.3252C192.195 92.3929 192.21 92.4908 192.278 92.536Z" fill="#39B8A2"/>
<path d="M186.5 95.6672C186.583 96.6007 186.629 97.5341 186.651 98.475C186.666 98.9418 186.674 99.416 186.681 99.8827C186.681 100.349 186.689 100.824 186.681 101.298C186.681 102.239 186.651 103.18 186.629 104.128C186.613 105.069 186.523 106.018 186.078 107.004C185.641 107.99 186.078 109.142 187.066 109.578C188.054 110.015 189.208 109.578 189.645 108.592C189.939 107.937 189.841 107.207 189.449 106.665C188.823 105.784 188.544 104.874 188.34 103.955C188.129 103.037 187.91 102.118 187.729 101.193C187.631 100.733 187.541 100.267 187.45 99.8074C187.36 99.3483 187.277 98.8815 187.202 98.4223C187.043 97.4964 186.9 96.5705 186.794 95.6371C186.787 95.5543 186.711 95.4941 186.629 95.5016C186.546 95.5091 186.485 95.5844 186.493 95.6672H186.5Z" fill="#39B8A2"/>
<path d="M189.872 87.9515C190.95 87.9138 192.028 87.9138 193.114 87.9289C193.657 87.9289 194.193 87.9515 194.736 87.9665C195.279 87.9816 195.814 88.0042 196.357 88.0343C197.443 88.0794 198.521 88.1547 199.607 88.2225C200.693 88.2827 201.779 88.4182 202.88 88.9075C203.838 89.329 204.954 88.8999 205.383 87.9439C205.806 86.9879 205.376 85.8738 204.418 85.4447C203.86 85.1963 203.234 85.249 202.729 85.52C201.673 86.0997 200.602 86.3405 199.532 86.4911C198.461 86.6642 197.39 86.8298 196.312 86.9729C195.776 87.0481 195.241 87.1159 194.698 87.1836C194.162 87.2514 193.627 87.3116 193.084 87.3718C192.006 87.4847 190.935 87.5826 189.857 87.6428C189.774 87.6428 189.706 87.7181 189.713 87.8009C189.713 87.8837 189.789 87.9439 189.872 87.9439V87.9515Z" fill="#39B8A2"/>
<path d="M181.909 92.2646C181.268 92.483 180.627 92.6787 179.971 92.8593C179.322 93.04 178.666 93.2131 178.01 93.3787C177.354 93.5443 176.69 93.6949 176.027 93.8455C175.356 93.981 174.677 94.0863 173.945 94.0412C173.237 93.996 172.618 94.538 172.573 95.2456C172.528 95.9532 173.071 96.5705 173.78 96.6156C174.149 96.6382 174.496 96.5027 174.752 96.2694C175.288 95.765 175.876 95.4112 176.479 95.095C177.09 94.7939 177.693 94.4778 178.304 94.1917C178.915 93.8982 179.526 93.6121 180.144 93.3411C180.763 93.0626 181.381 92.8066 182.014 92.5658C182.09 92.5356 182.135 92.4453 182.105 92.37C182.075 92.2948 181.992 92.2571 181.916 92.2797L181.909 92.2646Z" fill="#39B8A2"/>
<path d="M183.409 77.1794C182.022 77.1794 180.898 76.0571 180.898 74.6727C180.898 73.2883 182.022 72.166 183.409 72.166C184.796 72.166 185.92 73.2883 185.92 74.6727C185.92 76.0571 184.796 77.1794 183.409 77.1794Z" fill="#1F4178" stroke="#39B8A2" stroke-width="1.19874" stroke-miterlimit="10"/>
<path d="M170.477 83.7887C170.477 84.9254 171.397 85.8437 172.535 85.8437C173.674 85.8437 174.594 84.9254 174.594 83.7887C174.594 82.652 173.674 81.7336 172.535 81.7336C171.397 81.7336 170.477 82.652 170.477 83.7887Z" fill="#1F4178" stroke="#39B8A2" stroke-width="1.19874" stroke-miterlimit="10"/>
<path d="M180.242 92.9798C180.242 94.4251 181.41 95.5919 182.858 95.5919C184.306 95.5919 185.475 94.4251 185.475 92.9798C185.475 91.5345 184.306 90.3677 182.858 90.3677C181.41 90.3677 180.242 91.5345 180.242 92.9798Z" fill="#4A9175"/>
<path d="M188.024 94.3577C188.024 95.8181 189.215 97.0075 190.678 97.0075C192.141 97.0075 193.333 95.8181 193.333 94.3577C193.333 92.8974 192.141 91.708 190.678 91.708C189.215 91.708 188.024 92.8974 188.024 94.3577Z" fill="#4A9175"/>
<path d="M186.591 83.578C186.591 84.8879 187.655 85.9417 188.959 85.9417C190.264 85.9417 191.327 84.8803 191.327 83.578C191.327 82.2758 190.264 81.2144 188.959 81.2144C187.655 81.2144 186.591 82.2758 186.591 83.578Z" fill="#4A9175"/>
<path d="M188.801 94.3573C188.801 95.3886 189.638 96.2317 190.679 96.2317C191.719 96.2317 192.556 95.3961 192.556 94.3573C192.556 93.3185 191.719 92.4829 190.679 92.4829C189.638 92.4829 188.801 93.3185 188.801 94.3573Z" fill="#1F4178"/>
<path d="M187.179 83.578C187.179 84.5566 187.978 85.3546 188.959 85.3546C189.939 85.3546 190.738 84.5566 190.738 83.578C190.738 82.5994 189.939 81.8015 188.959 81.8015C187.978 81.8015 187.179 82.5994 187.179 83.578Z" fill="#1F4178"/>
<path d="M181.079 92.9801C181.079 93.9587 181.878 94.7567 182.859 94.7567C183.839 94.7567 184.638 93.9587 184.638 92.9801C184.638 92.0015 183.839 91.2036 182.859 91.2036C181.878 91.2036 181.079 92.0015 181.079 92.9801Z" fill="#1F4178"/>
<path d="M195.731 79.6258C195.731 80.4915 196.433 81.1916 197.3 81.1916C198.167 81.1916 198.868 80.4915 198.868 79.6258C198.868 78.7601 198.167 78.0601 197.3 78.0601C196.433 78.0601 195.731 78.7601 195.731 79.6258Z" fill="#1F4178" stroke="#39B8A2" stroke-width="1.19874" stroke-miterlimit="10"/>
<path d="M201.236 99.4613C201.236 100.327 201.937 101.027 202.804 101.027C203.671 101.027 204.373 100.327 204.373 99.4613C204.373 98.5956 203.671 97.8955 202.804 97.8955C201.937 97.8955 201.236 98.5956 201.236 99.4613Z" fill="#1F4178" stroke="#39B8A2" stroke-width="1.19874" stroke-miterlimit="10"/>
<path d="M188.024 109.518C187.157 109.518 186.455 108.817 186.455 107.952C186.455 107.088 187.157 106.387 188.024 106.387C188.89 106.387 189.592 107.088 189.592 107.952C189.592 108.817 188.89 109.518 188.024 109.518Z" fill="#1F4178" stroke="#39B8A2" stroke-width="1.19874" stroke-miterlimit="10"/>
<path d="M177.097 104.242C177.097 105.401 178.04 106.342 179.201 106.342C180.363 106.342 181.305 105.401 181.305 104.242C181.305 103.082 180.363 102.141 179.201 102.141C178.04 102.141 177.097 103.082 177.097 104.242Z" fill="#1F4178" stroke="#39B8A2" stroke-width="1.19874" stroke-miterlimit="10"/>
<path d="M142.884 109.797C143.91 110.308 145.154 109.894 145.667 108.878C146.179 107.854 145.765 106.612 144.747 106.1C143.729 105.589 142.477 106.003 141.964 107.019C141.451 108.035 141.866 109.285 142.884 109.797Z" fill="#4A9175"/>
<path d="M156.292 100.966C157.28 101.463 158.479 101.064 158.977 100.078C159.475 99.0921 159.075 97.8952 158.087 97.3983C157.099 96.9015 155.9 97.3005 155.402 98.2866C154.905 99.2727 155.304 100.47 156.292 100.966Z" fill="#4A9175"/>
<path d="M159.753 108.442C160.741 108.939 161.94 108.54 162.437 107.554C162.935 106.567 162.535 105.371 161.547 104.874C160.56 104.377 159.361 104.776 158.863 105.762C158.365 106.748 158.765 107.945 159.753 108.442Z" fill="#4A9175"/>
<path d="M152.461 114.938C147.626 114.938 143.706 111.025 143.706 106.198C143.706 101.371 147.626 97.4585 152.461 97.4585C157.297 97.4585 161.216 101.371 161.216 106.198C161.216 111.025 157.297 114.938 152.461 114.938Z" fill="#39B8A2"/>
<path d="M134.709 103.518C134.913 104.008 135.162 104.309 135.426 104.542C135.689 104.775 135.976 104.911 136.27 104.994C136.421 105.031 136.572 105.061 136.738 105.031C136.904 105.001 137.077 104.926 137.266 104.813C137.635 104.587 138.027 104.279 138.359 104.218C138.525 104.173 138.683 104.203 138.834 104.218L139.302 104.256L140.237 104.331C140.863 104.384 141.481 104.444 142.099 104.512C143.336 104.647 144.573 104.806 145.802 104.994C147.031 105.189 148.245 105.415 149.444 105.709C149.527 105.731 149.61 105.679 149.625 105.596C149.648 105.513 149.595 105.43 149.512 105.415C148.306 105.152 147.114 104.813 145.93 104.444C144.746 104.075 143.57 103.669 142.401 103.24C141.813 103.021 141.232 102.803 140.651 102.577L139.777 102.231L139.339 102.058C139.196 101.998 139.045 101.953 138.917 101.84C138.646 101.636 138.434 101.192 138.201 100.823C138.087 100.643 137.959 100.492 137.824 100.394C137.688 100.296 137.537 100.251 137.386 100.221C137.085 100.161 136.768 100.161 136.428 100.251C136.089 100.342 135.735 100.5 135.335 100.853C134.551 101.539 134.332 102.63 134.709 103.541V103.518Z" fill="#39B8A2"/>
<path d="M162.823 119.906C162.989 119.402 162.996 119.01 162.951 118.664C162.906 118.318 162.777 118.024 162.604 117.768C162.513 117.64 162.423 117.52 162.272 117.437C162.129 117.347 161.94 117.294 161.729 117.256C161.299 117.189 160.809 117.166 160.508 116.993C160.349 116.918 160.251 116.797 160.138 116.684L159.806 116.353L159.143 115.683C158.705 115.239 158.275 114.787 157.846 114.336C156.993 113.425 156.164 112.506 155.357 111.558C154.558 110.609 153.781 109.646 153.065 108.637C153.019 108.569 152.921 108.554 152.853 108.6C152.786 108.645 152.77 108.743 152.816 108.81C153.562 109.796 154.241 110.828 154.897 111.882C155.553 112.935 156.179 114.004 156.782 115.096C157.084 115.638 157.378 116.187 157.672 116.744L158.102 117.573L158.313 117.987C158.381 118.13 158.464 118.258 158.494 118.431C158.562 118.762 158.434 119.236 158.366 119.665C158.336 119.876 158.328 120.072 158.366 120.237C158.404 120.403 158.487 120.531 158.585 120.651C158.773 120.892 159.014 121.103 159.331 121.254C159.648 121.404 160.017 121.517 160.553 121.509C161.593 121.502 162.476 120.817 162.785 119.884L162.823 119.906Z" fill="#39B8A2"/>
<path d="M148.947 109.089C148.125 109.721 147.258 110.308 146.383 110.866C145.501 111.423 144.603 111.957 143.683 112.476C142.771 112.988 141.843 113.485 140.901 113.967C140.448 114.23 139.468 113.801 139.061 114.118C138.85 114.268 138.699 114.494 138.608 114.803C138.525 115.119 138.488 115.495 138.608 116.082C138.736 116.699 139.136 117.189 139.656 117.452C140.192 117.723 140.569 117.783 140.893 117.783C141.217 117.783 141.481 117.686 141.677 117.52C142.092 117.204 141.941 116.15 142.311 115.781C143.027 114.998 143.751 114.238 144.483 113.493C145.222 112.747 145.976 112.025 146.745 111.325C147.514 110.625 148.306 109.947 149.135 109.322C149.203 109.27 149.218 109.179 149.166 109.112C149.113 109.044 149.022 109.029 148.954 109.081H148.947V109.089Z" fill="#39B8A2"/>
<path d="M146.277 94.0411C147.001 94.8014 147.582 95.6295 148.125 96.4801C148.66 97.3307 149.113 98.2115 149.603 99.0847L150.297 100.402L150.96 101.734C151.39 102.63 151.813 103.526 152.182 104.452C152.212 104.527 152.303 104.565 152.378 104.535C152.454 104.505 152.491 104.414 152.461 104.339C152.461 104.339 152.461 104.339 152.461 104.331C152.024 103.443 151.632 102.525 151.255 101.606L150.704 100.221L150.184 98.8212C149.859 97.8803 149.505 96.9468 149.226 95.9833C148.955 95.0197 148.728 94.0336 148.645 92.9797C148.585 92.2194 147.921 91.6549 147.167 91.7151C146.413 91.7753 145.84 92.4378 145.9 93.1905C145.923 93.5142 146.066 93.8078 146.277 94.0261V94.0411Z" fill="#39B8A2"/>
<path d="M156.277 102.668C157.114 102.194 157.966 101.765 158.841 101.358C159.27 101.147 159.715 100.952 160.153 100.756C160.59 100.553 161.035 100.364 161.48 100.184C162.37 99.8074 163.267 99.4461 164.165 99.0998C164.617 98.9267 165.077 98.7761 165.575 98.6708C166.065 98.5654 166.578 98.4976 167.136 98.5277C168.29 98.5879 169.277 97.6922 169.338 96.5404C169.398 95.3887 168.501 94.4026 167.347 94.3423C166.525 94.3047 165.793 94.7413 165.416 95.4113C165.137 95.9006 164.813 96.2995 164.466 96.6609C164.119 97.0222 163.742 97.3384 163.358 97.6244C162.581 98.204 161.804 98.7761 161.012 99.3257C160.62 99.6042 160.221 99.8827 159.821 100.146C159.421 100.417 159.022 100.681 158.614 100.937C157.807 101.456 156.986 101.953 156.141 102.412C156.066 102.45 156.043 102.54 156.081 102.615C156.118 102.691 156.209 102.713 156.284 102.675L156.277 102.668Z" fill="#39B8A2"/>
<path d="M156.48 109.232C157.355 109.578 158.215 109.955 159.059 110.354C159.489 110.549 159.912 110.752 160.334 110.963C160.756 111.167 161.178 111.377 161.601 111.596C162.445 112.017 163.275 112.469 164.104 112.913C164.941 113.35 165.748 113.861 166.435 114.697C167.121 115.533 168.35 115.653 169.187 114.976C170.024 114.29 170.145 113.063 169.466 112.228C169.014 111.671 168.312 111.437 167.656 111.535C166.585 111.701 165.643 111.535 164.73 111.302C163.81 111.084 162.89 110.858 161.985 110.609C161.525 110.489 161.073 110.361 160.62 110.233C160.168 110.105 159.715 109.977 159.263 109.834C158.366 109.563 157.468 109.27 156.594 108.946C156.518 108.916 156.428 108.953 156.397 109.036C156.367 109.111 156.405 109.202 156.48 109.232Z" fill="#39B8A2"/>
<path d="M151.096 102.751C151.541 101.772 152.031 100.809 152.536 99.8525C152.785 99.3708 153.042 98.8965 153.298 98.4223C153.555 97.948 153.818 97.4738 154.082 97.0071C154.61 96.0661 155.161 95.1252 155.711 94.1917C156.247 93.2508 156.865 92.3475 157.793 91.5796C158.599 90.9172 158.72 89.7203 158.049 88.9148C157.385 88.1094 156.186 87.9889 155.379 88.6589C154.904 89.0503 154.671 89.63 154.693 90.1945C154.738 91.399 154.475 92.4604 154.128 93.4841C153.796 94.5154 153.464 95.5467 153.11 96.5705C152.936 97.0824 152.755 97.5942 152.574 98.0986C152.393 98.6105 152.212 99.1148 152.016 99.6192C151.639 100.628 151.239 101.637 150.81 102.623C150.779 102.698 150.81 102.788 150.885 102.818C150.96 102.849 151.051 102.818 151.081 102.743L151.096 102.751Z" fill="#39B8A2"/>
<path d="M151.383 111.799C151.292 112.469 151.172 113.131 151.044 113.794C150.915 114.456 150.772 115.118 150.621 115.781C150.478 116.443 150.312 117.098 150.146 117.761C149.965 118.416 149.754 119.07 149.385 119.703C149.023 120.32 149.234 121.11 149.845 121.464C150.455 121.818 151.255 121.615 151.609 121.005C151.798 120.689 151.828 120.313 151.73 119.981C151.519 119.281 151.466 118.596 151.451 117.911C151.451 117.234 151.451 116.556 151.458 115.879C151.466 115.201 151.488 114.524 151.526 113.854C151.556 113.176 151.602 112.506 151.669 111.836C151.677 111.754 151.617 111.678 151.534 111.671C151.451 111.663 151.383 111.723 151.368 111.799H151.383Z" fill="#39B8A2"/>
<path d="M135.177 104.798C136.421 105.423 137.93 104.919 138.555 103.684C139.181 102.442 138.676 100.937 137.439 100.312C136.195 99.6871 134.687 100.191 134.061 101.426C133.435 102.668 133.94 104.174 135.177 104.798Z" fill="#1F4178" stroke="#39B8A2" stroke-width="1.19874" stroke-miterlimit="10"/>
<path d="M138.661 118.183C139.68 118.695 140.916 118.281 141.429 117.264C141.942 116.248 141.527 115.013 140.509 114.502C139.491 113.99 138.254 114.404 137.741 115.42C137.229 116.436 137.643 117.671 138.661 118.183Z" fill="#1F4178" stroke="#39B8A2" stroke-width="1.19874" stroke-miterlimit="10"/>
<path d="M151.277 113.606C152.567 114.253 154.143 113.734 154.791 112.446C155.44 111.159 154.92 109.586 153.63 108.938C152.341 108.291 150.764 108.811 150.116 110.098C149.467 111.385 149.988 112.958 151.277 113.606Z" fill="#4A9175"/>
<path d="M155.998 107.282C157.31 107.937 158.901 107.41 159.565 106.108C160.221 104.798 159.693 103.21 158.388 102.547C157.076 101.892 155.485 102.419 154.821 103.722C154.158 105.024 154.693 106.62 155.998 107.282Z" fill="#4A9175"/>
<path d="M145.704 103.722C146.873 104.309 148.298 103.835 148.886 102.668C149.475 101.501 148.999 100.078 147.831 99.4913C146.662 98.9041 145.236 99.3784 144.648 100.545C144.06 101.712 144.535 103.135 145.704 103.722Z" fill="#4A9175"/>
<path d="M156.345 106.59C157.273 107.057 158.396 106.68 158.864 105.754C159.331 104.828 158.954 103.707 158.027 103.24C157.099 102.773 155.976 103.15 155.508 104.076C155.041 105.002 155.418 106.123 156.345 106.59Z" fill="#1F4178"/>
<path d="M145.968 103.187C146.843 103.624 147.914 103.277 148.359 102.397C148.796 101.523 148.449 100.455 147.567 100.01C146.692 99.5738 145.621 99.9201 145.177 100.801C144.739 101.674 145.086 102.743 145.968 103.187Z" fill="#1F4178"/>
<path d="M151.646 112.853C152.521 113.289 153.592 112.943 154.037 112.062C154.482 111.181 154.127 110.12 153.245 109.676C152.37 109.239 151.299 109.586 150.854 110.466C150.417 111.34 150.764 112.408 151.646 112.853Z" fill="#1F4178"/>
<path d="M146.27 93.7928C147.047 94.1842 147.989 93.8681 148.382 93.0927C148.774 92.3174 148.457 91.3764 147.68 90.985C146.903 90.5935 145.961 90.9097 145.569 91.6851C145.177 92.4604 145.493 93.4014 146.27 93.7928Z" fill="#1F4178" stroke="#39B8A2" stroke-width="1.19874" stroke-miterlimit="10"/>
<path d="M166.495 97.7901C167.272 98.1816 168.215 97.8654 168.607 97.09C168.999 96.3147 168.682 95.3737 167.905 94.9823C167.129 94.5909 166.186 94.907 165.794 95.6824C165.402 96.4577 165.719 97.3987 166.495 97.7901Z" fill="#1F4178" stroke="#39B8A2" stroke-width="1.19874" stroke-miterlimit="10"/>
<path d="M167.46 114.787C168.237 115.179 169.179 114.862 169.571 114.087C169.963 113.312 169.647 112.371 168.87 111.979C168.093 111.588 167.151 111.904 166.759 112.679C166.366 113.455 166.683 114.396 167.46 114.787Z" fill="#1F4178" stroke="#39B8A2" stroke-width="1.19874" stroke-miterlimit="10"/>
<path d="M159.934 121.464C160.975 121.984 162.242 121.57 162.762 120.531C163.282 119.492 162.868 118.227 161.827 117.708C160.786 117.189 159.519 117.603 158.999 118.641C158.479 119.68 158.893 120.945 159.934 121.464Z" fill="#1F4178" stroke="#39B8A2" stroke-width="1.19874" stroke-miterlimit="10"/>
<path d="M150.409 65.9702C151.435 66.482 152.679 66.068 153.192 65.0518C153.705 64.028 153.29 62.786 152.272 62.2741C151.254 61.7622 150.002 62.1762 149.489 63.1924C148.976 64.2087 149.391 65.4583 150.409 65.9702Z" fill="#4A9175"/>
<path d="M163.826 57.14C164.813 57.6369 166.013 57.2379 166.51 56.2518C167.008 55.2656 166.608 54.0687 165.62 53.5719C164.633 53.0751 163.433 53.4741 162.936 54.4602C162.438 55.4463 162.838 56.6432 163.826 57.14Z" fill="#4A9175"/>
<path d="M167.286 64.6151C168.274 65.112 169.473 64.713 169.971 63.7269C170.468 62.7407 170.069 61.5438 169.081 61.047C168.093 60.5502 166.894 60.9492 166.396 61.9353C165.899 62.9214 166.298 64.1183 167.286 64.6151Z" fill="#4A9175"/>
<path d="M159.995 71.1113C155.159 71.1113 151.239 67.1985 151.239 62.3717C151.239 57.5449 155.159 53.6321 159.995 53.6321C164.83 53.6321 168.75 57.5449 168.75 62.3717C168.75 67.1985 164.83 71.1113 159.995 71.1113Z" fill="#39B8A2"/>
<path d="M142.242 59.6924C142.446 60.1817 142.695 60.4828 142.959 60.7161C143.223 60.9495 143.509 61.085 143.803 61.1678C143.954 61.2054 144.105 61.2355 144.271 61.2054C144.437 61.1753 144.61 61.1 144.799 60.9871C145.168 60.7613 145.56 60.4527 145.892 60.3924C146.058 60.3473 146.217 60.3774 146.367 60.3924L146.835 60.4301L147.77 60.5053C148.396 60.558 149.014 60.6183 149.633 60.686C150.869 60.8215 152.106 60.9796 153.335 61.1678C154.564 61.3635 155.779 61.5893 156.978 61.8829C157.061 61.9055 157.143 61.8528 157.159 61.77C157.181 61.6872 157.128 61.6044 157.045 61.5893C155.839 61.3259 154.647 60.9871 153.463 60.6183C152.28 60.2494 151.103 59.8429 149.934 59.4138C149.346 59.1955 148.765 58.9772 148.185 58.7514L147.31 58.4051L146.873 58.232C146.729 58.1718 146.579 58.1266 146.45 58.0137C146.179 57.8104 145.968 57.3663 145.734 56.9975C145.621 56.8168 145.493 56.6662 145.357 56.5684C145.221 56.4705 145.07 56.4254 144.919 56.3952C144.618 56.335 144.301 56.335 143.962 56.4254C143.622 56.5157 143.268 56.6738 142.868 57.0276C142.084 57.7126 141.865 58.8041 142.242 59.7149V59.6924Z" fill="#39B8A2"/>
<path d="M170.356 76.0797C170.522 75.5753 170.529 75.1839 170.484 74.8376C170.439 74.4914 170.311 74.1978 170.137 73.9418C170.047 73.8139 169.956 73.6934 169.805 73.6106C169.662 73.5203 169.474 73.4676 169.263 73.4299C168.833 73.3622 168.343 73.3396 168.041 73.1665C167.883 73.0912 167.784 72.9708 167.671 72.8578L167.34 72.5266L166.676 71.8567C166.239 71.4125 165.809 70.9609 165.379 70.5092C164.527 69.5984 163.697 68.68 162.89 67.7315C162.091 66.783 161.314 65.8195 160.598 64.8108C160.553 64.743 160.455 64.728 160.387 64.7731C160.319 64.8183 160.304 64.9162 160.349 64.9839C161.096 65.97 161.774 67.0013 162.43 68.0552C163.086 69.1091 163.712 70.178 164.316 71.2695C164.617 71.8115 164.911 72.361 165.205 72.9181L165.635 73.7461L165.846 74.1601C165.914 74.3032 165.997 74.4311 166.027 74.6043C166.095 74.9355 165.967 75.4097 165.899 75.8388C165.869 76.0496 165.862 76.2453 165.899 76.4109C165.937 76.5765 166.02 76.7045 166.118 76.8249C166.306 77.0658 166.548 77.2766 166.864 77.4271C167.181 77.5777 167.551 77.6906 168.086 77.6831C169.127 77.6756 170.009 76.9905 170.318 76.0571L170.356 76.0797Z" fill="#39B8A2"/>
<path d="M156.48 65.2702C155.658 65.9025 154.791 66.4897 153.916 67.0467C153.034 67.6037 152.137 68.1382 151.217 68.6576C150.304 69.1695 149.377 69.6663 148.434 70.1481C147.982 70.4116 147.001 69.9825 146.594 70.2987C146.383 70.4492 146.232 70.675 146.142 70.9837C146.059 71.2998 146.021 71.6762 146.142 72.2634C146.27 72.8806 146.669 73.3699 147.19 73.6334C147.725 73.9044 148.102 73.9646 148.426 73.9646C148.751 73.9646 149.015 73.8668 149.211 73.7012C149.625 73.385 149.475 72.3311 149.844 71.9623C150.561 71.1794 151.285 70.4191 152.016 69.6739C152.755 68.9286 153.509 68.206 154.278 67.5059C155.047 66.8058 155.839 66.1283 156.669 65.5035C156.737 65.4508 156.752 65.3605 156.699 65.2928C156.646 65.225 156.556 65.2099 156.488 65.2626H156.48V65.2702Z" fill="#39B8A2"/>
<path d="M153.811 50.2223C154.535 50.9826 155.115 51.8106 155.658 52.6613C156.194 53.5119 156.646 54.3926 157.136 55.2658L157.83 56.5832L158.494 57.9156C158.924 58.8114 159.346 59.7072 159.715 60.6331C159.746 60.7083 159.836 60.746 159.912 60.7159C159.987 60.6858 160.025 60.5954 159.994 60.5201C159.994 60.5201 159.994 60.5201 159.994 60.5126C159.557 59.6244 159.165 58.706 158.788 57.7876L158.237 56.4025L157.717 55.0024C157.393 54.0614 157.038 53.128 156.759 52.1644C156.488 51.2009 156.262 50.2148 156.179 49.1609C156.118 48.4006 155.455 47.836 154.701 47.8962C153.939 47.9565 153.373 48.6189 153.434 49.3717C153.456 49.6954 153.6 49.9889 153.811 50.2072V50.2223Z" fill="#39B8A2"/>
<path d="M163.81 58.8415C164.647 58.3673 165.499 57.9382 166.374 57.5317C166.804 57.3209 167.249 57.1252 167.686 56.9295C168.123 56.7263 168.568 56.5381 169.013 56.3574C169.903 55.981 170.801 55.6197 171.698 55.2734C172.15 55.1003 172.61 54.9497 173.108 54.8443C173.598 54.7389 174.111 54.6712 174.669 54.7013C175.823 54.7615 176.811 53.8657 176.871 52.714C176.931 51.5623 176.034 50.5761 174.88 50.5159C174.058 50.4783 173.327 50.9149 172.95 51.5849C172.671 52.0742 172.346 52.4731 172 52.8345C171.653 53.1958 171.276 53.5119 170.891 53.798C170.114 54.3776 169.338 54.9497 168.546 55.4992C168.154 55.7778 167.754 56.0563 167.354 56.3198C166.955 56.5908 166.555 56.8542 166.148 57.1102C165.341 57.6296 164.519 58.1264 163.674 58.5856C163.599 58.6232 163.576 58.7136 163.614 58.7888C163.652 58.8641 163.742 58.8867 163.818 58.8491L163.81 58.8415Z" fill="#39B8A2"/>
<path d="M164.014 65.4055C164.888 65.7518 165.748 66.1281 166.593 66.5271C167.023 66.7228 167.445 66.9261 167.867 67.1368C168.289 67.3401 168.712 67.5509 169.134 67.7692C169.979 68.1907 170.808 68.6424 171.638 69.0865C172.475 69.5231 173.282 70.035 173.968 70.8706C174.654 71.7061 175.883 71.8266 176.72 71.1491C177.557 70.4641 177.678 69.2371 176.999 68.4015C176.547 67.8444 175.846 67.6111 175.19 67.7089C174.119 67.8746 173.176 67.709 172.264 67.4756C171.344 67.2573 170.424 67.0315 169.519 66.783C169.059 66.6626 168.606 66.5346 168.154 66.4067C167.701 66.2787 167.249 66.1507 166.796 66.0077C165.899 65.7367 165.002 65.4431 164.127 65.1194C164.051 65.0893 163.961 65.127 163.931 65.2098C163.901 65.285 163.938 65.3754 164.014 65.4055Z" fill="#39B8A2"/>
<path d="M158.629 58.9318C159.074 57.9532 159.565 56.9897 160.07 56.0337C160.319 55.5519 160.575 55.0777 160.831 54.6034C161.088 54.1292 161.352 53.6549 161.616 53.1882C162.144 52.2473 162.694 51.3063 163.245 50.3729C163.78 49.4319 164.398 48.5286 165.326 47.7608C166.133 47.0984 166.253 45.9015 165.582 45.096C164.911 44.2905 163.72 44.1701 162.913 44.84C162.438 45.2315 162.204 45.8111 162.227 46.3757C162.272 47.5801 162.008 48.6415 161.661 49.6653C161.329 50.6966 160.997 51.7279 160.643 52.7516C160.469 53.2635 160.288 53.7754 160.107 54.2797C159.927 54.7916 159.746 55.296 159.549 55.8003C159.172 56.809 158.773 57.8177 158.343 58.8039C158.313 58.8791 158.343 58.9695 158.418 58.9996C158.494 59.0297 158.584 58.9996 158.614 58.9243L158.629 58.9318Z" fill="#39B8A2"/>
<path d="M158.908 67.9724C158.818 68.6423 158.697 69.3048 158.569 69.9672C158.44 70.6296 158.305 71.2921 158.146 71.9545C158.003 72.6169 157.837 73.2718 157.671 73.9343C157.49 74.5892 157.279 75.2441 156.91 75.8764C156.548 76.4937 156.759 77.2841 157.37 77.6379C157.98 77.9917 158.78 77.7884 159.134 77.1787C159.323 76.8625 159.353 76.4861 159.255 76.1549C159.044 75.4549 158.991 74.7698 158.976 74.0848C158.976 73.4073 158.976 72.7298 158.983 72.0524C158.991 71.3749 159.014 70.6974 159.051 70.0274C159.081 69.3499 159.127 68.68 159.195 68.01C159.202 67.9272 159.142 67.8519 159.059 67.8444C158.976 67.8369 158.908 67.8971 158.893 67.9724H158.908Z" fill="#39B8A2"/>
<path d="M142.71 60.9795C143.955 61.6043 145.463 61.1 146.089 59.8654C146.715 58.6234 146.209 57.1178 144.973 56.493C143.728 55.8682 142.22 56.3726 141.594 57.6071C140.968 58.8492 141.474 60.3547 142.71 60.9795Z" fill="#1F4178" stroke="#39B8A2" stroke-width="1.19874" stroke-miterlimit="10"/>
<path d="M146.195 74.356C147.213 74.8679 148.45 74.4538 148.962 73.4376C149.475 72.4214 149.06 71.1868 148.042 70.675C147.024 70.1631 145.788 70.5771 145.275 71.5933C144.762 72.6096 145.177 73.8441 146.195 74.356Z" fill="#1F4178" stroke="#39B8A2" stroke-width="1.19874" stroke-miterlimit="10"/>
<path d="M158.802 69.7792C160.092 70.4266 161.668 69.9072 162.317 68.62C162.965 67.3327 162.445 65.7595 161.155 65.1121C159.866 64.4647 158.29 64.9841 157.641 66.2713C156.993 67.5586 157.513 69.1319 158.802 69.7792Z" fill="#4A9175"/>
<path d="M163.531 63.4634C164.843 64.1183 166.434 63.5914 167.098 62.2891C167.754 60.9793 167.226 59.391 165.922 58.7285C164.609 58.0736 163.018 58.6006 162.355 59.9028C161.699 61.2127 162.226 62.801 163.531 63.4634Z" fill="#4A9175"/>
<path d="M153.23 59.8952C154.399 60.4823 155.824 60.0081 156.413 58.8413C157.001 57.6745 156.526 56.2518 155.357 55.6646C154.188 55.0775 152.763 55.5517 152.175 56.7185C151.586 57.8853 152.062 59.308 153.23 59.8952Z" fill="#4A9175"/>
<path d="M163.878 62.7634C164.806 63.2302 165.93 62.8538 166.397 61.9279C166.865 61.002 166.488 59.8803 165.56 59.4136C164.633 58.9469 163.509 59.3233 163.041 60.2492C162.574 61.1751 162.951 62.2967 163.878 62.7634Z" fill="#1F4178"/>
<path d="M153.502 59.3681C154.377 59.8047 155.448 59.4585 155.892 58.5777C156.337 57.697 155.983 56.6356 155.101 56.1915C154.218 55.7473 153.155 56.1011 152.71 56.9819C152.265 57.8626 152.62 58.924 153.502 59.3681Z" fill="#1F4178"/>
<path d="M159.18 69.0338C160.054 69.4704 161.125 69.1241 161.57 68.2434C162.015 67.3626 161.661 66.3012 160.778 65.8571C159.903 65.4205 158.833 65.7668 158.388 66.6475C157.95 67.5207 158.297 68.5896 159.18 69.0338Z" fill="#1F4178"/>
<path d="M153.803 49.9664C154.58 50.3578 155.523 50.0417 155.915 49.2663C156.307 48.491 155.99 47.55 155.214 47.1586C154.437 46.7671 153.494 47.0833 153.102 47.8586C152.71 48.634 153.027 49.5749 153.803 49.9664Z" fill="#1F4178" stroke="#39B8A2" stroke-width="1.19874" stroke-miterlimit="10"/>
<path d="M174.029 53.9637C174.805 54.3551 175.748 54.039 176.14 53.2636C176.532 52.4883 176.215 51.5473 175.439 51.1559C174.662 50.7644 173.719 51.0806 173.327 51.856C172.935 52.6313 173.252 53.5723 174.029 53.9637Z" fill="#1F4178" stroke="#39B8A2" stroke-width="1.19874" stroke-miterlimit="10"/>
<path d="M174.986 70.9613C175.763 71.3527 176.705 71.0365 177.098 70.2612C177.49 69.4858 177.173 68.5449 176.396 68.1534C175.62 67.762 174.677 68.0782 174.285 68.8535C173.893 69.6289 174.209 70.5698 174.986 70.9613Z" fill="#1F4178" stroke="#39B8A2" stroke-width="1.19874" stroke-miterlimit="10"/>
<path d="M167.467 77.6379C168.508 78.1574 169.775 77.7433 170.295 76.7045C170.816 75.6657 170.401 74.401 169.36 73.8816C168.32 73.3622 167.053 73.7763 166.532 74.8151C166.012 75.8539 166.427 77.1185 167.467 77.6379Z" fill="#1F4178" stroke="#39B8A2" stroke-width="1.19874" stroke-miterlimit="10"/>
<path d="M166.02 263.669L181.494 249.894V121.953H203.099V249.713L218.528 263.617C219.969 265.009 218.981 267.448 216.975 267.448H167.619C165.643 267.448 164.64 265.077 166.02 263.669Z" fill="#99DADE"/>
<path d="M161.699 240.635H226.137V273.997H161.699V240.635Z" fill="#C76F6F"/>
<path d="M194.066 223.065C195.272 223.065 196.26 222.079 196.26 220.874C196.26 219.67 195.28 218.684 194.066 218.684C192.851 218.684 191.871 219.67 191.871 220.874C191.871 222.079 192.851 223.065 194.066 223.065Z" fill="white"/>
<path d="M191.992 210.546C192.565 210.546 193.033 211.013 193.033 211.585C193.033 212.157 192.565 212.624 191.992 212.624C191.419 212.624 190.951 212.157 190.951 211.585C190.951 211.013 191.419 210.546 191.992 210.546Z" fill="white"/>
<path d="M188.341 255.66C189.548 255.66 190.536 254.674 190.536 253.469C190.536 252.265 189.555 251.279 188.341 251.279C187.127 251.279 186.147 252.265 186.147 253.469C186.147 254.674 187.127 255.66 188.341 255.66Z" fill="white"/>
<path d="M188.342 225.812C189.661 225.812 190.732 226.881 190.732 228.199C190.732 229.516 189.661 230.578 188.342 230.578C187.022 230.578 185.959 229.509 185.959 228.199C185.959 226.889 187.03 225.812 188.342 225.812Z" fill="white"/>
<path d="M193.167 237.036C195.286 237.036 197.006 238.752 197.006 240.868C197.006 242.983 195.286 244.699 193.167 244.699C191.048 244.699 189.329 242.983 189.329 240.868C189.329 238.752 191.048 237.036 193.167 237.036Z" fill="white"/>
<path d="M179.7 124.874H204.894C205.973 124.874 206.847 124.001 206.847 122.924C206.847 121.848 205.973 120.975 204.894 120.975H179.7C178.621 120.975 177.746 121.848 177.746 122.924C177.746 124.001 178.621 124.874 179.7 124.874Z" fill="#F7F7F7"/>
<path d="M126.15 24.8769C126.15 24.8769 131.972 32.2088 139.158 32.2088C146.345 32.2088 152.167 24.8769 152.167 24.8769C152.167 24.8769 146.345 17.5449 139.158 17.5449C131.972 17.5449 126.15 24.8769 126.15 24.8769Z" fill="white"/>
<path d="M139.159 32.0209C136.764 32.0209 134.823 28.8225 134.823 24.8772C134.823 20.9318 136.764 17.7334 139.159 17.7334C141.554 17.7334 143.495 20.9318 143.495 24.8772C143.495 28.8225 141.554 32.0209 139.159 32.0209Z" fill="#42C7D6"/>
<path d="M139.158 29.8375C137.497 29.8375 136.15 27.6165 136.15 24.8767C136.15 22.137 137.497 19.916 139.158 19.916C140.82 19.916 142.167 22.137 142.167 24.8767C142.167 27.6165 140.82 29.8375 139.158 29.8375Z" fill="#1F265C"/>
<path d="M228.188 279.402H297.376V299.435H228.188V279.402Z" fill="#75AFE0"/>
<path d="M51.5539 129.075C51.6293 128.624 52.2929 128.669 52.3156 129.12L61.0028 285.402" stroke="#C76F6F" stroke-width="4.79494" stroke-miterlimit="10"/>
<path d="M12.379 281.616C12.741 280.637 47.6785 151.583 51.5546 129.083" stroke="#373875" stroke-width="4.79494" stroke-miterlimit="10"/>
<path d="M93.1205 129.121L101.808 285.402" stroke="#C76F6F" stroke-width="4.79494" stroke-miterlimit="10"/>
<path d="M53.1761 281.616C53.5381 280.637 88.4757 151.583 92.3518 129.083C92.4272 128.631 93.0908 128.676 93.1134 129.128" stroke="#373875" stroke-width="4.79494" stroke-miterlimit="10"/>
<path d="M57.1649 229.08H100.835" stroke="#C76F6F" stroke-width="4.79494" stroke-miterlimit="10"/>
<path d="M54.7136 192.27H98.3837" stroke="#C76F6F" stroke-width="4.79494" stroke-miterlimit="10"/>
<path d="M52.8058 155.467H98.3837" stroke="#C76F6F" stroke-width="4.79494" stroke-miterlimit="10"/>
<path d="M97.4872 73.5961C98.5731 76.3964 99.923 79.0913 101.499 81.6507C102.434 83.1713 103.55 84.722 105.217 85.3844C106.944 86.0769 108.897 85.6629 110.707 85.2489C115.224 84.2026 119.741 83.1637 124.265 82.1174C124.816 85.2037 125.947 89.1332 125.63 92.2722C125.321 95.2908 123.089 95.2682 120.239 95.9758C113.708 97.5943 106.748 98.1137 100.225 96.1791C91.8993 93.7175 84.5695 86.5437 84.0039 77.8944C83.8682 75.7716 84.1547 73.5509 85.3085 71.7668C87.0354 69.1021 92.0652 65.5942 95.0364 68.5224C96.0695 69.5387 96.5295 70.984 97.0197 72.3465C97.1705 72.768 97.3289 73.1821 97.4872 73.6036V73.5961Z" fill="#99C4E8"/>
<path d="M98.6106 52.9852C99.4401 54.1896 100.036 55.4919 100.745 56.7565C101.031 57.2609 101.31 57.7727 101.521 58.3147C101.665 58.6986 101.778 59.0901 101.876 59.4815C102.147 60.5279 102.366 61.5968 102.54 62.6657C102.683 63.5615 102.683 64.4648 102.766 65.3682C102.841 66.1887 103.03 67.0243 103.128 67.8523C104.334 78.3534 101.378 89.7427 100.164 100.244C98.8067 112.002 101.446 120.907 100.3 132.688C99.6136 139.757 99.1083 152.328 99.8247 159.396C89.486 159.75 75.0299 152.825 68.0242 145.229C61.0111 137.634 57.5272 126.914 58.7262 116.662C59.1259 113.222 60.0232 109.864 60.9432 106.529C63.4695 97.3607 66.2069 88.2523 68.9443 79.1438C70.9954 72.3162 73.1371 65.3004 77.5787 59.7224C82.2768 53.8132 92.4345 44.0122 98.6106 52.9927V52.9852Z" fill="#FAFCFD"/>
<path d="M79.8851 188.702C80.1716 188.31 80.413 187.783 80.6241 187.143C81.4612 184.614 82.1474 182.002 82.8864 179.465C83.4143 177.636 83.7536 175.182 82.3585 173.729C81.793 173.142 81.0162 172.841 80.2395 172.645C79.1084 172.359 77.9244 172.276 76.748 172.397C76.2051 172.449 75.6093 172.577 75.2549 173.029C75.0136 173.323 74.2218 172.788 74.1388 173.165C73.2264 177.327 73.7693 182.574 74.4028 186.729C74.4782 187.241 74.5837 187.776 74.8929 188.167C75.7828 189.281 78.8897 190.057 79.8926 188.709L79.8851 188.702Z" fill="#EDC79A"/>
<path d="M72.7441 183.568C75.5191 183.485 78.3093 183.643 81.0618 184.027C81.1598 184.042 81.2579 184.057 81.3333 184.117C81.4464 184.208 81.4615 184.373 81.4765 184.516C81.7405 187.038 84.1536 190.072 86.431 191.073C87.1323 191.382 87.8864 191.577 88.5274 191.991C89.1684 192.413 89.6812 193.151 89.5454 193.903C89.0025 196.862 85.0208 195.823 83.3392 194.889C82.2683 194.302 81.0693 193.73 80.0739 193.045C79.8477 192.887 77.9624 190.877 78.068 190.84C77.6608 190.99 77.706 191.622 77.3667 191.901C77.1103 192.112 76.7408 192.036 76.4241 191.961C74.7123 191.532 72.9024 191.208 71.2434 190.621C71.1906 188.401 71.4093 185.819 71.8617 183.598C72.1558 183.583 72.45 183.575 72.7441 183.568Z" fill="#1F265C"/>
<path d="M26.5477 137.446C27.0228 137.574 27.6035 137.612 28.2746 137.589C30.9291 137.491 33.5986 137.22 36.2229 137.032C38.1157 136.889 40.4986 136.362 41.2829 134.586C41.5996 133.87 41.5694 133.057 41.4412 132.282C41.2527 131.153 40.8681 130.039 40.295 129.008C40.0311 128.533 39.6767 128.036 39.1262 127.856C38.7567 127.735 38.3645 127.781 37.9799 127.833C33.7947 128.42 29.7677 129.76 26.1933 131.755C25.7559 132.004 25.3035 132.275 25.0697 132.689C24.3985 133.878 24.9113 136.987 26.5477 137.439V137.446Z" fill="#EDC79A"/>
<path d="M22.9351 139.945C22.6561 141.232 22.4751 142.542 22.3922 143.852C22.2715 145.719 22.3771 147.721 23.4479 149.257C24.0437 150.107 25.1371 150.8 26.0873 150.378C26.766 150.077 27.1128 149.317 27.3014 148.594C27.7312 146.931 27.6257 145.192 27.7916 143.483C27.9273 142.03 28.425 139.147 29.8502 138.364C30.0765 138.244 30.3253 138.168 30.5139 137.995C30.906 137.626 30.8381 136.994 30.725 136.46C30.2348 134.149 29.5335 131.883 28.6286 129.7C26.1476 130.821 23.6817 131.258 21.2686 132.538C19.8131 133.313 20.982 136.821 21.2459 138.116C21.9322 138.236 22.6184 138.349 23.3046 138.469C23.1689 138.959 23.0482 139.456 22.9427 139.952L22.9351 139.945Z" fill="#1F265C"/>
<path d="M74.9161 84.2779C75.5646 82.7272 76.4695 81.5152 77.5026 80.4689C79.2597 78.6848 81.4164 77.3675 83.4525 75.6512C86.5217 73.0617 90.5109 71.4131 94.5906 71.7443C103.896 72.5046 94.7716 86.0544 94.1381 91.3313C92.3811 105.875 92.6148 123.083 91.5817 136.46C90.6014 149.069 88.4748 161.504 85.3604 173.774C84.9532 175.393 83.1886 183.169 82.4948 185.819C79.8856 185.239 70.0069 184.321 68.4383 183.718C66.2364 173.24 68.9737 155.414 70.3613 144.823C70.9042 140.66 71.2964 136.61 71.5377 132.575C71.8846 126.817 71.9223 121.088 71.6659 115.126C71.2285 104.934 70.8816 93.8682 74.9161 84.2779Z" fill="#75B1CF"/>
<path d="M46.5767 121.246C52.7453 120.05 59.0647 119.334 65.3086 118.687C61.7568 110.949 59.585 102.759 58.846 94.3652C58.6273 91.866 58.5293 89.3442 58.567 86.8149C58.665 79.897 63.6873 70.3218 72.4349 73.7318C76.1677 75.1847 76.771 79.0087 77.7287 82.4715C77.7664 82.607 77.8041 82.7349 77.8418 82.8704C78.89 82.6672 80.0362 82.9909 80.7753 84.1351C82.4569 86.7246 85.315 86.9655 85.4055 90.5336C85.4507 92.3553 85.134 94.2748 84.8248 96.0664C84.4477 98.257 83.4146 100.538 83.6861 102.766C83.7389 103.225 83.7012 103.632 83.5805 103.97C84.9832 109.586 86.2199 115.262 87.1399 121.141C87.6074 124.115 87.992 127.442 86.2123 129.873C84.9304 131.627 82.7887 132.5 80.7376 133.223C73.4002 135.82 65.7988 137.589 58.2201 139.351C50.8751 141.059 43.5377 142.768 36.1928 144.477C35.1747 138.914 34.1567 133.351 33.1387 127.788C32.9124 126.553 44.8121 121.6 46.5692 121.262L46.5767 121.246Z" fill="#99D3E8"/>
<path d="M60.7542 79.3471C60.9654 77.1264 61.2368 74.9058 61.5159 72.6851C63.19 69.4557 64.4644 65.8048 66.2818 63.0422C70.9798 55.8834 78.815 48.9429 87.276 46.677C90.5186 45.8113 92.238 46.3232 94.3344 49.1687C95.6239 50.9151 96.9059 52.6615 98.1954 54.4004C99.0777 55.5973 99.4774 57.3513 100.043 58.7288C103.761 67.7997 102.011 76.9006 98.9495 85.7607L95.2393 96.5027C94.7416 97.9404 94.2439 99.3782 93.7462 100.816C90.8731 100.169 88.1507 98.6104 85.6547 97.1801C77.0956 92.2796 67.9257 87.4168 60.7467 80.5515C60.7467 80.145 60.7542 79.7385 60.7467 79.3321L60.7542 79.3471Z" fill="#1F265C"/>
<path d="M117.282 45.3978C118.292 46.0151 119.25 46.7679 120.23 47.4077C121.196 48.04 122.146 48.8605 122.41 49.9822C122.741 51.435 121.821 52.8577 120.856 53.9944C119.371 55.7333 117.591 57.3292 115.404 57.9916C112.983 58.7218 110.231 57.9916 108.677 55.9366C107.773 54.7321 106.174 54.5439 104.779 54.7848C102.456 55.1913 99.025 56.8775 101.174 59.6176C99.9827 60.423 98.746 61.2511 97.3207 61.492C93.2184 62.1845 91.5217 56.9151 91.0315 53.8062C90.7751 52.1953 90.6469 50.5618 90.9335 48.9659C91.0692 48.2282 91.7931 45.3376 91.2125 44.8332C91.6423 45.2096 92.0797 45.586 92.5095 45.9624C92.864 46.271 93.2335 46.5947 93.6784 46.7528C95.1715 47.2873 98.2181 46.4592 99.7188 46.0527C104.711 44.6827 108.813 43.6439 114.009 44.1708C115.208 44.2913 116.264 44.773 117.267 45.3828L117.282 45.3978Z" fill="#F7B66F"/>
<path d="M116.618 39.2023C113.684 38.5473 111.558 40.3088 109.605 42.2585C109.198 42.665 108.783 43.079 108.27 43.35C108.119 43.4328 107.953 43.5081 107.885 43.6586C107.833 43.7715 107.848 43.8995 107.855 44.02C107.916 44.6899 107.983 45.3674 108.225 45.9922C108.466 46.617 108.903 47.2042 109.522 47.4676C110.125 47.7236 110.819 47.6483 111.422 47.9193C112.093 48.2129 112.448 48.3559 113.232 48.386C114.152 48.4236 115.064 48.115 115.902 47.7838C116.022 47.7386 116.135 47.701 116.248 47.6784C116.897 47.5429 117.357 47.844 117.87 48.4688C118.382 49.0861 118.835 49.7636 119.204 50.4787C119.446 50.9379 119.657 51.4272 119.989 51.8262C121.934 54.107 126.203 51.2239 124.053 48.7172C123.608 48.1978 123.058 47.7687 122.628 47.2343C122.492 47.0611 122.364 46.8805 122.326 46.6622C122.266 46.3686 122.364 46.0675 122.432 45.7739C122.583 45.0814 122.5 44.2533 121.934 43.8242C121.618 43.5834 121.203 43.5156 120.863 43.3048C119.943 42.7252 120.192 41.6036 119.597 40.8809C118.91 40.0529 117.659 39.4281 116.625 39.1947L116.618 39.2023Z" fill="#292727"/>
<path d="M114.816 47.5428C114.921 47.8138 114.982 48.1149 114.967 48.4461C114.952 48.7472 114.823 49.0333 114.673 49.2892C114.296 49.9216 113.655 50.4861 112.87 50.4485C112.478 50.5464 112.071 50.5614 111.664 50.4485C110.005 49.9818 109.484 47.8289 110.676 46.632C111.905 45.405 114.205 46.0222 114.816 47.5428Z" fill="#F7B66F"/>
<path d="M89.99 141.978C89.7336 142.685 89.1002 143.25 88.3762 143.423C87.6447 143.596 86.8378 143.378 86.2949 142.851" fill="#292727"/>
<path d="M113.315 48.0473C113.081 47.558 112.629 47.1816 112.101 47.0461C112.003 47.0235 111.89 47.0085 111.799 47.0461C111.701 47.0913 111.641 47.2042 111.603 47.3021C111.452 47.6709 111.384 48.0699 111.422 48.4689" fill="#292727"/>
<path d="M113.903 56.2375C113.329 55.5224 112.59 54.9428 111.753 54.5664" stroke="#292727" stroke-width="1.19874" stroke-miterlimit="10"/>
<path d="M94.8547 92.2346C92.517 109.051 91.2727 125.281 93.437 142.166C93.5501 143.061 93.6858 143.972 94.1081 144.77C94.5379 145.561 95.3222 146.223 96.2271 146.246C97.1849 146.268 98.037 145.576 98.4819 144.733C98.9268 143.889 99.0475 142.918 99.1606 141.97C100.307 132.365 100.231 123.045 101.084 113.41C102.026 102.864 102.833 92.2873 102.803 81.6958C102.788 77.6911 102.72 73.6939 102.546 69.6892C102.448 67.4535 103.052 59.843 101.242 58.7139C99.8695 60.4302 99.7337 64.1488 99.2662 66.4222C98.6855 69.2752 98.1275 72.1282 97.6071 74.9962C96.5589 80.7248 95.6389 86.4684 94.8321 92.2346H94.8547Z" fill="#FAFCFD"/>
<path d="M115.241 53.8442L117.13 53.7311C117.621 53.7018 118.042 54.075 118.072 54.5646L119.209 73.5079C119.238 73.9976 118.865 74.4184 118.374 74.4477L116.485 74.5608C115.994 74.5901 115.573 74.2169 115.543 73.7272L114.406 54.784C114.376 54.2943 114.75 53.8735 115.241 53.8442Z" fill="#1F265C"/>
<path d="M117.485 127.788V141.346C93.3458 141.722 73.8975 160.684 73.8975 184.028C73.8975 207.371 93.3458 226.325 117.485 226.709V240.267C85.5786 239.883 59.8335 214.861 59.8335 184.028C59.8335 153.194 85.5786 128.172 117.485 127.788Z" fill="#42C7D6"/>
<path d="M117.771 122.263V137.153C91.2647 137.567 69.9085 158.388 69.9085 184.027C69.9085 209.667 91.2647 230.481 117.771 230.902V245.792C82.7282 245.37 54.457 217.894 54.457 184.035C54.457 150.176 82.7282 122.7 117.771 122.278V122.263Z" fill="#1D6180"/>
<path d="M109.756 69.042H126.158V150.529H109.756V69.042Z" fill="#1F265C"/>
<path d="M117.56 119.763H103.888V156.483H145.341V147.495C145.341 132.192 132.891 119.763 117.56 119.763Z" fill="#42C7D6"/>
<path d="M118.858 126.102H97.7731V162.822H139.226V146.435C139.226 135.211 130.101 126.102 118.858 126.102Z" fill="#307A9C"/>
<path d="M115.599 210.073H145.424V275.571H115.599V210.073Z" fill="#1F265C"/>
<path d="M107.568 212.618H179.155L151.359 184.02H86.1366L107.568 212.618Z" fill="#FF8D06"/>
<path d="M132.175 175.717H137.461L139.806 154.293H129.822L132.175 175.717Z" fill="#307A9C"/>
<path d="M111.219 175.717H119.476L123.141 154.293H107.554L111.219 175.717Z" fill="#307A9C"/>
<path d="M154.497 152.02H103.542C102.788 152.02 102.177 152.63 102.177 153.383V158.095C102.177 158.848 102.788 159.457 103.542 159.457H154.497C155.251 159.457 155.862 158.848 155.862 158.095V153.383C155.862 152.63 155.251 152.02 154.497 152.02Z" fill="#1F265C"/>
<path d="M106.776 76.0957H129.143V99.9132H106.776V76.0957Z" fill="#E39A3B"/>
<path d="M125.788 76.0957V99.9132" stroke="#242424" stroke-width="1.19874" stroke-miterlimit="10"/>
<path d="M120.569 76.0955V99.913" stroke="#242424" stroke-width="1.19874" stroke-miterlimit="10"/>
<path d="M115.352 76.0955V99.913" stroke="#242424" stroke-width="1.19874" stroke-miterlimit="10"/>
<path d="M110.125 76.0955V99.913" stroke="#242424" stroke-width="1.19874" stroke-miterlimit="10"/>
<path d="M90.2244 287.179C99.877 278.018 121.716 271.62 147.129 271.62C172.542 271.62 194.381 278.018 204.034 287.179H90.2244Z" fill="#1F265C"/>
<path d="M105.148 200.445C110.065 205.173 123.925 207.777 136.104 206.272C148.283 204.766 154.172 199.715 149.255 194.995C144.339 190.268 130.478 187.663 118.3 189.169C106.121 190.674 100.231 195.726 105.148 200.445Z" fill="white"/>
<path d="M207.585 287.179H87.2004" stroke="#373875" stroke-width="1.19874" stroke-miterlimit="10" stroke-linecap="round"/>
<path d="M126.991 203.707C118.175 203.415 111.118 200.49 111.228 197.174C111.338 193.859 118.574 191.407 127.39 191.699C136.206 191.991 143.264 194.916 143.154 198.232C143.044 201.547 135.807 203.999 126.991 203.707Z" fill="#D47474"/>
<path d="M113.677 191.721H117.017L118.503 173.316H112.191L113.677 191.721Z" fill="#1F265C"/>
<path d="M133.668 191.721H135.968L136.986 173.542H132.643L133.668 191.721Z" fill="#1F265C"/>
<path d="M138.502 173.052H131.134C130.681 173.052 130.304 173.421 130.304 173.88V175.679C130.304 176.131 130.674 176.507 131.134 176.507H138.502C138.954 176.507 139.331 176.139 139.331 175.679V173.88C139.331 173.429 138.962 173.052 138.502 173.052Z" fill="#1F265C"/>
<path d="M110.879 172.774H120.735C121.193 172.774 121.564 173.144 121.564 173.602V175.393C121.564 175.851 121.193 176.221 120.735 176.221H110.879C110.42 176.221 110.049 175.851 110.049 175.393V173.602C110.049 173.144 110.42 172.774 110.879 172.774Z" fill="#1F265C"/>
<path d="M140.855 239.386C141.48 238.874 142.4 239.468 142.189 240.251C141.94 241.17 143.177 241.719 143.698 240.921C144.135 240.236 145.191 240.522 145.236 241.335C145.281 242.284 146.631 242.427 146.88 241.508C147.083 240.726 148.177 240.665 148.471 241.426C148.81 242.314 150.138 242.035 150.085 241.079C150.04 240.266 151.058 239.875 151.57 240.507C152.166 241.253 153.342 240.575 153.003 239.687C152.709 238.934 153.561 238.241 154.24 238.686C155.039 239.205 155.944 238.196 155.341 237.459C154.828 236.834 155.424 235.915 156.208 236.126C157.128 236.375 157.679 235.14 156.879 234.621C156.193 234.184 156.48 233.13 157.294 233.085C158.244 233.04 158.387 231.692 157.467 231.444C156.683 231.241 156.623 230.149 157.384 229.856C158.274 229.517 157.995 228.192 157.038 228.245C156.223 228.29 155.831 227.274 156.464 226.762C157.211 226.167 156.532 224.993 155.643 225.331C154.888 225.625 154.195 224.774 154.64 224.097C155.16 223.299 154.149 222.396 153.41 222.998C152.784 223.51 151.864 222.915 152.076 222.132C152.324 221.214 151.088 220.664 150.567 221.462C150.13 222.147 149.074 221.861 149.029 221.048C148.984 220.1 147.634 219.957 147.385 220.875C147.181 221.658 146.088 221.718 145.794 220.958C145.455 220.07 144.127 220.348 144.18 221.304C144.225 222.117 143.207 222.509 142.695 221.876C142.099 221.131 140.922 221.809 141.262 222.697C141.556 223.45 140.704 224.142 140.025 223.698C139.226 223.179 138.321 224.187 138.924 224.925C139.437 225.55 138.841 226.468 138.057 226.257C137.137 226.009 136.586 227.243 137.386 227.763C138.072 228.2 137.785 229.253 136.971 229.299C136.021 229.344 135.877 230.691 136.798 230.94C137.582 231.143 137.642 232.234 136.88 232.528C135.991 232.867 136.27 234.192 137.227 234.139C138.042 234.094 138.434 235.11 137.8 235.622C137.054 236.216 137.733 237.391 138.622 237.052C139.377 236.758 140.07 237.609 139.625 238.287C139.105 239.085 140.116 239.988 140.855 239.386Z" fill="#42C7D6"/>
<path d="M142.159 261.216C142.657 260.81 143.389 261.284 143.215 261.901C143.019 262.631 144 263.068 144.407 262.428C144.754 261.886 145.591 262.112 145.621 262.752C145.659 263.504 146.729 263.617 146.918 262.887C147.084 262.262 147.951 262.217 148.177 262.819C148.449 263.527 149.497 263.301 149.459 262.548C149.421 261.909 150.236 261.6 150.636 262.097C151.111 262.684 152.038 262.149 151.767 261.442C151.533 260.84 152.204 260.298 152.747 260.651C153.381 261.065 154.097 260.268 153.622 259.68C153.215 259.184 153.69 258.453 154.308 258.627C155.04 258.822 155.477 257.844 154.836 257.437C154.293 257.091 154.519 256.255 155.16 256.225C155.914 256.188 156.027 255.119 155.296 254.93C154.67 254.765 154.625 253.899 155.228 253.673C155.937 253.402 155.711 252.356 154.957 252.394C154.316 252.431 154.006 251.618 154.504 251.219C155.092 250.745 154.557 249.819 153.848 250.09C153.245 250.323 152.702 249.654 153.056 249.112C153.471 248.479 152.672 247.764 152.083 248.238C151.586 248.645 150.854 248.171 151.028 247.553C151.224 246.823 150.243 246.387 149.836 247.026C149.489 247.568 148.652 247.343 148.622 246.703C148.584 245.95 147.514 245.837 147.325 246.567C147.159 247.192 146.292 247.237 146.066 246.635C145.794 245.927 144.746 246.153 144.784 246.906C144.821 247.546 144.007 247.854 143.607 247.358C143.132 246.77 142.205 247.305 142.476 248.013C142.71 248.615 142.039 249.157 141.496 248.803C140.862 248.389 140.146 249.187 140.621 249.774C141.028 250.271 140.553 251.001 139.935 250.828C139.203 250.632 138.766 251.611 139.407 252.017C139.95 252.363 139.724 253.199 139.083 253.229C138.329 253.267 138.216 254.336 138.947 254.524C139.573 254.69 139.618 255.555 139.015 255.781C138.306 256.052 138.532 257.098 139.286 257.061C139.927 257.023 140.237 257.836 139.739 258.235C139.151 258.709 139.686 259.635 140.395 259.364C140.998 259.131 141.541 259.801 141.187 260.343C140.772 260.975 141.571 261.69 142.159 261.216Z" fill="#42C7D6"/>
<path d="M144.016 238.175C140.141 236.584 138.292 232.159 139.886 228.291C141.48 224.423 145.913 222.577 149.788 224.168C153.663 225.759 155.512 230.185 153.918 234.053C152.324 237.92 147.891 239.766 144.016 238.175Z" fill="#1F265C"/>
<path d="M141.226 255.655C140.715 252.519 142.847 249.565 145.987 249.055C149.128 248.545 152.088 250.673 152.599 253.808C153.11 256.943 150.978 259.898 147.837 260.408C144.697 260.918 141.737 258.79 141.226 255.655Z" fill="#1F265C"/>
<path d="M53.7034 193.143C54.7516 192.285 56.2899 193.279 55.9355 194.589C55.5207 196.124 57.5945 197.05 58.4542 195.71C59.1857 194.574 60.9578 195.04 61.0257 196.395C61.1011 197.984 63.3634 198.225 63.7706 196.681C64.1175 195.372 65.9424 195.274 66.4251 196.538C66.9906 198.029 69.2152 197.555 69.1248 195.966C69.0493 194.611 70.7536 193.956 71.6057 195.018C72.6087 196.26 74.5769 195.123 73.9962 193.64C73.5061 192.376 74.9238 191.224 76.0625 191.969C77.3972 192.842 78.9205 191.156 77.91 189.922C77.0504 188.875 78.0458 187.34 79.3579 187.693C80.8963 188.107 81.8238 186.037 80.4815 185.179C79.3428 184.449 79.8104 182.68 81.1678 182.612C82.7589 182.537 83.0002 180.279 81.4543 179.872C80.1422 179.526 80.0441 177.704 81.311 177.222C82.8041 176.658 82.3291 174.437 80.7379 174.527C79.3805 174.603 78.7245 172.902 79.7877 172.051C81.032 171.05 79.8933 169.085 78.4077 169.665C77.1409 170.154 75.9871 168.739 76.7336 167.602C77.6084 166.27 75.9192 164.749 74.6825 165.758C73.6343 166.616 72.0959 165.622 72.4503 164.312C72.8726 162.777 70.7913 161.851 69.9316 163.191C69.2001 164.327 67.428 163.861 67.3601 162.506C67.2847 160.917 65.0224 160.677 64.6152 162.22C64.2683 163.53 62.4434 163.627 61.9608 162.363C61.3952 160.872 59.1706 161.347 59.2611 162.935C59.3365 164.29 57.6322 164.945 56.7801 163.883C55.7771 162.641 53.8089 163.778 54.3896 165.261C54.8798 166.526 53.4621 167.677 52.3234 166.932C50.9886 166.059 49.4653 167.745 50.4758 168.98C51.3355 170.026 50.3401 171.562 49.0279 171.208C47.4896 170.786 46.562 172.864 47.9043 173.722C49.043 174.452 48.5755 176.221 47.2181 176.289C45.6269 176.364 45.3856 178.623 46.9315 179.029C48.2437 179.375 48.3417 181.197 47.0748 181.679C45.5817 182.243 46.0568 184.464 47.6479 184.374C49.0053 184.298 49.6614 186 48.5981 186.85C47.3538 187.851 48.4925 189.816 49.9781 189.237C51.245 188.747 52.3988 190.162 51.6522 191.299C50.7774 192.632 52.4666 194.152 53.7034 193.143Z" fill="#FAFCFD"/>
<path d="M51.7676 182.048C50.3351 175.203 54.7326 168.495 61.5898 167.065C68.4469 165.635 75.167 170.025 76.5995 176.87C78.0321 183.715 73.6346 190.423 66.7774 191.853C59.9203 193.283 53.2002 188.893 51.7676 182.048Z" fill="#1F265C"/>
<path d="M120.321 66.0985C119.853 66.0609 119.378 66.0609 118.911 66.106C118.715 66.1286 118.496 66.1587 118.375 66.3168C117.923 66.8814 119.974 67.0922 120.276 67.1599C121.49 67.4159 122.772 67.589 123.82 68.2966C123.91 68.3568 124.001 68.4246 124.046 68.5224C124.091 68.6203 124.076 68.7558 123.993 68.816C123.941 68.8536 123.865 68.8612 123.805 68.8536C122.606 68.8536 121.512 68.1385 120.291 68.274C120.215 68.2815 120.132 68.2966 120.087 68.3643C120.049 68.4246 120.072 68.5074 120.11 68.5751C120.223 68.7558 120.442 68.8235 120.645 68.8687C121.972 69.1698 123.269 69.2752 124.491 69.9376C124.582 69.9903 124.68 70.043 124.74 70.1258C124.8 70.2086 124.83 70.3291 124.778 70.4269C124.71 70.5398 124.559 70.5624 124.423 70.5699C123.677 70.5775 122.983 70.3065 122.259 70.1936C121.437 70.0581 120.562 70.0505 119.733 70.0505C119.688 70.0505 119.635 70.0505 119.597 70.0806C119.529 70.1258 119.537 70.2387 119.589 70.3065C119.642 70.3742 119.725 70.4043 119.808 70.4269C120.645 70.713 121.528 71.0367 122.425 71.0592C122.923 71.0743 123.413 71.2098 123.85 71.4507C123.978 71.5184 124.114 71.6313 124.084 71.7744C124.061 71.9023 123.918 71.9776 123.79 72.0077C123.224 72.1658 122.659 72.0905 122.093 72.0153C121.188 71.8948 120.344 71.5787 119.424 71.4733C119.197 71.4432 118.881 71.4959 118.866 71.7217C118.85 71.8798 119.016 72.0002 119.16 72.068C120.027 72.4744 121.06 72.3916 121.988 72.4067C122.07 72.4067 122.161 72.4067 122.236 72.4443C122.312 72.482 122.372 72.5648 122.357 72.6476C122.342 72.7304 122.259 72.7831 122.184 72.8207C120.276 73.7918 117.998 73.1294 116.023 72.768C113.7 72.3389 111.385 71.7894 109.175 70.9614C108.323 70.6452 107.403 70.2086 107.056 69.3655C106.581 68.2138 107.479 67.2578 108.565 66.9642C109.085 66.8212 109.635 66.8287 110.178 66.8362C110.706 66.8362 111.242 66.8513 111.769 66.8588C111.92 66.8588 112.079 66.8588 112.222 66.8061C112.373 66.7459 112.493 66.6179 112.606 66.505C113.806 65.3608 115.932 64.7661 117.553 64.7661C118.142 64.7661 118.715 64.8866 119.288 65.0145C119.718 65.1049 120.148 65.1952 120.577 65.2855C120.902 65.3533 121.249 65.4361 121.482 65.677C121.535 65.7297 121.58 65.7899 121.588 65.8652C121.61 66.0082 121.482 66.1437 121.339 66.1813C121.196 66.219 121.052 66.1964 120.902 66.1738C120.713 66.1437 120.525 66.1211 120.329 66.106L120.321 66.0985Z" fill="#F7B66F"/>
<path d="M57.4215 87.8235C57.4819 87.0557 57.5497 86.2803 57.6176 85.5125C57.9419 84.1199 58.2661 82.7272 58.6055 81.3346C61.7727 68.1085 65.5734 54.0619 75.7839 45.0513C79.381 41.8746 85.1348 39.255 89.2899 42.7779C89.3201 42.8005 93.7768 46.5794 93.7768 46.5794C93.7844 46.5794 93.7919 46.5944 93.7994 46.602C93.2414 48.2581 92.525 49.8615 91.786 51.4498C90.6247 53.9565 89.1466 56.6288 88.4981 59.3237C88.0683 61.1003 88.0909 62.6585 87.3519 64.3748C85.3158 69.0796 82.0279 73.5661 78.8079 77.5332C77.918 78.6322 76.9754 79.7388 76.5003 81.0712C76.0253 82.4186 76.0705 83.879 76.1233 85.3092C76.4023 93.1079 76.9905 100.892 77.3449 108.69C77.6692 115.781 78.5213 123.595 76.9151 130.573C76.8397 130.889 76.7266 131.258 76.4174 131.371C76.1911 131.454 75.9423 131.371 75.7161 131.281C71.3649 129.61 67.338 127.253 63.6731 124.393C61.6294 122.797 59.4802 120.893 57.052 119.876C56.7956 109.202 56.6071 98.4827 57.4366 87.831L57.4215 87.8235Z" fill="#FAFCFD"/>
<path d="M108.481 65.602C109.733 68.0561 110.306 71.3532 110.306 74.1459C110.472 75.4859 110.585 75.8848 109.371 76.4569C108.127 77.0441 106.814 77.4656 105.578 78.098C99.3941 81.2822 92.479 83.0361 85.5186 83.2017C82.3966 83.277 79.0182 82.9759 76.2959 81.3198C73.4303 79.5734 72.5858 77.4054 72.1635 74.1083C71.4395 68.3421 71.7638 62.4856 72.5631 56.7269C73.0684 53.0911 73.7923 49.395 75.6399 46.2183C77.2838 43.3879 79.6743 41.4909 82.374 39.737C85.3225 37.825 88.8668 40.3543 90.194 43.0717C91.2121 45.1494 91.3931 47.5356 91.3403 49.8466C91.1668 56.8097 89.0026 63.5545 86.7704 70.1488C88.0901 70.1939 89.357 69.6369 90.5862 69.2078C92.4186 68.5755 94.3341 68.2217 96.2419 67.8679C100.322 67.1151 104.394 66.3548 108.473 65.602H108.481Z" fill="#FAFCFD"/>
<path d="M76.447 81.2745C74.0716 80.1755 72.5332 77.7214 71.9375 75.1771C71.3417 72.6327 71.5529 69.9679 71.8621 67.3709C72.5181 61.8155 73.5814 56.2977 75.0293 50.8928" stroke="#292727" stroke-width="0.599368" stroke-miterlimit="10"/>
<path d="M108.421 55.4622C107.734 54.4836 107.418 53.2566 107.546 52.0747" stroke="#292727" stroke-width="0.599368" stroke-miterlimit="10" stroke-linecap="round"/>
<path d="M287.007 291.507C282.302 291.507 278.494 287.698 278.494 283.008V197.215H295.529V283.008C295.529 287.705 291.713 291.507 287.015 291.507H287.007Z" fill="#99DADE"/>
<path d="M296.019 199.971H277.996C277.159 199.971 276.488 199.293 276.488 198.465C276.488 197.629 277.166 196.959 277.996 196.959H296.019C296.856 196.959 297.527 197.637 297.527 198.465C297.527 199.301 296.848 199.971 296.019 199.971Z" fill="#F0F0F0"/>
<path d="M263.389 291.507C258.683 291.507 254.875 287.698 254.875 283.008V227.288H271.91V283.008C271.91 287.705 268.094 291.507 263.396 291.507H263.389Z" fill="#99DADE"/>
<path d="M272.408 229.652H254.378C253.545 229.652 252.869 228.978 252.869 228.146V228.139C252.869 227.307 253.545 226.633 254.378 226.633H272.408C273.241 226.633 273.916 227.307 273.916 228.139V228.146C273.916 228.978 273.241 229.652 272.408 229.652Z" fill="#F0F0F0"/>
<path d="M240.569 291.507C235.864 291.507 232.055 287.698 232.055 283.008V244.971H249.091V283.008C249.091 287.706 245.275 291.507 240.577 291.507H240.569Z" fill="#99DADE"/>
<path d="M286.909 293.088C282.203 293.088 278.395 289.279 278.395 284.589V235.606H295.43V284.589C295.43 289.286 291.615 293.088 286.917 293.088H286.909Z" fill="#D47474"/>
<path d="M263.29 293.088C258.585 293.088 254.776 289.279 254.776 284.589V253.936H271.812V284.589C271.812 289.286 267.996 293.088 263.298 293.088H263.29Z" fill="#FF8D06"/>
<path d="M240.472 293.088C235.767 293.088 231.958 289.279 231.958 284.589V278.906H248.993V284.589C248.993 289.286 245.178 293.088 240.48 293.088H240.472Z" fill="#1D6180"/>
<path d="M249.574 246.477H231.551C230.714 246.477 230.042 245.799 230.042 244.971C230.042 244.136 230.721 243.466 231.551 243.466H249.574C250.411 243.466 251.082 244.143 251.082 244.971C251.082 245.807 250.403 246.477 249.574 246.477Z" fill="#F0F0F0"/>
<path d="M26.873 294.894L42.4301 267.042V234.703H61.0791V267.87L76.5608 294.864C77.6542 296.769 76.2742 299.14 74.0798 299.14H29.3766C27.1973 299.14 25.8173 296.799 26.8806 294.894H26.873Z" fill="#99DADE"/>
<path d="M41.5635 237.571H61.9545C63.8322 237.571 65.3555 236.622 65.3555 235.456C65.3555 234.289 63.8322 233.34 61.9545 233.34H41.5635C39.6858 233.34 38.1626 234.289 38.1626 235.456C38.1626 236.622 39.6858 237.571 41.5635 237.571Z" fill="#F7F7F7"/>
<path d="M42.3778 276.926H61.1097L69.3822 291.8C70.1589 293.155 69.1786 294.841 67.6176 294.841H35.8246C34.2712 294.841 33.2908 293.178 34.0449 291.823L42.3627 276.926H42.3778Z" fill="#FF8D06"/>
<path d="M56.4188 266.116V294.164" stroke="black" stroke-width="1.19874" stroke-miterlimit="10"/>
<path d="M64.6683 290.189H56.7729" stroke="black" stroke-width="1.19874" stroke-miterlimit="10"/>
<path d="M64.3066 285.176H56.4187" stroke="black" stroke-width="1.19874" stroke-miterlimit="10"/>
<path d="M63.9448 280.17H56.0569" stroke="black" stroke-width="1.19874" stroke-miterlimit="10"/>
<path d="M63.5902 275.157H55.7023" stroke="black" stroke-width="1.19874" stroke-miterlimit="10"/>
<path d="M301.901 299.434H223.233" stroke="black" stroke-width="1.19874" stroke-miterlimit="10" stroke-linecap="round"/>
<path opacity="0.48" d="M198.182 137.115V203.207" stroke="white" stroke-width="4.79494" stroke-miterlimit="10" stroke-linecap="round"/>
<path opacity="0.48" d="M289.127 207.822V273.915" stroke="white" stroke-width="4.79494" stroke-miterlimit="10" stroke-linecap="round"/>
<path opacity="0.48" d="M266.934 234.703V273.915" stroke="white" stroke-width="4.79494" stroke-miterlimit="10" stroke-linecap="round"/>
<path opacity="0.48" d="M244.748 253.635V273.915" stroke="white" stroke-width="4.79494" stroke-miterlimit="10" stroke-linecap="round"/>
<path opacity="0.48" d="M57.1647 242.818V268.239" stroke="white" stroke-width="4.79494" stroke-miterlimit="10" stroke-linecap="round"/>
<path opacity="0.45" d="M196.162 48.5662L215.587 76.0948" stroke="#8BE1F0" stroke-width="3.59621" stroke-miterlimit="10" stroke-linecap="round"/>
</g>
<defs>
<linearGradient id="paint0_linear_74_1391" x1="266.948" y1="46.9178" x2="264.875" y2="46.9178" gradientUnits="userSpaceOnUse">
<stop offset="0.02" stop-color="#1B2E5C"/>
<stop offset="1" stop-color="#2B488D"/>
</linearGradient>
</defs>
</svg>
