<svg width="427" height="264" viewBox="0 0 427 264" fill="none" xmlns="http://www.w3.org/2000/svg">
<g opacity="0.85">
<g clip-path="url(#clip0_74_1643)">
<path d="M280.955 208.067C280.955 172.712 254.936 143.513 221.023 138.366V123.092C221.023 120.29 218.752 118.02 215.95 118.02H204.771C201.969 118.02 199.698 120.29 199.698 123.092V138.366C165.785 143.519 139.766 172.712 139.766 208.067C139.766 230.53 150.258 250.536 166.608 263.465H254.113C270.463 250.536 280.955 230.53 280.955 208.067Z" fill="#80CDBF"/>
<path d="M111.203 185.537L110.98 123.674C110.968 120.414 108.314 117.785 105.06 117.797L91.5801 117.847C88.32 117.859 85.6908 120.513 85.7032 123.767L85.9259 185.63L43.3147 241.065C37.611 251.019 44.8242 263.416 56.2997 263.373L145.197 263.051C157.006 263.008 164.077 249.899 157.625 240.007L111.203 185.531V185.537Z" fill="#80CDBF"/>
<path d="M333.415 185.537L333.192 123.674C333.18 120.414 330.526 117.785 327.272 117.797L313.792 117.847C310.532 117.859 307.903 120.513 307.915 123.767L308.138 185.63L265.527 241.065C259.823 251.019 267.036 263.416 278.512 263.373L367.409 263.051C379.218 263.008 386.289 249.899 379.837 240.007L333.415 185.531V185.537Z" fill="#80CDBF"/>
<path d="M41.1966 46.9517L52.035 46.8218" stroke="white" stroke-width="1.63937" stroke-linecap="round" stroke-linejoin="round"/>
<path d="M44.234 44.9596C45.4341 47.7125 44.1721 50.9108 41.4192 52.111C38.6663 53.3111 35.468 52.0491 34.2679 49.2962C33.0678 46.5433 34.3298 43.345 37.0827 42.1448C39.8356 40.9447 43.0339 42.2067 44.234 44.9596Z" fill="#55BCAA"/>
<path d="M42.8416 46.1348C42.9777 46.7534 42.9468 47.3906 42.7859 47.9783" stroke="white" stroke-width="0.414481" stroke-linecap="round" stroke-linejoin="round"/>
<path d="M65.8932 22.175L61.804 39.608" stroke="white" stroke-width="1.63937" stroke-linecap="round" stroke-linejoin="round"/>
<path d="M63.1395 24.5442C65.447 26.462 68.8742 26.1403 70.7919 23.8328C72.7097 21.5253 72.388 18.0981 70.0805 16.1804C67.773 14.2626 64.3458 14.5843 62.4281 16.8918C60.5103 19.1993 60.832 22.6265 63.1395 24.5442Z" fill="#55BCAA"/>
<path d="M68.9796 17.1638C69.4683 17.5721 69.8333 18.0918 70.0622 18.6609" stroke="white" stroke-width="0.414481" stroke-linecap="round" stroke-linejoin="round"/>
<path d="M69.131 54.0076C72.6038 49.2416 71.5555 42.5627 66.7896 39.0899C62.0236 35.617 55.3447 36.6653 51.8719 41.4313C48.399 46.1972 49.4473 52.8761 54.2133 56.3489C58.9792 59.8218 65.6581 58.7735 69.131 54.0076Z" fill="#388477"/>
<path d="M65.5896 51.387L77.2199 60.9262" stroke="white" stroke-width="1.63937" stroke-linecap="round" stroke-linejoin="round"/>
<path d="M82.6514 59.5709C84.0495 62.2248 83.035 65.5159 80.381 66.914C77.7271 68.3121 74.436 67.2975 73.0379 64.6436C71.6398 61.9897 72.6544 58.6986 75.3083 57.3005C77.9622 55.9024 81.2533 56.9169 82.6514 59.5709Z" fill="#55BCAA"/>
<path d="M80.1585 59.7195C80.4431 60.2886 80.5792 60.9073 80.5668 61.5197" stroke="white" stroke-width="0.414481" stroke-linecap="round" stroke-linejoin="round"/>
<path d="M367.604 68.3867L354.248 61.5261" stroke="white" stroke-width="1.23726" stroke-linecap="round" stroke-linejoin="round"/>
<path d="M364.95 69.0734C364.758 66.8154 366.435 64.8296 368.693 64.6316C370.951 64.4399 372.936 66.1164 373.134 68.3743C373.326 70.6323 371.65 72.6181 369.392 72.8161C367.134 73.0079 365.148 71.3314 364.95 69.0734Z" fill="#55BCAA"/>
<path d="M366.224 68.5726C366.279 68.0963 366.446 67.6509 366.712 67.2673" stroke="white" stroke-width="0.309314" stroke-linecap="round" stroke-linejoin="round"/>
<path d="M339.272 74.6403L345.52 64.334" stroke="white" stroke-width="1.23726" stroke-linecap="round" stroke-linejoin="round"/>
<path d="M341.814 73.6133C340.626 71.6832 338.096 71.0831 336.166 72.2709C334.235 73.4587 333.635 75.9889 334.823 77.919C336.011 79.8491 338.541 80.4492 340.471 79.2614C342.401 78.0737 343.001 75.5435 341.814 73.6133Z" fill="#55BCAA"/>
<path d="M335.849 77.48C335.602 77.0717 335.466 76.6139 335.435 76.1499" stroke="white" stroke-width="0.309314" stroke-linecap="round" stroke-linejoin="round"/>
<path d="M349.484 66.8567C353.9 66.2629 356.998 62.202 356.404 57.7865C355.81 53.371 351.749 50.273 347.334 50.8669C342.918 51.4607 339.82 55.5216 340.414 59.9371C341.008 64.3525 345.069 67.4506 349.484 66.8567Z" fill="#388477"/>
<path d="M345.545 54.4868L340.589 43.865" stroke="white" stroke-width="1.23726" stroke-linecap="round" stroke-linejoin="round"/>
<path d="M336.377 43.5185C336.018 41.279 337.54 39.1757 339.779 38.8107C342.019 38.4519 344.122 39.9737 344.487 42.2132C344.846 44.4526 343.324 46.5559 341.085 46.9209C338.845 47.2797 336.742 45.7579 336.377 43.5185Z" fill="#55BCAA"/>
<path d="M338.189 44.019C338.121 43.5427 338.177 43.0663 338.332 42.6333" stroke="white" stroke-width="0.309314" stroke-linecap="round" stroke-linejoin="round"/>
<path d="M23.5501 14.1516C23.5501 15.2527 22.6593 16.1374 21.5644 16.1374C20.4694 16.1374 19.5786 15.2465 19.5786 14.1516C19.5786 13.0566 20.4694 12.1658 21.5644 12.1658C22.6593 12.1658 23.5501 13.0566 23.5501 14.1516Z" fill="white"/>
<path d="M409.197 21.4699C409.197 22.5711 408.306 23.4557 407.211 23.4557C406.116 23.4557 405.225 22.5649 405.225 21.4699C405.225 20.375 406.116 19.4841 407.211 19.4841C408.306 19.4841 409.197 20.375 409.197 21.4699Z" fill="white"/>
<path d="M269.659 6.06608C270.756 6.06608 271.645 5.17701 271.645 4.08028C271.645 2.98355 270.756 2.09448 269.659 2.09448C268.562 2.09448 267.673 2.98355 267.673 4.08028C267.673 5.17701 268.562 6.06608 269.659 6.06608Z" fill="white"/>
<path d="M311.985 84.6816C313.082 84.6816 313.971 83.7925 313.971 82.6958C313.971 81.599 313.082 80.71 311.985 80.71C310.888 80.71 309.999 81.599 309.999 82.6958C309.999 83.7925 310.888 84.6816 311.985 84.6816Z" fill="white"/>
<path d="M9.42011 209.372C9.42011 210.473 8.52929 211.358 7.43431 211.358C6.33934 211.358 5.44852 210.467 5.44852 209.372C5.44852 208.277 6.33934 207.386 7.43431 207.386C8.52929 207.386 9.42011 208.277 9.42011 209.372Z" fill="white"/>
<path d="M65.8079 102.176C66.9047 102.176 67.7937 101.287 67.7937 100.191C67.7937 99.0939 66.9047 98.2048 65.8079 98.2048C64.7112 98.2048 63.8221 99.0939 63.8221 100.191C63.8221 101.287 64.7112 102.176 65.8079 102.176Z" fill="white"/>
<path d="M421.99 201.2C423.087 201.2 423.976 200.311 423.976 199.214C423.976 198.118 423.087 197.229 421.99 197.229C420.893 197.229 420.004 198.118 420.004 199.214C420.004 200.311 420.893 201.2 421.99 201.2Z" fill="white"/>
<path d="M409.636 149.309C409.636 151.332 407.996 152.972 405.973 152.972C403.95 152.972 402.311 151.332 402.311 149.309C402.311 147.286 403.95 145.647 405.973 145.647C407.996 145.647 409.636 147.286 409.636 149.309Z" fill="#80CDBF"/>
<path d="M7.91685 136.64C7.91685 138.663 6.27748 140.302 4.25457 140.302C2.23165 140.302 0.592285 138.663 0.592285 136.64C0.592285 134.617 2.23165 132.978 4.25457 132.978C6.27748 132.978 7.91685 134.617 7.91685 136.64Z" fill="#80CDBF"/>
<path d="M364.5 15.0802C366.389 12.1151 365.517 8.18011 362.552 6.29114C359.587 4.40217 355.652 5.27455 353.763 8.23964C351.874 11.2047 352.746 15.1397 355.711 17.0287C358.677 18.9176 362.612 18.0453 364.5 15.0802Z" fill="#80CDBF"/>
<path d="M119.206 45.8583C120.017 42.4375 117.902 39.0068 114.481 38.1956C111.06 37.3845 107.629 39.5 106.818 42.9208C106.007 46.3416 108.122 49.7723 111.543 50.5835C114.964 51.3947 118.395 49.2791 119.206 45.8583Z" fill="#80CDBF"/>
<path d="M156.901 13.904C153.307 13.5761 150.659 10.3964 150.987 6.80213C151.315 3.2079 154.494 0.560167 158.089 0.888041C161.683 1.21591 164.331 4.39567 164.003 7.9899C163.675 11.5841 160.495 14.2319 156.901 13.904Z" stroke="#80CDBF" stroke-width="0.909384" stroke-miterlimit="10"/>
<path d="M158.93 37.8513C156.394 37.6224 154.526 35.3768 154.761 32.8404C154.99 30.304 157.235 28.4358 159.772 28.6708C162.308 28.8997 164.176 31.1454 163.941 33.6817C163.712 36.2181 161.467 38.0864 158.93 37.8513Z" stroke="#80CDBF" stroke-width="0.909384" stroke-miterlimit="10"/>
<path d="M133.294 15.5866C130.758 15.3577 128.889 13.1121 129.124 10.5758C129.353 8.03937 131.599 6.17111 134.135 6.40619C136.672 6.63509 138.54 8.88071 138.305 11.4171C138.076 13.9535 135.83 15.8217 133.294 15.5866Z" stroke="#80CDBF" stroke-width="0.909384" stroke-miterlimit="10"/>
<path d="M158.082 14.0649L158.979 28.6708" stroke="#80CDBF" stroke-width="0.909384" stroke-miterlimit="10"/>
<path d="M137.97 9.22718L150.516 8.28687" stroke="#80CDBF" stroke-width="0.909384" stroke-miterlimit="10"/>
<path d="M406.332 67.9361C403.517 70.1941 399.403 69.7425 397.145 66.9277C394.887 64.1129 395.339 59.9991 398.154 57.7411C400.969 55.4831 405.082 55.9347 407.34 58.7494C409.598 61.5642 409.147 65.6781 406.332 67.9361Z" stroke="#80CDBF" stroke-width="0.909384" stroke-miterlimit="10"/>
<path d="M424.414 83.7605C422.428 85.3566 419.527 85.0349 417.931 83.0491C416.335 81.0633 416.657 78.1619 418.642 76.5659C420.628 74.9698 423.53 75.2915 425.126 77.2773C426.722 79.2631 426.4 82.1645 424.414 83.7605Z" stroke="#80CDBF" stroke-width="0.909384" stroke-miterlimit="10"/>
<path d="M406.938 67.3792L418.073 77.1164" stroke="#80CDBF" stroke-width="0.909384" stroke-miterlimit="10"/>
<path d="M28.0404 79.157C29.7787 75.9958 33.7503 74.839 36.9115 76.5712C40.0727 78.3095 41.2295 82.2811 39.4974 85.4423C37.759 88.6035 33.7874 89.7603 30.6262 88.0282C27.465 86.2898 26.3082 82.3182 28.0404 79.157Z" stroke="#80CDBF" stroke-width="0.909384" stroke-miterlimit="10"/>
<path d="M5.27415 71.449C6.49904 69.2157 9.30142 68.3992 11.5347 69.624C13.7679 70.8489 14.5845 73.6513 13.3596 75.8846C12.1347 78.1178 9.33236 78.9344 7.09911 77.7095C4.86586 76.4846 4.04927 73.6822 5.27415 71.449Z" stroke="#80CDBF" stroke-width="0.909384" stroke-miterlimit="10"/>
<path d="M27.6868 79.9059L13.6686 75.1672" stroke="#80CDBF" stroke-width="0.909384" stroke-miterlimit="10"/>
<path d="M62.1452 256.073H53.5833L54.9938 241.869H63.5556L62.1452 256.073Z" fill="white"/>
<path d="M52.353 253.413H63.8409C63.8409 253.413 64.0327 255.9 67.6702 256.283C71.3078 256.667 73.3183 258.578 73.6029 261.164H50.8311C50.8311 261.164 51.0167 258.102 52.3592 253.413H52.353Z" fill="#1A1645"/>
<path d="M73.5965 261.164H50.8248V262.791H73.5965V261.164Z" fill="white"/>
<path d="M58.2477 178.806L66.5992 212.985C66.9889 213.888 67.4405 216.474 66.9951 218.355L64.9289 248.76H52.8099L55.6927 216.419L42.5716 180.792L58.2415 178.812L58.2477 178.806Z" fill="#55BCAA"/>
<path d="M42.1988 256.073H33.637L35.0474 241.869H43.6093L42.1988 256.073Z" fill="white"/>
<path d="M32.3986 253.413H43.8865C43.8865 253.413 44.0783 255.9 47.7158 256.283C51.3533 256.667 53.3639 258.578 53.6485 261.164H30.8767C30.8767 261.164 31.0623 258.102 32.4048 253.413H32.3986Z" fill="#1A1645"/>
<path d="M53.6485 261.164H30.8767V262.791H53.6485V261.164Z" fill="white"/>
<path d="M39.2668 182.215L32.9258 248.755H44.9025L54.7263 180.13L39.2668 182.215Z" fill="#55BCAA"/>
<path d="M51.4291 204.814L53.1427 193.585" stroke="black" stroke-width="0.278383" stroke-linecap="round" stroke-linejoin="round"/>
<path d="M89.329 165.432L82.92 166.644L81.5405 161.646L87.2751 160.507L89.329 165.432Z" fill="#EDB99A"/>
<path d="M90.4669 166.725C88.246 166.521 86.6129 164.553 86.817 162.339C87.0212 160.118 88.9884 158.485 91.2031 158.689C93.424 158.893 95.0571 160.86 94.853 163.075C94.6488 165.296 92.6816 166.929 90.4669 166.725Z" fill="#EDB99A"/>
<path d="M93.8703 160.056C93.8703 160.056 94.5693 158.355 92.4845 158.002C90.3998 157.65 87.5046 158.342 86.8179 162.345L93.8703 160.056Z" fill="#EDB99A"/>
<path d="M66.3232 160.624L84.7336 159.226L86.9978 166.161L68.2966 169.811C65.8345 170.269 63.5889 168.32 63.7002 165.821C63.7868 163.878 64.3869 160.804 66.3232 160.631V160.624Z" fill="white"/>
<path d="M56.945 151.803L70.4002 161.719C71.953 163.452 72.2808 166.73 70.66 168.401C68.9588 170.151 66.1688 170.201 64.4119 168.506L51.2475 160.241C49.571 158.626 49.2555 156.053 50.5051 154.079C52.2435 151.326 56.9512 151.797 56.9512 151.797L56.945 151.803Z" fill="white"/>
<path d="M44.2629 151.147L38.3736 153.912L39.2768 184.404L59.209 182.252C58.3244 167.943 56.7159 151.914 56.7159 151.914L50.4554 150.541L44.2691 151.141L44.2629 151.147Z" fill="#388477"/>
<path d="M52.7692 150.992C52.7692 150.992 57.477 165.549 61.6094 208.846L67.1399 208.679C67.1399 208.679 63.3168 192.743 60.9475 176.461C59.7844 168.481 58.0275 156.461 57.5141 152.928C57.4275 152.322 56.9635 151.84 56.3634 151.716L52.7692 150.992Z" fill="white"/>
<path d="M59.2034 165.635L58.3126 158.675" stroke="black" stroke-width="0.278383" stroke-linecap="round" stroke-linejoin="round"/>
<path d="M42.8706 151.772C42.8706 151.772 53.3626 166.372 45.7534 210.257L31.0548 209.614L38.6083 178.293L34.9769 158.769C34.7047 157.513 35.3667 154.921 36.5544 154.42L42.8644 151.772H42.8706Z" fill="white"/>
<path d="M39.6337 190.535C37.4932 189.527 36.5776 186.966 37.586 184.826C38.5944 182.685 41.1555 181.77 43.2959 182.778C45.4364 183.786 46.352 186.347 45.3436 188.488C44.3352 190.628 41.7741 191.544 39.6337 190.535Z" fill="#EDB99A"/>
<path d="M45.4609 185.11C45.4609 185.11 46.7785 183.669 44.8237 182.555C42.8688 181.442 39.7262 181.083 37.5857 184.832L45.4609 185.116V185.11Z" fill="#EDB99A"/>
<path d="M27.5711 170.764L40.6612 181.448L37.4258 187.962L22.4303 178.893C20.0485 177.711 19.3866 174.618 21.0755 172.564C22.3869 170.968 25.808 169.675 27.5711 170.764Z" fill="white"/>
<path d="M40.8965 163.588L25.9566 177.903C23.711 178.936 21.3417 179.159 20.1539 176.994C18.9043 174.723 20.5993 171.884 20.9705 171.544C20.9705 171.544 29.4952 158.49 36.2444 154.575C38.3849 153.331 40.9831 154.03 42.5977 155.911C44.8496 158.54 44.0392 162.14 40.8965 163.588Z" fill="white"/>
<path d="M36.6404 167.677L40.8965 163.587" stroke="black" stroke-width="0.278383" stroke-linecap="round" stroke-linejoin="round"/>
<path d="M44.2629 151.146L42.871 151.771L48.5315 156.374L50.9874 154.091L44.2629 151.146Z" fill="#55BCAA"/>
<path d="M50.9874 154.092L53.8145 154.951L52.769 150.992L51.6555 150.751L50.9874 154.092Z" fill="#55BCAA"/>
<path d="M52.8254 146.625L50.9881 154.092L44.3131 151.159L46.8928 140.723L52.8254 146.625Z" fill="#EDB99A"/>
<path d="M51.7489 150.992C51.7798 150.862 50.1219 146.575 50.1219 146.575L52.615 147.472L51.7489 150.992Z" fill="#1A1645"/>
<path d="M53.5378 131.375C53.5378 131.375 57.033 131.66 57.5836 135.978C57.5836 135.978 57.9486 139.114 58.4373 143.624C58.6971 146.012 56.6866 148.134 54.3111 147.812C52.8573 147.614 51.2117 147.156 49.7023 146.185L47.5494 144.484C42.4643 139.665 46.0338 130.985 53.0305 131.338C53.1975 131.344 53.3707 131.357 53.5378 131.375Z" fill="#EDB99A"/>
<path d="M57.5838 140.519L59.2789 141.88C59.5139 142.066 59.4211 142.443 59.1242 142.499L57.5714 142.796V140.519H57.5838Z" fill="#EDB99A"/>
<path d="M49.5961 139.529C49.5961 139.529 44.313 130.744 56.3268 132.699C56.3268 132.699 51.2602 127.521 44.4058 131.375C42.8098 132.272 41.2261 134.438 41.0652 136.263C40.8054 139.22 42.7541 141.298 45.7235 145.66C45.7235 145.66 47.8083 145.499 48.3527 142.14C48.4702 141.397 49.5899 139.529 49.5899 139.529H49.5961Z" fill="#1A1645"/>
<path d="M50.1221 140.012L50.6727 134.295C50.6727 134.295 60.3604 134.518 59.2036 131.054C58.0468 127.589 52.7761 126.513 47.1404 130.262L46.4104 134.716V136.56L48.0621 140.005H50.116L50.1221 140.012Z" fill="#1A1645"/>
<path d="M45.6799 140.302C45.6799 141.577 46.7192 142.61 47.9935 142.61C49.2679 142.61 50.301 141.571 50.301 140.296C50.301 139.022 49.2617 137.989 47.9874 137.989C46.713 137.989 45.6799 139.028 45.6799 140.302Z" fill="#EDB99A"/>
<path d="M38.8439 122.505H16.9878C16.0722 122.505 15.3299 121.763 15.3299 120.847V111.45C15.3299 110.534 16.0722 109.792 16.9878 109.792H37.186C38.1016 109.792 38.8439 110.534 38.8439 111.45V122.505Z" fill="#388477"/>
<path d="M38.8433 119.869L38.8618 125.492L34.0675 119.888L38.8433 119.869Z" fill="#388477"/>
<path d="M23.1243 116.002C23.1243 116.583 22.6541 117.06 22.0665 117.066C21.4788 117.066 21.0086 116.596 21.0024 116.008C21.0024 115.427 21.4726 114.95 22.0603 114.944C22.648 114.944 23.1181 115.414 23.1243 116.002Z" fill="white"/>
<path d="M27.6651 115.984C27.6651 116.565 27.1949 117.042 26.6073 117.048C26.0196 117.054 25.5494 116.578 25.5432 115.99C25.5432 115.409 26.0134 114.932 26.6011 114.926C27.1826 114.926 27.6589 115.396 27.6651 115.984Z" fill="white"/>
<path d="M32.206 115.972C32.206 116.553 31.7358 117.03 31.1481 117.036C30.5666 117.036 30.0903 116.566 30.0841 115.978C30.0779 115.39 30.5543 114.92 31.142 114.914C31.7297 114.914 32.1998 115.384 32.206 115.972Z" fill="white"/>
<path d="M344.172 255.931H352.282L353.971 241.895H345.861L344.172 255.931Z" fill="#EDB99A"/>
<path d="M352.765 253.408H342.57C342.57 253.408 342.39 255.765 338.945 256.123C335.499 256.488 333.6 258.301 333.327 260.744H354.893C354.893 260.744 354.033 257.843 352.765 253.401V253.408Z" fill="#1A1645"/>
<path d="M333.333 262.291H354.899V260.75H333.333V262.291Z" fill="white"/>
<path d="M368.04 183.193L359.218 210.289L354.739 247.623L343.56 247.215L348.231 208.989L358.247 174.507L366.221 174.748L368.04 183.193Z" fill="#55BCAA"/>
<path d="M355.061 244.523L343.919 244.226" stroke="black" stroke-width="0.278383" stroke-linecap="round" stroke-linejoin="round"/>
<path d="M381.939 255.931H390.049L386.096 243.93H377.986L381.939 255.931Z" fill="#EDB99A"/>
<path d="M389.851 253.407H380.343C380.343 253.407 380.164 255.764 376.718 256.123C373.272 256.488 371.373 258.301 371.101 260.744H392.666C392.666 260.744 391.392 256.439 389.851 253.401V253.407Z" fill="#1A1645"/>
<path d="M371.1 262.291H392.665V260.75H371.1V262.291Z" fill="white"/>
<path d="M372.741 174.953C372.741 174.953 377.547 178.473 378.129 191.464C378.704 204.455 379.347 214.7 379.347 214.7L389.388 248.359L378.302 248.279L367.402 217.168C367.278 216.772 367.185 216.37 367.123 215.962L363.381 188.284L360.813 186.435L361.778 174.606L372.741 174.947V174.953Z" fill="#55BCAA"/>
<path d="M364.259 194.792C364.123 194.297 362.823 185.939 362.823 185.939" stroke="black" stroke-width="0.278383" stroke-linecap="round" stroke-linejoin="round"/>
<path d="M388.379 244.914H377.213" stroke="black" stroke-width="0.278383" stroke-linecap="round" stroke-linejoin="round"/>
<path d="M333.266 136.951L334.943 143.254L340.046 142.339L338.599 136.672L333.266 136.951Z" fill="#EDB99A"/>
<path d="M331.607 136.48C332.746 138.392 335.226 139.023 337.138 137.878C339.05 136.74 339.681 134.259 338.536 132.348C337.398 130.436 334.917 129.805 333.006 130.95C331.094 132.088 330.463 134.569 331.607 136.48Z" fill="#EDB99A"/>
<path d="M336.166 130.529C336.166 130.529 337.397 129.162 338.622 130.894C339.841 132.627 340.46 135.534 337.15 137.879L336.173 130.529H336.166Z" fill="#EDB99A"/>
<path d="M337.763 132.212C337.72 132.014 336.377 127.776 335.808 125.995C335.672 125.562 335.214 125.314 334.775 125.444C334.342 125.568 334.088 126.007 334.193 126.446L335.888 133.561L337.769 132.212H337.763Z" fill="#EDB99A"/>
<path d="M346.35 155.039L340.85 138.416L333.618 139.363L338.394 157.81C339.044 160.229 341.772 161.411 343.974 160.235C345.694 159.32 347.024 156.864 346.35 155.039Z" fill="white"/>
<path d="M358.951 156.06L343.33 153.437C341.004 153.363 338.87 154.037 338.635 156.351C338.387 158.776 340.144 160.947 342.569 161.207L357.361 165.989C359.681 166.236 361.852 164.82 362.557 162.599C363.547 159.493 362.205 156.165 358.951 156.054V156.06Z" fill="white"/>
<path d="M377.17 159.19L372.74 174.953L358.246 174.507L356.996 157.687C356.996 157.687 359.427 155.627 366.239 156.147C373.637 156.703 377.17 159.196 377.17 159.196V159.19Z" fill="#388477"/>
<path d="M368.434 156.375L363.25 160.402L362.619 156.109L368.434 156.375Z" fill="#EDB99A"/>
<path d="M368.435 156.375C368.435 156.375 364.309 167.145 371.306 207.715H388.374L373.545 174.612L377.139 159.066C377.139 159.066 374.25 156.647 368.429 156.375H368.435Z" fill="white"/>
<path d="M362.62 156.109C362.62 156.109 359.879 162.809 353.161 208.736L345.843 207.715L355.11 174.272L355.92 156.066L362.614 156.115L362.62 156.109Z" fill="white"/>
<path d="M355.475 165.432L355.797 160.186" stroke="black" stroke-width="0.278383" stroke-linecap="round" stroke-linejoin="round"/>
<path d="M360.008 189.626L381.041 201.95L389.51 186.979L368.885 174.612L360.008 189.626Z" fill="#388477"/>
<path d="M380.48 198.368C381.445 196.358 380.603 193.951 378.593 192.98C376.582 192.015 374.176 192.856 373.205 194.867C372.239 196.877 373.081 199.284 375.091 200.255C377.102 201.22 379.508 200.379 380.48 198.368Z" fill="#EDB99A"/>
<path d="M373.007 197.854C373.007 197.854 371.188 197.582 371.955 195.609C372.722 193.635 374.807 191.513 378.593 192.986L373.007 197.861V197.854Z" fill="#EDB99A"/>
<path d="M380.479 174.421L374.348 192.33L380.572 195.176L389.053 177.316C390.092 175.039 388.744 172.391 386.294 171.89C384.389 171.501 381.122 172.583 380.479 174.421Z" fill="white"/>
<path d="M371.306 166.521L382.917 178.386C384.835 179.698 387 180.279 388.442 178.454C389.957 176.543 388.838 173.641 388.541 173.27C388.541 173.27 382.781 163.768 377.139 159.066C375.352 157.576 372.729 157.637 370.935 159.128C368.429 161.213 368.615 164.684 371.3 166.521H371.306Z" fill="white"/>
<path d="M375.036 170.332L371.9 167.121" stroke="black" stroke-width="0.278383" stroke-linecap="round" stroke-linejoin="round"/>
<path d="M375.871 141.25C378.502 140.824 380.289 138.346 379.864 135.715C379.438 133.085 376.96 131.297 374.33 131.723C371.699 132.148 369.911 134.626 370.337 137.257C370.763 139.888 373.24 141.675 375.871 141.25Z" fill="#1A1645"/>
<path d="M360.418 134.531C360.418 134.531 369.84 132.923 373.057 137.834C375.451 141.484 373.255 145.759 368.331 147.627C363.641 149.409 365.163 136.282 365.163 136.282L360.412 134.531H360.418Z" fill="#1A1645"/>
<path d="M364.754 134.451C364.754 134.451 356.236 133.146 355.933 138.676C355.723 142.493 361.748 143.835 361.748 143.835L364.748 134.451H364.754Z" fill="#1A1645"/>
<path d="M361.538 144.194C361.624 145.45 360.678 146.539 359.422 146.625C358.166 146.712 357.077 145.765 356.991 144.509C356.904 143.254 357.851 142.165 359.106 142.078C360.362 141.992 361.451 142.938 361.538 144.194Z" fill="#E8A081"/>
<path d="M362.206 150.375L362.62 156.109C362.62 156.109 363.288 157.835 365.051 157.823C366.511 157.724 368.435 156.375 368.435 156.375L367.458 147.622L362.199 150.369L362.206 150.375Z" fill="#EDB99A"/>
<path d="M362.485 154.247L368.219 148.834L362.225 149.607L362.485 154.247Z" fill="#1A1645"/>
<path d="M363.716 151.172C360.79 151.178 358.371 148.877 358.278 146.483L358.105 140.841C357.993 137.841 360.282 135.298 363.277 135.094C366.339 134.884 369.531 137.154 369.747 140.216L369.834 144.757C369.902 148.271 367.217 150.931 363.71 151.178L363.716 151.172Z" fill="#EDB99A"/>
<path d="M359.886 135.756C359.83 135.539 359.781 135.31 359.75 135.075C359.75 135.075 368.627 132.954 371.034 138.762L370.613 139.078C371.776 139.826 372.716 140.606 372.716 140.606L368.627 144.058C368.627 144.058 367.334 143.377 366.852 141.249C365.163 140.829 360.962 140.105 360.684 137.971C359.88 139.208 358.717 140.47 357.343 140.47C357.343 140.47 356.935 137.234 359.892 135.744L359.886 135.756Z" fill="#1A1645"/>
<path d="M372.568 144.831C372.655 146.087 371.708 147.176 370.452 147.263C369.196 147.349 368.108 146.403 368.021 145.147C367.934 143.891 368.881 142.802 370.137 142.716C371.393 142.629 372.481 143.576 372.568 144.831Z" fill="#EDB99A"/>
<path d="M365.631 103.995H403.262C404.221 103.995 405 104.774 405 105.733V116.176C405 117.135 404.221 117.914 403.262 117.914H365.631C364.672 117.914 363.892 117.135 363.892 116.176V105.733C363.892 104.774 364.672 103.995 365.631 103.995Z" fill="#55BCAA"/>
<path d="M370.561 109.458H398.374" stroke="white" stroke-width="0.562952" stroke-miterlimit="10"/>
<path d="M370.561 112.452H378.64" stroke="white" stroke-width="0.562952" stroke-miterlimit="10"/>
<path d="M369.949 114.704V122.808L378.567 114.704H369.949Z" fill="#55BCAA"/>
<path d="M100.921 162.604H171.798V171.104C171.798 176.004 167.82 179.982 162.92 179.982H109.793C104.893 179.982 100.915 176.004 100.915 171.104V162.604H100.921Z" fill="#388477"/>
<path d="M111.086 172.769H161.635V178.832C161.635 182.327 158.801 185.16 155.306 185.16H117.415C113.92 185.16 111.086 182.327 111.086 178.832V172.769Z" fill="#388477"/>
<path d="M218.586 197.638H114.996V218.158H218.586V197.638Z" fill="#388477"/>
<path d="M130.82 212.194H150.091C154.236 212.194 157.601 208.835 157.601 204.684V171.878C157.601 165.655 149.54 163.211 146.076 168.377L124.579 200.508C121.238 205.494 124.814 212.194 130.82 212.194Z" fill="#D5EEEA"/>
<path d="M149.447 208.086C151.357 208.086 152.905 206.538 152.905 204.628C152.905 202.718 151.357 201.17 149.447 201.17C147.537 201.17 145.989 202.718 145.989 204.628C145.989 206.538 147.537 208.086 149.447 208.086Z" fill="#388477"/>
<path d="M129.317 206.898C130.571 206.898 131.588 205.882 131.588 204.628C131.588 203.374 130.571 202.357 129.317 202.357C128.063 202.357 127.047 203.374 127.047 204.628C127.047 205.882 128.063 206.898 129.317 206.898Z" fill="#388477"/>
<path d="M113.97 159.635H89.305V165.574H113.97V159.635Z" fill="#D5EEEA"/>
<path d="M189.875 159.635H113.97V165.574H189.875V159.635Z" fill="#80CDBF"/>
<path d="M204.927 197.638L189.875 218.219H183.875L199.204 197.638H204.927Z" fill="#3E7068"/>
<path d="M216.463 218.856V196.821C242.631 196.821 263.925 175.528 263.925 149.36C263.925 123.192 242.631 101.898 216.463 101.898V79.8628C254.781 79.8628 285.96 111.042 285.96 149.36C285.96 187.677 254.788 218.856 216.463 218.856Z" fill="#2BAB95"/>
<mask id="mask0_74_1643" style="mask-type:luminance" maskUnits="userSpaceOnUse" x="216" y="79" width="70" height="140">
<path d="M216.464 218.857V196.821C242.632 196.821 263.925 175.528 263.925 149.36C263.925 123.192 242.632 101.899 216.464 101.899V79.8633C254.782 79.8633 285.96 111.042 285.96 149.36C285.96 187.678 254.788 218.857 216.464 218.857Z" fill="white"/>
</mask>
<g mask="url(#mask0_74_1643)">
<path d="M206.738 214.056V193.245C232.906 193.245 254.2 173.14 254.2 148.419C254.2 123.699 232.906 103.594 206.738 103.594V82.783C245.056 82.783 276.235 112.223 276.235 148.413C276.235 184.603 245.063 214.05 206.738 214.05V214.056Z" fill="#55BCAA"/>
<path d="M233.018 77.8959C233.018 77.8959 245.192 91.9821 227.054 110.009L220.911 98.224L227.178 74.4006L233.024 77.8959H233.018Z" fill="#2BAB95"/>
</g>
<path d="M229.411 250.301V197.86C229.411 192.676 225.798 188.191 220.732 187.09C216.216 186.106 211.57 188.049 209.095 191.94L166.404 250.295H229.411V250.301Z" fill="#D5EEEA"/>
<path d="M221.832 202.096C222.31 199.319 220.447 196.679 217.669 196.2C214.891 195.721 212.251 197.585 211.773 200.363C211.294 203.14 213.158 205.78 215.935 206.259C218.713 206.738 221.353 204.874 221.832 202.096Z" fill="#388477"/>
<path d="M126.911 250.301H260.597C267.662 250.301 273.402 256.042 273.402 263.107H114.996V262.216C114.996 255.64 120.335 250.301 126.911 250.301Z" fill="white"/>
<path d="M174.491 99.5472L157.912 85.3806L137.25 109.569L146.319 132.526L174.491 99.5472Z" fill="#2BAB95"/>
<path d="M157.239 119.723L140.66 105.558L138.337 108.276L154.917 122.441L157.239 119.723Z" fill="#319786"/>
<path d="M132.443 119.198L142.373 127.679C143.004 128.218 143.079 129.168 142.54 129.799L125.059 150.266C124.521 150.897 123.57 150.971 122.94 150.433L113.01 141.952C112.379 141.413 112.304 140.463 112.843 139.832L130.324 119.365C130.862 118.734 131.813 118.66 132.443 119.198Z" fill="#D5EEEA"/>
<path d="M128.769 121.175L135.952 137.5L132.809 141.181L125.862 124.583L128.769 121.175Z" fill="#80CDBF"/>
<path d="M128.111 96.1341L132.793 106.774C133.286 107.895 132.776 109.208 131.655 109.701L108.331 119.963C107.21 120.457 105.897 119.946 105.404 118.825L100.722 108.186C100.229 107.064 100.74 105.752 101.861 105.258L125.184 94.9958C126.305 94.5025 127.618 95.013 128.111 96.1341Z" fill="#D5EEEA"/>
<path d="M118.538 97.927L125.009 112.626L121.309 114.259L114.999 99.4859L118.538 97.927Z" fill="#80CDBF"/>
<path d="M130.514 91.3871L149.262 133.996C150.177 136.075 149.229 138.499 147.157 139.411L138.471 143.233L116.411 93.0979L125.097 89.2759C127.175 88.3616 129.6 89.309 130.511 91.3814L130.514 91.3871Z" fill="white"/>
<path d="M221.829 56.8538L192.682 31.9512L134.378 100.193L163.525 125.095L221.829 56.8538Z" fill="#55BCAA"/>
<path d="M221.826 56.8542L209.592 46.4021L151.288 114.644L163.521 125.096L221.826 56.8542Z" fill="#2BAB95"/>
<path d="M221.841 56.8434L219.088 47.2361L202.508 33.0695L192.691 31.9436L221.841 56.8434Z" fill="white"/>
<path d="M242.91 19.4474L226.331 5.28223L202.541 33.1263L219.121 47.2915L242.91 19.4474Z" fill="#D5EEEA"/>
<path d="M246.377 18.4719L226.881 1.81522C226.536 1.52004 226.016 1.56083 225.721 1.90631L222.45 5.73487C222.155 6.08035 222.196 6.5997 222.541 6.89487L242.037 23.5515C242.382 23.8467 242.902 23.8059 243.197 23.4604L246.468 19.6319C246.763 19.2864 246.722 18.767 246.377 18.4719Z" fill="#388477"/>
<path d="M220.45 107.937C231.401 102.036 235.495 88.3743 229.593 77.4234C223.692 66.4725 210.03 62.379 199.079 68.2804C188.129 74.1818 184.035 87.8433 189.936 98.7942C195.838 109.745 209.499 113.839 220.45 107.937Z" fill="#388477"/>
<path d="M220.716 93.1907C223.531 87.1373 220.906 79.9479 214.852 77.1328C208.799 74.3177 201.61 76.943 198.795 82.9965C195.979 89.05 198.605 96.2393 204.658 99.0544C210.712 101.869 217.901 99.2442 220.716 93.1907Z" fill="white"/>
<path d="M322.936 263.471C322.354 263.471 321.829 263.112 321.705 262.587L281.673 97.7592C281.525 97.153 281.958 96.5591 282.638 96.4292C283.313 96.2869 283.993 96.6828 284.135 97.2891L324.167 262.116C324.315 262.723 323.882 263.317 323.202 263.447C323.109 263.465 323.022 263.471 322.936 263.471Z" fill="white"/>
<path d="M293.607 263.471C293.025 263.471 292.5 263.113 292.376 262.587L252.196 97.7595C252.047 97.1594 252.48 96.5593 253.161 96.4294C253.841 96.2871 254.516 96.683 254.658 97.2893L294.838 262.117C294.986 262.717 294.553 263.317 293.873 263.447C293.78 263.465 293.694 263.471 293.607 263.471Z" fill="white"/>
<path d="M285.045 107.441H255.573C254.874 107.441 254.311 106.94 254.311 106.321C254.311 105.703 254.874 105.201 255.573 105.201H285.045C285.744 105.201 286.307 105.703 286.307 106.321C286.307 106.94 285.744 107.441 285.045 107.441Z" fill="white"/>
<path d="M288.25 120.624H258.778C258.079 120.624 257.516 120.123 257.516 119.504C257.516 118.886 258.079 118.385 258.778 118.385H288.25C288.949 118.385 289.512 118.886 289.512 119.504C289.512 120.123 288.949 120.624 288.25 120.624Z" fill="white"/>
<path d="M291.46 133.807H261.988C261.289 133.807 260.726 133.306 260.726 132.687C260.726 132.069 261.289 131.568 261.988 131.568H291.46C292.159 131.568 292.722 132.069 292.722 132.687C292.722 133.306 292.159 133.807 291.46 133.807Z" fill="white"/>
<path d="M294.671 146.99H265.2C264.501 146.99 263.938 146.489 263.938 145.87C263.938 145.252 264.501 144.75 265.2 144.75H294.671C295.37 144.75 295.933 145.252 295.933 145.87C295.933 146.489 295.37 146.99 294.671 146.99Z" fill="white"/>
<path d="M297.881 160.166H268.41C267.711 160.166 267.148 159.665 267.148 159.047C267.148 158.428 267.711 157.927 268.41 157.927H297.881C298.58 157.927 299.143 158.428 299.143 159.047C299.143 159.665 298.58 160.166 297.881 160.166Z" fill="white"/>
<path d="M301.093 173.35H271.621C270.922 173.35 270.359 172.849 270.359 172.23C270.359 171.611 270.922 171.11 271.621 171.11H301.093C301.792 171.11 302.355 171.611 302.355 172.23C302.355 172.849 301.792 173.35 301.093 173.35Z" fill="white"/>
<path d="M304.302 186.533H274.831C274.132 186.533 273.569 186.032 273.569 185.413C273.569 184.794 274.132 184.293 274.831 184.293H304.302C305.001 184.293 305.564 184.794 305.564 185.413C305.564 186.032 305.001 186.533 304.302 186.533Z" fill="white"/>
<path d="M307.514 199.716H278.043C277.344 199.716 276.781 199.214 276.781 198.596C276.781 197.977 277.344 197.476 278.043 197.476H307.514C308.213 197.476 308.776 197.977 308.776 198.596C308.776 199.214 308.213 199.716 307.514 199.716Z" fill="white"/>
<path d="M310.724 212.893H281.253C280.554 212.893 279.991 212.391 279.991 211.773C279.991 211.154 280.554 210.653 281.253 210.653H310.724C311.423 210.653 311.986 211.154 311.986 211.773C311.986 212.391 311.423 212.893 310.724 212.893Z" fill="white"/>
<path d="M313.935 226.075H284.463C283.764 226.075 283.201 225.574 283.201 224.956C283.201 224.337 283.764 223.836 284.463 223.836H313.935C314.634 223.836 315.197 224.337 315.197 224.956C315.197 225.574 314.634 226.075 313.935 226.075Z" fill="white"/>
<path d="M317.146 239.258H287.674C286.975 239.258 286.412 238.757 286.412 238.139C286.412 237.52 286.975 237.019 287.674 237.019H317.146C317.845 237.019 318.408 237.52 318.408 238.139C318.408 238.757 317.845 239.258 317.146 239.258Z" fill="white"/>
<path d="M262.558 64.3289L267.018 71.8947L273.31 68.0592L266.307 56.9919L262.558 64.3289Z" fill="#CB8463"/>
<path d="M265.051 68.5542L265.62 63.0422L263.016 65.0651L265.051 68.5542Z" fill="black"/>
<path d="M257.226 50.2737C257.226 50.2737 254.04 51.61 254.85 55.8228C254.85 55.8228 255.469 58.8665 256.397 63.2464C256.885 65.5601 259.416 66.9334 261.544 65.9003C262.849 65.2693 264.247 64.3352 265.354 62.9618L266.845 60.71C270.13 54.6413 264.129 47.6075 257.69 50.082C257.535 50.1438 257.38 50.2057 257.226 50.2737Z" fill="#CB8463"/>
<path d="M256.236 60.0725L255.066 61.8665C254.906 62.114 255.11 62.4357 255.401 62.3986L256.941 62.2006L256.236 60.0725Z" fill="#CB8463"/>
<path d="M263.412 56.7011C263.412 56.7011 264.91 48.5166 255.11 52.5068C255.11 52.5068 257.22 46.1102 265.769 47.4835C267.551 47.7681 269.685 49.3765 270.391 51.0345C271.541 53.7193 270.353 56.2619 268.906 61.2542C268.906 61.2542 266.902 61.7429 265.367 58.7611C265.027 58.0992 263.406 56.6949 263.406 56.6949L263.412 56.7011Z" fill="black"/>
<path d="M261.674 50.3292C261.674 50.3292 259.372 53.8059 262.07 55.0308L263.239 57.8579L265.961 52.4078L261.674 50.323V50.3292Z" fill="black"/>
<path d="M267.446 56.676C267.836 57.8699 267.18 59.1567 265.986 59.5464C264.792 59.9361 263.505 59.2804 263.115 58.0864C262.726 56.8925 263.382 55.6057 264.575 55.216C265.769 54.8263 267.056 55.482 267.446 56.676Z" fill="#CB8463"/>
<path d="M292.612 166.304L301.13 165.444L296.02 152.156L287.502 153.016L292.612 166.304Z" fill="#CB8463"/>
<path d="M301.712 163.433H290.224C290.224 163.433 290.032 165.92 286.394 166.304C282.757 166.687 280.746 168.599 280.462 171.185H303.234C303.234 171.185 303.048 168.122 301.706 163.433H301.712Z" fill="#1A1645"/>
<path d="M280.468 172.812H303.239V171.185H280.468V172.812Z" fill="white"/>
<path d="M290.36 101.917L291.016 130.077L300.295 159.715L288.244 160.223L278.699 133.98C278.086 132.143 277.721 130.219 277.616 128.264L277.523 101.911H290.354L290.36 101.917Z" fill="#455D59"/>
<path d="M268.01 151.779H276.578L272.823 138.045H264.261L268.01 151.779Z" fill="#CB8463"/>
<path d="M277.809 149.118H266.321C266.321 149.118 266.13 151.605 262.492 151.989C258.855 152.372 256.844 154.284 256.559 156.87H279.331C279.331 156.87 279.146 153.808 277.803 149.118H277.809Z" fill="#1A1645"/>
<path d="M256.566 158.497H279.338V156.87H256.566V158.497Z" fill="white"/>
<path d="M274.134 97.8215L258.922 106.662C256.522 108.307 254.821 110.67 255.569 113.423L263.358 144.107L275.916 143.773L270.082 115.607L286.897 108.511C290.033 108.202 292.439 102.412 292.439 98.9102V97.8091H274.134V97.8215Z" fill="#388477"/>
<path d="M289.988 92.5758L284.872 79.3495C282.998 74.815 281.265 71.8023 279.731 69.8412C277.863 67.4595 274.696 66.5192 271.831 67.509C267.755 69.1484 262.904 72.5075 263.82 77.0606L269.66 90.4725C272.939 102.882 275.599 127.021 275.599 127.021L298.791 119.288C298.791 119.288 300.795 100.828 289.988 92.582V92.5758Z" fill="white"/>
<path d="M234.707 89.1796L241.228 89.1053L241.593 83.9336L235.747 83.946L234.707 89.1796Z" fill="#CB8463"/>
<path d="M233.842 90.6703C235.976 90.0332 237.195 87.7875 236.558 85.6533C235.921 83.519 233.675 82.3003 231.541 82.9375C229.406 83.5747 228.188 85.8203 228.825 87.9546C229.462 90.0888 231.708 91.3075 233.842 90.6703Z" fill="#CB8463"/>
<path d="M229.19 84.7995C229.19 84.7995 228.169 83.2715 230.142 82.5106C232.122 81.7497 235.091 81.8673 236.551 85.6533L229.19 84.7995Z" fill="#CB8463"/>
<path d="M257.61 81.2358L237.993 83.4876L238.432 92.0247L257.486 90.6265C259.985 90.5956 261.804 88.2386 261.21 85.8074C260.833 84.2794 262.911 80.6604 257.616 81.2296L257.61 81.2358Z" fill="white"/>
<path d="M266.369 70.7377L253.836 83.1103C252.654 85.1146 252.982 88.3934 254.894 89.711C256.904 91.0906 259.014 91.0473 261.074 89.21L274.269 79.1882C275.599 77.2704 274.745 73.3916 273.137 71.7089C270.891 69.352 266.369 70.7377 266.369 70.7377Z" fill="white"/>
<path d="M273.31 79.9119L267.173 84.5701" stroke="black" stroke-width="0.278383" stroke-linecap="round" stroke-linejoin="round"/>
<path d="M306.917 37.7096C308.524 30.9627 304.358 24.1903 297.611 22.583C290.864 20.9757 284.092 25.1421 282.484 31.889C280.877 38.6358 285.043 45.4082 291.79 47.0156C298.537 48.6229 305.31 44.4565 306.917 37.7096Z" fill="#55BCAA"/>
<path d="M292.592 39.2308C294.764 39.2679 296.966 39.2989 298.97 39.1566C299.601 39.1133 300.152 38.1049 299.379 37.7894C299.7 37.6224 300.028 37.4615 300.17 37.1027C300.307 36.7563 300.146 36.2923 299.787 36.2057C300.542 36.3913 300.839 35.1974 300.251 34.8076C300.56 34.5416 300.82 34.189 300.888 33.7869C300.956 33.3848 300.789 32.927 300.43 32.729C300.195 32.5991 299.917 32.5929 299.645 32.5929C298.741 32.5868 297.838 32.5806 296.929 32.5744C297.176 31.1577 297.244 29.6173 296.527 28.3739C296.31 27.9965 295.729 27.5511 295.265 27.8357C294.832 28.1079 294.949 28.776 294.974 29.2029C295.067 30.9659 294.065 32.7352 292.506 33.5642C292.506 33.5642 292.611 37.3131 292.586 39.2246L292.592 39.2308Z" fill="#FBFBFB"/>
<path d="M291.801 33.5701H288.516V39.2243H291.801V33.5701Z" fill="#FBFBFB"/>
<path d="M6.06122 263.472H416.002" stroke="#2BAB95" stroke-width="0.791845" stroke-miterlimit="10"/>
</g>
</g>
<defs>
<clipPath id="clip0_74_1643">
<rect width="426" height="263.462" fill="white" transform="translate(0.592285 0.40625)"/>
</clipPath>
</defs>
</svg>
