<svg width="464" height="230" viewBox="0 0 464 230" fill="none" xmlns="http://www.w3.org/2000/svg">
<g opacity="0.85">
<g opacity="0.8">
<path d="M127.899 181.062L113.032 143.028L127.251 111.651C127.726 110.603 128.971 110.134 130.032 110.603C131.093 111.071 131.571 112.298 131.096 113.344L117.591 143.145L129.834 174.472L174.614 141.653C175.548 140.972 176.866 141.159 177.562 142.08C178.256 143 178.063 144.3 177.129 144.983L127.901 181.065L127.899 181.062Z" fill="#AADDD5"/>
<path d="M115.74 145.117C115.225 145.223 114.673 145.139 114.195 144.844L84.1058 126.266L68.7868 152.876C68.2124 153.875 66.9278 154.223 65.9149 153.657C64.9047 153.091 64.5482 151.825 65.1226 150.826L82.6118 120.445L116.43 141.324C117.415 141.932 117.715 143.212 117.098 144.185C116.781 144.685 116.283 145.005 115.743 145.117H115.74Z" fill="#AADDD5"/>
<path d="M224.959 104.137C224.37 104.257 223.734 104.132 223.224 103.736C222.31 103.025 222.155 101.722 222.876 100.821L252.1 64.2931C252.818 63.3951 254.143 63.2389 255.056 63.9501C255.97 64.6613 256.126 65.9638 255.404 66.8646L226.181 103.393C225.862 103.792 225.426 104.043 224.956 104.14L224.959 104.137Z" fill="#AADDD5"/>
<path d="M188.129 93.8768C187.108 94.086 186.064 93.5198 185.713 92.5214L171.07 50.8169L182.3 11.8791C182.62 10.7774 183.783 10.1359 184.904 10.4511C186.021 10.7635 186.672 11.9126 186.352 13.0142L175.484 50.6941L189.694 91.1631C190.076 92.248 189.493 93.4278 188.392 93.8043C188.305 93.835 188.217 93.8573 188.129 93.8768Z" fill="#AADDD5"/>
<path d="M173.709 52.7886C173.528 52.8248 173.338 52.8388 173.143 52.8276L119.767 49.386C118.607 49.3107 117.727 48.3233 117.804 47.1798C117.88 46.0363 118.882 45.1717 120.042 45.2442L173.418 48.6859C174.578 48.7612 175.458 49.7485 175.381 50.892C175.319 51.8431 174.615 52.6045 173.709 52.7886Z" fill="#AADDD5"/>
<path d="M225.478 150.673C240.418 135.947 240.418 112.07 225.478 97.3426C210.537 82.6157 186.314 82.6157 171.373 97.3426C156.432 112.07 156.432 135.947 171.373 150.673C186.314 165.4 210.537 165.4 225.478 150.673Z" fill="#AADDD5"/>
<path d="M135.344 184.445C139.113 180.73 139.113 174.706 135.344 170.991C131.575 167.276 125.464 167.276 121.695 170.991C117.926 174.706 117.926 180.73 121.695 184.445C125.464 188.16 131.575 188.16 135.344 184.445Z" fill="#AADDD5"/>
<path d="M179.145 57.9898C183.395 54.8191 184.233 48.8524 181.016 44.6629C177.799 40.4734 171.746 39.6476 167.496 42.8184C163.245 45.9891 162.408 51.9558 165.624 56.1453C168.841 60.3348 174.895 61.1606 179.145 57.9898Z" fill="#AADDD5"/>
<path d="M254.557 74.3489C259.48 73.9133 263.113 69.6263 262.671 64.7737C262.229 59.9211 257.88 56.3405 252.957 56.7761C248.034 57.2118 244.401 61.4987 244.843 66.3513C245.285 71.2039 249.634 74.7846 254.557 74.3489Z" fill="#AADDD5"/>
<path d="M190.594 19.5935C194.536 16.6533 195.312 11.1204 192.33 7.2355C189.347 3.35061 183.733 2.58483 179.792 5.52508C175.851 8.46533 175.074 13.9982 178.057 17.8831C181.04 21.768 186.653 22.5338 190.594 19.5935Z" fill="#AADDD5"/>
<path d="M125.299 54.3438C129.241 51.4035 130.018 45.8706 127.035 41.9857C124.052 38.1009 118.439 37.3351 114.497 40.2753C110.556 43.2156 109.779 48.7484 112.762 52.6333C115.745 56.5182 121.358 57.284 125.299 54.3438Z" fill="#AADDD5"/>
<path d="M120.715 150.111C124.656 147.171 125.433 141.638 122.45 137.753C119.467 133.868 113.854 133.102 109.913 136.043C105.971 138.983 105.195 144.516 108.177 148.401C111.16 152.286 116.774 153.051 120.715 150.111Z" fill="#AADDD5"/>
<path d="M134.911 118.432C138.225 115.492 138.495 110.461 135.513 107.194C132.53 103.928 127.426 103.662 124.112 106.602C120.798 109.541 120.528 114.572 123.511 117.839C126.493 121.106 131.597 121.371 134.911 118.432Z" fill="#AADDD5"/>
<path d="M91.231 127.75C93.6107 124.033 92.4835 119.119 88.7134 116.774C84.9432 114.428 79.9577 115.539 77.578 119.255C75.1983 122.972 76.3255 127.886 80.0956 130.231C83.8658 132.577 88.8513 131.466 91.231 127.75Z" fill="#AADDD5"/>
<path d="M70.5531 156.536C73.181 154.576 73.6991 150.887 71.7101 148.296C69.7212 145.706 65.9785 145.195 63.3506 147.156C60.7226 149.116 60.2046 152.805 62.1936 155.396C64.1825 157.986 67.9252 158.497 70.5531 156.536Z" fill="#AADDD5"/>
</g>
<g opacity="0.8">
<path d="M358.479 55.7589L403.808 70.1336C404.357 70.3065 404.946 70.0109 405.124 69.467C405.299 68.926 404.999 68.3459 404.448 68.1701L359.119 53.7954C358.57 53.6225 357.981 53.9182 357.803 54.462C357.628 55.0031 357.928 55.5832 358.479 55.7589Z" fill="#AADDD5"/>
<path d="M359.467 67.1935L399.626 79.9282C400.175 80.1012 400.764 79.8055 400.942 79.2617C401.118 78.7206 400.818 78.1405 400.266 77.9648L360.106 65.23C359.558 65.0571 358.969 65.3527 358.791 65.8966C358.615 66.4377 358.915 67.0178 359.467 67.1935Z" fill="#AADDD5"/>
<path d="M364.843 80.0177L391.616 88.5075C392.165 88.6805 392.753 88.3848 392.932 87.841C393.107 87.2999 392.807 86.7198 392.256 86.5441L365.483 78.0542C364.934 77.8813 364.345 78.1769 364.167 78.7208C363.991 79.2619 364.291 79.842 364.843 80.0177Z" fill="#AADDD5"/>
<path d="M356.042 99.9347L381.686 108.068C382.235 108.24 382.824 107.945 383.002 107.401C383.177 106.86 382.877 106.28 382.326 106.104L356.682 97.9712C356.133 97.7983 355.544 98.0939 355.366 98.6378C355.191 99.1789 355.491 99.759 356.042 99.9347Z" fill="#AADDD5"/>
<path d="M342.514 109.718L384.855 123.144C385.404 123.317 385.993 123.022 386.171 122.478C386.346 121.937 386.046 121.357 385.495 121.181L343.154 107.754C342.605 107.582 342.016 107.877 341.838 108.421C341.663 108.962 341.963 109.542 342.514 109.718Z" fill="#AADDD5"/>
<path d="M336.859 121.996L381.69 136.212C382.238 136.385 382.827 136.089 383.005 135.545C383.181 135.004 382.881 134.424 382.329 134.248L337.498 120.033C336.949 119.86 336.361 120.155 336.182 120.699C336.007 121.24 336.307 121.821 336.859 121.996Z" fill="#AADDD5"/>
<path d="M339.006 136.75L369.2 146.324C369.749 146.497 370.337 146.202 370.516 145.658C370.691 145.117 370.391 144.537 369.839 144.361L339.646 134.786C339.097 134.613 338.508 134.909 338.33 135.453C338.155 135.994 338.454 136.574 339.006 136.75Z" fill="#AADDD5"/>
<path d="M329.374 159.391L350.87 166.207C351.419 166.38 352.008 166.085 352.186 165.541C352.364 164.997 352.061 164.42 351.51 164.244L330.014 157.428C329.465 157.255 328.876 157.55 328.698 158.094C328.523 158.635 328.823 159.215 329.374 159.391Z" fill="#AADDD5"/>
<path d="M313.821 167.482L353.12 179.944C353.669 180.116 354.257 179.821 354.435 179.277C354.611 178.736 354.311 178.156 353.759 177.98L314.46 165.519C313.911 165.346 313.323 165.641 313.144 166.185C312.969 166.726 313.269 167.306 313.821 167.482Z" fill="#AADDD5"/>
<path d="M304.942 177.691L351.029 192.305C351.578 192.478 352.167 192.182 352.345 191.639C352.52 191.097 352.22 190.517 351.668 190.342L305.581 175.727C305.032 175.554 304.444 175.85 304.266 176.394C304.09 176.935 304.39 177.515 304.942 177.691Z" fill="#AADDD5"/>
<path d="M341.542 205.369C342.088 205.542 342.699 205.494 343.234 205.185C343.494 205.034 349.649 201.403 353.129 192.534C357.67 180.956 355.65 166.425 347.127 149.345C339.12 133.297 337.275 121.497 341.482 113.266C346.652 103.153 360.777 99.3796 373.914 97.0229C385.943 94.8642 395.277 89.4339 400.905 81.3234C406.063 73.8934 407.755 64.7035 405.806 54.7494C405.588 53.6338 404.49 52.9003 403.356 53.1178C402.221 53.3326 401.48 54.4147 401.7 55.5331C403.435 64.38 401.966 72.4933 397.453 78.9973C392.468 86.1791 384.07 91.0125 373.165 92.9704C359.017 95.5112 343.743 99.6892 337.748 111.414C332.909 120.878 334.751 133.88 343.375 151.166C362.098 188.693 341.98 201.124 341.115 201.637C340.127 202.22 339.799 203.483 340.385 204.457C340.656 204.908 341.075 205.221 341.545 205.371L341.542 205.369Z" fill="#AADDD5"/>
<path d="M302.5 182.526C303.55 182.858 304.693 182.328 305.092 181.302C311.688 164.353 330.139 159.405 347.982 154.619C365.825 149.836 382.675 145.315 386.639 129.244C390.36 114.158 382.046 101.513 374.008 89.2858C364.86 75.3713 356.219 62.2265 363.38 45.4114C363.827 44.3627 363.326 43.1551 362.263 42.7144C361.204 42.271 359.973 42.7674 359.526 43.8161C351.51 62.6393 361.165 77.3264 370.499 91.5282C378.405 103.555 385.872 114.911 382.578 128.274C379.2 141.982 363.505 146.191 346.887 150.645C328.914 155.464 308.544 160.925 301.19 179.826C300.777 180.889 301.315 182.083 302.393 182.49C302.43 182.504 302.466 182.518 302.503 182.529L302.5 182.526Z" fill="#AADDD5"/>
</g>
<path d="M165.787 136.97C128.573 87.205 84.3306 88.2313 84.3306 88.2313C84.3306 88.2313 94.7404 133.634 123.106 143.638C151.472 153.643 165.787 136.97 165.787 136.97Z" fill="#DB7F14"/>
<path d="M202.22 140.306C188.432 82.8462 131.875 43.3423 131.875 43.3423C131.875 43.3423 110.36 115.935 155.901 137.227C201.442 158.518 202.22 140.306 202.22 140.306Z" fill="#55BCAA"/>
<path d="M191.376 145.798C191.108 145.798 190.844 145.661 190.7 145.416L132.387 46.5524C132.169 46.1843 132.296 45.7129 132.67 45.501C133.04 45.2862 133.518 45.4117 133.736 45.7799L192.05 144.643C192.268 145.011 192.14 145.482 191.767 145.694C191.642 145.764 191.509 145.798 191.374 145.798H191.376Z" fill="#AADDD5"/>
<path d="M141.247 60.4252C141.032 60.4252 140.856 60.2523 140.856 60.0403V52.1278C140.856 51.9158 141.032 51.7429 141.247 51.7429C141.462 51.7429 141.637 51.9158 141.637 52.1278V60.0403C141.637 60.2523 141.462 60.4252 141.247 60.4252Z" fill="#AADDD5"/>
<path d="M144.647 66.1871C144.432 66.1871 144.257 66.0142 144.257 65.8022V54.9501C144.257 54.7381 144.432 54.5652 144.647 54.5652C144.862 54.5652 145.038 54.7381 145.038 54.9501V65.8022C145.038 66.0142 144.862 66.1871 144.647 66.1871Z" fill="#AADDD5"/>
<path d="M162.134 95.8372C162.134 95.8372 162.109 95.8372 162.097 95.8372C161.882 95.8177 161.727 95.628 161.746 95.4188L163.577 76.4004C163.597 76.1884 163.801 76.0462 164.001 76.0545C164.217 76.0741 164.372 76.2637 164.352 76.4729L162.519 95.4914C162.499 95.6894 162.329 95.84 162.131 95.84L162.134 95.8372Z" fill="#AADDD5"/>
<path d="M170.175 109.47C170.161 109.47 170.144 109.47 170.13 109.47C169.918 109.445 169.762 109.256 169.785 109.044L172.292 87.1637C172.317 86.9518 172.515 86.8012 172.725 86.8235C172.937 86.8486 173.092 87.0382 173.07 87.2502L170.56 109.13C170.537 109.325 170.368 109.47 170.172 109.47H170.175Z" fill="#AADDD5"/>
<path d="M181.427 128.544C181.427 128.544 181.405 128.544 181.393 128.544C181.178 128.528 181.02 128.341 181.037 128.129L183.224 102.949C183.244 102.738 183.445 102.584 183.646 102.598C183.861 102.615 184.019 102.802 184.002 103.014L181.815 128.193C181.798 128.394 181.628 128.544 181.427 128.544Z" fill="#AADDD5"/>
<path d="M154.055 82.1433C153.998 82.1433 153.942 82.1321 153.885 82.107L129.314 70.4991C129.118 70.407 129.036 70.1783 129.13 69.9859C129.223 69.7934 129.458 69.7126 129.65 69.8046L154.222 81.4126C154.417 81.5046 154.499 81.7333 154.406 81.9258C154.338 82.0652 154.199 82.1433 154.055 82.1433Z" fill="#AADDD5"/>
<path d="M156.927 87.0105C156.871 87.0105 156.814 86.9994 156.76 86.9743L129.317 74.0889C129.122 73.9969 129.04 73.7682 129.133 73.5757C129.226 73.3861 129.461 73.3024 129.654 73.3945L157.097 86.2798C157.292 86.3718 157.374 86.6006 157.281 86.793C157.213 86.9325 157.074 87.0133 156.93 87.0133L156.927 87.0105Z" fill="#AADDD5"/>
<path d="M178.375 123.375C178.324 123.375 178.273 123.366 178.222 123.344L132.191 103.98C131.993 103.896 131.9 103.67 131.985 103.475C132.07 103.28 132.296 103.188 132.497 103.271L178.528 122.635C178.726 122.719 178.819 122.945 178.734 123.14C178.672 123.285 178.528 123.375 178.375 123.375Z" fill="#AADDD5"/>
<path d="M326.259 163.477C356.549 136.058 404.125 135.082 404.125 135.082C404.125 135.082 387.985 184.504 353.785 179.314C319.585 174.123 326.259 163.477 326.259 163.477Z" fill="#55BCAA"/>
<path d="M330.276 170.712C330.428 170.815 330.629 170.835 330.808 170.751L402.578 136.708C402.844 136.583 402.957 136.265 402.83 136.003C402.703 135.741 402.383 135.629 402.114 135.754L330.344 169.797C330.078 169.923 329.964 170.241 330.092 170.503C330.134 170.59 330.196 170.659 330.273 170.712H330.276Z" fill="#AADDD5"/>
<path d="M392.124 141.23C392.246 141.311 392.413 141.28 392.497 141.16L395.59 136.664C395.672 136.544 395.641 136.38 395.519 136.296C395.398 136.215 395.231 136.246 395.146 136.366L392.053 140.862C391.971 140.982 392.002 141.146 392.124 141.23Z" fill="#AADDD5"/>
<path d="M387.942 143.216C388.063 143.297 388.23 143.266 388.315 143.146L392.557 136.979C392.639 136.859 392.607 136.695 392.486 136.611C392.364 136.53 392.197 136.561 392.112 136.681L387.871 142.848C387.789 142.967 387.82 143.132 387.942 143.216Z" fill="#AADDD5"/>
<path d="M366.417 153.423C366.417 153.423 366.432 153.432 366.44 153.437C366.57 153.507 366.731 153.46 366.805 153.334L373.197 141.829C373.268 141.701 373.208 141.542 373.092 141.47C372.962 141.4 372.801 141.447 372.727 141.576L366.335 153.08C366.267 153.2 366.307 153.351 366.42 153.426L366.417 153.423Z" fill="#AADDD5"/>
<path d="M356.52 158.117C356.52 158.117 356.537 158.128 356.545 158.134C356.675 158.201 356.839 158.151 356.907 158.022L364.032 144.638C364.1 144.507 364.046 144.348 363.919 144.281C363.789 144.214 363.624 144.264 363.557 144.392L356.432 157.78C356.367 157.9 356.406 158.047 356.52 158.12V158.117Z" fill="#AADDD5"/>
<path d="M342.672 164.689C342.672 164.689 342.686 164.697 342.692 164.7C342.822 164.77 342.983 164.725 343.057 164.6L351.653 149.461C351.724 149.333 351.67 149.171 351.551 149.101C351.421 149.031 351.259 149.076 351.186 149.201L342.59 164.34C342.522 164.46 342.559 164.611 342.672 164.686V164.689Z" fill="#AADDD5"/>
<path d="M376.361 148.709C376.392 148.732 376.432 148.746 376.472 148.751L394.971 151.485C395.118 151.507 395.254 151.406 395.277 151.261C395.299 151.116 395.197 150.983 395.05 150.96L376.551 148.227C376.404 148.205 376.268 148.305 376.245 148.45C376.228 148.553 376.276 148.654 376.361 148.709Z" fill="#AADDD5"/>
<path d="M372.826 150.386C372.857 150.408 372.894 150.422 372.937 150.428L393.567 153.524C393.714 153.546 393.85 153.446 393.872 153.303C393.895 153.158 393.793 153.025 393.649 153.002L373.019 149.906C372.872 149.884 372.736 149.985 372.713 150.127C372.696 150.23 372.744 150.33 372.826 150.386Z" fill="#AADDD5"/>
<path d="M346.426 162.906C346.454 162.926 346.488 162.94 346.525 162.948L380.25 169.419C380.394 169.446 380.536 169.352 380.564 169.209C380.593 169.067 380.499 168.928 380.352 168.9L346.627 162.429C346.483 162.401 346.341 162.496 346.313 162.638C346.293 162.744 346.338 162.85 346.426 162.906Z" fill="#AADDD5"/>
<path d="M239.802 134.257C239.802 134.257 251.774 105.014 290.55 86.0315C329.326 67.0493 356.65 66.5361 356.65 66.5361C356.65 66.5361 345.199 113.222 309.808 129.125C274.416 145.028 239.802 134.254 239.802 134.254V134.257Z" fill="#DB7F14"/>
<path d="M237.201 136.82C247.611 52.9397 328.547 32.418 328.547 32.418C328.547 32.418 329.848 109.373 279.361 134.511C228.874 159.648 237.201 136.82 237.201 136.82Z" fill="#55BCAA"/>
<path d="M239.09 140.741C238.917 140.741 238.742 140.685 238.594 140.565C238.261 140.295 238.212 139.81 238.484 139.483L326.253 33.9571C326.524 33.6308 327.02 33.5778 327.351 33.8483C327.685 34.1189 327.733 34.6042 327.461 34.9305L239.692 140.457C239.537 140.643 239.313 140.738 239.087 140.738L239.09 140.741Z" fill="#AADDD5"/>
<path d="M302.388 64.2496C302.19 64.2496 302.021 64.1017 302.001 63.9037L300.181 45.5407C300.162 45.3287 300.317 45.1419 300.532 45.1195C300.744 45.114 300.94 45.2534 300.96 45.4654L302.779 63.8284C302.799 64.0404 302.643 64.2273 302.428 64.2496C302.414 64.2496 302.403 64.2496 302.388 64.2496Z" fill="#AADDD5"/>
<path d="M304.908 61.3319C304.71 61.3319 304.543 61.1841 304.52 60.9889L302.698 44.3885C302.675 44.1766 302.831 43.9869 303.043 43.9646C303.261 43.9423 303.451 44.0929 303.473 44.3048L305.295 60.9052C305.318 61.1172 305.162 61.3068 304.95 61.3291C304.936 61.3291 304.922 61.3291 304.908 61.3291V61.3319Z" fill="#AADDD5"/>
<path d="M285.777 84.224C285.585 84.224 285.415 84.0818 285.389 83.8866L282.229 58.6318C282.203 58.4198 282.353 58.2274 282.568 58.2023C282.786 58.1744 282.976 58.325 283.004 58.537L286.165 83.7917C286.19 84.0037 286.04 84.1962 285.825 84.2213C285.808 84.2213 285.791 84.224 285.777 84.224Z" fill="#AADDD5"/>
<path d="M276.44 95.4498C276.279 95.4498 276.126 95.3494 276.072 95.1904C276.002 94.9896 276.109 94.772 276.316 94.7023L319.704 80.0236C319.907 79.9539 320.128 80.0599 320.199 80.2635C320.27 80.4643 320.162 80.6818 319.955 80.7515L276.568 95.4303C276.525 95.4442 276.483 95.4526 276.44 95.4526V95.4498Z" fill="#AADDD5"/>
<path d="M260.999 114.016C260.852 114.016 260.71 113.933 260.645 113.793L251.942 95.2295C251.851 95.037 251.936 94.8083 252.131 94.7191C252.329 94.6298 252.559 94.7135 252.649 94.906L261.353 113.47C261.443 113.662 261.358 113.891 261.163 113.98C261.109 114.005 261.053 114.016 260.999 114.016Z" fill="#AADDD5"/>
<path d="M257.215 118.566C257.065 118.566 256.923 118.482 256.858 118.34L248.556 100.17C248.469 99.9743 248.556 99.7484 248.752 99.6619C248.947 99.5727 249.179 99.6619 249.267 99.8544L257.568 118.025C257.656 118.22 257.568 118.446 257.373 118.533C257.322 118.555 257.269 118.566 257.212 118.566H257.215Z" fill="#AADDD5"/>
<path d="M375.046 223.693H87.8332C71.2947 173.396 87.6097 137.161 112 134.823C136.84 132.453 154.052 145.469 171.295 92.1733C188.539 38.8776 228.989 2.54477 265.462 27.819C301.903 53.0933 256.617 109.549 283.859 111.13C311.102 112.709 358.796 77.5476 375.623 106.802C392.451 135.995 347.192 154.949 355.59 165.249C363.988 175.485 399.66 160.89 402.45 187.743C403.955 202.212 389.661 214.88 375.046 223.696V223.693Z" fill="#FFD19B"/>
<path d="M106.395 228.028C100.47 228.028 94.5163 226.803 88.962 224.338C77.0469 219.047 69.5204 209.043 68.8328 197.58C68.8073 197.172 68.7932 196.765 68.7847 196.352C68.7592 195.058 68.8158 193.798 68.9601 192.601C70.7371 177.585 85.3826 176.996 98.3051 176.478C105.8 176.176 112.877 175.892 115.919 172.634C118.949 169.371 114.176 164.8 108.135 159.01C98.5484 149.823 85.4166 137.241 95.8434 121.352C106.867 104.518 130.621 111.471 153.597 118.192C166.338 121.921 178.375 125.444 187.981 124.953C191.204 124.788 193.462 123.938 194.876 122.351C198.326 118.482 196.484 110.506 194.353 101.268C190.547 84.7713 185.808 64.2384 206.141 51.855C218.152 44.545 231.462 42.707 244.625 46.5447C267.796 53.297 289.402 77.068 301.012 108.584C314.871 146.211 328.812 145.918 346.465 145.553C350.74 145.464 355.163 145.372 359.914 145.77C367.785 146.434 375.649 150.654 382.057 157.652C388.721 164.928 392.501 173.535 392.988 182.541C393.775 197.027 385.908 210.621 371.948 218.905C357.633 227.4 339.649 228.861 323.837 222.812L267.855 201.403C229.787 186.845 186.156 189.781 151.143 209.255L126.815 222.787C120.551 226.27 113.494 228.028 106.397 228.028H106.395ZM117.97 111.705C109.054 111.705 101.514 114.307 96.6413 121.748C86.5427 137.136 99.4171 149.469 108.817 158.477C115.152 164.549 120.155 169.343 116.632 173.136C113.33 176.673 106.049 176.966 98.3418 177.275C85.7901 177.78 71.5661 178.352 69.8712 192.685C69.7326 193.848 69.676 195.078 69.7015 196.341C69.71 196.743 69.7241 197.142 69.7496 197.541C70.4202 208.719 77.7599 218.472 89.3807 223.632C101.293 228.923 115.101 228.357 126.314 222.118L150.643 208.585C185.918 188.964 229.875 186.008 268.226 200.675L324.208 222.084C339.725 228.019 357.376 226.583 371.424 218.246C385.119 210.119 392.835 196.787 392.063 182.577C391.584 173.739 387.872 165.291 381.33 158.145C375.077 151.318 367.437 147.204 359.817 146.562C355.123 146.169 350.729 146.261 346.479 146.35C328.447 146.727 314.197 147.025 300.126 108.827C288.604 77.5505 267.224 53.9747 244.325 47.3005C231.264 43.4935 218.593 45.2478 206.664 52.5077C186.824 64.5926 191.495 84.841 195.25 101.112C197.426 110.542 199.305 118.686 195.598 122.839C194.011 124.621 191.535 125.572 188.026 125.751C178.228 126.253 166.12 122.705 153.291 118.951C141.022 115.361 128.527 111.705 117.965 111.705H117.97Z" fill="#BAD5FF"/>
<path d="M220.013 183.693H281.954C286.303 183.693 289.831 187.171 289.831 191.458V220.254C289.831 224.541 286.303 228.019 281.954 228.019H220.013V183.693Z" fill="#388477"/>
<path d="M229.472 191.346V220.374C229.472 224.586 226.003 228.027 221.707 228.027H161.812V222.982H223.167V188.741H161.812V183.696H221.707C226.003 183.696 229.472 187.115 229.472 191.349V191.346Z" fill="#2BAB95"/>
<path d="M223.164 188.738H163.736V222.979H223.164V188.738Z" fill="#FDE9D6"/>
<path d="M223.167 193.326V193.848L163.736 194.141V193.619L223.167 193.326Z" fill="#E8CDB3"/>
<path d="M223.167 199.396V199.917L163.736 200.207V199.686L223.167 199.396Z" fill="#E8CDB3"/>
<path d="M223.167 205.465V205.987L163.736 206.277V205.755L223.167 205.465Z" fill="#E8CDB3"/>
<path d="M223.167 211.531V212.053L163.736 212.346V211.824L223.167 211.531Z" fill="#E8CDB3"/>
<path d="M223.167 217.581V218.102L163.736 218.392V217.873L223.167 217.581Z" fill="#E8CDB3"/>
<path d="M223.167 188.738H221.565V222.979H223.167V188.738Z" fill="#455D59"/>
<path d="M254.162 132.475V154.226H196.361C193.463 154.226 191.115 151.911 191.115 149.055V137.648C191.115 134.792 193.463 132.477 196.361 132.477H254.162V132.475Z" fill="#893C28"/>
<path d="M245.626 136.235V150.475C245.626 152.542 248.758 154.229 252.637 154.229H306.721V151.753H251.319V134.954H306.721V132.478H252.637C248.758 132.478 245.626 134.157 245.626 136.232V136.235Z" fill="#C76F6F"/>
<path d="M304.98 134.957H251.318V151.755H304.98V134.957Z" fill="#FDE9D6"/>
<path d="M251.318 137.207V137.461L304.983 137.606V137.349L251.318 137.207Z" fill="#E8CDB3"/>
<path d="M251.318 140.183V140.44L304.983 140.582V140.328L251.318 140.183Z" fill="#E8CDB3"/>
<path d="M251.318 143.162V143.415L304.983 143.56V143.304L251.318 143.162Z" fill="#E8CDB3"/>
<path d="M251.318 146.137V146.394L304.983 146.536V146.28L251.318 146.137Z" fill="#E8CDB3"/>
<path d="M251.318 149.106V149.362L304.983 149.505V149.248L251.318 149.106Z" fill="#E8CDB3"/>
<path d="M251.319 151.755H252.764V134.957H251.319V151.755Z" fill="#C92240"/>
<path d="M269.915 183.684H214.306C210.976 183.684 208.274 181.021 208.274 177.738V160.178C208.274 156.896 210.976 154.232 214.306 154.232H269.915V183.687V183.684Z" fill="#FF9A00"/>
<path d="M261.563 159.317V178.606C261.563 181.406 264.627 183.69 268.419 183.69H321.303V180.338H267.132V157.585H321.303V154.232H268.419C264.627 154.232 261.563 156.505 261.563 159.317Z" fill="#FFB400"/>
<path d="M319.601 157.585H267.13V180.338H319.601V157.585Z" fill="#FDE9D6"/>
<path d="M267.129 160.633V160.979L319.6 161.174V160.828L267.129 160.633Z" fill="#E8CDB3"/>
<path d="M267.129 164.666V165.011L319.599 165.207V164.858L267.129 164.666Z" fill="#E8CDB3"/>
<path d="M267.129 168.699V169.045L319.599 169.237V168.891L267.129 168.699Z" fill="#E8CDB3"/>
<path d="M267.129 172.729V173.078L319.599 173.27V172.924L267.129 172.729Z" fill="#E8CDB3"/>
<path d="M267.129 176.748V177.097L319.599 177.289V176.943L267.129 176.748Z" fill="#E8CDB3"/>
<path d="M267.13 180.337H268.542V157.584H267.13V180.337Z" fill="#CC873F"/>
<path d="M253.098 98.1471H291.242C294.267 98.1471 296.72 100.568 296.72 103.547V127.064C296.72 130.045 294.264 132.463 291.242 132.463H253.098V98.1443V98.1471Z" fill="#C76F6F"/>
<path d="M259.009 104.071V126.548C259.009 129.809 256.842 132.475 254.157 132.475H216.733V128.568H255.071V102.055H216.733V98.1475H254.157C256.839 98.1475 259.009 100.794 259.009 104.074V104.071Z" fill="#893C28"/>
<path d="M255.071 102.054H217.936V128.567H255.071V102.054Z" fill="#FDE9D6"/>
<path d="M255.071 105.605V106.009L217.936 106.235V105.831L255.071 105.605Z" fill="#E8CDB3"/>
<path d="M255.071 110.304V110.709L217.936 110.935V110.53L255.071 110.304Z" fill="#E8CDB3"/>
<path d="M255.071 115.004V115.406L217.936 115.631V115.23L255.071 115.004Z" fill="#E8CDB3"/>
<path d="M255.071 119.701V120.105L217.936 120.331V119.927L255.071 119.701Z" fill="#E8CDB3"/>
<path d="M255.071 124.383V124.787L217.936 125.013V124.609L255.071 124.383Z" fill="#E8CDB3"/>
<path d="M255.068 102.054H254.069V128.567H255.068V102.054Z" fill="#C76F6F"/>
<path d="M296.724 168.699H284.636V175.906H296.724V168.699Z" fill="#CC873F"/>
<path d="M208.084 132.475H204.043V154.226H208.084V132.475Z" fill="#FF7FA9"/>
<path d="M214.56 132.475H210.497V154.226H214.56V132.475Z" fill="#FF7FA9"/>
<path d="M238.384 110.444H232.105V122.593H238.384V110.444Z" fill="#C76F6F"/>
<path d="M259.77 62.2124H268.698V88.3652C268.698 90.7945 266.697 92.7663 264.233 92.7663C261.768 92.7663 259.768 90.7945 259.768 88.3652V62.2124H259.77Z" fill="white"/>
<path d="M268.499 62.707H259.974C259.337 62.707 258.819 62.1966 258.819 61.5691C258.819 60.9416 259.337 60.4312 259.974 60.4312H268.499C269.136 60.4312 269.654 60.9416 269.654 61.5691C269.654 62.1966 269.136 62.707 268.499 62.707Z" fill="white"/>
<path d="M268.148 68.6389V88.3184C268.148 90.4464 266.397 92.1728 264.235 92.1728C262.073 92.1728 260.325 90.4464 260.325 88.3184V68.6389H268.148Z" fill="#FECB01"/>
<path d="M264.235 77.0817C264.235 77.567 263.836 77.9602 263.344 77.9602C262.851 77.9602 262.452 77.567 262.452 77.0817C262.452 76.5964 262.851 76.2031 263.344 76.2031C263.836 76.2031 264.235 76.5964 264.235 77.0817Z" fill="#FFE169"/>
<path d="M263.746 66.2543C263.746 66.7396 263.347 67.1328 262.855 67.1328C262.362 67.1328 261.963 66.7396 261.963 66.2543C261.963 65.769 262.362 65.3757 262.855 65.3757C263.347 65.3757 263.746 65.769 263.746 66.2543Z" fill="#FECB01"/>
<path d="M266.931 71.1435C266.931 71.481 266.654 71.7543 266.311 71.7543C265.969 71.7543 265.692 71.481 265.692 71.1435C265.692 70.806 265.969 70.5327 266.311 70.5327C266.654 70.5327 266.931 70.806 266.931 71.1435Z" fill="#FFE169"/>
<path d="M266.932 56.3642C267.274 56.3642 267.552 56.0907 267.552 55.7534C267.552 55.416 267.274 55.1426 266.932 55.1426C266.59 55.1426 266.312 55.416 266.312 55.7534C266.312 56.0907 266.59 56.3642 266.932 56.3642Z" fill="#FECB01"/>
<path d="M266.308 65.1359C266.308 65.4734 266.031 65.7467 265.689 65.7467C265.346 65.7467 265.069 65.4734 265.069 65.1359C265.069 64.7985 265.346 64.5251 265.689 64.5251C266.031 64.5251 266.308 64.7985 266.308 65.1359Z" fill="#FECB01"/>
<path d="M266.782 82.7293C266.782 83.0975 266.48 83.3959 266.106 83.3959C265.733 83.3959 265.43 83.0975 265.43 82.7293C265.43 82.3612 265.733 82.0627 266.106 82.0627C266.48 82.0627 266.782 82.3612 266.782 82.7293Z" fill="#FFE169"/>
<path d="M248.935 92.7663C246.471 92.7663 244.47 90.7973 244.47 88.3652V62.2124H253.397V88.3652C253.397 90.7945 251.4 92.7663 248.932 92.7663H248.935Z" fill="white"/>
<path d="M253.2 62.707H244.674C244.038 62.707 243.52 62.1966 243.52 61.5691C243.52 60.9416 244.038 60.4312 244.674 60.4312H253.2C253.836 60.4312 254.354 60.9416 254.354 61.5691C254.354 62.1966 253.836 62.707 253.2 62.707Z" fill="white"/>
<path d="M252.849 74.8442V88.3153C252.849 90.4433 251.097 92.1698 248.935 92.1698C246.774 92.1698 245.025 90.4433 245.025 88.3153V74.8442H252.849Z" fill="#2BAB95"/>
<path d="M247.305 81.0867C247.797 81.0867 248.197 80.6933 248.197 80.2081C248.197 79.7229 247.797 79.3296 247.305 79.3296C246.813 79.3296 246.414 79.7229 246.414 80.2081C246.414 80.6933 246.813 81.0867 247.305 81.0867Z" fill="#FFBB6A"/>
<path d="M250.127 78.3136C250.47 78.3136 250.747 78.0402 250.747 77.7028C250.747 77.3655 250.47 77.092 250.127 77.092C249.785 77.092 249.508 77.3655 249.508 77.7028C249.508 78.0402 249.785 78.3136 250.127 78.3136Z" fill="#FFBB6A"/>
<path d="M248.874 85.0748C248.874 85.4429 248.571 85.7414 248.197 85.7414C247.824 85.7414 247.521 85.4429 247.521 85.0748C247.521 84.7066 247.824 84.4082 248.197 84.4082C248.571 84.4082 248.874 84.7066 248.874 85.0748Z" fill="#FFBB6A"/>
<path d="M250.342 67.8246C250.923 67.8246 251.395 67.36 251.395 66.787C251.395 66.214 250.923 65.7495 250.342 65.7495C249.761 65.7495 249.289 66.214 249.289 66.787C249.289 67.36 249.761 67.8246 250.342 67.8246Z" fill="#2BAB95"/>
<path d="M247.306 58.4255C247.306 58.763 247.028 59.0363 246.686 59.0363C246.344 59.0363 246.066 58.763 246.066 58.4255C246.066 58.088 246.344 57.8147 246.686 57.8147C247.028 57.8147 247.306 58.088 247.306 58.4255Z" fill="#2BAB95"/>
<path d="M229.175 62.2124H238.102V88.3652C238.102 90.7945 236.101 92.7663 233.637 92.7663C231.172 92.7663 229.172 90.7945 229.172 88.3652V62.2124H229.175Z" fill="white"/>
<path d="M237.903 62.707H229.378C228.741 62.707 228.224 62.1966 228.224 61.5691C228.224 60.9416 228.741 60.4312 229.378 60.4312H237.903C238.54 60.4312 239.058 60.9416 239.058 61.5691C239.058 62.1966 238.54 62.707 237.903 62.707Z" fill="white"/>
<path d="M237.55 83.3958V88.3156C237.55 90.4437 235.799 92.1701 233.637 92.1701C231.475 92.1701 229.727 90.4437 229.727 88.3156V83.3958H237.55Z" fill="#FD7F00"/>
<path d="M234.473 89.8716C234.966 89.8716 235.365 89.4783 235.365 88.993C235.365 88.5078 234.966 88.1145 234.473 88.1145C233.981 88.1145 233.582 88.5078 233.582 88.993C233.582 89.4783 233.981 89.8716 234.473 89.8716Z" fill="#FFAA54"/>
<path d="M232.386 78.9275C232.386 79.2649 232.108 79.5383 231.766 79.5383C231.423 79.5383 231.146 79.2649 231.146 78.9275C231.146 78.59 231.423 78.3167 231.766 78.3167C232.108 78.3167 232.386 78.59 232.386 78.9275Z" fill="#FD7F00"/>
<path d="M234.202 74.4455C234.544 74.4455 234.821 74.172 234.821 73.8347C234.821 73.4973 234.544 73.2239 234.202 73.2239C233.86 73.2239 233.582 73.4973 233.582 73.8347C233.582 74.172 233.86 74.4455 234.202 74.4455Z" fill="#FD7F00"/>
<path d="M232.749 85.6326C232.749 86.0008 232.446 86.2992 232.072 86.2992C231.699 86.2992 231.396 86.0008 231.396 85.6326C231.396 85.2645 231.699 84.9661 232.072 84.9661C232.446 84.9661 232.749 85.2645 232.749 85.6326Z" fill="#FFAA54"/>
<path d="M273.878 69.5837H223.996V70.2392H273.878V69.5837Z" fill="#4483AB"/>
<path d="M272.054 96.2807V67.5312H271.188V96.2807H272.054Z" fill="#1B5C85"/>
<path d="M226.684 96.2841V67.5347H225.818V96.2841H226.684Z" fill="#1B5C85"/>
<path d="M274.792 98.3951H223.08C222.355 98.3951 221.77 97.8178 221.77 97.1038C221.77 96.3898 222.355 95.8125 223.08 95.8125H274.792C275.516 95.8125 276.102 96.3898 276.102 97.1038C276.102 97.8178 275.516 98.3951 274.792 98.3951Z" fill="#455D59"/>
<path d="M288.729 155.026H275.589V196.292H288.729V155.026Z" fill="white"/>
<path d="M288.501 151.754H275.819C274.722 151.754 273.833 152.631 273.833 153.712C273.833 154.793 274.722 155.67 275.819 155.67H288.501C289.598 155.67 290.487 154.793 290.487 153.712C290.487 152.631 289.598 151.754 288.501 151.754Z" fill="white"/>
<path d="M282.159 168.134L253.728 216.881C250.836 221.84 254.467 228.028 260.273 228.028H304.048C309.851 228.028 313.485 221.84 310.593 216.881L282.162 168.134H282.159Z" fill="white"/>
<path d="M302.315 226.446H262C256.658 226.446 253.311 220.754 255.973 216.18L265.291 200.213H299.03L308.339 216.18C311.002 220.751 307.663 226.446 302.312 226.446H302.315Z" fill="#2BAB95"/>
<path d="M276.258 210.474C277.622 209.13 277.622 206.95 276.258 205.606C274.895 204.262 272.684 204.262 271.32 205.606C269.957 206.95 269.957 209.13 271.32 210.474C272.684 211.818 274.895 211.818 276.258 210.474Z" fill="#FFBB6A"/>
<path d="M284.632 193.311C285.898 192.794 286.499 191.363 285.975 190.115C285.45 188.867 283.999 188.274 282.732 188.791C281.466 189.308 280.865 190.739 281.39 191.987C281.914 193.235 283.366 193.828 284.632 193.311Z" fill="#2BAB95"/>
<path d="M277.28 143.372C278.651 143.372 279.762 142.277 279.762 140.926C279.762 139.575 278.651 138.48 277.28 138.48C275.91 138.48 274.799 139.575 274.799 140.926C274.799 142.277 275.91 143.372 277.28 143.372Z" fill="#2BAB95"/>
<path d="M282.87 148.018C282.87 148.927 282.123 149.667 281.198 149.667C280.273 149.667 279.526 148.93 279.526 148.018C279.526 147.106 280.273 146.37 281.198 146.37C282.123 146.37 282.87 147.106 282.87 148.018Z" fill="#2BAB95"/>
<path d="M283.829 138.288C283.829 138.742 283.456 139.11 282.995 139.11C282.533 139.11 282.16 138.742 282.16 138.288C282.16 137.833 282.533 137.465 282.995 137.465C283.456 137.465 283.829 137.833 283.829 138.288Z" fill="#2BAB95"/>
<path d="M281.302 178.182C281.302 179.022 280.612 179.705 279.757 179.705C278.903 179.705 278.212 179.024 278.212 178.182C278.212 177.34 278.903 176.659 279.757 176.659C280.612 176.659 281.302 177.34 281.302 178.182Z" fill="#2BAB95"/>
<path d="M283.232 169.653C283.825 169.653 284.305 169.18 284.305 168.596C284.305 168.013 283.825 167.539 283.232 167.539C282.64 167.539 282.16 168.013 282.16 168.596C282.16 169.18 282.64 169.653 283.232 169.653Z" fill="#2BAB95"/>
<path d="M281.115 220.491C282.481 220.491 283.588 219.4 283.588 218.054C283.588 216.708 282.481 215.616 281.115 215.616C279.749 215.616 278.642 216.708 278.642 218.054C278.642 219.4 279.749 220.491 281.115 220.491Z" fill="#FFBB6A"/>
<path d="M284.689 211.193C285.753 211.193 286.616 210.343 286.616 209.294C286.616 208.245 285.753 207.394 284.689 207.394C283.624 207.394 282.762 208.245 282.762 209.294C282.762 210.343 283.624 211.193 284.689 211.193Z" fill="#FFBB6A"/>
<path d="M177.137 183.693C187.282 183.693 195.506 175.586 195.506 165.586C195.506 155.587 187.282 147.48 177.137 147.48C166.991 147.48 158.767 155.587 158.767 165.586C158.767 175.586 166.991 183.693 177.137 183.693Z" fill="white"/>
<path d="M181.742 126.041H172.529V154.969H181.742V126.041Z" fill="white"/>
<path d="M181.581 123.748H172.691C171.922 123.748 171.299 124.362 171.299 125.12C171.299 125.878 171.922 126.492 172.691 126.492H181.581C182.35 126.492 182.973 125.878 182.973 125.12C182.973 124.362 182.35 123.748 181.581 123.748Z" fill="white"/>
<path d="M180.793 143.168H173.478V151.992H180.793V143.168Z" fill="#319786"/>
<path d="M177.137 182.672C186.71 182.672 194.471 175.023 194.471 165.586C194.471 156.15 186.71 148.501 177.137 148.501C167.564 148.501 159.803 156.15 159.803 165.586C159.803 175.023 167.564 182.672 177.137 182.672Z" fill="#319786"/>
<path d="M184.35 171.898C184.639 170.689 183.879 169.476 182.652 169.191C181.425 168.905 180.195 169.655 179.905 170.864C179.615 172.074 180.375 173.286 181.603 173.572C182.83 173.857 184.06 173.108 184.35 171.898Z" fill="#FFBB6A"/>
<path d="M180.269 158.65C180.269 159.632 179.462 160.427 178.466 160.427C177.47 160.427 176.664 159.632 176.664 158.65C176.664 157.668 177.47 156.874 178.466 156.874C179.462 156.874 180.269 157.668 180.269 158.65Z" fill="#FFBB6A"/>
<path d="M177.519 150.339C177.927 150.339 178.257 150.013 178.257 149.611C178.257 149.209 177.927 148.883 177.519 148.883C177.111 148.883 176.78 149.209 176.78 149.611C176.78 150.013 177.111 150.339 177.519 150.339Z" fill="#FFBB6A"/>
<path d="M175.798 134.597C176.34 134.597 176.779 134.164 176.779 133.63C176.779 133.095 176.34 132.662 175.798 132.662C175.255 132.662 174.816 133.095 174.816 133.63C174.816 134.164 175.255 134.597 175.798 134.597Z" fill="#2BAB95"/>
<path d="M175.21 173.649C175.21 174.126 174.816 174.514 174.332 174.514C173.848 174.514 173.455 174.126 173.455 173.649C173.455 173.172 173.848 172.785 174.332 172.785C174.816 172.785 175.21 173.172 175.21 173.649Z" fill="#FFBB6A"/>
<path d="M178.887 178.396C178.887 178.873 178.494 179.261 178.01 179.261C177.526 179.261 177.133 178.873 177.133 178.396C177.133 177.919 177.526 177.531 178.01 177.531C178.494 177.531 178.887 177.919 178.887 178.396Z" fill="#FFBB6A"/>
<path d="M136.179 96.1447C137.515 94.5298 140.308 94.3513 142.067 96.1447C143.827 97.938 143.341 102.844 143.584 106.735C143.827 110.623 144.495 113.016 144.495 113.016C144.495 113.016 144.071 113.055 143.706 112.737C143.341 112.419 142.37 110.982 142.37 110.982C142.37 110.982 142.614 112.937 142.492 112.977C142.37 113.016 139.942 113.534 136.949 113.495C133.955 113.456 132.011 113.016 131.81 112.857C131.607 112.698 131.445 112.059 131.163 112.059C130.88 112.059 130.758 112.776 130.393 112.737C130.028 112.698 129.097 112.419 129.097 112.419C129.097 112.419 129.867 110.305 129.502 110.464C129.137 110.623 128.327 112.098 127.965 112.179C127.6 112.26 127.278 112.218 127.278 112.218C127.278 112.218 128.209 110.383 128.978 106.436C129.748 102.487 130.232 97.6619 132.255 96.2256C134.278 94.7892 136.179 96.1447 136.179 96.1447Z" fill="#4B494A"/>
<path d="M138.439 115.657C138.77 116.327 132.653 116.251 132.944 115.696C133.216 115.122 133.703 111.217 133.663 109.667C133.663 109.667 137.995 111.064 138.032 111.906V112.079C138.052 112.461 138.072 113.036 138.108 113.63C138.168 114.452 138.264 115.275 138.439 115.66V115.657Z" fill="#E7AE90"/>
<path d="M138.111 113.627C135.568 114.277 133.975 111.809 133.683 110.065C133.683 110.065 136.558 111.1 138.032 112.076C138.052 112.458 138.072 113.033 138.108 113.627H138.111Z" fill="#CB906F"/>
<path d="M141.883 102.527C142.166 105.04 141.017 112.562 137.472 112.696C133.264 112.855 131.846 106.074 132.494 103.004C133.142 99.9329 137.794 98.9345 139.452 99.654C141.11 100.371 141.88 102.527 141.88 102.527H141.883Z" fill="#E7AE90"/>
<path d="M138.035 108.511C138.015 108.509 137.998 108.489 137.998 108.464C137.998 108.436 138.018 108.414 138.041 108.411C138.683 108.369 138.774 107.887 138.785 107.761C138.655 107.683 138.08 107.295 137.899 106.559C137.778 106.071 137.86 105.536 138.14 104.967C138.154 104.944 138.179 104.936 138.199 104.947C138.219 104.961 138.227 104.992 138.213 105.017C137.945 105.558 137.865 106.065 137.981 106.528C138.171 107.301 138.844 107.683 138.85 107.686L138.873 107.7V107.731C138.873 107.731 138.844 108.458 138.038 108.511C138.035 108.511 138.032 108.511 138.029 108.511H138.035Z" fill="#5A213E"/>
<path d="M136.462 105.985C136.479 106.409 136.343 106.76 136.162 106.766C135.981 106.771 135.82 106.434 135.803 106.01C135.786 105.586 135.921 105.234 136.102 105.229C136.284 105.223 136.445 105.561 136.462 105.985Z" fill="#5A213E"/>
<path d="M139 105.985C138.983 106.409 139.119 106.76 139.3 106.766C139.481 106.771 139.643 106.434 139.66 106.01C139.677 105.586 139.541 105.234 139.36 105.229C139.179 105.223 139.017 105.561 139 105.985Z" fill="#5A213E"/>
<path d="M134.761 104.197C134.634 104.451 136.221 104.066 136.289 103.904C136.357 103.742 136.168 103.664 135.859 103.658C135.554 103.653 134.793 104.133 134.759 104.197H134.761Z" fill="#5A213E"/>
<path d="M140.726 104.317C140.853 104.57 139.266 104.186 139.198 104.024C139.13 103.862 139.32 103.784 139.628 103.778C139.934 103.773 140.695 104.253 140.729 104.317H140.726Z" fill="#5A213E"/>
<path d="M133.989 106.997C133.938 107.237 134.317 107.516 134.832 107.622C135.347 107.725 135.806 107.614 135.857 107.374C135.908 107.134 135.528 106.855 135.013 106.749C134.499 106.646 134.04 106.757 133.989 106.997Z" fill="#DC7269"/>
<path d="M141.416 106.936C141.481 107.173 141.125 107.477 140.618 107.613C140.112 107.75 139.648 107.669 139.58 107.432C139.515 107.195 139.871 106.891 140.378 106.754C140.884 106.618 141.348 106.699 141.416 106.936Z" fill="#DC7269"/>
<path d="M135.876 109.259C137.382 109.978 138.949 109.551 138.949 109.551C138.949 109.551 138.737 110.843 137.24 110.687C136.035 110.561 135.874 109.261 135.874 109.261L135.876 109.259Z" fill="white"/>
<path d="M132.629 103.653C132.114 103.235 131.05 103.622 131.081 104.64C131.124 106.104 132.355 107.541 132.994 106.883C133.631 106.224 132.629 103.653 132.629 103.653Z" fill="#E7AE90"/>
<path d="M106.802 116.327C107.45 115.808 107.085 109.349 106.72 109.109C106.355 108.869 105.546 111.103 105.546 111.103C105.546 111.103 104.737 108.989 103.846 107.753C102.954 106.518 101.794 106.141 101.539 106.239C100.691 106.557 101.155 114.154 105.303 117.526C110.237 121.537 106.8 116.33 106.8 116.33L106.802 116.327Z" fill="#E7AE90"/>
<path d="M155.295 162.727C155.416 165.6 155.518 167.494 154.87 169.845C154.222 172.199 153.212 173.075 152.887 172.996C152.561 172.918 152.805 166.096 152.805 166.096C152.805 166.096 152.318 168.648 151.913 168.729C151.509 168.81 150.821 164.621 152.114 163.026C153.41 161.43 155.292 162.727 155.292 162.727H155.295Z" fill="#E7AE90"/>
<path d="M132.358 103.522C136.15 104.378 138.595 100.73 138.595 100.73C138.595 100.73 139.441 103.703 142.228 102.958C144.904 102.244 138.184 97.2158 135.83 98.0944C133.476 98.9729 131.742 102.35 131.877 102.733C132.013 103.115 132.358 103.522 132.358 103.522Z" fill="#4B494A"/>
<path d="M131.969 181.69C133.669 181.291 137.067 181.052 138.12 181.531C139.173 182.011 138.921 162.058 136.898 162.778C134.875 163.497 131.969 181.693 131.969 181.693V181.69Z" fill="#D1D1D1"/>
<path d="M149.045 228.027H136.867C136.887 227.394 137.062 226.711 137.334 226.078C137.701 225.188 138.248 224.385 138.811 223.924H138.83C138.907 223.838 139.006 223.771 139.082 223.718C139.082 223.718 139.725 223.308 140.539 222.865C141.821 222.215 143.491 221.531 143.646 222.438C143.706 222.798 143.782 223.088 143.878 223.328C144.189 224.114 144.617 224.371 144.617 224.371C144.617 224.371 147.356 224.901 148.386 226.131C148.929 226.764 149.201 227.26 149.045 228.027Z" fill="#388477"/>
<path d="M120.981 226.351C120.961 226.932 120.845 227.531 120.729 228.028H105.484C105.543 226.881 106.59 225.412 109.892 224.745C111.833 224.352 113.29 223.908 114.32 223.532C114.32 223.532 114.34 223.532 114.38 223.515C115.41 223.139 115.993 222.865 116.205 222.815C116.36 222.782 116.844 222.865 117.447 223.002C117.467 222.985 117.467 223.002 117.467 223.002C118.593 223.242 120.03 223.618 120.03 223.618C120.107 223.685 120.186 223.755 120.243 223.825C120.825 224.491 121.001 225.431 120.981 226.354V226.351Z" fill="#388477"/>
<path d="M129.139 153.424C133.024 152.782 142.853 150.86 144.189 153.53C145.525 156.201 146.982 164 147.222 179.705C147.466 195.41 145.281 222.547 144.551 223.083C143.821 223.618 136.662 224.257 136.297 223.83C135.932 223.403 136.419 206.948 136.903 191.243C137.39 175.538 136.501 164.527 136.501 164.527C136.501 164.527 133.87 178.848 129.741 195.73C125.613 212.613 121.853 223.295 120.761 223.724C119.668 224.151 112.75 223.724 112.629 222.871C112.507 222.017 116.695 209.464 118.616 199.97C120.922 188.574 121.731 182.697 123.794 175.432C125.857 168.166 129.136 153.424 129.136 153.424H129.139Z" fill="#AFAFAF"/>
<path d="M127.843 117.082C129.462 116.602 131.972 116.284 132.781 116.284C133.59 116.284 140.469 116.203 143.219 117.562C145.681 118.775 145.242 151.78 143.462 153.217C141.682 154.653 135.695 155.769 131.972 155.052C128.248 154.335 127.843 117.085 127.843 117.085V117.082Z" fill="#93642F"/>
<path d="M140.344 116.767C140.285 116.881 140.073 117.342 139.102 117.724C139.062 117.743 139.043 117.743 139.006 117.763C138.327 118.011 137.297 118.242 135.743 118.279H135.472C131.762 118.318 130.695 116.669 131.16 116.402C132.869 115.52 132.461 114.296 132.945 113.855C133.296 113.549 133.76 113.78 134.422 114.064H134.442C134.455 114.051 134.468 114.051 134.481 114.064C134.521 114.084 134.558 114.104 134.617 114.123H134.637C134.657 114.123 134.657 114.143 134.677 114.123C134.909 114.218 135.104 114.316 135.376 114.371C135.531 114.41 135.687 114.43 135.823 114.43C135.882 114.449 135.919 114.449 135.958 114.449C136.561 114.469 137.045 114.296 137.455 114.162H137.475C137.534 114.143 137.611 114.104 137.67 114.104C137.766 114.064 137.846 114.045 137.922 114.028C138.485 113.914 139.028 114.028 139.068 114.756C139.144 116.232 140.505 116.441 140.35 116.767H140.344Z" fill="#93642F"/>
<path d="M134.731 133.231C134.963 154.768 127.08 181.339 126.225 182.41C125.371 183.481 119.661 183.961 120.167 182.89C120.535 182.028 122.946 172.361 124.012 161.774C124.264 159.306 124.459 156.779 124.516 154.288C124.556 152.95 124.592 151.686 124.612 150.459C124.864 139.777 124.748 133.479 124.516 129.287C124.284 124.616 123.953 118.223 125.622 117.571C127.934 116.653 134.731 133.231 134.731 133.231Z" fill="white"/>
<path d="M148.074 180.494C147.822 181.699 144.791 183.002 144.189 182.525C143.586 182.045 144.675 175.117 143.218 162.789C141.761 150.462 140.304 143.76 140.79 134.073C140.79 134.073 141.277 129.767 141.393 127.489C141.529 125.229 143.218 117.554 145.53 118.396C147.822 119.239 145.646 138.017 145.53 144.834C145.51 145.983 145.569 147.706 145.705 149.812C145.861 152.397 146.093 155.555 146.365 158.849C147.16 168.708 148.229 179.752 148.074 180.5V180.494Z" fill="white"/>
<path d="M143.219 117.562C147.831 118.159 150.137 124.501 151.838 129.647C153.538 134.792 154.509 146.398 155.114 152.977C155.72 159.556 156.45 163.626 156.085 163.626C155.72 163.626 152.2 164.105 151.108 163.146C150.016 162.189 145.282 140.532 144.795 134.313C144.308 128.09 142.732 128.81 142.489 123.784C142.246 118.758 143.216 117.562 143.216 117.562H143.219Z" fill="white"/>
<path d="M125.616 117.562C121.488 119.238 114.57 127.971 114.57 127.971C114.57 127.971 108.866 115.049 108.136 115.169C107.409 115.289 103.767 117.082 103.767 117.682C103.767 118.282 107.409 135.629 112.386 135.629C115.43 135.629 124.524 131.203 125.008 130.127C125.495 129.05 125.614 117.565 125.614 117.565L125.616 117.562Z" fill="white"/>
<path d="M145.364 119.517C145.325 121.073 143.098 125.461 143.098 125.461C143.098 125.461 145.243 125.541 145.526 126.456C145.809 127.374 142.532 130.394 141.519 132.308C140.509 134.221 140.792 126.375 142.246 123.823C143.703 121.271 145.361 119.517 145.361 119.517H145.364Z" fill="#D1D1D1"/>
<path d="M125.434 118.697C126.184 121.31 130.259 125.876 130.259 125.876C130.259 125.876 127.559 126.654 128.731 128.21C129.481 129.203 134.234 132.586 134.234 132.188C134.234 131.789 130.228 120.99 129.014 120.075C127.8 119.16 125.432 118.7 125.432 118.7L125.434 118.697Z" fill="#D1D1D1"/>
<path d="M140.791 134.073C140.304 125.937 140.972 116.725 141.337 116.664C141.702 116.605 145.038 118.457 145.465 119.177C145.889 119.893 142.004 125.937 142.004 125.937C142.004 125.937 144.676 126.116 144.857 126.476C145.038 126.835 143.951 127.895 143.037 129.348C141.642 131.563 140.791 134.073 140.791 134.073Z" fill="white"/>
<path d="M125.616 117.562C126.385 117.164 128.53 116.804 128.974 116.804C129.419 116.804 130.593 119.437 129.056 119.794C127.52 120.153 125.619 117.56 125.619 117.56L125.616 117.562Z" fill="#FFE8CD"/>
<path d="M134.721 133.236C133.689 124.802 130.836 116.605 129.987 116.067C129.139 115.528 125.435 118.161 125.435 118.7C125.435 119.238 131.402 126.336 131.402 126.336C131.402 126.336 129.54 126.417 128.287 127.731C127.97 128.062 129.501 128.447 131.504 129.945C133.507 131.44 134.721 133.236 134.721 133.236Z" fill="white"/>
<path d="M146.365 158.843C145.743 158.901 145.123 158.823 144.832 158.555C144.269 158 144.113 150.746 144.113 150.191C144.113 149.75 144.753 149.75 145.706 149.809C145.862 152.394 146.094 155.551 146.365 158.845V158.843Z" fill="#D1D1D1"/>
<path d="M130.031 150.344C130.107 150.824 128.398 160.948 127.835 161.353C127.408 161.66 125.212 161.849 124.01 161.774C124.261 159.306 124.457 156.779 124.513 154.288C124.553 152.949 124.59 151.686 124.609 150.459C126.941 150.325 129.952 149.904 130.028 150.344H130.031Z" fill="#D1D1D1"/>
<g style="mix-blend-mode:multiply">
<path d="M126.714 126.825C127.147 126.398 132.057 126.306 132.218 126.546C132.379 126.786 133.471 130.096 133.31 130.333C133.149 130.57 126.958 131.131 126.754 130.891C126.55 130.651 126.632 126.903 126.714 126.822V126.825Z" fill="#E6E6E6"/>
</g>
<path d="M126.265 126.495C126.698 126.068 131.607 125.976 131.768 126.216C131.93 126.456 133.022 129.767 132.861 130.004C132.699 130.244 126.508 130.801 126.305 130.562C126.101 130.322 126.183 126.573 126.265 126.492V126.495Z" fill="white"/>
<path d="M129.138 127.044C129.532 126.986 129.594 124.98 129.532 124.802C129.469 124.623 128.652 124.503 128.561 124.682C128.471 124.86 129.138 127.044 129.138 127.044Z" fill="#455D59"/>
<path d="M139.103 117.724C139.063 117.743 139.043 117.743 139.006 117.763C138.987 117.629 138.89 117.514 138.755 117.381C138.463 117.054 138.075 116.633 138.112 115.562C138.132 114.893 138.036 114.472 137.801 114.279C137.705 114.204 137.606 114.165 137.47 114.165C137.529 114.145 137.606 114.106 137.665 114.106C137.742 114.126 137.801 114.165 137.86 114.201C138.112 114.41 138.228 114.851 138.211 115.559C138.172 116.594 138.542 117.015 138.834 117.319C138.97 117.453 139.066 117.567 139.105 117.721L139.103 117.724Z" fill="#B77221"/>
<path d="M134.615 114.126C134.129 114.145 134.013 114.776 133.936 115.964C133.897 116.597 133.605 116.92 133.353 117.188C133.158 117.417 132.986 117.59 133.042 117.877C133.062 117.916 133.042 117.936 133.003 117.936C132.983 117.936 132.963 117.916 132.943 117.897C132.884 117.57 133.059 117.361 133.274 117.13C133.526 116.862 133.798 116.555 133.837 115.941C133.914 115.004 133.993 114.237 134.42 114.064H134.44C134.453 114.051 134.466 114.051 134.48 114.064C134.519 114.084 134.556 114.104 134.615 114.123V114.126Z" fill="#B77221"/>
<path d="M135.857 115.752C135.877 115.944 135.896 116.134 135.896 116.326C135.936 116.881 135.8 117.322 135.701 117.665C135.625 117.894 135.565 118.106 135.565 118.278H135.469C135.469 118.086 135.529 117.877 135.605 117.629C135.701 117.302 135.837 116.881 135.8 116.346C135.8 116.136 135.78 115.944 135.761 115.771C135.701 115.236 135.645 114.775 135.82 114.432C135.88 114.452 135.916 114.452 135.956 114.452C135.761 114.778 135.8 115.219 135.86 115.754L135.857 115.752Z" fill="#B77221"/>
<path d="M132.42 105.976C132.2 105.186 132.446 104.545 132.143 104.366C131.838 104.185 131.741 104.732 131.869 105.167C132.041 105.753 132.42 105.979 132.42 105.979V105.976Z" fill="#CB906F"/>
<path d="M144.617 224.369C143.338 224.246 141.864 224.787 141.864 224.787C141.864 224.787 142.367 224.385 143.219 224.265C144.071 224.145 144.614 224.369 144.614 224.369H144.617Z" fill="#745B86"/>
<path d="M141.698 193.058C142.264 194.294 146.008 193.298 145.886 191.683C145.81 190.668 141.333 192.263 141.698 193.058Z" fill="#8E8D8D"/>
<path d="M121.083 191.884C120.322 192.291 122.376 194.567 123.876 194.216C125.803 193.764 122.634 191.056 121.083 191.884Z" fill="#8E8D8D"/>
<path d="M131.555 127.714L126.99 127.96C126.99 127.96 126.971 127.971 126.971 127.982V128.033C126.971 128.033 126.985 128.052 126.996 128.052L131.56 127.806C131.56 127.806 131.58 127.795 131.58 127.784V127.733C131.58 127.733 131.566 127.714 131.555 127.714Z" fill="#8E8D8D"/>
<path d="M129.622 128.314L127.019 128.453C127.019 128.453 126.999 128.465 126.999 128.476V128.526C126.999 128.526 127.013 128.546 127.024 128.546L129.628 128.406C129.628 128.406 129.647 128.395 129.647 128.384V128.333C129.647 128.333 129.633 128.314 129.622 128.314Z" fill="#8E8D8D"/>
<path d="M350.445 96.9863C349.582 95.6392 346.197 94.3591 343.676 95.9934C341.155 97.6278 340.796 100.679 340.652 104.439C340.507 108.201 336.26 108.483 335.612 112.033C334.964 115.581 339.141 116.931 339.429 119.201C339.718 121.471 355.665 121.349 356.242 119.29C356.819 117.232 352.391 114.588 352.677 113.099C352.966 111.609 355.498 110.736 354.262 108.059C353.325 106.037 351.67 106.851 351.885 103.588C352.1 100.322 352.731 99.7726 352.298 98.2107C351.865 96.6489 350.445 96.9863 350.445 96.9863Z" fill="#4B494A"/>
<path d="M340.312 122.749C340.745 124.606 342.748 126.001 349.593 124.827C356.454 123.653 355.486 118.063 352.029 117.793C348.574 117.536 348.797 109.652 349.058 106.773C349.058 106.773 344.565 106.143 344.788 111.236V111.303C344.822 111.916 344.839 112.46 344.839 112.954C344.822 116.599 343.82 117.11 342.247 117.586C340.467 118.114 339.879 120.891 340.312 122.749Z" fill="#EEC0B3"/>
<path d="M344.789 111.235V111.302C344.823 111.916 344.84 112.459 344.84 112.953C346.948 113.43 348.71 109.394 348.971 107.69C348.971 107.69 346.051 109.684 344.789 111.232V111.235Z" fill="#DCA396"/>
<path d="M341.07 105.766C341.053 106.073 341.07 106.38 341.104 106.67C341.26 108.968 341.967 110.945 343.541 111.576C346.684 112.803 349.935 107.847 349.935 103.298C349.935 98.7489 347.066 98.9023 345.252 99.2621C343.456 99.6191 341.588 100.813 341.588 100.813C341.26 102.31 341.036 104.084 341.07 105.769V105.766Z" fill="#EEC0B3"/>
<path d="M343.586 108.05C343.606 108.05 343.622 108.033 343.625 108.011C343.631 107.986 343.614 107.961 343.591 107.955C342.994 107.824 342.98 107.361 342.986 107.241C343.119 107.185 343.716 106.904 343.993 106.24C344.177 105.796 344.18 105.283 343.999 104.711C343.99 104.686 343.965 104.678 343.945 104.684C343.925 104.692 343.914 104.72 343.92 104.745C344.095 105.292 344.092 105.78 343.92 106.195C343.628 106.892 342.941 107.157 342.935 107.16L342.909 107.171V107.199C342.909 107.199 342.825 107.885 343.574 108.05C343.574 108.05 343.58 108.05 343.583 108.05H343.586Z" fill="#5A213E"/>
<path d="M345.405 105.172C345.388 105.579 345.519 105.914 345.694 105.922C345.869 105.928 346.022 105.604 346.039 105.197C346.056 104.79 345.926 104.455 345.751 104.447C345.575 104.439 345.422 104.765 345.405 105.172Z" fill="#5A213E"/>
<path d="M342.306 105.172C342.289 105.579 342.419 105.914 342.595 105.922C342.77 105.928 342.923 105.604 342.94 105.197C342.957 104.79 342.827 104.455 342.651 104.447C342.476 104.439 342.323 104.765 342.306 105.172Z" fill="#5A213E"/>
<path d="M347.236 103.476C347.349 103.702 345.934 103.359 345.875 103.214C345.816 103.069 345.985 102.999 346.257 102.997C346.529 102.994 347.205 103.418 347.236 103.476Z" fill="#5A213E"/>
<path d="M341.605 103.476C341.492 103.702 342.907 103.359 342.966 103.214C343.026 103.069 342.856 102.999 342.584 102.997C342.31 102.994 341.636 103.418 341.605 103.476Z" fill="#5A213E"/>
<path d="M347.717 106.394C347.757 106.639 347.361 106.907 346.834 106.988C346.308 107.069 345.85 106.938 345.81 106.689C345.77 106.441 346.167 106.176 346.693 106.095C347.219 106.015 347.677 106.146 347.717 106.394Z" fill="#E38585"/>
<path d="M341.07 105.766C341.053 106.073 341.07 106.38 341.104 106.67C341.622 106.773 342.072 106.653 342.123 106.413C342.174 106.173 341.778 105.886 341.26 105.783C341.192 105.766 341.121 105.749 341.07 105.766Z" fill="#E38585"/>
<path d="M349.653 104.651C350.739 103.937 351.435 104.81 351.11 105.875C350.784 106.94 349.273 107.579 349.058 106.779C348.843 105.981 349.327 104.863 349.653 104.651Z" fill="#EEC0B3"/>
<path d="M350.082 218.655C350.297 220.928 350.297 222.56 352.08 224.44C353.862 226.32 357.911 225.232 357.911 225.232C357.911 225.232 354.457 222.066 353.752 220.387C353.356 219.436 353.483 218.46 353.427 217.816C353.373 217.174 350.079 218.655 350.079 218.655H350.082Z" fill="#EEC0B3"/>
<path d="M335.558 218.111C334.584 222.61 332.64 225.034 330.968 225.628C329.293 226.222 333.775 226.618 334.91 226.074C336.044 225.53 340.741 222.069 340.419 221.427C340.093 220.786 338.529 220.437 338.962 218.262C339.394 216.086 335.56 218.114 335.56 218.114L335.558 218.111Z" fill="#EEC0B3"/>
<path d="M349.653 184.283C346.954 183.112 340.474 182.473 340.474 182.473C340.474 182.473 342.743 156.178 345.01 157.988C347.279 159.798 349.653 184.283 349.653 184.283Z" fill="#D1D1D1"/>
<path d="M338.42 152.304C335.073 164.172 333.129 176.53 334.207 186.42C335.288 196.307 334.855 217.264 335.503 218.293C335.989 219.068 338.672 218.82 339.102 218.424C339.535 218.028 342.63 202.041 342.415 193.836C342.2 185.631 341.334 184.936 341.982 180.387C342.63 175.838 345.114 159.299 345.114 159.299C345.114 159.299 348.139 178.903 347.491 183.352C346.843 187.8 346.088 191.956 346.41 197.294C346.736 202.635 349.435 218.555 349.976 219.149C350.516 219.743 353.108 219.445 353.541 219.247C353.974 219.049 354.189 196.405 354.944 187.109C355.7 177.813 352.567 153.289 351.812 151.113C351.056 148.938 338.42 152.299 338.42 152.299V152.304Z" fill="#AFAFAF"/>
<path d="M352.03 122.855C348.79 122.428 341.445 122.004 339.719 123.067C337.99 124.132 335.29 151.384 338.423 152.449C341.555 153.515 351.274 153.088 352.355 152.343C353.436 151.599 352.03 122.855 352.03 122.855Z" fill="#93642F"/>
<path d="M349.904 104.508C347.946 104.704 348.212 100.925 348.212 100.925C348.212 100.925 342.055 103.8 341.515 101.031C340.974 98.261 349.183 97.3044 350.012 98.5817C350.841 99.8591 350.371 103.407 350.263 103.691C350.156 103.976 349.904 104.508 349.904 104.508Z" fill="#4B494A"/>
<path d="M331.066 184.172C333.245 187.153 337.562 186.523 337.562 185.976C337.562 185.43 336.145 178.959 337.874 165.535C338.824 158.125 340.016 149.54 340.709 141.773C340.709 141.636 340.726 141.5 340.743 141.363C341.261 135.247 341.487 129.677 341.02 125.624C339.707 114.262 335.938 129.984 335.938 129.984C336.199 135.06 336.371 138.125 336.182 141.193C336.148 141.5 336.131 141.79 336.094 142.096C335.938 144.021 335.61 146.032 335.075 148.62C333.556 155.757 328.924 181.188 331.066 184.169V184.172Z" fill="white"/>
<path d="M336.096 142.099C336.841 142.338 339.481 142.138 340.711 141.775C340.711 141.638 340.728 141.502 340.745 141.365C340.14 141.212 338.516 140.975 337.342 140.975C336.79 140.975 336.408 141.061 336.184 141.195C336.15 141.502 336.133 141.792 336.096 142.099Z" fill="#D1D1D1"/>
<path d="M331.653 140.414C333.261 142.459 342.887 142.118 347.898 140.211C348.036 140.144 348.192 140.091 348.331 140.041C348.574 139.937 348.797 139.82 349.004 139.717C353.41 137.436 347.258 136.088 344.078 135.698C343.99 135.681 343.905 135.681 343.817 135.664C342.988 135.561 342.089 135.561 341.209 135.578C338.806 135.645 336.543 136.021 336.336 135.818C336.042 135.528 340.156 118.138 340.156 118.138C334.022 119.416 332.726 124.595 331.931 128.494C331.153 132.412 329.927 138.219 331.653 140.417V140.414Z" fill="white"/>
<path d="M337.701 119.131C338.419 121.332 339.5 123.708 339.5 123.708C339.5 123.708 337.664 124.452 337.627 125.055C337.59 125.657 340.615 131.657 340.867 131.763C341.119 131.869 340.508 124.168 340.219 122.358C339.93 120.548 337.698 119.128 337.698 119.128L337.701 119.131Z" fill="#D1D1D1"/>
<path d="M341.337 133.023C341.877 128.606 341.444 117 340.85 117.48C340.256 117.96 337.449 118.492 337.556 118.81C337.664 119.131 340.31 124.135 340.31 124.135C340.31 124.135 338.411 124.419 338.04 124.985C337.879 125.234 341.334 133.023 341.334 133.023H341.337Z" fill="white"/>
<path d="M337.115 135.678C337.494 135.661 337.633 135.168 337.667 134.775H337.684C337.718 134.501 337.701 134.281 337.701 134.281C337.701 134.281 337.735 134.298 337.769 134.314C338.148 134.518 340.239 135.542 341.017 134.775C341.88 133.924 342.675 132.22 342.675 132.22C339.115 131.419 336.368 132.323 335.763 133.394C335.174 134.468 336.47 135.728 337.109 135.675L337.115 135.678Z" fill="#EEC0B3"/>
<path d="M348.175 139.101V140.241C348.158 147.072 348.398 154.636 349.004 160.325C350.3 172.675 350.733 185.125 350.939 185.672C351.163 186.199 357.54 185.245 358.508 181.943C359.476 178.638 356.451 160.975 354.62 150.653C354.137 147.945 353.998 145.133 354.049 142.358V141.795C354.238 134.214 355.812 126.993 355.812 122.855C355.812 122.855 352.303 113.23 349.106 123.451C348.571 125.189 348.226 131.609 348.172 139.106L348.175 139.101Z" fill="white"/>
<path d="M351.245 129.77H354.29C354.309 129.77 354.324 129.755 354.324 129.736V128.752C354.324 128.733 354.309 128.718 354.29 128.718H351.245C351.227 128.718 351.211 128.733 351.211 128.752V129.736C351.211 129.755 351.227 129.77 351.245 129.77Z" fill="#D1D1D1"/>
<path d="M353.299 127.741V130.745C353.299 130.762 353.285 130.779 353.265 130.779H352.263C352.246 130.779 352.229 130.765 352.229 130.745V127.741C352.229 127.725 352.243 127.708 352.263 127.708H353.265C353.282 127.708 353.299 127.722 353.299 127.741Z" fill="#D1D1D1"/>
<path d="M349.599 134.061C350.626 133.316 353.648 132.73 355.377 133.581C357.106 134.432 357.428 135.871 354.7 135.709C351.973 135.55 349.596 134.058 349.596 134.058L349.599 134.061Z" fill="#EEC0B3"/>
<path d="M353.181 118.42C356.132 118.775 357.646 118.989 358.509 120.267C358.834 120.746 359.734 123.343 360.481 126.598C358.667 126.807 356.712 127.529 354.893 128.076C354.335 123.572 353.181 118.42 353.181 118.42Z" fill="white"/>
<path d="M354.214 118.546C353.359 119.77 350.694 123.923 350.694 123.923C350.694 123.923 353.034 124.171 353.034 124.916C353.034 125.661 348.643 132.332 348.569 132.971C348.498 133.61 348.569 125.092 349.794 122.431C351.019 119.77 354.214 118.546 354.214 118.546Z" fill="#D1D1D1"/>
<path d="M348.357 134.406C348.032 128.658 348.626 124.134 349.438 121.1C350.25 118.066 350.734 116.869 351.167 117.24C351.6 117.614 354.406 118.325 354.217 118.545C350.705 122.645 349.924 124.293 349.924 124.293C349.924 124.293 352.57 124.452 352.624 124.826C352.678 125.2 351.167 127.434 350.086 129.777C349.005 132.119 348.357 134.406 348.357 134.406Z" fill="white"/>
<path d="M341.21 135.575C341.676 136.529 346.272 139.544 347.899 140.207C348.054 140.274 348.193 140.327 348.278 140.344C348.278 140.344 348.312 140.224 348.329 140.037C348.416 139.287 348.329 137.279 345.375 136.172C344.891 136.002 344.458 135.831 344.079 135.695C343.991 135.678 343.906 135.678 343.818 135.661C342.989 135.558 342.09 135.558 341.21 135.575Z" fill="#D1D1D1"/>
<path d="M348.175 140.242C348.243 140.308 348.28 140.345 348.28 140.345C350.716 141.452 353.05 142.286 354.052 142.356V141.792C352.946 140.942 350.043 139.357 348.591 139.134C348.436 139.101 348.297 139.101 348.175 139.101C347.12 139.084 347.881 139.951 348.175 140.242Z" fill="#D1D1D1"/>
<path d="M342.596 131.478C343.459 131.478 351.886 134.883 354.333 134.671C355.394 134.579 355.318 131.517 354.893 128.075C356.713 127.528 358.668 126.806 360.482 126.597C361.724 132.022 362.533 139.279 359.52 141.627C354.695 145.389 340.726 135.452 340.726 135.098C340.726 134.744 341.733 131.478 342.599 131.478H342.596Z" fill="white"/>
<path d="M343.711 116.814C342.738 117.729 344.43 121.117 342.882 123.033C341.335 124.949 338.743 124.559 338.743 124.347C338.743 124.135 341.009 122.041 338.904 117.932C336.762 113.754 343.711 116.814 343.711 116.814Z" fill="#4B494A"/>
<path d="M350.439 221.528C350.439 221.528 351.112 227.287 351.684 228.222H358.82C358.854 228.191 358.888 228.174 358.908 228.143C360.187 226.813 356.989 224.236 355.382 222.655C355.693 223.051 356.955 224.663 356.921 224.95C356.887 225.282 355.054 225.583 353.69 225.123C352.326 224.663 350.442 221.531 350.442 221.531L350.439 221.528Z" fill="#388477"/>
<path d="M326.227 228.222H335.663C336.079 227.541 336.526 226.576 337.166 225.943C338.167 224.914 339.101 224.457 339.291 224.551C339.429 224.646 339.203 227.226 339.135 228.222H339.913C340.363 227.05 341.037 224.077 341.158 223.207C341.297 222.147 340.725 221.23 339.534 220.566C339.534 220.566 338.928 220.803 337.944 221.69C336.976 222.577 334.973 224.49 333.985 225.249C333.018 226.007 331.515 225.374 331.515 225.374C331.515 225.374 328.734 226.498 327.732 226.925C326.886 227.274 326.402 227.684 326.23 228.222H326.227Z" fill="#388477"/>
<g style="mix-blend-mode:multiply">
<path d="M340.876 128.541C340.228 128.224 337.203 128.151 336.988 128.363C336.773 128.575 336.014 131.06 336.195 131.238C336.377 131.417 339.976 131.45 340.409 131.169C340.842 130.887 341.164 128.684 340.876 128.541Z" fill="#E6E6E6"/>
</g>
<path d="M340.652 128.321C340.004 128.003 336.979 127.931 336.764 128.143C336.549 128.355 335.791 130.84 335.972 131.018C336.153 131.197 339.752 131.23 340.185 130.949C340.618 130.664 340.94 128.464 340.652 128.321Z" fill="white"/>
<path d="M339.152 127.247C338.872 127.094 338.122 127.141 338.122 127.328C338.122 127.515 338.343 128.979 338.442 129.032C338.541 129.085 339.348 127.356 339.152 127.25V127.247Z" fill="#455D59"/>
<path d="M345.547 108.909C344.036 109.495 342.55 108.962 342.55 108.962C342.55 108.962 342.658 110.226 344.115 110.187C345.292 110.153 345.547 108.909 345.547 108.909Z" fill="white"/>
<path d="M336.689 129.285L340.116 129.456C340.116 129.456 340.13 129.464 340.13 129.473V129.509C340.13 129.509 340.121 129.523 340.11 129.523L336.684 129.352C336.684 129.352 336.669 129.344 336.669 129.336V129.299C336.669 129.299 336.678 129.285 336.689 129.285Z" fill="#8E8D8D"/>
<path d="M338.141 129.729L340.096 129.826C340.096 129.826 340.11 129.835 340.11 129.843V129.879C340.11 129.879 340.102 129.893 340.09 129.893L338.135 129.796C338.135 129.796 338.121 129.787 338.121 129.779V129.743C338.121 129.743 338.129 129.729 338.141 129.729Z" fill="#8E8D8D"/>
<path d="M349.604 106.287C349.604 106.287 349.935 105.049 350.269 105.152C350.546 105.239 350.368 105.59 350.206 105.813C349.963 106.154 349.604 106.287 349.604 106.287Z" fill="#DCA396"/>
<path d="M336.803 133.854C336.736 133.941 337.219 134.775 337.666 134.775H337.683C337.717 134.501 337.7 134.281 337.7 134.281C337.7 134.281 336.888 133.771 336.801 133.854H336.803Z" fill="#DCA396"/>
<path d="M337.786 189.984C336.756 191.002 334.792 189.455 334.639 188.621C334.486 187.787 338.705 189.075 337.786 189.984Z" fill="#8E8D8D"/>
<path d="M350.176 190.369C351.036 191.775 353.758 190.798 354.191 189.976C354.627 189.153 349.406 189.114 350.176 190.369Z" fill="#8E8D8D"/>
<path d="M336.203 131.531C335.394 132.967 334.689 135.712 335.046 136.163C335.32 136.515 335.394 136.191 335.394 135.388C335.394 133.358 336.203 131.528 336.203 131.528V131.531Z" fill="#D1D1D1"/>
<path d="M334.998 136.053C336.136 136.173 341.138 135.584 341.138 135.584C341.138 135.584 336.082 136.585 335.555 136.507C335.029 136.429 335.001 136.053 335.001 136.053H334.998Z" fill="#D1D1D1"/>
<path d="M189.278 229.028C189.213 229.028 189.151 229.025 189.083 229.014C188.381 228.922 187.9 228.359 188.008 227.754L207.707 115.941C207.815 115.339 208.46 114.92 209.167 115.012C209.866 115.104 210.347 115.668 210.242 116.273L190.543 228.085C190.447 228.632 189.901 229.025 189.276 229.025L189.278 229.028Z" fill="#388477"/>
<path d="M219.481 229.028C219.416 229.028 219.351 229.025 219.286 229.014C218.587 228.922 218.106 228.359 218.211 227.754L237.91 115.941C238.017 115.339 238.662 114.92 239.37 115.012C240.069 115.104 240.55 115.668 240.445 116.273L220.746 228.085C220.65 228.632 220.104 229.025 219.481 229.025V229.028Z" fill="#388477"/>
<path d="M237.346 125.605H207.234C206.762 125.605 206.38 125.276 206.38 124.868C206.38 124.461 206.762 124.132 207.234 124.132H237.346C237.818 124.132 238.2 124.461 238.2 124.868C238.2 125.276 237.818 125.605 237.346 125.605Z" fill="#388477"/>
<path d="M235.255 141.321H205.144C204.671 141.321 204.289 140.992 204.289 140.585C204.289 140.178 204.671 139.849 205.144 139.849H235.255C235.728 139.849 236.11 140.178 236.11 140.585C236.11 140.992 235.728 141.321 235.255 141.321Z" fill="#388477"/>
<path d="M231.548 157.038H201.436C200.963 157.038 200.581 156.708 200.581 156.301C200.581 155.894 200.963 155.565 201.436 155.565H231.548C232.02 155.565 232.402 155.894 232.402 156.301C232.402 156.708 232.02 157.038 231.548 157.038Z" fill="#388477"/>
<path d="M229.35 172.754H199.238C198.765 172.754 198.383 172.425 198.383 172.018C198.383 171.611 198.765 171.281 199.238 171.281H229.35C229.822 171.281 230.204 171.611 230.204 172.018C230.204 172.425 229.822 172.754 229.35 172.754Z" fill="#388477"/>
<path d="M226.994 188.47H196.882C196.41 188.47 196.028 188.141 196.028 187.734C196.028 187.327 196.41 186.998 196.882 186.998H226.994C227.466 186.998 227.848 187.327 227.848 187.734C227.848 188.141 227.466 188.47 226.994 188.47Z" fill="#388477"/>
<path d="M223.555 204.186H193.443C192.97 204.186 192.589 203.857 192.589 203.45C192.589 203.043 192.97 202.714 193.443 202.714H223.555C224.027 202.714 224.409 203.043 224.409 203.45C224.409 203.857 224.027 204.186 223.555 204.186Z" fill="#388477"/>
<path d="M220.867 219.903H190.755C190.283 219.903 189.901 219.573 189.901 219.166C189.901 218.759 190.283 218.43 190.755 218.43H220.867C221.339 218.43 221.721 218.759 221.721 219.166C221.721 219.573 221.339 219.903 220.867 219.903Z" fill="#388477"/>
<path d="M226.716 74.4543V74.4767C225.96 75.7234 224.718 76.7497 222.989 77.2099C222.989 77.2099 209.192 79.483 206.063 80.3587C204 80.95 201.14 80.0296 199.518 78.1721C198.653 77.2099 198.143 76.0078 198.231 74.6301C198.497 70.5859 204.532 70.0393 204.532 70.0393C204.532 70.0393 204.198 68.6615 205.019 67.5236C205.752 66.539 207.104 66.3633 207.104 66.3633C207.104 66.3633 204.954 64.6592 205.927 62.1882C206.903 59.7171 209.255 59.2569 209.255 59.2569C209.255 59.2569 209.255 54.2924 212.848 53.7904C215.599 53.3971 216.529 55.2992 218.55 55.91C221.277 56.6965 222.432 54.6633 223.473 56.4344C224.495 58.2277 222.208 59.8007 222.208 59.8007C222.208 59.8007 223.94 60.4143 224.427 62.4671C224.916 64.5003 223.538 66.2713 223.538 66.2713C223.538 66.2713 226.931 66.751 227.553 69.7688C227.887 71.3418 227.621 73.0487 226.71 74.4488L226.716 74.4543Z" fill="#4B494A"/>
<path d="M209.747 75.3521C212.209 74.4121 212.186 71.81 212.41 68.028C212.41 67.9193 212.432 67.8105 212.432 67.6989C212.432 67.6989 216.934 66.9989 217.158 70.3234L217.025 73.1013C217.093 75.2433 218.355 74.9393 219.042 75.3102C219.863 75.7704 207.198 76.3171 209.747 75.3548V75.3521Z" fill="#E4A1A1"/>
<path d="M217.155 70.3208L217.022 73.0987C215.313 73.1433 213.227 71.3499 212.407 68.0254C212.407 68.0254 214.803 68.4633 215.932 69.141C216.286 69.3586 216.753 69.7964 217.152 70.3208H217.155Z" fill="#D38989"/>
<path d="M218.575 71.3941C213.652 72.705 210.989 66.9121 211.343 62.3214C211.677 57.7501 217.09 57.5326 218.465 57.9481C219.863 58.3637 220.839 59.8056 220.839 59.8056C220.995 61.1388 221.348 62.868 221.526 64.5498C221.549 64.9207 221.594 65.2945 221.594 65.6654C221.705 68.2899 221.195 70.6941 218.578 71.3941H218.575Z" fill="#E4A1A1"/>
<path d="M219.337 66.6673C219.317 66.6673 219.3 66.6506 219.297 66.6283C219.291 66.6032 219.308 66.5781 219.331 66.5725C219.928 66.4414 219.942 65.9784 219.936 65.8585C219.803 65.8027 219.206 65.521 218.929 64.8572C218.745 64.4166 218.742 63.9006 218.923 63.3289C218.932 63.3038 218.957 63.2954 218.977 63.301C218.997 63.3093 219.008 63.3372 219.003 63.3623C218.827 63.909 218.83 64.3971 219.003 64.8126C219.294 65.5099 219.982 65.7748 219.987 65.7776L220.013 65.7888V65.8167C220.013 65.8167 220.098 66.5028 219.348 66.6673C219.348 66.6673 219.342 66.6673 219.339 66.6673H219.337Z" fill="#5A213E"/>
<path d="M217.022 63.981C217.036 64.3631 216.917 64.6755 216.753 64.6811C216.589 64.6867 216.444 64.3827 216.43 64.0033C216.416 63.6212 216.535 63.3089 216.699 63.3033C216.863 63.2977 217.007 63.6017 217.022 63.981Z" fill="#5A213E"/>
<path d="M220.002 63.7884C220.002 64.1705 220.135 64.48 220.299 64.48C220.463 64.48 220.596 64.1705 220.596 63.7884C220.596 63.4063 220.463 63.0967 220.299 63.0967C220.135 63.0967 220.002 63.4063 220.002 63.7884Z" fill="#5A213E"/>
<path d="M215.367 61.7029C215.254 61.9929 216.946 61.41 217.002 61.2287C217.059 61.0446 216.844 60.9777 216.51 61.0056C216.176 61.0307 215.398 61.6303 215.367 61.7056V61.7029Z" fill="#5A213E"/>
<path d="M221.076 61.7029C221.189 61.9929 219.497 61.41 219.441 61.2287C219.384 61.0446 219.599 60.9777 219.933 61.0056C220.267 61.0335 221.045 61.6303 221.076 61.7056V61.7029Z" fill="#5A213E"/>
<path d="M217.567 68.2819C217.579 68.5943 217.978 68.8341 218.459 68.8146C218.937 68.7951 219.316 68.5273 219.305 68.215C219.293 67.9026 218.894 67.6627 218.413 67.6823C217.935 67.7018 217.556 67.9695 217.567 68.2819Z" fill="#DA5A78"/>
<path d="M217.928 68.407C218.479 68.4739 219.076 68.446 219.439 68.2815C219.467 68.2675 219.478 68.2369 219.458 68.2145C219.439 68.1894 219.402 68.1811 219.374 68.195C218.709 68.4934 217.138 68.3122 216.79 67.8966C216.77 67.8743 216.731 67.8659 216.702 67.8799C216.674 67.8938 216.666 67.9245 216.685 67.9468C216.878 68.1727 217.384 68.3373 217.93 68.4042L217.928 68.407Z" fill="#5A213E"/>
<path d="M214.467 65.1775C214.428 65.487 214.824 65.7938 215.356 65.858C215.885 65.9221 216.346 65.7241 216.386 65.4145C216.425 65.1049 216.029 64.7981 215.497 64.734C214.968 64.6698 214.507 64.8679 214.467 65.1775Z" fill="#E06C86"/>
<path d="M221.592 65.6659C221.239 65.7105 220.95 65.6213 220.86 65.4037C220.749 65.1193 221.038 64.7483 221.525 64.5503C221.547 64.9212 221.592 65.295 221.592 65.6659Z" fill="#E06C86"/>
<path d="M211.544 63.4627C210.806 63.0973 209.696 63.2814 209.648 64.556C209.603 65.8306 211.821 67.4259 212.237 66.3326C212.653 65.2393 211.544 63.4627 211.544 63.4627Z" fill="#E4A1A1"/>
<path d="M209.138 75.2154C211.772 74.7607 217.55 74.2141 219.859 75.6253C222.171 77.0366 219.72 87.6071 217.734 87.6517C215.748 87.6963 209.138 75.2154 209.138 75.2154Z" fill="#AFAFAF"/>
<path d="M194.557 177.323C194.696 178.689 195.667 182.926 196.566 182.993C197.466 183.06 201.626 182.789 201.003 182.242C200.381 181.696 200.587 176.982 200.449 176.503C200.31 176.026 194.557 177.323 194.557 177.323Z" fill="#E4A1A1"/>
<path d="M214.04 175.888C213.901 176.708 214.317 181.012 215.843 182.038C217.368 183.062 220.486 181.561 220.07 181.151C219.654 180.741 220.07 176.028 219.999 175.618C219.931 175.208 214.037 175.891 214.037 175.891L214.04 175.888Z" fill="#E4A1A1"/>
<path d="M223.742 142.269C221.246 154.477 220.369 178.186 219.998 178.278C219.628 178.37 214.73 178.711 214.082 178.345C213.434 177.98 207.843 155.751 210.522 144.818C213.202 133.885 223.739 142.266 223.739 142.266L223.742 142.269Z" fill="#AFAFAF"/>
<path d="M206.459 144.911C202.577 153.93 201.007 178.438 200.636 178.803C200.266 179.168 195.102 179.517 194.629 179.168C193.52 178.348 188.713 155.208 191.395 143.636C194.075 132.064 206.459 144.911 206.459 144.911Z" fill="#AFAFAF"/>
<path d="M207.639 186.995H193.775C193.531 186.231 193.486 185.508 193.574 184.875C193.817 182.711 195.481 181.378 195.481 181.378C196.502 181.749 199.674 181.355 200.783 181.4C201.782 181.445 207.283 183.238 207.636 186.998L207.639 186.995Z" fill="#388477"/>
<path d="M227.137 186.994H213.406C213.052 186.118 212.984 185.309 213.052 184.59C213.273 182.359 214.959 181.003 214.959 181.003C215.867 181.332 218.507 181.048 219.84 181.025H220.262C221.303 181.07 227.137 182.995 227.137 186.994Z" fill="#388477"/>
<path d="M229.866 116.566V116.588C229.843 117.311 229.798 118.03 229.755 118.753V118.775C228.935 131.239 226.227 141.188 226.227 141.188C226.227 141.188 222.5 144.861 211.542 146.085C200.583 147.332 189.624 143.767 189.624 143.767C189.624 143.767 189.692 132.026 191.775 118.973C191.885 118.273 192.018 117.573 192.128 116.873C192.884 112.675 193.815 108.411 195.057 104.409C195.391 103.293 195.745 102.222 196.121 101.151L196.143 101.129C202.533 83.5047 206.635 75.7651 206.635 75.7651C206.635 75.7651 211.117 80.3559 211.805 82.4114C212.427 84.2271 216.021 89.278 216.906 90.4801C216.974 90.349 217.085 90.151 217.218 89.9335C218.46 87.8779 219.303 79.6782 219.858 79.0004C220.412 78.3004 221.609 75.7651 221.609 75.7651C223.185 76.8138 228.397 87.8779 229.75 105.633C230.038 109.351 230.038 113.024 229.86 116.566H229.866Z" fill="white"/>
<path d="M215.24 103.825C215.598 103.825 215.888 103.539 215.888 103.186C215.888 102.834 215.598 102.548 215.24 102.548C214.882 102.548 214.592 102.834 214.592 103.186C214.592 103.539 214.882 103.825 215.24 103.825Z" fill="#D1D1D1"/>
<path d="M213.32 119.243C213.32 119.594 213.032 119.881 212.672 119.881C212.313 119.881 212.024 119.597 212.024 119.243C212.024 118.888 212.313 118.604 212.672 118.604C213.032 118.604 213.32 118.888 213.32 119.243Z" fill="#D1D1D1"/>
<path d="M210.319 135.939C210.676 135.939 210.967 135.653 210.967 135.3C210.967 134.947 210.676 134.661 210.319 134.661C209.961 134.661 209.671 134.947 209.671 135.3C209.671 135.653 209.961 135.939 210.319 135.939Z" fill="#D1D1D1"/>
<path d="M221.618 75.7617C222.911 76.3084 224.484 76.763 225.777 78.4029C227.07 80.0429 232.526 89.2439 232.987 96.5317C233.448 103.819 228.179 102.09 225.777 99.6303C223.375 97.1704 221.618 75.7617 221.618 75.7617Z" fill="white"/>
<path d="M206.643 75.7617C202.855 76.1271 195.458 80.8629 190.747 88.4267C186.033 95.9878 186.494 101 188.252 102.366C190.009 103.733 203.964 88.5188 203.964 86.9709C203.964 85.423 206.643 75.7645 206.643 75.7645V75.7617Z" fill="white"/>
<path d="M223.536 76.7407C222.876 78.5508 221.145 81.0805 221.145 81.0805C221.145 81.0805 222.947 81.2506 223.258 81.867C223.57 82.4806 220.729 85.7967 220.279 85.727C219.829 85.6601 219.586 82.0036 220.14 80.4669C220.695 78.9301 223.536 76.7435 223.536 76.7435V76.7407Z" fill="#D1D1D1"/>
<path d="M204.935 76.4005C205.478 78.2441 209.637 81.457 209.637 81.457C209.637 81.457 207.314 81.867 207.074 82.8571C206.876 83.6659 214.49 88.187 214.561 87.2638C214.603 86.7144 211.406 80.704 209.917 79.0975C208.426 77.491 204.938 76.3977 204.938 76.3977L204.935 76.4005Z" fill="#D1D1D1"/>
<path d="M217.226 86.5134C212.928 82.5056 210.433 74.7604 210.062 74.6238C209.691 74.4871 205.255 75.8984 204.932 76.4004C204.609 76.9024 210.616 81.6382 210.616 81.6382C210.616 81.6382 207.705 82.2769 207.705 82.7315C207.705 83.1861 212.512 86.7394 214.453 87.286C216.394 87.8327 217.226 86.5107 217.226 86.5107V86.5134Z" fill="white"/>
<path d="M216.81 85.6937C219.235 82.2771 219.283 75.1037 219.767 75.034C220.251 74.9671 223.533 76.4006 223.533 76.7409C223.533 77.0812 220.415 81.3874 220.415 81.3874C220.415 81.3874 222.738 81.5576 222.806 81.8309C222.874 82.1042 218.197 90.0641 217.087 89.9972C215.978 89.9303 216.188 86.7173 216.256 86.5137C216.323 86.3101 216.292 86.4244 216.81 85.6937Z" fill="white"/>
<path d="M210.35 82.8592L210.055 83.1198C209.987 83.1794 209.982 83.2817 210.042 83.3482L216.199 90.1189C216.259 90.1854 216.363 90.191 216.43 90.1314L216.725 89.8708C216.793 89.8111 216.799 89.7089 216.738 89.6423L210.581 82.8717C210.521 82.8052 210.417 82.7996 210.35 82.8592Z" fill="#455D59"/>
<path d="M210.514 82.7357L209.907 83.2718C209.841 83.3304 209.835 83.4309 209.894 83.4963L212.032 85.8474C212.092 85.9127 212.194 85.9182 212.26 85.8596L212.867 85.3235C212.933 85.2649 212.939 85.1644 212.879 85.099L210.741 82.748C210.682 82.6826 210.58 82.6771 210.514 82.7357Z" fill="#455D59"/>
<path d="M212.794 84.8795H212.763C212.488 84.8572 212.067 84.5002 211.786 83.5715C211.642 83.0973 211.424 82.8017 211.172 82.7431C210.943 82.6957 210.756 82.8352 210.635 82.9635C210.598 82.9997 210.539 83.0025 210.505 82.9691C210.468 82.9356 210.465 82.877 210.499 82.8408C210.72 82.6093 210.974 82.5172 211.215 82.5702C211.441 82.6204 211.752 82.8296 211.962 83.5213C212.217 84.3552 212.59 84.6815 212.78 84.7011H212.794C212.853 84.7011 212.898 84.6704 212.93 84.6062C212.952 84.5588 213.009 84.5421 213.054 84.5644C213.099 84.5867 213.119 84.6425 213.096 84.6871C213.031 84.8126 212.924 84.8823 212.797 84.8823L212.794 84.8795Z" fill="#455D59"/>
<path d="M211.72 94.9866C211.476 95.3352 200.716 104.235 195.06 104.411C195.393 103.295 195.747 102.224 196.123 101.153L196.146 101.131C201.316 97.9374 211.584 93.5642 211.584 93.5642C212.006 94.0244 212.028 94.5487 211.717 94.9866H211.72Z" fill="#D1D1D1"/>
<path d="M209.325 91.0683C210.251 90.7029 213.024 89.975 213.024 89.975C213.024 89.975 213.256 85.1472 215.98 85.7831C218.708 86.4218 217.706 91.2384 215.935 92.7083C214.781 93.6649 213.623 92.937 213.623 92.937C213.623 92.937 209.973 95.4415 209.787 94.9869C209.603 94.5323 209.325 91.0683 209.325 91.0683Z" fill="#E4A1A1"/>
<path d="M218.29 97.5359C218.012 115.849 209.971 146.277 209.971 146.277C209.971 146.277 215.384 128.232 217.087 116.395C219.122 102.274 218.29 97.5359 218.29 97.5359Z" fill="#D1D1D1"/>
<path d="M228.317 97.9567C226.758 100.28 226.26 105.677 229.749 105.643C233.237 105.61 230.776 97.4769 229.771 97.2036C228.767 96.9303 228.317 97.9539 228.317 97.9539V97.9567Z" fill="#D1D1D1"/>
<path d="M244.285 78.4788L237.941 87.7496L230.842 98.1137C230.819 98.136 230.796 98.1583 230.754 98.1583H212.144C212.056 98.1583 212.011 98.0718 212.056 98.0049L225.522 78.3701C225.545 78.3478 225.567 78.3254 225.61 78.3254H244.22C244.287 78.3254 244.33 78.4119 244.287 78.4788H244.285Z" fill="#455D59"/>
<path d="M238.132 79.9375C238.101 79.9738 238.053 79.9961 237.999 79.9961H230.792L232.915 77.5027C232.946 77.4664 232.994 77.4441 233.048 77.4441H240.254L238.132 79.9375Z" fill="#8E8D8D"/>
<path d="M245.371 87.9472C247.103 85.6936 247.179 80.0012 244.262 79.1338C241.812 78.4059 240.518 81.8671 241.534 83.6437C242.315 85.0075 243.359 85.6239 243.359 85.6239C243.359 85.6239 240.032 86.7841 240.032 87.4674C240.032 88.1508 245.368 87.9444 245.368 87.9444L245.371 87.9472Z" fill="#E4A1A1"/>
<path opacity="0.3" d="M218.508 64.0255C218.508 64.2235 218.485 64.4187 218.44 64.5945C218.33 65.2945 217.973 65.8635 217.486 66.148C217.286 66.2567 217.088 66.3237 216.844 66.3237C216.734 66.3237 216.643 66.3014 216.533 66.279C216.355 66.2344 216.179 66.148 216.024 66.0169C215.557 65.6682 215.248 65.01 215.203 64.2458C215.18 64.1789 215.18 64.0924 215.18 64.0283C215.18 62.8262 215.868 61.8417 216.711 61.7552C216.756 61.7329 216.799 61.7329 216.844 61.7329C217.376 61.7329 217.843 62.062 218.132 62.5864C218.265 62.7844 218.352 63.0019 218.398 63.2418C218.463 63.4816 218.508 63.7438 218.508 64.0283V64.0255Z" fill="white"/>
<path opacity="0.3" d="M222.48 63.9587C222.48 64.1567 222.457 64.3743 222.435 64.55C222.302 65.25 221.968 65.7967 221.504 66.0812C221.325 66.1676 221.127 66.2346 220.926 66.2346C220.793 66.2346 220.683 66.2123 220.573 66.1704C220.394 66.1035 220.219 66.017 220.086 65.8636C219.664 65.4704 219.376 64.7703 219.376 63.9615V63.8946C219.398 63.2838 219.554 62.7371 219.82 62.3411C220.063 61.9924 220.375 61.7498 220.728 61.6856C220.796 61.6633 220.861 61.6633 220.929 61.6633C221.419 61.6633 221.86 61.9924 222.126 62.5168C222.236 62.7148 222.327 62.9323 222.392 63.1722C222.457 63.4121 222.48 63.6742 222.48 63.9587Z" fill="white"/>
<path d="M211.405 90.4771C211.405 90.0002 211.125 89.8747 210.228 89.964C209.711 90.0169 198.339 91.8438 196.33 93.414C194.321 94.9842 211.408 90.4771 211.408 90.4771H211.405Z" fill="#D1D1D1"/>
<path d="M196.327 93.4139C198.234 92.4461 201.392 88.2012 201.392 88.2012C201.392 88.2012 200.006 90.4101 199.148 91.3918C197.66 93.0904 196.276 93.5003 196.276 93.5003" fill="#D1D1D1"/>
<path d="M188.251 102.367C194.167 108.38 211.357 95.4415 211.634 94.5323C211.911 93.6202 211.818 90.6137 211.263 90.2511C210.709 89.8857 196.383 93.0764 192.224 94.5323C188.064 95.9909 186.058 100.141 188.248 102.367H188.251Z" fill="white"/>
<path d="M237.94 87.7495L230.841 98.1136C230.818 98.1359 230.795 98.1582 230.753 98.1582H226.916C228.667 94.3986 235.458 89.3839 237.94 87.7495Z" fill="#455D59"/>
<path d="M241.583 86.0562C236.396 88.8982 228.533 96.6908 227.8 100.587C227.35 102.977 227.73 105.2 229.753 105.644C231.965 106.129 238.255 101.452 241.676 96.4426C245.097 91.4307 246.297 87.9695 246.02 87.6041C245.742 87.2388 242.415 85.5988 241.583 86.0562Z" fill="white"/>
<path d="M229.866 116.566V116.588C229.843 117.311 229.798 118.03 229.755 118.753L225.406 115.626L226.162 113.571L229.866 116.566Z" fill="#D1D1D1"/>
<path d="M203.025 115.146L191.777 118.973C191.888 118.273 192.021 117.573 192.131 116.873L202.6 112.761L203.022 115.146H203.025Z" fill="#D1D1D1"/>
<path d="M211.247 63.3508C215.135 63.9588 217.101 58.9274 217.101 58.9274C217.101 58.9274 221.351 61.8112 221.148 59.6218C220.961 57.6221 217.469 55.1454 213.997 56.844C210.526 58.5425 209.926 60.4697 210.135 61.4487C210.345 62.4248 211.25 63.3536 211.25 63.3536L211.247 63.3508Z" fill="#4B494A"/>
<path d="M237.29 77.6836C237.794 77.2346 239.905 75.4636 240.142 75.603C240.383 75.7453 237.649 77.6585 237.505 77.706C237.361 77.7534 237.29 77.6836 237.29 77.6836Z" fill="#8E8D8D"/>
<path d="M236.067 77.7791C235.181 76.9759 233.738 75.3359 233.665 75.573C233.594 75.8101 235.156 77.3552 235.563 77.5448C235.971 77.7345 236.067 77.7819 236.067 77.7819V77.7791Z" fill="#8E8D8D"/>
<path opacity="0.2" d="M218.131 62.5815L216.023 66.0148C215.556 65.6662 215.248 65.0079 215.202 64.2437L216.711 61.7503C216.756 61.728 216.798 61.728 216.844 61.728C217.375 61.728 217.842 62.0571 218.131 62.5815Z" fill="white"/>
<path opacity="0.2" d="M218.507 64.0263C218.507 64.2243 218.485 64.4195 218.439 64.5952L217.486 66.1487C217.285 66.2575 217.087 66.3244 216.844 66.3244C216.733 66.3244 216.643 66.3021 216.532 66.2798L218.397 63.2397C218.462 63.4796 218.507 63.7418 218.507 64.0263Z" fill="white"/>
<path opacity="0.2" d="M222.124 62.5166L220.084 65.8607C219.662 65.4674 219.374 64.7674 219.374 63.9586V63.8916L220.726 61.6827C220.794 61.6604 220.859 61.6604 220.927 61.6604C221.417 61.6604 221.858 61.9895 222.124 62.5138V62.5166Z" fill="white"/>
<path opacity="0.2" d="M222.48 63.9588C222.48 64.1568 222.457 64.3743 222.435 64.5501L221.504 66.0812C221.326 66.1677 221.128 66.2346 220.927 66.2346C220.794 66.2346 220.683 66.2123 220.573 66.1705L222.392 63.175C222.457 63.4149 222.48 63.6771 222.48 63.9616V63.9588Z" fill="white"/>
<path d="M211.425 65.4482C211.377 65.2558 211.241 63.9951 211.034 63.9951C210.828 63.9951 210.714 64.3828 210.85 64.7286C211.071 65.2809 211.425 65.4482 211.425 65.4482Z" fill="#D38989"/>
<path d="M217.78 153.705C218.205 155.105 221.569 153.158 221.569 152.338C221.569 151.518 217.364 152.338 217.78 153.705Z" fill="#8E8D8D"/>
<path d="M198.511 154.181C198.935 155.581 202.3 153.635 202.3 152.815C202.3 151.995 198.095 152.815 198.511 154.181Z" fill="#8E8D8D"/>
<g opacity="0.5">
<path d="M321.684 208.459C320.442 209.212 318.815 208.827 318.051 207.602L309.84 194.416L314.342 191.694L322.553 204.88C323.317 206.105 322.926 207.708 321.684 208.461V208.459Z" fill="#55BCAA"/>
<path d="M314.399 192.004L310.098 194.603C309.775 194.799 309.356 194.698 309.158 194.383C308.96 194.065 309.062 193.652 309.382 193.457L313.683 190.858C314.005 190.662 314.424 190.763 314.622 191.078C314.82 191.396 314.718 191.809 314.399 192.004Z" fill="#55BCAA"/>
</g>
<g opacity="0.5">
<path d="M248.566 47.5431C247.171 47.2391 246.289 45.8781 246.597 44.5031L249.905 29.696L254.958 30.7921L251.65 45.5991C251.342 46.9741 249.961 47.8443 248.566 47.5403V47.5431Z" fill="#55BCAA"/>
<path d="M254.783 31.0511L249.956 30.0025C249.596 29.9244 249.367 29.5729 249.446 29.216C249.526 28.8617 249.882 28.6358 250.244 28.7139L255.071 29.7626C255.431 29.8407 255.66 30.1921 255.581 30.5491C255.502 30.9033 255.145 31.1292 254.783 31.0511Z" fill="#55BCAA"/>
<path d="M253.835 34.3641L251.345 45.5063C251.076 46.7112 249.865 47.4726 248.643 47.2076C247.42 46.9426 246.648 45.7489 246.917 44.5441L249.407 33.4019L253.835 34.3641Z" fill="#55BCAA"/>
<path d="M250.549 38.6648C250.487 38.9381 250.212 39.1139 249.935 39.0525C249.658 38.9911 249.48 38.7206 249.542 38.4473C249.604 38.1739 249.879 37.9982 250.156 38.0596C250.433 38.121 250.611 38.3915 250.549 38.6648Z" fill="#55BCAA"/>
<path d="M251.644 32.4737C251.582 32.747 251.308 32.9227 251.03 32.8613C250.753 32.8 250.575 32.5294 250.637 32.2561C250.699 31.9828 250.974 31.8071 251.251 31.8684C251.528 31.9298 251.707 32.2003 251.644 32.4737Z" fill="#55BCAA"/>
<path d="M252.827 35.6332C252.785 35.8256 252.593 35.9456 252.397 35.9037C252.202 35.8619 252.08 35.6722 252.123 35.4798C252.165 35.2873 252.358 35.1674 252.553 35.2092C252.748 35.2511 252.87 35.4407 252.827 35.6332Z" fill="#55BCAA"/>
<path d="M253.238 32.1552C253.196 32.3476 253.004 32.4675 252.808 32.4257C252.613 32.3839 252.492 32.1942 252.534 32.0018C252.576 31.8093 252.769 31.6894 252.964 31.7312C253.159 31.7731 253.281 31.9627 253.238 32.1552Z" fill="#55BCAA"/>
<path d="M251.277 42.1735C251.232 42.3827 251.02 42.5138 250.811 42.4691C250.598 42.4245 250.465 42.2181 250.511 42.0089C250.556 41.7998 250.765 41.6687 250.978 41.7133C251.19 41.7579 251.323 41.9643 251.277 42.1735Z" fill="#55BCAA"/>
<path d="M239.906 45.6625C238.511 45.3585 237.628 43.9974 237.936 42.6224L241.244 27.8154L246.298 28.9115L242.99 43.7185C242.681 45.0935 241.301 45.9637 239.906 45.6597V45.6625Z" fill="#55BCAA"/>
<path d="M246.121 29.1683L241.294 28.1196C240.935 28.0416 240.706 27.6901 240.785 27.3331C240.864 26.9789 241.22 26.753 241.583 26.8311L246.41 27.8798C246.769 27.9579 246.998 28.3093 246.919 28.6663C246.84 29.0205 246.483 29.2464 246.121 29.1683Z" fill="#55BCAA"/>
<path d="M244.387 35.9986L242.683 43.6266C242.414 44.8315 241.203 45.5929 239.981 45.3279C238.759 45.063 237.986 43.8693 238.255 42.6644L239.958 35.0364L244.387 35.9986Z" fill="#55BCAA"/>
<path d="M241.077 38.4615C241.015 38.7348 240.741 38.9105 240.463 38.8491C240.186 38.7878 240.008 38.5172 240.07 38.2439C240.132 37.9706 240.407 37.7949 240.684 37.8562C240.961 37.9176 241.14 38.1881 241.077 38.4615Z" fill="#55BCAA"/>
<path d="M242.836 37.3597C242.794 37.5522 242.601 37.6721 242.406 37.6303C242.211 37.5884 242.089 37.3988 242.131 37.2063C242.174 37.0139 242.366 36.894 242.561 36.9358C242.757 36.9776 242.878 37.1673 242.836 37.3597Z" fill="#55BCAA"/>
<path d="M240.842 41.3036C240.797 41.5128 240.587 41.6439 240.375 41.5993C240.163 41.5546 240.03 41.3482 240.075 41.1391C240.121 40.9299 240.333 40.7988 240.542 40.8434C240.754 40.8881 240.887 41.0944 240.842 41.3036Z" fill="#55BCAA"/>
<path d="M244.582 31.2572C244.508 31.5807 244.183 31.7871 243.855 31.7146C243.527 31.6421 243.317 31.3213 243.391 30.9978C243.464 30.6743 243.79 30.4679 244.118 30.5404C244.446 30.6129 244.656 30.9336 244.582 31.2572Z" fill="#55BCAA"/>
<path d="M231.244 43.7829C229.849 43.4788 228.966 42.1178 229.275 40.7428L232.583 25.9358L237.636 27.0319L234.328 41.8389C234.02 43.2139 232.639 44.0841 231.244 43.7801V43.7829Z" fill="#55BCAA"/>
<path d="M237.461 27.2887L232.634 26.24C232.274 26.1619 232.045 25.8105 232.124 25.4535C232.203 25.0993 232.56 24.8734 232.922 24.9515L237.749 26.0002C238.109 26.0782 238.338 26.4297 238.259 26.7867C238.179 27.1409 237.823 27.3668 237.461 27.2887Z" fill="#55BCAA"/>
<path d="M234.645 38.9603L234.023 41.7465C233.754 42.9514 232.543 43.7128 231.321 43.4478C230.098 43.1829 229.326 41.9892 229.595 40.7843L230.217 37.998L234.645 38.9603Z" fill="#55BCAA"/>
<path d="M232.7 41.8589C232.637 42.1322 232.363 42.3079 232.086 42.2466C231.808 42.1852 231.63 41.9147 231.692 41.6414C231.755 41.368 232.029 41.1923 232.306 41.2537C232.584 41.315 232.762 41.5856 232.7 41.8589Z" fill="#55BCAA"/>
<path d="M232.285 35.7948C232.243 35.9873 232.051 36.1072 231.855 36.0653C231.66 36.0235 231.539 35.8338 231.581 35.6414C231.623 35.449 231.816 35.329 232.011 35.3709C232.206 35.4127 232.328 35.6024 232.285 35.7948Z" fill="#55BCAA"/>
<path d="M234.311 33.212C234.269 33.4045 234.077 33.5244 233.881 33.4826C233.686 33.4407 233.564 33.2511 233.607 33.0586C233.649 32.8662 233.842 32.7463 234.037 32.7881C234.232 32.8299 234.354 33.0196 234.311 33.212Z" fill="#55BCAA"/>
<path d="M231.643 39.6352C231.598 39.8443 231.389 39.9754 231.176 39.9308C230.964 39.8862 230.831 39.6798 230.876 39.4706C230.922 39.2614 231.134 39.1303 231.343 39.175C231.556 39.2196 231.689 39.426 231.643 39.6352Z" fill="#55BCAA"/>
<path d="M256.963 35.5924L228.722 29.4619L228.639 29.8323L256.88 35.9629L256.963 35.5924Z" fill="#55BCAA"/>
<path d="M252.559 50.5006L256.196 34.2234L255.707 34.1172L252.07 50.3945L252.559 50.5006Z" fill="#55BCAA"/>
<path d="M226.876 44.9262L230.512 28.6489L230.023 28.5428L226.387 44.82L226.876 44.9262Z" fill="#55BCAA"/>
<path d="M253.832 52.0304L224.555 45.6741C224.145 45.5849 223.888 45.1861 223.978 44.7817C224.069 44.3772 224.473 44.1234 224.884 44.2127L254.161 50.5689C254.571 50.6582 254.828 51.057 254.738 51.4614C254.647 51.8658 254.243 52.1196 253.832 52.0304Z" fill="#55BCAA"/>
</g>
<g opacity="0.5">
<path d="M113.04 163.768C115.17 160.401 114.127 155.969 110.711 153.87C107.295 151.771 102.799 152.799 100.669 156.166C98.5399 159.533 99.5827 163.965 102.999 166.064C106.415 168.163 110.911 167.135 113.04 163.768Z" fill="#55BCAA"/>
<path d="M105.042 144.278L101.48 145.092L104.112 156.275L107.673 155.461L105.042 144.278Z" fill="#55BCAA"/>
<path d="M105.02 144.467L101.582 145.254C101.285 145.321 100.988 145.139 100.92 144.847C100.852 144.554 101.036 144.261 101.333 144.194L104.771 143.407C105.068 143.341 105.365 143.522 105.433 143.815C105.501 144.108 105.317 144.4 105.02 144.467Z" fill="#55BCAA"/>
</g>
<g opacity="0.5">
<path d="M110.66 194.397L104.549 188.972L97.6248 189.346C97.3928 189.357 97.2173 189.552 97.2287 189.781C97.24 190.01 97.4381 190.183 97.6701 190.171L104.246 189.817L109.28 194.285L99.9111 200.153C99.7158 200.276 99.6592 200.53 99.7809 200.722C99.9054 200.915 100.163 200.971 100.358 200.851L110.658 194.4L110.66 194.397Z" fill="#55BCAA"/>
<path d="M104.749 189.616C104.806 189.53 104.829 189.424 104.809 189.315L103.445 182.485L109.548 181.57C109.778 181.536 109.933 181.324 109.899 181.098C109.865 180.873 109.65 180.719 109.421 180.753L102.452 181.796L103.983 189.474C104.028 189.697 104.249 189.842 104.475 189.8C104.591 189.778 104.687 189.708 104.747 189.619L104.749 189.616Z" fill="#55BCAA"/>
<path d="M89.2629 206.705C89.328 206.604 89.3477 206.479 89.311 206.359C89.2431 206.141 89.0082 206.018 88.7875 206.088L79.8264 208.844C79.6057 208.911 79.4812 209.142 79.552 209.36C79.6199 209.577 79.8547 209.7 80.0754 209.63L89.0365 206.875C89.1355 206.844 89.212 206.783 89.2629 206.705Z" fill="#55BCAA"/>
<path d="M89.9453 199.23C90.0585 199.057 90.0246 198.826 89.8605 198.692L83.0413 193.047L74.9037 192.336C74.6745 192.316 74.4707 192.483 74.4481 192.709C74.4283 192.935 74.5981 193.136 74.8273 193.158L82.7018 193.844L89.32 199.322C89.4983 199.47 89.7614 199.445 89.9114 199.272C89.9227 199.258 89.934 199.244 89.9425 199.23H89.9453Z" fill="#55BCAA"/>
<path d="M83.2249 193.669C83.2447 193.638 83.2617 193.604 83.273 193.568L86.4166 183.55C86.4845 183.332 86.36 183.101 86.1393 183.034C85.9186 182.967 85.6838 183.09 85.6159 183.307L82.4723 193.325C82.4044 193.543 82.5289 193.774 82.7496 193.841C82.9335 193.897 83.1259 193.822 83.2249 193.671V193.669Z" fill="#55BCAA"/>
<path d="M97.7366 210.252C101.635 208.701 103.519 204.329 101.946 200.487C100.373 196.644 95.9371 194.787 92.039 196.337C88.1409 197.888 86.2563 202.26 87.8297 206.103C89.403 209.945 93.8385 211.803 97.7366 210.252Z" fill="#55BCAA"/>
<path d="M110.42 192.428C109.387 192.191 108.354 192.827 108.117 193.845C107.879 194.863 108.521 195.881 109.554 196.115C110.587 196.352 111.62 195.717 111.857 194.699C112.098 193.681 111.453 192.663 110.42 192.428Z" fill="#55BCAA"/>
<path d="M83.2387 191.588C82.2059 191.351 81.1731 191.987 80.9354 193.005C80.6949 194.023 81.3401 195.041 82.3728 195.276C83.4056 195.51 84.4384 194.877 84.6761 193.859C84.9137 192.841 84.2714 191.823 83.2387 191.588Z" fill="#55BCAA"/>
<path d="M80.3509 207.528C79.3917 207.31 78.4353 207.896 78.2146 208.841C77.9939 209.787 78.5881 210.73 79.5473 210.947C80.5065 211.165 81.4629 210.579 81.6836 209.634C81.9043 208.688 81.3101 207.745 80.3509 207.528Z" fill="#55BCAA"/>
<path d="M75.2292 191.207C74.2699 190.989 73.3136 191.575 73.0929 192.52C72.8722 193.466 73.4664 194.409 74.4256 194.626C75.3848 194.844 76.3412 194.258 76.5619 193.312C76.7826 192.367 76.1884 191.424 75.2292 191.207Z" fill="#55BCAA"/>
<path d="M86.4188 181.718C85.4596 181.5 84.5032 182.086 84.2825 183.032C84.0618 183.977 84.656 184.92 85.6152 185.137C86.5744 185.355 87.5308 184.769 87.7515 183.824C87.9722 182.878 87.378 181.936 86.4188 181.718Z" fill="#55BCAA"/>
<path d="M104.797 187.684C103.837 187.466 102.881 188.052 102.66 188.997C102.44 189.943 103.034 190.886 103.993 191.103C104.952 191.321 105.909 190.735 106.129 189.79C106.35 188.844 105.756 187.901 104.797 187.684Z" fill="#55BCAA"/>
<path d="M97.9926 188.283C97.1296 188.085 96.2665 188.615 96.0656 189.468C95.8647 190.319 96.4024 191.17 97.2682 191.368C98.1312 191.566 98.9942 191.036 99.1951 190.182C99.396 189.332 98.8584 188.481 97.9926 188.283Z" fill="#55BCAA"/>
<path d="M103.265 180.798C102.402 180.6 101.539 181.129 101.338 181.983C101.137 182.834 101.674 183.684 102.54 183.882C103.406 184.08 104.266 183.55 104.467 182.697C104.668 181.843 104.13 180.996 103.265 180.798Z" fill="#55BCAA"/>
<path d="M109.755 180.019C109.115 179.874 108.478 180.265 108.331 180.895C108.184 181.526 108.58 182.153 109.22 182.298C109.859 182.443 110.496 182.053 110.643 181.422C110.79 180.792 110.394 180.165 109.755 180.019Z" fill="#55BCAA"/>
</g>
<g opacity="0.5">
<path d="M325.852 109.543L321.81 107.616L315.582 120.308L319.625 122.236L325.852 109.543Z" fill="#55BCAA"/>
<path d="M325.713 109.671L321.811 107.811C321.474 107.649 321.333 107.25 321.497 106.918C321.661 106.586 322.065 106.447 322.402 106.609L326.304 108.469C326.641 108.631 326.782 109.03 326.618 109.361C326.454 109.693 326.049 109.833 325.713 109.671Z" fill="#55BCAA"/>
<path d="M321.884 112.574L305.784 123.398C304.145 124.5 304.329 126.935 306.115 127.786L319.578 134.203C321.363 135.054 323.415 133.684 323.273 131.735L321.884 112.574Z" fill="#55BCAA"/>
</g>
<g opacity="0.5">
<path d="M361.016 205.192L370.057 213.757C370.167 213.86 370.17 214.033 370.065 214.142C369.961 214.251 369.785 214.254 369.675 214.15L360.635 205.585C360.524 205.482 360.521 205.309 360.626 205.2C360.731 205.092 360.906 205.089 361.016 205.192Z" fill="#55BCAA"/>
<path d="M363.832 203.99L371.842 211.579C371.952 211.682 371.955 211.855 371.851 211.964C371.746 212.073 371.57 212.076 371.46 211.972L363.45 204.383C363.339 204.28 363.337 204.107 363.441 203.999C363.546 203.89 363.721 203.887 363.832 203.99Z" fill="#55BCAA"/>
<path d="M367.518 203.616L372.858 208.675C372.968 208.779 372.971 208.952 372.866 209.06C372.762 209.169 372.586 209.172 372.476 209.069L367.136 204.009C367.026 203.906 367.023 203.733 367.128 203.624C367.233 203.516 367.408 203.513 367.518 203.616Z" fill="#55BCAA"/>
<path d="M371.108 199.117L376.223 203.964C376.334 204.068 376.337 204.241 376.232 204.349C376.127 204.458 375.952 204.461 375.841 204.358L370.726 199.51C370.615 199.407 370.613 199.234 370.717 199.125C370.822 199.017 370.997 199.014 371.108 199.117Z" fill="#55BCAA"/>
<path d="M371.718 194.806L380.164 202.808C380.275 202.911 380.278 203.084 380.173 203.193C380.068 203.301 379.893 203.304 379.782 203.201L371.336 195.199C371.226 195.096 371.223 194.923 371.328 194.814C371.432 194.706 371.608 194.703 371.718 194.806Z" fill="#55BCAA"/>
<path d="M373.902 191.98L382.843 200.453C382.954 200.557 382.956 200.73 382.852 200.838C382.747 200.947 382.572 200.95 382.461 200.847L373.52 192.374C373.41 192.27 373.407 192.098 373.512 191.989C373.616 191.88 373.792 191.877 373.902 191.98Z" fill="#55BCAA"/>
<path d="M377.639 190.628L383.66 196.334C383.771 196.437 383.774 196.61 383.669 196.719C383.564 196.828 383.389 196.83 383.278 196.727L377.257 191.021C377.147 190.918 377.144 190.745 377.249 190.636C377.353 190.527 377.529 190.524 377.639 190.628Z" fill="#55BCAA"/>
<path d="M381.766 185.599L386.052 189.663C386.163 189.766 386.165 189.939 386.061 190.048C385.956 190.156 385.781 190.159 385.67 190.056L381.384 185.992C381.273 185.889 381.27 185.716 381.375 185.607C381.48 185.499 381.655 185.496 381.766 185.599Z" fill="#55BCAA"/>
<path d="M381.725 181.036L389.563 188.464C389.673 188.567 389.676 188.74 389.571 188.848C389.467 188.957 389.291 188.96 389.181 188.857L381.343 181.43C381.233 181.326 381.23 181.153 381.335 181.045C381.439 180.936 381.615 180.933 381.725 181.036Z" fill="#55BCAA"/>
<path d="M383.017 177.731L392.211 186.441C392.321 186.544 392.324 186.717 392.219 186.826C392.114 186.935 391.939 186.938 391.829 186.835L382.636 178.124C382.525 178.021 382.522 177.848 382.627 177.739C382.732 177.631 382.907 177.628 383.017 177.731Z" fill="#55BCAA"/>
<path d="M394.1 182.64C394.207 182.743 394.272 182.888 394.267 183.05C394.267 183.128 394.179 184.988 392.526 186.89C390.37 189.373 386.7 190.725 381.616 190.91C376.842 191.082 373.835 192.134 372.423 194.122C370.688 196.566 371.565 200.267 372.649 203.563C373.642 206.581 373.532 209.392 372.327 211.693C371.223 213.799 369.271 215.333 366.687 216.131C366.396 216.22 366.087 216.061 365.997 215.774C365.906 215.487 366.068 215.183 366.359 215.093C368.657 214.385 370.383 213.038 371.348 211.194C372.414 209.158 372.502 206.634 371.602 203.898C370.434 200.348 369.508 196.334 371.52 193.501C373.141 191.214 376.432 190.011 381.576 189.825C392.742 189.42 393.155 183.268 393.166 183.008C393.18 182.71 393.435 182.478 393.738 182.489C393.879 182.495 394.003 182.551 394.097 182.64H394.1Z" fill="#55BCAA"/>
<path d="M383.85 176.569C384.06 176.767 384.077 177.093 383.887 177.314C380.724 180.937 381.864 185.773 382.965 190.447C384.066 195.122 385.107 199.539 381.822 202.451C378.738 205.184 374.725 204.864 370.843 204.551C366.426 204.197 362.256 203.862 359.194 207.6C359.002 207.834 358.657 207.87 358.419 207.681C358.181 207.494 358.144 207.151 358.337 206.916C361.763 202.733 366.424 203.107 370.931 203.469C374.748 203.776 378.35 204.063 381.083 201.642C383.887 199.157 382.917 195.046 381.89 190.693C380.78 185.982 379.521 180.646 383.05 176.605C383.248 176.379 383.596 176.351 383.825 176.547C383.834 176.552 383.839 176.561 383.848 176.566L383.85 176.569Z" fill="#55BCAA"/>
</g>
<path d="M463.014 228.223H1.17051C0.851166 228.223 0.592285 228.359 0.592285 228.528V228.706C0.592285 228.875 0.851166 229.012 1.17051 229.012H463.014C463.333 229.012 463.592 228.875 463.592 228.706V228.528C463.592 228.359 463.333 228.223 463.014 228.223Z" fill="#93642F"/>
</g>
</svg>
