<svg width="72" height="72" viewBox="0 0 72 72" fill="none" xmlns="http://www.w3.org/2000/svg">
<path d="M8.60485 26.253C8.47869 26.6286 8.32728 27.0293 8.20111 27.4049C7.74691 28.7071 8.10018 29.7339 9.16 30.1345C10.2198 30.5352 11.2039 30.0344 11.7338 28.7572C13.6011 24.1244 15.4684 19.4666 17.3357 14.8338C18.3451 12.3296 19.3292 9.80037 20.3638 7.29617C22.0797 3.13918 26.2433 1.81195 30.0788 4.14087C31.5171 5.01734 32.9555 5.86877 34.3433 6.79533C35.5041 7.54659 36.5891 7.57163 37.7499 6.84541C39.3901 5.81869 40.9798 4.74188 42.6957 3.8654C46.4303 1.96221 50.1649 3.46473 51.7042 7.34625C54.3789 14.1327 57.079 20.894 59.7537 27.6804C59.9556 28.1813 60.1575 28.6821 60.4603 29.1329C60.965 29.9342 61.7472 30.1846 62.6556 29.8591C63.564 29.5085 63.9678 28.8323 63.7911 27.8807C63.6902 27.3048 63.4883 26.7789 63.236 25.9275C66.5921 27.3298 69.8473 28.5318 71.5127 31.9125C72.3454 33.6154 72.0678 35.3433 71.008 36.8959C69.6706 38.8742 67.6771 40.0512 65.5575 41.0028C61.5706 42.8309 57.3061 43.7825 52.9911 44.4836C44.6892 45.8109 36.3368 46.0613 27.9844 45.4853C21.0199 45.0095 14.1058 44.1581 7.57027 41.4535C5.85437 40.7524 4.16371 39.8008 2.67492 38.6739C-0.857813 35.9443 -0.908281 32.0377 2.62445 29.2831C4.34035 27.9308 6.38428 27.0043 8.27682 25.8774C8.37775 26.0026 8.47869 26.1278 8.60485 26.253ZM11.2796 50.5939C10.9516 49.3919 10.0179 48.7909 8.93289 49.0163C7.92354 49.2416 7.3684 50.1932 7.54504 51.3452C7.62074 51.7458 7.72167 52.1716 7.79737 52.5722C8.42822 55.4521 9.3114 58.3069 9.63944 61.2368C10.3208 67.1968 14.4339 71.4289 20.4143 71.8797C26.3442 72.3304 31.29 68.7494 32.6779 62.9647C33.1573 60.9613 33.6368 60.5106 35.605 60.3102C37.5732 60.0849 38.8097 60.9864 39.2134 62.8896C40.2733 67.8229 44.5378 71.504 49.6602 71.9548C54.7322 72.4055 59.6276 69.4506 61.4192 64.6675C61.9995 63.0899 62.1257 61.362 62.5042 59.6842C63.1351 56.8795 63.7911 54.0748 64.3968 51.27C64.6743 50.0179 64.0687 49.0914 62.9837 48.866C61.8986 48.6406 60.9902 49.2416 60.6874 50.4687C60.4603 51.3702 60.2584 52.2968 60.0061 53.3986C56.8519 49.7174 52.9911 48.1648 48.4238 49.0163C43.8564 49.8677 40.8789 52.7726 39.3648 57.1549C37.0433 56.2033 34.7975 56.2785 32.577 57.1299C30.2302 49.3668 19.2283 45.0596 11.8852 53.2233C11.6834 52.3469 11.5067 51.4704 11.2796 50.5939Z" fill="#00BF91"/>
</svg>
