<svg width="48" height="48" viewBox="0 0 48 48" fill="none" xmlns="http://www.w3.org/2000/svg">
<circle cx="24" cy="24" r="24" fill="#00BF91"/>
<path d="M20.4539 19.4346C20.3694 19.6291 20.3101 19.8236 20.2086 20.0011C19.7942 20.686 18.8148 21.9999 18.4088 22.6932C18.3412 22.8116 18.3412 23.0483 18.4173 23.1667C20.1682 25.7708 22.342 27.9521 24.9556 29.6939C25.0656 29.7699 25.3024 29.753 25.4293 29.6854C26.1144 29.288 27.3222 28.2362 27.9819 27.805C28.3795 27.5513 28.7516 27.5344 29.1661 27.7796C30.5871 28.6082 32.025 29.4199 33.446 30.24C34.0381 30.5782 34.1396 30.9671 33.8267 31.5843C33.1754 32.8526 32.5241 34.1123 31.8728 35.3721C31.5767 35.9555 31.3061 36.0908 30.6801 35.9471C21.7904 33.901 15.7849 28.6167 12.7737 19.9927C12.4608 19.0964 12.2662 18.1495 12.0378 17.2279C11.9194 16.7629 12.0801 16.4331 12.5031 16.2049C13.8395 15.5031 15.1759 14.8098 16.5208 14.125C17.0198 13.8713 17.4512 14.0066 17.7388 14.5054C18.5846 15.9681 19.422 17.4308 20.2509 18.902C20.344 19.0542 20.3778 19.2317 20.4539 19.4346Z" fill="white"/>
<path d="M33.0947 23C33.6616 23 33.988 22.713 33.988 22.1474C34.0052 20.6111 34.0052 19.0832 33.9794 17.5469C33.9708 17.3106 33.842 16.9729 33.653 16.8632C33.3438 16.6775 33.3009 16.4749 33.318 16.1794C33.3266 16.0106 33.3266 15.8418 33.318 15.6729C33.2321 14.2041 32.545 13.0983 31.205 12.4315C29.8822 11.773 28.568 11.8743 27.3483 12.6932C26.1372 13.5035 25.6304 14.6769 25.6819 16.1034C25.6905 16.3989 25.7335 16.6775 25.347 16.8716C25.1494 16.9729 25.0206 17.3696 25.0206 17.6313C24.9862 19.1086 25.0034 20.5858 25.012 22.063C25.012 22.6877 25.3298 22.9916 25.9654 22.9916C27.1422 22.9916 28.3103 22.9916 29.4871 22.9916C30.6896 23 31.8922 23 33.0947 23ZM28.5509 14.2801C29.2037 13.8749 29.8822 13.8918 30.5264 14.3139C31.3854 14.8795 31.3596 15.7405 31.2737 16.6352C30.0884 16.6352 28.9288 16.6352 27.7263 16.6352C27.6404 15.6983 27.6575 14.8372 28.5509 14.2801Z" fill="white"/>
</svg>
