<svg width="144" height="36" viewBox="0 0 144 36" fill="none" xmlns="http://www.w3.org/2000/svg">
<path d="M72.3649 0H71.0624V9.0359H72.3649V0Z" fill="white"/>
<path d="M17.3716 5.45003C18.3846 4.15918 19.2529 2.29463 18.9635 0.430083C17.3716 0.430083 15.4902 1.43407 14.3325 2.86834C13.3195 4.01576 12.4512 5.88031 12.7406 7.74486C14.4772 7.74486 16.3586 6.74087 17.3716 5.45003Z" fill="white"/>
<path d="M21.4236 17.0676C21.4236 13.4324 24.1508 11.56 24.7754 11.1313C24.8406 11.0865 24.8832 11.0573 24.8969 11.0437C23.0952 8.43399 20.3645 8.06039 19.2468 7.90746C19.1974 7.9007 19.151 7.89435 19.1081 7.88828C17.6075 7.71331 16.1607 8.28544 14.9648 8.75835C14.2001 9.06073 13.538 9.32255 13.03 9.32255C12.4504 9.32255 11.7562 9.03854 10.9856 8.72328C10.0245 8.33008 8.9446 7.88828 7.82013 7.88828C5.2152 7.88828 2.755 9.46598 1.30782 11.7608C-1.44183 16.4939 0.584229 23.6652 3.33387 27.5378C4.63633 29.4023 6.22823 31.5537 8.25428 31.5537C9.1712 31.4888 9.82135 31.2183 10.4864 30.9415C11.291 30.6068 12.1173 30.2629 13.4641 30.2629C14.7327 30.2629 15.5011 30.6061 16.2454 30.9386C16.9446 31.2509 17.6225 31.5537 18.674 31.5537C20.8448 31.5537 22.1472 29.6892 23.4497 27.6812C25.0416 25.5298 25.6204 23.3784 25.6204 23.235C25.6204 23.3784 21.4236 21.8007 21.4236 17.0676Z" fill="white"/>
<path fill-rule="evenodd" clip-rule="evenodd" d="M39.9478 26.8205H46.7495L48.4861 31.697H51.3805L44.8682 13.9121H41.9738L35.4615 31.697H38.3559L39.9478 26.8205ZM46.1707 24.6691H40.6714L43.2763 16.7806H43.421L46.1707 24.6691Z" fill="white"/>
<path fill-rule="evenodd" clip-rule="evenodd" d="M65.4182 25.243C65.4182 29.2589 63.2475 31.8406 59.9189 31.8406C58.0376 31.8406 56.5904 30.9801 55.8668 29.5458V36H53.1172V18.7888H55.7221V20.9402C56.4457 19.5059 58.0376 18.6453 59.9189 18.6453C63.1027 18.5019 65.4182 21.227 65.4182 25.243ZM62.5239 25.243C62.5239 22.6613 61.2214 20.9402 59.0506 20.9402C57.0246 20.9402 55.5774 22.6613 55.5774 25.243C55.5774 27.8247 57.0246 29.5458 59.0506 29.5458C61.2214 29.5458 62.5239 27.8247 62.5239 25.243Z" fill="white"/>
<path fill-rule="evenodd" clip-rule="evenodd" d="M74.2461 31.8406C77.5746 31.8406 79.7454 29.2589 79.7454 25.243C79.7454 21.227 77.5746 18.5019 74.2461 18.6453C72.3647 18.6453 70.7728 19.5059 70.0492 20.9402V18.7888H67.4443V36H70.194V29.5458C70.9176 30.9801 72.3647 31.8406 74.2461 31.8406ZM73.5225 20.9402C75.6933 20.9402 76.9957 22.6613 76.9957 25.243C76.9957 27.8247 75.6933 29.5458 73.5225 29.5458C71.4964 29.5458 70.0492 27.8247 70.0492 25.243C70.0492 22.6613 71.4964 20.9402 73.5225 20.9402Z" fill="white"/>
<path d="M89.2967 26.6772C89.4414 28.3984 91.178 29.5458 93.6382 29.5458C95.9537 29.5458 97.5456 28.3984 97.5456 26.8207C97.5456 25.3864 96.5326 24.6693 94.2171 24.0955L91.9016 23.5218C88.5731 22.6613 87.1259 21.227 87.1259 18.7887C87.1259 15.7768 89.8755 13.6254 93.6382 13.6254C97.4009 13.6254 100.006 15.7768 100.151 18.7887H97.4009C97.2562 17.0676 95.809 15.9202 93.6382 15.9202C91.4674 15.9202 90.0202 17.0676 90.0202 18.6453C90.0202 19.9362 91.0333 20.6533 93.3488 21.227L95.3748 21.6573C98.9928 22.5178 100.585 23.9521 100.585 26.5338C100.585 29.8326 97.835 31.984 93.6382 31.984C89.5861 31.984 86.9812 29.976 86.8365 26.6772H89.2967Z" fill="white"/>
<path d="M106.084 18.6454V15.7769H103.479V18.7888H101.598V20.9402H103.479V28.3984C103.479 30.8367 104.492 31.8407 107.097 31.8407C107.676 31.8407 108.255 31.8407 108.544 31.6973V29.5459H107.676C106.518 29.5459 106.084 29.1156 106.084 27.9682V20.7968H108.544V18.6454H106.084Z" fill="white"/>
<path fill-rule="evenodd" clip-rule="evenodd" d="M110.136 25.243C110.136 21.2271 112.597 18.6454 116.359 18.6454C120.122 18.6454 122.582 21.2271 122.582 25.243C122.582 29.4024 120.122 31.8407 116.359 31.8407C112.452 31.8407 110.136 29.259 110.136 25.243ZM119.832 25.243C119.832 22.3745 118.53 20.7968 116.359 20.7968C114.188 20.7968 112.886 22.3745 112.886 25.243C112.886 28.1115 114.188 29.6892 116.359 29.6892C118.53 29.6892 119.832 27.9681 119.832 25.243Z" fill="white"/>
<path d="M127.357 18.6454H124.752V31.8407H127.502V24.0956C127.502 22.231 128.515 21.0836 130.252 21.0836C130.686 21.0836 131.265 21.0836 131.41 21.2271V18.7888C131.265 18.6454 130.975 18.6454 130.541 18.6454C128.949 18.6454 127.792 19.5059 127.357 20.9402V18.6454Z" fill="white"/>
<path fill-rule="evenodd" clip-rule="evenodd" d="M143.855 27.8248C143.421 30.1196 141.106 31.8407 138.211 31.8407C134.449 31.8407 131.988 29.2591 131.988 25.2431C131.988 21.2272 134.304 18.502 138.067 18.502C141.684 18.502 144 20.9403 144 24.9562V25.8168H134.738V25.9602C134.738 28.1116 136.185 29.6893 138.211 29.6893C139.658 29.6893 140.816 28.9722 141.25 27.8248H143.855ZM134.738 23.9523H141.25C141.25 21.9443 139.948 20.6534 138.067 20.6534C136.185 20.6534 134.883 22.0877 134.738 23.9523Z" fill="white"/>
<path fill-rule="evenodd" clip-rule="evenodd" d="M44.2892 4.73315C44.2892 2.00804 42.842 0.430339 40.2371 0.430339H37.0533V9.03596H40.2371C42.842 9.03596 44.2892 7.45826 44.2892 4.73315ZM40.0924 7.88854H38.5005V1.86461H40.0924C41.9737 1.86461 42.9867 3.01202 42.9867 4.87657C42.9867 6.74113 41.829 7.88854 40.0924 7.88854Z" fill="white"/>
<path fill-rule="evenodd" clip-rule="evenodd" d="M45.8813 5.73694C45.8813 3.58554 47.0391 2.43812 48.9204 2.43812C50.8017 2.43812 51.9595 3.72896 51.9595 5.73694C51.9595 7.88835 50.8017 9.03576 48.9204 9.03576C47.0391 9.17919 45.8813 7.88835 45.8813 5.73694ZM50.657 5.73694C50.657 4.30267 50.0781 3.58554 48.9204 3.58554C47.7627 3.58554 47.1838 4.4461 47.1838 5.73694C47.1838 7.17121 47.7627 8.03177 48.9204 8.03177C50.0781 8.03177 50.657 7.17121 50.657 5.73694Z" fill="white"/>
<path d="M58.9059 9.03585H60.2084L62.2344 2.58164H60.932L59.7742 7.45816H59.6295L58.327 2.58164H57.0246L55.7221 7.45816H55.5774L54.4196 2.58164H53.1172L54.8538 9.03585H56.1563L57.4587 4.30276H57.6034L58.9059 9.03585Z" fill="white"/>
<path d="M63.5368 2.58155H64.8393V3.58554H64.984C65.2734 2.8684 65.997 2.43812 66.8653 2.43812C68.3125 2.43812 69.1808 3.29868 69.1808 4.87638V9.03576H67.8783V5.16323C67.8783 4.15925 67.4442 3.58554 66.4312 3.58554C65.4181 3.58554 64.8393 4.15925 64.8393 5.16323V8.89233H63.5368V2.58155Z" fill="white"/>
<path fill-rule="evenodd" clip-rule="evenodd" d="M74.1012 5.73694C74.1012 3.58554 75.2589 2.43812 77.1403 2.43812C79.0216 2.43812 80.1794 3.72896 80.1794 5.73694C80.1794 7.88835 79.0216 9.03576 77.1403 9.03576C75.2589 9.17919 74.1012 7.88835 74.1012 5.73694ZM79.0216 5.73694C79.0216 4.30267 78.4427 3.58554 77.285 3.58554C76.1273 3.58554 75.5484 4.4461 75.5484 5.73694C75.5484 7.17121 76.1273 8.03177 77.285 8.03177C78.298 8.03177 79.0216 7.17121 79.0216 5.73694Z" fill="white"/>
<path fill-rule="evenodd" clip-rule="evenodd" d="M84.0869 5.30666C82.495 5.30666 81.6267 6.0238 81.6267 7.17121C81.6267 8.31863 82.495 9.17919 83.6527 9.17919C84.521 9.17919 85.2446 8.89233 85.6788 8.1752H85.8235V9.03576H87.1259V4.58953C87.1259 3.29868 86.1129 2.43812 84.521 2.43812C83.0738 2.43812 82.0608 3.15526 81.9161 4.30267H83.2186C83.3633 3.87239 83.7974 3.58554 84.521 3.58554C85.3893 3.58554 85.8235 3.87239 85.8235 4.58953V5.16323L84.0869 5.30666ZM85.8235 6.0238V6.5975C85.8235 7.45807 85.0999 8.03177 84.0869 7.88835C83.508 7.88835 82.9291 7.60149 82.9291 7.02778C82.9291 6.5975 83.3633 6.16722 84.2316 6.16722L85.8235 6.0238Z" fill="white"/>
<path fill-rule="evenodd" clip-rule="evenodd" d="M88.7178 5.73708C88.7178 3.7291 89.7309 2.43826 91.4675 2.43826C92.3358 2.43826 93.0594 2.86854 93.4935 3.58567H93.6383V0H94.9407V9.0359H93.6383V8.03191H93.4935C93.0594 8.74905 92.3358 9.17933 91.4675 9.17933C89.8756 9.17933 88.7178 7.88848 88.7178 5.73708ZM90.165 5.73708C90.165 7.17135 90.8886 7.88848 91.9016 7.88848C92.9147 7.88848 93.6383 7.02792 93.6383 5.73708C93.6383 4.44624 92.9147 3.58567 91.9016 3.58567C90.7439 3.58567 90.165 4.44624 90.165 5.73708Z" fill="white"/>
<path fill-rule="evenodd" clip-rule="evenodd" d="M103.189 2.43812C101.308 2.43812 100.15 3.58554 100.15 5.73694C100.15 7.88835 101.308 9.17919 103.189 9.03576C105.071 9.03576 106.229 7.88835 106.229 5.73694C106.229 3.72896 105.071 2.43812 103.189 2.43812ZM103.334 3.58554C104.492 3.58554 105.071 4.30267 105.071 5.73694C105.071 7.17121 104.347 8.03177 103.334 8.03177C102.176 8.03177 101.598 7.17121 101.598 5.73694C101.598 4.4461 102.176 3.58554 103.334 3.58554Z" fill="white"/>
<path d="M108.11 2.58155H109.412V3.58554H109.557C109.846 2.8684 110.57 2.43812 111.438 2.43812C112.885 2.43812 113.754 3.29868 113.754 4.87638V9.03576H112.451V5.16323C112.451 4.15925 112.017 3.58554 111.004 3.58554C109.991 3.58554 109.412 4.15925 109.412 5.16323V8.89233H108.11V2.58155Z" fill="white"/>
<path d="M120.845 2.58154V1.00385H119.398V2.72497H118.385V3.72896H119.398V7.31463C119.398 8.60547 119.977 9.03575 121.424 9.03575H122.148V8.03177H121.713C121.135 8.03177 120.845 7.74491 120.845 7.02778V3.72896H122.292V2.58154H120.845Z" fill="white"/>
<path d="M124.174 0H125.331V3.58567H125.476C125.765 2.86854 126.489 2.43826 127.502 2.43826C128.949 2.43826 129.818 3.29882 129.818 4.87652V9.0359H128.515V5.16337C128.515 4.15938 128.081 3.58567 127.068 3.58567C126.055 3.58567 125.476 4.30281 125.476 5.16337V8.89247H124.174V0Z" fill="white"/>
<path fill-rule="evenodd" clip-rule="evenodd" d="M134.304 9.17919C135.896 9.17919 136.909 8.46205 137.198 7.31464H135.896C135.606 7.74492 135.028 8.03177 134.304 8.03177C133.291 8.03177 132.567 7.31464 132.567 6.16722H137.198V5.73694C137.198 3.72896 136.185 2.43812 134.304 2.43812C132.423 2.43812 131.265 3.87239 131.265 5.88037C131.265 7.88835 132.423 9.17919 134.304 9.17919ZM135.896 5.16323H132.567C132.712 4.15925 133.291 3.58554 134.304 3.44211C135.172 3.44211 135.896 4.15925 135.896 5.16323Z" fill="white"/>
</svg>
