<svg width="16" height="16" viewBox="0 0 16 16" fill="none" xmlns="http://www.w3.org/2000/svg">
<path fill-rule="evenodd" clip-rule="evenodd" d="M13.2772 14.4659C13.6711 14.853 14.3097 14.853 14.7036 14.4659C15.0975 14.0788 15.0975 13.4511 14.7036 13.064L9.55207 8.00093L14.7035 2.93794C15.0974 2.55081 15.0974 1.92315 14.7035 1.53603C14.3096 1.1489 13.671 1.1489 13.2771 1.53603L8.12566 6.59902L2.72498 1.29108C2.33109 0.90395 1.69246 0.90395 1.29857 1.29108C0.904677 1.6782 0.904677 2.30586 1.29857 2.69299L6.69925 8.00093L1.29849 13.3089C0.9046 13.6961 0.9046 14.3237 1.29849 14.7109C1.69238 15.098 2.33101 15.098 2.7249 14.7109L8.12566 9.40285L13.2772 14.4659Z" fill="white"/>
</svg>
