<svg width="22" height="24" viewBox="0 0 22 24" fill="none" xmlns="http://www.w3.org/2000/svg">
<path d="M0.279639 22.4933C0.191702 22.036 0.0158286 21.5711 0.0158286 21.1063C-0.00615557 15.0483 0.00117249 8.99022 0.00117249 2.93218C0.00117249 2.41485 0.111093 1.92001 0.4262 1.44766C3.98764 4.81407 7.54174 8.15799 11.0592 11.4794C7.48312 15.1382 3.92168 18.7745 0.279639 22.4933ZM4.55922 23.528C8.45042 21.3237 12.3416 19.1269 16.2401 16.9301C16.3501 16.8702 16.46 16.7952 16.6066 16.7127C15.119 15.3107 13.6753 13.9461 12.261 12.6115C8.64828 16.2929 5.07952 19.9442 1.48877 23.618C2.53668 24.1803 3.54795 24.0978 4.55922 23.528ZM15.6686 6.77844C15.588 6.72595 15.4707 6.65847 15.3535 6.591C13.1111 5.32391 10.876 4.05682 8.63362 2.79722C7.14603 1.9575 5.67309 1.10277 4.17084 0.308031C3.2988 -0.156818 2.40478 -0.074345 1.48877 0.412997C5.06486 3.7869 8.59698 7.11583 12.0925 10.4223C13.3089 9.18515 14.4814 7.98554 15.6686 6.77844ZM17.8157 15.813C17.8816 15.873 18.0502 15.8955 18.1235 15.8505C19.0028 15.3632 19.8968 14.9058 20.7396 14.351C22.4177 13.2413 22.425 10.7596 20.7322 9.665C19.5598 8.90774 18.3213 8.26295 17.1415 7.58817C15.8371 8.92274 14.5694 10.2273 13.2796 11.5394C14.7819 12.9564 16.2988 14.3885 17.8157 15.813Z" fill="white"/>
</svg>
