<svg width="84" height="48" viewBox="0 0 84 48" fill="none" xmlns="http://www.w3.org/2000/svg">
<circle cx="60" cy="24" r="24" fill="#9AEFCC"/>
<path d="M54.2857 12H65.7143C66.9714 12 68 12.9818 68 14.1818V21.3636C68 21.9636 67.4857 22.4545 66.8571 22.4545C66.2286 22.4545 65.7143 21.9636 65.7143 21.3636V15.2727H54.2857V32.7273H57.7143C57.7143 32.7273 60 32.2133 60 34.5C60 35.7 58.9714 36 57.7143 36H54.2857C53.0286 36 52 35.0182 52 33.8182V14.1818C52 12.9818 53.0286 12 54.2857 12Z" fill="#00BF91"/>
<path d="M66.0143 24C62.7373 24 60.0286 26.6877 60.0002 29.9811C59.9718 33.265 62.6994 36 66.0048 36C69.3007 36 71.9999 33.3123 71.9999 30.0284C72.0188 26.7161 69.3196 24 66.0143 24ZM62.5195 32.0536C61.5156 30.7098 61.7618 28.5047 63.0783 27.1514C64.4231 25.7697 66.592 25.4953 68.0505 26.4984C66.1942 28.3628 64.3569 30.2082 62.5195 32.0536ZM69.509 27.9464C70.494 29.47 70.2478 31.5615 68.9029 32.9054C67.558 34.2492 65.4555 34.4953 63.9401 33.511C65.7964 31.6562 67.6622 29.8013 69.509 27.9464Z" fill="#00BF91"/>
<circle cx="24" cy="24" r="24" fill="white"/>
<g clip-path="url(#clip0_58_2050)">
<path d="M16.9986 17.8248C17.008 14.5756 19.6648 11.9725 22.9462 12.0002C26.1811 12.0279 28.782 14.6402 28.782 17.8525C28.782 21.0924 26.0971 23.7509 22.853 23.7047C19.5902 23.6678 16.98 21.0463 16.9986 17.8248ZM18.3597 36C19.4038 36 21.4385 36 22.4826 36C22.9301 36 23.3589 35.8523 23.4335 35.4277C23.5174 34.9569 23.5454 34.3754 23.331 33.9692C22.0072 31.4216 21.9699 28.9108 23.3403 26.3909C23.5267 26.0585 23.4335 25.8647 23.1632 25.717C22.986 25.6155 22.753 25.5601 22.5479 25.5601C21.7089 25.5416 19.8699 25.5416 19.0309 25.5601C15.1435 25.6524 12.1231 28.6339 12.0019 32.4923C11.946 34.1816 13.1299 35.7138 14.8265 35.9077C15.9918 36.0462 17.1851 35.9354 18.3597 35.9354C18.3597 35.9631 18.3597 35.9815 18.3597 36ZM30.1082 24.2955C26.8827 24.2955 24.2166 26.917 24.1886 30.1293C24.1606 33.3323 26.8454 36 30.0989 36C33.3431 36 35.9999 33.3785 35.9999 30.1754C36.0185 26.9447 33.3617 24.2955 30.1082 24.2955ZM26.6683 32.1508C25.6802 30.84 25.9225 28.6893 27.2183 27.3693C28.5421 26.0216 30.6769 25.7539 32.1125 26.7324C30.2854 28.5508 28.4768 30.3508 26.6683 32.1508ZM33.5481 28.1447C34.5177 29.6308 34.2753 31.6708 32.9515 32.9816C31.6278 34.2923 29.5582 34.5323 28.0667 33.5723C29.8938 31.7631 31.7303 29.9539 33.5481 28.1447Z" fill="#00BF91"/>
</g>
<defs>
<clipPath id="clip0_58_2050">
<rect width="24" height="24" fill="white" transform="translate(12 12)"/>
</clipPath>
</defs>
</svg>
