<svg width="132" height="48" viewBox="0 0 132 48" fill="none" xmlns="http://www.w3.org/2000/svg">
<rect width="132" height="48" rx="24" fill="#00BF91"/>
<g clip-path="url(#clip0_139_178)">
<path d="M24 6C14.064 6 6 14.064 6 24C6 33.936 14.064 42 24 42C33.936 42 42 33.936 42 24C42 14.064 33.936 6 24 6ZM24 11.4C26.988 11.4 29.4 13.812 29.4 16.8C29.4 19.788 26.988 22.2 24 22.2C21.012 22.2 18.6 19.788 18.6 16.8C18.6 13.812 21.012 11.4 24 11.4ZM24 36.96C19.5 36.96 15.522 34.656 13.2 31.164C13.254 27.582 20.4 25.62 24 25.62C27.582 25.62 34.746 27.582 34.8 31.164C32.478 34.656 28.5 36.96 24 36.96Z" fill="white"/>
</g>
<g clip-path="url(#clip1_139_178)">
<path d="M108 6C98.064 6 90 14.064 90 24C90 33.936 98.064 42 108 42C117.936 42 126 33.936 126 24C126 14.064 117.936 6 108 6ZM108 11.4C110.988 11.4 113.4 13.812 113.4 16.8C113.4 19.788 110.988 22.2 108 22.2C105.012 22.2 102.6 19.788 102.6 16.8C102.6 13.812 105.012 11.4 108 11.4ZM108 36.96C103.5 36.96 99.522 34.656 97.2 31.164C97.254 27.582 104.4 25.62 108 25.62C111.582 25.62 118.746 27.582 118.8 31.164C116.478 34.656 112.5 36.96 108 36.96Z" fill="white"/>
</g>
<path d="M60.4571 10.6008C62.6389 10.6008 64.8502 10.4136 67.0026 10.6439C70.3933 11.0038 72.8257 13.7386 72.8994 17.0636C72.9731 19.8848 72.9731 22.7204 72.8994 25.556C72.7962 29.2121 69.8036 32.0477 66.0591 32.1052C64.5849 32.134 63.1107 32.0908 61.6364 32.134C61.2974 32.1484 60.8699 32.3067 60.634 32.5371C59.1303 33.9477 57.6561 35.4014 56.1966 36.8408C55.6954 37.3446 55.1499 37.6613 54.4276 37.3878C53.7052 37.1143 53.5578 36.5098 53.5725 35.8045C53.602 34.7249 53.5578 33.6454 53.5873 32.5658C53.602 32.1772 53.4988 31.9757 53.086 31.8317C49.6806 30.6802 48 28.3628 48 24.8363C48 22.4181 48 20 48 17.5818C48.0147 13.422 50.9779 10.5144 55.2236 10.5C56.9632 10.5 58.7175 10.5 60.4571 10.5C60.4571 10.5288 60.4571 10.5576 60.4571 10.6008ZM59.0124 20.8492C58.3637 20.1583 57.833 19.5106 57.2138 18.9636C56.6094 18.4166 55.8428 18.4886 55.3121 19.0356C54.8109 19.5538 54.7814 20.3166 55.3121 20.8492C56.2261 21.7848 57.1696 22.706 58.1278 23.5984C58.747 24.1742 59.3956 24.1454 60.0296 23.584C60.3834 23.2818 60.693 22.9507 61.032 22.6197C62.521 21.1659 64.0247 19.7121 65.5136 18.2439C66.0296 17.7401 66.1328 17.1644 65.7642 16.5454C65.4547 16.0273 64.7323 15.7538 64.1574 15.9841C63.8478 16.1136 63.5824 16.3439 63.3465 16.5742C61.946 17.956 60.5603 19.3379 59.0124 20.8492ZM75.5677 16.4591C75.6857 19.4818 75.6709 22.4901 75.6562 25.5128C75.6415 26.909 75.3761 28.3196 74.6242 29.5143C73.8577 30.7378 72.8699 31.8461 71.9559 33.0408C73.2532 34.3219 74.6832 35.7325 76.1279 37.1287C76.5555 37.5317 77.0862 37.6037 77.6316 37.359C78.1624 37.1143 78.4277 36.6825 78.413 36.0923C78.3982 34.9696 78.4425 33.8325 78.3982 32.7098C78.3835 32.1628 78.5751 31.9469 79.1058 31.7742C81.7447 30.8961 83.499 29.1545 83.7938 26.4196C84.0445 24.1166 84.0445 21.7704 83.9118 19.4674C83.7496 16.8333 82.2901 14.9189 79.8135 13.7818C78.2066 13.0477 76.5112 13.278 74.8749 13.2492C75.1255 14.3288 75.5383 15.3939 75.5677 16.4591Z" fill="white"/>
<defs>
<clipPath id="clip0_139_178">
<rect width="36" height="36" fill="white" transform="translate(6 6)"/>
</clipPath>
<clipPath id="clip1_139_178">
<rect width="36" height="36" fill="white" transform="translate(90 6)"/>
</clipPath>
</defs>
</svg>
