<svg width="182" height="72" viewBox="0 0 182 72" fill="none" xmlns="http://www.w3.org/2000/svg">
<rect width="182" height="72" rx="36" fill="#00BF91"/>
<path d="M58 29.9747L44.3088 37.3671V34.7342L58 42.0253L52.9559 50.3291L40.1912 42.8354L41.6324 41.924L41.8382 56H32.1618L32.2647 41.924L33.7059 42.8354L20.9412 50.3291L16 42.0253L29.6912 34.7342V37.3671L16 29.9747L20.9412 21.6709L33.7059 29.2658L32.2647 30.0759L32.1618 16H41.8382L41.6324 30.0759L40.1912 29.2658L52.9559 21.6709L58 29.9747Z" fill="white"/>
<path d="M112 29.9747L98.3088 37.3671V34.7342L112 42.0253L106.956 50.3291L94.1912 42.8354L95.6324 41.924L95.8382 56H86.1618L86.2647 41.924L87.7059 42.8354L74.9412 50.3291L70 42.0253L83.6912 34.7342V37.3671L70 29.9747L74.9412 21.6709L87.7059 29.2658L86.2647 30.0759L86.1618 16H95.8382L95.6324 30.0759L94.1912 29.2658L106.956 21.6709L112 29.9747Z" fill="white"/>
<path d="M166 29.9747L152.309 37.3671V34.7342L166 42.0253L160.956 50.3291L148.191 42.8354L149.632 41.924L149.838 56H140.162L140.265 41.924L141.706 42.8354L128.941 50.3291L124 42.0253L137.691 34.7342V37.3671L124 29.9747L128.941 21.6709L141.706 29.2658L140.265 30.0759L140.162 16H149.838L149.632 30.0759L148.191 29.2658L160.956 21.6709L166 29.9747Z" fill="white"/>
</svg>
