<svg width="48" height="48" viewBox="0 0 48 48" fill="none" xmlns="http://www.w3.org/2000/svg">
<circle cx="24" cy="24" r="24" fill="#00BF91"/>
<path d="M26.8952 16.6739C26.7479 17.5869 26.5929 18.4922 26.4456 19.3975C26.1199 21.3232 25.7943 23.2488 25.4687 25.1745C25.1431 27.1002 24.8174 29.0259 24.4918 30.9515C24.4608 31.151 24.4298 31.3582 24.391 31.5576C24.1895 32.5473 23.3677 33.1457 22.4373 32.9693C21.5302 32.7928 20.972 31.9335 21.1348 30.9745C21.6465 27.9288 22.166 24.883 22.6777 21.8449C22.9878 20.0112 23.2901 18.17 23.6158 16.3364C23.7553 15.5615 24.391 15.0321 25.1508 15.0014C25.9494 14.9707 26.6084 15.4387 26.8332 16.1983C26.872 16.344 26.872 16.5128 26.8952 16.6739ZM31.8571 24.2232C30.7717 25.4047 29.6785 26.5785 28.5931 27.76C27.9419 28.4735 27.9806 29.4708 28.6629 30.0923C29.3374 30.7137 30.3685 30.6753 31.0197 29.9772C32.5393 28.3584 34.0434 26.7243 35.5474 25.0901C36.1521 24.4303 36.1521 23.525 35.5397 22.8652C34.0356 21.2311 32.5316 19.597 31.012 17.9782C30.3608 17.28 29.3219 17.2493 28.6551 17.8708C27.9806 18.4999 27.9496 19.4895 28.5931 20.203C28.942 20.5943 29.3064 20.9779 29.663 21.3615C30.4615 22.2285 31.2601 23.0877 32.0741 23.97C31.9889 24.0774 31.9268 24.1541 31.8571 24.2232ZM19.3827 20.2184C20.0494 19.4895 20.0107 18.4845 19.3129 17.8554C18.6384 17.2493 17.615 17.2954 16.956 18.0012C15.452 19.6123 13.9479 21.2311 12.4594 22.8576C11.8391 23.5327 11.8547 24.4303 12.4594 25.1131C12.7385 25.4277 13.0331 25.7346 13.3199 26.0491C14.5216 27.3457 15.7233 28.6499 16.9328 29.9465C17.5142 30.5679 18.3128 30.706 19.0028 30.3301C19.9409 29.8161 20.1425 28.5886 19.3982 27.7753C18.2508 26.5171 17.0878 25.2666 15.9016 23.9853C17.0801 22.7118 18.2353 21.4689 19.3827 20.2184Z" fill="white"/>
</svg>
