<svg width="72" height="72" viewBox="0 0 72 72" fill="none" xmlns="http://www.w3.org/2000/svg">
<g clip-path="url(#clip0_167_1291)">
<path d="M19.8436 24.9571C19.6429 24.2792 20.2199 23.752 21.2235 23.2499C25.8649 20.9903 30.5063 18.6554 35.1226 16.3205C35.825 15.969 36.3017 16.0443 36.954 16.3707C41.6456 18.7558 46.3372 21.0907 51.0789 23.4256C51.8065 23.7771 52.1327 24.1788 52.0825 25.0324C51.4553 37.5103 46.3874 47.7286 36.6279 55.5618C36.377 55.7626 35.6494 55.7877 35.3985 55.5869C27.5709 49.4107 22.6786 41.4269 20.6966 31.6605C20.4959 30.6814 20.3454 29.6771 20.2199 28.698C20.0694 27.6184 19.9941 26.5137 19.8436 24.9571ZM18.4135 9.08988C18.3383 4.69626 15.1269 0.880093 10.912 0.152008C6.37101 -0.651396 1.93032 1.78392 0.650802 6.17754C0.0235867 8.36179 0.073764 10.772 0.123941 13.1069C0.199207 17.2243 3.23493 20.6639 7.24911 21.5426C11.3135 22.4465 15.4531 20.4882 17.3849 16.8226C18.3885 14.9397 18.539 12.9312 18.4386 11.1737C18.4135 10.2699 18.4386 9.69243 18.4135 9.08988ZM13.3707 12.8056C13.1951 15.0903 11.3887 16.7222 9.13076 16.672C6.89787 16.6218 5.21693 15.015 5.09149 12.7303C5.04131 11.475 5.04131 10.2197 5.09149 8.98945C5.19184 6.72988 6.89787 5.09796 9.13076 5.04775C11.4138 4.99754 13.1951 6.62945 13.3707 8.91413C13.4209 9.5669 13.3707 10.2448 13.3707 10.9226C13.3958 11.5754 13.4209 12.2031 13.3707 12.8056ZM71.9025 8.73839C71.7018 4.36988 68.3901 0.679242 64.2254 0.101795C59.7094 -0.525864 55.3691 1.88435 54.1899 6.12733C53.5627 8.36179 53.5627 10.8222 53.638 13.1822C53.7383 16.9733 56.4981 20.2622 60.161 21.3669C63.7236 22.4465 67.7378 21.1409 70.0459 18.1784C71.752 15.9941 72.1534 13.5086 71.9527 10.9729C71.9025 10.1695 71.9276 9.46647 71.9025 8.73839ZM66.8597 12.7805C66.7342 15.0401 65.0282 16.672 62.7953 16.6971C60.5624 16.7222 58.7561 15.1405 58.5804 12.9312C58.4801 11.6005 58.4801 10.2699 58.5804 8.93924C58.731 6.65456 60.5624 5.04775 62.8455 5.09796C65.0784 5.14818 66.7342 6.78009 66.8597 9.06477C66.8848 9.69243 66.8597 10.3201 66.8597 10.9477C66.8848 11.5252 66.9099 12.1529 66.8597 12.7805ZM71.8774 58.8005C71.6516 54.5826 68.3901 50.9673 64.3006 50.3397C59.885 49.6618 55.6952 52.072 54.1397 56.1141C53.2366 58.4992 53.4373 60.9848 53.5878 63.4201C53.8136 66.9852 55.6952 69.6464 58.9819 71.1277C62.1932 72.5588 65.3544 72.2324 68.2145 70.1235C71.2251 67.9141 72.2036 64.8009 71.9025 61.2107C71.9025 60.4073 71.9276 59.6039 71.8774 58.8005ZM66.8848 62.8175C66.7844 65.2528 65.0784 66.9099 62.7451 66.9099C60.437 66.9099 58.6808 65.2026 58.5804 62.8175C58.5303 61.6626 58.5303 60.4826 58.5804 59.3277C58.6808 56.9677 60.4872 55.2856 62.7953 55.3107C65.0784 55.3358 66.7593 56.9928 66.8597 59.3528C66.8848 59.9303 66.8597 60.5077 66.8597 61.1103C66.8848 61.6375 66.9099 62.2401 66.8848 62.8175ZM0.073764 38.2133C0.274473 42.0797 2.90878 45.3686 6.64698 46.4984C10.2096 47.5779 14.1987 46.2222 16.5068 43.2345C16.9584 42.6571 17.0588 42.155 16.7577 41.4269C14.8761 36.8324 13.7722 32.0622 13.446 27.0911C13.3958 26.2626 13.0697 25.9363 12.3421 25.6852C8.67916 24.3294 4.51445 25.5094 2.05577 28.5473C0.299562 30.7316 -0.152034 33.2673 0.073764 35.9035C0.073764 36.732 0.0486753 37.4852 0.073764 38.2133ZM5.09149 34.0707C5.21693 31.8614 6.84769 30.2545 9.0304 30.1792C11.2884 30.1039 13.1449 31.6103 13.3456 33.8197C13.4711 35.2758 13.4962 36.7571 13.3456 38.1882C13.1198 40.4226 11.2382 41.8788 8.98023 41.7784C6.8226 41.6779 5.21693 40.046 5.09149 37.8116C5.0664 37.1839 5.09149 36.5563 5.09149 35.9286C5.09149 35.326 5.0664 34.6984 5.09149 34.0707ZM22.6033 51.846C22.1518 51.2435 21.8005 51.1682 21.1733 51.5699C18.815 53.1265 17.2344 55.1852 16.9082 58.0473C16.7326 59.6541 16.6573 61.3111 16.7326 62.9179C17.0086 68.592 21.4493 72.383 27.0691 71.8809C31.5851 71.4792 35.4236 67.0605 35.0724 62.9933C33.3664 62.0392 31.7858 61.1605 30.2303 60.2818C30.155 61.3362 30.155 62.4409 29.9794 63.5456C29.6783 65.3784 28.2985 66.6588 26.5423 66.8596C24.6355 67.0856 23.0048 66.2069 22.2019 64.575C20.5461 61.1354 21.8758 56.9426 25.2377 55.2103C24.3345 54.0805 23.4313 53.0009 22.6033 51.846ZM6.67207 58.3988C6.67207 61.989 6.64698 65.5792 6.69716 69.1945C6.72225 70.9269 7.77597 71.9813 9.28129 71.9562C10.7615 71.9311 11.6898 70.9269 11.6898 69.2196C11.7149 63.8218 11.7149 58.4239 11.6898 53.0511C11.6647 50.6911 9.88342 49.6618 7.72579 50.7162C5.69362 51.7205 3.68653 52.7248 1.67944 53.7541C0.14903 54.5324 -0.377831 55.9133 0.274473 57.269C0.926777 58.5745 2.38192 58.9511 3.93741 58.223C4.79043 57.8213 5.64344 57.3945 6.64698 56.9175C6.67207 57.495 6.67207 57.9469 6.67207 58.3988ZM63.5982 44.2639C63.5982 45.8205 64.6519 46.8248 66.107 46.8248C67.5622 46.8248 68.5908 45.8205 68.6159 44.2639C68.641 38.7405 68.6661 33.2171 68.6159 27.6937C68.5908 25.635 66.7844 24.5303 64.9279 25.409C62.9709 26.3128 61.0391 27.3171 59.1073 28.3214C58.7811 28.4971 58.5052 28.9741 58.4048 29.3507C58.2041 30.1541 58.1288 31.0077 58.0034 31.8111C57.8278 32.9911 58.1288 33.4431 59.3331 33.418C59.86 33.418 60.3868 33.2171 60.8886 32.9911C61.7667 32.6145 62.5946 32.1626 63.6232 31.6856C63.5731 36.0792 63.548 40.1716 63.5982 44.2639ZM48.5199 14.2869C48.5199 10.4958 48.545 6.67967 48.5199 2.8886C48.5199 0.478391 46.6884 -0.601183 44.5057 0.478391C42.4986 1.48265 40.4664 2.4869 38.4844 3.49116C36.954 4.26945 36.4272 5.6503 37.1046 7.00605C37.7569 8.31158 39.212 8.71328 40.7675 7.96009C41.6456 7.53328 42.5237 7.10647 43.5273 6.62945C43.5273 8.31158 43.5022 9.81796 43.5523 11.3243C43.5523 11.6758 43.7029 12.2031 43.9789 12.3537C45.434 13.1571 46.9142 13.8601 48.3945 14.6133C48.4446 14.4124 48.5199 14.3371 48.5199 14.2869ZM30.9579 10.8975C31.3593 10.6716 31.7105 10.0439 31.7356 9.592C31.8109 7.33243 31.7858 5.07286 31.7607 2.83839C31.7356 0.478391 29.9543 -0.601183 27.8218 0.453285C25.8398 1.43243 23.8578 2.41158 21.9009 3.41584C20.2701 4.24435 19.6931 5.57498 20.3454 6.98094C20.9726 8.33669 22.4528 8.71328 24.0836 7.93498C24.9115 7.53328 25.7645 7.15669 26.743 6.67967C26.743 8.86392 26.743 10.8222 26.743 13.0316C28.3236 12.2533 29.6783 11.6507 30.9579 10.8975ZM43.9789 58.0473C43.6778 58.3737 43.5523 58.926 43.5273 59.3779C43.5022 62.5916 43.5022 65.8052 43.5022 69.0188C43.5022 70.8516 44.4555 71.9311 46.011 71.9311C47.5665 71.9311 48.5199 70.8516 48.5199 68.9937C48.5199 66.1567 48.5199 63.3196 48.5199 60.4826C48.5199 58.1226 48.5199 55.7626 48.5199 53.2269C46.8891 54.9592 45.3838 56.4656 43.9789 58.0473Z" fill="#00BF91"/>
</g>
<defs>
<clipPath id="clip0_167_1291">
<rect width="72" height="72" fill="white"/>
</clipPath>
</defs>
</svg>
