<svg width="507" height="255" viewBox="0 0 507 255" fill="none" xmlns="http://www.w3.org/2000/svg">
<path opacity="0.15" d="M170 254.956V237.963L152.5 224.968L83 224.468L66 236.963H17L1 219.968V171.982L12.5 156.986V98.0143L1 83.0185V35.0321L17 18.0368H66L83 30.532L152.5 30.0321L170 17.037V0.0438007M337 255V238.007L354 225.012L423.5 224.512L438.5 237.007H486.5L506 220.012V172.025L494 157.029V97.9706L506 82.9748V34.9883L486.5 17.993H439.5L424.5 30.4881L354 29.9883L337 16.9933V0" stroke="url(#paint0_linear_2_1291)" stroke-width="2"/>
<defs>
<linearGradient id="paint0_linear_2_1291" x1="2.00003" y1="78.0237" x2="440" y2="78.0237" gradientUnits="userSpaceOnUse">
<stop stop-color="#7755EA"/>
<stop offset="1" stop-color="#1FDEA3"/>
</linearGradient>
</defs>
</svg>
