<svg width="779" height="217" viewBox="0 0 779 217" fill="none" xmlns="http://www.w3.org/2000/svg">
<path opacity="0.15" d="M1.87717 200.974L16.0031 215.12C16.5659 215.683 17.3296 216 18.126 216H102.448C102.813 216 103.175 215.934 103.516 215.804L133.984 204.197C134.325 204.067 134.687 204 135.052 204H265.948C266.313 204 266.675 204.067 267.016 204.197L297.484 215.804C297.825 215.933 298.187 216 298.552 216H480.448C480.813 216 481.175 215.933 481.516 215.804L511.984 204.197C512.325 204.067 512.687 204 513.052 204H643.948C644.313 204 644.675 204.067 645.016 204.197L675.484 215.804C675.825 215.934 676.187 216 676.552 216H760.874C761.67 216 762.434 215.683 762.997 215.12L777.123 200.974C777.684 200.411 778 199.649 778 198.854V18.1464C778 17.3515 777.684 16.5891 777.123 16.0266L762.997 1.88021C762.434 1.31667 761.67 1 760.874 1H676.552C676.187 1 675.825 1.0666 675.484 1.19654L645.016 12.8035C644.675 12.9334 644.313 13 643.948 13H513.052C512.687 13 512.325 12.9334 511.984 12.8035L481.516 1.19653C481.175 1.0666 480.813 1 480.448 1H298.552C298.187 1 297.825 1.0666 297.484 1.19653L267.016 12.8035C266.675 12.9334 266.313 13 265.948 13H135.052C134.687 13 134.325 12.9334 133.984 12.8035L103.516 1.19654C103.175 1.0666 102.813 1 102.448 1H18.126C17.3296 1 16.5659 1.31667 16.0031 1.88021L1.87717 16.0266C1.31549 16.5891 1 17.3515 1 18.1464V198.854C1 199.649 1.31549 200.411 1.87717 200.974Z" stroke="url(#paint0_linear_2_1301)" stroke-width="2" stroke-linecap="round" stroke-linejoin="round"/>
<defs>
<linearGradient id="paint0_linear_2_1301" x1="778" y1="1" x2="743.39" y2="301.504" gradientUnits="userSpaceOnUse">
<stop stop-color="#1FDEA3"/>
<stop offset="1" stop-color="#7755EA"/>
</linearGradient>
</defs>
</svg>
