<svg width="844" height="192" viewBox="0 0 844 192" fill="none" xmlns="http://www.w3.org/2000/svg">
<path opacity="0.15" d="M0 56H17C18.6569 56 20 54.6569 20 53V14.7871C20 13.9395 20.3586 13.1314 20.9871 12.5627L32.9077 1.77556C33.4593 1.2764 34.1767 1 34.9206 1H104.757C105.553 1 106.316 1.31607 106.879 1.87868L115.121 10.1213C115.684 10.6839 116.447 11 117.243 11H142.757C143.553 11 144.316 10.6839 144.879 10.1213L153.121 1.87868C153.684 1.31607 154.447 1 155.243 1H688.757C689.553 1 690.316 1.31607 690.879 1.87868L699.121 10.1213C699.684 10.6839 700.447 11 701.243 11H726.757C727.553 11 728.316 10.6839 728.879 10.1213L737.121 1.87868C737.684 1.31607 738.447 1 739.243 1H809.079C809.823 1 810.541 1.2764 811.092 1.77556L823.013 12.5627C823.641 13.1314 824 13.9395 824 14.7871V53C824 54.6569 825.343 56 827 56H844M0 136H17C18.6569 136 20 137.343 20 139V177.213C20 178.061 20.3586 178.869 20.9871 179.437L32.9077 190.224C33.4593 190.724 34.1767 191 34.9206 191H104.757C105.553 191 106.316 190.684 106.879 190.121L115.121 181.879C115.684 181.316 116.447 181 117.243 181H142.757C143.553 181 144.316 181.316 144.879 181.879L153.121 190.121C153.684 190.684 154.447 191 155.243 191H688.757C689.553 191 690.316 190.684 690.879 190.121L699.121 181.879C699.684 181.316 700.447 181 701.243 181H726.757C727.553 181 728.316 181.316 728.879 181.879L737.121 190.121C737.684 190.684 738.447 191 739.243 191H809.079C809.823 191 810.541 190.724 811.092 190.224L823.013 179.437C823.641 178.869 824 178.061 824 177.213V139C824 137.343 825.343 136 827 136H844" stroke="url(#paint0_linear_2_1311)" stroke-width="2" stroke-linecap="round" stroke-linejoin="round"/>
<defs>
<linearGradient id="paint0_linear_2_1311" x1="844" y1="1" x2="819.006" y2="267.742" gradientUnits="userSpaceOnUse">
<stop stop-color="#1FDEA3"/>
<stop offset="1" stop-color="#7755EA"/>
</linearGradient>
</defs>
</svg>
