<svg width="679" height="217" viewBox="0 0 679 217" fill="none" xmlns="http://www.w3.org/2000/svg">
<path opacity="0.15" d="M1 153.025L12.5 138.03V79.0581L1 64.0623V16.076L17 1.08059H66L83 11.5758L152.5 11.076L170 1.08755L509 1L526 10.9883L596.5 11.4881L611.5 0.993042H658.5L678 15.9883V63.9749L666 78.9707V138.029L678 153.025V201.012L658.5 216.007H610.5L595.5 205.512L526 206.012L509 216.007L170 216.007L152.5 206.012L83 205.512L66 216.007H17L1 201.012V153.025Z" stroke="url(#paint0_linear_2_1319)" stroke-width="2"/>
<defs>
<linearGradient id="paint0_linear_2_1319" x1="53" y1="59.0237" x2="491" y2="59.0237" gradientUnits="userSpaceOnUse">
<stop stop-color="#7755EA"/>
<stop offset="1" stop-color="#1FDEA3"/>
</linearGradient>
</defs>
</svg>
