<svg width="792" height="143" viewBox="0 0 792 143" fill="none" xmlns="http://www.w3.org/2000/svg">
<path d="M400.117 28.8846H401.117V26.8846H400.117V28.8846ZM0.999268 26.8846C0.446991 26.8846 -0.000732422 27.3323 -0.000732422 27.8846C-0.000732422 28.4369 0.446991 28.8846 0.999268 28.8846V26.8846ZM133.766 28.2205L134.226 27.3325L133.766 28.2205ZM163.968 43.8591L163.509 44.7471L163.968 43.8591ZM295.266 43.8591L294.806 42.9711L295.266 43.8591ZM325.468 28.2205L325.928 29.1086L325.468 28.2205ZM400.117 26.8846H326.848V28.8846H400.117V26.8846ZM325.009 27.3325L294.806 42.9711L295.726 44.7471L325.928 29.1086L325.009 27.3325ZM293.887 43.1951H165.348V45.1951H293.887V43.1951ZM132.387 26.8846H0.999268V28.8846H132.387V26.8846ZM164.428 42.9711L134.226 27.3325L133.306 29.1086L163.509 44.7471L164.428 42.9711ZM132.387 28.8846C132.707 28.8846 133.022 28.9614 133.306 29.1086L134.226 27.3325C133.657 27.0382 133.027 26.8846 132.387 26.8846V28.8846ZM165.348 43.1951C165.028 43.1951 164.712 43.1183 164.428 42.9711L163.509 44.7471C164.077 45.0415 164.708 45.1951 165.348 45.1951V43.1951ZM294.806 42.9711C294.522 43.1183 294.207 43.1951 293.887 43.1951V45.1951C294.527 45.1951 295.157 45.0415 295.726 44.7471L294.806 42.9711ZM326.848 26.8846C326.208 26.8846 325.577 27.0382 325.009 27.3325L325.928 29.1086C326.212 28.9614 326.528 28.8846 326.848 28.8846V26.8846Z" fill="#7755EA"/>
<path d="M751 1.60645L776.163 1.60645C776.856 1.60645 777.528 1.8468 778.065 2.28662L789.902 11.993C790.597 12.5628 791 13.4142 791 14.3128V141.152" stroke="#307DF0" stroke-width="2" stroke-linecap="round" stroke-linejoin="round"/>
</svg>
