<svg width="1426" height="812" fill="none" xmlns="http://www.w3.org/2000/svg"><path d="M41.5 2.999H1v40h8v726.5H2v41.5h39.5v-8H1384v7h38.5V768.5h-7.5V42h8.5V2H1383v8H41.5V2.999Z" stroke="#000"/><path d="M2 2h42.5v7" stroke="#000"/><path d="M9.9 42.537v22.49h2.498V50.484h7.946V40.017h-7.946v-5.474h7.946v-8.015h5.426v8.016h10.426V24.025H28.25v-5.473h7.946v-8.016h5.426v8.016h10.41v-8.016h14.955v-2.52H44.12V0H2v42.496l7.9.04Zm7.947 0v5.422H12.42v-5.422h5.426Zm15.846-15.992v5.474h-5.42v-5.474h5.42Zm15.841-15.987v5.474H44.12v-5.474h5.414ZM25.77 18.574v5.474h-5.426v-5.474h5.426Zm-7.946 0v5.474h-5.426v-5.474h5.426ZM4.486 40.017V2.565H41.61V8.04h-7.946v8.016h-5.42V8.04h-10.42v8.016H9.878v10.513h7.946v5.473H9.878v8.016l-5.392-.04Zm21.273-23.985h-5.427v-5.474h5.427v5.474Z" fill="#FFDE88"/><path fill-rule="evenodd" clip-rule="evenodd" d="M53.504 8.016v2.52h989.416v-2.52H53.504ZM12.427 65.027H9.93V780.71h2.497V65.027Z" fill="#FFDE88"/><path d="M1418.02 42.537v22.49h-2.5V50.484h-7.94V40.017h7.94v-5.474h-7.94v-8.015h-5.43v8.016h-10.42V24.025h7.94v-5.473h-7.94v-8.016h-5.43v8.016h-10.41v-8.016h-14.96v-2.52h22.87V0h42.12v42.496l-7.9.04Zm-7.94 0v5.422h5.42v-5.422h-5.42Zm-15.85-15.992v5.474h5.42v-5.474h-5.42Zm-15.84-15.987v5.474h5.41v-5.474h-5.41Zm23.76 8.016v5.474h5.43v-5.474h-5.43Zm7.95 0v5.474h5.42v-5.474h-5.42Zm13.34 21.443V2.565h-37.13V8.04h7.95v8.016h5.42V8.04h10.42v8.016h7.94v10.513h-7.94v5.473h7.94v8.016l5.4-.04Zm-21.28-23.985h5.43v-5.474h-5.43v5.474Z" fill="#FFDE88"/><path fill-rule="evenodd" clip-rule="evenodd" d="M1374.42 8.016v2.52H385v-2.52h989.42Zm41.07 57.011h2.5V780.71h-2.5V65.027ZM12.427 756H9.93V259h2.497v497Z" fill="#FFDE88"/><path fill-rule="evenodd" clip-rule="evenodd" d="M1415.49 745h2.5V259h-2.5v486Z" fill="#FFDE88"/><path d="M9.9 767.172v-22.49h2.498v14.543h7.946v10.467h-7.946v5.473h7.946v8.016h5.426v-8.016h10.426v10.519H28.25v5.473h7.946v8.016h5.426v-8.016h10.41v8.016h14.955v2.52H44.12v8.016H2v-42.497l7.9-.04Zm7.947 0v-5.422H12.42v5.422h5.426Zm15.846 15.992v-5.474h-5.42v5.474h5.42Zm15.841 15.987v-5.474H44.12v5.474h5.414Zm-23.764-8.016v-5.474h-5.426v5.474h5.426Zm-7.946 0v-5.474h-5.426v5.474h5.426ZM4.486 769.692v37.452H41.61v-5.474h-7.946v-8.016h-5.42v8.016h-10.42v-8.016H9.878v-10.513h7.946v-5.473H9.878v-8.016l-5.392.04Zm21.273 23.985h-5.427v5.474h5.427v-5.474Z" fill="#FFDE88"/><path fill-rule="evenodd" clip-rule="evenodd" d="M53.504 801.693v-2.519h989.416v2.519H53.504Z" fill="#FFDE88"/><path d="M1418.02 767.172v-22.49h-2.5v14.543h-7.94v10.467h7.94v5.473h-7.94v8.016h-5.43v-8.016h-10.42v10.519h7.94v5.473h-7.94v8.016h-5.43v-8.016h-10.41v8.016h-14.96v2.52h22.87v8.016h42.12v-42.497l-7.9-.04Zm-7.94 0v-5.422h5.42v5.422h-5.42Zm-15.85 15.992v-5.474h5.42v5.474h-5.42Zm-15.84 15.987v-5.474h5.41v5.474h-5.41Zm23.76-8.016v-5.474h5.43v5.474h-5.43Zm7.95 0v-5.474h5.42v5.474h-5.42Zm13.34-21.443v37.452h-37.13v-5.474h7.95v-8.016h5.42v8.016h10.42v-8.016h7.94v-10.513h-7.94v-5.473h7.94v-8.016l5.4.04Zm-21.28 23.985h5.43v5.474h-5.43v-5.474Z" fill="#FFDE88"/><path fill-rule="evenodd" clip-rule="evenodd" d="M1374.42 801.693v-2.519H385v2.519h989.42Z" fill="#FFDE88"/></svg>