<svg width="38" height="33" viewBox="0 0 38 33" fill="none" xmlns="http://www.w3.org/2000/svg">
<path d="M14.3121 29.5518C14.4871 27.0052 14.6718 24.4635 14.8274 21.9217C14.8494 21.7575 14.9068 21.6 14.9958 21.4599C15.0847 21.3197 15.203 21.2004 15.3427 21.11L29.9264 7.98095C30.2423 7.69585 30.5583 7.41557 30.8646 7.11597C30.991 7 31.1514 6.86472 31.0396 6.66177C30.9278 6.45882 30.7382 6.49745 30.5535 6.51195C30.1328 6.58954 29.7384 6.77066 29.4062 7.0387C23.1611 10.9528 16.9177 14.8716 10.6759 18.7953C10.4814 18.9379 10.2543 19.0303 10.015 19.0641C9.77573 19.0978 9.53175 19.0719 9.30503 18.9887C6.83066 18.1914 4.34171 17.4472 1.86735 16.6595C1.15761 16.4324 0.199931 16.302 0.180486 15.3791C0.161041 14.4561 1.06036 14.1613 1.78469 13.8762C4.80837 12.6923 7.84665 11.5422 10.8801 10.3777L34.7001 1.19655C34.9291 1.10537 35.1627 1.02634 35.4001 0.959773C36.6106 0.640849 37.4905 1.25452 37.6023 2.51089C37.6995 3.5788 37.3446 4.5888 37.1161 5.60839C35.3855 13.7812 33.6436 21.9492 31.8903 30.1124C31.4042 32.2917 30.15 32.7845 28.3562 31.4701C25.7635 29.5824 23.1822 27.685 20.6123 25.7779C20.2428 25.5025 20.0338 25.4589 19.674 25.8213C18.4441 27.0584 17.1656 28.2374 15.9017 29.46C15.6916 29.7022 15.4437 29.9094 15.1677 30.0737C14.4142 30.4409 14.2586 30.3394 14.3121 29.5518Z" fill="#E9C867"/>
</svg>
