<svg width="41" height="24" viewBox="0 0 41 24" fill="none" xmlns="http://www.w3.org/2000/svg">
<path d="M24.0634 6.19913C24.0634 7.57147 23.8301 8.94371 24.0634 10.316C24.1558 10.8669 24.1266 11.5579 24.7878 11.7657C25.4489 11.9735 25.7114 11.3502 26.0566 10.9733C28.05 8.73859 29.6226 6.16552 30.699 3.3771C30.8303 3.063 30.9518 2.74895 31.1025 2.44452C31.203 2.20849 31.3727 2.00793 31.5895 1.86916C31.8063 1.73039 32.0601 1.6598 32.3178 1.66648C34.7193 1.66648 37.1256 1.63749 39.527 1.66648C40.7375 1.66648 41.1021 2.26574 40.752 3.42063C40.3111 4.70405 39.6536 5.9034 38.8076 6.96738C37.7381 8.44119 36.6443 9.90056 35.5651 11.3647C35.4241 11.5532 35.2832 11.7367 35.147 11.9252C33.9123 13.6261 33.9415 14.0562 35.4339 15.53C37.1839 17.2551 39.0069 18.9126 40.3534 21.0049C40.4856 21.1978 40.6042 21.3997 40.7083 21.6089C40.8386 21.824 40.9125 22.0682 40.923 22.3191C40.9336 22.57 40.8805 22.8196 40.7687 23.0448C40.6569 23.2699 40.4899 23.4636 40.2831 23.6079C40.0764 23.7521 39.8364 23.8423 39.5854 23.8703C39.2531 23.9418 38.9141 23.9774 38.5742 23.9766C36.8728 23.9766 35.1714 23.938 33.4699 23.9235C32.8183 23.9284 32.173 23.7962 31.5765 23.5355C30.9799 23.2749 30.4456 22.8916 30.0087 22.411C29.2212 21.5799 28.4434 20.744 27.6413 19.9225C27.2787 19.5371 26.8853 19.1816 26.4649 18.8594C25.6482 18.2554 24.885 18.5164 24.5982 19.4828C24.3526 20.3368 24.1786 21.2096 24.078 22.0921C23.9273 23.3195 23.4364 23.7688 22.1676 23.851C16.5723 24.2086 12.1048 22.0777 8.62904 17.7722C5.45466 13.8388 3.08237 9.43186 0.967735 4.87028C0.714951 4.31458 0.442723 3.76361 0.209384 3.19341C-0.189237 2.22698 0.209377 1.58438 1.2351 1.58438C3.212 1.58438 5.19053 1.60687 7.17067 1.65197C7.58979 1.66239 7.99481 1.80453 8.32757 2.05804C8.66034 2.31155 8.90373 2.66335 9.0228 3.06293C10.1148 5.80024 11.5875 8.37187 13.3979 10.7026C13.6742 11.0789 14.0128 11.4057 14.3993 11.6691C14.9778 12.046 15.4202 11.8914 15.6195 11.2342C15.8595 10.4221 15.9919 9.58226 16.0133 8.73603C16.0619 7.35886 15.9841 5.9865 15.9014 4.61416C15.8334 3.46894 15.3132 2.87457 14.1708 2.55565C13.4903 2.36236 13.4028 2.07237 13.8792 1.53117C14.2808 1.08353 14.8425 0.809523 15.4445 0.767646C17.6913 0.569501 19.9517 0.579235 22.1967 0.796668C23.4607 0.91264 23.9954 1.50704 24.078 2.77307C24.1218 3.34327 24.078 3.91349 24.078 4.48369C24.078 5.05388 24.0634 5.62894 24.0634 6.19913Z" fill="#E9C867"/>
</svg>
