<svg width="36" height="36" viewBox="0 0 36 36" fill="none" xmlns="http://www.w3.org/2000/svg">
<path d="M0.877441 35.9487C1.64552 33.1653 2.3747 30.4545 3.15249 27.7339C3.23199 27.4859 3.25836 27.2241 3.22989 26.9652C3.20142 26.7064 3.11876 26.4564 2.98721 26.2312C1.08127 22.5481 0.563474 18.3089 1.52741 14.2795C2.49134 10.25 4.87341 6.69615 8.24318 4.26011C11.613 1.82407 15.7482 0.66657 19.9016 0.996616C24.055 1.32666 27.9527 3.12254 30.8904 6.05979C33.828 8.99704 35.6119 12.882 35.9195 17.0124C36.2272 21.1429 35.0385 25.2465 32.5681 28.5818C30.0978 31.9171 26.5087 34.2642 22.4495 35.1987C18.3902 36.1333 14.1286 35.5937 10.4346 33.6776C10.2522 33.5942 10.0474 33.5722 9.85128 33.6148C6.99288 34.3445 4.13932 35.0934 1.28092 35.8327L0.877441 35.9487ZM5.07754 31.8366C6.8373 31.3824 8.51929 30.9475 10.1964 30.4981C10.3224 30.4593 10.4555 30.4491 10.5859 30.4683C10.7163 30.4876 10.8407 30.5357 10.9499 30.6092C14.0645 32.526 17.7997 33.1831 21.387 32.4453C24.3984 31.8489 27.1424 30.3199 29.2255 28.0775C31.3086 25.835 32.6238 22.9944 32.9824 19.9631C33.341 16.9317 32.7246 13.8653 31.2216 11.2037C29.7187 8.54204 27.4063 6.42193 24.6163 5.14739C21.8262 3.87284 18.7017 3.50942 15.691 4.1091C12.6803 4.70879 9.9379 6.24085 7.85726 8.48556C5.77661 10.7303 4.46457 13.5723 4.1093 16.604C3.75402 19.6357 4.37375 22.7014 5.87964 25.3614C6.12906 25.7346 6.28599 26.1613 6.33753 26.6065C6.38907 27.0516 6.33378 27.5026 6.17618 27.9225C5.74839 29.1837 5.45185 30.4884 5.07754 31.8366Z" fill="#E9C867"/>
<path d="M12.88 10.275C13.6238 10.0914 13.9835 10.5359 14.246 11.2028C14.6398 12.2224 15.0773 13.2275 15.5099 14.2326C15.5923 14.3844 15.628 14.557 15.6124 14.7289C15.5969 14.9007 15.5308 15.0642 15.4224 15.199C15.0676 15.6822 14.7224 16.1413 14.353 16.5956C14.2465 16.705 14.182 16.8479 14.1704 16.9997C14.1589 17.1515 14.2011 17.3026 14.2898 17.4267C15.6517 19.7837 17.784 21.6065 20.3323 22.5923C20.481 22.6683 20.6525 22.6876 20.8146 22.6466C20.9766 22.6057 21.118 22.5073 21.2122 22.37C21.6497 21.8288 22.1018 21.302 22.5198 20.7463C22.6051 20.5953 22.7457 20.4828 22.9124 20.4324C23.0791 20.382 23.2589 20.3976 23.4143 20.4758C24.6539 21.0508 25.8935 21.6307 27.1186 22.2443C27.2032 22.3046 27.2727 22.3835 27.3216 22.4749C27.3705 22.5662 27.3975 22.6676 27.4005 22.7711C27.3713 24.6218 26.822 25.5109 24.8338 26.342C23.7185 26.7485 22.4967 26.7622 21.3726 26.3807C17.153 25.2113 14.0418 22.5778 11.5577 19.1325C10.7376 18.0987 10.1373 16.9101 9.79312 15.6388C9.56563 14.7712 9.58127 13.8582 9.83833 12.9988C10.0954 12.1394 10.5841 11.3662 11.2515 10.7631C11.4649 10.5597 11.7237 10.4094 12.0067 10.3246C12.2898 10.2397 12.5891 10.2227 12.88 10.275Z" fill="#E9C867"/>
</svg>
