<?xml version="1.0" encoding="utf-8"?><svg xmlns="http://www.w3.org/2000/svg" xmlns:xlink="http://www.w3.org/1999/xlink"><symbol fill="none" viewBox="0 0 16 14" id="mail-footer" xmlns="http://www.w3.org/2000/svg"><path d="M15.489 1.722c0-.947-.671-1.722-1.49-1.722H2.075c-.82 0-1.49.775-1.49 1.722v10.33c0 .946.67 1.72 1.49 1.72h11.922c.82 0 1.49-.774 1.49-1.72V1.721zm-1.49 0L8.036 6.026l-5.96-4.304h11.922zm0 10.33H2.075v-8.61l5.961 4.304 5.961-4.304v8.608z" fill="#933C06"/></symbol><symbol fill="none" viewBox="0 0 13 15" id="phone-footer" xmlns="http://www.w3.org/2000/svg"><path d="M2.524 6.358c1.004 2.31 2.621 4.203 4.595 5.378l1.533-1.795c.196-.229.468-.294.712-.204a6.87 6.87 0 002.489.465.65.65 0 01.493.24c.13.152.204.36.204.576v2.857a.892.892 0 01-.204.577.65.65 0 01-.493.239c-3.144 0-6.159-1.462-8.381-4.064C1.249 8.025 0 4.496 0 .817 0 .6.073.391.204.238A.65.65 0 01.697 0h2.44a.65.65 0 01.493.239.89.89 0 01.205.577c0 1.02.14 2 .397 2.914a.92.92 0 01-.174.832L2.524 6.358z" fill="#933C06"/></symbol></svg>