<svg width="227" height="167" viewBox="0 0 227 167" fill="none" xmlns="http://www.w3.org/2000/svg">
<path fill-rule="evenodd" clip-rule="evenodd" d="M62.2697 0C62.6518 0 62.9616 0.309785 62.9616 0.691925V0.776211V0.860496V0.944782V1.02907V1.11335V1.19764V1.28192V1.36621V1.4505V1.53478V1.61907V1.70335V1.78764V1.87193V1.95621V2.0405V2.12478V2.20907V2.29335V2.37764V2.46193V2.54621V2.6305V2.71478V2.79907V2.88335V2.96764V3.05193V3.13621V3.2205V3.30478V3.38907V3.47335V3.55764V3.64193V3.72621V3.8105V3.89478V3.97907V4.06335V4.14764V4.23193V4.31621V4.4005V4.48478V4.56907V4.65335V4.73764V4.82193V4.90621V4.9905V5.07478V5.15907V5.24335V5.32764V5.41193V5.49621V5.5805V5.66478V5.74907V5.83335V5.91764V6.00193V6.08621V6.1705V6.25478V6.33907V6.42336V6.50764V6.59193V6.67621V6.7605V6.84478V6.92907V7.01336V7.09764V7.18193V7.26621V7.3505V7.43478V7.51907V7.60336V7.68764V7.77193V7.85621V7.9405V8.02478V8.10907V8.19336V8.27764V8.36193V8.44621V8.5305V8.61478V8.69907V8.78336V8.86764V8.95193V9.03621V9.1205V9.20478V9.28907V9.37336V9.45764V9.54193V9.62621V9.7105V9.79478V9.87907V9.96336V10.0476V10.1319V10.2162V10.3005V10.3848V10.4691V10.5534V10.6376V10.7219V10.8062V10.8905V10.9748V11.0591V11.1434V11.2276V11.3119V11.3962V11.4805V11.5648V11.6491V11.7334V11.8176V11.9019V11.9862V12.0705V12.1548V12.2391V12.3234V12.4076V12.4919V12.5762V12.6605V12.7448V12.8291V12.9134V12.9976V13.0819V13.1662V13.2505V13.3348V13.4191V13.5034V13.5876V13.6719V13.7562V13.8405V13.9248V14.0091V14.0934V14.1776V14.2619V14.3462V14.4305V14.5148V14.5991V14.6834V14.7676V14.8519V14.9362V15.0205V15.1048V15.1891V15.2734V15.3576V15.4419V15.5262V15.6105V15.6948V15.7791V15.8634V15.9476V16.0319V16.1162V16.2005V16.2848V16.3691V16.4534V16.5376V16.6219V16.7062V16.7905V16.8748V16.9591V17.0434V17.1276V17.2119V17.2962V17.3805V17.4648V17.5491V17.6334V17.7176V17.8019V17.8862V17.9705V18.0548V18.1391V18.2234V18.3076V18.3919V18.4762V18.5605V18.6448V18.7291V18.8134V18.8976V18.9819V19.0662V19.1505V19.2348V19.3191V19.4034V19.4876V19.5719V19.6562V19.7405V19.8248V19.9091V19.9934V20.0776V20.1619V20.2462V20.3305V20.4148V20.4991V20.5834V20.6676V20.7519V20.8362V20.9205V21.0048V21.0891V21.1734V21.2576V21.3419V21.4262V21.5105V21.5948V21.6791V21.7634V21.8476V21.9319V22.0162V22.1005V22.1848V22.2691V22.3534V22.4376V22.5219V22.6062V22.6905V22.7748V22.8591V22.9434V23.0276V23.1119V23.1962V23.2805V23.3648V23.4491V23.5334V23.6176V23.7019V23.7862V23.8705V23.9548V24.0391V24.1234V24.2076V24.2919V24.3762V24.4605V24.5448V24.6291V24.7134V24.7976V24.8819V24.9662V25.0505V25.1348V25.2191V25.3034V25.3876V25.4719V25.5562V25.6405V25.7248V25.8091V25.8934V25.9776V26.0619V26.1462V26.2305V26.3148V26.3991V26.4834V26.5676V26.6519V26.7362V26.8205V26.9048V26.9891V27.0734V27.1576V27.2419V27.3262V27.4105V27.4948V27.5791V27.6634V27.7476V27.8319V27.9162V28.0005V28.0848V28.1691V28.2534V28.3376V28.4219V28.5062V28.5905V28.6748V28.7591V28.8434V28.9276V29.0119V29.0962V29.1805V29.2648V29.3491V29.4334V29.5176V29.6019V29.6862V29.7705V29.8548V29.9391V30.0234V30.1076V30.1919V30.2762V30.3605V30.4448V30.5291V30.6134V30.6976V30.7819V30.8662V30.9505V31.0348V31.1191V31.2034V31.2876V31.3719V31.4562V31.5405V31.6248V31.7091V31.7934V31.8776V31.9619V32.0462V32.1305V32.2148V32.2991V32.3834V32.4676V32.5519V32.6362V32.7205V32.8048V32.8891V32.9734V33.0576V33.1419V33.2262V33.3105V33.3948V33.4791V33.5634V33.6476V33.7319V33.8162V33.9005V33.9848V34.0691V34.1534V34.2376V34.3219V34.4062V34.4905V34.5748V34.6591V34.7434V34.8276V34.9119V34.9962V35.0805V35.1648V35.2491V35.3334V35.4176V35.5019V35.5862V35.6705V35.7548V35.8391V35.9234V36.0076V36.0919V36.1762V36.2605V36.3448V36.4291V36.5134V36.5976V36.6819V36.7662V36.8505V36.9348V37.0191V37.1034V37.1876V37.2719V37.3562V37.4405V37.5248V37.6091V37.6934V37.7776V37.8619V37.9462V38.0305V38.1148V38.1991V38.2834V38.3676V38.4519V38.5362V38.6205V38.7048V38.7891V38.8734V38.9576V39.0419V39.1262V39.2105V39.2948V39.3791V39.4634V39.5476V39.6319V39.7162V39.8005V39.8848V39.9691V40.0534V40.1376V40.2219V40.3062V40.3905V40.4748V40.5591V40.6434V40.7276V40.8119V40.8962V40.9805V41.0648V41.1491V41.2334V41.3176V41.4019V41.4862V41.5705V41.6548V41.7391V41.8234V41.9076V41.9919V42.0762V42.1605V42.2448V42.3291V42.4134V42.4977V42.5819V42.6662V42.7505V42.8348V42.9191V43.0034V43.0877V43.1719V43.2562V43.3405V43.4248V43.5091V43.5934V43.6777V43.7619V43.8462C62.9616 44.7812 62.9613 45.7161 62.961 46.651V46.651V46.651C62.9595 51.1606 62.9581 55.6682 62.9903 60.1735C65.1483 59.4847 67.3029 58.7853 69.4547 58.0765C69.3103 56.5594 69.1942 55.0431 69.086 53.5291L69.086 53.5285V53.5284L69.086 53.5281C69.0841 53.5024 69.0814 53.4647 69.0808 53.4379C69.0807 53.4344 69.0805 53.4272 69.0806 53.4177L69.0807 53.4052C69.0808 53.3979 69.0812 53.3824 69.0828 53.363L69.0828 53.3622C69.0835 53.3537 69.0879 53.2916 69.1101 53.2182C69.1291 53.1635 69.2184 53.0035 69.3025 52.9101C69.5221 52.7728 70.0052 52.7661 70.2075 52.8796C70.2844 52.9521 70.3756 53.0783 70.3986 53.123C70.4101 53.1488 70.4267 53.1919 70.4323 53.2089C70.4422 53.2401 70.4476 53.2651 70.4494 53.2735C70.4519 53.2851 70.4536 53.2945 70.4546 53.3001C70.4592 53.3263 70.462 53.3528 70.4625 53.3573L70.4625 53.3575L70.4626 53.3578C70.4669 53.3968 70.4746 53.4776 70.484 53.5788C70.4989 53.738 70.5197 53.9678 70.5429 54.2237L70.5442 54.2385L70.5649 54.4663C70.5968 54.8173 70.6308 55.1904 70.6591 55.4893C70.6733 55.6389 70.6858 55.7685 70.6959 55.8669C70.701 55.9163 70.7052 55.9563 70.7087 55.9864C70.7126 56.021 70.7141 56.0304 70.7134 56.026C70.7965 56.5401 70.8916 57.0536 70.9975 57.5666C74.3969 56.4391 77.7894 55.2889 81.1764 54.1206C78.6109 45.9178 75.9395 37.7422 73.2613 29.5455L72.9996 28.7447C72.7969 28.1242 72.5799 27.4863 72.3585 26.8354L72.3579 26.8334L72.3578 26.8333L72.3577 26.833C71.7829 25.1431 71.1783 23.3653 70.7147 21.5756C70.0689 19.083 69.673 16.4889 69.9904 13.9141C70.409 10.5193 72.9947 8.35345 75.8973 7.68344C78.7927 7.01507 82.1406 7.79897 84.184 10.4327C86.7658 13.7604 87.5857 18.3145 87.7725 22.8502C87.895 25.8233 87.7441 28.8915 87.6079 31.662C87.5372 33.1002 87.4704 34.4582 87.4479 35.681C87.3461 41.2009 87.0607 46.7104 86.6652 52.2106C97.7162 48.3331 108.717 44.2901 119.718 40.2467C129.707 36.5755 139.697 32.9041 149.726 29.3559C151.482 28.7348 153.241 28.1098 155.003 27.4834C177.866 19.3594 201.343 11.017 225.608 8.32088C225.988 8.27868 226.33 8.55236 226.372 8.93217C226.415 9.31197 226.141 9.65407 225.761 9.69627C201.663 12.3738 178.332 20.6634 155.437 28.7981C153.685 29.4206 151.935 30.0423 150.188 30.6605C140.193 34.1964 130.223 37.8608 120.244 41.5282C109.04 45.646 97.8252 49.7676 86.5542 53.7157C86.2935 57.1696 85.9921 60.6199 85.6681 64.067C87.7229 70.947 89.676 77.8632 91.4691 84.8417C92.1221 87.3831 92.7458 89.9311 93.3491 92.483C101.862 95.833 112.232 96.0609 121.21 95.2749C132.55 94.2819 142.781 89.2301 151.706 82.2062C158.442 76.9056 164.476 70.1953 167.384 62.1916C167.298 62.1584 167.206 62.1257 167.11 62.0934C166.844 62.0049 166.566 61.9287 166.297 61.8552L166.271 61.8482L166.271 61.8482C166.026 61.781 165.765 61.7097 165.568 61.6358C165.21 61.5016 165.029 61.1028 165.163 60.745C165.297 60.3872 165.696 60.2059 166.054 60.3401C166.184 60.3889 166.383 60.4441 166.662 60.5204L166.669 60.5221L166.669 60.5222C166.931 60.5938 167.242 60.6789 167.547 60.7805C167.639 60.8112 167.734 60.8443 167.828 60.88C168.202 59.6927 168.506 58.4779 168.734 57.2362C169.427 53.457 169.749 49.3244 167.808 46.1477C167.723 46.0087 167.497 45.7868 167.127 45.4998C166.819 45.2609 166.471 45.0222 166.138 44.7934L166 44.6986C165.664 44.4676 165.278 44.2015 165.073 43.9833C165.02 43.9261 164.932 43.8252 164.872 43.69C164.81 43.5496 164.728 43.2396 164.939 42.94C165.113 42.6938 165.369 42.6351 165.461 42.6179C165.582 42.5955 165.702 42.5957 165.801 42.6009C170.043 42.8242 174.794 44.3493 178.887 45.6628C179.528 45.8685 180.153 46.0691 180.757 46.2587C184.948 47.5734 188.981 49.2882 192.984 50.9902L192.985 50.9902C194.949 51.8253 196.906 52.6573 198.871 53.4374C199.463 53.6725 200.15 53.8646 200.897 54.0734C201.161 54.1469 201.431 54.2225 201.707 54.3028C202.727 54.599 203.815 54.9569 204.673 55.5083C204.735 55.5482 204.818 55.6087 204.893 55.6951C204.966 55.7789 205.077 55.9409 205.087 56.1718C205.097 56.4243 204.982 56.6149 204.872 56.7274C204.773 56.8286 204.665 56.8838 204.6 56.9125C204.469 56.9709 204.328 57.0002 204.224 57.0176C204.109 57.0368 203.984 57.0501 203.861 57.0599C203.536 57.0856 203.111 57.0928 202.798 57.0982C202.665 57.1004 202.552 57.1024 202.476 57.1052C199.865 57.2028 197.395 57.7284 194.822 58.4218C193.121 58.8799 191.407 59.3788 189.68 59.8817C183.117 61.792 176.36 63.759 169.415 63.759C169.195 63.759 168.955 63.7438 168.742 63.6612C168.601 63.607 168.486 63.5297 168.394 63.436C165.266 71.4322 159.187 78.0803 152.562 83.2936C143.493 90.4311 133.013 95.6305 121.331 96.6535C112.593 97.4185 102.369 97.2533 93.7302 94.1069C94.7993 98.6945 95.8088 103.293 96.8106 107.889L97.1943 109.65C97.7287 112.104 98.2628 114.556 98.8046 117.005C99.6628 119.351 100.386 121.739 101.095 124.087C102.198 127.741 103.296 131.549 103.296 135.515C103.296 135.85 103.3 136.062 103.304 136.18L103.307 136.215C103.309 136.246 103.311 136.273 103.312 136.296C103.312 136.302 103.313 136.309 103.313 136.316C103.313 136.321 103.313 136.327 103.313 136.332C103.313 136.338 103.313 136.347 103.313 136.357C103.313 136.362 103.313 136.388 103.31 136.421C103.31 136.421 103.305 136.492 103.277 136.574C103.268 136.6 103.24 136.664 103.22 136.701C103.184 136.756 103.068 136.883 102.981 136.945C102.839 137.011 102.525 137.039 102.368 136.998C102.265 136.947 102.119 136.831 102.073 136.776C102.004 136.687 101.974 136.6 101.968 136.583L101.967 136.581C101.963 136.568 101.959 136.556 101.956 136.546C101.952 136.532 101.949 136.52 101.948 136.513C101.941 136.488 101.938 136.467 101.937 136.459C101.935 136.446 101.933 136.433 101.932 136.422C101.931 136.411 101.93 136.402 101.93 136.398L101.93 136.398C101.928 136.375 101.926 136.348 101.925 136.318L101.923 136.266C101.904 136.061 101.851 135.709 101.746 135.484C101.407 134.758 101.225 134.01 101.086 133.3C101.036 133.045 100.993 132.801 100.95 132.564L100.95 132.563C100.87 132.113 100.793 131.685 100.685 131.245C99.5499 126.642 98.4971 122.021 97.4735 117.396C96.4842 114.701 95.3234 112.099 93.7952 109.687C91.6194 106.254 89.1 103.721 85.7945 101.553C85.8002 101.894 85.8502 102.257 85.8871 102.526L85.8871 102.526L85.8871 102.526C85.9004 102.623 85.912 102.707 85.9192 102.774C86.4526 107.693 87.4294 112.489 88.4226 117.366L88.4226 117.367L88.543 117.958C89.0222 120.313 89.2365 122.707 89.4474 125.062L89.4474 125.063L89.4475 125.064C89.5485 126.192 89.6486 127.31 89.7767 128.412L89.784 128.474C89.8427 128.976 89.9771 130.125 89.9025 130.844C89.8834 131.027 89.8438 131.274 89.7312 131.485C89.6717 131.596 89.5646 131.75 89.3782 131.856C89.1714 131.973 88.9448 131.987 88.7463 131.934C88.4252 131.849 88.1974 131.595 88.0567 131.418C87.8888 131.205 87.7086 130.918 87.5112 130.555C84.4912 125.002 82.1368 118.82 80.1816 112.538C80.0059 112.61 79.817 112.655 79.6166 112.672C78.9987 112.722 78.3724 112.489 77.8057 112.146C77.228 111.797 76.6429 111.292 76.0835 110.688C71.3931 105.622 69.4724 98.1855 68.7817 91.6692V91.6845V91.7677V91.8509V91.9342V92.0173V92.1006V92.1838V92.267V92.3502V92.4334V92.5166V92.5998V92.683V92.7662V92.8494V92.9326V93.0158V93.099V93.1822V93.2654V93.3486V93.4318V93.515V93.5982V93.6814V93.7646V93.8478V93.931V94.0142V94.0974V94.1806V94.2638V94.347V94.4302V94.5134V94.5966V94.6798V94.763V94.8462V94.9295V95.0126V95.0959V95.1791V95.2623V95.3455V95.4287V95.5119V95.5951V95.6783V95.7615V95.8447V95.9279V96.0111V96.0943V96.1775V96.2607V96.3439V96.4271V96.5103V96.5935V96.6767V96.7599V96.8431V96.9263V97.0095V97.0927V97.1759V97.2591V97.3423V97.4255V97.5087V97.5919V97.6751V97.7583V97.8415V97.9248V98.008V98.0912V98.1744V98.2576V98.3408V98.424V98.5072V98.5904V98.6736V98.7568V98.84V98.9232V99.0064V99.0896V99.1728V99.256V99.3392V99.4224V99.5056V99.5888V99.672V99.7552V99.8384V99.9216V100.005V100.088V100.171V100.254V100.338V100.421V100.504V100.587V100.67V100.754V100.837V100.92V101.003V101.086V101.17V101.253V101.336V101.419V101.502V101.586V101.669V101.752V101.835V101.918V102.002V102.085V102.168V102.251V102.335V102.418V102.501V102.584V102.667V102.751V102.834V102.917V103V103.083V103.167V103.25V103.333V103.416V103.499V103.583V103.666V103.749V103.832V103.915V103.999V104.082V104.165V104.248V104.331V104.415V104.498V104.581V104.664V104.747V104.831V104.914V104.997V105.08V105.163V105.247V105.33V105.413V105.496V105.579V105.663V105.746V105.829V105.912V105.995V106.079V106.162V106.245V106.328V106.411V106.495V106.578V106.661V106.744V106.827V106.911V106.994V107.077V107.16V107.243V107.327V107.41V107.493V107.576V107.659V107.743V107.826V107.909V107.992V108.075V108.159V108.242V108.325V108.408V108.492V108.575V108.658V108.741V108.824V108.908V108.991V109.074V109.157V109.24V109.324V109.407V109.49V109.573V109.656V109.74V109.823V109.906V109.989V110.072V110.156V110.239V110.322V110.405V110.488V110.572V110.655V110.738V110.821V110.904V110.988V111.071V111.154V111.237V111.32V111.404V111.487V111.57V111.653V111.736V111.82V111.903V111.986V112.069V112.152V112.236V112.319V112.402V112.485V112.568V112.652V112.735V112.818V112.901V112.984V113.068V113.151V113.234V113.317V113.4V113.484V113.567V113.65V113.733V113.816V113.9V113.983V114.066V114.149V114.233V114.316V114.399V114.482V114.565V114.649V114.732V114.815V114.898V114.981V115.065V115.148V115.231V115.314V115.397V115.481V115.564V115.647V115.653V115.658V115.664V115.669V115.675V115.681V115.686V115.692V115.697V115.703V115.708V115.714V115.72V115.725V115.731V115.736V115.742V115.748V115.753V115.759V115.764V115.77V115.776V115.781V115.787V115.792V115.798V115.804V115.809V115.815V115.82V115.826V115.832V115.837V115.843V115.848V115.854V115.86V115.865V115.871V115.876V115.882V115.888V115.893V115.899V115.904V115.91V115.916V115.921V115.927V115.932V115.938V115.943V115.949V115.955V115.96V115.966V115.971V115.977V115.983V115.988V115.994V115.999V116.005V116.011V116.016V116.022V116.027V116.033V116.039V116.044V116.05V116.055V116.061V116.067V116.072V116.078V116.083V116.089V116.095V116.1V116.106V116.111V116.117V116.123V116.128V116.134V116.139V116.145V116.151V116.156V116.162V116.167V116.173V116.178V116.184V116.19V116.195V116.201V116.206V116.212V116.218V116.223V116.229V116.234V116.24V116.246V116.251V116.257V116.262V116.268V116.274V116.279V116.285V116.29V116.296V116.302V116.307V116.313V116.318V116.324V116.33V116.335V116.341V116.346V116.352V116.358V116.363V116.369V116.374V116.38V116.385V116.391V116.397V116.402V116.408V116.413V116.419V116.425V116.43V116.436V116.441V116.447V116.453V116.458V116.464V116.469V116.475V116.481V116.486V116.492V116.497V116.503V116.509V116.514V116.52V116.525V116.531V116.537V116.542V116.548V116.553V116.559V116.565V116.57V116.576V116.581V116.587V116.593V116.598V116.604V116.609V116.615V116.62V116.626V116.632V116.637V116.643V116.648V116.654V116.66V116.665V116.671V116.676V116.682V116.688V116.693V116.699V116.704V116.71V116.716V116.721V116.727V116.732V116.738V116.744V116.749V116.755V116.76V116.766V116.772V116.777V116.783V116.788V116.794V116.8V116.805V116.811V116.816V116.822V116.827V116.833V116.839V116.844V116.85V116.855V116.861V116.867V116.872V116.878V116.883V116.889V116.895V116.9V116.906V116.911V116.917V116.923V116.928V116.934V116.939V116.945V116.951V116.956V116.962V116.967V116.973V116.979V116.984V116.99V116.995V117.001V117.007V117.012V117.018V117.023V117.029V117.035V117.04V117.046V117.051V117.057V117.062V117.068V117.074V117.079V117.085V117.09V117.096V117.102V117.107V117.113V117.118V117.124V117.13V117.135V117.141V117.146V117.152V117.158V117.163V117.169V117.174V117.18V117.186V117.191V117.197V117.202V117.208V117.214V117.219V117.225V117.23V117.236V117.242V117.247V117.253V117.258V117.264V117.27V117.275V117.281V117.286V117.292V117.297V117.303V117.309V117.314V117.32V117.325V117.331V117.337V117.342V117.348V117.353V117.359V117.365V117.37V117.376V117.381V117.387V117.393V117.398V117.404V117.409V117.415V117.421V117.426V117.432V117.437V117.443V117.449V117.454V117.46V117.465V117.471V117.477V117.482V117.488V117.493V117.499V117.504V117.51V117.516V117.521V117.527V117.532V117.538V117.544V117.549V117.555V117.56V117.566V117.572V117.577V117.583V117.588V117.594V117.6V117.605V117.611V117.616V117.622V117.628V117.633V117.639V117.644V117.65V117.656V117.661V117.667V117.672V117.678V117.684V117.689V117.695V117.7V117.706V117.712V117.717V117.723V117.728V117.734V117.739V117.745V117.751V117.756V117.762V117.767V117.773V117.779V117.784V117.79V117.795V117.801V117.807V117.812V117.818V117.823V117.829V117.835V117.84V117.846V117.851V117.857V117.863V117.868V117.874V117.879V117.885V117.891V117.896V117.902V117.907V117.913V117.919V117.924V117.93V117.935V117.941V117.946V117.952V117.958V117.963V117.969V117.974V117.98V117.986V117.991V117.997V118.002V118.008V118.014V118.019V118.025V118.03V118.036V118.042V118.047V118.053V118.058V118.064V118.07V118.075V118.081V118.086V118.092V118.098V118.103V118.109V118.114V118.12V118.126V118.131V118.137V118.142V118.148V118.154V118.159V118.165V118.17V118.176V118.181V118.187V118.193V118.198V118.204V118.209V118.215V118.221V118.226V118.232V118.237V118.243V118.249V118.254V118.26V118.265V118.271V118.277V118.282V118.288V118.293V118.299V118.305V118.31V118.316V118.321V118.327V118.333V118.338V118.344V118.349V118.355V118.361V118.366V118.372V118.377V118.383V118.388V118.394V118.4V118.405V118.411V118.416V118.422V118.428V118.433V118.439V118.444V118.45V118.456V118.461V118.467V118.472V118.478V118.484V118.489V118.495V118.5V118.506V118.512C68.7817 118.609 68.7798 118.697 68.7743 118.77C68.7716 118.806 68.7671 118.853 68.7578 118.903C68.7532 118.927 68.7452 118.965 68.7311 119.008C68.72 119.042 68.6902 119.127 68.6231 119.217C68.5569 119.306 68.3747 119.498 68.064 119.498C67.7787 119.499 67.6055 119.333 67.5518 119.275C67.4491 119.165 67.4049 119.044 67.3968 119.022L67.3959 119.019C67.3671 118.942 67.3476 118.857 67.3351 118.798C67.2805 118.542 67.2123 118.063 67.1438 117.528C67.0042 116.439 66.8475 114.988 66.7773 114.258C66.3052 109.348 66.4061 104.295 66.5047 99.361V99.361V99.3609L66.5047 99.3571V99.3569C66.5278 98.1999 66.5508 97.0493 66.5662 95.9086C66.5894 94.1976 66.8988 92.5368 67.196 90.9416L67.196 90.9415L67.2187 90.8196C67.2799 90.4908 67.3403 90.1646 67.3978 89.8402V89.7709V89.6877V89.6045V89.5213V89.4381V89.3549V89.2717V89.1885V89.1053V89.022V88.9389V88.8556V88.7724V88.6892V88.606V88.5228V88.4396V88.3564V88.2732V88.19V88.1068V88.0236V87.9404V87.8572V87.774V87.6908V87.6076V87.5244V87.4412V87.358V87.2748V87.1916V87.1084V87.0252V86.942V86.8588V86.7756V86.6924V86.6092V86.526V86.4428V86.3596V86.2764V86.1932V86.1099V86.0267V85.9435V85.8603V85.7771V85.6939V85.6107V85.5275V85.4443V85.3611V85.2779V85.1947V85.1115V85.0283V84.9451V84.8619V84.7787V84.6955V84.6123V84.5291V84.4459V84.3627V84.2795V84.1963V84.1131V84.0299V83.9467V83.8635V83.7803V83.6971V83.6139V83.5307V83.4475V83.3643V83.2811V83.1979V83.1146V83.0314V82.9482V82.865V82.7818V82.6986V82.6154V82.5322V82.449V82.3658V82.2826V82.1994V82.1162V82.033V81.9498V81.8666V81.7834V81.7002V81.617V81.5338V81.4506V81.3674V81.2842V81.201V81.1178V81.0346V80.9514V80.8682V80.785V80.7018V80.6186V80.5354V80.4522V80.369V80.2858V80.2026V80.1193V80.0361V79.9529V79.8697V79.7865V79.7033V79.6201V79.5369V79.4537V79.3705V79.2873V79.2041V79.1209V79.0377V78.9545V78.8713V78.7881V78.7049V78.6217V78.5385V78.4553V78.3721V78.2889V78.2057V78.1225V78.0393V77.9561V77.8729V77.7897V77.7065V77.6233V77.5401V77.4569V77.3737V77.2905V77.2072V77.124V77.0408V76.9576V76.8744V76.7912V76.708V76.6248V76.5416V76.4584V76.3752V76.292V76.2088V76.1256V76.0424V75.9592V75.876V75.7928V75.7096V75.6264V75.5432V75.46V75.3768V75.2936V75.2104V75.1272V75.044V74.9608V74.8776V74.7944V74.7112V74.628V74.5448V74.4616V74.3783V74.2952V74.2119V74.1287V74.0455V73.9623V73.8791V73.7959V73.7127V73.6295V73.5463V73.4631V73.3799V73.2967V73.2135V73.1303V73.0471C67.3978 72.665 67.7076 72.3552 68.0898 72.3552C68.4719 72.3552 68.7817 72.665 68.7817 73.0471V73.1303V73.2135V73.2967V73.3799V73.4631V73.5463V73.6295V73.7127V73.7959V73.8791V73.9623V74.0455V74.1287V74.2119V74.2952V74.3783V74.4616V74.5448V74.628V74.7112V74.7944V74.8776V74.9608V75.044V75.1272V75.2104V75.2936V75.3768V75.46V75.5432V75.6264V75.7096V75.7928V75.876V75.9592V76.0424V76.1256V76.2088V76.292V76.3752V76.4584V76.5416V76.6248V76.708V76.7912V76.8744V76.9576V77.0408V77.124V77.2072V77.2905V77.3737V77.4569V77.5401V77.6233V77.7065V77.7897V77.8729V77.9561V78.0393V78.1225V78.2057V78.2889V78.3721V78.4553V78.5385V78.6217V78.7049V78.7881V78.8713V78.9545V79.0377V79.1209V79.2041V79.2873V79.3705V79.4537V79.5369V79.6201V79.7033V79.7865V79.8697V79.9529V80.0361V80.1193V80.2026V80.2858V80.369V80.4522V80.5354V80.6186V80.7018V80.785V80.8682V80.9514V81.0346V81.1178V81.201V81.2842V81.3674V81.4506V81.5338V81.617V81.7002V81.7834V81.8666V81.9498V82.033V82.1162V82.1994V82.2826V82.3658V82.449V82.5322V82.6154V82.6986V82.7818V82.865V82.9482V83.0314V83.1146V83.1979V83.2811V83.3643V83.4475V83.5307V83.6139V83.6971V83.7803V83.8635V83.9467V84.0299V84.1131V84.1963V84.2319C68.856 84.2262 68.9377 84.2318 69.025 84.2554C69.2941 84.3284 69.4266 84.524 69.476 84.6122C69.5305 84.7098 69.5563 84.8041 69.5699 84.864C69.5981 84.9886 69.6089 85.1304 69.6131 85.2708C69.657 86.7644 69.8118 88.2208 69.9711 89.7202L69.9714 89.7229L69.9719 89.7271C70.0213 90.1922 70.0711 90.6613 70.1182 91.137C70.5625 95.624 71.5837 100.466 73.6381 104.625C73.6501 103.854 73.7066 102.876 73.9588 102.071C74.1336 101.512 74.4382 100.913 75.0045 100.56C75.5304 100.233 76.1523 100.194 76.8234 100.393C76.4317 98.8291 76.0545 97.2809 75.6875 95.7565C72.8345 83.9053 70.8866 71.6083 69.5974 59.4862C67.402 60.2085 65.2036 60.9209 63.0019 61.6221C63.0664 68.9057 63.2284 76.1828 63.6305 83.4508C63.9452 89.1401 64.4768 94.813 65.0099 100.502L65.128 101.762C65.699 107.868 66.2531 113.993 66.5186 120.145C66.819 127.103 67.1037 134.572 65.7575 141.491C64.4068 148.432 61.4066 154.866 55.1148 159.719C49.1523 164.317 41.2603 166.846 33.6636 166.622C26.059 166.397 18.6958 163.407 13.8922 156.902C6.98413 147.547 4.12987 136.23 2.1931 125.122C0.815532 117.221 -0.40601 108.764 0.128235 100.631C0.194754 99.6189 0.350299 98.8139 0.604642 98.2067C0.860826 97.5951 1.24738 97.1184 1.80438 96.899C2.35549 96.6819 2.92332 96.7763 3.41634 96.9775C3.90949 97.1787 4.40107 97.515 4.86727 97.9035C6.36405 99.1508 7.97404 101.273 8.9954 102.62C9.22462 102.922 9.42418 103.185 9.58617 103.39C9.96558 103.871 10.3399 104.369 10.7198 104.875L10.7199 104.876L10.72 104.876C11.3584 105.726 12.0128 106.597 12.7346 107.443C13.8641 108.767 15.0651 109.909 16.4018 110.582C16.4103 110.585 16.4317 110.59 16.4699 110.597C16.5395 110.61 16.6332 110.622 16.7443 110.631C16.8676 110.64 16.9999 110.644 17.128 110.644C17.1363 110.622 17.1458 110.6 17.1566 110.578C17.3275 110.237 17.7431 110.098 18.0849 110.269C18.2276 110.34 18.4381 110.459 18.5785 110.654C18.6596 110.767 18.7493 110.952 18.7289 111.186C18.7082 111.424 18.5853 111.592 18.4812 111.689C18.3051 111.854 18.0839 111.916 17.977 111.943C17.8386 111.977 17.6877 111.997 17.5444 112.01C17.2557 112.034 16.9263 112.032 16.6387 112.01C16.494 111.999 16.3498 111.982 16.2196 111.958C16.1045 111.937 15.9447 111.901 15.8027 111.83C14.2106 111.034 12.8591 109.721 11.6818 108.341C10.9395 107.471 10.2279 106.525 9.56682 105.645C9.19382 105.149 8.83692 104.675 8.4997 104.247C8.30968 104.006 8.08677 103.713 7.83859 103.387L7.83827 103.386L7.83813 103.386C6.80694 102.029 5.33962 100.098 3.98135 98.9666C3.56803 98.6222 3.20118 98.3843 2.89343 98.2587C2.58554 98.1331 2.40997 98.1478 2.31159 98.1865C2.21911 98.223 2.0501 98.3377 1.88105 98.7413C1.71015 99.1493 1.57078 99.7835 1.50911 100.722C0.986595 108.676 2.18025 116.992 3.55638 124.884C5.48614 135.952 8.29869 146.997 15.0054 156.08C19.5055 162.174 26.4303 165.024 33.7045 165.239C40.9868 165.454 48.5646 163.023 54.2697 158.623C60.2253 154.029 63.0936 147.936 64.3991 141.227C65.709 134.494 65.4375 127.188 65.1361 120.205C64.8722 114.091 64.3213 107.999 63.7502 101.891L63.6316 100.625C63.099 94.9422 62.565 89.244 62.2487 83.5273C61.8531 76.3756 61.6892 69.2163 61.622 62.0601C57.9525 63.2203 54.2737 64.3489 50.584 65.44L50.0011 65.6125C42.5062 67.8302 34.5113 70.196 26.5192 70.412C26.1372 70.4223 25.8191 70.121 25.8088 69.739C25.7985 69.357 26.0998 69.0389 26.4818 69.0286C34.2896 68.8176 42.1322 66.4973 49.6805 64.2641L50.1916 64.113C54.0093 62.984 57.8147 61.8151 61.6097 60.6126C61.5741 55.9586 61.5756 51.3062 61.5771 46.6582V46.6582V46.6581C61.5774 45.7206 61.5777 44.7833 61.5777 43.8462V43.7619V43.6777V43.5934V43.5091V43.4248V43.3405V43.2562V43.1719V43.0877V43.0034V42.9191V42.8348V42.7505V42.6662V42.5819V42.4977V42.4134V42.3291V42.2448V42.1605V42.0762V41.9919V41.9076V41.8234V41.7391V41.6548V41.5705V41.4862V41.4019V41.3176V41.2334V41.1491V41.0648V40.9805V40.8962V40.8119V40.7276V40.6434V40.5591V40.4748V40.3905V40.3062V40.2219V40.1376V40.0534V39.9691V39.8848V39.8005V39.7162V39.6319V39.5476V39.4634V39.3791V39.2948V39.2105V39.1262V39.0419V38.9576V38.8734V38.7891V38.7048V38.6205V38.5362V38.4519V38.3676V38.2834V38.1991V38.1148V38.0305V37.9462V37.8619V37.7776V37.6934V37.6091V37.5248V37.4405V37.3562V37.2719V37.1876V37.1034V37.0191V36.9348V36.8505V36.7662V36.6819V36.5976V36.5134V36.4291V36.3448V36.2605V36.1762V36.0919V36.0076V35.9234V35.8391V35.7548V35.6705V35.5862V35.5019V35.4176V35.3334V35.2491V35.1648V35.0805V34.9962V34.9119V34.8276V34.7434V34.6591V34.5748V34.4905V34.4062V34.3219V34.2376V34.1534V34.0691V33.9848V33.9005V33.8162V33.7319V33.6476V33.5634V33.4791V33.3948V33.3105V33.2262V33.1419V33.0576V32.9734V32.8891V32.8048V32.7205V32.6362V32.5519V32.4676V32.3834V32.2991V32.2148V32.1305V32.0462V31.9619V31.8776V31.7934V31.7091V31.6248V31.5405V31.4562V31.3719V31.2876V31.2034V31.1191V31.0348V30.9505V30.8662V30.7819V30.6976V30.6134V30.5291V30.4448V30.3605V30.2762V30.1919V30.1076V30.0234V29.9391V29.8548V29.7705V29.6862V29.6019V29.5176V29.4334V29.3491V29.2648V29.1805V29.0962V29.0119V28.9276V28.8434V28.7591V28.6748V28.5905V28.5062V28.4219V28.3376V28.2534V28.1691V28.0848V28.0005V27.9162V27.8319V27.7476V27.6634V27.5791V27.4948V27.4105V27.3262V27.2419V27.1576V27.0734V26.9891V26.9048V26.8205V26.7362V26.6519V26.5676V26.4834V26.3991V26.3148V26.2305V26.1462V26.0619V25.9776V25.8934V25.8091V25.7248V25.6405V25.5562V25.4719V25.3876V25.3034V25.2191V25.1348V25.0505V24.9662V24.8819V24.7976V24.7134V24.6291V24.5448V24.4605V24.3762V24.2919V24.2076V24.1234V24.0391V23.9548V23.8705V23.7862V23.7019V23.6176V23.5334V23.4491V23.3648V23.2805V23.1962V23.1119V23.0276V22.9434V22.8591V22.7748V22.6905V22.6062V22.5219V22.4376V22.3534V22.2691V22.1848V22.1005V22.0162V21.9319V21.8476V21.7634V21.6791V21.5948V21.5105V21.4262V21.3419V21.2576V21.1734V21.0891V21.0048V20.9205V20.8362V20.7519V20.6676V20.5834V20.4991V20.4148V20.3305V20.2462V20.1619V20.0776V19.9934V19.9091V19.8248V19.7405V19.6562V19.5719V19.4876V19.4034V19.3191V19.2348V19.1505V19.0662V18.9819V18.8976V18.8134V18.7291V18.6448V18.5605V18.4762V18.3919V18.3076V18.2234V18.1391V18.0548V17.9705V17.8862V17.8019V17.7176V17.6334V17.5491V17.4648V17.3805V17.2962V17.2119V17.1276V17.0434V16.9591V16.8748V16.7905V16.7062V16.6219V16.5376V16.4534V16.3691V16.2848V16.2005V16.1162V16.0319V15.9476V15.8634V15.7791V15.6948V15.6105V15.5262V15.4419V15.3576V15.2734V15.1891V15.1048V15.0205V14.9362V14.8519V14.7676V14.6834V14.5991V14.5148V14.4305V14.3462V14.2619V14.1776V14.0934V14.0091V13.9248V13.8405V13.7562V13.6719V13.5876V13.5034V13.4191V13.3348V13.2505V13.1662V13.0819V12.9976V12.9134V12.8291V12.7448V12.6605V12.5762V12.4919V12.4076V12.3234V12.2391V12.1548V12.0705V11.9862V11.9019V11.8176V11.7334V11.6491V11.5648V11.4805V11.3962V11.3119V11.2276V11.1434V11.0591V10.9748V10.8905V10.8062V10.7219V10.6376V10.5534V10.4691V10.3848V10.3005V10.2162V10.1319V10.0476V9.96336V9.87907V9.79478V9.7105V9.62621V9.54193V9.45764V9.37336V9.28907V9.20478V9.1205V9.03621V8.95193V8.86764V8.78336V8.69907V8.61478V8.5305V8.44621V8.36193V8.27764V8.19336V8.10907V8.02478V7.9405V7.85621V7.77193V7.68764V7.60336V7.51907V7.43478V7.3505V7.26621V7.18193V7.09764V7.01336V6.92907V6.84478V6.7605V6.67621V6.59193V6.50764V6.42336V6.33907V6.25478V6.1705V6.08621V6.00193V5.91764V5.83335V5.74907V5.66478V5.5805V5.49621V5.41193V5.32764V5.24335V5.15907V5.07478V4.9905V4.90621V4.82193V4.73764V4.65335V4.56907V4.48478V4.4005V4.31621V4.23193V4.14764V4.06335V3.97907V3.89478V3.8105V3.72621V3.64193V3.55764V3.47335V3.38907V3.30478V3.2205V3.13621V3.05193V2.96764V2.88335V2.79907V2.71478V2.6305V2.54621V2.46193V2.37764V2.29335V2.20907V2.12478V2.0405V1.95621V1.87193V1.78764V1.70335V1.61907V1.53478V1.4505V1.36621V1.28192V1.19764V1.11335V1.02907V0.944782V0.860496V0.776211V0.691925C61.5777 0.309785 61.8875 0 62.2697 0ZM71.3021 58.9233C72.3821 63.3833 74.2013 67.7981 75.9843 72.125L75.9845 72.1256L75.9864 72.1302C76.4154 73.1713 76.8424 74.2075 77.2564 75.2379C77.6689 76.2645 78.0784 77.2935 78.4879 78.3227C79.6398 81.2171 80.7925 84.1137 82.0153 86.9668C82.1556 85.3719 82.3022 83.7741 82.4638 82.1722C82.643 80.395 82.8246 78.6183 83.0063 76.842L83.0068 76.8372L83.0072 76.8324C83.4378 72.6222 83.8681 68.4139 84.2651 64.2051C83.3899 61.2788 82.4963 58.3585 81.5886 55.442C78.166 56.6224 74.7376 57.7845 71.3021 58.9233ZM82.8972 54.9897C83.4715 56.8347 84.0403 58.6816 84.6024 60.5308C84.7899 58.4256 84.9666 56.3201 85.1285 54.214C84.385 54.4734 83.6412 54.7319 82.8972 54.9897ZM85.2415 52.7091C85.658 47.0315 85.9593 41.349 86.0643 35.6555C86.0884 34.3489 86.1576 32.9488 86.2299 31.4892L86.2299 31.489C86.3648 28.7615 86.5101 25.8266 86.3898 22.9071C86.206 18.4445 85.399 14.2563 83.0906 11.281C81.4383 9.1513 78.6815 8.46098 76.2085 9.03183C73.7426 9.60105 71.6962 11.3879 71.3639 14.0834C71.0766 16.4138 71.4294 18.8165 72.0543 21.2286C72.5041 22.9651 73.0827 24.6661 73.6516 26.3386L73.6516 26.3386L73.6517 26.3389L73.6518 26.3392L73.6519 26.3395C73.8773 27.0023 74.1012 27.6606 74.315 28.3149L74.5828 29.1343L74.5828 29.1345L74.5829 29.1346C77.2539 37.3091 79.9211 45.4721 82.4848 53.6682C83.4041 53.3498 84.323 53.03 85.2415 52.7091ZM17.6602 110.595C17.6679 110.592 17.6724 110.591 17.6727 110.591C17.673 110.591 17.6692 110.592 17.6602 110.595ZM85.3144 67.7477C85.0127 70.8255 84.6982 73.9009 84.3839 76.9739L84.383 76.9824L84.3822 76.9909C84.2007 78.7651 84.0194 80.5384 83.8406 82.3111C83.5969 84.7282 83.3851 87.1653 83.1758 89.609C83.4492 90.2151 83.7268 90.8185 84.0093 91.4188C84.0798 91.5686 84.161 91.7473 84.252 91.9473C84.5437 92.5886 84.9351 93.4492 85.3901 94.2784C85.6868 94.8191 85.9976 95.3216 86.307 95.7181C86.4656 95.9214 86.6107 96.0795 86.7396 96.1976C86.8348 95.7256 86.8738 95.0111 86.8842 94.1973C86.891 93.6639 86.8857 93.1222 86.8807 92.6082C86.878 92.3304 86.8753 92.0606 86.8747 91.8046C86.8739 91.4479 86.8771 91.1171 86.8914 90.8467C86.8985 90.7115 86.9088 90.5817 86.9246 90.4657C86.9389 90.3606 86.9631 90.2222 87.0146 90.0934C87.1321 89.7998 87.3855 89.7001 87.5103 89.6722C87.6277 89.646 87.7234 89.6567 87.759 89.6613C87.8399 89.6718 87.9052 89.6943 87.9298 89.703C87.9923 89.7249 88.0569 89.7543 88.1088 89.779C88.22 89.8319 88.3656 89.9082 88.526 89.9952C88.8505 90.1711 89.2762 90.4128 89.6985 90.6559C90.1219 90.8995 90.5471 91.1475 90.8716 91.3368L90.903 91.3552L90.9197 91.3649C91.0613 91.4475 91.1809 91.5173 91.2702 91.5691C91.314 91.5945 91.345 91.6123 91.3658 91.6243L91.3662 91.6244C91.4037 91.646 91.4078 91.6483 91.3932 91.6415C91.5176 91.6999 91.6425 91.7575 91.7679 91.8144C91.2396 89.6004 90.6952 87.3906 90.1287 85.1861C88.6255 79.3356 87.0094 73.5283 85.3144 67.7477ZM92.1662 93.4967C91.7072 93.3052 91.2534 93.1045 90.8053 92.8943C90.76 92.873 90.6674 92.8193 90.5925 92.7758L90.5923 92.7757L90.5759 92.7662C90.4747 92.7075 90.3361 92.6266 90.1742 92.5321C89.8495 92.3427 89.4276 92.0966 89.0082 91.8553C88.7482 91.7056 88.491 91.5589 88.2597 91.4291C88.2589 91.5094 88.2585 91.5936 88.2585 91.6814C88.2585 91.7207 88.2585 91.7607 88.2586 91.8014C88.2591 92.036 88.2616 92.2945 88.2643 92.5662L88.2643 92.5691C88.2694 93.094 88.2749 93.6681 88.2679 94.215C88.2573 95.0407 88.2185 95.8866 88.0895 96.5036C88.0286 96.7952 87.9279 97.1415 87.7239 97.4008C87.6125 97.5424 87.4423 97.6936 87.1995 97.7621C86.9496 97.8327 86.7127 97.7904 86.5213 97.7053C86.0151 97.4804 85.5772 97.0324 85.216 96.5694C84.8423 96.0905 84.4909 95.5164 84.1769 94.9441C83.6935 94.0631 83.2679 93.1271 82.9763 92.4855L82.9762 92.4854L82.9761 92.4852L82.9365 92.3982C82.6588 95.6078 82.3659 98.8201 81.9912 102.005L81.962 102.255C81.8285 103.393 81.6852 104.615 81.4624 105.828C81.6548 106.907 81.6892 108.061 81.6725 109.235C81.66 110.109 81.5365 110.84 81.2804 111.406C83.2101 117.712 85.5244 123.906 88.496 129.465C88.4665 129.126 88.4288 128.802 88.4021 128.572C88.2648 127.391 88.1613 126.232 88.059 125.085L88.0589 125.084C87.8527 122.774 87.6511 120.515 87.1869 118.234L87.0623 117.622C86.0724 112.761 85.0839 107.908 84.5435 102.923C84.5411 102.901 84.5354 102.861 84.5276 102.805L84.5275 102.805C84.4886 102.528 84.3982 101.887 84.4117 101.367C84.416 101.202 84.4305 101.024 84.4664 100.855C84.5005 100.694 84.565 100.484 84.7056 100.3C84.8654 100.09 85.1173 99.9267 85.4416 99.9168C85.7252 99.9081 85.9714 100.021 86.1573 100.139C89.8185 102.469 92.5942 105.207 94.9642 108.947C95.3335 109.53 95.6819 110.123 96.0119 110.724L95.8428 109.948L95.4585 108.184C94.3891 103.278 93.3129 98.3779 92.1662 93.4967ZM80.5943 102.035L80.5944 102.035L80.6169 101.844C81.0713 97.9809 81.4009 94.1235 81.7315 90.2541L81.7662 89.8483C80.1407 86.219 78.6611 82.5009 77.1958 78.8185L77.1945 78.8152L77.1941 78.8143C76.7867 77.7905 76.3804 76.7695 75.9723 75.7539C75.5681 74.7479 75.1476 73.728 74.7222 72.6963L74.7218 72.6953C73.6446 70.0831 72.536 67.3947 71.5816 64.662C72.8459 74.9955 74.6128 85.3798 77.0329 95.4326C77.4847 97.3093 77.9509 99.2171 78.4394 101.141C79.321 101.68 79.9812 102.344 80.4657 103.112C80.5102 102.751 80.5524 102.392 80.5943 102.035ZM79.0468 103.495C79.3154 103.842 79.5253 104.218 79.6909 104.619C79.8466 104.996 79.9651 105.4 80.054 105.83C80.0029 106.094 79.9478 106.357 79.8878 106.616C79.5993 105.574 79.3194 104.533 79.0468 103.495ZM77.2455 102.061C77.0494 101.963 76.8405 101.87 76.6177 101.784C76.0967 101.581 75.855 101.661 75.7362 101.735C75.5813 101.831 75.4137 102.055 75.2795 102.484C75.0184 103.318 75.0188 104.461 75.0192 105.301L75.0192 105.39C75.0192 106.374 75.2173 107.171 75.5983 107.844C75.9803 108.519 76.5714 109.114 77.4248 109.657C77.7244 109.848 78.0641 109.82 78.4778 109.523C78.7114 109.355 78.9233 109.127 79.0909 108.889C78.4343 106.604 77.8234 104.32 77.2455 102.061ZM79.5443 110.441C79.4607 110.514 79.3741 110.583 79.2849 110.647C79.0823 110.792 78.8538 110.92 78.6078 111.013C79.0107 111.242 79.3104 111.308 79.5047 111.292C79.5934 111.285 79.6817 111.26 79.7687 111.191C79.6933 110.941 79.6185 110.691 79.5443 110.441ZM169.043 61.6263C169.117 61.7116 169.185 61.8064 169.241 61.9117C169.334 62.0886 169.386 62.2467 169.42 62.3752C176.146 62.3742 182.654 60.4817 189.191 58.5806C190.944 58.0707 192.7 57.5603 194.462 57.0856C196.859 56.4396 199.233 55.9186 201.742 55.7571C201.604 55.7148 201.464 55.6731 201.321 55.6317C201.083 55.5626 200.838 55.4941 200.59 55.4248L200.586 55.4238C199.818 55.2092 199.026 54.9881 198.36 54.7236C196.328 53.9168 194.338 53.0704 192.358 52.2285L192.358 52.2285C188.393 50.5423 184.471 48.8742 180.343 47.5791C179.722 47.3845 179.087 47.1809 178.441 46.9738L178.439 46.973L178.438 46.973L178.438 46.9729C174.97 45.8612 171.186 44.6484 167.658 44.1687C167.765 44.2469 167.872 44.3262 167.974 44.4058C168.346 44.6933 168.758 45.0491 168.988 45.4261C171.227 49.0892 170.789 53.7024 170.095 57.4857C169.836 58.9017 169.481 60.2821 169.043 61.6263Z" fill="#CBCBCB"/>
</svg>
