<svg width="228" height="56" viewBox="0 0 228 56" fill="none" xmlns="http://www.w3.org/2000/svg">
<g clip-path="url(#clip0_1709_218)">
<path d="M68.3542 34.033H53.021C43.7784 34.033 36.2524 26.3958 36.2524 17.0165C36.2524 7.63726 43.7881 0 53.0307 0H68.3639V5.43269H53.0307C46.7364 5.43269 41.6157 10.6292 41.6157 17.0165C41.6157 23.4039 46.7364 28.6003 53.0307 28.6003H62.9522L62.8358 16.6327L68.3542 16.5736V34.0232V34.033Z" fill="#0A0A0A"/>
<path d="M15.3332 34.033H0V28.6003H15.3332C21.6275 28.6003 26.7482 23.4039 26.7482 17.0165C26.7482 10.6292 21.6275 5.43269 15.3332 5.43269H5.40202L5.5184 17.4004L0 17.4594V0H15.3332C24.5758 0 32.1017 7.63726 32.1017 17.0165C32.1017 26.3958 24.5758 34.033 15.3332 34.033Z" fill="#0A0A0A"/>
<path d="M98.526 34.1708H75.5796V0H80.9331V28.748H98.526V34.1708Z" fill="#0A0A0A"/>
<path d="M125.354 34.1762H120V2.72168C120 1.57019 120.718 0.536795 121.794 0.152963C122.871 -0.230868 124.064 0.123438 124.772 1.03873L143.519 23.3305V0.271065H148.872V31.1449C148.872 32.2964 148.154 33.3298 147.078 33.7136C146.001 34.0974 144.809 33.7333 144.101 32.8278L125.354 10.5361V34.1762Z" fill="#0A0A0A"/>
<path d="M111.532 0H106.178V34.1708H111.532V0Z" fill="#0A0A0A"/>
<path d="M185.162 34.033H173.049C164.184 34.033 156.969 26.3958 156.969 17.0165C156.969 7.63726 164.184 0 173.058 0H185.172V5.1768H173.058C167.016 5.1768 162.109 10.4815 162.109 17.0067C162.109 23.5318 167.026 28.8366 173.058 28.8366H185.172V34.0134L185.162 34.033Z" fill="#0A0A0A"/>
<path d="M185.172 14.4282H167.026V19.605H185.172V14.4282Z" fill="#0A0A0A"/>
<path d="M209.078 0.157471V5.49174H222.743V28.8464H199.622V14.0344V5.49174V0.157471H194.366V34.033H228V0.157471H209.078Z" fill="#FBD500"/>
<path d="M0.135742 53.2738V44.3079H5.62504V45.5282H1.40623V48.0281H4.083V49.2485H1.40623V52.0337H5.8869V53.2738H0.135742Z" fill="#0A0A0A"/>
<path d="M7.58398 53.2736V46.7288H8.83508V47.3783C9.03875 47.1027 9.28121 46.9059 9.55276 46.7681C9.83402 46.6402 10.1541 46.5713 10.5129 46.5713C11.2694 46.5713 11.8416 46.8075 12.2295 47.2799C12.6175 47.7523 12.8017 48.4609 12.8017 49.4057V53.2736H11.5506V49.4353C11.5506 48.8841 11.4343 48.4708 11.2209 48.1853C10.9978 47.8999 10.6778 47.7621 10.251 47.7621C9.77583 47.7621 9.42668 47.8999 9.19392 48.1755C8.96116 48.4511 8.84478 48.8644 8.84478 49.4156V53.2736H7.59368H7.58398Z" fill="#0A0A0A"/>
<path d="M17.0306 55.9999L16.3905 54.9764C16.9821 54.937 17.4476 54.8583 17.8064 54.75C18.1653 54.6319 18.4174 54.4744 18.5823 54.2678C18.7375 54.0611 18.8248 53.7954 18.8248 53.4706V52.7226C18.4562 53.195 17.9325 53.4312 17.2536 53.4312C16.7105 53.4312 16.245 53.2934 15.8474 53.008C15.4497 52.7226 15.1394 52.3289 14.926 51.8172C14.7126 51.3054 14.606 50.6952 14.606 50.0063C14.606 49.3173 14.7126 48.7071 14.9357 48.1954C15.1588 47.6836 15.4691 47.2899 15.8668 47.0045C16.2644 46.7191 16.7396 46.5813 17.2924 46.5813C17.6028 46.5813 17.8937 46.6403 18.1556 46.7486C18.4174 46.8569 18.6502 47.0143 18.8248 47.2112V46.7289H20.0759V52.9588C20.0759 53.4607 20.0177 53.8938 19.9013 54.2678C19.7849 54.6319 19.6006 54.937 19.3582 55.1831C19.1157 55.4291 18.7957 55.6161 18.4077 55.7539C18.0295 55.8818 17.564 55.9704 17.0306 55.9999ZM17.4864 52.2305C17.7385 52.2305 17.9907 52.1518 18.2332 52.014C18.4756 51.8664 18.6696 51.6695 18.8151 51.4235V48.5497C18.6793 48.3233 18.4853 48.1363 18.2332 47.9887C17.981 47.841 17.7288 47.7722 17.4864 47.7722C16.953 47.7722 16.5553 47.9592 16.2741 48.343C15.9928 48.7268 15.8571 49.278 15.8571 49.9964C15.8571 50.4491 15.9249 50.8526 16.051 51.1873C16.1868 51.5219 16.3711 51.7778 16.6135 51.9549C16.856 52.1321 17.1469 52.2207 17.4767 52.2207L17.4864 52.2305Z" fill="#0A0A0A"/>
<path d="M22.7525 45.6659C22.5391 45.6659 22.3646 45.5872 22.2094 45.4396C22.0639 45.2919 21.9863 45.1049 21.9863 44.8884C21.9863 44.6719 22.0639 44.4849 22.2094 44.3274C22.3549 44.17 22.5391 44.1011 22.7525 44.1011C22.9659 44.1011 23.1501 44.1798 23.3053 44.3274C23.4605 44.4751 23.5284 44.6621 23.5284 44.8884C23.5284 45.1148 23.4508 45.2919 23.3053 45.4396C23.1598 45.5872 22.9756 45.6659 22.7525 45.6659ZM22.1318 53.2737V46.7288H23.3829V53.2737H22.1318Z" fill="#0A0A0A"/>
<path d="M25.4487 53.2736V46.7288H26.6998V47.3783C26.9035 47.1027 27.146 46.9059 27.4175 46.7681C27.6988 46.6402 28.0188 46.5713 28.3777 46.5713C29.1341 46.5713 29.7063 46.8075 30.0943 47.2799C30.4822 47.7523 30.6665 48.4609 30.6665 49.4057V53.2736H29.4154V49.4353C29.4154 48.8841 29.299 48.4708 29.0856 48.1853C28.8626 47.8999 28.5425 47.7621 28.1158 47.7621C27.6406 47.7621 27.2914 47.8999 27.0587 48.1755C26.8259 48.4511 26.7095 48.8644 26.7095 49.4156V53.2736H25.4584H25.4487Z" fill="#0A0A0A"/>
<path d="M35.3505 53.4311C34.7492 53.4311 34.2352 53.2835 33.7988 52.9981C33.3623 52.7127 33.0326 52.3092 32.7998 51.7875C32.5671 51.2758 32.4507 50.6754 32.4507 50.0062C32.4507 49.2877 32.5671 48.6775 32.8095 48.1658C33.052 47.654 33.3914 47.2603 33.8279 46.9946C34.2643 46.7288 34.7686 46.5911 35.3602 46.5911C35.8548 46.5911 36.3107 46.6993 36.718 46.9158C37.1253 47.1324 37.4551 47.4768 37.6975 47.9296C37.94 48.3921 38.0661 48.9728 38.0661 49.6912C38.0661 49.7897 38.0661 49.9176 38.0661 50.0554C38.0661 50.203 38.0467 50.3408 38.0273 50.4983H33.7212C33.7503 50.8624 33.8376 51.1774 33.983 51.4529C34.1285 51.7285 34.3128 51.945 34.5455 52.0926C34.7783 52.2501 35.0596 52.319 35.3796 52.319C35.6609 52.319 35.9227 52.2698 36.1458 52.1714C36.3785 52.073 36.5919 51.9155 36.7956 51.699L37.523 52.4962C37.2708 52.7619 36.9604 52.9882 36.5919 53.1556C36.2234 53.3327 35.816 53.4115 35.3505 53.4115V53.4311ZM33.7115 49.4354H36.8247C36.8247 49.0909 36.7568 48.7858 36.6404 48.5201C36.524 48.2543 36.3591 48.0477 36.1458 47.9C35.9324 47.7524 35.6609 47.6737 35.3505 47.6737C34.9141 47.6737 34.5455 47.8114 34.2352 48.0969C33.9248 48.3823 33.7503 48.8252 33.7212 49.4255L33.7115 49.4354Z" fill="#0A0A0A"/>
<path d="M42.4501 53.4311C41.8488 53.4311 41.3348 53.2835 40.8984 52.9981C40.4619 52.7127 40.1322 52.3092 39.8994 51.7875C39.6667 51.2758 39.5503 50.6754 39.5503 50.0062C39.5503 49.2877 39.6667 48.6775 39.9091 48.1658C40.1516 47.654 40.491 47.2603 40.9275 46.9946C41.3639 46.7288 41.8682 46.5911 42.4598 46.5911C42.9544 46.5911 43.4103 46.6993 43.8176 46.9158C44.2249 47.1324 44.5547 47.4768 44.7971 47.9296C45.0396 48.3921 45.1657 48.9728 45.1657 49.6912C45.1657 49.7897 45.1657 49.9176 45.1657 50.0554C45.1657 50.203 45.1463 50.3408 45.1269 50.4983H40.8208C40.8499 50.8624 40.9372 51.1774 41.0826 51.4529C41.2281 51.7285 41.4124 51.945 41.6452 52.0926C41.8779 52.2501 42.1592 52.319 42.4792 52.319C42.7605 52.319 43.0223 52.2698 43.2454 52.1714C43.4782 52.073 43.6915 51.9155 43.8952 51.699L44.6226 52.4962C44.3704 52.7619 44.0601 52.9882 43.6915 53.1556C43.323 53.3327 42.9156 53.4115 42.4501 53.4115V53.4311ZM40.8014 49.4354H43.9146C43.9146 49.0909 43.8467 48.7858 43.7303 48.5201C43.6139 48.2543 43.4491 48.0477 43.2357 47.9C43.0223 47.7524 42.7508 47.6737 42.4404 47.6737C42.004 47.6737 41.6355 47.8114 41.3251 48.0969C41.0148 48.3823 40.8402 48.8252 40.8111 49.4255L40.8014 49.4354Z" fill="#0A0A0A"/>
<path d="M46.8725 53.2737V46.7289H48.1236V47.536C48.2594 47.2309 48.463 46.9947 48.7152 46.8273C48.9673 46.66 49.268 46.5813 49.588 46.5813C49.9954 46.5813 50.3445 46.7092 50.6355 46.9651L50.4512 48.1461C50.3057 48.0379 50.1506 47.9493 49.9954 47.9001C49.8402 47.8509 49.6753 47.8214 49.4911 47.8214C49.2098 47.8214 48.9673 47.8903 48.7637 48.0379C48.56 48.1855 48.4048 48.3922 48.2885 48.6579C48.1721 48.9237 48.1139 49.2484 48.1139 49.6126V53.2639H46.8628L46.8725 53.2737Z" fill="#0A0A0A"/>
<path d="M52.4683 45.6659C52.255 45.6659 52.0804 45.5872 51.9252 45.4396C51.7797 45.2919 51.7021 45.1049 51.7021 44.8884C51.7021 44.6719 51.7797 44.4849 51.9252 44.3274C52.0707 44.17 52.255 44.1011 52.4683 44.1011C52.6817 44.1011 52.866 44.1798 53.0211 44.3274C53.1763 44.4751 53.2442 44.6621 53.2442 44.8884C53.2442 45.1148 53.1666 45.2919 53.0211 45.4396C52.8757 45.5872 52.6914 45.6659 52.4683 45.6659ZM51.8476 53.2737V46.7288H53.0987V53.2737H51.8476Z" fill="#0A0A0A"/>
<path d="M55.1548 53.2736V46.7288H56.4059V47.3783C56.6095 47.1027 56.852 46.9059 57.1236 46.7681C57.4048 46.6402 57.7249 46.5713 58.0837 46.5713C58.8402 46.5713 59.4124 46.8075 59.8003 47.2799C60.1883 47.7523 60.3725 48.4609 60.3725 49.4057V53.2736H59.1214V49.4353C59.1214 48.8841 59.0051 48.4708 58.7917 48.1853C58.5686 47.8999 58.2486 47.7621 57.8218 47.7621C57.3466 47.7621 56.9975 47.8999 56.7647 48.1755C56.532 48.4511 56.4156 48.8644 56.4156 49.4156V53.2736H55.1645H55.1548Z" fill="#0A0A0A"/>
<path d="M64.6009 55.9999L63.9608 54.9764C64.5524 54.937 65.0179 54.8583 65.3767 54.75C65.7356 54.6319 65.9877 54.4744 66.1526 54.2678C66.3078 54.0611 66.3951 53.7954 66.3951 53.4706V52.7226C66.0265 53.195 65.5028 53.4312 64.8239 53.4312C64.2808 53.4312 63.8153 53.2934 63.4177 53.008C63.02 52.7226 62.7097 52.3289 62.4963 51.8172C62.283 51.3054 62.1763 50.6952 62.1763 50.0063C62.1763 49.3173 62.2829 48.7071 62.506 48.1954C62.7291 47.6836 63.0394 47.2899 63.4371 47.0045C63.8347 46.7191 64.3099 46.5813 64.8627 46.5813C65.1731 46.5813 65.464 46.6403 65.7259 46.7486C65.9877 46.8569 66.2205 47.0143 66.3951 47.2112V46.7289H67.6462V52.9588C67.6462 53.4607 67.588 53.8938 67.4716 54.2678C67.3552 54.6319 67.171 54.937 66.9285 55.1831C66.686 55.4291 66.366 55.6161 65.978 55.7539C65.5998 55.8818 65.1343 55.9704 64.6009 55.9999ZM65.0567 52.2305C65.3089 52.2305 65.561 52.1518 65.8035 52.014C66.0459 51.8664 66.2399 51.6695 66.3854 51.4235V48.5497C66.2496 48.3233 66.0556 48.1363 65.8035 47.9887C65.5513 47.841 65.2992 47.7722 65.0567 47.7722C64.5233 47.7722 64.1257 47.9592 63.8444 48.343C63.5631 48.7268 63.4274 49.278 63.4274 49.9964C63.4274 50.4491 63.4953 50.8526 63.6213 51.1873C63.7571 51.5219 63.9414 51.7778 64.1838 51.9549C64.4263 52.1321 64.7173 52.2207 65.047 52.2207L65.0567 52.2305Z" fill="#0A0A0A"/>
<path d="M72.8642 53.2738V44.3079H75.4634C76.2198 44.3079 76.8696 44.4358 77.3934 44.6917C77.9171 44.9476 78.3438 45.292 78.6735 45.7152C78.9936 46.1483 79.236 46.6207 79.3815 47.1521C79.527 47.6836 79.6046 48.2249 79.6046 48.7859C79.6046 49.2977 79.5367 49.8193 79.4009 50.3507C79.2651 50.8822 79.0324 51.3546 78.7123 51.7975C78.3923 52.2404 77.9656 52.5947 77.4224 52.8604C76.8793 53.1261 76.2101 53.2639 75.4052 53.2639H72.8545L72.8642 53.2738ZM74.1347 52.0632H75.5604C76.0744 52.0632 76.5108 51.9648 76.8599 51.7778C77.2091 51.581 77.4806 51.3349 77.694 51.0101C77.9074 50.6952 78.0528 50.3409 78.1401 49.9571C78.2274 49.5732 78.2759 49.1894 78.2759 48.8056C78.2759 48.3922 78.2274 47.9985 78.1304 47.6049C78.0334 47.2112 77.8783 46.8667 77.6746 46.5518C77.4612 46.2369 77.1994 45.9908 76.8696 45.8038C76.5496 45.6168 76.152 45.5282 75.6961 45.5282H74.1347V52.0731V52.0632Z" fill="#0A0A0A"/>
<path d="M82.0777 45.6659C81.8643 45.6659 81.6898 45.5872 81.5346 45.4396C81.3891 45.2919 81.3115 45.1049 81.3115 44.8884C81.3115 44.6719 81.3891 44.4849 81.5346 44.3274C81.6801 44.17 81.8643 44.1011 82.0777 44.1011C82.2911 44.1011 82.4753 44.1798 82.6305 44.3274C82.7857 44.4751 82.8536 44.6621 82.8536 44.8884C82.8536 45.1148 82.776 45.2919 82.6305 45.4396C82.485 45.5872 82.3008 45.6659 82.0777 45.6659ZM81.457 53.2737V46.7288H82.7081V53.2737H81.457Z" fill="#0A0A0A"/>
<path d="M86.8396 55.9999L86.1995 54.9764C86.7911 54.937 87.2567 54.8583 87.6155 54.75C87.9744 54.6319 88.2265 54.4744 88.3914 54.2678C88.5466 54.0611 88.6338 53.7954 88.6338 53.4706V52.7226C88.2653 53.195 87.7416 53.4312 87.0627 53.4312C86.5196 53.4312 86.0541 53.2934 85.6564 53.008C85.2588 52.7226 84.9485 52.3289 84.7351 51.8172C84.5217 51.3054 84.415 50.6952 84.415 50.0063C84.415 49.3173 84.5217 48.7071 84.7448 48.1954C84.9678 47.6836 85.2782 47.2899 85.6758 47.0045C86.0735 46.7191 86.5487 46.5813 87.1015 46.5813C87.4118 46.5813 87.7028 46.6403 87.9647 46.7486C88.2265 46.8569 88.4593 47.0143 88.6338 47.2112V46.7289H89.8849V52.9588C89.8849 53.4607 89.8268 53.8938 89.7104 54.2678C89.594 54.6319 89.4097 54.937 89.1673 55.1831C88.9248 55.4291 88.6048 55.6161 88.2168 55.7539C87.8386 55.8818 87.3731 55.9704 86.8396 55.9999ZM87.2955 52.2305C87.5476 52.2305 87.7998 52.1518 88.0422 52.014C88.2847 51.8664 88.4787 51.6695 88.6241 51.4235V48.5497C88.4884 48.3233 88.2944 48.1363 88.0422 47.9887C87.7901 47.841 87.5379 47.7722 87.2955 47.7722C86.7621 47.7722 86.3644 47.9592 86.0832 48.343C85.8019 48.7268 85.6661 49.278 85.6661 49.9964C85.6661 50.4491 85.734 50.8526 85.8601 51.1873C85.9959 51.5219 86.1802 51.7778 86.4226 51.9549C86.6651 52.1321 86.956 52.2207 87.2858 52.2207L87.2955 52.2305Z" fill="#0A0A0A"/>
<path d="M92.5713 45.6659C92.358 45.6659 92.1834 45.5872 92.0282 45.4396C91.8828 45.2919 91.8052 45.1049 91.8052 44.8884C91.8052 44.6719 91.8828 44.4849 92.0282 44.3274C92.1737 44.17 92.358 44.1011 92.5713 44.1011C92.7847 44.1011 92.969 44.1798 93.1242 44.3274C93.2793 44.4751 93.3472 44.6621 93.3472 44.8884C93.3472 45.1148 93.2696 45.2919 93.1242 45.4396C92.9787 45.5872 92.7944 45.6659 92.5713 45.6659ZM91.941 53.2737V46.7288H93.192V53.2737H91.941Z" fill="#0A0A0A"/>
<path d="M97.0716 53.4311C96.6061 53.4311 96.2569 53.2933 96.0145 53.0177C95.772 52.7422 95.6556 52.3387 95.6556 51.817V47.8508H94.647V46.7387H95.6556V44.6522L96.9067 44.042V46.7387H98.4488V47.8508H96.9067V51.4824C96.9067 51.758 96.9552 51.9548 97.0522 52.0828C97.1492 52.2107 97.3043 52.2796 97.5177 52.2796C97.8184 52.2796 98.1481 52.1713 98.4972 51.9548L98.3518 53.1457C98.1578 53.2441 97.9541 53.3228 97.7505 53.372C97.5468 53.4213 97.314 53.4409 97.0716 53.4409V53.4311Z" fill="#0A0A0A"/>
<path d="M101.862 53.4312C101.164 53.4312 100.611 53.2344 100.204 52.8407C99.8062 52.447 99.6025 51.9156 99.6025 51.2463C99.6025 50.8133 99.6995 50.4295 99.9032 50.1047C100.107 49.7799 100.388 49.5338 100.757 49.3567C101.125 49.1795 101.552 49.091 102.056 49.091C102.357 49.091 102.648 49.1205 102.919 49.1894C103.191 49.2484 103.443 49.3469 103.666 49.4748V49.0319C103.666 48.5693 103.559 48.2347 103.336 48.0084C103.113 47.7918 102.784 47.6836 102.337 47.6836C102.027 47.6836 101.707 47.7426 101.377 47.8607C101.048 47.9788 100.728 48.1363 100.417 48.343L100.049 47.2998C100.388 47.0734 100.776 46.8962 101.203 46.7683C101.63 46.6403 102.056 46.5813 102.483 46.5813C103.278 46.5813 103.88 46.7781 104.277 47.1816C104.675 47.5852 104.869 48.1855 104.869 48.9827V53.2737H103.666V52.6931C103.424 52.9293 103.152 53.1064 102.842 53.2344C102.531 53.3623 102.202 53.4214 101.862 53.4214V53.4312ZM102.085 52.3289C102.367 52.3289 102.648 52.26 102.929 52.1222C103.21 51.9845 103.453 51.7975 103.666 51.5514V50.5377C103.463 50.4196 103.239 50.3212 102.978 50.2523C102.716 50.1834 102.473 50.1539 102.241 50.1539C101.794 50.1539 101.445 50.2523 101.183 50.4491C100.922 50.646 100.795 50.9117 100.795 51.2463C100.795 51.5809 100.912 51.8368 101.135 52.0337C101.358 52.2305 101.678 52.3191 102.085 52.3191V52.3289Z" fill="#0A0A0A"/>
<path d="M106.809 53.2737V44.6227L108.06 44.0322V53.2737H106.809Z" fill="#0A0A0A"/>
<path d="M112.22 53.2738L115.421 44.3079H116.623L119.833 53.2738H118.505L117.768 51.1775H114.305L113.578 53.2738H112.22ZM114.693 50.026H117.351L116.294 47.0144C116.264 46.9356 116.235 46.8372 116.197 46.7388C116.167 46.6305 116.129 46.5321 116.1 46.4239C116.07 46.3254 116.041 46.2369 116.022 46.1581C116.003 46.2369 115.974 46.3254 115.944 46.4239C115.915 46.5223 115.877 46.6305 115.847 46.7388C115.818 46.8471 115.78 46.9356 115.75 47.0144L114.684 50.026H114.693Z" fill="#0A0A0A"/>
<path d="M123.373 55.9999L122.733 54.9764C123.325 54.937 123.79 54.8583 124.149 54.75C124.508 54.6319 124.76 54.4744 124.925 54.2678C125.08 54.0611 125.168 53.7954 125.168 53.4706V52.7226C124.799 53.195 124.275 53.4312 123.596 53.4312C123.053 53.4312 122.588 53.2934 122.19 53.008C121.792 52.7226 121.482 52.3289 121.269 51.8172C121.055 51.3054 120.949 50.6952 120.949 50.0063C120.949 49.3173 121.055 48.7071 121.278 48.1954C121.502 47.6836 121.812 47.2899 122.21 47.0045C122.607 46.7191 123.082 46.5813 123.635 46.5813C123.946 46.5813 124.236 46.6403 124.498 46.7486C124.76 46.8569 124.993 47.0143 125.168 47.2112V46.7289H126.419V52.9588C126.419 53.4607 126.36 53.8938 126.244 54.2678C126.128 54.6319 125.943 54.937 125.701 55.1831C125.458 55.4291 125.138 55.6161 124.751 55.7539C124.372 55.8818 123.907 55.9704 123.373 55.9999ZM123.819 52.2305C124.072 52.2305 124.324 52.1518 124.566 52.014C124.809 51.8664 125.003 51.6695 125.148 51.4235V48.5497C125.012 48.3233 124.818 48.1363 124.566 47.9887C124.314 47.841 124.062 47.7722 123.819 47.7722C123.286 47.7722 122.888 47.9592 122.607 48.343C122.326 48.7268 122.19 49.278 122.19 49.9964C122.19 50.4491 122.258 50.8526 122.384 51.1873C122.52 51.5219 122.704 51.7778 122.947 51.9549C123.189 52.1321 123.48 52.2207 123.81 52.2207L123.819 52.2305Z" fill="#0A0A0A"/>
<path d="M130.919 53.4311C130.318 53.4311 129.804 53.2835 129.367 52.9981C128.931 52.7127 128.601 52.3092 128.368 51.7875C128.135 51.2758 128.019 50.6754 128.019 50.0062C128.019 49.2877 128.135 48.6775 128.378 48.1658C128.62 47.654 128.96 47.2603 129.396 46.9946C129.833 46.7288 130.337 46.5911 130.929 46.5911C131.423 46.5911 131.879 46.6993 132.286 46.9158C132.694 47.1324 133.023 47.4768 133.266 47.9296C133.508 48.3921 133.634 48.9728 133.634 49.6912C133.634 49.7897 133.634 49.9176 133.634 50.0554C133.634 50.203 133.615 50.3408 133.596 50.4983H129.29C129.319 50.8624 129.406 51.1774 129.551 51.4529C129.697 51.7285 129.881 51.945 130.114 52.0926C130.347 52.2501 130.628 52.319 130.948 52.319C131.229 52.319 131.491 52.2698 131.714 52.1714C131.947 52.073 132.16 51.9155 132.364 51.699L133.091 52.4962C132.839 52.7619 132.529 52.9882 132.16 53.1556C131.792 53.3327 131.384 53.4115 130.919 53.4115V53.4311ZM129.27 49.4354H132.383C132.383 49.0909 132.315 48.7858 132.199 48.5201C132.083 48.2543 131.918 48.0477 131.704 47.9C131.491 47.7524 131.22 47.6737 130.909 47.6737C130.473 47.6737 130.104 47.8114 129.794 48.0969C129.484 48.3823 129.309 48.8252 129.28 49.4255L129.27 49.4354Z" fill="#0A0A0A"/>
<path d="M135.351 53.2736V46.7288H136.602V47.3783C136.806 47.1027 137.048 46.9059 137.32 46.7681C137.601 46.6402 137.921 46.5713 138.28 46.5713C139.036 46.5713 139.609 46.8075 139.997 47.2799C140.385 47.7523 140.569 48.4609 140.569 49.4057V53.2736H139.318V49.4353C139.318 48.8841 139.201 48.4708 138.988 48.1853C138.765 47.8999 138.445 47.7621 138.018 47.7621C137.543 47.7621 137.194 47.8999 136.961 48.1755C136.728 48.4511 136.612 48.8644 136.612 49.4156V53.2736H135.361H135.351Z" fill="#0A0A0A"/>
<path d="M145.088 53.4312C144.516 53.4312 144.031 53.2934 143.624 53.0179C143.217 52.7423 142.897 52.3486 142.673 51.8368C142.45 51.3251 142.344 50.7149 142.344 50.0063C142.344 49.2976 142.46 48.6874 142.683 48.1757C142.906 47.6639 143.226 47.2702 143.643 46.9947C144.06 46.7191 144.555 46.5813 145.137 46.5813C145.719 46.5813 146.233 46.7191 146.63 46.9947C147.038 47.2702 147.329 47.6836 147.513 48.215L146.33 48.6382C146.223 48.3627 146.068 48.1461 145.874 47.9985C145.67 47.8509 145.428 47.7722 145.156 47.7722C144.671 47.7722 144.303 47.969 144.031 48.3528C143.769 48.7367 143.634 49.2878 143.634 50.0063C143.634 50.7247 143.76 51.2463 144.022 51.64C144.283 52.0238 144.652 52.2207 145.117 52.2207C145.428 52.2207 145.69 52.1419 145.913 51.9746C146.136 51.8073 146.291 51.5711 146.378 51.2562L147.561 51.64C147.397 52.2207 147.096 52.6635 146.669 52.9686C146.243 53.2737 145.719 53.4312 145.088 53.4312Z" fill="#0A0A0A"/>
<path d="M150.015 55.7637L150.995 53.136L148.599 46.7388H149.87L151.402 50.9806C151.45 51.0889 151.489 51.1873 151.518 51.2857C151.547 51.3841 151.577 51.4924 151.606 51.6105C151.635 51.4924 151.674 51.394 151.703 51.2955C151.732 51.1971 151.77 51.0987 151.809 50.9806L153.371 46.7388H154.661L151.295 55.7637H150.015Z" fill="#0A0A0A"/>
</g>
<defs>
<clipPath id="clip0_1709_218">
<rect width="228" height="56" fill="white"/>
</clipPath>
</defs>
</svg>
