<svg width="138" height="37" viewBox="0 0 138 37" fill="none" xmlns="http://www.w3.org/2000/svg">
<path d="M9.73613 32.0715C8.83568 32.0715 7.03478 31.8464 7.03478 29.3702C7.03478 28.1883 7.31617 26.7251 7.65384 25.7684C8.61057 22.9544 10.524 22.3917 11.7059 22.3917H17.2211L18.0653 18.002H11.1994C9.62358 18.002 6.30316 18.2833 3.60181 20.7033C1.2944 22.7856 0 26.5 0 29.3702C0 32.4655 1.2944 36.7426 7.485 36.7426H14.2947L15.2514 32.0715H9.73613Z" fill="white"/>
<path d="M13.6197 8.77246L12.4941 14.4566H22.0052L17.6717 36.7428H25.6632L29.9404 14.4566H39.2263L40.4082 8.77246H13.6197Z" fill="white"/>
<path fill-rule="evenodd" clip-rule="evenodd" d="M120.83 18.8461C119.648 18.1708 118.691 18.002 116.384 18.002H88.8638L87.907 22.7856C87.7382 22.1103 87.4005 21.4912 87.0066 20.8721C86.5564 20.1968 85.9936 19.634 85.2057 19.1838C84.5866 18.8461 83.855 18.4522 83.0108 18.2833C82.3355 18.1708 81.6039 18.002 80.7597 18.002H70.5171L67.478 33.5347L65.1143 18.002H55.6596L46.5425 34.604L46.4862 31.1711C46.4862 30.1018 46.0923 29.3702 45.5858 28.8637C44.9667 28.2446 44.1788 27.9632 43.5035 27.8506L43.5598 27.7944C44.6291 27.6255 45.6421 27.2879 46.43 26.7251C47.8932 25.7683 48.8499 24.1926 48.8499 22.3917C48.8499 20.7033 47.9495 19.4089 46.6551 18.7898C45.8109 18.3396 44.7416 18.002 43.7286 18.002H31.6288L30.7846 22.3917H39.1701C39.6203 22.3917 41.5338 22.3917 41.5338 23.9674C41.5338 24.4177 41.4212 25.1493 40.6333 25.6558C40.1268 25.9935 39.2826 26.106 38.1571 26.106H30.053L27.9707 36.7426H34.7241L36.0185 30.1581H37.5943C38.0445 30.1581 38.6636 30.2143 39.0575 30.6083C39.2826 30.8897 39.4515 31.3962 39.4515 32.0152L39.2264 36.6863H52.508L54.1401 33.1408H60.2181L60.4995 36.6863H77.0453C78.6211 36.6863 81.9415 36.3487 84.6429 33.9287C85.1494 33.4785 85.5996 32.972 85.9936 32.4092L85.1494 36.6863H100.007L100.964 31.8464H93.0284L93.5349 29.3139H100.176L101.02 25.0367H94.379L94.8856 22.3354H113.176C114.302 22.3354 115.596 22.5605 115.596 23.8549C115.596 25.2618 114.47 26.0497 113.12 26.0497H103.834L101.751 36.6863H108.786L110.081 30.1018H111.656C112.107 30.1018 112.726 30.1581 113.12 30.552C113.345 30.8334 113.514 31.3399 113.457 31.959L113.232 36.6301H120.548L120.492 31.1711C120.492 30.0455 120.098 29.145 119.479 28.6385C118.916 28.0758 118.128 27.7944 117.509 27.7381V27.6818C118.804 27.513 119.986 27.0065 120.886 26.2186C122.068 25.2618 122.8 23.7986 122.8 22.2228C122.856 20.7033 122.012 19.5215 120.83 18.8461ZM56.4475 28.4134L59.3177 22.3354H59.4302L59.8805 28.4134H56.4475ZM80.1969 28.8074C79.2402 31.6776 77.383 31.959 76.2012 31.959H74.9068L76.7639 22.3917H78.1146C79.0151 22.3917 80.816 22.5605 80.816 25.093C80.816 26.2749 80.5346 27.8506 80.1969 28.8074Z" fill="white"/>
<path d="M133.381 13.2736C134.506 13.3862 135.576 13.555 136.645 13.8364C136.926 13.8927 137.208 14.0052 137.489 14.1741C137.883 14.3992 137.939 14.9057 137.545 15.1871C137.377 15.2996 137.152 15.4122 136.926 15.4685C136.758 15.5247 136.589 15.581 136.532 15.7498C136.42 15.975 136.251 16.2001 135.97 16.2001C135.745 16.2001 135.632 16.3126 135.576 16.4815C135.407 16.8191 135.182 16.8754 134.844 16.8754C134.732 16.8754 134.619 16.8754 134.506 16.8754C134.45 16.8754 134.338 16.9317 134.338 16.988C134.113 17.3256 133.831 17.4382 133.493 17.4382C132.874 17.3819 132.312 17.1568 131.805 16.8754C131.467 16.7066 131.073 16.5377 130.68 16.3689C130.567 16.3126 130.454 16.3126 130.342 16.3689C129.948 16.4815 129.554 16.594 129.16 16.6503C128.485 16.8191 127.866 16.9317 127.19 16.8191C126.29 16.7066 125.502 16.3689 124.714 15.975C123.42 15.2996 122.575 14.2866 122.182 12.8797C121.844 11.8104 121.731 10.7411 121.731 9.61552C121.731 8.8839 121.394 8.26484 120.943 7.75833C120.943 7.75833 120.943 7.75833 120.887 7.75833C120.775 8.20856 120.606 8.65879 120.493 9.10901C120.493 9.16529 120.437 9.22157 120.381 9.22157C120.099 9.27785 119.874 9.33413 119.593 9.3904C119.593 9.27785 119.649 9.22157 119.649 9.16529C119.818 8.65879 119.987 8.15228 120.156 7.64578C120.212 7.47694 120.324 7.25183 120.324 7.08299C120.268 6.91416 120.043 6.8016 119.874 6.68905C119.649 6.52021 119.48 6.40766 119.199 6.23882C119.255 6.23882 119.255 6.18254 119.311 6.18254C119.762 6.12627 120.212 6.06999 120.606 6.01371C120.887 6.01371 120.831 5.7886 120.887 5.61976C120.887 5.61976 120.775 5.50721 120.718 5.45093C119.593 4.88814 118.861 3.98769 118.58 2.74957C118.58 2.69329 118.58 2.63701 118.523 2.52446C119.142 2.74957 119.705 3.03096 120.212 3.48119C120.718 3.93141 120.887 4.55047 121.056 5.16954C121.337 4.66303 121.675 4.15653 121.956 3.65002C121.731 3.42491 121.45 3.1998 121.225 2.97468C120.887 2.63701 120.606 2.24307 120.549 1.73656C120.493 1.39889 120.493 1.06122 120.493 0.779832C120.493 0.554719 120.493 0.329605 120.493 0.104492C121.562 0.892388 122.125 1.96167 122.294 3.25607C122.35 3.1998 122.407 3.14352 122.463 3.08724C122.857 2.63701 123.251 2.24307 123.701 1.79284C123.982 1.51145 124.376 1.34261 124.77 1.23006C125.333 1.1175 125.952 1.1175 126.515 1.23006C126.853 1.28634 127.134 1.39889 127.472 1.45517V1.51145C127.359 1.624 127.247 1.79284 127.134 1.84912C126.965 1.96167 126.74 2.07423 126.515 2.13051C125.671 2.4119 124.827 2.46818 123.926 2.4119C123.814 2.4119 123.701 2.4119 123.645 2.46818C123.307 2.80585 123.026 3.1998 122.744 3.53747C122.688 3.59374 122.688 3.65002 122.632 3.7063C124.151 2.97468 125.502 3.31235 126.627 3.93141C126.571 3.93141 126.571 3.93141 126.571 3.98769C126.515 4.04397 126.459 4.04397 126.402 4.10025C125.896 4.38164 125.333 4.55047 124.77 4.55047C123.982 4.55047 123.195 4.38164 122.407 4.2128C122.294 4.15653 122.238 4.2128 122.182 4.32536C121.956 4.77559 121.731 5.22581 121.506 5.61976C121.506 5.67604 121.45 5.73232 121.45 5.84487C121.562 5.78859 121.619 5.7886 121.675 5.73232C122.013 5.56348 122.35 5.39465 122.688 5.28209C123.476 5.05698 124.095 5.22581 124.658 5.7886C124.995 6.12626 125.277 6.57649 125.502 6.97044C125.614 7.13927 125.671 7.36439 125.783 7.5895C125.84 7.53322 125.896 7.47694 125.896 7.42067C126.065 7.13927 126.29 6.8016 126.459 6.52021C127.19 5.11326 127.922 3.7063 128.654 2.29934C128.654 2.24307 128.71 2.18679 128.766 2.13051C129.16 2.58074 129.498 3.03096 129.892 3.48119C130.398 4.15653 130.848 4.88814 131.073 5.73232C132.931 4.71931 134.338 3.1998 135.801 1.73656C135.857 1.79284 135.857 1.79284 135.913 1.84912C136.701 2.69329 137.039 3.76258 137.095 4.83186C137.208 6.01371 137.039 7.19555 136.589 8.32112C135.913 10.0095 134.788 11.3601 133.268 12.3732C132.987 12.542 132.762 12.7108 132.424 12.9359C132.762 13.2173 133.043 13.2736 133.381 13.2736ZM121.788 7.36439C122.35 8.096 122.632 8.8839 122.632 9.84063C122.632 10.6285 122.744 11.4164 122.913 12.148C123.251 13.6113 124.039 14.6243 125.389 15.2996C126.177 15.6936 127.021 16.0312 127.922 15.9187C128.597 15.8061 129.216 15.6936 129.835 15.5247C130.342 15.3559 130.792 15.4122 131.242 15.581C131.58 15.7498 131.861 15.9187 132.199 16.0312C132.537 16.2001 132.874 16.3126 133.268 16.4252C133.437 16.4815 133.55 16.4815 133.662 16.3126C133.887 15.975 134.281 15.9187 134.675 15.9187C134.844 15.9187 134.9 15.8624 134.957 15.7498C135.013 15.6373 135.069 15.581 135.126 15.4685C135.294 15.1871 135.407 15.1871 135.688 15.2433C135.745 15.2433 135.745 15.2433 135.801 15.2433C135.913 15.0745 136.082 14.9057 136.195 14.7368C134.056 14.1741 131.861 14.1178 129.667 13.8364C129.779 13.7801 129.835 13.7238 129.892 13.6676C130.905 12.9922 131.974 12.3169 132.987 11.5853C134.506 10.4597 135.576 8.99646 135.97 7.08299C136.195 6.01371 136.195 4.88814 135.801 3.81886C135.745 3.7063 135.688 3.59374 135.632 3.42491C135.576 3.48119 135.519 3.53747 135.463 3.59374C134.619 4.43792 133.775 5.22581 132.874 5.90115C131.693 6.8016 130.398 7.30811 129.047 7.81461C128.203 8.096 127.415 8.37739 126.571 8.65878C126.177 8.82762 125.783 8.99646 125.389 9.16529C125.333 9.10901 125.333 9.05273 125.333 8.99646C125.052 8.37739 124.77 7.81461 124.489 7.19555C124.376 6.97044 124.208 6.74533 124.039 6.57649C123.757 6.23882 123.363 6.12627 122.969 6.2951C122.688 6.40766 122.407 6.52021 122.182 6.68905C122.013 6.8016 121.844 6.85788 121.619 6.85788C121.562 6.85788 121.562 6.85788 121.45 6.91416C121.562 7.08299 121.675 7.25183 121.788 7.36439ZM127.134 7.42067C127.247 7.42067 127.359 7.42066 127.415 7.36439C128.26 7.02672 129.104 6.74532 129.948 6.40766C130.117 6.35138 130.117 6.23882 130.117 6.06999C129.948 5.5072 129.667 5.0007 129.329 4.4942C129.216 4.32536 129.104 4.15653 128.935 3.93141C128.316 5.16954 127.753 6.2951 127.134 7.42067Z" fill="white"/>
<path d="M123.25 6.9707C122.913 6.9707 122.688 7.19582 122.688 7.53349C122.688 7.81488 122.913 8.09627 123.25 8.09627C123.532 8.09627 123.813 7.81488 123.813 7.53349C123.813 7.19582 123.532 6.9707 123.25 6.9707Z" fill="white"/>
</svg>
