<svg width="124" height="40" viewBox="0 0 124 40" fill="none" xmlns="http://www.w3.org/2000/svg">
<path d="M0 38.4344V32.4746H0.759159V34.6104C0.759159 34.6488 0.779032 34.6681 0.818438 34.6681C0.852118 34.6681 0.883106 34.6488 0.91106 34.6104C1.0798 34.3976 1.2866 34.2446 1.53112 34.1508C1.77867 34.0544 2.05553 34.0061 2.36202 34.0061C2.6291 34.0061 2.89081 34.0516 3.14678 34.1427C3.40241 34.2307 3.63312 34.3687 3.83858 34.5563C4.04639 34.7413 4.21242 34.9772 4.33604 35.264C4.45998 35.5485 4.52162 35.8876 4.52162 36.2823C4.52162 36.6742 4.45998 37.0133 4.33604 37.3002C4.21242 37.5874 4.04639 37.8247 3.83858 38.0123C3.63312 38.1972 3.40241 38.3348 3.14678 38.4259C2.89081 38.5142 2.6291 38.5585 2.36202 38.5585C1.69582 38.5585 1.19499 38.3321 0.860539 37.8798C0.829552 37.8355 0.798566 37.8134 0.76758 37.8134C0.725479 37.8134 0.697525 37.8355 0.683378 37.8798L0.506218 38.4344H0ZM0.717059 36.2823C0.717059 36.7982 0.859191 37.1969 1.14312 37.4783C1.43008 37.757 1.79417 37.8963 2.23571 37.8963C2.67996 37.8963 3.04405 37.757 3.32797 37.4783C3.6119 37.1969 3.75404 36.7982 3.75404 36.2823C3.75404 35.7636 3.6119 35.3649 3.32797 35.0863C3.04405 34.8075 2.67996 34.6681 2.23571 34.6681C1.79417 34.6681 1.43008 34.8075 1.14312 35.0863C0.859191 35.3649 0.717059 35.7636 0.717059 36.2823Z" fill="white"/>
<path d="M4.94727 34.2974V34.1318H5.71485L6.9718 37.7488C6.98595 37.7931 7.01424 37.8151 7.05634 37.8151C7.09844 37.8151 7.12673 37.7931 7.14054 37.7488L8.3975 34.1318H9.16541V34.2974L7.52012 38.9326C7.42481 39.2028 7.30793 39.417 7.17018 39.574C7.03512 39.7314 6.86369 39.8431 6.65553 39.9095C6.45042 39.9754 6.19311 40.0087 5.88358 40.0087H5.0739V39.3466H6.4319C6.52486 39.3466 6.58111 39.3188 6.60064 39.2637L6.84551 38.6179C6.87076 38.552 6.87345 38.5051 6.85392 38.4772C6.83404 38.4497 6.79767 38.436 6.74412 38.436H6.41506L4.94727 34.2974Z" fill="white"/>
<path d="M12.3945 38.4344V32.4746H14.2167C14.7791 32.4746 15.2685 32.5769 15.6849 32.7809C16.1038 32.9824 16.4272 33.3025 16.6548 33.741C16.8855 34.1798 17.0007 34.7511 17.0007 35.4547C17.0007 36.1582 16.8855 36.7292 16.6548 37.168C16.4272 37.6065 16.1038 37.9279 15.6849 38.1322C15.2685 38.3335 14.7791 38.4344 14.2167 38.4344H12.3945ZM13.2046 37.7224H14.2167C14.633 37.7224 14.9873 37.6533 15.2797 37.5157C15.575 37.375 15.8001 37.1401 15.9546 36.8118C16.1122 36.4807 16.1911 36.0283 16.1911 35.4547C16.1911 34.8806 16.1122 34.4296 15.9546 34.1013C15.8001 33.7702 15.575 33.5357 15.2797 33.3977C14.9873 33.257 14.633 33.1867 14.2167 33.1867H13.2046V37.7224Z" fill="white"/>
<path d="M17.7148 36.2811C17.7148 35.812 17.8034 35.408 17.9805 35.0684C18.1604 34.7265 18.4147 34.464 18.7437 34.2823C19.0758 34.0973 19.4692 34.0049 19.9249 34.0049C20.3806 34.0049 20.7629 34.0946 21.0721 34.2738C21.3843 34.4505 21.6191 34.6945 21.7767 35.0062C21.9369 35.3182 22.0172 35.6741 22.0172 36.074V36.488H18.4824C18.5133 36.9183 18.6454 37.2633 18.8788 37.5226C19.1149 37.782 19.4692 37.9114 19.9417 37.9114C20.3524 37.9114 20.6561 37.8316 20.8528 37.6715C21.0498 37.5115 21.1791 37.3102 21.2408 37.0672H22.034C22.003 37.2301 21.9411 37.3986 21.8484 37.5723C21.7554 37.746 21.6261 37.9074 21.4604 38.0566C21.2971 38.2055 21.0906 38.3268 20.8404 38.4206C20.5901 38.5117 20.2904 38.5573 19.9417 38.5573C19.2305 38.5573 18.6804 38.3544 18.2924 37.9489C17.9071 37.5407 17.7148 36.9846 17.7148 36.2811ZM18.4992 35.8671H21.2577C21.2408 35.5058 21.1257 35.2132 20.9117 34.9899C20.6983 34.7635 20.3691 34.6503 19.9249 34.6503C19.5255 34.6503 19.1994 34.754 18.9462 34.961C18.6959 35.1676 18.547 35.4698 18.4992 35.8671Z" fill="white"/>
<path d="M22.457 34.2974V34.1318H23.2246L24.4816 37.7488C24.4957 37.7931 24.524 37.8151 24.5661 37.8151C24.6081 37.8151 24.6364 37.7931 24.6502 37.7488L25.9072 34.1318H26.6751V34.2974L25.2073 38.436H23.9248L22.457 34.2974Z" fill="white"/>
<path d="M27.1055 36.2811C27.1055 35.812 27.1941 35.408 27.3713 35.0684C27.5514 34.7265 27.8057 34.464 28.1348 34.2823C28.4666 34.0973 28.8602 34.0049 29.3159 34.0049C29.7714 34.0049 30.154 34.0946 30.4631 34.2738C30.7753 34.4505 31.0101 34.6945 31.1677 35.0062C31.328 35.3182 31.4078 35.6741 31.4078 36.074V36.488H27.8734C27.9041 36.9183 28.0364 37.2633 28.2699 37.5226C28.5059 37.782 28.8602 37.9114 29.3328 37.9114C29.7433 37.9114 30.0468 37.8316 30.2439 37.6715C30.4405 37.5115 30.5699 37.3102 30.6318 37.0672H31.4251C31.394 37.2301 31.3321 37.3986 31.2394 37.5723C31.1465 37.746 31.0172 37.9074 30.8511 38.0566C30.6881 38.2055 30.4812 38.3268 30.2311 38.4206C29.9808 38.5117 29.6814 38.5573 29.3328 38.5573C28.6211 38.5573 28.0715 38.3544 27.6835 37.9489C27.2981 37.5407 27.1055 36.9846 27.1055 36.2811ZM27.8903 35.8671H30.6487C30.6318 35.5058 30.5166 35.2132 30.3028 34.9899C30.0892 34.7635 29.7602 34.6503 29.3159 34.6503C28.9165 34.6503 28.5905 34.754 28.3371 34.961C28.087 35.1676 27.9381 35.4698 27.8903 35.8671Z" fill="white"/>
<path d="M31.7617 38.436V38.2706L33.4151 36.2177L31.8796 34.2974V34.1318H32.6684L33.8749 35.6837C33.8974 35.7113 33.924 35.7252 33.955 35.7252C33.9859 35.7252 34.0126 35.7113 34.0352 35.6837L35.2541 34.1318H36.0388V34.3055L34.4275 36.3087L35.9964 38.2706V38.436H35.2036L33.9678 36.8427C33.9453 36.8152 33.9182 36.8012 33.8877 36.8012C33.8566 36.8012 33.8297 36.8152 33.8075 36.8427L32.5546 38.436H31.7617Z" fill="white"/>
<path d="M41.4962 36.2811C41.4962 36.673 41.4346 37.0121 41.3106 37.299C41.1869 37.5862 41.0209 37.8235 40.8127 38.0111C40.6077 38.1959 40.3769 38.3337 40.1214 38.4247C39.8654 38.5131 39.6037 38.5573 39.3366 38.5573C39.0301 38.5573 38.7533 38.509 38.5056 38.4124C38.2611 38.316 38.0544 38.1626 37.8857 37.9529C37.8577 37.9145 37.8267 37.8952 37.793 37.8952C37.7536 37.8952 37.7337 37.9173 37.7337 37.9614V40.0059H36.9746V34.1289H37.7253V34.6092C37.7253 34.653 37.7452 34.6751 37.7843 34.6751C37.8183 34.6751 37.8489 34.6561 37.8772 34.6174C38.0517 34.4022 38.2611 34.2462 38.5056 34.1496C38.7533 34.0532 39.0301 34.0049 39.3366 34.0049C39.6037 34.0049 39.8654 34.0504 40.1214 34.1416C40.3769 34.2295 40.6077 34.3676 40.8127 34.5552C41.0209 34.74 41.1869 34.9759 41.3106 35.2628C41.4346 35.5473 41.4962 35.8864 41.4962 36.2811ZM40.7286 36.2811C40.7286 35.7624 40.5865 35.3637 40.3026 35.085C40.0186 34.8064 39.6545 34.6669 39.21 34.6669C38.7688 34.6669 38.4044 34.8064 38.1176 35.085C37.8338 35.3637 37.6916 35.7624 37.6916 36.2811C37.6916 36.797 37.8338 37.1957 38.1176 37.4771C38.4044 37.7558 38.7688 37.8952 39.21 37.8952C39.6545 37.8952 40.0186 37.7558 40.3026 37.4771C40.5865 37.1957 40.7286 36.797 40.7286 36.2811Z" fill="white"/>
<path d="M42.168 36.2811C42.168 35.812 42.2565 35.408 42.4336 35.0684C42.6136 34.7265 42.8682 34.464 43.1972 34.2823C43.529 34.0973 43.9227 34.0049 44.3781 34.0049C44.8338 34.0049 45.216 34.0946 45.5256 34.2738C45.8375 34.4505 46.0726 34.6945 46.2298 35.0062C46.3902 35.3182 46.4703 35.6741 46.4703 36.074V36.488H42.9356C42.9665 36.9183 43.0986 37.2633 43.3319 37.5226C43.5684 37.782 43.9227 37.9114 44.395 37.9114C44.8055 37.9114 45.1093 37.8316 45.306 37.6715C45.5031 37.5115 45.6324 37.3102 45.6943 37.0672H46.4871C46.4562 37.2301 46.3942 37.3986 46.3016 37.5723C46.2086 37.746 46.0792 37.9074 45.9136 38.0566C45.7506 38.2055 45.5437 38.3268 45.2935 38.4206C45.0432 38.5117 44.7439 38.5573 44.395 38.5573C43.6836 38.5573 43.1339 38.3544 42.7459 37.9489C42.3606 37.5407 42.168 36.9846 42.168 36.2811ZM42.9523 35.8671H45.7111C45.6943 35.5058 45.5788 35.2132 45.3652 34.9899C45.1514 34.7635 44.8223 34.6503 44.3781 34.6503C43.9789 34.6503 43.6526 34.754 43.3996 34.961C43.1494 35.1676 43.0002 35.4698 42.9523 35.8671Z" fill="white"/>
<path d="M47.4023 38.4342V34.13H48.1614V34.7095C48.1614 34.7479 48.181 34.7673 48.2204 34.7673C48.2598 34.7673 48.2881 34.7452 48.305 34.701C48.4033 34.4944 48.5354 34.3452 48.7014 34.254C48.8701 34.1602 49.1035 34.1133 49.4016 34.1133H49.891V34.8417H49.2834C48.918 34.8417 48.6394 34.9301 48.4485 35.1068C48.2572 35.2832 48.1614 35.5786 48.1614 35.9925V38.4342H47.4023Z" fill="white"/>
<path d="M50.2051 34.7934V34.1312H51.2172V32.9727H51.9766V34.1312H53.2421V34.7934H51.9766V37.6491C51.9766 37.6878 51.9877 37.7181 52.0103 37.7401C52.0329 37.7622 52.0635 37.7731 52.1029 37.7731H53.2421V38.4355H52.4825C51.6392 38.4355 51.2172 38.0215 51.2172 37.194V34.7934H50.2051Z" fill="white"/>
<path d="M55.6698 34.0049C56.0157 34.0049 56.3307 34.0558 56.6145 34.1578C56.8985 34.2601 57.1292 34.4216 57.3063 34.6421C57.4863 34.8601 57.5903 35.1441 57.6186 35.4946H56.8423C56.8143 35.1995 56.7004 34.9844 56.5007 34.8491C56.301 34.7112 56.0241 34.6421 55.6698 34.6421C55.3155 34.6421 55.0595 34.7013 54.9022 34.8203C54.7446 34.9358 54.6658 35.0837 54.6658 35.2628C54.6658 35.4396 54.7348 35.569 54.8725 35.6519C55.0104 35.7318 55.2282 35.7995 55.5263 35.8548L56.1508 35.9708C56.4178 36.0203 56.6651 36.0893 56.8931 36.1774C57.1208 36.263 57.3037 36.3884 57.4414 36.5543C57.5819 36.7199 57.6523 36.9445 57.6523 37.2287C57.6523 37.6535 57.4933 37.9819 57.1756 38.2136C56.8608 38.4428 56.4206 38.5573 55.8554 38.5573C55.4785 38.5573 55.1397 38.5036 54.8389 38.3959C54.5378 38.2884 54.296 38.1242 54.1135 37.9034C53.9306 37.6828 53.8252 37.404 53.7969 37.0672H54.5688C54.6025 37.3432 54.7334 37.5542 54.9612 37.7004C55.1919 37.8469 55.49 37.9199 55.8554 37.9199C56.2239 37.9199 56.4879 37.8577 56.6482 37.7337C56.8116 37.6097 56.8931 37.455 56.8931 37.2702C56.8931 37.0825 56.817 36.9473 56.6651 36.8646C56.5135 36.7817 56.2855 36.7127 55.982 36.6577L55.3576 36.5418C55.0737 36.4894 54.8221 36.4176 54.6025 36.3266C54.3832 36.2328 54.2118 36.103 54.0882 35.9375C53.9672 35.7692 53.9067 35.5473 53.9067 35.2713C53.9067 34.8573 54.0711 34.5429 54.4001 34.3278C54.7291 34.1123 55.1525 34.0049 55.6698 34.0049Z" fill="white"/>
<path d="M15.614 0.920898V7.53704H19.5516L19.5576 20.7693H15.614V27.3857H20.7701C25.4295 27.3857 27.5255 25.3057 27.5255 20.6061V7.78208C27.5255 3.07132 25.4245 0.920898 20.7647 0.920898H15.614ZM11.4288 0.920898H0V27.3857H11.4288V20.77L7.48517 20.7693V7.53704H11.4288V0.920898Z" fill="white"/>
<path d="M29.7773 0.920898L46.1964 27.3857H56.1762L39.7576 0.920898H29.7773Z" fill="white"/>
<path d="M29.9395 27.3858H41.5293L35.7345 17.9922L29.9395 27.3858Z" fill="white"/>
<path d="M56.3379 0.920898H44.748L50.5431 10.2326L56.3379 0.920898Z" fill="white"/>
<path d="M61.8125 8.91325V4.94922H64.1466V8.95132H68.2512V11.1568H64.1466V20.356C64.1466 20.4818 64.1927 20.5674 64.2672 20.6428C64.3419 20.7184 64.4245 20.7952 64.5488 20.7952H68.2512V22.8372H65.7305C63.0813 22.8372 61.8125 21.5929 61.8125 18.9136V8.91325Z" fill="white"/>
<path d="M70.502 8.9491H72.8361V10.7461C72.8361 10.8718 72.8944 10.9792 73.0307 10.9792C73.1546 10.9792 73.2288 10.898 73.2908 10.7658C73.8859 9.44566 74.8521 8.86719 76.6992 8.86719H78.2284V11.2362H76.2967C74.0283 11.2362 72.8361 12.2718 72.8361 14.9116V22.8346H70.502V8.9491Z" fill="white"/>
<path d="M117.378 8.70508C121.641 8.70508 123.945 11.3273 123.945 15.1614V16.5465H112.93C113.118 19.2995 114.492 21.1468 117.442 21.1468C119.991 21.1468 121.131 19.9963 121.518 18.425H123.945C123.545 20.5119 121.757 23.2442 117.42 23.2442C113.082 23.2442 110.504 20.4304 110.504 15.9428C110.504 11.4551 113.116 8.70508 117.378 8.70508ZM121.614 14.5932C121.514 12.2929 120.141 10.7471 117.378 10.7471C114.891 10.7471 113.202 12.0539 112.914 14.5932H121.626H121.614Z" fill="white"/>
<path d="M90.3009 8.95014V10.6271C90.3009 10.7658 90.284 10.844 90.1467 10.844C90.0095 10.844 89.9348 10.7685 89.8596 10.655C88.762 9.33217 87.2326 8.70508 85.3111 8.70508C82.0047 8.70508 78.6309 10.9483 78.6309 15.9748C78.6309 21.001 82.0047 23.2442 85.3111 23.2442C87.2326 23.2442 88.7492 22.6725 89.8846 21.3123C89.9597 21.2114 90.047 21.1233 90.1716 21.1233C90.2965 21.1233 90.3814 21.227 90.3814 21.3657V22.836H92.7154V8.95014H90.3009ZM85.7433 21.2079C82.9859 21.2079 81.0378 19.2832 81.0378 15.9704C81.0378 12.6573 82.9852 10.844 85.7426 10.844C88.5 10.844 90.4979 12.6872 90.4979 15.9999C90.4979 19.3131 88.5003 21.2079 85.7433 21.2079Z" fill="white"/>
<path d="M106.319 4.94922V10.6286C106.319 10.7673 106.302 10.8455 106.165 10.8455C106.027 10.8455 105.952 10.7697 105.878 10.6565C104.78 9.33369 103.25 8.70627 101.329 8.70627C98.0223 8.70627 94.6484 10.9498 94.6484 15.976C94.6484 21.0022 98.0223 23.2458 101.329 23.2458C103.25 23.2458 104.767 22.6741 105.902 21.3135C105.977 21.2129 106.064 21.1245 106.189 21.1245C106.314 21.1245 106.399 21.2286 106.399 21.3669V22.8372H108.733V4.94922H106.319ZM101.761 21.2095C99.0033 21.2095 97.0553 19.2847 97.0553 15.9716C97.0553 12.6587 99.0027 10.8455 101.76 10.8455C104.518 10.8455 106.516 12.6884 106.516 16.0015C106.516 19.3146 104.518 21.2095 101.761 21.2095Z" fill="white"/>
</svg>
