<svg width="24" height="25" fill="none" xmlns="http://www.w3.org/2000/svg"><path d="M14.5 21.62v-5a1 1 0 0 0-1-1h-3a1 1 0 0 0-1 1v5" stroke="#9B9B9B" stroke-width="2" stroke-linecap="round" stroke-linejoin="round"/><path d="M5 11.62v6c0 1.886 0 2.828.586 3.414.586.586 1.528.586 3.414.586h6c1.886 0 2.828 0 3.414-.586.586-.586.586-1.528.586-3.414v-6" stroke="#9B9B9B" stroke-width="2"/><path d="m14.148 11.62.023-1-.023 1Zm-1.936-1.726-.986.164.986-.164Zm.018.1.982-.187-.982.187Zm-.442-.1.986.164-.986-.164Zm-.018.1.983.187-.983-.187ZM9.852 11.62l-.023-1 .023 1Zm6.436-1.725-.987-.165.987.165Zm-.018.1.983.187-.983-.187Zm-1.918 1.625.023 1-.023-1Zm-6.64-1.725.987-.165-.987.165Zm.018.1.982-.187-.982.187Zm1.918 1.625-.023 1 .023-1Zm-2.23-2.45.813.584-.812-.583Zm.213.235-.987.165.987-.165Zm-.05-.234.812-.584-.812.584Zm10.66 2.398-.227.974.227-.974Zm-1.393-1.18-.924.384.924-.384ZM16.58 9.17l-.812.583.812-.583Zm-.212.234-.986-.164.986.164Zm.05-.234-.812-.584.812.584Zm-10.66 2.398.227.974-.226-.974Zm1.393-1.18.924.384-.924-.384Zm4.717-.984-.986-.164.986.164Zm.05-.234.812.583-.812-.583Zm.212.234.986-.164-.986.164Zm-.05-.234-.812.583.812-.583Zm-8.798 1.518.998-.068-.998.068Zm.69.883-.308.952.308-.952Zm16.61-1.622-.97.243.97-.243Zm.134.739-.998-.068.998.068Zm-.69.883-.308-.951.308.951Zm-1.192-7.74.615-.788-.615.789Zm-13.67 0-.615-.788.615.789Zm1.397.789h10.876v-2H6.562v2Zm11.847.757 1.203 4.815 1.94-.485-1.203-4.815-1.94.485ZM4.388 10.192 5.59 5.377l-1.94-.485-1.203 4.815 1.94.485Zm4.31-.463-.08-.489-1.974.329.082.49 1.973-.33Zm6.685-.489-.082.49 1.973.328.082-.49-1.973-.328Zm-4.5 0-.082.49 1.973.328.082-.49-1.973-.328Zm2.316.49-.082-.49-1.973.329.082.49 1.973-.33Zm1.051.89h-.079l-.046 2h.125v-2Zm-3.024-.562.021.123 1.965-.374a4.836 4.836 0 0 1-.013-.078l-1.973.33Zm2.945.562a1 1 0 0 1-.96-.813l-1.964.374a3 3 0 0 0 2.878 2.438l.046-2Zm-3.37-.89-.013.077 1.965.374.021-.123-1.973-.329ZM9.75 12.62h.125l-.046-2H9.75v2Zm1.038-2.813a1 1 0 0 1-.96.813l.047 2a3 3 0 0 0 2.878-2.439l-1.965-.374Zm4.513-.078-.013.078 1.965.374.021-.123-1.973-.329Zm-1.051 2.89h.125l-.046-2h-.079v2Zm1.038-2.812a1 1 0 0 1-.96.813l.047 2a3 3 0 0 0 2.878-2.439l-1.965-.374Zm-8.562.251.021.123 1.965-.374a4.343 4.343 0 0 1-.013-.078l-1.973.33Zm3.024.562h-.079l-.046 2h.125v-2Zm-3.003-.439a3 3 0 0 0 2.878 2.438l.046-2a1 1 0 0 1-.96-.812l-1.964.374Zm1.609-.612.015-.09.007-.042c.002-.01 0 .008-.01.038a.953.953 0 0 1-.137.278L6.607 8.586c-.11.153-.15.303-.158.327a1.548 1.548 0 0 0-.032.13l-.034.197 1.973.329Zm.261-.329c-.01-.064-.023-.138-.034-.197a1.548 1.548 0 0 0-.032-.13c-.007-.024-.048-.174-.158-.327L6.77 9.753a.953.953 0 0 1-.137-.278c-.01-.03-.012-.047-.01-.038l.007.043c.005.024.01.052.015.089l1.973-.329Zm-.386.513a.9.9 0 0 1-1.462 0l1.624-1.167a1.1 1.1 0 0 0-1.786 0L8.23 9.753Zm11.033.867c-.588 0-.713-.007-.797-.026l-.453 1.948c.363.084.772.078 1.25.078v-2Zm-3.62-1.051c.077.461.137.858.28 1.203l1.847-.768c-.033-.08-.06-.197-.154-.764l-1.973.329Zm2.823 1.025a1 1 0 0 1-.696-.59l-1.847.768a3 3 0 0 0 2.09 1.77l.453-1.948Zm-.85-1.354c-.01-.064-.023-.138-.035-.197a1.53 1.53 0 0 0-.03-.13c-.008-.024-.05-.174-.159-.327L15.77 9.753a.96.96 0 0 1-.137-.278c-.01-.03-.012-.047-.01-.038l.007.043c.005.024.01.052.015.089l1.973-.329Zm-.261.329.015-.09.007-.042c.002-.01 0 .008-.01.038a.96.96 0 0 1-.137.278l-1.624-1.167c-.11.153-.15.303-.158.327a1.53 1.53 0 0 0-.031.13c-.012.059-.024.133-.035.197l1.973.329Zm.037-.983a1.1 1.1 0 0 0-1.786 0l1.624 1.167a.9.9 0 0 1-1.462 0l1.624-1.167ZM4.736 12.62c.478 0 .887.006 1.25-.078l-.453-1.948c-.084.02-.21.026-.797.026v2Zm1.647-3.38c-.095.566-.12.684-.154.764l1.847.768c.143-.345.203-.742.28-1.203L6.383 9.24Zm-.397 3.302a3 3 0 0 0 2.09-1.77l-1.847-.768a1 1 0 0 1-.696.59l.453 1.948Zm6.87-2.973.015-.09.007-.042c.002-.01 0 .008-.01.038a.96.96 0 0 1-.137.278l-1.624-1.167c-.11.153-.15.303-.158.327a1.53 1.53 0 0 0-.031.13c-.012.059-.024.133-.035.197l1.973.329Zm.261-.329c-.01-.064-.023-.138-.035-.197a1.53 1.53 0 0 0-.03-.13c-.008-.024-.05-.174-.159-.327L11.27 9.753a.96.96 0 0 1-.137-.278c-.01-.03-.012-.047-.01-.038l.007.043c.005.024.01.052.015.089l1.973-.329Zm-.386.513a.9.9 0 0 1-1.462 0l1.624-1.167a1.1 1.1 0 0 0-1.786 0l1.624 1.167ZM2.448 9.707c-.046.183-.09.358-.12.505-.029.15-.057.337-.043.543l1.996-.135c.003.049-.006.06.01-.023.017-.085.046-.201.097-.405l-1.94-.485Zm2.288.913c-.215 0-.338 0-.428-.005-.089-.004-.076-.01-.027.005l-.616 1.903c.199.064.39.082.542.09.152.007.335.007.529.007v-2Zm-2.45.135a2 2 0 0 0 1.38 1.768l.615-1.903-1.996.135Zm17.326-.563c.051.204.08.32.097.405.016.083.007.072.01.023l1.996.135a2.068 2.068 0 0 0-.044-.543c-.029-.147-.073-.322-.119-.505l-1.94.485Zm-.348 2.428c.194 0 .377 0 .529-.007a2.08 2.08 0 0 0 .542-.09l-.616-1.903c.049-.016.062-.01-.027-.005-.09.005-.213.005-.428.005v2Zm.455-2 .616 1.903a2 2 0 0 0 1.38-1.768l-1.996-.135Zm-2.28-6c.399 0 .61.002.758.02.122.014.084.028.022-.02l1.231-1.577c-.333-.26-.694-.351-1.015-.39-.295-.035-.646-.033-.997-.033v2Zm2.91.272c-.085-.34-.169-.681-.274-.958-.116-.302-.292-.63-.625-.89L18.22 4.62c-.062-.048-.058-.089-.014.026.053.14.106.344.203.731l1.94-.485ZM6.562 2.62c-.351 0-.702-.002-.997.033-.32.039-.682.13-1.015.39L5.78 4.62c-.06.048-.099.034.023.02.148-.018.36-.02.759-.02v-2Zm-.97 2.757c.096-.387.15-.592.202-.731.044-.115.048-.074-.013-.026L4.55 3.043c-.333.26-.51.589-.625.89-.105.278-.189.62-.274.96l1.94.484Z" fill="#9B9B9B"/></svg>