<svg width="14" height="14" viewBox="0 0 14 14" fill="none" xmlns="http://www.w3.org/2000/svg">
<path d="M11.6667 2.91671V8.75004C11.6667 9.07204 11.4059 9.33337 11.0833 9.33337C10.7608 9.33337 10.5 9.07204 10.5 8.75004V4.32491L3.91244 10.9125C3.79869 11.0262 3.64933 11.0834 3.5 11.0834C3.35067 11.0834 3.20132 11.0262 3.08757 10.9125C2.85948 10.6844 2.85948 10.3157 3.08757 10.0876L9.67513 3.50004H5.25C4.92742 3.50004 4.66667 3.23871 4.66667 2.91671C4.66667 2.59471 4.92742 2.33337 5.25 2.33337H11.0833C11.1592 2.33337 11.235 2.34907 11.3062 2.37823C11.4491 2.43715 11.5629 2.55091 11.6218 2.69383C11.6516 2.76499 11.6667 2.84087 11.6667 2.91671Z" fill="#7755EA"/>
</svg>
