<svg width="23" height="87" viewBox="0 0 23 87" fill="none" xmlns="http://www.w3.org/2000/svg">
<g clip-path="url(#clip0_2_1510)">
<rect x="1" y="-3" width="1" height="4" fill="#7755EA"/>
<rect x="2" y="-2" width="1" height="4" fill="#7755EA"/>
<rect x="3" y="-1" width="1" height="4" fill="#7755EA"/>
<rect x="4" width="1" height="4" fill="#7755EA"/>
<rect x="5" y="1" width="1" height="4" fill="#7755EA"/>
<rect x="6" y="2" width="1" height="4" fill="#7755EA"/>
<rect x="7" y="3" width="1" height="4" fill="#7755EA"/>
<rect x="8" y="4" width="1" height="4" fill="#7755EA"/>
<rect x="9" y="5" width="1" height="4" fill="#7755EA"/>
<rect x="10" y="6" width="1" height="4" fill="#7755EA"/>
<rect x="11" y="7" width="1" height="4" fill="#7755EA"/>
<rect x="12" y="8" width="1" height="4" fill="#7755EA"/>
<rect x="13" y="9" width="1" height="4" fill="#7755EA"/>
<rect x="14" y="10" width="1" height="4" fill="#7755EA"/>
<rect x="15" y="11" width="1" height="4" fill="#7755EA"/>
<rect x="16" y="12" width="1" height="4" fill="#7755EA"/>
<rect x="17" y="13" width="1" height="4" fill="#7755EA"/>
<rect x="18" y="14" width="1" height="4" fill="#7755EA"/>
<rect x="19" y="15" width="1" height="4" fill="#7755EA"/>
<rect x="20" y="16" width="1" height="4" fill="#7755EA"/>
<rect x="21" y="17" width="1" height="4" fill="#7755EA"/>
<rect x="22" y="18" width="1" height="4" fill="#7755EA"/>
<rect y="26" width="1" height="4" fill="#7755EA"/>
<rect x="1" y="27" width="1" height="4" fill="#7755EA"/>
<rect x="2" y="28" width="1" height="4" fill="#7755EA"/>
<rect x="3" y="29" width="1" height="4" fill="#7755EA"/>
<rect x="4" y="30" width="1" height="4" fill="#7755EA"/>
<rect x="5" y="31" width="1" height="4" fill="#7755EA"/>
<rect x="6" y="32" width="1" height="4" fill="#7755EA"/>
<rect x="7" y="33" width="1" height="4" fill="#7755EA"/>
<rect x="8" y="34" width="1" height="4" fill="#7755EA"/>
<rect x="9" y="35" width="1" height="4" fill="#7755EA"/>
<rect x="10" y="36" width="1" height="4" fill="#7755EA"/>
<rect x="11" y="37" width="1" height="4" fill="#7755EA"/>
<rect x="12" y="38" width="1" height="4" fill="#7755EA"/>
<rect x="13" y="39" width="1" height="4" fill="#7755EA"/>
<rect x="14" y="40" width="1" height="4" fill="#7755EA"/>
<rect x="15" y="41" width="1" height="4" fill="#7755EA"/>
<rect x="16" y="42" width="1" height="4" fill="#7755EA"/>
<rect x="17" y="43" width="1" height="4" fill="#7755EA"/>
<rect x="18" y="44" width="1" height="4" fill="#7755EA"/>
<rect x="19" y="45" width="1" height="4" fill="#7755EA"/>
<rect x="20" y="46" width="1" height="4" fill="#7755EA"/>
<rect x="21" y="47" width="1" height="4" fill="#7755EA"/>
<rect x="22" y="48" width="1" height="4" fill="#7755EA"/>
<rect x="11" y="-3" width="1" height="4" fill="#7755EA"/>
<rect x="12" y="-2" width="1" height="4" fill="#7755EA"/>
<rect x="13" y="-1" width="1" height="4" fill="#7755EA"/>
<rect x="14" width="1" height="4" fill="#7755EA"/>
<rect x="15" y="1" width="1" height="4" fill="#7755EA"/>
<rect x="16" y="2" width="1" height="4" fill="#7755EA"/>
<rect x="17" y="3" width="1" height="4" fill="#7755EA"/>
<rect x="18" y="4" width="1" height="4" fill="#7755EA"/>
<rect x="19" y="5" width="1" height="4" fill="#7755EA"/>
<rect x="20" y="6" width="1" height="4" fill="#7755EA"/>
<rect x="21" y="7" width="1" height="4" fill="#7755EA"/>
<rect x="22" y="8" width="1" height="4" fill="#7755EA"/>
<rect y="16" width="1" height="4" fill="#7755EA"/>
<rect x="1" y="17" width="1" height="4" fill="#7755EA"/>
<rect x="2" y="18" width="1" height="4" fill="#7755EA"/>
<rect x="3" y="19" width="1" height="4" fill="#7755EA"/>
<rect x="4" y="20" width="1" height="4" fill="#7755EA"/>
<rect x="5" y="21" width="1" height="4" fill="#7755EA"/>
<rect x="6" y="22" width="1" height="4" fill="#7755EA"/>
<rect x="7" y="23" width="1" height="4" fill="#7755EA"/>
<rect x="8" y="24" width="1" height="4" fill="#7755EA"/>
<rect x="9" y="25" width="1" height="4" fill="#7755EA"/>
<rect x="10" y="26" width="1" height="4" fill="#7755EA"/>
<rect x="11" y="27" width="1" height="4" fill="#7755EA"/>
<rect x="12" y="28" width="1" height="4" fill="#7755EA"/>
<rect x="13" y="29" width="1" height="4" fill="#7755EA"/>
<rect x="14" y="30" width="1" height="4" fill="#7755EA"/>
<rect x="15" y="31" width="1" height="4" fill="#7755EA"/>
<rect x="16" y="32" width="1" height="4" fill="#7755EA"/>
<rect x="17" y="33" width="1" height="4" fill="#7755EA"/>
<rect x="18" y="34" width="1" height="4" fill="#7755EA"/>
<rect x="19" y="35" width="1" height="4" fill="#7755EA"/>
<rect x="20" y="36" width="1" height="4" fill="#7755EA"/>
<rect x="21" y="37" width="1" height="4" fill="#7755EA"/>
<rect x="22" y="38" width="1" height="4" fill="#7755EA"/>
<rect x="21" y="-3" width="1" height="4" fill="#7755EA"/>
<rect x="22" y="-2" width="1" height="4" fill="#7755EA"/>
<rect y="6" width="1" height="4" fill="#7755EA"/>
<rect x="1" y="7" width="1" height="4" fill="#7755EA"/>
<rect x="2" y="8" width="1" height="4" fill="#7755EA"/>
<rect x="3" y="9" width="1" height="4" fill="#7755EA"/>
<rect x="4" y="10" width="1" height="4" fill="#7755EA"/>
<rect x="5" y="11" width="1" height="4" fill="#7755EA"/>
<rect x="6" y="12" width="1" height="4" fill="#7755EA"/>
<rect x="7" y="13" width="1" height="4" fill="#7755EA"/>
<rect x="8" y="14" width="1" height="4" fill="#7755EA"/>
<rect x="9" y="15" width="1" height="4" fill="#7755EA"/>
<rect x="10" y="16" width="1" height="4" fill="#7755EA"/>
<rect x="11" y="17" width="1" height="4" fill="#7755EA"/>
<rect x="12" y="18" width="1" height="4" fill="#7755EA"/>
<rect x="13" y="19" width="1" height="4" fill="#7755EA"/>
<rect x="14" y="20" width="1" height="4" fill="#7755EA"/>
<rect x="15" y="21" width="1" height="4" fill="#7755EA"/>
<rect x="16" y="22" width="1" height="4" fill="#7755EA"/>
<rect x="17" y="23" width="1" height="4" fill="#7755EA"/>
<rect x="18" y="24" width="1" height="4" fill="#7755EA"/>
<rect x="19" y="25" width="1" height="4" fill="#7755EA"/>
<rect x="20" y="26" width="1" height="4" fill="#7755EA"/>
<rect x="21" y="27" width="1" height="4" fill="#7755EA"/>
<rect x="22" y="28" width="1" height="4" fill="#7755EA"/>
<rect y="36" width="1" height="4" fill="#7755EA"/>
<rect x="1" y="37" width="1" height="4" fill="#7755EA"/>
<rect x="2" y="38" width="1" height="4" fill="#7755EA"/>
<rect x="3" y="39" width="1" height="4" fill="#7755EA"/>
<rect x="4" y="40" width="1" height="4" fill="#7755EA"/>
<rect x="5" y="41" width="1" height="4" fill="#7755EA"/>
<rect x="6" y="42" width="1" height="4" fill="#7755EA"/>
<rect x="7" y="43" width="1" height="4" fill="#7755EA"/>
<rect x="8" y="44" width="1" height="4" fill="#7755EA"/>
<rect x="9" y="45" width="1" height="4" fill="#7755EA"/>
<rect x="10" y="46" width="1" height="4" fill="#7755EA"/>
<rect x="11" y="47" width="1" height="4" fill="#7755EA"/>
<rect x="12" y="48" width="1" height="4" fill="#7755EA"/>
<rect x="13" y="49" width="1" height="4" fill="#7755EA"/>
<rect x="14" y="50" width="1" height="4" fill="#7755EA"/>
<rect x="15" y="51" width="1" height="4" fill="#7755EA"/>
<rect x="16" y="52" width="1" height="4" fill="#7755EA"/>
<rect x="17" y="53" width="1" height="4" fill="#7755EA"/>
<rect x="18" y="54" width="1" height="4" fill="#7755EA"/>
<rect x="19" y="55" width="1" height="4" fill="#7755EA"/>
<rect x="20" y="56" width="1" height="4" fill="#7755EA"/>
<rect x="21" y="57" width="1" height="4" fill="#7755EA"/>
<rect x="22" y="58" width="1" height="4" fill="#7755EA"/>
<rect y="46" width="1" height="4" fill="#7755EA"/>
<rect x="1" y="47" width="1" height="4" fill="#7755EA"/>
<rect x="2" y="48" width="1" height="4" fill="#7755EA"/>
<rect x="3" y="49" width="1" height="4" fill="#7755EA"/>
<rect x="4" y="50" width="1" height="4" fill="#7755EA"/>
<rect x="5" y="51" width="1" height="4" fill="#7755EA"/>
<rect x="6" y="52" width="1" height="4" fill="#7755EA"/>
<rect x="7" y="53" width="1" height="4" fill="#7755EA"/>
<rect x="8" y="54" width="1" height="4" fill="#7755EA"/>
<rect x="9" y="55" width="1" height="4" fill="#7755EA"/>
<rect x="10" y="56" width="1" height="4" fill="#7755EA"/>
<rect x="11" y="57" width="1" height="4" fill="#7755EA"/>
<rect x="12" y="58" width="1" height="4" fill="#7755EA"/>
<rect x="13" y="59" width="1" height="4" fill="#7755EA"/>
<rect x="14" y="60" width="1" height="4" fill="#7755EA"/>
<rect x="15" y="61" width="1" height="4" fill="#7755EA"/>
<rect x="16" y="62" width="1" height="4" fill="#7755EA"/>
<rect x="17" y="63" width="1" height="4" fill="#7755EA"/>
<rect x="18" y="64" width="1" height="4" fill="#7755EA"/>
<rect x="19" y="65" width="1" height="4" fill="#7755EA"/>
<rect x="20" y="66" width="1" height="4" fill="#7755EA"/>
<rect x="21" y="67" width="1" height="4" fill="#7755EA"/>
<rect x="22" y="68" width="1" height="4" fill="#7755EA"/>
<rect y="56" width="1" height="4" fill="#7755EA"/>
<rect x="1" y="57" width="1" height="4" fill="#7755EA"/>
<rect x="2" y="58" width="1" height="4" fill="#7755EA"/>
<rect x="3" y="59" width="1" height="4" fill="#7755EA"/>
<rect x="4" y="60" width="1" height="4" fill="#7755EA"/>
<rect x="5" y="61" width="1" height="4" fill="#7755EA"/>
<rect x="6" y="62" width="1" height="4" fill="#7755EA"/>
<rect x="7" y="63" width="1" height="4" fill="#7755EA"/>
<rect x="8" y="64" width="1" height="4" fill="#7755EA"/>
<rect x="9" y="65" width="1" height="4" fill="#7755EA"/>
<rect x="10" y="66" width="1" height="4" fill="#7755EA"/>
<rect x="11" y="67" width="1" height="4" fill="#7755EA"/>
<rect x="12" y="68" width="1" height="4" fill="#7755EA"/>
<rect x="13" y="69" width="1" height="4" fill="#7755EA"/>
<rect x="14" y="70" width="1" height="4" fill="#7755EA"/>
<rect x="15" y="71" width="1" height="4" fill="#7755EA"/>
<rect x="16" y="72" width="1" height="4" fill="#7755EA"/>
<rect x="17" y="73" width="1" height="4" fill="#7755EA"/>
<rect x="18" y="74" width="1" height="4" fill="#7755EA"/>
<rect x="19" y="75" width="1" height="4" fill="#7755EA"/>
<rect x="20" y="76" width="1" height="4" fill="#7755EA"/>
<rect x="21" y="77" width="1" height="4" fill="#7755EA"/>
<rect x="22" y="78" width="1" height="4" fill="#7755EA"/>
<rect y="66" width="1" height="4" fill="#7755EA"/>
<rect x="1" y="67" width="1" height="4" fill="#7755EA"/>
<rect x="2" y="68" width="1" height="4" fill="#7755EA"/>
<rect x="3" y="69" width="1" height="4" fill="#7755EA"/>
<rect x="4" y="70" width="1" height="4" fill="#7755EA"/>
<rect x="5" y="71" width="1" height="4" fill="#7755EA"/>
<rect x="6" y="72" width="1" height="4" fill="#7755EA"/>
<rect x="7" y="73" width="1" height="4" fill="#7755EA"/>
<rect x="8" y="74" width="1" height="4" fill="#7755EA"/>
<rect x="9" y="75" width="1" height="4" fill="#7755EA"/>
<rect x="10" y="76" width="1" height="4" fill="#7755EA"/>
<rect x="11" y="77" width="1" height="4" fill="#7755EA"/>
<rect x="12" y="78" width="1" height="4" fill="#7755EA"/>
<rect x="13" y="79" width="1" height="4" fill="#7755EA"/>
<rect x="14" y="80" width="1" height="4" fill="#7755EA"/>
<rect x="15" y="81" width="1" height="4" fill="#7755EA"/>
<rect x="16" y="82" width="1" height="4" fill="#7755EA"/>
<rect x="17" y="83" width="1" height="4" fill="#7755EA"/>
<rect x="18" y="84" width="1" height="4" fill="#7755EA"/>
<rect x="19" y="85" width="1" height="4" fill="#7755EA"/>
<rect x="20" y="86" width="1" height="4" fill="#7755EA"/>
<rect y="76" width="1" height="4" fill="#7755EA"/>
<rect x="1" y="77" width="1" height="4" fill="#7755EA"/>
<rect x="2" y="78" width="1" height="4" fill="#7755EA"/>
<rect x="3" y="79" width="1" height="4" fill="#7755EA"/>
<rect x="4" y="80" width="1" height="4" fill="#7755EA"/>
<rect x="5" y="81" width="1" height="4" fill="#7755EA"/>
<rect x="6" y="82" width="1" height="4" fill="#7755EA"/>
<rect x="7" y="83" width="1" height="4" fill="#7755EA"/>
<rect x="8" y="84" width="1" height="4" fill="#7755EA"/>
<rect x="9" y="85" width="1" height="4" fill="#7755EA"/>
<rect x="10" y="86" width="1" height="4" fill="#7755EA"/>
<rect y="86" width="1" height="4" fill="#7755EA"/>
</g>
<defs>
<clipPath id="clip0_2_1510">
<rect width="23" height="87" fill="white"/>
</clipPath>
</defs>
</svg>
