<svg width="40" height="92" viewBox="0 0 40 92" fill="none" xmlns="http://www.w3.org/2000/svg">
<path fill-rule="evenodd" clip-rule="evenodd" d="M2.67983 60.4136C2.96366 59.8532 3.53849 59.5 4.16667 59.5H13.1157C13.6301 59.5 14.1157 59.7376 14.4315 60.1437L20.0706 67.3971L25.5384 60.1618C25.8534 59.745 26.3456 59.5 26.8681 59.5H35.8333C36.4603 59.5 37.0342 59.8518 37.3186 60.4105C37.603 60.9692 37.5499 61.6402 37.1811 62.1472L21.4174 83.8139C21.1045 84.244 20.6051 84.4989 20.0732 84.5C19.5413 84.5011 19.0409 84.2483 18.7261 83.8195L2.82309 62.1528C2.45138 61.6464 2.396 60.974 2.67983 60.4136ZM20.0638 80.0085L32.5597 62.8333H27.6976L21.4191 71.1415C21.1065 71.5551 20.6192 71.7997 20.1008 71.8032C19.5824 71.8068 19.0918 71.5689 18.7736 71.1596L12.3003 62.8333H7.45742L20.0638 80.0085Z" fill="#CAD4DD"/>
<path d="M32.5597 62.8333L20.0638 80.0085L7.45742 62.8333H12.3003L18.7736 71.1596C19.0918 71.5689 19.5824 71.8068 20.1008 71.8032C20.6192 71.7997 21.1065 71.5551 21.4191 71.1415L27.6976 62.8333H32.5597Z" fill="#CAD4DD"/>
<path fill-rule="evenodd" clip-rule="evenodd" d="M2.67983 34.4136C2.96366 33.8532 3.53849 33.5 4.16667 33.5H13.1157C13.6301 33.5 14.1157 33.7376 14.4315 34.1437L20.0706 41.3971L25.5384 34.1618C25.8534 33.745 26.3456 33.5 26.8681 33.5H35.8333C36.4603 33.5 37.0342 33.8518 37.3186 34.4105C37.603 34.9692 37.5499 35.6402 37.1811 36.1472L21.4174 57.8139C21.1045 58.244 20.6051 58.4989 20.0732 58.5C19.5413 58.5011 19.0409 58.2483 18.7261 57.8195L2.82309 36.1528C2.45138 35.6464 2.396 34.974 2.67983 34.4136ZM20.0638 54.0085L32.5597 36.8333H27.6976L21.4191 45.1415C21.1065 45.5551 20.6192 45.7997 20.1008 45.8032C19.5824 45.8068 19.0918 45.5689 18.7736 45.1596L12.3003 36.8333H7.45742L20.0638 54.0085Z" fill="#CAD4DD"/>
<path d="M32.5597 36.8333L20.0638 54.0085L7.45742 36.8333H12.3003L18.7736 45.1596C19.0918 45.5689 19.5824 45.8068 20.1008 45.8032C20.6192 45.7997 21.1065 45.5551 21.4191 45.1415L27.6976 36.8333H32.5597Z" fill="#CAD4DD"/>
<path fill-rule="evenodd" clip-rule="evenodd" d="M2.67983 8.41363C2.96366 7.85321 3.53849 7.5 4.16667 7.5H13.1157C13.6301 7.5 14.1157 7.73757 14.4315 8.1437L20.0706 15.3971L25.5384 8.16181C25.8534 7.74499 26.3456 7.5 26.8681 7.5H35.8333C36.4603 7.5 37.0342 7.85181 37.3186 8.41051C37.603 8.9692 37.5499 9.64025 37.1811 10.1472L21.4174 31.8139C21.1045 32.244 20.6051 32.4989 20.0732 32.5C19.5413 32.5011 19.0409 32.2483 18.7261 31.8195L2.82309 10.1528C2.45138 9.64643 2.396 8.97403 2.67983 8.41363ZM20.0638 28.0085L32.5597 10.8333H27.6976L21.4191 19.1415C21.1065 19.5551 20.6192 19.7997 20.1008 19.8032C19.5824 19.8068 19.0918 19.5689 18.7736 19.1596L12.3003 10.8333H7.45742L20.0638 28.0085Z" fill="#CAD4DD"/>
</svg>
