<svg width="461" height="132" viewBox="0 0 461 132" fill="none" xmlns="http://www.w3.org/2000/svg">
<path d="M16.7172 85.4276L34.382 80.2053L50.1254 42.7414L61.2232 68.285L73.8409 60.4516L58.9864 26.5637H42.0673L16.7172 85.4276Z" fill="url(#paint0_linear_2_1498)"/>
<path d="M5.36133 111.936H29.7364C39.8396 107.45 54.4848 100.918 69.978 89.3845L79.2894 111.936H96.2659L82.3005 79.2029C96.3273 66.355 105.638 54.1142 115.237 33.7419C77.129 78.0034 38.1673 87.6698 13.3047 93.5448L5.36133 111.936Z" fill="url(#paint1_linear_2_1498)"/>
<path d="M112.572 23.8318L114.946 34.1668L104.533 36.5277L112.572 23.8318Z" fill="#1FDEA3"/>
<path d="M117.321 44.5018L114.946 34.1668L125.359 31.8059L117.321 44.5018Z" fill="#1FDEA3"/>
<path fill-rule="evenodd" clip-rule="evenodd" d="M132.72 26.3114L128.179 33.4822L109.789 22.0965L114.292 14.9846L118.728 13.979L122.673 7.74859L133.086 5.3877L135.526 16.0098L131.73 22.0051L132.72 26.3114ZM122.684 17.5119C123.121 19.4145 125.03 20.6046 126.947 20.17C128.864 19.7353 130.063 17.8406 129.626 15.938C129.189 14.0354 127.281 12.8453 125.364 13.2799C123.447 13.7146 122.247 15.6093 122.684 17.5119Z" fill="#33313B"/>
<path d="M284.01 77.1153C282.276 77.1153 280.85 76.629 279.732 75.6562C278.653 74.6461 278.113 73.4115 278.113 71.9524C278.113 70.4559 278.653 69.2213 279.732 68.2486C280.85 67.2385 282.276 66.7334 284.01 66.7334C285.706 66.7334 287.093 67.2385 288.173 68.2486C289.29 69.2213 289.849 70.4559 289.849 71.9524C289.849 73.4115 289.29 74.6461 288.173 75.6562C287.093 76.629 285.706 77.1153 284.01 77.1153Z" fill="#1A1A1A"/>
<path d="M153.317 72.2891V79.9774H142.564V111.684H132.679V79.9774H121.926V72.2891H153.317Z" fill="#7755EA"/>
<path fill-rule="evenodd" clip-rule="evenodd" d="M177.472 112.077C173.656 112.077 170.149 111.217 166.95 109.496C163.79 107.775 161.265 105.38 159.377 102.313C157.527 99.2073 156.602 95.728 156.602 91.8745C156.602 88.021 157.527 84.5604 159.377 81.4926C161.265 78.4248 163.79 76.0304 166.95 74.3094C170.149 72.5884 173.656 71.7279 177.472 71.7279C181.287 71.7279 184.775 72.5884 187.936 74.3094C191.135 76.0304 193.64 78.4248 195.451 81.4926C197.301 84.5604 198.226 88.021 198.226 91.8745C198.226 95.728 197.301 99.2073 195.451 102.313C193.601 105.38 191.096 107.775 187.936 109.496C184.775 111.217 181.287 112.077 177.472 112.077ZM185.219 100.18C183.292 102.275 180.709 103.323 177.472 103.323C174.196 103.323 171.575 102.294 169.61 100.236C167.683 98.1411 166.719 95.3538 166.719 91.8745C166.719 88.3577 167.683 85.5705 169.61 83.5128C171.575 81.4552 174.196 80.4263 177.472 80.4263C180.709 80.4263 183.292 81.4739 185.219 83.569C187.184 85.6266 188.167 88.3951 188.167 91.8745C188.167 95.3164 187.184 98.0849 185.219 100.18Z" fill="#7755EA"/>
<path fill-rule="evenodd" clip-rule="evenodd" d="M234.655 84.9719C234.655 87.2541 234.115 89.3492 233.036 91.2572C231.957 93.1278 230.3 94.643 228.064 95.8028C225.829 96.9626 223.054 97.5425 219.739 97.5425H213.612V111.684H203.726V72.2891H219.739C222.977 72.2891 225.713 72.8316 227.949 73.9166C230.184 75.0015 231.861 76.498 232.978 78.406C234.096 80.3141 234.655 82.5027 234.655 84.9719ZM223.208 88.6196C222.283 89.4801 220.876 89.9103 218.988 89.9103H213.612V80.0335H218.988C220.876 80.0335 222.283 80.4637 223.208 81.3242C224.133 82.1847 224.596 83.4006 224.596 84.9719C224.596 86.5432 224.133 87.7591 223.208 88.6196Z" fill="#7755EA"/>
<path fill-rule="evenodd" clip-rule="evenodd" d="M237.836 95.9711C237.836 92.7537 238.452 89.929 239.686 87.4972C240.958 85.0654 242.673 83.1948 244.831 81.8854C246.989 80.576 249.398 79.9212 252.057 79.9212C254.331 79.9212 256.316 80.3702 258.012 81.2681C259.746 82.166 261.076 83.3445 262.001 84.8036V80.3702H271.886V111.684H262.001V107.251C261.037 108.71 259.688 109.889 257.954 110.786C256.258 111.684 254.273 112.133 251.999 112.133C249.379 112.133 246.989 111.479 244.831 110.169C242.673 108.822 240.958 106.933 239.686 104.501C238.452 102.032 237.836 99.1886 237.836 95.9711ZM259.92 90.3593C261.307 91.7435 262.001 93.6329 262.001 96.0273C262.001 98.4216 261.307 100.311 259.92 101.695C258.571 103.079 256.913 103.772 254.948 103.772C252.982 103.772 251.306 103.079 249.918 101.695C248.569 100.274 247.895 98.3655 247.895 95.9711C247.895 93.5768 248.569 91.7061 249.918 90.3593C251.306 88.975 252.982 88.2829 254.948 88.2829C256.913 88.2829 258.571 88.975 259.92 90.3593Z" fill="#1A1A1A"/>
<path d="M288.924 80.3702V111.684H279.038V80.3702H288.924Z" fill="#1A1A1A"/>
<path d="M305.974 85.5892C307.13 83.8682 308.575 82.5214 310.31 81.5487C312.044 80.5386 313.971 80.0335 316.091 80.0335V90.1909H313.374C310.907 90.1909 309.057 90.7147 307.824 91.7623C306.59 92.7724 305.974 94.5682 305.974 97.1496V111.684H296.088V80.3702H305.974V85.5892Z" fill="#1A1A1A"/>
<path fill-rule="evenodd" clip-rule="evenodd" d="M318.85 95.9711C318.85 92.7537 319.467 89.929 320.7 87.4972C321.972 85.0654 323.687 83.1948 325.846 81.8854C328.004 80.576 330.413 79.9212 333.072 79.9212C335.192 79.9212 337.119 80.3515 338.853 81.212C340.626 82.0725 342.013 83.2322 343.015 84.6913V70.1566H352.901V111.684H343.015V107.195C342.09 108.691 340.761 109.889 339.026 110.786C337.331 111.684 335.346 112.133 333.072 112.133C330.413 112.133 328.004 111.479 325.846 110.169C323.687 108.822 321.972 106.933 320.7 104.501C319.467 102.032 318.85 99.1886 318.85 95.9711ZM340.934 90.3593C342.322 91.7435 343.015 93.6329 343.015 96.0273C343.015 98.4216 342.322 100.311 340.934 101.695C339.585 103.079 337.928 103.772 335.962 103.772C333.997 103.772 332.32 103.079 330.933 101.695C329.584 100.274 328.91 98.3655 328.91 95.9711C328.91 93.5768 329.584 91.7061 330.933 90.3593C332.32 88.975 333.997 88.2829 335.962 88.2829C337.928 88.2829 339.585 88.975 340.934 90.3593Z" fill="#1A1A1A"/>
<path d="M369.939 85.5892C371.095 83.8682 372.54 82.5214 374.275 81.5487C376.009 80.5386 377.936 80.0335 380.056 80.0335V90.1909H377.338C374.872 90.1909 373.022 90.7147 371.789 91.7623C370.555 92.7724 369.939 94.5682 369.939 97.1496V111.684H360.053V80.3702H369.939V85.5892Z" fill="#1A1A1A"/>
<path fill-rule="evenodd" clip-rule="evenodd" d="M399.465 112.133C396.305 112.133 393.452 111.479 390.909 110.169C388.404 108.86 386.419 106.989 384.954 104.557C383.528 102.125 382.815 99.2821 382.815 96.0273C382.815 92.8098 383.547 89.9852 385.012 87.5534C386.477 85.0842 388.481 83.1948 391.024 81.8854C393.568 80.576 396.42 79.9212 399.58 79.9212C402.741 79.9212 405.593 80.576 408.136 81.8854C410.68 83.1948 412.684 85.0842 414.149 87.5534C415.613 89.9852 416.346 92.8098 416.346 96.0273C416.346 99.2447 415.594 102.088 414.091 104.557C412.626 106.989 410.603 108.86 408.021 110.169C405.477 111.479 402.625 112.133 399.465 112.133ZM404.263 101.807C402.953 103.154 401.353 103.828 399.465 103.828C397.576 103.828 395.996 103.154 394.724 101.807C393.491 100.461 392.874 98.5339 392.874 96.0273C392.874 93.4832 393.51 91.5565 394.782 90.2471C396.054 88.9002 397.653 88.2268 399.58 88.2268C401.469 88.2268 403.049 88.9002 404.321 90.2471C405.631 91.5939 406.287 93.5206 406.287 96.0273C406.287 98.5339 405.612 100.461 404.263 101.807Z" fill="#1A1A1A"/>
<path fill-rule="evenodd" clip-rule="evenodd" d="M431.476 84.8036C432.439 83.3445 433.769 82.166 435.465 81.2681C437.161 80.3702 439.145 79.9212 441.419 79.9212C444.079 79.9212 446.488 80.576 448.646 81.8854C450.804 83.1948 452.5 85.0654 453.733 87.4972C455.005 89.929 455.641 92.7537 455.641 95.9711C455.641 99.1886 455.005 102.032 453.733 104.501C452.5 106.933 450.804 108.822 448.646 110.169C446.488 111.479 444.079 112.133 441.419 112.133C439.184 112.133 437.199 111.684 435.465 110.786C433.769 109.889 432.439 108.729 431.476 107.307V126.612H421.59V80.3702H431.476V84.8036ZM443.501 90.3593C444.888 91.7061 445.582 93.5768 445.582 95.9711C445.582 98.3655 444.888 100.274 443.501 101.695C442.113 103.079 440.437 103.772 438.471 103.772C436.505 103.772 434.829 103.079 433.441 101.695C432.093 100.311 431.418 98.4216 431.418 96.0273C431.418 93.6329 432.093 91.7435 433.441 90.3593C434.829 88.975 436.505 88.2829 438.471 88.2829C440.475 88.2829 442.152 88.975 443.501 90.3593Z" fill="#1A1A1A"/>
<defs>
<linearGradient id="paint0_linear_2_1498" x1="103.342" y1="26.5118" x2="6.01442" y2="112.604" gradientUnits="userSpaceOnUse">
<stop stop-color="#1FDEA3"/>
<stop offset="0.8625" stop-color="#7755EA"/>
</linearGradient>
<linearGradient id="paint1_linear_2_1498" x1="103.342" y1="26.5118" x2="6.01442" y2="112.604" gradientUnits="userSpaceOnUse">
<stop stop-color="#1FDEA3"/>
<stop offset="0.8625" stop-color="#7755EA"/>
</linearGradient>
</defs>
</svg>
