<svg width="218" height="52" viewBox="0 0 218 52" fill="none" xmlns="http://www.w3.org/2000/svg">
<path d="M5.39848 33.119L12.6139 30.9399L19.0445 15.3075L23.5775 25.966L28.7314 22.6974L22.6639 8.55713H15.753L5.39848 33.119Z" fill="url(#paint0_linear_2_1269)"/>
<path d="M0.76001 44.1801H10.7163C14.8431 42.308 20.8251 39.5824 27.1535 34.77L30.9569 44.1801H37.8912L32.1868 30.5216C37.9163 25.1606 41.7192 20.053 45.64 11.5523C30.0745 30.0211 14.16 34.0545 4.00459 36.506L0.76001 44.1801Z" fill="url(#paint1_linear_2_1269)"/>
<path d="M44.7506 7.85656L45.7342 12.0743L41.4206 13.0377L44.7506 7.85656Z" fill="#1FDEA3"/>
<path d="M46.7178 16.292L45.7342 12.0743L50.0477 11.1108L46.7178 16.292Z" fill="#1FDEA3"/>
<path fill-rule="evenodd" clip-rule="evenodd" d="M53.0965 8.86849L51.2157 11.7949L43.598 7.14839L45.4633 4.24605L47.3006 3.83568L48.9347 1.29307L53.2482 0.32959L54.2592 4.66445L52.6867 7.11112L53.0965 8.86849ZM48.9394 5.27745C49.1205 6.05391 49.9111 6.53956 50.7052 6.36219C51.4993 6.18482 51.9962 5.41159 51.8151 4.63513C51.634 3.85868 50.8435 3.37302 50.0494 3.55039C49.2553 3.72776 48.7584 4.50099 48.9394 5.27745Z" fill="#33313B"/>
<path d="M129.438 25.9937C128.551 25.9937 127.821 25.7467 127.25 25.2527C126.698 24.7397 126.422 24.1127 126.422 23.3717C126.422 22.6117 126.698 21.9847 127.25 21.4907C127.821 20.9777 128.551 20.7212 129.438 20.7212C130.306 20.7212 131.015 20.9777 131.568 21.4907C132.139 21.9847 132.425 22.6117 132.425 23.3717C132.425 24.1127 132.139 24.7397 131.568 25.2527C131.015 25.7467 130.306 25.9937 129.438 25.9937Z" fill="#1A1A1A"/>
<path d="M62.5791 23.5427V27.4473H57.0782V43.5499H52.0209V27.4473H46.52V23.5427H62.5791Z" fill="#7755EA"/>
<path fill-rule="evenodd" clip-rule="evenodd" d="M74.936 43.7494C72.984 43.7494 71.1898 43.3124 69.5534 42.4384C67.9366 41.5644 66.6452 40.3484 65.6791 38.7904C64.7327 37.2134 64.2595 35.4464 64.2595 33.4893C64.2595 31.5323 64.7327 29.7748 65.6791 28.2168C66.6452 26.6588 67.9366 25.4427 69.5534 24.5687C71.1898 23.6947 72.984 23.2577 74.936 23.2577C76.8879 23.2577 78.6722 23.6947 80.289 24.5687C81.9254 25.4427 83.207 26.6588 84.1337 28.2168C85.0801 29.7748 85.5533 31.5323 85.5533 33.4893C85.5533 35.4464 85.0801 37.2134 84.1337 38.7904C83.1873 40.3484 81.9057 41.5644 80.289 42.4384C78.6722 43.3124 76.8879 43.7494 74.936 43.7494ZM78.899 37.7074C77.9131 38.7714 76.5921 39.3034 74.936 39.3034C73.2601 39.3034 71.9193 38.7809 70.9138 37.7359C69.928 36.6719 69.4351 35.2564 69.4351 33.4893C69.4351 31.7033 69.928 30.2878 70.9138 29.2428C71.9193 28.1978 73.2601 27.6753 74.936 27.6753C76.5921 27.6753 77.9131 28.2073 78.899 29.2713C79.9045 30.3163 80.4073 31.7223 80.4073 33.4893C80.4073 35.2374 79.9045 36.6434 78.899 37.7074Z" fill="#7755EA"/>
<path fill-rule="evenodd" clip-rule="evenodd" d="M104.189 29.9838C104.189 31.1428 103.913 32.2068 103.361 33.1758C102.809 34.1258 101.961 34.8953 100.818 35.4844C99.6742 36.0734 98.2546 36.3679 96.559 36.3679H93.4241V43.5499H88.3668V23.5427H96.559C98.2151 23.5427 99.615 23.8182 100.759 24.3692C101.902 24.9202 102.76 25.6802 103.332 26.6493C103.903 27.6183 104.189 28.7298 104.189 29.9838ZM98.3334 31.8363C97.8603 32.2733 97.1406 32.4918 96.1745 32.4918H93.4241V27.4758H96.1745C97.1406 27.4758 97.8603 27.6943 98.3334 28.1313C98.8066 28.5683 99.0432 29.1858 99.0432 29.9838C99.0432 30.7818 98.8066 31.3993 98.3334 31.8363Z" fill="#7755EA"/>
<path fill-rule="evenodd" clip-rule="evenodd" d="M105.817 35.5699C105.817 33.9358 106.132 32.5013 106.763 31.2663C107.414 30.0313 108.291 29.0813 109.395 28.4163C110.499 27.7513 111.731 27.4188 113.092 27.4188C114.255 27.4188 115.271 27.6468 116.138 28.1028C117.025 28.5588 117.706 29.1573 118.179 29.8983V27.6468H123.236V43.5499H118.179V41.2984C117.686 42.0394 116.996 42.6379 116.109 43.0939C115.241 43.5499 114.226 43.7779 113.062 43.7779C111.722 43.7779 110.499 43.4454 109.395 42.7804C108.291 42.0964 107.414 41.1369 106.763 39.9019C106.132 38.6479 105.817 37.2039 105.817 35.5699ZM117.114 32.7198C117.824 33.4228 118.179 34.3823 118.179 35.5984C118.179 36.8144 117.824 37.7739 117.114 38.4769C116.424 39.1799 115.576 39.5314 114.571 39.5314C113.565 39.5314 112.707 39.1799 111.998 38.4769C111.308 37.7549 110.963 36.7859 110.963 35.5699C110.963 34.3538 111.308 33.4038 111.998 32.7198C112.707 32.0168 113.565 31.6653 114.571 31.6653C115.576 31.6653 116.424 32.0168 117.114 32.7198Z" fill="#1A1A1A"/>
<path d="M131.952 27.6468V43.5499H126.895V27.6468H131.952Z" fill="#1A1A1A"/>
<path d="M140.674 30.2973C141.266 29.4233 142.005 28.7393 142.892 28.2453C143.78 27.7323 144.765 27.4758 145.85 27.4758V32.6343H144.46C143.198 32.6343 142.252 32.9003 141.621 33.4323C140.99 33.9453 140.674 34.8573 140.674 36.1684V43.5499H135.617V27.6468H140.674V30.2973Z" fill="#1A1A1A"/>
<path fill-rule="evenodd" clip-rule="evenodd" d="M147.262 35.5699C147.262 33.9358 147.577 32.5013 148.208 31.2663C148.859 30.0313 149.736 29.0813 150.84 28.4163C151.944 27.7513 153.176 27.4188 154.537 27.4188C155.621 27.4188 156.607 27.6373 157.494 28.0743C158.401 28.5113 159.111 29.1003 159.624 29.8413V22.4597H164.681V43.5499H159.624V41.2699C159.151 42.0299 158.47 42.6379 157.583 43.0939C156.716 43.5499 155.7 43.7779 154.537 43.7779C153.176 43.7779 151.944 43.4454 150.84 42.7804C149.736 42.0964 148.859 41.1369 148.208 39.9019C147.577 38.6479 147.262 37.2039 147.262 35.5699ZM158.559 32.7198C159.269 33.4228 159.624 34.3823 159.624 35.5984C159.624 36.8144 159.269 37.7739 158.559 38.4769C157.869 39.1799 157.021 39.5314 156.016 39.5314C155.01 39.5314 154.152 39.1799 153.443 38.4769C152.753 37.7549 152.408 36.7859 152.408 35.5699C152.408 34.3538 152.753 33.4038 153.443 32.7198C154.152 32.0168 155.01 31.6653 156.016 31.6653C157.021 31.6653 157.869 32.0168 158.559 32.7198Z" fill="#1A1A1A"/>
<path d="M173.397 30.2973C173.988 29.4233 174.728 28.7393 175.615 28.2453C176.502 27.7323 177.488 27.4758 178.573 27.4758V32.6343H177.183C175.921 32.6343 174.974 32.9003 174.343 33.4323C173.712 33.9453 173.397 34.8573 173.397 36.1684V43.5499H168.34V27.6468H173.397V30.2973Z" fill="#1A1A1A"/>
<path fill-rule="evenodd" clip-rule="evenodd" d="M188.502 43.7779C186.885 43.7779 185.426 43.4454 184.125 42.7804C182.843 42.1154 181.828 41.1654 181.079 39.9304C180.349 38.6954 179.984 37.2514 179.984 35.5984C179.984 33.9643 180.359 32.5298 181.108 31.2948C181.857 30.0408 182.883 29.0813 184.184 28.4163C185.485 27.7513 186.944 27.4188 188.561 27.4188C190.178 27.4188 191.637 27.7513 192.938 28.4163C194.239 29.0813 195.264 30.0408 196.014 31.2948C196.763 32.5298 197.138 33.9643 197.138 35.5984C197.138 37.2324 196.753 38.6764 195.984 39.9304C195.235 41.1654 194.2 42.1154 192.879 42.7804C191.578 43.4454 190.119 43.7779 188.502 43.7779ZM190.956 38.5339C190.286 39.2179 189.468 39.5599 188.502 39.5599C187.536 39.5599 186.727 39.2179 186.077 38.5339C185.446 37.8499 185.13 36.8714 185.13 35.5984C185.13 34.3063 185.456 33.3278 186.106 32.6628C186.757 31.9788 187.575 31.6368 188.561 31.6368C189.527 31.6368 190.335 31.9788 190.986 32.6628C191.656 33.3468 191.992 34.3253 191.992 35.5984C191.992 36.8714 191.647 37.8499 190.956 38.5339Z" fill="#1A1A1A"/>
<path fill-rule="evenodd" clip-rule="evenodd" d="M204.878 29.8983C205.371 29.1573 206.051 28.5588 206.918 28.1028C207.786 27.6468 208.801 27.4188 209.965 27.4188C211.325 27.4188 212.557 27.7513 213.661 28.4163C214.766 29.0813 215.633 30.0313 216.264 31.2663C216.915 32.5013 217.24 33.9358 217.24 35.5699C217.24 37.2039 216.915 38.6479 216.264 39.9019C215.633 41.1369 214.766 42.0964 213.661 42.7804C212.557 43.4454 211.325 43.7779 209.965 43.7779C208.821 43.7779 207.806 43.5499 206.918 43.0939C206.051 42.6379 205.371 42.0489 204.878 41.3269V51.131H199.821V27.6468H204.878V29.8983ZM211.029 32.7198C211.739 33.4038 212.094 34.3538 212.094 35.5699C212.094 36.7859 211.739 37.7549 211.029 38.4769C210.32 39.1799 209.462 39.5314 208.456 39.5314C207.451 39.5314 206.593 39.1799 205.883 38.4769C205.193 37.7739 204.848 36.8144 204.848 35.5984C204.848 34.3823 205.193 33.4228 205.883 32.7198C206.593 32.0168 207.451 31.6653 208.456 31.6653C209.482 31.6653 210.339 32.0168 211.029 32.7198Z" fill="#1A1A1A"/>
<defs>
<linearGradient id="paint0_linear_2_1269" x1="40.7813" y1="8.53546" x2="0.284689" y2="43.6019" gradientUnits="userSpaceOnUse">
<stop stop-color="#1FDEA3"/>
<stop offset="0.8625" stop-color="#7755EA"/>
</linearGradient>
<linearGradient id="paint1_linear_2_1269" x1="40.7813" y1="8.53546" x2="0.284689" y2="43.6019" gradientUnits="userSpaceOnUse">
<stop stop-color="#1FDEA3"/>
<stop offset="0.8625" stop-color="#7755EA"/>
</linearGradient>
</defs>
</svg>
