<svg width="360" height="9" viewBox="0 0 360 9" fill="none" xmlns="http://www.w3.org/2000/svg">
<path opacity="0.15" d="M0 1H69.8368C70.522 1 71.183 1.23441 71.7126 1.65881C71.8836 1.79583 72.0514 1.93801 72.2363 2.05561L79.9226 6.94439C80.1075 7.06199 80.2752 7.20417 80.4462 7.34119C80.9758 7.7656 81.6369 8 82.3221 8H107.837C108.522 8 109.183 7.76559 109.713 7.34119C109.884 7.20417 110.051 7.06199 110.236 6.94439L117.923 2.05561C118.107 1.93801 118.275 1.79583 118.446 1.65881C118.976 1.2344 119.637 1 120.322 1H239.837C240.522 1 241.183 1.23441 241.713 1.65881C241.884 1.79583 242.051 1.93801 242.236 2.05561L249.923 6.94439C250.107 7.06199 250.275 7.20417 250.446 7.34119C250.976 7.76559 251.637 8 252.322 8H277.837C278.522 8 279.183 7.7656 279.713 7.34119C279.884 7.20417 280.051 7.06199 280.236 6.94439L287.923 2.05561C288.107 1.93801 288.275 1.79583 288.446 1.65881C288.976 1.2344 289.637 1 290.322 1H360" stroke="url(#paint0_linear_2_3006)" stroke-width="2" stroke-linecap="round" stroke-linejoin="round"/>
<defs>
<linearGradient id="paint0_linear_2_3006" x1="360" y1="1" x2="359.92" y2="10.913" gradientUnits="userSpaceOnUse">
<stop stop-color="#1FDEA3"/>
<stop offset="1" stop-color="#7755EA"/>
</linearGradient>
</defs>
</svg>
