<svg width="0" height="0" class="hidden">
  <symbol  xmlns="http://www.w3.org/2000/svg" viewBox="0 0 26 26" id="tg">
    <path fill-rule="evenodd" clip-rule="evenodd" d="M26 13C26 20.1797 20.1797 26 13 26C5.8203 26 0 20.1797 0 13C0 5.8203 5.8203 0 13 0C20.1797 0 26 5.8203 26 13ZM13.4659 9.59717C12.2014 10.1231 9.67432 11.2116 5.88455 12.8628C5.26915 13.1075 4.94678 13.3469 4.91743 13.581C4.86783 13.9766 5.36327 14.1324 6.03793 14.3445C6.1297 14.3734 6.22478 14.4033 6.32227 14.435C6.98602 14.6508 7.8789 14.9032 8.34306 14.9132C8.76411 14.9223 9.23404 14.7487 9.75286 14.3925C13.2938 12.0023 15.1216 10.7941 15.2363 10.7681C15.3173 10.7497 15.4295 10.7266 15.5055 10.7942C15.5815 10.8617 15.574 10.9897 15.566 11.024C15.5169 11.2332 13.5721 13.0413 12.5657 13.9769C12.252 14.2686 12.0294 14.4755 11.9839 14.5228C11.882 14.6286 11.7781 14.7288 11.6783 14.825C11.0617 15.4194 10.5992 15.8652 11.7039 16.5932C12.2348 16.943 12.6596 17.2323 13.0834 17.5209C13.5462 17.8361 14.0078 18.1505 14.6051 18.542C14.7573 18.6417 14.9026 18.7453 15.0441 18.8462C15.5827 19.2302 16.0666 19.5752 16.6645 19.5202C17.0118 19.4882 17.3707 19.1616 17.5529 18.1874C17.9836 15.8851 18.8301 10.8967 19.0257 8.84106C19.0429 8.66096 19.0213 8.43047 19.004 8.32929C18.9867 8.22811 18.9505 8.08395 18.819 7.97723C18.6632 7.85085 18.4228 7.8242 18.3152 7.82609C17.8263 7.8347 17.0761 8.09555 13.4659 9.59717Z"></path>
  </symbol>
  <symbol  xmlns="http://www.w3.org/2000/svg" viewBox="0 0 24 22" id="x">
    <path d="M18.8536 0.0625H22.5082L14.524 9.18795L23.9168 21.6056H16.5623L10.802 14.0744L4.21094 21.6056H0.554131L9.09405 11.8449L0.0834961 0.0625H7.6247L12.8315 6.94636L18.8536 0.0625ZM17.571 19.4182H19.596L6.52434 2.13506H4.35125L17.571 19.4182Z"></path>
  </symbol>

   <symbol  xmlns="http://www.w3.org/2000/svg" viewBox="0 0 97 96" id="why-1">
    <path d="M84.5 48L48.5 12L12.5 48H24.5L48.5 24L72.5 48H84.5Z" ></path>
    <path d="M84.5 64L48.5 28L12.5 64H24.5L48.5 40L72.5 64H84.5Z" ></path>
    <path d="M84.5 80L48.5 44L12.5 80H24.5L48.5 56L72.5 80H84.5Z" ></path>
  </symbol>
  <symbol  xmlns="http://www.w3.org/2000/svg" viewBox="0 0 97 96" id="why-2">
    <path d="M30.5 30C40.4411 30 48.5 21.9411 48.5 12C48.5 21.9411 56.5589 30 66.5 30C76.4411 30 84.5 21.9411 84.5 12H48.5H12.5C12.5 21.9411 20.5589 30 30.5 30Z" ></path>
    <path fill-rule="evenodd" clip-rule="evenodd" d="M30.5 66C20.5589 66 12.5 74.0589 12.5 84H48.5H84.5C84.5 74.0589 76.4411 66 66.5 66C76.4411 66 84.5 57.9411 84.5 48C84.5 47.324 84.4627 46.6567 84.3901 46C83.3953 37.0001 75.7651 30 66.5 30C57.2349 30 49.6047 37.0001 48.6099 46C48.5373 46.6567 48.5 47.324 48.5 48C48.5 47.324 48.4627 46.6567 48.3901 46C47.3953 37.0001 39.7651 30 30.5 30C21.2349 30 13.6047 37.0001 12.6099 46C12.5373 46.6567 12.5 47.324 12.5 48C12.5 57.9411 20.5589 66 30.5 66ZM30.5 66C40.4411 66 48.5 57.9411 48.5 48C48.5 57.9411 56.5589 66 66.5 66C56.5589 66 48.5 74.0589 48.5 84C48.5 74.0589 40.4411 66 30.5 66ZM30.5 32C38.6592 32 45.392 38.1074 46.3762 46H14.6238C15.608 38.1074 22.3408 32 30.5 32ZM66.5 32C74.6592 32 81.392 38.1074 82.3762 46H50.6238C51.608 38.1074 58.3408 32 66.5 32Z" ></path>
  </symbol>
  <symbol  xmlns="http://www.w3.org/2000/svg" viewBox="0 0 97 96" id="why-3">
    <path d="M27.1019 84C24.4327 84 21.9879 83.3495 19.7673 82.0486C17.5467 80.7252 15.7748 78.9533 14.4514 76.7327C13.1505 74.5121 12.5 72.0673 12.5 69.3981C12.5 66.7065 13.1505 64.2505 14.4514 62.0299C15.7748 59.8093 17.5467 58.0374 19.7673 56.714C21.9879 55.3907 24.4327 54.729 27.1019 54.729H34.9075V41.2037H27.1019C24.4327 41.2037 21.9879 40.5533 19.7673 39.2523C17.5467 37.929 15.7748 36.1682 14.4514 33.9701C13.1505 31.7495 12.5 29.2935 12.5 26.6019C12.5 23.9103 13.1505 21.4654 14.4514 19.2673C15.7748 17.0467 17.5467 15.286 19.7673 13.9851C21.9879 12.6617 24.4327 12 27.1019 12C29.7935 12 32.2495 12.6617 34.4701 13.9851C36.6907 15.286 38.4626 17.0467 39.786 19.2673C41.1093 21.4654 41.771 23.9103 41.771 26.6019V34.3402H55.2963V26.6019C55.2963 23.9103 55.9467 21.4654 57.2477 19.2673C58.571 17.0467 60.3318 15.286 62.5299 13.9851C64.7505 12.6617 67.2065 12 69.8981 12C72.5897 12 75.0346 12.6617 77.2327 13.9851C79.4533 15.286 81.214 17.0467 82.5149 19.2673C83.8383 21.4654 84.5 23.9103 84.5 26.6019C84.5 29.2935 83.8383 31.7495 82.5149 33.9701C81.214 36.1682 79.4533 37.929 77.2327 39.2523C75.0346 40.5533 72.5897 41.2037 69.8981 41.2037H62.1598V54.729H69.8981C72.5897 54.729 75.0346 55.3907 77.2327 56.714C79.4533 58.0374 81.214 59.8093 82.5149 62.0299C83.8383 64.2505 84.5 66.7065 84.5 69.3981C84.5 72.0673 83.8383 74.5121 82.5149 76.7327C81.214 78.9533 79.4533 80.7252 77.2327 82.0486C75.0346 83.3495 72.5897 84 69.8981 84C67.2065 84 64.7505 83.3495 62.5299 82.0486C60.3318 80.7252 58.571 78.9533 57.2477 76.7327C55.9467 74.5121 55.2963 72.0673 55.2963 69.3981V61.5925H41.771V69.3981C41.771 72.0673 41.1093 74.5121 39.786 76.7327C38.4626 78.9533 36.6907 80.7252 34.4701 82.0486C32.2495 83.3495 29.7935 84 27.1019 84ZM27.1019 77.1365C28.5374 77.1365 29.8383 76.7888 31.0047 76.0935C32.1935 75.3981 33.1355 74.4673 33.8308 73.3009C34.5486 72.1121 34.9075 70.8112 34.9075 69.3981V61.5925H27.1019C25.6888 61.5925 24.3879 61.9514 23.1991 62.6692C22.0327 63.3645 21.1019 64.3065 20.4065 65.4953C19.7112 66.6617 19.3636 67.9626 19.3636 69.3981C19.3636 70.8112 19.7112 72.1121 20.4065 73.3009C21.1019 74.4673 22.0327 75.3981 23.1991 76.0935C24.3879 76.7888 25.6888 77.1365 27.1019 77.1365ZM27.1019 34.3402H34.9075V26.6019C34.9075 25.1664 34.5486 23.8654 33.8308 22.6991C33.1355 21.5327 32.1935 20.6019 31.0047 19.9065C29.8383 19.2112 28.5374 18.8636 27.1019 18.8636C25.6888 18.8636 24.3879 19.2112 23.1991 19.9065C22.0327 20.6019 21.1019 21.5327 20.4065 22.6991C19.7112 23.8654 19.3636 25.1664 19.3636 26.6019C19.3636 28.0374 19.7112 29.3495 20.4065 30.5383C21.1019 31.7047 22.0327 32.6355 23.1991 33.3308C24.3879 34.0037 25.6888 34.3402 27.1019 34.3402ZM62.1598 34.3402H69.8981C71.3336 34.3402 72.6346 34.0037 73.8009 33.3308C74.9673 32.6355 75.8981 31.7047 76.5935 30.5383C77.2888 29.3495 77.6365 28.0374 77.6365 26.6019C77.6365 25.1664 77.2888 23.8654 76.5935 22.6991C75.8981 21.5327 74.9673 20.6019 73.8009 19.9065C72.6346 19.2112 71.3336 18.8636 69.8981 18.8636C68.4626 18.8636 67.1505 19.2112 65.9617 19.9065C64.7953 20.6019 63.8645 21.5327 63.1692 22.6991C62.4963 23.8654 62.1598 25.1664 62.1598 26.6019V34.3402ZM69.8981 77.1365C71.3336 77.1365 72.6346 76.7888 73.8009 76.0935C74.9673 75.3981 75.8981 74.4673 76.5935 73.3009C77.2888 72.1121 77.6365 70.8112 77.6365 69.3981C77.6365 67.9626 77.2888 66.6617 76.5935 65.4953C75.8981 64.3065 74.9673 63.3645 73.8009 62.6692C72.6346 61.9514 71.3336 61.5925 69.8981 61.5925H62.1598V69.3981C62.1598 70.8112 62.4963 72.1121 63.1692 73.3009C63.8645 74.4673 64.7953 75.3981 65.9617 76.0935C67.1505 76.7888 68.4626 77.1365 69.8981 77.1365ZM41.771 54.729H55.2963V41.2037H41.771V54.729Z" ></path>
  </symbol>
  <symbol  xmlns="http://www.w3.org/2000/svg" viewBox="0 0 97 96" id="why-4">
    <path d="M48.5545 84C42.9992 84 38.5333 80.1744 38.5333 75.0736C38.5333 70.7575 41.8011 67.2262 46.4849 66.3433V51.2371L31.8888 58.7902C32.1067 59.4768 32.3245 60.3597 32.3245 61.5368C32.3245 66.3433 27.9675 70.4632 22.5212 70.4632C17.1838 70.4632 12.5 66.4414 12.5 61.5368C12.5 56.7302 16.857 52.6104 22.4123 52.6104C25.3533 52.6104 27.8585 53.5913 29.8192 55.5531L44.3064 48L29.8192 40.4469C27.9675 42.4087 25.5711 43.3896 22.5212 43.3896C16.966 43.3896 12.5 39.3678 12.5 34.5613C12.5 29.6567 17.0749 25.5368 22.5212 25.5368C28.0764 25.5368 32.3245 29.7548 32.3245 34.4632C32.3245 35.6403 32.1067 36.5232 31.8888 37.2098L46.4849 44.7629V29.6567C41.91 28.8719 38.5333 25.4387 38.5333 20.9264C38.5333 15.9237 42.9992 12 48.4455 12C54.1097 12 58.4667 16.1199 58.4667 20.9264C58.4667 25.2425 54.9811 28.8719 50.5151 29.6567V44.7629L65.1112 37.2098C64.7844 36.4251 64.6755 35.5422 64.6755 34.4632C64.6755 29.6567 68.9236 25.5368 74.4788 25.5368C80.2519 25.5368 84.5 29.7548 84.5 34.5613C84.5 39.3678 79.9251 43.3896 74.4788 43.3896C71.4289 43.3896 69.0325 42.4087 67.1808 40.4469L52.5847 48L67.1808 55.5531C69.1415 53.5913 71.6467 52.6104 74.5877 52.6104C80.034 52.6104 84.5 56.7302 84.5 61.5368C84.5 66.3433 79.9251 70.4632 74.4788 70.4632C68.9236 70.4632 64.6755 66.3433 64.6755 61.5368C64.6755 60.4578 64.7844 59.5749 65.1112 58.7902L50.5151 51.2371V66.3433C55.1989 67.3242 58.4667 70.8556 58.4667 75.0736C58.4667 80.1744 54.1097 84 48.5545 84Z" ></path>
  </symbol>
    <symbol xmlns="http://www.w3.org/2000/svg" viewBox="0 0 14 14" id="list-decor">
    <path d="M6 1.57735C6.6188 1.22008 7.3812 1.22008 8 1.57735L11.1962 3.42265C11.815 3.77992 12.1962 4.44017 12.1962 5.1547V8.8453C12.1962 9.55983 11.815 10.2201 11.1962 10.5774L8 12.4226C7.3812 12.7799 6.6188 12.7799 6 12.4226L2.80385 10.5774C2.18505 10.2201 1.80385 9.55983 1.80385 8.8453V5.1547C1.80385 4.44017 2.18505 3.77992 2.80385 3.42265L6 1.57735Z" ></path>
  </symbol>
    <symbol xmlns="http://www.w3.org/2000/svg" viewBox="0 0 261 6" id="price-divider">
    <path d="M1 0.5H32.7069C32.8936 0.5 33.0798 0.517427 33.2633 0.552055L59.2014 5.44795C59.3848 5.48257 59.5711 5.5 59.7578 5.5H201.146C201.332 5.5 201.519 5.48257 201.702 5.44795L227.64 0.552055C227.824 0.517427 228.01 0.5 228.197 0.5H260"  stroke-linecap="round" stroke-linejoin="round"></path>
  </symbol>
    <symbol xmlns="http://www.w3.org/2000/svg" viewBox="0 0 14 14" id="arrow-up-right">
    <path d="M11.6667 2.91671V8.75004C11.6667 9.07204 11.4059 9.33337 11.0833 9.33337C10.7608 9.33337 10.5 9.07204 10.5 8.75004V4.32491L3.91244 10.9125C3.79869 11.0262 3.64933 11.0834 3.5 11.0834C3.35067 11.0834 3.20132 11.0262 3.08757 10.9125C2.85948 10.6844 2.85948 10.3157 3.08757 10.0876L9.67513 3.50004H5.25C4.92742 3.50004 4.66667 3.23871 4.66667 2.91671C4.66667 2.59471 4.92742 2.33337 5.25 2.33337H11.0833C11.1592 2.33337 11.235 2.34907 11.3062 2.37823C11.4491 2.43715 11.5629 2.55091 11.6218 2.69383C11.6516 2.76499 11.6667 2.84087 11.6667 2.91671Z"></path>
  </symbol>
    <symbol  xmlns="http://www.w3.org/2000/svg" viewBox="0 0 48 48" id="arrow-left-dots">
      <path fill-rule="evenodd" clip-rule="evenodd" d="M27 22C25.8954 22 25 22.8954 25 24C25 25.1046 25.8954 26 27 26C28.1046 26 29 25.1046 29 24C29 22.8954 28.1046 22 27 22ZM23 24C23 21.7909 24.7909 20 27 20C29.2091 20 31 21.7909 31 24C31 26.2091 29.2091 28 27 28C24.7909 28 23 26.2091 23 24Z"></path>
      <path fill-rule="evenodd" clip-rule="evenodd" d="M40 22C38.8954 22 38 22.8954 38 24C38 25.1046 38.8954 26 40 26C41.1046 26 42 25.1046 42 24C42 22.8954 41.1046 22 40 22ZM36 24C36 21.7909 37.7909 20 40 20C42.2091 20 44 21.7909 44 24C44 26.2091 42.2091 28 40 28C37.7909 28 36 26.2091 36 24Z"></path>
      <path fill-rule="evenodd" clip-rule="evenodd" d="M17.7071 11.2929C18.0976 11.6834 18.0976 12.3166 17.7071 12.7071L6.41421 24L17.7071 35.2929C18.0976 35.6834 18.0976 36.3166 17.7071 36.7071C17.3166 37.0976 16.6834 37.0976 16.2929 36.7071L4.29289 24.7071C3.90237 24.3166 3.90237 23.6834 4.29289 23.2929L16.2929 11.2929C16.6834 10.9024 17.3166 10.9024 17.7071 11.2929Z"></path>
  </symbol>
    <symbol xmlns="http://www.w3.org/2000/svg" viewBox="0 0 24 24" id="close">
    <path d="M14.1988 12.0002L23.5439 2.65458C24.152 2.04669 24.152 1.06381 23.5439 0.455919C22.936 -0.151973 21.9531 -0.151973 21.3453 0.455919L11.9999 9.80152L2.65474 0.455919C2.04658 -0.151973 1.064 -0.151973 0.456123 0.455919C-0.152041 1.06381 -0.152041 2.04669 0.456123 2.65458L9.80124 12.0002L0.456123 21.3458C-0.152041 21.9537 -0.152041 22.9365 0.456123 23.5444C0.759067 23.8477 1.15739 24 1.55543 24C1.95347 24 2.35151 23.8477 2.65474 23.5444L11.9999 14.1988L21.3453 23.5444C21.6485 23.8477 22.0465 24 22.4446 24C22.8426 24 23.2406 23.8477 23.5439 23.5444C24.152 22.9365 24.152 21.9537 23.5439 21.3458L14.1988 12.0002Z"></path>
  </symbol>
</svg>